<?xml version='1.0' encoding='UTF-8'?>
<svg xmlns:inkscape="http://www.inkscape.org/namespaces/inkscape" xmlns:sodipodi="http://sodipodi.sourceforge.net/DTD/sodipodi-0.dtd" xmlns="http://www.w3.org/2000/svg" xmlns:svg="http://www.w3.org/2000/svg" xmlns:rdf="http://www.w3.org/1999/02/22-rdf-syntax-ns#" xmlns:cc="http://creativecommons.org/ns#" xmlns:dc="http://purl.org/dc/elements/1.1/" width="64" height="64" version="1.1" id="svg7" sodipodi:docname="folder-publicshare.svg" inkscape:version="1.4.2 (ebf0e940d0, 2025-05-08)">
  <metadata id="metadata11">
    <rdf:RDF>
      <cc:Work rdf:about="">
        <dc:format>image/svg+xml</dc:format>
        <dc:type rdf:resource="http://purl.org/dc/dcmitype/StillImage"/>
      </cc:Work>
    </rdf:RDF>
  </metadata>
  <sodipodi:namedview pagecolor="#9c4444" bordercolor="#666666" borderopacity="1" objecttolerance="10" gridtolerance="10" guidetolerance="10" inkscape:pageopacity="0" inkscape:pageshadow="2" inkscape:window-width="2560" inkscape:window-height="1376" id="namedview9" showgrid="false" inkscape:zoom="12.890625" inkscape:cx="7.4472727" inkscape:cy="7.990303" inkscape:window-x="0" inkscape:window-y="0" inkscape:window-maximized="1" inkscape:current-layer="g1" inkscape:document-rotation="0" inkscape:showpageshadow="2" inkscape:pagecheckerboard="0" inkscape:deskcolor="#ffffff"/>
  <defs id="defs3">
    <style id="current-color-scheme" type="text/css">.ColorScheme-Text {color:#d8dee9} .ColorScheme-Highlight {color:#3b4252}</style>
  </defs>
  <g id="g1" transform="matrix(3.0614776,0,0,3.0614776,-18.011568,-26.661558)">
    <path style="display:inline;overflow:visible;visibility:visible;fill:currentColor;fill-opacity:0.971119;fill-rule:nonzero;stroke:none;stroke-width:1.00576;stroke-linecap:butt;stroke-linejoin:miter;stroke-miterlimit:4;stroke-dasharray:none;stroke-dashoffset:0;stroke-opacity:0.3;marker:none;enable-background:accumulate" id="path18808-8" d="m 19.899104,12.628398 c -1.311989,0 -2.375562,1.063576 -2.375562,2.375562 0,0.178434 0.03695,0.352465 0.07424,0.519654 l -3.229281,1.874465 c -0.421301,-0.380793 -0.983463,-0.61245 -1.596079,-0.61245 -1.311986,0 -2.375562,1.063576 -2.375562,2.375562 0,1.311986 1.063576,2.375562 2.375562,2.375562 0.612616,0 1.174778,-0.231641 1.596079,-0.612453 l 3.229278,1.874468 c -0.03729,0.167195 -0.07424,0.341223 -0.07424,0.519655 0,1.311986 1.063576,2.375561 2.375562,2.375561 1.31198,0 2.375558,-1.063575 2.375558,-2.375561 0,-1.311986 -1.063578,-2.375562 -2.375558,-2.375562 -0.593584,0 -1.142567,0.215383 -1.558961,0.575331 l -3.247836,-1.874468 c 0.03165,-0.154633 0.05567,-0.318537 0.05567,-0.482533 0,-0.163962 -0.02402,-0.327894 -0.05567,-0.482536 L 18.34014,16.80419 c 0.416397,0.359923 0.965377,0.575331 1.558964,0.575331 1.31198,0 2.375559,-1.063575 2.375559,-2.375561 0,-1.311986 -1.063579,-2.375562 -2.375559,-2.375562 z" class="ColorScheme-Text"/>
  </g>
</svg>
