<?xml version="1.0" encoding="UTF-8" standalone="no"?>
<svg
   viewBox="0 0 64 64"
   version="1.1"
   id="svg4"
   sodipodi:docname="start-here-kde.svg"
   inkscape:version="1.3.2 (091e20ef0f, 2023-11-25)"
   width="64"
   height="64"
   xmlns:inkscape="http://www.inkscape.org/namespaces/inkscape"
   xmlns:sodipodi="http://sodipodi.sourceforge.net/DTD/sodipodi-0.dtd"
   xmlns:xlink="http://www.w3.org/1999/xlink"
   xmlns="http://www.w3.org/2000/svg"
   xmlns:svg="http://www.w3.org/2000/svg">
  <sodipodi:namedview
     id="namedview4"
     pagecolor="#ffffff"
     bordercolor="#999999"
     borderopacity="1"
     inkscape:showpageshadow="2"
     inkscape:pageopacity="0"
     inkscape:pagecheckerboard="0"
     inkscape:deskcolor="#d1d1d1"
     inkscape:zoom="1.4882813"
     inkscape:cx="16.125984"
     inkscape:cy="15.454068"
     inkscape:window-width="1920"
     inkscape:window-height="994"
     inkscape:window-x="0"
     inkscape:window-y="0"
     inkscape:window-maximized="1"
     inkscape:current-layer="svg4" />
  <defs
     id="defs3051">
    <style
       type="text/css"
       id="current-color-scheme">.ColorScheme-Text { color: #fcfcfc; } </style>
    <linearGradient
       inkscape:collect="always"
       xlink:href="#linearGradient840"
       id="linearGradient842"
       x1="16.590687"
       y1="3.070585"
       x2="15.760451"
       y2="58.750618"
       gradientUnits="userSpaceOnUse"
       gradientTransform="scale(0.5)" />
    <linearGradient
       inkscape:collect="always"
       id="linearGradient840">
      <stop
         style="stop-color:#005379;stop-opacity:1"
         offset="0"
         id="stop836" />
      <stop
         style="stop-color:#c8e0e7;stop-opacity:1"
         offset="1"
         id="stop838" />
    </linearGradient>
  </defs>
  <g
     id="start-here-kde"
     transform="scale(2)"
     style="stroke-width:0.5">
    <rect
       id="rect7"
       style="opacity:0.00100002;stroke-width:0.5"
       width="32"
       height="32"
       x="0"
       y="0" />
    <path
       d="m 12.732776,7.7580827 c 3.474186,0 6.583913,1.771473 8.67636,4.5626713 -1.569539,-1.075712 -3.408686,-1.695103 -5.375299,-1.695103 -5.755251,0 -10.420656,4.624095 -10.420656,11.835279 0,-3.887566 3.151581,-7.038875 7.038604,-7.038875 3.887294,0 7.038875,3.151309 7.038875,7.038604 0,2.953995 -1.820394,5.481294 -4.399603,6.525479 0.18291,0.0076 0.36609,0.01386 0.550902,0.01386 2.456363,0 4.752647,-0.682444 6.71165,-1.866869 -5.43e-4,8.16e-4 -8.15e-4,0.0016 -0.0014,0.0024 3.769613,-2.276172 6.289845,-6.411331 6.289845,-11.135441 C 28.842095,8.8202057 23.021617,3 15.841959,3 9.352082,3 3.973522,7.7561807 3,13.972643 5.006021,10.245157 8.614195,7.7580827 12.732776,7.7580827 Z"
       id="path2-5"
       inkscape:connector-curvature="0"
       style="fill:url(#linearGradient842);fill-opacity:1;stroke-width:0.135891" />
  </g>
</svg>
