<?xml version='1.0' encoding='UTF-8'?>
<svg xmlns:inkscape="http://www.inkscape.org/namespaces/inkscape" xmlns:sodipodi="http://sodipodi.sourceforge.net/DTD/sodipodi-0.dtd" xmlns="http://www.w3.org/2000/svg" xmlns:svg="http://www.w3.org/2000/svg" xmlns:rdf="http://www.w3.org/1999/02/22-rdf-syntax-ns#" xmlns:cc="http://creativecommons.org/ns#" xmlns:dc="http://purl.org/dc/elements/1.1/" width="64" height="64" viewBox="0 0 64 64" version="1.1" id="svg7" sodipodi:docname="document-open-recent.svg" inkscape:version="1.4.2 (ebf0e940d0, 2025-05-08)">
  <metadata id="metadata11">
    <rdf:RDF>
      <cc:Work rdf:about="">
        <dc:format>image/svg+xml</dc:format>
        <dc:type rdf:resource="http://purl.org/dc/dcmitype/StillImage"/>
      </cc:Work>
    </rdf:RDF>
  </metadata>
  <sodipodi:namedview pagecolor="#9c4444" bordercolor="#666666" borderopacity="1" objecttolerance="10" gridtolerance="10" guidetolerance="10" inkscape:pageopacity="0" inkscape:pageshadow="2" inkscape:window-width="2560" inkscape:window-height="1384" id="namedview9" showgrid="false" inkscape:zoom="7.2407735" inkscape:cx="26.792718" inkscape:cy="7.8720871" inkscape:window-x="0" inkscape:window-y="0" inkscape:window-maximized="1" inkscape:current-layer="svg7" inkscape:document-rotation="0" inkscape:showpageshadow="2" inkscape:pagecheckerboard="0" inkscape:deskcolor="#ffffff"/>
  <defs id="defs3">
    <style id="current-color-scheme" type="text/css">.ColorScheme-Text {color:#d8dee9} .ColorScheme-Highlight {color:#3b4252}</style>
  </defs>
  <path id="rect21401-5-1" style="display:inline;overflow:visible;visibility:visible;fill:currentColor;fill-rule:nonzero;stroke:none;stroke-width:0.921946;stroke-linecap:butt;stroke-linejoin:miter;stroke-miterlimit:4;stroke-dasharray:none;stroke-dashoffset:0;stroke-opacity:0.3;marker:none;enable-background:accumulate" class="ColorScheme-Text" d="M 11.986057 12.379211 C 11.533661 12.379211 11.169457 12.743414 11.169457 13.19581 L 11.169457 24.628198 C 11.169457 25.080593 11.533661 25.444797 11.986057 25.444797 L 20.152048 25.444797 C 20.604447 25.444797 20.96841 25.080593 20.968647 24.628198 L 20.972475 16.189794 C 20.972828 15.737397 17.614288 12.379211 17.161892 12.379211 L 11.986057 12.379211 z M 12.670596 13.468222 L 17.161892 13.468222 L 17.161892 16.189794 L 19.884101 16.189794 L 19.884101 23.947486 C 19.884101 24.173682 19.701993 24.355786 19.475802 24.355786 L 12.670596 24.355786 C 12.444403 24.355786 12.262297 24.173708 12.262297 23.947486 L 12.262297 13.876522 C 12.262297 13.650329 12.444394 13.468222 12.670596 13.468222 z M 16.432056 17.278806 C 14.919263 17.278806 13.67431 18.275037 13.538233 19.728603 L 12.80457 19.728603 L 13.888477 21.089389 L 14.972385 19.728603 L 14.264879 19.728603 C 14.398727 18.668859 15.319219 17.988864 16.432056 17.988864 C 17.63686 17.988864 18.614545 18.951201 18.614545 20.136903 C 18.614545 21.322605 17.63686 22.284941 16.432056 22.284941 C 15.778393 22.284941 15.191323 22.001074 14.791202 21.552554 L 14.261051 22.036134 C 14.793319 22.625066 15.568617 22.995 16.432056 22.995 C 18.035692 22.995 19.337363 21.714572 19.337363 20.136903 C 19.337363 18.559233 18.035692 17.278806 16.432056 17.278806 z M 16.343379 18.367817 L 16.070966 20.27279 L 17.431752 21.361802 L 17.431752 21.089389 L 16.615153 20.001016 L 16.615153 18.367817 L 16.343379 18.367817 z " transform="matrix(3.0614776,0,0,3.0614776,-17.200903,-25.898677)"/>
</svg>
