<?xml version="1.0" encoding="UTF-8" standalone="no"?>
<svg
   viewBox="0 0 16 16"
   version="1.1"
   id="svg1"
   sodipodi:docname="dialog-cancel.svg"
   inkscape:version="1.3.2 (091e20ef0f, 2023-11-25)"
   xmlns:inkscape="http://www.inkscape.org/namespaces/inkscape"
   xmlns:sodipodi="http://sodipodi.sourceforge.net/DTD/sodipodi-0.dtd"
   xmlns="http://www.w3.org/2000/svg"
   xmlns:svg="http://www.w3.org/2000/svg">
  <sodipodi:namedview
     id="namedview1"
     pagecolor="#ffffff"
     bordercolor="#999999"
     borderopacity="1"
     inkscape:showpageshadow="2"
     inkscape:pageopacity="0"
     inkscape:pagecheckerboard="0"
     inkscape:deskcolor="#d1d1d1"
     inkscape:zoom="47.875"
     inkscape:cx="8"
     inkscape:cy="8"
     inkscape:window-width="1920"
     inkscape:window-height="998"
     inkscape:window-x="0"
     inkscape:window-y="0"
     inkscape:window-maximized="1"
     inkscape:current-layer="svg1" />
  <defs
     id="defs3051">
    <style
       type="text/css"
       id="current-color-scheme">.ColorScheme-Text { color: #fcfcfc; } </style>
  </defs>
  <path
     style="fill:#c83771;fill-opacity:1;stroke:none"
     d="M 8 2 C 4.6862928 2 2 4.6862997 2 8 C 2 11.3137 4.6862928 14 8 14 C 11.313707 14 14 11.3137 14 8 C 14 4.6862997 11.313707 2 8 2 z M 8 3 C 10.761424 3 13 5.2385763 13 8 C 13 9.199635 12.548037 10.263384 11.84375 11.125 L 4.875 4.15625 C 5.7366165 3.4519627 6.8003651 3 8 3 z M 4.15625 4.875 L 11.125 11.84375 C 10.263384 12.548037 9.199635 13 8 13 C 5.2385763 13 3 10.761424 3 8 C 3 6.8003651 3.4519627 5.7366165 4.15625 4.875 z "
     class="ColorScheme-Text"
     id="path1" />
</svg>
