<?xml version="1.0" encoding="UTF-8" standalone="no"?>
<svg
   viewBox="0 0 16 16"
   version="1.1"
   id="svg1"
   sodipodi:docname="filename-bpm-amarok.svg"
   inkscape:version="1.3.2 (091e20ef0f, 2023-11-25)"
   xmlns:inkscape="http://www.inkscape.org/namespaces/inkscape"
   xmlns:sodipodi="http://sodipodi.sourceforge.net/DTD/sodipodi-0.dtd"
   xmlns:xlink="http://www.w3.org/1999/xlink"
   xmlns="http://www.w3.org/2000/svg"
   xmlns:svg="http://www.w3.org/2000/svg">
  <sodipodi:namedview
     id="namedview1"
     pagecolor="#ffffff"
     bordercolor="#999999"
     borderopacity="1"
     inkscape:showpageshadow="2"
     inkscape:pageopacity="0"
     inkscape:pagecheckerboard="0"
     inkscape:deskcolor="#d1d1d1"
     inkscape:zoom="47.75"
     inkscape:cx="8"
     inkscape:cy="8"
     inkscape:window-width="1920"
     inkscape:window-height="996"
     inkscape:window-x="0"
     inkscape:window-y="0"
     inkscape:window-maximized="1"
     inkscape:current-layer="svg1" />
  <defs
     id="defs3051">
    <linearGradient
       id="linearGradient1"
       inkscape:collect="always">
      <stop
         style="stop-color:#d35f8d;stop-opacity:1"
         offset="0"
         id="stop1" />
      <stop
         style="stop-color:#00ccff;stop-opacity:1"
         offset="1"
         id="stop2" />
    </linearGradient>
    <style
       type="text/css"
       id="current-color-scheme">.ColorScheme-Text { color: #fcfcfc; } </style>
    <linearGradient
       inkscape:collect="always"
       xlink:href="#linearGradient1"
       id="linearGradient2"
       x1="3.9989266"
       y1="3.5288265"
       x2="12.691321"
       y2="11.740519"
       gradientUnits="userSpaceOnUse" />
  </defs>
  <path
     style="fill:url(#linearGradient2);fill-opacity:1;stroke:none"
     d="M 8 2 A 6 6.0000086 0 0 0 2 8 A 6 6.0000086 0 0 0 8 14 A 6 6.0000086 0 0 0 14 8 A 6 6.0000086 0 0 0 8 2 z M 8 3 A 5.0000014 5.0000086 0 0 1 13 8 A 5.0000014 5.0000086 0 0 1 8 13 A 5.0000014 5.0000086 0 0 1 3 8 A 5.0000014 5.0000086 0 0 1 8 3 z M 8 4 A 4 4 0 0 0 5.4414062 4.9277344 L 6.0820312 5.6972656 A 3 3 0 0 1 8 5 A 3 3 0 0 1 11 8 L 12 8 A 4 4 0 0 0 8 4 z M 9 6 L 7.3984375 9.203125 A 1 1 0 0 0 7 10 A 1 1 0 0 0 8 11 A 1 1 0 0 0 9 10 A 1 1 0 0 0 8.7480469 9.3398438 L 9 6 z M 4.53125 6.0175781 A 4 4 0 0 0 4 8 L 5 8 A 3 3 0 0 1 5.3984375 6.5136719 L 4.53125 6.0175781 z "
     class="ColorScheme-Text"
     id="path1" />
</svg>
