<?xml version="1.0" encoding="UTF-8" standalone="no"?>
<svg
   viewBox="0 0 22 22"
   version="1.1"
   id="svg1"
   sodipodi:docname="compass.svg"
   width="22"
   height="22"
   inkscape:version="1.3.2 (091e20ef0f, 2023-11-25)"
   xmlns:inkscape="http://www.inkscape.org/namespaces/inkscape"
   xmlns:sodipodi="http://sodipodi.sourceforge.net/DTD/sodipodi-0.dtd"
   xmlns:xlink="http://www.w3.org/1999/xlink"
   xmlns="http://www.w3.org/2000/svg"
   xmlns:svg="http://www.w3.org/2000/svg">
  <sodipodi:namedview
     id="namedview1"
     pagecolor="#ffffff"
     bordercolor="#999999"
     borderopacity="1"
     inkscape:showpageshadow="2"
     inkscape:pageopacity="0"
     inkscape:pagecheckerboard="0"
     inkscape:deskcolor="#d1d1d1"
     inkscape:zoom="10.482736"
     inkscape:cx="5.2467218"
     inkscape:cy="7.7269903"
     inkscape:window-width="1920"
     inkscape:window-height="994"
     inkscape:window-x="0"
     inkscape:window-y="0"
     inkscape:window-maximized="1"
     inkscape:current-layer="svg1" />
  <defs
     id="defs3051">
    <style
       type="text/css"
       id="current-color-scheme">
            .ColorScheme-Text {
                color:#d8d8d8;
            }
        </style>
    <linearGradient
       inkscape:collect="always"
       xlink:href="#linearGradient856"
       id="linearGradient986"
       x1="13.41916"
       y1="6.9373507"
       x2="16.706158"
       y2="6.9373507"
       gradientUnits="userSpaceOnUse" />
    <linearGradient
       inkscape:collect="always"
       id="linearGradient856">
      <stop
         style="stop-color:#00d4aa;stop-opacity:1"
         offset="0"
         id="stop852" />
      <stop
         style="stop-color:#00ccff;stop-opacity:1"
         offset="1"
         id="stop854" />
    </linearGradient>
    <linearGradient
       inkscape:collect="always"
       xlink:href="#linearGradient856"
       id="linearGradient994"
       x1="13.41916"
       y1="15.062609"
       x2="16.706156"
       y2="15.062609"
       gradientUnits="userSpaceOnUse" />
    <linearGradient
       inkscape:collect="always"
       xlink:href="#linearGradient856"
       id="linearGradient978"
       x1="5.2938032"
       y1="6.9373617"
       x2="8.580924"
       y2="6.9373617"
       gradientUnits="userSpaceOnUse" />
    <linearGradient
       inkscape:collect="always"
       xlink:href="#linearGradient856"
       id="linearGradient970"
       x1="5.2938027"
       y1="15.062615"
       x2="8.5809422"
       y2="15.062615"
       gradientUnits="userSpaceOnUse" />
    <linearGradient
       inkscape:collect="always"
       xlink:href="#linearGradient856"
       id="linearGradient946"
       x1="12.005357"
       y1="5.5224042"
       x2="20.949631"
       y2="5.5224042"
       gradientUnits="userSpaceOnUse" />
    <linearGradient
       inkscape:collect="always"
       xlink:href="#linearGradient856"
       id="linearGradient954"
       x1="12.005467"
       y1="16.477547"
       x2="20.949633"
       y2="16.477547"
       gradientUnits="userSpaceOnUse" />
    <linearGradient
       inkscape:collect="always"
       xlink:href="#linearGradient856"
       id="linearGradient938"
       x1="1.050347"
       y1="5.5224247"
       x2="9.9943991"
       y2="5.5224247"
       gradientUnits="userSpaceOnUse" />
    <linearGradient
       inkscape:collect="always"
       xlink:href="#linearGradient856"
       id="linearGradient962"
       x1="1.05035"
       y1="16.477547"
       x2="9.9944048"
       y2="16.477547"
       gradientUnits="userSpaceOnUse" />
    <linearGradient
       inkscape:collect="always"
       xlink:href="#linearGradient856"
       id="linearGradient930"
       x1="0.99999994"
       y1="10.999999"
       x2="20.999989"
       y2="10.999999"
       gradientUnits="userSpaceOnUse" />
  </defs>
  <g
     id="22-22-compass">
    <path
       style="clip-rule:evenodd;fill:#ffffc1;fill-opacity:0;fill-rule:evenodd;stroke-width:0.688964;stroke-linejoin:round;stroke-miterlimit:1.41421"
       d="M 0,0 V 22 H 22 V 0 Z"
       id="rect817-5"
       inkscape:connector-curvature="0" />
    <path
       d="m 16.532821,5.3148375 -3.113661,2.2777781 0.162516,0.8258028 0.825655,0.162463 2.277801,-3.1137119 a 0.10899542,0.10899542 0 0 0 -0.152311,-0.152332 z"
       id="path4-36-5"
       style="fill:url(#linearGradient986);fill-opacity:1;stroke-width:0.222226" />
    <path
       d="m 16.685132,16.532817 -2.277801,-3.113753 -0.825655,0.162462 -0.162516,0.825859 3.113661,2.277747 a 0.10898874,0.10898874 0 0 0 0.152311,-0.152315 z"
       id="path6-7-3"
       style="fill:url(#linearGradient994);fill-opacity:1;stroke-width:0.222226" />
    <path
       d="M 5.31484,5.4671695 7.59266,8.5809235 8.41845,8.4184184 8.580924,7.5926705 5.467174,5.3148375 A 0.10899984,0.10899984 0 0 0 5.31484,5.4671695 Z"
       id="path8-5"
       style="fill:url(#linearGradient978);fill-opacity:1;stroke-width:0.222226" />
    <path
       d="M 5.467174,16.685132 8.580942,14.407304 8.418444,13.581529 7.592677,13.419053 5.314832,16.532826 a 0.10899316,0.10899316 0 0 0 0.152342,0.152306 z"
       id="path10-6"
       style="fill:url(#linearGradient970);fill-opacity:1;stroke-width:0.222226" />
    <path
       d="M 19.801629,9.768598 20.94963,9.994495 A 10.002735,10.002735 0 0 0 12.005357,1.0503135 l 0.22591,1.148035 a 8.9057993,8.9057993 0 0 1 7.570362,7.5702495 z"
       id="path12-2"
       style="fill:url(#linearGradient946);fill-opacity:1;stroke-width:0.222226" />
    <path
       d="m 12.005467,20.94964 a 10.002684,10.002684 0 0 0 8.944165,-8.944187 l -1.147999,0.225897 a 8.9058446,8.9058446 0 0 1 -7.570256,7.570261 z"
       id="path14-9"
       style="fill:url(#linearGradient954);fill-opacity:1;stroke-width:0.222226" />
    <path
       d="M 9.768541,2.1983595 9.994399,1.0503275 A 10.002701,10.002701 0 0 0 1.050347,9.994522 L 2.198344,9.768624 A 8.9058173,8.9058173 0 0 1 9.768541,2.1983595 Z"
       id="path16-1"
       style="fill:url(#linearGradient938);fill-opacity:1;stroke-width:0.222226" />
    <path
       d="M 2.198349,12.23135 1.05035,12.005453 A 10.002694,10.002694 0 0 0 9.994405,20.94964 L 9.768541,19.801611 A 8.9058173,8.9058173 0 0 1 2.198349,12.23135 Z"
       id="path18-2"
       style="fill:url(#linearGradient962);fill-opacity:1;stroke-width:0.222226" />
    <path
       d="m 1.087944,11.106933 8.192939,1.612176 1.612172,8.192947 a 0.10899096,0.10899096 0 0 0 0.213878,0 l 1.612163,-8.192947 8.192939,-1.612176 a 0.10898874,0.10898874 0 0 0 0,-0.213879 L 12.719096,9.2808907 11.106933,1.0879415 a 0.10899096,0.10899096 0 0 0 -0.213878,0 L 9.280883,9.2808907 1.087944,10.893054 a 0.10899096,0.10899096 0 0 0 0,0.213879 z m 8.830518,-0.280081 a 1.0952984,1.0952984 0 1 1 1.254558,1.25469 1.0999496,1.0999496 0 0 1 -1.254558,-1.25469 z"
       id="path20-7"
       style="fill:url(#linearGradient930);fill-opacity:1;stroke-width:0.222226" />
  </g>
</svg>
