<?xml version="1.0" encoding="UTF-8" standalone="no"?>
<svg
   viewBox="0 0 21.999998 22"
   version="1.1"
   id="svg1"
   sodipodi:docname="system-suspend.svg"
   width="21.999998"
   height="22"
   inkscape:version="1.3.2 (091e20ef0f, 2023-11-25)"
   xmlns:inkscape="http://www.inkscape.org/namespaces/inkscape"
   xmlns:sodipodi="http://sodipodi.sourceforge.net/DTD/sodipodi-0.dtd"
   xmlns:xlink="http://www.w3.org/1999/xlink"
   xmlns="http://www.w3.org/2000/svg"
   xmlns:svg="http://www.w3.org/2000/svg">
  <defs
     id="defs1">
    <linearGradient
       inkscape:collect="always"
       xlink:href="#linearGradient3"
       id="linearGradient1158"
       x1="5.0000029"
       y1="11.000003"
       x2="16.000004"
       y2="11.000003"
       gradientUnits="userSpaceOnUse"
       gradientTransform="rotate(90,11.000003,11)" />
    <linearGradient
       id="linearGradient3"
       inkscape:collect="always">
      <stop
         style="stop-color:#8660cb;stop-opacity:1"
         offset="0"
         id="stop3" />
      <stop
         style="stop-color:#20c997;stop-opacity:1"
         offset="1"
         id="stop4" />
    </linearGradient>
    <linearGradient
       inkscape:collect="always"
       xlink:href="#linearGradient3"
       id="linearGradient1316"
       gradientUnits="userSpaceOnUse"
       gradientTransform="matrix(0.01352166,0,0,0.01352166,4.4681589,10)"
       x1="113.28795"
       y1="221.86626"
       x2="409.10962"
       y2="221.86626" />
    <linearGradient
       inkscape:collect="always"
       xlink:href="#linearGradient3"
       id="linearGradient1318"
       gradientUnits="userSpaceOnUse"
       gradientTransform="matrix(0.76923076,0,0,0.76923076,-1.3076781,-1.3076946)"
       x1="18.599981"
       y1="12.100003"
       x2="21.199982"
       y2="12.100003" />
  </defs>
  <sodipodi:namedview
     id="namedview1"
     pagecolor="#ffffff"
     bordercolor="#999999"
     borderopacity="1"
     inkscape:showpageshadow="2"
     inkscape:pageopacity="0"
     inkscape:pagecheckerboard="0"
     inkscape:deskcolor="#d1d1d1"
     inkscape:zoom="12.245804"
     inkscape:cx="11.105845"
     inkscape:cy="-2.0415156"
     inkscape:window-width="1920"
     inkscape:window-height="994"
     inkscape:window-x="0"
     inkscape:window-y="0"
     inkscape:window-maximized="1"
     inkscape:current-layer="svg1" />
  <style
     type="text/css"
     id="current-color-scheme">.ColorScheme-Text {color:#fcfcfc;}</style>
  <g
     id="22-22-system-suspend">
    <path
       style="fill:none;stroke-width:1.02353"
       d="M 0,0 V 22 H 21.999999 V 0 Z"
       id="path69" />
    <path
       d="m 10.988697,21.000004 c -0.534762,0 -1.0695233,-0.04646 -1.6042843,-0.13946 -5.440617,-0.883272 -9.13744197,-6.020175 -8.253925,-11.4592504 0.418507,-2.626565 1.860039,-4.950955 4.022339,-6.508296 2.162292,-1.557349 4.812854,-2.18492595 7.4401543,-1.766539 5.440615,0.88327 9.1607,6.02017 8.277179,11.4592444 -0.162753,1.045982 -0.488254,2.045466 -0.976516,2.975228 -0.116257,0.232439 -0.232507,0.441634 -0.37201,0.650823 -0.209255,0.325416 -0.627759,0.441638 -0.953274,0.232438 -0.325503,-0.20919 -0.441754,-0.62758 -0.232503,-0.953 0.116255,-0.185946 0.209255,-0.371897 0.325513,-0.557851 0.418505,-0.790294 0.69751,-1.67356 0.837009,-2.556825 0.744018,-4.6720324 -2.441299,-9.1116194 -7.137897,-9.8554194 -2.278554,-0.371909 -4.5338473,0.162701 -6.4171403,1.510856 -1.860038,1.348144 -3.092315,3.323876 -3.464323,5.601777 -0.767269,4.6720244 2.4413,9.1116124 7.114655,9.8554224 1.9995393,0.325415 4.0455853,-0.06971 5.7661153,-1.092466 0.325505,-0.185955 0.767267,-0.09298 0.953276,0.23244 0.186001,0.325417 0.093,0.767044 -0.232502,0.953 -1.534535,0.929751 -3.301573,1.417878 -5.091866,1.417878 z"
       id="path2-56-6"
       style="fill:url(#linearGradient1158);fill-opacity:1;stroke-width:0.232472" />
    <circle
       cx="8.4615412"
       cy="5.5769181"
       r="0.96153837"
       id="circle4-2"
       style="fill:#3485fd;fill-opacity:1;stroke-width:0.192307" />
    <circle
       cx="14.230747"
       cy="15.576917"
       r="0.96153837"
       id="circle6-9"
       style="fill:#3485fd;fill-opacity:1;stroke-width:0.192307" />
    <path
       d="M 10.90986,16.769238 H 5.2307719 v -1.470253 l 3.186958,-3.935686 H 5.6159859 V 9.846153 h 5.1566171 v 1.3066 L 7.4402749,15.25653 H 10.90986 Z M 6.5883299,15.662177 h 3.9158861 v 0 H 6.5883299 l 3.7786251,-5.41037 v 0 H 6.0216369 v 0 h 4.3453181 z"
       id="path2-67-1"
       style="fill:url(#linearGradient1316);stroke-width:0.013522"
       sodipodi:nodetypes="cccccccccccccccccccccc" />
    <path
       d="M 16.1863,10.999999 H 11.769233 V 9.856476 l 2.478743,-3.0610936 h -2.179127 v -1.180004 h 4.010699 v 1.016243 L 13.487738,9.823445 H 16.1863 Z M 12.08474,10.684491 15,10 v 0 l -2.91526,0.684491 3.679298,-4.1648326 v 0 l -3.379683,-0.039785 v 0 l 3.379683,0.039785 -2.2763,3.3037866 z"
       id="path2-67-5-2"
       style="fill:url(#linearGradient1318);stroke-width:0.010517"
       sodipodi:nodetypes="cccccccccccccccccccccc" />
  </g>
</svg>
