<?xml version="1.0" encoding="UTF-8" standalone="no"?>
<svg
   viewBox="0 0 22 22"
   version="1.1"
   id="svg1"
   sodipodi:docname="system-shutdown-update.svg"
   width="22"
   height="22"
   inkscape:version="1.3.2 (091e20ef0f, 2023-11-25)"
   xmlns:inkscape="http://www.inkscape.org/namespaces/inkscape"
   xmlns:sodipodi="http://sodipodi.sourceforge.net/DTD/sodipodi-0.dtd"
   xmlns:xlink="http://www.w3.org/1999/xlink"
   xmlns="http://www.w3.org/2000/svg"
   xmlns:svg="http://www.w3.org/2000/svg">
  <sodipodi:namedview
     id="namedview1"
     pagecolor="#ffffff"
     bordercolor="#999999"
     borderopacity="1"
     inkscape:showpageshadow="2"
     inkscape:pageopacity="0"
     inkscape:pagecheckerboard="0"
     inkscape:deskcolor="#d1d1d1"
     inkscape:zoom="12.245804"
     inkscape:cx="8.4110443"
     inkscape:cy="13.229021"
     inkscape:window-width="1920"
     inkscape:window-height="1004"
     inkscape:window-x="0"
     inkscape:window-y="0"
     inkscape:window-maximized="1"
     inkscape:current-layer="svg1"
     showgrid="false">
    <inkscape:grid
       id="grid1"
       units="px"
       originx="0"
       originy="0"
       spacingx="1"
       spacingy="1"
       empcolor="#0099e5"
       empopacity="0.30196078"
       color="#0099e5"
       opacity="0.14902"
       empspacing="5"
       dotted="false"
       gridanglex="30"
       gridanglez="30"
       visible="false" />
  </sodipodi:namedview>
  <defs
     id="defs3051">
    <style
       type="text/css"
       id="current-color-scheme">.ColorScheme-Text {color:#fcfcfc;}</style>
    <linearGradient
       inkscape:collect="always"
       xlink:href="#linearGradient9"
       id="linearGradient1130"
       x1="11"
       y1="1"
       x2="19.521629"
       y2="16.211727"
       gradientUnits="userSpaceOnUse" />
    <linearGradient
       id="linearGradient9"
       inkscape:collect="always">
      <stop
         style="stop-color:#d63384;stop-opacity:1"
         offset="0"
         id="stop7" />
      <stop
         style="stop-color:#00ccff;stop-opacity:1"
         offset="1"
         id="stop8" />
    </linearGradient>
    <linearGradient
       inkscape:collect="always"
       xlink:href="#linearGradient9"
       id="linearGradient1468"
       gradientUnits="userSpaceOnUse"
       gradientTransform="matrix(0.76923136,0,0,0.76923135,-21.253335,87.153864)"
       x1="41.929306"
       y1="-95.099953"
       x2="41.942657"
       y2="-107.24975" />
    <linearGradient
       inkscape:collect="always"
       xlink:href="#linearGradient23"
       id="linearGradient2-2"
       x1="15.5"
       y1="18.25"
       x2="21"
       y2="18.25"
       gradientUnits="userSpaceOnUse" />
    <linearGradient
       id="linearGradient23"
       inkscape:collect="always">
      <stop
         style="stop-color:#d63384;stop-opacity:1"
         offset="0"
         id="stop22" />
      <stop
         style="stop-color:#2ad4ff;stop-opacity:1"
         offset="1"
         id="stop23" />
    </linearGradient>
  </defs>
  <path
     style="fill:none"
     d="M 0,0 V 22 H 22 V 0 Z"
     id="path49" />
  <path
     d="m 1.0000004,10.988688 c 0,-0.534732 0.04668,-1.0695134 0.139469,-1.6042337 0.883284,-5.4406145 6.020175,-9.13747091 11.4592866,-8.2539775 2.626496,0.4184935 4.950926,1.860107 6.508236,4.0223477 1.55735,2.16232 2.18493,4.8128961 1.76655,7.4401595 -0.88323,5.440619 -6.020181,9.160698 -11.4592256,8.277172 -1.046,-0.162749 -2.045457,-0.488259 -2.975272,-0.976509 -0.232399,-0.116255 -0.441599,-0.232511 -0.650775,-0.37201 -0.32541,-0.209261 -0.441649,-0.627769 -0.232513,-0.95328 0.209244,-0.325512 0.627635,-0.441758 0.953078,-0.232495 0.185923,0.116239 0.371922,0.209236 0.557856,0.325498 0.790311,0.418516 1.673555,0.697514 2.556826,0.837018 4.6719946,0.744015 9.1115556,-2.441299 9.8554356,-7.137898 0.37189,-2.278522 -0.1627,-4.5338592 -1.51088,-6.4171845 C 16.619882,4.0833178 14.644232,2.8509959 12.366303,2.4790186 7.6942694,1.7117259 3.2546904,4.9203149 2.5108794,9.5936543 c -0.325435,1.9995657 0.06942,4.0456037 1.092424,5.7661417 0.185942,0.325501 0.09295,0.767258 -0.232396,0.95327 -0.325438,0.186003 -0.767127,0.09305 -0.953063,-0.23251 -0.929692,-1.534527 -1.417844,-3.301568 -1.417844,-5.091868 z"
     id="path2-53-6"
     style="fill:url(#linearGradient1130);fill-opacity:1;stroke-width:0.232468" />
  <path
     d="M 11.000001,15.548001 C 9.0868157,15.553401 6.5030669,13.797497 6.4180012,10.920883 6.3756762,9.4896195 7.1812848,8.4385756 8.0880017,7.331001 8.4406717,6.900201 8.1836017,6.5800613 7.8560014,6.3292094 7.4477648,6.0222094 7.0460108,6.1587992 6.6461107,6.5893288 5.4893211,7.7462192 4.8520013,9.2843136 4.8520013,10.920883 c 0,3.377776 2.7480098,6.12576 6.1257827,6.12576 3.377812,0 6.125797,-2.747984 6.125797,-6.12576 0,-1.6367224 -0.637271,-3.175294 -1.794656,-4.3318742 -0.560923,-0.6333229 -1.004539,-0.5217858 -1.30868,-0.2842441 -0.275449,0.2140441 -0.371747,0.6542179 -0.147243,0.9566113 0.934545,1.0589956 1.653917,2.2277365 1.685,3.659507 0.062,2.855718 -2.569246,4.6325 -4.538001,4.627118 z"
     id="path2-5-5-26"
     style="fill:url(#linearGradient1468);stroke-width:0.191436"
     sodipodi:nodetypes="cssccssscccsc" />
  <path
     style="color:#000000;text-indent:0;text-transform:none;direction:ltr;baseline-shift:baseline;fill:#d63384;fill-opacity:1;stroke-width:0.141028;enable-background:accumulate"
     d="M 12.138497,4.6540008 H 9.8820447 c -0.147644,2e-5 -0.282044,0.1344601 -0.282044,0.2820686 v 7.8974426 c 0,0.147699 0.1344,0.282045 0.282044,0.282069 h 2.2564523 c 0.147661,-2.4e-5 0.282027,-0.13437 0.282046,-0.282069 V 4.9360694 c -0.0082,-0.1583885 -0.155,-0.27858 -0.282046,-0.2820686 z M 11.85643,5.2181294 V 12.55146 5.2181294 h -1.692362 z"
     fill-opacity="1"
     stroke="none"
     marker="none"
     visibility="visible"
     display="inline"
     overflow="visible"
     id="path2-0-1"
     sodipodi:nodetypes="ccsscccccccccc" />
  <circle
     style="fill:url(#linearGradient2-2);fill-opacity:1;fill-rule:evenodd;stroke:none;stroke-width:0.0180001;stroke-opacity:1"
     id="path32-7"
     cx="18.25"
     cy="18.25"
     r="2.75" />
  <path
     d="m 18.891766,20.449996 c 0.0887,0 0.160399,-0.07297 0.160399,-0.162958 v -2.118517 h 0.962239 c 0.142271,0 0.21446,-0.175507 0.113398,-0.278188 l -1.764391,-1.792742 c -0.03001,-0.0305 -0.07071,-0.04758 -0.113396,-0.04758 -0.04269,0 -0.08329,0.01712 -0.11341,0.04772 l -1.764396,1.79277 c -0.100578,0.102009 -0.02999,0.278014 0.113404,0.278014 h 0.962557 v 2.11851 c 0,0.09012 0.07201,0.162957 0.160393,0.162957 z M 18.250015,16.44323 Z"
     id="path4-0"
     style="fill:#1a1a1a;fill-opacity:1;stroke-width:0.999979"
     sodipodi:nodetypes="sscsccsccscsssccccccc" />
</svg>
