<?xml version="1.0" encoding="UTF-8" standalone="no"?>
<svg
   viewBox="0 0 22 22"
   version="1.1"
   id="svg2"
   sodipodi:docname="system-suspend-hibernate.svg"
   inkscape:version="1.3.2 (091e20ef0f, 2023-11-25)"
   xmlns:inkscape="http://www.inkscape.org/namespaces/inkscape"
   xmlns:sodipodi="http://sodipodi.sourceforge.net/DTD/sodipodi-0.dtd"
   xmlns:xlink="http://www.w3.org/1999/xlink"
   xmlns="http://www.w3.org/2000/svg"
   xmlns:svg="http://www.w3.org/2000/svg">
  <defs
     id="defs2">
    <linearGradient
       id="linearGradient1"
       inkscape:collect="always">
      <stop
         style="stop-color:#006a80;stop-opacity:1;"
         offset="0"
         id="stop1" />
      <stop
         style="stop-color:#c8e0e7;stop-opacity:1;"
         offset="1"
         id="stop2" />
    </linearGradient>
    <linearGradient
       inkscape:collect="always"
       xlink:href="#linearGradient1"
       id="linearGradient2"
       x1="11.787401"
       y1="3.0635107"
       x2="11.829396"
       y2="19.375847"
       gradientUnits="userSpaceOnUse" />
    <linearGradient
       inkscape:collect="always"
       xlink:href="#linearGradient1"
       id="linearGradient4"
       x1="12.616797"
       y1="5.007874"
       x2="12.805775"
       y2="8.9055119"
       gradientUnits="userSpaceOnUse" />
  </defs>
  <sodipodi:namedview
     id="namedview2"
     pagecolor="#ffffff"
     bordercolor="#999999"
     borderopacity="1"
     inkscape:showpageshadow="2"
     inkscape:pageopacity="0"
     inkscape:pagecheckerboard="0"
     inkscape:deskcolor="#d1d1d1"
     inkscape:zoom="34.636364"
     inkscape:cx="11"
     inkscape:cy="11"
     inkscape:window-width="1920"
     inkscape:window-height="996"
     inkscape:window-x="0"
     inkscape:window-y="0"
     inkscape:window-maximized="1"
     inkscape:current-layer="svg2" />
  <style
     type="text/css"
     id="current-color-scheme">.ColorScheme-Text { color: #fcfcfc; } </style>
  <g
     class="ColorScheme-Text"
     fill="currentColor"
     id="g2">
    <path
       d="M6.79 3.707l-.868.5 1.646 2.85-2.248-.602-.26.967 3.215.861L9.845 11H6.708L4.354 8.646l-.708.708L5.293 11H2v1h3.293l-1.647 1.646.708.708L6.707 12H9.84l-1.567 2.713-3.214.861.257.967 2.25-.604L5.92 18.79l.865.5 1.647-2.852.603 2.25.965-.26-.861-3.216L10.994 12H11l1.857 3.219-.86 3.215.966.257.601-2.248 1.647 2.852.867-.5-1.646-2.852 2.248.602.26-.965-3.215-.861L12.155 12h3.138l2.353 2.354.708-.708L16.707 12H20v-1h-3.293l1.647-1.646-.051-.06H17L15.293 11H11v-.002l-.004-.002-1.853-3.213.86-3.215-.966-.26-.601 2.25zM16 3v1h2.293l-2 2-.293.293V7h4V6h-2.293l2-2L20 3.707V3h-.707z"
       id="path1"
       style="fill:url(#linearGradient2);fill-opacity:1" />
    <path
       d="M11 5v1h2.293l-2 2-.293.293V9h4V8h-2.293l2-2L15 5.707V5h-.707z"
       id="path2"
       style="fill:url(#linearGradient4);fill-opacity:1" />
  </g>
</svg>
