<?xml version="1.0" encoding="UTF-8" standalone="no"?>
<svg
   viewBox="0 0 22 22"
   version="1.1"
   id="svg1"
   sodipodi:docname="system-lock-screen.svg"
   inkscape:version="1.3.2 (091e20ef0f, 2023-11-25)"
   width="22"
   height="22"
   xmlns:inkscape="http://www.inkscape.org/namespaces/inkscape"
   xmlns:sodipodi="http://sodipodi.sourceforge.net/DTD/sodipodi-0.dtd"
   xmlns:xlink="http://www.w3.org/1999/xlink"
   xmlns="http://www.w3.org/2000/svg"
   xmlns:svg="http://www.w3.org/2000/svg">
  <sodipodi:namedview
     id="namedview1"
     pagecolor="#ffffff"
     bordercolor="#999999"
     borderopacity="1"
     inkscape:showpageshadow="2"
     inkscape:pageopacity="0"
     inkscape:pagecheckerboard="0"
     inkscape:deskcolor="#d1d1d1"
     inkscape:zoom="4.3295455"
     inkscape:cx="36.493438"
     inkscape:cy="37.417322"
     inkscape:window-width="1920"
     inkscape:window-height="996"
     inkscape:window-x="0"
     inkscape:window-y="0"
     inkscape:window-maximized="1"
     inkscape:current-layer="svg1" />
  <defs
     id="defs3051">
    <style
       type="text/css"
       id="current-color-scheme">.ColorScheme-Text { color: #fcfcfc; } </style>
    <linearGradient
       inkscape:collect="always"
       xlink:href="#linearGradient919"
       id="linearGradient991"
       x1="-40.275593"
       y1="-93.632545"
       x2="-41.031734"
       y2="-77.898651"
       gradientUnits="userSpaceOnUse"
       gradientTransform="translate(54,106)" />
    <linearGradient
       inkscape:collect="always"
       id="linearGradient919">
      <stop
         style="stop-color:#006a80;stop-opacity:1"
         offset="0"
         id="stop915" />
      <stop
         style="stop-color:#c8e0e7;stop-opacity:1"
         offset="1"
         id="stop917" />
    </linearGradient>
  </defs>
  <g
     transform="translate(0,-10)"
     id="22-22-system-lock-screen">
    <path
       id="path17"
       class="ColorScheme-Text"
       d="m 11,13 c -2.216,0 -4,1.784 -4,4 v 4 H 5 v 1 7 h 1 10 1 v -8 h -1 -1 v -4 c 0,-2.216 -1.784,-4 -4,-4 z m 0,1 c 1.662,0 3,1.561 3,3.5 V 21 H 8 V 17.5 C 8,15.561 9.338,14 11,14 Z m -5,8 h 10 v 6 H 6 Z"
       style="fill:url(#linearGradient991);fill-opacity:1;stroke:none" />
    <path
       id="path19"
       d="M 0,10 V 32 H 22 V 10 Z"
       style="opacity:1;fill:none" />
  </g>
</svg>
