
<svg xmlns="http://www.w3.org/2000/svg" xmlns:xlink="http://www.w3.org/1999/xlink" width="16px" height="16px" viewBox="0 0 16 16" version="1.1">
<g id="surface1">
<path style=" stroke:none;fill-rule:nonzero;fill:#ff6666;fill-opacity:1;" d="M 8 0 C 6.5625 0 5.40625 0.269531 4.460938 0.699219 C 4.269531 0.785156 4.082031 0.875 3.902344 0.980469 C 3.851562 1.007812 3.808594 1.039062 3.761719 1.066406 C 3.640625 1.140625 3.523438 1.210938 3.410156 1.292969 C 3.316406 1.359375 3.234375 1.433594 3.144531 1.503906 C 2.535156 2.003906 2.085938 2.605469 1.75 3.261719 C 1.734375 3.296875 1.714844 3.328125 1.695312 3.363281 C 1.679688 3.394531 1.671875 3.429688 1.652344 3.464844 C 1.449219 3.910156 1.28125 4.367188 1.179688 4.84375 C 1.164062 4.933594 1.160156 5.023438 1.144531 5.113281 C 1.097656 5.359375 1.066406 5.601562 1.042969 5.84375 C 1.039062 5.863281 1.039062 5.882812 1.035156 5.90625 C 1.011719 6.195312 1.019531 6.457031 1.023438 6.726562 C 1.023438 6.824219 1.023438 6.921875 1.027344 7.023438 C 1.039062 7.3125 1.0625 7.566406 1.097656 7.820312 C 1.117188 7.992188 1.148438 8.164062 1.175781 8.339844 C 1.179688 8.359375 1.183594 8.394531 1.1875 8.417969 L 1.207031 8.515625 C 1.238281 8.683594 1.261719 8.859375 1.300781 9.027344 L 1.410156 9.515625 L 1.417969 9.511719 L 2.472656 14.519531 L 3.648438 14.3125 C 4.308594 14.195312 4.777344 14.09375 4.996094 13.917969 C 5.105469 13.832031 5.167969 13.734375 5.203125 13.566406 C 5.234375 13.398438 5.226562 13.152344 5.15625 12.8125 L 4.363281 9.074219 C 4.292969 8.738281 4.199219 8.503906 4.101562 8.355469 C 4 8.210938 3.898438 8.140625 3.757812 8.09375 C 3.472656 8.003906 2.996094 8.070312 2.332031 8.1875 L 2.171875 8.214844 C 1.988281 7.148438 1.953125 6.042969 2.160156 5.046875 C 2.40625 3.863281 2.964844 2.839844 3.988281 2.105469 C 5 1.382812 6.503906 1.019531 8 1.023438 C 9.496094 1.019531 11 1.382812 12.007812 2.105469 C 13.035156 2.839844 13.59375 3.863281 13.839844 5.046875 C 14.046875 6.042969 14.011719 7.148438 13.828125 8.214844 L 13.667969 8.1875 C 13.003906 8.070312 12.527344 8.003906 12.242188 8.09375 C 12.101562 8.140625 12 8.210938 11.898438 8.355469 C 11.800781 8.503906 11.707031 8.738281 11.636719 9.074219 L 10.84375 12.8125 C 10.773438 13.152344 10.765625 13.398438 10.796875 13.566406 C 10.832031 13.734375 10.894531 13.832031 11.003906 13.917969 C 11.222656 14.09375 11.691406 14.195312 12.351562 14.3125 L 13.527344 14.519531 L 14.582031 9.511719 L 14.589844 9.515625 L 14.699219 9.027344 C 14.738281 8.859375 14.757812 8.683594 14.789062 8.515625 L 14.8125 8.417969 C 14.816406 8.394531 14.820312 8.359375 14.824219 8.339844 C 14.851562 8.164062 14.878906 7.992188 14.902344 7.820312 C 14.9375 7.566406 14.960938 7.3125 14.972656 7.023438 C 14.976562 6.921875 14.972656 6.824219 14.976562 6.726562 C 14.980469 6.457031 14.988281 6.195312 14.960938 5.90625 C 14.960938 5.882812 14.957031 5.863281 14.957031 5.84375 C 14.933594 5.601562 14.898438 5.359375 14.855469 5.113281 C 14.839844 5.023438 14.835938 4.933594 14.816406 4.84375 C 14.71875 4.367188 14.550781 3.910156 14.34375 3.464844 C 14.328125 3.429688 14.320312 3.394531 14.300781 3.363281 C 14.285156 3.328125 14.265625 3.296875 14.246094 3.261719 C 13.914062 2.605469 13.464844 2.003906 12.851562 1.503906 C 12.765625 1.433594 12.683594 1.359375 12.589844 1.292969 C 12.476562 1.210938 12.355469 1.140625 12.238281 1.066406 C 12.191406 1.039062 12.144531 1.007812 12.097656 0.980469 C 11.917969 0.875 11.730469 0.785156 11.535156 0.699219 C 10.59375 0.269531 9.4375 0 8 0 Z M 8 0 "/>
</g>
</svg>
