
<svg xmlns="http://www.w3.org/2000/svg" xmlns:xlink="http://www.w3.org/1999/xlink" width="16px" height="16px" viewBox="0 0 16 16" version="1.1">
<g id="surface1">
<path style=" stroke:none;fill-rule:nonzero;fill:#ff6666;fill-opacity:1;" d="M 5 13 L 5 3 L 11 3 L 11 13 Z M 5 13 "/>
<path style=" stroke:none;fill-rule:nonzero;fill:#ff6666;fill-opacity:1;" d="M 3 12.339844 C 3.011719 13.175781 2.984375 13.789062 3.261719 14.289062 C 3.398438 14.542969 3.636719 14.742188 3.929688 14.851562 C 4.21875 14.960938 4.566406 15 5.007812 15 L 11 15 C 11.4375 15 11.785156 14.960938 12.078125 14.851562 C 12.371094 14.742188 12.605469 14.542969 12.742188 14.292969 C 13.019531 13.789062 12.988281 13.175781 13 12.339844 L 13 3.632812 C 12.988281 2.792969 13.019531 2.179688 12.742188 1.675781 C 12.59375 1.417969 12.359375 1.21875 12.078125 1.117188 C 11.785156 1.007812 11.4375 1 11 1 L 10 1 L 10 0 L 6 0 L 6 1 L 5.007812 1 C 4.566406 1 4.21875 1.007812 3.929688 1.117188 C 3.636719 1.226562 3.398438 1.425781 3.261719 1.675781 C 2.984375 2.179688 3.011719 2.792969 3 3.632812 Z M 4 12.324219 L 4 3.632812 C 4.011719 2.78125 4.039062 2.335938 4.136719 2.15625 C 4.152344 2.128906 4.195312 2.085938 4.277344 2.054688 C 4.339844 2.03125 4.578125 2 5.007812 2 L 11 2 C 11.425781 2 11.664062 2.03125 11.726562 2.054688 C 11.8125 2.085938 11.851562 2.128906 11.867188 2.15625 C 11.960938 2.332031 11.988281 2.777344 12 3.632812 L 12 12.339844 C 11.988281 13.191406 11.960938 13.636719 11.867188 13.808594 C 11.851562 13.839844 11.8125 13.882812 11.726562 13.914062 C 11.605469 13.960938 11.378906 14 11 14 L 5.007812 14 C 4.628906 14 4.402344 13.960938 4.277344 13.914062 C 4.195312 13.882812 4.152344 13.835938 4.136719 13.808594 C 4.039062 13.632812 4.011719 13.1875 4 12.324219 Z M 4 12.324219 "/>
</g>
</svg>
