
<svg xmlns="http://www.w3.org/2000/svg" xmlns:xlink="http://www.w3.org/1999/xlink" width="16px" height="16px" viewBox="0 0 16 16" version="1.1">
<g id="surface1">
<path style=" stroke:none;fill-rule:nonzero;fill:#ff6666;fill-opacity:1;" d="M 3 1 L 3 2 L 3.996094 2 C 2.734375 2.015625 1.816406 1.96875 1.0625 2.386719 C 0.6875 2.59375 0.390625 2.945312 0.226562 3.382812 C 0.0585938 3.820312 0 4.34375 0 5 L 0 11 C 0 11.65625 0.0585938 12.179688 0.226562 12.617188 C 0.390625 13.054688 0.6875 13.40625 1.0625 13.617188 C 1.816406 14.03125 2.734375 13.984375 3.996094 14 L 12.007812 14 C 13.265625 13.984375 14.183594 14.03125 14.9375 13.617188 C 15.3125 13.40625 15.609375 13.054688 15.777344 12.617188 C 15.941406 12.179688 16 11.65625 16 11 L 16 5 C 16 4.34375 15.941406 3.820312 15.777344 3.382812 C 15.609375 2.945312 15.3125 2.59375 14.9375 2.386719 C 14.183594 1.96875 13.265625 2.015625 12.007812 2 L 5 2 L 5 1 Z M 4 3 L 12 3 C 13.257812 3.015625 14.085938 3.058594 14.453125 3.261719 C 14.636719 3.363281 14.742188 3.472656 14.839844 3.734375 C 14.9375 3.996094 15 4.40625 15 5 L 15 11 C 15 11.59375 14.9375 12.003906 14.839844 12.265625 C 14.742188 12.527344 14.636719 12.636719 14.453125 12.738281 C 14.085938 12.941406 13.257812 12.984375 12 13 L 4 13 C 2.742188 12.984375 1.910156 12.941406 1.546875 12.738281 C 1.363281 12.636719 1.257812 12.527344 1.160156 12.265625 C 1.0625 12.003906 1 11.59375 1 11 L 1 5 C 1 4.40625 1.0625 3.996094 1.160156 3.734375 C 1.257812 3.472656 1.363281 3.363281 1.546875 3.261719 C 1.910156 3.058594 2.742188 3.015625 4 3 Z M 8 4 C 5.789062 4 4 5.789062 4 8 C 4 10.210938 5.789062 12 8 12 C 10.210938 12 12 10.210938 12 8 C 12 5.789062 10.210938 4 8 4 Z M 13.5 4 C 13.222656 4 13 4.222656 13 4.5 C 13 4.777344 13.222656 5 13.5 5 C 13.777344 5 14 4.777344 14 4.5 C 14 4.222656 13.777344 4 13.5 4 Z M 8 5 C 9.65625 5 11 6.34375 11 8 C 11 9.65625 9.65625 11 8 11 C 6.34375 11 5 9.65625 5 8 C 5 6.34375 6.34375 5 8 5 Z M 7.917969 6.003906 C 6.847656 6.050781 6 6.929688 6 8 C 6 9.105469 6.894531 10 8 10 C 9.105469 10 10 9.105469 10 8 C 10 6.933594 9.164062 6.058594 8.101562 6.007812 C 8.609375 6.058594 9 6.488281 9 7 C 9 7.550781 8.550781 8 8 8 C 7.449219 8 7 7.550781 7 7 C 7 6.480469 7.398438 6.046875 7.917969 6.003906 Z M 7.917969 6.003906 "/>
</g>
</svg>
