
<svg xmlns="http://www.w3.org/2000/svg" xmlns:xlink="http://www.w3.org/1999/xlink" width="16px" height="16px" viewBox="0 0 16 16" version="1.1">
<g id="surface1">
<path style=" stroke:none;fill-rule:nonzero;fill:#ff6666;fill-opacity:1;" d="M 3.996094 0 C 2.734375 0.015625 1.816406 -0.03125 1.0625 0.386719 C 0.6875 0.59375 0.390625 0.945312 0.226562 1.382812 C 0.0585938 1.820312 0 2.34375 0 3 L 0 10 C 0 10.65625 0.0585938 11.179688 0.226562 11.617188 C 0.390625 12.054688 0.6875 12.40625 1.0625 12.617188 C 1.34375 12.769531 1.660156 12.847656 2 12.902344 L 2 11.875 C 1.8125 11.839844 1.652344 11.796875 1.546875 11.738281 C 1.363281 11.636719 1.257812 11.527344 1.160156 11.265625 C 1.0625 11.003906 1 10.59375 1 10 L 1 9 L 15 9 L 15 10 C 15 10.59375 14.9375 11.003906 14.839844 11.265625 C 14.742188 11.527344 14.636719 11.636719 14.453125 11.738281 C 14.347656 11.796875 14.1875 11.839844 14 11.875 L 14 12.902344 C 14.339844 12.847656 14.65625 12.769531 14.9375 12.617188 C 15.3125 12.40625 15.609375 12.054688 15.777344 11.617188 C 15.941406 11.179688 16 10.65625 16 10 L 16 3 C 16 2.34375 15.941406 1.820312 15.777344 1.382812 C 15.609375 0.945312 15.3125 0.59375 14.9375 0.386719 C 14.183594 -0.03125 13.265625 0.015625 12.007812 0 Z M 4 1 L 12 1 C 13.257812 1.015625 14.085938 1.058594 14.453125 1.261719 C 14.636719 1.363281 14.742188 1.472656 14.839844 1.734375 C 14.9375 1.996094 15 2.40625 15 3 L 15 8 L 1 8 L 1 3 C 1 2.40625 1.0625 1.996094 1.160156 1.734375 C 1.257812 1.472656 1.363281 1.363281 1.546875 1.261719 C 1.910156 1.058594 2.742188 1.015625 4 1 Z M 2 10 C 2 13.3125 4.6875 16 8 16 C 11.3125 16 14 13.3125 14 10 L 13 10 C 13 12.761719 10.761719 15 8 15 C 5.238281 15 3 12.761719 3 10 Z M 6 10 C 6 11.105469 6.894531 12 8 12 C 9.105469 12 10 11.105469 10 10 L 9 10 C 9 10.550781 8.550781 11 8 11 C 7.449219 11 7 10.550781 7 10 Z M 6 10 "/>
</g>
</svg>
