
<svg xmlns="http://www.w3.org/2000/svg" xmlns:xlink="http://www.w3.org/1999/xlink" width="16px" height="16px" viewBox="0 0 16 16" version="1.1">
<g id="surface1">
<path style=" stroke:none;fill-rule:nonzero;fill:#ff6666;fill-opacity:1;" d="M 2 0 L 0 10.667969 L 16 10.667969 L 14 0 Z M 0 11.332031 L 0 16 L 16 16 L 16 11.332031 Z M 1.332031 12.667969 L 2 12.667969 L 2 14 L 3.332031 14 L 3.332031 12.667969 L 4 12.667969 L 4 14 L 5.332031 14 L 5.332031 12.667969 L 6 12.667969 L 6 14 L 7.332031 14 L 7.332031 12.667969 L 8 12.667969 L 8 14 L 9.332031 14 L 9.332031 12.667969 L 10 12.667969 L 10 14.667969 L 1.332031 14.667969 Z M 12 13.332031 L 14.667969 13.332031 L 14.667969 14.667969 L 12 14.667969 Z M 12 13.332031 "/>
</g>
</svg>
