
<svg xmlns="http://www.w3.org/2000/svg" xmlns:xlink="http://www.w3.org/1999/xlink" width="16px" height="16px" viewBox="0 0 16 16" version="1.1">
<g id="surface1">
<path style=" stroke:none;fill-rule:nonzero;fill:#ff6666;fill-opacity:1;" d="M 6.996094 2 C 5.734375 2.015625 4.816406 1.96875 4.0625 2.386719 C 3.6875 2.59375 3.390625 2.945312 3.226562 3.382812 C 3.058594 3.820312 3 4.34375 3 5 L 3 13 C 3 13.65625 3.058594 14.179688 3.226562 14.617188 C 3.390625 15.054688 3.6875 15.40625 4.0625 15.617188 C 4.816406 16.03125 5.734375 15.984375 6.996094 16 L 12.007812 16 C 13.265625 15.984375 14.183594 16.03125 14.9375 15.617188 C 15.3125 15.40625 15.609375 15.054688 15.777344 14.617188 C 15.941406 14.179688 16 13.65625 16 13 L 16 5 C 16 4.34375 15.941406 3.820312 15.777344 3.382812 C 15.609375 2.945312 15.3125 2.59375 14.9375 2.386719 C 14.183594 1.96875 13.265625 2.015625 12.007812 2 Z M 7 3 L 12 3 C 13.257812 3.015625 14.085938 3.058594 14.453125 3.261719 C 14.636719 3.363281 14.742188 3.472656 14.839844 3.734375 C 14.9375 3.996094 15 4.40625 15 5 L 15 13 C 15 13.59375 14.9375 14.003906 14.839844 14.265625 C 14.742188 14.527344 14.636719 14.636719 14.453125 14.738281 C 14.085938 14.941406 13.257812 14.984375 12 15 L 7 15 C 5.742188 14.984375 4.910156 14.941406 4.546875 14.738281 C 4.363281 14.636719 4.257812 14.527344 4.160156 14.265625 C 4.0625 14.003906 4 13.59375 4 13 L 4 5 C 4 4.40625 4.0625 3.996094 4.160156 3.734375 C 4.257812 3.472656 4.363281 3.363281 4.546875 3.261719 C 4.910156 3.058594 5.742188 3.015625 7 3 Z M 7 3 "/>
<path style=" stroke:none;fill-rule:nonzero;fill:#ff6666;fill-opacity:1;" d="M 9.796875 5.011719 C 8.738281 4.941406 7.65625 5.242188 6.761719 5.929688 C 4.972656 7.300781 4.472656 9.796875 5.601562 11.75 C 6.730469 13.703125 9.140625 14.519531 11.222656 13.660156 C 13.304688 12.796875 14.433594 10.511719 13.851562 8.335938 L 13.71875 7.851562 L 12.753906 8.113281 L 12.882812 8.59375 C 13.339844 10.292969 12.464844 12.058594 10.839844 12.734375 C 9.214844 13.40625 7.347656 12.773438 6.46875 11.25 C 5.589844 9.726562 5.972656 7.792969 7.371094 6.722656 C 8.628906 5.753906 10.351562 5.777344 11.589844 6.703125 L 10.945312 7.347656 L 11.652344 8.054688 L 12.328125 7.378906 L 12.332031 7.378906 L 12.683594 7.023438 L 13.039062 6.671875 L 12.683594 6.320312 C 11.886719 5.519531 10.851562 5.082031 9.796875 5.011719 Z M 9.796875 5.011719 "/>
<path style=" stroke:none;fill-rule:nonzero;fill:#ff6666;fill-opacity:1;" d="M 9.5 8 C 8.671875 8 8 8.671875 8 9.5 C 8 10.328125 8.671875 11 9.5 11 C 10.328125 11 11 10.328125 11 9.5 C 11 8.671875 10.328125 8 9.5 8 Z M 9.5 9 C 9.777344 9 10 9.222656 10 9.5 C 10 9.777344 9.777344 10 9.5 10 C 9.222656 10 9 9.777344 9 9.5 C 9 9.222656 9.222656 9 9.5 9 Z M 9.5 9 "/>
<path style=" stroke:none;fill-rule:nonzero;fill:#ff6666;fill-opacity:1;" d="M 4.996094 0 C 3.734375 0.015625 2.816406 -0.03125 2.0625 0.386719 C 1.6875 0.59375 1.390625 0.945312 1.226562 1.382812 C 1.058594 1.820312 1 2.34375 1 3 L 1 12 L 2 12 L 2 3 C 2 2.40625 2.0625 1.996094 2.160156 1.734375 C 2.257812 1.472656 2.363281 1.363281 2.546875 1.261719 C 2.910156 1.058594 3.742188 1.015625 5 1 L 12 1 L 12 0 Z M 4.996094 0 "/>
</g>
</svg>
