
<svg xmlns="http://www.w3.org/2000/svg" xmlns:xlink="http://www.w3.org/1999/xlink" width="16px" height="16px" viewBox="0 0 16 16" version="1.1">
<g id="surface1">
<path style=" stroke:none;fill-rule:nonzero;fill:#ff6666;fill-opacity:1;" d="M 3.691406 0 C 2.671875 0 1.847656 0.828125 1.847656 1.847656 L 0 11.710938 C 0.515625 11.320312 1.152344 11.078125 1.847656 11.078125 L 14.152344 11.078125 C 14.847656 11.078125 15.484375 11.320312 16 11.710938 L 14.152344 1.847656 C 14.152344 0.828125 13.328125 0 12.308594 0 Z M 8 1.941406 C 10.65625 1.941406 12.808594 3.5625 12.808594 5.558594 C 12.808594 7.554688 10.65625 9.171875 8 9.171875 C 5.34375 9.171875 3.191406 7.554688 3.191406 5.558594 C 3.191406 3.558594 5.34375 1.941406 8 1.941406 Z M 8 4.367188 C 7.351562 4.367188 6.828125 4.765625 6.828125 5.25 C 6.828125 5.734375 7.351562 6.136719 8 6.136719 C 8.648438 6.136719 9.171875 5.734375 9.171875 5.25 C 9.171875 4.765625 8.648438 4.367188 8 4.367188 Z M 5.097656 4.671875 C 4.933594 4.933594 4.847656 5.230469 4.847656 5.539062 C 4.847656 6.773438 6.265625 7.558594 8 7.558594 C 7.226562 7.472656 4.90625 6.476562 5.097656 4.671875 Z M 1.847656 11.691406 C 0.828125 11.691406 0 12.519531 0 13.539062 L 0 14.152344 C 0 15.171875 0.828125 16 1.847656 16 L 14.152344 16 C 15.171875 16 16 15.171875 16 14.152344 L 16 13.539062 C 16 12.519531 15.171875 11.691406 14.152344 11.691406 Z M 13.230469 12.921875 C 13.742188 12.921875 14.152344 13.335938 14.152344 13.847656 C 14.152344 14.355469 13.742188 14.769531 13.230469 14.769531 C 12.722656 14.769531 12.308594 14.355469 12.308594 13.847656 C 12.308594 13.335938 12.722656 12.921875 13.230469 12.921875 Z M 13.230469 12.921875 "/>
</g>
</svg>
