
<svg xmlns="http://www.w3.org/2000/svg" xmlns:xlink="http://www.w3.org/1999/xlink" width="16px" height="16px" viewBox="0 0 16 16" version="1.1">
<g id="surface1">
<path style=" stroke:none;fill-rule:nonzero;fill:#ff6666;fill-opacity:1;" d="M 3.625 0 C 3.277344 0 3 0.265625 3 0.597656 L 3 11.402344 C 3 11.734375 3.277344 12 3.625 12 L 7 12 L 7 14 L 6 14 C 5.445312 14 5 14.445312 5 15 C 5 15.554688 5.445312 16 6 16 L 10 16 C 10.554688 16 11 15.554688 11 15 C 11 14.445312 10.554688 14 10 14 L 9 14 L 9 12 L 12.375 12 C 12.722656 12 13 11.734375 13 11.402344 L 13 0.597656 C 13 0.265625 12.722656 0 12.375 0 Z M 4.5 1 C 4.777344 1 5 1.222656 5 1.5 C 5 1.777344 4.777344 2 4.5 2 C 4.222656 2 4 1.777344 4 1.5 C 4 1.222656 4.222656 1 4.5 1 Z M 8 1 C 10.210938 1 12 2.789062 12 5 C 12 7.210938 10.210938 9 8 9 C 5.789062 9 4 7.210938 4 5 C 4 2.789062 5.789062 1 8 1 Z M 11.5 1 C 11.777344 1 12 1.222656 12 1.5 C 12 1.777344 11.777344 2 11.5 2 C 11.222656 2 11 1.777344 11 1.5 C 11 1.222656 11.222656 1 11.5 1 Z M 8 2 C 6.34375 2 5 3.34375 5 5 C 5 6.65625 6.34375 8 8 8 C 9.65625 8 11 6.65625 11 5 C 11 3.34375 9.65625 2 8 2 Z M 8 4 C 8.550781 4 9 4.449219 9 5 C 9 5.550781 8.550781 6 8 6 C 7.449219 6 7 5.550781 7 5 C 7 4.449219 7.449219 4 8 4 Z M 4.5 10 C 4.777344 10 5 10.222656 5 10.5 C 5 10.777344 4.777344 11 4.5 11 C 4.222656 11 4 10.777344 4 10.5 C 4 10.222656 4.222656 10 4.5 10 Z M 11.5 10 C 11.777344 10 12 10.222656 12 10.5 C 12 10.777344 11.777344 11 11.5 11 C 11.222656 11 11 10.777344 11 10.5 C 11 10.222656 11.222656 10 11.5 10 Z M 11.5 10 "/>
</g>
</svg>
