
<svg xmlns="http://www.w3.org/2000/svg" xmlns:xlink="http://www.w3.org/1999/xlink" width="16px" height="16px" viewBox="0 0 16 16" version="1.1">
<g id="surface1">
<path style=" stroke:none;fill-rule:nonzero;fill:#ff6666;fill-opacity:1;" d="M 3.996094 1 C 2.734375 1.015625 1.816406 0.96875 1.0625 1.386719 C 0.6875 1.59375 0.390625 1.945312 0.226562 2.382812 C 0.0585938 2.820312 0 3.34375 0 4 L 0 12 C 0 12.65625 0.0585938 13.179688 0.226562 13.617188 C 0.390625 14.054688 0.6875 14.40625 1.0625 14.617188 C 1.816406 15.03125 2.734375 14.984375 3.996094 15 L 11.007812 15 C 12.265625 14.984375 13.183594 15.03125 13.9375 14.617188 C 14.3125 14.40625 14.609375 14.054688 14.777344 13.617188 C 14.941406 13.179688 15 12.65625 15 12 L 15 4 C 15 3.34375 14.941406 2.820312 14.777344 2.382812 C 14.609375 1.945312 14.3125 1.59375 13.9375 1.386719 C 13.183594 0.96875 12.265625 1.015625 11.007812 1 Z M 4 2 L 11 2 C 12.257812 2.015625 13.085938 2.058594 13.453125 2.261719 C 13.636719 2.363281 13.742188 2.472656 13.839844 2.734375 C 13.9375 2.996094 14 3.40625 14 4 L 14 12 C 14 12.59375 13.9375 13.003906 13.839844 13.265625 C 13.742188 13.527344 13.636719 13.636719 13.453125 13.738281 C 13.085938 13.941406 12.257812 13.984375 11 14 L 4 14 C 2.742188 13.984375 1.910156 13.941406 1.546875 13.738281 C 1.363281 13.636719 1.257812 13.527344 1.160156 13.265625 C 1.0625 13.003906 1 12.59375 1 12 L 1 4 C 1 3.40625 1.0625 2.996094 1.160156 2.734375 C 1.257812 2.472656 1.363281 2.363281 1.546875 2.261719 C 1.910156 2.058594 2.742188 2.015625 4 2 Z M 4 2 "/>
<path style=" stroke:none;fill-rule:evenodd;fill:#ff6666;fill-opacity:1;" d="M 0.5 11 L 0.5 12 L 14.5 12 L 14.5 11 Z M 0.5 11 "/>
<path style=" stroke:none;fill-rule:evenodd;fill:#ff6666;fill-opacity:1;" d="M 7 11.5 L 7 14.5 L 8 14.5 L 8 11.5 Z M 7 11.5 "/>
</g>
</svg>
