
<svg xmlns="http://www.w3.org/2000/svg" xmlns:xlink="http://www.w3.org/1999/xlink" width="16px" height="16px" viewBox="0 0 16 16" version="1.1">
<g id="surface1">
<path style=" stroke:none;fill-rule:nonzero;fill:#ff6666;fill-opacity:1;" d="M 3.996094 3 C 2.734375 3.015625 1.816406 2.96875 1.0625 3.386719 C 0.6875 3.59375 0.390625 3.945312 0.226562 4.382812 C 0.0585938 4.820312 0 5.34375 0 6 L 0 11 C 0 11.65625 0.0585938 12.179688 0.226562 12.617188 C 0.390625 13.054688 0.6875 13.40625 1.0625 13.617188 C 1.816406 14.03125 2.734375 13.984375 3.996094 14 L 11.007812 14 C 12.265625 13.984375 13.183594 14.03125 13.9375 13.617188 C 14.3125 13.40625 14.609375 13.054688 14.777344 12.617188 C 14.941406 12.179688 15 11.65625 15 11 L 15 6 C 15 5.34375 14.941406 4.820312 14.777344 4.382812 C 14.609375 3.945312 14.3125 3.59375 13.9375 3.386719 C 13.183594 2.96875 12.265625 3.015625 11.007812 3 Z M 4 4 L 11 4 C 12.257812 4.015625 13.085938 4.058594 13.453125 4.261719 C 13.636719 4.363281 13.742188 4.472656 13.839844 4.734375 C 13.9375 4.996094 14 5.40625 14 6 L 14 11 C 14 11.59375 13.9375 12.003906 13.839844 12.265625 C 13.742188 12.527344 13.636719 12.636719 13.453125 12.738281 C 13.085938 12.941406 12.257812 12.984375 11 13 L 4 13 C 2.742188 12.984375 1.914062 12.941406 1.546875 12.738281 C 1.363281 12.636719 1.257812 12.527344 1.160156 12.265625 C 1.0625 12.003906 1 11.59375 1 11 L 1 6 C 1 5.40625 1.0625 4.996094 1.160156 4.734375 C 1.257812 4.472656 1.363281 4.363281 1.546875 4.261719 C 1.914062 4.058594 2.742188 4.015625 4 4 Z M 4 4 "/>
<path style=" stroke:none;fill-rule:evenodd;fill:#ff6666;fill-opacity:1;" d="M 3 6 L 3 7 L 4 7 L 4 6 Z M 5 6 L 5 7 L 6 7 L 6 6 Z M 7 6 L 7 7 L 8 7 L 8 6 Z M 9 6 L 9 7 L 10 7 L 10 6 Z M 11 6 L 11 7 L 12 7 L 12 6 Z M 4 8 L 4.003906 9 L 5 9 L 5 8 Z M 6 8 L 6 9 L 7 9 L 7 8 Z M 8 8 L 8 9 L 9 9 L 9 8 Z M 10 8 L 10 9 L 11 9 L 11 8 Z M 3 10 L 3 11 L 4 11 L 4 10 Z M 5 10 L 5 11 L 10 11 L 10 10 Z M 11 10 L 11.011719 11 L 12.007812 11 L 11.996094 10 Z M 11 10 "/>
</g>
</svg>
