
<svg xmlns="http://www.w3.org/2000/svg" xmlns:xlink="http://www.w3.org/1999/xlink" width="16px" height="16px" viewBox="0 0 16 16" version="1.1">
<g id="surface1">
<path style=" stroke:none;fill-rule:nonzero;fill:#ff6666;fill-opacity:1;" d="M 3.996094 1 C 2.734375 1.015625 1.816406 0.96875 1.0625 1.386719 C 0.6875 1.59375 0.390625 1.945312 0.226562 2.382812 C 0.0585938 2.820312 0 3.34375 0 4 L 0 12 C 0 12.65625 0.0585938 13.179688 0.226562 13.617188 C 0.390625 14.054688 0.6875 14.40625 1.0625 14.617188 C 1.816406 15.03125 2.734375 14.984375 3.996094 15 L 12.007812 15 C 13.265625 14.984375 14.183594 15.03125 14.9375 14.617188 C 15.3125 14.40625 15.609375 14.054688 15.777344 13.617188 C 15.941406 13.179688 16 12.65625 16 12 L 16 4 C 16 3.34375 15.941406 2.820312 15.777344 2.382812 C 15.769531 2.371094 15.761719 2.359375 15.757812 2.347656 L 14.9375 3.15625 C 14.976562 3.382812 15 3.652344 15 4 L 15 12 C 15 12.59375 14.9375 13.003906 14.839844 13.265625 C 14.742188 13.527344 14.636719 13.636719 14.453125 13.738281 C 14.085938 13.941406 13.257812 13.984375 12 14 L 4 14 C 2.742188 13.984375 1.910156 13.941406 1.546875 13.738281 C 1.363281 13.636719 1.257812 13.527344 1.160156 13.265625 C 1.0625 13.003906 1 12.59375 1 12 L 1 4 C 1 3.40625 1.0625 2.996094 1.160156 2.734375 C 1.257812 2.472656 1.363281 2.363281 1.546875 2.261719 C 1.910156 2.058594 2.742188 2.015625 4 2 L 7.851562 2 L 8.835938 1 Z M 3.996094 1 "/>
<path style=" stroke:none;fill-rule:nonzero;fill:#ff6666;fill-opacity:1;" d="M 11.238281 0 L 10.886719 0.359375 L 3.917969 7.457031 L 3.886719 7.5 C 3.824219 7.597656 3.617188 7.949219 3.304688 8.589844 C 2.988281 9.226562 2.601562 10.097656 2.292969 11.082031 L 2 12 L 2.921875 11.710938 C 3.902344 11.398438 4.773438 11.011719 5.414062 10.699219 C 6.050781 10.382812 6.398438 10.175781 6.5 10.113281 L 6.546875 10.085938 L 14 2.761719 Z M 4.890625 7.890625 L 6.109375 9.109375 L 5.933594 9.285156 C 5.9375 9.28125 5.554688 9.511719 4.972656 9.800781 C 4.757812 9.902344 4.433594 10.019531 4.136719 10.136719 L 3.863281 9.863281 C 3.980469 9.566406 4.097656 9.242188 4.203125 9.03125 C 4.488281 8.445312 4.71875 8.0625 4.714844 8.070312 Z M 4 12 L 4 13 L 14 13 L 14 7 L 13 7 L 13 12 Z M 4 12 "/>
</g>
</svg>
