
<svg xmlns="http://www.w3.org/2000/svg" xmlns:xlink="http://www.w3.org/1999/xlink" width="16px" height="16px" viewBox="0 0 16 16" version="1.1">
<g id="surface1">
<path style=" stroke:none;fill-rule:nonzero;fill:#ff6666;fill-opacity:1;" d="M 4.996094 1 C 3.734375 1.015625 2.816406 0.96875 2.0625 1.386719 C 1.6875 1.59375 1.390625 1.945312 1.226562 2.382812 C 1.058594 2.820312 1 3.34375 1 4 L 1 12.207031 L 3.792969 15 L 11.007812 15 C 12.265625 14.984375 13.183594 15.03125 13.9375 14.617188 C 14.3125 14.40625 14.609375 14.054688 14.777344 13.617188 C 14.941406 13.179688 15 12.65625 15 12 L 15 4 C 15 3.34375 14.941406 2.820312 14.777344 2.382812 C 14.609375 1.945312 14.3125 1.59375 13.9375 1.386719 C 13.183594 0.96875 12.265625 1.015625 11.007812 1 Z M 5 2 L 11 2 C 12.257812 2.015625 13.089844 2.058594 13.457031 2.261719 C 13.636719 2.363281 13.742188 2.472656 13.839844 2.734375 C 13.9375 2.996094 14 3.40625 14 4 L 14 12 C 14 12.59375 13.9375 13.003906 13.839844 13.265625 C 13.742188 13.527344 13.636719 13.636719 13.457031 13.738281 C 13.089844 13.941406 12.257812 13.984375 10.996094 14 L 4.207031 14 L 2 11.792969 L 2 4 C 2 3.40625 2.0625 2.996094 2.160156 2.734375 C 2.257812 2.472656 2.363281 2.363281 2.546875 2.261719 C 2.914062 2.058594 3.742188 2.015625 5 2 Z M 5 2 "/>
<path style=" stroke:none;fill-rule:nonzero;fill:#ff6666;fill-opacity:1;" d="M 4 9 L 4 14 L 6 14 L 6 10 L 8 10 L 8 14 L 12 14 L 12 9 Z M 4 9 "/>
</g>
</svg>
