
<svg xmlns="http://www.w3.org/2000/svg" xmlns:xlink="http://www.w3.org/1999/xlink" width="16px" height="16px" viewBox="0 0 16 16" version="1.1">
<g id="surface1">
<path style=" stroke:none;fill-rule:nonzero;fill:#ff6666;fill-opacity:1;" d="M 5 2 C 4.34375 2 3.820312 2.058594 3.382812 2.226562 C 2.945312 2.390625 2.59375 2.6875 2.386719 3.0625 C 1.96875 3.816406 2.015625 4.734375 2 5.996094 L 2 11.007812 C 2.015625 12.265625 1.96875 13.183594 2.386719 13.9375 C 2.59375 14.3125 2.945312 14.609375 3.382812 14.777344 C 3.820312 14.941406 4.34375 15 5 15 L 9 15 C 9.65625 15 10.179688 14.941406 10.617188 14.777344 C 11.054688 14.609375 11.40625 14.3125 11.613281 13.9375 C 12.027344 13.183594 11.984375 12.265625 12 11.007812 L 12 7.347656 L 10.976562 5.8125 C 10.96875 4.671875 11.003906 3.769531 10.617188 3.0625 C 10.40625 2.6875 10.054688 2.390625 9.617188 2.222656 C 9.179688 2.058594 8.65625 2 8 2 Z M 5 3 L 8 3 C 8.59375 3 9.003906 3.0625 9.265625 3.160156 C 9.527344 3.257812 9.636719 3.363281 9.738281 3.546875 C 9.941406 3.914062 9.984375 4.742188 10 6.007812 L 10.003906 6.15625 L 11 7.652344 L 11 10.996094 C 10.984375 12.257812 10.941406 13.085938 10.738281 13.453125 C 10.636719 13.636719 10.527344 13.742188 10.265625 13.839844 C 10.003906 13.9375 9.59375 14 9 14 L 5 14 C 4.40625 14 3.996094 13.9375 3.734375 13.839844 C 3.472656 13.742188 3.363281 13.636719 3.261719 13.453125 C 3.058594 13.085938 3.015625 12.257812 3 11 L 3 6 C 3.015625 4.742188 3.058594 3.914062 3.261719 3.546875 C 3.363281 3.363281 3.472656 3.257812 3.734375 3.160156 C 3.996094 3.0625 4.40625 3 5 3 Z M 5 3 "/>
<path style=" stroke:none;fill-rule:nonzero;fill:#ff6666;fill-opacity:1;" d="M 4 4 L 4 6 L 5 6 L 5 4 Z M 6 4 L 6 6 L 7 6 L 7 4 Z M 8 4 L 8 6 L 9 6 L 9 4 Z M 8 4 "/>
</g>
</svg>
