
<svg xmlns="http://www.w3.org/2000/svg" xmlns:xlink="http://www.w3.org/1999/xlink" width="16px" height="16px" viewBox="0 0 16 16" version="1.1">
<g id="surface1">
<path style=" stroke:none;fill-rule:nonzero;fill:#ff6666;fill-opacity:1;" d="M 5 4 C 4.34375 4 3.820312 4.058594 3.382812 4.226562 C 2.945312 4.390625 2.59375 4.6875 2.386719 5.0625 C 1.96875 5.816406 2.015625 6.734375 2 7.996094 L 2 12.007812 C 2.015625 13.265625 1.96875 14.183594 2.386719 14.9375 C 2.59375 15.3125 2.945312 15.609375 3.382812 15.777344 C 3.820312 15.941406 4.34375 16 5 16 L 10 16 C 10.65625 16 11.179688 15.941406 11.617188 15.777344 C 12.054688 15.609375 12.40625 15.3125 12.613281 14.9375 C 13.027344 14.183594 12.984375 13.265625 13 12.007812 L 13 7.992188 C 12.984375 6.734375 13.03125 5.816406 12.617188 5.0625 C 12.40625 4.6875 12.054688 4.390625 11.617188 4.222656 C 11.179688 4.058594 10.65625 4 10 4 Z M 5 5 L 10 5 C 10.59375 5 11.003906 5.0625 11.265625 5.160156 C 11.527344 5.257812 11.636719 5.363281 11.738281 5.546875 C 11.941406 5.914062 11.984375 6.742188 12 8 L 12 11.996094 C 11.984375 13.257812 11.941406 14.085938 11.738281 14.453125 C 11.636719 14.636719 11.527344 14.742188 11.265625 14.839844 C 11.003906 14.9375 10.59375 15 10 15 L 5 15 C 4.40625 15 3.996094 14.9375 3.734375 14.839844 C 3.472656 14.742188 3.363281 14.636719 3.261719 14.453125 C 3.058594 14.085938 3.015625 13.257812 3 12 L 3 8 C 3.015625 6.742188 3.058594 5.914062 3.261719 5.546875 C 3.363281 5.363281 3.472656 5.257812 3.734375 5.160156 C 3.996094 5.0625 4.40625 5 5 5 Z M 5 5 "/>
<path style=" stroke:none;fill-rule:evenodd;fill:#ff6666;fill-opacity:1;" d="M 4 0 L 4 3 L 5 3 L 5 1 L 10 1 L 10 3 L 11 3 L 11 0 Z M 6 2 L 6 3 L 7 3 L 7 2 Z M 8 2 L 8 3 L 9 3 L 9 2 Z M 8 2 "/>
</g>
</svg>
