
<svg xmlns="http://www.w3.org/2000/svg" xmlns:xlink="http://www.w3.org/1999/xlink" width="16px" height="16px" viewBox="0 0 16 16" version="1.1">
<g id="surface1">
<path style=" stroke:none;fill-rule:nonzero;fill:#ff6666;fill-opacity:1;" d="M 4.5 1 C 3.957031 1 3.515625 1.0625 3.140625 1.230469 C 2.765625 1.398438 2.472656 1.6875 2.304688 2.027344 C 1.964844 2.707031 2 3.5 2 4.5 L 2 12.5 C 2 13.5 1.964844 14.292969 2.304688 14.972656 C 2.472656 15.3125 2.765625 15.601562 3.140625 15.769531 C 3.515625 15.9375 3.957031 16 4.5 16 L 9.5 16 C 10.042969 16 10.484375 15.9375 10.859375 15.769531 C 11.234375 15.601562 11.527344 15.3125 11.699219 14.972656 C 12.035156 14.292969 12 13.5 12 12.5 L 12 4.5 C 12 3.5 12.035156 2.707031 11.699219 2.027344 C 11.527344 1.6875 11.234375 1.398438 10.859375 1.230469 C 10.484375 1.0625 10.042969 1 9.5 1 Z M 4.5 2 L 9.5 2 C 9.957031 2 10.265625 2.0625 10.453125 2.144531 C 10.640625 2.226562 10.722656 2.3125 10.804688 2.472656 C 10.964844 2.792969 11 3.5 11 4.5 L 11 12.5 C 11 13.5 10.964844 14.207031 10.804688 14.527344 C 10.722656 14.6875 10.640625 14.773438 10.453125 14.855469 C 10.265625 14.9375 9.957031 15 9.5 15 L 4.5 15 C 4.042969 15 3.734375 14.9375 3.546875 14.855469 C 3.359375 14.773438 3.277344 14.6875 3.199219 14.527344 C 3.035156 14.207031 3 13.5 3 12.5 L 3 4.5 C 3 3.5 3.035156 2.792969 3.199219 2.472656 C 3.277344 2.3125 3.359375 2.226562 3.546875 2.144531 C 3.734375 2.0625 4.042969 2 4.5 2 Z M 4.5 2 "/>
<path style=" stroke:none;fill-rule:evenodd;fill:#ff6666;fill-opacity:1;" d="M 4 3 L 4 7 L 10 7 L 10 3 Z M 4 3 "/>
<path style=" stroke:none;fill-rule:nonzero;fill:#ff6666;fill-opacity:1;" d="M 7 8 C 5.347656 8 4 9.347656 4 11 C 4 12.652344 5.347656 14 7 14 C 8.652344 14 10 12.652344 10 11 C 10 9.347656 8.652344 8 7 8 Z M 7 9 C 8.109375 9 9 9.890625 9 11 C 9 12.109375 8.109375 13 7 13 C 5.890625 13 5 12.109375 5 11 C 5 9.890625 5.890625 9 7 9 Z M 7 9 "/>
</g>
</svg>
