
<svg xmlns="http://www.w3.org/2000/svg" xmlns:xlink="http://www.w3.org/1999/xlink" width="16px" height="16px" viewBox="0 0 16 16" version="1.1">
<g id="surface1">
<path style=" stroke:none;fill-rule:nonzero;fill:#ff6666;fill-opacity:1;" d="M 3.199219 0 C 2.316406 0 1.601562 0.71875 1.601562 1.601562 L 1.601562 14.398438 C 1.601562 15.28125 2.316406 16 3.199219 16 L 12.800781 16 C 13.683594 16 14.398438 15.28125 14.398438 14.398438 L 14.398438 8.800781 L 13.601562 8.800781 C 13.117188 8.800781 12.800781 8.480469 12.800781 8 C 12.800781 7.519531 13.117188 7.199219 13.601562 7.199219 L 14.398438 7.199219 L 14.398438 1.601562 C 14.398438 0.71875 13.683594 0 12.800781 0 Z M 3.601562 1.601562 L 10.800781 1.601562 C 11.039062 1.601562 11.199219 1.761719 11.199219 2 L 11.199219 14 C 11.199219 14.238281 11.039062 14.398438 10.800781 14.398438 L 3.601562 14.398438 C 3.359375 14.398438 3.199219 14.238281 3.199219 14 L 3.199219 2 C 3.199219 1.761719 3.359375 1.601562 3.601562 1.601562 Z M 4.800781 3.199219 L 4.800781 5.601562 L 9.601562 5.601562 L 9.601562 3.199219 Z M 4.800781 6.398438 L 4.800781 9.601562 L 9.601562 9.601562 L 9.601562 6.398438 Z M 4.800781 10.398438 L 4.800781 12.800781 L 9.601562 12.800781 L 9.601562 10.398438 Z M 4.800781 10.398438 "/>
</g>
</svg>
