
<svg xmlns="http://www.w3.org/2000/svg" xmlns:xlink="http://www.w3.org/1999/xlink" width="16px" height="16px" viewBox="0 0 16 16" version="1.1">
<g id="surface1">
<path style=" stroke:none;fill-rule:evenodd;fill:#ff6666;fill-opacity:1;" d="M 8 8.605469 C 6.703125 8.605469 5.480469 9.179688 4.644531 10.175781 C 4.386719 10.484375 4.425781 10.945312 4.734375 11.203125 C 4.871094 11.316406 5.039062 11.375 5.203125 11.375 C 5.410156 11.375 5.617188 11.285156 5.765625 11.113281 C 6.320312 10.449219 7.136719 10.066406 8 10.066406 C 8.863281 10.066406 9.679688 10.449219 10.234375 11.113281 C 10.382812 11.285156 10.589844 11.375 10.796875 11.375 C 10.960938 11.375 11.128906 11.320312 11.265625 11.203125 C 11.574219 10.945312 11.613281 10.484375 11.355469 10.175781 C 10.519531 9.179688 9.296875 8.605469 8 8.605469 Z M 8 5.394531 C 5.84375 5.394531 3.804688 6.34375 2.40625 8.007812 C 2.148438 8.3125 2.1875 8.773438 2.496094 9.035156 C 2.632812 9.148438 2.800781 9.207031 2.96875 9.207031 C 3.175781 9.207031 3.382812 9.117188 3.527344 8.945312 C 4.644531 7.617188 6.273438 6.855469 8 6.855469 C 9.726562 6.855469 11.355469 7.617188 12.472656 8.945312 C 12.617188 9.117188 12.824219 9.207031 13.03125 9.207031 C 13.199219 9.207031 13.367188 9.148438 13.503906 9.035156 C 13.8125 8.773438 13.851562 8.3125 13.59375 8.007812 C 12.195312 6.34375 10.15625 5.394531 8 5.394531 Z M 15.828125 5.957031 C 13.875 3.632812 11.019531 2.296875 8 2.296875 C 4.980469 2.296875 2.125 3.632812 0.171875 5.957031 C -0.0898438 6.265625 -0.046875 6.726562 0.261719 6.984375 C 0.398438 7.101562 0.5625 7.15625 0.730469 7.15625 C 0.9375 7.15625 1.144531 7.070312 1.289062 6.898438 C 2.964844 4.902344 5.410156 3.761719 8 3.761719 C 10.589844 3.761719 13.035156 4.902344 14.710938 6.894531 C 14.855469 7.066406 15.0625 7.15625 15.269531 7.15625 C 15.4375 7.15625 15.601562 7.101562 15.738281 6.984375 C 16.046875 6.726562 16.089844 6.265625 15.828125 5.957031 Z M 6.796875 12.496094 C 6.796875 13.160156 7.335938 13.703125 8 13.703125 C 8.664062 13.703125 9.203125 13.160156 9.203125 12.496094 C 9 10.789062 6.835938 11.226562 6.796875 12.496094 Z M 6.796875 12.496094 "/>
</g>
</svg>
