
<svg xmlns="http://www.w3.org/2000/svg" xmlns:xlink="http://www.w3.org/1999/xlink" width="16px" height="16px" viewBox="0 0 16 16" version="1.1">
<g id="surface1">
<path style=" stroke:none;fill-rule:nonzero;fill:#ff6666;fill-opacity:1;" d="M 6.570312 1.144531 C 6.335938 1.144531 6.132812 1.226562 5.964844 1.394531 C 5.796875 1.558594 5.714844 1.761719 5.714844 2 L 5.714844 4.859375 C 5.714844 5.097656 5.796875 5.296875 5.964844 5.464844 C 6.132812 5.632812 6.335938 5.714844 6.570312 5.714844 L 7.429688 5.714844 L 7.429688 7.429688 L 2.855469 7.429688 C 2.546875 7.429688 2.28125 7.539062 2.054688 7.765625 C 1.828125 7.992188 1.714844 8.261719 1.714844 8.570312 L 1.714844 10.285156 L 0.855469 10.285156 C 0.617188 10.285156 0.417969 10.371094 0.25 10.535156 C 0.0859375 10.703125 0 10.902344 0 11.140625 L 0 14 C 0 14.238281 0.0859375 14.441406 0.25 14.605469 C 0.417969 14.773438 0.617188 14.855469 0.855469 14.855469 L 3.714844 14.855469 C 3.953125 14.855469 4.15625 14.773438 4.320312 14.605469 C 4.488281 14.441406 4.570312 14.238281 4.570312 14 L 4.570312 11.140625 C 4.570312 10.902344 4.488281 10.703125 4.320312 10.535156 C 4.15625 10.367188 3.953125 10.285156 3.714844 10.285156 L 2.855469 10.285156 L 2.855469 8.570312 L 7.429688 8.570312 L 7.429688 10.285156 L 6.570312 10.285156 C 6.335938 10.285156 6.132812 10.371094 5.964844 10.535156 C 5.796875 10.703125 5.714844 10.902344 5.714844 11.140625 L 5.714844 14 C 5.714844 14.238281 5.796875 14.441406 5.964844 14.605469 C 6.132812 14.773438 6.335938 14.855469 6.570312 14.855469 L 9.429688 14.855469 C 9.664062 14.855469 9.867188 14.773438 10.035156 14.605469 C 10.203125 14.441406 10.285156 14.238281 10.285156 14 L 10.285156 11.140625 C 10.285156 10.902344 10.203125 10.703125 10.035156 10.535156 C 9.867188 10.367188 9.664062 10.285156 9.429688 10.285156 L 8.570312 10.285156 L 8.570312 8.570312 L 13.144531 8.570312 L 13.144531 10.285156 L 12.285156 10.285156 C 12.046875 10.285156 11.84375 10.371094 11.679688 10.535156 C 11.511719 10.703125 11.429688 10.902344 11.429688 11.140625 L 11.429688 14 C 11.429688 14.238281 11.511719 14.441406 11.679688 14.605469 C 11.84375 14.773438 12.046875 14.855469 12.285156 14.855469 L 15.144531 14.855469 C 15.382812 14.855469 15.582031 14.773438 15.75 14.605469 C 15.914062 14.441406 16 14.238281 16 14 L 16 11.140625 C 16 10.902344 15.917969 10.703125 15.75 10.535156 C 15.585938 10.367188 15.382812 10.285156 15.144531 10.285156 L 14.285156 10.285156 L 14.285156 8.570312 C 14.285156 8.261719 14.171875 7.992188 13.945312 7.765625 C 13.71875 7.539062 13.453125 7.429688 13.144531 7.429688 L 8.570312 7.429688 L 8.570312 5.714844 L 9.429688 5.714844 C 9.664062 5.714844 9.867188 5.632812 10.035156 5.464844 C 10.203125 5.296875 10.285156 5.097656 10.285156 4.859375 L 10.285156 2 C 10.285156 1.761719 10.203125 1.558594 10.035156 1.394531 C 9.867188 1.226562 9.664062 1.144531 9.429688 1.144531 Z M 6.570312 1.144531 "/>
</g>
</svg>
