
<svg xmlns="http://www.w3.org/2000/svg" xmlns:xlink="http://www.w3.org/1999/xlink" width="16px" height="16px" viewBox="0 0 16 16" version="1.1">
<g id="surface1">
<path style=" stroke:none;fill-rule:nonzero;fill:#ff6666;fill-opacity:1;" d="M 8.140625 0.0078125 C 6.441406 -0.0273438 4.03125 0.0078125 4.03125 1.355469 C 4.03125 3.117188 4.019531 5.5 4.011719 7.8125 C 4.003906 9.988281 3.992188 12.097656 3.992188 13.566406 C 3.992188 15.972656 4.851562 15.976562 7.570312 15.996094 C 7.699219 15.996094 7.828125 15.996094 7.964844 15.996094 C 11.207031 16.023438 12.003906 15.996094 12.003906 13.566406 L 12.003906 1.355469 C 12.003906 0.0820312 9.976562 0.0429688 8.40625 0.015625 C 8.316406 0.0117188 8.226562 0.0078125 8.140625 0.0078125 Z M 7.4375 1.367188 L 8.546875 1.367188 C 10.023438 1.347656 11.828125 1.402344 11.828125 2.585938 C 11.828125 4 11.8125 5.019531 11.796875 6.773438 C 11.777344 8.609375 11.757812 9.882812 11.757812 11.496094 C 11.757812 13.25 11.507812 13.464844 8.035156 13.464844 C 4.667969 13.464844 4.207031 13.109375 4.207031 11.496094 C 4.207031 10.214844 4.210938 9.117188 4.214844 7.355469 C 4.21875 5.457031 4.226562 4.183594 4.226562 2.585938 C 4.226562 1.40625 5.886719 1.347656 7.4375 1.367188 Z M 7.984375 14.003906 C 7.992188 14.003906 7.996094 14.003906 8 14.003906 C 8.414062 14.003906 8.75 14.339844 8.75 14.753906 C 8.75 15.171875 8.414062 15.503906 8 15.503906 C 7.585938 15.503906 7.25 15.171875 7.25 14.753906 C 7.25 14.347656 7.578125 14.011719 7.984375 14.003906 Z M 7.984375 14.003906 "/>
</g>
</svg>
