
<svg xmlns="http://www.w3.org/2000/svg" xmlns:xlink="http://www.w3.org/1999/xlink" width="16px" height="16px" viewBox="0 0 16 16" version="1.1">
<g id="surface1">
<path style=" stroke:none;fill-rule:nonzero;fill:#ff6666;fill-opacity:1;" d="M 5 0.75 L 4 1 L 4 12.5 C 4 13.5 3.964844 14.292969 4.304688 14.972656 C 4.472656 15.3125 4.765625 15.601562 5.140625 15.769531 C 5.515625 15.9375 5.957031 16 6.5 16 L 10.5 16 C 11.042969 16 11.484375 15.9375 11.859375 15.769531 C 12.234375 15.601562 12.527344 15.3125 12.699219 14.972656 C 13.035156 14.292969 13 13.5 13 12.5 L 13 6.5 C 13 5.5 13.035156 4.707031 12.699219 4.027344 C 12.527344 3.6875 12.234375 3.398438 11.859375 3.230469 C 11.484375 3.0625 11.042969 3 10.5 3 L 5 3 Z M 5 4 L 10.5 4 C 10.957031 4 11.265625 4.0625 11.453125 4.144531 C 11.640625 4.226562 11.722656 4.3125 11.804688 4.472656 C 11.964844 4.792969 12 5.5 12 6.5 L 12 12.5 C 12 13.5 11.964844 14.207031 11.804688 14.527344 C 11.722656 14.6875 11.640625 14.773438 11.453125 14.855469 C 11.265625 14.9375 10.957031 15 10.5 15 L 6.5 15 C 6.042969 15 5.734375 14.9375 5.546875 14.855469 C 5.359375 14.773438 5.277344 14.6875 5.199219 14.527344 C 5.035156 14.207031 5 13.5 5 12.5 Z M 6 5 L 6 8 L 11 8 L 11 5 Z M 6 9 L 6 10 L 7 10 L 7 9 Z M 8 9 L 8 10 L 9 10 L 9 9 Z M 10 9 L 10 10 L 11 10 L 11 9 Z M 6 11 L 6 12 L 7 12 L 7 11 Z M 8 11 L 8 12 L 9 12 L 9 11 Z M 10 11 L 10 12 L 11 12 L 11 11 Z M 6 13 L 6 14 L 7 14 L 7 13 Z M 8 13 L 8 14 L 9 14 L 9 13 Z M 10 13 L 10 14 L 11 14 L 11 13 Z M 10 13 "/>
</g>
</svg>
