
<svg xmlns="http://www.w3.org/2000/svg" xmlns:xlink="http://www.w3.org/1999/xlink" width="16px" height="16px" viewBox="0 0 16 16" version="1.1">
<g id="surface1">
<path style=" stroke:none;fill-rule:nonzero;fill:#ff6666;fill-opacity:1;" d="M 3 0 L 3 4.027344 C 2.25 4.042969 1.589844 4.09375 1.0625 4.386719 C 0.6875 4.59375 0.390625 4.945312 0.226562 5.382812 C 0.0585938 5.820312 0 6.34375 0 7 L 0 10 C 0 10.65625 0.0585938 11.179688 0.226562 11.617188 C 0.390625 12.054688 0.6875 12.40625 1.0625 12.617188 C 1.34375 12.769531 1.660156 12.847656 2 12.902344 L 2 11.878906 C 1.8125 11.839844 1.652344 11.796875 1.546875 11.738281 C 1.363281 11.636719 1.257812 11.527344 1.160156 11.265625 C 1.0625 11.003906 1 10.59375 1 10 L 1 7 C 1 6.40625 1.0625 5.996094 1.160156 5.734375 C 1.257812 5.472656 1.363281 5.363281 1.546875 5.261719 C 1.910156 5.058594 2.742188 5.015625 4 5 L 12 5 C 13.257812 5.015625 14.085938 5.058594 14.453125 5.261719 C 14.636719 5.363281 14.742188 5.472656 14.839844 5.734375 C 14.9375 5.996094 15 6.40625 15 7 L 15 10 C 15 10.59375 14.9375 11.003906 14.839844 11.265625 C 14.742188 11.527344 14.636719 11.636719 14.453125 11.738281 C 14.34375 11.796875 14.1875 11.839844 14 11.878906 L 14 12.902344 C 14.339844 12.847656 14.65625 12.769531 14.9375 12.617188 C 15.3125 12.40625 15.609375 12.054688 15.777344 11.617188 C 15.941406 11.179688 16 10.65625 16 10 L 16 7 C 16 6.34375 15.941406 5.820312 15.777344 5.382812 C 15.609375 4.945312 15.3125 4.59375 14.9375 4.386719 C 14.410156 4.09375 13.75 4.042969 13 4.027344 L 13 0 Z M 4 1 L 12 1 L 12 4 L 4 4 Z M 13.5 6 C 13.222656 6 13 6.222656 13 6.5 C 13 6.777344 13.222656 7 13.5 7 C 13.777344 7 14 6.777344 14 6.5 C 14 6.222656 13.777344 6 13.5 6 Z M 3 10 L 3 16 L 13 16 L 13 10 L 12 10 L 12 15 L 4 15 L 4 10 Z M 5 11 L 5 12 L 11 12 L 11 11 Z M 5 13 L 5 14 L 11 14 L 11 13 Z M 5 13 "/>
</g>
</svg>
