
<svg xmlns="http://www.w3.org/2000/svg" xmlns:xlink="http://www.w3.org/1999/xlink" width="16px" height="16px" viewBox="0 0 16 16" version="1.1">
<g id="surface1">
<path style=" stroke:none;fill-rule:nonzero;fill:#ff6666;fill-opacity:1;" d="M 5.5 0 C 4.957031 0 4.515625 0.0625 4.140625 0.230469 C 3.765625 0.398438 3.472656 0.6875 3.304688 1.027344 C 2.964844 1.707031 3 2.5 3 3.5 L 3 12.5 C 3 13.5 2.964844 14.296875 3.304688 14.976562 C 3.472656 15.3125 3.765625 15.601562 4.140625 15.769531 C 4.515625 15.9375 4.957031 16 5.5 16 L 10.5 16 C 11.042969 16 11.484375 15.9375 11.859375 15.769531 C 12.234375 15.601562 12.527344 15.3125 12.699219 14.976562 C 13.035156 14.296875 13 13.5 13 12.5 L 13 3.5 C 13 2.5 13.035156 1.707031 12.699219 1.027344 C 12.527344 0.6875 12.234375 0.398438 11.859375 0.230469 C 11.484375 0.0625 11.042969 0 10.5 0 Z M 4.070312 2 L 11.929688 2 C 11.980469 2.375 12 2.871094 12 3.5 L 12 12.5 C 12 13.128906 11.980469 13.625 11.929688 14 L 4.070312 14 C 4.019531 13.625 4 13.128906 4 12.5 L 4 3.5 C 4 2.871094 4.019531 2.375 4.070312 2 Z M 4.070312 2 "/>
</g>
</svg>
