
<svg xmlns="http://www.w3.org/2000/svg" xmlns:xlink="http://www.w3.org/1999/xlink" width="16px" height="16px" viewBox="0 0 16 16" version="1.1">
<g id="surface1">
<path style=" stroke:none;fill-rule:nonzero;fill:#ff6666;fill-opacity:1;" d="M 3.476562 1.042969 C 1.074219 1.042969 0 1.917969 0 2.78125 L 0 13.914062 C 0 14.488281 0.46875 14.957031 1.042969 14.957031 L 14.957031 14.957031 C 15.53125 14.957031 16 14.488281 16 13.914062 L 16 2.78125 C 16 1.917969 14.925781 1.042969 12.523438 1.042969 Z M 3.128906 3.824219 L 9.042969 3.824219 L 9.042969 6.261719 L 3.128906 6.261719 Z M 12.347656 5.21875 C 13.199219 5.234375 13.878906 5.929688 13.878906 6.78125 C 13.878906 7.632812 13.199219 8.328125 12.347656 8.347656 C 11.496094 8.328125 10.816406 7.632812 10.816406 6.78125 C 10.816406 5.929688 11.496094 5.234375 12.347656 5.21875 Z M 12.347656 6.261719 C 12.058594 6.261719 11.824219 6.492188 11.824219 6.78125 C 11.824219 7.070312 12.058594 7.304688 12.347656 7.304688 C 12.636719 7.304688 12.871094 7.070312 12.871094 6.78125 C 12.871094 6.492188 12.636719 6.261719 12.347656 6.261719 Z M 7.476562 8 C 7.765625 8 8 8.234375 8 8.523438 C 8 8.808594 7.765625 9.042969 7.476562 9.042969 C 7.191406 9.042969 6.957031 8.808594 6.957031 8.523438 C 6.957031 8.234375 7.191406 8 7.476562 8 Z M 3.476562 11.128906 L 12.523438 11.128906 C 13.097656 11.128906 13.566406 11.597656 13.566406 12.175781 L 13.566406 14.261719 L 12.5 14.261719 C 12.511719 14.203125 12.523438 14.148438 12.523438 14.085938 L 12.523438 13.042969 C 12.523438 12.5625 12.132812 12.175781 11.652344 12.175781 C 11.171875 12.175781 10.78125 12.5625 10.78125 13.042969 L 10.78125 14.085938 C 10.78125 14.148438 10.792969 14.203125 10.804688 14.261719 L 10.066406 14.261719 C 10.078125 14.203125 10.085938 14.148438 10.085938 14.085938 L 10.085938 13.042969 C 10.085938 12.5625 9.695312 12.175781 9.21875 12.175781 C 8.738281 12.175781 8.347656 12.5625 8.347656 13.042969 L 8.347656 14.085938 C 8.347656 14.148438 8.355469 14.203125 8.371094 14.261719 L 7.632812 14.261719 C 7.644531 14.203125 7.652344 14.148438 7.652344 14.085938 L 7.652344 13.042969 C 7.652344 12.5625 7.261719 12.175781 6.78125 12.175781 C 6.304688 12.175781 5.914062 12.5625 5.914062 13.042969 L 5.914062 14.085938 C 5.914062 14.148438 5.921875 14.203125 5.933594 14.261719 L 5.195312 14.261719 C 5.207031 14.203125 5.21875 14.148438 5.21875 14.085938 L 5.21875 13.042969 C 5.21875 12.5625 4.828125 12.175781 4.347656 12.175781 C 3.867188 12.175781 3.480469 12.5625 3.476562 13.042969 L 3.476562 14.085938 C 3.476562 14.148438 3.488281 14.203125 3.5 14.261719 L 2.433594 14.261719 L 2.433594 12.175781 C 2.433594 11.597656 2.902344 11.128906 3.476562 11.128906 Z M 3.476562 11.128906 "/>
</g>
</svg>
