
<svg xmlns="http://www.w3.org/2000/svg" xmlns:xlink="http://www.w3.org/1999/xlink" width="16px" height="16px" viewBox="0 0 16 16" version="1.1">
<g id="surface1">
<path style=" stroke:none;fill-rule:nonzero;fill:#ff6666;fill-opacity:1;" d="M 12.230469 0.0078125 C 12.089844 0.0234375 11.960938 0.0859375 11.863281 0.179688 L 8 4.046875 L 5.980469 2.027344 C 5.863281 1.90625 5.707031 1.84375 5.539062 1.84375 C 5.375 1.84375 5.214844 1.90625 5.097656 2.027344 C 4.980469 2.144531 4.914062 2.300781 4.914062 2.46875 C 4.914062 2.632812 4.980469 2.792969 5.097656 2.910156 L 7.117188 4.929688 L 1.847656 4.929688 C 0.828125 4.929688 0.00390625 5.753906 0.00390625 6.773438 L 0.00390625 14.15625 C 0.00390625 15.175781 0.828125 16 1.847656 16 L 14.152344 16 C 15.171875 16 15.996094 15.175781 15.996094 14.15625 L 15.996094 6.773438 C 15.996094 5.753906 15.171875 4.929688 14.152344 4.929688 L 8.882812 4.929688 L 12.746094 1.066406 C 12.945312 0.882812 13 0.589844 12.878906 0.34375 C 12.761719 0.101562 12.496094 -0.0351562 12.230469 0.0078125 Z M 6.460938 6.160156 C 11.039062 6.160156 11.691406 6.171875 11.691406 10.464844 C 11.691406 14.757812 10.996094 14.769531 6.460938 14.769531 C 1.90625 14.769531 1.234375 14.722656 1.234375 10.464844 C 1.234375 6.203125 1.90625 6.160156 6.460938 6.160156 Z M 13.84375 7.964844 C 14.375 7.964844 14.804688 8.394531 14.804688 8.925781 C 14.804688 9.460938 14.375 9.886719 13.84375 9.886719 C 13.589844 9.890625 13.34375 9.789062 13.160156 9.609375 C 12.980469 9.425781 12.882812 9.183594 12.882812 8.925781 C 12.882812 8.394531 13.308594 7.964844 13.84375 7.964844 Z M 13.84375 10.425781 C 14.375 10.425781 14.804688 10.855469 14.804688 11.386719 C 14.804688 11.921875 14.375 12.347656 13.84375 12.347656 C 13.589844 12.347656 13.34375 12.246094 13.160156 12.066406 C 12.980469 11.886719 12.882812 11.640625 12.882812 11.386719 C 12.882812 10.855469 13.308594 10.425781 13.84375 10.425781 Z M 13.84375 10.425781 "/>
</g>
</svg>
