
<svg xmlns="http://www.w3.org/2000/svg" xmlns:xlink="http://www.w3.org/1999/xlink" width="16px" height="16px" viewBox="0 0 16 16" version="1.1">
<g id="surface1">
<path style=" stroke:none;fill-rule:nonzero;fill:#ff6666;fill-opacity:1;" d="M 3.996094 1 C 2.734375 1.015625 1.816406 0.96875 1.0625 1.386719 C 0.6875 1.59375 0.390625 1.945312 0.226562 2.382812 C 0.0585938 2.820312 0 3.34375 0 4 L 0 10 C 0 10.65625 0.0585938 11.179688 0.226562 11.617188 C 0.390625 12.054688 0.6875 12.40625 1.0625 12.617188 C 1.816406 13.03125 2.734375 12.984375 3.996094 13 L 12.007812 13 C 13.265625 12.984375 14.183594 13.03125 14.9375 12.617188 C 15.3125 12.40625 15.609375 12.054688 15.777344 11.617188 C 15.941406 11.179688 16 10.65625 16 10 L 16 4 C 16 3.34375 15.941406 2.820312 15.777344 2.382812 C 15.609375 1.945312 15.3125 1.59375 14.9375 1.386719 C 14.183594 0.96875 13.265625 1.015625 12.007812 1 Z M 4 2 L 12 2 C 13.257812 2.015625 14.085938 2.058594 14.453125 2.261719 C 14.636719 2.363281 14.742188 2.472656 14.839844 2.734375 C 14.9375 2.996094 15 3.40625 15 4 L 15 10 C 15 10.59375 14.9375 11.003906 14.839844 11.265625 C 14.742188 11.527344 14.636719 11.636719 14.453125 11.738281 C 14.085938 11.941406 13.257812 11.984375 12 12 L 4 12 C 2.742188 11.984375 1.910156 11.941406 1.546875 11.738281 C 1.363281 11.636719 1.257812 11.527344 1.160156 11.265625 C 1.0625 11.003906 1 10.59375 1 10 L 1 4 C 1 3.40625 1.0625 2.996094 1.160156 2.734375 C 1.257812 2.472656 1.363281 2.363281 1.546875 2.261719 C 1.910156 2.058594 2.742188 2.015625 4 2 Z M 4 2 "/>
<path style=" stroke:none;fill-rule:nonzero;fill:#ff6666;fill-opacity:1;" d="M 6 12 L 10 12 L 10 13.5 C 10 15 10.5 15 11.5 15 L 12 15 L 12 16 L 4 16 L 4 15 L 4.5 15 C 5.5 15 6 15 6 13.5 Z M 6 12 "/>
</g>
</svg>
