<?xml version="1.0" encoding="UTF-8" standalone="no"?>
<svg
   viewBox="0 0 16 16"
   version="1.1"
   id="svg1"
   sodipodi:docname="compass.svg"
   inkscape:version="1.3.2 (091e20ef0f, 2023-11-25)"
   xmlns:inkscape="http://www.inkscape.org/namespaces/inkscape"
   xmlns:sodipodi="http://sodipodi.sourceforge.net/DTD/sodipodi-0.dtd"
   xmlns:xlink="http://www.w3.org/1999/xlink"
   xmlns="http://www.w3.org/2000/svg"
   xmlns:svg="http://www.w3.org/2000/svg">
  <sodipodi:namedview
     id="namedview1"
     pagecolor="#ffffff"
     bordercolor="#999999"
     borderopacity="1"
     inkscape:showpageshadow="2"
     inkscape:pageopacity="0"
     inkscape:pagecheckerboard="0"
     inkscape:deskcolor="#d1d1d1"
     inkscape:zoom="11.90625"
     inkscape:cx="3.6115486"
     inkscape:cy="20.325459"
     inkscape:window-width="1920"
     inkscape:window-height="994"
     inkscape:window-x="0"
     inkscape:window-y="0"
     inkscape:window-maximized="1"
     inkscape:current-layer="svg1" />
  <defs
     id="defs3051">
    <style
       type="text/css"
       id="current-color-scheme">
            .ColorScheme-Text {
                color:#fcfcfc;
            }
        </style>
    <linearGradient
       inkscape:collect="always"
       xlink:href="#linearGradient856"
       id="linearGradient986"
       x1="13.41916"
       y1="6.9373507"
       x2="16.706158"
       y2="6.9373507"
       gradientUnits="userSpaceOnUse"
       gradientTransform="matrix(0.70000171,0,0,0.70000171,0.29998453,0.29996549)" />
    <linearGradient
       inkscape:collect="always"
       id="linearGradient856">
      <stop
         style="stop-color:#00d4aa;stop-opacity:1"
         offset="0"
         id="stop852" />
      <stop
         style="stop-color:#00ccff;stop-opacity:1"
         offset="1"
         id="stop854" />
    </linearGradient>
    <linearGradient
       inkscape:collect="always"
       xlink:href="#linearGradient856"
       id="linearGradient994"
       x1="13.41916"
       y1="15.062609"
       x2="16.706156"
       y2="15.062609"
       gradientUnits="userSpaceOnUse"
       gradientTransform="matrix(0.70000171,0,0,0.70000171,0.29998453,0.29996549)" />
    <linearGradient
       inkscape:collect="always"
       xlink:href="#linearGradient856"
       id="linearGradient978"
       x1="5.2938032"
       y1="6.9373617"
       x2="8.580924"
       y2="6.9373617"
       gradientUnits="userSpaceOnUse"
       gradientTransform="matrix(0.70000171,0,0,0.70000171,0.29998453,0.29996549)" />
    <linearGradient
       inkscape:collect="always"
       xlink:href="#linearGradient856"
       id="linearGradient970"
       x1="5.2938027"
       y1="15.062615"
       x2="8.5809422"
       y2="15.062615"
       gradientUnits="userSpaceOnUse"
       gradientTransform="matrix(0.70000171,0,0,0.70000171,0.29998453,0.29996549)" />
    <linearGradient
       inkscape:collect="always"
       xlink:href="#linearGradient856"
       id="linearGradient946"
       x1="12.005357"
       y1="5.5224042"
       x2="20.949631"
       y2="5.5224042"
       gradientUnits="userSpaceOnUse"
       gradientTransform="matrix(0.70000171,0,0,0.70000171,0.29998453,0.29996549)" />
    <linearGradient
       inkscape:collect="always"
       xlink:href="#linearGradient856"
       id="linearGradient954"
       x1="12.005467"
       y1="16.477547"
       x2="20.949633"
       y2="16.477547"
       gradientUnits="userSpaceOnUse"
       gradientTransform="matrix(0.70000171,0,0,0.70000171,0.29998453,0.29996549)" />
    <linearGradient
       inkscape:collect="always"
       xlink:href="#linearGradient856"
       id="linearGradient938"
       x1="1.050347"
       y1="5.5224247"
       x2="9.9943991"
       y2="5.5224247"
       gradientUnits="userSpaceOnUse"
       gradientTransform="matrix(0.70000171,0,0,0.70000171,0.29998453,0.29996549)" />
    <linearGradient
       inkscape:collect="always"
       xlink:href="#linearGradient856"
       id="linearGradient962"
       x1="1.05035"
       y1="16.477547"
       x2="9.9944048"
       y2="16.477547"
       gradientUnits="userSpaceOnUse"
       gradientTransform="matrix(0.70000171,0,0,0.70000171,0.29998453,0.29996549)" />
    <linearGradient
       inkscape:collect="always"
       xlink:href="#linearGradient856"
       id="linearGradient930"
       x1="0.99999994"
       y1="10.999999"
       x2="20.999989"
       y2="10.999999"
       gradientUnits="userSpaceOnUse"
       gradientTransform="matrix(0.70000171,0,0,0.70000171,0.29998453,0.29996549)" />
  </defs>
  <path
     style="clip-rule:evenodd;fill:#ffffc1;fill-opacity:0;fill-rule:evenodd;stroke-width:0.688964;stroke-linejoin:round;stroke-miterlimit:1.41421"
     d="M -7,23 V 45 H 15 V 23 Z"
     id="rect817-5"
     inkscape:connector-curvature="0" />
  <path
     d="m 11.872989,4.0203605 -2.1795694,1.594455 0.1137679,0.578061 0.5779595,0.113674 1.594465,-2.179597 a 0.07629707,0.07629707 0 0 0 -0.106626,-0.106529 z"
     id="path4-36-5"
     style="fill:url(#linearGradient986);fill-opacity:1;stroke-width:0.155551" />
  <path
     d="M 11.979606,11.872967 10.385142,9.6933395 9.8071817,9.8070005 9.693414,10.385098 l 2.179569,1.594431 a 0.07629227,0.07629227 0 0 0 0.106627,-0.106514 z"
     id="path6-7-3"
     style="fill:url(#linearGradient994);fill-opacity:1;stroke-width:0.155551" />
  <path
     d="M 4.0203811,4.1270115 5.6148589,6.3066425 6.1929135,6.1929805 6.3066392,5.6149475 4.1270084,4.0204605 A 0.07630004,0.07630004 0 0 0 4.0203625,4.1269885 Z"
     id="path8-5"
     style="fill:url(#linearGradient978);fill-opacity:1;stroke-width:0.155551" />
  <path
     d="M 4.1270147,11.979594 6.306658,10.385102 6.1929074,9.8070695 5.6148686,9.6933955 4.0203731,11.873041 a 0.07629547,0.07629547 0 0 0 0.1066491,0.106509 z"
     id="path10-6"
     style="fill:url(#linearGradient970);fill-opacity:1;stroke-width:0.155551" />
  <path
     d="m 14.161161,7.1380095 0.803602,0.158134 A 7.0019336,7.0019336 0 0 0 8.7037549,1.0351865 l 0.158143,0.803648 a 6.2340762,6.2340762 0 0 1 5.2992671,5.299181 z"
     id="path12-2"
     style="fill:url(#linearGradient946);fill-opacity:1;stroke-width:0.155551" />
  <path
     d="M 8.7038323,14.964761 A 7.0018984,7.0018984 0 0 0 14.964764,8.7038015 l -0.803601,0.158147 A 6.234108,6.234108 0 0 1 8.8619693,14.161133 Z"
     id="path14-9"
     style="fill:url(#linearGradient954);fill-opacity:1;stroke-width:0.155551" />
  <path
     d="M 7.1379795,1.8388325 7.2960763,1.0352155 A 7.0019099,7.0019099 0 0 0 1.0352229,7.2961645 L 1.8388228,7.1380175 A 6.2340888,6.2340888 0 0 1 7.1379755,1.8388315 Z"
     id="path16-1"
     style="fill:url(#linearGradient938);fill-opacity:1;stroke-width:0.155551" />
  <path
     d="M 1.838831,8.8619485 1.0352299,8.7038015 A 7.0019047,7.0019047 0 0 0 7.2960853,14.964761 L 7.1379837,14.161133 A 6.2340888,6.2340888 0 0 1 1.838831,8.8619485 Z"
     id="path18-2"
     style="fill:url(#linearGradient962);fill-opacity:1;stroke-width:0.155551" />
  <path
     d="m 1.061545,8.0748505 5.735073,1.128511 1.1285235,5.7350865 a 0.07629398,0.07629398 0 0 0 0.149712,0 L 9.2033721,9.2033615 14.938445,8.0748505 a 0.07629227,0.07629227 0 0 0 0,-0.14971 L 9.2033736,6.7966435 8.074856,1.0615515 a 0.07629398,0.07629398 0 0 0 -0.149712,0 l -1.1285231,5.735092 -5.7350734,1.128498 a 0.07629398,0.07629398 0 0 0 0,0.14971 z m 6.1813797,-0.196071 a 0.76671089,0.76671089 0 1 1 0.8781932,0.878295 0.76996708,0.76996708 0 0 1 -0.8781932,-0.878295 z"
     id="path20-7"
     style="fill:url(#linearGradient930);fill-opacity:1;stroke-width:0.155551" />
</svg>
