<?xml version="1.0" encoding="UTF-8" standalone="no"?>
<svg
   viewBox="0 0 32 32"
   version="1.1"
   id="svg1"
   sodipodi:docname="media-mount.svg"
   width="32"
   height="32"
   inkscape:version="1.3.2 (091e20ef0f, 2023-11-25)"
   xmlns:inkscape="http://www.inkscape.org/namespaces/inkscape"
   xmlns:sodipodi="http://sodipodi.sourceforge.net/DTD/sodipodi-0.dtd"
   xmlns="http://www.w3.org/2000/svg"
   xmlns:svg="http://www.w3.org/2000/svg">
  <defs
     id="defs1" />
  <sodipodi:namedview
     id="namedview1"
     pagecolor="#bebebe"
     bordercolor="#999999"
     borderopacity="1"
     inkscape:showpageshadow="2"
     inkscape:pageopacity="0"
     inkscape:pagecheckerboard="0"
     inkscape:deskcolor="#d1d1d1"
     showguides="true"
     inkscape:zoom="16.83798"
     inkscape:cx="16.094567"
     inkscape:cy="15.797619"
     inkscape:window-width="1920"
     inkscape:window-height="994"
     inkscape:window-x="0"
     inkscape:window-y="0"
     inkscape:window-maximized="1"
     inkscape:current-layer="svg1" />
  <style
     type="text/css"
     id="current-color-scheme">
        .ColorScheme-Text {
            color:#fcfcfc;
        }
    </style>
  <path
     style="opacity:0.00100002;fill:#d6dbf1;fill-opacity:1"
     d="M 0,32 H 32.000001 V 0 H 0 Z"
     id="path87" />
  <path
     d="M 7.5147,24.485253 C 9.78118,26.751806 12.7949,28 16,28 19.2051,28 22.21883,26.751806 24.4851,24.485253 26.75179,22.218701 28,19.205226 28,15.999999 28,12.794773 26.75179,9.781305 24.4851,7.514748 22.21883,5.248337 19.2051,4.000001 16,4.000001 c -3.2053,0 -6.21882,1.248336 -8.4853,3.514747 C 5.24836,9.781306 4,12.794773 4,15.999999 c 0,3.205226 1.24836,6.21885 3.5147,8.485254 z M 8.885,8.185351 C 11.09452,6.311145 12.8765,5.425127 16,5.448 c 3.31598,0.02428 4.54595,0.647315 7.115,2.738 2.08741,2.087255 3.437,4.862043 3.437,7.813998 0,2.952096 -1.39242,6.090431 -3.437,7.815001 -2.29379,2.015596 -4.20568,2.714962 -7.115,2.737 -2.95186,0.02236 -4.92759,-0.91947 -7.115,-2.737205 -2.08737,-2.087403 -3.437,-4.8627 -3.437,-7.814796 0,-2.951955 1.34963,-5.727395 3.437,-7.814647 z"
     id="path2-36-912-3-3-35-3-75"
     style="fill:#d6dbf1;fill-opacity:1;stroke-width:0.0374999"
     sodipodi:nodetypes="cscscscsccscscscsc" />
  <path
     d="m 21.02184,13.415197 h -9.92179 c -2.53088,-0.0095 -2.53088,-2.759677 0,-2.769197 h 9.92179 c 2.53088,0.0095 2.53088,2.759677 0,2.769197 z m -9.92179,-0.55384 z"
     id="path8-6-7-36-2"
     style="fill:#d6dbf1;fill-opacity:1;stroke-width:0.32508"
     sodipodi:nodetypes="cccccccccc" />
  <path
     d="m 16.05018,22.644196 c -0.19226,3.3e-4 -0.37617,-0.076 -0.512,-0.21206 l -5.33844,-5.932059 c -0.43914,-0.58054 -0.59774,-2 0.89554,-2.00052 h 4.60672 4 c 0.55855,0 1.63231,-0.12313 2.12836,0.371 v 0 c 0.49552,0.49547 0.49552,1.29886 0,1.79433 l -5.26718,5.767249 c -0.13583,0.13608 -0.32073,0.21239 -0.513,0.21206 z"
     id="path4-3-3-9-9"
     style="fill:#d6dbf1;fill-opacity:1;stroke-width:0.36249"
     sodipodi:nodetypes="ccccccssccc" />
</svg>
