<?xml version="1.0" encoding="UTF-8" standalone="no"?>
<svg
   viewBox="0 0 16 16"
   version="1.1"
   id="svg1"
   sodipodi:docname="search-symbolic.svg"
   width="16"
   height="16"
   inkscape:version="1.3.2 (091e20ef0f, 2023-11-25)"
   xmlns:inkscape="http://www.inkscape.org/namespaces/inkscape"
   xmlns:sodipodi="http://sodipodi.sourceforge.net/DTD/sodipodi-0.dtd"
   xmlns="http://www.w3.org/2000/svg"
   xmlns:svg="http://www.w3.org/2000/svg">
  <sodipodi:namedview
     id="namedview1"
     pagecolor="#ffffff"
     bordercolor="#999999"
     borderopacity="1"
     inkscape:showpageshadow="2"
     inkscape:pageopacity="0"
     inkscape:pagecheckerboard="0"
     inkscape:deskcolor="#d1d1d1"
     inkscape:zoom="11.9375"
     inkscape:cx="10.973822"
     inkscape:cy="17.675393"
     inkscape:window-width="1920"
     inkscape:window-height="996"
     inkscape:window-x="0"
     inkscape:window-y="0"
     inkscape:window-maximized="1"
     inkscape:current-layer="svg1"
     showgrid="true">
    <inkscape:grid
       id="grid1"
       units="px"
       originx="0"
       originy="0"
       spacingx="1"
       spacingy="1"
       empcolor="#0099e5"
       empopacity="0.30196078"
       color="#0099e5"
       opacity="0.14901961"
       empspacing="5"
       dotted="false"
       gridanglex="30"
       gridanglez="30"
       visible="true" />
  </sodipodi:namedview>
  <defs
     id="defs3051">
    <style
       type="text/css"
       id="current-color-scheme">.ColorScheme-Text { color: #fcfcfc; } </style>
  </defs>
  <g
     id="22-22-search"
     style="fill:#c8e0e7;fill-opacity:1"
     transform="translate(-32.000002,-10.000001)">
    <path
       style="opacity:0.00100002;fill:#c8e0e7;fill-opacity:1;stroke-width:0.999999"
       d="m 31.999998,10.000001 v 16 h 16.000001 v -16 z"
       id="path2" />
    <path
       d="m 41.693474,12.000001 c -2.37846,2.29e-4 -4.30607,1.927743 -4.306304,4.306043 9.6e-5,1.048178 0.375276,2.008131 0.99772,2.754783 l -0.883407,0.883362 c -0.0036,0.0034 -0.0048,0.0073 -0.0071,0.01106 -0.435983,-0.20613 -0.969846,-0.14013 -1.329515,0.219471 l -1.821362,1.82051 c -0.458005,0.457995 -0.458005,1.202674 0,1.660646 0.458863,0.458836 1.201874,0.458836 1.660724,0 l 1.82132,-1.820493 c 0.360604,-0.360587 0.426428,-0.894306 0.219108,-1.330434 0.0035,-0.0031 0.0069,-0.0038 0.01062,-0.0068 l 0.883412,-0.883363 c 0.74669,0.622383 1.706699,0.997526 2.754932,0.997621 2.378467,-2.35e-4 4.306052,-1.927741 4.306284,-4.305998 -2.14e-4,-2.378328 -1.927805,-4.305839 -4.306255,-4.306072 z m 0,7.046223 c -1.512209,-6.76e-4 -2.739648,-1.228081 -2.740378,-2.740161 0.0014,-1.512121 1.228146,-2.739541 2.740378,-2.740227 1.512203,0.0014 2.739644,1.228084 2.740371,2.740227 -0.0015,1.51208 -1.228167,2.739458 -2.740371,2.740161 z"
       id="path2-3-6"
       style="fill:#c8e0e7;fill-opacity:1;stroke-width:0.0312512" />
  </g>
</svg>
