<?xml version="1.0" encoding="UTF-8" standalone="no"?>
<svg
   viewBox="0 0 16 16"
   version="1.1"
   id="svg1"
   sodipodi:docname="tools-report-bug.svg"
   width="16"
   height="16"
   inkscape:version="1.3.2 (091e20ef0f, 2023-11-25)"
   xmlns:inkscape="http://www.inkscape.org/namespaces/inkscape"
   xmlns:sodipodi="http://sodipodi.sourceforge.net/DTD/sodipodi-0.dtd"
   xmlns="http://www.w3.org/2000/svg"
   xmlns:svg="http://www.w3.org/2000/svg">
  <sodipodi:namedview
     id="namedview1"
     pagecolor="#ffffff"
     bordercolor="#999999"
     borderopacity="1"
     inkscape:showpageshadow="2"
     inkscape:pageopacity="0"
     inkscape:pagecheckerboard="0"
     inkscape:deskcolor="#d1d1d1"
     inkscape:zoom="16.83798"
     inkscape:cx="6.0577337"
     inkscape:cy="5.9389546"
     inkscape:window-width="1920"
     inkscape:window-height="994"
     inkscape:window-x="0"
     inkscape:window-y="0"
     inkscape:window-maximized="1"
     inkscape:current-layer="svg1" />
  <defs
     id="defs3051">
    <style
       type="text/css"
       id="current-color-scheme">.ColorScheme-Text { color: #fcfcfc; } </style>
  </defs>
  <path
     id="path9"
     d="M 3.6e-7,0 V 16 H 16 V 0 Z"
     style="fill:none;stroke-width:0.727273" />
  <path
     style="color:#d5c289;fill:#ff557f;fill-opacity:1;stroke-width:0.75"
     class="ColorScheme-Text"
     d="M 8.0000009,2 C 4.6820005,2 2.0000006,4.682 2.0000006,8.0000003 2.0000006,11.318001 4.6820005,14 8.0000009,14 11.317999,14 14,11.318001 14,8.0000003 14,4.682 11.317999,2 8.0000009,2 Z m 0,0.75 C 10.902506,2.75 13.25,5.0975004 13.25,8.0000003 13.25,10.902509 10.902506,13.25 8.0000009,13.25 5.0975074,13.25 2.7500006,10.902509 2.7500006,8.0000003 2.7500006,5.0975004 5.0975074,2.75 8.0000009,2.75 Z m 0.5625069,4.2892526 v 0 0 0 0 0 c 0,0 -0.025462,0.006 0,0 z M 7.9767471,10.414255 Z"
     id="path58-3"
     sodipodi:nodetypes="ssssssssssccccccccccccccccc" />
  <path
     style="fill:#ff557f;fill-opacity:1;stroke-width:0.500002"
     class="ColorScheme-Text"
     d="m 6.0061657,4.4999999 a 0.25000001,0.25000001 0 0 0 -0.25,0.2500004 A 0.25000001,0.25000001 0 0 0 6.0061657,5 v 0.00501 a 0.94300003,1.0835001 0 0 1 0.7400003,0.5550001 2.0000001,2.5000001 0 0 0 -0.6350003,1.1349996 3.0150003,2.5000001 0 0 0 0.00998,0.00502 2.682,2.682 0 0 0 -1.3749972,1.3550041 c -0.5999923,1.320013 -0.064994,2.8500132 1.190008,3.4250132 a 0.24950001,0.24950001 0 0 0 0.33,-0.125 l 0.4449999,-0.980001 a 2.0000001,2.625 0 0 0 1.2950034,0.62495 2.0000001,2.625 0 0 0 1.29,-0.624998 l 0.4499999,0.979997 c 0.054997,0.125001 0.2050003,0.18 0.3300013,0.12 1.255,-0.570001 1.789999,-2.0999986 1.189999,-3.4249981 a 2.6825001,2.6825001 0 0 0 -1.375,-1.3500002 3.0150003,2.5000001 0 0 0 0.005,-0.00502 2.0000001,2.5000001 0 0 0 -0.6350011,-1.1349997 0.94300003,1.0835001 0 0 1 0.7450001,-0.555 v -0.00495 a 0.25000001,0.25000001 0 0 0 0.250046,-0.2500058 0.25000001,0.25000001 0 0 0 -0.250002,-0.2500006 0.25000001,0.25000001 0 0 0 -0.085,0.015 1.443,1.5835001 0 0 0 -1.055012,0.7300052 2.0000001,2.5000001 0 0 0 -0.860025,-0.245 2.0000001,2.5000001 0 0 0 -0.8600004,0.2499996 1.443,1.5835001 0 0 0 -1.0549996,-0.7349999 0.25000001,0.25000001 0 0 0 -0.085,-0.015 z M 6.781166,7.0300007 a 3.0150003,2.5000001 0 0 0 0.8149996,0.195 l -1.215,2.6749991 L 5.926166,10.895 C 5.0861661,10.364999 4.756166,9.2450004 5.2011657,8.2600007 A 2.1475001,2.1475001 0 0 1 6.2761657,7.185 C 6.3161627,7.164998 6.3611667,7.149997 6.4061661,7.134998 a 2.0750001,2.0750001 0 0 1 0.3399999,-0.1 z m 2.4499996,0 0.024996,0.00501 c 0.135,0.024996 0.27,0.065004 0.4,0.1149996 0.024997,0.00998 0.045,0.020003 0.069996,0.03 a 2.148,2.148 0 0 1 1.0849974,1.080005 c 0.445007,0.9849976 0.115007,2.1049977 -0.724992,2.6349957 L 9.6311656,9.8950218 8.4161653,7.2250211 a 3.0150003,2.5000001 0 0 0 0.8149996,-0.195 z"
     id="path58-5-6" />
</svg>
