<?xml version="1.0" encoding="UTF-8" standalone="no"?>
<svg
   width="22"
   height="22"
   version="1.1"
   id="svg1"
   sodipodi:docname="klipper-symbolic.svg"
   inkscape:version="1.3.2 (091e20ef0f, 2023-11-25)"
   xmlns:inkscape="http://www.inkscape.org/namespaces/inkscape"
   xmlns:sodipodi="http://sodipodi.sourceforge.net/DTD/sodipodi-0.dtd"
   xmlns="http://www.w3.org/2000/svg"
   xmlns:svg="http://www.w3.org/2000/svg">
  <defs
     id="defs1" />
  <sodipodi:namedview
     id="namedview1"
     pagecolor="#ffffff"
     bordercolor="#999999"
     borderopacity="1"
     inkscape:showpageshadow="2"
     inkscape:pageopacity="0"
     inkscape:pagecheckerboard="0"
     inkscape:deskcolor="#d1d1d1"
     inkscape:zoom="8.6590909"
     inkscape:cx="10.855643"
     inkscape:cy="11.086614"
     inkscape:window-width="1920"
     inkscape:window-height="994"
     inkscape:window-x="0"
     inkscape:window-y="0"
     inkscape:window-maximized="1"
     inkscape:current-layer="svg1" />
  <style
     type="text/css"
     id="current-color-scheme">
      .ColorScheme-Text {
        color:#fcfcfc;
      }
      .ColorScheme-Background {
        color:#eff0f1;
      }
      .ColorScheme-Highlight {
        color:#3daee9;
      }
      .ColorScheme-ViewText {
        color:#31363b;
      }
      .ColorScheme-ViewBackground {
        color:#fcfcfc;
      }
      .ColorScheme-ViewHover {
        color:#93cee9;
      }
      .ColorScheme-ViewFocus{
        color:#3daee9;
      }
      .ColorScheme-ButtonText {
        color:#31363b;
      }
      .ColorScheme-ButtonBackground {
        color:#eff0f1;
      }
      .ColorScheme-ButtonHover {
        color:#93cee9;
      }
      .ColorScheme-ButtonFocus{
        color:#3daee9;
      }
      </style>
  <g
     id="22-22-klipper-9">
    <rect
       style="opacity:0.00100002"
       width="22"
       height="22"
       x="0"
       y="0"
       id="rect2" />
    <path
       fill-rule="evenodd"
       clip-rule="evenodd"
       d="m 9.5004993,9.999876 h 5.0002497 c 0.276374,0 0.50025,0.223625 0.50025,0.5 0,0.276375 -0.223876,0.500125 -0.50025,0.500125 H 9.5004993 c -0.2758753,0 -0.5001253,-0.22375 -0.5001253,-0.500125 0,-0.276375 0.22425,-0.5 0.5001253,-0.5 z m 0,3.999875 h 5.0002497 c 0.276374,0 0.50025,0.224374 0.50025,0.50025 C 15.000999,14.776375 14.777123,15 14.500749,15 H 9.5004993 C 9.224624,15 9.000374,14.776375 9.000374,14.500001 c 0,-0.275876 0.22425,-0.50025 0.5001253,-0.50025 z m 0,-1.99975 h 5.0002497 c 0.276374,0 0.50025,0.223625 0.50025,0.5 0,0.275874 -0.223876,0.4995 -0.50025,0.4995 H 9.5004993 c -0.2758753,0 -0.5001253,-0.223626 -0.5001253,-0.4995 0,-0.276375 0.22425,-0.5 0.5001253,-0.5 z M 7.5007496,9.999876 c 0.2757499,0 0.4999999,0.223625 0.4999999,0.5 0,0.276375 -0.22425,0.500125 -0.4999999,0.500125 -0.2765,0 -0.5001253,-0.22375 -0.5001253,-0.500125 0,-0.276375 0.2236253,-0.5 0.5001253,-0.5 z m 0,3.999875 c 0.2757499,0 0.4999999,0.224374 0.4999999,0.50025 0,0.276374 -0.22425,0.499999 -0.4999999,0.499999 -0.2765,0 -0.5001253,-0.223625 -0.5001253,-0.499999 0,-0.275876 0.2236253,-0.50025 0.5001253,-0.50025 z m 0,-1.99975 c 0.2757499,0 0.4999999,0.223625 0.4999999,0.5 0,0.275874 -0.22425,0.4995 -0.4999999,0.4995 -0.2765,0 -0.5001253,-0.223626 -0.5001253,-0.4995 0,-0.276375 0.2236253,-0.5 0.5001253,-0.5 z M 16.001217,19 H 6.0004997 C 4.8959999,19 4,18.1045 4,17 V 7.000126 C 4,5.895158 4.8959999,4.999752 6.0004997,4.999752 h 0.8358126 c 0.1054687,0 0.1956873,-0.06494 0.2321873,-0.156875 5e-4,-0.0023 0.00327,-0.0062 0.00719,-0.01185 C 7.2489082,4.347277 7.7075335,3.999622 8.2508461,3.999622 H 9.2706233 C 9.617062,3.402719 10.261374,3 11.000749,3 c 0.7395,0 1.383531,0.402719 1.730219,0.999625 h 0.769781 c 0.276374,0 0.5,0.224375 0.5,0.500125 0,0.276375 -0.223626,0.5 -0.5,0.5 h -0.773187 c -0.362782,0 -0.678969,-0.19275 -0.855469,-0.482063 -0.171157,-0.30725 -0.495125,-0.518062 -0.871344,-0.518062 -0.375,0 -0.6985,0.209719 -0.8695,0.515875 -5e-4,5e-4 -0.0011,5e-4 -0.0011,0.0011 C 9.955117,4.806382 9.6372732,4.999756 9.2740859,4.999756 H 8.5004014 c -0.2164373,0 -0.3991559,0.139032 -0.4688746,0.331907 -5e-4,0.0011 -0.0022,0.0023 -0.00267,0.0034 -0.137438,0.387343 -0.507438,0.664781 -0.9423753,0.664781 h -0.085813 -0.25 -0.7501246 c -0.5523752,0 -1.0002498,0.448 -1.0002498,1.00025 V 17 c 0,0.55225 0.4478746,0.99975 1.0002498,0.99975 H 16.001265 c 0.552,0 1.00025,-0.4475 1.00025,-0.99975 V 7.000126 c 0,-0.55225 -0.44825,-1.00025 -1.00025,-1.00025 h -0.75025 c -0.137937,0 -0.25,0.112188 -0.25,0.250126 v 0.5 c 0,0.690187 -0.559562,1.250125 -1.25025,1.250125 H 8.2509221 c -0.3454686,0 -0.6577185,-0.140126 -0.8841559,-0.366563 l 0.0022,-0.0022 C 7.2691872,7.531514 7.2075309,7.394175 7.2075309,7.242207 c 0,-0.304313 0.2465933,-0.551031 0.5510313,-0.551031 0.153562,0 0.29225,0.06335 0.3919686,0.164781 0.089719,0.08863 0.2136247,0.144156 0.3498433,0.144156 h 5.0003749 c 0.276374,0 0.5,-0.224375 0.5,-0.500125 V 5.999863 c 0,-0.552125 0.448,-1.000125 1.00025,-1.000125 h 1.000249 c 1.1045,0 1.99975,0.895376 1.99975,2.000375 V 17 c 0,1.1045 -0.895281,2 -1.999781,2 z"
       id="path2-3"
       style="color:#d6dbf1;fill:currentColor;fill-opacity:1;stroke-width:0.03125"
       class="ColorScheme-Text" />
  </g>
</svg>
