<?xml version='1.0' encoding='UTF-8'?>
<svg xmlns:inkscape="http://www.inkscape.org/namespaces/inkscape" xmlns:sodipodi="http://sodipodi.sourceforge.net/DTD/sodipodi-0.dtd" xmlns:xlink="http://www.w3.org/1999/xlink" xmlns="http://www.w3.org/2000/svg" xmlns:svg="http://www.w3.org/2000/svg" xmlns:rdf="http://www.w3.org/1999/02/22-rdf-syntax-ns#" xmlns:cc="http://creativecommons.org/ns#" xmlns:dc="http://purl.org/dc/elements/1.1/" width="64" height="64" version="1.1" id="svg73" sodipodi:docname="filetype Template.svg" inkscape:version="1.4 (e7c3feb100, 2024-10-09)">
  <metadata id="metadata77">
    <rdf:RDF>
      <cc:Work rdf:about="">
        <dc:format>image/svg+xml</dc:format>
        <dc:type rdf:resource="http://purl.org/dc/dcmitype/StillImage"/>
      </cc:Work>
    </rdf:RDF>
  </metadata>
  <sodipodi:namedview pagecolor="#f5f7fa" bordercolor="#666666" borderopacity="1" objecttolerance="10" gridtolerance="10" guidetolerance="10" inkscape:pageopacity="0" inkscape:pageshadow="2" inkscape:window-width="1183" inkscape:window-height="973" id="namedview75" showgrid="false" inkscape:zoom="4.4470387" inkscape:cx="19.001409" inkscape:cy="8.2077092" inkscape:window-x="35" inkscape:window-y="32" inkscape:window-maximized="0" inkscape:current-layer="g877" inkscape:document-rotation="0" inkscape:pagecheckerboard="0" inkscape:showpageshadow="2" inkscape:deskcolor="#d1d1d1"/>
  <defs id="defs29">
    <style id="current-color-scheme" type="text/css">.ColorScheme-Text {color:#d8dee9} .ColorScheme-Highlight {color:#3b4252}</style></defs>
  <g id="g877" transform="matrix(1.1,0,0,1.1,-3.1845928,-3.2065454)" style="">
    <path style="fill:#f5f7fa;stroke-width:0.204426;fill-opacity:1" d="" id="path3"/>
    <rect style="fill:#000000;stroke:none;stroke-width:0.539739;stroke-dasharray:none;filter:url(#filter1283)" id="rect246-1" width="14.572964" height="14.572964" x="1.1932471" y="1.2138842" rx="2.1589575" ry="2.1589575" transform="matrix(2.4606127,0,0,3.1451146,11.16612,5.3876877)"/>
    <rect style="fill:#000000;stroke:url(#linearGradient885);stroke-width:1.63561;stroke-dasharray:none" id="rect246" width="35.155312" height="44.93494" x="14.453793" y="9.6548424" rx="5.2081943" ry="5.181818"/>
    <rect style="fill:currentColor;fill-opacity:1;stroke:none;stroke-width:1.41125;stroke-dasharray:none" id="rect246-5" width="33.483681" height="43.361137" x="15.289605" y="10.441746" rx="4.2572727" ry="4.2572727" class="ColorScheme-Text"/>
  <path d="m 31.828178,17.195038 c -0.673911,-0.03732 -1.330422,0.363067 -1.842696,1.240897 l -8.004914,14.853481 c -0.683862,1.233438 0.06217,3.001529 1.400054,3.001529 H 40.23595 c 1.255818,0 2.437034,-1.484601 1.561692,-3.001529 L 33.710664,18.515513 C 33.19839,17.687418 32.502095,17.232339 31.828178,17.195038 Z m 0.07957,5.043171 c 0.698784,-0.02237 1.342858,0.624177 1.320475,1.32296 v 5.04317 c 0.0099,0.676403 -0.6018,1.280687 -1.280687,1.280687 -0.676403,0 -1.290635,-0.604284 -1.280687,-1.280687 v -5.04317 c -0.0099,-0.599311 0.455078,-1.168782 1.041955,-1.283173 0.06466,-0.0174 0.131802,-0.02983 0.198944,-0.03978 z m 0.0398,8.927505 c 0.708729,0 1.280687,0.574441 1.280687,1.28317 0,0.706246 -0.571958,1.280688 -1.280687,1.280688 -0.70624,0 -1.280687,-0.574442 -1.280687,-1.280688 0,-0.708729 0.574447,-1.28317 1.280687,-1.28317 z m 0,0" id="path3-5" style="fill:#999999;stroke:none;stroke-width:1.1;stroke-dasharray:none;stroke-opacity:0.3"/>
    <path d="m 26.688116,46.767573 q 0,0.672727 -0.230304,1.175758 -0.224242,0.49697 -0.666667,0.775758 -0.442424,0.278788 -1.09697,0.278788 -0.672728,0 -1.121213,-0.278788 -0.442424,-0.278788 -0.660606,-0.781819 -0.218182,-0.50303 -0.218182,-1.175758 0,-0.666667 0.218182,-1.163637 0.218182,-0.49697 0.660606,-0.775758 0.448485,-0.278788 1.127274,-0.278788 0.648485,0 1.090909,0.278788 0.442425,0.272727 0.666667,0.775758 0.230304,0.49697 0.230304,1.169698 z m -3.418184,0 q 0,0.818182 0.345454,1.29091 0.345455,0.466667 1.078789,0.466667 0.739394,0 1.078789,-0.466667 0.339394,-0.472728 0.339394,-1.29091 0,-0.818183 -0.339394,-1.278789 -0.339395,-0.466667 -1.072728,-0.466667 -0.733334,0 -1.08485,0.466667 -0.345454,0.460606 -0.345454,1.278789 z m 4.836367,-1.084849 q 0,0.242424 -0.0303,0.454545 h 0.03636 q 0.157575,-0.248485 0.424242,-0.375757 0.272728,-0.127273 0.587879,-0.127273 0.59394,0 0.89091,0.284848 0.29697,0.278788 0.29697,0.903031 v 2.115153 h -0.527273 v -2.078789 q 0,-0.781819 -0.727273,-0.781819 -0.545455,0 -0.751516,0.309091 -0.2,0.303031 -0.2,0.872728 v 1.678789 h -0.533334 v -4.606063 h 0.533334 z m 8.290916,3.254547 h -0.636364 l -2.315153,-3.593942 h -0.02424 q 0.01212,0.212122 0.0303,0.527274 0.01818,0.315151 0.01818,0.648485 v 2.418183 h -0.50303 v -4.327275 h 0.630303 l 2.309092,3.58182 h 0.02424 q -0.0061,-0.09697 -0.01818,-0.290909 -0.0061,-0.19394 -0.01818,-0.424243 -0.0061,-0.230303 -0.0061,-0.424243 v -2.442425 h 0.509091 z m 3.927276,-1.630304 q 0,0.806061 -0.412121,1.248486 -0.406061,0.442424 -1.103031,0.442424 -0.430303,0 -0.769698,-0.193939 -0.333333,-0.2 -0.527273,-0.575758 -0.193939,-0.381819 -0.193939,-0.921213 0,-0.806061 0.406061,-1.242425 0.406061,-0.436364 1.103031,-0.436364 0.442424,0 0.775758,0.2 0.339394,0.19394 0.527273,0.569698 0.193939,0.369697 0.193939,0.909091 z m -2.454547,0 q 0,0.575758 0.224243,0.915152 0.230303,0.333334 0.727273,0.333334 0.49091,0 0.721213,-0.333334 0.230303,-0.339394 0.230303,-0.915152 0,-0.575758 -0.230303,-0.903031 -0.230303,-0.327273 -0.727273,-0.327273 -0.49697,0 -0.721213,0.327273 -0.224243,0.327273 -0.224243,0.903031 z m 3.769698,0.412122 h -0.345455 l -0.151515,-3.109093 h 0.648485 z m -0.551516,0.890909 q 0,-0.224242 0.109091,-0.315152 0.109091,-0.09091 0.266667,-0.09091 0.151515,0 0.260606,0.09091 0.115152,0.09091 0.115152,0.315152 0,0.218182 -0.115152,0.315152 -0.109091,0.09697 -0.260606,0.09697 -0.157576,0 -0.266667,-0.09697 -0.109091,-0.09697 -0.109091,-0.315152 z" id="text5786" style="font-size:6.06061px;text-align:center;text-anchor:middle;fill:#999999;stroke-width:1.81818" aria-label="Oh No!"/>
  </g>
<path id="gradient-path1" style="opacity:0.3;baseline-shift:baseline;display:inline;overflow:visible;vector-effect:none;fill:url(#linearGradient3);enable-background:accumulate;stop-color:#000000;stop-opacity:1" d="M 19.661775 8.8383367 C 16.33974 8.8383367 13.637272 11.524326 13.637272 14.836206 L 13.637272 49.408294 C 13.637272 52.720174 16.33974 55.407939 19.661775 55.407939 L 44.400766 55.407939 C 47.722801 55.407939 50.427045 52.720174 50.427045 49.408294 L 50.427045 14.836206 C 50.427045 11.524326 47.722801 8.8383367 44.400766 8.8383367 L 19.661775 8.8383367 z " transform="matrix(1.1,0,0,1.1,-3.1845928,-3.2065454)"/>
</svg>
