<?xml version="1.0" encoding="UTF-8" standalone="no"?>
<svg
   height="48"
   width="48"
   version="1.1"
   id="svg6"
   sodipodi:docname="weka.svg"
   inkscape:version="1.2.2 (b0a8486541, 2022-12-01)"
   xmlns:inkscape="http://www.inkscape.org/namespaces/inkscape"
   xmlns:sodipodi="http://sodipodi.sourceforge.net/DTD/sodipodi-0.dtd"
   xmlns="http://www.w3.org/2000/svg"
   xmlns:svg="http://www.w3.org/2000/svg"
   xmlns:rdf="http://www.w3.org/1999/02/22-rdf-syntax-ns#"
   xmlns:cc="http://creativecommons.org/ns#"
   xmlns:dc="http://purl.org/dc/elements/1.1/">
  <metadata
     id="metadata12">
    <rdf:RDF>
      <cc:Work
         rdf:about="">
        <dc:format>image/svg+xml</dc:format>
        <dc:type
           rdf:resource="http://purl.org/dc/dcmitype/StillImage" />
      </cc:Work>
    </rdf:RDF>
  </metadata>
  <defs
     id="defs10">
    <linearGradient
       gradientUnits="userSpaceOnUse"
       gradientTransform="matrix(0.0920001,0,0,0.09064843,-21.193131,1.5846311)"
       y2="269.48999"
       y1="235.14999"
       x2="657.65002"
       x1="319.20999"
       id="a-12">
      <stop
         id="stop1076"
         offset="0"
         stop-color="#e54c18" />
      <stop
         id="stop1078"
         offset="1"
         stop-color="#fec350" />
    </linearGradient>
    <linearGradient
       id="linearGradient946"
       x1="31.833"
       x2="32.167"
       y1="51.558998"
       y2="11.098"
       gradientUnits="userSpaceOnUse"
       gradientTransform="matrix(0.83258662,0,0,0.83258662,-4.004011,0.8380211)">
      <stop
         stop-color="#f9f9f9"
         offset="0"
         id="stop5" />
      <stop
         stop-color="#f0fee6"
         offset="1"
         id="stop7-3" />
    </linearGradient>
    <linearGradient
       gradientUnits="userSpaceOnUse"
       y2="12.7"
       y1="4.2333002"
       x2="7.9373002"
       x1="7.9373002"
       id="linearGradient1166">
      <stop
         id="stop13"
         offset="0"
         stop-color="#ffffff" />
      <stop
         id="stop15"
         offset="1"
         stop-color="#b8ffe1"
         style="stop-color:#d6f2dc;stop-opacity:1" />
    </linearGradient>
  </defs>
  <sodipodi:namedview
     pagecolor="#ffffff"
     bordercolor="#666666"
     borderopacity="1"
     objecttolerance="10"
     gridtolerance="10"
     guidetolerance="10"
     inkscape:pageopacity="0"
     inkscape:pageshadow="2"
     inkscape:window-width="1920"
     inkscape:window-height="1016"
     id="namedview8"
     showgrid="true"
     inkscape:zoom="3.2777345"
     inkscape:cx="-86.492667"
     inkscape:cy="29.746155"
     inkscape:window-x="0"
     inkscape:window-y="0"
     inkscape:window-maximized="1"
     inkscape:current-layer="svg6"
     inkscape:document-rotation="0"
     inkscape:pagecheckerboard="0"
     inkscape:showpageshadow="2"
     inkscape:deskcolor="#d1d1d1">
    <inkscape:grid
       type="xygrid"
       id="grid837" />
  </sodipodi:namedview>
  <circle
     cx="23.940615"
     cy="31.534513"
     opacity=".99"
     r="13.232998"
     transform="matrix(1.75830584759 0 0 1.75830608345 -18.15909274367 -30.97874795549)"
     id="circle2"
     style="fill:#5e81ac;fill-opacity:1" />
  <ellipse
     cx="23.935829"
     cy="24.468578"
     opacity="0.99"
     id="circle858"
     style="fill:#ffffff;fill-opacity:0.26542;stroke-width:1.50099"
     rx="19.862556"
     ry="19.862558" />
  <path
     style="fill:#ffffff;stroke-width:0.956079"
     d="m 26.331643,35.924345 c 0.884969,-0.511202 0.90488,-1.308447 0.07122,-1.865051 C 25.875646,33.707299 25.49699,33.600175 24.535659,33.53106 L 23.32979,33.44437 23.057327,32.725223 c -0.154081,-0.406672 -0.276218,-0.800335 -0.281097,-1.404192 -0.008,-0.997777 0.02132,-1.089264 0.445904,-1.394367 1.096166,-0.787472 1.74764,-0.745964 2.050502,0.130553 0.13001,0.376304 0.269643,0.48209 0.689872,0.522764 l 0.526859,0.05098 0.04681,1.272496 c 0.03143,0.855421 0.100599,1.02076 0.453907,1.254315 0.351417,0.232278 0.437828,0.238095 0.631713,0.04253 0.123544,-0.12463 0.267257,-0.49175 0.319365,-0.815806 0.07563,-0.470292 0.01263,-0.997205 -0.312247,-1.474797 -0.394884,-0.580495 -0.607856,-1.826096 -0.612536,-2.240846 -0.0012,-0.112308 0.668633,-0.53367 1.488667,-0.936331 1.86019,-0.913408 2.97215,-1.951171 3.736994,-3.487627 0.482806,-0.969891 0.552545,-1.258256 0.54454,-2.2517 -0.0065,-0.81367 -0.111764,-1.379978 -0.368098,-1.98111 l -0.358931,-0.841752 0.351778,-0.37779 c 0.498623,-0.535484 1.300068,-0.766025 2.76044,-0.794073 1.894909,-0.0364 1.821627,-0.01482 1.821627,-0.540378 0,-0.421195 -0.08762,-0.50104 -0.877154,-0.79906 -0.482436,-0.182087 -0.936616,-0.331109 -1.009294,-0.331109 -0.07267,0 -0.674363,-0.357127 -1.337087,-0.793601 -0.662726,-0.436474 -1.598522,-0.909025 -2.079555,-1.050112 -0.799368,-0.234447 -0.948725,-0.234772 -1.736292,-0.0033 -0.927272,0.271955 -1.497277,0.759445 -2.499965,2.138036 -0.669363,0.920303 -1.201057,1.1454 -2.708904,1.14686 -1.058247,8.17e-4 -3.037017,0.608562 -3.952099,1.213405 -0.328723,0.217283 -0.827712,0.439032 -1.108814,0.49275 -0.66204,0.126505 -1.052481,0.324859 -1.540716,0.782645 -0.217787,0.204237 -0.788049,0.548425 -1.267217,0.764878 -0.923641,0.417247 -2.167764,1.591075 -2.593999,2.447436 -0.138617,0.278497 -0.398951,0.902527 -0.57852,1.386728 -0.324062,0.873788 -1.453795,2.404467 -2.786244,3.775017 -0.622051,0.639848 -0.694135,0.792375 -0.694135,1.468829 0,0.415149 0.06167,0.793285 0.137055,0.840278 0.151256,0.09431 1.265844,-0.60589 2.450631,-1.539536 0.421333,-0.332013 1.162506,-0.719943 1.647059,-0.862056 1.148487,-0.336855 1.798144,-0.14924 3.289368,0.949932 1.027615,0.757445 0.906388,0.824458 1.969237,0.915157 0.768826,0.06559 1.249288,0.19141 1.45767,0.381664 0.385272,0.351778 0.697128,1.790722 0.554419,2.558194 -0.169584,0.912056 0.360921,1.53145 1.981396,2.313423 0.741084,0.357597 1.491503,0.647078 1.667605,0.643269 0.176089,-0.0044 0.605309,-0.171643 0.953792,-0.372944 z"
     id="path10" />
</svg>
