
<svg xmlns="http://www.w3.org/2000/svg" xmlns:xlink="http://www.w3.org/1999/xlink" width="16px" height="16px" viewBox="0 0 16 16" version="1.1">
<g id="surface1">
<path style=" stroke:none;fill-rule:evenodd;fill:#ff6666;fill-opacity:1;" d="M 3.085938 9.796875 L 2.394531 9.796875 L 2.144531 9.003906 L 0.941406 9.003906 L 0.691406 9.796875 L 0 9.796875 L 1.238281 6.203125 L 1.847656 6.203125 Z M 1.449219 7.382812 L 1.117188 8.453125 L 1.972656 8.453125 L 1.636719 7.382812 C 1.597656 7.273438 1.570312 7.140625 1.542969 6.984375 C 1.5 7.191406 1.46875 7.328125 1.449219 7.382812 Z M 4.921875 9.855469 C 4.613281 9.855469 4.339844 9.773438 4.09375 9.605469 C 3.847656 9.4375 3.675781 9.214844 3.574219 8.933594 L 4.160156 8.726562 C 4.242188 8.894531 4.355469 9.03125 4.503906 9.132812 C 4.648438 9.230469 4.804688 9.28125 4.976562 9.28125 C 5.140625 9.28125 5.277344 9.242188 5.375 9.160156 C 5.476562 9.078125 5.527344 8.960938 5.527344 8.804688 C 5.527344 8.675781 5.460938 8.558594 5.324219 8.460938 C 5.183594 8.359375 4.992188 8.257812 4.75 8.152344 C 4.59375 8.089844 4.46875 8.03125 4.375 7.984375 C 4.28125 7.9375 4.175781 7.871094 4.058594 7.785156 C 3.941406 7.699219 3.851562 7.597656 3.796875 7.480469 C 3.738281 7.367188 3.707031 7.234375 3.707031 7.09375 C 3.707031 6.824219 3.816406 6.601562 4.03125 6.417969 C 4.246094 6.234375 4.527344 6.144531 4.878906 6.144531 C 5.15625 6.144531 5.398438 6.214844 5.605469 6.359375 C 5.8125 6.503906 5.953125 6.683594 6.019531 6.90625 L 5.441406 7.09375 C 5.3125 6.84375 5.113281 6.71875 4.839844 6.71875 C 4.699219 6.71875 4.585938 6.75 4.492188 6.820312 C 4.402344 6.886719 4.359375 6.984375 4.359375 7.101562 C 4.359375 7.128906 4.363281 7.15625 4.371094 7.183594 C 4.375 7.207031 4.390625 7.230469 4.40625 7.253906 C 4.425781 7.277344 4.441406 7.296875 4.457031 7.316406 C 4.476562 7.332031 4.5 7.355469 4.535156 7.375 C 4.570312 7.398438 4.597656 7.417969 4.621094 7.429688 C 4.644531 7.445312 4.679688 7.460938 4.726562 7.484375 C 4.773438 7.507812 4.808594 7.523438 4.835938 7.53125 C 4.859375 7.542969 4.902344 7.5625 4.960938 7.585938 C 5.015625 7.613281 5.058594 7.628906 5.085938 7.640625 C 5.234375 7.707031 5.363281 7.765625 5.464844 7.824219 C 5.5625 7.878906 5.675781 7.953125 5.800781 8.046875 C 5.921875 8.136719 6.015625 8.246094 6.082031 8.375 C 6.144531 8.5 6.179688 8.640625 6.179688 8.789062 C 6.179688 9.117188 6.054688 9.378906 5.8125 9.570312 C 5.570312 9.761719 5.273438 9.855469 4.921875 9.855469 Z M 8.277344 9.851562 C 8.066406 9.851562 7.875 9.816406 7.703125 9.746094 C 7.53125 9.671875 7.386719 9.578125 7.273438 9.460938 C 7.160156 9.339844 7.066406 9.203125 6.988281 9.039062 C 6.914062 8.875 6.859375 8.707031 6.828125 8.535156 C 6.796875 8.363281 6.777344 8.183594 6.777344 8 C 6.777344 7.773438 6.808594 7.554688 6.863281 7.347656 C 6.917969 7.136719 7.003906 6.9375 7.121094 6.757812 C 7.234375 6.574219 7.394531 6.425781 7.589844 6.316406 C 7.789062 6.203125 8.019531 6.148438 8.277344 6.148438 C 8.574219 6.148438 8.820312 6.21875 9.019531 6.363281 C 9.21875 6.507812 9.363281 6.683594 9.453125 6.898438 L 8.878906 7.160156 C 8.800781 7.015625 8.714844 6.90625 8.621094 6.835938 C 8.53125 6.761719 8.417969 6.726562 8.277344 6.726562 C 8.082031 6.726562 7.921875 6.796875 7.792969 6.933594 C 7.660156 7.070312 7.570312 7.230469 7.519531 7.414062 C 7.46875 7.59375 7.445312 7.792969 7.445312 8 C 7.445312 8.339844 7.515625 8.636719 7.660156 8.890625 C 7.804688 9.144531 8.011719 9.273438 8.277344 9.273438 C 8.53125 9.273438 8.734375 9.117188 8.886719 8.8125 L 9.46875 9.019531 C 9.230469 9.574219 8.835938 9.851562 8.277344 9.851562 Z M 12.664062 6.203125 L 12.664062 6.742188 L 11.867188 6.742188 L 11.867188 9.257812 L 12.664062 9.257812 L 12.664062 9.796875 L 10.433594 9.796875 L 10.433594 9.257812 L 11.222656 9.257812 L 11.222656 6.742188 L 10.433594 6.742188 L 10.433594 6.203125 Z M 16 6.203125 L 16 6.742188 L 15.203125 6.742188 L 15.203125 9.257812 L 16 9.257812 L 16 9.796875 L 13.769531 9.796875 L 13.769531 9.257812 L 14.558594 9.257812 L 14.558594 6.742188 L 13.769531 6.742188 L 13.769531 6.203125 Z M 16 6.203125 "/>
</g>
</svg>
