
<svg xmlns="http://www.w3.org/2000/svg" xmlns:xlink="http://www.w3.org/1999/xlink" width="16px" height="16px" viewBox="0 0 16 16" version="1.1">
<g id="surface1">
<path style=" stroke:none;fill-rule:nonzero;fill:#ff6666;fill-opacity:1;" d="M 8 0 C 3.585938 0 0 3.585938 0 8 C 0 12.414062 3.585938 16 8 16 C 12.414062 16 16 12.414062 16 8 C 16 3.585938 12.414062 0 8 0 Z M 3.90625 5.441406 C 4.84375 5.414062 5.769531 6.050781 6.15625 7.070312 C 6.632812 8.324219 6.109375 9.6875 4.988281 10.113281 C 3.867188 10.539062 2.570312 9.863281 2.09375 8.609375 C 1.621094 7.355469 2.144531 5.992188 3.265625 5.566406 C 3.476562 5.488281 3.691406 5.445312 3.90625 5.441406 Z M 12.230469 5.441406 C 12.445312 5.445312 12.664062 5.488281 12.871094 5.566406 C 13.992188 5.992188 14.519531 7.355469 14.042969 8.609375 C 13.566406 9.863281 12.273438 10.539062 11.152344 10.113281 C 10.03125 9.6875 9.503906 8.324219 9.980469 7.070312 C 10.367188 6.050781 11.296875 5.414062 12.230469 5.441406 Z M 12.230469 5.441406 "/>
</g>
</svg>
