
<svg xmlns="http://www.w3.org/2000/svg" xmlns:xlink="http://www.w3.org/1999/xlink" width="16px" height="16px" viewBox="0 0 16 16" version="1.1">
<g id="surface1">
<path style=" stroke:none;fill-rule:evenodd;fill:#ff6666;fill-opacity:1;" d="M 10.332031 1.9375 C 10.332031 2.867188 9.578125 3.621094 8.644531 3.621094 C 7.714844 3.621094 6.960938 2.867188 6.960938 1.9375 C 6.960938 1.007812 7.714844 0.25 8.644531 0.25 C 9.578125 0.25 10.332031 1.007812 10.332031 1.9375 Z M 6.816406 5.980469 C 6.816406 6.910156 6.0625 7.664062 5.132812 7.664062 C 4.199219 7.664062 3.445312 6.910156 3.445312 5.980469 C 3.445312 5.046875 4.199219 4.292969 5.132812 4.292969 C 6.0625 4.292969 6.816406 5.046875 6.816406 5.980469 Z M 3.371094 10.019531 C 3.371094 10.953125 2.617188 11.707031 1.683594 11.707031 C 0.753906 11.707031 0 10.953125 0 10.019531 C 0 9.089844 0.753906 8.335938 1.683594 8.335938 C 2.617188 8.335938 3.371094 9.089844 3.371094 10.019531 Z M 8.886719 10.019531 C 8.886719 10.953125 8.132812 11.707031 7.203125 11.707031 C 6.273438 11.707031 5.515625 10.953125 5.515625 10.019531 C 5.515625 9.089844 6.273438 8.335938 7.203125 8.335938 C 8.132812 8.335938 8.886719 9.089844 8.886719 10.019531 Z M 12.546875 5.980469 C 12.546875 6.910156 11.789062 7.664062 10.859375 7.664062 C 9.929688 7.664062 9.175781 6.910156 9.175781 5.980469 C 9.175781 5.046875 9.929688 4.292969 10.859375 4.292969 C 11.789062 4.292969 12.546875 5.046875 12.546875 5.980469 Z M 14.40625 10.019531 C 14.40625 10.953125 13.652344 11.707031 12.722656 11.707031 C 11.789062 11.707031 11.035156 10.953125 11.035156 10.019531 C 11.035156 9.089844 11.789062 8.335938 12.722656 8.335938 C 13.652344 8.335938 14.40625 9.089844 14.40625 10.019531 Z M 16 14.0625 C 16 14.992188 15.246094 15.75 14.316406 15.75 C 13.382812 15.75 12.628906 14.992188 12.628906 14.0625 C 12.628906 13.132812 13.382812 12.378906 14.316406 12.378906 C 15.246094 12.378906 16 13.132812 16 14.0625 Z M 10.902344 14.0625 C 10.902344 14.992188 10.148438 15.75 9.21875 15.75 C 8.285156 15.75 7.53125 14.992188 7.53125 14.0625 C 7.53125 13.132812 8.285156 12.378906 9.21875 12.378906 C 10.148438 12.378906 10.902344 13.132812 10.902344 14.0625 Z M 5.808594 14.0625 C 5.808594 14.992188 5.050781 15.75 4.121094 15.75 C 3.191406 15.75 2.4375 14.992188 2.4375 14.0625 C 2.4375 13.132812 3.191406 12.378906 4.121094 12.378906 C 5.050781 12.378906 5.808594 13.132812 5.808594 14.0625 Z M 5.808594 14.0625 "/>
</g>
</svg>
