
<svg xmlns="http://www.w3.org/2000/svg" xmlns:xlink="http://www.w3.org/1999/xlink" width="16px" height="16px" viewBox="0 0 16 16" version="1.1">
<g id="surface1">
<path style=" stroke:none;fill-rule:nonzero;fill:#ff6666;fill-opacity:1;" d="M 6.285156 0 C 4.671875 0 3.0625 0.613281 1.835938 1.839844 C -0.609375 4.292969 -0.613281 8.308594 1.832031 10.757812 C 3.902344 12.835938 7.105469 13.109375 9.519531 11.667969 L 13.550781 15.625 C 14.015625 16.09375 15.046875 16.171875 15.597656 15.578125 C 16.152344 14.988281 16.125 14.054688 15.5625 13.488281 L 11.640625 9.605469 C 13.128906 7.179688 12.828125 3.9375 10.734375 1.839844 C 9.511719 0.613281 7.898438 0 6.285156 0 M 6.285156 1.714844 C 7.449219 1.714844 8.617188 2.160156 9.511719 3.058594 C 11.304688 4.851562 11.304688 7.722656 9.511719 9.511719 C 7.71875 11.304688 4.847656 11.304688 3.054688 9.511719 C 1.261719 7.722656 1.261719 4.851562 3.054688 3.058594 C 3.953125 2.164062 5.121094 1.714844 6.285156 1.714844 M 4.921875 2.285156 C 4.601562 2.394531 4.292969 2.542969 4 2.734375 L 4 4.570312 L 5.714844 4.570312 L 5.714844 2.285156 Z M 6.285156 2.285156 L 6.285156 2.855469 L 6.855469 2.855469 L 6.855469 4.570312 L 7.429688 4.570312 L 7.429688 2.285156 Z M 8 2.425781 L 8 4.570312 L 9.714844 4.570312 L 9.714844 3.828125 C 9.582031 3.644531 9.4375 3.464844 9.269531 3.300781 C 9.230469 3.257812 9.1875 3.222656 9.144531 3.183594 L 9.144531 4 L 8.570312 4 L 8.570312 2.855469 L 8.746094 2.855469 C 8.507812 2.683594 8.257812 2.539062 8 2.425781 Z M 4.570312 2.855469 L 5.140625 2.855469 L 5.140625 4 L 4.570312 4 Z M 3.425781 3.183594 C 3.386719 3.222656 3.339844 3.257812 3.300781 3.300781 C 3.132812 3.464844 2.988281 3.640625 2.855469 3.824219 L 2.855469 4.570312 L 3.425781 4.570312 Z M 2.285156 5.144531 L 2.285156 7.429688 L 4 7.429688 L 4 5.144531 Z M 4.570312 5.144531 L 4.570312 5.714844 L 5.140625 5.714844 L 5.140625 7.429688 L 5.714844 7.429688 L 5.714844 5.144531 M 6.285156 5.144531 L 6.285156 7.429688 L 8 7.429688 L 8 5.144531 Z M 8.582031 5.144531 L 8.582031 5.714844 L 9.152344 5.714844 L 9.152344 7.429688 L 9.726562 7.429688 L 9.726562 5.144531 Z M 2.855469 5.714844 L 3.425781 5.714844 L 3.425781 6.855469 L 2.855469 6.855469 Z M 6.855469 5.714844 L 7.429688 5.714844 L 7.429688 6.855469 L 6.855469 6.855469 Z M 2.421875 8 C 2.511719 8.195312 2.613281 8.386719 2.730469 8.570312 L 2.855469 8.570312 L 2.855469 8.746094 C 2.988281 8.929688 3.132812 9.105469 3.300781 9.269531 C 3.339844 9.3125 3.382812 9.347656 3.425781 9.386719 L 3.425781 8 Z M 4 8 L 4 9.839844 C 4.292969 10.027344 4.601562 10.175781 4.921875 10.285156 L 5.714844 10.285156 L 5.714844 8 Z M 6.285156 8 L 6.285156 8.570312 L 6.855469 8.570312 L 6.855469 10.285156 L 7.429688 10.285156 L 7.429688 8 Z M 8 8 L 8 10.148438 C 8.257812 10.03125 8.507812 9.886719 8.746094 9.714844 L 8.570312 9.714844 L 8.570312 8.570312 L 9.144531 8.570312 L 9.144531 9.386719 C 9.183594 9.347656 9.230469 9.3125 9.269531 9.269531 C 9.4375 9.105469 9.582031 8.929688 9.714844 8.746094 L 9.714844 8 Z M 4.570312 8.570312 L 5.140625 8.570312 L 5.140625 9.714844 L 4.570312 9.714844 Z M 4.570312 8.570312 "/>
</g>
</svg>
