
<svg xmlns="http://www.w3.org/2000/svg" xmlns:xlink="http://www.w3.org/1999/xlink" width="16px" height="16px" viewBox="0 0 16 16" version="1.1">
<g id="surface1">
<path style=" stroke:none;fill-rule:nonzero;fill:#ff6666;fill-opacity:1;" d="M 9.957031 0.0234375 L 9.957031 3.816406 L 16 3.816406 L 16 0.0234375 Z M 9.953125 1.210938 L 7.148438 1.21875 L 7.15625 7.421875 L 6.042969 7.40625 L 6.042969 6.25 L 0 6.25 L 0 9.660156 L 6.042969 9.660156 L 6.042969 8.542969 L 7.15625 8.53125 L 7.148438 14.730469 L 9.957031 14.734375 L 9.957031 16 L 16 16 L 16 12.207031 L 9.957031 12.207031 L 9.957031 13.644531 L 8.382812 13.644531 L 8.386719 8.511719 L 8.390625 8.511719 L 8.390625 7.4375 L 8.386719 7.4375 L 8.382812 2.304688 L 9.953125 2.304688 Z M 9.953125 1.210938 "/>
</g>
</svg>
