
<svg xmlns="http://www.w3.org/2000/svg" xmlns:xlink="http://www.w3.org/1999/xlink" width="16px" height="16px" viewBox="0 0 16 16" version="1.1">
<g id="surface1">
<path style=" stroke:none;fill-rule:nonzero;fill:#ff6666;fill-opacity:1;" d="M 11.804688 4.574219 L 8.625 9.519531 C 8.621094 9.527344 8.621094 9.535156 8.625 9.539062 L 8.898438 9.964844 C 8.90625 9.972656 8.921875 9.972656 8.929688 9.964844 L 12.070312 5.203125 C 12.074219 5.195312 12.078125 5.195312 12.085938 5.195312 L 15.5625 5.195312 C 15.566406 5.195312 15.570312 5.191406 15.574219 5.1875 L 15.996094 4.59375 C 16.003906 4.582031 15.996094 4.566406 15.984375 4.566406 L 11.820312 4.566406 C 11.816406 4.566406 11.808594 4.570312 11.804688 4.574219 Z M 11.804688 4.574219 "/>
<path style=" stroke:none;fill-rule:nonzero;fill:#ff6666;fill-opacity:1;" d="M 12.132812 5.3125 L 9.8125 8.828125 C 9.808594 8.835938 9.808594 8.84375 9.8125 8.847656 L 10.085938 9.140625 C 10.09375 9.148438 10.105469 9.144531 10.113281 9.136719 L 12.578125 5.328125 C 12.585938 5.316406 12.574219 5.304688 12.5625 5.304688 L 12.148438 5.304688 C 12.140625 5.304688 12.136719 5.304688 12.132812 5.3125 Z M 12.132812 5.3125 "/>
<path style=" stroke:none;fill-rule:nonzero;fill:#ff6666;fill-opacity:1;" d="M 12.398438 5.976562 L 15.003906 5.976562 C 15.011719 5.976562 15.015625 5.972656 15.019531 5.96875 L 15.457031 5.328125 C 15.464844 5.320312 15.457031 5.304688 15.445312 5.304688 L 12.804688 5.300781 C 12.800781 5.300781 12.792969 5.304688 12.792969 5.304688 L 12.386719 5.949219 C 12.378906 5.960938 12.386719 5.976562 12.398438 5.976562 Z M 12.398438 5.976562 "/>
<path style=" stroke:none;fill-rule:nonzero;fill:#ff6666;fill-opacity:1;" d="M 10.09375 9.398438 L 9.742188 9.015625 C 9.734375 9.007812 9.71875 9.007812 9.714844 9.019531 L 9 10.117188 L 8.992188 10.128906 L 9.847656 11.425781 C 9.855469 11.4375 9.867188 11.4375 9.875 11.425781 L 12.96875 6.777344 C 12.96875 6.773438 12.976562 6.769531 12.980469 6.769531 L 14.441406 6.769531 C 14.445312 6.769531 14.453125 6.765625 14.457031 6.761719 L 14.894531 6.144531 C 14.902344 6.132812 14.894531 6.117188 14.882812 6.117188 L 12.285156 6.117188 C 12.277344 6.117188 12.273438 6.121094 12.269531 6.125 L 10.121094 9.394531 C 10.117188 9.40625 10.101562 9.40625 10.09375 9.398438 Z M 10.09375 9.398438 "/>
<path style=" stroke:none;fill-rule:nonzero;fill:#ff6666;fill-opacity:1;" d="M 11.167969 5.347656 L 10.839844 5.347656 C 10.835938 5.347656 10.828125 5.351562 10.824219 5.355469 L 9.863281 6.847656 C 9.859375 6.855469 9.859375 6.863281 9.863281 6.867188 L 10.039062 7.121094 C 10.046875 7.132812 10.0625 7.132812 10.066406 7.121094 L 11.183594 5.375 C 11.191406 5.363281 11.179688 5.347656 11.167969 5.347656 Z M 11.167969 5.347656 "/>
<path style=" stroke:none;fill-rule:nonzero;fill:#ff6666;fill-opacity:1;" d="M 8.574219 9.414062 L 9.28125 8.324219 C 9.285156 8.320312 9.285156 8.3125 9.28125 8.304688 L 8 6.464844 L 6.71875 8.304688 C 6.714844 8.3125 6.714844 8.320312 6.71875 8.324219 L 7.425781 9.414062 C 7.433594 9.425781 7.449219 9.425781 7.457031 9.414062 L 8 8.574219 L 8.542969 9.414062 C 8.550781 9.425781 8.566406 9.425781 8.574219 9.414062 Z M 8.574219 9.414062 "/>
<path style=" stroke:none;fill-rule:nonzero;fill:#ff6666;fill-opacity:1;" d="M 0.00390625 4.59375 L 0.425781 5.1875 C 0.429688 5.191406 0.433594 5.195312 0.4375 5.195312 L 3.914062 5.195312 C 3.921875 5.195312 3.925781 5.195312 3.929688 5.203125 L 7.070312 9.964844 C 7.078125 9.972656 7.09375 9.972656 7.101562 9.964844 L 7.375 9.539062 C 7.378906 9.535156 7.378906 9.527344 7.375 9.519531 L 4.195312 4.574219 C 4.191406 4.570312 4.183594 4.566406 4.179688 4.566406 L 0.015625 4.566406 C 0.00390625 4.566406 -0.00390625 4.582031 0.00390625 4.59375 Z M 0.00390625 4.59375 "/>
<path style=" stroke:none;fill-rule:nonzero;fill:#ff6666;fill-opacity:1;" d="M 6.1875 8.828125 L 3.867188 5.3125 C 3.863281 5.304688 3.859375 5.304688 3.851562 5.304688 L 3.4375 5.304688 C 3.425781 5.304688 3.414062 5.316406 3.421875 5.328125 L 5.886719 9.136719 C 5.894531 9.144531 5.90625 9.148438 5.914062 9.140625 L 6.1875 8.847656 C 6.191406 8.84375 6.191406 8.835938 6.1875 8.828125 Z M 6.1875 8.828125 "/>
<path style=" stroke:none;fill-rule:nonzero;fill:#ff6666;fill-opacity:1;" d="M 3.132812 5.300781 L 0.511719 5.300781 C 0.496094 5.300781 0.488281 5.316406 0.496094 5.328125 L 0.980469 5.96875 C 0.984375 5.972656 0.988281 5.976562 0.996094 5.976562 L 3.601562 5.976562 C 3.613281 5.976562 3.621094 5.960938 3.613281 5.949219 L 3.148438 5.308594 C 3.144531 5.300781 3.140625 5.300781 3.132812 5.300781 Z M 3.132812 5.300781 "/>
<path style=" stroke:none;fill-rule:nonzero;fill:#ff6666;fill-opacity:1;" d="M 6.257812 9.015625 L 5.90625 9.398438 C 5.898438 9.40625 5.882812 9.40625 5.878906 9.394531 L 3.730469 6.125 C 3.726562 6.121094 3.722656 6.117188 3.714844 6.117188 L 1.117188 6.117188 C 1.105469 6.117188 1.097656 6.132812 1.105469 6.144531 L 1.542969 6.761719 C 1.546875 6.769531 1.554688 6.769531 1.558594 6.769531 L 3.019531 6.769531 C 3.023438 6.769531 3.03125 6.773438 3.03125 6.777344 L 6.125 11.425781 C 6.132812 11.4375 6.144531 11.4375 6.152344 11.425781 L 7.007812 10.128906 L 7 10.117188 L 6.285156 9.019531 C 6.28125 9.007812 6.265625 9.007812 6.257812 9.015625 Z M 6.257812 9.015625 "/>
<path style=" stroke:none;fill-rule:nonzero;fill:#ff6666;fill-opacity:1;" d="M 6.136719 6.847656 L 5.175781 5.359375 C 5.171875 5.351562 5.164062 5.351562 5.160156 5.351562 L 4.832031 5.351562 C 4.820312 5.351562 4.808594 5.363281 4.816406 5.375 L 5.933594 7.121094 C 5.9375 7.132812 5.953125 7.132812 5.960938 7.121094 L 6.136719 6.867188 C 6.140625 6.863281 6.140625 6.855469 6.136719 6.847656 Z M 6.136719 6.847656 "/>
<path style=" stroke:none;fill-rule:nonzero;fill:#ff6666;fill-opacity:1;" d="M 6.027344 7.261719 L 6.617188 8.160156 C 6.625 8.167969 6.640625 8.171875 6.644531 8.160156 L 7.984375 6.246094 C 7.992188 6.238281 8.007812 6.238281 8.015625 6.246094 L 9.355469 8.160156 C 9.363281 8.167969 9.375 8.167969 9.382812 8.160156 L 9.972656 7.261719 C 9.976562 7.257812 9.976562 7.25 9.972656 7.242188 L 8.210938 4.65625 C 8.210938 4.652344 8.203125 4.648438 8.199219 4.648438 L 7.472656 4.648438 C 7.46875 4.648438 7.464844 4.652344 7.460938 4.65625 L 7.113281 4.988281 C 7.109375 4.988281 7.109375 4.996094 7.109375 5 L 7.109375 5.089844 C 7.109375 5.09375 7.109375 5.097656 7.113281 5.101562 L 7.308594 5.339844 C 7.3125 5.347656 7.3125 5.355469 7.308594 5.359375 L 6.027344 7.242188 C 6.023438 7.25 6.023438 7.257812 6.027344 7.261719 Z M 6.027344 7.261719 "/>
</g>
</svg>
