
<svg xmlns="http://www.w3.org/2000/svg" xmlns:xlink="http://www.w3.org/1999/xlink" width="16px" height="16px" viewBox="0 0 16 16" version="1.1">
<g id="surface1">
<path style=" stroke:none;fill-rule:evenodd;fill:#ff6666;fill-opacity:1;" d="M 2.449219 9.644531 C 1.328125 9.792969 0.75 9.917969 0.1875 10.535156 C -0.632812 9.441406 1.351562 5.738281 4.027344 4.230469 C 4.148438 5.007812 4.707031 5.179688 5.878906 5.394531 L 6.699219 5.394531 L 6.699219 4.777344 L 7.042969 5.257812 L 8.960938 5.257812 L 9.304688 4.777344 L 9.304688 5.394531 L 10.128906 5.394531 C 11.296875 5.179688 11.785156 4.941406 11.910156 4.160156 C 14.582031 5.667969 16.640625 9.441406 15.816406 10.535156 C 15.253906 9.917969 14.675781 9.792969 13.554688 9.644531 L 13.210938 10.054688 L 12.730469 9.441406 L 11.5 9.441406 L 8.003906 11.839844 C 9.945312 10.425781 11 9.5625 12.664062 7.589844 C 12.332031 6.890625 11.96875 6.472656 10.949219 5.667969 C 8.511719 5.539062 7.195312 5.527344 4.984375 5.667969 C 4.191406 6.378906 3.796875 6.792969 3.273438 7.589844 C 4.785156 9.335938 5.8125 10.269531 8.003906 11.839844 L 4.507812 9.441406 L 3.273438 9.441406 L 2.792969 10.054688 Z M 8.003906 11.839844 Z M 8.351562 7.035156 C 10.210938 7.035156 11.359375 7.699219 11.574219 8.410156 L 12.085938 7.832031 C 11.582031 7.148438 11.171875 6.789062 10.335938 6.394531 C 9.292969 5.90625 8.476562 5.957031 7.167969 6.039062 C 7.125 6.042969 7.085938 6.042969 7.042969 6.046875 C 6.796875 6.0625 5.789062 6.285156 6.207031 6.707031 C 6.5625 7.0625 7.25 7.050781 7.96875 7.039062 C 8.097656 7.039062 8.226562 7.035156 8.351562 7.035156 Z M 9.683594 5.953125 C 9.683594 5.953125 10.683594 5.84375 10.851562 6.054688 C 11.003906 6.242188 10.84375 6.332031 10.753906 6.292969 C 10.109375 6.035156 9.683594 5.953125 9.683594 5.953125 Z M 12.285156 7.546875 L 12.203125 7.671875 C 12.101562 7.542969 12.003906 7.429688 11.914062 7.324219 C 11.640625 7.007812 11.421875 6.75 11.292969 6.375 C 11.699219 6.777344 11.925781 7.015625 12.285156 7.546875 Z M 3.714844 7.546875 C 4.132812 6.902344 4.472656 6.574219 5.140625 5.992188 L 5.367188 5.992188 C 4.546875 6.734375 4.207031 7.195312 4.222656 8.25 C 4.175781 8.320312 4.019531 8.058594 3.769531 7.640625 L 3.769531 7.636719 C 3.75 7.609375 3.734375 7.578125 3.714844 7.546875 Z M 9.441406 9.640625 C 9.558594 9.726562 9.65625 9.84375 9.503906 10.023438 C 9.453125 10.078125 9.304688 10.207031 8.757812 10.320312 C 7.414062 10.605469 6.15625 10.226562 5.054688 9.003906 C 5.054688 9.003906 6.128906 9.324219 6.800781 9.375 C 7.359375 9.417969 7.746094 9.40625 8.058594 9.394531 C 8.089844 9.394531 8.125 9.394531 8.15625 9.394531 C 8.640625 9.375 9.0625 9.363281 9.441406 9.640625 Z M 8.917969 10.699219 C 8.171875 10.769531 7.757812 10.765625 7.023438 10.699219 C 7.316406 10.9375 7.503906 11.085938 7.734375 11.269531 C 7.816406 11.332031 7.902344 11.402344 8 11.480469 Z M 8.917969 10.699219 "/>
</g>
</svg>
