
<svg xmlns="http://www.w3.org/2000/svg" xmlns:xlink="http://www.w3.org/1999/xlink" width="16px" height="16px" viewBox="0 0 16 16" version="1.1">
<g id="surface1">
<path style=" stroke:none;fill-rule:evenodd;fill:#ff6666;fill-opacity:1;" d="M 0 6.101562 C 0.890625 4.746094 1.566406 4.039062 2.917969 2.832031 C 6.683594 2.585938 8.925781 2.609375 13.082031 2.832031 C 14.820312 4.199219 15.433594 4.910156 16 6.101562 C 13.167969 9.464844 11.371094 10.933594 8.058594 13.34375 C 4.328125 10.667969 2.574219 9.082031 0 6.101562 Z M 14.144531 7.503906 C 13.78125 6.292969 11.824219 5.160156 8.65625 5.160156 C 8.4375 5.160156 8.21875 5.164062 8 5.167969 C 6.777344 5.1875 5.605469 5.207031 5 4.597656 C 4.285156 3.882812 6.003906 3.5 6.421875 3.476562 C 6.496094 3.46875 6.566406 3.464844 6.640625 3.460938 C 8.867188 3.320312 10.257812 3.234375 12.035156 4.066406 C 13.457031 4.742188 14.160156 5.351562 15.015625 6.519531 Z M 12.914062 3.488281 C 12.625 3.132812 10.921875 3.316406 10.921875 3.316406 C 10.921875 3.316406 11.648438 3.453125 12.746094 3.898438 C 12.898438 3.960938 13.171875 3.808594 12.914062 3.488281 Z M 15.214844 6.242188 L 15.355469 6.03125 C 14.742188 5.125 14.359375 4.722656 13.667969 4.035156 C 13.882812 4.675781 14.261719 5.113281 14.722656 5.652344 C 14.878906 5.835938 15.042969 6.027344 15.214844 6.242188 Z M 3.183594 3.378906 C 2.042969 4.371094 1.46875 4.929688 0.75 6.03125 C 0.785156 6.082031 0.816406 6.136719 0.847656 6.1875 C 1.269531 6.902344 1.535156 7.347656 1.621094 7.226562 C 1.589844 5.433594 2.171875 4.648438 3.570312 3.378906 Z M 10.613281 10.25 C 10.875 9.941406 10.710938 9.746094 10.511719 9.597656 C 9.824219 9.089844 9.050781 9.152344 8.15625 9.183594 C 7.621094 9.199219 6.960938 9.21875 6.015625 9.144531 C 4.867188 9.058594 3.035156 8.511719 3.035156 8.511719 C 4.917969 10.597656 7.054688 11.242188 9.347656 10.761719 C 10.28125 10.5625 10.53125 10.34375 10.613281 10.25 Z M 6.394531 11.402344 C 7.644531 11.515625 8.347656 11.523438 9.617188 11.402344 L 8.054688 12.730469 C 7.886719 12.597656 7.738281 12.480469 7.601562 12.371094 C 7.207031 12.0625 6.886719 11.808594 6.394531 11.402344 Z M 6.394531 11.402344 "/>
</g>
</svg>
