
<svg xmlns="http://www.w3.org/2000/svg" xmlns:xlink="http://www.w3.org/1999/xlink" width="16px" height="16px" viewBox="0 0 16 16" version="1.1">
<g id="surface1">
<path style=" stroke:none;fill-rule:nonzero;fill:#ff6666;fill-opacity:1;" d="M 4.339844 4.78125 C 1.761719 5.863281 0.410156 7.5 0 9.117188 C 1.355469 7.761719 2.710938 7.015625 3.320312 8.847656 C 5.628906 7.832031 7.457031 8.578125 8 11.21875 C 8.542969 8.78125 10.167969 7.695312 12.679688 8.847656 C 13.152344 7.355469 14.304688 7.355469 16 9.117188 C 15.660156 7.628906 14.507812 6 11.660156 4.78125 L 11.320312 5.730469 L 8.8125 6.339844 L 8.542969 5.253906 L 8.269531 5.933594 L 8 6 L 7.730469 5.933594 L 7.457031 5.253906 L 7.253906 6.339844 L 4.679688 5.730469 Z M 4.339844 4.78125 "/>
</g>
</svg>
