
<svg xmlns="http://www.w3.org/2000/svg" xmlns:xlink="http://www.w3.org/1999/xlink" width="16px" height="16px" viewBox="0 0 16 16" version="1.1">
<g id="surface1">
<path style=" stroke:none;fill-rule:nonzero;fill:#ff6666;fill-opacity:1;" d="M 8 -0.320312 C 6.351562 -0.320312 5.027344 -0.0117188 3.945312 0.480469 C 3.726562 0.578125 3.511719 0.683594 3.304688 0.800781 C 3.246094 0.832031 3.195312 0.871094 3.144531 0.902344 C 3.007812 0.988281 2.867188 1.070312 2.738281 1.160156 C 2.632812 1.238281 2.539062 1.320312 2.4375 1.402344 C 1.734375 1.972656 1.222656 2.667969 0.839844 3.421875 C 0.820312 3.457031 0.792969 3.492188 0.777344 3.53125 C 0.757812 3.570312 0.746094 3.609375 0.726562 3.652344 C 0.492188 4.160156 0.300781 4.683594 0.1875 5.230469 C 0.164062 5.332031 0.160156 5.4375 0.144531 5.542969 C 0.0898438 5.824219 0.0507812 6.101562 0.0273438 6.375 C 0.0234375 6.398438 0.0234375 6.425781 0.0195312 6.449219 C -0.0078125 6.777344 0 7.078125 0.00390625 7.386719 C 0.0078125 7.5 0.00390625 7.613281 0.0078125 7.730469 C 0.0234375 8.058594 0.046875 8.351562 0.0898438 8.640625 C 0.113281 8.839844 0.144531 9.039062 0.179688 9.234375 C 0.183594 9.261719 0.1875 9.300781 0.191406 9.324219 L 0.191406 9.328125 L 0.21875 9.4375 C 0.253906 9.632812 0.277344 9.832031 0.320312 10.023438 L 0.449219 10.582031 L 0.457031 10.582031 L 1.664062 16.320312 L 3.011719 16.082031 C 3.765625 15.949219 4.308594 15.832031 4.558594 15.632812 C 4.683594 15.53125 4.753906 15.421875 4.792969 15.226562 C 4.828125 15.035156 4.820312 14.753906 4.738281 14.367188 L 3.832031 10.078125 C 3.75 9.695312 3.644531 9.429688 3.53125 9.257812 C 3.414062 9.089844 3.296875 9.007812 3.136719 8.957031 C 2.8125 8.851562 2.265625 8.929688 1.503906 9.0625 L 1.320312 9.097656 C 1.109375 7.871094 1.070312 6.605469 1.308594 5.464844 C 1.589844 4.109375 2.226562 2.9375 3.40625 2.09375 C 4.5625 1.265625 6.285156 0.847656 8 0.851562 C 9.714844 0.847656 11.4375 1.265625 12.597656 2.09375 C 13.773438 2.9375 14.410156 4.109375 14.691406 5.464844 C 14.929688 6.605469 14.890625 7.871094 14.683594 9.097656 L 14.496094 9.0625 C 13.734375 8.929688 13.1875 8.851562 12.863281 8.957031 C 12.703125 9.007812 12.585938 9.089844 12.46875 9.257812 C 12.355469 9.429688 12.25 9.695312 12.167969 10.078125 L 11.261719 14.367188 C 11.179688 14.753906 11.171875 15.035156 11.207031 15.226562 C 11.246094 15.421875 11.316406 15.53125 11.441406 15.632812 C 11.691406 15.832031 12.234375 15.949219 12.988281 16.082031 L 14.335938 16.320312 L 15.542969 10.582031 L 15.554688 10.582031 L 15.679688 10.023438 C 15.722656 9.832031 15.746094 9.632812 15.785156 9.4375 L 15.808594 9.328125 L 15.808594 9.324219 C 15.8125 9.300781 15.816406 9.261719 15.820312 9.234375 C 15.855469 9.039062 15.886719 8.839844 15.910156 8.640625 C 15.953125 8.351562 15.976562 8.058594 15.992188 7.730469 C 15.996094 7.613281 15.992188 7.5 15.996094 7.386719 C 16 7.078125 16.007812 6.777344 15.980469 6.449219 C 15.976562 6.425781 15.976562 6.398438 15.972656 6.375 C 15.949219 6.101562 15.910156 5.824219 15.855469 5.542969 C 15.839844 5.4375 15.835938 5.332031 15.816406 5.230469 C 15.699219 4.683594 15.507812 4.160156 15.273438 3.652344 C 15.253906 3.609375 15.242188 3.570312 15.222656 3.53125 C 15.207031 3.492188 15.179688 3.457031 15.160156 3.421875 C 14.777344 2.667969 14.265625 1.972656 13.5625 1.402344 C 13.460938 1.320312 13.367188 1.238281 13.261719 1.160156 C 13.132812 1.070312 12.992188 0.988281 12.855469 0.902344 C 12.804688 0.871094 12.753906 0.832031 12.695312 0.800781 C 12.488281 0.683594 12.273438 0.578125 12.054688 0.480469 C 10.976562 -0.0117188 9.648438 -0.320312 8 -0.320312 Z M 8 -0.320312 "/>
</g>
</svg>
