
<svg xmlns="http://www.w3.org/2000/svg" xmlns:xlink="http://www.w3.org/1999/xlink" width="16px" height="16px" viewBox="0 0 16 16" version="1.1">
<g id="surface1">
<path style=" stroke:none;fill-rule:nonzero;fill:#ff6666;fill-opacity:1;" d="M 3.429688 1.144531 C 1.535156 1.144531 0 2.675781 0 4.570312 C 0 6.464844 1.535156 8 3.429688 8 C 5.324219 8 6.855469 6.464844 6.855469 4.570312 C 6.855469 2.675781 5.324219 1.144531 3.429688 1.144531 Z M 2.285156 3.429688 C 2.917969 3.429688 3.429688 3.941406 3.429688 4.570312 C 3.429688 5.203125 2.917969 5.714844 2.285156 5.714844 C 1.652344 5.714844 1.144531 5.203125 1.144531 4.570312 C 1.144531 3.941406 1.652344 3.429688 2.285156 3.429688 Z M 2.285156 3.429688 "/>
<path style=" stroke:none;fill-rule:nonzero;fill:#ff6666;fill-opacity:1;" d="M 12.570312 1.144531 C 10.675781 1.144531 9.144531 2.675781 9.144531 4.570312 C 9.144531 6.464844 10.675781 8 12.570312 8 C 14.464844 8 16 6.464844 16 4.570312 C 16 2.675781 14.464844 1.144531 12.570312 1.144531 Z M 11.429688 3.429688 C 12.058594 3.429688 12.570312 3.941406 12.570312 4.570312 C 12.570312 5.203125 12.058594 5.714844 11.429688 5.714844 C 10.796875 5.714844 10.285156 5.203125 10.285156 4.570312 C 10.285156 3.941406 10.796875 3.429688 11.429688 3.429688 Z M 11.429688 3.429688 "/>
<path style=" stroke:none;fill-rule:nonzero;fill:#ff6666;fill-opacity:1;" d="M 7.144531 10.855469 C 7.617188 10.855469 8 11.242188 8 11.714844 L 8 14 C 8 14.472656 7.617188 14.855469 7.144531 14.855469 C 6.667969 14.855469 6.285156 14.472656 6.285156 14 L 6.285156 11.714844 C 6.285156 11.242188 6.667969 10.855469 7.144531 10.855469 Z M 7.144531 10.855469 "/>
<path style=" stroke:none;fill-rule:nonzero;fill:#ff6666;fill-opacity:1;" d="M 8.855469 10.855469 C 9.332031 10.855469 9.714844 11.242188 9.714844 11.714844 L 9.714844 14 C 9.714844 14.472656 9.332031 14.855469 8.855469 14.855469 C 8.382812 14.855469 8 14.472656 8 14 L 8 11.714844 C 8 11.242188 8.382812 10.855469 8.855469 10.855469 Z M 8.855469 10.855469 "/>
<path style=" stroke:none;fill-rule:nonzero;fill:#ff6666;fill-opacity:1;" d="M 8 8 C 7.054688 8 6.285156 8.511719 6.285156 9.144531 L 9.714844 9.144531 C 9.714844 8.511719 8.945312 8 8 8 Z M 9.714844 9.144531 C 9.714844 9.773438 8.945312 10.285156 8 10.285156 C 7.054688 10.285156 6.285156 9.773438 6.285156 9.144531 L 6 9.144531 C 5.207031 9.144531 4.570312 9.78125 4.570312 10.570312 C 4.570312 11.363281 5.207031 12 6 12 L 10 12 C 10.792969 12 11.429688 11.363281 11.429688 10.570312 C 11.429688 9.78125 10.792969 9.144531 10 9.144531 Z M 9.714844 9.144531 "/>
</g>
</svg>
