
<svg xmlns="http://www.w3.org/2000/svg" xmlns:xlink="http://www.w3.org/1999/xlink" width="16px" height="16px" viewBox="0 0 16 16" version="1.1">
<g id="surface1">
<path style=" stroke:none;fill-rule:nonzero;fill:#ff6666;fill-opacity:1;" d="M 7.523438 15.996094 C 7.546875 15.992188 7.566406 15.984375 7.570312 15.976562 C 7.582031 15.960938 7.578125 15.917969 7.558594 15.882812 C 7.542969 15.851562 7.542969 15.832031 7.554688 15.824219 C 7.558594 15.820312 7.597656 15.816406 7.644531 15.8125 C 7.742188 15.808594 7.789062 15.796875 7.824219 15.765625 C 7.878906 15.722656 7.886719 15.65625 7.851562 15.582031 C 7.820312 15.523438 7.765625 15.453125 7.699219 15.390625 C 7.59375 15.289062 7.507812 15.234375 7.394531 15.195312 C 7.300781 15.164062 7.285156 15.148438 7.269531 15.082031 C 7.265625 15.070312 7.25 15.039062 7.234375 15.015625 C 7.1875 14.949219 7.164062 14.839844 7.144531 14.605469 C 7.121094 14.347656 7.117188 14.179688 7.113281 13.421875 L 7.109375 12.644531 L 7.152344 12.5625 C 7.226562 12.417969 7.292969 12.269531 7.3125 12.21875 C 7.339844 12.125 7.355469 12.03125 7.375 11.8125 C 7.414062 11.40625 7.453125 11.28125 7.773438 10.558594 C 8.042969 9.949219 8.214844 9.527344 8.320312 9.222656 C 8.421875 8.941406 8.5 8.777344 8.578125 8.707031 C 8.601562 8.679688 8.644531 8.660156 8.667969 8.660156 C 8.707031 8.660156 8.765625 8.710938 8.816406 8.785156 C 8.863281 8.859375 8.964844 9.074219 9.035156 9.246094 C 9.15625 9.546875 9.25 9.851562 9.339844 10.214844 C 9.457031 10.683594 9.523438 10.875 9.664062 11.171875 C 9.769531 11.386719 9.785156 11.4375 9.808594 11.644531 C 9.835938 11.882812 9.886719 12.078125 9.96875 12.234375 C 10 12.296875 10.023438 12.335938 10.070312 12.382812 C 10.128906 12.445312 10.136719 12.457031 10.160156 12.542969 C 10.171875 12.589844 10.21875 12.753906 10.269531 12.914062 C 10.402344 13.371094 10.492188 13.691406 10.589844 14.097656 C 10.648438 14.332031 10.695312 14.5 10.738281 14.628906 C 10.785156 14.773438 10.789062 14.804688 10.769531 14.933594 C 10.75 15.042969 10.753906 15.109375 10.773438 15.1875 C 10.816406 15.335938 10.910156 15.421875 11.066406 15.460938 C 11.191406 15.492188 11.269531 15.496094 11.609375 15.496094 C 11.941406 15.5 11.984375 15.496094 12.070312 15.46875 C 12.117188 15.453125 12.160156 15.417969 12.175781 15.382812 C 12.179688 15.371094 12.1875 15.335938 12.191406 15.304688 C 12.195312 15.242188 12.203125 15.238281 12.242188 15.246094 C 12.277344 15.253906 12.300781 15.25 12.328125 15.226562 C 12.394531 15.164062 12.398438 14.976562 12.332031 14.917969 C 12.28125 14.867188 12.203125 14.851562 11.972656 14.839844 C 11.738281 14.832031 11.65625 14.8125 11.539062 14.75 C 11.46875 14.710938 11.414062 14.664062 11.394531 14.625 C 11.386719 14.609375 11.375 14.558594 11.363281 14.515625 C 11.355469 14.46875 11.339844 14.410156 11.332031 14.382812 C 11.304688 14.308594 11.210938 14.121094 11.101562 13.921875 C 10.9375 13.621094 10.878906 13.488281 10.816406 13.242188 C 10.792969 13.15625 10.734375 12.945312 10.683594 12.773438 C 10.632812 12.601562 10.585938 12.429688 10.578125 12.390625 C 10.558594 12.292969 10.554688 12.199219 10.566406 11.980469 C 10.578125 11.746094 10.578125 11.574219 10.566406 11.507812 C 10.5625 11.480469 10.542969 11.40625 10.523438 11.339844 C 10.476562 11.167969 10.46875 11.117188 10.46875 10.941406 C 10.46875 10.738281 10.484375 10.578125 10.558594 10.066406 C 10.632812 9.542969 10.652344 9.355469 10.65625 9.058594 C 10.660156 8.933594 10.664062 8.828125 10.664062 8.824219 C 10.667969 8.824219 10.828125 8.765625 11.023438 8.699219 C 11.21875 8.628906 11.421875 8.558594 11.472656 8.539062 C 11.925781 8.375 12.140625 8.257812 12.363281 8.054688 C 12.878906 7.585938 13.207031 6.914062 13.511719 5.703125 C 13.664062 5.105469 13.730469 4.726562 13.765625 4.300781 C 13.773438 4.222656 13.78125 4.039062 13.792969 3.714844 C 13.808594 3.308594 13.832031 3.234375 14.03125 2.898438 C 14.113281 2.757812 14.199219 2.601562 14.226562 2.527344 C 14.238281 2.5 14.257812 2.441406 14.265625 2.394531 C 14.273438 2.351562 14.285156 2.308594 14.289062 2.300781 C 14.292969 2.285156 14.460938 2.203125 14.59375 2.148438 C 14.695312 2.109375 14.898438 2.007812 14.957031 1.972656 C 14.980469 1.957031 15.023438 1.925781 15.050781 1.902344 C 15.078125 1.882812 15.105469 1.859375 15.109375 1.859375 C 15.113281 1.855469 15.148438 1.867188 15.199219 1.890625 C 15.246094 1.910156 15.308594 1.933594 15.339844 1.945312 C 15.394531 1.960938 15.40625 1.960938 15.527344 1.960938 C 15.671875 1.960938 15.726562 1.953125 15.816406 1.910156 C 15.917969 1.859375 15.949219 1.824219 15.964844 1.730469 C 15.976562 1.640625 15.960938 1.589844 15.90625 1.515625 C 15.890625 1.496094 15.898438 1.484375 15.9375 1.457031 C 15.992188 1.417969 16 1.390625 16 1.269531 C 16 1.136719 15.996094 1.132812 15.886719 1.019531 C 15.789062 0.917969 15.710938 0.816406 15.652344 0.714844 C 15.542969 0.527344 15.507812 0.476562 15.453125 0.453125 C 15.394531 0.425781 15.242188 0.414062 14.765625 0.40625 C 14.269531 0.394531 14.113281 0.382812 13.964844 0.347656 C 13.847656 0.316406 13.773438 0.277344 13.636719 0.164062 C 13.542969 0.0859375 13.53125 0.0820312 13.347656 0.0820312 C 13.183594 0.0820312 13.085938 0.0898438 12.941406 0.117188 C 12.835938 0.136719 12.769531 0.136719 12.722656 0.121094 C 12.703125 0.117188 12.652344 0.09375 12.605469 0.0703125 C 12.558594 0.0507812 12.503906 0.0273438 12.488281 0.0234375 C 12.355469 -0.0195312 12.238281 -0.00390625 12.136719 0.0664062 C 12.046875 0.132812 11.984375 0.214844 11.863281 0.445312 C 11.820312 0.523438 11.75 0.652344 11.703125 0.730469 C 11.535156 1.03125 11.480469 1.195312 11.472656 1.429688 C 11.46875 1.609375 11.480469 1.683594 11.578125 1.941406 C 11.628906 2.085938 11.628906 2.082031 11.628906 2.492188 C 11.628906 2.726562 11.625 2.894531 11.621094 2.964844 C 11.589844 3.347656 11.554688 3.664062 11.515625 3.894531 C 11.472656 4.140625 11.445312 4.21875 11.375 4.285156 C 11.289062 4.371094 11.167969 4.398438 10.878906 4.398438 C 10.636719 4.398438 10.523438 4.382812 10.410156 4.324219 C 10.222656 4.230469 9.984375 4 9.777344 3.703125 C 9.691406 3.578125 9.613281 3.453125 9.484375 3.234375 C 9.121094 2.59375 8.925781 2.351562 8.535156 2.046875 C 8.296875 1.863281 8.179688 1.691406 8.082031 1.382812 C 7.984375 1.070312 7.835938 0.84375 7.597656 0.648438 C 7.3125 0.417969 7.066406 0.335938 6.628906 0.335938 C 6.453125 0.335938 6.375 0.34375 6.261719 0.371094 C 6.019531 0.433594 5.855469 0.554688 5.753906 0.75 C 5.71875 0.824219 5.699219 0.902344 5.625 1.261719 C 5.554688 1.625 5.511719 1.765625 5.4375 1.914062 C 5.386719 2.019531 5.328125 2.097656 5.238281 2.1875 C 5.128906 2.296875 5.050781 2.335938 4.984375 2.3125 C 4.929688 2.292969 4.898438 2.25 4.691406 1.84375 C 4.503906 1.46875 4.453125 1.375 4.375 1.246094 C 4.242188 1.027344 4.132812 0.929688 3.980469 0.894531 C 3.9375 0.882812 3.898438 0.882812 3.769531 0.882812 C 3.585938 0.882812 3.566406 0.886719 3.425781 0.945312 C 3.066406 1.097656 2.789062 1.324219 2.703125 1.53125 C 2.65625 1.640625 2.476562 2.195312 2.371094 2.554688 C 2.308594 2.757812 2.285156 2.828125 2.234375 2.925781 C 2.171875 3.054688 2.136719 3.097656 1.972656 3.257812 C 1.863281 3.367188 1.800781 3.433594 1.757812 3.488281 C 1.601562 3.695312 1.464844 3.941406 1.304688 4.3125 C 1.058594 4.871094 0.972656 5.160156 0.945312 5.519531 C 0.933594 5.671875 0.941406 6.019531 0.960938 6.382812 C 0.984375 6.742188 0.984375 6.894531 0.957031 6.96875 C 0.941406 7.023438 0.886719 7.132812 0.847656 7.191406 C 0.792969 7.273438 0.761719 7.300781 0.515625 7.460938 C 0.429688 7.515625 0.347656 7.574219 0.304688 7.613281 C 0.132812 7.765625 0.015625 7.960938 0 8.128906 C -0.00390625 8.183594 0.0078125 8.21875 0.03125 8.222656 C 0.0742188 8.234375 0.324219 8.117188 0.632812 7.941406 C 0.796875 7.851562 0.890625 7.789062 1.011719 7.699219 C 1.132812 7.609375 1.171875 7.585938 1.203125 7.582031 C 1.222656 7.578125 1.230469 7.582031 1.234375 7.59375 C 1.277344 7.667969 1.441406 8.335938 1.574219 8.964844 C 1.695312 9.53125 1.722656 9.726562 1.722656 10.09375 C 1.722656 10.382812 1.703125 10.585938 1.65625 10.800781 C 1.617188 10.984375 1.613281 11.039062 1.617188 11.253906 C 1.621094 11.453125 1.628906 11.5625 1.675781 12.128906 C 1.726562 12.679688 1.734375 12.90625 1.722656 13.253906 C 1.707031 13.648438 1.652344 14.496094 1.617188 14.847656 C 1.59375 15.078125 1.578125 15.15625 1.527344 15.289062 C 1.476562 15.414062 1.457031 15.480469 1.453125 15.554688 C 1.445312 15.664062 1.472656 15.726562 1.546875 15.800781 C 1.636719 15.890625 1.769531 15.917969 2.0625 15.902344 C 2.460938 15.878906 2.523438 15.863281 2.503906 15.777344 C 2.496094 15.734375 2.496094 15.710938 2.511719 15.703125 C 2.519531 15.699219 2.550781 15.695312 2.582031 15.695312 C 2.652344 15.695312 2.714844 15.683594 2.734375 15.667969 C 2.746094 15.664062 2.757812 15.644531 2.769531 15.628906 C 2.78125 15.601562 2.785156 15.589844 2.785156 15.546875 C 2.785156 15.503906 2.78125 15.492188 2.761719 15.453125 C 2.734375 15.402344 2.660156 15.328125 2.578125 15.269531 C 2.335938 15.085938 2.164062 14.886719 2.136719 14.746094 C 2.09375 14.527344 2.101562 13.886719 2.152344 13.175781 C 2.183594 12.785156 2.195312 12.597656 2.203125 12.355469 C 2.210938 12.101562 2.214844 12.074219 2.277344 11.925781 C 2.3125 11.851562 2.351562 11.714844 2.378906 11.578125 C 2.414062 11.414062 2.417969 11.363281 2.417969 11.253906 C 2.417969 11.140625 2.40625 11.070312 2.367188 10.976562 C 2.332031 10.894531 2.328125 10.851562 2.335938 10.75 C 2.359375 10.5 2.410156 10.269531 2.480469 10.054688 C 2.539062 9.890625 2.585938 9.78125 2.707031 9.546875 C 2.871094 9.230469 2.929688 9.089844 2.953125 8.976562 C 2.992188 8.785156 3 8.402344 2.964844 8.21875 C 2.960938 8.183594 2.953125 8.125 2.953125 8.089844 C 2.957031 8.03125 2.957031 8.019531 2.972656 7.980469 C 3 7.929688 3.046875 7.882812 3.09375 7.871094 C 3.160156 7.851562 3.195312 7.859375 3.238281 7.90625 C 3.289062 7.960938 3.324219 8.054688 3.40625 8.320312 C 3.492188 8.597656 3.617188 8.976562 3.753906 9.367188 C 4.054688 10.242188 4.125 10.519531 4.207031 11.136719 C 4.273438 11.625 4.324219 11.8125 4.476562 12.152344 C 4.523438 12.257812 4.703125 12.609375 4.820312 12.824219 C 5.058594 13.261719 5.179688 13.578125 5.289062 14.042969 C 5.359375 14.328125 5.402344 14.464844 5.464844 14.589844 C 5.496094 14.648438 5.507812 14.667969 5.574219 14.730469 C 5.65625 14.808594 5.65625 14.8125 5.632812 14.867188 C 5.621094 14.890625 5.617188 14.914062 5.613281 14.976562 C 5.609375 15.078125 5.621094 15.117188 5.664062 15.152344 C 5.703125 15.1875 5.804688 15.238281 5.867188 15.25 C 5.921875 15.265625 6.082031 15.273438 6.246094 15.273438 C 6.371094 15.273438 6.503906 15.285156 6.515625 15.292969 C 6.523438 15.304688 6.515625 15.324219 6.457031 15.414062 C 6.386719 15.523438 6.371094 15.558594 6.371094 15.59375 C 6.371094 15.636719 6.398438 15.691406 6.453125 15.753906 C 6.570312 15.894531 6.707031 15.953125 6.980469 15.980469 C 7.140625 16 7.445312 16.007812 7.523438 15.996094 Z M 6.476562 14.691406 C 6.410156 14.65625 6.332031 14.589844 6.203125 14.464844 C 6.074219 14.335938 6.023438 14.277344 5.9375 14.148438 C 5.765625 13.898438 5.640625 13.5625 5.460938 12.878906 C 5.308594 12.300781 5.234375 11.9375 5.195312 11.589844 C 5.179688 11.441406 5.179688 10.941406 5.195312 10.726562 C 5.210938 10.535156 5.21875 10.132812 5.207031 10.011719 C 5.203125 9.964844 5.195312 9.878906 5.191406 9.820312 C 5.160156 9.507812 5.167969 8.980469 5.203125 8.875 C 5.210938 8.855469 5.214844 8.847656 5.230469 8.847656 C 5.261719 8.84375 5.332031 8.871094 5.460938 8.925781 C 5.660156 9.015625 5.800781 9.058594 5.960938 9.074219 C 6.125 9.089844 6.335938 9.058594 6.472656 8.996094 C 6.503906 8.984375 6.527344 8.972656 6.53125 8.976562 C 6.542969 8.984375 6.546875 9.085938 6.550781 9.480469 C 6.558594 9.980469 6.566406 10.089844 6.621094 10.46875 C 6.664062 10.789062 6.667969 10.847656 6.667969 11.042969 C 6.671875 11.238281 6.664062 11.292969 6.625 11.464844 C 6.589844 11.632812 6.578125 11.722656 6.578125 11.902344 C 6.578125 12.113281 6.597656 12.277344 6.652344 12.5 C 6.777344 13.054688 6.792969 13.539062 6.699219 14.097656 C 6.664062 14.320312 6.578125 14.679688 6.558594 14.707031 C 6.546875 14.71875 6.527344 14.714844 6.476562 14.691406 Z M 6.476562 14.691406 "/>
</g>
</svg>
