
<svg xmlns="http://www.w3.org/2000/svg" xmlns:xlink="http://www.w3.org/1999/xlink" width="16px" height="16px" viewBox="0 0 16 16" version="1.1">
<g id="surface1">
<path style=" stroke:none;fill-rule:nonzero;fill:rgb(57.647061%,58.431375%,59.215689%);fill-opacity:1;" d="M 1.855469 6.6875 L 0.988281 7.820312 L 2.414062 8.605469 L 2.414062 2.703125 L 13.585938 2.703125 L 13.585938 8.605469 L 15.011719 7.820312 L 14.144531 6.6875 L 14.144531 2.417969 C 14.144531 2.261719 14.015625 2.132812 13.863281 2.132812 L 10.664062 2.132812 L 9.667969 0.832031 C 9.480469 0.589844 9.257812 0.398438 9.011719 0.261719 C 8.804688 0.144531 8.574219 0.0664062 8.347656 0.03125 C 8.230469 0.0117188 8.113281 0 7.996094 0 C 7.957031 0 7.921875 0 7.878906 0.00390625 C 7.566406 0.0195312 7.257812 0.109375 6.980469 0.261719 C 6.945312 0.285156 6.910156 0.304688 6.878906 0.324219 C 6.816406 0.367188 6.75 0.417969 6.683594 0.46875 C 6.585938 0.546875 6.496094 0.636719 6.414062 0.734375 C 6.382812 0.765625 6.359375 0.800781 6.332031 0.832031 L 5.335938 2.132812 L 2.136719 2.132812 C 1.984375 2.132812 1.855469 2.261719 1.855469 2.417969 Z M 15.199219 8.421875 L 8.640625 12.035156 L 15.199219 15.648438 Z M 7.359375 12.035156 L 0.800781 8.421875 L 0.800781 15.648438 Z M 7.996094 12.386719 L 1.441406 16 L 14.558594 16 Z M 7.996094 12.386719 "/>
<path style=" stroke:none;fill-rule:nonzero;fill:rgb(57.647061%,58.431375%,59.215689%);fill-opacity:1;" d="M 4.359375 4.414062 L 11.582031 4.414062 C 11.707031 4.414062 11.808594 4.308594 11.808594 4.179688 C 11.808594 4.050781 11.707031 3.949219 11.582031 3.949219 L 4.359375 3.949219 C 4.230469 3.949219 4.128906 4.050781 4.128906 4.179688 C 4.128906 4.308594 4.234375 4.414062 4.359375 4.414062 Z M 4.359375 5.996094 L 11.582031 5.996094 C 11.707031 5.996094 11.808594 5.890625 11.808594 5.761719 C 11.808594 5.632812 11.707031 5.53125 11.582031 5.53125 L 4.359375 5.53125 C 4.230469 5.53125 4.128906 5.632812 4.128906 5.761719 C 4.128906 5.890625 4.234375 5.996094 4.359375 5.996094 Z M 4.359375 7.582031 L 11.582031 7.582031 C 11.707031 7.582031 11.808594 7.476562 11.808594 7.347656 C 11.808594 7.21875 11.707031 7.117188 11.582031 7.117188 L 4.359375 7.117188 C 4.230469 7.117188 4.128906 7.21875 4.128906 7.347656 C 4.128906 7.476562 4.234375 7.582031 4.359375 7.582031 Z M 4.359375 9.167969 L 11.582031 9.167969 C 11.707031 9.167969 11.808594 9.066406 11.808594 8.933594 C 11.808594 8.804688 11.707031 8.703125 11.582031 8.703125 L 4.359375 8.703125 C 4.230469 8.703125 4.128906 8.804688 4.128906 8.933594 C 4.128906 9.066406 4.234375 9.167969 4.359375 9.167969 Z M 4.359375 9.167969 "/>
</g>
</svg>
