
<svg xmlns="http://www.w3.org/2000/svg" xmlns:xlink="http://www.w3.org/1999/xlink" width="16px" height="16px" viewBox="0 0 16 16" version="1.1">
<g id="surface1">
<path style=" stroke:none;fill-rule:nonzero;fill:#ff6666;fill-opacity:1;" d="M 5.761719 11.519531 L 5.761719 16 L 10.238281 16 L 10.238281 11.519531 Z M 6.398438 12.160156 L 9.601562 12.160156 L 9.601562 15.359375 L 6.398438 15.359375 Z M 6.398438 12.160156 "/>
<path style=" stroke:none;fill-rule:nonzero;fill:#ff6666;fill-opacity:1;" d="M 0 5.761719 L 0 10.238281 L 4.480469 10.238281 L 4.480469 5.761719 Z M 0.640625 6.398438 L 3.839844 6.398438 L 3.839844 9.601562 L 0.640625 9.601562 Z M 0.640625 6.398438 "/>
<path style=" stroke:none;fill-rule:nonzero;fill:#ff6666;fill-opacity:1;" d="M 5.761719 0 L 5.761719 4.480469 L 10.238281 4.480469 L 10.238281 0 Z M 6.398438 0.640625 L 9.601562 0.640625 L 9.601562 3.839844 L 6.398438 3.839844 Z M 6.398438 0.640625 "/>
<path style=" stroke:none;fill-rule:nonzero;fill:#ff6666;fill-opacity:1;" d="M 5.761719 5.761719 L 5.761719 10.238281 L 10.238281 10.238281 L 10.238281 5.761719 Z M 5.761719 5.761719 "/>
<path style=" stroke:none;fill-rule:nonzero;fill:#ff6666;fill-opacity:1;" d="M 11.519531 5.761719 L 11.519531 10.238281 L 16 10.238281 L 16 5.761719 Z M 12.160156 6.398438 L 15.359375 6.398438 L 15.359375 9.601562 L 12.160156 9.601562 Z M 12.160156 6.398438 "/>
<path style=" stroke:none;fill-rule:nonzero;fill:#ff6666;fill-opacity:1;" d="M 11.519531 11.519531 L 11.519531 16 L 16 16 L 16 11.519531 Z M 11.519531 11.519531 "/>
<path style=" stroke:none;fill-rule:nonzero;fill:#ff6666;fill-opacity:1;" d="M 0 11.519531 L 0 16 L 4.480469 16 L 4.480469 11.519531 Z M 0 11.519531 "/>
<path style=" stroke:none;fill-rule:nonzero;fill:#ff6666;fill-opacity:1;" d="M 0 0 L 0 4.480469 L 4.480469 4.480469 L 4.480469 0 Z M 0 0 "/>
</g>
</svg>
