
<svg xmlns="http://www.w3.org/2000/svg" xmlns:xlink="http://www.w3.org/1999/xlink" width="16px" height="16px" viewBox="0 0 16 16" version="1.1">
<g id="surface1">
<path style=" stroke:none;fill-rule:nonzero;fill:#ff6666;fill-opacity:1;" d="M 15.101562 0 C 14.859375 0 14.625 0.0820312 14.425781 0.25 L 8.199219 5.425781 C 8.125 5.472656 8.070312 5.53125 8 5.597656 L 4 8.800781 L 7.199219 12 L 10.402344 8 L 15.75 1.574219 C 16.082031 1.175781 16.082031 0.582031 15.75 0.25 C 15.574219 0.0859375 15.34375 -0.00390625 15.101562 0 Z M 8.800781 6.398438 L 9.601562 7.199219 L 7.199219 10 L 6 8.800781 Z M 8.800781 6.726562 L 8.777344 6.773438 C 8.789062 6.765625 8.789062 6.738281 8.800781 6.726562 Z M 3.199219 9.601562 L 0.476562 11.023438 C 0.210938 11.160156 0 11.359375 0 11.625 C 0 11.890625 0.0078125 12.277344 0.0742188 12.675781 L 2.800781 10.949219 L 0.125 12.949219 C 0.257812 13.546875 0.601562 14.195312 1.199219 14.726562 C 1.53125 15.054688 1.867188 15.277344 2.199219 15.476562 L 3.425781 14.476562 L 2.652344 15.675781 C 3.316406 16.007812 3.976562 16 4.375 16 C 4.640625 16 4.875 15.808594 4.976562 15.601562 L 6.402344 12.800781 Z M 3.199219 9.601562 "/>
</g>
</svg>
