
<svg xmlns="http://www.w3.org/2000/svg" xmlns:xlink="http://www.w3.org/1999/xlink" width="16px" height="16px" viewBox="0 0 16 16" version="1.1">
<g id="surface1">
<path style=" stroke:none;fill-rule:nonzero;fill:#ff6666;fill-opacity:1;" d="M 3.375 12.769531 C 3.375 13.355469 3.53125 13.773438 3.84375 14.035156 C 4.167969 14.300781 4.636719 14.441406 5.25 14.453125 L 5.25 15.652344 C 4.21875 15.640625 3.417969 15.386719 2.855469 14.90625 C 2.285156 14.417969 2.003906 13.734375 2.003906 12.855469 L 2.003906 10.261719 C 2.003906 9.667969 1.835938 9.246094 1.488281 8.996094 C 1.148438 8.738281 0.648438 8.609375 0 8.609375 L 0 7.398438 C 0.703125 7.386719 1.214844 7.253906 1.527344 6.988281 C 1.847656 6.726562 2.003906 6.324219 2.003906 5.773438 L 2.003906 3.152344 C 2.003906 2.265625 2.296875 1.578125 2.882812 1.085938 C 3.46875 0.597656 4.261719 0.351562 5.253906 0.351562 L 5.253906 1.542969 C 4 1.578125 3.375 2.144531 3.375 3.246094 L 3.375 5.773438 C 3.375 7 2.765625 7.722656 1.554688 7.949219 L 1.554688 8.054688 C 2.765625 8.273438 3.375 9 3.375 10.230469 L 3.375 12.773438 "/>
<path style=" stroke:none;fill-rule:nonzero;fill:#ff6666;fill-opacity:1;" d="M 14.429688 7.945312 C 13.214844 7.722656 12.605469 7 12.605469 5.769531 L 12.605469 3.242188 C 12.605469 2.140625 11.992188 1.574219 10.753906 1.539062 L 10.753906 0.347656 C 11.757812 0.347656 12.542969 0.59375 13.117188 1.09375 C 13.6875 1.59375 13.976562 2.273438 13.976562 3.152344 L 13.976562 5.769531 C 13.976562 6.328125 14.136719 6.734375 14.457031 6.992188 C 14.78125 7.25 15.296875 7.386719 16 7.394531 L 16 8.605469 C 15.335938 8.605469 14.832031 8.734375 14.492188 8.992188 C 14.148438 9.246094 13.976562 9.667969 13.976562 10.261719 L 13.976562 12.855469 C 13.976562 13.726562 13.695312 14.40625 13.140625 14.890625 C 12.582031 15.386719 11.792969 15.636719 10.753906 15.648438 L 10.753906 14.449219 C 11.355469 14.4375 11.820312 14.296875 12.136719 14.035156 C 12.449219 13.769531 12.605469 13.351562 12.605469 12.769531 L 12.605469 10.226562 C 12.605469 9.578125 12.757812 9.078125 13.058594 8.734375 C 13.355469 8.394531 13.8125 8.164062 14.429688 8.050781 L 14.429688 7.945312 "/>
</g>
</svg>
