
<svg xmlns="http://www.w3.org/2000/svg" xmlns:xlink="http://www.w3.org/1999/xlink" width="16px" height="16px" viewBox="0 0 16 16" version="1.1">
<g id="surface1">
<path style=" stroke:none;fill-rule:nonzero;fill:#ff6666;fill-opacity:1;" d="M 5.1875 12.308594 C 6.609375 10.828125 7.910156 9.285156 8.074219 8.886719 C 8.242188 8.484375 8.894531 7.691406 9.53125 7.125 C 11.191406 5.644531 12.160156 5.761719 12.992188 7.542969 C 13.203125 7.996094 13.496094 8.367188 13.640625 8.367188 C 13.972656 8.367188 15.5 6.882812 15.5 6.558594 C 15.5 6.140625 14.714844 5.421875 14.261719 5.421875 C 13.78125 5.421875 13.324219 4.734375 13.324219 4.011719 C 13.324219 3.46875 11.824219 1.953125 10.734375 1.394531 C 10.214844 1.128906 9.320312 1 8.027344 1 C 6.066406 1 5.25 1.324219 6.503906 1.605469 C 6.878906 1.6875 7.589844 2.089844 8.078125 2.5 C 9.339844 3.554688 9.289062 4.347656 7.851562 6.058594 C 7.234375 6.789062 6.582031 7.386719 6.398438 7.386719 C 5.988281 7.386719 0.5 12.488281 0.5 12.867188 C 0.5 13.152344 2.183594 15 2.445312 15 C 2.53125 15 3.765625 13.789062 5.1875 12.308594 Z M 5.1875 12.308594 "/>
</g>
</svg>
