
<svg xmlns="http://www.w3.org/2000/svg" xmlns:xlink="http://www.w3.org/1999/xlink" width="16px" height="16px" viewBox="0 0 16 16" version="1.1">
<g id="surface1">
<path style=" stroke:none;fill-rule:nonzero;fill:#ff6666;fill-opacity:1;" d="M 9.816406 3.753906 L 9.816406 4.03125 L 10.003906 4.03125 C 10.496094 4.03125 10.664062 4.09375 10.835938 4.34375 L 12.484375 6.84375 L 11.003906 9.007812 C 10.878906 9.1875 10.613281 9.601562 9.707031 9.601562 L 9.707031 9.878906 L 10.707031 9.84375 C 11.039062 9.84375 11.53125 9.851562 11.855469 9.878906 L 11.855469 9.601562 C 11.441406 9.59375 11.28125 9.335938 11.28125 9.175781 C 11.28125 9.09375 11.308594 9.070312 11.371094 8.972656 L 12.648438 7.085938 L 14.054688 9.230469 C 14.074219 9.269531 14.113281 9.296875 14.113281 9.324219 C 14.113281 9.433594 13.90625 9.59375 13.519531 9.601562 L 13.519531 9.878906 C 13.832031 9.851562 14.492188 9.84375 14.832031 9.84375 L 16 9.878906 L 16 9.601562 L 15.832031 9.601562 C 15.367188 9.601562 15.171875 9.546875 14.980469 9.269531 L 13.09375 6.417969 L 14.316406 4.625 C 14.511719 4.335938 14.832031 4.039062 15.628906 4.03125 L 15.628906 3.753906 L 14.628906 3.789062 C 14.273438 3.789062 13.839844 3.78125 13.484375 3.753906 L 13.484375 4.03125 C 13.839844 4.039062 14.039062 4.230469 14.039062 4.4375 C 14.039062 4.527344 14.027344 4.5625 13.964844 4.660156 L 12.925781 6.160156 L 11.78125 4.4375 C 11.761719 4.410156 11.722656 4.34375 11.722656 4.308594 C 11.722656 4.199219 11.914062 4.039062 12.296875 4.03125 L 12.296875 3.753906 C 11.984375 3.78125 11.324219 3.789062 10.984375 3.789062 Z M 0.167969 3.753906 L 0 5.769531 L 0.222656 5.769531 C 0.347656 4.328125 0.480469 4.03125 1.832031 4.03125 C 1.992188 4.03125 2.222656 4.03125 2.3125 4.050781 C 2.5 4.085938 2.515625 4.175781 2.515625 4.382812 L 2.515625 9.207031 C 2.515625 9.511719 2.515625 9.667969 1.574219 9.648438 L 1.203125 9.648438 L 1.203125 9.925781 C 1.570312 9.902344 2.492188 9.890625 2.90625 9.890625 C 3.316406 9.890625 4.242188 9.898438 4.609375 9.925781 L 4.609375 9.648438 L 4.238281 9.648438 C 3.296875 9.648438 3.3125 9.511719 3.3125 9.207031 L 3.3125 4.382812 C 3.3125 4.203125 3.300781 4.085938 3.460938 4.050781 C 3.558594 4.03125 3.808594 4.03125 3.980469 4.03125 C 5.332031 4.03125 5.464844 4.328125 5.589844 5.769531 L 5.8125 5.769531 L 5.644531 3.753906 Z M 4.972656 6.113281 L 4.972656 6.390625 L 5.195312 6.390625 C 5.886719 6.390625 5.898438 6.476562 5.898438 6.796875 L 5.898438 11.542969 C 5.898438 11.867188 5.886719 11.96875 5.195312 11.96875 L 4.972656 11.96875 L 4.972656 12.246094 L 10.136719 12.246094 L 10.527344 9.933594 L 10.285156 9.933594 C 10.0625 11.3125 9.863281 11.96875 8.324219 11.96875 L 7.136719 11.96875 C 6.71875 11.96875 6.695312 11.894531 6.695312 11.597656 L 6.695312 9.1875 L 7.488281 9.1875 C 8.359375 9.1875 8.472656 9.484375 8.472656 10.242188 L 8.691406 10.242188 L 8.691406 7.855469 L 8.472656 7.855469 C 8.472656 8.628906 8.359375 8.910156 7.488281 8.910156 L 6.695312 8.910156 L 6.695312 6.742188 C 6.695312 6.445312 6.71875 6.390625 7.136719 6.390625 L 8.285156 6.390625 C 9.65625 6.390625 9.902344 6.867188 10.042969 8.113281 L 10.265625 8.113281 L 10.007812 6.113281 Z M 4.972656 6.113281 "/>
</g>
</svg>
