
<svg xmlns="http://www.w3.org/2000/svg" xmlns:xlink="http://www.w3.org/1999/xlink" width="16px" height="16px" viewBox="0 0 16 16" version="1.1">
<g id="surface1">
<path style=" stroke:none;fill-rule:nonzero;fill:#ff6666;fill-opacity:1;" d="M 13.777344 8.898438 C 13.21875 8.902344 12.734375 9.035156 12.328125 9.234375 C 12.179688 8.9375 12.03125 8.675781 12.003906 8.484375 C 11.972656 8.257812 11.9375 8.121094 11.972656 7.851562 C 12.007812 7.582031 12.167969 7.199219 12.164062 7.171875 C 12.160156 7.140625 12.128906 7.003906 11.808594 7 C 11.484375 7 11.207031 7.0625 11.175781 7.148438 C 11.144531 7.234375 11.082031 7.425781 11.042969 7.625 C 10.984375 7.917969 10.398438 8.960938 10.0625 9.507812 C 9.953125 9.292969 9.859375 9.105469 9.839844 8.957031 C 9.8125 8.730469 9.777344 8.59375 9.8125 8.324219 C 9.847656 8.058594 10.003906 7.671875 10 7.644531 C 10 7.617188 9.964844 7.476562 9.644531 7.476562 C 9.324219 7.472656 9.046875 7.535156 9.011719 7.621094 C 8.980469 7.707031 8.945312 7.90625 8.878906 8.097656 C 8.8125 8.289062 8.03125 10.03125 7.828125 10.480469 C 7.722656 10.714844 7.632812 10.898438 7.566406 11.023438 C 7.566406 11.023438 7.5625 11.03125 7.554688 11.046875 C 7.5 11.15625 7.46875 11.214844 7.46875 11.214844 C 7.421875 11.292969 7.378906 11.367188 7.355469 11.367188 C 7.335938 11.367188 7.304688 11.15625 7.359375 10.871094 C 7.476562 10.265625 7.753906 9.324219 7.75 9.292969 C 7.75 9.273438 7.804688 9.113281 7.570312 9.027344 C 7.34375 8.941406 7.261719 9.082031 7.238281 9.082031 C 7.21875 9.082031 7.203125 9.132812 7.203125 9.132812 C 7.203125 9.132812 7.457031 8.074219 6.71875 8.074219 C 6.257812 8.074219 5.621094 8.578125 5.304688 9.035156 C 5.105469 9.144531 4.683594 9.375 4.230469 9.621094 C 4.058594 9.71875 3.878906 9.816406 3.710938 9.90625 C 3.699219 9.894531 3.6875 9.878906 3.675781 9.867188 C 2.78125 8.914062 1.128906 8.238281 1.199219 6.953125 C 1.226562 6.488281 1.386719 5.261719 4.375 3.769531 C 6.835938 2.554688 8.792969 2.894531 9.132812 3.636719 C 9.617188 4.703125 8.085938 6.675781 5.542969 6.964844 C 4.570312 7.070312 4.0625 6.699219 3.933594 6.558594 C 3.800781 6.410156 3.78125 6.402344 3.730469 6.433594 C 3.648438 6.476562 3.699219 6.605469 3.730469 6.683594 C 3.804688 6.882812 4.117188 7.234375 4.648438 7.40625 C 5.113281 7.558594 6.25 7.640625 7.628906 7.109375 C 9.167969 6.511719 10.371094 4.855469 10.019531 3.46875 C 9.664062 2.058594 7.328125 1.59375 5.113281 2.382812 C 3.800781 2.847656 2.375 3.585938 1.347656 4.542969 C 0.128906 5.683594 -0.0625 6.675781 0.015625 7.089844 C 0.300781 8.5625 2.328125 9.519531 3.140625 10.230469 C 3.101562 10.253906 3.0625 10.273438 3.03125 10.292969 C 2.625 10.492188 1.078125 11.304688 0.691406 12.160156 C 0.253906 13.128906 0.761719 13.824219 1.097656 13.917969 C 2.140625 14.207031 3.210938 13.6875 3.789062 12.828125 C 4.363281 11.96875 4.292969 10.851562 4.027344 10.34375 C 4.023438 10.335938 4.023438 10.332031 4.015625 10.324219 C 4.121094 10.261719 4.230469 10.199219 4.335938 10.136719 C 4.542969 10.015625 4.746094 9.902344 4.921875 9.808594 C 4.824219 10.078125 4.75 10.402344 4.714844 10.871094 C 4.671875 11.421875 4.894531 12.132812 5.191406 12.414062 C 5.324219 12.535156 5.476562 12.539062 5.578125 12.539062 C 5.921875 12.539062 6.078125 12.253906 6.25 11.914062 C 6.460938 11.5 6.648438 11.015625 6.648438 11.015625 C 6.648438 11.015625 6.414062 12.320312 7.054688 12.320312 C 7.289062 12.320312 7.527344 12.015625 7.632812 11.863281 C 7.632812 11.863281 7.636719 11.855469 7.648438 11.835938 C 7.671875 11.796875 7.6875 11.773438 7.6875 11.773438 C 7.6875 11.773438 7.6875 11.769531 7.6875 11.769531 C 7.78125 11.605469 7.992188 11.234375 8.304688 10.617188 C 8.707031 9.820312 9.09375 8.828125 9.09375 8.828125 C 9.09375 8.828125 9.128906 9.070312 9.25 9.472656 C 9.320312 9.710938 9.464844 9.96875 9.582031 10.222656 C 9.488281 10.355469 9.429688 10.425781 9.429688 10.425781 C 9.429688 10.425781 9.429688 10.425781 9.433594 10.429688 C 9.359375 10.527344 9.277344 10.636719 9.1875 10.742188 C 8.867188 11.121094 8.488281 11.558594 8.433594 11.683594 C 8.375 11.832031 8.386719 11.941406 8.503906 12.027344 C 8.589844 12.09375 8.742188 12.101562 8.898438 12.09375 C 9.183594 12.070312 9.386719 12 9.484375 11.957031 C 9.640625 11.902344 9.820312 11.816406 9.988281 11.691406 C 10.300781 11.460938 10.492188 11.128906 10.476562 10.695312 C 10.464844 10.457031 10.386719 10.214844 10.289062 9.992188 C 10.320312 9.949219 10.347656 9.910156 10.375 9.867188 C 10.871094 9.144531 11.253906 8.355469 11.253906 8.355469 C 11.253906 8.355469 11.289062 8.597656 11.40625 9 C 11.464844 9.203125 11.585938 9.425781 11.691406 9.644531 C 11.226562 10.019531 10.941406 10.457031 10.835938 10.746094 C 10.652344 11.277344 10.796875 11.515625 11.066406 11.570312 C 11.191406 11.597656 11.367188 11.539062 11.496094 11.484375 C 11.660156 11.433594 11.851562 11.339844 12.035156 11.207031 C 12.347656 10.976562 12.648438 10.65625 12.632812 10.21875 C 12.621094 10.019531 12.570312 9.824219 12.496094 9.632812 C 12.890625 9.472656 13.398438 9.378906 14.050781 9.457031 C 15.441406 9.621094 15.714844 10.488281 15.664062 10.851562 C 15.609375 11.21875 15.316406 11.417969 15.222656 11.480469 C 15.125 11.539062 15.09375 11.558594 15.101562 11.605469 C 15.113281 11.667969 15.160156 11.664062 15.242188 11.652344 C 15.355469 11.632812 15.972656 11.359375 16 10.6875 C 16.042969 9.828125 15.222656 8.890625 13.777344 8.898438 Z M 3.046875 12.515625 C 2.585938 13.019531 1.941406 13.207031 1.664062 13.046875 C 1.367188 12.875 1.484375 12.132812 2.050781 11.601562 C 2.394531 11.277344 2.839844 10.976562 3.132812 10.792969 C 3.199219 10.75 3.300781 10.691406 3.421875 10.621094 C 3.441406 10.609375 3.453125 10.601562 3.453125 10.601562 C 3.476562 10.585938 3.5 10.574219 3.523438 10.558594 C 3.730469 11.316406 3.53125 11.988281 3.046875 12.515625 Z M 6.40625 10.230469 C 6.246094 10.621094 5.910156 11.625 5.707031 11.570312 C 5.53125 11.523438 5.421875 10.761719 5.671875 10.011719 C 5.796875 9.636719 6.0625 9.183594 6.21875 9.007812 C 6.46875 8.730469 6.746094 8.636719 6.8125 8.75 C 6.898438 8.898438 6.507812 9.984375 6.40625 10.230469 Z M 9.179688 11.558594 C 9.113281 11.59375 9.046875 11.617188 9.019531 11.597656 C 9 11.585938 9.046875 11.539062 9.046875 11.539062 C 9.046875 11.539062 9.394531 11.167969 9.535156 10.996094 C 9.613281 10.898438 9.707031 10.78125 9.804688 10.648438 C 9.804688 10.660156 9.804688 10.675781 9.804688 10.6875 C 9.804688 11.132812 9.375 11.433594 9.179688 11.558594 Z M 11.320312 11.070312 C 11.269531 11.035156 11.277344 10.917969 11.445312 10.550781 C 11.507812 10.410156 11.660156 10.167969 11.921875 9.9375 C 11.949219 10.03125 11.972656 10.121094 11.96875 10.207031 C 11.964844 10.773438 11.5625 10.980469 11.320312 11.070312 Z M 11.320312 11.070312 "/>
</g>
</svg>
