
<svg xmlns="http://www.w3.org/2000/svg" xmlns:xlink="http://www.w3.org/1999/xlink" width="16px" height="16px" viewBox="0 0 16 16" version="1.1">
<g id="surface1">
<path style=" stroke:none;fill-rule:evenodd;fill:#ff6666;fill-opacity:1;" d="M 11.652344 1.109375 C 11.652344 0.496094 12.148438 0 12.761719 0 C 13.375 0 13.875 0.496094 13.875 1.109375 C 13.875 1.722656 13.375 2.222656 12.761719 2.222656 C 12.148438 2.222656 11.652344 1.722656 11.652344 1.109375 Z M 1.875 14.890625 C 1.875 14.277344 2.371094 13.777344 2.984375 13.777344 C 3.597656 13.777344 4.09375 14.277344 4.09375 14.890625 C 4.09375 15.503906 3.597656 16 2.984375 16 C 2.371094 16 1.875 15.503906 1.875 14.890625 Z M 1.875 2.222656 C 1.875 1.730469 2.273438 1.332031 2.761719 1.332031 C 3.253906 1.332031 3.652344 1.730469 3.652344 2.222656 C 3.652344 2.710938 3.253906 3.109375 2.761719 3.109375 C 2.273438 3.109375 1.875 2.710938 1.875 2.222656 Z M 8.09375 1.777344 C 5.242188 1.78125 2.757812 3.722656 2.066406 6.492188 C 3.164062 5.242188 5.511719 4.445312 8.09375 4.445312 C 10.679688 4.445312 13.03125 5.246094 14.125 6.496094 C 13.4375 3.726562 10.949219 1.78125 8.09375 1.777344 Z M 2.0625 9.503906 C 2.753906 12.273438 5.242188 14.21875 8.09375 14.222656 C 10.949219 14.21875 13.433594 12.277344 14.125 9.507812 C 13.027344 10.757812 10.679688 11.554688 8.09375 11.554688 C 5.507812 11.554688 3.160156 10.753906 2.0625 9.503906 Z M 2.0625 9.503906 "/>
</g>
</svg>
