
<svg xmlns="http://www.w3.org/2000/svg" xmlns:xlink="http://www.w3.org/1999/xlink" width="16px" height="16px" viewBox="0 0 16 16" version="1.1">
<g id="surface1">
<path style=" stroke:none;fill-rule:nonzero;fill:#ff6666;fill-opacity:1;" d="M 8.628906 0.246094 C 5.921875 0.726562 3.210938 1.367188 0.5 1.839844 C 0.5 5.960938 0.5 10.085938 0.5 14.207031 C 3.195312 14.679688 5.890625 15.308594 8.582031 15.800781 L 9.390625 15.800781 L 9.390625 0.246094 Z M 6.820312 5.09375 C 6.347656 6.058594 5.875 7.027344 5.394531 7.988281 C 5.882812 8.980469 6.378906 9.960938 6.867188 10.949219 C 6.441406 10.925781 6.015625 10.898438 5.589844 10.871094 C 5.289062 10.132812 4.921875 9.421875 4.707031 8.652344 C 4.46875 9.367188 4.125 10.042969 3.847656 10.75 C 3.460938 10.746094 3.074219 10.726562 2.6875 10.710938 C 3.140625 9.820312 3.582031 8.925781 4.046875 8.042969 C 3.652344 7.132812 3.214844 6.238281 2.804688 5.335938 C 3.195312 5.3125 3.582031 5.289062 3.972656 5.269531 C 4.234375 5.960938 4.523438 6.640625 4.738281 7.347656 C 4.972656 6.597656 5.320312 5.890625 5.621094 5.164062 C 6.019531 5.140625 6.421875 5.113281 6.820312 5.09375 Z M 6.820312 5.09375 "/>
<path style=" stroke:none;fill-rule:nonzero;fill:#ff6666;fill-opacity:1;" d="M 9.945312 2.46875 L 9.945312 3.578125 L 11.609375 3.578125 L 11.609375 4.6875 L 9.945312 4.6875 L 9.945312 5.246094 L 11.609375 5.246094 L 11.609375 6.359375 L 9.945312 6.359375 L 9.945312 6.910156 L 11.609375 6.910156 L 11.609375 8.023438 L 9.945312 8.023438 L 9.945312 8.578125 L 11.609375 8.578125 L 11.609375 9.6875 L 9.945312 9.6875 L 9.945312 10.246094 L 11.609375 10.246094 L 11.609375 11.355469 L 9.945312 11.355469 L 9.945312 11.910156 L 11.609375 11.910156 L 11.609375 13.023438 L 9.945312 13.023438 L 9.945312 14.132812 L 15.5 14.132812 L 15.5 2.46875 Z M 12.167969 3.578125 L 14.390625 3.578125 L 14.390625 4.6875 L 12.167969 4.6875 Z M 12.167969 5.246094 L 14.390625 5.246094 L 14.390625 6.359375 L 12.167969 6.359375 Z M 12.167969 6.910156 L 14.390625 6.910156 L 14.390625 8.023438 L 12.167969 8.023438 Z M 12.167969 8.578125 L 14.390625 8.578125 L 14.390625 9.6875 L 12.167969 9.6875 Z M 12.167969 10.246094 L 14.390625 10.246094 L 14.390625 11.355469 L 12.167969 11.355469 Z M 12.167969 11.910156 L 14.390625 11.910156 L 14.390625 13.023438 L 12.167969 13.023438 Z M 12.167969 11.910156 "/>
</g>
</svg>
