
<svg xmlns="http://www.w3.org/2000/svg" xmlns:xlink="http://www.w3.org/1999/xlink" width="16px" height="16px" viewBox="0 0 16 16" version="1.1">
<g id="surface1">
<path style=" stroke:none;fill-rule:nonzero;fill:#ff6666;fill-opacity:1;" d="M 8.183594 1.085938 C 5.617188 1.011719 3.21875 2.351562 1.933594 4.574219 C 0.00390625 7.917969 1.15625 12.207031 4.503906 14.140625 C 7.851562 16.070312 12.136719 14.929688 14.066406 11.589844 C 15.996094 8.246094 14.84375 3.953125 11.496094 2.019531 C 10.488281 1.4375 9.347656 1.113281 8.183594 1.085938 Z M 8 2.078125 C 11.3125 2.078125 14 4.765625 14 8.078125 C 14 11.394531 11.3125 14.078125 8 14.078125 C 4.6875 14.078125 2 11.394531 2 8.078125 C 2 4.765625 4.6875 2.078125 8 2.078125 Z M 8 2.078125 "/>
<path style=" stroke:none;fill-rule:nonzero;fill:#ff6666;fill-opacity:1;" d="M 9.320312 0 L 6.691406 0.394531 L 6.691406 1.746094 C 7.558594 1.570312 8.453125 1.570312 9.320312 1.753906 Z M 3.9375 1.191406 L 1.929688 2.894531 L 2.917969 4.074219 C 3.46875 3.378906 4.15625 2.800781 4.9375 2.382812 Z M 12.066406 1.203125 L 11.070312 2.386719 C 11.128906 2.417969 11.1875 2.445312 11.242188 2.476562 C 11.953125 2.890625 12.578125 3.433594 13.085938 4.082031 L 14.09375 2.882812 Z M 0.453125 5.421875 L 0.015625 8.015625 L 1.53125 8.28125 C 1.503906 7.398438 1.65625 6.515625 1.984375 5.691406 Z M 15.539062 5.425781 L 14.019531 5.691406 C 14.347656 6.515625 14.507812 7.398438 14.480469 8.28125 L 16.015625 8.011719 Z M 1.859375 10.117188 L 0.507812 10.898438 L 1.835938 13.171875 L 3.175781 12.398438 C 2.585938 11.734375 2.136719 10.960938 1.859375 10.117188 Z M 14.160156 10.121094 C 14.023438 10.542969 13.84375 10.949219 13.625 11.335938 C 13.402344 11.71875 13.144531 12.078125 12.851562 12.40625 L 14.1875 13.179688 L 15.492188 10.890625 Z M 4.601562 13.59375 L 4.066406 15.0625 L 6.546875 15.945312 L 7.074219 14.5 C 6.261719 14.382812 5.480469 14.109375 4.769531 13.699219 C 4.714844 13.664062 4.65625 13.628906 4.601562 13.59375 Z M 11.414062 13.609375 C 10.660156 14.074219 9.820312 14.378906 8.941406 14.507812 L 9.472656 15.960938 L 11.9375 15.046875 Z M 11.414062 13.609375 "/>
<path style=" stroke:none;fill-rule:nonzero;fill:#ff6666;fill-opacity:1;" d="M 7.648438 3.09375 C 5.988281 3.207031 4.496094 4.136719 3.664062 5.574219 C 2.292969 7.972656 3.113281 11.027344 5.503906 12.410156 C 7.890625 13.789062 10.949219 12.972656 12.332031 10.585938 C 13.707031 8.191406 12.886719 5.132812 10.496094 3.753906 C 9.632812 3.253906 8.640625 3.023438 7.648438 3.09375 Z M 8 4.078125 C 10.210938 4.078125 12 5.871094 12 8.078125 C 12 10.289062 10.210938 12.078125 8 12.078125 C 5.789062 12.078125 4 10.289062 4 8.078125 C 4 5.871094 5.789062 4.078125 8 4.078125 Z M 8 4.078125 "/>
</g>
</svg>
