
<svg xmlns="http://www.w3.org/2000/svg" xmlns:xlink="http://www.w3.org/1999/xlink" width="16px" height="16px" viewBox="0 0 16 16" version="1.1">
<g id="surface1">
<path style=" stroke:none;fill-rule:evenodd;fill:#ff6666;fill-opacity:1;" d="M 8.0625 2.515625 C 8.0625 2.515625 7.449219 3 6.824219 3.484375 C 6.183594 3.460938 4.921875 3.605469 4.238281 3.855469 C 3.609375 3.457031 3.054688 3.015625 3.054688 3.015625 C 3.054688 3.015625 2.582031 3.828125 2.285156 4.304688 C 1.84375 4.539062 1.402344 4.804688 1.007812 5.152344 C 0.550781 4.96875 0.015625 4.75 0 4.742188 C 0.609375 5.964844 1.015625 7.195312 2.128906 7.929688 C 3.894531 5.136719 12.117188 5.394531 13.921875 7.914062 C 15.085938 7.308594 15.542969 5.996094 16 4.789062 C 15.949219 4.804688 15.324219 5.015625 14.921875 5.167969 C 14.679688 4.90625 14.109375 4.5 13.785156 4.304688 C 13.480469 3.742188 13.03125 2.984375 13.03125 2.984375 C 13.03125 2.984375 12.503906 3.378906 11.890625 3.808594 C 11.058594 3.652344 10.058594 3.46875 9.214844 3.515625 C 8.640625 3.042969 8.0625 2.515625 8.0625 2.515625 Z M 0.628906 7.34375 C 0.628906 7.34375 1.488281 9.429688 2.085938 10.878906 C 4.621094 14.222656 11.09375 14.453125 13.914062 10.945312 C 14.582031 9.4375 15.480469 7.324219 15.480469 7.324219 C 14.757812 8.398438 13.582031 9.136719 12.855469 9.535156 C 12.339844 9.820312 11.148438 9.988281 11.148438 9.988281 L 8.027344 8.371094 L 4.886719 9.957031 C 4.886719 9.957031 3.714844 9.769531 3.183594 9.519531 C 2.109375 8.949219 1.386719 8.269531 0.628906 7.34375 Z M 0.628906 7.34375 "/>
</g>
</svg>
