
<svg xmlns="http://www.w3.org/2000/svg" xmlns:xlink="http://www.w3.org/1999/xlink" width="16px" height="16px" viewBox="0 0 16 16" version="1.1">
<g id="surface1">
<path style=" stroke:none;fill-rule:nonzero;fill:#ff6666;fill-opacity:1;" d="M 14.175781 1.742188 C 13.992188 1.742188 13.808594 1.765625 13.644531 1.804688 C 13.484375 1.847656 13.351562 1.914062 13.230469 2.023438 C 13.113281 2.121094 13.015625 2.265625 12.949219 2.4375 C 12.878906 2.601562 12.847656 2.8125 12.847656 3.066406 C 12.847656 3.316406 12.878906 3.523438 12.949219 3.695312 C 13.015625 3.867188 13.113281 4.003906 13.230469 4.109375 C 13.351562 4.210938 13.484375 4.277344 13.644531 4.324219 C 13.808594 4.367188 13.992188 4.390625 14.175781 4.390625 C 14.355469 4.390625 14.527344 4.367188 14.6875 4.324219 C 14.847656 4.277344 14.984375 4.210938 15.101562 4.109375 C 15.226562 4.003906 15.316406 3.867188 15.382812 3.695312 C 15.457031 3.523438 15.5 3.316406 15.5 3.066406 C 15.5 2.8125 15.457031 2.601562 15.382812 2.4375 C 15.316406 2.265625 15.226562 2.121094 15.101562 2.023438 C 14.984375 1.914062 14.847656 1.847656 14.6875 1.804688 C 14.527344 1.765625 14.355469 1.742188 14.175781 1.742188 Z M 4.460938 2.800781 L 0.5 15 L 3.117188 15 L 4.179688 11.816406 L 8.007812 11.816406 L 9.003906 15 L 11.605469 15 L 7.628906 2.800781 Z M 6.050781 4.476562 C 6.082031 4.667969 6.136719 4.910156 6.203125 5.1875 C 6.269531 5.464844 6.34375 5.753906 6.417969 6.03125 C 6.496094 6.304688 6.566406 6.550781 6.632812 6.777344 C 6.699219 7.007812 6.75 7.160156 6.78125 7.257812 L 7.5625 9.695312 L 4.578125 9.695312 L 5.355469 7.257812 C 5.371094 7.199219 5.40625 7.105469 5.4375 6.976562 C 5.476562 6.851562 5.511719 6.714844 5.554688 6.546875 C 5.601562 6.378906 5.65625 6.207031 5.703125 6.015625 C 5.753906 5.828125 5.792969 5.636719 5.835938 5.453125 C 5.886719 5.265625 5.9375 5.089844 5.96875 4.921875 C 6.007812 4.757812 6.03125 4.597656 6.050781 4.476562 Z M 12.832031 5.453125 L 12.832031 15 L 15.484375 15 L 15.484375 5.453125 Z M 12.832031 5.453125 "/>
</g>
</svg>
