
<svg xmlns="http://www.w3.org/2000/svg" xmlns:xlink="http://www.w3.org/1999/xlink" width="16px" height="16px" viewBox="0 0 16 16" version="1.1">
<g id="surface1">
<path style=" stroke:none;fill-rule:nonzero;fill:#ff6666;fill-opacity:1;" d="M 1 0 L 1 16 L 10.75 16 L 15 11.75 L 15 0 Z M 2 1 L 14 1 L 14 11 L 10 11 L 10 15 L 2 15 Z M 2 1 "/>
<path style=" stroke:none;fill-rule:evenodd;fill:#ff6666;fill-opacity:1;" d="M 2.996094 11.1875 C 2.976562 11.417969 2.957031 11.65625 2.941406 11.902344 C 3.011719 11.816406 3.085938 11.726562 3.15625 11.644531 C 3.238281 11.542969 3.320312 11.445312 3.398438 11.351562 C 5.660156 8.632812 7.136719 7.007812 8.554688 9.839844 C 8.769531 10.273438 8.984375 10.8125 9.203125 11.464844 C 9.132812 10.867188 9.046875 10.28125 8.953125 9.710938 C 8.464844 6.730469 7.652344 4.144531 6.316406 2.351562 C 6.226562 2.230469 6.136719 2.113281 6.039062 2 C 5.964844 2.132812 5.890625 2.261719 5.820312 2.386719 C 3.976562 5.65625 3.289062 7.75 2.996094 11.1875 Z M 3.464844 10.621094 C 3.863281 10.152344 4.238281 9.71875 4.59375 9.347656 C 5.1875 8.734375 5.777344 8.230469 6.378906 8.03125 C 6.691406 7.929688 7.015625 7.90625 7.339844 8 C 7.660156 8.089844 7.949219 8.285156 8.207031 8.5625 C 8.257812 8.617188 8.304688 8.675781 8.355469 8.734375 C 7.875 6.316406 7.15625 4.25 6.09375 2.75 C 5.199219 4.34375 4.597656 5.644531 4.183594 6.964844 C 3.832031 8.09375 3.609375 9.246094 3.464844 10.621094 Z M 3.464844 10.621094 "/>
<path style=" stroke:none;fill-rule:nonzero;fill:#ff6666;fill-opacity:1;" d="M 6.070312 3.226562 L 5.789062 5.734375 L 5.777344 5.734375 L 5.058594 6.007812 L 5.039062 6.011719 L 5.058594 6.023438 L 5.707031 6.375 L 5.71875 6.375 L 5.636719 7.097656 L 5.65625 7.101562 L 6.082031 6.429688 L 6.53125 7.101562 L 6.550781 7.097656 L 6.464844 6.378906 L 6.492188 6.378906 L 7.179688 6.023438 L 7.199219 6.015625 L 7.175781 6.007812 L 6.40625 5.734375 L 6.390625 5.734375 L 6.09375 3.226562 Z M 6.070312 3.226562 "/>
</g>
</svg>
