
<svg xmlns="http://www.w3.org/2000/svg" xmlns:xlink="http://www.w3.org/1999/xlink" width="16px" height="16px" viewBox="0 0 16 16" version="1.1">
<g id="surface1">
<path style=" stroke:none;fill-rule:nonzero;fill:#ff6666;fill-opacity:1;" d="M 8 1 C 7.472656 1 6.96875 1.097656 6.507812 1.296875 C 6.046875 1.484375 5.636719 1.757812 5.300781 2.113281 L 5.296875 2.117188 L 5.296875 2.121094 C 4.964844 2.480469 4.710938 2.910156 4.527344 3.402344 C 4.34375 3.914062 4.253906 4.457031 4.257812 5 C 4.257812 5.582031 4.347656 6.121094 4.527344 6.613281 C 4.710938 7.09375 4.964844 7.519531 5.296875 7.878906 L 5.296875 7.882812 L 5.300781 7.882812 C 5.636719 8.238281 6.042969 8.519531 6.5 8.714844 L 6.503906 8.71875 L 6.507812 8.71875 C 6.96875 8.90625 7.472656 9 8 9 C 8.527344 9 9.027344 8.90625 9.488281 8.71875 C 9.941406 8.527344 10.347656 8.242188 10.679688 7.882812 C 11.019531 7.523438 11.28125 7.097656 11.460938 6.613281 C 11.644531 6.121094 11.734375 5.582031 11.734375 5 L 11.742188 5 C 11.742188 4.425781 11.65625 3.890625 11.472656 3.402344 C 11.304688 2.925781 11.039062 2.488281 10.691406 2.117188 C 10.359375 1.757812 9.949219 1.476562 9.496094 1.296875 C 9.023438 1.097656 8.511719 0.996094 8 1 Z M 8 2 C 8.40625 2 8.769531 2.074219 9.101562 2.214844 L 9.113281 2.21875 L 9.121094 2.222656 C 9.453125 2.355469 9.730469 2.546875 9.960938 2.796875 L 9.960938 2.808594 C 10.199219 3.058594 10.390625 3.371094 10.527344 3.746094 L 10.527344 3.753906 C 10.65625 4.101562 10.722656 4.503906 10.726562 4.953125 L 10.726562 5 C 10.726562 5.480469 10.65625 5.898438 10.519531 6.261719 L 10.519531 6.265625 C 10.394531 6.609375 10.203125 6.925781 9.949219 7.195312 L 9.941406 7.199219 L 9.941406 7.203125 C 9.707031 7.457031 9.425781 7.652344 9.09375 7.796875 C 8.746094 7.933594 8.375 8.003906 8 8 C 7.589844 8 7.222656 7.929688 6.890625 7.792969 L 6.886719 7.792969 C 6.5625 7.652344 6.285156 7.457031 6.050781 7.210938 L 6 7.140625 L 5.988281 7.136719 C 5.765625 6.878906 5.585938 6.582031 5.46875 6.265625 C 5.324219 5.859375 5.253906 5.429688 5.261719 5 C 5.261719 4.527344 5.328125 4.113281 5.46875 3.75 L 5.46875 3.742188 C 5.605469 3.367188 5.792969 3.058594 6.023438 2.808594 L 6.035156 2.796875 C 6.273438 2.546875 6.554688 2.355469 6.886719 2.21875 L 6.890625 2.214844 L 6.898438 2.214844 C 7.230469 2.074219 7.59375 2 8 2 Z M 15 16 L 14 16 C 14 15.136719 13.929688 14.699219 13.765625 14.167969 C 13.601562 13.632812 13.355469 13.261719 12.949219 12.957031 C 12.140625 12.347656 10.839844 12.023438 8.027344 12.023438 C 5.21875 12.023438 3.863281 12.347656 3.054688 12.957031 C 2.648438 13.261719 2.402344 13.632812 2.238281 14.167969 C 2.070312 14.699219 2.003906 15.136719 2 16 L 1 15.996094 C 1.003906 15.085938 1.070312 14.558594 1.28125 13.871094 C 1.496094 13.183594 1.878906 12.59375 2.453125 12.160156 C 3.601562 11.292969 5.148438 11.023438 8.027344 11.023438 C 10.910156 11.023438 12.40625 11.292969 13.554688 12.160156 C 14.128906 12.59375 14.507812 13.183594 14.71875 13.871094 C 14.933594 14.558594 15 15.085938 15 16 Z M 15 16 "/>
</g>
</svg>
