
<svg xmlns="http://www.w3.org/2000/svg" xmlns:xlink="http://www.w3.org/1999/xlink" width="16px" height="16px" viewBox="0 0 16 16" version="1.1">
<g id="surface1">
<path style=" stroke:none;fill-rule:nonzero;fill:#ff6666;fill-opacity:1;" d="M 9.132812 16 L 7.011719 16 L 7.011719 14.367188 C 6.1875 14.1875 5.488281 13.824219 4.90625 13.277344 C 4.328125 12.734375 3.898438 12.050781 3.617188 11.230469 L 5.632812 10.484375 C 5.886719 11.078125 6.238281 11.550781 6.683594 11.898438 C 7.132812 12.25 7.640625 12.425781 8.207031 12.425781 C 8.800781 12.425781 9.273438 12.273438 9.625 11.964844 C 9.972656 11.65625 10.148438 11.222656 10.148438 10.667969 C 10.148438 10.375 10.089844 10.121094 9.96875 9.894531 C 9.847656 9.671875 9.644531 9.46875 9.359375 9.289062 C 9.078125 9.105469 8.824219 8.96875 8.597656 8.871094 C 8.375 8.773438 8.046875 8.640625 7.609375 8.472656 C 7.164062 8.300781 6.824219 8.167969 6.59375 8.0625 C 6.363281 7.960938 6.058594 7.796875 5.679688 7.574219 C 5.296875 7.351562 5.011719 7.125 4.824219 6.894531 C 4.636719 6.664062 4.46875 6.359375 4.316406 5.988281 C 4.167969 5.613281 4.089844 5.195312 4.089844 4.734375 C 4.089844 3.925781 4.347656 3.21875 4.863281 2.621094 C 5.375 2.023438 6.09375 1.632812 7.011719 1.453125 L 7.011719 0 L 9.132812 0 L 9.132812 1.46875 C 9.847656 1.640625 10.429688 1.949219 10.882812 2.402344 C 11.335938 2.855469 11.660156 3.417969 11.855469 4.082031 L 9.894531 4.734375 C 9.546875 3.863281 8.878906 3.429688 7.898438 3.429688 C 7.40625 3.429688 7.015625 3.542969 6.738281 3.773438 C 6.460938 4.003906 6.320312 4.324219 6.320312 4.734375 C 6.320312 4.917969 6.363281 5.085938 6.449219 5.242188 C 6.535156 5.398438 6.632812 5.53125 6.75 5.632812 C 6.863281 5.734375 7.039062 5.847656 7.273438 5.96875 C 7.511719 6.089844 7.707031 6.179688 7.863281 6.242188 C 8.019531 6.300781 8.261719 6.390625 8.589844 6.511719 C 8.988281 6.667969 9.285156 6.789062 9.476562 6.875 C 9.671875 6.960938 9.949219 7.09375 10.3125 7.273438 C 10.675781 7.457031 10.953125 7.640625 11.148438 7.828125 C 11.339844 8.015625 11.546875 8.246094 11.765625 8.515625 C 11.980469 8.789062 12.140625 9.105469 12.234375 9.460938 C 12.332031 9.816406 12.382812 10.214844 12.382812 10.648438 C 12.382812 11.675781 12.078125 12.515625 11.472656 13.171875 C 10.871094 13.824219 10.089844 14.234375 9.132812 14.402344 Z M 9.132812 16 "/>
</g>
</svg>
