
<svg xmlns="http://www.w3.org/2000/svg" xmlns:xlink="http://www.w3.org/1999/xlink" width="16px" height="16px" viewBox="0 0 16 16" version="1.1">
<g id="surface1">
<path style=" stroke:none;fill-rule:evenodd;fill:#ff6666;fill-opacity:1;" d="M 9.492188 9.832031 C 9.453125 10.621094 9.242188 11.320312 8.851562 11.929688 C 8.464844 12.53125 7.914062 12.996094 7.210938 13.328125 C 6.507812 13.660156 5.707031 13.828125 4.804688 13.828125 C 3.3125 13.828125 2.140625 13.34375 1.285156 12.371094 C 0.429688 11.402344 0 10.03125 0 8.261719 L 0 7.699219 C 0 6.589844 0.191406 5.617188 0.574219 4.789062 C 0.964844 3.953125 1.523438 3.308594 2.25 2.859375 C 2.976562 2.402344 3.816406 2.171875 4.773438 2.171875 C 6.148438 2.171875 7.253906 2.535156 8.089844 3.261719 C 8.925781 3.984375 9.398438 4.980469 9.515625 6.253906 L 6.789062 6.253906 C 6.769531 5.5625 6.59375 5.066406 6.265625 4.765625 C 5.941406 4.464844 5.441406 4.3125 4.773438 4.3125 C 4.09375 4.3125 3.59375 4.566406 3.277344 5.078125 C 2.960938 5.585938 2.796875 6.398438 2.78125 7.511719 L 2.78125 8.316406 C 2.78125 9.523438 2.929688 10.390625 3.230469 10.90625 C 3.539062 11.425781 4.0625 11.6875 4.804688 11.6875 C 5.433594 11.6875 5.910156 11.539062 6.246094 11.242188 C 6.578125 10.945312 6.753906 10.476562 6.773438 9.832031 Z M 10.644531 4.25 L 12.71875 4.257812 L 12.726562 2.171875 L 13.90625 2.175781 L 13.898438 4.261719 L 16 4.269531 L 15.996094 5.449219 L 13.894531 5.441406 L 13.886719 7.527344 L 12.707031 7.523438 L 12.714844 5.4375 L 10.640625 5.429688 Z M 10.621094 10.550781 L 12.695312 10.558594 L 12.703125 8.472656 L 13.882812 8.476562 L 13.875 10.5625 L 15.976562 10.570312 L 15.972656 11.75 L 13.871094 11.742188 L 13.863281 13.828125 L 12.683594 13.824219 L 12.691406 11.738281 L 10.617188 11.730469 Z M 10.621094 10.550781 "/>
</g>
</svg>
