
<svg xmlns="http://www.w3.org/2000/svg" xmlns:xlink="http://www.w3.org/1999/xlink" width="16px" height="16px" viewBox="0 0 16 16" version="1.1">
<g id="surface1">
<path style=" stroke:none;fill-rule:nonzero;fill:#ff6666;fill-opacity:1;" d="M 6.351562 2.128906 C 6.367188 2.21875 6.320312 2.289062 6.175781 2.363281 C 5.988281 2.261719 5.578125 2.203125 5.246094 2.230469 C 4.882812 2.261719 4.574219 2.378906 4.617188 2.625 C 4.675781 2.871094 5.027344 3.019531 5.652344 2.960938 C 7.179688 2.828125 7.164062 1.796875 9.40625 1.589844 C 11.152344 1.429688 12.128906 1.96875 12.257812 2.625 C 12.363281 3.132812 11.941406 3.628906 10.671875 3.730469 C 9.550781 3.832031 8.898438 3.527344 8.839844 3.222656 C 8.808594 3.0625 8.898438 2.828125 9.4375 2.769531 C 9.496094 3.019531 9.800781 3.28125 10.527344 3.207031 C 11.050781 3.164062 11.488281 2.972656 11.429688 2.683594 C 11.371094 2.378906 10.820312 2.203125 9.945312 2.277344 C 8.171875 2.4375 7.734375 3.410156 6.21875 3.542969 C 5.144531 3.644531 4.269531 3.25 4.152344 2.667969 C 4.109375 2.449219 4.109375 1.941406 5.246094 1.839844 C 5.828125 1.796875 6.292969 1.898438 6.351562 2.128906 Z M 0.675781 8.214844 C 0.179688 8.839844 -0.0390625 9.566406 0.00390625 10.28125 C 0.0507812 10.992188 0.398438 11.574219 0.953125 12.027344 C 1.535156 12.476562 2.160156 12.609375 2.871094 12.476562 C 3.148438 12.433594 3.453125 12.289062 3.730469 12.203125 C 3.148438 12.203125 2.652344 12.011719 2.160156 11.617188 C 1.621094 11.226562 1.257812 10.671875 1.167969 10.003906 C 1.039062 9.378906 1.167969 8.796875 1.519531 8.285156 C 1.910156 7.792969 2.421875 7.515625 3.089844 7.425781 C 3.761719 7.382812 4.34375 7.558594 4.925781 7.964844 C 4.792969 7.777344 4.605469 7.644531 4.429688 7.472656 C 3.847656 7.078125 3.222656 6.890625 2.449219 7.078125 C 1.75 7.222656 1.167969 7.585938 0.675781 8.214844 Z M 8.476562 4.851562 C 6.597656 4.851562 4.925781 4.664062 3.714844 4.402344 C 2.421875 4.082031 1.738281 3.730469 1.738281 3.28125 C 1.738281 3.089844 1.824219 2.929688 2.085938 2.742188 C 1.273438 3.0625 0.835938 3.324219 0.835938 3.730469 C 0.878906 4.183594 1.605469 4.632812 3.089844 4.984375 C 4.488281 5.332031 6.277344 5.519531 8.433594 5.519531 C 10.628906 5.519531 12.375 5.332031 13.773438 4.984375 C 15.257812 4.632812 15.972656 4.167969 15.972656 3.730469 C 15.972656 3.410156 15.652344 3.105469 15.070312 2.871094 C 15.199219 2.960938 15.300781 3.105469 15.300781 3.265625 C 15.300781 3.714844 14.632812 4.082031 13.277344 4.386719 C 12.027344 4.664062 10.425781 4.851562 8.476562 4.851562 Z M 13.832031 6.101562 C 12.433594 6.421875 10.644531 6.640625 8.492188 6.640625 C 6.292969 6.640625 4.503906 6.410156 3.105469 6.101562 C 1.855469 5.78125 1.183594 5.433594 0.953125 5.070312 C 1.183594 6.640625 1.722656 8.125 2.4375 9.4375 C 2.972656 10.25 3.511719 10.964844 4.050781 11.734375 C 4.285156 12.1875 4.445312 12.636719 4.546875 13.089844 C 4.894531 13.582031 5.40625 13.902344 6.03125 14.078125 C 6.800781 14.355469 7.601562 14.472656 8.417969 14.429688 L 8.503906 14.429688 C 9.320312 14.472656 10.179688 14.339844 10.964844 14.078125 C 11.546875 13.890625 12.042969 13.582031 12.40625 13.089844 L 12.449219 13.089844 C 12.535156 12.636719 12.683594 12.1875 12.898438 11.734375 C 13.4375 10.964844 13.976562 10.25 14.515625 9.4375 C 15.230469 8.140625 15.722656 6.65625 16 5.070312 C 15.707031 5.476562 15.039062 5.828125 13.832031 6.101562 Z M 13.832031 6.101562 "/>
</g>
</svg>
