
<svg xmlns="http://www.w3.org/2000/svg" xmlns:xlink="http://www.w3.org/1999/xlink" width="16px" height="16px" viewBox="0 0 16 16" version="1.1">
<g id="surface1">
<path style=" stroke:none;fill-rule:nonzero;fill:#ff6666;fill-opacity:1;" d="M 0 2 L 0 3 L 1 3 L 1 11.035156 C 1 11.582031 1.453125 12.035156 2 12.035156 L 7 12.035156 L 7 13.25 L 4.28125 15.09375 C 4.019531 15.21875 3.929688 15.605469 4.09375 15.84375 C 4.257812 16.078125 4.632812 16.105469 4.84375 15.90625 L 7.5 14.09375 L 10.15625 15.90625 C 10.367188 16.105469 10.746094 16.078125 10.90625 15.84375 C 11.070312 15.605469 10.980469 15.21875 10.722656 15.09375 L 8 13.25 L 8 12.035156 L 13 12.035156 C 13.546875 12.035156 14 11.582031 14 11.035156 L 14 3 L 15 3 L 15 2 Z M 2 3 L 13 3 L 13 10.5 C 13 11 12.5 11 12.5 11 L 2.5 11 C 2 11 2 10.5 2 10.5 Z M 5 5 C 3.894531 5 3 5.894531 3 7 C 3 8.105469 3.894531 9 5 9 C 6.105469 9 7 8.105469 7 7 L 5 7 Z M 8 5 L 8 6 L 12 6 L 12 5 Z M 8 7 L 8 8 L 11 8 L 11 7 Z M 8 7 "/>
</g>
</svg>
