
<svg xmlns="http://www.w3.org/2000/svg" xmlns:xlink="http://www.w3.org/1999/xlink" width="16px" height="16px" viewBox="0 0 16 16" version="1.1">
<g id="surface1">
<path style=" stroke:none;fill-rule:nonzero;fill:#ff6666;fill-opacity:1;" d="M 8.992188 1 L 6.191406 3 L 3.992188 3 C 2.734375 3.015625 1.816406 2.96875 1.0625 3.382812 C 0.671875 3.605469 0.375 3.960938 0.226562 4.382812 C 0.0625 4.820312 0 5.34375 0 6 L 0 12 C 0 12.65625 0.0625 13.179688 0.226562 13.617188 C 0.375 14.039062 0.671875 14.394531 1.0625 14.613281 C 1.816406 15.03125 2.734375 14.984375 3.992188 15 L 12 15 C 13.257812 14.984375 14.175781 15.03125 14.929688 14.613281 C 15.320312 14.394531 15.617188 14.039062 15.765625 13.617188 C 15.933594 13.179688 15.992188 12.65625 15.992188 12 L 15.992188 6 C 15.992188 5.34375 15.933594 4.820312 15.765625 4.382812 C 15.601562 3.945312 15.308594 3.59375 14.929688 3.382812 C 14.175781 2.96875 13.257812 3.015625 12 3 L 11.792969 3 Z M 3.988281 4 L 11.992188 4 C 13.25 4.015625 14.082031 4.058594 14.449219 4.261719 C 14.628906 4.363281 14.734375 4.472656 14.832031 4.734375 C 14.929688 4.996094 14.992188 5.40625 14.992188 6 L 14.992188 12 C 14.992188 12.59375 14.929688 13.003906 14.832031 13.265625 C 14.734375 13.527344 14.628906 13.636719 14.449219 13.738281 C 14.082031 13.941406 13.25 13.984375 11.992188 14 L 3.988281 14 C 2.730469 13.984375 1.898438 13.941406 1.53125 13.738281 C 1.351562 13.636719 1.246094 13.527344 1.148438 13.265625 C 1.050781 13.003906 0.988281 12.59375 0.988281 12 L 0.988281 6 C 0.988281 5.40625 1.050781 4.996094 1.148438 4.734375 C 1.246094 4.472656 1.351562 4.363281 1.535156 4.261719 C 1.902344 4.058594 2.730469 4.015625 3.988281 4 Z M 3.988281 4 "/>
</g>
</svg>
