
<svg xmlns="http://www.w3.org/2000/svg" xmlns:xlink="http://www.w3.org/1999/xlink" width="16px" height="16px" viewBox="0 0 16 16" version="1.1">
<g id="surface1">
<path style=" stroke:none;fill-rule:nonzero;fill:#ff6666;fill-opacity:1;" d="M 8 0 C 3.59375 0 0 3.582031 0 8 C 0 12.417969 3.59375 16 8 16 C 12.410156 16 16 12.417969 16 8 C 16 3.582031 12.40625 0 8 0 Z M 8 1.007812 C 11.882812 1.007812 15.011719 4.140625 15.011719 8 C 15.011719 11.859375 11.882812 14.992188 8 14.992188 C 4.117188 14.992188 0.988281 11.859375 0.988281 8 C 0.988281 4.140625 4.117188 1.007812 8 1.007812 Z M 8.226562 2.007812 C 7.664062 2.007812 7.097656 2.222656 6.664062 2.652344 L 2.648438 6.664062 C 1.785156 7.527344 1.785156 8.917969 2.648438 9.78125 C 3.515625 10.648438 4.910156 10.648438 5.773438 9.78125 L 9.789062 5.773438 C 10.65625 4.910156 10.65625 3.519531 9.789062 2.652344 C 9.359375 2.222656 8.792969 2.007812 8.230469 2.007812 Z M 8.226562 2.320312 C 8.710938 2.320312 9.195312 2.507812 9.566406 2.875 C 10.308594 3.617188 10.308594 4.8125 9.566406 5.554688 C 8.824219 6.292969 7.625 6.292969 6.886719 5.554688 C 6.148438 4.816406 6.148438 3.617188 6.886719 2.875 C 7.257812 2.507812 7.742188 2.320312 8.226562 2.320312 Z M 11.796875 5.570312 C 11.234375 5.570312 10.667969 5.785156 10.234375 6.21875 L 6.21875 10.226562 C 5.355469 11.089844 5.355469 12.480469 6.21875 13.347656 C 7.085938 14.210938 8.480469 14.210938 9.34375 13.347656 L 13.359375 9.335938 C 14.226562 8.472656 14.226562 7.078125 13.359375 6.214844 C 12.929688 5.785156 12.363281 5.566406 11.800781 5.566406 Z M 11.796875 5.886719 C 12.28125 5.886719 12.765625 6.074219 13.136719 6.441406 C 13.875 7.183594 13.875 8.378906 13.136719 9.117188 C 12.398438 9.855469 11.199219 9.855469 10.457031 9.117188 C 9.71875 8.375 9.71875 7.179688 10.457031 6.441406 C 10.828125 6.074219 11.3125 5.886719 11.796875 5.886719 Z M 4.210938 6.335938 C 4.695312 6.335938 5.179688 6.519531 5.550781 6.890625 C 6.289062 7.625 6.289062 8.824219 5.550781 9.566406 C 4.804688 10.304688 3.609375 10.304688 2.875 9.566406 C 2.132812 8.824219 2.132812 7.628906 2.875 6.890625 C 3.242188 6.519531 3.726562 6.335938 4.210938 6.335938 Z M 7.78125 9.898438 C 8.265625 9.898438 8.75 10.082031 9.117188 10.453125 C 9.859375 11.191406 9.859375 12.386719 9.117188 13.128906 C 8.378906 13.871094 7.179688 13.871094 6.441406 13.128906 C 5.703125 12.390625 5.703125 11.195312 6.441406 10.453125 C 6.8125 10.082031 7.296875 9.898438 7.78125 9.898438 Z M 7.78125 9.898438 "/>
</g>
</svg>
