
<svg xmlns="http://www.w3.org/2000/svg" xmlns:xlink="http://www.w3.org/1999/xlink" width="16px" height="16px" viewBox="0 0 16 16" version="1.1">
<g id="surface1">
<path style=" stroke:none;fill-rule:nonzero;fill:#ff6666;fill-opacity:1;" d="M 4.785156 0.671875 C 3.410156 0.671875 2.296875 1.175781 1.449219 2.175781 C 0.484375 3.320312 0 4.867188 0 6.824219 C 0 8.28125 0.28125 9.550781 0.84375 10.621094 C 1.699219 12.21875 3.019531 13.015625 4.785156 13.015625 C 5.167969 14.722656 6.222656 15.617188 8.703125 15.242188 L 8.703125 14.003906 C 7.546875 14.109375 7.296875 13.476562 7.207031 12.355469 L 7.207031 12.28125 C 7.554688 12.058594 7.871094 11.785156 8.152344 11.445312 C 9.074219 10.339844 9.535156 8.796875 9.535156 6.824219 C 9.535156 5.355469 9.242188 4.09375 8.65625 3.019531 C 7.789062 1.457031 6.5 0.671875 4.785156 0.671875 Z M 14.074219 1.167969 L 12.332031 1.214844 L 11.753906 3.945312 L 10.515625 3.945312 L 10.515625 5.992188 L 11.652344 5.992188 L 11.652344 9.90625 C 11.652344 10.976562 11.808594 11.730469 12.101562 12.160156 C 12.476562 12.734375 13.269531 13.015625 14.488281 13.015625 C 14.894531 13.015625 15.394531 12.960938 16 12.832031 L 16 10.886719 C 15.582031 10.910156 15.273438 10.921875 15.066406 10.921875 C 14.722656 10.921875 14.484375 10.867188 14.339844 10.75 C 14.164062 10.609375 14.074219 10.246094 14.074219 9.675781 L 14.074219 5.992188 L 15.871094 5.992188 L 15.871094 3.945312 L 14.074219 3.945312 Z M 4.785156 2.964844 C 6.132812 2.964844 6.804688 4.257812 6.804688 6.84375 C 6.804688 9.429688 6.132812 10.730469 4.785156 10.730469 C 3.417969 10.730469 2.734375 9.425781 2.734375 6.824219 C 2.734375 6.71875 2.734375 6.617188 2.734375 6.511719 C 2.796875 4.148438 3.484375 2.964844 4.785156 2.964844 Z M 4.785156 2.964844 "/>
</g>
</svg>
