
<svg xmlns="http://www.w3.org/2000/svg" xmlns:xlink="http://www.w3.org/1999/xlink" width="16px" height="16px" viewBox="0 0 16 16" version="1.1">
<g id="surface1">
<path style=" stroke:none;fill-rule:nonzero;fill:#ff6666;fill-opacity:1;" d="M 3.128906 15.109375 C 3.128906 15.109375 4.082031 15.558594 5.351562 15.71875 C 5.867188 15.78125 7.824219 16.003906 9.324219 16 C 9.324219 16 11.148438 16 12.15625 15.859375 C 13.214844 15.707031 13.8125 15.519531 14.144531 15.136719 C 14.152344 15.046875 14.304688 14.75 13.894531 14.460938 C 12.84375 13.730469 11.488281 13.53125 8.855469 12.90625 C 5.945312 12.171875 5.03125 11.472656 4.597656 10.964844 C 4.183594 10.457031 4.71875 9.402344 7.0625 8.882812 C 8.25 8.59375 12.429688 8.445312 12.429688 8.445312 C 11.160156 7.4375 9.023438 5.730469 8.535156 5.34375 C 8.109375 5.007812 7.421875 4.492188 7.347656 4.03125 C 7.246094 3.582031 7.953125 3.367188 8.328125 3.339844 C 9.535156 3.257812 11.183594 3.578125 12.644531 3.867188 C 13.382812 4.015625 13.511719 3.992188 13.511719 3.992188 C 14.558594 4.042969 15.582031 3.316406 15.542969 2.160156 C 15.53125 0.988281 14.152344 0.046875 12.855469 0.00390625 C 11.542969 0 8.429688 0 8.429688 0 C 11.941406 0.722656 12.703125 1.089844 12.886719 1.511719 C 12.996094 1.761719 12.707031 2.007812 11.738281 1.960938 C 10.6875 1.90625 8.527344 1.652344 8.527344 1.652344 C 6.472656 1.335938 5.21875 1.039062 4.597656 1.851562 C 4.1875 2.386719 4.65625 3.035156 4.839844 3.417969 C 5.652344 4.839844 6.886719 5.816406 7.78125 6.503906 C 8.117188 6.761719 9.144531 7.335938 9.144531 7.335938 C 5.949219 6.460938 3.226562 6.953125 1.613281 7.800781 C -0.242188 8.898438 0.0742188 10.75 3.019531 12.484375 C 4.757812 13.507812 5.800781 13.996094 8.648438 14.347656 C 10.308594 14.613281 10.648438 14.722656 10.636719 14.859375 C 10.617188 15.054688 8.578125 15.128906 8.039062 15.164062 C 6.675781 15.261719 3.144531 15.113281 3.128906 15.113281 Z M 3.128906 15.109375 "/>
</g>
</svg>
