
<svg xmlns="http://www.w3.org/2000/svg" xmlns:xlink="http://www.w3.org/1999/xlink" width="16px" height="16px" viewBox="0 0 16 16" version="1.1">
<g id="surface1">
<path style=" stroke:none;fill-rule:nonzero;fill:#ff6666;fill-opacity:1;" d="M 6.921875 0 C 3.328125 0 0.535156 3.027344 0.535156 6.582031 C 0.535156 10.140625 3.058594 12.800781 6.652344 12.800781 C 11.183594 12.507812 12.082031 5.988281 8.132812 6.753906 C 8.082031 6.90625 9.238281 7.355469 9.320312 8.167969 C 9.484375 9.761719 8.222656 10.722656 6.648438 10.421875 C 5.496094 10.199219 4.105469 9.226562 3.835938 8.257812 C 3.585938 7.359375 3.710938 6.285156 3.976562 5.570312 C 5.226562 2.195312 9.644531 1.300781 11.199219 1.34375 C 9.980469 0.425781 8.640625 0 6.921875 0 Z M 9.347656 3.199219 C 4.816406 3.492188 3.917969 10.011719 7.867188 9.246094 C 7.917969 9.09375 6.761719 8.644531 6.679688 7.832031 C 6.515625 6.238281 7.777344 5.277344 9.351562 5.578125 C 10.503906 5.800781 11.894531 6.773438 12.164062 7.742188 C 12.414062 8.640625 12.289062 9.714844 12.023438 10.429688 C 10.773438 13.804688 6.355469 14.699219 4.800781 14.65625 C 6.019531 15.574219 7.359375 16 9.078125 16 C 12.671875 16 15.46875 12.972656 15.464844 9.417969 C 15.464844 5.859375 12.941406 3.199219 9.347656 3.199219 Z M 9.347656 3.199219 "/>
</g>
</svg>
