
<svg xmlns="http://www.w3.org/2000/svg" xmlns:xlink="http://www.w3.org/1999/xlink" width="16px" height="16px" viewBox="0 0 16 16" version="1.1">
<g id="surface1">
<path style=" stroke:none;fill-rule:nonzero;fill:#ff6666;fill-opacity:1;" d="M 0.363281 0 C 0.164062 0 0 0.164062 0 0.363281 L 0 15.636719 C 0 15.835938 0.164062 16 0.363281 16 L 4.363281 16 C 4.5625 16 4.726562 15.835938 4.726562 15.636719 L 4.726562 0.363281 C 4.726562 0.164062 4.5625 0 4.363281 0 Z M 7.664062 0.890625 C 7.523438 0.871094 7.382812 0.941406 7.308594 1.066406 L 5.453125 4.210938 L 5.453125 8.804688 L 6.871094 9.617188 L 6.5 10.242188 L 5.453125 9.640625 L 5.453125 13.53125 L 11.382812 3.464844 C 11.480469 3.292969 11.425781 3.066406 11.25 2.964844 L 7.804688 0.9375 C 7.761719 0.914062 7.714844 0.898438 7.664062 0.890625 Z M 6.058594 4.566406 L 8.902344 6.203125 L 8.53125 6.828125 L 5.683594 5.191406 Z M 12.722656 4.730469 C 12.675781 4.738281 12.632812 4.753906 12.589844 4.78125 L 10.8125 5.863281 L 9.914062 7.382812 L 11.566406 10.089844 L 10.945312 10.464844 L 9.5 8.09375 L 7.613281 11.292969 L 8.148438 12.171875 L 7.527344 12.546875 L 7.195312 12.003906 L 5.730469 14.492188 L 15.050781 8.816406 C 15.132812 8.765625 15.191406 8.6875 15.214844 8.59375 C 15.234375 8.5 15.222656 8.398438 15.171875 8.316406 L 13.089844 4.902344 C 13.039062 4.820312 12.960938 4.761719 12.863281 4.738281 C 12.820312 4.726562 12.769531 4.722656 12.722656 4.730469 Z M 12.417969 11.273438 L 11.273438 11.972656 L 8 13.976562 L 8 15.273438 L 7.273438 15.273438 L 7.273438 14.421875 L 5.453125 15.535156 L 5.453125 16 L 15.636719 16 C 15.835938 16 16 15.835938 16 15.636719 L 16 11.636719 C 16 11.4375 15.835938 11.273438 15.636719 11.273438 Z M 11.273438 12 L 12 12 L 12 15.273438 L 11.273438 15.273438 Z M 2.363281 13.089844 C 2.664062 13.089844 2.910156 13.335938 2.910156 13.636719 C 2.910156 13.9375 2.664062 14.183594 2.363281 14.183594 C 2.0625 14.183594 1.816406 13.9375 1.816406 13.636719 C 1.816406 13.335938 2.0625 13.089844 2.363281 13.089844 Z M 2.363281 13.089844 "/>
</g>
</svg>
