
<svg xmlns="http://www.w3.org/2000/svg" xmlns:xlink="http://www.w3.org/1999/xlink" width="16px" height="16px" viewBox="0 0 16 16" version="1.1">
<g id="surface1">
<path style=" stroke:none;fill-rule:evenodd;fill:#ff6666;fill-opacity:1;" d="M 8 1.667969 C 3.582031 1.667969 0 4.054688 0 7 C 0 9.320312 2.394531 11.289062 5.5 12.023438 L 5.5 10.257812 C 3.886719 9.53125 2.667969 8.34375 2.667969 7 C 2.667969 4.792969 5.503906 3 9 3 C 12.496094 3 15.332031 4.792969 15.332031 7 C 15.332031 8.726562 13.691406 10.296875 11.261719 10.855469 C 11.457031 11.175781 11.652344 11.5 11.847656 11.8125 C 14.375 10.914062 16 9.042969 16 7 C 16 4.054688 12.417969 1.667969 8 1.667969 Z M 8 6.335938 L 9.332031 6.335938 C 10.066406 6.335938 10.664062 6.933594 10.664062 7.667969 C 10.664062 8.40625 10.066406 9 9.332031 9 L 8 9 L 8 6.332031 Z M 6 4.335938 L 6 14.332031 L 8 14.332031 L 8 11 L 8.667969 11 L 10.667969 14.332031 L 12.667969 14.332031 L 10.667969 11 L 10.519531 10.769531 C 11.769531 10.292969 12.664062 9.089844 12.664062 7.667969 C 12.664062 5.828125 11.171875 4.335938 9.332031 4.335938 Z M 6 4.335938 "/>
</g>
</svg>
