
<svg xmlns="http://www.w3.org/2000/svg" xmlns:xlink="http://www.w3.org/1999/xlink" width="16px" height="16px" viewBox="0 0 16 16" version="1.1">
<g id="surface1">
<path style=" stroke:none;fill-rule:nonzero;fill:#ff6666;fill-opacity:1;" d="M 8.257812 0.707031 C 5.675781 1.164062 3.085938 1.609375 0.5 2.058594 C 0.5 5.988281 0.5 9.921875 0.5 13.851562 C 3.074219 14.304688 5.648438 14.734375 8.21875 15.199219 L 9.261719 15.199219 L 9.261719 13.515625 C 10.441406 13.511719 11.621094 13.519531 12.800781 13.515625 C 13.144531 13.507812 13.613281 13.523438 13.757812 13.128906 C 13.875 12.367188 13.785156 11.589844 13.808594 10.820312 C 14.335938 10.804688 14.886719 10.886719 15.394531 10.722656 C 15.5 10.429688 15.492188 10.109375 15.5 9.804688 C 15.488281 7.503906 15.492188 5.199219 15.5 2.898438 C 15.488281 2.644531 15.5 2.378906 15.410156 2.136719 C 15.097656 1.78125 14.5625 1.921875 14.148438 1.882812 C 13.09375 1.925781 12.027344 1.816406 10.980469 1.9375 C 10.222656 2.183594 10.492188 3.140625 10.445312 3.742188 L 9.261719 3.742188 L 9.261719 0.707031 Z M 12.660156 2.386719 C 13.433594 2.382812 14.214844 2.410156 14.988281 2.394531 L 14.988281 10.144531 L 13.808594 10.144531 C 13.804688 8.117188 13.816406 6.09375 13.804688 4.070312 C 13.015625 3.441406 11.953125 3.183594 11.261719 2.445312 C 11.726562 2.402344 12.191406 2.390625 12.660156 2.386719 Z M 9.261719 4.246094 L 13.136719 4.246094 L 13.136719 13.007812 L 9.261719 13.007812 C 9.257812 12.671875 9.257812 12.335938 9.261719 12 L 12.125 12 C 12.125 11.773438 12.125 11.546875 12.125 11.324219 L 9.261719 11.324219 C 9.257812 11.042969 9.257812 10.761719 9.261719 10.480469 L 12.125 10.480469 C 12.125 10.257812 12.125 10.03125 12.125 9.808594 L 9.261719 9.808594 C 9.257812 9.527344 9.257812 9.246094 9.261719 8.964844 L 12.125 8.964844 C 12.125 8.742188 12.125 8.515625 12.125 8.289062 L 9.261719 8.289062 C 9.257812 8.007812 9.257812 7.730469 9.261719 7.449219 L 12.125 7.449219 L 12.125 5.089844 L 9.261719 5.089844 C 9.257812 4.808594 9.257812 4.527344 9.261719 4.246094 Z M 4.652344 5.082031 C 5.140625 5.070312 5.609375 5.140625 5.988281 5.488281 C 6.710938 6.371094 6.519531 7.984375 5.441406 8.511719 C 5.058594 8.707031 4.621094 8.683594 4.207031 8.667969 C 4.203125 9.328125 4.203125 9.988281 4.203125 10.648438 C 3.863281 10.617188 3.523438 10.582031 3.183594 10.546875 C 3.203125 8.753906 3.1875 6.960938 3.195312 5.167969 C 3.652344 5.183594 4.160156 5.089844 4.652344 5.082031 Z M 4.601562 6.058594 C 4.46875 6.054688 4.332031 6.066406 4.203125 6.074219 C 4.203125 6.636719 4.195312 7.203125 4.230469 7.765625 C 4.566406 7.726562 5 7.761719 5.195312 7.414062 C 5.351562 7.074219 5.363281 6.644531 5.179688 6.316406 C 5.039062 6.113281 4.824219 6.0625 4.601562 6.058594 Z M 4.601562 6.058594 "/>
</g>
</svg>
