
<svg xmlns="http://www.w3.org/2000/svg" xmlns:xlink="http://www.w3.org/1999/xlink" width="16px" height="16px" viewBox="0 0 16 16" version="1.1">
<g id="surface1">
<path style=" stroke:none;fill-rule:evenodd;fill:#ff6666;fill-opacity:1;" d="M 14.167969 2.578125 L 10.695312 6.988281 L 9.066406 5.011719 L 5.433594 9.707031 L 3.8125 7.851562 L 0 12.609375 L 0.492188 12.863281 L 3.832031 8.691406 L 5.464844 10.554688 L 9.082031 5.878906 L 10.707031 7.847656 L 14.203125 3.402344 L 15.53125 4.839844 L 16 4.5625 Z M 1.003906 2.972656 L 3.09375 2.972656 L 3.09375 4.226562 L 1.003906 4.226562 Z M 1.003906 4.644531 L 3.09375 4.644531 L 3.09375 5.898438 L 1.003906 5.898438 Z M 3.511719 2.972656 L 6.4375 2.972656 L 6.4375 4.226562 L 3.511719 4.226562 Z M 3.511719 4.644531 L 6.4375 4.644531 L 6.4375 5.898438 L 3.511719 5.898438 Z M 13.542969 6.734375 L 15.214844 6.734375 L 15.214844 13.421875 L 13.542969 13.421875 Z M 10.199219 9.242188 L 11.871094 9.242188 L 11.871094 13.421875 L 10.199219 13.421875 Z M 6.855469 11.332031 L 8.527344 11.332031 L 8.527344 13.421875 L 6.855469 13.421875 Z M 6.855469 11.332031 "/>
</g>
</svg>
