
<svg xmlns="http://www.w3.org/2000/svg" xmlns:xlink="http://www.w3.org/1999/xlink" width="16px" height="16px" viewBox="0 0 16 16" version="1.1">
<g id="surface1">
<path style=" stroke:none;fill-rule:nonzero;fill:#ff6666;fill-opacity:1;" d="M 13.117188 6.847656 C 13.136719 7.28125 12.984375 7.492188 12.855469 7.863281 L 12.617188 7.976562 C 12.417969 8.34375 12.632812 8.210938 12.492188 8.5 C 12.1875 8.765625 11.566406 9.324219 11.367188 9.371094 C 11.21875 9.371094 11.464844 9.207031 11.496094 9.144531 C 11.085938 9.414062 11.167969 9.550781 10.539062 9.714844 L 10.523438 9.675781 C 8.980469 10.378906 6.835938 8.988281 6.863281 7.097656 C 6.847656 7.21875 6.816406 7.183594 6.78125 7.234375 C 6.703125 6.257812 7.25 5.28125 8.167969 4.882812 C 9.070312 4.453125 10.128906 4.628906 10.773438 5.207031 C 10.421875 4.761719 9.714844 4.285156 8.878906 4.332031 C 8.058594 4.339844 7.292969 4.847656 7.035156 5.386719 C 6.613281 5.640625 6.566406 6.371094 6.382812 6.503906 C 6.136719 8.246094 6.847656 9.003906 8.046875 9.886719 C 8.234375 10.007812 8.097656 10.023438 8.125 10.121094 C 7.726562 9.9375 7.359375 9.667969 7.0625 9.335938 C 7.21875 9.5625 7.390625 9.78125 7.613281 9.953125 C 7.238281 9.828125 6.734375 9.074219 6.589844 9.042969 C 7.238281 10.164062 9.214844 11.003906 10.253906 10.585938 C 9.773438 10.601562 9.164062 10.59375 8.625 10.402344 C 8.398438 10.289062 8.089844 10.058594 8.144531 10.015625 C 9.558594 10.523438 11.023438 10.402344 12.246094 9.453125 C 12.554688 9.21875 12.898438 8.820312 12.996094 8.816406 C 12.84375 9.03125 13.019531 8.917969 12.910156 9.109375 C 13.21875 8.628906 12.773438 8.914062 13.230469 8.277344 L 13.398438 8.5 C 13.335938 8.097656 13.914062 7.613281 13.855469 6.976562 C 13.988281 6.785156 14.003906 7.1875 13.863281 7.632812 C 14.058594 7.140625 13.914062 7.0625 13.964844 6.648438 C 14.019531 6.789062 14.089844 6.933594 14.125 7.078125 C 14 6.601562 14.257812 6.273438 14.320312 5.996094 C 14.257812 5.96875 14.121094 6.207031 14.09375 5.644531 C 14.097656 5.398438 14.164062 5.519531 14.1875 5.457031 C 14.140625 5.425781 14.007812 5.246094 13.929688 4.882812 C 13.984375 4.800781 14.082031 5.105469 14.164062 5.117188 C 14.113281 4.832031 14.023438 4.613281 14.019531 4.390625 C 13.789062 3.929688 13.9375 4.460938 13.753906 4.195312 C 13.507812 3.457031 13.957031 4.023438 13.988281 3.6875 C 14.355469 4.207031 14.570312 5.007812 14.667969 5.339844 C 14.59375 4.9375 14.472656 4.542969 14.324219 4.164062 C 14.4375 4.210938 14.144531 3.339844 14.472656 3.914062 C 14.125 2.667969 12.976562 1.511719 11.921875 0.96875 C 12.050781 1.082031 12.210938 1.226562 12.152344 1.246094 C 11.628906 0.949219 11.722656 0.921875 11.644531 0.796875 C 11.21875 0.628906 11.1875 0.808594 10.90625 0.796875 C 10.101562 0.382812 9.945312 0.425781 9.203125 0.164062 L 9.238281 0.316406 C 8.703125 0.148438 8.617188 0.382812 8.035156 0.316406 C 8.003906 0.292969 8.222656 0.21875 8.402344 0.195312 C 7.886719 0.261719 7.910156 0.0976562 7.40625 0.210938 C 7.53125 0.128906 7.660156 0.0742188 7.796875 0 C 7.375 0.0273438 6.789062 0.238281 6.972656 0.0429688 C 6.285156 0.339844 5.066406 0.753906 4.378906 1.375 L 4.359375 1.234375 C 4.046875 1.597656 2.992188 2.316406 2.90625 2.789062 L 2.824219 2.808594 C 2.660156 3.074219 2.554688 3.375 2.425781 3.648438 C 2.210938 4 2.113281 3.78125 2.140625 3.839844 C 1.722656 4.660156 1.515625 5.347656 1.332031 5.914062 C 1.460938 6.097656 1.335938 7.03125 1.386719 7.773438 C 1.171875 11.445312 4.058594 15.003906 7.207031 15.828125 C 7.671875 15.988281 8.355469 15.984375 8.941406 16 C 8.253906 15.808594 8.164062 15.898438 7.492188 15.671875 C 7.007812 15.453125 6.902344 15.203125 6.558594 14.914062 L 6.695312 15.144531 C 6.023438 14.917969 6.304688 14.863281 5.753906 14.695312 L 5.902344 14.511719 C 5.683594 14.496094 5.324219 14.160156 5.222656 13.96875 L 4.984375 13.980469 C 4.699219 13.636719 4.546875 13.394531 4.558594 13.199219 L 4.480469 13.335938 C 4.394531 13.1875 3.425781 12.054688 3.929688 12.320312 C 3.835938 12.238281 3.710938 12.1875 3.574219 11.949219 L 3.675781 11.835938 C 3.4375 11.539062 3.234375 11.152344 3.25 11.027344 C 3.378906 11.195312 3.46875 11.222656 3.554688 11.253906 C 2.945312 9.792969 2.910156 11.171875 2.449219 9.769531 L 2.546875 9.761719 C 2.472656 9.652344 2.429688 9.535156 2.367188 9.417969 L 2.410156 9.011719 C 1.96875 8.519531 2.285156 6.929688 2.351562 6.058594 C 2.394531 5.699219 2.714844 5.324219 2.960938 4.730469 L 2.8125 4.707031 C 3.097656 4.226562 4.441406 2.777344 5.0625 2.847656 C 5.363281 2.484375 5 2.847656 4.945312 2.757812 C 5.605469 2.09375 5.8125 2.289062 6.261719 2.171875 C 6.75 1.894531 5.847656 2.277344 6.082031 2.066406 C 6.90625 1.859375 6.671875 1.597656 7.761719 1.492188 C 7.875 1.554688 7.492188 1.589844 7.398438 1.671875 C 8.09375 1.34375 9.59375 1.417969 10.570312 1.855469 C 11.707031 2.367188 12.980469 3.875 13.027344 5.296875 L 13.085938 5.308594 C 13.058594 5.878906 13.175781 6.527344 12.972656 7.125 L 13.109375 6.84375 "/>
</g>
</svg>
