
<svg xmlns="http://www.w3.org/2000/svg" xmlns:xlink="http://www.w3.org/1999/xlink" width="16px" height="16px" viewBox="0 0 16 16" version="1.1">
<g id="surface1">
<path style=" stroke:none;fill-rule:evenodd;fill:#ff6666;fill-opacity:1;" d="M 7.34375 14.96875 L 7.347656 10.914062 L 3.777344 10.914062 L 4.398438 9.828125 L 5.539062 9.828125 L 3.882812 6.941406 L 0.261719 6.941406 L 1.054688 7.398438 L 0 9.242188 L 2.832031 14.1875 L 3.101562 14.660156 L 3.292969 14.972656 Z M 13.855469 5.816406 L 10.597656 7.714844 L 12.378906 10.828125 L 11.136719 10.828125 L 10.566406 9.835938 L 8.910156 12.722656 L 10.722656 15.886719 L 10.722656 14.96875 L 12.832031 14.96875 L 15.664062 10.019531 L 15.933594 9.554688 L 16 9.433594 Z M 2.953125 3.796875 L 6.210938 5.695312 L 8 2.578125 L 8.617188 3.660156 L 8 4.683594 L 11.351562 4.683594 L 13.167969 1.5 L 12.382812 1.957031 L 11.324219 0.113281 L 4.988281 0.113281 Z M 2.953125 3.796875 "/>
</g>
</svg>
