
<svg xmlns="http://www.w3.org/2000/svg" xmlns:xlink="http://www.w3.org/1999/xlink" width="16px" height="16px" viewBox="0 0 16 16" version="1.1">
<g id="surface1">
<path style=" stroke:none;fill-rule:evenodd;fill:#ff6666;fill-opacity:1;" d="M 13.703125 13.703125 C 12.167969 15.234375 10.269531 16 8 16 C 5.730469 16 3.832031 15.234375 2.296875 13.703125 C 0.765625 12.167969 0 10.269531 0 8 C 0 5.730469 0.765625 3.832031 2.296875 2.296875 C 3.832031 0.765625 5.730469 0 8 0 C 10.269531 0 12.167969 0.765625 13.703125 2.296875 C 15.234375 3.832031 16 5.730469 16 8 C 16 10.269531 15.234375 12.167969 13.703125 13.703125 Z M 3.335938 12.71875 C 4.574219 13.976562 6.128906 14.609375 8 14.609375 C 9.871094 14.609375 11.421875 13.976562 12.652344 12.71875 C 13.882812 11.457031 14.496094 9.886719 14.496094 8 C 14.496094 6.113281 13.882812 4.542969 12.652344 3.28125 C 11.421875 2.023438 9.871094 1.390625 8 1.390625 C 6.128906 1.390625 4.574219 2.023438 3.335938 3.28125 C 2.097656 4.542969 1.480469 6.113281 1.480469 8 C 1.480469 9.886719 2.097656 11.457031 3.335938 12.71875 Z M 8.109375 12.75 C 6.8125 12.75 5.832031 12.304688 5.160156 11.414062 C 4.488281 10.523438 4.15625 9.363281 4.15625 7.933594 C 4.15625 6.5625 4.5 5.417969 5.195312 4.496094 C 5.886719 3.578125 6.886719 3.117188 8.199219 3.117188 C 8.996094 3.117188 9.671875 3.320312 10.230469 3.722656 C 10.792969 4.128906 11.195312 4.664062 11.449219 5.324219 L 10.03125 5.96875 C 9.621094 5.082031 8.972656 4.640625 8.089844 4.640625 C 6.527344 4.640625 5.746094 5.738281 5.746094 7.933594 C 5.746094 10.144531 6.542969 11.25 8.132812 11.25 C 9.121094 11.25 9.78125 10.761719 10.121094 9.789062 L 11.492188 10.296875 C 11.242188 11.066406 10.820312 11.664062 10.230469 12.097656 C 9.644531 12.535156 8.933594 12.75 8.109375 12.75 Z M 8.109375 12.75 "/>
</g>
</svg>
