
<svg xmlns="http://www.w3.org/2000/svg" xmlns:xlink="http://www.w3.org/1999/xlink" width="16px" height="16px" viewBox="0 0 16 16" version="1.1">
<g id="surface1">
<path style=" stroke:none;fill-rule:nonzero;fill:#ff6666;fill-opacity:1;" d="M 14.667969 15.621094 C 14.515625 15.597656 14.390625 15.53125 14.289062 15.421875 C 14.0625 15.179688 13.6875 14.464844 13.382812 13.6875 C 13.210938 13.25 12.882812 12.292969 12.882812 12.226562 C 12.882812 12.207031 13.101562 12.0625 13.363281 11.90625 L 13.847656 11.628906 L 13.921875 11.699219 C 14.21875 11.980469 15.082031 13.265625 15.582031 14.179688 C 15.785156 14.546875 15.804688 14.597656 15.804688 14.75 C 15.800781 14.953125 15.738281 15.089844 15.558594 15.289062 C 15.34375 15.527344 14.976562 15.664062 14.667969 15.621094 Z M 0.359375 15.378906 C 0.371094 15.355469 0.515625 14.695312 0.6875 13.914062 C 0.855469 13.128906 1 12.484375 1.003906 12.476562 C 1.019531 12.457031 2.554688 13.539062 2.554688 13.566406 C 2.554688 13.585938 2.109375 13.964844 1.566406 14.417969 C 0.34375 15.429688 0.339844 15.433594 0.359375 15.378906 Z M 1.988281 12.617188 C 1.558594 12.320312 1.214844 12.066406 1.21875 12.050781 C 1.226562 12.015625 4.910156 5.78125 4.9375 5.75 C 4.957031 5.734375 6.566406 6.746094 6.640625 6.820312 C 6.65625 6.835938 2.828125 13.144531 2.796875 13.148438 C 2.78125 13.152344 2.417969 12.914062 1.988281 12.617188 Z M 12.09375 10.972656 C 11.800781 10.476562 11.5625 10.066406 11.570312 10.0625 C 11.621094 10.027344 12.734375 9.386719 12.746094 9.386719 C 12.765625 9.386719 13.699219 11.25 13.6875 11.257812 C 13.566406 11.34375 12.675781 11.875 12.65625 11.875 C 12.640625 11.871094 12.386719 11.464844 12.09375 10.972656 Z M 0.0117188 10.878906 C 0 10.792969 -0.00390625 10.09375 0.00390625 9.328125 L 0.0117188 7.9375 L 1.554688 7.945312 C 2.402344 7.949219 3.101562 7.957031 3.105469 7.960938 C 3.109375 7.964844 2.703125 8.660156 2.199219 9.503906 L 1.28125 11.035156 L 0.03125 11.035156 Z M 4.640625 10.992188 C 4.640625 10.984375 5.058594 10.289062 5.574219 9.449219 L 6.503906 7.917969 L 9.8125 7.917969 L 10.695312 9.390625 C 11.179688 10.199219 11.597656 10.894531 11.617188 10.933594 L 11.65625 11.003906 L 8.148438 11.003906 C 6.21875 11.003906 4.640625 11 4.640625 10.992188 Z M 13.664062 10.339844 C 13.484375 9.972656 13.152344 9.285156 12.917969 8.808594 L 12.496094 7.949219 L 13.640625 7.949219 C 14.269531 7.949219 15.058594 7.941406 15.394531 7.929688 L 16 7.910156 L 16 11.003906 L 13.988281 11.003906 Z M 11.109375 9.347656 C 10.433594 8.28125 9.742188 7.027344 8.910156 5.355469 C 8.253906 4.03125 7.621094 2.660156 7.359375 1.996094 C 6.980469 1.03125 6.890625 0.433594 7.113281 0.378906 C 7.472656 0.289062 8.175781 1.105469 9.179688 2.773438 C 9.964844 4.082031 11.21875 6.367188 12.179688 8.234375 C 12.355469 8.578125 12.53125 8.917969 12.570312 8.988281 L 12.640625 9.113281 L 12.046875 9.457031 C 11.71875 9.648438 11.4375 9.804688 11.421875 9.804688 C 11.410156 9.804688 11.269531 9.601562 11.109375 9.347656 Z M 5.921875 6.042969 L 5.089844 5.492188 L 5.167969 5.367188 C 5.210938 5.300781 5.429688 4.953125 5.652344 4.59375 C 5.875 4.238281 6.0625 3.941406 6.066406 3.9375 C 6.070312 3.933594 6.445312 4.171875 6.898438 4.472656 L 7.726562 5.015625 L 7.601562 5.214844 C 7.535156 5.324219 7.332031 5.660156 7.152344 5.957031 C 6.96875 6.253906 6.804688 6.515625 6.789062 6.542969 C 6.757812 6.582031 6.640625 6.515625 5.921875 6.042969 Z M 6.984375 4.257812 C 6.554688 3.976562 6.199219 3.734375 6.199219 3.71875 C 6.199219 3.597656 6.554688 3.269531 6.730469 3.222656 C 7.023438 3.152344 7.496094 3.335938 7.761719 3.625 C 7.964844 3.847656 8.007812 3.957031 7.988281 4.1875 C 7.976562 4.359375 7.835938 4.773438 7.789062 4.773438 C 7.777344 4.773438 7.414062 4.542969 6.984375 4.257812 Z M 6.984375 4.257812 "/>
</g>
</svg>
