
<svg xmlns="http://www.w3.org/2000/svg" xmlns:xlink="http://www.w3.org/1999/xlink" width="16px" height="16px" viewBox="0 0 16 16" version="1.1">
<g id="surface1">
<path style=" stroke:none;fill-rule:evenodd;fill:#ff6666;fill-opacity:1;" d="M 8.339844 8.808594 C 8.371094 8.277344 8.632812 7.804688 9.027344 7.472656 C 9.414062 7.144531 9.933594 6.945312 10.5 6.945312 C 11.070312 6.945312 11.589844 7.144531 11.976562 7.472656 C 12.371094 7.804688 12.628906 8.277344 12.660156 8.808594 C 12.691406 9.355469 12.472656 9.867188 12.082031 10.242188 C 11.691406 10.628906 11.128906 10.871094 10.5 10.871094 C 9.871094 10.871094 9.3125 10.628906 8.917969 10.242188 C 8.53125 9.867188 8.3125 9.355469 8.339844 8.808594 Z M 12.960938 11.046875 C 12.3125 11.707031 11.410156 12.078125 10.429688 12.082031 C 9.449219 12.082031 8.546875 11.714844 7.898438 11.054688 C 7.582031 10.734375 7.351562 10.367188 7.207031 9.976562 C 7.066406 9.589844 7.011719 9.179688 7.050781 8.765625 C 7.082031 8.363281 7.203125 7.976562 7.394531 7.628906 C 7.585938 7.285156 7.84375 6.976562 8.164062 6.714844 C 8.792969 6.203125 9.59375 5.925781 10.429688 5.925781 C 11.265625 5.921875 12.066406 6.199219 12.695312 6.707031 C 13.015625 6.96875 13.273438 7.277344 13.460938 7.621094 C 13.65625 7.96875 13.773438 8.351562 13.808594 8.757812 C 13.84375 9.167969 13.789062 9.578125 13.652344 9.964844 C 13.507812 10.359375 13.277344 10.726562 12.960938 11.046875 Z M 4.902344 9.886719 C 4.902344 10.097656 4.972656 10.503906 5.070312 10.820312 C 5.28125 11.488281 5.636719 12.109375 6.132812 12.65625 C 6.640625 13.21875 7.265625 13.671875 7.992188 13.992188 C 8.75 14.328125 9.574219 14.5 10.429688 14.5 C 11.285156 14.496094 12.109375 14.324219 12.867188 13.984375 C 13.589844 13.660156 14.21875 13.207031 14.726562 12.644531 C 15.21875 12.09375 15.578125 11.472656 15.785156 10.800781 C 15.894531 10.464844 15.960938 10.121094 15.984375 9.773438 C 16.011719 9.433594 16 9.09375 15.953125 8.753906 C 15.859375 8.089844 15.628906 7.46875 15.277344 6.898438 C 14.953125 6.378906 14.535156 5.921875 14.039062 5.539062 L 14.042969 5.539062 L 9.042969 1.699219 C 9.039062 1.695312 9.035156 1.691406 9.03125 1.691406 C 8.703125 1.4375 8.152344 1.4375 7.792969 1.691406 C 7.425781 1.945312 7.386719 2.367188 7.710938 2.632812 L 7.707031 2.636719 L 9.792969 4.332031 L 3.4375 4.335938 C 3.433594 4.335938 3.433594 4.335938 3.429688 4.335938 C 2.90625 4.339844 2.398438 4.683594 2.300781 5.117188 C 2.195312 5.5625 2.554688 5.929688 3.101562 5.933594 L 3.097656 5.933594 L 6.320312 5.925781 L 0.574219 10.339844 C 0.566406 10.34375 0.558594 10.351562 0.550781 10.355469 C 0.0078125 10.769531 -0.167969 11.460938 0.175781 11.898438 C 0.519531 12.34375 1.257812 12.34375 1.804688 11.898438 L 4.941406 9.332031 C 4.941406 9.332031 4.898438 9.679688 4.902344 9.886719 Z M 4.902344 9.886719 "/>
</g>
</svg>
