
<svg xmlns="http://www.w3.org/2000/svg" xmlns:xlink="http://www.w3.org/1999/xlink" width="16px" height="16px" viewBox="0 0 16 16" version="1.1">
<g id="surface1">
<path style=" stroke:none;fill-rule:nonzero;fill:#ff6666;fill-opacity:1;" d="M 0 0 L 0 16 L 2.574219 16 C 2.582031 13.914062 2.554688 11.828125 2.59375 9.746094 C 2.65625 8.765625 2.707031 7.519531 3.574219 6.980469 C 4.050781 6.6875 4.691406 6.613281 5.214844 6.796875 C 5.988281 7.066406 6.117188 8.136719 6.148438 8.90625 C 6.160156 11.269531 6.152344 13.636719 6.15625 16 L 8.71875 16 C 8.714844 13.34375 8.738281 10.65625 8.71875 8 C 8.691406 6.664062 8.183594 5.203125 6.996094 4.59375 C 5.980469 4.074219 4.78125 4.226562 3.75 4.648438 C 3.265625 4.847656 2.59375 5.8125 2.59375 5.8125 C 2.585938 3.875 2.582031 1.9375 2.574219 0 Z M 0 0 "/>
<path style=" stroke:none;fill-rule:evenodd;fill:#ff6666;fill-opacity:1;" d="M 11.875 6.835938 L 11.875 4.480469 L 9.644531 4.476562 L 9.644531 2.371094 L 11.875 2.371094 L 11.878906 0 L 13.785156 0 L 13.78125 2.371094 L 16 2.375 L 16 4.480469 L 13.78125 4.480469 L 13.78125 6.835938 Z M 11.867188 16 L 11.871094 13.644531 L 9.640625 13.640625 L 9.640625 11.53125 L 11.871094 11.535156 L 11.871094 9.164062 L 13.777344 9.164062 L 13.777344 11.535156 L 15.996094 11.535156 L 15.992188 13.644531 L 13.777344 13.644531 L 13.773438 16 Z M 11.867188 16 "/>
</g>
</svg>
