
<svg xmlns="http://www.w3.org/2000/svg" xmlns:xlink="http://www.w3.org/1999/xlink" width="16px" height="16px" viewBox="0 0 16 16" version="1.1">
<g id="surface1">
<path style=" stroke:none;fill-rule:nonzero;fill:#ff6666;fill-opacity:1;" d="M 12.386719 0 C 11.800781 0.015625 11.21875 0.207031 10.742188 0.554688 C 10.195312 0.953125 9.804688 1.53125 9.375 2.0625 C 9.160156 2.324219 8.933594 2.582031 8.671875 2.796875 C 8.40625 3.015625 8.113281 3.234375 7.777344 3.277344 C 7.101562 3.367188 6.402344 3.023438 5.789062 2.808594 C 5.15625 2.566406 4.527344 2.261719 3.851562 2.191406 C 2.921875 2.09375 1.949219 2.480469 1.339844 3.195312 C 0.730469 3.910156 0.5 5.152344 0.742188 6.0625 C 0.984375 6.972656 1.695312 7.742188 2.578125 8.054688 C 3.464844 8.367188 4.496094 8.21875 5.257812 7.664062 C 5.804688 7.261719 6.195312 6.683594 6.625 6.15625 C 7.082031 5.585938 7.5625 5.023438 8.222656 4.765625 C 8.535156 4.640625 8.898438 4.679688 9.234375 4.734375 C 9.566406 4.789062 9.894531 4.894531 10.210938 5.019531 C 10.84375 5.261719 11.472656 5.566406 12.148438 5.636719 C 13.078125 5.734375 14.050781 5.347656 14.660156 4.632812 C 15.269531 3.914062 15.5 3.066406 15.257812 2.15625 C 15.015625 1.246094 14.304688 0.476562 13.421875 0.160156 C 13.089844 0.0429688 12.734375 -0.0078125 12.386719 0 Z M 12.738281 6.488281 C 12.308594 6.5 11.878906 6.640625 11.53125 6.894531 C 11.128906 7.191406 10.839844 7.613281 10.523438 8.003906 C 10.367188 8.199219 10.199219 8.390625 10.007812 8.546875 C 9.8125 8.707031 9.59375 8.835938 9.351562 8.902344 C 9.109375 8.96875 8.855469 8.964844 8.605469 8.925781 C 8.359375 8.886719 8.121094 8.804688 7.886719 8.714844 C 7.421875 8.535156 6.960938 8.3125 6.464844 8.261719 C 5.777344 8.1875 5.066406 8.472656 4.617188 9 C 4.171875 9.527344 4 10.28125 4.179688 10.953125 C 4.355469 11.621094 4.878906 12.191406 5.527344 12.421875 C 6.179688 12.652344 6.9375 12.542969 7.496094 12.132812 C 7.898438 11.839844 8.1875 11.410156 8.503906 11.023438 C 8.660156 10.828125 8.828125 10.636719 9.019531 10.480469 C 9.214844 10.320312 9.433594 10.191406 9.675781 10.125 C 9.917969 10.058594 10.171875 10.0625 10.421875 10.101562 C 10.664062 10.144531 10.90625 10.222656 11.140625 10.3125 C 11.605469 10.488281 12.066406 10.714844 12.5625 10.769531 C 13.246094 10.839844 13.960938 10.554688 14.410156 10.027344 C 14.859375 9.5 15.027344 8.746094 14.847656 8.074219 C 14.671875 7.40625 14.148438 6.835938 13.5 6.605469 C 13.253906 6.519531 12.996094 6.480469 12.738281 6.488281 Z M 8.117188 12.976562 C 8.019531 12.980469 7.921875 12.996094 7.824219 13.023438 C 7.441406 13.125 7.101562 13.386719 6.90625 13.730469 C 6.707031 14.074219 6.652344 14.496094 6.753906 14.878906 C 6.855469 15.261719 7.113281 15.601562 7.460938 15.796875 C 7.800781 15.996094 8.226562 16.050781 8.609375 15.949219 C 8.992188 15.847656 9.328125 15.589844 9.527344 15.242188 C 9.726562 14.902344 9.78125 14.476562 9.679688 14.09375 C 9.574219 13.710938 9.316406 13.371094 8.972656 13.175781 C 8.714844 13.027344 8.414062 12.957031 8.117188 12.976562 Z M 8.117188 12.976562 "/>
</g>
</svg>
