
<svg xmlns="http://www.w3.org/2000/svg" xmlns:xlink="http://www.w3.org/1999/xlink" width="16px" height="16px" viewBox="0 0 16 16" version="1.1">
<g id="surface1">
<path style=" stroke:none;fill-rule:evenodd;fill:#ff6666;fill-opacity:1;" d="M 11.757812 1.578125 L 11.894531 1.761719 L 11.234375 4.296875 L 10.984375 4.339844 L 9.390625 1.800781 L 9.503906 1.578125 Z M 6.496094 1.578125 L 6.605469 1.808594 L 4.730469 4.484375 L 4.480469 4.421875 L 4.101562 1.742188 L 4.242188 1.578125 Z M 13.179688 1.628906 L 16 5.292969 L 15.890625 5.527344 L 11.945312 5.527344 L 11.8125 5.339844 L 12.941406 1.675781 Z M 8.109375 1.628906 L 10.925781 5.292969 L 10.820312 5.527344 L 5.179688 5.527344 L 5.074219 5.292969 L 7.890625 1.628906 Z M 2.820312 1.628906 L 3.058594 1.675781 L 4.1875 5.339844 L 4.054688 5.527344 L 0.109375 5.527344 L 0 5.292969 Z M 15.890625 6.089844 L 15.996094 6.328125 L 8.667969 14.5 L 8.433594 14.347656 L 11.816406 6.175781 L 11.945312 6.089844 Z M 10.820312 6.089844 L 10.949219 6.285156 L 8.128906 13.332031 L 7.871094 13.332031 L 5.050781 6.285156 L 5.179688 6.089844 Z M 4.054688 6.089844 L 4.183594 6.175781 L 7.566406 14.347656 L 7.332031 14.5 L 0.00390625 6.328125 L 0.109375 6.089844 Z M 4.054688 6.089844 "/>
</g>
</svg>
