
<svg xmlns="http://www.w3.org/2000/svg" xmlns:xlink="http://www.w3.org/1999/xlink" width="16px" height="16px" viewBox="0 0 16 16" version="1.1">
<g id="surface1">
<path style=" stroke:none;fill-rule:nonzero;fill:#ff6666;fill-opacity:1;" d="M 8.132812 0 L 8.113281 0.492188 L 8.574219 0.507812 L 9.148438 0.578125 L 9.207031 0.0859375 L 8.628906 0.015625 L 8.613281 0.015625 Z M 7.03125 0.0625 L 6.617188 0.117188 L 6.605469 0.121094 L 6.59375 0.121094 L 5.96875 0.261719 L 6.074219 0.742188 L 6.679688 0.609375 L 6.6875 0.609375 L 7.097656 0.550781 Z M 10.28125 0.328125 L 10.140625 0.800781 L 10.453125 0.894531 L 11.058594 1.132812 L 11.0625 1.132812 L 11.078125 1.140625 L 11.097656 1.152344 L 11.316406 0.710938 L 11.269531 0.6875 L 11.257812 0.683594 L 10.632812 0.4375 L 10.625 0.433594 L 10.613281 0.429688 Z M 4.925781 0.617188 L 4.683594 0.71875 L 4.671875 0.722656 L 4.664062 0.726562 L 4.074219 1.027344 L 4.066406 1.03125 L 4.058594 1.039062 L 3.941406 1.109375 L 4.203125 1.53125 L 4.300781 1.464844 L 4.3125 1.460938 L 4.316406 1.457031 L 4.890625 1.167969 L 5.113281 1.078125 Z M 13.9375 0.664062 C 13.15625 0.664062 12.527344 1.296875 12.527344 2.074219 C 12.527344 2.855469 13.15625 3.488281 13.9375 3.488281 C 14.714844 3.488281 15.347656 2.855469 15.347656 2.074219 C 15.347656 1.296875 14.714844 0.664062 13.9375 0.664062 Z M 3.050781 1.722656 L 2.9375 1.804688 L 2.921875 1.820312 L 2.417969 2.273438 L 2.40625 2.28125 L 2.402344 2.289062 L 2.234375 2.464844 L 2.597656 2.800781 L 2.746094 2.640625 L 2.761719 2.625 L 3.234375 2.199219 L 3.347656 2.117188 Z M 8.011719 1.792969 C 4.582031 1.792969 1.804688 4.574219 1.804688 8 C 1.804688 11.425781 4.582031 14.207031 8.011719 14.207031 C 11.4375 14.207031 14.21875 11.425781 14.21875 8 C 14.21875 4.574219 11.4375 1.792969 8.011719 1.792969 Z M 1.539062 3.292969 L 1.472656 3.382812 L 1.457031 3.398438 L 1.074219 4 L 1.070312 4.007812 L 1.066406 4.019531 L 0.953125 4.230469 L 1.390625 4.457031 L 1.5 4.25 L 1.503906 4.246094 L 1.859375 3.683594 L 1.867188 3.675781 L 1.875 3.664062 L 1.929688 3.597656 Z M 10.550781 4.050781 C 11.332031 4.050781 11.960938 4.683594 11.960938 5.460938 C 11.960938 6.242188 11.328125 6.871094 10.550781 6.871094 C 9.773438 6.871094 9.140625 6.242188 9.140625 5.460938 C 9.140625 4.683594 9.773438 4.050781 10.550781 4.050781 Z M 15.148438 4.375 L 14.699219 4.582031 L 14.988281 5.21875 L 14.988281 5.222656 L 15.097656 5.539062 L 15.566406 5.375 L 15.449219 5.039062 L 15.445312 5.027344 L 15.4375 5.015625 Z M 0.507812 5.21875 L 0.46875 5.308594 L 0.464844 5.320312 L 0.460938 5.328125 L 0.261719 5.992188 L 0.257812 6 L 0.253906 6.011719 L 0.199219 6.277344 L 0.683594 6.378906 L 0.738281 6.121094 L 0.738281 6.113281 L 0.925781 5.496094 L 0.933594 5.480469 L 0.933594 5.472656 L 0.964844 5.402344 Z M 15.859375 6.4375 L 15.375 6.515625 L 15.476562 7.15625 L 15.503906 7.542969 L 15.996094 7.511719 L 15.96875 7.121094 L 15.96875 7.109375 L 15.964844 7.101562 Z M 0.0351562 7.347656 L 0.0273438 7.386719 L 0.0273438 7.410156 L 0.00390625 8.09375 L 0.00390625 8.117188 L 0.0234375 8.449219 L 0.519531 8.421875 L 0.5 8.09375 L 0.5 8.085938 L 0.519531 7.433594 L 0.523438 7.402344 Z M 15.5 8.5625 L 15.429688 9.171875 L 15.347656 9.585938 L 15.832031 9.6875 L 15.914062 9.273438 L 15.917969 9.261719 L 15.917969 9.25 L 15.992188 8.617188 Z M 0.636719 9.429688 L 0.15625 9.542969 L 0.308594 10.1875 L 0.316406 10.210938 L 0.445312 10.589844 L 0.914062 10.433594 L 0.785156 10.0625 L 0.785156 10.054688 Z M 15.070312 10.5625 L 14.839844 11.132812 L 14.835938 11.136719 L 14.644531 11.511719 L 15.082031 11.734375 L 15.285156 11.34375 L 15.289062 11.335938 L 15.292969 11.324219 L 15.527344 10.75 Z M 1.300781 11.371094 L 0.867188 11.605469 L 1.171875 12.160156 L 1.179688 12.167969 L 1.183594 12.179688 L 1.425781 12.535156 L 1.835938 12.257812 L 1.605469 11.921875 L 1.597656 11.910156 L 1.59375 11.902344 Z M 14.113281 12.375 L 13.773438 12.820312 L 13.769531 12.824219 L 13.449219 13.171875 L 13.8125 13.507812 L 14.136719 13.15625 L 14.152344 13.140625 L 14.503906 12.675781 Z M 2.460938 13.058594 L 2.109375 13.402344 L 2.566406 13.863281 L 2.582031 13.878906 L 2.898438 14.148438 L 3.214844 13.769531 L 2.917969 13.519531 L 2.914062 13.511719 Z M 12.703125 13.859375 L 12.277344 14.183594 L 12.269531 14.191406 L 12.257812 14.199219 L 11.847656 14.453125 L 12.109375 14.871094 L 12.535156 14.605469 L 12.546875 14.597656 L 12.554688 14.59375 L 13 14.253906 Z M 4.035156 14.367188 L 3.789062 14.796875 L 4.320312 15.101562 L 4.332031 15.109375 L 4.339844 15.113281 L 4.746094 15.300781 L 4.953125 14.851562 L 4.570312 14.675781 Z M 10.945312 14.910156 L 10.46875 15.097656 L 10.460938 15.101562 L 9.964844 15.246094 L 10.101562 15.722656 L 10.609375 15.574219 L 10.617188 15.570312 L 10.628906 15.566406 L 11.125 15.371094 Z M 5.90625 15.207031 L 5.78125 15.683594 L 6.34375 15.828125 L 6.367188 15.835938 L 6.839844 15.910156 L 6.921875 15.425781 L 6.449219 15.347656 Z M 8.964844 15.445312 L 8.496094 15.496094 L 8.488281 15.496094 L 7.929688 15.507812 L 7.941406 16 L 8.503906 15.992188 L 8.515625 15.992188 L 8.527344 15.988281 L 9.019531 15.9375 Z M 8.964844 15.445312 "/>
</g>
</svg>
