
<svg xmlns="http://www.w3.org/2000/svg" xmlns:xlink="http://www.w3.org/1999/xlink" width="16px" height="16px" viewBox="0 0 16 16" version="1.1">
<g id="surface1">
<path style=" stroke:none;fill-rule:nonzero;fill:#ff6666;fill-opacity:1;" d="M 8 0 C 7.894531 -0.00390625 7.789062 0.0234375 7.695312 0.078125 L 0.597656 4.382812 C 0.367188 4.53125 0.257812 4.8125 0.328125 5.078125 C 0.398438 5.347656 0.636719 5.539062 0.90625 5.539062 L 15.097656 5.539062 C 15.425781 5.539062 15.691406 5.265625 15.691406 4.921875 C 15.691406 4.664062 15.542969 4.4375 15.328125 4.347656 L 8.289062 0.078125 C 8.203125 0.0234375 8.101562 -0.00390625 8 0 Z M 8 2.058594 C 8.734375 2.058594 9.328125 2.652344 9.328125 3.382812 C 9.328125 4.117188 8.734375 4.710938 8 4.710938 C 7.269531 4.710938 6.675781 4.117188 6.675781 3.382812 C 6.675781 2.652344 7.269531 2.058594 8 2.058594 Z M 0.925781 6.152344 L 0.925781 6.769531 C 0.925781 7.109375 1.203125 7.382812 1.539062 7.382812 L 1.539062 12.308594 L 3.386719 12.308594 L 3.386719 7.382812 C 3.722656 7.382812 4 7.109375 4 6.769531 L 4 6.152344 Z M 4.617188 6.152344 L 4.617188 6.769531 C 4.617188 7.109375 4.894531 7.382812 5.230469 7.382812 L 5.230469 12.308594 L 7.078125 12.308594 L 7.078125 7.382812 C 7.417969 7.382812 7.695312 7.109375 7.695312 6.769531 L 7.695312 6.152344 Z M 8.308594 6.152344 L 8.308594 6.769531 C 8.308594 7.109375 8.585938 7.382812 8.925781 7.382812 L 8.925781 12.308594 L 10.769531 12.308594 L 10.769531 7.382812 C 11.109375 7.382812 11.386719 7.109375 11.386719 6.769531 L 11.386719 6.152344 Z M 12 6.152344 L 12 6.769531 C 12 7.109375 12.277344 7.382812 12.617188 7.382812 L 12.617188 12.308594 L 14.464844 12.308594 L 14.464844 7.382812 C 14.800781 7.382812 15.078125 7.109375 15.078125 6.769531 L 15.078125 6.152344 Z M 1.539062 12.921875 L 1.539062 14.152344 L 0.925781 14.152344 C 0.585938 14.152344 0.308594 14.429688 0.308594 14.769531 L 0.308594 15.382812 C 0.308594 15.722656 0.585938 16 0.925781 16 L 15.078125 16 C 15.417969 16 15.695312 15.722656 15.695312 15.382812 L 15.695312 14.769531 C 15.695312 14.429688 15.417969 14.152344 15.078125 14.152344 L 14.464844 14.152344 L 14.464844 12.921875 Z M 1.539062 12.921875 "/>
</g>
</svg>
