
<svg xmlns="http://www.w3.org/2000/svg" xmlns:xlink="http://www.w3.org/1999/xlink" width="16px" height="16px" viewBox="0 0 16 16" version="1.1">
<g id="surface1">
<path style=" stroke:none;fill-rule:nonzero;fill:#ff6666;fill-opacity:1;" d="M 7.667969 0 C 7.476562 0 7.324219 0.140625 7.324219 0.320312 L 7.324219 1.101562 C 6.71875 1.347656 6.289062 1.90625 6.289062 2.558594 C 6.289062 3.441406 7.0625 4.160156 8.015625 4.160156 C 8.964844 4.160156 9.738281 3.441406 9.738281 2.558594 C 9.738281 1.90625 9.308594 1.347656 8.703125 1.097656 L 8.703125 0.320312 C 8.703125 0.140625 8.550781 0 8.359375 0 Z M 5.980469 3.757812 L 4.15625 8.316406 L 2.144531 8.316406 C 2.046875 8.3125 1.949219 8.347656 1.878906 8.410156 C 1.808594 8.476562 1.773438 8.566406 1.777344 8.65625 C 1.789062 8.832031 1.953125 8.96875 2.144531 8.957031 L 7.324219 8.957031 L 7.324219 9.917969 C 7.324219 10.09375 7.476562 10.238281 7.667969 10.238281 L 8.359375 10.238281 C 8.550781 10.238281 8.703125 10.09375 8.703125 9.917969 L 8.703125 8.957031 L 13.871094 8.957031 C 13.996094 8.957031 14.113281 8.898438 14.175781 8.796875 C 14.238281 8.699219 14.238281 8.574219 14.175781 8.476562 C 14.113281 8.375 13.996094 8.316406 13.871094 8.316406 L 11.871094 8.316406 L 10.050781 3.757812 C 9.652344 4.339844 8.988281 4.722656 8.25 4.789062 L 9.714844 8.316406 L 8.703125 8.316406 L 8.703125 7.359375 C 8.703125 7.179688 8.550781 7.039062 8.359375 7.039062 L 7.667969 7.039062 C 7.476562 7.039062 7.324219 7.179688 7.324219 7.359375 L 7.324219 8.316406 L 6.3125 8.316406 L 7.777344 4.789062 C 7.039062 4.722656 6.375 4.339844 5.980469 3.757812 Z M 3.664062 9.566406 L 2.261719 13.066406 C 2.238281 13.132812 2.238281 13.207031 2.261719 13.277344 L 2.84375 15.074219 L 2.84375 15.675781 C 2.84375 15.789062 2.90625 15.898438 3.015625 15.957031 C 3.125 16.015625 3.253906 16.015625 3.363281 15.957031 C 3.46875 15.898438 3.535156 15.789062 3.535156 15.675781 L 3.535156 15.074219 L 5.804688 9.566406 Z M 10.222656 9.566406 L 12.496094 15.074219 L 12.496094 15.675781 C 12.492188 15.789062 12.558594 15.898438 12.664062 15.957031 C 12.773438 16.015625 12.90625 16.015625 13.011719 15.957031 C 13.121094 15.898438 13.183594 15.789062 13.183594 15.675781 L 13.183594 15.074219 L 13.765625 13.277344 C 13.785156 13.210938 13.792969 13.132812 13.765625 13.066406 L 12.363281 9.566406 Z M 10.222656 9.566406 "/>
</g>
</svg>
