
<svg xmlns="http://www.w3.org/2000/svg" xmlns:xlink="http://www.w3.org/1999/xlink" width="16px" height="16px" viewBox="0 0 16 16" version="1.1">
<g id="surface1">
<path style=" stroke:none;fill-rule:evenodd;fill:#ff6666;fill-opacity:1;" d="M 1.882812 14.09375 C 1.082031 12.15625 0.0234375 10.453125 0 7.292969 C -0.0234375 4.027344 2.777344 1.914062 4.988281 1.914062 C 7.671875 1.914062 10.027344 4.175781 10.152344 6.050781 C 10.265625 7.742188 9.664062 10.203125 6.554688 10.183594 C 5.070312 10.175781 3.53125 8.886719 3.523438 6.964844 C 3.511719 4.894531 6.109375 4.691406 6.761719 5.21875 C 7.019531 5.421875 7.011719 5.828125 6.785156 5.757812 C 5.386719 5.300781 4.523438 6.199219 4.589844 7.089844 C 4.675781 8.300781 5.394531 9.019531 6.679688 9.082031 C 8.539062 9.171875 9.058594 7.363281 9.011719 6.632812 C 8.953125 5.738281 8.175781 3.90625 5.757812 3.570312 C 4.617188 3.414062 3.671875 3.753906 2.980469 4.425781 C 2.289062 5.09375 1.898438 5.789062 1.84375 6.925781 C 1.785156 8.101562 2.042969 8.789062 2.746094 10.332031 C 2.996094 10.882812 3.695312 11.996094 4.242188 13.109375 Z M 1.882812 14.09375 "/>
<path style=" stroke:none;fill-rule:evenodd;fill:#ff6666;fill-opacity:1;" d="M 14.117188 1.914062 C 14.917969 3.847656 15.976562 5.554688 16 8.714844 C 16.023438 11.980469 13.222656 14.09375 11.011719 14.09375 C 8.328125 14.09375 5.972656 11.832031 5.847656 9.957031 C 5.734375 8.265625 6.335938 5.804688 9.445312 5.820312 C 10.929688 5.832031 12.46875 7.121094 12.476562 9.042969 C 12.488281 11.113281 9.890625 11.316406 9.238281 10.789062 C 8.980469 10.582031 8.988281 10.179688 9.214844 10.25 C 10.613281 10.707031 11.476562 9.808594 11.410156 8.917969 C 11.324219 7.707031 10.605469 6.984375 9.320312 6.925781 C 7.460938 6.835938 6.941406 8.644531 6.988281 9.375 C 7.046875 10.265625 7.824219 12.101562 10.242188 12.433594 C 11.382812 12.59375 12.328125 12.25 13.019531 11.582031 C 13.710938 10.910156 14.101562 10.21875 14.15625 9.082031 C 14.214844 7.90625 13.957031 7.21875 13.253906 5.675781 C 13.003906 5.125 12.304688 4.011719 11.757812 2.898438 Z M 14.117188 1.914062 "/>
<path style=" stroke:none;fill-rule:evenodd;fill:#ff6666;fill-opacity:1;" d="M 4.984375 1.90625 C 2.773438 1.90625 -0.0234375 4.023438 0 7.285156 C 0.0234375 10.445312 1.089844 12.152344 1.886719 14.089844 L 4.238281 13.101562 C 4.03125 12.671875 3.800781 12.261719 3.578125 11.863281 L 3.058594 11.863281 L 3.058594 10.921875 C 2.929688 10.6875 2.816406 10.484375 2.746094 10.328125 C 2.042969 8.785156 1.785156 8.097656 1.847656 6.921875 C 1.902344 5.785156 2.296875 5.097656 2.988281 4.429688 C 3.675781 3.757812 4.621094 3.410156 5.761719 3.570312 C 6.902344 3.726562 7.675781 4.222656 8.183594 4.792969 L 8.660156 4.792969 L 8.660156 5.5 C 8.878906 5.917969 8.996094 6.324219 9.015625 6.625 C 9.035156 6.949219 8.933594 7.488281 8.660156 7.976562 L 8.660156 9.652344 C 9.945312 8.839844 10.234375 7.25 10.15625 6.046875 C 10.03125 4.171875 7.667969 1.90625 4.984375 1.90625 Z M 4.984375 1.90625 "/>
</g>
</svg>
