
<svg xmlns="http://www.w3.org/2000/svg" xmlns:xlink="http://www.w3.org/1999/xlink" width="16px" height="16px" viewBox="0 0 16 16" version="1.1">
<g id="surface1">
<path style=" stroke:none;fill-rule:evenodd;fill:#ff6666;fill-opacity:1;" d="M 3.699219 12.621094 L 3.699219 13.621094 C 2.871094 13.605469 2.21875 13.332031 1.742188 12.808594 C 1.265625 12.28125 1.027344 11.519531 1.027344 10.523438 L 1.027344 9.789062 C 1.027344 9.398438 0.949219 9.082031 0.789062 8.839844 C 0.628906 8.601562 0.40625 8.480469 0.121094 8.480469 L 0 8.480469 L 0 7.492188 L 0.121094 7.492188 C 0.40625 7.492188 0.628906 7.375 0.789062 7.136719 C 0.949219 6.902344 1.027344 6.589844 1.027344 6.195312 L 1.027344 5.476562 C 1.027344 4.480469 1.265625 3.71875 1.742188 3.191406 C 2.21875 2.667969 2.871094 2.394531 3.699219 2.378906 L 3.699219 3.378906 C 3.199219 3.398438 2.828125 3.5625 2.578125 3.878906 C 2.328125 4.195312 2.203125 4.644531 2.203125 5.222656 L 2.203125 6.035156 C 2.203125 6.722656 2.09375 7.207031 1.875 7.484375 C 1.660156 7.765625 1.3125 7.9375 0.839844 8 C 1.3125 8.054688 1.660156 8.21875 1.875 8.496094 C 2.09375 8.769531 2.203125 9.261719 2.203125 9.964844 L 2.203125 10.765625 C 2.203125 11.964844 2.703125 12.585938 3.699219 12.621094 Z M 11.324219 11.886719 L 5.570312 11.886719 L 5.570312 2.539062 L 6.730469 2.539062 L 6.730469 10.765625 L 11.324219 10.765625 Z M 12.300781 13.621094 L 12.300781 12.621094 C 13.289062 12.578125 13.78125 11.957031 13.78125 10.765625 L 13.78125 9.964844 C 13.78125 9.261719 13.890625 8.769531 14.109375 8.496094 C 14.328125 8.21875 14.671875 8.054688 15.144531 8 C 14.671875 7.9375 14.328125 7.765625 14.109375 7.484375 C 13.890625 7.207031 13.78125 6.722656 13.78125 6.035156 L 13.78125 5.222656 C 13.78125 4.039062 13.289062 3.421875 12.300781 3.378906 L 12.300781 2.378906 C 13.121094 2.394531 13.765625 2.667969 14.242188 3.191406 C 14.71875 3.71875 14.957031 4.480469 14.957031 5.476562 L 14.957031 6.195312 C 14.957031 6.589844 15.039062 6.902344 15.207031 7.136719 C 15.371094 7.375 15.589844 7.492188 15.867188 7.492188 L 16 7.492188 L 16 8.480469 L 15.867188 8.480469 C 15.589844 8.480469 15.371094 8.601562 15.207031 8.839844 C 15.039062 9.082031 14.957031 9.398438 14.957031 9.789062 L 14.957031 10.523438 C 14.957031 11.519531 14.71875 12.28125 14.242188 12.808594 C 13.765625 13.332031 13.121094 13.605469 12.300781 13.621094 Z M 12.300781 13.621094 "/>
</g>
</svg>
