
<svg xmlns="http://www.w3.org/2000/svg" xmlns:xlink="http://www.w3.org/1999/xlink" width="16px" height="16px" viewBox="0 0 16 16" version="1.1">
<g id="surface1">
<path style=" stroke:none;fill-rule:nonzero;fill:#ff6666;fill-opacity:1;" d="M 8.011719 0 C 6.121094 0.00390625 4.273438 0.863281 3.136719 2.460938 C 1.367188 4.953125 2.007812 8.328125 4.53125 10.085938 L 4.53125 15.332031 L 5.398438 15.332031 L 5.398438 16 L 10.613281 16 L 10.613281 15.332031 L 11.46875 15.332031 L 11.46875 10.085938 C 12.011719 9.707031 12.488281 9.25 12.867188 8.714844 C 14.671875 6.164062 13.96875 2.6875 11.28125 0.960938 C 10.277344 0.316406 9.140625 0 8.003906 0 M 7.996094 1.015625 C 8.921875 1.015625 9.855469 1.269531 10.683594 1.800781 C 12.882812 3.21875 13.460938 6.046875 11.976562 8.140625 C 11.632812 8.625 11.195312 9.046875 10.6875 9.375 L 10.601562 10.667969 L 5.386719 10.667969 L 5.308594 9.375 C 3.101562 7.957031 2.527344 5.128906 4.019531 3.035156 C 4.949219 1.722656 6.457031 1.015625 7.996094 1.019531 M 5.390625 11.335938 L 10.601562 11.335938 L 10.601562 12.667969 L 5.390625 12.667969 M 5.390625 13.332031 L 10.601562 13.332031 L 10.601562 14.476562 L 5.390625 14.476562 "/>
</g>
</svg>
