
<svg xmlns="http://www.w3.org/2000/svg" xmlns:xlink="http://www.w3.org/1999/xlink" width="16px" height="16px" viewBox="0 0 16 16" version="1.1">
<g id="surface1">
<path style=" stroke:none;fill-rule:evenodd;fill:#ff6666;fill-opacity:1;" d="M 3.429688 13.144531 L 3.429688 14.285156 L 16 14.285156 L 16 13.144531 Z M 3.429688 1.714844 L 3.429688 2.855469 L 16 2.855469 L 16 1.714844 Z M 3.429688 6.285156 L 3.429688 7.429688 L 16 7.429688 L 16 6.285156 Z M 3.429688 8.570312 L 3.429688 9.714844 L 16 9.714844 L 16 8.570312 Z M 3.429688 10.855469 L 3.429688 12 L 16 12 L 16 10.855469 Z M 3.429688 4 L 3.429688 5.144531 L 16 5.144531 L 16 4 Z M 0 1.714844 L 2.285156 1.714844 L 2.285156 2.855469 L 0 2.855469 Z M 0 4 L 2.285156 4 L 2.285156 5.144531 L 0 5.144531 Z M 0 6.285156 L 2.285156 6.285156 L 2.285156 7.429688 L 0 7.429688 Z M 0 8.570312 L 2.285156 8.570312 L 2.285156 9.714844 L 0 9.714844 Z M 0 10.855469 L 2.285156 10.855469 L 2.285156 12 L 0 12 Z M 0 13.144531 L 2.285156 13.144531 L 2.285156 14.285156 L 0 14.285156 Z M 0 13.144531 "/>
</g>
</svg>
