
<svg xmlns="http://www.w3.org/2000/svg" xmlns:xlink="http://www.w3.org/1999/xlink" width="16px" height="16px" viewBox="0 0 16 16" version="1.1">
<g id="surface1">
<path style=" stroke:none;fill-rule:evenodd;fill:#ff6666;fill-opacity:1;" d="M 15.992188 10.09375 L 13.882812 2.1875 C 13.882812 2.164062 13.859375 2.140625 13.8125 2.117188 L 5.910156 0 C 5.886719 0 5.839844 0 5.816406 0.0234375 L 0.0234375 5.8125 C 0 5.835938 0 5.859375 0 5.90625 L 2.109375 13.8125 C 2.109375 13.835938 2.132812 13.859375 2.179688 13.882812 L 10.082031 16 C 10.105469 16 10.152344 16 10.171875 15.976562 L 15.96875 10.1875 C 15.992188 10.140625 16.011719 10.117188 15.992188 10.09375 Z M 8.25 3.882812 L 6.164062 11.652344 C 6.164062 11.675781 6.140625 11.675781 6.117188 11.652344 L 0.464844 5.976562 C 0.441406 5.953125 0.464844 5.953125 0.464844 5.929688 L 8.226562 3.835938 C 8.226562 3.859375 8.25 3.859375 8.25 3.882812 Z M 8.25 3.882812 "/>
</g>
</svg>
