
<svg xmlns="http://www.w3.org/2000/svg" xmlns:xlink="http://www.w3.org/1999/xlink" width="16px" height="16px" viewBox="0 0 16 16" version="1.1">
<g id="surface1">
<path style=" stroke:none;fill-rule:nonzero;fill:#ff6666;fill-opacity:1;" d="M 14.695312 2.117188 L 13.859375 2.117188 L 13.859375 0.84375 C 13.859375 0.363281 13.484375 0 12.984375 0 L 1.304688 0 C 0.808594 0 0.417969 0.371094 0.417969 0.84375 L 0.417969 3.933594 C 0.417969 4.425781 0.816406 4.824219 1.304688 4.824219 L 12.984375 4.824219 C 13.46875 4.824219 13.859375 4.425781 13.859375 3.933594 L 13.859375 2.90625 L 14.695312 2.90625 C 14.742188 2.90625 14.773438 2.910156 14.789062 2.914062 C 14.792969 2.925781 14.792969 2.941406 14.792969 2.964844 L 14.792969 6.230469 C 14.792969 6.378906 14.734375 6.5 14.695312 6.5 L 7.898438 6.5 C 7.28125 6.5 6.820312 6.878906 6.820312 7.378906 L 6.820312 7.875 L 6.578125 7.875 C 6.453125 7.875 6.339844 7.957031 6.296875 8.074219 L 5.554688 10.222656 C 5.542969 10.253906 5.539062 10.285156 5.539062 10.320312 L 5.539062 15.703125 C 5.539062 15.867188 5.671875 16 5.832031 16 L 8.738281 16 C 8.902344 16 9.035156 15.867188 9.035156 15.703125 L 9.035156 10.320312 C 9.035156 10.285156 9.027344 10.253906 9.019531 10.226562 L 8.300781 8.078125 C 8.261719 7.957031 8.148438 7.875 8.023438 7.875 L 7.605469 7.875 L 7.605469 7.382812 C 7.617188 7.355469 7.730469 7.285156 7.898438 7.285156 L 14.695312 7.285156 C 15.210938 7.285156 15.582031 6.84375 15.582031 6.230469 L 15.582031 2.964844 C 15.582031 2.433594 15.25 2.117188 14.695312 2.117188 Z M 14.695312 2.117188 "/>
</g>
</svg>
