
<svg xmlns="http://www.w3.org/2000/svg" xmlns:xlink="http://www.w3.org/1999/xlink" width="16px" height="16px" viewBox="0 0 16 16" version="1.1">
<g id="surface1">
<path style=" stroke:none;fill-rule:evenodd;fill:#ff6666;fill-opacity:1;" d="M 9.15625 0.664062 L 3.445312 7.429688 C 4.933594 7.667969 7.445312 9.546875 7.066406 12.042969 C 7.839844 10.191406 6.421875 7.933594 5.058594 7.019531 L 10.042969 1.070312 C 9.773438 0.875 9.5625 0.777344 9.15625 0.664062 Z M 7.238281 1.136719 C 7.015625 1.136719 6.847656 1.171875 6.855469 1.171875 L 5.03125 3.261719 C 4.007812 3.316406 3.011719 3.386719 2.042969 3.484375 C 1.355469 3.554688 0.808594 4.101562 0.710938 4.832031 C 0.570312 6.109375 0.5 7.457031 0.5 8.84375 C 0.5 10.234375 0.570312 11.582031 0.710938 12.871094 C 0.808594 13.6875 1.355469 14.09375 2.042969 14.21875 C 3.953125 14.527344 6.714844 14.234375 6.714844 11.609375 C 6.714844 9.15625 2.6875 8.101562 1.3125 8.777344 L 7.671875 1.183594 C 7.523438 1.144531 7.371094 1.136719 7.238281 1.136719 Z M 11.429688 3.289062 C 11.429688 3.289062 7.851562 11.230469 7.503906 12.042969 C 6.96875 13.25 6.238281 14.136719 5.1875 14.445312 C 6.113281 14.484375 7.039062 14.5 7.992188 14.5 C 10.082031 14.5 12.078125 14.402344 13.941406 14.21875 C 14.628906 14.148438 15.191406 13.585938 15.277344 12.871094 C 15.429688 11.582031 15.5 10.234375 15.5 8.84375 C 15.5 7.457031 15.429688 6.109375 15.277344 4.832031 C 15.191406 4.101562 14.628906 3.554688 13.941406 3.484375 C 13.128906 3.402344 12.285156 3.332031 11.429688 3.289062 Z M 11.429688 3.289062 "/>
</g>
</svg>
