
<svg xmlns="http://www.w3.org/2000/svg" xmlns:xlink="http://www.w3.org/1999/xlink" width="16px" height="16px" viewBox="0 0 16 16" version="1.1">
<g id="surface1">
<path style=" stroke:none;fill-rule:nonzero;fill:#ff6666;fill-opacity:1;" d="M 5.84375 0 L 7.078125 1.84375 L 7.695312 2.773438 L 7.71875 16 L 8.921875 16 L 8.921875 2.769531 L 9.539062 1.84375 L 10.769531 0 Z M 5.230469 3.078125 L 5.230469 4 L 6.460938 4 L 6.460938 3.078125 Z M 10.632812 4.738281 C 10.40625 4.75 10.160156 4.949219 10.160156 5.171875 L 10.15625 11.6875 C 10.15625 11.984375 10.589844 12.242188 10.835938 12.066406 L 15.503906 8.796875 C 15.753906 8.621094 15.753906 8.214844 15.503906 8.042969 L 10.84375 4.796875 C 10.78125 4.75 10.707031 4.734375 10.632812 4.738281 Z M 4 4.921875 L 4 5.84375 L 6.460938 5.84375 L 6.460938 4.921875 Z M 1.539062 6.769531 L 1.539062 7.691406 L 6.460938 7.691406 L 6.460938 6.769531 Z M 0.308594 8.617188 L 0.308594 9.539062 L 6.460938 9.539062 L 6.460938 8.617188 Z M 1.539062 10.460938 L 1.539062 11.386719 L 6.460938 11.386719 L 6.460938 10.460938 Z M 4 12.308594 L 4 13.230469 L 6.460938 13.230469 L 6.460938 12.308594 Z M 4 12.308594 "/>
</g>
</svg>
