
<svg xmlns="http://www.w3.org/2000/svg" xmlns:xlink="http://www.w3.org/1999/xlink" width="16px" height="16px" viewBox="0 0 16 16" version="1.1">
<g id="surface1">
<path style=" stroke:none;fill-rule:nonzero;fill:#ff6666;fill-opacity:1;" d="M 3.71875 2.308594 C 2.828125 2.316406 1.703125 2.378906 0.5 2.582031 L 0.5 14 L 3.210938 14 L 3.210938 9.871094 C 3.210938 9.871094 8.554688 10.363281 8.65625 6.460938 C 8.65625 6.460938 9.359375 2.261719 3.71875 2.308594 Z M 3.996094 4.339844 C 5.640625 4.347656 6.070312 4.929688 6.113281 6.015625 C 6.113281 8.285156 3.210938 7.730469 3.210938 7.730469 L 3.210938 4.382812 C 3.5 4.359375 3.761719 4.339844 3.996094 4.339844 Z M 12.296875 5.335938 C 11.640625 5.367188 10.992188 5.519531 10.414062 5.84375 C 9.34375 6.476562 9.210938 8.015625 9.800781 9.023438 C 10.535156 10.109375 11.953125 10.265625 12.957031 11.011719 C 13.464844 11.351562 13.203125 12.207031 12.617188 12.261719 C 11.535156 12.441406 10.453125 12.050781 9.480469 11.605469 L 9.480469 13.152344 C 9.347656 13.609375 9.910156 13.621094 10.222656 13.746094 C 11.386719 14.027344 12.652344 14.070312 13.800781 13.703125 C 14.820312 13.402344 15.550781 12.390625 15.496094 11.332031 C 15.496094 11.046875 15.441406 10.773438 15.347656 10.503906 C 14.949219 9.394531 13.703125 9.03125 12.742188 8.554688 C 12.132812 8.398438 11.234375 7.636719 12.042969 7.117188 C 12.953125 6.832031 13.894531 7.253906 14.714844 7.625 L 15.304688 6.203125 C 15.503906 5.757812 14.542969 5.765625 14.246094 5.570312 C 13.625 5.394531 12.957031 5.304688 12.296875 5.335938 Z M 12.296875 5.335938 "/>
</g>
</svg>
