
<svg xmlns="http://www.w3.org/2000/svg" xmlns:xlink="http://www.w3.org/1999/xlink" width="16px" height="16px" viewBox="0 0 16 16" version="1.1">
<g id="surface1">
<path style=" stroke:none;fill-rule:nonzero;fill:#ff6666;fill-opacity:1;" d="M 7.921875 0.34375 C 7.09375 0.347656 6.167969 0.46875 5.554688 0.660156 C 5.453125 0.695312 5.339844 0.71875 5.304688 0.71875 C 5.140625 0.71875 3.984375 1.238281 3.554688 1.503906 C 3.433594 1.578125 3.316406 1.640625 3.292969 1.640625 C 3.269531 1.640625 3.253906 1.65625 3.253906 1.671875 C 3.253906 1.699219 3.15625 1.769531 2.902344 1.921875 C 2.679688 2.054688 2.007812 2.695312 1.65625 3.109375 C 1.472656 3.328125 0.992188 4 0.992188 4.039062 C 0.992188 4.050781 0.929688 4.171875 0.855469 4.304688 C 0.457031 5.007812 0.167969 5.964844 0.046875 6.976562 C -0.0976562 8.222656 0.0898438 9.542969 0.59375 10.746094 C 0.742188 11.105469 0.953125 11.515625 1.082031 11.695312 C 1.125 11.757812 1.160156 11.820312 1.160156 11.832031 C 1.160156 11.855469 1.300781 12.050781 1.570312 12.398438 C 1.695312 12.558594 1.960938 12.867188 2.125 13.03125 C 2.429688 13.34375 3.238281 13.992188 3.324219 13.992188 C 3.339844 13.992188 3.386719 14.023438 3.429688 14.0625 C 3.519531 14.144531 3.5625 14.171875 4.039062 14.40625 C 5.015625 14.890625 5.761719 15.117188 6.8125 15.253906 C 8.148438 15.425781 9.851562 15.238281 10.96875 14.800781 L 11.167969 14.722656 L 10.097656 13.664062 L 9.023438 12.609375 L 8.871094 12.640625 C 8.785156 12.660156 8.367188 12.675781 7.941406 12.675781 C 7.140625 12.675781 7.070312 12.664062 6.394531 12.441406 C 6.109375 12.347656 5.625 12.109375 5.335938 11.914062 C 4.640625 11.453125 4.074219 10.804688 3.691406 10.046875 C 3.546875 9.757812 3.488281 9.597656 3.316406 9.050781 C 3.140625 8.488281 3.140625 7.113281 3.316406 6.558594 C 3.351562 6.445312 3.410156 6.257812 3.445312 6.140625 C 3.523438 5.886719 3.886719 5.160156 3.933594 5.160156 C 3.949219 5.160156 3.964844 5.136719 3.964844 5.109375 C 3.964844 4.996094 4.628906 4.25 4.953125 3.996094 C 5.859375 3.289062 6.867188 2.9375 7.984375 2.9375 C 8.953125 2.9375 9.804688 3.195312 10.601562 3.726562 C 10.871094 3.902344 11.261719 4.238281 11.394531 4.398438 C 11.4375 4.453125 11.503906 4.527344 11.542969 4.566406 C 11.796875 4.808594 12.246094 5.589844 12.410156 6.078125 C 12.617188 6.6875 12.671875 7.046875 12.675781 7.789062 C 12.675781 8.304688 12.652344 8.597656 12.605469 8.808594 L 12.539062 9.101562 L 13.707031 10.269531 C 14.347656 10.914062 14.890625 11.441406 14.917969 11.441406 C 14.964844 11.441406 15.21875 10.957031 15.328125 10.664062 C 15.59375 9.941406 15.734375 9.402344 15.8125 8.824219 C 15.96875 7.683594 15.890625 6.734375 15.535156 5.511719 C 15.355469 4.890625 14.71875 3.675781 14.367188 3.273438 C 13.988281 2.847656 13.421875 2.285156 13.140625 2.066406 C 12.820312 1.816406 12.320312 1.472656 12.277344 1.472656 C 12.265625 1.472656 12.167969 1.417969 12.050781 1.351562 C 11.839844 1.226562 11.25 0.964844 10.832031 0.8125 C 10.042969 0.527344 8.898438 0.339844 7.921875 0.34375 Z M 9.144531 6.671875 C 8.382812 6.679688 7.621094 6.6875 6.855469 6.695312 L 6.835938 6.695312 L 6.835938 8.886719 L 8.449219 10.476562 L 9.828125 11.835938 L 9.960938 11.96875 C 11.164062 13.164062 12.398438 14.378906 13.585938 15.589844 L 15.992188 15.570312 L 16 13.378906 L 12.632812 10.125 L 12.644531 10.125 L 10.757812 8.261719 Z M 9.144531 6.671875 "/>
</g>
</svg>
