
<svg xmlns="http://www.w3.org/2000/svg" xmlns:xlink="http://www.w3.org/1999/xlink" width="16px" height="16px" viewBox="0 0 16 16" version="1.1">
<g id="surface1">
<path style=" stroke:none;fill-rule:nonzero;fill:#ff6666;fill-opacity:1;" d="M 6.25 16 L 5.910156 1.429688 C 4.898438 1.8125 4.117188 2.40625 3.5625 3.210938 C 3.007812 4.015625 2.730469 5 2.730469 6.164062 C 2.730469 6.691406 2.78125 7.058594 2.878906 7.265625 C 2.980469 7.46875 3.03125 7.585938 3.03125 7.617188 C 2.261719 7.617188 1.6875 7.457031 1.3125 7.136719 C 0.933594 6.816406 0.746094 6.285156 0.746094 5.546875 C 0.746094 4.636719 1.121094 3.75 1.867188 2.890625 C 2.613281 2.03125 3.570312 1.332031 4.734375 0.800781 C 5.902344 0.265625 7.070312 0 8.234375 0 C 8.433594 0 8.71875 0.015625 9.089844 0.0429688 L 9.28125 13.164062 L 13.761719 0.105469 L 15.253906 0.105469 L 9.324219 16 Z M 6.25 16 "/>
</g>
</svg>
