
<svg xmlns="http://www.w3.org/2000/svg" xmlns:xlink="http://www.w3.org/1999/xlink" width="16px" height="16px" viewBox="0 0 16 16" version="1.1">
<g id="surface1">
<path style=" stroke:none;fill-rule:nonzero;fill:#ff6666;fill-opacity:1;" d="M 3.5 0.5 L 3.5 15.5 L 6.097656 15.5 C 6.105469 13.546875 6.074219 11.589844 6.113281 9.636719 C 6.179688 8.71875 6.230469 7.546875 7.105469 7.046875 C 7.585938 6.769531 8.230469 6.703125 8.761719 6.875 C 9.539062 7.125 9.667969 8.128906 9.703125 8.847656 C 9.714844 11.066406 9.703125 13.28125 9.707031 15.5 L 12.292969 15.5 C 12.289062 13.007812 12.3125 10.492188 12.292969 8 C 12.265625 6.75 11.753906 5.378906 10.554688 4.804688 C 9.53125 4.316406 8.320312 4.464844 7.28125 4.855469 C 6.792969 5.042969 6.117188 5.949219 6.117188 5.949219 C 6.109375 4.132812 6.101562 2.316406 6.097656 0.5 Z M 3.5 0.5 "/>
</g>
</svg>
