
<svg xmlns="http://www.w3.org/2000/svg" xmlns:xlink="http://www.w3.org/1999/xlink" width="16px" height="16px" viewBox="0 0 16 16" version="1.1">
<g id="surface1">
<path style=" stroke:none;fill-rule:evenodd;fill:#ff6666;fill-opacity:1;" d="M 13.886719 14.859375 C 11.289062 16.925781 7.039062 16.132812 4.011719 12.882812 C 3.269531 12.082031 2.660156 11.199219 2.199219 10.285156 L 0.8125 10.285156 C 0.359375 10.285156 0 9.921875 0 9.476562 L 0 6.523438 C 0 6.078125 0.363281 5.714844 0.8125 5.714844 L 1.113281 5.714844 C 1.160156 4.160156 1.664062 2.726562 2.660156 1.660156 L 2.65625 1.664062 C 4.957031 -0.8125 9.082031 -0.46875 12.261719 2.316406 C 12.304688 2.292969 12.351562 2.285156 12.402344 2.285156 L 13.878906 2.285156 C 14.105469 2.285156 14.285156 2.464844 14.285156 2.6875 L 14.285156 4.167969 C 14.285156 4.28125 14.238281 4.382812 14.15625 4.453125 C 15.726562 6.742188 16.316406 9.414062 15.828125 11.628906 C 15.9375 11.730469 16 11.878906 16 12.039062 L 16 14.253906 C 16 14.589844 15.726562 14.859375 15.390625 14.859375 Z M 14.65625 11.433594 C 15.589844 9.472656 15.15625 6.753906 13.542969 4.570312 L 12.402344 4.570312 C 12.179688 4.570312 12 4.390625 12 4.167969 L 12 2.960938 C 9.613281 1.050781 6.671875 0.910156 4.933594 2.78125 L 4.933594 2.785156 C 4.203125 3.570312 3.804688 4.597656 3.714844 5.714844 L 3.761719 5.714844 C 4.210938 5.714844 4.570312 6.078125 4.570312 6.523438 L 4.570312 9.476562 C 4.570312 9.511719 4.570312 9.546875 4.5625 9.582031 C 4.898438 10.253906 5.34375 10.898438 5.890625 11.484375 C 7.886719 13.632812 10.570312 14.359375 12.570312 13.476562 L 12.570312 12.039062 C 12.570312 11.707031 12.84375 11.433594 13.179688 11.433594 Z M 14.65625 11.433594 "/>
</g>
</svg>
