
<svg xmlns="http://www.w3.org/2000/svg" xmlns:xlink="http://www.w3.org/1999/xlink" width="16px" height="16px" viewBox="0 0 16 16" version="1.1">
<g id="surface1">
<path style=" stroke:none;fill-rule:evenodd;fill:#ff6666;fill-opacity:1;" d="M 3.367188 14.40625 L 1.5 14.40625 L 2.015625 11.058594 L 0 11.058594 L 0.273438 9.246094 L 2.289062 9.246094 L 2.710938 6.445312 L 0.695312 6.445312 L 0.96875 4.632812 L 3.003906 4.632812 L 3.460938 1.59375 L 5.308594 1.59375 L 4.851562 4.632812 L 7.230469 4.632812 L 7.707031 1.59375 L 9.554688 1.59375 L 9.082031 4.632812 L 11.09375 4.632812 L 10.835938 6.445312 L 8.804688 6.445312 L 8.382812 9.246094 L 10.398438 9.246094 L 10.125 11.058594 L 8.109375 11.058594 L 7.597656 14.40625 L 5.75 14.40625 L 6.261719 11.058594 L 3.882812 11.058594 Z M 4.578125 6.445312 L 4.15625 9.246094 L 6.535156 9.246094 L 6.957031 6.445312 Z M 15.046875 10.875 L 13.949219 10.875 L 13.417969 5.472656 L 13.417969 1.371094 L 15.5625 1.371094 L 15.5625 5.472656 Z M 14.5 14.628906 C 14.070312 14.628906 13.71875 14.488281 13.4375 14.207031 C 13.15625 13.925781 13.015625 13.582031 13.015625 13.179688 C 13.015625 12.777344 13.15625 12.433594 13.4375 12.144531 C 13.71875 11.859375 14.070312 11.714844 14.5 11.714844 C 14.914062 11.714844 15.269531 11.859375 15.5625 12.144531 C 15.855469 12.433594 16 12.777344 16 13.179688 C 16 13.570312 15.855469 13.910156 15.5625 14.195312 C 15.269531 14.484375 14.914062 14.628906 14.5 14.628906 Z M 14.5 14.628906 "/>
</g>
</svg>
