
<svg xmlns="http://www.w3.org/2000/svg" xmlns:xlink="http://www.w3.org/1999/xlink" width="16px" height="16px" viewBox="0 0 16 16" version="1.1">
<g id="surface1">
<path style=" stroke:none;fill-rule:evenodd;fill:#ff6666;fill-opacity:1;" d="M 9.5 0 C 10.171875 2.640625 7.136719 3.4375 6.039062 5.085938 C 5.292969 6.207031 6.40625 7.410156 7.921875 8.777344 C 7.332031 7.441406 5.328125 6.273438 7.925781 4.21875 C 11.164062 1.664062 9.5 0 9.5 0 Z M 11.503906 3.269531 C 11.503906 3.269531 6.027344 4.636719 8.644531 7.648438 C 9.417969 8.539062 8.441406 9.339844 8.441406 9.339844 C 8.441406 9.339844 10.402344 8.328125 9.5 7.058594 C 8.660156 5.878906 8.015625 5.292969 11.503906 3.269531 Z M 12.476562 8.652344 C 12.28125 8.652344 12.078125 8.6875 11.867188 8.761719 C 11.699219 8.820312 11.613281 8.957031 11.613281 8.957031 C 11.613281 8.957031 11.71875 8.914062 11.957031 8.867188 C 12.925781 8.664062 14.3125 10.164062 11.3125 11.722656 C 11.296875 11.757812 11.25 11.800781 11.25 11.800781 C 14.820312 10.863281 14.042969 8.648438 12.476562 8.652344 Z M 6.042969 8.804688 C 5.808594 8.800781 4.792969 8.816406 3.578125 9.402344 C 1.933594 10.195312 7.636719 10.558594 10.59375 9.78125 C 10.898438 9.570312 11.324219 9.390625 11.324219 9.390625 C 11.324219 9.390625 10.113281 9.605469 8.910156 9.707031 C 7.4375 9.832031 5.859375 9.855469 5.066406 9.75 C 3.1875 9.496094 6.09375 8.808594 6.09375 8.808594 C 6.09375 8.808594 6.078125 8.804688 6.042969 8.804688 Z M 5.417969 10.621094 C 2.707031 11.519531 6.925781 12.542969 10.710938 11.433594 C 10.308594 11.292969 10.054688 11.03125 10.054688 11.03125 C 8.203125 11.390625 7.132812 11.378906 5.777344 11.238281 C 4.730469 11.128906 5.417969 10.621094 5.417969 10.621094 Z M 5.800781 12.375 C 3.339844 13.0625 7.296875 14.480469 10.429688 13.136719 C 9.917969 12.9375 9.546875 12.710938 9.546875 12.710938 C 8.152344 12.972656 7.503906 12.992188 6.234375 12.847656 C 5.1875 12.730469 5.800781 12.375 5.800781 12.375 Z M 4.089844 13.535156 C 2.988281 13.570312 0.828125 14.5625 2.800781 14.882812 C 9.1875 15.917969 14.441406 14.417969 12.785156 13.667969 C 12.785156 13.667969 13.238281 14.042969 12.289062 14.332031 C 10.480469 14.878906 4.761719 15.042969 3.175781 14.351562 C 2.605469 14.105469 3.675781 13.757812 4.011719 13.6875 C 4.363281 13.609375 4.5625 13.625 4.5625 13.625 C 4.464844 13.554688 4.296875 13.527344 4.089844 13.535156 Z M 13.800781 14.484375 C 13.800781 14.484375 13.597656 15 11.417969 15.410156 C 8.960938 15.875 5.925781 15.820312 4.128906 15.523438 C 4.128906 15.523438 4.496094 15.828125 6.390625 15.949219 C 9.269531 16.132812 13.695312 15.847656 13.800781 14.484375 Z M 13.800781 14.484375 "/>
</g>
</svg>
