
<svg xmlns="http://www.w3.org/2000/svg" xmlns:xlink="http://www.w3.org/1999/xlink" width="16px" height="16px" viewBox="0 0 16 16" version="1.1">
<g id="surface1">
<path style=" stroke:none;fill-rule:nonzero;fill:#ff6666;fill-opacity:1;" d="M 8 0 C 6.023438 0 4.230469 0.300781 2.890625 0.816406 C 2.21875 1.074219 1.660156 1.382812 1.242188 1.765625 C 0.863281 2.113281 0.601562 2.546875 0.554688 3.03125 L 0.535156 3.03125 L 0.535156 12.832031 C 0.535156 13.535156 1.011719 14.125 1.6875 14.574219 C 2.363281 15.027344 3.285156 15.378906 4.40625 15.625 C 6.644531 16.125 9.351562 16.125 11.59375 15.625 C 12.714844 15.378906 13.636719 15.027344 14.3125 14.574219 C 14.988281 14.125 15.460938 13.535156 15.460938 12.832031 L 15.460938 3.183594 C 15.460938 3.179688 15.464844 3.171875 15.464844 3.167969 C 15.464844 3.160156 15.460938 3.15625 15.460938 3.152344 L 15.460938 3.03125 L 15.445312 3.03125 C 15.398438 2.546875 15.136719 2.113281 14.757812 1.765625 C 14.339844 1.382812 13.78125 1.074219 13.109375 0.816406 C 11.769531 0.300781 9.976562 0 8 0 Z M 8 0.964844 C 9.878906 0.964844 11.574219 1.265625 12.761719 1.71875 C 13.355469 1.949219 13.816406 2.21875 14.105469 2.480469 C 14.394531 2.742188 14.496094 2.964844 14.496094 3.167969 C 14.496094 3.367188 14.394531 3.59375 14.105469 3.855469 C 13.816406 4.117188 13.355469 4.386719 12.761719 4.613281 C 11.574219 5.070312 9.878906 5.371094 8 5.371094 C 6.121094 5.371094 4.425781 5.070312 3.238281 4.613281 C 2.644531 4.386719 2.183594 4.117188 1.894531 3.855469 C 1.605469 3.59375 1.503906 3.367188 1.503906 3.167969 C 1.503906 2.964844 1.605469 2.742188 1.894531 2.480469 C 2.183594 2.21875 2.644531 1.949219 3.238281 1.71875 C 4.425781 1.265625 6.121094 0.964844 8 0.964844 Z M 1.5 4.753906 C 1.886719 5.046875 2.339844 5.304688 2.890625 5.515625 C 4.230469 6.03125 6.023438 6.335938 8 6.335938 C 9.976562 6.335938 11.769531 6.03125 13.109375 5.515625 C 13.660156 5.304688 14.113281 5.046875 14.496094 4.753906 L 14.496094 6.390625 C 14.496094 6.644531 14.304688 6.976562 13.777344 7.328125 C 13.246094 7.679688 12.421875 8.011719 11.382812 8.242188 C 9.304688 8.703125 6.691406 8.703125 4.613281 8.242188 C 3.574219 8.011719 2.753906 7.679688 2.222656 7.328125 C 1.695312 6.976562 1.5 6.644531 1.5 6.390625 Z M 1.5 7.988281 C 1.566406 8.035156 1.621094 8.085938 1.6875 8.132812 C 2.363281 8.582031 3.285156 8.9375 4.40625 9.183594 C 6.644531 9.683594 9.351562 9.683594 11.59375 9.183594 C 12.714844 8.9375 13.636719 8.582031 14.3125 8.132812 C 14.378906 8.085938 14.433594 8.035156 14.496094 7.988281 L 14.496094 9.609375 C 14.496094 9.863281 14.304688 10.195312 13.777344 10.546875 C 13.246094 10.902344 12.421875 11.230469 11.382812 11.464844 C 9.304688 11.925781 6.691406 11.925781 4.613281 11.464844 C 3.574219 11.230469 2.753906 10.902344 2.222656 10.546875 C 1.695312 10.195312 1.5 9.863281 1.5 9.609375 Z M 1.5 11.210938 C 1.566406 11.257812 1.621094 11.308594 1.6875 11.355469 C 2.363281 11.804688 3.285156 12.15625 4.40625 12.40625 C 6.644531 12.90625 9.351562 12.90625 11.59375 12.40625 C 12.714844 12.15625 13.636719 11.804688 14.3125 11.355469 C 14.378906 11.308594 14.433594 11.257812 14.496094 11.210938 L 14.496094 12.832031 C 14.496094 13.085938 14.304688 13.417969 13.777344 13.769531 C 13.246094 14.121094 12.421875 14.453125 11.382812 14.683594 C 9.304688 15.144531 6.691406 15.144531 4.613281 14.683594 C 3.574219 14.453125 2.753906 14.121094 2.222656 13.769531 C 1.695312 13.417969 1.5 13.085938 1.5 12.832031 Z M 1.5 11.210938 "/>
</g>
</svg>
