
<svg xmlns="http://www.w3.org/2000/svg" xmlns:xlink="http://www.w3.org/1999/xlink" width="16px" height="16px" viewBox="0 0 16 16" version="1.1">
<g id="surface1">
<path style=" stroke:none;fill-rule:nonzero;fill:#ff6666;fill-opacity:1;" d="M 11.714844 0.570312 C 9.347656 0.570312 7.429688 2.351562 7.429688 4.550781 C 7.429688 5.238281 7.617188 5.886719 7.945312 6.449219 C 7.949219 6.449219 7.945312 6.457031 7.945312 6.457031 L 0 13.835938 L 0 15.429688 L 1.714844 15.429688 L 2.285156 14.898438 L 2.285156 13.835938 L 3.429688 13.835938 L 4 13.304688 L 5.144531 13.304688 L 5.714844 12.773438 L 5.714844 11.714844 L 6.285156 11.183594 L 7.429688 11.183594 L 7.429688 10.121094 L 9.660156 8.050781 C 9.664062 8.050781 9.667969 8.046875 9.667969 8.050781 C 10.277344 8.355469 10.976562 8.53125 11.714844 8.53125 C 14.082031 8.53125 16 6.75 16 4.550781 L 16 4.535156 C 15.992188 2.339844 14.074219 0.570312 11.714844 0.570312 Z M 12.570312 2.695312 C 13.199219 2.695312 13.710938 3.171875 13.714844 3.753906 C 13.714844 4.339844 13.203125 4.816406 12.570312 4.816406 C 11.941406 4.816406 11.429688 4.339844 11.429688 3.753906 C 11.429688 3.167969 11.941406 2.695312 12.570312 2.695312 Z M 12.570312 2.695312 "/>
</g>
</svg>
