
<svg xmlns="http://www.w3.org/2000/svg" xmlns:xlink="http://www.w3.org/1999/xlink" width="16px" height="16px" viewBox="0 0 16 16" version="1.1">
<g id="surface1">
<path style=" stroke:none;fill-rule:nonzero;fill:#ff6666;fill-opacity:1;" d="M 8 0 C 7.730469 0 7.460938 0.015625 7.195312 0.0429688 C 6.941406 0.0664062 6.691406 0.105469 6.445312 0.15625 C 6.433594 0.15625 6.421875 0.15625 6.410156 0.160156 C 6.179688 0.207031 5.953125 0.269531 5.726562 0.335938 C 5.695312 0.34375 5.664062 0.351562 5.632812 0.359375 C 5.378906 0.4375 5.132812 0.527344 4.890625 0.628906 C 4.652344 0.730469 4.417969 0.84375 4.191406 0.96875 C 3.738281 1.214844 3.3125 1.5 2.914062 1.828125 C 2.71875 1.992188 2.527344 2.164062 2.347656 2.347656 C 2.175781 2.519531 2.007812 2.699219 1.851562 2.890625 C 1.84375 2.898438 1.835938 2.910156 1.824219 2.921875 C 1.699219 3.078125 1.578125 3.238281 1.464844 3.40625 C 1.421875 3.460938 1.382812 3.519531 1.34375 3.578125 C 1.253906 3.710938 1.171875 3.84375 1.09375 3.984375 C 1.039062 4.078125 0.980469 4.171875 0.929688 4.269531 C 0.867188 4.394531 0.804688 4.519531 0.746094 4.644531 C 0.691406 4.761719 0.640625 4.875 0.59375 4.992188 C 0.542969 5.113281 0.5 5.238281 0.457031 5.359375 C 0.414062 5.488281 0.367188 5.617188 0.328125 5.75 C 0.296875 5.867188 0.265625 5.984375 0.238281 6.101562 C 0.203125 6.238281 0.167969 6.378906 0.140625 6.519531 C 0.117188 6.65625 0.0976562 6.789062 0.0820312 6.925781 C 0.0625 7.050781 0.046875 7.175781 0.0351562 7.304688 C 0.015625 7.535156 0 7.765625 0 8 C 0 8.269531 0.015625 8.539062 0.0429688 8.804688 C 0.179688 10.171875 0.664062 11.4375 1.40625 12.515625 C 1.410156 12.527344 1.417969 12.535156 1.425781 12.546875 C 1.480469 12.628906 1.542969 12.707031 1.601562 12.789062 C 1.601562 12.785156 1.601562 12.785156 1.601562 12.78125 C 3.0625 14.730469 5.382812 16 8 16 C 9.503906 16 10.90625 15.574219 12.109375 14.851562 C 12.125 14.84375 12.140625 14.832031 12.15625 14.820312 C 12.347656 14.703125 12.535156 14.582031 12.714844 14.449219 C 12.753906 14.417969 12.796875 14.386719 12.835938 14.355469 C 12.996094 14.234375 13.148438 14.109375 13.296875 13.976562 C 13.355469 13.925781 13.417969 13.871094 13.476562 13.8125 C 13.597656 13.699219 13.71875 13.578125 13.835938 13.453125 C 13.902344 13.378906 13.972656 13.304688 14.039062 13.230469 C 14.148438 13.105469 14.25 12.972656 14.351562 12.84375 C 14.40625 12.769531 14.460938 12.699219 14.515625 12.625 C 14.621094 12.476562 14.71875 12.320312 14.816406 12.164062 C 14.855469 12.101562 14.894531 12.039062 14.933594 11.972656 C 15.027344 11.808594 15.113281 11.636719 15.199219 11.464844 C 15.230469 11.398438 15.261719 11.332031 15.292969 11.265625 C 15.367188 11.101562 15.433594 10.929688 15.5 10.757812 C 15.53125 10.679688 15.558594 10.597656 15.585938 10.515625 C 15.644531 10.347656 15.691406 10.179688 15.734375 10.007812 C 15.757812 9.925781 15.78125 9.835938 15.800781 9.75 C 15.835938 9.589844 15.863281 9.425781 15.890625 9.261719 C 15.910156 9.15625 15.925781 9.046875 15.9375 8.9375 C 15.957031 8.796875 15.964844 8.652344 15.972656 8.511719 C 15.988281 8.339844 15.996094 8.171875 16 8 C 16 7.730469 15.984375 7.464844 15.960938 7.203125 L 15.957031 7.195312 C 15.933594 6.941406 15.894531 6.691406 15.84375 6.445312 C 15.84375 6.433594 15.84375 6.421875 15.839844 6.410156 C 15.792969 6.179688 15.730469 5.953125 15.664062 5.726562 C 15.65625 5.699219 15.652344 5.667969 15.640625 5.636719 L 15.640625 5.625 C 15.5625 5.375 15.472656 5.128906 15.371094 4.890625 C 15.269531 4.652344 15.15625 4.417969 15.03125 4.191406 C 14.785156 3.738281 14.496094 3.3125 14.171875 2.914062 C 14.007812 2.71875 13.835938 2.527344 13.652344 2.347656 C 13.480469 2.175781 13.300781 2.007812 13.109375 1.851562 C 13.101562 1.84375 13.09375 1.835938 13.085938 1.828125 C 13.082031 1.828125 13.078125 1.828125 13.078125 1.824219 C 12.921875 1.699219 12.761719 1.578125 12.59375 1.464844 C 12.539062 1.421875 12.480469 1.382812 12.421875 1.34375 C 12.289062 1.253906 12.15625 1.171875 12.015625 1.09375 C 11.921875 1.039062 11.828125 0.980469 11.730469 0.929688 C 11.605469 0.867188 11.480469 0.804688 11.355469 0.746094 C 11.238281 0.691406 11.125 0.640625 11.007812 0.59375 C 10.886719 0.542969 10.761719 0.5 10.640625 0.457031 C 10.511719 0.414062 10.382812 0.367188 10.25 0.328125 C 10.132812 0.296875 10.015625 0.265625 9.898438 0.238281 C 9.761719 0.203125 9.621094 0.167969 9.480469 0.140625 C 9.34375 0.117188 9.210938 0.0976562 9.074219 0.0820312 C 8.949219 0.0625 8.824219 0.046875 8.695312 0.0351562 C 8.464844 0.015625 8.234375 0 8 0 Z M 6.785156 1.15625 L 7.863281 3.691406 L 9.714844 2.121094 L 9.714844 6.507812 L 14 10 L 12.683594 10.875 L 9.023438 10.839844 L 11.070312 13.617188 C 10.160156 14.117188 9.113281 14.398438 8 14.398438 C 5.332031 14.398438 3.058594 12.78125 2.09375 10.472656 C 2.597656 8.523438 3.351562 6.640625 4.429688 5.589844 C 4.890625 3.894531 5.789062 2.492188 6.785156 1.15625 Z M 8.058594 7.199219 L 8.058594 7.882812 L 9.601562 8 C 9.402344 7.519531 8.96875 7.300781 8.058594 7.199219 Z M 8.058594 7.199219 "/>
</g>
</svg>
