
<svg xmlns="http://www.w3.org/2000/svg" xmlns:xlink="http://www.w3.org/1999/xlink" width="16px" height="16px" viewBox="0 0 16 16" version="1.1">
<g id="surface1">
<path style=" stroke:none;fill-rule:nonzero;fill:#ff6666;fill-opacity:1;" d="M 7.726562 0 C 5.890625 0 4.414062 0.738281 4.414062 1.65625 L 4.414062 3.859375 L 7.726562 3.859375 L 7.726562 4.414062 L 1.65625 4.414062 C 0.738281 4.414062 0 5.890625 0 7.726562 L 0 8.273438 C 0 10.109375 0.738281 11.585938 1.65625 11.585938 L 3.859375 11.585938 L 3.859375 9.929688 C 3.859375 9.929688 3.863281 7.726562 6.070312 7.726562 L 10.484375 7.726562 C 10.484375 7.726562 11.585938 7.722656 11.585938 6.621094 L 11.585938 1.65625 C 11.585938 0.738281 10.109375 0 8.273438 0 Z M 6.070312 1.101562 C 6.375 1.101562 6.621094 1.347656 6.621094 1.65625 C 6.621094 1.960938 6.375 2.207031 6.070312 2.207031 C 5.761719 2.207031 5.515625 1.960938 5.515625 1.65625 C 5.515625 1.347656 5.761719 1.101562 6.070312 1.101562 Z M 12.140625 4.414062 L 12.140625 6.621094 C 12.140625 8.277344 10.484375 8.273438 10.484375 8.273438 L 6.070312 8.273438 C 4.414062 8.273438 4.414062 9.929688 4.414062 9.929688 L 4.414062 14.34375 C 4.414062 15.261719 5.890625 16 7.726562 16 L 8.273438 16 C 10.109375 16 11.585938 15.261719 11.585938 14.34375 L 11.585938 12.140625 L 8.273438 12.140625 L 8.273438 11.585938 L 14.34375 11.585938 C 15.261719 11.585938 16 10.109375 16 8.273438 L 16 7.726562 C 16 5.890625 15.261719 4.414062 14.34375 4.414062 Z M 9.929688 13.242188 C 10.238281 13.242188 10.484375 13.488281 10.484375 13.792969 C 10.484375 14.097656 10.238281 14.34375 9.929688 14.34375 C 9.625 14.34375 9.378906 14.097656 9.378906 13.792969 C 9.378906 13.488281 9.625 13.242188 9.929688 13.242188 Z M 9.929688 13.242188 "/>
</g>
</svg>
