
<svg xmlns="http://www.w3.org/2000/svg" xmlns:xlink="http://www.w3.org/1999/xlink" width="16px" height="16px" viewBox="0 0 16 16" version="1.1">
<g id="surface1">
<path style=" stroke:none;fill-rule:nonzero;fill:#ff6666;fill-opacity:1;" d="M 2.8125 8.277344 L 2.8125 7.503906 L 5.1875 7.503906 L 5.1875 8.277344 Z M 2.8125 8.277344 "/>
<path style=" stroke:none;fill-rule:nonzero;fill:#ff6666;fill-opacity:1;" d="M 11.53125 8.988281 L 11.53125 8.261719 L 10.808594 8.261719 L 10.808594 7.511719 L 11.53125 7.511719 L 11.53125 6.792969 L 12.28125 6.792969 L 12.28125 7.511719 L 13.003906 7.511719 L 13.003906 8.261719 L 12.28125 8.261719 L 12.28125 8.988281 Z M 11.53125 8.988281 "/>
<path style=" stroke:none;fill-rule:evenodd;fill:#ff6666;fill-opacity:1;" d="M 1.332031 7.996094 C 1.332031 8.320312 1.398438 8.640625 1.527344 8.9375 C 1.65625 9.230469 1.84375 9.492188 2.074219 9.714844 C 2.308594 9.941406 2.585938 10.121094 2.886719 10.242188 C 3.214844 10.375 3.5625 10.441406 3.914062 10.4375 C 3.976562 10.441406 4.042969 10.445312 4.105469 10.445312 C 4.292969 10.445312 4.476562 10.425781 4.660156 10.390625 C 4.820312 10.359375 4.976562 10.308594 5.125 10.242188 C 5.269531 10.179688 5.410156 10.101562 5.539062 10.011719 C 5.675781 9.917969 5.804688 9.8125 5.925781 9.695312 C 6.054688 9.570312 6.175781 9.4375 6.292969 9.300781 C 6.414062 9.148438 6.53125 8.992188 6.644531 8.832031 C 6.761719 8.664062 6.878906 8.488281 6.988281 8.3125 C 7.066406 8.191406 7.140625 8.070312 7.21875 7.949219 C 7.199219 7.917969 7.183594 7.894531 7.164062 7.863281 C 7.046875 7.679688 6.925781 7.496094 6.796875 7.3125 C 6.679688 7.144531 6.550781 6.976562 6.417969 6.816406 C 6.289062 6.664062 6.15625 6.523438 6.011719 6.386719 C 5.875 6.261719 5.730469 6.144531 5.578125 6.042969 C 5.425781 5.941406 5.265625 5.855469 5.097656 5.785156 C 4.921875 5.710938 4.738281 5.652344 4.550781 5.617188 C 4.335938 5.574219 4.113281 5.554688 3.894531 5.558594 C 3.550781 5.554688 3.207031 5.621094 2.886719 5.753906 C 2.585938 5.875 2.308594 6.054688 2.074219 6.28125 C 1.84375 6.5 1.65625 6.765625 1.527344 7.054688 C 1.398438 7.351562 1.332031 7.671875 1.332031 7.996094 Z M 8 6.710938 C 8.039062 6.65625 8.074219 6.601562 8.113281 6.546875 C 8.253906 6.347656 8.402344 6.152344 8.5625 5.960938 C 8.722656 5.769531 8.894531 5.585938 9.078125 5.414062 C 9.265625 5.238281 9.46875 5.078125 9.683594 4.9375 C 9.90625 4.785156 10.140625 4.660156 10.386719 4.554688 C 10.648438 4.445312 10.921875 4.363281 11.199219 4.308594 C 11.496094 4.253906 11.800781 4.222656 12.105469 4.226562 C 12.621094 4.222656 13.132812 4.324219 13.613281 4.519531 C 14.070312 4.703125 14.492188 4.976562 14.847656 5.320312 C 15.207031 5.660156 15.492188 6.070312 15.6875 6.519531 C 15.894531 6.984375 16 7.488281 16 7.996094 C 16 8.507812 15.894531 9.007812 15.6875 9.472656 C 15.492188 9.925781 15.207031 10.332031 14.847656 10.675781 C 14.492188 11.019531 14.070312 11.289062 13.613281 11.476562 C 13.140625 11.667969 12.632812 11.765625 12.121094 11.769531 C 12.046875 11.773438 11.972656 11.773438 11.894531 11.773438 C 11.621094 11.777344 11.347656 11.75 11.078125 11.695312 C 10.824219 11.644531 10.578125 11.566406 10.34375 11.464844 C 10.117188 11.363281 9.902344 11.246094 9.703125 11.105469 C 9.507812 10.972656 9.324219 10.820312 9.152344 10.65625 C 8.984375 10.496094 8.828125 10.324219 8.679688 10.144531 C 8.535156 9.96875 8.394531 9.785156 8.261719 9.59375 C 8.171875 9.464844 8.085938 9.335938 8 9.203125 M 14.667969 7.996094 C 14.667969 8.320312 14.601562 8.640625 14.472656 8.9375 C 14.34375 9.230469 14.15625 9.492188 13.925781 9.714844 C 13.691406 9.941406 13.414062 10.121094 13.113281 10.242188 C 12.785156 10.375 12.4375 10.441406 12.089844 10.4375 C 12.023438 10.441406 11.957031 10.445312 11.894531 10.445312 C 11.707031 10.445312 11.523438 10.425781 11.339844 10.390625 C 11.179688 10.359375 11.023438 10.308594 10.875 10.242188 C 10.730469 10.179688 10.589844 10.101562 10.460938 10.011719 C 10.324219 9.917969 10.195312 9.8125 10.074219 9.695312 C 9.945312 9.570312 9.824219 9.4375 9.710938 9.300781 C 9.585938 9.148438 9.46875 8.992188 9.355469 8.832031 C 9.238281 8.664062 9.121094 8.488281 9.011719 8.3125 C 8.933594 8.191406 8.859375 8.070312 8.78125 7.949219 C 8.800781 7.917969 8.816406 7.894531 8.835938 7.863281 C 8.953125 7.679688 9.074219 7.496094 9.203125 7.3125 C 9.320312 7.144531 9.449219 6.976562 9.582031 6.816406 C 9.710938 6.664062 9.84375 6.523438 9.988281 6.386719 C 10.125 6.261719 10.269531 6.144531 10.421875 6.042969 C 10.574219 5.941406 10.734375 5.855469 10.902344 5.785156 C 11.078125 5.710938 11.261719 5.652344 11.449219 5.617188 C 11.667969 5.574219 11.886719 5.554688 12.105469 5.558594 C 12.449219 5.554688 12.792969 5.621094 13.113281 5.753906 C 13.414062 5.875 13.691406 6.054688 13.925781 6.28125 C 14.15625 6.5 14.34375 6.765625 14.472656 7.054688 C 14.601562 7.351562 14.667969 7.671875 14.667969 7.996094 M 8 6.710938 C 7.964844 6.65625 7.925781 6.601562 7.886719 6.546875 C 7.746094 6.347656 7.597656 6.152344 7.4375 5.960938 C 7.277344 5.769531 7.105469 5.585938 6.921875 5.414062 C 6.734375 5.238281 6.53125 5.078125 6.316406 4.9375 C 6.09375 4.785156 5.859375 4.660156 5.613281 4.554688 C 5.351562 4.445312 5.078125 4.363281 4.800781 4.308594 C 4.503906 4.253906 4.199219 4.222656 3.894531 4.226562 C 3.378906 4.222656 2.867188 4.324219 2.386719 4.519531 C 1.929688 4.703125 1.507812 4.976562 1.152344 5.320312 C 0.792969 5.660156 0.507812 6.070312 0.3125 6.519531 C 0.105469 6.984375 0 7.488281 0 7.996094 C 0 8.507812 0.105469 9.007812 0.3125 9.472656 C 0.507812 9.925781 0.792969 10.332031 1.152344 10.675781 C 1.507812 11.019531 1.929688 11.289062 2.386719 11.476562 C 2.863281 11.667969 3.367188 11.765625 3.878906 11.769531 C 3.953125 11.773438 4.027344 11.773438 4.105469 11.773438 C 4.378906 11.777344 4.652344 11.75 4.921875 11.695312 C 5.175781 11.644531 5.421875 11.566406 5.65625 11.464844 C 5.882812 11.363281 6.097656 11.246094 6.296875 11.105469 C 6.492188 10.972656 6.675781 10.820312 6.847656 10.65625 C 7.015625 10.496094 7.171875 10.324219 7.320312 10.144531 C 7.464844 9.96875 7.605469 9.785156 7.738281 9.59375 C 7.828125 9.464844 7.914062 9.335938 8 9.203125 "/>
</g>
</svg>
