
<svg xmlns="http://www.w3.org/2000/svg" xmlns:xlink="http://www.w3.org/1999/xlink" width="16px" height="16px" viewBox="0 0 16 16" version="1.1">
<g id="surface1">
<path style=" stroke:none;fill-rule:evenodd;fill:rgb(57.647061%,58.431375%,59.215689%);fill-opacity:1;" d="M 8.871094 11.742188 L 6.929688 11.742188 L 6.929688 11.253906 C 6.929688 10.476562 7.066406 9.792969 7.339844 9.203125 C 7.609375 8.613281 7.941406 8.140625 8.332031 7.78125 C 8.722656 7.417969 9.109375 7.078125 9.5 6.753906 C 9.890625 6.429688 10.222656 6.054688 10.492188 5.628906 C 10.765625 5.199219 10.902344 4.722656 10.902344 4.191406 C 10.902344 3.5 10.660156 2.929688 10.171875 2.472656 C 9.6875 2.015625 9.019531 1.789062 8.164062 1.789062 C 7.179688 1.789062 6.410156 2.058594 5.859375 2.605469 C 5.308594 3.148438 5.03125 3.875 5.03125 4.789062 L 3.15625 4.789062 C 3.15625 3.363281 3.617188 2.207031 4.535156 1.324219 C 5.453125 0.441406 6.664062 0 8.164062 0 C 9.636719 0 10.785156 0.398438 11.609375 1.191406 C 12.433594 1.984375 12.84375 2.992188 12.84375 4.214844 C 12.84375 4.90625 12.707031 5.515625 12.4375 6.046875 C 12.164062 6.578125 11.832031 7.015625 11.441406 7.359375 C 11.054688 7.707031 10.664062 8.042969 10.273438 8.375 C 9.882812 8.707031 9.550781 9.113281 9.28125 9.601562 C 9.007812 10.085938 8.871094 10.644531 8.871094 11.277344 Z M 8.949219 15.546875 C 8.648438 15.847656 8.285156 16 7.855469 16 C 7.429688 16 7.070312 15.847656 6.773438 15.546875 C 6.480469 15.246094 6.332031 14.898438 6.332031 14.5 C 6.332031 14.085938 6.480469 13.730469 6.773438 13.429688 C 7.070312 13.128906 7.429688 12.976562 7.855469 12.976562 C 8.285156 12.976562 8.648438 13.132812 8.949219 13.441406 C 9.25 13.75 9.402344 14.101562 9.402344 14.5 C 9.402344 14.898438 9.25 15.246094 8.949219 15.546875 Z M 8.949219 15.546875 "/>
</g>
</svg>
