
<svg xmlns="http://www.w3.org/2000/svg" xmlns:xlink="http://www.w3.org/1999/xlink" width="16px" height="16px" viewBox="0 0 16 16" version="1.1">
<g id="surface1">
<path style=" stroke:none;fill-rule:nonzero;fill:#ff6666;fill-opacity:1;" d="M 4.039062 0 L 4.039062 1.371094 L 4.5 1.371094 L 4.5 2.285156 L 3.585938 2.285156 L 3.585938 3.664062 L 4.5 3.664062 L 4.5 7.769531 L 1.296875 7.769531 L 1.296875 8.226562 L 4.5 8.226562 L 4.5 11.878906 L 3.585938 11.878906 L 3.585938 13.257812 L 4.5 13.257812 L 4.5 14.171875 L 3.8125 14.171875 L 4.726562 16 L 5.640625 14.171875 L 4.957031 14.171875 L 4.957031 13.257812 L 9.070312 13.257812 C 12.113281 13.257812 14.558594 10.8125 14.558594 7.773438 C 14.558594 4.730469 12.113281 2.285156 9.070312 2.285156 L 4.957031 2.285156 L 4.957031 1.371094 L 5.410156 1.371094 L 5.410156 0 Z M 4.957031 3.664062 L 9.070312 3.664062 C 11.371094 3.664062 13.175781 5.472656 13.175781 7.773438 C 13.175781 10.070312 11.371094 11.878906 9.070312 11.878906 L 4.957031 11.878906 L 4.957031 8.226562 L 6.328125 8.226562 L 5.414062 10.058594 L 9.984375 10.058594 L 9.070312 8.226562 L 10.441406 8.226562 L 10.441406 8.914062 L 12.269531 8 L 10.441406 7.085938 L 10.441406 7.769531 L 8.84375 7.769531 L 7.699219 5.484375 L 6.558594 7.769531 L 4.957031 7.769531 Z M 4.957031 3.664062 "/>
</g>
</svg>
