
<svg xmlns="http://www.w3.org/2000/svg" xmlns:xlink="http://www.w3.org/1999/xlink" width="16px" height="16px" viewBox="0 0 16 16" version="1.1">
<g id="surface1">
<path style=" stroke:none;fill-rule:nonzero;fill:#ff6666;fill-opacity:1;" d="M 5.183594 9.308594 C 5.671875 8.351562 6.222656 7.277344 6.667969 6.199219 L 6.84375 5.773438 C 6.265625 3.570312 5.917969 1.800781 6.226562 0.660156 C 6.308594 0.359375 6.65625 0.179688 7.023438 0.179688 L 7.25 0.183594 L 7.289062 0.183594 C 7.796875 0.175781 8.035156 0.816406 8.0625 1.066406 C 8.105469 1.484375 7.914062 2.1875 7.914062 2.1875 C 7.914062 1.902344 7.925781 1.445312 7.746094 1.046875 C 7.535156 0.589844 7.335938 0.316406 7.15625 0.269531 C 7.066406 0.332031 6.980469 0.457031 6.949219 0.695312 C 6.886719 1.035156 6.867188 1.460938 6.867188 1.679688 C 6.867188 2.453125 7.019531 3.476562 7.320312 4.53125 C 7.375 4.367188 7.425781 4.210938 7.464844 4.0625 C 7.527344 3.832031 7.917969 2.296875 7.917969 2.296875 C 7.917969 2.296875 7.820312 4.339844 7.683594 4.957031 C 7.652344 5.089844 7.621094 5.21875 7.585938 5.351562 C 8.082031 6.730469 8.878906 7.964844 9.828125 8.851562 C 10.203125 9.203125 10.675781 9.484375 11.125 9.742188 C 12.101562 9.601562 13 9.535156 13.753906 9.542969 C 14.75 9.558594 15.480469 9.703125 15.777344 9.996094 C 15.921875 10.136719 15.980469 10.308594 16 10.5 C 16.003906 10.578125 15.96875 10.75 15.957031 10.796875 C 15.96875 10.742188 15.96875 10.480469 15.167969 10.226562 C 14.539062 10.023438 13.359375 10.03125 11.941406 10.179688 C 13.578125 10.980469 15.175781 11.378906 15.679688 11.140625 C 15.804688 11.082031 15.953125 10.875 15.953125 10.875 C 15.953125 10.875 15.863281 11.28125 15.800781 11.382812 C 15.71875 11.492188 15.558594 11.609375 15.40625 11.648438 C 14.609375 11.863281 12.53125 11.371094 10.71875 10.335938 C 8.695312 10.632812 6.472656 11.183594 4.691406 11.769531 C 2.941406 14.835938 1.625 16.246094 0.554688 15.707031 L 0.164062 15.511719 C 0.00390625 15.417969 -0.0234375 15.195312 0.015625 15.015625 C 0.140625 14.40625 0.90625 13.484375 2.445312 12.566406 C 2.609375 12.464844 3.347656 12.074219 3.347656 12.074219 C 3.347656 12.074219 2.800781 12.605469 2.671875 12.707031 C 1.445312 13.714844 0.539062 14.980469 0.5625 15.46875 L 0.566406 15.511719 C 1.609375 15.363281 3.171875 13.242188 5.183594 9.308594 M 5.820312 9.632812 C 5.484375 10.265625 5.15625 10.851562 4.855469 11.390625 C 6.53125 10.6875 8.335938 10.238281 10.050781 9.921875 C 9.820312 9.761719 9.597656 9.59375 9.386719 9.414062 C 8.441406 8.613281 7.71875 7.613281 7.195312 6.5625 C 6.863281 7.457031 6.472656 8.40625 5.820312 9.632812 "/>
</g>
</svg>
