
<svg xmlns="http://www.w3.org/2000/svg" xmlns:xlink="http://www.w3.org/1999/xlink" width="16px" height="16px" viewBox="0 0 16 16" version="1.1">
<g id="surface1">
<path style=" stroke:none;fill-rule:nonzero;fill:#ff6666;fill-opacity:1;" d="M 12.5 1 C 11.3125 1 10.289062 1.835938 10.050781 3 L 2 3 L 2 4 C 3.855469 4.957031 5.164062 6.480469 5.355469 7.300781 C 5.566406 8.195312 5.332031 9.214844 4.710938 10.3125 C 4.339844 10.105469 3.921875 10 3.5 10 C 2.121094 10 1 11.121094 1 12.5 C 1 13.878906 2.121094 15 3.5 15 C 4.6875 15 5.710938 14.164062 5.949219 13 L 9 13 L 9 15 L 14 15 L 14 10 L 9 10 L 9 12 L 5.945312 12 C 5.871094 11.640625 5.722656 11.300781 5.503906 11.007812 C 6.355469 9.660156 6.710938 8.382812 6.425781 7.140625 C 6.132812 5.863281 5.242188 4.863281 3.96875 4 L 10.054688 4 C 10.292969 5.164062 11.3125 5.996094 12.5 6 C 13.878906 6 15 4.878906 15 3.5 C 15 2.121094 13.878906 1 12.5 1 Z M 12.5 1 "/>
</g>
</svg>
