
<svg xmlns="http://www.w3.org/2000/svg" xmlns:xlink="http://www.w3.org/1999/xlink" width="16px" height="16px" viewBox="0 0 16 16" version="1.1">
<g id="surface1">
<path style=" stroke:none;fill-rule:nonzero;fill:#ff6666;fill-opacity:1;" d="M 2.628906 0 C 2.628906 0 1.996094 -0.0078125 1.34375 0.320312 C 0.691406 0.644531 0 1.402344 0 2.628906 L 0 8.109375 L 7.890625 16 L 16 7.890625 L 8.109375 0 Z M 2.628906 1.050781 L 7.671875 1.050781 L 14.511719 7.890625 L 7.890625 14.511719 L 1.050781 7.671875 L 1.050781 2.628906 C 1.050781 1.753906 1.410156 1.460938 1.8125 1.257812 C 2.214844 1.058594 2.628906 1.050781 2.628906 1.050781 Z M 3.683594 2.105469 C 2.816406 2.105469 2.105469 2.816406 2.105469 3.683594 C 2.105469 4.546875 2.816406 5.261719 3.683594 5.261719 C 4.546875 5.261719 5.261719 4.546875 5.261719 3.683594 C 5.261719 2.816406 4.546875 2.105469 3.683594 2.105469 Z M 3.683594 3.15625 C 3.980469 3.15625 4.207031 3.386719 4.207031 3.683594 C 4.207031 3.980469 3.980469 4.207031 3.683594 4.207031 C 3.386719 4.207031 3.15625 3.980469 3.15625 3.683594 C 3.15625 3.386719 3.386719 3.15625 3.683594 3.15625 Z M 3.683594 3.15625 "/>
</g>
</svg>
