
<svg xmlns="http://www.w3.org/2000/svg" xmlns:xlink="http://www.w3.org/1999/xlink" width="16px" height="16px" viewBox="0 0 16 16" version="1.1">
<g id="surface1">
<path style=" stroke:none;fill-rule:evenodd;fill:#ff6666;fill-opacity:1;" d="M 16 9.691406 L 15.652344 12.921875 L 7.359375 12.921875 L 7.359375 12.664062 L 11.550781 8.027344 L 7.480469 2.832031 L 7.480469 2.578125 L 15.332031 2.578125 L 15.332031 5.324219 L 14.808594 5.324219 C 14.703125 4.839844 14.496094 4.382812 14.1875 3.953125 C 13.882812 3.519531 13.566406 3.28125 13.238281 3.226562 C 13.09375 3.203125 12.882812 3.183594 12.613281 3.171875 C 12.339844 3.160156 12.121094 3.152344 11.945312 3.152344 L 9.679688 3.152344 L 12.945312 7.324219 L 12.945312 7.441406 L 9.128906 11.636719 L 13.921875 11.636719 C 14.140625 11.636719 14.335938 11.570312 14.507812 11.441406 C 14.679688 11.308594 14.828125 11.140625 14.949219 10.9375 C 15.0625 10.753906 15.164062 10.546875 15.25 10.324219 C 15.332031 10.113281 15.410156 9.902344 15.484375 9.691406 Z M 6.183594 1.28125 L 6.183594 2.140625 L 5.195312 2.140625 C 4.835938 2.140625 4.496094 2.171875 4.175781 2.238281 C 3.859375 2.304688 3.546875 2.425781 3.242188 2.605469 C 2.964844 2.773438 2.734375 3 2.558594 3.292969 C 2.382812 3.585938 2.292969 3.9375 2.292969 4.351562 C 2.292969 4.953125 2.511719 5.414062 2.941406 5.726562 C 3.375 6.042969 3.949219 6.199219 4.664062 6.199219 L 5.765625 6.199219 L 5.765625 6.996094 L 4.277344 6.996094 C 3.449219 6.996094 2.820312 7.167969 2.386719 7.515625 C 1.953125 7.863281 1.738281 8.410156 1.738281 9.15625 C 1.738281 9.765625 1.917969 10.234375 2.269531 10.574219 C 2.625 10.910156 3.121094 11.078125 3.753906 11.078125 L 4.753906 11.078125 C 5.382812 11.078125 5.859375 11.25 6.183594 11.59375 C 6.507812 11.941406 6.667969 12.398438 6.667969 12.976562 C 6.667969 13.601562 6.402344 14.167969 5.867188 14.679688 C 5.332031 15.195312 4.695312 15.449219 3.957031 15.449219 C 3.425781 15.449219 3.046875 15.382812 2.828125 15.257812 C 2.601562 15.125 2.492188 14.9375 2.492188 14.6875 C 2.492188 14.484375 2.554688 14.324219 2.675781 14.203125 C 2.800781 14.082031 2.984375 14.019531 3.226562 14.019531 C 3.371094 14.019531 3.496094 14.046875 3.613281 14.105469 C 3.71875 14.15625 3.820312 14.21875 3.910156 14.292969 C 3.992188 14.351562 4.089844 14.433594 4.203125 14.53125 C 4.316406 14.625 4.425781 14.699219 4.527344 14.75 C 4.648438 14.738281 4.78125 14.710938 4.925781 14.664062 C 5.070312 14.613281 5.207031 14.53125 5.339844 14.414062 C 5.476562 14.296875 5.585938 14.164062 5.664062 14.007812 C 5.75 13.855469 5.789062 13.644531 5.789062 13.378906 C 5.789062 13.011719 5.671875 12.738281 5.433594 12.5625 C 5.199219 12.382812 4.863281 12.292969 4.421875 12.292969 L 3.234375 12.292969 C 2.363281 12.292969 1.648438 12.027344 1.09375 11.496094 C 0.535156 10.964844 0.257812 10.304688 0.257812 9.519531 C 0.257812 9.09375 0.34375 8.707031 0.511719 8.351562 C 0.683594 8.003906 0.910156 7.695312 1.199219 7.429688 C 1.472656 7.183594 1.785156 6.984375 2.136719 6.835938 C 2.488281 6.691406 2.828125 6.597656 3.152344 6.554688 L 3.152344 6.511719 C 2.382812 6.382812 1.796875 6.128906 1.398438 5.75 C 0.996094 5.371094 0.796875 4.914062 0.796875 4.382812 C 0.796875 4.082031 0.855469 3.808594 0.976562 3.566406 C 1.09375 3.320312 1.261719 3.097656 1.472656 2.90625 C 1.671875 2.730469 1.902344 2.578125 2.171875 2.449219 C 2.445312 2.324219 2.726562 2.21875 3.015625 2.132812 L 3.015625 2.003906 C 2.8125 2.007812 2.550781 2.015625 2.226562 2.03125 C 1.902344 2.046875 1.625 2.054688 1.390625 2.054688 C 0.914062 2.054688 0.5625 1.988281 0.335938 1.855469 C 0.113281 1.722656 0 1.53125 0 1.28125 C 0 1.082031 0.0507812 0.914062 0.15625 0.769531 C 0.257812 0.625 0.433594 0.550781 0.683594 0.550781 C 0.914062 0.550781 1.113281 0.597656 1.277344 0.6875 C 1.4375 0.777344 1.59375 0.875 1.738281 0.984375 C 1.878906 1.089844 2.019531 1.195312 2.164062 1.292969 C 2.289062 1.375 2.472656 1.417969 2.71875 1.417969 C 3.265625 1.417969 3.855469 1.402344 4.492188 1.371094 C 5.128906 1.34375 5.691406 1.3125 6.183594 1.28125 Z M 6.183594 1.28125 "/>
</g>
</svg>
