
<svg xmlns="http://www.w3.org/2000/svg" xmlns:xlink="http://www.w3.org/1999/xlink" width="16px" height="16px" viewBox="0 0 16 16" version="1.1">
<g id="surface1">
<path style=" stroke:none;fill-rule:nonzero;fill:#ff6666;fill-opacity:1;" d="M 6.480469 8.890625 L 6.480469 14.792969 C 7.152344 14.882812 7.804688 15.066406 8.445312 15.339844 L 8.445312 16 L 2.640625 16 L 2.640625 15.335938 C 2.898438 15.214844 3.164062 15.109375 3.441406 15.015625 C 3.714844 14.925781 3.996094 14.847656 4.285156 14.789062 L 4.285156 1.234375 C 3.949219 1.15625 3.644531 1.070312 3.371094 0.972656 C 3.097656 0.871094 2.851562 0.769531 2.640625 0.664062 L 2.640625 0 L 13.359375 0 C 13.34375 0.59375 13.316406 1.203125 13.28125 1.828125 C 13.242188 2.453125 13.183594 3.078125 13.109375 3.703125 L 12.515625 3.703125 L 11.578125 1.1875 L 6.480469 1.1875 L 6.480469 7.703125 L 10.433594 7.703125 L 11.371094 6.019531 L 11.898438 6.019531 C 11.925781 6.371094 11.949219 6.738281 11.964844 7.125 C 11.980469 7.511719 11.988281 7.90625 11.988281 8.308594 C 11.988281 8.726562 11.980469 9.132812 11.964844 9.527344 C 11.949219 9.921875 11.925781 10.292969 11.898438 10.644531 L 11.371094 10.644531 L 10.433594 8.890625 Z M 6.480469 8.890625 "/>
</g>
</svg>
