
<svg xmlns="http://www.w3.org/2000/svg" xmlns:xlink="http://www.w3.org/1999/xlink" width="16px" height="16px" viewBox="0 0 16 16" version="1.1">
<g id="surface1">
<path style=" stroke:none;fill-rule:evenodd;fill:#ff6666;fill-opacity:1;" d="M 8.3125 0 C 10.414062 0 12.015625 0.445312 13.121094 1.332031 C 14.226562 2.21875 14.777344 3.511719 14.777344 5.214844 C 14.777344 6.972656 14.226562 8.304688 13.121094 9.207031 C 12.015625 10.113281 10.414062 10.566406 8.3125 10.566406 L 6.65625 10.566406 L 6.65625 13.257812 L 9.398438 13.257812 L 9.398438 16 L 1.222656 16 L 1.222656 13.257812 L 3.503906 13.257812 L 3.503906 2.742188 L 1.222656 2.742188 L 1.222656 0 Z M 8.285156 8.09375 C 10.421875 8.09375 11.492188 7.164062 11.492188 5.296875 C 11.492188 4.429688 11.226562 3.785156 10.703125 3.367188 C 10.175781 2.953125 9.371094 2.742188 8.285156 2.742188 L 6.683594 2.742188 L 6.683594 8.09375 Z M 8.285156 8.09375 "/>
</g>
</svg>
