
<svg xmlns="http://www.w3.org/2000/svg" xmlns:xlink="http://www.w3.org/1999/xlink" width="16px" height="16px" viewBox="0 0 16 16" version="1.1">
<g id="surface1">
<path style=" stroke:none;fill-rule:nonzero;fill:#ff6666;fill-opacity:1;" d="M 3.007812 0 C 2.265625 0 1.660156 0.605469 1.660156 1.351562 L 1.660156 14.648438 C 1.660156 15.394531 2.265625 16 3.007812 16 L 12.984375 16 C 13.730469 16 14.339844 15.390625 14.339844 14.644531 L 14.339844 4.285156 L 10.035156 0 Z M 3.007812 0.484375 L 9.835938 0.484375 L 9.9375 0.582031 L 9.9375 3.289062 C 9.9375 3.902344 10.4375 4.386719 11.050781 4.386719 L 13.753906 4.386719 L 13.855469 4.488281 L 13.855469 14.644531 C 13.855469 15.128906 13.46875 15.515625 12.984375 15.515625 L 3.007812 15.515625 C 2.527344 15.515625 2.144531 15.132812 2.144531 14.648438 L 2.144531 1.351562 C 2.144531 0.867188 2.527344 0.484375 3.007812 0.484375 Z M 5.210938 4.582031 C 5.089844 4.582031 4.964844 4.621094 4.863281 4.6875 C 4.761719 4.757812 4.679688 4.855469 4.632812 4.972656 C 4.585938 5.085938 4.578125 5.214844 4.601562 5.335938 C 4.628906 5.457031 4.691406 5.566406 4.777344 5.652344 L 7.15625 8.03125 L 4.777344 10.410156 C 4.660156 10.527344 4.59375 10.683594 4.59375 10.851562 C 4.59375 11.015625 4.660156 11.175781 4.777344 11.292969 C 4.894531 11.410156 5.050781 11.472656 5.21875 11.472656 C 5.382812 11.472656 5.542969 11.410156 5.660156 11.292969 L 8.035156 8.914062 L 10.414062 11.292969 C 10.472656 11.347656 10.542969 11.394531 10.617188 11.425781 C 10.691406 11.457031 10.773438 11.472656 10.855469 11.472656 C 10.9375 11.472656 11.019531 11.457031 11.09375 11.425781 C 11.171875 11.394531 11.238281 11.347656 11.296875 11.292969 C 11.355469 11.234375 11.402344 11.164062 11.433594 11.089844 C 11.464844 11.011719 11.480469 10.933594 11.480469 10.851562 C 11.480469 10.769531 11.464844 10.6875 11.433594 10.613281 C 11.402344 10.535156 11.355469 10.46875 11.296875 10.410156 L 8.917969 8.03125 L 11.296875 5.652344 C 11.355469 5.59375 11.402344 5.527344 11.433594 5.449219 C 11.464844 5.375 11.480469 5.292969 11.480469 5.210938 C 11.480469 5.128906 11.464844 5.050781 11.433594 4.972656 C 11.402344 4.898438 11.355469 4.832031 11.296875 4.773438 C 11.238281 4.714844 11.171875 4.667969 11.09375 4.636719 C 11.019531 4.605469 10.9375 4.589844 10.855469 4.589844 C 10.773438 4.589844 10.691406 4.605469 10.617188 4.636719 C 10.542969 4.667969 10.472656 4.714844 10.414062 4.773438 L 8.035156 7.148438 L 5.660156 4.773438 C 5.601562 4.714844 5.53125 4.664062 5.453125 4.632812 C 5.378906 4.601562 5.296875 4.582031 5.210938 4.582031 Z M 5.210938 4.582031 "/>
</g>
</svg>
