<?xml version="1.0" encoding="UTF-8" standalone="no"?>
<!-- Created with Inkscape (http://www.inkscape.org/) -->

<svg
   width="16"
   version="1.1"
   height="16"
   id="svg1"
   sodipodi:docname="start-here-kde.svg"
   inkscape:version="1.3.2 (091e20ef0f, 2023-11-25)"
   xmlns:inkscape="http://www.inkscape.org/namespaces/inkscape"
   xmlns:sodipodi="http://sodipodi.sourceforge.net/DTD/sodipodi-0.dtd"
   xmlns:xlink="http://www.w3.org/1999/xlink"
   xmlns="http://www.w3.org/2000/svg"
   xmlns:svg="http://www.w3.org/2000/svg">
  <sodipodi:namedview
     id="namedview1"
     pagecolor="#ffffff"
     bordercolor="#999999"
     borderopacity="1"
     inkscape:showpageshadow="2"
     inkscape:pageopacity="0"
     inkscape:pagecheckerboard="0"
     inkscape:deskcolor="#d1d1d1"
     inkscape:zoom="11.90625"
     inkscape:cx="4.6194226"
     inkscape:cy="22.509186"
     inkscape:window-width="1920"
     inkscape:window-height="994"
     inkscape:window-x="0"
     inkscape:window-y="0"
     inkscape:window-maximized="1"
     inkscape:current-layer="layer1" />
  <defs
     id="defs5455">
    <radialGradient
       gradientUnits="userSpaceOnUse"
       gradientTransform="matrix(0.74935904,0,0,0.74935905,-0.2480861,-0.233442)"
       r="8.0068359"
       fy="10.987305"
       fx="11.006836"
       cy="10.987305"
       cx="11.006836"
       id="radialGradient862-1"
       xlink:href="#linearGradient4-5"
       inkscape:collect="always" />
    <linearGradient
       inkscape:collect="always"
       id="linearGradient4-5">
      <stop
         style="stop-color:#0586c7;stop-opacity:1;"
         offset="0"
         id="stop3-3" />
      <stop
         style="stop-color:#058bce;stop-opacity:0.5;"
         offset="1"
         id="stop4-5" />
    </linearGradient>
  </defs>
  <metadata
     id="metadata5458" />
  <g
     inkscape:label="Capa 1"
     inkscape:groupmode="layer"
     id="layer1"
     transform="translate(-419.57143,-615.48041)">
    <flowRoot
       line-height="125%"
       style="font-size:32.5px;font-family:sans-serif"
       id="flowRoot4170"><flowRegion
         id="flowRegion4172"><rect
           width="87.75001"
           x="452.32144"
           y="489.79807"
           height="48.750004"
           id="rect4174" /></flowRegion><flowPara
         id="flowPara4176">Plasm</flowPara></flowRoot>
    <g
       id="16-16-start-here-kde-2"
       transform="translate(419.57143,615.48041)">
      <path
         style="fill:none"
         d="M 0,0 V 16 H 16 V 0 Z"
         id="path17" />
      <path
         style="color:#d3dae3;fill:url(#radialGradient862-1);fill-opacity:1;stroke-width:0.749092"
         d="M 8.7559325,2 6.496146,2.39342 v 7.777686 L 8.7442232,9.881535 8.7325212,6.37586 11.38454,10.255939 13.989737,9.881535 10.992301,5.865447 13.99998,2.495787 11.362585,2.010243 8.7325195,5.379883 Z M 4.003649,3.986099 c -0.02171,0.0024 -0.042183,0.01138 -0.05854,0.02785 L 3.1694052,4.797865 c -0.033677,0.03396 -0.039299,0.08685 -0.013165,0.127233 L 4.0929379,6.36276 C 3.9162323,6.67612 3.7827141,7.019705 3.6963041,7.379207 L 2.0790354,7.775553 C 2.0341434,7.786633 2,7.827103 2,7.873533 v 0.510421 0.510421 c 0,0.04639 0.03414,0.08696 0.079035,0.09798 l 1.617268,0.396347 c 0.086412,0.35951 0.2199281,0.703087 0.3966346,1.016453 L 3.156236,11.842809 c -0.026127,0.04043 -0.02051,0.09332 0.013163,0.127239 l 0.7757046,0.783912 c 0.032704,0.03294 0.083451,0.03567 0.1229414,0.0117 l 1.4679828,-0.899459 c 0.2879997,0.167659 0.7384996,0.302547 1.0669587,0.391956 l 0.3439438,1.659951 c 0.00955,0.04792 0.047646,0.08189 0.095136,0.08189 H 7.6201852 8.198304 c 0.04749,0 0.085581,-0.03398 0.095133,-0.0819 L 8.6373809,12.258134 C 8.965839,12.168724 9.4163403,12.033839 9.704338,11.866178 l 1.467987,0.899451 c 0.03946,0.02396 0.09025,0.02125 0.122933,-0.01169 l 0.775704,-0.783914 c 0.03371,-0.03392 0.03925,-0.08681 0.01317,-0.127239 l -0.7801,-1.197803 -0.0966,0.01463 -0.547375,-0.801462 c -0.559071,1.171112 -1.7413961,1.917416 -3.0398831,1.918828 -1.8623691,0 -3.3721159,-1.508647 -3.3721159,-3.369646 10e-4,-1.279063 0.7267595,-2.447257 1.8733919,-3.015717 V 4.655953 C 5.907704,4.727233 5.6976795,4.807553 5.5360132,4.901668 L 4.0680341,4.002212 c -0.01974,-0.01197 -0.042684,-0.01785 -0.064389,-0.01615 z"
         class="ColorScheme-Text"
         id="path10-2" />
    </g>
  </g>
</svg>
