<?xml version="1.0" encoding="UTF-8" standalone="no"?>
<svg
   width="22"
   height="22"
   version="1.1"
   id="svg1"
   sodipodi:docname="preferences-desktop-display-randr-symbolic.svg"
   inkscape:version="1.3.2 (091e20ef0f, 2023-11-25)"
   xmlns:inkscape="http://www.inkscape.org/namespaces/inkscape"
   xmlns:sodipodi="http://sodipodi.sourceforge.net/DTD/sodipodi-0.dtd"
   xmlns="http://www.w3.org/2000/svg"
   xmlns:svg="http://www.w3.org/2000/svg">
  <defs
     id="defs1" />
  <sodipodi:namedview
     id="namedview1"
     pagecolor="#ffffff"
     bordercolor="#999999"
     borderopacity="1"
     inkscape:showpageshadow="2"
     inkscape:pageopacity="0"
     inkscape:pagecheckerboard="0"
     inkscape:deskcolor="#d1d1d1"
     inkscape:zoom="6.1229019"
     inkscape:cx="17.475374"
     inkscape:cy="-8.1660626"
     inkscape:window-width="1920"
     inkscape:window-height="994"
     inkscape:window-x="0"
     inkscape:window-y="0"
     inkscape:window-maximized="1"
     inkscape:current-layer="svg1" />
  <style
     type="text/css"
     id="current-color-scheme">.ColorScheme-Text {
            color:#fcfcfc;
        }
        .ColorScheme-Background {
            color:#eff0f1;
        }
        .ColorScheme-ViewBackground {
            color:#fcfcfc;
        }
        .ColorScheme-ButtonFocus {
            color:#3daee9;
        }
        .ColorScheme-PositiveText {
            color:#27ae60;
        }
        .ColorScheme-NeutralText {
            color:#f67400;
        }
        .ColorScheme-NegativeText {
            color:#da4453;
        }</style>
  <g
     id="22-22-preferences-desktop-display-randr-5">
    <rect
       id="rect3832-3"
       x="0"
       y="0"
       width="22"
       height="22"
       fill-opacity="0" />
    <path
       d="M 18.938038,2.999981 H 3.061963 C 2.476468,2.999981 2,3.414714 2,4.006666 v 11.76221 c 0,0.631234 0.314461,1.231354 1.061963,1.231354 h 5.843341 c -0.182329,0.597112 -0.611243,1.342885 -1.475797,1.342885 v 0.65715 h 7.140987 v -0.65715 c -0.864555,0 -1.293469,-0.745773 -1.475798,-1.342885 h 5.779017 C 19.782127,17.00023 20,16.40011 20,15.768876 V 4.073421 c -1e-6,-0.591951 -0.476468,-1.07344 -1.061962,-1.07344 z m 0.06196,12.502 c 0,0.10413 -0.206659,0.498 -0.626,0.498 h -14.812 c -0.419105,0 -0.562,-0.393869 -0.562,-0.498 v -0.502 h 16 z m 0,-1.502 h -16 v -9.36 c 0,-0.606678 0.422775,-0.64 0.526,-0.64 h 14.848 c 0.102997,0 0.626,-0.03334 0.626,0.64 z"
       id="path2-3-3-6-1"
       style="fill:#d3dae3;fill-opacity:1;stroke-width:0.233246"
       sodipodi:nodetypes="sssssccccccsssssscsccscccsssc" />
    <path
       sodipodi:nodetypes="cccc"
       inkscape:connector-curvature="0"
       id="path11753-6-2-2"
       style="color:#bebebe;fill:#d3dae3;fill-opacity:1;stroke-width:0.543956"
       d="M 3.928571,7.666731 V 12.33348 H 8.498642 Z" />
    <path
       sodipodi:nodetypes="cccc"
       inkscape:connector-curvature="0"
       id="path11753-3-7-9-7"
       style="color:#bebebe;fill:#d3dae3;fill-opacity:1;stroke-width:0.543956"
       d="M 18.141498,9.666766 V 5.000017 h -4.570072 z" />
  </g>
</svg>
