<?xml version="1.0" encoding="UTF-8" standalone="no"?>
<svg
   viewBox="0 0 32 32"
   version="1.1"
   id="svg1"
   sodipodi:docname="system-log-out.svg"
   width="32"
   height="32"
   inkscape:version="1.3.2 (091e20ef0f, 2023-11-25)"
   xmlns:inkscape="http://www.inkscape.org/namespaces/inkscape"
   xmlns:sodipodi="http://sodipodi.sourceforge.net/DTD/sodipodi-0.dtd"
   xmlns:xlink="http://www.w3.org/1999/xlink"
   xmlns="http://www.w3.org/2000/svg"
   xmlns:svg="http://www.w3.org/2000/svg">
  <sodipodi:namedview
     id="namedview1"
     pagecolor="#ffffff"
     bordercolor="#999999"
     borderopacity="1"
     inkscape:showpageshadow="2"
     inkscape:pageopacity="0"
     inkscape:pagecheckerboard="0"
     inkscape:deskcolor="#d1d1d1"
     inkscape:zoom="8.4189901"
     inkscape:cx="15.797619"
     inkscape:cy="16.272736"
     inkscape:window-width="1920"
     inkscape:window-height="994"
     inkscape:window-x="0"
     inkscape:window-y="0"
     inkscape:window-maximized="1"
     inkscape:current-layer="svg1" />
  <defs
     id="defs3051">
    <style
       type="text/css"
       id="current-color-scheme">.ColorScheme-Text {color:#fcfcfc;}</style>
    <linearGradient
       inkscape:collect="always"
       xlink:href="#linearGradient19"
       id="linearGradient17"
       x1="4"
       y1="3"
       x2="29"
       y2="28"
       gradientUnits="userSpaceOnUse"
       gradientTransform="matrix(0.92307693,0,0,0.92307693,1.2307688,1.2307681)" />
    <linearGradient
       id="linearGradient19"
       inkscape:collect="always">
      <stop
         style="stop-color:#ffd42a;stop-opacity:1"
         offset="0"
         id="stop18" />
      <stop
         style="stop-color:#00ccff;stop-opacity:1"
         offset="1"
         id="stop19" />
    </linearGradient>
    <linearGradient
       inkscape:collect="always"
       xlink:href="#linearGradient19"
       id="linearGradient1078"
       x1="8.8629818"
       y1="16.006086"
       x2="22.992979"
       y2="16.006086"
       gradientUnits="userSpaceOnUse"
       gradientTransform="matrix(0.79263842,0,0,0.79263842,3.4364008,3.3129582)" />
  </defs>
  <path
     style="color:#000000;overflow:visible;opacity:0;fill:none;fill-opacity:1;stroke-width:1.06667"
     id="path951"
     overflow="visible"
     d="M 16,0 C 7.17237,0 0,7.17237 0,16 0,24.82763 7.17237,32 16,32 24.82763,32 32,24.82763 32,16 32,7.17237 24.82763,0 16,0 Z"
     inkscape:connector-curvature="0" />
  <path
     d="M 4,15.986434 C 4,15.344719 4.055754,14.703011 4.167354,14.0613 5.2272769,7.5325507 11.391558,3.0963623 17.918449,4.1565809 c 3.151874,0.5022094 5.941145,2.2320469 7.809955,4.826807 1.868809,2.5947491 2.621908,5.7754221 2.119849,8.9281831 -1.059927,6.528751 -7.224211,10.992843 -13.7511,9.932615 C 12.84198,27.648882 11.642598,27.258274 10.526885,26.672369 10.247958,26.532861 9.996927,26.39336 9.7458959,26.225959 9.3553977,25.974851 9.2159301,25.472643 9.4669701,25.082025 c 0.2510308,-0.390602 0.7531019,-0.530103 1.1436009,-0.279002 0.223132,0.139506 0.446276,0.251106 0.669422,0.390612 0.948352,0.502208 2.008279,0.837019 3.068189,1.004416 5.606439,0.89282 10.933933,-2.929558 11.826493,-8.56548 0.446299,-2.734262 -0.195231,-5.440614 -1.81302,-7.7005652 C 22.743883,7.6999599 20.373002,6.2212277 17.639523,5.7748185 12.033096,4.8540945 6.7055946,8.7043784 5.8130253,14.3124 c -0.390499,2.399451 0.083724,4.854701 1.3109536,6.919351 0.2231454,0.390602 0.1115725,0.92071 -0.2789264,1.14392 -0.390498,0.2232 -0.9204554,0.1116 -1.1436002,-0.279006 C 4.5857479,20.255231 4,18.134781 4,15.986434 Z"
     id="path2-75"
     style="fill:url(#linearGradient17);fill-opacity:1;stroke-width:0.278963" />
  <path
     d="m 21.6612,10.848144 a 0.38413151,0.37985086 0 0 1 -0.0053,0.05895 l -1.101479,7.0827 a 0.3895858,0.38524435 0 0 1 -0.662294,0.213434 l -1.377149,-1.362229 -4.406217,4.359044 a 1.1687569,1.1557329 0 0 1 -1.652631,0 l -1.652564,-1.634979 a 1.1687569,1.1557329 0 0 1 0,-1.634209 l 4.40783,-4.358641 -1.37758,-1.361836 a 0.3895858,0.38524435 0 0 1 0.216223,-0.654918 l 7.162556,-1.089461 a 0.3895858,0.38524435 0 0 1 0.448798,0.380615 z m -1.761313,6.272939 0.904231,-5.812183 -5.875731,0.895683 1.109145,1.096802 a 0.40088364,0.39641635 0 0 1 0,0.544729 l -4.683205,4.629491 a 0.3895858,0.38524435 0 0 0 0,0.544731 l 1.653014,1.634977 a 0.3895858,0.38524435 0 0 0 0.550877,0 l 4.683198,-4.631409 a 0.3895858,0.38524435 0 0 1 0.55088,0 z"
     id="path8"
     style="fill:url(#linearGradient1078);fill-opacity:1;stroke-width:0.38741" />
</svg>
