<?xml version="1.0" encoding="UTF-8" standalone="no"?>
<svg
   viewBox="0 0 32 32"
   version="1.1"
   id="svg1"
   sodipodi:docname="system-suspend-hibernate.svg"
   width="32"
   height="32"
   inkscape:version="1.3.2 (091e20ef0f, 2023-11-25)"
   xmlns:inkscape="http://www.inkscape.org/namespaces/inkscape"
   xmlns:sodipodi="http://sodipodi.sourceforge.net/DTD/sodipodi-0.dtd"
   xmlns:xlink="http://www.w3.org/1999/xlink"
   xmlns="http://www.w3.org/2000/svg"
   xmlns:svg="http://www.w3.org/2000/svg">
  <defs
     id="defs1">
    <linearGradient
       inkscape:collect="always"
       xlink:href="#linearGradient1040"
       id="linearGradient844-36"
       x1="5.6218852e-09"
       y1="13"
       x2="25.992626"
       y2="13"
       gradientUnits="userSpaceOnUse"
       gradientTransform="matrix(0.92333903,0,0,0.92307707,3.999999,3.9999998)" />
    <linearGradient
       inkscape:collect="always"
       id="linearGradient1040">
      <stop
         style="stop-color:#00ff00;stop-opacity:1;"
         offset="0"
         id="stop1036" />
      <stop
         style="stop-color:#008080;stop-opacity:1"
         offset="1"
         id="stop1038" />
    </linearGradient>
    <linearGradient
       inkscape:collect="always"
       xlink:href="#linearGradient1040"
       id="linearGradient1108"
       x1="24.723454"
       y1="16.126593"
       x2="7.0210347"
       y2="16.250662"
       gradientUnits="userSpaceOnUse"
       gradientTransform="matrix(0.92307708,0,0,0.92307708,1.2307677,1.2307686)" />
  </defs>
  <sodipodi:namedview
     id="namedview1"
     pagecolor="#ffffff"
     bordercolor="#999999"
     borderopacity="1"
     inkscape:showpageshadow="2"
     inkscape:pageopacity="0"
     inkscape:pagecheckerboard="0"
     inkscape:deskcolor="#d1d1d1"
     inkscape:zoom="11.90625"
     inkscape:cx="15.874016"
     inkscape:cy="16.041995"
     inkscape:window-width="1920"
     inkscape:window-height="994"
     inkscape:window-x="0"
     inkscape:window-y="0"
     inkscape:window-maximized="1"
     inkscape:current-layer="svg1" />
  <style
     type="text/css"
     id="current-color-scheme">.ColorScheme-Text {color:#fcfcfc;}</style>
  <path
     id="path938"
     overflow="visible"
     d="M 16,0 C 7.17237,0 0,7.17237 0,16 0,24.82763 7.17237,32 16,32 24.82763,32 32,24.82763 32,16 32,7.17237 24.82763,0 16,0 Z"
     inkscape:connector-curvature="0"
     style="color:#000000;overflow:visible;opacity:0;fill:none;fill-opacity:1;stroke-width:1.06667" />
  <path
     d="m 16.013561,3.9999998 c 0.641724,0 1.283435,0.05576 1.925145,0.167354 6.528744,1.0599227 10.964939,7.2242062 9.904712,13.7510952 -0.502206,3.15188 -2.232042,5.94115 -4.826802,7.809955 -2.594751,1.868805 -5.775426,2.621905 -8.928189,2.119845 C 7.5596843,26.78833 3.0955868,20.624043 4.155811,14.097155 4.351114,12.841977 4.741722,11.6426 5.3276362,10.526893 5.4671382,10.247957 5.6066417,9.996927 5.7740449,9.7458961 6.0251509,9.3553973 6.5273599,9.2159301 6.9179711,9.4669701 7.3085788,9.718001 7.4480823,10.220071 7.1969769,10.610571 7.0574731,10.833703 6.9458711,11.056847 6.8063673,11.28 6.3041559,12.228342 5.9693489,13.288272 5.8019452,14.348195 4.909127,19.954619 8.7315075,25.28212 14.367424,26.17468 c 2.734271,0.446294 5.440621,-0.195236 7.700575,-1.813021 2.232042,-1.617779 3.710776,-3.988656 4.157187,-6.72213 C 27.145909,12.0331 23.295625,6.705594 17.687596,5.8130244 15.28815,5.422526 12.832892,5.8966557 10.768254,7.1239789 10.377645,7.3471236 9.8475336,7.2355509 9.6243289,6.8450524 9.4011231,6.454554 9.5127261,5.9245967 9.9033344,5.7014522 11.744773,4.5857478 13.865222,3.9999998 16.013561,3.9999998 Z"
     id="path2-35"
     style="fill:url(#linearGradient844-36);fill-opacity:1;stroke-width:0.278973" />
  <path
     id="path891-3"
     class="ColorScheme-Text"
     d="m 11.938597,9.1964528 -0.554215,0.3195322 1.371768,2.375227 -2.310371,-0.619092 -0.164782,0.617842 2.926957,0.78383 1.960837,3.39748 h -3.921688 l -2.143052,-2.143073 -0.4518557,0.451833 1.6912617,1.69124 H 7.5999993 v 0.63906 h 2.7434577 l -1.6912617,1.691247 0.4518557,0.451813 2.143051,-2.14306 h 3.921689 l -1.960837,3.397461 -2.926957,0.783821 0.164782,0.617858 2.310371,-0.619083 -1.371768,2.37522 0.554215,0.31951 1.371694,-2.375207 0.619095,2.310327 0.61659,-0.16602 -0.78387,-2.926888 2.145592,-3.716999 2.14559,3.716999 -0.783877,2.926888 0.616597,0.16602 0.619083,-2.310327 1.371707,2.375207 0.55421,-0.31951 -1.371777,-2.37522 2.310377,0.619083 0.164793,-0.617858 -2.926963,-0.783821 -1.960847,-3.397461 h 3.921688 l 2.143044,2.14306 0.451875,-0.451813 -1.691265,-1.691247 h 2.74345 v -0.63906 h -2.74345 l 1.283128,-1.279343 h -0.912423 l -1.274359,1.279343 h -3.921688 l 0.737347,-1.279343 h -0.741312 l -0.734928,1.278083 -2.145592,-3.715733 0.78387,-2.9269183 -0.61659,-0.1660062 -0.619095,2.3103375 z m 9.933602,0.8224242 h 1.06505 v 0.539217 H 20.807098 L 21.872199,8.9404468 H 20.807098 V 8.4012311 h 2.130151 z m -1.271491,3.594634 h 1.06505 v 0.539221 h -2.130136 l 1.065086,-1.61768 h -1.065086 v -0.53919 h 2.130136 z m -2.988887,-2.156729 h 1.06507 v 0.53923 h -2.13017 l 1.0651,-1.617661 h -1.0651 V 9.8391362 h 2.13017 z"
     style="fill:url(#linearGradient1108);fill-opacity:1;stroke:none;stroke-width:0.63906" />
</svg>
