<?xml version="1.0" encoding="UTF-8" standalone="no"?>
<svg
   width="22"
   height="22"
   viewBox="0 0 22 22"
   version="1.1"
   id="svg1"
   sodipodi:docname="korgac-symbolic.svg"
   inkscape:version="1.3.2 (091e20ef0f, 2023-11-25)"
   xmlns:inkscape="http://www.inkscape.org/namespaces/inkscape"
   xmlns:sodipodi="http://sodipodi.sourceforge.net/DTD/sodipodi-0.dtd"
   xmlns="http://www.w3.org/2000/svg"
   xmlns:svg="http://www.w3.org/2000/svg">
  <defs
     id="defs1" />
  <sodipodi:namedview
     id="namedview1"
     pagecolor="#ffffff"
     bordercolor="#999999"
     borderopacity="1"
     inkscape:showpageshadow="2"
     inkscape:pageopacity="0"
     inkscape:pagecheckerboard="0"
     inkscape:deskcolor="#d1d1d1"
     inkscape:zoom="11.22532"
     inkscape:cx="15.322503"
     inkscape:cy="9.7992751"
     inkscape:window-width="1920"
     inkscape:window-height="994"
     inkscape:window-x="0"
     inkscape:window-y="0"
     inkscape:window-maximized="1"
     inkscape:current-layer="svg1" />
  <style
     type="text/css"
     id="current-color-scheme">.ColorScheme-Text{color:#31363b;}.ColorScheme-Background{color:#eff0f1;}.ColorScheme-Highlight{color:#3daee9;}.ColorScheme-ViewText{color:#31363b;}.ColorScheme-ViewBackground{color:#fcfcfc;}.ColorScheme-ViewHover{color:#93cee9;}.ColorScheme-ViewFocus{color:#3daee9;}.ColorScheme-ButtonText{color:#31363b;}.ColorScheme-ButtonBackground{color:#eff0f1;}.ColorScheme-ButtonHover{color:#93cee9;}.ColorScheme-ButtonFocus { color: #3daee9; } </style>
  <g
     id="22-22-korgac"
     style="fill:#d3dae3;fill-opacity:1"
     transform="translate(-32,-10.000001)">
    <rect
       style="opacity:0.00100002;fill:#d3dae3;fill-opacity:1"
       width="22"
       height="22"
       x="32"
       y="10.000001"
       id="rect2" />
    <path
       d="m 50.682237,17.513244 a 1.8582104,1.8582104 0 0 0 0,-2.62655 L 49.34455,13.539791 a 1.8775577,1.8775577 0 0 0 -2.634844,0 l -0.61726,0.607123 a 7.5894606,7.5894606 0 0 0 -3.104691,-0.651342 7.676059,7.676059 0 0 0 -3.12312,0.654108 l -0.59699,-0.609889 a 1.8775577,1.8775577 0 0 0 -2.634844,0 l -1.335845,1.346903 a 1.8609738,1.8609738 0 0 0 -0.009,2.62655 l 0.59883,0.617256 a 7.7562086,7.7562086 0 1 0 14.860158,3.123126 7.738702,7.738702 0 0 0 -0.66332,-3.142472 z m -14.731178,-1.981653 1.33585,-1.335848 a 0.93601438,0.93601438 0 0 1 1.326635,0 l 0.40536,0.396145 a 7.76358,7.76358 0 0 0 -2.680909,2.671697 L 35.951059,16.86744 a 0.94614887,0.94614887 0 0 1 0,-1.335849 z m 7.036696,12.547751 a 6.8312507,6.8312507 0 1 1 6.835854,-6.825716 6.8367766,6.8367766 0 0 1 -6.835854,6.825716 z m 6.6516,-10.824975 a 7.9026905,7.9026905 0 0 0 -2.680904,-2.662479 l 0.405353,-0.396145 a 0.93601438,0.93601438 0 0 1 1.32664,0 l 1.335852,1.335848 a 0.94614887,0.94614887 0 0 1 0,1.33677 z"
       id="path2-3"
       style="fill:#d3dae3;fill-opacity:1;stroke-width:0.921267" />
    <path
       d="m 47,22 c -1.337424,0 -4.012271,0 -4.012271,0 H 42 v -0.999999 0 V 17 c 0.0013,-0.612918 0.998735,-0.612918 1,0 v 4 h 4 c 0.536621,1e-6 0.488186,1 0,1 z"
       id="path4-6"
       style="fill:#d3dae3;fill-opacity:1;stroke-width:0.921241"
       sodipodi:nodetypes="cccccccccc" />
  </g>
</svg>
