<?xml version="1.0" encoding="UTF-8" standalone="no"?>
<svg
   width="22"
   height="22"
   version="1.1"
   id="svg9"
   sodipodi:docname="vlc-symbolic.svg"
   inkscape:version="1.3.2 (091e20ef0f, 2023-11-25)"
   xmlns:inkscape="http://www.inkscape.org/namespaces/inkscape"
   xmlns:sodipodi="http://sodipodi.sourceforge.net/DTD/sodipodi-0.dtd"
   xmlns="http://www.w3.org/2000/svg"
   xmlns:svg="http://www.w3.org/2000/svg">
  <sodipodi:namedview
     id="namedview1"
     pagecolor="#ffffff"
     bordercolor="#999999"
     borderopacity="1"
     inkscape:showpageshadow="2"
     inkscape:pageopacity="0"
     inkscape:pagecheckerboard="0"
     inkscape:deskcolor="#d1d1d1"
     inkscape:zoom="8.6590909"
     inkscape:cx="14.782152"
     inkscape:cy="21.018373"
     inkscape:window-width="1920"
     inkscape:window-height="994"
     inkscape:window-x="0"
     inkscape:window-y="0"
     inkscape:window-maximized="1"
     inkscape:current-layer="svg9" />
  <defs
     id="defs13" />
  <namedview
     id="namedview11"
     pagecolor="#ffffff"
     bordercolor="#000000"
     borderopacity="0.25"
     inkscape:showpageshadow="2"
     inkscape:pageopacity="0.0"
     inkscape:pagecheckerboard="0"
     inkscape:deskcolor="#d1d1d1"
     showgrid="false"
     inkscape:zoom="35.136364"
     inkscape:cx="9.4773609"
     inkscape:cy="9.0504528"
     inkscape:window-width="1920"
     inkscape:window-height="1011"
     inkscape:window-x="0"
     inkscape:window-y="0"
     inkscape:window-maximized="1"
     inkscape:current-layer="svg9" />
  <style
     type="text/css"
     id="current-color-scheme">.ColorScheme-Text { color: #fcfcfc; } </style>
  <g
     id="22-22-vlc">
    <rect
       style="opacity:0.00100002"
       width="22"
       height="22"
       x="0"
       y="0"
       id="rect2" />
    <path
       class="st1"
       d="m 9.515862,5.476989 c 0.941175,0.200836 1.882352,0.200836 2.82353,0 0.217196,-0.06699 0.289595,-0.200837 0.289595,-0.401674 0,0 0,0 0,0 L 12.194594,3.7364 C 12.049794,3.334726 11.615403,3 11.181018,3 H 10.819036 C 10.312239,3 9.950255,3.26778 9.805457,3.7364 L 9.371066,5.075315 c -0.144799,0.133888 0,0.334724 0.144796,0.401674 0,-0.06699 0,-0.06699 0,0 z m 0.868782,-1.606693 c 0.07235,-0.133896 0.217192,-0.26779 0.361987,-0.26779 h 0.361989 c 0.144797,0 0.289594,0.06698 0.361986,0.26779 l 0.361999,1.00418 c -0.579187,0.067 -1.158365,0.067 -1.737553,0 z"
       id="path4-3"
       style="fill:#d3dae3;fill-opacity:1;stroke-width:0.696182" />
    <path
       class="st1"
       d="m 10.963829,12.305445 c 1.592759,0 3.330323,-0.334727 3.54752,-1.205025 0,-0.06696 0,-0.133892 0,-0.200838 L 13.642569,8.15481 c -0.0724,-0.200834 -0.289597,-0.267781 -0.434396,-0.200834 0,0 0,0 0,0 -1.447974,0.401676 -3.040729,0.401676 -4.488694,0 -0.2172,-0.06699 -0.361997,0.06697 -0.434391,0.200834 0,0 0,0 0,0 L 7.41631,10.966527 c 0,0.067 0,0.133892 0,0.200841 0.217187,0.803348 1.954755,1.138077 3.547519,1.138077 z M 8.864278,8.690376 c 1.375572,0.334727 2.823531,0.334727 4.1991,0 l 0.723988,2.343103 c -0.217194,0.267777 -1.230778,0.602503 -2.823536,0.602503 -1.592764,0 -2.606347,-0.334726 -2.823535,-0.602503 z"
       id="path5-6"
       style="fill:#d3dae3;fill-opacity:1;stroke-width:0.696182" />
    <path
       class="st1"
       d="M 18.855235,17.393314 17.262474,13.64436 c -0.144788,-0.401678 -0.579181,-0.669465 -1.013575,-0.669465 h -1.013576 c -0.217195,0 -0.361994,0.133894 -0.361994,0.33473 0,0.06695 0,0.133897 0.07245,0.133897 0,0.06693 0.0724,0.133883 0.0724,0.200838 0,0.602501 -1.73757,1.338908 -3.981904,1.338908 -2.24436,0 -3.981912,-0.736407 -3.981912,-1.338908 0,-0.06693 0,-0.133896 0.07242,-0.200838 0.07235,-0.133897 0,-0.334733 -0.1448,-0.468627 -0.0724,0 -0.0724,-0.06695 -0.144797,-0.06695 H 5.823521 c -0.434386,0 -0.868773,0.267781 -1.013571,0.669458 L 3.217196,17.326352 C 3,17.527194 3,17.66108 3,17.794965 3,18.464428 3.579187,19 4.303172,19 v 0 h 13.393687 c 0.72398,0 1.303167,-0.535572 1.303167,-1.205035 -0.07245,-0.133885 -0.07245,-0.267771 -0.144793,-0.401657 z m -1.230762,0.937227 H 4.303184 c -0.361997,0 -0.579188,-0.200839 -0.579188,-0.535569 v 0 c 0,-0.06688 0,-0.13389 0.07238,-0.13389 l 1.592761,-3.74895 c 0.07236,-0.133884 0.217196,-0.200839 0.361995,-0.200839 h 0.579182 c 0,1.138075 2.027144,2.008371 4.705886,2.008371 2.678736,0 4.705886,-0.870296 4.705886,-2.008371 h 0.57919 c 0.144795,0 0.289595,0.0669 0.361996,0.200839 l 1.520345,3.74895 v 0 c 0,0.06689 0.07247,0.13389 0,0.200847 0,0.267773 -0.289593,0.468612 -0.57918,0.468612 z"
       id="path6-7"
       style="fill:#d3dae3;fill-opacity:1;stroke-width:0.696182" />
  </g>
</svg>
