<?xml version="1.0" encoding="UTF-8" standalone="no"?>
<svg
   width="64"
   version="1.1"
   height="64"
   id="svg2"
   inkscape:version="1.3.2 (091e20ef0f, 2023-11-25)"
   sodipodi:docname="folder-design.svg"
   xmlns:inkscape="http://www.inkscape.org/namespaces/inkscape"
   xmlns:sodipodi="http://sodipodi.sourceforge.net/DTD/sodipodi-0.dtd"
   xmlns:xlink="http://www.w3.org/1999/xlink"
   xmlns="http://www.w3.org/2000/svg"
   xmlns:svg="http://www.w3.org/2000/svg"
   xmlns:rdf="http://www.w3.org/1999/02/22-rdf-syntax-ns#"
   xmlns:cc="http://creativecommons.org/ns#"
   xmlns:dc="http://purl.org/dc/elements/1.1/">
  <sodipodi:namedview
     pagecolor="#ffffff"
     bordercolor="#666666"
     borderopacity="1"
     objecttolerance="10"
     gridtolerance="10"
     guidetolerance="10"
     inkscape:pageopacity="0"
     inkscape:pageshadow="2"
     inkscape:window-width="1920"
     inkscape:window-height="996"
     id="namedview45"
     showgrid="true"
     inkscape:zoom="5.2149125"
     inkscape:cx="12.272497"
     inkscape:cy="59.444909"
     inkscape:window-x="0"
     inkscape:window-y="0"
     inkscape:window-maximized="1"
     inkscape:current-layer="layer1"
     inkscape:document-rotation="0"
     inkscape:showpageshadow="2"
     inkscape:pagecheckerboard="0"
     inkscape:deskcolor="#d1d1d1">
    <inkscape:grid
       type="xygrid"
       id="grid921"
       originx="0"
       originy="0"
       spacingy="1"
       spacingx="1"
       units="px"
       visible="true" />
  </sodipodi:namedview>
  <defs
     id="defs5455">
    <linearGradient
       inkscape:collect="always"
       id="linearGradient5">
      <stop
         style="stop-color:#00ccff;stop-opacity:1"
         offset="0"
         id="stop1" />
      <stop
         style="stop-color:#ffeeaa;stop-opacity:1"
         offset="0.26376018"
         id="stop2" />
      <stop
         style="stop-color:#ff93ff;stop-opacity:1;"
         offset="0.53372222"
         id="stop3" />
      <stop
         style="stop-color:#ffb380;stop-opacity:1"
         offset="0.82188541"
         id="stop4" />
      <stop
         style="stop-color:#00ccff;stop-opacity:1;"
         offset="1"
         id="stop5" />
    </linearGradient>
    <linearGradient
       inkscape:collect="always"
       id="linearGradient16643">
      <stop
         style="stop-color:#00ccff;stop-opacity:1"
         offset="0"
         id="stop16639" />
      <stop
         style="stop-color:#ffeeaa;stop-opacity:1"
         offset="0.26376018"
         id="stop16651" />
      <stop
         style="stop-color:#ff93ff;stop-opacity:1;"
         offset="0.53372222"
         id="stop16645" />
      <stop
         style="stop-color:#ffb380;stop-opacity:1"
         offset="0.82188541"
         id="stop16653" />
      <stop
         style="stop-color:#b380ff;stop-opacity:1"
         offset="1"
         id="stop16641" />
    </linearGradient>
    <clipPath
       clipPathUnits="userSpaceOnUse"
       id="clipPath79425-9-5-3">
      <rect
         style="opacity:0.5;fill:#000000;fill-opacity:1;stroke:none;stroke-width:0.855869;stroke-dasharray:none;stroke-opacity:1;paint-order:stroke fill markers"
         id="rect79427-1-9-6"
         width="26.417742"
         height="29.037542"
         x="-16.227774"
         y="-6.4845476" />
    </clipPath>
    <clipPath
       clipPathUnits="userSpaceOnUse"
       id="clipPath79425-9-5-5">
      <rect
         style="opacity:0.5;fill:#000000;fill-opacity:1;stroke:none;stroke-width:0.855869;stroke-dasharray:none;stroke-opacity:1;paint-order:stroke fill markers"
         id="rect79427-1-9-62"
         width="26.417742"
         height="29.037542"
         x="-16.227774"
         y="-6.4845476" />
    </clipPath>
    <clipPath
       clipPathUnits="userSpaceOnUse"
       id="clipPath79425-9-5-5-6">
      <rect
         style="opacity:0.5;fill:#000000;fill-opacity:1;stroke:none;stroke-width:0.855869;stroke-dasharray:none;stroke-opacity:1;paint-order:stroke fill markers"
         id="rect79427-1-9-62-7"
         width="26.417742"
         height="29.037542"
         x="-16.227774"
         y="-6.4845476" />
    </clipPath>
    <linearGradient
       inkscape:collect="always"
       xlink:href="#linearGradient16643"
       id="linearGradient1419-3-8"
       x1="0.52915627"
       y1="5.0269842"
       x2="16.403845"
       y2="5.0269842"
       gradientUnits="userSpaceOnUse"
       gradientTransform="matrix(3.779602,0,0,3.8662743,384.57143,480.49982)" />
    <clipPath
       clipPathUnits="userSpaceOnUse"
       id="clipPath79425-9-5-5-6-9">
      <rect
         style="opacity:0.5;fill:#000000;fill-opacity:1;stroke:none;stroke-width:0.855869;stroke-dasharray:none;stroke-opacity:1;paint-order:stroke fill markers"
         id="rect79427-1-9-62-7-7"
         width="26.417742"
         height="29.037542"
         x="-16.227774"
         y="-6.4845476" />
    </clipPath>
    <linearGradient
       inkscape:collect="always"
       xlink:href="#linearGradient5"
       id="linearGradient1662-5-3"
       gradientUnits="userSpaceOnUse"
       gradientTransform="matrix(3.7757185,0,0,3.9032699,384.57656,479.89307)"
       x1="0.79375499"
       y1="15.028026"
       x2="16.080671"
       y2="4.8595076" />
  </defs>
  <metadata
     id="metadata5458">
    <rdf:RDF>
      <cc:Work
         rdf:about="">
        <dc:format>image/svg+xml</dc:format>
        <dc:type
           rdf:resource="http://purl.org/dc/dcmitype/StillImage" />
      </cc:Work>
    </rdf:RDF>
  </metadata>
  <g
     inkscape:label="Capa 1"
     inkscape:groupmode="layer"
     id="layer1"
     transform="translate(-384.57143,-483.798)">
    <path
       id="path32082-9-2-6"
       style="fill:url(#linearGradient1419-3-8);fill-opacity:1;stroke:none;stroke-width:5.11693;stroke-linecap:round;stroke-linejoin:round;stroke-opacity:0.03"
       d="m 393.706,494.33543 c -4,0 -7,3.14014 -7,7.32703 v 5.2336 c 0,0 2,-5.2336 5,-5.2336 h 8 12 6 24 c 3,0 5,2.09345 5,5.2336 v 0 0 -5.2336 c 0,-4.18689 -3,-7.32703 -7,-7.32703 h -24.07114 -5.92886 -9 z"
       sodipodi:nodetypes="sccsccccccccccccs" />
    <rect
       x="410.70618"
       y="495.38196"
       width="12"
       height="2.0934412"
       ry="1.0248641"
       stroke-width="3.41941"
       style="fill:#222638;fill-opacity:1;paint-order:stroke markers fill"
       id="rect12-5-9-3-9-9-1"
       rx="1.0248643" />
    <path
       d="m 418.43933,498.52231 h -3.46666 -4.33334 -16.93333 c -2,0 -3,1.04672 -3,3.14015 v 0 0 h 52 v 0 0 c 0,-2.09343 -1,-3.14015 -3,-3.14015 z"
       style="fill:#222638;fill-opacity:1;stroke-width:2.33915;paint-order:markers stroke fill"
       id="path8-7-2-9-6-1-7-5-1-2"
       sodipodi:nodetypes="cccccccccccc"
       opacity="0.6" />
    <path
       style="display:inline;fill:#4f4f4f;fill-opacity:1;stroke:none;stroke-width:2.74813;stroke-linecap:round;stroke-linejoin:round;stroke-opacity:0.03"
       d="m -14.026297,2.5011118 6.1666725,4.13e-5 H -3.014907 0.06809547 L 7.9884881,2.5011118 C 9.3097749,2.5157128 10.189967,3.444358 10.189967,4.874457 l -2.06e-4,11.759984 c 0.0082,1.415373 -0.872618,2.358956 -2.6343739,2.358956 H -14.02563 c -1.321306,0 -2.202145,-0.943583 -2.202145,-2.358956 V 4.874457 c 0,-1.4240071 0.880591,-2.3733452 2.201478,-2.3733452 z"
       id="path1611-1-8-0-7-2"
       clip-path="url(#clipPath79425-9-5-5-6-9)"
       transform="matrix(2.271201,0,0,2.2025816,423.56254,495.82653)"
       sodipodi:nodetypes="cccccccssccc" />
    <path
       d="m 418.706,501.33543 h -4 -5 -18.00001 c -3,0 -4.99999,2.05557 -4.99999,5.13889 v 26.72227 c 0,3.08331 1.99999,5.13884 4.99999,5.13884 H 441.706 c 3,0 5,-2.05553 5,-5.13884 v -26.72227 c 0,-3.08332 -2,-5.13889 -5,-5.13889 z"
       style="fill:url(#linearGradient1662-5-3);fill-opacity:1;stroke-width:3.83804;paint-order:markers stroke fill"
       id="path8-7-2-9-6-1-9-2-9"
       sodipodi:nodetypes="ccccsssssscc"
       opacity="0.6" />
    <path
       d="m 386.706,519.81839 17.1,18.06042 h -10e-6 0.65001 l -17.75,-18.67826 v 0 0 z"
       id="path2653-4-7-3"
       style="fill:#bac8df;fill-opacity:1;stroke-width:0.48092"
       sodipodi:nodetypes="cccccccc" />
    <path
       d="m 386.706,525.56916 11.48548,12.3465 -1e-5,0.0102 0.64953,-0.006 v 0.006 L 386.71114,524.9509 v 0 0 z"
       id="path2653-4-3-0-1"
       style="fill:#bac8df;fill-opacity:1;stroke-width:0.330034"
       sodipodi:nodetypes="ccccccccc" />
    <path
       style="color:#232629;fill:#d8f0f3;fill-opacity:1;stroke:none;stroke-width:0.627325"
       d="m 431.28664,510.298 c -0.31783,0 -0.57832,0.25672 -0.57832,0.57467 v 0.52555 c -1.02466,0.26308 -1.76189,1.17202 -1.76189,2.26425 0,0.76463 0.36522,1.44525 0.93485,1.87338 0.0618,0.0716 0.0983,0.16245 0.0983,0.26358 0,0.0283 2e-5,0.0586 -0.006,0.0856 l -2.53258,5.36779 h -1.04759 c -0.17105,0 -0.31131,0.13777 -0.31131,0.30876 v 0.002 c 0,0.17092 0.14026,0.3088 0.31131,0.3088 h 0.75598 l -1.95557,4.14492 c -0.12306,0.26288 -0.0624,0.56674 0.13122,0.76345 l -0.75361,1.53026 1.19097,-1.29019 c 0.31605,0.0823 0.65429,-0.0678 0.79759,-0.37132 l 2.25443,-4.77714 h 1.98123 v 0.41047 c 0,0.26096 0.21253,0.47166 0.47543,0.47166 h 0.0262 c 0.26289,0 0.47662,-0.2107 0.47662,-0.47166 v -0.41047 h 2.02657 l 2.25318,4.77713 c 0.14149,0.30522 0.48212,0.45394 0.79639,0.37132 l 1.19097,1.29019 -0.75104,-1.53027 c 0.19107,-0.19669 0.25304,-0.4987 0.12982,-0.76343 l -1.95547,-4.14494 h 0.70944 c 0.1727,0 0.31119,-0.13787 0.31119,-0.30878 0,-0.17092 -0.13849,-0.30818 -0.31119,-0.31001 h -1.00107 l -2.53133,-5.36775 c -0.006,-0.0276 -0.006,-0.0572 -0.006,-0.0855 0,-0.0992 0.0372,-0.19168 0.0958,-0.26332 0.56982,-0.42835 0.93735,-1.10885 0.93735,-1.87342 0,-1.1073 -0.77196,-2.02736 -1.80847,-2.27653 v -0.51339 c 0,-0.31807 -0.25725,-0.57464 -0.57714,-0.57464 z m 0.55028,2.11964 c 0.48739,0.2049 0.82938,0.68469 0.82938,1.24483 0,0.74636 -0.60637,1.35156 -1.35637,1.35156 -0.7535,0 -1.35635,-0.6052 -1.35635,-1.35156 0,-0.54191 0.32216,-1.00627 0.78668,-1.22156 0.0684,0.23965 0.282,0.41916 0.54638,0.41916 0.27135,0 0.489,-0.19038 0.55028,-0.44243 z m -0.53797,4.48808 h 0.0101 0.01 c 0.074,0 0.13843,0.0334 0.17894,0.086 l 2.01061,4.26138 h -1.73492 v -0.49872 c 0,-0.26282 -0.21375,-0.47414 -0.47666,-0.47414 h -0.0259 c -0.26285,0 -0.47542,0.21318 -0.47542,0.47414 v 0.49872 h -1.68954 l 2.01056,-4.26138 c 0.0434,-0.0529 0.10661,-0.086 0.18012,-0.086 z"
       class="ColorScheme-Text"
       id="path8133-5-8-9" />
  </g>
</svg>
