<?xml version="1.0" encoding="UTF-8" standalone="no"?>
<svg
   width="64"
   version="1.1"
   height="64"
   id="svg17"
   sodipodi:docname="folder-mac.svg"
   inkscape:version="1.3.2 (091e20ef0f, 2023-11-25)"
   xmlns:inkscape="http://www.inkscape.org/namespaces/inkscape"
   xmlns:sodipodi="http://sodipodi.sourceforge.net/DTD/sodipodi-0.dtd"
   xmlns:xlink="http://www.w3.org/1999/xlink"
   xmlns="http://www.w3.org/2000/svg"
   xmlns:svg="http://www.w3.org/2000/svg"
   xmlns:rdf="http://www.w3.org/1999/02/22-rdf-syntax-ns#"
   xmlns:cc="http://creativecommons.org/ns#"
   xmlns:dc="http://purl.org/dc/elements/1.1/">
  <sodipodi:namedview
     pagecolor="#ffffff"
     bordercolor="#666666"
     borderopacity="1"
     objecttolerance="10"
     gridtolerance="10"
     guidetolerance="10"
     inkscape:pageopacity="0"
     inkscape:pageshadow="2"
     inkscape:window-width="1920"
     inkscape:window-height="996"
     id="namedview19"
     showgrid="true"
     inkscape:zoom="4.0000001"
     inkscape:cx="-29.75"
     inkscape:cy="23.25"
     inkscape:window-x="0"
     inkscape:window-y="0"
     inkscape:window-maximized="1"
     inkscape:current-layer="layer1"
     inkscape:document-rotation="0"
     inkscape:lockguides="false"
     inkscape:showpageshadow="2"
     inkscape:pagecheckerboard="0"
     inkscape:deskcolor="#d1d1d1">
    <inkscape:grid
       type="xygrid"
       id="grid903"
       originx="0"
       originy="0"
       spacingy="1"
       spacingx="1"
       units="px"
       visible="true" />
  </sodipodi:namedview>
  <defs
     id="defs5455">
    <linearGradient
       inkscape:collect="always"
       id="linearGradient20658">
      <stop
         style="stop-color:#009999;stop-opacity:1;"
         offset="0"
         id="stop20654" />
      <stop
         style="stop-color:#00f9f9;stop-opacity:1;"
         offset="0.5020833"
         id="stop20660" />
      <stop
         style="stop-color:#009999;stop-opacity:1;"
         offset="1"
         id="stop20656" />
    </linearGradient>
    <linearGradient
       inkscape:collect="always"
       id="linearGradient20652">
      <stop
         style="stop-color:#009999;stop-opacity:1;"
         offset="0"
         id="stop20648" />
      <stop
         style="stop-color:#00ffff;stop-opacity:1"
         offset="1"
         id="stop20650" />
    </linearGradient>
    <clipPath
       clipPathUnits="userSpaceOnUse"
       id="clipPath79425-9-5-3">
      <rect
         style="opacity:0.5;fill:#000000;fill-opacity:1;stroke:none;stroke-width:0.855869;stroke-dasharray:none;stroke-opacity:1;paint-order:stroke fill markers"
         id="rect79427-1-9-6"
         width="26.417742"
         height="29.037542"
         x="-16.227774"
         y="-6.4845476" />
    </clipPath>
    <clipPath
       clipPathUnits="userSpaceOnUse"
       id="clipPath79425-9-5-5">
      <rect
         style="opacity:0.5;fill:#000000;fill-opacity:1;stroke:none;stroke-width:0.855869;stroke-dasharray:none;stroke-opacity:1;paint-order:stroke fill markers"
         id="rect79427-1-9-62"
         width="26.417742"
         height="29.037542"
         x="-16.227774"
         y="-6.4845476" />
    </clipPath>
    <linearGradient
       inkscape:collect="always"
       xlink:href="#linearGradient20658"
       id="linearGradient1419-3"
       x1="0.52915627"
       y1="5.0269842"
       x2="16.403845"
       y2="5.0269842"
       gradientUnits="userSpaceOnUse"
       gradientTransform="matrix(3.779602,0,0,3.8662743,384.57143,480.49982)" />
    <clipPath
       clipPathUnits="userSpaceOnUse"
       id="clipPath79425-9-5-5-6">
      <rect
         style="opacity:0.5;fill:#000000;fill-opacity:1;stroke:none;stroke-width:0.855869;stroke-dasharray:none;stroke-opacity:1;paint-order:stroke fill markers"
         id="rect79427-1-9-62-7"
         width="26.417742"
         height="29.037542"
         x="-16.227774"
         y="-6.4845476" />
    </clipPath>
    <linearGradient
       inkscape:collect="always"
       xlink:href="#linearGradient20652"
       id="linearGradient1662-5"
       gradientUnits="userSpaceOnUse"
       gradientTransform="matrix(3.7757185,0,0,3.9032699,384.57656,479.89307)"
       x1="1.0494165"
       y1="14.639369"
       x2="10.4516"
       y2="5.7431021" />
  </defs>
  <metadata
     id="metadata5458">
    <rdf:RDF>
      <cc:Work
         rdf:about="">
        <dc:format>image/svg+xml</dc:format>
        <dc:type
           rdf:resource="http://purl.org/dc/dcmitype/StillImage" />
      </cc:Work>
    </rdf:RDF>
  </metadata>
  <g
     inkscape:label="Capa 1"
     inkscape:groupmode="layer"
     id="layer1"
     transform="translate(-384.57143,-483.798)">
    <path
       id="path32082-9-2"
       style="fill:url(#linearGradient1419-3);fill-opacity:1;stroke:none;stroke-width:5.11693;stroke-linecap:round;stroke-linejoin:round;stroke-opacity:0.03"
       d="m 393.57143,493.798 c -4,0 -7,3.14014 -7,7.32703 v 5.2336 c 0,0 2,-5.2336 5,-5.2336 h 8 12 6 24 c 3,0 5,2.09345 5,5.2336 v 0 0 -5.2336 c 0,-4.18689 -3,-7.32703 -7,-7.32703 h -24.07114 -5.92886 -9 z"
       sodipodi:nodetypes="sccsccccccccccccs" />
    <rect
       x="410.57159"
       y="494.84451"
       width="12"
       height="2.0934412"
       ry="1.0248641"
       stroke-width="3.41941"
       style="fill:#222638;fill-opacity:1;paint-order:stroke markers fill"
       id="rect12-5-9-3-9-9"
       rx="1.0248643" />
    <path
       d="m 418.30476,497.98488 h -3.46666 -4.33334 -16.93333 c -2,0 -3,1.04672 -3,3.14015 v 0 0 h 52 v 0 0 c 0,-2.09343 -1,-3.14015 -3,-3.14015 z"
       style="fill:#222638;fill-opacity:1;stroke-width:2.33915;paint-order:markers stroke fill"
       id="path8-7-2-9-6-1-7-5-1"
       sodipodi:nodetypes="cccccccccccc"
       opacity="0.6" />
    <path
       style="display:inline;fill:#4f4f4f;fill-opacity:1;stroke:none;stroke-width:2.74813;stroke-linecap:round;stroke-linejoin:round;stroke-opacity:0.03"
       d="m -14.026297,2.5011118 6.1666725,4.13e-5 H -3.014907 0.06809547 L 7.9884881,2.5011118 C 9.3097749,2.5157128 10.189967,3.444358 10.189967,4.874457 l -2.06e-4,11.759984 c 0.0082,1.415373 -0.872618,2.358956 -2.6343739,2.358956 H -14.02563 c -1.321306,0 -2.202145,-0.943583 -2.202145,-2.358956 V 4.874457 c 0,-1.4240071 0.880591,-2.3733452 2.201478,-2.3733452 z"
       id="path1611-1-8-0-7-2-8"
       clip-path="url(#clipPath79425-9-5-5-6)"
       transform="matrix(2.271201,0,0,2.2025816,423.42797,495.2891)"
       sodipodi:nodetypes="cccccccssccc" />
    <path
       d="m 418.57143,500.798 h -4 -5 -18.00001 c -3,0 -4.99999,2.05557 -4.99999,5.13889 v 26.72227 c 0,3.08331 1.99999,5.13884 4.99999,5.13884 h 50.00001 c 3,0 5,-2.05553 5,-5.13884 v -26.72227 c 0,-3.08332 -2,-5.13889 -5,-5.13889 z"
       style="fill:url(#linearGradient1662-5);fill-opacity:1;stroke-width:3.83804;paint-order:markers stroke fill"
       id="path8-7-2-9-6-1-9-2"
       sodipodi:nodetypes="ccccsssssscc"
       opacity="0.6" />
    <path
       d="m 386.57143,519.28096 17.1,18.06042 h -10e-6 0.65001 l -17.75,-18.67826 v 0 0 z"
       id="path2653-4-7"
       style="fill:#bac8df;fill-opacity:1;stroke-width:0.48092"
       sodipodi:nodetypes="cccccccc" />
    <path
       d="m 386.57143,525.03173 11.48548,12.3465 -1e-5,0.0102 0.64953,-0.006 v 0.006 l -12.12986,-12.97496 v 0 0 z"
       id="path2653-4-3-0"
       style="fill:#bac8df;fill-opacity:1;stroke-width:0.330034"
       sodipodi:nodetypes="ccccccccc" />
    <path
       fill-rule="evenodd"
       clip-rule="evenodd"
       d="m 421.14286,513.51228 c 0,-0.35501 0.28784,-0.64285 0.64285,-0.64285 0.35502,0 0.64287,0.28784 0.64287,0.64285 0,0.35502 -0.28785,0.64286 -0.64287,0.64286 -0.35501,0 -0.64285,-0.28784 -0.64285,-0.64286 z m 2.57143,0 c 0,-0.35501 0.28784,-0.64285 0.64286,-0.64285 0.35501,0 0.64285,0.28784 0.64285,0.64285 0,0.35502 -0.28784,0.64286 -0.64285,0.64286 -0.35502,0 -0.64286,-0.28784 -0.64286,-0.64286 z m 2.57142,0 c 0,-0.35501 0.28784,-0.64285 0.64286,-0.64285 0.35502,0 0.64286,0.28784 0.64286,0.64285 0,0.35502 -0.28784,0.64286 -0.64286,0.64286 -0.35502,0 -0.64286,-0.28784 -0.64286,-0.64286 z m 12.85715,3.53572 v 8.67857 c 0,1.42008 -1.15136,2.57143 -2.57143,2.57143 h -15.42857 c -1.42008,0 -2.57143,-1.15135 -2.57143,-2.57143 v -7.07142 c 0,-0.35502 0.28784,-0.64287 0.64286,-0.64287 0.35502,0 0.64285,0.28785 0.64285,0.64287 v 7.07142 c 0,0.71004 0.57567,1.28571 1.28571,1.28571 h 15.42856 c 0.71004,0 1.28573,-0.57567 1.28573,-1.28571 v -8.35714 c 0,-0.35502 -0.28785,-0.64286 -0.64285,-0.64286 h -17.03571 c -0.88772,0 -1.60715,-0.71943 -1.60715,-1.60714 v -2.25 c 0,-1.42007 1.15136,-2.57143 2.57143,-2.57143 h 15.42857 c 1.42007,0 2.57143,1.15136 2.57143,2.57143 v 0.64285 c 0,0.35502 -0.28784,0.64287 -0.64286,0.64287 -0.35502,0 -0.64285,-0.28785 -0.64285,-0.64287 v -0.64285 c 0,-0.71003 -0.57569,-1.28571 -1.28572,-1.28571 h -15.42857 c -0.71004,0 -1.28571,0.57568 -1.28571,1.28571 v 1.92857 c 0,0.35502 0.28783,0.64286 0.64285,0.64286 h 17.03571 c 0.88771,0 1.60715,0.71943 1.60715,1.60714 z"
       id="path2-6-5"
       style="fill:#d8f0f3;fill-opacity:1;stroke-width:0.0401785" />
    <g
       id="g8-1-9"
       transform="matrix(0.00746269,0,0,0.00746269,425.53971,518.90328)"
       style="fill:#d8f0f3;fill-opacity:1;image-rendering:optimizeQuality;shape-rendering:geometricPrecision;text-rendering:geometricPrecision">
      <polygon
         class="fil0"
         points="617,825 423,549 230,825 54,825 335,423 54,21 230,21 423,298 617,21 793,21 511,423 793,825 "
         id="polygon6-5-7"
         style="fill:#d8f0f3;fill-opacity:1" />
    </g>
  </g>
</svg>
