<?xml version="1.0" encoding="UTF-8" standalone="no"?>
<svg
   height="64"
   width="64"
   version="1.1"
   id="svg19"
   sodipodi:docname="folder-flatpak.svg"
   inkscape:version="1.3.2 (091e20ef0f, 2023-11-25)"
   xmlns:inkscape="http://www.inkscape.org/namespaces/inkscape"
   xmlns:sodipodi="http://sodipodi.sourceforge.net/DTD/sodipodi-0.dtd"
   xmlns:xlink="http://www.w3.org/1999/xlink"
   xmlns="http://www.w3.org/2000/svg"
   xmlns:svg="http://www.w3.org/2000/svg"
   xmlns:rdf="http://www.w3.org/1999/02/22-rdf-syntax-ns#"
   xmlns:cc="http://creativecommons.org/ns#"
   xmlns:dc="http://purl.org/dc/elements/1.1/">
  <metadata
     id="metadata25">
    <rdf:RDF>
      <cc:Work
         rdf:about="">
        <dc:format>image/svg+xml</dc:format>
        <dc:type
           rdf:resource="http://purl.org/dc/dcmitype/StillImage" />
      </cc:Work>
    </rdf:RDF>
  </metadata>
  <defs
     id="defs23">
    <linearGradient
       inkscape:collect="always"
       id="linearGradient3">
      <stop
         style="stop-color:#00c3c3;stop-opacity:1;"
         offset="0"
         id="stop1" />
      <stop
         style="stop-color:#5f8dd3;stop-opacity:1;"
         offset="1"
         id="stop3" />
    </linearGradient>
    <linearGradient
       inkscape:collect="always"
       id="linearGradient9202">
      <stop
         style="stop-color:#00c3c3;stop-opacity:1;"
         offset="0"
         id="stop9198" />
      <stop
         style="stop-color:#3771c8;stop-opacity:1"
         offset="1"
         id="stop9200" />
    </linearGradient>
    <clipPath
       clipPathUnits="userSpaceOnUse"
       id="clipPath79425-9-5-3">
      <rect
         style="opacity:0.5;fill:#000000;fill-opacity:1;stroke:none;stroke-width:0.855869;stroke-dasharray:none;stroke-opacity:1;paint-order:stroke fill markers"
         id="rect79427-1-9-6"
         width="26.417742"
         height="29.037542"
         x="-16.227774"
         y="-6.4845476" />
    </clipPath>
    <clipPath
       clipPathUnits="userSpaceOnUse"
       id="clipPath79425-9-5-5">
      <rect
         style="opacity:0.5;fill:#000000;fill-opacity:1;stroke:none;stroke-width:0.855869;stroke-dasharray:none;stroke-opacity:1;paint-order:stroke fill markers"
         id="rect79427-1-9-62"
         width="26.417742"
         height="29.037542"
         x="-16.227774"
         y="-6.4845476" />
    </clipPath>
    <linearGradient
       inkscape:collect="always"
       xlink:href="#linearGradient3"
       id="linearGradient1419-3"
       x1="0.52915627"
       y1="5.0269842"
       x2="16.403845"
       y2="5.0269842"
       gradientUnits="userSpaceOnUse"
       gradientTransform="matrix(3.779602,0,0,3.8662743,-4.8e-7,-3.2981801)" />
    <clipPath
       clipPathUnits="userSpaceOnUse"
       id="clipPath79425-9-5-5-6">
      <rect
         style="opacity:0.5;fill:#000000;fill-opacity:1;stroke:none;stroke-width:0.855869;stroke-dasharray:none;stroke-opacity:1;paint-order:stroke fill markers"
         id="rect79427-1-9-62-7"
         width="26.417742"
         height="29.037542"
         x="-16.227774"
         y="-6.4845476" />
    </clipPath>
    <linearGradient
       inkscape:collect="always"
       xlink:href="#linearGradient9202"
       id="linearGradient1662-5"
       gradientUnits="userSpaceOnUse"
       gradientTransform="matrix(3.7757185,0,0,3.9032699,0.00512952,-3.9049301)"
       x1="16.019781"
       y1="14.779297"
       x2="1.2826365"
       y2="3.5911417" />
  </defs>
  <sodipodi:namedview
     pagecolor="#ffffff"
     bordercolor="#666666"
     borderopacity="1"
     objecttolerance="10"
     gridtolerance="10"
     guidetolerance="10"
     inkscape:pageopacity="0"
     inkscape:pageshadow="2"
     inkscape:window-width="1920"
     inkscape:window-height="996"
     id="namedview21"
     showgrid="true"
     inkscape:zoom="4.90625"
     inkscape:cx="55.235669"
     inkscape:cy="24.050955"
     inkscape:window-x="0"
     inkscape:window-y="0"
     inkscape:window-maximized="1"
     inkscape:current-layer="svg19"
     inkscape:document-rotation="0"
     inkscape:showpageshadow="2"
     inkscape:pagecheckerboard="0"
     inkscape:deskcolor="#d1d1d1">
    <inkscape:grid
       type="xygrid"
       id="grid879"
       originx="0"
       originy="0"
       spacingy="1"
       spacingx="1"
       units="px"
       visible="true" />
  </sodipodi:namedview>
  <linearGradient
     id="a"
     gradientUnits="userSpaceOnUse"
     x1="3"
     x2="3"
     y1="58"
     y2="16">
    <stop
       offset="0"
       stop-color="#3daee9"
       id="stop2" />
    <stop
       offset="1"
       stop-color="#6cc1ef"
       id="stop4" />
  </linearGradient>
  <path
     id="path32082-9-2"
     style="fill:url(#linearGradient1419-3);fill-opacity:1;stroke:none;stroke-width:5.11693;stroke-linecap:round;stroke-linejoin:round;stroke-opacity:0.03"
     d="m 9,10 c -4,0 -7,3.14014 -7,7.32703 v 5.2336 c 0,0 2,-5.2336 5,-5.2336 h 8.000001 12 6 24 c 3,0 5,2.09345 5,5.2336 v 0 0 -5.2336 c 0,-4.18689 -3,-7.32703 -7,-7.32703 h -24.07114 -5.92886 -9 z"
     sodipodi:nodetypes="sccsccccccccccccs" />
  <rect
     x="26.000195"
     y="11.046544"
     width="12"
     height="2.0934412"
     ry="1.0248641"
     stroke-width="3.41941"
     style="fill:#222638;fill-opacity:1;paint-order:stroke markers fill"
     id="rect12-5-9-3-9-9"
     rx="1.0248643" />
  <path
     d="M 33.73333,14.18688 H 30.26667 25.93333 9 c -2,0 -3,1.04672 -3,3.14015 v 0 0 h 52.000001 v 0 0 c 0,-2.09343 -1,-3.14015 -3,-3.14015 z"
     style="fill:#222638;fill-opacity:1;stroke-width:2.33915;paint-order:markers stroke fill"
     id="path8-7-2-9-6-1-7-5-1"
     sodipodi:nodetypes="cccccccccccc"
     opacity="0.6" />
  <path
     style="display:inline;fill:#4f4f4f;fill-opacity:1;stroke:none;stroke-width:2.74813;stroke-linecap:round;stroke-linejoin:round;stroke-opacity:0.03"
     d="m -14.026297,2.5011118 6.1666725,4.13e-5 H -3.014907 0.06809547 L 7.9884881,2.5011118 C 9.3097749,2.5157128 10.189967,3.444358 10.189967,4.874457 l -2.06e-4,11.759984 c 0.0082,1.415373 -0.872618,2.358956 -2.6343739,2.358956 H -14.02563 c -1.321306,0 -2.202145,-0.943583 -2.202145,-2.358956 V 4.874457 c 0,-1.4240071 0.880591,-2.3733452 2.201478,-2.3733452 z"
     id="path1611-1-8-0-7-2-2"
     clip-path="url(#clipPath79425-9-5-5-6)"
     transform="matrix(2.271201,0,0,2.2025816,38.85654,11.4911)"
     sodipodi:nodetypes="cccccccssccc" />
  <path
     d="m 34.000001,17 h -4 -5 H 6.99999 C 3.99999,17 2,19.05557 2,22.13889 V 48.86116 C 2,51.94447 3.99999,54 6.99999,54 h 50.000011 c 3,0 5,-2.05553 5,-5.13884 V 22.13889 c 0,-3.08332 -2,-5.13889 -5,-5.13889 z"
     style="fill:url(#linearGradient1662-5);fill-opacity:1;stroke-width:3.83804;paint-order:markers stroke fill"
     id="path8-7-2-9-6-1-9-2"
     sodipodi:nodetypes="ccccsssssscc"
     opacity="0.6" />
  <path
     d="m 2,35.48296 17.100001,18.06042 h -10e-6 0.65001 L 2,34.86512 v 0 0 z"
     id="path2653-4-7"
     style="fill:#bac8df;fill-opacity:1;stroke-width:0.48092"
     sodipodi:nodetypes="cccccccc" />
  <path
     d="m 2,41.23373 11.485481,12.3465 -10e-6,0.0102 0.649529,-0.006 v 0.006 L 2.00514,40.61547 v 0 0 z"
     id="path2653-4-3-0"
     style="fill:#bac8df;fill-opacity:1;stroke-width:0.330034"
     sodipodi:nodetypes="ccccccccc" />
  <path
     style="color:#232629;fill:#d8f0f3;fill-opacity:1;stroke:none;stroke-width:0.892349"
     d="M 47.00016,26.5 46.76886,26.679267 39,30.171709 V 40.917922 L 47.00016,44.5 55,40.917922 V 30.171709 Z m 0,1.047739 v 4.746309 l -0.44451,0.295471 -6.6666,-1.916502 z m 7.1111,3.58207 v 9.250658 l -7.1111,3.044916 V 33.395578 Z"
     class="ColorScheme-Text"
     id="path12-7-1-6" />
</svg>
