<?xml version="1.0" encoding="UTF-8" standalone="no"?>
<svg
   width="16"
   height="16"
   version="1.1"
   id="svg22"
   sodipodi:docname="ibus-pinyin.svg"
   inkscape:version="1.4 (e7c3feb100, 2024-10-09)"
   xmlns:inkscape="http://www.inkscape.org/namespaces/inkscape"
   xmlns:sodipodi="http://sodipodi.sourceforge.net/DTD/sodipodi-0.dtd"
   xmlns:xlink="http://www.w3.org/1999/xlink"
   xmlns="http://www.w3.org/2000/svg"
   xmlns:svg="http://www.w3.org/2000/svg"
   xmlns:rdf="http://www.w3.org/1999/02/22-rdf-syntax-ns#"
   xmlns:cc="http://creativecommons.org/ns#"
   xmlns:dc="http://purl.org/dc/elements/1.1/">
  <sodipodi:namedview
     pagecolor="#ffffff"
     bordercolor="#666666"
     borderopacity="1"
     objecttolerance="10"
     gridtolerance="10"
     guidetolerance="10"
     inkscape:pageopacity="0"
     inkscape:pageshadow="2"
     inkscape:window-width="1920"
     inkscape:window-height="998"
     id="namedview24"
     showgrid="false"
     inkscape:zoom="36.725358"
     inkscape:cx="6.9706604"
     inkscape:cy="11.708531"
     inkscape:window-x="0"
     inkscape:window-y="0"
     inkscape:window-maximized="1"
     inkscape:current-layer="svg22"
     inkscape:showpageshadow="2"
     inkscape:pagecheckerboard="0"
     inkscape:deskcolor="#d1d1d1">
    <inkscape:grid
       id="grid1"
       units="px"
       originx="0"
       originy="0"
       spacingx="1"
       spacingy="1"
       empcolor="#0099e5"
       empopacity="0.30196078"
       color="#0099e5"
       opacity="0.14901961"
       empspacing="5"
       dotted="false"
       gridanglex="30"
       gridanglez="30"
       visible="false" />
  </sodipodi:namedview>
  <metadata
     id="metadata2">
    <rdf:RDF>
      <cc:Work
         rdf:about="">
        <dc:format>image/svg+xml</dc:format>
        <dc:type
           rdf:resource="http://purl.org/dc/dcmitype/StillImage" />
      </cc:Work>
    </rdf:RDF>
  </metadata>
  <defs
     id="defs14">
    <filter
       id="filter2761"
       x="-0.024"
       y="-0.024"
       width="1.048"
       height="1.048"
       color-interpolation-filters="sRGB">
      <feGaussianBlur
         stdDeviation="0.14552168"
         id="feGaussianBlur4" />
    </filter>
    <linearGradient
       id="linearGradient4673"
       x1="1.2573"
       x2="15.644"
       y1="15.429"
       y2="1.1082"
       gradientTransform="matrix(3.7796,0,0,3.7796,-98.960821,0.53085)"
       gradientUnits="userSpaceOnUse">
      <stop
         stop-color="#16ff6c"
         offset="0"
         id="stop7" />
      <stop
         stop-color="#28ff61"
         offset=".47728"
         id="stop9" />
      <stop
         stop-color="#9fff1b"
         offset="1"
         id="stop11" />
    </linearGradient>
    <linearGradient
       id="linearGradient3764"
       x1="1"
       x2="47"
       gradientUnits="userSpaceOnUse"
       gradientTransform="rotate(-90,23.999998,24)">
      <stop
         style="stop-color:#00ccff;stop-opacity:1"
         id="stop2"
         offset="0" />
      <stop
         offset="1"
         style="stop-color:#2a7fff;stop-opacity:1"
         id="stop4" />
    </linearGradient>
    <style
       type="text/css"
       id="style876" />
    <style
       type="text/css"
       id="style878" />
    <style
       type="text/css"
       id="style880" />
    <style
       type="text/css"
       id="style882" />
    <filter
       id="filter1057"
       x="-0.026999999"
       y="-0.026999999"
       width="1.054"
       height="1.054"
       color-interpolation-filters="sRGB">
      <feGaussianBlur
         stdDeviation="0.61875"
         id="feGaussianBlur884" />
    </filter>
    <linearGradient
       id="linearGradient1053"
       x1="-127"
       x2="-72"
       y1="60"
       y2="5"
       gradientTransform="translate(131.5,-0.51)"
       gradientUnits="userSpaceOnUse">
      <stop
         stop-color="#02db96"
         offset="0"
         id="stop887"
         style="stop-color:#14ff6e;stop-opacity:1" />
      <stop
         stop-color="#13d39b"
         offset="1"
         id="stop889"
         style="stop-color:#a0ff1e;stop-opacity:1" />
    </linearGradient>
    <style
       type="text/css"
       id="style892" />
    <style
       type="text/css"
       id="style894" />
    <style
       type="text/css"
       id="style896" />
    <linearGradient
       id="a-367"
       gradientUnits="userSpaceOnUse"
       x1="23"
       x2="37"
       y1="20"
       y2="34"
       gradientTransform="matrix(1.9622547,0,0,1.9622547,-116.93982,-48.178796)">
      <stop
         offset="0"
         stop-color="#292c2f"
         id="stop246" />
      <stop
         offset="1"
         stop-opacity="0"
         id="stop248" />
    </linearGradient>
    <linearGradient
       id="c-53"
       gradientTransform="matrix(2.0428665,-6.8308524,5.7819337,2.3633129,25.219113,34.652812)"
       gradientUnits="userSpaceOnUse"
       x1="24"
       x2="24"
       y1="35"
       y2="13">
      <stop
         offset="0"
         stop-color="#23a2cd"
         id="stop256" />
      <stop
         offset=".53"
         stop-color="#00b8f5"
         id="stop258" />
      <stop
         offset="1"
         stop-color="#2ecbff"
         id="stop260" />
    </linearGradient>
    <linearGradient
       id="b"
       x1="5.6735563"
       x2="6.3497996"
       y1="285.08102"
       y2="296.22104"
       gradientTransform="matrix(3.9684789,0,0,3.7701975,-1.1998401,-1071.8118)"
       gradientUnits="userSpaceOnUse">
      <stop
         stop-color="#535a61"
         offset="0"
         id="stop24"
         style="stop-color:#31374e;stop-opacity:1;" />
      <stop
         stop-color="#333c45"
         offset="1"
         id="stop26"
         style="stop-color:#3a465f;stop-opacity:1;" />
    </linearGradient>
    <linearGradient
       id="l"
       x1="27.447001"
       x2="25.966"
       y1="289.76001"
       y2="289.76001"
       gradientTransform="matrix(3.741601,0,0,3.8209959,-163.25079,-1114.3625)"
       gradientUnits="userSpaceOnUse">
      <stop
         stop-color="#1881ce"
         offset="0"
         id="stop19" />
      <stop
         stop-color="#2980b9"
         offset="1"
         id="stop21" />
    </linearGradient>
    <linearGradient
       id="i"
       x1="7.8635001"
       x2="11.642"
       y1="288.34"
       y2="292.10999"
       gradientUnits="userSpaceOnUse"
       xlink:href="#a"
       gradientTransform="matrix(3.9684789,0,0,3.9686289,-97.302609,-1160.6764)" />
    <linearGradient
       id="a">
      <stop
         stop-color="#232629"
         offset="0"
         id="stop2-7" />
      <stop
         stop-opacity="0"
         offset="1"
         id="stop4-5" />
    </linearGradient>
    <linearGradient
       id="j"
       x1="10.692"
       x2="34.026001"
       y1="14.134"
       y2="29.068001"
       gradientTransform="matrix(0.98997675,0,0,1.0109685,-94.236919,-27.394731)"
       gradientUnits="userSpaceOnUse">
      <stop
         stop-color="#349cd2"
         offset="0"
         id="stop7-3" />
      <stop
         stop-color="#2694d9"
         offset=".74017"
         id="stop9-5" />
      <stop
         stop-color="#0e6daa"
         offset="1"
         id="stop11-6" />
    </linearGradient>
    <linearGradient
       id="h"
       x1="3.4561"
       x2="9.3148003"
       y1="287.76001"
       y2="293.60999"
       gradientUnits="userSpaceOnUse"
       xlink:href="#a"
       gradientTransform="matrix(3.9684789,0,0,3.9686289,-97.302609,-1160.6764)" />
    <linearGradient
       id="k"
       x1="21.274"
       x2="27.447001"
       y1="291.29999"
       y2="287.35001"
       gradientTransform="matrix(3.741601,0,0,3.8209959,-163.25079,-1114.3625)"
       gradientUnits="userSpaceOnUse">
      <stop
         stop-color="#1d99f3"
         offset="0"
         id="stop14" />
      <stop
         stop-color="#3daee9"
         offset="1"
         id="stop16" />
    </linearGradient>
    <linearGradient
       inkscape:collect="always"
       xlink:href="#linearGradient3764"
       id="linearGradient26"
       x1="15.235155"
       y1="14.872931"
       x2="2.2920253"
       y2="2.7845645"
       gradientUnits="userSpaceOnUse"
       gradientTransform="matrix(0.86666667,0,0,0.85714286,1.0666695,1.142857)" />
    <linearGradient
       inkscape:collect="always"
       xlink:href="#linearGradient3764"
       id="linearGradient6-5"
       x1="31.091717"
       y1="50.768665"
       x2="21.543037"
       y2="15.259762"
       gradientUnits="userSpaceOnUse" />
  </defs>
  <circle
     cx="-1252.4805"
     cy="-1236.6377"
     r="0"
     fill="#5e4aa6"
     id="circle908" />
  <circle
     cx="-1258.1064"
     cy="-1248.3278"
     r="0"
     id="circle910"
     style="fill:#5e4aa6" />
  <circle
     cx="-158.55647"
     cy="17.127289"
     r="0"
     fill-rule="evenodd"
     id="circle912"
     style="fill:#5e4aa6" />
  <circle
     cx="-1258.1064"
     cy="-1248.3278"
     r="0"
     id="circle914"
     style="fill:#5e4aa6" />
  <circle
     cx="-158.55647"
     cy="17.127289"
     r="0"
     fill-rule="evenodd"
     id="circle916"
     style="fill:#5e4aa6" />
  <circle
     cx="-1160.3064"
     cy="-1263.3278"
     r="0"
     id="circle918"
     style="fill:#5e4aa6" />
  <circle
     cx="-60.733475"
     cy="2.1466885"
     r="0"
     fill-rule="evenodd"
     id="circle920"
     style="fill:#5e4aa6" />
  <g
     transform="matrix(3.7796,0,0,3.7796,158.45352,-2.1177117)"
     stroke-width="0.26458"
     id="g950"
     style="fill:#5e4aa6">
    <g
       transform="translate(-0.0272,0.0065001)"
       id="g938">
      <circle
         cx="-330.35001"
         cy="-328.38"
         r="0"
         id="circle922" />
      <circle
         cx="-312.10999"
         cy="-326.25"
         r="0"
         id="circle924" />
      <circle
         cx="-306.01999"
         cy="-333.07001"
         r="0"
         id="circle926" />
      <circle
         cx="-308.84"
         cy="-326.01001"
         r="0"
         id="circle928" />
      <circle
         cx="-330.35001"
         cy="-328.38"
         r="0"
         id="circle930" />
      <circle
         cx="-312.10999"
         cy="-326.25"
         r="0"
         id="circle932" />
      <circle
         cx="-306.01999"
         cy="-333.07001"
         r="0"
         id="circle934" />
      <circle
         cx="-308.84"
         cy="-326.01001"
         r="0"
         id="circle936" />
    </g>
    <g
       transform="translate(-0.02705,0.0064503)"
       id="g948">
      <circle
         cx="-330.35001"
         cy="-328.38"
         r="0"
         id="circle940" />
      <circle
         cx="-312.10999"
         cy="-326.25"
         r="0"
         id="circle942" />
      <circle
         cx="-306.01999"
         cy="-333.07001"
         r="0"
         id="circle944" />
      <circle
         cx="-308.84"
         cy="-326.01001"
         r="0"
         id="circle946" />
    </g>
  </g>
  <path
     class="ColorScheme-Text"
     d="m 2.8928585,2 c -0.763285,0 -1.392856,0.678 -1.392856,1.5 v 9 c 0,0.822994 0.629571,1.5 1.392856,1.5 H 13.107147 c 0.76328,0 1.39285,-0.677006 1.39285,-1.5 v -9 c 0,-0.822 -0.62957,-1.5 -1.39285,-1.5 z m 0,0.999999 h 3.249999 0.928571 v 0 h 3.5285745 v 0 0 0 h 2.507145 c 0.26556,0 0.46427,0.215001 0.46427,0.500001 v 9 c 0,0.285994 -0.19871,0.500006 -0.46427,0.500006 H 2.8928585 C 2.6338175,13.006906 2.4221205,12.778974 2.4285725,12.5 v -9 c 0,-0.285 0.198716,-0.500001 0.464286,-0.500001 z m 4.17857,0 h 1.857144 v 0 0 z"
     font-family="sans-serif"
     font-weight="400"
     overflow="visible"
     id="path22"
     sodipodi:nodetypes="sssssssssscccccccssssccssccccc"
     style="color:#d5c289;fill:url(#linearGradient26);stroke-width:0.861892" />
  <g
     id="g2"
     transform="matrix(0.2,0,0,0.2,2.0921876,1.62461)">
    <path
       style="opacity:0.2;stroke-width:1.10824"
       d="m 41.623918,12.985234 c -1.009954,2.693667 -2.189997,5.552705 -3.536606,7.909519 H 25.66156 v 3.275071 h 4.514914 v 5.818499 c -2.1e-5,1.009954 -0.05664,2.184568 -0.168822,3.082416 h -5.454257 v 3.290219 h 5.118777 c -0.673143,5.948301 -2.974535,10.06982 -6.902232,12.987716 l 2.357015,2.523948 c 4.601107,-3.367149 7.294095,-8.328911 8.079664,-15.511664 h 6.852449 V 51.87695 h 3.365625 V 36.360958 h 6.614369 v -3.290219 h -6.614369 v -8.900915 h 5.508362 v -3.275071 h -7.309137 c 1.234375,-1.907937 2.468814,-4.429523 3.703269,-6.898641 z m -25.905556,0.101722 v 6.649712 h -5.56897 v 3.324856 h 5.56897 v 8.779691 c -2.132198,0.89798 -4.210475,1.794946 -6.6793,2.692788 l 1.179592,3.53699 c 2.019963,-0.785625 3.704185,-1.571647 5.499708,-2.357272 v 10.606638 c -2.4e-5,1.346786 -0.280852,2.019591 -0.841947,2.019591 -1.57129,0 -2.863442,-0.224262 -4.32228,-0.673197 l 0.673124,3.534821 c 1.346821,0.336688 2.584544,0.506524 4.155626,0.506524 1.346501,0 2.300199,-0.3375 2.861318,-1.010878 0.561096,-0.67348 0.770521,-1.851353 0.770521,-3.534823 V 34.031826 l 5.175052,-2.694953 -0.506467,-3.030469 v -0.0024 c -1.459056,0.673468 -3.211905,1.40289 -4.670748,2.188485 v -7.431127 h 5.542997 V 19.7365 h -5.542997 v -6.649712 z m 15.804361,0.404785 -3.365624,1.00871 c 1.234268,1.571194 2.187987,3.36761 2.861322,5.38774 l 3.534448,-1.177553 c -0.673228,-1.907933 -1.68354,-3.647622 -3.030146,-5.218897 z m 2.021535,10.678067 h 6.51481 v 8.900916 h -6.683627 c 0.112197,-0.785624 0.168796,-1.79025 0.168817,-2.5759 z"
       id="path3-3" />
    <path
       style="fill:url(#linearGradient6-5);stroke-width:1.10824"
       d="m 41.623918,11.87695 c -1.009954,2.693667 -2.189997,5.5527 -3.536606,7.909519 H 25.66156 v 3.27507 h 4.514914 v 5.818495 c -2.1e-5,1.009958 -0.05664,2.184577 -0.168822,3.082416 h -5.454257 v 3.290224 h 5.118777 c -0.673143,5.948301 -2.974535,10.069824 -6.902232,12.987715 l 2.357015,2.523949 c 4.601107,-3.36715 7.294095,-8.328911 8.079664,-15.511664 h 6.852449 v 15.515992 h 3.365625 V 35.252674 h 6.614369 V 31.96245 h -6.614369 v -8.900911 h 5.508362 v -3.27507 h -7.309137 c 1.234375,-1.907934 2.468814,-4.429523 3.703269,-6.898642 z m -25.905556,0.101712 v 6.649707 h -5.56897 v 3.324862 h 5.56897 v 8.779694 c -2.132198,0.897979 -4.210475,1.794945 -6.6793,2.692787 l 1.179592,3.536991 c 2.019963,-0.785625 3.704185,-1.571646 5.499708,-2.357271 v 10.606633 c -2.4e-5,1.346778 -0.280852,2.019587 -0.841947,2.019587 -1.57129,0 -2.863442,-0.224259 -4.32228,-0.673194 l 0.673124,3.534822 c 1.346821,0.336682 2.584544,0.506521 4.155626,0.506521 1.346501,0 2.300199,-0.337498 2.861318,-1.010878 0.561096,-0.673482 0.770521,-1.851355 0.770521,-3.53482 V 32.923541 l 5.175052,-2.694953 -0.506467,-3.030468 v -0.0024 c -1.459056,0.673454 -3.211905,1.402894 -4.670748,2.188491 v -7.431164 h 5.542997 V 18.628191 H 19.012561 V 11.97847 Z m 15.804361,0.404783 -3.365624,1.008712 c 1.234268,1.571194 2.187987,3.367608 2.861322,5.387739 l 3.534448,-1.177547 c -0.673228,-1.907947 -1.68354,-3.647635 -3.030146,-5.218909 z m 2.021535,10.678067 h 6.51481 v 8.900913 h -6.683627 c 0.112197,-0.785624 0.168796,-1.790245 0.168817,-2.575898 z"
       id="path4-67" />
  </g>
</svg>
