<?xml version="1.0" encoding="UTF-8" standalone="no"?>
<!-- Created with Inkscape (http://www.inkscape.org/) -->

<svg
   width="22"
   version="1.1"
   height="22"
   id="svg1"
   sodipodi:docname="start-here-kde.svg"
   inkscape:version="1.3.2 (091e20ef0f, 2023-11-25)"
   xmlns:inkscape="http://www.inkscape.org/namespaces/inkscape"
   xmlns:sodipodi="http://sodipodi.sourceforge.net/DTD/sodipodi-0.dtd"
   xmlns:xlink="http://www.w3.org/1999/xlink"
   xmlns="http://www.w3.org/2000/svg"
   xmlns:svg="http://www.w3.org/2000/svg">
  <sodipodi:namedview
     id="namedview1"
     pagecolor="#ffffff"
     bordercolor="#999999"
     borderopacity="1"
     inkscape:showpageshadow="2"
     inkscape:pageopacity="0"
     inkscape:pagecheckerboard="0"
     inkscape:deskcolor="#d1d1d1"
     inkscape:zoom="16.83798"
     inkscape:cx="10.808898"
     inkscape:cy="11.432488"
     inkscape:window-width="1920"
     inkscape:window-height="1007"
     inkscape:window-x="0"
     inkscape:window-y="0"
     inkscape:window-maximized="1"
     inkscape:current-layer="layer1" />
  <defs
     id="defs5455">
    <radialGradient
       gradientUnits="userSpaceOnUse"
       gradientTransform="matrix(0.99914628,0,0,0.99914629,0.0025613,0.0220762)"
       r="8.0068359"
       fy="10.987305"
       fx="11.006836"
       cy="10.987305"
       cx="11.006836"
       id="radialGradient862"
       xlink:href="#linearGradient2"
       inkscape:collect="always" />
    <linearGradient
       inkscape:collect="always"
       id="linearGradient2">
      <stop
         style="stop-color:#0586c7;stop-opacity:1;"
         offset="0"
         id="stop1" />
      <stop
         style="stop-color:#058bce;stop-opacity:0.5;"
         offset="1"
         id="stop2" />
    </linearGradient>
  </defs>
  <metadata
     id="metadata5458" />
  <g
     inkscape:label="Capa 1"
     inkscape:groupmode="layer"
     id="layer1"
     transform="translate(-417.57143,-641.798)">
    <flowRoot
       line-height="125%"
       style="font-size:32.5px;font-family:sans-serif"
       id="flowRoot4170"><flowRegion
         id="flowRegion4172"><rect
           width="87.75001"
           x="452.32144"
           y="489.79807"
           height="48.750004"
           id="rect4174" /></flowRegion><flowPara
         id="flowPara4176">Plasm</flowPara></flowRoot>
    <g
       id="22-22-start-here-kde-2"
       transform="translate(417.57143,641.798)">
      <rect
         style="opacity:0.00100002;vector-effect:none;fill:#000000;fill-opacity:1;stroke:none;stroke-width:2.71574;stroke-linecap:round;stroke-linejoin:round;stroke-miterlimit:4;stroke-dasharray:none;stroke-dashoffset:0;stroke-opacity:1"
         y="0"
         x="0"
         height="22"
         width="22"
         id="rect849" />
      <g
         id="g4500">
        <path
           style="color:#d3dae3;fill:url(#radialGradient862);fill-opacity:1;stroke-width:0.99878"
           d="M 12.133919,2.0000002 8.7442428,2.5901268 V 14.256652 L 12.116353,13.822283 12.098785,8.5637903 16.076828,14.383889 19.984613,13.822283 15.488464,7.7981612 19.999981,2.7436917 16.043897,2.0153565 12.098786,7.0698262 Z M 5.0055013,4.9791536 c -0.032567,0.0028 -0.063293,0.016966 -0.087818,0.041687 L 3.7541314,6.196702 c -0.050527,0.050883 -0.05895,0.1302051 -0.01976,0.1908583 L 5.1394198,8.5440459 C 4.8743612,9.0140908 4.6740857,9.5294678 4.5444705,10.068723 l -2.4259011,0.594516 c -0.067335,0.01648 -0.1185508,0.07735 -0.1185508,0.146982 v 0.765629 0.76563 c 0,0.06969 0.051217,0.130473 0.1185508,0.146983 l 2.4259011,0.594515 c 0.1296152,0.539258 0.3298907,1.054634 0.5949496,1.524678 l -1.4050472,2.156486 c -0.039198,0.0607 -0.030769,0.139978 0.019763,0.190859 l 1.1635543,1.175867 c 0.049061,0.04936 0.1251686,0.05354 0.1844122,0.0176 l 2.2019718,-1.34918 c 0.4319991,0.25149 1.1077493,0.453823 1.6004359,0.587933 L 9.4204224,19.87716 C 9.4347624,19.949047 9.4918864,20 9.5631214,20 h 0.8671776 0.867178 c 0.0713,0 0.128367,-0.05091 0.142698,-0.122852 l 0.515918,-2.489943 c 0.492686,-0.134112 1.168438,-0.336445 1.600435,-0.587934 l 2.201973,1.349176 c 0.05926,0.03595 0.135357,0.03192 0.184413,-0.01759 l 1.163553,-1.175867 c 0.05051,-0.05084 0.05901,-0.130205 0.01977,-0.190859 l -1.17014,-1.796709 -0.144897,0.0219 -0.821074,-1.202192 c -0.838603,1.756668 -2.612086,2.87612 -4.559816,2.87824 -2.793546,0 -5.0581649,-2.262964 -5.0581649,-5.054468 0.00163,-1.9185922 1.0901385,-3.6708661 2.8100855,-4.5235741 V 5.9839048 C 7.8616058,6.0907248 7.5465685,6.2112899 7.3040702,6.3524599 L 5.1020983,5.0032852 c -0.029626,-0.017974 -0.064032,-0.026833 -0.096597,-0.024132 z"
           class="ColorScheme-Text"
           id="path10" />
      </g>
    </g>
  </g>
</svg>
