<?xml version="1.0" encoding="UTF-8" standalone="no"?>
<svg
   width="16"
   height="16"
   viewBox="0 0 15.999999 16"
   fill="none"
   version="1.1"
   id="svg9"
   sodipodi:docname="virt-manager.svg"
   inkscape:version="1.3.2 (091e20ef0f, 2023-11-25)"
   xmlns:inkscape="http://www.inkscape.org/namespaces/inkscape"
   xmlns:sodipodi="http://sodipodi.sourceforge.net/DTD/sodipodi-0.dtd"
   xmlns:xlink="http://www.w3.org/1999/xlink"
   xmlns="http://www.w3.org/2000/svg"
   xmlns:svg="http://www.w3.org/2000/svg">
  <sodipodi:namedview
     id="namedview9"
     pagecolor="#ffffff"
     bordercolor="#000000"
     borderopacity="0.25"
     inkscape:showpageshadow="2"
     inkscape:pageopacity="0.0"
     inkscape:pagecheckerboard="0"
     inkscape:deskcolor="#d1d1d1"
     inkscape:zoom="15.91909"
     inkscape:cx="13.128891"
     inkscape:cy="9.7053286"
     inkscape:window-width="1920"
     inkscape:window-height="1007"
     inkscape:window-x="0"
     inkscape:window-y="0"
     inkscape:window-maximized="1"
     inkscape:current-layer="svg9"
     showgrid="true">
    <inkscape:grid
       id="grid2"
       units="px"
       originx="0"
       originy="0"
       spacingx="0.99999994"
       spacingy="1"
       empcolor="#0099e5"
       empopacity="0.30196078"
       color="#0099e5"
       opacity="0.14901961"
       empspacing="5"
       dotted="false"
       gridanglex="30"
       gridanglez="30"
       visible="true" />
  </sodipodi:namedview>
  <path
     d="M 4.3548877,3.6719061 C 4.419535,3.350332 4.7055518,3.1267744 4.9742434,3.1961496 5.207412,3.2424767 5.3786419,3.4890859 5.4196251,3.7622033 5.8841472,5.8667038 6.3632439,7.9679124 6.8168314,10.075775 6.9862475,9.6517718 7.0736831,9.1770581 7.2904577,8.7850436 7.6274588,8.2960829 8.3569953,8.7475557 8.2149415,9.365419 7.9234687,10.338978 7.576453,11.289276 7.2676886,12.255084 7.2020907,12.484141 7.0755002,12.71989 6.86419,12.76835 6.5863928,12.870763 6.2666862,12.654853 6.2002008,12.311297 5.7967056,10.530573 5.4086973,8.7443535 5.0070285,6.962466 4.946948,6.7190838 4.893176,6.4735021 4.8694914,6.2213137 4.3412147,8.2619466 3.8630385,10.321312 3.346606,12.366328 3.2555269,12.752847 2.8401853,12.946701 2.5596497,12.72646 2.3456078,12.583331 2.2955155,12.273828 2.2272028,12.015031 1.5586556,9.4073078 0.87736407,6.8049859 0.21246977,4.1960959 0.12685128,3.8998574 0.25344125,3.5441531 0.48935952,3.4141976 0.88647441,3.1598139 1.2781274,3.612436 1.3172991,4.0837684 1.8146035,6.0285863 2.324664,7.9679124 2.8192361,9.913808 3.3329412,7.833559 3.8393566,5.7510734 4.3548877,3.6719061 Z"
     stroke-width="0.365438"
     id="path1"
     style="fill:url(#linearGradient11);fill-opacity:1;stroke:url(#linearGradient13)" />
  <path
     d="M 8.8026176,3.533949 C 8.9810673,3.0295748 9.660608,3.0824402 9.7862335,3.609898 c 0.4654355,2.0417352 0.9117225,4.0900755 1.3681255,6.1351269 0.511873,-2.0153201 1.000949,-4.039439 1.524679,-6.0492386 0.169411,-0.5285993 0.880797,-0.480135 0.998299,0.071554 0.704909,2.6749576 1.398972,5.3543257 2.097582,8.0314927 0.139395,0.379947 -0.09104,0.86554 -0.434428,0.90076 -0.252328,0.04627 -0.511956,-0.159607 -0.582025,-0.455866 -0.531032,-2.018633 -1.054762,-4.0405125 -1.583973,-6.0602282 -0.50457,2.0483477 -1.020102,4.0911422 -1.534705,6.1350712 -0.11021,0.573792 -0.85069,0.621177 -1.010075,0.06618 C 10.127785,10.228459 9.6687354,8.0567799 9.1750952,5.8983126 9.0430105,6.3112761 8.9109972,6.7253475 8.7679559,7.1339262 8.6641364,7.4598922 8.3207607,7.6261828 8.0602855,7.4753099 7.786132,7.3442625 7.6513286,6.920275 7.781577,6.5998092 8.1213106,5.5778411 8.4528507,4.5503627 8.8026176,3.5338981 Z"
     stroke-width="0.365438"
     id="path2"
     style="fill:url(#linearGradient17);stroke:url(#linearGradient15);stroke-opacity:1" />
  <defs
     id="defs9">
    <linearGradient
       id="linearGradient14"
       inkscape:collect="always">
      <stop
         style="stop-color:#5a9cfe;stop-opacity:1"
         offset="0"
         id="stop14" />
      <stop
         style="stop-color:#7e36f4;stop-opacity:1"
         offset="1"
         id="stop15" />
    </linearGradient>
    <linearGradient
       id="linearGradient9"
       inkscape:collect="always">
      <stop
         style="stop-color:#ffcb2f;stop-opacity:1"
         offset="0"
         id="stop10" />
      <stop
         style="stop-color:#e25563;stop-opacity:1"
         offset="1"
         id="stop11" />
    </linearGradient>
    <linearGradient
       id="paint0_linear_677_21"
       x1="50.5242"
       y1="145.22"
       x2="50.5242"
       y2="47"
       gradientUnits="userSpaceOnUse">
      <stop
         stop-color="#FD2E00"
         id="stop2" />
      <stop
         offset="1"
         stop-color="#FF9900"
         id="stop3" />
    </linearGradient>
    <linearGradient
       id="paint1_linear_677_21"
       x1="50.5242"
       y1="145.22"
       x2="50.5242"
       y2="47"
       gradientUnits="userSpaceOnUse">
      <stop
         stop-color="#FD2E00"
         id="stop4" />
      <stop
         offset="1"
         stop-color="#FF9900"
         id="stop5" />
    </linearGradient>
    <linearGradient
       id="paint2_linear_677_21"
       x1="141.74899"
       y1="144.783"
       x2="141.74899"
       y2="47"
       gradientUnits="userSpaceOnUse">
      <stop
         stop-color="#5570FF"
         id="stop6" />
      <stop
         offset="1"
         stop-color="#4DD3FF"
         id="stop7" />
    </linearGradient>
    <linearGradient
       id="paint3_linear_677_21"
       x1="141.74899"
       y1="144.783"
       x2="141.74899"
       y2="47"
       gradientUnits="userSpaceOnUse">
      <stop
         stop-color="#5570FF"
         id="stop8" />
      <stop
         offset="1"
         stop-color="#4DD3FF"
         id="stop9" />
    </linearGradient>
    <linearGradient
       inkscape:collect="always"
       xlink:href="#linearGradient9"
       id="linearGradient11"
       x1="100.54253"
       y1="45.494312"
       x2="0.48541406"
       y2="146.74269"
       gradientUnits="userSpaceOnUse"
       gradientTransform="matrix(0.1253667,0,0,0.11835848,-0.06661501,-1.3751286)" />
    <linearGradient
       inkscape:collect="always"
       xlink:href="#linearGradient9"
       id="linearGradient13"
       x1="100.54253"
       y1="45.494312"
       x2="0.48541406"
       y2="146.74269"
       gradientUnits="userSpaceOnUse"
       gradientTransform="matrix(0.1253667,0,0,0.11835848,-0.06661501,-1.3751286)" />
    <linearGradient
       inkscape:collect="always"
       xlink:href="#linearGradient14"
       id="linearGradient15"
       x1="91.47702"
       y1="146.22887"
       x2="192.01701"
       y2="45.521637"
       gradientUnits="userSpaceOnUse"
       gradientTransform="matrix(0.1253667,0,0,0.11835848,-0.06661501,-1.3751286)" />
    <linearGradient
       inkscape:collect="always"
       xlink:href="#linearGradient14"
       id="linearGradient17"
       x1="91.47702"
       y1="146.22887"
       x2="192.01701"
       y2="45.521637"
       gradientUnits="userSpaceOnUse"
       gradientTransform="matrix(0.1253667,0,0,0.11835848,-0.06661501,-1.3751286)" />
  </defs>
</svg>
