<?xml version="1.0" encoding="UTF-8" standalone="no"?>
<svg
   version="1.1"
   viewBox="0 0 16 16"
   id="svg28"
   sodipodi:docname="web-yahoo.svg"
   inkscape:version="1.3.2 (091e20ef0f, 2023-11-25)"
   width="16"
   height="16"
   xmlns:inkscape="http://www.inkscape.org/namespaces/inkscape"
   xmlns:sodipodi="http://sodipodi.sourceforge.net/DTD/sodipodi-0.dtd"
   xmlns:xlink="http://www.w3.org/1999/xlink"
   xmlns="http://www.w3.org/2000/svg"
   xmlns:svg="http://www.w3.org/2000/svg">
  <sodipodi:namedview
     id="namedview30"
     pagecolor="#ffffff"
     bordercolor="#666666"
     borderopacity="1.0"
     inkscape:showpageshadow="2"
     inkscape:pageopacity="0.0"
     inkscape:pagecheckerboard="0"
     inkscape:deskcolor="#d1d1d1"
     showgrid="false"
     inkscape:zoom="19.666667"
     inkscape:cx="1.118644"
     inkscape:cy="13.194915"
     inkscape:window-width="1920"
     inkscape:window-height="1003"
     inkscape:window-x="0"
     inkscape:window-y="0"
     inkscape:window-maximized="1"
     inkscape:current-layer="svg28" />
  <defs
     id="defs12">
    <linearGradient
       id="linearGradient1"
       inkscape:collect="always">
      <stop
         style="stop-color:#7d519e;stop-opacity:1;"
         offset="0"
         id="stop1" />
      <stop
         style="stop-color:#bfa5d0;stop-opacity:1;"
         offset="1"
         id="stop3" />
    </linearGradient>
    <linearGradient
       id="b"
       x1="15.425"
       x2="31.702721"
       y1="13.05"
       y2="30.814844"
       gradientTransform="matrix(1.0041687,0,0,0.94967539,386.73655,504.5339)"
       gradientUnits="userSpaceOnUse">
      <stop
         offset="0"
         id="stop2" />
      <stop
         stop-opacity="0"
         offset="1"
         id="stop4" />
    </linearGradient>
    <linearGradient
       id="a"
       x1="30.207001"
       x2="14"
       y1="43"
       y2="10"
       gradientTransform="matrix(-1,0,0,1,432.30321,499.798)"
       gradientUnits="userSpaceOnUse">
      <stop
         stop-color="#cebee5"
         offset="0"
         id="stop7" />
      <stop
         stop-color="#f1f1f1"
         offset="1"
         id="stop9" />
    </linearGradient>
    <linearGradient
       id="linearGradient4416">
      <stop
         style="stop-color:#ffffff;stop-opacity:0"
         offset="0"
         id="stop2-5" />
      <stop
         style="stop-color:#ffffff;stop-opacity:1"
         offset="1"
         id="stop4-3" />
    </linearGradient>
    <linearGradient
       id="a-9">
      <stop
         offset="0"
         id="stop1433" />
      <stop
         offset="1"
         stop-opacity="0"
         id="stop1435" />
    </linearGradient>
    <linearGradient
       inkscape:collect="always"
       xlink:href="#linearGradient1"
       id="linearGradient3"
       x1="1.6271186"
       y1="13.999996"
       x2="15.440675"
       y2="0"
       gradientUnits="userSpaceOnUse" />
  </defs>
  <path
     d="m 12.499314,4.5096497 c -0.225094,0.03205 -1.159046,0.340093 -1.47149,0.438678 -0.335943,0.133074 -3.4065986,3.610437 -3.6014449,4.465605 a 4.1658667,6.1118668 0 0 0 -0.067209,1.1780103 l -0.023531,0.690063 c 0,0.492889 0.094065,1.286435 0.1377469,1.712791 0.2015744,0.06653 1.6629922,0.01 1.9317634,0.07392 L 9.3715674,13.95346 C 9.1078326,13.92398 7.2533466,13.93242 6.1950791,13.93242 c -0.5375314,0 -2.267705,0.08622 -2.7985227,0.06388 l 0.1007757,-0.837886 c 0.2906028,-0.03449 1.4950119,0.07397 1.7621005,-0.337627 0.1310233,-0.204472 0.089026,-0.421419 0.089026,-1.601906 v -0.559468 c 0,-0.263695 0,-0.7565893 -0.043659,-1.2174393 C 5.1939361,8.9481627 2.4894777,3.9945847 1.7940532,3.2059547 1.5924788,3.1073847 0.32927433,2.9225417 0.01515737,2.8239697 L 0,2.0673857 c 0.15621581,-0.113381 1.5622014,0.02707 2.9261859,-0.04683 0.8953252,-0.04931 2.9396233,0 3.1915972,0.04434 l -0.06381,0.667877 c -0.2687558,0.09857 -1.5621903,0.135538 -1.898149,0.266162 0.8734895,1.905024 2.2542703,4.362092 2.7027769,5.318303 C 7.1038477,7.7898437 9.270776,5.6063297 9.3362873,4.8497387 9.0003284,4.7511637 7.8883082,4.5145737 7.7085691,4.5145737 L 7.6027465,3.6520177 c 0.3040401,-0.069 1.9082435,0 2.7044485,0 0.688716,0 2.158527,0 2.576799,0.05423 l -0.381324,0.808335 m 1.459729,8.8006163 -0.519044,-0.06386 -0.0069,-1.651199 0.65848,0.118145 0.589613,0.03941 -0.162973,1.616684 -0.559351,-0.06157 m 0.670284,-2.917917 -0.97092,-0.135776 c 0.100772,-0.7220843 0.01334,-6.2449553 0.0069,-6.8339573 l -0.05043,-1.160749 c 0.268776,0.0764 0.228459,0.03695 1.369048,0.211942 0.693736,0.108432 0.784444,0.155262 1.012891,0.167592 l -0.297309,1.375177 c -0.255327,1.099173 -0.991037,6.0083883 -1.069998,6.3756053 z"
     id="path1"
     style="fill:url(#linearGradient3);stroke-width:3.77959" />
</svg>
