
<svg xmlns="http://www.w3.org/2000/svg" xmlns:xlink="http://www.w3.org/1999/xlink" width="16px" height="16px" viewBox="0 0 16 16" version="1.1">
<g id="surface1">
<path style=" stroke:none;fill-rule:nonzero;fill:#ff6666;fill-opacity:1;" d="M 8 1 C 4.140625 1 1 4.136719 1 8 C 1 11.863281 4.140625 15 8 15 C 11.859375 15 15 11.863281 15 8 C 15 4.136719 11.859375 1 8 1 Z M 8 3 C 9.019531 3 9.960938 3.285156 10.75 3.8125 L 3.808594 10.75 C 3.289062 9.960938 3 9.019531 3 8 C 3 5.238281 5.238281 3 8 3 Z M 12.191406 5.25 C 12.710938 6.039062 13 6.980469 13 8 C 13 10.757812 10.761719 13 8 13 C 6.980469 13 6.039062 12.710938 5.25 12.1875 Z M 12.191406 5.25 "/>
</g>
</svg>
