
<svg xmlns="http://www.w3.org/2000/svg" xmlns:xlink="http://www.w3.org/1999/xlink" width="16px" height="16px" viewBox="0 0 16 16" version="1.1">
<g id="surface1">
<path style=" stroke:none;fill-rule:nonzero;fill:#ff6666;fill-opacity:1;" d="M 4.703125 1.007812 C 4.46875 1.042969 4 1.203125 4 1.804688 L 4 12.199219 C 4 13 4.832031 13 4.832031 13 L 13.15625 13 C 13.992188 13 13.992188 12.199219 13.992188 12.199219 C 14.007812 12.164062 13.996094 6.242188 13.992188 4.203125 L 10.660156 1.007812 L 4.832031 1.007812 C 4.832031 1.007812 4.78125 0.992188 4.703125 1.007812 Z M 2.703125 3.007812 C 2.46875 3.042969 2 3.203125 2 3.804688 L 2 14.199219 C 2 15 2.832031 15 2.832031 15 L 11.15625 15 C 11.992188 15 11.992188 14.199219 11.992188 14.199219 C 11.992188 14.199219 11.992188 14.007812 11.992188 14 L 3.832031 14 C 3.832031 14 3 14 3 13.199219 L 3 3.007812 L 2.832031 3.007812 C 2.832031 3.007812 2.78125 2.992188 2.703125 3.007812 Z M 8 4 L 10 4 L 10 6 L 12 6 L 12 8 L 10 8 L 10 10 L 8 10 L 8 8 L 6 8 L 6 6 L 8 6 Z M 8 4 "/>
</g>
</svg>
