
<svg xmlns="http://www.w3.org/2000/svg" xmlns:xlink="http://www.w3.org/1999/xlink" width="16px" height="16px" viewBox="0 0 16 16" version="1.1">
<g id="surface1">
<path style=" stroke:none;fill-rule:evenodd;fill:#ff6666;fill-opacity:1;" d="M 3 1 C 1.890625 1 1 1.890625 1 3 L 1 13 C 1 14.109375 1.890625 15 3 15 L 13 15 C 14.109375 15 15 14.109375 15 13 L 15 3 C 15 1.890625 14.109375 1 13 1 Z M 7.757812 9.34375 C 8.117188 9.34375 8.414062 9.179688 8.644531 8.855469 C 8.878906 8.527344 8.996094 8.160156 8.996094 7.757812 C 8.996094 7.445312 8.921875 7.195312 8.78125 7.011719 C 8.636719 6.828125 8.433594 6.734375 8.175781 6.734375 C 7.816406 6.734375 7.519531 6.886719 7.28125 7.191406 C 7.042969 7.496094 6.925781 7.867188 6.925781 8.296875 C 6.925781 8.609375 7 8.863281 7.152344 9.054688 C 7.304688 9.25 7.507812 9.34375 7.757812 9.34375 Z M 8.09375 12.871094 C 6.632812 12.871094 5.457031 12.453125 4.570312 11.625 C 3.683594 10.796875 3.238281 9.640625 3.238281 8.160156 C 3.238281 6.707031 3.71875 5.507812 4.683594 4.554688 C 5.648438 3.605469 6.828125 3.128906 8.230469 3.128906 C 9.582031 3.128906 10.675781 3.519531 11.511719 4.292969 C 12.34375 5.070312 12.761719 6.027344 12.761719 7.164062 C 12.761719 8.132812 12.5 8.941406 11.976562 9.585938 C 11.449219 10.234375 10.8125 10.554688 10.058594 10.554688 C 9.824219 10.554688 9.609375 10.492188 9.40625 10.359375 C 9.203125 10.230469 9.074219 10.042969 9.023438 9.800781 C 8.707031 10.324219 8.222656 10.582031 7.570312 10.582031 C 6.996094 10.582031 6.527344 10.371094 6.171875 9.949219 C 5.8125 9.527344 5.632812 8.972656 5.632812 8.28125 C 5.632812 7.566406 5.867188 6.921875 6.332031 6.351562 C 6.796875 5.78125 7.390625 5.496094 8.109375 5.496094 C 8.679688 5.496094 9.085938 5.71875 9.316406 6.15625 L 9.414062 5.671875 L 10.675781 5.671875 L 10.234375 8 C 10.117188 8.609375 10.058594 8.996094 10.058594 9.15625 C 10.058594 9.34375 10.132812 9.4375 10.285156 9.4375 C 10.609375 9.4375 10.898438 9.222656 11.15625 8.792969 C 11.410156 8.363281 11.539062 7.828125 11.539062 7.191406 C 11.539062 6.367188 11.253906 5.6875 10.683594 5.148438 C 10.113281 4.609375 9.3125 4.339844 8.28125 4.339844 C 7.1875 4.339844 6.292969 4.703125 5.597656 5.429688 C 4.902344 6.15625 4.554688 7.070312 4.554688 8.175781 C 4.554688 9.277344 4.875 10.132812 5.519531 10.746094 C 6.160156 11.355469 7.035156 11.660156 8.148438 11.660156 C 8.722656 11.660156 9.304688 11.582031 9.898438 11.429688 L 9.558594 12.773438 C 9.121094 12.839844 8.632812 12.871094 8.09375 12.871094 Z M 8.09375 12.871094 "/>
</g>
</svg>
