
<svg xmlns="http://www.w3.org/2000/svg" xmlns:xlink="http://www.w3.org/1999/xlink" width="16px" height="16px" viewBox="0 0 16 16" version="1.1">
<g id="surface1">
<path style=" stroke:none;fill-rule:nonzero;fill:#ff6666;fill-opacity:1;" d="M 6.25 1 L 6.089844 2.839844 C 5.507812 3.058594 4.96875 3.371094 4.488281 3.769531 L 2.808594 2.980469 L 1.058594 6.011719 L 2.578125 7.070312 C 2.527344 7.378906 2.5 7.6875 2.5 8 C 2.5 8.3125 2.527344 8.621094 2.578125 8.929688 L 1.058594 9.980469 L 2.808594 13.011719 L 4.480469 12.21875 C 4.960938 12.617188 5.503906 12.933594 6.089844 13.148438 L 6.25 15 L 9.75 15 L 9.898438 13.148438 C 10.484375 12.933594 11.03125 12.617188 11.511719 12.21875 L 13.191406 13.011719 L 14.941406 9.980469 L 13.410156 8.921875 C 13.464844 8.617188 13.496094 8.308594 13.5 8 C 13.5 7.683594 13.472656 7.371094 13.421875 7.058594 L 14.941406 6.011719 L 13.191406 2.980469 L 11.511719 3.769531 C 11.03125 3.371094 10.484375 3.054688 9.898438 2.839844 L 9.75 1 Z M 8 6 C 9.105469 6 10 6.894531 10 8 C 10 9.105469 9.105469 10 8 10 C 6.894531 10 6 9.105469 6 8 C 6 6.894531 6.894531 6 8 6 Z M 8 6 "/>
</g>
</svg>
