
<svg xmlns="http://www.w3.org/2000/svg" xmlns:xlink="http://www.w3.org/1999/xlink" width="16px" height="16px" viewBox="0 0 16 16" version="1.1">
<g id="surface1">
<path style=" stroke:none;fill-rule:nonzero;fill:#ff6666;fill-opacity:1;" d="M 3 1 C 1.890625 1 1 1.890625 1 3 L 1 6 L 3 6 L 3 3 L 13 3 L 13 13 L 3 13 L 3 10 L 1 10 L 1 13 C 1 14.109375 1.890625 15 3 15 L 13 15 C 14.109375 15 15 14.109375 15 13 L 15 3 C 15 1.890625 14.109375 1 13 1 Z M 3 1 "/>
<path style=" stroke:none;fill-rule:nonzero;fill:#ff6666;fill-opacity:1;" d="M 7.210938 4 L 5.828125 5.386719 L 7.460938 7.019531 L 0 7 L 0 9 L 7.460938 9.019531 L 5.828125 10.65625 L 7.210938 12.039062 L 11.210938 8 Z M 7.210938 4 "/>
</g>
</svg>
