
<svg xmlns="http://www.w3.org/2000/svg" xmlns:xlink="http://www.w3.org/1999/xlink" width="16px" height="16px" viewBox="0 0 16 16" version="1.1">
<g id="surface1">
<path style=" stroke:none;fill-rule:nonzero;fill:#ff6666;fill-opacity:1;" d="M 4.5 11 L 7.5 14 C 7.5 14 8 14.5 8.5 14 L 11.5 11 Z M 4.5 11 "/>
<path style=" stroke:none;fill-rule:nonzero;fill:rgb(10.196079%,83.92157%,67.058825%);fill-opacity:1;" d="M 8.140625 2.015625 C 5.46875 1.972656 2.890625 3.019531 0.988281 4.914062 L 0.289062 5.613281 C -0.101562 6.003906 -0.101562 6.628906 0.289062 7.019531 L 2.390625 9.117188 C 2.78125 9.507812 3.410156 9.507812 3.800781 9.117188 L 5 7.917969 L 5 5.65625 L 5.199219 5.574219 C 6.980469 4.792969 9.019531 4.792969 10.800781 5.585938 L 11 5.660156 L 11 7.917969 L 12.210938 9.117188 C 12.589844 9.507812 13.222656 9.507812 13.609375 9.117188 L 15.710938 7.019531 C 16.101562 6.628906 16.101562 6.003906 15.710938 5.617188 L 15.011719 4.914062 C 13.179688 3.09375 10.722656 2.050781 8.140625 2.015625 Z M 8.140625 2.015625 "/>
</g>
</svg>
