
<svg xmlns="http://www.w3.org/2000/svg" xmlns:xlink="http://www.w3.org/1999/xlink" width="16px" height="16px" viewBox="0 0 16 16" version="1.1">
<g id="surface1">
<path style=" stroke:none;fill-rule:nonzero;fill:#ff6666;fill-opacity:1;" d="M 8 3 C 5.789062 3 4 4.789062 4 7 C 4 9.210938 5.789062 11 8 11 C 8.835938 11 9.652344 10.734375 10.332031 10.246094 L 13.359375 12.765625 C 13.632812 13.007812 14.015625 13.078125 14.355469 12.957031 C 14.699219 12.835938 14.945312 12.539062 15.007812 12.179688 C 15.066406 11.820312 14.925781 11.457031 14.640625 11.234375 L 11.609375 8.710938 C 11.867188 8.175781 12 7.589844 12 7 C 12 4.789062 10.210938 3 8 3 Z M 1 3.003906 L 1 5.003906 L 3 5.003906 L 3 3.003906 Z M 8 5 C 9.105469 5 10 5.894531 10 7 C 10 7.113281 9.988281 7.226562 9.96875 7.339844 C 9.847656 8.042969 9.359375 8.628906 8.6875 8.875 C 8.625 8.898438 8.5625 8.917969 8.5 8.9375 C 8.4375 8.949219 8.378906 8.964844 8.320312 8.972656 C 8.289062 8.976562 8.257812 8.980469 8.226562 8.984375 C 8.1875 8.988281 8.148438 8.992188 8.109375 8.996094 C 8.109375 8.996094 8.105469 8.996094 8.101562 8.996094 C 8.070312 9 8.035156 9 8 9 C 6.894531 9 6 8.105469 6 7 C 6 6.933594 6.003906 6.867188 6.007812 6.800781 C 6.113281 5.777344 6.972656 5 8 5 Z M 1 7.003906 L 1 9.003906 L 3 9.003906 L 3 7.003906 Z M 1 11.003906 L 1 13.003906 L 3 13.003906 L 3 11.003906 Z M 1 11.003906 "/>
</g>
</svg>
