
<svg xmlns="http://www.w3.org/2000/svg" xmlns:xlink="http://www.w3.org/1999/xlink" width="16px" height="16px" viewBox="0 0 16 16" version="1.1">
<g id="surface1">
<path style=" stroke:none;fill-rule:nonzero;fill:#ff6666;fill-opacity:1;" d="M 11.03125 3.03125 C 10.808594 3.078125 10.609375 3.199219 10.46875 3.371094 L 4.191406 10.558594 L 1.941406 8.308594 C 1.558594 7.929688 0.878906 7.929688 0.5 8.308594 C 0.121094 8.691406 0.121094 9.371094 0.5 9.75 L 4.28125 13.5 L 11.96875 4.691406 C 12.53125 4.070312 11.851562 2.859375 11.03125 3.03125 Z M 11.03125 3.03125 "/>
<path style=" stroke:none;fill-rule:nonzero;fill:#ff6666;fill-opacity:1;" d="M 14.75 3.03125 C 14.519531 3.078125 14.300781 3.210938 14.148438 3.398438 L 7.449219 11.058594 L 7.101562 10.71875 L 5.679688 12.339844 L 6.71875 13.398438 L 7.550781 14.199219 L 8.28125 13.328125 L 15.75 4.800781 C 16.359375 4.140625 15.628906 2.851562 14.75 3.03125 Z M 14.75 3.03125 "/>
</g>
</svg>
