
<svg xmlns="http://www.w3.org/2000/svg" xmlns:xlink="http://www.w3.org/1999/xlink" width="16px" height="16px" viewBox="0 0 16 16" version="1.1">
<g id="surface1">
<path style=" stroke:none;fill-rule:nonzero;fill:#ff6666;fill-opacity:1;" d="M 10 11 L 10 9 L 11 9 C 12 9 12 10 12 10 L 12 14 L 14 14 L 14 10 C 14 7 11 7 11 7 L 10 7 L 10 5 L 5.5 8 Z M 10 11 "/>
<path style=" stroke:none;fill-rule:nonzero;fill:#ff6666;fill-opacity:1;" d="M 3 15 C 3 15 2 15 2 14 L 2 2 C 2 1 3 1 3 1 L 13 1 C 13 1 14 1 14 2 L 14 6 L 12 6 L 12 3 L 4 3 L 4 13 L 14 13 L 14 14 C 14 15 13 15 13 15 Z M 3 15 "/>
</g>
</svg>
