
<svg xmlns="http://www.w3.org/2000/svg" xmlns:xlink="http://www.w3.org/1999/xlink" width="16px" height="16px" viewBox="0 0 16 16" version="1.1">
<g id="surface1">
<path style=" stroke:none;fill-rule:nonzero;fill:#ff6666;fill-opacity:1;" d="M 3 15 C 3 15 2 15 2 14 L 2 2 C 2 1 3 1 3 1 L 13 1 C 13 1 14 1 14 2 L 14 6.25 L 12 5 L 12 3.011719 L 4 3.011719 L 4 13 L 12 13 L 12 11 L 14 9.75 L 14 14 C 14 14 14 15 13 15 Z M 3 15 "/>
<path style=" stroke:none;fill-rule:nonzero;fill:#ff6666;fill-opacity:1;" d="M 10 11 L 10 9 L 6 9 L 6 7 L 10 7 L 10 5 L 14.5 8 Z M 10 11 "/>
</g>
</svg>
