
<svg xmlns="http://www.w3.org/2000/svg" xmlns:xlink="http://www.w3.org/1999/xlink" width="16px" height="16px" viewBox="0 0 16 16" version="1.1">
<g id="surface1">
<path style=" stroke:none;fill-rule:nonzero;fill:#ff6666;fill-opacity:1;" d="M 3 15 C 3 15 2 15 2 14 L 2 2 C 2 1 3 1 3 1 L 13 1 C 13 1 14 1 14 2 L 14 6 L 12 6 L 12 3.011719 L 4 3.011719 L 4 13 L 12 13 L 12 10 L 14 10 L 14 14 C 14 15 13 15 13 15 Z M 3 15 "/>
<path style=" stroke:none;fill-rule:nonzero;fill:#ff6666;fill-opacity:1;" d="M 11 11 L 11 9 L 15 9 L 15 7 L 11 7 L 11 5 L 6.5 8 Z M 11 11 "/>
</g>
</svg>
