
<svg xmlns="http://www.w3.org/2000/svg" xmlns:xlink="http://www.w3.org/1999/xlink" width="16px" height="16px" viewBox="0 0 16 16" version="1.1">
<g id="surface1">
<path style=" stroke:none;fill-rule:nonzero;fill:#ff6666;fill-opacity:1;" d="M 6 1 L 6 7 L 3.5 7 L 8 13 L 8 9.144531 C 8 8.507812 8.507812 8 9.144531 8 L 11.75 8 L 12.5 7 L 10 7 L 10 1 Z M 1 14 L 1 16 L 9.144531 16 C 8.507812 16 8 15.492188 8 14.855469 L 8 14 Z M 1 14 "/>
<path style=" stroke:none;fill-rule:nonzero;fill:#ff6666;fill-opacity:1;" d="M 10 9 C 9.445312 9 9 9.445312 9 10 L 9 15 C 9 15.554688 9.445312 16 10 16 L 15 16 C 15.554688 16 16 15.554688 16 15 L 16 10 C 16 9.445312 15.554688 9 15 9 Z M 11 10 L 14 10 L 14 11 L 13 11 L 13 14 L 14 14 L 14 15 L 11 15 L 11 14 L 12 14 L 12 11 L 11 11 Z M 11 10 "/>
</g>
</svg>
