
<svg xmlns="http://www.w3.org/2000/svg" xmlns:xlink="http://www.w3.org/1999/xlink" width="16px" height="16px" viewBox="0 0 16 16" version="1.1">
<g id="surface1">
<path style=" stroke:none;fill-rule:nonzero;fill:#ff6666;fill-opacity:1;" d="M 0 5 L 0 12 L 12 12 Z M 2 8 L 5 10 L 2 10 Z M 2 8 "/>
<path style=" stroke:none;fill-rule:nonzero;fill:#ff6666;fill-opacity:1;" d="M 3 1 C 3 1 2 1 2 2 L 2 4.75 L 4 5.898438 L 4 3 L 12 3 L 12 13 L 2 13 L 2 14 C 2 15 3 15 3 15 L 13 15 C 13 15 14 15 14 14 L 14 2 C 14 1 13 1 13 1 Z M 3 1 "/>
</g>
</svg>
