
<svg xmlns="http://www.w3.org/2000/svg" xmlns:xlink="http://www.w3.org/1999/xlink" width="16px" height="16px" viewBox="0 0 16 16" version="1.1">
<g id="surface1">
<path style=" stroke:none;fill-rule:nonzero;fill:#ff6666;fill-opacity:1;" d="M 2 4 C 1.5 4 1 4.5 1 5 L 1 9 C 1 9.5 1.5 10 2 10 L 3 10 L 3 8 L 7.730469 8 C 8.421875 7.238281 9.402344 6.75 10.5 6.75 C 12.371094 6.75 13.925781 8.152344 14.195312 9.957031 C 14.621094 9.847656 15 9.433594 15 9 L 15 5 C 15 4.5 14.5 4 14 4 Z M 2 4 "/>
<path style=" stroke:none;fill-rule:nonzero;fill:#ff6666;fill-opacity:1;" d="M 4 1 L 4 3 L 12 3 L 12 1 Z M 4 1 "/>
<path style=" stroke:none;fill-rule:nonzero;fill:#ff6666;fill-opacity:1;" d="M 4 9 L 4 14 L 9.195312 14 C 7.773438 13.464844 6.75 12.097656 6.75 10.5 C 6.75 9.96875 6.867188 9.460938 7.070312 9 Z M 4 9 "/>
<path style=" stroke:none;fill-rule:nonzero;fill:#ff6666;fill-opacity:1;" d="M 10.5 7.75 C 8.980469 7.75 7.75 8.980469 7.75 10.5 C 7.75 12.019531 8.980469 13.25 10.5 13.25 C 12.019531 13.25 13.25 12.019531 13.25 10.5 C 13.25 8.980469 12.019531 7.75 10.5 7.75 Z M 10.5 8.75 C 11.464844 8.75 12.25 9.535156 12.25 10.5 C 12.25 11.464844 11.464844 12.25 10.5 12.25 C 9.535156 12.25 8.75 11.464844 8.75 10.5 C 8.75 9.535156 9.535156 8.75 10.5 8.75 Z M 10.5 8.75 "/>
<path style=" stroke:none;fill-rule:nonzero;fill:#ff6666;fill-opacity:1;" d="M 12.976562 11.914062 L 15.097656 14.035156 C 15.488281 14.429688 15.566406 14.980469 15.273438 15.273438 C 14.980469 15.566406 14.429688 15.488281 14.035156 15.097656 L 11.914062 12.976562 C 11.523438 12.582031 11.445312 12.03125 11.738281 11.738281 C 12.03125 11.445312 12.582031 11.523438 12.976562 11.914062 Z M 12.976562 11.914062 "/>
</g>
</svg>
