
<svg xmlns="http://www.w3.org/2000/svg" xmlns:xlink="http://www.w3.org/1999/xlink" width="16px" height="16px" viewBox="0 0 16 16" version="1.1">
<g id="surface1">
<path style=" stroke:none;fill-rule:nonzero;fill:#ff6666;fill-opacity:1;" d="M 12 15 C 12.519531 15 13 14.519531 13 14 L 13 5 L 2 5 L 2 14 C 2 14.519531 2.480469 15 3 15 "/>
<path style=" stroke:none;fill-rule:nonzero;fill:#ff6666;fill-opacity:1;" d="M 1 3 L 1 4 L 14 4 L 14 3 C 14 2 13 2 13 2 L 10 2 C 10 2 10 1 9 1 L 6 1 C 5 1 5 2 5 2 L 2 2 C 2 2 1 2 1 3 Z M 1 3 "/>
</g>
</svg>
