
<svg xmlns="http://www.w3.org/2000/svg" xmlns:xlink="http://www.w3.org/1999/xlink" width="16px" height="16px" viewBox="0 0 16 16" version="1.1">
<g id="surface1">
<path style=" stroke:none;fill-rule:nonzero;fill:#ff6666;fill-opacity:1;" d="M 6.5 1 C 9.53125 1 12.03125 3.46875 12.03125 6.5 C 12.03125 7.648438 11.640625 8.710938 11.03125 9.589844 L 14.839844 13.398438 L 13.429688 14.839844 L 9.621094 11.03125 C 8.738281 11.640625 7.648438 12 6.5 12 C 3.46875 12 1 9.53125 1 6.5 C 1 3.46875 3.46875 1 6.5 1 Z M 6.5 3 C 4.550781 3 3 4.558594 3 6.5 C 3 8.441406 4.550781 10 6.5 10 C 8.449219 10 10 8.441406 10 6.5 C 10 4.558594 8.449219 3 6.5 3 Z M 6.5 3 "/>
</g>
</svg>
