
<svg xmlns="http://www.w3.org/2000/svg" xmlns:xlink="http://www.w3.org/1999/xlink" width="16px" height="16px" viewBox="0 0 16 16" version="1.1">
<g id="surface1">
<path style=" stroke:none;fill-rule:nonzero;fill:#ff6666;fill-opacity:1;" d="M 4.5 2 C 3.121094 2 2 3.121094 2 4.5 C 2 5.878906 3.121094 7 4.5 7 C 4.949219 7 5.359375 6.859375 5.71875 6.660156 L 7.691406 8.5 L 5.71875 10.339844 C 5.359375 10.140625 4.949219 10 4.5 10 C 3.121094 10 2 11.121094 2 12.5 C 2 13.878906 3.121094 15 4.5 15 C 5.878906 15 7 13.878906 7 12.5 C 7 12.269531 6.960938 12.058594 6.910156 11.839844 L 9.03125 9.78125 L 13.5 14 L 15 14 L 15 13 L 6.910156 5.160156 C 6.960938 4.949219 7 4.730469 7 4.5 C 7 3.121094 5.878906 2 4.5 2 Z M 4.5 3.5 C 5.050781 3.5 5.5 3.949219 5.5 4.5 C 5.5 5.050781 5.050781 5.5 4.5 5.5 C 3.949219 5.5 3.5 5.050781 3.5 4.5 C 3.5 3.949219 3.949219 3.5 4.5 3.5 Z M 13.5 3 L 9.558594 6.71875 L 10.878906 8 L 15 4 L 15 3 Z M 4.5 11.5 C 5.050781 11.5 5.5 11.949219 5.5 12.5 C 5.5 13.050781 5.050781 13.5 4.5 13.5 C 3.949219 13.5 3.5 13.050781 3.5 12.5 C 3.5 11.949219 3.949219 11.5 4.5 11.5 Z M 4.5 11.5 "/>
</g>
</svg>
