
<svg xmlns="http://www.w3.org/2000/svg" xmlns:xlink="http://www.w3.org/1999/xlink" width="16px" height="16px" viewBox="0 0 16 16" version="1.1">
<g id="surface1">
<path style=" stroke:none;fill-rule:nonzero;fill:#ff6666;fill-opacity:1;" d="M 5 2 L 0 8 L 5 14 L 16 14 L 16 2 Z M 7 5 L 8 5 C 8.28125 5 8.53125 5.109375 8.710938 5.289062 L 10 6.589844 L 11.289062 5.289062 C 11.46875 5.109375 11.71875 5 12 5 L 13 5 L 13 6 C 13 6.28125 12.890625 6.53125 12.710938 6.710938 L 11.410156 8 L 12.710938 9.289062 C 12.890625 9.46875 13 9.71875 13 10 L 13 11 L 12 11 C 11.71875 11 11.46875 10.890625 11.289062 10.710938 L 10 9.410156 L 8.710938 10.710938 C 8.53125 10.890625 8.28125 11 8 11 L 7 11 L 7 10 C 7 9.71875 7.109375 9.46875 7.289062 9.289062 L 8.589844 8 L 7.289062 6.710938 C 7.109375 6.53125 7 6.28125 7 6 Z M 7 5 "/>
</g>
</svg>
