
<svg xmlns="http://www.w3.org/2000/svg" xmlns:xlink="http://www.w3.org/1999/xlink" width="16px" height="16px" viewBox="0 0 16 16" version="1.1">
<g id="surface1">
<path style=" stroke:none;fill-rule:nonzero;fill:#ff6666;fill-opacity:1;" d="M 6.5 1 C 3.46875 1 1 3.46875 1 6.5 C 1 7.738281 1.417969 8.878906 2.109375 9.800781 L 3.542969 8.359375 C 3.203125 7.820312 3 7.191406 3 6.5 C 3 4.558594 4.550781 3 6.5 3 C 7.191406 3 7.824219 3.199219 8.363281 3.539062 L 9.800781 2.101562 C 8.875 1.410156 7.734375 1 6.5 1 Z M 11.265625 9.828125 L 9.839844 11.25 L 13.429688 14.839844 L 14.839844 13.398438 Z M 11.265625 9.828125 "/>
<path style=" stroke:none;fill-rule:nonzero;fill:#ff6666;fill-opacity:1;" d="M 2 11.320312 L 2 14 L 4.671875 14 L 11.421875 7.25 L 8.75 4.570312 Z M 13.789062 4.890625 C 14.070312 4.609375 14.070312 4.160156 13.789062 3.878906 L 12.121094 2.210938 C 11.828125 1.929688 11.390625 1.929688 11.109375 2.210938 L 9.710938 3.609375 L 12.378906 6.289062 Z M 13.789062 4.890625 "/>
</g>
</svg>
