
<svg xmlns="http://www.w3.org/2000/svg" xmlns:xlink="http://www.w3.org/1999/xlink" width="16px" height="16px" viewBox="0 0 16 16" version="1.1">
<g id="surface1">
<path style=" stroke:none;fill-rule:nonzero;fill:#ff6666;fill-opacity:1;" d="M 2 1 C 2 1 1 1.019531 1 2 L 1 3 L 3 3 L 3 1 Z M 5 1 L 5 3 L 7 3 L 7 1 Z M 9 1 L 9 3 L 11 3 L 11 1 Z M 13 1 L 13 3 L 15 3 L 15 2 C 15 1.019531 14 1 14 1 Z M 1 5 L 1 7 L 3 7 L 3 5 Z M 5 5 L 5 11 L 11 11 L 11 5 Z M 13 5 L 13 7 L 15 7 L 15 5 Z M 1 9 L 1 11 L 3 11 L 3 9 Z M 13 9 L 13 11 L 15 11 L 15 9 Z M 1 13 L 1 14 C 1 14.980469 2 15 2 15 L 3 15 L 3 13 Z M 5 13 L 5 15 L 7 15 L 7 13 Z M 9 13 L 9 15 L 11 15 L 11 13 Z M 13 13 L 13 15 L 14 15 C 14 15 15 14.980469 15 14 L 15 13 Z M 13 13 "/>
</g>
</svg>
