
<svg xmlns="http://www.w3.org/2000/svg" xmlns:xlink="http://www.w3.org/1999/xlink" width="16px" height="16px" viewBox="0 0 16 16" version="1.1">
<g id="surface1">
<path style=" stroke:none;fill-rule:nonzero;fill:#ff6666;fill-opacity:1;" d="M 8 1 C 4.132812 1 1 4.132812 1 8 C 1 11.867188 4.132812 15 8 15 C 11.867188 15 15 11.867188 15 8 C 15 4.132812 11.867188 1 8 1 Z M 5 5 L 6 5 C 6.28125 5 6.539062 5.101562 6.71875 5.28125 L 8 6.558594 L 9.28125 5.28125 C 9.460938 5.101562 9.71875 5 10 5 L 11 5 L 11 6 C 11 6.277344 10.902344 6.539062 10.722656 6.71875 L 9.441406 8 L 10.722656 9.28125 C 10.902344 9.460938 11 9.722656 11 10 L 11 11 L 10 11 C 9.71875 11 9.460938 10.898438 9.28125 10.71875 L 8 9.433594 L 6.71875 10.71875 C 6.539062 10.898438 6.28125 11 6 11 L 5 11 L 5 10 C 5 9.722656 5.097656 9.460938 5.28125 9.28125 L 6.558594 8 L 5.28125 6.71875 C 5.097656 6.539062 5 6.277344 5 6 Z M 5 5 "/>
</g>
</svg>
