
<svg xmlns="http://www.w3.org/2000/svg" xmlns:xlink="http://www.w3.org/1999/xlink" width="16px" height="16px" viewBox="0 0 16 16" version="1.1">
<g id="surface1">
<path style=" stroke:none;fill-rule:nonzero;fill:#ff6666;fill-opacity:1;" d="M 2.90625 1.035156 C 2.40625 1.078125 2.070312 1.515625 1.96875 1.972656 C 1.675781 2.863281 1.375 3.765625 1.09375 4.660156 L 1 5.035156 L 1 13.035156 C 1 13.589844 1.445312 14.035156 2 14.035156 L 14 14.035156 C 14.554688 14.035156 15 13.589844 15 13.035156 L 15 5.035156 L 14.875 4.566406 C 14.535156 3.578125 14.230469 2.546875 13.875 1.566406 C 13.660156 1.128906 13.171875 0.988281 12.71875 1.035156 Z M 3.722656 3.035156 L 12.257812 3.035156 C 12.367188 3.359375 12.480469 3.703125 12.589844 4.035156 L 3.398438 4.035156 C 3.507812 3.703125 3.613281 3.371094 3.722656 3.035156 Z M 8 6.035156 L 10.75 9.035156 L 9 9.035156 L 9 12.035156 L 7 12.035156 L 7 9.035156 L 5.25 9.035156 Z M 8 6.035156 "/>
</g>
</svg>
