
<svg xmlns="http://www.w3.org/2000/svg" xmlns:xlink="http://www.w3.org/1999/xlink" width="16px" height="16px" viewBox="0 0 16 16" version="1.1">
<g id="surface1">
<path style=" stroke:none;fill-rule:nonzero;fill:#ff6666;fill-opacity:1;" d="M 2 2 C 2 2 0 2 0 4 L 0 12 C 0 14 2 14 2 14 L 13 14 C 13 14 15 14 15 12 L 15 4 C 15 2 13 2 13 2 Z M 2.25 4 L 3.75 4 C 3.886719 4 4 4.113281 4 4.25 L 4 5.75 C 4 5.886719 3.886719 6 3.75 6 L 2.25 6 C 2.113281 6 2 5.886719 2 5.75 L 2 4.25 C 2 4.113281 2.113281 4 2.25 4 Z M 5.25 4 L 6.75 4 C 6.886719 4 7 4.113281 7 4.25 L 7 5.75 C 7 5.886719 6.886719 6 6.75 6 L 5.25 6 C 5.113281 6 5 5.886719 5 5.75 L 5 4.25 C 5 4.113281 5.113281 4 5.25 4 Z M 8.25 4 L 9.75 4 C 9.886719 4 10 4.113281 10 4.25 L 10 5.75 C 10 5.886719 9.886719 6 9.75 6 L 8.25 6 C 8.113281 6 8 5.886719 8 5.75 L 8 4.25 C 8 4.113281 8.113281 4 8.25 4 Z M 11.25 4 L 12.75 4 C 12.886719 4 13 4.113281 13 4.25 L 13 5.75 C 13 5.886719 12.886719 6 12.75 6 L 11.25 6 C 11.113281 6 11 5.886719 11 5.75 L 11 4.25 C 11 4.113281 11.113281 4 11.25 4 Z M 2.25 7 L 3.75 7 C 3.886719 7 4 7.113281 4 7.25 L 4 8.75 C 4 8.886719 3.886719 9 3.75 9 L 2.25 9 C 2.113281 9 2 8.886719 2 8.75 L 2 7.25 C 2 7.113281 2.113281 7 2.25 7 Z M 5.25 7 L 6.75 7 C 6.886719 7 7 7.113281 7 7.25 L 7 8.75 C 7 8.886719 6.886719 9 6.75 9 L 5.25 9 C 5.113281 9 5 8.886719 5 8.75 L 5 7.25 C 5 7.113281 5.113281 7 5.25 7 Z M 8.25 7 L 9.75 7 C 9.886719 7 10 7.113281 10 7.25 L 10 8.75 C 10 8.886719 9.886719 9 9.75 9 L 8.25 9 C 8.113281 9 8 8.886719 8 8.75 L 8 7.25 C 8 7.113281 8.113281 7 8.25 7 Z M 11.25 7 L 12.75 7 C 12.886719 7 13 7.113281 13 7.25 L 13 8.75 C 13 8.886719 12.886719 9 12.75 9 L 11.25 9 C 11.113281 9 11 8.886719 11 8.75 L 11 7.25 C 11 7.113281 11.113281 7 11.25 7 Z M 4.25 10 L 10.75 10 C 10.886719 10 11 10.113281 11 10.25 L 11 11.75 C 11 11.886719 10.886719 12 10.75 12 L 4.25 12 C 4.113281 12 4 11.886719 4 11.75 L 4 10.25 C 4 10.113281 4.113281 10 4.25 10 Z M 4.25 10 "/>
</g>
</svg>
