
<svg xmlns="http://www.w3.org/2000/svg" xmlns:xlink="http://www.w3.org/1999/xlink" width="16px" height="16px" viewBox="0 0 16 16" version="1.1">
<g id="surface1">
<path style=" stroke:none;fill-rule:nonzero;fill:#ff6666;fill-opacity:1;" d="M 7 1 L 7 3.089844 C 5.050781 3.488281 3.488281 5.050781 3.089844 7 L 1 7 L 1 9 L 3.089844 9 C 3.488281 10.949219 5.050781 12.511719 7 12.910156 L 7 15 L 9 15 L 9 12.910156 C 10.949219 12.511719 12.511719 10.949219 12.910156 9 L 15 9 L 15 7 L 12.910156 7 C 12.511719 5.050781 10.949219 3.488281 9 3.089844 L 9 1 Z M 8 6 C 9.101562 6 10 6.898438 10 8 C 10 9.101562 9.101562 10 8 10 C 6.898438 10 6 9.101562 6 8 C 6 6.898438 6.898438 6 8 6 Z M 8 6 "/>
</g>
</svg>
