
<svg xmlns="http://www.w3.org/2000/svg" xmlns:xlink="http://www.w3.org/1999/xlink" width="16px" height="16px" viewBox="0 0 16 16" version="1.1">
<g id="surface1">
<path style=" stroke:none;fill-rule:nonzero;fill:#ff6666;fill-opacity:1;" d="M 16 5 L 16 11 L 12 8 Z M 16 5 "/>
<path style=" stroke:none;fill-rule:nonzero;fill:#ff6666;fill-opacity:1;" d="M 11 5 C 11 4 10 3.011719 9 3 L 6 3 L 6 5 L 9 5 L 9 6 L 8 6 C 6 6 5 7.5 5 8.5 C 5 9.5 6 11 8 11 L 11 11 M 8 8 L 9 8 L 9 9 L 8 9 C 7 9 7 8.621094 7 8.5 C 7 8.378906 7 8 8 8 Z M 8 8 "/>
<path style=" stroke:none;fill-rule:nonzero;fill:#ff6666;fill-opacity:1;" d="M 0 5 L 0 11 L 4 8 Z M 0 5 "/>
</g>
</svg>
