
<svg xmlns="http://www.w3.org/2000/svg" xmlns:xlink="http://www.w3.org/1999/xlink" width="16px" height="16px" viewBox="0 0 16 16" version="1.1">
<g id="surface1">
<path style=" stroke:none;fill-rule:nonzero;fill:#ff6666;fill-opacity:1;" d="M 4 3 L 4 5 L 10 5 C 10.429688 5 11 5.609375 11 6 L 13 6 C 13 4.371094 11.679688 3 10 3 Z M 3 10 C 3 10.71875 3.269531 11.449219 3.78125 12.027344 C 4.289062 12.609375 5.089844 13 6 13 L 13 13 L 13 10 L 11 10 L 11 11 L 6 11 C 5.601562 11 5.429688 10.890625 5.28125 10.722656 C 5.128906 10.550781 5 10.28125 5 10 Z M 3 10 "/>
<path style=" stroke:none;fill-rule:nonzero;fill:#ff6666;fill-opacity:1;" d="M 1 7 L 1 9 L 15 9 L 15 7 Z M 1 7 "/>
</g>
</svg>
