
<svg xmlns="http://www.w3.org/2000/svg" xmlns:xlink="http://www.w3.org/1999/xlink" width="16px" height="16px" viewBox="0 0 16 16" version="1.1">
<g id="surface1">
<path style=" stroke:none;fill-rule:nonzero;fill:#ff6666;fill-opacity:1;" d="M 5.953125 3 L 5.171875 5 L 11.171875 5 C 11.601562 5 11.933594 5.609375 11.78125 6 L 11.390625 7 L 6.390625 7 C 5.472656 7 4.503906 7.378906 3.761719 7.96875 C 3.023438 8.550781 2.5 9.28125 2.21875 10 C 1.9375 10.71875 1.921875 11.449219 2.203125 12.03125 C 2.488281 12.609375 3.136719 13 4.046875 13 L 11.046875 13 L 13.78125 6 C 14.417969 4.371094 13.632812 3 11.953125 3 Z M 5.609375 9 L 10.609375 9 L 9.828125 11 L 4.828125 11 C 4.425781 11 4.300781 10.890625 4.21875 10.71875 C 4.132812 10.550781 4.109375 10.28125 4.21875 10 C 4.328125 9.71875 4.53125 9.449219 4.75 9.28125 C 4.960938 9.121094 5.1875 9 5.609375 9 Z M 5.609375 9 "/>
</g>
</svg>
