
<svg xmlns="http://www.w3.org/2000/svg" xmlns:xlink="http://www.w3.org/1999/xlink" width="16px" height="16px" viewBox="0 0 16 16" version="1.1">
<g id="surface1">
<path style=" stroke:none;fill-rule:nonzero;fill:#ff6666;fill-opacity:1;" d="M 11 3 C 11 1.371094 9.679688 0 8 0 L 2 0 L 2 2 L 8 2 C 8.429688 2 9 2.609375 9 3 L 9 4 L 4 4 C 3.078125 4 2.261719 4.378906 1.75 4.96875 C 1.238281 5.550781 1 6.28125 1 7 C 1 7.71875 1.269531 8.449219 1.78125 9.03125 C 2.289062 9.609375 3.089844 10 4 10 L 11 10 M 4 6 L 9 6 L 9 8 L 4 8 C 3.601562 8 3.429688 7.890625 3.28125 7.71875 C 3.128906 7.550781 3 7.28125 3 7 C 3 6.71875 3.101562 6.449219 3.25 6.28125 C 3.398438 6.121094 3.578125 6 4 6 Z M 4 6 "/>
<path style=" stroke:none;fill-rule:nonzero;fill:#ff6666;fill-opacity:1;" d="M 12 15 L 16 12 L 12 9 C 12 9 12 15 12 15 Z M 12 15 "/>
<path style=" stroke:none;fill-rule:nonzero;fill:#ff6666;fill-opacity:1;" d="M 1 11 L 1 13 L 14 13 L 14 11 Z M 1 11 "/>
</g>
</svg>
