
<svg xmlns="http://www.w3.org/2000/svg" xmlns:xlink="http://www.w3.org/1999/xlink" width="16px" height="16px" viewBox="0 0 16 16" version="1.1">
<g id="surface1">
<path style=" stroke:none;fill-rule:nonzero;fill:#ff6666;fill-opacity:1;" d="M 14 6 C 14 4.371094 12.679688 3 11 3 L 4 3 L 4 5 L 9 5 C 9.429688 5 10 5.609375 10 6 L 10 7 L 5 7 C 4.078125 7 3.261719 7.378906 2.75 7.96875 C 2.238281 8.550781 1.988281 9.28125 2 10 C 2.011719 10.71875 2.269531 11.449219 2.78125 12.03125 C 3.289062 12.609375 4.089844 13 5 13 L 14 13 M 7 9 L 10 9 L 10 11 L 7 11 C 6.601562 11 6.429688 10.890625 6.28125 10.71875 C 6.128906 10.550781 6 10.28125 6 10 C 6 9.71875 6.101562 9.449219 6.25 9.28125 C 6.398438 9.121094 6.578125 9 7 9 Z M 7 9 "/>
</g>
</svg>
