
<svg xmlns="http://www.w3.org/2000/svg" xmlns:xlink="http://www.w3.org/1999/xlink" width="16px" height="16px" viewBox="0 0 16 16" version="1.1">
<g id="surface1">
<path style=" stroke:none;fill-rule:nonzero;fill:#ff6666;fill-opacity:1;" d="M 2.5 1 L 15 13.5 L 13.5 15 L 1 2.5 Z M 2.5 1 "/>
<path style=" stroke:none;fill-rule:nonzero;fill:#ff6666;fill-opacity:1;" d="M 6.5 3 L 8.5 5 L 10 5 C 10.429688 5 11 5.609375 11 6 L 11 7 L 10.5 7 L 13 9.5 L 13 6 C 13 4.371094 11.679688 3 10 3 Z M 6.5 3 "/>
<path style=" stroke:none;fill-rule:nonzero;fill:#ff6666;fill-opacity:1;" d="M 6 7 C 5.078125 7 4.261719 7.378906 3.75 7.96875 C 3.238281 8.550781 3 9.28125 3 10 C 3 10.71875 3.269531 11.449219 3.78125 12.027344 C 4.289062 12.609375 5.089844 13 6 13 L 13 13 L 13 12.5 L 11 10.5 L 11 11 L 6 11 C 5.601562 11 5.429688 10.890625 5.28125 10.722656 C 5.128906 10.550781 5 10.28125 5 10 C 5 9.71875 5.101562 9.449219 5.25 9.28125 C 5.398438 9.121094 5.578125 9 6 9 L 9.5 9 L 7.5 7 Z M 6 7 "/>
</g>
</svg>
