
<svg xmlns="http://www.w3.org/2000/svg" xmlns:xlink="http://www.w3.org/1999/xlink" width="16px" height="16px" viewBox="0 0 16 16" version="1.1">
<g id="surface1">
<path style=" stroke:none;fill-rule:nonzero;fill:#ff6666;fill-opacity:1;" d="M 13 5 C 13 3.371094 11.679688 2 10 2 L 4 2 L 4 4 L 10 4 C 10.429688 4 11 4.609375 11 5 L 11 6 L 6 6 C 5.078125 6 4.261719 6.378906 3.75 6.96875 C 3.238281 7.550781 3 8.28125 3 9 C 3 9.71875 3.269531 10.449219 3.78125 11.03125 C 4.289062 11.609375 5.089844 12 6 12 L 13 12 M 6 8 L 11 8 L 11 10 L 6 10 C 5.601562 10 5.429688 9.890625 5.28125 9.71875 C 5.128906 9.550781 5 9.28125 5 9 C 5 8.71875 5.101562 8.449219 5.25 8.28125 C 5.398438 8.121094 5.578125 8 6 8 Z M 6 8 "/>
<path style=" stroke:none;fill-rule:nonzero;fill:#ff6666;fill-opacity:1;" d="M 2 13 L 2 15 L 14 15 L 14 13 Z M 2 13 "/>
</g>
</svg>
