
<svg xmlns="http://www.w3.org/2000/svg" xmlns:xlink="http://www.w3.org/1999/xlink" width="16px" height="16px" viewBox="0 0 16 16" version="1.1">
<g id="surface1">
<path style=" stroke:none;fill-rule:nonzero;fill:#ff6666;fill-opacity:1;" d="M 1 1 L 3 1 L 3 3 L 1 3 Z M 1 1 "/>
<path style=" stroke:none;fill-rule:nonzero;fill:#ff6666;fill-opacity:1;" d="M 3 1 L 5 1 L 5 3 L 3 3 Z M 3 1 "/>
<path style=" stroke:none;fill-rule:nonzero;fill:#ff6666;fill-opacity:1;" d="M 5 1 L 7 1 L 7 3 L 5 3 Z M 5 1 "/>
<path style=" stroke:none;fill-rule:nonzero;fill:#ff6666;fill-opacity:1;" d="M 5 3 L 7 3 L 7 5 L 5 5 Z M 5 3 "/>
<path style=" stroke:none;fill-rule:nonzero;fill:#ff6666;fill-opacity:1;" d="M 3 5 L 5 5 L 5 7 L 3 7 Z M 3 5 "/>
<path style=" stroke:none;fill-rule:nonzero;fill:#ff6666;fill-opacity:1;" d="M 1 7 L 3 7 L 3 9 L 1 9 Z M 1 7 "/>
<path style=" stroke:none;fill-rule:nonzero;fill:#ff6666;fill-opacity:1;" d="M 3 9 L 5 9 L 5 11 L 3 11 Z M 3 9 "/>
<path style=" stroke:none;fill-rule:nonzero;fill:#ff6666;fill-opacity:1;" d="M 5 7 L 7 7 L 7 9 L 5 9 Z M 5 7 "/>
<path style=" stroke:none;fill-rule:nonzero;fill:#ff6666;fill-opacity:1;" d="M 7 5 L 9 5 L 9 7 L 7 7 Z M 7 5 "/>
<path style=" stroke:none;fill-rule:nonzero;fill:#ff6666;fill-opacity:1;" d="M 9 5 L 11 5 L 11 7 L 9 7 Z M 9 5 "/>
<path style=" stroke:none;fill-rule:nonzero;fill:#ff6666;fill-opacity:1;" d="M 9 1 L 11 1 L 11 3 L 9 3 Z M 9 1 "/>
<path style=" stroke:none;fill-rule:nonzero;fill:#ff6666;fill-opacity:1;" d="M 11 3 L 13 3 L 13 5 L 11 5 Z M 11 3 "/>
<path style=" stroke:none;fill-rule:nonzero;fill:#ff6666;fill-opacity:1;" d="M 11 9 L 13 9 L 13 11 L 11 11 Z M 11 9 "/>
<path style=" stroke:none;fill-rule:nonzero;fill:#ff6666;fill-opacity:1;" d="M 7 11 L 9 11 L 9 13 L 7 13 Z M 7 11 "/>
<path style=" stroke:none;fill-rule:nonzero;fill:#ff6666;fill-opacity:1;" d="M 9 13 L 11 13 L 11 15 L 9 15 Z M 9 13 "/>
<path style=" stroke:none;fill-rule:nonzero;fill:#ff6666;fill-opacity:1;" d="M 3 13 L 5 13 L 5 15 L 3 15 Z M 3 13 "/>
<path style=" stroke:none;fill-rule:nonzero;fill:#ff6666;fill-opacity:1;" d="M 13 11 L 15 11 L 15 13 L 13 13 Z M 13 11 "/>
<path style=" stroke:none;fill-rule:nonzero;fill:#ff6666;fill-opacity:1;" d="M 13 13 L 15 13 L 15 15 L 13 15 Z M 13 13 "/>
<path style=" stroke:none;fill-rule:nonzero;fill:#ff6666;fill-opacity:1;" d="M 13 13 L 15 13 L 15 15 L 13 15 Z M 13 13 "/>
</g>
</svg>
