
<svg xmlns="http://www.w3.org/2000/svg" xmlns:xlink="http://www.w3.org/1999/xlink" width="16px" height="16px" viewBox="0 0 16 16" version="1.1">
<g id="surface1">
<path style=" stroke:none;fill-rule:nonzero;fill:#ff6666;fill-opacity:1;" d="M 8 3 C 7.507812 3 7.046875 3.046875 6.609375 3.109375 L 8.5625 5.0625 C 9.773438 5.292969 10.722656 6.238281 10.949219 7.453125 L 14.113281 10.613281 C 15.460938 9.328125 16 8 16 8 C 16 8 14 3 8 3 Z M 4.273438 3.773438 C 1.148438 5.160156 0 8 0 8 C 0 8 2 13 8 13 C 9.820312 13 11.265625 12.53125 12.398438 11.898438 L 10.355469 9.855469 C 9.785156 10.578125 8.917969 11 8 11 C 6.34375 11 5 9.65625 5 8 C 5 7.082031 5.421875 6.210938 6.144531 5.644531 Z M 4.273438 3.773438 "/>
<path style=" stroke:none;fill-rule:nonzero;fill:#ff6666;fill-opacity:1;" d="M 2.5 1 L 15 13.5 L 13.5 15 L 1 2.5 Z M 2.5 1 "/>
</g>
</svg>
