
<svg xmlns="http://www.w3.org/2000/svg" xmlns:xlink="http://www.w3.org/1999/xlink" width="16px" height="16px" viewBox="0 0 16 16" version="1.1">
<g id="surface1">
<path style=" stroke:none;fill-rule:nonzero;fill:#ff6666;fill-opacity:1;" d="M 1 8 L 1 9 L 2 9 L 2 8 Z M 3 8 L 3 9 L 4 9 L 4 8 Z M 5 8 L 5 9 L 6 9 L 6 8 Z M 7 8 L 7 9 L 8 9 L 8 8 Z M 9 8 L 9 9 L 10 9 L 10 8 Z M 11 8 L 11 9 L 12 9 L 12 8 Z M 13 8 L 13 9 L 14 9 L 14 8 Z M 15 8 L 15 9 L 16 9 L 16 8 Z M 15 8 "/>
<path style=" stroke:none;fill-rule:nonzero;fill:#ff6666;fill-opacity:1;" d="M 12.964844 0.996094 C 12.867188 0.996094 12.808594 1.007812 12.808594 1.007812 L 1.007812 3.195312 C 0.0234375 3.375 0.207031 4.359375 0.207031 4.359375 L 0.695312 7 L 3.804688 7 L 4.914062 5.074219 L 7.375 7 L 9.675781 7 L 10.570312 5.746094 L 12.398438 7 L 14.9375 7 L 13.972656 1.808594 C 13.835938 1.070312 13.246094 0.988281 12.964844 0.996094 Z M 1.25 10 L 2.027344 14.191406 C 2.210938 15.175781 3.191406 14.992188 3.191406 14.992188 L 14.992188 12.808594 C 14.992188 12.808594 15.976562 12.625 15.796875 11.640625 L 15.488281 10 L 13.453125 10 L 13.644531 11.019531 L 3.8125 12.84375 L 3.285156 10 Z M 1.25 10 "/>
</g>
</svg>
