
<svg xmlns="http://www.w3.org/2000/svg" xmlns:xlink="http://www.w3.org/1999/xlink" width="16px" height="16px" viewBox="0 0 16 16" version="1.1">
<g id="surface1">
<path style=" stroke:none;fill-rule:nonzero;fill:#ff6666;fill-opacity:1;" d="M 6 1 C 4.53125 1 3.25 1.808594 2.558594 3 L 13.4375 3 C 12.75 1.808594 11.46875 1 10 1 Z M 0 4 L 0 6 L 4 6 C 4 6 5 6 5 5 C 5 4 4 4 4 4 Z M 12 4 C 12 4 11 4 11 5 C 11 6 12 6 12 6 L 16 6 L 16 4 Z M 2.558594 7 C 3.25 8.191406 4.53125 9 6 9 L 10 9 C 11.46875 9 12.75 8.191406 13.4375 7 Z M 5 12 L 8 16 L 11 12 Z M 5 12 "/>
</g>
</svg>
