
<svg xmlns="http://www.w3.org/2000/svg" xmlns:xlink="http://www.w3.org/1999/xlink" width="16px" height="16px" viewBox="0 0 16 16" version="1.1">
<g id="surface1">
<path style=" stroke:none;fill-rule:nonzero;fill:#ff6666;fill-opacity:1;" d="M 5 12 L 8 16 L 11 12 Z M 5 12 "/>
<path style=" stroke:none;fill-rule:nonzero;fill:#ff6666;fill-opacity:1;" d="M 14 6.5 C 14 5.683594 13.339844 5 12.5 5 L 9.5 5 L 9.5 6 L 12.5 6 C 12.714844 6 13 6.304688 13 6.5 L 13 7 L 10.5 7 C 10.039062 7 9.628906 7.191406 9.375 7.484375 C 9.121094 7.773438 9 8.140625 9 8.5 C 9 8.859375 9.136719 9.226562 9.390625 9.515625 C 9.644531 9.804688 10.046875 10 10.5 10 L 14 10 M 10.5 8 L 13 8 L 13 9 L 10.5 9 C 10.300781 9 10.214844 8.945312 10.140625 8.859375 C 10.066406 8.773438 10 8.640625 10 8.5 C 10 8.359375 10.050781 8.226562 10.125 8.140625 C 10.199219 8.058594 10.289062 8 10.5 8 Z M 10.5 8 "/>
<path style=" stroke:none;fill-rule:nonzero;fill:#ff6666;fill-opacity:1;" d="M 4.367188 2 L 1.457031 10 L 2.921875 10 L 3.640625 8 L 6.1875 8 L 6.914062 10 L 8.371094 10 L 5.460938 2 Z M 4.914062 4.5 L 5.824219 7 L 4.003906 7 Z M 4.914062 4.5 "/>
</g>
</svg>
