
<svg xmlns="http://www.w3.org/2000/svg" xmlns:xlink="http://www.w3.org/1999/xlink" width="16px" height="16px" viewBox="0 0 16 16" version="1.1">
<g id="surface1">
<path style=" stroke:none;fill-rule:nonzero;fill:#ff6666;fill-opacity:1;" d="M 4 2 L 4 4 L 11 4 C 12.679688 4 14 5.320312 14 7 C 14 8.679688 12.679688 10 11 10 L 10 10 L 10 8 L 5 11 L 10 14 L 10 12 L 11 12 C 13.75 12.101562 16 9.753906 16 7 C 16 4.246094 13.75 2 11 2 Z M 2 9 C 0.894531 9 0 9.894531 0 11 C 0 12.105469 0.894531 13 2 13 C 3.105469 13 4 12.105469 4 11 C 4 9.894531 3.105469 9 2 9 Z M 2 9 "/>
</g>
</svg>
