
<svg xmlns="http://www.w3.org/2000/svg" xmlns:xlink="http://www.w3.org/1999/xlink" width="16px" height="16px" viewBox="0 0 16 16" version="1.1">
<g id="surface1">
<path style=" stroke:none;fill-rule:nonzero;fill:#ff6666;fill-opacity:1;" d="M 8 15.5 L 5 12 L 7 12 L 7 10 L 9 10 L 9 12 L 11 12 Z M 8 15.5 "/>
<path style=" stroke:none;fill-rule:nonzero;fill:#ff6666;fill-opacity:1;" d="M 8 0.5 L 5 4 L 7 4 L 7 6 L 9 6 L 9 4 L 11 4 Z M 8 0.5 "/>
<path style=" stroke:none;fill-rule:nonzero;fill:#ff6666;fill-opacity:1;" d="M 15.5 8 L 12 5 L 12 7 L 10 7 L 10 9 L 12 9 L 12 11 Z M 15.5 8 "/>
<path style=" stroke:none;fill-rule:nonzero;fill:#ff6666;fill-opacity:1;" d="M 0.5 8 L 4 5 L 4 7 L 6 7 L 6 9 L 4 9 L 4 11 Z M 0.5 8 "/>
</g>
</svg>
