
<svg xmlns="http://www.w3.org/2000/svg" xmlns:xlink="http://www.w3.org/1999/xlink" width="16px" height="16px" viewBox="0 0 16 16" version="1.1">
<g id="surface1">
<path style=" stroke:none;fill-rule:nonzero;fill:#ff6666;fill-opacity:1;" d="M 11.878906 1.21875 L 2.03125 2.96875 C 1.050781 3.140625 1.21875 4.121094 1.21875 4.121094 L 1.71875 7 L 13.910156 7 L 13.03125 2.03125 C 12.859375 1.050781 11.878906 1.21875 11.878906 1.21875 Z M 2.25 10 L 2.96875 13.96875 C 3.140625 14.949219 4.128906 14.78125 4.128906 14.78125 L 13.96875 13.03125 C 13.96875 13.03125 14.960938 12.859375 14.78125 11.871094 L 14.441406 10 Z M 2.25 10 "/>
<path style=" stroke:none;fill-rule:nonzero;fill:#ff6666;fill-opacity:1;" d="M 1 8 L 1 9 L 2 9 L 2 8 Z M 3 8 L 3 9 L 4 9 L 4 8 Z M 5 8 L 5 9 L 6 9 L 6 8 Z M 7 8 L 7 9 L 8 9 L 8 8 Z M 9 8 L 9 9 L 10 9 L 10 8 Z M 11 8 L 11 9 L 12 9 L 12 8 Z M 13 8 L 13 9 L 14 9 L 14 8 Z M 15 8 L 15 9 L 16 9 L 16 8 Z M 15 8 "/>
</g>
</svg>
