
<svg xmlns="http://www.w3.org/2000/svg" xmlns:xlink="http://www.w3.org/1999/xlink" width="16px" height="16px" viewBox="0 0 16 16" version="1.1">
<g id="surface1">
<path style=" stroke:none;fill-rule:nonzero;fill:#ff6666;fill-opacity:1;" d="M 10 2 C 10 0.894531 9.105469 0 8 0 C 6.894531 0 6 0.894531 6 2 C 6 3.105469 6.894531 4 8 4 C 9.105469 4 10 3.105469 10 2 Z M 10 8 C 10 6.894531 9.105469 6 8 6 C 6.894531 6 6 6.894531 6 8 C 6 9.105469 6.894531 10 8 10 C 9.105469 10 10 9.105469 10 8 Z M 10 14 C 10 12.894531 9.105469 12 8 12 C 6.894531 12 6 12.894531 6 14 C 6 15.105469 6.894531 16 8 16 C 9.105469 16 10 15.105469 10 14 Z M 10 14 "/>
</g>
</svg>
