
<svg xmlns="http://www.w3.org/2000/svg" xmlns:xlink="http://www.w3.org/1999/xlink" width="16px" height="16px" viewBox="0 0 16 16" version="1.1">
<g id="surface1">
<path style=" stroke:none;fill-rule:nonzero;fill:#ff6666;fill-opacity:1;" d="M 1 1 L 1 6 L 6 6 L 6 1 Z M 10 1 L 10 6 L 15 6 L 15 1 Z M 2 2 L 5 2 L 5 5 L 2 5 Z M 7 2 L 7 4 L 8 4 L 8 5 L 9 5 L 9 3 L 8 3 L 8 2 Z M 8 5 L 7 5 L 7 7 L 8 7 Z M 7 7 L 6 7 L 6 8 L 5 8 L 5 9 L 7 9 Z M 7 9 L 7 10 L 8 10 L 8 9 Z M 8 9 L 11 9 L 11 7 L 10 7 L 10 8 L 8 8 Z M 11 9 L 11 10 L 12 10 L 12 11 L 13 11 L 13 9 Z M 11 10 L 10 10 L 10 11 L 11 11 Z M 10 11 L 8 11 L 8 12 L 10 12 Z M 10 12 L 10 13 L 11 13 L 11 12 Z M 11 13 L 11 14 L 12 14 L 12 13 Z M 12 13 L 14 13 L 14 12 L 12 12 Z M 14 13 L 14 15 L 15 15 L 15 13 Z M 12 14 L 12 15 L 13 15 L 13 14 Z M 11 14 L 7 14 L 7 15 L 11 15 Z M 8 12 L 7 12 L 7 13 L 8 13 Z M 5 8 L 5 7 L 3 7 L 3 8 Z M 3 8 L 2 8 L 2 7 L 1 7 L 1 9 L 3 9 Z M 11 2 L 14 2 L 14 5 L 11 5 Z M 3 3 L 3 4 L 4 4 L 4 3 Z M 12 3 L 12 4 L 13 4 L 13 3 Z M 12 7 L 12 8 L 14 8 L 14 9 L 15 9 L 15 7 Z M 1 10 L 1 15 L 6 15 L 6 10 Z M 14 10 L 14 11 L 15 11 L 15 10 Z M 2 11 L 5 11 L 5 14 L 2 14 Z M 3 12 L 3 13 L 4 13 L 4 12 Z M 3 12 "/>
</g>
</svg>
