
<svg xmlns="http://www.w3.org/2000/svg" xmlns:xlink="http://www.w3.org/1999/xlink" width="16px" height="16px" viewBox="0 0 16 16" version="1.1">
<g id="surface1">
<path style=" stroke:none;fill-rule:nonzero;fill:#ff6666;fill-opacity:1;" d="M 12.488281 8 C 12.871094 8 13.238281 8.0625 13.601562 8.152344 L 16 6.203125 L 10.121094 5.886719 L 8 0.394531 L 5.878906 5.886719 L 0 6.203125 L 4.570312 9.917969 L 3.050781 15.609375 L 8 12.410156 C 8.050781 9.980469 10.050781 8 12.488281 8 Z M 12.488281 8 "/>
<path style=" stroke:none;fill-rule:nonzero;fill:#ff6666;fill-opacity:1;" d="M 12.5 9 C 10.570312 9 9 10.566406 9 12.5 C 9 14.433594 10.570312 16 12.5 16 C 14.429688 16 16 14.433594 16 12.5 C 16 10.566406 14.429688 9 12.5 9 Z M 12 10 L 13 10 L 13 12 L 15 12 L 15 13 L 13 13 L 13 15 L 12 15 L 12 13 L 10 13 L 10 12 L 12 12 Z M 12 10 "/>
</g>
</svg>
