
<svg xmlns="http://www.w3.org/2000/svg" xmlns:xlink="http://www.w3.org/1999/xlink" width="16px" height="16px" viewBox="0 0 16 16" version="1.1">
<g id="surface1">
<path style=" stroke:none;fill-rule:nonzero;fill:#ff6666;fill-opacity:1;" d="M 7.761719 5.992188 L 7.648438 7.308594 C 7.230469 7.464844 6.84375 7.6875 6.5 7.972656 L 5.300781 7.410156 L 4.050781 9.574219 L 5.140625 10.332031 C 5.101562 10.550781 5.082031 10.769531 5.078125 10.992188 C 5.082031 11.214844 5.101562 11.4375 5.140625 11.660156 L 4.050781 12.410156 L 5.300781 14.574219 L 6.5 14.015625 C 6.84375 14.296875 7.230469 14.519531 7.648438 14.675781 L 7.761719 15.992188 L 10.261719 15.992188 L 10.371094 14.675781 C 10.789062 14.523438 11.175781 14.296875 11.519531 14.011719 L 12.710938 14.574219 L 13.960938 12.410156 L 12.878906 11.65625 C 12.917969 11.4375 12.9375 11.214844 12.941406 10.992188 C 12.9375 10.769531 12.917969 10.546875 12.878906 10.328125 L 13.960938 9.574219 L 12.710938 7.410156 L 11.519531 7.972656 C 11.175781 7.6875 10.789062 7.464844 10.371094 7.3125 L 10.261719 5.992188 Z M 9.011719 9.566406 C 9.800781 9.5625 10.441406 10.203125 10.441406 10.992188 C 10.441406 11.371094 10.289062 11.734375 10.019531 12.003906 C 9.753906 12.273438 9.390625 12.421875 9.011719 12.421875 C 8.628906 12.421875 8.265625 12.273438 8 12.003906 C 7.730469 11.734375 7.578125 11.371094 7.578125 10.992188 C 7.582031 10.203125 8.21875 9.5625 9.011719 9.566406 Z M 9.011719 9.566406 "/>
<path style=" stroke:none;fill-rule:nonzero;fill:#ff6666;fill-opacity:1;" d="M 7.191406 6.261719 L 6.851562 5.546875 C 7.019531 5.339844 7.15625 5.105469 7.25 4.855469 L 8.039062 4.789062 L 8.039062 3.289062 L 7.25 3.222656 C 7.203125 3.097656 7.148438 2.976562 7.078125 2.859375 C 7.011719 2.746094 6.9375 2.636719 6.851562 2.53125 L 7.191406 1.816406 L 5.890625 1.066406 L 5.441406 1.71875 C 5.175781 1.671875 4.90625 1.671875 4.640625 1.71875 L 4.191406 1.066406 L 2.890625 1.816406 L 3.230469 2.53125 C 3.058594 2.738281 2.921875 2.972656 2.828125 3.222656 L 2.039062 3.289062 L 2.039062 4.789062 L 2.828125 4.855469 C 2.875 4.980469 2.933594 5.101562 3 5.21875 C 3.066406 5.332031 3.144531 5.445312 3.230469 5.546875 L 2.890625 6.261719 L 4.191406 7.011719 L 4.640625 6.363281 C 4.90625 6.40625 5.175781 6.40625 5.441406 6.359375 L 5.890625 7.011719 Z M 5.46875 4.78125 C 5.058594 5.019531 4.535156 4.878906 4.300781 4.46875 C 4.0625 4.058594 4.203125 3.535156 4.609375 3.296875 C 5.019531 3.0625 5.542969 3.203125 5.78125 3.609375 C 6.015625 4.019531 5.878906 4.542969 5.46875 4.78125 Z M 5.46875 4.78125 "/>
</g>
</svg>
