
<svg xmlns="http://www.w3.org/2000/svg" xmlns:xlink="http://www.w3.org/1999/xlink" width="16px" height="16px" viewBox="0 0 16 16" version="1.1">
<g id="surface1">
<path style=" stroke:none;fill-rule:nonzero;fill:#ff6666;fill-opacity:1;" d="M 8 1 C 8.554688 1 9 1.445312 9 2 L 9 7 C 9 7.554688 8.554688 8 8 8 C 7.445312 8 7 7.554688 7 7 L 7 2 C 7 1.445312 7.445312 1 8 1 Z M 8 1 "/>
<path style=" stroke:none;fill-rule:nonzero;fill:#ff6666;fill-opacity:1;" d="M 11 3 C 10.449219 3 10 3.449219 10 4 C 10 4.285156 10.101562 4.578125 10.328125 4.746094 C 11.359375 5.523438 11.996094 6.710938 12 8 C 12 10.210938 10.210938 12 8 12 C 5.789062 12 4 10.210938 4 8 C 4.003906 6.710938 4.644531 5.523438 5.671875 4.746094 C 5.898438 4.574219 6 4.285156 6 4 C 6 3.449219 5.550781 3 5 3 C 4.714844 3 4.472656 3.152344 4.253906 3.335938 C 2.859375 4.5 2.007812 6.183594 2 8 C 2 11.3125 4.6875 14 8 14 C 11.3125 14 14 11.3125 14 8 C 13.996094 6.167969 13.136719 4.460938 11.714844 3.300781 C 11.503906 3.128906 11.265625 3 11 3 Z M 11 3 "/>
</g>
</svg>
