
<svg xmlns="http://www.w3.org/2000/svg" xmlns:xlink="http://www.w3.org/1999/xlink" width="16px" height="16px" viewBox="0 0 16 16" version="1.1">
<g id="surface1">
<path style=" stroke:none;fill-rule:nonzero;fill:#ff6666;fill-opacity:1;" d="M 12 5 L 16 8 L 12 11 L 12 9 L 8 9 L 8 7 L 12 7 Z M 12 5 "/>
<path style=" stroke:none;fill-rule:nonzero;fill:#ff6666;fill-opacity:1;" d="M 8 2 C 4.6875 2 2 4.6875 2 8 C 2 11.3125 4.6875 14 8 14 C 9.589844 14 11.117188 13.367188 12.238281 12.238281 L 10.824219 10.824219 C 10.078125 11.578125 9.058594 12 8 12 C 5.789062 12 4 10.210938 4 8 C 4 5.789062 5.789062 4 8 4 C 9.058594 4 10.078125 4.421875 10.824219 5.171875 L 12.238281 3.761719 C 11.117188 2.632812 9.589844 2 8 2 Z M 8 2 "/>
</g>
</svg>
