
<svg xmlns="http://www.w3.org/2000/svg" xmlns:xlink="http://www.w3.org/1999/xlink" width="16px" height="16px" viewBox="0 0 16 16" version="1.1">
<g id="surface1">
<path style=" stroke:none;fill-rule:nonzero;fill:#ff6666;fill-opacity:1;" d="M 3 11.292969 L 0.644531 13.644531 C 0.519531 13.773438 0.46875 13.957031 0.515625 14.128906 C 0.5625 14.304688 0.695312 14.4375 0.871094 14.484375 C 1.042969 14.53125 1.226562 14.480469 1.351562 14.355469 L 3 12.707031 L 5 14.707031 L 7 12.707031 L 9 14.707031 L 11 12.707031 L 13 14.707031 L 15.355469 12.355469 C 15.550781 12.160156 15.550781 11.839844 15.355469 11.644531 C 15.160156 11.449219 14.839844 11.449219 14.644531 11.644531 L 13 13.292969 L 11 11.292969 L 9 13.292969 L 7 11.292969 L 5 13.292969 Z M 3 11.292969 "/>
<path style=" stroke:none;fill-rule:nonzero;fill:#ff6666;fill-opacity:1;" d="M 8 2 L 8 11 L 11 11 C 12.660156 11 14 9.660156 14 8 C 14 6.339844 12.660156 5 11 5 L 10 5 L 10 2 Z M 10 7 L 11 7 C 11.554688 7 12 7.445312 12 8 C 12 8.554688 11.554688 9 11 9 L 10 9 Z M 10 7 "/>
<path style=" stroke:none;fill-rule:nonzero;fill:#ff6666;fill-opacity:1;" d="M 2 3 L 2 5 L 5 5 L 5 6 L 4 6 C 2.339844 6 1 7.113281 1 8.5 C 1 9.886719 2.339844 11 4 11 L 7 11 L 7 5 C 7 3.890625 6.109375 3 5 3 Z M 3.5 8 L 5 8 L 5 9 L 3.5 9 C 3.222656 9 3 8.777344 3 8.5 C 3 8.222656 3.222656 8 3.5 8 Z M 3.5 8 "/>
</g>
</svg>
