
<svg xmlns="http://www.w3.org/2000/svg" xmlns:xlink="http://www.w3.org/1999/xlink" width="16px" height="16px" viewBox="0 0 16 16" version="1.1">
<g id="surface1">
<path style=" stroke:none;fill-rule:nonzero;fill:#ff6666;fill-opacity:1;" d="M 11.101562 1.070312 C 10.480469 0.851562 9.808594 1.140625 9.53125 1.71875 C 7.601562 1.601562 5.761719 2.761719 5.070312 4.671875 C 4.460938 6.410156 3.230469 8.640625 2.589844 8.761719 C 2.46875 8.828125 2.359375 8.949219 2.300781 9.101562 C 2.179688 9.429688 2.359375 9.800781 2.691406 9.921875 L 11.988281 13.25 C 12.320312 13.371094 12.679688 13.191406 12.800781 12.859375 C 12.859375 12.710938 12.851562 12.550781 12.789062 12.410156 C 12.378906 11.921875 12.839844 9.410156 13.46875 7.679688 C 14.160156 5.769531 13.460938 3.699219 11.898438 2.570312 C 12.039062 1.941406 11.71875 1.300781 11.101562 1.070312 Z M 6.738281 12.71875 C 6.441406 13.550781 7.011719 14.511719 8 14.871094 C 9 15.21875 10.039062 14.839844 10.339844 14.011719 Z M 6.738281 12.71875 "/>
</g>
</svg>
