
<svg xmlns="http://www.w3.org/2000/svg" xmlns:xlink="http://www.w3.org/1999/xlink" width="16px" height="16px" viewBox="0 0 16 16" version="1.1">
<g id="surface1">
<path style=" stroke:none;fill-rule:nonzero;fill:#ff6666;fill-opacity:1;" d="M 5 8.5 C 5 9.328125 4.328125 10 3.5 10 C 2.671875 10 2 9.328125 2 8.5 C 2 7.671875 2.671875 7 3.5 7 C 4.328125 7 5 7.671875 5 8.5 Z M 5 8.5 "/>
<path style=" stroke:none;fill-rule:nonzero;fill:#ff6666;fill-opacity:1;" d="M 9 8.5 C 9 9.328125 8.328125 10 7.5 10 C 6.671875 10 6 9.328125 6 8.5 C 6 7.671875 6.671875 7 7.5 7 C 8.328125 7 9 7.671875 9 8.5 Z M 9 8.5 "/>
<path style=" stroke:none;fill-rule:nonzero;fill:#ff6666;fill-opacity:1;" d="M 13 8.5 C 13 9.328125 12.328125 10 11.5 10 C 10.671875 10 10 9.328125 10 8.5 C 10 7.671875 10.671875 7 11.5 7 C 12.328125 7 13 7.671875 13 8.5 Z M 13 8.5 "/>
</g>
</svg>
