
<svg xmlns="http://www.w3.org/2000/svg" xmlns:xlink="http://www.w3.org/1999/xlink" width="16px" height="16px" viewBox="0 0 16 16" version="1.1">
<g id="surface1">
<path style=" stroke:none;fill-rule:nonzero;fill:#ff6666;fill-opacity:1;" d="M 2 2 C 1 2 1 3 1 3 L 1 7 L 3 7 L 3 4 L 6 4 L 6 2 Z M 10 2 L 10 4 L 13 4 L 13 7 L 15 7 L 15 3 C 15 2 14 2 14 2 Z M 1 9 L 1 13 C 1 14 2 14 2 14 L 6 14 L 6 12 L 3 12 L 3 9 Z M 13 9 L 13 12 L 10 12 L 10 14 L 14 14 C 14 14 15 14 15 13 L 15 9 Z M 13 9 "/>
</g>
</svg>
