
<svg xmlns="http://www.w3.org/2000/svg" xmlns:xlink="http://www.w3.org/1999/xlink" width="16px" height="16px" viewBox="0 0 16 16" version="1.1">
<g id="surface1">
<path style=" stroke:none;fill-rule:nonzero;fill:#ff6666;fill-opacity:1;" d="M 8 1 C 4.128906 1 1 4.132812 1 8 C 1 11.867188 4.128906 15 8 15 C 11.179688 15 13.859375 12.898438 14.71875 10 L 12.558594 10 C 11.789062 11.761719 10.050781 13 8 13 C 5.238281 13 3 10.761719 3 8 C 3 5.238281 5.238281 3 8 3 C 10.050781 3 11.789062 4.238281 12.558594 6 L 14.71875 6 C 13.859375 3.101562 11.179688 1 8 1 Z M 8 1 "/>
<path style=" stroke:none;fill-rule:nonzero;fill:#ff6666;fill-opacity:1;" d="M 9 7 L 15 1 L 15 7 Z M 9 7 "/>
</g>
</svg>
