
<svg xmlns="http://www.w3.org/2000/svg" xmlns:xlink="http://www.w3.org/1999/xlink" width="16px" height="16px" viewBox="0 0 16 16" version="1.1">
<g id="surface1">
<path style=" stroke:none;fill-rule:nonzero;fill:#ff6666;fill-opacity:1;" d="M 8 13 L 8 9 L 5 9 L 10 2 L 15 9 L 12 9 L 12 13 Z M 8 13 "/>
<path style=" stroke:none;fill-rule:nonzero;fill:#ff6666;fill-opacity:1;" d="M 4 3.5 C 4 4.328125 3.328125 5 2.5 5 C 1.671875 5 1 4.328125 1 3.5 C 1 2.671875 1.671875 2 2.5 2 C 3.328125 2 4 2.671875 4 3.5 Z M 4 3.5 "/>
<path style=" stroke:none;fill-rule:nonzero;fill:#ff6666;fill-opacity:1;" d="M 4 7.5 C 4 8.328125 3.328125 9 2.5 9 C 1.671875 9 1 8.328125 1 7.5 C 1 6.671875 1.671875 6 2.5 6 C 3.328125 6 4 6.671875 4 7.5 Z M 4 7.5 "/>
<path style=" stroke:none;fill-rule:nonzero;fill:#ff6666;fill-opacity:1;" d="M 4 11.5 C 4 12.328125 3.328125 13 2.5 13 C 1.671875 13 1 12.328125 1 11.5 C 1 10.671875 1.671875 10 2.5 10 C 3.328125 10 4 10.671875 4 11.5 Z M 4 11.5 "/>
</g>
</svg>
