
<svg xmlns="http://www.w3.org/2000/svg" xmlns:xlink="http://www.w3.org/1999/xlink" width="16px" height="16px" viewBox="0 0 16 16" version="1.1">
<g id="surface1">
<path style=" stroke:none;fill-rule:nonzero;fill:#ff6666;fill-opacity:1;" d="M 8 5 L 12 5 L 12 6 L 8 6 Z M 8 5 "/>
<path style=" stroke:none;fill-rule:nonzero;fill:#ff6666;fill-opacity:1;" d="M 4.25 4 L 6.75 4 C 6.886719 4 7 4.113281 7 4.25 L 7 6.75 C 7 6.886719 6.886719 7 6.75 7 L 4.25 7 C 4.113281 7 4 6.886719 4 6.75 L 4 4.25 C 4 4.113281 4.113281 4 4.25 4 Z M 4.25 4 "/>
<path style=" stroke:none;fill-rule:nonzero;fill:#ff6666;fill-opacity:1;" d="M 8 10 L 12 10 L 12 11 L 8 11 Z M 8 10 "/>
<path style=" stroke:none;fill-rule:nonzero;fill:#ff6666;fill-opacity:1;" d="M 4.25 9 L 6.75 9 C 6.886719 9 7 9.113281 7 9.25 L 7 11.75 C 7 11.890625 6.886719 12 6.75 12 L 4.25 12 C 4.113281 12 4 11.890625 4 11.75 L 4 9.25 C 4 9.113281 4.113281 9 4.25 9 Z M 4.25 9 "/>
</g>
</svg>
