
<svg xmlns="http://www.w3.org/2000/svg" xmlns:xlink="http://www.w3.org/1999/xlink" width="16px" height="16px" viewBox="0 0 16 16" version="1.1">
<g id="surface1">
<path style=" stroke:none;fill-rule:nonzero;fill:#ff6666;fill-opacity:1;" d="M 11 9 C 11 9 10 9 10 10 L 10 14 L 12 14 L 12 11 L 15 11 L 15 9 Z M 1 9 L 1 11 L 4 11 L 4 14 L 6 14 L 6 10 C 6 10 6 9 5 9 Z M 10 2 L 10 6 C 10 6 10 7 11 7 L 15 7 L 15 5 L 12 5 L 12 2 Z M 4 2 L 4 5 L 1 5 L 1 7 L 5 7 C 6 7 6 6 6 6 L 6 2 Z M 4 2 "/>
</g>
</svg>
