
<svg xmlns="http://www.w3.org/2000/svg" xmlns:xlink="http://www.w3.org/1999/xlink" width="16px" height="16px" viewBox="0 0 16 16" version="1.1">
<g id="surface1">
<path style=" stroke:none;fill-rule:nonzero;fill:#ff6666;fill-opacity:1;" d="M 3.25 3 L 4.75 3 C 4.886719 3 5 3.113281 5 3.25 L 5 4.75 C 5 4.886719 4.886719 5 4.75 5 L 3.25 5 C 3.113281 5 3 4.886719 3 4.75 L 3 3.25 C 3 3.113281 3.113281 3 3.25 3 Z M 3.25 3 "/>
<path style=" stroke:none;fill-rule:nonzero;fill:#ff6666;fill-opacity:1;" d="M 7.25 3 L 8.75 3 C 8.886719 3 9 3.113281 9 3.25 L 9 4.75 C 9 4.886719 8.886719 5 8.75 5 L 7.25 5 C 7.113281 5 7 4.886719 7 4.75 L 7 3.25 C 7 3.113281 7.113281 3 7.25 3 Z M 7.25 3 "/>
<path style=" stroke:none;fill-rule:nonzero;fill:#ff6666;fill-opacity:1;" d="M 11.25 3 L 12.75 3 C 12.890625 3 13 3.113281 13 3.25 L 13 4.75 C 13 4.886719 12.890625 5 12.75 5 L 11.25 5 C 11.113281 5 11 4.886719 11 4.75 L 11 3.25 C 11 3.113281 11.113281 3 11.25 3 Z M 11.25 3 "/>
<path style=" stroke:none;fill-rule:nonzero;fill:#ff6666;fill-opacity:1;" d="M 11.25 7 L 12.75 7 C 12.890625 7 13 7.113281 13 7.25 L 13 8.75 C 13 8.886719 12.890625 9 12.75 9 L 11.25 9 C 11.113281 9 11 8.886719 11 8.75 L 11 7.25 C 11 7.113281 11.113281 7 11.25 7 Z M 11.25 7 "/>
<path style=" stroke:none;fill-rule:nonzero;fill:#ff6666;fill-opacity:1;" d="M 7.25 7 L 8.75 7 C 8.886719 7 9 7.113281 9 7.25 L 9 8.75 C 9 8.886719 8.886719 9 8.75 9 L 7.25 9 C 7.113281 9 7 8.886719 7 8.75 L 7 7.25 C 7 7.113281 7.113281 7 7.25 7 Z M 7.25 7 "/>
<path style=" stroke:none;fill-rule:nonzero;fill:#ff6666;fill-opacity:1;" d="M 3.25 7 L 4.75 7 C 4.886719 7 5 7.113281 5 7.25 L 5 8.75 C 5 8.886719 4.886719 9 4.75 9 L 3.25 9 C 3.113281 9 3 8.886719 3 8.75 L 3 7.25 C 3 7.113281 3.113281 7 3.25 7 Z M 3.25 7 "/>
<path style=" stroke:none;fill-rule:nonzero;fill:#ff6666;fill-opacity:1;" d="M 3.25 11 L 4.75 11 C 4.886719 11 5 11.113281 5 11.25 L 5 12.75 C 5 12.890625 4.886719 13 4.75 13 L 3.25 13 C 3.113281 13 3 12.890625 3 12.75 L 3 11.25 C 3 11.113281 3.113281 11 3.25 11 Z M 3.25 11 "/>
<path style=" stroke:none;fill-rule:nonzero;fill:#ff6666;fill-opacity:1;" d="M 7.25 11 L 8.75 11 C 8.886719 11 9 11.113281 9 11.25 L 9 12.75 C 9 12.890625 8.886719 13 8.75 13 L 7.25 13 C 7.113281 13 7 12.890625 7 12.75 L 7 11.25 C 7 11.113281 7.113281 11 7.25 11 Z M 7.25 11 "/>
<path style=" stroke:none;fill-rule:nonzero;fill:#ff6666;fill-opacity:1;" d="M 11.25 11 L 12.75 11 C 12.890625 11 13 11.113281 13 11.25 L 13 12.75 C 13 12.890625 12.890625 13 12.75 13 L 11.25 13 C 11.113281 13 11 12.890625 11 12.75 L 11 11.25 C 11 11.113281 11.113281 11 11.25 11 Z M 11.25 11 "/>
</g>
</svg>
