
<svg xmlns="http://www.w3.org/2000/svg" xmlns:xlink="http://www.w3.org/1999/xlink" width="16px" height="16px" viewBox="0 0 16 16" version="1.1">
<g id="surface1">
<path style=" stroke:none;fill-rule:nonzero;fill:#ff6666;fill-opacity:1;" d="M 3.25 3 L 6.75 3 C 6.886719 3 7 3.113281 7 3.25 L 7 6.75 C 7 6.886719 6.886719 7 6.75 7 L 3.25 7 C 3.113281 7 3 6.886719 3 6.75 L 3 3.25 C 3 3.113281 3.113281 3 3.25 3 Z M 3.25 3 "/>
<path style=" stroke:none;fill-rule:nonzero;fill:#ff6666;fill-opacity:1;" d="M 9.25 3 L 12.75 3 C 12.890625 3 13 3.113281 13 3.25 L 13 6.75 C 13 6.886719 12.890625 7 12.75 7 L 9.25 7 C 9.113281 7 9 6.886719 9 6.75 L 9 3.25 C 9 3.113281 9.113281 3 9.25 3 Z M 9.25 3 "/>
<path style=" stroke:none;fill-rule:nonzero;fill:#ff6666;fill-opacity:1;" d="M 3.25 9 L 6.75 9 C 6.886719 9 7 9.113281 7 9.25 L 7 12.75 C 7 12.890625 6.886719 13 6.75 13 L 3.25 13 C 3.113281 13 3 12.890625 3 12.75 L 3 9.25 C 3 9.113281 3.113281 9 3.25 9 Z M 3.25 9 "/>
<path style=" stroke:none;fill-rule:nonzero;fill:#ff6666;fill-opacity:1;" d="M 9.25 9 L 12.75 9 C 12.890625 9 13 9.113281 13 9.25 L 13 12.75 C 13 12.890625 12.890625 13 12.75 13 L 9.25 13 C 9.113281 13 9 12.890625 9 12.75 L 9 9.25 C 9 9.113281 9.113281 9 9.25 9 Z M 9.25 9 "/>
</g>
</svg>
