
<svg xmlns="http://www.w3.org/2000/svg" xmlns:xlink="http://www.w3.org/1999/xlink" width="16px" height="16px" viewBox="0 0 16 16" version="1.1">
<g id="surface1">
<path style=" stroke:none;fill-rule:nonzero;fill:#ff6666;fill-opacity:1;" d="M 10 2 L 10 14 L 9 14 L 9 2 Z M 14 3 L 14 4 L 12 4 L 12 3 Z M 7 3 L 7 5 L 5 5 L 5 3 Z M 3 3 L 3 5 L 1 5 L 1 3 Z M 14 6 L 14 7 L 12 7 L 12 6 Z M 7 7 L 7 9 L 5 9 L 5 7 Z M 3 7 L 3 9 L 1 9 L 1 7 Z M 14 9 L 14 10 L 12 10 L 12 9 Z M 7 11 L 7 13 L 5 13 L 5 11 Z M 3 11 L 3 13 L 1 13 L 1 11 Z M 14 12 L 14 13 L 12 13 L 12 12 Z M 14 12 "/>
</g>
</svg>
