
<svg xmlns="http://www.w3.org/2000/svg" xmlns:xlink="http://www.w3.org/1999/xlink" width="16px" height="16px" viewBox="0 0 16 16" version="1.1">
<g id="surface1">
<path style=" stroke:none;fill-rule:nonzero;fill:#ff6666;fill-opacity:1;" d="M 5 2 L 4 3 L 3 3 C 1 3 1 5 1 5 L 1 12 C 1 14 3 14 3 14 L 13 14 C 15 14 15 12 15 12 L 15 5 C 15 3 13 3 13 3 L 12 3 L 11 2 Z M 8 5 C 9.660156 5 11 6.34375 11 8 C 11 9.65625 9.660156 11 8 11 C 6.339844 11 5 9.65625 5 8 C 5 6.34375 6.339844 5 8 5 Z M 8 5 "/>
</g>
</svg>
