
<svg xmlns="http://www.w3.org/2000/svg" xmlns:xlink="http://www.w3.org/1999/xlink" width="16px" height="16px" viewBox="0 0 16 16" version="1.1">
<g id="surface1">
<path style=" stroke:none;fill-rule:nonzero;fill:#ff6666;fill-opacity:1;" d="M 9 4.5 C 9 5.328125 8.328125 6 7.5 6 C 6.671875 6 6 5.328125 6 4.5 C 6 3.671875 6.671875 3 7.5 3 C 8.328125 3 9 3.671875 9 4.5 Z M 9 4.5 "/>
<path style=" stroke:none;fill-rule:nonzero;fill:#ff6666;fill-opacity:1;" d="M 9 8.5 C 9 9.328125 8.328125 10 7.5 10 C 6.671875 10 6 9.328125 6 8.5 C 6 7.671875 6.671875 7 7.5 7 C 8.328125 7 9 7.671875 9 8.5 Z M 9 8.5 "/>
<path style=" stroke:none;fill-rule:nonzero;fill:#ff6666;fill-opacity:1;" d="M 9 12.5 C 9 13.328125 8.328125 14 7.5 14 C 6.671875 14 6 13.328125 6 12.5 C 6 11.671875 6.671875 11 7.5 11 C 8.328125 11 9 11.671875 9 12.5 Z M 9 12.5 "/>
</g>
</svg>
