
<svg xmlns="http://www.w3.org/2000/svg" xmlns:xlink="http://www.w3.org/1999/xlink" width="16px" height="16px" viewBox="0 0 16 16" version="1.1">
<g id="surface1">
<path style=" stroke:none;fill-rule:nonzero;fill:#ff6666;fill-opacity:1;" d="M 6 2 L 6 14 L 7 14 L 7 2 Z M 2 3 L 2 4 L 4 4 L 4 3 Z M 9 3 L 9 5 L 11 5 L 11 3 Z M 13 3 L 13 5 L 15 5 L 15 3 Z M 2 6 L 2 7 L 4 7 L 4 6 Z M 9 7 L 9 9 L 11 9 L 11 7 Z M 13 7 L 13 9 L 15 9 L 15 7 Z M 2 9 L 2 10 L 4 10 L 4 9 Z M 9 11 L 9 13 L 11 13 L 11 11 Z M 13 11 L 13 13 L 15 13 L 15 11 Z M 2 12 L 2 13 L 4 13 L 4 12 Z M 2 12 "/>
</g>
</svg>
