
<svg xmlns="http://www.w3.org/2000/svg" xmlns:xlink="http://www.w3.org/1999/xlink" width="16px" height="16px" viewBox="0 0 16 16" version="1.1">
<g id="surface1">
<path style=" stroke:none;fill-rule:nonzero;fill:#ff6666;fill-opacity:1;" d="M 8 10 L 14 10 L 14 12 L 8 12 Z M 8 10 "/>
<path style=" stroke:none;fill-rule:nonzero;fill:#ff6666;fill-opacity:1;" d="M 8 4 L 14 4 L 14 6 L 8 6 Z M 8 4 "/>
<path style=" stroke:none;fill-rule:nonzero;fill:#ff6666;fill-opacity:1;" d="M 2.25 3 L 5.75 3 C 5.886719 3 6 3.113281 6 3.25 L 6 6.75 C 6 6.886719 5.886719 7 5.75 7 L 2.25 7 C 2.113281 7 2 6.886719 2 6.75 L 2 3.25 C 2 3.113281 2.113281 3 2.25 3 Z M 2.25 3 "/>
<path style=" stroke:none;fill-rule:nonzero;fill:#ff6666;fill-opacity:1;" d="M 2.25 9 L 5.75 9 C 5.886719 9 6 9.113281 6 9.25 L 6 12.75 C 6 12.890625 5.886719 13 5.75 13 L 2.25 13 C 2.113281 13 2 12.890625 2 12.75 L 2 9.25 C 2 9.113281 2.113281 9 2.25 9 Z M 2.25 9 "/>
</g>
</svg>
