
<svg xmlns="http://www.w3.org/2000/svg" xmlns:xlink="http://www.w3.org/1999/xlink" width="16px" height="16px" viewBox="0 0 16 16" version="1.1">
<g id="surface1">
<path style=" stroke:none;fill-rule:nonzero;fill:#ff6666;fill-opacity:1;" d="M 5 4 C 4.449219 4 4 4.449219 4 5 C 4 5.265625 4.101562 5.519531 4.289062 5.710938 L 6.589844 8 L 4.289062 10.289062 C 4.101562 10.480469 4 10.734375 4 11 C 4 11.550781 4.449219 12 5 12 C 5.265625 12 5.519531 11.898438 5.710938 11.710938 L 8 9.410156 L 10.28125 11.699219 C 10.46875 11.894531 10.730469 12 11 12 C 11.550781 12 12 11.550781 12 11 C 12 10.734375 11.898438 10.480469 11.710938 10.289062 L 9.410156 8 L 11.699219 5.71875 C 11.894531 5.53125 12 5.269531 12 5 C 12 4.449219 11.550781 4 11 4 C 10.734375 4 10.480469 4.101562 10.289062 4.289062 L 8 6.589844 L 5.71875 4.300781 C 5.714844 4.296875 5.714844 4.292969 5.710938 4.289062 C 5.519531 4.101562 5.265625 4 5 4 Z M 5 4 "/>
</g>
</svg>
