
<svg xmlns="http://www.w3.org/2000/svg" xmlns:xlink="http://www.w3.org/1999/xlink" width="16px" height="16px" viewBox="0 0 16 16" version="1.1">
<g id="surface1">
<path style=" stroke:none;fill-rule:nonzero;fill:#ff6666;fill-opacity:1;" d="M 5 4 C 4.445312 4 4 4.445312 4 5 L 4 11 C 4 11.554688 4.445312 12 5 12 L 11 12 C 11.554688 12 12 11.554688 12 11 L 12 5 C 12 4.445312 11.554688 4 11 4 Z M 6.5 6 L 9.5 6 C 9.777344 6 10 6.222656 10 6.5 L 10 9.5 C 10 9.777344 9.777344 10 9.5 10 L 6.5 10 C 6.222656 10 6 9.777344 6 9.5 L 6 6.5 C 6 6.222656 6.222656 6 6.5 6 Z M 6.5 6 "/>
</g>
</svg>
