
<svg xmlns="http://www.w3.org/2000/svg" xmlns:xlink="http://www.w3.org/1999/xlink" width="16px" height="16px" viewBox="0 0 16 16" version="1.1">
<g id="surface1">
<path style=" stroke:none;fill-rule:nonzero;fill:#ff6666;fill-opacity:1;" d="M 15 5 L 13 5 L 13 2.929688 C 13 1.863281 12.0625 1 10.894531 1 L 5.105469 1 C 3.941406 1 3 1.863281 3 2.929688 L 3 13.066406 C 3 14.136719 3.941406 15 5.105469 15 L 10.894531 15 C 12.0625 15 13 14.136719 13 13.066406 L 13 11 L 11 11 L 11 13 C 10.992188 12.996094 10.972656 13 10.894531 13 L 5.105469 13 C 5.027344 13 5.007812 12.996094 5 13 L 5 3.003906 C 5.007812 3.003906 5.027344 3 5.105469 3 L 10.894531 3 C 10.972656 3 10.992188 3.003906 11 3.003906 L 11 5 L 9 5 L 12 9 Z M 15 5 "/>
</g>
</svg>
