
<svg xmlns="http://www.w3.org/2000/svg" xmlns:xlink="http://www.w3.org/1999/xlink" width="16px" height="16px" viewBox="0 0 16 16" version="1.1">
<g id="surface1">
<path style=" stroke:none;fill-rule:nonzero;fill:#ff6666;fill-opacity:1;" d="M 10.5 1 C 10.222656 1 10 1.222656 10 1.5 L 10 3.292969 L 8.730469 2.027344 C 8.535156 1.828125 8.222656 1.828125 8.027344 2.027344 C 7.828125 2.222656 7.828125 2.535156 8.027344 2.734375 L 9.292969 4 L 7.5 4 C 7.222656 4 7 4.222656 7 4.5 C 7 4.777344 7.222656 5 7.5 5 L 9.292969 5 L 8.027344 6.269531 C 7.828125 6.464844 7.828125 6.777344 8.027344 6.976562 C 8.222656 7.171875 8.535156 7.171875 8.730469 6.976562 L 10 5.707031 L 10 7.5 C 10 7.777344 10.222656 8 10.5 8 C 10.777344 8 11 7.777344 11 7.5 L 11 5.707031 L 12.269531 6.976562 C 12.464844 7.171875 12.777344 7.171875 12.976562 6.976562 C 13.171875 6.777344 13.171875 6.464844 12.976562 6.269531 L 11.707031 5 L 13.5 5 C 13.777344 5 14 4.777344 14 4.5 C 14 4.222656 13.777344 4 13.5 4 L 11.707031 4 L 12.976562 2.734375 C 13.171875 2.535156 13.171875 2.222656 12.976562 2.027344 C 12.777344 1.828125 12.464844 1.828125 12.269531 2.027344 L 11 3.292969 L 11 1.5 C 11 1.222656 10.777344 1 10.5 1 Z M 2.5 12 C 1.671875 12 1 12.671875 1 13.5 C 1 14.328125 1.671875 15 2.5 15 C 3.328125 15 4 14.328125 4 13.5 C 4 12.671875 3.328125 12 2.5 12 Z M 2.5 12 "/>
</g>
</svg>
