
<svg xmlns="http://www.w3.org/2000/svg" xmlns:xlink="http://www.w3.org/1999/xlink" width="16px" height="16px" viewBox="0 0 16 16" version="1.1">
<g id="surface1">
<path style=" stroke:none;fill-rule:nonzero;fill:#ff6666;fill-opacity:1;" d="M 0.601562 6 L 3.398438 6 C 3.730469 6 4 6.269531 4 6.601562 L 4 9.398438 C 4 9.730469 3.730469 10 3.398438 10 L 0.601562 10 C 0.269531 10 0 9.730469 0 9.398438 L 0 6.601562 C 0 6.269531 0.269531 6 0.601562 6 Z M 0.601562 6 "/>
<path style=" stroke:none;fill-rule:nonzero;fill:#ff6666;fill-opacity:1;" d="M 6.601562 6 L 9.398438 6 C 9.730469 6 10 6.269531 10 6.601562 L 10 9.398438 C 10 9.730469 9.730469 10 9.398438 10 L 6.601562 10 C 6.269531 10 6 9.730469 6 9.398438 L 6 6.601562 C 6 6.269531 6.269531 6 6.601562 6 Z M 6.601562 6 "/>
<path style=" stroke:none;fill-rule:nonzero;fill:#ff6666;fill-opacity:1;" d="M 12.601562 6 L 15.398438 6 C 15.730469 6 16 6.269531 16 6.601562 L 16 9.398438 C 16 9.730469 15.730469 10 15.398438 10 L 12.601562 10 C 12.269531 10 12 9.730469 12 9.398438 L 12 6.601562 C 12 6.269531 12.269531 6 12.601562 6 Z M 12.601562 6 "/>
</g>
</svg>
