
<svg xmlns="http://www.w3.org/2000/svg" xmlns:xlink="http://www.w3.org/1999/xlink" width="16px" height="16px" viewBox="0 0 16 16" version="1.1">
<g id="surface1">
<path style=" stroke:none;fill-rule:nonzero;fill:#ff6666;fill-opacity:1;" d="M 13 13.5 C 13 14.328125 12.328125 15 11.5 15 C 10.671875 15 10 14.328125 10 13.5 C 10 12.671875 10.671875 12 11.5 12 C 12.328125 12 13 12.671875 13 13.5 Z M 13 6 L 6 11 L 6 8 L 2 8 L 2 4 L 6 4 L 6 1 Z M 9 13.5 C 9 14.328125 8.328125 15 7.5 15 C 6.671875 15 6 14.328125 6 13.5 C 6 12.671875 6.671875 12 7.5 12 C 8.328125 12 9 12.671875 9 13.5 Z M 5 13.5 C 5 14.328125 4.328125 15 3.5 15 C 2.671875 15 2 14.328125 2 13.5 C 2 12.671875 2.671875 12 3.5 12 C 4.328125 12 5 12.671875 5 13.5 Z M 5 13.5 "/>
</g>
</svg>
