
<svg xmlns="http://www.w3.org/2000/svg" xmlns:xlink="http://www.w3.org/1999/xlink" width="16px" height="16px" viewBox="0 0 16 16" version="1.1">
<g id="surface1">
<path style=" stroke:none;fill-rule:nonzero;fill:#ff6666;fill-opacity:1;" d="M 6.5 1 C 5.671875 1 5 1.671875 5 2.5 L 5 4 L 2 4 C 1.449219 4 1 4.449219 1 5 L 1 8 L 2.5 8 C 3.328125 8 4 8.671875 4 9.5 C 4 10.328125 3.328125 11 2.5 11 L 1 11 L 1 14 C 1 14.550781 1.449219 15 2 15 L 5 15 L 5 13.5 C 5 12.671875 5.671875 12 6.5 12 C 7.328125 12 8 12.671875 8 13.5 L 8 15 L 11 15 C 11.550781 15 12 14.550781 12 14 L 12 11 L 13.5 11 C 14.328125 11 15 10.328125 15 9.5 C 15 8.671875 14.328125 8 13.5 8 L 12 8 L 12 5 C 12 4.449219 11.550781 4 11 4 L 8 4 L 8 2.5 C 8 1.671875 7.328125 1 6.5 1 Z M 6.5 1 "/>
</g>
</svg>
