
<svg xmlns="http://www.w3.org/2000/svg" xmlns:xlink="http://www.w3.org/1999/xlink" width="16px" height="16px" viewBox="0 0 16 16" version="1.1">
<g id="surface1">
<path style=" stroke:none;fill-rule:nonzero;fill:#ff6666;fill-opacity:1;" d="M 4.789062 2 L 1 13 L 2.90625 13 L 3.585938 11 L 7.414062 11 L 8.101562 13 L 10 13 L 6.210938 2 Z M 5.5 5.4375 L 6.683594 9 L 4.3125 9 Z M 11.5 8 L 11.5 9 L 14.5 9 C 14.714844 9 15 9.304688 15 9.5 L 15 10 L 12.5 10 C 12.039062 10 11.628906 10.1875 11.375 10.484375 C 11.121094 10.773438 11 11.140625 11 11.5 C 11 11.859375 11.136719 12.226562 11.390625 12.515625 C 11.644531 12.804688 12.046875 13 12.5 13 L 16 13 L 16 9.5 C 16 8.683594 15.339844 8 14.5 8 Z M 12.5 11 L 15 11 L 15 12 L 12.5 12 C 12.300781 12 12.214844 11.945312 12.140625 11.859375 C 12.066406 11.773438 12 11.640625 12 11.5 C 12 11.359375 12.050781 11.226562 12.125 11.140625 C 12.199219 11.0625 12.289062 11 12.5 11 Z M 12.5 11 "/>
</g>
</svg>
