
<svg xmlns="http://www.w3.org/2000/svg" xmlns:xlink="http://www.w3.org/1999/xlink" width="16px" height="16px" viewBox="0 0 16 16" version="1.1">
<g id="surface1">
<path style=" stroke:none;fill-rule:nonzero;fill:#ff6666;fill-opacity:1;" d="M 3 3 C 1.019531 3 0 4.171875 0 6.609375 L 0 8.5 C 0 9.328125 0.671875 10 1.5 10 C 2.328125 10 3 9.328125 3 8.5 C 3 7.675781 2.335938 7.003906 1.507812 7 L 1.503906 6.597656 C 1.503906 5.648438 1.613281 5 1.839844 4.648438 C 2.066406 4.292969 2.453125 4.039062 3 4 Z M 7 3 C 5.019531 3 4 4.171875 4 6.609375 L 4 8.5 C 4 9.328125 4.671875 10 5.5 10 C 6.328125 10 7 9.328125 7 8.5 C 7 7.675781 6.335938 7.003906 5.507812 7 L 5.503906 6.597656 C 5.503906 5.648438 5.613281 5 5.839844 4.648438 C 6.066406 4.292969 6.453125 4.039062 7 4 Z M 9.5 5 C 8.671875 5 8 5.671875 8 6.5 C 8 7.324219 8.664062 7.996094 9.488281 8 L 9.496094 8.402344 C 9.496094 9.351562 9.386719 10 9.160156 10.355469 C 8.933594 10.707031 8.546875 10.960938 8 11 L 8 12 C 9.980469 12 11 10.828125 11 8.390625 L 11 6.5 C 11 5.671875 10.328125 5 9.5 5 Z M 13.5 5 C 12.671875 5 12 5.671875 12 6.5 C 12 7.324219 12.664062 7.996094 13.488281 8 L 13.496094 8.402344 C 13.496094 9.351562 13.386719 10 13.160156 10.355469 C 12.933594 10.707031 12.546875 10.960938 12 11 L 12 12 C 13.980469 12 15 10.828125 15 8.390625 L 15 6.5 C 15 5.671875 14.328125 5 13.5 5 Z M 13.5 5 "/>
</g>
</svg>
