
<svg xmlns="http://www.w3.org/2000/svg" xmlns:xlink="http://www.w3.org/1999/xlink" width="16px" height="16px" viewBox="0 0 16 16" version="1.1">
<g id="surface1">
<path style=" stroke:none;fill-rule:nonzero;fill:#ff6666;fill-opacity:1;" d="M 3 2 C 2.445312 2 2 2.445312 2 3 L 2 7 L 4 7 L 4 4 L 7 4 L 7 2 Z M 9 2 L 9 4 L 12 4 L 12 7 L 14 7 L 14 3 C 14 2.445312 13.554688 2 13 2 Z M 2 9 L 2 13 C 2 13.554688 2.445312 14 3 14 L 7 14 L 7 12 L 4 12 L 4 9 Z M 12 9 L 12 12 L 9 12 L 9 14 L 13 14 C 13.554688 14 14 13.554688 14 13 L 14 9 Z M 12 9 "/>
</g>
</svg>
