
<svg xmlns="http://www.w3.org/2000/svg" xmlns:xlink="http://www.w3.org/1999/xlink" width="16px" height="16px" viewBox="0 0 16 16" version="1.1">
<g id="surface1">
<path style=" stroke:none;fill-rule:evenodd;fill:rgb(57.647061%,58.431375%,59.215689%);fill-opacity:1;" d="M 8 0 L 8 1.230469 L 9.230469 1.230469 L 9.230469 0 Z M 8 1.230469 L 6.769531 1.230469 L 6.769531 2.460938 L 8 2.460938 Z M 8 2.460938 L 8 3.691406 L 9.230469 3.691406 L 9.230469 2.460938 Z M 8 3.691406 L 6.769531 3.691406 L 6.769531 4.921875 L 8 4.921875 Z M 8 4.921875 L 8 6.152344 C 8.679688 6.152344 9.230469 5.539062 9.230469 4.921875 Z M 8 7.386719 C 8.679688 7.386719 9.230469 7.878906 9.230469 8.613281 C 9.230469 9.230469 8.679688 9.847656 8 9.847656 C 7.320312 9.847656 6.769531 9.230469 6.769531 8.613281 C 6.769531 7.878906 7.320312 7.386719 8 7.386719 Z M 8 11.078125 C 8.679688 11.078125 9.230469 11.570312 9.230469 12.308594 L 9.230469 13.539062 C 9.230469 14.152344 8.679688 14.769531 8 14.769531 C 7.320312 14.769531 6.769531 14.152344 6.769531 13.539062 L 6.769531 12.308594 C 6.769531 11.570312 7.320312 11.078125 8 11.078125 Z M 8 6.152344 C 6.640625 6.152344 5.539062 7.261719 5.539062 8.613281 L 5.539062 13.539062 C 5.539062 14.890625 6.640625 16 8 16 C 9.359375 16 10.460938 14.890625 10.460938 13.539062 L 10.460938 8.613281 C 10.460938 7.261719 9.359375 6.152344 8 6.152344 Z M 8 6.152344 "/>
</g>
</svg>
