
<svg xmlns="http://www.w3.org/2000/svg" xmlns:xlink="http://www.w3.org/1999/xlink" width="16px" height="16px" viewBox="0 0 16 16" version="1.1">
<g id="surface1">
<path style=" stroke:none;fill-rule:nonzero;fill:#ff6666;fill-opacity:1;" d="M 14.734375 7.375 L 8.621094 1.265625 C 8.273438 0.910156 7.699219 0.910156 7.347656 1.265625 L 6.078125 2.535156 L 7.6875 4.144531 C 8.0625 4.015625 8.492188 4.101562 8.789062 4.402344 C 9.089844 4.699219 9.175781 5.132812 9.046875 5.507812 L 10.597656 7.0625 C 10.972656 6.929688 11.40625 7.015625 11.703125 7.316406 C 12.125 7.734375 12.125 8.414062 11.703125 8.832031 C 11.285156 9.253906 10.605469 9.253906 10.1875 8.832031 C 9.871094 8.515625 9.796875 8.054688 9.953125 7.664062 L 8.507812 6.21875 L 8.507812 10.027344 C 8.609375 10.078125 8.707031 10.144531 8.789062 10.230469 C 9.210938 10.648438 9.210938 11.328125 8.789062 11.746094 C 8.371094 12.167969 7.691406 12.167969 7.273438 11.746094 C 6.855469 11.328125 6.855469 10.648438 7.273438 10.230469 C 7.378906 10.128906 7.496094 10.046875 7.625 9.996094 L 7.625 6.152344 C 7.496094 6.101562 7.378906 6.023438 7.273438 5.917969 C 6.957031 5.601562 6.878906 5.132812 7.042969 4.746094 L 5.453125 3.15625 L 1.265625 7.347656 C 0.910156 7.699219 0.910156 8.273438 1.265625 8.625 L 7.378906 14.734375 C 7.730469 15.089844 8.300781 15.089844 8.652344 14.734375 L 14.734375 8.652344 C 15.089844 8.300781 15.089844 7.726562 14.734375 7.375 Z M 14.734375 7.375 "/>
</g>
</svg>
