
<svg xmlns="http://www.w3.org/2000/svg" xmlns:xlink="http://www.w3.org/1999/xlink" width="16px" height="16px" viewBox="0 0 16 16" version="1.1">
<g id="surface1">
<path style=" stroke:none;fill-rule:nonzero;fill:#ff6666;fill-opacity:1;" d="M 13.140625 7.394531 C 13.140625 7.339844 13.144531 7.28125 13.144531 7.226562 C 13.144531 5.050781 11.371094 3.28125 9.199219 3.28125 C 7.695312 3.28125 6.324219 4.148438 5.664062 5.480469 C 5.320312 5.253906 4.917969 5.132812 4.507812 5.136719 C 3.402344 5.136719 2.484375 5.992188 2.410156 7.09375 C 1.273438 7.507812 0.5 8.597656 0.5 9.816406 C 0.5 11.414062 1.800781 12.71875 3.402344 12.71875 L 12.828125 12.71875 C 14.300781 12.71875 15.5 11.519531 15.5 10.046875 C 15.5 8.679688 14.46875 7.550781 13.140625 7.394531 Z M 13.140625 7.394531 "/>
</g>
</svg>
