
<svg xmlns="http://www.w3.org/2000/svg" xmlns:xlink="http://www.w3.org/1999/xlink" width="16px" height="16px" viewBox="0 0 16 16" version="1.1">
<g id="surface1">
<path style=" stroke:none;fill-rule:evenodd;fill:rgb(57.647061%,58.431375%,59.215689%);fill-opacity:1;" d="M 8 0 C 3.582031 0 0 3.671875 0 8.203125 C 0 11.828125 2.292969 14.902344 5.472656 15.984375 C 5.871094 16.0625 6.015625 15.808594 6.015625 15.589844 C 6.015625 15.394531 6.011719 14.878906 6.007812 14.195312 C 3.78125 14.691406 3.3125 13.097656 3.3125 13.097656 C 2.949219 12.148438 2.425781 11.894531 2.425781 11.894531 C 1.699219 11.386719 2.480469 11.398438 2.480469 11.398438 C 3.28125 11.457031 3.703125 12.242188 3.703125 12.242188 C 4.417969 13.496094 5.578125 13.132812 6.03125 12.925781 C 6.105469 12.394531 6.3125 12.035156 6.539062 11.828125 C 4.761719 11.621094 2.894531 10.917969 2.894531 7.773438 C 2.894531 6.878906 3.207031 6.148438 3.71875 5.574219 C 3.636719 5.367188 3.363281 4.53125 3.796875 3.402344 C 3.796875 3.402344 4.46875 3.183594 5.996094 4.242188 C 6.652344 4.0625 7.324219 3.96875 8 3.96875 C 8.679688 3.96875 9.363281 4.0625 10.003906 4.242188 C 11.53125 3.183594 12.203125 3.402344 12.203125 3.402344 C 12.636719 4.53125 12.363281 5.367188 12.28125 5.574219 C 12.792969 6.148438 13.101562 6.878906 13.101562 7.773438 C 13.101562 10.925781 11.230469 11.617188 9.449219 11.820312 C 9.738281 12.074219 9.992188 12.574219 9.992188 13.339844 C 9.992188 14.4375 9.984375 15.320312 9.984375 15.589844 C 9.984375 15.808594 10.128906 16.066406 10.535156 15.984375 C 13.710938 14.898438 16 11.824219 16 8.203125 C 16 3.671875 12.417969 0 8 0 Z M 8 0 "/>
</g>
</svg>
