
<svg xmlns="http://www.w3.org/2000/svg" xmlns:xlink="http://www.w3.org/1999/xlink" width="16px" height="16px" viewBox="0 0 16 16" version="1.1">
<g id="surface1">
<path style=" stroke:none;fill-rule:nonzero;fill:#ff6666;fill-opacity:1;" d="M 12.527344 0.667969 C 12.375 0.664062 12.238281 0.761719 12.191406 0.90625 L 10.460938 6.253906 L 5.539062 6.253906 L 3.808594 0.90625 C 3.761719 0.765625 3.632812 0.671875 3.488281 0.667969 C 3.339844 0.664062 3.207031 0.753906 3.152344 0.894531 L 1.066406 6.476562 C 1.066406 6.476562 1.066406 6.480469 1.066406 6.480469 L 0.0234375 9.273438 C -0.03125 9.421875 0.015625 9.585938 0.144531 9.679688 L 7.792969 15.265625 C 7.796875 15.265625 7.796875 15.265625 7.796875 15.269531 L 7.808594 15.277344 C 7.816406 15.277344 7.820312 15.28125 7.824219 15.285156 C 7.828125 15.285156 7.828125 15.285156 7.828125 15.285156 C 7.828125 15.285156 7.828125 15.289062 7.832031 15.289062 C 7.832031 15.289062 7.832031 15.292969 7.835938 15.292969 L 7.839844 15.296875 C 7.847656 15.296875 7.855469 15.300781 7.863281 15.304688 L 7.886719 15.3125 C 7.890625 15.3125 7.890625 15.3125 7.890625 15.316406 C 7.894531 15.316406 7.902344 15.320312 7.90625 15.320312 C 7.910156 15.320312 7.914062 15.324219 7.917969 15.324219 C 7.925781 15.324219 7.929688 15.328125 7.9375 15.328125 L 7.964844 15.332031 C 7.980469 15.332031 7.992188 15.332031 8.007812 15.332031 C 8.019531 15.332031 8.03125 15.332031 8.046875 15.328125 C 8.050781 15.328125 8.054688 15.328125 8.058594 15.328125 L 8.0625 15.328125 C 8.066406 15.328125 8.066406 15.328125 8.070312 15.328125 C 8.070312 15.328125 8.070312 15.324219 8.074219 15.324219 C 8.078125 15.324219 8.082031 15.324219 8.085938 15.324219 C 8.089844 15.320312 8.09375 15.320312 8.097656 15.316406 C 8.101562 15.316406 8.101562 15.316406 8.101562 15.316406 L 8.109375 15.316406 C 8.121094 15.3125 8.132812 15.308594 8.144531 15.300781 C 8.148438 15.300781 8.148438 15.300781 8.148438 15.300781 L 8.15625 15.296875 C 8.164062 15.292969 8.171875 15.289062 8.179688 15.28125 C 8.183594 15.28125 8.183594 15.28125 8.183594 15.277344 C 8.1875 15.277344 8.1875 15.277344 8.1875 15.277344 C 8.195312 15.273438 8.199219 15.269531 8.207031 15.265625 L 8.207031 15.261719 L 15.855469 9.679688 C 15.984375 9.585938 16.03125 9.421875 15.976562 9.273438 L 14.9375 6.488281 C 14.9375 6.488281 14.933594 6.484375 14.933594 6.480469 L 12.847656 0.894531 C 12.796875 0.757812 12.667969 0.667969 12.527344 0.667969 Z M 2.109375 6.953125 L 5.035156 6.953125 L 7.070312 13.242188 Z M 10.964844 6.953125 L 13.890625 6.953125 L 8.929688 13.242188 Z M 1.5 7.304688 L 6.152344 13.203125 L 0.765625 9.273438 Z M 14.5 7.304688 L 15.234375 9.273438 L 9.847656 13.203125 Z M 14.5 7.304688 "/>
</g>
</svg>
