
<svg xmlns="http://www.w3.org/2000/svg" xmlns:xlink="http://www.w3.org/1999/xlink" width="16px" height="16px" viewBox="0 0 16 16" version="1.1">
<g id="surface1">
<path style=" stroke:none;fill-rule:nonzero;fill:#ff6666;fill-opacity:1;" d="M 8 0.5 C 5.921875 0.5 4.25 2.171875 4.25 4.25 L 4.25 8 L 2.375 8 C 2.375 10.5 2.375 13 2.375 15.5 C 6.125 15.5 9.875 15.5 13.625 15.5 L 13.625 8 C 13 8 12.375 8 11.75 8 L 11.75 4.25 C 11.75 2.171875 10.078125 0.5 8 0.5 Z M 8 1.4375 C 9.558594 1.4375 10.8125 2.902344 10.8125 4.71875 L 10.8125 8 L 5.1875 8 L 5.1875 4.71875 C 5.1875 2.902344 6.441406 1.4375 8 1.4375 Z M 8 1.4375 "/>
</g>
</svg>
