
<svg xmlns="http://www.w3.org/2000/svg" xmlns:xlink="http://www.w3.org/1999/xlink" width="16px" height="16px" viewBox="0 0 16 16" version="1.1">
<g id="surface1">
<path style=" stroke:none;fill-rule:nonzero;fill:#ff6666;fill-opacity:1;" d="M 3.992188 1 C 2.734375 1.015625 1.816406 0.972656 1.0625 1.386719 C 0.671875 1.609375 0.375 1.960938 0.222656 2.382812 C 0.0585938 2.820312 0 3.34375 0 4 L 0 12 C 0 12.65625 0.0585938 13.179688 0.222656 13.617188 C 0.386719 14.054688 0.6875 14.40625 1.0625 14.613281 C 1.816406 15.03125 2.734375 14.984375 3.992188 15 L 12.007812 15 C 13.265625 14.984375 14.183594 15.03125 14.9375 14.613281 C 15.3125 14.40625 15.613281 14.054688 15.777344 13.617188 C 15.941406 13.179688 16 12.65625 16 12 L 16 6 C 16 5.34375 15.941406 4.820312 15.777344 4.382812 C 15.757812 4.328125 15.730469 4.277344 15.703125 4.230469 L 15.675781 4.171875 C 15.515625 3.84375 15.257812 3.566406 14.9375 3.386719 C 14.183594 2.96875 13.265625 3.015625 12.007812 3 L 8.96875 3 L 6.945312 1 Z M 3.992188 1 "/>
</g>
</svg>
