
<svg xmlns="http://www.w3.org/2000/svg" xmlns:xlink="http://www.w3.org/1999/xlink" width="16px" height="16px" viewBox="0 0 16 16" version="1.1">
<g id="surface1">
<path style=" stroke:none;fill-rule:nonzero;fill:#ff6666;fill-opacity:1;" d="M 9.597656 2.667969 C 7.996094 2.667969 6.527344 3.570312 5.800781 4.996094 C 5.484375 4.867188 5.144531 4.800781 4.800781 4.800781 C 3.464844 4.800781 2.339844 5.785156 2.160156 7.109375 C 0.871094 7.554688 0 8.765625 0 10.132812 C 0 11.898438 1.433594 13.332031 3.199219 13.332031 L 12.800781 13.332031 C 14.566406 13.332031 16 11.898438 16 10.132812 C 16 8.773438 15.140625 7.566406 13.859375 7.117188 C 13.863281 7.054688 13.863281 6.992188 13.867188 6.933594 C 13.867188 4.574219 11.953125 2.667969 9.597656 2.667969 Z M 9.597656 5.332031 C 10.511719 5.332031 11.195312 6.015625 11.199219 6.925781 C 11.199219 6.929688 11.199219 6.933594 11.199219 6.933594 C 11.117188 8.132812 11.84375 9.234375 12.976562 9.632812 C 13.199219 9.710938 13.332031 9.898438 13.335938 10.132812 C 13.335938 10.460938 13.125 10.667969 12.800781 10.667969 L 3.199219 10.667969 C 2.875 10.667969 2.667969 10.460938 2.667969 10.136719 L 2.667969 10.132812 C 2.667969 9.898438 2.804688 9.710938 3.027344 9.632812 C 3.980469 9.304688 4.667969 8.46875 4.804688 7.46875 C 6.085938 7.988281 7.550781 7.441406 8.179688 6.207031 C 8.453125 5.667969 8.996094 5.332031 9.597656 5.332031 Z M 9.597656 5.332031 "/>
</g>
</svg>
