
<svg xmlns="http://www.w3.org/2000/svg" xmlns:xlink="http://www.w3.org/1999/xlink" width="16px" height="16px" viewBox="0 0 16 16" version="1.1">
<g id="surface1">
<path style=" stroke:none;fill-rule:evenodd;fill:rgb(57.647061%,58.431375%,59.215689%);fill-opacity:1;" d="M 7.171875 7.113281 L 10.554688 7.113281 L 10.554688 7.96875 L 7.171875 7.96875 Z M 0.238281 1.96875 C -0.0859375 5.265625 -0.078125 10.394531 0.25 13.949219 C 0.335938 14.882812 1.164062 15.703125 2.101562 15.777344 C 5.65625 16.066406 10.738281 16.074219 13.933594 15.792969 C 14.867188 15.707031 15.695312 14.882812 15.78125 13.949219 C 15.875 12.910156 16 10.265625 16 7.699219 C 16 5.152344 15.878906 2.683594 15.804688 1.980469 C 15.707031 1.050781 14.867188 0.246094 13.933594 0.1875 C 9.953125 -0.0585938 4.890625 -0.0546875 2.101562 0.152344 C 1.164062 0.222656 0.332031 1.035156 0.238281 1.96875 Z M 4.636719 5.410156 L 4.636719 6.261719 L 5.058594 6.261719 C 5.292969 6.269531 5.480469 6.074219 5.480469 5.835938 C 5.480469 5.597656 5.292969 5.410156 5.058594 5.410156 Z M 3.789062 4.554688 L 3.789062 3.703125 L 3.367188 3.703125 C 3.128906 3.703125 2.945312 3.890625 2.945312 4.128906 C 2.945312 4.367188 3.128906 4.554688 3.367188 4.554688 Z M 4.636719 2.851562 L 4.636719 1.996094 L 3.789062 1.996094 L 3.789062 2.851562 L 3.367188 2.851562 C 2.664062 2.851562 2.097656 3.421875 2.097656 4.128906 C 2.097656 4.835938 2.664062 5.410156 3.367188 5.410156 L 3.789062 5.410156 L 3.789062 6.261719 L 2.175781 6.261719 C 2.351562 6.757812 2.816406 7.113281 3.367188 7.113281 L 3.789062 7.113281 L 3.789062 7.96875 L 4.636719 7.96875 L 4.636719 7.113281 L 5.058594 7.113281 C 5.757812 7.113281 6.324219 6.542969 6.324219 5.835938 C 6.324219 5.128906 5.757812 4.554688 5.058594 4.554688 L 4.636719 4.554688 L 4.636719 3.703125 L 6.25 3.703125 C 6.070312 3.210938 5.605469 2.851562 5.058594 2.851562 Z M 4.636719 2.851562 "/>
</g>
</svg>
