
<svg xmlns="http://www.w3.org/2000/svg" xmlns:xlink="http://www.w3.org/1999/xlink" width="16px" height="16px" viewBox="0 0 16 16" version="1.1">
<g id="surface1">
<path style=" stroke:none;fill-rule:evenodd;fill:rgb(57.647061%,58.431375%,59.215689%);fill-opacity:1;" d="M 8.398438 6.773438 C 10.046875 7.765625 12.191406 7.230469 13.183594 5.582031 C 14.175781 3.929688 13.640625 1.789062 11.988281 0.796875 C 10.339844 -0.195312 8.195312 0.339844 7.203125 1.988281 C 6.210938 3.640625 6.746094 5.78125 8.398438 6.773438 Z M 9.402344 5.105469 C 9.132812 4.949219 9.113281 4.1875 9.550781 3.460938 C 10.085938 2.566406 11.285156 3.308594 10.746094 4.207031 C 10.296875 4.957031 9.667969 5.257812 9.402344 5.105469 Z M 9.402344 5.105469 "/>
<path style=" stroke:none;fill-rule:evenodd;fill:rgb(57.647061%,58.431375%,59.215689%);fill-opacity:1;" d="M 9.101562 5.402344 L 9.277344 5.507812 L 8.644531 6.5625 L 8.730469 6.617188 L 8.386719 7.1875 L 8.035156 6.976562 L 8.378906 6.40625 L 8.46875 6.457031 Z M 5.84375 10.027344 L 6.386719 9.035156 L 5.503906 8.503906 L 5.820312 7.976562 L 6.679688 8.496094 L 7.640625 6.738281 L 8.035156 6.976562 L 8.386719 7.1875 L 8.785156 7.425781 L 7.683594 9.097656 L 8.542969 9.613281 L 8.226562 10.140625 L 7.34375 9.613281 L 6.722656 10.554688 L 6.546875 10.449219 L 6.480469 10.558594 C 6.285156 10.882812 5.757812 10.570312 5.953125 10.242188 L 6.019531 10.132812 Z M 5.84375 10.027344 "/>
<path style=" stroke:none;fill-rule:evenodd;fill:rgb(57.647061%,58.431375%,59.215689%);fill-opacity:1;" d="M 6.375 6.652344 C 6.417969 6.585938 6.417969 6.503906 6.382812 6.441406 C 6.472656 6.273438 6.4375 6.074219 6.296875 5.988281 C 6.15625 5.90625 5.960938 5.964844 5.855469 6.125 C 5.785156 6.125 5.714844 6.164062 5.671875 6.230469 L 2.984375 10.707031 C 2.921875 10.691406 2.855469 10.71875 2.824219 10.773438 L 2.128906 11.929688 C 2.09375 11.988281 2.101562 12.058594 2.144531 12.101562 L 2.035156 12.285156 L 1.71875 12.8125 C 1.601562 13.007812 1.664062 13.257812 1.859375 13.375 C 2.050781 13.492188 2.304688 13.429688 2.421875 13.234375 L 2.738281 12.707031 L 2.847656 12.527344 C 2.90625 12.539062 2.972656 12.515625 3.007812 12.460938 L 3.703125 11.300781 C 3.734375 11.246094 3.726562 11.175781 3.6875 11.128906 Z M 6.375 6.652344 "/>
<path style=" stroke:none;fill-rule:evenodd;fill:rgb(57.647061%,58.431375%,59.215689%);fill-opacity:1;" d="M 9.453125 8.5 C 9.492188 8.433594 9.5625 8.394531 9.636719 8.394531 C 9.742188 8.238281 9.933594 8.175781 10.074219 8.261719 C 10.21875 8.347656 10.253906 8.546875 10.164062 8.710938 C 10.195312 8.777344 10.195312 8.855469 10.15625 8.921875 L 7.464844 13.402344 C 7.507812 13.449219 7.515625 13.519531 7.480469 13.574219 L 6.785156 14.730469 C 6.753906 14.785156 6.6875 14.8125 6.628906 14.796875 L 6.519531 14.980469 L 5.816406 14.554688 L 5.925781 14.375 C 5.882812 14.328125 5.875 14.257812 5.90625 14.203125 L 6.601562 13.046875 C 6.636719 12.988281 6.703125 12.964844 6.761719 12.980469 Z M 5.5 15.082031 L 5.816406 14.554688 L 6.519531 14.980469 L 6.203125 15.507812 C 6.085938 15.699219 5.832031 15.761719 5.636719 15.644531 C 5.445312 15.53125 5.382812 15.277344 5.5 15.082031 Z M 5.5 15.082031 "/>
</g>
</svg>
