
<svg xmlns="http://www.w3.org/2000/svg" xmlns:xlink="http://www.w3.org/1999/xlink" width="16px" height="16px" viewBox="0 0 16 16" version="1.1">
<g id="surface1">
<path style=" stroke:none;fill-rule:nonzero;fill:#ff6666;fill-opacity:1;" d="M 4.613281 0 L 7.152344 0 C 7.359375 0 7.53125 0.167969 7.53125 0.375 L 7.53125 2.917969 C 7.53125 3.125 7.359375 3.292969 7.152344 3.292969 L 4.613281 3.292969 C 4.402344 3.292969 4.234375 3.125 4.234375 2.917969 L 4.234375 0.375 C 4.234375 0.167969 4.402344 0 4.613281 0 Z M 4.613281 0 "/>
<path style=" stroke:none;fill-rule:nonzero;fill:#ff6666;fill-opacity:1;" d="M 4.613281 4.234375 L 7.152344 4.234375 C 7.359375 4.234375 7.53125 4.402344 7.53125 4.613281 L 7.53125 7.152344 C 7.53125 7.359375 7.359375 7.53125 7.152344 7.53125 L 4.613281 7.53125 C 4.402344 7.53125 4.234375 7.359375 4.234375 7.152344 L 4.234375 4.613281 C 4.234375 4.402344 4.402344 4.234375 4.613281 4.234375 Z M 4.613281 4.234375 "/>
<path style=" stroke:none;fill-rule:nonzero;fill:#ff6666;fill-opacity:1;" d="M 4.613281 8.46875 L 7.152344 8.46875 C 7.359375 8.46875 7.53125 8.640625 7.53125 8.847656 L 7.53125 11.386719 C 7.53125 11.597656 7.359375 11.765625 7.152344 11.765625 L 4.613281 11.765625 C 4.402344 11.765625 4.234375 11.597656 4.234375 11.386719 L 4.234375 8.847656 C 4.234375 8.640625 4.402344 8.46875 4.613281 8.46875 Z M 4.613281 8.46875 "/>
<path style=" stroke:none;fill-rule:nonzero;fill:#ff6666;fill-opacity:1;" d="M 4.613281 12.707031 L 7.152344 12.707031 C 7.359375 12.707031 7.53125 12.875 7.53125 13.082031 L 7.53125 15.625 C 7.53125 15.832031 7.359375 16 7.152344 16 L 4.613281 16 C 4.402344 16 4.234375 15.832031 4.234375 15.625 L 4.234375 13.082031 C 4.234375 12.875 4.402344 12.707031 4.613281 12.707031 Z M 4.613281 12.707031 "/>
<path style=" stroke:none;fill-rule:nonzero;fill:#ff6666;fill-opacity:1;" d="M 8.847656 4.234375 L 11.386719 4.234375 C 11.597656 4.234375 11.765625 4.402344 11.765625 4.613281 L 11.765625 7.152344 C 11.765625 7.359375 11.597656 7.53125 11.386719 7.53125 L 8.847656 7.53125 C 8.640625 7.53125 8.46875 7.359375 8.46875 7.152344 L 8.46875 4.613281 C 8.46875 4.402344 8.640625 4.234375 8.847656 4.234375 Z M 8.847656 4.234375 "/>
<path style=" stroke:none;fill-rule:nonzero;fill:#ff6666;fill-opacity:1;" d="M 8.847656 8.46875 L 11.386719 8.46875 C 11.597656 8.46875 11.765625 8.640625 11.765625 8.847656 L 11.765625 11.386719 C 11.765625 11.597656 11.597656 11.765625 11.386719 11.765625 L 8.847656 11.765625 C 8.640625 11.765625 8.46875 11.597656 8.46875 11.386719 L 8.46875 8.847656 C 8.46875 8.640625 8.640625 8.46875 8.847656 8.46875 Z M 8.847656 8.46875 "/>
<path style=" stroke:none;fill-rule:nonzero;fill:#ff6666;fill-opacity:1;" d="M 8.847656 12.707031 L 11.386719 12.707031 C 11.597656 12.707031 11.765625 12.875 11.765625 13.082031 L 11.765625 15.625 C 11.765625 15.832031 11.597656 16 11.386719 16 L 8.847656 16 C 8.640625 16 8.46875 15.832031 8.46875 15.625 L 8.46875 13.082031 C 8.46875 12.875 8.640625 12.707031 8.847656 12.707031 Z M 8.847656 12.707031 "/>
</g>
</svg>
