
<svg xmlns="http://www.w3.org/2000/svg" xmlns:xlink="http://www.w3.org/1999/xlink" width="16px" height="16px" viewBox="0 0 16 16" version="1.1">
<g id="surface1">
<path style=" stroke:none;fill-rule:nonzero;fill:#ff6666;fill-opacity:1;" d="M 3 1.332031 L 3 2.359375 L 3.992188 2.359375 C 2.734375 2.375 1.816406 2.328125 1.0625 2.753906 C 0.6875 2.96875 0.390625 3.328125 0.226562 3.777344 C 0.0585938 4.226562 0 4.761719 0 5.4375 L 0 11.589844 C 0 12.265625 0.0585938 12.796875 0.226562 13.246094 C 0.390625 13.699219 0.6875 14.058594 1.0625 14.273438 C 1.816406 14.699219 2.734375 14.652344 3.992188 14.667969 L 12.007812 14.667969 C 13.265625 14.652344 14.183594 14.699219 14.9375 14.273438 C 15.3125 14.058594 15.609375 13.699219 15.777344 13.246094 C 15.941406 12.796875 16 12.265625 16 11.589844 L 16 5.4375 C 16 4.761719 15.941406 4.226562 15.773438 3.777344 C 15.609375 3.328125 15.3125 2.96875 14.9375 2.753906 C 14.183594 2.328125 13.265625 2.375 12.007812 2.359375 L 5 2.359375 L 5 1.332031 Z M 4 3.386719 L 12 3.386719 C 13.257812 3.398438 14.085938 3.445312 14.453125 3.652344 C 14.636719 3.757812 14.742188 3.871094 14.839844 4.136719 C 14.9375 4.402344 15 4.828125 15 5.4375 L 15 11.589844 C 15 12.195312 14.9375 12.621094 14.839844 12.886719 C 14.742188 13.152344 14.636719 13.269531 14.453125 13.371094 C 14.085938 13.578125 13.257812 13.625 12 13.640625 L 4 13.640625 C 2.742188 13.625 1.910156 13.578125 1.546875 13.371094 C 1.363281 13.269531 1.257812 13.152344 1.160156 12.886719 C 1.0625 12.621094 1 12.195312 1 11.589844 L 1 5.4375 C 1 4.828125 1.0625 4.402344 1.160156 4.136719 C 1.257812 3.871094 1.363281 3.757812 1.546875 3.652344 C 1.910156 3.445312 2.742188 3.398438 4 3.386719 Z M 8 4.410156 C 5.789062 4.410156 4 6.246094 4 8.511719 C 4 10.777344 5.789062 12.613281 8 12.613281 C 10.210938 12.613281 12 10.777344 12 8.511719 C 12 6.246094 10.210938 4.410156 8 4.410156 Z M 13.5 4.410156 C 13.222656 4.410156 13 4.640625 13 4.921875 C 13 5.207031 13.222656 5.4375 13.5 5.4375 C 13.777344 5.4375 14 5.207031 14 4.921875 C 14 4.640625 13.777344 4.410156 13.5 4.410156 Z M 8 5.4375 C 9.65625 5.4375 11 6.8125 11 8.511719 C 11 10.210938 9.65625 11.589844 8 11.589844 C 6.34375 11.589844 5 10.210938 5 8.511719 C 5 6.8125 6.34375 5.4375 8 5.4375 Z M 7.914062 6.464844 C 6.847656 6.511719 6 7.414062 6 8.511719 C 6 9.644531 6.894531 10.5625 8 10.5625 C 9.105469 10.5625 10 9.644531 10 8.511719 C 9.996094 7.421875 9.164062 6.523438 8.101562 6.46875 C 8.609375 6.519531 9 6.960938 9 7.488281 C 9 8.054688 8.550781 8.511719 8 8.511719 C 7.449219 8.511719 7 8.054688 7 7.488281 C 7 6.953125 7.398438 6.511719 7.914062 6.464844 Z M 7.914062 6.464844 "/>
</g>
</svg>
