
<svg xmlns="http://www.w3.org/2000/svg" xmlns:xlink="http://www.w3.org/1999/xlink" width="16px" height="16px" viewBox="0 0 16 16" version="1.1">
<g id="surface1">
<path style=" stroke:none;fill-rule:nonzero;fill:#ff6666;fill-opacity:1;" d="M 11.183594 0 C 10.390625 0.0273438 9.429688 0.464844 8.859375 1.050781 C 8.347656 1.570312 7.898438 2.398438 8.019531 3.191406 C 8.902344 3.253906 9.8125 2.796875 10.363281 2.210938 C 10.914062 1.625 11.285156 0.8125 11.183594 0 Z M 10.660156 3.207031 C 9.605469 3.292969 8.644531 3.984375 8.101562 3.984375 C 7.484375 3.984375 6.527344 3.230469 5.511719 3.253906 C 4.179688 3.273438 2.945312 4.082031 2.257812 5.363281 C 0.871094 7.945312 1.902344 11.769531 3.253906 13.863281 C 3.914062 14.886719 4.722656 16 5.738281 16 C 6.753906 16 7.109375 15.304688 8.3125 15.304688 C 9.515625 15.304688 9.84375 16 10.90625 16 C 11.96875 16 12.652344 14.933594 13.308594 13.90625 C 14.066406 12.71875 14.382812 11.566406 14.398438 11.507812 C 14.375 11.492188 12.3125 10.648438 12.289062 8.097656 C 12.269531 5.960938 13.917969 4.933594 13.988281 4.882812 C 13.066406 3.433594 11.628906 3.234375 11.113281 3.210938 C 10.960938 3.195312 10.808594 3.195312 10.660156 3.210938 Z M 10.660156 3.207031 "/>
</g>
</svg>
