
<svg xmlns="http://www.w3.org/2000/svg" xmlns:xlink="http://www.w3.org/1999/xlink" width="16px" height="16px" viewBox="0 0 16 16" version="1.1">
<g id="surface1">
<path style=" stroke:none;fill-rule:nonzero;fill:#ff6666;fill-opacity:1;" d="M 14.25 14.992188 C 14.109375 14.972656 13.992188 14.910156 13.894531 14.804688 C 13.683594 14.578125 13.332031 13.910156 13.046875 13.179688 C 12.886719 12.769531 12.578125 11.871094 12.578125 11.808594 C 12.578125 11.789062 12.78125 11.65625 13.027344 11.511719 L 13.480469 11.25 L 13.550781 11.316406 C 13.832031 11.578125 14.636719 12.785156 15.109375 13.644531 C 15.296875 13.984375 15.316406 14.035156 15.316406 14.175781 C 15.316406 14.363281 15.253906 14.496094 15.085938 14.683594 C 14.886719 14.90625 14.539062 15.035156 14.25 14.992188 Z M 0.835938 14.765625 C 0.84375 14.746094 0.984375 14.125 1.144531 13.390625 C 1.300781 12.65625 1.4375 12.050781 1.441406 12.046875 C 1.453125 12.027344 2.898438 13.039062 2.894531 13.066406 C 2.894531 13.082031 2.480469 13.441406 1.96875 13.863281 C 0.824219 14.816406 0.820312 14.820312 0.835938 14.765625 Z M 2.363281 12.175781 C 1.960938 11.898438 1.636719 11.660156 1.640625 11.648438 C 1.648438 11.613281 5.101562 5.769531 5.128906 5.738281 C 5.148438 5.722656 6.65625 6.671875 6.726562 6.742188 C 6.742188 6.757812 3.152344 12.667969 3.125 12.675781 C 3.109375 12.679688 2.765625 12.457031 2.363281 12.175781 Z M 11.839844 10.632812 C 11.5625 10.167969 11.339844 9.785156 11.347656 9.78125 C 11.394531 9.75 12.4375 9.148438 12.449219 9.148438 C 12.46875 9.148438 13.34375 10.894531 13.332031 10.902344 C 13.21875 10.980469 12.382812 11.480469 12.363281 11.480469 C 12.351562 11.476562 12.113281 11.097656 11.839844 10.632812 Z M 0.511719 10.546875 C 0.5 10.464844 0.496094 9.8125 0.5 9.09375 L 0.511719 7.789062 L 1.957031 7.796875 C 2.753906 7.800781 3.40625 7.808594 3.410156 7.808594 C 3.414062 7.816406 3.03125 8.464844 2.558594 9.253906 L 1.703125 10.691406 L 0.527344 10.691406 Z M 4.851562 10.652344 C 4.851562 10.644531 5.246094 9.992188 5.722656 9.203125 L 6.597656 7.769531 L 9.699219 7.769531 L 10.527344 9.152344 C 10.984375 9.910156 11.371094 10.5625 11.390625 10.597656 L 11.425781 10.664062 L 8.140625 10.664062 C 6.332031 10.664062 4.851562 10.65625 4.851562 10.648438 Z M 13.308594 10.039062 C 13.144531 9.695312 12.828125 9.050781 12.613281 8.605469 L 12.21875 7.800781 L 13.289062 7.800781 C 13.878906 7.800781 14.617188 7.792969 14.929688 7.78125 L 15.5 7.761719 L 15.5 10.664062 L 13.613281 10.664062 Z M 10.914062 9.113281 C 10.28125 8.113281 9.632812 6.9375 8.855469 5.367188 C 8.238281 4.125 7.644531 2.839844 7.398438 2.21875 C 7.042969 1.316406 6.960938 0.753906 7.167969 0.703125 C 7.507812 0.617188 8.167969 1.382812 9.105469 2.949219 C 9.839844 4.175781 11.019531 6.316406 11.917969 8.066406 C 12.082031 8.390625 12.25 8.707031 12.285156 8.773438 L 12.351562 8.890625 L 11.792969 9.214844 C 11.484375 9.394531 11.222656 9.542969 11.210938 9.542969 C 11.195312 9.542969 11.066406 9.347656 10.914062 9.113281 Z M 6.050781 6.011719 L 5.269531 5.496094 L 5.34375 5.378906 C 5.386719 5.316406 5.589844 4.988281 5.800781 4.65625 C 6.007812 4.320312 6.183594 4.042969 6.1875 4.039062 C 6.191406 4.035156 6.542969 4.261719 6.96875 4.539062 L 7.742188 5.050781 L 7.628906 5.238281 C 7.5625 5.339844 7.371094 5.652344 7.203125 5.929688 C 7.035156 6.210938 6.878906 6.457031 6.863281 6.480469 C 6.835938 6.519531 6.726562 6.453125 6.050781 6.011719 Z M 7.046875 4.339844 C 6.644531 4.078125 6.3125 3.847656 6.3125 3.832031 C 6.3125 3.722656 6.648438 3.410156 6.8125 3.371094 C 7.082031 3.300781 7.527344 3.476562 7.773438 3.746094 C 7.964844 3.957031 8.007812 4.058594 7.992188 4.273438 C 7.976562 4.433594 7.84375 4.820312 7.804688 4.820312 C 7.792969 4.820312 7.453125 4.605469 7.046875 4.339844 Z M 7.046875 4.339844 "/>
</g>
</svg>
