
<svg xmlns="http://www.w3.org/2000/svg" xmlns:xlink="http://www.w3.org/1999/xlink" width="16px" height="16px" viewBox="0 0 16 16" version="1.1">
<g id="surface1">
<path style=" stroke:none;fill-rule:nonzero;fill:#ff6666;fill-opacity:1;" d="M 8 0 C 3.582031 0 0 3.582031 0 8 C 0 12.417969 3.582031 16 8 16 C 12.417969 16 16 12.417969 16 8 C 16 3.582031 12.417969 0 8 0 Z M 12.152344 10.828125 C 12.152344 10.964844 12.042969 11.078125 11.90625 11.078125 L 10.859375 11.078125 C 10.722656 11.078125 10.613281 10.964844 10.613281 10.828125 L 10.613281 7.609375 C 10.613281 7.585938 10.582031 7.570312 10.558594 7.589844 L 8.34375 9.800781 C 8.15625 9.992188 7.839844 9.992188 7.648438 9.800781 L 5.4375 7.589844 C 5.417969 7.570312 5.382812 7.585938 5.382812 7.609375 L 5.382812 10.828125 C 5.382812 10.964844 5.273438 11.078125 5.136719 11.078125 L 4.089844 11.078125 C 3.953125 11.078125 3.84375 10.964844 3.84375 10.828125 L 3.84375 5.171875 C 3.84375 5.035156 3.953125 4.921875 4.089844 4.921875 L 4.808594 4.921875 C 4.9375 4.921875 5.066406 4.976562 5.15625 5.070312 L 7.910156 7.824219 C 7.960938 7.871094 8.035156 7.871094 8.085938 7.824219 L 10.839844 5.070312 C 10.929688 4.976562 11.054688 4.921875 11.1875 4.921875 L 11.90625 4.921875 C 12.042969 4.921875 12.152344 5.035156 12.152344 5.171875 Z M 12.152344 10.828125 "/>
</g>
</svg>
