
<svg xmlns="http://www.w3.org/2000/svg" xmlns:xlink="http://www.w3.org/1999/xlink" width="16px" height="16px" viewBox="0 0 16 16" version="1.1">
<g id="surface1">
<path style=" stroke:none;fill-rule:nonzero;fill:#ff6666;fill-opacity:1;" d="M 4.046875 2.382812 C 3.78125 2.386719 3.523438 2.457031 3.292969 2.585938 C 2.320312 3.101562 1.425781 4.78125 0.9375 6.960938 C 0.523438 8.8125 0.371094 11.34375 0.617188 12.363281 C 0.835938 13.238281 1.207031 13.625 1.867188 13.625 C 2.847656 13.609375 4.082031 12.515625 4.863281 11.042969 C 5.425781 10.226562 6.738281 9.855469 8 9.894531 C 9.261719 9.851562 10.574219 10.226562 11.136719 11.042969 C 11.917969 12.515625 13.152344 13.609375 14.132812 13.625 C 14.792969 13.625 15.164062 13.238281 15.382812 12.363281 C 15.628906 11.34375 15.476562 8.8125 15.0625 6.960938 C 14.574219 4.78125 13.679688 3.101562 12.707031 2.585938 C 12.171875 2.300781 11.734375 2.308594 11.34375 2.585938 C 10.847656 2.941406 9.816406 3.320312 8 3.320312 C 6.183594 3.320312 5.152344 2.941406 4.65625 2.585938 C 4.484375 2.453125 4.269531 2.378906 4.046875 2.382812 Z M 4.28125 5.199219 L 5.210938 5.199219 L 5.210938 6.140625 L 6.140625 6.140625 L 6.140625 7.078125 L 5.210938 7.078125 L 5.210938 8.019531 L 4.28125 8.019531 L 4.28125 7.078125 L 3.351562 7.078125 L 3.351562 6.140625 L 4.28125 6.140625 Z M 11.253906 5.199219 C 11.511719 5.199219 11.71875 5.410156 11.71875 5.667969 C 11.71875 5.929688 11.511719 6.140625 11.253906 6.140625 C 11.132812 6.136719 11.011719 6.089844 10.925781 6 C 10.839844 5.910156 10.789062 5.792969 10.789062 5.667969 C 10.789062 5.410156 10.996094 5.199219 11.253906 5.199219 Z M 10.324219 6.140625 C 10.582031 6.140625 10.789062 6.347656 10.789062 6.609375 C 10.789062 6.867188 10.582031 7.078125 10.324219 7.078125 C 10.199219 7.078125 10.082031 7.027344 9.996094 6.941406 C 9.90625 6.851562 9.859375 6.734375 9.859375 6.609375 C 9.859375 6.347656 10.066406 6.140625 10.324219 6.140625 Z M 12.183594 6.140625 C 12.441406 6.140625 12.648438 6.347656 12.648438 6.609375 C 12.648438 6.867188 12.441406 7.078125 12.183594 7.078125 C 12.0625 7.078125 11.941406 7.027344 11.855469 6.941406 C 11.769531 6.851562 11.71875 6.734375 11.71875 6.609375 C 11.71875 6.347656 11.929688 6.140625 12.183594 6.140625 Z M 11.253906 7.078125 C 11.511719 7.078125 11.71875 7.289062 11.71875 7.546875 C 11.71875 7.808594 11.511719 8.019531 11.253906 8.019531 C 11.132812 8.015625 11.011719 7.96875 10.925781 7.878906 C 10.839844 7.789062 10.789062 7.671875 10.789062 7.546875 C 10.789062 7.289062 10.996094 7.078125 11.253906 7.078125 Z M 11.253906 7.078125 "/>
</g>
</svg>
