
<svg xmlns="http://www.w3.org/2000/svg" xmlns:xlink="http://www.w3.org/1999/xlink" width="16px" height="16px" viewBox="0 0 16 16" version="1.1">
<g id="surface1">
<path style=" stroke:none;fill-rule:nonzero;fill:#ff6666;fill-opacity:1;" d="M 7.5 0 C 6.398438 0 5.355469 0.320312 5.355469 0.320312 L 5 0.429688 L 5 2.109375 C 3.96875 2.292969 2.964844 2.589844 2.003906 3 L 2 4 L 1 4 L 1 5 L 2 5 L 2.003906 14 C 2.003906 14.4375 2.042969 14.789062 2.152344 15.082031 C 2.265625 15.375 2.464844 15.609375 2.71875 15.75 C 3.21875 16.03125 3.835938 16 4.671875 16 L 10.335938 16 C 11.167969 16 11.785156 16.03125 12.285156 15.75 C 12.539062 15.609375 12.738281 15.375 12.847656 15.082031 C 12.957031 14.789062 13 14.4375 13 14 L 12.996094 6 L 11.996094 6 L 12 14 C 12 14.375 11.960938 14.601562 11.910156 14.730469 C 11.878906 14.820312 11.835938 14.859375 11.800781 14.875 C 11.628906 14.972656 11.191406 15 10.335938 15 L 4.671875 15 C 3.8125 15 3.375 14.972656 3.199219 14.875 C 3.148438 14.839844 3.105469 14.789062 3.089844 14.730469 L 3.089844 14.726562 C 3.042969 14.605469 3.003906 14.378906 3.003906 14 L 3.003906 13.996094 L 3 5 L 14 5 L 14 4 L 12.996094 4 L 13 3 C 12.035156 2.589844 11.03125 2.292969 10 2.109375 L 10 0.449219 L 9.671875 0.332031 C 9.671875 0.332031 8.757812 0 7.5 0 Z M 7.5 1 C 8.390625 1 8.789062 1.15625 9 1.21875 L 9 1.960938 C 8.503906 1.90625 8.003906 1.875 7.503906 1.875 C 7 1.875 6.5 1.90625 6 1.960938 L 6 1.226562 C 6.265625 1.15625 6.773438 1 7.5 1 Z M 5 6 L 5 12 L 6 12 L 6 6 Z M 7 6 L 7 12 L 8 12 L 8 6 Z M 9 6 L 9 12 L 10 12 L 10 6 Z M 9 6 "/>
</g>
</svg>
