
<svg xmlns="http://www.w3.org/2000/svg" xmlns:xlink="http://www.w3.org/1999/xlink" width="16px" height="16px" viewBox="0 0 16 16" version="1.1">
<g id="surface1">
<path style=" stroke:none;fill-rule:nonzero;fill:#ff6666;fill-opacity:1;" d="M 7.5 0 C 6.398438 0 5.355469 0.320312 5.355469 0.320312 L 5 0.429688 L 5 2.109375 C 3.976562 2.296875 2.96875 2.585938 2.003906 3 L 2.003906 4 L 1.003906 4 L 1.003906 5 L 2.003906 5 L 2.003906 14 C 2.003906 14.4375 2.042969 14.789062 2.152344 15.082031 C 2.261719 15.375 2.464844 15.609375 2.714844 15.75 C 3.21875 16.03125 3.835938 16 4.667969 16 L 7.996094 16 L 7.996094 15 L 4.667969 15 C 3.8125 15 3.371094 14.972656 3.199219 14.875 C 3.144531 14.839844 3.105469 14.789062 3.085938 14.730469 L 3.085938 14.726562 C 3.039062 14.605469 3.003906 14.378906 3.003906 14 L 3.003906 5 L 14.003906 5 L 14.003906 4 L 13 4 L 13 3 C 12.035156 2.589844 11.03125 2.292969 10 2.109375 L 10 0.449219 L 9.671875 0.328125 C 9.671875 0.328125 8.757812 0 7.5 0 Z M 7.5 1 C 8.390625 1 8.789062 1.15625 9 1.21875 L 9 1.960938 C 8.503906 1.90625 8.003906 1.875 7.503906 1.875 C 7 1.875 6.5 1.90625 6 1.960938 L 6 1.226562 C 6.265625 1.15625 6.773438 1 7.5 1 Z M 5 6 L 5 12 L 6 12 L 6 6 Z M 7 6 L 7 12 L 8 12 L 8 6 Z M 9 6 L 9 10 L 10 10 L 10 6 Z M 11.996094 6 L 11.996094 8 L 12.996094 8 L 12.996094 6 Z M 11.996094 6 "/>
<path style=" stroke:none;fill-rule:evenodd;fill:rgb(57.647061%,58.431375%,59.215689%);fill-opacity:1;" d="M 11.5 9 C 11.296875 9 11.117188 9.121094 11.039062 9.308594 C 10.960938 9.496094 11.003906 9.710938 11.148438 9.855469 L 11.703125 10.410156 C 11.40625 10.574219 11.203125 10.660156 10.699219 11.035156 C 10.304688 11.335938 9.898438 11.683594 9.578125 12.085938 C 9.257812 12.488281 9 12.957031 9 13.5 C 9 14.359375 9.34375 15.085938 9.984375 15.484375 C 10.625 15.886719 11.457031 16 12.5 16 C 13.542969 16 14.375 15.886719 15.015625 15.484375 C 15.65625 15.085938 16 14.359375 16 13.5 C 16 12.957031 15.742188 12.488281 15.421875 12.085938 C 15.101562 11.683594 14.695312 11.335938 14.300781 11.035156 C 13.796875 10.65625 13.59375 10.574219 13.296875 10.410156 L 13.855469 9.855469 C 13.996094 9.710938 14.039062 9.496094 13.960938 9.308594 C 13.886719 9.121094 13.703125 9 13.5 9 Z M 12.5 11.089844 C 12.675781 11.179688 13.105469 11.390625 13.699219 11.839844 C 14.054688 12.101562 14.398438 12.410156 14.640625 12.710938 C 14.882812 13.011719 15 13.289062 15 13.5 C 15 14.140625 14.84375 14.414062 14.484375 14.640625 C 14.125 14.863281 13.457031 15 12.5 15 C 11.542969 15 10.875 14.863281 10.515625 14.640625 C 10.15625 14.414062 10 14.140625 10 13.5 C 10 13.292969 10.117188 13.011719 10.359375 12.710938 C 10.601562 12.410156 10.945312 12.101562 11.300781 11.839844 C 11.898438 11.390625 12.324219 11.179688 12.5 11.089844 Z M 12.5 11.089844 "/>
</g>
</svg>
