
<svg xmlns="http://www.w3.org/2000/svg" xmlns:xlink="http://www.w3.org/1999/xlink" width="16px" height="16px" viewBox="0 0 16 16" version="1.1">
<g id="surface1">
<path style=" stroke:none;fill-rule:nonzero;fill:#ff6666;fill-opacity:1;" d="M 9.332031 3.332031 C 9.332031 2.324219 10.203125 1.5 11.210938 1.5 C 12.125 1.5 12.789062 2.117188 12.789062 3.058594 C 12.789062 4.109375 11.917969 4.890625 10.890625 4.890625 C 9.949219 4.890625 9.332031 4.269531 9.332031 3.332031 Z M 8.09375 7.84375 C 8.257812 7.429688 8.050781 7.226562 7.867188 7.226562 C 7.019531 7.226562 5.921875 9.21875 5.507812 9.21875 C 5.347656 9.21875 5.210938 9.058594 5.210938 8.921875 C 5.210938 8.507812 6.21875 7.546875 6.515625 7.246094 C 7.433594 6.378906 8.621094 5.714844 9.949219 5.714844 C 10.933594 5.714844 11.988281 6.308594 11.164062 8.53125 L 9.515625 12.996094 C 9.378906 13.339844 9.125 13.914062 9.125 14.277344 C 9.125 14.4375 9.21875 14.597656 9.398438 14.597656 C 10.085938 14.597656 11.347656 12.652344 11.667969 12.652344 C 11.78125 12.652344 11.941406 12.789062 11.941406 12.996094 C 11.941406 13.660156 9.261719 16.5 6.949219 16.5 C 6.125 16.5 5.554688 16.109375 5.554688 15.242188 C 5.554688 14.140625 6.332031 12.265625 6.492188 11.875 C 6.492188 11.875 8.09375 7.84375 8.09375 7.84375 Z M 8.09375 7.84375 "/>
</g>
</svg>
