<?xml version="1.0" encoding="UTF-8" standalone="no"?>
<svg
   width="64"
   version="1.1"
   height="64"
   id="svg17"
   sodipodi:docname="folder-videos.svg"
   inkscape:version="1.3.2 (091e20ef0f, 2023-11-25)"
   xmlns:inkscape="http://www.inkscape.org/namespaces/inkscape"
   xmlns:sodipodi="http://sodipodi.sourceforge.net/DTD/sodipodi-0.dtd"
   xmlns:xlink="http://www.w3.org/1999/xlink"
   xmlns="http://www.w3.org/2000/svg"
   xmlns:svg="http://www.w3.org/2000/svg"
   xmlns:rdf="http://www.w3.org/1999/02/22-rdf-syntax-ns#"
   xmlns:cc="http://creativecommons.org/ns#"
   xmlns:dc="http://purl.org/dc/elements/1.1/">
  <sodipodi:namedview
     pagecolor="#ffffff"
     bordercolor="#666666"
     borderopacity="1"
     objecttolerance="10"
     gridtolerance="10"
     guidetolerance="10"
     inkscape:pageopacity="0"
     inkscape:pageshadow="2"
     inkscape:window-width="1920"
     inkscape:window-height="996"
     id="namedview19"
     showgrid="true"
     inkscape:zoom="4.90625"
     inkscape:cx="55.235669"
     inkscape:cy="61.55414"
     inkscape:window-x="0"
     inkscape:window-y="0"
     inkscape:window-maximized="1"
     inkscape:current-layer="layer1"
     inkscape:document-rotation="0"
     inkscape:showpageshadow="2"
     inkscape:pagecheckerboard="0"
     inkscape:deskcolor="#d1d1d1">
    <inkscape:grid
       type="xygrid"
       id="grid927"
       originx="0"
       originy="0"
       spacingy="1"
       spacingx="1"
       units="px"
       visible="true" />
  </sodipodi:namedview>
  <defs
     id="defs5455">
    <linearGradient
       id="linearGradient3"
       inkscape:collect="always">
      <stop
         style="stop-color:#00bdff;stop-opacity:1;"
         offset="0"
         id="stop3" />
      <stop
         style="stop-color:#b380ff;stop-opacity:1"
         offset="1"
         id="stop4" />
    </linearGradient>
    <clipPath
       clipPathUnits="userSpaceOnUse"
       id="clipPath79425-9-5-3">
      <rect
         style="opacity:0.5;fill:#000000;fill-opacity:1;stroke:none;stroke-width:0.855869;stroke-dasharray:none;stroke-opacity:1;paint-order:stroke fill markers"
         id="rect79427-1-9-6"
         width="26.417742"
         height="29.037542"
         x="-16.227774"
         y="-6.4845476" />
    </clipPath>
    <clipPath
       clipPathUnits="userSpaceOnUse"
       id="clipPath79425-9-5-5">
      <rect
         style="opacity:0.5;fill:#000000;fill-opacity:1;stroke:none;stroke-width:0.855869;stroke-dasharray:none;stroke-opacity:1;paint-order:stroke fill markers"
         id="rect79427-1-9-62"
         width="26.417742"
         height="29.037542"
         x="-16.227774"
         y="-6.4845476" />
    </clipPath>
    <linearGradient
       inkscape:collect="always"
       id="linearGradient2303">
      <stop
         style="stop-color:#ccaaff;stop-opacity:1"
         offset="0"
         id="stop2299" />
      <stop
         style="stop-color:#9955ff;stop-opacity:1"
         offset="0.53057319"
         id="stop5" />
      <stop
         style="stop-color:#b380ff;stop-opacity:1"
         offset="1"
         id="stop2301" />
    </linearGradient>
    <linearGradient
       inkscape:collect="always"
       xlink:href="#linearGradient2303"
       id="linearGradient1419-3"
       x1="0.52915627"
       y1="5.0269842"
       x2="16.403845"
       y2="5.0269842"
       gradientUnits="userSpaceOnUse"
       gradientTransform="matrix(3.779602,0,0,3.8662743,384.57143,480.49982)" />
    <clipPath
       clipPathUnits="userSpaceOnUse"
       id="clipPath79425-9-5-5-6">
      <rect
         style="opacity:0.5;fill:#000000;fill-opacity:1;stroke:none;stroke-width:0.855869;stroke-dasharray:none;stroke-opacity:1;paint-order:stroke fill markers"
         id="rect79427-1-9-62-7"
         width="26.417742"
         height="29.037542"
         x="-16.227774"
         y="-6.4845476" />
    </clipPath>
    <linearGradient
       inkscape:collect="always"
       xlink:href="#linearGradient3"
       id="linearGradient4"
       x1="423.05551"
       y1="501.15784"
       x2="422.7243"
       y2="536.82666"
       gradientUnits="userSpaceOnUse" />
  </defs>
  <metadata
     id="metadata5458">
    <rdf:RDF>
      <cc:Work
         rdf:about="">
        <dc:format>image/svg+xml</dc:format>
        <dc:type
           rdf:resource="http://purl.org/dc/dcmitype/StillImage" />
      </cc:Work>
    </rdf:RDF>
  </metadata>
  <g
     inkscape:label="Capa 1"
     inkscape:groupmode="layer"
     id="layer1"
     transform="translate(-384.57143,-483.798)">
    <path
       id="path32082-9-2"
       style="fill:url(#linearGradient1419-3);fill-opacity:1;stroke:none;stroke-width:5.11693;stroke-linecap:round;stroke-linejoin:round;stroke-opacity:0.03"
       d="m 393.57143,493.798 c -4,0 -7,3.14014 -7,7.32703 v 5.2336 c 0,0 2,-5.2336 5,-5.2336 h 8 12 6 24 c 3,0 5,2.09345 5,5.2336 v 0 0 -5.2336 c 0,-4.18689 -3,-7.32703 -7,-7.32703 h -24.07114 -5.92886 -9 z"
       sodipodi:nodetypes="sccsccccccccccccs" />
    <rect
       x="410.57162"
       y="494.84454"
       width="12"
       height="2.0934412"
       ry="1.0248641"
       stroke-width="3.41941"
       style="fill:#222638;fill-opacity:1;paint-order:stroke markers fill"
       id="rect12-5-9-3-9-9"
       rx="1.0248643" />
    <path
       d="m 418.30476,497.98488 h -3.46666 -4.33334 -16.93333 c -2,0 -3,1.04672 -3,3.14015 v 0 0 h 52 v 0 0 c 0,-2.09343 -1,-3.14015 -3,-3.14015 z"
       style="fill:#222638;fill-opacity:1;stroke-width:2.33915;paint-order:markers stroke fill"
       id="path8-7-2-9-6-1-7-5-1"
       sodipodi:nodetypes="cccccccccccc"
       opacity="0.6" />
    <path
       style="display:inline;fill:#4f4f4f;fill-opacity:1;stroke:none;stroke-width:2.74813;stroke-linecap:round;stroke-linejoin:round;stroke-opacity:0.03"
       d="m -14.026297,2.5011118 6.1666725,4.13e-5 H -3.014907 0.06809547 L 7.9884881,2.5011118 C 9.3097749,2.5157128 10.189967,3.444358 10.189967,4.874457 l -2.06e-4,11.759984 c 0.0082,1.415373 -0.872618,2.358956 -2.6343739,2.358956 H -14.02563 c -1.321306,0 -2.202145,-0.943583 -2.202145,-2.358956 V 4.874457 c 0,-1.4240071 0.880591,-2.3733452 2.201478,-2.3733452 z"
       id="path1611-1-8-0-7-2-9"
       clip-path="url(#clipPath79425-9-5-5-6)"
       transform="matrix(2.271201,0,0,2.2025816,423.42797,495.2891)"
       sodipodi:nodetypes="cccccccssccc" />
    <path
       d="m 418.57143,500.798 h -4 -5 -18.00001 c -3,0 -4.99999,2.05557 -4.99999,5.13889 v 26.72227 c 0,3.08331 1.99999,5.13884 4.99999,5.13884 h 50.00001 c 3,0 5,-2.05553 5,-5.13884 v -26.72227 c 0,-3.08332 -2,-5.13889 -5,-5.13889 z"
       style="fill:url(#linearGradient4);fill-opacity:1;stroke-width:3.83804;paint-order:markers stroke fill"
       id="path8-7-2-9-6-1-9-2"
       sodipodi:nodetypes="ccccsssssscc"
       opacity="0.6" />
    <path
       d="m 386.57143,519.28096 17.1,18.06042 h -10e-6 0.65001 l -17.75,-18.67826 v 0 0 z"
       id="path2653-4-7"
       style="fill:#bac8df;fill-opacity:1;stroke-width:0.48092"
       sodipodi:nodetypes="cccccccc" />
    <path
       d="m 386.57143,525.03173 11.48548,12.3465 -1e-5,0.0102 0.64953,-0.006 v 0.006 l -12.12986,-12.97496 v 0 0 z"
       id="path2653-4-3-0"
       style="fill:#bac8df;fill-opacity:1;stroke-width:0.330034"
       sodipodi:nodetypes="ccccccccc" />
    <path
       d="m 428.4679,510.35105 c -1.35385,0.18658 -2.64813,0.7424 -3.77969,1.62781 -0.36135,0.28186 -1.10375,1.03236 -1.37378,1.38955 -1.11578,1.46115 -1.743,3.31125 -1.743,5.14164 0,3.79567 2.55287,7.13058 6.13414,8.00416 2.83472,0.69094 5.89193,-0.32959 7.77794,-2.6006 0.33747,-0.40908 1.30611,-2.09231 1.48087,-2.57279 0.63116,-1.76687 0.64714,-3.66845 0.0517,-5.49094 -0.8576,-2.62447 -2.98167,-4.64933 -5.57044,-5.32013 -0.2501,-0.0635 -0.65108,-0.143 -0.89724,-0.17476 -0.5361,-0.0753 -1.53255,-0.0753 -2.08048,-0.004 z m 2.11618,0.87752 c 1.0006,0.15089 1.89784,0.50808 2.81895,1.11952 0.56785,0.37712 1.43728,1.22683 1.83827,1.79469 0.50413,0.71854 0.96074,1.71914 1.15937,2.55286 0.93688,3.91876 -1.2866,7.86511 -5.02645,8.91324 -1.19901,0.33747 -2.64813,0.32564 -3.85129,-0.0318 -1.95741,-0.58363 -3.6369,-2.10414 -4.49844,-4.07337 -0.73037,-1.66372 -0.81381,-3.6369 -0.23018,-5.39568 0.18659,-0.56765 0.65109,-1.48896 0.98857,-1.96529 0.35325,-0.49231 1.23471,-1.37772 1.71913,-1.71914 1.46904,-1.03235 3.30337,-1.46509 5.08207,-1.19507 z"
       id="path4-6-9-7"
       style="fill:#d8f0f3;fill-opacity:1;stroke-width:0.0020755" />
    <path
       d="m 428.98408,512.08222 c -0.3574,0.0834 -0.75839,0.36529 -0.98068,0.69094 -0.31755,0.46449 -0.36528,1.13156 -0.11913,1.6357 0.61144,1.24281 2.35839,1.25464 2.96589,0.0199 0.14695,-0.29389 0.15089,-0.31361 0.15089,-0.73846 0,-0.3931 -0.0118,-0.4645 -0.1073,-0.67101 -0.12308,-0.26214 -0.44458,-0.61933 -0.68679,-0.76233 -0.32959,-0.19074 -0.83788,-0.26608 -1.22288,-0.17476 z"
       id="path6-5-1-7"
       style="fill:#d8f0f3;fill-opacity:1;stroke-width:0.0020755" />
    <path
       d="m 433.10519,514.31338 c -0.65897,0.17476 -1.13156,0.68284 -1.25464,1.35385 -0.19842,1.07615 0.81796,2.09252 1.89784,1.8939 0.67889,-0.12308 1.1793,-0.58363 1.34596,-1.23472 0.20257,-0.79803 -0.24615,-1.65562 -1.02032,-1.94952 -0.25819,-0.0992 -0.7148,-0.12702 -0.96884,-0.0635 z"
       id="path8-69-2-6"
       style="fill:#d8f0f3;fill-opacity:1;stroke-width:0.0020755" />
    <path
       d="m 425.18446,514.6629 c -0.86943,0.143 -1.51262,1.0363 -1.35385,1.88995 0.0675,0.36529 0.2144,0.65108 0.45267,0.90118 0.64714,0.65503 1.71125,0.65503 2.35445,0 0.63531,-0.64714 0.64319,-1.6357 0.0199,-2.29094 -0.38542,-0.40887 -0.92131,-0.59151 -1.47319,-0.50019 z"
       id="path10-3-3-7-4"
       style="fill:#d8f0f3;fill-opacity:1;stroke-width:0.0020755" />
    <path
       d="m 429.35331,517.94634 c -0.55188,0.27397 -0.34142,1.11952 0.27791,1.11952 0.48836,0 0.76233,-0.57968 0.44872,-0.95286 -0.19862,-0.23826 -0.4647,-0.30178 -0.72663,-0.16666 z"
       id="path12-7-0-3"
       style="fill:#d8f0f3;fill-opacity:1;stroke-width:0.0020755" />
    <path
       d="m 433.04168,519.09762 c -0.75444,0.2501 -1.2507,1.05207 -1.11973,1.8144 0.11125,0.65109 0.51223,1.12368 1.12762,1.32998 0.20651,0.0714 0.3217,0.0834 0.59961,0.0714 0.29783,-0.0158 0.38106,-0.0357 0.63925,-0.16272 1.23866,-0.61144 1.23866,-2.34241 0,-2.95385 -0.27002,-0.13097 -0.33353,-0.14674 -0.66312,-0.15878 -0.27002,-0.008 -0.41697,0.008 -0.58363,0.0596 z"
       id="path14-4-9-0"
       style="fill:#d8f0f3;fill-opacity:1;stroke-width:0.0020755" />
    <path
       d="m 425.14067,519.55029 c -0.49625,0.17475 -0.90928,0.60355 -1.05207,1.09586 -0.10316,0.34931 -0.0635,0.83373 0.0913,1.1712 0.16272,0.34537 0.44872,0.63137 0.79803,0.79409 0.2501,0.11913 0.29389,0.12702 0.70276,0.12702 0.40493,0 0.45661,-0.008 0.69882,-0.12308 0.33354,-0.15877 0.62722,-0.45266 0.79803,-0.79803 0.12308,-0.25404 0.13097,-0.28973 0.13097,-0.68678 -0.004,-0.57574 -0.0913,-0.79408 -0.47239,-1.17515 -0.3493,-0.3493 -0.59546,-0.45661 -1.09586,-0.48047 -0.27791,-0.012 -0.38521,-2.1e-4 -0.59961,0.0753 z"
       id="path16-5-3-3"
       style="fill:#d8f0f3;fill-opacity:1;stroke-width:0.0020755" />
    <path
       d="m 429.28565,521.68639 c -0.45267,0.0913 -0.93688,0.4645 -1.14339,0.88541 -0.49231,1.00828 0.11913,2.19546 1.22682,2.37811 1.072,0.1787 2.08048,-0.8219 1.8939,-1.87792 -0.16687,-0.94497 -1.05207,-1.56824 -1.97733,-1.3856 z"
       id="path18-2-6-0"
       style="fill:#d8f0f3;fill-opacity:1;stroke-width:0.0020755" />
    <path
       d="m 437.46851,516.10807 c 0.0556,0.20257 0.17871,0.86943 0.22623,1.21085 0.0795,0.55976 0.0714,1.93353 -0.0158,2.49724 -0.15878,1.01637 -0.43668,1.83038 -0.96469,2.82683 -0.54005,1.02426 -1.06017,1.73097 -1.49291,2.04457 -0.11519,0.0834 -0.21834,0.15484 -0.22623,0.16272 -0.0357,0.0239 0.12308,0.51224 0.22623,0.69882 0.14695,0.27397 0.51223,0.59962 0.79014,0.70277 0.41676,0.15877 1.0006,0.14694 1.52051,-0.0239 0.17082,-0.0556 0.19054,-0.0795 0.45661,-0.54005 0.15484,-0.26607 0.5359,-0.87752 0.85366,-1.35779 0.55976,-0.84576 0.9925,-1.54043 0.9925,-1.58423 0,-0.0118 -0.10709,0.0477 -0.23827,0.13491 -0.32149,0.21834 -0.671,0.35325 -0.98067,0.38106 -0.26213,0.0239 -0.26213,0.0239 -0.23827,-0.0714 0.0318,-0.13906 0.13491,-0.75051 0.19469,-1.18719 0.0675,-0.49625 0.0675,-2.32664 0,-2.75938 -0.17476,-1.09981 -0.42092,-1.92959 -0.77832,-2.62841 -0.11913,-0.23432 -0.24615,-0.4645 -0.28185,-0.50829 -0.0633,-0.0787 -0.0633,-0.0787 -0.0436,8.3e-4 z"
       id="path20-5-0-9"
       style="fill:#d8f0f3;fill-opacity:1;stroke-width:0.0020755" />
    <path
       d="m 440.54565,522.63531 c -0.12308,0.0396 -0.26213,0.0992 -0.30966,0.13096 -0.0475,0.0357 -0.54005,0.78226 -1.09587,1.66352 l -1.00848,1.60394 0.12702,0.0118 c 0.25404,0.0239 0.62721,0.12702 0.83373,0.23018 0.39704,0.19841 0.58363,0.45661 0.59151,0.82978 0.004,0.12308 0.0199,0.20651 0.0357,0.19053 0.016,-0.0199 0.51618,-0.78225 1.11164,-1.69921 l 1.07988,-1.66746 -0.0874,-0.33747 c -0.20609,-0.80986 -0.6708,-1.15917 -1.27809,-0.9566 z"
       id="path22-4-6-2"
       style="fill:#d8f0f3;fill-opacity:1;stroke-width:0.0020755" />
  </g>
</svg>
