<?xml version="1.0" encoding="UTF-8" standalone="no"?>
<svg
   width="64"
   height="64"
   version="1.1"
   viewBox="0 0 16.933 16.933"
   id="svg16"
   sodipodi:docname="folder-Projects.svg"
   inkscape:version="1.3.2 (091e20ef0f, 2023-11-25)"
   xmlns:inkscape="http://www.inkscape.org/namespaces/inkscape"
   xmlns:sodipodi="http://sodipodi.sourceforge.net/DTD/sodipodi-0.dtd"
   xmlns:xlink="http://www.w3.org/1999/xlink"
   xmlns="http://www.w3.org/2000/svg"
   xmlns:svg="http://www.w3.org/2000/svg">
  <style
     type="text/css"
     id="current-color-scheme" />
  <defs
     id="defs20">
    <clipPath
       clipPathUnits="userSpaceOnUse"
       id="clipPath79425">
      <rect
         style="opacity:0.5;fill:#000000;fill-opacity:1;stroke:none;stroke-width:0.855869;stroke-dasharray:none;stroke-opacity:1;paint-order:stroke fill markers"
         id="rect79427"
         width="26.417742"
         height="29.037542"
         x="-16.227774"
         y="-6.4845476" />
    </clipPath>
    <clipPath
       clipPathUnits="userSpaceOnUse"
       id="clipPath79425-9">
      <rect
         style="opacity:0.5;fill:#000000;fill-opacity:1;stroke:none;stroke-width:0.855869;stroke-dasharray:none;stroke-opacity:1;paint-order:stroke fill markers"
         id="rect79427-1"
         width="26.417742"
         height="29.037542"
         x="-16.227774"
         y="-6.4845476" />
    </clipPath>
    <clipPath
       clipPathUnits="userSpaceOnUse"
       id="clipPath79425-9-5">
      <rect
         style="opacity:0.5;fill:#000000;fill-opacity:1;stroke:none;stroke-width:0.855869;stroke-dasharray:none;stroke-opacity:1;paint-order:stroke fill markers"
         id="rect79427-1-9"
         width="26.417742"
         height="29.037542"
         x="-16.227774"
         y="-6.4845476" />
    </clipPath>
    <clipPath
       clipPathUnits="userSpaceOnUse"
       id="clipPath79425-9-5-3">
      <rect
         style="opacity:0.5;fill:#000000;fill-opacity:1;stroke:none;stroke-width:0.855869;stroke-dasharray:none;stroke-opacity:1;paint-order:stroke fill markers"
         id="rect79427-1-9-6"
         width="26.417742"
         height="29.037542"
         x="-16.227774"
         y="-6.4845476" />
    </clipPath>
    <clipPath
       clipPathUnits="userSpaceOnUse"
       id="clipPath79425-9-5-5">
      <rect
         style="opacity:0.5;fill:#000000;fill-opacity:1;stroke:none;stroke-width:0.855869;stroke-dasharray:none;stroke-opacity:1;paint-order:stroke fill markers"
         id="rect79427-1-9-62"
         width="26.417742"
         height="29.037542"
         x="-16.227774"
         y="-6.4845476" />
    </clipPath>
    <linearGradient
       inkscape:collect="always"
       id="linearGradient1417">
      <stop
         style="stop-color:#3cb2c3;stop-opacity:1;"
         offset="0"
         id="stop1413" />
      <stop
         style="stop-color:#9d7ed5;stop-opacity:1"
         offset="1"
         id="stop1415" />
    </linearGradient>
    <clipPath
       clipPathUnits="userSpaceOnUse"
       id="clipPath79425-9-5-3-1">
      <rect
         style="opacity:0.5;fill:#000000;fill-opacity:1;stroke:none;stroke-width:0.855869;stroke-dasharray:none;stroke-opacity:1;paint-order:stroke fill markers"
         id="rect79427-1-9-6-8"
         width="26.417742"
         height="29.037542"
         x="-16.227774"
         y="-6.4845476" />
    </clipPath>
    <clipPath
       clipPathUnits="userSpaceOnUse"
       id="clipPath79425-9-5-5-2">
      <rect
         style="opacity:0.5;fill:#000000;fill-opacity:1;stroke:none;stroke-width:0.855869;stroke-dasharray:none;stroke-opacity:1;paint-order:stroke fill markers"
         id="rect79427-1-9-62-0"
         width="26.417742"
         height="29.037542"
         x="-16.227774"
         y="-6.4845476" />
    </clipPath>
    <linearGradient
       inkscape:collect="always"
       id="linearGradient2303-5">
      <stop
         style="stop-color:#a78bda;stop-opacity:1;"
         offset="0"
         id="stop2299-9" />
      <stop
         style="stop-color:#00bdff;stop-opacity:1;"
         offset="1"
         id="stop2301-2" />
    </linearGradient>
    <linearGradient
       inkscape:collect="always"
       xlink:href="#linearGradient1417"
       id="linearGradient1419-3"
       x1="0.52915627"
       y1="5.0269842"
       x2="16.403845"
       y2="5.0269842"
       gradientUnits="userSpaceOnUse"
       gradientTransform="matrix(0.99999999,0,0,1.0229316,-2.4951238e-6,-0.87262672)" />
    <clipPath
       clipPathUnits="userSpaceOnUse"
       id="clipPath79425-9-5-5-6">
      <rect
         style="opacity:0.5;fill:#000000;fill-opacity:1;stroke:none;stroke-width:0.855869;stroke-dasharray:none;stroke-opacity:1;paint-order:stroke fill markers"
         id="rect79427-1-9-62-7"
         width="26.417742"
         height="29.037542"
         x="-16.227774"
         y="-6.4845476" />
    </clipPath>
    <linearGradient
       inkscape:collect="always"
       xlink:href="#linearGradient2303-5"
       id="linearGradient1662-5"
       gradientUnits="userSpaceOnUse"
       gradientTransform="matrix(0.9989725,0,0,1.0327198,0.0013545,-1.0331595)"
       x1="9.3259869"
       y1="14.831515"
       x2="9.3259869"
       y2="4.269978" />
  </defs>
  <sodipodi:namedview
     id="namedview18"
     pagecolor="#ffffff"
     bordercolor="#666666"
     borderopacity="1.0"
     inkscape:showpageshadow="2"
     inkscape:pageopacity="0.0"
     inkscape:pagecheckerboard="0"
     inkscape:deskcolor="#d1d1d1"
     showgrid="true"
     inkscape:zoom="4.0000002"
     inkscape:cx="-30.499998"
     inkscape:cy="13.249999"
     inkscape:window-width="1920"
     inkscape:window-height="996"
     inkscape:window-x="0"
     inkscape:window-y="0"
     inkscape:window-maximized="1"
     inkscape:current-layer="svg16"
     showguides="false">
    <inkscape:grid
       type="xygrid"
       id="grid1950"
       originx="0"
       originy="0"
       spacingy="1"
       spacingx="1"
       units="px"
       visible="true" />
  </sodipodi:namedview>
  <path
     id="path32082-9-2-1"
     style="fill:url(#linearGradient1419-3);fill-opacity:1;stroke:none;stroke-width:1.35383;stroke-linecap:round;stroke-linejoin:round;stroke-opacity:0.03"
     d="m 2.3150555,2.315058 c -1.058312,0 -1.852047,0.8308123 -1.852047,1.9385718 v 1.3846961 c 0,0 0.529156,-1.3846961 1.322891,-1.3846961 h 2.116625 3.1749372 1.5874687 6.3498746 c 0.793735,0 1.322891,0.5538811 1.322891,1.3846961 v 0 0 -1.3846961 c 0,-1.1077595 -0.793734,-1.9385718 -1.852047,-1.9385718 H 8.1169521 6.5483055 4.1671025 Z"
     sodipodi:nodetypes="sccsccccccccccccs" />
  <rect
     x="6.8129354"
     y="2.5919504"
     width="3.1749375"
     height="0.55387872"
     ry="0.27115661"
     stroke-width="0.904701"
     style="fill:#222638;fill-opacity:1;paint-order:stroke markers fill"
     id="rect12-5-9-3-9-9"
     rx="0.27115667" />
  <path
     d="M 8.8589535,3.4228148 H 7.9417511 6.7952442 2.3150555 c -0.529156,0 -0.793734,0.2769392 -0.793734,0.830815 v 0 0 H 15.279383 v 0 0 c 0,-0.5538758 -0.264578,-0.830815 -0.793734,-0.830815 z"
     style="fill:#222638;fill-opacity:1;stroke-width:0.618888;paint-order:markers stroke fill"
     id="path8-7-2-9-6-1-7-5-1"
     sodipodi:nodetypes="cccccccccccc"
     opacity="0.6" />
  <path
     style="display:inline;fill:#4f4f4f;fill-opacity:1;stroke:none;stroke-width:2.74813;stroke-linecap:round;stroke-linejoin:round;stroke-opacity:0.03"
     d="m -14.026297,2.5011118 6.1666725,4.13e-5 H -3.014907 0.06809547 L 7.9884881,2.5011118 C 9.3097749,2.5157128 10.189967,3.444358 10.189967,4.874457 l -2.06e-4,11.759984 c 0.0082,1.415373 -0.872618,2.358956 -2.6343739,2.358956 H -14.02563 c -1.321306,0 -2.202145,-0.943583 -2.202145,-2.358956 V 4.874457 c 0,-1.4240071 0.880591,-2.3733452 2.201478,-2.3733452 z"
     id="path1611-1-8-0-7-2"
     clip-path="url(#clipPath79425-9-5-5-6)"
     transform="matrix(0.60091009,0,0,0.5827549,10.214443,2.7095704)"
     sodipodi:nodetypes="cccccccssccc" />
  <path
     d="M 8.9295085,4.1671048 H 7.8711961 6.5483055 1.7858965 c -0.793734,0 -1.322888,0.5438589 -1.322888,1.3596379 v 7.0701283 c 0,0.815776 0.529154,1.359624 1.322888,1.359624 H 15.014805 c 0.793735,0 1.322891,-0.543848 1.322891,-1.359624 V 5.5267427 c 0,-0.815779 -0.529156,-1.3596379 -1.322891,-1.3596379 z"
     style="fill:url(#linearGradient1662-5);fill-opacity:1;stroke-width:1.01546;paint-order:markers stroke fill"
     id="path8-7-2-9-6-1-9-2"
     sodipodi:nodetypes="ccccsssssscc"
     opacity="0.6" />
  <path
     d="m 0.4630085,9.0572916 4.524286,4.7783924 h -3e-6 0.171979 L 0.4630085,8.8938247 v 0 0 z"
     id="path2653-4-7"
     style="fill:#bac8df;fill-opacity:1;stroke-width:0.127241"
     sodipodi:nodetypes="cccccccc" />
  <path
     d="m 0.4630085,10.57882 3.038807,3.266613 -3e-6,0.0027 0.171852,-0.0016 v 0.0016 l -3.209296,-3.432892 v 0 0 z"
     id="path2653-4-3-0"
     style="fill:#bac8df;fill-opacity:1;stroke-width:0.0873198"
     sodipodi:nodetypes="ccccccccc" />
  <path
     d="M 14.464986,9.8948737 C 14.431826,9.7930674 14.381096,9.6975642 14.31296,9.6083644 14.24469,9.5192604 14.159926,9.4401277 14.058578,9.3709774 13.957174,9.3019014 13.838303,9.2473452 13.701894,9.2072692 c -0.05467,-0.014489 -0.150833,-0.037274 -0.277495,-0.068225 -0.09053,-0.022048 -0.175402,-0.044649 -0.271076,-0.06768 V 7.9474869 c 0.09567,0.025476 0.162136,0.065921 0.233082,0.1108747 0.151792,0.096097 0.246967,0.2604977 0.274848,0.4837357 H 14.3966 C 14.3896,8.3507509 14.34717,8.1938455 14.269078,8.0528869 14.183288,7.8982895 14.067347,7.7656116 13.921146,7.6600303 13.774978,7.5545555 13.599842,7.4741045 13.406881,7.4213243 13.323071,7.3984333 13.249007,7.3791873 13.153335,7.3662273 V 7.0113203 H 12.47299 v 0.3525779 c -0.07442,0.011099 -0.161029,0.025991 -0.238397,0.045175 -0.183291,0.045525 -0.344297,0.1155314 -0.488476,0.2100991 -0.144269,0.094663 -0.258878,0.2137987 -0.346597,0.3574684 -0.08774,0.1437546 -0.130875,0.3138101 -0.130875,0.5102594 0,0.1018912 0.01493,0.2019025 0.04415,0.300149 0.02923,0.09824 0.0791,0.1909961 0.149276,0.2783149 0.07019,0.087315 0.164716,0.1664503 0.283691,0.2373974 0.118879,0.07093 0.262624,0.1282453 0.441967,0.1719045 0.09872,0.024922 0.200171,0.048196 0.285213,0.069901 v 1.2712491 c -0.116916,-0.03103 -0.232666,-0.07865 -0.3261,-0.143288 -0.09748,-0.06726 -0.170789,-0.148326 -0.225343,-0.253898 -0.05077,-0.09811 -0.07522,-0.218201 -0.07874,-0.345767 h -0.730478 c 0.0073,0.223241 0.05581,0.41984 0.145339,0.58862 0.09353,0.176507 0.218276,0.318486 0.374227,0.43119 0.155869,0.112821 0.333727,0.195131 0.544262,0.249718 0.09442,0.02449 0.201188,0.04209 0.296863,0.0556 v 0.375742 h 0.680347 v -0.367169 c 0.106305,-0.01136 0.20152,-0.0286 0.303255,-0.05187 0.198797,-0.04542 0.378919,-0.117317 0.534879,-0.215542 0.155862,-0.09823 0.282989,-0.224599 0.378555,-0.379303 0.09546,-0.154577 0.14399,-0.341077 0.14399,-0.559365 10e-6,-0.101818 -0.01595,-0.2037208 -0.04903,-0.3056122 z M 12.47299,8.9003272 c -0.127566,-0.039794 -0.254194,-0.096612 -0.340711,-0.1705964 -0.09164,-0.07818 -0.134727,-0.1863936 -0.134727,-0.324706 0,-0.098238 0.02569,-0.1800785 0.07446,-0.2455832 0.0487,-0.065491 0.10537,-0.1173376 0.179439,-0.155533 0.0657,-0.033901 0.147126,-0.059164 0.221538,-0.07588 z m 1.263974,1.5921368 c -0.03124,0.07094 -0.08184,0.133688 -0.152048,0.188276 -0.07018,0.05457 -0.167363,0.09916 -0.280396,0.133697 -0.04784,0.01465 -0.08742,0.02598 -0.151197,0.0344 V 9.710212 c 0.106304,0.02789 0.193261,0.05668 0.279856,0.08643 0.0857,0.02917 0.167409,0.07912 0.239578,0.1500577 0.07213,0.07096 0.109588,0.1810363 0.109588,0.3301823 1.2e-5,0.07281 -0.01422,0.144627 -0.04538,0.215576 z"
     id="path25907-1-8"
     style="fill:#d8f0f3;fill-opacity:1;stroke-width:0.0106305" />
</svg>
