<?xml version="1.0" encoding="UTF-8" standalone="no"?>
<svg
   height="16"
   width="16"
   version="1.1"
   id="svg2644"
   sodipodi:docname="preferences-system-linux.svg"
   inkscape:version="1.3.2 (091e20ef0f, 2023-11-25)"
   xmlns:inkscape="http://www.inkscape.org/namespaces/inkscape"
   xmlns:sodipodi="http://sodipodi.sourceforge.net/DTD/sodipodi-0.dtd"
   xmlns:xlink="http://www.w3.org/1999/xlink"
   xmlns="http://www.w3.org/2000/svg"
   xmlns:svg="http://www.w3.org/2000/svg">
  <defs
     id="defs2648">
    <linearGradient
       id="linearGradient1"
       inkscape:collect="always">
      <stop
         style="stop-color:#ffcc00;stop-opacity:1"
         offset="0"
         id="stop1" />
      <stop
         style="stop-color:#00ccff;stop-opacity:1"
         offset="1"
         id="stop2" />
    </linearGradient>
    <linearGradient
       id="a-2"
       gradientUnits="userSpaceOnUse"
       x1="3"
       x2="3"
       xlink:href="#linearGradient1374"
       y1="21"
       y2="1" />
    <linearGradient
       id="linearGradient1374">
      <stop
         offset="0"
         stop-color="#c6cdd1"
         id="stop283-6" />
      <stop
         offset="1"
         stop-color="#e0e5e7"
         id="stop285-2" />
    </linearGradient>
    <linearGradient
       id="b-1"
       gradientUnits="userSpaceOnUse"
       x1="19"
       x2="3"
       xlink:href="#linearGradient1374"
       y1="21"
       y2="21" />
    <linearGradient
       id="c-9"
       gradientTransform="matrix(0.75,0,0,1,2.75,-1)"
       gradientUnits="userSpaceOnUse"
       x1="3"
       x2="3"
       y1="21"
       y2="19">
      <stop
         offset="0"
         stop-color="#2f3943"
         id="stop265-4" />
      <stop
         offset="1"
         stop-color="#4d5662"
         id="stop267-78" />
    </linearGradient>
    <linearGradient
       id="d-4"
       gradientUnits="userSpaceOnUse"
       x1="11"
       x2="11"
       xlink:href="#linearGradient1374"
       y1="4"
       y2="17" />
    <linearGradient
       id="e-50"
       gradientTransform="matrix(0.625,0,0,0.71429,137.214,166.657)"
       gradientUnits="userSpaceOnUse"
       x1="5"
       x2="5"
       y1="5"
       y2="16">
      <stop
         offset="0"
         stop-color="#2e5d89"
         id="stop271-36" />
      <stop
         offset="1"
         stop-color="#1b92f4"
         id="stop273-1" />
    </linearGradient>
    <linearGradient
       id="f-06"
       gradientTransform="matrix(0.375,0,0,0.66667,-142.2142,357.868)"
       gradientUnits="userSpaceOnUse"
       x1="418.17099"
       x2="418.17099"
       xlink:href="#linearGradient1387"
       y1="-521.79797"
       y2="-518.79797" />
    <linearGradient
       id="linearGradient1387">
      <stop
         offset="0"
         stop-color="#84cbfe"
         id="stop278-6" />
      <stop
         offset="1"
         stop-color="#84cbfe"
         stop-opacity="0"
         id="stop280-2" />
    </linearGradient>
    <linearGradient
       id="g-615"
       gradientTransform="matrix(0.375,0,0,-0.66667,-142.2142,-338.868)"
       gradientUnits="userSpaceOnUse"
       x1="418.17099"
       x2="418.17099"
       xlink:href="#linearGradient1387"
       y1="-521.79797"
       y2="-518.79797" />
    <linearGradient
       id="j"
       gradientTransform="matrix(-6.639062e-4,-0.33908148,0.33113178,-6.4834867e-4,-171.74144,124.51715)"
       gradientUnits="userSpaceOnUse"
       x1="390.57101"
       x2="413.62451"
       y1="507.67401"
       y2="531.28375">
      <stop
         offset="0"
         id="stop288" />
      <stop
         offset="1"
         stop-opacity="0"
         id="stop290" />
    </linearGradient>
    <linearGradient
       id="linearGradient3975"
       gradientUnits="userSpaceOnUse"
       x1="10.355895"
       x2="10.355895"
       y1="18.065456"
       y2="1.9994709"
       gradientTransform="matrix(0.85549446,0,0,0.85549446,-34.342004,-6.4521974)">
      <stop
         offset="0"
         stop-color="#1d1e1e"
         id="stop2610-3" />
      <stop
         offset="1"
         stop-color="#44484c"
         id="stop2612-6" />
    </linearGradient>
    <linearGradient
       id="b-7"
       gradientUnits="userSpaceOnUse"
       x1="11.886601"
       x2="11.661686"
       y1="18.022402"
       y2="9.4762812">
      <stop
         offset="0"
         stop-color="#fcfcfc"
         id="stop2605-5" />
      <stop
         offset="1"
         stop-color="#eff0f1"
         id="stop2607-3" />
    </linearGradient>
    <linearGradient
       id="e-5"
       gradientUnits="userSpaceOnUse"
       x1="7.1428261"
       x2="7.1428261"
       xlink:href="#a"
       y1="19.993298"
       y2="14.209132" />
    <linearGradient
       id="linearGradient3983">
      <stop
         offset="0"
         stop-color="#f39c1f"
         id="stop2600-6" />
      <stop
         offset="1"
         stop-color="#fdbc4b"
         id="stop2602-2" />
    </linearGradient>
    <linearGradient
       id="f-9"
       gradientUnits="userSpaceOnUse"
       x1="9.1779842"
       x2="11.427132"
       y1="7.534945"
       y2="9.7840929">
      <stop
         offset="0"
         id="stop2617-1" />
      <stop
         offset="1"
         stop-opacity="0"
         id="stop2619-2" />
    </linearGradient>
    <linearGradient
       id="linearGradient3988"
       gradientTransform="matrix(0.57860791,0,0,0.51930566,-34.301593,-5.5524368)"
       gradientUnits="userSpaceOnUse"
       x1="16"
       x2="15.731"
       xlink:href="#a"
       y1="12"
       y2="8.1520004" />
    <linearGradient
       gradientTransform="matrix(0.84996453,0,0,0.84991636,-313.13599,-488.65123)"
       gradientUnits="userSpaceOnUse"
       x2="426.69501"
       y2="499.92099"
       y1="547.67499"
       id="a-6"
       x1="389.32001">
      <stop
         stop-color="#18222a"
         style="stop-color:#1e2b35;stop-opacity:1"
         id="stop216" />
      <stop
         stop-color="#566069"
         offset="1"
         style="stop-color:#6d7983;stop-opacity:1"
         id="stop218" />
    </linearGradient>
    <linearGradient
       id="a-3">
      <stop
         offset="0"
         stop-color="#292c2f"
         id="stop8" />
      <stop
         offset="1"
         stop-opacity="0"
         id="stop10" />
    </linearGradient>
    <linearGradient
       id="d-6"
       gradientTransform="matrix(0.52174,0,0,0.53846,45.597466,-33.196963)"
       gradientUnits="userSpaceOnUse"
       x1="1.3329999"
       x2="1.3329999"
       y1="48.714001"
       y2="9.7139997">
      <stop
         offset="0"
         stop-color="#eef1f2"
         id="stop19-7" />
      <stop
         offset="1"
         stop-color="#f9fafb"
         id="stop21" />
    </linearGradient>
    <linearGradient
       id="b-3"
       gradientUnits="userSpaceOnUse"
       x1="6"
       x2="20"
       y1="5"
       y2="16"
       gradientTransform="matrix(0.38666491,0,0,0.38666491,-14.932957,-19.595831)">
      <stop
         offset="0"
         stop-color="#31363b"
         id="stop7" />
      <stop
         offset="1"
         stop-color="#232629"
         id="stop9" />
    </linearGradient>
    <linearGradient
       id="c-6"
       gradientUnits="userSpaceOnUse"
       x1="7"
       x2="14"
       y1="7"
       y2="14"
       gradientTransform="matrix(0.38666491,0,0,0.38666491,-14.932957,-19.595831)">
      <stop
         offset="0"
         stop-color="#292c2f"
         id="stop12" />
      <stop
         offset="1"
         stop-opacity="0"
         id="stop14" />
    </linearGradient>
    <linearGradient
       id="b-7-9"
       gradientUnits="userSpaceOnUse"
       x1="11.886601"
       x2="11.661686"
       y1="18.022402"
       y2="9.4762812">
      <stop
         offset="0"
         stop-color="#fcfcfc"
         id="stop2605-5-1" />
      <stop
         offset="1"
         stop-color="#eff0f1"
         id="stop2607-3-2" />
    </linearGradient>
    <linearGradient
       id="e-5-7"
       gradientUnits="userSpaceOnUse"
       x1="7.1428261"
       x2="7.1428261"
       xlink:href="#linearGradient3983"
       y1="19.993298"
       y2="14.209132" />
    <linearGradient
       id="f-9-3"
       gradientUnits="userSpaceOnUse"
       x1="9.1779842"
       x2="11.427132"
       y1="7.534945"
       y2="9.7840929">
      <stop
         offset="0"
         id="stop2617-1-6" />
      <stop
         offset="1"
         stop-opacity="0"
         id="stop2619-2-0" />
    </linearGradient>
    <linearGradient
       inkscape:collect="always"
       xlink:href="#linearGradient1"
       id="linearGradient2"
       x1="2.7509587"
       y1="2"
       x2="13.25096"
       y2="13.999963"
       gradientUnits="userSpaceOnUse"
       gradientTransform="matrix(1.0833169,0,0,1.0833169,-0.66759704,-0.66663356)" />
  </defs>
  <sodipodi:namedview
     id="namedview2646"
     pagecolor="#ffffff"
     bordercolor="#666666"
     borderopacity="1.0"
     inkscape:showpageshadow="2"
     inkscape:pageopacity="0.0"
     inkscape:pagecheckerboard="0"
     inkscape:deskcolor="#d1d1d1"
     showgrid="false"
     inkscape:zoom="22.512993"
     inkscape:cx="8.7060836"
     inkscape:cy="13.170172"
     inkscape:window-width="1920"
     inkscape:window-height="994"
     inkscape:window-x="0"
     inkscape:window-y="0"
     inkscape:window-maximized="1"
     inkscape:current-layer="svg2644" />
  <linearGradient
     id="a">
    <stop
       offset="0"
       stop-color="#f39c1f"
       id="stop2600" />
    <stop
       offset="1"
       stop-color="#fdbc4b"
       id="stop2602" />
  </linearGradient>
  <linearGradient
     id="b"
     gradientUnits="userSpaceOnUse"
     x1="11.886601"
     x2="11.661686"
     y1="18.022402"
     y2="9.4762812">
    <stop
       offset="0"
       stop-color="#fcfcfc"
       id="stop2605" />
    <stop
       offset="1"
       stop-color="#eff0f1"
       id="stop2607" />
  </linearGradient>
  <linearGradient
     id="c"
     gradientUnits="userSpaceOnUse"
     x1="10.355895"
     x2="10.355895"
     y1="18.065456"
     y2="1.9994709"
     gradientTransform="matrix(0.85549446,0,0,0.85549446,-34.342004,-6.4521974)">
    <stop
       offset="0"
       stop-color="#1d1e1e"
       id="stop2610" />
    <stop
       offset="1"
       stop-color="#44484c"
       id="stop2612" />
  </linearGradient>
  <linearGradient
     id="d"
     gradientTransform="matrix(0.57860791,0,0,0.51930566,-34.301593,-5.5524368)"
     gradientUnits="userSpaceOnUse"
     x1="16"
     x2="15.731"
     xlink:href="#a"
     y1="12"
     y2="8.1520004" />
  <linearGradient
     id="e"
     gradientUnits="userSpaceOnUse"
     x1="7.1428261"
     x2="7.1428261"
     xlink:href="#a"
     y1="19.993298"
     y2="14.209132" />
  <linearGradient
     id="f"
     gradientUnits="userSpaceOnUse"
     x1="9.1779842"
     x2="11.427132"
     y1="7.534945"
     y2="9.7840929">
    <stop
       offset="0"
       id="stop2617" />
    <stop
       offset="1"
       stop-opacity="0"
       id="stop2619" />
  </linearGradient>
  <g
     id="g3"
     transform="matrix(0.02601295,0,0,0.02539019,1.3407691,1.5)">
    <path
       style="fill:#000000;fill-opacity:1"
       d="m 259.345,110.181 c -0.076,-0.789 -0.112,-1.578 -0.112,-2.369 0,-11.578 7.584,-20.997 16.903,-20.997 9.537,0 17.007,9.223 17.007,20.997 0,2.666 -0.401,5.236 -1.148,7.61 2.795,-4.442 4.412,-10.032 4.412,-15.892 0,-14.079 -9,-25.535 -20.06,-25.535 -11.063,0 -20.06,11.455 -20.06,25.535 0,3.461 0.542,6.849 1.615,10.099 0.467,0.178 0.949,0.363 1.443,0.552 z"
       id="path1" />
    <path
       style="fill:#000000;fill-opacity:1"
       d="m 209.407,87.924 c 0.604,-0.092 1.157,-0.134 1.707,-0.134 7.418,0 14.069,7.281 15.812,17.311 0.175,1.1 0.285,2.196 0.334,3.277 0.482,-0.245 0.972,-0.475 1.471,-0.688 0.245,-1.739 0.364,-3.369 0.364,-5.006 0,-12.986 -6.879,-23.957 -15.019,-23.957 -6.933,0 -12.775,7.636 -14.44,17.95 1.896,-4.704 5.357,-8.02 9.771,-8.753 z"
       id="path2" />
  </g>
  <g
     id="g6"
     transform="matrix(0.02401232,0,0,0.02343746,1.7650671,2.0405654)" />
  <path
     d="m 13.334586,11.937729 c -0.390558,-0.156075 -0.557637,-0.363283 -0.541483,-0.67246 0.01668,-0.360847 -0.193096,-0.625108 -0.292701,-0.729536 0.06014,-0.224373 0.236017,-1.000525 1.82e-4,-1.6747114 C 12.247139,8.139433 11.473334,7.0373716 10.674917,5.9540482 10.348067,5.5091615 10.332613,5.0255288 10.314745,4.4655483 10.297626,3.9314406 10.278334,3.3260366 9.9731669,2.6530195 9.6413729,1.9202078 8.9755957,1.5 8.1464856,1.5 7.6532528,1.5 7.1469646,1.650462 6.7573671,1.9127687 5.9595498,2.4502022 6.0650062,3.6219338 6.1347989,4.3972235 c 0.00961,0.106187 0.018536,0.2064725 0.0238,0.292088 0.046462,0.7593706 0.0041,1.1596213 -0.05109,1.281266 C 6.0717501,6.0500712 5.8956883,6.2763002 5.7093553,6.5158566 5.516653,6.7636141 5.2981685,7.0443794 5.1190963,7.3060246 4.9054272,7.6208892 4.7329339,8.1021344 4.5661401,8.567511 4.444088,8.9080181 4.3287972,9.2296872 4.2165752,9.4220172 4.0038683,9.7918 4.0568069,10.136626 4.1009746,10.296 c -0.080533,0.05459 -0.1968658,0.16214 -0.295064,0.364755 -0.118697,0.247198 -0.3595248,0.380015 -0.8603009,0.47401 -0.2301366,0.04592 -0.3888145,0.140406 -0.4717963,0.280711 -0.120753,0.204215 -0.054948,0.460782 0.0049,0.636179 0.08865,0.257736 0.0334,0.420892 -0.067037,0.71717 -0.02314,0.06837 -0.0494,0.145766 -0.075981,0.231101 -0.04188,0.134771 -0.02676,0.257228 0.044795,0.36412 0.1891145,0.282163 0.7410048,0.381693 1.3091264,0.447199 0.3392092,0.03928 0.7104661,0.171714 1.0695498,0.299808 0.3518247,0.125477 0.7156414,0.255271 1.0463194,0.294651 0.050242,0.0057 0.1000423,0.0095 0.1480388,0.0095 0.4992918,0 0.7248775,-0.323344 0.7964121,-0.456189 0.1793333,-0.03568 0.7978964,-0.150104 1.4354205,-0.165488 0.6365117,-0.01773 1.2523403,0.10499 1.4268125,0.143072 0.05483,0.102482 0.19944,0.336497 0.4299201,0.457122 0.126673,0.06753 0.302966,0.106279 0.48352,0.106279 5.3e-5,0 0,0 5.3e-5,0 0.192833,0 0.559696,-0.04449 0.850052,-0.342688 0.289602,-0.299508 1.013174,-0.681961 1.541551,-0.961176 0.117916,-0.06231 0.228211,-0.120629 0.324928,-0.173211 0.29681,-0.160593 0.458763,-0.390043 0.444328,-0.629523 -0.01205,-0.199008 -0.146973,-0.373489 -0.35206,-0.455476 z M 8.5293189,3.3787465 c 0.2877268,0 0.5218186,0.2908446 0.5218186,0.6483391 0,0.148761 -0.042065,0.2906917 -0.1147699,0.4035007 0.01938,-0.060275 0.02986,-0.1255294 0.02986,-0.1932193 0,-0.2989444 -0.1943156,-0.5331173 -0.4424026,-0.5331173 -0.2424409,0 -0.4396977,0.2391495 -0.4396977,0.5331173 0,0.020083 9.998e-4,0.040118 0.0028,0.060149 -0.012838,-0.00479 -0.025349,-0.00951 -0.037589,-0.01402 -0.02792,-0.082518 -0.042003,-0.168541 -0.042003,-0.2564163 2.6e-5,-0.3574686 0.2340895,-0.648338 0.5218715,-0.648338 z M 7.6444604,4.6779369 c 0.1096272,0.018891 0.3799451,0.1242098 0.5774101,0.2011416 0.09125,0.035541 0.170098,0.06627 0.2255336,0.08567 0.1746739,0.0586 0.2657732,0.1335773 0.2768025,0.161583 -0.0041,0.0181 -0.01297,0.026077 -0.1105353,0.075616 -0.04926,0.025 -0.1105546,0.05614 -0.1872913,0.1017893 L 8.375109,5.3340478 C 8.1690836,5.4559955 7.686673,5.741508 7.5557237,5.758215 7.466751,5.7698931 7.4117424,5.7361803 7.2880514,5.6541623 7.2601451,5.6356269 7.2304514,5.6159213 7.1988186,5.5961182 6.9758094,5.4532471 6.8323477,5.296006 6.8161684,5.2345116 6.8888807,5.1796632 7.0690924,5.0423582 7.1613609,4.9610335 7.3486532,4.7910461 7.5371166,4.6768155 7.630399,4.6768155 c 0.0049,-7.56e-5 0.0095,2.536e-4 0.01407,0.0011 z M 6.9094388,3.498817 c 0.211798,0 0.3906872,0.2785305 0.3906872,0.6082725 0,0.04159 -0.003,0.08295 -0.0095,0.1271035 -0.01296,0.0054 -0.02574,0.0113 -0.03827,0.01746 -0.0013,-0.027492 -0.0041,-0.05527 -0.0088,-0.0832 C 7.1982208,3.9137921 7.0251943,3.7289262 6.8322297,3.7289262 c -0.0143,0 -0.02863,0.00109 -0.044407,0.0034 C 6.6730264,3.7509596 6.5829703,3.8351007 6.533623,3.9544828 6.5769764,3.6926344 6.7289808,3.4987792 6.9092772,3.4987792 Z m -0.6451737,9.912431 c -0.0456,0.209241 -0.2883009,0.379379 -0.3455564,0.417008 -0.02078,0.0042 -0.04652,0.0074 -0.076751,0.0074 -0.332133,0 -0.989611,-0.269723 -1.3428414,-0.414599 l -0.05226,-0.02149 C 4.2495984,13.318516 3.9276106,13.267678 3.6162089,13.218474 3.368436,13.179313 3.0291488,13.12572 2.9728835,13.077255 c -0.0456,-0.04988 0.0075,-0.212212 0.05393,-0.355339 0.033601,-0.102875 0.06826,-0.20924 0.08725,-0.3206 0.02695,-0.177554 -0.0047,-0.322226 -0.030108,-0.438414 -0.02157,-0.09856 -0.0386,-0.176335 -0.02032,-0.251691 0.01327,-0.05584 0.2956631,-0.115629 0.4162862,-0.141219 0.169551,-0.03601 0.3449291,-0.07308 0.4595951,-0.141045 0.1550646,-0.09169 0.2390348,-0.260756 0.3130924,-0.40995 0.053601,-0.107832 0.1089892,-0.219422 0.1748853,-0.256034 0.0037,-0.002 0.0095,-0.0043 0.020214,-0.0043 0.1234568,0 0.3824932,0.253269 0.5317559,0.480053 0.03784,0.05711 0.1079742,0.171639 0.1891157,0.304277 0.2426747,0.396313 0.5749367,0.939108 0.74847,1.120999 0.1563628,0.163515 0.409496,0.477973 0.3472463,0.747618 z m 3.6032108,-2.769839 c -0.05579,0.260071 -0.0617,1.09185 -0.06233,1.2788 -0.113809,0.141118 -0.6892946,0.805684 -1.5155445,0.925169 -0.3365529,0.04776 -0.6508159,0.07192 -0.9340457,0.07192 -0.2421028,0 -0.3965925,-0.01825 -0.460741,-0.02767 L 6.479619,12.42593 C 6.6432931,12.346989 6.8069658,12.180509 6.763862,11.880119 6.7269324,11.626086 6.3921137,11.37414 6.0043893,11.082381 5.6873696,10.843867 5.3280269,10.573512 5.2290205,10.344491 5.0244306,9.872182 5.1857202,9.0415941 5.4668831,8.6139213 5.6058447,8.399782 5.7193393,8.0750157 5.829115,7.7610155 5.9476299,7.4219035 6.0702018,7.0712652 6.2072901,6.917807 6.4243686,6.6781741 6.6249802,6.211934 6.6605131,5.844487 6.86378,6.0338476 7.1791077,6.274242 7.4704267,6.274242 c 0.04487,0 0.0884,-0.0057 0.1299872,-0.01719 0.1993109,-0.056193 0.492452,-0.2215067 0.7759407,-0.3813383 0.2444179,-0.1378432 0.5458043,-0.3078298 0.65922,-0.3232919 0.1944456,0.2725375 1.3243704,2.7131442 1.4398144,3.4969141 0.09133,0.6201541 -0.0046,1.1328091 -0.05363,1.3336181 -0.03903,-0.0048 -0.08559,-0.0097 -0.134488,-0.0097 -0.3147561,2.5e-5 -0.3980771,0.167702 -0.4197711,0.267868 z m 3.1581551,1.817529 c -0.06593,0.05876 -0.297822,0.174405 -0.522107,0.286172 -0.397868,0.198247 -0.848831,0.423026 -1.051337,0.630948 -0.285155,0.2929 -0.607689,0.489649 -0.802449,0.489649 -0.02345,0 -0.04479,-0.0027 -0.06379,-0.0091 -0.211434,-0.06429 -0.385538,-0.362215 -0.29197,-0.78702 0.09859,-0.433994 0.212084,-1.024265 0.19372,-1.372313 -0.0038,-0.07904 -0.01142,-0.165088 -0.01832,-0.248317 -0.01296,-0.155565 -0.03224,-0.386769 -0.01234,-0.455374 0.0036,-0.0017 0.0088,-0.0031 0.01314,-0.0043 8.29e-4,0.198957 0.04514,0.595831 0.370266,0.734208 0.09692,0.04129 0.207634,0.06218 0.329116,0.06218 0.325706,0 0.687107,-0.155923 0.835148,-0.300442 0.08717,-0.08499 0.160474,-0.189157 0.211824,-0.271599 0.01125,0.03212 0.01814,0.07404 0.01449,0.128069 -0.01937,0.29346 0.126762,0.682767 0.404842,0.826247 l 0.04048,0.02079 c 0.09901,0.05068 0.3621,0.185527 0.366339,0.249433 -1.31e-4,0 -0.0021,0.0079 -0.01699,0.02082 z"
     id="path7"
     style="fill:url(#linearGradient2);stroke-width:0.0256995" />
</svg>
