<?xml version="1.0" encoding="UTF-8" standalone="no"?>
<svg
   viewBox="0 0 22 22"
   version="1.1"
   id="svg1"
   sodipodi:docname="system-switch-user.svg"
   inkscape:version="1.3.2 (091e20ef0f, 2023-11-25)"
   width="22"
   height="22"
   xmlns:inkscape="http://www.inkscape.org/namespaces/inkscape"
   xmlns:sodipodi="http://sodipodi.sourceforge.net/DTD/sodipodi-0.dtd"
   xmlns="http://www.w3.org/2000/svg"
   xmlns:svg="http://www.w3.org/2000/svg">
  <sodipodi:namedview
     id="namedview1"
     pagecolor="#ffffff"
     bordercolor="#000000"
     borderopacity="0.25"
     inkscape:showpageshadow="2"
     inkscape:pageopacity="0.0"
     inkscape:pagecheckerboard="0"
     inkscape:deskcolor="#d1d1d1"
     inkscape:zoom="17.431818"
     inkscape:cx="11.301174"
     inkscape:cy="11.473273"
     inkscape:window-width="1920"
     inkscape:window-height="996"
     inkscape:window-x="0"
     inkscape:window-y="0"
     inkscape:window-maximized="1"
     inkscape:current-layer="svg1"
     showgrid="false">
    <inkscape:grid
       id="grid1"
       units="px"
       originx="-2"
       originy="-32"
       spacingx="1"
       spacingy="1"
       empcolor="#0099e5"
       empopacity="0.30196078"
       color="#0099e5"
       opacity="0.14902"
       empspacing="5"
       dotted="false"
       gridanglex="30"
       gridanglez="30"
       visible="false" />
  </sodipodi:namedview>
  <defs
     id="defs1">
    <style
       type="text/css"
       id="style1">.ColorScheme-Text {
        color:#d8dee9;
      }</style>
  </defs>
  <path
     d="m 9.377987,-28.999971 c -1.9833595,0 -3.2106577,1.216949 -3.3872135,2.695878 v 0.980494 l -2.1443625,-1.464192 -0.8463519,0.638613 3.385423,2.554388 3.3854139,-2.554388 -0.84633,-0.638613 -1.9368166,1.464192 v -0.980494 c 0,-0.997447 1.0613136,-1.732335 2.3901026,-1.732721 1.32878,3.5e-4 2.612925,0.735447 2.59446,1.732721 v 0.783046 h 0.996922 V -26.30441 C 12.969234,-27.793163 11.361401,-29 9.378058,-29 Z m 2.594289,4.442082 c -1.101198,0 -1.993831,0.862441 -1.993831,1.926316 0,1.063901 0.892652,1.926315 1.993831,1.926315 1.10119,0 1.99382,-0.86244 1.99382,-1.926315 0,-1.063905 -0.892664,-1.926316 -1.99382,-1.926316 z m -5.9815025,1.926316 a 1.9938294,1.9263144 0 0 0 -1.9938289,1.926315 1.9938294,1.9263144 0 0 0 1.9938289,1.926307 1.9938294,1.9263144 0 0 0 1.9938355,-1.926307 1.9938294,1.9263144 0 0 0 -1.9938355,-1.926315 z m 5.9970575,2.889473 c -1.514138,0 -2.755689,1.120254 -2.969333,2.57346 0.58109,0.637743 0.959931,1.279163 0.959931,2.24232 h 4.416027 c 0.392008,-0.520696 0.604865,-1.154428 0.605544,-1.805918 10e-7,-1.66231 -1.348043,-3.009862 -3.012164,-3.009862 z m -0.04878,0.963149 c 1.099192,0 1.989934,0.808548 1.989934,1.805919 -4.57e-4,0.39091 -0.140232,0.771143 -0.399147,1.083555 h -2.8116 c -0.08533,-0.518662 -0.356085,-0.98231 -0.739895,-1.346879 0.141087,-0.871928 0.960621,-1.542595 1.960732,-1.542595 z M 5.9907412,-17.81578 A 2.9907437,3.0098662 0 0 0 3,-14.805921 2.9907437,3.0098662 0 0 0 3.6036009,-13 H 8.381816 a 2.9907437,3.0098662 0 0 0 0.599718,-1.805921 2.9907437,3.0098662 0 0 0 -2.9907605,-3.009859 z m 0,0.96315 a 1.9938294,2.1671044 0 0 1 1.9938378,2.16711 1.9938294,2.1671044 0 0 1 -0.116828,0.722369 H 4.1137627 a 1.9938294,2.1671044 0 0 1 -0.1168275,-0.722369 1.9938294,2.1671044 0 0 1 1.993829,-2.16711 z"
     id="path1"
     style="fill:#ff80ff;fill-opacity:1;stroke-width:0.979947" />
  <path
     style="fill:none"
     d="M 0,0 V 22 H 22 V 0 Z"
     id="path79" />
  <path
     d="m 18.5,9.5715162 c 0,-0.11251 -0.05232,-0.218541 -0.142423,-0.286036 L 14.071481,6.0714193 C 13.962684,5.9903433 13.81874,5.9770953 13.697637,6.0377583 13.576889,6.0980423 13.500149,6.2220352 13.500149,6.357385 V 7.7858587 H 9.2141667 c -0.19715,0 -0.35715,0.1599798 -0.35715,0.3571045 0,0.197129 0.160024,0.35712 0.35715,0.35712 h 4.6431353 c 0.197111,0 0.357128,-0.16 0.357128,-0.35712 V 7.0716217 L 17.547493,9.5714272 14.21443,12.071257 V 10.99989 c 0,-0.197129 -0.160017,-0.357106 -0.357128,-0.357106 H 8.4997397 V 9.2143202 c 0,-0.135232 -0.07682,-0.259269 -0.197424,-0.31963 -0.120741,-0.06075 -0.265749,-0.04759 -0.3739586,0.03369 L 3.6424497,12.142427 c -0.090007,0.0676 -0.1424494,0.173546 -0.1424494,0.286047 0,0.112397 0.052338,0.218564 0.1424494,0.286045 l 4.2858334,3.214047 c 0.1087906,0.08115 0.2529166,0.09431 0.3739996,0.03365 0.120701,-0.06028 0.197425,-0.184257 0.197425,-0.319608 v -1.428479 h 4.2860533 c 0.197121,0 0.357137,-0.160001 0.357137,-0.35713 0,-0.197105 -0.160016,-0.357103 -0.357137,-0.357103 H 8.1425997 c -0.1971097,0 -0.3571164,0.16 -0.3571164,0.357103 v 1.071345 l -3.33305,-2.499831 3.33305,-2.4997958 v 1.0713378 c 0,0.197126 0.1600155,0.357122 0.3571164,0.357122 h 5.3574653 v 1.428464 c 0,0.13524 0.07683,0.259253 0.197479,0.31961 0.120753,0.06075 0.265787,0.04759 0.373903,-0.03365 l 4.286051,-3.2140718 c 0.09001,-0.06759 0.142447,-0.173565 0.142447,-0.286046 z"
     id="path1-7"
     style="fill:#cd87de;fill-opacity:1;stroke-width:0.357135" />
  <path
     d="M 3.9238204,3.93786 C -0.006503,7.8706759 0.025655,14.289986 4.0202892,18.182085 7.7410948,21.807434 13.737062,21.955619 17.620319,18.505112 21.02289,15.481761 21.925898,10.664909 20.011652,6.6874191 19.781898,6.2100486 19.180449,6.0461506 18.727839,6.3210978 18.32203,6.567643 18.184853,7.079989 18.38887,7.5089527 19.966098,10.825294 19.15682,14.845285 16.235502,17.298284 13.272424,19.786393 8.8760937,19.828253 5.8686288,17.394015 2.0329794,14.289434 1.813196,8.6223742 5.2093035,5.2241289 7.6843099,2.7475419 11.4009,2.136361 14.500848,3.6154602 c 0.426124,0.2033135 0.935389,0.063443 1.1804,-0.3403852 l 0.002,-0.00272 C 15.956853,2.8208909 15.795632,2.2202789 15.320131,1.9908767 11.522967,0.15906134 6.9593609,0.90047654 3.9238452,3.9379053 Z"
     id="path1-0-9-9-6-7"
     style="fill:#cd87de;fill-opacity:1;stroke-width:0.363698" />
</svg>
