<?xml version="1.0" encoding="UTF-8" standalone="no"?>
<svg
   viewBox="0 0 22 22"
   version="1.1"
   id="svg1"
   sodipodi:docname="window-pin.svg"
   width="22"
   height="22"
   inkscape:version="1.3.2 (091e20ef0f, 2023-11-25)"
   xmlns:inkscape="http://www.inkscape.org/namespaces/inkscape"
   xmlns:sodipodi="http://sodipodi.sourceforge.net/DTD/sodipodi-0.dtd"
   xmlns="http://www.w3.org/2000/svg"
   xmlns:svg="http://www.w3.org/2000/svg">
  <defs
     id="defs1" />
  <sodipodi:namedview
     id="namedview1"
     pagecolor="#ffffff"
     bordercolor="#999999"
     borderopacity="1"
     inkscape:showpageshadow="2"
     inkscape:pageopacity="0"
     inkscape:pagecheckerboard="0"
     inkscape:deskcolor="#d1d1d1"
     inkscape:zoom="8.6590909"
     inkscape:cx="10.740157"
     inkscape:cy="-5.4278215"
     inkscape:window-width="1920"
     inkscape:window-height="994"
     inkscape:window-x="0"
     inkscape:window-y="0"
     inkscape:window-maximized="1"
     inkscape:current-layer="svg1" />
  <style
     type="text/css"
     id="current-color-scheme">
        .ColorScheme-Text {
            color:#d8d8d8;
        }
    </style>
  <g
     id="window-pin-5">
    <path
       fill="none"
       d="M 0,0 H 22 V 22 H 0 Z"
       id="rect838-9" />
    <path
       d="m 12.515642,4.205161 c -0.49249,-0.0063 -0.94997,0.27111 -1.17187,0.710938 -6.5e-4,0.0013 -9.5e-4,0.0026 -0.002,0.0039 l -1.7168,3.433594 -4.378906,0.876953 h -0.002 C 4.28451,9.423143 3.89131,10.724611 4.583909,11.416093 l 2.646485,2.646484 -4.083985,4.083976 c -0.19521,0.19526 -0.19521,0.51178 0,0.70704 0.19525,0.19521 0.511782,0.19521 0.707032,0 l 4.083984,-4.083985 2.646477,2.646485 c 0.69149,0.69256 1.99294,0.29937 2.18555,-0.66016 v -0.002 l 0.87695,-4.378906 3.4336,-1.716797 c 0.76352,-0.382605 0.93937,-1.470354 0.33594,-2.074219 v -0.002 l -4,-3.998047 c 0,0 -0.002,-0.002 -0.002,-0.002 -0.23868,-0.237633 -0.56169,-0.372941 -0.89844,-0.376953 z m -0.0117,1 c 0.0769,8.1e-4 0.15057,0.03165 0.20507,0.08594 l 4,4 c 0.14259,0.142244 0.10394,0.382416 -0.0762,0.472656 l -3.87109,1.935547 -0.97266,4.859369 c -0.0464,0.23109 -0.33154,0.31715 -0.49804,0.15039 L 5.291018,10.709069 c -0.166767,-0.166498 -0.08066,-0.451678 0.15039,-0.498046 l 4.859374,-0.972657 1.93555,-3.871093 c 0.0508,-0.10077 0.15472,-0.16371 0.26758,-0.16211 z"
       id="path1845-0-2-1"
       style="fill:#d3dae3;fill-opacity:1" />
  </g>
</svg>
