<?xml version="1.0" encoding="UTF-8" standalone="no"?>
<svg
   height="32"
   width="32"
   version="1.1"
   id="svg3"
   sodipodi:docname="application-x-kdenlivetitle.svg"
   inkscape:version="1.3.2 (091e20ef0f, 2023-11-25)"
   xmlns:inkscape="http://www.inkscape.org/namespaces/inkscape"
   xmlns:sodipodi="http://sodipodi.sourceforge.net/DTD/sodipodi-0.dtd"
   xmlns:xlink="http://www.w3.org/1999/xlink"
   xmlns="http://www.w3.org/2000/svg"
   xmlns:svg="http://www.w3.org/2000/svg">
  <defs
     id="defs3">
    <linearGradient
       id="linearGradient3"
       inkscape:collect="always">
      <stop
         style="stop-color:#d4b2ff;stop-opacity:0.10196079;"
         offset="0"
         id="stop3" />
      <stop
         style="stop-color:#70a9ff;stop-opacity:0.80000001;"
         offset="1"
         id="stop4" />
    </linearGradient>
    <linearGradient
       inkscape:collect="always"
       xlink:href="#linearGradient3"
       id="linearGradient4"
       x1="4"
       y1="0"
       x2="29.000032"
       y2="32"
       gradientUnits="userSpaceOnUse" />
    <linearGradient
       inkscape:collect="always"
       xlink:href="#linearGradient3"
       id="linearGradient6"
       x1="4"
       y1="0.37795275"
       x2="29.000032"
       y2="32"
       gradientUnits="userSpaceOnUse" />
  </defs>
  <sodipodi:namedview
     id="namedview3"
     pagecolor="#ffffff"
     bordercolor="#999999"
     borderopacity="1"
     inkscape:showpageshadow="2"
     inkscape:pageopacity="0"
     inkscape:pagecheckerboard="0"
     inkscape:deskcolor="#d1d1d1"
     inkscape:zoom="23.8125"
     inkscape:cx="16"
     inkscape:cy="19.989501"
     inkscape:window-width="1920"
     inkscape:window-height="994"
     inkscape:window-x="0"
     inkscape:window-y="0"
     inkscape:window-maximized="1"
     inkscape:current-layer="svg3" />
  <path
     d="M4.6 29.5c0 1 1 2 2 2h19.9c1 0 2-1 2-2v-17c0-1 0-1-1-2l-9-9c-.531-.401-1-1-2-1h-10c-1 0-2 1-2 2z"
     id="path1"
     style="fill:url(#linearGradient4);stroke:url(#linearGradient6)" />
  <g
     transform="translate(5 8)"
     id="g2">
    <path
       d="M3 3.5v15h16v-15H3zm1 1h1v1H4v-1zm2 0h10V10H6V4.5zm11 0h1v1h-1v-1zm-13 3h1v1H4v-1zm13 0h1v1h-1v-1zm-13 3h1v1H4v-1zm13 0h1v1h-1v-1zM6 12h10v5.5H6V12zm-2 1.5h1v1H4v-1zm13 0h1v1h-1v-1zm-13 3h1v1H4v-1zm13 0h1v1h-1v-1z"
       id="path2"
       style="fill:#751aff;fill-opacity:1" />
  </g>
  <path
     d="M7 31h19v1H7z"
     id="path3"
     style="fill:#751aff;fill-opacity:1" />
</svg>
