<?xml version="1.0" encoding="UTF-8" standalone="no"?>
<svg
   width="22"
   height="22"
   version="1.1"
   id="svg132"
   sodipodi:docname="video-display.svg"
   inkscape:version="1.3.2 (091e20ef0f, 2023-11-25)"
   xmlns:inkscape="http://www.inkscape.org/namespaces/inkscape"
   xmlns:sodipodi="http://sodipodi.sourceforge.net/DTD/sodipodi-0.dtd"
   xmlns:xlink="http://www.w3.org/1999/xlink"
   xmlns="http://www.w3.org/2000/svg"
   xmlns:svg="http://www.w3.org/2000/svg"
   xmlns:rdf="http://www.w3.org/1999/02/22-rdf-syntax-ns#"
   xmlns:cc="http://creativecommons.org/ns#"
   xmlns:dc="http://purl.org/dc/elements/1.1/">
  <metadata
     id="metadata136">
    <rdf:RDF>
      <cc:Work
         rdf:about="">
        <dc:format>image/svg+xml</dc:format>
        <dc:type
           rdf:resource="http://purl.org/dc/dcmitype/StillImage" />
      </cc:Work>
    </rdf:RDF>
  </metadata>
  <sodipodi:namedview
     pagecolor="#ffffff"
     bordercolor="#666666"
     borderopacity="1"
     objecttolerance="10"
     gridtolerance="10"
     guidetolerance="10"
     inkscape:pageopacity="0"
     inkscape:pageshadow="2"
     inkscape:window-width="1920"
     inkscape:window-height="994"
     id="namedview134"
     showgrid="true"
     inkscape:zoom="5.6680908"
     inkscape:cx="24.346823"
     inkscape:cy="-3.8813775"
     inkscape:window-x="0"
     inkscape:window-y="0"
     inkscape:window-maximized="1"
     inkscape:current-layer="svg132"
     inkscape:showpageshadow="2"
     inkscape:pagecheckerboard="0"
     inkscape:deskcolor="#d1d1d1">
    <inkscape:grid
       id="grid1"
       units="px"
       originx="-3"
       originy="-43"
       spacingx="1"
       spacingy="1"
       empcolor="#0099e5"
       empopacity="0.30196078"
       color="#0099e5"
       opacity="0.14901961"
       empspacing="5"
       dotted="false"
       gridanglex="30"
       gridanglez="30"
       visible="true" />
  </sodipodi:namedview>
  <defs
     id="defs80">
    <linearGradient
       id="b">
      <stop
         stop-color="#2a2c2f"
         id="stop2" />
      <stop
         offset="1"
         stop-color="#424649"
         id="stop4" />
    </linearGradient>
    <linearGradient
       id="a">
      <stop
         stop-color="#c6cdd1"
         id="stop7" />
      <stop
         offset="1"
         stop-color="#e0e5e7"
         id="stop9" />
    </linearGradient>
    <linearGradient
       id="c">
      <stop
         stop-color="#7e8f9e"
         id="stop12" />
      <stop
         offset="1"
         stop-color="#84ced5"
         id="stop14" />
    </linearGradient>
    <linearGradient
       id="j">
      <stop
         stop-color="#e4a56d"
         id="stop17" />
      <stop
         offset="1"
         stop-color="#a7bd78"
         id="stop19" />
    </linearGradient>
    <linearGradient
       id="d">
      <stop
         stop-color="#c3a278"
         id="stop22" />
      <stop
         offset="1"
         stop-color="#68a"
         id="stop24" />
    </linearGradient>
    <linearGradient
       id="k">
      <stop
         stop-color="#6588af"
         id="stop27" />
      <stop
         offset="1"
         stop-color="#8ba8cd"
         id="stop29" />
    </linearGradient>
    <linearGradient
       id="e">
      <stop
         stop-color="#89ad8b"
         id="stop32" />
      <stop
         offset="1"
         stop-color="#82b3c7"
         id="stop34" />
    </linearGradient>
    <linearGradient
       id="l">
      <stop
         stop-color="#e1b16f"
         id="stop37" />
      <stop
         offset="1"
         stop-color="#99bf83"
         id="stop39" />
    </linearGradient>
    <linearGradient
       id="f">
      <stop
         stop-color="#99c487"
         id="stop42" />
      <stop
         offset="1"
         stop-color="#b4d99e"
         id="stop44" />
    </linearGradient>
    <linearGradient
       id="m">
      <stop
         stop-color="#75d5c7"
         id="stop47" />
      <stop
         offset="1"
         stop-color="#66afb9"
         id="stop49" />
    </linearGradient>
    <linearGradient
       id="g">
      <stop
         stop-color="#5c7b9e"
         id="stop52" />
      <stop
         offset="1"
         stop-color="#839dc0"
         id="stop54" />
    </linearGradient>
    <linearGradient
       id="h">
      <stop
         stop-color="#7fbcc6"
         id="stop57" />
      <stop
         offset="1"
         stop-color="#8ee4e3"
         id="stop59" />
    </linearGradient>
    <linearGradient
       id="i">
      <stop
         stop-color="#84d5d7"
         id="stop62" />
      <stop
         offset="1"
         stop-color="#84a8ba"
         id="stop64" />
    </linearGradient>
    <linearGradient
       id="n"
       xlink:href="#a"
       y1="547.79797"
       y2="536.79797"
       gradientUnits="userSpaceOnUse"
       x2="0"
       gradientTransform="matrix(1.16667,0,0,1.0909,-532.88012,-504.598)" />
    <linearGradient
       id="o"
       xlink:href="#b"
       y1="536.79797"
       y2="503.798"
       gradientUnits="userSpaceOnUse"
       x2="0"
       gradientTransform="matrix(1.08333,0,0,1.0909,-498.83212,-504.598)" />
    <linearGradient
       xlink:href="#c"
       id="p"
       gradientUnits="userSpaceOnUse"
       gradientTransform="matrix(1.0871,0,0,1.1,-509.15412,-502.778)"
       y1="541.79797"
       x2="0"
       y2="489.798" />
    <linearGradient
       id="r"
       xlink:href="#d"
       x1="404.57101"
       gradientUnits="userSpaceOnUse"
       x2="421.57101"
       gradientTransform="matrix(1.07952,0,0,1.14286,-505.95712,-525.483)" />
    <linearGradient
       id="t"
       xlink:href="#e"
       x1="421.57101"
       gradientUnits="userSpaceOnUse"
       x2="438.57101"
       gradientTransform="matrix(1.04899,0,0,1.1,-492.43512,-502.778)" />
    <linearGradient
       id="v"
       xlink:href="#f"
       y1="510.798"
       y2="498.798"
       x1="404.57101"
       gradientUnits="userSpaceOnUse"
       x2="391.57101"
       gradientTransform="matrix(1.1,0,0,1.1,-514.24112,-502.778)" />
    <linearGradient
       id="x"
       xlink:href="#g"
       y1="495.798"
       y2="504.798"
       x1="428.57101"
       gradientUnits="userSpaceOnUse"
       x2="438.57101"
       gradientTransform="matrix(1.04899,0,0,1.0625,-492.43412,-484.036)" />
    <linearGradient
       id="y"
       xlink:href="#h"
       x1="421.57101"
       gradientUnits="userSpaceOnUse"
       x2="406.57101"
       gradientTransform="matrix(1.0871,0,0,1.1,-509.15412,-502.778)" />
    <linearGradient
       id="z"
       xlink:href="#i"
       x1="421.57101"
       gradientUnits="userSpaceOnUse"
       x2="436.57101"
       gradientTransform="matrix(1.0871,0,0,1.1,-509.15412,-502.778)" />
    <linearGradient
       xlink:href="#j"
       id="q"
       gradientUnits="userSpaceOnUse"
       gradientTransform="matrix(1.1,0,0,1.14286,-514.24112,-525.483)"
       x1="394.57101"
       y1="535.79797"
       x2="404.57101"
       y2="522.79797" />
    <linearGradient
       xlink:href="#k"
       id="s"
       gradientUnits="userSpaceOnUse"
       gradientTransform="matrix(1.1078,0,0,1.14286,-518.23312,-525.483)"
       x1="430.57101"
       y1="536.79797"
       x2="437.5"
       y2="524.79797" />
    <linearGradient
       xlink:href="#l"
       id="u"
       gradientUnits="userSpaceOnUse"
       gradientTransform="matrix(1.1,0,0,1.27514,-514.24112,-592.216)"
       x1="387.57101"
       y1="525.79797"
       x2="401.57101"
       y2="513.79797" />
    <linearGradient
       xlink:href="#m"
       id="w"
       gradientUnits="userSpaceOnUse"
       gradientTransform="matrix(1.11765,0,0,1.1,-521.38112,-502.778)"
       x1="404.57101"
       y1="501.798"
       x2="421.57101"
       y2="501.616" />
    <linearGradient
       id="linearGradient1196">
      <stop
         id="stop1180"
         offset="0"
         style="stop-color:#ec040b;stop-opacity:1" />
      <stop
         style="stop-color:#00e8c2;stop-opacity:1"
         offset="0.2414771"
         id="stop1182" />
      <stop
         id="stop1184"
         offset="0.34642017"
         style="stop-color:#ed2a64;stop-opacity:1" />
      <stop
         style="stop-color:#003ada;stop-opacity:1"
         offset="0.48312774"
         id="stop1186" />
      <stop
         id="stop1188"
         offset="0.64744467"
         style="stop-color:#f4ba00;stop-opacity:1" />
      <stop
         style="stop-color:#6a0085;stop-opacity:1"
         offset="0.80707073"
         id="stop1190" />
      <stop
         id="stop1192"
         offset="0.92333913"
         style="stop-color:#17e0ff;stop-opacity:1" />
      <stop
         id="stop1194"
         offset="1"
         style="stop-color:#000000;stop-opacity:0;" />
    </linearGradient>
  </defs>
  <g
     id="g1">
    <rect
       id="rect3832-2"
       x="0"
       y="0"
       width="22"
       height="22"
       fill-opacity="0" />
    <path
       d="M 18.938038,2.999981 H 3.061963 C 2.476468,2.999981 2,3.414714 2,4.006666 v 11.76221 c 0,0.631234 0.314461,1.231354 1.061963,1.231354 h 5.843341 c -0.182329,0.597112 -0.611243,1.342885 -1.475797,1.342885 v 0.65715 h 7.140987 v -0.65715 c -0.864555,0 -1.293469,-0.745773 -1.475798,-1.342885 h 5.779017 C 19.782127,17.00023 20,16.40011 20,15.768876 V 4.073421 c -1e-6,-0.591951 -0.476468,-1.07344 -1.061962,-1.07344 z m 0.06196,12.502 c 0,0.10413 -0.206659,0.498 -0.626,0.498 h -14.812 c -0.419105,0 -0.562,-0.393869 -0.562,-0.498 v -0.502 h 16 z m 0,-1.502 h -16 v -9.36 c 0,-0.606678 0.422775,-0.64 0.526,-0.64 h 14.848 c 0.102997,0 0.626,-0.03334 0.626,0.64 z"
       id="path2-3-3-6-1"
       style="fill:#d3dae3;fill-opacity:1;stroke-width:0.233246"
       sodipodi:nodetypes="sssssccccccsssssscsccscccsssc" />
    <path
       d="m 13.793164,9.425897 a 0.68823555,0.68172323 0 0 1 0,-0.804707 L 14.406263,7.795209 A 0.68823555,0.68172323 0 0 0 13.776291,6.714169 L 12.749296,6.825083 A 0.68823555,0.68172323 0 0 1 12.042682,6.419697 l -0.41692,-0.9368 a 0.68823555,0.68172323 0 0 0 -1.259987,0 l -0.416919,0.9368 A 0.68823555,0.68172323 0 0 1 9.245265,6.822051 L 8.218279,6.711121 a 0.68823555,0.68172323 0 0 0 -0.629981,1.08104 l 0.613141,0.825975 a 0.68823555,0.68172323 0 0 1 0,0.804699 l -0.613141,0.825963 a 0.68823555,0.68172323 0 0 0 0.629981,1.08104 l 1.026986,-0.11078 a 0.68823555,0.68172323 0 0 1 0.703591,0.402359 l 0.416919,0.9368 a 0.68823555,0.68172323 0 0 0 1.259987,0 l 0.41692,-0.9368 a 0.68823555,0.68172323 0 0 1 0.703546,-0.402359 l 1.026995,0.11078 a 0.68823555,0.68172323 0 0 0 0.629972,-1.08104 z m -2.79435,1.355853 a 1.775004,1.7582083 0 1 1 1.770423,-1.758222 1.775004,1.7582083 0 0 1 -1.770423,1.758222 z m 1.914507,-4.513966 -0.48133,-0.274813 0.570244,-0.980819 0.481286,0.27481 z M 7.643467,8.712291 V 9.261913 L 6.5,9.252413 V 8.702738 Z m 6.704558,0.637691 0.0085,-0.54965 1.143489,0.01889 -0.0085,0.54963 z M 9.596278,5.986894 9.111918,6.257175 8.546319,5.270252 9.030674,5 Z M 9.056749,11.744344 9.5365,12.023734 8.957097,13 8.478879,12.720633 Z m 3.445787,0.256608 0.475158,-0.285441 0.593208,0.967147 -0.475199,0.285445 z"
       id="path4-3"
       style="fill:#d3dae3;fill-opacity:1;stroke-width:0.152558" />
  </g>
</svg>
