<?xml version="1.0" encoding="UTF-8" standalone="no"?>
<svg
   viewBox="0 0 22 22"
   version="1.1"
   id="svg1"
   sodipodi:docname="start-here-kde.svg"
   inkscape:version="1.3.2 (091e20ef0f, 2023-11-25)"
   width="22"
   height="22"
   xmlns:inkscape="http://www.inkscape.org/namespaces/inkscape"
   xmlns:sodipodi="http://sodipodi.sourceforge.net/DTD/sodipodi-0.dtd"
   xmlns:xlink="http://www.w3.org/1999/xlink"
   xmlns="http://www.w3.org/2000/svg"
   xmlns:svg="http://www.w3.org/2000/svg">
  <sodipodi:namedview
     id="namedview1"
     pagecolor="#ffffff"
     bordercolor="#000000"
     borderopacity="0.25"
     inkscape:showpageshadow="2"
     inkscape:pageopacity="0.0"
     inkscape:pagecheckerboard="0"
     inkscape:deskcolor="#d1d1d1"
     inkscape:zoom="4.3579546"
     inkscape:cx="44.745762"
     inkscape:cy="2.9830508"
     inkscape:window-width="1920"
     inkscape:window-height="994"
     inkscape:window-x="0"
     inkscape:window-y="0"
     inkscape:window-maximized="1"
     inkscape:current-layer="svg1"
     showgrid="true">
    <inkscape:grid
       id="grid1"
       units="px"
       originx="6"
       originy="-58"
       spacingx="1"
       spacingy="1"
       empcolor="#0099e5"
       empopacity="0.30196078"
       color="#0099e5"
       opacity="0.14902"
       empspacing="5"
       dotted="false"
       gridanglex="30"
       gridanglez="30"
       visible="true" />
  </sodipodi:namedview>
  <defs
     id="defs3051">
    <style
       type="text/css"
       id="current-color-scheme">
      .ColorScheme-Text {
        color:#eff0f1;
      }
      </style>
    <linearGradient
       inkscape:collect="always"
       xlink:href="#linearGradient840"
       id="linearGradient850"
       x1="1.6579818"
       y1="2.0862873"
       x2="2.1705663"
       y2="20.084829"
       gradientUnits="userSpaceOnUse"
       gradientTransform="translate(-22,10)" />
    <linearGradient
       inkscape:collect="always"
       id="linearGradient840">
      <stop
         style="stop-color:#005379;stop-opacity:1"
         offset="0"
         id="stop836" />
      <stop
         style="stop-color:#c8e0e7;stop-opacity:1"
         offset="1"
         id="stop838" />
    </linearGradient>
  </defs>
  <g
     id="22-22-start-here-kde-7"
     transform="translate(22,-10)">
    <rect
       id="rect7-6-5"
       style="opacity:0.00100002;stroke-width:0.6875"
       width="22"
       height="22"
       x="-22"
       y="10" />
    <path
       d="m -13.261575,15.294078 c 2.4052,0 4.558088,1.226401 6.006702,3.158766 -1.086603,-0.744722 -2.359859,-1.17353 -3.721358,-1.17353 -3.984397,0 -7.214284,3.20129 -7.214284,8.193639 0,-2.691387 2.181861,-4.873058 4.872873,-4.873058 2.6912,0 4.873053,2.181671 4.873053,4.87287 0,2.04507 -1.260269,3.794733 -3.045873,4.517631 0.126628,0.0052 0.253449,0.0096 0.381393,0.0096 1.700557,0 3.290286,-0.472458 4.646519,-1.292447 -3.77e-4,5.66e-4 -5.65e-4,0.0012 -0.0014,0.0017 2.609791,-1.575869 4.354566,-4.438666 4.354566,-7.709198 C -2.109356,16.029364 -6.138908,12 -11.109427,12 c -4.492981,0 -8.2166,3.292732 -8.890573,7.596429 1.388784,-2.580592 3.886746,-4.302409 6.738066,-4.302409 z"
       id="path2-5-5"
       inkscape:connector-curvature="0"
       style="fill:url(#linearGradient850);fill-opacity:1;stroke-width:0.188154" />
  </g>
</svg>
