<?xml version="1.0" encoding="UTF-8" standalone="no"?>
<svg
   width="22"
   height="22"
   version="1.1"
   id="svg1"
   sodipodi:docname="kopete-symbolic.svg"
   inkscape:version="1.3.2 (091e20ef0f, 2023-11-25)"
   xmlns:inkscape="http://www.inkscape.org/namespaces/inkscape"
   xmlns:sodipodi="http://sodipodi.sourceforge.net/DTD/sodipodi-0.dtd"
   xmlns="http://www.w3.org/2000/svg"
   xmlns:svg="http://www.w3.org/2000/svg">
  <sodipodi:namedview
     id="namedview1"
     pagecolor="#ffffff"
     bordercolor="#999999"
     borderopacity="1"
     inkscape:showpageshadow="2"
     inkscape:pageopacity="0"
     inkscape:pagecheckerboard="0"
     inkscape:deskcolor="#d1d1d1"
     inkscape:zoom="8.6590909"
     inkscape:cx="11.2021"
     inkscape:cy="-6.5826772"
     inkscape:window-width="1920"
     inkscape:window-height="994"
     inkscape:window-x="0"
     inkscape:window-y="0"
     inkscape:window-maximized="1"
     inkscape:current-layer="svg1" />
  <defs
     id="defs1" />
  <style
     type="text/css"
     id="current-color-scheme">
      .ColorScheme-Text {
        color:#eff0f1;
      }
      .ColorScheme-Background {
        color:#eff0f1;
      }
      .ColorScheme-Highlight {
        color:#3daee9;
      }
      .ColorScheme-ViewText {
        color:#31363b;
      }
      .ColorScheme-ViewBackground {
        color:#fcfcfc;
      }
      .ColorScheme-ViewHover {
        color:#93cee9;
      }
      .ColorScheme-ViewFocus{
        color:#3daee9;
      }
      .ColorScheme-ButtonText {
        color:#31363b;
      }
      .ColorScheme-ButtonBackground {
        color:#eff0f1;
      }
      .ColorScheme-ButtonHover {
        color:#93cee9;
      }
      .ColorScheme-ButtonFocus{
        color:#3daee9;
      }
      </style>
  <g
     id="22-22-kopete"
     style="fill:#d3dae3;fill-opacity:1">
    <rect
       style="opacity:0.00100002;fill:#d3dae3;fill-opacity:1"
       width="22"
       height="22"
       x="0"
       y="0"
       id="rect2" />
    <path
       style="fill:#d3dae3;fill-opacity:1;stroke-width:0.727274"
       d="m 11.36363,6 a 3.6363632,3.9999973 0 0 0 -0.720168,0.082389 3.6363632,3.9999973 0 0 1 2.901991,3.91761 3.6363632,3.9999973 0 0 1 -2.916189,3.917607 3.6363632,3.9999973 0 0 0 0.734366,0.08239 A 3.6363632,3.9999973 0 0 0 15,9.999994 3.6363632,3.9999973 0 0 0 11.36363,6 Z M 7.7272719,7.090909 A 0.72727267,0.72727212 0 0 0 7,7.8181814 0.72727267,0.72727212 0 0 0 7.7272719,8.5454529 0.72727267,0.72727212 0 0 0 8.4545452,7.8181814 0.72727267,0.72727212 0 0 0 7.7272719,7.090909 Z m 1.4545462,2.1818165 c -0.4029102,0 -0.7272729,0.3243628 -0.7272729,0.7272725 0,0.402904 0.3243627,0.727273 0.7272729,0.727273 H 11.36363 c 0.402918,0 0.727274,-0.324369 0.727274,-0.727273 0,-0.4029097 -0.324356,-0.7272725 -0.727274,-0.7272725 z M 7.7272719,11.454544 C 7.3255993,11.454544 7,11.780152 7,12.181817 c 0,0.401651 0.3256098,0.727274 0.7272719,0.727274 0.2570806,0 0.3636379,0.727263 0.3636379,0.727263 0,0 0.3636354,-1.309958 0.3636354,-1.454537 0,-0.401673 -0.325611,-0.727273 -0.7272733,-0.727273 z"
       id="path12-3" />
    <path
       style="fill:#d3dae3;fill-opacity:1;stroke-width:1"
       class="ColorScheme-Text"
       d="m 7.3888885,20 3.5000005,-2.5 -0.5,-0.5 H 4.3888885 L 3.888889,17.5 Z"
       font-family="Ubuntu"
       font-size="15px"
       font-weight="400"
       letter-spacing="0"
       text-anchor="middle"
       word-spacing="0"
       id="path60-6" />
    <path
       d="M 1,16.611283 V 3.390576 C 1,2.623619 1.318404,2 2.324918,2 H 19.675081 C 20.681595,2 21,2.623619 21,3.390576 v 13.218845 c 0,0.766958 -0.318405,1.390575 -1.324919,1.390575 H 2.327361 C 1.318404,18.001863 1,17.37824 1,16.611283 Z M 20,3.390576 C 20,3.035021 20.141693,3 19.675081,3 H 2.327361 C 1.860749,3 2,3.035021 2,3.390576 V 16.609421 C 2,16.964977 1.860749,17 2.327361,17 h 17.34772 C 20.141693,17 20,16.964977 20,16.609421 Z"
       id="path2-6"
       style="fill:#d3dae3;fill-opacity:1;stroke-width:0.213253;enable-background:new"
       sodipodi:nodetypes="ssssssscssssssssss" />
  </g>
</svg>
