<svg xmlns="http://www.w3.org/2000/svg" xmlns:xlink="http://www.w3.org/1999/xlink" width="64" height="64" viewBox="0 0 64 64" version="1.1">
<defs>
<linearGradient id="linear0" gradientUnits="userSpaceOnUse" x1="0" y1="0" x2="0" y2="1" gradientTransform="matrix(24.597656,0,0,29.925781,19.550781,16.074219)">
<stop offset="0" style="stop-color:#ff6666;stop-opacity:1;"/>
<stop offset="1" style="stop-color:#d90000;stop-opacity:1;"/>
</linearGradient>
<linearGradient id="linear1" gradientUnits="userSpaceOnUse" x1="0" y1="0" x2="0" y2="1" gradientTransform="matrix(56,0,0,56,4,4)">
<stop offset="0" style="stop-color:#ff6666;stop-opacity:1;"/>
<stop offset="1" style="stop-color:#d90000;stop-opacity:1;"/>
</linearGradient>
</defs>
<g id="surface1">
<path style=" stroke:none;fill-rule:evenodd;fill:url(#linear0);" d="M 43.171875 16.078125 C 42.941406 16.0625 42.671875 16.082031 42.351562 16.109375 L 27.933594 18.359375 C 26.308594 18.523438 26.128906 19.285156 26.144531 20.230469 L 26.144531 39.269531 C 25.316406 38.726562 24.433594 38.339844 23.253906 38.339844 C 21.734375 38.339844 20.828125 38.921875 20.28125 39.6875 C 19.734375 40.453125 19.550781 41.417969 19.550781 42.164062 C 19.550781 43.0625 19.863281 44.023438 20.527344 44.753906 C 21.195312 45.484375 22.21875 46 23.691406 46 C 25.355469 46 26.523438 45.535156 27.183594 44.628906 C 27.703125 43.914062 27.996094 42.957031 28.097656 41.78125 C 28.113281 41.640625 28.121094 41.492188 28.128906 41.339844 C 28.136719 41.21875 28.136719 41.136719 28.136719 40.996094 L 28.144531 40.996094 L 28.144531 25.589844 C 28.191406 24.351562 29.3125 24.167969 29.3125 24.167969 L 41.019531 22.339844 C 42.144531 21.996094 42.144531 23.386719 42.144531 23.386719 L 42.144531 37.269531 C 41.320312 36.726562 40.433594 36.339844 39.253906 36.339844 C 37.738281 36.339844 36.832031 36.921875 36.28125 37.6875 C 35.734375 38.453125 35.550781 39.417969 35.550781 40.164062 C 35.550781 41.0625 35.863281 42.023438 36.527344 42.753906 C 37.195312 43.484375 38.21875 44 39.691406 44 C 41.355469 44 42.523438 43.535156 43.183594 42.628906 C 43.707031 41.914062 43.996094 40.957031 44.097656 39.78125 C 44.117188 39.640625 44.125 39.492188 44.132812 39.339844 C 44.140625 39.21875 44.140625 39.136719 44.140625 38.996094 L 44.148438 38.996094 L 44.148438 17.859375 C 44.171875 16.488281 43.867188 16.128906 43.175781 16.078125 Z M 43.171875 16.078125 "/>
<path style=" stroke:none;fill-rule:nonzero;fill:url(#linear1);" d="M 19.976562 4 C 14.945312 4.058594 11.261719 3.878906 8.25 5.542969 C 6.746094 6.371094 5.554688 7.777344 4.894531 9.53125 C 4.238281 11.285156 4 13.367188 4 16 L 4 48 C 4 50.628906 4.238281 52.714844 4.894531 54.46875 C 5.554688 56.222656 6.746094 57.625 8.25 58.457031 C 11.261719 60.117188 14.945312 59.941406 19.976562 60 L 44.023438 60 C 49.054688 59.941406 52.738281 60.117188 55.75 58.457031 C 57.253906 57.625 58.445312 56.222656 59.105469 54.46875 C 59.761719 52.714844 60 50.628906 60 48 L 60 16 C 60 13.367188 59.761719 11.285156 59.105469 9.53125 C 58.445312 7.777344 57.253906 6.371094 55.75 5.542969 C 52.738281 3.878906 49.054688 4.058594 44.023438 4 Z M 20.023438 8 L 44 8 C 49.035156 8.058594 52.351562 8.234375 53.816406 9.042969 C 54.546875 9.449219 54.96875 9.898438 55.359375 10.9375 C 55.75 11.976562 56 13.628906 56 16 L 56 48 C 56 50.367188 55.75 52.023438 55.359375 53.0625 C 54.96875 54.101562 54.546875 54.550781 53.816406 54.953125 C 52.351562 55.761719 49.035156 55.941406 44 56 L 20 56 C 14.960938 55.941406 11.648438 55.761719 10.183594 54.953125 C 9.453125 54.550781 9.03125 54.101562 8.640625 53.0625 C 8.25 52.023438 8 50.367188 8 48 L 8 16 C 8 13.628906 8.25 11.976562 8.640625 10.9375 C 9.03125 9.898438 9.453125 9.449219 10.183594 9.042969 C 11.652344 8.234375 14.96875 8.058594 20.023438 8 Z M 20.023438 8 "/>
</g>
</svg>
