<svg xmlns="http://www.w3.org/2000/svg" xmlns:xlink="http://www.w3.org/1999/xlink" width="64" height="64" viewBox="0 0 64 64" version="1.1">
<defs>
<linearGradient id="linear0" gradientUnits="userSpaceOnUse" x1="0" y1="0" x2="0" y2="1" gradientTransform="matrix(64,0,0,52,0,4)">
<stop offset="0" style="stop-color:#ff6666;stop-opacity:1;"/>
<stop offset="1" style="stop-color:#d90000;stop-opacity:1;"/>
</linearGradient>
</defs>
<g id="surface1">
<path style=" stroke:none;fill-rule:nonzero;fill:url(#linear0);" d="M 12 4 L 12 8 L 15.976562 8 C 10.945312 8.058594 7.261719 7.878906 4.25 9.539062 C 2.746094 10.371094 1.558594 11.777344 0.898438 13.53125 C 0.238281 15.285156 0 17.371094 0 20 L 0 44 C 0 46.628906 0.238281 48.714844 0.898438 50.46875 C 1.558594 52.222656 2.746094 53.628906 4.25 54.460938 C 7.261719 56.121094 10.945312 55.941406 15.976562 56 L 48.023438 56 C 53.058594 55.941406 56.738281 56.121094 59.75 54.460938 C 61.257812 53.628906 62.445312 52.222656 63.101562 50.46875 C 63.757812 48.714844 64 46.628906 64 44 L 64 20 C 64 17.371094 63.761719 15.285156 63.101562 13.53125 C 62.441406 11.777344 61.253906 10.371094 59.75 9.539062 C 56.738281 7.878906 53.054688 8.058594 48.023438 8 L 20 8 L 20 4 Z M 16 12 L 48 12 C 53.035156 12.058594 56.347656 12.238281 57.8125 13.046875 C 58.546875 13.453125 58.96875 13.898438 59.359375 14.9375 C 59.75 15.976562 60 17.628906 60 20 L 60 44 C 60 46.371094 59.75 48.023438 59.359375 49.0625 C 58.96875 50.101562 58.546875 50.546875 57.8125 50.953125 C 56.347656 51.761719 53.035156 51.941406 48 52 L 16 52 C 10.964844 51.941406 7.644531 51.761719 6.179688 50.953125 C 5.445312 50.546875 5.03125 50.101562 4.640625 49.0625 C 4.25 48.023438 4 46.371094 4 44 L 4 20 C 4 17.628906 4.25 15.976562 4.640625 14.9375 C 5.03125 13.898438 5.445312 13.453125 6.179688 13.046875 C 7.644531 12.238281 10.964844 12.058594 16 12 Z M 32 16 C 23.164062 16 16 23.164062 16 32 C 16 40.835938 23.164062 48 32 48 C 40.835938 48 48 40.835938 48 32 C 48 23.164062 40.835938 16 32 16 Z M 54 16 C 52.894531 16 52 16.894531 52 18 C 52 19.105469 52.894531 20 54 20 C 55.105469 20 56 19.105469 56 18 C 56 16.894531 55.105469 16 54 16 Z M 32 20 C 38.628906 20 44 25.371094 44 32 C 44 38.628906 38.628906 44 32 44 C 25.371094 44 20 38.628906 20 32 C 20 25.371094 25.371094 20 32 20 Z M 31.664062 24.015625 C 27.382812 24.195312 24.003906 27.714844 24 32 C 24 36.417969 27.582031 40 32 40 C 36.417969 40 40 36.417969 40 32 C 39.992188 27.742188 36.652344 24.234375 32.398438 24.023438 C 34.441406 24.226562 36 25.945312 36 28 C 36 30.210938 34.210938 32 32 32 C 29.789062 32 28 30.210938 28 28 C 28 25.921875 29.59375 24.191406 31.664062 24.015625 Z M 31.664062 24.015625 "/>
</g>
</svg>
