<svg xmlns="http://www.w3.org/2000/svg" xmlns:xlink="http://www.w3.org/1999/xlink" width="64" height="64" viewBox="0 0 64 64" version="1.1">
<defs>
<linearGradient id="linear0" gradientUnits="userSpaceOnUse" x1="0" y1="0" x2="0" y2="1" gradientTransform="matrix(64,0,0,45.332031,0,8)">
<stop offset="0" style="stop-color:#ff6666;stop-opacity:1;"/>
<stop offset="1" style="stop-color:#d90000;stop-opacity:1;"/>
</linearGradient>
</defs>
<g id="surface1">
<path style=" stroke:none;fill-rule:nonzero;fill:url(#linear0);" d="M 53.332031 48 C 56.269531 48 58.640625 45.601562 58.640625 42.667969 L 58.667969 13.332031 C 58.667969 10.398438 56.269531 8 53.332031 8 L 10.667969 8 C 7.730469 8 5.332031 10.398438 5.332031 13.332031 L 5.332031 42.667969 C 5.332031 45.601562 7.730469 48 10.667969 48 L 0 48 C 0 50.933594 2.398438 53.332031 5.332031 53.332031 L 58.667969 53.332031 C 61.601562 53.332031 64 50.933594 64 48 Z M 10.667969 13.332031 L 53.332031 13.332031 L 53.332031 42.667969 L 10.667969 42.667969 Z M 32 50.667969 C 30.53125 50.667969 29.332031 49.46875 29.332031 48 C 29.332031 46.53125 30.53125 45.332031 32 45.332031 C 33.46875 45.332031 34.667969 46.53125 34.667969 48 C 34.667969 49.46875 33.46875 50.667969 32 50.667969 Z M 32 50.667969 "/>
</g>
</svg>
