<svg xmlns="http://www.w3.org/2000/svg" xmlns:xlink="http://www.w3.org/1999/xlink" width="64" height="64" viewBox="0 0 64 64" version="1.1">
<defs>
<linearGradient id="linear0" gradientUnits="userSpaceOnUse" x1="0" y1="0" x2="0" y2="1" gradientTransform="matrix(64,0,0,64,0,0)">
<stop offset="0" style="stop-color:#ff6666;stop-opacity:1;"/>
<stop offset="1" style="stop-color:#d90000;stop-opacity:1;"/>
</linearGradient>
</defs>
<g id="surface1">
<path style=" stroke:none;fill-rule:nonzero;fill:url(#linear0);" d="M 8 0 L 0 42.667969 L 64 42.667969 L 56 0 Z M 0 45.332031 L 0 64 L 64 64 L 64 45.332031 Z M 5.332031 50.667969 L 8 50.667969 L 8 56 L 13.332031 56 L 13.332031 50.667969 L 16 50.667969 L 16 56 L 21.332031 56 L 21.332031 50.667969 L 24 50.667969 L 24 56 L 29.332031 56 L 29.332031 50.667969 L 32 50.667969 L 32 56 L 37.332031 56 L 37.332031 50.667969 L 40 50.667969 L 40 58.667969 L 5.332031 58.667969 Z M 48 53.332031 L 58.667969 53.332031 L 58.667969 58.667969 L 48 58.667969 Z M 48 53.332031 "/>
</g>
</svg>
