<svg xmlns="http://www.w3.org/2000/svg" xmlns:xlink="http://www.w3.org/1999/xlink" width="64" height="64" viewBox="0 0 64 64" version="1.1">
<defs>
<linearGradient id="linear0" gradientUnits="userSpaceOnUse" x1="0" y1="0" x2="0" y2="1" gradientTransform="matrix(64,0,0,64,0,0)">
<stop offset="0" style="stop-color:#ff6666;stop-opacity:1;"/>
<stop offset="1" style="stop-color:#d90000;stop-opacity:1;"/>
</linearGradient>
</defs>
<g id="surface1">
<path style=" stroke:none;fill-rule:nonzero;fill:url(#linear0);" d="M 15.976562 0 C 10.945312 0.0585938 7.261719 -0.121094 4.25 1.539062 C 2.746094 2.371094 1.558594 3.777344 0.898438 5.53125 C 0.238281 7.285156 0 9.371094 0 12 L 0 40 C 0 42.628906 0.238281 44.714844 0.898438 46.46875 C 1.558594 48.222656 2.746094 49.628906 4.25 50.460938 C 5.378906 51.085938 6.644531 51.394531 8 51.609375 L 8 47.5 C 7.25 47.359375 6.609375 47.191406 6.179688 46.953125 C 5.445312 46.546875 5.03125 46.101562 4.640625 45.0625 C 4.25 44.023438 4 42.371094 4 40 L 4 36 L 60 36 L 60 40 C 60 42.371094 59.75 44.023438 59.359375 45.0625 C 58.96875 46.101562 58.546875 46.546875 57.8125 46.953125 C 57.382812 47.191406 56.746094 47.359375 56 47.5 L 56 51.609375 C 57.355469 51.394531 58.621094 51.085938 59.75 50.460938 C 61.253906 49.628906 62.441406 48.222656 63.101562 46.46875 C 63.757812 44.714844 64 42.628906 64 40 L 64 12 C 64 9.371094 63.761719 7.285156 63.101562 5.53125 C 62.441406 3.777344 61.253906 2.371094 59.75 1.539062 C 56.738281 -0.121094 53.054688 0.0585938 48.023438 0 Z M 16 4 L 48 4 C 53.035156 4.058594 56.347656 4.238281 57.8125 5.046875 C 58.546875 5.453125 58.96875 5.898438 59.359375 6.9375 C 59.75 7.976562 60 9.628906 60 12 L 60 32 L 4 32 L 4 12 C 4 9.628906 4.25 7.976562 4.640625 6.9375 C 5.03125 5.898438 5.445312 5.453125 6.179688 5.046875 C 7.644531 4.238281 10.964844 4.058594 16 4 Z M 8 40 C 8 53.253906 18.746094 64 32 64 C 45.253906 64 56 53.253906 56 40 L 52 40 C 52 51.046875 43.046875 60 32 60 C 20.953125 60 12 51.046875 12 40 Z M 24 40 C 24 44.417969 27.582031 48 32 48 C 36.417969 48 40 44.417969 40 40 L 36 40 C 36 42.210938 34.210938 44 32 44 C 29.792969 44 28 42.210938 28 40 Z M 24 40 "/>
</g>
</svg>
