<svg xmlns="http://www.w3.org/2000/svg" xmlns:xlink="http://www.w3.org/1999/xlink" width="64" height="64" viewBox="0 0 64 64" version="1.1">
<defs>
<linearGradient id="linear0" gradientUnits="userSpaceOnUse" x1="0" y1="0" x2="0" y2="1" gradientTransform="matrix(52,0,0,64,4,0)">
<stop offset="0" style="stop-color:#ff6666;stop-opacity:1;"/>
<stop offset="1" style="stop-color:#d90000;stop-opacity:1;"/>
</linearGradient>
<linearGradient id="linear1" gradientUnits="userSpaceOnUse" x1="0" y1="0" x2="0" y2="1" gradientTransform="matrix(28,0,0,40,16,12)">
<stop offset="0" style="stop-color:#ff6666;stop-opacity:1;"/>
<stop offset="1" style="stop-color:#d90000;stop-opacity:1;"/>
</linearGradient>
</defs>
<g id="surface1">
<path style=" stroke:none;fill-rule:nonzero;fill:url(#linear0);" d="M 19.976562 0 C 14.945312 0.0585938 11.261719 -0.121094 8.25 1.539062 C 6.746094 2.371094 5.558594 3.777344 4.898438 5.53125 C 4.238281 7.285156 4 9.371094 4 12 L 4 52 C 4 54.632812 4.238281 56.714844 4.898438 58.46875 C 5.558594 60.222656 6.746094 61.628906 8.25 62.460938 C 11.261719 64.121094 14.945312 63.941406 19.976562 64 L 40.023438 64 C 45.058594 63.941406 48.738281 64.121094 51.75 62.460938 C 53.257812 61.628906 54.445312 60.222656 55.101562 58.46875 C 55.761719 56.714844 56 54.632812 56 52 L 56 12 C 56 9.371094 55.761719 7.285156 55.101562 5.53125 C 54.441406 3.777344 53.253906 2.371094 51.75 1.539062 C 48.738281 -0.121094 45.054688 0.0585938 40.023438 0 Z M 20 4 L 40 4 C 45.035156 4.058594 48.347656 4.238281 49.8125 5.046875 C 50.546875 5.453125 50.96875 5.898438 51.359375 6.9375 C 51.75 7.976562 52 9.632812 52 12 L 52 52 C 52 54.371094 51.75 56.023438 51.359375 57.0625 C 50.96875 58.101562 50.546875 58.546875 49.8125 58.953125 C 48.347656 59.761719 45.035156 59.941406 40 60 L 20 60 C 14.964844 59.941406 11.644531 59.761719 10.179688 58.953125 C 9.445312 58.546875 9.03125 58.101562 8.640625 57.0625 C 8.25 56.023438 8 54.371094 8 52 L 8 12 C 8 9.632812 8.25 7.976562 8.640625 6.9375 C 9.03125 5.898438 9.445312 5.453125 10.179688 5.046875 C 11.644531 4.238281 14.964844 4.058594 20 4 Z M 20 4 "/>
<path style=" stroke:none;fill-rule:nonzero;fill:url(#linear1);" d="M 28 12 L 24 20 L 28 20 L 28 37.945312 C 26.976562 37.296875 25.921875 36.722656 24.898438 36.210938 C 23.398438 35.460938 22.011719 34.738281 21.15625 34.023438 C 20.300781 33.308594 20 32.832031 20 32 C 22.210938 32 24 30.210938 24 28 C 24 25.792969 22.210938 24 20 24 C 17.789062 24 16 25.792969 16 28 L 16 32 C 16 34.167969 17.199219 35.941406 18.59375 37.101562 C 19.988281 38.261719 21.609375 39.039062 23.109375 39.789062 C 24.609375 40.539062 25.988281 41.261719 26.84375 41.976562 C 27.699219 42.691406 28 43.167969 28 44 C 26.890625 44 26 44.890625 26 46 L 26 50 C 26 51.109375 26.890625 52 28 52 L 32 52 C 33.109375 52 34 51.109375 34 50 L 34 46 C 34 44.890625 33.109375 44 32 44 L 32 40 C 32 39.167969 32.300781 38.691406 33.15625 37.976562 C 34.011719 37.261719 35.398438 36.539062 36.898438 35.789062 C 38.398438 35.039062 40.011719 34.261719 41.40625 33.101562 C 42.800781 31.941406 44 30.167969 44 28 L 44 22 C 44 20.890625 43.109375 20 42 20 L 38 20 C 36.890625 20 36 20.890625 36 22 L 36 26 C 36 27.109375 36.890625 28 38 28 L 40 28 C 40 28.832031 39.699219 29.308594 38.84375 30.023438 C 37.988281 30.738281 36.609375 31.460938 35.109375 32.210938 C 34.085938 32.722656 33.027344 33.292969 32 33.945312 L 32 20 L 36 20 L 32 12 Z M 28 12 "/>
</g>
</svg>
