<svg xmlns="http://www.w3.org/2000/svg" xmlns:xlink="http://www.w3.org/1999/xlink" width="64" height="64" viewBox="0 0 64 64" version="1.1">
<defs>
<linearGradient id="linear0" gradientUnits="userSpaceOnUse" x1="0" y1="0" x2="0" y2="1" gradientTransform="matrix(52,0,0,64,4,0)">
<stop offset="0" style="stop-color:#ff6666;stop-opacity:1;"/>
<stop offset="1" style="stop-color:#d90000;stop-opacity:1;"/>
</linearGradient>
<linearGradient id="linear1" gradientUnits="userSpaceOnUse" x1="0" y1="0" x2="0" y2="1" gradientTransform="matrix(33.9375,0,0,34.96875,13.03125,17.03125)">
<stop offset="0" style="stop-color:#ff6666;stop-opacity:1;"/>
<stop offset="1" style="stop-color:#d90000;stop-opacity:1;"/>
</linearGradient>
</defs>
<g id="surface1">
<path style=" stroke:none;fill-rule:nonzero;fill:url(#linear0);" d="M 19.976562 0 C 14.945312 0.0585938 11.261719 -0.121094 8.25 1.539062 C 6.746094 2.371094 5.558594 3.777344 4.898438 5.53125 C 4.238281 7.285156 4 9.371094 4 12 L 4 52 C 4 54.632812 4.238281 56.714844 4.898438 58.46875 C 5.558594 60.222656 6.746094 61.628906 8.25 62.460938 C 11.261719 64.121094 14.945312 63.941406 19.976562 64 L 40.023438 64 C 45.058594 63.941406 48.738281 64.121094 51.75 62.460938 C 53.257812 61.628906 54.445312 60.222656 55.101562 58.46875 C 55.761719 56.714844 56 54.632812 56 52 L 56 12 C 56 9.371094 55.761719 7.285156 55.101562 5.53125 C 54.441406 3.777344 53.253906 2.371094 51.75 1.539062 C 48.738281 -0.121094 45.054688 0.0585938 40.023438 0 Z M 20 4 L 40 4 C 45.035156 4.058594 48.347656 4.238281 49.8125 5.046875 C 50.546875 5.453125 50.96875 5.898438 51.359375 6.9375 C 51.75 7.976562 52 9.632812 52 12 L 52 52 C 52 54.371094 51.75 56.023438 51.359375 57.0625 C 50.96875 58.101562 50.546875 58.546875 49.8125 58.953125 C 48.347656 59.761719 45.035156 59.941406 40 60 L 20 60 C 14.964844 59.941406 11.644531 59.761719 10.179688 58.953125 C 9.445312 58.546875 9.03125 58.101562 8.640625 57.0625 C 8.25 56.023438 8 54.371094 8 52 L 8 12 C 8 9.632812 8.25 7.976562 8.640625 6.9375 C 9.03125 5.898438 9.445312 5.453125 10.179688 5.046875 C 11.644531 4.238281 14.964844 4.058594 20 4 Z M 20 4 "/>
<path style=" stroke:none;fill-rule:nonzero;fill:url(#linear1);" d="M 21.515625 17.03125 L 13.03125 25.515625 L 15.859375 28.34375 L 24.34375 19.859375 Z M 38.484375 17.03125 L 35.65625 19.859375 L 44.140625 28.34375 L 46.96875 25.515625 Z M 30 24 C 24.5 24 20 28.5 20 34 C 20 39.5 24.5 44 30 44 C 35.5 44 40 39.5 40 34 C 40 28.5 35.5 24 30 24 Z M 30 28 C 33.335938 28 36 30.664062 36 34 C 36 37.335938 33.335938 40 30 40 C 26.664062 40 24 37.335938 24 34 C 24 30.664062 26.664062 28 30 28 Z M 24 48 L 24 52 L 36 52 L 36 48 Z M 24 48 "/>
</g>
</svg>
