<svg xmlns="http://www.w3.org/2000/svg" xmlns:xlink="http://www.w3.org/1999/xlink" width="64" height="64" viewBox="0 0 64 64" version="1.1">
<defs>
<linearGradient id="linear0" gradientUnits="userSpaceOnUse" x1="0" y1="0" x2="0" y2="1" gradientTransform="matrix(60,0,0,56,0,4)">
<stop offset="0" style="stop-color:#ff6666;stop-opacity:1;"/>
<stop offset="1" style="stop-color:#d90000;stop-opacity:1;"/>
</linearGradient>
<linearGradient id="linear1" gradientUnits="userSpaceOnUse" x1="0" y1="0" x2="0" y2="1" gradientTransform="matrix(56,0,0,4,2,44)">
<stop offset="0" style="stop-color:#ff6666;stop-opacity:1;"/>
<stop offset="1" style="stop-color:#d90000;stop-opacity:1;"/>
</linearGradient>
<linearGradient id="linear2" gradientUnits="userSpaceOnUse" x1="0" y1="0" x2="0" y2="1" gradientTransform="matrix(4,0,0,12,28,46)">
<stop offset="0" style="stop-color:#ff6666;stop-opacity:1;"/>
<stop offset="1" style="stop-color:#d90000;stop-opacity:1;"/>
</linearGradient>
</defs>
<g id="surface1">
<path style=" stroke:none;fill-rule:nonzero;fill:url(#linear0);" d="M 15.976562 4 C 10.945312 4.058594 7.261719 3.878906 4.25 5.539062 C 2.746094 6.371094 1.558594 7.777344 0.898438 9.53125 C 0.238281 11.285156 0 13.371094 0 16 L 0 48 C 0 50.628906 0.238281 52.714844 0.898438 54.46875 C 1.558594 56.222656 2.746094 57.628906 4.25 58.460938 C 7.261719 60.121094 10.945312 59.941406 15.976562 60 L 44.023438 60 C 49.058594 59.941406 52.738281 60.121094 55.75 58.460938 C 57.257812 57.628906 58.445312 56.222656 59.101562 54.46875 C 59.761719 52.714844 60 50.628906 60 48 L 60 16 C 60 13.371094 59.761719 11.285156 59.101562 9.53125 C 58.441406 7.777344 57.253906 6.371094 55.75 5.539062 C 52.738281 3.878906 49.054688 4.058594 44.023438 4 Z M 16 8 L 44 8 C 49.035156 8.058594 52.347656 8.238281 53.8125 9.046875 C 54.546875 9.453125 54.96875 9.898438 55.359375 10.9375 C 55.75 11.976562 56 13.628906 56 16 L 56 48 C 56 50.371094 55.75 52.023438 55.359375 53.0625 C 54.96875 54.101562 54.546875 54.546875 53.8125 54.953125 C 52.347656 55.761719 49.035156 55.941406 44 56 L 16 56 C 10.964844 55.941406 7.644531 55.761719 6.179688 54.953125 C 5.445312 54.546875 5.03125 54.101562 4.640625 53.0625 C 4.25 52.023438 4 50.371094 4 48 L 4 16 C 4 13.628906 4.25 11.976562 4.640625 10.9375 C 5.03125 9.898438 5.445312 9.453125 6.179688 9.046875 C 7.644531 8.238281 10.964844 8.058594 16 8 Z M 16 8 "/>
<path style=" stroke:none;fill-rule:evenodd;fill:url(#linear1);" d="M 2 44 L 2 48 L 58 48 L 58 44 Z M 2 44 "/>
<path style=" stroke:none;fill-rule:evenodd;fill:url(#linear2);" d="M 28 46 L 28 58 L 32 58 L 32 46 Z M 28 46 "/>
</g>
</svg>
