<svg xmlns="http://www.w3.org/2000/svg" xmlns:xlink="http://www.w3.org/1999/xlink" width="64" height="64" viewBox="0 0 64 64" version="1.1">
<defs>
<linearGradient id="linear0" gradientUnits="userSpaceOnUse" x1="0" y1="0" x2="0" y2="1" gradientTransform="matrix(60,0,0,44,0,12)">
<stop offset="0" style="stop-color:#ff6666;stop-opacity:1;"/>
<stop offset="1" style="stop-color:#d90000;stop-opacity:1;"/>
</linearGradient>
<linearGradient id="linear1" gradientUnits="userSpaceOnUse" x1="0" y1="0" x2="0" y2="1" gradientTransform="matrix(36.023438,0,0,20,12,24)">
<stop offset="0" style="stop-color:#ff6666;stop-opacity:1;"/>
<stop offset="1" style="stop-color:#d90000;stop-opacity:1;"/>
</linearGradient>
</defs>
<g id="surface1">
<path style=" stroke:none;fill-rule:nonzero;fill:url(#linear0);" d="M 15.976562 12 C 10.945312 12.058594 7.261719 11.878906 4.25 13.539062 C 2.746094 14.371094 1.558594 15.777344 0.898438 17.53125 C 0.238281 19.285156 0 21.371094 0 24 L 0 44 C 0 46.628906 0.238281 48.714844 0.898438 50.46875 C 1.558594 52.222656 2.746094 53.628906 4.25 54.460938 C 7.261719 56.121094 10.945312 55.941406 15.976562 56 L 44.023438 56 C 49.058594 55.941406 52.738281 56.121094 55.75 54.460938 C 57.257812 53.628906 58.445312 52.222656 59.101562 50.46875 C 59.761719 48.714844 60 46.628906 60 44 L 60 24 C 60 21.371094 59.761719 19.285156 59.101562 17.53125 C 58.441406 15.777344 57.253906 14.371094 55.75 13.539062 C 52.738281 11.878906 49.054688 12.058594 44.023438 12 Z M 16 16 L 44 16 C 49.035156 16.058594 52.347656 16.238281 53.8125 17.046875 C 54.546875 17.453125 54.96875 17.898438 55.359375 18.9375 C 55.75 19.976562 56 21.628906 56 24 L 56 44 C 56 46.371094 55.75 48.023438 55.359375 49.0625 C 54.96875 50.101562 54.546875 50.546875 53.8125 50.953125 C 52.347656 51.761719 49.035156 51.941406 44 52 L 16 52 C 10.964844 51.941406 7.652344 51.761719 6.1875 50.953125 C 5.453125 50.546875 5.03125 50.101562 4.640625 49.0625 C 4.25 48.023438 4 46.371094 4 44 L 4 24 C 4 21.628906 4.25 19.976562 4.640625 18.9375 C 5.03125 17.898438 5.453125 17.453125 6.1875 17.046875 C 7.652344 16.238281 10.964844 16.058594 16 16 Z M 16 16 "/>
<path style=" stroke:none;fill-rule:evenodd;fill:url(#linear1);" d="M 12 24 L 12 28 L 16 28 L 16 24 Z M 20 24 L 20 28 L 24 28 L 24 24 Z M 28 24 L 28 28 L 32 28 L 32 24 Z M 36 24 L 36 28 L 40 28 L 40 24 Z M 44 24 L 44 28 L 48 28 L 48 24 Z M 15.992188 32 L 16.007812 36 L 20 36 L 20 32 Z M 24 32 L 24 36 L 28 36 L 28 32 Z M 32 32 L 32 36 L 36 36 L 36 32 Z M 40 32 L 40 36 L 44 36 L 44 32 Z M 12 40 L 12 44 L 16 44 L 16 40 Z M 20 40 L 20 44 L 40 44 L 40 40 Z M 44 40 L 44.046875 44 L 48.023438 44 L 47.976562 40 Z M 44 40 "/>
</g>
</svg>
