<svg xmlns="http://www.w3.org/2000/svg" xmlns:xlink="http://www.w3.org/1999/xlink" width="64" height="64" viewBox="0 0 64 64" version="1.1">
<defs>
<linearGradient id="linear0" gradientUnits="userSpaceOnUse" x1="0" y1="0" x2="0" y2="1" gradientTransform="matrix(43.507812,0,0,60,8,4)">
<stop offset="0" style="stop-color:#ff6666;stop-opacity:1;"/>
<stop offset="1" style="stop-color:#d90000;stop-opacity:1;"/>
</linearGradient>
</defs>
<g id="surface1">
<path style=" stroke:none;fill-rule:nonzero;fill:url(#linear0);" d="M 29.757812 4 C 24.578125 4 19.402344 4.914062 14.539062 6.6875 L 13.851562 6.9375 L 9.492188 28.726562 C 8.75 32.4375 8.011719 36.257812 8 40.195312 C 7.988281 44.136719 8.714844 48.136719 10.453125 51.75 C 12.191406 55.367188 14.917969 58.511719 18.320312 60.679688 C 21.722656 62.847656 25.730469 64 29.757812 64 C 33.785156 64 37.792969 62.847656 41.195312 60.679688 C 44.597656 58.511719 47.316406 55.367188 49.054688 51.75 C 50.792969 48.136719 51.519531 44.136719 51.507812 40.195312 C 51.496094 36.257812 50.765625 32.4375 50.023438 28.726562 L 45.65625 6.9375 L 44.96875 6.6875 C 40.105469 4.914062 34.9375 4 29.757812 4 Z M 28 8.085938 L 28 20 L 32 20 L 32 8.109375 C 35.476562 8.355469 38.914062 9.121094 42.234375 10.203125 L 46.101562 29.515625 C 46.839844 33.203125 47.496094 36.753906 47.507812 40.203125 C 47.519531 43.644531 46.878906 47.046875 45.453125 50.015625 C 44.027344 52.980469 41.777344 55.558594 39.039062 57.304688 C 36.296875 59.050781 33.023438 60 29.757812 60 C 26.492188 60 23.210938 59.050781 20.46875 57.304688 C 17.730469 55.558594 15.480469 52.980469 14.054688 50.015625 C 12.628906 47.046875 11.988281 43.644531 12 40.203125 C 12.011719 36.757812 12.675781 33.207031 13.414062 29.515625 L 17.28125 10.203125 C 20.757812 9.070312 24.359375 8.289062 28 8.085938 Z M 28 8.085938 "/>
</g>
</svg>
