<svg xmlns="http://www.w3.org/2000/svg" xmlns:xlink="http://www.w3.org/1999/xlink" width="64" height="64" viewBox="0 0 64 64" version="1.1">
<defs>
<linearGradient id="linear0" gradientUnits="userSpaceOnUse" x1="0" y1="0" x2="0" y2="1" gradientTransform="matrix(56,0,0,56,4,4)">
<stop offset="0" style="stop-color:#ff6666;stop-opacity:1;"/>
<stop offset="1" style="stop-color:#d90000;stop-opacity:1;"/>
</linearGradient>
<linearGradient id="linear1" gradientUnits="userSpaceOnUse" x1="0" y1="0" x2="0" y2="1" gradientTransform="matrix(32,0,0,20,16,36)">
<stop offset="0" style="stop-color:#ff6666;stop-opacity:1;"/>
<stop offset="1" style="stop-color:#d90000;stop-opacity:1;"/>
</linearGradient>
</defs>
<g id="surface1">
<path style=" stroke:none;fill-rule:nonzero;fill:url(#linear0);" d="M 19.976562 4 C 14.945312 4.058594 11.261719 3.878906 8.25 5.539062 C 6.746094 6.371094 5.558594 7.777344 4.898438 9.53125 C 4.238281 11.285156 4 13.371094 4 16 L 4 48.828125 L 15.171875 60 L 44.023438 60 C 49.058594 59.941406 52.738281 60.121094 55.75 58.460938 C 57.257812 57.628906 58.445312 56.222656 59.101562 54.46875 C 59.761719 52.714844 60 50.628906 60 48 L 60 16 C 60 13.371094 59.761719 11.285156 59.101562 9.53125 C 58.441406 7.777344 57.253906 6.371094 55.75 5.539062 C 52.738281 3.878906 49.054688 4.058594 44.023438 4 Z M 20 8 L 44 8 C 49.035156 8.058594 52.355469 8.238281 53.820312 9.046875 C 54.554688 9.453125 54.96875 9.898438 55.359375 10.9375 C 55.75 11.976562 56 13.628906 56 16 L 56 48 C 56 50.371094 55.75 52.023438 55.359375 53.0625 C 54.96875 54.101562 54.554688 54.546875 53.820312 54.953125 C 52.351562 55.761719 49.03125 55.941406 43.976562 56 L 16.828125 56 L 8 47.171875 L 8 16 C 8 13.628906 8.25 11.976562 8.640625 10.9375 C 9.03125 9.898438 9.453125 9.453125 10.1875 9.046875 C 11.652344 8.238281 14.964844 8.058594 20 8 Z M 20 8 "/>
<path style=" stroke:none;fill-rule:nonzero;fill:url(#linear1);" d="M 16 36 L 16 56 L 24 56 L 24 40 L 32 40 L 32 56 L 48 56 L 48 36 Z M 16 36 "/>
</g>
</svg>
