<svg xmlns="http://www.w3.org/2000/svg" xmlns:xlink="http://www.w3.org/1999/xlink" width="64" height="64" viewBox="0 0 64 64" version="1.1">
<defs>
<linearGradient id="linear0" gradientUnits="userSpaceOnUse" x1="0" y1="0" x2="0" y2="1" gradientTransform="matrix(40,0,0,52,8,8)">
<stop offset="0" style="stop-color:#ff6666;stop-opacity:1;"/>
<stop offset="1" style="stop-color:#d90000;stop-opacity:1;"/>
</linearGradient>
<linearGradient id="linear1" gradientUnits="userSpaceOnUse" x1="0" y1="0" x2="0" y2="1" gradientTransform="matrix(20,0,0,8,16,16)">
<stop offset="0" style="stop-color:#ff6666;stop-opacity:1;"/>
<stop offset="1" style="stop-color:#d90000;stop-opacity:1;"/>
</linearGradient>
</defs>
<g id="surface1">
<path style=" stroke:none;fill-rule:nonzero;fill:url(#linear0);" d="M 20 8 C 17.371094 8 15.285156 8.238281 13.53125 8.898438 C 11.777344 9.558594 10.371094 10.746094 9.539062 12.25 C 7.878906 15.261719 8.058594 18.945312 8 23.976562 L 8 44.023438 C 8.058594 49.058594 7.878906 52.738281 9.539062 55.75 C 10.371094 57.257812 11.777344 58.445312 13.53125 59.101562 C 15.285156 59.761719 17.371094 60 20 60 L 36 60 C 38.628906 60 40.714844 59.761719 42.46875 59.101562 C 44.222656 58.441406 45.621094 57.253906 46.453125 55.75 C 48.113281 52.738281 47.941406 49.054688 48 44.023438 L 48 29.390625 L 43.90625 23.25 C 43.871094 18.683594 44.019531 15.074219 42.460938 12.25 C 41.628906 10.746094 40.222656 9.558594 38.46875 8.898438 C 36.714844 8.238281 34.628906 8 32 8 Z M 20 12 L 32 12 C 34.371094 12 36.023438 12.25 37.0625 12.640625 C 38.101562 13.03125 38.546875 13.453125 38.953125 14.1875 C 39.761719 15.65625 39.941406 18.96875 40 24.023438 L 40.007812 24.617188 L 44 30.609375 L 44 43.976562 C 43.941406 49.03125 43.761719 52.34375 42.953125 53.8125 C 42.546875 54.546875 42.101562 54.96875 41.0625 55.359375 C 40.023438 55.75 38.371094 56 36 56 L 20 56 C 17.628906 56 15.976562 55.75 14.9375 55.359375 C 13.898438 54.96875 13.453125 54.546875 13.046875 53.8125 C 12.238281 52.347656 12.058594 49.035156 12 44 L 12 24 C 12.058594 18.964844 12.238281 15.652344 13.046875 14.1875 C 13.453125 13.453125 13.898438 13.03125 14.9375 12.640625 C 15.976562 12.25 17.628906 12 20 12 Z M 20 12 "/>
<path style=" stroke:none;fill-rule:nonzero;fill:url(#linear1);" d="M 16 16 L 16 24 L 20 24 L 20 16 Z M 24 16 L 24 24 L 28 24 L 28 16 Z M 32 16 L 32 24 L 36 24 L 36 16 Z M 32 16 "/>
</g>
</svg>
