<svg xmlns="http://www.w3.org/2000/svg" xmlns:xlink="http://www.w3.org/1999/xlink" width="64" height="64" viewBox="0 0 64 64" version="1.1">
<defs>
<linearGradient id="linear0" gradientUnits="userSpaceOnUse" x1="0" y1="0" x2="0" y2="1" gradientTransform="matrix(44,0,0,48,8,16)">
<stop offset="0" style="stop-color:#ff6666;stop-opacity:1;"/>
<stop offset="1" style="stop-color:#d90000;stop-opacity:1;"/>
</linearGradient>
<linearGradient id="linear1" gradientUnits="userSpaceOnUse" x1="0" y1="0" x2="0" y2="1" gradientTransform="matrix(28,0,0,12,16,0)">
<stop offset="0" style="stop-color:#ff6666;stop-opacity:1;"/>
<stop offset="1" style="stop-color:#d90000;stop-opacity:1;"/>
</linearGradient>
</defs>
<g id="surface1">
<path style=" stroke:none;fill-rule:nonzero;fill:url(#linear0);" d="M 20 16 C 17.371094 16 15.285156 16.238281 13.53125 16.898438 C 11.777344 17.558594 10.371094 18.746094 9.539062 20.25 C 7.878906 23.261719 8.058594 26.945312 8 31.976562 L 8 48.023438 C 8.058594 53.058594 7.878906 56.738281 9.539062 59.75 C 10.371094 61.257812 11.777344 62.445312 13.53125 63.101562 C 15.285156 63.761719 17.371094 64 20 64 L 40 64 C 42.628906 64 44.714844 63.761719 46.46875 63.101562 C 48.222656 62.441406 49.621094 61.253906 50.453125 59.75 C 52.113281 56.738281 51.941406 53.054688 52 48.023438 L 52 31.976562 C 51.941406 26.941406 52.121094 23.261719 50.460938 20.25 C 49.628906 18.742188 48.222656 17.554688 46.46875 16.898438 C 44.714844 16.238281 42.628906 16 40 16 Z M 20 20 L 40 20 C 42.371094 20 44.023438 20.25 45.0625 20.640625 C 46.101562 21.03125 46.546875 21.453125 46.953125 22.1875 C 47.761719 23.652344 47.941406 26.964844 48 32 L 48 47.976562 C 47.941406 53.03125 47.761719 56.34375 46.953125 57.8125 C 46.546875 58.546875 46.101562 58.96875 45.0625 59.359375 C 44.023438 59.75 42.371094 60 40 60 L 20 60 C 17.628906 60 15.976562 59.75 14.9375 59.359375 C 13.898438 58.96875 13.453125 58.546875 13.046875 57.8125 C 12.238281 56.347656 12.058594 53.035156 12 48 L 12 32 C 12.058594 26.964844 12.238281 23.652344 13.046875 22.1875 C 13.453125 21.453125 13.898438 21.03125 14.9375 20.640625 C 15.976562 20.25 17.628906 20 20 20 Z M 20 20 "/>
<path style=" stroke:none;fill-rule:evenodd;fill:url(#linear1);" d="M 16 0 L 16 12 L 20 12 L 20 4 L 40 4 L 40 12 L 44 12 L 44 0 Z M 24 8 L 24 12 L 28 12 L 28 8 Z M 32 8 L 32 12 L 36 12 L 36 8 Z M 32 8 "/>
</g>
</svg>
