<svg xmlns="http://www.w3.org/2000/svg" xmlns:xlink="http://www.w3.org/1999/xlink" width="64" height="64" viewBox="0 0 64 64" version="1.1">
<defs>
<linearGradient id="linear0" gradientUnits="userSpaceOnUse" x1="0" y1="0" x2="0" y2="1" gradientTransform="matrix(51.203125,0,0,64,6.398438,0)">
<stop offset="0" style="stop-color:#ff6666;stop-opacity:1;"/>
<stop offset="1" style="stop-color:#d90000;stop-opacity:1;"/>
</linearGradient>
</defs>
<g id="surface1">
<path style=" stroke:none;fill-rule:nonzero;fill:url(#linear0);" d="M 12.800781 0 C 9.273438 0 6.398438 2.871094 6.398438 6.398438 L 6.398438 57.601562 C 6.398438 61.128906 9.273438 64 12.800781 64 L 51.199219 64 C 54.726562 64 57.601562 61.128906 57.601562 57.601562 L 57.601562 35.199219 L 54.398438 35.199219 C 52.472656 35.199219 51.199219 33.929688 51.199219 32 C 51.199219 30.070312 52.472656 28.800781 54.398438 28.800781 L 57.601562 28.800781 L 57.601562 6.398438 C 57.601562 2.871094 54.726562 0 51.199219 0 Z M 14.398438 6.398438 L 43.199219 6.398438 C 44.160156 6.398438 44.800781 7.039062 44.800781 8 L 44.800781 56 C 44.800781 56.960938 44.160156 57.601562 43.199219 57.601562 L 14.398438 57.601562 C 13.441406 57.601562 12.800781 56.960938 12.800781 56 L 12.800781 8 C 12.800781 7.039062 13.441406 6.398438 14.398438 6.398438 Z M 19.199219 12.800781 L 19.199219 22.398438 L 38.398438 22.398438 L 38.398438 12.800781 Z M 19.199219 25.601562 L 19.199219 38.398438 L 38.398438 38.398438 L 38.398438 25.601562 Z M 19.199219 41.601562 L 19.199219 51.199219 L 38.398438 51.199219 L 38.398438 41.601562 Z M 19.199219 41.601562 "/>
</g>
</svg>
