<svg xmlns="http://www.w3.org/2000/svg" xmlns:xlink="http://www.w3.org/1999/xlink" width="64" height="64" viewBox="0 0 64 64" version="1.1">
<defs>
<linearGradient id="linear0" gradientUnits="userSpaceOnUse" x1="0" y1="0" x2="0" y2="1" gradientTransform="matrix(48,0,0,63.875,8,0.125)">
<stop offset="0" style="stop-color:#ff6666;stop-opacity:1;"/>
<stop offset="1" style="stop-color:#d90000;stop-opacity:1;"/>
</linearGradient>
</defs>
<g id="surface1">
<path style=" stroke:none;fill-rule:evenodd;fill:url(#linear0);" d="M 17.253906 32 L 12 32 C 9.792969 32 8 33.792969 8 36 L 8 60 C 8 62.207031 9.792969 64 12 64 L 52 64 C 54.207031 64 56 62.207031 56 60 L 56 36 C 56 33.792969 54.207031 32 52 32 L 47 32 L 47 15 C 47 6.792969 40.335938 0.125 32.125 0.125 C 23.914062 0.125 17.246094 6.792969 17.253906 15 Z M 22.574219 32 L 41.671875 32 L 41.671875 15.773438 C 41.671875 10.308594 37.394531 5.875 32.125 5.875 C 26.855469 5.875 22.574219 10.308594 22.574219 15.773438 Z M 22.574219 32 "/>
</g>
</svg>
