<svg xmlns="http://www.w3.org/2000/svg" xmlns:xlink="http://www.w3.org/1999/xlink" width="64" height="64" viewBox="0 0 64 64" version="1.1">
<defs>
<linearGradient id="linear0" gradientUnits="userSpaceOnUse" x1="0" y1="0" x2="0" y2="1" gradientTransform="matrix(64,0,0,57.5,-0.125,6.5)">
<stop offset="0" style="stop-color:#ff6666;stop-opacity:1;"/>
<stop offset="1" style="stop-color:#d90000;stop-opacity:1;"/>
</linearGradient>
</defs>
<g id="surface1">
<path style=" stroke:none;fill-rule:evenodd;fill:url(#linear0);" d="M 57.5 44.164062 C 61.136719 44.914062 63.875 48.140625 63.875 52 L 63.875 56 C 63.875 60.414062 60.292969 64 55.875 64 L 7.875 64 C 3.460938 64 -0.125 60.414062 -0.125 56 L -0.125 52 C -0.125 47.585938 3.460938 44 7.875 44 L 36.375 44 L 36.375 11.171875 C 36.375 8.59375 38.421875 6.5 40.9375 6.5 C 43.457031 6.5 45.5 8.59375 45.5 11.171875 L 45.5 44 L 48.375 44 L 48.375 11.171875 C 48.375 8.59375 50.421875 6.5 52.9375 6.5 C 55.457031 6.5 57.5 8.59375 57.5 11.171875 Z M 6.5 54.5 C 6.5 51.1875 9.1875 48.5 12.5 48.5 C 15.8125 48.5 18.5 51.1875 18.5 54.5 C 18.5 57.8125 15.8125 60.5 12.5 60.5 C 9.1875 60.5 6.5 57.8125 6.5 54.5 Z M 22.5 54.5 C 22.5 51.1875 25.1875 48.5 28.5 48.5 C 31.8125 48.5 34.5 51.1875 34.5 54.5 C 34.5 57.8125 31.8125 60.5 28.5 60.5 C 25.1875 60.5 22.5 57.8125 22.5 54.5 Z M 22.5 54.5 "/>
</g>
</svg>
