<svg xmlns="http://www.w3.org/2000/svg" xmlns:xlink="http://www.w3.org/1999/xlink" width="64" height="64" viewBox="0 0 64 64" version="1.1">
<defs>
<linearGradient id="linear0" gradientUnits="userSpaceOnUse" x1="0" y1="0" x2="0" y2="1" gradientTransform="matrix(36.007812,0,0,61,15.996094,3)">
<stop offset="0" style="stop-color:#ff6666;stop-opacity:1;"/>
<stop offset="1" style="stop-color:#d90000;stop-opacity:1;"/>
</linearGradient>
</defs>
<g id="surface1">
<path style=" stroke:none;fill-rule:nonzero;fill:url(#linear0);" d="M 20 3 L 16 4 L 16 50 C 16 54 15.851562 57.175781 17.210938 59.890625 C 17.890625 61.25 19.0625 62.410156 20.5625 63.078125 C 22.0625 63.746094 23.832031 64 26 64 L 42 64 C 44.167969 64 45.9375 63.746094 47.4375 63.078125 C 48.9375 62.410156 50.109375 61.25 50.789062 59.890625 C 52.148438 57.175781 52 54 52 50 L 52 26 C 52 22 52.148438 18.824219 50.789062 16.109375 C 50.109375 14.75 48.9375 13.589844 47.4375 12.921875 C 45.9375 12.253906 44.167969 12 42 12 L 20 12 Z M 20 16 L 42 16 C 43.832031 16 45.0625 16.246094 45.8125 16.578125 C 46.5625 16.910156 46.890625 17.25 47.210938 17.890625 C 47.851562 19.175781 48 22 48 26 L 48 50 C 48 54 47.851562 56.824219 47.210938 58.109375 C 46.890625 58.75 46.5625 59.089844 45.8125 59.421875 C 45.0625 59.753906 43.832031 60 42 60 L 26 60 C 24.167969 60 22.9375 59.753906 22.1875 59.421875 C 21.441406 59.089844 21.109375 58.75 20.789062 58.109375 C 20.148438 56.824219 20 54 20 50 Z M 24 20 L 24 32 L 44 32 L 44 20 Z M 24 36 L 24 40 L 28 40 L 28 36 Z M 32 36 L 32 40 L 36 40 L 36 36 Z M 40 36 L 40 40 L 44 40 L 44 36 Z M 24 44 L 24 48 L 28 48 L 28 44 Z M 32 44 L 32 48 L 36 48 L 36 44 Z M 40 44 L 40 48 L 44 48 L 44 44 Z M 24 52 L 24 56 L 28 56 L 28 52 Z M 32 52 L 32 56 L 36 56 L 36 52 Z M 40 52 L 40 56 L 44 56 L 44 52 Z M 40 52 "/>
</g>
</svg>
