<svg xmlns="http://www.w3.org/2000/svg" xmlns:xlink="http://www.w3.org/1999/xlink" width="64" height="64" viewBox="0 0 64 64" version="1.1">
<defs>
<linearGradient id="linear0" gradientUnits="userSpaceOnUse" x1="0" y1="0" x2="0" y2="1" gradientTransform="matrix(64,0,0,64,0,0)">
<stop offset="0" style="stop-color:#ff6666;stop-opacity:1;"/>
<stop offset="1" style="stop-color:#d90000;stop-opacity:1;"/>
</linearGradient>
</defs>
<g id="surface1">
<path style=" stroke:none;fill-rule:nonzero;fill:url(#linear0);" d="M 12 0 L 12 16.101562 C 9.003906 16.171875 6.359375 16.375 4.25 17.539062 C 2.746094 18.371094 1.558594 19.777344 0.898438 21.53125 C 0.238281 23.285156 0 25.371094 0 28 L 0 40 C 0 42.628906 0.238281 44.714844 0.898438 46.46875 C 1.558594 48.222656 2.746094 49.628906 4.25 50.460938 C 5.378906 51.085938 6.644531 51.394531 8 51.609375 L 8 47.507812 C 7.25 47.367188 6.609375 47.191406 6.179688 46.953125 C 5.445312 46.546875 5.03125 46.101562 4.640625 45.0625 C 4.25 44.023438 4 42.371094 4 40 L 4 28 C 4 25.628906 4.25 23.976562 4.640625 22.9375 C 5.03125 21.898438 5.445312 21.453125 6.179688 21.046875 C 7.644531 20.238281 10.964844 20.058594 16 20 L 48 20 C 53.035156 20.058594 56.347656 20.238281 57.8125 21.046875 C 58.546875 21.453125 58.96875 21.898438 59.359375 22.9375 C 59.75 23.976562 60 25.628906 60 28 L 60 40 C 60 42.371094 59.75 44.023438 59.359375 45.0625 C 58.96875 46.101562 58.546875 46.546875 57.8125 46.953125 C 57.382812 47.191406 56.746094 47.367188 56 47.507812 L 56 51.609375 C 57.355469 51.394531 58.621094 51.085938 59.75 50.460938 C 61.253906 49.628906 62.441406 48.222656 63.101562 46.46875 C 63.761719 44.714844 64 42.628906 64 40 L 64 28 C 64 25.371094 63.761719 23.285156 63.101562 21.53125 C 62.441406 19.777344 61.253906 18.371094 59.75 17.539062 C 57.644531 16.375 55 16.171875 52 16.101562 L 52 0 Z M 16 4 L 48 4 L 48 16 L 16 16 Z M 54 24 C 52.894531 24 52 24.894531 52 26 C 52 27.105469 52.894531 28 54 28 C 55.105469 28 56 27.105469 56 26 C 56 24.894531 55.105469 24 54 24 Z M 12 40 L 12 64 L 52 64 L 52 40 L 48 40 L 48 60 L 16 60 L 16 40 Z M 20 44 L 20 48 L 44 48 L 44 44 Z M 20 52 L 20 56 L 44 56 L 44 52 Z M 20 52 "/>
</g>
</svg>
