<svg xmlns="http://www.w3.org/2000/svg" xmlns:xlink="http://www.w3.org/1999/xlink" width="64" height="64" viewBox="0 0 64 64" version="1.1">
<defs>
<linearGradient id="linear0" gradientUnits="userSpaceOnUse" x1="0" y1="0" x2="0" y2="1" gradientTransform="matrix(51.203125,0,0,64,6.398438,0)">
<stop offset="0" style="stop-color:#ff6666;stop-opacity:1;"/>
<stop offset="1" style="stop-color:#d90000;stop-opacity:1;"/>
</linearGradient>
</defs>
<g id="surface1">
<path style=" stroke:none;fill-rule:nonzero;fill:url(#linear0);" d="M 13.398438 0 C 11.511719 0 9.722656 0.710938 8.5 2.101562 C 7.300781 3.464844 6.835938 5.335938 7.101562 7.101562 L 7.101562 7.199219 L 9.601562 25.601562 L 6.398438 54 L 6.398438 57.601562 C 6.398438 59.273438 6.988281 60.988281 8.199219 62.199219 C 9.410156 63.410156 11.128906 64 12.800781 64 L 51.199219 64 C 52.871094 64 54.589844 63.410156 55.800781 62.199219 C 57.011719 60.988281 57.601562 59.273438 57.601562 57.601562 L 57.601562 54 L 54.398438 25.601562 L 56.898438 7.199219 L 56.898438 7.101562 C 57.425781 3.558594 54.5625 0 50.898438 0 Z M 16 25.601562 L 48 25.601562 L 48 26 L 51.199219 54.398438 L 12.800781 54.398438 L 16 26 Z M 18.199219 35.199219 L 17.300781 41.601562 L 46.398438 41.601562 L 45.800781 35.199219 Z M 18.199219 35.199219 "/>
</g>
</svg>
