<svg xmlns="http://www.w3.org/2000/svg" xmlns:xlink="http://www.w3.org/1999/xlink" width="64" height="64" viewBox="0 0 64 64" version="1.1">
<defs>
<linearGradient id="linear0" gradientUnits="userSpaceOnUse" x1="0" y1="0" x2="0" y2="1" gradientTransform="matrix(64,0,0,48,0,4)">
<stop offset="0" style="stop-color:#ff6666;stop-opacity:1;"/>
<stop offset="1" style="stop-color:#d90000;stop-opacity:1;"/>
</linearGradient>
<linearGradient id="linear1" gradientUnits="userSpaceOnUse" x1="0" y1="0" x2="0" y2="1" gradientTransform="matrix(32,0,0,16,16,48)">
<stop offset="0" style="stop-color:#ff6666;stop-opacity:1;"/>
<stop offset="1" style="stop-color:#d90000;stop-opacity:1;"/>
</linearGradient>
</defs>
<g id="surface1">
<path style=" stroke:none;fill-rule:nonzero;fill:url(#linear0);" d="M 15.976562 4 C 10.945312 4.058594 7.261719 3.878906 4.25 5.539062 C 2.746094 6.371094 1.558594 7.777344 0.898438 9.53125 C 0.238281 11.285156 0 13.371094 0 16 L 0 40 C 0 42.628906 0.238281 44.714844 0.898438 46.46875 C 1.558594 48.222656 2.746094 49.628906 4.25 50.460938 C 7.261719 52.121094 10.945312 51.941406 15.976562 52 L 48.023438 52 C 53.058594 51.941406 56.738281 52.121094 59.75 50.460938 C 61.257812 49.628906 62.445312 48.222656 63.101562 46.46875 C 63.761719 44.714844 64 42.628906 64 40 L 64 16 C 64 13.371094 63.761719 11.285156 63.101562 9.53125 C 62.441406 7.777344 61.253906 6.371094 59.75 5.539062 C 56.738281 3.878906 53.054688 4.058594 48.023438 4 Z M 16 8 L 48 8 C 53.035156 8.058594 56.347656 8.238281 57.8125 9.046875 C 58.546875 9.453125 58.96875 9.898438 59.359375 10.9375 C 59.75 11.976562 60 13.628906 60 16 L 60 40 C 60 42.371094 59.75 44.023438 59.359375 45.0625 C 58.96875 46.101562 58.546875 46.546875 57.8125 46.953125 C 56.347656 47.761719 53.035156 47.941406 48 48 L 16 48 C 10.964844 47.941406 7.644531 47.761719 6.179688 46.953125 C 5.445312 46.546875 5.03125 46.101562 4.640625 45.0625 C 4.25 44.023438 4 42.371094 4 40 L 4 16 C 4 13.628906 4.25 11.976562 4.640625 10.9375 C 5.03125 9.898438 5.445312 9.453125 6.179688 9.046875 C 7.644531 8.238281 10.964844 8.058594 16 8 Z M 16 8 "/>
<path style=" stroke:none;fill-rule:nonzero;fill:url(#linear1);" d="M 24 48 L 40 48 L 40 54 C 40 60 42 60 46 60 L 48 60 L 48 64 L 16 64 L 16 60 L 18 60 C 22 60 24 60 24 54 Z M 24 48 "/>
</g>
</svg>
