<svg xmlns="http://www.w3.org/2000/svg" xmlns:xlink="http://www.w3.org/1999/xlink" width="64" height="64" viewBox="0 0 64 64" version="1.1">
<defs>
<linearGradient id="linear0" gradientUnits="userSpaceOnUse" x1="0" y1="0" x2="0" y2="1" gradientTransform="matrix(64,0,0,55.65625,0,4.171875)">
<stop offset="0" style="stop-color:#ff6666;stop-opacity:1;"/>
<stop offset="1" style="stop-color:#d90000;stop-opacity:1;"/>
</linearGradient>
</defs>
<g id="surface1">
<path style=" stroke:none;fill-rule:nonzero;fill:url(#linear0);" d="M 13.910156 4.171875 C 4.304688 4.171875 0 7.667969 0 11.132812 L 0 55.652344 C 0 57.953125 1.875 59.828125 4.171875 59.828125 L 59.828125 59.828125 C 62.125 59.828125 64 57.953125 64 55.652344 L 64 11.132812 C 64 7.667969 59.695312 4.171875 50.089844 4.171875 Z M 12.519531 15.304688 L 36.171875 15.304688 L 36.171875 25.042969 L 12.519531 25.042969 Z M 49.390625 20.867188 C 52.796875 20.941406 55.519531 23.722656 55.519531 27.132812 C 55.519531 30.535156 52.796875 33.320312 49.390625 33.390625 C 45.984375 33.320312 43.261719 30.535156 43.261719 27.132812 C 43.261719 23.722656 45.984375 20.941406 49.390625 20.867188 Z M 49.390625 25.042969 C 48.238281 25.042969 47.304688 25.976562 47.304688 27.132812 C 47.304688 28.285156 48.238281 29.214844 49.390625 29.214844 C 50.542969 29.214844 51.480469 28.285156 51.480469 27.132812 C 51.480469 25.976562 50.542969 25.042969 49.390625 25.042969 Z M 29.910156 32 C 31.0625 32 32 32.9375 32 34.089844 C 32 35.238281 31.0625 36.171875 29.910156 36.171875 C 28.761719 36.171875 27.828125 35.238281 27.828125 34.089844 C 27.828125 32.9375 28.761719 32 29.910156 32 Z M 13.910156 44.519531 L 50.089844 44.519531 C 52.390625 44.519531 54.261719 46.390625 54.261719 48.695312 L 54.261719 57.042969 L 50 57.042969 C 50.046875 56.816406 50.089844 56.589844 50.089844 56.347656 L 50.089844 52.171875 C 50.089844 50.257812 48.527344 48.695312 46.609375 48.695312 C 44.6875 48.695312 43.132812 50.253906 43.132812 52.171875 L 43.132812 56.347656 C 43.132812 56.589844 43.167969 56.816406 43.21875 57.042969 L 40.261719 57.042969 C 40.3125 56.816406 40.347656 56.589844 40.347656 56.347656 L 40.347656 52.171875 C 40.347656 50.257812 38.789062 48.695312 36.867188 48.695312 C 34.949219 48.695312 33.390625 50.253906 33.390625 52.171875 L 33.390625 56.347656 C 33.390625 56.589844 33.429688 56.816406 33.480469 57.042969 L 30.523438 57.042969 C 30.570312 56.816406 30.609375 56.589844 30.609375 56.347656 L 30.609375 52.171875 C 30.609375 50.257812 29.046875 48.695312 27.132812 48.695312 C 25.210938 48.695312 23.652344 50.253906 23.652344 52.171875 L 23.652344 56.347656 C 23.652344 56.589844 23.6875 56.816406 23.738281 57.042969 L 20.785156 57.042969 C 20.832031 56.816406 20.867188 56.589844 20.867188 56.347656 L 20.867188 52.171875 C 20.867188 50.257812 19.308594 48.695312 17.390625 48.695312 C 15.472656 48.695312 13.914062 50.253906 13.910156 52.171875 L 13.910156 56.347656 C 13.910156 56.589844 13.953125 56.816406 14 57.042969 L 9.738281 57.042969 L 9.738281 48.695312 C 9.738281 46.390625 11.609375 44.519531 13.910156 44.519531 Z M 13.910156 44.519531 "/>
</g>
</svg>
