<svg xmlns="http://www.w3.org/2000/svg" xmlns:xlink="http://www.w3.org/1999/xlink" width="64" height="64" viewBox="0 0 64 64" version="1.1">
<defs>
<linearGradient id="linear0" gradientUnits="userSpaceOnUse" x1="0" y1="0" x2="0" y2="1" gradientTransform="matrix(63.894531,0,0,64,0.0546875,0)">
<stop offset="0" style="stop-color:#ff6666;stop-opacity:1;"/>
<stop offset="1" style="stop-color:#d90000;stop-opacity:1;"/>
</linearGradient>
</defs>
<g id="surface1">
<path style=" stroke:none;fill-rule:nonzero;fill:url(#linear0);" d="M 47.300781 0 C 46.597656 0.0234375 46.046875 0.617188 46.058594 1.320312 C 46.074219 2.011719 46.644531 2.5625 47.339844 2.554688 L 47.375 2.554688 C 47.542969 2.535156 52.027344 2.535156 56.640625 7.269531 C 61.28125 12.023438 61.390625 16.566406 61.390625 16.613281 C 61.390625 17.316406 61.964844 17.886719 62.667969 17.886719 C 63.375 17.886719 63.949219 17.316406 63.949219 16.613281 C 63.949219 16.382812 63.886719 11.058594 58.476562 5.511719 C 53.03125 -0.0664062 47.546875 -0.0117188 47.300781 0 Z M 47.339844 7.667969 C 46.640625 7.667969 46.070312 8.246094 46.058594 8.945312 C 46.050781 9.644531 46.640625 10.207031 47.339844 10.222656 C 47.425781 10.222656 49.421875 10.308594 51.527344 12.421875 C 53.640625 14.527344 53.726562 16.539062 53.726562 16.613281 C 53.726562 17.316406 54.300781 17.886719 55.003906 17.886719 C 55.707031 17.886719 56.28125 17.316406 56.28125 16.613281 C 56.28125 16.484375 56.261719 13.476562 53.367188 10.578125 C 50.472656 7.6875 47.464844 7.667969 47.339844 7.667969 Z M 36.761719 7.707031 C 35.328125 7.695312 33.945312 8.222656 32.882812 9.183594 L 1.585938 40.605469 C -0.449219 42.640625 -0.464844 45.972656 1.585938 48.1875 L 15.921875 62.484375 C 16.902344 63.464844 18.238281 64.011719 19.632812 64 C 21.054688 63.996094 22.425781 63.457031 23.464844 62.484375 L 54.804688 31.101562 C 56.757812 28.820312 56.757812 25.507812 54.765625 23.515625 L 40.433594 9.183594 C 39.457031 8.207031 38.132812 7.710938 36.761719 7.707031 Z M 35.839844 19.164062 C 40.78125 19.164062 44.785156 23.167969 44.785156 28.109375 C 44.785156 33.046875 40.78125 37.050781 35.839844 37.050781 C 30.898438 37.050781 26.894531 33.046875 26.894531 28.109375 C 26.894531 23.167969 30.898438 19.164062 35.839844 19.164062 Z M 35.839844 25.550781 C 34.429688 25.550781 33.285156 26.695312 33.285156 28.109375 C 33.285156 29.519531 34.429688 30.664062 35.839844 30.664062 C 37.253906 30.664062 38.394531 29.519531 38.394531 28.109375 C 38.394531 26.695312 37.253906 25.550781 35.839844 25.550781 Z M 19.230469 34.496094 C 20.644531 34.496094 21.789062 35.640625 21.789062 37.050781 C 21.789062 38.464844 20.644531 39.609375 19.230469 39.609375 C 17.820312 39.609375 16.675781 38.464844 16.675781 37.050781 C 16.675781 35.640625 17.820312 34.496094 19.230469 34.496094 Z M 12.84375 40.882812 C 14.257812 40.882812 15.398438 42.027344 15.398438 43.441406 C 15.398438 44.851562 14.257812 45.996094 12.84375 45.996094 C 11.433594 45.996094 10.289062 44.851562 10.289062 43.441406 C 10.289062 42.027344 11.433594 40.882812 12.84375 40.882812 Z M 26.894531 42.164062 C 28.308594 42.164062 29.453125 43.308594 29.453125 44.714844 C 29.453125 46.128906 28.308594 47.273438 26.894531 47.273438 C 25.484375 47.273438 24.339844 46.128906 24.339844 44.714844 C 24.339844 43.308594 25.484375 42.164062 26.894531 42.164062 Z M 20.507812 48.546875 C 21.921875 48.546875 23.0625 49.691406 23.0625 51.105469 C 23.0625 52.515625 21.921875 53.660156 20.507812 53.660156 C 19.097656 53.660156 17.953125 52.515625 17.953125 51.105469 C 17.953125 49.691406 19.097656 48.546875 20.507812 48.546875 Z M 20.507812 48.546875 "/>
</g>
</svg>
