<?xml version="1.0" encoding="UTF-8" standalone="no"?>
<!-- Created with Inkscape (http://www.inkscape.org/) -->

<svg
   width="64"
   version="1.1"
   height="64"
   id="svg1"
   sodipodi:docname="start-here-kde.svg"
   inkscape:version="1.3.2 (091e20ef0f, 2023-11-25)"
   xmlns:inkscape="http://www.inkscape.org/namespaces/inkscape"
   xmlns:sodipodi="http://sodipodi.sourceforge.net/DTD/sodipodi-0.dtd"
   xmlns:xlink="http://www.w3.org/1999/xlink"
   xmlns="http://www.w3.org/2000/svg"
   xmlns:svg="http://www.w3.org/2000/svg">
  <sodipodi:namedview
     id="namedview1"
     pagecolor="#ffffff"
     bordercolor="#999999"
     borderopacity="1"
     inkscape:showpageshadow="2"
     inkscape:pageopacity="0"
     inkscape:pagecheckerboard="0"
     inkscape:deskcolor="#d1d1d1"
     inkscape:zoom="2.9765625"
     inkscape:cx="43.338583"
     inkscape:cy="65.67979"
     inkscape:window-width="1920"
     inkscape:window-height="994"
     inkscape:window-x="0"
     inkscape:window-y="0"
     inkscape:window-maximized="1"
     inkscape:current-layer="layer1" />
  <defs
     id="defs5455">
    <linearGradient
       inkscape:collect="always"
       xlink:href="#linearGradient985"
       id="linearGradient8"
       gradientUnits="userSpaceOnUse"
       x1="0"
       y1="16"
       x2="32"
       y2="16"
       gradientTransform="matrix(1.625,0,0,1.625,358.57143,563.46091)" />
    <linearGradient
       inkscape:collect="always"
       id="linearGradient985">
      <stop
         style="stop-color:#4e51ac;stop-opacity:1"
         offset="0"
         id="stop980" />
      <stop
         style="stop-color:#4e9fac;stop-opacity:1"
         offset="1"
         id="stop982" />
    </linearGradient>
    <linearGradient
       inkscape:collect="always"
       xlink:href="#linearGradient851"
       id="linearGradient5"
       x1="8"
       y1="16"
       x2="23.999992"
       y2="16"
       gradientUnits="userSpaceOnUse"
       gradientTransform="matrix(1.9999986,0,0,1.9999986,384.57157,483.7981)" />
    <linearGradient
       inkscape:collect="always"
       id="linearGradient851">
      <stop
         style="stop-color:#2ad4ff;stop-opacity:1"
         offset="0"
         id="stop845" />
      <stop
         style="stop-color:#ff67ff;stop-opacity:1"
         offset="1"
         id="stop847" />
    </linearGradient>
    <linearGradient
       inkscape:collect="always"
       xlink:href="#linearGradient851"
       id="linearGradient2-3"
       x1="29"
       y1="-99"
       x2="49"
       y2="-90"
       gradientUnits="userSpaceOnUse"
       gradientTransform="matrix(1.9999986,0,0,1.9999986,332.57158,713.79804)" />
  </defs>
  <metadata
     id="metadata5458" />
  <g
     inkscape:label="Capa 1"
     inkscape:groupmode="layer"
     id="layer1"
     transform="matrix(1 0 0 1 -384.57143 -483.798)">
    <flowRoot
       line-height="125%"
       style="font-size:32.500004;font-family:sans-serif"
       id="flowRoot4170"><flowRegion
         id="flowRegion4172"><rect
           width="87.75001"
           x="452.32144"
           y="489.79807"
           height="48.750004"
           id="rect4174" /></flowRegion><flowPara
         id="flowPara4176">Plasm</flowPara></flowRoot>
    <rect
       id="rect7"
       style="opacity:0.00100002;fill:url(#linearGradient8);stroke-width:1.625"
       width="52"
       height="52"
       x="358.57144"
       y="563.46094" />
    <path
       id="path20-3-3-6-3"
       style="color:#d1d5e9;fill:url(#linearGradient5);fill-opacity:1;stroke-width:1.32613"
       d="m 408.57156,500.14174 c -1.10469,0 -1.99999,0.88589 -1.99999,1.97853 0,1.0927 0.8953,1.97847 1.99999,1.97847 1.10454,0 1.99991,-0.88577 1.99991,-1.97847 0,-1.09264 -0.89537,-1.97853 -1.99991,-1.97853 z m 13.99996,0 c -2.43767,-1.3384 -5.32806,1.49627 -3.99995,3.957 l 5.99985,5.93562 -5.99985,5.93546 c -1.64771,2.72246 1.61231,5.33296 3.99995,3.95706 l 10.00003,-9.89252 z m -18.66679,11.87102 c -1.84092,0 -3.3333,1.47642 -3.3333,3.29759 0,1.82113 1.49238,3.29749 3.3333,3.29749 1.84104,0 3.33343,-1.47636 3.33343,-3.29749 0,-1.82117 -1.49239,-3.29759 -3.33343,-3.29759 z m 8.66681,11.87117 c -2.20911,0 -3.99998,1.77162 -3.99998,3.9571 0,2.18531 1.79087,3.95705 3.99998,3.95705 2.2091,0 3.99996,-1.77174 3.99996,-3.95705 0,-2.18548 -1.79086,-3.9571 -3.99996,-3.9571 z"
       class="  ColorScheme-Text"
       sodipodi:nodetypes="ssssscccccccssssssssss" />
    <path
       d="m 416.54208,541.798 c -1.39033,0 -2.7807,-0.12057 -4.17112,-0.3626 -14.14548,-2.29646 -23.75745,-15.65243 -21.46025,-29.79397 1.08805,-6.82916 4.83614,-12.87257 10.4581,-16.92148 5.62207,-4.04915 12.51347,-5.68097 19.34435,-4.59317 14.1457,2.29663 23.81792,15.65248 21.52064,29.79409 -0.42302,2.71955 -1.26934,5.31822 -2.53887,7.73549 -0.30225,0.60441 -0.60446,1.14827 -0.96722,1.69228 -0.54405,0.84605 -1.63211,1.14818 -2.47848,0.60419 -0.84637,-0.54392 -1.14857,-1.63162 -0.60445,-2.47769 0.30213,-0.48343 0.54402,-0.96692 0.84625,-1.45042 1.08819,-2.05471 1.81348,-4.35117 2.17623,-6.64778 1.93443,-12.14731 -6.34732,-23.69025 -18.55857,-25.62397 -5.92415,-0.96701 -11.78796,0.42306 -16.68449,3.92817 -4.83608,3.50509 -8.03992,8.64213 -9.00713,14.56465 -1.99495,12.14724 6.34722,23.69012 18.498,25.62402 5.19879,0.84603 10.51854,-0.18128 14.99198,-2.84044 0.84624,-0.48351 1.99485,-0.2417 2.47848,0.60439 0.4836,0.84603 0.24169,1.99421 -0.60463,2.47771 -3.98976,2.41748 -8.58414,3.68653 -13.23882,3.68653 z"
       id="path2-53"
       style="fill:url(#linearGradient2-3);stroke-width:2.00002" />
  </g>
</svg>
