<?xml version="1.0" encoding="UTF-8" standalone="no"?>
<svg
   width="32"
   height="32"
   version="1.1"
   id="svg1"
   sodipodi:docname="plasmavault_error.svg"
   inkscape:version="1.3.2 (091e20ef0f, 2023-11-25)"
   xmlns:inkscape="http://www.inkscape.org/namespaces/inkscape"
   xmlns:sodipodi="http://sodipodi.sourceforge.net/DTD/sodipodi-0.dtd"
   xmlns="http://www.w3.org/2000/svg"
   xmlns:svg="http://www.w3.org/2000/svg">
  <defs
     id="defs1" />
  <sodipodi:namedview
     id="namedview1"
     pagecolor="#ffffff"
     bordercolor="#999999"
     borderopacity="1"
     inkscape:showpageshadow="2"
     inkscape:pageopacity="0"
     inkscape:pagecheckerboard="0"
     inkscape:deskcolor="#d1d1d1"
     inkscape:zoom="5.953125"
     inkscape:cx="14.782152"
     inkscape:cy="9.9107611"
     inkscape:window-width="1920"
     inkscape:window-height="994"
     inkscape:window-x="0"
     inkscape:window-y="0"
     inkscape:window-maximized="1"
     inkscape:current-layer="svg1" />
  <style
     type="text/css"
     id="current-color-scheme">.ColorScheme-NegativeText { color: #da4453; } </style>
  <g
     id="plasmavault_error-5">
    <rect
       style="opacity:0.00100002;fill:#ff557f;fill-opacity:1"
       width="32"
       height="32"
       x="0"
       y="0"
       id="rect7" />
    <path
       d="M 18.631713,16.661997 H 18.38471 l -0.0013,-1.230993 c -0.0013,-1.341 -1.092002,-2.432006 -2.433002,-2.431003 -1.341,0.0013 -2.431999,1.092004 -2.431,2.433004 l 0.0025,1.230999 h -0.08791 c -0.460992,0.0013 -0.835,0.374991 -0.833996,0.835997 v 3.665004 C 12.600002,21.626007 12.974998,22 13.435998,22 l 5.198009,-0.0034 c 0.460994,0 0.834998,-0.373998 0.833997,-0.834999 v -3.665974 c 0,-0.460998 -0.374997,-0.833997 -0.835999,-0.833997 z m -4.213998,0.0025 -0.0025,-1.230997 c 0,-0.847001 0.687998,-1.536002 1.534999,-1.537003 0.846999,0 1.535998,0.689 1.535998,1.535 l 0.0025,1.231003 z"
       id="path2-67-3"
       style="fill:#ff557f;fill-opacity:1;stroke-width:0.100003" />
    <path
       style="color:#000000;font-style:normal;font-variant:normal;font-weight:normal;font-stretch:normal;font-size:medium;line-height:normal;font-family:Sans;-inkscape-font-specification:Sans;text-indent:0;text-align:start;text-decoration:none;text-decoration-line:none;letter-spacing:normal;word-spacing:normal;text-transform:none;writing-mode:lr-tb;direction:ltr;baseline-shift:baseline;text-anchor:start;display:inline;overflow:visible;visibility:visible;fill:#ff557f;fill-opacity:1;fill-rule:nonzero;stroke:none;stroke-width:1.11609;marker:none;enable-background:accumulate"
       d="M 6.0607,6.0000768 C 4.949481,6.0000768 4,6.8171948 4,7.9018508 V 24.105997 c 0,0.894 0.9,1.894 1.9,1.894 v 0 l 19.354056,-6.1e-5 c 0.457294,0.0081 0.444288,-0.993112 1.08e-4,-0.999939 H 6.3 c -1,0 -1.3,-0.4 -1.3,-1.4 v 0 L 4.99919,7.9017938 c 0,-0.05728 0.01799,-0.901797 1.011792,-0.901797 h 6.704725 l 3.197185,2.8089 c 0.09661,0.0894 0.220301,0.188245 0.349122,0.1911 h 9.296645 c 0.474023,-0.0028 0.459043,-0.9922 -0.01499,-1 h -9.085814 l -3.389087,-2.866072 c -0.09781,-0.08616 -0.22138,-0.133565 -0.349124,-0.133928 z m 10.928766,0.99992 c -0.432584,-0.0012 -0.44426,0.993488 0,1 h 8.188057 0.804651 c 0.999189,0 0.973732,1.046931 0.973732,1.046931 l 0.02546,16.3815862 c 0.0025,0.531169 0.997373,0.548654 0.999192,0.01828 l 0.01944,-16.4908942 c 0.0013,-1.083267 -0.643799,-1.955903 -2.01783,-1.955903 h -0.999187 -7.993518 c -0.01703,-8.57e-4 0,0 0,0 z"
       id="path2-3-3-53-6"
       sodipodi:nodetypes="sssccccccccsccccccccscccccccsccccc" />
  </g>
</svg>
