<svg width="64" height="64" version="1.1" viewBox="0 0 16.933 16.933" xmlns="http://www.w3.org/2000/svg">
 <circle cx="8.466" cy="8.466" r="7.144" fill="#4c8cff" style="paint-order:stroke fill markers"/>
 <path d="m8.4666 1.3229a7.1437 7.1437 0 0 0-7.1437 7.1437 7.1437 7.1437 0 0 0 4.9474 6.7939 10.139 10.139 0 0 0 9.2831-7.6207 7.1437 7.1437 0 0 0-7.0868-6.3168" fill="#457eff" stroke-width=".26458" style="paint-order:stroke fill markers"/>
 <path d="m8.467 1.323a7.14 7.14 0 0 0-6.497 4.189 8.767 8.767 0 0 0 8.694 7.725 8.8 8.8 0 0 0 3.776-0.864 7.14 7.14 0 0 0 1.17-3.907 7.144 7.144 0 0 0-7.144-7.143z" fill="#0000ff" opacity=".1" style="paint-order:stroke fill markers"/>
 <path d="m5.292 5.2915a3.175 3.175 0 0 0 3.175 3.175 3.175 3.175 0 0 0 3.175-3.175h-0.794a2.38 2.38 0 0 1-2.381 2.381 2.38 2.38 0 0 1-2.382-2.381z" fill="#ffffff" style="paint-order:stroke markers fill"/>
 <g transform="matrix(.44445 0 0 .44445 8.937 -115.54)" paint-order="stroke markers fill">
  <circle cx="8.4661" cy="288.54" r="7.1435" fill="#b5bbc0" stroke-width=".99993"/>
  <circle cx="8.467" cy="288.53" r="3.44" opacity=".15"/>
  <g fill="#ffffff">
   <path d="m8.467 285.62a2.91 2.91 0 0 0-2.91 2.91 2.91 2.91 0 0 0 2.91 2.91 2.91 2.91 0 0 0 2.91-2.91 2.91 2.91 0 0 0-2.91-2.91m0 1.323a1.587 1.587 0 0 1 1.587 1.587 1.587 1.587 0 0 1-1.587 1.588 1.587 1.587 0 0 1-1.588-1.588 1.587 1.587 0 0 1 1.588-1.587"/>
   <path d="m7.938 284.43h1.058v1.852h-1.058zm0 6.35h1.058v1.852h-1.058zm4.63-2.778v1.058h-1.852v-1.058zm-6.35 0v1.058h-1.852v-1.058zm5.522 3.056-0.747 0.747-1.31-1.31 0.748-0.747zm-4.49-4.49-0.747 0.747-1.31-1.31 0.748-0.747zm-1.309 5.237-0.748-0.748 1.31-1.31 0.748 0.749zm4.49-4.49-0.748-0.748 1.31-1.31 0.748 0.749z"/>
  </g>
 </g>
</svg>
