<?xml version="1.0" encoding="UTF-8" standalone="no"?>
<svg
   width="32"
   height="32"
   version="1.1"
   id="svg3"
   sodipodi:docname="disk-quota-critical.svg"
   inkscape:version="1.3.2 (091e20ef0f, 2023-11-25)"
   xmlns:inkscape="http://www.inkscape.org/namespaces/inkscape"
   xmlns:sodipodi="http://sodipodi.sourceforge.net/DTD/sodipodi-0.dtd"
   xmlns="http://www.w3.org/2000/svg"
   xmlns:svg="http://www.w3.org/2000/svg">
  <defs
     id="defs3" />
  <sodipodi:namedview
     id="namedview3"
     pagecolor="#ffffff"
     bordercolor="#999999"
     borderopacity="1"
     inkscape:showpageshadow="2"
     inkscape:pageopacity="0"
     inkscape:pagecheckerboard="0"
     inkscape:deskcolor="#d1d1d1"
     inkscape:zoom="11.90625"
     inkscape:cx="15.538058"
     inkscape:cy="24.776903"
     inkscape:window-width="1920"
     inkscape:window-height="994"
     inkscape:window-x="0"
     inkscape:window-y="0"
     inkscape:window-maximized="1"
     inkscape:current-layer="svg3" />
  <style
     type="text/css"
     id="current-color-scheme">.ColorScheme-Text{color:#232629;}.ColorScheme-NeutralText{color:#f67400;}.ColorScheme-NegativeText { color: #da4453; } </style>
  <g
     id="g1"
     transform="translate(-96)">
    <g
       id="disk-quota-critical-3"
       transform="translate(96)">
      <rect
         style="opacity:0.00100002"
         width="32"
         height="32"
         x="0"
         y="0"
         id="rect49-6" />
      <path
         style="fill:#d7f1f8;fill-opacity:1;stroke-width:1.33346"
         inkscape:connector-curvature="0"
         fill="#dedede"
         d="M 9.66666,4.567 C 8.18934,4.567 7,5.756335 7,7.233666 V 25.90034 C 7,27.377654 8.18934,28.567 9.66666,28.567 h 13.33335 c 1.47732,0 2.66666,-1.189346 2.66666,-2.66666 V 7.233666 C 25.66667,5.756335 24.47733,4.567 23.00001,4.567 Z m 0,2.666666 h 1.33335 V 9.900327 H 9.66666 Z m 2.66667,0 h 1.33334 v 2.666661 h -1.33334 z m 2.66666,0 h 1.33335 v 2.666661 h -1.33335 z m 2.66666,0 H 19 v 2.666661 h -1.33335 z m 2.6667,1.333339 h 1.33331 v 1.333322 h -1.33331 z m -4.00001,2.666668 a 6.6666673,6.6666673 0 0 1 6.66667,6.666673 6.6666673,6.6666673 0 0 1 -6.66667,6.666647 6.6666673,6.6666673 0 0 1 -6.66668,-6.666647 6.6666673,6.6666673 0 0 1 6.66668,-6.666673 z m 6.66667,13.33332 a 1.3333346,1.3333346 0 0 1 1.33332,1.333347 1.3333346,1.3333346 0 0 1 -1.33332,1.333314 1.3333346,1.3333346 0 0 1 -1.33335,-1.333314 1.3333346,1.3333346 0 0 1 1.33335,-1.333347 z"
         id="path77-7-7" />
      <path
         style="fill:#d40055;fill-opacity:1;stroke:#d7f1f8;stroke-width:1.33346;stroke-opacity:1"
         inkscape:connector-curvature="0"
         d="m 16.33334,11.333346 a 6.6666673,6.6666673 0 0 0 -6.66668,6.666673 6.6666673,6.6666673 0 0 0 6.66668,6.666647 6.6666673,6.6666673 0 0 0 6.66667,-6.666647 h -6.66667 z"
         id="path79-5-5" />
      <circle
         style="fill:#ff80b3;fill-opacity:1;stroke-width:1.33333"
         r="2.6666691"
         cy="18.000023"
         cx="16.333347"
         id="circle83-5-3" />
      <path
         style="fill:#d40055;stroke-width:1.33346"
         inkscape:connector-curvature="0"
         d="m 26.99999,16.666673 v 6.666673 h 2.66666 v -6.666673 z m 0,7.999993 v 2.666661 h 2.66666 v -2.666661 z"
         id="path24-6-5" />
    </g>
  </g>
</svg>
