<?xml version="1.0" encoding="UTF-8" standalone="no"?>
<svg
   width="32"
   height="32"
   viewBox="0 0 32 32"
   version="1.1"
   id="svg2"
   sodipodi:docname="notification-inactive.svg"
   inkscape:version="1.3.2 (091e20ef0f, 2023-11-25)"
   xmlns:inkscape="http://www.inkscape.org/namespaces/inkscape"
   xmlns:sodipodi="http://sodipodi.sourceforge.net/DTD/sodipodi-0.dtd"
   xmlns="http://www.w3.org/2000/svg"
   xmlns:svg="http://www.w3.org/2000/svg">
  <defs
     id="defs2" />
  <sodipodi:namedview
     id="namedview2"
     pagecolor="#ffffff"
     bordercolor="#999999"
     borderopacity="1"
     inkscape:showpageshadow="2"
     inkscape:pageopacity="0"
     inkscape:pagecheckerboard="0"
     inkscape:deskcolor="#d1d1d1"
     showgrid="true"
     inkscape:zoom="11.22532"
     inkscape:cx="16.213346"
     inkscape:cy="22.716502"
     inkscape:window-width="1920"
     inkscape:window-height="994"
     inkscape:window-x="0"
     inkscape:window-y="0"
     inkscape:window-maximized="1"
     inkscape:current-layer="svg2">
    <inkscape:grid
       id="grid2"
       units="px"
       originx="1"
       originy="-27.00003"
       spacingx="1"
       spacingy="1"
       empcolor="#0099e5"
       empopacity="0.30196078"
       color="#0099e5"
       opacity="0.14902"
       empspacing="5"
       dotted="false"
       gridanglex="30"
       gridanglez="30"
       visible="true" />
  </sodipodi:namedview>
  <style
     type="text/css"
     id="current-color-scheme">.ColorScheme-Text{color:#232629;}.ColorScheme-ButtonFocus{color:#3daee9;}.ColorScheme-NegativeText { color: #da4453; } </style>
  <path
     d="M 2,-26.00003 H 24 V -4.0000301 H 2 Z"
     fill="none"
     id="path1" />
  <path
     d="m 19.66731,-21.99809 -13.33461,0.004 v 0 C 5.66635,-21.99409 5,-21.32765 5,-20.66124 l 0.008,9.38423 c 0,0.6664 0.66635,1.27699 1.3327,1.27699 v 0 h 3.6597 l 2.55271,3.7625899 1.2e-4,-1.1e-4 c 0.0989,0.14853 0.26523,0.23735 0.44349,0.23735 0.17826,0 0.34459,-0.0888 0.4435,-0.23735 L 16.0004,-10.00002 h 3 0.6673 c 0.66635,0 1.3327,-0.61051 1.33269,-1.27699 l 10e-6,-9.39016 c 0,-0.66641 -0.66635,-1.33285 -1.3327,-1.33285 z M 20,-12.00026 c 0,1.00003 0,1.00003 -1,1.00003 h -3.507 c -0.17826,-1.1e-4 -0.54486,0.57989 -0.64386,0.72843 L 12.99621,-7.4909801 11.143,-10.27018 c -0.099,-0.14816 -0.36475,-0.73005 -0.543,-0.73005 H 7 c -1,0 -1,0 -1,-1.00003 v -7.99997 c 0,-1.00003 0,-1.00003 1,-1.00003 h 12 c 1,0 1,0 1,1.00003 z"
     id="path2-3-6"
     style="color:#d6dbf1;fill:#d3dae3;fill-opacity:1;stroke-width:0.0304633"
     sodipodi:nodetypes="ccccccccccscccccccccccccccccccccc"
     class="ColorScheme-Text" />
  <path
     d="m 8,-19.00003 h 10 v 0.99999 H 8 Z"
     id="path4-5-2"
     style="color:#d6dbf1;fill:#d3dae3;fill-opacity:1;stroke-width:0.0304647"
     class="ColorScheme-Text"
     sodipodi:nodetypes="ccccc" />
  <path
     d="m 8,-16.00003 h 6 v 0.99999 H 8 Z"
     id="path8-2-1"
     style="color:#d6dbf1;fill:#d3dae3;fill-opacity:1;stroke-width:0.0304647"
     class="ColorScheme-Text"
     sodipodi:nodetypes="ccccc" />
  <rect
     ry="4.9089599e-06"
     y="3.0089093e-05"
     x="-1.0517835e-08"
     height="32"
     width="32"
     id="rect891-7"
     style="opacity:0.003;fill:#d3dae3;fill-opacity:1;stroke:none;stroke-width:0.408;stroke-miterlimit:4;stroke-dasharray:none;stroke-opacity:1" />
  <path
     d="m 26.00096,5.0015496 -20.0019096,0.00756 v 0 c -0.9995302,0 -1.9990501,0.9996095 -1.9990501,1.999219 V 22.000014 c 0,0.999987 1.0004799,1.999975 1.9999999,1.999975 v 0 H 12 l 3.32907,4.643943 1.9e-4,-1.89e-4 c 0.14832,0.222614 0.39784,0.35641 0.66524,0.35641 0.267391,0 0.51687,-0.133418 0.66524,-0.35641 L 20,23.999989 h 6 v 0 c 0.999531,0 2.000001,-0.999988 2.000001,-1.999975 l 1.1e-5,-15.000795 C 28.000012,5.9996473 27.000491,5 26.00096,5 Z M 27,21.000442 c 0,2.000013 -1,2.000013 -2,2.000013 h -5 c -0.26739,-1.89e-4 -1,0 -1,0 l -3,4.300006 -3,-4.300006 H 12 7.0000001 c -0.9999999,0 -1.9999999,0 -1.9999999,-2.000013 V 8.0004538 c 0,-2.0000128 1,-2.0000128 1.9999999,-2.0000128 H 25 c 1,0 2.01136,0.034016 2,2.0000128 z"
     id="path2-3-3"
     style="color:#d6dbf1;fill:#d3dae3;fill-opacity:1;stroke-width:0.0456945"
     sodipodi:nodetypes="ccccccccccscccccccccccccccscccccc"
     class="ColorScheme-Text" />
  <path
     d="M 9.0000004,9.0004412 H 23.000001 V 10.000467 H 9.0000004 Z"
     id="path4-5-6"
     style="color:#d6dbf1;fill:#d3dae3;fill-opacity:1;stroke-width:0.0457145"
     class="ColorScheme-Text"
     sodipodi:nodetypes="ccccc" />
  <path
     d="M 9.0000004,14.000454 H 23.000001 v 0.999988 H 9.0000004 Z"
     id="path6-6-7"
     style="color:#d6dbf1;fill:#d3dae3;fill-opacity:1;stroke-width:0.0457145"
     class="ColorScheme-Text"
     sodipodi:nodetypes="ccccc" />
  <path
     d="m 9.0000004,19.000467 h 9.0000006 v 1.000025 H 9.0000004 Z"
     id="path8-2-5"
     style="color:#d6dbf1;fill:#d3dae3;fill-opacity:1;stroke-width:0.0457145"
     class="ColorScheme-Text"
     sodipodi:nodetypes="ccccc" />
</svg>
