<?xml version="1.0" encoding="UTF-8" standalone="no"?>
<svg
   viewBox="0 0 22 22"
   width="22"
   height="22"
   version="1.1"
   id="svg1"
   sodipodi:docname="system-switch-user.svg"
   inkscape:version="1.3.2 (091e20ef0f, 2023-11-25)"
   xmlns:inkscape="http://www.inkscape.org/namespaces/inkscape"
   xmlns:sodipodi="http://sodipodi.sourceforge.net/DTD/sodipodi-0.dtd"
   xmlns:xlink="http://www.w3.org/1999/xlink"
   xmlns="http://www.w3.org/2000/svg"
   xmlns:svg="http://www.w3.org/2000/svg">
  <sodipodi:namedview
     id="namedview1"
     pagecolor="#ffffff"
     bordercolor="#999999"
     borderopacity="1"
     inkscape:showpageshadow="2"
     inkscape:pageopacity="0"
     inkscape:pagecheckerboard="0"
     inkscape:deskcolor="#d1d1d1"
     inkscape:zoom="7.9375"
     inkscape:cx="10.834646"
     inkscape:cy="10.708661"
     inkscape:window-width="1920"
     inkscape:window-height="994"
     inkscape:window-x="0"
     inkscape:window-y="0"
     inkscape:window-maximized="1"
     inkscape:current-layer="svg1" />
  <defs
     id="defs3051">
    <style
       type="text/css"
       id="current-color-scheme">
      .ColorScheme-Text {
        color:#d8d8d8;
      }
      </style>
    <linearGradient
       inkscape:collect="always"
       xlink:href="#linearGradient27"
       id="linearGradient1151"
       gradientUnits="userSpaceOnUse"
       x1="-149.33075"
       y1="84.232117"
       x2="-148.94829"
       y2="104.04754"
       gradientTransform="matrix(0.79999998,0,0,0.79999998,131,-64.199998)" />
    <linearGradient
       id="linearGradient27"
       inkscape:collect="always">
      <stop
         style="stop-color:#fea75f;stop-opacity:1"
         offset="0"
         id="stop26" />
      <stop
         style="stop-color:#ff30ff;stop-opacity:1;"
         offset="1"
         id="stop27" />
    </linearGradient>
    <linearGradient
       inkscape:collect="always"
       xlink:href="#linearGradient27"
       id="linearGradient16"
       gradientUnits="userSpaceOnUse"
       x1="7"
       y1="15.999997"
       x2="25"
       y2="15.999997"
       gradientTransform="matrix(0.66666647,0,0,0.66666641,0.33333486,0.33333718)" />
  </defs>
  <path
     style="fill:none"
     d="M 0,0 V 22 H 22 V 0 Z"
     id="path79" />
  <path
     d="M 10.990923,19 C 10.563142,19 10.135369,18.96248 9.7075359,18.888414 5.35504,18.181798 2.3975685,14.072287 3.1043925,9.721 3.4392,7.6198078 4.592416,5.760248 6.3222647,4.5143998 8.0520727,3.268504 10.172521,2.7664558 12.274353,3.101176 c 4.352527,0.70656 7.328574,4.8161358 6.621774,9.167342 -0.130226,0.836829 -0.390584,1.636404 -0.781169,2.380249 -0.09301,0.18592 -0.186073,0.353266 -0.297638,0.520616 -0.16741,0.260339 -0.502202,0.353327 -0.762624,0.18601 C 16.794287,15.188 16.70129,14.85328 16.868725,14.59294 c 0.09297,-0.148747 0.167411,-0.297523 0.260376,-0.446277 0.334817,-0.632263 0.558017,-1.33888 0.669609,-2.045465 C 18.393977,8.3635838 15.845667,4.811944 12.088398,4.21684 10.265536,3.9193118 8.461344,4.346984 6.9546807,5.425528 5.4666487,6.504088 4.480816,8.084616 4.1832085,9.9069439 3.5694005,13.644574 6.136256,17.196263 9.8749439,17.791294 c 1.5996591,0.260339 3.2364821,-0.05543 4.6128731,-0.873933 0.260421,-0.148759 0.61384,-0.07427 0.76265,0.185907 0.148811,0.260337 0.07425,0.613702 -0.185997,0.762459 C 13.836866,18.609478 12.42319,19 10.990923,19 Z"
     id="path2-36-2"
     style="fill:url(#linearGradient1151);fill-opacity:1;stroke-width:0.18598" />
  <path
     d="m 16.999996,9.8572243 c 0,-0.090019 -0.04188,-0.1748319 -0.113937,-0.2288288 L 13.457185,7.0571478 c -0.08703,-0.064861 -0.202191,-0.075462 -0.299076,-0.026925 -0.09659,0.048225 -0.157984,0.1474218 -0.157984,0.2557018 V 8.4287011 H 9.5713329 c -0.157721,0 -0.28572,0.127984 -0.28572,0.2856826 0,0.157703 0.12802,0.2856968 0.28572,0.2856968 h 3.7145111 c 0.157683,0 0.285698,-0.1280008 0.285698,-0.2856968 V 7.8573093 l 2.666454,1.999846 -2.666454,1.9998617 v -0.857094 c 0,-0.157703 -0.128015,-0.285684 -0.285698,-0.285684 H 8.9997919 V 9.5714683 c 0,-0.1081856 -0.061469,-0.2074156 -0.1579396,-0.2557044 -0.096594,-0.04863 -0.2125992,-0.038046 -0.2991661,0.026933 L 5.1139607,11.913936 C 5.0419527,11.967956 5,12.052774 5,12.142774 c 0,0.08992 0.041871,0.174851 0.1139607,0.228838 l 3.4286656,2.571239 c 0.087032,0.06487 0.2023331,0.07548 0.2991997,0.02689 0.096559,-0.04825 0.1579409,-0.147405 0.1579409,-0.255685 v -1.14276 h 3.4288441 c 0.157694,0 0.285713,-0.128001 0.285713,-0.285708 0,-0.157683 -0.128019,-0.285679 -0.285713,-0.285679 H 8.7140794 c -0.1576862,0 -0.2856932,0.128 -0.2856932,0.285679 v 0.857086 l -2.6664396,-1.999851 2.6664396,-1.99984 v 0.857071 c 0,0.157699 0.1280131,0.285694 0.2856932,0.285694 H 13.00005 v 1.14277 c 0,0.108196 0.06147,0.207405 0.157987,0.25569 0.09659,0.04861 0.212628,0.03806 0.29912,-0.02689 l 3.428846,-2.571255 c 0.07201,-0.05402 0.113953,-0.1388531 0.113953,-0.2288379 z"
     id="path1-7"
     style="fill:url(#linearGradient16);fill-opacity:1;stroke-width:0.285708" />
</svg>
