<?xml version="1.0" encoding="UTF-8" standalone="no"?>
<svg
   viewBox="0 0 22 22"
   width="22"
   height="22"
   version="1.1"
   id="svg1"
   sodipodi:docname="system-lock-screen.svg"
   inkscape:version="1.3.2 (091e20ef0f, 2023-11-25)"
   xmlns:inkscape="http://www.inkscape.org/namespaces/inkscape"
   xmlns:sodipodi="http://sodipodi.sourceforge.net/DTD/sodipodi-0.dtd"
   xmlns:xlink="http://www.w3.org/1999/xlink"
   xmlns="http://www.w3.org/2000/svg"
   xmlns:svg="http://www.w3.org/2000/svg">
  <sodipodi:namedview
     id="namedview1"
     pagecolor="#ffffff"
     bordercolor="#999999"
     borderopacity="1"
     inkscape:showpageshadow="2"
     inkscape:pageopacity="0"
     inkscape:pagecheckerboard="0"
     inkscape:deskcolor="#d1d1d1"
     inkscape:zoom="11.22532"
     inkscape:cx="12.38272"
     inkscape:cy="6.5922396"
     inkscape:window-width="1920"
     inkscape:window-height="994"
     inkscape:window-x="0"
     inkscape:window-y="0"
     inkscape:window-maximized="1"
     inkscape:current-layer="svg1" />
  <defs
     id="defs3051">
    <style
       type="text/css"
       id="current-color-scheme">.ColorScheme-Text {color:#fcfcfc;}</style>
    <linearGradient
       inkscape:collect="always"
       xlink:href="#linearGradient1104"
       id="linearGradient1129"
       x1="-113"
       y1="190"
       x2="-92.999985"
       y2="190"
       gradientUnits="userSpaceOnUse"
       gradientTransform="matrix(0.80000007,0,0,0.80000007,93.399997,-141.00001)" />
    <linearGradient
       inkscape:collect="always"
       id="linearGradient1104">
      <stop
         style="stop-color:#00d4aa;stop-opacity:1"
         offset="0"
         id="stop1094" />
      <stop
         style="stop-color:#00ccff;stop-opacity:1"
         offset="1"
         id="stop1097" />
    </linearGradient>
    <linearGradient
       inkscape:collect="always"
       xlink:href="#linearGradient1104"
       id="linearGradient1114"
       x1="6.5"
       y1="11"
       x2="15.369566"
       y2="11"
       gradientUnits="userSpaceOnUse"
       gradientTransform="matrix(0.80000007,0,0,0.80000007,2.1999848,2.2000002)" />
  </defs>
  <path
     style="fill:none"
     d="M 0,0 V 22 H 22 V 0 Z"
     id="path19" />
  <path
     d="m 11.009032,3 c 0.427821,0 0.855631,0.03736 1.283434,0.1115761 4.352507,0.7066321 7.309968,4.8161366 6.603143,9.1674249 -0.334796,2.10121 -1.488027,3.96075 -3.217875,5.206611 -1.729831,1.245874 -3.850287,1.747922 -5.9521243,1.413222 C 5.3731131,18.192254 2.3970412,14.082702 3.1038578,9.7314568 3.2340658,8.8946568 3.4944659,8.0950887 3.8850739,7.3512326 3.9780818,7.1653201 4.0710811,6.9979601 4.1826811,6.8306161 4.3500819,6.5702885 4.6848892,6.4772965 4.9453052,6.6446085 c 0.2604,0.1673996 0.3534009,0.5021036 0.186,0.7624556 C 5.038306,7.5558086 4.963906,7.7046002 4.870898,7.8533522 4.5360891,8.4856007 4.3128819,9.1922003 4.2012891,9.8988084 3.606073,13.636414 6.1543222,17.18808 9.9116097,17.783173 11.734463,18.080682 13.538684,17.653002 15.045333,16.574471 16.533352,15.49592 17.519178,13.91539 17.816788,12.093044 18.430609,8.3554247 15.863743,4.8037521 12.125058,4.208712 10.525426,3.9483522 8.8885855,4.264472 7.5121622,5.082632 7.2517534,5.2314 6.8983454,5.156952 6.7495381,4.8967363 6.6007381,4.636376 6.6751381,4.2830242 6.9355454,4.1342722 8.1631704,3.3905281 9.5768097,3 11.009032,3 Z"
     id="path2-6"
     style="fill:url(#linearGradient1129);fill-opacity:1;stroke-width:0.185984" />
  <path
     d="M 8.6521594,9.956522 V 8.3041648 c 0,-1.162098 1.0275259,-2.104164 2.2956516,-2.104164 1.267852,0 2.295652,0.942976 2.295652,2.104164 V 9.956522 h 0.465712 c 0.434353,0 0.78646,0.374426 0.78646,0.834124 v 4.17523 c 0,0.460666 -0.351865,0.834126 -0.78646,0.834126 H 8.1864539 c -0.4343603,0 -0.7864681,-0.374429 -0.7864681,-0.834126 v -4.17523 c 0,-0.460666 0.3518686,-0.834124 0.7864681,-0.834124 z m -0.4173911,0.834782 v 4.173911 H 13.660861 V 10.791304 Z M 12.408684,9.956522 V 8.3041648 c 0,-0.6835171 -0.639002,-1.2693819 -1.460873,-1.2693819 -0.822432,0 -1.4608692,0.585233 -1.4608692,1.2693819 V 9.956522 Z m -1.878262,2.414356 c 0,-0.230471 0.185264,-0.417304 0.417389,-0.417304 0.230524,0 0.417392,0.185217 0.417392,0.417304 v 1.252349 c 0,0.230474 -0.185262,0.417312 -0.417392,0.417312 -0.230517,0 -0.417389,-0.185204 -0.417389,-0.417312 z"
     id="path6-7"
     style="fill:url(#linearGradient1114);fill-opacity:1;fill-rule:nonzero;stroke-width:0.208699" />
</svg>
