<?xml version="1.0" encoding="UTF-8" standalone="no"?>
<svg
   viewBox="0 0 21.999998 22"
   width="21.999998"
   height="22"
   version="1.1"
   id="svg2"
   sodipodi:docname="system-suspend.svg"
   inkscape:version="1.3.2 (091e20ef0f, 2023-11-25)"
   xmlns:inkscape="http://www.inkscape.org/namespaces/inkscape"
   xmlns:sodipodi="http://sodipodi.sourceforge.net/DTD/sodipodi-0.dtd"
   xmlns:xlink="http://www.w3.org/1999/xlink"
   xmlns="http://www.w3.org/2000/svg"
   xmlns:svg="http://www.w3.org/2000/svg">
  <defs
     id="defs2">
    <linearGradient
       inkscape:collect="always"
       xlink:href="#linearGradient3"
       id="linearGradient1158"
       x1="5.0000029"
       y1="11.000003"
       x2="16.000004"
       y2="11.000003"
       gradientUnits="userSpaceOnUse"
       gradientTransform="matrix(0,0.79999959,-0.79999959,0,19.799991,2.2000031)" />
    <linearGradient
       id="linearGradient3"
       inkscape:collect="always">
      <stop
         style="stop-color:#8660cb;stop-opacity:1"
         offset="0"
         id="stop3" />
      <stop
         style="stop-color:#20c997;stop-opacity:1"
         offset="1"
         id="stop4" />
    </linearGradient>
    <linearGradient
       inkscape:collect="always"
       xlink:href="#linearGradient3"
       id="linearGradient1316"
       gradientUnits="userSpaceOnUse"
       gradientTransform="matrix(0.01081727,0,0,0.01081727,5.7745222,10.200002)"
       x1="113.28795"
       y1="221.86626"
       x2="409.10962"
       y2="221.86626" />
    <linearGradient
       inkscape:collect="always"
       xlink:href="#linearGradient3"
       id="linearGradient1318"
       gradientUnits="userSpaceOnUse"
       gradientTransform="matrix(0.61538431,0,0,0.61538431,1.1538551,1.1538505)"
       x1="18.599981"
       y1="12.100003"
       x2="21.199982"
       y2="12.100003" />
  </defs>
  <sodipodi:namedview
     id="namedview2"
     pagecolor="#ffffff"
     bordercolor="#999999"
     borderopacity="1"
     inkscape:showpageshadow="2"
     inkscape:pageopacity="0"
     inkscape:pagecheckerboard="0"
     inkscape:deskcolor="#d1d1d1"
     inkscape:zoom="11.22532"
     inkscape:cx="9.5320221"
     inkscape:cy="-1.4253491"
     inkscape:window-width="1920"
     inkscape:window-height="994"
     inkscape:window-x="0"
     inkscape:window-y="0"
     inkscape:window-maximized="1"
     inkscape:current-layer="svg2" />
  <style
     type="text/css"
     id="current-color-scheme">.ColorScheme-Text {color:#fcfcfc;}</style>
  <path
     style="fill:none;stroke-width:1.02353"
     d="M 0,0 V 22 H 21.999999 V 0 Z"
     id="path69" />
  <path
     d="m 10.990952,19.000003 c -0.427813,0 -0.855619,-0.03719 -1.2834278,-0.111572 C 5.3550317,18.181815 2.3975738,14.072291 3.1043877,9.7210369 3.4391915,7.6197863 4.5924182,5.7602751 6.3222571,4.5144027 8.0520894,3.2685231 10.172538,2.7664626 12.274373,3.1011723 c 4.352493,0.7066146 7.32856,4.816134 6.621744,9.1673877 -0.130201,0.83679 -0.3906,1.636371 -0.781205,2.38018 -0.09303,0.185952 -0.186017,0.353307 -0.297609,0.52066 -0.167414,0.260331 -0.502211,0.353312 -0.762626,0.185952 -0.260394,-0.16735 -0.353401,-0.502059 -0.185994,-0.762399 0.09301,-0.148748 0.167394,-0.297514 0.260398,-0.446283 0.334811,-0.632224 0.558012,-1.338847 0.669608,-2.045464 C 18.393906,8.36359 15.845655,4.8119216 12.088382,4.2168818 10.265536,3.9193543 8.4613028,4.3470428 6.9546682,5.4255661 5.4666388,6.5040808 4.4808182,8.0846664 4.1832112,9.9069864 3.5693968,13.6446 6.1362503,17.19627 9.8749331,17.79132 c 1.5996309,0.260327 3.2364699,-0.05573 4.6128869,-0.873971 0.260408,-0.14877 0.613823,-0.07437 0.762627,0.185945 0.148801,0.260337 0.07437,0.613636 -0.18601,0.7624 -1.227618,0.743806 -2.641255,1.134309 -4.073485,1.134309 z"
     id="path2-56-6"
     style="fill:url(#linearGradient1158);fill-opacity:1;stroke-width:0.185984" />
  <circle
     cx="8.9692259"
     cy="6.6615381"
     r="0.76923007"
     id="circle4-2"
     style="fill:#3485fd;fill-opacity:1;stroke-width:0.15384" />
  <circle
     cx="13.584598"
     cy="14.661533"
     r="0.76923007"
     id="circle6-9"
     style="fill:#3485fd;fill-opacity:1;stroke-width:0.15384" />
  <path
     d="M 10.92788,15.615397 H 6.3846129 V 14.439186 L 8.9341785,11.290641 H 6.6927842 v -1.213717 h 4.1252898 v 1.045278 L 8.1522151,14.405219 H 10.92788 Z M 7.4706591,14.729738 h 3.1327069 v 0 H 7.4706591 l 3.0228969,-4.32829 v 0 H 7.0173041 v 0 h 3.4762519 z"
     id="path2-67-1"
     style="fill:url(#linearGradient1316);stroke-width:0.010818"
     sodipodi:nodetypes="cccccccccccccccccccccc" />
  <path
     d="M 15.149034,11 H 11.615383 V 10.085182 L 13.598368,7.6363092 H 11.855079 V 6.6923063 h 3.208548 v 0.812994 l -2.073449,2.5534577 h 2.158856 z m -3.281253,-0.252403 2.33221,-0.547595 v 0 l -2.33221,0.547595 2.943447,-3.3318672 v 0 l -2.703753,-0.031826 v 0 l 2.703753,0.031825 -1.82105,2.6430282 z"
     id="path2-67-5-2"
     style="fill:url(#linearGradient1318);stroke-width:0.00841356"
     sodipodi:nodetypes="cccccccccccccccccccccc" />
</svg>
