<?xml version='1.0' encoding='UTF-8'?>
<svg xmlns:inkscape="http://www.inkscape.org/namespaces/inkscape" xmlns:sodipodi="http://sodipodi.sourceforge.net/DTD/sodipodi-0.dtd" xmlns="http://www.w3.org/2000/svg" xmlns:svg="http://www.w3.org/2000/svg" xmlns:rdf="http://www.w3.org/1999/02/22-rdf-syntax-ns#" xmlns:cc="http://creativecommons.org/ns#" xmlns:dc="http://purl.org/dc/elements/1.1/" width="64" height="64" version="1.1" viewBox="0 0 16.933 16.933" id="svg7" sodipodi:docname="accessories-calculator.svg" inkscape:version="1.4 (e7c3feb100, 2024-10-09)">
  <sodipodi:namedview id="namedview7" pagecolor="#9c4444" bordercolor="#000000" borderopacity="0.25" inkscape:showpageshadow="2" inkscape:pageopacity="0.0" inkscape:pagecheckerboard="0" inkscape:deskcolor="#d1d1d1" inkscape:zoom="6.15625" inkscape:cx="15.51269" inkscape:cy="29.888325" inkscape:window-width="1183" inkscape:window-height="941" inkscape:window-x="35" inkscape:window-y="32" inkscape:window-maximized="0" inkscape:current-layer="svg7" showgrid="false"/>
  <defs id="defs2">
    <style id="current-color-scheme" type="text/css">.ColorScheme-Text {color:#d8dee9} .ColorScheme-Highlight {color:#3b4252}</style></defs>
  <metadata id="metadata2">
    <rdf:RDF>
      <cc:Work rdf:about="">
        <dc:format>image/svg+xml</dc:format>
        <dc:type rdf:resource="http://purl.org/dc/dcmitype/StillImage"/>
      </cc:Work>
    </rdf:RDF>
  </metadata>
  <path id="path5089" style="fill:currentColor;fill-opacity:1;stroke:none;stroke-width:0.181401;stroke-dasharray:none;stroke-opacity:0.6;color:none" d="m 8.4658615,1.4178742 c -4.1531422,0 -4.5999441,0.0144 -4.834258,0.1527895 C 3.0873527,1.89216 3.1021886,1.6955516 3.1021886,8.5103605 c 0,3.8851645 0.033312,6.3037775 0.088616,6.4492445 0.048669,0.127991 0.1948382,0.33198 0.3254412,0.45302 l 0.2375877,0.220016 h 4.7120264 4.7120291 l 0.237586,-0.220016 c 0.130625,-0.121032 0.277538,-0.325016 0.326205,-0.45302 0.0553,-0.145464 0.08862,-2.56408 0.08862,-6.4492445 0,-6.8148087 0.01463,-6.6182003 -0.529415,-6.9396966 C 13.066558,1.4322515 12.618993,1.4178744 8.4658488,1.4178744 Z m 0.00763,1.1627276 h 3.5554105 l 0.185633,0.2352962 c 0.143813,0.1828394 0.184861,0.3642895 0.184861,0.810547 0,0.5563322 -0.09988,0.8950069 -0.304049,1.0313291 -0.05409,0.036125 -1.694582,0.065722 -3.6455556,0.066466 -3.9297265,0.0015 -3.7648715,0.026597 -3.8800723,-0.5874772 -0.089623,-0.4777156 0.00554,-1.1774552 0.1871637,-1.3781616 0.1555796,-0.1719109 0.2805607,-0.177999 3.7166049,-0.177999 z m 2.8625175,3.602775 c 0.905109,0.031588 1.413368,1.2110144 0.607341,1.8892413 -0.421128,0.3543588 -0.987227,0.3237055 -1.385799,-0.074867 -0.259366,-0.2593664 -0.303287,-0.3652541 -0.303287,-0.7234579 0,-0.519031 0.239977,-0.8863655 0.672273,-1.0290368 0.142821,-0.047136 0.280175,-0.06639 0.409476,-0.061881 z m -2.912931,0.0023 C 8.7037679,6.1722037 8.99309,6.270674 9.2175811,6.5049927 9.6984549,7.0069165 9.5886737,7.8648609 9.0052086,8.1665824 8.1895157,8.5883844 7.2797688,7.9640907 7.4230742,7.0810044 7.5104757,6.5424092 7.9552616,6.2080922 8.4230807,6.1856579 Z m -2.8159095,0.00763 c 0.2920032,-0.00769 0.593275,0.096131 0.8181874,0.3369015 0.2077042,0.2223464 0.2528668,0.3506584 0.2528668,0.7173464 0,0.3885634 -0.039524,0.4856681 -0.3040507,0.7501961 -0.25944,0.2594551 -0.365567,0.3040587 -0.7242146,0.3040587 -0.3586484,0 -0.4647752,-0.044603 -0.7242227,-0.3040507 C 4.6344227,7.7064311 4.5815956,7.5427229 4.619387,7.0504462 4.6593654,6.5297097 5.1204993,6.2061303 5.6071712,6.1932966 Z m 0.04278,2.7991034 c 0.2525843,0 0.5052588,0.1095347 0.7242221,0.328497 0.2582408,0.2582414 0.3040504,0.3660526 0.3040504,0.7181108 0,0.500944 -0.1993671,0.835544 -0.5966427,1.001535 -0.360767,0.15073 -0.5321412,0.149237 -0.8945748,-0.0084 C 4.7436756,10.839302 4.5804529,10.499449 4.6117481,9.8350311 4.6171945,9.7194836 4.7585541,9.4880711 4.9257301,9.3208947 5.1446929,9.101932 5.3973677,8.9923979 5.6499527,8.9923979 Z m 5.6761275,0.019855 c 0.439374,0.00162 0.856041,0.2542428 0.977853,0.6929 0.122474,0.4409928 0.122474,3.0999068 0,3.5408948 -0.06342,0.228397 -0.187368,0.39658 -0.378917,0.513373 -0.313146,0.190943 -0.89727,0.226289 -1.179535,0.07104 -0.46997,-0.258453 -0.487571,-0.343991 -0.489683,-2.368234 l -0.0015,-1.8900063 0.31551,-0.2780768 C 10.790319,9.1005098 11.06245,9.0112936 11.326076,9.0122607 Z m -2.8602182,0.00462 c 0.9567051,0 1.4157178,1.1289908 0.7356813,1.8090288 C 8.6963217,11.331098 7.8360783,11.182669 7.507872,10.534048 7.1552508,9.8371757 7.6729952,9.0168481 8.4658618,9.0168481 Z M 5.6132832,11.831994 c 0.6133323,-0.03277 1.0649418,0.419298 1.0649418,1.123001 0,0.302697 -0.056042,0.427321 -0.3040507,0.675332 -0.2560781,0.256077 -0.3674992,0.304049 -0.7081789,0.304049 -0.7151523,0 -1.1947218,-0.613028 -1.036677,-1.325446 0.088043,-0.396881 0.3083024,-0.623921 0.7119992,-0.732625 0.0934,-0.02515 0.1843464,-0.03963 0.2719656,-0.04431 z m 2.8525786,0.01833 c 0.48245,0 0.9647431,0.299447 1.0450798,0.8984 0.053748,0.40073 -0.1243194,0.82578 -0.4385054,1.045846 -0.1097316,0.07685 -0.3822589,0.1398 -0.6065744,0.1398 -0.6916005,0 -1.1364001,-0.504798 -1.0450797,-1.185646 0.080335,-0.598947 0.5626299,-0.898392 1.0450797,-0.898392 z" class="ColorScheme-Text"/>
  <g id="g9" transform="matrix(0.46959567,0,0,0.46959567,4.7471229,3.7470598)" style="fill:#999999;fill-opacity:1;stroke:none;stroke-width:0.58349;stroke-dasharray:none;stroke-opacity:0.3"/>
  </svg>
