<?xml version='1.0' encoding='UTF-8'?>
<svg xmlns:inkscape="http://www.inkscape.org/namespaces/inkscape" xmlns:sodipodi="http://sodipodi.sourceforge.net/DTD/sodipodi-0.dtd" xmlns="http://www.w3.org/2000/svg" xmlns:svg="http://www.w3.org/2000/svg" xmlns:rdf="http://www.w3.org/1999/02/22-rdf-syntax-ns#" xmlns:cc="http://creativecommons.org/ns#" xmlns:dc="http://purl.org/dc/elements/1.1/" width="64" height="64" version="1.1" viewBox="0 0 16.933 16.933" id="svg7" sodipodi:docname="blueman.svg" inkscape:version="1.4 (e7c3feb100, 2024-10-09)">
  <sodipodi:namedview id="namedview7" pagecolor="#9c4444" bordercolor="#000000" borderopacity="0.25" inkscape:showpageshadow="2" inkscape:pageopacity="0.0" inkscape:pagecheckerboard="0" inkscape:deskcolor="#d1d1d1" inkscape:zoom="6.15625" inkscape:cx="15.837563" inkscape:cy="29.725888" inkscape:window-width="1183" inkscape:window-height="941" inkscape:window-x="35" inkscape:window-y="32" inkscape:window-maximized="0" inkscape:current-layer="svg7" showgrid="false"/>
  <defs id="defs2">
    <style id="current-color-scheme" type="text/css">.ColorScheme-Text {color:#d8dee9} .ColorScheme-Highlight {color:#3b4252}</style></defs>
  <metadata id="metadata2">
    <rdf:RDF>
      <cc:Work rdf:about="">
        <dc:format>image/svg+xml</dc:format>
        <dc:type rdf:resource="http://purl.org/dc/dcmitype/StillImage"/>
      </cc:Work>
    </rdf:RDF>
  </metadata>
  <path id="path17" style="fill:currentColor;fill-opacity:1;stroke:none;stroke-width:0.468549;stroke-dasharray:none;stroke-dashoffset:2.2;stroke-opacity:0.3" d="M 8.086874,0.68367391 C 7.9823531,0.69769591 7.8771532,0.78582551 7.8040984,0.92709906 7.7342696,1.0621321 7.7226511,1.535164 7.7226511,4.2883813 c 0,1.7626418 -0.018069,3.2050906 -0.040269,3.2047929 C 7.6601832,7.492877 6.8128342,6.7929379 5.7999571,5.9383645 4.787081,5.0837895 3.9185053,4.3695954 3.8690285,4.3506099 3.8195506,4.3316289 3.7205435,4.3543719 3.6493967,4.4009428 3.4303556,4.5444631 3.3550622,4.8769295 3.4800953,5.1513504 3.5148881,5.2277095 4.3929645,6.0069073 5.4311576,6.8827811 6.4693484,7.7586566 7.3241694,8.5030842 7.3309723,8.5364258 7.3377747,8.569759 6.5075197,9.2747067 5.485151,10.103132 4.4627814,10.931558 3.5884443,11.65091 3.5423241,11.701869 3.404652,11.853983 3.3938486,12.228234 3.5212778,12.431228 3.7296789,12.763225 3.7577389,12.74716 5.7853157,11.09971 6.8053368,10.270925 7.6586885,9.5924889 7.6814693,9.5924889 c 0.022785,0 0.041183,1.4274031 0.041183,3.1718471 0,2.07306 0.019068,3.223829 0.055824,3.322851 0.030936,0.08333 0.096784,0.181716 0.1455058,0.218715 0.048724,0.03701 0.1404537,0.06772 0.204075,0.06772 0.1194283,0 4.7143679,-3.471691 4.9902179,-3.770345 0.198,-0.214373 0.211287,-0.649129 0.02656,-0.864804 -0.06646,-0.07758 -1.005222,-0.814005 -2.085604,-1.636251 C 9.9788441,9.279967 9.0760175,8.5910035 9.0523416,8.570284 9.0286723,8.5495643 9.9186331,7.8351814 11.030859,6.9834446 12.143082,6.1317073 13.10102,5.3738847 13.159456,5.2996008 13.281531,5.1444259 13.302032,4.7389228 13.196981,4.5510217 13.128961,4.4293571 8.3616332,0.75896521 8.1893731,0.69556943 c -0.033543,-0.01235 -0.067655,-0.016568 -0.1024955,-0.011875 z M 8.5609136,2.2732586 c 0.055165,0 3.4134444,2.5893868 3.4134444,2.6319216 0,0.022758 -0.755135,0.6210121 -1.678354,1.3287711 -0.9232181,0.7077612 -1.6983129,1.2941975 -1.7222785,1.3040648 -0.023959,0.00988 -0.043924,-1.169925 -0.043924,-2.6227693 0,-1.4528444 0.014231,-2.6419882 0.031112,-2.6419882 z m 0.00916,7.2661525 c 0.077904,0.00148 3.3768354,2.5638049 3.3768354,2.6227699 0,0.03277 -0.75983,0.642709 -1.689331,1.355311 -0.9295019,0.712599 -1.6982677,1.294913 -1.708552,1.294913 -0.010279,0 -0.01922,-1.186121 -0.01922,-2.636497 0,-1.450377 0.018069,-2.636932 0.040265,-2.6364969 z" class="ColorScheme-Text"/>
  </svg>
