<?xml version='1.0' encoding='UTF-8'?>
<svg xmlns:inkscape="http://www.inkscape.org/namespaces/inkscape" xmlns:sodipodi="http://sodipodi.sourceforge.net/DTD/sodipodi-0.dtd" xmlns="http://www.w3.org/2000/svg" xmlns:svg="http://www.w3.org/2000/svg" xmlns:rdf="http://www.w3.org/1999/02/22-rdf-syntax-ns#" xmlns:cc="http://creativecommons.org/ns#" xmlns:dc="http://purl.org/dc/elements/1.1/" width="64" height="64" version="1.1" viewBox="0 0 16.933 16.933" id="svg7" sodipodi:docname="brave-browser.svg" inkscape:version="1.4 (e7c3feb100, 2024-10-09)">
  <sodipodi:namedview id="namedview7" pagecolor="#9c4444" bordercolor="#000000" borderopacity="0.25" inkscape:showpageshadow="2" inkscape:pageopacity="0.0" inkscape:pagecheckerboard="0" inkscape:deskcolor="#d1d1d1" inkscape:zoom="6.15625" inkscape:cx="29.319797" inkscape:cy="29.725888" inkscape:window-width="1183" inkscape:window-height="941" inkscape:window-x="35" inkscape:window-y="32" inkscape:window-maximized="0" inkscape:current-layer="svg7" showgrid="false"/>
  <defs id="defs2">
    <style id="current-color-scheme" type="text/css">.ColorScheme-Text {color:#d8dee9} .ColorScheme-Highlight {color:#3b4252}</style></defs>
  <metadata id="metadata2">
    <rdf:RDF>
      <cc:Work rdf:about="">
        <dc:format>image/svg+xml</dc:format>
        <dc:type rdf:resource="http://purl.org/dc/dcmitype/StillImage"/>
      </cc:Work>
    </rdf:RDF>
  </metadata>
  <path style="fill:currentColor;fill-opacity:1;stroke:none;stroke-width:0.421696;stroke-dasharray:none;stroke-dashoffset:2.2;stroke-opacity:0.3" d="M 8.3742783,15.872169 C 8.1969005,15.829713 8.1479675,15.798443 6.3644316,14.58797 4.7917224,13.520584 4.3088047,13.10526 4.0802423,12.623488 3.9605051,12.371102 3.3115303,9.9716938 2.6001923,7.1514119 L 2.2767447,5.8690232 2.4800331,5.2853172 C 2.5918414,4.9642801 2.6833217,4.6635798 2.6833217,4.6170961 c 0,-0.046483 -0.087184,-0.2579162 -0.1937432,-0.4698498 C 2.3830215,3.9353115 2.2958364,3.7330225 2.2958364,3.697715 2.2958364,3.607172 3.398642,2.5319366 3.603599,2.4226457 3.8394595,2.2968733 4.5720902,2.2934571 4.8125018,2.4170257 L 4.9800379,2.5031027 5.6123398,1.872103 6.2446397,1.2411032 h 2.2993956 2.2993967 l 0.632589,0.631289 0.632592,0.6312889 0.235699,-0.1042644 c 0.19418,-0.085893 0.300441,-0.1004207 0.60317,-0.082454 0.222454,0.013224 0.434366,0.056593 0.536995,0.1099587 0.20246,0.1052847 0.863806,0.7074485 1.145671,1.043152 l 0.20118,0.2396098 -0.213288,0.4145029 c -0.117306,0.2279766 -0.213289,0.455753 -0.213289,0.5061691 0,0.050415 0.08696,0.3274239 0.193204,0.6155734 0.106267,0.2881511 0.193446,0.5661037 0.193743,0.617674 8e-4,0.1377975 -0.95389,3.8850927 -1.530918,6.0091294 -0.270166,0.994471 -0.481384,1.278992 -1.47549,1.9875 -1.143345,0.814876 -2.9525011,2.008439 -3.0443171,2.008439 -0.050679,0 -0.1211725,0.0085 -0.1566493,0.01917 -0.035479,0.01045 -0.1299999,0.0036 -0.2100452,-0.01558 z m 0.4894971,-3.24741 c 0.1038597,-0.07921 0.4791928,-0.344641 0.8340746,-0.589832 0.354883,-0.245189 0.736314,-0.527429 0.847626,-0.627198 0.25072,-0.224722 0.242566,-0.235549 -0.430341,-0.571282 -1.420421,-0.70869 -1.5535768,-0.730011 -2.3460704,-0.375631 -0.882406,0.394586 -1.3804152,0.677451 -1.3804152,0.784065 0,0.06822 0.2266106,0.252234 0.8030801,0.65207 0.4416945,0.306356 0.897232,0.627845 1.0123068,0.714425 0.2595832,0.195302 0.4170428,0.198498 0.6597395,0.0133 z M 6.3799233,10.790294 C 6.49128,10.714426 6.7785557,10.551184 7.0183123,10.427533 7.4744299,10.192297 8.2101036,9.6025582 8.325285,9.3798242 8.4187143,9.1991513 8.3652988,9.1291992 7.66336,8.5129923 7.3255069,8.216402 7.035607,7.9312813 7.0191388,7.8793919 7.0009843,7.8222095 7.076017,7.5629937 7.209605,7.2213448 7.5105749,6.4516134 7.5036716,6.1753425 7.1792748,6.0075917 7.0962279,5.9646498 6.6353036,5.7780594 6.1549984,5.5929547 5.6746936,5.4078488 5.2583244,5.2412444 5.2297353,5.2227242 5.1561844,5.1750836 5.5835151,5.1251934 6.1079463,5.120204 6.5106621,5.116366 6.6066957,5.134739 7.1008768,5.3099304 7.650494,5.5047936 7.8248448,5.6242747 7.7894098,5.7817746 7.7789028,5.8284994 7.6828369,6.2518662 7.5759383,6.7226087 7.4690405,7.1933517 7.3815756,7.6105594 7.3815756,7.6497365 c 0,0.096338 0.2901134,0.2056871 0.798403,0.3009318 0.3930385,0.07365 0.4472769,0.073439 0.7925768,-0.00304 0.4813283,-0.1066147 0.7339324,-0.209143 0.7339324,-0.2978875 0,-0.039182 -0.087463,-0.4563843 -0.194363,-0.9271268 C 9.4052253,6.2518616 9.3091634,5.8284856 9.298653,5.7817708 9.2627031,5.6219879 9.4382353,5.5013694 9.9876121,5.3083366 10.44574,5.1473669 10.59681,5.1159565 10.912893,5.1159565 c 0.447741,0 0.973201,0.049888 0.973201,0.092403 0,0.016587 -0.114418,0.070389 -0.25429,0.119548 C 10.83809,5.6068969 9.866798,6.0168276 9.769909,6.1137164 9.5919949,6.2916324 9.6194176,6.5711956 9.8775706,7.2113512 10.010823,7.5417882 10.086854,7.7975059 10.071042,7.8620835 10.056716,7.9205921 9.7890127,8.1907083 9.4761466,8.4623361 8.7945543,9.0540894 8.7377747,9.1151314 8.7377747,9.2561452 c 0,0.1514528 0.6729904,0.7854788 1.1764363,1.1083238 0.600347,0.384984 0.931281,0.563764 1.043561,0.563764 0.124565,0 0.662301,-0.470652 0.843717,-0.738462 0.273412,-0.4036153 0.275139,-0.5602739 0.01406,-1.2837574 C 11.723361,8.6504594 11.701701,8.5308841 11.73592,8.4669217 11.761779,8.4185781 12.09494,8.0977097 12.476251,7.75388 12.85756,7.4100509 13.319872,6.9815566 13.503606,6.8016686 L 13.837723,6.4746019 13.809071,6.1329338 C 13.792351,5.9313514 13.737669,5.7054437 13.675995,5.5819741 13.481351,5.1922387 12.097678,3.359614 11.957426,3.305794 11.928966,3.294831 11.568838,3.37073 11.15723,3.4743943 c -0.411607,0.1036659 -0.801877,0.1884838 -0.867269,0.1884838 -0.06539,0 -0.3487442,-0.064554 -0.6296744,-0.1434595 C 8.663444,3.2394481 8.4354332,3.2395334 7.430014,3.5202905 7.1502984,3.5983874 6.857045,3.6624274 6.7783402,3.6626022 6.6996354,3.6627765 6.4053888,3.5978533 6.1244588,3.5183269 5.8435267,3.4387708 5.5085367,3.3541004 5.3800339,3.3301399 L 5.1463918,3.2865708 4.8956767,3.6043743 C 4.427029,4.1984264 3.7023099,5.2359309 3.5353047,5.5518743 3.3062298,5.9852437 3.2348102,6.2834292 3.3141884,6.475067 c 0.035944,0.086754 0.4669428,0.5181606 1.043088,1.0440553 0.5400167,0.4929174 0.9946523,0.9295765 1.0102988,0.9703545 0.015656,0.040782 -0.027632,0.2301975 -0.096176,0.420933 -0.2196974,0.6113334 -0.2283055,0.6581139 -0.1636261,0.8891284 0.032803,0.1171787 0.1244386,0.3024888 0.203622,0.4117978 0.2039048,0.281484 0.6733414,0.713033 0.7779098,0.715129 0.048482,9.43e-4 0.1792555,-0.0603 0.2906141,-0.136171 z" id="path14" class="ColorScheme-Text"/>
  </svg>
