<?xml version='1.0' encoding='UTF-8'?>
<svg xmlns:inkscape="http://www.inkscape.org/namespaces/inkscape" xmlns:sodipodi="http://sodipodi.sourceforge.net/DTD/sodipodi-0.dtd" xmlns="http://www.w3.org/2000/svg" xmlns:svg="http://www.w3.org/2000/svg" xmlns:rdf="http://www.w3.org/1999/02/22-rdf-syntax-ns#" xmlns:cc="http://creativecommons.org/ns#" xmlns:dc="http://purl.org/dc/elements/1.1/" width="64" height="64" version="1.1" viewBox="0 0 16.933 16.933" id="svg7" sodipodi:docname="simplescan.svg" inkscape:version="1.4 (e7c3feb100, 2024-10-09)">
  <sodipodi:namedview id="namedview7" pagecolor="#9c4444" bordercolor="#000000" borderopacity="0.25" inkscape:showpageshadow="2" inkscape:pageopacity="0.0" inkscape:pagecheckerboard="0" inkscape:deskcolor="#d1d1d1" inkscape:zoom="6.15625" inkscape:cx="15.51269" inkscape:cy="29.807107" inkscape:window-width="1183" inkscape:window-height="940" inkscape:window-x="35" inkscape:window-y="32" inkscape:window-maximized="0" inkscape:current-layer="svg7" showgrid="false"/>
  <defs id="defs2">
    <style id="current-color-scheme" type="text/css">.ColorScheme-Text {color:#d8dee9} .ColorScheme-Highlight {color:#3b4252}</style></defs>
  <metadata id="metadata2">
    <rdf:RDF>
      <cc:Work rdf:about="">
        <dc:format>image/svg+xml</dc:format>
        <dc:type rdf:resource="http://purl.org/dc/dcmitype/StillImage"/>
      </cc:Work>
    </rdf:RDF>
  </metadata>
  <path style="fill:currentColor;fill-opacity:1;stroke:none;stroke-width:0.453553;stroke-dasharray:none;stroke-opacity:0.3" d="M 3.5858691,15.457113 C 2.8360088,15.369779 2.2070841,14.821802 1.9908993,14.067428 1.9450925,13.907589 1.939649,13.625119 1.9306506,10.941141 l -0.00992,-2.950569 h 6.5629206 6.5629158 l -0.0095,2.950569 c -0.01102,3.290819 0.0025,3.074157 -0.219618,3.521643 -0.150708,0.303639 -0.494712,0.647653 -0.798345,0.798351 -0.29656,0.147212 -0.502068,0.194393 -0.943487,0.216735 l -0.372873,0.01881 -0.0082,-1.549307 -0.008,-1.549315 -0.06773,-0.137484 c -0.08645,-0.175427 -0.263582,-0.352553 -0.439075,-0.438997 l -0.137541,-0.06773 -3.5130314,-0.0078 C 4.4925069,11.737122 4.843147,11.713562 4.5425502,12.014651 4.256555,12.301125 4.266637,12.229142 4.266637,13.984632 v 1.503019 l -0.2416097,-0.004 c -0.1327549,-0.0025 -0.330304,-0.01444 -0.4388746,-0.02681 z M 11.566238,10.2594 c 0.14193,-0.09644 0.197499,-0.209179 0.197366,-0.4003864 -1.99e-4,-0.2877883 -0.177156,-0.4624922 -0.468465,-0.4624922 -0.291303,0 -0.468262,0.1747012 -0.468464,0.4624923 -1.98e-4,0.2948763 0.177096,0.4744413 0.468464,0.4744413 0.125172,0 0.186965,-0.01691 0.271105,-0.07406 z m 1.859727,0.01564 c 0.142899,-0.08713 0.211839,-0.220596 0.211839,-0.4101635 0,-0.2939374 -0.174401,-0.4683583 -0.468358,-0.4683583 -0.293937,0 -0.468353,0.1744219 -0.468353,0.4683583 0,0.2939365 0.174401,0.4683575 0.468353,0.4683575 0.109212,0 0.191823,-0.01879 0.256529,-0.05819 z m -8.6909009,4.509896 v -0.702867 h 3.748613 3.7486189 v 0.702867 0.702865 H 8.4836771 4.7350641 Z M 1.931384,6.6800183 C 1.948351,5.7424057 1.963779,5.6427245 2.1502671,5.2669664 2.3008801,4.9634996 2.6449188,4.6193989 2.9486165,4.4684761 3.3084166,4.289669 3.4720885,4.259911 4.1054153,4.2581504 c 0.5149093,-0.00159 0.5651756,0.00317 0.6735772,0.06133 0.2566495,0.1377652 0.3754354,0.3190425 0.4097743,0.6253409 0.026642,0.2375221 0.079357,0.3678988 0.1993961,0.4930394 0.203459,0.2121054 -0.1840245,0.1935279 4.3841001,0.2101679 l 4.11469,0.014972 0.173375,0.065689 c 0.246154,0.093263 0.398413,0.1887897 0.557612,0.3498573 0.283058,0.2863783 0.387399,0.5579762 0.415365,1.081188 l 0.01928,0.3622384 H 8.4844291 1.9161726 Z M 6.0143892,5.1359808 C 5.8073854,5.0634481 5.7015025,4.9164757 5.7015025,4.7016741 c 0,-0.1506586 0.08672,-0.29873 0.2197463,-0.3752314 C 5.9695133,4.2986915 7.0698919,3.9045038 8.3665339,3.450484 9.6631732,2.9964621 11.474778,2.3621376 12.39232,2.0408723 14.215556,1.4024924 14.183904,1.410043 14.372243,1.5685167 c 0.233423,0.1964153 0.234595,0.5427481 0.0025,0.7080882 -0.04636,0.032997 -0.616531,0.2462453 -1.26707,0.473872 C 12.456981,2.9781041 11.42393,3.3395787 10.811853,3.5537551 7.0437612,4.8722705 6.264985,5.143178 6.1993105,5.1582927 6.1590324,5.1675647 6.0758029,5.1573857 6.0143341,5.135981 Z" id="path1-3" class="ColorScheme-Text"/>
  <g id="g9" transform="matrix(0.46959567,0,0,0.46959567,4.7471229,3.7470598)" style="fill:#999999;fill-opacity:1;stroke:none;stroke-width:0.58349;stroke-dasharray:none;stroke-opacity:0.3"/>
  <g aria-label="Krita" id="text1450" style="font-size:1.76385px;opacity:1;fill:#afafe9;stroke-width:0.529156;fill-opacity:1"/>
  </svg>
