<?xml version='1.0' encoding='UTF-8'?>
<svg xmlns:inkscape="http://www.inkscape.org/namespaces/inkscape" xmlns:sodipodi="http://sodipodi.sourceforge.net/DTD/sodipodi-0.dtd" xmlns="http://www.w3.org/2000/svg" xmlns:svg="http://www.w3.org/2000/svg" xmlns:rdf="http://www.w3.org/1999/02/22-rdf-syntax-ns#" xmlns:cc="http://creativecommons.org/ns#" xmlns:dc="http://purl.org/dc/elements/1.1/" width="64" height="64" version="1.1" viewBox="0 0 16.933 16.933" id="svg7" sodipodi:docname="chat.delta.desktop.svg" inkscape:version="1.4 (e7c3feb100, 2024-10-09)">
  <sodipodi:namedview id="namedview7" pagecolor="#9c4444" bordercolor="#000000" borderopacity="0.25" inkscape:showpageshadow="2" inkscape:pageopacity="0.0" inkscape:pagecheckerboard="0" inkscape:deskcolor="#d1d1d1" inkscape:zoom="6.15625" inkscape:cx="15.837563" inkscape:cy="29.725888" inkscape:window-width="1183" inkscape:window-height="941" inkscape:window-x="35" inkscape:window-y="32" inkscape:window-maximized="0" inkscape:current-layer="svg7" showgrid="false"/>
  <defs id="defs2">
    <style id="current-color-scheme" type="text/css">.ColorScheme-Text {color:#d8dee9} .ColorScheme-Highlight {color:#3b4252}</style></defs>
  <metadata id="metadata2">
    <rdf:RDF>
      <cc:Work rdf:about="">
        <dc:format>image/svg+xml</dc:format>
        <dc:type rdf:resource="http://purl.org/dc/dcmitype/StillImage"/>
      </cc:Work>
    </rdf:RDF>
  </metadata>
  <path id="path5" style="fill:currentColor;fill-opacity:1;stroke-width:0.0399171" d="M 8.534123,1.8304613 C 8.3084208,1.8306004 8.0834675,1.8376243 7.9377215,1.8511238 6.3627184,1.9969697 4.8989183,2.6912233 3.7553959,3.8347464 2.4525899,5.1375523 1.7506413,6.8147254 1.7506413,8.6256835 c 0,1.0734943 0.2297543,2.0484045 0.7058198,2.9984455 0.9454311,1.886709 2.7298968,3.19142 4.852456,3.547887 0.1646578,0.02765 0.3802052,0.05824 0.4789993,0.06764 0.3006651,0.02856 0.9948467,0.02411 1.2975262,-0.008 0.6897969,-0.07315 1.2092804,-0.20413 1.9756394,-0.498725 0.782497,-0.300797 1.064851,-0.369201 1.526695,-0.369109 0.461607,8.9e-5 0.804131,0.07856 1.598544,0.366293 0.50718,0.183692 0.709515,0.246603 0.729769,0.226351 0.01915,-0.01915 -0.03914,-0.161367 -0.243255,-0.592644 -0.402646,-0.850718 -0.532682,-1.383501 -0.486985,-1.995873 0.02808,-0.376281 0.09966,-0.627953 0.397757,-1.397083 C 15.101589,9.6344453 15.182862,9.278577 15.18236,8.3490718 15.181674,7.0324278 14.832817,5.8650923 14.121983,4.8016707 12.985831,3.101963 11.179905,2.0334115 9.1352212,1.8506553 8.9862597,1.8373399 8.7598255,1.830323 8.534123,1.8304636 Z m -0.09721,1.8986239 c 0.5799075,-0.00521 1.2103633,0.043322 1.655837,0.1394733 0.615423,0.1328347 1.115604,0.4626148 1.2346,0.8133605 0.03523,0.1038122 0.02741,0.2601579 -0.01832,0.3611286 -0.0492,0.1086629 -0.196635,0.2514679 -0.329667,0.3193327 -0.08314,0.042408 -0.124859,0.050092 -0.277537,0.049778 C 10.416219,5.4115382 10.25688,5.3317346 9.6841928,4.9031039 9.3124931,4.6249038 9.0665269,4.460862 8.879285,4.3663425 8.1423149,3.9943208 6.9255885,4.2077658 6.678234,4.7523598 6.624892,4.8698064 6.631198,4.9401425 6.711108,5.0998698 6.9031014,5.4836419 7.4288316,5.8888313 8.760945,6.681039 c 0.3540684,0.2105635 0.7807689,0.4681138 0.9486077,0.5719817 0.9287763,0.5747743 1.5148793,1.104189 1.8422683,1.6647585 0.393361,0.6735268 0.382326,1.7317948 -0.02677,2.5706348 -0.184619,0.378562 -0.469917,0.723776 -0.841535,1.017638 -0.589248,0.465965 -1.1191649,0.695658 -1.8676199,0.810074 -0.2545565,0.03891 -0.8260368,0.05413 -1.056617,0.02818 C 7.0359029,13.26286 6.3791253,12.971529 5.9108943,12.523897 5.4129035,12.047816 5.1651104,11.540265 5.1031691,10.869938 5.0589911,10.391847 5.1667184,9.8043644 5.3736634,9.393961 5.5680738,9.0084145 5.9730324,8.5838052 6.4307498,8.2852175 6.8280706,8.0260277 7.2246797,7.8530789 7.8062305,7.6855287 8.2282762,7.5639323 8.3566109,7.5140938 8.3566109,7.4713871 8.3566109,7.3871145 7.848003,6.9218347 7.3107945,6.5147966 6.4120411,5.8338185 6.1624866,5.5500406 6.0982677,5.1369677 6.0391291,4.7565721 6.2040555,4.3933214 6.5387595,4.1662887 6.7886027,3.9968182 7.159674,3.8544561 7.4986374,3.7981163 7.7592954,3.7547918 8.0889693,3.7322196 8.436913,3.7290852 Z M 8.795225,8.0790605 C 8.7257515,8.0788823 8.6378993,8.0920945 8.5097034,8.118039 7.9886024,8.2235118 7.4993841,8.4641335 7.1680344,8.7787767 6.6923335,9.2304936 6.5443125,9.644477 6.5659975,10.460441 c 0.011305,0.424967 0.051963,0.606087 0.2141409,0.945792 0.2710606,0.567768 0.685184,0.956787 1.2036047,1.130816 0.08566,0.02875 0.2065504,0.05987 0.2690851,0.06905 v -4.6e-4 c 0.250157,0.03669 0.5248241,0.01178 0.7889408,-0.07138 0.6224219,-0.196175 1.075384,-0.696491 1.261835,-1.393799 0.06472,-0.242048 0.08756,-0.652619 0.05025,-0.907753 C 10.283349,9.7505122 10.0898,9.3127349 9.7583905,8.88445 9.5832122,8.6580644 9.0861803,8.1750428 8.9703888,8.1189892 8.9158159,8.0925767 8.8647,8.0792507 8.7952254,8.0790734 Z" class="ColorScheme-Text"/>
  </svg>
