<?xml version='1.0' encoding='UTF-8'?>
<svg xmlns:inkscape="http://www.inkscape.org/namespaces/inkscape" xmlns:sodipodi="http://sodipodi.sourceforge.net/DTD/sodipodi-0.dtd" xmlns="http://www.w3.org/2000/svg" xmlns:svg="http://www.w3.org/2000/svg" xmlns:rdf="http://www.w3.org/1999/02/22-rdf-syntax-ns#" xmlns:cc="http://creativecommons.org/ns#" xmlns:dc="http://purl.org/dc/elements/1.1/" width="64" height="64" version="1.1" viewBox="0 0 16.933 16.933" id="svg7" sodipodi:docname="com.heroicgameslauncher.hgl.svg" inkscape:version="1.4 (e7c3feb100, 2024-10-09)">
  <sodipodi:namedview id="namedview7" pagecolor="#9c4444" bordercolor="#000000" borderopacity="0.25" inkscape:showpageshadow="2" inkscape:pageopacity="0.0" inkscape:pagecheckerboard="0" inkscape:deskcolor="#d1d1d1" inkscape:zoom="6.15625" inkscape:cx="15.837563" inkscape:cy="46.781726" inkscape:window-width="1183" inkscape:window-height="941" inkscape:window-x="35" inkscape:window-y="32" inkscape:window-maximized="0" inkscape:current-layer="svg7" showgrid="false"/>
  <defs id="defs2">
    <style id="current-color-scheme" type="text/css">.ColorScheme-Text {color:#d8dee9} .ColorScheme-Highlight {color:#3b4252}</style></defs>
  <metadata id="metadata2">
    <rdf:RDF>
      <cc:Work rdf:about="">
        <dc:format>image/svg+xml</dc:format>
        <dc:type rdf:resource="http://purl.org/dc/dcmitype/StillImage"/>
      </cc:Work>
    </rdf:RDF>
  </metadata>
  <path style="fill:currentColor;fill-opacity:1;stroke-width:0.0739208" d="M 8.2179356,15.871049 C 8.1378461,15.83068 8.0139205,15.753095 7.942546,15.698633 7.6172822,15.450455 5.5619802,13.663234 5.3796193,13.469998 5.0080901,13.076312 5.1295732,13.449769 3.4774168,7.6224042 2.6772983,4.8002837 2.0062936,2.4218808 1.9862965,2.3370636 1.9353132,2.1208258 1.9392196,1.9417439 1.9974126,1.8276848 2.091983,1.6423111 2.2614237,1.537411 2.7961521,1.3331903 L 3.1843815,1.1849196 H 8.4665658 13.74875 l 0.377342,0.1442043 c 0.590473,0.2256541 0.744154,0.3213586 0.824387,0.513387 0.04893,0.1170818 0.03872,0.3602687 -0.0251,0.5990628 -0.0308,0.1151932 -0.701389,2.4825085 -1.490215,5.2607004 -1.629074,5.7374799 -1.510804,5.3749649 -1.88166,5.7674659 -0.183521,0.194233 -2.2369417,1.980212 -2.5608801,2.227345 -0.1945585,0.148428 -0.4049582,0.247363 -0.5260651,0.247363 -0.065276,0 -0.1563529,-0.02689 -0.2486274,-0.0734 z m 0.5570103,-1.528411 c 0.1624177,-0.08142 0.2953037,-0.158156 0.2953037,-0.170525 0,-0.01235 -0.033476,-0.319978 -0.074391,-0.683565 L 8.921465,12.827479 8.7068478,12.611863 C 8.5888084,12.493265 8.4806802,12.396247 8.466563,12.396247 c -0.014098,0 -0.122246,0.09703 -0.2402848,0.215616 L 8.011661,12.827479 7.9372703,13.48855 c -0.040915,0.363587 -0.074393,0.671184 -0.074393,0.683551 0,0.02044 0.5537269,0.3143 0.5979057,0.317294 0.010374,7.22e-4 0.1517454,-0.06532 0.3141625,-0.146756 z M 7.1852687,12.334193 c 0.3388035,-0.03359 0.6339462,-0.0611 0.6558719,-0.06112 0.023057,-1.7e-5 0.1044012,-0.09791 0.1929201,-0.232146 L 8.1871171,11.808809 8.0369316,11.585451 C 7.9394646,11.440486 7.8674229,11.358045 7.8316924,11.350559 7.7616031,11.335939 6.5104556,11.213495 6.4304179,11.213495 c -0.052016,0 -0.07922,0.03904 -0.2063001,0.296049 l -0.1463836,0.29605 0.1533832,0.307926 0.1533813,0.307927 0.092382,-0.01311 c 0.05081,-0.0072 0.3695856,-0.04058 0.7083882,-0.07416 z m 3.5168873,-0.220943 0.153238,-0.307637 -0.146385,-0.29605 c -0.127079,-0.257009 -0.154283,-0.296049 -0.206299,-0.296049 -0.08004,0 -1.3311864,0.122366 -1.4012744,0.137064 -0.035731,0.0076 -0.1077718,0.08995 -0.205241,0.234889 l -0.1501836,0.223357 0.1530545,0.232115 c 0.1270435,0.192666 0.1640194,0.232387 0.2175608,0.233708 0.035479,8.34e-4 0.358341,0.03281 0.7174731,0.07096 0.3591326,0.03815 0.6668836,0.0707 0.6838926,0.07233 0.01701,0.0017 0.09988,-0.13547 0.184163,-0.304675 z M 8.7073998,10.997343 8.9225687,10.781172 9.2942106,7.1384997 9.6658521,3.4958257 9.0684917,2.5990953 C 8.739943,2.1058937 8.4690759,1.7023652 8.466563,1.7023652 c -0.00251,0 -0.2733796,0.4035285 -0.6019284,0.8967301 l -0.5973602,0.8967304 0.3716418,3.642674 0.3716411,3.6426723 0.2151691,0.216171 c 0.1183434,0.118904 0.22672,0.216171 0.2408366,0.216171 0.014098,0 0.1224949,-0.09728 0.2408368,-0.216171 z" id="path6" class="ColorScheme-Text"/>
  <g aria-label="Steam" id="text2284" style="font-size:1.76385px;opacity:1;fill:#999999;stroke-width:0.529156"/>
</svg>
