<?xml version='1.0' encoding='UTF-8'?>
<svg xmlns:inkscape="http://www.inkscape.org/namespaces/inkscape" xmlns:sodipodi="http://sodipodi.sourceforge.net/DTD/sodipodi-0.dtd" xmlns="http://www.w3.org/2000/svg" xmlns:svg="http://www.w3.org/2000/svg" xmlns:rdf="http://www.w3.org/1999/02/22-rdf-syntax-ns#" xmlns:cc="http://creativecommons.org/ns#" xmlns:dc="http://purl.org/dc/elements/1.1/" width="64" height="64" version="1.1" viewBox="0 0 16.933 16.933" id="svg7" sodipodi:docname="com.xnview.XnConvert.svg" inkscape:version="1.4 (e7c3feb100, 2024-10-09)">
  <sodipodi:namedview id="namedview7" pagecolor="#9c4444" bordercolor="#000000" borderopacity="0.25" inkscape:showpageshadow="2" inkscape:pageopacity="0.0" inkscape:pagecheckerboard="0" inkscape:deskcolor="#d1d1d1" inkscape:zoom="6.15625" inkscape:cx="15.756345" inkscape:cy="27.126904" inkscape:window-width="1226" inkscape:window-height="669" inkscape:window-x="35" inkscape:window-y="32" inkscape:window-maximized="0" inkscape:current-layer="svg7" showgrid="false"/>
  <defs id="defs2">
    <style id="current-color-scheme" type="text/css">.ColorScheme-Text {color:#d8dee9} .ColorScheme-Highlight {color:#3b4252}</style></defs>
  <metadata id="metadata2">
    <rdf:RDF>
      <cc:Work rdf:about="">
        <dc:format>image/svg+xml</dc:format>
        <dc:type rdf:resource="http://purl.org/dc/dcmitype/StillImage"/>
      </cc:Work>
    </rdf:RDF>
  </metadata>
  <path style="fill:currentColor;stroke-width:0.0222919" d="m 8.0429996,15.119127 c -0.030651,-0.0053 -0.1460131,-0.02075 -0.2563567,-0.0345 -0.8006528,-0.09979 -1.63826,-0.467611 -2.4409636,-1.0719 C 4.8434021,13.634602 4.4773071,13.29135 3.2494872,12.047308 2.3801401,11.166475 2.0371217,10.862311 1.5262084,10.519232 1.3006002,10.367736 1.1920138,10.254109 1.1115099,10.085285 0.9405665,9.7267996 0.97235122,9.2582556 1.1889708,8.9434178 1.2320525,8.8808021 1.3548416,8.7609163 1.4618351,8.6770049 1.6910224,8.4972609 2.3281409,7.8648621 2.7010351,7.4469842 L 2.9643302,7.1519264 2.2880577,6.4520445 C 1.8775169,6.0271712 1.5820508,5.7026296 1.5361131,5.626105 1.2758033,5.1924716 1.3454428,4.6510687 1.7081984,4.2882523 2.078147,3.9182413 2.6742527,3.8576901 3.0985479,4.147023 c 0.058797,0.040092 0.3988197,0.3763463 0.7556082,0.7472276 0.3567886,0.3708819 0.6558025,0.6743306 0.6644752,0.6743306 0.00866,0 0.1105306,-0.076122 0.2263537,-0.1691627 C 4.8608067,5.30638 5.0974327,5.1353403 5.2708202,5.0193309 L 5.5860694,4.8084033 5.5529265,4.6813513 C 5.5346983,4.6114731 5.4304531,4.2237066 5.3212715,3.8196483 5.1474222,3.1762672 5.1227602,3.0623191 5.1227602,2.9024556 5.1227602,2.06302 6.0076617,1.5411 6.7552887,1.939581 6.9396229,2.03783 7.1129282,2.2189406 7.2064743,2.4110865 c 0.04711,0.096765 0.1551065,0.4370116 0.2752889,0.8673169 0.1087712,0.3894464 0.2034292,0.713746 0.2103494,0.720666 0.00694,0.00692 0.1513958,3.741e-4 0.3210586,-0.014516 0.2901997,-0.025494 0.7726728,-0.018981 1.1109858,0.01501 L 9.2579075,4.0129964 9.464569,3.2725898 C 9.5782327,2.8653603 9.6984263,2.4755522 9.7316666,2.4063437 9.8106686,2.241855 10.045217,2.0056778 10.208233,1.9264677 c 0.45782,-0.2224567 0.938353,-0.145274 1.291987,0.2075177 0.235064,0.2345021 0.355843,0.5514839 0.324478,0.8515739 -0.0076,0.074129 -0.114798,0.5071674 -0.23788,0.9623099 -0.123082,0.4551433 -0.220955,0.839219 -0.217487,0.8535016 0.0036,0.014288 0.141725,0.1166676 0.307251,0.2275241 0.165509,0.1108536 0.395703,0.2776307 0.511525,0.3706129 0.115824,0.092982 0.21755,0.1690601 0.226062,0.1690601 0.0086,0 0.294251,-0.2884014 0.634976,-0.6408921 0.34072,-0.3524903 0.655293,-0.6718322 0.69905,-0.7096477 0.394296,-0.3407709 0.996605,-0.3395555 1.407277,0.00285 0.434479,0.362247 0.526306,0.9799558 0.215599,1.4503278 -0.03963,0.059994 -0.37095,0.417882 -0.736263,0.7953063 l -0.664212,0.6862255 0.273216,0.3057963 c 0.379818,0.4251073 0.995108,1.0357931 1.227444,1.2182572 0.336758,0.2644714 0.447946,0.4850017 0.450323,0.8931833 0.0027,0.4598175 -0.118503,0.6773495 -0.537807,0.9654635 -0.554224,0.38082 -0.821244,0.620546 -1.826124,1.639474 -0.847938,0.85979 -1.246276,1.245283 -1.56898,1.518383 -0.93058,0.787533 -1.790138,1.217864 -2.7641982,1.383871 -0.2009176,0.03424 -1.0497538,0.06439 -1.1814707,0.04195 z m 0.9629831,-1.335795 c 1.6495223,-0.217751 3.0142403,-1.345772 3.5280333,-2.916129 0.04336,-0.132504 0.07883,-0.250371 0.07883,-0.261929 0,-0.01284 -0.389428,-0.02101 -1.001829,-0.02101 H 10.60918 l -0.07088,0.132987 c -0.169506,0.318014 -0.519459,0.672321 -0.8649207,0.875672 -0.3627733,0.213543 -0.6864404,0.30586 -1.1288204,0.321964 -0.2625443,0.0095 -0.3486498,0.0038 -0.5424135,-0.03625 C 7.5276138,11.780529 7.1096818,11.553948 6.7717372,11.211558 6.4708169,10.906678 6.2687397,10.559365 6.1576496,10.15611 6.0867374,9.8987022 6.061685,9.4573562 6.1022416,9.1799898 6.2456108,8.1994802 7.0115444,7.3961028 7.9984159,7.1911173 8.3018657,7.1280867 8.790681,7.1441398 9.086404,7.2268487 c 0.6115796,0.1710456 1.112218,0.5536315 1.43989,1.1003559 l 0.08351,0.1393232 h 1.001947 1.001946 l -0.01463,-0.061302 C 12.566726,8.2722812 12.428554,7.8970283 12.345919,7.7181657 11.96871,6.9018273 11.28522,6.1842448 10.470958,5.7497444 9.2702537,5.1090348 7.7676286,5.0898406 6.5546417,5.6997186 5.7031969,6.1278167 5.0443275,6.7929786 4.6199636,7.6528743 4.3014334,8.2983178 4.1678584,8.9331097 4.1932042,9.6809788 c 0.01824,0.5384442 0.1032935,0.9634712 0.2840922,1.4197582 0.3959342,0.999241 1.1550106,1.821781 2.1055844,2.281625 0.7567557,0.366086 1.6134511,0.507849 2.4231019,0.40097 z" id="path5" class="ColorScheme-Text"/>
</svg>
