<?xml version='1.0' encoding='UTF-8'?>
<svg xmlns:inkscape="http://www.inkscape.org/namespaces/inkscape" xmlns:sodipodi="http://sodipodi.sourceforge.net/DTD/sodipodi-0.dtd" xmlns="http://www.w3.org/2000/svg" xmlns:svg="http://www.w3.org/2000/svg" xmlns:rdf="http://www.w3.org/1999/02/22-rdf-syntax-ns#" xmlns:cc="http://creativecommons.org/ns#" xmlns:dc="http://purl.org/dc/elements/1.1/" width="64" height="64" version="1.1" viewBox="0 0 16.933 16.933" id="svg7" sodipodi:docname="com.teamspeak.TeamSpeak.svg" inkscape:version="1.4.2 (ebf0e940d0, 2025-05-08)">
  <sodipodi:namedview id="namedview7" pagecolor="#9c4444" bordercolor="#000000" borderopacity="0.25" inkscape:showpageshadow="2" inkscape:pageopacity="0.0" inkscape:pagecheckerboard="0" inkscape:deskcolor="#d1d1d1" inkscape:zoom="6.15625" inkscape:cx="15.837563" inkscape:cy="29.64467" inkscape:window-width="1183" inkscape:window-height="941" inkscape:window-x="0" inkscape:window-y="0" inkscape:window-maximized="0" inkscape:current-layer="svg7" showgrid="false"/>
  <defs id="defs2">
    <style id="current-color-scheme" type="text/css">.ColorScheme-Text {color:#d8dee9} .ColorScheme-Highlight {color:#3b4252}</style>
  </defs>
  <metadata id="metadata2">
    <rdf:RDF>
      <cc:Work rdf:about="">
        <dc:format>image/svg+xml</dc:format>
        <dc:type rdf:resource="http://purl.org/dc/dcmitype/StillImage"/>
      </cc:Work>
    </rdf:RDF>
  </metadata>
  <path id="path9" style="fill:currentColor;fill-opacity:1;stroke-width:1.43844" class="ColorScheme-Text" d="M -40.83834 2.3954098 C -43.406496 2.5428058 -46.0572 3.0744335 -48.792567 3.9922729 C -53.351511 5.5729986 -57.190931 8.4300944 -60.454181 12.305417 C -60.838074 12.815327 -61.126087 13.477367 -60.742175 14.089262 C -60.358246 14.650163 -60.550957 14.854801 -60.838889 15.26273 C -63.142357 18.628143 -64.725518 22.400171 -65.397364 26.479458 C -65.493341 27.040361 -65.684007 27.244776 -66.067917 27.448751 C -67.651551 28.264609 -68.659925 29.744443 -68.947859 31.631114 C -69.139809 32.803906 -68.948603 33.924783 -69.044573 34.893615 C -69.044573 35.913433 -69.043168 36.678089 -69.139138 37.289984 C -69.139138 41.165305 -67.206239 43.561178 -63.607072 43.357204 C -62.695283 43.357204 -62.216533 42.797566 -62.216533 41.98171 C -62.120573 39.483146 -62.119818 37.035411 -62.119818 34.536846 C -62.119818 31.936301 -62.217146 29.183167 -61.737259 26.58262 C -59.001892 11.387268 -42.26563 3.0756928 -29.692537 10.418411 C -22.062303 14.905631 -17.80519 21.940826 -17.517262 31.272196 C -17.421302 34.739594 -17.517262 38.206978 -17.517262 41.674373 C -17.517262 42.541223 -17.180391 43.153229 -16.412568 43.357204 C -13.629213 44.020087 -11.169111 41.93127 -10.689222 38.871803 C -10.401298 36.781169 -10.592507 34.688893 -10.592507 32.598259 C -10.592507 30.201678 -11.60162 28.418549 -13.569163 27.347738 C -13.857098 27.143772 -14.143757 26.938969 -14.239717 26.531039 C -14.959548 22.34977 -16.54345 18.474369 -18.894906 15.006974 C -19.086882 14.803008 -19.374864 14.598423 -19.1829 14.394449 C -18.175131 13.017688 -19.184498 12.252995 -19.952317 11.437136 C -26.178878 4.9740141 -33.133873 1.9532219 -40.83834 2.3954098 z M -53.510083 33.107621 C -54.936375 33.199256 -56.065079 34.416881 -56.377129 36.374421 C -56.921799 39.506495 -56.377487 42.447168 -54.788863 45.057229 C -53.654133 46.908 -52.06392 47.71511 -50.112182 47.904932 C -49.022844 47.857482 -44.619875 48.095629 -43.666701 47.668519 C -42.441192 47.193962 -41.534072 46.291942 -41.261735 44.820816 C -40.989402 43.34969 -42.577919 41.308199 -44.711217 39.172692 C -46.935288 36.942276 -49.841027 34.570049 -51.429648 33.715848 C -52.153039 33.256122 -52.861768 33.065969 -53.510083 33.107621 z M -26.09476 37.550038 C -26.33902 37.549941 -26.594853 37.573138 -26.857729 37.623112 C -28.781754 37.922952 -30.436275 38.872821 -32.181322 39.572445 C -33.747389 40.272072 -35.135456 41.12301 -36.254075 42.222421 C -37.820141 43.871538 -36.969877 46.120481 -34.508917 46.970026 C -34.195703 47.119944 -33.74812 47.218251 -33.255927 47.318198 C -31.86884 47.518102 -30.570262 47.817883 -29.183174 47.917828 C -27.34864 48.017768 -25.961165 47.419852 -24.932037 46.17052 C -23.634438 44.621349 -23.009273 42.672311 -23.098761 40.623409 C -23.177073 38.743167 -24.384934 37.550721 -26.09476 37.550038 z M -17.818152 44.964813 C -18.053724 44.984564 -18.302028 45.15173 -18.454318 45.392506 C -19.380236 48.281814 -23.669604 57.95996 -38.289377 58.971215 C -55.540709 60.175093 -29.076941 63.8342 -21.52339 58.296363 C -18.940561 56.322003 -16.018511 54.348052 -16.115977 48.665753 C -16.115977 47.558184 -16.651571 45.680222 -17.431294 45.102363 C -17.540942 44.994013 -17.676808 44.952962 -17.818152 44.964813 z " transform="matrix(0.24043911,0,0,0.24043911,18.008654,0.82083628)"/>
</svg>
