<?xml version='1.0' encoding='UTF-8'?>
<svg xmlns:inkscape="http://www.inkscape.org/namespaces/inkscape" xmlns:sodipodi="http://sodipodi.sourceforge.net/DTD/sodipodi-0.dtd" xmlns="http://www.w3.org/2000/svg" xmlns:svg="http://www.w3.org/2000/svg" xmlns:rdf="http://www.w3.org/1999/02/22-rdf-syntax-ns#" xmlns:cc="http://creativecommons.org/ns#" xmlns:dc="http://purl.org/dc/elements/1.1/" width="64" height="64" version="1.1" viewBox="0 0 16.933 16.933" id="svg7" sodipodi:docname="com.spotify.Client.svg" inkscape:version="1.4 (e7c3feb100, 2024-10-09)">
  <sodipodi:namedview id="namedview7" pagecolor="#9c4444" bordercolor="#000000" borderopacity="0.25" inkscape:showpageshadow="2" inkscape:pageopacity="0.0" inkscape:pagecheckerboard="0" inkscape:deskcolor="#d1d1d1" inkscape:zoom="6.15625" inkscape:cx="15.837563" inkscape:cy="29.725888" inkscape:window-width="1183" inkscape:window-height="941" inkscape:window-x="35" inkscape:window-y="32" inkscape:window-maximized="0" inkscape:current-layer="svg7" showgrid="false"/>
  <defs id="defs2">
    <style id="current-color-scheme" type="text/css">.ColorScheme-Text {color:#d8dee9} .ColorScheme-Highlight {color:#3b4252}</style></defs>
  <metadata id="metadata2">
    <rdf:RDF>
      <cc:Work rdf:about="">
        <dc:format>image/svg+xml</dc:format>
        <dc:type rdf:resource="http://purl.org/dc/dcmitype/StillImage"/>
      </cc:Work>
    </rdf:RDF>
  </metadata>
  <path id="path16" style="fill:currentColor;fill-opacity:1;stroke:none;stroke-width:0.0733837;stroke-opacity:0.3" d="M 4.8283712,1.9484024 C 4.2399617,1.9483564 3.7047211,1.9852814 3.4545367,2.059579 2.9401318,2.2123409 2.6878612,2.5404137 2.6480616,3.1095864 2.6239202,3.45476 2.6485692,3.5682025 2.7936434,3.7819443 l 0.1738234,0.2567659 1.5017748,0.042353 c 1.2794972,0.036201 1.6305308,0.072392 2.3735474,0.2444133 2.6759388,0.6195298 4.702693,1.7150498 6.625637,3.5832603 0.928281,0.9018582 1.066113,1.0094195 1.292656,1.0094195 0.322768,0 0.617865,-0.2295762 0.79412,-0.6176524 C 15.824077,7.7085208 15.725917,7.409838 14.979031,6.5499029 13.059972,4.3403819 9.7363919,2.5758969 6.5216187,2.0595782 6.0586748,1.9852253 5.4167779,1.9484481 4.8283712,1.9484024 Z M 3.4739482,6.1413723 C 3.2756869,6.1349123 3.1004409,6.142352 2.9542393,6.1643148 2.2658467,6.2675456 1.9617424,7.1372704 2.4336466,7.6528546 c 0.1220332,0.133323 0.2299104,0.1647642 0.5602989,0.1649998 1.3796491,9.432e-4 3.9014528,0.6947462 5.6056297,1.542363 1.2252754,0.6094235 2.0223668,1.1637316 2.9250198,2.0329566 0.430781,0.414827 0.827047,0.753687 0.880595,0.753535 0.208464,-5.44e-4 0.587915,-0.308051 0.694416,-0.562946 0.154641,-0.370114 0.08054,-0.667655 -0.293828,-1.176183 C 12.179635,9.5570272 10.852656,8.5904767 9.1942855,7.7772689 7.3911207,6.8930587 4.8617884,6.186632 3.4739482,6.1413752 Z M 2.265116,10.244344 c -0.2036791,0.0044 -0.3021952,0.03593 -0.4191202,0.105 -0.4666583,0.27566 -0.6172097,0.947869 -0.2955916,1.321772 0.1512685,0.175845 0.2356941,0.199175 0.9723603,0.262943 1.450021,0.125514 3.1598142,0.614684 4.7003306,1.345597 0.9237226,0.438271 1.6745215,0.92739 2.4176645,1.57501 0.3879064,0.338047 0.5681464,0.448051 0.7376544,0.448241 0.580667,6.15e-4 0.894836,-0.793186 0.540885,-1.365893 C 10.697404,13.57798 9.9600789,12.933567 9.1581102,12.398179 7.3656006,11.201524 4.974409,10.401996 2.7715903,10.262872 2.5476893,10.248734 2.387324,10.241728 2.265116,10.24434 Z" class="ColorScheme-Text"/>
  </svg>
