<?xml version='1.0' encoding='UTF-8'?>
<svg xmlns:inkscape="http://www.inkscape.org/namespaces/inkscape" xmlns:sodipodi="http://sodipodi.sourceforge.net/DTD/sodipodi-0.dtd" xmlns="http://www.w3.org/2000/svg" xmlns:svg="http://www.w3.org/2000/svg" xmlns:rdf="http://www.w3.org/1999/02/22-rdf-syntax-ns#" xmlns:cc="http://creativecommons.org/ns#" xmlns:dc="http://purl.org/dc/elements/1.1/" width="64" height="64" version="1.1" viewBox="0 0 16.933 16.933" id="svg7" sodipodi:docname="dbeaver-ee.svg" inkscape:version="1.4 (e7c3feb100, 2024-10-09)">
  <sodipodi:namedview id="namedview7" pagecolor="#9c4444" bordercolor="#000000" borderopacity="0.25" inkscape:showpageshadow="2" inkscape:pageopacity="0.0" inkscape:pagecheckerboard="0" inkscape:deskcolor="#d1d1d1" inkscape:zoom="6.15625" inkscape:cx="15.837563" inkscape:cy="29.725888" inkscape:window-width="1183" inkscape:window-height="941" inkscape:window-x="35" inkscape:window-y="32" inkscape:window-maximized="0" inkscape:current-layer="svg7" showgrid="false"/>
  <defs id="defs2">
    <style id="current-color-scheme" type="text/css">.ColorScheme-Text {color:#d8dee9} .ColorScheme-Highlight {color:#3b4252}</style></defs>
  <metadata id="metadata2">
    <rdf:RDF>
      <cc:Work rdf:about="">
        <dc:format>image/svg+xml</dc:format>
        <dc:type rdf:resource="http://purl.org/dc/dcmitype/StillImage"/>
      </cc:Work>
    </rdf:RDF>
  </metadata>
  <path style="fill:currentColor;fill-opacity:1;stroke-width:0.17528" d="M 4.4803233,14.602715 C 2.848295,14.362278 1.5566822,13.758011 1.204023,13.069943 c -0.35140349,-0.68562 0.5015755,-1.544686 1.8482829,-1.86147 2.1535463,-0.506574 4.5730696,-0.04495 6.8643058,1.309674 0.2337923,0.138225 0.4250783,0.230026 0.4250783,0.204003 0,-0.167713 -1.1945584,-1.077917 -1.7295277,-1.317832 C 8.3789145,11.299711 8.3712575,11.288338 8.4044127,11.095824 8.423347,10.985894 8.5264647,10.715265 8.6335681,10.494443 8.8529345,10.042162 9.1143848,9.7776064 9.9882991,9.123622 10.594019,8.670338 10.974151,8.3046523 11.107331,8.0471055 11.176263,7.9137958 11.131386,7.9425998 10.894383,8.1837889 10.611902,8.4712522 10.31153,8.6752547 9.3511833,9.2318724 8.7705904,9.5683841 8.3593497,9.9656171 8.1644486,10.378182 L 8.0015335,10.72304 7.8780194,10.444906 C 7.810087,10.291931 7.6394949,9.7503062 7.4989259,9.2412928 7.1416121,7.9474291 7.1536788,8.0635079 7.376423,8.0628615 7.6353486,8.0621724 8.1377648,7.8191966 8.397198,7.5693258 8.6278582,7.3471666 8.7578933,7.1347081 8.8308757,6.8607592 8.8692893,6.7165663 8.8659368,6.7059432 8.8098549,6.7941342 8.5681617,7.1742055 8.4922619,7.2646255 8.2772797,7.428598 7.6754046,7.8876636 6.7454646,7.8968997 6.0763391,7.4504567 5.9389134,7.3587654 5.6008757,7.0931857 5.3251447,6.8602783 5.049413,6.627371 4.7939588,6.4368105 4.7574672,6.4368105 c -0.048463,0 -0.053323,0.069713 -0.018031,0.2586212 0.026572,0.1422435 0.034191,0.2814747 0.016929,0.3094078 -0.057129,0.092441 -0.1358177,-0.011096 -0.1358177,-0.1787121 0,-0.1629953 -0.072443,-0.218542 -0.14079,-0.1079542 -0.082574,0.133608 -0.132677,-0.019986 -0.055319,-0.1695807 0.1099606,-0.2126391 0.1074621,-0.2239614 -0.049427,-0.2239614 -0.1845565,0 -0.2745686,-0.1299163 -0.2745686,-0.3962954 0,-0.2209658 0.1477269,-0.4450485 0.2934001,-0.4450485 0.03214,0 0.058434,-0.063101 0.058434,-0.1402257 0,-0.087252 0.031785,-0.1402257 0.084136,-0.1402257 0.049569,0 0.084533,0.051847 0.085103,0.1262037 5.079e-4,0.069411 0.063633,0.1856414 0.1402257,0.2582899 0.076589,0.072648 0.1392548,0.1642094 0.1392548,0.2034688 0,0.2009022 0.5026596,0.2892968 0.7933267,0.1395094 C 5.8843958,5.8323599 6.1323209,5.5916599 6.2241108,5.4159601 6.3464357,5.1818107 6.3194177,5.1654933 6.1209462,5.3536551 6.020686,5.4487075 5.8436991,5.5598003 5.7276408,5.6005295 5.5334966,5.6686612 5.5102637,5.6654953 5.4370159,5.5609196 5.3932291,5.4984055 5.2573242,5.417273 5.135005,5.3806256 4.8527216,5.2960515 4.8139046,5.1922007 4.9874748,4.985924 5.0633076,4.8957994 5.1253559,4.8074247 5.1253559,4.7895322 c 0,-0.041688 -0.3116194,-0.2036798 -0.3918158,-0.2036798 -0.043177,0 -0.042666,0.033974 0.00178,0.1169849 0.034434,0.06434 0.047238,0.132354 0.028451,0.1511412 C 4.7338905,4.8838552 4.6336554,4.7970125 4.1773558,4.3459295 3.9392841,4.110586 3.8655232,3.3590294 4.0566446,3.1160582 4.3646796,2.7244554 5.8503037,2.3407787 7.0324157,2.3475374 7.51705,2.3502924 8.248329,2.4307441 7.9405619,2.447428 7.7398835,2.458296 7.8474106,2.5522586 8.112434,2.597604 c 0.1827914,0.031272 0.212611,0.049803 0.1283925,0.079773 -0.086809,0.030894 0.015428,0.1061473 0.4900207,0.3607203 1.3310348,0.7139589 1.8277748,0.8616215 3.5089958,1.0430921 0.72835,0.078618 1.232338,0.1636907 1.533693,0.2588903 0.495448,0.1565125 0.550949,0.2178103 0.125191,0.1382706 -0.15162,-0.028327 -0.282794,-0.044397 -0.291483,-0.035709 -0.0087,0.00868 0.172786,0.092604 0.403289,0.1864831 0.230494,0.093877 0.56045,0.2645222 0.733234,0.3792091 0.329183,0.2184986 0.385586,0.3218429 0.0931,0.1705991 -0.284969,-0.147364 -0.279925,-0.1018723 0.02345,0.2113305 0.536047,0.5534371 0.866155,1.4697845 0.942777,2.6170606 l 0.03184,0.4767628 -0.09506,-0.2524038 -0.09504,-0.2524043 -0.0399,0.5405739 c -0.14421,1.9539547 -1.815547,4.0485437 -4.039026,5.0618167 -0.962163,0.438473 -2.0649719,0.747943 -3.3458208,0.938906 -0.9855589,0.146946 -2.9996841,0.191176 -3.7397816,0.08214 z M 4.2559645,3.4640599 c 0.019067,-0.030848 0.017404,-0.084024 -0.00369,-0.1181705 -0.037696,-0.060998 -0.133627,0.032475 -0.1356638,0.1321906 -0.00123,0.061482 0.098931,0.051401 0.139365,-0.014022 z M 7.8426899,3.2774056 C 7.9133889,3.0763774 7.7860684,2.827109 7.5989771,2.8002582 7.3934736,2.7707664 7.3338157,2.8821159 7.5337026,2.9220938 c 0.1567766,0.031356 0.1717752,0.053658 0.1717752,0.2554411 0,0.1225538 -0.031249,0.2352278 -0.070112,0.2528167 -0.038562,0.017442 -0.020151,0.025618 0.040909,0.018145 0.064306,-0.00787 0.13433,-0.079861 0.1664172,-0.1710969 z M 5.7423402,3.0737123 5.882564,3.0310839 5.7207467,2.9656327 C 5.5890311,2.9123567 5.5342522,2.9163505 5.426276,2.9871008 5.353318,3.0349048 5.2936237,3.0860568 5.2936237,3.1007702 c 0,0.039423 0.2869475,0.022122 0.4487165,-0.027058 z" id="path99" class="ColorScheme-Text"/>
  <g id="g9" transform="matrix(0.46959567,0,0,0.46959567,4.7471229,3.7470598)" style="fill:#999999;fill-opacity:1;stroke:none;stroke-width:0.58349;stroke-dasharray:none;stroke-opacity:0.3"/>
  </svg>
