<?xml version='1.0' encoding='UTF-8'?>
<svg xmlns:inkscape="http://www.inkscape.org/namespaces/inkscape" xmlns:sodipodi="http://sodipodi.sourceforge.net/DTD/sodipodi-0.dtd" xmlns="http://www.w3.org/2000/svg" xmlns:svg="http://www.w3.org/2000/svg" xmlns:rdf="http://www.w3.org/1999/02/22-rdf-syntax-ns#" xmlns:cc="http://creativecommons.org/ns#" xmlns:dc="http://purl.org/dc/elements/1.1/" width="64" height="64" version="1.1" viewBox="0 0 16.933 16.933" id="svg7" sodipodi:docname="designer.svg" inkscape:version="1.4 (e7c3feb100, 2024-10-09)">
  <sodipodi:namedview id="namedview7" pagecolor="#9c4444" bordercolor="#000000" borderopacity="0.25" inkscape:showpageshadow="2" inkscape:pageopacity="0.0" inkscape:pagecheckerboard="0" inkscape:deskcolor="#d1d1d1" inkscape:zoom="6.15625" inkscape:cx="15.756345" inkscape:cy="29.563452" inkscape:window-width="1226" inkscape:window-height="669" inkscape:window-x="35" inkscape:window-y="32" inkscape:window-maximized="0" inkscape:current-layer="svg7" showgrid="false"/>
  <defs id="defs2">
    <style id="current-color-scheme" type="text/css">.ColorScheme-Text {color:#d8dee9} .ColorScheme-Highlight {color:#3b4252}</style></defs>
  <metadata id="metadata2">
    <rdf:RDF>
      <cc:Work rdf:about="">
        <dc:format>image/svg+xml</dc:format>
        <dc:type rdf:resource="http://purl.org/dc/dcmitype/StillImage"/>
      </cc:Work>
    </rdf:RDF>
  </metadata>
  <path style="fill:currentColor;stroke-width:0.329819" d="m 1.8700913,2.5297319 c 0.086138,0 0,0.0668 0,0 z m 0,0 v 1.9789226 c 0,-0.0668 0.086138,0 0,0 H 3.1893732 V 12.424345 H 1.8700913 c 0.086138,0 0,0.0668 0,0 v 1.978922 c 0,-0.0668 0.086138,0 0,0 h 4.6174862 c -0.086146,0 0,-0.0668 0,0 v -1.978922 c 0,0.0668 -0.086146,0 0,0 H 5.1682958 V 4.5086545 h 1.3192817 c -0.086146,0 0,-0.0668 0,0 V 2.5297319 c 0,0.0668 -0.086146,0 0,0 z m 5.9367679,0 c 0.1148512,0 0,0.1476661 0,0 z m 0,0 v 1.9789226 c 0,-0.1476661 0.1148512,0 0,0 h 4.6174858 c -0.114855,0 0,-0.1476661 0,0 V 2.5297319 c 0,0.1476661 -0.114855,0 0,0 z m 3.2982038,3.2982043 c 0.118127,0 0,0.1476661 0,0 z m 0,0 V 7.806859 c 0,-0.1476661 0.118127,0 0,0 h 3.957844 c -0.118123,0 0,-0.1476661 0,0 V 5.8279362 c 0,0.1476661 -0.118123,0 0,0 z m 0,3.2982043 c 0.118127,0 0,0.1476661 0,0 z m 0,0 v 1.9789235 c 0,-0.147666 0.118127,0 0,0 h 3.957844 c -0.118123,0 0,-0.147666 0,0 V 9.1261405 c 0,0.1476661 -0.118123,0 0,0 z M 7.8068592,12.424345 c 0.1148512,0 0,0.147668 0,0 z m 0,0 v 1.978922 c 0,-0.147668 0.1148512,0 0,0 h 4.6174858 c -0.114855,0 0,-0.147668 0,0 v -1.978922 c 0,0.147668 -0.114855,0 0,0 z" id="path3" class="ColorScheme-Text"/>
  <g id="g9" transform="matrix(0.46959567,0,0,0.46959567,4.7471229,3.7470598)" style="fill:#999999;fill-opacity:1;stroke:none;stroke-width:0.58349;stroke-dasharray:none;stroke-opacity:0.3"/>
  </svg>
