<?xml version='1.0' encoding='UTF-8'?>
<svg xmlns:inkscape="http://www.inkscape.org/namespaces/inkscape" xmlns:sodipodi="http://sodipodi.sourceforge.net/DTD/sodipodi-0.dtd" xmlns="http://www.w3.org/2000/svg" xmlns:svg="http://www.w3.org/2000/svg" xmlns:rdf="http://www.w3.org/1999/02/22-rdf-syntax-ns#" xmlns:cc="http://creativecommons.org/ns#" xmlns:dc="http://purl.org/dc/elements/1.1/" width="64" height="64" version="1.1" viewBox="0 0 16.933 16.933" id="svg7" sodipodi:docname="digikam.svg" inkscape:version="1.4 (e7c3feb100, 2024-10-09)">
  <sodipodi:namedview id="namedview7" pagecolor="#9c4444" bordercolor="#000000" borderopacity="0.25" inkscape:showpageshadow="2" inkscape:pageopacity="0.0" inkscape:pagecheckerboard="0" inkscape:deskcolor="#d1d1d1" inkscape:zoom="6.15625" inkscape:cx="41.42132" inkscape:cy="33.949239" inkscape:window-width="1226" inkscape:window-height="669" inkscape:window-x="80" inkscape:window-y="144" inkscape:window-maximized="0" inkscape:current-layer="svg7" showgrid="false"/>
  <defs id="defs2">
    <style id="current-color-scheme" type="text/css">.ColorScheme-Text {color:#d8dee9} .ColorScheme-Highlight {color:#3b4252}</style></defs>
  <metadata id="metadata2">
    <rdf:RDF>
      <cc:Work rdf:about="">
        <dc:format>image/svg+xml</dc:format>
        <dc:type rdf:resource="http://purl.org/dc/dcmitype/StillImage"/>
      </cc:Work>
    </rdf:RDF>
  </metadata>
  <path style="fill:currentColor;stroke-width:0.468717" d="M 8.5458733,0.6306109 C 6.6652409,0.6338909 4.8463708,1.3022059 3.4110497,2.5173773 L 6.1107458,7.1926389 9.8330121,0.74504401 C 9.4077717,0.67211533 8.9773101,0.63384512 8.5458733,0.6306109 Z M 11.244654,1.1121437 8.5458733,5.78649 H 15.996814 C 15.171895,3.6088292 13.435637,1.9010037 11.244654,1.1121437 Z M 2.3857329,3.552764 C 1.2184221,4.9755108 0.57957636,6.7584568 0.57769656,8.5987875 0.5787276,9.070373 0.6216155,9.5409366 0.70586251,10.004937 H 6.1107465 Z M 10.981,7.1926389 14.706013,13.644813 c 1.167313,-1.422747 1.806159,-3.205695 1.808038,-5.0460253 -10e-4,-0.4715851 -0.04392,-0.9421488 -0.128162,-1.4061488 z m 0,2.8122981 -3.7222659,6.447596 c 0.4252403,0.07294 0.855702,0.111224 1.2871392,0.114442 1.8806327,-0.0033 3.6995027,-0.671595 5.1348237,-1.886765 z m -9.8860676,1.406151 c 0.8249222,2.177659 2.5611776,3.885486 4.7521605,4.674346 l 2.6987804,-4.674346 z" id="path3" class="ColorScheme-Text"/>
</svg>
