<?xml version='1.0' encoding='UTF-8'?>
<svg xmlns:inkscape="http://www.inkscape.org/namespaces/inkscape" xmlns:sodipodi="http://sodipodi.sourceforge.net/DTD/sodipodi-0.dtd" xmlns="http://www.w3.org/2000/svg" xmlns:svg="http://www.w3.org/2000/svg" xmlns:rdf="http://www.w3.org/1999/02/22-rdf-syntax-ns#" xmlns:cc="http://creativecommons.org/ns#" xmlns:dc="http://purl.org/dc/elements/1.1/" width="64" height="64" version="1.1" viewBox="0 0 16.933 16.933" id="svg7" sodipodi:docname="display-im6.Q16.svg" inkscape:version="1.4 (e7c3feb100, 2024-10-09)">
  <sodipodi:namedview id="namedview7" pagecolor="#9c4444" bordercolor="#000000" borderopacity="0.25" inkscape:showpageshadow="2" inkscape:pageopacity="0.0" inkscape:pagecheckerboard="0" inkscape:deskcolor="#d1d1d1" inkscape:zoom="6.15625" inkscape:cx="15.837563" inkscape:cy="27.28934" inkscape:window-width="1183" inkscape:window-height="941" inkscape:window-x="35" inkscape:window-y="32" inkscape:window-maximized="0" inkscape:current-layer="svg7" showgrid="false"/>
  <defs id="defs2">
    <style id="current-color-scheme" type="text/css">.ColorScheme-Text {color:#d8dee9} .ColorScheme-Highlight {color:#3b4252}</style></defs>
  <metadata id="metadata2">
    <rdf:RDF>
      <cc:Work rdf:about="">
        <dc:format>image/svg+xml</dc:format>
        <dc:type rdf:resource="http://purl.org/dc/dcmitype/StillImage"/>
      </cc:Work>
    </rdf:RDF>
  </metadata>
  <path style="fill:currentColor;fill-opacity:1;stroke:none;stroke-width:0.430255;stroke-dasharray:none;stroke-dashoffset:2.2;stroke-opacity:0.3" d="M 6.134099,15.608899 C 5.3820015,15.492342 4.5724879,15.186605 3.98911,14.798775 3.3655511,14.384233 2.6987048,13.565082 2.5292321,13.005458 2.4673059,12.800969 2.6437276,12.553935 3.1257329,12.170209 3.3781751,11.969238 3.6418757,11.72987 3.7117313,11.638285 3.8073186,11.512965 3.9058366,11.200011 4.1099285,10.373377 4.5156158,8.7302179 4.9797924,7.3816782 5.7261774,5.6778008 6.5952708,3.6938005 7.1822302,2.8003202 8.0241155,2.1798419 8.6699304,1.7038702 9.2086819,1.5102827 10.112336,1.4294892 c 1.476609,-0.1320196 2.105097,-0.00984 2.852574,0.5545034 0.69583,0.5253564 1.515431,2.1115429 1.576673,3.0513603 0.04072,0.6251469 -0.09483,0.652953 -0.461844,0.094742 -0.246723,-0.3752356 -0.469589,-0.588932 -0.614205,-0.588932 -0.278504,0 -0.717374,0.5044485 -1.005323,1.1555448 -0.204352,0.4620848 -0.455145,1.2238862 -0.572819,1.7400111 -0.198071,0.8687435 -0.138282,1.9781181 0.207525,3.8501492 0.182685,0.988945 0.16644,0.94115 0.34504,1.01513 0.24522,0.101574 0.671542,0.542158 0.728189,0.752549 0.135337,0.502614 -0.324118,1.062993 -1.238236,1.510253 -0.785421,0.384292 -1.718788,0.660605 -3.1271798,0.925759 -0.7653993,0.144096 -2.1159451,0.20399 -2.6686312,0.118351 z m 3.1503944,-3.214895 0.5311809,-0.448782 0.5278287,0.176757 c 0.290306,0.0972 0.533043,0.171475 0.539414,0.165015 0.0062,-0.0065 -0.05271,-0.278601 -0.13128,-0.604768 -0.07859,-0.326171 -0.143368,-0.632094 -0.143987,-0.679831 -5.42e-4,-0.04772 0.133053,-0.323129 0.297032,-0.611977 C 11.068669,10.101567 11.190317,9.8527143 11.175014,9.83741 11.159774,9.822112 10.886396,9.800283 10.567646,9.788924 L 9.9881058,9.768265 9.6267413,9.2254983 C 9.4279898,8.9269767 9.2515265,8.6965816 9.2346003,8.7135079 9.2176713,8.7304369 9.1357946,9.0245423 9.0526449,9.3670804 L 8.9014656,9.9898755 8.372405,10.220287 c -0.2909844,0.126726 -0.5455715,0.246921 -0.5657495,0.2671 -0.020182,0.02018 0.1821131,0.256311 0.4495381,0.524744 l 0.4862268,0.488056 -0.035593,0.671694 c -0.019572,0.369432 -0.017119,0.671517 0.00545,0.671302 0.022568,-2.13e-4 0.2800731,-0.202342 0.572223,-0.449175 z M 7.1980276,11.223785 c 0.041547,-0.356451 0.086027,-0.656029 0.098839,-0.665729 0.01281,-0.0097 0.2289515,-0.168787 0.4803124,-0.353526 C 8.0285402,10.019792 8.2233808,9.85114 8.2101601,9.8297465 8.1969397,9.8083558 7.9549317,9.6540214 7.6723694,9.4867865 L 7.1586195,9.1827242 7.0170024,8.5175068 C 6.9391129,8.1516375 6.8603619,7.852279 6.8420006,7.8522655 6.8236392,7.852252 6.6459132,8.0767364 6.447056,8.3511181 L 6.0854963,8.849996 5.7144443,8.8193609 C 5.5103659,8.8025123 5.2372339,8.7760027 5.1074829,8.7604577 L 4.8715713,8.7321933 4.9769738,8.9964426 c 0.057973,0.1453367 0.1779065,0.4503428 0.2665213,0.6777933 L 5.4046132,10.087778 5.164705,10.708649 c -0.1319493,0.341479 -0.2307434,0.630036 -0.2195403,0.641242 0.01121,0.01102 0.3098609,-0.04492 0.6636839,-0.124689 l 0.6433138,-0.145082 0.3857395,0.409309 c 0.2121574,0.225122 0.4079782,0.403271 0.4351583,0.395882 0.027181,-0.0074 0.083418,-0.305067 0.1249687,-0.661517 z M 10.507688,8.4987183 V 7.810878 L 10.964815,7.3817789 C 11.216237,7.1457733 11.399704,6.9430971 11.37252,6.9313845 11.345343,6.9196573 11.080232,6.8048325 10.783385,6.6761837 L 10.243663,6.4422766 10.04084,5.8339523 C 9.9292859,5.499375 9.8168498,5.224491 9.7909806,5.2231 9.7651126,5.2217577 9.6187294,5.4463035 9.465689,5.7221979 9.3126468,5.9980931 9.1731447,6.2381129 9.1556814,6.2555752 9.1382204,6.2730362 8.8762328,6.3052279 8.5734902,6.3271026 8.2707474,6.3489792 8.0121109,6.3778174 7.9987417,6.3911877 7.9767777,6.4131498 8.1869139,6.8412711 8.4905592,7.3931919 L 8.6050513,7.6013013 8.4376328,8.2471011 c -0.092082,0.3551896 -0.1545574,0.6586601 -0.1388406,0.6743782 0.015732,0.015732 0.2919582,-0.07388 0.613867,-0.1991058 0.3219085,-0.1252271 0.5968996,-0.2276846 0.6110887,-0.2276846 0.014212,0 0.2247038,0.1546182 0.4678071,0.3435926 0.243103,0.1889759 0.458684,0.3446454 0.479068,0.3459338 0.02038,0.00131 0.03707,-0.3071867 0.03706,-0.685497 z" id="path92" class="ColorScheme-Text"/>
</svg>
