<?xml version='1.0' encoding='UTF-8'?>
<svg xmlns:inkscape="http://www.inkscape.org/namespaces/inkscape" xmlns:sodipodi="http://sodipodi.sourceforge.net/DTD/sodipodi-0.dtd" xmlns="http://www.w3.org/2000/svg" xmlns:svg="http://www.w3.org/2000/svg" xmlns:rdf="http://www.w3.org/1999/02/22-rdf-syntax-ns#" xmlns:cc="http://creativecommons.org/ns#" xmlns:dc="http://purl.org/dc/elements/1.1/" width="64" height="64" version="1.1" viewBox="0 0 16.933 16.933" id="svg7" sodipodi:docname="endeavouros-icon.svg" inkscape:version="1.4.2 (ebf0e940d0, 2025-05-08)">
  <sodipodi:namedview id="namedview7" pagecolor="#9c4444" bordercolor="#000000" borderopacity="0.25" inkscape:showpageshadow="2" inkscape:pageopacity="0.0" inkscape:pagecheckerboard="0" inkscape:deskcolor="#d1d1d1" inkscape:zoom="4.3531261" inkscape:cx="36.295755" inkscape:cy="40.660435" inkscape:window-width="2560" inkscape:window-height="1376" inkscape:window-x="0" inkscape:window-y="0" inkscape:window-maximized="1" inkscape:current-layer="svg7" showgrid="false"/>
  <defs id="defs2">
    <style id="current-color-scheme" type="text/css">.ColorScheme-Text {color:#d8dee9} .ColorScheme-Highlight {color:#3b4252}</style>
    </defs>
  <metadata id="metadata2">
    <rdf:RDF>
      <cc:Work rdf:about="">
        <dc:format>image/svg+xml</dc:format>
        <dc:type rdf:resource="http://purl.org/dc/dcmitype/StillImage"/>
      </cc:Work>
    </rdf:RDF>
  </metadata>
  <path id="path3195-6" style="color:none;opacity:1;fill:currentColor;fill-opacity:1;stroke-width:0.585391" class="ColorScheme-Text" d="M -126.21339 -41.503623 L -126.21339 -41.501986 L -126.21175 -41.501986 L -126.21175 -41.503623 L -126.21339 -41.503623 z M -126.21503 -41.500349 C -126.21729 -41.49799 -126.21903 -41.493574 -126.22158 -41.490525 L -126.21994 -41.490525 L -126.2183 -41.492162 L -126.21667 -41.4938 L -126.21503 -41.495437 L -126.21339 -41.498711 L -126.21339 -41.500349 L -126.21503 -41.500349 z M -126.74224 -40.850336 C -126.75472 -40.833729 -126.76877 -40.816682 -126.78154 -40.799579 C -128.41511 -38.612156 -132.3044 -32.565551 -136.32543 -26.173473 C -139.3412 -21.379415 -142.45062 -16.368044 -144.80343 -12.555951 C -146.68814 -9.5022887 -147.06081 -8.8948728 -147.95689 -7.4311647 C -147.58051 -7.3936425 -147.09498 -7.3459206 -146.24099 -7.2625216 C -144.24944 -7.0680315 -141.50711 -6.8103544 -138.51288 -6.5568402 C -132.5244 -6.0498118 -125.49463 -5.5628051 -121.50776 -5.6301217 C -117.05333 -5.7053331 -114.64218 -6.8949064 -113.42107 -8.6149412 C -112.19997 -10.334976 -112.04477 -12.838566 -112.72194 -15.851859 C -113.53455 -19.467811 -115.52853 -23.691701 -117.84509 -27.692898 C -120.9554 -33.065079 -124.62785 -38.042968 -126.74224 -40.850336 z M -131.16953 -36.837285 C -137.53902 -29.583814 -143.65876 -22.095247 -149.83653 -14.636974 C -151.59585 -12.50598 -153.34538 -10.362173 -155.09885 -8.2187117 C -153.37293 -7.828062 -151.60774 -7.5380189 -149.82343 -7.2674335 C -148.70975 -8.6242918 -147.80072 -10.270874 -146.70762 -11.901026 C -141.4876 -20.138904 -136.44093 -28.569755 -131.16953 -36.837285 z M -120.58922 -34.849588 C -116.36382 -28.56213 -111.49044 -20.267675 -110.86196 -13.937842 C -110.61352 -11.435728 -111.00966 -9.1606974 -112.43541 -7.411517 C -113.2209 -6.4478392 -114.29519 -5.6807655 -115.68384 -5.1291043 C -115.68943 -5.1265353 -115.69623 -5.1234748 -115.70185 -5.1209178 C -116.92853 -4.5627285 -118.87652 -4.2915683 -121.05258 -4.1860127 C -129.90274 -3.7567118 -145.75882 -5.9400497 -148.92127 -6.0640094 C -148.96606 -6.0657653 -149.00801 -6.0679452 -149.04734 -6.0689213 C -149.07809 -6.0696843 -149.10694 -6.0702665 -149.13412 -6.0705586 C -149.0478 -6.1142816 -148.96277 -6.2166688 -148.93764 -6.4373165 L -149.02114 -6.2981449 C -149.06848 -6.2203409 -149.11517 -6.1447493 -149.16032 -6.0705586 C -149.18245 -6.0706762 -149.20326 -6.0707618 -149.22253 -6.0705586 C -149.24359 -6.0703366 -149.26418 -6.0694778 -149.28148 -6.0689213 C -149.29548 -6.0684706 -149.3079 -6.0662559 -149.31913 -6.0656467 C -149.32925 -6.0650983 -149.33778 -6.0662427 -149.34533 -6.0656467 L -149.34697 -6.0640094 L -149.35024 -6.0640094 L -149.35188 -6.0640094 L -149.35188 -6.062372 L -149.35188 -6.0607347 L -149.35024 -6.0607347 C -149.33508 -6.0490482 -149.25503 -6.0257744 -149.17014 -6.0541855 C -150.76486 -3.4332221 -151.01258 -3.0268951 -152.04853 -1.3141678 C -151.57754 -1.296815 -151.07492 -1.28278 -149.8005 -1.2503127 C -148.39796 -1.2145811 -146.61016 -1.1804957 -144.53982 -1.1635351 C -139.36398 -1.1211336 -132.43566 -1.191073 -125.44222 -1.6383556 C -121.9455 -1.8619968 -118.43267 -2.1809891 -115.11569 -2.6256546 C -112.8021 -2.9358091 -111.03266 -3.5061661 -109.7273 -4.2613291 C -108.42193 -5.0164921 -107.57594 -5.9433284 -107.05684 -7.0251114 C -106.01864 -9.1886774 -106.30435 -12.092832 -107.52675 -15.367215 C -108.99364 -19.296474 -111.77476 -23.69236 -114.8439 -27.7895 C -116.73084 -30.308471 -118.72544 -32.715378 -120.58922 -34.849588 z " transform="matrix(0.31561133,0,0,0.31561133,49.735901,15.198069)"/>
</svg>
