<?xml version='1.0' encoding='UTF-8'?>
<svg xmlns:inkscape="http://www.inkscape.org/namespaces/inkscape" xmlns:sodipodi="http://sodipodi.sourceforge.net/DTD/sodipodi-0.dtd" xmlns="http://www.w3.org/2000/svg" xmlns:svg="http://www.w3.org/2000/svg" xmlns:rdf="http://www.w3.org/1999/02/22-rdf-syntax-ns#" xmlns:cc="http://creativecommons.org/ns#" xmlns:dc="http://purl.org/dc/elements/1.1/" width="64" height="64" version="1.1" viewBox="0 0 16.933 16.933" id="svg7" sodipodi:docname="fr.handbrake.ghb.svg" inkscape:version="1.4 (e7c3feb100, 2024-10-09)">
  <sodipodi:namedview id="namedview7" pagecolor="#9c4444" bordercolor="#000000" borderopacity="0.25" inkscape:showpageshadow="2" inkscape:pageopacity="0.0" inkscape:pagecheckerboard="0" inkscape:deskcolor="#d1d1d1" inkscape:zoom="6.15625" inkscape:cx="15.837563" inkscape:cy="29.725888" inkscape:window-width="1183" inkscape:window-height="941" inkscape:window-x="35" inkscape:window-y="32" inkscape:window-maximized="0" inkscape:current-layer="svg7" showgrid="false"/>
  <defs id="defs2">
    <style id="current-color-scheme" type="text/css">.ColorScheme-Text {color:#d8dee9} .ColorScheme-Highlight {color:#3b4252}</style></defs>
  <metadata id="metadata2">
    <rdf:RDF>
      <cc:Work rdf:about="">
        <dc:format>image/svg+xml</dc:format>
        <dc:type rdf:resource="http://purl.org/dc/dcmitype/StillImage"/>
      </cc:Work>
    </rdf:RDF>
  </metadata>
  <path id="path11" style="fill:currentColor;stroke:none;stroke-width:0.0189743;stroke-dasharray:none" d="m 14.400843,1.6115894 c -0.16986,0.0054 -0.472501,0.058814 -0.669193,0.1258541 -0.608749,0.2074868 -1.318511,0.785107 -1.760559,1.4332422 -0.08318,0.1219344 -0.118275,0.1597558 -0.131955,0.142291 -0.01026,-0.013091 -0.05502,-0.087503 -0.100035,-0.1657712 C 11.459117,2.6603273 10.987091,2.1985288 10.456138,1.891945 10.291417,1.7968314 10.033955,1.6773391 10.021282,1.6900138 c -0.0035,0.00351 0.0404,0.074197 0.09721,0.1568488 0.327649,0.4767495 0.58955,1.2218288 0.72695,2.0686214 0.02032,0.1252309 0.04277,0.2983638 0.05023,0.384609 L 10.909222,4.4569418 10.65567,4.3329649 C 10.293957,4.1563827 9.8984517,4.038991 9.6662575,4.038991 h -0.076074 l 0.1554409,0.1620149 c 0.1070669,0.1115243 0.230428,0.2759013 0.3944706,0.5264302 0.131212,0.2003897 0.290398,0.431402 0.353613,0.5132812 l 0.114585,0.148865 0.07703,-0.012217 c 0.293648,-0.047211 0.788473,-0.0678 0.788473,-0.032874 0,0.00838 0.08409,0.025678 0.186903,0.038509 0.10279,0.012825 0.267256,0.045235 0.365357,0.072322 0.09812,0.027084 0.206929,0.052316 0.242319,0.055883 0.07944,0.00802 0.477496,0.2002845 0.656982,0.3174546 0.07306,0.047686 0.13756,0.080552 0.143697,0.07326 0.0061,-0.0073 0.05103,-0.065784 0.09956,-0.1300816 0.340548,-0.4510378 0.961443,-0.6878545 2.005223,-0.7649907 0.327125,-0.024176 0.379442,-0.033184 0.379442,-0.066215 0,-0.047441 -0.445837,-0.4128484 -0.718027,-0.5884182 -0.189145,-0.121999 -0.462384,-0.2486243 -0.610962,-0.2836431 -0.258754,-0.060988 -0.566596,-0.024987 -0.815239,0.0958 -0.114,0.055383 -0.177764,0.1052201 -0.320741,0.2512401 l -0.178448,0.1826774 0.01159,-0.3132281 c 0.025,-0.673331 0.215268,-1.1779901 0.653693,-1.7337918 0.142196,-0.180253 0.493014,-0.5252938 0.677175,-0.6659035 0.082,-0.062613 0.182742,-0.1431859 0.223532,-0.1789211 0.06477,-0.056764 0.07,-0.067338 0.0418,-0.083119 -0.01824,-0.010184 -0.06031,-0.013528 -0.116926,-0.011742 z m -5.0928959,2.534942 c -0.015637,-0.00855 -7.7171694,0.016739 -7.7245758,0.025359 -0.0045,0.00521 0.7908498,1.4095365 1.7676031,3.1210116 l 1.776056,3.11162 0.00469,2.035281 0.00517,2.034807 H 4.5292189 3.9220162 v 0.351268 0.350797 h 1.55581 1.5558097 V 14.825878 14.47461 H 6.4264333 5.8192308 V 12.464222 10.453831 L 7.5671103,7.3022942 C 8.5282886,5.568829 9.3116364,4.1485509 9.3079471,4.1465314 Z m -3.8582965,0.708168 h 2.7040007 l -0.049778,0.099556 C 7.9724835,5.2148569 6.7912428,7.282254 6.3874573,7.9583361 6.0690107,8.4915299 5.7965058,8.8303855 5.6196489,8.9135181 5.2873326,9.0697251 5.0008958,8.814378 4.4395247,7.8620669 3.7968193,6.7717798 2.7456502,4.9176166 2.7456502,4.8744233 c 0,-0.01349 0.848592,-0.019724 2.7040004,-0.019724 z m 6.0612284,0.544745 c -0.04397,4.326e-4 -0.04773,0.011837 -0.05918,0.055414 -0.02462,0.093723 -0.153596,0.1944631 -0.500604,0.3921222 -0.309803,0.1764722 -0.327753,0.1840251 -0.436252,0.1836162 -0.183716,-6.732e-4 -0.253177,-0.043658 -0.366764,-0.228229 -0.05303,-0.08618 -0.09904,-0.1646977 -0.102373,-0.1746936 -0.0049,-0.015143 -0.2986705,0.091979 -0.2986705,0.1089479 0,0.00304 0.038203,0.072892 0.084998,0.1549697 C 9.9812207,6.1533089 9.9879163,6.32623 9.8541012,6.4584088 9.7327655,6.5782625 9.1513497,6.9084977 9.0172608,6.9336526 8.8705496,6.961175 8.7354146,6.8839207 8.6260778,6.7096498 8.5917205,6.6548888 8.560542,6.6062478 8.5570451,6.6016411 c -0.01038,-0.013663 -0.214141,0.1945497 -0.214141,0.2188374 0,0.012255 0.016929,0.059702 0.037569,0.1051916 0.044055,0.09709 0.049012,0.2381109 0.011742,0.3273166 C 8.356643,7.3381219 8.2595796,7.4131852 7.91932,7.616463 L 7.6319119,7.7878677 7.5422167,7.9578664 C 7.492735,8.0513711 7.404556,8.2331441 7.3463909,8.3617293 L 7.24073,8.5955934 7.293797,8.6500683 c 0.063243,0.064876 0.2625365,0.3930817 0.3916531,0.6447711 0.085593,0.1668428 0.091876,0.1876554 0.082183,0.2817647 -0.00642,0.062075 -0.028568,0.1287535 -0.056823,0.1709373 -0.051532,0.076935 -0.2861284,0.2294808 -0.6419536,0.4179506 -0.1575005,0.08342 -0.2239385,0.129175 -0.231986,0.159195 -0.00623,0.02315 -0.01159,0.262051 -0.011742,0.531127 v 0.489329 l 0.1366556,0.24138 c 0.1263557,0.22261 0.1376702,0.251408 0.1446394,0.370521 0.00694,0.118902 0.00298,0.136705 -0.053067,0.22682 l -0.061049,0.09768 0.031933,0.118351 c 0.043668,0.161329 0.063183,0.185098 0.1300835,0.159657 0.073851,-0.02808 0.2103876,-0.02529 0.2855214,0.0061 0.078022,0.03259 0.1216969,0.08951 0.3019579,0.392593 0.2675485,0.449821 0.3009351,0.550086 0.2333948,0.705822 -0.028996,0.06686 -0.1159703,0.166364 -0.1728164,0.198173 -0.034696,0.01942 -0.033915,0.02301 0.013623,0.08408 0.1384853,0.177935 0.156769,0.193382 0.1995836,0.170468 0.05571,-0.02983 0.2393246,-0.02696 0.3151063,0.0047 0.085922,0.03591 0.150309,0.119624 0.3151068,0.411844 l 0.1413524,0.251241 0.1620149,0.07515 c 0.201662,0.09357 0.3618353,0.154318 0.5593026,0.212732 0.2267652,0.06711 0.2574263,0.06352 0.4757127,-0.05871 0.482764,-0.270313 0.500529,-0.278162 0.628335,-0.270024 0.144615,0.0093 0.216898,0.05972 0.32215,0.223065 0.04072,0.06319 0.08386,0.114969 0.09579,0.115045 0.03251,2.4e-4 0.272371,-0.07585 0.272371,-0.08641 2e-6,-0.0051 -0.03483,-0.07856 -0.07748,-0.163419 -0.147676,-0.293721 -0.116486,-0.44555 0.124915,-0.605794 0.07306,-0.04849 0.246314,-0.150157 0.384609,-0.225881 0.426471,-0.233495 0.561207,-0.208981 0.767808,0.138073 0.04205,0.07062 0.08318,0.132411 0.09156,0.137598 0.0084,0.0051 0.06684,-0.03331 0.130074,-0.08596 l 0.115045,-0.0958 -0.08499,-0.161538 c -0.06798,-0.128877 -0.08548,-0.180861 -0.08548,-0.256405 0,-0.202043 0.04436,-0.247177 0.515629,-0.528309 l 0.320276,-0.191132 h 0.137598 0.137598 l 0.107065,-0.194416 c 0.09504,-0.172482 0.280732,-0.536311 0.280823,-0.549909 1.9e-5,-0.0029 -0.04993,-0.0027 -0.111283,9.1e-4 -0.215279,0.01216 -0.298765,-0.07514 -0.612368,-0.641957 -0.114475,-0.206908 -0.120688,-0.224567 -0.120688,-0.344691 0,-0.198348 0.05652,-0.253405 0.548032,-0.534412 0.382463,-0.218667 0.49222,-0.234284 0.655103,-0.09486 0.0449,0.03843 0.08708,0.06104 0.0958,0.05166 0.01993,-0.02148 0.0772,-0.564973 0.07703,-0.7311794 V 9.791203 L 14.626711,9.778986 C 14.471006,9.7525418 14.405787,9.680205 14.168838,9.2683829 13.956097,8.8986356 13.936335,8.8371271 13.979579,8.6813733 c 0.02738,-0.098589 0.129922,-0.1922411 0.346573,-0.3165153 0.112005,-0.06425 0.182267,-0.1165023 0.182666,-0.135717 3.63e-4,-0.017157 -0.01653,-0.08786 -0.03804,-0.1573181 l -0.03944,-0.1263253 -0.155439,0.084058 C 13.88433,8.2418174 13.826741,8.2624355 13.707712,8.2307058 13.597673,8.201374 13.513076,8.1127954 13.376637,7.883196 13.173496,7.5413516 13.086421,7.3485305 13.086421,7.2412428 c 0,-0.1712603 0.06863,-0.245636 0.424994,-0.4606852 0.121049,-0.073051 0.220208,-0.1375619 0.220246,-0.1437008 3.6e-5,-0.00614 -0.04545,-0.061482 -0.100966,-0.1225671 L 13.529729,6.4034608 13.371934,6.4945639 C 12.844817,6.7986059 12.757157,6.7791957 12.467939,6.2926363 12.248048,5.9227114 12.211688,5.8340455 12.216227,5.680268 l 0.0038,-0.1328974 -0.08831,-0.032874 c -0.111853,-0.04153 -0.426755,-0.1046596 -0.561651,-0.1127061 -0.02529,-0.00152 -0.04452,-0.00249 -0.05919,-0.00236 z m 0.192534,0.4780605 c 0.136667,0.010811 0.226621,0.126692 0.361601,0.3545537 0.215245,0.3633581 0.300549,0.5433985 0.300549,0.6339703 0,0.09408 -0.03796,0.189582 -0.09768,0.2456047 -0.05478,0.05138 -0.518681,0.3367676 -0.677646,0.4170116 -0.176567,0.089129 -0.348301,0.074222 -0.451759,-0.038977 -0.11366,-0.1243797 -0.419972,-0.6746275 -0.461151,-0.828857 -0.01801,-0.067466 -0.01642,-0.098412 0.0089,-0.1746941 0.03845,-0.1157516 0.09989,-0.17034 0.374277,-0.3334211 0.322529,-0.1916893 0.506227,-0.2859953 0.64289,-0.2751902 z m 1.846031,0.0803 c -0.03804,-7.67e-5 -0.07942,0.00105 -0.123956,0.00331 -0.124222,0.00623 -0.233729,0.016359 -0.243729,0.022542 -0.01007,0.00617 0.03923,0.060593 0.109421,0.1211592 0.128839,0.1111842 0.219405,0.2068249 0.351267,0.3691115 0.03965,0.048805 0.07946,0.088757 0.08831,0.088757 0.03834,0 0.135109,-0.1421257 0.163419,-0.2394999 0.03553,-0.1222346 0.02428,-0.2525032 -0.02584,-0.2977312 -0.0498,-0.044962 -0.154014,-0.06729 -0.318864,-0.067623 z M 10.148545,6.772577 c 0.149798,0.00361 0.225938,0.078261 0.378503,0.3348301 0.205902,0.3462598 0.301489,0.5496773 0.301489,0.6414843 0,0.1161394 -0.03609,0.1948579 -0.127733,0.2775381 C 10.614373,8.104417 10.260723,8.319175 10.060728,8.415264 9.8424221,8.5201509 9.6899387,8.4979418 9.5746839,8.344354 9.5005803,8.2456028 9.3343241,7.9628034 9.2318704,7.7615706 9.1635733,7.6274279 9.1398275,7.5598035 9.1398275,7.4981209 c 0,-0.191007 0.083742,-0.2754612 0.5315957,-0.5358226 0.2593316,-0.1507631 0.323304,-0.1803822 0.4076198,-0.1873742 0.02483,-0.00207 0.0481,-0.00285 0.0695,-0.00236 z m 2.357899,0.6466496 c 0.01653,-8.417e-4 0.03392,-5.28e-5 0.05402,0.00186 0.14573,0.014003 0.229545,0.086091 0.369113,0.3179241 0.06589,0.1094267 0.162127,0.2814037 0.214142,0.382261 0.08122,0.1574644 0.09487,0.1989194 0.09487,0.2925655 0,0.1871652 -0.04315,0.2369001 -0.382731,0.4395528 -0.15998,0.095475 -0.338013,0.1950285 -0.39541,0.2216546 -0.129219,0.059949 -0.263287,0.064119 -0.37005,0.011286 C 12.000758,9.0419636 11.955137,8.9759748 11.72692,8.5622479 11.593863,8.3210159 11.560138,8.2440311 11.55364,8.1654296 11.54394,8.0475973 11.59331,7.9361694 11.687001,7.864881 c 0.1007,-0.076619 0.454397,-0.2887145 0.623641,-0.3738079 0.102429,-0.051515 0.1463,-0.069303 0.195825,-0.071848 z m -3.9061956,0.244196 c 0.1522147,-5.772e-4 0.2436036,0.083423 0.3949399,0.3390568 0.2610095,0.4408891 0.2963223,0.5171982 0.2963223,0.6400752 0,0.1967684 -0.043936,0.2549733 -0.3221509,0.4207687 C 8.8389124,9.1410599 8.6609629,9.2416293 8.5744196,9.2873257 8.392788,9.3832306 8.2715135,9.3961784 8.1508338,9.3324081 8.0600547,9.2844384 7.8769017,9.0041426 7.6769995,8.6073339 7.5427248,8.3407966 7.5840384,8.2166783 7.8723565,8.0236117 8.1415307,7.843364 8.4442808,7.6801846 8.5307466,7.6685882 c 0.024563,-0.00331 0.047757,-0.00507 0.069502,-0.00517 z m 2.4119056,0.6508762 c 0.0872,5.768e-4 0.168661,0.037039 0.233863,0.1061302 0.07143,0.075694 0.260841,0.3854728 0.395411,0.6466496 0.07554,0.146623 0.0821,0.1702286 0.07279,0.261102 -0.0055,0.054977 -0.02827,0.1292798 -0.05024,0.1648326 -0.0425,0.068786 -0.244603,0.2064246 -0.588418,0.4005749 -0.184125,0.1039756 -0.209041,0.1126449 -0.332012,0.1174029 -0.160499,0.0062 -0.207955,-0.016131 -0.299153,-0.1418217 -0.07283,-0.1003935 -0.26138,-0.4246696 -0.353143,-0.607202 -0.1066677,-0.2121829 -0.07442,-0.4079718 0.08688,-0.5250213 0.146528,-0.1063373 0.656904,-0.3877212 0.745267,-0.4109067 0.03,-0.00787 0.05968,-0.011932 0.08875,-0.011742 z m 2.437732,0.6588596 c 0.162241,0.00422 0.23199,0.08743 0.442371,0.4508234 0.214229,0.3700296 0.243967,0.4417029 0.233865,0.5635288 -0.01064,0.1292414 -0.06454,0.2017064 -0.235744,0.3160464 -0.177707,0.11867 -0.53325,0.321686 -0.614246,0.350797 -0.146946,0.0528 -0.315002,0.0071 -0.403864,-0.109889 -0.068,-0.08955 -0.263056,-0.422405 -0.354084,-0.6034468 -0.08854,-0.1760787 -0.100206,-0.2989223 -0.04039,-0.4306299 0.03796,-0.083611 0.120384,-0.1412859 0.581372,-0.4071502 0.172843,-0.099684 0.225393,-0.1207203 0.31464,-0.1272658 0.02763,-0.00201 0.05292,-0.00344 0.0761,-0.00281 z m -4.0916911,0.2291685 0.142291,0.015979 c 0.136534,0.015371 0.1450802,0.019646 0.2178979,0.1004967 0.082544,0.091646 0.2077357,0.29448 0.3644162,0.5921749 0.07778,0.1477895 0.100035,0.2092825 0.100025,0.2756595 -1.3e-5,0.120751 -0.05735,0.233467 -0.154502,0.304306 -0.1152274,0.08402 -0.4774033,0.29803 -0.6133071,0.362537 -0.083459,0.03961 -0.1418616,0.05406 -0.2183674,0.05355 C 8.9991325,10.90563 8.9706563,10.87829 8.7303291,10.468863 8.4789416,10.040595 8.4479062,9.9261364 8.5373208,9.75036 8.5764931,9.673353 8.6124601,9.6471406 8.9693597,9.4343137 Z m 2.5377601,0.6616776 c 0.164388,0 0.23461,0.06046 0.407621,0.3507965 0.196066,0.329034 0.289748,0.533368 0.289748,0.633032 0,0.139171 -0.05953,0.235441 -0.205221,0.33107 -0.135527,0.08896 -0.47367,0.28556 -0.605323,0.352208 -0.105716,0.05352 -0.223963,0.05214 -0.329665,-0.0038 -0.09126,-0.04824 -0.181775,-0.178139 -0.417481,-0.60012 -0.115672,-0.207097 -0.121626,-0.223945 -0.121626,-0.344693 0,-0.184758 0.05268,-0.251591 0.332012,-0.419829 0.350127,-0.2108788 0.541495,-0.29867 0.649935,-0.29867 z M 7.9705046,10.113835 c 0.080702,0.0051 0.1357474,0.02016 0.1746936,0.0479 0.057371,0.04084 0.3594033,0.525836 0.4527018,0.726952 0.062305,0.134309 0.064408,0.264297 0.0061,0.379913 -0.036465,0.0723 -0.073445,0.10349 -0.2517097,0.212267 -0.1147885,0.07005 -0.2861829,0.170639 -0.3813156,0.223527 -0.2505911,0.139346 -0.4115268,0.143545 -0.540982,0.01425 -0.063145,-0.06331 -0.1992213,-0.28759 -0.3611258,-0.594682 -0.1243959,-0.235949 -0.1377316,-0.316989 -0.074198,-0.456928 0.041775,-0.09201 0.1112471,-0.146598 0.421238,-0.330605 0.3386446,-0.201018 0.4143395,-0.231527 0.5546026,-0.222595 z m 2.3748064,0.643363 c 0.0594,-0.0025 0.11557,0.01037 0.171874,0.03758 0.08999,0.04356 0.136861,0.108592 0.386017,0.537228 0.148052,0.254689 0.153085,0.26683 0.153085,0.384611 0,0.211871 -0.04248,0.266956 -0.350797,0.452701 -0.08341,0.05024 -0.237953,0.136781 -0.343284,0.192541 -0.223139,0.118104 -0.309528,0.12958 -0.4461255,0.05776 -0.069299,-0.03644 -0.1044829,-0.0778 -0.2052108,-0.241849 -0.1903574,-0.310037 -0.3434032,-0.616273 -0.3432829,-0.686567 1.71e-4,-0.100275 0.03799,-0.207203 0.092042,-0.261102 0.057232,-0.05706 0.5236119,-0.338834 0.6954882,-0.420298 0.06851,-0.03247 0.130804,-0.05013 0.190191,-0.05259 z m 2.422235,0.643832 c 0.129352,0 0.22368,0.05867 0.313227,0.194886 0.215712,0.3281 0.4045,0.692474 0.404335,0.781429 -1.9e-4,0.102771 -0.04102,0.207917 -0.103322,0.266268 -0.06411,0.06006 -0.468565,0.304982 -0.669661,0.405741 -0.193173,0.09677 -0.356324,0.08113 -0.46538,-0.04459 -0.05958,-0.06872 -0.245896,-0.374958 -0.349389,-0.574332 -0.08939,-0.172216 -0.100966,-0.207782 -0.100966,-0.30947 0,-0.187378 0.03865,-0.23598 0.322622,-0.407621 0.339034,-0.20492 0.562033,-0.312289 0.648527,-0.312289 z m -3.9179361,0.24795 c 0.044032,0.0029 0.086729,0.01596 0.1343072,0.03899 0.093651,0.04533 0.1192231,0.08045 0.3606588,0.500133 0.084054,0.14611 0.1630029,0.301378 0.1756341,0.344694 0.029125,0.09988 0.010222,0.231426 -0.044614,0.311349 -0.044333,0.06462 -0.3524825,0.262242 -0.6536937,0.419361 -0.1379628,0.07195 -0.1951547,0.09158 -0.2657978,0.09156 -0.139629,-2.4e-5 -0.2353708,-0.05799 -0.3235606,-0.195827 -0.1054557,-0.164825 -0.2586753,-0.429903 -0.3273164,-0.565877 -0.094605,-0.187416 -0.073957,-0.375622 0.054475,-0.494967 0.060378,-0.05611 0.4120117,-0.265278 0.6288044,-0.374277 0.1106655,-0.05565 0.1877143,-0.07986 0.2611031,-0.07514 z m 2.3879531,0.653225 c 0.17214,0 0.235555,0.05007 0.387897,0.305716 0.215103,0.360947 0.322609,0.586921 0.322151,0.676706 -6.01e-4,0.116394 -0.05892,0.229389 -0.154508,0.29867 -0.110713,0.08028 -0.50966,0.315326 -0.630213,0.371458 -0.121444,0.05654 -0.277302,0.06114 -0.3724,0.01064 -0.07181,-0.03808 -0.184824,-0.204704 -0.399157,-0.588924 -0.144536,-0.259101 -0.165604,-0.376071 -0.09486,-0.522204 0.0462,-0.09548 0.139887,-0.162393 0.579024,-0.412317 0.231836,-0.131936 0.253158,-0.139954 0.362065,-0.139954 z m -1.506969,0.888499 c 0.079426,0.0068 0.162545,0.0418 0.2099144,0.09251 0.1201766,0.128649 0.4372856,0.689261 0.4681986,0.827918 0.02666,0.119605 -0.01516,0.245924 -0.109421,0.331073 -0.08106,0.07325 -0.4674063,0.306318 -0.6527543,0.393999 -0.087263,0.04131 -0.1448807,0.05552 -0.2221246,0.05493 -0.1946687,-0.0014 -0.2306205,-0.03844 -0.5062336,-0.520798 -0.083482,-0.14611 -0.1616957,-0.294661 -0.173755,-0.330134 -0.049799,-0.14649 -0.014497,-0.298346 0.089695,-0.386017 0.1533224,-0.129029 0.7069587,-0.44016 0.819935,-0.460684 0.024227,-0.0044 0.050071,-0.0051 0.076547,-0.0028 z" class="ColorScheme-Text"/>
  </svg>
