<?xml version='1.0' encoding='UTF-8'?>
<svg xmlns:inkscape="http://www.inkscape.org/namespaces/inkscape" xmlns:sodipodi="http://sodipodi.sourceforge.net/DTD/sodipodi-0.dtd" xmlns="http://www.w3.org/2000/svg" xmlns:svg="http://www.w3.org/2000/svg" xmlns:rdf="http://www.w3.org/1999/02/22-rdf-syntax-ns#" xmlns:cc="http://creativecommons.org/ns#" xmlns:dc="http://purl.org/dc/elements/1.1/" width="64" height="64" version="1.1" viewBox="0 0 16.933 16.933" id="svg7" sodipodi:docname="helio-workstation.svg" inkscape:version="1.4 (e7c3feb100, 2024-10-09)">
  <sodipodi:namedview id="namedview7" pagecolor="#9c4444" bordercolor="#000000" borderopacity="0.25" inkscape:showpageshadow="2" inkscape:pageopacity="0.0" inkscape:pagecheckerboard="0" inkscape:deskcolor="#d1d1d1" inkscape:zoom="6.15625" inkscape:cx="26.558376" inkscape:cy="29.725888" inkscape:window-width="1183" inkscape:window-height="941" inkscape:window-x="35" inkscape:window-y="32" inkscape:window-maximized="0" inkscape:current-layer="svg7" showgrid="false"/>
  <defs id="defs2">
    <style id="current-color-scheme" type="text/css">.ColorScheme-Text {color:#d8dee9} .ColorScheme-Highlight {color:#3b4252}</style></defs>
  <metadata id="metadata2">
    <rdf:RDF>
      <cc:Work rdf:about="">
        <dc:format>image/svg+xml</dc:format>
        <dc:type rdf:resource="http://purl.org/dc/dcmitype/StillImage"/>
      </cc:Work>
    </rdf:RDF>
  </metadata>
  <path style="fill:currentColor;fill-opacity:1;stroke-width:0.227785" d="M 3.6343527,2.0915391 C 4.1010013,3.3988934 4.260124,3.6812828 4.3695166,3.3962114 4.3906216,3.3412214 4.1976724,2.70911 3.9407419,1.9915401 3.5245568,0.8291995 3.4550137,0.6868698 3.3032812,0.6868698 c -0.1645344,0 -0.1533024,0.047664 0.3310715,1.4046693 z M 4.9338022,0.7536928 c 0,0.084816 0.679929,2.0051206 0.7264312,2.051622 0.052763,0.052758 0.9439884,-0.3901625 0.9439884,-0.4691483 0,-0.038016 -0.1263204,-0.424665 -0.2807125,-0.8592118 L 6.0427964,0.6868696 H 5.4882998 c -0.3049738,0 -0.5544976,0.030078 -0.5544976,0.066816 z m 1.746348,0.00396 c 0,0.074178 0.4466017,1.3123009 0.4884598,1.3541577 0.023899,0.023904 0.8802287,-0.3385832 0.9392147,-0.3975676 0.01674,-0.01674 -0.04406,-0.2548421 -0.1352879,-0.5289551 l -0.165852,-0.498366 h -0.563265 c -0.309798,0 -0.5632696,0.031842 -0.5632696,0.070758 z m 1.7463469,0.00378 c 0,0.083178 0.2326589,0.6848908 0.26482,0.6848908 0.02682,0 0.9041815,-0.3957966 0.9379826,-0.4231528 0.01422,-0.01152 0.0034,-0.09189 -0.0241,-0.178542 -0.04469,-0.140868 -0.109854,-0.157572 -0.6143582,-0.157572 -0.3178393,0 -0.5643443,0.03249 -0.5643443,0.074394 z M 9.4750946,2.0073371 9.0430943,2.2469293 9.6064246,3.118444 c 0.3098311,0.4793312 0.5753764,0.9055692 0.5901014,0.9471942 0.02603,0.073602 0.887456,-0.5283196 0.887456,-0.6201178 0,-0.11007 -1.032476,-1.6890479 -1.1009554,-1.6837015 -0.04176,0.00324 -0.27033,0.113742 -0.507932,0.2455182 z M 8.0848207,2.737062 C 7.876019,2.860884 7.676183,2.9724606 7.6407393,2.98503 7.5871533,3.004056 8.691691,4.8274756 8.888991,5.0456986 8.9778413,5.1439426 9.8112576,4.499359 9.7437846,4.3845928 9.4115173,3.819429 8.551862,2.5096539 8.513848,2.5106509 8.486688,2.5113707 8.2936248,2.6132508 8.0848207,2.737062 Z M 6.609917,3.4981992 C 6.3833662,3.6230652 6.1826723,3.7405748 6.1639298,3.759316 c -0.039717,0.039726 1.3316359,2.2213062 1.43742,2.2866874 0.080964,0.05004 0.8251472,-0.493126 0.8251472,-0.6022636 0,-0.08658 -1.3130363,-2.1746772 -1.3667067,-2.1734494 -0.020882,4.66e-4 -0.2233234,0.103032 -0.4498733,0.2279088 z M 5.1426046,4.2627958 c -0.2401226,0.12258 -0.4365868,0.2557224 -0.4365868,0.2958444 0,0.040122 0.2782937,0.5093804 0.6184307,1.0427958 0.3401368,0.533412 0.7000326,1.0990926 0.7997691,1.2570624 L 6.3055556,7.145719 6.7215782,6.820801 C 6.9937939,6.6081976 7.1227921,6.457291 7.0947604,6.3842416 7.0379452,6.2361916 5.7736633,4.2424758 5.6644433,4.128703 5.5997693,4.061329 5.473811,4.093693 5.1426046,4.262785 Z m 6.0402404,0.16695 c -0.217069,0.175608 -0.39645,0.3369726 -0.398622,0.3585978 -0.0023,0.021618 0.347909,0.3899846 0.777962,0.8185734 l 0.781911,0.7792506 0.319046,-0.3922074 c 0.175482,-0.215712 0.319045,-0.4139082 0.319045,-0.4404294 0,-0.026514 -0.316052,-0.3620646 -0.702337,-0.7456428 L 11.577515,4.1104676 Z M 3.680988,5.0303812 C 3.4304251,5.1570652 3.2139609,5.270942 3.1999569,5.2834324 3.1794531,5.3017204 4.8822761,8.0200642 4.9751695,8.1173363 4.9963483,8.1395123 5.3222959,7.8996065 5.793022,7.5153746 5.8413628,7.4759366 4.3875553,5.0685286 4.1836925,4.8504584 4.1577653,4.8227204 3.9315509,4.9036844 3.680988,5.0303864 Z M 9.8782466,5.5339996 9.4697593,5.8965356 10.354649,6.72745 c 0.486691,0.457002 0.909684,0.8375418 0.939985,0.8456419 0.03029,0.0081 0.19881,-0.162738 0.374458,-0.3796417 l 0.319363,-0.3943675 -0.8116,-0.816228 C 10.730477,5.5339312 10.347591,5.1677158 10.325997,5.1690442 c -0.0216,0.00132 -0.223078,0.165564 -0.4477504,0.3649554 z M 13.36277,6.427019 c -0.171486,0.227135 -0.292709,0.4438566 -0.269379,0.4816044 0.02333,0.037746 0.439695,0.313308 0.925254,0.6123582 0.685362,0.4221002 0.89814,0.5210588 0.951265,0.4424061 0.211281,-0.3127897 0.445142,-0.8487255 0.390987,-0.8960151 -0.0346,-0.030222 -0.428173,-0.279567 -0.874614,-0.5541282 L 13.674567,6.014047 Z M 1.3749073,6.297923 c -0.057292,0.036288 -0.091458,0.101376 -0.075928,0.14463 0.049633,0.138258 1.848978,2.9697631 1.8884754,2.9717791 0.020882,0.0011 0.086119,-0.028548 0.1449774,-0.065808 C 3.417011,9.2949741 3.2363468,8.9609769 2.4705994,7.755196 1.9377343,6.916124 1.4966512,6.2301332 1.4904144,6.2307722 c -0.00625,6.372e-4 -0.058216,0.030852 -0.115506,0.06714 z M 8.675252,6.5510552 C 8.459693,6.7292192 8.2813718,6.8925802 8.2789837,6.914063 8.2766837,6.935537 8.712868,7.3903772 9.2484803,7.924799 L 10.222317,8.8964757 10.572163,8.486977 10.922007,8.0774804 9.9945926,7.152291 9.0671783,6.2271054 Z M 7.3796456,7.6572958 6.9781837,8.0139299 8.0672867,9.0992367 9.1563883,10.184545 9.4747976,9.8069342 c 0.175122,-0.2076876 0.318408,-0.4061257 0.318408,-0.4409735 0,-0.034848 -0.4527223,-0.5137976 -1.0060495,-1.0643296 L 7.7811086,7.3006634 Z m 4.9672054,0.135504 c -0.161514,0.2329128 -0.264013,0.4496311 -0.227782,0.4815973 0.108234,0.09549 1.816867,1.1361948 1.94806,1.1865408 0.09106,0.034938 0.180191,-0.070344 0.358312,-0.4231962 0.13041,-0.2583376 0.226328,-0.4776662 0.213154,-0.4874006 -0.136962,-0.101178 -1.811378,-1.1115187 -1.89151,-1.1413463 -0.06761,-0.025164 -0.213937,0.115146 -0.400234,0.383805 z m 3.575722,0.125622 c -0.113832,0.2613366 -0.206987,0.4970808 -0.206982,0.5238738 5e-6,0.026802 0.08226,0.069354 0.182776,0.094572 0.100512,0.025218 0.238705,0.06732 0.307074,0.093564 0.109674,0.042066 0.12168,-0.02196 0.10197,-0.544063 -0.01224,-0.3254688 -0.05733,-0.6033206 -0.10008,-0.6174468 -0.04277,-0.01404 -0.170892,0.1881398 -0.284738,0.4494766 z M 6.086276,8.7515613 5.6982615,9.0769293 6.8526582,10.234834 c 0.634919,0.636848 1.1889775,1.155949 1.2312425,1.153561 0.04226,-0.0023 0.222932,-0.181069 0.4014784,-0.397071 L 8.810009,10.598596 7.6961252,9.5340506 C 7.0834898,8.9485497 6.5579532,8.4597592 6.5282662,8.4478486 6.4985806,8.4359686 6.2996836,8.5726066 6.086276,8.7515613 Z m 5.30265,0.3325644 c -0.171648,0.2273438 -0.293303,0.4437419 -0.270346,0.480885 0.03139,0.050814 1.929307,1.2474243 2.259673,1.4247023 0.08323,0.04466 0.535533,-0.89799 0.463945,-0.966933 -0.03452,-0.033246 -0.53041,-0.3510488 -1.101976,-0.706229 L 11.70101,8.6707721 Z m 3.867751,0.3540152 c -0.121986,0.2579639 -0.196774,0.4906065 -0.166176,0.5169873 0.0549,0.04734 1.130714,0.4505438 1.202098,0.4505438 0.02025,0 0.02682,-0.261645 0.01458,-0.5814324 L 16.285003,9.2428069 15.881718,9.1059709 15.478434,8.9691349 Z M 4.8355019,9.8187908 4.4714528,10.139923 5.7535449,11.417804 7.0356363,12.695683 7.3862768,12.290978 7.736915,11.886271 6.5450515,10.690402 C 5.8895266,10.032674 5.318619,9.4952372 5.2763689,9.4960958 c -0.042251,8.91e-4 -0.2406399,0.14607 -0.440867,0.322695 z m 5.5817511,0.5518152 c -0.137016,0.186259 -0.266376,0.383604 -0.287456,0.438545 -0.02493,0.06496 0.398847,0.370311 1.211916,0.873236 0.687636,0.42534 1.280517,0.773346 1.317507,0.773346 0.07573,0 0.519982,-0.891373 0.469379,-0.941742 -0.06901,-0.06869 -2.383137,-1.487798 -2.421578,-1.484998 -0.02236,0.0016 -0.152748,0.155358 -0.289768,0.341613 z m 4.197982,0.509616 c -0.09945,0.219244 -0.191526,0.443756 -0.204603,0.498919 -0.01584,0.06667 0.293465,0.213018 0.92267,0.436587 0.520542,0.18496 0.957618,0.336292 0.971276,0.336292 0.01368,0 0.01494,-0.260629 0.0025,-0.579175 l -0.02218,-0.579176 -0.721318,-0.253422 c -0.396723,-0.139374 -0.731746,-0.254597 -0.744499,-0.256033 -0.0126,-0.0014 -0.104562,0.176759 -0.204009,0.396008 z M 3.574669,10.876822 3.1821576,11.196115 4.5704956,12.58793 5.9588322,13.979744 6.315571,13.578398 6.6723097,13.17705 5.3672829,11.867289 c -0.7177646,-0.720368 -1.3264182,-1.309761 -1.352565,-1.309761 -0.026143,0 -0.2241682,0.143676 -0.4400489,0.319294 z m 5.8267843,0.864807 c -0.270045,0.357673 -0.30042,0.433411 -0.20889,0.520832 0.0589,0.05627 0.6196233,0.418038 1.2460327,0.803943 0.626405,0.385906 1.213938,0.750763 1.305626,0.810793 0.16038,0.105012 0.175734,0.09126 0.404806,-0.362533 0.197112,-0.390478 0.220698,-0.488236 0.136998,-0.567857 -0.05562,-0.0529 -0.65628,-0.439872 -1.334841,-0.859945 L 9.7174506,11.323073 Z m -7.0871714,0.217505 -0.3796407,0.335491 1.480599,1.486695 1.4805978,1.486694 0.2120406,-0.24824 C 5.6445896,14.391448 5.7379758,14.590366 4.1687965,13.019465 3.4002226,12.250048 2.7539597,11.621227 2.7326562,11.622087 2.7113552,11.622978 2.523084,11.774619 2.3142818,11.959141 Z m 11.4287161,0.873375 c -0.08793,0.164304 -0.18403,0.117342 1.251284,0.611576 0.584646,0.201319 1.12279,0.389545 1.19587,0.418278 0.103824,0.04082 0.132732,0.01314 0.132174,-0.12672 -6.37e-4,-0.16317 -0.11115,-0.217062 -1.252676,-0.61082 -1.17353,-0.404795 -1.256664,-0.423113 -1.326661,-0.29232 z m -5.2915549,0.1233 c -0.02875,0.07492 -0.02048,0.148212 0.01834,0.1629 0.03884,0.01476 0.7197902,0.433935 1.5132414,0.931662 1.2764234,0.800693 1.4533594,0.890795 1.5357314,0.782047 0.08132,-0.10737 -0.09151,-0.237788 -1.36671,-1.031259 -0.8028905,-0.499592 -1.5022226,-0.924819 -1.5540696,-0.94495 -0.05184,-0.02014 -0.117792,0.02468 -0.1465201,0.09959 z m -7.73672695,0.343335 c -0.054632,0.0884 1.12664635,1.315951 2.42174225,2.516613 0.5833877,0.540848 0.7611035,0.668101 0.8143133,0.583087 C 4.0020286,16.316944 3.639808,15.910425 2.4839002,14.752552 1.6396855,13.9069 0.90795875,13.215005 0.85784085,13.215005 c -0.050119,0 -0.114525,0.03785 -0.1431252,0.08413 z" id="path99" class="ColorScheme-Text"/>
  </svg>
