<?xml version='1.0' encoding='UTF-8'?>
<svg xmlns:inkscape="http://www.inkscape.org/namespaces/inkscape" xmlns:sodipodi="http://sodipodi.sourceforge.net/DTD/sodipodi-0.dtd" xmlns="http://www.w3.org/2000/svg" xmlns:svg="http://www.w3.org/2000/svg" xmlns:rdf="http://www.w3.org/1999/02/22-rdf-syntax-ns#" xmlns:cc="http://creativecommons.org/ns#" xmlns:dc="http://purl.org/dc/elements/1.1/" width="64" height="64" version="1.1" viewBox="0 0 16.933 16.933" id="svg7" sodipodi:docname="hwinfo.svg" inkscape:version="1.4.2 (ebf0e940d0, 2025-05-08)">
  <sodipodi:namedview id="namedview7" pagecolor="#9c4444" bordercolor="#000000" borderopacity="0.25" inkscape:showpageshadow="2" inkscape:pageopacity="0.0" inkscape:pagecheckerboard="0" inkscape:deskcolor="#d1d1d1" inkscape:zoom="6.15625" inkscape:cx="15.837563" inkscape:cy="27.208122" inkscape:window-width="1183" inkscape:window-height="941" inkscape:window-x="0" inkscape:window-y="0" inkscape:window-maximized="0" inkscape:current-layer="svg7" showgrid="false"/>
  <defs id="defs2">
    <style id="current-color-scheme" type="text/css">.ColorScheme-Text {color:#d8dee9} .ColorScheme-Highlight {color:#3b4252}</style>
  </defs>
  <metadata id="metadata2">
    <rdf:RDF>
      <cc:Work rdf:about="">
        <dc:format>image/svg+xml</dc:format>
        <dc:type rdf:resource="http://purl.org/dc/dcmitype/StillImage"/>
      </cc:Work>
    </rdf:RDF>
  </metadata>
  <path id="path72" style="fill:currentColor;fill-opacity:1;stroke:none;stroke-width:0.341261;stroke-dasharray:none;stroke-dashoffset:2.2;stroke-opacity:0.3" d="m 8.4771642,13.281768 c 3.2581618,0 3.2716558,-4.87e-4 3.3752968,-0.08199 0.232908,-0.183208 0.220619,0.0918 0.220619,-4.7150143 0,-2.6526846 -0.01519,-4.4481645 -0.03733,-4.5063927 C 11.98615,3.8478801 11.846241,3.7231271 11.701826,3.6804349 11.6352,3.6607271 10.179617,3.6479391 8.3885174,3.6517897 5.3217419,3.6584679 5.1892762,3.6617359 5.0838715,3.7330932 4.8476593,3.893191 4.8605851,3.6207574 4.8605851,8.4821039 c 0,4.0533031 0.00568,4.4642961 0.063997,4.5630481 0.1474916,0.249687 -0.046648,0.236625 3.5525921,0.236625 z M 13.758062,12.497932 V 12.008035 11.51747 h -0.509227 -0.509893 v 0.490565 0.489897 h 0.509893 z m -9.5246793,0 V 12.008035 11.51747 H 3.7041595 3.1749377 v 0.490565 0.489897 H 3.7041595 Z M 10.308782,12.106014 H 10.073498 9.8388803 v -0.607872 -0.607208 h 0.2346177 0.235284 v 0.607208 z m -1.6069976,0 H 8.4664998 8.2312157 V 10.47902 8.8526939 h 0.2092894 c 0.1149801,0 0.2209108,0.011609 0.2352844,0.025994 0.014371,0.014372 0.025994,0.746031 0.025994,1.6263271 z m -1.6463231,0 H 6.8401735 6.6242167 V 10.890934 9.6751885 H 6.8401735 7.0554613 V 10.890934 Z M 13.758062,10.694976 V 10.204412 9.7145144 h -0.509227 -0.509893 v 0.4898976 0.490564 h 0.509893 z m -9.5246793,0 V 10.204412 9.7145144 H 3.7041595 3.1749377 v 0.4898976 0.490564 H 3.7041595 Z M 10.308782,10.498351 H 10.072831 9.8368806 l 0.010672,-0.6172054 0.010672,-0.617204 0.1972924,-0.011325 c 0.108607,-0.00636 0.209933,6.271e-4 0.225272,0.015991 0.01534,0.01534 0.02799,0.2986411 0.02799,0.6292016 z M 7.0554613,9.2832706 H 6.8401735 6.6242167 V 8.6760639 8.0681905 H 6.8401735 7.0554613 V 8.6760639 Z M 10.308782,8.8913523 H 10.073498 9.8388803 V 7.6762724 6.4611935 h 0.2346177 0.235284 v 1.2150789 z m 3.44928,-0.038659 V 8.382125 7.9115566 h -0.509227 -0.509893 v 0.4705687 0.4705686 h 0.509893 z m -9.5246793,0 V 8.3821241 7.911556 H 3.7041595 3.1749377 V 8.3821253 8.8526939 H 3.7041595 Z M 8.2312157,8.5034335 V 6.8751064 5.2461122 h 0.2359505 0.2352842 l -0.00999,1.6169962 -0.00999,1.6169962 -0.2252862,0.011325 z M 7.0554613,7.6762724 H 6.8401735 6.6242167 V 6.2459042 4.8148679 H 6.8401735 7.0554613 V 6.2459042 Z M 13.758062,7.0490705 V 6.5591728 6.0692743 h -0.509227 -0.509893 v 0.4898985 0.4898977 h 0.509893 z m -9.5246793,0 V 6.5591728 6.0692743 H 3.7041595 3.1749377 V 6.5591728 7.0490705 H 3.7041595 Z M 13.758062,5.2461122 V 4.7562134 4.2663163 h -0.509227 -0.509893 v 0.4898971 0.4898988 h 0.509893 z m -9.5246793,0 V 4.7562134 4.2663163 H 3.7041595 3.1749377 v 0.4898971 0.4898988 h 0.5292218 z" class="ColorScheme-Text"/>
</svg>
