<?xml version='1.0' encoding='UTF-8'?>
<svg xmlns:inkscape="http://www.inkscape.org/namespaces/inkscape" xmlns:sodipodi="http://sodipodi.sourceforge.net/DTD/sodipodi-0.dtd" xmlns="http://www.w3.org/2000/svg" xmlns:svg="http://www.w3.org/2000/svg" xmlns:rdf="http://www.w3.org/1999/02/22-rdf-syntax-ns#" xmlns:cc="http://creativecommons.org/ns#" xmlns:dc="http://purl.org/dc/elements/1.1/" width="64" height="64" version="1.1" viewBox="0 0 16.933 16.933" id="svg7" sodipodi:docname="jockey.svg" inkscape:version="1.4 (e7c3feb100, 2024-10-09)">
  <sodipodi:namedview id="namedview7" pagecolor="#9c4444" bordercolor="#000000" borderopacity="0.25" inkscape:showpageshadow="2" inkscape:pageopacity="0.0" inkscape:pagecheckerboard="0" inkscape:deskcolor="#d1d1d1" inkscape:zoom="6.15625" inkscape:cx="15.675127" inkscape:cy="27.451777" inkscape:window-width="1183" inkscape:window-height="941" inkscape:window-x="35" inkscape:window-y="32" inkscape:window-maximized="0" inkscape:current-layer="svg7" showgrid="false"/>
  <defs id="defs2">
    <style id="current-color-scheme" type="text/css">.ColorScheme-Text {color:#d8dee9} .ColorScheme-Highlight {color:#3b4252}</style></defs>
  <metadata id="metadata2">
    <rdf:RDF>
      <cc:Work rdf:about="">
        <dc:format>image/svg+xml</dc:format>
        <dc:type rdf:resource="http://purl.org/dc/dcmitype/StillImage"/>
      </cc:Work>
    </rdf:RDF>
  </metadata>
  <path id="path72" style="fill:currentColor;fill-opacity:1;stroke:none;stroke-width:0.477915;stroke-dasharray:none;stroke-dashoffset:2.2;stroke-opacity:0.3" d="m 8.5061873,1.7528271 c -4.5642363,0 -4.5831373,6.586e-4 -4.7283241,0.1148474 C 3.451589,2.124326 3.4688043,1.7390514 3.4688043,8.4727625 c 0,3.7160485 0.021276,6.2312665 0.052286,6.3128355 0.069498,0.182799 0.2654853,0.357567 0.4677899,0.417375 0.093326,0.02759 2.1324055,0.04551 4.6414889,0.04015 4.2961359,-0.0093 4.4816969,-0.01425 4.6293539,-0.113905 0.330902,-0.22428 0.312795,0.157377 0.312795,-6.6527114 0,-5.6781175 -0.008,-6.2538637 -0.08964,-6.3922013 C 13.276274,1.7345157 13.548236,1.7528133 8.5061983,1.752815 Z M 1.1083771,2.8508742 V 3.5371536 4.2243669 H 1.8217342 2.5360246 V 3.5371536 2.8508742 H 1.8217342 Z m 13.3427639,0 v 0.6862794 0.6872133 h 0.74137 0.741367 V 3.5371536 2.8508742 H 15.192511 Z M 5.9403433,3.3998982 H 6.2699439 6.5986108 V 4.2514447 5.1020575 H 6.2699439 5.9403433 V 4.2514447 Z m 2.2511823,0 h 0.329601 0.3296008 v 2.279194 2.2782604 H 8.5575416 c -0.1610687,0 -0.3094651,-0.016264 -0.329601,-0.036414 -0.020132,-0.020133 -0.036413,-1.0450878 -0.036413,-2.2782613 z m 2.3062724,0 h 0.301589 0.302526 V 5.1020575 6.8051506 H 10.799387 10.497798 V 5.1020575 Z M 1.1083771,5.3765683 V 6.0637816 6.7500612 H 1.8217342 2.5360246 V 6.0637816 5.3765683 H 1.8217342 Z m 13.3427639,0 v 0.6872133 0.6862796 h 0.74137 0.741367 V 6.0637816 5.3765683 H 15.192511 Z M 5.9403433,5.6520144 H 6.2708776 6.601412 L 6.586459,6.5166331 6.571506,7.3812511 6.2951265,7.3970971 C 6.143003,7.406029 6.0010582,7.3962387 5.9795694,7.3747189 5.9580815,7.353231 5.9403556,6.956364 5.9403556,6.4932937 Z M 10.497798,7.354174 h 0.301589 0.302526 V 8.2047867 9.0563331 H 10.799387 10.497798 V 8.2047867 Z M 5.9403433,7.9031972 H 6.2699439 6.5986108 V 9.6053569 11.307515 H 6.2699439 5.9403433 V 9.6053569 Z M 1.1083771,7.9573548 V 8.6165555 9.2757567 H 1.8217342 2.5360246 V 8.6165541 7.9573526 H 1.8217342 Z m 13.3427639,0 v 0.6592018 0.659201 h 0.74137 0.741367 V 8.6165541 7.9573526 H 15.192511 Z M 8.8507274,8.4466181 V 10.72768 13.009674 H 8.5201927 8.1905921 l 0.014003,-2.265187 0.013984,-2.2651887 0.3155952,-0.015846 z m 1.6470706,1.1587388 h 0.301589 0.302526 v 2.0037471 2.004684 H 10.799387 10.497798 V 11.609104 Z M 1.1083771,10.483981 v 0.686278 0.68628 h 0.7133571 0.7142904 v -0.68628 -0.686278 H 1.8217342 Z m 13.3427639,0 v 0.686278 0.68628 h 0.74137 0.741367 v -0.68628 -0.686278 H 15.192511 Z M 1.1083771,13.009674 v 0.686282 0.686278 H 1.8217342 2.5360246 V 13.695956 13.009674 H 1.8217342 Z m 13.3427639,0 v 0.686282 0.686278 h 0.74137 0.741367 v -0.686278 -0.686282 h -0.741367 z" class="ColorScheme-Text"/>
</svg>
