<?xml version='1.0' encoding='UTF-8'?>
<svg xmlns:inkscape="http://www.inkscape.org/namespaces/inkscape" xmlns:sodipodi="http://sodipodi.sourceforge.net/DTD/sodipodi-0.dtd" xmlns="http://www.w3.org/2000/svg" xmlns:svg="http://www.w3.org/2000/svg" xmlns:rdf="http://www.w3.org/1999/02/22-rdf-syntax-ns#" xmlns:cc="http://creativecommons.org/ns#" xmlns:dc="http://purl.org/dc/elements/1.1/" width="64" height="64" version="1.1" viewBox="0 0 16.933 16.933" id="svg7" sodipodi:docname="libreoffice-main.svg" inkscape:version="1.4 (e7c3feb100, 2024-10-09)">
  <sodipodi:namedview id="namedview7" pagecolor="#9c4444" bordercolor="#000000" borderopacity="0.25" inkscape:showpageshadow="2" inkscape:pageopacity="0.0" inkscape:pagecheckerboard="0" inkscape:deskcolor="#d1d1d1" inkscape:zoom="6.15625" inkscape:cx="15.837563" inkscape:cy="29.725888" inkscape:window-width="1183" inkscape:window-height="941" inkscape:window-x="35" inkscape:window-y="32" inkscape:window-maximized="0" inkscape:current-layer="svg7" showgrid="false"/>
  <defs id="defs2">
    <style id="current-color-scheme" type="text/css">.ColorScheme-Text {color:#d8dee9} .ColorScheme-Highlight {color:#3b4252}</style></defs>
  <metadata id="metadata2">
    <rdf:RDF>
      <cc:Work rdf:about="">
        <dc:format>image/svg+xml</dc:format>
        <dc:type rdf:resource="http://purl.org/dc/dcmitype/StillImage"/>
      </cc:Work>
    </rdf:RDF>
  </metadata>
  <path id="path99" style="fill:currentColor;fill-opacity:1;stroke-width:0.0380549" d="m 7.0820795,1.6420533 c -4.3926628,7.982e-4 -4.6031511,0.00317 -4.7486236,0.070463 -0.1865287,0.086361 -0.3380142,0.2434119 -0.4163856,0.4310274 -0.05237,0.1253582 -0.059483,0.6859575 -0.059483,4.9197518 0,4.2337955 0.00709,4.7943965 0.059483,4.9197525 0.078362,0.187625 0.2298571,0.34467 0.4163856,0.43103 0.1454792,0.06737 0.3559608,0.0706 4.7486236,0.07138 5.0337115,9.07e-4 4.7389605,0.01425 4.9883925,-0.219634 0.06021,-0.05643 0.141512,-0.171608 0.180291,-0.255322 0.06741,-0.145597 0.07059,-0.361519 0.07136,-4.9581894 8.34e-4,-4.6552071 -0.0023,-4.8104445 -0.07228,-4.947205 C 12.15643,1.9234785 11.998131,1.7742251 11.819727,1.6996997 11.694437,1.6473568 11.152614,1.6412962 7.0820841,1.6420457 Z M 5.6480671,3.7431972 c 0.052242,-8.71e-4 0.1066622,0.015884 0.1601453,0.055824 0.053922,0.040257 0.1109676,0.1202263 0.1262854,0.177536 C 5.9689619,4.1053885 5.9067293,4.2937336 5.8137034,4.3435257 5.6945734,4.407284 5.5495946,4.3850673 5.4522242,4.2877018 5.2452538,4.0807303 5.4217127,3.7468117 5.6480633,3.7431966 Z m -2.1542242,0.066806 c 0.5228963,0 0.6470011,0.00994 0.6470011,0.052164 0,0.031563 -0.060107,0.062046 -0.1528303,0.07687 -0.1176974,0.018829 -0.1620567,0.047314 -0.190349,0.1217102 -0.056191,0.147801 -0.048775,2.1576132 0.00813,2.2146198 0.056491,0.056497 0.4442791,0.060183 0.5893469,0.00549 C 4.5602821,6.2185977 4.7260797,6.0372264 4.8453885,5.7876031 4.918263,5.6351395 4.9762434,5.5606498 5.022003,5.5606498 c 0.053377,0 0.064442,0.022403 0.050329,0.1043252 -0.061963,0.3599305 -0.1316681,0.7938479 -0.1317726,0.8181286 -6.72e-5,0.015675 -0.4713391,0.028367 -1.0469125,0.028367 -1.0066947,0 -1.046912,-0.00283 -1.046912,-0.073213 0,-0.050306 0.035597,-0.080611 0.1143819,-0.09792 0.062956,-0.013813 0.1320747,-0.056394 0.1528322,-0.095171 0.050299,-0.093993 0.050299,-2.1123959 0,-2.2063843 C 3.0931954,3.9999995 3.0240905,3.9565199 2.9611169,3.9426936 2.8981623,3.9288806 2.846735,3.893723 2.846735,3.8639918 c 0,-0.044585 0.1134091,-0.053996 0.6469985,-0.053996 z m 3.0638657,0 h 0.3614786 v 0.478613 0.4786152 l 0.1354396,-0.083279 c 0.1964583,-0.1214176 0.5053071,-0.093288 0.6680469,0.061311 0.224583,0.213347 0.2809465,0.3735595 0.2809465,0.7961657 0,0.3512615 -0.00851,0.396276 -0.1134832,0.5856841 -0.1626932,0.2937499 -0.34297,0.4034477 -0.6634697,0.4035746 -0.2016432,7.97e-5 -0.27451,-0.016948 -0.3752039,-0.088768 l -0.125381,-0.089682 -0.129029,0.098834 c -0.071138,0.054266 -0.1478903,0.098834 -0.170221,0.098834 -0.027943,0 -0.040271,-0.3974454 -0.040271,-1.2756953 V 3.9985199 l -0.095171,-0.043016 c -0.052334,-0.023841 -0.095169,-0.066226 -0.095169,-0.094261 0,-0.039022 0.084757,-0.051249 0.3614773,-0.051249 z m 2.8579597,0.7961652 c 0.079885,0.0045 0.1510937,0.038384 0.2022451,0.1034113 C 9.730933,4.8532709 9.7219555,5.0403853 9.5968747,5.1387774 9.4625504,5.2444364 9.4078931,5.2389739 9.2729179,5.1040055 9.210121,5.0412143 9.1326428,4.9896141 9.1017925,4.9896141 c -0.1098466,0 -0.1662006,0.242576 -0.1656344,0.7119733 6.167e-4,0.5551652 0.01558,0.616976 0.1564802,0.6451682 0.073653,0.014725 0.1098162,0.045222 0.1098162,0.093343 0,0.066107 -0.036746,0.071381 -0.4950865,0.071381 -0.4471591,0 -0.494174,-0.00616 -0.494174,-0.066802 0,-0.036898 0.038021,-0.083666 0.085111,-0.1043252 C 8.382298,6.3035034 8.38425,6.2880644 8.394396,5.5688965 L 8.404485,4.8358746 8.308394,4.7992706 C 8.255622,4.7792086 8.213227,4.7369256 8.213227,4.7050116 c 0,-0.047922 0.062886,-0.057652 0.361478,-0.057652 h 0.3614819 l 9.067e-4,0.1235418 c 0.00127,0.1215449 0.0027,0.1226222 0.0668,0.046675 C 9.1263386,4.6727351 9.2825567,4.5987206 9.4157057,4.60618 Z m 1.1411707,0.00464 c 0.108242,9.068e-4 0.212903,0.019249 0.281863,0.054904 0.213806,0.1105648 0.380696,0.4220297 0.380696,0.7101424 v 0.1464216 h -0.438351 -0.437434 l 9.07e-4,0.1427622 c 9.07e-4,0.1621327 0.106697,0.4202949 0.205905,0.502407 0.119536,0.098929 0.311777,0.069033 0.456652,-0.071383 0.08358,-0.081018 0.153254,-0.1183434 0.192177,-0.1034132 0.05424,0.020822 0.05465,0.034295 0.0053,0.1281208 -0.07459,0.1425114 -0.285394,0.3395621 -0.416337,0.38893 -0.145266,0.054781 -0.400286,0.048254 -0.542638,-0.013731 C 9.9738505,6.3776638 9.7934637,6.0126153 9.7934637,5.5799179 c 0,-0.4386504 0.1821131,-0.8025557 0.4603103,-0.9187927 0.08244,-0.034455 0.19468,-0.051201 0.30291,-0.050329 z m 2.223775,0.030204 -0.01007,3.8938875 c -0.01121,4.2898691 0.0068,3.9813071 -0.243424,4.2315731 -0.249841,0.249847 0.03754,0.233056 -4.0403114,0.244338 l -3.7026273,0.01007 0.010982,0.985597 0.011875,0.985595 0.1143838,0.162887 c 0.1224075,0.174059 0.2935554,0.292408 0.4886799,0.339514 0.066143,0.01596 2.1758965,0.02614 4.68914,0.02288 l 4.570175,-0.0055 0.184851,-0.115311 c 0.135109,-0.08354 0.214518,-0.169385 0.291929,-0.317549 l 0.107046,-0.204079 V 10.091513 5.3081153 L 15.148078,5.1012957 C 15.069513,4.9463469 14.996667,4.865918 14.856155,4.7800842 L 14.669461,4.6656947 13.725043,4.6538007 Z m -7.2121636,0.00642 h 0.3614783 v 0.8172131 c 0,0.7766364 0.00376,0.8205798 0.075953,0.8657147 0.041851,0.02614 0.075954,0.077569 0.075954,0.1143895 0,0.060019 -0.045117,0.066802 -0.437435,0.066802 -0.412254,0 -0.4383478,-0.00426 -0.4383478,-0.075956 0,-0.041857 0.016302,-0.075954 0.035684,-0.075954 0.019426,0 0.062282,-0.0266 0.095171,-0.059483 0.049904,-0.049921 0.059483,-0.1725637 0.059483,-0.7412654 V 4.8770851 l -0.095169,-0.06223 c -0.052334,-0.03428 -0.095167,-0.086315 -0.095167,-0.1153034 0,-0.041203 0.079762,-0.052163 0.3623921,-0.052163 z m 4.9856446,0.1326865 c -0.132516,0 -0.186962,0.089458 -0.226954,0.371545 l -0.02563,0.1802701 h 0.230614 0.230612 l -0.0028,-0.1427736 c -0.0012,-0.078485 -0.0226,-0.2021969 -0.04759,-0.2754527 -0.03831,-0.1123455 -0.06244,-0.1336096 -0.158321,-0.1336096 z m -3.3933137,0.068634 c -0.028063,8.707e-4 -0.057006,0.00963 -0.086934,0.025629 -0.1339025,0.071662 -0.1546543,0.1726853 -0.1546543,0.7549838 0,0.5171993 0.00692,0.5767767 0.078702,0.6680474 C 7.13052,6.4660247 7.2930462,6.412819 7.3904854,6.1692941 7.4821091,5.9402818 7.4748112,5.2528496 7.3786104,5.0409221 7.3199443,4.9117092 7.2450336,4.8462241 7.1608131,4.8487424 Z M 5.9509763,7.347052 C 6.1909011,7.339832 6.4251694,7.4496216 6.4780935,7.6618581 6.5378618,7.9015338 6.3520589,8.082572 6.1513896,7.9803235 6.0724598,7.9400986 6.0633569,7.9102401 6.0699461,7.717673 6.0775651,7.4961338 6.0510981,7.4617617 5.9299351,7.5383073 5.887871,7.564875 5.8692624,7.6647143 5.8594698,7.9180877 L 5.8456758,8.2621779 H 6.002156 c 0.141037,0 0.1555758,0.00916 0.1555758,0.095171 0,0.085622 -0.014877,0.095171 -0.1519088,0.095171 H 5.852987 V 9.137954 c 0,0.6342421 0.00638,0.6900042 0.076876,0.7604754 0.041868,0.041857 0.1100461,0.075954 0.1519107,0.075954 0.042294,0 0.075954,0.02594 0.075954,0.057651 0,0.04792 -0.082103,0.05674 -0.5133902,0.05674 -0.4039209,0 -0.5143031,-0.01115 -0.5143031,-0.05125 0,-0.02803 0.042839,-0.070417 0.095169,-0.09426 l 0.095171,-0.04301 V 9.1763808 8.4525098 h -0.095171 c -0.076112,0 -0.095167,-0.019068 -0.095167,-0.095171 0,-0.07391 0.019834,-0.095173 0.087854,-0.095173 0.080066,0 0.090795,-0.024689 0.1290271,-0.2900963 C 5.3712473,7.8031805 5.4196669,7.640303 5.4622231,7.582223 5.5743402,7.4291704 5.7642939,7.3526331 5.9509041,7.3470343 Z m 1.2372602,9.432e-4 c 0.1770211,0.00735 0.3454282,0.07468 0.4328559,0.1994977 0.04875,0.069606 0.058566,0.073023 0.058566,0.01922 0,-0.1013194 0.1406646,-0.2178019 0.2626431,-0.2178019 0.1848624,0 0.2891821,0.1174979 0.2891821,0.3239576 0,0.1411244 -0.018449,0.1930605 -0.08968,0.2507458 -0.1152312,0.093322 -0.2359462,0.092399 -0.3569004,-0.00276 l -0.096091,-0.075973 -0.054918,0.081445 C 7.5707785,8.0213831 7.3768978,8.0379283 7.2788228,7.9565399 7.2201356,7.9078353 7.2142893,7.7561484 7.2641168,7.577675 7.2915851,7.4794355 7.1343259,7.511764 7.0820056,7.6151981 7.0555272,7.6675241 7.0338178,7.834999 7.0335043,7.9867419 v 0.2754554 h 0.1519088 c 0.1369976,0 0.1519107,0.00952 0.1519107,0.095173 0,0.085622 -0.014877,0.095173 -0.1519107,0.095173 H 7.0335043 v 0.6442472 c 0,0.3544464 0.015941,0.688945 0.036604,0.7430874 0.025023,0.065805 0.076097,0.1063696 0.1528322,0.1217102 0.063137,0.012635 0.1143857,0.046261 0.1143857,0.075042 0,0.04181 -0.1028546,0.05216 -0.5133891,0.05216 -0.4039235,0 -0.5143053,-0.01115 -0.5143053,-0.05125 0,-0.02803 0.042841,-0.070418 0.095167,-0.094261 l 0.095169,-0.043016 V 9.1764115 8.4525416 h -0.095171 c -0.07611,0 -0.095167,-0.019068 -0.095167,-0.095173 0,-0.075356 0.019236,-0.095169 0.092424,-0.095169 0.084242,0 0.09455,-0.019217 0.1171274,-0.2187178 C 6.5530745,7.7440445 6.6016328,7.60239 6.7012897,7.5090473 6.8251678,7.393001 7.0111159,7.3406332 7.1881408,7.3479824 Z m -3.4884881,0.00642 c 0.037667,-3.627e-4 0.075744,2.099e-4 0.1143876,0.00275 0.4728739,0.031019 0.8312954,0.2882454 1.0432527,0.7485781 0.192254,0.4175568 0.1519069,1.1087355 -0.086936,1.4870972 C 4.6310805,9.8136276 4.3434452,10.044356 4.1289454,10.108055 3.928413,10.167608 3.5047398,10.178808 3.3419303,10.129098 2.9862317,10.020513 2.6783906,9.7310687 2.5366096,9.3713726 2.4354545,9.1147512 2.4152669,8.4953009 2.5000059,8.2430135 2.6861979,7.6887197 3.1348227,7.3599754 3.6997457,7.3544221 Z m 0.010089,0.1509987 c -0.069774,-0.00239 -0.1327473,0.02443 -0.2187147,0.082357 -0.2855068,0.1924039 -0.3969815,0.6004372 -0.3715435,1.3644633 0.014535,0.4344546 0.026209,0.4960826 0.1290271,0.7019071 0.08201,0.1641714 0.1482988,0.2434917 0.2452552,0.2919271 0.1629782,0.081419 0.2742473,0.084042 0.4173012,0.010032 C 4.1747474,9.8198063 4.3055438,9.4381056 4.309245,8.7948081 4.313121,8.1193034 4.1707407,7.6923018 3.8983519,7.5630396 3.8217249,7.5266755 3.7640979,7.5072233 3.709832,7.505386 Z m 7.1874466,0.699157 c 0.0474,0.0023 0.09496,0.00999 0.142759,0.022878 0.280373,0.075495 0.431716,0.301337 0.502407,0.7485784 l 0.02561,0.1619788 h -0.463978 -0.463977 l 0.02654,0.1802815 c 0.07099,0.4734258 0.375704,0.6535416 0.652489,0.3852704 0.112784,-0.1093336 0.242512,-0.1313869 0.242512,-0.041182 0,0.075951 -0.293741,0.366592 -0.435604,0.431029 -0.381073,0.173079 -0.806611,-0.02981 -0.950806,-0.4530067 C 10.108186,9.443641 10.096886,8.9964818 10.154196,8.7902399 10.256379,8.422372 10.56551,8.1883864 10.897284,8.2045561 Z m -1.4742775,0.00367 c 0.2796241,0.010412 0.5197972,0.1676408 0.5197972,0.4401787 0,0.1751515 -0.081482,0.260813 -0.2480022,0.260813 -0.1382193,0 -0.1915151,-0.07512 -0.2205458,-0.3129754 -0.023315,-0.1909975 -0.029615,-0.2003981 -0.1363554,-0.2003981 -0.1807147,0 -0.265156,0.1848738 -0.2672177,0.5875144 -0.00199,0.3873705 0.079528,0.6364903 0.2562369,0.7851828 0.1485648,0.1250067 0.3301284,0.1069092 0.4923424,-0.048501 0.089642,-0.08588 0.1162952,-0.095538 0.1436742,-0.051247 0.019483,0.03151 0.018753,0.081286 -9.433e-4,0.1180508 C 9.899075,9.9044095 9.6620234,10.084315 9.5172396,10.124521 9.1528559,10.225717 8.8396268,10.086141 8.6478616,9.7365104 8.5535961,9.5646247 8.5387024,9.4959547 8.5380473,9.2331873 8.5371039,8.8588372 8.5965762,8.6788806 8.7933689,8.4653914 8.9637675,8.2805281 9.2054994,8.2001376 9.4229806,8.208239 Z m -1.5712843,0.053981 h 0.3614752 v 0.7961656 c 0,0.6732846 0.00885,0.8060117 0.059485,0.8565639 0.032883,0.032889 0.075743,0.059481 0.095167,0.059481 0.019426,0 0.035684,0.026256 0.035684,0.057653 0,0.04757 -0.076097,0.05674 -0.456649,0.05674 -0.356227,0 -0.4566523,-0.0115 -0.4566523,-0.05125 0,-0.02804 0.041937,-0.070419 0.094248,-0.094261 L 7.679651,9.900288 V 9.1755153 8.4507299 L 7.58448,8.4077139 C 7.532146,8.3838729 7.490232,8.3414899 7.490232,8.3134549 c 0,-0.039022 0.084757,-0.051249 0.3614782,-0.051249 z m 2.9696068,0.1189704 c -0.05496,0.00239 -0.07848,0.031909 -0.117126,0.1244576 -0.03092,0.074018 -0.05582,0.2038746 -0.05582,0.2882667 V 8.947657 h 0.209575 0.208651 V 8.766473 c -8.33e-4,-0.2387616 -0.06878,-0.368072 -0.201331,-0.3834312 -0.01666,-0.00194 -0.03123,-0.00239 -0.04392,-0.00178 z" class="ColorScheme-Text"/>
  <g id="g9" transform="matrix(0.46959567,0,0,0.46959567,4.7471229,3.7470598)" style="fill:#999999;fill-opacity:1;stroke:none;stroke-width:0.58349;stroke-dasharray:none;stroke-opacity:0.3"/>
  </svg>
