<?xml version='1.0' encoding='UTF-8'?>
<svg xmlns:inkscape="http://www.inkscape.org/namespaces/inkscape" xmlns:sodipodi="http://sodipodi.sourceforge.net/DTD/sodipodi-0.dtd" xmlns="http://www.w3.org/2000/svg" xmlns:svg="http://www.w3.org/2000/svg" xmlns:rdf="http://www.w3.org/1999/02/22-rdf-syntax-ns#" xmlns:cc="http://creativecommons.org/ns#" xmlns:dc="http://purl.org/dc/elements/1.1/" width="64" height="64" version="1.1" viewBox="0 0 16.933 16.933" id="svg7" sodipodi:docname="libreoffice-base.svg" inkscape:version="1.4 (e7c3feb100, 2024-10-09)">
  <sodipodi:namedview id="namedview7" pagecolor="#9c4444" bordercolor="#000000" borderopacity="0.25" inkscape:showpageshadow="2" inkscape:pageopacity="0.0" inkscape:pagecheckerboard="0" inkscape:deskcolor="#d1d1d1" inkscape:zoom="6.15625" inkscape:cx="15.837563" inkscape:cy="29.725888" inkscape:window-width="1183" inkscape:window-height="941" inkscape:window-x="35" inkscape:window-y="32" inkscape:window-maximized="0" inkscape:current-layer="svg7" showgrid="false"/>
  <defs id="defs2">
    <style id="current-color-scheme" type="text/css">.ColorScheme-Text {color:#d8dee9} .ColorScheme-Highlight {color:#3b4252}</style></defs>
  <metadata id="metadata2">
    <rdf:RDF>
      <cc:Work rdf:about="">
        <dc:format>image/svg+xml</dc:format>
        <dc:type rdf:resource="http://purl.org/dc/dcmitype/StillImage"/>
      </cc:Work>
    </rdf:RDF>
  </metadata>
  <path id="path90" style="fill:currentColor;fill-opacity:1;stroke:none;stroke-width:0.421694;stroke-dasharray:none;stroke-opacity:0.3" d="M 8.5655282,2.2645481 C 7.8836273,2.264091 7.6193983,2.2889491 7.1103562,2.4028949 5.6868488,2.721527 4.5997258,3.4603198 4.1560454,4.4097749 3.8716912,5.0182782 3.8770891,5.638555 4.1729949,6.2498422 4.7276515,7.3956496 6.2109804,8.2002999 8.0596332,8.3586307 8.2903905,8.3783888 9.1678956,8.3511698 9.4199829,8.3165009 11.385784,8.0461746 12.840929,7.0077347 13.102145,5.6890544 13.151463,5.4400865 13.143301,5.0939105 13.08202,4.8350631 12.816273,3.7126422 11.603641,2.758946 9.9894518,2.4028959 9.4599391,2.2860996 9.2443281,2.2650742 8.5655346,2.2645495 Z M 12.812382,7.85136 12.732943,7.9589627 C 12.590296,8.1521906 12.278556,8.4509905 12.044272,8.6188152 10.471442,9.7454865 7.7652195,9.9385748 5.820462,9.0628897 5.2222401,8.7935227 4.7104935,8.4154195 4.3880689,8.0039408 4.2526825,7.8311622 4.2712833,7.8267613 4.1528669,8.0551796 3.9899161,8.3695107 3.9150865,8.7578608 3.9552776,9.0788316 3.9860101,9.3242299 4.078485,9.6045381 4.2031915,9.8303439 4.3287511,10.05769 4.7127276,10.482134 4.9591184,10.666116 c 0.7597798,0.56734 1.8107156,0.935047 2.9633172,1.036744 0.3347967,0.02955 1.1751465,0.01159 1.5187384,-0.03247 1.077959,-0.138187 2.016876,-0.491207 2.69951,-1.015679 0.220482,-0.169396 0.551868,-0.521038 0.67382,-0.7150746 0.119339,-0.1899012 0.240977,-0.4751488 0.284994,-0.6678225 0.04615,-0.2019924 0.04615,-0.554074 0,-0.7560672 C 13.061973,8.3514204 12.93207,8.0317853 12.857412,7.9190935 Z m -8.5254919,3.354479 c -0.03557,1.1e-5 -0.1825406,0.277278 -0.2532127,0.491901 -0.1171445,0.35575 -0.11761,0.71777 -0.00169,1.089691 0.3782959,1.212696 1.9858983,2.120573 4.0381411,2.280726 0.2348683,0.01843 1.0943267,-0.0076 1.3603493,-0.04157 0.8518252,-0.107939 1.6596412,-0.36492 2.2672492,-0.720765 0.445531,-0.260925 0.914023,-0.685279 1.117202,-1.011695 0.119282,-0.191613 0.240811,-0.476153 0.284468,-0.667253 0.04617,-0.201993 0.04617,-0.554074 0,-0.756069 -0.03745,-0.164084 -0.167124,-0.484323 -0.241534,-0.596655 l -0.0445,-0.06718 -0.101688,0.129789 c -0.586338,0.75186 -1.632366,1.298709 -2.9124499,1.52239 -2.1257285,0.371452 -4.3717107,-0.237787 -5.373062,-1.457477 -0.072502,-0.08831 -0.1313736,-0.168606 -0.1313736,-0.178201 0,-0.01254 -0.00285,-0.01767 -0.00794,-0.01767 z" class="ColorScheme-Text"/>
  <g id="g9" transform="matrix(0.46959567,0,0,0.46959567,4.7471229,3.7470598)" style="fill:#999999;fill-opacity:1;stroke:none;stroke-width:0.58349;stroke-dasharray:none;stroke-opacity:0.3"/>
  </svg>
