<?xml version='1.0' encoding='UTF-8'?>
<svg xmlns:inkscape="http://www.inkscape.org/namespaces/inkscape" xmlns:sodipodi="http://sodipodi.sourceforge.net/DTD/sodipodi-0.dtd" xmlns="http://www.w3.org/2000/svg" xmlns:svg="http://www.w3.org/2000/svg" xmlns:rdf="http://www.w3.org/1999/02/22-rdf-syntax-ns#" xmlns:cc="http://creativecommons.org/ns#" xmlns:dc="http://purl.org/dc/elements/1.1/" width="64" height="64" version="1.1" viewBox="0 0 16.933 16.933" id="svg7" sodipodi:docname="libreoffice-draw.svg" inkscape:version="1.4 (e7c3feb100, 2024-10-09)">
  <sodipodi:namedview id="namedview7" pagecolor="#9c4444" bordercolor="#000000" borderopacity="0.25" inkscape:showpageshadow="2" inkscape:pageopacity="0.0" inkscape:pagecheckerboard="0" inkscape:deskcolor="#d1d1d1" inkscape:zoom="4.3531261" inkscape:cx="15.735818" inkscape:cy="49.160074" inkscape:window-width="1183" inkscape:window-height="941" inkscape:window-x="35" inkscape:window-y="32" inkscape:window-maximized="0" inkscape:current-layer="svg7" showgrid="false"/>
  <defs id="defs2">
    <style id="current-color-scheme" type="text/css">.ColorScheme-Text {color:#d8dee9} .ColorScheme-Highlight {color:#3b4252}</style></defs>
  <metadata id="metadata2">
    <rdf:RDF>
      <cc:Work rdf:about="">
        <dc:format>image/svg+xml</dc:format>
        <dc:type rdf:resource="http://purl.org/dc/dcmitype/StillImage"/>
      </cc:Work>
    </rdf:RDF>
  </metadata>
  <path style="fill:currentColor;fill-opacity:1;stroke:none;stroke-width:0.47328;stroke-dasharray:none;stroke-opacity:0.3" d="M 6.4376916,14.480627 C 5.5546769,14.397101 4.7057729,13.920545 4.0799661,13.157053 3.6136,12.588079 3.2399234,11.535572 3.0996269,10.395799 L 3.0719317,10.170831 2.7722772,10.15698 C 2.6074674,10.14938 2.074118,10.13643 1.5870536,10.12828 l -0.88556969,-0.01484 5.7e-5,-0.2580396 c 3.097e-5,-0.1419224 0.006726,-0.4740397 0.014972,-0.7380396 l 0.014858,-0.4799997 0.36784859,0.00807 c 0.2023169,0.00443 0.7223045,0.017176 1.1555313,0.028367 0.4332242,0.011172 0.7904595,0.017613 0.7938567,0.014269 0.00338,-0.00323 0.016188,-0.1404632 0.028424,-0.3047976 0.058435,-0.7848556 0.2944586,-1.6591225 0.6207813,-2.29946 0.4964377,-0.9741511 1.1928314,-1.5471489 2.054276,-1.6902768 0.9907086,-0.1646046 1.9717879,0.077172 2.81965,0.6948699 0.299968,0.2185357 0.8102001,0.7163503 1.1124146,1.0853364 0.1314572,0.1605044 0.4446226,0.5708427 0.6959166,0.9118619 0.802106,1.0884959 1.063301,1.3851676 1.336578,1.5181078 0.165851,0.080687 0.226727,0.085578 0.354409,0.02851 0.128497,-0.057445 0.167808,-0.1093982 0.196969,-0.2603291 0.05635,-0.2917152 -0.0072,-0.6909443 -0.290113,-1.8178636 -0.2727,-1.086799 -0.313624,-1.3263833 -0.314306,-1.8401334 -5.24e-4,-0.3772602 0.0044,-0.4301471 0.06072,-0.6340711 0.222705,-0.8086305 0.845363,-1.3460124 1.559592,-1.3460124 0.57973,0 1.347353,0.3223392 2.130313,0.8945527 0.237426,0.1735175 0.879873,0.70016 0.891976,0.7311912 0.01121,0.028584 -0.955197,1.1137025 -0.979036,1.0993645 C 15.315966,5.452048 15.179964,5.3406909 15.025596,5.2115378 14.504862,4.7759045 14.128627,4.5226282 13.739359,4.3456586 13.46304,4.220042 13.329104,4.1890834 13.258036,4.2344155 c -0.0692,0.04415 -0.101156,0.1604227 -0.101308,0.3688303 -2.64e-4,0.3481095 0.07347,0.7452022 0.311773,1.6791509 0.273022,1.070006 0.343773,1.511794 0.322135,2.0115136 -0.01482,0.3477236 -0.07459,0.5866309 -0.216754,0.8696194 -0.09086,0.1808895 -0.137636,0.2419874 -0.324569,0.4238242 C 13.07153,9.7603299 12.992701,9.8188378 12.825248,9.9021416 12.110463,10.257726 11.412488,10.205618 10.744836,9.7468304 10.381955,9.4974651 9.9543616,9.0408516 9.4983591,8.4157518 9.3654495,8.2335583 9.1547711,7.9443259 9.0301833,7.7730156 8.1571778,6.5726177 7.4624031,5.976684 6.7757452,5.8392994 6.4446162,5.7730477 5.9804766,5.8137541 5.7455448,5.9296503 5.4932611,6.054106 5.211608,6.3892899 5.0199432,6.7931579 4.7919367,7.2736008 4.6140346,7.9832235 4.5753107,8.5667155 l -0.01577,0.2375002 0.1106351,0.014459 c 0.9522276,0.1244975 1.5458947,0.2813435 2.1153494,0.5588734 0.8106629,0.3950853 1.3039554,0.8877639 1.7343666,1.7322109 0.4741792,0.930313 0.5113665,1.755697 0.108395,2.405881 -0.3415467,0.551087 -0.9397112,0.894913 -1.6785824,0.964856 -0.2489186,0.02356 -0.2643354,0.02356 -0.5120209,1.33e-4 z m 0.750132,-1.564893 c 0.09044,-0.04566 0.1303837,-0.08176 0.1556404,-0.140581 C 7.4635022,12.495469 7.347416,12.031892 7.0250793,11.503711 6.7176259,10.999894 6.3532904,10.733897 5.6725753,10.516226 5.4261206,10.437418 4.8314674,10.320729 4.6751523,10.320502 l -0.059962,-8.9e-5 0.043221,0.239168 c 0.100567,0.556602 0.2598529,1.055423 0.4613857,1.444886 0.1749748,0.338145 0.4735028,0.611838 0.8722589,0.799701 0.3103332,0.146205 0.4953132,0.187112 0.8112967,0.179398 0.2352217,-0.0057 0.2755869,-0.01292 0.3844779,-0.06783 z" id="path109" class="ColorScheme-Text"/>
</svg>
