<?xml version='1.0' encoding='UTF-8'?>
<svg xmlns:inkscape="http://www.inkscape.org/namespaces/inkscape" xmlns:sodipodi="http://sodipodi.sourceforge.net/DTD/sodipodi-0.dtd" xmlns="http://www.w3.org/2000/svg" xmlns:svg="http://www.w3.org/2000/svg" xmlns:rdf="http://www.w3.org/1999/02/22-rdf-syntax-ns#" xmlns:cc="http://creativecommons.org/ns#" xmlns:dc="http://purl.org/dc/elements/1.1/" width="64" height="64" version="1.1" viewBox="0 0 16.933 16.933" id="svg7" sodipodi:docname="libreoffice-impress.svg" inkscape:version="1.4 (e7c3feb100, 2024-10-09)">
  <sodipodi:namedview id="namedview7" pagecolor="#9c4444" bordercolor="#000000" borderopacity="0.25" inkscape:showpageshadow="2" inkscape:pageopacity="0.0" inkscape:pagecheckerboard="0" inkscape:deskcolor="#d1d1d1" inkscape:zoom="6.15625" inkscape:cx="15.837563" inkscape:cy="29.725888" inkscape:window-width="1183" inkscape:window-height="941" inkscape:window-x="35" inkscape:window-y="32" inkscape:window-maximized="0" inkscape:current-layer="svg7" showgrid="false"/>
  <defs id="defs2">
    <style id="current-color-scheme" type="text/css">.ColorScheme-Text {color:#d8dee9} .ColorScheme-Highlight {color:#3b4252}</style></defs>
  <metadata id="metadata2">
    <rdf:RDF>
      <cc:Work rdf:about="">
        <dc:format>image/svg+xml</dc:format>
        <dc:type rdf:resource="http://purl.org/dc/dcmitype/StillImage"/>
      </cc:Work>
    </rdf:RDF>
  </metadata>
  <path id="path58" style="fill:currentColor;fill-opacity:1;stroke-width:0.0635354;stroke-opacity:0.3" d="M 4.2342954,4.3496514 3.8691299,4.3901404 C 3.0176686,4.485781 2.1416282,5.1477638 1.736951,6.0020684 1.5447884,6.4077458 1.5337413,6.4722223 1.5337413,7.1625039 c 0,0.7022202 0.00857,0.7482776 0.2169608,1.1757154 0.3615088,0.7415687 1.0401295,1.3063408 1.8479896,1.5378258 0.1704338,0.04883 0.4965614,0.071826 0.8074924,0.057295 C 5.2609994,9.893391 6.0795294,9.4350242 6.55746,8.7285958 6.791612,8.3825003 7.02958,7.7176615 7.02958,7.4100235 V 7.2259147 H 5.6315556 4.2342954 V 5.7874011 Z M 8.5544206,5.0654693 V 5.5421734 6.018876 h 3.4942954 3.495058 V 5.5421734 5.0654693 h -3.495058 z m 0,3.177257 v 0.5080248 0.5087896 h 3.4942954 3.495058 V 8.7507511 8.2427263 H 12.048716 Z M 2.2006662,11.482628 v 0.476703 0.476703 H 7.4741969 12.747728 V 11.959331 11.482628 H 7.4741969 Z" class="ColorScheme-Text"/>
  <g id="g9" transform="matrix(0.46959567,0,0,0.46959567,4.7471229,3.7470598)" style="fill:#999999;fill-opacity:1;stroke:none;stroke-width:0.58349;stroke-dasharray:none;stroke-opacity:0.3"/>
  </svg>
