<?xml version='1.0' encoding='UTF-8'?>
<svg xmlns:inkscape="http://www.inkscape.org/namespaces/inkscape" xmlns:sodipodi="http://sodipodi.sourceforge.net/DTD/sodipodi-0.dtd" xmlns="http://www.w3.org/2000/svg" xmlns:svg="http://www.w3.org/2000/svg" xmlns:rdf="http://www.w3.org/1999/02/22-rdf-syntax-ns#" xmlns:cc="http://creativecommons.org/ns#" xmlns:dc="http://purl.org/dc/elements/1.1/" width="64" height="64" version="1.1" viewBox="0 0 16.933 16.933" id="svg7" sodipodi:docname="obsidian.svg" inkscape:version="1.4.2 (ebf0e940d0, 2025-05-08)">
  <sodipodi:namedview id="namedview7" pagecolor="#9c4444" bordercolor="#000000" borderopacity="0.25" inkscape:showpageshadow="2" inkscape:pageopacity="0.0" inkscape:pagecheckerboard="0" inkscape:deskcolor="#d1d1d1" inkscape:zoom="4.3531261" inkscape:cx="36.295755" inkscape:cy="40.660435" inkscape:window-width="2560" inkscape:window-height="1376" inkscape:window-x="0" inkscape:window-y="0" inkscape:window-maximized="1" inkscape:current-layer="svg7" showgrid="false"/>
  <defs id="defs2">
    <style id="current-color-scheme" type="text/css">.ColorScheme-Text {color:#d8dee9} .ColorScheme-Highlight {color:#3b4252}</style>
    </defs>
  <metadata id="metadata2">
    <rdf:RDF>
      <cc:Work rdf:about="">
        <dc:format>image/svg+xml</dc:format>
        <dc:type rdf:resource="http://purl.org/dc/dcmitype/StillImage"/>
      </cc:Work>
    </rdf:RDF>
  </metadata>
  <path d="M 13.013744,12.508775 A 42.640671,42.635727 0 0 0 14.1625,10.682385 0.50080392,0.50080392 0 0 0 14.12417,10.125937 C 13.805137,9.702418 13.194278,8.843014 12.861646,8.047292 12.519741,7.2305487 12.468424,5.9606087 12.465948,5.3410957 A 1.0553979,1.0553979 0 0 0 12.244604,4.6919055 L 10.267357,2.1792299 a 2.314827,2.314827 0 0 1 -0.047,0.3357245 c -0.06555,0.3109929 -0.189821,0.6207493 -0.3313974,0.9274143 -0.08283,0.1793005 -0.179296,0.3709659 -0.27575,0.5651046 l -0.191669,0.3870412 c -0.319031,0.6603193 -0.616423,1.3769017 -0.699889,2.2196125 -0.07666,0.7790283 0.02843,1.687895 0.503895,2.770497 0.07914,0.0068 0.15891,0.01547 0.238657,0.02721 a 3.934093,3.934093 0 0 1 2.0563844,0.930506 c 0.566352,0.488438 1.078285,1.188328 1.493149,2.163968 z m -6.8974934,2.492271 c 0.04513,0.0074 0.09027,0.0123 0.136025,0.0123 0.482255,0.01477 1.295288,0.05688 1.953753,0.179297 0.5379,0.09892 1.60319,0.395696 2.4792884,0.652283 0.669591,0.195375 1.358971,-0.338817 1.456042,-1.028814 0.07047,-0.503276 0.204029,-1.072707 0.448249,-1.595152 l -0.0061,0.003 C 12.169134,12.067911 11.642361,11.321033 11.089623,10.844342 A 3.2737737,3.2737737 0 0 0 9.3720506,10.067168 c -0.952145,-0.133547 -1.825151,0.117472 -2.374181,0.278224 0.328924,1.371338 0.227515,2.985658 -0.881043,4.65624 z M 4.4679256,7.1915973 c -0.0142,0.061828 -0.03464,0.1217995 -0.06059,0.1793005 l -1.616794,3.6051692 a 0.99047886,0.99047886 0 0 0 0.193513,1.095587 l 2.544834,2.621491 C 6.8291256,12.775871 6.6393136,10.971121 6.0457676,9.561451 5.5956616,8.491833 4.9130846,7.6565411 4.4691626,7.1928337 Z M 6.8093386,9.709219 C 7.1895796,9.596074 7.8022906,9.42172 8.5065076,9.379059 8.0842256,8.312532 7.9822106,7.3801716 8.0638216,6.549208 c 0.0952,-0.9595652 0.432794,-1.7602331 0.763571,-2.442192 0.06987,-0.1452944 0.13788,-0.2806977 0.202791,-0.4105356 0.09211,-0.1836297 0.178067,-0.3567453 0.259057,-0.5317177 0.134151,-0.29059 0.234327,-0.5471748 0.284408,-0.7852113 0.04946,-0.2349448 0.04946,-0.4451588 -0.0087,-0.644862 -0.05872,-0.2009401 -0.183632,-0.4173368 -0.420427,-0.6553731 a 0.98924229,0.98924229 0 0 0 -0.911959,0.2225793 l -3.06047,2.7525667 a 0.99047886,0.99047886 0 0 0 -0.317181,0.5885991 l -0.264005,1.7497223 c 0.415481,0.3647831 1.439349,1.4319283 2.061952,2.9127003 0.05563,0.129839 0.108199,0.265859 0.156431,0.403735 z" stroke-width="0.618277" id="path1-7-4" style="color:none;fill:currentColor;fill-opacity:1;stroke:none;stroke-opacity:0" class="ColorScheme-Text"/>
</svg>
