<?xml version='1.0' encoding='UTF-8'?>
<svg xmlns:inkscape="http://www.inkscape.org/namespaces/inkscape" xmlns:sodipodi="http://sodipodi.sourceforge.net/DTD/sodipodi-0.dtd" xmlns="http://www.w3.org/2000/svg" xmlns:svg="http://www.w3.org/2000/svg" xmlns:rdf="http://www.w3.org/1999/02/22-rdf-syntax-ns#" xmlns:cc="http://creativecommons.org/ns#" xmlns:dc="http://purl.org/dc/elements/1.1/" width="64" height="64" version="1.1" viewBox="0 0 16.933 16.933" id="svg7" sodipodi:docname="okular.svg" inkscape:version="1.4 (e7c3feb100, 2024-10-09)">
  <sodipodi:namedview id="namedview7" pagecolor="#9c4444" bordercolor="#000000" borderopacity="0.25" inkscape:showpageshadow="2" inkscape:pageopacity="0.0" inkscape:pagecheckerboard="0" inkscape:deskcolor="#d1d1d1" inkscape:zoom="6.15625" inkscape:cx="15.51269" inkscape:cy="29.725888" inkscape:window-width="1183" inkscape:window-height="941" inkscape:window-x="35" inkscape:window-y="32" inkscape:window-maximized="0" inkscape:current-layer="svg7" showgrid="false"/>
  <defs id="defs2">
    <style id="current-color-scheme" type="text/css">.ColorScheme-Text {color:#d8dee9} .ColorScheme-Highlight {color:#3b4252}</style></defs>
  <metadata id="metadata2">
    <rdf:RDF>
      <cc:Work rdf:about="">
        <dc:format>image/svg+xml</dc:format>
        <dc:type rdf:resource="http://purl.org/dc/dcmitype/StillImage"/>
      </cc:Work>
    </rdf:RDF>
  </metadata>
  <path style="fill:currentColor;stroke:none;stroke-width:0.399084;stroke-dasharray:none;stroke-opacity:0.3" d="m 8.4868034,0.90382877 c -1.3312628,0.010526 -1.5371886,-0.011609 -3.0075689,0 C 4.2523609,2.0648291 3.2126939,3.6074032 2.3620834,5.3607169 1.0486579,8.0679982 0.73636934,10.354699 1.4359562,12.229452 c 0.6995805,1.874766 2.3049333,3.050159 4.809257,3.53028 2.6323176,0.504657 5.0725708,0.119947 7.3223348,-1.164525 0.344141,-0.196483 1.782346,-0.806516 2.105352,-1.037894 C 15.811638,12.578695 15.66264,11.307688 15.65168,9.9178528 14.838362,11.040586 12.853548,12.983355 11.899364,13.676551 10.211238,14.90291 8.4668458,15.340634 6.6586336,14.993967 4.9384086,14.664175 3.9285749,13.68838 3.6317978,12.064905 3.346687,10.435387 3.8122163,8.3690038 5.029989,5.8588893 6.0285606,3.8005874 7.179207,2.1051494 8.4868034,0.90382877 Z" id="path10" sodipodi:nodetypes="scscsscccsccs" class="ColorScheme-Text"/>
  <g id="g9" transform="matrix(0.46959567,0,0,0.46959567,4.7471229,3.7470598)" style="fill:#999999;fill-opacity:1;stroke:none;stroke-width:0.58349;stroke-dasharray:none;stroke-opacity:0.3"/>
  </svg>
