<?xml version='1.0' encoding='UTF-8'?>
<svg xmlns:inkscape="http://www.inkscape.org/namespaces/inkscape" xmlns:sodipodi="http://sodipodi.sourceforge.net/DTD/sodipodi-0.dtd" xmlns="http://www.w3.org/2000/svg" xmlns:svg="http://www.w3.org/2000/svg" xmlns:rdf="http://www.w3.org/1999/02/22-rdf-syntax-ns#" xmlns:cc="http://creativecommons.org/ns#" xmlns:dc="http://purl.org/dc/elements/1.1/" width="64" height="64" version="1.1" viewBox="0 0 16.933 16.933" id="svg7" sodipodi:docname="org.kde.elisa.svg" inkscape:version="1.4.2 (ebf0e940d0, 2025-05-08)">
  <sodipodi:namedview id="namedview7" pagecolor="#9c4444" bordercolor="#000000" borderopacity="0.25" inkscape:showpageshadow="2" inkscape:pageopacity="0.0" inkscape:pagecheckerboard="0" inkscape:deskcolor="#d1d1d1" inkscape:zoom="6.15625" inkscape:cx="15.837563" inkscape:cy="29.64467" inkscape:window-width="1183" inkscape:window-height="941" inkscape:window-x="0" inkscape:window-y="0" inkscape:window-maximized="0" inkscape:current-layer="svg7" showgrid="false"/>
  <defs id="defs2">
    <style id="current-color-scheme" type="text/css">.ColorScheme-Text {color:#d8dee9} .ColorScheme-Highlight {color:#3b4252}</style>
  </defs>
  <metadata id="metadata2">
    <rdf:RDF>
      <cc:Work rdf:about="">
        <dc:format>image/svg+xml</dc:format>
        <dc:type rdf:resource="http://purl.org/dc/dcmitype/StillImage"/>
      </cc:Work>
    </rdf:RDF>
  </metadata>
  <path id="path2" style="fill:currentColor;color:none" class="ColorScheme-Text" d="M 4.8945501 4.8880241 C 4.0752071 4.8880241 3.4064056 5.5568257 3.4064056 6.3761686 L 3.4064056 9.9481184 L 3.4064056 11.138768 C 3.4064056 11.95811 4.0752071 12.626913 4.8945501 12.626913 L 12.03845 12.626913 C 12.857793 12.626913 13.526594 11.95811 13.526594 11.138768 L 13.526594 6.3761686 C 13.526594 5.5568257 12.857793 4.8880241 12.03845 4.8880241 L 4.8945501 4.8880241 z M 4.8945501 5.4833491 L 12.03845 5.4833491 C 12.538293 5.4833491 12.931269 5.876325 12.931269 6.3761686 L 12.931269 9.9481184 C 12.931269 10.447961 12.538293 10.840938 12.03845 10.840938 L 4.8945501 10.840938 C 4.3947067 10.840938 4.0017306 10.447961 4.0017306 9.9481184 L 4.0017306 6.3761686 C 4.0017306 6.3449284 4.0034302 6.3141676 4.0064314 6.2838312 C 4.05145 5.8287846 4.4259469 5.4833491 4.8945501 5.4833491 z M 6.5015582 7.0705465 C 5.8987012 7.0705465 5.4099612 7.5592864 5.4099612 8.1621435 C 5.4099612 8.7650004 5.8987012 9.2537405 6.5015582 9.2537405 L 10.431442 9.2537405 C 11.034299 9.2537405 11.523039 8.7650005 11.523039 8.1621435 C 11.523039 7.5592864 11.034299 7.0705465 10.431442 7.0705465 L 6.5015582 7.0705465 z M 6.5015582 7.5073868 C 6.8632637 7.5073868 7.1566507 7.800438 7.1566507 8.1621435 C 7.1566507 8.5238489 6.8632637 8.817236 6.5015582 8.817236 C 6.1398527 8.817236 5.8468014 8.5238489 5.8468014 8.1621435 C 5.8468014 7.800438 6.1398527 7.5073868 6.5015582 7.5073868 z M 10.431442 7.5073868 C 10.793148 7.5073868 11.086198 7.800438 11.086198 8.1621435 C 11.086198 8.5238489 10.793148 8.817236 10.431442 8.817236 C 10.069738 8.817236 9.7763491 8.5238489 9.7763491 8.1621435 C 9.7763491 7.800438 10.069738 7.5073868 10.431442 7.5073868 z M 4.0017306 11.137089 C 4.2507966 11.324763 4.5600727 11.436263 4.8945501 11.436263 L 12.03845 11.436263 C 12.372927 11.436263 12.682203 11.324763 12.931269 11.137089 L 12.931269 11.138768 C 12.931269 11.638611 12.538293 12.031588 12.03845 12.031588 L 4.8945501 12.031588 C 4.3947067 12.031588 4.0017306 11.638611 4.0017306 11.138768 L 4.0017306 11.137089 z " transform="matrix(1.539,0,0,1.539,-4.5634432,-4.7203113)"/>
</svg>
