<?xml version='1.0' encoding='UTF-8'?>
<svg xmlns:inkscape="http://www.inkscape.org/namespaces/inkscape" xmlns:sodipodi="http://sodipodi.sourceforge.net/DTD/sodipodi-0.dtd" xmlns="http://www.w3.org/2000/svg" xmlns:svg="http://www.w3.org/2000/svg" xmlns:rdf="http://www.w3.org/1999/02/22-rdf-syntax-ns#" xmlns:cc="http://creativecommons.org/ns#" xmlns:dc="http://purl.org/dc/elements/1.1/" width="64" height="64" version="1.1" viewBox="0 0 16.933 16.933" id="svg7" sodipodi:docname="org.gnome.DejaDup.svg" inkscape:version="1.4 (e7c3feb100, 2024-10-09)">
  <sodipodi:namedview id="namedview7" pagecolor="#9c4444" bordercolor="#000000" borderopacity="0.25" inkscape:showpageshadow="2" inkscape:pageopacity="0.0" inkscape:pagecheckerboard="0" inkscape:deskcolor="#d1d1d1" inkscape:zoom="4.3531261" inkscape:cx="16.195258" inkscape:cy="17.228998" inkscape:window-width="1183" inkscape:window-height="941" inkscape:window-x="35" inkscape:window-y="32" inkscape:window-maximized="0" inkscape:current-layer="svg7" showgrid="false"/>
  <defs id="defs2">
    <style id="current-color-scheme" type="text/css">.ColorScheme-Text {color:#d8dee9} .ColorScheme-Highlight {color:#3b4252}</style></defs>
  <metadata id="metadata2">
    <rdf:RDF>
      <cc:Work rdf:about="">
        <dc:format>image/svg+xml</dc:format>
        <dc:type rdf:resource="http://purl.org/dc/dcmitype/StillImage"/>
      </cc:Work>
    </rdf:RDF>
  </metadata>
  <path id="path58" style="fill:currentColor;fill-opacity:1;stroke:none;stroke-width:0.407185;stroke-dasharray:none;stroke-dashoffset:2.2;stroke-opacity:0.3" d="m 8.4206832,1.6673079 c -0.3821449,0 -0.4507518,0.014003 -0.732458,0.1526954 C 7.2867657,2.0176527 6.9322414,2.3947337 6.832499,2.7306049 6.7723241,2.9332503 6.7613668,3.4078335 6.7593357,5.8027892 L 6.7568657,8.6355934 4.3288614,10.77809 c -2.302952,2.032227 -2.4362938,2.157935 -2.5743379,2.438344 -0.3960616,0.804514 0.058359,1.722358 0.9980824,2.016045 0.4594297,0.143583 1.124857,0.04864 1.5197891,-0.217111 0.1102855,-0.07421 1.0868748,-0.919258 2.1695389,-1.87767 1.082661,-0.958407 1.9827746,-1.748319 2.000141,-1.755191 0.017366,-0.007 0.9453357,0.79861 2.0629681,1.789388 2.383999,2.113415 2.372613,2.10512 3.107177,2.10512 0.428868,0 0.495207,-0.01292 0.780174,-0.147934 0.356281,-0.168796 0.639727,-0.4373 0.796083,-0.754726 0.158916,-0.322643 0.151582,-0.834438 -0.01672,-1.155548 -0.154698,-0.295121 -0.265663,-0.399374 -2.854307,-2.684083 L 10.179854,8.6475211 10.163956,5.7654095 C 10.151827,3.541463 10.134707,2.8450784 10.0876,2.7178789 9.9896449,2.4533759 9.792062,2.1957243 9.54283,2.0068943 9.2083793,1.7534995 8.922651,1.6673079 8.4206832,1.6673079 Z m 0.00477,6.6962967 C 9.1435825,8.3191076 9.8244703,8.9008507 9.7408564,9.7171793 9.6960869,10.154265 9.4227005,10.525631 9.0068081,10.713671 8.1736625,11.090365 7.1957523,10.383335 7.2897867,9.4722313 7.3206282,9.1733937 7.5201394,8.7852973 7.7216274,8.6316156 7.9423939,8.4632287 8.1860777,8.3784368 8.4254532,8.3636046 Z" class="ColorScheme-Text"/>
</svg>
