<?xml version='1.0' encoding='UTF-8'?>
<svg xmlns:inkscape="http://www.inkscape.org/namespaces/inkscape" xmlns:sodipodi="http://sodipodi.sourceforge.net/DTD/sodipodi-0.dtd" xmlns="http://www.w3.org/2000/svg" xmlns:svg="http://www.w3.org/2000/svg" xmlns:rdf="http://www.w3.org/1999/02/22-rdf-syntax-ns#" xmlns:cc="http://creativecommons.org/ns#" xmlns:dc="http://purl.org/dc/elements/1.1/" width="64" height="64" version="1.1" viewBox="0 0 16.933 16.933" id="svg7" sodipodi:docname="org.kde.okular.svg" inkscape:version="1.4 (e7c3feb100, 2024-10-09)">
  <sodipodi:namedview id="namedview7" pagecolor="#9c4444" bordercolor="#000000" borderopacity="0.25" inkscape:showpageshadow="2" inkscape:pageopacity="0.0" inkscape:pagecheckerboard="0" inkscape:deskcolor="#d1d1d1" inkscape:zoom="6.15625" inkscape:cx="32.243655" inkscape:cy="29.725888" inkscape:window-width="1183" inkscape:window-height="941" inkscape:window-x="35" inkscape:window-y="32" inkscape:window-maximized="0" inkscape:current-layer="svg7" showgrid="false"/>
  <defs id="defs2">
    <style id="current-color-scheme" type="text/css">.ColorScheme-Text {color:#d8dee9} .ColorScheme-Highlight {color:#3b4252}</style></defs>
  <metadata id="metadata2">
    <rdf:RDF>
      <cc:Work rdf:about="">
        <dc:format>image/svg+xml</dc:format>
        <dc:type rdf:resource="http://purl.org/dc/dcmitype/StillImage"/>
      </cc:Work>
    </rdf:RDF>
  </metadata>
  <path style="fill:currentColor;stroke:none;stroke-width:0.399084;stroke-dasharray:none;stroke-opacity:0.3" d="m 8.4868035,0.93028659 c -1.3312627,0.010526 -1.5371885,-0.011609 -3.0075689,0 C 4.2523611,2.0912869 3.212694,3.633861 2.3620836,5.3871747 1.048658,8.094456 0.73636948,10.381157 1.4359563,12.25591 c 0.6995806,1.874766 2.3049333,3.05016 4.809257,3.53028 2.6323176,0.504657 5.0725707,0.119947 7.3223347,-1.164525 0.344141,-0.196483 1.782346,-0.806516 2.105352,-1.037894 0.138738,-0.978618 -0.01026,-2.249625 -0.02122,-3.6394604 -0.813318,1.1227334 -2.798132,3.0655024 -3.752316,3.7586984 -1.688126,1.226359 -3.4325181,1.664083 -5.2407302,1.317416 C 4.9384087,14.690633 3.9285751,13.714839 3.6317979,12.091363 3.3466871,10.461845 3.8122164,8.3954616 5.0299891,5.8853471 6.0285607,3.8270452 7.1792072,2.1316072 8.4868035,0.93028659 Z" id="path10" sodipodi:nodetypes="scscsscccsccs" class="ColorScheme-Text"/>
  <g id="g9" transform="matrix(0.46959567,0,0,0.46959567,4.7471229,3.7470598)" style="fill:#999999;fill-opacity:1;stroke:none;stroke-width:0.58349;stroke-dasharray:none;stroke-opacity:0.3"/>
  </svg>
