<?xml version='1.0' encoding='UTF-8'?>
<svg xmlns:inkscape="http://www.inkscape.org/namespaces/inkscape" xmlns:sodipodi="http://sodipodi.sourceforge.net/DTD/sodipodi-0.dtd" xmlns="http://www.w3.org/2000/svg" xmlns:svg="http://www.w3.org/2000/svg" xmlns:rdf="http://www.w3.org/1999/02/22-rdf-syntax-ns#" xmlns:cc="http://creativecommons.org/ns#" xmlns:dc="http://purl.org/dc/elements/1.1/" width="64" height="64" version="1.1" viewBox="0 0 16.933 16.933" id="svg7" sodipodi:docname="org.gnome.Calculator.svg" inkscape:version="1.4 (e7c3feb100, 2024-10-09)">
  <sodipodi:namedview id="namedview7" pagecolor="#9c4444" bordercolor="#000000" borderopacity="0.25" inkscape:showpageshadow="2" inkscape:pageopacity="0.0" inkscape:pagecheckerboard="0" inkscape:deskcolor="#d1d1d1" inkscape:zoom="6.15625" inkscape:cx="15.51269" inkscape:cy="29.888325" inkscape:window-width="1183" inkscape:window-height="941" inkscape:window-x="35" inkscape:window-y="32" inkscape:window-maximized="0" inkscape:current-layer="svg7" showgrid="false"/>
  <defs id="defs2">
    <style id="current-color-scheme" type="text/css">.ColorScheme-Text {color:#d8dee9} .ColorScheme-Highlight {color:#3b4252}</style></defs>
  <metadata id="metadata2">
    <rdf:RDF>
      <cc:Work rdf:about="">
        <dc:format>image/svg+xml</dc:format>
        <dc:type rdf:resource="http://purl.org/dc/dcmitype/StillImage"/>
      </cc:Work>
    </rdf:RDF>
  </metadata>
  <path id="path5089" style="fill:currentColor;fill-opacity:1;stroke:none;stroke-width:0.190948;stroke-dasharray:none;stroke-opacity:0.6;color:none" d="m 8.4658415,1.149592 c -4.3717286,0 -4.8420464,0.015158 -5.0886926,0.160831 C 2.8042533,1.6488402 2.81987,1.441884 2.81987,8.6153671 c 0,4.0896449 0.035066,6.6355529 0.09328,6.7886749 0.051231,0.134728 0.2050928,0.349453 0.3425697,0.476864 L 3.505812,16.112502 H 8.4658398 13.42587 l 0.250091,-0.231596 c 0.1375,-0.127402 0.292145,-0.342122 0.343374,-0.476864 0.05821,-0.15312 0.09328,-2.69903 0.09328,-6.7886749 0,-7.1734828 0.0154,-6.9665266 -0.55728,-7.3049438 C 13.30868,1.1647261 12.837559,1.1495923 8.4658281,1.1495923 Z m 0.00803,1.2239238 h 3.7425375 l 0.195404,0.2476802 c 0.151382,0.1924626 0.19459,0.3834627 0.19459,0.8532073 0,0.585613 -0.105138,0.9421126 -0.320052,1.0856096 -0.05694,0.038027 -1.78377,0.069181 -3.837427,0.069964 C 4.3123713,4.63156 4.4859029,4.6579745 4.3646389,4.0115802 4.2702985,3.5087216 4.3704689,2.7721536 4.5616533,2.5608837 4.7254213,2.3799249 4.8569805,2.3735163 8.4738691,2.3735163 Z m 3.0131765,3.7923948 c 0.952746,0.03325 1.487756,1.2747519 0.639306,1.988675 -0.443293,0.3730092 -1.039186,0.3407426 -1.458735,-0.078807 -0.273018,-0.2730173 -0.319251,-0.3844779 -0.319251,-0.7615346 0,-0.5463484 0.252608,-0.9330163 0.707656,-1.0831966 0.150339,-0.049617 0.294922,-0.069885 0.431028,-0.065138 z m -3.0662433,0.00242 C 8.7162693,6.1541494 9.0208188,6.2578024 9.2571252,6.5044536 9.7633083,7.0327944 9.6477491,7.9358938 9.0335753,8.2534954 8.1749512,8.6974975 7.2173228,8.0403462 7.3681707,7.1107818 7.4601723,6.5438394 7.9283679,6.1919267 8.4208091,6.1683117 Z m -2.9641152,0.00803 c 0.3073716,-0.0081 0.6244999,0.1011912 0.8612498,0.3546332 0.218636,0.2340487 0.2661756,0.369114 0.2661756,0.7551014 0,0.4090141 -0.041604,0.5112296 -0.3200534,0.7896801 -0.273099,0.2731075 -0.3848117,0.3200586 -0.7623354,0.3200586 -0.3775246,0 -0.4892371,-0.04695 -0.7623396,-0.3200534 C 4.4327481,7.7691256 4.3771404,7.5968012 4.4169211,7.0786151 4.4590035,6.5304715 4.9444076,6.1898616 5.4566939,6.1763525 Z m 0.045032,2.9464246 c 0.2658781,0 0.5318513,0.1152998 0.7623389,0.3457863 0.2718324,0.2718331 0.3200531,0.3853185 0.3200531,0.7559055 0,0.527308 -0.2098602,0.879518 -0.628045,1.054247 -0.3797547,0.158661 -0.5601486,0.15709 -0.9416576,-0.0088 C 4.5477511,11.066882 4.3759377,10.709141 4.4088801,10.009756 4.414613,9.888128 4.5634127,9.6445361 4.7393874,9.4685609 4.9698746,9.238074 5.235848,9.1227748 5.501727,9.1227748 Z m 5.9748705,0.0209 c 0.4625,0.0017 0.901096,0.267624 1.029319,0.7293688 0.12892,0.464201 0.12892,3.263057 0,3.727255 -0.06675,0.240418 -0.19723,0.417452 -0.39886,0.540392 -0.329627,0.200992 -0.944495,0.238199 -1.241616,0.07478 -0.494705,-0.272056 -0.513233,-0.362096 -0.515455,-2.492877 l -0.0016,-1.9894783 0.332115,-0.2927124 c 0.23216,-0.203839 0.518613,-0.2977509 0.796115,-0.2967329 z m -3.0107555,0.00486 c 1.0070579,0 1.4902291,1.1884098 0.7744013,1.9042378 -0.5318067,0.53178 -1.437326,0.375538 -1.7828063,-0.307221 -0.3711803,-0.733548 0.1738139,-1.59705 1.0084103,-1.59705 z m -3.002709,2.9632768 c 0.6456129,-0.0345 1.1209913,0.441366 1.1209913,1.182106 0,0.318628 -0.058991,0.44981 -0.3200533,0.710875 -0.2695559,0.269555 -0.3868412,0.320051 -0.7454515,0.320051 -0.7527919,0 -1.2576019,-0.645293 -1.091239,-1.395207 0.092677,-0.417769 0.3245288,-0.656757 0.7494729,-0.771183 0.098316,-0.02647 0.1940488,-0.04171 0.2862796,-0.04664 z m 3.0027143,0.01936 c 0.507842,0 1.0155191,0.315207 1.100084,0.945683 0.056577,0.421821 -0.1308626,0.869242 -0.4615846,1.100891 -0.1155066,0.08089 -0.4023778,0.147158 -0.6384994,0.147158 -0.7280005,0 -1.1962107,-0.531366 -1.1000839,-1.248049 0.084564,-0.63047 0.592242,-0.945677 1.1000839,-0.945677 z" class="ColorScheme-Text"/>
  <g id="g9" transform="matrix(0.46959567,0,0,0.46959567,4.7471229,3.7470598)" style="fill:#999999;fill-opacity:1;stroke:none;stroke-width:0.58349;stroke-dasharray:none;stroke-opacity:0.3"/>
  </svg>
