<?xml version='1.0' encoding='UTF-8'?>
<svg xmlns:inkscape="http://www.inkscape.org/namespaces/inkscape" xmlns:sodipodi="http://sodipodi.sourceforge.net/DTD/sodipodi-0.dtd" xmlns="http://www.w3.org/2000/svg" xmlns:svg="http://www.w3.org/2000/svg" xmlns:rdf="http://www.w3.org/1999/02/22-rdf-syntax-ns#" xmlns:cc="http://creativecommons.org/ns#" xmlns:dc="http://purl.org/dc/elements/1.1/" width="64" height="64" version="1.1" viewBox="0 0 16.933 16.933" id="svg7" sodipodi:docname="org.inkscape.Inkscape.svg" inkscape:version="1.4 (e7c3feb100, 2024-10-09)">
  <sodipodi:namedview id="namedview7" pagecolor="#9c4444" bordercolor="#000000" borderopacity="0.25" inkscape:showpageshadow="2" inkscape:pageopacity="0.0" inkscape:pagecheckerboard="0" inkscape:deskcolor="#d1d1d1" inkscape:zoom="6.15625" inkscape:cx="15.837563" inkscape:cy="27.28934" inkscape:window-width="1183" inkscape:window-height="941" inkscape:window-x="35" inkscape:window-y="32" inkscape:window-maximized="0" inkscape:current-layer="svg7" showgrid="false"/>
  <defs id="defs2">
    <style id="current-color-scheme" type="text/css">.ColorScheme-Text {color:#d8dee9} .ColorScheme-Highlight {color:#3b4252}</style></defs>
  <metadata id="metadata2">
    <rdf:RDF>
      <cc:Work rdf:about="">
        <dc:format>image/svg+xml</dc:format>
        <dc:type rdf:resource="http://purl.org/dc/dcmitype/StillImage"/>
      </cc:Work>
    </rdf:RDF>
  </metadata>
  <path d="M 8.4180919,1.1256268 C 7.9914619,1.1247197 7.5672974,1.2937435 7.2611413,1.6352566 L 2.1683176,7.3149781 c -1.72103784,2.3225926 1.1713141,2.0529598 2.4112247,2.7220019 0.4447696,0.495445 -1.7044387,0.859219 -1.2596681,1.355082 0.444771,0.495444 2.6873773,0.95391 3.1328401,1.449356 0.44477,0.495442 -0.9096836,1.021691 -0.4649525,1.517093 0.4447697,0.495442 1.4725416,0.02575 1.6651532,1.16948 0.137256,0.817333 1.8555706,0.35123 2.694964,-0.318151 0.44477,-0.495822 -0.8502542,-0.447218 -0.405484,-0.94266 1.105994,-1.23261 2.135533,-0.449947 2.513983,-1.685029 0.186926,-0.61028 -1.629526,-0.939177 -1.183989,-1.434622 1.279701,-0.814433 5.702132,-1.3450911 3.603379,-3.6322153 L 9.596531,1.6353831 C 9.273668,1.2975878 8.8446051,1.126676 8.4179363,1.1257524 Z m 0.043255,0.5390952 c 0.3046141,0.00178 0.6085736,0.1269181 0.8271447,0.3682251 l 2.0165644,2.2299996 c 0.1911,0.2128019 0.18802,0.6237548 0.08109,0.7423271 L 10.385995,4.1332943 10.188668,5.4265103 9.353396,4.946344 8.0126152,5.8654576 7.5693083,3.9241448 6.8502746,5.2792276 H 5.7527921 c -0.4481971,0 -0.5018495,-0.6196403 -0.09461,-1.0634159 0.71133,-0.8367211 1.5269987,-1.6886815 1.9706135,-2.1828646 0.222946,-0.248335 0.527962,-0.3699929 0.832576,-0.3682251 z M 6.0420336,10.34296 c 0.1361217,0.09214 2.1945793,0.548327 2.6976605,0.639239 0.1744143,0.04007 0.051171,0.236004 -0.1892191,0.368226 C 8.0082602,11.507453 5.378348,10.34296 6.041883,10.34296 Z m 8.0068574,1.561296 c -0.414222,0.01558 -0.822673,0.245121 -0.935292,0.677559 0,0.281806 1.903019,0.468248 1.903019,-0.06481 -0.135736,-0.428079 -0.553496,-0.628286 -0.967727,-0.612716 z m -8.7367152,1.219549 c -0.5971343,-0.0061 -1.2962959,0.471223 -0.7811983,0.957393 0.4512029,0.42518 1.1480528,-0.107749 1.3569961,-0.701107 C 5.7650151,13.202042 5.5458568,13.126167 5.3121758,13.123802 Z m 7.5604732,0.0383 c -0.581613,0.56856 0.06462,1.145052 0.637925,0.77771 0.127794,-0.141322 -0.0027,-0.63639 -0.637925,-0.77771 z" stroke-width="0.837773" id="path42" style="fill:currentColor;fill-opacity:1;stroke:none;stroke-width:0.447247;stroke-dasharray:none;stroke-opacity:0.3" class="ColorScheme-Text"/>
</svg>
