<?xml version='1.0' encoding='UTF-8'?>
<svg xmlns:inkscape="http://www.inkscape.org/namespaces/inkscape" xmlns:sodipodi="http://sodipodi.sourceforge.net/DTD/sodipodi-0.dtd" xmlns="http://www.w3.org/2000/svg" xmlns:svg="http://www.w3.org/2000/svg" xmlns:rdf="http://www.w3.org/1999/02/22-rdf-syntax-ns#" xmlns:cc="http://creativecommons.org/ns#" xmlns:dc="http://purl.org/dc/elements/1.1/" width="64" height="64" version="1.1" viewBox="0 0 16.933 16.933" id="svg7" sodipodi:docname="org.x.Warpinator.svg" inkscape:version="1.4 (e7c3feb100, 2024-10-09)">
  <sodipodi:namedview id="namedview7" pagecolor="#9c4444" bordercolor="#000000" borderopacity="0.25" inkscape:showpageshadow="2" inkscape:pageopacity="0.0" inkscape:pagecheckerboard="0" inkscape:deskcolor="#d1d1d1" inkscape:zoom="6.15625" inkscape:cx="15.837563" inkscape:cy="29.725888" inkscape:window-width="1183" inkscape:window-height="941" inkscape:window-x="35" inkscape:window-y="32" inkscape:window-maximized="0" inkscape:current-layer="svg7" showgrid="false"/>
  <defs id="defs2">
    <style id="current-color-scheme" type="text/css">.ColorScheme-Text {color:#d8dee9} .ColorScheme-Highlight {color:#3b4252}</style></defs>
  <metadata id="metadata2">
    <rdf:RDF>
      <cc:Work rdf:about="">
        <dc:format>image/svg+xml</dc:format>
        <dc:type rdf:resource="http://purl.org/dc/dcmitype/StillImage"/>
      </cc:Work>
    </rdf:RDF>
  </metadata>
  <path style="fill:currentColor;fill-opacity:1;stroke-width:0.363035" d="m 14.178216,1.3269777 a 1.3909033,1.5160656 0 0 0 -1.390907,1.5160653 1.3909033,1.5160656 0 0 0 0.06519,0.4560042 L 10.46461,6.153515 A 2.7818069,3.0321311 0 0 0 9.3100524,5.8751741 2.7818069,3.0321311 0 0 0 6.5309625,8.8081105 L 3.1555766,9.3322183 C 2.9673901,9.0707222 2.6794616,8.9178968 2.3745525,8.9176692 1.8257801,8.9180283 1.3812032,9.4032653 1.3816315,10.001419 c 3.086e-4,0.597575 0.4446785,1.08192 0.992921,1.082271 0.405098,-2.42e-4 0.7694924,-0.268544 0.9209296,-0.678086 L 6.677659,9.8785349 A 2.7818069,3.0321311 0 0 0 9.3100524,11.939438 2.7818069,3.0321311 0 0 0 12.091862,8.9073055 2.7818069,3.0321311 0 0 0 11.605585,7.1958102 l 2.385183,-2.8529868 a 1.3909033,1.5160656 0 0 0 0.187454,0.016283 1.3909033,1.5160656 0 0 0 1.3909,-1.5160657 1.3909033,1.5160656 0 0 0 -1.3909,-1.5160672 z M 6.1805198,2.0850104 A 1.0431775,1.1370491 0 0 0 5.1373425,3.2220596 1.0431775,1.1370491 0 0 0 6.1805198,4.3591087 1.0431775,1.1370491 0 0 0 7.2236977,3.2220596 1.0431775,1.1370491 0 0 0 6.1805198,2.0850104 Z m 7.9976962,0 A 0.69545172,0.75803282 0 0 1 14.873667,2.843043 0.69545172,0.75803282 0 0 1 14.178216,3.6010761 0.69545172,0.75803282 0 0 1 13.482763,2.843043 0.69545172,0.75803282 0 0 1 14.178216,2.0850104 Z M 7.1258992,4.185886 6.611103,4.5989548 6.9561116,5.136389 7.470909,4.7218399 Z M 7.6406968,4.9883355 7.1272577,5.4028843 7.5795734,6.1090987 8.0943706,5.6945501 Z M 9.3100524,7.39124 A 1.3909033,1.5160656 0 0 1 10.700955,8.9073055 1.3909033,1.5160656 0 0 1 9.3100524,10.423371 1.3909033,1.5160656 0 0 1 7.9191494,8.9073055 1.3909033,1.5160656 0 0 1 9.3100524,7.39124 Z M 2.3745525,9.4595445 C 2.6492032,9.4593102 2.871905,9.7020531 2.8716913,10.001419 2.8719064,10.300785 2.6492032,10.543528 2.3745525,10.543293 2.1004311,10.542714 1.878556,10.300208 1.8787709,10.001419 1.8785564,9.7026312 2.1004315,9.4601282 2.3745525,9.4595445 Z m 9.3464905,1.4213125 -0.484914,0.528547 0.626177,0.68549 0.487631,-0.531514 z m 0.854373,0.929774 -0.486273,0.53003 0.726693,0.790605 0.484914,-0.528551 z m -4.4878367,0.08143 -0.4332992,1.179986 0.6221037,0.236884 0.4319403,-1.178501 z m 5.9167717,0.80541 a 1.2170404,1.3265573 0 0 0 -1.217042,1.326557 1.2170404,1.3265573 0 0 0 1.217042,1.326558 1.2170404,1.3265573 0 0 0 1.217041,-1.326558 1.2170404,1.3265573 0 0 0 -1.217041,-1.326557 z m -6.4329282,0.758024 a 1.0431775,1.1370491 0 0 0 -1.0431769,1.13705 1.0431775,1.1370491 0 0 0 1.0431769,1.137049 1.0431775,1.1370491 0 0 0 1.0431783,-1.137049 1.0431775,1.1370491 0 0 0 -1.0431783,-1.13705 z" id="path8" class="ColorScheme-Text"/>
  </svg>
