<?xml version='1.0' encoding='UTF-8'?>
<svg xmlns:inkscape="http://www.inkscape.org/namespaces/inkscape" xmlns:sodipodi="http://sodipodi.sourceforge.net/DTD/sodipodi-0.dtd" xmlns="http://www.w3.org/2000/svg" xmlns:svg="http://www.w3.org/2000/svg" xmlns:rdf="http://www.w3.org/1999/02/22-rdf-syntax-ns#" xmlns:cc="http://creativecommons.org/ns#" xmlns:dc="http://purl.org/dc/elements/1.1/" width="64" height="64" version="1.1" viewBox="0 0 16.933 16.933" id="svg7" sodipodi:docname="org.gnome.clocks.svg" inkscape:version="1.4 (e7c3feb100, 2024-10-09)">
  <sodipodi:namedview id="namedview7" pagecolor="#9c4444" bordercolor="#000000" borderopacity="0.25" inkscape:showpageshadow="2" inkscape:pageopacity="0.0" inkscape:pagecheckerboard="0" inkscape:deskcolor="#d1d1d1" inkscape:zoom="6.15625" inkscape:cx="15.756345" inkscape:cy="29.563452" inkscape:window-width="1226" inkscape:window-height="669" inkscape:window-x="35" inkscape:window-y="32" inkscape:window-maximized="0" inkscape:current-layer="svg7" showgrid="false"/>
  <defs id="defs2">
    <style id="current-color-scheme" type="text/css">.ColorScheme-Text {color:#d8dee9} .ColorScheme-Highlight {color:#3b4252}</style></defs>
  <metadata id="metadata2">
    <rdf:RDF>
      <cc:Work rdf:about="">
        <dc:format>image/svg+xml</dc:format>
        <dc:type rdf:resource="http://purl.org/dc/dcmitype/StillImage"/>
      </cc:Work>
    </rdf:RDF>
  </metadata>
  <path id="path10" style="fill:currentColor;fill-opacity:1;stroke-width:0.0720288;stroke-opacity:0.3" d="M 8.5441837,1.2083555 C 5.8403264,1.2140192 3.1939446,2.6847498 1.9023282,5.2797272 1.3375417,6.4144348 1.137001,7.2929216 1.1453859,8.5932911 c 0.00486,0.7556028 0.040928,1.0709979 0.1879366,1.6351319 0.746902,2.866206 3.0103724,4.960766 5.9299504,5.488253 1.1306596,0.204279 2.5127984,0.0991 3.6114941,-0.275408 3.658855,-1.247265 5.748522,-4.994591 4.843034,-8.6849005 C 15.308613,5.0887343 14.150647,3.4634807 12.653667,2.4546235 11.392348,1.6045912 9.9604903,1.2053883 8.5441837,1.2083555 Z m 0.039835,1.5537203 c 1.0642282,9.272e-4 1.147102,0.011552 1.7650423,0.2269092 1.037084,0.361417 1.574307,0.696673 2.344438,1.4627838 0.562658,0.5597191 0.748658,0.8029259 1.022823,1.3372042 0.51576,1.0050933 0.662581,1.6092411 0.660805,2.7324358 -0.0015,1.10431 -0.106286,1.5647012 -0.569867,2.5202482 -0.77798,1.603624 -2.28191,2.780149 -4.0107496,3.136888 -3.1706706,0.654257 -6.1901598,-1.200019 -6.973559,-4.2826916 -0.1962864,-0.772389 -0.1961239,-1.9472587 0,-2.7653455 C 3.2139524,5.4995344 4.3563557,4.0829609 5.8836262,3.3362769 6.8894139,2.8445476 7.2835637,2.7609673 8.5840187,2.7620758 Z M 10.65305,4.3833494 c -0.129654,-0.00226 -0.263369,0.03491 -0.347293,0.110858 -0.06952,0.062907 -0.4928036,0.754454 -0.9414138,1.5372645 C 8.5525247,7.4480733 8.5466799,7.4556196 8.2098783,7.5756659 7.8174295,7.7155475 7.5783421,8.0037243 7.5248217,8.4027583 L 7.4884536,8.6747027 5.7026267,9.5901328 C 4.7203915,10.093724 3.8760836,10.554354 3.8267279,10.613822 c -0.068296,0.0823 -0.070374,0.151232 -0.00872,0.286667 0.092933,0.203971 0.3924136,0.242001 0.6270315,0.07969 0.078128,-0.05406 0.8679228,-0.463323 1.7555075,-0.909369 C 7.7964866,9.2687804 7.8165215,9.2605308 8.0123621,9.3762157 8.2831305,9.5361604 8.7840967,9.524601 9.0672305,9.3519643 9.4114756,9.1420658 9.5456017,8.8282706 9.5011297,8.3378017 L 9.4638897,7.9290194 10.321295,6.4289952 C 11.205439,4.8820711 11.234629,4.797963 10.977773,4.5054647 10.90874,4.426856 10.782657,4.3856022 10.652999,4.3833484 Z M 8.5112708,7.9809842 c 0.51224,0 0.7717897,0.5846898 0.4105143,0.9240908 C 8.56333,9.2418259 7.9795064,9.0112793 7.9795064,8.5335336 c 0,-0.3502693 0.1950849,-0.5525492 0.5317644,-0.5525494 z" class="ColorScheme-Text"/>
  <g id="g9" transform="matrix(0.46959567,0,0,0.46959567,4.7471229,3.7470598)" style="fill:#999999;fill-opacity:1;stroke:none;stroke-width:0.58349;stroke-dasharray:none;stroke-opacity:0.3"/>
  </svg>
