<?xml version='1.0' encoding='UTF-8'?>
<svg xmlns:inkscape="http://www.inkscape.org/namespaces/inkscape" xmlns:sodipodi="http://sodipodi.sourceforge.net/DTD/sodipodi-0.dtd" xmlns="http://www.w3.org/2000/svg" xmlns:svg="http://www.w3.org/2000/svg" xmlns:rdf="http://www.w3.org/1999/02/22-rdf-syntax-ns#" xmlns:cc="http://creativecommons.org/ns#" xmlns:dc="http://purl.org/dc/elements/1.1/" width="64" height="64" version="1.1" viewBox="0 0 16.933 16.933" id="svg7" sodipodi:docname="preferences-devices-scanner.svg" inkscape:version="1.4 (e7c3feb100, 2024-10-09)">
  <sodipodi:namedview id="namedview7" pagecolor="#9c4444" bordercolor="#000000" borderopacity="0.25" inkscape:showpageshadow="2" inkscape:pageopacity="0.0" inkscape:pagecheckerboard="0" inkscape:deskcolor="#d1d1d1" inkscape:zoom="6.15625" inkscape:cx="15.756345" inkscape:cy="29.563452" inkscape:window-width="1226" inkscape:window-height="669" inkscape:window-x="124" inkscape:window-y="132" inkscape:window-maximized="0" inkscape:current-layer="svg7" showgrid="false"/>
  <defs id="defs2">
    <style id="current-color-scheme" type="text/css">.ColorScheme-Text {color:#d8dee9} .ColorScheme-Highlight {color:#3b4252}</style></defs>
  <metadata id="metadata2">
    <rdf:RDF>
      <cc:Work rdf:about="">
        <dc:format>image/svg+xml</dc:format>
        <dc:type rdf:resource="http://purl.org/dc/dcmitype/StillImage"/>
      </cc:Work>
    </rdf:RDF>
  </metadata>
  <path style="fill:currentColor;fill-opacity:1;stroke:none;stroke-width:0.511328;stroke-dasharray:none;stroke-opacity:0.3" d="M 2.9609995,16.411361 C 2.1156247,16.312905 1.4065903,15.695127 1.1628664,14.844663 1.1112214,14.664462 1.1050867,14.346015 1.0949425,11.320158 L 1.0837885,7.9937544 h 7.3988879 7.3988866 l -0.01065,3.3264036 c -0.01245,3.709997 0.0029,3.465737 -0.247593,3.970223 -0.169902,0.34231 -0.557727,0.730149 -0.900038,0.900042 -0.334333,0.165949 -0.566019,0.219154 -1.063663,0.244342 l -0.420372,0.0213 -0.0089,-1.746655 -0.0089,-1.746662 -0.07636,-0.155034 c -0.09753,-0.197874 -0.29721,-0.397567 -0.495057,-0.495021 l -0.155034,-0.07635 -3.9605134,-0.0087 c -4.5507418,-0.0098 -4.1554389,-0.03655 -4.4943244,0.302922 -0.3224237,0.322964 -0.311058,0.241814 -0.311058,2.220911 v 1.694467 l -0.2723853,-0.0045 c -0.1498155,-0.0027 -0.3725295,-0.01617 -0.4949301,-0.03024 z M 11.95789,10.551579 c 0.160018,-0.108727 0.222657,-0.235824 0.222507,-0.451387 -2.27e-4,-0.3244457 -0.19974,-0.5214026 -0.52814,-0.5214026 -0.328407,0 -0.527908,0.1969554 -0.528136,0.5214026 -2.22e-4,0.332437 0.199654,0.534875 0.528136,0.534875 0.141105,0 0.21078,-0.01906 0.305637,-0.08349 z m 2.096616,0.01763 c 0.161122,-0.09823 0.238821,-0.248695 0.238821,-0.462409 0,-0.3313798 -0.196635,-0.5280179 -0.528017,-0.5280179 -0.331378,0 -0.528013,0.1966395 -0.528013,0.5280179 0,0.331376 0.196638,0.528013 0.528013,0.528013 0.123105,0 0.216257,-0.02118 0.289202,-0.06561 z m -9.7979291,5.084353 v -0.792396 h 4.2261016 4.2261035 v 0.792396 0.792395 H 8.4826785 4.2565769 Z M 1.0957706,6.5162655 C 1.1148925,5.4592221 1.1322857,5.346843 1.3425349,4.9232222 1.5123323,4.5811017 1.9001936,4.1931695 2.2425752,4.0230228 2.648207,3.821439 2.8327256,3.7878917 3.5467243,3.7859058 c 0.580498,-0.00178 0.6371671,0.0036 0.7593765,0.069145 0.2893401,0.1553145 0.4232564,0.3596826 0.4619704,0.7049949 0.030024,0.2677772 0.089465,0.414761 0.2247937,0.5558418 0.2293749,0.2391221 -0.2074639,0.2181792 4.9425365,0.2369387 l 4.6388046,0.016895 0.195458,0.074058 c 0.277509,0.105141 0.449163,0.2128378 0.628638,0.3944217 0.319114,0.3228559 0.436749,0.6290491 0.468277,1.2189072 l 0.02175,0.4083792 H 8.4835261 1.0786228 Z M 5.6988601,4.7755524 C 5.4654875,4.693781 5.3461173,4.5280875 5.3461173,4.2859253 c 0,-0.1698486 0.097765,-0.3367827 0.2477368,-0.4230275 C 5.6482695,3.8316123 6.88881,3.3872126 8.3506136,2.8753613 9.8124149,2.3635073 11.854777,1.6483844 12.889193,1.2861975 c 2.05548,-0.71969682 2.019792,-0.71118372 2.23212,-0.53252292 0.263159,0.22143375 0.26448,0.61188152 0.0027,0.79828182 -0.05238,0.037202 -0.695169,0.2776115 -1.428568,0.5342324 C 12.962024,2.3428107 11.797388,2.7503292 11.107342,2.9917866 6.8592815,4.4782505 5.9813085,4.783667 5.9072675,4.8007059 5.8618637,4.8111647 5.7680255,4.7996493 5.6987298,4.7755476 Z" id="path1-3" class="ColorScheme-Text"/>
  </svg>
