<?xml version='1.0' encoding='UTF-8'?>
<svg xmlns:inkscape="http://www.inkscape.org/namespaces/inkscape" xmlns:sodipodi="http://sodipodi.sourceforge.net/DTD/sodipodi-0.dtd" xmlns="http://www.w3.org/2000/svg" xmlns:svg="http://www.w3.org/2000/svg" xmlns:rdf="http://www.w3.org/1999/02/22-rdf-syntax-ns#" xmlns:cc="http://creativecommons.org/ns#" xmlns:dc="http://purl.org/dc/elements/1.1/" width="64" height="64" version="1.1" viewBox="0 0 16.933 16.933" id="svg7" sodipodi:docname="org.libreoffice.LibreOffice.base.svg" inkscape:version="1.4 (e7c3feb100, 2024-10-09)">
  <sodipodi:namedview id="namedview7" pagecolor="#9c4444" bordercolor="#000000" borderopacity="0.25" inkscape:showpageshadow="2" inkscape:pageopacity="0.0" inkscape:pagecheckerboard="0" inkscape:deskcolor="#d1d1d1" inkscape:zoom="6.15625" inkscape:cx="15.837563" inkscape:cy="29.725888" inkscape:window-width="1183" inkscape:window-height="941" inkscape:window-x="35" inkscape:window-y="32" inkscape:window-maximized="0" inkscape:current-layer="svg7" showgrid="false"/>
  <defs id="defs2">
    <style id="current-color-scheme" type="text/css">.ColorScheme-Text {color:#d8dee9} .ColorScheme-Highlight {color:#3b4252}</style></defs>
  <metadata id="metadata2">
    <rdf:RDF>
      <cc:Work rdf:about="">
        <dc:format>image/svg+xml</dc:format>
        <dc:type rdf:resource="http://purl.org/dc/dcmitype/StillImage"/>
      </cc:Work>
    </rdf:RDF>
  </metadata>
  <path id="path90" style="fill:currentColor;fill-opacity:1;stroke:none;stroke-width:0.421694;stroke-dasharray:none;stroke-opacity:0.3" d="M 8.5655282,2.264548 C 7.8836273,2.2640909 7.6193983,2.288949 7.1103562,2.4028948 5.6868488,2.7215269 4.5997258,3.4603197 4.1560454,4.4097748 3.8716912,5.0182781 3.8770891,5.6385549 4.1729949,6.2498421 4.7276515,7.3956495 6.2109804,8.2002998 8.0596332,8.3586306 8.2903905,8.3783887 9.1678956,8.3511697 9.4199829,8.3165008 11.385784,8.0461745 12.840929,7.0077346 13.102145,5.6890543 13.151463,5.4400864 13.143301,5.0939104 13.08202,4.835063 12.816273,3.7126422 11.603641,2.7589459 9.9894518,2.4028958 9.4599391,2.2860995 9.2443281,2.2650741 8.5655346,2.2645494 Z m 4.2468538,5.5868119 -0.07944,0.1076027 C 12.590296,8.1521905 12.278556,8.4509904 12.044272,8.6188151 10.471442,9.7454864 7.7652195,9.9385747 5.820462,9.0628896 5.2222401,8.7935226 4.7104935,8.4154194 4.3880689,8.0039407 4.2526825,7.8311621 4.2712833,7.8267612 4.1528669,8.0551796 3.9899161,8.3695106 3.9150865,8.7578607 3.9552776,9.0788315 3.9860101,9.3242298 4.078485,9.604538 4.2031915,9.8303439 4.3287511,10.05769 4.7127276,10.482134 4.9591184,10.666116 c 0.7597798,0.56734 1.8107156,0.935046 2.9633172,1.036744 0.3347967,0.02954 1.1751465,0.0115 1.5187384,-0.03247 1.077959,-0.138177 2.016876,-0.491206 2.69951,-1.015678 0.220482,-0.169396 0.551868,-0.521038 0.67382,-0.7150749 0.119339,-0.1899012 0.240977,-0.4751488 0.284994,-0.6678225 0.04615,-0.2019924 0.04615,-0.554074 0,-0.7560672 C 13.061973,8.351426 12.93207,8.0317909 12.857412,7.9190991 Z M 4.2868901,11.205838 c -0.03557,1.3e-5 -0.1825406,0.277278 -0.2532127,0.491901 -0.1171445,0.35575 -0.11761,0.717771 -0.00169,1.089692 0.3782959,1.212696 1.9858983,2.120573 4.0381411,2.280726 0.2348683,0.01843 1.0943267,-0.0076 1.3603493,-0.04157 0.8518252,-0.107939 1.6596412,-0.364919 2.2672492,-0.720765 0.445531,-0.260925 0.914023,-0.685278 1.117202,-1.011695 0.119282,-0.191613 0.240811,-0.476153 0.284468,-0.667253 0.04617,-0.201993 0.04617,-0.554075 0,-0.756069 -0.03745,-0.164076 -0.167124,-0.484323 -0.241534,-0.596656 l -0.0445,-0.06718 -0.101688,0.129797 c -0.586338,0.75186 -1.632366,1.29871 -2.9124499,1.522391 C 7.6734966,13.230609 5.4275144,12.62137 4.4261631,11.40168 4.3536611,11.31337 4.2947895,11.233066 4.2947895,11.223479 c 0,-0.0126 -0.00285,-0.01765 -0.00794,-0.01765 z" class="ColorScheme-Text"/>
  <g id="g9" transform="matrix(0.46959567,0,0,0.46959567,4.7471229,3.7470598)" style="fill:#999999;fill-opacity:1;stroke:none;stroke-width:0.58349;stroke-dasharray:none;stroke-opacity:0.3"/>
  </svg>
