<?xml version='1.0' encoding='UTF-8'?>
<svg xmlns:inkscape="http://www.inkscape.org/namespaces/inkscape" xmlns:sodipodi="http://sodipodi.sourceforge.net/DTD/sodipodi-0.dtd" xmlns="http://www.w3.org/2000/svg" xmlns:svg="http://www.w3.org/2000/svg" xmlns:rdf="http://www.w3.org/1999/02/22-rdf-syntax-ns#" xmlns:cc="http://creativecommons.org/ns#" xmlns:dc="http://purl.org/dc/elements/1.1/" width="64" height="64" version="1.1" viewBox="0 0 16.933 16.933" id="svg7" sodipodi:docname="org.freecad.FreeCAD.svg" inkscape:version="1.4.2 (ebf0e940d0, 2025-05-08)">
  <sodipodi:namedview id="namedview7" pagecolor="#9c4444" bordercolor="#000000" borderopacity="0.25" inkscape:showpageshadow="2" inkscape:pageopacity="0.0" inkscape:pagecheckerboard="0" inkscape:deskcolor="#d1d1d1" inkscape:zoom="6.15625" inkscape:cx="23.472081" inkscape:cy="27.208122" inkscape:window-width="1183" inkscape:window-height="941" inkscape:window-x="0" inkscape:window-y="0" inkscape:window-maximized="0" inkscape:current-layer="svg7" showgrid="false"/>
  <defs id="defs2">
    <style id="current-color-scheme" type="text/css">.ColorScheme-Text {color:#d8dee9} .ColorScheme-Highlight {color:#3b4252}</style>
  </defs>
  <metadata id="metadata2">
    <rdf:RDF>
      <cc:Work rdf:about="">
        <dc:format>image/svg+xml</dc:format>
        <dc:type rdf:resource="http://purl.org/dc/dcmitype/StillImage"/>
      </cc:Work>
    </rdf:RDF>
  </metadata>
  <path id="path792" style="fill:currentColor;fill-opacity:1;stroke:none;stroke-width:0.203805;stroke-dasharray:none;stroke-opacity:0.3" class="ColorScheme-Text" d="M 6.0967013 3.6207634 L 4.2469934 10.111468 L 5.1252035 10.361685 L 6.0085811 7.2619763 L 8.5822888 7.9954953 L 8.7927981 7.2562649 L 6.2190904 6.5230179 L 6.764402 4.6099397 L 9.616341 5.4226035 L 9.8268503 4.6836451 L 6.0967013 3.6207634 z M 9.8613913 7.3859973 L 9.8611193 7.4996833 C 9.8609993 7.5621407 9.8533568 7.6756409 9.8442568 7.7518049 C 9.8296068 7.874248 9.8183374 7.8941336 9.7466174 7.9239656 C 9.7020035 7.9425251 9.613153 7.9978617 9.549163 8.0468987 L 9.4330293 8.1361068 L 9.2347589 8.0316681 L 9.0364885 7.9275013 L 8.9869888 8.0107259 C 8.9597458 8.0565661 8.8644067 8.2331229 8.7751196 8.4029151 L 8.6127501 8.7116077 L 8.7914382 8.8456918 L 8.9701263 8.9800479 L 8.9684945 9.2414167 L 8.9668626 9.5030575 L 8.7881745 9.6368696 L 8.6094863 9.7704098 L 8.6992384 9.9341393 C 8.7485965 10.024255 8.8416007 10.197218 8.90594 10.318441 C 8.9682837 10.435877 9.0284773 10.532794 9.0424719 10.538742 L 9.0427439 10.538742 L 9.0430159 10.538742 L 9.0432879 10.539014 L 9.0435598 10.539014 C 9.0548978 10.539024 9.1484684 10.496406 9.2513494 10.444366 L 9.4384688 10.349718 L 9.53774 10.428591 C 9.5923179 10.47201 9.6799247 10.528268 9.7324747 10.553428 C 9.8193228 10.595011 9.8293668 10.611484 9.8442568 10.735924 C 9.8532868 10.811225 9.8607183 10.917987 9.8608473 10.973087 L 9.8613913 10.973087 L 9.8613913 11.073174 L 10.28377 11.073174 L 10.706148 11.073174 L 10.724643 10.835195 C 10.742902 10.600732 10.7445 10.596877 10.82609 10.562947 C 10.871636 10.544002 10.960616 10.488736 11.023816 10.440286 L 11.13859 10.352166 L 11.340124 10.452253 C 11.536599 10.549813 11.542113 10.550881 11.572663 10.498761 C 11.58988 10.46937 11.684693 10.29325 11.783173 10.107116 L 11.962133 9.768506 L 11.785893 9.6365977 L 11.60938 9.5046894 L 11.60666 9.2422326 L 11.604213 8.9800479 L 11.782357 8.8459638 L 11.960501 8.7121517 L 11.755703 8.3194185 L 11.551177 7.9264134 L 11.348827 8.0286763 L 11.146749 8.1306673 L 11.022456 8.0420031 C 10.954163 7.9932363 10.864274 7.9391478 10.822554 7.9217898 C 10.754174 7.8933425 10.74505 7.8743392 10.72981 7.727871 C 10.7205 7.6384995 10.712948 7.5250134 10.712948 7.4757494 L 10.712948 7.3859973 L 10.287033 7.3859973 L 9.8613913 7.3859973 z M 10.263372 8.539991 C 10.612542 8.5178048 10.92451 8.8137474 10.925089 9.2373371 C 10.925494 9.5197185 10.813822 9.729012 10.593278 9.8588019 C 10.182168 10.100739 9.6854097 9.8048099 9.6533297 9.2988036 C 9.6331677 8.9808526 9.760703 8.7401458 10.019137 8.6085289 C 10.100298 8.5671949 10.182794 8.5451108 10.263372 8.539991 z " transform="matrix(1.9,0,0,1.9,-6.7649999,-5.5539761)"/>
</svg>
