<?xml version='1.0' encoding='UTF-8'?>
<svg xmlns:inkscape="http://www.inkscape.org/namespaces/inkscape" xmlns:sodipodi="http://sodipodi.sourceforge.net/DTD/sodipodi-0.dtd" xmlns="http://www.w3.org/2000/svg" xmlns:svg="http://www.w3.org/2000/svg" xmlns:rdf="http://www.w3.org/1999/02/22-rdf-syntax-ns#" xmlns:cc="http://creativecommons.org/ns#" xmlns:dc="http://purl.org/dc/elements/1.1/" width="64" height="64" version="1.1" viewBox="0 0 16.933 16.933" id="svg7" sodipodi:docname="org.kde.kate.svg" inkscape:version="1.4.2 (ebf0e940d0, 2025-05-08)">
  <sodipodi:namedview id="namedview7" pagecolor="#9c4444" bordercolor="#000000" borderopacity="0.25" inkscape:showpageshadow="2" inkscape:pageopacity="0.0" inkscape:pagecheckerboard="0" inkscape:deskcolor="#d1d1d1" inkscape:zoom="6.15625" inkscape:cx="15.593909" inkscape:cy="29.725888" inkscape:window-width="2560" inkscape:window-height="1376" inkscape:window-x="0" inkscape:window-y="0" inkscape:window-maximized="1" inkscape:current-layer="svg7" showgrid="false"/>
  <defs id="defs2">
    <style id="current-color-scheme" type="text/css">.ColorScheme-Text {color:#d8dee9} .ColorScheme-Highlight {color:#3b4252}</style>
  </defs>
  <metadata id="metadata2">
    <rdf:RDF>
      <cc:Work rdf:about="">
        <dc:format>image/svg+xml</dc:format>
        <dc:type rdf:resource="http://purl.org/dc/dcmitype/StillImage"/>
      </cc:Work>
    </rdf:RDF>
  </metadata>
  <path id="path19" d="m 7.7222155,1.0500309 c -1.082763,0.035838 -2.304939,0.3722977 -3.492292,1.2324245 -0.841806,0.6098101 -1.360584,0.917461 -1.795478,1.1456655 -0.201512,0.1057155 -0.384828,0.1943756 -0.57411,0.2883314 0.525742,0.039611 3.616597,-0.3976746 4.25352,1.3702135 -2.679986,0.8859826 -3.286821,2.430215 -2.399356,4.1812214 0.003,0.00581 0.0056,0.012624 0.0086,0.018717 0.119181,0.2480099 0.249031,0.4659489 0.388693,0.6608615 0.07086,0.098882 0.14438,0.1922723 0.220288,0.2798293 0.07736,0.0892 0.157432,0.172633 0.239851,0.251753 0.326808,0.313709 0.693173,0.555233 1.093787,0.775689 0.400601,0.220464 0.835007,0.419932 1.299616,0.65151 0.464833,0.231665 0.959131,0.494801 1.478229,0.842027 0.810074,0.541869 1.313869,0.950636 1.7461455,1.411892 0.368514,0.393213 0.70251,0.855092 1.111648,1.439097 0.07041,0.100514 0.126621,0.174788 0.203278,0.284929 1.53e-4,2.25e-4 6.99e-4,0.0015 8.51e-4,0.0015 -0.05439,-0.518843 -0.158074,-1.075418 -0.290082,-1.636426 -0.396022,-1.68303 -1.048625,-3.408558 -1.4008285,-4.2926468 0.155341,0.09291 0.3044325,0.1800038 0.4482315,0.2611118 h 8.51e-4 l 8.51e-4,7.26e-4 c 0.23171,0.141255 0.469972,0.268177 0.71445,0.383593 0.04485,0.02118 0.0925,0.03751 0.137779,0.05782 0.186548,0.08382 0.373987,0.165995 0.568157,0.236453 0.013,0.0044 0.02617,0.009 0.03912,0.01356 0.223245,0.08177 0.448342,0.15256 0.68468,0.215189 h 8.52e-4 c 0.0031,7.26e-4 0.0063,0.0015 0.0094,0.0029 0.380154,0.103489 0.777174,0.182754 1.184795,0.249207 0.03071,0.0051 0.05845,0.01393 0.08931,0.01872 0.0015,2.25e-4 0.0028,6.17e-4 0.0043,7.26e-4 0.442195,0.06878 0.90027,0.118222 1.375312,0.152247 -3.277478,-2.3330673 -3.900337,-2.7909634 -5.7768265,-4.3904623 -1.259008,0.063479 -1.121807,0.051799 -1.864371,0.094413 0.0831,0.1385361 0.167755,0.2730096 0.25346,0.403152 0.02838,0.050928 0.05599,0.102488 0.08335,0.1539459 0.0406,0.076421 0.0768,0.1542651 0.113124,0.2321945 0.04689,0.1006297 0.09118,0.2016378 0.130126,0.3036462 0.05041,0.1320799 0.100681,0.2644419 0.136085,0.3963472 0.01152,0.042802 0.01914,0.085018 0.02892,0.1275816 0.01103,0.047737 0.0236,0.095567 0.03233,0.1428886 0.0081,0.043818 0.01267,0.086781 0.01871,0.1301278 0.0063,0.04498 0.013,0.090046 0.01702,0.1343858 0.0038,0.042223 0.0051,0.083458 0.0067,0.1250287 0.002,0.045342 0.0041,0.090792 0.0035,0.1352351 -5.9e-4,0.040916 -0.004,0.08076 -0.0067,0.1207757 -0.0031,0.043238 -0.0069,0.086338 -0.01284,0.1284308 -0.0049,0.036128 -0.01169,0.071169 -0.01871,0.106318 -0.0087,0.043892 -0.01852,0.086985 -0.03063,0.1292784 -0.0158,0.05506 -0.03203,0.11041 -0.05359,0.162455 -3.41e-4,7.26e-4 -5.07e-4,0.0015 -8.53e-4,0.0029 -0.0041,0.0099 -0.0092,0.01915 -0.01366,0.02895 -0.01152,0.02583 -0.02273,0.05158 -0.03573,0.07654 -5.84e-4,0.0015 -0.0011,0.0022 -0.0016,0.0036 -0.0036,0.0065 -0.0082,0.01284 -0.01185,0.01959 -0.01399,0.02554 -0.02775,0.05114 -0.04339,0.0757 -0.0074,0.01169 -0.01596,0.02256 -0.02382,0.03402 -0.01399,0.02053 -0.02813,0.0415 -0.04337,0.06123 -0.01037,0.01341 -0.02138,0.02692 -0.03233,0.03997 -0.01333,0.01582 -0.02666,0.03148 -0.04082,0.04679 -0.01267,0.01378 -0.02651,0.02662 -0.03998,0.03997 -0.01547,0.01537 -0.03114,0.03032 -0.04763,0.04505 -0.01284,0.01154 -0.02566,0.02292 -0.03912,0.03402 -0.0183,0.01509 -0.03758,0.02989 -0.05698,0.04425 -0.013,0.0096 -0.02648,0.01879 -0.03998,0.02808 -0.02635,0.01806 -0.05336,0.03511 -0.08165,0.05187 -0.0044,0.0029 -0.0082,0.0058 -0.01284,0.0085 -0.0026,0.0015 -0.0051,0.0029 -0.0077,0.0044 -0.01848,0.01052 -0.03853,0.0198 -0.05784,0.02975 -0.06276,0.03243 -0.129072,0.06239 -0.200726,0.08846 -0.09044,0.03286 -0.187423,0.06145 -0.292583,0.08335 -0.313713,0.06529 -0.625744,0.06747 -0.921979,0.01785 -0.394973,-0.06622 -0.762208,-0.225103 -1.071031,-0.449136 h -8.51e-4 c -0.154374,-0.112099 -0.293803,-0.24013 -0.414964,-0.381866 -0.121139,-0.141706 -0.22367,-0.2971242 -0.303642,-0.4618427 -0.03983,-0.082036 -0.0739,-0.1669383 -0.102063,-0.2534582 -0.02823,-0.086868 -0.05086,-0.1765072 -0.06635,-0.2670678 -0.03094,-0.1811214 -0.03529,-0.3687212 -0.0094,-0.5596509 0.013,-0.095465 0.03343,-0.1916479 0.06208,-0.2883317 0.01564,-0.052524 0.03313,-0.1027348 0.05188,-0.1513914 0.07497,-0.1946368 0.174767,-0.3595366 0.296838,-0.4992625 0.03052,-0.034968 0.06289,-0.068485 0.09611,-0.1003614 0.06633,-0.063625 0.137779,-0.1218571 0.214334,-0.1743599 0.153432,-0.1052514 0.327175,-0.189486 0.517126,-0.2577166 0.949922,-0.3411387 2.318278,-0.28313 3.72789,-0.465238 C 10.264261,6.5872325 11.391446,5.9085317 12.375414,5.0616302 12.673998,4.804581 12.95965,4.5316657 13.229352,4.2536213 13.768812,3.6975108 14.245771,3.1194475 14.639537,2.5993348 h -8.53e-4 c -0.01284,0.00435 -0.03562,0.010089 -0.04849,0.014435 -1.779365,0.6039119 -4.027272,1.1594928 -6.5457105,1.8898834 -0.03698,-0.075783 -0.07435,-0.1560055 -0.109717,-0.2389995 -0.04857,-0.1139499 -0.09349,-0.2340154 -0.131838,-0.3572224 -0.0053,-0.016759 -0.0079,-0.034169 -0.01284,-0.051 -0.03172,-0.1084149 -0.06029,-0.2178665 -0.07741,-0.329154 -0.0095,-0.062607 -0.01679,-0.1253102 -0.02041,-0.1879697 -8.1e-5,-0.00145 7.7e-5,-0.0029 0,-0.00434 -0.0036,-0.064059 -0.0038,-0.1279075 0,-0.1913724 0.0056,-0.094341 0.01947,-0.1877304 0.04423,-0.2789729 0.02467,-0.091228 0.05996,-0.1810706 0.107165,-0.2670681 0.04709,-0.085678 0.106623,-0.1682877 0.179463,-0.2466532 l 8.51e-4,-7.254e-4 c 0.0366,-0.039321 0.07617,-0.076901 0.119921,-0.1139715 0.232567,-0.1970817 0.576456,-0.3579769 1.049558,-0.4677989 0.327556,-0.076036 0.713053,-0.1292143 1.1822425,-0.1471399 6.39e-4,-2.19e-5 0.0011,2.17e-5 0.0016,0 C 10.312779,1.5856389 10.245906,1.5516869 10.175722,1.5200492 9.9004155,1.3910093 9.5780585,1.2774223 9.2197225,1.1942905 h -8.52e-4 C 8.7692035,1.0900481 8.2629995,1.0326402 7.7219305,1.0505527 Z" class="ColorScheme-Text" style="fill:currentColor;fill-opacity:1;stroke-width:0.717516"/>
</svg>
