<?xml version='1.0' encoding='UTF-8'?>
<svg xmlns:inkscape="http://www.inkscape.org/namespaces/inkscape" xmlns:sodipodi="http://sodipodi.sourceforge.net/DTD/sodipodi-0.dtd" xmlns="http://www.w3.org/2000/svg" xmlns:svg="http://www.w3.org/2000/svg" xmlns:rdf="http://www.w3.org/1999/02/22-rdf-syntax-ns#" xmlns:cc="http://creativecommons.org/ns#" xmlns:dc="http://purl.org/dc/elements/1.1/" width="64" height="64" version="1.1" viewBox="0 0 16.933 16.933" id="svg7" sodipodi:docname="org.xfce.taskmanager.svg" inkscape:version="1.4 (e7c3feb100, 2024-10-09)">
  <sodipodi:namedview id="namedview7" pagecolor="#9c4444" bordercolor="#000000" borderopacity="0.25" inkscape:showpageshadow="2" inkscape:pageopacity="0.0" inkscape:pagecheckerboard="0" inkscape:deskcolor="#d1d1d1" inkscape:zoom="4.3531261" inkscape:cx="15.850678" inkscape:cy="42.727915" inkscape:window-width="1226" inkscape:window-height="669" inkscape:window-x="35" inkscape:window-y="32" inkscape:window-maximized="0" inkscape:current-layer="svg7" showgrid="false"/>
  <defs id="defs2">
    <style id="current-color-scheme" type="text/css">.ColorScheme-Text {color:#d8dee9} .ColorScheme-Highlight {color:#3b4252}</style></defs>
  <metadata id="metadata2">
    <rdf:RDF>
      <cc:Work rdf:about="">
        <dc:format>image/svg+xml</dc:format>
        <dc:type rdf:resource="http://purl.org/dc/dcmitype/StillImage"/>
      </cc:Work>
    </rdf:RDF>
  </metadata>
  <path style="color:none;fill:currentColor;fill-opacity:1;stroke:none;stroke-width:0.357284;stroke-linecap:round;stroke-linejoin:round;stroke-dasharray:none;stroke-opacity:0.3" d="M 7.9008799,2.8296282 A 0.87798418,0.9136208 0 0 0 6.9903501,3.4482611 L 5.6038283,7.7467163 H 1.6720179 A 0.87789638,0.91352945 0 0 0 0.79416474,8.6602017 0.87789638,0.91352945 0 0 0 1.6720179,9.5741942 H 6.2349086 A 0.87798418,0.9136208 0 0 0 7.0674058,8.9509943 l 0.4194196,-1.3007013 0.8549318,6.06402 a 0.87798418,0.9136208 0 0 0 1.7010868,0.158346 l 1.386522,-4.2984576 h 3.93181 A 0.87789638,0.91352945 0 0 0 16.23903,8.6602017 0.87789638,0.91352945 0 0 0 15.361176,7.7467163 h -4.56289 A 0.87798418,0.9136208 0 0 0 9.9657868,8.3699165 L 9.5463681,9.6706188 8.6914363,3.6065981 A 0.87798418,0.9136208 0 0 0 7.9008799,2.8296282 Z" id="path8" class="ColorScheme-Text"/>
  <g aria-label="Terminal" id="text2284" style="font-size:1.76385px;opacity:1;fill:#999999;stroke-width:0.529156"/>
</svg>
