<?xml version='1.0' encoding='UTF-8'?>
<svg xmlns:inkscape="http://www.inkscape.org/namespaces/inkscape" xmlns:sodipodi="http://sodipodi.sourceforge.net/DTD/sodipodi-0.dtd" xmlns="http://www.w3.org/2000/svg" xmlns:svg="http://www.w3.org/2000/svg" xmlns:rdf="http://www.w3.org/1999/02/22-rdf-syntax-ns#" xmlns:cc="http://creativecommons.org/ns#" xmlns:dc="http://purl.org/dc/elements/1.1/" width="64" height="64" version="1.1" viewBox="0 0 16.933 16.933" id="svg7" sodipodi:docname="org.stellarium.Stellarium.svg" inkscape:version="1.4 (e7c3feb100, 2024-10-09)">
  <sodipodi:namedview id="namedview7" pagecolor="#9c4444" bordercolor="#000000" borderopacity="0.25" inkscape:showpageshadow="2" inkscape:pageopacity="0.0" inkscape:pagecheckerboard="0" inkscape:deskcolor="#d1d1d1" inkscape:zoom="6.15625" inkscape:cx="15.837563" inkscape:cy="29.725888" inkscape:window-width="1183" inkscape:window-height="941" inkscape:window-x="35" inkscape:window-y="32" inkscape:window-maximized="0" inkscape:current-layer="svg7" showgrid="false"/>
  <defs id="defs2">
    <style id="current-color-scheme" type="text/css">.ColorScheme-Text {color:#d8dee9} .ColorScheme-Highlight {color:#3b4252}</style></defs>
  <metadata id="metadata2">
    <rdf:RDF>
      <cc:Work rdf:about="">
        <dc:format>image/svg+xml</dc:format>
        <dc:type rdf:resource="http://purl.org/dc/dcmitype/StillImage"/>
      </cc:Work>
    </rdf:RDF>
  </metadata>
  <g id="g6" transform="matrix(0.26715455,0,0,0.26715455,-0.08244601,-0.08244717)" style="fill:currentColor;fill-opacity:1" class="ColorScheme-Text">
    <path style="fill:currentColor;fill-opacity:1" d="m 31,6 c -2.43,0 -4.772,0.3546 -7,0.9726 10.978,3.0448 19,13.0534 19,25.028 0,11.974 -8.022,21.982 -19,25.028 2.228,0.618 4.57,0.972 7,0.972 14.404,0 26,-11.596 26,-26 0,-14.404 -11.596,-26 -26,-26 z" id="path2" class="ColorScheme-Text"/>
    <path style="fill:currentColor;fill-opacity:1" d="m 18,36 3.4,7 7.6,1 -5.5,4.764 L 25,56 18,52.584 11,56 12.5,48.764 7,44 14.6008,43 Z" id="path3-6" class="ColorScheme-Text"/>
    <path style="fill:currentColor;fill-opacity:1" d="M 27.999768,24.000466 30.780859,29 36.999673,30.111921 32.499721,34.211589 34,40.000403 27.999719,37.267254 22,40.000403 23.499717,34.211589 18.999765,30.111921 25.218579,29 Z" id="path4" class="ColorScheme-Text"/>
    <path style="fill:currentColor;fill-opacity:1" d="M 21.00011,16.000268 23,19 h 4.000145 L 24.000127,22 25,26.000123 21.000077,24 17,26.000123 18.000027,22 15.000009,19 H 19 Z" id="path5" class="ColorScheme-Text"/>
  </g>
  <g id="g9" transform="matrix(0.46959567,0,0,0.46959567,4.7471229,3.7470598)" style="fill:#999999;fill-opacity:1;stroke:none;stroke-width:0.58349;stroke-dasharray:none;stroke-opacity:0.3"/>
  </svg>
