<?xml version='1.0' encoding='UTF-8'?>
<svg xmlns:inkscape="http://www.inkscape.org/namespaces/inkscape" xmlns:sodipodi="http://sodipodi.sourceforge.net/DTD/sodipodi-0.dtd" xmlns="http://www.w3.org/2000/svg" xmlns:svg="http://www.w3.org/2000/svg" xmlns:rdf="http://www.w3.org/1999/02/22-rdf-syntax-ns#" xmlns:cc="http://creativecommons.org/ns#" xmlns:dc="http://purl.org/dc/elements/1.1/" width="64" height="64" version="1.1" viewBox="0 0 16.933 16.933" id="svg7" sodipodi:docname="qdbusviewer.svg" inkscape:version="1.4 (e7c3feb100, 2024-10-09)">
  <sodipodi:namedview id="namedview7" pagecolor="#9c4444" bordercolor="#000000" borderopacity="0.25" inkscape:showpageshadow="2" inkscape:pageopacity="0.0" inkscape:pagecheckerboard="0" inkscape:deskcolor="#d1d1d1" inkscape:zoom="6.15625" inkscape:cx="15.756345" inkscape:cy="29.563452" inkscape:window-width="1226" inkscape:window-height="669" inkscape:window-x="278" inkscape:window-y="140" inkscape:window-maximized="0" inkscape:current-layer="svg7" showgrid="false"/>
  <defs id="defs2">
    <style id="current-color-scheme" type="text/css">.ColorScheme-Text {color:#d8dee9} .ColorScheme-Highlight {color:#3b4252}</style></defs>
  <metadata id="metadata2">
    <rdf:RDF>
      <cc:Work rdf:about="">
        <dc:format>image/svg+xml</dc:format>
        <dc:type rdf:resource="http://purl.org/dc/dcmitype/StillImage"/>
      </cc:Work>
    </rdf:RDF>
  </metadata>
  <g id="g9" transform="matrix(0.46959567,0,0,0.46959567,4.7471229,3.7470598)" style="fill:#999999;fill-opacity:1;stroke:none;stroke-width:0.58349;stroke-dasharray:none;stroke-opacity:0.3"/>
  <path d="m 7.9619174,8.2204055 q 0,2.2351095 -1.2225183,3.3711875 -1.2101697,1.123728 -3.3835356,1.123728 H 0.89847814 V 3.898371 H 3.6151855 q 1.3336564,0 2.3092013,0.4939468 0.975545,0.4939468 1.5065378,1.4571431 0.5309928,0.9508475 0.5309928,2.3709446 z m -1.1731237,0.037046 q 0,-1.7658598 -0.8767555,-2.580872 Q 5.0476313,4.8492186 3.4546528,4.8492186 H 2.0098584 v 6.9152554 h 1.197821 q 3.5811143,0 3.5811143,-3.5070225 z M 16.000894,3.8983708 12.851982,12.715321 h -1.11138 L 8.591691,3.898371 h 1.160775 l 1.988136,5.6556909 q 0.197579,0.5433421 0.333414,1.0249391 0.135831,0.46925 0.222277,0.901454 0.08643,-0.432204 0.222275,-0.913802 0.135831,-0.481598 0.333414,-1.0372883 L 14.827769,3.898371 Z" id="text1" style="font-size:6.4993px;opacity:1;fill:currentColor;stroke-width:0.926145;stroke-opacity:0.6" aria-label="DV" class="ColorScheme-Text"/>
</svg>
