<?xml version='1.0' encoding='UTF-8'?>
<svg xmlns:inkscape="http://www.inkscape.org/namespaces/inkscape" xmlns:sodipodi="http://sodipodi.sourceforge.net/DTD/sodipodi-0.dtd" xmlns="http://www.w3.org/2000/svg" xmlns:svg="http://www.w3.org/2000/svg" width="16" height="16" version="1.1" id="svg24" sodipodi:docname="steam.svg" inkscape:version="1.4.2 (ebf0e940d0, 2025-05-08)">
  <sodipodi:namedview id="namedview24" pagecolor="#505050" bordercolor="#eeeeee" borderopacity="1" inkscape:showpageshadow="0" inkscape:pageopacity="0" inkscape:pagecheckerboard="0" inkscape:deskcolor="#505050" inkscape:zoom="72.75" inkscape:cx="8" inkscape:cy="8" inkscape:window-width="2560" inkscape:window-height="1372" inkscape:window-x="0" inkscape:window-y="0" inkscape:window-maximized="1" inkscape:current-layer="svg24"/>
  <defs id="defs24">
    <style id="current-color-scheme" type="text/css">.ColorScheme-Text {color:#d8dee9} .ColorScheme-Highlight {color:#3b4252}</style>
  </defs>
  <path fill="currentColor" class="ColorScheme-Text" d="M 11.65624,2.718756 A 2.8437469,2.8437469 0 0 0 8.8505782,5.1086459 L 6.8367864,8.4522705 A 2.4374973,2.4374973 0 0 0 6.3749949,8.4062498 2.4374973,2.4374973 0 0 0 5.313351,8.6522209 L 1.7174071,6.5765399 a 8.1249911,8.1249911 0 0 0 -0.2174069,1.8297099 8.1249911,8.1249911 0 0 0 0.058719,0.8934313 l 2.3851293,1.3758539 a 2.4374973,2.4374973 0 0 0 -0.00634,0.168212 2.4374973,2.4374973 0 0 0 2.4374975,2.437497 2.4374973,2.4374973 0 0 0 2.4374973,-2.437497 2.4374973,2.4374973 0 0 0 -0.012695,-0.230102 L 12.356082,8.314209 A 2.8437469,2.8437469 0 0 0 14.5,5.5625029 2.8437469,2.8437469 0 0 0 11.656254,2.718756 Z m 0,0.8124991 A 2.0312478,2.0312478 0 0 1 13.687488,5.5625029 2.0312478,2.0312478 0 0 1 11.65624,7.5937507 2.0312478,2.0312478 0 0 1 9.6249915,5.5625029 2.0312478,2.0312478 0 0 1 11.65624,3.5312551 Z m 0,0.8124991 A 1.2187487,1.2187487 0 0 0 10.437491,5.5625029 1.2187487,1.2187487 0 0 0 11.65624,6.7812515 1.2187487,1.2187487 0 0 0 12.874988,5.5625029 1.2187487,1.2187487 0 0 0 11.65624,4.3437542 Z M 6.3749949,9.2187489 A 1.6249982,1.6249982 0 0 1 7.9999932,10.843747 1.6249982,1.6249982 0 0 1 6.3749949,12.468745 1.6249982,1.6249982 0 0 1 4.7833221,11.159543 l 0.5728753,0.331664 C 5.9409261,11.828801 6.6832749,11.630014 7.0208683,11.045285 7.3584617,10.460556 7.1596748,9.7182075 6.5749459,9.3806141 L 6.3004101,9.2219225 a 1.6249982,1.6249982 0 0 1 0.074585,-0.00317 z" id="path24" style="stroke-width:0.812499"/>
</svg>
