<?xml version='1.0' encoding='UTF-8'?>
<svg xmlns:inkscape="http://www.inkscape.org/namespaces/inkscape" xmlns:sodipodi="http://sodipodi.sourceforge.net/DTD/sodipodi-0.dtd" xmlns="http://www.w3.org/2000/svg" xmlns:svg="http://www.w3.org/2000/svg" xmlns:rdf="http://www.w3.org/1999/02/22-rdf-syntax-ns#" xmlns:cc="http://creativecommons.org/ns#" xmlns:dc="http://purl.org/dc/elements/1.1/" width="64" height="64" version="1.1" viewBox="0 0 16.933 16.933" id="svg7" sodipodi:docname="strawberry.svg" inkscape:version="1.4 (e7c3feb100, 2024-10-09)">
  <sodipodi:namedview id="namedview7" pagecolor="#9c4444" bordercolor="#000000" borderopacity="0.25" inkscape:showpageshadow="2" inkscape:pageopacity="0.0" inkscape:pagecheckerboard="0" inkscape:deskcolor="#d1d1d1" inkscape:zoom="6.15625" inkscape:cx="15.837563" inkscape:cy="29.725888" inkscape:window-width="1183" inkscape:window-height="941" inkscape:window-x="35" inkscape:window-y="32" inkscape:window-maximized="0" inkscape:current-layer="svg7" showgrid="false"/>
  <defs id="defs2">
    <style id="current-color-scheme" type="text/css">.ColorScheme-Text {color:#d8dee9} .ColorScheme-Highlight {color:#3b4252}</style></defs>
  <metadata id="metadata2">
    <rdf:RDF>
      <cc:Work rdf:about="">
        <dc:format>image/svg+xml</dc:format>
        <dc:type rdf:resource="http://purl.org/dc/dcmitype/StillImage"/>
      </cc:Work>
    </rdf:RDF>
  </metadata>
  <path id="path11" style="fill:currentColor;fill-opacity:1;stroke:none;stroke-width:0.0887773;stroke-opacity:1" d="m 8.7023986,0.99519245 c -0.00236,0.004788 0.00168,0.0201646 0.01463,0.0503346 C 8.8752587,1.413378 8.8892427,1.71433 8.7618706,1.9899438 8.70887,2.1046241 8.6892354,2.2148619 8.6740183,2.4786237 8.6511233,2.8753348 8.6172824,2.9485104 8.4086282,3.0542435 8.120528,3.2002338 7.5100846,3.337019 7.1439155,3.337019 6.9077749,3.337019 6.698021,3.2676063 6.2928418,3.0560732 6.0357116,2.9218325 5.9544385,2.8931805 5.8325349,2.8931805 H 5.6842836 L 5.8297894,3.0331972 C 6.0057199,3.2038115 6.0683967,3.3716207 6.0054938,3.4999144 5.9832239,3.5453396 5.9457179,3.5920169 5.921301,3.6033257 5.6850366,3.7127372 5.5256792,3.8165672 5.1132386,4.1276947 4.8497145,4.3264862 4.5937691,4.524068 4.5449416,4.5669586 l -0.088768,0.077788 0.183027,-0.017385 C 4.8881653,4.6041277 5.0732601,4.5282086 5.4033435,4.3143779 5.7754973,4.0732962 6.0128745,3.9863446 6.3505047,3.9666281 6.589991,3.9526441 6.6244093,3.9574321 6.6945945,4.0132997 6.8645457,4.1486329 6.8196088,4.313942 6.468557,4.8497299 6.3625959,5.0114522 6.2763789,5.1503708 6.2763789,5.1581303 c 0,0.02942 0.4985569,-0.2360046 0.7284459,-0.3880161 C 7.136814,4.6828396 7.318773,4.537078 7.4102284,4.4470716 7.5446306,4.3148012 7.5955354,4.2843423 7.6737869,4.2850928 c 0.1569894,0.00157 0.2598972,0.1172091 0.2598972,0.2928424 0,0.2886235 0.4086406,1.0910686 0.720209,1.4147948 C 8.7206311,6.062072 8.783456,6.1159146 8.7939098,6.1117004 8.8344634,6.0952274 9.0550956,5.8202263 9.1874166,5.6211855 9.4196815,5.2718114 9.5628195,4.933354 9.5873293,4.6767702 9.6047523,4.4944709 9.6214571,4.4426351 9.6770131,4.3976549 9.7935838,4.303261 9.8848935,4.330317 10.295642,4.5788503 c 0.541668,0.3277477 0.744743,0.4684032 1.317794,0.9142171 0.274366,0.2134488 0.51136,0.3807132 0.526201,0.371545 0.0434,-0.026819 0.16245,-0.2797028 0.214138,-0.4539062 0.05504,-0.1855844 0.06304,-0.6292243 0.01463,-0.8309409 -0.07756,-0.323197 -0.0014,-0.4436078 0.282777,-0.4456689 l 0.17936,-9.071e-4 -0.118066,-0.062229 C 12.496841,3.9571492 11.659796,3.6329142 11.280322,3.5164011 10.807749,3.3713009 10.296954,3.2854032 9.698059,3.2510119 9.1756548,3.221012 9.1406568,3.2088384 8.9934074,2.99386 8.8084752,2.723878 8.7467437,2.3036242 8.8387497,1.9405426 8.9149794,1.6397262 8.9095152,1.3488005 8.8231964,1.1690861 8.7739912,1.0666437 8.7094524,0.98078038 8.7023971,0.99521107 Z M 6.0576665,4.5285187 C 6.0418015,4.5126537 5.7955235,4.6505196 5.471981,4.8570506 5.2300388,5.0114959 5.0393244,5.0762707 4.6959498,5.1206094 L 4.4323911,5.1553813 4.3161719,5.3027168 C 4.1003307,5.5757757 3.8710646,6.109203 3.7460432,6.6296584 3.4736786,7.7634977 3.684814,9.0743783 4.405854,10.720298 c 0.3791526,0.865495 1.6595187,3.346433 1.9373351,3.753875 0.2172234,0.318573 0.7298811,0.847924 0.9892578,1.021286 0.2702182,0.180614 0.5742279,0.324582 0.8162984,0.388018 0.2663357,0.06981 0.7119608,0.07663 0.9499074,0.01444 0.4097831,-0.106723 0.9045603,-0.425266 1.3534823,-0.871207 0.410516,-0.407792 0.588211,-0.653938 1.152151,-1.598736 0.257712,-0.431758 0.59415,-0.977467 0.748577,-1.213466 0.876303,-1.339158 0.941748,-1.454097 1.143002,-1.996784 0.26667,-0.7190061 0.381923,-1.2365441 0.405401,-1.8210268 C 13.930241,7.6758488 13.835716,7.1817545 13.559007,6.6066977 13.391484,6.2585534 13.150699,5.84657 12.964171,5.5899928 l -0.09428,-0.1299467 -0.06865,0.195838 C 12.685118,5.988325 12.467492,6.3202987 12.311673,6.400876 12.123725,6.4980667 12.052549,6.4689435 11.596955,6.1126095 10.942277,5.6005675 10.513595,5.2866643 10.276427,5.1462306 10.157182,5.0756212 10.055342,5.0226445 10.05039,5.0281786 10.04545,5.0337266 9.9912636,5.1565255 9.9295915,5.3008883 9.7709809,5.6721608 9.4070319,6.2086437 9.149899,6.45121 8.9175054,6.6704385 8.8358088,6.6947929 8.6273585,6.6076971 8.3104706,6.4752935 7.8681936,5.8555304 7.5557382,5.1068798 L 7.5227996,5.0281786 7.2766291,5.1910728 C 7.0129051,5.3656332 6.4730676,5.6394217 6.2315488,5.7209334 6.1501697,5.7484014 5.9995943,5.7719017 5.8966097,5.7740113 5.7204398,5.7776431 5.7043567,5.7725241 5.6229854,5.6815835 5.4811149,5.5230532 5.5097883,5.4263588 5.860919,4.8753521 5.9773713,4.6926116 6.0658541,4.5366969 6.0576731,4.5285162 Z m 0.045758,2.4562155 c 0.016226,1.657e-4 0.032389,0.00236 0.048505,0.00638 0.1170609,0.029385 0.2875857,0.2257379 0.364222,0.4200459 0.1014619,0.2572435 0.099497,0.650436 -0.00458,0.8529034 -0.041656,0.081035 -0.1204543,0.1775189 -0.1747905,0.214141 -0.068708,0.046314 -0.1426805,0.066804 -0.2424963,0.066804 -0.1229243,0 -0.1599097,-0.014896 -0.2598981,-0.1052391 C 5.6813399,8.3015279 5.6102432,8.1137243 5.6110867,7.8495298 5.6125379,7.4028575 5.8600425,6.9822446 6.1034281,6.9847302 Z m 5.0542775,0.00275 c 0.123329,-0.00885 0.231181,0.049539 0.35507,0.1839409 0.172444,0.1870778 0.2454,0.3649233 0.261727,0.6405934 0.01197,0.2048732 0.0053,0.2463804 -0.06772,0.3953364 -0.06,0.1226564 -0.117059,0.1883584 -0.216887,0.2516611 -0.27143,0.17214 -0.660765,0.084238 -0.828203,-0.1866788 -0.247121,-0.3998512 -0.04381,-1.0972069 0.366055,-1.253731 0.04564,-0.017423 0.08885,-0.02816 0.12996,-0.031116 z M 7.7854375,8.6530419 C 8.1023585,8.6264706 8.4412727,9.0582352 8.4425028,9.5215036 8.4433011,9.8167976 8.3299709,10.032067 8.1167153,10.140132 7.6113951,10.3962 7.1031312,9.9465038 7.2244614,9.3512878 7.294006,9.0101211 7.4974439,8.7285103 7.7222929,8.6640245 c 0.020837,-0.00597 0.042019,-0.00921 0.063145,-0.011001 z m 3.8746705,1.0560632 c 0.04182,0.00283 0.0855,0.014003 0.132696,0.032019 0.158574,0.060557 0.294177,0.2065647 0.398996,0.4301129 0.06278,0.133874 0.07686,0.207703 0.07686,0.400825 2.8e-5,0.276253 -0.07076,0.435654 -0.260811,0.588432 -0.09595,0.07712 -0.141493,0.09239 -0.310229,0.100665 -0.289632,0.01416 -0.457691,-0.08995 -0.586602,-0.363307 C 10.973363,10.60596 11.052928,10.17871 11.294957,9.9095186 11.426741,9.7629279 11.53464,9.7005737 11.660094,9.7091045 Z M 9.8453997,11.212664 c 0.062335,0.0025 0.108566,0.02578 0.2013303,0.08878 0.246985,0.167728 0.430121,0.596308 0.383439,0.898665 -0.02734,0.177061 -0.152323,0.386029 -0.284604,0.477698 -0.1475353,0.102258 -0.4304474,0.129086 -0.5701289,0.054 -0.2454629,-0.131993 -0.3769376,-0.358591 -0.3752037,-0.647013 0.00256,-0.435533 0.2665911,-0.833937 0.5756182,-0.868458 0.026617,-0.0031 0.048775,-0.0045 0.069551,-0.0035 z m -2.9448955,0.672628 c 0.070598,-0.0038 0.1425494,0.02964 0.2223769,0.09975 0.1434519,0.12597 0.2170051,0.29298 0.2178012,0.496002 8.708e-4,0.218221 -0.071222,0.351498 -0.2370182,0.436516 -0.1692121,0.08675 -0.2685621,0.07976 -0.4209617,-0.02839 -0.2507986,-0.177973 -0.2491209,-0.615543 0.00367,-0.881272 0.074402,-0.0782 0.1435431,-0.118921 0.2141403,-0.122626 z" class="ColorScheme-Text"/>
  </svg>
