<?xml version='1.0' encoding='UTF-8'?>
<svg xmlns:inkscape="http://www.inkscape.org/namespaces/inkscape" xmlns:sodipodi="http://sodipodi.sourceforge.net/DTD/sodipodi-0.dtd" xmlns="http://www.w3.org/2000/svg" xmlns:svg="http://www.w3.org/2000/svg" xmlns:rdf="http://www.w3.org/1999/02/22-rdf-syntax-ns#" xmlns:cc="http://creativecommons.org/ns#" xmlns:dc="http://purl.org/dc/elements/1.1/" width="64" height="64" version="1.1" viewBox="0 0 16.933 16.933" id="svg7" sodipodi:docname="upscayl.svg" inkscape:version="1.4 (e7c3feb100, 2024-10-09)">
  <sodipodi:namedview id="namedview7" pagecolor="#9c4444" bordercolor="#000000" borderopacity="0.25" inkscape:showpageshadow="2" inkscape:pageopacity="0.0" inkscape:pagecheckerboard="0" inkscape:deskcolor="#d1d1d1" inkscape:zoom="6.15625" inkscape:cx="15.837563" inkscape:cy="27.28934" inkscape:window-width="1183" inkscape:window-height="941" inkscape:window-x="35" inkscape:window-y="32" inkscape:window-maximized="0" inkscape:current-layer="svg7" showgrid="false"/>
  <defs id="defs2">
    <style id="current-color-scheme" type="text/css">.ColorScheme-Text {color:#d8dee9} .ColorScheme-Highlight {color:#3b4252}</style></defs>
  <metadata id="metadata2">
    <rdf:RDF>
      <cc:Work rdf:about="">
        <dc:format>image/svg+xml</dc:format>
        <dc:type rdf:resource="http://purl.org/dc/dcmitype/StillImage"/>
      </cc:Work>
    </rdf:RDF>
  </metadata>
  <path id="path8" style="fill:currentColor;fill-opacity:1;stroke:none;stroke-width:0.0598758;stroke-opacity:1" d="M 8.3896477,1.2939791 C 8.2459222,1.2986303 8.1531457,1.3402979 8.0346243,1.4400268 7.7586797,1.6722197 7.7594811,1.6641427 7.7584952,3.6974309 L 7.7575881,5.5242047 7.9271156,5.4936831 C 8.13842,5.4558047 8.8048406,5.454127 9.0053347,5.4908711 l 0.1493362,0.027233 V 3.6631745 c 0,-1.7693749 -0.00363,-1.8623639 -0.078894,-2.0099209 C 8.9700229,1.4459883 8.7884743,1.3236646 8.5530892,1.3010466 8.4910272,1.2950966 8.437573,1.2924366 8.3896664,1.2939966 Z m 0.026769,4.4983716 C 7.949092,5.7917703 7.5521571,5.9044473 7.1188893,6.1605229 6.271828,6.6611645 5.7980532,7.4856627 5.7988223,8.4573738 c 4.353e-4,0.4806751 0.06731,0.7624932 0.2888089,1.2172228 0.3288809,0.6751844 1.0684544,1.2600294 1.7896748,1.4149274 0.8895526,0.191055 1.8180481,-0.08298 2.468258,-0.72883 0.223799,-0.222297 0.353991,-0.3944489 0.473364,-0.6259877 0.253657,-0.4919932 0.309397,-0.721847 0.308533,-1.2773325 C 11.126627,7.9179383 11.090519,7.7559415 10.871524,7.2997906 10.613395,6.762125 10.204647,6.352671 9.653832,6.0806894 9.2238451,5.8683705 8.9002831,5.7929517 8.4164167,5.7923507 Z m -0.6386662,1.3628011 0.010336,1.229433 c 0.00579,0.6761513 0.00217,1.2520234 -0.00845,1.2796808 -0.010621,0.02766 -0.035939,0.050247 -0.055883,0.050247 -0.019942,0 -0.2313678,-0.1367772 -0.4700773,-0.3038355 C 6.3206406,8.7577041 6.0411449,8.5420735 6.0411449,8.4742809 c 0,-0.071434 0.2961334,-0.3028965 1.2176929,-0.952834 z m 1.3914471,0.061988 c 0.1580743,0.030544 1.6956224,1.1340744 1.7319114,1.2482168 0.01493,0.047139 -0.507573,0.4502941 -1.2731045,0.98195 C 9.2457326,9.7127917 9.1925929,9.7393176 9.141491,9.6882146 9.093824,9.6405496 9.110192,7.2473988 9.158401,7.2176095 c 0.00213,-0.00131 0.0057,-0.00144 0.010792,-4.716e-4 z m -1.4139884,4.2043982 0.011286,1.873735 0.011286,1.874203 0.1122349,0.169537 c 0.070705,0.106799 0.1743725,0.197914 0.2794171,0.245606 0.2744459,0.124583 0.5511539,0.08388 0.7565374,-0.111283 0.2352018,-0.22352 0.2286888,-0.163856 0.2286888,-2.188842 v -1.862475 l -0.1765727,0.0263 c -0.2278655,0.03416 -0.8165096,0.03424 -1.0448767,0 z" class="ColorScheme-Text"/>
</svg>
