<?xml version='1.0' encoding='UTF-8'?>
<svg xmlns:inkscape="http://www.inkscape.org/namespaces/inkscape" xmlns:sodipodi="http://sodipodi.sourceforge.net/DTD/sodipodi-0.dtd" xmlns="http://www.w3.org/2000/svg" xmlns:svg="http://www.w3.org/2000/svg" xmlns:rdf="http://www.w3.org/1999/02/22-rdf-syntax-ns#" xmlns:cc="http://creativecommons.org/ns#" xmlns:dc="http://purl.org/dc/elements/1.1/" width="64" height="64" version="1.1" viewBox="0 0 16.933 16.933" id="svg7" sodipodi:docname="viewnior.svg" inkscape:version="1.4.2 (ebf0e940d0, 2025-05-08)">
  <sodipodi:namedview id="namedview7" pagecolor="#9c4444" bordercolor="#000000" borderopacity="0.25" inkscape:showpageshadow="2" inkscape:pageopacity="0.0" inkscape:pagecheckerboard="0" inkscape:deskcolor="#d1d1d1" inkscape:zoom="4.3531261" inkscape:cx="36.295755" inkscape:cy="40.430715" inkscape:window-width="2560" inkscape:window-height="1376" inkscape:window-x="0" inkscape:window-y="0" inkscape:window-maximized="1" inkscape:current-layer="svg7" showgrid="false"/>
  <defs id="defs2">
    <style id="current-color-scheme" type="text/css">.ColorScheme-Text {color:#d8dee9} .ColorScheme-Highlight {color:#3b4252}</style>
    </defs>
  <metadata id="metadata2">
    <rdf:RDF>
      <cc:Work rdf:about="">
        <dc:format>image/svg+xml</dc:format>
        <dc:type rdf:resource="http://purl.org/dc/dcmitype/StillImage"/>
      </cc:Work>
    </rdf:RDF>
  </metadata>
  <path style="color:none;fill:currentColor;fill-rule:evenodd;stroke:none;stroke-width:0.174468;stroke-dasharray:none;stroke-opacity:0.6" d="m 8.4665005,4.1007554 v 0.00142 c -1.438236,0.013279 -2.885704,0.3220918 -4.138506,0.9904639 -0.499322,0.3061734 -1.098766,0.7014786 -1.550489,1.0998955 -0.710754,0.6551154 -1.31915,1.4188485 -1.730173,2.2751084 1.126736,2.3398378 3.603117,4.0552488 6.328031,4.3086368 1.787424,0.190478 3.6584065,-0.101039 5.2296435,-0.933632 0.499305,-0.306173 1.09876,-0.701477 1.550485,-1.099897 0.710759,-0.656538 1.319154,-1.4202734 1.730176,-2.2751371 -1.126229,-2.3397021 -3.60371,-4.0543911 -6.3280315,-4.3072172 -0.362052,-0.040512 -0.7276,-0.059685 -1.091136,-0.059685 z m 0.0029,1.4551596 C 10.056888,5.521424 11.462598,6.914759 11.432728,8.4633935 11.483708,10.174985 9.7452365,11.652123 8.0260985,11.3325 6.2898915,11.132567 5.0699085,9.2217773 5.6409535,7.603654 c 0.3651,-1.1904595 1.557682,-2.0602693 2.830006,-2.0463163 z m -0.0029,1.4551581 a 1.4838326,1.4543217 0 0 0 -1.483833,1.4565823 1.4838326,1.4543217 0 0 0 1.483833,1.4537389 1.4838326,1.4543217 0 0 0 1.483835,-1.4537389 1.4838326,1.4543217 0 0 0 -1.483835,-1.4523189 z" id="path24" class="ColorScheme-Text"/>
</svg>
