
<svg xmlns="http://www.w3.org/2000/svg" xmlns:xlink="http://www.w3.org/1999/xlink" width="16px" height="16px" viewBox="0 0 16 16" version="1.1">
<g id="surface1">
<path style=" stroke:none;fill-rule:nonzero;fill:#ff6666;fill-opacity:1;" d="M 8.019531 1.039062 C 6.78125 1.039062 5.789062 1.269531 4.980469 1.640625 C 4.8125 1.714844 4.652344 1.789062 4.5 1.878906 C 4.457031 1.902344 4.417969 1.929688 4.375 1.957031 C 4.273438 2.019531 4.171875 2.082031 4.074219 2.148438 C 3.996094 2.207031 3.921875 2.269531 3.847656 2.332031 C 3.320312 2.761719 2.933594 3.277344 2.648438 3.84375 C 2.632812 3.871094 2.613281 3.898438 2.601562 3.925781 C 2.585938 3.957031 2.578125 3.988281 2.5625 4.019531 C 2.390625 4.398438 2.242188 4.792969 2.15625 5.203125 C 2.140625 5.28125 2.140625 5.359375 2.128906 5.4375 C 2.089844 5.648438 2.058594 5.855469 2.039062 6.0625 C 2.035156 6.078125 2.035156 6.097656 2.035156 6.117188 C 2.015625 6.363281 2.019531 6.585938 2.023438 6.820312 C 2.023438 6.90625 2.019531 6.992188 2.023438 7.078125 C 2.035156 7.324219 2.054688 7.542969 2.085938 7.761719 C 2.105469 7.910156 2.128906 8.054688 2.152344 8.207031 C 2.160156 8.226562 2.160156 8.253906 2.164062 8.273438 L 2.164062 8.277344 L 2.183594 8.359375 C 2.207031 8.503906 2.230469 8.652344 2.261719 8.796875 L 2.355469 9.21875 L 2.363281 9.214844 L 3.269531 13.519531 L 4.277344 13.34375 C 4.84375 13.242188 5.25 13.152344 5.4375 13.003906 C 5.53125 12.925781 5.585938 12.847656 5.613281 12.703125 C 5.640625 12.554688 5.636719 12.34375 5.574219 12.054688 L 4.894531 8.839844 C 4.832031 8.546875 4.753906 8.351562 4.667969 8.222656 C 4.578125 8.09375 4.492188 8.035156 4.371094 7.996094 C 4.128906 7.917969 3.71875 7.976562 3.148438 8.078125 L 3.007812 8.101562 C 2.851562 7.183594 2.820312 6.234375 3 5.378906 C 3.210938 4.359375 3.691406 3.480469 4.574219 2.851562 C 5.441406 2.230469 6.734375 1.914062 8.019531 1.917969 C 9.304688 1.914062 10.59375 2.230469 11.464844 2.851562 C 12.347656 3.480469 12.828125 4.359375 13.039062 5.378906 C 13.21875 6.234375 13.1875 7.183594 13.027344 8.101562 L 12.890625 8.078125 C 12.320312 7.976562 11.910156 7.917969 11.664062 7.996094 C 11.542969 8.035156 11.457031 8.09375 11.371094 8.222656 C 11.285156 8.351562 11.207031 8.546875 11.144531 8.839844 L 10.464844 12.054688 C 10.402344 12.34375 10.394531 12.554688 10.421875 12.703125 C 10.453125 12.847656 10.503906 12.925781 10.597656 13.003906 C 10.789062 13.152344 11.191406 13.242188 11.757812 13.34375 L 11.773438 13.34375 L 11.398438 15.019531 L 9 15 L 9 14 L 7 14 L 7 15.5 C 7 15.5 7 16 7.5 16 L 9 16 L 11.800781 16.019531 C 12.03125 16.015625 12.234375 15.855469 12.285156 15.628906 L 12.761719 13.519531 L 12.769531 13.519531 L 13.675781 9.214844 L 13.683594 9.21875 L 13.777344 8.796875 C 13.808594 8.652344 13.828125 8.503906 13.855469 8.359375 L 13.875 8.277344 L 13.875 8.273438 C 13.878906 8.253906 13.882812 8.226562 13.886719 8.207031 C 13.910156 8.054688 13.933594 7.910156 13.953125 7.761719 C 13.980469 7.542969 14 7.324219 14.011719 7.078125 C 14.015625 6.992188 14.015625 6.902344 14.015625 6.820312 C 14.019531 6.585938 14.023438 6.363281 14.003906 6.117188 C 14.003906 6.097656 14 6.078125 14 6.058594 C 13.980469 5.855469 13.949219 5.644531 13.910156 5.433594 C 13.898438 5.359375 13.894531 5.28125 13.878906 5.203125 C 13.792969 4.792969 13.648438 4.398438 13.472656 4.015625 C 13.460938 3.988281 13.449219 3.957031 13.4375 3.925781 C 13.421875 3.898438 13.402344 3.871094 13.390625 3.84375 C 13.101562 3.277344 12.714844 2.761719 12.191406 2.332031 C 12.113281 2.269531 12.042969 2.207031 11.964844 2.148438 C 11.867188 2.082031 11.765625 2.019531 11.664062 1.957031 C 11.621094 1.929688 11.582031 1.902344 11.542969 1.878906 C 11.386719 1.789062 11.226562 1.714844 11.058594 1.640625 C 10.25 1.269531 9.253906 1.039062 8.019531 1.039062 Z M 8.019531 1.039062 "/>
</g>
</svg>
