
<svg xmlns="http://www.w3.org/2000/svg" xmlns:xlink="http://www.w3.org/1999/xlink" width="16px" height="16px" viewBox="0 0 16 16" version="1.1">
<g id="surface1">
<path style=" stroke:none;fill-rule:evenodd;fill:#ff6666;fill-opacity:1;" d="M 10.792969 4.019531 C 10.734375 4.015625 10.667969 4.019531 10.589844 4.027344 L 6.984375 4.589844 C 6.578125 4.632812 6.53125 4.820312 6.535156 5.058594 L 6.535156 9.816406 C 6.328125 9.683594 6.109375 9.585938 5.8125 9.585938 C 5.433594 9.585938 5.207031 9.730469 5.070312 9.921875 C 4.933594 10.113281 4.886719 10.355469 4.886719 10.542969 C 4.886719 10.765625 4.964844 11.003906 5.132812 11.1875 C 5.296875 11.371094 5.554688 11.5 5.921875 11.5 C 6.339844 11.5 6.628906 11.382812 6.796875 11.15625 C 6.925781 10.980469 7 10.738281 7.023438 10.445312 C 7.027344 10.410156 7.03125 10.371094 7.03125 10.335938 C 7.035156 10.304688 7.035156 10.285156 7.035156 10.25 L 7.035156 6.398438 C 7.046875 6.085938 7.328125 6.042969 7.328125 6.042969 L 10.253906 5.585938 C 10.535156 5.5 10.535156 5.847656 10.535156 5.847656 L 10.535156 9.316406 C 10.328125 9.183594 10.109375 9.085938 9.8125 9.085938 C 9.433594 9.085938 9.207031 9.230469 9.070312 9.421875 C 8.933594 9.613281 8.886719 9.855469 8.886719 10.042969 C 8.886719 10.265625 8.964844 10.503906 9.132812 10.6875 C 9.300781 10.871094 9.554688 11 9.921875 11 C 10.339844 11 10.632812 10.882812 10.796875 10.65625 C 10.925781 10.480469 11 10.238281 11.023438 9.945312 C 11.027344 9.910156 11.03125 9.871094 11.03125 9.835938 C 11.035156 9.804688 11.035156 9.785156 11.035156 9.75 L 11.035156 4.464844 C 11.042969 4.121094 10.964844 4.03125 10.792969 4.019531 Z M 10.792969 4.019531 "/>
<path style=" stroke:none;fill-rule:nonzero;fill:#ff6666;fill-opacity:1;" d="M 4.996094 1 C 3.734375 1.015625 2.816406 0.96875 2.0625 1.386719 C 1.6875 1.59375 1.386719 1.945312 1.222656 2.382812 C 1.058594 2.820312 1 3.34375 1 4 L 1 12 C 1 12.65625 1.058594 13.179688 1.222656 13.617188 C 1.386719 14.054688 1.6875 14.40625 2.0625 14.613281 C 2.816406 15.03125 3.734375 14.984375 4.996094 15 L 11.003906 15 C 12.265625 14.984375 13.183594 15.03125 13.9375 14.613281 C 14.3125 14.40625 14.613281 14.054688 14.777344 13.617188 C 14.941406 13.179688 15 12.65625 15 12 L 15 4 C 15 3.34375 14.941406 2.820312 14.777344 2.382812 C 14.613281 1.945312 14.3125 1.59375 13.9375 1.386719 C 13.183594 0.96875 12.265625 1.015625 11.003906 1 Z M 5.003906 2 L 11 2 C 12.257812 2.015625 13.085938 2.058594 13.453125 2.261719 C 13.636719 2.363281 13.742188 2.472656 13.839844 2.734375 C 13.9375 2.992188 14 3.40625 14 4 L 14 12 C 14 12.59375 13.9375 13.003906 13.839844 13.265625 C 13.742188 13.523438 13.636719 13.636719 13.453125 13.738281 C 13.085938 13.941406 12.257812 13.984375 11 14 L 5 14 C 3.742188 13.984375 2.914062 13.941406 2.546875 13.738281 C 2.363281 13.636719 2.257812 13.523438 2.160156 13.265625 C 2.0625 13.003906 2 12.59375 2 12 L 2 4 C 2 3.40625 2.0625 2.992188 2.160156 2.734375 C 2.257812 2.472656 2.363281 2.363281 2.546875 2.261719 C 2.914062 2.058594 3.742188 2.015625 5.003906 2 Z M 5.003906 2 "/>
</g>
</svg>
