
<svg xmlns="http://www.w3.org/2000/svg" xmlns:xlink="http://www.w3.org/1999/xlink" width="16px" height="16px" viewBox="0 0 16 16" version="1.1">
<g id="surface1">
<path style=" stroke:none;fill-rule:nonzero;fill:#ff6666;fill-opacity:1;" d="M 7.5 0 C 6.089844 0 5 0.84375 5 2.542969 L 5 8.476562 C 5 10.175781 6.089844 11.023438 7.5 11.023438 C 8.910156 11.023438 10 10.171875 10 8.476562 L 10 2.542969 C 10 0.847656 8.910156 0 7.5 0 Z M 7.5 1 C 8.003906 1 8.359375 1.140625 8.59375 1.359375 C 8.824219 1.582031 9 1.910156 9 2.542969 L 9 8.476562 C 9 9.109375 8.824219 9.4375 8.59375 9.660156 C 8.359375 9.878906 8.003906 10.023438 7.5 10.023438 C 6.992188 10.023438 6.640625 9.878906 6.40625 9.660156 C 6.175781 9.441406 6 9.113281 6 8.476562 L 6 2.542969 C 6 1.90625 6.175781 1.582031 6.40625 1.359375 C 6.640625 1.140625 6.992188 1 7.5 1 Z M 7.5 1 "/>
<path style=" stroke:none;fill-rule:nonzero;fill:#ff6666;fill-opacity:1;" d="M 7 11.523438 L 8 11.523438 L 8 15.523438 L 7 15.523438 Z M 7 11.523438 "/>
<path style=" stroke:none;fill-rule:nonzero;fill:#ff6666;fill-opacity:1;" d="M 7.5 15.023438 C 6.667969 15.023438 5.832031 15.179688 5 15.480469 L 5 16.019531 L 10 16.019531 L 10 15.480469 C 9.167969 15.1875 8.332031 15.023438 7.5 15.023438 Z M 7.5 15.023438 "/>
<path style=" stroke:none;fill-rule:nonzero;fill:#ff6666;fill-opacity:1;" d="M 3 7.023438 L 3 8.523438 C 3 11.015625 5.007812 13.023438 7.5 13.023438 C 9.992188 13.023438 12 11.015625 12 8.523438 L 12 7.023438 L 11 7.023438 L 11 8.523438 C 11 10.460938 9.4375 12.023438 7.5 12.023438 C 5.5625 12.023438 4 10.460938 4 8.523438 L 4 7.023438 Z M 3 7.023438 "/>
</g>
</svg>
