
<svg xmlns="http://www.w3.org/2000/svg" xmlns:xlink="http://www.w3.org/1999/xlink" width="16px" height="16px" viewBox="0 0 16 16" version="1.1">
<g id="surface1">
<path style=" stroke:none;fill-rule:nonzero;fill:#ff6666;fill-opacity:1;" d="M 5.660156 0 C 4.824219 0.0117188 4.210938 -0.0195312 3.707031 0.257812 C 3.457031 0.394531 3.257812 0.628906 3.148438 0.921875 C 3.039062 1.214844 3 1.5625 3 2 L 3 14 C 3 14.4375 3.039062 14.785156 3.148438 15.078125 C 3.257812 15.371094 3.457031 15.605469 3.707031 15.742188 C 4.210938 16.019531 4.824219 15.992188 5.660156 16 L 11.339844 16 C 12.175781 15.988281 12.789062 16.019531 13.292969 15.742188 C 13.542969 15.605469 13.742188 15.371094 13.851562 15.078125 C 13.960938 14.785156 14 14.4375 14 14 L 14 2 C 14 1.5625 13.960938 1.214844 13.851562 0.921875 C 13.742188 0.628906 13.542969 0.394531 13.289062 0.257812 C 12.789062 -0.0195312 12.175781 0.0078125 11.335938 0 Z M 8 1.300781 L 12.238281 5.542969 L 9.300781 8.011719 L 12.238281 10.480469 L 8 14.71875 L 8 9.105469 L 5.570312 11.144531 L 4.925781 10.375 L 7.746094 8.011719 L 4.925781 5.644531 L 5.570312 4.875 L 8 6.917969 Z M 9 3.71875 L 9 6.957031 L 10.757812 5.476562 Z M 9 9.0625 L 9 12.300781 L 10.757812 10.542969 Z M 9 9.0625 "/>
</g>
</svg>
