
<svg xmlns="http://www.w3.org/2000/svg" xmlns:xlink="http://www.w3.org/1999/xlink" width="16px" height="16px" viewBox="0 0 16 16" version="1.1">
<g id="surface1">
<path style=" stroke:none;fill-rule:nonzero;fill:#ff6666;fill-opacity:1;" d="M 13.332031 12 C 14.066406 12 14.660156 11.398438 14.660156 10.667969 L 14.667969 3.332031 C 14.667969 2.601562 14.066406 2 13.332031 2 L 2.667969 2 C 1.933594 2 1.332031 2.601562 1.332031 3.332031 L 1.332031 10.667969 C 1.332031 11.398438 1.933594 12 2.667969 12 L 0 12 C 0 12.734375 0.601562 13.332031 1.332031 13.332031 L 14.667969 13.332031 C 15.398438 13.332031 16 12.734375 16 12 Z M 2.667969 3.332031 L 13.332031 3.332031 L 13.332031 10.667969 L 2.667969 10.667969 Z M 8 12.667969 C 7.632812 12.667969 7.332031 12.367188 7.332031 12 C 7.332031 11.632812 7.632812 11.332031 8 11.332031 C 8.367188 11.332031 8.667969 11.632812 8.667969 12 C 8.667969 12.367188 8.367188 12.667969 8 12.667969 Z M 8 12.667969 "/>
</g>
</svg>
