
<svg xmlns="http://www.w3.org/2000/svg" xmlns:xlink="http://www.w3.org/1999/xlink" width="16px" height="16px" viewBox="0 0 16 16" version="1.1">
<g id="surface1">
<path style=" stroke:none;fill-rule:nonzero;fill:#ff6666;fill-opacity:1;" d="M 14.398438 0 L 1.601562 0 C 0.714844 0 0 0.714844 0 1.601562 L 0 14.398438 C 0 15.285156 0.714844 16 1.601562 16 L 14.398438 16 C 15.285156 16 16 15.285156 16 14.398438 L 16 1.601562 C 16 0.714844 15.285156 0 14.398438 0 Z M 3.199219 4 C 2.761719 4 2.398438 3.640625 2.398438 3.199219 C 2.398438 2.761719 2.761719 2.398438 3.199219 2.398438 C 3.640625 2.398438 4 2.761719 4 3.199219 C 4 3.640625 3.640625 4 3.199219 4 Z M 3.199219 7.199219 C 2.761719 7.199219 2.398438 6.839844 2.398438 6.398438 C 2.398438 5.960938 2.761719 5.601562 3.199219 5.601562 C 3.640625 5.601562 4 5.960938 4 6.398438 C 4 6.839844 3.640625 7.199219 3.199219 7.199219 Z M 3.199219 10.398438 C 2.761719 10.398438 2.398438 10.039062 2.398438 9.601562 C 2.398438 9.160156 2.761719 8.800781 3.199219 8.800781 C 3.640625 8.800781 4 9.160156 4 9.601562 C 4 10.039062 3.640625 10.398438 3.199219 10.398438 Z M 12.800781 7.199219 C 12.359375 7.199219 12 6.839844 12 6.398438 C 12 5.960938 12.359375 5.601562 12.800781 5.601562 C 13.238281 5.601562 13.601562 5.960938 13.601562 6.398438 C 13.601562 6.839844 13.238281 7.199219 12.800781 7.199219 Z M 12.800781 10.398438 C 12.359375 10.398438 12 10.039062 12 9.601562 C 12 9.160156 12.359375 8.800781 12.800781 8.800781 C 13.238281 8.800781 13.601562 9.160156 13.601562 9.601562 C 13.601562 10.039062 13.238281 10.398438 12.800781 10.398438 Z M 6.398438 4 C 5.960938 4 5.601562 3.640625 5.601562 3.199219 C 5.601562 2.761719 5.960938 2.398438 6.398438 2.398438 C 6.839844 2.398438 7.199219 2.761719 7.199219 3.199219 C 7.199219 3.640625 6.839844 4 6.398438 4 Z M 9.601562 4 C 9.160156 4 8.800781 3.640625 8.800781 3.199219 C 8.800781 2.761719 9.160156 2.398438 9.601562 2.398438 C 10.039062 2.398438 10.398438 2.761719 10.398438 3.199219 C 10.398438 3.640625 10.039062 4 9.601562 4 Z M 12.800781 4 C 12.359375 4 12 3.640625 12 3.199219 C 12 2.761719 12.359375 2.398438 12.800781 2.398438 C 13.238281 2.398438 13.601562 2.761719 13.601562 3.199219 C 13.601562 3.640625 13.238281 4 12.800781 4 Z M 3.199219 13.601562 C 2.761719 13.601562 2.398438 13.238281 2.398438 12.800781 C 2.398438 12.359375 2.761719 12 3.199219 12 C 3.640625 12 4 12.359375 4 12.800781 C 4 13.238281 3.640625 13.601562 3.199219 13.601562 Z M 6.398438 13.601562 C 5.960938 13.601562 5.601562 13.238281 5.601562 12.800781 C 5.601562 12.359375 5.960938 12 6.398438 12 C 6.839844 12 7.199219 12.359375 7.199219 12.800781 C 7.199219 13.238281 6.839844 13.601562 6.398438 13.601562 Z M 9.601562 13.601562 C 9.160156 13.601562 8.800781 13.238281 8.800781 12.800781 C 8.800781 12.359375 9.160156 12 9.601562 12 C 10.039062 12 10.398438 12.359375 10.398438 12.800781 C 10.398438 13.238281 10.039062 13.601562 9.601562 13.601562 Z M 12.800781 13.601562 C 12.359375 13.601562 12 13.238281 12 12.800781 C 12 12.359375 12.359375 12 12.800781 12 C 13.238281 12 13.601562 12.359375 13.601562 12.800781 C 13.601562 13.238281 13.238281 13.601562 12.800781 13.601562 Z M 9.601562 9.601562 L 6.398438 9.601562 L 6.398438 6.398438 L 9.601562 6.398438 Z M 9.601562 9.601562 "/>
</g>
</svg>
