
<svg xmlns="http://www.w3.org/2000/svg" xmlns:xlink="http://www.w3.org/1999/xlink" width="16px" height="16px" viewBox="0 0 16 16" version="1.1">
<g id="surface1">
<path style=" stroke:none;fill-rule:nonzero;fill:#ff6666;fill-opacity:1;" d="M 4.996094 0 C 3.734375 0.015625 2.816406 -0.03125 2.0625 0.386719 C 1.6875 0.59375 1.390625 0.945312 1.226562 1.382812 C 1.058594 1.820312 1 2.34375 1 3 L 1 13 C 1 13.65625 1.058594 14.179688 1.226562 14.617188 C 1.390625 15.054688 1.6875 15.40625 2.0625 15.617188 C 2.816406 16.03125 3.734375 15.984375 4.996094 16 L 10.007812 16 C 11.265625 15.984375 12.183594 16.03125 12.9375 15.617188 C 13.3125 15.40625 13.609375 15.054688 13.777344 14.617188 C 13.941406 14.179688 14 13.65625 14 13 L 14 3 C 14 2.34375 13.941406 1.820312 13.777344 1.382812 C 13.609375 0.945312 13.3125 0.59375 12.9375 0.386719 C 12.183594 -0.03125 11.265625 0.015625 10.007812 0 Z M 5 1 L 10 1 C 11.257812 1.015625 12.085938 1.058594 12.453125 1.261719 C 12.636719 1.363281 12.742188 1.472656 12.839844 1.734375 C 12.9375 1.996094 13 2.40625 13 3 L 13 13 C 13 13.59375 12.9375 14.003906 12.839844 14.265625 C 12.742188 14.527344 12.636719 14.636719 12.453125 14.738281 C 12.085938 14.941406 11.257812 14.984375 10 15 L 5 15 C 3.742188 14.984375 2.910156 14.941406 2.546875 14.738281 C 2.363281 14.636719 2.257812 14.527344 2.160156 14.265625 C 2.0625 14.003906 2 13.59375 2 13 L 2 3 C 2 2.40625 2.0625 1.996094 2.160156 1.734375 C 2.257812 1.472656 2.363281 1.363281 2.546875 1.261719 C 2.910156 1.058594 3.742188 1.015625 5 1 Z M 5 1 "/>
<path style=" stroke:none;fill-rule:nonzero;fill:#ff6666;fill-opacity:1;" d="M 7 3 L 6 5 L 7 5 L 7 9.488281 C 6.746094 9.324219 6.480469 9.179688 6.226562 9.054688 C 5.851562 8.867188 5.503906 8.683594 5.289062 8.507812 C 5.074219 8.328125 5 8.207031 5 8 C 5.550781 8 6 7.550781 6 7 C 6 6.449219 5.550781 6 5 6 C 4.449219 6 4 6.449219 4 7 L 4 8 C 4 8.542969 4.300781 8.984375 4.648438 9.277344 C 4.996094 9.566406 5.402344 9.761719 5.777344 9.949219 C 6.152344 10.136719 6.496094 10.316406 6.710938 10.496094 C 6.925781 10.671875 7 10.792969 7 11 C 6.722656 11 6.5 11.222656 6.5 11.5 L 6.5 12.5 C 6.5 12.777344 6.722656 13 7 13 L 8 13 C 8.277344 13 8.5 12.777344 8.5 12.5 L 8.5 11.5 C 8.5 11.222656 8.277344 11 8 11 L 8 10 C 8 9.792969 8.074219 9.671875 8.289062 9.496094 C 8.503906 9.316406 8.851562 9.136719 9.226562 8.949219 C 9.601562 8.761719 10.003906 8.566406 10.351562 8.277344 C 10.699219 7.984375 11 7.542969 11 7 L 11 5.5 C 11 5.222656 10.777344 5 10.5 5 L 9.5 5 C 9.222656 5 9 5.222656 9 5.5 L 9 6.5 C 9 6.777344 9.222656 7 9.5 7 L 10 7 C 10 7.207031 9.925781 7.328125 9.710938 7.507812 C 9.496094 7.683594 9.152344 7.867188 8.777344 8.054688 C 8.519531 8.179688 8.257812 8.324219 8 8.488281 L 8 5 L 9 5 L 8 3 Z M 7 3 "/>
</g>
</svg>
