
<svg xmlns="http://www.w3.org/2000/svg" xmlns:xlink="http://www.w3.org/1999/xlink" width="16px" height="16px" viewBox="0 0 16 16" version="1.1">
<g id="surface1">
<path style=" stroke:none;fill-rule:nonzero;fill:#ff6666;fill-opacity:1;" d="M 4.996094 0 C 3.734375 0.015625 2.816406 -0.03125 2.0625 0.386719 C 1.6875 0.59375 1.390625 0.945312 1.226562 1.382812 C 1.058594 1.820312 1 2.34375 1 3 L 1 13 C 1 13.65625 1.058594 14.179688 1.226562 14.617188 C 1.390625 15.054688 1.6875 15.40625 2.0625 15.617188 C 2.816406 16.03125 3.734375 15.984375 4.996094 16 L 10.007812 16 C 11.265625 15.984375 12.183594 16.03125 12.9375 15.617188 C 13.3125 15.40625 13.609375 15.054688 13.777344 14.617188 C 13.941406 14.179688 14 13.65625 14 13 L 14 3 C 14 2.34375 13.941406 1.820312 13.777344 1.382812 C 13.609375 0.945312 13.3125 0.59375 12.9375 0.386719 C 12.183594 -0.03125 11.265625 0.015625 10.007812 0 Z M 5 1 L 10 1 C 11.257812 1.015625 12.085938 1.058594 12.453125 1.261719 C 12.636719 1.363281 12.742188 1.472656 12.839844 1.734375 C 12.9375 1.996094 13 2.40625 13 3 L 13 13 C 13 13.59375 12.9375 14.003906 12.839844 14.265625 C 12.742188 14.527344 12.636719 14.636719 12.453125 14.738281 C 12.085938 14.941406 11.257812 14.984375 10 15 L 5 15 C 3.742188 14.984375 2.910156 14.941406 2.546875 14.738281 C 2.363281 14.636719 2.257812 14.527344 2.160156 14.265625 C 2.0625 14.003906 2 13.59375 2 13 L 2 3 C 2 2.40625 2.0625 1.996094 2.160156 1.734375 C 2.257812 1.472656 2.363281 1.363281 2.546875 1.261719 C 2.910156 1.058594 3.742188 1.015625 5 1 Z M 5 1 "/>
<path style=" stroke:none;fill-rule:nonzero;fill:#ff6666;fill-opacity:1;" d="M 5.378906 4.257812 L 3.257812 6.378906 L 3.964844 7.085938 L 6.085938 4.964844 Z M 9.621094 4.257812 L 8.914062 4.964844 L 11.035156 7.085938 L 11.742188 6.378906 Z M 7.5 6 C 6.125 6 5 7.125 5 8.5 C 5 9.875 6.125 11 7.5 11 C 8.875 11 10 9.875 10 8.5 C 10 7.125 8.875 6 7.5 6 Z M 7.5 7 C 8.335938 7 9 7.664062 9 8.5 C 9 9.335938 8.335938 10 7.5 10 C 6.664062 10 6 9.335938 6 8.5 C 6 7.664062 6.664062 7 7.5 7 Z M 6 12 L 6 13 L 9 13 L 9 12 Z M 6 12 "/>
</g>
</svg>
