
<svg xmlns="http://www.w3.org/2000/svg" xmlns:xlink="http://www.w3.org/1999/xlink" width="16px" height="16px" viewBox="0 0 16 16" version="1.1">
<g id="surface1">
<path style=" stroke:none;fill-rule:nonzero;fill:#ff6666;fill-opacity:1;" d="M 2.246094 11.011719 C 1.976562 11.011719 1.773438 10.980469 1.488281 11.09375 C 1.34375 11.148438 1.179688 11.28125 1.097656 11.441406 C 1.015625 11.597656 1 11.75 1 11.894531 L 1 14.117188 C 1 14.257812 1.015625 14.410156 1.097656 14.570312 C 1.179688 14.730469 1.34375 14.859375 1.488281 14.917969 C 1.773438 15.027344 1.976562 15 2.246094 15 L 3.753906 15 C 4.023438 15 4.226562 15.027344 4.511719 14.917969 C 4.65625 14.859375 4.820312 14.730469 4.902344 14.570312 C 4.984375 14.410156 5 14.257812 5 14.117188 L 5 11.894531 C 5 11.75 4.984375 11.597656 4.902344 11.441406 C 4.820312 11.28125 4.65625 11.148438 4.511719 11.09375 C 4.226562 10.980469 4.023438 11.011719 3.753906 11.011719 Z M 2.25 12.011719 L 3.75 12.011719 C 3.917969 12.011719 3.941406 12.011719 4 12.019531 L 4 13.992188 C 3.9375 13.996094 3.917969 14 3.75 14 L 2.25 14 C 2.082031 14 2.0625 13.996094 2 13.992188 L 2 12.019531 C 2.0625 12.015625 2.082031 12.011719 2.25 12.011719 Z M 2.25 12.011719 "/>
<path style=" stroke:none;fill-rule:nonzero;fill:#ff6666;fill-opacity:1;" d="M 2.246094 6.011719 C 1.976562 6.011719 1.773438 5.980469 1.488281 6.09375 C 1.34375 6.148438 1.179688 6.28125 1.097656 6.441406 C 1.015625 6.597656 1 6.75 1 6.894531 L 1 9.117188 C 1 9.257812 1.015625 9.410156 1.097656 9.570312 C 1.179688 9.730469 1.34375 9.859375 1.488281 9.917969 C 1.773438 10.027344 1.976562 10 2.246094 10 L 3.753906 10 C 4.023438 10 4.226562 10.027344 4.511719 9.917969 C 4.65625 9.859375 4.820312 9.730469 4.902344 9.570312 C 4.984375 9.410156 5 9.257812 5 9.117188 L 5 6.894531 C 5 6.75 4.984375 6.597656 4.902344 6.441406 C 4.820312 6.28125 4.65625 6.148438 4.511719 6.09375 C 4.226562 5.980469 4.023438 6.011719 3.753906 6.011719 Z M 2.25 7.011719 L 3.75 7.011719 C 3.917969 7.011719 3.941406 7.011719 4 7.019531 L 4 8.992188 C 3.9375 8.996094 3.917969 9 3.75 9 L 2.25 9 C 2.082031 9 2.0625 8.996094 2 8.992188 L 2 7.019531 C 2.0625 7.015625 2.082031 7.011719 2.25 7.011719 Z M 2.25 7.011719 "/>
<path style=" stroke:none;fill-rule:nonzero;fill:#ff6666;fill-opacity:1;" d="M 2.246094 1.011719 C 1.976562 1.011719 1.773438 0.980469 1.488281 1.09375 C 1.34375 1.148438 1.179688 1.28125 1.097656 1.441406 C 1.015625 1.597656 1 1.75 1 1.894531 L 1 4.117188 C 1 4.257812 1.015625 4.410156 1.097656 4.570312 C 1.179688 4.730469 1.34375 4.859375 1.488281 4.917969 C 1.773438 5.027344 1.976562 5 2.246094 5 L 3.753906 5 C 4.023438 5 4.226562 5.027344 4.511719 4.917969 C 4.65625 4.859375 4.820312 4.730469 4.902344 4.570312 C 4.984375 4.410156 5 4.257812 5 4.117188 L 5 1.894531 C 5 1.75 4.984375 1.597656 4.902344 1.441406 C 4.820312 1.28125 4.65625 1.148438 4.511719 1.09375 C 4.226562 0.980469 4.023438 1.011719 3.753906 1.011719 Z M 2.25 2.011719 L 3.75 2.011719 C 3.917969 2.011719 3.941406 2.011719 4 2.019531 L 4 3.992188 C 3.9375 3.996094 3.917969 4 3.75 4 L 2.25 4 C 2.082031 4 2.0625 3.996094 2 3.992188 L 2 2.019531 C 2.0625 2.015625 2.082031 2.011719 2.25 2.011719 Z M 2.25 2.011719 "/>
<path style=" stroke:none;fill-rule:nonzero;fill:#ff6666;fill-opacity:1;" d="M 7.246094 11.011719 C 6.976562 11.011719 6.773438 10.980469 6.488281 11.09375 C 6.34375 11.148438 6.179688 11.28125 6.097656 11.441406 C 6.015625 11.597656 6 11.75 6 11.894531 L 6 14.117188 C 6 14.257812 6.015625 14.410156 6.097656 14.570312 C 6.179688 14.730469 6.34375 14.859375 6.488281 14.917969 C 6.773438 15.027344 6.976562 15 7.246094 15 L 8.753906 15 C 9.023438 15 9.226562 15.027344 9.511719 14.917969 C 9.65625 14.859375 9.820312 14.730469 9.902344 14.570312 C 9.984375 14.410156 10 14.257812 10 14.117188 L 10 11.894531 C 10 11.75 9.984375 11.597656 9.902344 11.441406 C 9.820312 11.28125 9.65625 11.148438 9.511719 11.09375 C 9.226562 10.980469 9.023438 11.011719 8.753906 11.011719 Z M 7.25 12.011719 L 8.75 12.011719 C 8.917969 12.011719 8.941406 12.011719 9 12.019531 L 9 13.992188 C 8.9375 13.996094 8.917969 14 8.75 14 L 7.25 14 C 7.082031 14 7.0625 13.996094 7 13.992188 L 7 12.019531 C 7.0625 12.015625 7.082031 12.011719 7.25 12.011719 Z M 7.25 12.011719 "/>
<path style=" stroke:none;fill-rule:nonzero;fill:#ff6666;fill-opacity:1;" d="M 7.246094 6.011719 C 6.976562 6.011719 6.773438 5.980469 6.488281 6.09375 C 6.34375 6.148438 6.179688 6.28125 6.097656 6.441406 C 6.015625 6.597656 6 6.75 6 6.894531 L 6 9.117188 C 6 9.257812 6.015625 9.410156 6.097656 9.570312 C 6.179688 9.730469 6.34375 9.859375 6.488281 9.917969 C 6.773438 10.027344 6.976562 10 7.246094 10 L 8.753906 10 C 9.023438 10 9.226562 10.027344 9.511719 9.917969 C 9.65625 9.859375 9.820312 9.730469 9.902344 9.570312 C 9.984375 9.410156 10 9.257812 10 9.117188 L 10 6.894531 C 10 6.75 9.984375 6.597656 9.902344 6.441406 C 9.820312 6.28125 9.65625 6.148438 9.511719 6.09375 C 9.226562 5.980469 9.023438 6.011719 8.753906 6.011719 Z M 7.25 7.011719 L 8.75 7.011719 C 8.917969 7.011719 8.941406 7.011719 9 7.019531 L 9 8.992188 C 8.9375 8.996094 8.917969 9 8.75 9 L 7.25 9 C 7.082031 9 7.0625 8.996094 7 8.992188 L 7 7.019531 C 7.0625 7.015625 7.082031 7.011719 7.25 7.011719 Z M 7.25 7.011719 "/>
<path style=" stroke:none;fill-rule:nonzero;fill:#ff6666;fill-opacity:1;" d="M 7.246094 1.011719 C 6.976562 1.011719 6.773438 0.980469 6.488281 1.09375 C 6.34375 1.148438 6.179688 1.28125 6.097656 1.441406 C 6.015625 1.597656 6 1.75 6 1.894531 L 6 4.117188 C 6 4.257812 6.015625 4.410156 6.097656 4.570312 C 6.179688 4.730469 6.34375 4.859375 6.488281 4.917969 C 6.773438 5.027344 6.976562 5 7.246094 5 L 8.753906 5 C 9.023438 5 9.226562 5.027344 9.511719 4.917969 C 9.65625 4.859375 9.820312 4.730469 9.902344 4.570312 C 9.984375 4.410156 10 4.257812 10 4.117188 L 10 1.894531 C 10 1.75 9.984375 1.597656 9.902344 1.441406 C 9.820312 1.28125 9.65625 1.148438 9.511719 1.09375 C 9.226562 0.980469 9.023438 1.011719 8.753906 1.011719 Z M 7.25 2.011719 L 8.75 2.011719 C 8.917969 2.011719 8.941406 2.011719 9 2.019531 L 9 3.992188 C 8.9375 3.996094 8.917969 4 8.75 4 L 7.25 4 C 7.082031 4 7.0625 3.996094 7 3.992188 L 7 2.019531 C 7.0625 2.015625 7.082031 2.011719 7.25 2.011719 Z M 7.25 2.011719 "/>
<path style=" stroke:none;fill-rule:nonzero;fill:#ff6666;fill-opacity:1;" d="M 12.246094 11.011719 C 11.976562 11.011719 11.773438 10.980469 11.488281 11.09375 C 11.34375 11.148438 11.179688 11.28125 11.097656 11.441406 C 11.015625 11.597656 11 11.75 11 11.894531 L 11 14.117188 C 11 14.257812 11.015625 14.410156 11.097656 14.570312 C 11.179688 14.730469 11.34375 14.859375 11.488281 14.917969 C 11.773438 15.027344 11.976562 15 12.246094 15 L 13.753906 15 C 14.023438 15 14.226562 15.027344 14.511719 14.917969 C 14.65625 14.859375 14.820312 14.730469 14.902344 14.570312 C 14.984375 14.410156 15 14.257812 15 14.117188 L 15 11.894531 C 15 11.75 14.984375 11.597656 14.902344 11.441406 C 14.820312 11.28125 14.65625 11.148438 14.511719 11.09375 C 14.226562 10.980469 14.023438 11.011719 13.753906 11.011719 Z M 12.25 12.011719 L 13.75 12.011719 C 13.917969 12.011719 13.941406 12.011719 14 12.019531 L 14 13.992188 C 13.9375 13.996094 13.917969 14 13.75 14 L 12.25 14 C 12.082031 14 12.0625 13.996094 12 13.992188 L 12 12.019531 C 12.0625 12.015625 12.082031 12.011719 12.25 12.011719 Z M 12.25 12.011719 "/>
<path style=" stroke:none;fill-rule:nonzero;fill:#ff6666;fill-opacity:1;" d="M 12.246094 6.011719 C 11.976562 6.011719 11.773438 5.980469 11.488281 6.09375 C 11.34375 6.148438 11.179688 6.28125 11.097656 6.441406 C 11.015625 6.597656 11 6.75 11 6.894531 L 11 9.117188 C 11 9.257812 11.015625 9.410156 11.097656 9.570312 C 11.179688 9.730469 11.34375 9.859375 11.488281 9.917969 C 11.773438 10.027344 11.976562 10 12.246094 10 L 13.753906 10 C 14.023438 10 14.226562 10.027344 14.511719 9.917969 C 14.65625 9.859375 14.820312 9.730469 14.902344 9.570312 C 14.984375 9.410156 15 9.257812 15 9.117188 L 15 6.894531 C 15 6.75 14.984375 6.597656 14.902344 6.441406 C 14.820312 6.28125 14.65625 6.148438 14.511719 6.09375 C 14.226562 5.980469 14.023438 6.011719 13.753906 6.011719 Z M 12.25 7.011719 L 13.75 7.011719 C 13.917969 7.011719 13.941406 7.011719 14 7.019531 L 14 8.992188 C 13.9375 8.996094 13.917969 9 13.75 9 L 12.25 9 C 12.082031 9 12.0625 8.996094 12 8.992188 L 12 7.019531 C 12.0625 7.015625 12.082031 7.011719 12.25 7.011719 Z M 12.25 7.011719 "/>
<path style=" stroke:none;fill-rule:nonzero;fill:#ff6666;fill-opacity:1;" d="M 12.246094 1.011719 C 11.976562 1.011719 11.773438 0.980469 11.488281 1.09375 C 11.34375 1.148438 11.179688 1.28125 11.097656 1.441406 C 11.015625 1.597656 11 1.75 11 1.894531 L 11 4.117188 C 11 4.257812 11.015625 4.410156 11.097656 4.570312 C 11.179688 4.730469 11.34375 4.859375 11.488281 4.917969 C 11.773438 5.027344 11.976562 5 12.246094 5 L 13.753906 5 C 14.023438 5 14.226562 5.027344 14.511719 4.917969 C 14.65625 4.859375 14.820312 4.730469 14.902344 4.570312 C 14.984375 4.410156 15 4.257812 15 4.117188 L 15 1.894531 C 15 1.75 14.984375 1.597656 14.902344 1.441406 C 14.820312 1.28125 14.65625 1.148438 14.511719 1.09375 C 14.226562 0.980469 14.023438 1.011719 13.753906 1.011719 Z M 12.25 2.011719 L 13.75 2.011719 C 13.917969 2.011719 13.941406 2.011719 14 2.019531 L 14 3.992188 C 13.9375 3.996094 13.917969 4 13.75 4 L 12.25 4 C 12.082031 4 12.0625 3.996094 12 3.992188 L 12 2.019531 C 12.0625 2.015625 12.082031 2.011719 12.25 2.011719 Z M 12.25 2.011719 "/>
</g>
</svg>
