
<svg xmlns="http://www.w3.org/2000/svg" xmlns:xlink="http://www.w3.org/1999/xlink" width="16px" height="16px" viewBox="0 0 16 16" version="1.1">
<g id="surface1">
<path style=" stroke:none;fill-rule:nonzero;fill:#ff6666;fill-opacity:1;" d="M 7.441406 1 C 6.144531 1 4.851562 1.226562 3.636719 1.671875 L 3.464844 1.734375 L 2.375 7.183594 C 2.1875 8.109375 2.003906 9.066406 2 10.050781 C 1.996094 11.035156 2.179688 12.035156 2.613281 12.9375 C 3.046875 13.84375 3.730469 14.628906 4.582031 15.171875 C 5.429688 15.710938 6.433594 16 7.441406 16 C 8.445312 16 9.449219 15.710938 10.300781 15.171875 C 11.148438 14.628906 11.828125 13.84375 12.265625 12.9375 C 12.699219 12.035156 12.878906 11.035156 12.878906 10.050781 C 12.875 9.066406 12.691406 8.109375 12.507812 7.183594 L 11.414062 1.734375 L 11.242188 1.671875 C 10.027344 1.226562 8.734375 1 7.441406 1 Z M 7 2.023438 L 7 5 L 8 5 L 8 2.027344 C 8.871094 2.089844 9.726562 2.28125 10.558594 2.550781 L 11.527344 7.378906 C 11.710938 8.300781 11.875 9.1875 11.878906 10.050781 C 11.878906 10.910156 11.71875 11.761719 11.363281 12.503906 C 11.007812 13.246094 10.445312 13.890625 9.761719 14.328125 C 9.074219 14.761719 8.253906 15 7.441406 15 C 6.625 15 5.800781 14.761719 5.117188 14.328125 C 4.433594 13.890625 3.871094 13.246094 3.515625 12.503906 C 3.15625 11.761719 2.996094 10.910156 3 10.050781 C 3.003906 9.1875 3.167969 8.300781 3.355469 7.378906 L 4.320312 2.550781 C 5.1875 2.269531 6.089844 2.074219 7 2.023438 Z M 7 2.023438 "/>
</g>
</svg>
