
<svg xmlns="http://www.w3.org/2000/svg" xmlns:xlink="http://www.w3.org/1999/xlink" width="16px" height="16px" viewBox="0 0 16 16" version="1.1">
<g id="surface1">
<path style=" stroke:none;fill-rule:nonzero;fill:#ff6666;fill-opacity:1;" d="M 7 2 L 7 2.5 L 8 2.5 L 8 2 Z M 7 3 L 7 3.5 L 8 3.5 L 8 3 Z M 7 4 L 7 7 L 3.5 7 C 3.464844 7 3.433594 7.003906 3.402344 7.007812 C 1.859375 7.050781 0.519531 8.097656 0.121094 9.59375 C -0.289062 11.121094 0.378906 12.742188 1.75 13.53125 C 3.109375 14.316406 4.824219 14.09375 5.945312 13 L 9.054688 13 C 10.175781 14.09375 11.890625 14.316406 13.25 13.53125 C 14.621094 12.742188 15.289062 11.121094 14.882812 9.59375 C 14.480469 8.097656 13.136719 7.050781 11.59375 7.007812 C 11.5625 7 11.53125 7 11.5 7 L 8 7 L 8 4 Z M 3.5 8 L 11.5 8 C 12.632812 8 13.621094 8.757812 13.917969 9.855469 C 14.210938 10.949219 13.730469 12.097656 12.75 12.667969 C 11.820312 13.203125 10.671875 13.078125 9.875 12.386719 C 9.742188 12.257812 9.613281 11.996094 9.378906 12 L 5.621094 12 C 5.386719 11.996094 5.226562 12.269531 5.128906 12.386719 C 4.328125 13.078125 3.179688 13.203125 2.25 12.667969 C 1.269531 12.097656 0.792969 10.949219 1.085938 9.855469 C 1.378906 8.757812 2.367188 8 3.5 8 Z M 3 9 L 3 10 L 2 10 L 2 11 L 3 11 L 3 12 L 4 12 L 4 11 L 5 11 L 5 10 L 4 10 L 4 9 Z M 11.5 9 C 11.222656 9 11 9.222656 11 9.5 C 11 9.777344 11.222656 10 11.5 10 C 11.777344 10 12 9.777344 12 9.5 C 12 9.222656 11.777344 9 11.5 9 Z M 10.5 10 C 10.222656 10 10 10.222656 10 10.5 C 10 10.777344 10.222656 11 10.5 11 C 10.777344 11 11 10.777344 11 10.5 C 11 10.222656 10.777344 10 10.5 10 Z M 12.5 10 C 12.222656 10 12 10.222656 12 10.5 C 12 10.777344 12.222656 11 12.5 11 C 12.777344 11 13 10.777344 13 10.5 C 13 10.222656 12.777344 10 12.5 10 Z M 11.5 11 C 11.222656 11 11 11.222656 11 11.5 C 11 11.777344 11.222656 12 11.5 12 C 11.777344 12 12 11.777344 12 11.5 C 12 11.222656 11.777344 11 11.5 11 Z M 11.5 11 "/>
</g>
</svg>
