
<svg xmlns="http://www.w3.org/2000/svg" xmlns:xlink="http://www.w3.org/1999/xlink" width="16px" height="16px" viewBox="0 0 16 16" version="1.1">
<g id="surface1">
<path style=" stroke:none;fill-rule:nonzero;fill:#ff6666;fill-opacity:1;" d="M 3.996094 3 C 2.734375 3.015625 1.816406 2.96875 1.0625 3.386719 C 0.6875 3.59375 0.390625 3.945312 0.226562 4.382812 C 0.0585938 4.820312 0 5.34375 0 6 L 0 11 C 0 11.65625 0.0585938 12.179688 0.226562 12.617188 C 0.390625 13.054688 0.6875 13.40625 1.0625 13.617188 C 1.816406 14.03125 2.734375 13.984375 3.996094 14 L 12.007812 14 C 13.265625 13.984375 14.183594 14.03125 14.9375 13.617188 C 15.3125 13.40625 15.609375 13.054688 15.777344 12.617188 C 15.941406 12.179688 16 11.65625 16 11 L 16 6 C 16 5.34375 15.941406 4.820312 15.777344 4.382812 C 15.609375 3.945312 15.3125 3.59375 14.9375 3.386719 C 14.183594 2.96875 13.265625 3.015625 12.007812 3 Z M 4 4 L 12 4 C 13.257812 4.015625 14.085938 4.058594 14.453125 4.261719 C 14.636719 4.363281 14.742188 4.472656 14.839844 4.734375 C 14.9375 4.996094 15 5.40625 15 6 L 15 11 C 15 11.59375 14.9375 12.003906 14.839844 12.265625 C 14.742188 12.527344 14.636719 12.636719 14.453125 12.738281 C 14.085938 12.941406 13.257812 12.984375 12 13 L 4 13 C 2.742188 12.984375 1.910156 12.941406 1.546875 12.738281 C 1.363281 12.636719 1.257812 12.527344 1.160156 12.265625 C 1.0625 12.003906 1 11.59375 1 11 L 1 6 C 1 5.40625 1.0625 4.996094 1.160156 4.734375 C 1.257812 4.472656 1.363281 4.363281 1.546875 4.261719 C 1.910156 4.058594 2.742188 4.015625 4 4 Z M 4 4 "/>
<path style=" stroke:none;fill-rule:nonzero;fill:#ff6666;fill-opacity:1;" d="M 4.5 6 C 5.875 6 7 7.125 7 8.5 C 7 9.066406 6.789062 9.582031 6.46875 10 L 9.53125 10 C 9.210938 9.582031 9 9.066406 9 8.5 C 9 7.125 10.125 6 11.5 6 C 12.875 6 14 7.125 14 8.5 C 14 9.875 12.875 11 11.5 11 L 4.5 11 C 3.125 11 2 9.875 2 8.5 C 2 7.125 3.125 6 4.5 6 Z M 4.5 7 C 3.664062 7 3 7.664062 3 8.5 C 3 9.335938 3.664062 10 4.5 10 C 5.335938 10 6 9.335938 6 8.5 C 6 7.664062 5.335938 7 4.5 7 Z M 11.5 7 C 10.664062 7 10 7.664062 10 8.5 C 10 9.335938 10.664062 10 11.5 10 C 12.335938 10 13 9.335938 13 8.5 C 13 7.664062 12.335938 7 11.5 7 Z M 11.5 7 "/>
</g>
</svg>
