
<svg xmlns="http://www.w3.org/2000/svg" xmlns:xlink="http://www.w3.org/1999/xlink" width="16px" height="16px" viewBox="0 0 16 16" version="1.1">
<g id="surface1">
<path style=" stroke:none;fill-rule:nonzero;fill:#ff6666;fill-opacity:1;" d="M 8 5 C 6.34375 5 5 6.34375 5 8 C 5 9.65625 6.34375 11 8 11 C 9.65625 11 11 9.65625 11 8 C 11 6.34375 9.65625 5 8 5 Z M 8 6.5 C 8.828125 6.5 9.5 7.171875 9.5 8 C 9.5 8.828125 8.828125 9.5 8 9.5 C 7.171875 9.5 6.5 8.828125 6.5 8 C 6.5 7.171875 7.171875 6.5 8 6.5 Z M 8 6.5 "/>
<path style=" stroke:none;fill-rule:nonzero;fill:#ff6666;fill-opacity:1;" d="M 8 0 C 3.582031 0 0 3.582031 0 8 C 0 12.417969 3.582031 16 8 16 C 12.417969 16 16 12.417969 16 8 C 16 3.582031 12.417969 0 8 0 Z M 8 1 C 11.867188 1 15 4.132812 15 8 C 15 11.867188 11.867188 15 8 15 C 4.132812 15 1 11.867188 1 8 C 1 4.132812 4.132812 1 8 1 Z M 8 1 "/>
</g>
</svg>
