
<svg xmlns="http://www.w3.org/2000/svg" xmlns:xlink="http://www.w3.org/1999/xlink" width="16px" height="16px" viewBox="0 0 16 16" version="1.1">
<g id="surface1">
<path style=" stroke:none;fill-rule:nonzero;fill:#ff6666;fill-opacity:1;" d="M 4.160156 2.855469 L 5.21875 2.855469 L 5.21875 4.703125 L 4.160156 4.703125 Z M 5.949219 1.125 L 7.050781 1.125 L 7.050781 2.976562 L 5.949219 2.976562 Z M 8.925781 2.976562 L 7.769531 2.976562 L 7.769531 1.125 L 8.925781 1.125 Z M 10.773438 2.976562 L 9.644531 2.976562 L 9.644531 1.125 L 10.773438 1.125 Z M 12.621094 2.976562 L 11.492188 2.976562 L 11.492188 1.125 L 12.621094 1.125 Z M 2.863281 6.972656 L 2.390625 6.972656 L 2.390625 15.117188 C 2.390625 15.605469 2.75 16 3.191406 16 L 12.808594 16 C 13.25 16 13.609375 15.605469 13.609375 15.117188 L 13.609375 8.050781 L 13.011719 8.050781 C 12.789062 8.050781 12.609375 7.851562 12.609375 7.609375 L 12.609375 4.882812 C 12.609375 4.640625 12.789062 4.441406 13.011719 4.441406 L 13.609375 4.441406 L 13.609375 0.882812 C 13.609375 0.394531 13.25 0 12.808594 0 L 6.308594 0 C 5.988281 0 5.679688 0.140625 5.453125 0.390625 L 2.738281 3.410156 C 2.515625 3.660156 2.390625 3.992188 2.390625 4.34375 L 2.390625 5.519531 L 2.863281 5.519531 C 3.085938 5.519531 3.03125 5.808594 3.265625 5.960938 L 3.265625 6.53125 C 3.265625 6.777344 3.074219 6.660156 2.863281 6.972656 Z M 2.863281 6.972656 "/>
</g>
</svg>
