
<svg xmlns="http://www.w3.org/2000/svg" xmlns:xlink="http://www.w3.org/1999/xlink" width="16px" height="16px" viewBox="0 0 16 16" version="1.1">
<g id="surface1">
<path style=" stroke:none;fill-rule:evenodd;fill:#ff6666;fill-opacity:1;" d="M 14.375 11.039062 C 15.285156 11.230469 15.96875 12.035156 15.96875 13 L 15.96875 14 C 15.96875 15.105469 15.074219 16 13.96875 16 L 1.96875 16 C 0.863281 16 -0.03125 15.105469 -0.03125 14 L -0.03125 13 C -0.03125 11.894531 0.863281 11 1.96875 11 L 9.09375 11 L 9.09375 2.792969 C 9.09375 2.148438 9.605469 1.625 10.234375 1.625 C 10.863281 1.625 11.375 2.148438 11.375 2.792969 L 11.375 11 L 12.09375 11 L 12.09375 2.792969 C 12.09375 2.148438 12.605469 1.625 13.234375 1.625 C 13.863281 1.625 14.375 2.148438 14.375 2.792969 Z M 1.625 13.625 C 1.625 12.796875 2.296875 12.125 3.125 12.125 C 3.953125 12.125 4.625 12.796875 4.625 13.625 C 4.625 14.453125 3.953125 15.125 3.125 15.125 C 2.296875 15.125 1.625 14.453125 1.625 13.625 Z M 5.625 13.625 C 5.625 12.796875 6.296875 12.125 7.125 12.125 C 7.953125 12.125 8.625 12.796875 8.625 13.625 C 8.625 14.453125 7.953125 15.125 7.125 15.125 C 6.296875 15.125 5.625 14.453125 5.625 13.625 Z M 5.625 13.625 "/>
</g>
</svg>
