
<svg xmlns="http://www.w3.org/2000/svg" xmlns:xlink="http://www.w3.org/1999/xlink" width="16px" height="16px" viewBox="0 0 16 16" version="1.1">
<g id="surface1">
<path style=" stroke:none;fill-rule:evenodd;fill:#ff6666;fill-opacity:1;" d="M 4.109375 6.703125 C 4.800781 6.703125 5.40625 7.308594 5.40625 8 C 5.40625 8.691406 4.800781 9.296875 4.109375 9.296875 C 3.417969 9.296875 2.8125 8.691406 2.8125 8 C 2.8125 7.308594 3.417969 6.703125 4.109375 6.703125 Z M 4.109375 0.863281 C 4.800781 0.863281 5.40625 1.46875 5.40625 2.160156 C 5.40625 2.855469 4.800781 3.460938 4.109375 3.460938 C 3.417969 3.460938 2.8125 2.855469 2.8125 2.160156 C 2.8125 1.46875 3.417969 0.863281 4.109375 0.863281 Z M 1.945312 5.839844 C 1.425781 5.839844 1.082031 6.183594 1.082031 6.703125 L 1.082031 9.296875 C 1.082031 9.816406 1.425781 10.160156 1.945312 10.160156 L 14.054688 10.160156 C 14.574219 10.160156 14.917969 9.816406 14.917969 9.296875 L 14.917969 6.703125 C 14.917969 6.183594 14.574219 5.839844 14.054688 5.839844 Z M 1.945312 0 C 1.425781 0 1.082031 0.34375 1.082031 0.863281 L 1.082031 3.460938 C 1.082031 3.980469 1.425781 4.324219 1.945312 4.324219 L 14.054688 4.324219 C 14.574219 4.324219 14.917969 3.980469 14.917969 3.460938 L 14.917969 0.863281 C 14.917969 0.34375 14.574219 0 14.054688 0 Z M 4.109375 12.539062 C 4.800781 12.539062 5.40625 13.144531 5.40625 13.839844 C 5.40625 14.53125 4.800781 15.136719 4.109375 15.136719 C 3.417969 15.136719 2.8125 14.53125 2.8125 13.839844 C 2.8125 13.144531 3.417969 12.539062 4.109375 12.539062 Z M 1.945312 11.675781 C 1.425781 11.675781 1.082031 12.019531 1.082031 12.539062 L 1.082031 15.136719 C 1.082031 15.65625 1.425781 16 1.945312 16 L 14.054688 16 C 14.574219 16 14.917969 15.65625 14.917969 15.136719 L 14.917969 12.539062 C 14.917969 12.019531 14.574219 11.675781 14.054688 11.675781 Z M 1.945312 11.675781 "/>
</g>
</svg>
