
<svg xmlns="http://www.w3.org/2000/svg" xmlns:xlink="http://www.w3.org/1999/xlink" width="16px" height="16px" viewBox="0 0 16 16" version="1.1">
<g id="surface1">
<path style=" stroke:none;fill-rule:evenodd;fill:#ff6666;fill-opacity:1;" d="M 3.734375 13.332031 C 3.734375 12.890625 4.09375 12.53125 4.53125 12.53125 C 4.976562 12.53125 5.332031 12.890625 5.332031 13.332031 C 5.332031 13.773438 4.976562 14.132812 4.53125 14.132812 C 4.09375 14.132812 3.734375 13.773438 3.734375 13.332031 Z M 6.933594 13.867188 C 6.933594 13.277344 7.410156 12.800781 8 12.800781 C 8.589844 12.800781 9.066406 13.277344 9.066406 13.867188 C 9.066406 14.453125 8.589844 14.933594 8 14.933594 C 7.410156 14.933594 6.933594 14.453125 6.933594 13.867188 Z M 10.398438 13.332031 C 10.398438 12.890625 10.757812 12.53125 11.199219 12.53125 C 11.640625 12.53125 12 12.890625 12 13.332031 C 12 13.773438 11.640625 14.132812 11.199219 14.132812 C 10.757812 14.132812 10.398438 13.773438 10.398438 13.332031 Z M 1.601562 6.339844 L 1.601562 1.347656 C 1.601562 0.601562 2.203125 0 2.945312 0 L 13.054688 0 C 13.796875 0 14.398438 0.601562 14.398438 1.347656 L 14.398438 12.859375 C 14.398438 14.59375 12.992188 16 11.257812 16 L 4.742188 16 C 3.007812 16 1.601562 14.59375 1.601562 12.859375 Z M 3.601562 1.601562 L 12.398438 1.601562 C 12.621094 1.601562 12.800781 1.777344 12.800781 2 L 12.800781 11.332031 C 12.800781 11.554688 12.621094 11.734375 12.398438 11.734375 L 3.601562 11.734375 C 3.378906 11.734375 3.199219 11.554688 3.199219 11.332031 L 3.199219 2 C 3.199219 1.777344 3.378906 1.601562 3.601562 1.601562 Z M 3.601562 1.601562 "/>
</g>
</svg>
