
<svg xmlns="http://www.w3.org/2000/svg" xmlns:xlink="http://www.w3.org/1999/xlink" width="16px" height="16px" viewBox="0 0 16 16" version="1.1">
<g id="surface1">
<path style=" stroke:none;fill-rule:nonzero;fill:#ff6666;fill-opacity:1;" d="M 3.351562 0 C 2.878906 0 2.429688 0.179688 2.125 0.523438 C 1.824219 0.867188 1.710938 1.335938 1.773438 1.773438 L 1.773438 1.800781 L 2.398438 6.398438 L 1.601562 13.5 L 1.601562 14.398438 C 1.601562 14.816406 1.746094 15.246094 2.050781 15.550781 C 2.351562 15.851562 2.78125 16 3.199219 16 L 12.800781 16 C 13.21875 16 13.648438 15.851562 13.949219 15.550781 C 14.253906 15.246094 14.398438 14.816406 14.398438 14.398438 L 14.398438 13.5 L 13.601562 6.398438 L 14.226562 1.800781 L 14.226562 1.773438 C 14.355469 0.890625 13.640625 0 12.726562 0 Z M 4 6.398438 L 12 6.398438 L 12 6.5 L 12.800781 13.601562 L 3.199219 13.601562 L 4 6.5 Z M 4.550781 8.800781 L 4.324219 10.398438 L 11.601562 10.398438 L 11.449219 8.800781 Z M 4.550781 8.800781 "/>
</g>
</svg>
