
<svg xmlns="http://www.w3.org/2000/svg" xmlns:xlink="http://www.w3.org/1999/xlink" width="16px" height="16px" viewBox="0 0 16 16" version="1.1">
<g id="surface1">
<path style=" stroke:none;fill-rule:nonzero;fill:#ff6666;fill-opacity:1;" d="M 11.824219 0 C 11.648438 0.0078125 11.511719 0.152344 11.515625 0.328125 C 11.519531 0.503906 11.660156 0.640625 11.835938 0.640625 L 11.84375 0.640625 C 11.886719 0.632812 13.007812 0.632812 14.160156 1.816406 C 15.320312 3.007812 15.347656 4.140625 15.347656 4.152344 C 15.347656 4.328125 15.492188 4.472656 15.667969 4.472656 C 15.84375 4.472656 15.988281 4.328125 15.988281 4.152344 C 15.988281 4.097656 15.972656 2.765625 14.617188 1.378906 C 13.257812 -0.015625 11.886719 -0.00390625 11.824219 0 Z M 11.835938 1.917969 C 11.660156 1.917969 11.519531 2.0625 11.515625 2.234375 C 11.511719 2.410156 11.660156 2.550781 11.835938 2.554688 C 11.855469 2.554688 12.355469 2.578125 12.882812 3.105469 C 13.410156 3.632812 13.433594 4.136719 13.433594 4.152344 C 13.433594 4.328125 13.574219 4.472656 13.75 4.472656 C 13.925781 4.472656 14.070312 4.328125 14.070312 4.152344 C 14.070312 4.121094 14.066406 3.367188 13.34375 2.644531 C 12.617188 1.921875 11.867188 1.917969 11.835938 1.917969 Z M 9.191406 1.925781 C 8.832031 1.925781 8.484375 2.054688 8.222656 2.296875 L 0.394531 10.152344 C -0.113281 10.660156 -0.117188 11.492188 0.394531 12.046875 L 3.980469 15.621094 C 4.226562 15.867188 4.558594 16.003906 4.90625 16 C 5.265625 16 5.605469 15.863281 5.867188 15.621094 L 13.699219 7.773438 C 14.1875 7.203125 14.1875 6.378906 13.691406 5.878906 L 10.109375 2.296875 C 9.863281 2.050781 9.53125 1.929688 9.191406 1.925781 Z M 8.960938 4.789062 C 10.195312 4.789062 11.195312 5.792969 11.195312 7.027344 C 11.195312 8.261719 10.195312 9.261719 8.960938 9.261719 C 7.726562 9.261719 6.722656 8.261719 6.722656 7.027344 C 6.722656 5.792969 7.726562 4.789062 8.960938 4.789062 Z M 8.960938 6.386719 C 8.605469 6.386719 8.320312 6.675781 8.320312 7.027344 C 8.320312 7.378906 8.605469 7.664062 8.960938 7.664062 C 9.3125 7.664062 9.597656 7.378906 9.597656 7.027344 C 9.597656 6.675781 9.3125 6.386719 8.960938 6.386719 Z M 4.808594 8.625 C 5.160156 8.625 5.445312 8.910156 5.445312 9.261719 C 5.445312 9.617188 5.160156 9.902344 4.808594 9.902344 C 4.453125 9.902344 4.167969 9.617188 4.167969 9.261719 C 4.167969 8.910156 4.453125 8.625 4.808594 8.625 Z M 3.210938 10.222656 C 3.5625 10.222656 3.851562 10.507812 3.851562 10.859375 C 3.851562 11.214844 3.5625 11.5 3.210938 11.5 C 2.859375 11.5 2.570312 11.214844 2.570312 10.859375 C 2.570312 10.507812 2.859375 10.222656 3.210938 10.222656 Z M 6.722656 10.539062 C 7.078125 10.539062 7.363281 10.828125 7.363281 11.179688 C 7.363281 11.53125 7.078125 11.816406 6.722656 11.816406 C 6.371094 11.816406 6.085938 11.53125 6.085938 11.179688 C 6.085938 10.828125 6.371094 10.539062 6.722656 10.539062 Z M 5.128906 12.136719 C 5.480469 12.136719 5.765625 12.421875 5.765625 12.777344 C 5.765625 13.128906 5.480469 13.414062 5.128906 13.414062 C 4.773438 13.414062 4.488281 13.128906 4.488281 12.777344 C 4.488281 12.421875 4.773438 12.136719 5.128906 12.136719 Z M 5.128906 12.136719 "/>
</g>
</svg>
