
<svg xmlns="http://www.w3.org/2000/svg" xmlns:xlink="http://www.w3.org/1999/xlink" width="16px" height="16px" viewBox="0 0 16 16" version="1.1">
<g id="surface1">
<path style=" stroke:none;fill-rule:nonzero;fill:#ff6666;fill-opacity:1;" d="M 0 3.765625 L 0 5.882812 L 1.410156 5.882812 L 1.410156 12.234375 L 3.527344 12.234375 L 3.527344 3.765625 Z M 9.175781 3.765625 C 6.835938 3.765625 4.941406 5.660156 4.941406 8 C 4.941406 10.339844 6.835938 12.234375 9.175781 12.234375 L 15.273438 12.234375 C 15.589844 11.566406 15.839844 10.859375 16 10.117188 L 9.175781 10.117188 C 8.003906 10.117188 7.058594 9.167969 7.058594 8 C 7.058594 6.832031 8.003906 5.882812 9.175781 5.882812 C 9.773438 5.882812 10.347656 6.140625 10.746094 6.589844 L 13.160156 6.589844 C 12.5625 4.898438 10.96875 3.769531 9.175781 3.765625 Z M 9.175781 3.765625 "/>
</g>
</svg>
