
<svg xmlns="http://www.w3.org/2000/svg" xmlns:xlink="http://www.w3.org/1999/xlink" width="16px" height="16px" viewBox="0 0 16 16" version="1.1">
<g id="surface1">
<path style=" stroke:none;fill-rule:nonzero;fill:#ff6666;fill-opacity:1;" d="M 2.132812 0 C 0.96875 0 0 0.96875 0 2.132812 L 0 13.867188 C 0 15.03125 0.96875 16 2.132812 16 L 10.132812 16 L 11.734375 14.933594 L 1.066406 14.933594 L 1.066406 10.667969 L 5.332031 10.667969 L 5.332031 14.933594 L 6.398438 14.933594 L 6.398438 10.667969 L 14.933594 10.667969 L 14.933594 9.601562 L 6.398438 9.601562 L 6.398438 6.398438 L 9.601562 6.398438 L 9.601562 14.933594 L 10.667969 14.933594 L 10.667969 6.398438 L 14.933594 6.398438 L 14.933594 5.332031 L 10.667969 5.332031 L 10.667969 1.066406 L 14.933594 1.066406 L 14.933594 13.867188 L 16 10.167969 L 16 2.132812 C 16 0.96875 15.03125 0 13.867188 0 Z M 1.066406 1.066406 L 5.332031 1.066406 L 5.332031 5.332031 L 1.066406 5.332031 Z M 6.398438 1.066406 L 9.601562 1.066406 L 9.601562 5.332031 L 6.398438 5.332031 Z M 1.066406 6.398438 L 5.332031 6.398438 L 5.332031 9.601562 L 1.066406 9.601562 Z M 16 10.167969 L 14.933594 13.867188 L 14.933594 14.933594 L 11.734375 14.933594 L 10.132812 16 L 13.867188 16 C 15.03125 16 16 15.03125 16 13.867188 Z M 16 10.167969 "/>
</g>
</svg>
