
<svg xmlns="http://www.w3.org/2000/svg" xmlns:xlink="http://www.w3.org/1999/xlink" width="16px" height="16px" viewBox="0 0 16 16" version="1.1">
<g id="surface1">
<path style=" stroke:none;fill-rule:nonzero;fill:#ff6666;fill-opacity:1;" d="M 8 0 C 5.28125 0 3.003906 2.277344 3.003906 4.996094 C 3.003906 6.714844 3.351562 7.742188 3.429688 7.992188 L 4.003906 7.992188 C 5.210938 7.992188 6.269531 8.789062 6.949219 10.144531 C 7.527344 11.308594 7.988281 15.996094 7.972656 15.996094 C 8.027344 16.003906 8.121094 15.996094 8.136719 15.996094 C 8.347656 12.898438 8.652344 10.945312 9.050781 10.144531 C 9.730469 8.789062 10.789062 7.992188 11.996094 7.992188 L 12.570312 7.992188 C 12.648438 7.742188 12.996094 6.714844 12.996094 4.996094 C 12.996094 2.277344 10.71875 0 8 0 Z M 8 0 "/>
</g>
</svg>
