
<svg xmlns="http://www.w3.org/2000/svg" xmlns:xlink="http://www.w3.org/1999/xlink" width="16px" height="16px" viewBox="0 0 16 16" version="1.1">
<g id="surface1">
<path style=" stroke:none;fill-rule:nonzero;fill:#ff6666;fill-opacity:1;" d="M 10.625 1 C 9.90625 1 9.167969 1.996094 9.167969 3.917969 C 9.167969 5.667969 9.75 6.832031 9.75 6.832031 C 9.75 6.832031 14.417969 6.25 14.417969 3.917969 C 14.417969 2.167969 12.773438 0.746094 12.082031 2.167969 C 11.824219 1.386719 11.320312 1 10.625 1 Z M 3.917969 1.582031 C 2.167969 1.582031 0.746094 3.226562 2.167969 3.917969 C 1.386719 4.175781 1 4.679688 1 5.375 C 1 6.09375 1.996094 6.832031 3.917969 6.832031 C 5.667969 6.832031 6.832031 6.25 6.832031 6.25 C 6.832031 6.25 6.25 1.582031 3.917969 1.582031 Z M 6.25 9.167969 C 6.25 9.167969 1.582031 9.75 1.582031 12.082031 C 1.582031 13.832031 3.226562 15.253906 3.917969 13.832031 C 4.175781 14.613281 4.679688 15 5.375 15 C 6.09375 15 6.832031 14.003906 6.832031 12.082031 C 6.832031 10.332031 6.25 9.167969 6.25 9.167969 Z M 12.082031 9.167969 C 10.332031 9.167969 9.167969 9.75 9.167969 9.75 C 9.167969 9.75 9.75 14.417969 12.082031 14.417969 C 13.832031 14.417969 15.253906 12.773438 13.832031 12.082031 C 14.613281 11.824219 15 11.320312 15 10.625 C 15 9.90625 14.003906 9.167969 12.082031 9.167969 Z M 12.082031 9.167969 "/>
</g>
</svg>
