
<svg xmlns="http://www.w3.org/2000/svg" xmlns:xlink="http://www.w3.org/1999/xlink" width="16px" height="16px" viewBox="0 0 16 16" version="1.1">
<g id="surface1">
<path style=" stroke:none;fill-rule:nonzero;fill:#ff6666;fill-opacity:1;" d="M 3.164062 12.488281 L 3.097656 12.484375 C 1.929688 12.460938 0.992188 11.503906 1 10.332031 C 0.996094 9.453125 1.535156 8.660156 2.351562 8.335938 L 2.484375 8.28125 L 2.460938 8.140625 C 2.445312 8.035156 2.4375 7.929688 2.4375 7.820312 C 2.4375 6.632812 3.402344 5.667969 4.589844 5.667969 C 4.773438 5.667969 4.964844 5.691406 5.152344 5.742188 L 5.335938 5.792969 L 5.375 5.609375 C 5.648438 4.382812 6.742188 3.507812 8 3.511719 C 8.96875 3.511719 9.867188 4.039062 10.34375 4.882812 L 10.402344 4.988281 L 10.523438 4.972656 C 10.636719 4.957031 10.753906 4.949219 10.871094 4.949219 C 12.234375 4.949219 13.378906 5.96875 13.542969 7.320312 L 13.554688 7.40625 L 13.632812 7.453125 C 14.476562 7.933594 14.996094 8.824219 15 9.796875 C 15 11.28125 13.792969 12.488281 12.308594 12.488281 Z M 3.164062 12.488281 "/>
</g>
</svg>
