
<svg xmlns="http://www.w3.org/2000/svg" xmlns:xlink="http://www.w3.org/1999/xlink" width="16px" height="16px" viewBox="0 0 16 16" version="1.1">
<g id="surface1">
<path style=" stroke:none;fill-rule:nonzero;fill:#ff6666;fill-opacity:1;" d="M 11.539062 1 L 11.164062 1.460938 L 9.894531 3.082031 L 8.710938 3.082031 L 8.710938 3.78125 L 5.90625 3.78125 L 5.90625 5.183594 L 8.710938 5.183594 L 8.710938 5.886719 L 9.894531 5.886719 L 11.164062 7.507812 L 11.539062 7.96875 L 12.042969 7.703125 L 15 6.148438 L 14.34375 4.921875 L 11.910156 6.191406 L 10.597656 4.484375 L 11.910156 2.773438 L 14.34375 4.046875 L 15 2.820312 L 12.042969 1.261719 Z M 3.101562 2.378906 C 1.910156 2.378906 1 3.292969 1 4.484375 C 1 5.375 1.511719 6.121094 2.269531 6.433594 L 3.933594 11.496094 L 6.894531 11.496094 L 4.941406 5.515625 C 5.109375 5.210938 5.207031 4.863281 5.207031 4.484375 C 5.207031 3.292969 4.296875 2.378906 3.101562 2.378906 Z M 3.101562 3.78125 C 3.523438 3.78125 3.804688 4.0625 3.804688 4.484375 C 3.804688 4.90625 3.523438 5.183594 3.101562 5.183594 C 2.679688 5.183594 2.402344 4.90625 2.402344 4.484375 C 2.402344 4.0625 2.679688 3.78125 3.101562 3.78125 Z M 2.402344 12.195312 C 1.628906 12.195312 1 12.824219 1 13.597656 L 1 15 L 12.917969 15 L 12.917969 13.597656 C 12.917969 12.824219 12.289062 12.195312 11.515625 12.195312 Z M 2.402344 12.195312 "/>
</g>
</svg>
