
<svg xmlns="http://www.w3.org/2000/svg" xmlns:xlink="http://www.w3.org/1999/xlink" width="16px" height="16px" viewBox="0 0 16 16" version="1.1">
<g id="surface1">
<path style=" stroke:none;fill-rule:nonzero;fill:#ff6666;fill-opacity:1;" d="M 11.429688 2.085938 L 11.410156 2.085938 C 11.40625 2.085938 11.40625 2.085938 11.40625 2.085938 C 11.121094 2.085938 10.84375 2.113281 10.570312 2.171875 C 10.371094 2.210938 10.179688 2.273438 9.996094 2.363281 C 9.742188 2.484375 9.523438 2.671875 9.363281 2.90625 C 9.210938 3.148438 9.101562 3.414062 9.050781 3.699219 C 8.988281 4 8.960938 4.308594 8.960938 4.617188 C 8.964844 4.820312 8.972656 5.027344 8.984375 5.226562 C 8.992188 5.335938 8.996094 5.445312 9 5.550781 L 6.933594 5.582031 C 6.933594 5.511719 6.933594 5.445312 6.925781 5.378906 C 6.90625 5.132812 6.902344 4.882812 6.898438 4.636719 C 6.894531 4.183594 6.933594 3.734375 7.023438 3.289062 C 7.132812 2.746094 7.339844 2.21875 7.644531 1.753906 C 8.011719 1.203125 8.519531 0.761719 9.109375 0.476562 C 9.445312 0.3125 9.800781 0.195312 10.164062 0.121094 C 10.574219 0.0429688 10.992188 0 11.40625 0 L 11.417969 0 C 12.074219 -0.0078125 12.730469 0.121094 13.339844 0.375 C 13.890625 0.609375 14.382812 0.964844 14.78125 1.410156 C 15.152344 1.832031 15.4375 2.328125 15.625 2.859375 C 15.804688 3.375 15.894531 3.917969 15.890625 4.464844 C 15.890625 5.023438 15.800781 5.574219 15.617188 6.105469 C 15.429688 6.644531 15.144531 7.144531 14.773438 7.574219 C 14.378906 8.035156 13.890625 8.398438 13.34375 8.652344 C 12.738281 8.917969 12.089844 9.050781 11.429688 9.042969 L 4.527344 9.042969 C 4.523438 9.042969 4.515625 9.042969 4.511719 9.042969 C 4.140625 9.039062 3.777344 9.109375 3.433594 9.253906 C 3.171875 9.367188 2.9375 9.535156 2.746094 9.75 C 2.5625 9.964844 2.417969 10.210938 2.324219 10.484375 C 2.222656 10.777344 2.171875 11.082031 2.171875 11.390625 C 2.171875 11.714844 2.226562 12.039062 2.335938 12.347656 C 2.433594 12.640625 2.585938 12.914062 2.785156 13.152344 C 2.980469 13.382812 3.21875 13.566406 3.488281 13.691406 C 3.8125 13.839844 4.167969 13.914062 4.523438 13.914062 C 4.527344 13.914062 4.53125 13.914062 4.53125 13.914062 L 4.574219 13.914062 C 4.574219 13.914062 4.578125 13.914062 4.578125 13.914062 C 4.847656 13.914062 5.109375 13.886719 5.371094 13.824219 C 5.558594 13.777344 5.734375 13.707031 5.898438 13.609375 C 6.167969 13.445312 6.386719 13.214844 6.539062 12.9375 C 6.703125 12.628906 6.816406 12.296875 6.871094 11.949219 C 6.925781 11.625 6.949219 11.292969 6.949219 10.964844 C 6.949219 10.835938 6.945312 10.703125 6.9375 10.570312 C 6.9375 10.566406 6.9375 10.566406 6.9375 10.5625 L 6.933594 10.472656 L 9 10.398438 L 9.003906 10.488281 C 9.011719 10.644531 9.011719 10.800781 9.011719 10.957031 C 9.011719 11.402344 8.980469 11.847656 8.90625 12.289062 C 8.8125 12.863281 8.628906 13.417969 8.355469 13.929688 C 8.027344 14.542969 7.535156 15.054688 6.945312 15.410156 C 6.605469 15.609375 6.234375 15.761719 5.855469 15.855469 C 5.429688 15.953125 4.996094 16.003906 4.5625 16 L 4.527344 16 C 3.871094 16.003906 3.226562 15.859375 2.628906 15.589844 C 2.085938 15.335938 1.605469 14.964844 1.214844 14.503906 C 0.847656 14.070312 0.566406 13.570312 0.382812 13.027344 C 0.199219 12.503906 0.109375 11.949219 0.109375 11.390625 C 0.109375 10.847656 0.195312 10.308594 0.371094 9.796875 C 0.554688 9.269531 0.835938 8.777344 1.207031 8.363281 C 1.601562 7.917969 2.085938 7.5625 2.632812 7.328125 C 3.234375 7.074219 3.878906 6.949219 4.53125 6.957031 L 11.4375 6.957031 C 11.441406 6.957031 11.445312 6.957031 11.449219 6.957031 C 11.8125 6.960938 12.171875 6.886719 12.503906 6.742188 C 12.773438 6.617188 13.019531 6.433594 13.214844 6.210938 C 13.414062 5.976562 13.570312 5.703125 13.667969 5.410156 C 13.777344 5.109375 13.832031 4.785156 13.828125 4.464844 C 13.832031 4.152344 13.777344 3.84375 13.675781 3.550781 C 13.578125 3.277344 13.433594 3.023438 13.242188 2.808594 C 13.050781 2.589844 12.808594 2.414062 12.539062 2.300781 C 12.191406 2.152344 11.816406 2.085938 11.4375 2.085938 "/>
</g>
</svg>
