
<svg xmlns="http://www.w3.org/2000/svg" xmlns:xlink="http://www.w3.org/1999/xlink" width="16px" height="16px" viewBox="0 0 16 16" version="1.1">
<g id="surface1">
<path style=" stroke:none;fill-rule:evenodd;fill:#ff6666;fill-opacity:1;" d="M 7.910156 1 C 7.820312 0.992188 7.710938 1.015625 7.59375 1.078125 C 4.433594 2.785156 2.589844 5.863281 2.617188 7.917969 C 2.65625 10.902344 4.949219 13.347656 8.363281 13.265625 C 8.207031 14.0625 7.734375 14.324219 7.804688 14.703125 C 7.832031 14.851562 8.050781 15.109375 8.347656 14.949219 C 11.382812 13.296875 13.324219 10.34375 13.382812 8.21875 C 13.464844 5.316406 11.253906 2.5625 7.617188 2.746094 C 7.703125 2.34375 7.90625 1.988281 8.160156 1.570312 C 8.316406 1.3125 8.183594 1.023438 7.910156 1 Z M 8 5.847656 C 9.191406 5.847656 10.152344 6.8125 10.152344 8 C 10.152344 9.191406 9.191406 10.152344 8 10.152344 C 6.8125 10.152344 5.847656 9.191406 5.847656 8 C 5.847656 6.8125 6.8125 5.847656 8 5.847656 Z M 8 5.847656 "/>
</g>
</svg>
