
<svg xmlns="http://www.w3.org/2000/svg" xmlns:xlink="http://www.w3.org/1999/xlink" width="16px" height="16px" viewBox="0 0 16 16" version="1.1">
<g id="surface1">
<path style=" stroke:none;fill-rule:nonzero;fill:#ff6666;fill-opacity:1;" d="M 1.023438 4.019531 C 3.351562 2.6875 5.683594 1.359375 8.011719 0.03125 C 10.339844 1.359375 12.671875 2.683594 15 4.015625 C 14.996094 6.675781 14.996094 9.335938 15 11.996094 C 12.675781 13.328125 10.339844 14.640625 8.011719 15.96875 C 5.675781 14.632812 3.328125 13.316406 1 11.96875 C 1.929688 11.441406 2.855469 10.917969 3.785156 10.394531 C 5.195312 11.199219 6.605469 12 8.011719 12.808594 C 9.410156 11.992188 10.832031 11.210938 12.226562 10.386719 C 12.214844 9.320312 12.226562 8.257812 12.222656 7.191406 C 10.820312 7.996094 9.414062 8.804688 8.011719 9.605469 C 5.679688 8.292969 3.355469 6.964844 1.023438 5.644531 C 1.023438 5.101562 1.027344 4.558594 1.023438 4.019531 Z M 5.160156 4.816406 C 6.105469 5.367188 7.0625 5.902344 8.011719 6.449219 C 8.964844 5.90625 9.917969 5.363281 10.875 4.820312 C 9.917969 4.28125 8.964844 3.734375 8.011719 3.191406 C 7.0625 3.730469 6.113281 4.28125 5.160156 4.816406 Z M 5.160156 4.816406 "/>
</g>
</svg>
