
<svg xmlns="http://www.w3.org/2000/svg" xmlns:xlink="http://www.w3.org/1999/xlink" width="16px" height="16px" viewBox="0 0 16 16" version="1.1">
<g id="surface1">
<path style=" stroke:none;fill-rule:nonzero;fill:#ff6666;fill-opacity:1;" d="M 8 1 C 4.132812 1 1 4.128906 1 7.988281 C 1 11.851562 4.132812 15 8 15 C 11.867188 15 15 11.851562 15 7.988281 C 15 4.128906 11.867188 1 8 1 Z M 11.816406 3.898438 C 13.496094 4.40625 13.933594 6.8125 12.632812 7.75 L 13.6875 11.738281 L 12.226562 12.097656 L 11.183594 8.136719 C 9.324219 7.679688 8.898438 6.058594 10.011719 4.402344 L 11.203125 6.613281 L 11.894531 6.410156 M 8 6.707031 C 8.714844 6.707031 9.285156 7.277344 9.285156 7.988281 C 9.285156 8.699219 8.714844 9.289062 8 9.289062 C 7.285156 9.289062 6.71875 8.699219 6.71875 7.988281 C 6.71875 7.277344 7.289062 6.707031 8 6.707031 Z M 8 6.707031 "/>
</g>
</svg>
