
<svg xmlns="http://www.w3.org/2000/svg" xmlns:xlink="http://www.w3.org/1999/xlink" width="16px" height="16px" viewBox="0 0 16 16" version="1.1">
<g id="surface1">
<path style=" stroke:none;fill-rule:nonzero;fill:#ff6666;fill-opacity:1;" d="M 13.761719 12.675781 C 13.761719 12.675781 17.597656 20.476562 15.226562 12.179688 C 15.226562 12.179688 13.421875 6.164062 11.066406 2.46875 C 11.066406 2.46875 8.949219 -1.875 6.308594 0.960938 C 6.308594 0.960938 0.726562 6.859375 0.0390625 13.722656 C 0.0390625 13.722656 -0.683594 17.65625 3.980469 15.160156 L 10.296875 12.03125 C 10.296875 12.03125 14.984375 9.546875 9.628906 11.140625 L 4.332031 13.054688 C 4.332031 13.054688 2.023438 14.15625 3.023438 12.03125 C 3.023438 12.03125 5.226562 6.640625 6.566406 5.207031 C 6.566406 5.207031 8.128906 2.203125 9.40625 5.027344 C 9.40625 5.027344 11.960938 8.660156 13.761719 12.675781 Z M 13.761719 12.675781 "/>
</g>
</svg>
