
<svg xmlns="http://www.w3.org/2000/svg" xmlns:xlink="http://www.w3.org/1999/xlink" width="16px" height="16px" viewBox="0 0 16 16" version="1.1">
<g id="surface1">
<path style=" stroke:none;fill-rule:nonzero;fill:#ff6666;fill-opacity:1;" d="M 5.847656 1.539062 C 4.960938 1.539062 4.230469 2.269531 4.230469 3.152344 L 4.230469 5.847656 L 5.308594 5.847656 L 5.308594 3.152344 C 5.308594 2.855469 5.546875 2.613281 5.847656 2.613281 L 5.847656 5.847656 L 6.921875 5.847656 L 6.921875 2.613281 L 7.460938 2.613281 L 7.460938 5.847656 L 8.539062 5.847656 L 8.539062 2.613281 L 9.078125 2.613281 L 9.078125 5.847656 L 10.152344 5.847656 L 10.152344 2.613281 L 10.792969 2.613281 C 10.730469 2.789062 10.695312 2.96875 10.691406 3.152344 L 10.691406 5.847656 L 11.769531 5.847656 L 11.769531 3.152344 C 11.769531 2.855469 12.007812 2.613281 12.308594 2.613281 L 15 2.613281 L 15 1.539062 Z M 2.613281 3.691406 C 2.105469 3.691406 1.671875 4.003906 1.402344 4.398438 C 1.136719 4.792969 1 5.292969 1 5.847656 C 1 6.398438 1.136719 6.898438 1.402344 7.292969 C 1.574219 7.539062 1.804688 7.738281 2.078125 7.863281 L 2.078125 14.460938 L 3.152344 14.460938 L 3.152344 13.386719 L 4.230469 13.386719 L 4.230469 14.460938 L 5.308594 14.460938 L 5.308594 13.386719 L 6.386719 13.386719 L 6.386719 14.460938 L 7.460938 14.460938 L 7.460938 13.386719 L 8.539062 13.386719 L 8.539062 14.460938 L 9.613281 14.460938 L 9.613281 13.386719 L 10.691406 13.386719 L 10.691406 14.460938 L 11.769531 14.460938 L 11.769531 13.386719 L 12.847656 13.386719 L 12.847656 14.460938 L 13.921875 14.460938 L 13.921875 7.863281 C 14.195312 7.738281 14.425781 7.539062 14.597656 7.292969 C 14.863281 6.898438 15 6.398438 15 5.847656 C 15 5.292969 14.863281 4.796875 14.597656 4.398438 C 14.328125 4.003906 13.894531 3.691406 13.386719 3.691406 L 12.308594 3.691406 L 12.308594 4.769531 L 13.386719 4.769531 C 13.46875 4.769531 13.578125 4.804688 13.703125 4.988281 C 13.828125 5.171875 13.921875 5.484375 13.921875 5.847656 C 13.921875 6.207031 13.828125 6.519531 13.703125 6.703125 C 13.582031 6.886719 13.46875 6.921875 13.386719 6.921875 L 2.613281 6.921875 C 2.53125 6.921875 2.421875 6.886719 2.296875 6.703125 C 2.171875 6.519531 2.078125 6.207031 2.078125 5.847656 C 2.078125 5.484375 2.171875 5.171875 2.296875 4.988281 C 2.417969 4.804688 2.53125 4.769531 2.613281 4.769531 L 3.691406 4.769531 L 3.691406 3.691406 Z M 3.152344 8 L 3.691406 8 L 3.691406 11.769531 L 12.308594 11.769531 L 12.308594 8 L 12.847656 8 L 12.847656 12.308594 L 3.152344 12.308594 Z M 4.769531 8 L 11.230469 8 L 11.230469 10.691406 L 4.769531 10.691406 Z M 4.769531 8 "/>
</g>
</svg>
