
<svg xmlns="http://www.w3.org/2000/svg" xmlns:xlink="http://www.w3.org/1999/xlink" width="16px" height="16px" viewBox="0 0 16 16" version="1.1">
<g id="surface1">
<path style=" stroke:none;fill-rule:nonzero;fill:#ff6666;fill-opacity:1;" d="M 8 1 C 4.136719 1 1 4.136719 1 8 C 1 11.863281 4.136719 15 8 15 C 11.863281 15 15 11.863281 15 8 C 15 4.136719 11.863281 1 8 1 Z M 8 1.664062 C 11.503906 1.664062 14.332031 4.496094 14.332031 8 C 14.332031 11.503906 11.503906 14.335938 8 14.335938 C 4.496094 14.335938 1.667969 11.503906 1.667969 8 C 1.667969 4.496094 4.496094 1.664062 8 1.664062 Z M 8 3.332031 C 7.644531 3.332031 7.308594 3.472656 7.058594 3.722656 C 6.808594 3.972656 6.664062 4.3125 6.664062 4.667969 C 6.664062 5.019531 6.808594 5.359375 7.058594 5.609375 C 7.308594 5.859375 7.644531 6 8 6 C 8.351562 6 8.691406 5.859375 8.941406 5.609375 C 9.191406 5.359375 9.332031 5.019531 9.332031 4.667969 C 9.332031 4.3125 9.191406 3.972656 8.941406 3.722656 C 8.691406 3.472656 8.351562 3.332031 8 3.332031 Z M 4 6.667969 L 4 7.332031 L 4.824219 7.335938 C 5.175781 7.335938 5.46875 7.386719 5.710938 7.492188 C 5.949219 7.589844 6.148438 7.738281 6.289062 7.929688 C 6.4375 8.113281 6.539062 8.332031 6.597656 8.585938 C 6.65625 8.839844 6.664062 9.109375 6.683594 9.394531 L 6.683594 9.398438 L 6.675781 12.667969 L 7.332031 12.667969 L 7.332031 10.335938 C 7.332031 9.964844 7.632812 9.667969 8 9.667969 C 8.367188 9.667969 8.667969 9.964844 8.667969 10.335938 L 8.667969 12.667969 L 9.332031 12.667969 L 9.339844 9.402344 C 9.339844 9.105469 9.367188 8.835938 9.425781 8.585938 C 9.480469 8.332031 9.585938 8.109375 9.730469 7.925781 C 9.875 7.734375 10.070312 7.589844 10.308594 7.492188 C 10.554688 7.386719 10.898438 7.335938 11.195312 7.335938 L 12 7.335938 L 12 6.667969 Z M 4 6.667969 "/>
</g>
</svg>
