
<svg xmlns="http://www.w3.org/2000/svg" xmlns:xlink="http://www.w3.org/1999/xlink" width="16px" height="16px" viewBox="0 0 16 16" version="1.1">
<g id="surface1">
<path style=" stroke:none;fill-rule:nonzero;fill:#ff6666;fill-opacity:1;" d="M 5.082031 15 L 6.25 15 L 6.25 13.832031 L 5.082031 13.832031 Z M 8 8.582031 C 8.96875 8.582031 9.742188 7.800781 9.742188 6.832031 L 9.75 3.332031 C 9.75 2.363281 8.96875 1.582031 8 1.582031 C 7.03125 1.582031 6.25 2.363281 6.25 3.332031 L 6.25 6.832031 C 6.25 7.800781 7.03125 8.582031 8 8.582031 Z M 7.417969 15 L 8.582031 15 L 8.582031 13.832031 L 7.417969 13.832031 Z M 9.75 15 L 10.917969 15 L 10.917969 13.832031 L 9.75 13.832031 Z M 12.082031 6.832031 L 11.09375 6.832031 C 11.09375 8.582031 9.609375 9.808594 8 9.808594 C 6.390625 9.808594 4.90625 8.582031 4.90625 6.832031 L 3.917969 6.832031 C 3.917969 8.824219 5.503906 10.46875 7.417969 10.753906 L 7.417969 12.667969 L 8.582031 12.667969 L 8.582031 10.753906 C 10.496094 10.46875 12.082031 8.824219 12.082031 6.832031 Z M 12.082031 6.832031 "/>
</g>
</svg>
