
<svg xmlns="http://www.w3.org/2000/svg" xmlns:xlink="http://www.w3.org/1999/xlink" width="16px" height="16px" viewBox="0 0 16 16" version="1.1">
<g id="surface1">
<path style=" stroke:none;fill-rule:nonzero;fill:#ff6666;fill-opacity:1;" d="M 10.671875 4.542969 C 11.019531 5.070312 11.230469 5.703125 11.230469 6.386719 C 11.230469 6.398438 11.230469 6.410156 11.226562 6.421875 C 11.964844 6.546875 12.617188 6.921875 13.074219 7.476562 C 14.15625 7.589844 15 8.503906 15 9.613281 C 15 10.722656 14.164062 11.632812 13.089844 11.753906 C 13.003906 11.835938 12.917969 11.917969 12.824219 11.996094 C 12.839844 12.097656 12.847656 12.203125 12.847656 12.308594 C 12.847656 13.496094 11.882812 14.460938 10.691406 14.460938 C 9.503906 14.460938 8.539062 13.496094 8.539062 12.308594 C 8.539062 12.214844 8.546875 12.117188 8.558594 12.027344 C 8.332031 11.847656 8.140625 11.632812 7.980469 11.394531 C 7.832031 11.621094 7.648438 11.820312 7.441406 11.996094 C 7.453125 12.097656 7.460938 12.203125 7.460938 12.308594 C 7.460938 13.496094 6.496094 14.460938 5.308594 14.460938 C 4.117188 14.460938 3.152344 13.496094 3.152344 12.308594 C 3.152344 12.203125 3.160156 12.097656 3.175781 11.996094 C 3.082031 11.917969 2.996094 11.835938 2.910156 11.753906 C 1.835938 11.632812 1 10.722656 1 9.613281 C 1 8.503906 1.84375 7.589844 2.925781 7.476562 C 3.378906 6.921875 4.035156 6.546875 4.773438 6.421875 C 4.769531 6.410156 4.769531 6.398438 4.769531 6.386719 C 4.769531 5.703125 4.980469 5.070312 5.328125 4.542969 C 5.3125 4.441406 5.308594 4.335938 5.308594 4.230469 C 5.308594 2.742188 6.511719 1.539062 8 1.539062 C 9.488281 1.539062 10.691406 2.742188 10.691406 4.230469 C 10.691406 4.335938 10.6875 4.441406 10.671875 4.542969 Z M 10.671875 4.542969 "/>
</g>
</svg>
