
<svg xmlns="http://www.w3.org/2000/svg" xmlns:xlink="http://www.w3.org/1999/xlink" width="16px" height="16px" viewBox="0 0 16 16" version="1.1">
<g id="surface1">
<path style=" stroke:none;fill-rule:nonzero;fill:#ff6666;fill-opacity:1;" d="M 8 0 C 3.582031 0 0 3.582031 0 8 C 0 12.417969 3.582031 16 8 16 C 12.417969 16 16 12.417969 16 8 C 16 3.582031 12.417969 0 8 0 Z M 8 1.191406 C 11.753906 1.191406 14.808594 4.246094 14.808594 8 C 14.808594 11.753906 11.753906 14.808594 8 14.808594 C 4.246094 14.808594 1.191406 11.753906 1.191406 8 C 1.191406 4.246094 4.246094 1.191406 8 1.191406 Z M 6.902344 2.269531 C 4.558594 2.726562 2.726562 4.558594 2.269531 6.902344 L 3.921875 7.210938 C 4.246094 5.546875 5.546875 4.242188 7.210938 3.921875 Z M 7.691406 4.960938 C 6.160156 5.117188 4.960938 6.421875 4.960938 8 C 4.960938 8.804688 5.277344 9.578125 5.851562 10.148438 C 6.421875 10.71875 7.195312 11.039062 8 11.039062 C 8.804688 11.039062 9.578125 10.71875 10.148438 10.148438 C 10.71875 9.578125 11.039062 8.804688 11.039062 8 C 11.039062 7.195312 10.71875 6.421875 10.148438 5.851562 C 9.578125 5.28125 8.804688 4.960938 8 4.960938 C 7.894531 4.960938 7.796875 4.953125 7.691406 4.960938 Z M 8 7.269531 C 8.402344 7.269531 8.730469 7.597656 8.730469 8 C 8.730469 8.402344 8.402344 8.730469 8 8.730469 C 7.597656 8.730469 7.269531 8.402344 7.269531 8 C 7.269531 7.597656 7.597656 7.269531 8 7.269531 Z M 12.078125 8.789062 C 11.753906 10.453125 10.453125 11.753906 8.789062 12.074219 L 9.097656 13.730469 C 11.441406 13.273438 13.273438 11.441406 13.730469 9.09375 Z M 12.078125 8.789062 "/>
</g>
</svg>
