
<svg xmlns="http://www.w3.org/2000/svg" xmlns:xlink="http://www.w3.org/1999/xlink" width="16px" height="16px" viewBox="0 0 16 16" version="1.1">
<g id="surface1">
<path style=" stroke:none;fill-rule:evenodd;fill:#ff6666;fill-opacity:1;" d="M 10.367188 12.359375 C 10.070312 12.621094 9.734375 12.835938 9.375 13.011719 C 7.535156 13.804688 5.410156 13.726562 3.535156 13.132812 C 2.59375 12.828125 1.554688 12.367188 1.148438 11.398438 C 0.816406 10.152344 1.089844 8.832031 1.535156 7.652344 C 2.15625 6.019531 3.15625 4.386719 4.777344 3.585938 C 4.90625 3.519531 5.035156 3.460938 5.167969 3.40625 C 5.222656 3.390625 5.273438 3.371094 5.328125 3.355469 C 5.277344 3.363281 5.222656 3.382812 5.167969 3.40625 C 5.15625 3.40625 5.140625 3.414062 5.128906 3.417969 C 5.121094 3.429688 5.152344 2.757812 5.675781 2.628906 C 7.914062 1.921875 10.5 2.972656 11.851562 4.933594 C 12.625 4.097656 14.363281 3.691406 14.746094 4.164062 C 15.164062 4.683594 14.96875 5.59375 14.839844 5.699219 C 14.710938 5.808594 13.882812 5.148438 13.160156 5.480469 C 12.867188 5.613281 12.625 5.75 12.40625 5.886719 C 13.320312 7.808594 13.226562 10.210938 11.355469 12.222656 C 10.933594 12.707031 10.382812 12.378906 10.363281 12.367188 C 10.363281 12.363281 10.367188 12.363281 10.367188 12.359375 Z M 10.367188 9.984375 C 10.320312 10.085938 10.265625 10.183594 10.203125 10.277344 C 9.859375 10.875 9.351562 11.339844 8.753906 11.652344 C 8.019531 11.953125 7.226562 12.101562 6.429688 12.089844 C 5.59375 12.089844 4.769531 11.953125 3.976562 11.699219 C 3.601562 11.59375 3.242188 11.429688 2.910156 11.234375 C 2.777344 11.144531 2.640625 11.023438 2.566406 10.875 C 2.523438 10.679688 2.492188 10.472656 2.492188 10.261719 C 2.523438 9.542969 2.65625 8.855469 2.925781 8.195312 C 3.195312 7.476562 3.554688 6.800781 3.988281 6.1875 C 4.378906 5.648438 4.875 5.214844 5.457031 4.914062 C 5.921875 4.691406 6.429688 4.570312 6.953125 4.585938 C 7.050781 4.585938 7.148438 4.589844 7.246094 4.597656 C 7.328125 4.703125 7.414062 4.8125 7.507812 4.925781 C 8.535156 6.179688 9.558594 7.960938 10.222656 9.597656 C 10.273438 9.730469 10.324219 9.859375 10.367188 9.984375 Z M 10.367188 9.984375 "/>
</g>
</svg>
