
<svg xmlns="http://www.w3.org/2000/svg" xmlns:xlink="http://www.w3.org/1999/xlink" width="16px" height="16px" viewBox="0 0 16 16" version="1.1">
<g id="surface1">
<path style=" stroke:none;fill-rule:evenodd;fill:#ff6666;fill-opacity:1;" d="M 3.160156 12.078125 C 1.949219 11.988281 1 10.984375 1 9.75 L 1 2.75 C 1 1.457031 2.039062 0.417969 3.332031 0.417969 L 5.082031 0.417969 L 5.082031 2.75 L 3.917969 2.75 C 3.59375 2.75 3.332031 3.011719 3.332031 3.332031 L 3.332031 9.167969 C 3.332031 9.488281 3.59375 9.75 3.917969 9.75 L 4.207031 9.75 L 6.832031 3.917969 L 9.167969 3.917969 L 11.792969 9.75 L 12.082031 9.75 C 12.40625 9.75 12.667969 9.488281 12.667969 9.167969 L 12.667969 3.332031 C 12.667969 3.011719 12.40625 2.75 12.082031 2.75 L 10.917969 2.75 L 10.917969 0.417969 L 12.667969 0.417969 C 13.960938 0.417969 15 1.457031 15 2.75 L 15 9.75 C 15 10.984375 14.050781 11.988281 12.839844 12.078125 L 14.417969 15.582031 L 11.792969 15.582031 L 10.304688 12.082031 L 5.695312 12.082031 L 4.207031 15.582031 L 1.582031 15.582031 Z M 9.3125 9.75 L 6.6875 9.75 L 8 6.65625 Z M 9.3125 9.75 "/>
</g>
</svg>
