
<svg xmlns="http://www.w3.org/2000/svg" xmlns:xlink="http://www.w3.org/1999/xlink" width="16px" height="16px" viewBox="0 0 16 16" version="1.1">
<g id="surface1">
<path style=" stroke:none;fill-rule:evenodd;fill:#ff6666;fill-opacity:1;" d="M 15 10.5 L 15 8.5 L 14 8.5 L 14 10.5 Z M 15 11.5 L 15 12 C 15 12.59375 14.9375 13.007812 14.839844 13.265625 C 14.742188 13.527344 14.636719 13.636719 14.453125 13.738281 C 14.34375 13.800781 14.191406 13.847656 14 13.882812 L 14 11.5 Z M 15 7.5 L 15 5.5 L 14 5.5 L 14 7.5 Z M 15 4.5 L 15 4 C 15 3.40625 14.9375 2.992188 14.839844 2.734375 C 14.742188 2.476562 14.640625 2.363281 14.453125 2.261719 C 14.34375 2.199219 14.191406 2.15625 14 2.117188 L 14 4.5 Z M 7 5 C 7.550781 5 8 5.558594 8 6.25 C 8 6.941406 7.550781 7.5 7 7.5 C 6.449219 7.5 6 6.941406 6 6.25 C 6 5.558594 6.449219 5 7 5 Z M 7.015625 10.003906 C 8.621094 10.003906 8.96875 9.996094 9.429688 10.363281 C 9.660156 10.550781 9.800781 10.671875 9.894531 10.992188 C 9.894531 10.996094 9.894531 10.996094 9.898438 11 L 4.105469 11 C 4.105469 10.996094 4.105469 10.996094 4.109375 10.992188 C 4.203125 10.671875 4.34375 10.550781 4.574219 10.363281 C 5.035156 9.996094 5.410156 10.003906 7.015625 10.003906 Z M 7 4 C 6.71875 4 6.449219 4.054688 6.199219 4.164062 C 5.953125 4.273438 5.734375 4.425781 5.554688 4.628906 L 5.554688 4.632812 C 5.375 4.832031 5.238281 5.074219 5.144531 5.351562 C 5.046875 5.625 5 5.925781 5 6.25 C 5 6.578125 5.046875 6.882812 5.144531 7.15625 C 5.242188 7.429688 5.375 7.667969 5.554688 7.867188 L 5.554688 7.871094 C 5.734375 8.070312 5.953125 8.230469 6.195312 8.339844 L 6.199219 8.34375 C 6.449219 8.449219 6.71875 8.5 7 8.5 C 7.28125 8.5 7.550781 8.449219 7.796875 8.34375 L 7.796875 8.339844 C 8.042969 8.230469 8.253906 8.070312 8.433594 7.871094 C 8.613281 7.671875 8.753906 7.429688 8.851562 7.15625 C 8.949219 6.882812 8.992188 6.578125 8.992188 6.25 L 9 6.25 C 9 5.929688 8.953125 5.628906 8.855469 5.351562 C 8.757812 5.074219 8.617188 4.832031 8.4375 4.628906 C 8.261719 4.425781 8.042969 4.273438 7.800781 4.164062 C 7.550781 4.054688 7.28125 4 7 4 Z M 7.015625 9 C 5.367188 9 4.488281 9.160156 3.828125 9.683594 C 3.503906 9.945312 3.285156 10.300781 3.160156 10.714844 C 3.039062 11.128906 3 11.445312 3 11.996094 C 4 12 10 12 11 12 C 11 11.449219 10.960938 11.132812 10.839844 10.71875 C 10.71875 10.300781 10.503906 9.945312 10.175781 9.683594 C 9.515625 9.160156 8.660156 9 7.015625 9 Z M 13 2.023438 C 12.703125 2.011719 12.371094 2.003906 12 2 L 4 2 C 2.742188 2.015625 1.910156 2.058594 1.546875 2.261719 C 1.363281 2.363281 1.257812 2.472656 1.160156 2.734375 C 1.0625 2.992188 1 3.40625 1 4 L 1 12 C 1 12.59375 1.0625 13.007812 1.160156 13.265625 C 1.257812 13.523438 1.363281 13.636719 1.546875 13.738281 C 1.910156 13.941406 2.742188 13.984375 4 14 L 12 14 C 12.371094 13.996094 12.703125 13.988281 13 13.976562 Z M 3.992188 1 C 2.734375 1.015625 1.816406 0.96875 1.0625 1.386719 C 0.6875 1.59375 0.390625 1.945312 0.226562 2.382812 C 0.0585938 2.820312 0 3.34375 0 4 L 0 12 C 0 12.65625 0.0585938 13.179688 0.226562 13.617188 C 0.390625 14.054688 0.6875 14.40625 1.0625 14.613281 C 1.816406 15.027344 2.734375 14.984375 3.992188 15 L 12.007812 15 C 13.265625 14.984375 14.183594 15.03125 14.9375 14.613281 C 15.3125 14.40625 15.609375 14.054688 15.777344 13.617188 C 15.941406 13.179688 16 12.65625 16 12 L 16 4 C 16 3.34375 15.941406 2.820312 15.773438 2.382812 C 15.609375 1.945312 15.3125 1.59375 14.9375 1.386719 C 14.183594 0.972656 13.265625 1.015625 12.007812 1 Z M 3.992188 1 "/>
</g>
</svg>
