
<svg xmlns="http://www.w3.org/2000/svg" xmlns:xlink="http://www.w3.org/1999/xlink" width="16px" height="16px" viewBox="0 0 16 16" version="1.1">
<g id="surface1">
<path style=" stroke:none;fill-rule:evenodd;fill:#ff6666;fill-opacity:1;" d="M 1.777344 0 C 0.796875 0 0 0.796875 0 1.777344 L 0 14.222656 C 0 15.203125 0.796875 16 1.777344 16 L 14.222656 16 C 15.203125 16 16 15.203125 16 14.222656 L 16 1.777344 C 16 0.796875 15.203125 0 14.222656 0 Z M 2.75 3.175781 L 2.75 13.519531 L 4.648438 13.519531 L 4.648438 9.574219 C 4.894531 9.617188 5.222656 9.632812 5.578125 9.632812 C 6.933594 9.632812 8.132812 9.277344 8.894531 8.515625 C 9.484375 7.953125 9.796875 7.128906 9.796875 6.132812 C 9.796875 5.15625 9.394531 4.328125 8.769531 3.816406 C 8.101562 3.257812 7.074219 2.960938 5.675781 2.960938 C 4.382812 2.960938 3.433594 3.054688 2.75 3.179688 L 2.75 3.175781 M 4.648438 8.0625 L 4.648438 4.519531 C 4.851562 4.472656 5.222656 4.421875 5.753906 4.421875 C 7.074219 4.421875 7.882812 5.046875 7.882812 6.210938 C 7.882812 7.441406 7.011719 8.140625 5.578125 8.140625 C 5.191406 8.140625 4.882812 8.128906 4.648438 8.0625 M 11.320312 13.523438 L 13.25 13.523438 L 13.25 2.476562 L 11.320312 2.476562 L 11.320312 13.523438 M 2.75 3.175781 Z M 2.75 3.175781 "/>
</g>
</svg>
