
<svg xmlns="http://www.w3.org/2000/svg" xmlns:xlink="http://www.w3.org/1999/xlink" width="16px" height="16px" viewBox="0 0 16 16" version="1.1">
<g id="surface1">
<path style=" stroke:none;fill-rule:evenodd;fill:#ff6666;fill-opacity:1;" d="M 1.777344 0 C 0.796875 0 0 0.796875 0 1.777344 L 0 14.222656 C 0 15.203125 0.796875 16 1.777344 16 L 14.222656 16 C 15.203125 16 16 15.203125 16 14.222656 L 16 1.777344 C 16 0.796875 15.203125 0 14.222656 0 Z M 2.75 3.808594 L 2.75 12.375 L 4.320312 12.375 L 4.320312 9.101562 C 4.527344 9.140625 4.796875 9.15625 5.09375 9.15625 C 6.214844 9.15625 7.207031 8.859375 7.839844 8.226562 C 8.328125 7.761719 8.585938 7.078125 8.585938 6.253906 C 8.585938 5.445312 8.25 4.761719 7.734375 4.335938 C 7.179688 3.871094 6.332031 3.625 5.171875 3.625 C 4.101562 3.625 3.316406 3.703125 2.75 3.808594 M 4.320312 7.855469 L 4.320312 4.914062 C 4.488281 4.878906 4.796875 4.839844 5.238281 4.839844 C 6.328125 4.839844 7.003906 5.351562 7.003906 6.320312 C 7.003906 7.335938 6.28125 7.917969 5.097656 7.917969 C 4.773438 7.917969 4.515625 7.902344 4.324219 7.855469 L 4.320312 7.855469 M 11.164062 7.296875 L 11.109375 7.296875 L 11.058594 6.101562 L 9.683594 6.101562 C 9.722656 6.667969 9.734375 7.273438 9.734375 8.121094 L 9.734375 12.375 L 11.316406 12.375 L 11.316406 9.128906 C 11.316406 8.949219 11.34375 8.78125 11.367188 8.636719 C 11.511719 7.929688 12.027344 7.441406 12.785156 7.441406 C 12.980469 7.441406 13.121094 7.46875 13.25 7.492188 L 13.25 5.996094 C 13.121094 5.972656 13.03125 5.960938 12.875 5.960938 C 12.207031 5.960938 11.472656 6.410156 11.164062 7.296875 M 2.75 3.808594 Z M 2.75 3.808594 "/>
</g>
</svg>
