
<svg xmlns="http://www.w3.org/2000/svg" xmlns:xlink="http://www.w3.org/1999/xlink" width="16px" height="16px" viewBox="0 0 16 16" version="1.1">
<g id="surface1">
<path style=" stroke:none;fill-rule:nonzero;fill:#ff6666;fill-opacity:1;" d="M 15.324219 11.085938 C 15.277344 11.023438 15.203125 10.9375 15.121094 10.851562 C 14.253906 9.960938 13.605469 8.910156 13.257812 7.75 C 13.242188 7.695312 13.226562 7.640625 13.210938 7.585938 C 13.199219 7.53125 13.183594 7.476562 13.171875 7.421875 C 12.890625 6.238281 12.925781 5.007812 13.234375 3.804688 C 13.234375 3.804688 13.28125 3.605469 13.292969 3.523438 C 13.550781 2.003906 12.613281 0.511719 11.097656 0.101562 C 9.550781 -0.3125 7.964844 0.554688 7.457031 2.054688 C 7.4375 2.109375 7.394531 2.25 7.394531 2.253906 C 7.0625 3.429688 6.484375 4.5 5.667969 5.378906 C 4.738281 6.351562 3.558594 7.042969 2.238281 7.398438 C 0.628906 7.828125 -0.328125 9.488281 0.101562 11.097656 C 0.535156 12.710938 2.191406 13.664062 3.800781 13.234375 C 5.003906 12.925781 6.238281 12.890625 7.417969 13.171875 C 7.472656 13.183594 7.527344 13.199219 7.582031 13.214844 C 7.640625 13.226562 7.691406 13.242188 7.746094 13.257812 C 8.910156 13.609375 9.960938 14.253906 10.847656 15.121094 C 10.957031 15.230469 11.050781 15.308594 11.140625 15.371094 C 12.332031 16.28125 14.03125 16.210938 15.121094 15.121094 C 16.226562 14.019531 16.289062 12.273438 15.324219 11.085938 Z M 8.007812 11.632812 C 6.429688 11.210938 5.496094 9.589844 5.917969 8.011719 C 6.339844 6.4375 7.960938 5.5 9.535156 5.921875 C 11.113281 6.347656 12.050781 7.964844 11.628906 9.542969 C 11.203125 11.121094 9.585938 12.054688 8.007812 11.632812 Z M 8.007812 11.632812 "/>
</g>
</svg>
