
<svg xmlns="http://www.w3.org/2000/svg" xmlns:xlink="http://www.w3.org/1999/xlink" width="16px" height="16px" viewBox="0 0 16 16" version="1.1">
<g id="surface1">
<path style=" stroke:none;fill-rule:evenodd;fill:#ff6666;fill-opacity:1;" d="M 1.777344 0 C 0.796875 0 0 0.796875 0 1.777344 L 0 14.222656 C 0 15.203125 0.796875 16 1.777344 16 L 14.222656 16 C 15.203125 16 16 15.203125 16 14.222656 L 16 1.777344 C 16 0.796875 15.203125 0 14.222656 0 Z M 2.867188 5.3125 C 2.867188 6.347656 3.621094 6.972656 4.800781 7.394531 C 5.710938 7.726562 6.074219 8.042969 6.074219 8.585938 C 6.074219 9.167969 5.605469 9.5625 4.765625 9.5625 C 4.097656 9.5625 3.464844 9.347656 3.035156 9.105469 L 2.75 10.1875 C 3.144531 10.421875 3.929688 10.644531 4.683594 10.644531 C 6.53125 10.644531 7.402344 9.632812 7.402344 8.488281 C 7.402344 7.460938 6.796875 6.832031 5.554688 6.367188 C 4.601562 5.992188 4.1875 5.738281 4.1875 5.1875 C 4.1875 4.773438 4.546875 4.324219 5.371094 4.324219 C 6.042969 4.324219 6.539062 4.527344 6.796875 4.664062 L 7.113281 3.613281 C 6.742188 3.425781 6.171875 3.253906 5.394531 3.253906 C 3.847656 3.253906 2.871094 4.144531 2.871094 5.3125 L 2.867188 5.3125 M 8.195312 7.972656 C 8.195312 9.4375 9.109375 10.496094 10.394531 10.496094 C 11.074219 10.496094 11.605469 10.1875 11.90625 9.730469 L 11.925781 9.730469 L 11.925781 10.175781 C 11.925781 11.289062 11.289062 11.738281 10.4375 11.738281 C 9.8125 11.738281 9.261719 11.535156 8.929688 11.347656 L 8.644531 12.332031 C 9.089844 12.609375 9.789062 12.746094 10.449219 12.746094 C 11.160156 12.746094 11.902344 12.597656 12.445312 12.117188 C 12.984375 11.632812 13.207031 10.859375 13.207031 9.773438 L 13.207031 6.84375 C 13.207031 6.132812 13.230469 5.707031 13.25 5.355469 L 12.113281 5.355469 L 12.0625 6.046875 L 12.039062 6.046875 C 11.796875 5.621094 11.328125 5.238281 10.542969 5.238281 C 9.300781 5.238281 8.195312 6.269531 8.195312 7.96875 L 8.195312 7.972656 M 9.523438 7.925781 C 9.523438 6.875 10.066406 6.238281 10.796875 6.238281 C 11.351562 6.238281 11.722656 6.597656 11.859375 7.078125 C 11.890625 7.183594 11.902344 7.3125 11.902344 7.425781 L 11.902344 8.265625 C 11.902344 8.414062 11.882812 8.59375 11.847656 8.734375 C 11.699219 9.199219 11.277344 9.519531 10.789062 9.519531 C 9.96875 9.519531 9.523438 8.808594 9.523438 7.925781 M 2.867188 5.3125 Z M 2.867188 5.3125 "/>
</g>
</svg>
