
<svg xmlns="http://www.w3.org/2000/svg" xmlns:xlink="http://www.w3.org/1999/xlink" width="16px" height="16px" viewBox="0 0 16 16" version="1.1">
<g id="surface1">
<path style=" stroke:none;fill-rule:nonzero;fill:#ff6666;fill-opacity:1;" d="M 1.777344 0 C 0.796875 0 0 0.796875 0 1.777344 L 0 14.222656 C 0 15.203125 0.796875 16 1.777344 16 L 14.222656 16 C 15.203125 16 16 15.203125 16 14.222656 L 16 1.777344 C 16 0.796875 15.203125 0 14.222656 0 Z M 2.222656 4.167969 L 4.277344 4.167969 C 5.878906 4.167969 7.109375 5.34375 7.109375 7.390625 L 7.109375 8.609375 C 7.109375 10.742188 5.945312 11.835938 4.164062 11.835938 L 2.222656 11.835938 Z M 3.722656 5.5 L 3.722656 10.582031 L 4.167969 10.582031 C 5.234375 10.582031 5.613281 9.945312 5.613281 8.609375 L 5.613281 7.472656 C 5.613281 5.785156 5.054688 5.5 4.164062 5.5 Z M 7.722656 6.222656 L 9.164062 6.222656 L 9.695312 9.417969 L 10.386719 6.222656 L 11.472656 6.222656 L 12.164062 9.417969 L 12.722656 6.222656 L 14.140625 6.222656 L 12.972656 11.835938 L 11.722656 11.835938 L 10.945312 8.527344 L 10.140625 11.835938 L 8.890625 11.835938 Z M 7.722656 6.222656 "/>
</g>
</svg>
