
<svg xmlns="http://www.w3.org/2000/svg" xmlns:xlink="http://www.w3.org/1999/xlink" width="16px" height="16px" viewBox="0 0 16 16" version="1.1">
<g id="surface1">
<path style=" stroke:none;fill-rule:nonzero;fill:#ff6666;fill-opacity:1;" d="M 1.777344 0 C 0.796875 0 0 0.796875 0 1.777344 L 0 14.222656 C 0 15.203125 0.796875 16 1.777344 16 L 14.222656 16 C 15.203125 16 16 15.203125 16 14.222656 L 16 1.777344 C 16 0.796875 15.203125 0 14.222656 0 Z M 11.109375 4 C 11.398438 4 11.664062 4.152344 11.808594 4.402344 C 11.953125 4.652344 11.953125 4.960938 11.808594 5.210938 C 11.664062 5.460938 11.398438 5.613281 11.109375 5.613281 C 10.664062 5.613281 10.304688 5.25 10.304688 4.804688 C 10.304688 4.359375 10.664062 4 11.109375 4 Z M 5.945312 4.359375 L 7.390625 4.359375 L 9.777344 11.914062 L 8.085938 11.914062 L 7.640625 10.390625 L 5.613281 10.390625 L 5.167969 11.914062 L 3.554688 11.914062 Z M 10.386719 6.304688 L 11.917969 6.304688 L 11.917969 11.914062 L 10.386719 11.914062 Z M 6.667969 6.390625 L 5.945312 9.054688 L 7.390625 9.054688 Z M 6.667969 6.390625 "/>
</g>
</svg>
