
<svg xmlns="http://www.w3.org/2000/svg" xmlns:xlink="http://www.w3.org/1999/xlink" width="16px" height="16px" viewBox="0 0 16 16" version="1.1">
<g id="surface1">
<path style=" stroke:none;fill-rule:nonzero;fill:#ff6666;fill-opacity:1;" d="M 1.777344 0 C 0.796875 0 0 0.796875 0 1.777344 L 0 14.222656 C 0 15.203125 0.796875 16 1.777344 16 L 14.222656 16 C 15.203125 16 16 15.203125 16 14.222656 L 16 1.777344 C 16 0.796875 15.203125 0 14.222656 0 Z M 3.835938 4.167969 L 6.140625 4.167969 C 6.492188 4.167969 8.527344 4.175781 8.527344 6.222656 C 8.527344 7.378906 7.730469 7.742188 7.554688 7.835938 C 7.734375 7.925781 8.613281 8.164062 8.613281 9.5 C 8.699219 11.1875 7.730469 11.835938 6.304688 11.835938 L 3.835938 11.835938 Z M 5.332031 5.5 L 5.332031 7.386719 L 6.140625 7.386719 C 6.675781 7.386719 7.027344 7.121094 7.027344 6.5 C 7.027344 5.609375 6.492188 5.5 6.140625 5.5 Z M 12.085938 6.054688 C 12.171875 6.054688 12.4375 6.140625 12.527344 6.140625 L 12.527344 7.554688 L 12 7.554688 C 11.464844 7.554688 11.285156 7.90625 11.195312 8.085938 L 11.195312 11.835938 L 9.695312 11.835938 L 9.695312 6.136719 L 11.109375 6.136719 L 11.109375 6.75 C 11.203125 6.480469 11.546875 6.054688 12.085938 6.054688 Z M 5.332031 8.527344 L 5.332031 10.585938 L 6.304688 10.585938 C 6.75 10.585938 7.109375 10.324219 7.109375 9.613281 C 7.203125 8.898438 6.925781 8.527344 6.386719 8.527344 Z M 5.332031 8.527344 "/>
</g>
</svg>
