
<svg xmlns="http://www.w3.org/2000/svg" xmlns:xlink="http://www.w3.org/1999/xlink" width="16px" height="16px" viewBox="0 0 16 16" version="1.1">
<g id="surface1">
<path style=" stroke:none;fill-rule:nonzero;fill:#ff6666;fill-opacity:1;" d="M 8.808594 1 L 8.539062 1.269531 L 8.539062 1.539062 L 8.808594 1.671875 L 8.539062 2.613281 L 9.078125 3.152344 L 9.433594 3.152344 L 9.886719 3.421875 L 9.613281 4.230469 L 8.539062 5.847656 L 6.886719 6.648438 C 6.785156 6.484375 6.601562 6.386719 6.40625 6.386719 C 6.097656 6.382812 5.847656 6.625 5.847656 6.921875 C 5.847656 7.21875 6.097656 7.460938 6.40625 7.460938 C 6.714844 7.460938 6.964844 7.21875 6.964844 6.921875 L 8.808594 6.113281 L 9.613281 5.308594 L 9.613281 6.921875 L 8.988281 7.460938 L 5.523438 10.421875 L 4.339844 13.921875 L 3.691406 13.921875 L 2.613281 13.386719 L 2.613281 13.921875 L 3.691406 15 L 4.5 15 L 6.113281 10.691406 L 8 9.613281 L 6.921875 12.308594 L 10.261719 13.921875 L 9.078125 14.730469 L 9.078125 15 L 11.230469 15 L 11.230469 14.460938 L 10.960938 13.652344 L 7.730469 12.039062 L 11.230469 8 L 11.230469 5.308594 L 11.769531 5.847656 L 12.535156 8.097656 C 12.394531 8.199219 12.308594 8.363281 12.308594 8.539062 C 12.308594 8.835938 12.550781 9.078125 12.847656 9.078125 C 13.144531 9.078125 13.386719 8.835938 13.386719 8.539062 C 13.386719 8.242188 13.144531 8 12.847656 8 L 12.308594 5.578125 L 11.230469 4.230469 L 10.691406 3.246094 L 10.152344 2.613281 L 10.152344 1.539062 L 9.667969 1 Z M 8.808594 1 "/>
</g>
</svg>
