
<svg xmlns="http://www.w3.org/2000/svg" xmlns:xlink="http://www.w3.org/1999/xlink" width="16px" height="16px" viewBox="0 0 16 16" version="1.1">
<g id="surface1">
<path style=" stroke:none;fill-rule:evenodd;fill:#ff6666;fill-opacity:1;" d="M 8.550781 11.316406 L 9.914062 11.316406 C 9.953125 11.316406 9.988281 11.316406 10.023438 11.320312 C 10.085938 11.324219 10.148438 11.328125 10.21875 11.324219 C 10.433594 11.328125 10.648438 11.3125 10.863281 11.28125 C 11.09375 11.25 11.320312 11.1875 11.535156 11.097656 C 11.640625 11.054688 11.730469 10.988281 11.804688 10.902344 C 11.816406 10.882812 11.828125 10.863281 11.835938 10.84375 C 11.855469 10.773438 11.867188 10.703125 11.863281 10.628906 C 11.867188 10.46875 11.847656 10.3125 11.808594 10.160156 C 11.785156 10.078125 11.75 10 11.707031 9.929688 C 11.621094 9.800781 11.503906 9.695312 11.363281 9.625 C 11.160156 9.523438 10.941406 9.453125 10.714844 9.417969 C 10.523438 9.382812 10.328125 9.367188 10.132812 9.367188 C 10.09375 9.367188 10.058594 9.367188 10.023438 9.371094 C 9.988281 9.371094 9.957031 9.375 9.925781 9.375 L 8.550781 9.386719 Z M 7.171875 11.316406 L 4.175781 11.316406 C 3.773438 11.316406 3.386719 11.476562 3.101562 11.761719 C 2.820312 12.046875 2.660156 12.433594 2.660156 12.835938 C 2.660156 13.238281 2.820312 13.625 3.101562 13.910156 C 3.386719 14.195312 3.773438 14.355469 4.175781 14.355469 L 7.171875 14.355469 L 7.171875 15.3125 C 7.171875 15.691406 7.480469 16 7.863281 16 C 8.242188 16 8.550781 15.691406 8.550781 15.3125 L 8.550781 14.355469 L 9.867188 14.355469 C 9.988281 14.363281 10.109375 14.363281 10.226562 14.363281 C 10.582031 14.363281 10.933594 14.335938 11.28125 14.289062 C 11.769531 14.222656 12.25 14.09375 12.707031 13.898438 C 13.292969 13.65625 13.808594 13.261719 14.203125 12.765625 C 14.4375 12.464844 14.609375 12.125 14.726562 11.765625 C 14.847656 11.398438 14.902344 11.015625 14.902344 10.628906 C 14.902344 10.203125 14.851562 9.78125 14.742188 9.375 C 14.636719 8.988281 14.472656 8.617188 14.257812 8.28125 C 13.878906 7.699219 13.351562 7.230469 12.730469 6.914062 C 12.257812 6.675781 11.746094 6.507812 11.21875 6.421875 C 10.863281 6.363281 10.507812 6.332031 10.144531 6.328125 C 10.050781 6.328125 9.957031 6.332031 9.863281 6.339844 L 8.550781 6.347656 L 8.550781 4.417969 L 11.726562 4.417969 C 12.128906 4.417969 12.515625 4.257812 12.800781 3.972656 C 13.085938 3.6875 13.246094 3.300781 13.246094 2.898438 C 13.246094 2.496094 13.085938 2.109375 12.800781 1.824219 C 12.515625 1.539062 12.128906 1.378906 11.726562 1.378906 L 8.550781 1.378906 L 8.550781 0.699219 C 8.554688 0.511719 8.480469 0.332031 8.351562 0.203125 C 8.21875 0.0703125 8.039062 -0.00390625 7.851562 0 C 7.472656 0.0078125 7.164062 0.320312 7.171875 0.699219 L 7.171875 1.378906 L 6.113281 1.378906 C 6.054688 1.378906 5.996094 1.378906 5.933594 1.378906 C 5.601562 1.378906 5.265625 1.402344 4.9375 1.453125 C 4.421875 1.519531 3.917969 1.660156 3.441406 1.863281 C 3.148438 1.988281 2.867188 2.148438 2.609375 2.335938 C 2.316406 2.546875 2.058594 2.800781 1.839844 3.082031 C 1.597656 3.402344 1.410156 3.761719 1.285156 4.140625 C 1.160156 4.539062 1.097656 4.960938 1.097656 5.382812 C 1.097656 5.808594 1.160156 6.230469 1.289062 6.632812 C 1.414062 7.015625 1.605469 7.375 1.847656 7.695312 C 2.070312 7.984375 2.328125 8.234375 2.625 8.445312 C 2.886719 8.632812 3.167969 8.789062 3.460938 8.914062 C 3.9375 9.117188 4.445312 9.253906 4.960938 9.328125 C 5.289062 9.375 5.621094 9.398438 5.953125 9.398438 C 6.007812 9.398438 6.0625 9.398438 6.117188 9.394531 L 7.171875 9.390625 Z M 6.074219 6.359375 C 6.058594 6.359375 6.035156 6.359375 6.019531 6.363281 C 6.003906 6.363281 5.980469 6.363281 5.964844 6.363281 C 5.769531 6.363281 5.574219 6.347656 5.382812 6.316406 C 5.128906 6.285156 4.882812 6.21875 4.648438 6.121094 C 4.558594 6.082031 4.472656 6.035156 4.394531 5.976562 C 4.34375 5.941406 4.296875 5.894531 4.253906 5.84375 C 4.222656 5.800781 4.195312 5.753906 4.179688 5.703125 C 4.148438 5.597656 4.132812 5.488281 4.136719 5.382812 C 4.132812 5.273438 4.148438 5.167969 4.179688 5.066406 C 4.195312 5.015625 4.222656 4.96875 4.253906 4.925781 C 4.289062 4.878906 4.335938 4.832031 4.386719 4.796875 C 4.464844 4.738281 4.546875 4.691406 4.636719 4.65625 C 4.867188 4.558594 5.109375 4.492188 5.359375 4.457031 C 5.558594 4.429688 5.753906 4.414062 5.949219 4.414062 C 5.972656 4.414062 5.992188 4.414062 6.011719 4.414062 C 6.035156 4.417969 6.058594 4.417969 6.085938 4.417969 L 7.171875 4.417969 L 7.171875 6.347656 Z M 6.074219 6.359375 "/>
</g>
</svg>
