
<svg xmlns="http://www.w3.org/2000/svg" xmlns:xlink="http://www.w3.org/1999/xlink" width="16px" height="16px" viewBox="0 0 16 16" version="1.1">
<g id="surface1">
<path style=" stroke:none;fill-rule:evenodd;fill:#ff6666;fill-opacity:1;" d="M 6.296875 1 L 5.074219 3.0625 L 5.585938 3.929688 L 3.128906 8.199219 L 1.613281 9.097656 L 0 11.796875 L 1.273438 13.941406 L 1.722656 13.914062 L 2.101562 14.578125 L 14.625 14.582031 L 16 12.339844 L 9.734375 1.390625 L 8.964844 1.40625 L 8.789062 1.054688 Z M 11.015625 5.460938 L 8.957031 1.910156 L 6.910156 5.460938 Z M 11.191406 5.765625 L 6.734375 5.765625 L 5.445312 8 L 7.953125 12.296875 L 15.003906 12.335938 Z M 6.628906 10.671875 L 5.257812 8.324219 L 3.902344 10.671875 Z M 6.804688 10.976562 L 3.730469 10.976562 L 2.257812 13.523438 L 8.3125 13.554688 Z M 6.804688 10.976562 "/>
</g>
</svg>
