
<svg xmlns="http://www.w3.org/2000/svg" xmlns:xlink="http://www.w3.org/1999/xlink" width="16px" height="16px" viewBox="0 0 16 16" version="1.1">
<g id="surface1">
<path style=" stroke:none;fill-rule:evenodd;fill:#ff6666;fill-opacity:1;" d="M 12.746094 4.585938 C 13.492188 5.617188 13.921875 6.890625 13.921875 8.269531 C 13.921875 11.867188 10.992188 14.730469 7.460938 14.730469 C 3.933594 14.730469 1 11.867188 1 8.269531 C 1 4.671875 3.933594 1.808594 7.460938 1.808594 C 9.082031 1.808594 10.574219 2.410156 11.714844 3.414062 C 12.558594 2.375 13.324219 1.597656 13.800781 1.371094 C 14.484375 0.984375 15.375 1.785156 14.832031 2.371094 C 14.207031 2.820312 13.484375 3.597656 12.746094 4.585938 Z M 11.0625 4.222656 C 10.105469 3.398438 8.851562 2.898438 7.460938 2.898438 C 4.394531 2.898438 1.972656 5.339844 1.972656 8.273438 C 1.972656 11.207031 4.394531 13.644531 7.460938 13.644531 C 10.527344 13.644531 12.945312 11.207031 12.945312 8.273438 C 12.945312 7.226562 12.640625 6.242188 12.09375 5.417969 C 10.644531 7.4375 9.253906 9.882812 8.558594 11.496094 C 8.289062 12.21875 7.484375 12.21875 6.773438 11.496094 L 4.394531 8.339844 L 4.390625 8.339844 C 3.773438 7.425781 5.078125 6.359375 5.734375 7.308594 L 7.535156 9.800781 C 7.863281 8.789062 9.484375 6.265625 11.0625 4.222656 Z M 11.0625 4.222656 "/>
</g>
</svg>
