
<svg xmlns="http://www.w3.org/2000/svg" xmlns:xlink="http://www.w3.org/1999/xlink" width="16px" height="16px" viewBox="0 0 16 16" version="1.1">
<g id="surface1">
<path style=" stroke:none;fill-rule:evenodd;fill:#ff6666;fill-opacity:1;" d="M 11.132812 9.933594 L 10.914062 9.6875 C 10.164062 8.867188 9.105469 8.394531 8 8.394531 C 6.894531 8.394531 5.835938 8.867188 5.085938 9.6875 L 4.867188 9.933594 L 3.183594 8.246094 L 3.390625 8.027344 C 4.601562 6.730469 6.238281 6.019531 8 6.019531 C 9.761719 6.019531 11.398438 6.730469 12.609375 8.027344 L 12.816406 8.246094 Z M 8 13.066406 L 5.4375 10.503906 L 5.628906 10.285156 C 6.230469 9.585938 7.09375 9.1875 8 9.1875 C 8.902344 9.1875 9.769531 9.585938 10.371094 10.285156 L 10.5625 10.503906 Z M 13.390625 7.675781 L 13.171875 7.441406 C 11.808594 6.003906 9.972656 5.207031 8 5.207031 C 6.03125 5.207031 4.195312 6 2.828125 7.441406 L 2.609375 7.675781 L 1 6.066406 L 1.210938 5.84375 C 3.003906 3.96875 5.414062 2.933594 8 2.933594 C 10.585938 2.933594 12.996094 3.96875 14.789062 5.84375 L 15 6.066406 Z M 13.390625 7.675781 "/>
</g>
</svg>
