
<svg xmlns="http://www.w3.org/2000/svg" xmlns:xlink="http://www.w3.org/1999/xlink" width="16px" height="16px" viewBox="0 0 16 16" version="1.1">
<g id="surface1">
<path style=" stroke:none;fill-rule:nonzero;fill:#ff6666;fill-opacity:1;" d="M 6.128906 6.152344 C 6.144531 6.089844 6.152344 6.019531 6.152344 5.949219 L 6.152344 0.820312 C 6.152344 0.367188 5.785156 0 5.335938 0 L 4.511719 0 C 4.058594 0 3.691406 0.367188 3.691406 0.820312 L 3.691406 5.949219 C 3.691406 6.019531 3.699219 6.089844 3.71875 6.152344 L 2.664062 6.152344 C 2.214844 6.152344 1.847656 6.519531 1.847656 6.972656 L 1.847656 15.179688 C 1.847656 15.632812 2.214844 16 2.664062 16 L 13.335938 16 C 13.785156 16 14.152344 15.632812 14.152344 15.179688 L 14.152344 6.972656 C 14.152344 6.519531 13.785156 6.152344 13.335938 6.152344 L 12.28125 6.152344 C 12.300781 6.089844 12.308594 6.019531 12.308594 5.949219 L 12.308594 0.820312 C 12.308594 0.367188 11.941406 0 11.488281 0 L 10.664062 0 C 10.214844 0 9.847656 0.367188 9.847656 0.820312 L 9.847656 5.949219 C 9.847656 6.019531 9.855469 6.089844 9.871094 6.152344 Z M 6.128906 6.152344 "/>
</g>
</svg>
