
<svg xmlns="http://www.w3.org/2000/svg" xmlns:xlink="http://www.w3.org/1999/xlink" width="16px" height="16px" viewBox="0 0 16 16" version="1.1">
<g id="surface1">
<path style=" stroke:none;fill-rule:nonzero;fill:#ff6666;fill-opacity:1;" d="M 2.398438 0.00390625 C 1.078125 0.00390625 0 1.082031 0 2.402344 L 0 11.996094 C 0 13.316406 1.078125 14.394531 2.398438 14.394531 L 4.296875 14.394531 L 10.917969 15.945312 C 11.097656 15.984375 11.269531 15.996094 11.441406 15.996094 C 12.566406 15.988281 13.535156 15.214844 13.792969 14.121094 L 15.941406 4.777344 C 16.234375 3.488281 15.402344 2.199219 14.117188 1.902344 L 10.84375 1.152344 C 10.40625 0.441406 9.632812 0.0078125 8.796875 0.00390625 Z M 2.398438 1.605469 L 8.796875 1.605469 C 9.234375 1.605469 9.59375 1.964844 9.59375 2.402344 L 9.59375 11.996094 C 9.59375 12.4375 9.234375 12.796875 8.796875 12.796875 L 2.398438 12.796875 C 1.960938 12.796875 1.597656 12.4375 1.597656 11.996094 L 1.597656 2.402344 C 1.597656 1.964844 1.960938 1.605469 2.398438 1.605469 Z M 11.191406 2.878906 L 13.765625 3.453125 C 14.199219 3.550781 14.464844 4 14.367188 4.429688 L 12.21875 13.769531 C 12.117188 14.195312 11.695312 14.464844 11.269531 14.371094 L 9.96875 14.070312 C 10.695312 13.660156 11.191406 12.890625 11.191406 11.996094 Z M 5.597656 3.203125 C 5.597656 3.203125 2.398438 5.792969 2.398438 7.25 C 2.398438 8.222656 3.1875 9.023438 4.148438 9.023438 C 4.480469 9.023438 4.8125 8.90625 5.097656 8.722656 L 4.523438 10.398438 L 6.671875 10.398438 L 6.097656 8.75 C 6.359375 8.917969 6.679688 9.023438 7.046875 9.023438 C 8.003906 9.023438 8.796875 8.222656 8.796875 7.25 C 8.796875 5.796875 5.597656 3.203125 5.597656 3.203125 Z M 5.597656 3.203125 "/>
</g>
</svg>
