
<svg xmlns="http://www.w3.org/2000/svg" xmlns:xlink="http://www.w3.org/1999/xlink" width="16px" height="16px" viewBox="0 0 16 16" version="1.1">
<g id="surface1">
<path style=" stroke:none;fill-rule:nonzero;fill:#ff6666;fill-opacity:1;" d="M 6.53125 3.695312 C 4.636719 3.691406 3.25 5.144531 2.363281 6.839844 C 1.210938 9.046875 -0.0078125 12.308594 2.34375 12.308594 C 4.816406 12.308594 6.871094 10.933594 8.324219 9.898438 C 8.851562 10.859375 9.621094 12.308594 10.691406 12.308594 C 11.765625 12.308594 12.742188 11.886719 13.21875 11.511719 L 15 9.03125 L 14.808594 8.808594 C 12.554688 9.925781 11.785156 10.691406 10.515625 8.28125 L 12.117188 6.8125 L 14.464844 3.90625 L 14.289062 3.691406 L 10.066406 7.390625 C 9.382812 5.976562 7.976562 3.695312 6.53125 3.695312 M 4.949219 5.523438 C 6.289062 5.523438 7.078125 7.5 7.867188 8.964844 C 6.703125 9.628906 5.183594 10.445312 4.066406 10.21875 C 2.746094 9.945312 2.40625 8.5625 2.941406 7.523438 C 3.414062 6.550781 3.992188 5.523438 4.945312 5.523438 "/>
</g>
</svg>
