
<svg xmlns="http://www.w3.org/2000/svg" xmlns:xlink="http://www.w3.org/1999/xlink" width="16px" height="16px" viewBox="0 0 16 16" version="1.1">
<g id="surface1">
<path style=" stroke:none;fill-rule:nonzero;fill:#ff6666;fill-opacity:1;" d="M 16 0 L 12.308594 1.230469 L 4.671875 9.597656 L 5.730469 10.269531 L 6.402344 11.328125 L 14.769531 3.691406 Z M 2.402344 8.671875 L 1.597656 9.480469 L 3.269531 11.152344 L 1.289062 13.671875 C 1.25 13.667969 1.214844 13.652344 1.171875 13.652344 C 0.523438 13.65625 0 14.179688 0 14.828125 C 0 15.472656 0.527344 16 1.171875 16 C 1.820312 16 2.347656 15.472656 2.347656 14.828125 C 2.347656 14.785156 2.332031 14.75 2.328125 14.710938 L 4.847656 12.730469 L 6.519531 14.402344 L 7.328125 13.597656 L 5.289062 10.710938 Z M 2.402344 8.671875 "/>
</g>
</svg>
