
<svg xmlns="http://www.w3.org/2000/svg" xmlns:xlink="http://www.w3.org/1999/xlink" width="16px" height="16px" viewBox="0 0 16 16" version="1.1">
<g id="surface1">
<path style=" stroke:none;fill-rule:nonzero;fill:#ff6666;fill-opacity:1;" d="M 5.128906 0 C 4.554688 0 4.554688 0.574219 4.554688 0.574219 C 4.554688 0.574219 4.554688 1.148438 5.128906 1.148438 L 5.703125 1.148438 L 5.722656 4.445312 C 5.722656 4.667969 5.660156 4.882812 5.539062 5.066406 C 5.390625 5.304688 5.273438 5.488281 5.0625 5.84375 C 4.757812 6.371094 4.378906 7.046875 3.960938 7.785156 C 3.117188 9.304688 2.273438 10.832031 1.441406 12.359375 C 1 13.171875 1 14.28125 1.671875 15.121094 L 1.699219 15.152344 C 2.183594 15.796875 2.984375 16 3.785156 16 L 12.214844 16 C 13.019531 16 13.820312 15.796875 14.304688 15.152344 L 14.328125 15.121094 C 15 14.28125 15.003906 13.171875 14.558594 12.359375 L 14.53125 12.3125 C 13.246094 9.691406 11.746094 7.578125 10.453125 4.984375 C 10.371094 4.824219 10.328125 4.648438 10.328125 4.46875 L 10.292969 1.148438 L 10.863281 1.148438 C 11.4375 1.148438 11.4375 0.574219 11.4375 0.574219 C 11.4375 0.574219 11.4375 0 10.863281 0 Z M 6.871094 1.203125 L 9.179688 1.203125 L 9.179688 4.765625 C 9.183594 4.941406 9.222656 5.113281 9.296875 5.269531 C 10.675781 8.089844 12.25 10.253906 13.527344 12.859375 C 13.535156 12.875 13.542969 12.890625 13.546875 12.90625 C 13.824219 13.410156 13.839844 13.921875 13.4375 14.417969 L 13.394531 14.46875 C 13.230469 14.695312 12.832031 14.855469 12.214844 14.855469 L 3.785156 14.855469 C 3.164062 14.855469 2.769531 14.695312 2.601562 14.46875 C 2.589844 14.449219 2.578125 14.433594 2.566406 14.417969 C 2.160156 13.921875 2.175781 13.410156 2.449219 12.90625 C 3.28125 11.382812 4.121094 9.863281 4.964844 8.34375 C 5.375 7.609375 5.753906 6.9375 6.054688 6.417969 C 6.359375 5.898438 6.621094 5.484375 6.648438 5.441406 C 6.792969 5.246094 6.871094 5.007812 6.871094 4.765625 Z M 5.953125 9.179688 L 3.40625 13.765625 L 12.585938 13.765625 L 10.042969 9.179688 Z M 5.953125 9.179688 "/>
</g>
</svg>
