
<svg xmlns="http://www.w3.org/2000/svg" xmlns:xlink="http://www.w3.org/1999/xlink" width="16px" height="16px" viewBox="0 0 16 16" version="1.1">
<g id="surface1">
<path style=" stroke:none;fill-rule:nonzero;fill:#ff6666;fill-opacity:1;" d="M 9.101562 2.148438 L 15.675781 8.847656 C 16.152344 9.332031 16.058594 9.914062 15.675781 10.304688 L 11.386719 14.703125 C 11.023438 15.078125 10.355469 15.109375 9.957031 14.738281 L 9.195312 13.960938 L 13.484375 9.558594 C 13.867188 9.171875 13.960938 8.589844 13.484375 8.101562 L 7.671875 2.179688 Z M 9.101562 2.148438 "/>
<path style=" stroke:none;fill-rule:nonzero;fill:#ff6666;fill-opacity:1;" d="M 5.75 1 L 12.328125 7.699219 C 12.804688 8.183594 12.710938 8.765625 12.328125 9.15625 L 8.039062 13.554688 C 7.671875 13.929688 7.007812 13.960938 6.609375 13.589844 L 0 6.855469 L 0.160156 1.746094 C 0.160156 1.566406 0.59375 1.160156 0.761719 1.160156 Z M 2.640625 2.667969 C 2.085938 2.667969 1.621094 3.109375 1.621094 3.671875 C 1.621094 4.234375 2.085938 4.707031 2.640625 4.707031 C 3.191406 4.707031 3.625 4.234375 3.625 3.671875 C 3.625 3.109375 3.191406 2.667969 2.640625 2.667969 Z M 2.640625 2.667969 "/>
</g>
</svg>
