
<svg xmlns="http://www.w3.org/2000/svg" xmlns:xlink="http://www.w3.org/1999/xlink" width="16px" height="16px" viewBox="0 0 16 16" version="1.1">
<g id="surface1">
<path style=" stroke:none;fill-rule:nonzero;fill:#ff6666;fill-opacity:1;" d="M 7.191406 2.613281 C 3.152344 2.613281 1 7.738281 1 9.507812 C 1 11.769531 2.078125 13.386719 4.5 13.386719 L 5.308594 13.386719 C 7.085938 13.386719 9.242188 11.230469 9.886719 10.152344 C 10.152344 10.691406 10.691406 13.386719 12.847656 13.386719 C 13.769531 13.386719 15 12.308594 15 12.308594 C 12.308594 13.136719 11.5 8.269531 11.5 8.269531 L 14.730469 3.152344 L 12.039062 3.152344 L 10.691406 5.441406 C 10.492188 4.910156 9.613281 2.613281 7.191406 2.613281 Z M 7.109375 3.972656 C 7.933594 4.0625 8.671875 5.105469 9.078125 7.730469 C 8.390625 9.078125 6.09375 12.050781 4.230469 12.039062 C 1.402344 12.019531 4.636719 3.699219 7.109375 3.972656 Z M 7.109375 3.972656 "/>
</g>
</svg>
