
<svg xmlns="http://www.w3.org/2000/svg" xmlns:xlink="http://www.w3.org/1999/xlink" width="16px" height="16px" viewBox="0 0 16 16" version="1.1">
<g id="surface1">
<path style=" stroke:none;fill-rule:nonzero;fill:#ff6666;fill-opacity:1;" d="M 13.367188 0.5 C 13 0.5 12.285156 1.375 12.015625 1.511719 C 11.746094 1.648438 9.625 3.214844 9.425781 3.488281 C 9.222656 3.765625 8.953125 3.878906 8.664062 3.855469 C 8.375 3.835938 7.457031 3.824219 7.140625 4.007812 C 6.828125 4.191406 5.402344 5.695312 5.042969 5.878906 C 4.6875 6.066406 4.21875 6.160156 3.996094 6.183594 C 3.773438 6.203125 3.03125 7.054688 2.832031 7.214844 C 2.632812 7.375 1.042969 8.082031 0.820312 8.21875 C 0.59375 8.359375 2.449219 10.289062 2.71875 10.335938 C 2.984375 10.382812 2.023438 10.992188 2.015625 11.429688 C 2.011719 11.867188 2.476562 13.164062 5.183594 14.691406 C 7.527344 16.015625 9.996094 15.378906 10.929688 15.109375 C 11.300781 15.003906 11.164062 13.777344 11.234375 13.125 C 11.277344 12.710938 11.433594 9.238281 12.015625 8.316406 C 12.597656 7.398438 14.257812 6.292969 14.839844 6.179688 C 15.417969 6.0625 15.308594 5.835938 15.308594 5.628906 C 15.308594 5.421875 15.21875 4.960938 15.0625 4.890625 C 14.90625 4.824219 14.292969 5.238281 14.09375 5.28125 C 13.890625 5.328125 12.933594 5.398438 12.796875 5.167969 C 12.664062 4.9375 13.882812 2.59375 14.039062 2.316406 C 14.195312 2.039062 14.261719 1.671875 13.96875 1.28125 C 13.679688 0.890625 13.480469 0.5 13.367188 0.5 Z M 8.273438 5.339844 C 8.425781 5.335938 8.53125 5.351562 8.53125 5.351562 C 8.613281 5.542969 8.21875 6.144531 7.851562 6.226562 C 7.484375 6.304688 6.636719 7.507812 6.609375 7.234375 C 6.578125 6.960938 6.945312 6.0625 7.371094 5.652344 C 7.636719 5.394531 8.023438 5.34375 8.273438 5.339844 Z M 8.273438 5.339844 "/>
</g>
</svg>
