
<svg xmlns="http://www.w3.org/2000/svg" xmlns:xlink="http://www.w3.org/1999/xlink" width="16px" height="16px" viewBox="0 0 16 16" version="1.1">
<g id="surface1">
<path style=" stroke:none;fill-rule:evenodd;fill:#ff6666;fill-opacity:1;" d="M 9.460938 8.882812 C 9.460938 9.902344 9.488281 10.757812 8.96875 11.664062 C 8.554688 12.402344 7.890625 12.859375 7.152344 12.859375 C 6.144531 12.859375 5.554688 12.089844 5.554688 10.953125 C 5.554688 8.71875 7.5625 8.3125 9.460938 8.3125 Z M 12.113281 15.28125 C 11.9375 15.4375 11.6875 15.445312 11.488281 15.339844 C 10.617188 14.617188 10.460938 14.28125 9.984375 13.59375 C 8.542969 15.058594 7.519531 15.5 5.652344 15.5 C 3.441406 15.5 1.71875 14.136719 1.71875 11.410156 C 1.71875 9.277344 2.875 7.828125 4.523438 7.117188 C 5.945312 6.492188 7.9375 6.382812 9.460938 6.210938 L 9.460938 5.867188 C 9.460938 5.246094 9.511719 4.507812 9.144531 3.964844 C 8.824219 3.484375 8.210938 3.285156 7.667969 3.285156 C 6.664062 3.285156 5.773438 3.796875 5.554688 4.859375 C 5.511719 5.097656 5.339844 5.332031 5.101562 5.34375 L 2.554688 5.066406 C 2.339844 5.019531 2.097656 4.847656 2.160156 4.519531 C 2.746094 1.433594 5.535156 0.5 8.035156 0.5 C 9.316406 0.5 10.984375 0.839844 11.992188 1.808594 C 13.273438 3 13.148438 4.589844 13.148438 6.324219 L 13.148438 10.414062 C 13.148438 11.644531 13.660156 12.183594 14.140625 12.847656 C 14.308594 13.085938 14.347656 13.367188 14.132812 13.542969 C 13.59375 13.992188 12.640625 14.820312 12.117188 15.285156 Z M 12.113281 15.28125 "/>
</g>
</svg>
