
<svg xmlns="http://www.w3.org/2000/svg" xmlns:xlink="http://www.w3.org/1999/xlink" width="16px" height="16px" viewBox="0 0 16 16" version="1.1">
<g id="surface1">
<path style=" stroke:none;fill-rule:evenodd;fill:#ff6666;fill-opacity:1;" d="M 9.742188 8.878906 C 9.742188 9.902344 9.765625 10.757812 9.25 11.664062 C 8.832031 12.402344 8.167969 12.859375 7.429688 12.859375 C 6.421875 12.859375 5.832031 12.089844 5.832031 10.953125 C 5.832031 8.71875 7.839844 8.3125 9.742188 8.3125 Z M 12.390625 15.28125 C 12.21875 15.4375 11.964844 15.445312 11.769531 15.339844 C 10.898438 14.617188 10.742188 14.28125 10.265625 13.59375 C 8.820312 15.058594 7.800781 15.5 5.933594 15.5 C 3.71875 15.5 2 14.136719 2 11.410156 C 2 9.277344 3.15625 7.828125 4.800781 7.121094 C 6.226562 6.496094 8.21875 6.382812 9.742188 6.210938 L 9.742188 5.871094 C 9.742188 5.246094 9.789062 4.503906 9.421875 3.964844 C 9.101562 3.484375 8.488281 3.285156 7.949219 3.285156 C 6.945312 3.285156 6.054688 3.796875 5.835938 4.859375 C 5.789062 5.097656 5.617188 5.332031 5.378906 5.34375 L 2.832031 5.066406 C 2.617188 5.019531 2.378906 4.847656 2.441406 4.519531 C 3.027344 1.433594 5.816406 0.5 8.316406 0.5 C 9.59375 0.5 11.265625 0.839844 12.273438 1.808594 C 13.550781 3 13.429688 4.589844 13.429688 6.324219 L 13.429688 10.414062 C 13.429688 11.644531 13.941406 12.183594 14.421875 12.847656 C 14.589844 13.085938 14.625 13.367188 14.410156 13.542969 C 13.875 13.992188 12.921875 14.820312 12.394531 15.285156 Z M 12.390625 15.28125 "/>
</g>
</svg>
