
<svg xmlns="http://www.w3.org/2000/svg" xmlns:xlink="http://www.w3.org/1999/xlink" width="16px" height="16px" viewBox="0 0 16 16" version="1.1">
<g id="surface1">
<path style=" stroke:none;fill-rule:evenodd;fill:#ff6666;fill-opacity:1;" d="M 1.898438 9.308594 C 2.074219 8.960938 2.289062 8.621094 2.535156 8.28125 C 2.269531 7.992188 2.027344 7.691406 1.8125 7.371094 C 1.40625 7.679688 1.046875 8.046875 0.722656 8.460938 C 1.105469 8.789062 1.496094 9.074219 1.898438 9.308594 Z M 0.59375 9.132812 C 0.683594 9.796875 0.875 10.429688 1.148438 11.011719 C 1.273438 10.609375 1.433594 10.207031 1.644531 9.804688 C 1.300781 9.613281 0.949219 9.386719 0.59375 9.132812 Z M 0.5 7.726562 C 0.523438 7.03125 0.640625 6.359375 0.839844 5.722656 C 1.03125 6.125 1.238281 6.515625 1.484375 6.875 C 1.132812 7.132812 0.808594 7.421875 0.5 7.726562 Z M 4.785156 2.664062 C 4.660156 3.019531 4.574219 3.378906 4.515625 3.738281 C 4.125 3.71875 3.746094 3.722656 3.378906 3.769531 C 3.328125 3.3125 3.34375 2.847656 3.410156 2.351562 C 3.890625 2.425781 4.351562 2.523438 4.785156 2.664062 Z M 4.011719 1.65625 C 4.476562 1.351562 4.984375 1.109375 5.519531 0.925781 C 5.332031 1.265625 5.171875 1.601562 5.042969 1.941406 C 4.675781 1.816406 4.335938 1.722656 4.011719 1.65625 Z M 2.675781 2.71875 C 2.25 3.148438 1.878906 3.628906 1.570312 4.148438 C 1.929688 4.019531 2.300781 3.921875 2.683594 3.867188 C 2.636719 3.472656 2.640625 3.09375 2.675781 2.71875 Z M 2.140625 10.089844 C 1.890625 10.546875 1.683594 11.054688 1.503906 11.59375 C 2.0625 11.742188 2.605469 11.851562 3.140625 11.890625 C 3.144531 11.453125 3.15625 11.027344 3.183594 10.605469 C 2.839844 10.460938 2.492188 10.292969 2.140625 10.089844 Z M 6.726562 2.578125 L 7.445312 1.726562 C 7.101562 1.449219 6.722656 1.183594 6.308594 0.933594 C 6.078125 1.363281 5.878906 1.785156 5.730469 2.1875 C 6.039062 2.285156 6.378906 2.421875 6.726562 2.578125 Z M 3.699219 10.789062 C 3.972656 11.222656 4.316406 11.609375 4.710938 11.941406 C 4.359375 11.972656 4.007812 11.972656 3.652344 11.945312 C 3.640625 11.527344 3.65625 11.144531 3.699219 10.789062 Z M 3.230469 13.75 C 2.65625 13.304688 2.175781 12.761719 1.777344 12.152344 C 2.195312 12.261719 2.648438 12.335938 3.140625 12.355469 C 3.164062 12.816406 3.191406 13.277344 3.230469 13.75 Z M 3.792969 14.207031 C 4.988281 15.027344 6.4375 15.503906 7.996094 15.503906 C 12.136719 15.503906 15.5 12.140625 15.5 8 C 15.5 3.859375 12.136719 0.496094 7.996094 0.496094 C 7.71875 0.496094 7.445312 0.511719 7.171875 0.535156 C 7.753906 0.964844 8.226562 1.371094 8.589844 1.746094 L 7.457031 2.902344 C 7.632812 2.882812 7.8125 2.871094 7.996094 2.871094 C 10.824219 2.871094 13.125 5.171875 13.125 8 C 13.125 10.828125 10.824219 13.128906 7.996094 13.128906 C 7.003906 13.128906 6.074219 12.84375 5.292969 12.34375 C 4.726562 12.402344 4.175781 12.425781 3.664062 12.386719 C 3.664062 12.9375 3.71875 13.550781 3.792969 14.207031 Z M 2.753906 4.554688 C 2.277344 4.621094 1.742188 4.761719 1.171875 4.945312 C 1.386719 5.492188 1.648438 6.011719 1.976562 6.496094 C 2.300781 6.25 2.652344 6.023438 3.023438 5.8125 C 2.894531 5.382812 2.796875 4.964844 2.753906 4.554688 Z M 3.605469 5.371094 C 3.816406 5.011719 4.078125 4.683594 4.375 4.394531 C 4.082031 4.382812 3.769531 4.394531 3.433594 4.4375 C 3.46875 4.742188 3.527344 5.050781 3.605469 5.371094 Z M 3.113281 6.433594 C 2.976562 6.859375 2.894531 7.3125 2.878906 7.777344 C 2.660156 7.519531 2.460938 7.257812 2.273438 6.988281 C 2.539062 6.78125 2.820312 6.601562 3.113281 6.433594 Z M 6.257812 3.199219 C 5.898438 3.308594 5.566406 3.476562 5.261719 3.679688 C 5.3125 3.410156 5.382812 3.140625 5.46875 2.867188 C 5.742188 2.960938 6.003906 3.070312 6.257812 3.199219 Z M 3.300781 10.0625 C 3.117188 9.640625 2.992188 9.191406 2.925781 8.722656 C 2.730469 8.996094 2.546875 9.289062 2.378906 9.601562 C 2.679688 9.78125 2.988281 9.933594 3.300781 10.0625 Z M 3.300781 10.0625 "/>
</g>
</svg>
