
<svg xmlns="http://www.w3.org/2000/svg" xmlns:xlink="http://www.w3.org/1999/xlink" width="16px" height="16px" viewBox="0 0 16 16" version="1.1">
<g id="surface1">
<path style=" stroke:none;fill-rule:nonzero;fill:#ff6666;fill-opacity:1;" d="M 7.5 1 C 6.988281 1 6.507812 1.21875 6.175781 1.601562 C 5.300781 1.40625 4.503906 1.996094 4.308594 2.796875 C 4.121094 2.71875 3.921875 2.679688 3.714844 2.675781 C 2.835938 2.675781 2.121094 3.398438 2.121094 4.28125 C 2.121094 4.320312 2.128906 4.351562 2.128906 4.390625 C 1.484375 4.601562 1.019531 5.210938 1.019531 5.914062 C 1.019531 6.695312 1.585938 7.347656 2.320312 7.488281 C 2.214844 7.695312 2.144531 7.921875 2.121094 8.15625 C 1.453125 8.359375 0.996094 8.976562 1 9.675781 C 1 10.601562 1.777344 11.367188 2.722656 11.28125 C 2.9375 11.921875 3.535156 12.375 4.226562 12.375 C 4.707031 12.375 5.144531 12.160156 5.449219 11.792969 C 5.582031 11.820312 5.707031 11.835938 5.832031 11.835938 C 6.1875 11.835938 6.539062 11.746094 6.851562 11.574219 C 7.300781 11.722656 7.792969 11.675781 8.199219 11.4375 C 8.433594 11.632812 8.730469 11.738281 9.039062 11.738281 C 9.429688 11.738281 9.796875 11.566406 10.042969 11.261719 C 10.535156 11.398438 11.066406 11.328125 11.519531 11.082031 C 11.8125 11.550781 12.324219 11.835938 12.875 11.835938 C 13.757812 11.835938 14.472656 11.117188 14.472656 10.234375 C 14.472656 9.792969 14.289062 9.371094 13.96875 9.066406 C 14.582031 8.835938 15 8.238281 15 7.5625 C 15 6.835938 14.507812 6.203125 13.804688 6.023438 C 13.660156 5.484375 13.246094 5.0625 12.710938 4.902344 C 12.796875 4.707031 12.839844 4.5 12.839844 4.289062 C 12.839844 3.40625 12.125 2.6875 11.246094 2.6875 C 10.96875 2.683594 10.699219 2.753906 10.460938 2.886719 C 10.183594 2.40625 9.675781 2.109375 9.121094 2.101562 C 8.859375 1.4375 8.214844 1 7.496094 1 Z M 8.144531 12.101562 C 7.898438 12.191406 7.636719 12.238281 7.371094 12.238281 C 7.214844 12.238281 7.058594 12.222656 6.90625 12.191406 C 6.867188 12.210938 6.835938 12.222656 6.796875 12.238281 C 6.820312 12.457031 6.832031 12.699219 6.832031 12.957031 C 6.832031 13.710938 6.371094 13.816406 5.601562 13.898438 C 5.199219 13.941406 4.847656 13.976562 4.683594 14.253906 C 4.589844 14.410156 4.585938 14.597656 4.671875 14.816406 C 4.71875 14.929688 4.828125 15 4.945312 15 L 11.042969 15 C 11.207031 15 11.335938 14.871094 11.335938 14.707031 C 11.335938 14.15625 10.769531 14.121094 10.433594 14.097656 C 9.839844 14.058594 9.472656 13.992188 9.457031 13.242188 C 9.453125 13.082031 9.472656 12.667969 9.496094 12.257812 C 9.34375 12.296875 9.195312 12.328125 9.039062 12.328125 C 8.726562 12.328125 8.421875 12.25 8.144531 12.101562 Z M 8.144531 12.101562 "/>
</g>
</svg>
