
<svg xmlns="http://www.w3.org/2000/svg" xmlns:xlink="http://www.w3.org/1999/xlink" width="16px" height="16px" viewBox="0 0 16 16" version="1.1">
<g id="surface1">
<path style=" stroke:none;fill-rule:evenodd;fill:#ff6666;fill-opacity:1;" d="M 13.988281 6.253906 L 13.988281 9.632812 C 13.988281 10.113281 13.609375 10.5 13.136719 10.5 C 12.667969 10.5 12.285156 10.109375 12.285156 9.632812 L 12.285156 6.253906 C 12.285156 5.773438 12.664062 5.386719 13.136719 5.386719 C 13.609375 5.386719 13.988281 5.773438 13.988281 6.253906 Z M 2.859375 5.386719 C 2.390625 5.386719 2.011719 5.773438 2.011719 6.253906 L 2.011719 9.632812 C 2.011719 10.109375 2.390625 10.5 2.859375 10.5 C 3.335938 10.5 3.714844 10.109375 3.714844 9.632812 L 3.714844 6.253906 C 3.714844 6.023438 3.628906 5.804688 3.46875 5.640625 C 3.308594 5.480469 3.089844 5.386719 2.859375 5.386719 Z M 4.226562 11.589844 C 4.226562 11.957031 4.523438 12.253906 4.890625 12.253906 L 5.652344 12.253906 L 5.652344 14.136719 C 5.652344 14.613281 6.03125 15 6.503906 15 C 6.972656 15 7.355469 14.613281 7.355469 14.136719 L 7.355469 12.253906 L 8.679688 12.253906 L 8.679688 14.136719 C 8.679688 14.613281 9.0625 15 9.53125 15 C 10.003906 15 10.382812 14.613281 10.382812 14.136719 L 10.382812 12.253906 L 11.144531 12.253906 C 11.320312 12.253906 11.488281 12.183594 11.613281 12.058594 C 11.738281 11.933594 11.808594 11.765625 11.808594 11.589844 L 11.808594 5.410156 L 4.226562 5.410156 Z M 11.789062 4.863281 L 4.210938 4.863281 C 4.308594 3.714844 5.089844 2.730469 6.203125 2.214844 L 5.503906 1.195312 C 5.460938 1.136719 5.472656 1.054688 5.523438 1.019531 C 5.578125 0.984375 5.65625 1 5.699219 1.058594 L 6.425781 2.117188 C 6.929688 1.921875 7.460938 1.820312 8 1.820312 C 8.539062 1.820312 9.070312 1.921875 9.574219 2.117188 L 10.300781 1.0625 C 10.34375 1 10.421875 0.984375 10.476562 1.019531 C 10.527344 1.054688 10.539062 1.136719 10.496094 1.195312 L 9.796875 2.214844 C 10.910156 2.730469 11.691406 3.714844 11.789062 4.863281 Z M 6.820312 3.394531 C 6.820312 3.28125 6.777344 3.175781 6.699219 3.097656 C 6.617188 3.019531 6.511719 2.976562 6.402344 2.976562 C 6.171875 2.976562 5.984375 3.160156 5.980469 3.394531 C 5.980469 3.625 6.167969 3.8125 6.402344 3.8125 C 6.632812 3.8125 6.820312 3.625 6.820312 3.394531 Z M 10.070312 3.394531 C 10.070312 3.28125 10.027344 3.175781 9.945312 3.097656 C 9.867188 3.019531 9.761719 2.976562 9.652344 2.976562 C 9.480469 2.976562 9.328125 3.078125 9.261719 3.234375 C 9.199219 3.394531 9.234375 3.574219 9.355469 3.691406 C 9.476562 3.8125 9.65625 3.847656 9.8125 3.78125 C 9.96875 3.714844 10.070312 3.5625 10.070312 3.394531 Z M 10.070312 3.394531 "/>
</g>
</svg>
