
<svg xmlns="http://www.w3.org/2000/svg" xmlns:xlink="http://www.w3.org/1999/xlink" width="16px" height="16px" viewBox="0 0 16 16" version="1.1">
<g id="surface1">
<path style=" stroke:none;fill-rule:nonzero;fill:#ff6666;fill-opacity:1;" d="M 11.898438 4.933594 C 11.667969 4.953125 11.492188 5.148438 11.496094 5.378906 C 11.503906 5.617188 11.699219 5.808594 11.941406 5.808594 L 13.253906 5.808594 C 13.742188 5.808594 14.128906 6.195312 14.128906 6.683594 C 14.128906 7.164062 13.753906 7.542969 13.28125 7.558594 L 11.941406 7.558594 C 11.820312 7.554688 11.710938 7.605469 11.625 7.6875 C 11.542969 7.769531 11.496094 7.886719 11.496094 8.003906 C 11.496094 8.121094 11.542969 8.234375 11.628906 8.316406 C 11.710938 8.398438 11.820312 8.445312 11.941406 8.441406 L 13.253906 8.441406 C 13.742188 8.441406 14.128906 8.828125 14.128906 9.316406 C 14.128906 9.796875 13.753906 10.175781 13.277344 10.191406 L 11.941406 10.191406 C 11.820312 10.1875 11.707031 10.234375 11.621094 10.320312 C 11.539062 10.402344 11.492188 10.515625 11.496094 10.636719 L 11.496094 10.675781 C 11.519531 10.902344 11.710938 11.070312 11.941406 11.066406 L 13.25 11.066406 C 13.28125 11.066406 13.3125 11.066406 13.339844 11.058594 C 14.261719 11.015625 15 10.246094 15 9.316406 C 15 8.796875 14.769531 8.324219 14.40625 8.003906 C 14.773438 7.683594 15 7.214844 15 6.691406 C 15 5.742188 14.230469 4.960938 13.285156 4.941406 L 11.898438 4.941406 M 6.652344 6.25 C 6.421875 6.265625 6.242188 6.460938 6.246094 6.691406 L 6.246094 7.628906 C 5.496094 7.828125 4.933594 8.511719 4.933594 9.320312 C 4.929688 9.546875 5.097656 9.738281 5.324219 9.765625 L 5.367188 9.765625 C 5.484375 9.765625 5.597656 9.71875 5.679688 9.636719 C 5.765625 9.554688 5.8125 9.4375 5.808594 9.320312 C 5.808594 8.847656 6.167969 8.476562 6.628906 8.449219 L 6.734375 8.449219 C 7.199219 8.480469 7.558594 8.847656 7.558594 9.320312 C 7.558594 9.558594 7.753906 9.753906 7.996094 9.753906 C 8.238281 9.753906 8.433594 9.558594 8.433594 9.320312 C 8.433594 8.507812 7.871094 7.828125 7.121094 7.628906 L 7.121094 6.691406 C 7.125 6.570312 7.074219 6.453125 6.984375 6.367188 C 6.898438 6.285156 6.777344 6.238281 6.652344 6.25 M 1.4375 6.257812 C 1.191406 6.257812 1 6.449219 1 6.691406 C 1 6.871094 1.105469 7.03125 1.261719 7.097656 C 1.097656 7.363281 1 7.671875 1 8.003906 C 1 8.96875 1.789062 9.753906 2.75 9.753906 C 3.710938 9.753906 4.5 8.96875 4.5 8.003906 C 4.5 7.671875 4.398438 7.363281 4.238281 7.097656 C 4.394531 7.027344 4.5 6.871094 4.5 6.691406 C 4.5 6.449219 4.304688 6.257812 4.0625 6.257812 M 10.1875 6.257812 C 9.941406 6.257812 9.746094 6.449219 9.746094 6.691406 L 9.746094 9.320312 C 9.746094 9.558594 9.941406 9.753906 10.1875 9.753906 C 10.429688 9.753906 10.625 9.558594 10.625 9.320312 L 10.625 6.691406 C 10.625 6.449219 10.429688 6.257812 10.1875 6.257812 Z M 2.75 7.132812 C 3.234375 7.132812 3.625 7.515625 3.625 8.003906 C 3.625 8.492188 3.234375 8.878906 2.75 8.878906 C 2.261719 8.878906 1.875 8.492188 1.875 8.003906 C 1.875 7.515625 2.261719 7.132812 2.75 7.132812 Z M 2.75 7.132812 "/>
</g>
</svg>
