
<svg xmlns="http://www.w3.org/2000/svg" xmlns:xlink="http://www.w3.org/1999/xlink" width="16px" height="16px" viewBox="0 0 16 16" version="1.1">
<g id="surface1">
<path style=" stroke:none;fill-rule:nonzero;fill:#ff6666;fill-opacity:1;" d="M 1.402344 3.003906 C 0.867188 3.105469 -0.171875 4.898438 0.0234375 5.402344 C 0.265625 6.027344 0.988281 6.636719 1.890625 7.199219 C 1.023438 7.777344 0.503906 8.777344 0.503906 9.851562 C 0.503906 11.589844 1.851562 13 3.515625 13 C 5.175781 13 6.523438 11.589844 6.523438 9.851562 C 6.527344 9.652344 6.507812 9.453125 6.472656 9.257812 C 6.675781 9.328125 6.949219 9.433594 7.113281 9.484375 C 7.464844 9.59375 7.695312 8.367188 7.695312 8.367188 C 7.695312 8.367188 3.292969 5.125 1.59375 3.070312 C 1.542969 3.007812 1.480469 2.988281 1.402344 3.003906 Z M 14.597656 3.003906 C 14.519531 2.988281 14.457031 3.007812 14.40625 3.070312 C 12.707031 5.125 8.304688 8.367188 8.304688 8.367188 C 8.304688 8.367188 8.535156 9.59375 8.886719 9.484375 C 9.050781 9.433594 9.324219 9.328125 9.527344 9.257812 C 9.492188 9.453125 9.472656 9.652344 9.476562 9.851562 C 9.476562 11.589844 10.824219 13 12.484375 13 C 14.148438 13 15.496094 11.589844 15.496094 9.851562 C 15.496094 8.777344 14.976562 7.777344 14.109375 7.199219 C 15.011719 6.636719 15.734375 6.027344 15.976562 5.402344 C 16.171875 4.898438 15.132812 3.105469 14.597656 3.003906 Z M 13.765625 7.695312 C 13.890625 7.679688 14.050781 7.765625 14.265625 7.992188 C 15.242188 9.015625 15.242188 10.679688 14.265625 11.703125 C 13.285156 12.730469 11.691406 12.730469 10.714844 11.703125 C 9.734375 10.679688 11.507812 10.875 12.484375 9.851562 C 13.25 9.050781 13.308594 7.738281 13.765625 7.695312 Z M 2.242188 7.695312 C 2.695312 7.742188 2.75 9.050781 3.515625 9.851562 C 4.492188 10.875 6.273438 10.6875 5.292969 11.710938 C 4.3125 12.734375 2.71875 12.734375 1.742188 11.710938 C 0.761719 10.6875 0.761719 9.019531 1.742188 7.996094 C 1.953125 7.773438 2.113281 7.683594 2.242188 7.695312 Z M 2.242188 7.695312 "/>
</g>
</svg>
