
<svg xmlns="http://www.w3.org/2000/svg" xmlns:xlink="http://www.w3.org/1999/xlink" width="16px" height="16px" viewBox="0 0 16 16" version="1.1">
<g id="surface1">
<path style=" stroke:none;fill-rule:nonzero;fill:#ff6666;fill-opacity:1;" d="M 2.554688 6.855469 C 2.203125 6.75 1 7.617188 1 7.617188 C 1.636719 5.304688 5.667969 3.046875 5.667969 3.046875 C 5.28125 2.90625 3.335938 3.046875 3.335938 3.046875 C 6.203125 0.3125 10.339844 1.523438 10.339844 1.523438 C 10.445312 0.925781 11.894531 0 11.894531 0 C 11.714844 0.175781 11.894531 1.140625 11.894531 1.140625 C 12.070312 0.828125 12.671875 0.761719 12.671875 0.761719 C 12.355469 1.496094 12.375 2.976562 12.375 2.976562 C 13.296875 3.890625 14.324219 7.046875 14.324219 7.046875 L 14.714844 7.605469 C 15.210938 8.308594 15.007812 9.410156 14.515625 9.671875 C 13.140625 10.476562 12.515625 8.871094 12.515625 8.871094 C 10.992188 8.695312 9.558594 6.855469 9.558594 6.855469 C 7.625 7.925781 9.8125 11.320312 10.703125 12.460938 C 11.839844 13.921875 10.339844 15.992188 10.339844 15.992188 C 10.339844 15.992188 6.449219 16.261719 3.53125 13.328125 C 2.097656 11.824219 1 10.140625 2.554688 6.855469 Z M 2.554688 6.855469 "/>
</g>
</svg>
