
<svg xmlns="http://www.w3.org/2000/svg" xmlns:xlink="http://www.w3.org/1999/xlink" width="16px" height="16px" viewBox="0 0 16 16" version="1.1">
<g id="surface1">
<path style=" stroke:none;fill-rule:evenodd;fill:#ff6666;fill-opacity:1;" d="M 6.421875 5.308594 C 5.738281 5.402344 5.648438 7.886719 5.152344 8.367188 C 4.652344 8.84375 2.207031 8.824219 2.085938 9.507812 C 1.964844 10.1875 4.261719 11.050781 4.5625 11.675781 C 4.863281 12.300781 4.089844 14.636719 4.695312 14.964844 C 5.308594 15.289062 6.832031 13.347656 7.515625 13.253906 C 8.199219 13.15625 10.175781 14.621094 10.671875 14.140625 C 11.171875 13.660156 9.800781 11.609375 9.921875 10.925781 C 10.046875 10.238281 12.039062 8.808594 11.738281 8.1875 C 11.4375 7.5625 9.078125 8.242188 8.46875 7.910156 C 7.859375 7.585938 7.109375 5.214844 6.421875 5.3125 M 12.320312 1.011719 C 11.96875 1.109375 11.378906 1.882812 11.078125 1.941406 C 10.738281 2.007812 9.714844 1.332031 9.476562 1.582031 C 9.242188 1.835938 9.988281 2.820312 9.949219 3.164062 C 9.902344 3.503906 8.925781 4.277344 9.09375 4.578125 C 9.261719 4.878906 10.445312 4.476562 10.757812 4.621094 C 11.074219 4.765625 11.507812 5.90625 11.847656 5.84375 C 12.1875 5.777344 12.164062 4.554688 12.402344 4.304688 C 12.640625 4.050781 13.878906 3.992188 13.917969 3.648438 C 13.960938 3.308594 12.785156 2.960938 12.613281 2.65625 C 12.445312 2.355469 12.761719 1.15625 12.445312 1.011719 C 12.40625 0.992188 12.367188 1 12.316406 1.011719 "/>
</g>
</svg>
