
<svg xmlns="http://www.w3.org/2000/svg" xmlns:xlink="http://www.w3.org/1999/xlink" width="16px" height="16px" viewBox="0 0 16 16" version="1.1">
<g id="surface1">
<path style=" stroke:none;fill-rule:nonzero;fill:#ff6666;fill-opacity:1;" d="M 7.5 2 L 7.5 2.5 L 8.5 2.5 L 8.5 2 Z M 7.5 3 L 7.5 3.5 L 8.5 3.5 L 8.5 3 Z M 7.5 4 L 7.5 7 L 4 7 C 3.96875 7 3.933594 7.003906 3.898438 7.007812 C 2.359375 7.054688 1.019531 8.101562 0.617188 9.59375 C 0.210938 11.121094 0.878906 12.742188 2.25 13.53125 C 3.609375 14.316406 5.324219 14.09375 6.445312 13 L 9.554688 13 C 10.675781 14.09375 12.390625 14.316406 13.75 13.53125 C 15.121094 12.742188 15.789062 11.121094 15.382812 9.59375 C 14.980469 8.097656 13.636719 7.050781 12.09375 7.007812 C 12.0625 7.003906 12.03125 7 12 7 L 8.5 7 L 8.5 4 Z M 4 8 L 12 8 C 13.132812 8 14.121094 8.757812 14.414062 9.855469 C 14.710938 10.949219 14.230469 12.101562 13.25 12.667969 C 12.320312 13.203125 11.175781 13.078125 10.371094 12.386719 C 10.242188 12.257812 10.113281 11.996094 9.878906 12 L 6.121094 12 C 5.886719 11.996094 5.726562 12.269531 5.628906 12.386719 C 4.828125 13.078125 3.679688 13.203125 2.75 12.667969 C 1.769531 12.101562 1.292969 10.949219 1.585938 9.855469 C 1.878906 8.757812 2.867188 8 4 8 Z M 3.5 9 L 3.5 10 L 2.5 10 L 2.5 11 L 3.5 11 L 3.5 12 L 4.5 12 L 4.5 11 L 5.5 11 L 5.5 10 L 4.5 10 L 4.5 9 Z M 12 9 C 11.722656 9 11.5 9.226562 11.5 9.5 C 11.5 9.777344 11.722656 10 12 10 C 12.277344 10 12.5 9.777344 12.5 9.5 C 12.5 9.226562 12.277344 9 12 9 Z M 11 10 C 10.722656 10 10.5 10.226562 10.5 10.5 C 10.5 10.777344 10.722656 11 11 11 C 11.277344 11 11.5 10.777344 11.5 10.5 C 11.5 10.226562 11.277344 10 11 10 Z M 13 10 C 12.722656 10 12.5 10.226562 12.5 10.5 C 12.5 10.777344 12.722656 11 13 11 C 13.277344 11 13.5 10.777344 13.5 10.5 C 13.5 10.226562 13.277344 10 13 10 Z M 12 11 C 11.722656 11 11.5 11.226562 11.5 11.5 C 11.5 11.777344 11.722656 12 12 12 C 12.277344 12 12.5 11.777344 12.5 11.5 C 12.5 11.226562 12.277344 11 12 11 Z M 12 11 "/>
</g>
</svg>
