
<svg xmlns="http://www.w3.org/2000/svg" xmlns:xlink="http://www.w3.org/1999/xlink" width="16px" height="16px" viewBox="0 0 16 16" version="1.1">
<g id="surface1">
<path style=" stroke:none;fill-rule:nonzero;fill:#ff6666;fill-opacity:1;" d="M 1.640625 12.664062 L 1.636719 12.664062 C 1.578125 12.632812 1.519531 12.59375 1.464844 12.550781 C 1.4375 12.53125 1.410156 12.515625 1.390625 12.492188 C 1.351562 12.46875 1.320312 12.4375 1.289062 12.40625 C 1.273438 12.394531 1.261719 12.382812 1.25 12.367188 C 0.910156 12.03125 0.714844 11.574219 0.714844 11.089844 L 0.714844 4.910156 C 0.714844 4.257812 1.066406 3.660156 1.636719 3.335938 L 7.074219 0.242188 C 7.371094 0.0742188 7.703125 -0.0078125 8.042969 0 C 8.351562 0.0078125 8.65625 0.0898438 8.925781 0.242188 L 14.363281 3.335938 C 14.933594 3.65625 15.285156 4.257812 15.285156 4.910156 L 15.285156 11.089844 C 15.285156 11.738281 14.933594 12.339844 14.363281 12.664062 L 8.925781 15.757812 C 8.351562 16.082031 7.648438 16.082031 7.074219 15.757812 Z M 1.640625 12.664062 "/>
</g>
</svg>
