
<svg xmlns="http://www.w3.org/2000/svg" xmlns:xlink="http://www.w3.org/1999/xlink" width="16px" height="16px" viewBox="0 0 16 16" version="1.1">
<g id="surface1">
<path style=" stroke:none;fill-rule:nonzero;fill:#ff6666;fill-opacity:1;" d="M 7.054688 15.941406 C 7.007812 15.910156 6.933594 15.882812 6.886719 15.882812 C 6.777344 15.882812 6.761719 15.824219 6.832031 15.6875 C 6.972656 15.414062 7.0625 15.050781 7.097656 14.65625 C 7.136719 14.164062 7.140625 13.128906 7.101562 12.917969 C 7.054688 12.667969 6.941406 12.464844 6.828125 12.421875 C 6.777344 12.402344 6.710938 12.375 6.683594 12.359375 C 6.59375 12.3125 6.417969 12.332031 6.261719 12.402344 C 6.0625 12.496094 5.890625 12.652344 5.90625 12.71875 C 5.929688 12.796875 5.808594 12.957031 5.679688 13.023438 C 5.558594 13.085938 5.523438 13.128906 5.367188 13.402344 C 5.3125 13.496094 5.21875 13.628906 5.15625 13.695312 L 5.046875 13.816406 L 5.109375 13.652344 C 5.140625 13.566406 5.183594 13.457031 5.199219 13.410156 C 5.214844 13.363281 5.222656 13.320312 5.214844 13.3125 C 5.207031 13.304688 5.019531 13.339844 4.800781 13.394531 C 4.585938 13.449219 4.414062 13.484375 4.421875 13.472656 C 4.453125 13.417969 4.683594 13.324219 4.871094 13.285156 C 4.980469 13.261719 5.09375 13.234375 5.125 13.222656 C 5.304688 13.160156 5.488281 12.917969 5.394531 12.859375 C 5.375 12.84375 5.3125 12.832031 5.261719 12.832031 C 5.015625 12.832031 5.15625 12.695312 5.570312 12.527344 C 6.160156 12.285156 6.601562 12.039062 6.601562 11.941406 C 6.601562 11.875 6.085938 11.121094 5.941406 10.976562 C 5.863281 10.902344 5.761719 10.832031 5.714844 10.820312 C 5.617188 10.800781 5.414062 10.886719 5.410156 10.953125 C 5.410156 10.980469 5.40625 11.015625 5.402344 11.035156 C 5.398438 11.085938 5.222656 11.1875 5.144531 11.191406 C 5.058594 11.191406 4.980469 11.308594 4.972656 11.449219 C 4.96875 11.566406 4.582031 12.265625 4.53125 12.253906 C 4.515625 12.25 4.496094 12.199219 4.488281 12.136719 L 4.476562 12.027344 L 4.429688 12.101562 C 4.402344 12.140625 4.371094 12.207031 4.359375 12.246094 C 4.34375 12.285156 4.289062 12.417969 4.234375 12.535156 C 4.179688 12.65625 4.117188 12.832031 4.101562 12.925781 C 4.070312 13.097656 4.0625 13.105469 3.859375 13.261719 C 3.746094 13.347656 3.601562 13.460938 3.535156 13.511719 L 3.417969 13.605469 L 3.507812 13.503906 C 3.789062 13.191406 3.957031 12.890625 4.035156 12.558594 C 4.066406 12.433594 4.082031 12.324219 4.070312 12.316406 C 4.058594 12.304688 3.976562 12.355469 3.886719 12.425781 C 3.582031 12.660156 3.597656 12.652344 3.621094 12.5625 C 3.648438 12.445312 3.570312 12.453125 3.277344 12.601562 C 3.089844 12.695312 3.050781 12.707031 3.09375 12.65625 C 3.230469 12.507812 3.421875 12.398438 3.667969 12.332031 C 3.96875 12.253906 4.070312 12.195312 4.203125 12.03125 C 4.300781 11.910156 4.519531 11.542969 4.519531 11.5 C 4.519531 11.449219 4.136719 11.507812 4 11.574219 C 3.882812 11.632812 3.855469 11.660156 3.839844 11.746094 C 3.816406 11.863281 3.675781 12 3.550781 12.023438 C 3.511719 12.035156 3.417969 12.082031 3.34375 12.128906 C 3.195312 12.226562 3.164062 12.203125 3.257812 12.054688 C 3.292969 11.996094 3.316406 11.941406 3.308594 11.933594 C 3.300781 11.925781 3.242188 11.945312 3.179688 11.976562 C 3.0625 12.039062 3.011719 12.078125 2.628906 12.386719 C 2.503906 12.488281 2.394531 12.566406 2.386719 12.558594 C 2.378906 12.550781 2.40625 12.496094 2.449219 12.441406 C 2.488281 12.386719 2.523438 12.332031 2.523438 12.320312 C 2.523438 12.308594 2.453125 12.304688 2.363281 12.316406 C 2.265625 12.328125 2.203125 12.328125 2.203125 12.308594 C 2.203125 12.296875 2.3125 12.242188 2.445312 12.191406 C 2.699219 12.09375 2.996094 11.933594 3.09375 11.832031 C 3.152344 11.777344 3.152344 11.777344 3.09375 11.734375 C 3.042969 11.695312 3.046875 11.691406 3.191406 11.671875 C 3.285156 11.660156 3.398438 11.617188 3.488281 11.558594 C 3.605469 11.484375 3.722656 11.445312 4.097656 11.371094 C 4.355469 11.316406 4.605469 11.261719 4.65625 11.246094 C 4.753906 11.214844 4.957031 11.011719 4.957031 10.941406 C 4.957031 10.886719 4.75 10.792969 4.535156 10.75 C 4.4375 10.730469 4.261719 10.695312 4.140625 10.667969 C 3.953125 10.628906 3.90625 10.628906 3.789062 10.660156 C 3.714844 10.683594 3.597656 10.703125 3.527344 10.707031 C 3.433594 10.707031 3.375 10.734375 3.292969 10.800781 C 3.234375 10.851562 3.066406 10.96875 2.921875 11.058594 C 2.773438 11.144531 2.570312 11.269531 2.46875 11.335938 C 2.261719 11.464844 2.1875 11.464844 2.339844 11.339844 C 2.496094 11.210938 2.46875 11.179688 2.222656 11.203125 C 1.953125 11.226562 2.003906 11.191406 2.390625 11.089844 C 2.667969 11.015625 2.90625 10.898438 2.90625 10.839844 C 2.90625 10.824219 2.816406 10.804688 2.707031 10.792969 C 2.390625 10.757812 2.363281 10.722656 2.648438 10.722656 C 2.851562 10.71875 2.933594 10.707031 3.03125 10.65625 C 3.183594 10.582031 3.34375 10.453125 3.34375 10.410156 C 3.34375 10.355469 2.8125 10.140625 2.554688 10.089844 C 2.417969 10.066406 2.1875 10.023438 2.046875 9.996094 C 1.816406 9.953125 1.75 9.953125 1.496094 9.988281 C 1.261719 10.019531 1.171875 10.019531 1.042969 9.988281 C 0.875 9.953125 0.835938 9.910156 0.945312 9.886719 C 0.984375 9.878906 1.066406 9.863281 1.128906 9.851562 C 1.195312 9.835938 1.394531 9.832031 1.578125 9.835938 C 1.757812 9.839844 1.90625 9.832031 1.90625 9.816406 C 1.90625 9.78125 1.707031 9.640625 1.46875 9.503906 C 1.203125 9.351562 1.359375 9.394531 1.816406 9.59375 C 2.53125 9.910156 2.980469 10.039062 2.910156 9.90625 C 2.894531 9.878906 2.792969 9.757812 2.683594 9.640625 C 2.578125 9.523438 2.503906 9.429688 2.515625 9.429688 C 2.53125 9.429688 2.675781 9.550781 2.835938 9.695312 C 3.449219 10.265625 3.542969 10.308594 4.042969 10.253906 C 4.445312 10.210938 5.175781 10.109375 5.238281 10.085938 C 5.304688 10.058594 5.292969 10.035156 5.132812 9.855469 C 4.953125 9.660156 4.800781 9.570312 3.898438 9.109375 C 3.042969 8.679688 3.054688 8.683594 2.875 8.746094 C 2.753906 8.789062 2.71875 8.789062 2.617188 8.757812 C 2.476562 8.710938 2.304688 8.726562 1.996094 8.8125 C 1.851562 8.851562 1.652344 8.878906 1.425781 8.890625 C 1.226562 8.898438 1.019531 8.925781 0.953125 8.949219 C 0.816406 9 0.671875 8.992188 0.652344 8.9375 C 0.648438 8.917969 0.671875 8.898438 0.710938 8.890625 C 1 8.835938 1.105469 8.804688 1.144531 8.769531 C 1.175781 8.742188 1.316406 8.726562 1.613281 8.71875 C 1.9375 8.707031 2.074219 8.691406 2.183594 8.648438 C 2.261719 8.617188 2.332031 8.578125 2.339844 8.5625 C 2.34375 8.542969 2.292969 8.503906 2.222656 8.476562 C 2.15625 8.445312 1.988281 8.371094 1.847656 8.3125 C 1.597656 8.199219 1.382812 8.152344 0.753906 8.078125 C 0.378906 8.035156 0.355469 8.027344 0.441406 7.960938 L 0.507812 7.914062 L 0.40625 7.847656 L 0.308594 7.78125 L 0.398438 7.796875 C 0.445312 7.800781 0.714844 7.867188 1 7.945312 C 1.570312 8.09375 1.703125 8.109375 1.703125 8.023438 C 1.703125 7.933594 1.488281 7.691406 1.371094 7.652344 C 1.328125 7.636719 1.320312 7.617188 1.335938 7.5625 C 1.375 7.40625 1.15625 7.191406 0.621094 6.863281 C 0.472656 6.769531 0.355469 6.6875 0.363281 6.679688 C 0.371094 6.671875 0.472656 6.707031 0.59375 6.757812 C 0.808594 6.847656 0.882812 6.867188 0.878906 6.824219 C 0.878906 6.8125 0.808594 6.707031 0.71875 6.585938 C 0.628906 6.46875 0.558594 6.359375 0.558594 6.34375 C 0.558594 6.308594 0.640625 6.3125 0.660156 6.347656 C 0.671875 6.363281 0.703125 6.378906 0.730469 6.378906 C 0.765625 6.378906 0.84375 6.472656 0.953125 6.65625 C 1.046875 6.804688 1.207031 7.027344 1.308594 7.144531 C 1.410156 7.265625 1.613281 7.511719 1.757812 7.699219 C 1.953125 7.949219 2.058594 8.058594 2.175781 8.128906 C 2.367188 8.242188 2.945312 8.46875 3.0625 8.472656 C 3.265625 8.480469 3.144531 8.3125 2.777344 8.078125 C 2.628906 7.980469 2.484375 7.886719 2.449219 7.863281 C 2.394531 7.820312 2.394531 7.816406 2.457031 7.816406 C 2.496094 7.816406 2.523438 7.804688 2.523438 7.792969 C 2.523438 7.78125 2.382812 7.628906 2.210938 7.457031 C 1.894531 7.140625 1.855469 7.074219 2.0625 7.214844 C 2.128906 7.261719 2.195312 7.285156 2.226562 7.273438 C 2.289062 7.253906 2.488281 7.457031 2.910156 7.964844 C 3.332031 8.472656 3.5 8.609375 3.839844 8.742188 C 4.171875 8.867188 4.253906 8.914062 4.550781 9.136719 C 4.84375 9.359375 4.960938 9.429688 5.039062 9.429688 C 5.121094 9.429688 5.125 9.375 5.042969 9.214844 C 4.949219 9.027344 4.765625 8.796875 4.644531 8.71875 C 4.582031 8.679688 4.441406 8.613281 4.324219 8.566406 C 4.195312 8.519531 4.046875 8.429688 3.929688 8.335938 C 3.675781 8.125 3.515625 8.019531 3.269531 7.894531 C 3.023438 7.769531 2.90625 7.664062 3.125 7.757812 C 3.230469 7.808594 3.269531 7.8125 3.304688 7.785156 C 3.335938 7.757812 3.382812 7.78125 3.546875 7.902344 C 3.65625 7.984375 3.757812 8.050781 3.765625 8.050781 C 3.777344 8.050781 3.785156 8.023438 3.785156 7.988281 C 3.785156 7.933594 3.820312 7.957031 3.984375 8.113281 C 4.292969 8.410156 4.636719 8.617188 4.730469 8.5625 C 4.773438 8.535156 4.347656 8.109375 4.070312 7.902344 C 3.945312 7.808594 3.761719 7.660156 3.660156 7.570312 C 3.558594 7.480469 3.378906 7.339844 3.261719 7.257812 C 3.054688 7.117188 3.039062 7.113281 2.847656 7.113281 C 2.589844 7.113281 2.390625 7.050781 1.679688 6.742188 C 1.101562 6.496094 0.992188 6.4375 1.105469 6.4375 C 1.1875 6.4375 1.339844 6.492188 1.738281 6.667969 C 2.136719 6.847656 2.464844 6.933594 2.71875 6.933594 C 2.921875 6.933594 2.992188 6.917969 2.992188 6.863281 C 2.992188 6.84375 2.867188 6.707031 2.714844 6.558594 C 2.449219 6.304688 2.425781 6.289062 2.1875 6.21875 C 2.027344 6.167969 1.902344 6.109375 1.835938 6.050781 C 1.710938 5.945312 1.699219 5.890625 1.8125 5.949219 C 1.945312 6.015625 2.285156 6.117188 2.339844 6.109375 C 2.414062 6.09375 2.234375 5.902344 1.984375 5.734375 C 1.691406 5.539062 1.339844 5.253906 1.375 5.242188 C 1.390625 5.234375 1.519531 5.296875 1.664062 5.375 C 1.960938 5.535156 2.023438 5.5625 2.023438 5.535156 C 2.023438 5.523438 1.898438 5.359375 1.746094 5.175781 C 1.46875 4.835938 1.390625 4.710938 1.558594 4.867188 C 1.671875 4.976562 2.253906 5.625 2.566406 5.996094 C 2.695312 6.148438 2.804688 6.257812 2.808594 6.238281 C 2.816406 6.21875 2.753906 6.035156 2.667969 5.828125 C 2.484375 5.371094 2.453125 5.273438 2.507812 5.320312 C 2.558594 5.363281 2.707031 5.667969 2.9375 6.195312 C 3.15625 6.703125 3.304688 6.921875 3.703125 7.304688 C 4.058594 7.648438 4.324219 7.84375 4.339844 7.769531 C 4.34375 7.742188 4.246094 7.519531 4.125 7.269531 C 3.925781 6.875 3.867188 6.785156 3.636719 6.527344 C 3.394531 6.261719 2.902344 5.539062 2.90625 5.457031 C 2.910156 5.402344 3.269531 5.800781 3.328125 5.925781 C 3.421875 6.121094 3.527344 6.261719 3.613281 6.308594 C 3.691406 6.347656 3.699219 6.347656 3.699219 6.296875 C 3.699219 6.210938 3.527344 5.878906 3.375 5.671875 C 3.296875 5.566406 3.011719 5.269531 2.746094 5.015625 C 2.476562 4.761719 2.261719 4.542969 2.261719 4.527344 C 2.261719 4.511719 2.300781 4.5 2.347656 4.5 C 2.410156 4.5 2.464844 4.527344 2.527344 4.597656 L 2.617188 4.691406 L 2.597656 4.601562 C 2.550781 4.351562 2.546875 4.3125 2.574219 4.339844 C 2.589844 4.355469 2.640625 4.464844 2.683594 4.578125 C 2.785156 4.847656 2.953125 5.085938 3.132812 5.203125 C 3.246094 5.28125 3.273438 5.289062 3.28125 5.25 C 3.289062 5.222656 3.269531 5.167969 3.246094 5.128906 C 3.21875 5.089844 3.199219 5.046875 3.199219 5.027344 C 3.199219 4.988281 3.292969 5.101562 3.445312 5.328125 C 3.507812 5.421875 3.570312 5.496094 3.582031 5.496094 C 3.632812 5.496094 3.605469 5.390625 3.449219 5 C 3.363281 4.78125 3.296875 4.597656 3.304688 4.589844 C 3.347656 4.546875 3.640625 5.121094 3.640625 5.25 C 3.640625 5.300781 3.667969 5.421875 3.703125 5.511719 C 3.757812 5.65625 3.816406 5.722656 4.132812 6.019531 C 4.335938 6.210938 4.714844 6.570312 4.972656 6.820312 C 5.414062 7.246094 5.644531 7.433594 5.683594 7.394531 C 5.707031 7.371094 5.5625 7.105469 5.367188 6.8125 C 5.148438 6.488281 4.890625 6.210938 4.605469 5.996094 C 4.359375 5.808594 4.109375 5.570312 4.109375 5.519531 C 4.109375 5.492188 4.207031 5.558594 4.484375 5.78125 C 4.625 5.894531 4.785156 5.996094 4.824219 5.996094 C 4.859375 5.996094 4.839844 5.902344 4.785156 5.796875 C 4.703125 5.636719 3.386719 4.316406 3.234375 4.238281 C 2.882812 4.0625 2.289062 3.632812 2.289062 3.554688 C 2.289062 3.511719 2.335938 3.535156 2.53125 3.675781 C 2.6875 3.789062 2.90625 3.90625 2.90625 3.875 C 2.90625 3.871094 2.792969 3.753906 2.652344 3.609375 C 2.332031 3.273438 2.105469 2.945312 2.195312 2.945312 C 2.207031 2.945312 2.335938 3.078125 2.480469 3.238281 C 2.625 3.398438 2.765625 3.53125 2.792969 3.53125 C 2.820312 3.53125 2.972656 3.6875 3.128906 3.878906 C 3.285156 4.066406 3.515625 4.320312 3.640625 4.441406 C 3.875 4.671875 4.351562 5.027344 4.421875 5.027344 C 4.542969 5.027344 4.390625 4.644531 4.128906 4.296875 C 3.800781 3.863281 3.191406 3.261719 2.867188 3.046875 C 2.808594 3.011719 2.789062 2.976562 2.800781 2.9375 C 2.808594 2.898438 2.777344 2.835938 2.710938 2.75 C 2.589844 2.605469 2.597656 2.558594 2.726562 2.648438 C 2.898438 2.773438 2.890625 2.734375 2.65625 2.359375 C 2.550781 2.191406 2.464844 2.042969 2.464844 2.027344 C 2.464844 1.984375 2.648438 2.125 2.792969 2.28125 C 2.953125 2.453125 2.964844 2.433594 2.859375 2.195312 C 2.820312 2.101562 2.792969 2.019531 2.800781 2.015625 C 2.820312 1.996094 3.179688 2.542969 3.449219 3 C 3.679688 3.386719 3.964844 3.742188 4.007812 3.699219 C 4.035156 3.671875 4.003906 3.539062 3.839844 3.019531 L 3.71875 2.636719 L 3.457031 2.371094 C 3.171875 2.085938 3.140625 2.042969 3.140625 1.976562 C 3.140625 1.953125 3.203125 2 3.285156 2.078125 C 3.378906 2.171875 3.445312 2.214844 3.476562 2.203125 C 3.503906 2.191406 3.546875 2.222656 3.601562 2.292969 C 3.644531 2.355469 3.714844 2.441406 3.761719 2.492188 C 3.839844 2.578125 4.082031 3.234375 4.480469 4.457031 C 4.570312 4.730469 4.707031 5.101562 4.789062 5.277344 C 4.871094 5.457031 4.949219 5.632812 4.964844 5.675781 L 4.996094 5.746094 L 5.023438 5.660156 C 5.078125 5.472656 4.976562 4.734375 4.855469 4.425781 C 4.796875 4.28125 4.789062 4.222656 4.808594 4.105469 L 4.828125 3.957031 L 4.941406 4.273438 C 5.050781 4.574219 5.066406 4.601562 5.308594 4.863281 C 5.445312 5.011719 5.652344 5.242188 5.761719 5.375 C 6.066406 5.738281 6.222656 5.8125 6.0625 5.519531 C 5.96875 5.351562 5.503906 4.664062 5.054688 4.023438 C 4.65625 3.464844 4.394531 2.988281 4.210938 2.515625 C 3.972656 1.882812 3.96875 1.878906 3.730469 1.789062 C 3.617188 1.746094 3.511719 1.691406 3.492188 1.667969 C 3.433594 1.597656 3.65625 1.613281 3.773438 1.6875 C 3.863281 1.742188 3.875 1.742188 3.890625 1.699219 C 3.902344 1.671875 3.894531 1.617188 3.878906 1.578125 C 3.828125 1.472656 3.835938 1.433594 3.890625 1.480469 C 3.917969 1.503906 4.03125 1.707031 4.140625 1.933594 C 4.332031 2.324219 4.339844 2.335938 4.339844 2.222656 C 4.34375 2.15625 4.296875 1.9375 4.238281 1.742188 C 4.179688 1.546875 4.140625 1.367188 4.144531 1.351562 C 4.160156 1.308594 4.261719 1.613281 4.34375 1.945312 C 4.542969 2.742188 5.078125 3.914062 5.367188 4.191406 L 5.457031 4.277344 L 5.457031 4.203125 C 5.457031 4 5.140625 3.273438 5.019531 3.195312 C 5.003906 3.1875 4.976562 3.152344 4.957031 3.117188 C 4.929688 3.066406 4.933594 3.0625 5 3.078125 C 5.050781 3.09375 5.078125 3.085938 5.078125 3.0625 C 5.078125 3.015625 4.816406 2.324219 4.648438 1.933594 C 4.40625 1.355469 4.390625 1.285156 4.582031 1.5625 C 4.703125 1.734375 4.726562 1.667969 4.625 1.429688 C 4.585938 1.335938 4.558594 1.253906 4.5625 1.25 C 4.566406 1.242188 4.601562 1.257812 4.632812 1.277344 C 4.6875 1.3125 4.699219 1.308594 4.722656 1.273438 C 4.757812 1.21875 4.757812 1.21875 4.863281 1.464844 C 5.03125 1.847656 5.328125 2.378906 5.359375 2.351562 C 5.371094 2.335938 5.277344 2.058594 5.082031 1.53125 C 4.902344 1.054688 4.890625 0.976562 5.027344 1.132812 C 5.097656 1.214844 5.152344 1.332031 5.234375 1.589844 C 5.292969 1.785156 5.398438 2.039062 5.476562 2.171875 C 5.546875 2.296875 5.640625 2.519531 5.683594 2.660156 C 5.757812 2.898438 5.777344 2.933594 5.992188 3.171875 C 6.121094 3.3125 6.320312 3.566406 6.433594 3.734375 C 6.550781 3.902344 6.648438 4.023438 6.65625 4.003906 C 6.699219 3.867188 6.109375 2.480469 5.792969 1.988281 C 5.738281 1.902344 5.578125 1.707031 5.429688 1.546875 C 5.175781 1.269531 5.0625 1.101562 5.082031 1.035156 C 5.089844 1.015625 5.152344 1.078125 5.222656 1.171875 C 5.375 1.367188 5.601562 1.550781 5.640625 1.511719 C 5.6875 1.464844 5.582031 1.210938 5.453125 1.050781 C 5.34375 0.917969 5.339844 0.90625 5.394531 0.898438 C 5.429688 0.890625 5.457031 0.863281 5.464844 0.824219 C 5.472656 0.769531 5.484375 0.777344 5.535156 0.878906 C 5.570312 0.941406 5.628906 1.09375 5.664062 1.214844 C 5.699219 1.335938 5.769531 1.519531 5.816406 1.625 C 5.890625 1.789062 5.90625 1.808594 5.933594 1.761719 C 5.953125 1.722656 5.953125 1.652344 5.925781 1.523438 C 5.90625 1.417969 5.898438 1.316406 5.90625 1.296875 C 5.914062 1.277344 5.933594 1.335938 5.953125 1.433594 C 6.074219 2.007812 6.238281 2.546875 6.277344 2.472656 C 6.3125 2.402344 6.257812 1.800781 6.195312 1.566406 C 6.109375 1.242188 6.015625 1.007812 5.972656 1.007812 C 5.871094 1.007812 5.707031 0.699219 5.632812 0.371094 C 5.59375 0.191406 5.621094 0.179688 5.691406 0.34375 C 5.734375 0.445312 5.757812 0.472656 5.800781 0.460938 C 5.84375 0.453125 5.863281 0.402344 5.886719 0.242188 C 5.9375 -0.0625 5.984375 -0.0820312 5.984375 0.203125 C 5.988281 0.460938 6.039062 0.761719 6.113281 0.921875 C 6.140625 0.976562 6.15625 0.996094 6.152344 0.960938 C 6.136719 0.886719 6.203125 0.777344 6.238281 0.8125 C 6.265625 0.839844 6.296875 1.070312 6.351562 1.726562 C 6.40625 2.367188 6.429688 2.503906 6.542969 2.84375 L 6.628906 3.105469 L 6.613281 2.871094 C 6.605469 2.742188 6.585938 2.53125 6.570312 2.402344 C 6.554688 2.273438 6.542969 2.136719 6.546875 2.09375 C 6.546875 2.023438 6.546875 2.023438 6.59375 2.113281 C 6.617188 2.164062 6.664062 2.214844 6.691406 2.222656 C 6.726562 2.230469 6.75 2.285156 6.773438 2.421875 C 6.792969 2.527344 6.808594 2.636719 6.808594 2.667969 C 6.808594 2.699219 6.820312 2.746094 6.835938 2.769531 C 6.875 2.828125 6.988281 2.574219 6.988281 2.421875 C 6.988281 2.363281 6.921875 2.113281 6.839844 1.875 C 6.757812 1.632812 6.664062 1.300781 6.632812 1.136719 C 6.566406 0.78125 6.519531 0.683594 6.34375 0.519531 C 6.234375 0.414062 6.21875 0.386719 6.25 0.351562 C 6.292969 0.296875 6.265625 0.246094 6.1875 0.246094 C 6.117188 0.246094 6.117188 0.210938 6.191406 0.144531 C 6.246094 0.09375 6.25 0.0976562 6.359375 0.273438 C 6.4375 0.402344 6.484375 0.445312 6.519531 0.433594 C 6.570312 0.417969 6.605469 0.5 6.722656 0.941406 C 6.753906 1.078125 6.792969 1.183594 6.808594 1.183594 C 6.820312 1.183594 6.835938 1.097656 6.847656 0.988281 C 6.863281 0.832031 6.851562 0.710938 6.792969 0.4375 C 6.753906 0.246094 6.726562 0.0859375 6.730469 0.078125 C 6.753906 0.0546875 6.828125 0.222656 6.882812 0.410156 C 6.910156 0.503906 6.972656 0.664062 7.023438 0.761719 C 7.144531 1 7.15625 0.90625 7.058594 0.449219 C 6.976562 0.0625 6.96875 0.0117188 7.011719 0.0117188 C 7.027344 0.0117188 7.066406 0.109375 7.101562 0.222656 C 7.265625 0.796875 7.464844 1.410156 7.488281 1.433594 C 7.550781 1.496094 7.476562 0.960938 7.375 0.613281 C 7.238281 0.132812 7.234375 0.125 7.320312 0.285156 C 7.378906 0.394531 7.410156 0.421875 7.449219 0.410156 C 7.5 0.394531 7.511719 0.421875 7.550781 0.664062 C 7.648438 1.210938 7.742188 2.003906 7.761719 2.433594 C 7.789062 2.957031 7.804688 2.933594 7.90625 2.230469 C 8.003906 1.574219 8 1.433594 7.886719 0.976562 C 7.820312 0.699219 7.800781 0.589844 7.828125 0.566406 C 7.851562 0.542969 7.867188 0.582031 7.894531 0.714844 C 7.949219 0.992188 7.984375 0.980469 8.027344 0.65625 C 8.035156 0.570312 8.054688 0.484375 8.0625 0.46875 C 8.089844 0.421875 8.121094 0.570312 8.125 0.773438 C 8.128906 1.039062 8.164062 1.082031 8.230469 0.902344 C 8.257812 0.824219 8.292969 0.726562 8.3125 0.6875 C 8.34375 0.613281 8.34375 0.613281 8.355469 0.714844 C 8.371094 0.847656 8.257812 1.273438 8.152344 1.484375 C 8.074219 1.640625 8.039062 1.859375 8.09375 1.859375 C 8.125 1.859375 8.457031 1.613281 8.523438 1.539062 C 8.578125 1.480469 8.582031 1.417969 8.597656 0.90625 C 8.605469 0.59375 8.621094 0.328125 8.632812 0.316406 C 8.683594 0.269531 8.699219 0.355469 8.710938 0.703125 C 8.71875 1.007812 8.726562 1.066406 8.765625 1.066406 C 8.816406 1.066406 8.8125 1.097656 8.71875 1.480469 C 8.621094 1.871094 8.589844 2.128906 8.570312 2.699219 C 8.550781 3.199219 8.546875 3.238281 8.46875 3.378906 C 8.359375 3.59375 8.363281 3.65625 8.484375 3.546875 L 8.574219 3.457031 L 8.554688 3.589844 C 8.542969 3.664062 8.523438 3.816406 8.511719 3.929688 C 8.5 4.066406 8.460938 4.195312 8.394531 4.328125 C 8.246094 4.636719 8.203125 5.164062 8.226562 6.570312 C 8.253906 8.351562 8.277344 8.800781 8.324219 8.738281 C 8.429688 8.589844 8.59375 7.890625 8.65625 7.300781 C 8.675781 7.125 8.753906 6.65625 8.832031 6.261719 C 9.074219 5.039062 9.101562 4.65625 9.066406 2.972656 C 9.027344 1.125 9.023438 0.453125 9.058594 0.417969 C 9.101562 0.375 9.113281 0.433594 9.15625 0.898438 C 9.203125 1.425781 9.226562 1.449219 9.300781 1.027344 C 9.320312 0.917969 9.347656 0.839844 9.359375 0.851562 C 9.421875 0.914062 9.390625 1.453125 9.285156 2.140625 C 9.238281 2.464844 9.226562 3.082031 9.269531 3.152344 C 9.292969 3.183594 9.320312 3.140625 9.398438 2.972656 C 9.601562 2.539062 9.742188 1.890625 9.742188 1.394531 C 9.742188 1.171875 9.746094 1.140625 9.8125 1.082031 C 9.863281 1.035156 9.890625 0.96875 9.90625 0.867188 C 9.925781 0.707031 9.976562 0.660156 9.976562 0.796875 C 9.972656 0.984375 9.90625 1.445312 9.800781 1.992188 C 9.738281 2.316406 9.671875 2.660156 9.652344 2.761719 C 9.636719 2.859375 9.585938 3.023438 9.539062 3.125 C 9.441406 3.34375 9.414062 3.445312 9.449219 3.445312 C 9.492188 3.445312 9.59375 3.273438 9.765625 2.921875 C 9.902344 2.636719 9.929688 2.59375 9.941406 2.660156 C 9.953125 2.765625 9.859375 3.054688 9.679688 3.460938 C 9.601562 3.640625 9.535156 3.824219 9.539062 3.871094 L 9.539062 3.957031 L 9.582031 3.863281 C 9.628906 3.757812 9.667969 3.722656 9.695312 3.765625 C 9.707031 3.78125 9.726562 3.796875 9.738281 3.796875 C 9.753906 3.796875 9.859375 3.640625 9.980469 3.453125 C 10.367188 2.832031 10.480469 2.390625 10.371094 1.917969 C 10.296875 1.597656 10.289062 1.507812 10.324219 1.507812 C 10.339844 1.507812 10.375 1.472656 10.394531 1.429688 C 10.433594 1.355469 10.4375 1.375 10.457031 1.671875 C 10.46875 1.847656 10.484375 2.039062 10.496094 2.09375 C 10.511719 2.183594 10.515625 2.1875 10.550781 2.140625 C 10.574219 2.109375 10.613281 1.984375 10.636719 1.863281 C 10.707031 1.558594 10.71875 1.542969 10.78125 1.691406 L 10.835938 1.816406 L 10.734375 2.109375 C 10.679688 2.269531 10.480469 2.722656 10.289062 3.121094 C 10.097656 3.515625 9.886719 3.957031 9.824219 4.101562 L 9.707031 4.367188 L 9.699219 4.800781 C 9.695312 5.125 9.703125 5.234375 9.730469 5.234375 C 9.75 5.234375 9.828125 5.152344 9.90625 5.054688 C 10.097656 4.8125 10.109375 4.890625 9.9375 5.257812 C 9.863281 5.414062 9.792969 5.582031 9.785156 5.636719 C 9.773438 5.699219 9.691406 5.804688 9.515625 5.980469 C 9.320312 6.175781 9.246094 6.277344 9.167969 6.449219 C 9.058594 6.683594 9.007812 6.871094 9.058594 6.839844 C 9.074219 6.828125 9.171875 6.691406 9.273438 6.535156 C 9.375 6.382812 9.464844 6.265625 9.46875 6.28125 C 9.472656 6.296875 9.453125 6.386719 9.417969 6.480469 C 9.339844 6.714844 9.34375 6.765625 9.433594 6.65625 C 9.796875 6.226562 10.546875 4.636719 10.691406 3.996094 C 10.714844 3.894531 10.777344 3.539062 10.828125 3.210938 C 10.941406 2.46875 11.003906 2.148438 11.101562 1.84375 C 11.238281 1.425781 11.28125 1.445312 11.183594 1.875 C 11.101562 2.210938 11.082031 2.386719 11.117188 2.386719 C 11.132812 2.386719 11.199219 2.285156 11.265625 2.160156 C 11.328125 2.035156 11.382812 1.945312 11.382812 1.960938 C 11.382812 1.976562 11.355469 2.085938 11.324219 2.207031 C 11.273438 2.378906 11.269531 2.429688 11.296875 2.449219 C 11.328125 2.464844 11.320312 2.507812 11.269531 2.628906 C 11.230469 2.714844 11.175781 2.8125 11.148438 2.84375 C 11.117188 2.875 11.078125 2.941406 11.0625 2.988281 C 11.023438 3.09375 10.914062 3.710938 10.914062 3.832031 C 10.914062 3.921875 10.914062 3.921875 10.976562 3.867188 C 11.011719 3.835938 11.171875 3.648438 11.335938 3.449219 C 11.5 3.253906 11.636719 3.101562 11.640625 3.117188 C 11.65625 3.15625 11.589844 3.257812 11.378906 3.53125 C 11.179688 3.792969 11.007812 4.074219 10.980469 4.175781 C 10.972656 4.21875 10.894531 4.328125 10.808594 4.421875 C 10.621094 4.621094 10.59375 4.671875 10.375 5.21875 C 10.28125 5.445312 10.113281 5.808594 9.996094 6.027344 C 9.625 6.730469 9.566406 6.859375 9.535156 7.007812 C 9.519531 7.089844 9.5 7.183594 9.488281 7.222656 C 9.480469 7.257812 9.480469 7.289062 9.496094 7.289062 C 9.558594 7.289062 9.84375 7.089844 9.921875 6.992188 C 10.007812 6.886719 10.242188 6.34375 10.351562 5.996094 C 10.382812 5.890625 10.476562 5.59375 10.5625 5.332031 C 10.644531 5.070312 10.726562 4.847656 10.742188 4.835938 C 10.796875 4.800781 10.742188 5.074219 10.617188 5.449219 C 10.554688 5.640625 10.503906 5.808594 10.511719 5.824219 C 10.515625 5.835938 10.617188 5.675781 10.734375 5.460938 C 11.496094 4.109375 11.628906 3.828125 11.8125 3.222656 C 11.882812 2.984375 11.890625 2.921875 11.886719 2.503906 C 11.882812 2.058594 11.917969 1.851562 11.957031 2.058594 C 11.988281 2.203125 12.015625 2.195312 12.085938 2.03125 C 12.117188 1.949219 12.152344 1.886719 12.160156 1.894531 C 12.171875 1.90625 12.148438 2.222656 12.101562 2.636719 L 12.085938 2.785156 L 12.1875 2.609375 C 12.246094 2.511719 12.347656 2.308594 12.414062 2.152344 C 12.480469 2 12.546875 1.863281 12.558594 1.847656 C 12.570312 1.835938 12.597656 1.875 12.617188 1.941406 C 12.648438 2.050781 12.648438 2.066406 12.582031 2.15625 C 12.507812 2.257812 12.292969 2.714844 12.292969 2.769531 C 12.292969 2.820312 12.367188 2.800781 12.429688 2.734375 C 12.464844 2.695312 12.558594 2.566406 12.636719 2.445312 C 12.792969 2.210938 12.910156 2.085938 12.871094 2.199219 C 12.808594 2.359375 12.566406 2.761719 12.453125 2.890625 C 12.382812 2.96875 12.324219 3.058594 12.324219 3.085938 C 12.324219 3.164062 12.242188 3.261719 12.117188 3.339844 C 12.027344 3.398438 11.972656 3.480469 11.808594 3.796875 C 11.703125 4.007812 11.488281 4.375 11.332031 4.613281 C 11.140625 4.90625 10.992188 5.179688 10.863281 5.46875 C 10.761719 5.703125 10.578125 6.09375 10.453125 6.339844 C 10.332031 6.585938 10.238281 6.796875 10.25 6.808594 C 10.277344 6.835938 10.464844 6.703125 10.597656 6.558594 C 10.667969 6.480469 10.882812 6.1875 11.074219 5.90625 C 11.265625 5.625 11.472656 5.335938 11.535156 5.265625 C 11.761719 5.007812 12.0625 4.53125 12.132812 4.316406 C 12.214844 4.078125 12.265625 4.007812 12.265625 4.128906 C 12.265625 4.171875 12.277344 4.207031 12.292969 4.207031 C 12.320312 4.207031 12.695312 3.71875 12.785156 3.5625 C 12.820312 3.503906 12.867188 3.382812 12.894531 3.289062 C 12.941406 3.125 12.996094 3.0625 12.996094 3.179688 C 12.996094 3.246094 13.054688 3.257812 13.109375 3.203125 C 13.136719 3.175781 13.144531 3.179688 13.144531 3.21875 C 13.144531 3.242188 13.164062 3.277344 13.191406 3.292969 C 13.238281 3.316406 13.234375 3.328125 13.175781 3.410156 C 13.140625 3.457031 13.050781 3.542969 12.972656 3.601562 C 12.78125 3.742188 12.496094 4.089844 12.195312 4.546875 C 11.882812 5.019531 11.875 5.066406 12.121094 4.9375 C 12.324219 4.828125 12.636719 4.546875 12.820312 4.3125 C 12.890625 4.222656 12.957031 4.148438 12.964844 4.148438 C 12.976562 4.148438 12.980469 4.191406 12.972656 4.242188 L 12.960938 4.332031 L 13.089844 4.261719 C 13.160156 4.222656 13.328125 4.082031 13.460938 3.949219 C 13.679688 3.734375 13.710938 3.710938 13.746094 3.753906 C 13.804688 3.835938 13.925781 3.78125 14.136719 3.582031 C 14.242188 3.480469 14.316406 3.425781 14.304688 3.460938 C 14.292969 3.492188 14.269531 3.554688 14.253906 3.597656 C 14.238281 3.640625 14.160156 3.722656 14.085938 3.777344 C 13.957031 3.871094 13.945312 3.890625 13.945312 3.992188 C 13.949219 4.144531 13.875 4.257812 13.722656 4.324219 C 13.5625 4.390625 13.445312 4.515625 13.265625 4.816406 C 13.121094 5.058594 12.972656 5.425781 13.007812 5.460938 C 13.019531 5.472656 13.082031 5.449219 13.144531 5.414062 C 13.210938 5.378906 13.261719 5.359375 13.261719 5.375 C 13.261719 5.390625 13.214844 5.460938 13.160156 5.535156 C 13.046875 5.683594 12.996094 5.789062 12.996094 5.890625 C 12.996094 5.925781 12.964844 6.003906 12.925781 6.0625 C 12.832031 6.199219 12.832031 6.214844 12.929688 6.1875 C 13.042969 6.160156 13.234375 6.019531 13.34375 5.882812 C 13.429688 5.777344 13.449219 5.765625 13.476562 5.804688 C 13.507812 5.84375 13.542969 5.832031 13.769531 5.722656 C 13.910156 5.652344 14.050781 5.570312 14.082031 5.542969 C 14.121094 5.507812 14.164062 5.5 14.234375 5.511719 C 14.453125 5.550781 14.609375 5.347656 14.792969 4.808594 C 14.863281 4.597656 14.917969 4.484375 14.945312 4.476562 C 15.015625 4.460938 15.003906 4.550781 14.890625 4.90625 C 14.765625 5.289062 14.765625 5.300781 14.859375 5.273438 C 14.964844 5.25 14.953125 5.285156 14.800781 5.449219 C 14.730469 5.527344 14.667969 5.605469 14.667969 5.625 C 14.667969 5.644531 14.628906 5.730469 14.582031 5.820312 C 14.535156 5.910156 14.496094 6 14.496094 6.023438 C 14.492188 6.042969 14.652344 5.898438 14.84375 5.699219 C 15.183594 5.347656 15.3125 5.261719 15.164062 5.488281 C 15.121094 5.550781 15.027344 5.667969 14.953125 5.75 C 14.742188 5.988281 14.78125 6.003906 15.109375 5.808594 L 15.328125 5.679688 L 15.398438 5.753906 C 15.4375 5.792969 15.457031 5.835938 15.445312 5.847656 C 15.429688 5.863281 15.332031 5.886719 15.226562 5.90625 C 14.980469 5.945312 14.742188 6.105469 14.652344 6.289062 C 14.578125 6.441406 14.453125 6.558594 14.390625 6.535156 C 14.363281 6.523438 14.28125 6.589844 14.164062 6.71875 C 14.0625 6.828125 13.851562 7.042969 13.695312 7.195312 C 13.535156 7.347656 13.410156 7.480469 13.410156 7.492188 C 13.410156 7.503906 13.519531 7.523438 13.65625 7.535156 C 13.929688 7.554688 14.015625 7.535156 14.246094 7.375 C 14.359375 7.296875 14.378906 7.289062 14.371094 7.335938 C 14.363281 7.382812 14.382812 7.390625 14.535156 7.382812 C 14.746094 7.375 14.933594 7.316406 15.152344 7.183594 C 15.246094 7.128906 15.328125 7.082031 15.332031 7.082031 C 15.339844 7.082031 15.34375 7.109375 15.34375 7.144531 C 15.34375 7.203125 15.355469 7.207031 15.496094 7.1875 C 15.628906 7.167969 15.644531 7.171875 15.609375 7.210938 C 15.535156 7.300781 15.324219 7.371094 15.035156 7.402344 C 14.875 7.421875 14.695312 7.449219 14.632812 7.464844 C 14.402344 7.527344 14.550781 7.597656 14.910156 7.59375 C 15.101562 7.59375 15.140625 7.601562 15.140625 7.640625 C 15.140625 7.664062 15.160156 7.714844 15.1875 7.753906 C 15.210938 7.789062 15.226562 7.828125 15.214844 7.835938 C 15.203125 7.847656 15.085938 7.820312 14.953125 7.777344 C 14.691406 7.691406 14.351562 7.628906 14.136719 7.625 C 14.03125 7.625 13.984375 7.640625 13.941406 7.6875 C 13.886719 7.742188 13.867188 7.746094 13.742188 7.722656 C 13.542969 7.683594 13.378906 7.710938 13.195312 7.8125 C 13.011719 7.914062 12.886719 7.945312 12.839844 7.90625 C 12.785156 7.863281 12.566406 7.972656 12.542969 8.054688 C 12.515625 8.140625 12.324219 8.34375 12.269531 8.34375 C 12.242188 8.34375 12.234375 8.378906 12.242188 8.46875 C 12.25 8.625 12.273438 8.628906 12.777344 8.632812 C 13.019531 8.636719 13.234375 8.652344 13.367188 8.683594 C 13.636719 8.746094 13.789062 8.722656 14.078125 8.574219 L 14.300781 8.460938 L 14.183594 8.578125 L 14.070312 8.699219 L 14.1875 8.699219 C 14.25 8.703125 14.59375 8.703125 14.949219 8.707031 C 15.378906 8.710938 15.613281 8.722656 15.652344 8.746094 C 15.703125 8.777344 15.699219 8.78125 15.609375 8.796875 C 15.550781 8.804688 15.328125 8.8125 15.109375 8.804688 L 14.714844 8.796875 L 14.539062 8.921875 C 14.40625 9.015625 14.253906 9.082031 13.957031 9.175781 C 13.738281 9.246094 13.554688 9.300781 13.554688 9.296875 C 13.554688 9.25 13.859375 9.066406 14.019531 9.015625 C 14.222656 8.949219 14.289062 8.914062 14.289062 8.867188 C 14.289062 8.855469 14.066406 8.84375 13.796875 8.84375 C 13.523438 8.84375 13.144531 8.824219 12.953125 8.796875 C 12.757812 8.773438 12.53125 8.753906 12.449219 8.753906 C 12.308594 8.753906 12.292969 8.761719 12.25 8.84375 C 12.222656 8.894531 12.15625 8.960938 12.101562 8.992188 C 11.964844 9.074219 11.960938 9.199219 12.09375 9.269531 C 12.195312 9.324219 12.742188 9.445312 13.015625 9.472656 C 13.171875 9.492188 13.210938 9.484375 13.351562 9.414062 L 13.511719 9.335938 L 13.441406 9.410156 C 13.351562 9.507812 13.375 9.5625 13.515625 9.585938 C 13.78125 9.628906 13.917969 9.609375 14.097656 9.5 C 14.195312 9.441406 14.328125 9.371094 14.394531 9.339844 C 14.523438 9.285156 14.789062 9.234375 14.789062 9.265625 C 14.789062 9.273438 14.71875 9.316406 14.632812 9.359375 C 14.464844 9.445312 14.289062 9.570312 14.289062 9.605469 C 14.289062 9.628906 14.761719 9.714844 15.050781 9.738281 C 15.339844 9.761719 15.363281 9.769531 15.3125 9.828125 C 15.285156 9.863281 15.285156 9.886719 15.316406 9.945312 C 15.335938 9.984375 15.347656 10.023438 15.339844 10.027344 C 15.332031 10.035156 15.210938 9.992188 15.066406 9.933594 C 14.828125 9.835938 14.773438 9.824219 14.503906 9.820312 C 14.339844 9.816406 14.128906 9.800781 14.035156 9.78125 C 13.941406 9.765625 13.761719 9.75 13.632812 9.75 C 13.484375 9.75 13.183594 9.710938 12.777344 9.628906 C 12.410156 9.558594 12.117188 9.519531 12.074219 9.527344 C 11.9375 9.5625 11.578125 9.9375 11.433594 10.199219 C 11.355469 10.328125 11.296875 10.449219 11.296875 10.460938 C 11.296875 10.503906 11.511719 10.539062 12.101562 10.605469 C 12.695312 10.667969 12.925781 10.667969 13.261719 10.597656 C 13.40625 10.566406 13.445312 10.570312 13.570312 10.621094 L 13.714844 10.675781 L 13.320312 10.691406 C 13.101562 10.699219 12.898438 10.722656 12.867188 10.742188 C 12.808594 10.773438 12.808594 10.777344 12.886719 10.804688 C 13.058594 10.871094 13.910156 11.042969 14.058594 11.042969 C 14.070312 11.042969 14.082031 11.054688 14.082031 11.070312 C 14.082031 11.085938 14.011719 11.105469 13.921875 11.117188 C 13.832031 11.128906 13.761719 11.148438 13.761719 11.164062 C 13.761719 11.179688 13.855469 11.253906 13.972656 11.328125 C 14.132812 11.429688 14.257812 11.484375 14.457031 11.539062 C 14.648438 11.585938 14.726562 11.621094 14.726562 11.652344 C 14.726562 11.6875 14.703125 11.691406 14.585938 11.679688 C 14.4375 11.660156 14.140625 11.539062 13.53125 11.246094 C 13.214844 11.09375 13.171875 11.082031 13.171875 11.132812 C 13.171875 11.203125 13.160156 11.203125 13.054688 11.128906 C 12.582031 10.792969 11.632812 10.644531 11.09375 10.820312 C 10.859375 10.898438 10.796875 10.9375 10.796875 11.003906 C 10.796875 11.027344 10.882812 11.164062 10.984375 11.304688 C 11.085938 11.449219 11.21875 11.648438 11.273438 11.753906 C 11.394531 11.96875 11.445312 12.019531 11.601562 12.085938 C 11.742188 12.144531 11.972656 12.144531 12.425781 12.085938 C 12.769531 12.042969 12.910156 12.046875 12.910156 12.101562 C 12.910156 12.117188 12.878906 12.128906 12.839844 12.128906 C 12.734375 12.128906 12.722656 12.171875 12.808594 12.230469 C 12.871094 12.269531 12.882812 12.292969 12.867188 12.359375 C 12.855469 12.402344 12.84375 12.441406 12.835938 12.445312 C 12.832031 12.449219 12.757812 12.417969 12.671875 12.371094 C 12.535156 12.300781 12.480469 12.289062 12.277344 12.289062 C 12.03125 12.289062 11.882812 12.316406 11.882812 12.359375 C 11.882812 12.375 11.925781 12.445312 11.976562 12.511719 C 12.046875 12.605469 12.15625 12.679688 12.378906 12.800781 C 12.667969 12.957031 13.003906 13.214844 12.964844 13.253906 C 12.953125 13.265625 12.839844 13.195312 12.707031 13.09375 C 12.574219 12.996094 12.433594 12.902344 12.390625 12.890625 C 12.304688 12.855469 12.167969 12.851562 12.179688 12.882812 C 12.1875 12.894531 12.238281 13.007812 12.296875 13.132812 C 12.441406 13.429688 12.453125 13.476562 12.402344 13.476562 C 12.355469 13.476562 12.332031 13.449219 11.824219 12.789062 C 11.449219 12.296875 11.304688 12.128906 11.257812 12.128906 C 11.242188 12.128906 11.234375 12.214844 11.242188 12.332031 C 11.261719 12.566406 11.394531 12.863281 11.691406 13.34375 C 11.78125 13.488281 11.851562 13.617188 11.851562 13.636719 C 11.851562 13.652344 11.699219 13.515625 11.511719 13.324219 C 11.324219 13.136719 11.15625 12.976562 11.136719 12.96875 C 11.109375 12.957031 11.09375 12.828125 11.082031 12.519531 C 11.0625 12.035156 11.011719 11.78125 10.890625 11.5625 C 10.722656 11.246094 10.480469 11.222656 10.191406 11.488281 C 9.988281 11.675781 9.625 12.121094 9.625 12.1875 C 9.625 12.21875 9.695312 12.300781 9.78125 12.378906 C 9.878906 12.460938 9.9375 12.53125 9.925781 12.558594 C 9.90625 12.609375 10.277344 12.980469 10.570312 13.191406 C 10.695312 13.285156 10.796875 13.367188 10.796875 13.375 C 10.796875 13.421875 10.636719 13.375 10.496094 13.285156 C 10.402344 13.230469 10.253906 13.136719 10.160156 13.082031 C 10.070312 13.023438 9.96875 12.976562 9.9375 12.976562 C 9.839844 12.976562 9.890625 13.167969 10.105469 13.617188 C 10.210938 13.839844 10.296875 14.039062 10.296875 14.058594 C 10.296875 14.132812 10.242188 14.089844 10.152344 13.945312 C 10.0625 13.808594 10.003906 13.679688 9.671875 12.917969 C 9.527344 12.59375 9.453125 12.496094 9.363281 12.523438 C 9.15625 12.589844 8.75 13.644531 8.667969 14.503906 C 8.617188 15.054688 8.691406 15.445312 8.910156 15.742188 C 8.984375 15.839844 8.964844 15.890625 8.835938 15.953125 C 8.746094 15.992188 8.613281 16 7.902344 16 C 7.121094 16 7.140625 15.996094 7.058594 15.941406 Z M 8.683594 12.359375 C 8.800781 12.179688 8.851562 12.019531 8.820312 11.941406 C 8.8125 11.917969 8.773438 11.875 8.730469 11.847656 C 8.675781 11.8125 8.644531 11.808594 8.597656 11.835938 C 8.507812 11.882812 8.480469 11.984375 8.480469 12.230469 C 8.480469 12.597656 8.515625 12.621094 8.683594 12.359375 Z M 6.976562 11.34375 C 6.953125 11.027344 6.902344 10.910156 6.757812 10.867188 C 6.695312 10.847656 6.605469 10.835938 6.554688 10.84375 L 6.464844 10.851562 L 6.496094 10.976562 C 6.519531 11.0625 6.59375 11.175781 6.730469 11.335938 C 6.839844 11.464844 6.945312 11.570312 6.960938 11.570312 C 6.980469 11.570312 6.984375 11.488281 6.976562 11.34375 Z M 9.007812 11.453125 C 9.007812 11.355469 8.964844 11.339844 8.921875 11.417969 C 8.902344 11.457031 8.902344 11.484375 8.925781 11.507812 C 8.980469 11.5625 9.007812 11.546875 9.007812 11.453125 Z M 9.878906 11.054688 C 10.257812 10.765625 10.921875 10.171875 11.082031 9.976562 C 11.242188 9.785156 11.246094 9.734375 11.097656 9.796875 C 11.039062 9.820312 10.972656 9.835938 10.953125 9.828125 C 10.90625 9.808594 10.476562 10.019531 10.234375 10.183594 C 10.097656 10.273438 10.035156 10.332031 10.035156 10.371094 C 10.035156 10.40625 9.976562 10.507812 9.90625 10.597656 C 9.746094 10.808594 9.621094 11.160156 9.710938 11.160156 C 9.722656 11.160156 9.800781 11.113281 9.878906 11.054688 Z M 8.757812 10.933594 C 8.824219 10.890625 8.984375 10.773438 9.117188 10.667969 C 9.320312 10.507812 9.367188 10.453125 9.414062 10.328125 C 9.488281 10.125 9.535156 9.8125 9.535156 9.5 L 9.535156 9.246094 L 9.472656 9.300781 C 9.378906 9.386719 8.996094 9.902344 8.875 10.105469 C 8.769531 10.292969 8.621094 10.695312 8.582031 10.902344 C 8.558594 11.039062 8.59375 11.042969 8.757812 10.933594 Z M 5.449219 10.660156 C 5.527344 10.644531 5.609375 10.617188 5.632812 10.601562 C 5.671875 10.578125 5.671875 10.570312 5.632812 10.53125 C 5.609375 10.507812 5.507812 10.457031 5.402344 10.414062 L 5.21875 10.335938 L 4.878906 10.382812 C 4.691406 10.410156 4.523438 10.4375 4.507812 10.449219 C 4.476562 10.46875 4.699219 10.558594 4.972656 10.632812 C 5.214844 10.699219 5.261719 10.699219 5.449219 10.660156 Z M 6.714844 10.585938 C 6.890625 10.550781 6.824219 10.394531 6.4375 9.925781 C 6.226562 9.671875 6.023438 9.492188 5.753906 9.316406 C 5.554688 9.1875 5.457031 9.167969 5.402344 9.238281 C 5.351562 9.292969 5.414062 9.421875 5.734375 9.957031 C 6.074219 10.519531 6.113281 10.566406 6.226562 10.582031 C 6.394531 10.601562 6.621094 10.601562 6.714844 10.585938 Z M 7.285156 10.226562 C 7.273438 9.710938 6.792969 8.757812 6.269531 8.203125 C 6.15625 8.085938 5.902344 7.871094 5.703125 7.730469 C 5.503906 7.582031 5.089844 7.230469 4.769531 6.929688 C 4.097656 6.300781 3.902344 6.15625 3.902344 6.273438 C 3.902344 6.40625 4.433594 7.574219 4.691406 8.003906 C 4.960938 8.460938 5.15625 8.6875 5.300781 8.714844 C 5.355469 8.722656 5.410156 8.726562 5.417969 8.714844 C 5.4375 8.695312 5.320312 8.523438 5.015625 8.117188 C 4.773438 7.796875 4.578125 7.453125 4.617188 7.414062 C 4.671875 7.363281 5.125 7.925781 5.472656 8.476562 C 5.535156 8.574219 5.769531 8.84375 5.996094 9.078125 C 6.480469 9.574219 6.714844 9.839844 7.011719 10.214844 C 7.257812 10.53125 7.292969 10.53125 7.285156 10.226562 Z M 10.011719 10.027344 C 10.066406 10 10.285156 9.867188 10.503906 9.726562 C 10.953125 9.445312 11.296875 9.273438 11.53125 9.214844 C 11.671875 9.179688 11.699219 9.160156 11.746094 9.066406 C 11.773438 9.003906 11.800781 8.90625 11.804688 8.847656 L 11.808594 8.738281 L 11.570312 8.714844 C 11.339844 8.691406 11.328125 8.691406 11.144531 8.777344 C 11.042969 8.828125 10.898438 8.882812 10.828125 8.898438 C 10.6875 8.929688 10.527344 9.066406 10.375 9.285156 C 10.324219 9.363281 10.167969 9.542969 10.027344 9.691406 C 9.828125 9.902344 9.769531 9.980469 9.769531 10.046875 C 9.769531 10.125 9.777344 10.128906 9.84375 10.105469 C 9.882812 10.089844 9.960938 10.054688 10.011719 10.027344 Z M 9.027344 9.039062 C 9.222656 8.835938 9.542969 8.382812 9.660156 8.148438 C 9.761719 7.941406 9.785156 7.863281 9.796875 7.671875 C 9.8125 7.46875 9.808594 7.441406 9.769531 7.464844 C 9.6875 7.515625 9.59375 7.605469 9.59375 7.636719 C 9.59375 7.652344 9.515625 7.757812 9.414062 7.867188 C 9.144531 8.171875 9.058594 8.375 8.902344 9.070312 C 8.882812 9.160156 8.921875 9.152344 9.027344 9.039062 Z M 7.339844 8.777344 C 7.320312 8.613281 7.300781 8.386719 7.289062 8.277344 C 7.269531 8.003906 7.15625 7.664062 7.023438 7.472656 C 6.84375 7.207031 6.402344 6.964844 5.964844 6.894531 L 5.84375 6.871094 L 5.898438 7.023438 C 5.96875 7.222656 7.316406 9.132812 7.359375 9.09375 C 7.367188 9.085938 7.359375 8.941406 7.339844 8.777344 Z M 11.878906 8.507812 C 11.949219 8.417969 12.292969 7.238281 12.292969 7.082031 C 12.292969 6.96875 12.261719 6.957031 12.140625 7.03125 C 11.996094 7.121094 11.785156 7.378906 11.660156 7.625 C 11.601562 7.738281 11.46875 7.953125 11.363281 8.105469 C 11.148438 8.421875 11.148438 8.421875 11.429688 8.5 C 11.710938 8.578125 11.820312 8.578125 11.878906 8.507812 Z M 10.714844 8.316406 C 10.945312 8.316406 10.976562 8.308594 11.058594 8.238281 C 11.117188 8.191406 11.214844 8.027344 11.320312 7.820312 C 11.460938 7.527344 11.488281 7.449219 11.496094 7.28125 C 11.507812 7.085938 11.507812 7.082031 11.433594 7.082031 C 11.289062 7.082031 10.667969 7.707031 10.558594 7.960938 C 10.527344 8.03125 10.464844 8.136719 10.414062 8.199219 C 10.308594 8.332031 10.304688 8.355469 10.394531 8.332031 C 10.429688 8.324219 10.574219 8.316406 10.714844 8.316406 Z M 10.238281 7.78125 C 10.433594 7.664062 11.089844 7.105469 11.3125 6.871094 C 11.472656 6.699219 11.566406 6.566406 11.65625 6.382812 C 11.722656 6.242188 11.835938 6.054688 11.90625 5.960938 C 11.980469 5.863281 12.089844 5.652344 12.175781 5.445312 C 12.25 5.253906 12.328125 5.070312 12.347656 5.035156 C 12.40625 4.925781 12.320312 4.953125 12.113281 5.109375 C 12.011719 5.1875 11.859375 5.289062 11.777344 5.335938 C 11.636719 5.417969 11.582031 5.484375 11.132812 6.15625 C 10.835938 6.605469 10.609375 6.910156 10.558594 6.941406 C 10.511719 6.96875 10.472656 7.011719 10.472656 7.035156 C 10.472656 7.058594 10.417969 7.140625 10.351562 7.21875 C 10.222656 7.367188 10.113281 7.589844 10.082031 7.75 C 10.0625 7.863281 10.09375 7.871094 10.238281 7.78125 Z M 12.84375 7.429688 C 12.960938 7.296875 13.070312 7.179688 13.085938 7.175781 C 13.132812 7.160156 13.117188 7.253906 13.058594 7.375 C 13.027344 7.433594 13.007812 7.492188 13.019531 7.503906 C 13.0625 7.546875 13.347656 7.339844 13.582031 7.09375 C 13.839844 6.824219 14.183594 6.347656 14.277344 6.128906 C 14.335938 5.992188 14.410156 5.695312 14.390625 5.679688 C 14.351562 5.640625 13.867188 5.808594 13.644531 5.933594 C 13.503906 6.011719 13.300781 6.125 13.1875 6.183594 C 12.925781 6.324219 12.859375 6.378906 12.804688 6.515625 C 12.777344 6.578125 12.691406 6.734375 12.609375 6.867188 C 12.480469 7.082031 12.457031 7.140625 12.40625 7.433594 C 12.378906 7.617188 12.359375 7.777344 12.367188 7.789062 C 12.402344 7.847656 12.636719 7.671875 12.84375 7.429688 Z M 7.480469 7.015625 C 7.5625 6.59375 7.558594 6.503906 7.445312 6.222656 C 7.332031 5.9375 6.730469 4.71875 6.609375 4.527344 C 6.515625 4.382812 6.113281 4.058594 5.914062 3.96875 C 5.847656 3.9375 5.742188 3.914062 5.679688 3.914062 C 5.570312 3.914062 5.566406 3.914062 5.585938 4.007812 C 5.609375 4.144531 5.890625 4.6875 6.273438 5.347656 C 6.453125 5.65625 6.761719 6.234375 6.957031 6.621094 C 7.152344 7.011719 7.328125 7.347656 7.34375 7.371094 C 7.390625 7.429688 7.410156 7.378906 7.480469 7.015625 Z M 6.601562 6.707031 C 6.601562 6.597656 5.292969 5.117188 5.199219 5.117188 C 5.15625 5.117188 5.136719 5.417969 5.164062 5.640625 C 5.195312 5.882812 5.324219 6.289062 5.410156 6.414062 C 5.503906 6.554688 5.648438 6.609375 6.0625 6.667969 C 6.507812 6.734375 6.601562 6.738281 6.601562 6.707031 Z M 7.992188 6.578125 C 8.019531 6.4375 8.011719 5.769531 7.980469 5.433594 C 7.910156 4.765625 7.800781 4.417969 7.394531 3.5625 C 7.238281 3.230469 7.097656 2.917969 7.085938 2.863281 C 7.074219 2.804688 7.054688 2.773438 7.039062 2.789062 C 6.980469 2.847656 6.894531 3.359375 6.890625 3.699219 L 6.882812 4.046875 L 7.109375 4.648438 C 7.34375 5.269531 7.378906 5.347656 7.40625 5.316406 C 7.417969 5.308594 7.433594 5.195312 7.441406 5.0625 C 7.453125 4.929688 7.472656 4.816406 7.484375 4.808594 C 7.535156 4.777344 7.691406 5.171875 7.746094 5.464844 C 7.761719 5.554688 7.789062 5.78125 7.804688 5.964844 C 7.835938 6.308594 7.910156 6.671875 7.949219 6.671875 C 7.964844 6.671875 7.980469 6.628906 7.992188 6.578125 Z M 12.347656 5.71875 C 12.53125 5.417969 12.617188 5.25 12.617188 5.1875 C 12.617188 5.144531 12.605469 5.144531 12.546875 5.203125 C 12.472656 5.269531 12.140625 5.894531 12.105469 6.027344 L 12.085938 6.097656 L 12.144531 6.027344 C 12.179688 5.984375 12.269531 5.847656 12.347656 5.71875 Z M 13.507812 4.183594 C 13.589844 4.078125 13.539062 4.074219 13.378906 4.175781 C 13.234375 4.269531 12.96875 4.539062 12.96875 4.589844 C 12.96875 4.628906 13.445312 4.265625 13.507812 4.183594 Z M 8.117188 4.058594 C 8.199219 3.597656 8.183594 2.171875 8.097656 2.226562 C 8.054688 2.253906 8.011719 2.597656 7.996094 3.046875 C 7.988281 3.289062 7.960938 3.585938 7.9375 3.703125 C 7.890625 3.921875 7.90625 4.144531 7.984375 4.347656 C 8.007812 4.414062 8.019531 4.421875 8.039062 4.378906 C 8.054688 4.355469 8.089844 4.207031 8.117188 4.058594 Z M 6.160156 3.835938 C 6.160156 3.824219 6.03125 3.644531 5.871094 3.433594 C 5.710938 3.222656 5.484375 2.898438 5.363281 2.710938 C 5.238281 2.527344 5.101562 2.328125 5.050781 2.269531 L 4.960938 2.167969 L 4.960938 2.265625 C 4.957031 2.371094 5.210938 3.003906 5.253906 3.003906 C 5.265625 3.003906 5.285156 2.992188 5.296875 2.976562 C 5.304688 2.960938 5.324219 2.945312 5.339844 2.945312 C 5.367188 2.945312 5.65625 3.375 5.742188 3.546875 C 5.808594 3.675781 5.867188 3.738281 6 3.804688 C 6.09375 3.855469 6.160156 3.867188 6.160156 3.835938 Z M 7.515625 2.792969 C 7.53125 2.328125 7.5 2.03125 7.40625 1.742188 C 7.289062 1.363281 7.054688 0.957031 6.992188 1.019531 C 6.964844 1.046875 6.976562 1.636719 7.007812 1.773438 C 7.023438 1.855469 7.042969 1.875 7.089844 1.867188 C 7.148438 1.859375 7.15625 1.878906 7.1875 2.160156 C 7.234375 2.550781 7.410156 3.121094 7.484375 3.121094 C 7.496094 3.121094 7.511719 2.972656 7.515625 2.792969 Z M 8.433594 2.117188 C 8.476562 1.921875 8.480469 1.847656 8.453125 1.824219 C 8.429688 1.796875 8.402344 1.808594 8.34375 1.863281 C 8.273438 1.933594 8.273438 1.949219 8.300781 2.054688 C 8.316406 2.117188 8.332031 2.226562 8.332031 2.300781 C 8.332031 2.488281 8.375 2.414062 8.433594 2.117188 Z M 3.785156 13.570312 C 3.785156 13.53125 3.902344 13.4375 3.921875 13.457031 C 3.933594 13.46875 3.917969 13.503906 3.886719 13.535156 C 3.832031 13.597656 3.785156 13.613281 3.785156 13.570312 Z M 11.125 13.136719 C 11.136719 13.070312 11.222656 13.0625 11.222656 13.125 C 11.222656 13.148438 11.199219 13.171875 11.167969 13.179688 C 11.128906 13.1875 11.117188 13.175781 11.125 13.136719 Z M 13.382812 11.519531 C 13.316406 11.507812 13.234375 11.382812 13.273438 11.34375 C 13.285156 11.332031 13.339844 11.375 13.402344 11.433594 C 13.460938 11.492188 13.496094 11.539062 13.480469 11.539062 C 13.464844 11.535156 13.421875 11.527344 13.382812 11.519531 Z M 14.976562 11.261719 C 14.503906 11.125 14.519531 11.082031 15 11.203125 C 15.253906 11.265625 15.566406 11.394531 15.460938 11.390625 C 15.4375 11.390625 15.21875 11.332031 14.976562 11.261719 Z M 15.5625 9.808594 C 15.550781 9.792969 15.554688 9.761719 15.574219 9.746094 C 15.613281 9.707031 15.703125 9.742188 15.6875 9.789062 C 15.671875 9.835938 15.589844 9.851562 15.5625 9.808594 Z M 0.667969 9.585938 C 0.65625 9.578125 0.652344 9.558594 0.660156 9.546875 C 0.679688 9.515625 0.792969 9.546875 0.792969 9.578125 C 0.792969 9.609375 0.695312 9.613281 0.667969 9.585938 Z M 15.101562 9.304688 C 15.007812 9.285156 14.933594 9.265625 14.933594 9.253906 C 14.933594 9.226562 15.21875 9.167969 15.460938 9.148438 L 15.652344 9.136719 L 15.535156 9.179688 C 15.46875 9.203125 15.394531 9.25 15.367188 9.28125 C 15.34375 9.316406 15.308594 9.339844 15.296875 9.335938 C 15.28125 9.335938 15.195312 9.320312 15.101562 9.304688 Z M 0.617188 8.601562 C 0.445312 8.566406 0.414062 8.53125 0.527344 8.511719 C 0.628906 8.488281 0.828125 8.546875 0.84375 8.601562 C 0.859375 8.644531 0.804688 8.644531 0.617188 8.601562 Z M 14.804688 8.582031 C 14.78125 8.542969 14.921875 8.492188 15.054688 8.492188 C 15.164062 8.492188 15.375 8.558594 15.375 8.589844 C 15.375 8.617188 14.820312 8.609375 14.804688 8.582031 Z M 15.476562 7.933594 C 15.464844 7.917969 15.480469 7.902344 15.503906 7.902344 C 15.527344 7.902344 15.550781 7.917969 15.550781 7.933594 C 15.550781 7.949219 15.539062 7.960938 15.523438 7.960938 C 15.507812 7.960938 15.484375 7.949219 15.476562 7.933594 Z M 2.023438 7.640625 C 1.914062 7.546875 1.945312 7.523438 2.085938 7.597656 C 2.132812 7.621094 2.171875 7.660156 2.171875 7.683594 C 2.171875 7.746094 2.140625 7.738281 2.023438 7.640625 Z M 0.945312 7.523438 C 0.738281 7.449219 0.554688 7.335938 0.621094 7.324219 C 0.671875 7.3125 1.167969 7.503906 1.21875 7.554688 C 1.265625 7.601562 1.113281 7.582031 0.945312 7.523438 Z M 0.335938 7.167969 C 0.304688 7.117188 0.339844 7.109375 0.398438 7.15625 C 0.449219 7.191406 0.449219 7.199219 0.40625 7.199219 C 0.378906 7.199219 0.347656 7.1875 0.335938 7.167969 Z M 1.445312 5.757812 C 1.378906 5.734375 1.359375 5.691406 1.40625 5.660156 C 1.429688 5.644531 1.546875 5.753906 1.523438 5.773438 C 1.515625 5.78125 1.480469 5.773438 1.445312 5.757812 Z M 13.613281 5.359375 C 13.675781 5.183594 13.746094 4.996094 13.769531 4.941406 L 13.8125 4.839844 L 13.816406 4.933594 C 13.820312 5.035156 13.84375 5.046875 13.941406 4.996094 C 13.972656 4.980469 14.019531 4.96875 14.042969 4.976562 C 14.105469 4.988281 13.886719 5.261719 13.8125 5.261719 C 13.777344 5.261719 13.757812 5.28125 13.761719 5.316406 C 13.765625 5.34375 13.765625 5.382812 13.761719 5.402344 C 13.757812 5.445312 13.558594 5.675781 13.523438 5.675781 C 13.511719 5.675781 13.550781 5.53125 13.613281 5.359375 Z M 12.351562 3.714844 C 12.351562 3.679688 12.46875 3.324219 12.496094 3.277344 C 12.539062 3.199219 12.558594 3.28125 12.523438 3.402344 C 12.476562 3.582031 12.351562 3.808594 12.351562 3.714844 Z M 3.699219 2.234375 C 3.652344 2.109375 3.632812 1.96875 3.664062 1.988281 C 3.707031 2.015625 3.785156 2.265625 3.753906 2.285156 C 3.738281 2.296875 3.714844 2.273438 3.699219 2.234375 Z M 12.734375 1.898438 C 12.734375 1.855469 12.789062 1.789062 12.804688 1.804688 C 12.828125 1.828125 12.792969 1.917969 12.757812 1.917969 C 12.746094 1.917969 12.734375 1.910156 12.734375 1.898438 Z M 5.253906 0.785156 C 5.191406 0.703125 5.171875 0.640625 5.222656 0.671875 C 5.253906 0.691406 5.351562 0.863281 5.328125 0.863281 C 5.320312 0.863281 5.289062 0.828125 5.253906 0.785156 Z M 5.253906 0.785156 "/>
</g>
</svg>
