
<svg xmlns="http://www.w3.org/2000/svg" xmlns:xlink="http://www.w3.org/1999/xlink" width="16px" height="16px" viewBox="0 0 16 16" version="1.1">
<g id="surface1">
<path style=" stroke:none;fill-rule:evenodd;fill:#ff6666;fill-opacity:1;" d="M 0 0.890625 L 4.195312 0.890625 L 4.195312 5.085938 L 0 5.085938 Z M 5.929688 0.914062 L 10.125 0.914062 L 10.125 5.109375 L 5.929688 5.109375 Z M 11.804688 0.914062 L 16 0.914062 L 16 5.109375 L 11.804688 5.109375 Z M 0 5.890625 L 4.195312 5.890625 L 4.195312 10.085938 L 0 10.085938 Z M 5.929688 5.914062 L 10.125 5.914062 L 10.125 10.109375 L 5.929688 10.109375 Z M 11.804688 5.914062 L 16 5.914062 L 16 10.109375 L 11.804688 10.109375 Z M 0 10.890625 L 4.195312 10.890625 L 4.195312 15.085938 L 0 15.085938 Z M 5.929688 10.914062 L 10.125 10.914062 L 10.125 15.109375 L 5.929688 15.109375 Z M 11.804688 10.914062 L 16 10.914062 L 16 15.109375 L 11.804688 15.109375 Z M 11.804688 10.914062 "/>
</g>
</svg>
