
<svg xmlns="http://www.w3.org/2000/svg" xmlns:xlink="http://www.w3.org/1999/xlink" width="16px" height="16px" viewBox="0 0 16 16" version="1.1">
<g id="surface1">
<path style=" stroke:none;fill-rule:evenodd;fill:#ff6666;fill-opacity:1;" d="M 2.960938 6.953125 L 5.199219 6.953125 L 4.351562 4.710938 C 4.21875 4.382812 4.128906 4.125 4.078125 3.9375 C 4.03125 4.125 3.941406 4.382812 3.808594 4.710938 Z M 12.878906 10.386719 C 12.230469 10.386719 11.664062 10.257812 11.179688 9.996094 C 10.695312 9.738281 10.320312 9.390625 10.050781 8.953125 C 9.777344 8.511719 9.578125 8.042969 9.453125 7.542969 C 9.324219 7.042969 9.261719 6.507812 9.261719 5.941406 C 9.261719 5.417969 9.328125 4.90625 9.457031 4.410156 C 9.589844 3.914062 9.789062 3.441406 10.0625 2.996094 C 10.332031 2.546875 10.710938 2.1875 11.191406 1.910156 C 11.675781 1.636719 12.238281 1.5 12.878906 1.5 C 13.652344 1.5 14.300781 1.6875 14.828125 2.066406 C 15.359375 2.441406 15.734375 2.902344 15.957031 3.445312 L 14.46875 4.121094 C 14.238281 3.769531 14.003906 3.511719 13.765625 3.347656 C 13.527344 3.183594 13.234375 3.101562 12.878906 3.101562 C 12.429688 3.101562 12.054688 3.253906 11.753906 3.5625 C 11.453125 3.871094 11.25 4.226562 11.144531 4.632812 C 11.039062 5.039062 10.984375 5.476562 10.984375 5.941406 C 10.984375 6.691406 11.144531 7.351562 11.46875 7.925781 C 11.792969 8.5 12.265625 8.785156 12.878906 8.785156 C 13.480469 8.785156 14 8.417969 14.441406 7.679688 L 15.96875 8.257812 C 15.328125 9.675781 14.300781 10.386719 12.878906 10.386719 Z M 8.191406 10.25 L 6.40625 10.25 L 5.742188 8.464844 L 2.417969 8.464844 L 1.753906 10.25 L -0.03125 10.25 L 3.265625 1.636719 L 4.890625 1.636719 Z M -0.03125 12.5 L 15.96875 12.5 L 15.96875 14.5 L -0.03125 14.5 Z M -0.03125 12.5 "/>
</g>
</svg>
