
<svg xmlns="http://www.w3.org/2000/svg" xmlns:xlink="http://www.w3.org/1999/xlink" width="16px" height="16px" viewBox="0 0 16 16" version="1.1">
<g id="surface1">
<path style=" stroke:none;fill-rule:nonzero;fill:#ff6666;fill-opacity:1;" d="M 12.601562 2.371094 L 10.410156 7.238281 L 9.773438 7.238281 L 12.113281 2.085938 L 8.5 2.085938 L 8.5 14.121094 C 9.246094 14.152344 13.039062 15.382812 13.039062 15.382812 L 13.039062 16 L 2.839844 16 L 2.839844 15.34375 C 2.839844 15.34375 6.636719 14.121094 7.21875 14.121094 L 7.21875 2.085938 L 3.808594 2.085938 L 6.144531 7.238281 L 5.507812 7.238281 L 3.316406 2.371094 L 1.125 7.238281 L 0.488281 7.238281 L 2.839844 2.03125 L 2.839844 1.429688 L 6.761719 1.429688 C 6.761719 0.644531 7.289062 0 7.902344 0 C 8.550781 0 9.042969 0.675781 9.042969 1.429688 L 13.039062 1.429688 L 13.039062 1.941406 L 15.429688 7.238281 L 14.792969 7.238281 Z M 6.1875 7.910156 C 6.1875 9.472656 5.101562 10.898438 3.320312 10.898438 C 1.574219 10.898438 0.449219 9.472656 0.449219 7.910156 C 0.445312 7.914062 6.1875 7.914062 6.1875 7.910156 Z M 9.8125 7.910156 C 9.8125 7.910156 15.550781 7.910156 15.550781 7.910156 C 15.550781 9.472656 14.464844 10.898438 12.679688 10.898438 C 10.9375 10.898438 9.8125 9.472656 9.8125 7.910156 Z M 9.8125 7.910156 "/>
</g>
</svg>
