
<svg xmlns="http://www.w3.org/2000/svg" xmlns:xlink="http://www.w3.org/1999/xlink" width="16px" height="16px" viewBox="0 0 16 16" version="1.1">
<g id="surface1">
<path style=" stroke:none;fill-rule:evenodd;fill:#ff6666;fill-opacity:1;" d="M 7.890625 0.5 C 8.03125 0.5 8.195312 0.496094 8.328125 0.5 C 9.367188 0.535156 10.589844 0.878906 11.625 1.5 C 8.984375 3.5 8.9375 3.570312 7.828125 4.75 C 7.5 5.101562 7.175781 5.429688 6.863281 5.78125 C 6.664062 5.988281 6.46875 6.160156 6.269531 6.375 C 6.234375 6.417969 6.179688 6.453125 6.144531 6.5 C 5.910156 5.441406 3.046875 6.367188 2.996094 3.78125 C 2.945312 1.304688 5.78125 0.53125 7.890625 0.5 Z M 5.988281 2.03125 C 5.160156 2.03125 4.488281 2.703125 4.488281 3.53125 C 4.488281 4.359375 5.160156 5.027344 5.988281 5.03125 C 6.816406 5.03125 7.484375 4.359375 7.488281 3.53125 C 7.488281 2.703125 6.816406 2.03125 5.988281 2.03125 Z M 13.257812 2.695312 L 13.257812 2.691406 C 14.566406 4.03125 15.792969 6.0625 15.972656 8.3125 C 16.386719 13.550781 12.257812 16.128906 8.359375 15.371094 C 5.925781 14.902344 5.179688 13.625 5.117188 12.15625 C 6.328125 11.003906 7.425781 9.953125 8.265625 9.0625 C 8.726562 8.59375 9.25 7.9375 9.890625 7.28125 C 10.890625 6.25 11.839844 4.925781 13.257812 2.695312 Z M 13.601562 6.5 C 13.050781 6.5 12.601562 6.945312 12.601562 7.5 C 12.601562 8.050781 13.050781 8.5 13.601562 8.5 C 14.152344 8.5 14.601562 8.050781 14.601562 7.5 C 14.601562 6.945312 14.152344 6.5 13.601562 6.5 Z M 12.976562 9.5 C 12.425781 9.5 11.976562 9.945312 11.976562 10.5 C 11.976562 11.050781 12.425781 11.5 12.976562 11.5 C 13.527344 11.5 13.976562 11.050781 13.976562 10.5 C 13.976562 9.945312 13.527344 9.5 12.976562 9.5 Z M 7.984375 11.5 C 7.433594 11.5 6.984375 11.945312 6.984375 12.5 C 6.984375 13.050781 7.433594 13.5 7.984375 13.5 C 8.527344 13.480469 8.953125 13.039062 8.953125 12.5 C 8.953125 11.960938 8.527344 11.515625 7.984375 11.5 Z M 10.980469 11.5 C 10.429688 11.5 9.980469 11.945312 9.980469 12.5 C 9.980469 13.050781 10.429688 13.5 10.980469 13.5 C 11.519531 13.480469 11.949219 13.039062 11.949219 12.5 C 11.949219 11.960938 11.519531 11.515625 10.980469 11.5 Z M 3.253906 11.628906 C 2.953125 11.453125 2.5625 11.4375 2.148438 11.710938 C 1.394531 12.210938 1.550781 13.996094 0 13.996094 C 0.148438 14.597656 1.734375 14.589844 2.808594 14.324219 C 3.820312 14.070312 4.132812 13.179688 3.9375 12.4375 C 3.910156 12.332031 3.863281 12.222656 3.789062 12.117188 C 5.792969 10.46875 7.183594 9.109375 8.144531 8.089844 C 8.382812 7.84375 8.671875 7.523438 8.992188 7.167969 C 10.199219 5.832031 11.917969 3.730469 14.035156 0.5 C 12.238281 1.800781 9.832031 3.804688 7.921875 5.835938 C 7.75 6.019531 7.582031 6.195312 7.417969 6.382812 C 7.316406 6.488281 7.207031 6.578125 7.101562 6.6875 C 7.039062 6.765625 6.976562 6.851562 6.914062 6.929688 C 5.613281 8.367188 4.324219 10.0625 3.253906 11.628906 Z M 3.253906 11.628906 "/>
</g>
</svg>
