
<svg xmlns="http://www.w3.org/2000/svg" xmlns:xlink="http://www.w3.org/1999/xlink" width="16px" height="16px" viewBox="0 0 16 16" version="1.1">
<g id="surface1">
<path style=" stroke:none;fill-rule:evenodd;fill:#ff6666;fill-opacity:1;" d="M 2.0625 0 C 0.921875 0 0 0.921875 0 2.0625 C 0 3.199219 0.925781 4.125 2.0625 4.125 C 3.199219 4.121094 4.121094 3.199219 4.125 2.0625 C 4.125 0.925781 3.199219 0 2.0625 0 Z M 13.9375 0 C 12.800781 0 11.875 0.925781 11.875 2.0625 C 11.878906 3.199219 12.800781 4.121094 13.9375 4.125 C 15.074219 4.125 16 3.199219 16 2.0625 C 16 0.921875 15.078125 0 13.9375 0 Z M 8 5.9375 C 6.859375 5.9375 5.9375 6.859375 5.9375 8 C 5.9375 9.140625 6.859375 10.0625 8 10.0625 C 9.140625 10.0625 10.0625 9.140625 10.0625 8 C 10.0625 6.859375 9.140625 5.9375 8 5.9375 Z M 2.0625 11.875 C 0.925781 11.875 0 12.800781 0 13.9375 C 0 15.078125 0.921875 16 2.0625 16 C 3.199219 16 4.125 15.074219 4.125 13.9375 C 4.121094 12.800781 3.199219 11.878906 2.0625 11.875 Z M 13.9375 11.875 C 12.800781 11.878906 11.878906 12.800781 11.875 13.9375 C 11.875 15.074219 12.800781 16 13.9375 16 C 15.078125 16 16 15.078125 16 13.9375 C 16 12.800781 15.074219 11.875 13.9375 11.875 Z M 13.9375 11.875 "/>
</g>
</svg>
