
<svg xmlns="http://www.w3.org/2000/svg" xmlns:xlink="http://www.w3.org/1999/xlink" width="16px" height="16px" viewBox="0 0 16 16" version="1.1">
<g id="surface1">
<path style=" stroke:none;fill-rule:nonzero;fill:#ff6666;fill-opacity:1;" d="M 0 3.882812 L 0 5.273438 L 16 5.273438 L 16 3.882812 Z M 0.882812 5.964844 L 0.882812 11.109375 L 0 11.109375 L 0 12.5 L 16 12.5 L 16 11.109375 L 10.613281 11.109375 L 10.613281 7.355469 L 13.394531 7.355469 L 13.394531 8.746094 L 11.308594 8.746094 L 11.308594 10.136719 L 14.78125 10.136719 L 14.78125 5.964844 L 9.222656 5.964844 L 9.222656 11.109375 L 2.273438 11.109375 L 2.273438 7.355469 L 5.054688 7.355469 L 5.054688 8.746094 L 2.96875 8.746094 L 2.96875 10.136719 L 6.445312 10.136719 L 6.445312 5.964844 Z M 0.882812 5.964844 "/>
</g>
</svg>
