
<svg xmlns="http://www.w3.org/2000/svg" xmlns:xlink="http://www.w3.org/1999/xlink" width="16px" height="16px" viewBox="0 0 16 16" version="1.1">
<g id="surface1">
<path style=" stroke:none;fill-rule:nonzero;fill:#ff6666;fill-opacity:1;" d="M 4.03125 15.964844 C 3.863281 15.902344 3.71875 15.796875 3.628906 15.671875 C 3.550781 15.554688 3.546875 15.539062 3.535156 15.046875 C 3.523438 14.492188 3.558594 14.199219 3.675781 13.863281 C 3.898438 13.210938 4.292969 12.660156 4.90625 12.140625 C 5.171875 11.917969 5.621094 11.601562 5.652344 11.617188 C 5.664062 11.625 5.765625 11.675781 5.882812 11.734375 C 6.261719 11.929688 6.863281 12.164062 7.304688 12.289062 C 7.351562 12.304688 7.3125 12.335938 7.101562 12.429688 C 6.773438 12.585938 6.488281 12.753906 6.511719 12.777344 C 6.519531 12.789062 7.039062 12.796875 7.671875 12.796875 L 8.816406 12.796875 L 9.078125 12.945312 C 9.222656 13.027344 9.480469 13.210938 9.648438 13.351562 L 9.957031 13.613281 L 7.738281 13.625 L 5.523438 13.636719 L 5.421875 13.804688 C 5.332031 13.957031 5.195312 14.265625 5.195312 14.324219 C 5.195312 14.339844 6.371094 14.347656 8 14.347656 C 9.542969 14.347656 10.804688 14.339844 10.804688 14.328125 C 10.804688 14.269531 10.691406 14.007812 10.605469 13.855469 C 10.230469 13.21875 9.5625 12.695312 8.632812 12.320312 C 8.445312 12.242188 8.015625 12.101562 7.675781 12.011719 C 6.523438 11.691406 5.679688 11.28125 4.960938 10.683594 C 4.191406 10.042969 3.730469 9.332031 3.574219 8.539062 C 3.515625 8.230469 3.53125 7.605469 3.605469 7.320312 C 3.835938 6.441406 4.445312 5.652344 5.394531 5.007812 C 5.511719 4.925781 5.621094 4.859375 5.636719 4.859375 C 5.652344 4.859375 5.777344 4.917969 5.914062 4.988281 C 6.3125 5.1875 6.746094 5.359375 7.304688 5.53125 C 7.351562 5.546875 7.316406 5.570312 7.117188 5.660156 C 6.984375 5.722656 6.785156 5.824219 6.675781 5.890625 L 6.472656 6.011719 L 8.816406 6.035156 L 9.023438 6.152344 C 9.371094 6.347656 9.910156 6.773438 9.910156 6.851562 C 9.910156 6.867188 9.140625 6.878906 7.710938 6.878906 L 5.511719 6.878906 L 5.402344 7.078125 C 5.273438 7.308594 5.183594 7.539062 5.210938 7.574219 C 5.238281 7.613281 10.761719 7.609375 10.789062 7.574219 C 10.820312 7.53125 10.691406 7.222656 10.554688 7.007812 C 10.191406 6.441406 9.539062 5.9375 8.710938 5.589844 C 8.480469 5.492188 8.148438 5.375 7.96875 5.328125 C 7.398438 5.183594 7.039062 5.066406 6.628906 4.898438 C 5.039062 4.25 3.949219 3.1875 3.605469 1.949219 C 3.570312 1.824219 3.550781 1.585938 3.539062 1.160156 C 3.523438 0.570312 3.527344 0.550781 3.59375 0.417969 C 3.714844 0.183594 4.035156 0 4.332031 0 C 4.761719 0 5.132812 0.324219 5.132812 0.703125 L 5.132812 0.828125 L 10.867188 0.828125 L 10.867188 0.703125 C 10.867188 0.324219 11.238281 0 11.667969 0 C 11.964844 0 12.285156 0.183594 12.40625 0.417969 C 12.472656 0.550781 12.476562 0.570312 12.460938 1.160156 C 12.441406 1.8125 12.421875 1.9375 12.25 2.363281 C 12.066406 2.824219 11.6875 3.34375 11.222656 3.765625 C 11.003906 3.964844 10.472656 4.359375 10.386719 4.386719 C 10.363281 4.394531 10.226562 4.339844 10.082031 4.269531 C 9.765625 4.105469 9.210938 3.882812 8.882812 3.78125 L 8.644531 3.707031 L 8.929688 3.570312 C 9.089844 3.492188 9.285156 3.390625 9.371094 3.339844 L 9.523438 3.246094 L 8.355469 3.230469 L 7.183594 3.21875 L 6.953125 3.089844 C 6.824219 3.019531 6.566406 2.835938 6.382812 2.675781 L 6.042969 2.390625 L 10.480469 2.367188 L 10.570312 2.226562 C 10.660156 2.082031 10.804688 1.757812 10.804688 1.691406 C 10.804688 1.660156 10.386719 1.65625 8 1.65625 C 5.683594 1.65625 5.195312 1.660156 5.195312 1.6875 C 5.195312 1.753906 5.324219 2.054688 5.425781 2.222656 C 5.761719 2.78125 6.464844 3.324219 7.316406 3.679688 C 7.621094 3.808594 7.824219 3.871094 8.460938 4.046875 C 9.738281 4.390625 10.921875 5.082031 11.617188 5.894531 C 12.175781 6.539062 12.429688 7.140625 12.460938 7.871094 C 12.496094 8.75 12.195312 9.503906 11.527344 10.226562 C 11.308594 10.460938 10.851562 10.847656 10.5625 11.039062 L 10.363281 11.167969 L 10.269531 11.121094 C 9.734375 10.847656 9.207031 10.632812 8.695312 10.484375 C 8.644531 10.472656 8.679688 10.449219 8.863281 10.363281 C 9.140625 10.238281 9.453125 10.054688 9.472656 10.011719 C 9.480469 9.988281 9.242188 9.980469 8.335938 9.980469 L 7.183594 9.980469 L 6.921875 9.832031 C 6.777344 9.75 6.519531 9.566406 6.351562 9.425781 L 6.042969 9.164062 L 8.257812 9.152344 L 10.46875 9.140625 L 10.5625 9 C 10.648438 8.867188 10.804688 8.519531 10.804688 8.457031 C 10.804688 8.4375 9.976562 8.429688 8 8.429688 C 6.457031 8.429688 5.195312 8.4375 5.195312 8.449219 C 5.195312 8.496094 5.296875 8.757812 5.359375 8.867188 C 5.394531 8.933594 5.476562 9.058594 5.542969 9.152344 C 5.648438 9.300781 5.726562 9.382812 6.011719 9.664062 C 6.109375 9.761719 6.605469 10.089844 6.855469 10.226562 C 7.21875 10.421875 7.664062 10.585938 8.316406 10.765625 C 8.988281 10.949219 9.519531 11.152344 9.988281 11.398438 C 10.976562 11.921875 11.789062 12.6875 12.148438 13.429688 C 12.410156 13.980469 12.480469 14.324219 12.464844 15.046875 C 12.453125 15.539062 12.449219 15.554688 12.371094 15.671875 C 12.210938 15.898438 11.949219 16.015625 11.636719 16 C 11.199219 15.976562 10.914062 15.742188 10.871094 15.359375 L 10.851562 15.1875 L 5.148438 15.1875 L 5.128906 15.359375 C 5.097656 15.628906 4.933594 15.835938 4.679688 15.941406 C 4.527344 16.003906 4.167969 16.015625 4.03125 15.964844 Z M 4.03125 15.964844 "/>
</g>
</svg>
