
<svg xmlns="http://www.w3.org/2000/svg" xmlns:xlink="http://www.w3.org/1999/xlink" width="16px" height="16px" viewBox="0 0 16 16" version="1.1">
<g id="surface1">
<path style=" stroke:none;fill-rule:nonzero;fill:#ff6666;fill-opacity:1;" d="M 4.464844 2.234375 C 3.4375 2.234375 2.601562 3.035156 2.601562 4.023438 C 2.613281 4.386719 2.640625 4.820312 2.851562 5.8125 C 2.890625 5.929688 3.035156 6.125 3.203125 6.335938 C 3.320312 6.890625 3.386719 7.34375 3.28125 7.921875 C 2.441406 8.605469 0.285156 8.914062 0.289062 9.625 L 0 11.75 C 0 12.453125 2.007812 13.023438 4.484375 13.023438 C 6.964844 13.023438 8.96875 12.453125 8.96875 11.75 L 8.683594 9.625 C 8.679688 9.015625 6.511719 8.628906 5.679688 7.921875 C 5.613281 7.378906 5.664062 6.851562 5.773438 6.3125 C 5.917969 6.109375 6.039062 5.925781 6.078125 5.8125 C 6.3125 4.78125 6.3125 4.40625 6.328125 4.023438 C 6.328125 3.035156 5.492188 2.234375 4.464844 2.234375 Z M 4.464844 2.234375 "/>
<path style=" stroke:none;fill-rule:nonzero;fill:#ff6666;fill-opacity:1;" d="M 10.230469 0.746094 C 9.0625 0.746094 8.0625 1.417969 7.648438 2.371094 C 7.191406 1.597656 6.796875 0.777344 6.898438 1.488281 L 7.273438 4.09375 L 7.488281 3.949219 C 7.527344 4.40625 7.597656 4.960938 7.8125 5.953125 C 7.898438 6.203125 8.285156 6.640625 8.679688 7.0625 C 8.746094 7.546875 8.777344 8.015625 8.6875 8.554688 C 7.605469 9.453125 4.832031 9.859375 4.835938 10.789062 L 4.464844 13.578125 C 4.464844 14.503906 7.046875 15.253906 10.234375 15.253906 C 13.417969 15.253906 16 14.503906 16 13.578125 L 15.625 10.789062 C 15.621094 9.996094 12.835938 9.488281 11.765625 8.554688 C 11.710938 8.085938 11.730469 7.625 11.78125 7.160156 C 12.164062 6.707031 12.5625 6.222656 12.652344 5.953125 C 12.894531 4.925781 12.953125 4.386719 12.984375 3.945312 L 13.207031 4.09375 L 13.578125 1.488281 C 13.683594 0.769531 13.28125 1.613281 12.824219 2.390625 C 12.414062 1.429688 11.410156 0.746094 10.230469 0.746094 Z M 10.230469 0.746094 "/>
</g>
</svg>
