
<svg xmlns="http://www.w3.org/2000/svg" xmlns:xlink="http://www.w3.org/1999/xlink" width="16px" height="16px" viewBox="0 0 16 16" version="1.1">
<g id="surface1">
<path style=" stroke:none;fill-rule:nonzero;fill:#ff6666;fill-opacity:1;" d="M 4.269531 0 L 4.269531 1.222656 C 4.269531 1.292969 4.210938 1.347656 4.140625 1.347656 L 3.773438 1.347656 L 3.773438 2.128906 L 5.414062 2.128906 L 5.414062 1.347656 L 5.042969 1.347656 C 4.972656 1.347656 4.917969 1.292969 4.917969 1.222656 L 4.917969 0 Z M 6.539062 0 L 6.539062 1.222656 C 6.539062 1.292969 6.484375 1.347656 6.414062 1.347656 L 6.039062 1.347656 L 6.039062 2.128906 L 7.6875 2.128906 L 7.6875 1.347656 L 7.316406 1.347656 C 7.246094 1.347656 7.1875 1.292969 7.1875 1.222656 L 7.1875 0 Z M 8.8125 0 L 8.8125 1.222656 C 8.8125 1.292969 8.753906 1.347656 8.6875 1.347656 L 8.3125 1.347656 L 8.3125 2.128906 L 9.960938 2.128906 L 9.960938 1.347656 L 9.585938 1.347656 C 9.515625 1.347656 9.460938 1.292969 9.460938 1.222656 L 9.460938 0 Z M 11.082031 0 L 11.082031 1.222656 C 11.082031 1.292969 11.027344 1.347656 10.957031 1.347656 L 10.582031 1.347656 L 10.582031 2.128906 L 12.230469 2.128906 L 12.230469 1.347656 L 11.855469 1.347656 C 11.785156 1.347656 11.730469 1.292969 11.730469 1.222656 L 11.730469 0 Z M 4.398438 2.785156 C 3.492188 2.785156 2.757812 3.519531 2.757812 4.425781 L 2.757812 11.574219 C 2.757812 12.480469 3.492188 13.214844 4.398438 13.214844 L 11.605469 13.214844 C 12.511719 13.214844 13.246094 12.480469 13.246094 11.574219 L 13.246094 4.425781 C 13.246094 3.519531 12.511719 2.785156 11.605469 2.785156 Z M 4.484375 3.648438 L 5.710938 3.648438 C 5.898438 3.648438 6 3.875 5.875 4.015625 L 3.929688 6.265625 C 3.898438 6.304688 3.859375 6.328125 3.816406 6.339844 C 3.816406 6.339844 3.8125 6.339844 3.8125 6.339844 C 3.683594 6.367188 3.539062 6.273438 3.539062 6.121094 L 3.539062 4.59375 C 3.539062 4.074219 3.964844 3.648438 4.484375 3.648438 Z M 1.347656 3.773438 L 1.347656 4.144531 C 1.347656 4.214844 1.292969 4.273438 1.222656 4.273438 L 0 4.273438 L 0 4.917969 L 1.222656 4.917969 C 1.292969 4.917969 1.347656 4.972656 1.347656 5.042969 L 1.347656 5.417969 L 2.128906 5.417969 L 2.128906 3.773438 Z M 13.871094 3.773438 L 13.871094 5.417969 L 14.652344 5.417969 L 14.652344 5.042969 C 14.652344 4.972656 14.707031 4.917969 14.777344 4.917969 L 16 4.917969 L 16 4.269531 L 14.777344 4.269531 C 14.707031 4.269531 14.652344 4.210938 14.652344 4.140625 L 14.652344 3.773438 Z M 1.347656 6.039062 L 1.347656 6.414062 C 1.347656 6.484375 1.292969 6.539062 1.222656 6.539062 L 0 6.539062 L 0 7.1875 L 1.222656 7.1875 C 1.292969 7.1875 1.347656 7.246094 1.347656 7.3125 L 1.347656 7.6875 L 2.128906 7.6875 L 2.128906 6.039062 Z M 13.871094 6.039062 L 13.871094 7.6875 L 14.652344 7.6875 L 14.652344 7.316406 C 14.652344 7.246094 14.707031 7.1875 14.777344 7.1875 L 16 7.1875 L 16 6.539062 L 14.777344 6.539062 C 14.707031 6.539062 14.652344 6.484375 14.652344 6.414062 L 14.652344 6.039062 Z M 5.933594 6.804688 C 6.15625 6.804688 6.347656 6.871094 6.507812 6.996094 C 6.664062 7.125 6.769531 7.316406 6.8125 7.5625 L 6.828125 7.632812 L 6.828125 7.640625 L 6.25 7.640625 L 6.234375 7.589844 C 6.214844 7.511719 6.183594 7.445312 6.132812 7.398438 C 6.085938 7.351562 6.023438 7.328125 5.933594 7.328125 C 5.882812 7.328125 5.839844 7.335938 5.800781 7.351562 C 5.761719 7.371094 5.734375 7.394531 5.710938 7.421875 C 5.691406 7.441406 5.679688 7.460938 5.667969 7.484375 C 5.65625 7.503906 5.648438 7.539062 5.640625 7.578125 C 5.632812 7.621094 5.625 7.675781 5.625 7.742188 C 5.617188 7.8125 5.617188 7.894531 5.617188 8 C 5.617188 8.105469 5.617188 8.191406 5.625 8.257812 C 5.625 8.324219 5.632812 8.378906 5.640625 8.421875 C 5.648438 8.460938 5.65625 8.496094 5.667969 8.515625 C 5.679688 8.539062 5.691406 8.558594 5.707031 8.578125 C 5.734375 8.605469 5.761719 8.628906 5.800781 8.648438 C 5.839844 8.664062 5.882812 8.671875 5.933594 8.671875 C 6.023438 8.671875 6.089844 8.648438 6.132812 8.601562 C 6.183594 8.550781 6.222656 8.488281 6.242188 8.410156 L 6.25 8.359375 L 6.828125 8.359375 L 6.8125 8.4375 C 6.769531 8.683594 6.664062 8.875 6.507812 9.003906 C 6.347656 9.128906 6.15625 9.195312 5.933594 9.195312 C 5.796875 9.195312 5.671875 9.171875 5.570312 9.125 C 5.46875 9.082031 5.375 9.023438 5.289062 8.941406 C 5.230469 8.878906 5.179688 8.8125 5.148438 8.75 C 5.117188 8.683594 5.09375 8.609375 5.078125 8.53125 C 5.0625 8.460938 5.054688 8.378906 5.054688 8.289062 C 5.050781 8.203125 5.046875 8.105469 5.046875 8 C 5.046875 7.894531 5.050781 7.796875 5.054688 7.710938 C 5.054688 7.621094 5.0625 7.539062 5.078125 7.46875 C 5.09375 7.390625 5.117188 7.316406 5.148438 7.25 C 5.179688 7.1875 5.230469 7.121094 5.289062 7.058594 C 5.375 6.976562 5.46875 6.914062 5.570312 6.871094 C 5.671875 6.828125 5.796875 6.804688 5.933594 6.804688 Z M 7.25 6.882812 L 8.128906 6.882812 C 8.246094 6.882812 8.351562 6.902344 8.445312 6.9375 C 8.542969 6.976562 8.621094 7.03125 8.6875 7.09375 C 8.75 7.160156 8.800781 7.238281 8.835938 7.328125 C 8.871094 7.414062 8.890625 7.507812 8.890625 7.601562 C 8.890625 7.699219 8.871094 7.792969 8.835938 7.882812 C 8.800781 7.96875 8.75 8.046875 8.6875 8.109375 C 8.621094 8.179688 8.542969 8.230469 8.445312 8.269531 C 8.351562 8.308594 8.246094 8.324219 8.128906 8.324219 L 7.789062 8.324219 L 7.789062 9.117188 L 7.25 9.117188 Z M 9.230469 6.882812 L 9.773438 6.882812 L 9.773438 8.316406 C 9.773438 8.421875 9.796875 8.5 9.851562 8.554688 C 9.90625 8.613281 9.976562 8.640625 10.070312 8.640625 C 10.164062 8.640625 10.238281 8.613281 10.292969 8.554688 C 10.34375 8.5 10.371094 8.421875 10.371094 8.316406 L 10.371094 6.882812 L 10.910156 6.882812 L 10.910156 8.332031 C 10.910156 8.453125 10.886719 8.5625 10.84375 8.664062 C 10.800781 8.761719 10.738281 8.847656 10.660156 8.914062 C 10.585938 8.984375 10.496094 9.039062 10.394531 9.078125 C 10.296875 9.117188 10.1875 9.136719 10.070312 9.136719 C 9.953125 9.136719 9.84375 9.117188 9.742188 9.078125 C 9.644531 9.039062 9.550781 8.984375 9.476562 8.914062 C 9.398438 8.847656 9.339844 8.761719 9.296875 8.664062 C 9.253906 8.5625 9.230469 8.453125 9.230469 8.332031 Z M 7.722656 7.3125 L 7.722656 7.890625 L 8.109375 7.890625 C 8.203125 7.890625 8.277344 7.863281 8.332031 7.8125 C 8.386719 7.761719 8.410156 7.691406 8.414062 7.601562 C 8.414062 7.515625 8.386719 7.449219 8.332031 7.394531 C 8.277344 7.34375 8.203125 7.3125 8.109375 7.3125 Z M 1.347656 8.3125 L 1.347656 8.683594 C 1.347656 8.753906 1.292969 8.8125 1.222656 8.8125 L 0 8.8125 L 0 9.460938 L 1.222656 9.460938 C 1.292969 9.460938 1.347656 9.515625 1.347656 9.585938 L 1.347656 9.960938 L 2.128906 9.960938 L 2.128906 8.3125 Z M 13.871094 8.3125 L 13.871094 9.960938 L 14.652344 9.960938 L 14.652344 9.585938 C 14.652344 9.515625 14.707031 9.460938 14.777344 9.460938 L 16 9.460938 L 16 8.8125 L 14.777344 8.8125 C 14.707031 8.8125 14.652344 8.753906 14.652344 8.6875 L 14.652344 8.3125 Z M 1.347656 10.582031 L 1.347656 10.957031 C 1.347656 11.027344 1.292969 11.082031 1.222656 11.082031 L 0 11.082031 L 0 11.730469 L 1.222656 11.730469 C 1.292969 11.730469 1.347656 11.789062 1.347656 11.859375 L 1.347656 12.230469 L 2.128906 12.230469 L 2.128906 10.582031 Z M 13.871094 10.582031 L 13.871094 12.230469 L 14.652344 12.230469 L 14.652344 11.855469 C 14.652344 11.785156 14.707031 11.730469 14.777344 11.730469 L 16 11.730469 L 16 11.082031 L 14.777344 11.082031 C 14.707031 11.082031 14.652344 11.027344 14.652344 10.957031 L 14.652344 10.582031 Z M 3.773438 13.871094 L 3.773438 14.652344 L 4.144531 14.652344 C 4.214844 14.652344 4.273438 14.707031 4.273438 14.777344 L 4.273438 16 L 4.917969 16 L 4.917969 14.777344 C 4.917969 14.707031 4.972656 14.652344 5.042969 14.652344 L 5.414062 14.652344 L 5.414062 13.871094 Z M 6.039062 13.871094 L 6.039062 14.652344 L 6.414062 14.652344 C 6.484375 14.652344 6.539062 14.707031 6.539062 14.777344 L 6.539062 16 L 7.1875 16 L 7.1875 14.777344 C 7.1875 14.707031 7.246094 14.652344 7.3125 14.652344 L 7.6875 14.652344 L 7.6875 13.871094 Z M 8.3125 13.871094 L 8.3125 14.652344 L 8.683594 14.652344 C 8.753906 14.652344 8.8125 14.707031 8.8125 14.777344 L 8.8125 16 L 9.460938 16 L 9.460938 14.777344 C 9.460938 14.707031 9.515625 14.652344 9.585938 14.652344 L 9.960938 14.652344 L 9.960938 13.871094 Z M 10.582031 13.871094 L 10.582031 14.652344 L 10.957031 14.652344 C 11.027344 14.652344 11.082031 14.707031 11.082031 14.777344 L 11.082031 16 L 11.730469 16 L 11.730469 14.777344 C 11.730469 14.707031 11.789062 14.652344 11.859375 14.652344 L 12.230469 14.652344 L 12.230469 13.871094 Z M 10.582031 13.871094 "/>
</g>
</svg>
