
<svg xmlns="http://www.w3.org/2000/svg" xmlns:xlink="http://www.w3.org/1999/xlink" width="16px" height="16px" viewBox="0 0 16 16" version="1.1">
<g id="surface1">
<path style=" stroke:none;fill-rule:evenodd;fill:#ff6666;fill-opacity:1;" d="M 4.0625 0.5 C 3.507812 0.5 3.0625 0.945312 3.0625 1.5 C 3.0625 2.054688 3.507812 2.5 4.0625 2.5 L 7.09375 2.5 L 7.03125 6.5 L 2.875 6.5 L 1 14.5 L 1 15.5 L 15.0625 15.5 L 15.0625 14.5625 L 13.3125 6.5 L 9.0625 6.5 L 9.0625 9.5 L 11.0625 9.5 L 8.09375 12.5625 L 5.0625 9.5 L 7.03125 9.5 L 7.09375 6.5 L 9.0625 6.5 L 9.0625 2.5 L 12.0625 2.5 C 12.617188 2.5 13.0625 2.054688 13.0625 1.5 C 13.0625 0.945312 12.617188 0.5 12.0625 0.5 Z M 4.0625 0.5 "/>
</g>
</svg>
