
<svg xmlns="http://www.w3.org/2000/svg" xmlns:xlink="http://www.w3.org/1999/xlink" width="16px" height="16px" viewBox="0 0 16 16" version="1.1">
<g id="surface1">
<path style=" stroke:none;fill-rule:nonzero;fill:#ff6666;fill-opacity:1;" d="M 2.5 2.035156 C 1.679688 2.035156 1 2.714844 1 3.535156 L 1 12.535156 C 1 13.359375 1.679688 14.035156 2.5 14.035156 L 13.5 14.035156 C 14.320312 14.035156 15 13.359375 15 12.535156 L 15 3.535156 C 15 2.714844 14.320312 2.035156 13.5 2.035156 Z M 2.5 3.035156 L 6 3.035156 L 6 8 L 7 7 L 8 8 L 9 7.25 L 10 8 L 10 3.035156 L 13.5 3.035156 C 13.785156 3.035156 14 3.25 14 3.535156 L 14 12.535156 C 14 12.820312 13.785156 13.035156 13.5 13.035156 L 2.5 13.035156 C 2.367188 13.039062 2.238281 12.988281 2.144531 12.890625 C 2.046875 12.796875 1.996094 12.667969 2 12.535156 L 2 3.535156 C 2 3.25 2.214844 3.035156 2.5 3.035156 Z M 7 3.035156 L 9 3.035156 L 9 6 L 8.09375 6.679688 L 7 5.585938 Z M 7 3.035156 "/>
</g>
</svg>
