
<svg xmlns="http://www.w3.org/2000/svg" xmlns:xlink="http://www.w3.org/1999/xlink" width="16px" height="16px" viewBox="0 0 16 16" version="1.1">
<g id="surface1">
<path style=" stroke:none;fill-rule:nonzero;fill:#ff6666;fill-opacity:1;" d="M 7.464844 1.5 L 7.464844 2.042969 L 8.535156 2.042969 L 8.535156 1.5 Z M 7.464844 2.582031 L 7.464844 3.125 L 8.535156 3.125 L 8.535156 2.582031 Z M 7.464844 3.667969 L 7.464844 6.917969 L 3.734375 6.917969 C 3.699219 6.917969 3.660156 6.917969 3.628906 6.925781 C 1.984375 6.972656 0.554688 8.109375 0.128906 9.726562 C -0.308594 11.382812 0.40625 13.136719 1.867188 13.992188 C 3.316406 14.84375 5.148438 14.605469 6.339844 13.417969 L 9.660156 13.417969 C 10.851562 14.605469 12.683594 14.84375 14.132812 13.992188 C 15.59375 13.136719 16.308594 11.382812 15.871094 9.726562 C 15.445312 8.105469 14.011719 6.972656 12.367188 6.925781 C 12.332031 6.917969 12.300781 6.917969 12.265625 6.917969 L 8.535156 6.917969 L 8.535156 3.667969 Z M 3.734375 8 L 12.265625 8 C 13.476562 8 14.53125 8.820312 14.84375 10.007812 C 15.15625 11.195312 14.648438 12.441406 13.601562 13.054688 C 12.609375 13.636719 11.386719 13.503906 10.53125 12.753906 C 10.390625 12.613281 10.253906 12.332031 10.003906 12.335938 L 5.996094 12.335938 C 5.746094 12.332031 5.574219 12.625 5.472656 12.75 C 4.617188 13.5 3.390625 13.636719 2.398438 13.054688 C 1.351562 12.441406 0.84375 11.195312 1.160156 10.007812 C 1.472656 8.820312 2.523438 8 3.734375 8 Z M 3.199219 9.085938 L 3.199219 10.167969 L 2.132812 10.167969 L 2.132812 11.25 L 3.199219 11.25 L 3.199219 12.335938 L 4.265625 12.335938 L 4.265625 11.25 L 5.332031 11.25 L 5.332031 10.167969 L 4.265625 10.167969 L 4.265625 9.085938 Z M 12.265625 9.085938 C 11.972656 9.085938 11.734375 9.328125 11.734375 9.625 C 11.734375 9.925781 11.972656 10.167969 12.265625 10.167969 C 12.5625 10.167969 12.800781 9.925781 12.800781 9.625 C 12.800781 9.328125 12.5625 9.085938 12.265625 9.085938 Z M 11.199219 10.167969 C 10.90625 10.167969 10.667969 10.410156 10.667969 10.710938 C 10.667969 11.007812 10.90625 11.25 11.199219 11.25 C 11.496094 11.25 11.734375 11.007812 11.734375 10.710938 C 11.734375 10.410156 11.496094 10.167969 11.199219 10.167969 Z M 13.332031 10.167969 C 13.039062 10.167969 12.800781 10.410156 12.800781 10.710938 C 12.800781 11.007812 13.039062 11.25 13.332031 11.25 C 13.628906 11.25 13.867188 11.007812 13.867188 10.710938 C 13.867188 10.410156 13.628906 10.167969 13.332031 10.167969 Z M 12.265625 11.25 C 11.972656 11.25 11.734375 11.492188 11.734375 11.792969 C 11.734375 12.089844 11.972656 12.335938 12.265625 12.335938 C 12.5625 12.335938 12.800781 12.089844 12.800781 11.792969 C 12.800781 11.492188 12.5625 11.25 12.265625 11.25 Z M 12.265625 11.25 "/>
</g>
</svg>
