
<svg xmlns="http://www.w3.org/2000/svg" xmlns:xlink="http://www.w3.org/1999/xlink" width="16px" height="16px" viewBox="0 0 16 16" version="1.1">
<g id="surface1">
<path style=" stroke:none;fill-rule:nonzero;fill:#ff6666;fill-opacity:1;" d="M 4.992188 2 C 2.777344 2 -0.0234375 4.082031 0 7.296875 C 0.0234375 10.414062 1.082031 12.09375 1.882812 14 L 4.242188 13.03125 C 3.695312 11.933594 2.996094 10.835938 2.742188 10.296875 C 2.042969 8.773438 1.785156 8.097656 1.84375 6.9375 C 1.902344 5.816406 2.289062 5.136719 2.980469 4.476562 C 3.671875 3.816406 4.617188 3.476562 5.757812 3.632812 C 7.59375 3.882812 8.480469 4.984375 8.828125 5.882812 C 6.78125 6.113281 6.050781 7.554688 5.882812 8.914062 C 5.097656 8.644531 4.65625 8.015625 4.585938 7.101562 C 4.523438 6.21875 5.386719 5.335938 6.785156 5.785156 C 7.011719 5.855469 7.019531 5.457031 6.765625 5.257812 C 6.109375 4.734375 3.511719 4.933594 3.523438 6.976562 C 3.527344 8.578125 4.636719 9.726562 5.875 10.046875 C 6.089844 11.871094 8.390625 14 11.011719 14 C 13.222656 14 16.023438 11.917969 16 8.703125 C 15.976562 5.585938 14.917969 3.90625 14.117188 2 L 11.761719 2.96875 C 12.304688 4.066406 13.003906 5.164062 13.253906 5.703125 C 13.957031 7.226562 14.214844 7.902344 14.15625 9.0625 C 14.097656 10.183594 13.710938 10.863281 13.019531 11.527344 C 12.328125 12.183594 11.382812 12.523438 10.242188 12.367188 C 8.40625 12.117188 7.519531 11.015625 7.171875 10.113281 C 9.21875 9.886719 9.949219 8.445312 10.113281 7.085938 C 10.902344 7.355469 11.34375 7.984375 11.410156 8.898438 C 11.476562 9.78125 10.613281 10.664062 9.214844 10.214844 C 8.988281 10.144531 8.980469 10.542969 9.234375 10.746094 C 9.890625 11.265625 12.488281 11.066406 12.480469 9.023438 C 12.472656 7.421875 11.363281 6.273438 10.125 5.953125 C 9.910156 4.128906 7.609375 2 4.992188 2 Z M 9 6.960938 C 8.914062 7.726562 8.375 8.925781 7 9.039062 C 7.085938 8.273438 7.625 7.074219 9 6.960938 Z M 9 6.960938 "/>
</g>
</svg>
