
<svg xmlns="http://www.w3.org/2000/svg" xmlns:xlink="http://www.w3.org/1999/xlink" width="16px" height="16px" viewBox="0 0 16 16" version="1.1">
<g id="surface1">
<path style=" stroke:none;fill-rule:nonzero;fill:#ff6666;fill-opacity:1;" d="M 14.667969 15.492188 C 14.515625 15.472656 14.390625 15.402344 14.289062 15.296875 C 14.0625 15.058594 13.6875 14.355469 13.382812 13.589844 C 13.210938 13.164062 12.882812 12.21875 12.882812 12.15625 C 12.882812 12.132812 13.101562 11.992188 13.363281 11.84375 L 13.847656 11.566406 L 13.921875 11.636719 C 14.21875 11.914062 15.082031 13.175781 15.582031 14.078125 C 15.785156 14.4375 15.804688 14.488281 15.804688 14.636719 C 15.800781 14.835938 15.738281 14.972656 15.558594 15.167969 C 15.34375 15.402344 14.976562 15.535156 14.667969 15.492188 Z M 0.359375 15.257812 C 0.367188 15.230469 0.515625 14.582031 0.6875 13.8125 C 0.855469 13.042969 1 12.410156 1.003906 12.402344 C 1.019531 12.382812 2.554688 13.445312 2.554688 13.472656 C 2.554688 13.488281 2.109375 13.867188 1.566406 14.308594 C 0.34375 15.304688 0.339844 15.308594 0.359375 15.257812 Z M 1.988281 12.539062 C 1.558594 12.25 1.214844 12 1.21875 11.984375 C 1.226562 11.949219 4.910156 5.820312 4.941406 5.789062 C 4.957031 5.773438 6.566406 6.765625 6.640625 6.839844 C 6.65625 6.855469 2.828125 13.054688 2.796875 13.0625 C 2.78125 13.066406 2.417969 12.832031 1.988281 12.539062 Z M 12.09375 10.921875 C 11.800781 10.433594 11.5625 10.03125 11.570312 10.027344 C 11.621094 9.992188 12.734375 9.363281 12.746094 9.363281 C 12.765625 9.363281 13.699219 11.195312 13.6875 11.203125 C 13.566406 11.285156 12.675781 11.808594 12.65625 11.808594 C 12.640625 11.808594 12.386719 11.410156 12.09375 10.921875 Z M 0.0117188 10.828125 C 0 10.742188 -0.00390625 10.058594 0 9.304688 L 0.0117188 7.9375 L 1.554688 7.945312 C 2.402344 7.949219 3.101562 7.957031 3.105469 7.960938 C 3.109375 7.964844 2.703125 8.648438 2.199219 9.476562 L 1.28125 10.984375 L 0.03125 10.984375 Z M 4.640625 10.941406 C 4.640625 10.929688 5.0625 10.25 5.574219 9.421875 L 6.503906 7.917969 L 9.8125 7.917969 L 10.695312 9.367188 C 11.183594 10.164062 11.597656 10.847656 11.617188 10.882812 L 11.65625 10.953125 L 8.148438 10.953125 C 6.21875 10.953125 4.640625 10.945312 4.640625 10.9375 Z M 13.664062 10.300781 C 13.484375 9.9375 13.152344 9.261719 12.917969 8.796875 L 12.5 7.949219 L 13.640625 7.949219 C 14.273438 7.949219 15.058594 7.941406 15.394531 7.929688 L 16 7.910156 L 16 10.953125 L 13.988281 10.953125 L 13.664062 10.296875 Z M 11.109375 9.328125 C 10.433594 8.277344 9.742188 7.042969 8.910156 5.402344 C 8.253906 4.097656 7.621094 2.75 7.359375 2.097656 C 6.980469 1.148438 6.890625 0.5625 7.113281 0.507812 C 7.472656 0.417969 8.179688 1.222656 9.179688 2.863281 C 9.964844 4.148438 11.21875 6.394531 12.179688 8.230469 C 12.355469 8.570312 12.535156 8.902344 12.570312 8.96875 L 12.640625 9.09375 L 12.046875 9.433594 C 11.71875 9.621094 11.4375 9.777344 11.425781 9.777344 C 11.410156 9.777344 11.269531 9.574219 11.109375 9.328125 Z M 5.921875 6.074219 L 5.089844 5.535156 L 5.167969 5.410156 C 5.210938 5.34375 5.429688 5.003906 5.652344 4.652344 C 5.875 4.300781 6.0625 4.011719 6.066406 4.007812 C 6.070312 4.003906 6.445312 4.238281 6.898438 4.53125 L 7.726562 5.066406 L 7.601562 5.261719 C 7.535156 5.371094 7.332031 5.699219 7.148438 5.988281 C 6.96875 6.28125 6.804688 6.542969 6.789062 6.566406 C 6.757812 6.609375 6.640625 6.539062 5.921875 6.074219 Z M 6.984375 4.324219 C 6.554688 4.046875 6.199219 3.804688 6.199219 3.789062 C 6.199219 3.671875 6.554688 3.347656 6.730469 3.304688 C 7.023438 3.234375 7.496094 3.414062 7.761719 3.699219 C 7.964844 3.917969 8.007812 4.027344 7.988281 4.25 C 7.976562 4.421875 7.835938 4.824219 7.789062 4.824219 C 7.777344 4.824219 7.414062 4.597656 6.984375 4.320312 Z M 6.984375 4.324219 "/>
</g>
</svg>
