
<svg xmlns="http://www.w3.org/2000/svg" xmlns:xlink="http://www.w3.org/1999/xlink" width="16px" height="16px" viewBox="0 0 16 16" version="1.1">
<g id="surface1">
<path style=" stroke:none;fill-rule:nonzero;fill:#ff6666;fill-opacity:1;" d="M 6.925781 0 C 6.429688 0 6.414062 0.00390625 6.367188 0.0703125 C 6.332031 0.125 5.621094 1.621094 5.09375 2.75 C 5.039062 2.867188 4.863281 3.238281 4.707031 3.570312 C 4.359375 4.304688 3.683594 5.726562 3.523438 6.070312 C 3.460938 6.207031 3.28125 6.585938 3.128906 6.910156 C 2.828125 7.539062 2.691406 7.90625 2.605469 8.316406 C 2.558594 8.539062 2.558594 8.578125 2.59375 8.613281 C 2.632812 8.648438 3.292969 8.78125 3.71875 8.839844 C 4.050781 8.882812 3.867188 8.914062 3.25 8.914062 C 2.699219 8.914062 2.589844 8.917969 2.546875 8.960938 C 2.507812 9 2.5 9.09375 2.5 9.484375 C 2.5 9.808594 2.511719 9.96875 2.539062 9.992188 C 2.5625 10.019531 2.75 10.03125 3.171875 10.03125 C 3.5 10.03125 3.777344 10.042969 3.785156 10.054688 C 3.800781 10.078125 3.414062 10.160156 2.847656 10.25 C 2.726562 10.269531 2.605469 10.308594 2.585938 10.332031 C 2.507812 10.425781 2.726562 11.214844 2.984375 11.761719 C 3.230469 12.289062 3.574219 12.796875 3.972656 13.210938 C 4.085938 13.328125 4.175781 13.433594 4.175781 13.445312 C 4.175781 13.457031 4.128906 13.511719 4.066406 13.570312 C 3.90625 13.726562 3.921875 13.800781 4.148438 13.988281 C 5.054688 14.71875 6.132812 15.160156 7.328125 15.289062 C 7.398438 15.296875 7.691406 15.296875 7.980469 15.292969 C 8.78125 15.277344 9.390625 15.152344 10.121094 14.847656 C 10.710938 14.605469 11.632812 14.007812 11.65625 13.855469 C 11.660156 13.8125 11.621094 13.734375 11.550781 13.648438 L 11.433594 13.507812 L 11.6875 13.25 C 12.359375 12.570312 12.835938 11.722656 13.066406 10.789062 C 13.152344 10.441406 13.160156 10.398438 13.117188 10.355469 C 13.085938 10.324219 12.84375 10.265625 12.464844 10.199219 C 12.132812 10.140625 11.851562 10.09375 11.835938 10.09375 C 11.824219 10.09375 11.820312 10.078125 11.832031 10.058594 C 11.84375 10.039062 12.085938 10.03125 12.5 10.03125 C 12.859375 10.035156 13.164062 10.027344 13.179688 10.015625 C 13.230469 9.984375 13.222656 8.996094 13.175781 8.949219 C 13.148438 8.921875 12.941406 8.914062 12.429688 8.914062 C 11.75 8.914062 11.523438 8.878906 11.90625 8.835938 C 12.007812 8.828125 12.265625 8.78125 12.488281 8.742188 C 12.707031 8.699219 12.914062 8.664062 12.953125 8.664062 C 12.988281 8.664062 13.050781 8.636719 13.089844 8.605469 L 13.160156 8.550781 L 13.058594 8.164062 C 13.003906 7.953125 12.953125 7.75 12.945312 7.714844 C 12.929688 7.660156 12.957031 7.640625 13.148438 7.574219 C 13.308594 7.519531 13.375 7.484375 13.386719 7.4375 C 13.394531 7.402344 13.398438 7.003906 13.390625 6.550781 C 13.382812 5.746094 13.382812 5.722656 13.296875 5.476562 C 13.25 5.335938 13.195312 5.21875 13.175781 5.210938 C 13.152344 5.203125 12.953125 5.207031 12.730469 5.214844 L 12.328125 5.234375 L 12.234375 5.519531 C 12.183594 5.675781 12.128906 5.800781 12.113281 5.796875 C 12.097656 5.792969 11.953125 5.507812 11.792969 5.167969 C 9.984375 1.332031 9.390625 0.078125 9.355469 0.0390625 C 9.332031 0.0117188 9.183594 0 8.816406 0 C 8.347656 0 8.308594 0.00390625 8.277344 0.0585938 C 8.257812 0.0976562 8.246094 0.550781 8.246094 1.316406 L 8.246094 2.515625 L 7.5 2.515625 L 7.5 1.316406 C 7.5 0.550781 7.488281 0.0976562 7.46875 0.0585938 C 7.4375 0.00390625 7.398438 0 6.925781 0 Z M 6.546875 0.25 L 7.25 0.25 L 7.25 2.515625 L 7.171875 2.546875 C 7.105469 2.574219 7.09375 2.59375 7.089844 2.753906 C 7.085938 2.855469 7.082031 2.957031 7.082031 2.980469 C 7.078125 3.007812 7.066406 3.28125 7.050781 3.59375 C 7.027344 4.140625 7.023438 4.160156 6.960938 4.175781 C 6.128906 4.339844 5.464844 4.609375 4.84375 5.023438 C 4.691406 5.128906 4.4375 5.324219 4.277344 5.464844 C 4.121094 5.601562 3.992188 5.707031 3.992188 5.695312 C 3.992188 5.683594 4.089844 5.464844 4.210938 5.207031 C 4.335938 4.949219 4.492188 4.609375 4.566406 4.457031 C 4.636719 4.300781 5.0625 3.402344 5.511719 2.453125 C 5.957031 1.503906 6.375 0.621094 6.433594 0.488281 Z M 8.492188 0.25 L 9.191406 0.25 L 9.648438 1.21875 C 10.070312 2.113281 10.308594 2.617188 11.390625 4.914062 C 11.609375 5.371094 11.785156 5.753906 11.785156 5.761719 C 11.785156 5.800781 11.722656 5.753906 11.550781 5.582031 C 10.863281 4.890625 9.890625 4.402344 8.753906 4.175781 C 8.671875 4.160156 8.660156 4.058594 8.632812 3.308594 C 8.613281 2.71875 8.597656 2.59375 8.539062 2.542969 C 8.5 2.515625 8.492188 2.316406 8.492188 1.378906 Z M 6.570312 1.433594 C 6.40625 1.417969 6.238281 1.492188 6.144531 1.632812 C 6.023438 1.820312 6.113281 2.140625 6.320312 2.242188 C 6.453125 2.308594 6.566406 2.3125 6.707031 2.253906 C 7.007812 2.128906 7.019531 1.628906 6.726562 1.476562 C 6.675781 1.453125 6.625 1.4375 6.570312 1.433594 Z M 9.210938 1.433594 C 9.046875 1.417969 8.875 1.492188 8.785156 1.632812 C 8.660156 1.820312 8.753906 2.140625 8.960938 2.242188 C 9.089844 2.308594 9.207031 2.3125 9.347656 2.253906 C 9.648438 2.128906 9.660156 1.628906 9.367188 1.476562 C 9.316406 1.453125 9.265625 1.4375 9.210938 1.433594 Z M 6.527344 1.675781 C 6.679688 1.675781 6.75 1.914062 6.625 2 C 6.585938 2.027344 6.539062 2.050781 6.519531 2.050781 C 6.503906 2.050781 6.457031 2.027344 6.417969 2 C 6.289062 1.910156 6.363281 1.675781 6.527344 1.675781 Z M 9.167969 1.675781 C 9.320312 1.675781 9.390625 1.914062 9.261719 2 C 9.171875 2.066406 9.105469 2.0625 9.042969 1.992188 C 8.9375 1.875 9.015625 1.675781 9.167969 1.675781 Z M 7.347656 2.765625 L 7.84375 2.765625 C 8.210938 2.765625 8.34375 2.773438 8.351562 2.800781 C 8.359375 2.824219 8.386719 3.351562 8.414062 3.976562 C 8.441406 4.597656 8.46875 5.199219 8.476562 5.308594 C 8.484375 5.421875 8.5 5.734375 8.511719 6.007812 C 8.519531 6.28125 8.535156 6.546875 8.539062 6.597656 C 8.546875 6.648438 8.554688 6.851562 8.558594 7.050781 L 8.5625 7.40625 L 8.355469 7.414062 L 8.152344 7.425781 L 8.152344 7.222656 C 8.152344 7.011719 8.105469 6.941406 7.996094 6.980469 C 7.921875 7.007812 7.902344 7.054688 7.902344 7.242188 C 7.902344 7.414062 7.898438 7.421875 7.824219 7.421875 C 7.75 7.421875 7.746094 7.414062 7.746094 7.222656 C 7.746094 7.011719 7.703125 6.941406 7.59375 6.980469 C 7.515625 7.007812 7.5 7.054688 7.5 7.242188 L 7.5 7.421875 L 7.121094 7.421875 L 7.140625 7.042969 C 7.148438 6.832031 7.171875 6.355469 7.1875 5.976562 C 7.246094 4.683594 7.253906 4.578125 7.265625 4.363281 C 7.273438 4.242188 7.289062 3.90625 7.296875 3.617188 C 7.308594 3.328125 7.324219 3.015625 7.332031 2.925781 Z M 9.550781 2.792969 C 9.378906 2.792969 9.125 2.933594 9.027344 3.082031 C 8.910156 3.261719 8.894531 3.542969 8.992188 3.742188 C 9.070312 3.898438 9.179688 3.992188 9.359375 4.058594 C 9.605469 4.148438 9.953125 4.035156 10.097656 3.816406 C 10.21875 3.636719 10.238281 3.328125 10.144531 3.144531 C 10.035156 2.933594 9.796875 2.792969 9.550781 2.792969 Z M 6.082031 2.800781 C 6.03125 2.800781 5.976562 2.808594 5.925781 2.824219 C 5.636719 2.917969 5.476562 3.144531 5.476562 3.453125 C 5.476562 3.746094 5.621094 3.949219 5.910156 4.058594 C 6.066406 4.117188 6.296875 4.089844 6.460938 3.992188 C 6.734375 3.832031 6.832031 3.425781 6.671875 3.117188 C 6.570312 2.925781 6.316406 2.796875 6.082031 2.800781 Z M 9.566406 3.042969 C 9.699219 3.042969 9.921875 3.191406 9.921875 3.28125 C 9.921875 3.3125 9.839844 3.324219 9.566406 3.324219 C 9.367188 3.324219 9.207031 3.3125 9.207031 3.296875 C 9.207031 3.195312 9.421875 3.042969 9.566406 3.042969 Z M 6.140625 3.046875 C 6.257812 3.054688 6.375 3.121094 6.445312 3.238281 C 6.566406 3.4375 6.492188 3.699219 6.28125 3.796875 C 6.136719 3.867188 6.046875 3.863281 5.925781 3.789062 C 5.789062 3.707031 5.726562 3.601562 5.722656 3.449219 C 5.722656 3.300781 5.789062 3.1875 5.925781 3.105469 C 5.992188 3.0625 6.066406 3.042969 6.140625 3.046875 Z M 9.574219 3.5625 C 9.851562 3.566406 9.933594 3.578125 9.925781 3.609375 C 9.910156 3.667969 9.824219 3.757812 9.730469 3.808594 C 9.613281 3.867188 9.488281 3.859375 9.371094 3.789062 C 9.28125 3.734375 9.207031 3.640625 9.207031 3.582031 C 9.207031 3.566406 9.371094 3.558594 9.574219 3.5625 Z M 8.671875 4.433594 L 8.855469 4.457031 C 9.101562 4.484375 9.707031 4.6875 10.054688 4.855469 C 10.523438 5.078125 10.527344 4.992188 10.03125 5.679688 C 9.796875 6.007812 9.59375 6.277344 9.582031 6.285156 C 9.574219 6.289062 9.453125 6.242188 9.316406 6.175781 C 9.179688 6.109375 8.996094 6.03125 8.910156 6.007812 L 8.75 5.960938 L 8.730469 5.425781 C 8.71875 5.132812 8.699219 4.789062 8.691406 4.660156 Z M 6.9375 4.441406 L 7.011719 4.441406 L 6.992188 5.023438 C 6.980469 5.34375 6.960938 5.675781 6.953125 5.761719 L 6.933594 5.921875 L 6.710938 5.992188 C 5.824219 6.273438 5.0625 6.925781 4.644531 7.761719 C 4.53125 7.988281 4.390625 8.386719 4.347656 8.59375 C 4.324219 8.714844 4.355469 8.714844 3.757812 8.601562 C 3.5 8.554688 3.191406 8.5 3.066406 8.476562 C 2.9375 8.457031 2.839844 8.425781 2.839844 8.40625 C 2.839844 8.382812 2.875 8.25 2.914062 8.105469 C 3.3125 6.679688 4.324219 5.484375 5.675781 4.84375 C 6.085938 4.648438 6.738281 4.441406 6.9375 4.441406 Z M 10.683594 5.230469 C 10.765625 5.234375 11.171875 5.5625 11.503906 5.898438 C 11.804688 6.203125 12.09375 6.5625 12.0625 6.597656 C 12.054688 6.605469 11.714844 6.730469 11.308594 6.875 C 10.902344 7.023438 10.558594 7.140625 10.546875 7.136719 C 10.535156 7.136719 10.402344 7.003906 10.246094 6.847656 C 10.09375 6.691406 9.925781 6.535156 9.875 6.5 L 9.78125 6.433594 L 9.847656 6.359375 C 9.882812 6.320312 10.078125 6.058594 10.277344 5.777344 C 10.480469 5.496094 10.65625 5.25 10.667969 5.234375 C 10.671875 5.234375 10.675781 5.230469 10.683594 5.230469 Z M 12.851562 5.433594 C 13.007812 5.429688 13.046875 5.480469 13.074219 5.628906 L 13.097656 5.746094 L 12.765625 5.746094 C 12.585938 5.746094 12.4375 5.734375 12.4375 5.726562 C 12.4375 5.714844 12.453125 5.652344 12.472656 5.589844 C 12.503906 5.480469 12.515625 5.472656 12.648438 5.453125 C 12.730469 5.441406 12.796875 5.433594 12.851562 5.433594 Z M 13.152344 5.988281 L 13.152344 6.503906 C 13.152344 6.785156 13.140625 7.019531 13.128906 7.015625 C 13.097656 7.015625 12.925781 6.890625 12.894531 6.847656 C 12.882812 6.832031 12.875 6.632812 12.878906 6.414062 L 12.886719 6.007812 L 13.019531 6 Z M 12.5 5.992188 L 12.625 5.992188 L 12.625 6.335938 C 12.625 6.523438 12.621094 6.675781 12.617188 6.675781 C 12.609375 6.671875 12.550781 6.628906 12.484375 6.578125 C 12.363281 6.488281 12.359375 6.480469 12.367188 6.308594 C 12.367188 6.210938 12.371094 6.101562 12.375 6.0625 C 12.375 6.003906 12.390625 5.992188 12.5 5.992188 Z M 6.902344 6.203125 C 6.914062 6.203125 6.921875 6.207031 6.925781 6.210938 C 6.933594 6.226562 6.9375 6.289062 6.929688 6.355469 C 6.921875 6.421875 6.90625 6.722656 6.894531 7.027344 C 6.875 7.445312 6.878906 7.589844 6.910156 7.625 C 6.9375 7.660156 7.015625 7.671875 7.226562 7.671875 L 7.503906 7.671875 L 7.492188 7.753906 C 7.484375 7.824219 7.460938 7.84375 7.359375 7.875 C 7.191406 7.921875 6.941406 8.050781 6.824219 8.148438 C 6.773438 8.195312 6.726562 8.226562 6.71875 8.226562 C 6.710938 8.226562 6.410156 7.976562 6.046875 7.675781 L 5.386719 7.125 L 5.582031 6.945312 C 5.8125 6.730469 6.042969 6.566406 6.320312 6.429688 C 6.570312 6.300781 6.828125 6.203125 6.902344 6.203125 Z M 8.824219 6.246094 C 8.835938 6.25 8.84375 6.253906 8.859375 6.253906 C 9.039062 6.300781 9.515625 6.558594 9.773438 6.753906 C 10.019531 6.941406 10.292969 7.21875 10.257812 7.25 C 10.25 7.257812 9.917969 7.382812 9.515625 7.527344 C 9.117188 7.671875 8.714844 7.816406 8.625 7.855469 C 8.535156 7.890625 8.457031 7.917969 8.453125 7.914062 C 8.449219 7.914062 8.378906 7.890625 8.300781 7.867188 C 8.175781 7.828125 8.152344 7.808594 8.152344 7.746094 C 8.152344 7.671875 8.152344 7.671875 8.457031 7.671875 C 8.675781 7.671875 8.773438 7.65625 8.800781 7.628906 C 8.824219 7.597656 8.824219 7.429688 8.804688 7.03125 C 8.765625 6.296875 8.757812 6.234375 8.824219 6.246094 Z M 12.3125 6.769531 L 12.421875 6.839844 C 12.480469 6.878906 12.523438 6.921875 12.519531 6.9375 C 12.515625 6.953125 12.335938 7.03125 12.125 7.113281 C 11.59375 7.308594 10.597656 7.679688 9.796875 7.972656 C 8.941406 8.292969 9.023438 8.273438 8.898438 8.164062 C 8.839844 8.117188 8.796875 8.070312 8.808594 8.058594 C 8.816406 8.050781 9.519531 7.792969 10.371094 7.484375 C 11.226562 7.175781 12.011719 6.886719 12.117188 6.847656 Z M 12.785156 7.128906 C 12.820312 7.128906 12.867188 7.152344 12.949219 7.210938 C 13.027344 7.265625 13.078125 7.320312 13.066406 7.332031 C 13.054688 7.34375 12.671875 7.488281 12.21875 7.648438 C 11.765625 7.8125 10.957031 8.105469 10.417969 8.300781 C 9.878906 8.496094 9.417969 8.667969 9.390625 8.679688 C 9.351562 8.691406 9.320312 8.667969 9.269531 8.585938 C 9.230469 8.523438 9.207031 8.46875 9.210938 8.464844 C 9.21875 8.457031 9.441406 8.375 9.703125 8.277344 C 9.96875 8.179688 10.5 7.980469 10.882812 7.839844 C 11.269531 7.695312 11.835938 7.488281 12.140625 7.375 C 12.449219 7.261719 12.722656 7.15625 12.753906 7.140625 C 12.761719 7.132812 12.773438 7.132812 12.785156 7.128906 Z M 5.21875 7.328125 C 5.242188 7.328125 6.519531 8.394531 6.519531 8.414062 C 6.519531 8.421875 6.464844 8.539062 6.398438 8.671875 L 6.273438 8.910156 L 5.855469 8.910156 C 5.558594 8.90625 5.3125 8.882812 5.015625 8.832031 C 4.785156 8.789062 4.59375 8.75 4.585938 8.742188 C 4.558594 8.710938 4.707031 8.222656 4.8125 7.992188 C 4.910156 7.78125 5.1875 7.328125 5.21875 7.328125 Z M 7.824219 7.671875 C 7.882812 7.671875 7.902344 7.6875 7.902344 7.730469 C 7.902344 7.777344 7.882812 7.792969 7.824219 7.792969 C 7.769531 7.792969 7.746094 7.777344 7.746094 7.730469 C 7.746094 7.6875 7.769531 7.671875 7.824219 7.671875 Z M 12.671875 7.773438 C 12.726562 7.796875 12.878906 8.390625 12.839844 8.417969 C 12.820312 8.429688 12.695312 8.457031 12.566406 8.476562 C 12.433594 8.496094 12.152344 8.546875 11.941406 8.585938 C 11.34375 8.699219 11.261719 8.707031 11.242188 8.660156 C 11.210938 8.574219 11.164062 8.3125 11.175781 8.300781 C 11.207031 8.269531 12.644531 7.765625 12.671875 7.773438 Z M 7.824219 8.042969 C 7.902344 8.042969 7.902344 8.050781 7.902344 8.257812 C 7.902344 8.410156 7.917969 8.488281 7.953125 8.523438 C 8.007812 8.578125 8.015625 8.578125 8.089844 8.539062 C 8.140625 8.511719 8.152344 8.472656 8.152344 8.289062 C 8.152344 8.074219 8.152344 8.070312 8.222656 8.089844 C 8.410156 8.148438 8.6875 8.3125 8.828125 8.449219 C 9.546875 9.152344 9.351562 10.304688 8.441406 10.738281 C 8.222656 10.839844 8.167969 10.851562 7.902344 10.859375 C 7.65625 10.871094 7.574219 10.859375 7.402344 10.796875 C 6.9375 10.628906 6.613281 10.273438 6.484375 9.796875 C 6.320312 9.175781 6.664062 8.460938 7.265625 8.179688 C 7.492188 8.074219 7.5 8.078125 7.5 8.289062 C 7.5 8.414062 7.515625 8.488281 7.546875 8.523438 C 7.605469 8.578125 7.609375 8.578125 7.6875 8.539062 C 7.738281 8.511719 7.746094 8.472656 7.746094 8.273438 C 7.746094 8.046875 7.75 8.042969 7.824219 8.042969 Z M 10.914062 8.390625 L 10.964844 8.558594 C 10.992188 8.652344 11.007812 8.738281 11 8.746094 C 10.992188 8.753906 10.789062 8.792969 10.554688 8.835938 C 10.140625 8.90625 9.578125 8.9375 9.582031 8.890625 C 9.582031 8.875 9.773438 8.796875 10.007812 8.714844 C 10.242188 8.632812 10.542969 8.527344 10.675781 8.476562 Z M 7.863281 8.824219 C 7.839844 8.824219 7.816406 8.824219 7.789062 8.824219 C 7.460938 8.851562 7.21875 9.121094 7.21875 9.464844 C 7.21875 9.714844 7.382812 9.972656 7.59375 10.058594 C 7.707031 10.101562 8.015625 10.097656 8.132812 10.050781 C 8.359375 9.953125 8.492188 9.734375 8.492188 9.457031 C 8.492188 9.082031 8.234375 8.824219 7.863281 8.824219 Z M 7.855469 9.082031 C 8.019531 9.082031 8.039062 9.089844 8.136719 9.199219 C 8.226562 9.296875 8.246094 9.339844 8.246094 9.457031 C 8.246094 9.636719 8.164062 9.757812 7.996094 9.824219 C 7.84375 9.886719 7.851562 9.886719 7.703125 9.816406 C 7.550781 9.746094 7.46875 9.613281 7.46875 9.441406 C 7.46875 9.339844 7.488281 9.292969 7.574219 9.199219 C 7.671875 9.089844 7.695312 9.082031 7.855469 9.082031 Z M 2.75 9.160156 L 3.554688 9.160156 L 3.554688 9.347656 L 2.75 9.347656 Z M 3.804688 9.160156 L 6.210938 9.160156 L 6.210938 9.78125 L 3.804688 9.78125 Z M 9.503906 9.160156 L 11.910156 9.160156 L 11.910156 9.78125 L 9.503906 9.78125 Z M 12.15625 9.160156 L 12.964844 9.160156 L 12.964844 9.347656 L 12.15625 9.347656 Z M 2.75 9.59375 L 3.554688 9.59375 L 3.554688 9.78125 L 2.75 9.78125 Z M 12.15625 9.59375 L 12.964844 9.59375 L 12.964844 9.78125 L 12.15625 9.78125 Z M 9.421875 10.03125 L 9.789062 10.03125 C 10.113281 10.03125 10.878906 10.140625 10.929688 10.191406 C 10.9375 10.199219 10.925781 10.265625 10.902344 10.34375 C 10.785156 10.734375 10.46875 11.261719 10.15625 11.589844 C 10.0625 11.6875 9.984375 11.769531 9.976562 11.769531 C 9.972656 11.769531 9.753906 11.515625 9.492188 11.207031 C 9.097656 10.742188 9.023438 10.640625 9.0625 10.609375 C 9.132812 10.550781 9.296875 10.308594 9.363281 10.164062 Z M 5.828125 10.03125 C 6.050781 10.027344 6.246094 10.035156 6.273438 10.054688 C 6.289062 10.066406 6.339844 10.144531 6.378906 10.226562 C 6.421875 10.308594 6.5 10.433594 6.554688 10.503906 L 6.65625 10.628906 L 6.15625 11.199219 C 5.878906 11.511719 5.636719 11.769531 5.617188 11.769531 C 5.558594 11.769531 5.230469 11.398438 5.054688 11.121094 C 4.882812 10.859375 4.6875 10.453125 4.65625 10.285156 C 4.632812 10.179688 4.59375 10.195312 5.226562 10.078125 C 5.359375 10.054688 5.609375 10.039062 5.828125 10.03125 Z M 11.242188 10.230469 C 11.246094 10.226562 11.25 10.230469 11.253906 10.230469 C 11.28125 10.238281 11.472656 10.273438 11.675781 10.308594 C 12.425781 10.445312 12.851562 10.527344 12.863281 10.539062 C 12.890625 10.566406 12.707031 11.167969 12.578125 11.46875 C 12.324219 12.058594 12.027344 12.515625 11.574219 13.007812 C 11.429688 13.164062 11.296875 13.289062 11.277344 13.289062 C 11.257812 13.289062 10.992188 12.992188 10.691406 12.632812 L 10.140625 11.976562 L 10.335938 11.773438 C 10.695312 11.394531 11 10.878906 11.152344 10.394531 C 11.1875 10.277344 11.210938 10.230469 11.242188 10.226562 Z M 4.335938 10.25 C 4.367188 10.246094 4.402344 10.308594 4.4375 10.425781 C 4.585938 10.894531 4.878906 11.390625 5.246094 11.78125 L 5.445312 12 L 5.269531 12.203125 C 5.171875 12.3125 4.972656 12.539062 4.828125 12.703125 C 4.683594 12.867188 4.519531 13.050781 4.464844 13.113281 C 4.410156 13.175781 4.359375 13.230469 4.351562 13.230469 C 4.347656 13.230469 4.265625 13.148438 4.171875 13.050781 C 3.746094 12.601562 3.375 12.050781 3.148438 11.523438 C 3.027344 11.238281 2.839844 10.65625 2.839844 10.558594 C 2.839844 10.515625 2.886719 10.496094 3.050781 10.46875 C 3.167969 10.449219 3.492188 10.390625 3.773438 10.339844 C 4.054688 10.289062 4.308594 10.25 4.335938 10.25 Z M 6.871094 10.8125 C 6.886719 10.8125 6.914062 10.828125 6.9375 10.847656 C 7.007812 10.914062 7.257812 11.023438 7.453125 11.074219 C 7.816406 11.171875 8.34375 11.101562 8.671875 10.910156 C 8.746094 10.867188 8.820312 10.835938 8.832031 10.84375 C 8.859375 10.851562 9.097656 11.132812 10.75 13.097656 C 11.328125 13.78125 11.355469 13.824219 11.300781 13.867188 C 11.089844 14.035156 10.546875 14.371094 10.28125 14.5 C 9.726562 14.769531 9.078125 14.960938 8.492188 15.023438 C 8.179688 15.058594 7.546875 15.058594 7.21875 15.027344 C 6.914062 14.996094 6.363281 14.867188 6.019531 14.75 C 5.480469 14.558594 4.753906 14.15625 4.378906 13.839844 L 4.257812 13.734375 L 4.519531 13.441406 C 4.664062 13.28125 5.019531 12.878906 5.308594 12.546875 C 6.480469 11.214844 6.828125 10.820312 6.855469 10.8125 C 6.859375 10.808594 6.863281 10.808594 6.871094 10.8125 Z M 6.765625 11.738281 C 6.503906 11.738281 6.335938 11.871094 6.277344 12.121094 C 6.234375 12.300781 6.390625 12.582031 6.566406 12.648438 C 6.6875 12.691406 6.902344 12.667969 7.003906 12.601562 C 7.382812 12.339844 7.21875 11.738281 6.765625 11.738281 Z M 8.878906 11.738281 C 8.402344 11.738281 8.21875 12.335938 8.613281 12.597656 C 8.8125 12.730469 9.082031 12.679688 9.25 12.480469 C 9.316406 12.402344 9.332031 12.355469 9.332031 12.214844 C 9.332031 11.910156 9.167969 11.738281 8.878906 11.738281 Z M 7.832031 11.925781 C 7.699219 11.929688 7.5625 11.988281 7.460938 12.105469 C 7.347656 12.242188 7.324219 12.414062 7.398438 12.582031 C 7.46875 12.738281 7.519531 12.785156 7.675781 12.84375 C 8.074219 12.984375 8.425781 12.589844 8.25 12.195312 C 8.171875 12.019531 8.003906 11.925781 7.832031 11.925781 Z M 6.753906 11.96875 C 6.777344 11.96875 6.804688 11.980469 6.84375 12 C 6.992188 12.078125 7.019531 12.242188 6.898438 12.355469 C 6.78125 12.464844 6.625 12.4375 6.550781 12.292969 C 6.511719 12.214844 6.507812 12.1875 6.542969 12.117188 C 6.566406 12.070312 6.621094 12.015625 6.667969 11.992188 C 6.703125 11.976562 6.726562 11.96875 6.753906 11.96875 Z M 8.867188 11.96875 C 8.890625 11.96875 8.917969 11.976562 8.953125 11.992188 C 9.066406 12.046875 9.117188 12.15625 9.078125 12.269531 C 9.058594 12.320312 9.019531 12.375 8.988281 12.390625 C 8.796875 12.496094 8.589844 12.304688 8.667969 12.097656 C 8.679688 12.070312 8.726562 12.027344 8.777344 12 C 8.816406 11.980469 8.839844 11.96875 8.867188 11.96875 Z M 7.835938 12.179688 C 7.964844 12.1875 8.085938 12.304688 8.046875 12.464844 C 8.035156 12.507812 7.984375 12.566406 7.933594 12.589844 C 7.816406 12.652344 7.804688 12.652344 7.707031 12.574219 C 7.601562 12.492188 7.578125 12.410156 7.636719 12.300781 C 7.683594 12.210938 7.761719 12.175781 7.835938 12.179688 Z M 9.132812 12.773438 C 9.078125 12.773438 9.027344 12.785156 8.972656 12.808594 C 8.804688 12.878906 8.722656 12.964844 8.679688 13.117188 C 8.613281 13.351562 8.734375 13.601562 8.960938 13.691406 C 9.144531 13.765625 9.359375 13.707031 9.496094 13.542969 C 9.761719 13.222656 9.496094 12.761719 9.132812 12.773438 Z M 6.519531 12.777344 C 6.484375 12.78125 6.445312 12.785156 6.40625 12.796875 C 5.980469 12.910156 5.933594 13.503906 6.335938 13.683594 C 6.632812 13.8125 7.003906 13.582031 7.003906 13.261719 C 7.003906 12.984375 6.78125 12.773438 6.519531 12.777344 Z M 9.125 13.011719 C 9.152344 13.011719 9.214844 13.046875 9.265625 13.089844 C 9.382812 13.191406 9.390625 13.296875 9.285156 13.402344 C 9.246094 13.441406 9.175781 13.476562 9.128906 13.476562 C 9.03125 13.476562 8.898438 13.351562 8.898438 13.257812 C 8.898438 13.183594 9.054688 13.011719 9.125 13.011719 Z M 7.832031 13.011719 C 7.597656 13.019531 7.363281 13.195312 7.363281 13.46875 C 7.363281 13.652344 7.441406 13.800781 7.570312 13.882812 C 7.710938 13.96875 7.957031 13.964844 8.09375 13.871094 C 8.3125 13.726562 8.367188 13.414062 8.214844 13.199219 C 8.121094 13.066406 7.976562 13.007812 7.832031 13.011719 Z M 6.539062 13.015625 C 6.582031 13.015625 6.621094 13.042969 6.671875 13.085938 C 6.777344 13.183594 6.777344 13.300781 6.679688 13.402344 C 6.558594 13.523438 6.410156 13.492188 6.324219 13.328125 C 6.273438 13.238281 6.300781 13.15625 6.402344 13.074219 C 6.457031 13.03125 6.496094 13.011719 6.539062 13.015625 Z M 7.824219 13.265625 C 7.980469 13.265625 8.105469 13.4375 8.027344 13.582031 C 7.898438 13.828125 7.507812 13.648438 7.625 13.398438 C 7.652344 13.347656 7.710938 13.292969 7.757812 13.277344 C 7.78125 13.269531 7.804688 13.265625 7.824219 13.265625 Z M 3.972656 14.195312 L 3.78125 14.414062 C 4.59375 15.390625 6.164062 16 7.867188 16 C 9.542969 16 11.085938 15.410156 11.914062 14.460938 L 11.738281 14.257812 C 10.917969 15.164062 9.457031 15.714844 7.882812 15.71875 C 6.269531 15.714844 4.78125 15.132812 3.972656 14.195312 Z M 3.972656 14.195312 "/>
</g>
</svg>
