
<svg xmlns="http://www.w3.org/2000/svg" xmlns:xlink="http://www.w3.org/1999/xlink" width="16px" height="16px" viewBox="0 0 16 16" version="1.1">
<g id="surface1">
<path style=" stroke:none;fill-rule:nonzero;fill:#ff6666;fill-opacity:1;" d="M 8.445312 15.496094 C 8.421875 15.492188 8.40625 15.488281 8.402344 15.480469 C 8.390625 15.464844 8.394531 15.425781 8.414062 15.390625 C 8.425781 15.363281 8.429688 15.34375 8.417969 15.335938 C 8.414062 15.332031 8.375 15.328125 8.332031 15.328125 C 8.242188 15.324219 8.195312 15.308594 8.164062 15.28125 C 8.113281 15.242188 8.105469 15.175781 8.140625 15.105469 C 8.167969 15.050781 8.21875 14.984375 8.28125 14.925781 C 8.378906 14.828125 8.460938 14.777344 8.570312 14.738281 C 8.652344 14.707031 8.667969 14.695312 8.683594 14.632812 C 8.6875 14.617188 8.703125 14.589844 8.71875 14.570312 C 8.761719 14.503906 8.785156 14.402344 8.800781 14.179688 C 8.820312 13.933594 8.824219 13.777344 8.828125 13.054688 L 8.832031 12.316406 L 8.792969 12.238281 C 8.726562 12.101562 8.664062 11.960938 8.644531 11.910156 C 8.617188 11.824219 8.601562 11.734375 8.585938 11.523438 C 8.550781 11.140625 8.511719 11.019531 8.210938 10.332031 C 7.960938 9.753906 7.796875 9.355469 7.699219 9.066406 C 7.605469 8.800781 7.527344 8.640625 7.460938 8.574219 C 7.433594 8.550781 7.398438 8.53125 7.375 8.53125 C 7.335938 8.53125 7.28125 8.582031 7.234375 8.652344 C 7.191406 8.722656 7.09375 8.925781 7.03125 9.085938 C 6.917969 9.375 6.824219 9.664062 6.742188 10.007812 C 6.632812 10.457031 6.574219 10.636719 6.4375 10.917969 C 6.339844 11.121094 6.324219 11.171875 6.304688 11.367188 C 6.277344 11.59375 6.230469 11.777344 6.15625 11.929688 C 6.125 11.988281 6.101562 12.023438 6.058594 12.070312 C 6.003906 12.128906 5.996094 12.140625 5.976562 12.222656 C 5.964844 12.261719 5.917969 12.421875 5.875 12.570312 C 5.746094 13.007812 5.664062 13.308594 5.570312 13.695312 C 5.515625 13.921875 5.472656 14.078125 5.433594 14.203125 C 5.390625 14.335938 5.386719 14.367188 5.40625 14.492188 C 5.421875 14.59375 5.417969 14.660156 5.398438 14.734375 C 5.359375 14.871094 5.273438 14.953125 5.125 14.992188 C 5.007812 15.023438 4.933594 15.027344 4.617188 15.027344 C 4.304688 15.027344 4.265625 15.023438 4.183594 14.996094 C 4.140625 14.980469 4.097656 14.949219 4.085938 14.914062 C 4.082031 14.902344 4.074219 14.867188 4.070312 14.84375 C 4.066406 14.78125 4.058594 14.777344 4.023438 14.785156 C 3.988281 14.792969 3.96875 14.789062 3.941406 14.765625 C 3.878906 14.707031 3.875 14.53125 3.9375 14.472656 C 3.984375 14.425781 4.058594 14.410156 4.273438 14.402344 C 4.496094 14.390625 4.574219 14.375 4.683594 14.316406 C 4.746094 14.277344 4.796875 14.234375 4.816406 14.195312 C 4.824219 14.179688 4.835938 14.132812 4.84375 14.089844 C 4.851562 14.050781 4.867188 13.992188 4.875 13.964844 C 4.898438 13.898438 4.988281 13.714844 5.09375 13.527344 C 5.246094 13.242188 5.300781 13.117188 5.359375 12.882812 C 5.382812 12.800781 5.4375 12.597656 5.484375 12.4375 C 5.53125 12.273438 5.574219 12.109375 5.582031 12.074219 C 5.601562 11.984375 5.605469 11.894531 5.59375 11.683594 C 5.585938 11.460938 5.585938 11.300781 5.59375 11.234375 C 5.597656 11.207031 5.617188 11.136719 5.632812 11.078125 C 5.679688 10.914062 5.6875 10.863281 5.6875 10.695312 C 5.6875 10.503906 5.671875 10.351562 5.601562 9.867188 C 5.53125 9.371094 5.511719 9.191406 5.507812 8.90625 C 5.507812 8.789062 5.503906 8.691406 5.5 8.6875 C 5.5 8.683594 5.347656 8.628906 5.164062 8.566406 C 4.980469 8.503906 4.792969 8.433594 4.742188 8.417969 C 4.320312 8.261719 4.121094 8.148438 3.910156 7.957031 C 3.425781 7.511719 3.117188 6.871094 2.832031 5.71875 C 2.691406 5.15625 2.625 4.796875 2.59375 4.390625 C 2.585938 4.3125 2.578125 4.144531 2.566406 3.832031 C 2.554688 3.449219 2.53125 3.375 2.347656 3.058594 C 2.269531 2.925781 2.191406 2.777344 2.160156 2.707031 C 2.152344 2.679688 2.136719 2.621094 2.125 2.582031 C 2.117188 2.539062 2.109375 2.496094 2.105469 2.492188 C 2.097656 2.476562 1.945312 2.398438 1.816406 2.34375 C 1.722656 2.308594 1.53125 2.214844 1.476562 2.179688 C 1.457031 2.164062 1.414062 2.132812 1.390625 2.113281 C 1.363281 2.089844 1.339844 2.070312 1.335938 2.070312 C 1.332031 2.066406 1.296875 2.078125 1.25 2.101562 C 1.207031 2.117188 1.148438 2.140625 1.117188 2.152344 C 1.066406 2.167969 1.054688 2.167969 0.941406 2.167969 C 0.808594 2.167969 0.757812 2.160156 0.671875 2.117188 C 0.574219 2.070312 0.546875 2.035156 0.535156 1.945312 C 0.523438 1.863281 0.535156 1.816406 0.589844 1.742188 C 0.601562 1.722656 0.59375 1.710938 0.558594 1.683594 C 0.507812 1.648438 0.5 1.625 0.5 1.507812 C 0.5 1.382812 0.503906 1.378906 0.605469 1.273438 C 0.699219 1.175781 0.773438 1.078125 0.828125 0.984375 C 0.925781 0.804688 0.960938 0.757812 1.011719 0.734375 C 1.066406 0.707031 1.210938 0.695312 1.65625 0.6875 C 2.121094 0.679688 2.269531 0.667969 2.40625 0.632812 C 2.519531 0.605469 2.585938 0.566406 2.714844 0.457031 C 2.800781 0.386719 2.8125 0.382812 2.984375 0.382812 C 3.140625 0.382812 3.230469 0.390625 3.367188 0.414062 C 3.46875 0.433594 3.527344 0.433594 3.570312 0.417969 C 3.589844 0.410156 3.640625 0.394531 3.683594 0.371094 C 3.726562 0.351562 3.777344 0.332031 3.792969 0.324219 C 3.917969 0.285156 4.027344 0.296875 4.121094 0.367188 C 4.207031 0.429688 4.265625 0.507812 4.378906 0.726562 C 4.417969 0.800781 4.484375 0.921875 4.527344 1 C 4.6875 1.285156 4.738281 1.4375 4.746094 1.660156 C 4.75 1.832031 4.734375 1.902344 4.644531 2.148438 C 4.597656 2.28125 4.597656 2.28125 4.597656 2.671875 C 4.597656 2.894531 4.601562 3.054688 4.605469 3.121094 C 4.632812 3.484375 4.667969 3.78125 4.707031 4.003906 C 4.746094 4.234375 4.769531 4.308594 4.835938 4.375 C 4.914062 4.457031 5.03125 4.480469 5.300781 4.480469 C 5.53125 4.480469 5.632812 4.46875 5.742188 4.410156 C 5.917969 4.324219 6.140625 4.101562 6.332031 3.824219 C 6.417969 3.703125 6.488281 3.582031 6.605469 3.375 C 6.949219 2.769531 7.132812 2.535156 7.5 2.246094 C 7.722656 2.074219 7.832031 1.910156 7.921875 1.617188 C 8.015625 1.320312 8.15625 1.105469 8.378906 0.921875 C 8.644531 0.699219 8.875 0.621094 9.285156 0.621094 C 9.453125 0.621094 9.523438 0.628906 9.632812 0.65625 C 9.859375 0.714844 10.011719 0.832031 10.105469 1.015625 C 10.140625 1.085938 10.160156 1.160156 10.226562 1.5 C 10.292969 1.847656 10.332031 1.980469 10.402344 2.121094 C 10.453125 2.222656 10.503906 2.296875 10.589844 2.382812 C 10.695312 2.484375 10.765625 2.519531 10.828125 2.5 C 10.878906 2.480469 10.90625 2.4375 11.101562 2.054688 C 11.277344 1.699219 11.324219 1.609375 11.398438 1.488281 C 11.523438 1.28125 11.625 1.1875 11.769531 1.152344 C 11.808594 1.140625 11.84375 1.140625 11.96875 1.140625 C 12.140625 1.140625 12.160156 1.144531 12.285156 1.199219 C 12.625 1.34375 12.886719 1.558594 12.96875 1.757812 C 13.011719 1.863281 13.179688 2.386719 13.277344 2.730469 C 13.335938 2.925781 13.355469 2.988281 13.40625 3.082031 C 13.464844 3.203125 13.496094 3.246094 13.652344 3.398438 C 13.753906 3.5 13.8125 3.5625 13.851562 3.617188 C 14 3.8125 14.125 4.046875 14.277344 4.398438 C 14.507812 4.929688 14.589844 5.203125 14.613281 5.546875 C 14.625 5.691406 14.621094 6.023438 14.597656 6.367188 C 14.578125 6.707031 14.578125 6.851562 14.601562 6.921875 C 14.617188 6.976562 14.667969 7.078125 14.707031 7.136719 C 14.757812 7.210938 14.785156 7.234375 15.015625 7.386719 C 15.097656 7.441406 15.171875 7.496094 15.214844 7.53125 C 15.378906 7.679688 15.484375 7.863281 15.5 8.023438 C 15.503906 8.074219 15.492188 8.109375 15.472656 8.113281 C 15.433594 8.125 15.195312 8.011719 14.90625 7.847656 C 14.753906 7.757812 14.664062 7.699219 14.550781 7.617188 C 14.4375 7.53125 14.402344 7.507812 14.371094 7.503906 C 14.351562 7.5 14.347656 7.503906 14.34375 7.515625 C 14.304688 7.585938 14.148438 8.21875 14.023438 8.820312 C 13.910156 9.355469 13.886719 9.542969 13.886719 9.890625 C 13.886719 10.167969 13.902344 10.359375 13.945312 10.5625 C 13.984375 10.738281 13.988281 10.789062 13.984375 10.992188 C 13.980469 11.179688 13.972656 11.285156 13.925781 11.824219 C 13.882812 12.347656 13.875 12.5625 13.886719 12.890625 C 13.898438 13.265625 13.953125 14.070312 13.984375 14.40625 C 14.007812 14.621094 14.023438 14.699219 14.070312 14.824219 C 14.117188 14.945312 14.132812 15.007812 14.136719 15.078125 C 14.144531 15.179688 14.121094 15.242188 14.050781 15.3125 C 13.964844 15.398438 13.84375 15.421875 13.566406 15.40625 C 13.191406 15.386719 13.132812 15.371094 13.152344 15.289062 C 13.160156 15.246094 13.160156 15.222656 13.144531 15.214844 C 13.140625 15.210938 13.109375 15.207031 13.082031 15.207031 C 13.011719 15.207031 12.957031 15.199219 12.9375 15.1875 C 12.925781 15.179688 12.914062 15.164062 12.90625 15.148438 C 12.890625 15.125 12.886719 15.109375 12.886719 15.070312 C 12.886719 15.027344 12.890625 15.019531 12.910156 14.980469 C 12.9375 14.933594 13.007812 14.859375 13.082031 14.804688 C 13.3125 14.632812 13.472656 14.441406 13.496094 14.308594 C 13.535156 14.101562 13.53125 13.496094 13.480469 12.816406 C 13.453125 12.445312 13.445312 12.269531 13.4375 12.039062 C 13.429688 11.796875 13.425781 11.769531 13.363281 11.632812 C 13.332031 11.558594 13.292969 11.429688 13.269531 11.300781 C 13.238281 11.144531 13.230469 11.09375 13.230469 10.992188 C 13.230469 10.886719 13.246094 10.816406 13.28125 10.726562 C 13.3125 10.648438 13.320312 10.609375 13.308594 10.515625 C 13.289062 10.277344 13.242188 10.054688 13.171875 9.851562 C 13.121094 9.695312 13.074219 9.589844 12.964844 9.371094 C 12.808594 9.070312 12.753906 8.9375 12.730469 8.832031 C 12.695312 8.648438 12.6875 8.285156 12.71875 8.109375 C 12.726562 8.078125 12.730469 8.019531 12.730469 7.988281 C 12.730469 7.929688 12.726562 7.917969 12.710938 7.882812 C 12.6875 7.832031 12.644531 7.792969 12.597656 7.777344 C 12.539062 7.757812 12.503906 7.769531 12.464844 7.8125 C 12.417969 7.863281 12.382812 7.953125 12.304688 8.207031 C 12.226562 8.46875 12.109375 8.828125 11.984375 9.199219 C 11.699219 10.03125 11.632812 10.292969 11.554688 10.882812 C 11.496094 11.34375 11.449219 11.523438 11.304688 11.84375 C 11.257812 11.945312 11.089844 12.28125 10.980469 12.484375 C 10.757812 12.902344 10.644531 13.199219 10.542969 13.640625 C 10.476562 13.914062 10.4375 14.042969 10.375 14.164062 C 10.347656 14.21875 10.335938 14.234375 10.273438 14.292969 C 10.199219 14.367188 10.195312 14.371094 10.21875 14.421875 C 10.230469 14.445312 10.234375 14.46875 10.238281 14.527344 C 10.242188 14.625 10.230469 14.660156 10.191406 14.695312 C 10.152344 14.730469 10.058594 14.777344 10 14.789062 C 9.949219 14.800781 9.796875 14.8125 9.644531 14.8125 C 9.527344 14.8125 9.402344 14.824219 9.394531 14.832031 C 9.386719 14.839844 9.394531 14.859375 9.449219 14.945312 C 9.511719 15.046875 9.527344 15.082031 9.527344 15.117188 C 9.527344 15.15625 9.503906 15.207031 9.449219 15.269531 C 9.339844 15.398438 9.210938 15.457031 8.957031 15.484375 C 8.808594 15.5 8.519531 15.507812 8.445312 15.496094 Z M 9.425781 14.257812 C 9.488281 14.222656 9.5625 14.164062 9.683594 14.042969 C 9.804688 13.921875 9.851562 13.863281 9.933594 13.742188 C 10.09375 13.503906 10.210938 13.183594 10.378906 12.535156 C 10.523438 11.988281 10.589844 11.644531 10.628906 11.3125 C 10.644531 11.167969 10.644531 10.699219 10.628906 10.492188 C 10.613281 10.3125 10.605469 9.929688 10.617188 9.816406 C 10.621094 9.769531 10.628906 9.683594 10.632812 9.632812 C 10.660156 9.335938 10.65625 8.832031 10.621094 8.734375 C 10.613281 8.714844 10.609375 8.710938 10.59375 8.707031 C 10.566406 8.703125 10.5 8.726562 10.378906 8.78125 C 10.191406 8.867188 10.0625 8.90625 9.910156 8.921875 C 9.757812 8.9375 9.558594 8.90625 9.429688 8.847656 C 9.402344 8.835938 9.378906 8.824219 9.375 8.828125 C 9.367188 8.835938 9.363281 8.929688 9.355469 9.304688 C 9.351562 9.785156 9.34375 9.886719 9.292969 10.246094 C 9.25 10.550781 9.246094 10.605469 9.246094 10.792969 C 9.246094 10.976562 9.25 11.03125 9.289062 11.191406 C 9.324219 11.351562 9.332031 11.4375 9.332031 11.609375 C 9.332031 11.808594 9.3125 11.964844 9.265625 12.175781 C 9.144531 12.703125 9.128906 13.164062 9.21875 13.695312 C 9.253906 13.90625 9.332031 14.246094 9.351562 14.269531 C 9.363281 14.28125 9.382812 14.277344 9.425781 14.257812 Z M 9.425781 14.257812 "/>
</g>
</svg>
