
<svg xmlns="http://www.w3.org/2000/svg" xmlns:xlink="http://www.w3.org/1999/xlink" width="16px" height="16px" viewBox="0 0 16 16" version="1.1">
<g id="surface1">
<path style=" stroke:none;fill-rule:nonzero;fill:#ff6666;fill-opacity:1;" d="M 3.992188 1 C 2.734375 1.015625 1.816406 0.96875 1.0625 1.382812 C 0.671875 1.605469 0.375 1.960938 0.226562 2.382812 C 0.0585938 2.820312 0 3.34375 0 4 L 0 12 C 0 12.65625 0.0585938 13.179688 0.226562 13.617188 C 0.386719 14.054688 0.6875 14.40625 1.0625 14.613281 C 1.816406 15.03125 2.734375 14.984375 3.992188 15 L 12.003906 15 C 13.265625 14.984375 14.183594 15.03125 14.9375 14.613281 C 15.328125 14.394531 15.625 14.039062 15.777344 13.617188 C 15.9375 13.179688 16 12.65625 16 12 L 16 4 C 16 3.34375 15.941406 2.820312 15.777344 2.382812 C 15.625 1.960938 15.328125 1.605469 14.9375 1.382812 C 14.183594 0.96875 13.265625 1.015625 12.003906 1 Z M 4 2 L 8 2 L 8 14 L 4 14 C 2.742188 13.984375 1.910156 13.941406 1.546875 13.738281 C 1.363281 13.636719 1.257812 13.527344 1.160156 13.265625 C 1.0625 13.003906 1 12.59375 1 12 L 1 4 C 1 3.40625 1.0625 2.996094 1.160156 2.734375 C 1.257812 2.472656 1.363281 2.363281 1.546875 2.261719 C 1.910156 2.058594 2.742188 2.015625 4 2 Z M 4 4 L 4 5 L 3 5 L 3 6 L 4 6 L 4 7 L 5 7 L 5 6 L 6 6 L 6 5 L 5 5 L 5 4 Z M 10 6 L 14 6 L 14 7 L 10 7 Z M 10 8 L 14 8 L 14 9 L 10 9 Z M 3 10 L 3 11 L 6 11 L 6 10 Z M 3 10 "/>
</g>
</svg>
