
<svg xmlns="http://www.w3.org/2000/svg" xmlns:xlink="http://www.w3.org/1999/xlink" width="16px" height="16px" viewBox="0 0 16 16" version="1.1">
<g id="surface1">
<path style=" stroke:none;fill-rule:nonzero;fill:#ff6666;fill-opacity:1;" d="M 7.554688 15.496094 C 7.578125 15.492188 7.59375 15.488281 7.597656 15.480469 C 7.609375 15.464844 7.605469 15.425781 7.585938 15.390625 C 7.574219 15.363281 7.570312 15.34375 7.582031 15.335938 C 7.585938 15.332031 7.625 15.328125 7.667969 15.328125 C 7.757812 15.324219 7.804688 15.308594 7.835938 15.28125 C 7.886719 15.242188 7.894531 15.175781 7.859375 15.105469 C 7.832031 15.050781 7.78125 14.984375 7.71875 14.925781 C 7.621094 14.828125 7.539062 14.777344 7.433594 14.738281 C 7.347656 14.707031 7.332031 14.695312 7.316406 14.632812 C 7.3125 14.617188 7.296875 14.589844 7.28125 14.570312 C 7.238281 14.503906 7.214844 14.402344 7.199219 14.179688 C 7.179688 13.933594 7.175781 13.777344 7.171875 13.054688 L 7.167969 12.316406 L 7.207031 12.238281 C 7.273438 12.101562 7.339844 11.960938 7.355469 11.910156 C 7.382812 11.824219 7.398438 11.734375 7.414062 11.523438 C 7.449219 11.140625 7.488281 11.019531 7.789062 10.332031 C 8.039062 9.753906 8.203125 9.355469 8.300781 9.066406 C 8.394531 8.800781 8.472656 8.640625 8.539062 8.574219 C 8.566406 8.550781 8.601562 8.53125 8.625 8.53125 C 8.664062 8.53125 8.71875 8.582031 8.765625 8.652344 C 8.808594 8.722656 8.90625 8.925781 8.96875 9.085938 C 9.082031 9.375 9.175781 9.664062 9.257812 10.007812 C 9.367188 10.457031 9.425781 10.636719 9.5625 10.917969 C 9.660156 11.121094 9.675781 11.171875 9.695312 11.367188 C 9.722656 11.59375 9.769531 11.777344 9.84375 11.929688 C 9.875 11.988281 9.898438 12.023438 9.941406 12.070312 C 9.996094 12.128906 10.003906 12.140625 10.023438 12.222656 C 10.035156 12.261719 10.082031 12.421875 10.125 12.570312 C 10.253906 13.007812 10.335938 13.308594 10.429688 13.695312 C 10.484375 13.921875 10.527344 14.078125 10.566406 14.203125 C 10.609375 14.335938 10.613281 14.367188 10.59375 14.492188 C 10.578125 14.59375 10.582031 14.660156 10.601562 14.734375 C 10.640625 14.871094 10.730469 14.953125 10.875 14.992188 C 10.992188 15.023438 11.066406 15.027344 11.382812 15.027344 C 11.695312 15.027344 11.734375 15.023438 11.816406 14.996094 C 11.863281 14.980469 11.902344 14.949219 11.914062 14.914062 C 11.917969 14.902344 11.925781 14.867188 11.929688 14.84375 C 11.933594 14.78125 11.941406 14.777344 11.980469 14.785156 C 12.011719 14.792969 12.03125 14.789062 12.058594 14.765625 C 12.121094 14.707031 12.125 14.53125 12.0625 14.472656 C 12.015625 14.425781 11.941406 14.410156 11.726562 14.402344 C 11.503906 14.390625 11.425781 14.375 11.316406 14.316406 C 11.253906 14.277344 11.203125 14.234375 11.183594 14.195312 C 11.175781 14.179688 11.164062 14.132812 11.15625 14.089844 C 11.148438 14.050781 11.132812 13.992188 11.125 13.964844 C 11.101562 13.898438 11.011719 13.714844 10.90625 13.527344 C 10.753906 13.242188 10.699219 13.117188 10.640625 12.882812 C 10.617188 12.800781 10.5625 12.597656 10.515625 12.4375 C 10.46875 12.273438 10.425781 12.109375 10.417969 12.074219 C 10.398438 11.984375 10.394531 11.894531 10.40625 11.683594 C 10.417969 11.460938 10.417969 11.300781 10.40625 11.234375 C 10.402344 11.207031 10.382812 11.136719 10.367188 11.078125 C 10.320312 10.914062 10.3125 10.863281 10.3125 10.695312 C 10.3125 10.503906 10.328125 10.351562 10.398438 9.867188 C 10.46875 9.371094 10.488281 9.191406 10.492188 8.90625 C 10.492188 8.789062 10.496094 8.691406 10.5 8.6875 C 10.5 8.683594 10.652344 8.628906 10.835938 8.566406 C 11.019531 8.503906 11.207031 8.433594 11.257812 8.417969 C 11.679688 8.261719 11.882812 8.148438 12.089844 7.957031 C 12.574219 7.511719 12.882812 6.871094 13.167969 5.71875 C 13.308594 5.15625 13.375 4.796875 13.40625 4.390625 C 13.414062 4.3125 13.421875 4.144531 13.433594 3.832031 C 13.445312 3.449219 13.46875 3.375 13.652344 3.058594 C 13.730469 2.925781 13.808594 2.777344 13.839844 2.707031 C 13.847656 2.679688 13.863281 2.621094 13.875 2.582031 C 13.882812 2.539062 13.890625 2.496094 13.894531 2.492188 C 13.902344 2.476562 14.054688 2.398438 14.183594 2.34375 C 14.277344 2.308594 14.46875 2.214844 14.523438 2.179688 C 14.542969 2.164062 14.585938 2.132812 14.609375 2.113281 C 14.636719 2.089844 14.660156 2.070312 14.664062 2.070312 C 14.667969 2.066406 14.703125 2.078125 14.75 2.101562 C 14.792969 2.117188 14.851562 2.140625 14.882812 2.152344 C 14.933594 2.167969 14.945312 2.167969 15.058594 2.167969 C 15.191406 2.167969 15.242188 2.160156 15.328125 2.117188 C 15.425781 2.070312 15.453125 2.035156 15.464844 1.945312 C 15.476562 1.863281 15.464844 1.816406 15.410156 1.742188 C 15.398438 1.722656 15.40625 1.710938 15.441406 1.683594 C 15.492188 1.648438 15.5 1.625 15.5 1.507812 C 15.5 1.382812 15.496094 1.378906 15.394531 1.273438 C 15.300781 1.175781 15.226562 1.078125 15.171875 0.984375 C 15.074219 0.804688 15.039062 0.757812 14.988281 0.734375 C 14.933594 0.707031 14.789062 0.695312 14.34375 0.6875 C 13.878906 0.679688 13.730469 0.667969 13.59375 0.632812 C 13.480469 0.605469 13.414062 0.566406 13.285156 0.457031 C 13.199219 0.386719 13.1875 0.382812 13.015625 0.382812 C 12.859375 0.382812 12.769531 0.390625 12.632812 0.414062 C 12.53125 0.433594 12.472656 0.433594 12.429688 0.417969 C 12.410156 0.410156 12.359375 0.394531 12.316406 0.371094 C 12.273438 0.351562 12.222656 0.332031 12.207031 0.324219 C 12.082031 0.285156 11.972656 0.296875 11.878906 0.367188 C 11.792969 0.429688 11.734375 0.507812 11.621094 0.726562 C 11.582031 0.800781 11.515625 0.921875 11.472656 1 C 11.3125 1.285156 11.261719 1.4375 11.253906 1.660156 C 11.25 1.832031 11.265625 1.902344 11.355469 2.148438 C 11.402344 2.28125 11.402344 2.28125 11.402344 2.671875 C 11.402344 2.894531 11.398438 3.054688 11.394531 3.121094 C 11.367188 3.484375 11.332031 3.78125 11.292969 4.003906 C 11.253906 4.234375 11.230469 4.308594 11.164062 4.375 C 11.085938 4.457031 10.96875 4.480469 10.699219 4.480469 C 10.46875 4.480469 10.367188 4.46875 10.257812 4.410156 C 10.082031 4.324219 9.859375 4.101562 9.667969 3.824219 C 9.582031 3.703125 9.511719 3.582031 9.394531 3.375 C 9.050781 2.769531 8.867188 2.535156 8.5 2.246094 C 8.277344 2.074219 8.167969 1.910156 8.078125 1.617188 C 7.984375 1.320312 7.84375 1.105469 7.625 0.921875 C 7.355469 0.699219 7.125 0.621094 6.714844 0.621094 C 6.546875 0.621094 6.476562 0.628906 6.367188 0.65625 C 6.140625 0.714844 5.988281 0.832031 5.894531 1.015625 C 5.859375 1.085938 5.839844 1.160156 5.773438 1.5 C 5.707031 1.847656 5.667969 1.980469 5.597656 2.121094 C 5.550781 2.222656 5.496094 2.296875 5.410156 2.382812 C 5.304688 2.484375 5.234375 2.519531 5.171875 2.5 C 5.121094 2.480469 5.09375 2.4375 4.898438 2.054688 C 4.722656 1.699219 4.675781 1.609375 4.601562 1.488281 C 4.476562 1.28125 4.375 1.1875 4.230469 1.152344 C 4.191406 1.140625 4.15625 1.140625 4.03125 1.140625 C 3.859375 1.140625 3.839844 1.144531 3.714844 1.199219 C 3.375 1.34375 3.113281 1.558594 3.03125 1.757812 C 2.988281 1.863281 2.820312 2.386719 2.722656 2.730469 C 2.664062 2.925781 2.644531 2.988281 2.59375 3.082031 C 2.535156 3.203125 2.503906 3.246094 2.347656 3.398438 C 2.246094 3.5 2.1875 3.5625 2.148438 3.617188 C 2 3.8125 1.875 4.046875 1.722656 4.398438 C 1.492188 4.929688 1.410156 5.203125 1.386719 5.546875 C 1.375 5.691406 1.378906 6.023438 1.402344 6.367188 C 1.421875 6.707031 1.421875 6.851562 1.398438 6.921875 C 1.382812 6.976562 1.332031 7.078125 1.292969 7.136719 C 1.242188 7.210938 1.214844 7.234375 0.984375 7.386719 C 0.902344 7.441406 0.828125 7.496094 0.789062 7.53125 C 0.625 7.679688 0.515625 7.863281 0.5 8.023438 C 0.496094 8.074219 0.507812 8.109375 0.527344 8.113281 C 0.566406 8.125 0.804688 8.011719 1.09375 7.847656 C 1.246094 7.757812 1.335938 7.699219 1.449219 7.617188 C 1.5625 7.53125 1.597656 7.507812 1.628906 7.503906 C 1.648438 7.5 1.652344 7.503906 1.65625 7.515625 C 1.695312 7.585938 1.851562 8.21875 1.976562 8.820312 C 2.089844 9.355469 2.113281 9.542969 2.113281 9.890625 C 2.113281 10.167969 2.097656 10.359375 2.054688 10.5625 C 2.015625 10.738281 2.011719 10.789062 2.015625 10.992188 C 2.019531 11.179688 2.027344 11.285156 2.074219 11.824219 C 2.117188 12.347656 2.125 12.5625 2.113281 12.890625 C 2.101562 13.265625 2.046875 14.070312 2.015625 14.40625 C 1.992188 14.621094 1.976562 14.699219 1.929688 14.824219 C 1.882812 14.945312 1.867188 15.007812 1.863281 15.078125 C 1.855469 15.179688 1.878906 15.242188 1.949219 15.3125 C 2.035156 15.398438 2.15625 15.421875 2.433594 15.40625 C 2.808594 15.386719 2.867188 15.371094 2.847656 15.289062 C 2.839844 15.246094 2.839844 15.222656 2.855469 15.214844 C 2.863281 15.210938 2.890625 15.207031 2.917969 15.207031 C 2.988281 15.207031 3.042969 15.199219 3.0625 15.1875 C 3.074219 15.179688 3.085938 15.164062 3.09375 15.148438 C 3.109375 15.125 3.113281 15.109375 3.113281 15.070312 C 3.113281 15.027344 3.109375 15.019531 3.089844 14.980469 C 3.0625 14.933594 2.992188 14.859375 2.917969 14.804688 C 2.691406 14.632812 2.527344 14.441406 2.503906 14.308594 C 2.464844 14.101562 2.46875 13.496094 2.519531 12.816406 C 2.546875 12.445312 2.554688 12.269531 2.5625 12.039062 C 2.570312 11.796875 2.574219 11.769531 2.636719 11.632812 C 2.667969 11.558594 2.707031 11.429688 2.730469 11.300781 C 2.761719 11.144531 2.769531 11.09375 2.769531 10.992188 C 2.769531 10.886719 2.753906 10.816406 2.71875 10.726562 C 2.6875 10.648438 2.683594 10.609375 2.691406 10.515625 C 2.710938 10.277344 2.757812 10.054688 2.828125 9.851562 C 2.878906 9.695312 2.925781 9.589844 3.039062 9.371094 C 3.191406 9.070312 3.246094 8.9375 3.269531 8.832031 C 3.304688 8.648438 3.3125 8.285156 3.28125 8.109375 C 3.273438 8.078125 3.269531 8.019531 3.269531 7.988281 C 3.269531 7.929688 3.273438 7.917969 3.289062 7.882812 C 3.3125 7.832031 3.355469 7.792969 3.402344 7.777344 C 3.460938 7.757812 3.496094 7.769531 3.535156 7.8125 C 3.582031 7.863281 3.617188 7.953125 3.695312 8.207031 C 3.773438 8.46875 3.890625 8.828125 4.015625 9.199219 C 4.300781 10.03125 4.367188 10.292969 4.445312 10.882812 C 4.503906 11.34375 4.550781 11.523438 4.695312 11.84375 C 4.742188 11.945312 4.910156 12.28125 5.019531 12.484375 C 5.242188 12.902344 5.355469 13.199219 5.457031 13.640625 C 5.523438 13.914062 5.5625 14.042969 5.625 14.164062 C 5.652344 14.21875 5.664062 14.234375 5.726562 14.292969 C 5.800781 14.367188 5.804688 14.371094 5.78125 14.421875 C 5.769531 14.445312 5.765625 14.46875 5.761719 14.527344 C 5.757812 14.625 5.769531 14.660156 5.808594 14.695312 C 5.847656 14.730469 5.945312 14.777344 6 14.789062 C 6.050781 14.800781 6.203125 14.8125 6.355469 14.8125 C 6.472656 14.8125 6.597656 14.824219 6.605469 14.832031 C 6.617188 14.839844 6.605469 14.859375 6.550781 14.945312 C 6.488281 15.046875 6.472656 15.082031 6.472656 15.117188 C 6.472656 15.15625 6.496094 15.207031 6.550781 15.269531 C 6.660156 15.398438 6.789062 15.457031 7.042969 15.484375 C 7.191406 15.5 7.480469 15.507812 7.554688 15.496094 Z M 6.574219 14.257812 C 6.511719 14.222656 6.4375 14.164062 6.316406 14.042969 C 6.195312 13.921875 6.148438 13.863281 6.066406 13.742188 C 5.90625 13.503906 5.789062 13.183594 5.621094 12.535156 C 5.480469 11.988281 5.410156 11.644531 5.371094 11.3125 C 5.355469 11.167969 5.355469 10.699219 5.371094 10.492188 C 5.386719 10.3125 5.394531 9.929688 5.382812 9.816406 C 5.378906 9.769531 5.371094 9.683594 5.367188 9.632812 C 5.339844 9.335938 5.34375 8.832031 5.378906 8.734375 C 5.386719 8.714844 5.390625 8.710938 5.40625 8.707031 C 5.433594 8.703125 5.5 8.726562 5.621094 8.78125 C 5.808594 8.867188 5.9375 8.90625 6.089844 8.921875 C 6.242188 8.9375 6.441406 8.90625 6.570312 8.847656 C 6.597656 8.835938 6.621094 8.824219 6.625 8.828125 C 6.632812 8.835938 6.636719 8.929688 6.644531 9.304688 C 6.652344 9.785156 6.65625 9.886719 6.707031 10.246094 C 6.75 10.550781 6.753906 10.605469 6.753906 10.792969 C 6.753906 10.976562 6.75 11.03125 6.710938 11.191406 C 6.675781 11.351562 6.667969 11.4375 6.667969 11.609375 C 6.667969 11.808594 6.6875 11.964844 6.734375 12.175781 C 6.855469 12.703125 6.871094 13.164062 6.78125 13.695312 C 6.746094 13.90625 6.667969 14.246094 6.648438 14.269531 C 6.636719 14.28125 6.617188 14.277344 6.574219 14.257812 Z M 6.574219 14.257812 "/>
</g>
</svg>
