
<svg xmlns="http://www.w3.org/2000/svg" xmlns:xlink="http://www.w3.org/1999/xlink" width="16px" height="16px" viewBox="0 0 16 16" version="1.1">
<g id="surface1">
<path style=" stroke:none;fill-rule:nonzero;fill:#ff6666;fill-opacity:1;" d="M 5.714844 0 L 5.714844 0.00390625 C 5.441406 0.601562 5.226562 1.210938 5.105469 1.585938 C 4.707031 1.585938 4.054688 1.601562 3.429688 1.683594 C 3.90625 2.136719 4.414062 2.53125 4.726562 2.761719 C 4.605469 3.144531 4.417969 3.78125 4.300781 4.40625 C 4.871094 4.085938 5.394531 3.722656 5.710938 3.492188 C 6.164062 3.824219 6.632812 4.132812 7.121094 4.410156 C 7.011719 3.851562 6.871094 3.304688 6.699219 2.765625 C 7.152344 2.433594 7.585938 2.074219 8 1.6875 C 7.441406 1.621094 6.882812 1.589844 6.324219 1.585938 C 6.152344 1.046875 5.949219 0.515625 5.714844 0 Z M 1.714844 4.582031 C 1.539062 4.96875 1.386719 5.363281 1.257812 5.769531 C 0.835938 5.765625 0.417969 5.792969 0 5.84375 C 0.359375 6.179688 0.738281 6.476562 0.972656 6.648438 C 0.878906 6.9375 0.742188 7.414062 0.652344 7.886719 C 1.019531 7.675781 1.371094 7.449219 1.710938 7.199219 C 1.953125 7.375 2.359375 7.660156 2.773438 7.886719 C 2.679688 7.402344 2.542969 6.933594 2.453125 6.652344 C 2.695312 6.476562 3.085938 6.175781 3.429688 5.84375 C 3.011719 5.796875 2.59375 5.769531 2.171875 5.769531 C 2.042969 5.363281 1.890625 4.96875 1.714844 4.582031 Z M 10.625 1.21875 C 11.957031 2.867188 12.425781 5.066406 11.882812 7.125 C 10.945312 10.664062 7.355469 12.765625 3.863281 11.820312 C 2.972656 11.574219 2.140625 11.140625 1.425781 10.542969 C 2.148438 13.082031 4.125 15.054688 6.640625 15.742188 C 10.605469 16.820312 14.683594 14.433594 15.746094 10.410156 C 16.792969 6.445312 14.515625 2.359375 10.628906 1.21875 Z M 13.101562 4.066406 C 14.320312 5.34375 14.953125 7.078125 14.847656 8.847656 C 14.820312 9.277344 14.753906 9.699219 14.640625 10.113281 C 14.070312 12.296875 12.398438 14.011719 10.25 14.617188 C 8.101562 15.21875 5.796875 14.621094 4.199219 13.042969 C 8.085938 13.75 11.949219 11.359375 12.988281 7.425781 L 12.988281 7.421875 C 13.265625 6.328125 13.304688 5.179688 13.101562 4.066406 Z M 13.101562 4.066406 "/>
</g>
</svg>
