
<svg xmlns="http://www.w3.org/2000/svg" xmlns:xlink="http://www.w3.org/1999/xlink" width="16px" height="16px" viewBox="0 0 16 16" version="1.1">
<g id="surface1">
<path style=" stroke:none;fill-rule:nonzero;fill:#ff6666;fill-opacity:1;" d="M 14.347656 0.398438 C 14.117188 0.417969 13.890625 0.53125 13.703125 0.710938 L 9.570312 4.304688 C 9.390625 4.476562 9.292969 4.71875 9.292969 4.964844 C 9.292969 5.082031 9.320312 5.191406 9.363281 5.296875 C 9.363281 5.300781 9.359375 5.308594 9.363281 5.3125 C 9.210938 5.640625 9.257812 6.097656 9.257812 7.085938 C 9.257812 7.449219 8.3125 7.832031 8.078125 7.832031 C 8.066406 7.832031 8.054688 7.832031 8.042969 7.832031 C 7.289062 7.832031 4.851562 7.941406 4.101562 8.976562 C 3.347656 10.011719 0.523438 14.714844 0.523438 15.402344 C 1.648438 15.402344 9.84375 11.308594 10.265625 10.921875 C 10.773438 10.457031 10.523438 9.515625 10.195312 8.890625 C 10.199219 8.886719 10.195312 8.875 10.195312 8.875 C 10.203125 8.851562 10.207031 8.816406 10.179688 8.769531 C 10.003906 8.472656 9.902344 8.175781 9.902344 7.761719 C 9.902344 6.839844 9.996094 6.332031 10.195312 6.042969 C 10.640625 6.117188 11.28125 5.902344 11.566406 5.625 L 15.199219 2.167969 C 15.566406 1.8125 15.652344 1.277344 15.285156 0.917969 L 14.988281 0.625 C 14.804688 0.445312 14.574219 0.378906 14.347656 0.398438 Z M 14.347656 0.398438 "/>
</g>
</svg>
