
<svg xmlns="http://www.w3.org/2000/svg" xmlns:xlink="http://www.w3.org/1999/xlink" width="16px" height="16px" viewBox="0 0 16 16" version="1.1">
<g id="surface1">
<path style=" stroke:none;fill-rule:evenodd;fill:#ff6666;fill-opacity:1;" d="M 14.445312 10.816406 L 13.945312 15.5 L 2 15.5 L 2 15.128906 L 8.035156 8.40625 L 2.167969 0.867188 L 2.167969 0.5 L 13.480469 0.5 L 13.480469 4.484375 L 12.730469 4.484375 C 12.574219 3.78125 12.277344 3.117188 11.835938 2.492188 C 11.394531 1.867188 10.941406 1.519531 10.46875 1.441406 C 10.257812 1.402344 9.957031 1.375 9.566406 1.363281 C 9.171875 1.34375 8.855469 1.332031 8.605469 1.332031 L 5.339844 1.332031 L 10.046875 7.378906 L 10.046875 7.550781 L 4.546875 13.636719 L 11.449219 13.636719 C 11.769531 13.636719 12.050781 13.542969 12.296875 13.351562 C 12.542969 13.164062 12.757812 12.917969 12.933594 12.621094 C 13.09375 12.355469 13.238281 12.054688 13.367188 11.730469 C 13.492188 11.402344 13.605469 11.097656 13.703125 10.816406 Z M 14.445312 10.816406 "/>
</g>
</svg>
