
<svg xmlns="http://www.w3.org/2000/svg" xmlns:xlink="http://www.w3.org/1999/xlink" width="16px" height="16px" viewBox="0 0 16 16" version="1.1">
<g id="surface1">
<path style=" stroke:none;fill-rule:evenodd;fill:#ff6666;fill-opacity:1;" d="M 0.5 5.53125 L 2.128906 5.507812 C 2.609375 7.238281 3.214844 8.871094 3.941406 10.402344 C 4.382812 9.117188 5.199219 7.441406 6.382812 5.382812 L 8.089844 5.507812 C 7.113281 6.929688 6.6875 8.089844 6.199219 9.179688 C 5.03125 11.789062 4.597656 12.800781 7.09375 16 L 5.203125 15.976562 C 3.246094 13.03125 1.679688 9.550781 0.5 5.53125 Z M 15.5 10.46875 L 13.871094 10.492188 C 13.390625 8.761719 12.785156 7.128906 12.058594 5.597656 C 11.617188 6.882812 10.800781 8.558594 9.617188 10.617188 L 7.910156 10.492188 C 8.886719 9.070312 9.3125 7.910156 9.800781 6.820312 C 10.96875 4.210938 11.402344 3.199219 8.90625 0 L 10.796875 0.0234375 C 12.753906 2.96875 14.320312 6.449219 15.5 10.46875 Z M 15.5 10.46875 "/>
</g>
</svg>
