
<svg xmlns="http://www.w3.org/2000/svg" xmlns:xlink="http://www.w3.org/1999/xlink" width="16px" height="16px" viewBox="0 0 16 16" version="1.1">
<g id="surface1">
<path style=" stroke:none;fill-rule:nonzero;fill:#ff6666;fill-opacity:1;" d="M 1.332031 0.5 C 1.179688 0.5 1.054688 0.625 1.054688 0.777344 L 1.054688 1.890625 C 1.054688 2.042969 1.179688 2.167969 1.332031 2.167969 L 2.445312 2.167969 C 2.597656 2.167969 2.722656 2.042969 2.722656 1.890625 L 2.722656 0.777344 C 2.722656 0.625 2.597656 0.5 2.445312 0.5 Z M 4.066406 0.5 C 3.9375 0.507812 3.832031 0.609375 3.832031 0.710938 L 3.832031 1.953125 C 3.832031 2.066406 3.957031 2.167969 4.09375 2.167969 L 13.578125 2.167969 C 13.710938 2.167969 13.835938 2.066406 13.832031 1.953125 L 13.832031 0.710938 C 13.835938 0.601562 13.710938 0.5 13.578125 0.5 Z M 2.445312 3.832031 C 2.292969 3.832031 2.167969 3.957031 2.167969 4.109375 L 2.167969 5.222656 C 2.167969 5.375 2.292969 5.5 2.445312 5.5 L 3.554688 5.5 C 3.710938 5.5 3.832031 5.375 3.832031 5.222656 L 3.832031 4.109375 C 3.832031 3.957031 3.710938 3.832031 3.554688 3.832031 Z M 5.179688 3.835938 C 5.050781 3.839844 4.941406 3.941406 4.945312 4.046875 L 4.945312 5.289062 C 4.941406 5.398438 5.066406 5.5 5.203125 5.5 L 14.6875 5.5 C 14.824219 5.5 14.945312 5.398438 14.941406 5.289062 L 14.941406 4.046875 C 14.945312 3.933594 14.824219 3.832031 14.6875 3.835938 L 5.203125 3.835938 C 5.191406 3.832031 5.1875 3.832031 5.179688 3.835938 Z M 1.332031 10.5 C 1.179688 10.5 1.054688 10.625 1.054688 10.777344 L 1.054688 11.890625 C 1.054688 12.042969 1.179688 12.167969 1.332031 12.167969 L 2.445312 12.167969 C 2.597656 12.167969 2.722656 12.042969 2.722656 11.890625 L 2.722656 10.777344 C 2.722656 10.625 2.597656 10.5 2.445312 10.5 Z M 4.066406 10.5 C 3.9375 10.507812 3.832031 10.609375 3.832031 10.714844 L 3.832031 11.953125 C 3.832031 12.066406 3.957031 12.167969 4.09375 12.167969 L 13.578125 12.167969 C 13.710938 12.167969 13.835938 12.066406 13.832031 11.953125 L 13.832031 10.714844 C 13.835938 10.601562 13.710938 10.5 13.578125 10.5 Z M 1.332031 13.832031 C 1.179688 13.832031 1.054688 13.957031 1.054688 14.109375 L 1.054688 15.222656 C 1.054688 15.375 1.179688 15.5 1.332031 15.5 L 2.445312 15.5 C 2.597656 15.5 2.722656 15.375 2.722656 15.222656 L 2.722656 14.109375 C 2.722656 13.957031 2.597656 13.832031 2.445312 13.832031 Z M 4.066406 13.832031 C 3.9375 13.839844 3.832031 13.941406 3.832031 14.046875 L 3.832031 15.285156 C 3.832031 15.398438 3.957031 15.5 4.09375 15.5 L 13.578125 15.5 C 13.710938 15.5 13.835938 15.398438 13.832031 15.285156 L 13.832031 14.046875 C 13.835938 13.933594 13.710938 13.832031 13.578125 13.832031 L 4.09375 13.832031 C 4.082031 13.832031 4.074219 13.832031 4.066406 13.832031 Z M 4.066406 13.832031 "/>
<path style=" stroke:none;fill-rule:nonzero;fill:#ff6666;fill-opacity:0.4;" d="M 2.445312 7.167969 L 3.554688 7.167969 C 3.710938 7.167969 3.832031 7.289062 3.832031 7.445312 L 3.832031 8.554688 C 3.832031 8.710938 3.710938 8.832031 3.554688 8.832031 L 2.445312 8.832031 C 2.289062 8.832031 2.167969 8.710938 2.167969 8.554688 L 2.167969 7.445312 C 2.167969 7.289062 2.289062 7.167969 2.445312 7.167969 Z M 5.179688 7.167969 C 5.050781 7.175781 4.941406 7.273438 4.945312 7.378906 L 4.945312 8.621094 C 4.941406 8.730469 5.066406 8.835938 5.203125 8.832031 L 14.6875 8.832031 C 14.820312 8.835938 14.945312 8.730469 14.945312 8.621094 L 14.945312 7.378906 C 14.945312 7.269531 14.820312 7.164062 14.6875 7.167969 L 5.203125 7.167969 C 5.195312 7.167969 5.1875 7.167969 5.179688 7.167969 Z M 5.179688 7.167969 "/>
</g>
</svg>
