
<svg xmlns="http://www.w3.org/2000/svg" xmlns:xlink="http://www.w3.org/1999/xlink" width="16px" height="16px" viewBox="0 0 16 16" version="1.1">
<g id="surface1">
<path style=" stroke:none;fill-rule:nonzero;fill:#ff6666;fill-opacity:1;" d="M 7.972656 14.949219 C 7.933594 14.917969 7.851562 14.863281 7.792969 14.820312 L 7.683594 14.746094 L 7.683594 14.074219 L 7.835938 13.875 L 7.988281 13.671875 L 7.980469 13.023438 C 7.976562 12.664062 7.96875 11.722656 7.960938 10.929688 C 7.953125 10.132812 7.945312 9.289062 7.941406 9.050781 C 7.9375 8.8125 7.929688 8.171875 7.925781 7.628906 L 7.917969 6.644531 L 7.738281 6.511719 C 7.53125 6.351562 7.367188 6.226562 7.191406 6.089844 C 7.121094 6.035156 7.042969 5.976562 7.015625 5.960938 C 6.992188 5.941406 6.84375 5.828125 6.6875 5.710938 C 6.242188 5.367188 6.292969 5.394531 6.082031 5.367188 C 5.980469 5.351562 5.878906 5.332031 5.851562 5.328125 C 5.828125 5.320312 5.742188 5.304688 5.660156 5.292969 C 5.582031 5.28125 5.453125 5.261719 5.378906 5.25 C 5.300781 5.234375 5.191406 5.214844 5.132812 5.207031 C 5.074219 5.199219 4.984375 5.183594 4.929688 5.175781 C 4.875 5.164062 4.757812 5.144531 4.664062 5.128906 C 4.414062 5.089844 3.8125 4.992188 3.546875 4.945312 C 3.460938 4.929688 3.351562 4.914062 3.300781 4.90625 C 3.195312 4.890625 2.863281 4.835938 2.703125 4.804688 C 2.640625 4.792969 2.5 4.769531 2.390625 4.753906 C 2.285156 4.734375 2.085938 4.703125 1.957031 4.683594 C 1.828125 4.660156 1.605469 4.625 1.46875 4.601562 C 1.332031 4.582031 1.210938 4.558594 1.199219 4.554688 C 1.1875 4.554688 1.082031 4.535156 0.960938 4.515625 C 0.84375 4.496094 0.660156 4.46875 0.558594 4.449219 C 0.457031 4.433594 0.292969 4.40625 0.1875 4.390625 L 0 4.359375 L 0 4.007812 L 0.09375 3.871094 C 0.148438 3.792969 0.222656 3.683594 0.261719 3.628906 C 0.300781 3.574219 0.351562 3.5 0.375 3.460938 C 0.402344 3.425781 0.441406 3.371094 0.460938 3.335938 C 0.484375 3.304688 0.535156 3.234375 0.570312 3.179688 C 0.609375 3.125 0.660156 3.046875 0.6875 3.011719 L 0.738281 2.941406 L 15.257812 2.941406 L 15.316406 3.019531 C 15.347656 3.0625 15.40625 3.144531 15.445312 3.199219 C 15.484375 3.257812 15.578125 3.394531 15.65625 3.507812 C 15.734375 3.621094 15.84375 3.777344 15.898438 3.859375 L 16 4.007812 L 16 4.359375 L 15.839844 4.386719 C 15.664062 4.417969 15.339844 4.476562 15.042969 4.527344 C 14.941406 4.546875 14.757812 4.582031 14.636719 4.601562 C 14.511719 4.625 14.3125 4.660156 14.195312 4.679688 C 14.074219 4.703125 13.894531 4.734375 13.792969 4.753906 C 13.691406 4.769531 13.507812 4.804688 13.382812 4.828125 C 13.261719 4.847656 13.066406 4.882812 12.949219 4.90625 C 12.832031 4.925781 12.632812 4.960938 12.507812 4.984375 C 12.109375 5.054688 11.847656 5.101562 11.652344 5.136719 C 11.546875 5.152344 11.449219 5.171875 11.4375 5.175781 C 11.421875 5.179688 11.328125 5.199219 11.226562 5.214844 C 11.121094 5.234375 10.941406 5.265625 10.820312 5.285156 C 10.449219 5.351562 10.160156 5.40625 10.050781 5.425781 C 9.992188 5.4375 9.929688 5.445312 9.910156 5.445312 C 9.886719 5.445312 9.84375 5.46875 9.796875 5.507812 C 9.710938 5.574219 9.175781 5.984375 9.101562 6.039062 C 9.058594 6.070312 8.925781 6.171875 8.660156 6.375 C 8.585938 6.433594 8.507812 6.492188 8.488281 6.507812 C 8.46875 6.519531 8.425781 6.550781 8.390625 6.578125 L 8.332031 6.621094 L 8.324219 6.792969 C 8.320312 6.890625 8.308594 7.808594 8.304688 8.839844 C 8.296875 9.867188 8.285156 11.375 8.273438 12.191406 L 8.261719 13.667969 L 8.292969 13.71875 C 8.3125 13.746094 8.347656 13.792969 8.371094 13.824219 C 8.394531 13.855469 8.449219 13.925781 8.492188 13.984375 L 8.570312 14.089844 L 8.558594 14.414062 C 8.546875 14.785156 8.574219 14.726562 8.347656 14.894531 C 8.199219 15 8.195312 15 8.121094 15 C 8.054688 15 8.039062 14.992188 7.972656 14.949219 Z M 1.160156 2.730469 C 1.171875 2.722656 1.492188 2.558594 1.875 2.367188 L 2.570312 2.019531 L 3.238281 2.019531 L 3.285156 1.980469 C 3.351562 1.929688 3.582031 1.816406 3.738281 1.761719 C 4.179688 1.605469 4.839844 1.472656 5.582031 1.390625 L 5.675781 1.378906 L 5.675781 1.160156 L 5.679688 0.9375 L 6.023438 0.9375 L 6.023438 1.332031 L 6.089844 1.332031 L 6.089844 0.660156 L 6.175781 0.660156 C 6.21875 0.660156 6.261719 0.667969 6.265625 0.675781 C 6.273438 0.679688 6.277344 0.824219 6.28125 0.996094 C 6.285156 1.164062 6.292969 1.304688 6.296875 1.304688 C 6.296875 1.308594 6.300781 1.199219 6.300781 1.058594 L 6.300781 0.804688 L 6.46875 0.804688 L 6.472656 1.054688 C 6.476562 1.289062 6.480469 1.300781 6.503906 1.300781 C 6.53125 1.300781 6.53125 1.289062 6.535156 1.054688 L 6.539062 0.804688 L 6.878906 0.804688 L 6.878906 1.042969 C 6.878906 1.171875 6.882812 1.277344 6.886719 1.28125 C 6.890625 1.285156 6.921875 1.285156 6.960938 1.28125 L 7.03125 1.273438 L 7.035156 1.125 C 7.039062 1.003906 7.042969 0.976562 7.058594 0.976562 C 7.070312 0.976562 7.082031 0.964844 7.085938 0.953125 C 7.09375 0.925781 7.105469 0.925781 7.269531 0.925781 L 7.449219 0.925781 L 7.445312 1.09375 C 7.441406 1.234375 7.441406 1.261719 7.460938 1.261719 C 7.476562 1.261719 7.480469 1.207031 7.484375 0.875 L 7.488281 0.488281 L 7.613281 0.488281 C 7.722656 0.488281 7.738281 0.492188 7.738281 0.511719 C 7.738281 0.527344 7.738281 0.699219 7.738281 0.894531 L 7.734375 1.253906 L 7.828125 1.253906 L 7.828125 1.011719 C 7.828125 0.828125 7.832031 0.769531 7.84375 0.765625 C 7.859375 0.757812 7.898438 0.761719 7.976562 0.765625 C 7.996094 0.765625 8 0.789062 8.003906 1.007812 L 8.007812 1.246094 L 8.097656 1.246094 L 8.09375 1.023438 C 8.09375 0.902344 8.09375 0.769531 8.097656 0.730469 C 8.105469 0.664062 8.109375 0.660156 8.144531 0.660156 L 8.183594 0.660156 L 8.183594 0.957031 C 8.183594 1.246094 8.183594 1.253906 8.210938 1.253906 C 8.234375 1.253906 8.238281 1.246094 8.238281 1.085938 L 8.238281 0.914062 L 8.324219 0.910156 C 8.371094 0.90625 8.414062 0.90625 8.417969 0.910156 C 8.417969 0.914062 8.421875 0.996094 8.421875 1.09375 L 8.421875 1.269531 L 8.507812 1.261719 L 8.515625 0.808594 L 8.765625 0.808594 L 8.765625 0.992188 L 8.96875 1 L 8.976562 1.28125 L 9.054688 1.28125 L 9.054688 0.898438 L 9.304688 0.898438 L 9.304688 1.097656 C 9.304688 1.28125 9.308594 1.296875 9.328125 1.292969 C 9.347656 1.289062 9.351562 1.269531 9.355469 1.140625 L 9.359375 0.992188 L 9.5625 0.984375 L 9.566406 0.761719 C 9.570312 0.566406 9.570312 0.542969 9.589844 0.546875 C 9.601562 0.550781 9.644531 0.554688 9.6875 0.554688 L 9.765625 0.554688 L 9.773438 1.328125 L 9.800781 1.332031 L 9.832031 1.335938 L 9.832031 0.914062 L 10.042969 0.90625 L 10.042969 1.34375 L 10.074219 1.351562 L 10.109375 1.355469 L 10.109375 1.015625 L 10.320312 1.015625 L 10.324219 1.199219 L 10.328125 1.378906 L 10.417969 1.390625 C 11.023438 1.457031 11.640625 1.570312 12.035156 1.6875 C 12.328125 1.777344 12.605469 1.894531 12.710938 1.980469 L 12.761719 2.019531 L 13.429688 2.019531 L 14.136719 2.375 C 14.527344 2.570312 14.847656 2.734375 14.851562 2.738281 C 14.855469 2.742188 11.769531 2.746094 8 2.746094 C 3.578125 2.746094 1.148438 2.738281 1.160156 2.730469 Z M 1.160156 2.730469 "/>
</g>
</svg>
