
<svg xmlns="http://www.w3.org/2000/svg" xmlns:xlink="http://www.w3.org/1999/xlink" width="16px" height="16px" viewBox="0 0 16 16" version="1.1">
<g id="surface1">
<path style=" stroke:none;fill-rule:nonzero;fill:#ff6666;fill-opacity:1;" d="M 8 0 C 3.585938 0 0 3.589844 0 8 L 1.777344 8 C 1.777344 4.570312 4.570312 1.777344 8 1.777344 C 9.714844 1.777344 11.265625 2.484375 12.390625 3.613281 L 9.777344 6.222656 L 16 6.222656 L 16 0 L 13.640625 2.359375 C 12.191406 0.910156 10.207031 0 8 0 Z M 14.222656 8 C 14.222656 11.429688 11.429688 14.222656 8 14.222656 C 6.351562 14.222656 4.769531 13.5625 3.609375 12.386719 L 6.222656 9.777344 L 0 9.777344 L 0 16 L 2.359375 13.640625 C 3.808594 15.089844 5.792969 16 8 16 C 12.414062 16 16 12.414062 16 8 Z M 14.222656 8 "/>
</g>
</svg>
