
<svg xmlns="http://www.w3.org/2000/svg" xmlns:xlink="http://www.w3.org/1999/xlink" width="16px" height="16px" viewBox="0 0 16 16" version="1.1">
<g id="surface1">
<path style=" stroke:none;fill-rule:evenodd;fill:#ff6666;fill-opacity:1;" d="M 7.300781 5.199219 L 7.300781 10.210938 L 5.023438 7.957031 L 4.039062 8.941406 L 8 12.898438 L 11.960938 8.941406 L 10.976562 7.957031 L 8.699219 10.210938 L 8.699219 5.199219 Z M 7.300781 3.101562 L 8.699219 3.101562 L 8.699219 4.5 L 7.300781 4.5 Z M 7.300781 1 L 8.699219 1 L 8.699219 2.398438 L 7.300781 2.398438 Z M 1 9.398438 L 1 13.601562 C 1 14.363281 1.636719 15 2.398438 15 L 13.601562 15 C 14.363281 15 15 14.363281 15 13.601562 L 15 9.398438 L 13.601562 9.398438 L 13.601562 13.601562 L 2.398438 13.601562 L 2.398438 9.398438 Z M 1 9.398438 "/>
</g>
</svg>
