
<svg xmlns="http://www.w3.org/2000/svg" xmlns:xlink="http://www.w3.org/1999/xlink" width="16px" height="16px" viewBox="0 0 16 16" version="1.1">
<g id="surface1">
<path style=" stroke:none;fill-rule:nonzero;fill:#ff6666;fill-opacity:1;" d="M 8 1 C 4.132812 1 1 4.132812 1 8 C 1 11.867188 4.132812 15 8 15 C 9.714844 15 11.292969 14.390625 12.511719 13.367188 L 14.140625 15 L 15 14.140625 L 13.367188 12.511719 C 14.390625 11.292969 15 9.714844 15 8 C 15 4.132812 11.867188 1 8 1 Z M 8 2.078125 C 11.140625 2.078125 13.707031 4.523438 13.90625 7.613281 L 4.449219 3.273438 C 5.441406 2.527344 6.664062 2.078125 8 2.078125 Z M 3.253906 4.46875 L 7.578125 13.90625 C 4.503906 13.691406 2.074219 11.128906 2.074219 8 C 2.074219 6.675781 2.519531 5.453125 3.253906 4.464844 Z M 4.804688 4.820312 L 10.035156 7.292969 L 7.277344 10.035156 Z M 11.214844 7.832031 L 13.820312 9.109375 C 13.636719 10.09375 13.203125 10.988281 12.59375 11.734375 L 11.566406 10.710938 L 10.710938 11.566406 L 11.734375 12.59375 C 10.984375 13.203125 10.082031 13.636719 9.09375 13.820312 L 7.832031 11.214844 Z M 11.214844 7.832031 "/>
</g>
</svg>
