
<svg xmlns="http://www.w3.org/2000/svg" xmlns:xlink="http://www.w3.org/1999/xlink" width="16px" height="16px" viewBox="0 0 16 16" version="1.1">
<g id="surface1">
<path style=" stroke:none;fill-rule:evenodd;fill:#ff6666;fill-opacity:1;" d="M 8 1 C 7.375 2.527344 7 3.527344 6.304688 5.007812 C 6.730469 5.460938 7.253906 5.984375 8.101562 6.578125 C 7.191406 6.203125 6.566406 5.828125 6.101562 5.4375 C 5.214844 7.289062 3.824219 9.929688 1 15 C 3.21875 13.71875 4.941406 12.929688 6.542969 12.628906 C 6.472656 12.332031 6.433594 12.011719 6.4375 11.679688 L 6.441406 11.605469 C 6.476562 10.183594 7.214844 9.09375 8.089844 9.164062 C 8.96875 9.238281 9.648438 10.453125 9.613281 11.875 C 9.605469 12.144531 9.574219 12.398438 9.523438 12.640625 C 11.109375 12.949219 12.808594 13.734375 15 15 C 14.566406 14.203125 14.183594 13.488281 13.8125 12.808594 C 13.234375 12.359375 12.628906 11.773438 11.398438 11.140625 C 12.246094 11.359375 12.851562 11.613281 13.324219 11.898438 C 9.585938 4.933594 9.28125 4.011719 8 1 Z M 8 1 "/>
</g>
</svg>
