
<svg xmlns="http://www.w3.org/2000/svg" xmlns:xlink="http://www.w3.org/1999/xlink" width="16px" height="16px" viewBox="0 0 16 16" version="1.1">
<g id="surface1">
<path style=" stroke:none;fill-rule:nonzero;fill:#ff6666;fill-opacity:1;" d="M 8 1.070312 L 0 14.929688 L 0.136719 14.929688 C 0.414062 14.921875 0.519531 14.472656 0.664062 14.472656 C 0.757812 14.472656 0.890625 14.542969 0.984375 14.542969 C 1.164062 14.542969 1.214844 13.605469 1.367188 13.605469 C 1.515625 13.609375 1.488281 14.410156 1.769531 14.421875 C 2.0625 14.429688 1.867188 12.574219 2.15625 12.574219 C 2.402344 12.574219 2.277344 14.160156 2.617188 14.167969 C 2.949219 14.179688 2.695312 11.425781 3.023438 11.402344 C 3.40625 11.371094 3.164062 13.960938 3.558594 13.960938 C 3.90625 13.960938 3.675781 10.324219 3.984375 10.324219 C 4.289062 10.324219 4.195312 13.839844 4.507812 13.808594 C 4.808594 13.808594 4.519531 9.566406 4.867188 9.566406 C 5.308594 9.566406 5.082031 13.777344 5.386719 13.777344 C 5.730469 13.777344 5.449219 9.15625 5.847656 9.15625 C 6.261719 9.15625 5.980469 13.820312 6.324219 13.808594 C 6.6875 13.796875 6.308594 9.4375 6.707031 9.4375 C 7.09375 9.4375 6.832031 13.871094 7.167969 13.871094 C 7.523438 13.871094 7.140625 9.492188 7.605469 9.523438 C 8.058594 9.554688 7.761719 13.996094 8.085938 13.996094 C 8.390625 13.996094 8.207031 10.117188 8.574219 10.136719 C 9.003906 10.160156 8.753906 14.117188 9.050781 14.117188 C 9.324219 14.117188 9.199219 10.960938 9.566406 10.960938 C 9.949219 10.960938 9.660156 14.238281 10.015625 14.222656 C 10.367188 14.207031 10.210938 11.722656 10.554688 11.722656 C 10.886719 11.722656 10.613281 14.433594 10.984375 14.433594 C 11.371094 14.433594 11.175781 12.535156 11.519531 12.535156 C 11.871094 12.535156 11.648438 14.609375 11.917969 14.609375 C 12.179688 14.609375 12.101562 13.300781 12.363281 13.300781 C 12.621094 13.300781 12.5 14.683594 12.71875 14.683594 C 12.945312 14.683594 12.851562 13.886719 13.089844 13.886719 C 13.328125 13.886719 13.242188 14.746094 13.425781 14.757812 C 13.589844 14.765625 13.570312 14.214844 13.71875 14.214844 C 13.871094 14.214844 13.808594 14.828125 14.019531 14.828125 C 14.222656 14.828125 14.160156 14.488281 14.304688 14.488281 C 14.445312 14.488281 14.449219 14.886719 14.617188 14.886719 C 14.738281 14.886719 14.863281 14.703125 15.015625 14.703125 C 15.214844 14.703125 15.277344 14.929688 15.789062 14.929688 L 16 14.929688 Z M 8 1.070312 "/>
</g>
</svg>
