
<svg xmlns="http://www.w3.org/2000/svg" xmlns:xlink="http://www.w3.org/1999/xlink" width="16px" height="16px" viewBox="0 0 16 16" version="1.1">
<g id="surface1">
<path style=" stroke:none;fill-rule:nonzero;fill:#ff6666;fill-opacity:1;" d="M 4.152344 4.5 C 2.992188 4.5 2.042969 4.9375 1.421875 5.609375 C 0.800781 6.285156 0.5 7.164062 0.5 8.039062 C 0.5 8.910156 0.800781 9.789062 1.421875 10.464844 C 2.039062 11.132812 2.984375 11.566406 4.136719 11.574219 C 5.273438 11.625 6.191406 11.203125 6.859375 10.585938 C 7.339844 10.140625 7.660156 9.589844 8 9.054688 C 8.339844 9.589844 8.660156 10.140625 9.140625 10.585938 C 9.808594 11.203125 10.726562 11.625 11.863281 11.574219 C 13.015625 11.566406 13.960938 11.132812 14.578125 10.464844 C 15.199219 9.789062 15.5 8.910156 15.5 8.039062 C 15.5 7.164062 15.199219 6.285156 14.578125 5.609375 C 13.957031 4.9375 13.007812 4.5 11.847656 4.5 C 10.65625 4.5 9.71875 4.964844 9.023438 5.609375 C 8.589844 6.011719 8.3125 6.5 8 6.976562 C 7.6875 6.5 7.410156 6.011719 6.976562 5.609375 C 6.28125 4.964844 5.34375 4.5 4.152344 4.5 Z M 4.152344 5.75 C 5.042969 5.75 5.609375 6.042969 6.128906 6.523438 C 6.53125 6.898438 6.878906 7.460938 7.226562 8.011719 C 6.832031 8.652344 6.445312 9.269531 6.015625 9.671875 C 5.523438 10.121094 5.015625 10.371094 4.183594 10.328125 L 4.152344 10.328125 C 3.292969 10.328125 2.726562 10.035156 2.339844 9.617188 C 1.953125 9.199219 1.75 8.621094 1.75 8.039062 C 1.75 7.453125 1.953125 6.878906 2.339844 6.460938 C 2.726562 6.039062 3.292969 5.75 4.152344 5.75 Z M 11.847656 5.75 C 12.707031 5.75 13.273438 6.039062 13.660156 6.460938 C 14.046875 6.878906 14.25 7.453125 14.25 8.039062 C 14.25 8.621094 14.046875 9.199219 13.660156 9.617188 C 13.273438 10.035156 12.707031 10.328125 11.847656 10.328125 L 11.816406 10.328125 C 10.984375 10.371094 10.476562 10.121094 9.984375 9.671875 C 9.554688 9.269531 9.167969 8.652344 8.773438 8.011719 C 9.121094 7.460938 9.46875 6.898438 9.871094 6.523438 C 10.390625 6.042969 10.957031 5.75 11.847656 5.75 Z M 11.847656 5.75 "/>
<path style=" stroke:none;fill-rule:nonzero;fill:#ff6666;fill-opacity:1;" d="M 11.308594 6.90625 L 11.308594 7.585938 L 10.632812 7.585938 L 10.632812 8.285156 L 11.308594 8.285156 L 11.308594 8.96875 L 12.015625 8.96875 L 12.015625 8.285156 L 12.6875 8.285156 L 12.6875 7.585938 L 12.015625 7.585938 L 12.015625 6.90625 Z M 11.308594 6.90625 "/>
<path style=" stroke:none;fill-rule:nonzero;fill:#ff6666;fill-opacity:1;" d="M 3.140625 7.578125 L 3.140625 8.296875 L 5.363281 8.296875 L 5.363281 7.578125 Z M 3.140625 7.578125 "/>
</g>
</svg>
