
<svg xmlns="http://www.w3.org/2000/svg" xmlns:xlink="http://www.w3.org/1999/xlink" width="16px" height="16px" viewBox="0 0 16 16" version="1.1">
<g id="surface1">
<path style=" stroke:none;fill-rule:nonzero;fill:#ff6666;fill-opacity:1;" d="M 13.8125 0.539062 C 13.738281 0.535156 13.664062 0.550781 13.597656 0.578125 L 13.09375 1.085938 L 12.859375 0.832031 L 12.664062 1.144531 L 12.917969 1.394531 L 12.664062 1.648438 L 12.351562 1.394531 L 12.101562 1.648438 L 12.351562 1.882812 L 11.847656 2.386719 C 11.785156 2.445312 11.753906 2.519531 11.753906 2.601562 C 11.753906 2.683594 11.785156 2.761719 11.847656 2.816406 L 9.746094 4.917969 C 9.089844 4.476562 8.351562 4.257812 7.683594 4.257812 C 7.019531 4.253906 6.375 4.496094 5.875 4.9375 C 5.628906 5.183594 5.375 5.554688 5.3125 5.929688 C 5.0625 6.675781 4.386719 7.171875 3.636719 7.171875 C 2.769531 7.171875 2.023438 7.488281 1.402344 8.050781 C -0.03125 9.480469 0.277344 12.101562 2.082031 13.847656 C 3.140625 14.902344 4.441406 15.460938 5.621094 15.460938 C 6.476562 15.464844 7.300781 15.152344 7.9375 14.585938 C 8.496094 14.023438 8.8125 13.21875 8.8125 12.347656 C 8.8125 11.539062 9.3125 10.863281 10.058594 10.675781 C 10.433594 10.550781 10.738281 10.359375 11.050781 10.109375 C 11.996094 9.164062 11.964844 7.542969 11.070312 6.238281 L 13.171875 4.140625 C 13.226562 4.199219 13.304688 4.230469 13.382812 4.230469 C 13.464844 4.230469 13.542969 4.199219 13.597656 4.140625 L 14.105469 3.632812 L 14.335938 3.886719 L 14.589844 3.632812 L 14.335938 3.382812 L 14.589844 3.128906 L 14.84375 3.320312 L 15.09375 3.070312 L 14.84375 2.816406 L 15.40625 2.386719 C 15.53125 2.265625 15.53125 2.085938 15.40625 1.960938 L 14.027344 0.578125 C 13.960938 0.550781 13.886719 0.535156 13.8125 0.539062 Z M 13.851562 1.339844 L 14.105469 1.570312 L 12.78125 2.894531 L 12.546875 2.640625 Z M 14.414062 1.882812 L 14.648438 2.136719 L 13.34375 3.4375 L 13.09375 3.207031 Z M 7.683594 5.191406 C 8.148438 5.191406 8.609375 5.359375 9.046875 5.617188 L 7.277344 7.386719 C 7.203125 7.378906 7.136719 7.367188 7.0625 7.367188 C 6.203125 7.367188 5.507812 8.066406 5.507812 8.925781 C 5.507812 9.78125 6.203125 10.480469 7.0625 10.480469 C 7.921875 10.480469 8.617188 9.78125 8.617188 8.925781 C 8.617188 8.851562 8.609375 8.78125 8.597656 8.710938 L 10.367188 6.941406 C 10.910156 7.851562 10.949219 8.847656 10.367188 9.429688 C 10.183594 9.617188 9.992188 9.675781 9.746094 9.800781 C 8.625 10.109375 7.863281 11.160156 7.800781 12.40625 C 7.800781 12.84375 7.675781 13.464844 7.179688 13.964844 C 6.679688 14.460938 6 14.585938 5.5625 14.585938 C 4.566406 14.585938 3.515625 14.089844 2.703125 13.28125 C 1.273438 11.851562 0.964844 9.867188 2.023438 8.808594 C 2.523438 8.308594 3.144531 8.183594 3.578125 8.183594 C 4.824219 8.183594 5.8125 7.359375 6.1875 6.238281 C 6.25 5.992188 6.367188 5.804688 6.554688 5.617188 C 6.929688 5.242188 7.371094 5.191406 7.683594 5.191406 Z M 3.910156 10.109375 L 3.328125 10.695312 L 5.273438 12.621094 L 5.835938 12.054688 Z M 3.910156 10.109375 "/>
</g>
</svg>
