
<svg xmlns="http://www.w3.org/2000/svg" xmlns:xlink="http://www.w3.org/1999/xlink" width="16px" height="16px" viewBox="0 0 16 16" version="1.1">
<g id="surface1">
<path style=" stroke:none;fill-rule:nonzero;fill:#ff6666;fill-opacity:1;" d="M 9.96875 9.347656 L 11.957031 15 L 13.921875 15 L 8.898438 1 L 7.105469 1 L 2.078125 15 L 4.042969 15 L 7.988281 3.726562 L 9.679688 8.527344 C 9.050781 8.359375 8.363281 8.417969 7.769531 8.683594 C 7.167969 8.964844 6.65625 9.480469 6.476562 10.203125 C 6.367188 10.640625 6.40625 11.113281 6.597656 11.523438 C 6.792969 11.933594 7.152344 12.28125 7.644531 12.394531 C 7.9375 12.460938 8.246094 12.425781 8.515625 12.289062 C 8.785156 12.152344 9.023438 11.894531 9.089844 11.546875 C 9.125 11.347656 9.097656 11.140625 9.003906 10.953125 C 8.902344 10.769531 8.714844 10.597656 8.464844 10.5625 C 8.324219 10.539062 8.191406 10.566406 8.0625 10.640625 C 7.933594 10.714844 7.804688 10.867188 7.785156 11.058594 L 8.445312 11.121094 C 8.441406 11.167969 8.402344 11.214844 8.390625 11.222656 C 8.375 11.230469 8.382812 11.226562 8.371094 11.226562 C 8.390625 11.230469 8.394531 11.230469 8.414062 11.269531 C 8.433594 11.308594 8.445312 11.378906 8.4375 11.421875 C 8.414062 11.542969 8.34375 11.628906 8.222656 11.6875 C 8.097656 11.746094 7.925781 11.765625 7.792969 11.742188 C 7.511719 11.675781 7.324219 11.496094 7.199219 11.234375 C 7.078125 10.976562 7.050781 10.648438 7.117188 10.371094 C 7.25 9.859375 7.59375 9.507812 8.046875 9.296875 C 8.5 9.089844 9.058594 9.046875 9.542969 9.183594 C 9.691406 9.226562 9.832031 9.28125 9.96875 9.347656 Z M 9.96875 9.347656 "/>
</g>
</svg>
