
<svg xmlns="http://www.w3.org/2000/svg" xmlns:xlink="http://www.w3.org/1999/xlink" width="16px" height="16px" viewBox="0 0 16 16" version="1.1">
<g id="surface1">
<path style=" stroke:none;fill-rule:nonzero;fill:#ff6666;fill-opacity:1;" d="M 9.09375 6.171875 C 9.589844 8.203125 10.253906 10.210938 10.816406 12.171875 C 11.109375 8.570312 11.242188 5.015625 11.542969 1.503906 L 15 1.8125 C 14.355469 6.441406 13.773438 10.980469 12.769531 15.421875 L 9.675781 15.144531 C 8.867188 12.996094 8.246094 10.875 7.523438 8.839844 C 6.359375 10.828125 5.320312 12.734375 4.273438 14.660156 L 1.179688 14.382812 C 0.871094 9.722656 1.007812 5.121094 1.226562 0.578125 L 4.683594 0.886719 C 4.339844 4.390625 3.855469 8.105469 3.566406 11.519531 C 4.5 9.621094 5.429688 7.832031 6.363281 5.929688 Z M 9.09375 6.171875 "/>
</g>
</svg>
