
<svg xmlns="http://www.w3.org/2000/svg" xmlns:xlink="http://www.w3.org/1999/xlink" width="16px" height="16px" viewBox="0 0 16 16" version="1.1">
<g id="surface1">
<path style=" stroke:none;fill-rule:nonzero;fill:#ff6666;fill-opacity:1;" d="M 8.339844 4.589844 C 10.046875 4.589844 12.433594 5.078125 12.433594 6.976562 L 12.433594 11.410156 L 9.023438 11.410156 L 9.023438 9.535156 C 9.023438 9.535156 8.105469 9.796875 7.640625 10.046875 C 6.976562 10.40625 6.726562 10.726562 7.460938 11.410156 L 4.367188 11.410156 C 3.964844 11.410156 3.566406 11.011719 3.566406 10.386719 C 3.566406 8.851562 4.84375 8.480469 6.054688 8.238281 C 7.03125 8.046875 8.460938 7.898438 8.734375 7.742188 C 9.34375 7.394531 8.960938 6.636719 8.339844 6.636719 C 7.316406 6.636719 6.976562 6.851562 6.976562 7.660156 L 3.90625 7.660156 C 3.90625 5.390625 6.296875 4.589844 8.339844 4.589844 Z M 8.339844 4.589844 "/>
</g>
</svg>
