
<svg xmlns="http://www.w3.org/2000/svg" xmlns:xlink="http://www.w3.org/1999/xlink" width="16px" height="16px" viewBox="0 0 16 16" version="1.1">
<g id="surface1">
<path style=" stroke:none;fill-rule:nonzero;fill:#ff6666;fill-opacity:1;" d="M 1.070312 11.226562 C 1.160156 11.015625 2.953125 6.878906 3.039062 6.667969 C 3.125 6.453125 2.953125 6.355469 2.878906 6.558594 C 2.804688 6.761719 0.683594 11.40625 0.566406 11.675781 C 0.449219 11.945312 0.449219 12.125 0.910156 12.125 C 1.367188 12.125 7.257812 12.125 7.257812 12.125 L 7.257812 12.5 L 8.753906 12.5 L 8.753906 12.09375 C 8.753906 12.09375 14.960938 12.09375 15.1875 12.09375 C 15.414062 12.09375 15.617188 12.050781 15.421875 11.644531 C 15.230469 11.238281 13.238281 6.835938 13.144531 6.601562 C 13.046875 6.367188 12.863281 6.464844 12.941406 6.644531 C 13.015625 6.828125 14.867188 11.054688 14.941406 11.257812 C 15.015625 11.460938 15.113281 11.78125 14.246094 11.78125 C 13.078125 11.78125 11.035156 10.96875 10.144531 10.96875 C 9.257812 10.96875 8.421875 11.492188 8 12.050781 C 7.578125 11.65625 7.042969 10.96875 5.894531 10.96875 C 4.75 10.96875 3.296875 11.773438 1.808594 11.773438 C 1.25 11.773438 0.855469 11.722656 1.070312 11.226562 Z M 1.070312 11.226562 "/>
<path style=" stroke:none;fill-rule:nonzero;fill:#ff6666;fill-opacity:1;" d="M 14.289062 10.667969 C 14.117188 10.210938 12.4375 5.800781 12.4375 5.800781 C 12.4375 5.800781 12.277344 5.851562 11.945312 5.851562 C 10.863281 5.851562 9.644531 5.136719 9.160156 5.136719 C 8.65625 5.136719 8 5.691406 8 5.691406 C 8 5.691406 7.234375 5.136719 6.871094 5.136719 C 6.195312 5.136719 5.320312 5.84375 4 5.84375 C 3.710938 5.84375 3.542969 5.800781 3.542969 5.800781 C 3.542969 5.800781 1.753906 10.53125 1.625 10.851562 C 1.496094 11.171875 1.496094 11.386719 1.980469 11.386719 C 3.136719 11.386719 5.222656 10.335938 5.875 10.335938 C 7.074219 10.335938 8 11.6875 8 11.6875 C 8 11.6875 9.023438 10.347656 10.113281 10.347656 C 11.207031 10.347656 12.683594 11.40625 14.042969 11.40625 C 14.460938 11.40625 14.460938 11.128906 14.289062 10.667969 Z M 7.707031 10.574219 C 7.707031 10.574219 7.128906 9.867188 5.992188 9.867188 C 4.816406 9.867188 3.058594 10.894531 2.566406 10.894531 C 2.289062 10.894531 2.128906 10.832031 2.246094 10.433594 C 2.363281 10.039062 3.777344 6.257812 3.777344 6.257812 C 3.777344 6.257812 3.980469 6.28125 4.269531 6.28125 C 5.585938 6.28125 6.066406 5.671875 6.839844 5.671875 C 7.363281 5.671875 7.640625 5.96875 7.707031 6.183594 Z M 13.453125 10.894531 C 12.960938 10.894531 11.203125 9.867188 10.027344 9.867188 C 8.890625 9.867188 8.3125 10.574219 8.3125 10.574219 L 8.3125 6.183594 C 8.378906 5.96875 8.65625 5.671875 9.179688 5.671875 C 9.953125 5.671875 10.433594 6.28125 11.75 6.28125 C 12.039062 6.28125 12.242188 6.257812 12.242188 6.257812 C 12.242188 6.257812 13.65625 10.039062 13.773438 10.433594 C 13.890625 10.832031 13.730469 10.894531 13.453125 10.894531 Z M 13.453125 10.894531 "/>
</g>
</svg>
