
<svg xmlns="http://www.w3.org/2000/svg" xmlns:xlink="http://www.w3.org/1999/xlink" width="16px" height="16px" viewBox="0 0 16 16" version="1.1">
<g id="surface1">
<path style=" stroke:none;fill-rule:nonzero;fill:#ff6666;fill-opacity:1;" d="M 4.546875 12.265625 C 4.265625 12.230469 3.769531 12.066406 3.4375 11.90625 C 1.269531 10.871094 0.386719 8.257812 1.453125 6.054688 C 2.671875 3.539062 5.996094 2.898438 7.996094 4.792969 C 8.574219 5.339844 8.832031 5.808594 9.703125 7.878906 C 10.609375 10.042969 10.777344 10.382812 11.074219 10.671875 C 11.390625 10.980469 11.683594 11.082031 12.242188 11.082031 C 13.160156 11.082031 13.816406 10.515625 13.816406 9.722656 C 13.816406 9.050781 13.582031 8.835938 12.378906 8.410156 C 10.546875 7.746094 9.953125 7.148438 9.949219 5.949219 C 9.949219 5.3125 10.113281 4.882812 10.523438 4.441406 C 11.117188 3.8125 12.136719 3.601562 13.039062 3.914062 C 13.425781 4.054688 14.230469 4.765625 14.230469 4.96875 C 14.230469 5.070312 13.761719 5.371094 13.503906 5.441406 C 13.367188 5.480469 13.25 5.433594 13.089844 5.28125 C 12.769531 4.972656 12.554688 4.878906 12.171875 4.878906 C 11.511719 4.878906 11.101562 5.277344 11.101562 5.917969 C 11.101562 6.558594 11.363281 6.773438 12.664062 7.214844 C 14.460938 7.820312 14.988281 8.367188 15 9.636719 C 15.011719 10.730469 14.519531 11.519531 13.535156 11.984375 C 13.089844 12.195312 12.941406 12.222656 12.210938 12.222656 C 11.171875 12.21875 10.703125 12.027344 10.121094 11.371094 C 9.730469 10.929688 9.332031 10.101562 8.058594 7.074219 C 7.53125 5.820312 6.855469 5.207031 5.726562 4.964844 C 5.152344 4.84375 4.355469 4.957031 3.835938 5.230469 C 3.328125 5.496094 2.761719 6.09375 2.496094 6.640625 C 2.273438 7.085938 2.253906 7.207031 2.253906 7.980469 C 2.253906 8.714844 2.28125 8.890625 2.46875 9.292969 C 2.746094 9.910156 3.296875 10.480469 3.902344 10.785156 C 4.34375 11.007812 4.480469 11.035156 5.175781 11.035156 C 5.847656 11.035156 6.019531 11 6.421875 10.8125 C 6.878906 10.589844 7.492188 10.042969 7.742188 9.632812 L 7.871094 9.417969 L 8.128906 10.007812 C 8.273438 10.332031 8.386719 10.636719 8.386719 10.691406 C 8.386719 10.855469 7.808594 11.375 7.273438 11.714844 C 6.46875 12.210938 5.539062 12.398438 4.546875 12.265625 "/>
</g>
</svg>
