
<svg xmlns="http://www.w3.org/2000/svg" xmlns:xlink="http://www.w3.org/1999/xlink" width="16px" height="16px" viewBox="0 0 16 16" version="1.1">
<g id="surface1">
<path style=" stroke:none;fill-rule:evenodd;fill:#ff6666;fill-opacity:1;" d="M 0.636719 4.183594 L 7.207031 1.152344 C 7.644531 0.949219 8.355469 0.949219 8.792969 1.152344 L 15.363281 4.183594 C 15.800781 4.386719 15.800781 4.714844 15.363281 4.914062 L 8.792969 7.949219 C 8.355469 8.148438 7.644531 8.148438 7.207031 7.949219 L 0.636719 4.914062 C 0.199219 4.714844 0.199219 4.386719 0.636719 4.183594 Z M 2.988281 6.582031 L 0.886719 7.554688 C 0.308594 7.820312 0.308594 8.246094 0.886719 8.515625 L 6.960938 11.316406 C 7.535156 11.582031 8.464844 11.582031 9.039062 11.316406 L 15.113281 8.515625 C 15.691406 8.246094 15.691406 7.820312 15.113281 7.554688 L 13.011719 6.582031 L 9.039062 8.414062 C 8.464844 8.679688 7.535156 8.679688 6.960938 8.414062 Z M 2.988281 10.066406 L 0.886719 11.035156 C 0.308594 11.300781 0.308594 11.730469 0.886719 11.996094 L 6.960938 14.800781 C 7.535156 15.066406 8.464844 15.066406 9.039062 14.800781 L 15.113281 11.996094 C 15.691406 11.730469 15.691406 11.300781 15.113281 11.035156 L 13.011719 10.066406 L 9.039062 11.898438 C 8.464844 12.164062 7.535156 12.164062 6.960938 11.898438 Z M 2.988281 10.066406 "/>
</g>
</svg>
