
<svg xmlns="http://www.w3.org/2000/svg" xmlns:xlink="http://www.w3.org/1999/xlink" width="16px" height="16px" viewBox="0 0 16 16" version="1.1">
<g id="surface1">
<path style=" stroke:none;fill-rule:evenodd;fill:#ff6666;fill-opacity:1;" d="M 0 4.308594 L 0 11.691406 L 0.613281 11.691406 L 0.613281 8.613281 L 1.847656 8.613281 L 1.847656 11.691406 L 2.460938 11.691406 L 2.460938 4.308594 Z M 3.691406 4.308594 L 3.691406 8 L 5.539062 8 L 5.539062 11.078125 L 3.691406 11.078125 L 3.691406 11.691406 L 6.152344 11.691406 L 6.152344 7.386719 L 4.308594 7.386719 L 4.308594 4.921875 L 6.152344 4.921875 L 6.152344 4.308594 Z M 7.386719 4.308594 L 7.386719 11.691406 L 9.847656 11.691406 L 9.847656 11.078125 L 8 11.078125 L 8 4.921875 L 9.847656 4.921875 L 9.847656 4.308594 Z M 11.078125 4.308594 L 11.078125 4.921875 L 11.691406 4.921875 L 11.691406 11.078125 L 11.078125 11.078125 L 11.078125 11.691406 L 12.921875 11.691406 L 12.921875 11.078125 L 12.308594 11.078125 L 12.308594 4.921875 L 12.921875 4.921875 L 12.921875 4.308594 Z M 14.152344 4.308594 L 14.152344 4.921875 L 14.769531 4.921875 L 14.769531 11.078125 L 14.152344 11.078125 L 14.152344 11.691406 L 16 11.691406 L 16 11.078125 L 15.386719 11.078125 L 15.386719 4.921875 L 16 4.921875 L 16 4.308594 Z M 0.613281 4.921875 L 1.847656 4.921875 L 1.847656 8 L 0.613281 8 Z M 0.613281 4.921875 "/>
</g>
</svg>
