
<svg xmlns="http://www.w3.org/2000/svg" xmlns:xlink="http://www.w3.org/1999/xlink" width="16px" height="16px" viewBox="0 0 16 16" version="1.1">
<g id="surface1">
<path style=" stroke:none;fill-rule:nonzero;fill:#ff6666;fill-opacity:1;" d="M 2.285156 4 C 1.96875 4 1.714844 4.257812 1.714844 4.570312 C 1.714844 4.886719 1.96875 5.144531 2.285156 5.144531 C 2.601562 5.144531 2.855469 4.886719 2.855469 4.570312 C 2.855469 4.257812 2.601562 4 2.285156 4 Z M 8 4 C 7.683594 4 7.429688 4.257812 7.429688 4.570312 C 7.429688 4.886719 7.683594 5.144531 8 5.144531 C 8.316406 5.144531 8.570312 4.886719 8.570312 4.570312 C 8.570312 4.257812 8.316406 4 8 4 Z M 9.714844 4 C 9.398438 4 9.144531 4.257812 9.144531 4.570312 C 9.144531 4.886719 9.398438 5.144531 9.714844 5.144531 C 10.03125 5.144531 10.285156 4.886719 10.285156 4.570312 C 10.285156 4.257812 10.03125 4 9.714844 4 Z M 12 4 C 11.683594 4 11.429688 4.257812 11.429688 4.570312 C 11.429688 4.886719 11.683594 5.144531 12 5.144531 C 12.316406 5.144531 12.570312 4.886719 12.570312 4.570312 C 12.570312 4.257812 12.316406 4 12 4 Z M 13.714844 4 C 13.398438 4 13.144531 4.257812 13.144531 4.570312 C 13.144531 4.886719 13.398438 5.144531 13.714844 5.144531 C 14.03125 5.144531 14.285156 4.886719 14.285156 4.570312 C 14.285156 4.257812 14.03125 4 13.714844 4 Z M 15.429688 4 C 15.113281 4 14.855469 4.257812 14.855469 4.570312 C 14.855469 4.886719 15.113281 5.144531 15.429688 5.144531 C 15.742188 5.144531 16 4.886719 16 4.570312 C 16 4.257812 15.742188 4 15.429688 4 Z M 0.570312 5.714844 C 0.257812 5.714844 0 5.96875 0 6.285156 C 0 6.601562 0.257812 6.855469 0.570312 6.855469 C 0.886719 6.855469 1.144531 6.601562 1.144531 6.285156 C 1.144531 5.96875 0.886719 5.714844 0.570312 5.714844 Z M 4 5.714844 C 3.683594 5.714844 3.429688 5.96875 3.429688 6.285156 C 3.429688 6.601562 3.683594 6.855469 4 6.855469 C 4.316406 6.855469 4.570312 6.601562 4.570312 6.285156 C 4.570312 5.96875 4.316406 5.714844 4 5.714844 Z M 6.855469 5.714844 C 6.542969 5.714844 6.285156 5.96875 6.285156 6.285156 C 6.285156 6.601562 6.542969 6.855469 6.855469 6.855469 C 7.171875 6.855469 7.429688 6.601562 7.429688 6.285156 C 7.429688 5.96875 7.171875 5.714844 6.855469 5.714844 Z M 12 5.714844 C 11.683594 5.714844 11.429688 5.96875 11.429688 6.285156 C 11.429688 6.601562 11.683594 6.855469 12 6.855469 C 12.316406 6.855469 12.570312 6.601562 12.570312 6.285156 C 12.570312 5.96875 12.316406 5.714844 12 5.714844 Z M 0.570312 7.429688 C 0.257812 7.429688 0 7.683594 0 8 C 0 8.316406 0.257812 8.570312 0.570312 8.570312 C 0.886719 8.570312 1.144531 8.316406 1.144531 8 C 1.144531 7.683594 0.886719 7.429688 0.570312 7.429688 Z M 2.285156 7.429688 C 1.96875 7.429688 1.714844 7.683594 1.714844 8 C 1.714844 8.316406 1.96875 8.570312 2.285156 8.570312 C 2.601562 8.570312 2.855469 8.316406 2.855469 8 C 2.855469 7.683594 2.601562 7.429688 2.285156 7.429688 Z M 4 7.429688 C 3.683594 7.429688 3.429688 7.683594 3.429688 8 C 3.429688 8.316406 3.683594 8.570312 4 8.570312 C 4.316406 8.570312 4.570312 8.316406 4.570312 8 C 4.570312 7.683594 4.316406 7.429688 4 7.429688 Z M 8 7.429688 C 7.683594 7.429688 7.429688 7.683594 7.429688 8 C 7.429688 8.316406 7.683594 8.570312 8 8.570312 C 8.316406 8.570312 8.570312 8.316406 8.570312 8 C 8.570312 7.683594 8.316406 7.429688 8 7.429688 Z M 12 7.429688 C 11.683594 7.429688 11.429688 7.683594 11.429688 8 C 11.429688 8.316406 11.683594 8.570312 12 8.570312 C 12.316406 8.570312 12.570312 8.316406 12.570312 8 C 12.570312 7.683594 12.316406 7.429688 12 7.429688 Z M 13.714844 7.429688 C 13.398438 7.429688 13.144531 7.683594 13.144531 8 C 13.144531 8.316406 13.398438 8.570312 13.714844 8.570312 C 14.03125 8.570312 14.285156 8.316406 14.285156 8 C 14.285156 7.683594 14.03125 7.429688 13.714844 7.429688 Z M 0.570312 9.144531 C 0.257812 9.144531 0 9.398438 0 9.714844 C 0 10.03125 0.257812 10.285156 0.570312 10.285156 C 0.886719 10.285156 1.144531 10.03125 1.144531 9.714844 C 1.144531 9.398438 0.886719 9.144531 0.570312 9.144531 Z M 4 9.144531 C 3.683594 9.144531 3.429688 9.398438 3.429688 9.714844 C 3.429688 10.03125 3.683594 10.285156 4 10.285156 C 4.316406 10.285156 4.570312 10.03125 4.570312 9.714844 C 4.570312 9.398438 4.316406 9.144531 4 9.144531 Z M 9.714844 9.144531 C 9.398438 9.144531 9.144531 9.398438 9.144531 9.714844 C 9.144531 10.03125 9.398438 10.285156 9.714844 10.285156 C 10.03125 10.285156 10.285156 10.03125 10.285156 9.714844 C 10.285156 9.398438 10.03125 9.144531 9.714844 9.144531 Z M 12 9.144531 C 11.683594 9.144531 11.429688 9.398438 11.429688 9.714844 C 11.429688 10.03125 11.683594 10.285156 12 10.285156 C 12.316406 10.285156 12.570312 10.03125 12.570312 9.714844 C 12.570312 9.398438 12.316406 9.144531 12 9.144531 Z M 0.570312 10.855469 C 0.257812 10.855469 0 11.113281 0 11.429688 C 0 11.742188 0.257812 12 0.570312 12 C 0.886719 12 1.144531 11.742188 1.144531 11.429688 C 1.144531 11.113281 0.886719 10.855469 0.570312 10.855469 Z M 4 10.855469 C 3.683594 10.855469 3.429688 11.113281 3.429688 11.429688 C 3.429688 11.742188 3.683594 12 4 12 C 4.316406 12 4.570312 11.742188 4.570312 11.429688 C 4.570312 11.113281 4.316406 10.855469 4 10.855469 Z M 6.285156 10.855469 C 5.96875 10.855469 5.714844 11.113281 5.714844 11.429688 C 5.714844 11.742188 5.96875 12 6.285156 12 C 6.601562 12 6.855469 11.742188 6.855469 11.429688 C 6.855469 11.113281 6.601562 10.855469 6.285156 10.855469 Z M 8 10.855469 C 7.683594 10.855469 7.429688 11.113281 7.429688 11.429688 C 7.429688 11.742188 7.683594 12 8 12 C 8.316406 12 8.570312 11.742188 8.570312 11.429688 C 8.570312 11.113281 8.316406 10.855469 8 10.855469 Z M 12 10.855469 C 11.683594 10.855469 11.429688 11.113281 11.429688 11.429688 C 11.429688 11.742188 11.683594 12 12 12 C 12.316406 12 12.570312 11.742188 12.570312 11.429688 C 12.570312 11.113281 12.316406 10.855469 12 10.855469 Z M 13.714844 10.855469 C 13.398438 10.855469 13.144531 11.113281 13.144531 11.429688 C 13.144531 11.742188 13.398438 12 13.714844 12 C 14.03125 12 14.285156 11.742188 14.285156 11.429688 C 14.285156 11.113281 14.03125 10.855469 13.714844 10.855469 Z M 15.429688 10.855469 C 15.113281 10.855469 14.855469 11.113281 14.855469 11.429688 C 14.855469 11.742188 15.113281 12 15.429688 12 C 15.742188 12 16 11.742188 16 11.429688 C 16 11.113281 15.742188 10.855469 15.429688 10.855469 Z M 15.429688 10.855469 "/>
</g>
</svg>
