
<svg xmlns="http://www.w3.org/2000/svg" xmlns:xlink="http://www.w3.org/1999/xlink" width="16px" height="16px" viewBox="0 0 16 16" version="1.1">
<g id="surface1">
<path style=" stroke:none;fill-rule:nonzero;fill:#ff6666;fill-opacity:0.4;" d="M 2.1875 2.167969 L 13.808594 2.167969 C 13.820312 2.167969 13.832031 2.175781 13.832031 2.1875 L 13.832031 12.0625 C 13.832031 12.074219 13.820312 12.085938 13.808594 12.085938 L 13.820312 13.328125 L 12.648438 13.804688 L 12.648438 14.34375 L 3.351562 14.25 L 3.304688 13.140625 L 2.148438 13.140625 L 2.1875 12.085938 C 2.175781 12.085938 2.164062 12.074219 2.164062 12.0625 L 2.164062 2.1875 C 2.164062 2.175781 2.175781 2.167969 2.1875 2.167969 Z M 2.1875 2.167969 "/>
<path style=" stroke:none;fill-rule:nonzero;fill:#ff6666;fill-opacity:1;" d="M 3.332031 13.832031 L 2.167969 13.832031 L 2.167969 12.667969 L 1 12.667969 L 1 3.332031 L 2.167969 3.332031 L 2.167969 2.167969 L 3.332031 2.167969 L 3.332031 1 L 12.667969 1 L 12.667969 2.167969 L 13.832031 2.167969 L 13.832031 3.332031 L 15 3.332031 L 15 12.667969 L 13.832031 12.667969 L 13.832031 13.832031 L 12.667969 13.832031 L 12.667969 15 L 3.332031 15 Z M 12.667969 12.667969 L 13.832031 12.667969 L 13.832031 3.332031 L 12.667969 3.332031 L 12.667969 2.167969 L 3.332031 2.167969 L 3.332031 3.332031 L 2.167969 3.332031 L 2.167969 12.667969 L 3.332031 12.667969 L 3.332031 13.832031 L 12.667969 13.832031 Z M 5.082031 4.5 L 6.25 4.5 L 6.25 8.582031 L 5.082031 8.582031 Z M 9.75 4.5 L 10.917969 4.5 L 10.917969 8.582031 L 9.75 8.582031 Z M 9.75 4.5 "/>
</g>
</svg>
