
<svg xmlns="http://www.w3.org/2000/svg" xmlns:xlink="http://www.w3.org/1999/xlink" width="16px" height="16px" viewBox="0 0 16 16" version="1.1">
<g id="surface1">
<path style=" stroke:none;fill-rule:evenodd;fill:#ff6666;fill-opacity:1;" d="M 5.375 7.714844 C 5.234375 7.71875 5.089844 7.738281 4.9375 7.757812 C 4.507812 7.804688 4.179688 7.894531 3.816406 8.03125 C 3.570312 8.121094 3.382812 8.214844 3.105469 8.386719 C 2.828125 8.558594 2.546875 8.808594 2.546875 8.808594 L 3.394531 9.660156 C 3.394531 9.660156 3.792969 9.359375 4.023438 9.234375 C 4.25 9.109375 4.5625 9.054688 4.789062 9.027344 C 5.371094 8.960938 5.941406 9.074219 6.210938 9.300781 C 6.496094 9.542969 6.621094 9.710938 6.632812 10.355469 C 6.375 10.34375 6.105469 10.359375 5.8125 10.367188 C 5.550781 10.375 5.019531 10.386719 4.800781 10.421875 C 4.21875 10.519531 3.589844 10.613281 2.984375 11.011719 C 2.660156 11.222656 2.398438 11.539062 2.257812 11.902344 C 2.101562 12.304688 2.066406 12.785156 2.191406 13.199219 C 2.320312 13.632812 2.613281 14.054688 2.996094 14.292969 C 3.738281 14.585938 4.703125 14.660156 5.402344 14.414062 C 5.796875 14.273438 6.101562 14.15625 6.457031 13.746094 C 6.515625 13.679688 6.5625 13.5625 6.632812 13.445312 L 6.632812 14.441406 L 8.109375 14.441406 L 8.109375 10.421875 C 8.09375 9.546875 7.746094 8.765625 7.125 8.246094 C 6.519531 7.839844 5.988281 7.699219 5.375 7.714844 M 6.484375 11.445312 L 6.566406 11.445312 L 6.566406 11.476562 C 6.566406 11.476562 6.636719 12.625 6.003906 13.019531 C 5.375 13.414062 5.097656 13.429688 4.636719 13.347656 C 4.316406 13.292969 3.945312 13.113281 3.816406 12.8125 C 3.714844 12.570312 3.792969 12.253906 3.957031 12.046875 C 4.210938 11.730469 4.675781 11.644531 5.078125 11.554688 C 5.445312 11.472656 6.015625 11.441406 6.484375 11.441406 M 9.234375 7.265625 L 8.316406 8.121094 C 10.777344 9.316406 12.746094 11.003906 13.871094 13.257812 L 14.71875 12.132812 C 13.601562 10.460938 11.902344 8.753906 9.234375 7.269531 M 1 4.816406 L 1 5.730469 C 1.703125 5.941406 3.25 6.152344 4.660156 6.152344 L 4.800781 5.378906 C 3.398438 5.324219 2.335938 5.167969 1 4.816406 M 15 4.183594 C 13.171875 4.183594 11.414062 4.535156 9.160156 5.378906 L 9.933594 6.078125 C 11.0625 5.519531 12.890625 4.882812 15 4.882812 M 6.558594 1.4375 C 5.859375 3.070312 6.390625 4.058594 6.578125 4.75 L 7.683594 4.601562 C 7.449219 3.746094 7.046875 2.757812 7.613281 1.4375 "/>
</g>
</svg>
