
<svg xmlns="http://www.w3.org/2000/svg" xmlns:xlink="http://www.w3.org/1999/xlink" width="16px" height="16px" viewBox="0 0 16 16" version="1.1">
<g id="surface1">
<path style=" stroke:none;fill-rule:nonzero;fill:#ff6666;fill-opacity:1;" d="M 8.285156 1.503906 C 8.230469 1.503906 8.171875 1.511719 8.113281 1.515625 C 7.414062 1.609375 7.222656 1.78125 6.796875 2.691406 C 6.511719 3.300781 6.367188 3.378906 5.996094 3.457031 C 4.265625 2.179688 4.265625 4.132812 3.925781 4.671875 C 3.460938 4.257812 2.851562 3.359375 2.253906 2.855469 C 1.71875 2.40625 1.1875 2.132812 0.765625 2.417969 C 0.433594 2.652344 0.148438 3.164062 0.046875 4.332031 C -0.09375 5.929688 0.046875 6.828125 1.046875 8.152344 C 2.175781 9.648438 3.855469 11.144531 6.519531 13.019531 C 7.675781 13.835938 8.640625 14.5 8.671875 14.5 C 8.828125 14.5 7.125 12.253906 6.09375 11.101562 C 4.550781 9.382812 4.265625 8.769531 4.234375 8 C 4.203125 7.300781 4.496094 6.839844 4.890625 6.839844 C 5.035156 6.839844 5.683594 7.332031 6.398438 8.15625 C 6.992188 8.8125 7.386719 9.730469 7.859375 10.402344 C 8.867188 11.679688 10.035156 11.84375 10.46875 10.769531 C 10.890625 9.71875 10.617188 7.878906 9.65625 6.597656 C 9.546875 6.128906 9.75 6.058594 10.222656 6.058594 C 10.820312 6.058594 11.957031 6.472656 12.640625 7.070312 C 13.480469 7.8125 13.625 7.808594 14.5625 9.699219 C 15.117188 10.816406 15.664062 11.855469 15.78125 12.011719 C 15.992188 12.289062 15.996094 12.289062 16 11.941406 C 15.824219 9.054688 14.835938 6.304688 12.703125 4.332031 C 12.34375 4.011719 11.285156 3.230469 10.351562 2.597656 C 8.988281 1.671875 8.675781 1.488281 8.285156 1.5 Z M 8.25 6.855469 C 8.550781 6.855469 8.902344 7.054688 9.214844 7.398438 C 9.792969 8.046875 10.0625 9.011719 9.8125 9.554688 C 9.5625 10.101562 8.890625 10.019531 8.308594 9.371094 C 7.730469 8.726562 7.460938 7.761719 7.710938 7.21875 C 7.820312 6.984375 8.007812 6.855469 8.25 6.855469 Z M 8.25 6.855469 "/>
</g>
</svg>
