
<svg xmlns="http://www.w3.org/2000/svg" xmlns:xlink="http://www.w3.org/1999/xlink" width="16px" height="16px" viewBox="0 0 16 16" version="1.1">
<g id="surface1">
<path style=" stroke:none;fill-rule:nonzero;fill:#ff6666;fill-opacity:1;" d="M 3.066406 12.9375 C 2.445312 12.785156 1.949219 12.289062 1.769531 11.640625 C 1.65625 11.226562 1.644531 11.207031 1.316406 11.101562 C -0.0195312 10.652344 -0.441406 8.851562 0.53125 7.738281 C 0.65625 7.59375 0.941406 7.382812 1.164062 7.273438 L 1.566406 7.074219 L 14.324219 7.074219 L 14.703125 7.246094 C 15.652344 7.679688 16.132812 8.769531 15.828125 9.796875 C 15.648438 10.402344 15.070312 10.980469 14.5 11.136719 C 14.253906 11.203125 14.226562 11.238281 14.183594 11.515625 C 14.070312 12.203125 13.527344 12.785156 12.855469 12.929688 C 12.453125 13.015625 3.417969 13.027344 3.066406 12.9375 Z M 4.058594 11.851562 C 4.472656 11.484375 4.488281 10.929688 4.097656 10.558594 C 3.726562 10.210938 3.238281 10.21875 2.886719 10.574219 C 2.097656 11.371094 3.222656 12.59375 4.058594 11.851562 Z M 7.054688 11.855469 C 7.453125 11.476562 7.433594 10.886719 7.015625 10.53125 C 6.734375 10.292969 6.449219 10.242188 6.136719 10.371094 C 5.496094 10.644531 5.414062 11.625 6.003906 11.960938 C 6.285156 12.121094 6.832031 12.066406 7.054688 11.855469 Z M 9.875 11.960938 C 10.3125 11.730469 10.445312 11.03125 10.117188 10.640625 C 9.769531 10.222656 9.222656 10.191406 8.824219 10.570312 C 8.09375 11.265625 8.972656 12.429688 9.875 11.960938 Z M 12.980469 11.835938 C 13.179688 11.648438 13.242188 11.527344 13.269531 11.277344 C 13.359375 10.449219 12.378906 9.984375 11.792969 10.574219 C 11.238281 11.132812 11.625 12.070312 12.40625 12.070312 C 12.664062 12.070312 12.769531 12.027344 12.980469 11.832031 Z M 1.746094 5.933594 C 1.746094 5.578125 2.082031 4.964844 2.394531 4.742188 L 2.667969 4.554688 L 2.671875 3.777344 L 2.671875 3 L 4.722656 3.019531 C 6.558594 3.039062 6.789062 3.058594 6.960938 3.171875 C 7.203125 3.339844 7.375 3.707031 7.378906 4.058594 C 7.378906 4.332031 7.390625 4.339844 7.871094 4.570312 L 8.367188 4.804688 L 16 4.804688 L 16 5.667969 L 8.8125 5.667969 L 8.851562 5.917969 L 8.890625 6.171875 L 1.746094 6.171875 Z M 1.746094 5.933594 "/>
</g>
</svg>
