
<svg xmlns="http://www.w3.org/2000/svg" xmlns:xlink="http://www.w3.org/1999/xlink" width="16px" height="16px" viewBox="0 0 16 16" version="1.1">
<g id="surface1">
<path style=" stroke:none;fill-rule:nonzero;fill:#ff6666;fill-opacity:1;" d="M 12.308594 4.769531 L 12.308594 8 C 13.199219 8 13.921875 7.277344 13.921875 6.386719 C 13.921875 5.492188 13.199219 4.769531 12.308594 4.769531 Z M 6.921875 12.308594 L 6.921875 12.847656 C 6.921875 14.191406 7.460938 14.460938 8 15 C 8.539062 14.460938 9.078125 14.191406 9.078125 12.847656 L 9.078125 12.308594 L 9.613281 12.308594 L 9.613281 10.152344 L 11.230469 10.152344 L 11.230469 3.691406 L 15 3.691406 L 15 2.078125 L 11.230469 2.078125 L 11.230469 1 L 4.769531 1 L 4.769531 2.078125 L 1 2.078125 L 1 3.691406 L 4.769531 3.691406 L 4.769531 10.152344 L 6.386719 10.152344 L 6.386719 12.308594 Z M 3.691406 4.769531 C 2.800781 4.769531 2.078125 5.492188 2.078125 6.386719 C 2.078125 7.277344 2.800781 8 3.691406 8 Z M 3.691406 4.769531 "/>
</g>
</svg>
