
<svg xmlns="http://www.w3.org/2000/svg" xmlns:xlink="http://www.w3.org/1999/xlink" width="16px" height="16px" viewBox="0 0 16 16" version="1.1">
<g id="surface1">
<path style=" stroke:none;fill-rule:nonzero;fill:#ff6666;fill-opacity:1;" d="M 11.460938 1.265625 C 10.585938 1.296875 9.589844 1.867188 8.53125 2.785156 C 7.476562 3.703125 6.375 4.988281 5.382812 6.515625 C 4.210938 8.324219 3.410156 10.132812 3.066406 11.628906 C 2.894531 12.375 2.835938 13.042969 2.910156 13.609375 C 2.988281 14.171875 3.214844 14.652344 3.636719 14.925781 C 4.035156 15.1875 4.535156 15.210938 5.050781 15.078125 C 5.570312 14.941406 6.121094 14.652344 6.695312 14.242188 C 6.792969 14.183594 6.847656 14.074219 6.835938 13.960938 C 6.828125 13.847656 6.757812 13.75 6.65625 13.703125 C 6.550781 13.660156 6.433594 13.675781 6.34375 13.746094 C 5.808594 14.125 5.308594 14.378906 4.898438 14.484375 C 4.492188 14.589844 4.191406 14.558594 3.96875 14.414062 C 3.738281 14.265625 3.578125 13.980469 3.515625 13.527344 C 3.457031 13.070312 3.5 12.460938 3.660156 11.765625 C 3.984375 10.367188 4.757812 8.605469 5.898438 6.847656 C 6.863281 5.363281 7.933594 4.117188 8.933594 3.25 C 9.9375 2.378906 10.875 1.898438 11.484375 1.875 C 11.710938 1.867188 11.886719 1.914062 12.027344 2.007812 C 12.246094 2.148438 12.398438 2.402344 12.46875 2.8125 C 12.539062 3.222656 12.515625 3.769531 12.390625 4.402344 C 12.367188 4.511719 12.402344 4.625 12.484375 4.699219 C 12.570312 4.773438 12.6875 4.796875 12.792969 4.761719 C 12.898438 4.722656 12.976562 4.628906 12.992188 4.519531 C 13.125 3.835938 13.160156 3.226562 13.070312 2.707031 C 12.984375 2.191406 12.753906 1.75 12.359375 1.492188 C 12.097656 1.324219 11.785156 1.25 11.460938 1.265625 Z M 11.460938 1.265625 "/>
<path style=" stroke:none;fill-rule:nonzero;fill:#ff6666;fill-opacity:1;" d="M 6.972656 5.066406 C 5.09375 5.074219 3.417969 5.332031 2.175781 5.78125 C 1.554688 6.003906 1.039062 6.273438 0.65625 6.605469 C 0.277344 6.933594 0.0273438 7.335938 0 7.792969 C -0.0195312 8.222656 0.167969 8.636719 0.480469 8.988281 C 0.796875 9.34375 1.242188 9.65625 1.785156 9.9375 C 1.882812 9.992188 2.007812 9.992188 2.101562 9.933594 C 2.199219 9.871094 2.253906 9.765625 2.246094 9.652344 C 2.238281 9.539062 2.167969 9.4375 2.066406 9.394531 C 1.566406 9.136719 1.183594 8.855469 0.9375 8.582031 C 0.695312 8.308594 0.597656 8.058594 0.609375 7.824219 C 0.625 7.574219 0.761719 7.324219 1.058594 7.066406 C 1.355469 6.808594 1.808594 6.5625 2.382812 6.355469 C 3.527344 5.941406 5.152344 5.683594 6.972656 5.679688 C 7.355469 5.679688 7.738281 5.683594 8.128906 5.707031 L 8.132812 5.710938 C 10.226562 5.820312 12.105469 6.230469 13.425781 6.792969 C 14.085938 7.074219 14.601562 7.390625 14.933594 7.710938 C 15.265625 8.027344 15.402344 8.324219 15.386719 8.597656 C 15.375 8.835938 15.25 9.074219 14.980469 9.320312 C 14.710938 9.566406 14.296875 9.804688 13.769531 10.011719 C 13.667969 10.050781 13.597656 10.140625 13.578125 10.25 C 13.5625 10.355469 13.605469 10.464844 13.691406 10.535156 C 13.773438 10.601562 13.890625 10.621094 13.992188 10.582031 C 14.566406 10.359375 15.042969 10.09375 15.390625 9.773438 C 15.742188 9.453125 15.976562 9.0625 15.996094 8.628906 C 16.023438 8.128906 15.769531 7.664062 15.355469 7.269531 C 14.945312 6.875 14.371094 6.53125 13.664062 6.230469 C 12.253906 5.628906 10.320312 5.210938 8.164062 5.097656 C 7.757812 5.074219 7.359375 5.066406 6.972656 5.066406 Z M 6.972656 5.066406 "/>
<path style=" stroke:none;fill-rule:nonzero;fill:#ff6666;fill-opacity:1;" d="M 4.898438 0.925781 C 4.714844 0.9375 4.53125 0.988281 4.363281 1.074219 C 3.917969 1.300781 3.640625 1.753906 3.503906 2.308594 C 3.371094 2.863281 3.359375 3.535156 3.449219 4.296875 C 3.636719 5.820312 4.242188 7.703125 5.21875 9.628906 C 6.199219 11.550781 7.367188 13.148438 8.492188 14.191406 C 9.054688 14.714844 9.601562 15.101562 10.128906 15.316406 C 10.660156 15.53125 11.1875 15.574219 11.632812 15.347656 C 12.0625 15.128906 12.339844 14.699219 12.476562 14.175781 C 12.617188 13.652344 12.640625 13.015625 12.566406 12.296875 C 12.417969 10.859375 11.882812 9.078125 10.996094 7.234375 C 10.949219 7.136719 10.851562 7.070312 10.742188 7.058594 C 10.632812 7.050781 10.527344 7.101562 10.464844 7.195312 C 10.40625 7.285156 10.398438 7.402344 10.445312 7.5 C 11.304688 9.289062 11.820312 11.023438 11.957031 12.359375 C 12.027344 13.027344 12 13.597656 11.886719 14.015625 C 11.773438 14.433594 11.59375 14.683594 11.355469 14.804688 C 11.113281 14.929688 10.785156 14.925781 10.359375 14.75 C 9.933594 14.578125 9.433594 14.234375 8.90625 13.746094 C 7.859375 12.769531 6.71875 11.21875 5.765625 9.351562 C 4.8125 7.480469 4.230469 5.648438 4.058594 4.222656 C 3.972656 3.511719 3.988281 2.902344 4.097656 2.453125 C 4.210938 2.007812 4.398438 1.742188 4.640625 1.617188 C 4.734375 1.570312 4.828125 1.542969 4.945312 1.535156 C 5.375 1.503906 6.03125 1.785156 6.753906 2.382812 C 6.882812 2.492188 7.078125 2.472656 7.183594 2.34375 C 7.292969 2.214844 7.273438 2.019531 7.144531 1.914062 C 6.359375 1.261719 5.605469 0.871094 4.898438 0.925781 Z M 4.898438 0.925781 "/>
<path style=" stroke:none;fill-rule:nonzero;fill:#ff6666;fill-opacity:1;" d="M 8.964844 8.320312 C 8.964844 8.824219 8.554688 9.234375 8.050781 9.234375 C 7.542969 9.234375 7.132812 8.824219 7.132812 8.320312 C 7.132812 7.8125 7.542969 7.402344 8.050781 7.402344 C 8.554688 7.402344 8.964844 7.8125 8.964844 8.320312 Z M 8.964844 8.320312 "/>
</g>
</svg>
