
<svg xmlns="http://www.w3.org/2000/svg" xmlns:xlink="http://www.w3.org/1999/xlink" width="16px" height="16px" viewBox="0 0 16 16" version="1.1">
<g id="surface1">
<path style=" stroke:none;fill-rule:nonzero;fill:#ff6666;fill-opacity:1;" d="M 8.734375 1.503906 C 11.96875 1.617188 13.882812 3.667969 14.09375 6.660156 C 14.332031 10.035156 13.277344 10.910156 13.730469 11.589844 C 14.675781 13.003906 13.332031 13.375 12.445312 14.066406 C 11.890625 14.496094 10.820312 14.300781 10.289062 13.6875 C 8.679688 12.8125 9.300781 14.492188 5.972656 14.5 C 4.242188 14.433594 2.65625 13.261719 2.207031 11.683594 C 1.519531 9.261719 2.53125 7.476562 5.335938 6.632812 C 6.148438 6.390625 7.753906 6.539062 8.464844 6.050781 C 9.132812 5.59375 8.890625 4.933594 8.070312 4.847656 C 6.890625 4.722656 5.054688 5.226562 3.96875 5.023438 C 3.09375 4.859375 2.832031 3.296875 3.398438 2.625 C 4.332031 1.527344 6.71875 1.574219 8.070312 1.515625 C 8.296875 1.503906 8.519531 1.496094 8.734375 1.503906 Z M 8.300781 8.730469 C 7.550781 8.730469 6.933594 9.257812 6.933594 9.910156 C 6.933594 10.5625 7.550781 11.101562 8.300781 11.101562 C 9.050781 11.101562 9.640625 10.5625 9.640625 9.910156 C 9.640625 9.257812 9.050781 8.730469 8.300781 8.730469 Z M 8.300781 8.730469 "/>
</g>
</svg>
