
<svg xmlns="http://www.w3.org/2000/svg" xmlns:xlink="http://www.w3.org/1999/xlink" width="16px" height="16px" viewBox="0 0 16 16" version="1.1">
<g id="surface1">
<path style=" stroke:none;fill-rule:evenodd;fill:#ff6666;fill-opacity:1;" d="M 9.242188 6.113281 L 9.046875 6.710938 C 9.046875 6.710938 10.691406 7.257812 10.691406 8.941406 C 10.691406 10.628906 9.046875 11.175781 9.046875 11.175781 L 9.242188 11.769531 C 9.242188 11.769531 11.230469 11.050781 11.230469 8.941406 C 11.230469 6.832031 9.242188 6.113281 9.242188 6.113281 Z M 9.019531 7.292969 L 8.902344 7.640625 C 8.902344 7.640625 9.75 7.960938 9.75 8.941406 C 9.75 9.925781 8.902344 10.246094 8.902344 10.246094 L 9.019531 10.59375 C 9.019531 10.59375 10.152344 10.171875 10.152344 8.941406 C 10.152344 7.710938 9.019531 7.292969 9.019531 7.292969 Z M 5.847656 8 L 5.847656 10.152344 L 6.585938 10.152344 L 8.539062 12.308594 L 8.539062 5.847656 L 6.585938 8 M 3.691406 1 C 3.152344 1 2.613281 1.140625 2.613281 1.539062 L 2.613281 13.921875 C 2.613281 14.628906 3.691406 15 4.230469 15 L 12.746094 15 C 13.230469 15 13.386719 14.828125 13.386719 14.460938 L 13.386719 2.882812 C 13.386719 2.441406 13.09375 2.078125 12.648438 2.078125 L 4.769531 2.078125 L 3.691406 1.535156 L 12.308594 1.539062 C 12.660156 1.539062 11.894531 1 11.539062 1 Z M 4.769531 3.152344 L 12.308594 3.152344 L 12.308594 13.921875 L 4.769531 13.921875 Z M 4.769531 3.152344 "/>
</g>
</svg>
