
<svg xmlns="http://www.w3.org/2000/svg" xmlns:xlink="http://www.w3.org/1999/xlink" width="16px" height="16px" viewBox="0 0 16 16" version="1.1">
<g id="surface1">
<path style=" stroke:none;fill-rule:evenodd;fill:#ff6666;fill-opacity:1;" d="M 11.5 4.257812 C 9.886719 4.257812 9.078125 5.078125 9.078125 6.949219 L 10.691406 6.949219 C 10.691406 5.871094 11.5 5.871094 11.5 5.871094 C 11.5 5.871094 12.308594 5.871094 12.308594 6.679688 C 12.308594 8.273438 10.691406 6.949219 10.691406 10.179688 L 12.308594 10.179688 C 12.316406 7.757812 13.925781 9.023438 13.925781 6.410156 C 13.925781 4.796875 13.117188 4.257812 11.5 4.257812 Z M 10.691406 10.71875 L 10.691406 12.335938 L 12.308594 12.335938 L 12.308594 10.71875 Z M 5.660156 1.992188 C 5.351562 2.015625 4.859375 2.359375 4.628906 2.972656 C 4.511719 3.28125 4.351562 3.796875 4.566406 4.742188 L 4.648438 5.089844 C 5.03125 4.753906 5.363281 4.453125 5.523438 4.179688 C 6.257812 2.929688 6 2.230469 5.890625 2.078125 C 5.84375 2.015625 5.761719 1.988281 5.660156 1.992188 Z M 4.6875 6.496094 C 4.25 6.972656 3.777344 7.429688 3.335938 7.902344 C 2.4375 8.867188 2.796875 10.210938 3.601562 10.90625 C 4.203125 11.425781 5.085938 11.550781 5.769531 11.34375 L 5.164062 8.632812 C 4.613281 8.75 4.183594 9.21875 4.34375 10.117188 C 4.386719 10.363281 4.625 10.5625 4.972656 10.824219 C 2.835938 10.132812 3.609375 8.214844 4.96875 7.761719 Z M 4.046875 14.460938 C 4.292969 14.890625 5.289062 14.765625 5.570312 14.585938 C 6.140625 14.21875 6.230469 13.414062 6.097656 12.832031 L 5.835938 11.652344 C 3.984375 12.101562 1.921875 10.664062 2.085938 8.726562 C 2.21875 7.199219 3.441406 6.125 4.417969 5.285156 L 4.285156 4.695312 C 3.988281 3.355469 4.105469 2.652344 4.417969 1.957031 C 4.707031 1.308594 5.050781 1.023438 5.371094 1 C 6.078125 0.953125 6.679688 2.1875 6.367188 3.640625 C 6.148438 4.664062 5.582031 5.484375 4.910156 6.246094 L 5.238281 7.695312 C 5.847656 7.589844 6.535156 7.769531 7.125 8.480469 C 7.875 9.382812 7.292969 11.101562 6.121094 11.566406 L 6.382812 12.707031 C 6.742188 14.152344 5.964844 15.035156 4.753906 15 C 4.011719 14.976562 3.546875 14.460938 3.40625 14.011719 C 3.378906 13.953125 3.359375 13.894531 3.347656 13.832031 C 3.332031 13.773438 3.324219 13.722656 3.328125 13.675781 C 3.324219 13.660156 3.324219 13.648438 3.324219 13.636719 C 3.332031 13.179688 3.722656 12.816406 4.195312 12.824219 C 4.664062 12.832031 5.039062 13.210938 5.03125 13.664062 C 5.023438 14.121094 4.632812 14.488281 4.160156 14.476562 C 4.121094 14.476562 4.082031 14.472656 4.046875 14.460938 Z M 5.445312 8.601562 L 6.042969 11.230469 C 6.324219 11.09375 6.554688 10.894531 6.675781 10.628906 C 7.246094 9.355469 6.304688 8.59375 5.445312 8.601562 Z M 5.445312 8.601562 "/>
</g>
</svg>
