
<svg xmlns="http://www.w3.org/2000/svg" xmlns:xlink="http://www.w3.org/1999/xlink" width="16px" height="16px" viewBox="0 0 16 16" version="1.1">
<g id="surface1">
<path style=" stroke:none;fill-rule:nonzero;fill:#ff6666;fill-opacity:1;" d="M 8 1.410156 C 4.621094 1.410156 1.882812 4.152344 1.882812 7.527344 L 1.882812 9.511719 C 0.769531 9.828125 0 10.84375 0 12 C 0 13.429688 1.160156 14.589844 2.589844 14.589844 C 2.996094 14.585938 3.402344 14.488281 3.765625 14.300781 L 3.765625 14.589844 L 5.175781 14.589844 L 5.175781 9.410156 L 3.765625 9.410156 L 3.765625 9.695312 C 3.613281 9.617188 3.457031 9.558594 3.292969 9.511719 L 3.292969 7.527344 C 3.292969 4.929688 5.402344 2.824219 8 2.824219 C 10.597656 2.824219 12.707031 4.929688 12.707031 7.527344 L 12.707031 9.511719 C 11.59375 9.828125 10.824219 10.84375 10.824219 12 C 10.824219 13.429688 11.980469 14.589844 13.410156 14.589844 C 14.839844 14.589844 16 13.429688 16 12 C 16 10.84375 15.230469 9.828125 14.117188 9.511719 L 14.117188 7.527344 C 14.117188 4.152344 11.378906 1.410156 8 1.410156 Z M 2.589844 10.824219 C 3.238281 10.824219 3.765625 11.351562 3.765625 12 C 3.765625 12.648438 3.238281 13.175781 2.589844 13.175781 C 1.9375 13.175781 1.410156 12.648438 1.410156 12 C 1.410156 11.351562 1.9375 10.824219 2.589844 10.824219 Z M 13.410156 10.824219 C 14.0625 10.824219 14.589844 11.351562 14.589844 12 C 14.589844 12.648438 14.0625 13.175781 13.410156 13.175781 C 12.761719 13.175781 12.234375 12.648438 12.234375 12 C 12.234375 11.351562 12.761719 10.824219 13.410156 10.824219 Z M 13.410156 10.824219 "/>
</g>
</svg>
