
<svg xmlns="http://www.w3.org/2000/svg" xmlns:xlink="http://www.w3.org/1999/xlink" width="16px" height="16px" viewBox="0 0 16 16" version="1.1">
<g id="surface1">
<path style=" stroke:none;fill-rule:nonzero;fill:#ff6666;fill-opacity:1;" d="M 12.246094 1.003906 C 12.003906 0.984375 11.753906 1.015625 11.507812 1.097656 C 11.214844 1.195312 11.011719 1.324219 10.785156 1.546875 C 10.492188 1.84375 10.335938 2.152344 10.265625 2.574219 C 10.226562 2.804688 10.195312 2.894531 10.128906 3.039062 C 9.867188 3.59375 9.292969 3.980469 8.722656 3.980469 C 8.671875 3.980469 8.523438 3.972656 8.378906 3.953125 C 7.804688 3.878906 7.542969 3.867188 6.945312 3.925781 C 6.78125 3.941406 6.585938 3.953125 6.519531 3.953125 C 6.234375 3.953125 6.0625 3.847656 5.945312 3.613281 C 5.875 3.464844 5.847656 3.394531 5.851562 3.132812 C 5.855469 2.917969 5.859375 2.894531 5.824219 2.792969 C 5.765625 2.632812 5.714844 2.5625 5.59375 2.441406 C 5.414062 2.257812 5.222656 2.179688 4.976562 2.179688 C 4.816406 2.179688 4.699219 2.203125 4.566406 2.277344 C 4.28125 2.425781 4.105469 2.699219 4.089844 3.015625 C 4.078125 3.234375 4.121094 3.363281 4.238281 3.546875 C 4.328125 3.679688 4.433594 3.773438 4.621094 3.875 C 4.828125 3.980469 4.9375 4.085938 5.03125 4.273438 C 5.089844 4.390625 5.089844 4.402344 5.089844 4.53125 C 5.089844 4.652344 5.089844 4.667969 5.046875 4.75 C 5.023438 4.800781 4.949219 4.894531 4.894531 4.953125 C 4.382812 5.523438 4.070312 6.140625 3.9375 6.800781 C 3.875 7.113281 3.855469 7.28125 3.871094 7.617188 C 3.878906 7.78125 3.914062 7.960938 3.914062 8.015625 C 3.910156 8.324219 3.660156 8.539062 3.1875 8.699219 C 3.074219 8.738281 3.023438 8.746094 2.875 8.753906 C 2.757812 8.761719 2.664062 8.753906 2.597656 8.742188 C 2.539062 8.730469 2.417969 8.730469 2.296875 8.730469 C 2.066406 8.730469 1.960938 8.753906 1.777344 8.839844 C 1.109375 9.148438 0.8125 9.929688 1.121094 10.589844 C 1.519531 11.429688 2.640625 11.613281 3.28125 10.945312 C 3.378906 10.84375 3.425781 10.769531 3.527344 10.589844 C 3.558594 10.527344 3.628906 10.449219 3.679688 10.398438 C 3.90625 10.160156 4.21875 10.046875 4.578125 10.046875 C 4.839844 10.046875 4.992188 10.101562 5.195312 10.265625 C 5.53125 10.535156 6 10.769531 6.410156 10.890625 C 6.867188 11.023438 7.125 11.046875 7.886719 11.027344 C 8.109375 11.019531 8.179688 11.03125 8.285156 11.050781 C 8.570312 11.109375 8.851562 11.21875 9.089844 11.382812 C 9.269531 11.5 9.5625 11.789062 9.679688 11.96875 C 9.839844 12.210938 9.957031 12.511719 9.996094 12.75 C 10.058594 13.148438 10.136719 13.390625 10.269531 13.652344 C 10.628906 14.359375 11.277344 14.832031 12.074219 14.976562 C 12.292969 15.015625 12.769531 15.007812 12.988281 14.964844 C 13.746094 14.808594 14.378906 14.328125 14.722656 13.652344 C 14.910156 13.28125 15 12.945312 15 12.515625 C 15.003906 11.515625 14.417969 10.632812 13.496094 10.234375 C 13.285156 10.144531 13.128906 10.105469 12.839844 10.058594 C 12.554688 10.007812 12.363281 9.945312 12.15625 9.839844 C 11.675781 9.589844 11.207031 9.128906 11.035156 8.625 C 10.941406 8.34375 10.914062 7.996094 10.914062 7.738281 L 10.914062 6.34375 C 10.914062 6.03125 10.945312 5.84375 11.078125 5.578125 C 11.226562 5.273438 11.5625 5.023438 11.871094 4.867188 C 12.03125 4.785156 12.148438 4.753906 12.378906 4.714844 C 12.617188 4.675781 12.789062 4.621094 12.976562 4.523438 C 13.40625 4.300781 13.738281 3.921875 13.890625 3.460938 C 13.957031 3.261719 13.972656 3.097656 13.972656 2.867188 C 13.972656 2.640625 13.945312 2.480469 13.878906 2.277344 C 13.632812 1.542969 12.976562 1.0625 12.253906 1.007812 Z M 7.414062 5.078125 C 8.703125 5.078125 9.746094 6.121094 9.746094 7.410156 C 9.746094 8.699219 8.703125 9.742188 7.414062 9.742188 C 6.125 9.742188 5.082031 8.699219 5.082031 7.410156 C 5.082031 6.121094 6.125 5.078125 7.414062 5.078125 Z M 7.484375 5.9375 C 6.777344 5.886719 6.128906 6.347656 5.941406 7.058594 C 5.90625 7.183594 5.898438 7.214844 5.898438 7.429688 C 5.898438 7.640625 5.90625 7.683594 5.941406 7.8125 C 6.019531 8.101562 6.203125 8.390625 6.417969 8.578125 C 7.046875 9.09375 7.503906 8.644531 7.8125 8.234375 L 7.8125 8.179688 L 7.554688 8.179688 C 7.367188 8.179688 7.269531 8.179688 7.210938 8.167969 C 6.878906 8.078125 6.652344 7.777344 6.652344 7.441406 C 6.652344 7.234375 6.722656 7.058594 6.871094 6.910156 C 7.011719 6.769531 7.199219 6.691406 7.390625 6.691406 C 7.726562 6.691406 8.128906 6.9375 8.128906 7.28125 L 8.140625 8.714844 L 8.226562 8.714844 C 8.398438 8.699219 8.578125 8.613281 8.691406 8.496094 C 8.753906 8.433594 8.824219 8.285156 8.855469 8.1875 C 8.878906 8.101562 8.882812 8.054688 8.882812 7.679688 C 8.882812 7.144531 8.863281 7.019531 8.71875 6.738281 C 8.535156 6.386719 8.171875 6.097656 7.789062 6 C 7.6875 5.972656 7.570312 5.945312 7.484375 5.941406 Z M 7.484375 5.9375 "/>
</g>
</svg>
