
<svg xmlns="http://www.w3.org/2000/svg" xmlns:xlink="http://www.w3.org/1999/xlink" width="16px" height="16px" viewBox="0 0 16 16" version="1.1">
<g id="surface1">
<path style=" stroke:none;fill-rule:nonzero;fill:#ff6666;fill-opacity:1;" d="M 7.996094 0.5 C 7.84375 0.5 7.617188 0.507812 7.410156 0.582031 C 7.191406 0.660156 6.976562 0.777344 6.800781 0.941406 C 6.5625 1.15625 6.371094 1.4375 6.246094 1.710938 L 0 15.5 L 4.441406 15.5 L 6.347656 11.136719 L 10.070312 11.15625 L 6.347656 11.136719 L 4.441406 15.5 L 16 15.5 L 9.667969 1.613281 C 9.53125 1.3125 9.308594 1.082031 9.101562 0.914062 C 8.894531 0.75 8.6875 0.640625 8.507812 0.574219 C 8.316406 0.503906 8.132812 0.5 7.996094 0.5 Z M 7.992188 0.933594 C 8.125 0.933594 8.25 0.9375 8.367188 0.984375 C 8.503906 1.035156 8.675781 1.121094 8.84375 1.257812 C 9.015625 1.390625 9.191406 1.585938 9.289062 1.800781 L 15.339844 15.066406 L 5.089844 15.066406 L 6.617188 11.570312 L 10.71875 11.59375 L 8.046875 5.464844 L 3.523438 15.070312 L 0.660156 15.070312 L 6.628906 1.894531 C 6.722656 1.679688 6.894531 1.433594 7.078125 1.265625 C 7.210938 1.144531 7.375 1.050781 7.542969 0.992188 C 7.664062 0.949219 7.871094 0.933594 7.992188 0.933594 Z M 7.992188 0.933594 "/>
</g>
</svg>
