
<svg xmlns="http://www.w3.org/2000/svg" xmlns:xlink="http://www.w3.org/1999/xlink" width="16px" height="16px" viewBox="0 0 16 16" version="1.1">
<g id="surface1">
<path style=" stroke:none;fill-rule:nonzero;fill:#ff6666;fill-opacity:1;" d="M 3.992188 1 C 2.734375 1.015625 1.816406 0.96875 1.0625 1.382812 C 0.683594 1.589844 0.386719 1.945312 0.226562 2.382812 C 0.0585938 2.820312 0 3.34375 0 4 L 0 12 C 0 12.65625 0.0585938 13.179688 0.226562 13.617188 C 0.386719 14.054688 0.683594 14.410156 1.0625 14.613281 C 1.816406 15.03125 2.734375 14.984375 3.992188 15 L 12.003906 15 C 13.265625 14.984375 14.183594 15.03125 14.9375 14.613281 C 15.3125 14.410156 15.609375 14.054688 15.777344 13.617188 C 15.9375 13.179688 16 12.65625 16 12 L 16 4 C 16 3.34375 15.941406 2.820312 15.777344 2.382812 C 15.613281 1.945312 15.3125 1.589844 14.9375 1.382812 C 14.183594 0.96875 13.265625 1.015625 12.003906 1 Z M 1 4.269531 L 15 4.269531 L 15 12 C 15 12.59375 14.9375 13.003906 14.839844 13.265625 C 14.742188 13.527344 14.636719 13.636719 14.453125 13.738281 C 14.085938 13.941406 13.257812 13.984375 12 14 L 4 14 C 2.742188 13.984375 1.910156 13.941406 1.546875 13.738281 C 1.363281 13.636719 1.257812 13.527344 1.160156 13.265625 C 1.0625 13.003906 1 12.59375 1 12 Z M 1 4.269531 "/>
</g>
</svg>
