
<svg xmlns="http://www.w3.org/2000/svg" xmlns:xlink="http://www.w3.org/1999/xlink" width="16px" height="16px" viewBox="0 0 16 16" version="1.1">
<g id="surface1">
<path style=" stroke:none;fill-rule:nonzero;fill:#ff6666;fill-opacity:1;" d="M 2.320312 7.539062 L 2.496094 7.539062 L 2.488281 9.519531 L 7.679688 9.511719 L 7.675781 7.539062 L 8.046875 7.542969 L 8.035156 9.503906 L 13.164062 9.511719 L 13.152344 7.539062 L 13.378906 7.542969 C 13.644531 7.546875 13.933594 7.753906 14.027344 8 L 14.972656 10.546875 C 15.0625 10.792969 14.925781 10.992188 14.660156 10.996094 L 1.367188 11.007812 C 1.105469 11.007812 0.945312 10.800781 1.015625 10.546875 L 1.714844 8 C 1.785156 7.746094 2.058594 7.539062 2.320312 7.539062 Z M 2.320312 7.539062 "/>
<path style=" stroke:none;fill-rule:nonzero;fill:#ff6666;fill-opacity:1;" d="M 3.207031 4.992188 L 6.878906 4.992188 C 7.203125 4.992188 7.46875 5.257812 7.46875 5.582031 L 7.46875 8.664062 C 7.46875 8.988281 7.203125 9.253906 6.878906 9.253906 L 3.207031 9.253906 C 2.882812 9.253906 2.617188 8.988281 2.617188 8.664062 L 2.617188 5.582031 C 2.617188 5.257812 2.882812 4.992188 3.207031 4.992188 Z M 3.207031 4.992188 "/>
<path style=" stroke:none;fill-rule:nonzero;fill:#ff6666;fill-opacity:1;" d="M 8.808594 4.992188 L 12.480469 4.992188 C 12.804688 4.992188 13.070312 5.257812 13.070312 5.582031 L 13.070312 8.664062 C 13.070312 8.988281 12.804688 9.253906 12.480469 9.253906 L 8.808594 9.253906 C 8.484375 9.253906 8.222656 8.988281 8.222656 8.664062 L 8.222656 5.582031 C 8.222656 5.257812 8.484375 4.992188 8.808594 4.992188 Z M 8.808594 4.992188 "/>
</g>
</svg>
