
<svg xmlns="http://www.w3.org/2000/svg" xmlns:xlink="http://www.w3.org/1999/xlink" width="16px" height="16px" viewBox="0 0 16 16" version="1.1">
<g id="surface1">
<path style=" stroke:none;fill-rule:nonzero;fill:#ff6666;fill-opacity:1;" d="M 8.957031 0.164062 C 7.195312 0.644531 6.65625 1.199219 6.179688 3 C 5.761719 4.515625 5.566406 4.800781 4.515625 5.316406 C 3.648438 5.75 3.609375 5.785156 3.609375 6.191406 C 3.609375 6.429688 3.660156 6.660156 3.730469 6.699219 C 3.804688 6.746094 3.742188 6.921875 3.585938 7.144531 L 3.316406 7.5 L 3.058594 7.253906 C 2.914062 7.117188 2.71875 7.007812 2.617188 7.007812 C 2.3125 7.007812 1.8125 7.636719 1.421875 8.488281 C 1.210938 8.980469 0.90625 9.398438 0.675781 9.570312 C 0.355469 9.816406 0.296875 9.929688 0.367188 10.1875 C 0.488281 10.730469 1.089844 11.199219 1.652344 11.199219 C 2.117188 11.199219 2.632812 11.519531 2.632812 11.804688 C 2.632812 11.878906 2.789062 12.023438 2.984375 12.136719 C 3.183594 12.257812 3.4375 12.554688 3.5625 12.8125 C 3.804688 13.382812 4.722656 14.316406 5.285156 14.589844 C 5.507812 14.699219 6.09375 14.871094 6.582031 14.972656 C 7.058594 15.070312 7.828125 15.316406 8.28125 15.527344 C 9.175781 15.933594 9.972656 16.117188 9.972656 15.921875 C 9.972656 15.734375 9.726562 15.5625 9.214844 15.402344 C 8.648438 15.21875 8.382812 14.921875 8.636719 14.773438 C 8.734375 14.710938 9.054688 14.625 9.359375 14.589844 C 10.679688 14.402344 12.101562 13.789062 11.832031 13.515625 C 11.746094 13.429688 11.5 13.46875 11.035156 13.640625 L 10.363281 13.898438 L 10.289062 13.515625 C 10.191406 13 9.421875 12.296875 8.675781 12.023438 C 8.332031 11.902344 7.929688 11.71875 7.78125 11.617188 L 7.511719 11.421875 L 8.074219 10.914062 C 8.773438 10.300781 9.113281 9.769531 9.480469 8.734375 C 9.640625 8.289062 9.8125 7.882812 9.871094 7.820312 C 10.019531 7.636719 10.632812 8.289062 10.949219 8.980469 C 11.109375 9.324219 11.195312 9.632812 11.144531 9.683594 C 11.097656 9.742188 10.691406 9.804688 10.265625 9.84375 C 9.835938 9.878906 9.480469 9.953125 9.480469 10.027344 C 9.480469 10.101562 9.984375 10.1875 10.621094 10.226562 C 11.242188 10.273438 11.703125 10.304688 12.144531 10.308594 C 13.558594 10.253906 13.941406 9.90625 14.488281 9.863281 C 15.714844 9.761719 15.730469 9.449219 15.613281 9.25 C 15.324219 8.765625 14.871094 9.425781 14.644531 9.488281 C 14.398438 9.554688 13.175781 9.628906 13.136719 9.53125 C 13.054688 9.339844 13.304688 8.683594 13.726562 8.40625 C 14.429688 7.949219 14.699219 7.300781 14.078125 7.238281 C 13.804688 7.210938 13.445312 7.636719 13.410156 8.085938 C 13.378906 8.484375 12.632812 9.261719 12.386719 9.214844 C 12.253906 9.183594 12.136719 9.074219 12.003906 8.941406 C 11.453125 8.414062 11.230469 7.859375 10.988281 6.429688 C 10.878906 5.835938 10.902344 5.75 11.28125 5.132812 C 12.234375 3.578125 11.988281 0.644531 10.851562 0.113281 C 10.484375 -0.0585938 9.691406 -0.03125 8.957031 0.164062 Z M 8.957031 0.164062 "/>
</g>
</svg>
