
<svg xmlns="http://www.w3.org/2000/svg" xmlns:xlink="http://www.w3.org/1999/xlink" width="16px" height="16px" viewBox="0 0 16 16" version="1.1">
<g id="surface1">
<path style=" stroke:none;fill-rule:nonzero;fill:#ff6666;fill-opacity:1;" d="M 3.429688 2.09375 L 3.429688 3.617188 L 5.714844 3.617188 L 5.714844 2.09375 Z M 10.285156 2.09375 L 10.285156 3.617188 L 12.570312 3.617188 L 12.570312 2.09375 Z M 0 3.617188 L 0 5.144531 L 2.285156 5.144531 L 2.285156 3.617188 Z M 13.714844 3.617188 L 13.714844 5.144531 L 16 5.144531 L 16 3.617188 Z M 6.855469 4.382812 L 6.855469 5.90625 L 9.144531 5.90625 L 9.144531 4.382812 Z M 3.429688 4.761719 L 3.429688 6.285156 L 5.714844 6.285156 L 5.714844 4.761719 Z M 10.285156 4.761719 L 10.285156 6.285156 L 12.570312 6.285156 L 12.570312 4.761719 Z M 0 6.285156 L 0 7.808594 L 2.285156 7.808594 L 2.285156 6.285156 Z M 13.714844 6.285156 L 13.714844 7.808594 L 16 7.808594 L 16 6.285156 Z M 6.855469 7.046875 L 6.855469 8.570312 L 9.144531 8.570312 L 9.144531 7.046875 Z M 3.429688 7.429688 L 3.429688 8.953125 L 5.714844 8.953125 L 5.714844 7.429688 Z M 10.285156 7.429688 L 10.285156 8.953125 L 12.570312 8.953125 L 12.570312 7.429688 Z M 0 8.953125 L 0 10.476562 L 2.285156 10.476562 L 2.285156 8.953125 Z M 13.714844 8.953125 L 13.714844 10.476562 L 16 10.476562 L 16 8.953125 Z M 6.855469 9.714844 L 6.855469 11.238281 L 9.144531 11.238281 L 9.144531 9.714844 Z M 3.429688 10.09375 L 3.429688 11.617188 L 5.714844 11.617188 L 5.714844 10.09375 Z M 10.285156 10.09375 L 10.285156 11.617188 L 12.570312 11.617188 L 12.570312 10.09375 Z M 6.855469 12.382812 L 6.855469 13.90625 L 9.144531 13.90625 L 9.144531 12.382812 Z M 6.855469 12.382812 "/>
</g>
</svg>
