
<svg xmlns="http://www.w3.org/2000/svg" xmlns:xlink="http://www.w3.org/1999/xlink" width="16px" height="16px" viewBox="0 0 16 16" version="1.1">
<g id="surface1">
<path style=" stroke:none;fill-rule:nonzero;fill:#ff6666;fill-opacity:1;" d="M 8.65625 0.75 C 8.234375 0.753906 7.808594 0.792969 7.378906 0.867188 C 4.125 1.457031 1.691406 4.148438 1.414062 7.378906 L 0 7.386719 L 1.152344 9.347656 L 2.300781 11.304688 L 3.023438 10.046875 L 3.429688 9.335938 L 4.5625 7.363281 L 2.925781 7.371094 C 3.199219 4.863281 5.101562 2.800781 7.648438 2.339844 C 10.371094 1.847656 13.054688 3.316406 14.082031 5.863281 C 15.109375 8.40625 14.191406 11.304688 11.878906 12.8125 C 9.570312 14.316406 6.519531 14 4.574219 12.050781 L 3.507812 13.105469 C 5.949219 15.550781 9.800781 15.953125 12.703125 14.0625 C 15.605469 12.171875 16.769531 8.503906 15.476562 5.304688 C 14.347656 2.507812 11.609375 0.734375 8.65625 0.75 Z M 8.527344 3.253906 C 8.359375 3.253906 8.222656 3.394531 8.222656 3.570312 L 8.222656 7.695312 C 8.222656 7.730469 8.230469 7.769531 8.242188 7.800781 C 8.09375 7.898438 8.007812 8.0625 8.007812 8.238281 C 8.007812 8.523438 8.242188 8.757812 8.53125 8.757812 C 8.59375 8.757812 8.65625 8.746094 8.714844 8.726562 L 10.585938 10.636719 C 10.683594 10.738281 10.84375 10.742188 10.941406 10.648438 C 11.039062 10.554688 11.039062 10.394531 10.9375 10.292969 L 9.039062 8.359375 C 9.050781 8.316406 9.054688 8.277344 9.054688 8.234375 C 9.054688 8.058594 8.964844 7.894531 8.816406 7.800781 C 8.828125 7.765625 8.835938 7.730469 8.835938 7.695312 L 8.835938 3.570312 C 8.835938 3.394531 8.699219 3.253906 8.527344 3.253906 Z M 8.527344 3.253906 "/>
</g>
</svg>
