
<svg xmlns="http://www.w3.org/2000/svg" xmlns:xlink="http://www.w3.org/1999/xlink" width="16px" height="16px" viewBox="0 0 16 16" version="1.1">
<g id="surface1">
<path style=" stroke:none;fill-rule:evenodd;fill:#ff6666;fill-opacity:1;" d="M 12.5 13.960938 C 12.632812 13.863281 12.6875 13.4375 12.660156 12.695312 C 12.636719 11.992188 12.574219 11.707031 12.429688 11.621094 C 12.359375 11.582031 12.324219 11.59375 12.238281 11.703125 C 12.074219 11.898438 11.800781 12.628906 11.796875 12.882812 C 11.796875 12.914062 11.855469 12.878906 11.929688 12.804688 C 12.027344 12.710938 12.109375 12.671875 12.21875 12.671875 C 12.359375 12.671875 12.382812 12.695312 12.484375 12.90625 C 12.609375 13.171875 12.601562 13.527344 12.472656 13.652344 C 12.316406 13.808594 11.835938 13.695312 11.78125 13.496094 C 11.769531 13.449219 11.769531 13.484375 11.777344 13.566406 C 11.796875 13.753906 11.863281 13.835938 12.097656 13.9375 C 12.316406 14.035156 12.390625 14.039062 12.5 13.960938 Z M 9.453125 13.523438 C 9.773438 13.382812 9.71875 12.761719 9.386719 12.761719 C 9.226562 12.761719 8.976562 13.042969 8.976562 13.21875 C 8.976562 13.390625 9.007812 13.445312 9.136719 13.519531 C 9.253906 13.585938 9.3125 13.585938 9.453125 13.523438 Z M 9.78125 12.269531 C 9.882812 12.269531 9.898438 12.289062 9.898438 12.40625 C 9.898438 12.507812 9.875 12.554688 9.8125 12.570312 C 9.730469 12.589844 9.726562 12.601562 9.789062 12.742188 C 9.867188 12.929688 9.875 13.390625 9.796875 13.550781 C 9.695312 13.769531 9.320312 13.878906 8.996094 13.78125 C 8.777344 13.714844 8.699219 13.589844 8.699219 13.28125 C 8.695312 12.738281 9.199219 12.269531 9.78125 12.269531 Z M 9.3125 11.210938 C 9.253906 11.207031 9.191406 11.214844 9.128906 11.226562 C 8.617188 11.328125 8.007812 11.699219 7.683594 12.109375 C 7.441406 12.410156 7.308594 12.765625 7.277344 13.191406 L 7.253906 13.507812 L 7.496094 13.765625 C 7.90625 14.203125 8.335938 14.339844 9.207031 14.320312 C 9.59375 14.308594 9.730469 14.289062 9.882812 14.210938 C 10.140625 14.082031 10.253906 13.929688 10.320312 13.628906 C 10.386719 13.308594 10.351562 12.285156 10.261719 11.972656 C 10.128906 11.519531 9.738281 11.214844 9.3125 11.210938 Z M 7.496094 15.910156 C 7.445312 15.859375 7.402344 15.789062 7.402344 15.746094 C 7.402344 15.695312 7.378906 15.6875 7.320312 15.710938 C 7.277344 15.730469 7.058594 15.753906 6.839844 15.765625 L 6.4375 15.785156 L 6.363281 15.644531 C 6.300781 15.523438 6.277344 15.511719 6.171875 15.550781 C 5.886719 15.65625 5.597656 15.574219 5.597656 15.386719 C 5.597656 15.269531 5.597656 15.269531 5.304688 15.296875 C 5.132812 15.316406 4.953125 15.308594 4.882812 15.28125 C 4.78125 15.242188 4.761719 15.214844 4.773438 15.089844 L 4.789062 14.945312 L 4.507812 14.921875 C 4.175781 14.894531 4.0625 14.824219 4.101562 14.667969 C 4.125 14.570312 4.113281 14.5625 3.972656 14.5625 C 3.78125 14.558594 3.660156 14.472656 3.613281 14.308594 C 3.585938 14.203125 3.558594 14.183594 3.460938 14.195312 C 3.269531 14.214844 3.171875 14.027344 3.179688 13.675781 C 3.1875 13.394531 3.164062 13.347656 3.070312 13.441406 C 3.042969 13.46875 2.96875 13.484375 2.910156 13.476562 C 2.769531 13.457031 2.738281 13.234375 2.839844 12.988281 C 2.921875 12.789062 2.90625 12.757812 2.734375 12.792969 C 2.511719 12.835938 2.457031 12.675781 2.574219 12.316406 C 2.601562 12.222656 2.597656 12.214844 2.519531 12.242188 C 2.335938 12.316406 2.292969 12.296875 2.277344 12.125 C 2.269531 12.023438 2.300781 11.890625 2.359375 11.777344 C 2.460938 11.589844 2.453125 11.578125 2.28125 11.59375 C 2.113281 11.605469 2.105469 11.476562 2.261719 11.230469 C 2.34375 11.105469 2.40625 10.988281 2.40625 10.96875 C 2.40625 10.949219 2.355469 10.910156 2.292969 10.882812 C 2.144531 10.816406 2.144531 10.71875 2.296875 10.507812 C 2.425781 10.328125 2.414062 10.246094 2.265625 10.246094 C 2.070312 10.246094 2.09375 10 2.3125 9.730469 C 2.421875 9.597656 2.445312 9.535156 2.425781 9.421875 C 2.410156 9.34375 2.359375 9.246094 2.308594 9.203125 C 2.261719 9.164062 2.222656 9.089844 2.222656 9.042969 C 2.222656 8.953125 2.410156 8.761719 2.582031 8.675781 C 2.703125 8.613281 2.714844 8.527344 2.609375 8.378906 C 2.542969 8.277344 2.542969 8.257812 2.613281 8.152344 C 2.65625 8.089844 2.757812 8.007812 2.84375 7.96875 C 2.925781 7.929688 3.03125 7.835938 3.074219 7.765625 C 3.152344 7.636719 3.152344 7.628906 3.074219 7.542969 C 2.941406 7.398438 3.0625 7.238281 3.378906 7.136719 C 3.707031 7.027344 3.789062 6.949219 3.710938 6.824219 C 3.59375 6.644531 3.714844 6.527344 4.097656 6.445312 C 4.296875 6.402344 4.351562 6.34375 4.320312 6.195312 C 4.296875 6.085938 4.3125 6.058594 4.417969 6.011719 C 4.53125 5.960938 4.539062 5.9375 4.515625 5.796875 C 4.449219 5.402344 4.433594 5.175781 4.476562 5.148438 C 4.5 5.136719 4.585938 5.144531 4.664062 5.175781 C 4.742188 5.203125 4.820312 5.21875 4.835938 5.203125 C 4.847656 5.1875 4.835938 5.023438 4.808594 4.835938 C 4.777344 4.648438 4.769531 4.421875 4.785156 4.335938 C 4.8125 4.1875 4.828125 4.175781 4.976562 4.175781 C 5.160156 4.175781 5.15625 4.199219 5.066406 3.792969 C 4.980469 3.386719 4.980469 3.339844 5.085938 3.238281 C 5.253906 3.074219 5.28125 2.660156 5.160156 2.058594 C 5.0625 1.566406 5.085938 1.296875 5.226562 1.296875 C 5.273438 1.296875 5.355469 1.347656 5.40625 1.410156 C 5.511719 1.539062 5.578125 1.554688 5.617188 1.453125 C 5.667969 1.320312 5.644531 1.207031 5.511719 0.949219 C 5.363281 0.660156 5.230469 0.257812 5.230469 0.0976562 C 5.230469 -0.0625 5.335938 -0.0273438 5.609375 0.214844 C 5.871094 0.449219 6.085938 0.792969 6.222656 1.195312 C 6.347656 1.578125 6.425781 1.511719 6.457031 1.003906 C 6.476562 0.65625 6.496094 0.578125 6.570312 0.578125 C 6.65625 0.578125 6.757812 0.855469 6.851562 1.371094 C 6.9375 1.835938 6.945312 1.996094 6.917969 2.609375 C 6.898438 2.996094 6.898438 3.359375 6.917969 3.414062 L 6.953125 3.519531 L 7.058594 3.390625 L 7.164062 3.257812 L 7.199219 3.386719 C 7.214844 3.457031 7.21875 3.828125 7.207031 4.214844 C 7.195312 4.601562 7.191406 4.941406 7.203125 4.972656 C 7.257812 5.113281 7.511719 4.976562 7.546875 4.785156 C 7.582031 4.617188 7.703125 4.597656 7.914062 4.734375 C 8.023438 4.804688 8.175781 4.878906 8.253906 4.898438 C 8.375 4.933594 8.40625 4.925781 8.476562 4.839844 C 8.546875 4.746094 8.5625 4.742188 8.707031 4.800781 C 8.996094 4.914062 9.046875 4.894531 9.03125 4.6875 C 9.023438 4.566406 9.046875 4.480469 9.089844 4.445312 C 9.132812 4.414062 9.160156 4.308594 9.164062 4.203125 C 9.164062 4.101562 9.183594 3.980469 9.203125 3.929688 C 9.222656 3.875 9.183594 3.691406 9.082031 3.414062 C 8.828125 2.707031 8.894531 2.257812 9.207031 2.578125 C 9.359375 2.738281 9.4375 2.722656 9.4375 2.539062 C 9.4375 2.4375 9.339844 2.199219 9.160156 1.859375 C 8.785156 1.148438 8.785156 0.96875 9.171875 1.203125 C 9.433594 1.367188 9.6875 1.65625 9.921875 2.070312 C 10.179688 2.519531 10.246094 2.527344 10.210938 2.101562 C 10.167969 1.546875 10.320312 1.445312 10.546875 1.882812 C 10.769531 2.308594 10.824219 2.601562 10.875 3.546875 C 10.902344 4.027344 10.941406 4.441406 10.964844 4.464844 C 10.988281 4.488281 11.039062 4.4375 11.085938 4.339844 C 11.242188 4.019531 11.320312 4.203125 11.359375 4.984375 C 11.394531 5.636719 11.390625 5.628906 11.546875 5.558594 C 11.652344 5.511719 11.679688 5.515625 11.753906 5.609375 C 11.804688 5.667969 11.84375 5.769531 11.84375 5.839844 C 11.84375 6.03125 11.957031 6.097656 12.117188 6.003906 C 12.238281 5.9375 12.257812 5.933594 12.320312 5.996094 C 12.363281 6.035156 12.40625 6.140625 12.421875 6.234375 C 12.464844 6.488281 12.527344 6.601562 12.621094 6.601562 C 12.742188 6.601562 12.804688 6.6875 12.839844 6.902344 C 12.882812 7.175781 12.925781 7.222656 13.035156 7.128906 C 13.238281 6.949219 13.371094 7.175781 13.253906 7.496094 C 13.214844 7.605469 13.183594 7.703125 13.183594 7.714844 C 13.183594 7.722656 13.277344 7.71875 13.390625 7.703125 C 13.585938 7.675781 13.601562 7.679688 13.601562 7.773438 C 13.601562 7.832031 13.566406 7.910156 13.53125 7.953125 C 13.421875 8.070312 13.488281 8.3125 13.628906 8.3125 C 13.6875 8.3125 13.757812 8.351562 13.785156 8.402344 C 13.828125 8.476562 13.8125 8.535156 13.71875 8.703125 C 13.570312 8.957031 13.570312 8.96875 13.722656 9.039062 C 13.894531 9.121094 13.902344 9.175781 13.761719 9.335938 C 13.621094 9.5 13.617188 9.554688 13.738281 9.585938 C 13.84375 9.609375 13.867188 9.789062 13.777344 9.875 C 13.734375 9.914062 13.742188 9.949219 13.808594 10.019531 C 13.878906 10.09375 13.882812 10.128906 13.839844 10.222656 C 13.808594 10.285156 13.734375 10.359375 13.671875 10.386719 C 13.535156 10.445312 13.519531 10.523438 13.625 10.605469 C 13.679688 10.648438 13.6875 10.710938 13.664062 10.871094 C 13.628906 11.109375 13.578125 11.1875 13.457031 11.1875 C 13.328125 11.1875 13.3125 11.257812 13.414062 11.382812 C 13.574219 11.578125 13.492188 11.75 13.289062 11.648438 C 13.183594 11.59375 13.089844 11.625 13.089844 11.714844 C 13.089844 11.75 13.144531 11.867188 13.210938 11.976562 C 13.355469 12.21875 13.347656 12.375 13.183594 12.394531 C 13.003906 12.421875 12.980469 12.476562 13.085938 12.621094 C 13.210938 12.792969 13.214844 12.972656 13.089844 13.011719 C 12.972656 13.046875 12.972656 13.144531 13.09375 13.308594 C 13.210938 13.464844 13.195312 13.589844 13.054688 13.609375 C 12.925781 13.628906 12.925781 13.671875 13.050781 13.777344 C 13.230469 13.9375 13.253906 14.027344 13.132812 14.113281 C 13.039062 14.183594 13.03125 14.207031 13.082031 14.3125 C 13.203125 14.570312 13.117188 14.828125 12.941406 14.734375 C 12.835938 14.679688 12.84375 14.671875 12.773438 14.90625 C 12.734375 15.050781 12.6875 15.101562 12.585938 15.136719 C 12.5 15.167969 12.445312 15.222656 12.4375 15.285156 C 12.410156 15.4375 12.28125 15.496094 12.175781 15.402344 C 12.054688 15.296875 12.039062 15.304688 12.003906 15.507812 C 11.972656 15.679688 11.882812 15.820312 11.796875 15.820312 C 11.773438 15.820312 11.714844 15.769531 11.660156 15.703125 C 11.554688 15.570312 11.441406 15.585938 11.417969 15.734375 C 11.410156 15.789062 11.367188 15.855469 11.320312 15.882812 C 11.253906 15.925781 11.21875 15.910156 11.128906 15.796875 L 11.015625 15.664062 L 10.882812 15.785156 C 10.734375 15.925781 10.605469 15.945312 10.5625 15.84375 C 10.527344 15.746094 10.464844 15.757812 10.308594 15.886719 C 10.234375 15.949219 10.140625 16 10.101562 16 C 10.066406 16 10.015625 15.949219 9.992188 15.886719 C 9.96875 15.824219 9.941406 15.773438 9.929688 15.773438 C 9.921875 15.773438 9.789062 15.828125 9.644531 15.890625 C 9.332031 16.023438 9.15625 16.019531 9.089844 15.875 C 9.0625 15.808594 9.019531 15.785156 8.976562 15.804688 C 8.625 15.949219 8.511719 15.976562 8.417969 15.921875 C 8.34375 15.875 8.277344 15.875 8.054688 15.933594 C 7.695312 16.019531 7.605469 16.019531 7.496094 15.910156 Z M 12.324219 13.457031 C 12.429688 13.355469 12.414062 13.191406 12.289062 13.050781 C 12.152344 12.894531 11.996094 12.933594 11.941406 13.136719 C 11.882812 13.355469 11.960938 13.527344 12.121094 13.527344 C 12.191406 13.527344 12.285156 13.496094 12.324219 13.457031 Z M 12.324219 13.457031 "/>
</g>
</svg>
