
<svg xmlns="http://www.w3.org/2000/svg" xmlns:xlink="http://www.w3.org/1999/xlink" width="16px" height="16px" viewBox="0 0 16 16" version="1.1">
<g id="surface1">
<path style=" stroke:none;fill-rule:evenodd;fill:#ff6666;fill-opacity:1;" d="M 9.714844 12.097656 C 9.714844 12.992188 8.945312 13.714844 8 13.714844 C 7.054688 13.714844 6.285156 12.992188 6.285156 12.097656 C 6.285156 11.207031 9.714844 11.207031 9.714844 12.097656 Z M 4.570312 5.144531 C 5.519531 5.144531 6.285156 6.164062 6.285156 7.429688 C 6.285156 8.691406 5.519531 9.714844 4.570312 9.714844 C 3.625 9.714844 2.855469 8.691406 2.855469 7.429688 C 2.855469 6.164062 3.625 5.144531 4.570312 5.144531 Z M 4.570312 4 C 2.992188 4 1.714844 5.535156 1.714844 7.429688 C 1.714844 9.320312 2.992188 10.855469 4.570312 10.855469 C 6.148438 10.855469 7.429688 9.320312 7.429688 7.429688 C 7.429688 5.535156 6.148438 4 4.570312 4 Z M 0.640625 0.125 C 0 0.777344 0 3.902344 0 5.882812 C 0 13.0625 4.160156 16 8 16 C 11.839844 16 16 13.0625 16 5.882812 C 16 3.921875 16 0.777344 15.359375 0.125 C 14.71875 -0.527344 10.480469 1.5 9.199219 2.804688 L 6.800781 2.804688 C 5.519531 1.5 1.28125 -0.527344 0.640625 0.125 Z M 11.429688 5.144531 C 12.375 5.144531 13.144531 6.164062 13.144531 7.429688 C 13.144531 8.691406 12.375 9.714844 11.429688 9.714844 C 10.480469 9.714844 9.714844 8.691406 9.714844 7.429688 C 9.714844 6.164062 10.480469 5.144531 11.429688 5.144531 Z M 11.429688 4 C 9.851562 4 8.570312 5.535156 8.570312 7.429688 C 8.570312 9.320312 9.851562 10.855469 11.429688 10.855469 C 13.007812 10.855469 14.285156 9.320312 14.285156 7.429688 C 14.285156 5.535156 13.007812 4 11.429688 4 Z M 11.429688 4 "/>
</g>
</svg>
