
<svg xmlns="http://www.w3.org/2000/svg" xmlns:xlink="http://www.w3.org/1999/xlink" width="16px" height="16px" viewBox="0 0 16 16" version="1.1">
<g id="surface1">
<path style=" stroke:none;fill-rule:nonzero;fill:#ff6666;fill-opacity:1;" d="M 0 3.46875 L 0 12.53125 L 2.265625 12.53125 L 2.265625 12.332031 C 2.628906 12.460938 3.011719 12.527344 3.398438 12.53125 C 5.273438 12.53125 6.796875 11.007812 6.796875 9.132812 C 6.796875 8.230469 6.4375 7.367188 5.800781 6.730469 C 5.164062 6.09375 4.300781 5.734375 3.398438 5.734375 C 3.011719 5.734375 2.628906 5.804688 2.265625 5.933594 L 2.265625 3.46875 Z M 12.082031 3.46875 C 10.878906 3.46875 9.726562 3.945312 8.878906 4.796875 C 8.027344 5.644531 7.550781 6.796875 7.550781 8 C 7.550781 9.203125 8.027344 10.355469 8.878906 11.203125 C 9.726562 12.054688 10.878906 12.53125 12.082031 12.53125 C 13.699219 12.527344 15.191406 11.664062 16 10.265625 L 12.082031 10.265625 C 10.828125 10.265625 9.816406 9.25 9.816406 8 C 9.816406 6.75 10.828125 5.734375 12.082031 5.734375 L 16 5.734375 C 15.191406 4.335938 13.699219 3.472656 12.082031 3.46875 Z M 3.398438 8 C 3.699219 8 3.984375 8.117188 4.199219 8.332031 C 4.410156 8.542969 4.53125 8.832031 4.53125 9.132812 C 4.53125 9.433594 4.410156 9.722656 4.199219 9.933594 C 3.984375 10.144531 3.699219 10.265625 3.398438 10.265625 C 2.773438 10.265625 2.265625 9.757812 2.265625 9.132812 C 2.265625 8.507812 2.773438 8 3.398438 8 Z M 3.398438 8 "/>
</g>
</svg>
