
<svg xmlns="http://www.w3.org/2000/svg" xmlns:xlink="http://www.w3.org/1999/xlink" width="16px" height="16px" viewBox="0 0 16 16" version="1.1">
<g id="surface1">
<path style=" stroke:none;fill-rule:nonzero;fill:#ff6666;fill-opacity:1;" d="M 8 0 C 3.574219 0 0 3.574219 0 8 C 0 12.425781 3.574219 16 8 16 C 12.425781 16 16 12.425781 16 8 C 16 3.574219 12.425781 0 8 0 Z M 8 1 L 8 8 L 15.023438 8.046875 C 15.074219 8.046875 15 7.941406 15 8 C 15 11.871094 11.871094 15 8 15 C 4.128906 15 1 11.871094 1 8 C 1 4.210938 3.996094 1.132812 7.753906 1.003906 C 7.835938 1 8 0.917969 8 1 Z M 8 1 "/>
</g>
</svg>
