
<svg xmlns="http://www.w3.org/2000/svg" xmlns:xlink="http://www.w3.org/1999/xlink" width="16px" height="16px" viewBox="0 0 16 16" version="1.1">
<g id="surface1">
<path style=" stroke:none;fill-rule:evenodd;fill:#ff6666;fill-opacity:1;" d="M 4.371094 0 C 4.101562 0.0117188 3.859375 0.128906 3.726562 0.316406 L 0.933594 4.144531 C 0.792969 4.339844 0.792969 4.578125 0.933594 4.777344 C 1.074219 4.972656 1.339844 5.089844 1.625 5.089844 L 2.980469 5.089844 L 2.980469 11.152344 C 2.980469 11.824219 3.511719 12.363281 4.175781 12.363281 L 4.652344 12.363281 C 5.316406 12.363281 5.847656 11.824219 5.847656 11.152344 L 5.847656 5.089844 L 7.203125 5.089844 C 7.488281 5.089844 7.753906 4.972656 7.894531 4.777344 C 8.035156 4.578125 8.035156 4.339844 7.894531 4.144531 L 5.101562 0.316406 C 4.953125 0.109375 4.671875 -0.0117188 4.371094 0 Z M 11.347656 3.636719 C 10.683594 3.636719 10.152344 4.175781 10.152344 4.847656 L 10.152344 10.910156 L 8.796875 10.910156 C 8.511719 10.910156 8.246094 11.027344 8.105469 11.222656 C 7.964844 11.421875 7.964844 11.660156 8.105469 11.855469 L 10.898438 15.683594 C 11.03125 15.871094 11.273438 15.988281 11.542969 16 C 11.84375 16.011719 12.125 15.890625 12.273438 15.683594 L 15.066406 11.855469 C 15.207031 11.660156 15.207031 11.421875 15.066406 11.222656 C 14.925781 11.027344 14.660156 10.910156 14.375 10.910156 L 13.019531 10.910156 L 13.019531 4.847656 C 13.019531 4.175781 12.488281 3.636719 11.824219 3.636719 Z M 11.347656 3.636719 "/>
</g>
</svg>
