
<svg xmlns="http://www.w3.org/2000/svg" xmlns:xlink="http://www.w3.org/1999/xlink" width="16px" height="16px" viewBox="0 0 16 16" version="1.1">
<g id="surface1">
<path style=" stroke:none;fill-rule:evenodd;fill:#ff6666;fill-opacity:1;" d="M 8.667969 8.667969 C 8.667969 9.160156 8.050781 9.132812 8.050781 9.132812 L 7.4375 9.132812 L 7.4375 8.238281 L 8.050781 8.238281 C 8.6875 8.234375 8.667969 8.667969 8.667969 8.667969 Z M 7.4375 6.871094 L 7.90625 6.871094 C 8.394531 6.898438 8.375 7.261719 8.375 7.261719 C 8.375 7.714844 7.835938 7.71875 7.835938 7.71875 L 7.4375 7.71875 Z M 3.089844 8.667969 C 3.089844 9.160156 2.472656 9.132812 2.472656 9.132812 L 1.855469 9.132812 L 1.855469 8.238281 L 2.472656 8.238281 C 3.105469 8.234375 3.089844 8.667969 3.089844 8.667969 Z M 1.855469 6.871094 L 2.324219 6.871094 C 2.8125 6.898438 2.796875 7.261719 2.796875 7.261719 C 2.796875 7.714844 2.253906 7.71875 2.253906 7.71875 L 1.855469 7.71875 Z M 8.554688 7.894531 C 8.554688 7.894531 8.976562 7.714844 8.972656 7.238281 C 8.972656 7.238281 9.039062 6.457031 8.003906 6.363281 L 6.851562 6.363281 L 6.851562 9.640625 L 8.171875 9.640625 C 8.171875 9.640625 9.269531 9.644531 9.269531 8.714844 C 9.269531 8.714844 9.296875 8.082031 8.554688 7.894531 Z M 2.976562 7.894531 C 2.976562 7.894531 3.398438 7.714844 3.394531 7.238281 C 3.394531 7.238281 3.457031 6.457031 2.421875 6.363281 L 1.273438 6.363281 L 1.273438 9.640625 L 2.589844 9.640625 C 2.589844 9.640625 3.691406 9.644531 3.691406 8.714844 C 3.691406 8.714844 3.714844 8.082031 2.976562 7.894531 Z M 5.578125 5.71875 L 10.421875 5.71875 L 10.421875 10.28125 L 5.578125 10.28125 Z M 0 5.71875 L 4.839844 5.71875 L 4.839844 10.28125 L 0 10.28125 Z M 15.011719 6.597656 L 15.011719 7.203125 C 15.011719 7.203125 14.421875 6.839844 13.769531 6.832031 C 13.769531 6.832031 12.550781 6.808594 12.496094 8 C 12.496094 8 12.449219 9.097656 13.753906 9.160156 C 13.753906 9.160156 14.300781 9.226562 15.042969 8.75 L 15.042969 9.378906 C 15.042969 9.378906 14.046875 9.96875 12.894531 9.515625 C 12.894531 9.515625 11.925781 9.160156 11.890625 8 C 11.890625 8 11.847656 6.804688 13.140625 6.410156 C 13.140625 6.410156 13.484375 6.277344 14.105469 6.335938 C 14.105469 6.335938 14.476562 6.371094 15.011719 6.597656 Z M 11.160156 10.28125 L 16 10.28125 L 16 5.71875 L 11.160156 5.71875 Z M 11.160156 10.28125 "/>
</g>
</svg>
