
<svg xmlns="http://www.w3.org/2000/svg" xmlns:xlink="http://www.w3.org/1999/xlink" width="16px" height="16px" viewBox="0 0 16 16" version="1.1">
<g id="surface1">
<path style=" stroke:none;fill-rule:nonzero;fill:#ff6666;fill-opacity:1;" d="M 2.460938 0 C 1.105469 0 0 1.105469 0 2.460938 L 0 10.460938 C 0 11.816406 1.105469 12.921875 2.460938 12.921875 L 6.769531 12.921875 L 6.769531 13.539062 C 6.769531 14.894531 7.875 16 9.230469 16 L 13.539062 16 C 14.894531 16 16 14.894531 16 13.539062 L 16 7.386719 C 16 6.730469 15.652344 6.457031 14.578125 5.402344 C 14.429688 5.257812 14.285156 5.09375 14.136719 4.941406 C 13.984375 4.789062 13.820312 4.648438 13.671875 4.5 C 12.621094 3.425781 12.347656 3.078125 11.691406 3.078125 L 9.230469 3.078125 C 9.03125 3.078125 8.839844 3.109375 8.652344 3.152344 C 8.441406 2.929688 8.179688 2.6875 7.808594 2.328125 C 7.65625 2.179688 7.515625 2.015625 7.363281 1.863281 C 7.214844 1.714844 7.050781 1.570312 6.902344 1.421875 C 5.851562 0.347656 5.578125 0 4.921875 0 Z M 2.460938 1.230469 L 4.789062 1.230469 C 5.203125 1.230469 5.539062 1.441406 5.539062 1.941406 L 5.539062 3.078125 C 5.539062 3.414062 5.816406 3.691406 6.152344 3.691406 L 7.328125 3.691406 C 7.980469 3.691406 8 4.105469 8 4.367188 L 8 10.902344 C 8 11.144531 7.449219 11.691406 6.769531 11.691406 L 2.460938 11.691406 C 1.78125 11.691406 1.230469 11.140625 1.230469 10.460938 L 1.308594 2.058594 C 1.476562 1.5625 1.9375 1.230469 2.460938 1.230469 Z M 9.230469 4.308594 L 11.558594 4.308594 C 11.972656 4.308594 12.308594 4.519531 12.308594 5.019531 L 12.308594 6.152344 C 12.308594 6.492188 12.585938 6.769531 12.921875 6.769531 L 14.097656 6.769531 C 14.75 6.769531 14.769531 7.183594 14.769531 7.441406 L 14.769531 13.980469 C 14.769531 14.222656 14.21875 14.769531 13.539062 14.769531 L 9.230469 14.769531 C 8.550781 14.769531 8 14.21875 8 13.539062 L 8 12.578125 C 8.613281 12.222656 9.042969 11.621094 9.171875 10.921875 L 11.652344 12.808594 L 11.652344 11.078125 L 13.5 11.078125 L 13.5 9.847656 L 11.652344 9.847656 L 11.652344 8.113281 L 9.230469 9.960938 Z M 4.269531 5.039062 L 4.269531 6.769531 L 2.421875 6.769531 L 2.421875 8 L 4.269531 8 L 4.269531 9.730469 L 7.347656 7.386719 Z M 4.269531 5.039062 "/>
</g>
</svg>
