
<svg xmlns="http://www.w3.org/2000/svg" xmlns:xlink="http://www.w3.org/1999/xlink" width="16px" height="16px" viewBox="0 0 16 16" version="1.1">
<g id="surface1">
<path style=" stroke:none;fill-rule:evenodd;fill:#ff6666;fill-opacity:1;" d="M 14.753906 3.707031 C 15.542969 4.945312 16 6.421875 16 8 C 16 12.417969 12.417969 16 8 16 C 3.582031 16 0 12.417969 0 8 C 0 3.582031 3.582031 0 8 0 C 9.441406 0 10.796875 0.382812 11.964844 1.050781 C 12.3125 1.027344 12.78125 0.988281 13.222656 0.949219 C 13.511719 0.921875 13.863281 0.847656 14.1875 0.933594 C 14.285156 0.960938 14.386719 1.007812 14.46875 1.105469 C 14.542969 1.175781 14.605469 1.253906 14.648438 1.335938 C 14.710938 1.457031 14.71875 1.503906 14.714844 1.730469 C 14.714844 1.871094 14.710938 2.292969 14.703125 2.664062 C 14.699219 3.195312 14.707031 3.410156 14.742188 3.652344 C 14.746094 3.671875 14.75 3.691406 14.753906 3.707031 Z M 8 2.667969 C 10.945312 2.667969 13.332031 5.054688 13.332031 8 C 13.332031 10.945312 10.945312 13.332031 8 13.332031 C 5.054688 13.332031 2.667969 10.945312 2.667969 8 C 2.667969 5.054688 5.054688 2.667969 8 2.667969 Z M 8 2.667969 "/>
</g>
</svg>
