
<svg xmlns="http://www.w3.org/2000/svg" xmlns:xlink="http://www.w3.org/1999/xlink" width="16px" height="16px" viewBox="0 0 16 16" version="1.1">
<g id="surface1">
<path style=" stroke:none;fill-rule:nonzero;fill:#ff6666;fill-opacity:1;" d="M 12.660156 11.722656 C 11.464844 11.210938 10.59375 10.441406 9.746094 10.109375 C 10.191406 9.902344 10.617188 9.621094 10.867188 9.363281 C 11.140625 9.085938 11.238281 8.75 11.214844 8.417969 C 12.113281 9.03125 13.160156 9.085938 13.707031 9.109375 C 14.253906 9.136719 14.804688 9.261719 14.902344 9.519531 C 14.902344 9.519531 15.078125 6.394531 8.820312 4.316406 C 8.820312 4.316406 10.691406 5.1875 11.265625 5.878906 C 11.265625 5.878906 10.59375 5.828125 10.316406 6.289062 C 10.167969 6.519531 10.144531 6.855469 10.269531 7.238281 C 10.167969 7.214844 10.042969 7.214844 9.917969 7.1875 L 0 1.523438 L 1.046875 3.828125 L 0.0742188 3.472656 L 0.375 4.035156 C 0.375 4.035156 0.796875 4.855469 1.746094 6.570312 C 2.492188 7.929688 3.839844 8.597656 5.632812 8.519531 L 5.855469 8.519531 C 6.304688 8.492188 7.003906 8.417969 7.675781 8.367188 C 7.625 8.621094 7.625 8.929688 7.699219 9.289062 C 7.777344 9.699219 7.949219 9.980469 8.148438 10.132812 C 7.625 10.390625 7.203125 10.902344 7.003906 11.492188 C 6.855469 11.878906 6.804688 12.3125 7.003906 12.851562 C 7.03125 12.953125 7.078125 13.054688 7.152344 13.183594 C 7.203125 13.285156 7.277344 13.390625 7.378906 13.492188 C 8.476562 14.851562 11.089844 14.617188 12.785156 13.902344 C 12.808594 13.902344 12.835938 13.875 12.859375 13.875 C 12.984375 13.824219 13.132812 13.746094 13.257812 13.695312 C 13.285156 13.671875 13.308594 13.671875 13.332031 13.644531 C 13.484375 13.566406 13.609375 13.492188 13.757812 13.414062 C 15.425781 12.414062 16 11.234375 16 11.234375 C 16 11.234375 14.28125 12.414062 12.660156 11.722656 Z M 12.933594 6.933594 C 13.40625 7.136719 14.128906 8.367188 14.128906 8.367188 C 13.53125 8.265625 12.308594 7.855469 12.183594 7.394531 C 12.058594 6.933594 12.457031 6.726562 12.933594 6.933594 Z M 11.515625 13.132812 C 11.515625 13.132812 11.640625 13.542969 11.488281 14.082031 C 11.316406 14.132812 11.140625 14.15625 10.964844 14.210938 C 11.265625 13.976562 11.515625 13.617188 11.515625 13.132812 Z M 3.316406 5.316406 L 7.625 7.828125 C 6.828125 7.90625 6.007812 7.980469 5.582031 8.007812 C 4.933594 8.03125 4.359375 7.957031 3.863281 7.777344 C 3.113281 7.519531 2.566406 7.007812 2.167969 6.316406 C 1.671875 5.445312 1.347656 4.804688 1.121094 4.394531 L 2.019531 4.699219 L 1.121094 2.726562 L 8.972656 7.1875 C 8.746094 7.214844 8.546875 7.289062 8.347656 7.367188 Z M 7.898438 8.46875 C 8.199219 6.980469 10.070312 7.441406 10.070312 7.441406 C 9.394531 7.441406 8.996094 7.621094 8.796875 7.90625 C 8.496094 8.316406 8.871094 8.648438 8.871094 8.648438 C 8.773438 8.621094 8.671875 8.597656 8.621094 8.546875 L 8.621094 8.570312 C 8.773438 9.160156 9.246094 9.3125 9.246094 9.3125 C 9.070312 9.339844 8.921875 9.3125 8.796875 9.289062 C 8.898438 9.519531 9.046875 9.699219 9.121094 9.75 C 8.699219 9.75 8.496094 9.851562 8.347656 9.902344 C 8.023438 9.671875 7.75 9.109375 7.898438 8.46875 Z M 9.246094 11.75 C 9.246094 11.75 8.574219 12.621094 7.105469 12.621094 C 7.03125 12.285156 7.054688 11.953125 7.128906 11.644531 C 7.601562 11.953125 8.300781 12.105469 9.246094 11.75 Z M 8.027344 13.773438 C 8.648438 13.617188 9.445312 13.261719 10.195312 12.390625 C 10.195312 12.390625 10.09375 13.363281 9.398438 14.261719 C 9.074219 14.210938 8.75 14.132812 8.449219 14.003906 C 8.300781 13.925781 8.152344 13.851562 8.027344 13.773438 Z M 13.832031 12.980469 C 13.757812 12.746094 13.707031 12.261719 13.707031 12.261719 C 14.230469 12.3125 14.855469 12.082031 14.855469 12.082031 C 14.429688 12.644531 13.832031 12.980469 13.832031 12.980469 Z M 13.832031 12.980469 "/>
</g>
</svg>
