
<svg xmlns="http://www.w3.org/2000/svg" xmlns:xlink="http://www.w3.org/1999/xlink" width="16px" height="16px" viewBox="0 0 16 16" version="1.1">
<g id="surface1">
<path style=" stroke:none;fill-rule:nonzero;fill:#ff6666;fill-opacity:1;" d="M 10.285156 2 L 10.285156 3 L 0 3 L 0 5 L 10.285156 5 L 10.285156 6 L 12.574219 6 L 12.574219 2 Z M 13.714844 3 L 13.714844 5 L 16 5 L 16 3 Z M 3.429688 6 L 3.429688 7 L 0 7 L 0 9 L 3.429688 9 L 3.429688 10 L 5.714844 10 L 5.714844 6 Z M 6.859375 7 L 6.859375 9 L 16 9 L 16 7 Z M 8 10 L 8 11 L 0 11 L 0 13 L 8 13 L 8 14 L 10.285156 14 L 10.285156 10 Z M 11.425781 11 L 11.425781 13 L 16 13 L 16 11 Z M 11.425781 11 "/>
</g>
</svg>
