
<svg xmlns="http://www.w3.org/2000/svg" xmlns:xlink="http://www.w3.org/1999/xlink" width="16px" height="16px" viewBox="0 0 16 16" version="1.1">
<g id="surface1">
<path style=" stroke:none;fill-rule:evenodd;fill:#ff6666;fill-opacity:1;" d="M 5.550781 11.570312 C 6.125 12.335938 7.027344 12.800781 8 12.800781 C 8.972656 12.800781 9.875 12.335938 10.449219 11.570312 L 10.773438 11.511719 C 11.1875 11.511719 11.339844 10.601562 11.050781 10.292969 L 8.328125 7.742188 C 8.242188 7.652344 8.121094 7.601562 8 7.601562 C 7.878906 7.601562 7.757812 7.652344 7.671875 7.742188 L 4.949219 10.292969 C 4.660156 10.601562 4.8125 11.511719 5.226562 11.511719 Z M 4.769531 5.011719 C 4.566406 3.726562 3.335938 2.949219 2.027344 3.273438 C 0.71875 3.601562 -0.175781 4.90625 0.0273438 6.191406 C 0.234375 7.476562 1.464844 8.253906 2.773438 7.925781 C 4.082031 7.601562 4.976562 6.292969 4.769531 5.011719 Z M 11.230469 5.007812 C 11.433594 3.726562 12.664062 2.949219 13.972656 3.273438 C 15.28125 3.601562 16.175781 4.90625 15.972656 6.191406 C 15.765625 7.476562 14.535156 8.253906 13.226562 7.925781 C 11.917969 7.601562 11.023438 6.292969 11.230469 5.007812 Z M 11.230469 5.007812 "/>
</g>
</svg>
