
<svg xmlns="http://www.w3.org/2000/svg" xmlns:xlink="http://www.w3.org/1999/xlink" width="16px" height="16px" viewBox="0 0 16 16" version="1.1">
<g id="surface1">
<path style=" stroke:none;fill-rule:nonzero;fill:#ff6666;fill-opacity:1;" d="M 5.339844 0 L 5.339844 2.667969 L 2.675781 2.667969 L 2.675781 4.445312 C 2.675781 4.445312 3.691406 4.425781 3.675781 4.445312 C 4.222656 4.4375 4.394531 4.832031 4.449219 5.097656 L 4.449219 10.964844 C 4.429688 11.128906 4.449219 11.542969 4.066406 11.554688 C 4.085938 11.570312 2.675781 11.554688 2.675781 11.554688 L 2.675781 13.332031 L 4.601562 13.332031 C 4.929688 13.320312 5.027344 13.332031 5.339844 13.332031 L 5.339844 16 L 7.117188 16 L 7.117188 13.332031 L 7.988281 13.332031 L 8.027344 16 L 9.785156 16 L 9.765625 13.332031 C 12.027344 13.167969 13.339844 12.085938 13.324219 10.222656 C 13.339844 8.507812 11.96875 7.5625 11.117188 7.554688 C 11.96875 7.558594 12.453125 6.632812 12.453125 5.332031 C 12.453125 3.554688 11.226562 2.667969 9.785156 2.667969 L 9.785156 0 L 8.007812 0 L 8.007812 2.667969 C 7.652344 2.667969 7.476562 2.652344 7.117188 2.667969 L 7.117188 0 Z M 7.117188 4.445312 C 8.894531 4.445312 9.785156 4.445312 9.785156 5.777344 C 9.785156 7.109375 8.894531 7.109375 7.117188 7.109375 Z M 7.117188 8.890625 C 9.488281 8.890625 10.675781 8.742188 10.675781 10.222656 C 10.675781 11.703125 9.488281 11.554688 7.117188 11.554688 Z M 7.117188 8.890625 "/>
</g>
</svg>
