
<svg xmlns="http://www.w3.org/2000/svg" xmlns:xlink="http://www.w3.org/1999/xlink" width="16px" height="16px" viewBox="0 0 16 16" version="1.1">
<g id="surface1">
<path style=" stroke:none;fill-rule:nonzero;fill:#ff6666;fill-opacity:1;" d="M 8 0 C 1.839844 0 1.683594 0.00390625 1.523438 0.101562 C 1.183594 0.304688 1.199219 0.0507812 1.199219 4.8125 C 1.199219 9.648438 1.195312 9.550781 1.566406 10.488281 C 1.992188 11.566406 2.683594 12.476562 3.8125 13.46875 C 4.761719 14.296875 5.886719 15.050781 7.140625 15.6875 C 7.566406 15.90625 7.785156 16.003906 8 16 C 8.214844 16.003906 8.433594 15.90625 8.859375 15.6875 C 10.113281 15.050781 11.238281 14.296875 12.1875 13.46875 C 13.316406 12.476562 14.007812 11.566406 14.433594 10.488281 C 14.804688 9.550781 14.800781 9.648438 14.800781 4.8125 C 14.800781 0.0507812 14.816406 0.304688 14.476562 0.101562 C 14.316406 0.00390625 14.160156 0 8 0 Z M 8 2.398438 C 10.476562 2.398438 11.476562 2.402344 12.382812 2.410156 C 12.390625 3.050781 12.398438 3.347656 12.398438 4.8125 C 12.398438 7.230469 12.394531 8.4375 12.359375 8.957031 C 12.328125 9.476562 12.398438 9.113281 12.203125 9.601562 C 11.929688 10.292969 11.550781 10.835938 10.605469 11.660156 C 9.890625 12.289062 8.984375 12.871094 8 13.398438 Z M 8 2.398438 "/>
</g>
</svg>
