
<svg xmlns="http://www.w3.org/2000/svg" xmlns:xlink="http://www.w3.org/1999/xlink" width="16px" height="16px" viewBox="0 0 16 16" version="1.1">
<g id="surface1">
<path style=" stroke:none;fill-rule:nonzero;fill:#ff6666;fill-opacity:1;" d="M 3.824219 4.175781 C 3.550781 4.175781 3.285156 4.285156 3.089844 4.480469 C 2.894531 4.675781 2.78125 4.941406 2.78125 5.21875 C 2.78125 5.792969 3.25 6.261719 3.824219 6.261719 C 4.402344 6.261719 4.867188 5.792969 4.871094 5.21875 C 4.871094 4.941406 4.761719 4.675781 4.5625 4.480469 C 4.367188 4.285156 4.101562 4.175781 3.824219 4.175781 Z M 6.609375 4.175781 C 6.332031 4.175781 6.066406 4.285156 5.871094 4.480469 C 5.675781 4.675781 5.566406 4.941406 5.566406 5.21875 C 5.566406 5.792969 6.03125 6.261719 6.609375 6.261719 C 7.183594 6.261719 7.652344 5.792969 7.652344 5.21875 C 7.652344 4.941406 7.542969 4.675781 7.347656 4.480469 C 7.152344 4.285156 6.886719 4.175781 6.609375 4.175781 Z M 9.390625 4.175781 C 9.113281 4.175781 8.851562 4.285156 8.652344 4.480469 C 8.457031 4.675781 8.347656 4.941406 8.347656 5.21875 C 8.347656 5.792969 8.816406 6.261719 9.390625 6.261719 C 9.96875 6.261719 10.433594 5.792969 10.433594 5.21875 C 10.433594 4.941406 10.324219 4.675781 10.128906 4.480469 C 9.933594 4.285156 9.667969 4.175781 9.390625 4.175781 Z M 12.175781 4.175781 C 11.898438 4.175781 11.632812 4.285156 11.4375 4.480469 C 11.238281 4.675781 11.128906 4.941406 11.128906 5.21875 C 11.132812 5.792969 11.597656 6.261719 12.175781 6.261719 C 12.75 6.261719 13.21875 5.792969 13.21875 5.21875 C 13.21875 4.941406 13.105469 4.675781 12.910156 4.480469 C 12.714844 4.285156 12.449219 4.175781 12.175781 4.175781 Z M 1.042969 6.957031 C 0.765625 6.957031 0.5 7.066406 0.304688 7.261719 C 0.109375 7.457031 0 7.722656 0 8 C 0 8.277344 0.109375 8.542969 0.304688 8.738281 C 0.5 8.933594 0.765625 9.042969 1.042969 9.042969 C 1.320312 9.042969 1.585938 8.933594 1.78125 8.738281 C 1.976562 8.542969 2.085938 8.277344 2.085938 8 C 2.085938 7.722656 1.976562 7.457031 1.78125 7.261719 C 1.585938 7.066406 1.320312 6.957031 1.042969 6.957031 Z M 3.824219 6.957031 C 3.550781 6.957031 3.285156 7.066406 3.089844 7.261719 C 2.894531 7.457031 2.78125 7.722656 2.78125 8 C 2.78125 8.277344 2.894531 8.542969 3.089844 8.738281 C 3.285156 8.933594 3.550781 9.042969 3.824219 9.042969 C 4.101562 9.042969 4.367188 8.933594 4.5625 8.738281 C 4.761719 8.542969 4.871094 8.277344 4.871094 8 C 4.871094 7.722656 4.761719 7.457031 4.5625 7.261719 C 4.367188 7.066406 4.101562 6.957031 3.824219 6.957031 Z M 6.609375 6.957031 C 6.332031 6.957031 6.066406 7.066406 5.871094 7.261719 C 5.675781 7.457031 5.566406 7.722656 5.566406 8 C 5.566406 8.277344 5.675781 8.542969 5.871094 8.738281 C 6.066406 8.933594 6.332031 9.042969 6.609375 9.042969 C 6.886719 9.042969 7.152344 8.933594 7.347656 8.738281 C 7.542969 8.542969 7.652344 8.277344 7.652344 8 C 7.652344 7.722656 7.542969 7.457031 7.347656 7.261719 C 7.152344 7.066406 6.886719 6.957031 6.609375 6.957031 Z M 9.390625 6.957031 C 9.113281 6.957031 8.851562 7.066406 8.652344 7.261719 C 8.457031 7.457031 8.347656 7.722656 8.347656 8 C 8.347656 8.277344 8.457031 8.542969 8.652344 8.738281 C 8.851562 8.933594 9.113281 9.042969 9.390625 9.042969 C 9.667969 9.042969 9.933594 8.933594 10.128906 8.738281 C 10.324219 8.542969 10.433594 8.277344 10.433594 8 C 10.433594 7.722656 10.324219 7.457031 10.128906 7.261719 C 9.933594 7.066406 9.667969 6.957031 9.390625 6.957031 Z M 12.175781 6.957031 C 11.898438 6.957031 11.632812 7.066406 11.4375 7.261719 C 11.238281 7.457031 11.128906 7.722656 11.128906 8 C 11.128906 8.277344 11.238281 8.542969 11.4375 8.738281 C 11.632812 8.933594 11.898438 9.042969 12.175781 9.042969 C 12.449219 9.042969 12.714844 8.933594 12.910156 8.738281 C 13.105469 8.542969 13.21875 8.277344 13.21875 8 C 13.21875 7.722656 13.105469 7.457031 12.910156 7.261719 C 12.714844 7.066406 12.449219 6.957031 12.175781 6.957031 Z M 14.957031 6.957031 C 14.679688 6.957031 14.414062 7.066406 14.21875 7.261719 C 14.023438 7.457031 13.914062 7.722656 13.914062 8 C 13.914062 8.277344 14.023438 8.542969 14.21875 8.738281 C 14.414062 8.933594 14.679688 9.042969 14.957031 9.042969 C 15.234375 9.042969 15.5 8.933594 15.695312 8.738281 C 15.890625 8.542969 16 8.277344 16 8 C 16 7.722656 15.890625 7.457031 15.695312 7.261719 C 15.5 7.066406 15.234375 6.957031 14.957031 6.957031 Z M 1.042969 9.738281 C 0.765625 9.738281 0.5 9.847656 0.304688 10.042969 C 0.109375 10.238281 0 10.507812 0 10.78125 C 0 11.058594 0.109375 11.324219 0.304688 11.519531 C 0.5 11.714844 0.765625 11.824219 1.042969 11.824219 C 1.320312 11.824219 1.585938 11.714844 1.78125 11.519531 C 1.976562 11.324219 2.085938 11.058594 2.085938 10.78125 C 2.085938 10.507812 1.976562 10.238281 1.78125 10.042969 C 1.585938 9.847656 1.320312 9.738281 1.042969 9.738281 Z M 3.824219 9.738281 C 3.550781 9.738281 3.285156 9.847656 3.089844 10.042969 C 2.894531 10.238281 2.78125 10.507812 2.78125 10.78125 C 2.78125 11.058594 2.894531 11.324219 3.089844 11.519531 C 3.285156 11.714844 3.550781 11.824219 3.824219 11.824219 C 4.101562 11.824219 4.367188 11.714844 4.5625 11.519531 C 4.761719 11.324219 4.871094 11.058594 4.871094 10.78125 C 4.871094 10.507812 4.761719 10.238281 4.5625 10.042969 C 4.367188 9.847656 4.101562 9.738281 3.824219 9.738281 Z M 12.175781 9.738281 C 11.898438 9.738281 11.632812 9.847656 11.4375 10.042969 C 11.238281 10.238281 11.128906 10.507812 11.128906 10.78125 C 11.128906 11.058594 11.238281 11.324219 11.4375 11.519531 C 11.632812 11.714844 11.898438 11.824219 12.175781 11.824219 C 12.449219 11.824219 12.714844 11.714844 12.910156 11.519531 C 13.105469 11.324219 13.21875 11.058594 13.21875 10.78125 C 13.21875 10.507812 13.105469 10.238281 12.910156 10.042969 C 12.714844 9.847656 12.449219 9.738281 12.175781 9.738281 Z M 14.957031 9.738281 C 14.679688 9.738281 14.414062 9.847656 14.21875 10.042969 C 14.023438 10.238281 13.914062 10.507812 13.914062 10.78125 C 13.914062 11.058594 14.023438 11.324219 14.21875 11.519531 C 14.414062 11.714844 14.679688 11.824219 14.957031 11.824219 C 15.234375 11.824219 15.5 11.714844 15.695312 11.519531 C 15.890625 11.324219 16 11.058594 16 10.78125 C 16 10.507812 15.890625 10.238281 15.695312 10.042969 C 15.5 9.847656 15.234375 9.738281 14.957031 9.738281 Z M 14.957031 9.738281 "/>
</g>
</svg>
