
<svg xmlns="http://www.w3.org/2000/svg" xmlns:xlink="http://www.w3.org/1999/xlink" width="16px" height="16px" viewBox="0 0 16 16" version="1.1">
<g id="surface1">
<path style=" stroke:none;fill-rule:nonzero;fill:#ff6666;fill-opacity:1;" d="M 8 0 C 6.898438 0 5.855469 0.320312 5.855469 0.320312 L 5.5 0.429688 L 5.5 2.109375 C 4.46875 2.292969 3.464844 2.589844 2.503906 3 L 2.5 4 L 1.5 4 L 1.5 5 L 2.5 5 L 2.503906 14 C 2.503906 14.4375 2.542969 14.789062 2.652344 15.082031 C 2.765625 15.375 2.964844 15.609375 3.21875 15.75 C 3.71875 16.027344 4.335938 16 5.171875 16 L 10.835938 16 C 11.667969 16 12.285156 16.027344 12.785156 15.75 C 13.039062 15.609375 13.238281 15.375 13.347656 15.082031 C 13.457031 14.789062 13.5 14.4375 13.5 14 L 13.496094 6 L 12.496094 6 L 12.5 14 C 12.5 14.375 12.460938 14.601562 12.410156 14.726562 C 12.378906 14.816406 12.335938 14.855469 12.300781 14.875 C 12.128906 14.972656 11.691406 15 10.835938 15 L 5.171875 15 C 4.3125 15 3.875 14.972656 3.699219 14.875 C 3.648438 14.839844 3.605469 14.789062 3.589844 14.726562 C 3.542969 14.605469 3.503906 14.378906 3.503906 14 L 3.503906 13.996094 L 3.5 5 L 14.5 5 L 14.5 4 L 13.496094 4 L 13.5 3 C 12.535156 2.589844 11.53125 2.292969 10.5 2.109375 L 10.5 0.449219 L 10.171875 0.332031 C 10.171875 0.332031 9.257812 0 8 0 Z M 8 1 C 8.890625 1 9.289062 1.15625 9.5 1.21875 L 9.5 1.957031 C 9.003906 1.902344 8.503906 1.875 8.003906 1.875 C 7.5 1.875 7 1.90625 6.5 1.960938 L 6.5 1.226562 C 6.765625 1.15625 7.273438 1 8 1 Z M 5.5 6 L 5.5 12 L 6.5 12 L 6.5 6 Z M 7.5 6 L 7.5 12 L 8.5 12 L 8.5 6 Z M 9.5 6 L 9.5 12 L 10.5 12 L 10.5 6 Z M 9.5 6 "/>
</g>
</svg>
