
<svg xmlns="http://www.w3.org/2000/svg" xmlns:xlink="http://www.w3.org/1999/xlink" width="16px" height="16px" viewBox="0 0 16 16" version="1.1">
<g id="surface1">
<path style=" stroke:none;fill-rule:evenodd;fill:#ff6666;fill-opacity:1;" d="M 0.667969 1.667969 C 0.667969 1.113281 1.113281 0.667969 1.667969 0.667969 L 7.667969 0.667969 L 7.667969 2.285156 C 7.453125 2.207031 7.226562 2.167969 7 2.167969 C 6.398438 2.167969 5.835938 2.433594 5.453125 2.898438 C 5.070312 3.367188 4.917969 3.980469 5.039062 4.574219 C 5.191406 5.328125 5.800781 5.949219 6.558594 6.117188 C 6.925781 6.199219 7.3125 6.179688 7.667969 6.050781 L 7.667969 7.667969 L 4.824219 7.667969 L 5.226562 8.199219 C 5.40625 8.4375 5.5 8.714844 5.5 9 C 5.5 9.402344 5.320312 9.777344 5.011719 10.03125 C 4.695312 10.289062 4.300781 10.386719 3.890625 10.304688 C 3.390625 10.207031 2.976562 9.800781 2.867188 9.296875 C 2.777344 8.914062 2.867188 8.511719 3.105469 8.199219 L 3.511719 7.667969 L 0.667969 7.667969 Z M 7.667969 15.332031 L 1.667969 15.332031 C 1.113281 15.332031 0.667969 14.886719 0.667969 14.332031 L 0.667969 8.332031 L 2.28125 8.332031 C 2.15625 8.6875 2.132812 9.074219 2.214844 9.441406 C 2.382812 10.199219 3.003906 10.808594 3.761719 10.960938 C 3.894531 10.984375 4.03125 11 4.164062 11 C 4.628906 11 5.074219 10.839844 5.433594 10.546875 C 5.898438 10.167969 6.167969 9.597656 6.167969 9 C 6.167969 8.769531 6.128906 8.546875 6.050781 8.332031 L 7.667969 8.332031 L 7.667969 11.175781 L 8.199219 10.773438 C 8.511719 10.535156 8.914062 10.445312 9.296875 10.53125 C 9.800781 10.644531 10.207031 11.054688 10.304688 11.558594 C 10.386719 11.964844 10.289062 12.363281 10.03125 12.679688 C 9.59375 13.210938 8.769531 13.324219 8.199219 12.894531 L 7.667969 12.488281 Z M 13.714844 7.667969 C 13.792969 7.453125 13.832031 7.226562 13.832031 7 C 13.832031 6.398438 13.566406 5.835938 13.101562 5.453125 C 12.636719 5.070312 12.027344 4.921875 11.425781 5.039062 C 10.671875 5.191406 10.050781 5.800781 9.882812 6.558594 C 9.800781 6.925781 9.820312 7.3125 9.949219 7.667969 L 8.332031 7.667969 L 8.332031 4.824219 L 7.800781 5.226562 C 7.488281 5.464844 7.085938 5.554688 6.703125 5.46875 C 6.199219 5.355469 5.792969 4.945312 5.695312 4.441406 C 5.613281 4.035156 5.710938 3.636719 5.96875 3.320312 C 6.40625 2.789062 7.230469 2.675781 7.800781 3.105469 L 8.332031 3.511719 L 8.332031 0.667969 L 14.332031 0.667969 C 14.886719 0.667969 15.332031 1.113281 15.332031 1.667969 L 15.332031 7.667969 Z M 14.332031 0 L 1.667969 0 C 0.746094 0 0 0.746094 0 1.667969 L 0 14.332031 C 0 15.253906 0.746094 16 1.667969 16 L 14.332031 16 C 15.253906 16 16 15.253906 16 14.332031 L 16 1.667969 C 16 0.746094 15.253906 0 14.332031 0 Z M 14.332031 0 "/>
</g>
</svg>
