
<svg xmlns="http://www.w3.org/2000/svg" xmlns:xlink="http://www.w3.org/1999/xlink" width="16px" height="16px" viewBox="0 0 16 16" version="1.1">
<g id="surface1">
<path style=" stroke:none;fill-rule:evenodd;fill:#ff6666;fill-opacity:1;" d="M 8.367188 4.242188 C 8.273438 4.242188 8.171875 4.25 8.109375 4.261719 C 7.742188 4.324219 7.445312 4.460938 7.292969 4.644531 C 7.171875 4.789062 7.136719 4.972656 7.199219 5.148438 C 7.207031 5.171875 7.210938 5.195312 7.207031 5.199219 C 7.203125 5.203125 6.839844 5.242188 6.402344 5.285156 C 6.046875 5.324219 5.851562 5.351562 5.746094 5.367188 C 5.734375 5.367188 5.664062 5.375 5.65625 5.375 C 5.652344 5.378906 5.597656 5.382812 5.597656 5.382812 C 5.597656 5.382812 5.605469 5.398438 5.605469 5.402344 C 5.605469 5.40625 5.601562 5.410156 5.605469 5.410156 C 5.609375 5.441406 5.621094 5.511719 5.664062 5.652344 C 5.734375 5.898438 5.746094 5.949219 5.738281 5.949219 C 5.734375 5.949219 5.699219 5.921875 5.65625 5.894531 C 5.492188 5.777344 5.34375 5.71875 5.183594 5.710938 C 5.007812 5.703125 4.894531 5.753906 4.769531 5.875 C 4.765625 5.878906 4.761719 5.878906 4.761719 5.878906 C 4.695312 5.941406 4.671875 5.972656 4.632812 6.058594 C 4.570312 6.179688 4.539062 6.289062 4.53125 6.4375 C 4.523438 6.609375 4.5625 6.824219 4.621094 6.964844 L 4.640625 7.015625 L 4.726562 7.015625 C 4.945312 7.015625 5.117188 6.734375 5.296875 6.648438 C 5.425781 6.617188 5.65625 6.617188 5.816406 6.648438 C 6.382812 6.761719 6.808594 7.148438 6.789062 7.53125 C 6.78125 7.636719 6.746094 7.703125 6.65625 7.792969 C 6.578125 7.871094 6.480469 7.9375 6.308594 8.03125 C 6.25 8.0625 6.148438 8.121094 6.085938 8.15625 C 6.023438 8.1875 5.9375 8.242188 5.890625 8.273438 C 5.800781 8.332031 5.6875 8.433594 5.6875 8.457031 C 5.6875 8.476562 5.742188 8.476562 5.984375 8.449219 C 6.085938 8.441406 6.171875 8.425781 6.261719 8.410156 C 6.691406 8.351562 6.976562 8.265625 7.203125 8.121094 C 7.414062 7.980469 7.578125 7.761719 7.636719 7.527344 C 7.648438 7.488281 7.65625 7.464844 7.660156 7.464844 C 7.667969 7.464844 7.707031 7.484375 7.746094 7.507812 C 8 7.664062 8.207031 7.722656 8.382812 7.6875 C 8.539062 7.652344 8.6875 7.558594 8.964844 7.320312 C 9.039062 7.257812 9.101562 7.203125 9.109375 7.203125 C 9.113281 7.203125 9.171875 7.328125 9.234375 7.476562 C 9.300781 7.628906 9.359375 7.761719 9.367188 7.769531 C 9.382812 7.785156 9.394531 7.789062 9.632812 7.75 C 9.765625 7.726562 9.878906 7.699219 9.882812 7.695312 C 9.894531 7.683594 9.84375 7.511719 9.800781 7.398438 C 9.722656 7.222656 9.59375 7.0625 9.4375 6.960938 C 9.34375 6.898438 9.203125 6.835938 8.980469 6.746094 C 8.734375 6.652344 8.605469 6.59375 8.492188 6.515625 C 8.375 6.4375 8.265625 6.335938 8.277344 6.324219 C 8.285156 6.320312 8.324219 6.304688 8.367188 6.289062 C 8.714844 6.167969 8.953125 5.941406 9.109375 5.574219 C 9.171875 5.421875 9.222656 5.230469 9.308594 4.847656 C 9.347656 4.675781 9.398438 4.480469 9.417969 4.414062 C 9.4375 4.347656 9.449219 4.289062 9.449219 4.28125 C 9.449219 4.28125 9.4375 4.285156 9.433594 4.285156 C 9.398438 4.292969 9.203125 4.382812 8.71875 4.625 C 8.320312 4.824219 7.988281 4.988281 7.984375 4.984375 C 7.976562 4.984375 8.105469 4.867188 8.265625 4.730469 C 8.421875 4.589844 8.566406 4.464844 8.578125 4.453125 C 8.589844 4.445312 8.585938 4.4375 8.589844 4.429688 C 8.59375 4.414062 8.597656 4.394531 8.597656 4.351562 C 8.597656 4.265625 8.597656 4.261719 8.570312 4.25 C 8.546875 4.242188 8.464844 4.238281 8.367188 4.242188 Z M 11.925781 1.09375 C 11.816406 1.101562 11.71875 1.15625 11.628906 1.261719 C 11.53125 1.378906 11.480469 1.539062 11.496094 1.679688 C 11.519531 1.890625 11.578125 2.0625 11.832031 2.5625 C 11.972656 2.839844 12.015625 2.949219 12.0625 3.171875 C 12.132812 3.480469 12.15625 3.757812 12.15625 4.117188 C 12.15625 4.449219 12.136719 4.695312 12.085938 5.011719 C 12.035156 5.289062 11.957031 5.625 11.941406 5.617188 C 11.914062 5.609375 11.886719 5.351562 11.863281 4.972656 C 11.835938 4.527344 11.8125 4.347656 11.773438 4.171875 C 11.667969 3.703125 11.4375 3.507812 11.058594 3.566406 C 10.949219 3.582031 10.777344 3.632812 10.761719 3.652344 C 10.753906 3.660156 10.792969 3.796875 10.898438 4.101562 C 10.984375 4.34375 11.050781 4.542969 11.050781 4.546875 C 11.050781 4.5625 10.992188 4.582031 10.976562 4.570312 C 10.972656 4.566406 10.910156 4.480469 10.84375 4.382812 C 10.703125 4.183594 10.632812 4.082031 10.539062 3.96875 C 10.28125 3.664062 10.003906 3.519531 9.714844 3.535156 C 9.609375 3.542969 9.449219 3.574219 9.425781 3.601562 C 9.40625 3.617188 9.410156 3.644531 9.769531 4.953125 L 10.140625 6.289062 L 10.054688 7.109375 C 10.011719 7.558594 9.964844 7.941406 9.960938 7.953125 C 9.953125 7.972656 9.953125 7.976562 9.804688 7.976562 C 9.71875 7.976562 9.550781 7.972656 9.429688 7.960938 C 9.160156 7.941406 8.820312 7.941406 8.707031 7.957031 C 8.589844 7.972656 8.421875 8.015625 8.265625 8.070312 C 7.769531 8.238281 7.335938 8.539062 6.976562 8.96875 C 6.644531 9.363281 6.359375 9.867188 6.082031 10.5625 C 6 10.769531 5.820312 11.269531 5.777344 11.40625 C 5.671875 11.742188 5.613281 12.097656 5.605469 12.484375 C 5.59375 12.824219 5.621094 13.109375 5.691406 13.394531 C 5.777344 13.734375 5.902344 13.992188 6.074219 14.214844 C 6.113281 14.269531 6.160156 14.3125 6.207031 14.363281 C 6.207031 14.363281 6.210938 14.367188 6.210938 14.367188 C 6.210938 14.367188 6.214844 14.371094 6.214844 14.371094 C 6.21875 14.375 6.214844 14.375 6.214844 14.378906 C 6.4375 14.601562 6.679688 14.730469 6.984375 14.792969 C 7.203125 14.835938 7.589844 14.84375 7.589844 14.800781 C 7.589844 14.796875 7.519531 14.597656 7.441406 14.363281 C 7.359375 14.128906 7.292969 13.933594 7.292969 13.929688 C 7.292969 13.917969 7.332031 13.894531 7.351562 13.894531 C 7.355469 13.894531 7.40625 13.964844 7.464844 14.050781 C 7.695312 14.402344 7.871094 14.601562 8.070312 14.738281 C 8.191406 14.820312 8.347656 14.882812 8.472656 14.902344 C 8.546875 14.914062 8.730469 14.910156 8.808594 14.894531 C 8.898438 14.875 8.992188 14.84375 9.003906 14.832031 L 8.410156 13.859375 C 8.800781 14.160156 9.308594 14.453125 9.671875 14.554688 C 10.121094 14.683594 10.546875 14.621094 10.871094 14.378906 C 10.972656 14.300781 11.078125 14.195312 11.070312 14.179688 C 11.070312 14.171875 10.695312 14.015625 10.238281 13.824219 C 9.78125 13.636719 9.40625 13.476562 9.402344 13.46875 C 9.398438 13.453125 9.757812 13.472656 10.148438 13.515625 C 10.273438 13.527344 10.476562 13.550781 10.601562 13.5625 C 11.007812 13.605469 11.097656 13.613281 11.371094 13.613281 C 11.667969 13.613281 11.796875 13.601562 12.019531 13.554688 C 12.367188 13.480469 12.738281 13.304688 13.046875 13.074219 C 13.171875 12.980469 13.230469 12.925781 13.222656 12.910156 C 13.21875 12.90625 12.730469 12.90625 11.78125 12.910156 C 10.808594 12.917969 10.363281 12.914062 10.347656 12.90625 C 10.34375 12.90625 10.339844 12.90625 10.335938 12.90625 C 10.332031 12.898438 10.433594 12.613281 10.449219 12.597656 C 10.453125 12.589844 10.492188 12.601562 10.527344 12.625 C 11.1875 13.015625 12.601562 12.914062 13.628906 12.402344 C 13.921875 12.257812 14.117188 12.117188 14.308594 11.925781 C 14.539062 11.695312 14.675781 11.441406 14.695312 11.199219 C 14.699219 11.128906 14.695312 11.125 14.679688 11.125 C 14.65625 11.125 14.300781 11.222656 14.105469 11.28125 C 14.035156 11.304688 13.855469 11.363281 13.703125 11.410156 C 12.707031 11.726562 12.292969 11.8125 11.753906 11.820312 C 11.445312 11.828125 11.167969 11.808594 11.175781 11.78125 C 11.1875 11.753906 11.605469 11.605469 11.890625 11.535156 C 12.136719 11.472656 12.261719 11.445312 12.828125 11.332031 C 13.664062 11.164062 13.96875 11.085938 14.339844 10.9375 C 15.117188 10.628906 15.5625 10.121094 15.699219 9.382812 C 15.738281 9.191406 15.757812 8.855469 15.734375 8.855469 C 15.730469 8.855469 15.328125 9.082031 14.84375 9.355469 C 14.355469 9.625 13.949219 9.847656 13.945312 9.84375 C 13.929688 9.835938 13.871094 9.707031 13.878906 9.699219 C 13.882812 9.695312 13.945312 9.660156 14.023438 9.621094 C 14.398438 9.417969 14.679688 9.207031 14.988281 8.898438 C 15.566406 8.324219 15.90625 7.660156 15.988281 6.949219 C 16.007812 6.757812 16.003906 6.410156 15.972656 6.234375 C 15.9375 6.027344 15.855469 5.71875 15.828125 5.710938 C 15.824219 5.710938 15.476562 6.214844 15.058594 6.828125 C 14.183594 8.121094 14.140625 8.1875 14.132812 8.179688 C 14.117188 8.164062 14.324219 7.796875 14.675781 7.210938 C 14.824219 6.960938 14.988281 6.6875 15.035156 6.605469 C 15.148438 6.402344 15.304688 6.070312 15.363281 5.914062 C 15.578125 5.363281 15.605469 4.894531 15.460938 4.449219 C 15.414062 4.320312 15.3125 4.105469 15.230469 3.984375 C 15.152344 3.863281 15.03125 3.710938 15.019531 3.714844 C 15.015625 3.714844 14.773438 4.28125 14.488281 4.972656 L 13.964844 6.226562 L 13.238281 7.464844 C 12.511719 8.703125 12.480469 8.765625 12.472656 8.757812 C 12.46875 8.75 12.535156 8.566406 12.601562 8.394531 C 12.773438 7.976562 12.945312 7.640625 13.425781 6.816406 C 13.730469 6.292969 13.871094 6.046875 13.992188 5.800781 C 14.378906 5.035156 14.566406 4.421875 14.609375 3.746094 C 14.621094 3.609375 14.621094 3.546875 14.609375 3.457031 C 14.5625 2.992188 14.398438 2.414062 14.226562 2.089844 C 14.125 1.902344 13.996094 1.75 13.878906 1.695312 C 13.828125 1.667969 13.8125 1.664062 13.726562 1.664062 C 13.640625 1.664062 13.625 1.667969 13.558594 1.699219 C 13.398438 1.773438 13.351562 1.894531 13.351562 2.199219 C 13.351562 2.359375 13.363281 2.488281 13.414062 2.855469 L 13.449219 3.109375 L 13.445312 3.402344 C 13.441406 3.691406 13.4375 3.785156 13.40625 4.054688 C 13.339844 4.648438 13.179688 5.328125 12.941406 6.050781 C 12.851562 6.324219 12.71875 6.703125 12.707031 6.726562 C 12.671875 6.78125 12.757812 6.390625 12.929688 5.6875 C 13.210938 4.53125 13.277344 4.121094 13.289062 3.539062 C 13.296875 3.136719 13.269531 2.859375 13.195312 2.535156 C 13.148438 2.339844 13.132812 2.285156 13.066406 2.152344 C 12.882812 1.777344 12.558594 1.382812 12.296875 1.210938 C 12.160156 1.121094 12.035156 1.085938 11.925781 1.09375 Z M 6.648438 7.285156 C 6.242188 7.335938 5.839844 7.433594 5.449219 7.570312 C 5.046875 7.71875 4.644531 7.910156 4.347656 8.226562 C 4.324219 8.265625 4.214844 8.347656 4.257812 8.371094 C 4.695312 8.253906 5.308594 8.078125 5.722656 7.964844 C 5.835938 7.929688 5.921875 7.90625 6.019531 7.878906 C 6.199219 7.828125 6.378906 7.777344 6.558594 7.726562 L 6.683594 7.6875 C 6.726562 7.640625 6.703125 7.496094 6.707031 7.414062 C 6.695312 7.371094 6.730469 7.257812 6.648438 7.285156 Z M 2.277344 7.453125 C 2.160156 7.460938 2.007812 7.496094 1.910156 7.542969 C 1.640625 7.671875 1.480469 7.90625 1.402344 8.277344 C 1.359375 8.496094 1.351562 8.613281 1.351562 9.191406 C 1.347656 9.492188 1.34375 9.738281 1.339844 9.742188 C 1.335938 9.746094 1.320312 9.738281 1.304688 9.71875 C 1.242188 9.648438 1.164062 9.519531 1.054688 9.300781 C 1.011719 9.21875 0.980469 9.164062 0.945312 9.101562 C 0.925781 9.070312 0.902344 9.007812 0.890625 8.992188 C 0.832031 8.902344 0.71875 8.785156 0.644531 8.738281 C 0.578125 8.695312 0.480469 8.65625 0.417969 8.65625 C 0.230469 8.65625 0.0625 8.832031 0.0117188 9.078125 C -0.0351562 9.316406 0.0585938 9.511719 0.253906 9.585938 C 0.285156 9.597656 0.335938 9.605469 0.433594 9.605469 C 0.503906 9.605469 0.570312 9.609375 0.574219 9.613281 C 0.578125 9.621094 0.59375 9.660156 0.609375 9.703125 C 0.652344 9.832031 0.757812 10.039062 0.921875 10.3125 C 1.089844 10.597656 1.199219 10.804688 1.246094 10.933594 C 1.296875 11.070312 1.53125 11.972656 1.5625 12.152344 C 1.589844 12.308594 1.597656 12.449219 1.582031 12.523438 C 1.574219 12.554688 1.546875 12.648438 1.511719 12.722656 C 1.425781 12.9375 1.417969 13.015625 1.476562 13.183594 C 1.597656 13.515625 1.808594 13.742188 2.113281 13.867188 C 2.191406 13.902344 2.203125 13.902344 2.222656 13.859375 C 2.265625 13.761719 2.316406 13.546875 2.335938 13.402344 C 2.367188 13.160156 2.34375 12.988281 2.21875 12.429688 C 2.160156 12.171875 2.113281 11.855469 2.136719 11.855469 C 2.140625 11.855469 2.179688 11.882812 2.21875 11.914062 C 2.257812 11.949219 2.394531 12.054688 2.519531 12.152344 C 2.847656 12.402344 2.886719 12.433594 3.261719 12.804688 C 3.402344 12.941406 3.503906 13.035156 3.589844 13.113281 C 3.765625 13.269531 3.867188 13.335938 4.015625 13.386719 C 4.09375 13.414062 4.125 13.421875 4.191406 13.421875 C 4.355469 13.421875 4.429688 13.351562 4.4375 13.191406 C 4.445312 13.082031 4.410156 12.953125 4.320312 12.769531 C 4.230469 12.589844 4.160156 12.496094 4.023438 12.363281 C 3.863281 12.210938 3.71875 12.101562 3.238281 11.796875 C 2.835938 11.535156 2.652344 11.402344 2.496094 11.242188 C 2.285156 11.035156 2.199219 10.863281 2.1875 10.636719 C 2.179688 10.449219 2.226562 10.332031 2.347656 10.210938 C 2.46875 10.089844 2.605469 10.019531 3.003906 9.882812 C 3.421875 9.734375 3.578125 9.644531 3.648438 9.503906 C 3.675781 9.453125 3.675781 9.4375 3.675781 9.355469 C 3.675781 9.273438 3.675781 9.253906 3.65625 9.214844 C 3.5625 9.039062 3.285156 8.9375 2.839844 8.910156 L 2.726562 8.90625 L 2.347656 9.285156 C 2.136719 9.492188 1.964844 9.65625 1.960938 9.65625 C 1.960938 9.652344 2.050781 9.164062 2.164062 8.570312 C 2.277344 7.972656 2.375 7.480469 2.375 7.46875 C 2.375 7.453125 2.367188 7.449219 2.277344 7.453125 Z M 4.929688 11.351562 C 4.910156 11.351562 4.820312 11.441406 4.78125 11.503906 C 4.664062 11.675781 4.574219 11.933594 4.519531 12.246094 C 4.5 12.355469 4.5 12.410156 4.496094 12.648438 C 4.496094 12.957031 4.503906 13.023438 4.5625 13.199219 C 4.625 13.390625 4.730469 13.515625 4.859375 13.5625 C 4.878906 13.570312 4.914062 13.578125 4.941406 13.578125 C 5.101562 13.578125 5.25 13.402344 5.316406 13.132812 C 5.375 12.90625 5.332031 12.714844 5.121094 12.265625 C 4.984375 11.980469 4.949219 11.867188 4.929688 11.691406 C 4.917969 11.609375 4.917969 11.527344 4.933594 11.402344 C 4.9375 11.367188 4.933594 11.351562 4.929688 11.351562 Z M 4.929688 11.351562 "/>
</g>
</svg>
