
<svg xmlns="http://www.w3.org/2000/svg" xmlns:xlink="http://www.w3.org/1999/xlink" width="16px" height="16px" viewBox="0 0 16 16" version="1.1">
<g id="surface1">
<path style=" stroke:none;fill-rule:nonzero;fill:#ff6666;fill-opacity:1;" d="M 5.164062 0 C 4.324219 0.0117188 3.710938 -0.0195312 3.207031 0.257812 C 2.957031 0.394531 2.757812 0.628906 2.648438 0.921875 C 2.539062 1.214844 2.5 1.5625 2.5 2 L 2.5 14 C 2.5 14.4375 2.539062 14.785156 2.648438 15.078125 C 2.757812 15.371094 2.957031 15.605469 3.207031 15.742188 C 3.710938 16.019531 4.324219 15.992188 5.164062 16 L 10.839844 16 C 11.675781 15.988281 12.289062 16.019531 12.792969 15.742188 C 13.042969 15.605469 13.242188 15.371094 13.351562 15.078125 C 13.460938 14.785156 13.5 14.4375 13.5 14 L 13.5 2 C 13.5 1.5625 13.460938 1.214844 13.351562 0.921875 C 13.242188 0.628906 13.042969 0.394531 12.792969 0.257812 C 12.289062 -0.0195312 11.675781 0.0078125 10.835938 0 Z M 7.5 1.300781 L 11.738281 5.542969 L 8.800781 8.011719 L 11.738281 10.480469 L 7.5 14.71875 L 7.5 9.105469 L 5.074219 11.144531 L 4.425781 10.375 L 7.246094 8.011719 L 4.425781 5.644531 L 5.074219 4.875 L 7.5 6.917969 Z M 8.5 3.71875 L 8.5 6.957031 L 10.261719 5.476562 Z M 8.5 9.0625 L 8.5 12.300781 L 10.261719 10.542969 Z M 8.5 9.0625 "/>
</g>
</svg>
