
<svg xmlns="http://www.w3.org/2000/svg" xmlns:xlink="http://www.w3.org/1999/xlink" width="16px" height="16px" viewBox="0 0 16 16" version="1.1">
<g id="surface1">
<path style=" stroke:none;fill-rule:evenodd;fill:#ff6666;fill-opacity:1;" d="M 5.414062 7.9375 C 5.414062 6.460938 6.613281 5.265625 8.085938 5.265625 C 9.558594 5.265625 10.757812 6.460938 10.757812 7.9375 C 10.757812 9.410156 9.558594 10.605469 8.085938 10.605469 C 6.613281 10.605469 5.414062 9.410156 5.414062 7.9375 Z M 13.609375 0.382812 L 12.253906 2.71875 L 11.230469 4.488281 C 12.203125 5.371094 12.757812 6.621094 12.757812 7.9375 C 12.757812 8.414062 12.683594 8.894531 12.539062 9.351562 L 14.300781 10.367188 C 14.605469 9.59375 14.761719 8.769531 14.761719 7.9375 C 14.761719 6.636719 14.378906 5.363281 13.664062 4.277344 L 15.425781 1.261719 C 14.976562 0.746094 14.347656 0.519531 13.609375 0.382812 Z M 1.429688 0.621094 C 1.050781 0.800781 0.410156 1.074219 0 2.101562 L 2.867188 3.769531 L 4.636719 4.789062 C 5.519531 3.820312 6.773438 3.265625 8.085938 3.261719 C 8.566406 3.261719 9.042969 3.335938 9.5 3.484375 L 10.519531 1.71875 C 9.742188 1.414062 8.917969 1.257812 8.085938 1.257812 C 6.785156 1.261719 5.515625 1.640625 4.429688 2.355469 Z M 1.867188 5.503906 C 1.566406 6.277344 1.410156 7.101562 1.410156 7.9375 C 1.410156 9.234375 1.792969 10.507812 2.507812 11.59375 L 1.058594 14.097656 L 0.617188 14.832031 C 1.148438 15.304688 1.777344 15.566406 2.507812 15.617188 L 3.917969 13.152344 L 4.9375 11.382812 C 3.96875 10.5 3.414062 9.25 3.410156 7.9375 C 3.410156 7.457031 3.488281 6.976562 3.632812 6.519531 Z M 11.53125 11.082031 C 10.648438 12.054688 9.398438 12.605469 8.085938 12.609375 C 7.605469 12.609375 7.128906 12.535156 6.671875 12.390625 L 5.652344 14.152344 C 6.429688 14.457031 7.253906 14.613281 8.085938 14.613281 C 9.386719 14.609375 10.65625 14.230469 11.742188 13.515625 L 14.734375 15.246094 C 15.296875 14.921875 15.695312 14.5625 16 13.660156 L 13.300781 12.105469 Z M 11.53125 11.082031 "/>
</g>
</svg>
