
<svg xmlns="http://www.w3.org/2000/svg" xmlns:xlink="http://www.w3.org/1999/xlink" width="16px" height="16px" viewBox="0 0 16 16" version="1.1">
<g id="surface1">
<path style=" stroke:none;fill-rule:nonzero;fill:#ff6666;fill-opacity:1;" d="M 8 0 C 8 0 4.363281 1.453125 4.363281 4.363281 L 4.363281 8.726562 L 2.183594 10.910156 L 2.183594 12.363281 L 13.816406 12.363281 L 13.816406 10.910156 L 11.636719 8.726562 L 11.636719 4.363281 C 11.636719 1.453125 8 0 8 0 Z M 8 3.636719 C 8.804688 3.636719 9.453125 4.289062 9.453125 5.089844 C 9.453125 5.894531 8.804688 6.546875 8 6.546875 C 7.195312 6.546875 6.546875 5.894531 6.546875 5.089844 C 6.546875 4.289062 7.195312 3.636719 8 3.636719 Z M 5.816406 13.816406 C 5.816406 15.273438 8 16 8 16 C 8 16 10.183594 15.273438 10.183594 13.816406 L 8.917969 13.816406 C 8.503906 14.347656 8 14.640625 8 14.640625 C 8 14.640625 7.496094 14.347656 7.082031 13.816406 Z M 5.816406 13.816406 "/>
</g>
</svg>
