
<svg xmlns="http://www.w3.org/2000/svg" xmlns:xlink="http://www.w3.org/1999/xlink" width="16px" height="16px" viewBox="0 0 16 16" version="1.1">
<g id="surface1">
<path style=" stroke:none;fill-rule:nonzero;fill:#ff6666;fill-opacity:1;" d="M 12.039062 14.664062 C 11.96875 14.664062 11.894531 14.644531 11.824219 14.617188 L 7.996094 12.605469 L 4.167969 14.617188 C 4.015625 14.691406 3.832031 14.679688 3.691406 14.582031 C 3.546875 14.480469 3.484375 14.308594 3.507812 14.144531 L 4.238281 9.878906 L 1.132812 6.855469 C 1.011719 6.730469 0.96875 6.558594 1.023438 6.394531 C 1.070312 6.230469 1.214844 6.109375 1.390625 6.089844 L 5.675781 5.46875 L 7.59375 1.589844 C 7.675781 1.4375 7.828125 1.335938 8 1.335938 C 8.175781 1.335938 8.324219 1.425781 8.410156 1.589844 L 10.328125 5.46875 L 14.613281 6.089844 C 14.785156 6.109375 14.917969 6.234375 14.980469 6.394531 C 15.027344 6.558594 14.988281 6.738281 14.867188 6.855469 L 11.742188 9.863281 L 12.476562 14.128906 C 12.503906 14.304688 12.433594 14.46875 12.289062 14.570312 C 12.234375 14.632812 12.144531 14.664062 12.039062 14.664062 Z M 8 11.632812 C 8.070312 11.632812 8.144531 11.652344 8.214844 11.679688 L 11.449219 13.371094 L 10.839844 9.777344 C 10.816406 9.632812 10.859375 9.480469 10.96875 9.378906 L 13.585938 6.828125 L 9.96875 6.308594 C 9.824219 6.285156 9.691406 6.195312 9.632812 6.066406 L 8.019531 2.789062 L 6.402344 6.066406 C 6.34375 6.195312 6.210938 6.289062 6.066406 6.308594 L 2.453125 6.828125 L 5.066406 9.378906 C 5.167969 9.480469 5.21875 9.632812 5.199219 9.777344 L 4.585938 13.371094 L 7.820312 11.679688 C 7.855469 11.652344 7.925781 11.632812 8 11.632812 Z M 6.84375 6.449219 C 6.816406 6.449219 6.773438 6.441406 6.742188 6.425781 C 6.679688 6.398438 6.628906 6.355469 6.609375 6.296875 C 6.589844 6.234375 6.589844 6.164062 6.609375 6.101562 L 7.640625 3.722656 C 7.679688 3.632812 7.769531 3.570312 7.863281 3.570312 C 7.894531 3.570312 7.933594 3.578125 7.96875 3.589844 C 8.03125 3.621094 8.070312 3.660156 8.101562 3.722656 C 8.121094 3.785156 8.121094 3.855469 8.101562 3.914062 L 7.070312 6.296875 C 7.042969 6.386719 6.945312 6.449219 6.84375 6.449219 Z M 5.703125 6.972656 C 5.578125 6.972656 5.476562 6.878906 5.460938 6.757812 C 5.453125 6.695312 5.46875 6.625 5.511719 6.570312 C 5.550781 6.519531 5.613281 6.488281 5.675781 6.480469 L 6.019531 6.441406 L 6.050781 6.441406 C 6.171875 6.441406 6.277344 6.53125 6.292969 6.652344 C 6.300781 6.714844 6.285156 6.785156 6.242188 6.839844 C 6.203125 6.886719 6.140625 6.921875 6.078125 6.929688 L 5.734375 6.972656 Z M 3.335938 7.285156 C 3.214844 7.285156 3.109375 7.191406 3.09375 7.070312 C 3.085938 7.007812 3.101562 6.9375 3.144531 6.882812 C 3.183594 6.835938 3.246094 6.800781 3.308594 6.792969 L 5.183594 6.550781 L 5.214844 6.550781 C 5.339844 6.550781 5.441406 6.640625 5.457031 6.765625 C 5.476562 6.898438 5.375 7.019531 5.242188 7.039062 L 3.367188 7.285156 Z M 3.335938 7.285156 "/>
</g>
</svg>
