
<svg xmlns="http://www.w3.org/2000/svg" xmlns:xlink="http://www.w3.org/1999/xlink" width="16px" height="16px" viewBox="0 0 16 16" version="1.1">
<g id="surface1">
<path style=" stroke:none;fill-rule:nonzero;fill:#ff6666;fill-opacity:1;" d="M 7.625 0.617188 C 7.453125 0.621094 7.292969 0.699219 7.183594 0.828125 L 0.792969 7.953125 C 0.660156 8.105469 0.332031 8.660156 0.175781 9.382812 C 0.0546875 9.722656 -0.00390625 10.082031 0 10.441406 C 0 12.359375 1.601562 13.125 1.601562 13.125 C 1.628906 13.140625 1.652344 13.152344 1.679688 13.164062 L 9.09375 15.367188 C 9.335938 15.433594 9.59375 15.351562 9.75 15.152344 L 15.792969 7.875 C 15.941406 7.691406 15.972656 7.433594 15.867188 7.21875 C 15.867188 7.21875 15.636719 6.679688 15.890625 6.058594 C 15.972656 5.855469 15.941406 5.621094 15.804688 5.445312 C 15.671875 5.269531 15.453125 5.179688 15.230469 5.210938 C 15.015625 5.246094 14.828125 5.390625 14.75 5.597656 C 14.433594 6.371094 14.523438 6.960938 14.632812 7.335938 L 9.054688 14.054688 L 2.066406 11.988281 L 2.027344 11.96875 C 1.910156 11.925781 1.234375 11.621094 1.234375 10.441406 C 1.234375 9.980469 1.335938 9.734375 1.429688 9.59375 C 1.503906 9.472656 1.621094 9.382812 1.757812 9.34375 C 1.890625 9.300781 2.046875 9.300781 2.160156 9.304688 L 2.183594 9.304688 L 8.628906 11.15625 C 8.882812 11.21875 9.144531 11.128906 9.304688 10.925781 L 15.847656 3.378906 C 15.992188 3.203125 16.039062 2.972656 15.964844 2.757812 C 15.890625 2.542969 15.707031 2.382812 15.480469 2.335938 L 7.800781 0.617188 C 7.742188 0.605469 7.683594 0.613281 7.628906 0.617188 Z M 7.453125 3.066406 C 7.519531 3.066406 7.582031 3.074219 7.644531 3.085938 L 12.238281 4.207031 C 12.492188 4.265625 12.585938 4.433594 12.453125 4.59375 L 11.949219 5.191406 C 11.8125 5.351562 11.488281 5.425781 11.234375 5.363281 L 6.660156 4.246094 C 6.40625 4.1875 6.3125 4 6.449219 3.839844 L 6.933594 3.261719 C 7.03125 3.140625 7.25 3.074219 7.453125 3.066406 Z M 7.453125 3.066406 "/>
</g>
</svg>
