
<svg xmlns="http://www.w3.org/2000/svg" xmlns:xlink="http://www.w3.org/1999/xlink" width="16px" height="16px" viewBox="0 0 16 16" version="1.1">
<g id="surface1">
<path style=" stroke:none;fill-rule:nonzero;fill:#ff6666;fill-opacity:1;" d="M 16 0 L 0 5.121094 L 5.921875 7.582031 L 8 8 L 8.445312 10.128906 L 10.878906 16 Z M 5.148438 9.601562 C 5.078125 9.609375 4.992188 9.621094 4.914062 9.644531 C 4.308594 9.800781 3.425781 10.453125 2.953125 11.09375 C 2.417969 11.820312 2.132812 12.671875 2.132812 13.539062 C 2.132812 13.78125 2.144531 13.824219 2.214844 13.855469 C 2.296875 13.890625 2.984375 13.847656 3.261719 13.789062 C 4.0625 13.628906 4.746094 13.25 5.359375 12.640625 C 5.742188 12.253906 5.96875 11.9375 6.191406 11.472656 C 6.339844 11.167969 6.4375 10.800781 6.386719 10.746094 C 6.375 10.738281 6.296875 10.785156 6.207031 10.855469 C 5.546875 11.277344 5.015625 11.585938 4.265625 11.734375 C 4.460938 10.996094 4.667969 10.433594 5.054688 9.902344 C 5.167969 9.753906 5.261719 9.621094 5.261719 9.613281 C 5.261719 9.601562 5.214844 9.597656 5.148438 9.601562 Z M 5.148438 9.601562 "/>
</g>
</svg>
