
<svg xmlns="http://www.w3.org/2000/svg" xmlns:xlink="http://www.w3.org/1999/xlink" width="16px" height="16px" viewBox="0 0 16 16" version="1.1">
<g id="surface1">
<path style=" stroke:none;fill-rule:nonzero;fill:#ff6666;fill-opacity:1;" d="M 5.539062 3.078125 C 4.859375 3.078125 4.308594 3.628906 4.308594 4.308594 L 4.308594 6.152344 L 11.078125 6.152344 L 10.152344 3.847656 C 9.96875 3.382812 9.519531 3.074219 9.019531 3.078125 Z M 14.769531 3.386719 L 14.769531 3.691406 L 10.710938 3.691406 L 11.210938 4.921875 L 14.769531 4.921875 L 14.769531 5.230469 L 16 5.230469 L 16 3.386719 Z M 1.882812 6.769531 C 1.472656 6.769531 1.09375 6.984375 0.863281 7.328125 L 0 8.613281 L 0 9.230469 L 0.0390625 9.230469 C 0.0117188 9.511719 0.0585938 9.796875 0.230469 10.058594 L 1.402344 11.828125 C 1.855469 12.511719 2.621094 12.921875 3.441406 12.921875 L 12.558594 12.921875 C 13.378906 12.921875 14.140625 12.511719 14.597656 11.828125 L 15.769531 10.058594 C 15.929688 9.8125 15.996094 9.519531 15.960938 9.230469 L 16 9.230469 L 16 8.613281 L 15.136719 7.328125 C 14.910156 6.980469 14.527344 6.773438 14.113281 6.769531 Z M 1.328125 9.230469 L 14.671875 9.230469 C 14.78125 9.230469 14.808594 9.292969 14.75 9.386719 L 13.578125 11.136719 L 13.578125 11.152344 C 13.351562 11.492188 12.964844 11.695312 12.558594 11.691406 L 3.441406 11.691406 C 3.03125 11.691406 2.648438 11.480469 2.421875 11.136719 L 1.25 9.386719 C 1.191406 9.292969 1.21875 9.230469 1.328125 9.230469 Z M 12 9.230469 C 11.488281 9.230469 11.078125 9.644531 11.078125 10.152344 C 11.078125 10.664062 11.488281 11.078125 12 11.078125 C 12.511719 11.078125 12.921875 10.664062 12.921875 10.152344 C 12.921875 9.644531 12.511719 9.230469 12 9.230469 Z M 9.539062 9.230469 C 9.027344 9.230469 8.613281 9.644531 8.613281 10.152344 C 8.613281 10.664062 9.027344 11.078125 9.539062 11.078125 C 10.046875 11.078125 10.460938 10.664062 10.460938 10.152344 C 10.460938 9.644531 10.046875 9.230469 9.539062 9.230469 Z M 6.460938 9.230469 C 5.953125 9.230469 5.539062 9.644531 5.539062 10.152344 C 5.539062 10.664062 5.953125 11.078125 6.460938 11.078125 C 6.972656 11.078125 7.386719 10.664062 7.386719 10.152344 C 7.386719 9.644531 6.972656 9.230469 6.460938 9.230469 Z M 4 9.230469 C 3.488281 9.230469 3.078125 9.644531 3.078125 10.152344 C 3.078125 10.664062 3.488281 11.078125 4 11.078125 C 4.511719 11.078125 4.921875 10.664062 4.921875 10.152344 C 4.921875 9.644531 4.511719 9.230469 4 9.230469 Z M 4 9.230469 "/>
</g>
</svg>
