
<svg xmlns="http://www.w3.org/2000/svg" xmlns:xlink="http://www.w3.org/1999/xlink" width="16px" height="16px" viewBox="0 0 16 16" version="1.1">
<g id="surface1">
<path style=" stroke:none;fill-rule:nonzero;fill:#ff6666;fill-opacity:1;" d="M 10.519531 0.0117188 C 9.675781 -0.0273438 8.925781 0.226562 8.402344 0.75 C 8.074219 1.078125 7.84375 1.492188 7.738281 1.945312 C 7.617188 2.011719 7.507812 2.097656 7.414062 2.195312 C 6.628906 2.980469 6.878906 4.464844 7.988281 5.574219 C 8.359375 5.945312 8.789062 6.234375 9.238281 6.410156 C 9.414062 6.859375 9.703125 7.289062 10.074219 7.660156 C 10.75 8.335938 11.566406 8.691406 12.28125 8.691406 C 12.683594 8.691406 13.050781 8.582031 13.34375 8.34375 C 14.117188 8.335938 14.769531 8.070312 15.246094 7.59375 C 15.949219 6.890625 16.175781 5.804688 15.855469 4.585938 C 16.238281 3.6875 15.851562 2.421875 14.886719 1.457031 C 14.058594 0.628906 12.988281 0.21875 12.117188 0.390625 C 11.566406 0.160156 11.027344 0.0351562 10.519531 0.0117188 Z M 12.433594 1.738281 C 13.238281 1.738281 13.644531 2.242188 13.800781 2.5 C 14.140625 2.652344 14.605469 3.054688 14.605469 3.824219 C 14.605469 4.015625 14.449219 4.171875 14.257812 4.171875 C 14.066406 4.171875 13.910156 4.015625 13.910156 3.824219 C 13.910156 3.234375 13.480469 3.121094 13.476562 3.117188 C 13.367188 3.089844 13.277344 3.015625 13.234375 2.910156 C 13.214844 2.867188 13.011719 2.433594 12.433594 2.433594 C 12.003906 2.433594 11.777344 2.789062 11.769531 2.804688 C 11.722656 2.886719 11.644531 2.945312 11.550781 2.96875 C 11.457031 2.984375 11.359375 2.964844 11.28125 2.910156 C 11.277344 2.910156 11.035156 2.78125 10.433594 2.78125 C 10.316406 2.78125 9.738281 2.824219 9.738281 3.652344 C 9.738281 4.324219 10.488281 4.523438 10.519531 4.53125 C 10.703125 4.578125 10.816406 4.769531 10.769531 4.953125 C 10.730469 5.109375 10.59375 5.21875 10.433594 5.214844 C 10.40625 5.214844 10.382812 5.210938 10.355469 5.203125 C 9.902344 5.097656 9.042969 4.628906 9.042969 3.652344 C 9.042969 2.410156 9.953125 2.085938 10.433594 2.085938 C 10.867188 2.085938 11.167969 2.144531 11.367188 2.207031 C 11.566406 2 11.917969 1.738281 12.433594 1.738281 Z M 12.191406 3.476562 C 12.238281 3.480469 12.289062 3.5 12.335938 3.519531 C 12.382812 3.546875 13.5625 4.164062 13.5625 5.390625 C 13.5625 6.449219 12.453125 6.875 11.867188 6.953125 C 11.851562 6.953125 11.839844 6.953125 11.824219 6.953125 C 11.652344 6.953125 11.5 6.824219 11.476562 6.648438 C 11.453125 6.457031 11.589844 6.285156 11.78125 6.257812 C 11.789062 6.257812 12.867188 6.105469 12.867188 5.390625 C 12.867188 4.582031 12.015625 4.132812 12.007812 4.128906 C 11.835938 4.039062 11.777344 3.832031 11.867188 3.660156 C 11.929688 3.539062 12.058594 3.464844 12.191406 3.476562 Z M 6.574219 4.738281 C 6.027344 5.960938 6.214844 7.40625 7.066406 8.441406 L 5.554688 9.941406 C 5.558594 9.988281 5.566406 10.035156 5.566406 10.082031 C 5.566406 10.429688 5.515625 10.761719 5.425781 11.070312 L 7.554688 8.929688 C 8.191406 9.449219 8.988281 9.734375 9.8125 9.734375 C 10.398438 9.734375 10.984375 9.585938 11.519531 9.289062 C 10.835938 9.117188 10.160156 8.722656 9.585938 8.148438 C 9.222656 7.785156 8.914062 7.378906 8.707031 6.941406 C 8.269531 6.730469 7.863281 6.425781 7.5 6.0625 C 7.089844 5.652344 6.785156 5.203125 6.574219 4.738281 Z M 2.960938 6.953125 C 2.882812 6.953125 2.804688 6.980469 2.742188 7.03125 C 2.671875 7.085938 1.046875 8.398438 1.046875 10.082031 C 1.046875 11.46875 2.105469 12.5625 2.535156 12.949219 L 1.558594 13.929688 L 0.699219 13.558594 L 1.070312 14.429688 L 0.101562 15.394531 C -0.0351562 15.535156 -0.0351562 15.753906 0.101562 15.894531 C 0.171875 15.960938 0.261719 15.992188 0.351562 15.992188 C 0.441406 15.992188 0.53125 15.960938 0.601562 15.894531 L 3.992188 12.484375 L 4.871094 12.863281 L 4.382812 11.722656 C 4.476562 11.558594 4.566406 11.386719 4.644531 11.199219 C 4.648438 11.1875 4.660156 11.171875 4.664062 11.15625 C 4.6875 11.09375 4.710938 11.027344 4.730469 10.960938 C 4.757812 10.878906 4.773438 10.796875 4.796875 10.714844 C 4.84375 10.507812 4.871094 10.296875 4.871094 10.082031 C 4.871094 8.398438 3.246094 7.085938 3.175781 7.03125 C 3.113281 6.980469 3.039062 6.953125 2.960938 6.953125 Z M 2.960938 6.953125 "/>
</g>
</svg>
