
<svg xmlns="http://www.w3.org/2000/svg" xmlns:xlink="http://www.w3.org/1999/xlink" width="16px" height="16px" viewBox="0 0 16 16" version="1.1">
<g id="surface1">
<path style=" stroke:none;fill-rule:nonzero;fill:#ff6666;fill-opacity:1;" d="M 3.277344 0 C 1.46875 0 0 1.46875 0 3.277344 C 0 5.085938 1.46875 6.550781 3.277344 6.550781 C 5.085938 6.550781 6.550781 5.085938 6.550781 3.277344 C 6.550781 1.46875 5.085938 0 3.277344 0 Z M 3.277344 1.636719 C 4.179688 1.636719 4.914062 2.371094 4.914062 3.277344 C 4.914062 4.179688 4.179688 4.914062 3.277344 4.914062 C 2.371094 4.914062 1.636719 4.179688 1.636719 3.277344 C 1.636719 2.371094 2.371094 1.636719 3.277344 1.636719 Z M 3.277344 1.636719 "/>
<path style=" stroke:none;fill-rule:nonzero;fill:#ff6666;fill-opacity:1;" d="M 14.84375 10.207031 L 13.105469 11.945312 L 11.367188 10.207031 L 10.207031 11.367188 L 11.945312 13.105469 L 10.207031 14.84375 L 11.367188 16 L 13.105469 14.261719 L 14.84375 16 L 16 14.84375 L 14.261719 13.105469 L 16 11.367188 Z M 14.84375 10.207031 "/>
<path style=" stroke:none;fill-rule:nonzero;fill:#ff6666;fill-opacity:1;" d="M 7.25 0 L 7.25 7.25 L 0 7.25 L 0 8.75 L 7.25 8.75 L 7.25 16 L 8.75 16 L 8.75 8.75 L 16 8.75 L 16 7.25 L 8.75 7.25 L 8.75 0 Z M 7.25 0 "/>
</g>
</svg>
