
<svg xmlns="http://www.w3.org/2000/svg" xmlns:xlink="http://www.w3.org/1999/xlink" width="16px" height="16px" viewBox="0 0 16 16" version="1.1">
<g id="surface1">
<path style=" stroke:none;fill-rule:evenodd;fill:#ff6666;fill-opacity:1;" d="M 11.667969 6.523438 C 11.519531 6.523438 11.367188 6.582031 11.253906 6.695312 C 11.023438 6.925781 11.023438 7.296875 11.253906 7.527344 L 12.707031 8.984375 L 11.253906 10.4375 C 11.023438 10.667969 11.023438 11.039062 11.253906 11.273438 C 11.484375 11.503906 11.855469 11.503906 12.085938 11.273438 L 13.539062 9.816406 L 14.996094 11.273438 C 15.226562 11.503906 15.597656 11.503906 15.828125 11.273438 C 16.058594 11.039062 16.058594 10.667969 15.828125 10.4375 L 14.371094 8.984375 L 15.828125 7.527344 C 16.058594 7.296875 16.058594 6.925781 15.828125 6.695312 C 15.597656 6.464844 15.226562 6.464844 14.996094 6.695312 L 13.539062 8.152344 L 12.085938 6.695312 C 11.96875 6.582031 11.820312 6.523438 11.667969 6.523438 Z M 8.003906 7.507812 C 8.820312 7.507812 9.480469 8.167969 9.480469 8.984375 C 9.480469 9.800781 8.820312 10.460938 8.003906 10.460938 C 7.1875 10.460938 6.527344 9.800781 6.527344 8.984375 C 6.527344 8.167969 7.1875 7.507812 8.003906 7.507812 Z M 8.003906 6.523438 C 6.644531 6.523438 5.542969 7.625 5.542969 8.984375 C 5.542969 10.34375 6.644531 11.445312 8.003906 11.445312 C 9.363281 11.445312 10.464844 10.34375 10.464844 8.984375 C 10.464844 7.625 9.363281 6.523438 8.003906 6.523438 Z M 2.46875 7.507812 C 3.285156 7.507812 3.945312 8.167969 3.945312 8.984375 C 3.945312 9.800781 3.285156 10.460938 2.46875 10.460938 C 1.652344 10.460938 0.992188 9.800781 0.992188 8.984375 C 0.992188 8.167969 1.652344 7.507812 2.46875 7.507812 Z M 0.5 4.554688 C 0.226562 4.554688 0.0078125 4.773438 0.0078125 5.046875 C -0.0273438 6.34375 0.0546875 7.714844 0.0078125 8.984375 C 0.0078125 10.34375 1.109375 11.445312 2.46875 11.445312 C 3.828125 11.445312 4.929688 10.34375 4.929688 8.984375 C 4.929688 7.625 3.828125 6.523438 2.46875 6.523438 C 1.9375 6.523438 1.417969 6.699219 0.992188 7.019531 L 0.992188 5.046875 C 0.992188 4.773438 0.773438 4.554688 0.5 4.554688 Z M 0.5 4.554688 "/>
</g>
</svg>
