
<svg xmlns="http://www.w3.org/2000/svg" xmlns:xlink="http://www.w3.org/1999/xlink" width="16px" height="16px" viewBox="0 0 16 16" version="1.1">
<g id="surface1">
<path style=" stroke:none;fill-rule:evenodd;fill:#ff6666;fill-opacity:1;" d="M 8.648438 5.714844 L 4.855469 5.714844 L 4.855469 8.570312 L 4.285156 8.570312 L 4.285156 2.855469 L 7.714844 2.855469 L 7.714844 2.261719 C 7.714844 1.007812 6.371094 0 4.617188 0 L 4.023438 0 C 2.269531 0 0.855469 1.007812 0.855469 2.261719 L 0.855469 10.285156 L 4.855469 10.285156 L 4.855469 13.738281 C 4.855469 14.992188 6.269531 16 8.023438 16 L 8.617188 16 C 10.371094 16 11.714844 14.992188 11.714844 13.738281 L 11.714844 13.144531 L 8.285156 13.144531 L 8.285156 10.285156 L 8.882812 10.285156 C 10.058594 10.285156 11.023438 9.035156 11.132812 7.429688 L 11.492188 7.429688 C 12.238281 7.429688 12.855469 8.0625 12.855469 8.730469 L 12.855469 9.648438 C 12.855469 10.320312 12.238281 10.855469 11.492188 10.855469 L 8.855469 10.855469 L 8.855469 12.570312 L 12.882812 12.570312 C 14.132812 12.570312 15.144531 11.253906 15.144531 9.5 L 15.144531 8.882812 C 15.144531 7.125 14.132812 5.714844 12.882812 5.714844 L 11.070312 5.714844 C 10.820312 4.367188 9.9375 3.429688 8.882812 3.429688 L 4.855469 3.429688 L 4.855469 5.144531 L 7.492188 5.144531 C 7.976562 5.144531 8.410156 5.371094 8.652344 5.714844 Z M 8.839844 7.429688 L 8.285156 7.429688 L 8.285156 8.3125 C 8.585938 8.097656 8.796875 7.773438 8.847656 7.429688 Z M 5.855469 0.855469 C 5.621094 0.855469 5.429688 1.050781 5.429688 1.285156 C 5.429688 1.523438 5.621094 1.714844 5.855469 1.714844 C 6.09375 1.714844 6.285156 1.523438 6.285156 1.285156 C 6.285156 1.050781 6.09375 0.855469 5.855469 0.855469 Z M 9.855469 15.144531 C 9.621094 15.144531 9.429688 14.949219 9.429688 14.714844 C 9.429688 14.476562 9.621094 14.285156 9.855469 14.285156 C 10.09375 14.285156 10.285156 14.476562 10.285156 14.714844 C 10.285156 14.949219 10.09375 15.144531 9.855469 15.144531 Z M 9.855469 15.144531 "/>
</g>
</svg>
