
<svg xmlns="http://www.w3.org/2000/svg" xmlns:xlink="http://www.w3.org/1999/xlink" width="16px" height="16px" viewBox="0 0 16 16" version="1.1">
<g id="surface1">
<path style=" stroke:none;fill-rule:evenodd;fill:#ff6666;fill-opacity:1;" d="M 7.664062 9.59375 L 7.664062 6.40625 C 7.417969 6.367188 7.179688 6.28125 6.964844 6.160156 L 3.644531 10.261719 C 3.910156 10.558594 4.082031 10.925781 4.148438 11.316406 L 5.941406 11.316406 C 6.011719 10.886719 6.214844 10.488281 6.523438 10.175781 C 6.835938 9.863281 7.234375 9.660156 7.664062 9.59375 Z M 8.335938 6.40625 L 8.335938 9.59375 C 8.765625 9.660156 9.164062 9.863281 9.476562 10.175781 C 9.785156 10.488281 9.988281 10.886719 10.058594 11.316406 L 11.851562 11.316406 C 11.917969 10.925781 12.089844 10.558594 12.355469 10.261719 L 9.035156 6.160156 C 8.820312 6.28125 8.582031 6.367188 8.335938 6.40625 Z M 11.851562 11.988281 L 10.058594 11.988281 C 9.988281 12.417969 9.785156 12.816406 9.476562 13.128906 C 9.085938 13.519531 8.554688 13.738281 8 13.738281 C 7.445312 13.738281 6.914062 13.519531 6.523438 13.128906 C 6.214844 12.816406 6.011719 12.417969 5.941406 11.988281 L 4.148438 11.988281 C 4.078125 12.417969 3.875 12.816406 3.5625 13.128906 C 3.171875 13.519531 2.640625 13.738281 2.085938 13.738281 C 1.53125 13.738281 1.003906 13.519531 0.609375 13.128906 C 0.21875 12.734375 0 12.207031 0 11.652344 C 0 11.097656 0.21875 10.566406 0.609375 10.175781 C 1.003906 9.785156 1.53125 9.566406 2.085938 9.566406 C 2.453125 9.566406 2.808594 9.660156 3.121094 9.839844 L 6.441406 5.738281 C 6.101562 5.355469 5.914062 4.863281 5.914062 4.347656 C 5.914062 3.792969 6.132812 3.265625 6.523438 2.871094 C 6.914062 2.480469 7.445312 2.261719 8 2.261719 C 8.554688 2.261719 9.085938 2.480469 9.476562 2.871094 C 9.867188 3.265625 10.085938 3.792969 10.085938 4.347656 C 10.085938 4.863281 9.898438 5.355469 9.558594 5.738281 L 12.878906 9.839844 C 13.191406 9.660156 13.546875 9.566406 13.914062 9.566406 C 14.46875 9.566406 14.996094 9.785156 15.390625 10.175781 C 15.78125 10.566406 16 11.097656 16 11.652344 C 16 12.207031 15.78125 12.734375 15.390625 13.128906 C 14.996094 13.519531 14.46875 13.738281 13.914062 13.738281 C 13.359375 13.738281 12.828125 13.519531 12.4375 13.128906 C 12.125 12.816406 11.921875 12.417969 11.851562 11.988281 Z M 11.851562 11.988281 "/>
</g>
</svg>
