
<svg xmlns="http://www.w3.org/2000/svg" xmlns:xlink="http://www.w3.org/1999/xlink" width="16px" height="16px" viewBox="0 0 16 16" version="1.1">
<g id="surface1">
<path style=" stroke:none;fill-rule:nonzero;fill:#ff6666;fill-opacity:1;" d="M 14.847656 0.0117188 C 14.558594 0.015625 14.289062 0.128906 14.136719 0.363281 L 11.710938 4.929688 C 11.890625 4.988281 12.292969 5.171875 13.636719 5.777344 L 13.65625 5.785156 C 13.890625 5.890625 14.066406 5.96875 14.136719 5.996094 C 14.160156 6.007812 14.183594 6.027344 14.207031 6.035156 L 15.976562 1.140625 C 16.085938 0.753906 15.808594 0.308594 15.367188 0.132812 C 15.203125 0.0507812 15.027344 0.0117188 14.847656 0.0117188 Z M 1.277344 2.558594 C 0.574219 2.558594 0 3.132812 0 3.839844 C 0 4.542969 0.574219 5.117188 1.277344 5.117188 C 1.984375 5.117188 2.558594 4.542969 2.558594 3.839844 C 2.558594 3.132812 1.984375 2.558594 1.277344 2.558594 Z M 4.15625 3.519531 C 3.804688 3.519531 3.515625 3.804688 3.515625 4.15625 C 3.515625 4.511719 3.804688 4.796875 4.15625 4.796875 C 4.507812 4.796875 4.796875 4.511719 4.796875 4.15625 C 4.796875 3.804688 4.507812 3.519531 4.15625 3.519531 Z M 10.28125 5.316406 C 9.660156 5.363281 9.125 5.671875 8.742188 6.207031 C 8.984375 6.613281 9.40625 7.109375 10 7.097656 C 10.15625 7.09375 10.292969 7.203125 10.320312 7.355469 C 10.441406 7.542969 11.1875 7.878906 11.398438 7.796875 C 11.488281 7.761719 11.585938 7.769531 11.667969 7.816406 C 11.753906 7.863281 11.8125 7.941406 11.828125 8.035156 C 11.84375 8.085938 11.980469 8.269531 12.269531 8.402344 C 12.496094 8.507812 12.714844 8.535156 12.839844 8.472656 C 12.914062 8.4375 13.007812 8.433594 13.089844 8.464844 C 13.171875 8.496094 13.242188 8.5625 13.277344 8.644531 C 13.492188 9.171875 14.480469 9.210938 15.15625 9.152344 C 15.253906 8.726562 15.226562 8.277344 15.074219 7.863281 C 14.863281 7.292969 14.445312 6.84375 13.878906 6.585938 C 13.816406 6.558594 13.621094 6.46875 13.378906 6.355469 C 12.238281 5.84375 11.597656 5.5625 11.46875 5.527344 C 11.050781 5.363281 10.652344 5.289062 10.28125 5.316406 Z M 3.675781 5.757812 C 2.707031 5.757812 1.921875 6.546875 1.917969 7.515625 C 1.917969 8.484375 2.707031 9.273438 3.675781 9.273438 C 4.644531 9.273438 5.433594 8.484375 5.433594 7.515625 C 5.433594 6.546875 4.644531 5.757812 3.675781 5.757812 Z M 8.402344 6.847656 C 8.304688 7.074219 8.195312 7.296875 8.070312 7.515625 C 8.210938 7.851562 8.617188 8.625 9.359375 8.453125 C 9.445312 8.433594 9.535156 8.445312 9.609375 8.496094 C 9.683594 8.542969 9.726562 8.617188 9.742188 8.703125 C 9.761719 8.824219 9.902344 8.964844 10.101562 9.074219 C 10.378906 9.226562 10.683594 9.257812 10.808594 9.203125 C 10.890625 9.164062 10.988281 9.164062 11.070312 9.203125 C 11.152344 9.242188 11.214844 9.316406 11.238281 9.402344 C 11.285156 9.554688 11.441406 9.710938 11.660156 9.824219 C 11.914062 9.953125 12.207031 10 12.398438 9.933594 C 12.546875 9.882812 12.707031 9.945312 12.777344 10.082031 C 13.058594 10.605469 13.988281 10.660156 14.707031 10.613281 C 14.796875 10.351562 14.882812 10.085938 14.964844 9.804688 C 14.878906 9.808594 14.789062 9.8125 14.695312 9.8125 C 14.027344 9.8125 13.226562 9.679688 12.828125 9.132812 C 12.558594 9.171875 12.246094 9.109375 11.9375 8.953125 C 11.714844 8.839844 11.46875 8.664062 11.320312 8.445312 C 10.910156 8.445312 10.445312 8.21875 10.210938 8.074219 C 10.027344 7.964844 9.886719 7.855469 9.800781 7.734375 C 9.167969 7.675781 8.714844 7.261719 8.402344 6.847656 Z M 7.671875 8.144531 C 5.691406 10.898438 2.308594 10.816406 2.269531 10.8125 C 2.140625 10.800781 2.019531 10.867188 1.957031 10.984375 C 1.898438 11.09375 1.910156 11.230469 1.988281 11.332031 C 2.527344 11.996094 3.132812 12.601562 3.796875 13.140625 C 4.089844 13.199219 5.945312 13.460938 7.78125 11.332031 C 7.839844 11.269531 7.917969 11.230469 8 11.222656 C 8.085938 11.21875 8.167969 11.246094 8.230469 11.300781 C 8.367188 11.417969 8.378906 11.617188 8.261719 11.753906 C 6.980469 13.238281 5.628906 13.699219 4.6875 13.800781 C 5.417969 14.289062 6.195312 14.707031 7.011719 15.039062 C 7.484375 14.941406 9.070312 14.46875 10.46875 12.332031 C 10.566406 12.183594 10.773438 12.132812 10.921875 12.230469 C 11.066406 12.328125 11.105469 12.53125 11.011719 12.679688 C 9.953125 14.289062 8.796875 15.046875 7.980469 15.398438 C 9.644531 15.9375 10.886719 15.984375 10.988281 15.988281 L 11 15.988281 C 11.058594 15.988281 11.117188 15.96875 11.171875 15.9375 C 11.257812 15.882812 13.109375 14.671875 14.46875 11.273438 C 14.414062 11.273438 14.359375 11.28125 14.308594 11.28125 C 13.605469 11.28125 12.800781 11.140625 12.359375 10.59375 C 12.050781 10.628906 11.695312 10.558594 11.371094 10.394531 C 11.105469 10.257812 10.894531 10.074219 10.761719 9.863281 C 10.421875 9.890625 10.054688 9.769531 9.800781 9.632812 C 9.539062 9.492188 9.339844 9.316406 9.222656 9.113281 C 8.484375 9.152344 7.976562 8.652344 7.671875 8.144531 Z M 7.671875 8.144531 "/>
</g>
</svg>
