
<svg xmlns="http://www.w3.org/2000/svg" xmlns:xlink="http://www.w3.org/1999/xlink" width="16px" height="16px" viewBox="0 0 16 16" version="1.1">
<g id="surface1">
<path style=" stroke:none;fill-rule:nonzero;fill:#ff6666;fill-opacity:1;" d="M 8 0 C 3.585938 0 0 3.585938 0 8 C 0 12.414062 3.585938 16 8 16 C 12.414062 16 16 12.414062 16 8 C 16 3.585938 12.414062 0 8 0 Z M 7.960938 1.003906 L 7.941406 1.617188 L 8.855469 1.757812 L 9.472656 1.15625 C 10.074219 1.289062 10.65625 1.5 11.203125 1.78125 L 10.988281 2.128906 L 11.601562 2.667969 L 10.988281 3.179688 L 11.226562 3.789062 L 12.585938 3.144531 L 13.433594 3.789062 L 13.476562 3.648438 C 13.660156 3.882812 13.824219 4.128906 13.980469 4.378906 L 13.125 4.535156 L 12.617188 3.992188 L 11.058594 4.09375 L 10.109375 5.585938 L 10.753906 7.179688 L 12.855469 7.820312 L 13.261719 10.296875 L 13.769531 11.585938 L 14.128906 11.382812 C 12.894531 13.613281 10.546875 15 8 15 C 4.136719 15 1 11.863281 1 8 C 1 7.1875 1.144531 6.410156 1.398438 5.6875 L 1.433594 5.820312 L 2.519531 6.128906 L 3.941406 7.175781 L 3.976562 8.703125 L 4.890625 9.957031 L 5.429688 13.347656 L 6.414062 13.957031 L 6.144531 12.703125 L 7.804688 10.398438 L 8.515625 8.839844 L 6.855469 7.28125 L 5.058594 6.433594 L 4.3125 6.871094 L 3.433594 5.550781 L 2.925781 5.789062 L 2.484375 5.042969 L 3.265625 4.636719 L 4.007812 5.078125 L 5.296875 3.484375 L 7.160156 2.332031 L 6.652344 1.382812 L 5.128906 1.925781 L 4.9375 1.714844 C 5.878906 1.253906 6.910156 1.007812 7.960938 1.003906 Z M 7.960938 1.003906 "/>
</g>
</svg>
