
<svg xmlns="http://www.w3.org/2000/svg" xmlns:xlink="http://www.w3.org/1999/xlink" width="16px" height="16px" viewBox="0 0 16 16" version="1.1">
<g id="surface1">
<path style=" stroke:none;fill-rule:nonzero;fill:#ff6666;fill-opacity:1;" d="M 7.921875 0 C 7.347656 0.00390625 6.773438 0.0625 6.210938 0.1875 C 4.183594 0.636719 2.433594 1.878906 1.183594 3.746094 C 0.652344 4.539062 0.167969 5.644531 0.167969 6.066406 C 0.167969 6.425781 0.589844 6.613281 0.867188 6.378906 C 0.933594 6.324219 0.996094 6.222656 1.015625 6.152344 C 1.15625 5.496094 1.65625 4.515625 2.238281 3.753906 C 2.726562 3.113281 3.617188 2.308594 4.304688 1.886719 C 6.449219 0.570312 9.382812 0.542969 11.542969 1.820312 C 12.894531 2.621094 14.003906 3.953125 14.652344 5.558594 C 14.792969 5.90625 15.023438 6.671875 15.023438 6.785156 C 15.023438 6.820312 14.816406 6.644531 14.5625 6.394531 C 14.011719 5.847656 13.957031 5.808594 13.742188 5.808594 C 13.503906 5.808594 13.339844 5.964844 13.308594 6.210938 C 13.300781 6.308594 13.304688 6.417969 13.324219 6.449219 C 13.363281 6.523438 15.113281 8.292969 15.253906 8.402344 C 15.394531 8.511719 15.652344 8.5 15.800781 8.378906 C 15.992188 8.21875 16.019531 8.101562 15.992188 7.523438 C 15.890625 5.367188 14.542969 2.925781 12.683594 1.53125 C 11.351562 0.53125 9.640625 -0.00390625 7.921875 0 Z M 0 7.890625 L 0.0234375 8.449219 C 0.0625 9.398438 0.332031 10.375 0.832031 11.398438 C 1.839844 13.460938 3.492188 14.949219 5.5 15.609375 C 6.082031 15.796875 6.507812 15.886719 7.28125 15.980469 C 7.613281 16.019531 8.679688 16 9.09375 15.945312 C 11.445312 15.640625 13.523438 14.28125 14.898438 12.152344 C 15.34375 11.460938 15.78125 10.460938 15.835938 10.003906 C 15.855469 9.824219 15.847656 9.804688 15.71875 9.675781 C 15.601562 9.558594 15.554688 9.535156 15.410156 9.535156 C 15.140625 9.535156 15.078125 9.613281 14.902344 10.144531 C 14.300781 11.949219 12.839844 13.605469 11.121094 14.441406 C 9.726562 15.113281 8.132812 15.304688 6.539062 14.980469 C 4.726562 14.617188 3.160156 13.515625 2.078125 11.847656 C 1.671875 11.222656 1.25 10.277344 1.089844 9.652344 C 1.054688 9.511719 1.015625 9.363281 1.003906 9.320312 C 0.992188 9.277344 1.222656 9.476562 1.515625 9.765625 L 2.046875 10.289062 L 2.246094 10.269531 C 2.519531 10.242188 2.640625 10.125 2.667969 9.847656 L 2.6875 9.644531 L 0.65625 7.613281 C 0.65625 7.613281 0.464844 7.484375 0.226562 7.589844 C -0.0117188 7.695312 0 7.890625 0 7.890625 Z M 0 7.890625 "/>
</g>
</svg>
