
<svg xmlns="http://www.w3.org/2000/svg" xmlns:xlink="http://www.w3.org/1999/xlink" width="16px" height="16px" viewBox="0 0 16 16" version="1.1">
<g id="surface1">
<path style=" stroke:none;fill-rule:nonzero;fill:#ff6666;fill-opacity:1;" d="M 3.4375 0 C 3.121094 0 2.867188 0.253906 2.867188 0.570312 C 2.867188 0.886719 3.121094 1.140625 3.4375 1.140625 L 3.4375 1.152344 C 4.148438 1.226562 4.78125 1.703125 5.125 2.421875 C 4.457031 3.097656 3.953125 3.996094 3.675781 5.015625 C 3.683594 5.019531 3.691406 5.023438 3.699219 5.027344 C 2.304688 5.632812 1.1875 6.738281 0.5625 8.125 C -0.808594 11.140625 0.414062 14.636719 3.277344 15.949219 C 3.5625 16.078125 3.902344 15.949219 4.03125 15.664062 L 5.046875 13.425781 C 5.871094 14.347656 6.917969 14.851562 8 14.851562 C 9.078125 14.847656 10.121094 14.34375 10.945312 13.425781 L 11.96875 15.664062 C 12.09375 15.949219 12.4375 16.074219 12.722656 15.9375 C 15.585938 14.636719 16.808594 11.140625 15.4375 8.113281 C 14.808594 6.730469 13.691406 5.628906 12.300781 5.027344 C 12.304688 5.023438 12.308594 5.019531 12.3125 5.015625 C 12.035156 3.996094 11.53125 3.097656 10.863281 2.421875 C 11.210938 1.699219 11.847656 1.222656 12.5625 1.152344 L 12.5625 1.140625 C 12.878906 1.140625 13.132812 0.886719 13.132812 0.570312 C 13.132812 0.253906 12.878906 0 12.5625 0 C 12.496094 0 12.429688 0.0117188 12.371094 0.0351562 C 11.378906 0.160156 10.492188 0.773438 9.960938 1.703125 C 9.347656 1.335938 8.679688 1.144531 8 1.140625 C 7.320312 1.148438 6.648438 1.34375 6.039062 1.714844 C 5.507812 0.78125 4.625 0.164062 3.628906 0.0351562 C 3.570312 0.0117188 3.503906 0 3.4375 0 Z M 5.203125 5.78125 C 5.796875 6 6.421875 6.152344 7.066406 6.226562 L 4.292969 12.339844 L 3.253906 14.613281 C 1.335938 13.402344 0.585938 10.84375 1.601562 8.59375 C 2.089844 7.5 2.964844 6.628906 4.050781 6.136719 C 4.144531 6.089844 4.246094 6.054688 4.347656 6.019531 C 4.601562 5.921875 4.859375 5.847656 5.125 5.792969 Z M 10.796875 5.78125 L 10.851562 5.792969 C 11.160156 5.851562 11.46875 5.941406 11.765625 6.054688 C 11.820312 6.078125 11.867188 6.101562 11.925781 6.125 C 13.023438 6.613281 13.90625 7.492188 14.398438 8.589844 C 15.414062 10.84375 14.664062 13.402344 12.746094 14.613281 L 11.707031 12.328125 L 8.933594 6.226562 C 9.578125 6.152344 10.203125 6 10.796875 5.78125 Z M 10.796875 5.78125 "/>
</g>
</svg>
