
<svg xmlns="http://www.w3.org/2000/svg" xmlns:xlink="http://www.w3.org/1999/xlink" width="16px" height="16px" viewBox="0 0 16 16" version="1.1">
<g id="surface1">
<path style=" stroke:none;fill-rule:evenodd;fill:#ff6666;fill-opacity:1;" d="M 9.5 0 C 8.4375 0 7.582031 0.820312 7.511719 1.863281 L 6.613281 2.765625 L 5.265625 4.113281 C 5.019531 4.046875 4.765625 4 4.5 4 C 2.839844 4 1.5 5.339844 1.5 7 C 1.5 7.890625 1.890625 8.675781 2.5 9.226562 L 2.5 13 L 6.5 13 L 6.5 9.226562 C 7.109375 8.675781 7.5 7.890625 7.5 7 C 7.5 6.734375 7.453125 6.480469 7.386719 6.230469 L 8.179688 5.441406 L 9.632812 3.988281 C 9.765625 3.976562 9.886719 3.957031 10.007812 3.925781 L 10.78125 4.699219 L 10.792969 4.707031 L 10.9375 4.851562 L 10.644531 5.144531 C 10.550781 5.238281 10.5 5.363281 10.5 5.496094 L 10.5 7.496094 C 10.5 7.773438 10.722656 7.996094 11 7.996094 L 13 8 C 13.675781 8.011719 13.675781 6.992188 13 7 L 11.5 7 L 11.5 5.707031 L 13.207031 3.996094 L 14.5 3.996094 L 14.5 5.496094 C 14.492188 6.171875 15.507812 6.171875 15.5 5.496094 L 15.5 3.496094 C 15.5 3.21875 15.277344 2.996094 15 2.996094 L 13 2.996094 C 12.867188 2.996094 12.738281 3.050781 12.644531 3.144531 L 12.351562 3.4375 L 12.207031 3.292969 L 12.195312 3.285156 L 11.425781 2.511719 C 11.46875 2.347656 11.5 2.179688 11.5 2 C 11.5 0.890625 10.609375 0 9.5 0 Z M 9.5 1 C 10.054688 1 10.5 1.445312 10.5 2 C 10.5 2.554688 10.054688 3 9.5 3 C 8.945312 3 8.5 2.554688 8.5 2 C 8.5 1.445312 8.945312 1 9.5 1 Z M 4.5 5 C 5.609375 5 6.5 5.890625 6.5 7 C 6.5 7.367188 6.394531 7.703125 6.222656 8 C 6.054688 8.292969 5.8125 8.535156 5.523438 8.710938 C 5.507812 8.71875 5.492188 8.726562 5.476562 8.738281 C 5.359375 8.804688 5.234375 8.855469 5.101562 8.898438 C 5.0625 8.910156 5.023438 8.921875 4.984375 8.933594 C 4.828125 8.972656 4.667969 9 4.5 9 C 4.332031 9 4.171875 8.972656 4.015625 8.933594 C 3.976562 8.921875 3.9375 8.910156 3.898438 8.898438 C 3.765625 8.855469 3.640625 8.804688 3.519531 8.734375 C 3.507812 8.726562 3.492188 8.71875 3.476562 8.710938 C 3.1875 8.535156 2.945312 8.292969 2.773438 8 C 2.605469 7.703125 2.5 7.367188 2.5 7 C 2.5 5.890625 3.390625 5 4.5 5 Z M 4.5 6 C 3.945312 6 3.5 6.445312 3.5 7 C 3.5 7.554688 3.945312 8 4.5 8 C 5.054688 8 5.5 7.554688 5.5 7 C 5.5 6.445312 5.054688 6 4.5 6 Z M 1.5 14 C 1.5 14 0.5 14 0.5 15 L 0.5 16 L 8.5 16 L 8.5 15 C 8.5 15 8.5 14 7.5 14 Z M 1.5 14 "/>
</g>
</svg>
