
<svg xmlns="http://www.w3.org/2000/svg" xmlns:xlink="http://www.w3.org/1999/xlink" width="16px" height="16px" viewBox="0 0 16 16" version="1.1">
<g id="surface1">
<path style=" stroke:none;fill-rule:evenodd;fill:#ff6666;fill-opacity:1;" d="M 9.144531 4.757812 C 9.144531 6.441406 7.734375 6.28125 6 6.28125 C 4.265625 6.28125 2.855469 6.441406 2.855469 4.757812 C 2.855469 3.078125 4.265625 1.714844 6 1.714844 C 7.734375 1.714844 9.144531 3.078125 9.144531 4.757812 Z M 6.40625 16 L 10.40625 16 C 12.863281 16 14.855469 14.003906 14.855469 11.546875 L 14.855469 10.738281 C 14.855469 8.433594 13.101562 6.535156 10.855469 6.308594 L 10.855469 4.453125 C 10.855469 1.996094 8.863281 0 6.40625 0 L 5.59375 0 C 3.136719 0 1.144531 1.996094 1.144531 4.453125 L 1.144531 11.546875 C 1.144531 14.003906 3.136719 16 5.59375 16 Z M 5.144531 12 C 5.144531 12.472656 5.527344 12.855469 6 12.855469 C 6.472656 12.855469 6.855469 12.472656 6.855469 12 L 6.855469 10.757812 C 7.035156 10.554688 7.144531 10.289062 7.144531 10 C 7.144531 9.367188 6.632812 8.855469 6 8.855469 C 5.367188 8.855469 4.855469 9.367188 4.855469 10 C 4.855469 10.289062 4.964844 10.554688 5.144531 10.757812 Z M 5.144531 12 "/>
</g>
</svg>
