
<svg xmlns="http://www.w3.org/2000/svg" xmlns:xlink="http://www.w3.org/1999/xlink" width="16px" height="16px" viewBox="0 0 16 16" version="1.1">
<g id="surface1">
<path style=" stroke:none;fill-rule:evenodd;fill:#ff6666;fill-opacity:1;" d="M 7.386719 14.027344 L 7.367188 14.773438 L 5.675781 14.773438 L 5.636719 14.027344 L 4.761719 14.027344 L 3.964844 13.285156 L 4.035156 5.691406 L 4.671875 4.800781 L 6.492188 4.800781 L 6.457031 7.070312 C 4.894531 8.074219 5.152344 8.558594 5.191406 12.390625 L 5.710938 12.835938 L 10.289062 12.835938 L 10.808594 12.390625 C 10.847656 8.558594 11.105469 8.074219 9.542969 7.070312 L 9.507812 4.800781 L 11.328125 4.800781 L 11.964844 5.691406 L 12.035156 13.285156 L 11.238281 14.027344 L 10.363281 14.027344 L 10.324219 14.773438 L 8.632812 14.773438 L 8.613281 14.027344 Z M 7.164062 0 L 7.164062 6.734375 L 8.835938 6.734375 L 8.835938 0 Z M 5.84375 12.1875 L 5.824219 9.210938 C 6.003906 8.074219 6.78125 7.28125 8 7.292969 C 9.21875 7.28125 9.996094 8.074219 10.175781 9.210938 L 10.15625 12.1875 Z M 1.542969 1.898438 L 1.582031 15.441406 L 2.175781 16 L 4.035156 15.964844 L 4.558594 15.367188 L 4.59375 14.808594 L 3.40625 13.617188 L 3.292969 5.210938 L 4.519531 4.054688 L 4.59375 1.898438 L 4.074219 1.226562 L 2.066406 1.226562 Z M 14.457031 1.898438 L 14.417969 15.441406 L 13.824219 16 L 11.964844 15.964844 L 11.441406 15.367188 L 11.40625 14.808594 L 12.59375 13.617188 L 12.707031 5.210938 L 11.480469 4.054688 L 11.40625 1.898438 L 11.925781 1.226562 L 13.933594 1.226562 Z M 14.457031 1.898438 "/>
</g>
</svg>
