
<svg xmlns="http://www.w3.org/2000/svg" xmlns:xlink="http://www.w3.org/1999/xlink" width="16px" height="16px" viewBox="0 0 16 16" version="1.1">
<g id="surface1">
<path style=" stroke:none;fill-rule:nonzero;fill:#ff6666;fill-opacity:1;" d="M 8 0.800781 C 7.195312 0.8125 6.316406 1.003906 5.996094 1.355469 C 5.660156 1.730469 5.585938 2.253906 5.679688 2.835938 C 5.863281 3.945312 7.027344 5.304688 7.921875 6.527344 C 7.917969 6.535156 7.910156 6.546875 7.90625 6.554688 C 7.453125 7.125 6.707031 7.777344 6.265625 8.21875 C 6.335938 7.898438 6.390625 7.546875 6.402344 7.320312 C 6.410156 7.128906 6.40625 6.980469 6.347656 6.859375 C 6.316406 6.796875 6.265625 6.738281 6.191406 6.714844 C 6.117188 6.691406 6.042969 6.707031 5.980469 6.738281 C 5.847656 6.800781 5.726562 6.925781 5.570312 7.121094 C 5.414062 7.320312 5.230469 7.652344 5.011719 8.015625 C 4.796875 8.378906 4.644531 8.671875 4.542969 8.902344 C 4.492188 9.023438 4.453125 9.125 4.433594 9.21875 C 4.410156 9.300781 4.398438 9.378906 4.402344 9.449219 C 4.527344 9.617188 4.726562 9.59375 4.890625 9.601562 C 4.960938 9.601562 5.03125 9.589844 5.113281 9.539062 C 5.304688 9.421875 5.539062 9.238281 5.789062 9.023438 C 5.609375 9.617188 5.652344 9.796875 5.367188 10.464844 C 5.363281 10.476562 5.359375 10.484375 5.355469 10.492188 C 3.851562 10.285156 2.285156 10.417969 1.226562 10.785156 C 0.671875 10.980469 0.242188 11.410156 0.0742188 11.890625 C -0.0898438 12.363281 0.0117188 13.210938 0.429688 13.960938 C 0.851562 14.714844 1.3125 15.058594 1.804688 15.164062 C 2.296875 15.273438 2.789062 15.132812 3.246094 14.757812 C 4.113281 14.046875 4.898438 12.15625 5.507812 10.769531 C 5.519531 10.769531 5.527344 10.769531 5.539062 10.773438 C 6.257812 10.878906 6.945312 11.476562 7.546875 11.636719 C 7.234375 11.738281 6.953125 11.839844 6.753906 11.941406 C 6.582031 12.027344 6.457031 12.109375 6.382812 12.222656 C 6.34375 12.277344 6.316406 12.351562 6.335938 12.425781 C 6.351562 12.5 6.398438 12.558594 6.460938 12.597656 C 6.578125 12.679688 6.746094 12.726562 6.996094 12.765625 C 7.246094 12.800781 7.574219 12.820312 7.996094 12.828125 C 7.996094 12.828125 8 12.828125 8 12.828125 C 8 12.828125 8.003906 12.828125 8.003906 12.828125 C 8.425781 12.820312 8.753906 12.800781 9.003906 12.765625 C 9.253906 12.726562 9.421875 12.679688 9.539062 12.597656 C 9.601562 12.558594 9.648438 12.5 9.664062 12.425781 C 9.683594 12.351562 9.65625 12.277344 9.617188 12.222656 C 9.542969 12.109375 9.417969 12.027344 9.246094 11.941406 C 9.046875 11.839844 8.765625 11.738281 8.453125 11.636719 C 9.054688 11.476562 9.742188 10.878906 10.460938 10.773438 C 10.472656 10.769531 10.480469 10.769531 10.492188 10.769531 C 11.101562 12.15625 11.886719 14.046875 12.753906 14.757812 C 13.210938 15.132812 13.703125 15.273438 14.195312 15.164062 C 14.6875 15.058594 15.148438 14.714844 15.570312 13.960938 C 15.988281 13.210938 16.089844 12.363281 15.925781 11.890625 C 15.757812 11.410156 15.328125 10.980469 14.773438 10.785156 C 13.714844 10.417969 12.148438 10.285156 10.644531 10.492188 C 10.640625 10.484375 10.636719 10.476562 10.632812 10.464844 C 10.347656 9.796875 10.386719 9.617188 10.210938 9.023438 C 10.460938 9.238281 10.695312 9.421875 10.886719 9.539062 C 10.964844 9.589844 11.039062 9.601562 11.109375 9.601562 C 11.273438 9.59375 11.472656 9.617188 11.597656 9.449219 C 11.601562 9.378906 11.589844 9.300781 11.566406 9.21875 C 11.542969 9.125 11.507812 9.023438 11.453125 8.902344 C 11.355469 8.671875 11.203125 8.378906 10.984375 8.015625 C 10.769531 7.652344 10.585938 7.320312 10.429688 7.121094 C 10.273438 6.925781 10.148438 6.800781 10.019531 6.738281 C 9.957031 6.707031 9.882812 6.691406 9.808594 6.714844 C 9.734375 6.738281 9.683594 6.796875 9.652344 6.859375 C 9.59375 6.980469 9.589844 7.128906 9.597656 7.320312 C 9.609375 7.546875 9.660156 7.898438 9.734375 8.21875 C 9.292969 7.777344 8.546875 7.125 8.09375 6.554688 C 8.089844 6.546875 8.082031 6.535156 8.078125 6.527344 C 8.972656 5.304688 10.136719 3.945312 10.320312 2.835938 C 10.414062 2.253906 10.339844 1.730469 10.003906 1.355469 C 9.683594 1.003906 8.804688 0.8125 8 0.800781 Z M 8 0.800781 "/>
</g>
</svg>
