
<svg xmlns="http://www.w3.org/2000/svg" xmlns:xlink="http://www.w3.org/1999/xlink" width="16px" height="16px" viewBox="0 0 16 16" version="1.1">
<g id="surface1">
<path style=" stroke:none;fill-rule:nonzero;fill:#ff6666;fill-opacity:1;" d="M 3.941406 0 C 2.769531 1.476562 2.417969 2.203125 2.839844 3.144531 C 3.222656 3.996094 4.210938 4.429688 3.714844 6.398438 C 4.53125 5.441406 5.179688 4.222656 4.539062 3.238281 C 3.886719 2.238281 3.527344 1.628906 3.941406 0 Z M 7.140625 0 C 5.96875 1.476562 5.617188 2.203125 6.039062 3.144531 C 6.421875 3.996094 7.414062 4.429688 6.914062 6.398438 C 7.730469 5.441406 8.382812 4.222656 7.738281 3.238281 C 7.085938 2.238281 6.730469 1.628906 7.140625 0 Z M 10.339844 0 C 9.167969 1.476562 8.816406 2.203125 9.238281 3.144531 C 9.621094 3.996094 10.613281 4.429688 10.113281 6.398438 C 10.933594 5.441406 11.582031 4.222656 10.941406 3.238281 C 10.285156 2.238281 9.929688 1.628906 10.339844 0 Z M 0.535156 7.464844 L 0.535156 10.667969 C 0.535156 13.867188 2.667969 16 5.867188 16 L 8 16 C 11.199219 16 13.078125 14.328125 13.289062 11.734375 L 13.867188 11.734375 C 15.464844 11.734375 15.464844 10.132812 15.464844 10.132812 L 15.464844 9.066406 C 15.464844 7.464844 13.867188 7.464844 13.867188 7.464844 Z M 13.867188 8.535156 C 14.398438 8.5 14.417969 9.101562 14.417969 9.101562 L 14.417969 10.167969 C 14.417969 10.667969 13.867188 10.667969 13.867188 10.667969 L 13.332031 10.667969 L 13.34375 8.550781 Z M 13.867188 8.535156 "/>
</g>
</svg>
