
<svg xmlns="http://www.w3.org/2000/svg" xmlns:xlink="http://www.w3.org/1999/xlink" width="16px" height="16px" viewBox="0 0 16 16" version="1.1">
<g id="surface1">
<path style=" stroke:none;fill-rule:evenodd;fill:#ff6666;fill-opacity:1;" d="M 5.601562 8 L 2.398438 8 L 2.398438 1.601562 L 5.601562 1.601562 Z M 3.199219 12.800781 C 3.199219 12.359375 3.558594 12 4 12 C 4.441406 12 4.800781 12.359375 4.800781 12.800781 C 4.800781 13.242188 4.441406 13.601562 4 13.601562 C 3.558594 13.601562 3.199219 13.242188 3.199219 12.800781 Z M 12 14.398438 C 11.421875 14.414062 10.878906 14.109375 10.585938 13.609375 C 10.289062 13.109375 10.289062 12.492188 10.585938 11.988281 C 10.878906 11.488281 11.417969 11.1875 12 11.199219 C 12.867188 11.21875 13.5625 11.929688 13.5625 12.800781 C 13.5625 13.671875 12.867188 14.378906 12 14.398438 Z M 13.601562 8 L 10.398438 8 L 10.398438 1.601562 L 13.601562 1.601562 Z M 4 14.398438 C 3.421875 14.414062 2.878906 14.109375 2.585938 13.609375 C 2.289062 13.109375 2.289062 12.492188 2.585938 11.988281 C 2.878906 11.488281 3.417969 11.1875 4 11.199219 C 4.867188 11.21875 5.5625 11.929688 5.5625 12.800781 C 5.5625 13.671875 4.867188 14.378906 4 14.398438 Z M 13.601562 0 L 10.398438 0 C 9.515625 0 8.800781 0.714844 8.800781 1.601562 L 8.800781 14.398438 C 8.800781 15.285156 9.515625 16 10.398438 16 L 13.601562 16 C 14.484375 16 15.199219 15.285156 15.199219 14.398438 L 15.199219 1.601562 C 15.199219 0.714844 14.484375 0 13.601562 0 Z M 5.601562 0 L 2.398438 0 C 1.515625 0 0.800781 0.714844 0.800781 1.601562 L 0.800781 14.398438 C 0.800781 15.285156 1.515625 16 2.398438 16 L 5.601562 16 C 6.484375 16 7.199219 15.285156 7.199219 14.398438 L 7.199219 1.601562 C 7.199219 0.714844 6.484375 0 5.601562 0 Z M 11.199219 12.800781 C 11.199219 12.359375 11.558594 12 12 12 C 12.441406 12 12.800781 12.359375 12.800781 12.800781 C 12.800781 13.242188 12.441406 13.601562 12 13.601562 C 11.558594 13.601562 11.199219 13.242188 11.199219 12.800781 Z M 11.199219 12.800781 "/>
</g>
</svg>
