
<svg xmlns="http://www.w3.org/2000/svg" xmlns:xlink="http://www.w3.org/1999/xlink" width="16px" height="16px" viewBox="0 0 16 16" version="1.1">
<g id="surface1">
<path style=" stroke:none;fill-rule:nonzero;fill:#ff6666;fill-opacity:1;" d="M 5.863281 0 L 4.796875 0.265625 L 4.796875 1.066406 L 5.863281 1.066406 Z M 5.863281 1.066406 L 5.863281 2.132812 L 4.796875 2.132812 L 4.796875 1.066406 C 3.453125 1.082031 2.472656 1.035156 1.667969 1.476562 C 1.269531 1.699219 0.949219 2.074219 0.773438 2.542969 C 0.597656 3.007812 0.535156 3.566406 0.535156 4.265625 L 0.535156 12.800781 C 0.535156 13.5 0.597656 14.058594 0.773438 14.523438 C 0.949219 14.992188 1.269531 15.367188 1.671875 15.585938 C 2.472656 16.03125 3.453125 15.984375 4.796875 16 L 8 16 L 8 14.933594 L 4.796875 14.933594 C 3.453125 14.917969 2.570312 14.871094 2.179688 14.652344 C 1.984375 14.546875 1.871094 14.425781 1.765625 14.152344 C 1.664062 13.875 1.597656 13.429688 1.597656 12.800781 L 1.597656 7.464844 C 1.597656 6.835938 1.664062 6.394531 1.765625 6.117188 C 1.871094 5.839844 1.984375 5.71875 2.179688 5.613281 C 2.570312 5.394531 3.453125 5.347656 4.804688 5.332031 L 11.195312 5.332031 C 12.539062 5.347656 13.421875 5.398438 13.8125 5.613281 C 14.007812 5.71875 14.121094 5.839844 14.226562 6.117188 C 14.332031 6.394531 14.398438 7.464844 14.398438 7.464844 L 14.398438 9.601562 L 14.402344 9.601562 L 14.402344 12.800781 C 14.402344 13.429688 14.335938 13.875 14.234375 14.152344 C 14.128906 14.425781 14.015625 14.546875 13.820312 14.652344 C 13.429688 14.871094 12.546875 14.917969 11.203125 14.933594 L 8.003906 14.933594 L 8.003906 16 L 11.203125 16 C 12.546875 15.984375 13.527344 16.03125 14.328125 15.585938 C 14.730469 15.367188 15.050781 14.992188 15.226562 14.523438 C 15.402344 14.058594 15.464844 13.5 15.464844 12.800781 L 15.464844 4.265625 C 15.464844 3.566406 15.398438 3.007812 15.222656 2.542969 C 15.0625 2.09375 14.746094 1.714844 14.332031 1.476562 C 13.527344 1.035156 12.546875 1.082031 11.203125 1.066406 L 11.203125 2.132812 L 10.136719 2.132812 L 10.136719 1.066406 L 11.195312 1.066406 L 11.195312 0 L 10.128906 0.265625 L 10.128906 1.066406 Z M 5.863281 1.066406 "/>
</g>
</svg>
