
<svg xmlns="http://www.w3.org/2000/svg" xmlns:xlink="http://www.w3.org/1999/xlink" width="16px" height="16px" viewBox="0 0 16 16" version="1.1">
<g id="surface1">
<path style=" stroke:none;fill-rule:nonzero;fill:#ff6666;fill-opacity:1;" d="M 8 16 C 4.136719 16 1 14.964844 1 13.707031 L 1 11.414062 C 1 11.21875 1.101562 11.019531 1.25 10.847656 C 2.027344 11.832031 4.738281 12.574219 8 12.574219 C 11.261719 12.574219 13.972656 11.832031 14.75 10.847656 C 14.898438 11.019531 15 11.21875 15 11.414062 L 15 13.707031 C 15 14.964844 11.863281 16 8 16 Z M 8 11.414062 C 4.136719 11.414062 1 10.378906 1 9.121094 L 1 6.828125 C 1 6.707031 1.050781 6.582031 1.101562 6.484375 L 1.25 6.261719 C 2.027344 7.25 4.738281 7.988281 8 7.988281 C 11.261719 7.988281 13.972656 7.25 14.75 6.261719 L 14.898438 6.484375 C 14.949219 6.605469 15 6.730469 15 6.828125 L 15 9.121094 C 15 10.402344 11.863281 11.414062 8 11.414062 Z M 8 6.855469 C 4.136719 6.855469 1 5.816406 1 4.5625 L 1 2.292969 C 1 1.035156 4.136719 0 8 0 C 11.863281 0 15 1.035156 15 2.292969 L 15 4.5625 C 15 5.816406 11.863281 6.855469 8 6.855469 Z M 8 1.109375 C 5.414062 1.109375 3.332031 1.628906 3.332031 2.242188 C 3.332031 2.859375 5.414062 3.378906 8 3.378906 C 10.585938 3.378906 12.667969 2.859375 12.667969 2.242188 C 12.667969 1.628906 10.585938 1.109375 8 1.109375 Z M 8 1.109375 "/>
</g>
</svg>
