
<svg xmlns="http://www.w3.org/2000/svg" xmlns:xlink="http://www.w3.org/1999/xlink" width="16px" height="16px" viewBox="0 0 16 16" version="1.1">
<g id="surface1">
<path style=" stroke:none;fill-rule:nonzero;fill:#ff6666;fill-opacity:1;" d="M 9.5625 10.167969 C 9.371094 10.195312 9.175781 10.144531 9.023438 10.027344 C 8.871094 9.910156 8.769531 9.738281 8.746094 9.546875 C 8.71875 9.359375 8.769531 9.164062 8.886719 9.011719 C 9.003906 8.859375 9.175781 8.757812 9.367188 8.730469 C 9.507812 8.710938 9.652344 8.699219 9.800781 8.699219 C 10.09375 8.699219 10.390625 8.738281 10.679688 8.808594 C 11.074219 8.898438 11.445312 9.066406 11.773438 9.304688 C 12.183594 9.601562 12.503906 9.996094 12.714844 10.460938 C 12.835938 10.726562 12.925781 11.007812 12.984375 11.296875 C 13.050781 11.628906 13.085938 11.96875 13.085938 12.304688 L 13.085938 12.359375 C 13.089844 12.710938 13.054688 13.058594 12.984375 13.402344 C 12.925781 13.699219 12.828125 13.992188 12.695312 14.261719 C 12.46875 14.730469 12.125 15.132812 11.695312 15.421875 C 11.351562 15.652344 10.96875 15.816406 10.566406 15.90625 C 10.28125 15.96875 9.996094 16 9.703125 16 C 9.597656 16 9.492188 15.996094 9.386719 15.984375 C 9.195312 15.964844 9.019531 15.867188 8.902344 15.71875 C 8.777344 15.570312 8.722656 15.378906 8.742188 15.1875 C 8.761719 14.992188 8.859375 14.820312 9.007812 14.699219 C 9.15625 14.574219 9.347656 14.519531 9.539062 14.539062 C 9.589844 14.542969 9.640625 14.546875 9.691406 14.546875 C 9.882812 14.546875 10.066406 14.523438 10.25 14.484375 C 10.472656 14.4375 10.6875 14.347656 10.882812 14.21875 C 11.097656 14.070312 11.273438 13.867188 11.386719 13.632812 C 11.464844 13.464844 11.523438 13.289062 11.5625 13.113281 C 11.609375 12.867188 11.636719 12.617188 11.632812 12.371094 C 11.632812 12.371094 11.632812 12.367188 11.632812 12.367188 L 11.632812 12.3125 C 11.632812 12.066406 11.609375 11.816406 11.5625 11.578125 C 11.523438 11.402344 11.46875 11.226562 11.394531 11.0625 C 11.289062 10.835938 11.125 10.628906 10.925781 10.480469 C 10.746094 10.359375 10.550781 10.265625 10.34375 10.21875 C 10.160156 10.175781 9.976562 10.15625 9.789062 10.15625 C 9.710938 10.15625 9.640625 10.15625 9.5625 10.167969 Z M 9.5625 10.167969 "/>
<path style=" stroke:none;fill-rule:nonzero;fill:#ff6666;fill-opacity:1;" d="M 8.726562 9.445312 C 8.726562 9.253906 8.804688 9.066406 8.941406 8.929688 C 9.074219 8.796875 9.261719 8.71875 9.453125 8.71875 C 9.644531 8.71875 9.832031 8.796875 9.964844 8.929688 C 10.105469 9.066406 10.179688 9.253906 10.179688 9.445312 L 10.179688 15.257812 C 10.179688 15.449219 10.105469 15.632812 9.964844 15.769531 C 9.832031 15.90625 9.644531 15.984375 9.453125 15.984375 C 9.261719 15.984375 9.074219 15.90625 8.941406 15.769531 C 8.804688 15.632812 8.726562 15.449219 8.726562 15.257812 Z M 8.726562 9.445312 "/>
<path style=" stroke:none;fill-rule:evenodd;fill:#ff6666;fill-opacity:1;" d="M 5.867188 13.042969 L 4.921875 13.042969 C 4.730469 13.042969 4.546875 12.964844 4.410156 12.832031 C 4.273438 12.695312 4.195312 12.507812 4.195312 12.316406 C 4.195312 12.125 4.273438 11.9375 4.410156 11.804688 C 4.546875 11.664062 4.730469 11.589844 4.921875 11.589844 L 5.867188 11.589844 L 5.867188 10.753906 C 5.867188 10.746094 5.867188 10.738281 5.867188 10.730469 C 5.871094 10.613281 5.847656 10.496094 5.796875 10.386719 C 5.773438 10.347656 5.738281 10.3125 5.699219 10.289062 C 5.601562 10.230469 5.484375 10.203125 5.371094 10.210938 C 5.371094 10.210938 5.367188 10.210938 5.363281 10.210938 C 5.347656 10.210938 5.328125 10.210938 5.3125 10.210938 L 3.6875 10.210938 C 3.496094 10.210938 3.308594 10.132812 3.175781 9.996094 C 3.039062 9.859375 2.960938 9.675781 2.960938 9.480469 C 2.960938 9.289062 3.039062 9.105469 3.175781 8.96875 C 3.308594 8.832031 3.496094 8.757812 3.6875 8.757812 L 5.289062 8.757812 C 5.320312 8.757812 5.34375 8.757812 5.375 8.757812 C 5.753906 8.75 6.132812 8.855469 6.460938 9.050781 C 6.726562 9.214844 6.9375 9.441406 7.085938 9.71875 C 7.246094 10.042969 7.328125 10.402344 7.320312 10.765625 L 7.320312 13.945312 C 7.332031 14.3125 7.242188 14.683594 7.0625 15.015625 C 6.90625 15.289062 6.679688 15.515625 6.410156 15.671875 C 6.085938 15.859375 5.71875 15.953125 5.34375 15.949219 C 5.328125 15.949219 5.3125 15.949219 5.296875 15.949219 L 3.6875 15.949219 C 3.496094 15.949219 3.308594 15.871094 3.175781 15.738281 C 3.039062 15.601562 2.960938 15.414062 2.960938 15.222656 C 2.960938 15.03125 3.039062 14.84375 3.175781 14.710938 C 3.308594 14.570312 3.496094 14.496094 3.6875 14.496094 L 5.355469 14.496094 C 5.472656 14.5 5.585938 14.472656 5.6875 14.410156 C 5.730469 14.386719 5.765625 14.351562 5.796875 14.308594 C 5.847656 14.203125 5.871094 14.089844 5.867188 13.972656 C 5.867188 13.964844 5.867188 13.957031 5.867188 13.949219 Z M 11.671875 1.546875 C 11.640625 1.53125 11.609375 1.523438 11.574219 1.519531 C 11.355469 1.472656 11.132812 1.449219 10.910156 1.453125 C 10.8125 1.453125 10.714844 1.464844 10.617188 1.484375 C 10.570312 1.496094 10.53125 1.515625 10.492188 1.535156 C 10.421875 1.59375 10.363281 1.660156 10.335938 1.742188 C 10.265625 1.9375 10.21875 2.140625 10.210938 2.347656 C 10.183594 2.65625 10.175781 2.960938 10.179688 3.265625 C 10.179688 3.269531 10.179688 3.273438 10.179688 3.277344 L 10.179688 3.992188 C 10.179688 3.996094 10.179688 3.996094 10.179688 4 C 10.175781 4.308594 10.183594 4.613281 10.210938 4.917969 C 10.21875 5.125 10.265625 5.328125 10.335938 5.527344 C 10.363281 5.605469 10.421875 5.679688 10.492188 5.730469 C 10.53125 5.753906 10.570312 5.769531 10.617188 5.78125 C 10.710938 5.804688 10.808594 5.816406 10.90625 5.8125 C 11.140625 5.820312 11.367188 5.800781 11.597656 5.753906 C 11.628906 5.75 11.664062 5.738281 11.699219 5.730469 C 11.769531 5.582031 11.878906 5.460938 12.027344 5.382812 C 12.171875 5.3125 12.339844 5.285156 12.496094 5.320312 C 12.65625 5.347656 12.804688 5.433594 12.90625 5.558594 C 13.015625 5.679688 13.078125 5.835938 13.085938 5.996094 L 13.085938 6.007812 C 13.085938 6.027344 13.085938 6.046875 13.085938 6.0625 C 13.082031 6.222656 13.035156 6.375 12.957031 6.515625 C 12.851562 6.695312 12.699219 6.84375 12.515625 6.945312 C 12.3125 7.066406 12.085938 7.144531 11.851562 7.1875 C 11.539062 7.242188 11.222656 7.273438 10.902344 7.265625 C 10.6875 7.269531 10.476562 7.242188 10.265625 7.195312 C 10.0625 7.144531 9.863281 7.054688 9.6875 6.9375 C 9.363281 6.71875 9.113281 6.402344 8.972656 6.035156 C 8.855469 5.707031 8.78125 5.367188 8.761719 5.015625 C 8.734375 4.675781 8.722656 4.332031 8.726562 3.984375 L 8.726562 3.28125 C 8.722656 2.9375 8.734375 2.59375 8.761719 2.25 C 8.78125 1.902344 8.855469 1.558594 8.972656 1.230469 C 9.113281 0.863281 9.363281 0.550781 9.6875 0.328125 C 9.863281 0.210938 10.0625 0.128906 10.265625 0.078125 C 10.472656 0.0273438 10.6875 0 10.902344 0 C 11.230469 -0.00390625 11.554688 0.0273438 11.871094 0.09375 C 12.117188 0.144531 12.347656 0.238281 12.554688 0.378906 C 12.738281 0.492188 12.878906 0.65625 12.976562 0.851562 C 13.046875 0.984375 13.082031 1.128906 13.085938 1.28125 C 13.085938 1.296875 13.085938 1.3125 13.085938 1.324219 L 13.085938 1.335938 C 13.078125 1.507812 13.015625 1.667969 12.902344 1.796875 C 12.789062 1.921875 12.632812 2.003906 12.464844 2.027344 C 12.296875 2.054688 12.128906 2.015625 11.980469 1.929688 C 11.835938 1.84375 11.726562 1.707031 11.671875 1.546875 Z M 4.367188 3.277344 L 4.367188 3.992188 C 4.367188 3.996094 4.367188 3.996094 4.367188 4 C 4.363281 4.308594 4.371094 4.613281 4.394531 4.917969 C 4.40625 5.125 4.449219 5.328125 4.523438 5.527344 C 4.554688 5.605469 4.605469 5.679688 4.679688 5.730469 C 4.71875 5.753906 4.761719 5.769531 4.804688 5.78125 C 4.898438 5.804688 4.996094 5.816406 5.09375 5.8125 C 5.324219 5.820312 5.554688 5.800781 5.785156 5.753906 C 5.816406 5.75 5.851562 5.738281 5.886719 5.730469 C 5.953125 5.582031 6.066406 5.460938 6.214844 5.382812 C 6.359375 5.3125 6.523438 5.285156 6.683594 5.320312 C 6.84375 5.347656 6.988281 5.433594 7.097656 5.558594 C 7.203125 5.679688 7.265625 5.835938 7.273438 5.996094 L 7.273438 6.007812 C 7.273438 6.027344 7.273438 6.046875 7.273438 6.0625 C 7.269531 6.222656 7.222656 6.375 7.144531 6.515625 C 7.035156 6.695312 6.886719 6.84375 6.703125 6.945312 C 6.5 7.066406 6.273438 7.144531 6.039062 7.1875 C 5.726562 7.242188 5.410156 7.273438 5.089844 7.265625 C 4.875 7.269531 4.664062 7.242188 4.453125 7.195312 C 4.25 7.144531 4.050781 7.054688 3.871094 6.9375 C 3.550781 6.71875 3.300781 6.402344 3.160156 6.035156 C 3.039062 5.707031 2.96875 5.367188 2.945312 5.015625 C 2.921875 4.675781 2.910156 4.332031 2.914062 3.984375 L 2.914062 3.28125 C 2.910156 2.9375 2.921875 2.59375 2.945312 2.25 C 2.96875 1.902344 3.039062 1.558594 3.160156 1.230469 C 3.300781 0.863281 3.550781 0.550781 3.871094 0.328125 C 4.050781 0.210938 4.25 0.128906 4.453125 0.078125 C 4.664062 0.0273438 4.875 0 5.089844 0 C 5.417969 -0.00390625 5.738281 0.0273438 6.058594 0.09375 C 6.304688 0.144531 6.535156 0.238281 6.742188 0.378906 C 6.925781 0.492188 7.066406 0.65625 7.164062 0.851562 C 7.234375 0.984375 7.269531 1.128906 7.273438 1.28125 C 7.273438 1.296875 7.273438 1.3125 7.273438 1.324219 L 7.273438 1.335938 C 7.265625 1.507812 7.199219 1.667969 7.089844 1.796875 C 6.976562 1.921875 6.820312 2.003906 6.652344 2.027344 C 6.484375 2.054688 6.316406 2.015625 6.167969 1.929688 C 6.023438 1.84375 5.914062 1.707031 5.859375 1.546875 C 5.828125 1.53125 5.800781 1.523438 5.765625 1.519531 C 5.542969 1.472656 5.320312 1.449219 5.097656 1.453125 C 5 1.453125 4.902344 1.464844 4.804688 1.484375 C 4.761719 1.496094 4.71875 1.515625 4.679688 1.535156 C 4.605469 1.59375 4.554688 1.660156 4.523438 1.742188 C 4.449219 1.9375 4.40625 2.140625 4.394531 2.347656 C 4.371094 2.65625 4.363281 2.960938 4.367188 3.265625 C 4.367188 3.269531 4.367188 3.273438 4.367188 3.277344 Z M 4.367188 3.277344 "/>
</g>
</svg>
