
<svg xmlns="http://www.w3.org/2000/svg" xmlns:xlink="http://www.w3.org/1999/xlink" width="16px" height="16px" viewBox="0 0 16 16" version="1.1">
<g id="surface1">
<path style=" stroke:none;fill-rule:evenodd;fill:#ff6666;fill-opacity:1;" d="M 0 0.359375 L 0 8.539062 C 0 8.859375 0.21875 8.976562 0.484375 8.800781 L 6.527344 4.773438 C 6.792969 4.59375 6.792969 4.304688 6.527344 4.125 L 0.484375 0.0976562 C 0.21875 -0.0820312 0 0.0351562 0 0.359375 Z M 3.679688 8.785156 L 3.679688 15.640625 C 3.679688 15.964844 3.898438 16.082031 4.164062 15.902344 L 9.210938 12.539062 C 9.480469 12.359375 9.480469 12.070312 9.210938 11.890625 L 4.164062 8.527344 C 3.898438 8.347656 3.679688 8.464844 3.679688 8.785156 Z M 11.699219 5.722656 L 11.699219 10.671875 C 11.699219 10.992188 11.914062 11.109375 12.183594 10.933594 L 15.800781 8.523438 C 16.066406 8.34375 16.066406 8.054688 15.800781 7.875 L 12.183594 5.464844 C 11.914062 5.285156 11.699219 5.402344 11.699219 5.722656 Z M 11.699219 5.722656 "/>
</g>
</svg>
