
<svg xmlns="http://www.w3.org/2000/svg" xmlns:xlink="http://www.w3.org/1999/xlink" width="16px" height="16px" viewBox="0 0 16 16" version="1.1">
<g id="surface1">
<path style=" stroke:none;fill-rule:nonzero;fill:#ff6666;fill-opacity:1;" d="M 4.324219 1.601562 C 1.941406 1.601562 0 3.386719 0 5.601562 C 0 6.75 0.519531 7.800781 1.359375 8.535156 L 7.890625 14.402344 L 14.640625 8.535156 C 15.480469 7.804688 16 6.75 16 5.601562 C 16 3.386719 14.058594 1.601562 11.675781 1.601562 C 10.113281 1.601562 8.753906 2.371094 8 3.535156 C 7.246094 2.371094 5.886719 1.601562 4.324219 1.601562 Z M 4.847656 2.515625 C 6.191406 2.515625 7.355469 3.175781 8 4.171875 C 8.644531 3.175781 9.808594 2.515625 11.152344 2.515625 C 13.191406 2.515625 14.855469 4.046875 14.855469 5.945312 C 14.855469 6.929688 14.410156 7.832031 13.691406 8.457031 L 7.90625 13.484375 L 2.308594 8.457031 C 1.589844 7.832031 1.144531 6.929688 1.144531 5.945312 C 1.144531 4.046875 2.808594 2.515625 4.847656 2.515625 Z M 4.847656 2.515625 "/>
</g>
</svg>
