
<svg xmlns="http://www.w3.org/2000/svg" xmlns:xlink="http://www.w3.org/1999/xlink" width="16px" height="16px" viewBox="0 0 16 16" version="1.1">
<g id="surface1">
<path style=" stroke:none;fill-rule:nonzero;fill:#ff6666;fill-opacity:1;" d="M 8 0 C 3.582031 0 0 3.582031 0 8 C 0 12.417969 3.582031 16 8 16 C 12.417969 16 16 12.417969 16 8 C 16 3.582031 12.417969 0 8 0 Z M 8 1.230469 C 11.738281 1.230469 14.769531 4.261719 14.769531 8 C 14.769531 11.738281 11.738281 14.769531 8 14.769531 C 4.261719 14.769531 1.230469 11.738281 1.230469 8 C 1.230469 4.261719 4.261719 1.230469 8 1.230469 Z M 7.382812 3.691406 L 7.382812 7.382812 L 4.617188 7.382812 L 4.617188 8.617188 L 8.617188 8.617188 L 8.617188 3.691406 Z M 7.382812 3.691406 "/>
</g>
</svg>
