
<svg xmlns="http://www.w3.org/2000/svg" xmlns:xlink="http://www.w3.org/1999/xlink" width="16px" height="16px" viewBox="0 0 16 16" version="1.1">
<g id="surface1">
<path style=" stroke:none;fill-rule:nonzero;fill:#ff6666;fill-opacity:1;" d="M 10.671875 5.804688 L 15.285156 5.804688 L 15.285156 6.210938 C 14.714844 6.277344 14.242188 6.417969 13.867188 6.628906 C 13.648438 6.742188 13.0625 7.589844 12.109375 9.179688 C 10.980469 11.023438 10.367188 12.019531 10.265625 12.160156 C 11.429688 13.5625 12.523438 14.261719 13.550781 14.261719 C 14.605469 14.261719 15.285156 13.707031 15.59375 12.601562 L 16 12.894531 C 15.496094 14.964844 14.363281 16 12.605469 16 C 11.34375 16 10.054688 15.265625 8.734375 13.796875 C 7.074219 15.265625 5.472656 16 3.933594 16 C 2.855469 16 1.953125 15.722656 1.21875 15.164062 C 0.40625 14.539062 0 13.691406 0 12.625 C 0 10.5625 1.523438 8.71875 4.570312 7.089844 C 3.96875 5.734375 3.671875 4.617188 3.671875 3.738281 C 3.671875 2.601562 4.027344 1.695312 4.734375 1.015625 C 5.445312 0.339844 6.367188 0 7.496094 0 C 8.351562 0 9.054688 0.246094 9.605469 0.734375 C 10.175781 1.230469 10.460938 1.902344 10.460938 2.742188 C 10.460938 4.242188 9.257812 5.601562 6.847656 6.820312 C 7.886719 8.664062 8.851562 10.21875 9.746094 11.484375 C 11.035156 9.894531 11.679688 8.570312 11.679688 7.507812 C 11.679688 6.652344 11.34375 6.21875 10.671875 6.210938 L 10.671875 5.804688 M 6.460938 6.074219 C 8.277344 5.195312 9.1875 4.070312 9.1875 2.699219 C 9.1875 2.179688 9.027344 1.734375 8.703125 1.367188 C 8.375 1.003906 7.964844 0.824219 7.472656 0.824219 C 6.910156 0.824219 6.441406 1.019531 6.078125 1.410156 C 5.71875 1.804688 5.539062 2.296875 5.539062 2.890625 C 5.539062 3.597656 5.847656 4.660156 6.460938 6.074219 M 8.164062 13.15625 C 6.589844 10.925781 5.511719 9.160156 4.933594 7.859375 C 3.160156 8.859375 2.273438 10.109375 2.273438 11.609375 C 2.273438 12.488281 2.527344 13.210938 3.03125 13.777344 C 3.546875 14.347656 4.230469 14.632812 5.089844 14.632812 C 5.96875 14.632812 6.992188 14.140625 8.164062 13.15625 "/>
</g>
</svg>
