
<svg xmlns="http://www.w3.org/2000/svg" xmlns:xlink="http://www.w3.org/1999/xlink" width="16px" height="16px" viewBox="0 0 16 16" version="1.1">
<g id="surface1">
<path style=" stroke:none;fill-rule:nonzero;fill:#ff6666;fill-opacity:1;" d="M 4.570312 11.035156 L 4.113281 12.300781 C 5.296875 12.777344 6.398438 13.027344 7.417969 13.050781 L 7.417969 16 L 8.644531 16 L 8.644531 12.988281 C 9.933594 12.820312 10.847656 12.320312 11.367188 11.554688 C 11.742188 11.011719 11.886719 10.617188 11.886719 9.765625 C 11.886719 8.851562 11.054688 8.082031 10.367188 7.75 C 9.558594 7.355469 8.476562 6.980469 7.585938 6.691406 C 6.960938 6.484375 6.089844 6.152344 6.089844 5.445312 C 6.089844 5.175781 6.171875 4.945312 6.335938 4.71875 C 6.792969 4.074219 7.542969 3.949219 8.726562 3.949219 C 9.265625 3.949219 9.996094 4.074219 10.910156 4.320312 L 11.324219 3.054688 C 11.117188 2.992188 10.972656 2.929688 10.867188 2.910156 L 10.640625 2.847656 C 10.453125 2.785156 10.097656 2.703125 9.847656 2.703125 C 9.640625 2.703125 9.390625 2.640625 9.183594 2.640625 L 8.644531 2.640625 L 8.644531 0 L 7.417969 0 L 7.417969 2.761719 C 6.710938 2.886719 6.152344 3.097656 5.714844 3.367188 C 5.070312 3.78125 4.363281 4.507812 4.363281 5.589844 C 4.363281 6.378906 4.65625 7.003906 5.257812 7.4375 C 5.527344 7.648438 5.839844 7.832031 6.171875 8 C 6.816406 8.332031 7.5625 8.476562 8.25 8.726562 C 9.058594 9.039062 10.058594 9.144531 10.058594 10.246094 C 10.058594 10.578125 9.933594 10.867188 9.683594 11.117188 C 9.183594 11.617188 8.4375 11.742188 7.460938 11.742188 C 6.152344 11.742188 5.671875 11.492188 4.570312 11.035156 "/>
</g>
</svg>
