
<svg xmlns="http://www.w3.org/2000/svg" xmlns:xlink="http://www.w3.org/1999/xlink" width="16px" height="16px" viewBox="0 0 16 16" version="1.1">
<g id="surface1">
<path style=" stroke:none;fill-rule:nonzero;fill:#ff6666;fill-opacity:1;" d="M 2.285156 0 C 1.019531 0 0 1.019531 0 2.285156 L 0 13.714844 C 0 14.980469 1.019531 16 2.285156 16 L 13.714844 16 C 14.980469 16 16 14.980469 16 13.714844 L 16 2.285156 C 16 1.019531 14.980469 0 13.714844 0 Z M 2.285156 1.144531 L 13.714844 1.144531 C 14.347656 1.144531 14.855469 1.652344 14.855469 2.285156 L 14.855469 12.570312 C 14.855469 13.203125 14.347656 13.714844 13.714844 13.714844 L 2.285156 13.714844 C 1.652344 13.714844 1.144531 13.203125 1.144531 12.570312 L 1.144531 2.285156 C 1.144531 1.652344 1.652344 1.144531 2.285156 1.144531 Z M 9.890625 5.707031 C 8.988281 5.707031 8.121094 6 7.285156 6.566406 L 7.714844 7.535156 C 8.070312 7.296875 8.417969 7.125 8.75 7 C 9.089844 6.867188 9.402344 6.820312 9.75 6.820312 C 10.265625 6.820312 10.65625 6.941406 10.929688 7.214844 C 11.203125 7.480469 11.429688 7.839844 11.429688 8.320312 L 11.429688 8.671875 C 11.1875 8.582031 10.835938 8.507812 10.535156 8.457031 C 10.242188 8.40625 9.941406 8.378906 9.644531 8.386719 C 9.238281 8.386719 8.875 8.429688 8.535156 8.527344 C 8.203125 8.628906 7.890625 8.773438 7.644531 8.957031 C 7.402344 9.140625 7.238281 9.351562 7.105469 9.601562 C 6.976562 9.847656 6.890625 10.230469 6.890625 10.535156 C 6.890625 10.828125 6.964844 11.109375 7.070312 11.359375 C 7.1875 11.605469 7.308594 11.816406 7.5 12 C 7.699219 12.183594 7.949219 12.320312 8.214844 12.429688 C 8.488281 12.527344 8.792969 12.570312 9.105469 12.570312 C 9.597656 12.570312 10.042969 12.484375 10.464844 12.285156 C 10.894531 12.078125 11.246094 11.773438 11.535156 11.394531 L 11.570312 11.785156 C 11.597656 11.976562 11.683594 12.152344 11.820312 12.285156 C 11.960938 12.410156 12.164062 12.484375 12.429688 12.5 C 12.519531 12.5 12.640625 12.507812 12.75 12.5 C 12.867188 12.492188 12.976562 12.488281 13.105469 12.464844 L 13.105469 11.285156 C 12.964844 11.277344 12.761719 11.246094 12.703125 11.179688 C 12.621094 11.078125 12.574219 10.953125 12.570312 10.820312 L 12.570312 8.386719 C 12.570312 7.53125 12.460938 6.878906 11.964844 6.421875 C 11.46875 5.964844 10.789062 5.707031 9.890625 5.707031 Z M 9.789062 9.214844 C 10.039062 9.214844 10.484375 9.273438 10.742188 9.324219 C 11.007812 9.375 11.195312 9.445312 11.429688 9.535156 L 11.429688 10.394531 C 11.429688 10.558594 11.28125 10.742188 11.109375 10.890625 C 10.621094 11.328125 10.03125 11.382812 9.464844 11.429688 C 9.089844 11.429688 8.625 11.449219 8.386719 11.234375 C 8.144531 11.007812 8 10.753906 8 10.429688 C 8 10.078125 8.335938 9.777344 8.644531 9.570312 C 8.976562 9.332031 9.378906 9.207031 9.789062 9.21875 Z M 9.789062 9.214844 "/>
</g>
</svg>
