
<svg xmlns="http://www.w3.org/2000/svg" xmlns:xlink="http://www.w3.org/1999/xlink" width="16px" height="16px" viewBox="0 0 16 16" version="1.1">
<g id="surface1">
<path style=" stroke:none;fill-rule:nonzero;fill:#ff6666;fill-opacity:1;" d="M 8 0 C 3.589844 0 0 3.589844 0 8 C 0 12.410156 3.589844 16 8 16 C 12.410156 16 16 12.410156 16 8 C 16 3.589844 12.410156 0 8 0 Z M 8 1 C 11.871094 1 15 4.128906 15 8 C 15 11.871094 11.871094 15 8 15 C 4.128906 15 1 11.871094 1 8 C 1 4.128906 4.128906 1 8 1 Z M 5.976562 4.496094 C 5.570312 4.527344 5.25 5.414062 5.25 6.496094 C 5.25 9.167969 6.75 9.167969 6.75 6.496094 C 6.75 5.371094 6.402344 4.464844 5.980469 4.496094 Z M 9.976562 4.496094 C 9.570312 4.527344 9.25 5.414062 9.25 6.496094 C 9.25 9.167969 10.75 9.167969 10.75 6.496094 C 10.75 5.371094 10.402344 4.464844 9.980469 4.496094 Z M 5.175781 9.828125 L 4.46875 10.535156 C 5.402344 11.476562 6.675781 12.003906 8 12.003906 C 9.324219 12.003906 10.597656 11.476562 11.53125 10.535156 L 10.824219 9.828125 C 10.078125 10.582031 9.058594 11.003906 8 11.003906 C 6.941406 11.003906 5.921875 10.582031 5.175781 9.828125 Z M 5.175781 9.828125 "/>
</g>
</svg>
