
<svg xmlns="http://www.w3.org/2000/svg" xmlns:xlink="http://www.w3.org/1999/xlink" width="16px" height="16px" viewBox="0 0 16 16" version="1.1">
<g id="surface1">
<path style=" stroke:none;fill-rule:nonzero;fill:#ff6666;fill-opacity:1;" d="M 16 6.316406 C 16 6.773438 15.816406 7.078125 15.453125 7.230469 C 15.226562 7.324219 14.828125 7.371094 14.265625 7.371094 C 13.613281 7.371094 13.140625 7.316406 12.847656 7.210938 C 12.390625 7.050781 12.148438 6.71875 12.113281 6.207031 C 12.933594 6.332031 13.738281 6.390625 14.527344 6.390625 C 15.019531 6.390625 15.511719 6.367188 16 6.316406 M 16 5.949219 C 15.53125 6 15.160156 6.023438 14.882812 6.023438 C 14.648438 6.023438 13.660156 5.957031 11.910156 5.820312 C 11.84375 5.332031 11.453125 5.03125 10.730469 4.917969 L 10.761719 5.992188 C 11.453125 6.601562 12.085938 7.644531 12.667969 9.113281 C 13.234375 10.519531 13.515625 11.695312 13.515625 12.644531 C 13.515625 13.546875 13.332031 14 12.960938 14 L 3.152344 14 C 2.6875 14 2.453125 13.625 2.453125 12.871094 C 2.453125 11.9375 2.742188 10.726562 3.324219 9.230469 C 3.9375 7.667969 4.582031 6.589844 5.253906 5.992188 L 5.253906 4.917969 C 4.546875 5.023438 4.160156 5.324219 4.089844 5.820312 C 3.503906 5.957031 2.679688 6.023438 1.621094 6.023438 C 0.984375 6.023438 0.445312 6 0 5.949219 C 0.0585938 4.523438 0.53125 3.550781 1.417969 3.03125 C 2.003906 2.679688 3.066406 2.410156 4.601562 2.214844 C 5.722656 2.070312 6.855469 2 8.007812 2 C 11.175781 2 13.367188 2.34375 14.582031 3.03125 C 15.496094 3.535156 15.96875 4.507812 16 5.949219 M 10.160156 4.808594 C 9.394531 4.601562 8.664062 4.496094 7.976562 4.496094 C 7.3125 4.496094 6.585938 4.601562 5.792969 4.808594 L 6.191406 5.734375 L 9.777344 5.734375 L 10.160156 4.808594 M 10.695312 9.328125 C 10.695312 8.746094 10.394531 8.277344 9.792969 7.917969 C 9.296875 7.625 8.703125 7.476562 8.007812 7.476562 C 7.335938 7.476562 6.738281 7.632812 6.222656 7.941406 C 5.609375 8.285156 5.304688 8.746094 5.304688 9.328125 C 5.304688 9.917969 5.609375 10.382812 6.222656 10.726562 C 6.738281 11.035156 7.335938 11.191406 8.007812 11.191406 C 8.679688 11.191406 9.277344 11.035156 9.792969 10.726562 C 10.394531 10.382812 10.695312 9.917969 10.695312 9.328125 M 12.050781 12.902344 L 12.210938 12.75 L 12.050781 12.601562 L 4.007812 12.601562 L 3.835938 12.75 L 4.007812 12.902344 L 12.050781 12.902344 M 10.28125 8.617188 C 10.28125 8.855469 10.148438 8.972656 9.882812 8.972656 C 9.597656 8.972656 9.457031 8.855469 9.457031 8.617188 C 9.457031 8.367188 9.597656 8.242188 9.882812 8.242188 C 10.148438 8.242188 10.28125 8.367188 10.28125 8.617188 M 9.425781 8.070312 C 9.425781 8.320312 9.289062 8.445312 9.011719 8.445312 C 8.742188 8.445312 8.609375 8.320312 8.609375 8.070312 C 8.609375 7.839844 8.742188 7.726562 9.011719 7.726562 C 9.289062 7.726562 9.425781 7.839844 9.425781 8.070312 M 10.542969 9.492188 C 10.542969 9.742188 10.402344 9.867188 10.125 9.867188 C 9.859375 9.867188 9.726562 9.742188 9.726562 9.492188 C 9.726562 9.253906 9.859375 9.136719 10.125 9.136719 C 10.402344 9.136719 10.542969 9.253906 10.542969 9.492188 M 8.179688 7.917969 C 8.179688 8.171875 8.039062 8.296875 7.753906 8.296875 C 7.488281 8.296875 7.355469 8.171875 7.355469 7.917969 C 7.355469 7.683594 7.488281 7.5625 7.753906 7.5625 C 8.039062 7.5625 8.179688 7.683594 8.179688 7.917969 M 9.980469 10.328125 C 9.980469 10.574219 9.839844 10.695312 9.5625 10.695312 C 9.296875 10.695312 9.164062 10.574219 9.164062 10.328125 C 9.164062 10.09375 9.296875 9.976562 9.5625 9.976562 C 9.839844 9.976562 9.980469 10.09375 9.980469 10.328125 M 9.679688 9.308594 C 9.679688 9.625 9.476562 9.902344 9.074219 10.148438 C 8.726562 10.339844 8.359375 10.4375 7.976562 10.4375 C 7.601562 10.4375 7.246094 10.339844 6.910156 10.148438 C 6.515625 9.925781 6.320312 9.644531 6.320312 9.308594 C 6.320312 8.984375 6.535156 8.726562 6.957031 8.53125 C 7.300781 8.390625 7.660156 8.316406 8.039062 8.316406 C 8.414062 8.316406 8.765625 8.394531 9.089844 8.554688 C 9.484375 8.726562 9.679688 8.976562 9.679688 9.308594 M 7.023438 8.296875 C 7.023438 8.53125 6.890625 8.652344 6.625 8.652344 C 6.347656 8.652344 6.207031 8.53125 6.207031 8.296875 C 6.207031 8.042969 6.347656 7.917969 6.625 7.917969 C 6.890625 7.917969 7.023438 8.042969 7.023438 8.296875 M 8.960938 10.761719 C 8.960938 11.003906 8.824219 11.125 8.546875 11.125 C 8.28125 11.125 8.148438 11.003906 8.148438 10.761719 C 8.148438 10.523438 8.28125 10.40625 8.546875 10.40625 C 8.824219 10.40625 8.960938 10.523438 8.960938 10.761719 M 6.320312 9.058594 C 6.320312 9.296875 6.1875 9.414062 5.921875 9.414062 C 5.644531 9.414062 5.507812 9.296875 5.507812 9.058594 C 5.507812 8.816406 5.644531 8.695312 5.921875 8.695312 C 6.1875 8.695312 6.320312 8.816406 6.320312 9.058594 M 7.640625 10.695312 C 7.640625 10.933594 7.507812 11.050781 7.242188 11.050781 C 6.964844 11.050781 6.828125 10.933594 6.828125 10.695312 C 6.828125 10.453125 6.964844 10.332031 7.242188 10.328125 C 7.507812 10.332031 7.640625 10.453125 7.640625 10.695312 M 6.558594 10.15625 C 6.558594 10.394531 6.425781 10.511719 6.160156 10.511719 C 5.882812 10.511719 5.742188 10.394531 5.742188 10.15625 C 5.742188 9.914062 5.882812 9.792969 6.160156 9.792969 C 6.425781 9.792969 6.558594 9.914062 6.558594 10.15625 M 3.902344 6.207031 C 3.871094 6.703125 3.59375 7.042969 3.070312 7.230469 C 2.75 7.324219 2.261719 7.371094 1.605469 7.371094 C 1.105469 7.371094 0.738281 7.3125 0.503906 7.199219 C 0.179688 7.03125 0.015625 6.738281 0.015625 6.316406 C 0.496094 6.359375 0.933594 6.378906 1.335938 6.378906 C 2.214844 6.378906 3.070312 6.324219 3.902344 6.207031 "/>
</g>
</svg>
