
<svg xmlns="http://www.w3.org/2000/svg" xmlns:xlink="http://www.w3.org/1999/xlink" width="16px" height="16px" viewBox="0 0 16 16" version="1.1">
<g id="surface1">
<path style=" stroke:none;fill-rule:nonzero;fill:#ff6666;fill-opacity:1;" d="M 3.996094 0 C 2.738281 0.015625 1.816406 -0.0351562 1.0625 0.441406 C 0.671875 0.695312 0.375 1.097656 0.226562 1.582031 C 0.0585938 2.082031 0 2.675781 0 3.429688 L 0 10.285156 C 0 11.039062 0.0585938 11.632812 0.226562 12.132812 C 0.390625 12.636719 0.6875 13.035156 1.0625 13.273438 C 1.816406 13.75 2.738281 13.695312 3.996094 13.714844 L 4.203125 13.714844 L 7.003906 16 L 9.804688 13.714844 L 12.003906 13.714844 C 13.261719 13.695312 14.183594 13.75 14.9375 13.273438 C 15.328125 13.019531 15.625 12.617188 15.773438 12.132812 C 15.9375 11.632812 16 11.035156 16 10.285156 L 16 3.429688 C 16 2.675781 15.9375 2.082031 15.773438 1.582031 C 15.625 1.097656 15.328125 0.695312 14.9375 0.441406 C 14.183594 -0.0351562 13.261719 0.015625 12.003906 0 Z M 4 1.144531 L 12.011719 1.144531 C 13.269531 1.160156 14.101562 1.210938 14.464844 1.441406 C 14.648438 1.554688 14.753906 1.683594 14.851562 1.980469 C 14.949219 2.277344 15.011719 2.753906 15.011719 3.429688 L 15.011719 10.285156 C 15.011719 10.960938 14.949219 11.433594 14.851562 11.730469 C 14.753906 12.027344 14.648438 12.15625 14.464844 12.273438 C 14.097656 12.503906 13.269531 12.554688 12.011719 12.570312 L 4.003906 12.570312 C 2.742188 12.554688 1.910156 12.503906 1.546875 12.273438 C 1.363281 12.15625 1.257812 12.027344 1.160156 11.730469 C 1.0625 11.433594 1 10.960938 1 10.285156 L 1 3.429688 C 1 2.753906 1.0625 2.277344 1.160156 1.980469 C 1.257812 1.683594 1.363281 1.558594 1.546875 1.441406 C 1.910156 1.210938 2.742188 1.160156 4.003906 1.144531 Z M 4 1.144531 "/>
</g>
</svg>
