
<svg xmlns="http://www.w3.org/2000/svg" xmlns:xlink="http://www.w3.org/1999/xlink" width="16px" height="16px" viewBox="0 0 16 16" version="1.1">
<g id="surface1">
<path style=" stroke:none;fill-rule:nonzero;fill:#ff6666;fill-opacity:1;" d="M 2.511719 0 C 0.507812 0 0.507812 2 0.507812 2 L 0.507812 14 C 0.507812 16 2.511719 16 2.511719 16 L 7.515625 16 L 7.515625 15 L 1.507812 15 L 1.507812 1 L 13.527344 1 L 13.527344 6 L 14.527344 6 L 14.527344 2 C 14.527344 0 12.523438 0 12.523438 0 Z M 4.515625 5.003906 C 3.957031 5.003906 3.511719 5.453125 3.511719 6.003906 C 3.511719 6.554688 3.957031 7.003906 4.515625 7.003906 C 5.070312 7.003906 5.515625 6.554688 5.515625 6.003906 C 5.515625 5.453125 5.070312 5.003906 4.515625 5.003906 Z M 10.519531 5.003906 C 9.96875 5.003906 9.523438 5.453125 9.519531 6 L 11.523438 6 C 11.519531 5.453125 11.074219 5.003906 10.519531 5.003906 Z M 12.039062 7.554688 C 10.414062 7.558594 9.101562 8.871094 9.101562 10.496094 C 9.101562 12.117188 10.421875 13.4375 12.046875 13.4375 C 13.671875 13.433594 14.992188 12.117188 14.988281 10.496094 C 14.992188 8.871094 13.671875 7.554688 12.046875 7.554688 C 12.042969 7.550781 12.042969 7.550781 12.039062 7.554688 Z M 4.6875 9.828125 L 3.980469 10.535156 C 4.917969 11.476562 6.191406 12.003906 7.515625 12.003906 L 7.515625 11.003906 C 6.457031 11.003906 5.4375 10.582031 4.6875 9.828125 Z M 9.519531 14 C 9.207031 15.226562 9.519531 16 9.519531 16 L 14.527344 16 C 14.527344 16 14.859375 15 14.527344 14 C 14.34375 14.15625 12.960938 15 12.023438 15 C 11.085938 15 9.878906 14.3125 9.519531 14 Z M 9.519531 14 "/>
</g>
</svg>
