
<svg xmlns="http://www.w3.org/2000/svg" xmlns:xlink="http://www.w3.org/1999/xlink" width="16px" height="16px" viewBox="0 0 16 16" version="1.1">
<g id="surface1">
<path style=" stroke:none;fill-rule:evenodd;fill:#ff6666;fill-opacity:1;" d="M 3.402344 4.523438 C 2.964844 4.71875 2.671875 5.128906 2.671875 5.605469 C 2.671875 6.28125 3.273438 6.832031 4.011719 6.832031 C 4.324219 6.832031 4.613281 6.734375 4.835938 6.5625 C 5.058594 6.746094 5.355469 6.851562 5.679688 6.851562 C 5.960938 6.851562 6.222656 6.773438 6.441406 6.644531 C 6.660156 6.796875 6.9375 6.886719 7.234375 6.886719 C 7.539062 6.886719 7.820312 6.792969 8.039062 6.632812 C 8.265625 6.808594 8.554688 6.910156 8.871094 6.910156 C 9.140625 6.910156 9.394531 6.835938 9.605469 6.714844 C 9.820312 6.839844 10.074219 6.914062 10.351562 6.914062 C 10.652344 6.914062 10.933594 6.820312 11.15625 6.660156 C 11.378906 6.835938 11.671875 6.9375 11.988281 6.9375 C 12.726562 6.9375 13.328125 6.386719 13.328125 5.707031 C 13.328125 5.25 13.050781 4.847656 12.640625 4.644531 C 12.585938 2.070312 10.535156 0 8.019531 0 C 5.539062 0 3.515625 2.007812 3.402344 4.523438 Z M 4.183594 7.28125 L 7.695312 15.824219 L 8.078125 16 L 11.765625 7.339844 Z M 4.183594 7.28125 "/>
</g>
</svg>
