
<svg xmlns="http://www.w3.org/2000/svg" xmlns:xlink="http://www.w3.org/1999/xlink" width="16px" height="16px" viewBox="0 0 16 16" version="1.1">
<g id="surface1">
<path style=" stroke:none;fill-rule:evenodd;fill:#ff6666;fill-opacity:1;" d="M 0.964844 12.507812 C 1.628906 12.519531 14.535156 12.5 15.042969 12.476562 C 15.042969 12.472656 15.042969 12.472656 15.042969 12.46875 C 15.078125 12.289062 15.105469 12.109375 15.125 11.929688 C 15.148438 11.714844 15.164062 11.503906 15.179688 11.289062 C 15.191406 11.042969 15.199219 10.796875 15.207031 10.550781 C 15.214844 10.269531 15.214844 9.988281 15.214844 9.707031 L 15.214844 5.832031 C 15.214844 5.550781 15.214844 5.269531 15.207031 4.988281 C 15.199219 4.742188 15.191406 4.496094 15.179688 4.25 C 15.164062 4.035156 15.148438 3.820312 15.125 3.609375 C 15.105469 3.429688 15.078125 3.246094 15.042969 3.070312 C 15.039062 3.039062 15.03125 3.011719 15.027344 2.984375 C 14.484375 2.988281 1.585938 3.011719 0.964844 3.015625 C 0.960938 3.035156 0.960938 3.050781 0.957031 3.070312 C 0.921875 3.246094 0.894531 3.429688 0.875 3.609375 C 0.851562 3.820312 0.835938 4.035156 0.824219 4.25 C 0.808594 4.496094 0.800781 4.742188 0.792969 4.988281 C 0.789062 5.269531 0.785156 5.550781 0.785156 5.832031 L 0.785156 9.707031 C 0.785156 9.988281 0.789062 10.269531 0.792969 10.550781 C 0.800781 10.796875 0.808594 11.042969 0.824219 11.289062 C 0.835938 11.503906 0.851562 11.714844 0.875 11.929688 C 0.894531 12.109375 0.921875 12.289062 0.957031 12.46875 C 0.957031 12.480469 0.960938 12.492188 0.964844 12.507812 Z M 12.742188 10.671875 L 3.257812 10.671875 L 3.257812 8.484375 L 12.742188 8.484375 Z M 7.636719 5.566406 L 3.257812 5.566406 L 3.257812 7.753906 L 7.636719 7.753906 Z M 12.742188 5.566406 L 8.363281 5.566406 L 8.363281 7.753906 L 12.742188 7.753906 Z M 10.464844 0.300781 C 14.113281 0.300781 15.40625 0.695312 15.808594 2.980469 C 15.957031 3.695312 16 4.636719 16 5.832031 L 16 9.707031 C 16 10.855469 15.960938 11.769531 15.824219 12.472656 C 15.4375 14.835938 14.15625 15.234375 10.464844 15.234375 L 5.535156 15.234375 C 1.859375 15.234375 0.574219 14.839844 0.179688 12.503906 C 0.0390625 11.796875 0 10.871094 0 9.707031 L 0 5.832031 C 0 4.65625 0.0390625 3.726562 0.183594 3.019531 C 0.578125 0.699219 1.867188 0.300781 5.535156 0.300781 Z M 10.464844 0.300781 "/>
</g>
</svg>
