
<svg xmlns="http://www.w3.org/2000/svg" xmlns:xlink="http://www.w3.org/1999/xlink" width="16px" height="16px" viewBox="0 0 16 16" version="1.1">
<g id="surface1">
<path style=" stroke:none;fill-rule:evenodd;fill:#ff6666;fill-opacity:1;" d="M 2.71875 0.800781 L 13.28125 0.800781 C 13.789062 0.800781 14.28125 1 14.640625 1.359375 C 15 1.71875 15.199219 2.210938 15.199219 2.71875 L 15.199219 13.28125 C 15.199219 13.789062 15 14.28125 14.640625 14.640625 C 14.28125 15 13.789062 15.199219 13.28125 15.199219 L 2.71875 15.199219 C 2.210938 15.199219 1.71875 15 1.359375 14.640625 C 1 14.28125 0.800781 13.789062 0.800781 13.28125 L 0.800781 2.71875 C 0.800781 2.210938 1 1.71875 1.359375 1.359375 C 1.71875 1 2.210938 0.800781 2.71875 0.800781 Z M 2.71875 0 L 13.28125 0 C 14.78125 0 16 1.21875 16 2.71875 L 16 13.28125 C 16 14.78125 14.78125 16 13.28125 16 L 2.71875 16 C 1.21875 16 0 14.78125 0 13.28125 L 0 2.71875 C 0 1.21875 1.21875 0 2.71875 0 Z M 8 2 C 6.429688 2 4.917969 2.617188 3.796875 3.71875 L 5.863281 7.300781 C 6.167969 6.375 7.027344 5.75 8 5.75 L 13.558594 5.75 C 12.644531 3.484375 10.445312 2 8 2 Z M 3.273438 4.3125 C 2.449219 5.367188 2.003906 6.664062 2 8 C 2.003906 10.695312 3.800781 13.058594 6.398438 13.777344 L 8.464844 10.199219 C 8.3125 10.234375 8.15625 10.25 8 10.25 C 7.195312 10.25 6.457031 9.820312 6.054688 9.125 L 6.050781 9.125 Z M 9.671875 6.5 C 10.042969 6.910156 10.25 7.445312 10.25 8 C 10.25 8.394531 10.144531 8.78125 9.945312 9.125 L 9.949219 9.125 L 7.171875 13.933594 C 7.445312 13.976562 7.722656 13.996094 8 14 C 11.3125 14 14 11.3125 14 8 C 14 7.492188 13.933594 6.988281 13.804688 6.5 Z M 8 6.5 C 7.171875 6.5 6.5 7.171875 6.5 8 C 6.5 8.398438 6.65625 8.777344 6.9375 9.0625 C 7.222656 9.34375 7.601562 9.5 8 9.5 C 8.398438 9.5 8.777344 9.34375 9.0625 9.0625 C 9.34375 8.777344 9.5 8.398438 9.5 8 C 9.5 7.601562 9.34375 7.222656 9.0625 6.9375 C 8.777344 6.65625 8.398438 6.5 8 6.5 Z M 8 6.5 "/>
</g>
</svg>
