
<svg xmlns="http://www.w3.org/2000/svg" xmlns:xlink="http://www.w3.org/1999/xlink" width="16px" height="16px" viewBox="0 0 16 16" version="1.1">
<g id="surface1">
<path style=" stroke:none;fill-rule:nonzero;fill:#ff6666;fill-opacity:1;" d="M 14.222656 14.769531 C 12.785156 15.53125 11.203125 15.992188 9.703125 16 C 7.269531 16 5.339844 15.285156 3.914062 13.851562 C 2.488281 12.410156 1.777344 10.464844 1.777344 8.003906 C 1.777344 5.539062 2.488281 3.589844 3.914062 2.160156 C 5.339844 0.71875 7.269531 0 9.703125 0 C 11.335938 0.0195312 12.902344 0.515625 14.222656 1.230469 L 14.222656 4.515625 C 12.929688 3.734375 11.40625 3.253906 10.007812 3.242188 C 8.664062 3.242188 7.304688 3.699219 6.53125 4.609375 C 5.761719 5.515625 5.375 6.40625 5.375 8.003906 C 5.375 9.597656 5.761719 10.484375 6.53125 11.390625 C 7.304688 12.300781 8.664062 12.757812 10.007812 12.757812 C 11.511719 12.671875 13.136719 12.246094 14.222656 11.484375 Z M 14.222656 14.769531 "/>
</g>
</svg>
