
<svg xmlns="http://www.w3.org/2000/svg" xmlns:xlink="http://www.w3.org/1999/xlink" width="16px" height="16px" viewBox="0 0 16 16" version="1.1">
<g id="surface1">
<path style=" stroke:none;fill-rule:nonzero;fill:#ff6666;fill-opacity:1;" d="M 8.078125 1.5 C 7.902344 1.5 7.726562 1.503906 7.550781 1.515625 C 5.4375 1.664062 3.472656 2.84375 2.371094 4.75 L 3.238281 5.25 C 4.480469 3.09375 7.019531 2.042969 9.421875 2.6875 C 11.207031 3.164062 12.628906 4.503906 13.214844 6.253906 L 11.335938 6.980469 C 11.933594 7.546875 12.574219 8.117188 13.253906 8.683594 C 13.917969 9.234375 14.59375 9.765625 15.285156 10.277344 C 15.460938 9.433594 15.609375 8.585938 15.730469 7.730469 C 15.855469 6.855469 15.945312 6.003906 16 5.183594 L 14.148438 5.894531 C 13.460938 3.890625 11.816406 2.292969 9.683594 1.722656 C 9.160156 1.582031 8.621094 1.507812 8.078125 1.5 Z M 0.714844 5.722656 C 0.539062 6.566406 0.390625 7.414062 0.269531 8.269531 C 0.144531 9.148438 0.0546875 9.996094 0 10.816406 L 1.851562 10.105469 C 2.539062 12.109375 4.183594 13.707031 6.316406 14.277344 C 7.011719 14.464844 7.734375 14.535156 8.449219 14.484375 C 10.5625 14.335938 12.527344 13.160156 13.628906 11.25 L 12.761719 10.75 C 11.519531 12.90625 8.980469 13.957031 6.578125 13.3125 C 4.792969 12.835938 3.367188 11.496094 2.785156 9.746094 L 4.664062 9.019531 C 4.042969 8.433594 3.402344 7.863281 2.746094 7.316406 C 2.082031 6.765625 1.40625 6.234375 0.714844 5.722656 Z M 0.714844 5.722656 "/>
</g>
</svg>
