
<svg xmlns="http://www.w3.org/2000/svg" xmlns:xlink="http://www.w3.org/1999/xlink" width="16px" height="16px" viewBox="0 0 16 16" version="1.1">
<g id="surface1">
<path style=" stroke:none;fill-rule:evenodd;fill:#ff6666;fill-opacity:1;" d="M 3.234375 7.28125 L 3.234375 4.765625 C 3.234375 2.125 5.359375 0 8 0 C 10.640625 0 12.765625 2.125 12.765625 4.765625 L 12.765625 7.28125 L 13.566406 7.28125 C 13.601562 7.28125 13.632812 7.3125 13.632812 7.347656 L 13.632812 15.933594 C 13.632812 15.972656 13.601562 16 13.566406 16 L 2.433594 16 C 2.398438 16 2.367188 15.972656 2.367188 15.933594 L 2.367188 7.347656 C 2.367188 7.3125 2.398438 7.28125 2.433594 7.28125 Z M 4.558594 7.28125 L 4.558594 4.765625 C 4.558594 2.859375 6.09375 1.324219 8 1.324219 C 9.90625 1.324219 11.441406 2.859375 11.441406 4.765625 L 11.441406 7.28125 Z M 8.515625 12.117188 C 9.140625 11.921875 9.597656 11.339844 9.597656 10.652344 C 9.597656 9.804688 8.910156 9.117188 8.0625 9.117188 C 7.214844 9.117188 6.527344 9.804688 6.527344 10.652344 C 6.527344 11.390625 7.050781 12.007812 7.746094 12.152344 L 7.496094 13.289062 L 8.777344 13.234375 Z M 8.515625 12.117188 "/>
</g>
</svg>
