
<svg xmlns="http://www.w3.org/2000/svg" xmlns:xlink="http://www.w3.org/1999/xlink" width="16px" height="16px" viewBox="0 0 16 16" version="1.1">
<g id="surface1">
<path style=" stroke:none;fill-rule:evenodd;fill:#ff6666;fill-opacity:1;" d="M 5.8125 4.574219 C 5.777344 4.570312 5.746094 4.570312 5.714844 4.570312 C 2.96875 4.574219 0.613281 6.527344 0.101562 9.226562 C 0.0390625 8.824219 0 8.417969 0 8 C 0 6.378906 0.480469 4.875 1.304688 3.617188 C 2.613281 2.75 4.144531 2.289062 5.714844 2.285156 C 5.976562 2.285156 6.238281 2.300781 6.5 2.3125 C 6.882812 1.457031 7.433594 0.675781 8.117188 0.0078125 C 9.183594 0.0195312 10.195312 0.238281 11.117188 0.625 C 10.097656 1.144531 9.28125 1.945312 8.742188 2.90625 C 11.664062 4.082031 13.714844 6.945312 13.714844 10.285156 C 13.714844 10.671875 13.6875 11.050781 13.617188 11.425781 C 13.648438 11.429688 13.683594 11.429688 13.714844 11.429688 C 14.265625 11.425781 14.8125 11.347656 15.339844 11.1875 C 14.929688 12.140625 14.335938 12.996094 13.609375 13.710938 C 13.382812 13.707031 13.160156 13.695312 12.941406 13.679688 C 12.789062 14.03125 12.597656 14.371094 12.386719 14.695312 C 11.128906 15.519531 9.621094 16 8 16 C 7.582031 16 7.175781 15.960938 6.773438 15.898438 C 8.476562 15.574219 9.882812 14.519531 10.675781 13.089844 C 7.757812 11.910156 5.714844 9.050781 5.714844 5.714844 C 5.714844 5.328125 5.742188 4.949219 5.8125 4.574219 Z M 8.042969 5.085938 C 10.039062 5.960938 11.429688 7.960938 11.429688 10.285156 C 11.429688 10.5 11.414062 10.710938 11.390625 10.917969 C 9.390625 10.039062 8 8.039062 8 5.714844 C 8 5.503906 8.011719 5.289062 8.042969 5.085938 Z M 8.042969 5.085938 "/>
<path style=" stroke:none;fill-rule:evenodd;fill:#ff6666;fill-opacity:1;" d="M 16 8 C 16 12.433594 12.433594 16 8 16 C 3.566406 16 0 12.433594 0 8 C 0 3.566406 3.566406 0 8 0 C 12.433594 0 16 3.566406 16 8 Z M 15 8 C 15 9.859375 14.261719 11.640625 12.949219 12.949219 C 11.640625 14.261719 9.859375 15 8 15 C 6.140625 15 4.359375 14.261719 3.050781 12.949219 C 1.738281 11.640625 1 9.859375 1 8 C 1 6.140625 1.738281 4.359375 3.050781 3.050781 C 4.359375 1.738281 6.140625 1 8 1 C 9.859375 1 11.640625 1.738281 12.949219 3.050781 C 14.261719 4.359375 15 6.140625 15 8 Z M 15 8 "/>
</g>
</svg>
