
<svg xmlns="http://www.w3.org/2000/svg" xmlns:xlink="http://www.w3.org/1999/xlink" width="16px" height="16px" viewBox="0 0 16 16" version="1.1">
<g id="surface1">
<path style=" stroke:none;fill-rule:nonzero;fill:#ff6666;fill-opacity:1;" d="M 8 0 C 7.972656 0 7.949219 0 7.921875 0.00390625 C 3.550781 0.046875 0 3.617188 0 8 C 0 12.410156 3.589844 16 8 16 C 12.382812 16 15.953125 12.453125 15.996094 8.078125 C 16 8.054688 16 8.027344 16 8 C 16 7.558594 15.640625 7.199219 15.199219 7.199219 C 14.757812 7.199219 14.398438 7.558594 14.398438 8 C 14.398438 11.542969 11.542969 14.398438 8 14.398438 C 4.457031 14.398438 1.601562 11.542969 1.601562 8 C 1.601562 4.457031 4.457031 1.601562 8 1.601562 C 8.441406 1.601562 8.800781 1.242188 8.800781 0.800781 C 8.800781 0.359375 8.441406 0 8 0 Z M 8 3.199219 C 7.972656 3.199219 7.949219 3.199219 7.921875 3.203125 C 5.316406 3.246094 3.199219 5.382812 3.199219 8 C 3.199219 10.640625 5.359375 12.800781 8 12.800781 C 10.613281 12.800781 12.75 10.683594 12.796875 8.078125 C 12.796875 8.054688 12.800781 8.027344 12.800781 8 C 12.800781 7.558594 12.441406 7.199219 12 7.199219 C 11.558594 7.199219 11.199219 7.558594 11.199219 8 C 11.199219 9.777344 9.777344 11.199219 8 11.199219 C 6.222656 11.199219 4.800781 9.777344 4.800781 8 C 4.800781 6.222656 6.222656 4.800781 8 4.800781 C 8.441406 4.800781 8.800781 4.441406 8.800781 4 C 8.800781 3.558594 8.441406 3.199219 8 3.199219 Z M 8 6.398438 C 7.117188 6.398438 6.398438 7.117188 6.398438 8 C 6.398438 8.882812 7.117188 9.601562 8 9.601562 C 8.882812 9.601562 9.601562 8.882812 9.601562 8 C 9.601562 7.117188 8.882812 6.398438 8 6.398438 Z M 8 6.398438 "/>
</g>
</svg>
