
<svg xmlns="http://www.w3.org/2000/svg" xmlns:xlink="http://www.w3.org/1999/xlink" width="16px" height="16px" viewBox="0 0 16 16" version="1.1">
<g id="surface1">
<path style=" stroke:none;fill-rule:evenodd;fill:#ff6666;fill-opacity:1;" d="M 10.070312 11.894531 C 9.453125 11.773438 8.910156 11.40625 8.570312 10.855469 L 10.015625 10.078125 C 10.308594 10.679688 10.363281 11.320312 10.070312 11.894531 Z M 10.097656 11.902344 C 10.6875 12.070312 11.34375 12.003906 11.917969 11.691406 C 13.089844 11.0625 13.492188 9.664062 12.8125 8.570312 L 10.824219 9.644531 L 10.824219 9.714844 C 10.949219 10.339844 10.710938 11.082031 10.097656 11.902344 Z M 5.929688 11.894531 C 6.542969 11.773438 7.089844 11.40625 7.429688 10.855469 L 5.984375 10.078125 C 5.691406 10.679688 5.636719 11.320312 5.929688 11.894531 Z M 5.902344 11.902344 C 5.3125 12.070312 4.65625 12.003906 4.082031 11.691406 C 2.910156 11.0625 2.507812 9.664062 3.1875 8.570312 L 5.175781 9.644531 L 5.175781 9.714844 C 5.050781 10.339844 5.289062 11.082031 5.902344 11.902344 Z M 13.632812 0 C 13.414062 1.324219 12.765625 2.53125 11.785156 3.421875 C 10.703125 2.703125 9.402344 2.285156 8 2.285156 C 6.597656 2.285156 5.296875 2.703125 4.210938 3.421875 C 3.242188 2.542969 2.589844 1.347656 2.367188 0.0390625 C 2.316406 0.355469 2.289062 0.675781 2.285156 0.996094 C 2.285156 2.140625 2.613281 3.261719 3.230469 4.214844 C 1.945312 5.460938 1.144531 7.203125 1.144531 9.144531 C 1.144531 12.941406 4.199219 16 8 16 C 11.800781 16 14.855469 12.941406 14.855469 9.144531 C 14.855469 7.203125 14.058594 5.460938 12.769531 4.21875 C 13.386719 3.261719 13.714844 2.140625 13.714844 0.996094 C 13.714844 0.660156 13.6875 0.328125 13.632812 0 Z M 13.632812 0 "/>
</g>
</svg>
