
<svg xmlns="http://www.w3.org/2000/svg" xmlns:xlink="http://www.w3.org/1999/xlink" width="16px" height="16px" viewBox="0 0 16 16" version="1.1">
<g id="surface1">
<path style=" stroke:none;fill-rule:nonzero;fill:#ff6666;fill-opacity:1;" d="M 8 0 C 3.582031 0 0 3.582031 0 8 C 0 12.417969 3.582031 16 8 16 C 12.417969 16 16 12.417969 16 8 C 16 3.582031 12.417969 0 8 0 Z M 10.84375 2.21875 C 10.980469 2.234375 11.121094 2.300781 11.25 2.375 C 11.761719 2.671875 11.953125 3.300781 11.65625 3.8125 C 11.363281 4.324219 10.699219 4.515625 10.1875 4.21875 C 9.675781 3.925781 9.488281 3.261719 9.78125 2.75 C 10.003906 2.367188 10.429688 2.167969 10.84375 2.21875 Z M 8 3.375 C 8.429688 3.375 8.855469 3.421875 9.25 3.53125 C 9.320312 3.960938 9.5625 4.359375 9.96875 4.59375 C 10.375 4.828125 10.84375 4.839844 11.25 4.6875 C 12.039062 5.464844 12.550781 6.511719 12.625 7.6875 L 11.09375 7.71875 C 10.953125 6.125 9.628906 4.875 8 4.875 C 7.53125 4.875 7.085938 4.96875 6.6875 5.15625 L 5.9375 3.84375 C 6.558594 3.535156 7.261719 3.375 8 3.375 Z M 5.4375 4.125 L 6.21875 5.4375 C 5.417969 6.003906 4.875 6.945312 4.875 8 C 4.875 9.054688 5.417969 10 6.21875 10.5625 L 5.4375 11.875 C 4.503906 11.25 3.789062 10.273438 3.5 9.15625 C 3.835938 8.882812 4.0625 8.46875 4.0625 8 C 4.0625 7.53125 3.835938 7.117188 3.5 6.84375 C 3.789062 5.726562 4.503906 4.75 5.4375 4.125 Z M 2.5625 6.9375 C 3.152344 6.9375 3.625 7.410156 3.625 8 C 3.625 8.589844 3.152344 9.0625 2.5625 9.0625 C 1.972656 9.0625 1.5 8.589844 1.5 8 C 1.5 7.410156 1.972656 6.9375 2.5625 6.9375 Z M 11.09375 8.28125 L 12.625 8.3125 C 12.550781 9.488281 12.039062 10.535156 11.25 11.3125 C 10.84375 11.160156 10.375 11.171875 9.96875 11.40625 C 9.5625 11.640625 9.320312 12.039062 9.25 12.46875 C 8.855469 12.578125 8.429688 12.625 8 12.625 C 7.261719 12.625 6.558594 12.464844 5.9375 12.15625 L 6.6875 10.84375 C 7.085938 11.03125 7.53125 11.125 8 11.125 C 9.628906 11.125 10.953125 9.875 11.09375 8.28125 Z M 10.59375 11.65625 C 11.007812 11.605469 11.433594 11.804688 11.65625 12.1875 C 11.953125 12.699219 11.761719 13.332031 11.25 13.625 C 10.738281 13.921875 10.074219 13.761719 9.78125 13.25 C 9.484375 12.738281 9.675781 12.078125 10.1875 11.78125 C 10.316406 11.707031 10.457031 11.671875 10.59375 11.65625 Z M 10.59375 11.65625 "/>
</g>
</svg>
