
<svg xmlns="http://www.w3.org/2000/svg" xmlns:xlink="http://www.w3.org/1999/xlink" width="16px" height="16px" viewBox="0 0 16 16" version="1.1">
<g id="surface1">
<path style=" stroke:none;fill-rule:evenodd;fill:#ff6666;fill-opacity:1;" d="M 5.308594 7.117188 L 1.601562 4.800781 L 1.601562 12.800781 L 14.398438 12.800781 L 14.398438 4.800781 L 10.871094 7.007812 L 10.871094 6.921875 C 10.871094 6.457031 10.75 6.011719 10.53125 5.617188 L 14.398438 3.199219 L 1.601562 3.199219 L 5.78125 5.8125 C 5.625 6.15625 5.539062 6.53125 5.539062 6.921875 L 5.539062 7.039062 C 5.460938 7.058594 5.382812 7.082031 5.308594 7.117188 Z M 14.398438 1.601562 L 1.601562 1.601562 C 0.71875 1.601562 0.0078125 2.320312 0.0078125 3.199219 L 0 12.800781 C 0 13.679688 0.71875 14.398438 1.601562 14.398438 L 14.398438 14.398438 C 15.28125 14.398438 16 13.679688 16 12.800781 L 16 3.199219 C 16 2.320312 15.28125 1.601562 14.398438 1.601562 Z M 8.207031 9.148438 C 8.5 9.148438 8.738281 9.386719 8.738281 9.679688 C 8.738281 9.851562 8.652344 10.003906 8.527344 10.101562 L 8.527344 10.527344 C 8.527344 10.703125 8.382812 10.847656 8.207031 10.847656 C 8.03125 10.847656 7.890625 10.703125 7.890625 10.527344 L 7.890625 10.101562 C 7.757812 10.003906 7.679688 9.847656 7.675781 9.679688 C 7.675781 9.386719 7.914062 9.148438 8.207031 9.148438 Z M 8.207031 6.179688 C 8.609375 6.179688 8.949219 6.519531 8.949219 6.921875 L 8.949219 7.664062 L 7.464844 7.664062 L 7.464844 6.921875 C 7.464844 6.519531 7.804688 6.179688 8.207031 6.179688 Z M 8.207031 4.90625 C 7.097656 4.90625 6.191406 5.8125 6.191406 6.921875 L 6.191406 7.664062 L 5.769531 7.664062 C 5.535156 7.664062 5.34375 7.855469 5.34375 8.089844 L 5.34375 11.695312 C 5.34375 11.929688 5.535156 12.117188 5.769531 12.117188 L 10.648438 12.117188 C 10.882812 12.117188 11.070312 11.929688 11.070312 11.695312 L 11.070312 8.089844 C 11.070312 7.855469 10.882812 7.664062 10.648438 7.664062 L 10.222656 7.664062 L 10.222656 6.921875 C 10.222656 5.8125 9.316406 4.90625 8.207031 4.90625 Z M 8.207031 4.90625 "/>
</g>
</svg>
