
<svg xmlns="http://www.w3.org/2000/svg" xmlns:xlink="http://www.w3.org/1999/xlink" width="16px" height="16px" viewBox="0 0 16 16" version="1.1">
<g id="surface1">
<path style=" stroke:none;fill-rule:evenodd;fill:#ff6666;fill-opacity:1;" d="M 0 12.5 L 16 12.5 L 16 14.5 L 0 14.5 Z M 4.644531 10.515625 C 4.128906 10.515625 3.660156 10.429688 3.238281 10.257812 C 2.820312 10.085938 2.476562 9.855469 2.210938 9.566406 C 1.941406 9.28125 1.71875 8.9375 1.535156 8.542969 C 1.355469 8.148438 1.226562 7.746094 1.148438 7.335938 C 1.070312 6.921875 1.03125 6.496094 1.03125 6.050781 C 1.03125 5.527344 1.097656 5.011719 1.230469 4.511719 C 1.359375 4.007812 1.5625 3.535156 1.832031 3.085938 C 2.105469 2.636719 2.484375 2.277344 2.96875 2 C 3.453125 1.726562 4.011719 1.589844 4.644531 1.589844 C 5.410156 1.589844 6.050781 1.765625 6.570312 2.125 C 7.085938 2.480469 7.449219 2.914062 7.65625 3.425781 L 6.324219 4.03125 C 6.09375 3.675781 5.851562 3.417969 5.601562 3.253906 C 5.351562 3.089844 5.03125 3.007812 4.644531 3.007812 C 4.265625 3.007812 3.9375 3.097656 3.652344 3.28125 C 3.367188 3.46875 3.152344 3.714844 3 4.023438 C 2.847656 4.332031 2.734375 4.65625 2.664062 4.996094 C 2.597656 5.339844 2.5625 5.691406 2.5625 6.050781 C 2.5625 6.859375 2.738281 7.566406 3.097656 8.175781 C 3.453125 8.78125 3.972656 9.085938 4.644531 9.085938 C 5.304688 9.085938 5.855469 8.71875 6.296875 7.976562 L 7.667969 8.496094 C 7.066406 9.84375 6.058594 10.515625 4.644531 10.515625 Z M 14.96875 10.367188 L 9.296875 10.367188 L 9.296875 1.734375 L 10.773438 1.734375 L 10.773438 8.949219 L 14.96875 8.949219 Z M 14.96875 10.367188 "/>
</g>
</svg>
