
<svg xmlns="http://www.w3.org/2000/svg" xmlns:xlink="http://www.w3.org/1999/xlink" width="16px" height="16px" viewBox="0 0 16 16" version="1.1">
<g id="surface1">
<path style=" stroke:none;fill-rule:nonzero;fill:#ff6666;fill-opacity:1;" d="M 12.84375 0 L 12.441406 0.410156 L 2.191406 10.804688 L 2.15625 10.855469 C 2.085938 10.96875 1.847656 11.371094 1.488281 12.101562 C 1.128906 12.828125 0.6875 13.828125 0.332031 14.949219 L 0 16 L 1.050781 15.667969 C 2.027344 15.351562 2.980469 14.964844 3.898438 14.511719 C 4.628906 14.152344 5.027344 13.917969 5.144531 13.84375 L 5.195312 13.808594 L 16 3.15625 Z M 12.570312 9.144531 L 12.570312 10.285156 L 16 10.285156 L 16 9.144531 Z M 3.304688 11.304688 L 4.695312 12.695312 L 4.492188 12.898438 C 4.5 12.890625 4.0625 13.15625 3.394531 13.484375 C 3.152344 13.605469 2.78125 13.738281 2.441406 13.871094 L 2.128906 13.558594 C 2.261719 13.21875 2.394531 12.847656 2.515625 12.605469 C 2.84375 11.9375 3.109375 11.5 3.101562 11.507812 Z M 10.285156 11.429688 L 10.285156 12.570312 L 16 12.570312 L 16 11.429688 Z M 8 13.714844 L 8 14.855469 L 16 14.855469 L 16 13.714844 Z M 8 13.714844 "/>
</g>
</svg>
