
<svg xmlns="http://www.w3.org/2000/svg" xmlns:xlink="http://www.w3.org/1999/xlink" width="16px" height="16px" viewBox="0 0 16 16" version="1.1">
<g id="surface1">
<path style=" stroke:none;fill-rule:evenodd;fill:#ff6666;fill-opacity:1;" d="M 0.929688 8 C 0.929688 3.582031 4.511719 0 8.929688 0 C 10.3125 0.00390625 11.667969 0.363281 12.867188 1.046875 L 11.171875 2.742188 C 10.460938 2.441406 9.699219 2.285156 8.929688 2.285156 C 7.414062 2.285156 5.960938 2.886719 4.890625 3.960938 C 3.820312 5.03125 3.214844 6.484375 3.214844 8 C 3.214844 9.515625 3.820312 10.96875 4.890625 12.039062 C 5.960938 13.113281 7.414062 13.714844 8.929688 13.714844 C 9.523438 13.710938 10.109375 13.617188 10.671875 13.433594 C 10.820312 13.398438 10.96875 13.355469 11.113281 13.292969 L 12.863281 14.960938 C 11.664062 15.640625 10.308594 16 8.929688 16 C 4.511719 16 0.929688 12.417969 0.929688 8 Z M 10.453125 8 C 10.453125 8.839844 9.773438 9.523438 8.929688 9.523438 C 8.089844 9.523438 7.40625 8.839844 7.40625 8 C 7.40625 7.160156 8.089844 6.476562 8.929688 6.476562 C 9.773438 6.476562 10.453125 7.160156 10.453125 8 Z M 15.070312 2.9375 L 11.335938 6.671875 L 10.257812 5.59375 L 13.992188 1.859375 Z M 10.277344 10.691406 L 14.011719 14.160156 L 15.050781 13.042969 L 11.316406 9.574219 Z M 10.277344 10.691406 "/>
</g>
</svg>
