
<svg xmlns="http://www.w3.org/2000/svg" xmlns:xlink="http://www.w3.org/1999/xlink" width="16px" height="16px" viewBox="0 0 16 16" version="1.1">
<g id="surface1">
<path style=" stroke:none;fill-rule:nonzero;fill:#ff6666;fill-opacity:1;" d="M 6.515625 15.484375 C 6.425781 15.46875 6.351562 15.4375 6.3125 15.390625 C 6.269531 15.34375 6.25 15.242188 6.230469 15 C 6.199219 14.613281 6.246094 14.40625 6.382812 14.335938 C 6.535156 14.257812 6.953125 14.246094 7.09375 14.316406 C 7.183594 14.363281 7.234375 14.464844 7.226562 14.59375 L 7.21875 14.683594 L 7.128906 14.6875 C 7.023438 14.691406 6.992188 14.667969 6.992188 14.589844 C 6.992188 14.507812 6.9375 14.480469 6.773438 14.472656 C 6.601562 14.464844 6.511719 14.496094 6.484375 14.5625 C 6.457031 14.632812 6.460938 15.136719 6.492188 15.203125 C 6.519531 15.277344 6.585938 15.300781 6.746094 15.300781 C 6.945312 15.300781 7.007812 15.257812 7.007812 15.128906 C 7.007812 15.070312 7.046875 15.046875 7.140625 15.046875 C 7.242188 15.046875 7.253906 15.058594 7.242188 15.1875 C 7.222656 15.390625 7.171875 15.449219 6.984375 15.484375 C 6.871094 15.503906 6.636719 15.503906 6.515625 15.484375 Z M 7.992188 15.484375 C 7.792969 15.449219 7.761719 15.394531 7.761719 15.0625 C 7.761719 14.78125 7.78125 14.722656 7.894531 14.667969 C 7.964844 14.632812 8.226562 14.621094 8.347656 14.644531 C 8.507812 14.679688 8.558594 14.796875 8.546875 15.109375 C 8.535156 15.328125 8.507812 15.40625 8.414062 15.453125 C 8.335938 15.492188 8.125 15.507812 7.992188 15.484375 Z M 8.300781 15.285156 C 8.332031 15.25 8.335938 15.230469 8.335938 15.0625 C 8.335938 14.894531 8.335938 14.875 8.296875 14.839844 C 8.265625 14.808594 8.242188 14.800781 8.152344 14.800781 C 8.058594 14.800781 8.035156 14.808594 8.003906 14.839844 C 7.96875 14.875 7.964844 14.894531 7.964844 15.0625 C 7.964844 15.253906 7.976562 15.285156 8.050781 15.320312 C 8.113281 15.34375 8.257812 15.324219 8.300781 15.285156 Z M 9.898438 15.488281 C 9.695312 15.449219 9.648438 15.363281 9.652344 15.039062 C 9.65625 14.789062 9.683594 14.726562 9.796875 14.671875 C 9.859375 14.640625 9.90625 14.632812 10.027344 14.632812 C 10.207031 14.632812 10.292969 14.65625 10.347656 14.726562 C 10.414062 14.804688 10.453125 15.058594 10.40625 15.089844 C 10.394531 15.101562 10.265625 15.109375 10.121094 15.113281 L 9.859375 15.121094 L 9.863281 15.195312 C 9.863281 15.300781 9.90625 15.332031 10.042969 15.332031 C 10.160156 15.332031 10.199219 15.316406 10.214844 15.257812 C 10.226562 15.214844 10.230469 15.214844 10.324219 15.21875 C 10.410156 15.222656 10.417969 15.226562 10.425781 15.265625 C 10.429688 15.324219 10.363281 15.421875 10.292969 15.457031 C 10.222656 15.488281 10.011719 15.507812 9.898438 15.484375 Z M 10.210938 14.910156 C 10.203125 14.816406 10.167969 14.792969 10.046875 14.792969 C 9.929688 14.792969 9.878906 14.820312 9.863281 14.886719 C 9.847656 14.976562 9.859375 14.980469 10.042969 14.976562 L 10.214844 14.96875 Z M 12.722656 15.484375 C 12.636719 15.464844 12.582031 15.425781 12.550781 15.359375 C 12.488281 15.226562 12.539062 15.058594 12.664062 15.003906 C 12.753906 14.960938 12.949219 14.960938 13.03125 15.003906 C 13.078125 15.027344 13.085938 15.027344 13.09375 15.003906 C 13.113281 14.960938 13.089844 14.84375 13.058594 14.808594 C 13.035156 14.785156 13.003906 14.777344 12.9375 14.777344 C 12.851562 14.777344 12.839844 14.78125 12.789062 14.835938 C 12.742188 14.886719 12.726562 14.894531 12.65625 14.894531 C 12.558594 14.894531 12.542969 14.867188 12.578125 14.769531 C 12.613281 14.664062 12.691406 14.632812 12.914062 14.632812 C 13.058594 14.632812 13.109375 14.640625 13.171875 14.667969 C 13.292969 14.722656 13.304688 14.777344 13.300781 15.164062 L 13.296875 15.476562 L 13.199219 15.484375 C 13.117188 15.488281 13.105469 15.484375 13.097656 15.453125 L 13.085938 15.417969 L 13.03125 15.453125 C 12.960938 15.492188 12.8125 15.507812 12.722656 15.484375 Z M 13.0625 15.308594 C 13.09375 15.273438 13.101562 15.253906 13.09375 15.21875 C 13.074219 15.144531 13.042969 15.125 12.925781 15.117188 C 12.824219 15.109375 12.8125 15.113281 12.769531 15.15625 C 12.734375 15.191406 12.726562 15.210938 12.734375 15.253906 C 12.75 15.332031 12.789062 15.351562 12.910156 15.351562 C 13.003906 15.351562 13.023438 15.34375 13.0625 15.308594 Z M 5.800781 15.460938 C 5.066406 15.359375 4.347656 15.011719 3.8125 14.496094 C 3.441406 14.140625 3.140625 13.699219 2.964844 13.261719 C 2.734375 12.683594 2.625 12.257812 2.539062 11.617188 C 2.503906 11.371094 2.5 11.257812 2.5 10.773438 C 2.5 10.195312 2.507812 10.066406 2.59375 9.460938 C 2.917969 7.140625 4.113281 4.671875 5.6875 3.058594 C 6.277344 2.457031 6.847656 2.015625 7.449219 1.695312 C 7.644531 1.59375 8.035156 1.425781 8.175781 1.386719 C 8.257812 1.367188 10.453125 0.566406 10.570312 0.515625 C 10.617188 0.496094 10.632812 0.496094 10.625 0.511719 C 10.621094 0.523438 10.449219 0.953125 10.242188 1.46875 C 10.039062 1.980469 9.867188 2.410156 9.867188 2.421875 C 9.867188 2.4375 9.929688 2.523438 10.003906 2.617188 L 10.136719 2.789062 L 10.140625 8.542969 C 10.140625 11.917969 10.136719 14.292969 10.128906 14.292969 C 10.121094 14.292969 9.976562 14.140625 9.808594 13.953125 C 9.644531 13.769531 9.496094 13.617188 9.484375 13.617188 C 9.472656 13.617188 9.425781 13.679688 9.378906 13.757812 C 9.332031 13.839844 9.238281 13.976562 9.171875 14.0625 C 8.996094 14.296875 8.535156 14.753906 8.507812 14.722656 C 8.503906 14.71875 8.539062 14.660156 8.585938 14.597656 C 8.890625 14.195312 9.09375 13.632812 9.175781 12.972656 C 9.203125 12.757812 9.203125 12.117188 9.179688 11.863281 C 8.964844 9.8125 7.789062 7.695312 6.3125 6.710938 C 6.089844 6.5625 5.746094 6.386719 5.546875 6.320312 C 5.472656 6.296875 5.066406 6.152344 4.648438 6 C 4.230469 5.84375 3.882812 5.726562 3.875 5.734375 C 3.867188 5.742188 3.972656 6.023438 4.105469 6.359375 C 4.242188 6.699219 4.351562 6.984375 4.351562 6.996094 C 4.351562 7.007812 4.3125 7.0625 4.269531 7.121094 L 4.183594 7.226562 L 4.183594 11 C 4.183594 13.140625 4.1875 14.777344 4.199219 14.777344 C 4.207031 14.777344 4.304688 14.671875 4.414062 14.546875 C 4.523438 14.421875 4.621094 14.320312 4.625 14.320312 C 4.632812 14.320312 4.683594 14.386719 4.738281 14.464844 C 4.859375 14.652344 5.136719 14.941406 5.316406 15.070312 C 5.5 15.203125 5.765625 15.335938 5.96875 15.402344 C 6.0625 15.429688 6.152344 15.460938 6.171875 15.46875 C 6.226562 15.492188 5.992188 15.488281 5.800781 15.460938 Z M 7.390625 15.464844 C 7.386719 15.453125 7.382812 15.183594 7.386719 14.867188 L 7.390625 14.292969 L 7.574219 14.292969 L 7.578125 14.890625 L 7.582031 15.484375 L 7.488281 15.484375 C 7.429688 15.484375 7.390625 15.476562 7.386719 15.464844 Z M 8.726562 15.464844 C 8.71875 15.453125 8.71875 15.265625 8.722656 15.046875 L 8.726562 14.648438 L 8.820312 14.648438 C 8.902344 14.648438 8.914062 14.652344 8.917969 14.6875 C 8.925781 14.734375 8.929688 14.734375 8.988281 14.691406 C 9.109375 14.601562 9.320312 14.613281 9.410156 14.714844 C 9.476562 14.792969 9.480469 14.832031 9.476562 15.179688 L 9.472656 15.476562 L 9.375 15.484375 L 9.28125 15.488281 L 9.273438 15.171875 C 9.269531 14.878906 9.265625 14.855469 9.234375 14.832031 C 9.179688 14.792969 9.121094 14.785156 9.050781 14.8125 C 8.9375 14.847656 8.921875 14.902344 8.921875 15.21875 L 8.921875 15.484375 L 8.828125 15.484375 C 8.765625 15.484375 8.730469 15.476562 8.726562 15.464844 Z M 10.539062 15.476562 C 10.535156 15.46875 10.527344 15.429688 10.527344 15.386719 C 10.527344 15.3125 10.535156 15.300781 10.730469 15.074219 C 10.84375 14.945312 10.933594 14.832031 10.933594 14.824219 C 10.933594 14.816406 10.859375 14.808594 10.769531 14.808594 C 10.679688 14.808594 10.59375 14.800781 10.582031 14.792969 C 10.570312 14.785156 10.5625 14.753906 10.566406 14.714844 L 10.570312 14.648438 L 11.214844 14.648438 L 11.21875 14.734375 L 11.222656 14.816406 L 11.011719 15.0625 C 10.894531 15.195312 10.804688 15.3125 10.8125 15.320312 C 10.820312 15.328125 10.914062 15.335938 11.019531 15.335938 L 11.214844 15.34375 L 11.214844 15.476562 L 10.882812 15.484375 C 10.699219 15.484375 10.546875 15.480469 10.539062 15.476562 Z M 11.367188 15.464844 C 11.359375 15.453125 11.359375 15.265625 11.363281 15.046875 L 11.367188 14.648438 L 11.554688 14.648438 L 11.5625 15.484375 L 11.46875 15.484375 C 11.410156 15.484375 11.371094 15.476562 11.367188 15.464844 Z M 11.765625 14.886719 L 11.765625 14.28125 L 11.863281 14.289062 L 11.957031 14.292969 L 11.957031 15.476562 L 11.863281 15.484375 L 11.765625 15.488281 Z M 12.160156 15.464844 C 12.15625 15.453125 12.15625 15.183594 12.15625 14.867188 L 12.160156 14.292969 L 12.253906 14.289062 C 12.3125 14.285156 12.347656 14.289062 12.359375 14.304688 C 12.375 14.332031 12.378906 15.417969 12.363281 15.460938 C 12.347656 15.492188 12.171875 15.5 12.160156 15.464844 Z M 11.363281 14.429688 C 11.359375 14.417969 11.359375 14.378906 11.359375 14.347656 C 11.367188 14.292969 11.367188 14.292969 11.464844 14.289062 L 11.5625 14.28125 L 11.554688 14.445312 L 11.464844 14.449219 C 11.398438 14.453125 11.371094 14.449219 11.367188 14.429688 Z M 11.363281 14.429688 "/>
</g>
</svg>
