
<svg xmlns="http://www.w3.org/2000/svg" xmlns:xlink="http://www.w3.org/1999/xlink" width="16px" height="16px" viewBox="0 0 16 16" version="1.1">
<g id="surface1">
<path style=" stroke:none;fill-rule:nonzero;fill:#ff6666;fill-opacity:1;" d="M 14.128906 8.757812 C 15.867188 9.703125 16.507812 11.878906 15.566406 13.613281 C 14.621094 15.351562 12.449219 15.996094 10.710938 15.050781 C 8.972656 14.109375 8.332031 11.933594 9.273438 10.195312 C 10.21875 8.460938 12.390625 7.816406 14.128906 8.757812 Z M 14.128906 8.757812 "/>
<path style=" stroke:none;fill-rule:nonzero;fill:rgb(53.333336%,53.333336%,53.333336%);fill-opacity:1;" d="M 5.289062 8.761719 C 7.027344 9.707031 7.667969 11.878906 6.726562 13.617188 C 5.78125 15.355469 3.609375 16 1.871094 15.054688 C 0.132812 14.109375 -0.507812 11.9375 0.433594 10.199219 C 1.378906 8.460938 3.550781 7.820312 5.289062 8.761719 Z M 5.289062 8.761719 "/>
<path style=" stroke:none;fill-rule:nonzero;fill:rgb(61.176473%,61.176473%,61.176473%);fill-opacity:1;" d="M 9.777344 0.945312 C 11.515625 1.890625 12.160156 4.0625 11.214844 5.800781 C 10.269531 7.539062 8.097656 8.179688 6.359375 7.238281 C 4.621094 6.292969 3.980469 4.121094 4.921875 2.382812 C 5.867188 0.644531 8.039062 0 9.777344 0.945312 Z M 9.777344 0.945312 "/>
</g>
</svg>
