
<svg xmlns="http://www.w3.org/2000/svg" xmlns:xlink="http://www.w3.org/1999/xlink" width="16px" height="16px" viewBox="0 0 16 16" version="1.1">
<g id="surface1">
<path style=" stroke:none;fill-rule:evenodd;fill:#ff6666;fill-opacity:1;" d="M 7.25 1.1875 C 7.269531 1.261719 7.277344 1.335938 7.277344 1.402344 C 7.277344 1.734375 7.132812 1.839844 6.976562 1.617188 C 6.886719 1.496094 6.71875 1.390625 6.605469 1.390625 C 6.523438 1.390625 6.179688 1.601562 6.179688 1.652344 C 6.179688 1.671875 6.257812 1.675781 6.355469 1.664062 C 6.539062 1.644531 6.597656 1.683594 6.597656 1.820312 C 6.597656 1.949219 6.363281 2.21875 5.972656 2.542969 C 5.472656 2.957031 5.308594 3.140625 5.308594 3.28125 C 5.308594 3.363281 5.273438 3.421875 5.171875 3.507812 L 5.035156 3.621094 L 5.097656 3.75 C 5.183594 3.929688 5.175781 3.972656 5.046875 4.132812 C 4.894531 4.324219 4.878906 4.398438 4.957031 4.519531 C 5.035156 4.640625 5.039062 4.933594 4.96875 5.316406 C 4.90625 5.648438 4.941406 6.140625 5.058594 6.539062 C 5.109375 6.714844 5.273438 7.175781 5.417969 7.5625 C 5.726562 8.382812 5.789062 8.582031 5.839844 8.953125 C 5.914062 9.488281 5.78125 9.921875 5.449219 10.238281 C 5.222656 10.453125 5.074219 10.503906 4.890625 10.425781 C 4.511719 10.269531 4.269531 9.765625 3.832031 8.25 C 3.386719 6.710938 3.007812 6.074219 2.148438 5.4375 C 1.839844 5.207031 1.152344 4.71875 0.699219 4.351562 C 0.710938 4.175781 0.726562 4 0.746094 3.828125 C 0.765625 3.640625 0.792969 3.460938 0.828125 3.277344 C 0.855469 3.121094 0.890625 2.96875 0.9375 2.820312 C 0.972656 2.695312 1.019531 2.574219 1.070312 2.453125 C 1.117188 2.355469 1.167969 2.261719 1.230469 2.171875 C 1.285156 2.089844 1.34375 2.015625 1.414062 1.945312 C 1.480469 1.878906 1.558594 1.816406 1.636719 1.761719 C 1.726562 1.699219 1.824219 1.648438 1.921875 1.605469 C 2.042969 1.550781 2.164062 1.503906 2.289062 1.46875 C 2.4375 1.425781 2.59375 1.386719 2.746094 1.359375 C 2.929688 1.324219 3.113281 1.300781 3.296875 1.277344 C 3.511719 1.253906 3.726562 1.238281 3.945312 1.226562 C 4.191406 1.210938 4.441406 1.203125 4.6875 1.195312 C 4.972656 1.191406 5.253906 1.1875 5.535156 1.1875 Z M 0.652344 9.128906 C 1.234375 9.640625 2.121094 10.269531 2.695312 10.566406 C 2.882812 10.660156 3.046875 10.757812 3.058594 10.773438 C 3.066406 10.792969 2.988281 10.816406 2.878906 10.832031 C 2.09375 10.933594 1.21875 11.324219 0.707031 11.738281 C 0.699219 11.667969 0.695312 11.597656 0.691406 11.527344 C 0.679688 11.277344 0.667969 11.03125 0.664062 10.78125 C 0.65625 10.503906 0.652344 10.21875 0.652344 9.9375 Z M 12.980469 14.6875 C 13.007812 14.578125 13.011719 14.484375 12.992188 14.410156 C 12.847656 13.871094 11.914062 13.664062 10.859375 13.9375 C 10.667969 13.988281 10.226562 14.132812 9.871094 14.261719 C 9.40625 14.429688 9.179688 14.492188 9.039062 14.492188 C 8.816406 14.492188 8.648438 14.4375 8.613281 14.351562 C 8.578125 14.257812 8.675781 13.765625 8.773438 13.550781 C 9.019531 13.007812 9.375 12.824219 9.851562 12.992188 C 10.042969 13.058594 10.039062 13.058594 10.039062 13.007812 C 10.039062 12.984375 9.988281 12.917969 9.929688 12.855469 C 9.777344 12.703125 9.539062 12.703125 9.128906 12.863281 C 8.960938 12.929688 8.816406 12.972656 8.808594 12.964844 C 8.796875 12.953125 8.78125 12.8125 8.765625 12.644531 C 8.726562 12.136719 8.84375 11.929688 9.164062 11.941406 L 9.339844 11.949219 L 9.226562 11.855469 C 9.070312 11.726562 8.96875 11.738281 8.796875 11.894531 C 8.617188 12.058594 8.527344 12.292969 8.527344 12.597656 C 8.527344 12.941406 8.414062 12.933594 8.234375 12.578125 C 8.074219 12.265625 8.117188 11.878906 8.308594 11.925781 C 8.390625 11.949219 8.390625 11.941406 8.304688 11.769531 C 8.171875 11.511719 8.183594 11.273438 8.339844 11.109375 C 8.398438 11.039062 8.5625 10.800781 8.695312 10.574219 C 9.023438 10.023438 9.300781 9.664062 9.738281 9.226562 C 10.542969 8.414062 11.367188 7.878906 13.179688 6.988281 C 14.183594 6.492188 14.984375 6.148438 15.347656 5.960938 C 15.347656 5.996094 15.347656 6.027344 15.347656 6.0625 L 15.347656 9.9375 C 15.347656 10.21875 15.34375 10.503906 15.335938 10.78125 C 15.332031 11.03125 15.320312 11.277344 15.308594 11.527344 C 15.296875 11.742188 15.277344 11.960938 15.253906 12.171875 C 15.234375 12.359375 15.207031 12.539062 15.171875 12.722656 C 15.144531 12.878906 15.109375 13.027344 15.0625 13.179688 C 15.027344 13.304688 14.984375 13.425781 14.929688 13.546875 C 14.882812 13.644531 14.832031 13.738281 14.769531 13.828125 C 14.714844 13.910156 14.65625 13.984375 14.585938 14.054688 C 14.519531 14.121094 14.441406 14.183594 14.363281 14.238281 C 14.273438 14.300781 14.175781 14.351562 14.078125 14.394531 C 13.957031 14.449219 13.835938 14.496094 13.710938 14.53125 C 13.558594 14.574219 13.40625 14.613281 13.253906 14.640625 C 13.164062 14.65625 13.070312 14.671875 12.980469 14.6875 Z M 15.339844 5.371094 C 14.953125 5.550781 14.261719 5.828125 13.804688 6.027344 C 12.484375 6.609375 11.441406 7.132812 10.886719 7.488281 C 9.976562 8.074219 9.132812 8.835938 8.585938 9.566406 C 8.421875 9.785156 8.273438 9.964844 8.253906 9.964844 C 8.234375 9.964844 8.164062 9.890625 8.097656 9.800781 C 7.984375 9.644531 7.976562 9.613281 7.964844 9.238281 L 7.953125 8.839844 L 7.800781 8.691406 C 7.671875 8.558594 7.65625 8.527344 7.683594 8.4375 C 7.742188 8.265625 7.679688 8.097656 7.476562 7.886719 C 7.308594 7.71875 7.289062 7.679688 7.304688 7.570312 C 7.328125 7.421875 7.257812 7.296875 7.070312 7.183594 C 6.976562 7.125 6.9375 7.074219 6.9375 7.007812 C 6.9375 6.957031 6.90625 6.851562 6.863281 6.773438 C 6.5 6.066406 6.503906 5.867188 6.882812 6.011719 C 7.039062 6.070312 7.101562 6.027344 7.175781 5.820312 C 7.214844 5.710938 7.285156 5.605469 7.335938 5.570312 C 7.472656 5.480469 7.6875 5.523438 7.808594 5.664062 C 7.945312 5.824219 8.09375 5.90625 8.1875 5.875 C 8.261719 5.851562 8.269531 5.832031 8.246094 5.65625 C 8.179688 5.082031 8.175781 4.910156 8.226562 4.910156 C 8.253906 4.910156 8.410156 5.054688 8.582031 5.222656 C 8.84375 5.488281 8.921875 5.601562 9.105469 5.96875 C 9.222656 6.207031 9.320312 6.441406 9.320312 6.488281 C 9.320312 6.539062 9.335938 6.578125 9.355469 6.578125 C 9.402344 6.578125 9.425781 6.25 9.394531 6.09375 C 9.371094 5.996094 9.382812 5.96875 9.433594 5.953125 C 9.492188 5.933594 9.484375 5.902344 9.355469 5.644531 C 9.214844 5.363281 9.046875 4.910156 9.070312 4.886719 C 9.078125 4.878906 9.222656 4.855469 9.394531 4.828125 C 9.773438 4.777344 10.050781 4.820312 10.410156 4.984375 C 10.542969 5.050781 10.660156 5.101562 10.667969 5.101562 C 10.675781 5.101562 10.664062 5.054688 10.644531 4.996094 C 10.589844 4.855469 10.324219 4.585938 9.851562 4.199219 C 9.449219 3.871094 9.210938 3.640625 9.210938 3.566406 C 9.203125 3.425781 9.074219 3.117188 8.945312 2.945312 C 8.691406 2.609375 8.734375 2.53125 9.21875 2.445312 C 9.378906 2.414062 9.457031 2.378906 9.511719 2.308594 C 9.605469 2.191406 9.609375 2.132812 9.519531 2.167969 C 9.414062 2.214844 9.089844 2.269531 9.066406 2.246094 C 9.054688 2.234375 9.113281 2.152344 9.199219 2.058594 C 9.367188 1.878906 9.511719 1.625 9.507812 1.515625 C 9.507812 1.480469 9.464844 1.527344 9.414062 1.625 C 9.300781 1.84375 9.195312 1.921875 9.011719 1.921875 C 8.933594 1.921875 8.867188 1.914062 8.867188 1.90625 C 8.867188 1.898438 8.917969 1.777344 8.980469 1.636719 C 9.066406 1.441406 9.113281 1.300781 9.117188 1.1875 L 10.464844 1.1875 C 10.746094 1.1875 11.027344 1.191406 11.3125 1.195312 C 11.558594 1.203125 11.808594 1.210938 12.054688 1.226562 C 12.273438 1.238281 12.488281 1.253906 12.703125 1.277344 C 12.886719 1.300781 13.070312 1.324219 13.253906 1.359375 C 13.40625 1.386719 13.558594 1.425781 13.710938 1.46875 C 13.835938 1.503906 13.957031 1.550781 14.078125 1.605469 C 14.175781 1.648438 14.273438 1.699219 14.363281 1.761719 C 14.441406 1.816406 14.519531 1.878906 14.585938 1.945312 C 14.65625 2.015625 14.714844 2.089844 14.769531 2.171875 C 14.832031 2.261719 14.882812 2.355469 14.929688 2.453125 C 14.984375 2.574219 15.027344 2.695312 15.0625 2.820312 C 15.109375 2.96875 15.144531 3.121094 15.171875 3.277344 C 15.207031 3.460938 15.234375 3.640625 15.253906 3.828125 C 15.277344 4.039062 15.296875 4.257812 15.308594 4.472656 C 15.320312 4.722656 15.332031 4.96875 15.335938 5.21875 C 15.339844 5.269531 15.339844 5.320312 15.339844 5.371094 Z M 8.925781 1.1875 C 8.871094 1.585938 8.726562 1.882812 8.582031 1.882812 C 8.550781 1.882812 8.496094 1.851562 8.460938 1.808594 C 8.40625 1.746094 8.394531 1.65625 8.394531 1.34375 C 8.394531 1.289062 8.394531 1.238281 8.390625 1.1875 Z M 8.164062 1.1875 C 8.140625 1.359375 8.074219 1.511719 7.972656 1.609375 C 7.898438 1.675781 7.828125 1.734375 7.816406 1.734375 C 7.800781 1.734375 7.785156 1.621094 7.785156 1.488281 C 7.78125 1.382812 7.769531 1.28125 7.746094 1.1875 Z M 7.597656 14.8125 C 7.636719 14.796875 7.675781 14.777344 7.71875 14.757812 C 7.9375 14.648438 8.15625 14.5625 8.207031 14.5625 C 8.300781 14.5625 8.332031 14.511719 8.261719 14.46875 C 8.238281 14.453125 8.152344 14.351562 8.070312 14.238281 C 7.945312 14.066406 7.878906 13.992188 7.765625 13.992188 C 7.671875 13.992188 7.550781 14.039062 7.347656 14.125 C 7.132812 14.214844 6.878906 14.324219 6.785156 14.371094 C 6.621094 14.453125 6.40625 14.628906 6.40625 14.675781 C 6.40625 14.6875 6.507812 14.738281 6.625 14.789062 C 6.644531 14.796875 6.664062 14.804688 6.683594 14.8125 Z M 10.464844 0.53125 C 15.308594 0.53125 16 1.222656 16 6.0625 L 16 9.9375 C 16 14.777344 15.308594 15.46875 10.464844 15.46875 L 5.535156 15.46875 C 0.691406 15.46875 0 14.777344 0 9.9375 L 0 6.0625 C 0 1.222656 0.691406 0.53125 5.535156 0.53125 Z M 10.464844 0.53125 "/>
</g>
</svg>
