
<svg xmlns="http://www.w3.org/2000/svg" xmlns:xlink="http://www.w3.org/1999/xlink" width="16px" height="16px" viewBox="0 0 16 16" version="1.1">
<g id="surface1">
<path style=" stroke:none;fill-rule:evenodd;fill:#ff6666;fill-opacity:1;" d="M 16 8 C 16 12.417969 12.417969 16 8 16 C 3.582031 16 0 12.417969 0 8 C 0 3.582031 3.582031 0 8 0 C 12.417969 0 16 3.582031 16 8 Z M 5.046875 1.753906 C 3.429688 2.519531 2.164062 3.886719 1.53125 5.578125 C 2.371094 6.3125 4.402344 8.082031 4.585938 8.242188 C 4.636719 8.285156 4.714844 8.355469 4.792969 8.425781 L 4.796875 8.429688 C 4.847656 8.472656 4.898438 8.515625 4.941406 8.554688 L 5.148438 8.734375 L 5.292969 8.726562 C 5.371094 8.722656 5.636719 8.707031 5.882812 8.6875 C 6.125 8.667969 6.433594 8.648438 6.5625 8.640625 C 6.695312 8.632812 6.828125 8.625 6.859375 8.621094 C 6.890625 8.613281 7.023438 8.605469 7.15625 8.597656 C 7.285156 8.589844 7.523438 8.574219 7.679688 8.5625 C 7.835938 8.550781 8.132812 8.527344 8.339844 8.515625 C 8.390625 8.511719 8.4375 8.507812 8.480469 8.507812 C 8.679688 8.496094 8.757812 8.492188 8.785156 8.449219 C 8.804688 8.421875 8.800781 8.378906 8.792969 8.304688 C 8.792969 8.28125 8.789062 8.257812 8.789062 8.226562 C 8.746094 7.617188 8.703125 6.945312 8.621094 5.8125 C 8.605469 5.554688 8.582031 5.230469 8.574219 5.09375 L 8.558594 4.84375 L 8.453125 4.738281 C 8.394531 4.683594 8.277344 4.574219 8.191406 4.5 C 8.167969 4.480469 8.132812 4.449219 8.09375 4.414062 L 8.089844 4.410156 C 7.972656 4.308594 7.800781 4.160156 7.644531 4.023438 C 7.429688 3.835938 7.214844 3.648438 7.167969 3.605469 C 7.117188 3.5625 7.003906 3.464844 6.917969 3.390625 C 6.828125 3.3125 6.460938 2.988281 6.097656 2.671875 C 5.773438 2.386719 5.34375 2.011719 5.046875 1.753906 Z M 9.582031 10.144531 C 9.402344 10.085938 9.210938 9.890625 9.136719 9.695312 C 9.003906 9.34375 9.175781 8.945312 9.527344 8.785156 C 9.648438 8.730469 9.699219 8.722656 9.851562 8.730469 C 10.144531 8.746094 10.351562 8.882812 10.480469 9.140625 C 10.570312 9.324219 10.566406 9.59375 10.472656 9.773438 C 10.296875 10.105469 9.929688 10.257812 9.582031 10.144531 Z M 9.582031 10.144531 "/>
</g>
</svg>
