
<svg xmlns="http://www.w3.org/2000/svg" xmlns:xlink="http://www.w3.org/1999/xlink" width="16px" height="16px" viewBox="0 0 16 16" version="1.1">
<g id="surface1">
<path style=" stroke:none;fill-rule:evenodd;fill:#ff6666;fill-opacity:1;" d="M 3.988281 0 C 3.113281 0 2.390625 0.589844 2.164062 1.390625 L 13.914062 1.390625 L 13.914062 0 Z M 2.085938 2.433594 L 2.085938 3.824219 L 13.914062 3.824219 L 13.914062 2.433594 Z M 2.085938 4.871094 L 2.085938 6.261719 L 5.914062 6.261719 L 5.914062 4.871094 Z M 2.085938 7.304688 L 2.085938 8.695312 L 5.914062 8.695312 L 5.914062 7.304688 Z M 2.085938 9.738281 L 2.085938 11.128906 L 5.914062 11.128906 L 5.914062 9.738281 Z M 2.085938 12.175781 L 2.085938 13.566406 L 13.914062 13.566406 L 13.914062 12.175781 Z M 2.164062 14.609375 C 2.390625 15.410156 3.113281 16 3.988281 16 L 13.914062 16 L 13.914062 14.609375 Z M 2.164062 14.609375 "/>
</g>
</svg>
