
<svg xmlns="http://www.w3.org/2000/svg" xmlns:xlink="http://www.w3.org/1999/xlink" width="16px" height="16px" viewBox="0 0 16 16" version="1.1">
<g id="surface1">
<path style=" stroke:none;fill-rule:nonzero;fill:#ff6666;fill-opacity:1;" d="M 6 2 C 2.667969 2 0 4.667969 0 8 C 0 11.332031 2.667969 14 6 14 C 9.332031 14 12 11.332031 12 8 C 12 4.667969 9.332031 2 6 2 Z M 9.605469 2.210938 C 11.523438 3.507812 12.675781 5.679688 12.667969 8 C 12.675781 10.320312 11.527344 12.492188 9.605469 13.792969 C 12.136719 13.058594 14 10.800781 14 8 C 14 5.199219 12.136719 2.941406 9.605469 2.207031 Z M 11.605469 2.210938 C 13.523438 3.507812 14.675781 5.679688 14.667969 8 C 14.675781 10.320312 13.527344 12.492188 11.605469 13.792969 C 14.136719 13.058594 16 10.800781 16 8 C 16 5.199219 14.136719 2.941406 11.605469 2.207031 Z M 5.792969 3.332031 L 6.539062 3.332031 L 6.539062 4.394531 C 7.011719 4.449219 7.4375 4.691406 7.730469 5.0625 C 7.996094 5.394531 8.210938 5.941406 8.210938 6.539062 L 6.789062 6.539062 C 6.789062 6.207031 6.738281 5.867188 6.605469 5.667969 C 6.472656 5.46875 6.328125 5.457031 6.0625 5.457031 C 5.863281 5.457031 5.671875 5.527344 5.605469 5.730469 C 5.507812 5.9375 5.460938 6.164062 5.457031 6.394531 C 5.457031 6.597656 5.535156 6.804688 5.605469 6.9375 C 5.738281 7.070312 5.9375 7.257812 6.269531 7.457031 C 6.9375 7.722656 7.402344 8 7.667969 8.332031 C 8 8.667969 8.125 9.128906 8.125 9.730469 C 8.125 10.261719 8 10.730469 7.667969 11.0625 C 7.332031 11.394531 6.929688 11.597656 6.394531 11.667969 L 6.394531 12.667969 L 5.730469 12.667969 L 5.730469 11.667969 C 5.195312 11.597656 4.730469 11.402344 4.394531 11 C 4.0625 10.667969 3.875 10.128906 3.875 9.394531 L 5.207031 9.394531 C 5.207031 9.796875 5.257812 10.132812 5.457031 10.332031 C 5.589844 10.53125 5.796875 10.667969 6.0625 10.667969 C 6.328125 10.667969 6.472656 10.597656 6.605469 10.394531 C 6.738281 10.261719 6.789062 9.996094 6.789062 9.730469 C 6.789062 9.464844 6.738281 9.261719 6.605469 9.0625 C 6.472656 8.929688 6.265625 8.738281 6 8.605469 C 5.332031 8.339844 4.875 8.0625 4.539062 7.730469 C 4.207031 7.394531 4.0625 6.933594 4.0625 6.332031 C 4.0625 5.800781 4.207031 5.332031 4.539062 5 C 4.875 4.667969 5.257812 4.394531 5.789062 4.394531 Z M 5.792969 3.332031 "/>
</g>
</svg>
