
<svg xmlns="http://www.w3.org/2000/svg" xmlns:xlink="http://www.w3.org/1999/xlink" width="16px" height="16px" viewBox="0 0 16 16" version="1.1">
<g id="surface1">
<path style=" stroke:none;fill-rule:nonzero;fill:#ff6666;fill-opacity:1;" d="M 15.402344 0.597656 C 14.609375 -0.199219 13.320312 -0.199219 12.523438 0.597656 L 10.121094 2.996094 L 9.460938 2.335938 C 9.113281 1.984375 8.546875 1.984375 8.199219 2.335938 C 7.851562 2.683594 7.851562 3.246094 8.199219 3.59375 L 8.863281 4.257812 L 1.484375 11.636719 C 1.121094 12 0.921875 12.464844 0.890625 12.9375 C 0.878906 13.132812 0.828125 13.492188 0.769531 13.878906 C 0.761719 13.941406 0.734375 14.003906 0.683594 14.054688 L 0.132812 14.605469 C -0.0429688 14.78125 -0.0429688 15.070312 0.132812 15.246094 L 0.753906 15.867188 C 0.929688 16.042969 1.21875 16.042969 1.394531 15.867188 L 1.945312 15.316406 C 1.996094 15.265625 2.054688 15.238281 2.121094 15.230469 C 2.507812 15.171875 2.867188 15.121094 3.0625 15.109375 C 3.535156 15.078125 4 14.878906 4.363281 14.515625 L 11.742188 7.136719 L 12.40625 7.800781 C 12.753906 8.148438 13.316406 8.148438 13.664062 7.800781 C 14.015625 7.453125 14.015625 6.886719 13.664062 6.539062 L 11.46875 4.339844 L 13.191406 5.6875 L 15.402344 3.476562 C 16.199219 2.679688 16.199219 1.390625 15.402344 0.597656 Z M 10.675781 6.710938 L 7.027344 10.359375 C 6.847656 10.535156 6.5625 10.535156 6.386719 10.359375 L 5.804688 9.777344 C 5.628906 9.601562 5.339844 9.601562 5.164062 9.78125 L 2.4375 12.507812 C 2.378906 12.566406 2.289062 12.578125 2.246094 12.53125 C 2.199219 12.484375 2.210938 12.402344 2.269531 12.339844 L 6.507812 8.101562 L 6.511719 8.101562 L 9.289062 5.324219 C 9.464844 5.148438 9.753906 5.148438 9.929688 5.324219 L 10.675781 6.070312 C 10.851562 6.246094 10.851562 6.535156 10.675781 6.710938 Z M 10.675781 6.710938 "/>
</g>
</svg>
