
<svg xmlns="http://www.w3.org/2000/svg" xmlns:xlink="http://www.w3.org/1999/xlink" width="16px" height="16px" viewBox="0 0 16 16" version="1.1">
<g id="surface1">
<path style=" stroke:none;fill-rule:evenodd;fill:#ff6666;fill-opacity:1;" d="M 12.328125 6.605469 L 12.289062 6.667969 C 12.386719 7.082031 12.433594 7.503906 12.4375 7.925781 C 12.433594 8.238281 12.40625 8.546875 12.355469 8.851562 C 13.230469 9.15625 13.816406 9.984375 13.816406 10.910156 C 13.816406 12.113281 12.839844 13.089844 11.636719 13.089844 C 11.097656 13.089844 10.574219 12.886719 10.175781 12.527344 C 9.578125 12.988281 8.898438 13.332031 8.171875 13.535156 L 8.164062 13.542969 C 8.988281 14.632812 10.273438 15.269531 11.636719 15.273438 C 14.046875 15.273438 16 13.320312 16 10.910156 C 16 8.769531 14.445312 6.945312 12.328125 6.605469 Z M 3.648438 6.609375 C 1.546875 6.960938 0.00390625 8.777344 0 10.910156 C 0 12.066406 0.460938 13.175781 1.277344 13.996094 C 2.097656 14.8125 3.207031 15.273438 4.363281 15.273438 C 5.726562 15.273438 7.011719 14.632812 7.835938 13.546875 C 7.09375 13.355469 6.402344 13.015625 5.792969 12.554688 C 5.398438 12.898438 4.890625 13.089844 4.363281 13.089844 C 3.160156 13.089844 2.183594 12.113281 2.183594 10.910156 C 2.183594 10.011719 2.734375 9.203125 3.570312 8.875 C 3.519531 8.5625 3.492188 8.246094 3.492188 7.925781 C 3.492188 7.484375 3.546875 7.042969 3.648438 6.609375 Z M 8 0.726562 C 5.589844 0.726562 3.636719 2.679688 3.636719 5.089844 C 3.640625 5.574219 3.722656 6.058594 3.882812 6.515625 C 4.4375 5.957031 5.097656 5.519531 5.824219 5.226562 C 5.820312 5.179688 5.820312 5.136719 5.816406 5.089844 C 5.816406 3.886719 6.796875 2.910156 8 2.910156 C 9.203125 2.910156 10.183594 3.886719 10.183594 5.089844 C 10.179688 5.136719 10.179688 5.183594 10.175781 5.226562 C 10.902344 5.519531 11.5625 5.957031 12.117188 6.511719 C 12.277344 6.054688 12.363281 5.574219 12.363281 5.089844 C 12.363281 3.933594 11.902344 2.824219 11.085938 2.003906 C 10.265625 1.1875 9.15625 0.726562 8 0.726562 Z M 6.546875 5.089844 C 6.546875 4.289062 7.195312 3.636719 8 3.636719 C 8.804688 3.636719 9.453125 4.289062 9.453125 5.089844 C 9.453125 5.894531 8.804688 6.546875 8 6.546875 C 7.195312 6.546875 6.546875 5.894531 6.546875 5.089844 Z M 2.910156 10.910156 C 2.910156 10.105469 3.5625 9.453125 4.363281 9.453125 C 5.167969 9.453125 5.816406 10.105469 5.816406 10.910156 C 5.816406 11.710938 5.167969 12.363281 4.363281 12.363281 C 3.5625 12.363281 2.910156 11.710938 2.910156 10.910156 Z M 10.183594 10.910156 C 10.183594 10.105469 10.832031 9.453125 11.636719 9.453125 C 12.4375 9.453125 13.089844 10.105469 13.089844 10.910156 C 13.089844 11.710938 12.4375 12.363281 11.636719 12.363281 C 10.832031 12.363281 10.183594 11.710938 10.183594 10.910156 Z M 10.183594 10.910156 "/>
</g>
</svg>
