
<svg xmlns="http://www.w3.org/2000/svg" xmlns:xlink="http://www.w3.org/1999/xlink" width="16px" height="16px" viewBox="0 0 16 16" version="1.1">
<g id="surface1">
<path style=" stroke:none;fill-rule:evenodd;fill:#ff6666;fill-opacity:1;" d="M 14.476562 12.191406 L 14.476562 6.09375 L 11.429688 6.09375 L 11.429688 12.191406 L 12.953125 12.191406 L 12.953125 13.714844 L 16 13.714844 L 16 12.191406 Z M 6.09375 5.332031 L 5.332031 5.332031 L 5.332031 3.808594 L 3.046875 3.808594 L 3.046875 12.191406 L 5.332031 12.191406 L 5.332031 10.667969 L 6.09375 10.667969 Z M 7.617188 5.332031 L 7.617188 3.808594 L 6.855469 3.808594 L 6.855469 2.285156 L 0 2.285156 L 0 13.714844 L 6.855469 13.714844 L 6.855469 12.191406 L 7.617188 12.191406 L 7.617188 10.667969 L 9.144531 10.667969 L 9.144531 5.332031 Z M 11.429688 2.285156 L 14.476562 2.285156 L 14.476562 3.808594 L 11.429688 3.808594 Z M 11.429688 2.285156 "/>
</g>
</svg>
