
<svg xmlns="http://www.w3.org/2000/svg" xmlns:xlink="http://www.w3.org/1999/xlink" width="16px" height="16px" viewBox="0 0 16 16" version="1.1">
<g id="surface1">
<path style=" stroke:none;fill-rule:evenodd;fill:#ff6666;fill-opacity:1;" d="M 6.257812 9.683594 C 7.253906 9.496094 6.726562 8.964844 7.175781 8.570312 C 7.628906 8.179688 8.59375 8.210938 8.8125 8.996094 C 9.03125 9.777344 9.71875 8.820312 10.324219 8.804688 C 10.730469 8.796875 11.085938 8.921875 11.386719 9.183594 L 11.371094 7.175781 C 10.714844 6.894531 10.542969 7.394531 9.996094 7.550781 C 9.453125 7.707031 9.234375 5.800781 8.238281 5.824219 C 7.613281 5.84375 7.535156 6.296875 7.066406 6.390625 C 6.820312 6.441406 6.507812 6.027344 6.132812 5.152344 C 6.019531 5.035156 5.867188 4.996094 5.679688 5.027344 C 5.492188 5.058594 5.136719 5.589844 4.605469 6.625 L 4.589844 8.726562 C 5.035156 9.492188 5.59375 9.808594 6.257812 9.683594 Z M 8.96875 4.070312 C 8.96875 3.617188 9.3125 3.253906 9.734375 3.253906 C 10.15625 3.253906 10.496094 3.617188 10.496094 4.070312 C 10.496094 4.519531 10.15625 4.886719 9.734375 4.886719 C 9.3125 4.886719 8.96875 4.519531 8.96875 4.070312 Z M 1.632812 2.609375 L 3.230469 2.609375 L 3.230469 4.214844 L 1.632812 4.214844 Z M 12.808594 2.609375 L 14.402344 2.609375 L 14.402344 4.214844 L 12.808594 4.214844 Z M 1.632812 5.824219 L 3.230469 5.824219 L 3.230469 7.429688 L 1.632812 7.429688 Z M 12.808594 5.824219 L 14.402344 5.824219 L 14.402344 7.429688 L 12.808594 7.429688 Z M 1.632812 9.035156 L 3.230469 9.035156 L 3.230469 10.640625 L 1.632812 10.640625 Z M 12.808594 9.035156 L 14.402344 9.035156 L 14.402344 10.640625 L 12.808594 10.640625 Z M 4.796875 2.640625 L 11.085938 2.640625 C 11.492188 2.640625 11.820312 2.972656 11.820312 3.382812 L 11.820312 10.023438 C 11.820312 10.433594 11.492188 10.765625 11.085938 10.765625 L 4.796875 10.765625 C 4.390625 10.765625 4.058594 10.433594 4.058594 10.023438 L 4.058594 3.382812 C 4.058594 2.972656 4.390625 2.640625 4.796875 2.640625 Z M 2.863281 12.988281 L 13.234375 12.988281 C 13.675781 12.988281 14.035156 13.324219 14.035156 13.742188 C 14.035156 14.15625 13.675781 14.492188 13.234375 14.492188 L 2.863281 14.492188 C 2.421875 14.492188 2.0625 14.15625 2.0625 13.742188 C 2.0625 13.324219 2.421875 12.988281 2.863281 12.988281 Z M 1.632812 0 C 0.761719 0 0.0351562 0.726562 0.0351562 1.605469 L 0 14.394531 C 0 15.273438 0.722656 16 1.597656 16 L 14.367188 16 C 15.238281 16 15.964844 15.273438 15.964844 14.394531 L 16 1.605469 C 16 0.726562 15.277344 0 14.402344 0 Z M 1.632812 0 "/>
</g>
</svg>
