
<svg xmlns="http://www.w3.org/2000/svg" xmlns:xlink="http://www.w3.org/1999/xlink" width="16px" height="16px" viewBox="0 0 16 16" version="1.1">
<g id="surface1">
<path style=" stroke:none;fill-rule:evenodd;fill:#ff6666;fill-opacity:1;" d="M 13.066406 1.808594 C 11.683594 0.679688 9.921875 0 8 0 C 3.585938 0 0 3.585938 0 8 C 0 12.414062 3.585938 16 8 16 C 9.820312 16 11.503906 15.390625 12.847656 14.359375 L 14.179688 15.976562 L 15.980469 14.304688 L 14.078125 13.195312 C 15.277344 11.796875 16 9.984375 16 8 C 16 6.082031 15.324219 4.320312 14.195312 2.941406 L 15.171875 1.964844 L 14.636719 0.238281 Z M 12.355469 2.519531 C 11.125 1.542969 9.59375 1 8 1 C 6.140625 1 4.359375 1.738281 3.050781 3.050781 C 1.738281 4.359375 1 6.140625 1 8 C 1 9.859375 1.738281 11.640625 3.050781 12.949219 C 4.359375 14.261719 6.140625 15 8 15 C 9.558594 15 11.078125 14.480469 12.308594 13.519531 C 14 12.191406 15 10.148438 15 8 C 15 6.410156 14.460938 4.878906 13.484375 3.652344 L 9.640625 7.496094 C 9.6875 7.65625 9.714844 7.824219 9.714844 8 C 9.714844 8.945312 8.945312 9.714844 8 9.714844 C 7.089844 9.714844 6.34375 9.003906 6.289062 8.105469 L 3.808594 6.65625 L 4.058594 4.984375 L 6.941406 6.652344 C 7.234375 6.421875 7.601562 6.285156 8 6.285156 C 8.179688 6.285156 8.351562 6.3125 8.511719 6.363281 Z M 12.355469 2.519531 "/>
</g>
</svg>
