
<svg xmlns="http://www.w3.org/2000/svg" xmlns:xlink="http://www.w3.org/1999/xlink" width="16px" height="16px" viewBox="0 0 16 16" version="1.1">
<g id="surface1">
<path style=" stroke:none;fill-rule:nonzero;fill:#ff6666;fill-opacity:1;" d="M 14.71875 5.761719 L 16 2.398438 C 16 1.039062 14.960938 0 13.601562 0 L 2.398438 0 C 1.039062 0 0 1.039062 0 2.398438 L 1.039062 5.28125 C 0.398438 5.757812 0 6.480469 0 7.359375 L 0 16 L 16 16 L 16 8 C 16 7.117188 15.519531 6.316406 14.71875 5.761719 Z M 1.601562 8 L 1.601562 7.359375 C 1.601562 6.558594 2.800781 5.917969 3.839844 6.238281 L 4.640625 6.480469 L 4.882812 5.683594 C 5.039062 5.199219 5.683594 4.800781 6.398438 4.800781 C 6.960938 4.800781 7.519531 5.039062 7.761719 5.441406 L 8.160156 5.917969 L 8.800781 5.683594 C 9.761719 5.199219 10.960938 5.683594 11.199219 6.398438 L 11.441406 7.199219 L 12.238281 6.960938 C 13.199219 6.558594 14.398438 7.199219 14.398438 8 Z M 8.800781 10.398438 C 8.800781 10.882812 8.480469 11.199219 8 11.199219 C 7.519531 11.199219 7.199219 10.882812 7.199219 10.398438 C 7.199219 9.917969 7.519531 9.601562 8 9.601562 C 8.480469 9.601562 8.800781 9.917969 8.800781 10.398438 Z M 14.558594 2.398438 L 13.359375 5.28125 C 13.199219 5.28125 12.960938 5.199219 12.800781 5.199219 L 12.316406 5.199219 C 11.757812 4.398438 10.71875 3.839844 9.601562 3.839844 C 9.28125 3.839844 8.960938 3.917969 8.640625 4 C 8.082031 3.519531 7.28125 3.199219 6.398438 3.199219 C 5.28125 3.199219 4.238281 3.761719 3.683594 4.558594 L 3.199219 4.558594 C 2.882812 4.558594 2.640625 4.640625 2.316406 4.640625 L 1.441406 2.398438 Z M 3.199219 14.398438 C 3.199219 13.519531 2.480469 12.800781 1.601562 12.800781 L 1.601562 9.601562 L 5.601562 9.601562 L 5.601562 11.199219 C 5.601562 12.082031 6.316406 12.800781 7.199219 12.800781 L 8.800781 12.800781 C 9.683594 12.800781 10.398438 12.082031 10.398438 11.199219 L 10.398438 9.601562 L 14.398438 9.601562 L 14.398438 12.800781 C 13.519531 12.800781 12.800781 13.519531 12.800781 14.398438 Z M 3.199219 14.398438 "/>
</g>
</svg>
