
<svg xmlns="http://www.w3.org/2000/svg" xmlns:xlink="http://www.w3.org/1999/xlink" width="16px" height="16px" viewBox="0 0 16 16" version="1.1">
<g id="surface1">
<path style=" stroke:none;fill-rule:nonzero;fill:#ff6666;fill-opacity:1;" d="M 2.800781 0 L 2.800781 15.992188 L 5.601562 16 L 5.601562 10.273438 C 5.78125 10.410156 6.0625 10.695312 6.257812 10.800781 L 10.460938 10.800781 C 12.128906 9.886719 13.199219 7.746094 13.199219 5.578125 C 13.199219 2.496094 11.085938 0 8.476562 0 C 7.574219 0.00390625 6.359375 0.308594 5.601562 0.886719 L 5.601562 0 Z M 5.488281 1.597656 C 5.789062 1.605469 6.0625 1.777344 6.382812 2.027344 C 6.929688 2.460938 7.613281 3.035156 8.210938 3.636719 C 8.566406 3.582031 9.019531 3.566406 9.636719 3.597656 C 10.296875 3.054688 10.882812 3.1875 11.449219 3.535156 C 11.625 4.242188 11.351562 4.441406 11.382812 4.671875 L 11.464844 5.273438 C 11.035156 5.476562 10.652344 5.207031 10.269531 4.949219 L 10.285156 4.984375 L 10.046875 6.039062 C 9.988281 7.070312 10.148438 7.847656 10.609375 8.703125 L 10.230469 8.878906 C 9.976562 8.230469 9.65625 7.617188 9.621094 6.863281 C 9.070312 7.492188 9.496094 8.332031 9.710938 9.125 L 9.171875 9.484375 C 8.855469 9.113281 8.753906 7.941406 8.667969 6.710938 C 8.480469 7.125 8.300781 7.542969 8 7.902344 C 8.132812 8.480469 8.132812 9.058594 7.800781 9.636719 L 7.285156 9.980469 L 7.097656 7.796875 C 6.921875 8.285156 6.800781 9.25 6.570312 9.246094 C 6.335938 8.03125 7.027344 7.148438 7.644531 6.238281 L 7.496094 6.308594 L 6.425781 7.265625 C 5.589844 7.703125 2.171875 9.488281 5.289062 5.203125 C 5.597656 4.78125 6.050781 5.257812 6.605469 4.710938 C 6.644531 4.664062 6.679688 4.621094 6.71875 4.578125 C 5.835938 4.273438 4.5 3.722656 4.398438 3.039062 C 4.398438 3.039062 4.367188 2.285156 4.585938 2.019531 C 4.941406 1.710938 5.226562 1.589844 5.488281 1.597656 Z M 5.488281 1.597656 "/>
</g>
</svg>
