
<svg xmlns="http://www.w3.org/2000/svg" xmlns:xlink="http://www.w3.org/1999/xlink" width="16px" height="16px" viewBox="0 0 16 16" version="1.1">
<g id="surface1">
<path style=" stroke:none;fill-rule:evenodd;fill:#ff6666;fill-opacity:1;" d="M 7.226562 0.773438 C 3.234375 0.773438 0 4.007812 0 8 C 0 11.992188 3.234375 15.226562 7.226562 15.226562 C 9.734375 15.222656 12.058594 13.917969 13.371094 11.78125 L 7.585938 8.066406 L 13.382812 4.226562 C 12.070312 2.085938 9.738281 0.777344 7.226562 0.773438 Z M 12.902344 8 C 12.902344 7.144531 13.597656 6.453125 14.453125 6.453125 C 15.304688 6.453125 16 7.144531 16 8 C 16 8.855469 15.304688 9.546875 14.453125 9.546875 C 13.597656 9.546875 12.902344 8.855469 12.902344 8 Z M 12.902344 8 "/>
</g>
</svg>
