
<svg xmlns="http://www.w3.org/2000/svg" xmlns:xlink="http://www.w3.org/1999/xlink" width="16px" height="16px" viewBox="0 0 16 16" version="1.1">
<g id="surface1">
<path style=" stroke:none;fill-rule:evenodd;fill:#ff6666;fill-opacity:1;" d="M 7.234375 3.734375 C 6.585938 4.832031 5.9375 5.929688 5.289062 6.96875 C 4.953125 7.480469 4.453125 7.800781 3.949219 7.800781 C 2.195312 7.789062 2.234375 6.84375 1.484375 5.796875 C 1.613281 5.652344 1.683594 5.46875 1.683594 5.261719 C 1.683594 4.796875 1.308594 4.421875 0.84375 4.421875 C 0.378906 4.421875 0 4.796875 0 5.261719 C 0 5.707031 0.347656 6.074219 0.78125 6.101562 L 0.828125 6.234375 C 1.164062 7.535156 1.441406 8.949219 1.777344 10.421875 C 1.832031 10.648438 2 10.816406 2.222656 10.816406 C 4.117188 11.046875 6.066406 11.15625 8.019531 11.15625 C 9.96875 11.15625 11.917969 11.046875 13.8125 10.816406 C 13.980469 10.816406 14.148438 10.648438 14.203125 10.421875 C 14.539062 8.949219 14.816406 7.535156 15.152344 6.234375 L 15.195312 6.105469 C 15.644531 6.085938 16 5.714844 16 5.261719 C 16 4.796875 15.621094 4.421875 15.15625 4.421875 C 14.691406 4.421875 14.316406 4.796875 14.316406 5.261719 C 14.316406 5.503906 14.417969 5.722656 14.585938 5.867188 C 13.730469 6.796875 13.382812 7.742188 11.976562 7.800781 C 11.417969 7.800781 10.972656 7.480469 10.636719 6.96875 C 9.996094 5.941406 9.359375 4.863281 8.71875 3.78125 C 9.046875 3.550781 9.261719 3.167969 9.261719 2.738281 C 9.261719 2.039062 8.695312 1.472656 8 1.472656 C 7.304688 1.472656 6.738281 2.039062 6.738281 2.738281 C 6.738281 3.144531 6.929688 3.507812 7.234375 3.734375 Z M 13.894531 12.355469 C 13.894531 12.109375 13.734375 11.960938 13.464844 12.007812 C 11.679688 12.253906 9.851562 12.503906 8.023438 12.503906 C 6.183594 12.507812 4.335938 12.257812 2.535156 12.007812 C 2.320312 11.960938 2.105469 12.15625 2.105469 12.355469 L 2.105469 13.390625 C 2.105469 13.636719 2.265625 13.886719 2.535156 13.933594 C 6.125 14.722656 9.875 14.722656 13.464844 13.933594 C 13.679688 13.886719 13.894531 13.636719 13.894531 13.390625 Z M 13.894531 12.355469 "/>
</g>
</svg>
