
<svg xmlns="http://www.w3.org/2000/svg" xmlns:xlink="http://www.w3.org/1999/xlink" width="16px" height="16px" viewBox="0 0 16 16" version="1.1">
<g id="surface1">
<path style=" stroke:none;fill-rule:evenodd;fill:#ff6666;fill-opacity:1;" d="M 12 9.28125 C 11.832031 9.65625 11.75 9.824219 11.53125 10.15625 C 11.230469 10.617188 10.800781 11.195312 10.269531 11.199219 C 9.796875 11.203125 9.675781 10.894531 9.035156 10.898438 C 8.398438 10.902344 8.261719 11.207031 7.792969 11.199219 C 7.015625 11.199219 5.65625 9.519531 5.65625 8 C 5.65625 6.335938 6.816406 5.617188 7.578125 5.617188 C 8.140625 5.617188 8.566406 5.996094 9.027344 5.996094 C 9.480469 5.996094 9.753906 5.597656 10.40625 5.597656 C 10.898438 5.597656 11.714844 6.050781 12 6.535156 C 10.5 6.949219 10.75 8.964844 12 9.28125 Z M 10.007812 5.078125 C 10.261719 4.796875 10.453125 4.402344 10.386719 4 C 9.941406 4.039062 9.523438 4.234375 9.203125 4.546875 C 8.945312 4.8125 8.734375 5.210938 8.816406 5.597656 C 9.269531 5.609375 9.738281 5.378906 10.007812 5.078125 Z M 1.601562 8.800781 C 1.15625 8.800781 0.800781 8.441406 0.800781 8 C 0.800781 7.558594 1.15625 7.199219 1.601562 7.199219 C 2.042969 7.199219 2.398438 7.558594 2.398438 8 C 2.398438 8.441406 2.042969 8.800781 1.601562 8.800781 Z M 14.398438 12.800781 L 3.199219 12.800781 L 3.199219 3.199219 L 14.398438 3.199219 Z M 14.398438 1.601562 L 1.601562 1.601562 C 0.71875 1.601562 0 2.316406 0 3.199219 L 0 12.800781 C 0 13.683594 0.71875 14.398438 1.601562 14.398438 L 14.398438 14.398438 C 15.28125 14.398438 16 13.683594 16 12.800781 L 16 3.199219 C 16 2.316406 15.28125 1.601562 14.398438 1.601562 Z M 14.398438 1.601562 "/>
</g>
</svg>
