
<svg xmlns="http://www.w3.org/2000/svg" xmlns:xlink="http://www.w3.org/1999/xlink" width="16px" height="16px" viewBox="0 0 16 16" version="1.1">
<g id="surface1">
<path style=" stroke:none;fill-rule:nonzero;fill:#ff6666;fill-opacity:1;" d="M 8 0 C 7.3125 0 6.757812 0.523438 6.757812 1.125 L 9.242188 1.125 C 9.242188 0.5625 8.6875 0 8 0 Z M 3.011719 0.195312 C 2.355469 0.246094 1.707031 0.550781 1.167969 1.089844 C 0.09375 2.164062 -0.125 3.71875 0.953125 4.792969 L 4.855469 0.894531 C 4.316406 0.355469 3.664062 0.144531 3.011719 0.195312 Z M 12.503906 0.195312 C 12.019531 0.261719 11.546875 0.492188 11.144531 0.894531 L 15.046875 4.796875 C 16.125 3.71875 15.90625 2.164062 14.832031 1.089844 C 14.160156 0.414062 13.3125 0.0859375 12.503906 0.195312 Z M 8 1.863281 C 4.289062 1.863281 1.28125 4.871094 1.28125 8.578125 C 1.28125 10.804688 2.375 12.773438 4.039062 13.996094 L 3.554688 15.433594 C 3.488281 15.648438 3.597656 15.875 3.808594 15.957031 C 4.089844 16.082031 4.308594 15.90625 4.371094 15.78125 L 5.011719 14.597656 C 5.941406 15.058594 6.964844 15.296875 8 15.296875 C 9.074219 15.296875 10.089844 15.046875 10.988281 14.597656 L 11.628906 15.78125 C 11.691406 15.90625 11.910156 16.082031 12.191406 15.957031 C 12.472656 15.832031 12.492188 15.5625 12.445312 15.433594 L 11.960938 13.996094 C 13.628906 12.773438 14.71875 10.804688 14.71875 8.582031 C 14.71875 4.871094 11.710938 1.863281 8 1.863281 Z M 7.378906 3.492188 L 7.378906 3.921875 C 7.378906 4.136719 7.492188 4.332031 7.671875 4.445312 C 7.628906 4.511719 7.601562 4.582031 7.59375 4.660156 L 7.4375 7.785156 C 7.179688 7.96875 7.027344 8.265625 7.03125 8.578125 C 7.03125 9.117188 7.460938 9.550781 8 9.550781 C 8.035156 9.550781 8.0625 9.535156 8.097656 9.53125 L 10 11.222656 C 10.105469 11.316406 10.375 11.386719 10.601562 11.160156 C 10.828125 10.9375 10.753906 10.671875 10.660156 10.5625 L 8.972656 8.621094 L 8.972656 8.578125 C 8.972656 8.234375 8.792969 7.941406 8.523438 7.765625 L 8.40625 4.660156 C 8.398438 4.582031 8.371094 4.507812 8.328125 4.445312 C 8.511719 4.332031 8.621094 4.136719 8.621094 3.921875 L 8.621094 3.492188 C 10.925781 3.773438 12.769531 5.589844 13.085938 7.882812 L 12.660156 7.882812 C 12.398438 7.867188 12.152344 7.996094 12.019531 8.21875 C 11.882812 8.441406 11.882812 8.71875 12.019531 8.941406 C 12.152344 9.164062 12.398438 9.296875 12.660156 9.277344 L 13.085938 9.277344 C 12.777344 11.546875 10.964844 13.355469 8.699219 13.667969 L 8.699219 13.238281 C 8.707031 13.023438 8.609375 12.816406 8.445312 12.679688 C 8.277344 12.542969 8.054688 12.492188 7.84375 12.539062 C 7.519531 12.613281 7.292969 12.90625 7.300781 13.238281 L 7.300781 13.667969 C 5.035156 13.355469 3.222656 11.546875 2.914062 9.277344 L 3.339844 9.277344 C 3.726562 9.277344 4.039062 8.964844 4.039062 8.578125 C 4.039062 8.195312 3.726562 7.882812 3.339844 7.882812 L 2.914062 7.882812 C 3.230469 5.589844 5.074219 3.773438 7.378906 3.492188 Z M 7.378906 3.492188 "/>
</g>
</svg>
