
<svg xmlns="http://www.w3.org/2000/svg" xmlns:xlink="http://www.w3.org/1999/xlink" width="16px" height="16px" viewBox="0 0 16 16" version="1.1">
<g id="surface1">
<path style=" stroke:none;fill-rule:nonzero;fill:#ff6666;fill-opacity:1;" d="M 7.464844 0 C 7.234375 0.015625 7.003906 0.0429688 6.773438 0.078125 L 6.441406 1.742188 C 5.824219 1.902344 5.242188 2.152344 4.710938 2.480469 L 3.289062 1.53125 C 2.621094 2.019531 2.03125 2.609375 1.542969 3.277344 L 2.519531 4.738281 C 2.222656 5.253906 1.984375 5.816406 1.839844 6.410156 L 0.0976562 6.753906 C 0.0351562 7.15625 0 7.570312 0 7.992188 C 0 8.414062 0.0351562 8.828125 0.0976562 9.230469 L 1.875 9.582031 C 2.027344 10.152344 2.257812 10.691406 2.554688 11.1875 L 1.542969 12.703125 C 2.035156 13.371094 2.625 13.964844 3.292969 14.453125 L 4.8125 13.441406 C 5.308594 13.734375 5.847656 13.972656 6.417969 14.125 L 6.769531 15.902344 C 7.171875 15.964844 7.585938 16 8.007812 16 C 8.429688 16 8.84375 15.96875 9.246094 15.902344 L 9.589844 14.160156 C 10.183594 14.015625 10.746094 13.785156 11.261719 13.488281 L 12.71875 14.457031 C 13.390625 13.96875 13.980469 13.378906 14.472656 12.707031 L 13.523438 11.289062 C 13.851562 10.757812 14.097656 10.175781 14.257812 9.558594 L 15.921875 9.226562 C 15.957031 8.996094 15.984375 8.765625 16 8.535156 L 16 7.445312 C 15.984375 7.214844 15.957031 6.988281 15.921875 6.761719 L 14.292969 6.433594 C 14.136719 5.792969 13.890625 5.1875 13.5625 4.636719 L 14.472656 3.273438 C 13.980469 2.605469 13.390625 2.015625 12.722656 1.527344 L 11.363281 2.433594 C 10.8125 2.101562 10.207031 1.863281 9.566406 1.707031 L 9.238281 0.078125 C 9.011719 0.0429688 8.785156 0.015625 8.554688 0 Z M 8.203125 3.328125 C 9.445312 3.328125 10.613281 3.8125 11.496094 4.691406 L 10.210938 5.976562 C 9.675781 5.441406 8.960938 5.144531 8.203125 5.144531 C 6.632812 5.144531 5.355469 6.421875 5.355469 7.992188 C 5.355469 9.558594 6.632812 10.835938 8.203125 10.835938 C 8.960938 10.835938 9.675781 10.542969 10.210938 10.003906 L 11.496094 11.292969 C 10.613281 12.167969 9.445312 12.652344 8.203125 12.652344 C 6.957031 12.652344 5.785156 12.167969 4.90625 11.289062 C 4.023438 10.40625 3.539062 9.234375 3.539062 7.992188 C 3.539062 6.746094 4.023438 5.574219 4.90625 4.695312 C 5.785156 3.8125 6.957031 3.328125 8.203125 3.328125 Z M 8.203125 3.328125 "/>
</g>
</svg>
