
<svg xmlns="http://www.w3.org/2000/svg" xmlns:xlink="http://www.w3.org/1999/xlink" width="16px" height="16px" viewBox="0 0 16 16" version="1.1">
<g id="surface1">
<path style=" stroke:none;fill-rule:nonzero;fill:#ff6666;fill-opacity:1;" d="M 3.992188 0 C 2.734375 0.015625 1.816406 -0.03125 1.0625 0.382812 C 0.6875 0.59375 0.390625 0.945312 0.226562 1.382812 C 0.0585938 1.820312 0 2.34375 0 3 L 0 9 C 0 9.65625 0.0585938 10.179688 0.226562 10.617188 C 0.390625 11.054688 0.6875 11.40625 1.0625 11.613281 C 1.816406 12.03125 2.734375 11.984375 3.992188 12 L 6 12 L 6 13 L 10 13 L 10 12 L 12.003906 12 C 13.265625 11.984375 14.183594 12.03125 14.9375 11.613281 C 15.3125 11.40625 15.609375 11.054688 15.777344 10.617188 C 15.941406 10.179688 16 9.65625 16 9 L 16 3 C 16 2.34375 15.941406 1.820312 15.777344 1.382812 C 15.609375 0.945312 15.3125 0.59375 14.9375 0.382812 C 14.183594 -0.03125 13.265625 0.015625 12.003906 0 Z M 4 1 L 12 1 C 13.257812 1.015625 14.085938 1.058594 14.453125 1.261719 C 14.636719 1.363281 14.742188 1.472656 14.839844 1.734375 C 14.9375 1.996094 15 2.40625 15 3 L 15 9 C 15 9.59375 14.9375 10.003906 14.839844 10.265625 C 14.742188 10.527344 14.636719 10.636719 14.453125 10.738281 C 14.085938 10.941406 13.257812 10.984375 12 11 L 4 11 C 2.742188 10.984375 1.910156 10.941406 1.546875 10.738281 C 1.363281 10.636719 1.257812 10.527344 1.160156 10.265625 C 1.0625 10.003906 1 9.59375 1 9 L 1 3 C 1 2.40625 1.0625 1.996094 1.160156 1.734375 C 1.257812 1.472656 1.363281 1.363281 1.546875 1.261719 C 1.910156 1.058594 2.742188 1.015625 4 1 Z M 3 14 L 0 15 L 0 16 L 16 16 L 16 15 L 13 14 Z M 3 14 "/>
</g>
</svg>
