
<svg xmlns="http://www.w3.org/2000/svg" xmlns:xlink="http://www.w3.org/1999/xlink" width="16px" height="16px" viewBox="0 0 16 16" version="1.1">
<g id="surface1">
<path style=" stroke:none;fill-rule:nonzero;fill:#ff6666;fill-opacity:1;" d="M 14.769531 14.851562 C 14.015625 15.230469 13.230469 15.519531 12.414062 15.710938 C 11.597656 15.902344 10.742188 16 9.855469 16 C 7.203125 16 5.105469 15.285156 3.554688 13.851562 C 2.003906 12.410156 1.230469 10.464844 1.230469 8.003906 C 1.230469 5.539062 2.003906 3.589844 3.554688 2.160156 C 5.105469 0.71875 7.203125 0 9.855469 0 C 10.742188 0 11.597656 0.0976562 12.414062 0.289062 C 13.230469 0.480469 14.015625 0.769531 14.769531 1.148438 L 14.769531 4.46875 C 14.007812 3.964844 13.257812 3.597656 12.519531 3.363281 C 11.78125 3.128906 11.148438 3.011719 10.332031 3.011719 C 8.867188 3.011719 7.71875 3.464844 6.878906 4.375 C 6.039062 5.285156 5.621094 6.40625 5.621094 8.003906 C 5.621094 9.597656 6.039062 10.714844 6.878906 11.625 C 7.71875 12.535156 8.867188 12.988281 10.332031 12.988281 C 11.148438 12.988281 11.78125 12.871094 12.519531 12.636719 C 13.257812 12.402344 14.007812 12.035156 14.769531 11.53125 Z M 14.769531 14.851562 "/>
</g>
</svg>
