
<svg xmlns="http://www.w3.org/2000/svg" xmlns:xlink="http://www.w3.org/1999/xlink" width="16px" height="16px" viewBox="0 0 16 16" version="1.1">
<g id="surface1">
<path style=" stroke:none;fill-rule:evenodd;fill:#ff6666;fill-opacity:1;" d="M 9.496094 14.5 L 4.820312 14.5 C 4.542969 14.5 4.320312 14.277344 4.320312 14 L 4.320312 10.082031 C 4.3125 10.027344 4.3125 9.972656 4.320312 9.921875 L 4.320312 6.082031 C 4.3125 6.027344 4.3125 5.972656 4.320312 5.921875 L 4.320312 4.5 L 5.320312 4.5 L 5.320312 5.5 L 9.496094 5.5 C 9.699219 4.832031 10.320312 4.34375 11.054688 4.34375 C 11.953125 4.34375 12.679688 5.070312 12.679688 5.96875 C 12.679688 6.867188 11.953125 7.59375 11.054688 7.59375 C 10.34375 7.59375 9.738281 7.136719 9.519531 6.5 L 5.320312 6.5 L 5.320312 9.5 L 9.496094 9.5 C 9.699219 8.832031 10.320312 8.34375 11.054688 8.34375 C 11.953125 8.34375 12.679688 9.070312 12.679688 9.96875 C 12.679688 10.867188 11.953125 11.59375 11.054688 11.59375 C 10.34375 11.59375 9.738281 11.136719 9.519531 10.5 L 5.320312 10.5 L 5.320312 13.5 L 9.519531 13.5 C 9.738281 12.863281 10.34375 12.40625 11.054688 12.40625 C 11.953125 12.40625 12.679688 13.132812 12.679688 14.03125 C 12.679688 14.929688 11.953125 15.65625 11.054688 15.65625 C 10.320312 15.65625 9.699219 15.167969 9.496094 14.5 Z M 4.320312 0.5 L 4.320312 1.5 L 3.320312 1.5 L 3.320312 2.5 L 4.320312 2.5 L 4.320312 3.5 L 5.320312 3.5 L 5.320312 2.5 L 6.320312 2.5 L 6.320312 1.5 L 5.320312 1.5 L 5.320312 0.5 Z M 4.320312 0.5 "/>
</g>
</svg>
