
<svg xmlns="http://www.w3.org/2000/svg" xmlns:xlink="http://www.w3.org/1999/xlink" width="16px" height="16px" viewBox="0 0 16 16" version="1.1">
<g id="surface1">
<path style=" stroke:none;fill-rule:nonzero;fill:#ff6666;fill-opacity:1;" d="M 8 2 C 5.074219 2 2.574219 4.113281 2.085938 7 L 3.101562 7 C 3.578125 4.671875 5.625 3 8 3 C 9.984375 3.003906 11.777344 4.179688 12.574219 6 L 9 6 L 9 7 L 14 7 L 14 2 L 13 2 L 13 4.699219 C 11.890625 3.015625 10.015625 2.003906 8 2 M 2 9 L 2 14 L 3 14 L 3 11.300781 C 4.109375 12.984375 5.984375 13.996094 8 14 C 10.925781 14 13.425781 11.886719 13.914062 9 L 12.898438 9 C 12.421875 11.328125 10.375 13 8 13 C 6.015625 12.996094 4.222656 11.820312 3.425781 10 L 7 10 L 7 9 Z M 2 9 "/>
</g>
</svg>
