
<svg xmlns="http://www.w3.org/2000/svg" xmlns:xlink="http://www.w3.org/1999/xlink" width="16px" height="16px" viewBox="0 0 16 16" version="1.1">
<g id="surface1">
<path style=" stroke:none;fill-rule:nonzero;fill:#ff6666;fill-opacity:1;" d="M 5.886719 0.00390625 C 5.140625 0.046875 4.375 0.34375 3.882812 0.878906 C 3.246094 1.566406 3.03125 2.554688 3.375 3.203125 C 3.519531 3.480469 4.046875 4.042969 4.28125 4.175781 C 4.378906 4.230469 4.355469 4.285156 4.109375 4.550781 C 3.949219 4.722656 3.820312 4.894531 3.820312 4.9375 C 3.820312 5.035156 4.019531 5.027344 4.410156 4.910156 C 4.777344 4.800781 4.8125 4.816406 4.8125 5.085938 C 4.8125 5.207031 4.9375 5.445312 5.148438 5.722656 L 5.480469 6.167969 L 5.480469 6.882812 C 5.484375 7.503906 5.460938 7.648438 5.300781 7.988281 C 5.074219 8.480469 4.820312 8.734375 4.171875 9.121094 C 3.46875 9.539062 3.113281 9.871094 3.113281 10.109375 C 3.113281 10.375 3.371094 10.59375 4.167969 11.007812 C 4.960938 11.421875 5.464844 11.851562 5.703125 12.320312 C 5.964844 12.835938 5.9375 13.074219 5.554688 13.566406 C 4.832031 14.492188 4.8125 14.53125 4.8125 15.304688 L 4.8125 16 L 8.359375 16 L 8.359375 15.230469 C 8.359375 14.484375 8.351562 14.453125 8.128906 14.117188 C 7.941406 13.832031 7.894531 13.691406 7.875 13.289062 C 7.835938 12.644531 7.96875 12.320312 8.507812 11.703125 C 8.976562 11.167969 9.210938 10.773438 9.210938 10.527344 C 9.210938 10.4375 9.140625 10.195312 9.054688 9.992188 C 8.910156 9.640625 8.90625 9.605469 9.015625 9.5 C 9.3125 9.199219 9.828125 9.902344 9.757812 10.515625 C 9.71875 10.871094 9.523438 11.121094 9.011719 11.472656 C 8.847656 11.589844 8.730469 11.714844 8.75 11.75 C 8.8125 11.847656 9.402344 11.828125 9.820312 11.71875 C 10.765625 11.464844 11.9375 10.609375 12.289062 9.910156 C 12.648438 9.199219 12.84375 8.421875 12.878906 7.554688 C 12.917969 6.632812 12.84375 6.152344 12.570312 5.59375 C 12.265625 4.964844 11.546875 4.65625 10.363281 4.65625 C 9.546875 4.65625 9.078125 4.816406 8.570312 5.273438 C 8.136719 5.664062 7.855469 6.191406 7.609375 7.082031 C 7.375 7.925781 7.320312 8.058594 7.195312 8.058594 C 7.140625 8.058594 7.058594 7.953125 7.015625 7.824219 C 6.90625 7.488281 6.800781 6 6.800781 4.703125 C 6.800781 3.839844 6.773438 3.535156 6.691406 3.375 C 6.632812 3.265625 6.613281 3.21875 6.625 3.195312 C 6.601562 3.167969 6.070312 2.964844 6.070312 2.964844 L 8.410156 2.453125 C 8.417969 1.796875 8.214844 1.144531 7.785156 0.660156 C 7.359375 0.175781 6.632812 -0.0351562 5.886719 0.00390625 Z M 5.886719 0.00390625 "/>
</g>
</svg>
