
<svg xmlns="http://www.w3.org/2000/svg" xmlns:xlink="http://www.w3.org/1999/xlink" width="16px" height="16px" viewBox="0 0 16 16" version="1.1">
<g id="surface1">
<path style=" stroke:none;fill-rule:nonzero;fill:#ff6666;fill-opacity:1;" d="M 4.445312 1.339844 C 1.992188 1.339844 0 3.328125 0 5.78125 C 0 7.921875 1.53125 9.757812 3.640625 10.144531 C 3.667969 10.210938 3.695312 10.273438 3.742188 10.335938 C 3.746094 10.347656 3.75 10.347656 3.753906 10.355469 C 3.773438 10.375 3.789062 10.402344 3.8125 10.425781 L 7.375 14.378906 C 7.554688 14.582031 7.777344 14.660156 7.992188 14.660156 L 8 14.660156 C 8.21875 14.660156 8.445312 14.582031 8.625 14.378906 L 12.1875 10.425781 C 12.210938 10.40625 12.226562 10.378906 12.246094 10.355469 C 12.25 10.34375 12.253906 10.34375 12.261719 10.335938 C 12.304688 10.273438 12.332031 10.210938 12.359375 10.144531 C 14.46875 9.757812 16 7.921875 16 5.78125 C 16 3.328125 14.007812 1.339844 11.554688 1.339844 C 10.15625 1.339844 8.839844 1.996094 8 3.117188 C 7.160156 1.996094 5.84375 1.339844 4.445312 1.339844 Z M 4.445312 4.890625 C 5.179688 4.890625 5.777344 5.488281 5.777344 6.222656 C 5.777344 6.957031 5.179688 7.554688 4.445312 7.554688 C 3.707031 7.554688 3.113281 6.957031 3.109375 6.222656 C 3.113281 5.488281 3.707031 4.890625 4.445312 4.890625 Z M 11.554688 4.890625 C 12.292969 4.890625 12.886719 5.488281 12.890625 6.222656 C 12.886719 6.957031 12.292969 7.554688 11.554688 7.554688 C 10.820312 7.554688 10.222656 6.957031 10.222656 6.222656 C 10.222656 5.488281 10.820312 4.890625 11.554688 4.890625 Z M 11.554688 4.890625 "/>
</g>
</svg>
