
<svg xmlns="http://www.w3.org/2000/svg" xmlns:xlink="http://www.w3.org/1999/xlink" width="16px" height="16px" viewBox="0 0 16 16" version="1.1">
<g id="surface1">
<path style=" stroke:none;fill-rule:evenodd;fill:#ff6666;fill-opacity:1;" d="M 7.605469 4.148438 C 7.605469 4.148438 7.4375 4.144531 7.367188 4.15625 C 5.75 4.144531 4.84375 5.914062 4.046875 6.90625 C 3.597656 7.640625 1.511719 9.554688 0.152344 9.972656 C -0.199219 10.042969 0.09375 10.753906 0.703125 10.394531 C 1.425781 10.128906 4.023438 8.371094 4.09375 8.3125 C 4.199219 8.246094 4.398438 8.25 4.488281 8.550781 C 4.574219 8.855469 4.375 9.210938 4.375 9.210938 C 4.375 9.210938 4.109375 9.660156 4.121094 9.910156 C 4.242188 10.800781 4.960938 11.691406 5.691406 11.8125 C 6.214844 11.886719 6.992188 11.839844 6.992188 11.839844 L 7.007812 11.707031 C 6.988281 11.507812 6.578125 11.421875 6.578125 11.421875 C 6.578125 11.421875 6.058594 11.519531 5.832031 11.414062 C 5.449219 11.242188 5 10.550781 5 10.464844 C 5 10.378906 5.128906 9.984375 5.128906 9.984375 C 5.128906 9.984375 5.550781 10.039062 5.691406 10.039062 C 5.832031 10.039062 6.191406 10.058594 6.191406 10.058594 L 6.464844 10.476562 C 6.550781 10.644531 6.65625 10.558594 6.796875 10.597656 L 7.402344 10.605469 L 7.820312 10.597656 L 7.820312 10.382812 C 7.820312 10.597656 7.820312 10.179688 7.546875 10.175781 C 7.3125 10.164062 7.007812 10.132812 6.980469 10.050781 C 6.9375 9.910156 7 9.550781 7 9.550781 C 7 9.550781 7.300781 9.402344 7.9375 9.527344 C 8.574219 9.65625 9.300781 10.183594 9.300781 10.183594 C 9.117188 10.519531 8.949219 10.589844 8.917969 10.933594 C 8.886719 11.246094 8.886719 11.246094 9.089844 11.246094 L 10.066406 11.246094 C 10.066406 11.246094 10.066406 10.832031 9.785156 10.855469 C 9.589844 10.847656 9.480469 10.835938 9.480469 10.820312 C 9.480469 10.738281 9.855469 10.410156 9.855469 10.410156 L 10.121094 10.21875 C 10.121094 10.21875 10.492188 10.46875 10.972656 10.589844 C 11.449219 10.710938 12.042969 10.652344 12.042969 10.652344 C 12.230469 10.765625 12.265625 10.859375 12.359375 11.019531 C 12.433594 11.304688 12.433594 11.246094 12.59375 11.253906 C 12.945312 11.261719 13.246094 11.246094 13.589844 11.222656 C 13.589844 11.222656 13.617188 10.832031 13.042969 10.832031 C 13.042969 10.832031 12.835938 10.699219 12.796875 10.503906 C 12.757812 10.308594 12.78125 9.789062 12.78125 9.789062 L 13.066406 9.765625 L 13.4375 10.085938 L 13.671875 10.105469 L 13.992188 10.625 C 13.992188 10.625 14.636719 10.671875 14.851562 10.589844 C 15.066406 10.511719 15.453125 10.292969 15.679688 10.046875 C 15.90625 9.804688 16.054688 9.226562 15.980469 8.902344 C 15.902344 8.578125 15.484375 8.1875 15.484375 8.1875 C 14.59375 7.34375 13.203125 5.929688 12.339844 5.921875 C 12.203125 5.921875 11.863281 6.246094 11.664062 6.101562 C 10.429688 5.253906 9.082031 4.210938 7.605469 4.148438 Z M 13.914062 7.695312 C 14.15625 7.695312 14.355469 7.894531 14.355469 8.140625 C 14.355469 8.382812 14.15625 8.582031 13.914062 8.582031 C 13.667969 8.582031 13.46875 8.382812 13.46875 8.140625 C 13.46875 7.894531 13.667969 7.695312 13.914062 7.695312 Z M 13.914062 7.695312 "/>
</g>
</svg>
