
<svg xmlns="http://www.w3.org/2000/svg" xmlns:xlink="http://www.w3.org/1999/xlink" width="16px" height="16px" viewBox="0 0 16 16" version="1.1">
<g id="surface1">
<path style=" stroke:none;fill-rule:evenodd;fill:#ff6666;fill-opacity:1;" d="M 1.953125 0 L 7.300781 0 C 7.886719 0 8.367188 0.480469 8.367188 1.070312 L 8.367188 6.414062 C 8.367188 7.003906 7.886719 7.480469 7.300781 7.480469 L 1.953125 7.480469 C 1.363281 7.480469 0.886719 7.003906 0.886719 6.414062 L 0.886719 1.070312 C 0.886719 0.480469 1.363281 0 1.953125 0 Z M 8.699219 8.519531 L 14.046875 8.519531 C 14.636719 8.519531 15.113281 8.996094 15.113281 9.585938 L 15.113281 14.929688 C 15.113281 15.519531 14.636719 16 14.046875 16 L 8.699219 16 C 8.113281 16 7.632812 15.519531 7.632812 14.929688 L 7.632812 9.585938 C 7.632812 8.996094 8.113281 8.519531 8.699219 8.519531 Z M 8.699219 8.519531 "/>
</g>
</svg>
