
<svg xmlns="http://www.w3.org/2000/svg" xmlns:xlink="http://www.w3.org/1999/xlink" width="16px" height="16px" viewBox="0 0 16 16" version="1.1">
<g id="surface1">
<path style=" stroke:none;fill-rule:evenodd;fill:#ff6666;fill-opacity:1;" d="M 8.285156 7.429688 C 7.8125 7.429688 7.429688 7.8125 7.429688 8.285156 C 7.429688 8.757812 7.8125 9.144531 8.285156 9.144531 C 8.757812 9.144531 9.144531 8.757812 9.144531 8.285156 C 9.144531 7.8125 8.757812 7.429688 8.285156 7.429688 Z M 10.570312 7.429688 C 10.097656 7.429688 9.714844 7.8125 9.714844 8.285156 C 9.714844 8.757812 10.097656 9.144531 10.570312 9.144531 C 11.046875 9.144531 11.429688 8.757812 11.429688 8.285156 C 11.429688 7.8125 11.046875 7.429688 10.570312 7.429688 Z M 12.855469 7.429688 C 12.382812 7.429688 12 7.8125 12 8.285156 C 12 8.757812 12.382812 9.144531 12.855469 9.144531 C 13.332031 9.144531 13.714844 8.757812 13.714844 8.285156 C 13.714844 7.8125 13.332031 7.429688 12.855469 7.429688 Z M 8.285156 9.714844 C 7.8125 9.714844 7.429688 10.097656 7.429688 10.570312 C 7.429688 11.046875 7.8125 11.429688 8.285156 11.429688 C 8.757812 11.429688 9.144531 11.046875 9.144531 10.570312 C 9.144531 10.097656 8.757812 9.714844 8.285156 9.714844 Z M 10.570312 9.714844 C 10.097656 9.714844 9.714844 10.097656 9.714844 10.570312 C 9.714844 11.046875 10.097656 11.429688 10.570312 11.429688 C 11.046875 11.429688 11.429688 11.046875 11.429688 10.570312 C 11.429688 10.097656 11.046875 9.714844 10.570312 9.714844 Z M 12.855469 9.714844 C 12.382812 9.714844 12 10.097656 12 10.570312 C 12 11.046875 12.382812 11.429688 12.855469 11.429688 C 13.332031 11.429688 13.714844 11.046875 13.714844 10.570312 C 13.714844 10.097656 13.332031 9.714844 12.855469 9.714844 Z M 8.285156 12 C 7.8125 12 7.429688 12.382812 7.429688 12.855469 C 7.429688 13.332031 7.8125 13.714844 8.285156 13.714844 C 8.757812 13.714844 9.144531 13.332031 9.144531 12.855469 C 9.144531 12.382812 8.757812 12 8.285156 12 Z M 10.570312 12 C 10.097656 12 9.714844 12.382812 9.714844 12.855469 C 9.714844 13.332031 10.097656 13.714844 10.570312 13.714844 C 11.046875 13.714844 11.429688 13.332031 11.429688 12.855469 C 11.429688 12.382812 11.046875 12 10.570312 12 Z M 8 1.144531 L 0 6.855469 L 1.144531 6.855469 L 1.144531 14.289062 C 1.144531 14.570312 1.351562 14.855469 1.652344 14.855469 L 14.347656 14.855469 C 14.648438 14.855469 14.859375 14.570312 14.855469 14.289062 L 14.855469 6.855469 L 16 6.855469 Z M 12.855469 12 C 12.382812 12 12 12.382812 12 12.855469 C 12 13.332031 12.382812 13.714844 12.855469 13.714844 C 13.332031 13.714844 13.714844 13.332031 13.714844 12.855469 C 13.714844 12.382812 13.332031 12 12.855469 12 Z M 12.855469 12 "/>
</g>
</svg>
