
<svg xmlns="http://www.w3.org/2000/svg" xmlns:xlink="http://www.w3.org/1999/xlink" width="16px" height="16px" viewBox="0 0 16 16" version="1.1">
<g id="surface1">
<path style=" stroke:none;fill-rule:evenodd;fill:#ff6666;fill-opacity:1;" d="M 13.109375 4.796875 C 13.164062 4.300781 13.210938 3.804688 13.25 3.308594 L 9.644531 2.175781 L 8.828125 3.046875 L 8.828125 5.792969 L 12.023438 5.792969 Z M 12.550781 7.9375 C 12.386719 8.574219 12.183594 9.203125 11.949219 9.820312 C 11.539062 10.890625 10.949219 11.890625 10.191406 12.75 C 9.929688 13.03125 9.644531 13.289062 9.339844 13.523438 L 8.828125 12.953125 L 8.828125 7.449219 L 12.023438 7.449219 Z M 6.675781 13.503906 C 6.371094 13.269531 6.085938 13.011719 5.820312 12.730469 C 5.058594 11.871094 4.460938 10.878906 4.050781 9.808594 C 3.8125 9.203125 3.605469 8.578125 3.4375 7.949219 L 3.976562 7.449219 L 7.171875 7.449219 L 7.171875 12.953125 Z M 2.871094 4.773438 L 3.976562 5.792969 L 7.171875 5.792969 L 7.171875 3.046875 L 6.351562 2.175781 L 2.738281 3.308594 C 2.773438 3.800781 2.878906 4.859375 2.871094 4.773438 Z M 14.898438 2.167969 C 14.664062 7.476562 13.5 14.140625 8 16 C 2.558594 14.085938 1.273438 7.535156 1.101562 2.167969 C 3.402344 1.445312 5.699219 0.722656 8 0 C 10.300781 0.722656 12.597656 1.445312 14.898438 2.167969 Z M 14.898438 2.167969 "/>
</g>
</svg>
