
<svg xmlns="http://www.w3.org/2000/svg" xmlns:xlink="http://www.w3.org/1999/xlink" width="16px" height="16px" viewBox="0 0 16 16" version="1.1">
<g id="surface1">
<path style=" stroke:none;fill-rule:nonzero;fill:#ff6666;fill-opacity:1;" d="M 1.714844 0 C 0.800781 0 0 0.777344 0 1.714844 L 0 14.285156 C 0 15.222656 0.800781 16 1.714844 16 L 14.285156 16 C 15.199219 16 16 15.222656 16 14.285156 L 16 1.714844 C 16 0.777344 15.199219 0 14.285156 0 Z M 1.714844 1.144531 L 14.285156 1.144531 C 14.628906 1.144531 14.855469 1.382812 14.855469 1.714844 L 14.855469 14.285156 C 14.855469 14.617188 14.628906 14.855469 14.285156 14.855469 L 1.714844 14.855469 C 1.5625 14.859375 1.414062 14.800781 1.304688 14.695312 C 1.199219 14.585938 1.140625 14.4375 1.144531 14.285156 L 1.144531 1.714844 C 1.144531 1.382812 1.371094 1.144531 1.714844 1.144531 Z M 7.085938 3.429688 L 7.085938 4.789062 L 6.855469 4.855469 C 6.742188 4.890625 6.742188 4.949219 6.515625 5.003906 L 6.398438 5.097656 L 5.371094 4.148438 C 5.371094 4.136719 5.371094 4.136719 5.371094 4.136719 C 5.371094 4.136719 5.371094 4.136719 5.371094 4.148438 L 4.113281 5.40625 C 4.113281 5.382812 4.113281 5.429688 4.113281 5.429688 L 5.144531 6.378906 L 5.027344 6.570312 C 4.984375 6.671875 4.949219 6.777344 4.914062 6.878906 L 4.800781 7.085938 L 3.429688 7.085938 L 3.429688 8.914062 L 4.800781 8.914062 L 4.914062 9.121094 C 4.914062 9.210938 4.914062 9.3125 5.027344 9.429688 L 5.144531 9.621094 L 4.113281 10.582031 C 4.113281 10.570312 4.113281 10.617188 4.113281 10.605469 L 5.371094 11.863281 C 5.371094 11.851562 5.484375 11.851562 5.371094 11.863281 L 6.398438 10.902344 L 6.515625 11.003906 C 6.628906 11.050781 6.742188 11.109375 6.855469 11.144531 L 7.085938 11.210938 L 7.085938 12.570312 L 8.914062 12.570312 L 8.914062 11.210938 L 9.144531 11.144531 C 9.257812 11.109375 9.371094 11.050781 9.484375 11.003906 L 9.601562 10.902344 L 10.628906 11.863281 C 10.515625 11.851562 10.628906 11.851562 10.628906 11.863281 L 11.886719 10.605469 C 11.886719 10.617188 11.886719 10.570312 11.886719 10.582031 L 10.855469 9.621094 L 10.972656 9.429688 C 11.085938 9.3125 11.085938 9.210938 11.085938 9.121094 L 11.199219 8.914062 L 12.570312 8.914062 L 12.570312 7.085938 L 11.199219 7.085938 L 11.085938 6.878906 C 11.054688 6.773438 11.015625 6.671875 10.972656 6.570312 L 10.855469 6.378906 L 11.886719 5.417969 C 11.886719 5.429688 11.886719 5.382812 11.886719 5.394531 L 10.628906 4.148438 C 10.628906 4.148438 10.515625 4.148438 10.628906 4.148438 L 9.601562 5.097656 L 9.484375 5.003906 C 9.371094 4.949219 9.257812 4.890625 9.144531 4.855469 L 8.914062 4.789062 L 8.914062 3.429688 Z M 8 6.480469 C 8.800781 6.480469 9.484375 7.164062 9.484375 8 C 9.484375 8.835938 8.800781 9.519531 8 9.519531 C 7.199219 9.519531 6.515625 8.835938 6.515625 8 C 6.515625 7.164062 7.199219 6.480469 8 6.480469 Z M 8 6.480469 "/>
</g>
</svg>
