
<svg xmlns="http://www.w3.org/2000/svg" xmlns:xlink="http://www.w3.org/1999/xlink" width="16px" height="16px" viewBox="0 0 16 16" version="1.1">
<g id="surface1">
<path style=" stroke:none;fill-rule:evenodd;fill:#ff6666;fill-opacity:1;" d="M 2.285156 8 C 2.285156 4.847656 4.847656 2.285156 8 2.285156 C 11.152344 2.285156 13.714844 4.847656 13.714844 8 C 13.714844 11.152344 11.152344 13.714844 8 13.714844 C 4.847656 13.714844 2.285156 11.152344 2.285156 8 Z M 7.917969 0 L 7.910156 0.00390625 C 3.519531 0.0546875 0 3.597656 0 8 C 0 12.433594 3.566406 16 8 16 C 12.363281 16 15.882812 12.535156 15.988281 8.199219 C 15.988281 8.199219 15.996094 8.0625 16 8 L 16 1.714844 C 16 0.765625 15.234375 0 14.285156 0 Z M 8.785156 5.519531 C 8.757812 5.84375 8.542969 5.707031 8.308594 5.882812 C 8.246094 5.871094 8.175781 5.871094 8.078125 5.871094 C 8.058594 5.65625 8.132812 5.617188 8.164062 5.578125 C 8.308594 5.464844 8.410156 5.519531 8.410156 5.519531 C 8.515625 5.503906 8.613281 5.53125 8.785156 5.519531 Z M 9.324219 4.992188 L 9.011719 4.992188 L 9.011719 4.90625 L 8.839844 4.90625 L 8.839844 4.953125 C 8.820312 4.964844 8.804688 4.984375 8.785156 4.992188 L 8.769531 4.992188 C 8.472656 4.738281 8.453125 5.257812 8.257812 5.140625 C 8.238281 5.03125 8.246094 4.933594 8.246094 4.808594 C 8.589844 4.796875 8.460938 4.699219 8.363281 4.574219 C 8.328125 4.523438 8.308594 4.445312 8.300781 4.398438 C 8.21875 4.074219 7.886719 3.878906 7.402344 4.085938 C 7.089844 4.210938 7.171875 4.671875 7.199219 4.984375 C 7.179688 5.011719 7.144531 5.003906 7.117188 5.003906 C 6.777344 5.023438 6.625 5.414062 6.550781 5.726562 C 6.570312 6.011719 6.535156 6.324219 6.488281 6.597656 C 6.445312 6.871094 6.355469 7.085938 6.34375 7.347656 C 6.328125 7.582031 6.40625 7.855469 6.390625 8.070312 C 6.203125 8.679688 6.066406 9.078125 5.96875 9.722656 C 5.898438 9.871094 5.644531 10.183594 5.546875 10.25 C 5.519531 10.300781 5.566406 10.40625 5.519531 10.476562 C 5.441406 10.601562 5.3125 10.671875 5.242188 10.808594 C 5.261719 10.835938 5.132812 10.867188 5.144531 10.914062 C 5.152344 10.964844 5.214844 11.089844 5.242188 11.121094 C 5.25 11.140625 5.339844 11.089844 5.339844 11.121094 C 5.378906 11.238281 5.457031 11.480469 5.546875 11.539062 C 5.941406 11.589844 5.941406 11.589844 6.101562 11.539062 C 6.191406 11.257812 5.800781 11.382812 5.835938 11.003906 C 6.371094 10.886719 6.542969 10.71875 6.757812 10.105469 C 6.855469 9.65625 6.992188 9.214844 7.199219 8.785156 C 7.234375 8.757812 7.222656 8.679688 7.285156 8.648438 C 7.527344 9.089844 7.96875 9.402344 8.183594 9.859375 C 8.238281 10.457031 8.347656 10.777344 8.535156 10.886719 C 8.578125 10.90625 8.535156 11.089844 8.570312 11.128906 C 8.570312 11.1875 8.589844 11.257812 8.5625 11.324219 C 8.542969 11.375 8.554688 11.433594 8.554688 11.480469 L 8.554688 11.539062 C 8.5625 11.628906 8.578125 11.628906 8.660156 11.695312 C 8.894531 11.863281 9.207031 12.128906 9.519531 11.933594 C 9.664062 11.675781 9.359375 11.355469 9.144531 11.1875 C 9.074219 11.128906 8.945312 10.984375 8.964844 10.886719 C 9.082031 10.757812 9.160156 10.203125 9.117188 9.773438 C 9.097656 9.675781 9.082031 9.574219 9.046875 9.496094 C 8.9375 9.273438 8.695312 8.960938 8.488281 8.734375 C 8.515625 8.707031 8.554688 8.667969 8.597656 8.648438 C 8.597656 8.433594 8.515625 8.363281 8.410156 8.210938 C 8.320312 8.050781 8.113281 7.75 7.960938 7.652344 C 7.960938 7.652344 7.960938 7.640625 7.808594 7.640625 C 7.800781 7.535156 7.824219 7.445312 7.851562 7.328125 C 7.851562 7.242188 7.914062 7.289062 7.933594 7.09375 C 7.976562 6.929688 7.960938 7.027344 7.996094 6.859375 C 8.03125 6.78125 8.050781 6.703125 8.050781 6.578125 C 8.183594 6.625 8.453125 6.617188 8.570312 6.578125 L 8.597656 6.597656 C 8.632812 6.605469 8.640625 6.546875 8.667969 6.539062 C 8.875 6.421875 8.945312 6.214844 9.117188 6.195312 C 9.117188 6.195312 9.207031 6.148438 9.339844 6.195312 C 9.394531 6.195312 9.441406 6.203125 9.441406 6.148438 C 9.449219 6.058594 9.449219 5.988281 9.496094 5.933594 C 9.53125 6.164062 9.628906 6.429688 9.808594 6.683594 L 9.988281 6.546875 C 9.816406 6.324219 9.710938 6.070312 9.691406 5.777344 C 9.699219 5.796875 9.710938 5.816406 9.726562 5.835938 C 9.789062 5.835938 9.824219 5.6875 9.898438 5.695312 C 9.90625 5.679688 9.925781 5.589844 9.941406 5.519531 L 10.617188 5.519531 L 10.855469 5.464844 L 10.855469 5.324219 L 10.679688 5.308594 L 10.679688 5.148438 L 10.632812 5.148438 L 10.632812 4.972656 L 10.527344 4.972656 L 10.527344 5.140625 L 10.246094 5.121094 L 10.246094 5.011719 L 10.140625 5.011719 L 10.140625 5.109375 L 9.851562 5.082031 L 9.851562 4.933594 L 9.746094 4.933594 L 9.746094 5.070312 L 9.324219 5.042969 Z M 9.324219 4.992188 "/>
</g>
</svg>
