
<svg xmlns="http://www.w3.org/2000/svg" xmlns:xlink="http://www.w3.org/1999/xlink" width="16px" height="16px" viewBox="0 0 16 16" version="1.1">
<g id="surface1">
<path style=" stroke:none;fill-rule:nonzero;fill:#ff6666;fill-opacity:1;" d="M 9.171875 0 C 4.753906 0 1.171875 3.582031 1.171875 8 C 1.171875 12.417969 4.753906 16 9.171875 16 C 11.292969 15.996094 13.328125 15.152344 14.828125 13.652344 L 13.828125 12.65625 C 12.59375 13.890625 10.921875 14.585938 9.171875 14.589844 C 7.425781 14.589844 5.75 13.894531 4.515625 12.660156 C 3.277344 11.421875 2.585938 9.746094 2.585938 8 C 2.585938 6.253906 3.277344 4.578125 4.515625 3.339844 C 5.75 2.105469 7.425781 1.410156 9.171875 1.410156 C 10.921875 1.414062 12.59375 2.109375 13.828125 3.34375 L 14.828125 2.347656 C 13.328125 0.847656 11.292969 0.00390625 9.171875 0 Z M 9.171875 2.332031 C 6.042969 2.332031 3.507812 4.871094 3.507812 8 C 3.507812 11.128906 6.042969 13.667969 9.171875 13.667969 C 10.675781 13.664062 12.117188 13.066406 13.179688 12.003906 L 12.175781 11.003906 C 11.378906 11.800781 10.300781 12.25 9.171875 12.25 C 6.824219 12.25 4.921875 10.347656 4.921875 8 C 4.921875 5.652344 6.824219 3.75 9.171875 3.75 C 10.300781 3.75 11.378906 4.199219 12.175781 4.996094 L 13.179688 3.996094 C 12.117188 2.933594 10.675781 2.335938 9.171875 2.332031 Z M 9.171875 4.667969 C 7.332031 4.667969 5.839844 6.160156 5.839844 8 C 5.839844 9.839844 7.332031 11.332031 9.171875 11.332031 C 10.058594 11.332031 10.902344 10.980469 11.527344 10.355469 L 10.519531 9.347656 C 10.160156 9.703125 9.679688 9.902344 9.171875 9.90625 C 8.667969 9.90625 8.183594 9.703125 7.824219 9.347656 C 7.46875 8.988281 7.269531 8.503906 7.269531 8 C 7.269531 7.496094 7.46875 7.011719 7.824219 6.652344 C 8.183594 6.296875 8.667969 6.09375 9.171875 6.09375 C 9.679688 6.097656 10.160156 6.296875 10.519531 6.652344 L 11.527344 5.644531 C 10.902344 5.019531 10.058594 4.667969 9.171875 4.667969 Z M 9.171875 4.667969 "/>
</g>
</svg>
