
<svg xmlns="http://www.w3.org/2000/svg" xmlns:xlink="http://www.w3.org/1999/xlink" width="16px" height="16px" viewBox="0 0 16 16" version="1.1">
<g id="surface1">
<path style=" stroke:none;fill-rule:evenodd;fill:#ff6666;fill-opacity:1;" d="M 16 9.84375 L 16 6.0625 C 16 1.222656 15.308594 0.53125 10.464844 0.53125 L 5.597656 0.53125 L 0 6.070312 L 0 9.9375 C 0 14.777344 0.691406 15.46875 5.535156 15.46875 L 10.445312 15.46875 Z M 7.371094 3.730469 C 5.359375 3.730469 3.738281 5.351562 3.738281 7.363281 L 3.738281 8.089844 C 3.738281 10.101562 5.359375 11.71875 7.371094 11.71875 L 11.195312 11.71875 L 11.195312 9.589844 L 7.371094 9.589844 C 6.527344 9.589844 5.871094 8.929688 5.871094 8.089844 L 5.871094 7.363281 C 5.871094 6.519531 6.527344 5.863281 7.371094 5.863281 L 11.195312 5.863281 L 11.195312 3.730469 Z M 7.371094 3.730469 "/>
</g>
</svg>
