
<svg xmlns="http://www.w3.org/2000/svg" xmlns:xlink="http://www.w3.org/1999/xlink" width="16px" height="16px" viewBox="0 0 16 16" version="1.1">
<g id="surface1">
<path style=" stroke:none;fill-rule:nonzero;fill:#ff6666;fill-opacity:1;" d="M 9.472656 15.859375 C 9.027344 15.589844 8.742188 15.121094 7.503906 12.617188 C 6.820312 11.234375 6.167969 10.003906 6.058594 9.882812 C 5.929688 9.75 4.898438 9.203125 3.355469 8.449219 C 0.308594 6.960938 0 6.726562 0 5.882812 C 0 5.488281 0.191406 5.113281 0.492188 4.917969 C 0.597656 4.851562 3.78125 3.710938 7.570312 2.386719 C 14.230469 0.0546875 14.480469 -0.0234375 14.933594 0.00390625 C 15.328125 0.0273438 15.441406 0.0664062 15.632812 0.246094 C 15.914062 0.519531 16.042969 0.894531 15.988281 1.292969 C 15.929688 1.726562 11.148438 15.230469 10.96875 15.46875 C 10.589844 15.980469 9.945312 16.148438 9.472656 15.859375 Z M 9.472656 15.859375 "/>
</g>
</svg>
