
<svg xmlns="http://www.w3.org/2000/svg" xmlns:xlink="http://www.w3.org/1999/xlink" width="16px" height="16px" viewBox="0 0 16 16" version="1.1">
<g id="surface1">
<path style=" stroke:none;fill-rule:nonzero;fill:#ff6666;fill-opacity:1;" d="M 1.964844 0 L 1.964844 9.261719 L 0 9.261719 L 0 10.945312 L 5.613281 10.945312 L 5.613281 14.316406 L 0 14.316406 L 0 15.199219 C 0 15.644531 0.355469 16 0.800781 16 L 14.597656 16 L 14.597656 6.738281 L 16 6.738281 L 16 5.054688 L 12.910156 5.054688 L 12.910156 14.316406 L 7.296875 14.316406 L 7.296875 9.261719 L 3.648438 9.261719 L 3.648438 0 Z M 5.613281 0 L 5.613281 7.296875 L 9.261719 7.296875 L 9.261719 12.398438 L 10.945312 12.398438 L 10.945312 3.089844 L 16 3.089844 L 16 1.402344 L 9.261719 1.402344 L 9.261719 5.613281 L 7.296875 5.613281 L 7.296875 0 Z M 5.613281 0 "/>
</g>
</svg>
