
<svg xmlns="http://www.w3.org/2000/svg" xmlns:xlink="http://www.w3.org/1999/xlink" width="16px" height="16px" viewBox="0 0 16 16" version="1.1">
<g id="surface1">
<path style=" stroke:none;fill-rule:nonzero;fill:#ff6666;fill-opacity:1;" d="M 1.332031 2.667969 C 0.601562 2.667969 0 3.332031 0 4 L 0 12 C 0 12.667969 0.601562 13.332031 1.332031 13.332031 L 14.667969 13.332031 C 15.398438 13.332031 16 12.667969 16 12 L 16 4 C 16 3.332031 15.398438 2.667969 14.667969 2.667969 Z M 1.601562 4.265625 L 14.398438 4.265625 L 14.398438 11.734375 L 1.601562 11.734375 Z M 2.667969 5.332031 L 2.667969 10.667969 L 4.265625 10.667969 L 4.265625 7.679688 L 5.601562 9.015625 L 6.933594 7.679688 L 6.933594 10.667969 L 8.53125 10.667969 L 8.53125 5.332031 L 6.933594 5.332031 L 5.601562 6.667969 L 4.265625 5.332031 Z M 10.667969 5.332031 L 10.667969 8.53125 L 9.601562 8.53125 L 10.933594 10.667969 L 12 10.667969 L 13.332031 8.53125 L 12.265625 8.53125 L 12.265625 5.332031 Z M 10.667969 5.332031 "/>
</g>
</svg>
