
<svg xmlns="http://www.w3.org/2000/svg" xmlns:xlink="http://www.w3.org/1999/xlink" width="16px" height="16px" viewBox="0 0 16 16" version="1.1">
<g id="surface1">
<path style=" stroke:none;fill-rule:evenodd;fill:#ff6666;fill-opacity:1;" d="M 1.617188 8.851562 C 1.585938 8.570312 1.570312 8.289062 1.570312 8 C 1.570312 4.011719 4.800781 0.78125 8.785156 0.78125 C 10.742188 0.78125 12.613281 1.574219 13.972656 2.980469 L 10.515625 2.980469 L 8.003906 8 L 10.515625 13.019531 L 13.960938 13.019531 C 12.605469 14.421875 10.738281 15.214844 8.785156 15.21875 C 6.753906 15.21875 4.914062 14.375 3.601562 13.019531 L 7.914062 13.019531 C 8.570312 13.019531 8.992188 12.316406 8.683594 11.730469 L 6.671875 8 L 8.382812 4.273438 C 8.691406 3.6875 8.269531 2.980469 7.609375 2.980469 L 5.234375 2.980469 C 4.914062 2.980469 4.617188 3.160156 4.464844 3.445312 Z M 9.722656 8 L 12.863281 5.804688 L 12.863281 10.195312 Z M 12.863281 8 L 14.429688 6.902344 L 16 5.804688 L 16 10.195312 L 14.429688 9.097656 Z M 12.863281 8 "/>
<path style=" stroke:none;fill-rule:nonzero;fill:#ff6666;fill-opacity:1;" d="M 5.234375 2.980469 C 4.914062 2.980469 4.617188 3.160156 4.464844 3.445312 L 0.101562 11.726562 C -0.203125 12.3125 0.214844 13.019531 0.875 13.019531 L 7.914062 13.019531 C 8.570312 13.019531 8.992188 12.316406 8.683594 11.730469 L 6.671875 8 L 8.382812 4.273438 C 8.691406 3.6875 8.269531 2.980469 7.609375 2.980469 Z M 5.234375 2.980469 "/>
</g>
</svg>
