
<svg xmlns="http://www.w3.org/2000/svg" xmlns:xlink="http://www.w3.org/1999/xlink" width="16px" height="16px" viewBox="0 0 16 16" version="1.1">
<g id="surface1">
<path style=" stroke:none;fill-rule:nonzero;fill:#ff6666;fill-opacity:1;" d="M 8.15625 0 C 6.984375 0 6.011719 1.707031 5.027344 5.511719 C 5.035156 5.558594 4.320312 8.226562 4.320312 8.226562 C 4.277344 8.382812 4.136719 8.488281 3.984375 8.488281 C 3.953125 8.488281 3.925781 8.484375 3.898438 8.476562 C 3.710938 8.429688 3.597656 8.238281 3.648438 8.054688 L 3.851562 7.273438 C 3.691406 7.382812 3.53125 7.496094 3.375 7.597656 C 2.449219 8.207031 1.582031 8.777344 1.582031 9.511719 C 1.582031 9.808594 1.710938 9.976562 1.820312 10.066406 C 2.175781 10.347656 2.753906 10.222656 3.472656 10.054688 C 3.660156 10.011719 3.847656 9.960938 4.039062 9.925781 C 3.992188 10.144531 3.949219 10.355469 3.90625 10.566406 C 3.683594 11.6875 3.441406 12.917969 3.253906 13.566406 L 13.070312 13.566406 C 12.886719 12.921875 12.644531 11.695312 12.417969 10.585938 C 12.289062 9.953125 11.648438 7.28125 11.648438 7.28125 C 11.597656 7.09375 11.710938 6.902344 11.898438 6.847656 C 12.082031 6.800781 12.273438 6.910156 12.320312 7.097656 L 12.503906 7.773438 C 13.375 6.925781 14.070312 5.570312 14.070312 4.554688 C 14.070312 3.53125 13.390625 3.476562 13.253906 3.476562 C 12.910156 3.476562 12.753906 3.769531 12.601562 4.054688 C 12.386719 4.464844 12.105469 5.019531 11.222656 5.238281 C 10.261719 1.621094 9.3125 0 8.15625 0 Z M 7.113281 2.78125 C 7.769531 2.78125 8.011719 3.328125 8.15625 3.652344 C 8.179688 3.695312 8.210938 3.757812 8.234375 3.804688 C 8.398438 3.726562 8.699219 3.476562 8.949219 3.226562 C 9.089844 3.09375 9.3125 3.09375 9.449219 3.226562 C 9.585938 3.363281 9.585938 3.59375 9.449219 3.726562 C 9.355469 3.820312 9.203125 3.957031 9.027344 4.097656 C 9.34375 4.320312 9.550781 4.660156 9.550781 5.042969 C 9.550781 5.714844 8.925781 6.261719 8.15625 6.261719 C 7.390625 6.261719 6.765625 5.714844 6.765625 5.042969 C 6.765625 4.566406 7.082031 4.15625 7.539062 3.957031 C 7.535156 3.949219 7.53125 3.941406 7.527344 3.933594 C 7.371094 3.589844 7.292969 3.476562 7.113281 3.476562 C 6.964844 3.476562 6.710938 3.648438 6.613281 3.738281 C 6.546875 3.800781 6.457031 3.835938 6.363281 3.828125 C 6.273438 3.824219 6.1875 3.785156 6.125 3.71875 C 5.996094 3.570312 6.003906 3.351562 6.148438 3.21875 C 6.195312 3.171875 6.644531 2.78125 7.113281 2.78125 Z M 8.15625 4.523438 C 7.78125 4.523438 7.460938 4.761719 7.460938 5.042969 C 7.460938 5.324219 7.78125 5.566406 8.15625 5.566406 C 8.535156 5.566406 8.851562 5.324219 8.851562 5.042969 C 8.851562 4.761719 8.535156 4.523438 8.15625 4.523438 Z M 8.15625 6.957031 C 8.925781 6.957031 9.550781 7.503906 9.550781 8.175781 C 9.550781 8.84375 8.925781 9.390625 8.15625 9.390625 C 7.390625 9.390625 6.765625 8.84375 6.765625 8.175781 C 6.765625 7.503906 7.390625 6.957031 8.15625 6.957031 Z M 8.15625 7.652344 C 7.78125 7.652344 7.460938 7.890625 7.460938 8.175781 C 7.460938 8.457031 7.78125 8.695312 8.15625 8.695312 C 8.535156 8.695312 8.851562 8.457031 8.851562 8.175781 C 8.851562 7.890625 8.535156 7.652344 8.15625 7.652344 Z M 8.15625 10.085938 C 9.117188 10.085938 9.898438 10.710938 9.898438 11.476562 C 9.898438 12.246094 9.117188 12.871094 8.15625 12.871094 C 7.199219 12.871094 6.417969 12.246094 6.417969 11.476562 C 6.417969 10.710938 7.199219 10.085938 8.15625 10.085938 Z M 8.15625 10.78125 C 7.59375 10.78125 7.113281 11.101562 7.113281 11.476562 C 7.113281 11.855469 7.59375 12.175781 8.15625 12.175781 C 8.722656 12.175781 9.199219 11.855469 9.199219 11.476562 C 9.199219 11.101562 8.722656 10.78125 8.15625 10.78125 Z M 2.765625 14.261719 C 2.285156 14.261719 1.898438 14.652344 1.898438 15.128906 C 1.898438 15.609375 2.289062 16 2.765625 16 L 13.550781 16 C 14.027344 16 14.417969 15.609375 14.417969 15.128906 C 14.417969 14.652344 14.027344 14.261719 13.550781 14.261719 Z M 2.765625 14.261719 "/>
</g>
</svg>
