
<svg xmlns="http://www.w3.org/2000/svg" xmlns:xlink="http://www.w3.org/1999/xlink" width="16px" height="16px" viewBox="0 0 16 16" version="1.1">
<g id="surface1">
<path style=" stroke:none;fill-rule:nonzero;fill:#ff6666;fill-opacity:1;" d="M 11.015625 1.378906 C 10.097656 0.960938 9.074219 0.726562 8 0.726562 C 7.695312 0.726562 7.398438 0.746094 7.105469 0.78125 C 6.023438 2.277344 5.464844 4.710938 5.507812 6.199219 C 5.507812 6.199219 5.4375 8.410156 6.953125 9.195312 C 6.953125 9.195312 8.316406 9.792969 9.246094 7.859375 C 9.246094 7.859375 9.882812 6.769531 9.625 4.304688 C 9.625 4.304688 9.871094 4.347656 9.902344 4.386719 C 9.929688 4.425781 10.449219 6.285156 10.085938 7.851562 C 10.085938 7.851562 9.746094 9.691406 8.089844 10.109375 C 6.433594 10.53125 5.140625 9.515625 4.265625 8.554688 C 3.617188 7.84375 2.652344 5.9375 2.171875 3.648438 C 1.265625 4.863281 0.726562 6.367188 0.726562 8 C 0.726562 9.132812 0.984375 10.203125 1.449219 11.160156 C 3.039062 11.632812 7.15625 12.578125 9.769531 10.664062 C 11.488281 9.402344 11.269531 7.382812 11.269531 7.382812 C 11.238281 5.84375 10.304688 4.316406 10.304688 4.316406 C 13.941406 7.609375 11.792969 11.265625 11.792969 11.265625 C 10.792969 13.304688 8.742188 14.609375 6.945312 15.195312 C 7.289062 15.246094 7.640625 15.273438 8 15.273438 C 12.015625 15.273438 15.273438 12.015625 15.273438 8 C 15.273438 6.277344 14.671875 4.691406 13.671875 3.445312 C 13.3125 3.46875 12.898438 3.484375 12.46875 3.46875 C 12.46875 3.46875 10.53125 3.5625 9.445312 4.101562 C 9.445312 4.101562 8.636719 4.464844 7.828125 5.074219 C 7.828125 5.074219 7.65625 5.160156 7.664062 5.476562 C 7.671875 5.789062 7.5 6.628906 6.925781 7.121094 C 6.925781 7.121094 6.515625 7.328125 6.722656 7.632812 C 6.722656 7.632812 6.996094 8.03125 7.386719 7.609375 C 7.386719 7.609375 8.390625 6.578125 8.453125 4.914062 C 8.453125 4.914062 8.769531 4.644531 9.269531 4.5625 C 9.269531 4.5625 9.363281 7.058594 8.125 8.3125 C 8.125 8.3125 6.945312 9.597656 6.566406 7.691406 C 6.566406 7.691406 6.105469 5.878906 8.484375 3.722656 C 8.484375 3.722656 10.074219 2.132812 11.015625 1.378906 Z M 8 16 C 3.582031 16 0 12.417969 0 8 C 0 3.582031 3.582031 0 8 0 C 12.417969 0 16 3.582031 16 8 C 16 12.417969 12.417969 16 8 16 Z M 8 16 "/>
</g>
</svg>
