
<svg xmlns="http://www.w3.org/2000/svg" xmlns:xlink="http://www.w3.org/1999/xlink" width="16px" height="16px" viewBox="0 0 16 16" version="1.1">
<g id="surface1">
<path style=" stroke:none;fill-rule:nonzero;fill:#ff6666;fill-opacity:1;" d="M 12.476562 6.992188 C 12.492188 7.371094 12.363281 7.554688 12.246094 7.878906 L 12.039062 7.980469 C 11.867188 8.300781 12.054688 8.183594 11.929688 8.4375 C 11.664062 8.667969 11.121094 9.15625 10.945312 9.199219 C 10.816406 9.199219 11.03125 9.058594 11.058594 9 C 10.699219 9.238281 10.769531 9.355469 10.222656 9.503906 L 10.207031 9.46875 C 8.855469 10.078125 6.980469 8.867188 7.007812 7.210938 C 6.988281 7.316406 6.964844 7.285156 6.933594 7.332031 C 6.863281 6.476562 7.34375 5.621094 8.148438 5.273438 C 8.9375 4.894531 9.863281 5.050781 10.425781 5.554688 C 10.117188 5.164062 9.5 4.75 8.769531 4.789062 C 8.050781 4.800781 7.378906 5.238281 7.15625 5.714844 C 6.789062 5.9375 6.746094 6.574219 6.585938 6.691406 C 6.371094 8.214844 6.988281 8.878906 8.039062 9.648438 C 8.207031 9.757812 8.085938 9.773438 8.109375 9.855469 C 7.761719 9.695312 7.4375 9.460938 7.179688 9.167969 C 7.316406 9.367188 7.46875 9.558594 7.660156 9.707031 C 7.335938 9.601562 6.894531 8.9375 6.765625 8.910156 C 7.332031 9.890625 9.0625 10.628906 9.972656 10.261719 C 9.554688 10.277344 9.019531 10.269531 8.546875 10.101562 C 8.347656 10.003906 8.078125 9.800781 8.128906 9.761719 C 9.363281 10.210938 10.644531 10.101562 11.71875 9.273438 C 11.988281 9.066406 12.285156 8.71875 12.371094 8.714844 C 12.238281 8.902344 12.394531 8.804688 12.296875 8.972656 C 12.566406 8.550781 12.179688 8.800781 12.574219 8.242188 L 12.722656 8.4375 C 12.667969 8.085938 13.175781 7.660156 13.125 7.105469 C 13.242188 6.9375 13.253906 7.289062 13.132812 7.679688 C 13.300781 7.246094 13.175781 7.179688 13.21875 6.820312 C 13.265625 6.941406 13.328125 7.066406 13.359375 7.195312 C 13.25 6.777344 13.472656 6.488281 13.53125 6.246094 C 13.472656 6.222656 13.355469 6.433594 13.332031 5.9375 C 13.335938 5.722656 13.394531 5.828125 13.414062 5.773438 C 13.371094 5.75 13.257812 5.589844 13.1875 5.273438 C 13.238281 5.199219 13.324219 5.464844 13.390625 5.476562 C 13.347656 5.226562 13.269531 5.035156 13.269531 4.84375 C 13.066406 4.4375 13.195312 4.902344 13.035156 4.671875 C 12.820312 4.023438 13.210938 4.519531 13.238281 4.226562 C 13.5625 4.679688 13.746094 5.382812 13.832031 5.671875 C 13.769531 5.320312 13.664062 4.976562 13.535156 4.640625 C 13.632812 4.683594 13.375 3.921875 13.664062 4.425781 C 13.359375 3.335938 12.351562 2.320312 11.429688 1.847656 C 11.542969 1.945312 11.683594 2.070312 11.636719 2.089844 C 11.175781 1.828125 11.257812 1.808594 11.191406 1.695312 C 10.816406 1.550781 10.789062 1.707031 10.542969 1.695312 C 9.839844 1.335938 9.703125 1.375 9.054688 1.144531 L 9.082031 1.277344 C 8.613281 1.128906 8.539062 1.335938 8.03125 1.277344 C 8.003906 1.253906 8.195312 1.191406 8.351562 1.171875 C 7.902344 1.230469 7.921875 1.085938 7.480469 1.1875 C 7.589844 1.113281 7.703125 1.0625 7.820312 1 C 7.453125 1.023438 6.941406 1.210938 7.101562 1.039062 C 6.5 1.296875 5.433594 1.660156 4.832031 2.203125 L 4.8125 2.078125 C 4.539062 2.398438 3.617188 3.027344 3.542969 3.441406 L 3.46875 3.457031 C 3.328125 3.6875 3.234375 3.953125 3.121094 4.191406 C 2.9375 4.5 2.847656 4.308594 2.871094 4.359375 C 2.507812 5.078125 2.324219 5.679688 2.167969 6.175781 C 2.277344 6.335938 2.167969 7.152344 2.214844 7.800781 C 2.027344 11.015625 4.550781 14.128906 7.308594 14.851562 C 7.714844 14.992188 8.3125 14.984375 8.824219 15 C 8.222656 14.832031 8.140625 14.910156 7.554688 14.714844 C 7.132812 14.519531 7.039062 14.304688 6.738281 14.050781 L 6.855469 14.253906 C 6.269531 14.050781 6.515625 14.003906 6.035156 13.855469 L 6.164062 13.699219 C 5.972656 13.683594 5.65625 13.390625 5.570312 13.222656 L 5.363281 13.234375 C 5.113281 12.933594 4.976562 12.71875 4.988281 12.550781 L 4.921875 12.667969 C 4.84375 12.539062 3.996094 11.550781 4.4375 11.78125 C 4.355469 11.707031 4.246094 11.664062 4.128906 11.457031 L 4.21875 11.359375 C 4.007812 11.097656 3.828125 10.757812 3.84375 10.648438 C 3.957031 10.796875 4.035156 10.820312 4.113281 10.847656 C 3.578125 9.570312 3.546875 10.777344 3.144531 9.546875 L 3.230469 9.539062 C 3.164062 9.445312 3.125 9.34375 3.070312 9.242188 L 3.109375 8.882812 C 2.722656 8.453125 3 7.0625 3.054688 6.300781 C 3.09375 5.988281 3.378906 5.65625 3.589844 5.140625 L 3.460938 5.117188 C 3.710938 4.699219 4.886719 3.429688 5.429688 3.492188 C 5.691406 3.175781 5.375 3.492188 5.324219 3.414062 C 5.902344 2.832031 6.085938 3.003906 6.480469 2.898438 C 6.90625 2.65625 6.117188 2.992188 6.320312 2.808594 C 7.042969 2.628906 6.839844 2.398438 7.789062 2.308594 C 7.890625 2.363281 7.554688 2.390625 7.472656 2.464844 C 8.082031 2.175781 9.394531 2.242188 10.25 2.621094 C 11.242188 3.070312 12.355469 4.390625 12.398438 5.632812 L 12.449219 5.644531 C 12.425781 6.144531 12.527344 6.714844 12.351562 7.234375 L 12.472656 6.988281 "/>
</g>
</svg>
