
<svg xmlns="http://www.w3.org/2000/svg" xmlns:xlink="http://www.w3.org/1999/xlink" width="16px" height="16px" viewBox="0 0 16 16" version="1.1">
<g id="surface1">
<path style=" stroke:none;fill-rule:nonzero;fill:#ff6666;fill-opacity:1;" d="M 1.601562 2.667969 L 1.601562 5.867188 L 0 5.867188 L 0 13.332031 L 16 13.332031 L 16 5.867188 L 14.398438 5.867188 L 14.398438 2.667969 L 13.332031 2.667969 L 13.332031 5.867188 L 12.265625 5.867188 L 12.265625 2.667969 L 10.132812 2.667969 L 10.132812 5.867188 L 9.066406 5.867188 L 9.066406 2.667969 L 8 2.667969 L 8 5.867188 L 6.933594 5.867188 L 6.933594 2.667969 L 3.734375 2.667969 L 3.734375 5.867188 L 2.667969 5.867188 L 2.667969 2.667969 Z M 1.066406 6.933594 L 14.933594 6.933594 L 14.933594 12.265625 L 1.066406 12.265625 Z M 1.601562 7.46875 L 1.601562 11.199219 L 2.667969 11.199219 L 2.667969 7.46875 Z M 3.734375 7.46875 L 3.734375 11.199219 L 6.933594 11.199219 L 6.933594 7.46875 Z M 8 7.46875 L 8 11.199219 L 9.066406 11.199219 L 9.066406 7.46875 Z M 10.132812 7.46875 L 10.132812 11.199219 L 12.265625 11.199219 L 12.265625 7.46875 Z M 13.332031 7.46875 L 13.332031 11.199219 L 14.398438 11.199219 L 14.398438 7.46875 Z M 13.332031 7.46875 "/>
</g>
</svg>
