
<svg xmlns="http://www.w3.org/2000/svg" xmlns:xlink="http://www.w3.org/1999/xlink" width="16px" height="16px" viewBox="0 0 16 16" version="1.1">
<g id="surface1">
<path style=" stroke:none;fill-rule:nonzero;fill:#ff6666;fill-opacity:1;" d="M 3.691406 0 L 3.691406 5.539062 L 12.308594 5.539062 L 12.308594 0 Z M 5.539062 1.847656 L 7.386719 1.847656 L 7.386719 3.691406 L 5.539062 3.691406 Z M 8.613281 1.847656 L 10.460938 1.847656 L 10.460938 3.691406 L 8.613281 3.691406 Z M 4.558594 6.152344 C 4 6.148438 3.464844 6.371094 3.070312 6.765625 C 2.679688 7.15625 2.457031 7.691406 2.460938 8.25 L 2.460938 13.902344 C 2.457031 14.460938 2.679688 14.996094 3.070312 15.390625 C 3.464844 15.785156 4 16.003906 4.558594 16 L 11.441406 16 C 12 16.003906 12.535156 15.785156 12.929688 15.390625 C 13.320312 14.996094 13.542969 14.460938 13.539062 13.902344 L 13.539062 8.25 C 13.542969 7.691406 13.320312 7.15625 12.929688 6.765625 C 12.535156 6.371094 12 6.148438 11.441406 6.152344 Z M 4.558594 6.152344 "/>
</g>
</svg>
