
<svg xmlns="http://www.w3.org/2000/svg" xmlns:xlink="http://www.w3.org/1999/xlink" width="16px" height="16px" viewBox="0 0 16 16" version="1.1">
<g id="surface1">
<path style=" stroke:none;fill-rule:nonzero;fill:#ff6666;fill-opacity:1;" d="M 0.644531 0 C 0.289062 0 0 0.289062 0 0.644531 L 0 5.890625 C 0 6.242188 0.289062 6.539062 0.644531 6.539062 L 6.59375 6.539062 C 6.945312 6.539062 7.238281 6.242188 7.238281 5.890625 L 7.238281 0.644531 C 7.238281 0.289062 6.945312 0 6.59375 0 Z M 0.445312 1.410156 L 6.792969 1.410156 L 6.792969 5.890625 C 6.792969 6.003906 6.707031 6.089844 6.59375 6.089844 L 0.644531 6.089844 C 0.53125 6.089844 0.445312 6.003906 0.445312 5.890625 Z M 0.445312 1.410156 "/>
<path style=" stroke:none;fill-rule:nonzero;fill:#ff6666;fill-opacity:1;" d="M 9.300781 2.152344 C 8.984375 2.152344 8.726562 2.414062 8.726562 2.730469 L 8.726562 7.136719 C 8.726562 7.453125 8.984375 7.714844 9.300781 7.714844 L 15.421875 7.714844 C 15.738281 7.714844 16 7.453125 16 7.136719 L 16 2.730469 C 16 2.414062 15.738281 2.152344 15.421875 2.152344 Z M 9.171875 3.582031 L 15.554688 3.582031 L 15.554688 7.136719 C 15.554688 7.210938 15.496094 7.269531 15.421875 7.269531 L 9.300781 7.269531 C 9.226562 7.269531 9.171875 7.210938 9.171875 7.136719 Z M 9.171875 3.582031 "/>
<path style=" stroke:none;fill-rule:nonzero;fill:#ff6666;fill-opacity:1;" d="M 2.582031 9.453125 C 2.230469 9.453125 1.941406 9.746094 1.941406 10.101562 L 1.941406 15.351562 C 1.941406 15.707031 2.230469 16 2.582031 16 L 11.605469 16 C 11.957031 16 12.25 15.707031 12.25 15.351562 L 12.25 10.101562 C 12.25 9.746094 11.957031 9.453125 11.605469 9.453125 Z M 2.386719 11.1875 L 11.804688 11.1875 L 11.804688 15.351562 C 11.804688 15.46875 11.71875 15.554688 11.605469 15.554688 L 2.582031 15.554688 C 2.46875 15.554688 2.386719 15.46875 2.386719 15.351562 Z M 2.386719 11.1875 "/>
</g>
</svg>
