
<svg xmlns="http://www.w3.org/2000/svg" xmlns:xlink="http://www.w3.org/1999/xlink" width="16px" height="16px" viewBox="0 0 16 16" version="1.1">
<g id="surface1">
<path style=" stroke:none;fill-rule:nonzero;fill:#ff6666;fill-opacity:1;" d="M 9.238281 0.0507812 C 9.132812 0.0625 9.023438 0.09375 8.914062 0.128906 L 8.914062 0.078125 L 8.816406 0.101562 L 1.152344 2.074219 C 1.128906 2.078125 1.105469 2.089844 1.078125 2.097656 C 0.355469 2.386719 -0.128906 3.167969 0.03125 3.96875 L 0.03125 4.019531 L 1.476562 9.433594 L 1.476562 9.460938 C 1.933594 11.011719 3.164062 11.953125 4.398438 12.503906 C 4.773438 13.117188 5.253906 13.660156 5.71875 14.101562 C 6.4375 14.777344 7.234375 15.363281 8.089844 15.847656 C 8.242188 15.9375 8.417969 15.96875 8.589844 15.949219 C 8.589844 15.949219 8.941406 15.886719 9.464844 15.75 C 10.128906 15.578125 10.78125 15.351562 11.410156 15.074219 C 11.957031 14.832031 12.550781 14.527344 13.082031 14.128906 C 13.261719 13.992188 13.417969 13.855469 13.582031 13.703125 C 14.234375 13.089844 14.753906 12.300781 14.929688 11.304688 L 15.953125 5.714844 L 15.976562 5.691406 C 16.121094 4.828125 15.5625 4.003906 14.703125 3.820312 L 14.679688 3.820312 L 11.410156 3.222656 L 10.859375 1.25 C 10.859375 1.230469 10.84375 1.21875 10.835938 1.199219 C 10.734375 0.769531 10.449219 0.457031 10.113281 0.25 C 9.851562 0.09375 9.542969 0.0234375 9.238281 0.0507812 Z M 5.496094 2.597656 L 5.496094 2.621094 C 5.113281 2.859375 4.808594 3.234375 4.671875 3.644531 C 4.664062 3.675781 4.652344 3.710938 4.648438 3.742188 L 4.375 5.390625 C 4.300781 5.390625 4.222656 5.398438 4.148438 5.414062 C 3.511719 5.574219 3.199219 6.515625 3.199219 6.515625 C 3.199219 6.515625 3.617188 6.882812 4.101562 6.988281 L 3.699219 9.335938 C 3.660156 9.582031 3.644531 9.832031 3.648438 10.082031 C 3.375 9.78125 3.15625 9.445312 3.027344 9.035156 L 1.578125 3.644531 C 1.578125 3.648438 1.578125 3.625 1.652344 3.59375 Z M 6.269531 3.96875 C 6.292969 3.949219 6.308594 3.964844 6.34375 3.96875 L 10.386719 4.691406 L 9.191406 11.15625 L 6.792969 10.757812 L 6.867188 10.90625 C 7.183594 11.851562 7.953125 12.578125 8.890625 12.753906 L 8.617188 14.277344 C 8.414062 14.164062 7.6875 13.757812 6.820312 12.929688 C 5.960938 12.109375 5.269531 11.105469 5.246094 10.058594 C 5.242188 9.910156 5.25 9.757812 5.273438 9.609375 L 6.195312 4.144531 C 6.230469 4.046875 6.246094 3.988281 6.269531 3.96875 Z M 7.667969 6.738281 C 7.101562 6.769531 6.546875 7.3125 6.546875 7.3125 C 6.546875 7.3125 6.953125 8.28125 7.59375 8.363281 C 8.230469 8.523438 8.941406 7.8125 8.941406 7.8125 C 8.941406 7.8125 8.558594 6.847656 7.917969 6.765625 C 7.835938 6.746094 7.753906 6.738281 7.667969 6.738281 Z M 12.535156 7.613281 C 12.613281 7.609375 12.703125 7.617188 12.785156 7.636719 C 13.371094 7.710938 13.746094 8.503906 13.808594 8.636719 L 13.808594 8.660156 L 13.78125 8.710938 C 13.675781 8.800781 13.042969 9.308594 12.460938 9.234375 C 11.820312 9.152344 11.433594 8.214844 11.433594 8.214844 C 11.433594 8.214844 11.96875 7.644531 12.535156 7.613281 Z M 12.535156 7.613281 "/>
</g>
</svg>
