
<svg xmlns="http://www.w3.org/2000/svg" xmlns:xlink="http://www.w3.org/1999/xlink" width="16px" height="16px" viewBox="0 0 16 16" version="1.1">
<g id="surface1">
<path style=" stroke:none;fill-rule:nonzero;fill:#ff6666;fill-opacity:1;" d="M 7.992188 0 C 7.3125 0.0078125 6.554688 0.0585938 6.140625 0.164062 C 4.746094 0.515625 4.03125 1.175781 4.054688 2.09375 C 4.070312 2.886719 4.460938 3.40625 6.273438 4.742188 C 7.171875 5.40625 7.886719 6.164062 7.863281 6.234375 C 7.839844 6.300781 7.429688 6.453125 6.949219 6.574219 C 5.058594 7.046875 3.488281 8.164062 2.816406 9.507812 C 2.253906 10.835938 2.269531 12.242188 2.8125 13.34375 C 3.707031 15.132812 5.671875 16.136719 7.988281 15.984375 C 8.46875 15.953125 9.203125 15.824219 9.621094 15.695312 C 10.542969 15.414062 11.480469 14.820312 12.210938 14.097656 C 13.578125 12.765625 13.960938 10.40625 13.25 8.878906 C 12.675781 7.710938 11.519531 6.691406 9.273438 5.390625 C 6.105469 3.550781 5.703125 3.09375 5.316406 2.660156 C 5.109375 2.429688 4.945312 2.117188 4.945312 1.964844 C 4.945312 0.917969 7.203125 0.332031 8.617188 0.988281 C 8.949219 1.140625 9.570312 1.550781 10 1.894531 C 11.261719 2.902344 11.863281 3.035156 12.496094 2.457031 C 13.214844 1.792969 12.5625 0.800781 11.105469 0.335938 C 10.402344 0.113281 9.125 -0.0078125 7.992188 0 Z M 8.578125 7.199219 C 8.835938 7.199219 8.976562 7.324219 9.503906 7.824219 C 10.730469 8.96875 11.316406 10.355469 11.179688 11.765625 C 10.988281 13.367188 9.902344 14.757812 8.066406 14.800781 C 6.152344 14.816406 4.8125 12.871094 4.800781 11.222656 C 4.792969 9.8125 5.019531 9.15625 5.773438 8.40625 C 6.355469 7.832031 7.355469 7.359375 8.265625 7.230469 C 8.394531 7.214844 8.492188 7.199219 8.578125 7.199219 Z M 8.578125 7.199219 "/>
</g>
</svg>
