
<svg xmlns="http://www.w3.org/2000/svg" xmlns:xlink="http://www.w3.org/1999/xlink" width="16px" height="16px" viewBox="0 0 16 16" version="1.1">
<g id="surface1">
<path style=" stroke:none;fill-rule:nonzero;fill:#ff6666;fill-opacity:1;" d="M 8.332031 0 C 8.113281 0.757812 7.816406 1.5 7.492188 2.226562 C 5.847656 5.828125 3.277344 8.289062 3.027344 10.5625 C 3.019531 10.597656 3.003906 10.632812 3 10.667969 L 3.019531 10.675781 C 3.015625 10.753906 3 10.832031 3 10.910156 C 3 13.722656 5.386719 16 8.332031 16 C 11.277344 16 13.667969 13.71875 13.667969 10.910156 C 13.667969 10.832031 13.652344 10.753906 13.644531 10.675781 L 13.667969 10.667969 C 13.660156 10.632812 13.644531 10.597656 13.636719 10.5625 C 13.390625 8.289062 10.820312 5.828125 9.175781 2.226562 C 8.851562 1.5 8.554688 0.757812 8.332031 0 M 8.332031 1.953125 C 9.105469 3.773438 10.117188 5.300781 10.996094 6.628906 C 11.589844 7.554688 12.261719 8.566406 12.710938 9.691406 C 12.832031 10.085938 12.902344 10.496094 12.902344 10.910156 C 12.902344 13.320312 10.859375 15.273438 8.332031 15.273438 C 5.808594 15.273438 3.761719 13.320312 3.761719 10.910156 C 3.761719 10.496094 3.835938 10.085938 3.957031 9.691406 C 4.40625 8.566406 5.078125 7.554688 5.671875 6.628906 C 6.550781 5.300781 7.558594 3.773438 8.332031 1.953125 "/>
</g>
</svg>
