
<svg xmlns="http://www.w3.org/2000/svg" xmlns:xlink="http://www.w3.org/1999/xlink" width="16px" height="16px" viewBox="0 0 16 16" version="1.1">
<g id="surface1">
<path style=" stroke:none;fill-rule:nonzero;fill:#ff6666;fill-opacity:1;" d="M 3.992188 1.5 C 2.734375 1.515625 1.816406 1.46875 1.0625 1.886719 C 0.6875 2.09375 0.386719 2.445312 0.222656 2.882812 C 0.0585938 3.320312 0 3.84375 0 4.5 L 0 11.5 C 0 12.15625 0.0585938 12.679688 0.222656 13.117188 C 0.386719 13.554688 0.6875 13.90625 1.0625 14.113281 C 1.816406 14.53125 2.734375 14.484375 3.992188 14.5 L 12.007812 14.5 C 13.265625 14.484375 14.183594 14.53125 14.9375 14.113281 C 15.3125 13.90625 15.609375 13.554688 15.777344 13.117188 C 15.941406 12.679688 16 12.15625 16 11.5 L 16 4.5 C 16 3.84375 15.941406 3.320312 15.773438 2.882812 C 15.609375 2.445312 15.3125 2.09375 14.9375 1.886719 C 14.183594 1.46875 13.265625 1.515625 12.007812 1.5 Z M 4 2.5 L 12 2.5 C 13.257812 2.515625 14.085938 2.558594 14.453125 2.761719 C 14.636719 2.859375 14.742188 2.972656 14.839844 3.234375 C 14.9375 3.496094 15 3.90625 15 4.5 L 15 11.5 C 15 12.09375 14.9375 12.503906 14.839844 12.765625 C 14.742188 13.027344 14.636719 13.140625 14.453125 13.238281 C 14.085938 13.441406 13.257812 13.484375 12 13.5 L 4 13.5 Z M 1.832031 2.5 L 2.167969 2.5 C 2.832031 2.5 3 2.699219 3 3.5 C 3 4.300781 2.832031 4.5 2.167969 4.5 L 1.832031 4.5 C 1.167969 4.5 1 4.300781 1 3.5 C 1 2.699219 1.167969 2.5 1.832031 2.5 Z M 1.832031 5.5 L 2.167969 5.5 C 2.832031 5.5 3 5.699219 3 6.5 C 3 7.300781 2.832031 7.5 2.167969 7.5 L 1.832031 7.5 C 1.167969 7.5 1 7.300781 1 6.5 C 1 5.699219 1.167969 5.5 1.832031 5.5 Z M 1.832031 8.5 L 2.167969 8.5 C 2.832031 8.5 3 8.699219 3 9.5 C 3 10.300781 2.832031 10.5 2.167969 10.5 L 1.832031 10.5 C 1.167969 10.5 1 10.300781 1 9.5 C 1 8.699219 1.167969 8.5 1.832031 8.5 Z M 1.832031 11.5 L 2.167969 11.5 C 2.832031 11.5 3 11.699219 3 12.5 C 3 13.300781 2.832031 13.5 2.167969 13.5 L 1.832031 13.5 C 1.167969 13.5 1 13.300781 1 12.5 C 1 11.699219 1.167969 11.5 1.832031 11.5 Z M 1.832031 11.5 "/>
</g>
</svg>
