
<svg xmlns="http://www.w3.org/2000/svg" xmlns:xlink="http://www.w3.org/1999/xlink" width="16px" height="16px" viewBox="0 0 16 16" version="1.1">
<g id="surface1">
<path style=" stroke:none;fill-rule:nonzero;fill:#ff6666;fill-opacity:1;" d="M 13.316406 8.875 C 13.230469 8.824219 13.910156 8.03125 14.078125 8.117188 C 14.320312 8.359375 13.304688 8.894531 13.316406 8.875 Z M 12.84375 8.332031 C 12.828125 8.277344 13.820312 7.675781 13.960938 7.8125 C 14.21875 7.90625 12.851562 8.398438 12.84375 8.332031 Z M 12.484375 6.554688 C 12.59375 7.027344 12.765625 7.179688 13.28125 7.164062 C 12.625 7.765625 12.226562 6.734375 12.484375 6.554688 Z M 13.066406 6.375 C 13.207031 6.375 13.324219 6.507812 13.324219 6.671875 C 13.324219 6.832031 13.207031 6.964844 13.066406 6.964844 C 12.921875 6.964844 12.804688 6.832031 12.804688 6.671875 C 12.804688 6.507812 12.921875 6.375 13.066406 6.375 Z M 12.683594 5.789062 C 12.660156 5.738281 12.816406 3.863281 11.941406 4.210938 C 11.402344 4.410156 11.84375 5.601562 11.878906 5.757812 C 11.910156 5.898438 11.636719 5.882812 11.585938 5.820312 C 11.472656 5.683594 11.097656 4.4375 10.652344 4.660156 C 10.027344 5.003906 10.613281 6.078125 10.488281 6.113281 C 10.257812 6.242188 10.273438 6.558594 10.085938 6.8125 C 9.78125 7.25 7.496094 6.609375 6.757812 6.5625 C 6.21875 6.53125 5.699219 6.976562 5.652344 6.917969 C 4.992188 6.261719 3.632812 5.113281 2.136719 4.730469 C 1.300781 4.503906 0.0546875 3.847656 0.0078125 3.855469 C -0.078125 3.902344 0.6875 4.398438 2.113281 4.988281 C 3.542969 5.574219 5.515625 7.066406 5.359375 7.304688 C 4.898438 7.960938 4.625 8.742188 4.8125 10.078125 C 4.847656 10.316406 4.113281 10.726562 4.167969 11.078125 C 4.210938 11.351562 4.984375 10.8125 5.070312 10.917969 C 5.121094 11.109375 4.65625 12.074219 4.84375 12.144531 C 4.984375 12.1875 6.195312 10.996094 6.265625 11.015625 C 8.261719 11.617188 10.859375 11.164062 10.910156 11.144531 C 10.90625 11.132812 12.777344 12.023438 12.941406 11.917969 C 13.351562 11.472656 12.164062 10.847656 12.359375 10.597656 C 12.449219 10.464844 13.808594 11.089844 13.878906 10.917969 C 13.976562 10.625 13.246094 10.003906 13.136719 9.820312 C 13.039062 9.652344 13.019531 9.378906 13.265625 9.210938 C 13.507812 9.039062 16.015625 8.078125 15.910156 7.339844 C 15.726562 5.992188 12.730469 5.902344 12.683594 5.789062 Z M 15.996094 5.203125 C 15.914062 5.136719 15.265625 6.160156 15.410156 6.265625 C 15.496094 6.332031 16.035156 5.242188 15.996094 5.203125 Z M 15.996094 5.203125 "/>
</g>
</svg>
