
<svg xmlns="http://www.w3.org/2000/svg" xmlns:xlink="http://www.w3.org/1999/xlink" width="16px" height="16px" viewBox="0 0 16 16" version="1.1">
<g id="surface1">
<path style=" stroke:none;fill-rule:nonzero;fill:#ff6666;fill-opacity:1;" d="M 10.414062 13.53125 L 10.414062 11.0625 L 10.570312 11.148438 C 10.652344 11.195312 10.953125 11.371094 11.230469 11.535156 C 11.441406 11.660156 11.652344 11.785156 11.867188 11.90625 C 12 11.984375 12.011719 11.992188 12.488281 12.277344 C 12.65625 12.378906 12.824219 12.476562 12.863281 12.5 C 12.902344 12.523438 13.105469 12.644531 13.316406 12.769531 C 13.484375 12.867188 13.65625 12.96875 13.824219 13.070312 C 13.894531 13.109375 14 13.171875 14.058594 13.207031 C 14.121094 13.242188 14.261719 13.324219 14.375 13.390625 C 14.59375 13.515625 14.601562 13.566406 14.425781 13.640625 C 14.382812 13.660156 14.273438 13.71875 14.183594 13.773438 C 14.089844 13.828125 13.847656 13.972656 13.644531 14.09375 C 13.488281 14.183594 13.332031 14.277344 13.179688 14.367188 C 13.125 14.402344 13.023438 14.460938 12.953125 14.5 C 12.882812 14.539062 12.65625 14.675781 12.445312 14.800781 C 12.277344 14.902344 12.109375 15 11.9375 15.101562 C 11.867188 15.140625 11.761719 15.203125 11.703125 15.238281 C 11.644531 15.277344 11.535156 15.339844 11.46875 15.378906 C 11.398438 15.421875 11.273438 15.496094 11.195312 15.546875 C 11.113281 15.59375 11.023438 15.644531 10.996094 15.660156 C 10.964844 15.671875 10.898438 15.710938 10.851562 15.742188 C 10.800781 15.773438 10.683594 15.847656 10.585938 15.902344 L 10.414062 16 Z M 7.496094 14.570312 C 7.027344 14.488281 6.847656 14.441406 6.316406 14.265625 C 6.054688 14.179688 5.304688 13.832031 5.117188 13.710938 C 4.441406 13.265625 4.300781 13.152344 3.828125 12.679688 C 3.355469 12.207031 3.261719 12.089844 2.796875 11.390625 C 2.71875 11.269531 2.394531 10.617188 2.410156 10.605469 C 2.414062 10.601562 2.578125 10.5 2.777344 10.382812 L 3.136719 10.167969 L 3.300781 10.496094 C 4.148438 12.207031 5.65625 13.335938 7.566406 13.695312 C 7.949219 13.769531 8.914062 13.792969 9.261719 13.738281 L 9.4375 13.714844 L 9.4375 14.144531 C 9.4375 14.519531 9.425781 14.578125 9.371094 14.601562 C 9.335938 14.617188 9.007812 14.632812 8.636719 14.640625 C 8.0625 14.652344 7.898438 14.640625 7.496094 14.570312 Z M 8.039062 12.335938 C 7.742188 12.308594 7.375 12.21875 6.988281 12.078125 C 6.761719 11.996094 6.265625 11.742188 6.167969 11.65625 C 6.136719 11.628906 6.097656 11.609375 6.085938 11.609375 C 6.027344 11.609375 5.519531 11.167969 5.308594 10.9375 C 4.964844 10.5625 4.605469 9.996094 4.464844 9.609375 C 4.425781 9.503906 4.398438 9.414062 4.402344 9.410156 C 4.40625 9.40625 4.582031 9.304688 4.792969 9.183594 L 5.171875 8.960938 L 5.195312 9.058594 C 5.207031 9.113281 5.28125 9.296875 5.363281 9.46875 C 5.8125 10.410156 6.65625 11.105469 7.675781 11.371094 C 7.972656 11.449219 8.109375 11.464844 8.542969 11.464844 C 8.859375 11.464844 9.128906 11.445312 9.246094 11.414062 L 9.4375 11.363281 L 9.429688 11.820312 L 9.417969 12.273438 L 9.320312 12.300781 C 9.160156 12.34375 8.351562 12.363281 8.039062 12.335938 Z M 13.515625 11.769531 C 13.339844 11.660156 13.1875 11.558594 13.179688 11.539062 C 13.171875 11.523438 13.253906 11.378906 13.363281 11.222656 C 13.632812 10.824219 13.683594 10.726562 13.871094 10.300781 C 14.257812 9.402344 14.398438 8.628906 14.351562 7.617188 C 14.3125 6.828125 14.136719 6.148438 13.78125 5.421875 C 13.535156 4.921875 13.460938 4.792969 13.289062 4.578125 C 13.21875 4.492188 13.171875 4.417969 13.175781 4.410156 C 13.316406 4.3125 13.921875 3.992188 13.949219 4.003906 C 14.007812 4.023438 14.433594 4.742188 14.59375 5.078125 C 14.835938 5.589844 14.972656 6.003906 15.136719 6.710938 C 15.203125 7.011719 15.214844 7.164062 15.214844 7.925781 C 15.21875 8.734375 15.210938 8.828125 15.117188 9.253906 C 15.023438 9.710938 14.984375 9.835938 14.808594 10.320312 C 14.59375 10.90625 13.976562 11.984375 13.863281 11.96875 C 13.851562 11.964844 13.695312 11.875 13.515625 11.769531 Z M 11.757812 10.726562 C 11.6875 10.6875 11.582031 10.625 11.519531 10.589844 C 11.441406 10.539062 11.359375 10.492188 11.277344 10.445312 C 11.203125 10.40625 11.140625 10.367188 11.140625 10.355469 C 11.140625 10.347656 11.183594 10.296875 11.234375 10.238281 C 11.484375 9.976562 11.789062 9.417969 11.921875 8.996094 C 12.25 7.929688 12.027344 6.671875 11.359375 5.820312 L 11.179688 5.589844 L 11.441406 5.441406 C 11.570312 5.367188 11.699219 5.292969 11.824219 5.21875 L 11.949219 5.144531 L 12.035156 5.246094 C 12.121094 5.355469 12.378906 5.765625 12.492188 5.984375 C 12.957031 6.875 13.082031 8.105469 12.804688 9.105469 C 12.652344 9.648438 12.191406 10.53125 11.953125 10.742188 C 11.890625 10.796875 11.875 10.796875 11.757812 10.726562 Z M 0.792969 7.953125 L 0.804688 5.46875 L 0.890625 5.527344 C 0.9375 5.558594 1.039062 5.621094 1.117188 5.664062 C 1.191406 5.707031 1.300781 5.769531 1.351562 5.800781 C 1.40625 5.832031 1.550781 5.921875 1.679688 5.992188 C 1.804688 6.070312 1.972656 6.171875 2.054688 6.222656 C 2.136719 6.273438 2.222656 6.320312 2.308594 6.367188 C 2.367188 6.398438 2.539062 6.496094 2.6875 6.589844 C 2.839844 6.679688 3.011719 6.785156 3.070312 6.820312 C 3.128906 6.855469 3.40625 7.019531 3.6875 7.183594 C 4.289062 7.535156 4.425781 7.617188 4.519531 7.667969 C 4.558594 7.691406 4.636719 7.738281 4.691406 7.773438 C 4.746094 7.808594 4.835938 7.859375 4.886719 7.894531 L 4.980469 7.949219 L 4.859375 8.027344 C 4.792969 8.070312 4.703125 8.121094 4.664062 8.144531 C 4.453125 8.265625 3.597656 8.769531 3.195312 9.007812 C 3.121094 9.050781 2.898438 9.183594 2.691406 9.304688 C 2.316406 9.523438 2.207031 9.589844 1.988281 9.722656 C 1.925781 9.761719 1.816406 9.824219 1.746094 9.867188 C 1.675781 9.90625 1.570312 9.972656 1.511719 10.007812 C 1.449219 10.042969 1.34375 10.105469 1.273438 10.148438 C 1.203125 10.1875 1.066406 10.269531 0.964844 10.328125 L 0.785156 10.433594 Z M 4.847656 6.746094 C 4.6875 6.648438 4.519531 6.550781 4.476562 6.53125 C 4.429688 6.511719 4.394531 6.488281 4.394531 6.484375 C 4.394531 6.4375 4.511719 6.175781 4.621094 5.957031 C 4.894531 5.414062 5.300781 4.914062 5.792969 4.507812 C 6.332031 4.0625 7.144531 3.707031 7.878906 3.59375 C 8.195312 3.542969 8.871094 3.546875 9.183594 3.597656 L 9.4375 3.636719 L 9.4375 4.523438 L 9.136719 4.476562 C 8.574219 4.382812 7.917969 4.433594 7.40625 4.605469 C 6.910156 4.773438 6.335938 5.148438 5.960938 5.546875 C 5.664062 5.867188 5.257812 6.546875 5.203125 6.816406 C 5.191406 6.878906 5.171875 6.925781 5.160156 6.925781 C 5.148438 6.921875 5.007812 6.84375 4.847656 6.746094 Z M 2.996094 5.65625 C 2.9375 5.621094 2.78125 5.527344 2.648438 5.453125 C 2.449219 5.34375 2.410156 5.304688 2.429688 5.242188 C 2.449219 5.15625 2.707031 4.664062 2.804688 4.527344 C 2.839844 4.476562 2.871094 4.421875 2.871094 4.410156 C 2.871094 4.371094 3.007812 4.1875 3.371094 3.730469 C 3.867188 3.097656 4.492188 2.5625 5.195312 2.15625 C 6.136719 1.613281 7.125 1.320312 8.15625 1.28125 C 8.472656 1.269531 8.886719 1.269531 9.082031 1.285156 L 9.4375 1.3125 L 9.4375 2.179688 L 8.863281 2.15625 C 7.445312 2.097656 6.394531 2.386719 5.246094 3.152344 C 4.90625 3.378906 4.199219 4.027344 4 4.296875 C 3.957031 4.359375 3.847656 4.503906 3.757812 4.625 C 3.667969 4.746094 3.597656 4.855469 3.597656 4.867188 C 3.597656 4.882812 3.554688 4.953125 3.503906 5.027344 C 3.453125 5.101562 3.351562 5.289062 3.28125 5.445312 C 3.207031 5.601562 3.136719 5.730469 3.125 5.730469 C 3.113281 5.726562 3.058594 5.695312 2.996094 5.65625 Z M 10.414062 2.46875 C 10.414062 1.109375 10.425781 0 10.4375 0 C 10.449219 0 10.617188 0.09375 10.808594 0.207031 C 10.949219 0.292969 11.089844 0.375 11.230469 0.457031 C 11.269531 0.480469 11.476562 0.601562 11.683594 0.726562 C 11.851562 0.824219 12.023438 0.925781 12.191406 1.027344 C 12.261719 1.066406 12.367188 1.128906 12.429688 1.164062 C 12.550781 1.234375 12.671875 1.308594 12.789062 1.378906 C 12.929688 1.460938 13.097656 1.558594 13.164062 1.597656 L 13.386719 1.730469 C 13.546875 1.824219 13.703125 1.921875 13.863281 2.011719 C 14.070312 2.132812 14.296875 2.265625 14.367188 2.3125 C 14.4375 2.355469 14.523438 2.40625 14.558594 2.421875 C 14.609375 2.445312 14.582031 2.472656 14.414062 2.570312 C 14.300781 2.632812 14.191406 2.699219 14.078125 2.765625 C 14.007812 2.804688 13.917969 2.859375 13.878906 2.882812 C 13.753906 2.953125 13.628906 3.027344 13.503906 3.101562 C 13.117188 3.335938 12.730469 3.5625 12.339844 3.789062 C 12.175781 3.886719 12.011719 3.984375 11.851562 4.082031 C 11.785156 4.121094 11.5625 4.25 11.359375 4.371094 C 11.191406 4.46875 11.023438 4.570312 10.855469 4.671875 C 10.78125 4.714844 10.699219 4.765625 10.667969 4.777344 C 10.640625 4.789062 10.570312 4.832031 10.515625 4.867188 L 10.414062 4.9375 Z M 10.414062 2.46875 "/>
</g>
</svg>
