
<svg xmlns="http://www.w3.org/2000/svg" xmlns:xlink="http://www.w3.org/1999/xlink" width="16px" height="16px" viewBox="0 0 16 16" version="1.1">
<g id="surface1">
<path style=" stroke:none;fill-rule:nonzero;fill:#ff6666;fill-opacity:1;" d="M 5.675781 15.988281 C 5.550781 15.949219 5.476562 15.878906 5.441406 15.773438 C 5.421875 15.707031 5.417969 15.683594 5.421875 15.441406 C 5.421875 15.175781 5.421875 15.128906 5.472656 14.707031 C 5.503906 14.445312 5.535156 14.226562 5.582031 13.964844 C 5.679688 13.390625 5.695312 13.246094 5.679688 13.101562 C 5.652344 12.851562 5.589844 12.722656 5.476562 12.683594 C 5.414062 12.664062 5.316406 12.675781 5.234375 12.714844 C 5.113281 12.773438 4.960938 12.90625 4.808594 13.082031 C 4.652344 13.261719 4.527344 13.46875 4.355469 13.824219 C 4.183594 14.183594 4.023438 14.5 3.960938 14.601562 C 3.742188 14.953125 3.464844 15.324219 3.304688 15.472656 C 3.199219 15.578125 3.058594 15.625 2.878906 15.617188 C 2.796875 15.613281 2.769531 15.609375 2.71875 15.585938 C 2.503906 15.488281 2.457031 15.210938 2.585938 14.839844 C 2.601562 14.785156 2.671875 14.632812 2.738281 14.5 C 2.894531 14.195312 2.988281 13.953125 3.148438 13.480469 C 3.359375 12.84375 3.414062 12.660156 3.613281 11.972656 C 3.9375 10.847656 4.171875 9.660156 4.257812 8.722656 C 4.289062 8.34375 4.300781 8.117188 4.300781 7.648438 C 4.300781 7.179688 4.289062 6.96875 4.246094 6.433594 C 4.203125 5.910156 4.195312 5.796875 4.191406 5.335938 C 4.1875 4.933594 4.1875 4.828125 4.203125 4.6875 C 4.25 4.195312 4.367188 3.761719 4.546875 3.421875 C 4.613281 3.296875 4.742188 3.097656 4.832031 2.988281 L 4.898438 2.910156 L 4.730469 2.738281 C 4.5625 2.570312 4.46875 2.453125 4.332031 2.257812 C 4.289062 2.199219 4.246094 2.140625 4.238281 2.128906 L 4.222656 2.105469 L 4.148438 2.121094 C 4.015625 2.148438 3.839844 2.125 3.699219 2.058594 C 3.382812 1.910156 3.214844 1.546875 3.300781 1.207031 C 3.347656 1.019531 3.496094 0.824219 3.664062 0.738281 C 3.789062 0.675781 3.859375 0.65625 4.019531 0.65625 C 4.183594 0.65625 4.246094 0.671875 4.359375 0.726562 C 4.539062 0.816406 4.6875 1.003906 4.738281 1.207031 C 4.75 1.261719 4.757812 1.316406 4.757812 1.394531 C 4.757812 1.601562 4.699219 1.753906 4.558594 1.90625 C 4.5 1.96875 4.5 1.957031 4.601562 2.070312 C 4.769531 2.257812 4.980469 2.414062 5.203125 2.523438 L 5.269531 2.554688 L 5.355469 2.488281 C 5.613281 2.292969 5.914062 2.128906 6.308594 1.976562 C 6.574219 1.871094 6.800781 1.804688 7.113281 1.742188 C 7.503906 1.664062 7.683594 1.648438 8.109375 1.648438 C 8.410156 1.648438 8.488281 1.652344 8.648438 1.671875 C 9.347656 1.753906 9.859375 1.917969 10.367188 2.226562 C 10.449219 2.273438 10.453125 2.273438 10.480469 2.257812 C 10.558594 2.222656 10.769531 2.050781 10.894531 1.917969 C 11.042969 1.765625 11.164062 1.585938 11.246094 1.394531 L 11.285156 1.3125 L 11.234375 1.261719 C 11.09375 1.121094 11.019531 0.9375 11.019531 0.734375 C 11.019531 0.617188 11.039062 0.519531 11.085938 0.417969 C 11.1875 0.210938 11.34375 0.0820312 11.578125 0.0117188 C 11.644531 -0.0078125 11.871094 -0.00390625 11.949219 0.015625 C 12.203125 0.0859375 12.394531 0.273438 12.472656 0.523438 C 12.492188 0.589844 12.496094 0.617188 12.496094 0.742188 C 12.492188 0.867188 12.492188 0.890625 12.46875 0.957031 C 12.429688 1.078125 12.378906 1.160156 12.285156 1.253906 C 12.195312 1.339844 12.121094 1.390625 12.023438 1.425781 C 11.898438 1.476562 11.738281 1.488281 11.621094 1.464844 L 11.558594 1.449219 L 11.515625 1.574219 C 11.378906 1.929688 11.1875 2.273438 10.976562 2.53125 L 10.898438 2.625 L 10.988281 2.722656 C 11.273438 3.023438 11.53125 3.476562 11.648438 3.886719 C 11.742188 4.203125 11.792969 4.554688 11.808594 4.949219 C 11.8125 5.082031 11.8125 5.148438 11.78125 5.441406 C 11.730469 5.941406 11.671875 6.675781 11.640625 7.21875 C 11.632812 7.367188 11.625 7.515625 11.621094 7.546875 C 11.609375 7.695312 11.585938 8.421875 11.582031 8.914062 C 11.5625 10.386719 11.671875 11.441406 11.902344 12.058594 C 11.921875 12.113281 12 12.292969 12.074219 12.460938 C 12.148438 12.621094 12.320312 13.019531 12.457031 13.34375 C 12.59375 13.664062 12.738281 13.988281 12.777344 14.0625 C 12.941406 14.378906 13.144531 14.664062 13.328125 14.847656 C 13.4375 14.953125 13.484375 15.050781 13.484375 15.152344 C 13.484375 15.277344 13.410156 15.386719 13.269531 15.476562 C 13.15625 15.546875 13.074219 15.570312 12.929688 15.570312 C 12.832031 15.570312 12.785156 15.566406 12.714844 15.546875 C 12.550781 15.503906 12.34375 15.414062 12.199219 15.320312 C 11.867188 15.109375 11.589844 14.738281 11.367188 14.207031 C 11.277344 13.996094 11.101562 13.441406 11.046875 13.210938 C 11.007812 13.035156 10.933594 12.824219 10.871094 12.722656 C 10.726562 12.476562 10.542969 12.382812 10.378906 12.46875 C 10.273438 12.523438 10.164062 12.648438 10.054688 12.832031 C 9.808594 13.246094 9.652344 13.734375 9.613281 14.183594 C 9.59375 14.433594 9.628906 14.726562 9.714844 15.003906 C 9.789062 15.253906 9.792969 15.285156 9.789062 15.414062 C 9.78125 15.589844 9.738281 15.703125 9.636719 15.796875 C 9.578125 15.851562 9.515625 15.886719 9.402344 15.917969 C 9.328125 15.941406 9.296875 15.945312 9.183594 15.945312 C 9.035156 15.949219 8.96875 15.933594 8.859375 15.882812 C 8.746094 15.824219 8.636719 15.699219 8.554688 15.542969 C 8.484375 15.398438 8.371094 15.015625 8.328125 14.761719 C 8.285156 14.503906 8.277344 14.363281 8.273438 13.964844 C 8.273438 13.65625 8.269531 13.566406 8.257812 13.496094 C 8.234375 13.382812 8.210938 13.304688 8.164062 13.222656 C 8.066406 13.039062 7.945312 12.96875 7.738281 12.964844 C 7.617188 12.964844 7.539062 12.984375 7.4375 13.046875 C 7.320312 13.113281 7.164062 13.289062 7.0625 13.476562 C 6.890625 13.789062 6.734375 14.273438 6.652344 14.757812 C 6.613281 14.984375 6.550781 15.195312 6.460938 15.390625 C 6.304688 15.734375 6.121094 15.921875 5.890625 15.980469 C 5.804688 16.003906 5.730469 16.007812 5.675781 15.988281 Z M 6.40625 11.105469 C 6.429688 11.089844 6.472656 11.054688 6.503906 11.023438 C 6.605469 10.90625 6.648438 10.804688 6.699219 10.546875 C 6.746094 10.3125 6.792969 10.152344 6.839844 10.078125 C 6.933594 9.921875 7.113281 9.84375 7.261719 9.894531 C 7.34375 9.917969 7.476562 10.058594 7.589844 10.230469 C 7.703125 10.40625 7.800781 10.535156 7.851562 10.578125 C 7.875 10.597656 7.917969 10.625 7.949219 10.640625 C 7.996094 10.660156 8.015625 10.664062 8.078125 10.660156 C 8.234375 10.652344 8.296875 10.59375 8.515625 10.25 C 8.5625 10.171875 8.664062 10.070312 8.71875 10.042969 C 8.84375 9.984375 9.019531 10.027344 9.136719 10.152344 C 9.179688 10.199219 9.246094 10.296875 9.402344 10.539062 C 9.429688 10.578125 9.472656 10.636719 9.503906 10.667969 C 9.636719 10.800781 9.765625 10.796875 9.945312 10.644531 C 10.175781 10.449219 10.265625 10.191406 10.292969 9.640625 C 10.304688 9.402344 10.320312 9.257812 10.355469 8.992188 C 10.378906 8.84375 10.382812 8.777344 10.382812 8.605469 C 10.382812 8.425781 10.382812 8.390625 10.363281 8.320312 C 10.316406 8.152344 10.238281 8.039062 10.128906 7.984375 C 9.941406 7.890625 9.738281 7.90625 9.457031 8.042969 C 9.308594 8.117188 9.246094 8.179688 9.15625 8.367188 C 9.070312 8.542969 9.019531 8.605469 8.9375 8.652344 C 8.886719 8.679688 8.863281 8.683594 8.816406 8.683594 C 8.695312 8.683594 8.609375 8.617188 8.421875 8.382812 C 8.347656 8.289062 8.257812 8.183594 8.222656 8.148438 C 8.105469 8.035156 7.988281 7.988281 7.816406 7.988281 C 7.738281 7.988281 7.726562 7.992188 7.660156 8.027344 C 7.546875 8.082031 7.484375 8.15625 7.363281 8.378906 C 7.238281 8.609375 7.195312 8.671875 7.117188 8.746094 C 6.996094 8.863281 6.863281 8.898438 6.769531 8.839844 C 6.710938 8.800781 6.65625 8.742188 6.582031 8.636719 C 6.511719 8.535156 6.414062 8.414062 6.363281 8.367188 C 6.296875 8.304688 6.1875 8.277344 6.085938 8.296875 C 5.96875 8.320312 5.886719 8.378906 5.835938 8.472656 C 5.75 8.640625 5.722656 8.796875 5.730469 9.128906 C 5.738281 9.429688 5.761719 9.609375 5.878906 10.214844 C 5.964844 10.660156 5.992188 10.757812 6.066406 10.910156 C 6.164062 11.109375 6.289062 11.179688 6.40625 11.105469 Z M 6.707031 7.066406 C 6.828125 7.046875 6.941406 7.011719 7.117188 6.941406 C 7.4375 6.816406 7.683594 6.757812 7.976562 6.726562 C 8.101562 6.714844 8.574219 6.714844 8.703125 6.726562 C 8.988281 6.753906 9.269531 6.796875 9.511719 6.851562 C 9.816406 6.917969 9.953125 6.929688 10.152344 6.898438 C 10.386719 6.863281 10.523438 6.796875 10.679688 6.640625 C 10.882812 6.4375 10.988281 6.171875 11.042969 5.730469 C 11.066406 5.535156 11.066406 4.882812 11.042969 4.707031 C 10.980469 4.226562 10.8125 3.871094 10.507812 3.582031 C 10.164062 3.257812 9.558594 3.039062 8.867188 2.988281 C 8.65625 2.972656 8.179688 2.976562 7.9375 2.992188 C 7.269531 3.039062 6.804688 3.148438 6.363281 3.363281 C 5.890625 3.589844 5.535156 3.96875 5.347656 4.453125 C 5.160156 4.933594 5.054688 5.722656 5.125 6.097656 C 5.160156 6.277344 5.226562 6.4375 5.324219 6.578125 C 5.53125 6.867188 5.824219 7.027344 6.257812 7.085938 C 6.328125 7.09375 6.617188 7.082031 6.707031 7.066406 Z M 6.8125 5.679688 C 6.632812 5.636719 6.464844 5.476562 6.414062 5.289062 C 6.390625 5.210938 6.398438 5.058594 6.425781 4.976562 C 6.46875 4.851562 6.582031 4.714844 6.691406 4.664062 C 6.90625 4.558594 7.160156 4.601562 7.324219 4.761719 C 7.539062 4.980469 7.539062 5.316406 7.328125 5.53125 C 7.191406 5.667969 6.996094 5.726562 6.8125 5.679688 Z M 7.136719 5.222656 C 7.1875 5.195312 7.246094 5.132812 7.257812 5.085938 C 7.277344 5.015625 7.269531 4.941406 7.234375 4.886719 C 7.148438 4.746094 6.949219 4.738281 6.851562 4.867188 C 6.761719 4.996094 6.804688 5.160156 6.949219 5.226562 C 6.996094 5.25 7.089844 5.246094 7.136719 5.222656 Z M 9.230469 5.523438 C 8.976562 5.460938 8.808594 5.246094 8.808594 4.980469 C 8.808594 4.742188 9 4.507812 9.230469 4.460938 C 9.527344 4.398438 9.808594 4.574219 9.886719 4.867188 C 9.949219 5.128906 9.789062 5.421875 9.527344 5.511719 C 9.453125 5.539062 9.304688 5.546875 9.230469 5.523438 Z M 9.519531 5.074219 C 9.578125 5.058594 9.660156 4.976562 9.675781 4.921875 C 9.6875 4.871094 9.683594 4.789062 9.660156 4.746094 C 9.640625 4.710938 9.589844 4.660156 9.554688 4.640625 C 9.511719 4.617188 9.429688 4.613281 9.382812 4.628906 C 9.320312 4.644531 9.25 4.714844 9.226562 4.78125 C 9.191406 4.894531 9.242188 5.011719 9.355469 5.066406 C 9.410156 5.089844 9.460938 5.09375 9.519531 5.074219 Z M 9.519531 5.074219 "/>
</g>
</svg>
