
<svg xmlns="http://www.w3.org/2000/svg" xmlns:xlink="http://www.w3.org/1999/xlink" width="16px" height="16px" viewBox="0 0 16 16" version="1.1">
<g id="surface1">
<path style=" stroke:none;fill-rule:nonzero;fill:#ff6666;fill-opacity:1;" d="M 15.898438 4.28125 L 11.722656 0.101562 C 11.65625 0.0351562 11.570312 0 11.480469 0 C 11.386719 0 11.300781 0.0351562 11.238281 0.101562 L 9.996094 1.339844 L 11.316406 2.65625 L 10.835938 3.140625 L 9.515625 1.820312 L 8.632812 2.707031 L 10.976562 5.050781 L 10.492188 5.53125 L 8.148438 3.1875 L 7.265625 4.070312 L 8.585938 5.390625 L 8.101562 5.875 L 6.78125 4.554688 L 5.898438 5.4375 L 8.242188 7.78125 L 7.757812 8.265625 L 5.414062 5.921875 L 4.53125 6.804688 L 5.851562 8.125 L 5.367188 8.605469 L 4.050781 7.289062 L 3.164062 8.171875 L 5.507812 10.515625 L 5.023438 11 L 2.683594 8.65625 L 1.796875 9.539062 L 3.117188 10.855469 L 2.632812 11.339844 L 1.316406 10.023438 L 0.101562 11.238281 C 0.0351562 11.300781 0 11.386719 0 11.480469 C 0 11.570312 0.0351562 11.65625 0.101562 11.71875 L 4.28125 15.898438 C 4.34375 15.964844 4.429688 16 4.523438 16 C 4.613281 16 4.699219 15.964844 4.761719 15.898438 L 15.898438 4.761719 C 16.03125 4.628906 16.03125 4.414062 15.898438 4.28125 Z M 15.898438 4.28125 "/>
</g>
</svg>
