
<svg xmlns="http://www.w3.org/2000/svg" xmlns:xlink="http://www.w3.org/1999/xlink" width="16px" height="16px" viewBox="0 0 16 16" version="1.1">
<g id="surface1">
<path style=" stroke:none;fill-rule:nonzero;fill:#ff6666;fill-opacity:1;" d="M 4.113281 0 L 4.113281 1.371094 L 4.570312 1.371094 L 4.570312 2.285156 L 3.65625 2.285156 L 3.65625 3.664062 L 4.570312 3.664062 L 4.570312 7.769531 L 1.367188 7.769531 L 1.367188 8.226562 L 4.570312 8.226562 L 4.570312 11.878906 L 3.65625 11.878906 L 3.65625 13.257812 L 4.570312 13.257812 L 4.570312 14.167969 L 5.03125 14.167969 L 5.03125 13.257812 L 9.144531 13.257812 C 12.183594 13.257812 14.628906 10.8125 14.628906 7.773438 C 14.628906 4.730469 12.183594 2.285156 9.144531 2.285156 L 5.03125 2.285156 L 5.03125 1.371094 L 5.484375 1.371094 L 5.484375 0 Z M 5.03125 3.664062 L 9.144531 3.664062 C 11.445312 3.664062 13.25 5.472656 13.25 7.773438 C 13.25 10.070312 11.445312 11.878906 9.144531 11.878906 L 5.03125 11.878906 L 5.03125 8.226562 L 6.402344 8.226562 L 5.484375 10.058594 L 10.058594 10.058594 L 9.144531 8.226562 L 10.515625 8.226562 L 10.515625 7.769531 L 8.914062 7.769531 L 7.773438 5.484375 L 6.632812 7.769531 L 5.03125 7.769531 Z M 10.515625 7.085938 L 10.515625 8.914062 L 12.34375 8 Z M 3.886719 14.171875 L 4.800781 16 L 5.714844 14.171875 Z M 3.886719 14.171875 "/>
</g>
</svg>
