
<svg xmlns="http://www.w3.org/2000/svg" xmlns:xlink="http://www.w3.org/1999/xlink" width="16px" height="16px" viewBox="0 0 16 16" version="1.1">
<g id="surface1">
<path style=" stroke:none;fill-rule:evenodd;fill:#ff6666;fill-opacity:1;" d="M 1.425781 0.304688 C 1.804688 0.570312 2.457031 0.96875 2.917969 1.332031 C 3.273438 1.660156 3.328125 1.824219 3.328125 2.351562 L 3.328125 8.414062 C 3.328125 10.027344 3.519531 11.199219 2.976562 12.421875 C 2.378906 13.769531 1.113281 14.183594 0.238281 15.378906 C -0.59375 16.410156 1.03125 15.917969 1.671875 15.597656 C 3.039062 14.902344 4.128906 14.515625 5.769531 14.335938 C 7.835938 14.296875 9.140625 14.386719 11.019531 14.34375 C 14.417969 14.34375 15.992188 11.027344 15.992188 6.75 C 15.992188 3.148438 14.417969 0 10.699219 0.015625 C 7.519531 0.00390625 2.871094 0 1.402344 0 C 0.980469 0 1.160156 0.117188 1.425781 0.304688 Z M 6.726562 2.203125 C 7.925781 2.207031 10.378906 2.242188 10.859375 2.476562 C 12.964844 3.65625 13.277344 5.070312 13.234375 7.089844 C 13.292969 8.914062 12.621094 10.882812 10.859375 11.816406 C 10.21875 12.128906 6.175781 12.128906 6.175781 12.128906 L 6.070312 2.207031 C 6.070312 2.207031 6.328125 2.203125 6.726562 2.203125 Z M 6.726562 2.203125 "/>
</g>
</svg>
