
<svg xmlns="http://www.w3.org/2000/svg" xmlns:xlink="http://www.w3.org/1999/xlink" width="16px" height="16px" viewBox="0 0 16 16" version="1.1">
<g id="surface1">
<path style=" stroke:none;fill-rule:nonzero;fill:#ff6666;fill-opacity:1;" d="M 3.476562 0 C 2.328125 0 1.390625 0.9375 1.390625 2.085938 L 1.390625 14.058594 C 1.390625 15.128906 2.328125 16 3.476562 16 L 14.609375 16 L 14.609375 15.304688 L 3.476562 15.304688 C 2.722656 15.304688 2.085938 14.734375 2.085938 14.058594 C 2.085938 13.394531 2.699219 12.871094 3.476562 12.871094 L 14.609375 12.871094 L 14.609375 0 Z M 6.011719 3.824219 L 6.855469 3.824219 L 8.695312 9.191406 L 8.695312 9.390625 L 8 9.390625 L 8 9.304688 L 7.671875 8.347656 L 5.195312 8.347656 L 4.871094 9.304688 L 4.871094 9.390625 L 4.175781 9.390625 L 4.175781 9.191406 Z M 6.433594 4.738281 L 5.4375 7.652344 L 7.433594 7.652344 Z M 10.433594 5.21875 C 11.058594 5.21875 11.476562 5.707031 11.476562 6.433594 L 11.476562 8.347656 C 11.476562 8.539062 11.636719 8.695312 11.824219 8.695312 L 11.824219 9.390625 C 11.558594 9.390625 11.316406 9.285156 11.128906 9.121094 C 10.945312 9.285156 10.703125 9.390625 10.433594 9.390625 L 10.085938 9.390625 C 9.511719 9.390625 9.042969 8.921875 9.042969 8.347656 L 9.042969 7.652344 C 9.042969 7.078125 9.511719 6.609375 10.085938 6.609375 L 10.433594 6.609375 C 10.558594 6.609375 10.675781 6.632812 10.78125 6.671875 L 10.78125 6.433594 C 10.78125 6.195312 10.722656 5.914062 10.433594 5.914062 C 10.265625 5.914062 10.085938 5.953125 10.085938 6.261719 L 9.390625 6.261719 C 9.390625 5.636719 9.8125 5.21875 10.433594 5.21875 Z M 10.085938 7.304688 C 9.894531 7.304688 9.738281 7.460938 9.738281 7.652344 L 9.738281 8.347656 C 9.738281 8.539062 9.894531 8.695312 10.085938 8.695312 L 10.433594 8.695312 C 10.625 8.695312 10.78125 8.539062 10.78125 8.347656 L 10.78125 7.652344 C 10.78125 7.460938 10.625 7.304688 10.433594 7.304688 Z M 10.085938 7.304688 "/>
</g>
</svg>
