
<svg xmlns="http://www.w3.org/2000/svg" xmlns:xlink="http://www.w3.org/1999/xlink" width="16px" height="16px" viewBox="0 0 16 16" version="1.1">
<g id="surface1">
<path style=" stroke:none;fill-rule:nonzero;fill:#ff6666;fill-opacity:1;" d="M 0 0 L 0 1.332031 L 8 1.332031 L 8 4 L 6.667969 4 L 6.667969 10.667969 L 0 10.667969 L 0 12 L 6.667969 12 L 6.667969 16 L 16 16 L 16 14.667969 L 8 14.667969 L 8 5.332031 L 16 5.332031 L 16 4 L 9.332031 4 L 9.332031 0 Z M 3.480469 3.1875 L 2.519531 4.148438 L 3.710938 5.332031 L 0 5.332031 L 0 6.667969 L 3.710938 6.667969 L 2.519531 7.855469 L 3.480469 8.8125 L 5.8125 6.480469 L 6.269531 6 L 5.8125 5.519531 Z M 12.519531 7.332031 L 9.730469 10.125 L 10.1875 10.605469 L 12.519531 12.9375 L 13.480469 12 L 12.167969 10.667969 L 16 10.667969 L 16 9.332031 L 12.417969 9.332031 L 13.480469 8.269531 Z M 12.519531 7.332031 "/>
</g>
</svg>
