
<svg xmlns="http://www.w3.org/2000/svg" xmlns:xlink="http://www.w3.org/1999/xlink" width="16px" height="16px" viewBox="0 0 16 16" version="1.1">
<g id="surface1">
<path style=" stroke:none;fill-rule:evenodd;fill:#ff6666;fill-opacity:1;" d="M 6.121094 3.179688 L 7.800781 3.179688 C 8.296875 3.179688 8.769531 3.375 9.117188 3.726562 C 9.46875 4.074219 9.664062 4.550781 9.664062 5.046875 C 9.664062 5.539062 9.46875 6.015625 9.117188 6.363281 C 8.769531 6.714844 8.296875 6.910156 7.800781 6.910156 L 6.121094 6.910156 C 6.019531 6.910156 5.933594 6.828125 5.933594 6.722656 L 5.933594 3.367188 C 5.933594 3.261719 6.019531 3.179688 6.121094 3.179688 Z M 3.882812 0.691406 C 3.640625 0.691406 3.445312 0.886719 3.445312 1.125 L 3.445312 8.964844 C 3.445312 9.207031 3.640625 9.398438 3.882812 9.398438 L 7.800781 9.398438 C 10.203125 9.398438 12.152344 7.449219 12.152344 5.046875 C 12.152344 2.640625 10.203125 0.691406 7.800781 0.691406 Z M 0.386719 12.480469 L 0.386719 13.921875 L 1.429688 13.921875 C 1.710938 13.921875 1.917969 13.851562 2.046875 13.714844 C 2.179688 13.578125 2.242188 13.40625 2.242188 13.210938 C 2.242188 13.019531 2.179688 12.851562 2.054688 12.703125 C 1.925781 12.554688 1.71875 12.480469 1.429688 12.480469 Z M 4.21875 14.65625 L 5.492188 14.65625 L 4.964844 13.109375 C 4.90625 12.945312 4.867188 12.828125 4.851562 12.761719 L 4.808594 12.90625 C 4.78125 13.003906 4.761719 13.074219 4.746094 13.109375 Z M 9.570312 16 L 7.269531 16 L 7.269531 12.132812 L 7.65625 12.132812 L 7.65625 15.628906 L 9.570312 15.628906 Z M 12.652344 16 L 10.347656 16 L 10.347656 12.132812 L 10.734375 12.132812 L 10.734375 15.628906 L 12.652344 15.628906 Z M 14.746094 16 L 14.359375 16 L 14.359375 14.480469 L 13.09375 12.132812 L 13.519531 12.132812 L 14.546875 14.121094 L 15.601562 12.132812 L 16 12.132812 L 14.746094 14.464844 Z M 0.386719 16 L 0 16 L 0 12.132812 L 1.421875 12.132812 C 1.839844 12.132812 2.144531 12.234375 2.332031 12.4375 C 2.519531 12.644531 2.613281 12.894531 2.613281 13.191406 C 2.613281 13.453125 2.535156 13.683594 2.382812 13.878906 C 2.226562 14.078125 1.984375 14.203125 1.65625 14.253906 L 2.515625 16 L 2.089844 16 L 1.261719 14.269531 L 0.386719 14.269531 Z M 6.355469 16 L 5.964844 16 L 5.609375 15 L 4.101562 15 L 3.765625 16 L 3.359375 16 L 4.703125 12.132812 L 5.003906 12.132812 Z M 6.355469 16 "/>
</g>
</svg>
