
<svg xmlns="http://www.w3.org/2000/svg" xmlns:xlink="http://www.w3.org/1999/xlink" width="16px" height="16px" viewBox="0 0 16 16" version="1.1">
<g id="surface1">
<path style=" stroke:none;fill-rule:nonzero;fill:#ff6666;fill-opacity:1;" d="M 5.792969 2.289062 C 5.578125 2.289062 3.824219 2.339844 1.972656 3.714844 C 1.972656 3.714844 0 7.265625 0 11.640625 C 0 11.640625 1.152344 13.613281 4.183594 13.710938 C 4.183594 13.710938 4.6875 13.105469 5.101562 12.585938 C 3.359375 12.066406 2.699219 10.980469 2.699219 10.980469 C 2.699219 10.980469 2.839844 11.078125 3.085938 11.214844 C 3.097656 11.214844 3.113281 11.230469 3.140625 11.242188 C 3.179688 11.273438 3.222656 11.285156 3.261719 11.3125 C 3.605469 11.503906 3.949219 11.65625 4.265625 11.777344 C 4.824219 12.011719 5.496094 12.214844 6.28125 12.367188 C 7.308594 12.558594 8.515625 12.628906 9.832031 12.382812 C 10.476562 12.261719 11.132812 12.082031 11.816406 11.792969 C 12.296875 11.617188 12.832031 11.355469 13.394531 10.984375 C 13.394531 10.984375 12.710938 12.097656 10.914062 12.601562 C 11.324219 13.109375 11.816406 13.699219 11.816406 13.699219 C 14.847656 13.605469 16 11.628906 16 11.644531 C 16 7.269531 14.027344 3.71875 14.027344 3.71875 C 12.066406 2.25 10.1875 2.292969 10.1875 2.292969 L 9.996094 2.511719 C 12.324219 3.210938 13.410156 4.238281 13.410156 4.238281 C 11.984375 3.472656 10.585938 3.085938 9.28125 2.9375 C 8.292969 2.828125 7.347656 2.855469 6.511719 2.964844 C 6.429688 2.964844 6.363281 2.980469 6.28125 2.992188 C 5.800781 3.046875 4.632812 3.210938 3.167969 3.855469 C 2.660156 4.078125 2.359375 4.242188 2.359375 4.242188 C 2.359375 4.242188 3.480469 3.15625 5.949219 2.457031 L 5.8125 2.292969 C 5.8125 2.292969 5.804688 2.292969 5.792969 2.292969 Z M 5.441406 7.347656 C 6.222656 7.347656 6.855469 8.019531 6.839844 8.855469 C 6.839844 9.691406 6.222656 10.363281 5.441406 10.363281 C 4.675781 10.363281 4.042969 9.691406 4.042969 8.855469 C 4.042969 8.019531 4.660156 7.347656 5.441406 7.347656 Z M 10.449219 7.347656 C 11.214844 7.347656 11.847656 8.019531 11.847656 8.855469 C 11.847656 9.691406 11.230469 10.363281 10.449219 10.363281 C 9.679688 10.363281 9.046875 9.691406 9.046875 8.855469 C 9.046875 8.019531 9.664062 7.347656 10.449219 7.347656 Z M 10.449219 7.347656 "/>
</g>
</svg>
