
<svg xmlns="http://www.w3.org/2000/svg" xmlns:xlink="http://www.w3.org/1999/xlink" width="16px" height="16px" viewBox="0 0 16 16" version="1.1">
<g id="surface1">
<path style=" stroke:none;fill-rule:evenodd;fill:#ff6666;fill-opacity:1;" d="M 8.261719 13.925781 C 6.441406 14.246094 4.558594 13.40625 3.601562 11.75 C 2.472656 9.796875 2.972656 7.300781 4.761719 5.929688 C 5.65625 5.242188 6.738281 4.941406 7.796875 5.011719 C 8.851562 5.082031 9.886719 5.519531 10.683594 6.320312 L 11.035156 6.671875 L 9.652344 8.054688 L 8.945312 7.347656 L 9.589844 6.703125 C 8.351562 5.777344 6.628906 5.753906 5.367188 6.722656 C 3.972656 7.796875 3.589844 9.726562 4.46875 11.25 C 5.199219 12.515625 6.609375 13.167969 7.996094 12.960938 C 8.039062 13.300781 8.128906 13.625 8.261719 13.925781 Z M 13 7.816406 L 13 3 C 13 2.40625 12.9375 1.992188 12.839844 1.734375 C 12.742188 1.476562 12.636719 1.363281 12.453125 1.261719 C 12.085938 1.058594 11.257812 1.015625 10 1 L 5 1 C 3.742188 1.015625 2.910156 1.058594 2.546875 1.261719 C 2.363281 1.363281 2.257812 1.476562 2.160156 1.734375 C 2.0625 1.992188 2 2.40625 2 3 L 2 13 C 2 13.59375 2.0625 14.007812 2.160156 14.265625 C 2.257812 14.527344 2.363281 14.636719 2.546875 14.738281 C 2.910156 14.941406 3.742188 14.984375 5 15 L 8.851562 15 C 9.148438 15.386719 9.503906 15.726562 9.902344 16 L 4.992188 16 C 3.734375 15.984375 2.816406 16.03125 2.0625 15.613281 C 1.6875 15.40625 1.390625 15.054688 1.226562 14.617188 C 1.058594 14.179688 1 13.65625 1 13 L 1 3 C 1 2.34375 1.058594 1.820312 1.226562 1.382812 C 1.390625 0.945312 1.6875 0.59375 2.0625 0.386719 C 2.816406 -0.03125 3.734375 0.015625 4.992188 0 L 10.007812 0 C 11.265625 0.015625 12.183594 -0.03125 12.9375 0.386719 C 13.3125 0.59375 13.609375 0.945312 13.773438 1.382812 C 13.941406 1.820312 14 2.34375 14 3 L 14 8.058594 C 13.683594 7.941406 13.347656 7.859375 13 7.816406 Z M 7.5 9 C 7.777344 9 8 9.222656 8 9.5 C 8 9.777344 7.777344 10 7.5 10 C 7.222656 10 7 9.777344 7 9.5 C 7 9.222656 7.222656 9 7.5 9 Z M 8.183594 10.820312 C 7.984375 10.9375 7.75 11 7.5 11 C 6.671875 11 6 10.328125 6 9.5 C 6 8.671875 6.671875 8 7.5 8 C 8.289062 8 8.9375 8.609375 8.992188 9.382812 C 8.640625 9.804688 8.363281 10.289062 8.183594 10.820312 Z M 12.347656 11.257812 C 12.625 11.257812 12.894531 11.371094 13.089844 11.566406 C 13.289062 11.765625 13.398438 12.03125 13.398438 12.3125 C 13.398438 12.59375 13.289062 12.859375 13.089844 13.058594 C 12.894531 13.257812 12.625 13.367188 12.347656 13.367188 C 12.066406 13.367188 11.796875 13.257812 11.601562 13.058594 C 11.402344 12.859375 11.292969 12.59375 11.292969 12.3125 C 11.292969 12.03125 11.402344 11.765625 11.601562 11.566406 C 11.796875 11.371094 12.066406 11.257812 12.347656 11.257812 Z M 11.425781 8.625 L 11.34375 9.597656 C 11.035156 9.710938 10.746094 9.875 10.496094 10.085938 L 9.613281 9.671875 L 8.691406 11.265625 L 9.492188 11.824219 C 9.464844 11.984375 9.449219 12.148438 9.449219 12.3125 C 9.449219 12.476562 9.460938 12.640625 9.488281 12.804688 L 8.691406 13.359375 L 9.613281 14.953125 L 10.492188 14.539062 C 10.746094 14.75 11.035156 14.914062 11.34375 15.027344 L 11.425781 16 L 13.265625 16 L 13.347656 15.027344 C 13.65625 14.914062 13.941406 14.75 14.195312 14.539062 L 15.078125 14.953125 L 16 13.359375 L 15.199219 12.800781 C 15.226562 12.640625 15.242188 12.476562 15.242188 12.3125 C 15.242188 12.148438 15.230469 11.984375 15.199219 11.820312 L 16 11.265625 L 15.078125 9.671875 L 14.195312 10.085938 C 13.945312 9.875 13.65625 9.710938 13.347656 9.597656 L 13.265625 8.625 Z M 11.425781 8.625 "/>
</g>
</svg>
