
<svg xmlns="http://www.w3.org/2000/svg" xmlns:xlink="http://www.w3.org/1999/xlink" width="16px" height="16px" viewBox="0 0 16 16" version="1.1">
<g id="surface1">
<path style=" stroke:none;fill-rule:nonzero;fill:#ff6666;fill-opacity:1;" d="M 10.359375 0.0625 L 9.664062 0.359375 C 5.183594 2.277344 2.5 6.671875 2.5 9.992188 C 2.5 12.804688 4.371094 15.078125 6.855469 15.71875 C 7.25 15.820312 7.617188 15.984375 8.039062 15.996094 L 8.058594 14.996094 C 6.945312 14.972656 6.023438 14 6.023438 12.75 C 6.023438 11.652344 7.058594 10.027344 8.617188 9.0625 C 8.808594 10.214844 9.21875 11.113281 9.617188 11.707031 C 9.875 12.085938 10.082031 12.394531 10.183594 12.660156 C 10.285156 12.929688 10.3125 13.152344 10.195312 13.511719 C 9.914062 14.394531 9.339844 14.992188 8.117188 15 L 8.117188 16 C 8.105469 15.996094 8.128906 15.996094 8.125 16 C 8.09375 16 8.082031 16 8.148438 16 C 11.175781 16 13.050781 14.222656 13.769531 11.984375 C 14.09375 10.972656 14.019531 10.078125 13.71875 9.289062 C 13.421875 8.503906 12.929688 7.824219 12.433594 7.082031 C 11.433594 5.601562 10.359375 3.910156 10.359375 0.820312 Z M 9.507812 1.625 C 9.710938 4.394531 10.691406 6.285156 11.605469 7.640625 C 12.109375 8.390625 12.550781 9.027344 12.785156 9.648438 C 13.019531 10.265625 13.082031 10.859375 12.816406 11.675781 C 12.460938 12.792969 11.800781 13.683594 10.832031 14.277344 C 10.917969 14.109375 11.089844 13.996094 11.148438 13.816406 C 11.324219 13.265625 11.285156 12.742188 11.121094 12.308594 C 10.953125 11.871094 10.695312 11.519531 10.449219 11.152344 C 9.953125 10.414062 9.453125 9.644531 9.453125 8.160156 L 9.453125 7.402344 L 8.757812 7.699219 C 6.421875 8.699219 5.023438 10.945312 5.023438 12.75 C 5.023438 13.234375 5.324219 13.585938 5.507812 14.003906 C 4.328125 13.101562 3.5 11.691406 3.5 9.992188 C 3.5 7.375 5.773438 3.511719 9.507812 1.625 Z M 9.507812 1.625 "/>
</g>
</svg>
