
<svg xmlns="http://www.w3.org/2000/svg" xmlns:xlink="http://www.w3.org/1999/xlink" width="16px" height="16px" viewBox="0 0 16 16" version="1.1">
<g id="surface1">
<path style=" stroke:none;fill-rule:evenodd;fill:#ff6666;fill-opacity:1;" d="M 8 0 C 6.3125 0.00390625 4.667969 0.539062 3.300781 1.535156 L 5.097656 3.332031 C 5.96875 2.789062 6.972656 2.5 8 2.5 C 9.457031 2.5 10.859375 3.078125 11.890625 4.109375 C 12.921875 5.140625 13.5 6.542969 13.5 8 C 13.496094 9.023438 13.207031 10.027344 12.664062 10.898438 L 14.464844 12.695312 C 15.457031 11.332031 15.996094 9.6875 16 8 C 16 6.949219 15.792969 5.910156 15.390625 4.9375 C 14.988281 3.96875 14.398438 3.085938 13.65625 2.34375 C 12.914062 1.601562 12.03125 1.011719 11.0625 0.609375 C 10.089844 0.207031 9.050781 0 8 0 Z M 1.535156 3.304688 C 0.542969 4.667969 0.00390625 6.3125 0 8 C 0 9.050781 0.207031 10.089844 0.609375 11.0625 C 1.011719 12.03125 1.601562 12.914062 2.34375 13.65625 C 3.085938 14.398438 3.96875 14.988281 4.9375 15.390625 C 5.910156 15.792969 6.949219 16 8 16 C 9.6875 15.996094 11.332031 15.460938 12.699219 14.464844 L 10.902344 12.667969 C 10.03125 13.210938 9.027344 13.5 8 13.5 C 6.542969 13.5 5.140625 12.921875 4.109375 11.890625 C 3.078125 10.859375 2.5 9.457031 2.5 8 C 2.503906 6.976562 2.792969 5.972656 3.335938 5.101562 Z M 10.910156 8 C 10.910156 9.605469 9.605469 10.910156 8 10.910156 C 6.394531 10.910156 5.089844 9.605469 5.089844 8 C 5.089844 6.394531 6.394531 5.089844 8 5.089844 C 9.605469 5.089844 10.910156 6.394531 10.910156 8 Z M 10.910156 8 "/>
</g>
</svg>
