
<svg xmlns="http://www.w3.org/2000/svg" xmlns:xlink="http://www.w3.org/1999/xlink" width="16px" height="16px" viewBox="0 0 16 16" version="1.1">
<g id="surface1">
<path style=" stroke:none;fill-rule:nonzero;fill:#ff6666;fill-opacity:1;" d="M 8 0 C 3.585938 0 0 3.585938 0 8 C 0 11.429688 2.167969 14.355469 5.207031 15.488281 C 5.222656 15.496094 5.234375 15.503906 5.25 15.511719 C 5.496094 15.601562 5.746094 15.683594 6 15.75 C 6.003906 15.75 6.007812 15.75 6.011719 15.75 C 6.136719 15.78125 6.265625 15.8125 6.390625 15.835938 C 6.414062 15.839844 6.433594 15.84375 6.457031 15.847656 C 6.601562 15.878906 6.746094 15.902344 6.890625 15.925781 C 6.964844 15.933594 7.042969 15.9375 7.121094 15.945312 C 7.140625 15.949219 7.164062 15.953125 7.183594 15.957031 C 7.277344 15.964844 7.363281 15.972656 7.457031 15.976562 C 7.636719 15.992188 7.816406 16 8 16 C 8.136719 16 8.277344 15.996094 8.414062 15.988281 C 8.574219 15.980469 8.726562 15.960938 8.878906 15.945312 C 8.957031 15.9375 9.035156 15.933594 9.109375 15.925781 C 9.253906 15.902344 9.398438 15.878906 9.542969 15.847656 C 9.703125 15.816406 9.851562 15.789062 10 15.75 C 10.253906 15.683594 10.503906 15.601562 10.75 15.511719 C 10.765625 15.503906 10.777344 15.496094 10.792969 15.488281 C 13.832031 14.355469 16 11.429688 16 8 C 16 3.585938 12.414062 0 8 0 Z M 8 0.695312 C 12.039062 0.695312 15.304688 3.960938 15.304688 8 C 15.304688 10.238281 14.304688 12.246094 12.71875 13.585938 C 12.605469 13.320312 12.414062 12.953125 12.109375 12.585938 C 11.136719 13.105469 9.785156 13.566406 8 13.566406 C 6.214844 13.566406 4.863281 13.105469 3.890625 12.585938 C 3.640625 12.890625 3.433594 13.226562 3.28125 13.585938 C 1.636719 12.199219 0.691406 10.152344 0.695312 8 C 0.695312 3.960938 3.960938 0.695312 8 0.695312 Z M 4.554688 3.023438 L 4.316406 3.195312 C 3.308594 4.003906 2.949219 5.378906 3.433594 6.574219 C 3.167969 7.046875 2.449219 8.488281 2.433594 10.414062 L 2.433594 10.53125 L 2.5 10.632812 C 2.566406 10.722656 4.21875 12.871094 8 12.871094 C 11.78125 12.871094 13.433594 10.722656 13.5 10.628906 L 13.566406 10.53125 L 13.566406 10.414062 C 13.550781 8.488281 12.832031 7.046875 12.566406 6.574219 C 13.050781 5.378906 12.691406 4.003906 11.683594 3.195312 L 11.445312 3.023438 L 10 4.46875 C 9.660156 4.355469 8.964844 4.175781 8 4.175781 C 7.035156 4.175781 6.339844 4.355469 6 4.46875 Z M 6.261719 7.304688 C 6.632812 7.304688 6.976562 7.503906 7.164062 7.828125 C 7.351562 8.148438 7.351562 8.546875 7.164062 8.871094 C 6.976562 9.191406 6.632812 9.390625 6.261719 9.390625 C 5.683594 9.390625 5.21875 8.925781 5.21875 8.347656 C 5.21875 7.769531 5.683594 7.304688 6.261719 7.304688 Z M 9.738281 7.304688 C 10.113281 7.304688 10.457031 7.503906 10.644531 7.828125 C 10.828125 8.148438 10.828125 8.546875 10.644531 8.871094 C 10.457031 9.191406 10.109375 9.390625 9.738281 9.390625 C 9.160156 9.390625 8.695312 8.925781 8.695312 8.347656 C 8.695312 7.769531 9.164062 7.304688 9.738281 7.304688 Z M 7.128906 10.085938 L 8.871094 10.085938 L 8 10.957031 Z M 7.128906 10.085938 "/>
</g>
</svg>
