
<svg xmlns="http://www.w3.org/2000/svg" xmlns:xlink="http://www.w3.org/1999/xlink" width="16px" height="16px" viewBox="0 0 16 16" version="1.1">
<g id="surface1">
<path style=" stroke:none;fill-rule:evenodd;fill:#ff6666;fill-opacity:1;" d="M 6.824219 11.863281 C 6.824219 11.96875 6.820312 12.121094 6.796875 12.230469 C 6.519531 12.253906 6.277344 12.277344 6.175781 12.304688 C 5.875 12.386719 5.492188 12.324219 5.492188 12.96875 C 5.492188 13.613281 5.453125 14.738281 5.453125 14.980469 C 5.453125 15.222656 5.332031 15.441406 5.652344 15.601562 C 5.976562 15.765625 6.914062 16 8 16 C 9.085938 16 10.023438 15.765625 10.347656 15.601562 C 10.667969 15.441406 10.546875 15.222656 10.546875 14.980469 C 10.546875 14.738281 10.507812 13.613281 10.507812 12.96875 C 10.507812 12.324219 10.125 12.386719 9.824219 12.304688 C 9.722656 12.277344 9.476562 12.25 9.195312 12.230469 C 9.175781 12.121094 9.171875 11.96875 9.171875 11.863281 C 9.386719 11.859375 9.597656 11.855469 9.769531 11.847656 C 10.414062 11.820312 10.253906 11.5 10.332031 11.152344 C 10.414062 10.800781 10.519531 10.640625 10.789062 10.535156 C 11.058594 10.425781 12.34375 9.78125 12.933594 9.085938 C 13.523438 8.390625 14.007812 5.386719 14.113281 3.992188 C 14.222656 2.597656 13.660156 1.253906 13.097656 0.609375 C 12.53125 -0.03125 11.40625 -0.03125 10.871094 0.0195312 C 10.332031 0.0742188 8.429688 0.34375 8 0.34375 C 7.570312 0.34375 5.667969 0.0742188 5.128906 0.0195312 C 4.59375 -0.03125 3.46875 -0.03125 2.90625 0.609375 C 2.339844 1.253906 1.777344 2.597656 1.886719 3.992188 C 1.992188 5.386719 2.476562 8.386719 3.066406 9.085938 C 3.65625 9.78125 4.941406 10.425781 5.210938 10.535156 C 5.480469 10.640625 5.585938 10.800781 5.667969 11.152344 C 5.746094 11.5 5.585938 11.820312 6.230469 11.847656 C 6.402344 11.855469 6.609375 11.859375 6.824219 11.863281 Z M 6.464844 7.386719 C 5.554688 8.378906 4.851562 8.503906 4.367188 8.320312 C 3.117188 7.902344 3.035156 6.886719 2.621094 4.621094 C 2.203125 2.359375 4.683594 3.863281 5.316406 4.105469 C 8.078125 5.171875 6.699219 7.121094 6.464844 7.386719 Z M 13.292969 4.621094 C 12.878906 6.886719 12.792969 7.902344 11.546875 8.320312 C 11.0625 8.503906 10.355469 8.378906 9.445312 7.386719 C 9.214844 7.121094 7.832031 5.171875 10.597656 4.105469 C 11.226562 3.863281 13.710938 2.359375 13.292969 4.621094 Z M 13.292969 4.621094 "/>
</g>
</svg>
