
<svg xmlns="http://www.w3.org/2000/svg" xmlns:xlink="http://www.w3.org/1999/xlink" width="16px" height="16px" viewBox="0 0 16 16" version="1.1">
<g id="surface1">
<path style=" stroke:none;fill-rule:evenodd;fill:#ff6666;fill-opacity:1;" d="M 12.519531 2.820312 C 12.519531 4.070312 11.488281 5.082031 10.21875 5.082031 C 9.890625 5.082031 9.578125 5.011719 9.296875 4.890625 C 8.488281 4.542969 8.921875 3.921875 8.921875 2.996094 C 8.921875 2.5625 8.042969 1.984375 8.261719 1.640625 C 8.664062 0.992188 9.390625 0.5625 10.21875 0.5625 C 11.488281 0.5625 12.519531 1.574219 12.519531 2.820312 Z M 12.515625 0.847656 C 12.515625 0.378906 12.898438 0 13.363281 0 C 13.832031 0 14.210938 0.378906 14.210938 0.847656 C 14.210938 1.3125 13.832031 1.691406 13.363281 1.691406 C 12.898438 1.691406 12.515625 1.3125 12.515625 0.847656 Z M 12.515625 0.847656 "/>
<path style=" stroke:none;fill-rule:evenodd;fill:#ff6666;fill-opacity:1;" d="M 16 12.027344 C 15.808594 15.464844 14.761719 16 10.488281 16 L 5.546875 16 C 0.695312 16 0 15.308594 0 10.457031 L 0 9.253906 C 6.289062 9.503906 11.625 10.429688 16 12.027344 Z M 3.765625 1.976562 L 5.910156 1.976562 C 7.433594 1.976562 8.28125 2.746094 8.28125 4.234375 C 8.28125 5.722656 7.433594 6.492188 5.910156 6.492188 L 3.765625 6.492188 Z M 2.175781 0 C 1.960938 0 1.789062 0.171875 1.789062 0.382812 L 1.789062 8.085938 C 1.789062 8.296875 1.960938 8.46875 2.175781 8.46875 L 6.132812 8.46875 C 6.140625 8.46875 6.148438 8.464844 6.15625 8.460938 C 8.441406 8.390625 10.257812 6.519531 10.257812 4.234375 C 10.257812 1.945312 8.4375 0.0703125 6.148438 0.00390625 C 6.144531 0.00390625 6.140625 0 6.132812 0 Z M 2.175781 0 "/>
</g>
</svg>
