
<svg xmlns="http://www.w3.org/2000/svg" xmlns:xlink="http://www.w3.org/1999/xlink" width="16px" height="16px" viewBox="0 0 16 16" version="1.1">
<g id="surface1">
<path style=" stroke:none;fill-rule:nonzero;fill:#ff6666;fill-opacity:1;" d="M 8 0 C 7.011719 0 6.210938 0.796875 6.210938 1.777344 C 6.210938 2.539062 6.898438 3.167969 7.578125 3.421875 C 7.578125 3.542969 7.578125 3.667969 7.578125 3.789062 L 4.410156 3.789062 C 4.296875 3.789062 4.210938 3.875 4.210938 3.988281 L 4.210938 4.433594 C 4.210938 4.542969 4.296875 4.632812 4.410156 4.632812 L 7.578125 4.632812 C 7.59375 7.5 7.597656 10.367188 7.578125 13.234375 C 7.582031 13.304688 7.347656 13.378906 7.289062 13.417969 C 7.125 13.542969 6.9375 13.585938 6.738281 13.589844 C 6.417969 13.589844 6.214844 13.503906 5.910156 13.417969 C 5.21875 13.21875 4.566406 12.9375 3.933594 12.605469 C 3.667969 12.457031 3.40625 12.320312 3.171875 12.128906 C 3.070312 12.042969 2.949219 11.917969 2.960938 11.773438 C 2.976562 11.667969 3.027344 11.558594 3.144531 11.539062 C 3.253906 11.523438 3.351562 11.566406 3.449219 11.605469 C 3.53125 11.640625 3.59375 11.554688 3.578125 11.484375 C 3.566406 11.304688 3.5 11.140625 3.410156 10.984375 C 3.214844 10.667969 2.917969 10.425781 2.605469 10.222656 C 2.273438 10.011719 1.921875 9.78125 1.710938 9.445312 C 1.667969 9.382812 1.621094 9.28125 1.527344 9.316406 C 1.398438 9.355469 1.328125 9.480469 1.265625 9.589844 C 1.085938 9.929688 0.988281 10.296875 0.910156 10.671875 C 0.84375 10.964844 0.832031 11.277344 0.855469 11.578125 C 0.878906 11.878906 0.902344 12.175781 1.027344 12.460938 C 1.105469 12.644531 1.246094 12.800781 1.382812 12.945312 C 1.46875 12.855469 1.542969 12.757812 1.632812 12.671875 C 1.746094 12.554688 1.898438 12.476562 2.066406 12.5 C 2.296875 12.527344 2.503906 12.671875 2.683594 12.800781 C 2.9375 12.996094 3.175781 13.203125 3.433594 13.394531 C 3.84375 13.703125 4.289062 13.925781 4.75 14.144531 C 5.136719 14.320312 5.535156 14.5 5.933594 14.644531 C 6.007812 14.675781 6.085938 14.667969 6.160156 14.695312 C 6.878906 14.992188 7.488281 15.339844 7.988281 15.960938 C 7.988281 15.96875 7.984375 15.992188 7.988281 16 C 7.992188 15.992188 7.996094 15.992188 8 15.984375 C 8.003906 15.992188 8.007812 15.992188 8.011719 16 C 8.015625 15.984375 8.007812 15.964844 8.011719 15.945312 C 8.507812 15.335938 9.125 14.992188 9.84375 14.699219 C 9.914062 14.671875 9.992188 14.675781 10.066406 14.644531 C 10.464844 14.5 10.863281 14.324219 11.25 14.144531 C 11.710938 13.925781 12.15625 13.703125 12.566406 13.394531 C 12.824219 13.203125 13.0625 13 13.316406 12.800781 C 13.496094 12.671875 13.703125 12.527344 13.933594 12.5 C 14.101562 12.480469 14.253906 12.554688 14.367188 12.671875 C 14.457031 12.761719 14.53125 12.855469 14.617188 12.945312 C 14.753906 12.800781 14.894531 12.644531 14.972656 12.460938 C 15.097656 12.179688 15.121094 11.878906 15.144531 11.578125 C 15.167969 11.277344 15.15625 10.96875 15.089844 10.671875 C 15.011719 10.300781 14.914062 9.929688 14.734375 9.59375 C 14.671875 9.484375 14.601562 9.359375 14.472656 9.316406 C 14.378906 9.285156 14.332031 9.386719 14.289062 9.449219 C 14.078125 9.785156 13.726562 10.011719 13.394531 10.222656 C 13.082031 10.425781 12.785156 10.667969 12.589844 10.988281 C 12.5 11.140625 12.433594 11.308594 12.421875 11.488281 C 12.40625 11.554688 12.46875 11.640625 12.550781 11.605469 C 12.648438 11.570312 12.746094 11.523438 12.855469 11.539062 C 12.976562 11.554688 13.023438 11.667969 13.039062 11.777344 C 13.050781 11.917969 12.929688 12.042969 12.828125 12.132812 C 12.59375 12.320312 12.332031 12.457031 12.066406 12.605469 C 11.433594 12.941406 10.78125 13.21875 10.09375 13.421875 C 9.785156 13.503906 9.582031 13.589844 9.261719 13.589844 C 9.0625 13.582031 8.875 13.542969 8.710938 13.421875 C 8.652344 13.378906 8.417969 13.308594 8.421875 13.238281 C 8.421875 7.710938 8.421875 6.578125 8.421875 4.632812 L 11.589844 4.632812 C 11.703125 4.632812 11.789062 4.542969 11.789062 4.433594 L 11.789062 3.988281 C 11.789062 3.878906 11.703125 3.789062 11.589844 3.789062 L 8.421875 3.789062 C 8.421875 3.703125 8.421875 3.515625 8.421875 3.421875 C 9.101562 3.167969 9.789062 2.539062 9.789062 1.777344 C 9.789062 0.796875 8.988281 0 8 0 Z M 7.960938 0.867188 C 8.441406 0.867188 8.84375 1.246094 8.84375 1.722656 C 8.84375 2.199219 8.441406 2.59375 7.960938 2.59375 C 7.480469 2.59375 7.09375 2.199219 7.09375 1.722656 C 7.09375 1.246094 7.480469 0.867188 7.960938 0.867188 Z M 7.960938 0.867188 "/>
</g>
</svg>
