
<svg xmlns="http://www.w3.org/2000/svg" xmlns:xlink="http://www.w3.org/1999/xlink" width="16px" height="16px" viewBox="0 0 16 16" version="1.1">
<g id="surface1">
<path style=" stroke:none;fill-rule:nonzero;fill:#ff6666;fill-opacity:1;" d="M 15.066406 15.898438 C 16.25 8.292969 13.070312 5.808594 13.664062 4.789062 C 14.09375 4.050781 16 4.382812 16 4.382812 C 14.511719 3.136719 13.1875 3.082031 11.910156 3.40625 C 10.355469 1.054688 3.992188 -2.046875 1.382812 2.238281 C 1.382812 2.238281 -0.113281 2.734375 0.0078125 3.28125 C 0.128906 3.820312 2.375 3.027344 5.5625 4.535156 C 5.375 6.734375 6.347656 8.140625 8.144531 8.988281 C 7.652344 8.109375 6.957031 7.300781 7.664062 5.875 C 9.929688 7.359375 11.085938 9.269531 12.0625 11.183594 C 11.84375 9.203125 9.878906 4.285156 3.65625 2.851562 C 8.601562 -1.191406 15.773438 7.789062 15.066406 15.898438 Z M 15.066406 15.898438 "/>
</g>
</svg>
