
<svg xmlns="http://www.w3.org/2000/svg" xmlns:xlink="http://www.w3.org/1999/xlink" width="16px" height="16px" viewBox="0 0 16 16" version="1.1">
<g id="surface1">
<path style=" stroke:none;fill-rule:nonzero;fill:#ff6666;fill-opacity:1;" d="M 16 4.175781 L 15.316406 4.199219 C 14.820312 4.195312 14.257812 4.191406 14.253906 4.195312 L 13.816406 5.484375 C 13.816406 5.484375 13.300781 4.175781 13.199219 4.199219 L 13.113281 4.195312 C 13.070312 4.191406 12.855469 4.191406 12.558594 4.191406 L 12.015625 4.191406 L 12.015625 8.941406 L 11.972656 8.976562 C 11.933594 9.003906 11.929688 9.011719 11.9375 9.019531 L 13.289062 9.992188 L 13.296875 9.046875 C 13.300781 8.175781 13.300781 8.105469 13.3125 8.144531 L 13.816406 9.46875 L 14.269531 8.09375 L 14.273438 9.34375 L 14.277344 10.597656 L 15.546875 11.496094 L 15.550781 8.003906 L 15.554688 4.648438 Z M 4.714844 4.175781 L 4.511719 4.328125 L 4.304688 4.484375 L 4.304688 8.921875 L 6.382812 10.472656 L 7.519531 9.621094 L 7.515625 7.054688 L 7.515625 4.484375 L 7.3125 4.328125 L 7.113281 4.175781 Z M 8.566406 4.175781 L 8.367188 4.328125 L 8.164062 4.484375 L 8.164062 7.054688 L 8.160156 9.621094 L 9.296875 10.472656 L 11.375 8.921875 L 11.371094 6.703125 L 11.371094 4.484375 L 11.167969 4.328125 L 10.964844 4.175781 Z M 0 4.179688 L 0.460938 4.636719 L 0.460938 7.863281 C 0.460938 9.640625 0.464844 11.214844 0.46875 11.363281 L 0.46875 11.367188 C 0.472656 11.558594 0.476562 11.828125 0.480469 11.824219 C 0.503906 11.808594 3.78125 9.152344 3.785156 9.148438 C 3.785156 9.144531 3.765625 9.125 3.738281 9.105469 L 3.6875 9.066406 L 3.6875 4.484375 L 3.492188 4.335938 L 3.296875 4.183594 L 1.671875 4.179688 C 0.605469 4.179688 -0.00390625 4.175781 0 4.179688 Z M 6.324219 5.148438 C 6.378906 5.140625 6.390625 5.144531 6.46875 5.183594 L 6.554688 5.222656 L 6.554688 7.1875 C 6.554688 8.078125 6.550781 9.214844 6.542969 9.214844 L 5.269531 8.257812 L 5.269531 5.222656 L 5.425781 5.152344 L 5.84375 5.152344 C 6.074219 5.152344 6.289062 5.148438 6.324219 5.148438 Z M 9.355469 5.148438 C 9.390625 5.148438 9.605469 5.152344 9.835938 5.152344 L 10.253906 5.152344 L 10.410156 5.222656 L 10.40625 6.890625 L 10.40625 8.257812 L 9.136719 9.214844 C 9.128906 9.214844 9.125 8.078125 9.125 7.1875 L 9.128906 5.222656 L 9.210938 5.183594 C 9.289062 5.144531 9.300781 5.140625 9.355469 5.148438 Z M 2.550781 5.164062 L 2.628906 5.199219 L 2.703125 5.230469 L 2.703125 8.640625 L 1.421875 9.617188 C 1.40625 9.621094 1.402344 7.960938 1.40625 6.648438 L 1.410156 5.167969 L 2.039062 5.164062 Z M 2.550781 5.164062 "/>
</g>
</svg>
