
<svg xmlns="http://www.w3.org/2000/svg" xmlns:xlink="http://www.w3.org/1999/xlink" width="16px" height="16px" viewBox="0 0 16 16" version="1.1">
<g id="surface1">
<path style=" stroke:none;fill-rule:nonzero;fill:#ff6666;fill-opacity:1;" d="M 0 0.800781 L 0 1.601562 L 0.800781 1.601562 L 0.800781 6.398438 L 0 6.398438 L 0 7.199219 L 4 7.199219 L 4 6.398438 L 4.800781 6.398438 L 4.800781 1.601562 L 4 1.601562 L 4 0.800781 Z M 6.398438 0.800781 L 6.398438 1.601562 L 5.601562 1.601562 L 5.601562 6.398438 L 6.398438 6.398438 L 6.398438 7.199219 L 9.601562 7.199219 L 9.601562 6.398438 L 10.398438 6.398438 L 10.398438 1.601562 L 9.601562 1.601562 L 9.601562 0.800781 Z M 12 0.800781 L 12 1.601562 L 11.199219 1.601562 L 11.199219 3.199219 L 12 3.199219 L 12 4 L 13.601562 4 L 13.601562 4.800781 L 14.398438 4.800781 L 14.398438 6.398438 L 12.800781 6.398438 L 12.800781 4.800781 L 11.199219 4.800781 L 11.199219 6.398438 L 12 6.398438 L 12 7.199219 L 15.199219 7.199219 L 15.199219 6.398438 L 16 6.398438 L 16 4.800781 L 15.199219 4.800781 L 15.199219 4 L 14.398438 4 L 14.398438 3.199219 L 12.800781 3.199219 L 12.800781 1.601562 L 14.398438 1.601562 L 14.398438 3.199219 L 16 3.199219 L 16 1.601562 L 15.199219 1.601562 L 15.199219 0.800781 Z M 2.398438 1.601562 L 3.199219 1.601562 L 3.199219 6.398438 L 2.398438 6.398438 Z M 7.199219 1.601562 L 8.800781 1.601562 L 8.800781 6.398438 L 7.199219 6.398438 Z M 0 8.800781 L 0 9.601562 L 0.800781 9.601562 L 0.800781 14.398438 L 0 14.398438 L 0 15.199219 L 4 15.199219 L 4 14.398438 L 4.800781 14.398438 L 4.800781 12 L 4 12 L 4 11.199219 L 4.800781 11.199219 L 4.800781 9.601562 L 4 9.601562 L 4 8.800781 Z M 6.398438 8.800781 L 6.398438 9.601562 L 5.601562 9.601562 L 5.601562 14.398438 L 6.398438 14.398438 L 6.398438 15.199219 L 9.601562 15.199219 L 9.601562 14.398438 L 10.398438 14.398438 L 10.398438 9.601562 L 9.601562 9.601562 L 9.601562 8.800781 Z M 10.398438 8.800781 L 10.398438 9.601562 L 11.199219 9.601562 L 11.199219 11.199219 L 12 11.199219 L 12 12.800781 L 11.199219 12.800781 L 11.199219 14.398438 L 10.398438 14.398438 L 10.398438 15.199219 L 12 15.199219 L 12 14.398438 L 12.800781 14.398438 L 12.800781 13.601562 L 13.601562 13.601562 L 13.601562 14.398438 L 14.398438 14.398438 L 14.398438 15.199219 L 16 15.199219 L 16 14.398438 L 15.199219 14.398438 L 15.199219 12.800781 L 14.398438 12.800781 L 14.398438 11.199219 L 15.199219 11.199219 L 15.199219 9.601562 L 16 9.601562 L 16 8.800781 L 14.398438 8.800781 L 14.398438 9.601562 L 13.601562 9.601562 L 13.601562 10.398438 L 12.800781 10.398438 L 12.800781 9.601562 L 12 9.601562 L 12 8.800781 Z M 2.398438 9.601562 L 3.199219 9.601562 L 3.199219 11.199219 L 2.398438 11.199219 Z M 7.199219 9.601562 L 8.800781 9.601562 L 8.800781 14.398438 L 7.199219 14.398438 Z M 2.398438 12 L 3.199219 12 L 3.199219 14.398438 L 2.398438 14.398438 Z M 2.398438 12 "/>
</g>
</svg>
