
<svg xmlns="http://www.w3.org/2000/svg" xmlns:xlink="http://www.w3.org/1999/xlink" width="16px" height="16px" viewBox="0 0 16 16" version="1.1">
<g id="surface1">
<path style=" stroke:none;fill-rule:evenodd;fill:#ff6666;fill-opacity:1;" d="M -0.03125 12.5 L 15.96875 12.5 L 15.96875 14.5 L -0.03125 14.5 Z M -0.03125 12.5 "/>
<path style=" stroke:none;fill-rule:evenodd;fill:#ff6666;fill-opacity:1;" d="M 0.910156 10.183594 L 0.910156 1.546875 L 3.574219 1.546875 C 4.15625 1.546875 4.6875 1.628906 5.164062 1.796875 C 5.640625 1.960938 6.035156 2.175781 6.347656 2.449219 C 6.660156 2.71875 6.921875 3.042969 7.132812 3.417969 C 7.34375 3.789062 7.496094 4.179688 7.589844 4.589844 C 7.683594 4.996094 7.730469 5.421875 7.730469 5.863281 C 7.730469 6.277344 7.6875 6.679688 7.601562 7.074219 C 7.515625 7.46875 7.367188 7.855469 7.15625 8.238281 C 6.949219 8.621094 6.6875 8.953125 6.375 9.238281 C 6.0625 9.523438 5.660156 9.75 5.171875 9.921875 C 4.683594 10.09375 4.132812 10.183594 3.523438 10.183594 Z M 2.390625 8.789062 L 3.734375 8.789062 C 4.171875 8.789062 4.554688 8.703125 4.886719 8.527344 C 5.21875 8.355469 5.480469 8.125 5.664062 7.832031 C 5.851562 7.539062 5.984375 7.230469 6.070312 6.902344 C 6.15625 6.574219 6.199219 6.226562 6.199219 5.863281 C 6.199219 5.058594 6.003906 4.371094 5.609375 3.800781 C 5.214844 3.226562 4.632812 2.941406 3.871094 2.941406 L 2.390625 2.941406 Z M 12.824219 10.328125 C 12.308594 10.328125 11.839844 10.242188 11.417969 10.070312 C 11 9.898438 10.65625 9.667969 10.390625 9.378906 C 10.121094 9.09375 9.898438 8.75 9.71875 8.355469 C 9.535156 7.960938 9.40625 7.558594 9.328125 7.148438 C 9.25 6.738281 9.210938 6.308594 9.210938 5.863281 C 9.210938 5.339844 9.277344 4.824219 9.40625 4.324219 C 9.539062 3.820312 9.742188 3.347656 10.011719 2.898438 C 10.285156 2.449219 10.664062 2.089844 11.148438 1.8125 C 11.632812 1.539062 12.191406 1.398438 12.824219 1.398438 C 13.589844 1.398438 14.230469 1.578125 14.75 1.9375 C 15.265625 2.292969 15.628906 2.726562 15.835938 3.238281 L 14.503906 3.84375 C 14.273438 3.488281 14.03125 3.230469 13.78125 3.066406 C 13.53125 2.898438 13.210938 2.816406 12.824219 2.816406 C 12.445312 2.816406 12.117188 2.910156 11.832031 3.097656 C 11.546875 3.28125 11.328125 3.527344 11.179688 3.835938 C 11.027344 4.144531 10.914062 4.46875 10.84375 4.808594 C 10.773438 5.152344 10.738281 5.503906 10.738281 5.863281 C 10.738281 6.671875 10.917969 7.378906 11.277344 7.984375 C 11.632812 8.59375 12.148438 8.898438 12.824219 8.898438 C 13.484375 8.898438 14.035156 8.527344 14.476562 7.789062 L 15.847656 8.308594 C 15.246094 9.65625 14.238281 10.328125 12.824219 10.328125 Z M 12.824219 10.328125 "/>
</g>
</svg>
