
<svg xmlns="http://www.w3.org/2000/svg" xmlns:xlink="http://www.w3.org/1999/xlink" width="16px" height="16px" viewBox="0 0 16 16" version="1.1">
<g id="surface1">
<path style=" stroke:none;fill-rule:evenodd;fill:#ff6666;fill-opacity:1;" d="M -0.03125 12.5 L 15.96875 12.5 L 15.96875 14.5 L -0.03125 14.5 Z M -0.03125 12.5 "/>
<path style=" stroke:none;fill-rule:evenodd;fill:#ff6666;fill-opacity:1;" d="M 0.910156 9.628906 L 0.910156 2.199219 L 3.203125 2.199219 C 3.703125 2.199219 4.160156 2.269531 4.570312 2.410156 C 4.984375 2.554688 5.324219 2.742188 5.589844 2.976562 C 5.859375 3.207031 6.085938 3.484375 6.265625 3.808594 C 6.445312 4.128906 6.578125 4.464844 6.65625 4.816406 C 6.738281 5.167969 6.78125 5.53125 6.78125 5.914062 C 6.78125 6.269531 6.742188 6.617188 6.667969 6.953125 C 6.59375 7.296875 6.464844 7.628906 6.285156 7.957031 C 6.105469 8.289062 5.878906 8.574219 5.613281 8.816406 C 5.34375 9.0625 5 9.257812 4.578125 9.40625 C 4.15625 9.554688 3.683594 9.628906 3.160156 9.628906 Z M 2.183594 8.429688 L 3.339844 8.429688 C 3.714844 8.429688 4.046875 8.355469 4.332031 8.207031 C 4.621094 8.058594 4.84375 7.859375 5.003906 7.609375 C 5.160156 7.355469 5.277344 7.089844 5.351562 6.808594 C 5.425781 6.523438 5.464844 6.226562 5.464844 5.914062 C 5.464844 5.222656 5.292969 4.628906 4.953125 4.136719 C 4.613281 3.644531 4.117188 3.398438 3.457031 3.398438 L 2.183594 3.398438 Z M 15.078125 2.199219 L 15.078125 9.628906 L 13.804688 9.628906 L 13.804688 5.679688 C 13.804688 5.355469 13.820312 5.058594 13.847656 4.789062 C 13.761719 5.042969 13.648438 5.347656 13.507812 5.703125 L 11.703125 9.757812 L 9.898438 5.679688 C 9.773438 5.398438 9.65625 5.101562 9.550781 4.789062 C 9.578125 5.058594 9.59375 5.355469 9.59375 5.679688 L 9.59375 9.628906 L 8.320312 9.628906 L 8.320312 2.199219 L 9.601562 2.199219 L 11.515625 6.5625 C 11.589844 6.761719 11.660156 6.945312 11.714844 7.113281 C 11.773438 6.945312 11.839844 6.761719 11.917969 6.5625 L 13.839844 2.199219 Z M 15.078125 2.199219 "/>
</g>
</svg>
