
<svg xmlns="http://www.w3.org/2000/svg" xmlns:xlink="http://www.w3.org/1999/xlink" width="16px" height="16px" viewBox="0 0 16 16" version="1.1">
<g id="surface1">
<path style=" stroke:none;fill-rule:evenodd;fill:#ff6666;fill-opacity:1;" d="M -0.03125 12.5 L 15.96875 12.5 L 15.96875 14.5 L -0.03125 14.5 Z M -0.03125 12.5 "/>
<path style=" stroke:none;fill-rule:evenodd;fill:#ff6666;fill-opacity:1;" d="M 0.910156 10.304688 L 0.910156 2.199219 L 3.410156 2.199219 C 3.960938 2.199219 4.457031 2.277344 4.902344 2.433594 C 5.351562 2.585938 5.722656 2.789062 6.015625 3.046875 C 6.308594 3.300781 6.554688 3.601562 6.75 3.953125 C 6.949219 4.304688 7.089844 4.671875 7.179688 5.054688 C 7.269531 5.4375 7.3125 5.835938 7.3125 6.253906 C 7.3125 6.636719 7.269531 7.015625 7.191406 7.386719 C 7.109375 7.757812 6.96875 8.121094 6.773438 8.480469 C 6.578125 8.839844 6.332031 9.152344 6.039062 9.417969 C 5.746094 9.683594 5.371094 9.898438 4.910156 10.0625 C 4.449219 10.222656 3.933594 10.304688 3.363281 10.304688 Z M 2.300781 8.996094 L 3.5625 8.996094 C 3.96875 8.996094 4.332031 8.914062 4.644531 8.753906 C 4.957031 8.589844 5.199219 8.371094 5.371094 8.097656 C 5.546875 7.824219 5.671875 7.53125 5.753906 7.222656 C 5.835938 6.914062 5.875 6.589844 5.875 6.253906 C 5.875 5.496094 5.691406 4.847656 5.320312 4.3125 C 4.949219 3.777344 4.40625 3.507812 3.6875 3.507812 L 2.300781 3.507812 Z M 10.378906 10.304688 L 8.992188 10.304688 L 8.992188 2.199219 L 12.359375 2.199219 C 13.292969 2.199219 13.980469 2.441406 14.421875 2.929688 C 14.859375 3.414062 15.078125 4.011719 15.078125 4.710938 C 15.078125 5.375 14.851562 5.960938 14.390625 6.472656 C 13.933594 6.980469 13.253906 7.234375 12.359375 7.234375 L 10.378906 7.234375 Z M 10.378906 5.914062 L 12.429688 5.914062 C 12.835938 5.914062 13.140625 5.796875 13.34375 5.558594 C 13.542969 5.316406 13.644531 5.035156 13.644531 4.710938 C 13.644531 4.402344 13.550781 4.128906 13.359375 3.882812 C 13.171875 3.640625 12.859375 3.519531 12.429688 3.519531 L 10.378906 3.519531 Z M 10.378906 5.914062 "/>
</g>
</svg>
