
<svg xmlns="http://www.w3.org/2000/svg" xmlns:xlink="http://www.w3.org/1999/xlink" width="16px" height="16px" viewBox="0 0 16 16" version="1.1">
<g id="surface1">
<path style=" stroke:none;fill-rule:evenodd;fill:#ff6666;fill-opacity:1;" d="M -0.03125 12.5 L 15.96875 12.5 L 15.96875 14.5 L -0.03125 14.5 Z M -0.03125 12.5 "/>
<path style=" stroke:none;fill-rule:evenodd;fill:#ff6666;fill-opacity:1;" d="M 0.910156 10.070312 L 0.910156 1.601562 L 3.523438 1.601562 C 4.097656 1.601562 4.617188 1.679688 5.085938 1.84375 C 5.554688 2.003906 5.941406 2.21875 6.246094 2.484375 C 6.550781 2.75 6.808594 3.066406 7.015625 3.433594 C 7.21875 3.800781 7.371094 4.183594 7.464844 4.582031 C 7.554688 4.980469 7.601562 5.398438 7.601562 5.835938 C 7.601562 6.238281 7.558594 6.632812 7.476562 7.019531 C 7.390625 7.410156 7.246094 7.789062 7.039062 8.164062 C 6.832031 8.539062 6.578125 8.867188 6.269531 9.144531 C 5.964844 9.421875 5.570312 9.648438 5.089844 9.816406 C 4.609375 9.984375 4.074219 10.070312 3.476562 10.070312 Z M 2.363281 8.703125 L 3.679688 8.703125 C 4.109375 8.703125 4.484375 8.617188 4.8125 8.449219 C 5.140625 8.28125 5.394531 8.050781 5.574219 7.765625 C 5.757812 7.480469 5.890625 7.175781 5.972656 6.851562 C 6.058594 6.53125 6.101562 6.191406 6.101562 5.835938 C 6.101562 5.042969 5.90625 4.367188 5.519531 3.808594 C 5.132812 3.246094 4.566406 2.96875 3.8125 2.96875 L 2.363281 2.96875 Z M 15.078125 2.992188 L 12.671875 2.992188 L 12.671875 10.070312 L 11.21875 10.070312 L 11.21875 2.992188 L 8.8125 2.992188 L 8.8125 1.601562 L 15.078125 1.601562 Z M 15.078125 2.992188 "/>
</g>
</svg>
