
<svg xmlns="http://www.w3.org/2000/svg" xmlns:xlink="http://www.w3.org/1999/xlink" width="16px" height="16px" viewBox="0 0 16 16" version="1.1">
<g id="surface1">
<path style=" stroke:none;fill-rule:nonzero;fill:#ff6666;fill-opacity:1;" d="M 12.5 2 C 11.863281 2 11.300781 2.402344 11.089844 3 L 2 3 L 2 4 C 3.855469 4.957031 5.164062 6.480469 5.359375 7.304688 C 5.617188 8.421875 5.214844 9.734375 4.171875 11.160156 C 3.964844 11.054688 3.734375 11 3.5 11 C 2.671875 11 2 11.671875 2 12.5 C 2 13.328125 2.671875 14 3.5 14 C 4.136719 14 4.699219 13.597656 4.914062 13 L 9 13 L 9 14 L 12 14 L 12 11 L 9 11 L 9 12 L 4.914062 12 C 4.902344 11.96875 4.886719 11.9375 4.875 11.90625 C 6.179688 10.226562 6.773438 8.652344 6.425781 7.140625 C 6.132812 5.863281 5.242188 4.863281 3.96875 4 L 11.089844 4 C 11.300781 4.597656 11.863281 5 12.5 5 C 13.328125 5 14 4.328125 14 3.5 C 14 2.671875 13.328125 2 12.5 2 Z M 12.5 3 C 12.777344 3 13 3.222656 13 3.5 C 13 3.777344 12.777344 4 12.5 4 C 12.222656 4 12 3.777344 12 3.5 C 12 3.222656 12.222656 3 12.5 3 Z M 3.5 12 C 3.75 12 3.960938 12.1875 3.992188 12.4375 C 3.996094 12.445312 3.996094 12.453125 4 12.464844 C 4 12.472656 4 12.476562 4 12.484375 C 4 12.488281 4 12.496094 4 12.5 C 4 12.777344 3.777344 13 3.5 13 C 3.257812 13 3.050781 12.824219 3.007812 12.585938 C 3.003906 12.554688 3 12.527344 3 12.5 C 3 12.484375 3 12.464844 3 12.449219 C 3.027344 12.195312 3.242188 12 3.5 12 Z M 10 12 L 11 12 L 11 13 L 10 13 Z M 10 12 "/>
</g>
</svg>
