
<svg xmlns="http://www.w3.org/2000/svg" xmlns:xlink="http://www.w3.org/1999/xlink" width="16px" height="16px" viewBox="0 0 16 16" version="1.1">
<g id="surface1">
<path style=" stroke:none;fill-rule:nonzero;fill:#ff6666;fill-opacity:1;" d="M 3.945312 9.523438 L 5.761719 6.453125 C 5.296875 6.355469 4.953125 5.925781 4.953125 5.410156 L 4.953125 2.210938 C 4.953125 1.617188 5.40625 1.144531 5.96875 1.144531 L 10.03125 1.144531 C 10.59375 1.144531 11.046875 1.617188 11.046875 2.210938 L 11.046875 5.410156 C 11.046875 5.925781 10.703125 6.355469 10.238281 6.453125 L 12.054688 9.523438 L 14.984375 9.523438 C 15.546875 9.523438 16 10 16 10.589844 L 16 13.789062 C 16 14.382812 15.546875 14.855469 14.984375 14.855469 L 10.921875 14.855469 C 10.359375 14.855469 9.90625 14.382812 9.90625 13.789062 L 9.90625 10.589844 C 9.90625 10.074219 10.25 9.644531 10.710938 9.546875 L 8.898438 6.476562 L 7.101562 6.476562 L 5.289062 9.546875 C 5.75 9.644531 6.09375 10.074219 6.09375 10.589844 L 6.09375 13.789062 C 6.09375 14.382812 5.640625 14.855469 5.078125 14.855469 L 1.015625 14.855469 C 0.453125 14.855469 0 14.382812 0 13.789062 L 0 10.589844 C 0 10 0.453125 9.523438 1.015625 9.523438 Z M 3.945312 9.523438 "/>
</g>
</svg>
