
<svg xmlns="http://www.w3.org/2000/svg" xmlns:xlink="http://www.w3.org/1999/xlink" width="16px" height="16px" viewBox="0 0 16 16" version="1.1">
<g id="surface1">
<path style=" stroke:none;fill-rule:nonzero;fill:#ff6666;fill-opacity:1;" d="M 7.691406 0 C 7.515625 0 7.371094 0.140625 7.371094 0.320312 L 7.371094 1.101562 C 6.8125 1.347656 6.414062 1.90625 6.414062 2.558594 C 6.414062 3.441406 7.132812 4.160156 8.011719 4.160156 C 8.894531 4.160156 9.613281 3.441406 9.613281 2.558594 C 9.613281 1.90625 9.214844 1.347656 8.652344 1.101562 L 8.652344 0.320312 C 8.652344 0.140625 8.511719 0 8.332031 0 Z M 6.125 3.757812 L 4.433594 8.316406 L 2.566406 8.316406 C 2.472656 8.3125 2.382812 8.347656 2.316406 8.410156 C 2.253906 8.476562 2.21875 8.566406 2.226562 8.65625 C 2.234375 8.835938 2.390625 8.96875 2.566406 8.957031 L 7.371094 8.957031 L 7.371094 9.917969 C 7.371094 10.09375 7.515625 10.238281 7.691406 10.238281 L 8.332031 10.238281 C 8.511719 10.238281 8.652344 10.09375 8.652344 9.917969 L 8.652344 8.957031 L 13.449219 8.957031 C 13.566406 8.960938 13.675781 8.898438 13.734375 8.800781 C 13.789062 8.699219 13.789062 8.574219 13.734375 8.476562 C 13.675781 8.378906 13.566406 8.316406 13.449219 8.316406 L 11.59375 8.316406 L 9.902344 3.757812 C 9.535156 4.34375 8.917969 4.722656 8.234375 4.789062 L 9.59375 8.316406 L 8.652344 8.316406 L 8.652344 7.359375 C 8.652344 7.179688 8.511719 7.039062 8.332031 7.039062 L 7.691406 7.039062 C 7.515625 7.039062 7.371094 7.179688 7.371094 7.359375 L 7.371094 8.316406 L 6.433594 8.316406 L 7.792969 4.789062 C 7.105469 4.722656 6.492188 4.339844 6.125 3.757812 Z M 3.972656 9.566406 L 2.675781 13.066406 C 2.652344 13.136719 2.652344 13.207031 2.675781 13.277344 L 3.214844 15.074219 L 3.214844 15.675781 C 3.214844 15.789062 3.273438 15.898438 3.371094 15.957031 C 3.472656 16.015625 3.59375 16.015625 3.695312 15.957031 C 3.796875 15.898438 3.855469 15.789062 3.855469 15.675781 L 3.855469 15.074219 L 5.964844 9.566406 Z M 10.0625 9.566406 L 12.171875 15.074219 L 12.171875 15.675781 C 12.171875 15.789062 12.230469 15.898438 12.328125 15.957031 C 12.429688 16.015625 12.554688 16.015625 12.652344 15.957031 C 12.753906 15.898438 12.8125 15.789062 12.8125 15.675781 L 12.8125 15.074219 L 13.351562 13.277344 C 13.371094 13.210938 13.378906 13.132812 13.351562 13.066406 L 12.050781 9.566406 Z M 10.0625 9.566406 "/>
</g>
</svg>
