
<svg xmlns="http://www.w3.org/2000/svg" xmlns:xlink="http://www.w3.org/1999/xlink" width="16px" height="16px" viewBox="0 0 16 16" version="1.1">
<g id="surface1">
<path style=" stroke:none;fill-rule:nonzero;fill:#ff6666;fill-opacity:1;" d="M 3.109375 1.777344 L 4.890625 4 L 5.777344 3.554688 L 4.445312 2.222656 L 5.777344 1.777344 Z M 10.222656 1.777344 L 11.554688 2.222656 L 10.222656 3.554688 L 11.109375 4 L 12.890625 1.777344 Z M 8 2.667969 C 6.84375 2.671875 5.328125 3.300781 5.332031 5.511719 L 8 4 L 10.667969 5.511719 C 10.671875 3.300781 9.15625 2.671875 8 2.667969 Z M 1.332031 3.554688 L 2.222656 6.222656 L 2.222656 5.332031 L 4 5.332031 L 4.445312 4.445312 Z M 14.667969 3.554688 L 11.554688 4.445312 L 12 5.332031 L 13.777344 5.332031 L 13.777344 6.222656 Z M 8 4.890625 L 6.667969 5.6875 L 6.84375 6.933594 L 7.289062 5.777344 L 8.710938 5.777344 L 9.15625 6.933594 L 9.332031 5.691406 Z M 3.554688 6.222656 L 0 7.554688 L 1.777344 8.445312 L 1.777344 8 L 3.109375 7.554688 Z M 5.777344 6.222656 L 4 6.933594 C 4.011719 8.386719 4.824219 9.757812 5.644531 10.425781 C 6.21875 10.882812 6.9375 11.402344 7.289062 11.554688 C 7.691406 11.707031 7.46875 10.808594 7.554688 10.664062 L 8.445312 10.664062 C 8.53125 10.808594 8.308594 11.707031 8.710938 11.554688 C 9.0625 11.402344 9.78125 10.882812 10.355469 10.425781 C 11.175781 9.757812 11.988281 8.386719 12 6.933594 L 10.222656 6.222656 L 9.777344 8 L 8.621094 8 L 8 6.222656 L 7.378906 8 L 6.222656 8 Z M 12.445312 6.222656 L 12.890625 7.554688 L 14.222656 8 L 14.222656 8.445312 L 16 7.554688 Z M 3.554688 8.890625 L 1.332031 9.777344 L 4.890625 14.222656 Z M 12.445312 8.890625 L 11.109375 14.222656 L 14.667969 9.777344 Z M 12.445312 8.890625 "/>
</g>
</svg>
