
<svg xmlns="http://www.w3.org/2000/svg" xmlns:xlink="http://www.w3.org/1999/xlink" width="16px" height="16px" viewBox="0 0 16 16" version="1.1">
<g id="surface1">
<path style=" stroke:none;fill-rule:nonzero;fill:#ff6666;fill-opacity:1;" d="M 8 0 C 8 0 7.199219 0 7.199219 0.800781 C 7.199219 1.601562 6.398438 1.601562 6.398438 1.601562 C 6.398438 1.601562 5.601562 1.601562 5.601562 0.800781 L 5.601562 12 L 10.398438 12 L 10.398438 0.800781 C 10.398438 1.601562 9.601562 1.601562 9.601562 1.601562 C 9.601562 1.601562 8.800781 1.601562 8.800781 0.800781 C 8.800781 0 8 0 8 0 Z M 8 0 "/>
<path style=" stroke:none;fill-rule:nonzero;fill:#ff6666;fill-opacity:1;" d="M 2.398438 9.601562 L 8 16 L 13.601562 9.601562 L 10.398438 9.601562 L 10.398438 7.199219 C 10.398438 8 9.601562 8 9.601562 8 C 9.601562 8 8.800781 8 8.800781 7.199219 C 8.800781 6.398438 8 6.398438 8 6.398438 C 8 6.398438 7.199219 6.398438 7.199219 7.199219 C 7.199219 8 6.398438 8 6.398438 8 C 6.398438 8 5.601562 8 5.601562 7.199219 L 5.601562 9.601562 Z M 2.398438 9.601562 "/>
</g>
</svg>
