
<svg xmlns="http://www.w3.org/2000/svg" xmlns:xlink="http://www.w3.org/1999/xlink" width="16px" height="16px" viewBox="0 0 16 16" version="1.1">
<g id="surface1">
<path style=" stroke:none;fill-rule:evenodd;fill:#ff6666;fill-opacity:1;" d="M 5.738281 0.863281 L 14.765625 0.863281 C 15.445312 0.863281 16 1.417969 16 2.101562 L 16 8.777344 C 16 9.460938 15.445312 10.011719 14.765625 10.011719 L 5.738281 10.011719 C 5.058594 10.011719 4.503906 9.460938 4.503906 8.777344 L 4.503906 2.101562 C 4.503906 1.417969 5.058594 0.863281 5.738281 0.863281 Z M 1.050781 8.847656 L 3.40625 8.847656 C 3.5 11.339844 5.144531 11.179688 7.980469 11.132812 L 7.980469 14.085938 C 7.980469 14.664062 7.511719 15.136719 6.933594 15.136719 L 1.050781 15.136719 C 0.46875 15.136719 0 14.664062 0 14.085938 L 0 9.894531 C 0 9.316406 0.46875 8.847656 1.050781 8.847656 Z M 9.125 11.132812 L 9.148438 13.945312 L 12.007812 13.960938 C 12.613281 13.964844 13.097656 13.476562 13.09375 12.871094 L 13.082031 11.085938 Z M 9.125 11.132812 "/>
</g>
</svg>
