
<svg xmlns="http://www.w3.org/2000/svg" xmlns:xlink="http://www.w3.org/1999/xlink" width="16px" height="16px" viewBox="0 0 16 16" version="1.1">
<g id="surface1">
<path style=" stroke:none;fill-rule:evenodd;fill:#ff6666;fill-opacity:1;" d="M 5.539062 2.460938 C 5.539062 1.101562 6.640625 0 8 0 C 9.359375 0 10.460938 1.101562 10.460938 2.460938 C 10.460938 3.816406 9.359375 4.917969 8 4.917969 C 6.640625 4.917969 5.539062 3.816406 5.539062 2.460938 Z M 4.839844 9.488281 L 4.839844 16 L 6.242188 16 L 6.242188 12.117188 C 6.746094 12.453125 7.351562 12.648438 8 12.648438 C 9.746094 12.648438 11.160156 11.234375 11.160156 9.488281 C 11.160156 7.742188 9.746094 6.324219 8 6.324219 C 6.253906 6.324219 4.839844 7.742188 4.839844 9.488281 Z M 4.839844 9.488281 "/>
</g>
</svg>
