
<svg xmlns="http://www.w3.org/2000/svg" xmlns:xlink="http://www.w3.org/1999/xlink" width="16px" height="16px" viewBox="0 0 16 16" version="1.1">
<g id="surface1">
<path style=" stroke:none;fill-rule:evenodd;fill:#ff6666;fill-opacity:1;" d="M 15.359375 11.132812 C 10.960938 13.183594 6.238281 13.859375 2.203125 13.507812 C 3.710938 15.097656 5.808594 16 8 16 C 11.207031 16 14.105469 14.085938 15.359375 11.132812 Z M 6.285156 8.855469 L 9.714844 8.855469 L 9.714844 9.714844 L 6.285156 9.714844 Z M 9.820312 6.339844 L 9.378906 5.601562 L 11.601562 4.269531 L 13.820312 5.601562 L 13.378906 6.339844 L 11.601562 5.269531 Z M 8 0 C 3.582031 0 0 3.582031 0 8 C 0.00390625 9.304688 0.320312 10.585938 0.933594 11.738281 C 5.28125 12.417969 10.941406 11.742188 15.921875 9.0625 C 15.972656 8.710938 15.996094 8.355469 16 8 C 16 3.582031 12.417969 0 8 0 Z M 3.855469 4.285156 L 4.285156 4.285156 L 4.285156 5.144531 L 3.855469 5.144531 C 3.605469 5.144531 3.429688 4.96875 3.429688 4.714844 C 3.429688 4.460938 3.605469 4.285156 3.855469 4.285156 Z M 5.144531 6 L 5.570312 6 C 5.824219 6 6 6.175781 6 6.429688 C 6 6.679688 5.824219 6.855469 5.570312 6.855469 L 5.144531 6.855469 Z M 4.285156 2.570312 L 4.285156 3.429688 L 3.855469 3.429688 C 3.144531 3.429688 2.570312 4.003906 2.570312 4.714844 C 2.570312 5.425781 3.144531 6 3.855469 6 L 4.285156 6 L 4.285156 6.855469 L 2.648438 6.855469 C 2.828125 7.355469 3.296875 7.714844 3.855469 7.714844 L 4.285156 7.714844 L 4.285156 8.570312 L 5.144531 8.570312 L 5.144531 7.714844 L 5.570312 7.714844 C 6.285156 7.714844 6.855469 7.140625 6.855469 6.429688 C 6.855469 5.714844 6.285156 5.144531 5.570312 5.144531 L 5.144531 5.144531 L 5.144531 4.285156 L 6.777344 4.285156 C 6.601562 3.785156 6.132812 3.429688 5.570312 3.429688 L 5.144531 3.429688 L 5.144531 2.570312 Z M 4.285156 2.570312 "/>
</g>
</svg>
