
<svg xmlns="http://www.w3.org/2000/svg" xmlns:xlink="http://www.w3.org/1999/xlink" width="16px" height="16px" viewBox="0 0 16 16" version="1.1">
<g id="surface1">
<path style=" stroke:none;fill-rule:nonzero;fill:#ff6666;fill-opacity:1;" d="M 4.871094 0 C 3.894531 0 3.128906 0.765625 3.128906 1.738281 L 3.128906 14.261719 C 3.128906 15.234375 3.894531 16 4.871094 16 L 11.128906 16 C 12.105469 16 12.871094 15.234375 12.871094 14.261719 L 12.871094 1.738281 C 12.871094 0.765625 12.105469 0 11.128906 0 Z M 4.871094 0.695312 L 11.128906 0.695312 C 11.722656 0.695312 12.175781 1.148438 12.175781 1.738281 L 12.175781 12.523438 L 3.824219 12.523438 L 3.824219 1.738281 C 3.824219 1.148438 4.277344 0.695312 4.871094 0.695312 Z M 5.5 3.128906 C 5.308594 3.148438 5.167969 3.320312 5.183594 3.511719 C 5.203125 3.703125 5.375 3.84375 5.566406 3.824219 L 10.433594 3.824219 C 10.558594 3.828125 10.675781 3.761719 10.742188 3.652344 C 10.804688 3.546875 10.804688 3.410156 10.742188 3.304688 C 10.675781 3.195312 10.558594 3.128906 10.433594 3.128906 Z M 5.5 4.871094 C 5.308594 4.886719 5.167969 5.058594 5.183594 5.25 C 5.203125 5.441406 5.375 5.582031 5.566406 5.566406 L 9.390625 5.566406 C 9.515625 5.566406 9.632812 5.5 9.695312 5.394531 C 9.761719 5.285156 9.761719 5.152344 9.695312 5.042969 C 9.632812 4.933594 9.515625 4.867188 9.390625 4.871094 Z M 5.5 6.609375 C 5.308594 6.625 5.167969 6.796875 5.183594 6.988281 C 5.203125 7.179688 5.375 7.320312 5.566406 7.304688 L 10.433594 7.304688 C 10.558594 7.304688 10.675781 7.238281 10.742188 7.132812 C 10.804688 7.023438 10.804688 6.890625 10.742188 6.78125 C 10.675781 6.671875 10.558594 6.605469 10.433594 6.609375 Z M 5.5 8.347656 C 5.308594 8.363281 5.167969 8.535156 5.183594 8.726562 C 5.203125 8.921875 5.375 9.0625 5.566406 9.042969 L 9.390625 9.042969 C 9.515625 9.046875 9.632812 8.980469 9.695312 8.871094 C 9.761719 8.761719 9.761719 8.628906 9.695312 8.519531 C 9.632812 8.410156 9.515625 8.347656 9.390625 8.347656 Z M 5.5 10.085938 C 5.308594 10.105469 5.167969 10.277344 5.183594 10.46875 C 5.203125 10.660156 5.375 10.800781 5.566406 10.78125 L 10.433594 10.78125 C 10.558594 10.785156 10.675781 10.71875 10.742188 10.609375 C 10.804688 10.503906 10.804688 10.367188 10.742188 10.257812 C 10.675781 10.152344 10.558594 10.085938 10.433594 10.085938 Z M 8 13.566406 C 8.382812 13.566406 8.695312 13.878906 8.695312 14.261719 C 8.695312 14.644531 8.382812 14.957031 8 14.957031 C 7.617188 14.957031 7.304688 14.644531 7.304688 14.261719 C 7.304688 13.878906 7.617188 13.566406 8 13.566406 Z M 8 13.566406 "/>
</g>
</svg>
