
<svg xmlns="http://www.w3.org/2000/svg" xmlns:xlink="http://www.w3.org/1999/xlink" width="16px" height="16px" viewBox="0 0 16 16" version="1.1">
<g id="surface1">
<path style=" stroke:none;fill-rule:nonzero;fill:#ff6666;fill-opacity:1;" d="M 8 0 C 3.582031 0 0 3.582031 0 8 C 0 12.417969 3.582031 16 8 16 L 8 13.597656 C 4.90625 13.597656 2.402344 11.09375 2.398438 8 C 2.402344 4.90625 4.90625 2.402344 8 2.398438 C 11.09375 2.402344 13.597656 4.90625 13.597656 8 L 16 8 C 16 3.582031 12.417969 0 8 0 Z M 8 4 C 5.789062 4 4 5.789062 4 8 L 6.398438 8 C 6.402344 7.117188 7.117188 6.402344 8 6.398438 C 8.882812 6.402344 9.597656 7.117188 9.601562 8 L 12 8 C 12 5.789062 10.210938 4 8 4 Z M 8 4 "/>
</g>
</svg>
