
<svg xmlns="http://www.w3.org/2000/svg" xmlns:xlink="http://www.w3.org/1999/xlink" width="16px" height="16px" viewBox="0 0 16 16" version="1.1">
<g id="surface1">
<path style=" stroke:none;fill-rule:nonzero;fill:#ff6666;fill-opacity:1;" d="M 7.988281 0 C 4.742188 0 1.816406 1.964844 0.585938 4.972656 L 5.898438 5.882812 L 5.71875 6.933594 L 0.253906 5.996094 C 0.128906 6.476562 0.046875 6.96875 0.0117188 7.464844 L 5.855469 7.464844 L 5.855469 8.535156 L 0.015625 8.535156 C 0.0507812 9.03125 0.128906 9.519531 0.257812 10.003906 L 5.71875 9.066406 L 5.898438 10.117188 L 0.601562 11.027344 C 1.828125 14.027344 4.746094 15.992188 7.988281 16 C 12.40625 16 15.988281 12.417969 15.988281 8 C 15.988281 3.582031 12.40625 0 7.988281 0 Z M 7.988281 0 "/>
</g>
</svg>
