
<svg xmlns="http://www.w3.org/2000/svg" xmlns:xlink="http://www.w3.org/1999/xlink" width="16px" height="16px" viewBox="0 0 16 16" version="1.1">
<g id="surface1">
<path style=" stroke:none;fill-rule:nonzero;fill:#ff6666;fill-opacity:1;" d="M 6.894531 15 C 7.058594 15 7.210938 14.980469 7.351562 14.933594 C 7.492188 14.886719 7.632812 14.816406 7.765625 14.71875 C 7.902344 14.617188 8.007812 14.472656 8.085938 14.28125 C 8.164062 14.089844 8.203125 13.863281 8.203125 13.597656 L 8.203125 11 L 7.542969 11 L 7.542969 13.5625 C 7.542969 14.097656 7.328125 14.367188 6.902344 14.367188 C 6.601562 14.367188 6.375 14.214844 6.21875 13.910156 L 5.644531 14.1875 C 5.761719 14.445312 5.925781 14.644531 6.144531 14.789062 C 6.359375 14.929688 6.613281 15 6.894531 15 Z M 10.851562 14.933594 C 9.96875 15.300781 9.003906 15.5 7.988281 15.5 C 4.949219 15.492188 2.214844 13.652344 1.0625 10.839844 L 6.027344 9.984375 L 5.859375 9 L 0.738281 9.878906 C 0.621094 9.425781 0.546875 8.964844 0.515625 8.5 L 5.988281 8.5 L 5.988281 7.5 L 0.511719 7.5 C 0.542969 7.035156 0.621094 6.574219 0.738281 6.121094 L 5.859375 7 L 6.027344 6.015625 L 1.050781 5.160156 C 2.203125 2.34375 4.945312 0.503906 7.988281 0.5 C 12.128906 0.5 15.488281 3.859375 15.488281 8 C 15.488281 9.066406 15.265625 10.082031 14.863281 11 L 15.050781 11 L 15.050781 11.636719 L 14.550781 11.636719 C 14.664062 11.429688 14.769531 11.21875 14.867188 11 L 12.53125 11 L 12.53125 13.96875 C 12.765625 13.792969 12.988281 13.601562 13.199219 13.398438 L 13.199219 14.296875 L 15.171875 14.296875 L 15.171875 14.933594 L 12.53125 14.933594 L 12.53125 13.96875 C 12.269531 14.167969 11.996094 14.347656 11.710938 14.511719 L 11.710938 14.300781 L 9.738281 14.300781 L 9.738281 13.21875 L 10.945312 13.21875 L 10.945312 12.585938 L 9.738281 12.585938 L 9.738281 11.636719 L 11.59375 11.636719 L 11.59375 11 L 9.070312 11 L 9.070312 14.933594 Z M 10.859375 14.933594 L 11.710938 14.933594 L 11.710938 14.515625 C 11.4375 14.671875 11.152344 14.8125 10.859375 14.933594 Z M 14.550781 11.636719 C 14.363281 11.96875 14.15625 12.285156 13.925781 12.585938 L 14.40625 12.585938 L 14.40625 13.21875 L 13.378906 13.21875 C 13.570312 13.019531 13.753906 12.808594 13.925781 12.585938 L 13.199219 12.585938 L 13.199219 11.636719 Z M 13.371094 13.21875 C 13.316406 13.277344 13.257812 13.335938 13.199219 13.394531 L 13.199219 13.21875 Z M 13.371094 13.21875 "/>
</g>
</svg>
