
<svg xmlns="http://www.w3.org/2000/svg" xmlns:xlink="http://www.w3.org/1999/xlink" width="16px" height="16px" viewBox="0 0 16 16" version="1.1">
<g id="surface1">
<path style=" stroke:none;fill-rule:evenodd;fill:#ff6666;fill-opacity:1;" d="M 7.796875 14.265625 C 7.464844 14.191406 7.171875 13.976562 7.050781 13.71875 C 6.972656 13.546875 6.984375 13.4375 7.09375 13.371094 C 7.222656 13.296875 7.3125 13.347656 7.445312 13.566406 C 7.578125 13.789062 7.757812 13.898438 8 13.898438 C 8.253906 13.898438 8.429688 13.789062 8.558594 13.550781 C 8.679688 13.335938 8.769531 13.289062 8.90625 13.371094 C 9.015625 13.4375 9.027344 13.546875 8.949219 13.722656 C 8.773438 14.101562 8.222656 14.359375 7.796875 14.265625 Z M 4.726562 12.789062 C 4.675781 12.660156 4.789062 12.28125 4.933594 12.101562 C 5.378906 11.53125 6.273438 11.605469 6.605469 12.238281 C 6.730469 12.476562 6.753906 12.855469 6.644531 12.855469 C 6.609375 12.855469 6.582031 12.84375 6.582031 12.824219 C 6.582031 12.804688 6.519531 12.726562 6.441406 12.652344 C 6.125 12.335938 5.621094 12.265625 5.230469 12.484375 C 5.109375 12.550781 4.96875 12.660156 4.917969 12.730469 C 4.8125 12.875 4.765625 12.886719 4.726562 12.789062 Z M 13.269531 11.578125 C 13.042969 14.011719 10.910156 16 8 16 C 5.089844 16 2.980469 14.007812 2.730469 11.578125 C 2.480469 9.136719 5.011719 0.0351562 8 0 C 11.011719 -0.0351562 13.507812 9.046875 13.269531 11.578125 Z M 11.273438 12.789062 C 11.324219 12.660156 11.210938 12.28125 11.066406 12.101562 C 10.621094 11.53125 9.726562 11.605469 9.394531 12.238281 C 9.269531 12.476562 9.246094 12.855469 9.355469 12.855469 C 9.390625 12.855469 9.417969 12.84375 9.417969 12.824219 C 9.417969 12.804688 9.480469 12.726562 9.558594 12.652344 C 9.875 12.335938 10.378906 12.265625 10.769531 12.484375 C 10.890625 12.550781 11.03125 12.660156 11.082031 12.730469 C 11.1875 12.875 11.234375 12.886719 11.273438 12.789062 Z M 11.273438 12.789062 "/>
</g>
</svg>
