
<svg xmlns="http://www.w3.org/2000/svg" xmlns:xlink="http://www.w3.org/1999/xlink" width="16px" height="16px" viewBox="0 0 16 16" version="1.1">
<g id="surface1">
<path style=" stroke:none;fill-rule:nonzero;fill:#ff6666;fill-opacity:1;" d="M 7.273438 3.636719 L 7.273438 12.363281 L 0.726562 12.363281 L 0.726562 13.089844 L 8 13.089844 L 8 8.726562 L 15.273438 8.726562 L 15.273438 8 L 8 8 L 8 3.636719 Z M 7.273438 3.636719 "/>
<path style=" stroke:none;fill-rule:nonzero;fill:#ff6666;fill-opacity:1;" d="M 7.636719 2.183594 C 7.035156 2.183594 6.546875 2.671875 6.546875 3.273438 C 6.546875 3.875 7.035156 4.363281 7.636719 4.363281 C 8.238281 4.363281 8.726562 3.875 8.726562 3.273438 C 8.726562 2.671875 8.238281 2.183594 7.636719 2.183594 Z M 7.636719 7.273438 C 7.035156 7.273438 6.546875 7.761719 6.546875 8.363281 C 6.546875 8.964844 7.035156 9.453125 7.636719 9.453125 C 8.238281 9.453125 8.726562 8.964844 8.726562 8.363281 C 8.726562 7.761719 8.238281 7.273438 7.636719 7.273438 Z M 14.910156 7.273438 C 14.308594 7.273438 13.816406 7.761719 13.816406 8.363281 C 13.816406 8.964844 14.308594 9.453125 14.910156 9.453125 C 15.511719 9.453125 16 8.964844 16 8.363281 C 16 7.761719 15.511719 7.273438 14.910156 7.273438 Z M 1.089844 11.636719 C 0.488281 11.636719 0 12.125 0 12.726562 C 0 13.328125 0.488281 13.816406 1.089844 13.816406 C 1.691406 13.816406 2.183594 13.328125 2.183594 12.726562 C 2.183594 12.125 1.691406 11.636719 1.089844 11.636719 Z M 7.636719 11.636719 C 7.035156 11.636719 6.546875 12.125 6.546875 12.726562 C 6.546875 13.328125 7.035156 13.816406 7.636719 13.816406 C 8.238281 13.816406 8.726562 13.328125 8.726562 12.726562 C 8.726562 12.125 8.238281 11.636719 7.636719 11.636719 Z M 7.636719 11.636719 "/>
</g>
</svg>
