
<svg xmlns="http://www.w3.org/2000/svg" xmlns:xlink="http://www.w3.org/1999/xlink" width="16px" height="16px" viewBox="0 0 16 16" version="1.1">
<g id="surface1">
<path style=" stroke:none;fill-rule:nonzero;fill:#ff6666;fill-opacity:1;" d="M 3.992188 1 C 2.734375 1.015625 1.816406 0.96875 1.0625 1.386719 C 0.6875 1.59375 0.390625 1.945312 0.226562 2.382812 C 0.0585938 2.820312 0 3.34375 0 4 L 0 12 C 0 12.65625 0.0585938 13.179688 0.226562 13.617188 C 0.390625 14.054688 0.6875 14.40625 1.0625 14.613281 C 1.816406 15.03125 2.734375 14.984375 3.992188 15 L 12.007812 15 C 13.265625 14.984375 14.183594 15.03125 14.9375 14.613281 C 15.3125 14.40625 15.609375 14.054688 15.777344 13.617188 C 15.941406 13.179688 16 12.65625 16 12 L 16 4 C 16 3.34375 15.941406 2.820312 15.773438 2.382812 C 15.609375 1.945312 15.3125 1.59375 14.9375 1.386719 C 14.183594 0.96875 13.265625 1.015625 12.007812 1 Z M 4 2 L 12 2 C 13.257812 2.015625 14.085938 2.058594 14.453125 2.261719 C 14.636719 2.363281 14.742188 2.472656 14.839844 2.734375 C 14.9375 2.992188 15 3.40625 15 4 L 15 12 C 15 12.59375 14.9375 13.007812 14.839844 13.265625 C 14.742188 13.527344 14.636719 13.636719 14.453125 13.738281 C 14.085938 13.941406 13.257812 13.984375 12 14 L 4 14 C 2.742188 13.984375 1.910156 13.941406 1.546875 13.738281 C 1.363281 13.636719 1.257812 13.527344 1.160156 13.265625 C 1.0625 13.007812 1 12.59375 1 12 L 1 4 C 1 3.40625 1.0625 2.992188 1.160156 2.734375 C 1.257812 2.472656 1.363281 2.363281 1.546875 2.261719 C 1.910156 2.058594 2.742188 2.015625 4 2 Z M 4 2 "/>
<path style=" stroke:none;fill-rule:nonzero;fill:#ff6666;fill-opacity:1;" d="M 0.808594 1.910156 L 15.214844 1.910156 L 15.214844 4.269531 L 0.808594 4.269531 Z M 0.808594 1.910156 "/>
<path style=" stroke:none;fill-rule:nonzero;fill:#ff6666;fill-opacity:1;" d="M 5.375 11.953125 C 5.027344 11.953125 4.496094 9.960938 4.253906 9.71875 C 4.007812 9.472656 2.015625 8.9375 2.015625 8.59375 C 2.015625 8.246094 4.007812 7.714844 4.253906 7.472656 C 4.496094 7.226562 5.027344 5.234375 5.375 5.234375 C 5.722656 5.234375 6.253906 7.226562 6.496094 7.472656 C 6.742188 7.714844 8.734375 8.246094 8.734375 8.59375 C 8.734375 8.9375 6.742188 9.472656 6.496094 9.71875 C 6.253906 9.960938 5.722656 11.953125 5.375 11.953125 Z M 5.375 11.953125 "/>
<path style=" stroke:none;fill-rule:nonzero;fill:#ff6666;fill-opacity:1;" d="M 10.117188 13.375 C 9.945312 13.375 9.679688 12.378906 9.554688 12.257812 C 9.433594 12.136719 8.4375 11.867188 8.4375 11.695312 C 8.4375 11.523438 9.433594 11.257812 9.554688 11.132812 C 9.679688 11.011719 9.945312 10.015625 10.117188 10.015625 C 10.289062 10.015625 10.558594 11.011719 10.679688 11.132812 C 10.800781 11.257812 11.796875 11.523438 11.796875 11.695312 C 11.796875 11.867188 10.800781 12.136719 10.679688 12.257812 C 10.558594 12.378906 10.289062 13.375 10.117188 13.375 Z M 10.117188 13.375 "/>
<path style=" stroke:none;fill-rule:nonzero;fill:#ff6666;fill-opacity:1;" d="M 11.445312 9.34375 C 11.230469 9.34375 10.902344 8.117188 10.753906 7.964844 C 10.601562 7.816406 9.375 7.484375 9.375 7.273438 C 9.375 7.058594 10.601562 6.730469 10.753906 6.582031 C 10.902344 6.429688 11.230469 5.203125 11.445312 5.203125 C 11.65625 5.203125 11.988281 6.429688 12.136719 6.582031 C 12.289062 6.730469 13.515625 7.058594 13.515625 7.273438 C 13.515625 7.484375 12.289062 7.816406 12.136719 7.964844 C 11.988281 8.117188 11.65625 9.34375 11.445312 9.34375 Z M 11.445312 9.34375 "/>
</g>
</svg>
