
<svg xmlns="http://www.w3.org/2000/svg" xmlns:xlink="http://www.w3.org/1999/xlink" width="16px" height="16px" viewBox="0 0 16 16" version="1.1">
<g id="surface1">
<path style=" stroke:none;fill-rule:nonzero;fill:#ff6666;fill-opacity:1;" d="M 5.765625 0.644531 C 5.136719 0.628906 4.535156 0.765625 4 1.074219 C 2.84375 1.738281 2.25 3.066406 2.160156 4.632812 C 0.851562 5.492188 0 6.667969 0 8.003906 C 0 9.335938 0.851562 10.511719 2.160156 11.371094 C 2.25 12.9375 2.847656 14.261719 4 14.929688 C 5.15625 15.597656 6.601562 15.449219 8 14.742188 C 9.398438 15.449219 10.847656 15.597656 12 14.929688 C 13.152344 14.261719 13.75 12.9375 13.839844 11.371094 C 15.148438 10.511719 16 9.335938 16 8.003906 C 16 6.667969 15.148438 5.492188 13.839844 4.632812 C 13.75 3.066406 13.152344 1.738281 12 1.074219 C 10.84375 0.40625 9.398438 0.554688 8 1.261719 C 7.25 0.882812 6.488281 0.660156 5.765625 0.644531 Z M 10.234375 1.273438 C 10.765625 1.261719 11.253906 1.375 11.683594 1.621094 C 12.511719 2.097656 13.015625 3.027344 13.167969 4.238281 C 12.4375 3.855469 11.597656 3.558594 10.679688 3.359375 C 10.046875 2.664062 9.371094 2.085938 8.675781 1.644531 C 9.21875 1.414062 9.742188 1.289062 10.234375 1.273438 Z M 5.765625 1.273438 C 6.257812 1.289062 6.78125 1.414062 7.324219 1.644531 C 6.628906 2.085938 5.949219 2.664062 5.320312 3.359375 C 4.402344 3.558594 3.5625 3.855469 2.832031 4.238281 C 2.984375 3.027344 3.492188 2.097656 4.316406 1.621094 C 4.746094 1.375 5.234375 1.261719 5.765625 1.273438 Z M 8 1.972656 C 8.539062 2.277344 9.082031 2.683594 9.605469 3.171875 C 9.085938 3.109375 8.550781 3.074219 8 3.074219 C 7.449219 3.074219 6.914062 3.109375 6.394531 3.171875 C 6.914062 2.683594 7.457031 2.277344 8 1.972656 Z M 8 3.710938 C 8.820312 3.710938 9.609375 3.789062 10.347656 3.9375 C 10.839844 4.503906 11.308594 5.144531 11.71875 5.855469 C 12.128906 6.566406 12.449219 7.289062 12.691406 8.003906 C 12.449219 8.714844 12.128906 9.4375 11.71875 10.148438 C 11.308594 10.859375 10.84375 11.5 10.347656 12.066406 C 9.609375 12.210938 8.820312 12.296875 8 12.296875 C 7.179688 12.296875 6.390625 12.210938 5.652344 12.066406 C 5.15625 11.5 4.691406 10.859375 4.28125 10.148438 C 3.871094 9.4375 3.550781 8.714844 3.308594 8.003906 C 3.550781 7.289062 3.871094 6.566406 4.28125 5.855469 C 4.691406 5.144531 5.15625 4.503906 5.652344 3.9375 C 6.390625 3.789062 7.179688 3.710938 8 3.710938 Z M 4.621094 4.195312 C 4.304688 4.613281 4.007812 5.0625 3.734375 5.539062 C 3.457031 6.015625 3.21875 6.496094 3.015625 6.980469 C 2.855469 6.28125 2.773438 5.609375 2.777344 4.988281 C 3.3125 4.671875 3.9375 4.40625 4.621094 4.195312 Z M 11.378906 4.195312 C 12.0625 4.40625 12.683594 4.671875 13.222656 4.988281 C 13.226562 5.609375 13.144531 6.28125 12.984375 6.980469 C 12.78125 6.496094 12.542969 6.015625 12.265625 5.539062 C 11.992188 5.0625 11.691406 4.613281 11.378906 4.195312 Z M 6.800781 4.929688 L 6.207031 7.539062 L 5.171875 7.695312 L 4.925781 8.617188 L 5.996094 8.453125 L 5.539062 10.460938 L 9.996094 10.460938 L 10.429688 9.230469 L 7.664062 9.230469 L 7.90625 8.164062 L 8.984375 8.003906 L 9.230469 7.078125 L 8.117188 7.246094 L 8.644531 4.929688 Z M 13.84375 5.40625 C 14.8125 6.144531 15.367188 7.046875 15.367188 8.003906 C 15.367188 8.957031 14.8125 9.859375 13.84375 10.597656 C 13.808594 9.773438 13.644531 8.894531 13.359375 8.003906 C 13.644531 7.109375 13.808594 6.230469 13.84375 5.40625 Z M 2.15625 5.40625 C 2.191406 6.230469 2.355469 7.109375 2.640625 8.003906 C 2.355469 8.894531 2.191406 9.773438 2.15625 10.597656 C 1.1875 9.859375 0.632812 8.957031 0.632812 8.003906 C 0.632812 7.046875 1.1875 6.144531 2.15625 5.40625 Z M 3.015625 9.023438 C 3.21875 9.507812 3.457031 9.988281 3.734375 10.464844 C 4.007812 10.941406 4.304688 11.390625 4.621094 11.808594 C 3.9375 11.597656 3.3125 11.332031 2.777344 11.015625 C 2.773438 10.394531 2.855469 9.722656 3.015625 9.023438 Z M 12.984375 9.023438 C 13.144531 9.722656 13.226562 10.394531 13.222656 11.015625 C 12.683594 11.332031 12.0625 11.597656 11.378906 11.808594 C 11.691406 11.390625 11.992188 10.941406 12.265625 10.464844 C 12.539062 9.988281 12.78125 9.507812 12.984375 9.023438 Z M 2.832031 11.765625 C 3.5625 12.144531 4.402344 12.445312 5.320312 12.644531 C 5.949219 13.335938 6.628906 13.917969 7.324219 14.359375 C 6.199219 14.832031 5.144531 14.859375 4.316406 14.382812 C 3.492188 13.902344 2.984375 12.976562 2.832031 11.765625 Z M 13.167969 11.765625 C 13.015625 12.976562 12.507812 13.902344 11.683594 14.382812 C 10.855469 14.859375 9.800781 14.832031 8.675781 14.359375 C 9.371094 13.917969 10.046875 13.335938 10.679688 12.644531 C 11.597656 12.445312 12.4375 12.144531 13.167969 11.765625 Z M 6.394531 12.828125 C 6.914062 12.894531 7.449219 12.929688 8 12.929688 C 8.550781 12.929688 9.085938 12.894531 9.605469 12.828125 C 9.082031 13.320312 8.539062 13.726562 8 14.03125 C 7.457031 13.726562 6.917969 13.320312 6.394531 12.828125 Z M 6.394531 12.828125 "/>
</g>
</svg>
