
<svg xmlns="http://www.w3.org/2000/svg" xmlns:xlink="http://www.w3.org/1999/xlink" width="16px" height="16px" viewBox="0 0 16 16" version="1.1">
<g id="surface1">
<path style=" stroke:none;fill-rule:nonzero;fill:#ff6666;fill-opacity:1;" d="M 3.390625 2.878906 C 3.359375 2.878906 3.328125 2.878906 3.300781 2.878906 C 3.0625 2.886719 2.820312 2.929688 2.59375 2.980469 C 2.378906 3.027344 2.152344 3.109375 2.007812 3.273438 C 1.78125 3.527344 1.660156 4.238281 1.660156 4.238281 C 1.660156 4.238281 0.996094 4.679688 0.765625 4.996094 C 0.546875 5.292969 0.433594 5.65625 0.335938 6.011719 C 0.269531 6.246094 0.253906 6.492188 0.234375 6.734375 C 0.0859375 8.335938 -0.0820312 9.792969 0.0429688 11.558594 C 0.0898438 12.183594 0.363281 12.492188 0.730469 12.777344 C 1.074219 13.042969 1.5625 13.167969 1.988281 13.105469 C 2.324219 13.058594 2.625 12.824219 2.863281 12.585938 C 3.363281 12.082031 3.832031 10.835938 3.9375 10.746094 C 4.039062 10.660156 4.175781 10.453125 4.175781 10.453125 C 4.175781 10.453125 4.507812 10.753906 4.710938 10.832031 C 4.996094 10.945312 5.320312 10.996094 5.621094 10.953125 C 6.019531 10.902344 6.421875 10.746094 6.726562 10.488281 C 6.941406 10.304688 7.175781 9.765625 7.175781 9.765625 L 8.828125 9.765625 C 8.828125 9.765625 9.058594 10.304688 9.273438 10.488281 C 9.578125 10.746094 9.980469 10.902344 10.378906 10.953125 C 10.679688 10.996094 11.003906 10.945312 11.289062 10.832031 C 11.492188 10.753906 11.824219 10.453125 11.824219 10.453125 C 11.824219 10.453125 11.960938 10.660156 12.0625 10.746094 C 12.167969 10.835938 12.636719 12.082031 13.132812 12.585938 C 13.371094 12.824219 13.675781 13.058594 14.011719 13.105469 C 14.4375 13.167969 14.925781 13.042969 15.269531 12.777344 C 15.636719 12.492188 15.910156 12.183594 15.957031 11.558594 C 16.082031 9.792969 15.914062 8.335938 15.765625 6.734375 C 15.746094 6.492188 15.730469 6.246094 15.664062 6.011719 C 15.566406 5.65625 15.453125 5.292969 15.234375 4.996094 C 15.003906 4.679688 14.339844 4.238281 14.339844 4.238281 C 14.339844 4.238281 14.21875 3.527344 13.992188 3.273438 C 13.847656 3.109375 13.621094 3.027344 13.40625 2.980469 C 12.953125 2.875 12.4375 2.808594 12.011719 2.996094 C 11.765625 3.105469 11.601562 3.375 11.460938 3.582031 C 11.324219 3.789062 11.253906 4.445312 11.253906 4.445312 L 8.859375 4.433594 L 8.859375 4.425781 L 8 4.429688 L 7.140625 4.425781 L 7.140625 4.433594 L 4.746094 4.445312 C 4.746094 4.445312 4.675781 3.789062 4.539062 3.582031 C 4.398438 3.375 4.234375 3.105469 3.988281 2.996094 C 3.800781 2.914062 3.597656 2.882812 3.390625 2.878906 Z M 13.109375 4.597656 C 13.433594 4.597656 13.695312 4.859375 13.695312 5.183594 C 13.695312 5.507812 13.433594 5.769531 13.109375 5.769531 C 12.785156 5.769531 12.523438 5.507812 12.523438 5.183594 C 12.523438 4.859375 12.785156 4.597656 13.109375 4.597656 Z M 2.402344 4.929688 L 3.347656 4.929688 L 3.347656 5.632812 C 3.347656 5.632812 3.003906 6.082031 2.875 6.074219 C 2.734375 6.070312 2.402344 5.632812 2.402344 5.632812 Z M 11.6875 5.84375 C 12.011719 5.84375 12.273438 6.105469 12.273438 6.429688 C 12.273438 6.753906 12.011719 7.015625 11.6875 7.015625 C 11.363281 7.015625 11.101562 6.753906 11.101562 6.429688 C 11.101562 6.105469 11.363281 5.84375 11.6875 5.84375 Z M 14.53125 5.84375 C 14.855469 5.84375 15.117188 6.105469 15.117188 6.429688 C 15.117188 6.753906 14.855469 7.015625 14.53125 7.015625 C 14.210938 7.015625 13.945312 6.753906 13.945312 6.429688 C 13.945312 6.105469 14.210938 5.84375 14.53125 5.84375 Z M 1.480469 5.886719 L 2.179688 5.886719 C 2.179688 5.886719 2.621094 6.222656 2.625 6.359375 C 2.632812 6.488281 2.179688 6.828125 2.179688 6.828125 L 1.480469 6.828125 Z M 3.566406 5.886719 L 4.269531 5.886719 L 4.269531 6.828125 L 3.566406 6.828125 C 3.566406 6.828125 3.117188 6.488281 3.121094 6.359375 C 3.128906 6.222656 3.566406 5.886719 3.566406 5.886719 Z M 9.109375 6.136719 L 10.027344 6.4375 L 9.109375 6.738281 Z M 5.902344 6.15625 L 6.816406 6.15625 L 6.816406 6.71875 L 5.902344 6.71875 Z M 2.875 6.640625 C 3.003906 6.636719 3.347656 7.085938 3.347656 7.085938 L 3.347656 7.789062 L 2.402344 7.789062 L 2.402344 7.085938 C 2.402344 7.085938 2.734375 6.648438 2.875 6.640625 Z M 13.109375 7.089844 C 13.433594 7.089844 13.695312 7.351562 13.695312 7.675781 C 13.695312 8 13.433594 8.261719 13.109375 8.261719 C 12.785156 8.261719 12.523438 8 12.523438 7.675781 C 12.523438 7.351562 12.785156 7.089844 13.109375 7.089844 Z M 5.378906 8.113281 C 6.011719 8.113281 6.523438 8.628906 6.523438 9.257812 C 6.523438 9.890625 6.011719 10.40625 5.378906 10.40625 C 4.746094 10.40625 4.234375 9.890625 4.234375 9.257812 C 4.234375 8.628906 4.746094 8.113281 5.378906 8.113281 Z M 10.550781 8.113281 C 11.183594 8.113281 11.695312 8.628906 11.695312 9.257812 C 11.695312 9.890625 11.183594 10.40625 10.550781 10.40625 C 9.917969 10.40625 9.40625 9.890625 9.40625 9.257812 C 9.40625 8.628906 9.917969 8.113281 10.550781 8.113281 Z M 10.550781 8.113281 "/>
</g>
</svg>
