
<svg xmlns="http://www.w3.org/2000/svg" xmlns:xlink="http://www.w3.org/1999/xlink" width="16px" height="16px" viewBox="0 0 16 16" version="1.1">
<g id="surface1">
<path style=" stroke:none;fill-rule:evenodd;fill:#ff6666;fill-opacity:1;" d="M 2.152344 10.601562 C 2.046875 10.515625 1.941406 10.429688 1.839844 10.339844 C 1.59375 10.121094 1.371094 9.878906 1.175781 9.609375 C 1.003906 9.367188 0.871094 9.101562 0.769531 8.824219 C 0.683594 8.558594 0.632812 8.28125 0.632812 8 C 0.632812 7.71875 0.683594 7.441406 0.769531 7.171875 C 0.871094 6.898438 1.003906 6.632812 1.175781 6.390625 C 1.371094 6.121094 1.59375 5.878906 1.839844 5.660156 C 1.941406 5.570312 2.046875 5.484375 2.15625 5.398438 C 2.1875 6.175781 2.320312 6.945312 2.542969 7.691406 C 2.570312 7.796875 2.605469 7.898438 2.640625 8 C 2.605469 8.101562 2.570312 8.203125 2.542969 8.308594 C 2.320312 9.054688 2.1875 9.820312 2.152344 10.601562 Z M 13.847656 5.398438 C 13.953125 5.484375 14.058594 5.570312 14.160156 5.660156 C 14.40625 5.878906 14.628906 6.121094 14.824219 6.390625 C 14.996094 6.632812 15.128906 6.898438 15.230469 7.175781 C 15.316406 7.441406 15.367188 7.71875 15.367188 8 C 15.367188 8.28125 15.316406 8.558594 15.230469 8.824219 C 15.128906 9.101562 14.996094 9.367188 14.824219 9.609375 C 14.628906 9.878906 14.40625 10.121094 14.160156 10.339844 C 14.058594 10.429688 13.953125 10.515625 13.847656 10.601562 C 13.8125 9.820312 13.679688 9.054688 13.457031 8.308594 C 13.429688 8.203125 13.394531 8.101562 13.359375 8 C 13.394531 7.898438 13.429688 7.796875 13.457031 7.691406 C 13.679688 6.945312 13.8125 6.179688 13.847656 5.398438 Z M 13.171875 4.234375 C 12.503906 3.886719 11.796875 3.621094 11.0625 3.445312 C 10.9375 3.414062 10.8125 3.382812 10.683594 3.359375 C 10.226562 2.851562 9.722656 2.390625 9.175781 1.980469 C 9.015625 1.859375 8.851562 1.746094 8.679688 1.640625 C 8.726562 1.617188 8.769531 1.601562 8.8125 1.582031 C 9.296875 1.386719 9.808594 1.28125 10.328125 1.273438 C 10.804688 1.269531 11.269531 1.390625 11.683594 1.621094 C 11.933594 1.765625 12.15625 1.953125 12.34375 2.171875 C 12.539062 2.398438 12.703125 2.660156 12.824219 2.941406 C 12.960938 3.253906 13.0625 3.578125 13.121094 3.910156 C 13.140625 4.019531 13.15625 4.125 13.171875 4.234375 Z M 5.316406 3.359375 C 5.1875 3.382812 5.0625 3.414062 4.9375 3.445312 C 4.203125 3.621094 3.496094 3.886719 2.828125 4.234375 C 2.84375 4.125 2.859375 4.019531 2.878906 3.910156 C 2.9375 3.578125 3.039062 3.253906 3.175781 2.941406 C 3.296875 2.660156 3.460938 2.398438 3.65625 2.171875 C 3.84375 1.953125 4.066406 1.765625 4.316406 1.621094 C 4.730469 1.390625 5.195312 1.269531 5.671875 1.273438 C 6.191406 1.28125 6.707031 1.386719 7.1875 1.582031 C 7.230469 1.601562 7.277344 1.617188 7.320312 1.640625 C 7.152344 1.746094 6.984375 1.859375 6.824219 1.980469 C 6.277344 2.390625 5.773438 2.851562 5.316406 3.359375 Z M 6.382812 3.1875 C 6.917969 3.105469 7.457031 3.070312 8 3.074219 C 8.542969 3.070312 9.082031 3.105469 9.617188 3.1875 C 9.363281 2.9375 9.085938 2.703125 8.796875 2.484375 C 8.542969 2.296875 8.28125 2.125 8 1.980469 C 7.71875 2.125 7.457031 2.296875 7.203125 2.484375 C 6.914062 2.703125 6.636719 2.9375 6.382812 3.1875 Z M 10.683594 12.640625 C 10.8125 12.617188 10.9375 12.585938 11.0625 12.554688 C 11.796875 12.378906 12.503906 12.113281 13.171875 11.765625 C 13.15625 11.875 13.140625 11.980469 13.121094 12.089844 C 13.0625 12.421875 12.960938 12.746094 12.824219 13.058594 C 12.703125 13.339844 12.539062 13.601562 12.34375 13.828125 C 12.15625 14.046875 11.933594 14.234375 11.683594 14.378906 C 11.269531 14.609375 10.804688 14.730469 10.328125 14.726562 C 9.808594 14.71875 9.296875 14.613281 8.8125 14.417969 C 8.769531 14.398438 8.722656 14.382812 8.679688 14.359375 C 8.847656 14.253906 9.015625 14.140625 9.175781 14.019531 C 9.722656 13.609375 10.226562 13.148438 10.683594 12.640625 Z M 9.617188 12.8125 C 9.082031 12.894531 8.542969 12.929688 8 12.925781 C 7.457031 12.929688 6.914062 12.894531 6.382812 12.8125 C 6.636719 13.0625 6.914062 13.296875 7.203125 13.515625 C 7.457031 13.703125 7.71875 13.875 8 14.019531 C 8.28125 13.875 8.542969 13.703125 8.796875 13.515625 C 9.085938 13.296875 9.363281 13.0625 9.617188 12.8125 Z M 2.828125 11.765625 C 3.496094 12.113281 4.203125 12.378906 4.9375 12.554688 C 5.0625 12.585938 5.1875 12.617188 5.316406 12.640625 C 5.773438 13.148438 6.277344 13.609375 6.824219 14.019531 C 6.984375 14.140625 7.152344 14.253906 7.320312 14.359375 C 7.277344 14.382812 7.230469 14.398438 7.1875 14.417969 C 6.707031 14.613281 6.191406 14.71875 5.671875 14.726562 C 5.195312 14.730469 4.730469 14.609375 4.316406 14.378906 C 4.066406 14.234375 3.84375 14.046875 3.65625 13.828125 C 3.460938 13.601562 3.296875 13.339844 3.175781 13.058594 C 3.039062 12.746094 2.9375 12.421875 2.878906 12.089844 C 2.859375 11.980469 2.84375 11.875 2.828125 11.765625 Z M 2.78125 11.015625 C 3.367188 11.355469 3.992188 11.621094 4.636719 11.820312 C 4.304688 11.390625 4.003906 10.933594 3.734375 10.464844 C 3.457031 9.988281 3.214844 9.496094 3.015625 8.980469 C 2.863281 9.628906 2.78125 10.289062 2.777344 10.953125 C 2.777344 10.972656 2.777344 10.996094 2.78125 11.015625 Z M 4.636719 4.179688 C 3.992188 4.378906 3.367188 4.644531 2.78125 4.984375 C 2.777344 5.003906 2.777344 5.027344 2.777344 5.046875 C 2.78125 5.710938 2.863281 6.371094 3.015625 7.019531 C 3.214844 6.503906 3.457031 6.011719 3.734375 5.535156 C 4.003906 5.066406 4.304688 4.609375 4.636719 4.179688 Z M 5.652344 3.933594 C 6.425781 3.78125 7.210938 3.703125 8 3.707031 C 8.789062 3.703125 9.574219 3.78125 10.347656 3.933594 C 10.351562 3.933594 10.351562 3.933594 10.351562 3.933594 C 10.867188 4.527344 11.324219 5.167969 11.71875 5.855469 C 12.117188 6.535156 12.441406 7.253906 12.695312 8 C 12.441406 8.746094 12.117188 9.464844 11.71875 10.144531 C 11.324219 10.832031 10.867188 11.472656 10.351562 12.066406 C 10.351562 12.066406 10.351562 12.066406 10.347656 12.066406 C 9.574219 12.21875 8.789062 12.296875 8 12.292969 C 7.210938 12.296875 6.425781 12.21875 5.652344 12.066406 C 5.648438 12.066406 5.648438 12.066406 5.648438 12.066406 C 5.132812 11.472656 4.675781 10.832031 4.28125 10.144531 C 3.882812 9.464844 3.558594 8.746094 3.304688 8 C 3.558594 7.253906 3.882812 6.535156 4.28125 5.855469 C 4.675781 5.167969 5.132812 4.527344 5.648438 3.933594 C 5.648438 3.933594 5.648438 3.933594 5.652344 3.933594 Z M 12.984375 8.980469 C 13.136719 9.628906 13.21875 10.289062 13.222656 10.953125 C 13.222656 10.972656 13.222656 10.996094 13.21875 11.015625 C 12.632812 11.355469 12.007812 11.621094 11.363281 11.820312 C 11.695312 11.390625 11.996094 10.933594 12.265625 10.464844 C 12.542969 9.988281 12.785156 9.496094 12.984375 8.980469 Z M 13.21875 4.984375 C 12.632812 4.644531 12.007812 4.378906 11.363281 4.179688 C 11.695312 4.609375 11.996094 5.066406 12.265625 5.535156 C 12.542969 6.011719 12.785156 6.503906 12.984375 7.019531 C 13.136719 6.371094 13.21875 5.710938 13.222656 5.046875 C 13.222656 5.027344 13.222656 5.003906 13.21875 4.984375 Z M 2.152344 11.371094 C 1.894531 11.203125 1.652344 11.015625 1.421875 10.816406 C 1.136719 10.566406 0.882812 10.285156 0.664062 9.980469 C 0.453125 9.6875 0.292969 9.371094 0.171875 9.03125 C 0.0585938 8.699219 0 8.351562 0 8 C 0 7.648438 0.0585938 7.300781 0.171875 6.96875 C 0.292969 6.628906 0.453125 6.3125 0.664062 6.019531 C 0.882812 5.714844 1.136719 5.433594 1.421875 5.183594 C 1.652344 4.984375 1.898438 4.792969 2.15625 4.628906 C 2.171875 4.351562 2.203125 4.070312 2.257812 3.796875 C 2.328125 3.414062 2.441406 3.042969 2.597656 2.6875 C 2.742188 2.351562 2.9375 2.039062 3.175781 1.757812 C 3.40625 1.484375 3.6875 1.25 4.003906 1.070312 C 4.511719 0.785156 5.089844 0.632812 5.675781 0.640625 C 6.277344 0.648438 6.867188 0.769531 7.421875 0.992188 C 7.617188 1.070312 7.8125 1.160156 8 1.253906 C 8.1875 1.160156 8.382812 1.070312 8.578125 0.992188 C 9.132812 0.769531 9.722656 0.648438 10.320312 0.640625 C 10.90625 0.632812 11.488281 0.785156 11.996094 1.070312 C 12.3125 1.25 12.59375 1.484375 12.824219 1.757812 C 13.0625 2.039062 13.257812 2.351562 13.402344 2.6875 C 13.558594 3.042969 13.671875 3.414062 13.742188 3.796875 C 13.796875 4.070312 13.828125 4.351562 13.847656 4.628906 C 14.105469 4.796875 14.347656 4.984375 14.578125 5.183594 C 14.863281 5.433594 15.117188 5.714844 15.335938 6.019531 C 15.546875 6.3125 15.707031 6.628906 15.828125 6.96875 C 15.941406 7.300781 16 7.648438 16 8 C 16 8.351562 15.941406 8.699219 15.828125 9.03125 C 15.707031 9.371094 15.546875 9.6875 15.335938 9.980469 C 15.117188 10.285156 14.863281 10.566406 14.578125 10.816406 C 14.347656 11.015625 14.105469 11.203125 13.847656 11.371094 C 13.828125 11.648438 13.796875 11.929688 13.742188 12.203125 C 13.671875 12.585938 13.558594 12.957031 13.402344 13.3125 C 13.257812 13.648438 13.0625 13.960938 12.824219 14.242188 C 12.59375 14.515625 12.3125 14.75 11.996094 14.929688 C 11.488281 15.214844 10.90625 15.367188 10.320312 15.359375 C 9.722656 15.351562 9.132812 15.230469 8.578125 15.007812 C 8.382812 14.929688 8.1875 14.839844 8 14.746094 C 7.8125 14.839844 7.617188 14.929688 7.421875 15.007812 C 6.867188 15.230469 6.277344 15.351562 5.679688 15.359375 C 5.09375 15.367188 4.511719 15.21875 4.003906 14.929688 C 3.6875 14.75 3.40625 14.515625 3.175781 14.242188 C 2.9375 13.960938 2.742188 13.648438 2.597656 13.3125 C 2.441406 12.957031 2.328125 12.585938 2.257812 12.203125 C 2.203125 11.929688 2.171875 11.648438 2.152344 11.371094 Z M 7.386719 6.15625 C 8.253906 6.15625 8.613281 6.15625 8.613281 6.769531 C 8.613281 7.386719 8.164062 7.386719 7.386719 7.386719 Z M 7.386719 8 C 8.613281 8 9.230469 8 9.230469 8.921875 C 9.230469 9.84375 8.613281 9.84375 7.386719 9.84375 Z M 6.769531 4.3125 L 6.769531 5.539062 C 6.621094 5.546875 6.34375 5.539062 6.195312 5.539062 L 5.539062 5.539062 L 5.539062 6.15625 C 5.539062 6.15625 5.761719 6.148438 5.753906 6.15625 C 6.035156 6.152344 6.128906 6.355469 6.15625 6.492188 L 6.15625 9.535156 C 6.144531 9.621094 6.152344 9.839844 5.957031 9.84375 C 5.964844 9.851562 5.539062 9.84375 5.539062 9.84375 L 5.539062 10.460938 L 6.234375 10.460938 C 6.402344 10.453125 6.605469 10.460938 6.769531 10.460938 L 6.769531 11.6875 L 7.386719 11.675781 L 7.386719 10.460938 L 7.988281 10.460938 L 8.011719 11.6875 L 8.625 11.6875 L 8.605469 10.460938 C 9.777344 10.375 10.460938 10.234375 10.460938 8.921875 C 10.460938 8 9.84375 7.691406 9.117188 7.691406 C 9.578125 7.65625 9.84375 7.386719 9.84375 6.617188 C 9.679688 5.679688 9.449219 5.539062 8.613281 5.539062 L 8.613281 4.3125 L 8 4.3125 L 8 5.539062 C 7.816406 5.539062 7.570312 5.535156 7.386719 5.539062 L 7.386719 4.3125 Z M 6.769531 4.3125 "/>
</g>
</svg>
