
<svg xmlns="http://www.w3.org/2000/svg" xmlns:xlink="http://www.w3.org/1999/xlink" width="16px" height="16px" viewBox="0 0 16 16" version="1.1">
<g id="surface1">
<path style=" stroke:none;fill-rule:evenodd;fill:#ff6666;fill-opacity:1;" d="M 6.570312 10.855469 L 3.152344 10.855469 L 3.152344 14.285156 L 1.714844 14.285156 L 1.714844 6 L 3.136719 6 L 3.136719 9.429688 L 6.570312 9.429688 L 6.570312 6 L 8 6 L 8 14.285156 L 6.570312 14.285156 Z M 16 15.199219 L 16 0.800781 C 16 0.359375 15.640625 0 15.199219 0 L 0.800781 0 C 0.359375 0 0 0.359375 0 0.800781 L 0 15.199219 C 0 15.640625 0.359375 16 0.800781 16 L 15.199219 16 C 15.640625 16 16 15.640625 16 15.199219 Z M 14 1.144531 L 14 2 L 13.144531 2 L 13.144531 2.855469 L 14 2.855469 L 14 6 L 14.855469 6 L 14.855469 1.144531 Z M 14 1.144531 "/>
</g>
</svg>
