
<svg xmlns="http://www.w3.org/2000/svg" xmlns:xlink="http://www.w3.org/1999/xlink" width="16px" height="16px" viewBox="0 0 16 16" version="1.1">
<g id="surface1">
<path style=" stroke:none;fill-rule:evenodd;fill:#ff6666;fill-opacity:1;" d="M 11.667969 9.394531 C 11.667969 10.28125 10.101562 11 8.167969 11 C 6.234375 11 4.667969 10.28125 4.667969 9.394531 C 4.667969 8.507812 6.234375 9.394531 8.167969 9.394531 C 10.101562 9.394531 11.667969 8.507812 11.667969 9.394531 Z M 2.332031 6.5 C 2.332031 6.222656 2.558594 6 2.832031 6 C 3.109375 6 3.332031 6.222656 3.332031 6.5 C 3.332031 6.777344 3.109375 7 2.832031 7 C 2.558594 7 2.332031 6.777344 2.332031 6.5 Z M 0 7 C 0 5.894531 0.894531 5 2 5 C 3.105469 5 4 5.894531 4 7 C 4 8.105469 3.105469 9 2 9 C 0.894531 9 0 8.105469 0 7 Z M 14.332031 6.5 C 14.332031 6.222656 14.558594 6 14.832031 6 C 15.109375 6 15.332031 6.222656 15.332031 6.5 C 15.332031 6.777344 15.109375 7 14.832031 7 C 14.558594 7 14.332031 6.777344 14.332031 6.5 Z M 12 7 C 12 5.894531 12.894531 5 14 5 C 15.105469 5 16 5.894531 16 7 C 16 8.105469 15.105469 9 14 9 C 12.894531 9 12 8.105469 12 7 Z M 12 7 "/>
</g>
</svg>
