
<svg xmlns="http://www.w3.org/2000/svg" xmlns:xlink="http://www.w3.org/1999/xlink" width="16px" height="16px" viewBox="0 0 16 16" version="1.1">
<g id="surface1">
<path style=" stroke:none;fill-rule:nonzero;fill:#ff6666;fill-opacity:1;" d="M 8 0 C 3.582031 0 0 3.582031 0 8 C 0 12.417969 3.582031 16 8 16 C 12.417969 16 16 12.417969 16 8 C 16 3.582031 12.417969 0 8 0 Z M 8.003906 0.664062 L 8 0.667969 C 11.359375 0.667969 14.191406 2.921875 15.058594 6.003906 C 14.3125 7.546875 13.246094 8.933594 11.953125 10.058594 C 11.332031 10.597656 10.648438 11.078125 9.898438 11.414062 C 9.148438 11.753906 8.324219 11.945312 7.5 11.898438 C 6.882812 11.863281 6.269531 11.691406 5.730469 11.390625 C 7.164062 10.613281 8.457031 9.578125 9.519531 8.339844 C 10.214844 7.523438 10.820312 6.597656 11.054688 5.554688 C 11.171875 5.03125 11.191406 4.484375 11.082031 3.960938 C 10.976562 3.4375 10.734375 2.9375 10.367188 2.546875 C 10.007812 2.167969 9.539062 1.894531 9.03125 1.757812 C 8.53125 1.617188 7.992188 1.609375 7.480469 1.703125 C 6.449219 1.890625 5.53125 2.488281 4.792969 3.230469 C 3.496094 4.539062 2.691406 6.386719 2.839844 8.222656 C 2.914062 9.140625 3.222656 10.042969 3.75 10.800781 C 3.867188 10.96875 3.996094 11.128906 4.136719 11.28125 C 3.367188 11.550781 2.570312 11.742188 1.765625 11.851562 C 1.070312 10.730469 0.671875 9.410156 0.671875 8 C 0.671875 3.945312 3.953125 0.664062 8.003906 0.664062 Z M 8.046875 2.144531 C 8.5625 2.144531 9.082031 2.304688 9.492188 2.613281 C 9.863281 2.894531 10.136719 3.292969 10.292969 3.730469 C 10.449219 4.167969 10.488281 4.640625 10.433594 5.101562 C 10.328125 6.027344 9.863281 6.871094 9.300781 7.613281 C 8.304688 8.921875 6.980469 9.96875 5.507812 10.703125 C 5.359375 10.777344 5.207031 10.847656 5.050781 10.917969 C 4.734375 10.636719 4.457031 10.304688 4.25 9.933594 C 3.8125 9.160156 3.667969 8.238281 3.75 7.355469 C 3.835938 6.46875 4.140625 5.617188 4.546875 4.824219 C 5.019531 3.910156 5.667969 3.042969 6.570312 2.542969 C 7.019531 2.292969 7.53125 2.144531 8.046875 2.144531 Z M 15.269531 7.019531 C 15.308594 7.339844 15.332031 7.664062 15.332031 7.996094 C 15.332031 12.046875 12.050781 15.332031 8 15.332031 C 5.726562 15.332031 3.691406 14.296875 2.351562 12.671875 C 3.179688 12.480469 3.992188 12.210938 4.769531 11.867188 C 5.109375 12.125 5.488281 12.335938 5.886719 12.488281 C 7.035156 12.929688 8.34375 12.867188 9.507812 12.464844 C 10.671875 12.058594 11.707031 11.339844 12.605469 10.496094 C 13.675781 9.496094 14.578125 8.3125 15.269531 7.019531 Z M 15.269531 7.019531 "/>
</g>
</svg>
