
<svg xmlns="http://www.w3.org/2000/svg" xmlns:xlink="http://www.w3.org/1999/xlink" width="16px" height="16px" viewBox="0 0 16 16" version="1.1">
<g id="surface1">
<path style=" stroke:none;fill-rule:nonzero;fill:#ff6666;fill-opacity:1;" d="M 8.507812 0 C 7.214844 -0.00390625 5.957031 0.414062 4.964844 1.179688 C 2.921875 2.753906 2.402344 5.445312 3.734375 7.5625 C 4.503906 8.613281 6 9.644531 6 11 L 6.003906 11 C 6.003906 11 6.003906 12.082031 6 13 L 6 14 C 6 14.378906 6.003906 14.789062 6 14.949219 C 5.964844 15.480469 6.414062 15.984375 6.953125 15.996094 C 7.949219 16 8.949219 15.996094 9.949219 16 C 10.480469 16.035156 10.984375 15.585938 11 15.050781 C 11 14.382812 11 11.667969 11 11 C 11 9.644531 12.496094 8.613281 13.265625 7.5625 C 14.597656 5.445312 14.078125 2.753906 12.035156 1.179688 C 11.046875 0.417969 9.800781 0.00390625 8.507812 0 Z M 8.5 0.914062 C 10.984375 0.914062 13 2.761719 13 5.039062 C 12.996094 5.796875 12.765625 6.535156 12.339844 7.179688 C 11.828125 7.949219 9.949219 9.433594 10 11 L 7 11 C 7.050781 9.417969 5.121094 7.910156 4.636719 7.148438 C 4.222656 6.511719 4 5.78125 4 5.039062 C 4 2.761719 6.015625 0.914062 8.5 0.914062 Z M 6.992188 5.5 C 6.867188 5.503906 6.738281 5.550781 6.640625 5.648438 C 6.445312 5.84375 6.445312 6.160156 6.640625 6.355469 C 6.824219 6.539062 7.722656 7.160156 8 7.078125 L 8 10 L 9 10 L 9 7.082031 C 9.289062 7.144531 10.167969 6.535156 10.347656 6.355469 C 10.542969 6.160156 10.542969 5.84375 10.347656 5.648438 C 10.152344 5.453125 9.835938 5.453125 9.640625 5.648438 C 9.460938 5.828125 8.847656 6.714844 8.914062 7 L 8.074219 7 C 8.144531 6.71875 7.527344 5.828125 7.347656 5.648438 C 7.25 5.550781 7.121094 5.5 6.992188 5.5 Z M 7 12 L 10 12 L 10 15 L 7 15 L 7 14 L 8.5 14 L 8.5 13 L 7 13 Z M 7 12 "/>
</g>
</svg>
