
<svg xmlns="http://www.w3.org/2000/svg" xmlns:xlink="http://www.w3.org/1999/xlink" width="16px" height="16px" viewBox="0 0 16 16" version="1.1">
<g id="surface1">
<path style=" stroke:none;fill-rule:nonzero;fill:#ff6666;fill-opacity:1;" d="M 2 0 L 2 6 L 3 6.75 L 3 14.5 C 3 15.332031 3.667969 16 4.5 16 C 5.332031 16 6 15.332031 6 14.5 L 6 6.75 L 7 6 L 7 0 L 6 0 L 6 5.5 L 5 6 L 5 0 L 4 0 L 4 6 L 3 5.5 L 3 0 Z M 4 7.109375 L 5 7.109375 L 5 14.5 C 5 14.777344 4.777344 15 4.5 15 C 4.222656 15 4 14.777344 4 14.5 Z M 4 7.109375 "/>
<path style=" stroke:none;fill-rule:nonzero;fill:#ff6666;fill-opacity:1;" d="M 13 0 C 11.570312 0 10.25 0.953125 9.535156 2.5 C 8.820312 4.046875 8.820312 5.953125 9.535156 7.5 C 9.667969 7.785156 9.824219 8.050781 10 8.296875 L 10 14.5 C 10 15.332031 10.667969 16 11.5 16 C 12.332031 16 13 15.332031 13 14.5 Z M 12 1.28125 L 12 14.5 C 12 14.777344 11.777344 15 11.5 15 C 11.222656 15 11 14.777344 11 14.5 L 11 7.890625 C 10.714844 7.605469 10.480469 7.203125 10.3125 6.722656 C 9.964844 5.710938 9.878906 4.472656 10.226562 3.460938 C 10.574219 2.449219 11.175781 1.460938 12 1.28125 Z M 12 1.28125 "/>
</g>
</svg>
