
<svg xmlns="http://www.w3.org/2000/svg" xmlns:xlink="http://www.w3.org/1999/xlink" width="16px" height="16px" viewBox="0 0 16 16" version="1.1">
<g id="surface1">
<path style=" stroke:none;fill-rule:nonzero;fill:#ff6666;fill-opacity:1;" d="M 8.96875 1 C 8.367188 1 7.902344 1.527344 7.976562 2.121094 C 7.988281 2.246094 8 2.375 8 2.5 C 8 4.011719 7.039062 5.335938 5.625 5.8125 C 5.476562 5.875 5.210938 6.003906 5.089844 6.003906 L 3 6 C 2.445312 6 2 6.445312 2 7 L 2 13 C 2 13.554688 2.445312 14 3 14 L 5 14 L 11.015625 14.972656 C 11.984375 15.140625 12.921875 14.539062 13.175781 13.589844 L 14.839844 7.394531 C 15.160156 6.1875 14.25 5 13 5 L 11.546875 5 C 11.59375 4.6875 11.621094 4.355469 11.621094 4 C 11.621094 3.363281 11.550781 2.785156 11.394531 2.289062 C 11.316406 2.039062 11.226562 1.804688 11.046875 1.5625 C 10.867188 1.324219 10.519531 1 10 1 Z M 9.242188 2.101562 L 10 2.101562 C 10.039062 2.101562 10.09375 2.132812 10.15625 2.21875 C 10.222656 2.304688 10.285156 2.441406 10.339844 2.617188 C 10.449219 2.960938 10.515625 3.453125 10.515625 4 C 10.515625 4.527344 10.449219 5.003906 10.347656 5.347656 C 10.328125 5.398438 10.328125 5.460938 10.324219 5.507812 C 10.324219 5.78125 10.546875 6 10.824219 6 L 13 6 C 13.59375 6 14.023438 6.5625 13.871094 7.136719 L 12.210938 13.332031 C 12.089844 13.78125 11.644531 14.066406 11.1875 13.984375 L 6 13.09375 L 6 6.832031 C 7.839844 6.195312 9.101562 4.46875 9.101562 2.5 C 9.101562 2.371094 9.089844 2.246094 9.078125 2.121094 Z M 3 7 L 5 7 L 5 13 L 3 13 Z M 3 7 "/>
</g>
</svg>
