
<svg xmlns="http://www.w3.org/2000/svg" xmlns:xlink="http://www.w3.org/1999/xlink" width="16px" height="16px" viewBox="0 0 16 16" version="1.1">
<g id="surface1">
<path style=" stroke:none;fill-rule:nonzero;fill:#ff6666;fill-opacity:1;" d="M 3 1 C 2.273438 1 1.671875 2.5 1.53125 4.5 C 1.519531 4.5 1.511719 4.5 1.5 4.5 C 0.949219 4.5 0.5 4.949219 0.5 5.5 C 0.5 5.746094 0.589844 5.980469 0.753906 6.164062 C 0.28125 6.417969 0 6.699219 0 7 L 0 14.5 C 0 14.777344 0.222656 15 0.5 15 L 2.070312 15 C 2.34375 15 2.570312 14.777344 2.570312 14.5 L 2.570312 12.464844 C 3.996094 12.792969 5.890625 13 8 13 C 10.109375 13 12.003906 12.792969 13.433594 12.464844 L 13.433594 14.5 C 13.433594 14.777344 13.65625 15 13.933594 15 L 15.5 15 C 15.777344 15 16 14.777344 16 14.5 L 16 7 C 16 6.699219 15.71875 6.417969 15.25 6.164062 C 15.410156 5.980469 15.5 5.742188 15.5 5.5 C 15.5 4.949219 15.050781 4.5 14.5 4.5 C 14.488281 4.5 14.480469 4.5 14.46875 4.5 C 14.328125 2.5 13.726562 1 13 1 Z M 3.335938 2 L 12.664062 2 C 13.128906 2 13.5 3.5625 13.5 5.5 C 13.5 5.519531 13.5 5.53125 13.5 5.550781 C 12.066406 5.210938 10.140625 5 8 5 C 5.859375 5 3.933594 5.210938 2.5 5.546875 C 2.5 5.53125 2.5 5.515625 2.5 5.5 C 2.5 3.5625 2.871094 2 3.335938 2 Z M 8 6 C 11.878906 6 15 6.644531 15 7.445312 L 15 10.558594 C 15 11.355469 11.878906 12 8 12 C 4.121094 12 1 11.355469 1 10.558594 L 1 7.445312 C 1 6.644531 4.121094 6 8 6 Z M 3 8 C 2.449219 8 2 8.449219 2 9 C 2 9.550781 2.449219 10 3 10 C 3.550781 10 4 9.550781 4 9 C 4 8.449219 3.550781 8 3 8 Z M 13 8 C 12.449219 8 12 8.449219 12 9 C 12 9.550781 12.449219 10 13 10 C 13.550781 10 14 9.550781 14 9 C 14 8.449219 13.550781 8 13 8 Z M 5.5 10 C 5.222656 10 5 10.222656 5 10.5 C 5 10.777344 5.222656 11 5.5 11 L 10.5 11 C 10.777344 11 11 10.777344 11 10.5 C 11 10.222656 10.777344 10 10.5 10 Z M 5.5 10 "/>
</g>
</svg>
