
<svg xmlns="http://www.w3.org/2000/svg" xmlns:xlink="http://www.w3.org/1999/xlink" width="16px" height="16px" viewBox="0 0 16 16" version="1.1">
<g id="surface1">
<path style=" stroke:none;fill-rule:nonzero;fill:#ff6666;fill-opacity:1;" d="M 8 0 C 5.238281 0 3 2.238281 3 5 L 3 7 L 2 7 L 2 16 L 14 16 L 14 7 L 13 7 L 13 5 C 13 2.238281 10.761719 0 8 0 Z M 8 1 C 10.222656 1 12 2.777344 12 5 L 12 7 L 4 7 L 4 5 C 4 2.777344 5.777344 1 8 1 Z M 3 8 L 13 8 L 13 15 L 3 15 Z M 9 9.75 L 7 10 L 7 13 L 9 13 Z M 9 9.75 "/>
</g>
</svg>
