
<svg xmlns="http://www.w3.org/2000/svg" xmlns:xlink="http://www.w3.org/1999/xlink" width="16px" height="16px" viewBox="0 0 16 16" version="1.1">
<g id="surface1">
<path style=" stroke:none;fill-rule:evenodd;fill:#ff6666;fill-opacity:1;" d="M 5.773438 6.804688 C 5.273438 7.4375 4.914062 8.1875 4.734375 9.003906 C 3.320312 8.578125 2.285156 7.265625 2.285156 5.714844 C 2.285156 3.820312 3.820312 2.285156 5.714844 2.285156 C 7.265625 2.285156 8.578125 3.320312 9.003906 4.734375 C 8.269531 4.898438 7.59375 5.199219 7.003906 5.621094 C 6.726562 5.464844 6.441406 5.320312 6.152344 5.183594 C 6.007812 4.722656 5.890625 4.253906 5.792969 3.78125 C 5.75 3.589844 5.714844 3.394531 5.6875 3.199219 C 5.667969 3.078125 5.605469 2.96875 5.507812 2.898438 C 5.410156 2.824219 5.285156 2.796875 5.167969 2.8125 C 5.046875 2.828125 4.941406 2.894531 4.867188 2.992188 C 4.796875 3.089844 4.765625 3.214844 4.78125 3.332031 C 4.8125 3.546875 4.851562 3.757812 4.894531 3.96875 C 4.949219 4.234375 5.011719 4.496094 5.074219 4.761719 C 4.808594 4.671875 4.535156 4.585938 4.261719 4.511719 C 4.09375 4.46875 3.921875 4.425781 3.75 4.390625 C 3.632812 4.367188 3.507812 4.394531 3.40625 4.460938 C 3.304688 4.527344 3.234375 4.628906 3.210938 4.75 C 3.1875 4.867188 3.214844 4.992188 3.28125 5.09375 C 3.347656 5.195312 3.449219 5.265625 3.570312 5.289062 C 3.71875 5.316406 3.871094 5.355469 4.019531 5.394531 C 4.410156 5.5 4.792969 5.625 5.171875 5.769531 C 5.253906 5.800781 5.335938 5.835938 5.417969 5.871094 C 5.523438 6.1875 5.640625 6.496094 5.773438 6.804688 Z M 7.617188 8.140625 C 7.773438 7.945312 7.949219 7.765625 8.148438 7.613281 C 8.230469 7.691406 8.304688 7.777344 8.382812 7.859375 C 8.226562 8.058594 8.050781 8.234375 7.851562 8.390625 C 7.769531 8.308594 7.695312 8.222656 7.617188 8.140625 Z M 8.996094 10.378906 C 8.40625 10.800781 7.730469 11.101562 6.996094 11.265625 C 7.421875 12.679688 8.734375 13.714844 10.285156 13.714844 C 12.179688 13.714844 13.714844 12.179688 13.714844 10.285156 C 13.714844 8.734375 12.679688 7.421875 11.265625 6.996094 C 11.085938 7.8125 10.726562 8.5625 10.226562 9.199219 C 10.355469 9.503906 10.476562 9.8125 10.582031 10.128906 C 10.664062 10.164062 10.746094 10.199219 10.828125 10.230469 C 11.207031 10.375 11.589844 10.5 11.980469 10.605469 C 12.128906 10.644531 12.277344 10.679688 12.429688 10.710938 C 12.550781 10.734375 12.652344 10.804688 12.722656 10.90625 C 12.789062 11.007812 12.8125 11.132812 12.789062 11.25 C 12.765625 11.367188 12.695312 11.472656 12.59375 11.539062 C 12.492188 11.609375 12.367188 11.632812 12.25 11.609375 C 12.078125 11.574219 11.90625 11.53125 11.738281 11.484375 C 11.464844 11.410156 11.191406 11.328125 10.925781 11.238281 C 10.988281 11.503906 11.050781 11.765625 11.105469 12.035156 C 11.148438 12.242188 11.1875 12.457031 11.21875 12.667969 C 11.234375 12.789062 11.203125 12.910156 11.132812 13.007812 C 11.058594 13.105469 10.949219 13.167969 10.832031 13.1875 C 10.710938 13.203125 10.589844 13.175781 10.492188 13.101562 C 10.394531 13.027344 10.332031 12.921875 10.3125 12.800781 C 10.285156 12.605469 10.25 12.414062 10.210938 12.222656 C 10.113281 11.746094 9.992188 11.277344 9.847656 10.816406 C 9.558594 10.679688 9.273438 10.535156 8.996094 10.378906 Z M 11.316406 4.683594 C 13.984375 5.152344 16 7.484375 16 10.285156 C 16 13.441406 13.441406 16 10.285156 16 C 7.484375 16 5.152344 13.984375 4.683594 11.316406 C 2.015625 10.847656 0 8.515625 0 5.714844 C 0 2.558594 2.558594 0 5.714844 0 C 8.515625 0 10.847656 2.015625 11.316406 4.683594 Z M 11.316406 4.683594 "/>
</g>
</svg>
