
<svg xmlns="http://www.w3.org/2000/svg" xmlns:xlink="http://www.w3.org/1999/xlink" width="16px" height="16px" viewBox="0 0 16 16" version="1.1">
<g id="surface1">
<path style=" stroke:none;fill-rule:evenodd;fill:#ff6666;fill-opacity:1;" d="M 5.359375 13.667969 L 5.332031 13.667969 C 5.332031 14.953125 6.527344 16 8 16 C 9.472656 16 10.667969 14.953125 10.667969 13.667969 L 10.640625 13.667969 C 10.65625 13.558594 10.667969 13.445312 10.667969 13.332031 L 5.332031 13.332031 C 5.332031 13.445312 5.34375 13.558594 5.359375 13.667969 Z M 12.007812 13.5 C 12.003906 13.554688 12 13.609375 12 13.667969 C 12 14.769531 12.894531 15.667969 14 15.667969 C 15.105469 15.667969 16 14.769531 16 13.667969 C 16 13.609375 15.996094 13.554688 15.992188 13.5 C 15.996094 13.445312 16 13.390625 16 13.332031 C 16 12.230469 15.105469 11.332031 14 11.332031 C 12.894531 11.332031 12 12.230469 12 13.332031 C 12 13.390625 12.003906 13.445312 12.007812 13.5 Z M 0.0078125 13.5 C 0.00390625 13.554688 0 13.609375 0 13.667969 C 0 14.769531 0.894531 15.667969 2 15.667969 C 3.105469 15.667969 4 14.769531 4 13.667969 C 4 13.609375 3.996094 13.554688 3.992188 13.5 C 3.996094 13.445312 4 13.390625 4 13.332031 C 4 12.230469 3.105469 11.332031 2 11.332031 C 0.894531 11.332031 0 12.230469 0 13.332031 C 0 13.390625 0.00390625 13.445312 0.0078125 13.5 Z M 0.0078125 13.5 "/>
</g>
</svg>
