
<svg xmlns="http://www.w3.org/2000/svg" xmlns:xlink="http://www.w3.org/1999/xlink" width="16px" height="16px" viewBox="0 0 16 16" version="1.1">
<g id="surface1">
<path style=" stroke:none;fill-rule:evenodd;fill:#ff6666;fill-opacity:1;" d="M 11.476562 1.390625 L 4.105469 1.390625 C 4.046875 1.390625 3.984375 1.394531 3.925781 1.40625 C 3.769531 1.433594 3.617188 1.472656 3.46875 1.519531 C 3.140625 1.625 2.832031 1.765625 2.539062 1.949219 C 2.125 2.210938 1.777344 2.558594 1.515625 2.972656 C 1.199219 3.492188 1.035156 4.09375 1.042969 4.703125 L 1.042969 11.128906 L 3.128906 11.128906 L 3.128906 4.695312 C 3.128906 4.6875 3.128906 4.683594 3.128906 4.679688 C 3.128906 4.464844 3.183594 4.253906 3.289062 4.070312 C 3.382812 3.925781 3.507812 3.808594 3.648438 3.71875 C 3.796875 3.628906 3.949219 3.558594 4.109375 3.507812 C 4.144531 3.496094 4.175781 3.484375 4.210938 3.476562 L 11.777344 3.476562 C 11.78125 3.476562 11.78125 3.476562 11.785156 3.476562 L 14.648438 3.476562 C 14.773438 3.476562 14.886719 3.402344 14.933594 3.289062 C 14.980469 3.175781 14.953125 3.042969 14.867188 2.953125 L 12.003906 0.0898438 C 11.941406 0.03125 11.863281 0 11.78125 0 C 11.613281 0.00390625 11.476562 0.140625 11.476562 0.308594 Z M 4.523438 14.609375 L 11.894531 14.609375 C 11.953125 14.609375 12.015625 14.605469 12.074219 14.59375 C 12.230469 14.566406 12.382812 14.527344 12.53125 14.480469 C 12.859375 14.375 13.167969 14.234375 13.460938 14.050781 C 13.875 13.789062 14.222656 13.441406 14.484375 13.027344 C 14.800781 12.507812 14.964844 11.90625 14.957031 11.296875 L 14.957031 4.871094 L 12.867188 4.871094 L 12.867188 11.304688 C 12.867188 11.3125 12.867188 11.316406 12.867188 11.320312 C 12.871094 11.535156 12.816406 11.746094 12.710938 11.929688 C 12.613281 12.074219 12.492188 12.191406 12.351562 12.28125 C 12.203125 12.371094 12.050781 12.441406 11.886719 12.492188 C 11.855469 12.503906 11.824219 12.515625 11.789062 12.523438 L 4.222656 12.523438 C 4.21875 12.523438 4.21875 12.523438 4.214844 12.523438 L 1.351562 12.523438 C 1.226562 12.523438 1.113281 12.597656 1.066406 12.710938 C 1.019531 12.824219 1.046875 12.957031 1.132812 13.046875 L 3.996094 15.910156 C 4.054688 15.96875 4.136719 16 4.21875 16 C 4.386719 15.996094 4.523438 15.859375 4.523438 15.691406 Z M 6.144531 6.261719 L 6.378906 6.261719 C 6.890625 6.261719 7.304688 6.675781 7.304688 7.1875 L 7.304688 8.117188 C 7.304688 8.628906 6.890625 9.042969 6.378906 9.042969 L 6.144531 9.042969 C 5.632812 9.042969 5.21875 8.628906 5.21875 8.117188 L 5.21875 7.1875 C 5.21875 6.675781 5.632812 6.261719 6.144531 6.261719 Z M 9.621094 6.261719 L 9.855469 6.261719 C 10.367188 6.261719 10.78125 6.675781 10.78125 7.1875 L 10.78125 8.117188 C 10.78125 8.628906 10.367188 9.042969 9.855469 9.042969 L 9.621094 9.042969 C 9.109375 9.042969 8.695312 8.628906 8.695312 8.117188 L 8.695312 7.1875 C 8.695312 6.675781 9.109375 6.261719 9.621094 6.261719 Z M 9.621094 6.261719 "/>
</g>
</svg>
