
<svg xmlns="http://www.w3.org/2000/svg" xmlns:xlink="http://www.w3.org/1999/xlink" width="16px" height="16px" viewBox="0 0 16 16" version="1.1">
<g id="surface1">
<path style=" stroke:none;fill-rule:nonzero;fill:#ff6666;fill-opacity:1;" d="M 6.464844 0 C 6.363281 -0.00390625 6.261719 0.0078125 6.148438 0.0234375 C 5.417969 0.140625 4.933594 0.605469 4.5 1.609375 C 3.679688 3.464844 2.898438 5.335938 2.339844 6.648438 C 1.726562 7.859375 1.09375 9.167969 0.929688 9.554688 C 0.484375 10.621094 0.441406 11.640625 0.882812 10.726562 C 1.097656 10.28125 1.765625 9.679688 2.390625 9.371094 C 2.960938 9.085938 3.195312 9.035156 3.152344 9.203125 C 3.105469 9.386719 3.007812 9.761719 3.007812 9.828125 C 3.238281 9.628906 3.648438 9.503906 3.773438 9.769531 C 3.847656 9.929688 3.824219 10.113281 3.660156 10.761719 C 3.472656 11.480469 3.433594 12.246094 3.523438 12.246094 C 3.648438 11.984375 3.9375 11.628906 4.226562 11.773438 C 4.417969 11.878906 4.445312 11.972656 4.511719 12.796875 C 4.566406 13.5 5.074219 14.472656 5.207031 14.519531 C 5.144531 14.109375 5.238281 13.890625 5.738281 14.136719 C 5.835938 14.183594 6.230469 14.535156 6.621094 14.914062 C 7.011719 15.296875 7.691406 15.765625 7.75 15.765625 C 7.75 15.765625 7.585938 15.53125 7.628906 15.433594 C 7.730469 15.191406 7.992188 15.175781 8.480469 15.375 C 8.707031 15.464844 9.1875 15.625 9.546875 15.726562 C 10.136719 15.902344 10.554688 16.027344 10.675781 15.996094 C 9.96875 15.59375 10.816406 15.40625 11.472656 15.191406 C 11.96875 15.019531 12.625 14.789062 13.171875 14.210938 C 12.808594 14.289062 12.898438 13.929688 12.953125 13.742188 C 13.09375 13.28125 13.066406 12.464844 12.898438 12.035156 C 12.777344 11.539062 12.359375 11.195312 11.996094 10.882812 C 12.015625 10.921875 12.03125 10.960938 12.042969 11.003906 C 12.058594 11.046875 12.070312 11.085938 12.078125 11.132812 C 12.085938 11.175781 12.09375 11.21875 12.097656 11.265625 C 12.101562 11.3125 12.105469 11.363281 12.105469 11.414062 C 12.105469 11.585938 12.058594 11.746094 11.976562 11.878906 C 12.082031 12.503906 12.261719 12.8125 11.914062 13.601562 C 11.644531 14.066406 11.128906 14.421875 10.71875 14.542969 C 10.175781 14.695312 9.867188 14.699219 9.3125 14.546875 C 7.957031 14.183594 6.808594 13.109375 6.535156 11.652344 C 6.390625 10.875 6.214844 10.425781 6.679688 10.894531 C 6.742188 10.835938 6.707031 10.417969 6.761719 10.351562 C 7.867188 9.066406 7.703125 6.78125 8.808594 6.546875 C 8.914062 6.546875 9 6.546875 9.085938 6.546875 C 9.554688 6.582031 9.789062 6.734375 10.105469 6.921875 C 10.109375 6.683594 9.753906 6.410156 9.691406 6.25 C 9.539062 5.878906 10.339844 6.152344 10.675781 6.222656 C 10.625 6.128906 9.890625 5.699219 9.839844 5.671875 C 9.796875 5.648438 9.761719 5.609375 10.472656 5.617188 C 10.472656 5.617188 10.027344 5.367188 9.648438 5.390625 C 9.414062 5.402344 9.222656 5.378906 9.210938 5.335938 C 9.160156 5.113281 10.117188 4.546875 10.914062 4.453125 C 11.539062 4.378906 11.894531 4.464844 12.011719 4.75 C 12.179688 5.15625 12.460938 5.425781 12.855469 5.554688 C 13.0625 5.625 13.304688 5.761719 13.394531 5.855469 C 13.960938 6.289062 13.984375 7.140625 13.800781 7.15625 C 13.800781 7.15625 14.066406 7.226562 14.402344 7.15625 C 15.226562 6.984375 15.675781 6.269531 15.285156 5.742188 C 15.15625 5.566406 15.105469 5.359375 15.070312 4.835938 C 15.023438 4.105469 14.945312 3.894531 14.523438 3.3125 C 14.375 3.105469 14.210938 2.773438 14.15625 2.570312 C 13.988281 1.933594 13.570312 1.378906 13.097656 0.902344 C 12.808594 0.613281 12.625 0.460938 12.546875 0.453125 C 12.546875 0.453125 13.007812 1.324219 13.019531 1.925781 C 13.019531 2.480469 12.671875 2.535156 12.367188 2.164062 C 12.097656 1.773438 12.078125 1.296875 11.492188 1.222656 C 11.492188 1.222656 11.675781 1.613281 11.625 1.664062 C 11.125 2.148438 10.53125 1.921875 10.167969 1.425781 C 10.015625 1.21875 9.761719 1.164062 9.761719 1.164062 C 9.835938 1.367188 9.644531 1.726562 9.183594 1.699219 C 8.976562 1.699219 8.589844 1.421875 7.8125 0.707031 C 7.28125 0.21875 6.898438 0.0117188 6.464844 0 Z M 6.464844 0 "/>
</g>
</svg>
