
<svg xmlns="http://www.w3.org/2000/svg" xmlns:xlink="http://www.w3.org/1999/xlink" width="16px" height="16px" viewBox="0 0 16 16" version="1.1">
<g id="surface1">
<path style=" stroke:none;fill-rule:nonzero;fill:#ff6666;fill-opacity:1;" d="M 0 0 C 0.234375 0.804688 4.898438 14.257812 5.542969 16 L 7.636719 13.746094 L 7.636719 0 Z M 9.710938 0 C 9.675781 0.332031 9.511719 2.824219 9.324219 5.828125 C 9.125 9.027344 8.945312 11.839844 8.921875 12.082031 C 8.914062 12.183594 8.910156 12.261719 8.90625 12.324219 L 10.226562 10.886719 C 10.632812 9.171875 12.386719 0.910156 12.539062 0 Z M 13.320312 0 C 13.113281 0.777344 11.109375 9.03125 10.835938 10.21875 L 11.570312 9.414062 C 12.132812 7.777344 14.339844 0.859375 14.570312 0 Z M 15.210938 0 C 14.949219 0.644531 12.488281 7.804688 12.214844 8.714844 L 12.695312 8.1875 C 13.453125 6.4375 15.804688 0.621094 16 0 Z M 15.210938 0 "/>
</g>
</svg>
