
<svg xmlns="http://www.w3.org/2000/svg" xmlns:xlink="http://www.w3.org/1999/xlink" width="16px" height="16px" viewBox="0 0 16 16" version="1.1">
<g id="surface1">
<path style=" stroke:none;fill-rule:nonzero;fill:#ff6666;fill-opacity:1;" d="M 14.058594 10.226562 L 13.753906 10.953125 L 5.015625 8.332031 C 5.003906 8.382812 4.980469 8.464844 4.949219 8.570312 C 4.917969 8.664062 4.898438 8.738281 4.882812 8.792969 C 4.652344 9.765625 4.703125 10.5625 5.039062 11.179688 C 5.382812 11.800781 6.007812 12.246094 6.917969 12.519531 C 7.703125 12.757812 8.566406 12.851562 9.507812 12.808594 C 10.457031 12.769531 11.484375 12.59375 12.585938 12.28125 L 11.121094 15.835938 C 10.105469 15.992188 9.125 16.035156 8.171875 15.972656 C 7.222656 15.917969 6.285156 15.75 5.351562 15.46875 C 3.53125 14.921875 2.253906 13.960938 1.519531 12.582031 C 0.792969 11.203125 0.664062 9.527344 1.136719 7.554688 C 1.410156 6.410156 1.832031 5.351562 2.398438 4.371094 C 2.980469 3.386719 3.675781 2.539062 4.496094 1.824219 C 5.46875 0.96875 6.515625 0.410156 7.644531 0.15625 C 8.777344 -0.0976562 9.949219 -0.0429688 11.167969 0.324219 C 12.746094 0.796875 13.867188 1.710938 14.53125 3.070312 C 15.203125 4.429688 15.320312 6.027344 14.882812 7.859375 C 14.796875 8.214844 14.6875 8.589844 14.546875 8.980469 C 14.417969 9.363281 14.257812 9.777344 14.058594 10.226562 Z M 11.0625 6.972656 C 11.113281 6.859375 11.152344 6.75 11.1875 6.636719 C 11.230469 6.511719 11.269531 6.394531 11.296875 6.277344 C 11.464844 5.5625 11.433594 4.945312 11.203125 4.425781 C 10.96875 3.90625 10.566406 3.5625 9.996094 3.390625 C 9.269531 3.171875 8.585938 3.242188 7.945312 3.609375 C 7.316406 3.964844 6.746094 4.601562 6.234375 5.523438 Z M 11.0625 6.972656 "/>
</g>
</svg>
