
<svg xmlns="http://www.w3.org/2000/svg" xmlns:xlink="http://www.w3.org/1999/xlink" width="16px" height="16px" viewBox="0 0 16 16" version="1.1">
<g id="surface1">
<path style=" stroke:none;fill-rule:nonzero;fill:#ff6666;fill-opacity:1;" d="M 6.058594 0.0078125 C 5.753906 0.0273438 5.457031 0.136719 5.214844 0.320312 C 4.554688 0.832031 4.363281 1.847656 4.902344 2.542969 C 5.140625 2.851562 5.460938 3.140625 5.871094 3.480469 C 6.078125 3.652344 6.277344 3.8125 6.527344 3.949219 L 6.589844 3.980469 L 1.488281 3.980469 C 1.210938 3.980469 0.988281 4.207031 0.988281 4.480469 L 0.988281 7.488281 C 0.988281 7.765625 1.210938 7.988281 1.488281 7.988281 L 1.992188 7.988281 L 1.992188 15.5 C 1.992188 15.777344 2.214844 16 2.492188 16 L 13.507812 16 C 13.785156 16 14.007812 15.777344 14.007812 15.5 L 14.007812 7.988281 L 14.511719 7.988281 C 14.789062 7.988281 15.011719 7.765625 15.011719 7.488281 L 15.011719 4.480469 C 15.011719 4.207031 14.789062 3.980469 14.511719 3.980469 L 9.660156 3.980469 C 9.792969 3.898438 9.921875 3.820312 10.035156 3.730469 C 10.339844 3.488281 10.550781 3.351562 10.785156 3.042969 C 11.296875 2.382812 11.105469 1.472656 10.503906 1.007812 C 10.222656 0.792969 9.839844 0.71875 9.472656 0.757812 C 9.101562 0.800781 8.726562 0.964844 8.5 1.261719 C 8.3125 1.5 8.226562 1.710938 8.125 1.949219 C 8.105469 1.902344 8.082031 1.863281 8.0625 1.824219 C 7.96875 1.589844 7.863281 1.359375 7.75 1.132812 C 7.640625 0.925781 7.585938 0.792969 7.4375 0.601562 C 7.175781 0.269531 6.792969 0.0546875 6.371094 0.0078125 C 6.273438 -0.00390625 6.164062 0 6.058594 0.0078125 Z M 6.183594 0.945312 C 6.371094 0.960938 6.539062 1.050781 6.652344 1.195312 C 6.859375 1.460938 7.605469 2.964844 7.34375 3.167969 C 7.078125 3.375 5.890625 2.210938 5.683594 1.949219 C 5.589844 1.820312 5.546875 1.65625 5.570312 1.5 C 5.59375 1.339844 5.679688 1.199219 5.808594 1.101562 C 5.875 1.046875 5.949219 1.003906 6.027344 0.976562 C 6.085938 0.960938 6.128906 0.941406 6.183594 0.945312 Z M 9.597656 1.726562 C 9.699219 1.714844 9.785156 1.75 9.878906 1.824219 C 10.0625 1.964844 10.113281 2.234375 9.972656 2.417969 C 9.832031 2.601562 8.996094 3.371094 8.8125 3.230469 C 8.632812 3.089844 9.171875 2.066406 9.316406 1.886719 C 9.382812 1.796875 9.484375 1.742188 9.59375 1.730469 Z M 1.992188 4.984375 L 7 4.984375 L 7 6.984375 L 1.992188 6.984375 Z M 9 4.984375 L 14.007812 4.984375 L 14.007812 6.984375 L 9 6.984375 Z M 2.992188 7.988281 L 7 7.988281 L 7 15 L 2.992188 15 Z M 9 7.988281 L 13.007812 7.988281 L 13.007812 15 L 9 15 Z M 9 7.988281 "/>
</g>
</svg>
