
<svg xmlns="http://www.w3.org/2000/svg" xmlns:xlink="http://www.w3.org/1999/xlink" width="16px" height="16px" viewBox="0 0 16 16" version="1.1">
<g id="surface1">
<path style=" stroke:none;fill-rule:nonzero;fill:#ff6666;fill-opacity:1;" d="M 0 12.964844 C 2.730469 12.183594 5.308594 10.890625 7.5625 9.167969 C 8.328125 8.582031 9.074219 7.929688 9.539062 7.085938 C 9.773438 6.664062 9.933594 6.195312 9.972656 5.714844 C 10.015625 5.238281 9.933594 4.742188 9.714844 4.3125 C 9.527344 3.953125 9.242188 3.644531 8.90625 3.410156 C 8.570312 3.179688 8.183594 3.027344 7.785156 2.945312 C 6.984375 2.78125 6.148438 2.902344 5.375 3.164062 C 4.332031 3.511719 3.359375 4.117188 2.65625 4.964844 C 1.953125 5.816406 1.535156 6.914062 1.589844 8.015625 C 1.652344 9.214844 2.269531 10.34375 3.144531 11.164062 C 4.023438 11.980469 5.144531 12.503906 6.304688 12.804688 C 8.003906 13.25 9.816406 13.238281 11.507812 12.777344 C 13.199219 12.316406 14.761719 11.402344 16 10.160156 L 15.988281 6.933594 C 14.894531 8.621094 13.238281 9.9375 11.347656 10.617188 C 9.921875 11.128906 8.335938 11.28125 6.890625 10.828125 C 6.167969 10.605469 5.488281 10.230469 4.929688 9.71875 C 4.375 9.207031 3.941406 8.554688 3.710938 7.835938 C 3.441406 7 3.460938 6.058594 3.859375 5.277344 C 4.058594 4.886719 4.351562 4.542969 4.714844 4.296875 C 5.074219 4.046875 5.503906 3.898438 5.945312 3.878906 C 6.238281 3.867188 6.53125 3.917969 6.804688 4.03125 C 7.074219 4.148438 7.316406 4.328125 7.492188 4.5625 C 7.699219 4.828125 7.8125 5.160156 7.84375 5.496094 C 7.871094 5.835938 7.816406 6.175781 7.707031 6.496094 C 7.484375 7.132812 7.050781 7.671875 6.601562 8.175781 C 4.769531 10.210938 2.503906 11.855469 0 12.964844 "/>
</g>
</svg>
