
<svg xmlns="http://www.w3.org/2000/svg" xmlns:xlink="http://www.w3.org/1999/xlink" width="16px" height="16px" viewBox="0 0 16 16" version="1.1">
<g id="surface1">
<path style=" stroke:none;fill-rule:nonzero;fill:#ff6666;fill-opacity:1;" d="M 6.234375 10.511719 L 5.617188 10.511719 L 5.617188 9.921875 C 5.617188 9.882812 5.589844 9.851562 5.550781 9.851562 L 1.667969 9.851562 C 1.632812 9.851562 1.601562 9.882812 1.601562 9.921875 L 1.601562 10.511719 L 1.5625 10.511719 C 1.261719 10.511719 1.015625 10.757812 1.015625 11.058594 L 1.015625 15.453125 C 1.015625 15.753906 1.261719 16 1.5625 16 L 14.4375 16 C 14.738281 16 14.984375 15.753906 14.984375 15.453125 L 14.984375 11.058594 C 14.984375 10.757812 14.738281 10.511719 14.4375 10.511719 L 14.398438 10.511719 L 14.398438 9.921875 C 14.398438 9.882812 14.367188 9.851562 14.332031 9.851562 L 10.449219 9.851562 C 10.410156 9.851562 10.382812 9.882812 10.382812 9.921875 L 10.382812 10.511719 L 9.359375 10.511719 L 9.359375 8.980469 C 9.359375 8.914062 9.304688 8.863281 9.238281 8.863281 L 8.589844 8.863281 L 8.589844 5.449219 C 9.367188 5.253906 10.054688 4.71875 10.417969 3.933594 C 11.058594 2.546875 10.457031 0.898438 9.070312 0.257812 C 7.683594 -0.386719 6.035156 0.21875 5.394531 1.605469 C 4.753906 2.992188 5.355469 4.636719 6.742188 5.277344 L 6.742188 5.28125 C 6.828125 5.320312 6.917969 5.355469 7.007812 5.386719 L 7.007812 8.863281 L 6.355469 8.863281 C 6.289062 8.863281 6.234375 8.914062 6.234375 8.980469 Z M 6.234375 10.511719 "/>
</g>
</svg>
