
<svg xmlns="http://www.w3.org/2000/svg" xmlns:xlink="http://www.w3.org/1999/xlink" width="16px" height="16px" viewBox="0 0 16 16" version="1.1">
<g id="surface1">
<path style=" stroke:none;fill-rule:evenodd;fill:#ff6666;fill-opacity:1;" d="M 0 0 C 1.964844 2.070312 1.113281 3.394531 2.191406 5.832031 C 3.191406 8.09375 5.371094 6.402344 6.859375 8 C 5.371094 9.597656 3.183594 7.898438 2.183594 10.160156 C 1.105469 12.597656 1.964844 13.929688 0 16 C 2.070312 14.035156 3.402344 14.894531 5.839844 13.816406 C 8.101562 12.816406 6.40625 10.636719 8.007812 9.148438 C 9.59375 10.636719 7.910156 12.824219 10.167969 13.824219 C 12.605469 14.902344 13.929688 14.035156 16 16 C 14.035156 13.929688 14.902344 12.605469 13.824219 10.167969 C 12.824219 7.910156 10.644531 9.589844 9.15625 8 C 10.644531 6.410156 12.824219 8.089844 13.824219 5.832031 C 14.902344 3.394531 14.035156 2.070312 16 0 C 13.929688 1.964844 12.605469 1.097656 10.167969 2.175781 C 7.910156 3.175781 9.59375 5.363281 8.007812 6.851562 C 6.40625 5.363281 8.101562 3.183594 5.839844 2.183594 C 3.402344 1.105469 2.070312 1.964844 0 0 Z M 0 0 "/>
</g>
</svg>
