
<svg xmlns="http://www.w3.org/2000/svg" xmlns:xlink="http://www.w3.org/1999/xlink" width="16px" height="16px" viewBox="0 0 16 16" version="1.1">
<g id="surface1">
<path style=" stroke:none;fill-rule:nonzero;fill:#ff6666;fill-opacity:1;" d="M 6.699219 0 C 6.222656 -0.0078125 6.121094 0.0117188 5.988281 0.128906 C 5.886719 0.21875 5.800781 0.390625 5.769531 0.578125 C 5.757812 0.664062 5.75 1.265625 5.75 2.210938 C 5.75 3.40625 5.742188 3.703125 5.722656 3.703125 C 5.710938 3.703125 4.945312 2.953125 4.03125 2.035156 C 3.113281 1.117188 2.324219 0.339844 2.273438 0.308594 C 2.140625 0.214844 1.90625 0.105469 1.71875 0.0546875 C 1.5625 0.0117188 1.496094 0.0117188 0.796875 0.00390625 C 0.378906 -0.00390625 0.0390625 0 0.0390625 0.0117188 C 0.0390625 0.0195312 1.628906 1.613281 3.566406 3.554688 C 5.367188 5.355469 6.644531 6.625 6.855469 6.828125 L 6.855469 0.00390625 Z M 9.300781 0 L 9.144531 0.00390625 L 9.144531 6.828125 C 9.355469 6.625 10.632812 5.355469 12.433594 3.554688 C 14.371094 1.613281 15.960938 0.0195312 15.960938 0.0117188 C 15.960938 0.00390625 15.621094 -0.00390625 15.203125 0.00390625 C 14.503906 0.0117188 14.4375 0.0117188 14.28125 0.0546875 C 14.09375 0.105469 13.859375 0.214844 13.726562 0.308594 C 13.675781 0.339844 12.886719 1.117188 11.96875 2.035156 C 11.054688 2.953125 10.289062 3.703125 10.277344 3.703125 C 10.257812 3.703125 10.25 3.40625 10.25 2.210938 C 10.25 1.265625 10.242188 0.664062 10.230469 0.578125 C 10.199219 0.390625 10.113281 0.21875 10.011719 0.128906 C 9.878906 0.015625 9.777344 -0.0078125 9.300781 0 Z M 0.0234375 2.914062 C 0 2.914062 -0.00390625 3.042969 0.00390625 3.628906 C 0.0117188 4.316406 0.0117188 4.347656 0.0664062 4.539062 C 0.128906 4.78125 0.21875 4.976562 0.347656 5.171875 C 0.417969 5.28125 0.792969 5.671875 1.777344 6.660156 L 3.113281 8 L 1.777344 9.335938 C 0.792969 10.324219 0.417969 10.714844 0.347656 10.824219 C 0.21875 11.019531 0.128906 11.21875 0.0664062 11.457031 C 0.0117188 11.648438 0.0117188 11.679688 0.00390625 12.367188 C -0.00390625 12.953125 0 13.082031 0.0234375 13.082031 C 0.0625 13.082031 5.105469 8.035156 5.105469 8 C 5.105469 7.960938 0.0625 2.914062 0.0234375 2.914062 Z M 15.976562 2.914062 C 15.9375 2.914062 10.894531 7.960938 10.894531 8 C 10.894531 8.035156 15.9375 13.082031 15.976562 13.082031 C 16 13.082031 16.003906 12.953125 15.996094 12.367188 C 15.988281 11.679688 15.988281 11.648438 15.933594 11.457031 C 15.871094 11.21875 15.78125 11.019531 15.652344 10.824219 C 15.582031 10.714844 15.207031 10.324219 14.222656 9.335938 L 12.886719 8 L 14.222656 6.660156 C 15.207031 5.671875 15.582031 5.28125 15.652344 5.171875 C 15.78125 4.976562 15.871094 4.78125 15.933594 4.539062 C 15.988281 4.347656 15.988281 4.316406 15.996094 3.628906 C 16.003906 3.042969 16 2.914062 15.976562 2.914062 Z M 6.855469 9.167969 C 6.371094 9.636719 0.0390625 15.964844 0.0390625 15.984375 C 0.0390625 15.996094 0.378906 16 0.796875 15.996094 C 1.496094 15.988281 1.5625 15.984375 1.71875 15.941406 C 1.90625 15.890625 2.140625 15.78125 2.273438 15.691406 C 2.324219 15.65625 3.113281 14.878906 4.03125 13.960938 C 4.945312 13.042969 5.710938 12.289062 5.722656 12.289062 C 5.742188 12.289062 5.75 12.589844 5.75 13.785156 C 5.75 14.730469 5.757812 15.332031 5.769531 15.414062 C 5.820312 15.710938 5.960938 15.90625 6.175781 15.96875 C 6.25 15.992188 6.386719 16 6.6875 16 C 6.777344 16 6.789062 15.996094 6.855469 15.996094 Z M 9.144531 9.167969 L 9.144531 15.996094 C 9.210938 15.996094 9.222656 16 9.3125 16 C 9.613281 16 9.75 15.992188 9.824219 15.96875 C 10.039062 15.90625 10.179688 15.710938 10.230469 15.414062 C 10.242188 15.332031 10.25 14.730469 10.25 13.785156 C 10.25 12.589844 10.257812 12.289062 10.277344 12.289062 C 10.289062 12.289062 11.054688 13.042969 11.96875 13.960938 C 12.886719 14.878906 13.675781 15.65625 13.726562 15.691406 C 13.859375 15.78125 14.09375 15.890625 14.28125 15.941406 C 14.4375 15.984375 14.503906 15.988281 15.203125 15.996094 C 15.621094 16 15.960938 15.996094 15.960938 15.984375 C 15.960938 15.964844 9.628906 9.636719 9.144531 9.167969 Z M 9.144531 9.167969 "/>
</g>
</svg>
