
<svg xmlns="http://www.w3.org/2000/svg" xmlns:xlink="http://www.w3.org/1999/xlink" width="16px" height="16px" viewBox="0 0 16 16" version="1.1">
<g id="surface1">
<path style=" stroke:none;fill-rule:evenodd;fill:#ff6666;fill-opacity:1;" d="M 14.351562 8.582031 L 13.03125 8.582031 L 13.03125 13.53125 L 11.378906 13.53125 L 11.378906 2.308594 L 13.03125 2.308594 L 13.03125 6.929688 L 14.351562 6.929688 L 14.351562 2.308594 L 16 2.308594 L 16 13.53125 L 14.351562 13.53125 Z M 7.261719 12.039062 L 7.261719 8.582031 L 10.390625 8.582031 L 10.390625 6.929688 L 7.261719 6.929688 L 7.261719 3.960938 L 10.390625 3.960938 L 10.390625 2.308594 L 5.769531 2.308594 L 5.769531 2.46875 L 5.609375 2.46875 L 5.609375 13.691406 L 10.230469 13.691406 L 10.230469 12.039062 Z M 1.648438 8.738281 L 1.648438 13.691406 L 0 13.691406 L 0 2.46875 L 4.621094 2.46875 L 4.621094 4.117188 L 1.648438 4.117188 L 1.648438 7.089844 L 4.621094 7.089844 L 4.621094 8.738281 Z M 1.648438 8.738281 "/>
</g>
</svg>
