
<svg xmlns="http://www.w3.org/2000/svg" xmlns:xlink="http://www.w3.org/1999/xlink" width="16px" height="16px" viewBox="0 0 16 16" version="1.1">
<g id="surface1">
<path style=" stroke:none;fill-rule:nonzero;fill:#ff6666;fill-opacity:1;" d="M 3.628906 0 L 0.417969 3.214844 L 1.488281 4.28125 L 4.699219 1.070312 Z M 12.371094 0 L 9.425781 2.945312 L 12.640625 6.15625 L 15.582031 3.214844 Z M 5.503906 1.875 L 2.289062 5.085938 L 3.359375 6.15625 L 6.574219 2.945312 Z M 7.988281 4.644531 C 6.324219 4.644531 4.960938 6.007812 4.960938 7.671875 C 4.960938 9.335938 6.324219 10.699219 7.988281 10.699219 C 9.652344 10.699219 11.015625 9.335938 11.015625 7.671875 C 11.015625 6.007812 9.652344 4.644531 7.988281 4.644531 Z M 7.988281 6.15625 C 8.832031 6.15625 9.503906 6.828125 9.503906 7.671875 C 9.503906 8.515625 8.832031 9.1875 7.988281 9.1875 C 7.144531 9.1875 6.472656 8.515625 6.472656 7.671875 C 6.472656 6.828125 7.144531 6.15625 7.988281 6.15625 Z M 5.71875 11.835938 L 5.71875 13.351562 L 10.261719 13.351562 L 10.261719 11.835938 Z M 5.71875 14.484375 L 5.71875 16 L 10.261719 16 L 10.261719 14.484375 Z M 5.71875 14.484375 "/>
</g>
</svg>
