
<svg xmlns="http://www.w3.org/2000/svg" xmlns:xlink="http://www.w3.org/1999/xlink" width="16px" height="16px" viewBox="0 0 16 16" version="1.1">
<g id="surface1">
<path style=" stroke:none;fill-rule:nonzero;fill:#ff6666;fill-opacity:1;" d="M 5.667969 16 C 7.136719 16 8.332031 14.804688 8.332031 13.332031 L 8.332031 10.667969 L 5.667969 10.667969 C 4.195312 10.667969 3 11.859375 3 13.332031 C 3 14.804688 4.195312 16 5.667969 16 Z M 5.667969 16 "/>
<path style=" stroke:none;fill-rule:nonzero;fill:#ff6666;fill-opacity:1;" d="M 3 8 C 3 6.527344 4.195312 5.332031 5.667969 5.332031 L 8.332031 5.332031 L 8.332031 10.667969 L 5.667969 10.667969 C 4.195312 10.667969 3 9.472656 3 8 Z M 3 8 "/>
<path style=" stroke:none;fill-rule:nonzero;fill:#ff6666;fill-opacity:1;" d="M 3 2.667969 C 3 1.195312 4.195312 0 5.667969 0 L 8.332031 0 L 8.332031 5.332031 L 5.667969 5.332031 C 4.195312 5.332031 3 4.136719 3 2.667969 Z M 3 2.667969 "/>
<path style=" stroke:none;fill-rule:nonzero;fill:#ff6666;fill-opacity:1;" d="M 8.332031 0 L 11 0 C 12.472656 0 13.667969 1.195312 13.667969 2.667969 C 13.667969 4.136719 12.472656 5.332031 11 5.332031 L 8.332031 5.332031 Z M 8.332031 0 "/>
<path style=" stroke:none;fill-rule:nonzero;fill:#ff6666;fill-opacity:1;" d="M 13.667969 8 C 13.667969 9.472656 12.472656 10.667969 11 10.667969 C 9.527344 10.667969 8.332031 9.472656 8.332031 8 C 8.332031 6.527344 9.527344 5.332031 11 5.332031 C 12.472656 5.332031 13.667969 6.527344 13.667969 8 Z M 13.667969 8 "/>
</g>
</svg>
