
<svg xmlns="http://www.w3.org/2000/svg" xmlns:xlink="http://www.w3.org/1999/xlink" width="16px" height="16px" viewBox="0 0 16 16" version="1.1">
<g id="surface1">
<path style=" stroke:none;fill-rule:nonzero;fill:#ff6666;fill-opacity:1;" d="M 1.144531 0 C 0.542969 0 0.0546875 0.460938 0.0078125 1.046875 C 0.476562 1.050781 0.855469 1.433594 0.855469 1.902344 C 0.855469 2.378906 0.472656 2.761719 0 2.761719 L 0 4.097656 C 0.472656 4.097656 0.855469 4.480469 0.855469 4.953125 C 0.855469 5.425781 0.472656 5.808594 0 5.808594 L 0 7.144531 C 0.472656 7.144531 0.855469 7.527344 0.855469 8 C 0.855469 8.472656 0.472656 8.855469 0 8.855469 L 0 10.191406 C 0.472656 10.191406 0.855469 10.574219 0.855469 11.046875 C 0.855469 11.519531 0.472656 11.902344 0 11.902344 L 0 13.238281 C 0.472656 13.238281 0.855469 13.621094 0.855469 14.097656 C 0.855469 14.566406 0.476562 14.949219 0.0078125 14.953125 C 0.0546875 15.539062 0.542969 16 1.144531 16 C 1.144531 15.527344 1.527344 15.144531 2 15.144531 C 2.472656 15.144531 2.855469 15.527344 2.855469 16 L 4.191406 16 C 4.191406 15.527344 4.574219 15.144531 5.046875 15.144531 C 5.519531 15.144531 5.902344 15.527344 5.902344 16 L 7.238281 16 C 7.238281 15.527344 7.621094 15.144531 8.097656 15.144531 C 8.570312 15.144531 8.953125 15.527344 8.953125 16 L 10.285156 16 C 10.285156 15.527344 10.671875 15.144531 11.144531 15.144531 C 11.617188 15.144531 12 15.527344 12 16 L 13.332031 16 C 13.332031 15.527344 13.714844 15.144531 14.191406 15.144531 C 14.65625 15.144531 15.039062 15.515625 15.046875 15.980469 C 15.558594 15.894531 15.953125 15.476562 15.992188 14.953125 C 15.523438 14.949219 15.144531 14.566406 15.144531 14.097656 C 15.144531 13.621094 15.527344 13.238281 16 13.238281 L 16 11.902344 C 15.527344 11.902344 15.144531 11.519531 15.144531 11.046875 C 15.144531 10.574219 15.527344 10.191406 16 10.191406 L 16 8.855469 C 15.527344 8.855469 15.144531 8.472656 15.144531 8 C 15.144531 7.527344 15.527344 7.144531 16 7.144531 L 16 5.808594 C 15.527344 5.808594 15.144531 5.425781 15.144531 4.953125 C 15.144531 4.480469 15.527344 4.097656 16 4.097656 L 16 2.761719 C 15.527344 2.761719 15.144531 2.378906 15.144531 1.902344 C 15.144531 1.433594 15.523438 1.050781 15.992188 1.046875 C 15.953125 0.523438 15.558594 0.105469 15.046875 0.0195312 C 15.039062 0.484375 14.65625 0.855469 14.191406 0.855469 C 13.714844 0.855469 13.332031 0.472656 13.332031 0 L 12 0 C 12 0.472656 11.617188 0.855469 11.144531 0.855469 C 10.671875 0.855469 10.285156 0.472656 10.285156 0 L 8.953125 0 C 8.953125 0.472656 8.570312 0.855469 8.097656 0.855469 C 7.621094 0.855469 7.238281 0.472656 7.238281 0 L 5.902344 0 C 5.902344 0.472656 5.519531 0.855469 5.046875 0.855469 C 4.574219 0.855469 4.191406 0.472656 4.191406 0 L 2.855469 0 C 2.855469 0.472656 2.472656 0.855469 2 0.855469 C 1.527344 0.855469 1.144531 0.472656 1.144531 0 Z M 4.921875 2.867188 L 11.441406 2.867188 L 11.109375 4.445312 L 6.265625 4.445312 L 5.789062 6.339844 L 13.175781 6.339844 L 12.792969 7.921875 L 9.269531 10.878906 C 10.5 10.921875 11.046875 12.011719 12.777344 10.792969 L 13.089844 12.390625 C 11.507812 13.296875 10.742188 13.054688 9.929688 12.832031 C 9.09375 12.601562 8.632812 12.273438 7.535156 12.835938 L 6.949219 13.132812 L 5.816406 11.835938 L 10.171875 7.964844 L 5.519531 7.964844 L 4.527344 12.09375 L 2.824219 12.09375 Z M 4.921875 2.867188 "/>
</g>
</svg>
