
<svg xmlns="http://www.w3.org/2000/svg" xmlns:xlink="http://www.w3.org/1999/xlink" width="16px" height="16px" viewBox="0 0 16 16" version="1.1">
<g id="surface1">
<path style=" stroke:none;fill-rule:evenodd;fill:#ff6666;fill-opacity:1;" d="M 4.707031 6.867188 C 4.707031 6.375 4.386719 6.207031 4 6.492188 C 3.613281 6.78125 3.292969 7.1875 3.292969 7.390625 C 3.292969 7.597656 3.613281 7.765625 4 7.765625 C 4.386719 7.765625 4.707031 7.359375 4.707031 6.867188 Z M 2.332031 9.058594 C 1.089844 7.675781 2.570312 5.882812 4.957031 5.882812 C 5.878906 5.882812 7.296875 6.359375 8.113281 6.941406 C 9.582031 7.988281 9.582031 8.011719 8.113281 9.058594 C 7.296875 9.640625 5.878906 10.117188 4.957031 10.117188 C 4.035156 10.117188 2.855469 9.640625 2.332031 9.058594 Z M 13.203125 9.054688 C 12.480469 8.089844 12.527344 7.667969 13.460938 6.628906 C 14.511719 5.457031 14.589844 5.535156 14.589844 7.800781 C 14.589844 10.550781 14.429688 10.695312 13.203125 9.054688 Z M 8.910156 10.484375 C 10.800781 9 10.871094 9 12.707031 10.484375 C 15.507812 12.753906 16 12.382812 16 8 C 16 3.617188 15.507812 3.246094 12.707031 5.515625 C 10.871094 7 10.800781 7 8.910156 5.515625 C 7.851562 4.683594 6.132812 4 5.09375 4 C 3.191406 4 0 6.507812 0 8 C 0 9.492188 3.191406 12 5.09375 12 C 6.132812 12 7.851562 11.316406 8.910156 10.484375 Z M 8.910156 10.484375 "/>
</g>
</svg>
