
<svg xmlns="http://www.w3.org/2000/svg" xmlns:xlink="http://www.w3.org/1999/xlink" width="16px" height="16px" viewBox="0 0 16 16" version="1.1">
<g id="surface1">
<path style=" stroke:none;fill-rule:nonzero;fill:#ff6666;fill-opacity:1;" d="M 0 0 L 0 16 L 1.066406 16 L 1.066406 14.769531 L 2.132812 14.769531 L 2.132812 16 L 13.867188 16 L 13.867188 14.769531 L 14.933594 14.769531 L 14.933594 16 L 16 16 L 16 0 L 14.933594 0 L 14.933594 1.230469 L 13.867188 1.230469 L 13.867188 0 L 2.132812 0 L 2.132812 1.230469 L 1.066406 1.230469 L 1.066406 0 Z M 3.199219 1.230469 L 12.800781 1.230469 L 12.800781 7.382812 L 3.199219 7.382812 Z M 1.066406 2.460938 L 2.132812 2.460938 L 2.132812 3.691406 L 1.066406 3.691406 Z M 13.867188 2.460938 L 14.933594 2.460938 L 14.933594 3.691406 L 13.867188 3.691406 Z M 1.066406 4.921875 L 2.132812 4.921875 L 2.132812 6.152344 L 1.066406 6.152344 Z M 13.867188 4.921875 L 14.933594 4.921875 L 14.933594 6.152344 L 13.867188 6.152344 Z M 1.066406 7.382812 L 2.132812 7.382812 L 2.132812 8.617188 L 1.066406 8.617188 Z M 13.867188 7.382812 L 14.933594 7.382812 L 14.933594 8.617188 L 13.867188 8.617188 Z M 3.199219 8.617188 L 12.800781 8.617188 L 12.800781 14.769531 L 3.199219 14.769531 Z M 1.066406 9.847656 L 2.132812 9.847656 L 2.132812 11.078125 L 1.066406 11.078125 Z M 13.867188 9.847656 L 14.933594 9.847656 L 14.933594 11.078125 L 13.867188 11.078125 Z M 1.066406 12.308594 L 2.132812 12.308594 L 2.132812 13.539062 L 1.066406 13.539062 Z M 13.867188 12.308594 L 14.933594 12.308594 L 14.933594 13.539062 L 13.867188 13.539062 Z M 13.867188 12.308594 "/>
</g>
</svg>
