
<svg xmlns="http://www.w3.org/2000/svg" xmlns:xlink="http://www.w3.org/1999/xlink" width="16px" height="16px" viewBox="0 0 16 16" version="1.1">
<g id="surface1">
<path style=" stroke:none;fill-rule:nonzero;fill:#ff6666;fill-opacity:1;" d="M 8.183594 0.00390625 C 6.039062 -0.046875 3.953125 0.695312 2.320312 2.082031 C 2.179688 2.203125 2.113281 2.390625 2.144531 2.570312 C 2.175781 2.753906 2.304688 2.902344 2.480469 2.964844 C 2.652344 3.027344 2.847656 2.992188 2.988281 2.871094 C 5.972656 0.332031 10.382812 0.425781 13.253906 3.089844 C 13.390625 3.21875 13.582031 3.265625 13.761719 3.210938 C 13.941406 3.15625 14.074219 3.011719 14.117188 2.828125 C 14.15625 2.648438 14.097656 2.457031 13.957031 2.332031 C 12.382812 0.875 10.332031 0.046875 8.1875 0.00390625 Z M 8 2.0625 C 4.304688 2.0625 1.308594 5.046875 1.289062 8.738281 C 1.289062 8.75 1.289062 8.757812 1.289062 8.765625 C 1.289062 8.769531 1.289062 8.769531 1.289062 8.769531 L 1.289062 8.789062 C 1.289062 8.796875 1.289062 8.804688 1.289062 8.8125 C 1.289062 10.136719 1.535156 11.453125 2.011719 12.6875 C 2.078125 12.863281 2.230469 12.988281 2.414062 13.015625 C 2.597656 13.046875 2.78125 12.976562 2.898438 12.828125 C 3.015625 12.683594 3.042969 12.488281 2.976562 12.316406 C 2.539062 11.1875 2.316406 9.988281 2.320312 8.78125 C 2.320312 8.777344 2.320312 8.773438 2.320312 8.769531 C 2.320312 5.636719 4.863281 3.09375 8 3.09375 C 11.132812 3.09375 13.675781 5.636719 13.675781 8.769531 C 13.675781 9.625 12.980469 10.320312 12.125 10.320312 C 11.273438 10.320312 10.578125 9.625 10.578125 8.769531 C 10.578125 7.347656 9.421875 6.191406 8 6.191406 C 6.585938 6.191406 5.4375 7.328125 5.417969 8.738281 C 5.417969 8.75 5.417969 8.761719 5.417969 8.769531 C 5.417969 8.773438 5.417969 8.773438 5.417969 8.777344 C 5.410156 12.449219 8.375 15.449219 12.050781 15.480469 C 12.234375 15.480469 12.40625 15.386719 12.5 15.226562 C 12.59375 15.066406 12.597656 14.871094 12.503906 14.710938 C 12.414062 14.550781 12.242188 14.449219 12.058594 14.449219 C 8.949219 14.425781 6.441406 11.890625 6.453125 8.78125 C 6.453125 8.777344 6.453125 8.773438 6.453125 8.769531 C 6.453125 7.917969 7.144531 7.222656 8 7.222656 C 8.855469 7.222656 9.550781 7.917969 9.550781 8.769531 C 9.550781 10.195312 10.703125 11.351562 12.128906 11.351562 C 13.554688 11.351562 14.710938 10.195312 14.710938 8.769531 C 14.710938 5.066406 11.707031 2.0625 8 2.0625 Z M 8 4.125 C 5.445312 4.125 3.371094 6.1875 3.355469 8.738281 C 3.355469 8.742188 3.355469 8.746094 3.355469 8.753906 C 3.355469 8.757812 3.355469 8.765625 3.355469 8.769531 C 3.355469 8.773438 3.355469 8.773438 3.355469 8.777344 C 3.347656 11.601562 4.703125 14.253906 6.996094 15.898438 C 7.09375 15.972656 7.214844 16.007812 7.335938 16 C 7.355469 15.996094 7.371094 15.996094 7.386719 15.992188 C 7.59375 15.957031 7.761719 15.800781 7.808594 15.597656 C 7.851562 15.394531 7.769531 15.179688 7.597656 15.0625 C 5.578125 13.609375 4.378906 11.269531 4.386719 8.78125 C 4.386719 8.777344 4.386719 8.773438 4.386719 8.769531 C 4.386719 6.773438 6.003906 5.15625 8 5.15625 C 9.996094 5.15625 11.613281 6.773438 11.613281 8.769531 C 11.613281 9.054688 11.84375 9.285156 12.128906 9.285156 C 12.414062 9.285156 12.644531 9.054688 12.644531 8.769531 C 12.644531 8.753906 12.644531 8.738281 12.644531 8.722656 C 12.617188 6.175781 10.546875 4.128906 8 4.125 Z M 7.988281 8.234375 C 7.851562 8.238281 7.722656 8.292969 7.625 8.390625 C 7.53125 8.488281 7.476562 8.621094 7.476562 8.757812 L 7.476562 8.765625 C 7.476562 8.765625 7.476562 8.769531 7.476562 8.769531 C 7.476562 8.789062 7.476562 8.808594 7.476562 8.824219 C 7.511719 11.351562 9.554688 13.386719 12.078125 13.414062 C 12.261719 13.417969 12.433594 13.320312 12.527344 13.164062 C 12.621094 13.003906 12.625 12.804688 12.535156 12.644531 C 12.441406 12.484375 12.273438 12.386719 12.089844 12.382812 C 10.105469 12.371094 8.503906 10.753906 8.507812 8.769531 C 8.507812 8.769531 8.507812 8.765625 8.507812 8.761719 C 8.511719 8.621094 8.457031 8.488281 8.359375 8.386719 C 8.261719 8.289062 8.125 8.234375 7.988281 8.238281 Z M 7.988281 8.234375 "/>
</g>
</svg>
