
<svg xmlns="http://www.w3.org/2000/svg" xmlns:xlink="http://www.w3.org/1999/xlink" width="16px" height="16px" viewBox="0 0 16 16" version="1.1">
<g id="surface1">
<path style=" stroke:none;fill-rule:evenodd;fill:#ff6666;fill-opacity:1;" d="M 8 2.011719 C 6.390625 3.140625 4.4375 4.230469 2.265625 4.808594 C 2.382812 5.386719 2.453125 5.824219 2.613281 6.351562 C 2.980469 7.578125 3.367188 8.566406 3.894531 9.609375 C 5.007812 11.816406 6.308594 13.074219 8 14.136719 C 9.691406 13.074219 10.992188 11.816406 12.105469 9.609375 C 12.632812 8.566406 13.019531 7.578125 13.386719 6.351562 C 13.546875 5.824219 13.617188 5.386719 13.734375 4.808594 C 11.5625 4.230469 9.609375 3.140625 8 2.011719 Z M 8 0 C 7.953125 0 7.757812 0.128906 7.546875 0.289062 C 5.695312 1.660156 3.089844 3.089844 0.609375 3.441406 L 0.285156 3.492188 L 0.308594 3.816406 C 0.34375 4.363281 0.664062 5.820312 0.96875 6.84375 C 1.359375 8.152344 1.796875 9.253906 2.363281 10.382812 C 3.65625 12.941406 5.289062 14.527344 7.292969 15.746094 C 7.554688 15.90625 7.796875 15.988281 8 16 C 8.203125 15.988281 8.445312 15.90625 8.707031 15.746094 C 10.710938 14.527344 12.34375 12.941406 13.636719 10.382812 C 14.203125 9.253906 14.640625 8.152344 15.03125 6.84375 C 15.335938 5.820312 15.65625 4.363281 15.691406 3.816406 L 15.714844 3.492188 L 15.390625 3.441406 C 12.910156 3.089844 10.304688 1.660156 8.453125 0.289062 C 8.242188 0.128906 8.046875 0 8 0 Z M 7.984375 3.453125 C 6.835938 5.453125 5.890625 6.773438 5.148438 7.414062 L 6.078125 7.554688 C 5.9375 8.359375 5.519531 9.105469 4.828125 9.800781 C 6.074219 9.738281 6.960938 9.640625 7.257812 9.503906 L 7.171875 12.046875 C 7.722656 12.195312 8.289062 12.199219 8.871094 12.046875 L 8.757812 9.476562 C 9.617188 9.648438 10.46875 9.722656 11.101562 9.699219 C 10.445312 8.832031 10.070312 8.136719 9.980469 7.609375 L 10.808594 7.371094 C 10.144531 6.859375 9.207031 5.554688 7.984375 3.453125 Z M 7.984375 3.453125 "/>
</g>
</svg>
