
<svg xmlns="http://www.w3.org/2000/svg" xmlns:xlink="http://www.w3.org/1999/xlink" width="16px" height="16px" viewBox="0 0 16 16" version="1.1">
<g id="surface1">
<path style=" stroke:none;fill-rule:nonzero;fill:#ff6666;fill-opacity:1;" d="M 0.0195312 2.105469 C 0.0390625 2.105469 0.0585938 2.109375 0.0742188 2.121094 C 0.164062 2.195312 0.261719 2.246094 0.351562 2.328125 C 2.640625 4.351562 3.800781 4.230469 5.691406 5.492188 C 5.777344 5.550781 6.273438 5.667969 6.613281 6.070312 C 6.625 6.085938 6.636719 6.105469 6.660156 6.109375 C 7.125 6.222656 7.097656 6.214844 7.097656 6.226562 C 7.101562 6.316406 7.105469 6.40625 7.113281 6.492188 C 7.121094 6.492188 7.128906 6.484375 7.128906 6.480469 C 7.445312 5.894531 8.195312 5.6875 8.1875 5.691406 C 9.476562 4.828125 10.914062 4.40625 11.761719 3.847656 C 12.476562 3.371094 13.816406 2.171875 13.71875 2.246094 C 13.878906 2.125 13.914062 2.085938 13.9375 2.15625 C 14.03125 2.445312 13.546875 3.667969 12.871094 4.171875 C 12.675781 4.316406 12.605469 4.304688 12.605469 4.34375 C 12.800781 4.304688 13.023438 4.25 13.164062 4.273438 C 13.519531 4.332031 12.738281 4.753906 12.421875 4.921875 C 12.390625 4.941406 12.058594 5.097656 12.054688 5.117188 C 12.203125 5.089844 13.03125 4.851562 13.121094 4.992188 C 13.128906 5.042969 13.035156 5.089844 13.023438 5.105469 C 13.007812 5.125 12.984375 5.144531 12.960938 5.148438 C 12.84375 5.269531 11.628906 5.824219 10.089844 6.289062 C 10.082031 6.289062 10.074219 6.296875 10.074219 6.308594 C 12.210938 6.019531 11.640625 6.574219 9.605469 6.835938 C 9.585938 6.855469 9.570312 6.882812 9.550781 6.90625 C 9.585938 6.914062 10.164062 6.964844 10.503906 7.09375 C 10.785156 7.207031 10.476562 7.265625 10.140625 7.265625 C 9.351562 7.265625 9.261719 7.140625 9.203125 7.222656 C 9.683594 7.378906 10.121094 7.566406 10.121094 7.566406 C 10.164062 7.558594 10.203125 7.539062 10.242188 7.527344 C 12.183594 6.824219 13.753906 5.796875 14.867188 6.539062 C 15.101562 6.691406 15.261719 6.90625 15.273438 7.1875 C 15.285156 7.476562 15.128906 7.78125 15.015625 7.929688 C 15.003906 7.945312 14.988281 7.960938 14.976562 7.980469 C 16.160156 8.519531 16.15625 9.148438 15.765625 9.566406 C 15.019531 10.414062 13.390625 9.769531 12.988281 9.308594 C 13.046875 9.328125 13.105469 9.359375 13.164062 9.378906 C 13.753906 9.605469 14.535156 9.675781 14.453125 9.269531 C 14.34375 8.171875 12.285156 8.8125 9.878906 8.242188 C 9.832031 8.230469 9.789062 8.21875 9.742188 8.210938 C 9.746094 8.21875 9.746094 8.226562 9.757812 8.226562 C 11.023438 8.671875 12.449219 8.800781 13.058594 9.433594 C 13.453125 9.886719 13.589844 10.644531 12.753906 11.078125 C 12.601562 11.152344 12.34375 11.289062 11.957031 11.140625 C 11.546875 10.988281 11.191406 10.527344 11.164062 10.179688 C 11.214844 10.230469 11.3125 10.394531 11.523438 10.53125 C 11.675781 10.632812 11.898438 10.71875 12.042969 10.609375 C 12.121094 10.550781 12.226562 10.316406 12.21875 10.148438 C 12.1875 9.550781 10.921875 9.4375 9.953125 8.777344 C 9.863281 8.710938 9.570312 8.519531 9.132812 8.078125 C 9.117188 8.128906 9.101562 8.175781 9.078125 8.222656 C 9.066406 8.246094 9.074219 8.269531 9.078125 8.296875 C 9.082031 8.316406 9.078125 8.34375 9.09375 8.363281 C 9.972656 9.667969 9.703125 10.550781 10.054688 10.996094 C 10.226562 11.222656 10.621094 11.136719 10.675781 10.976562 C 10.75 10.765625 10.578125 10.46875 10.421875 10.308594 C 10.820312 10.414062 11.34375 11.140625 10.871094 11.6875 C 10.484375 12.175781 9.964844 12.121094 9.617188 11.742188 C 9.140625 11.261719 9.28125 9.988281 9.132812 8.902344 C 9.128906 8.902344 9.121094 8.898438 9.121094 8.898438 C 9.203125 11.035156 8.328125 12.484375 9.242188 12.734375 C 9.425781 12.78125 9.492188 12.488281 9.515625 12.300781 C 9.546875 11.933594 9.472656 11.660156 9.460938 11.589844 C 9.730469 11.890625 10.003906 13.265625 9.285156 13.75 C 8.628906 14.207031 8.207031 13.496094 8.117188 12.921875 C 7.160156 13.378906 6.800781 12.527344 6.960938 11.820312 C 7.101562 11.230469 7.613281 10.53125 8.0625 9.859375 C 8.179688 9.6875 8.789062 8.769531 8.835938 8.566406 C 8.808594 8.574219 8.289062 9.144531 7.257812 9.070312 C 6.289062 9.007812 5.898438 8.417969 5.878906 8.40625 C 5.875 8.460938 5.867188 8.691406 5.863281 8.71875 C 5.769531 8.628906 4.878906 7.535156 4.824219 7.53125 C 4.710938 7.539062 4.605469 7.535156 4.515625 7.589844 C 4.375 7.652344 4.324219 7.851562 4.3125 7.878906 C 4.285156 7.824219 4.277344 7.761719 4.25 7.703125 C 4.019531 7.828125 2.664062 8.324219 2.558594 8.136719 C 2.480469 7.976562 3.59375 7.433594 4.160156 7.230469 C 4.164062 7.175781 4.179688 7.121094 4.195312 7.066406 C 4.117188 7.066406 3.527344 7.113281 3.324219 7.03125 C 3.246094 7 3.289062 6.953125 3.367188 6.917969 C 3.65625 6.789062 4.3125 6.730469 4.351562 6.722656 C 4.335938 6.699219 4.320312 6.679688 4.304688 6.65625 C 4.304688 6.65625 3.554688 6.554688 3.019531 6.398438 C 2.070312 6.121094 2.386719 5.921875 3.730469 6.109375 C 3.765625 6.113281 3.800781 6.117188 3.839844 6.121094 C 3.835938 6.113281 0.820312 5.140625 0.785156 4.78125 C 0.921875 4.660156 1.75 4.902344 1.855469 4.921875 C 1.851562 4.90625 1.835938 4.902344 1.820312 4.894531 C 1.503906 4.742188 1.097656 4.519531 1.085938 4.496094 C 1.03125 4.476562 0.839844 4.34375 0.796875 4.300781 C 0.757812 4.28125 0.617188 4.152344 0.667969 4.109375 C 0.667969 4.105469 0.667969 4.101562 0.667969 4.101562 C 0.808594 3.992188 1.207031 4.164062 1.3125 4.132812 C 1.285156 4.117188 1.257812 4.097656 1.230469 4.085938 C 1.210938 4.074219 1.183594 4.066406 1.171875 4.046875 C 0.828125 3.90625 -0.0429688 2.90625 0.00390625 2.121094 C 0.0078125 2.121094 0.0117188 2.117188 0.015625 2.117188 C 0.015625 2.117188 0.0195312 2.109375 0.0195312 2.105469 Z M 13.398438 7.257812 C 13.28125 7.265625 13.167969 7.285156 13.054688 7.304688 C 12.625 7.382812 12.21875 7.53125 11.800781 7.652344 C 11.535156 7.726562 11.265625 7.789062 10.992188 7.832031 C 10.984375 7.835938 10.980469 7.839844 10.976562 7.84375 C 11.066406 7.847656 11.152344 7.835938 11.238281 7.832031 C 11.777344 7.800781 12.3125 7.765625 12.851562 7.746094 C 13.089844 7.742188 13.328125 7.734375 13.570312 7.746094 C 13.746094 7.746094 13.925781 7.761719 14.101562 7.777344 C 14.105469 7.730469 14.082031 7.691406 14.070312 7.648438 C 14.039062 7.574219 14.003906 7.5 13.949219 7.4375 C 13.894531 7.371094 13.8125 7.324219 13.730469 7.292969 C 13.625 7.257812 13.511719 7.253906 13.398438 7.257812 Z M 8.613281 9.839844 C 8.585938 9.910156 8.558594 9.980469 8.527344 10.046875 C 8.480469 10.164062 8.421875 10.277344 8.367188 10.390625 C 8.347656 10.414062 8.335938 10.441406 8.320312 10.472656 C 8.210938 10.683594 8.089844 10.890625 7.984375 11.109375 C 7.929688 11.226562 7.878906 11.34375 7.839844 11.464844 C 7.796875 11.582031 7.761719 11.707031 7.777344 11.832031 C 7.785156 11.949219 7.847656 12.0625 7.945312 12.128906 C 7.988281 12.164062 8.039062 12.195312 8.09375 12.214844 C 8.101562 12.183594 8.101562 12.152344 8.105469 12.121094 C 8.113281 12.050781 8.128906 11.980469 8.136719 11.90625 C 8.226562 11.355469 8.375 10.816406 8.515625 10.273438 C 8.554688 10.128906 8.597656 9.984375 8.632812 9.839844 C 8.628906 9.839844 8.617188 9.839844 8.613281 9.839844 Z M 8.613281 9.839844 "/>
</g>
</svg>
