
<svg xmlns="http://www.w3.org/2000/svg" xmlns:xlink="http://www.w3.org/1999/xlink" width="16px" height="16px" viewBox="0 0 16 16" version="1.1">
<g id="surface1">
<path style=" stroke:none;fill-rule:nonzero;fill:#ff6666;fill-opacity:1;" d="M 7.414062 15.9375 C 4.148438 15.628906 1.273438 13.292969 0.414062 10.25 C 0.3125 9.886719 0.15625 8.855469 0.132812 8.375 C 0.128906 8.300781 0.101562 8.308594 0.0546875 8.410156 C -0.0742188 8.671875 0.0429688 7.570312 0.203125 6.980469 C 0.285156 6.679688 0.34375 6.421875 0.328125 6.40625 C 0.3125 6.390625 0.246094 6.472656 0.175781 6.585938 C 0.0625 6.78125 0.0585938 6.785156 0.101562 6.613281 C 0.226562 6.144531 0.683594 5.175781 0.996094 4.714844 C 1.222656 4.386719 1.34375 4.125 1.34375 3.980469 C 1.34375 3.347656 1.730469 2.339844 2.160156 1.839844 L 2.378906 1.585938 L 2.429688 1.949219 C 2.464844 2.1875 2.578125 2.453125 2.765625 2.71875 L 3.046875 3.121094 L 3.875 3.167969 C 4.332031 3.191406 4.761719 3.234375 4.832031 3.261719 C 4.914062 3.296875 5.074219 3.230469 5.308594 3.054688 C 5.753906 2.722656 6.378906 2.539062 6.832031 2.605469 L 7.164062 2.652344 L 6.800781 2.933594 C 6.421875 3.226562 5.953125 3.851562 5.953125 4.066406 C 5.953125 4.253906 6.175781 4.550781 6.398438 4.660156 C 6.507812 4.710938 6.808594 4.777344 7.066406 4.804688 C 7.328125 4.832031 7.644531 4.890625 7.773438 4.933594 C 7.972656 5.003906 8 5.039062 7.957031 5.207031 C 7.871094 5.566406 7.640625 5.765625 6.890625 6.132812 L 6.140625 6.5 L 6.128906 6.972656 C 6.109375 7.546875 6.035156 7.640625 5.761719 7.429688 C 5.5 7.230469 5.339844 7.230469 5.144531 7.4375 C 4.699219 7.917969 4.976562 8.535156 5.90625 9.140625 C 6.253906 9.363281 6.773438 9.394531 7.359375 9.21875 C 7.5625 9.160156 7.910156 9.109375 8.128906 9.109375 C 8.753906 9.109375 9.351562 9.46875 9.351562 9.847656 C 9.351562 10.070312 9.226562 10.148438 8.980469 10.085938 C 8.875 10.058594 8.566406 10.167969 8.09375 10.398438 C 7.425781 10.726562 7.3125 10.757812 6.714844 10.785156 C 6.355469 10.800781 5.929688 10.78125 5.769531 10.734375 C 5.605469 10.691406 5.457031 10.667969 5.441406 10.683594 C 5.363281 10.761719 6.269531 11.507812 6.667969 11.6875 C 8.667969 12.597656 11.121094 11.546875 11.769531 9.5 C 11.953125 8.917969 11.972656 7.972656 11.808594 7.449219 C 11.746094 7.25 11.695312 7.0625 11.695312 7.03125 C 11.691406 6.835938 12.601562 7.613281 12.957031 8.109375 C 13.273438 8.550781 13.226562 8.355469 12.886719 7.804688 C 12.601562 7.351562 12.226562 6.984375 11.207031 6.15625 C 9.683594 4.921875 9.171875 3.660156 9.570312 2.132812 C 9.78125 1.316406 10.480469 0 10.699219 0 C 10.726562 0 10.816406 0.15625 10.894531 0.34375 C 10.996094 0.582031 11.265625 0.898438 11.800781 1.40625 C 12.222656 1.804688 12.585938 2.128906 12.609375 2.128906 C 12.636719 2.128906 12.707031 1.957031 12.765625 1.746094 L 12.878906 1.359375 L 12.996094 1.734375 C 13.167969 2.273438 13.367188 2.617188 13.8125 3.160156 C 14.414062 3.886719 14.929688 4.65625 15.179688 5.199219 C 15.441406 5.765625 15.699219 6.625 15.699219 6.929688 C 15.699219 7.082031 15.730469 7.128906 15.804688 7.101562 C 16.042969 7.011719 16.070312 8.085938 15.851562 9.105469 C 15.753906 9.574219 15.585938 10.03125 15.351562 10.503906 C 15.082031 11.03125 14.992188 11.300781 14.976562 11.59375 C 14.953125 12.152344 14.527344 12.964844 14.035156 13.394531 C 13.828125 13.578125 13.394531 13.875 13.074219 14.058594 C 12.75 14.242188 12.285156 14.585938 12.035156 14.824219 C 11.332031 15.488281 10.53125 15.796875 9.117188 15.941406 C 8.335938 16.019531 8.296875 16.019531 7.414062 15.9375 Z M 7.414062 15.9375 "/>
</g>
</svg>
