
<svg xmlns="http://www.w3.org/2000/svg" xmlns:xlink="http://www.w3.org/1999/xlink" width="16px" height="16px" viewBox="0 0 16 16" version="1.1">
<g id="surface1">
<path style=" stroke:none;fill-rule:evenodd;fill:#ff6666;fill-opacity:1;" d="M 2.359375 7.324219 L 2.359375 0.398438 C 2.359375 0.398438 2.355469 0.289062 2.382812 0.246094 C 2.429688 0.152344 2.515625 0.0742188 2.617188 0.03125 C 2.675781 0.0078125 2.746094 0 2.8125 0 C 2.875 0 2.933594 0.0117188 2.972656 0.0234375 C 3.074219 0.0546875 4.242188 0.832031 5.574219 1.75 C 6.886719 2.652344 7.945312 3.371094 7.992188 3.390625 C 7.996094 3.390625 8.027344 3.414062 8.027344 3.414062 C 8.050781 3.414062 9.164062 2.65625 10.511719 1.726562 C 12.042969 0.667969 13.03125 0.0390625 13.164062 0.0390625 C 13.472656 0.0390625 13.5625 0.0390625 13.597656 1.421875 L 13.597656 7.3125 L 13.925781 7.535156 C 13.925781 7.535156 13.929688 7.515625 13.929688 7.515625 L 14.679688 8.035156 C 15.988281 8.945312 16 8.957031 16 9.253906 C 16 9.476562 15.605469 9.828125 12.117188 12.730469 C 9.980469 14.503906 8.160156 15.972656 8.078125 15.996094 C 8.050781 16.003906 8.011719 16 7.976562 15.996094 C 7.902344 15.992188 7.824219 15.980469 7.761719 15.945312 C 7.445312 15.769531 0.140625 9.59375 0.0507812 9.425781 C 0.00390625 9.335938 -0.015625 9.183594 0.015625 9.089844 C 0.0429688 8.996094 0.582031 8.5625 1.214844 8.128906 L 2.355469 7.339844 L 2.359375 7.339844 Z M 7.976562 3.535156 C 7.980469 3.535156 7.984375 3.535156 7.988281 3.53125 C 7.984375 3.53125 7.980469 3.535156 7.980469 3.535156 C 7.980469 3.535156 7.976562 3.535156 7.976562 3.535156 Z M 8.003906 3.519531 C 8.003906 3.519531 8.007812 3.515625 8.007812 3.515625 L 7.992188 3.527344 Z M 8.003906 3.519531 "/>
</g>
</svg>
