
<svg xmlns="http://www.w3.org/2000/svg" xmlns:xlink="http://www.w3.org/1999/xlink" width="16px" height="16px" viewBox="0 0 16 16" version="1.1">
<g id="surface1">
<path style=" stroke:none;fill-rule:evenodd;fill:#ff6666;fill-opacity:1;" d="M 7.589844 0 C 7.589844 0 8.570312 2.605469 8.335938 3.535156 C 8.039062 4.714844 7.261719 5.695312 6.304688 5.894531 C 6.050781 5.945312 5.550781 5.726562 5.179688 5.492188 C 4.585938 5.144531 4.433594 4.472656 4.273438 3.839844 C 4.273438 3.839844 4.074219 4.921875 4.164062 5.757812 C 4.257812 6.59375 4.71875 7.816406 4.6875 8.460938 C 4.65625 9.15625 4.371094 9.917969 4.371094 9.917969 C 4.371094 9.917969 3.917969 9.105469 3.632812 8.566406 C 3.347656 8.023438 2.589844 7.292969 2.589844 7.292969 C 2.589844 7.292969 3.097656 8.1875 3.109375 9.027344 C 3.125 9.863281 1.664062 11.632812 3.199219 13.933594 C 4.75 16.261719 7.074219 15.988281 7.074219 15.988281 L 7.640625 15.78125 L 5.46875 14.71875 L 8.269531 13.347656 L 5.46875 11.976562 L 8.269531 10.605469 L 11.066406 11.976562 L 13.503906 10.78125 L 13.4375 10.394531 L 11.066406 9.234375 L 13.132812 8.222656 L 13.046875 7.546875 L 12.707031 5.035156 C 12.707031 5.035156 12.3125 5.871094 11.878906 6.164062 C 11.59375 6.359375 11.101562 6.425781 11.101562 6.425781 C 11.101562 6.425781 10.714844 4.367188 10.308594 3.300781 C 9.585938 1.386719 7.589844 0 7.589844 0 Z M 11.066406 11.976562 L 8.269531 13.347656 L 10.839844 14.605469 L 11.851562 14.234375 L 12.988281 12.917969 Z M 11.066406 11.976562 "/>
</g>
</svg>
