
<svg xmlns="http://www.w3.org/2000/svg" xmlns:xlink="http://www.w3.org/1999/xlink" width="16px" height="16px" viewBox="0 0 16 16" version="1.1">
<g id="surface1">
<path style=" stroke:none;fill-rule:nonzero;fill:#ff6666;fill-opacity:1;" d="M 16 0.835938 C 16 1.5 15.429688 2.402344 14.292969 3.539062 L 11.546875 6.289062 L 13.183594 14.832031 L 13.195312 14.902344 C 13.195312 15.007812 13.160156 15.09375 13.089844 15.164062 L 12.359375 15.898438 C 12.289062 15.964844 12.203125 16 12.09375 16 C 11.933594 16 11.824219 15.929688 11.761719 15.792969 L 8.625 9.207031 L 5.816406 12.015625 C 6.335938 13.832031 6.597656 14.792969 6.597656 14.902344 C 6.597656 15.007812 6.5625 15.09375 6.492188 15.164062 L 5.761719 15.898438 C 5.691406 15.964844 5.605469 16 5.496094 16 C 5.359375 16 5.253906 15.9375 5.175781 15.816406 L 3.402344 12.609375 L 0.195312 10.835938 C 0.0664062 10.765625 0 10.660156 0 10.511719 C 0 10.40625 0.0351562 10.320312 0.101562 10.25 L 0.835938 9.507812 C 0.90625 9.4375 0.992188 9.402344 1.097656 9.402344 C 1.207031 9.402344 2.167969 9.664062 3.984375 10.183594 L 6.789062 7.375 L 0.207031 4.238281 C 0.0703125 4.175781 0 4.066406 0 3.90625 C 0 3.796875 0.0351562 3.710938 0.101562 3.640625 L 0.835938 2.910156 C 0.90625 2.839844 0.992188 2.804688 1.097656 2.804688 C 1.128906 2.804688 1.152344 2.808594 1.167969 2.816406 L 9.710938 4.453125 L 12.460938 1.707031 C 13.597656 0.570312 14.5 0 15.164062 0 C 15.40625 0 15.609375 0.078125 15.765625 0.234375 C 15.921875 0.390625 16 0.589844 16 0.835938 Z M 16 0.835938 "/>
</g>
</svg>
