
<svg xmlns="http://www.w3.org/2000/svg" xmlns:xlink="http://www.w3.org/1999/xlink" width="16px" height="16px" viewBox="0 0 16 16" version="1.1">
<g id="surface1">
<path style=" stroke:none;fill-rule:evenodd;fill:#ff6666;fill-opacity:1;" d="M 12.523438 8 C 12.523438 7.039062 13.300781 6.261719 14.261719 6.261719 C 15.222656 6.261719 16 7.039062 16 8 C 16 8.960938 15.222656 9.738281 14.261719 9.738281 C 13.300781 9.738281 12.523438 8.960938 12.523438 8 Z M 6.261719 14.261719 C 6.261719 13.300781 7.039062 12.523438 8 12.523438 C 8.960938 12.523438 9.738281 13.300781 9.738281 14.261719 C 9.738281 15.222656 8.960938 16 8 16 C 7.039062 16 6.261719 15.222656 6.261719 14.261719 Z M 0 14.261719 C 0 13.300781 0.777344 12.523438 1.738281 12.523438 C 2.699219 12.523438 3.476562 13.300781 3.476562 14.261719 C 3.476562 15.222656 2.699219 16 1.738281 16 C 0.777344 16 0 15.222656 0 14.261719 Z M 0 14.261719 "/>
<path style=" stroke:none;fill-rule:evenodd;fill:#ff6666;fill-opacity:1;" d="M 6.261719 8 C 6.261719 7.039062 7.039062 6.261719 8 6.261719 C 8.960938 6.261719 9.738281 7.039062 9.738281 8 C 9.738281 8.960938 8.960938 9.738281 8 9.738281 C 7.039062 9.738281 6.261719 8.960938 6.261719 8 Z M 0 8 C 0 7.039062 0.777344 6.261719 1.738281 6.261719 C 2.699219 6.261719 3.476562 7.039062 3.476562 8 C 3.476562 8.960938 2.699219 9.738281 1.738281 9.738281 C 0.777344 9.738281 0 8.960938 0 8 Z M 6.261719 1.738281 C 6.261719 0.777344 7.039062 0 8 0 C 8.960938 0 9.738281 0.777344 9.738281 1.738281 C 9.738281 2.699219 8.960938 3.476562 8 3.476562 C 7.039062 3.476562 6.261719 2.699219 6.261719 1.738281 Z M 0 1.785156 C 0 0.855469 0.757812 0.0976562 1.691406 0.0976562 C 2.625 0.0976562 3.382812 0.855469 3.382812 1.785156 C 3.382812 2.722656 2.625 3.476562 1.691406 3.476562 C 0.757812 3.476562 0 2.722656 0 1.785156 Z M 12.523438 1.738281 C 12.523438 0.777344 13.300781 0 14.261719 0 C 15.222656 0 16 0.777344 16 1.738281 C 16 2.699219 15.222656 3.476562 14.261719 3.476562 C 13.300781 3.476562 12.523438 2.699219 12.523438 1.738281 Z M 12.523438 14.261719 C 12.523438 13.300781 13.300781 12.523438 14.261719 12.523438 C 15.222656 12.523438 16 13.300781 16 14.261719 C 16 15.222656 15.222656 16 14.261719 16 C 13.300781 16 12.523438 15.222656 12.523438 14.261719 Z M 12.523438 14.261719 "/>
</g>
</svg>
