
<svg xmlns="http://www.w3.org/2000/svg" xmlns:xlink="http://www.w3.org/1999/xlink" width="16px" height="16px" viewBox="0 0 16 16" version="1.1">
<g id="surface1">
<path style=" stroke:none;fill-rule:nonzero;fill:#ff6666;fill-opacity:1;" d="M 13.128906 5.761719 C 12.554688 5.761719 12.089844 5.296875 12.089844 4.722656 C 12.089844 4.152344 12.550781 3.6875 13.128906 3.6875 C 13.699219 3.6875 14.164062 4.148438 14.164062 4.722656 C 14.164062 5.296875 13.699219 5.761719 13.128906 5.761719 M 8.183594 13.691406 C 8.183594 14.265625 7.71875 14.730469 7.148438 14.730469 C 6.574219 14.730469 6.109375 14.265625 6.109375 13.691406 C 6.109375 13.121094 6.570312 12.65625 7.148438 12.65625 C 7.71875 12.660156 8.183594 13.121094 8.183594 13.691406 M 13.128906 2.929688 C 12.132812 2.929688 11.332031 3.730469 11.332031 4.722656 C 11.332031 5.445312 11.753906 6.058594 12.371094 6.34375 C 12.300781 7.53125 11.417969 7.929688 9.878906 8.511719 C 9.226562 8.753906 8.511719 9.027344 7.898438 9.4375 L 7.898438 5.082031 L 9.71875 5.082031 L 7.109375 0.5 L 4.5 5.082031 L 6.402344 5.082031 L 6.402344 12.078125 C 5.785156 12.363281 5.355469 12.980469 5.355469 13.703125 C 5.355469 14.699219 6.15625 15.5 7.152344 15.5 C 8.144531 15.5 8.945312 14.699219 8.945312 13.703125 C 8.945312 12.984375 8.523438 12.371094 7.910156 12.082031 C 7.976562 10.898438 8.859375 10.5 10.402344 9.917969 C 11.917969 9.34375 13.792969 8.636719 13.867188 6.363281 C 14.488281 6.078125 14.921875 5.457031 14.921875 4.734375 C 14.921875 3.734375 14.121094 2.929688 13.128906 2.929688 "/>
</g>
</svg>
