
<svg xmlns="http://www.w3.org/2000/svg" xmlns:xlink="http://www.w3.org/1999/xlink" width="16px" height="16px" viewBox="0 0 16 16" version="1.1">
<g id="surface1">
<path style=" stroke:none;fill-rule:nonzero;fill:#ff6666;fill-opacity:1;" d="M 3.992188 0.996094 C 2.734375 1.011719 1.816406 0.964844 1.0625 1.382812 C 0.871094 1.484375 0.703125 1.628906 0.5625 1.796875 L 0.5 1.796875 L 0.5 1.886719 C 0.390625 2.03125 0.292969 2.195312 0.226562 2.378906 C 0.0585938 2.816406 0 3.339844 0 3.996094 L 0 11.996094 C 0 12.652344 0.0585938 13.175781 0.226562 13.613281 C 0.390625 14.050781 0.6875 14.402344 1.0625 14.609375 C 1.816406 15.023438 2.734375 14.980469 3.992188 14.996094 L 12.007812 14.996094 C 13.265625 14.980469 14.183594 15.027344 14.9375 14.609375 C 15.3125 14.402344 15.609375 14.050781 15.777344 13.613281 C 15.941406 13.175781 16 12.652344 16 11.996094 L 16 3.996094 C 16 3.339844 15.941406 2.816406 15.773438 2.378906 C 15.707031 2.195312 15.609375 2.035156 15.5 1.886719 L 15.5 1.796875 L 15.4375 1.796875 C 15.296875 1.628906 15.125 1.488281 14.9375 1.382812 C 14.183594 0.96875 13.265625 1.011719 12.007812 0.996094 Z M 1 3.996094 L 15 3.996094 L 15 11.996094 C 15 12.589844 14.9375 13.003906 14.839844 13.261719 C 14.742188 13.523438 14.636719 13.632812 14.453125 13.734375 C 14.089844 13.9375 13.257812 13.980469 12 13.996094 L 4 13.996094 C 2.742188 13.980469 1.910156 13.9375 1.546875 13.734375 C 1.359375 13.632812 1.257812 13.519531 1.160156 13.261719 C 1.0625 13.003906 1 12.589844 1 11.996094 Z M 1 3.996094 "/>
<path style=" stroke:none;fill-rule:nonzero;fill:#ff6666;fill-opacity:1;" d="M 5 5 L 14 5 L 14 6 L 5 6 Z M 5 5 "/>
<path style=" stroke:none;fill-rule:nonzero;fill:#ff6666;fill-opacity:1;" d="M 5 7 L 14 7 L 14 8 L 5 8 Z M 5 7 "/>
<path style=" stroke:none;fill-rule:nonzero;fill:#ff6666;fill-opacity:1;" d="M 5 9 L 14 9 L 14 10 L 5 10 Z M 5 9 "/>
<path style=" stroke:none;fill-rule:nonzero;fill:#ff6666;fill-opacity:1;" d="M 5 11 L 10 11 L 10 12 L 5 12 Z M 5 11 "/>
<path style=" stroke:none;fill-rule:nonzero;fill:#ff6666;fill-opacity:1;" d="M 3 4 L 4 4 L 4 14 L 3 14 Z M 3 4 "/>
</g>
</svg>
