
<svg xmlns="http://www.w3.org/2000/svg" xmlns:xlink="http://www.w3.org/1999/xlink" width="16px" height="16px" viewBox="0 0 16 16" version="1.1">
<g id="surface1">
<path style=" stroke:none;fill-rule:nonzero;fill:#ff6666;fill-opacity:1;" d="M 4.125 0 C 3.902344 0.273438 3.765625 0.5 3.511719 0.773438 C 2.65625 1.683594 2.796875 2.265625 3.472656 2.902344 C 3.589844 3.011719 3.210938 3.402344 3.078125 3.917969 C 3.332031 4.121094 3.398438 4.433594 3.628906 4.671875 C 3.882812 4.363281 4.460938 3.664062 4.636719 3.476562 C 4.636719 3.476562 5.007812 2.890625 4.542969 2.339844 C 4.210938 2.007812 4.125 1.230469 4.144531 0.460938 C 4.164062 0.410156 4.117188 0.128906 4.125 0 Z M 6.261719 0.628906 C 5.9375 0.628906 5.90625 0.742188 6.019531 1.445312 C 6.179688 2.464844 5.828125 3.394531 5.035156 3.980469 C 4.703125 4.226562 4.03125 5.050781 4.03125 5.15625 C 4.03125 5.253906 2.503906 5.648438 2.945312 6.21875 C 3.011719 6.300781 2.183594 6.867188 3.125 6.453125 C 3.910156 6.109375 4.351562 8.148438 4.652344 8.734375 L 5.199219 9.796875 L 4.714844 10.742188 C 4.003906 12.125 4.210938 12.578125 2.875 13.933594 C 2.667969 14.144531 2.703125 14.402344 2.539062 14.296875 C 1.367188 13.527344 2.4375 14.640625 2.363281 14.742188 C 1.832031 13.628906 1.984375 15.367188 1.984375 15.371094 C 2.492188 15.929688 3.4375 16.019531 4.183594 15.996094 C 5.421875 16.003906 5.96875 15.167969 6.332031 14.546875 C 7.398438 12.726562 8.773438 11.269531 9.207031 11.4375 C 9.398438 11.511719 10.082031 12.308594 10.730469 13.210938 C 11.378906 14.109375 12.003906 14.820312 12.117188 14.785156 C 12.480469 14.679688 12.910156 13.757812 12.910156 12.871094 C 12.910156 11.703125 12.707031 11.429688 12.351562 11.085938 C 12.089844 10.824219 12.25 10.691406 12.003906 10.324219 C 11.566406 9.691406 11.355469 9.886719 11.679688 9.203125 C 11.863281 8.808594 11.871094 8.621094 12.359375 8.226562 C 13.558594 7.242188 14.242188 5.199219 13.976562 4.234375 C 13.867188 3.835938 13.683594 3.332031 13.519531 3.113281 C 13.234375 2.734375 13.214844 2.757812 13.207031 3.480469 C 13.203125 4.113281 11.605469 4.839844 11.265625 4.839844 C 11.230469 4.839844 11.195312 4.84375 11.15625 4.855469 C 10.859375 5.328125 10.613281 5.625 10.421875 5.972656 C 9.496094 7.273438 9.800781 7.257812 9.457031 7.257812 C 9.109375 7.257812 8.355469 6.355469 7.414062 4.941406 C 7.339844 4.832031 7.011719 4.730469 6.957031 4.632812 C 6.933594 4.585938 6.914062 4.542969 6.894531 4.5 C 6.890625 4.484375 6.882812 4.46875 6.875 4.453125 C 6.859375 4.425781 6.84375 4.390625 6.832031 4.363281 C 6.804688 4.289062 6.789062 4.226562 6.777344 4.160156 C 6.777344 4.160156 6.777344 4.15625 6.777344 4.15625 C 6.777344 4.148438 6.773438 4.144531 6.773438 4.136719 C 6.773438 4.132812 6.773438 4.125 6.773438 4.117188 C 6.765625 4.058594 6.765625 4.007812 6.777344 3.957031 C 6.777344 3.953125 6.777344 3.945312 6.777344 3.941406 C 6.789062 3.890625 6.808594 3.839844 6.839844 3.792969 C 6.839844 3.792969 6.839844 3.789062 6.839844 3.789062 C 6.84375 3.785156 6.84375 3.78125 6.847656 3.777344 C 6.878906 3.726562 6.921875 3.683594 6.976562 3.644531 C 6.976562 3.640625 6.976562 3.640625 6.980469 3.640625 C 7.09375 3.554688 7.246094 3.480469 7.449219 3.421875 C 7.496094 3.4375 7.539062 3.449219 7.589844 3.46875 L 8.273438 3.46875 C 8.300781 3.390625 8.304688 3.296875 8.289062 3.171875 C 8.21875 2.5625 6.761719 0.628906 6.261719 0.628906 Z M 11.414062 0.628906 C 11.136719 0.628906 9.878906 2.550781 9.9375 3.234375 C 9.988281 3.867188 9.871094 3.875 10.144531 3.84375 C 10.386719 3.8125 11.023438 3.816406 11.144531 3.589844 C 11.226562 3.433594 11.472656 1.921875 11.554688 1.601562 C 11.78125 0.699219 11.773438 0.628906 11.414062 0.628906 Z M 11.414062 0.628906 "/>
</g>
</svg>
