
<svg xmlns="http://www.w3.org/2000/svg" xmlns:xlink="http://www.w3.org/1999/xlink" width="16px" height="16px" viewBox="0 0 16 16" version="1.1">
<g id="surface1">
<path style=" stroke:none;fill-rule:nonzero;fill:#ff6666;fill-opacity:1;" d="M 9.890625 15.394531 C 10.71875 15.394531 11.476562 15.121094 11.859375 14.644531 C 12.789062 15.585938 13.660156 15.84375 14.410156 15.84375 C 15.621094 15.84375 16 15.078125 16 14.566406 C 16 13.929688 15.59375 13.480469 14.980469 13.480469 C 14.316406 13.480469 14.644531 15 13.703125 15 C 12.9375 15 12.296875 12.972656 11.976562 11.203125 L 13.636719 11.203125 C 13.824219 11.203125 13.859375 11.0625 13.859375 10.917969 C 13.859375 10.519531 13.679688 10.183594 13.351562 10.183594 L 11.71875 10.183594 C 11.71875 10.183594 10.96875 6.636719 10.417969 4.417969 C 9.671875 1.4375 7.386719 0.605469 5.953125 0.605469 C 5.273438 0.605469 4.546875 0.847656 4.066406 1.347656 C 3.417969 0.683594 2.433594 0.15625 1.378906 0.15625 C 0.863281 0.15625 0 0.5 0 1.15625 C 0 1.527344 0.371094 2.089844 0.769531 2.089844 C 1.46875 2.089844 1.554688 1.328125 2.339844 1.328125 C 2.71875 1.328125 2.980469 1.433594 3.296875 2.570312 C 3.988281 5.066406 5.03125 10.183594 5.03125 10.183594 L 3.796875 10.183594 C 3.597656 10.183594 3.574219 10.304688 3.574219 10.433594 C 3.574219 10.777344 3.703125 11.203125 4.140625 11.203125 L 5.289062 11.203125 C 5.921875 13.367188 7.316406 15.394531 9.890625 15.394531 Z M 9.21875 14.53125 C 8 14.53125 7.449219 12.511719 7.179688 11.203125 L 10.0625 11.203125 C 10.269531 11.996094 10.613281 12.808594 10.984375 13.472656 C 10.570312 14.128906 9.855469 14.53125 9.21875 14.53125 Z M 6.628906 1.65625 C 7.300781 1.65625 7.835938 1.882812 8.164062 3.054688 C 8.941406 5.851562 9.804688 10.183594 9.804688 10.183594 L 6.957031 10.183594 C 6.542969 8.273438 6.085938 6.214844 5.6875 4.667969 C 5.414062 3.617188 5.183594 3.027344 4.945312 2.527344 C 5.4375 1.949219 6.074219 1.65625 6.628906 1.65625 Z M 6.628906 1.65625 "/>
</g>
</svg>
