
<svg xmlns="http://www.w3.org/2000/svg" xmlns:xlink="http://www.w3.org/1999/xlink" width="16px" height="16px" viewBox="0 0 16 16" version="1.1">
<g id="surface1">
<path style=" stroke:none;fill-rule:nonzero;fill:#ff6666;fill-opacity:1;" d="M 7.453125 7.851562 L 8.058594 7.265625 L 12.824219 11.992188 C 13.175781 12.339844 13.648438 12.53125 14.144531 12.53125 C 14.636719 12.527344 15.113281 12.332031 15.457031 11.976562 C 15.808594 11.628906 16.003906 11.152344 16 10.65625 C 15.996094 10.160156 15.800781 9.683594 15.445312 9.339844 L 9.742188 3.6875 C 8.828125 2.777344 7.335938 2.769531 6.410156 3.664062 L 0.570312 9.320312 C 0.210938 9.667969 0.0078125 10.136719 0 10.632812 C -0.0078125 11.128906 0.175781 11.609375 0.523438 11.964844 C 0.867188 12.320312 1.339844 12.523438 1.832031 12.53125 C 2.328125 12.539062 2.808594 12.351562 3.160156 12.003906 L 4.773438 10.449219 L 6.746094 12.445312 C 7.09375 12.800781 7.570312 12.996094 8.0625 13 C 8.558594 13 9.03125 12.808594 9.382812 12.457031 C 9.738281 12.109375 9.933594 11.636719 9.9375 11.140625 C 9.941406 10.648438 9.746094 10.171875 9.398438 9.816406 Z M 7.453125 7.851562 "/>
</g>
</svg>
