
<svg xmlns="http://www.w3.org/2000/svg" xmlns:xlink="http://www.w3.org/1999/xlink" width="16px" height="16px" viewBox="0 0 16 16" version="1.1">
<g id="surface1">
<path style=" stroke:none;fill-rule:nonzero;fill:#ff6666;fill-opacity:1;" d="M 8 0 C 3.582031 0 0 3.582031 0 8 C 0 12.417969 3.582031 16 8 16 C 12.417969 16 16 12.417969 16 8 C 16 3.582031 12.414062 0 8 0 Z M 5.929688 1.578125 L 5.601562 2.1875 L 8 3.21875 L 10.398438 2.183594 L 10.066406 1.578125 C 11.433594 2.023438 12.625 2.890625 13.464844 4.058594 L 12.78125 3.921875 L 12.546875 6.515625 L 14.261719 8.488281 L 14.75 7.960938 L 14.75 8 C 14.75 9.5 14.257812 10.878906 13.425781 12 L 13.347656 11.296875 L 10.808594 11.863281 L 9.484375 14.105469 L 10.105469 14.398438 C 9.429688 14.628906 8.71875 14.746094 8 14.75 C 7.28125 14.746094 6.570312 14.628906 5.894531 14.398438 L 6.515625 14.105469 L 5.191406 11.863281 L 2.652344 11.296875 L 2.574219 12 C 1.714844 10.84375 1.25 9.441406 1.25 8 L 1.25 7.960938 L 1.738281 8.488281 L 3.453125 6.515625 L 3.21875 3.921875 L 2.535156 4.058594 C 3.378906 2.894531 4.566406 2.023438 5.933594 1.582031 Z M 8 5.324219 L 5.191406 7.375 L 6.265625 10.671875 L 9.734375 10.671875 L 10.808594 7.375 Z M 8 5.324219 "/>
</g>
</svg>
