
<svg xmlns="http://www.w3.org/2000/svg" xmlns:xlink="http://www.w3.org/1999/xlink" width="16px" height="16px" viewBox="0 0 16 16" version="1.1">
<g id="surface1">
<path style=" stroke:none;fill-rule:nonzero;fill:#ff6666;fill-opacity:1;" d="M 4.570312 13.714844 C 4.570312 14.976562 3.546875 16 2.285156 16 C 1.023438 16 0 14.976562 0 13.714844 C 0 12.453125 1.023438 11.429688 2.285156 11.429688 C 3.546875 11.429688 4.570312 12.453125 4.570312 13.714844 Z M 4.570312 13.714844 "/>
<path style=" stroke:none;fill-rule:nonzero;fill:#ff6666;fill-opacity:1;" d="M 16 13.714844 C 16 14.976562 14.976562 16 13.714844 16 C 12.453125 16 11.429688 14.976562 11.429688 13.714844 C 11.429688 12.453125 12.453125 11.429688 13.714844 11.429688 C 14.976562 11.429688 16 12.453125 16 13.714844 Z M 16 13.714844 "/>
<path style=" stroke:none;fill-rule:nonzero;fill:#ff6666;fill-opacity:1;" d="M 10.285156 13.714844 C 10.285156 14.976562 9.261719 16 8 16 C 6.738281 16 5.714844 14.976562 5.714844 13.714844 C 5.714844 12.453125 6.738281 11.429688 8 11.429688 C 9.261719 11.429688 10.285156 12.453125 10.285156 13.714844 Z M 10.285156 13.714844 "/>
<path style=" stroke:none;fill-rule:nonzero;fill:#ff6666;fill-opacity:1;" d="M 10.285156 8 C 10.285156 9.261719 9.261719 10.285156 8 10.285156 C 6.738281 10.285156 5.714844 9.261719 5.714844 8 C 5.714844 6.738281 6.738281 5.714844 8 5.714844 C 9.261719 5.714844 10.285156 6.738281 10.285156 8 Z M 10.285156 8 "/>
<path style=" stroke:none;fill-rule:nonzero;fill:#ff6666;fill-opacity:1;" d="M 16 2.285156 C 16 3.546875 14.976562 4.570312 13.714844 4.570312 C 12.453125 4.570312 11.429688 3.546875 11.429688 2.285156 C 11.429688 1.023438 12.453125 0 13.714844 0 C 14.976562 0 16 1.023438 16 2.285156 Z M 16 2.285156 "/>
</g>
</svg>
