
<svg xmlns="http://www.w3.org/2000/svg" xmlns:xlink="http://www.w3.org/1999/xlink" width="16px" height="16px" viewBox="0 0 16 16" version="1.1">
<g id="surface1">
<path style=" stroke:none;fill-rule:evenodd;fill:#ff6666;fill-opacity:1;" d="M 15.5 5.726562 C 14.09375 -0.214844 8.695312 -0.167969 5.4375 1.386719 C 2.007812 3.117188 -0.476562 7.5625 0.875 11.28125 C 2.96875 16.894531 10.679688 16.8125 13.285156 11.589844 C 14.0625 9.675781 14.628906 8.320312 12.5 6.5 L 12.5 8.75 L 11.75 7.25 C 11.75 7.25 11.085938 8.824219 10.378906 9.539062 C 9.394531 10.539062 8 10.25 8 10.25 C 8.261719 11.242188 10.25 11.75 10.25 11.75 C 5.09375 14.191406 4.941406 10.109375 5 9.125 C 5.167969 6.285156 7.449219 4.082031 10.457031 4.242188 C 11.414062 4.316406 13.25 5 13.25 5 C 12.558594 3.421875 11.578125 3.046875 11 2.75 C 13.261719 2 14.472656 4.363281 15.5 5.726562 Z M 15.5 5.726562 "/>
</g>
</svg>
