
<svg xmlns="http://www.w3.org/2000/svg" xmlns:xlink="http://www.w3.org/1999/xlink" width="16px" height="16px" viewBox="0 0 16 16" version="1.1">
<g id="surface1">
<path style=" stroke:none;fill-rule:nonzero;fill:#ff6666;fill-opacity:1;" d="M 0 0.800781 C 0.132812 2.246094 1.179688 2.578125 1.238281 4.117188 C 1.269531 4.769531 0.414062 6.265625 0.421875 7.132812 C 0.425781 7.542969 0.628906 7.929688 0.964844 8.164062 C 1.605469 8.617188 2.945312 8.800781 4.738281 8.800781 L 4.84375 8.800781 C 3.332031 8.800781 2.199219 9.199219 1.65625 9.5625 C 1.371094 9.75 1.203125 10.058594 1.203125 10.386719 C 1.265625 12.582031 1.574219 15.132812 4.089844 15.199219 C 6.046875 15.175781 6.9375 13.117188 7.328125 11.207031 C 7.328125 11.207031 7.328125 11.207031 7.328125 11.210938 C 7.390625 11.3125 7.476562 11.398438 7.578125 11.464844 C 7.601562 11.480469 7.617188 11.492188 7.640625 11.507812 C 7.671875 11.523438 7.703125 11.535156 7.734375 11.546875 C 7.820312 11.578125 7.90625 11.601562 8 11.601562 C 8.09375 11.601562 8.179688 11.578125 8.261719 11.546875 C 8.296875 11.535156 8.328125 11.523438 8.359375 11.507812 C 8.382812 11.492188 8.398438 11.480469 8.417969 11.464844 C 8.523438 11.398438 8.609375 11.3125 8.671875 11.210938 C 8.671875 11.207031 8.671875 11.207031 8.671875 11.207031 C 9.0625 13.117188 9.953125 15.175781 11.910156 15.199219 C 14.425781 15.132812 14.734375 12.582031 14.796875 10.386719 C 14.796875 10.058594 14.628906 9.75 14.339844 9.5625 C 13.800781 9.199219 12.667969 8.800781 11.152344 8.800781 L 11.261719 8.800781 C 13.054688 8.800781 14.394531 8.617188 15.035156 8.164062 C 15.371094 7.929688 15.574219 7.542969 15.578125 7.132812 C 15.585938 6.265625 14.730469 4.769531 14.761719 4.117188 C 14.820312 2.578125 15.867188 2.246094 16 0.800781 C 12.433594 0.800781 9.714844 5.191406 8.78125 7.539062 C 8.773438 7.527344 8.773438 7.519531 8.765625 7.507812 C 8.734375 7.429688 8.710938 7.359375 8.703125 7.296875 C 8.699219 7.292969 8.703125 7.292969 8.703125 7.292969 C 8.652344 6.953125 8.890625 6.785156 9.054688 6.511719 C 9.066406 6.496094 9.074219 6.484375 9.085938 6.472656 C 9.117188 6.410156 9.144531 6.339844 9.164062 6.265625 C 9.1875 6.1875 9.199219 6.097656 9.199219 6 C 9.199219 5.667969 9.066406 5.371094 8.847656 5.152344 C 8.890625 4.675781 8.960938 4.167969 9.109375 3.703125 C 9.234375 3.316406 9.402344 2.980469 9.613281 2.75 C 9.824219 2.523438 10.066406 2.394531 10.394531 2.398438 L 10.402344 2 C 9.960938 1.996094 9.589844 2.1875 9.320312 2.480469 C 9.046875 2.773438 8.863281 3.164062 8.730469 3.582031 C 8.59375 4.007812 8.511719 4.464844 8.460938 4.894531 C 8.320312 4.835938 8.164062 4.800781 8 4.800781 C 7.835938 4.800781 7.679688 4.832031 7.539062 4.894531 C 7.488281 4.464844 7.40625 4.007812 7.273438 3.582031 C 7.136719 3.164062 6.953125 2.773438 6.683594 2.480469 C 6.414062 2.1875 6.042969 1.996094 5.601562 2 L 5.605469 2.398438 C 5.933594 2.394531 6.175781 2.523438 6.390625 2.75 C 6.601562 2.980469 6.769531 3.316406 6.890625 3.703125 C 7.039062 4.167969 7.109375 4.675781 7.152344 5.148438 C 7.152344 5.152344 7.152344 5.152344 7.152344 5.152344 C 7.042969 5.261719 6.957031 5.386719 6.894531 5.53125 C 6.832031 5.675781 6.800781 5.832031 6.800781 5.996094 C 6.800781 6.097656 6.8125 6.1875 6.832031 6.265625 C 6.855469 6.339844 6.882812 6.410156 6.914062 6.46875 C 6.925781 6.484375 6.933594 6.496094 6.941406 6.511719 C 7.109375 6.785156 7.347656 6.953125 7.296875 7.292969 C 7.296875 7.292969 7.300781 7.292969 7.296875 7.292969 C 7.289062 7.359375 7.265625 7.429688 7.234375 7.507812 C 7.226562 7.519531 7.226562 7.527344 7.21875 7.539062 C 6.285156 5.191406 3.566406 0.800781 0 0.800781 Z M 2 2 C 2.105469 1.996094 2.207031 2.039062 2.285156 2.117188 C 2.359375 2.191406 2.402344 2.292969 2.398438 2.398438 C 2.402344 2.507812 2.359375 2.609375 2.285156 2.683594 C 2.207031 2.757812 2.105469 2.800781 2 2.800781 C 1.894531 2.800781 1.792969 2.757812 1.714844 2.683594 C 1.640625 2.609375 1.597656 2.507812 1.601562 2.398438 C 1.597656 2.292969 1.640625 2.191406 1.714844 2.117188 C 1.792969 2.039062 1.894531 1.996094 2 2 Z M 14 2 C 14.105469 1.996094 14.207031 2.039062 14.285156 2.117188 C 14.359375 2.191406 14.402344 2.292969 14.402344 2.398438 C 14.402344 2.507812 14.359375 2.609375 14.285156 2.683594 C 14.207031 2.757812 14.105469 2.800781 14 2.800781 C 13.894531 2.800781 13.792969 2.757812 13.714844 2.683594 C 13.640625 2.609375 13.597656 2.507812 13.597656 2.398438 C 13.597656 2.292969 13.640625 2.191406 13.714844 2.117188 C 13.792969 2.039062 13.894531 1.996094 14 2 Z M 3.367188 3.851562 C 3.378906 3.847656 3.390625 3.847656 3.398438 3.851562 C 3.730469 3.851562 4 4.117188 4 4.449219 C 4 4.609375 3.9375 4.761719 3.824219 4.875 C 3.710938 4.988281 3.558594 5.050781 3.398438 5.050781 C 3.242188 5.050781 3.085938 4.988281 2.972656 4.875 C 2.863281 4.761719 2.796875 4.609375 2.796875 4.449219 C 2.796875 4.128906 3.046875 3.867188 3.367188 3.851562 Z M 12.566406 3.851562 C 12.578125 3.847656 12.589844 3.847656 12.597656 3.851562 C 12.757812 3.847656 12.910156 3.914062 13.023438 4.023438 C 13.136719 4.136719 13.199219 4.289062 13.203125 4.449219 C 13.203125 4.609375 13.136719 4.761719 13.027344 4.875 C 12.914062 4.988281 12.757812 5.050781 12.597656 5.050781 C 12.441406 5.050781 12.289062 4.988281 12.175781 4.875 C 12.0625 4.761719 12 4.609375 12 4.449219 C 12 4.128906 12.25 3.867188 12.566406 3.851562 Z M 2.398438 6 C 2.613281 5.996094 2.816406 6.082031 2.96875 6.234375 C 3.117188 6.382812 3.203125 6.589844 3.203125 6.800781 C 3.199219 7.242188 2.84375 7.601562 2.398438 7.601562 C 1.957031 7.601562 1.601562 7.242188 1.601562 6.800781 C 1.597656 6.589844 1.683594 6.382812 1.832031 6.234375 C 1.984375 6.082031 2.1875 5.996094 2.398438 6 Z M 13.597656 6 C 13.8125 5.996094 14.015625 6.082031 14.167969 6.234375 C 14.316406 6.382812 14.402344 6.589844 14.402344 6.800781 C 14.398438 7.242188 14.042969 7.601562 13.597656 7.601562 C 13.15625 7.601562 12.800781 7.242188 12.796875 6.800781 C 12.796875 6.589844 12.882812 6.382812 13.03125 6.234375 C 13.183594 6.082031 13.386719 5.996094 13.597656 6 Z M 2.957031 10.402344 C 2.972656 10.398438 2.984375 10.398438 3 10.402344 C 3.332031 10.402344 3.597656 10.667969 3.601562 11 C 3.601562 11.15625 3.535156 11.308594 3.425781 11.421875 C 3.3125 11.535156 3.160156 11.597656 3 11.597656 C 2.839844 11.597656 2.6875 11.535156 2.574219 11.421875 C 2.464844 11.308594 2.398438 11.15625 2.398438 11 C 2.402344 10.683594 2.644531 10.421875 2.957031 10.402344 Z M 12.957031 10.402344 C 12.972656 10.398438 12.984375 10.398438 13 10.402344 C 13.332031 10.402344 13.597656 10.667969 13.601562 11 C 13.601562 11.15625 13.535156 11.308594 13.425781 11.421875 C 13.3125 11.535156 13.160156 11.597656 13 11.597656 C 12.839844 11.597656 12.6875 11.535156 12.574219 11.421875 C 12.464844 11.308594 12.398438 11.15625 12.402344 11 C 12.402344 10.683594 12.644531 10.421875 12.957031 10.402344 Z M 4 12.800781 C 4.441406 12.800781 4.796875 13.160156 4.796875 13.597656 C 4.800781 14.042969 4.441406 14.398438 4 14.402344 C 3.558594 14.398438 3.199219 14.042969 3.203125 13.597656 C 3.203125 13.160156 3.558594 12.800781 4 12.800781 Z M 12 12.800781 C 12.441406 12.800781 12.796875 13.160156 12.796875 13.597656 C 12.800781 14.042969 12.441406 14.398438 12 14.402344 C 11.558594 14.398438 11.199219 14.042969 11.203125 13.597656 C 11.203125 13.160156 11.558594 12.800781 12 12.800781 Z M 12 12.800781 "/>
</g>
</svg>
