
<svg xmlns="http://www.w3.org/2000/svg" xmlns:xlink="http://www.w3.org/1999/xlink" width="16px" height="16px" viewBox="0 0 16 16" version="1.1">
<g id="surface1">
<path style=" stroke:none;fill-rule:nonzero;fill:#ff6666;fill-opacity:1;" d="M 12.605469 0.00390625 C 12.578125 0.0078125 12.554688 0.0117188 12.527344 0.0234375 L 12.511719 0.0429688 L 10.664062 0.65625 C 10.585938 0.6875 10.519531 0.75 10.484375 0.828125 C 10.453125 0.910156 10.453125 1 10.492188 1.078125 L 10.972656 2.058594 C 10.613281 2.246094 10.324219 2.539062 10.148438 2.902344 C 9.890625 3.390625 9.804688 3.925781 9.898438 4.402344 C 8.898438 3.96875 7.882812 4.183594 7.324219 4.996094 C 6.871094 5.65625 6.753906 6.515625 7.074219 7.261719 C 6.203125 6.863281 5.285156 6.769531 4.617188 7.644531 C 5.109375 8.507812 6.46875 10.230469 9.726562 10.660156 C 9.800781 9.96875 9.679688 9.433594 9.28125 8.914062 C 10.21875 9.140625 11.167969 9.03125 11.570312 8.511719 C 12 7.953125 12.050781 6.910156 11.53125 5.9375 C 12.683594 6.226562 14.277344 6.03125 14.640625 5.304688 C 15.070312 4.445312 14.328125 2.914062 12.855469 2.117188 C 12.730469 2.054688 12.601562 2.003906 12.472656 1.960938 L 12.664062 1.867188 L 13.835938 1.867188 C 14.003906 1.867188 14.140625 1.730469 14.140625 1.558594 C 14.140625 1.390625 14.003906 1.253906 13.835938 1.253906 L 12.605469 1.253906 C 12.585938 1.25 12.566406 1.25 12.546875 1.253906 C 12.519531 1.261719 12.496094 1.273438 12.472656 1.289062 L 11.511719 1.769531 L 11.183594 1.117188 L 12.703125 0.617188 C 12.785156 0.605469 12.855469 0.5625 12.90625 0.492188 C 12.953125 0.429688 12.972656 0.34375 12.960938 0.261719 C 12.949219 0.183594 12.902344 0.109375 12.835938 0.0585938 C 12.769531 0.0117188 12.6875 -0.0078125 12.605469 0.00390625 Z M 2.714844 0.0234375 C 1.609375 0.0234375 1.238281 0.578125 1.238281 1.808594 C 1.238281 3.222656 2.21875 5.980469 5.902344 6.53125 C 5.902344 6.53125 5.855469 5.929688 6.039062 5.4375 C 2.71875 5.066406 2.464844 2.179688 2.464844 1.808594 C 2.464844 1.378906 2.585938 1.253906 2.832031 1.253906 C 4.304688 1.253906 6.769531 4.324219 6.769531 4.324219 C 7.199219 3.773438 7.804688 3.652344 7.804688 3.652344 C 6.511719 1.6875 3.757812 0.0234375 2.714844 0.0234375 Z M 6.152344 0.0234375 C 5.785156 0.0234375 5.480469 0.136719 5.175781 0.445312 C 5.480469 0.628906 6.28125 1.128906 6.402344 1.253906 C 6.953125 1.253906 7.8125 1.613281 8.609375 3.519531 C 8.609375 3.519531 9.039062 3.644531 9.285156 3.769531 C 9.347656 3.460938 9.53125 3.039062 9.53125 3.039062 C 8.855469 1.257812 7.261719 0.0234375 6.152344 0.0234375 Z M 12.277344 2.5 C 12.65625 2.453125 13.066406 2.578125 13.335938 2.847656 C 14.011719 3.460938 14.011719 4.320312 13.640625 4.6875 C 13.273438 5.058594 12.367188 4.933594 11.875 4.4375 C 11.382812 4.011719 11.253906 3.21875 11.683594 2.789062 C 11.84375 2.628906 12.054688 2.527344 12.277344 2.5 Z M 4.117188 8.816406 C 4.054688 8.941406 4.066406 9.058594 4.003906 9.183594 C 3.878906 9.675781 3.816406 10.097656 3.753906 10.527344 C 4.429688 11.386719 5.972656 12.871094 8.859375 13.175781 C 9.183594 12.734375 9.410156 12.230469 9.53125 11.699219 C 8.367188 11.636719 5.59375 10.96875 4.117188 8.816406 Z M 3.753906 12.199219 C 3.894531 13.371094 4.339844 14.3125 4.941406 14.808594 C 5.265625 15.582031 6.152344 16 6.152344 16 L 6.152344 15.136719 C 6.683594 15.023438 7.367188 14.6875 7.996094 14.097656 C 6.832031 14.035156 5.042969 13.550781 3.753906 12.199219 Z M 3.753906 12.199219 "/>
</g>
</svg>
