
<svg xmlns="http://www.w3.org/2000/svg" xmlns:xlink="http://www.w3.org/1999/xlink" width="16px" height="16px" viewBox="0 0 16 16" version="1.1">
<g id="surface1">
<path style=" stroke:none;fill-rule:evenodd;fill:#ff6666;fill-opacity:1;" d="M 6.960938 3.394531 C 6.308594 3.542969 5.695312 3.828125 5.164062 4.230469 L 5.089844 4.363281 C 5.570312 4.050781 6.332031 4.082031 6.902344 4.023438 Z M 9.039062 3.394531 L 9.140625 4.523438 C 10.003906 5.039062 10.613281 5.890625 10.824219 6.871094 L 12.636719 7.085938 C 12.273438 5.253906 10.863281 3.804688 9.039062 3.394531 Z M 3.910156 5.644531 C 3.652344 6.09375 3.46875 6.578125 3.367188 7.085938 L 3.6875 7.046875 C 3.691406 6.5 3.910156 5.644531 3.910156 5.644531 Z M 3.363281 8.914062 C 3.726562 10.746094 5.136719 12.195312 6.960938 12.605469 L 6.835938 11.242188 C 5.515625 11.085938 4.386719 10.214844 3.894531 8.976562 Z M 12.632812 8.914062 L 10.570312 9.15625 C 10.277344 9.796875 9.804688 10.335938 9.210938 10.710938 L 9.039062 12.605469 C 10.863281 12.195312 12.269531 10.746094 12.632812 8.914062 Z M 8 0 L 7.222656 7.222656 L 1.816406 8 L 7.222656 8.777344 L 8 16 L 8.777344 8.777344 L 14.183594 8 L 8.777344 7.222656 Z M 8 0 "/>
</g>
</svg>
