
<svg xmlns="http://www.w3.org/2000/svg" xmlns:xlink="http://www.w3.org/1999/xlink" width="16px" height="16px" viewBox="0 0 16 16" version="1.1">
<g id="surface1">
<path style=" stroke:none;fill-rule:nonzero;fill:#ff6666;fill-opacity:1;" d="M 0.644531 0.00390625 C 0.382812 0.0273438 0.207031 0.125 0.09375 0.300781 C -0.0625 0.550781 -0.0195312 1.191406 0.195312 1.832031 C 0.410156 2.464844 0.925781 3.46875 1.40625 4.285156 C 2.199219 3.128906 3.289062 2.199219 4.5625 1.589844 C 3.429688 0.871094 2.210938 0.285156 1.40625 0.0898438 C 1.230469 0.046875 1.070312 0.0195312 0.929688 0.0078125 C 0.824219 -0.00390625 0.730469 -0.00390625 0.644531 0.00390625 Z M 15.355469 0.00390625 C 15.269531 -0.00390625 15.175781 -0.00390625 15.070312 0.0078125 C 14.929688 0.0195312 14.769531 0.046875 14.59375 0.0898438 C 13.699219 0.304688 12.292969 0.992188 11.066406 1.816406 C 10.441406 2.234375 10.398438 2.289062 10.398438 2.714844 C 10.398438 3.019531 10.425781 3.121094 10.578125 3.4375 C 11.003906 4.316406 11.949219 5.214844 12.761719 5.507812 C 13.121094 5.636719 13.582031 5.632812 13.753906 5.496094 C 14.179688 5.160156 15.4375 2.914062 15.804688 1.832031 C 16.019531 1.191406 16.0625 0.550781 15.90625 0.300781 C 15.792969 0.125 15.617188 0.0273438 15.355469 0.00390625 Z M 8 1.601562 C 6.089844 1.601562 4.257812 2.359375 2.910156 3.710938 C 1.558594 5.058594 0.800781 6.890625 0.800781 8.800781 C 0.800781 10.710938 1.558594 12.539062 2.910156 13.890625 C 4.257812 15.242188 6.089844 16 8 16 C 9.910156 16 11.742188 15.242188 13.089844 13.890625 C 14.441406 12.539062 15.199219 10.710938 15.199219 8.800781 C 15.195312 7.773438 14.972656 6.757812 14.546875 5.824219 C 14.464844 5.925781 14.375 6.023438 14.246094 6.125 C 13.890625 6.40625 13.613281 6.398438 13.335938 6.398438 C 13.054688 6.402344 12.773438 6.363281 12.492188 6.257812 C 11.371094 5.859375 10.390625 4.890625 9.859375 3.785156 C 9.691406 3.4375 9.601562 3.0625 9.601562 2.714844 C 9.601562 2.492188 9.636719 2.136719 9.824219 1.84375 C 9.230469 1.683594 8.617188 1.601562 8 1.601562 Z M 8 1.601562 "/>
</g>
</svg>
