
<svg xmlns="http://www.w3.org/2000/svg" xmlns:xlink="http://www.w3.org/1999/xlink" width="16px" height="16px" viewBox="0 0 16 16" version="1.1">
<g id="surface1">
<path style=" stroke:none;fill-rule:nonzero;fill:#ff6666;fill-opacity:1;" d="M 11.75 0 C 10.679688 0 9.621094 0.421875 8.78125 1.261719 C 7.941406 2.101562 7.523438 3.191406 7.523438 4.199219 L 11.800781 8.476562 C 12.894531 8.476562 13.984375 8.058594 14.738281 7.21875 C 16.421875 5.539062 16.421875 2.9375 14.738281 1.261719 C 13.898438 0.421875 12.816406 0 11.746094 0 Z M 6.761719 5.539062 C 6.761719 5.539062 0.128906 13.675781 0.0429688 13.675781 C -0.125 13.84375 0.210938 14.53125 0.882812 15.117188 C 1.554688 15.789062 2.132812 16.125 2.300781 15.957031 L 10.460938 9.238281 Z M 6.761719 5.539062 "/>
</g>
</svg>
