
<svg xmlns="http://www.w3.org/2000/svg" xmlns:xlink="http://www.w3.org/1999/xlink" width="16px" height="16px" viewBox="0 0 16 16" version="1.1">
<g id="surface1">
<path style=" stroke:none;fill-rule:evenodd;fill:#ff6666;fill-opacity:1;" d="M 14.402344 13.867188 L 14.402344 14.664062 C 14.402344 14.878906 14.316406 15.082031 14.167969 15.234375 C 14.015625 15.382812 13.8125 15.46875 13.601562 15.46875 C 13.386719 15.46875 13.1875 15.382812 13.035156 15.234375 C 12.886719 15.082031 12.800781 14.878906 12.800781 14.664062 L 12.800781 11.734375 L 11.734375 11.734375 L 11.734375 12.015625 C 11.734375 13.632812 10.402344 14.933594 8.746094 14.933594 L 7.253906 14.933594 C 5.597656 14.933594 4.265625 13.632812 4.265625 12.015625 L 4.265625 11.734375 L 3.199219 11.734375 L 3.199219 14.664062 C 3.199219 14.878906 3.113281 15.082031 2.964844 15.234375 C 2.8125 15.382812 2.613281 15.46875 2.398438 15.46875 C 2.1875 15.46875 1.984375 15.382812 1.832031 15.234375 C 1.683594 15.082031 1.597656 14.878906 1.597656 14.664062 L 1.597656 13.867188 L 0.800781 13.867188 C 0.585938 13.867188 0.382812 13.785156 0.234375 13.632812 C 0.0820312 13.484375 0 13.28125 0 13.066406 C 0 12.855469 0.0820312 12.652344 0.234375 12.503906 C 0.382812 12.351562 0.585938 12.269531 0.800781 12.269531 L 1.597656 12.269531 L 1.597656 10.933594 C 1.597656 10.492188 1.957031 10.132812 2.398438 10.132812 L 4.265625 10.132812 L 4.265625 5.867188 L 2.398438 5.867188 C 1.957031 5.867188 1.597656 5.507812 1.597656 5.066406 L 1.597656 3.730469 L 0.800781 3.730469 C 0.585938 3.730469 0.382812 3.648438 0.234375 3.496094 C 0.0820312 3.347656 0 3.144531 0 2.933594 C 0 2.71875 0.0820312 2.515625 0.234375 2.367188 C 0.382812 2.214844 0.585938 2.132812 0.800781 2.132812 L 1.597656 2.132812 L 1.597656 1.335938 C 1.597656 1.121094 1.683594 0.914062 1.832031 0.765625 C 1.984375 0.617188 2.1875 0.53125 2.398438 0.53125 C 2.613281 0.53125 2.8125 0.617188 2.964844 0.765625 C 3.113281 0.914062 3.199219 1.121094 3.199219 1.335938 L 3.199219 4.265625 L 4.265625 4.265625 L 4.265625 3.984375 C 4.265625 2.367188 5.597656 1.066406 7.253906 1.066406 L 8.746094 1.066406 C 10.402344 1.066406 11.734375 2.367188 11.734375 3.984375 L 11.734375 4.265625 L 12.800781 4.265625 L 12.800781 1.335938 C 12.800781 1.121094 12.886719 0.914062 13.035156 0.765625 C 13.1875 0.617188 13.386719 0.53125 13.601562 0.53125 C 13.8125 0.53125 14.015625 0.617188 14.167969 0.765625 C 14.316406 0.914062 14.402344 1.121094 14.402344 1.335938 L 14.402344 2.132812 L 15.199219 2.132812 C 15.414062 2.132812 15.617188 2.214844 15.765625 2.367188 C 15.917969 2.515625 16 2.71875 16 2.933594 C 16 3.144531 15.917969 3.347656 15.765625 3.496094 C 15.617188 3.648438 15.414062 3.730469 15.199219 3.730469 L 14.402344 3.730469 L 14.402344 5.066406 C 14.402344 5.507812 14.042969 5.867188 13.601562 5.867188 L 11.734375 5.867188 L 11.734375 10.132812 L 13.601562 10.132812 C 14.042969 10.132812 14.402344 10.492188 14.402344 10.933594 L 14.402344 12.269531 L 15.199219 12.269531 C 15.414062 12.269531 15.617188 12.351562 15.765625 12.503906 C 15.917969 12.652344 16 12.855469 16 13.066406 C 16 13.28125 15.917969 13.484375 15.765625 13.632812 C 15.617188 13.785156 15.414062 13.867188 15.199219 13.867188 Z M 14.402344 13.867188 "/>
</g>
</svg>
