
<svg xmlns="http://www.w3.org/2000/svg" xmlns:xlink="http://www.w3.org/1999/xlink" width="16px" height="16px" viewBox="0 0 16 16" version="1.1">
<g id="surface1">
<path style=" stroke:none;fill-rule:nonzero;fill:#ff6666;fill-opacity:1;" d="M 15.996094 10.074219 C 15.996094 10.023438 16 9.988281 16 9.9375 L 16 9.089844 C 15.175781 8.828125 13.96875 8.476562 13.207031 7.941406 C 13.789062 7.53125 14.597656 7.136719 16 6.808594 L 16 6.0625 C 16 5.925781 15.992188 5.824219 15.992188 5.691406 C 14.632812 6.015625 13.539062 6.578125 12.3125 7.355469 C 11.949219 7.070312 11.722656 6.824219 11.433594 6.53125 C 11.339844 6.703125 11.109375 7.191406 11.027344 7.320312 C 11.328125 7.617188 11.457031 7.789062 11.695312 7.964844 C 11.40625 8.171875 11.402344 8.230469 10.710938 8.84375 C 10.855469 9.117188 10.933594 9.386719 11.078125 9.652344 C 11.414062 9.289062 11.667969 9.003906 12.390625 8.523438 C 13.390625 9.046875 14.25 9.59375 15.996094 10.074219 Z M 10.164062 9.015625 C 10.046875 9.285156 9.96875 9.46875 9.792969 9.871094 C 10.472656 11.21875 10.570312 11.789062 11.203125 12.9375 C 11.472656 13.394531 12.074219 13.066406 11.84375 12.632812 C 11.207031 11.34375 10.824219 10.429688 10.164062 9.015625 Z M 4.652344 13.085938 C 4.351562 13.59375 3.65625 13.355469 4.046875 12.566406 C 4.730469 11.046875 6.269531 7.261719 7.101562 5.394531 C 7.34375 4.828125 7.988281 5.195312 7.796875 5.667969 C 6.832031 7.902344 5.535156 11.253906 4.652344 13.085938 Z M 8.835938 10.816406 C 8.570312 11.253906 7.875 10.941406 8.265625 10.148438 C 8.949219 8.632812 10.488281 4.847656 11.320312 2.980469 C 11.5625 2.414062 12.207031 2.777344 12.015625 3.253906 C 11.050781 5.484375 9.71875 8.988281 8.835938 10.816406 Z M 7.226562 10.527344 C 6.964844 11.113281 6.304688 10.839844 6.695312 10.046875 C 7.378906 8.53125 7.664062 7.613281 8.5 5.746094 C 8.742188 5.179688 9.386719 5.542969 9.195312 6.019531 C 8.230469 8.253906 8.109375 8.699219 7.226562 10.527344 Z M 0.00390625 5.941406 C 0.00390625 5.984375 0 6.015625 0 6.0625 L 0 6.886719 C 0.832031 7.148438 2.042969 7.511719 2.800781 8.039062 C 2.214844 8.453125 1.402344 8.847656 0 9.171875 L 0 9.9375 C 0 10.070312 0.0078125 10.164062 0.0078125 10.292969 C 1.367188 9.96875 2.464844 9.402344 3.695312 8.628906 C 4.054688 8.910156 4.285156 9.15625 4.574219 9.449219 C 4.667969 9.277344 4.894531 8.789062 4.976562 8.660156 C 4.675781 8.363281 4.550781 8.191406 4.308594 8.015625 C 4.597656 7.808594 4.601562 7.75 5.296875 7.136719 C 5.152344 6.863281 5.070312 6.597656 4.925781 6.328125 C 4.589844 6.691406 4.335938 6.980469 3.613281 7.460938 C 2.625 6.9375 1.710938 6.414062 0.00390625 5.941406 Z M 5.8125 6.789062 C 5.929688 6.519531 6.003906 6.339844 6.183594 5.933594 C 5.5 4.589844 5.402344 4.015625 4.773438 2.867188 C 4.503906 2.410156 3.898438 2.738281 4.132812 3.171875 C 4.769531 4.460938 5.148438 5.375 5.8125 6.789062 Z M 5.8125 6.789062 "/>
</g>
</svg>
