
<svg xmlns="http://www.w3.org/2000/svg" xmlns:xlink="http://www.w3.org/1999/xlink" width="16px" height="16px" viewBox="0 0 16 16" version="1.1">
<g id="surface1">
<path style=" stroke:none;fill-rule:nonzero;fill:#ff6666;fill-opacity:1;" d="M 10.222656 0.527344 C 8 0.527344 6.222656 2.304688 6.222656 4.527344 C 6.222656 9.507812 3.820312 11.015625 0 10.304688 C 0 10.304688 2.191406 13.445312 6.640625 13.832031 C 6.386719 14.125 6.277344 14.414062 6.277344 14.414062 L 7.945312 15.082031 C 7.945312 15.082031 7.910156 15.097656 8.027344 15 C 8.144531 14.902344 8.363281 14.75 8.890625 14.75 C 9.941406 14.75 11.027344 15.472656 11.027344 15.472656 L 12.085938 14.027344 C 12.085938 14.027344 11.347656 13.5 10.277344 13.195312 C 12.515625 11.984375 14.019531 9.179688 14.195312 5.277344 L 16 4.082031 L 13.945312 3.109375 C 13.371094 1.605469 11.9375 0.527344 10.222656 0.527344 Z M 11.554688 3.195312 C 12.089844 3.195312 12.445312 3.546875 12.445312 4.082031 C 12.445312 4.617188 12.089844 4.972656 11.554688 4.972656 C 11.019531 4.972656 10.667969 4.617188 10.667969 4.082031 C 10.667969 3.546875 11.019531 3.195312 11.554688 3.195312 Z M 11.554688 3.195312 "/>
</g>
</svg>
