
<svg xmlns="http://www.w3.org/2000/svg" xmlns:xlink="http://www.w3.org/1999/xlink" width="16px" height="16px" viewBox="0 0 16 16" version="1.1">
<g id="surface1">
<path style=" stroke:none;fill-rule:evenodd;fill:#ff6666;fill-opacity:1;" d="M 5.367188 0 C 4.714844 0 4.136719 0.0117188 3.617188 0.0390625 C 3.503906 0.046875 3.40625 0.0585938 3.296875 0.0703125 C 2.15625 1.425781 1.566406 2.675781 1.398438 3.804688 C 1.226562 4.972656 1.511719 6.011719 2.078125 6.886719 C 3.207031 8.640625 5.449219 9.761719 7.5 10.203125 C 7.554688 10.210938 7.609375 10.179688 7.628906 10.125 C 7.648438 10.070312 7.632812 10.011719 7.585938 9.976562 C 6.535156 9.296875 5.976562 8.480469 5.765625 7.601562 C 5.554688 6.722656 5.695312 5.777344 6.078125 4.84375 C 6.851562 2.96875 8.605469 1.152344 10.382812 0.109375 C 10.421875 0.0859375 10.445312 0.0429688 10.449219 0 Z M 8.480469 6.253906 C 8.433594 6.261719 8.394531 6.300781 8.386719 6.351562 C 8.378906 6.398438 8.398438 6.445312 8.4375 6.472656 C 9.488281 7.152344 10.03125 7.984375 10.1875 8.882812 C 10.34375 9.78125 10.109375 10.753906 9.570312 11.707031 C 8.621094 13.390625 6.71875 14.996094 4.429688 15.980469 C 4.738281 15.984375 5.015625 16 5.367188 16 L 10.644531 16 C 11.296875 16 11.875 15.988281 12.390625 15.957031 C 12.648438 15.945312 12.894531 15.925781 13.121094 15.898438 C 13.347656 15.871094 13.5625 15.839844 13.761719 15.800781 C 13.769531 15.800781 13.78125 15.796875 13.789062 15.796875 C 15.050781 13.179688 14.824219 11.050781 13.78125 9.476562 C 12.640625 7.757812 10.574219 6.695312 8.527344 6.253906 C 8.511719 6.25 8.496094 6.25 8.480469 6.253906 Z M 7.21875 6.558594 C 6.964844 6.5625 6.753906 6.648438 6.609375 6.796875 C 6.140625 7.273438 6.390625 8.300781 7.160156 9.089844 C 7.929688 9.878906 8.933594 10.132812 9.398438 9.65625 C 9.78125 9.269531 9.691406 8.492188 9.179688 7.765625 C 8.667969 7.039062 7.863281 6.542969 7.21875 6.558594 Z M 7.21875 6.558594 "/>
</g>
</svg>
