
<svg xmlns="http://www.w3.org/2000/svg" xmlns:xlink="http://www.w3.org/1999/xlink" width="16px" height="16px" viewBox="0 0 16 16" version="1.1">
<g id="surface1">
<path style=" stroke:none;fill-rule:nonzero;fill:#ff6666;fill-opacity:1;" d="M 3.335938 3.089844 L 3.496094 7.160156 C 3.507812 7.460938 3.554688 7.703125 3.640625 7.890625 C 3.726562 8.078125 3.882812 8.21875 4.109375 8.308594 C 4.335938 8.398438 4.949219 8.441406 5.386719 8.441406 C 5.558594 8.441406 5.714844 8.425781 5.847656 8.398438 C 5.988281 8.367188 6.121094 8.300781 6.242188 8.195312 C 6.371094 8.085938 6.507812 7.917969 6.648438 7.691406 C 6.84375 7.949219 7.078125 8.15625 7.359375 8.316406 C 7.640625 8.46875 7.914062 8.546875 8.183594 8.546875 C 8.328125 8.546875 8.8125 8.515625 8.9375 8.460938 L 9.0625 11.632812 C 9.074219 11.929688 9.121094 12.171875 9.207031 12.359375 C 9.292969 12.550781 9.449219 12.6875 9.675781 12.777344 C 9.902344 12.867188 10.234375 12.910156 10.671875 12.910156 L 11.058594 12.910156 C 11.53125 12.910156 11.910156 12.878906 12.191406 12.808594 C 12.472656 12.734375 12.679688 12.640625 12.820312 12.523438 C 12.960938 12.410156 13.054688 12.289062 13.097656 12.160156 C 13.140625 12.03125 13.160156 11.910156 13.160156 11.804688 C 13.160156 11.421875 12.992188 11.042969 12.652344 10.671875 C 12.316406 10.292969 11.835938 9.867188 11.203125 9.398438 C 11.375 9.289062 11.5625 9.179688 11.761719 9.078125 C 11.964844 8.96875 12.222656 8.84375 12.527344 8.703125 C 12.828125 8.566406 13.21875 8.390625 13.679688 8.1875 C 13.742188 8.246094 13.816406 8.296875 13.90625 8.335938 C 14.078125 8.40625 14.3125 8.441406 14.609375 8.441406 C 15.039062 8.441406 15.378906 8.328125 15.628906 8.105469 C 15.875 7.878906 16 7.535156 16 7.070312 C 16 6.921875 15.980469 6.75 15.9375 6.550781 C 15.894531 6.351562 15.839844 6.152344 15.773438 5.953125 C 15.710938 5.75 15.644531 5.566406 15.578125 5.402344 L 14.925781 5.628906 C 15.042969 5.910156 15.148438 6.195312 15.238281 6.484375 C 15.335938 6.769531 15.386719 7.007812 15.386719 7.191406 C 15.386719 7.449219 15.316406 7.621094 15.175781 7.703125 C 15.035156 7.789062 14.847656 7.832031 14.617188 7.832031 C 14.40625 7.832031 14.246094 7.8125 14.140625 7.777344 C 14.039062 7.742188 13.96875 7.695312 13.929688 7.636719 C 13.898438 7.574219 13.882812 7.507812 13.882812 7.4375 C 13.882812 7.351562 13.890625 7.246094 13.90625 7.121094 C 13.921875 6.992188 13.941406 6.867188 13.960938 6.738281 C 13.988281 6.609375 14.011719 6.496094 14.027344 6.410156 L 13.410156 6.304688 C 13.355469 6.660156 13.296875 6.9375 13.246094 7.144531 L 13.054688 6.761719 C 12.550781 7.003906 12.109375 7.226562 11.699219 7.441406 C 11.699219 7.441406 11.695312 7.4375 11.695312 7.4375 C 11.695312 7.296875 11.71875 7.140625 11.761719 6.96875 C 11.804688 6.792969 11.84375 6.640625 11.875 6.511719 L 11.269531 6.355469 C 11.179688 6.714844 11.105469 6.992188 11.039062 7.191406 C 10.976562 7.390625 10.90625 7.535156 10.832031 7.628906 C 10.761719 7.71875 10.671875 7.777344 10.566406 7.800781 C 10.457031 7.820312 10.316406 7.832031 10.144531 7.832031 C 10.003906 7.832031 9.875 7.8125 9.761719 7.773438 C 9.652344 7.726562 9.550781 7.636719 9.445312 7.503906 C 9.347656 7.371094 9.238281 7.164062 9.113281 6.886719 C 8.980469 6.589844 8.851562 6.355469 8.726562 6.183594 C 8.609375 6.011719 8.480469 5.890625 8.339844 5.820312 C 8.199219 5.746094 8.039062 5.710938 7.859375 5.710938 C 7.730469 5.710938 7.585938 5.742188 7.425781 5.804688 C 7.269531 5.871094 7.101562 5.988281 6.921875 6.15625 C 6.75 6.324219 6.578125 6.566406 6.40625 6.886719 C 6.277344 7.125 6.167969 7.3125 6.082031 7.453125 C 6 7.585938 5.914062 7.683594 5.824219 7.742188 C 5.734375 7.800781 5.617188 7.832031 5.46875 7.832031 C 5.160156 7.832031 4.652344 7.804688 4.507812 7.757812 C 4.367188 7.707031 4.273438 7.617188 4.230469 7.488281 C 4.195312 7.355469 4.171875 7.164062 4.160156 6.921875 L 3.996094 3.089844 Z M 13.550781 3.609375 C 13.4375 3.609375 13.339844 3.644531 13.257812 3.722656 C 13.183594 3.796875 13.144531 3.882812 13.144531 3.980469 C 13.144531 4.082031 13.183594 4.167969 13.257812 4.242188 C 13.339844 4.3125 13.4375 4.347656 13.550781 4.347656 C 13.65625 4.347656 13.75 4.3125 13.824219 4.242188 C 13.90625 4.167969 13.945312 4.082031 13.945312 3.980469 C 13.945312 3.882812 13.90625 3.796875 13.824219 3.722656 C 13.75 3.644531 13.65625 3.609375 13.550781 3.609375 Z M 13 4.429688 C 12.886719 4.429688 12.789062 4.464844 12.707031 4.539062 C 12.632812 4.613281 12.59375 4.703125 12.59375 4.800781 C 12.59375 4.898438 12.632812 4.984375 12.707031 5.0625 C 12.789062 5.128906 12.886719 5.164062 13 5.164062 C 13.105469 5.164062 13.199219 5.128906 13.273438 5.0625 C 13.355469 4.984375 13.394531 4.898438 13.394531 4.800781 C 13.394531 4.703125 13.355469 4.613281 13.273438 4.539062 C 13.199219 4.464844 13.105469 4.429688 13 4.429688 Z M 14.097656 4.429688 C 13.984375 4.429688 13.890625 4.464844 13.808594 4.539062 C 13.730469 4.613281 13.695312 4.703125 13.695312 4.800781 C 13.695312 4.898438 13.730469 4.984375 13.808594 5.0625 C 13.890625 5.128906 13.984375 5.164062 14.097656 5.164062 C 14.207031 5.164062 14.300781 5.128906 14.375 5.0625 C 14.453125 4.984375 14.496094 4.898438 14.496094 4.800781 C 14.496094 4.703125 14.453125 4.613281 14.375 4.539062 C 14.300781 4.464844 14.207031 4.429688 14.097656 4.429688 Z M 2.0625 5.878906 L 1.472656 6.15625 C 1.617188 6.398438 1.730469 6.601562 1.8125 6.765625 C 1.890625 6.929688 1.949219 7.078125 1.980469 7.207031 C 2.015625 7.335938 2.03125 7.46875 2.03125 7.609375 C 2.03125 7.824219 1.972656 8.058594 1.859375 8.300781 C 1.753906 8.539062 1.550781 8.765625 1.253906 8.984375 C 0.964844 9.203125 0.546875 9.394531 0 9.550781 L 0.234375 10.117188 C 0.402344 10.078125 0.589844 10.011719 0.800781 9.925781 C 1.015625 9.835938 1.230469 9.71875 1.441406 9.582031 C 1.65625 9.441406 1.851562 9.273438 2.03125 9.074219 C 2.214844 8.882812 2.359375 8.65625 2.46875 8.40625 C 2.578125 8.152344 2.636719 7.867188 2.636719 7.554688 C 2.636719 7.335938 2.589844 7.085938 2.5 6.796875 C 2.414062 6.507812 2.269531 6.203125 2.0625 5.878906 Z M 7.8125 6.304688 C 7.9375 6.304688 8.046875 6.351562 8.136719 6.445312 C 8.226562 6.535156 8.308594 6.652344 8.378906 6.796875 C 8.449219 6.941406 8.515625 7.085938 8.582031 7.234375 C 8.636719 7.359375 8.65625 7.464844 8.652344 7.558594 L 8.558594 7.789062 C 8.472656 7.890625 8.347656 7.941406 8.175781 7.941406 C 8 7.941406 7.796875 7.878906 7.570312 7.75 C 7.34375 7.613281 7.140625 7.40625 6.957031 7.121094 C 7.128906 6.8125 7.285156 6.597656 7.425781 6.484375 C 7.566406 6.367188 7.695312 6.308594 7.8125 6.304688 Z M 13.214844 7.25 C 13.167969 7.40625 13.113281 7.535156 13.054688 7.617188 C 12.992188 7.710938 12.90625 7.769531 12.804688 7.792969 C 12.703125 7.820312 12.570312 7.832031 12.410156 7.832031 C 12.296875 7.832031 12.203125 7.820312 12.121094 7.808594 C 12.460938 7.632812 12.785156 7.460938 13.214844 7.25 Z M 11.472656 8.140625 C 11.511719 8.1875 11.550781 8.230469 11.601562 8.261719 C 11.671875 8.308594 11.746094 8.34375 11.828125 8.367188 C 11.800781 8.382812 11.753906 8.402344 11.730469 8.414062 C 11.269531 8.628906 10.933594 8.839844 10.71875 9.054688 C 10.660156 9.109375 10.613281 9.1875 10.589844 9.285156 C 10.5625 9.386719 10.546875 9.492188 10.546875 9.605469 C 10.546875 9.648438 10.613281 9.722656 10.742188 9.820312 C 10.871094 9.921875 11.035156 10.042969 11.234375 10.1875 C 11.433594 10.328125 11.636719 10.496094 11.835938 10.6875 C 12.125 10.953125 12.316406 11.171875 12.410156 11.339844 C 12.507812 11.511719 12.554688 11.652344 12.554688 11.765625 C 12.554688 11.828125 12.539062 11.894531 12.507812 11.960938 C 12.480469 12.019531 12.417969 12.074219 12.328125 12.128906 C 12.242188 12.179688 12.105469 12.222656 11.914062 12.257812 C 11.726562 12.285156 11.476562 12.300781 11.164062 12.300781 L 10.753906 12.300781 C 10.445312 12.300781 10.21875 12.277344 10.074219 12.226562 C 9.933594 12.175781 9.839844 12.089844 9.796875 11.960938 C 9.761719 11.824219 9.738281 11.636719 9.726562 11.394531 L 9.570312 8.410156 C 9.640625 8.460938 9.683594 8.472656 9.773438 8.503906 L 10.3125 8.777344 C 10.628906 8.597656 11.023438 8.382812 11.472656 8.140625 Z M 6.160156 9.367188 L 5.742188 9.828125 L 5.976562 10.023438 C 5.59375 10.351562 5.324219 10.664062 5.164062 10.960938 C 5.015625 11.253906 4.941406 11.5 4.941406 11.699219 C 4.941406 12.101562 5.070312 12.398438 5.335938 12.59375 C 5.601562 12.78125 5.933594 12.875 6.332031 12.875 C 6.605469 12.875 6.835938 12.832031 7.019531 12.746094 C 7.203125 12.660156 7.34375 12.546875 7.445312 12.414062 C 7.550781 12.273438 7.621094 12.132812 7.664062 11.988281 C 7.710938 11.84375 7.730469 11.714844 7.730469 11.601562 C 7.730469 11.308594 7.65625 11.03125 7.511719 10.765625 C 7.367188 10.503906 7.175781 10.257812 6.9375 10.023438 C 6.699219 9.789062 6.441406 9.570312 6.160156 9.367188 Z M 6.363281 10.320312 C 6.589844 10.5 6.761719 10.664062 6.871094 10.8125 C 6.984375 10.957031 7.0625 11.089844 7.097656 11.214844 C 7.136719 11.339844 7.15625 11.457031 7.15625 11.570312 C 7.15625 11.78125 7.085938 11.949219 6.945312 12.078125 C 6.804688 12.203125 6.601562 12.265625 6.332031 12.265625 C 6.113281 12.265625 5.933594 12.210938 5.789062 12.109375 C 5.648438 12.003906 5.578125 11.847656 5.578125 11.640625 C 5.578125 11.460938 5.644531 11.25 5.78125 11.011719 C 5.921875 10.773438 6.113281 10.542969 6.363281 10.320312 Z M 6.363281 10.320312 "/>
</g>
</svg>
