
<svg xmlns="http://www.w3.org/2000/svg" xmlns:xlink="http://www.w3.org/1999/xlink" width="16px" height="16px" viewBox="0 0 16 16" version="1.1">
<g id="surface1">
<path style=" stroke:none;fill-rule:nonzero;fill:#ff6666;fill-opacity:1;" d="M 5.691406 5.964844 C 2.398438 6.691406 0 8.925781 0 11.429688 C 1.402344 11.75 1.851562 11.847656 3.429688 12.101562 L 3.429688 15.210938 C 3.429688 15.210938 3.484375 16 4.285156 16 L 11.714844 16 C 12.515625 16 12.570312 15.210938 12.570312 15.210938 L 12.570312 12.101562 C 14.175781 11.808594 14.5 11.75 16 11.429688 C 16 8.925781 13.601562 6.691406 10.308594 5.964844 C 10.996094 5.335938 11.429688 4.433594 11.429688 3.429688 C 11.429688 1.535156 9.890625 0 8 0 C 6.109375 0 4.570312 1.535156 4.570312 3.429688 C 4.570312 4.433594 5.003906 5.335938 5.691406 5.964844 Z M 5.691406 5.964844 "/>
</g>
</svg>
