
<svg xmlns="http://www.w3.org/2000/svg" xmlns:xlink="http://www.w3.org/1999/xlink" width="16px" height="16px" viewBox="0 0 16 16" version="1.1">
<g id="surface1">
<path style=" stroke:none;fill-rule:evenodd;fill:#ff6666;fill-opacity:1;" d="M 10.460938 7.078125 L 15.941406 7.078125 C 15.976562 7.382812 15.996094 7.691406 16 8 C 16 8.308594 15.984375 8.617188 15.949219 8.921875 L 14.085938 8.921875 C 13.621094 12.441406 10.625 15.070312 7.078125 15.078125 C 3.167969 15.078125 0 11.90625 0 8 C 0 4.09375 3.167969 0.921875 7.078125 0.921875 C 8.839844 0.925781 10.535156 1.582031 11.835938 2.769531 L 7.078125 2.769531 C 4.1875 2.769531 1.847656 5.109375 1.847656 8 C 1.847656 10.890625 4.1875 13.230469 7.078125 13.230469 C 9.609375 13.230469 11.773438 11.414062 12.222656 8.921875 L 10.460938 8.921875 L 10.460938 11.386719 L 8.613281 11.386719 L 8.613281 11.011719 C 8.140625 11.253906 7.613281 11.382812 7.078125 11.386719 C 5.207031 11.386719 3.691406 9.867188 3.691406 8 C 3.691406 6.132812 5.207031 4.613281 7.078125 4.613281 C 7.613281 4.613281 8.140625 4.742188 8.613281 4.984375 L 8.613281 4.613281 L 10.460938 4.613281 Z M 7.078125 6.460938 C 7.925781 6.460938 8.613281 7.148438 8.613281 8 C 8.613281 8.851562 7.925781 9.539062 7.078125 9.539062 C 6.226562 9.539062 5.539062 8.851562 5.539062 8 C 5.539062 7.148438 6.226562 6.460938 7.078125 6.460938 Z M 7.078125 6.460938 "/>
</g>
</svg>
