
<svg xmlns="http://www.w3.org/2000/svg" xmlns:xlink="http://www.w3.org/1999/xlink" width="16px" height="16px" viewBox="0 0 16 16" version="1.1">
<g id="surface1">
<path style=" stroke:none;fill-rule:evenodd;fill:#ff6666;fill-opacity:1;" d="M 12.15625 0 C 10.421875 0.496094 9.335938 3.496094 9.523438 3.425781 L 9.550781 4.121094 C 9.5625 4.121094 9.570312 4.125 9.578125 4.125 C 8.539062 4.058594 7.023438 4.378906 6.265625 5.296875 C 3.386719 5.582031 0.933594 8.230469 1.15625 10.261719 C 1.390625 12.378906 3.460938 13.671875 3.957031 13.800781 C 4.074219 13.835938 4.183594 13.855469 4.289062 13.863281 C 4.410156 14.691406 4.949219 15.578125 5.609375 15.9375 C 6.191406 16.246094 7.710938 15.332031 7.710938 15.332031 C 6.714844 14.742188 6.082031 14.164062 5.609375 13.578125 C 6.085938 13.542969 6.703125 13.652344 7.339844 13.78125 C 9.109375 15.6875 12.09375 16.640625 13.035156 15.511719 C 12.800781 15.140625 12.386719 15.089844 11.847656 14.710938 C 11.734375 14.730469 11.636719 14.777344 11.5625 14.863281 L 11.269531 14.363281 C 11.15625 14.378906 11.0625 14.214844 10.953125 14.410156 C 10.746094 14.257812 10.757812 14.199219 10.796875 14.078125 C 10.832031 13.988281 10.875 13.917969 10.921875 13.847656 C 11.238281 13.953125 11.570312 14.070312 11.792969 14.15625 C 11.917969 14.210938 11.8125 13.792969 11.949219 13.78125 C 12.132812 13.765625 12.175781 14.253906 12.363281 14.265625 C 12.523438 14.277344 12.59375 13.789062 12.734375 13.867188 C 12.949219 13.984375 13.765625 14.6875 13.707031 14.332031 C 13.585938 13.558594 12.617188 12.695312 12.039062 12.359375 C 11.746094 12.191406 11.183594 12.109375 10.734375 12.070312 C 10.222656 11.347656 9.382812 10.492188 8.726562 10.125 C 8.691406 10.105469 8.65625 10.089844 8.617188 10.070312 C 8.683594 9.890625 8.75 9.652344 8.8125 9.429688 C 11.4375 8.863281 15.445312 5.257812 14.78125 2.140625 C 14.609375 2.742188 14.394531 3.136719 14.140625 3.390625 C 14.175781 3.234375 14.171875 3.066406 14.125 2.878906 L 13.382812 3.683594 C 13.429688 3.546875 13.460938 3.402344 13.425781 3.230469 L 12.714844 3.839844 C 12.832031 3.691406 12.894531 3.515625 12.878906 3.28125 C 12.882812 3.289062 12.636719 3.476562 12.320312 3.683594 C 12.332031 3.550781 12.335938 3.421875 12.335938 3.296875 C 12.632812 3.046875 12.957031 2.730469 13.046875 2.476562 C 13.222656 1.96875 13.386719 0.96875 13.101562 0.574219 C 12.957031 0.375 12.753906 1.214844 12.746094 1.285156 C 12.734375 1.410156 12.429688 1.152344 12.335938 1.234375 C 12.160156 1.386719 12.328125 1.726562 12.257812 1.71875 C 12.167969 1.703125 12.136719 1.546875 12.046875 1.5625 C 11.808594 1.761719 11.671875 2.007812 11.566406 2.242188 C 11.5 2.226562 11.433594 2.207031 11.375 2.179688 C 11.28125 2.140625 11.292969 1.902344 11.324219 1.804688 C 11.363281 1.6875 11.570312 1.773438 11.625 1.660156 C 11.6875 1.539062 11.570312 1.328125 11.65625 1.222656 C 11.707031 1.160156 11.796875 1.25 11.847656 1.183594 C 12.003906 0.984375 12.257812 -0.0195312 12.15625 0 Z M 12.121094 3.8125 C 12.035156 3.859375 11.972656 3.902344 11.878906 3.949219 C 11.964844 3.90625 12.039062 3.859375 12.121094 3.8125 Z M 11.824219 3.976562 C 11.6875 4.042969 11.550781 4.101562 11.40625 4.152344 C 11.546875 4.101562 11.6875 4.042969 11.824219 3.976562 Z M 11.277344 4.195312 C 11.144531 4.234375 11.007812 4.257812 10.875 4.273438 C 11.007812 4.257812 11.144531 4.234375 11.277344 4.195312 Z M 10.222656 4.226562 C 10.234375 4.230469 10.246094 4.230469 10.253906 4.234375 C 10.265625 4.234375 10.273438 4.234375 10.285156 4.238281 C 10.273438 4.234375 10.265625 4.238281 10.253906 4.234375 C 10.246094 4.230469 10.234375 4.230469 10.222656 4.226562 Z M 10.617188 4.289062 C 10.65625 4.292969 10.695312 4.292969 10.734375 4.292969 C 10.691406 4.292969 10.65625 4.292969 10.617188 4.289062 Z M 9.40625 4.570312 C 9.410156 4.570312 9.421875 4.570312 9.429688 4.570312 C 9.65625 4.570312 9.875 4.664062 10.035156 4.824219 C 10.195312 4.984375 10.285156 5.203125 10.285156 5.429688 C 10.285156 5.65625 10.195312 5.875 10.035156 6.035156 C 9.875 6.195312 9.65625 6.289062 9.429688 6.289062 C 9.199219 6.289062 8.980469 6.195312 8.820312 6.035156 C 8.660156 5.875 8.570312 5.65625 8.570312 5.429688 C 8.570312 4.964844 8.941406 4.585938 9.40625 4.570312 Z M 7.148438 9.390625 C 7.042969 9.644531 6.921875 9.933594 6.867188 10.074219 C 6.363281 10.515625 6.207031 11.394531 6.320312 12.089844 C 5.71875 12.042969 5.046875 12.117188 4.632812 12.519531 C 4.410156 11.992188 4.222656 11.082031 4.679688 10.484375 C 5.117188 9.921875 6.398438 9.507812 7.148438 9.390625 Z M 7.148438 9.390625 "/>
</g>
</svg>
