
<svg xmlns="http://www.w3.org/2000/svg" xmlns:xlink="http://www.w3.org/1999/xlink" width="16px" height="16px" viewBox="0 0 16 16" version="1.1">
<g id="surface1">
<path style=" stroke:none;fill-rule:nonzero;fill:#ff6666;fill-opacity:1;" d="M 7.464844 1.601562 L 7.464844 2.132812 L 8.535156 2.132812 L 8.535156 1.601562 Z M 7.464844 2.667969 L 7.464844 3.199219 L 8.535156 3.199219 L 8.535156 2.667969 Z M 7.464844 3.734375 L 7.464844 6.933594 L 3.734375 6.933594 C 3.699219 6.933594 3.660156 6.9375 3.628906 6.941406 C 1.984375 6.988281 0.554688 8.105469 0.128906 9.703125 C -0.308594 11.332031 0.40625 13.058594 1.867188 13.902344 C 3.316406 14.738281 5.148438 14.503906 6.339844 13.335938 L 9.660156 13.335938 C 10.851562 14.503906 12.683594 14.738281 14.132812 13.902344 C 15.59375 13.058594 16.308594 11.332031 15.871094 9.703125 C 15.445312 8.105469 14.011719 6.988281 12.367188 6.941406 C 12.332031 6.9375 12.300781 6.933594 12.265625 6.933594 L 8.535156 6.933594 L 8.535156 3.734375 Z M 3.734375 8 L 12.265625 8 C 13.476562 8 14.53125 8.808594 14.84375 9.976562 C 15.15625 11.144531 14.648438 12.371094 13.601562 12.976562 C 12.609375 13.550781 11.386719 13.417969 10.53125 12.679688 C 10.390625 12.542969 10.253906 12.265625 10.003906 12.265625 L 5.996094 12.265625 C 5.746094 12.265625 5.574219 12.554688 5.472656 12.675781 C 4.617188 13.417969 3.390625 13.550781 2.398438 12.976562 C 1.351562 12.371094 0.84375 11.144531 1.160156 9.976562 C 1.472656 8.808594 2.523438 8 3.734375 8 Z M 3.199219 9.066406 L 3.199219 10.132812 L 2.132812 10.132812 L 2.132812 11.199219 L 3.199219 11.199219 L 3.199219 12.265625 L 4.265625 12.265625 L 4.265625 11.199219 L 5.332031 11.199219 L 5.332031 10.132812 L 4.265625 10.132812 L 4.265625 9.066406 Z M 12.265625 9.066406 C 11.972656 9.066406 11.734375 9.304688 11.734375 9.601562 C 11.734375 9.894531 11.972656 10.132812 12.265625 10.132812 C 12.5625 10.132812 12.800781 9.894531 12.800781 9.601562 C 12.800781 9.304688 12.5625 9.066406 12.265625 9.066406 Z M 11.199219 10.132812 C 10.90625 10.132812 10.667969 10.371094 10.667969 10.667969 C 10.667969 10.960938 10.90625 11.199219 11.199219 11.199219 C 11.496094 11.199219 11.734375 10.960938 11.734375 10.667969 C 11.734375 10.371094 11.496094 10.132812 11.199219 10.132812 Z M 13.332031 10.132812 C 13.039062 10.132812 12.800781 10.371094 12.800781 10.667969 C 12.800781 10.960938 13.039062 11.199219 13.332031 11.199219 C 13.628906 11.199219 13.867188 10.960938 13.867188 10.667969 C 13.867188 10.371094 13.628906 10.132812 13.332031 10.132812 Z M 12.265625 11.199219 C 11.972656 11.199219 11.734375 11.4375 11.734375 11.734375 C 11.734375 12.027344 11.972656 12.265625 12.265625 12.265625 C 12.5625 12.265625 12.800781 12.027344 12.800781 11.734375 C 12.800781 11.4375 12.5625 11.199219 12.265625 11.199219 Z M 12.265625 11.199219 "/>
</g>
</svg>
