
<svg xmlns="http://www.w3.org/2000/svg" xmlns:xlink="http://www.w3.org/1999/xlink" width="16px" height="16px" viewBox="0 0 16 16" version="1.1">
<g id="surface1">
<path style=" stroke:none;fill-rule:nonzero;fill:#ff6666;fill-opacity:1;" d="M 4.25 2.667969 C 3.316406 2.667969 2.335938 3.183594 1.789062 4.574219 C 0.628906 7.503906 0 9.769531 0 11.144531 C 0 12.203125 0.375 12.871094 1.167969 13.261719 C 1.257812 13.308594 1.363281 13.332031 1.464844 13.332031 C 1.632812 13.332031 1.789062 13.273438 1.914062 13.164062 L 3.988281 11.332031 C 4.359375 11.003906 4.683594 10.664062 5.589844 10.664062 L 10.410156 10.664062 C 11.316406 10.664062 11.640625 11.003906 12.011719 11.332031 L 14.085938 13.164062 C 14.292969 13.34375 14.585938 13.386719 14.835938 13.261719 C 15.625 12.871094 16 12.203125 16 11.144531 C 16 9.769531 15.371094 7.503906 14.214844 4.574219 C 13.664062 3.183594 12.683594 2.667969 11.75 2.667969 C 11.3125 2.667969 10.882812 2.78125 10.515625 2.972656 C 8.933594 3.785156 7.101562 3.804688 5.488281 2.972656 C 5.117188 2.78125 4.6875 2.667969 4.25 2.667969 Z M 8 4.191406 C 8.632812 4.191406 9.144531 4.703125 9.144531 5.332031 C 9.144531 5.964844 8.632812 6.476562 8 6.476562 C 7.367188 6.476562 6.855469 5.964844 6.855469 5.332031 C 6.855469 4.703125 7.367188 4.191406 8 4.191406 Z M 4.265625 5.332031 C 5.148438 5.332031 5.867188 6.050781 5.867188 6.933594 C 5.867188 7.816406 5.148438 8.535156 4.265625 8.535156 C 3.382812 8.535156 2.667969 7.816406 2.667969 6.933594 C 2.667969 6.050781 3.382812 5.332031 4.265625 5.332031 Z M 11.617188 5.332031 C 11.769531 5.332031 11.914062 5.394531 12.023438 5.5 C 12.128906 5.609375 12.191406 5.753906 12.191406 5.90625 C 12.191406 6.054688 12.128906 6.203125 12.023438 6.308594 C 11.914062 6.414062 11.769531 6.476562 11.617188 6.476562 C 11.46875 6.476562 11.320312 6.414062 11.214844 6.308594 C 11.109375 6.203125 11.046875 6.054688 11.046875 5.90625 C 11.046875 5.753906 11.109375 5.609375 11.214844 5.5 C 11.320312 5.394531 11.46875 5.332031 11.617188 5.332031 Z M 4.265625 5.867188 C 3.675781 5.867188 3.199219 6.34375 3.199219 6.933594 C 3.199219 7.523438 3.675781 8 4.265625 8 C 4.855469 8 5.332031 7.523438 5.332031 6.933594 C 5.332031 6.34375 4.855469 5.867188 4.265625 5.867188 Z M 10.476562 6.476562 C 10.628906 6.476562 10.773438 6.535156 10.878906 6.644531 C 10.988281 6.75 11.046875 6.894531 11.046875 7.046875 C 11.046875 7.199219 10.988281 7.34375 10.878906 7.453125 C 10.773438 7.558594 10.628906 7.617188 10.476562 7.617188 C 10.324219 7.617188 10.179688 7.558594 10.070312 7.453125 C 9.964844 7.34375 9.90625 7.199219 9.90625 7.046875 C 9.90625 6.894531 9.964844 6.75 10.070312 6.644531 C 10.179688 6.535156 10.324219 6.476562 10.476562 6.476562 Z M 12.761719 6.476562 C 12.914062 6.476562 13.058594 6.535156 13.164062 6.644531 C 13.273438 6.75 13.332031 6.894531 13.332031 7.046875 C 13.332031 7.199219 13.273438 7.34375 13.164062 7.453125 C 13.058594 7.558594 12.914062 7.617188 12.761719 7.617188 C 12.609375 7.617188 12.464844 7.558594 12.359375 7.453125 C 12.25 7.34375 12.191406 7.199219 12.191406 7.046875 C 12.191406 6.894531 12.25 6.75 12.359375 6.644531 C 12.464844 6.535156 12.609375 6.476562 12.761719 6.476562 Z M 11.617188 7.617188 C 11.769531 7.617188 11.914062 7.679688 12.023438 7.785156 C 12.128906 7.894531 12.191406 8.039062 12.191406 8.191406 C 12.191406 8.34375 12.128906 8.488281 12.023438 8.59375 C 11.914062 8.703125 11.769531 8.761719 11.617188 8.761719 C 11.46875 8.761719 11.320312 8.703125 11.214844 8.59375 C 11.109375 8.488281 11.046875 8.34375 11.046875 8.191406 C 11.046875 8.039062 11.109375 7.894531 11.214844 7.785156 C 11.320312 7.679688 11.46875 7.617188 11.617188 7.617188 Z M 11.617188 7.617188 "/>
</g>
</svg>
