
<svg xmlns="http://www.w3.org/2000/svg" xmlns:xlink="http://www.w3.org/1999/xlink" width="16px" height="16px" viewBox="0 0 16 16" version="1.1">
<g id="surface1">
<path style=" stroke:none;fill-rule:evenodd;fill:#ff6666;fill-opacity:1;" d="M 2.429688 7.367188 L 2.429688 6.570312 L 2.433594 6.570312 C 2.429688 6.476562 2.429688 6.382812 2.429688 6.285156 C 2.429688 2.816406 5.246094 0 8.714844 0 C 12.183594 0 15 2.816406 15 6.285156 C 15 8.234375 14.109375 9.980469 12.714844 11.132812 L 12.714844 14.9375 C 12.714844 15.523438 12.238281 16 11.652344 16 L 6.347656 16 C 5.761719 16 5.285156 15.523438 5.285156 14.9375 L 5.285156 13.714844 L 3.566406 13.714844 C 2.9375 13.714844 2.429688 13.207031 2.429688 12.578125 L 2.429688 10.855469 L 1.800781 10.855469 C 1.515625 10.855469 1.25 10.703125 1.105469 10.457031 C 0.964844 10.210938 0.964844 9.90625 1.105469 9.65625 L 2.167969 7.820312 Z M 8.804688 1.691406 C 8.675781 1.6875 8.546875 1.691406 8.421875 1.695312 C 7.695312 1.71875 6.960938 1.886719 6.316406 2.171875 C 5.652344 2.519531 5.078125 3.019531 4.640625 3.628906 C 4.175781 4.363281 3.992188 5.234375 4.28125 5.785156 C 4.621094 6.4375 5.332031 6.835938 6.054688 6.835938 C 6.429688 6.835938 6.460938 6.855469 6.460938 7.125 C 6.460938 7.714844 7.226562 7.992188 8.304688 7.992188 C 8.882812 7.992188 8.976562 8.019531 8.925781 8.152344 C 8.847656 8.359375 9.175781 9.0625 9.53125 9.390625 C 9.683594 9.53125 9.867188 9.742188 9.945312 9.925781 C 10.097656 10.28125 10.242188 10.328125 10.65625 10.140625 C 10.972656 9.996094 10.980469 9.910156 10.714844 9.46875 C 10.601562 9.285156 10.507812 9.1875 10.507812 9.152344 C 10.507812 9.121094 10.429688 9.097656 10.867188 9.101562 C 12.136719 9.113281 12.710938 8.660156 12.714844 7.625 C 12.714844 7.457031 12.800781 7.335938 12.914062 7.234375 C 13.308594 7.042969 13.265625 6.839844 13.285156 6.445312 C 13.285156 4.398438 11.976562 2.542969 10.039062 1.890625 C 9.992188 1.875 9.949219 1.859375 9.90625 1.847656 C 9.554688 1.757812 9.183594 1.703125 8.804688 1.691406 Z M 8.804688 1.691406 "/>
</g>
</svg>
