
<svg xmlns="http://www.w3.org/2000/svg" xmlns:xlink="http://www.w3.org/1999/xlink" width="16px" height="16px" viewBox="0 0 16 16" version="1.1">
<g id="surface1">
<path style=" stroke:none;fill-rule:nonzero;fill:#ff6666;fill-opacity:1;" d="M 3.773438 0.5 L 2.9375 1.335938 L 3.042969 1.445312 C 1.890625 2.796875 1.253906 4.519531 1.25 6.300781 C 1.25 10.289062 4.359375 13.550781 8.285156 13.800781 L 8.285156 14.050781 C 6.03125 14.113281 3.917969 14.59375 3.917969 15.5 L 13.621094 15.5 C 13.621094 14.59375 11.507812 14.113281 9.253906 14.050781 L 9.253906 13.800781 C 10.859375 13.695312 12.394531 13.074219 13.628906 12.027344 L 13.699219 12.097656 L 14.535156 11.261719 L 12.890625 9.617188 C 13.644531 8.675781 14.054688 7.503906 14.058594 6.300781 C 14.058594 3.359375 11.675781 0.980469 8.738281 0.980469 C 7.53125 0.980469 6.359375 1.390625 5.417969 2.140625 Z M 3.917969 2.320312 L 4.582031 2.984375 C 3.828125 3.925781 3.417969 5.09375 3.414062 6.300781 C 3.414062 9.238281 5.796875 11.621094 8.738281 11.621094 C 9.941406 11.621094 11.113281 11.210938 12.054688 10.457031 L 12.746094 11.144531 C 11.625 12.066406 10.21875 12.574219 8.769531 12.574219 C 5.304688 12.574219 2.492188 9.765625 2.492188 6.300781 C 2.492188 4.847656 3 3.441406 3.917969 2.320312 Z M 8.609375 3.222656 C 10.003906 3.226562 10.816406 4.015625 10.816406 4.015625 L 9.476562 5.25 C 8.554688 4.855469 7.765625 5.5625 7.871094 6.5625 C 7.972656 7.558594 8.683594 7.769531 9.472656 7.667969 C 10.261719 7.5625 9.738281 6.90625 9.738281 6.90625 L 9.421875 6.984375 L 8.921875 6.457031 L 11.578125 5.621094 C 11.945312 8.25 10.941406 9.378906 8.789062 9.375 C 6.632812 9.371094 5.820312 7.742188 5.820312 6.324219 C 5.820312 4.902344 7.21875 3.222656 8.609375 3.222656 Z M 8.609375 3.222656 "/>
</g>
</svg>
