
<svg xmlns="http://www.w3.org/2000/svg" xmlns:xlink="http://www.w3.org/1999/xlink" width="16px" height="16px" viewBox="0 0 16 16" version="1.1">
<g id="surface1">
<path style=" stroke:none;fill-rule:nonzero;fill:#ff6666;fill-opacity:1;" d="M 15.789062 2.867188 L 15.609375 2.332031 L 12.785156 5.15625 L 11.398438 4.601562 L 10.84375 3.214844 L 13.667969 0.386719 L 13.132812 0.210938 C 12.710938 0.0703125 12.269531 0 11.824219 0 C 9.523438 0 7.652344 1.871094 7.652344 4.175781 C 7.652344 4.6875 7.746094 5.191406 7.933594 5.671875 L 0.496094 13.109375 C 0.175781 13.425781 0 13.859375 0 14.308594 C 0 14.761719 0.175781 15.183594 0.496094 15.503906 C 0.8125 15.820312 1.242188 16 1.691406 16 C 2.128906 16 2.5625 15.835938 2.890625 15.503906 L 10.328125 8.070312 C 10.808594 8.253906 11.3125 8.347656 11.824219 8.347656 C 14.128906 8.347656 16 6.476562 16 4.175781 C 16 3.730469 15.929688 3.289062 15.789062 2.867188 Z M 15.789062 2.867188 "/>
</g>
</svg>
