
<svg xmlns="http://www.w3.org/2000/svg" xmlns:xlink="http://www.w3.org/1999/xlink" width="16px" height="16px" viewBox="0 0 16 16" version="1.1">
<g id="surface1">
<path style=" stroke:none;fill-rule:nonzero;fill:#ff6666;fill-opacity:1;" d="M 8 0 C 3.582031 0 0 3.582031 0 8 C 0 12.417969 3.582031 16 8 16 C 12.417969 16 16 12.417969 16 8 C 16 3.582031 12.417969 0 8 0 Z M 5.617188 6.132812 C 6.394531 6.0625 7.175781 6.609375 7.464844 7.480469 C 7.789062 8.472656 7.347656 9.511719 6.472656 9.800781 C 5.601562 10.089844 4.621094 9.515625 4.296875 8.523438 C 3.96875 7.53125 4.414062 6.492188 5.285156 6.203125 C 5.394531 6.167969 5.503906 6.144531 5.617188 6.132812 Z M 10.382812 6.132812 C 10.496094 6.144531 10.605469 6.167969 10.714844 6.203125 C 11.585938 6.492188 12.03125 7.53125 11.703125 8.523438 C 11.378906 9.515625 10.398438 10.089844 9.527344 9.800781 C 8.652344 9.511719 8.210938 8.472656 8.535156 7.480469 C 8.824219 6.609375 9.605469 6.0625 10.382812 6.132812 Z M 10.382812 6.132812 "/>
</g>
</svg>
