
<svg xmlns="http://www.w3.org/2000/svg" xmlns:xlink="http://www.w3.org/1999/xlink" width="16px" height="16px" viewBox="0 0 16 16" version="1.1">
<g id="surface1">
<path style=" stroke:none;fill-rule:nonzero;fill:#ff6666;fill-opacity:1;" d="M 14.65625 6.695312 C 16.496094 4.734375 16.289062 1.285156 14.972656 0 C 14.972656 1.09375 14.164062 2.976562 12.546875 3.949219 C 12.425781 3.703125 12.328125 3.402344 12.136719 3.265625 C 11.863281 3.066406 11.339844 3.15625 11.035156 3 C 10.734375 2.847656 10.5 2.371094 10.175781 2.265625 C 9.851562 2.160156 9.382812 2.40625 9.046875 2.355469 C 8.710938 2.300781 8.339844 1.921875 8 1.921875 C 7.660156 1.921875 7.289062 2.300781 6.953125 2.355469 C 6.617188 2.40625 6.148438 2.160156 5.824219 2.265625 C 5.5 2.371094 5.265625 2.847656 4.964844 3 C 4.660156 3.15625 4.136719 3.066406 3.863281 3.265625 C 3.671875 3.402344 3.574219 3.703125 3.453125 3.949219 C 1.835938 2.976562 1.027344 1.09375 1.027344 0 C -0.289062 1.285156 -0.496094 4.734375 1.34375 6.695312 C 1.328125 6.726562 1.3125 6.753906 1.304688 6.785156 C 1.199219 7.109375 1.445312 7.578125 1.394531 7.914062 C 1.339844 8.25 0.960938 8.621094 0.960938 8.960938 C 0.960938 9.300781 1.339844 9.671875 1.394531 10.007812 C 1.445312 10.34375 1.199219 10.8125 1.304688 11.136719 C 1.410156 11.460938 1.886719 11.691406 2.039062 11.996094 C 2.195312 12.300781 2.105469 12.824219 2.304688 13.097656 C 2.503906 13.371094 3.03125 13.449219 3.269531 13.6875 C 3.511719 13.929688 3.585938 14.457031 3.863281 14.65625 C 4.136719 14.855469 4.660156 14.765625 4.964844 14.917969 C 5.265625 15.074219 5.5 15.550781 5.824219 15.65625 C 6.148438 15.761719 6.617188 15.511719 6.953125 15.566406 C 7.289062 15.617188 7.660156 16 8 16 C 8.339844 16 8.710938 15.617188 9.046875 15.566406 C 9.382812 15.511719 9.851562 15.761719 10.175781 15.65625 C 10.5 15.550781 10.734375 15.074219 11.035156 14.917969 C 11.339844 14.765625 11.863281 14.855469 12.136719 14.65625 C 12.414062 14.457031 12.488281 13.929688 12.730469 13.6875 C 12.96875 13.449219 13.496094 13.371094 13.695312 13.097656 C 13.894531 12.824219 13.804688 12.300781 13.960938 11.996094 C 14.113281 11.691406 14.589844 11.460938 14.695312 11.136719 C 14.800781 10.8125 14.550781 10.34375 14.605469 10.007812 C 14.660156 9.671875 15.039062 9.300781 15.039062 8.960938 C 15.039062 8.621094 14.660156 8.25 14.605469 7.914062 C 14.550781 7.578125 14.800781 7.109375 14.695312 6.785156 C 14.6875 6.753906 14.671875 6.726562 14.65625 6.695312 Z M 14.65625 6.695312 "/>
</g>
</svg>
