
<svg xmlns="http://www.w3.org/2000/svg" xmlns:xlink="http://www.w3.org/1999/xlink" width="16px" height="16px" viewBox="0 0 16 16" version="1.1">
<g id="surface1">
<path style=" stroke:none;fill-rule:nonzero;fill:#ff6666;fill-opacity:1;" d="M 2.25 3.5 C 1.695312 3.5 0.128906 5.996094 0.0078125 6.910156 C 0.00390625 6.9375 0 6.964844 0 7 C 0 7.035156 0.00390625 7.0625 0.0078125 7.089844 C 0.128906 8.003906 1.695312 10.5 2.25 10.5 C 2.804688 10.5 4.371094 8.003906 4.492188 7.089844 C 4.496094 7.0625 4.5 7.035156 4.5 7 C 4.5 6.964844 4.496094 6.9375 4.492188 6.910156 C 4.371094 5.996094 2.804688 3.5 2.25 3.5 Z M 13.75 3.5 C 13.195312 3.5 11.628906 5.996094 11.507812 6.910156 C 11.503906 6.9375 11.5 6.964844 11.5 7 C 11.5 7.035156 11.503906 7.0625 11.507812 7.089844 C 11.628906 8.003906 13.195312 10.5 13.75 10.5 C 14.304688 10.5 15.871094 8.003906 15.992188 7.089844 C 15.996094 7.0625 16 7.035156 16 7 C 16 6.964844 15.996094 6.9375 15.992188 6.910156 C 15.871094 5.996094 14.304688 3.5 13.75 3.5 Z M 8 5.5 C 7.445312 5.5 5.878906 7.996094 5.757812 8.910156 C 5.753906 8.9375 5.75 8.964844 5.75 9 C 5.75 9.035156 5.753906 9.0625 5.757812 9.089844 C 5.878906 10.003906 7.445312 12.5 8 12.5 C 8.554688 12.5 10.121094 10.003906 10.242188 9.089844 C 10.246094 9.0625 10.25 9.035156 10.25 9 C 10.25 8.964844 10.246094 8.9375 10.242188 8.910156 C 10.121094 7.996094 8.554688 5.5 8 5.5 Z M 8 5.5 "/>
</g>
</svg>
