
<svg xmlns="http://www.w3.org/2000/svg" xmlns:xlink="http://www.w3.org/1999/xlink" width="16px" height="16px" viewBox="0 0 16 16" version="1.1">
<g id="surface1">
<path style=" stroke:none;fill-rule:evenodd;fill:#ff6666;fill-opacity:1;" d="M 6.363281 0 C 6.191406 0.0195312 6.042969 0.15625 6.011719 0.324219 L 5.675781 2.039062 C 5.070312 2.273438 4.5 2.601562 4 3 L 2.339844 2.4375 C 2.164062 2.378906 1.957031 2.457031 1.863281 2.613281 L 0.261719 5.386719 C 0.171875 5.546875 0.210938 5.769531 0.351562 5.886719 L 1.675781 7.050781 C 1.628906 7.363281 1.601562 7.675781 1.601562 8 C 1.601562 8.324219 1.628906 8.636719 1.675781 8.949219 L 0.351562 10.113281 C 0.210938 10.230469 0.171875 10.453125 0.261719 10.613281 L 1.863281 13.386719 C 1.957031 13.546875 2.164062 13.621094 2.339844 13.5625 L 4 13 C 4.5 13.398438 5.070312 13.726562 5.675781 13.964844 L 6.011719 15.675781 C 6.046875 15.855469 6.21875 15.996094 6.398438 16 L 9.601562 16 C 9.78125 15.996094 9.953125 15.855469 9.988281 15.675781 L 10.324219 13.964844 C 10.929688 13.726562 11.5 13.398438 12 13 L 13.660156 13.5625 C 13.835938 13.621094 14.042969 13.546875 14.136719 13.386719 L 15.738281 10.613281 C 15.828125 10.453125 15.789062 10.230469 15.648438 10.113281 L 14.324219 8.949219 C 14.371094 8.640625 14.398438 8.324219 14.398438 8 C 14.398438 7.675781 14.371094 7.363281 14.324219 7.050781 L 15.648438 5.886719 C 15.789062 5.769531 15.828125 5.546875 15.738281 5.386719 L 14.136719 2.613281 C 14.042969 2.457031 13.835938 2.378906 13.660156 2.4375 L 12 3 C 11.5 2.601562 10.929688 2.273438 10.324219 2.039062 L 9.988281 0.324219 C 9.953125 0.144531 9.78125 0.00390625 9.601562 0 L 6.398438 0 C 6.386719 0 6.375 0 6.363281 0 Z M 5 8 C 5 6.34375 6.34375 5 8 5 C 9.65625 5 11 6.34375 11 8 C 11 9.65625 9.65625 11 8 11 C 6.34375 11 5 9.65625 5 8 Z M 5 8 "/>
</g>
</svg>
