
<svg xmlns="http://www.w3.org/2000/svg" xmlns:xlink="http://www.w3.org/1999/xlink" width="16px" height="16px" viewBox="0 0 16 16" version="1.1">
<g id="surface1">
<path style=" stroke:none;fill-rule:nonzero;fill:#ff6666;fill-opacity:1;" d="M 9.03125 8.953125 L 7.058594 8.976562 L 8.121094 5.792969 L 15.503906 5.75 L 12.28125 15.9375 L 7.375 15.9375 L 8.121094 13.6875 C 3.898438 14.578125 0.523438 13.21875 0.503906 10.25 C 0.316406 5.316406 4.492188 0.296875 10.410156 0 C 13.191406 0.0820312 14.855469 1.257812 15.398438 3.523438 L 10.625 5.242188 C 10.371094 4.210938 9.695312 3.796875 8.585938 3.988281 C 6.402344 4.625 5.023438 7.328125 5.511719 8.976562 C 5.75 9.785156 6.472656 9.996094 7.207031 9.972656 C 7.953125 10.015625 8.5625 9.679688 9.03125 8.953125 Z M 9.03125 8.953125 "/>
</g>
</svg>
