
<svg xmlns="http://www.w3.org/2000/svg" xmlns:xlink="http://www.w3.org/1999/xlink" width="16px" height="16px" viewBox="0 0 16 16" version="1.1">
<g id="surface1">
<path style=" stroke:none;fill-rule:nonzero;fill:#ff6666;fill-opacity:1;" d="M 11.519531 3.519531 C 9.046875 3.519531 7.039062 5.527344 7.039062 8 C 7.039062 10.472656 9.046875 12.480469 11.519531 12.480469 C 13.996094 12.480469 16 10.472656 16 8 C 16 5.527344 13.996094 3.519531 11.519531 3.519531 Z M 3.199219 4.800781 C 1.433594 4.800781 0 6.234375 0 8 C 0 9.765625 1.433594 11.199219 3.199219 11.199219 C 4.96875 11.199219 6.398438 9.765625 6.398438 8 C 6.398438 6.234375 4.96875 4.800781 3.199219 4.800781 Z M 11.519531 4.800781 C 13.289062 4.800781 14.71875 6.234375 14.71875 8 C 14.71875 9.765625 13.289062 11.199219 11.519531 11.199219 C 9.753906 11.199219 8.320312 9.765625 8.320312 8 C 8.320312 6.234375 9.753906 4.800781 11.519531 4.800781 Z M 3.199219 6.078125 C 4.261719 6.078125 5.121094 6.941406 5.121094 8 C 5.121094 9.058594 4.261719 9.921875 3.199219 9.921875 C 2.140625 9.921875 1.28125 9.058594 1.28125 8 C 1.28125 6.941406 2.140625 6.078125 3.199219 6.078125 Z M 3.199219 6.078125 "/>
</g>
</svg>
