
<svg xmlns="http://www.w3.org/2000/svg" xmlns:xlink="http://www.w3.org/1999/xlink" width="16px" height="16px" viewBox="0 0 16 16" version="1.1">
<g id="surface1">
<path style=" stroke:none;fill-rule:nonzero;fill:#ff6666;fill-opacity:1;" d="M 8.210938 0.546875 C 7.449219 0.546875 6.804688 1.117188 6.71875 1.875 C 6.140625 2.070312 5.566406 2.320312 5.011719 2.640625 C 3.429688 3.554688 2.222656 4.863281 1.507812 6.304688 C 0.777344 6.417969 0.234375 7.046875 0.234375 7.789062 C 0.234375 8.238281 0.4375 8.667969 0.789062 8.953125 C 0.730469 10.023438 0.953125 11.082031 1.507812 12.042969 C 2.015625 12.925781 2.75 13.609375 3.609375 14.089844 C 3.761719 14.777344 4.371094 15.265625 5.074219 15.265625 C 5.453125 15.265625 5.816406 15.125 6.09375 14.867188 C 7.800781 15.066406 9.6875 14.695312 11.402344 13.707031 C 11.753906 13.503906 12.078125 13.273438 12.390625 13.035156 C 12.609375 13.152344 12.855469 13.214844 13.105469 13.214844 C 13.933594 13.214844 14.605469 12.542969 14.605469 11.714844 C 14.605469 11.4375 14.527344 11.167969 14.382812 10.933594 C 15.449219 9.332031 15.875 7.480469 15.480469 5.78125 C 15.917969 5.507812 16.1875 5.023438 16.1875 4.507812 C 16.1875 3.675781 15.515625 3.007812 14.6875 3.007812 C 14.453125 3.003906 14.222656 3.058594 14.015625 3.164062 C 12.882812 2.046875 11.292969 1.460938 9.578125 1.429688 C 9.335938 0.890625 8.800781 0.546875 8.210938 0.546875 Z M 9.601562 2.601562 C 11.050781 2.640625 12.359375 3.148438 13.253906 4.0625 C 13.210938 4.203125 13.1875 4.355469 13.1875 4.507812 C 13.1875 5.191406 13.652344 5.789062 14.316406 5.957031 C 14.664062 7.328125 14.332031 8.882812 13.433594 10.25 C 13.324219 10.226562 13.214844 10.214844 13.105469 10.214844 C 12.273438 10.214844 11.605469 10.886719 11.605469 11.714844 C 11.605469 11.851562 11.621094 11.988281 11.660156 12.125 C 11.394531 12.324219 11.117188 12.515625 10.8125 12.691406 C 9.417969 13.496094 7.925781 13.828125 6.574219 13.742188 C 6.5625 12.921875 5.894531 12.265625 5.074219 12.265625 C 4.601562 12.265625 4.152344 12.492188 3.871094 12.875 C 3.320312 12.507812 2.855469 12.03125 2.523438 11.453125 C 2.136719 10.789062 1.960938 10.042969 1.960938 9.269531 C 2.695312 9.15625 3.234375 8.527344 3.234375 7.789062 C 3.234375 7.332031 3.027344 6.902344 2.671875 6.617188 C 3.28125 5.472656 4.273438 4.421875 5.597656 3.65625 C 6.074219 3.378906 6.5625 3.167969 7.054688 3 C 7.339844 3.34375 7.761719 3.542969 8.210938 3.546875 C 8.824219 3.542969 9.375 3.171875 9.601562 2.601562 Z M 9.601562 2.601562 "/>
</g>
</svg>
