
<svg xmlns="http://www.w3.org/2000/svg" xmlns:xlink="http://www.w3.org/1999/xlink" width="16px" height="16px" viewBox="0 0 16 16" version="1.1">
<g id="surface1">
<path style=" stroke:none;fill-rule:nonzero;fill:#ff6666;fill-opacity:1;" d="M 9.652344 0 C 9.609375 0.00390625 9.566406 0.015625 9.523438 0.03125 L 0.714844 2.894531 C 0.507812 2.964844 0.367188 3.15625 0.367188 3.375 L 0.367188 12.628906 C 0.367188 12.847656 0.503906 13.046875 0.714844 13.117188 L 9.523438 15.976562 C 9.734375 16.042969 9.960938 15.964844 10.085938 15.789062 L 15.535156 8.300781 C 15.664062 8.121094 15.664062 7.878906 15.535156 7.699219 L 10.085938 0.210938 C 9.988281 0.0703125 9.824219 -0.0078125 9.652344 0 Z M 9.488281 1.113281 L 14.488281 8 L 9.480469 14.894531 L 1.382812 12.257812 L 1.382812 3.742188 Z M 9.488281 1.113281 "/>
</g>
</svg>
