
<svg xmlns="http://www.w3.org/2000/svg" xmlns:xlink="http://www.w3.org/1999/xlink" width="16px" height="16px" viewBox="0 0 16 16" version="1.1">
<g id="surface1">
<path style=" stroke:none;fill-rule:nonzero;fill:#ff6666;fill-opacity:1;" d="M 3.136719 15.382812 C 2.59375 15.191406 1.605469 14.617188 1.148438 14.234375 C 0.339844 13.558594 -0.253906 12.648438 0.109375 12.648438 C 0.171875 12.648438 0.589844 12.945312 1.042969 13.304688 C 2.527344 14.484375 3.695312 14.902344 4.757812 14.628906 C 5.96875 14.320312 7.773438 13.203125 8.214844 12.488281 C 8.496094 12.03125 8.488281 11.742188 8.1875 11.53125 C 7.957031 11.363281 7.976562 11.359375 8.648438 11.382812 L 9.351562 11.40625 L 9.382812 11.785156 C 9.402344 12.050781 9.285156 12.429688 8.976562 13.0625 C 8.738281 13.558594 8.539062 14.050781 8.539062 14.15625 C 8.539062 14.390625 7.757812 14.828125 6.863281 15.09375 C 6.179688 15.300781 4.335938 15.367188 3.738281 15.207031 C 3.460938 15.132812 3.4375 15.144531 3.5625 15.292969 C 3.679688 15.433594 3.671875 15.460938 3.5 15.453125 C 3.386719 15.449219 3.222656 15.417969 3.136719 15.386719 Z M 7.539062 15.105469 C 8.882812 14.546875 9.742188 13.921875 10.324219 13.085938 C 10.609375 12.671875 10.632812 12.351562 10.355469 12.628906 C 10.066406 12.917969 9.945312 12.769531 9.945312 12.109375 C 9.945312 11.253906 9.722656 10.996094 9.054688 11.089844 L 8.59375 11.152344 L 9.136719 10.863281 C 9.433594 10.707031 9.75 10.515625 9.835938 10.4375 C 9.925781 10.359375 10.203125 10.195312 10.457031 10.066406 C 11 9.792969 11.132812 9.574219 11.132812 8.96875 C 11.132812 8.195312 10.90625 7.664062 10.320312 7.054688 C 10 6.722656 9.839844 6.488281 9.933594 6.488281 C 10.023438 6.488281 10.351562 6.75 10.660156 7.074219 C 11.109375 7.535156 11.273438 7.808594 11.453125 8.382812 C 11.714844 9.230469 11.746094 10.449219 11.527344 11.378906 C 11.445312 11.722656 11.394531 12 11.414062 12 C 11.4375 12 11.523438 11.867188 11.613281 11.703125 C 11.703125 11.539062 11.777344 11.464844 11.777344 11.535156 C 11.785156 11.734375 11.292969 12.617188 10.839844 13.210938 C 10.046875 14.253906 8.375 15.273438 7.242188 15.40625 L 6.648438 15.476562 Z M 6.378906 10.804688 C 5.328125 10.332031 4.277344 8.914062 4.15625 7.8125 L 4.101562 7.296875 L 4.445312 7.996094 C 5.101562 9.316406 6.09375 10.007812 6.867188 9.683594 C 7.195312 9.546875 7.566406 9.148438 7.566406 8.9375 C 7.566406 8.882812 7.449219 8.921875 7.300781 9.015625 C 6.871094 9.296875 6.304688 9.242188 5.945312 8.882812 C 5.175781 8.113281 5.34375 6.773438 6.328125 5.789062 C 6.890625 5.226562 7.308594 5.050781 8.222656 4.996094 C 8.894531 4.957031 9.132812 4.988281 9.59375 5.1875 C 10.667969 5.652344 11.746094 7.136719 11.863281 8.3125 L 11.910156 8.8125 L 11.539062 8.054688 C 11.0625 7.085938 10.707031 6.671875 10.105469 6.378906 C 9.507812 6.089844 9.085938 6.160156 8.707031 6.613281 C 8.359375 7.027344 8.355469 7.210938 8.699219 6.988281 C 9.125 6.707031 9.695312 6.761719 10.054688 7.121094 C 11.125 8.191406 10.285156 10.304688 8.550781 10.902344 C 7.972656 11.101562 6.933594 11.054688 6.378906 10.804688 Z M 8.792969 10.453125 C 9.011719 10.289062 9.261719 10.011719 9.351562 9.839844 C 9.683594 9.195312 9.460938 8.101562 8.964844 7.945312 C 8.664062 7.847656 8.402344 8.101562 7.890625 8.972656 C 7.347656 9.90625 7.140625 10.074219 6.484375 10.140625 C 6.015625 10.183594 5.960938 10.210938 6.078125 10.355469 C 6.34375 10.675781 6.847656 10.816406 7.632812 10.785156 C 8.277344 10.757812 8.460938 10.707031 8.792969 10.453125 Z M 7.535156 7.867188 C 7.660156 7.730469 7.910156 7.351562 8.09375 7.019531 C 8.574219 6.160156 8.859375 5.925781 9.511719 5.863281 C 10.035156 5.8125 10.054688 5.800781 9.882812 5.613281 C 9.605469 5.308594 9.019531 5.164062 8.261719 5.210938 C 7.496094 5.257812 7.136719 5.457031 6.730469 6.054688 C 6.078125 7.011719 6.8125 8.65625 7.535156 7.867188 Z M 5.460938 9.070312 C 4.5 8.1875 4.101562 6.722656 4.382812 5.136719 C 4.574219 4.050781 4.574219 4.023438 4.375 4.277344 C 4.230469 4.460938 4.230469 4.433594 4.378906 4.054688 C 4.9375 2.640625 6.644531 1.160156 8.242188 0.703125 C 9.109375 0.457031 9.546875 0.535156 8.757812 0.796875 C 7.371094 1.257812 5.9375 2.320312 5.460938 3.238281 L 5.269531 3.613281 L 5.550781 3.429688 C 5.992188 3.136719 6.054688 3.195312 6.054688 3.894531 C 6.054688 4.75 6.277344 5.007812 6.945312 4.910156 L 7.40625 4.84375 L 6.917969 5.105469 C 6.027344 5.589844 5.136719 6.164062 5 6.347656 C 4.828125 6.578125 4.828125 7.363281 4.996094 7.933594 C 5.078125 8.207031 5.34375 8.601562 5.679688 8.949219 C 6.328125 9.617188 6.15625 9.714844 5.460938 9.070312 Z M 6.667969 4.578125 C 6.492188 4.402344 6.628906 3.769531 7.027344 2.921875 C 7.261719 2.414062 7.457031 1.925781 7.457031 1.828125 C 7.460938 1.613281 8.285156 1.160156 9.136719 0.910156 C 9.828125 0.707031 11.410156 0.644531 12.15625 0.796875 C 12.535156 0.875 12.566406 0.867188 12.4375 0.714844 C 11.960938 0.136719 13.933594 0.996094 14.847656 1.761719 C 15.660156 2.441406 16.257812 3.351562 15.890625 3.351562 C 15.828125 3.351562 15.402344 3.054688 14.945312 2.6875 C 14.007812 1.941406 13.339844 1.324219 12.351562 1.140625 C 11.621094 1.003906 10.832031 1.207031 10.160156 1.519531 C 9.101562 2.019531 7.484375 3.136719 7.484375 3.796875 C 7.484375 3.898438 7.675781 4.308594 7.804688 4.429688 L 8.039062 4.648438 L 7.390625 4.648438 C 7.03125 4.648438 6.707031 4.617188 6.667969 4.578125 Z M 6.667969 4.578125 "/>
</g>
</svg>
