
<svg xmlns="http://www.w3.org/2000/svg" xmlns:xlink="http://www.w3.org/1999/xlink" width="16px" height="16px" viewBox="0 0 16 16" version="1.1">
<g id="surface1">
<path style=" stroke:none;fill-rule:nonzero;fill:#ff6666;fill-opacity:1;" d="M 6.625 0 L 4.273438 9.039062 C 3.59375 5.285156 3.011719 3.289062 2.214844 1.699219 C 1.507812 2.347656 0.914062 3.109375 0.457031 3.953125 C 1.019531 5.398438 1.558594 7.335938 2.285156 10.398438 C 3.066406 13.734375 4.332031 14.9375 7.222656 15.507812 L 9.292969 16 L 11.644531 6.957031 C 12.34375 10.832031 12.945312 12.832031 13.78125 14.449219 C 14.484375 13.820312 15.078125 13.082031 15.542969 12.261719 C 14.949219 10.800781 14.394531 8.8125 13.632812 5.601562 C 12.851562 2.265625 11.585938 1.0625 8.695312 0.492188 Z M 8.601562 2.40625 C 10.066406 2.796875 10.625 3.511719 11.078125 4.972656 L 10.085938 4.972656 L 7.316406 13.59375 C 5.851562 13.203125 5.292969 12.488281 4.839844 11.027344 L 5.835938 11.027344 Z M 8.601562 2.40625 "/>
</g>
</svg>
