
<svg xmlns="http://www.w3.org/2000/svg" xmlns:xlink="http://www.w3.org/1999/xlink" width="16px" height="16px" viewBox="0 0 16 16" version="1.1">
<g id="surface1">
<path style=" stroke:none;fill-rule:nonzero;fill:#ff6666;fill-opacity:1;" d="M 10.054688 0 C 10.054688 0 9.734375 0.222656 9.363281 0.570312 C 9.097656 0.816406 8.847656 1.210938 8.621094 1.609375 C 7.949219 1.898438 6.902344 2.335938 5.972656 3.339844 C 5.042969 4.34375 4.308594 5.902344 4.09375 8.234375 C 3.867188 8.136719 3.625 8.085938 3.378906 8.085938 C 2.21875 8.085938 0.484375 8.675781 0.484375 11.550781 C 0.484375 14.007812 2.566406 16 4.835938 16 C 6.960938 16 9.1875 14.007812 9.1875 11.550781 C 9.1875 8.660156 7.0625 8.085938 6.296875 8.085938 C 6.054688 8.085938 5.855469 8.140625 5.679688 8.210938 C 5.882812 6.253906 6.472656 5.117188 7.136719 4.402344 C 7.421875 4.097656 7.722656 3.878906 8.027344 3.683594 C 7.851562 6.273438 9 8.324219 9.609375 9.546875 C 9.839844 10.085938 9.980469 10.746094 9.980469 11.550781 C 9.980469 12.867188 9.464844 14.035156 8.671875 14.9375 C 9.867188 16.023438 11.621094 16.351562 13.246094 15.554688 C 15.085938 14.652344 16.132812 12.070312 15.125 10.015625 C 13.9375 7.601562 11.898438 8.011719 11.242188 8.335938 C 11.097656 8.40625 10.972656 8.492188 10.871094 8.582031 C 10.105469 7.042969 9.113281 5.050781 9.855469 2.472656 C 9.898438 2.335938 10.148438 1.988281 10.425781 1.730469 C 10.703125 1.476562 10.945312 1.3125 10.945312 1.3125 Z M 10.773438 2.597656 C 10.773438 2.597656 10.003906 4.140625 10.820312 5.859375 C 11.683594 6.648438 13.132812 6.554688 13.9375 6.332031 C 13.9375 6.332031 13.617188 4.570312 12.652344 3.757812 C 11.644531 2.910156 10.773438 2.597656 10.773438 2.597656 Z M 10.773438 2.597656 "/>
</g>
</svg>
