
<svg xmlns="http://www.w3.org/2000/svg" xmlns:xlink="http://www.w3.org/1999/xlink" width="16px" height="16px" viewBox="0 0 16 16" version="1.1">
<g id="surface1">
<path style=" stroke:none;fill-rule:nonzero;fill:#ff6666;fill-opacity:1;" d="M 15.699219 7.289062 L 8.710938 0.300781 C 8.308594 -0.101562 7.65625 -0.101562 7.253906 0.300781 L 5.804688 1.753906 L 7.644531 3.59375 C 8.074219 3.449219 8.5625 3.546875 8.902344 3.886719 C 9.246094 4.230469 9.34375 4.722656 9.195312 5.152344 L 10.96875 6.925781 C 11.398438 6.777344 11.890625 6.875 12.234375 7.21875 C 12.714844 7.695312 12.714844 8.472656 12.234375 8.953125 C 11.753906 9.429688 10.980469 9.429688 10.5 8.953125 C 10.140625 8.589844 10.050781 8.0625 10.234375 7.617188 L 8.578125 5.964844 L 8.578125 10.316406 C 8.695312 10.375 8.804688 10.453125 8.902344 10.550781 C 9.382812 11.027344 9.382812 11.804688 8.902344 12.285156 C 8.425781 12.761719 7.648438 12.761719 7.167969 12.285156 C 6.691406 11.804688 6.691406 11.027344 7.167969 10.550781 C 7.289062 10.429688 7.425781 10.339844 7.570312 10.28125 L 7.570312 5.886719 C 7.425781 5.828125 7.289062 5.738281 7.167969 5.621094 C 6.808594 5.257812 6.71875 4.726562 6.90625 4.28125 L 5.09375 2.464844 L 0.300781 7.253906 C -0.101562 7.660156 -0.101562 8.308594 0.300781 8.710938 L 7.289062 15.699219 C 7.691406 16.101562 8.34375 16.101562 8.746094 15.699219 L 15.699219 8.746094 C 16.101562 8.34375 16.101562 7.691406 15.699219 7.289062 "/>
</g>
</svg>
