
<svg xmlns="http://www.w3.org/2000/svg" xmlns:xlink="http://www.w3.org/1999/xlink" width="16px" height="16px" viewBox="0 0 16 16" version="1.1">
<g id="surface1">
<path style=" stroke:none;fill-rule:nonzero;fill:#ff6666;fill-opacity:1;" d="M 12.527344 0.695312 C 12.375 0.695312 12.238281 0.792969 12.191406 0.9375 L 10.460938 6.261719 L 5.539062 6.261719 L 3.808594 0.9375 C 3.765625 0.796875 3.632812 0.699219 3.484375 0.695312 C 3.339844 0.691406 3.203125 0.78125 3.152344 0.921875 L 1.066406 6.484375 L 0.0234375 9.269531 C -0.03125 9.414062 0.015625 9.582031 0.144531 9.671875 L 7.792969 15.234375 L 7.796875 15.238281 L 7.808594 15.246094 C 7.816406 15.25 7.820312 15.253906 7.824219 15.257812 C 7.824219 15.257812 7.824219 15.257812 7.828125 15.257812 C 7.832031 15.261719 7.832031 15.261719 7.835938 15.261719 L 7.839844 15.265625 C 7.847656 15.269531 7.855469 15.273438 7.863281 15.277344 L 7.886719 15.285156 C 7.890625 15.285156 7.890625 15.285156 7.890625 15.285156 C 7.894531 15.289062 7.902344 15.289062 7.90625 15.292969 C 7.910156 15.292969 7.914062 15.292969 7.917969 15.292969 C 7.917969 15.296875 7.917969 15.296875 7.917969 15.292969 C 7.925781 15.296875 7.929688 15.296875 7.9375 15.300781 L 7.964844 15.304688 C 7.980469 15.304688 7.992188 15.304688 8.007812 15.304688 C 8.019531 15.304688 8.03125 15.304688 8.046875 15.300781 C 8.050781 15.300781 8.054688 15.300781 8.058594 15.300781 L 8.0625 15.300781 C 8.066406 15.296875 8.066406 15.296875 8.070312 15.296875 C 8.070312 15.296875 8.070312 15.296875 8.074219 15.296875 C 8.078125 15.296875 8.082031 15.296875 8.085938 15.292969 C 8.089844 15.292969 8.09375 15.289062 8.097656 15.289062 C 8.101562 15.289062 8.101562 15.289062 8.101562 15.289062 L 8.109375 15.289062 C 8.121094 15.285156 8.132812 15.277344 8.144531 15.273438 C 8.144531 15.273438 8.144531 15.273438 8.144531 15.269531 C 8.148438 15.269531 8.148438 15.269531 8.148438 15.269531 L 8.15625 15.265625 C 8.164062 15.261719 8.171875 15.257812 8.179688 15.253906 C 8.183594 15.253906 8.183594 15.25 8.183594 15.25 C 8.1875 15.25 8.1875 15.246094 8.1875 15.246094 C 8.195312 15.242188 8.199219 15.242188 8.203125 15.238281 L 8.207031 15.234375 L 15.855469 9.671875 C 15.984375 9.578125 16.03125 9.414062 15.976562 9.269531 L 14.9375 6.496094 C 14.9375 6.492188 14.933594 6.488281 14.933594 6.484375 L 12.847656 0.921875 C 12.796875 0.785156 12.671875 0.699219 12.527344 0.695312 Z M 2.109375 6.957031 L 5.035156 6.957031 L 7.070312 13.222656 Z M 10.964844 6.957031 L 13.890625 6.957031 L 8.929688 13.222656 Z M 1.5 7.308594 L 6.152344 13.183594 L 0.765625 9.265625 Z M 14.5 7.308594 L 15.234375 9.265625 L 9.847656 13.183594 Z M 14.5 7.308594 "/>
</g>
</svg>
