
<svg xmlns="http://www.w3.org/2000/svg" xmlns:xlink="http://www.w3.org/1999/xlink" width="16px" height="16px" viewBox="0 0 16 16" version="1.1">
<g id="surface1">
<path style=" stroke:none;fill-rule:nonzero;fill:#ff6666;fill-opacity:1;" d="M 8 0 C 6.601562 0 5.464844 1.136719 5.464844 2.535156 C 5.464844 3.933594 8 6.308594 8 6.308594 C 8 6.308594 10.535156 3.933594 10.535156 2.535156 C 10.535156 1.136719 9.398438 0 8 0 Z M 2.535156 5.464844 C 1.136719 5.464844 0 6.601562 0 8 C 0 9.398438 1.136719 10.535156 2.535156 10.535156 C 3.933594 10.535156 6.308594 8 6.308594 8 C 6.308594 8 3.933594 5.464844 2.535156 5.464844 Z M 13.464844 5.464844 C 12.066406 5.464844 9.691406 8 9.691406 8 C 9.691406 8 12.066406 10.535156 13.464844 10.535156 C 14.863281 10.535156 16 9.398438 16 8 C 16 6.601562 14.863281 5.464844 13.464844 5.464844 Z M 8 9.691406 C 8 9.691406 5.464844 12.066406 5.464844 13.464844 C 5.464844 14.863281 6.601562 16 8 16 C 9.398438 16 10.535156 14.863281 10.535156 13.464844 C 10.535156 12.066406 8 9.691406 8 9.691406 Z M 8 9.691406 "/>
</g>
</svg>
