
<svg xmlns="http://www.w3.org/2000/svg" xmlns:xlink="http://www.w3.org/1999/xlink" width="16px" height="16px" viewBox="0 0 16 16" version="1.1">
<g id="surface1">
<path style=" stroke:none;fill-rule:evenodd;fill:#ff6666;fill-opacity:1;" d="M 8 0 C 4.363281 0 1.324219 2.40625 0.347656 5.714844 L 15.652344 5.714844 C 14.675781 2.40625 11.636719 0 8 0 Z M 0.347656 10.285156 C 1.328125 13.59375 4.363281 16 8 16 C 11.636719 16 14.675781 13.59375 15.652344 10.285156 Z M 6.285156 8 C 6.285156 7.054688 7.054688 6.285156 8 6.285156 C 8.945312 6.285156 9.714844 7.054688 9.714844 8 C 9.714844 8.945312 8.945312 9.714844 8 9.714844 C 7.054688 9.714844 6.285156 8.945312 6.285156 8 Z M 10.285156 8 C 10.285156 7.054688 11.054688 6.285156 12 6.285156 C 12.945312 6.285156 13.714844 7.054688 13.714844 8 C 13.714844 8.945312 12.945312 9.714844 12 9.714844 C 11.054688 9.714844 10.285156 8.945312 10.285156 8 Z M 2.285156 8 C 2.285156 7.054688 3.054688 6.285156 4 6.285156 C 4.945312 6.285156 5.714844 7.054688 5.714844 8 C 5.714844 8.945312 4.945312 9.714844 4 9.714844 C 3.054688 9.714844 2.285156 8.945312 2.285156 8 Z M 2.285156 8 "/>
</g>
</svg>
