
<svg xmlns="http://www.w3.org/2000/svg" xmlns:xlink="http://www.w3.org/1999/xlink" width="16px" height="16px" viewBox="0 0 16 16" version="1.1">
<g id="surface1">
<path style=" stroke:none;fill-rule:nonzero;fill:#ff6666;fill-opacity:1;" d="M 1.019531 1.582031 C 0.699219 1.894531 0.5 2.324219 0.5 2.808594 L 0.5 13.230469 C 0.5 13.707031 0.6875 14.140625 0.996094 14.449219 L 7.433594 8.003906 Z M 1.019531 1.582031 "/>
<path style=" stroke:none;fill-rule:nonzero;fill:#ff6666;fill-opacity:1;" d="M 1.597656 14.980469 C 1.910156 15.300781 2.339844 15.5 2.824219 15.5 L 13.234375 15.5 C 13.710938 15.5 14.140625 15.3125 14.449219 15.003906 L 8.011719 8.558594 Z M 1.597656 14.980469 "/>
<path style=" stroke:none;fill-rule:nonzero;fill:#ff6666;fill-opacity:1;" d="M 14.449219 1.019531 C 14.136719 0.699219 13.707031 0.5 13.222656 0.5 L 2.8125 0.5 C 2.335938 0.5 1.90625 0.6875 1.597656 0.996094 L 8.035156 7.441406 Z M 14.449219 1.019531 "/>
<path style=" stroke:none;fill-rule:nonzero;fill:#ff6666;fill-opacity:1;" d="M 14.980469 14.449219 C 15.300781 14.136719 15.5 13.707031 15.5 13.222656 L 15.5 2.796875 C 15.5 2.320312 15.3125 1.890625 15.003906 1.582031 L 8.566406 8.027344 Z M 14.980469 14.449219 "/>
</g>
</svg>
