
<svg xmlns="http://www.w3.org/2000/svg" xmlns:xlink="http://www.w3.org/1999/xlink" width="16px" height="16px" viewBox="0 0 16 16" version="1.1">
<g id="surface1">
<path style=" stroke:none;fill-rule:evenodd;fill:#ff6666;fill-opacity:1;" d="M 5.222656 12.550781 C 6.109375 13.058594 6.414062 14.183594 5.910156 15.070312 C 5.402344 15.953125 4.277344 16.261719 3.390625 15.757812 C 2.507812 15.25 2.199219 14.121094 2.703125 13.238281 C 3.210938 12.351562 4.339844 12.046875 5.222656 12.550781 Z M 3.222656 7.667969 C 4.253906 8.257812 4.613281 9.574219 4.023438 10.605469 C 3.433594 11.640625 2.117188 11.996094 1.085938 11.40625 C 0.0546875 10.816406 -0.304688 9.503906 0.285156 8.46875 C 0.875 7.4375 2.191406 7.078125 3.222656 7.667969 Z M 4.914062 2.171875 C 6.09375 2.847656 6.503906 4.347656 5.828125 5.527344 C 5.152344 6.710938 3.652344 7.117188 2.472656 6.445312 C 1.289062 5.769531 0.882812 4.265625 1.554688 3.085938 C 2.230469 1.90625 3.734375 1.496094 4.914062 2.171875 Z M 13.0625 0.445312 C 14.6875 1.375 15.25 3.441406 14.320312 5.0625 C 13.394531 6.6875 11.328125 7.25 9.703125 6.324219 C 8.082031 5.394531 7.519531 3.328125 8.445312 1.703125 C 9.375 0.0820312 11.441406 -0.480469 13.0625 0.445312 Z M 14.761719 7.710938 C 15.941406 8.382812 16.351562 9.886719 15.675781 11.066406 C 15 12.246094 13.496094 12.65625 12.316406 11.984375 C 11.136719 11.308594 10.726562 9.804688 11.402344 8.625 C 12.074219 7.445312 13.578125 7.035156 14.761719 7.710938 Z M 11.117188 11.921875 C 12.183594 12.453125 12.613281 13.746094 12.078125 14.8125 C 11.546875 15.875 10.253906 16.304688 9.1875 15.769531 C 8.125 15.238281 7.695312 13.945312 8.230469 12.882812 C 8.761719 11.816406 10.054688 11.386719 11.117188 11.921875 Z M 11.117188 11.921875 "/>
</g>
</svg>
