
<svg xmlns="http://www.w3.org/2000/svg" xmlns:xlink="http://www.w3.org/1999/xlink" width="16px" height="16px" viewBox="0 0 16 16" version="1.1">
<g id="surface1">
<path style=" stroke:none;fill-rule:nonzero;fill:#ff6666;fill-opacity:1;" d="M 1.96875 0.03125 C 0.878906 0.03125 0 0.910156 0 2 L 0 14 C 0 15.089844 0.878906 15.96875 1.96875 15.96875 L 14.03125 15.96875 C 15.121094 15.96875 16 15.089844 16 14 L 16 2 C 16 0.910156 15.121094 0.03125 14.03125 0.03125 Z M 1.96875 1.03125 L 14.03125 1.03125 C 14.582031 1.03125 15 1.445312 15 2 L 15 13.03125 C 15 13.582031 14.582031 14 14.03125 14 L 1.96875 14 C 1.417969 14 1 13.582031 1 13.03125 L 1 2 C 1 1.398438 1.355469 1.03125 1.96875 1.03125 Z M 2 2 L 2 3 L 3 3 L 3 2 Z M 4 2 L 4 3 L 5 3 L 5 2 Z M 7 2 L 7 3 L 8 3 L 8 2 Z M 9 2 L 9 3 L 10 3 L 10 2 Z M 11 2 L 11 3 L 12 3 L 12 2 Z M 13 2 L 13 3 L 14 3 L 14 2 Z M 2 4 L 2 5 L 3 5 L 3 4 Z M 4 4 L 4 5 L 5 5 L 5 4 Z M 7 4 L 7 5 L 8 5 L 8 4 Z M 9 4 L 9 5 L 10 5 L 10 4 Z M 11 4 L 11 5 L 12 5 L 12 4 Z M 13 4 L 13 5 L 14 5 L 14 4 Z M 11 6 L 11 7 L 10 7 C 9.453125 7 9 7.453125 9 8 L 9 9 C 9 9.546875 9.453125 10 10 10 L 13 10 C 13.546875 10 14 9.546875 14 9 L 14 8 C 14 7.453125 13.546875 7 13 7 L 12 7 L 12 6 Z M 5 7 C 3.347656 7 2 8.347656 2 10 C 2 11.652344 3.347656 13 5 13 C 6.652344 13 8 11.652344 8 10 C 8 8.347656 6.652344 7 5 7 Z M 5 8 C 6.109375 8 7 8.890625 7 10 C 7 11.109375 6.109375 12 5 12 C 3.890625 12 3 11.109375 3 10 C 3 8.890625 3.890625 8 5 8 Z M 10 8 L 13 8 L 13 9 L 10 9 Z M 11 11 L 11 13 L 12 13 L 12 11 Z M 11 11 "/>
</g>
</svg>
