
<svg xmlns="http://www.w3.org/2000/svg" xmlns:xlink="http://www.w3.org/1999/xlink" width="16px" height="16px" viewBox="0 0 16 16" version="1.1">
<g id="surface1">
<path style=" stroke:none;fill-rule:nonzero;fill:#ff6666;fill-opacity:1;" d="M 1.144531 8 L 6.859375 8 C 7.488281 8 8 8.511719 8 9.144531 L 8 14.859375 C 8 15.488281 7.488281 16 6.859375 16 L 1.144531 16 C 0.511719 16 0 15.488281 0 14.859375 L 0 9.144531 C 0 8.511719 0.511719 8 1.144531 8 Z M 1.144531 8 "/>
<path style=" stroke:none;fill-rule:nonzero;fill:#ff6666;fill-opacity:1;" d="M 9.144531 0 L 14.859375 0 C 15.488281 0 16 0.511719 16 1.144531 L 16 6.859375 C 16 7.488281 15.488281 8 14.859375 8 L 9.144531 8 C 8.511719 8 8 7.488281 8 6.859375 L 8 1.144531 C 8 0.511719 8.511719 0 9.144531 0 Z M 9.144531 0 "/>
<path style=" stroke:none;fill-rule:nonzero;fill:#ff6666;fill-opacity:1;" d="M 2.480469 1.898438 L 5.910156 1.898438 C 6.226562 1.898438 6.480469 2.15625 6.480469 2.472656 L 6.480469 5.898438 C 6.480469 6.214844 6.226562 6.472656 5.910156 6.472656 L 2.480469 6.472656 C 2.167969 6.472656 1.910156 6.214844 1.910156 5.898438 L 1.910156 2.472656 C 1.910156 2.15625 2.167969 1.898438 2.480469 1.898438 Z M 2.480469 1.898438 "/>
<path style=" stroke:none;fill-rule:nonzero;fill:#ff6666;fill-opacity:1;" d="M 10.101562 9.519531 L 13.53125 9.519531 C 13.847656 9.519531 14.101562 9.777344 14.101562 10.09375 L 14.101562 13.519531 C 14.101562 13.835938 13.847656 14.09375 13.53125 14.09375 L 10.101562 14.09375 C 9.785156 14.09375 9.53125 13.835938 9.53125 13.519531 L 9.53125 10.09375 C 9.53125 9.777344 9.785156 9.519531 10.101562 9.519531 Z M 10.101562 9.519531 "/>
</g>
</svg>
