
<svg xmlns="http://www.w3.org/2000/svg" xmlns:xlink="http://www.w3.org/1999/xlink" width="16px" height="16px" viewBox="0 0 16 16" version="1.1">
<g id="surface1">
<path style=" stroke:none;fill-rule:nonzero;fill:#ff6666;fill-opacity:1;" d="M 7.53125 3.765625 C 7.53125 1.6875 5.84375 0 3.765625 0 C 1.683594 0 0 1.6875 0 3.765625 C 0 5.84375 1.683594 7.53125 3.765625 7.53125 C 5.84375 7.53125 7.53125 5.84375 7.53125 3.765625 Z M 7.53125 3.765625 "/>
<path style=" stroke:none;fill-rule:nonzero;fill:#ff6666;fill-opacity:1;" d="M 16 3.765625 C 16 5.84375 14.316406 7.53125 12.234375 7.53125 C 10.15625 7.53125 8.46875 5.84375 8.46875 3.765625 C 8.46875 1.6875 10.15625 0 12.234375 0 C 14.316406 0 16 1.6875 16 3.765625 Z M 16 3.765625 "/>
<path style=" stroke:none;fill-rule:nonzero;fill:#ff6666;fill-opacity:1;" d="M 16 12.234375 C 16 14.3125 14.316406 16 12.234375 16 C 10.15625 16 8.46875 14.3125 8.46875 12.234375 C 8.46875 10.15625 10.15625 8.46875 12.234375 8.46875 C 14.316406 8.46875 16 10.15625 16 12.234375 Z M 16 12.234375 "/>
<path style=" stroke:none;fill-rule:nonzero;fill:#ff6666;fill-opacity:1;" d="M 7.53125 12.234375 C 7.53125 14.3125 5.84375 16 3.765625 16 C 1.683594 16 0 14.3125 0 12.234375 C 0 10.15625 1.683594 8.472656 3.765625 8.472656 C 5.84375 8.472656 7.53125 10.15625 7.53125 12.234375 Z M 7.53125 12.234375 "/>
</g>
</svg>
