
<svg xmlns="http://www.w3.org/2000/svg" xmlns:xlink="http://www.w3.org/1999/xlink" width="16px" height="16px" viewBox="0 0 16 16" version="1.1">
<g id="surface1">
<path style=" stroke:none;fill-rule:nonzero;fill:#ff6666;fill-opacity:1;" d="M 1.285156 15.945312 C 0.976562 15.859375 0.769531 15.734375 0.515625 15.480469 C 0.160156 15.128906 0 14.75 0 14.273438 C 0 13.675781 0.382812 13.050781 0.914062 12.777344 L 1.144531 12.660156 L 1.144531 3.332031 L 0.957031 3.25 C 0.707031 3.136719 0.292969 2.722656 0.171875 2.464844 C -0.289062 1.472656 0.246094 0.328125 1.304688 0.0546875 C 2.042969 -0.136719 2.871094 0.230469 3.222656 0.914062 L 3.339844 1.140625 L 12.660156 1.140625 L 12.78125 0.914062 C 12.992188 0.503906 13.410156 0.175781 13.882812 0.0507812 C 15.101562 -0.265625 16.265625 0.902344 15.945312 2.121094 C 15.824219 2.59375 15.441406 3.070312 15.039062 3.253906 L 14.859375 3.335938 L 14.859375 12.660156 L 15.085938 12.777344 C 15.222656 12.847656 15.398438 12.980469 15.511719 13.101562 C 16.1875 13.804688 16.15625 14.863281 15.445312 15.53125 C 14.910156 16.03125 14.207031 16.136719 13.519531 15.816406 C 13.28125 15.707031 12.859375 15.285156 12.75 15.042969 L 12.664062 14.859375 L 3.339844 14.859375 L 3.253906 15.042969 C 3.144531 15.277344 2.722656 15.707031 2.492188 15.816406 C 2.117188 15.992188 1.640625 16.046875 1.285156 15.945312 Z M 12.769531 13.496094 L 12.875 13.28125 L 12.160156 12.570312 L 11.449219 11.859375 L 11.234375 11.933594 C 10.96875 12.023438 10.636719 12.007812 10.382812 11.898438 C 10.289062 11.855469 10.125 11.734375 10.019531 11.625 L 9.824219 11.425781 L 6.175781 11.425781 L 5.984375 11.625 C 5.878906 11.734375 5.714844 11.855469 5.621094 11.898438 C 5.367188 12.007812 5.03125 12.023438 4.769531 11.933594 L 4.554688 11.859375 L 3.839844 12.570312 L 3.128906 13.28125 L 3.230469 13.496094 L 3.335938 13.710938 L 12.667969 13.710938 Z M 4.066406 11.230469 C 3.914062 10.792969 4.03125 10.351562 4.382812 10.011719 L 4.570312 9.828125 L 4.570312 6.167969 L 4.382812 5.984375 C 4.03125 5.644531 3.914062 5.203125 4.066406 4.765625 L 4.140625 4.550781 L 2.71875 3.128906 L 2.503906 3.234375 L 2.285156 3.339844 L 2.285156 12.660156 L 2.492188 12.769531 L 2.695312 12.878906 L 3.417969 12.160156 L 4.140625 11.445312 Z M 13.714844 7.996094 L 13.714844 3.335938 L 13.5 3.234375 L 13.28125 3.128906 L 12.570312 3.839844 L 11.863281 4.550781 L 11.933594 4.765625 C 12.085938 5.203125 11.972656 5.644531 11.621094 5.984375 L 11.429688 6.167969 L 11.429688 9.828125 L 11.621094 10.011719 C 11.972656 10.351562 12.085938 10.792969 11.933594 11.230469 L 11.863281 11.445312 L 12.578125 12.160156 L 13.292969 12.878906 L 13.714844 12.660156 Z M 9.941406 10.179688 C 9.972656 10.121094 10.066406 10.023438 10.144531 9.960938 L 10.285156 9.847656 L 10.285156 6.171875 L 10.054688 5.941406 L 9.820312 5.714844 L 6.179688 5.714844 L 5.949219 5.941406 L 5.714844 6.171875 L 5.714844 9.847656 L 5.855469 9.960938 C 5.9375 10.023438 6.027344 10.121094 6.0625 10.179688 L 6.125 10.285156 L 9.878906 10.285156 Z M 9.953125 4.449219 C 10.113281 4.203125 10.523438 4 10.859375 4 C 10.957031 4 11.128906 4.03125 11.242188 4.070312 L 11.445312 4.140625 L 12.167969 3.421875 L 12.886719 2.703125 L 12.785156 2.542969 C 12.726562 2.453125 12.679688 2.355469 12.679688 2.332031 C 12.679688 2.292969 11.824219 2.285156 8 2.285156 C 4.175781 2.285156 3.320312 2.292969 3.320312 2.332031 C 3.320312 2.355469 3.273438 2.453125 3.21875 2.542969 L 3.113281 2.703125 L 3.835938 3.421875 L 4.554688 4.140625 L 4.757812 4.070312 C 4.871094 4.03125 5.042969 4 5.140625 4 C 5.480469 4 5.886719 4.203125 6.046875 4.449219 L 6.125 4.570312 L 9.875 4.570312 Z M 9.953125 4.449219 "/>
</g>
</svg>
