
<svg xmlns="http://www.w3.org/2000/svg" xmlns:xlink="http://www.w3.org/1999/xlink" width="16px" height="16px" viewBox="0 0 16 16" version="1.1">
<g id="surface1">
<path style=" stroke:none;fill-rule:nonzero;fill:#ff6666;fill-opacity:1;" d="M 7.96875 0 C 7.398438 0 7.039062 0.417969 7 0.96875 L 7 2.09375 C 7.050781 2.597656 7.484375 3 8 3 C 8.128906 3 8.261719 2.980469 8.375 2.9375 C 8.714844 2.800781 8.960938 2.46875 9 2.09375 L 9 1 C 9 0.449219 8.539062 0 7.96875 0 Z M 6.03125 2.34375 C 5.375 2.574219 4.753906 2.941406 4.21875 3.375 C 4.453125 3.539062 4.644531 3.742188 4.78125 4 C 4.785156 4.003906 4.777344 4.023438 4.78125 4.027344 C 4.84375 4.148438 4.90625 4.269531 4.9375 4.402344 C 4.941406 4.414062 4.9375 4.425781 4.9375 4.433594 C 4.972656 4.570312 5 4.726562 5 4.871094 C 5 5 4.996094 5.128906 4.96875 5.246094 C 4.945312 5.367188 4.890625 5.480469 4.84375 5.589844 C 4.570312 6.253906 3.941406 6.714844 3.191406 6.714844 C 2.832031 6.714844 2.535156 6.617188 2.253906 6.433594 C 2.210938 6.546875 2.152344 6.65625 2.128906 6.777344 C 2.125 6.785156 2.128906 6.800781 2.128906 6.808594 C 2.089844 6.996094 2.054688 7.179688 2.035156 7.371094 C 2.035156 7.382812 2.035156 7.390625 2.035156 7.402344 C 2.015625 7.59375 2.003906 7.800781 2.003906 7.996094 C 2.003906 8.007812 2.003906 8.015625 2.003906 8.027344 C 2.003906 8.039062 2.003906 8.046875 2.003906 8.058594 C 2.003906 8.246094 2.015625 8.4375 2.035156 8.621094 C 2.035156 8.640625 2.03125 8.664062 2.035156 8.683594 C 2.054688 8.863281 2.09375 9.039062 2.128906 9.214844 C 2.160156 9.386719 2.203125 9.546875 2.253906 9.714844 C 2.625 9.5 3.046875 9.414062 3.316406 9.402344 C 3.675781 9.382812 4.015625 9.488281 4.28125 9.683594 C 4.550781 9.875 4.753906 10.132812 4.875 10.464844 C 4.917969 10.574219 4.949219 10.6875 4.96875 10.808594 C 4.996094 10.9375 5 11.046875 5 11.183594 C 5 11.6875 4.585938 12.355469 4.28125 12.679688 C 4.40625 12.777344 4.527344 12.875 4.65625 12.960938 C 4.816406 13.066406 4.957031 13.183594 5.125 13.273438 C 5.363281 13.402344 5.621094 13.523438 5.875 13.617188 C 5.925781 13.636719 5.980469 13.640625 6.03125 13.648438 C 6.019531 13.582031 6 13.503906 6 13.429688 C 6 12.636719 6.894531 11.992188 8 11.992188 C 9.105469 11.992188 10 12.636719 10 13.429688 C 10 13.503906 9.980469 13.582031 9.96875 13.648438 C 10.269531 13.546875 10.566406 13.421875 10.84375 13.273438 C 11.054688 13.164062 11.238281 13.035156 11.4375 12.898438 C 11.496094 12.855469 11.5625 12.820312 11.625 12.773438 C 11.671875 12.738281 11.703125 12.6875 11.75 12.648438 C 11.605469 12.539062 11.5 12.425781 11.40625 12.304688 C 11.214844 12.070312 11.105469 11.8125 11.0625 11.558594 C 11.039062 11.429688 11.03125 11.308594 11.03125 11.183594 C 11.03125 10.941406 11.085938 10.699219 11.15625 10.496094 C 11.15625 10.484375 11.152344 10.472656 11.15625 10.464844 C 11.191406 10.355469 11.226562 10.277344 11.28125 10.183594 C 11.335938 10.089844 11.394531 10.011719 11.46875 9.933594 C 11.542969 9.84375 11.625 9.78125 11.71875 9.714844 C 11.886719 9.585938 12.0625 9.488281 12.28125 9.433594 C 12.386719 9.40625 12.503906 9.375 12.625 9.371094 C 12.902344 9.355469 13.375 9.46875 13.746094 9.683594 C 13.792969 9.527344 13.839844 9.375 13.871094 9.214844 C 13.910156 9.039062 13.945312 8.863281 13.964844 8.683594 C 13.96875 8.664062 13.964844 8.640625 13.964844 8.621094 C 13.984375 8.4375 13.996094 8.246094 13.996094 8.058594 C 13.996094 7.828125 13.992188 7.59375 13.964844 7.371094 C 13.945312 7.179688 13.910156 6.996094 13.871094 6.808594 C 13.871094 6.800781 13.875 6.789062 13.871094 6.777344 C 13.84375 6.644531 13.792969 6.527344 13.746094 6.402344 C 13.464844 6.585938 13.167969 6.683594 12.808594 6.683594 C 12.308594 6.683594 11.859375 6.488281 11.53125 6.152344 C 11.449219 6.070312 11.375 5.96875 11.3125 5.871094 C 11.117188 5.578125 11 5.222656 11 4.839844 C 11 4.53125 11.085938 4.246094 11.21875 3.996094 C 11.285156 3.875 11.34375 3.761719 11.4375 3.65625 C 11.527344 3.550781 11.632812 3.457031 11.75 3.375 C 11.214844 2.941406 10.628906 2.570312 9.96875 2.34375 C 9.980469 2.410156 10 2.488281 10 2.5625 C 10 3.355469 9.105469 3.996094 8 3.996094 C 7.308594 3.996094 6.703125 3.753906 6.34375 3.375 C 6.273438 3.296875 6.207031 3.210938 6.15625 3.125 C 6.054688 2.953125 6 2.757812 6 2.5625 C 6 2.488281 6.019531 2.410156 6.03125 2.34375 Z M 1.691406 3.03125 C 1.441406 3.089844 1.214844 3.257812 1.066406 3.5 C 0.765625 3.980469 0.910156 4.613281 1.378906 4.902344 L 2.191406 5.402344 L 2.503906 5.589844 C 2.628906 5.636719 2.765625 5.683594 2.910156 5.683594 C 3.0625 5.683594 3.214844 5.644531 3.347656 5.589844 C 3.476562 5.539062 3.589844 5.464844 3.691406 5.371094 C 3.886719 5.183594 4 4.933594 4 4.652344 C 4 4.359375 3.875 4.054688 3.660156 3.875 L 3.285156 3.65625 L 2.441406 3.15625 C 2.207031 3.007812 1.9375 2.96875 1.691406 3.03125 Z M 13.933594 3.03125 C 13.808594 3.050781 13.675781 3.082031 13.558594 3.15625 L 12.714844 3.65625 L 12.339844 3.875 C 12.332031 3.882812 12.320312 3.894531 12.308594 3.90625 C 12.09375 4.085938 12 4.328125 12 4.621094 C 12 4.902344 12.113281 5.152344 12.308594 5.339844 C 12.410156 5.433594 12.523438 5.507812 12.652344 5.558594 C 12.785156 5.613281 12.9375 5.652344 13.089844 5.652344 C 13.234375 5.652344 13.371094 5.636719 13.496094 5.589844 L 13.808594 5.402344 L 14.621094 4.902344 C 15.089844 4.613281 15.234375 3.980469 14.933594 3.5 C 14.710938 3.136719 14.316406 2.972656 13.933594 3.03125 Z M 7.996094 6 C 9.101562 6 9.996094 6.894531 9.996094 7.996094 C 9.996094 9.101562 9.101562 9.996094 7.996094 9.996094 C 7.445312 9.996094 6.953125 9.765625 6.59375 9.402344 C 6.5 9.3125 6.414062 9.226562 6.34375 9.121094 C 6.125 8.804688 6 8.410156 6 7.996094 C 6 7.859375 6.003906 7.722656 6.03125 7.589844 C 6.214844 6.679688 7.03125 6 7.996094 6 Z M 7.996094 6.996094 C 7.582031 6.996094 7.242188 7.265625 7.089844 7.621094 C 7.042969 7.742188 6.996094 7.859375 6.996094 7.996094 C 6.996094 8.550781 7.445312 8.996094 7.996094 8.996094 C 8.550781 8.996094 8.996094 8.550781 8.996094 7.996094 C 8.996094 7.445312 8.550781 6.996094 7.996094 6.996094 Z M 2.90625 10.339844 C 2.671875 10.367188 2.613281 10.425781 2.5 10.464844 L 2.28125 10.589844 L 1.46875 11.089844 C 1 11.378906 0.855469 12.011719 1.15625 12.496094 C 1.457031 12.980469 2.09375 13.128906 2.5625 12.839844 L 3.375 12.339844 L 3.65625 12.152344 C 3.792969 12.007812 3.917969 11.847656 3.96875 11.652344 C 3.988281 11.589844 4 11.53125 4 11.464844 C 4 11.308594 3.964844 11.171875 3.90625 11.027344 C 3.855469 10.898438 3.777344 10.789062 3.6875 10.683594 C 3.589844 10.574219 3.472656 10.460938 3.34375 10.402344 C 3.214844 10.34375 3.058594 10.324219 2.90625 10.339844 Z M 13.121094 10.402344 C 12.535156 10.402344 12.058594 10.882812 12.058594 11.464844 C 12.058594 11.738281 12.136719 11.9375 12.308594 12.121094 L 12.621094 12.339844 L 13.433594 12.839844 C 13.902344 13.128906 14.539062 12.980469 14.839844 12.496094 C 15.136719 12.011719 14.996094 11.378906 14.527344 11.089844 L 13.714844 10.589844 C 13.640625 10.546875 13.574219 10.5 13.496094 10.464844 C 13.382812 10.425781 13.246094 10.402344 13.121094 10.402344 Z M 7.992188 13 C 7.863281 13 7.738281 13.019531 7.617188 13.0625 C 7.496094 13.109375 7.371094 13.199219 7.273438 13.28125 C 7.078125 13.449219 6.957031 13.65625 6.929688 13.90625 L 6.929688 15 C 6.929688 15.550781 7.394531 16 7.960938 16 C 8.53125 16 8.992188 15.550781 8.992188 15 L 8.992188 13.90625 C 8.941406 13.402344 8.507812 13 7.992188 13 Z M 7.992188 13 "/>
</g>
</svg>
