
<svg xmlns="http://www.w3.org/2000/svg" xmlns:xlink="http://www.w3.org/1999/xlink" width="16px" height="16px" viewBox="0 0 16 16" version="1.1">
<g id="surface1">
<path style=" stroke:none;fill-rule:nonzero;fill:#ff6666;fill-opacity:1;" d="M 1.144531 8 L 6.859375 8 C 7.488281 8 8 8.511719 8 9.144531 L 8 14.855469 C 8 15.488281 7.488281 16 6.859375 16 L 1.144531 16 C 0.511719 16 0 15.488281 0 14.855469 L 0 9.144531 C 0 8.511719 0.511719 8 1.144531 8 Z M 1.144531 8 "/>
<path style=" stroke:none;fill-rule:nonzero;fill:#ff6666;fill-opacity:1;" d="M 9.140625 0 L 14.855469 0 C 15.488281 0 16 0.511719 16 1.144531 L 16 6.855469 C 16 7.488281 15.488281 8 14.855469 8 L 9.140625 8 C 8.511719 8 8 7.488281 8 6.855469 L 8 1.144531 C 8 0.511719 8.511719 0 9.140625 0 Z M 9.140625 0 "/>
<path style=" stroke:none;fill-rule:nonzero;fill:#ff6666;fill-opacity:1;" d="M 2.476562 1.90625 L 5.90625 1.90625 C 6.222656 1.90625 6.476562 2.160156 6.476562 2.476562 L 6.476562 5.902344 C 6.476562 6.21875 6.222656 6.476562 5.90625 6.476562 L 2.476562 6.476562 C 2.160156 6.476562 1.90625 6.21875 1.90625 5.902344 L 1.90625 2.476562 C 1.90625 2.160156 2.160156 1.90625 2.476562 1.90625 Z M 2.476562 1.90625 "/>
<path style=" stroke:none;fill-rule:nonzero;fill:#ff6666;fill-opacity:1;" d="M 10.097656 9.523438 L 13.527344 9.523438 C 13.84375 9.523438 14.097656 9.78125 14.097656 10.09375 L 14.097656 13.523438 C 14.097656 13.839844 13.84375 14.09375 13.527344 14.09375 L 10.097656 14.09375 C 9.78125 14.09375 9.527344 13.839844 9.527344 13.523438 L 9.527344 10.09375 C 9.527344 9.78125 9.78125 9.523438 10.097656 9.523438 Z M 10.097656 9.523438 "/>
</g>
</svg>
