
<svg xmlns="http://www.w3.org/2000/svg" xmlns:xlink="http://www.w3.org/1999/xlink" width="16px" height="16px" viewBox="0 0 16 16" version="1.1">
<g id="surface1">
<path style=" stroke:none;fill-rule:evenodd;fill:#ff6666;fill-opacity:1;" d="M 7.996094 3.429688 C 7.996094 3.007812 8.335938 2.667969 8.757812 2.667969 C 9.179688 2.667969 9.519531 3.007812 9.519531 3.429688 C 9.519531 3.847656 9.179688 4.191406 8.757812 4.191406 C 8.335938 4.191406 7.996094 3.847656 7.996094 3.429688 Z M 7.234375 3.808594 C 7.234375 2.757812 8.085938 1.90625 9.136719 1.90625 C 10.1875 1.90625 11.042969 2.757812 11.042969 3.808594 C 11.042969 4.859375 10.1875 5.714844 9.136719 5.714844 C 8.085938 5.714844 7.234375 4.859375 7.234375 3.808594 Z M 14.070312 3.597656 C 14.15625 4.007812 13.964844 4.433594 13.640625 4.546875 L 13.328125 3.046875 C 13.652344 2.9375 13.984375 3.183594 14.070312 3.597656 Z M 6.707031 15.933594 C 5.796875 15.757812 4.820312 15.335938 4.007812 14.761719 C 3.09375 14.117188 2.148438 12.980469 1.695312 11.980469 C 1.238281 10.972656 1.054688 9.757812 1.175781 8.558594 C 1.265625 7.652344 1.371094 7.234375 1.683594 6.511719 C 2.550781 4.507812 4.242188 3.128906 6.488281 2.597656 C 6.855469 2.507812 7.109375 2.40625 7.269531 2.28125 C 7.5 2.097656 7.503906 2.09375 7.640625 1.183594 C 7.816406 0.0507812 7.816406 0.0585938 7.996094 0.0117188 C 8.238281 -0.046875 9.367188 0.113281 9.917969 0.285156 C 10.808594 0.566406 11.441406 0.929688 12.199219 1.59375 C 12.433594 1.800781 13.035156 1.96875 13.074219 1.96875 C 13.300781 1.96875 13.9375 2.265625 14.195312 2.515625 C 14.960938 3.257812 15.0625 4.191406 14.480469 5.101562 C 14.324219 5.34375 14.113281 5.234375 14.113281 5.550781 C 14.113281 5.757812 14.078125 5.976562 14.035156 6.035156 C 13.96875 6.117188 13.398438 6.164062 12.160156 6.273438 C 11.03125 6.367188 10.351562 6.65625 10.28125 6.726562 C 10.074219 6.933594 10.550781 6.976562 12.742188 7.148438 C 14.789062 7.308594 14.976562 7.367188 14.820312 7.523438 C 14.785156 7.554688 13.886719 7.710938 12.636719 7.964844 L 10.367188 8.421875 L 8.9375 7.871094 C 8.152344 7.570312 7.484375 7.398438 7.457031 7.398438 C 7.363281 7.398438 6.675781 8.539062 6.695312 8.65625 C 6.726562 8.800781 7.011719 8.722656 7.386719 8.773438 C 7.644531 8.808594 7.71875 8.789062 7.984375 8.613281 C 8.578125 8.21875 9.113281 8.21875 9.441406 8.613281 C 9.644531 8.851562 9.652344 9.015625 9.464844 9.144531 C 9.277344 9.277344 9.144531 9.269531 8.867188 9.125 C 8.480469 8.917969 8.238281 9.1875 8.378906 9.558594 C 8.46875 9.796875 8.414062 9.925781 8.230469 9.925781 C 8.128906 9.925781 8.054688 9.863281 7.984375 9.710938 C 7.882812 9.5 7.882812 9.390625 7.320312 9.355469 C 6.714844 9.3125 6.429688 9.523438 6.046875 9.285156 C 5.75 9.09375 5.46875 8.765625 5.46875 8.605469 C 5.46875 8.449219 5.765625 7.859375 6.070312 7.40625 C 6.355469 6.988281 6.363281 6.886719 6.113281 6.886719 C 5.984375 6.886719 5.878906 6.945312 5.753906 7.09375 C 5.535156 7.351562 5.019531 8.414062 5.019531 8.609375 C 5.019531 8.882812 5.226562 9.179688 5.777344 9.542969 C 6.214844 9.828125 6.347656 9.847656 6.441406 10.058594 C 6.582031 10.378906 6.828125 10.921875 6.882812 11.421875 C 6.925781 11.832031 7.015625 11.726562 7.179688 11.4375 C 7.347656 11.144531 7.808594 11.085938 7.808594 11.359375 C 7.808594 11.425781 7.738281 11.515625 7.648438 11.5625 C 7.359375 11.71875 7.382812 11.976562 7.695312 12.144531 C 7.785156 12.195312 7.878906 12.171875 8.09375 12.046875 C 8.25 11.957031 8.417969 11.882812 8.472656 11.882812 C 8.597656 11.882812 8.769531 12.128906 8.769531 12.308594 C 8.769531 12.714844 8.449219 12.96875 7.941406 12.96875 C 7.335938 12.96875 6.871094 12.644531 6.621094 12.042969 C 6.484375 11.722656 5.960938 11.144531 5.746094 10.910156 C 5.53125 10.679688 5.417969 10.640625 5.238281 10.667969 C 5.039062 10.695312 4.941406 10.886719 4.9375 11.371094 C 4.9375 12.3125 5.234375 13.277344 6.304688 13.804688 C 8.058594 14.667969 9.746094 14.679688 11.5625 13.835938 C 12.902344 13.210938 13.933594 12.179688 14.011719 11.097656 C 14.035156 10.699219 14.019531 10.59375 13.894531 10.347656 C 13.625 9.835938 12.800781 9.535156 12.234375 9.792969 C 12.050781 9.875 11.910156 10.113281 11.820312 10.371094 C 11.558594 11.183594 11.945312 11.515625 12.390625 11.707031 C 12.570312 11.789062 12.890625 11.730469 12.949219 11.503906 C 13.011719 11.253906 12.890625 11.152344 12.542969 11.171875 C 12.28125 11.1875 12.246094 11.175781 12.230469 11.050781 C 12.203125 10.863281 12.480469 10.683594 12.785156 10.691406 C 12.960938 10.699219 13.066406 10.691406 13.226562 10.871094 C 13.476562 11.144531 13.433594 11.464844 13.304688 11.714844 C 13.144531 12.015625 12.847656 12.21875 12.410156 12.21875 C 11.785156 12.214844 11.28125 11.867188 11.132812 11.339844 C 11.042969 11.023438 11.046875 10.515625 11.160156 10.140625 C 11.484375 9.050781 13.3125 8.828125 14.183594 9.671875 C 14.601562 10.078125 14.816406 10.542969 14.777344 11.273438 C 14.691406 12.863281 13.089844 14.394531 11.261719 15.289062 C 10.179688 15.820312 9.570312 15.964844 8.253906 15.992188 C 7.503906 16.011719 7.023438 15.992188 6.707031 15.933594 Z M 6.707031 15.933594 "/>
</g>
</svg>
