
<svg xmlns="http://www.w3.org/2000/svg" xmlns:xlink="http://www.w3.org/1999/xlink" width="16px" height="16px" viewBox="0 0 16 16" version="1.1">
<g id="surface1">
<path style=" stroke:none;fill-rule:nonzero;fill:#ff6666;fill-opacity:1;" d="M 12.238281 0 L 11.886719 0.398438 L 2.914062 10.433594 L 2.886719 10.484375 C 2.824219 10.589844 2.617188 10.980469 2.304688 11.683594 C 1.988281 12.386719 1.601562 13.351562 1.289062 14.433594 L 1 15.449219 L 1.921875 15.125 C 2.773438 14.824219 3.609375 14.449219 4.414062 14.011719 C 5.050781 13.664062 5.398438 13.4375 5.5 13.363281 L 5.546875 13.332031 L 15 3.046875 Z M 14 8.273438 L 14 16 L 15 16 L 15 8.273438 Z M 12 10.484375 L 12 16 L 13 16 L 13 10.484375 Z M 3.890625 10.914062 L 5.109375 12.261719 L 4.929688 12.453125 C 4.9375 12.449219 4.550781 12.703125 3.96875 13.019531 C 3.757812 13.136719 3.433594 13.265625 3.136719 13.390625 L 2.863281 13.089844 C 2.980469 12.761719 3.097656 12.40625 3.203125 12.171875 C 3.488281 11.527344 3.71875 11.105469 3.714844 11.109375 Z M 10 12.6875 L 10 16 L 11 16 L 11 12.6875 Z M 10 12.6875 "/>
</g>
</svg>
