
<svg xmlns="http://www.w3.org/2000/svg" xmlns:xlink="http://www.w3.org/1999/xlink" width="16px" height="16px" viewBox="0 0 16 16" version="1.1">
<g id="surface1">
<path style=" stroke:none;fill-rule:evenodd;fill:#ff6666;fill-opacity:1;" d="M -0.03125 12.5 L 15.96875 12.5 L 15.96875 14.5 L -0.03125 14.5 Z M -0.03125 12.5 "/>
<path style=" stroke:none;fill-rule:evenodd;fill:#ff6666;fill-opacity:1;" d="M 3.792969 10.328125 C 3.152344 10.328125 2.582031 10.203125 2.085938 9.953125 C 1.589844 9.703125 1.191406 9.363281 0.894531 8.9375 C 0.597656 8.507812 0.378906 8.035156 0.230469 7.519531 C 0.0820312 7 0.0078125 6.449219 0.0078125 5.863281 C 0.0078125 5.4375 0.0546875 5.015625 0.148438 4.59375 C 0.242188 4.175781 0.394531 3.773438 0.597656 3.386719 C 0.804688 3 1.050781 2.660156 1.339844 2.367188 C 1.628906 2.074219 1.984375 1.839844 2.40625 1.664062 C 2.828125 1.488281 3.292969 1.398438 3.792969 1.398438 C 4.550781 1.398438 5.160156 1.554688 5.617188 1.863281 C 6.078125 2.171875 6.480469 2.597656 6.816406 3.140625 L 5.496094 3.890625 C 5.019531 3.183594 4.453125 2.832031 3.792969 2.832031 C 3.382812 2.832031 3.023438 2.921875 2.714844 3.109375 C 2.40625 3.292969 2.171875 3.539062 2.007812 3.847656 C 1.839844 4.15625 1.722656 4.480469 1.648438 4.816406 C 1.574219 5.152344 1.535156 5.503906 1.535156 5.863281 C 1.535156 6.71875 1.726562 7.441406 2.105469 8.023438 C 2.484375 8.605469 3.046875 8.898438 3.792969 8.898438 C 4.269531 8.898438 4.667969 8.742188 4.984375 8.429688 C 5.300781 8.117188 5.460938 7.734375 5.460938 7.28125 L 5.460938 7.148438 L 3.941406 7.148438 L 3.941406 5.753906 L 6.964844 5.753906 L 6.964844 6.949219 C 6.964844 8.011719 6.667969 8.839844 6.074219 9.4375 C 5.484375 10.03125 4.722656 10.328125 3.792969 10.328125 Z M 12.207031 10.328125 C 11.671875 10.328125 11.1875 10.242188 10.75 10.070312 C 10.316406 9.898438 9.953125 9.664062 9.671875 9.375 C 9.386719 9.082031 9.148438 8.742188 8.957031 8.355469 C 8.761719 7.96875 8.625 7.570312 8.542969 7.152344 C 8.460938 6.738281 8.417969 6.308594 8.417969 5.863281 C 8.417969 5.421875 8.460938 4.992188 8.542969 4.574219 C 8.625 4.160156 8.761719 3.757812 8.957031 3.371094 C 9.148438 2.988281 9.386719 2.648438 9.671875 2.355469 C 9.953125 2.0625 10.316406 1.832031 10.75 1.660156 C 11.1875 1.488281 11.671875 1.398438 12.207031 1.398438 C 12.871094 1.398438 13.457031 1.53125 13.964844 1.789062 C 14.46875 2.046875 14.863281 2.398438 15.148438 2.835938 C 15.429688 3.277344 15.644531 3.753906 15.78125 4.261719 C 15.921875 4.769531 15.992188 5.304688 15.992188 5.863281 C 15.992188 6.425781 15.921875 6.957031 15.78125 7.46875 C 15.644531 7.976562 15.429688 8.453125 15.148438 8.894531 C 14.863281 9.332031 14.46875 9.683594 13.964844 9.941406 C 13.457031 10.199219 12.871094 10.328125 12.207031 10.328125 Z M 12.207031 8.910156 C 12.601562 8.910156 12.949219 8.816406 13.253906 8.628906 C 13.558594 8.4375 13.796875 8.191406 13.964844 7.882812 C 14.132812 7.574219 14.257812 7.25 14.339844 6.90625 C 14.421875 6.566406 14.464844 6.21875 14.464844 5.863281 C 14.464844 5.488281 14.421875 5.128906 14.339844 4.785156 C 14.257812 4.445312 14.132812 4.121094 13.964844 3.816406 C 13.796875 3.511719 13.5625 3.269531 13.261719 3.089844 C 12.960938 2.910156 12.609375 2.816406 12.207031 2.816406 C 11.679688 2.816406 11.238281 2.984375 10.886719 3.316406 C 10.53125 3.652344 10.289062 4.035156 10.152344 4.472656 C 10.015625 4.90625 9.949219 5.371094 9.949219 5.863281 C 9.949219 6.234375 9.988281 6.59375 10.070312 6.9375 C 10.152344 7.285156 10.28125 7.609375 10.449219 7.910156 C 10.617188 8.214844 10.851562 8.460938 11.152344 8.640625 C 11.453125 8.820312 11.804688 8.910156 12.207031 8.910156 Z M 12.207031 8.910156 "/>
</g>
</svg>
