
<svg xmlns="http://www.w3.org/2000/svg" xmlns:xlink="http://www.w3.org/1999/xlink" width="16px" height="16px" viewBox="0 0 16 16" version="1.1">
<g id="surface1">
<path style=" stroke:none;fill-rule:nonzero;fill:#ff6666;fill-opacity:1;" d="M 7.984375 0 C 3.597656 0 0 3.597656 0 7.984375 C 0 12.375 3.597656 16 7.984375 16 C 12.375 16 16 12.375 16 7.984375 C 16 3.597656 12.375 0 7.984375 0 Z M 7.984375 4.578125 C 9.90625 4.578125 11.421875 6.066406 11.421875 7.984375 C 11.421875 9.90625 9.90625 11.421875 7.984375 11.421875 C 6.066406 11.421875 4.578125 9.90625 4.578125 7.984375 C 4.578125 6.066406 6.066406 4.578125 7.984375 4.578125 Z M 8.007812 5.722656 C 6.75 5.722656 5.707031 6.746094 5.707031 8 C 5.707031 9.257812 6.75 10.28125 8.007812 10.28125 C 9.261719 10.28125 10.285156 9.257812 10.285156 8 C 10.285156 6.746094 9.261719 5.722656 8.007812 5.722656 Z M 8.007812 6.863281 C 8.644531 6.863281 9.148438 7.363281 9.148438 8 C 9.148438 8.640625 8.644531 9.140625 8.007812 9.140625 C 7.367188 9.140625 6.867188 8.640625 6.867188 8 C 6.867188 7.363281 7.367188 6.863281 8.007812 6.863281 Z M 8.007812 6.863281 "/>
</g>
</svg>
