
<svg xmlns="http://www.w3.org/2000/svg" xmlns:xlink="http://www.w3.org/1999/xlink" width="16px" height="16px" viewBox="0 0 16 16" version="1.1">
<g id="surface1">
<path style=" stroke:none;fill-rule:nonzero;fill:#ff6666;fill-opacity:1;" d="M 8.910156 3.636719 C 8.890625 3.636719 8.871094 3.640625 8.855469 3.640625 L 8 3.640625 C 7.957031 3.640625 6.042969 3.632812 5.585938 3.640625 C 5.652344 3.644531 5.640625 3.644531 5.3125 3.640625 C 2.5 3.628906 0.640625 5.171875 0.117188 7.949219 C -0.316406 10.230469 0.46875 11.730469 2.363281 12.25 C 3.054688 12.4375 5.191406 12.347656 6.097656 12.089844 C 7.691406 11.640625 7.59375 11.492188 7.902344 9.941406 C 8.148438 8.703125 8.136719 8 7.636719 8 C 7.488281 7.996094 7.226562 8.011719 7.089844 8 L 5.636719 8 C 5.335938 8 5.089844 8.242188 5.089844 8.546875 C 5.089844 8.847656 5.335938 9.089844 5.636719 9.089844 L 6.132812 9.089844 C 6.117188 9.28125 6.066406 9.554688 5.984375 9.980469 C 5.761719 11.125 5.746094 11.371094 5.242188 11.574219 C 3.351562 12.335938 2.175781 11.402344 2.269531 9.210938 C 2.398438 6.09375 3.652344 4.199219 5.585938 4.199219 C 7.289062 4.199219 7.914062 4.984375 8.488281 7.847656 C 9.441406 12.578125 9.292969 12.324219 10.007812 12.351562 C 10.769531 12.378906 10.417969 12.683594 13.128906 7.972656 C 14.242188 6.035156 14.75 5.152344 15.039062 4.726562 L 15.453125 4.726562 C 15.757812 4.726562 16 4.484375 16 4.183594 C 16 4.175781 16 4.171875 16 4.167969 C 16 4.164062 16 4.160156 16 4.152344 C 16 3.894531 15.8125 3.683594 15.570312 3.648438 C 15.53125 3.640625 15.492188 3.636719 15.453125 3.636719 L 14 3.636719 C 13.699219 3.636719 13.453125 3.878906 13.453125 4.183594 C 13.453125 4.484375 13.699219 4.726562 14 4.726562 L 14.230469 4.726562 C 13.65625 5.832031 11.515625 9.582031 11.3125 9.816406 C 11.128906 10.023438 11.074219 9.839844 10.539062 7.214844 C 10.242188 5.777344 10.101562 5.085938 10.082031 4.726562 L 10.363281 4.726562 C 10.570312 4.726562 10.75 4.609375 10.84375 4.441406 C 10.894531 4.359375 10.925781 4.261719 10.925781 4.152344 C 10.925781 3.871094 10.703125 3.640625 10.425781 3.640625 L 10.417969 3.640625 C 10.402344 3.640625 10.382812 3.636719 10.363281 3.636719 Z M 5.3125 3.640625 C 5.316406 3.640625 5.53125 3.640625 5.585938 3.640625 C 5.445312 3.636719 4.835938 3.632812 5.3125 3.640625 Z M 5.3125 3.640625 "/>
</g>
</svg>
