
<svg xmlns="http://www.w3.org/2000/svg" xmlns:xlink="http://www.w3.org/1999/xlink" width="16px" height="16px" viewBox="0 0 16 16" version="1.1">
<g id="surface1">
<path style=" stroke:none;fill-rule:nonzero;fill:#ff6666;fill-opacity:1;" d="M 6.847656 15.4375 C 5.378906 15.210938 3.984375 14.519531 2.855469 13.457031 C 1.886719 12.546875 1.269531 11.589844 0.828125 10.3125 C 0.519531 9.414062 0.5 9.265625 0.5 7.996094 C 0.5 6.722656 0.519531 6.574219 0.828125 5.679688 C 1.269531 4.394531 1.882812 3.445312 2.871094 2.519531 C 3.769531 1.671875 5.007812 0.988281 6.191406 0.675781 C 7.167969 0.421875 8.941406 0.445312 9.953125 0.730469 C 12.644531 1.484375 14.6875 3.585938 15.335938 6.261719 C 15.554688 7.148438 15.554688 8.839844 15.335938 9.730469 C 14.695312 12.375 12.625 14.515625 10.011719 15.238281 C 9.140625 15.480469 7.695312 15.570312 6.847656 15.441406 Z M 4.902344 13.886719 C 4.808594 13.046875 5.117188 12.964844 6.746094 13.394531 C 7.632812 13.628906 7.953125 13.664062 9.417969 13.671875 C 10.839844 13.675781 11.21875 13.644531 12.019531 13.445312 C 12.925781 13.21875 12.96875 13.195312 13.429688 12.660156 C 14.167969 11.8125 14.164062 11.808594 13.175781 12.097656 C 12.410156 12.320312 12.097656 12.355469 10.78125 12.359375 C 8.597656 12.367188 7.566406 12.128906 4.5 10.90625 C 2.539062 10.121094 2.101562 10.054688 1.695312 10.457031 C 1.558594 10.59375 1.449219 10.761719 1.449219 10.835938 C 1.453125 11.410156 3.25 13.4375 4.273438 14.019531 C 4.578125 14.191406 4.855469 14.335938 4.890625 14.335938 C 4.925781 14.335938 4.933594 14.132812 4.902344 13.886719 Z M 14.960938 10.132812 C 15.121094 9.566406 15.097656 9.304688 14.890625 9.304688 C 14.609375 9.304688 13.339844 8.664062 12.507812 8.105469 C 11.507812 7.429688 10.722656 6.773438 9.28125 5.402344 C 6.574219 2.832031 5.546875 2.394531 3.34375 2.875 C 2.957031 2.960938 2.789062 3.074219 2.425781 3.5 C 2.179688 3.785156 1.84375 4.246094 1.671875 4.523438 C 1.367188 5.019531 0.90625 6.078125 0.96875 6.140625 C 0.984375 6.15625 1.308594 5.925781 1.683594 5.625 C 3.136719 4.464844 4.035156 4.554688 6.339844 6.105469 C 6.785156 6.402344 7.921875 7.167969 8.863281 7.800781 C 11.167969 9.351562 12.1875 9.875 13.757812 10.316406 C 14.742188 10.59375 14.839844 10.578125 14.960938 10.132812 Z M 14.625 6.535156 C 14.917969 6.242188 14.910156 6.175781 14.40625 5.121094 C 13.503906 3.214844 11.707031 1.734375 9.621094 1.175781 C 8.671875 0.925781 6.757812 0.949219 5.9375 1.226562 L 5.332031 1.433594 L 6.394531 1.441406 C 8.898438 1.464844 10.464844 2.359375 12.148438 4.714844 C 13.0625 5.988281 13.175781 6.128906 13.636719 6.511719 C 14.054688 6.855469 14.300781 6.859375 14.625 6.535156 Z M 14.625 6.535156 "/>
</g>
</svg>
