
<svg xmlns="http://www.w3.org/2000/svg" xmlns:xlink="http://www.w3.org/1999/xlink" width="16px" height="16px" viewBox="0 0 16 16" version="1.1">
<g id="surface1">
<path style=" stroke:none;fill-rule:nonzero;fill:#ff6666;fill-opacity:1;" d="M 7.949219 0.0078125 C 7.792969 0.03125 7.679688 0.167969 7.679688 0.324219 L 7.679688 3.523438 L 4.132812 3.523438 C 4.054688 3.527344 3.980469 3.5625 3.925781 3.621094 L 3.925781 3.632812 C 3.917969 3.640625 3.910156 3.644531 3.902344 3.652344 L 0.0859375 7.777344 C 0 7.871094 -0.0234375 8.011719 0.0273438 8.128906 C 0.078125 8.246094 0.199219 8.320312 0.328125 8.316406 L 3.523438 8.316406 L 3.523438 11.835938 C 3.523438 11.925781 3.558594 12.011719 3.625 12.074219 L 7.78125 15.910156 C 7.875 16 8.011719 16.023438 8.128906 15.972656 C 8.246094 15.917969 8.324219 15.800781 8.320312 15.671875 L 8.320312 12.476562 L 11.835938 12.476562 C 11.925781 12.476562 12.015625 12.441406 12.074219 12.375 L 15.914062 8.21875 C 16 8.125 16.023438 7.988281 15.972656 7.867188 C 15.921875 7.75 15.800781 7.675781 15.671875 7.679688 L 12.476562 7.679688 L 12.476562 4.160156 C 12.476562 4.070312 12.441406 3.984375 12.375 3.921875 L 8.21875 0.0859375 C 8.148438 0.0195312 8.046875 -0.0117188 7.949219 0.0078125 Z M 8.320312 1.066406 L 11.675781 4.160156 L 8.71875 7.121094 C 8.460938 6.824219 8.320312 6.449219 8.320312 6.058594 Z M 4.164062 4.320312 L 7.121094 7.277344 C 6.828125 7.535156 6.453125 7.679688 6.0625 7.679688 L 1.066406 7.679688 Z M 8 7.21875 C 8.191406 7.539062 8.460938 7.808594 8.78125 8 C 8.460938 8.191406 8.191406 8.460938 8 8.777344 C 7.808594 8.460938 7.539062 8.191406 7.222656 8 C 7.539062 7.808594 7.808594 7.539062 8 7.21875 Z M 9.9375 8.316406 L 14.933594 8.316406 L 11.835938 11.675781 L 8.878906 8.71875 C 9.171875 8.460938 9.550781 8.320312 9.9375 8.316406 Z M 7.28125 8.878906 C 7.527344 9.160156 7.679688 9.53125 7.679688 9.9375 L 7.679688 14.933594 L 4.324219 11.835938 Z M 7.28125 8.878906 "/>
</g>
</svg>
