
<svg xmlns="http://www.w3.org/2000/svg" xmlns:xlink="http://www.w3.org/1999/xlink" width="16px" height="16px" viewBox="0 0 16 16" version="1.1">
<g id="surface1">
<path style=" stroke:none;fill-rule:nonzero;fill:#ff6666;fill-opacity:1;" d="M 2.167969 15.46875 C 2.078125 15.441406 1.976562 15.40625 1.941406 15.386719 C 1.824219 15.324219 1.609375 15.105469 1.542969 14.980469 C 1.394531 14.683594 1.398438 14.988281 1.398438 7.996094 C 1.398438 1 1.394531 1.308594 1.546875 1.011719 C 1.636719 0.835938 1.890625 0.617188 2.078125 0.550781 C 2.28125 0.484375 2.664062 0.484375 2.898438 0.550781 C 3.003906 0.582031 3.734375 0.984375 4.753906 1.566406 L 6.441406 2.535156 L 6.800781 2.46875 C 9.234375 2.023438 11.699219 3.214844 12.902344 5.414062 C 13.03125 5.648438 13.28125 6.242188 13.324219 6.410156 C 13.339844 6.46875 13.453125 6.546875 13.851562 6.773438 C 14.234375 6.992188 14.394531 7.101562 14.523438 7.238281 C 14.769531 7.496094 14.828125 7.640625 14.828125 7.996094 C 14.828125 8.253906 14.816406 8.308594 14.742188 8.457031 C 14.570312 8.808594 14.546875 8.824219 11.390625 10.628906 C 9.785156 11.546875 7.261719 12.992188 5.78125 13.839844 C 4.289062 14.695312 3.015625 15.402344 2.925781 15.429688 C 2.679688 15.507812 2.363281 15.523438 2.167969 15.46875 Z M 7.097656 12.367188 C 7.679688 12.035156 8.160156 11.753906 8.167969 11.75 C 8.171875 11.746094 7.996094 11.738281 7.773438 11.738281 C 7.183594 11.734375 6.699219 11.617188 6.179688 11.355469 C 5.191406 10.851562 4.488281 9.90625 4.269531 8.792969 C 4.207031 8.488281 4.21875 7.757812 4.285156 7.449219 C 4.46875 6.574219 4.949219 5.8125 5.644531 5.292969 C 6.363281 4.75 7.25 4.492188 8.121094 4.574219 C 9.101562 4.667969 9.945312 5.105469 10.5625 5.847656 C 11.125 6.519531 11.394531 7.273438 11.398438 8.148438 C 11.398438 8.898438 11.195312 9.5625 10.765625 10.207031 L 10.707031 10.296875 L 10.8125 10.238281 C 10.871094 10.207031 11.363281 9.929688 11.902344 9.617188 C 12.589844 9.222656 12.886719 9.039062 12.902344 8.992188 C 12.910156 8.957031 12.933594 8.753906 12.953125 8.539062 C 13.015625 7.886719 12.933594 7.214844 12.703125 6.527344 C 11.679688 3.441406 8.101562 2.074219 5.25 3.675781 C 4.433594 4.136719 3.625 4.984375 3.203125 5.824219 C 2.042969 8.144531 2.769531 10.972656 4.90625 12.417969 C 5.320312 12.699219 5.851562 12.972656 5.988281 12.976562 C 6.015625 12.976562 6.511719 12.703125 7.097656 12.367188 Z M 7.953125 9.777344 C 8.121094 9.691406 8.300781 9.507812 8.367188 9.359375 C 8.421875 9.246094 8.425781 9.140625 8.425781 8.128906 L 8.425781 7.019531 L 9.222656 7.019531 L 9.222656 6.132812 L 7.96875 6.132812 L 7.96875 7.21875 C 7.96875 7.816406 7.964844 8.304688 7.957031 8.304688 C 7.949219 8.304688 7.886719 8.28125 7.816406 8.257812 C 7.601562 8.183594 7.394531 8.199219 7.179688 8.304688 C 6.5625 8.613281 6.570312 9.496094 7.1875 9.789062 C 7.320312 9.855469 7.375 9.863281 7.585938 9.851562 C 7.753906 9.84375 7.867188 9.820312 7.953125 9.777344 Z M 7.953125 9.777344 "/>
</g>
</svg>
