
<svg xmlns="http://www.w3.org/2000/svg" xmlns:xlink="http://www.w3.org/1999/xlink" width="16px" height="16px" viewBox="0 0 16 16" version="1.1">
<g id="surface1">
<path style=" stroke:none;fill-rule:nonzero;fill:#ff6666;fill-opacity:1;" d="M 15.636719 6.546875 L 8.183594 6.546875 L 8.183594 9.636719 L 12.472656 9.636719 C 12.074219 11.601562 10.398438 12.726562 8.183594 12.726562 C 5.5625 12.726562 3.453125 10.617188 3.453125 8 C 3.453125 5.382812 5.5625 3.273438 8.183594 3.273438 C 9.308594 3.273438 10.328125 3.671875 11.128906 4.328125 L 13.453125 2 C 12.035156 0.765625 10.21875 0 8.183594 0 C 3.746094 0 0.183594 3.5625 0.183594 8 C 0.183594 12.4375 3.746094 16 8.183594 16 C 12.183594 16 15.816406 13.089844 15.816406 8 C 15.816406 7.527344 15.746094 7.019531 15.636719 6.546875 Z M 15.636719 6.546875 "/>
</g>
</svg>
