
<svg xmlns="http://www.w3.org/2000/svg" xmlns:xlink="http://www.w3.org/1999/xlink" width="16px" height="16px" viewBox="0 0 16 16" version="1.1">
<g id="surface1">
<path style=" stroke:none;fill-rule:nonzero;fill:#ff6666;fill-opacity:1;" d="M 1 1 L 15 1 L 15 12 L 8 12 C 8 14 7 15 5.101562 15.5 L 5 16 L 11 16 L 10.25 13 L 15 13 C 15.550781 13 16 12.550781 16 12 L 16 1 C 16 0.449219 15.550781 0 15 0 L 1 0 C 0.449219 0 0 0.449219 0 1 L 0 12 C 0 12.550781 0.449219 13 1 13 L 2 13 C 2.699219 12.707031 2.902344 12.480469 3 12 L 1 12 Z M 1 1 "/>
<path style=" stroke:none;fill-rule:nonzero;fill:#ff6666;fill-opacity:1;" d="M 8.507812 10.871094 L 6.855469 12.03125 C 7.164062 14.863281 3.996094 15.660156 1.976562 13.554688 C 4.828125 12.644531 3.589844 10.636719 5.875 10.914062 L 6.910156 9.242188 L 7.476562 9.5 L 13.441406 2.972656 C 14.277344 2.058594 15.296875 3.246094 14.5 4 L 8.234375 10.359375 Z M 8.507812 10.871094 "/>
<path style=" stroke:none;fill-rule:nonzero;fill:#ff6666;fill-opacity:1;" d="M 7 4.5 C 7 5.878906 5.878906 7 4.5 7 C 3.121094 7 2 5.878906 2 4.5 C 2 3.121094 3.121094 2 4.5 2 C 5.878906 2 7 3.121094 7 4.5 Z M 7 4.5 "/>
</g>
</svg>
