
<svg xmlns="http://www.w3.org/2000/svg" xmlns:xlink="http://www.w3.org/1999/xlink" width="16px" height="16px" viewBox="0 0 16 16" version="1.1">
<g id="surface1">
<path style=" stroke:none;fill-rule:nonzero;fill:#ff6666;fill-opacity:1;" d="M 6.246094 9.214844 C 6.105469 8.0625 5.8125 1.796875 7.503906 1.734375 C 9.199219 1.667969 9.648438 7.453125 9.8125 8.980469 C 9.976562 10.507812 9.433594 11.878906 13.074219 11.042969 C 14.6875 10.667969 15.601562 9.773438 15.492188 12.003906 C 15.378906 14.234375 11.351562 14.296875 9.445312 14.453125 C 4.335938 14.742188 0.449219 14.300781 0.5 13.039062 C 0.550781 11.773438 0.617188 11.246094 1.554688 11.417969 C 7.835938 12.5625 6.386719 10.332031 6.246094 9.214844 Z M 6.246094 9.214844 "/>
<path style=" stroke:none;fill-rule:nonzero;fill:#ff6666;fill-opacity:1;" d="M 5.714844 3.15625 C 4.726562 3.109375 3.847656 4.585938 3.757812 6.453125 C 3.667969 8.320312 4.394531 9.871094 5.386719 9.917969 C 6.378906 9.964844 7.253906 8.488281 7.34375 6.621094 C 7.4375 4.753906 6.707031 3.203125 5.714844 3.15625 Z M 5.480469 6.410156 C 5.5 6.414062 5.519531 6.414062 5.539062 6.421875 C 5.5625 6.425781 5.582031 6.433594 5.601562 6.441406 C 5.621094 6.449219 5.640625 6.460938 5.660156 6.476562 C 5.679688 6.488281 5.699219 6.503906 5.714844 6.519531 C 5.734375 6.535156 5.753906 6.554688 5.769531 6.574219 C 5.785156 6.597656 5.804688 6.617188 5.820312 6.644531 C 5.835938 6.667969 5.851562 6.691406 5.867188 6.71875 C 5.878906 6.746094 5.894531 6.777344 5.90625 6.804688 C 5.917969 6.835938 5.933594 6.867188 5.941406 6.898438 C 5.953125 6.933594 5.964844 6.964844 5.972656 7 C 5.984375 7.035156 5.992188 7.074219 6 7.109375 C 6.007812 7.148438 6.015625 7.183594 6.019531 7.222656 C 6.027344 7.261719 6.03125 7.300781 6.035156 7.339844 C 6.039062 7.378906 6.039062 7.421875 6.042969 7.460938 C 6.042969 7.5 6.042969 7.542969 6.042969 7.582031 C 6.042969 7.613281 6.042969 7.640625 6.039062 7.671875 C 6.039062 7.710938 6.035156 7.753906 6.03125 7.792969 C 6.027344 7.832031 6.023438 7.875 6.015625 7.914062 C 6.011719 7.953125 6.003906 7.992188 5.996094 8.03125 C 5.988281 8.070312 5.976562 8.109375 5.96875 8.148438 C 5.957031 8.183594 5.949219 8.222656 5.9375 8.257812 C 5.925781 8.292969 5.910156 8.328125 5.898438 8.359375 C 5.886719 8.394531 5.871094 8.425781 5.855469 8.457031 C 5.839844 8.488281 5.824219 8.515625 5.808594 8.542969 C 5.792969 8.570312 5.777344 8.597656 5.757812 8.621094 C 5.742188 8.648438 5.722656 8.671875 5.703125 8.691406 C 5.6875 8.710938 5.667969 8.730469 5.648438 8.75 C 5.628906 8.769531 5.609375 8.785156 5.589844 8.796875 C 5.570312 8.8125 5.546875 8.824219 5.527344 8.832031 C 5.507812 8.84375 5.488281 8.851562 5.464844 8.859375 C 5.445312 8.863281 5.425781 8.867188 5.402344 8.871094 C 5.390625 8.871094 5.375 8.871094 5.359375 8.871094 C 5.339844 8.871094 5.316406 8.867188 5.296875 8.859375 C 5.277344 8.855469 5.257812 8.847656 5.238281 8.839844 C 5.21875 8.832031 5.199219 8.820312 5.179688 8.808594 C 5.160156 8.792969 5.140625 8.777344 5.121094 8.761719 C 5.105469 8.746094 5.085938 8.726562 5.070312 8.707031 C 5.050781 8.683594 5.035156 8.664062 5.019531 8.640625 C 5.003906 8.613281 4.988281 8.589844 4.972656 8.5625 C 4.957031 8.535156 4.945312 8.507812 4.929688 8.476562 C 4.917969 8.445312 4.90625 8.414062 4.894531 8.382812 C 4.882812 8.347656 4.871094 8.316406 4.863281 8.28125 C 4.855469 8.246094 4.84375 8.210938 4.835938 8.171875 C 4.828125 8.136719 4.824219 8.097656 4.816406 8.058594 C 4.8125 8.019531 4.808594 7.980469 4.804688 7.941406 C 4.800781 7.902344 4.796875 7.863281 4.796875 7.820312 C 4.792969 7.78125 4.792969 7.738281 4.792969 7.699219 C 4.792969 7.667969 4.796875 7.640625 4.796875 7.613281 C 4.800781 7.570312 4.800781 7.53125 4.804688 7.488281 C 4.808594 7.449219 4.816406 7.40625 4.820312 7.367188 C 4.828125 7.328125 4.835938 7.289062 4.84375 7.25 C 4.851562 7.210938 4.859375 7.171875 4.871094 7.136719 C 4.878906 7.097656 4.890625 7.0625 4.902344 7.027344 C 4.914062 6.988281 4.925781 6.957031 4.9375 6.921875 C 4.953125 6.890625 4.96875 6.855469 4.980469 6.828125 C 4.996094 6.796875 5.011719 6.765625 5.027344 6.738281 C 5.042969 6.710938 5.0625 6.683594 5.078125 6.660156 C 5.097656 6.636719 5.113281 6.613281 5.132812 6.589844 C 5.152344 6.570312 5.171875 6.550781 5.191406 6.53125 C 5.210938 6.515625 5.230469 6.5 5.25 6.484375 C 5.269531 6.46875 5.289062 6.457031 5.308594 6.449219 C 5.332031 6.4375 5.351562 6.429688 5.371094 6.425781 C 5.394531 6.417969 5.414062 6.414062 5.433594 6.414062 C 5.449219 6.410156 5.464844 6.410156 5.480469 6.410156 Z M 5.480469 6.410156 "/>
<path style=" stroke:none;fill-rule:nonzero;fill:#ff6666;fill-opacity:1;" d="M 10.191406 3.21875 C 10.132812 3.214844 10.070312 3.214844 10.011719 3.21875 C 9.023438 3.320312 8.378906 4.90625 8.566406 6.765625 C 8.757812 8.625 9.710938 10.054688 10.699219 9.957031 C 11.683594 9.859375 12.332031 8.269531 12.140625 6.410156 C 11.964844 4.679688 11.121094 3.300781 10.191406 3.21875 Z M 10.746094 6.519531 C 10.761719 6.519531 10.777344 6.523438 10.789062 6.523438 C 11.132812 6.570312 11.332031 7.152344 11.238281 7.824219 C 11.148438 8.5 10.796875 9.007812 10.457031 8.960938 C 10.113281 8.917969 9.914062 8.332031 10.007812 7.660156 C 10.09375 7.019531 10.417969 6.523438 10.746094 6.519531 Z M 10.746094 6.519531 "/>
</g>
</svg>
