
<svg xmlns="http://www.w3.org/2000/svg" xmlns:xlink="http://www.w3.org/1999/xlink" width="16px" height="16px" viewBox="0 0 16 16" version="1.1">
<g id="surface1">
<path style=" stroke:none;fill-rule:nonzero;fill:#ff6666;fill-opacity:1;" d="M 7.90625 13.457031 C 7.667969 13.324219 7.609375 13.214844 7.609375 12.910156 C 7.605469 12.527344 7.84375 12.355469 8.492188 12.277344 C 9.089844 12.203125 9.175781 12.171875 9.46875 11.90625 L 9.664062 11.730469 L 9.664062 8.125 C 9.664062 4.929688 9.648438 4.496094 9.523438 4.316406 C 9.335938 4.050781 8.902344 3.878906 8.417969 3.878906 C 8.09375 3.878906 7.976562 3.832031 7.765625 3.621094 C 7.570312 3.425781 7.523438 3.320312 7.566406 3.171875 C 7.652344 2.898438 7.84375 2.703125 8.085938 2.644531 C 8.417969 2.558594 9.410156 2.757812 9.84375 2.992188 L 10.25 3.214844 L 10.710938 2.988281 C 11.226562 2.734375 12.132812 2.558594 12.496094 2.636719 C 12.753906 2.695312 13.003906 3.003906 13.003906 3.261719 C 13.003906 3.347656 12.929688 3.5 12.835938 3.597656 C 12.667969 3.78125 12.523438 3.824219 11.789062 3.921875 C 11.570312 3.949219 11.289062 4.050781 11.167969 4.148438 C 10.964844 4.304688 10.949219 4.375 10.949219 4.957031 L 10.949219 5.59375 L 12.054688 5.59375 C 12.949219 5.59375 13.1875 5.617188 13.296875 5.726562 C 13.5 5.929688 13.5 10.226562 13.296875 10.425781 C 13.1875 10.535156 12.949219 10.5625 12.050781 10.5625 L 10.941406 10.5625 L 10.964844 11.21875 C 10.988281 11.800781 11.011719 11.890625 11.207031 12.03125 C 11.324219 12.121094 11.632812 12.214844 11.890625 12.242188 C 12.546875 12.308594 12.800781 12.421875 12.917969 12.703125 C 13.054688 13.039062 12.878906 13.394531 12.53125 13.492188 C 12.164062 13.59375 11.179688 13.421875 10.683594 13.171875 L 10.261719 12.957031 L 9.84375 13.171875 C 9.613281 13.285156 9.179688 13.421875 8.878906 13.46875 C 8.203125 13.582031 8.121094 13.578125 7.90625 13.457031 Z M 12.574219 8.078125 L 12.574219 6.363281 L 10.949219 6.363281 L 10.949219 9.789062 L 12.574219 9.789062 Z M 2.601562 10.425781 C 2.398438 10.226562 2.398438 5.929688 2.601562 5.726562 C 2.71875 5.609375 3.125 5.59375 5.769531 5.59375 L 8.804688 5.59375 L 8.804688 6.363281 L 3.324219 6.363281 L 3.324219 9.789062 L 8.804688 9.789062 L 8.804688 10.5625 L 5.769531 10.5625 C 3.125 10.5625 2.71875 10.546875 2.601562 10.425781 Z M 4.179688 8.078125 L 4.179688 7.21875 L 7.949219 7.21875 L 7.949219 8.933594 L 4.179688 8.933594 Z M 4.179688 8.078125 "/>
</g>
</svg>
