
<svg xmlns="http://www.w3.org/2000/svg" xmlns:xlink="http://www.w3.org/1999/xlink" width="16px" height="16px" viewBox="0 0 16 16" version="1.1">
<g id="surface1">
<path style=" stroke:none;fill-rule:nonzero;fill:#ff6666;fill-opacity:1;" d="M 3.589844 16 C 2.636719 16.003906 1.722656 15.625 1.050781 14.949219 C -0.347656 13.550781 -0.347656 11.269531 1.050781 9.871094 L 5.144531 5.777344 C 5.824219 5.097656 6.726562 4.726562 7.683594 4.726562 C 8.644531 4.726562 9.546875 5.097656 10.222656 5.777344 C 11.621094 7.179688 11.621094 9.453125 10.222656 10.855469 L 6.128906 14.949219 C 5.457031 15.625 4.542969 16.003906 3.589844 16 Z M 12.28125 0.0234375 C 12.164062 -0.0234375 12.023438 0.00390625 11.933594 0.09375 L 9.054688 2.972656 C 8.992188 3.035156 8.960938 3.113281 8.960938 3.199219 L 8.960938 4.28125 C 9.503906 4.453125 10.007812 4.734375 10.4375 5.109375 L 12.480469 3.066406 L 12.480469 0.320312 C 12.480469 0.191406 12.402344 0.0742188 12.28125 0.0234375 Z M 15.976562 3.71875 C 15.925781 3.597656 15.808594 3.519531 15.679688 3.519531 L 12.933594 3.519531 L 10.890625 5.5625 C 11.261719 5.992188 11.542969 6.496094 11.714844 7.039062 L 12.800781 7.039062 C 12.886719 7.039062 12.964844 7.007812 13.027344 6.945312 L 15.90625 4.066406 C 15.996094 3.976562 16.023438 3.835938 15.976562 3.71875 Z M 15.976562 3.71875 "/>
</g>
</svg>
