
<svg xmlns="http://www.w3.org/2000/svg" xmlns:xlink="http://www.w3.org/1999/xlink" width="16px" height="16px" viewBox="0 0 16 16" version="1.1">
<g id="surface1">
<path style=" stroke:none;fill-rule:evenodd;fill:#ff6666;fill-opacity:1;" d="M 12.289062 15.914062 L 9.980469 15.914062 C 9.796875 15.914062 9.648438 15.769531 9.648438 15.585938 C 9.648438 9.140625 14.625 5.699219 15.59375 5.699219 C 15.835938 5.699219 15.933594 5.851562 15.964844 5.914062 C 16.074219 6.160156 15.925781 6.332031 15.625 6.679688 C 14.804688 7.628906 12.621094 10.144531 12.621094 15.585938 C 12.621094 15.769531 12.472656 15.914062 12.289062 15.914062 Z M 13.632812 2.984375 C 13.601562 2.863281 13.496094 2.734375 13.292969 2.726562 L 13.257812 2.726562 C 13.222656 2.726562 10.050781 2.78125 8.230469 6.921875 C 8.628906 7.992188 8.976562 9.234375 9.226562 10.640625 C 9.699219 7.855469 10.828125 5.011719 13.320312 3.46875 C 13.5 3.359375 13.699219 3.234375 13.632812 2.984375 Z M 6.351562 15.914062 L 4.035156 15.914062 C 3.851562 15.914062 3.703125 15.769531 3.703125 15.585938 C 3.703125 10.085938 1.300781 7.59375 0.394531 6.65625 C 0.0859375 6.332031 -0.0742188 6.171875 0.03125 5.921875 C 0.0546875 5.867188 0.148438 5.699219 0.402344 5.699219 C 1.128906 5.699219 6.640625 8.847656 6.675781 15.519531 C 6.695312 15.617188 6.671875 15.71875 6.609375 15.792969 C 6.546875 15.871094 6.453125 15.914062 6.351562 15.914062 Z M 8.988281 15.519531 C 8.964844 3.648438 2.429688 0.0859375 1.722656 0.0859375 C 1.476562 0.0859375 1.386719 0.253906 1.367188 0.304688 C 1.269531 0.542969 1.425781 0.699219 1.660156 0.933594 C 3.566406 2.824219 4.847656 5.613281 5.503906 9.253906 C 6.535156 10.867188 7.3125 12.9375 7.335938 15.464844 C 7.355469 15.617188 7.335938 15.773438 7.28125 15.914062 L 8.664062 15.914062 C 8.765625 15.914062 8.859375 15.871094 8.921875 15.792969 C 8.984375 15.71875 9.007812 15.617188 8.988281 15.519531 Z M 8.988281 15.519531 "/>
</g>
</svg>
