
<svg xmlns="http://www.w3.org/2000/svg" xmlns:xlink="http://www.w3.org/1999/xlink" width="16px" height="16px" viewBox="0 0 16 16" version="1.1">
<g id="surface1">
<path style=" stroke:none;fill-rule:nonzero;fill:#ff6666;fill-opacity:1;" d="M 8.003906 0 C 8.003906 0 7.574219 1.878906 7.320312 3.667969 C 6.804688 2.542969 6.289062 1.550781 6.289062 1.550781 C 6.289062 1.550781 6.332031 2.691406 6.449219 3.941406 C 5.332031 2.503906 4 1.066406 4 1.066406 C 4 1.066406 4.566406 2.914062 5.234375 4.589844 C 4.238281 3.882812 3.304688 3.289062 3.304688 3.289062 C 3.304688 3.289062 3.875 4.191406 4.566406 5.175781 C 2.898438 4.503906 1.070312 3.941406 1.070312 3.941406 C 1.070312 3.941406 2.546875 5.320312 3.996094 6.453125 C 2.738281 6.332031 1.574219 6.285156 1.574219 6.285156 C 1.574219 6.285156 2.578125 6.8125 3.707031 7.332031 C 1.910156 7.585938 0 8.027344 0 8.027344 C 0 8.027344 1.816406 8.449219 3.578125 8.703125 C 2.484375 9.210938 1.535156 9.710938 1.535156 9.710938 C 1.535156 9.710938 2.730469 9.660156 4.011719 9.535156 C 2.554688 10.671875 1.074219 12.058594 1.074219 12.058594 C 1.074219 12.058594 2.921875 11.488281 4.597656 10.8125 C 3.890625 11.816406 3.300781 12.753906 3.300781 12.753906 C 3.300781 12.753906 4.242188 12.15625 5.246094 11.441406 C 4.570312 13.128906 4 14.992188 4 14.992188 C 4 14.992188 5.339844 13.550781 6.457031 12.109375 C 6.339844 13.355469 6.296875 14.492188 6.296875 14.492188 C 6.296875 14.492188 6.8125 13.5 7.324219 12.378906 C 7.582031 14.152344 8 16 8 16 C 8 16 8.429688 14.113281 8.683594 12.320312 C 9.207031 13.464844 9.738281 14.484375 9.738281 14.484375 C 9.738281 14.484375 9.691406 13.378906 9.578125 12.152344 C 10.6875 13.574219 12 14.992188 12 14.992188 C 12 14.992188 11.421875 13.09375 10.738281 11.398438 C 11.742188 12.113281 12.683594 12.710938 12.683594 12.710938 C 12.683594 12.710938 12.113281 11.804688 11.417969 10.816406 C 13.089844 11.492188 14.929688 12.058594 14.929688 12.058594 C 14.929688 12.058594 13.488281 10.710938 12.050781 9.582031 C 13.300781 9.703125 14.449219 9.75 14.449219 9.75 C 14.449219 9.75 13.464844 9.230469 12.347656 8.714844 C 14.128906 8.460938 16 8.027344 16 8.027344 C 16 8.027344 14.113281 7.59375 12.324219 7.335938 C 13.453125 6.816406 14.453125 6.289062 14.453125 6.289062 C 14.453125 6.289062 13.265625 6.339844 11.988281 6.464844 C 13.445312 5.332031 14.925781 3.941406 14.925781 3.941406 C 14.925781 3.941406 13.125 4.496094 11.46875 5.164062 C 12.15625 4.183594 12.722656 3.285156 12.722656 3.285156 C 12.722656 3.285156 11.769531 3.890625 10.757812 4.613281 C 11.429688 2.929688 12 1.066406 12 1.066406 C 12 1.066406 10.644531 2.527344 9.523438 3.972656 C 9.644531 2.695312 9.695312 1.511719 9.695312 1.511719 C 9.695312 1.511719 9.1875 2.488281 8.675781 3.605469 C 8.417969 1.835938 8.003906 0 8.003906 0 Z M 8.003906 0 "/>
</g>
</svg>
