
<svg xmlns="http://www.w3.org/2000/svg" xmlns:xlink="http://www.w3.org/1999/xlink" width="16px" height="16px" viewBox="0 0 16 16" version="1.1">
<g id="surface1">
<path style=" stroke:none;fill-rule:nonzero;fill:#ff6666;fill-opacity:1;" d="M 14.546875 2.910156 C 14.007812 2.910156 13.546875 3.203125 13.292969 3.636719 L 10.183594 3.636719 L 10.183594 2.910156 C 10.183594 2.507812 9.855469 2.183594 9.453125 2.183594 L 6.546875 2.183594 C 6.144531 2.183594 5.816406 2.507812 5.816406 2.910156 L 5.816406 3.636719 L 2.707031 3.636719 C 2.453125 3.203125 1.992188 2.910156 1.453125 2.910156 C 0.652344 2.910156 0 3.558594 0 4.363281 C 0 5.167969 0.652344 5.816406 1.453125 5.816406 C 1.992188 5.816406 2.453125 5.523438 2.707031 5.089844 L 3.832031 5.089844 C 3.222656 6.210938 2.910156 7.839844 2.910156 9.453125 L 2.183594 9.453125 C 1.78125 9.453125 1.453125 9.78125 1.453125 10.183594 L 1.453125 13.089844 C 1.453125 13.492188 1.78125 13.816406 2.183594 13.816406 L 5.089844 13.816406 C 5.492188 13.816406 5.816406 13.492188 5.816406 13.089844 L 5.816406 10.183594 C 5.816406 9.78125 5.492188 9.453125 5.089844 9.453125 L 4.363281 9.453125 C 4.363281 6.746094 5.308594 5.089844 5.816406 5.089844 L 5.816406 5.816406 C 5.816406 6.21875 6.144531 6.546875 6.546875 6.546875 L 9.453125 6.546875 C 9.855469 6.546875 10.183594 6.21875 10.183594 5.816406 L 10.183594 5.089844 C 10.691406 5.089844 11.636719 6.746094 11.636719 9.453125 L 10.910156 9.453125 C 10.507812 9.453125 10.183594 9.78125 10.183594 10.183594 L 10.183594 13.089844 C 10.183594 13.492188 10.507812 13.816406 10.910156 13.816406 L 13.816406 13.816406 C 14.21875 13.816406 14.546875 13.492188 14.546875 13.089844 L 14.546875 10.183594 C 14.546875 9.78125 14.21875 9.453125 13.816406 9.453125 L 13.089844 9.453125 C 13.089844 7.839844 12.777344 6.210938 12.167969 5.089844 L 13.292969 5.089844 C 13.546875 5.523438 14.007812 5.816406 14.546875 5.816406 C 15.347656 5.816406 16 5.167969 16 4.363281 C 16 3.558594 15.347656 2.910156 14.546875 2.910156 Z M 14.546875 2.910156 "/>
</g>
</svg>
