
<svg xmlns="http://www.w3.org/2000/svg" xmlns:xlink="http://www.w3.org/1999/xlink" width="16px" height="16px" viewBox="0 0 16 16" version="1.1">
<g id="surface1">
<path style=" stroke:none;fill-rule:nonzero;fill:#ff6666;fill-opacity:1;" d="M 1.898438 11.589844 L 1.011719 10.957031 L 4.953125 5.4375 L 9.414062 8.40625 L 14.1875 4.3125 L 14.902344 5.140625 L 9.496094 9.773438 L 5.230469 6.925781 Z M 1.898438 11.589844 "/>
<path style=" stroke:none;fill-rule:evenodd;fill:#ff6666;fill-opacity:1;" d="M 0 11.273438 C 0 10.46875 0.652344 9.816406 1.453125 9.816406 C 2.257812 9.816406 2.910156 10.46875 2.910156 11.273438 C 2.910156 12.074219 2.257812 12.726562 1.453125 12.726562 C 0.652344 12.726562 0 12.074219 0 11.273438 Z M 3.636719 6.183594 C 3.636719 5.378906 4.289062 4.726562 5.089844 4.726562 C 5.894531 4.726562 6.546875 5.378906 6.546875 6.183594 C 6.546875 6.984375 5.894531 7.636719 5.089844 7.636719 C 4.289062 7.636719 3.636719 6.984375 3.636719 6.183594 Z M 8 9.089844 C 8 8.289062 8.652344 7.636719 9.453125 7.636719 C 10.257812 7.636719 10.910156 8.289062 10.910156 9.089844 C 10.910156 9.894531 10.257812 10.546875 9.453125 10.546875 C 8.652344 10.546875 8 9.894531 8 9.089844 Z M 13.089844 4.726562 C 13.089844 3.925781 13.742188 3.273438 14.546875 3.273438 C 15.347656 3.273438 16 3.925781 16 4.726562 C 16 5.53125 15.347656 6.183594 14.546875 6.183594 C 13.742188 6.183594 13.089844 5.53125 13.089844 4.726562 Z M 13.089844 4.726562 "/>
</g>
</svg>
