
<svg xmlns="http://www.w3.org/2000/svg" xmlns:xlink="http://www.w3.org/1999/xlink" width="16px" height="16px" viewBox="0 0 16 16" version="1.1">
<g id="surface1">
<path style=" stroke:none;fill-rule:nonzero;fill:#ff6666;fill-opacity:1;" d="M 1.46875 2.910156 L 1.507812 3.210938 C 1.570312 3.769531 1.640625 3.949219 1.828125 4.046875 C 1.925781 4.097656 2.023438 4.203125 2.046875 4.285156 C 2.085938 4.449219 2.1875 4.488281 2.1875 4.347656 C 2.1875 4.296875 2.082031 4.046875 1.949219 3.792969 C 1.816406 3.535156 1.707031 3.300781 1.707031 3.269531 C 1.707031 3.234375 1.652344 3.140625 1.589844 3.058594 Z M 14.53125 2.910156 L 14.410156 3.058594 C 14.347656 3.140625 14.292969 3.234375 14.292969 3.269531 C 14.289062 3.300781 14.183594 3.535156 14.050781 3.792969 C 13.917969 4.046875 13.808594 4.296875 13.808594 4.347656 C 13.808594 4.488281 13.914062 4.449219 13.953125 4.285156 C 13.976562 4.203125 14.070312 4.097656 14.167969 4.046875 C 14.359375 3.949219 14.429688 3.769531 14.492188 3.210938 Z M 0.855469 3.238281 C 0.820312 3.238281 0.8125 3.28125 0.839844 3.34375 C 0.941406 3.585938 0.941406 3.71875 0.84375 3.71875 C 0.789062 3.71875 0.746094 3.738281 0.746094 3.761719 C 0.746094 3.855469 0.945312 4.085938 1.070312 4.136719 C 1.21875 4.195312 1.347656 4.210938 1.347656 4.164062 C 1.347656 4.148438 1.320312 4.085938 1.289062 4.03125 C 1.257812 3.972656 1.203125 3.8125 1.167969 3.675781 C 1.105469 3.421875 0.972656 3.238281 0.855469 3.238281 Z M 15.140625 3.238281 C 15.027344 3.238281 14.894531 3.421875 14.832031 3.675781 C 14.796875 3.8125 14.742188 3.972656 14.710938 4.03125 C 14.675781 4.085938 14.652344 4.148438 14.652344 4.164062 C 14.652344 4.210938 14.78125 4.195312 14.929688 4.136719 C 15.054688 4.085938 15.253906 3.855469 15.253906 3.761719 C 15.253906 3.738281 15.207031 3.71875 15.152344 3.71875 C 15.054688 3.71875 15.058594 3.585938 15.160156 3.34375 C 15.1875 3.28125 15.179688 3.238281 15.140625 3.238281 Z M 7.980469 3.386719 C 8 3.441406 7.980469 3.476562 7.933594 3.476562 C 7.734375 3.476562 7.65625 4.195312 7.808594 4.644531 C 7.847656 4.765625 7.847656 4.765625 7.773438 4.644531 C 7.652344 4.445312 7.460938 4.253906 7.382812 4.253906 C 7.339844 4.253906 7.289062 4.335938 7.265625 4.433594 C 7.246094 4.53125 7.203125 4.613281 7.171875 4.613281 C 7.136719 4.613281 7.128906 4.589844 7.148438 4.554688 C 7.167969 4.523438 7.160156 4.449219 7.128906 4.394531 C 7.078125 4.304688 7.066406 4.308594 7.003906 4.425781 C 6.949219 4.523438 6.953125 4.597656 7.027344 4.769531 C 7.140625 5.042969 7.140625 5.09375 7.023438 5.09375 C 6.898438 5.09375 6.949219 5.238281 7.082031 5.261719 C 7.199219 5.285156 7.417969 5.113281 7.417969 4.996094 C 7.417969 4.953125 7.449219 4.902344 7.484375 4.878906 C 7.578125 4.824219 7.683594 4.945312 7.621094 5.042969 C 7.59375 5.085938 7.570312 5.140625 7.570312 5.160156 C 7.566406 5.183594 7.492188 5.261719 7.398438 5.335938 C 7.183594 5.503906 7.191406 5.769531 7.410156 5.800781 C 7.492188 5.8125 7.535156 5.796875 7.515625 5.761719 C 7.492188 5.726562 7.539062 5.730469 7.621094 5.769531 C 7.699219 5.804688 7.789062 5.910156 7.824219 6.003906 C 7.886719 6 7.945312 5.992188 8 5.980469 C 8.054688 5.992188 8.113281 6 8.171875 6.003906 C 8.210938 5.910156 8.300781 5.804688 8.378906 5.769531 C 8.460938 5.730469 8.503906 5.726562 8.484375 5.761719 C 8.460938 5.796875 8.507812 5.8125 8.589844 5.800781 C 8.808594 5.769531 8.8125 5.503906 8.597656 5.335938 C 8.507812 5.261719 8.429688 5.183594 8.429688 5.160156 C 8.429688 5.140625 8.40625 5.085938 8.378906 5.042969 C 8.316406 4.945312 8.421875 4.824219 8.515625 4.878906 C 8.550781 4.902344 8.582031 4.953125 8.582031 4.996094 C 8.582031 5.113281 8.796875 5.285156 8.914062 5.261719 C 9.050781 5.238281 9.101562 5.09375 8.976562 5.09375 C 8.859375 5.09375 8.855469 5.042969 8.972656 4.769531 C 9.042969 4.597656 9.050781 4.523438 8.996094 4.425781 C 8.933594 4.308594 8.921875 4.304688 8.871094 4.394531 C 8.839844 4.449219 8.832031 4.523438 8.851562 4.554688 C 8.871094 4.589844 8.859375 4.613281 8.828125 4.613281 C 8.796875 4.613281 8.753906 4.53125 8.730469 4.433594 C 8.710938 4.335938 8.65625 4.253906 8.617188 4.253906 C 8.535156 4.253906 8.34375 4.445312 8.222656 4.644531 C 8.152344 4.765625 8.148438 4.765625 8.191406 4.644531 C 8.339844 4.195312 8.261719 3.476562 8.0625 3.476562 C 8.015625 3.476562 7.996094 3.441406 8.019531 3.386719 C 8.011719 3.394531 8.007812 3.402344 8 3.410156 C 7.992188 3.402344 7.988281 3.394531 7.980469 3.386719 Z M 0.0664062 3.554688 C -0.046875 3.59375 -0.0078125 4.34375 0.117188 4.535156 C 0.210938 4.675781 0.210938 4.6875 0.121094 4.65625 C 0.00390625 4.609375 0 4.691406 0.109375 4.902344 C 0.238281 5.148438 0.496094 5.359375 0.914062 5.566406 C 1.121094 5.671875 1.289062 5.761719 1.289062 5.773438 C 1.289062 5.839844 0.714844 5.675781 0.585938 5.574219 C 0.347656 5.386719 0.238281 5.414062 0.394531 5.628906 C 0.464844 5.722656 0.507812 5.84375 0.488281 5.890625 C 0.453125 5.988281 0.613281 6.15625 0.929688 6.34375 C 1.191406 6.5 1.246094 6.5 1.199219 6.351562 C 1.148438 6.191406 1.179688 6.199219 1.351562 6.382812 C 1.472656 6.507812 1.476562 6.527344 1.382812 6.492188 C 1.296875 6.460938 1.28125 6.46875 1.316406 6.527344 C 1.367188 6.605469 1.261719 6.597656 0.90625 6.488281 C 0.8125 6.460938 0.804688 6.480469 0.839844 6.597656 C 0.9375 6.910156 1.097656 7.050781 1.492188 7.160156 C 1.707031 7.222656 1.867188 7.296875 1.851562 7.320312 C 1.8125 7.382812 1.40625 7.3125 1.304688 7.230469 C 1.195312 7.144531 1.203125 7.367188 1.316406 7.523438 C 1.417969 7.667969 1.820312 7.875 2.308594 8.027344 L 2.640625 8.136719 L 2.339844 8.105469 C 2.175781 8.089844 1.96875 8.066406 1.882812 8.054688 C 1.746094 8.035156 1.726562 8.050781 1.753906 8.148438 C 1.796875 8.320312 2.101562 8.554688 2.328125 8.589844 C 2.433594 8.605469 2.65625 8.640625 2.820312 8.667969 L 3.121094 8.722656 L 2.851562 8.796875 C 2.703125 8.839844 2.480469 8.859375 2.351562 8.84375 C 2.128906 8.8125 2.125 8.816406 2.207031 8.941406 C 2.328125 9.125 2.621094 9.28125 2.953125 9.34375 L 3.242188 9.398438 L 2.894531 9.371094 C 2.703125 9.359375 2.550781 9.371094 2.550781 9.398438 C 2.550781 9.421875 2.621094 9.515625 2.710938 9.601562 C 2.878906 9.769531 2.945312 9.78125 3.601562 9.769531 L 4.023438 9.757812 L 3.660156 9.914062 C 3.222656 10.105469 3.152344 10.164062 3.269531 10.238281 C 3.34375 10.285156 3.320312 10.335938 3.144531 10.519531 C 3.023438 10.644531 2.824219 10.882812 2.699219 11.046875 C 2.136719 11.792969 1.84375 12.03125 1.484375 12.03125 C 1.175781 12.03125 1.144531 12.132812 1.4375 12.1875 C 1.730469 12.242188 2.132812 12.171875 2.457031 12.007812 C 2.851562 11.8125 2.824219 11.914062 2.398438 12.246094 C 2.28125 12.335938 2.285156 12.339844 2.429688 12.300781 C 2.511719 12.28125 2.710938 12.183594 2.867188 12.089844 C 3.167969 11.910156 3.214844 11.902344 3.054688 12.0625 C 2.917969 12.195312 2.996094 12.246094 3.195312 12.152344 C 3.285156 12.109375 3.40625 12.078125 3.464844 12.085938 C 3.519531 12.09375 3.695312 11.984375 3.847656 11.84375 C 4.007812 11.695312 4.101562 11.640625 4.066406 11.710938 C 4.027344 11.777344 3.957031 11.867188 3.90625 11.910156 C 3.851562 11.953125 3.8125 12.011719 3.8125 12.039062 C 3.8125 12.15625 3.957031 12.078125 4.261719 11.789062 C 4.449219 11.613281 4.597656 11.515625 4.621094 11.550781 C 4.644531 11.585938 4.628906 11.613281 4.589844 11.613281 C 4.550781 11.613281 4.535156 11.65625 4.554688 11.703125 C 4.574219 11.757812 4.554688 11.792969 4.5 11.792969 C 4.453125 11.792969 4.414062 11.820312 4.414062 11.851562 C 4.414062 11.972656 4.78125 11.773438 4.867188 11.609375 C 4.984375 11.382812 5.019531 11.390625 4.972656 11.625 C 4.945312 11.757812 4.953125 11.800781 5.003906 11.769531 C 5.042969 11.746094 5.074219 11.6875 5.074219 11.636719 C 5.074219 11.585938 5.117188 11.558594 5.179688 11.566406 C 5.246094 11.578125 5.335938 11.488281 5.445312 11.285156 C 5.578125 11.046875 5.613281 11.015625 5.613281 11.128906 C 5.613281 11.238281 5.640625 11.265625 5.734375 11.238281 C 5.832031 11.214844 5.816406 11.253906 5.648438 11.457031 C 5.433594 11.71875 5.3125 12.03125 5.429688 12.03125 C 5.464844 12.03125 5.496094 12.007812 5.496094 11.980469 C 5.496094 11.949219 5.582031 11.894531 5.691406 11.859375 L 5.886719 11.792969 L 5.6875 11.949219 C 5.417969 12.160156 5.136719 12.667969 5.140625 12.929688 L 5.140625 12.933594 C 5.140625 13.117188 5.148438 13.128906 5.214844 13.027344 C 5.410156 12.710938 5.667969 12.496094 6.101562 12.28125 L 6.578125 12.046875 L 6.578125 12.21875 C 6.578125 12.316406 6.605469 12.394531 6.636719 12.394531 C 6.671875 12.394531 6.695312 12.339844 6.695312 12.269531 C 6.695312 12.203125 6.75 12.046875 6.816406 11.917969 C 6.960938 11.632812 7.769531 10.992188 8 10.960938 C 8.21875 10.980469 9.035156 11.628906 9.183594 11.917969 C 9.25 12.046875 9.300781 12.203125 9.300781 12.269531 C 9.300781 12.339844 9.328125 12.394531 9.363281 12.394531 C 9.394531 12.394531 9.421875 12.316406 9.421875 12.21875 L 9.421875 12.046875 L 9.898438 12.28125 C 10.332031 12.496094 10.585938 12.710938 10.785156 13.027344 C 10.847656 13.128906 10.859375 13.117188 10.859375 12.933594 L 10.859375 12.929688 C 10.863281 12.667969 10.578125 12.164062 10.3125 11.949219 L 10.113281 11.792969 L 10.308594 11.859375 C 10.414062 11.894531 10.503906 11.949219 10.503906 11.980469 C 10.503906 12.007812 10.535156 12.03125 10.570312 12.03125 C 10.6875 12.03125 10.566406 11.71875 10.347656 11.457031 C 10.183594 11.253906 10.167969 11.214844 10.265625 11.238281 C 10.359375 11.265625 10.382812 11.238281 10.386719 11.128906 C 10.386719 11.015625 10.421875 11.050781 10.550781 11.285156 C 10.664062 11.488281 10.75 11.578125 10.820312 11.566406 C 10.882812 11.558594 10.925781 11.585938 10.925781 11.636719 C 10.925781 11.6875 10.957031 11.746094 10.996094 11.769531 C 11.042969 11.800781 11.054688 11.757812 11.027344 11.625 C 10.980469 11.390625 11.015625 11.382812 11.132812 11.609375 C 11.21875 11.773438 11.585938 11.972656 11.585938 11.851562 C 11.585938 11.820312 11.546875 11.792969 11.496094 11.792969 C 11.445312 11.792969 11.421875 11.757812 11.445312 11.703125 C 11.464844 11.65625 11.449219 11.613281 11.410156 11.613281 C 11.371094 11.613281 11.355469 11.585938 11.378906 11.550781 C 11.402344 11.515625 11.550781 11.613281 11.738281 11.789062 C 12.042969 12.078125 12.1875 12.160156 12.1875 12.042969 C 12.1875 12.011719 12.144531 11.953125 12.09375 11.910156 C 12.042969 11.867188 11.96875 11.777344 11.933594 11.710938 C 11.894531 11.640625 11.992188 11.699219 12.148438 11.84375 C 12.304688 11.984375 12.476562 12.09375 12.535156 12.085938 C 12.589844 12.078125 12.714844 12.109375 12.804688 12.152344 C 13.003906 12.246094 13.082031 12.195312 12.945312 12.0625 C 12.785156 11.902344 12.832031 11.910156 13.132812 12.089844 C 13.289062 12.183594 13.488281 12.28125 13.570312 12.300781 C 13.714844 12.339844 13.714844 12.335938 13.597656 12.246094 C 13.175781 11.914062 13.148438 11.8125 13.542969 12.007812 C 13.867188 12.171875 14.265625 12.242188 14.5625 12.1875 C 14.855469 12.132812 14.824219 12.03125 14.515625 12.03125 C 14.15625 12.03125 13.863281 11.792969 13.300781 11.046875 C 13.175781 10.882812 12.976562 10.644531 12.855469 10.519531 C 12.675781 10.335938 12.652344 10.285156 12.726562 10.238281 C 12.847656 10.164062 12.773438 10.105469 12.335938 9.914062 L 11.976562 9.757812 L 12.398438 9.769531 C 13.054688 9.78125 13.121094 9.769531 13.289062 9.601562 C 13.378906 9.515625 13.449219 9.421875 13.449219 9.398438 C 13.449219 9.371094 13.292969 9.359375 13.105469 9.371094 L 12.757812 9.398438 L 13.046875 9.34375 C 13.378906 9.28125 13.671875 9.125 13.792969 8.941406 C 13.875 8.816406 13.871094 8.8125 13.648438 8.84375 C 13.519531 8.859375 13.296875 8.839844 13.148438 8.796875 L 12.878906 8.722656 L 13.179688 8.667969 C 13.34375 8.640625 13.566406 8.605469 13.671875 8.589844 C 13.898438 8.554688 14.203125 8.316406 14.246094 8.148438 C 14.273438 8.046875 14.253906 8.035156 14.117188 8.054688 C 14.03125 8.066406 13.824219 8.089844 13.660156 8.105469 L 13.359375 8.132812 L 13.691406 8.027344 C 14.179688 7.871094 14.582031 7.667969 14.683594 7.523438 C 14.796875 7.363281 14.804688 7.144531 14.695312 7.230469 C 14.59375 7.3125 14.1875 7.378906 14.148438 7.320312 C 14.132812 7.292969 14.292969 7.222656 14.507812 7.160156 C 14.902344 7.050781 15.0625 6.910156 15.160156 6.597656 C 15.195312 6.480469 15.1875 6.460938 15.09375 6.488281 C 14.738281 6.59375 14.632812 6.605469 14.683594 6.527344 C 14.71875 6.46875 14.703125 6.460938 14.617188 6.492188 C 14.523438 6.527344 14.527344 6.507812 14.648438 6.382812 C 14.820312 6.195312 14.851562 6.191406 14.800781 6.347656 C 14.753906 6.5 14.808594 6.5 15.070312 6.34375 C 15.386719 6.152344 15.546875 5.988281 15.511719 5.890625 C 15.492188 5.84375 15.535156 5.722656 15.605469 5.625 C 15.761719 5.414062 15.652344 5.386719 15.414062 5.570312 C 15.285156 5.675781 14.710938 5.839844 14.710938 5.773438 C 14.710938 5.761719 14.878906 5.667969 15.085938 5.566406 C 15.503906 5.359375 15.761719 5.144531 15.890625 4.902344 C 16 4.691406 15.996094 4.609375 15.878906 4.65625 C 15.789062 4.6875 15.789062 4.675781 15.882812 4.53125 C 16.007812 4.34375 16.046875 3.59375 15.933594 3.554688 C 15.894531 3.539062 15.847656 3.585938 15.824219 3.648438 C 15.804688 3.714844 15.675781 3.878906 15.535156 4.019531 C 15.394531 4.15625 15.328125 4.253906 15.382812 4.234375 C 15.542969 4.179688 15.5625 4.265625 15.421875 4.414062 C 15.273438 4.574219 15.144531 4.59375 15.09375 4.464844 C 15.050781 4.347656 15.015625 4.351562 14.519531 4.496094 L 14.105469 4.621094 L 13.914062 5.015625 C 13.757812 5.347656 13.660156 5.457031 13.304688 5.722656 C 13.070312 5.894531 12.828125 6.089844 12.765625 6.160156 C 12.621094 6.320312 12.675781 6.558594 12.886719 6.667969 C 13.039062 6.746094 13.03125 6.753906 12.488281 6.945312 C 11.710938 7.226562 11.433594 7.199219 11.480469 6.859375 C 11.496094 6.742188 11.621094 6.660156 11.992188 6.523438 C 12.234375 6.4375 12.246094 6.347656 12.011719 6.347656 C 11.722656 6.347656 11.746094 6.246094 12.070312 6.085938 C 12.71875 5.761719 13.507812 5.078125 13.660156 4.710938 C 13.734375 4.53125 13.71875 4.191406 13.636719 4.195312 C 13.617188 4.199219 13.535156 4.335938 13.457031 4.5 C 13.238281 4.964844 12.40625 5.550781 11.648438 5.773438 C 11.191406 5.90625 10.722656 6.1875 10.523438 6.445312 C 10.203125 6.863281 9.992188 7.054688 9.8125 7.09375 L 9.632812 7.136719 L 9.839844 6.996094 C 10.113281 6.8125 10.152344 6.691406 9.925781 6.742188 L 9.753906 6.78125 L 9.902344 6.675781 C 10.136719 6.511719 10.382812 6.273438 10.382812 6.210938 C 10.382812 6.179688 10.328125 6.167969 10.265625 6.1875 C 10.167969 6.210938 10.183594 6.171875 10.351562 5.96875 C 10.566406 5.703125 10.6875 5.390625 10.570312 5.390625 C 10.535156 5.390625 10.503906 5.414062 10.503906 5.445312 C 10.503906 5.476562 10.417969 5.53125 10.308594 5.566406 L 10.113281 5.632812 L 10.3125 5.476562 C 10.582031 5.261719 10.863281 4.757812 10.859375 4.496094 C 10.859375 4.308594 10.851562 4.296875 10.785156 4.398438 C 10.589844 4.714844 10.332031 4.929688 9.898438 5.144531 L 9.421875 5.378906 L 9.421875 5.207031 C 9.421875 5.109375 9.394531 5.03125 9.363281 5.03125 C 9.328125 5.03125 9.304688 5.085938 9.304688 5.152344 C 9.304688 5.402344 9.054688 5.757812 8.667969 6.058594 C 8.222656 6.40625 8.125 6.558594 8.0625 7.011719 L 8 7.101562 L 7.9375 7.011719 C 7.875 6.558594 7.78125 6.40625 7.332031 6.058594 C 6.945312 5.757812 6.695312 5.402344 6.695312 5.15625 C 6.695312 5.089844 6.671875 5.03125 6.636719 5.03125 C 6.605469 5.03125 6.578125 5.113281 6.578125 5.207031 L 6.578125 5.378906 L 6.101562 5.144531 C 5.667969 4.929688 5.414062 4.714844 5.214844 4.398438 C 5.152344 4.296875 5.140625 4.308594 5.140625 4.496094 C 5.136719 4.757812 5.421875 5.261719 5.6875 5.476562 L 5.886719 5.632812 L 5.691406 5.566406 C 5.585938 5.53125 5.496094 5.476562 5.496094 5.445312 C 5.496094 5.414062 5.464844 5.390625 5.429688 5.390625 C 5.3125 5.390625 5.433594 5.703125 5.652344 5.96875 C 5.816406 6.171875 5.832031 6.210938 5.734375 6.1875 C 5.671875 6.167969 5.617188 6.179688 5.617188 6.210938 C 5.617188 6.273438 5.863281 6.511719 6.097656 6.675781 L 6.246094 6.78125 L 6.074219 6.742188 C 5.847656 6.691406 5.886719 6.8125 6.160156 6.996094 L 6.367188 7.136719 L 6.1875 7.09375 C 6.007812 7.054688 5.796875 6.863281 5.480469 6.449219 C 5.277344 6.1875 4.808594 5.90625 4.355469 5.773438 C 3.59375 5.550781 2.761719 4.964844 2.542969 4.5 C 2.464844 4.335938 2.382812 4.199219 2.363281 4.199219 C 2.28125 4.191406 2.265625 4.535156 2.339844 4.710938 C 2.496094 5.078125 3.28125 5.761719 3.933594 6.085938 C 4.257812 6.246094 4.277344 6.347656 3.988281 6.347656 C 3.757812 6.347656 3.765625 6.4375 4.007812 6.527344 C 4.378906 6.660156 4.503906 6.742188 4.519531 6.859375 C 4.566406 7.203125 4.289062 7.226562 3.515625 6.949219 C 2.972656 6.753906 2.960938 6.746094 3.113281 6.667969 C 3.324219 6.558594 3.382812 6.320312 3.234375 6.160156 C 3.171875 6.089844 2.929688 5.894531 2.695312 5.722656 C 2.339844 5.457031 2.246094 5.347656 2.085938 5.015625 L 1.894531 4.621094 L 1.480469 4.496094 C 0.984375 4.351562 0.949219 4.347656 0.90625 4.464844 C 0.855469 4.59375 0.730469 4.574219 0.578125 4.414062 C 0.4375 4.265625 0.457031 4.183594 0.617188 4.238281 C 0.675781 4.257812 0.605469 4.15625 0.464844 4.019531 C 0.324219 3.878906 0.195312 3.714844 0.175781 3.648438 C 0.152344 3.585938 0.105469 3.539062 0.0664062 3.554688 Z M 1.246094 4.890625 C 1.277344 4.882812 1.347656 4.902344 1.453125 4.945312 C 1.566406 4.992188 1.699219 5.113281 1.757812 5.222656 C 1.8125 5.328125 1.945312 5.507812 2.050781 5.613281 L 2.050781 5.617188 C 2.152344 5.722656 2.222656 5.808594 2.199219 5.808594 C 2.105469 5.804688 1.785156 5.601562 1.621094 5.445312 C 1.519531 5.355469 1.371094 5.253906 1.289062 5.21875 C 1.183594 5.179688 1.171875 5.15625 1.242188 5.15625 C 1.367188 5.152344 1.378906 5.085938 1.277344 4.984375 C 1.222656 4.929688 1.214844 4.898438 1.246094 4.890625 Z M 14.753906 4.890625 C 14.785156 4.898438 14.777344 4.929688 14.722656 4.988281 C 14.621094 5.085938 14.636719 5.152344 14.757812 5.15625 C 14.828125 5.160156 14.816406 5.179688 14.710938 5.222656 C 14.628906 5.253906 14.480469 5.355469 14.378906 5.449219 C 14.214844 5.601562 13.894531 5.804688 13.800781 5.808594 C 13.78125 5.808594 13.847656 5.722656 13.949219 5.617188 L 13.949219 5.613281 C 14.054688 5.507812 14.1875 5.328125 14.242188 5.222656 C 14.300781 5.113281 14.433594 4.992188 14.542969 4.945312 C 14.652344 4.902344 14.722656 4.882812 14.753906 4.890625 Z M 7.898438 4.945312 C 7.933594 4.925781 7.941406 4.949219 7.921875 5 C 7.882812 5.105469 7.839844 5.121094 7.839844 5.035156 C 7.839844 5.007812 7.867188 4.964844 7.898438 4.945312 Z M 8.070312 4.945312 C 8.074219 4.933594 8.085938 4.933594 8.101562 4.945312 C 8.132812 4.964844 8.160156 5.007812 8.160156 5.035156 C 8.160156 5.121094 8.117188 5.105469 8.078125 5 C 8.066406 4.972656 8.066406 4.953125 8.070312 4.945312 Z M 8.070312 4.945312 "/>
</g>
</svg>
