
<svg xmlns="http://www.w3.org/2000/svg" xmlns:xlink="http://www.w3.org/1999/xlink" width="16px" height="16px" viewBox="0 0 16 16" version="1.1">
<g id="surface1">
<path style=" stroke:none;fill-rule:nonzero;fill:#ff6666;fill-opacity:1;" d="M 7.289062 0 L 8 3.554688 L 8.710938 0 Z M 5.925781 0.710938 L 5.539062 1.023438 L 5.15625 1.335938 L 6.578125 3.554688 L 6.253906 2.132812 Z M 10.074219 0.710938 L 9.746094 2.132812 L 9.421875 3.554688 L 10.84375 1.335938 L 10.460938 1.023438 Z M 5.511719 3.910156 C 4.527344 3.910156 3.734375 5.105469 3.734375 6.578125 C 3.734375 8.050781 4.527344 9.242188 5.511719 9.242188 C 6.492188 9.242188 7.289062 8.050781 7.289062 6.578125 C 7.289062 5.105469 6.492188 3.910156 5.511719 3.910156 Z M 10.488281 3.910156 C 9.507812 3.910156 8.710938 5.105469 8.710938 6.578125 C 8.710938 8.050781 9.507812 9.242188 10.488281 9.242188 C 11.472656 9.242188 12.265625 8.050781 12.265625 6.578125 C 12.265625 5.105469 11.472656 3.910156 10.488281 3.910156 Z M 7.976562 7.824219 C 7.78125 7.832031 7.613281 7.9375 7.550781 8.09375 L 7.074219 9.296875 L 6.601562 10.492188 C 6.464844 10.847656 6.921875 11.15625 7.296875 10.964844 C 7.941406 10.550781 8.054688 10.636719 8.703125 10.964844 C 9.078125 11.15625 9.535156 10.847656 9.398438 10.492188 L 8.925781 9.296875 L 8.449219 8.09375 C 8.382812 7.925781 8.1875 7.8125 7.976562 7.824219 Z M 5.511719 11.734375 C 4.722656 11.734375 4.089844 12.367188 4.089844 13.15625 L 4.089844 14.578125 C 4.089844 15.367188 4.722656 16 5.511719 16 L 10.488281 16 C 11.277344 16 11.910156 15.367188 11.910156 14.578125 L 11.910156 13.15625 C 11.910156 12.367188 11.277344 11.734375 10.488281 11.734375 Z M 5.511719 12.445312 L 5.867188 12.445312 L 5.867188 13.511719 L 4.800781 13.511719 L 4.800781 13.15625 C 4.800781 12.75 5.105469 12.445312 5.511719 12.445312 Z M 6.578125 12.445312 L 7.644531 12.445312 L 7.644531 13.511719 L 6.578125 13.511719 Z M 8.355469 12.445312 L 9.421875 12.445312 L 9.421875 13.511719 L 8.355469 13.511719 Z M 10.132812 12.445312 L 10.488281 12.445312 C 10.894531 12.445312 11.199219 12.75 11.199219 13.15625 L 11.199219 13.511719 L 10.132812 13.511719 Z M 4.800781 14.222656 L 5.867188 14.222656 L 5.867188 15.289062 L 5.511719 15.289062 C 5.105469 15.289062 4.800781 14.984375 4.800781 14.578125 Z M 6.578125 14.222656 L 7.644531 14.222656 L 7.644531 15.289062 L 6.578125 15.289062 Z M 8.355469 14.222656 L 9.421875 14.222656 L 9.421875 15.289062 L 8.355469 15.289062 Z M 10.132812 14.222656 L 11.199219 14.222656 L 11.199219 14.578125 C 11.199219 14.984375 10.894531 15.289062 10.488281 15.289062 L 10.132812 15.289062 Z M 10.132812 14.222656 "/>
</g>
</svg>
