
<svg xmlns="http://www.w3.org/2000/svg" xmlns:xlink="http://www.w3.org/1999/xlink" width="16px" height="16px" viewBox="0 0 16 16" version="1.1">
<g id="surface1">
<path style=" stroke:none;fill-rule:nonzero;fill:#ff6666;fill-opacity:1;" d="M 15.371094 0.96875 C 15.070312 0.671875 14.75 0.390625 14.414062 0.132812 C 14.296875 0.046875 14.148438 0.0117188 14.003906 0.0390625 C 12.023438 0.363281 10.019531 0.542969 8.007812 0.570312 C 5.996094 0.535156 3.988281 0.347656 2.003906 0.0078125 C 1.859375 -0.0195312 1.714844 0.015625 1.597656 0.105469 C 1.257812 0.371094 0.933594 0.660156 0.628906 0.96875 C 0.53125 1.050781 0.464844 1.167969 0.449219 1.292969 C 0.449219 1.742188 0.449219 2.109375 0.449219 2.464844 C 0.449219 2.820312 0.449219 3.289062 0.480469 3.769531 C 0.609375 7.046875 1.25 10.28125 2.367188 13.363281 C 2.398438 13.441406 2.449219 13.515625 2.511719 13.574219 C 4.039062 14.902344 6.40625 16 8.007812 16 C 9.613281 16 11.960938 14.90625 13.496094 13.574219 C 13.5625 13.515625 13.609375 13.441406 13.640625 13.363281 C 14.757812 10.28125 15.390625 7.042969 15.519531 3.769531 C 15.519531 3.289062 15.550781 2.867188 15.550781 2.46875 C 15.550781 2.070312 15.550781 1.742188 15.550781 1.300781 C 15.535156 1.171875 15.472656 1.050781 15.371094 0.96875 Z M 6.867188 10.003906 L 6.839844 10.050781 C 6.238281 11.117188 5.269531 11.25 4.183594 10.820312 C 3.09375 10.386719 2.1875 9.496094 2.566406 8.25 C 2.925781 7.125 4.675781 7.582031 5.488281 7.769531 C 6.628906 8.050781 7.496094 8.730469 6.886719 9.945312 C 6.910156 9.917969 6.921875 9.910156 6.867188 10.003906 Z M 13.449219 9.226562 C 13.171875 10.363281 12.035156 10.960938 10.910156 11.078125 C 9.878906 11.183594 8.96875 10.1875 8.929688 9.160156 C 8.929688 9.226562 8.929688 9.289062 8.929688 9.117188 C 8.929688 9.070312 8.929688 9.070312 8.929688 9.082031 C 8.964844 7.871094 10.753906 7.644531 11.65625 7.5625 C 12.84375 7.449219 13.78125 7.855469 13.449219 9.226562 Z M 13.449219 9.226562 "/>
</g>
</svg>
