
<svg xmlns="http://www.w3.org/2000/svg" xmlns:xlink="http://www.w3.org/1999/xlink" width="16px" height="16px" viewBox="0 0 16 16" version="1.1">
<g id="surface1">
<path style=" stroke:none;fill-rule:nonzero;fill:#ff6666;fill-opacity:1;" d="M 7.710938 1.15625 L 3.4375 4.355469 C 3.242188 4.488281 3.15625 4.730469 3.222656 4.953125 C 3.292969 5.179688 3.5 5.332031 3.734375 5.332031 L 4.265625 5.332031 L 4.265625 7.464844 L 0.535156 7.464844 C 0.238281 7.464844 0 7.703125 0 8 L 0 14.398438 C 0 14.695312 0.238281 14.933594 0.535156 14.933594 L 5.867188 14.933594 C 6.164062 14.933594 6.398438 14.695312 6.398438 14.398438 L 6.398438 11.734375 C 6.398438 11.734375 6.398438 10.667969 7.464844 10.667969 L 8.535156 10.667969 C 9.601562 10.667969 9.601562 11.734375 9.601562 11.734375 L 9.601562 14.398438 C 9.601562 14.695312 9.835938 14.933594 10.132812 14.933594 L 15.464844 14.933594 C 15.761719 14.933594 16 14.695312 16 14.398438 L 16 8 C 16 7.703125 15.761719 7.464844 15.464844 7.464844 L 11.734375 7.464844 L 11.734375 5.332031 L 12.265625 5.332031 C 12.5 5.332031 12.707031 5.179688 12.777344 4.953125 C 12.84375 4.730469 12.757812 4.488281 12.5625 4.355469 L 8.300781 1.15625 C 8.121094 1.035156 7.890625 1.035156 7.710938 1.15625 Z M 5.601562 5.332031 L 6.132812 5.332031 C 6.28125 5.332031 6.398438 5.453125 6.398438 5.601562 L 6.398438 7.199219 C 6.398438 7.347656 6.28125 7.464844 6.132812 7.464844 L 5.601562 7.464844 C 5.453125 7.464844 5.332031 7.347656 5.332031 7.199219 L 5.332031 5.601562 C 5.332031 5.453125 5.453125 5.332031 5.601562 5.332031 Z M 7.734375 5.332031 L 8.265625 5.332031 C 8.414062 5.332031 8.535156 5.453125 8.535156 5.601562 L 8.535156 7.199219 C 8.535156 7.347656 8.414062 7.464844 8.265625 7.464844 L 7.734375 7.464844 C 7.585938 7.464844 7.464844 7.347656 7.464844 7.199219 L 7.464844 5.601562 C 7.464844 5.453125 7.585938 5.332031 7.734375 5.332031 Z M 9.867188 5.332031 L 10.398438 5.332031 C 10.546875 5.332031 10.667969 5.453125 10.667969 5.601562 L 10.667969 7.199219 C 10.667969 7.347656 10.546875 7.464844 10.398438 7.464844 L 9.867188 7.464844 C 9.71875 7.464844 9.601562 7.347656 9.601562 7.199219 L 9.601562 5.601562 C 9.601562 5.453125 9.71875 5.332031 9.867188 5.332031 Z M 1.332031 8.535156 L 1.867188 8.535156 C 2.015625 8.535156 2.132812 8.652344 2.132812 8.800781 L 2.132812 10.398438 C 2.132812 10.546875 2.015625 10.667969 1.867188 10.667969 L 1.332031 10.667969 C 1.1875 10.667969 1.066406 10.546875 1.066406 10.398438 L 1.066406 8.800781 C 1.066406 8.652344 1.1875 8.535156 1.332031 8.535156 Z M 3.464844 8.535156 L 4 8.535156 C 4.148438 8.535156 4.265625 8.652344 4.265625 8.800781 L 4.265625 10.398438 C 4.265625 10.546875 4.148438 10.667969 4 10.667969 L 3.464844 10.667969 C 3.320312 10.667969 3.199219 10.546875 3.199219 10.398438 L 3.199219 8.800781 C 3.199219 8.652344 3.320312 8.535156 3.464844 8.535156 Z M 12 8.535156 L 12.535156 8.535156 C 12.679688 8.535156 12.800781 8.652344 12.800781 8.800781 L 12.800781 10.398438 C 12.800781 10.546875 12.679688 10.667969 12.535156 10.667969 L 12 10.667969 C 11.851562 10.667969 11.734375 10.546875 11.734375 10.398438 L 11.734375 8.800781 C 11.734375 8.652344 11.851562 8.535156 12 8.535156 Z M 14.132812 8.535156 L 14.667969 8.535156 C 14.8125 8.535156 14.933594 8.652344 14.933594 8.800781 L 14.933594 10.398438 C 14.933594 10.546875 14.8125 10.667969 14.667969 10.667969 L 14.132812 10.667969 C 13.984375 10.667969 13.867188 10.546875 13.867188 10.398438 L 13.867188 8.800781 C 13.867188 8.652344 13.984375 8.535156 14.132812 8.535156 Z M 1.332031 11.734375 L 1.867188 11.734375 C 2.015625 11.734375 2.132812 11.851562 2.132812 12 L 2.132812 13.601562 C 2.132812 13.746094 2.015625 13.867188 1.867188 13.867188 L 1.332031 13.867188 C 1.1875 13.867188 1.066406 13.746094 1.066406 13.601562 L 1.066406 12 C 1.066406 11.851562 1.1875 11.734375 1.332031 11.734375 Z M 3.464844 11.734375 L 4 11.734375 C 4.148438 11.734375 4.265625 11.851562 4.265625 12 L 4.265625 13.601562 C 4.265625 13.746094 4.148438 13.867188 4 13.867188 L 3.464844 13.867188 C 3.320312 13.867188 3.199219 13.746094 3.199219 13.601562 L 3.199219 12 C 3.199219 11.851562 3.320312 11.734375 3.464844 11.734375 Z M 12 11.734375 L 12.535156 11.734375 C 12.679688 11.734375 12.800781 11.851562 12.800781 12 L 12.800781 13.601562 C 12.800781 13.746094 12.679688 13.867188 12.535156 13.867188 L 12 13.867188 C 11.851562 13.867188 11.734375 13.746094 11.734375 13.601562 L 11.734375 12 C 11.734375 11.851562 11.851562 11.734375 12 11.734375 Z M 14.132812 11.734375 L 14.667969 11.734375 C 14.8125 11.734375 14.933594 11.851562 14.933594 12 L 14.933594 13.601562 C 14.933594 13.746094 14.8125 13.867188 14.667969 13.867188 L 14.132812 13.867188 C 13.984375 13.867188 13.867188 13.746094 13.867188 13.601562 L 13.867188 12 C 13.867188 11.851562 13.984375 11.734375 14.132812 11.734375 Z M 14.132812 11.734375 "/>
</g>
</svg>
