
<svg xmlns="http://www.w3.org/2000/svg" xmlns:xlink="http://www.w3.org/1999/xlink" width="16px" height="16px" viewBox="0 0 16 16" version="1.1">
<g id="surface1">
<path style=" stroke:none;fill-rule:evenodd;fill:#ff6666;fill-opacity:1;" d="M 7.945312 6.855469 C 8.164062 6.84375 8.382812 6.898438 8.570312 7.007812 C 9.117188 7.320312 9.304688 8.019531 8.988281 8.566406 C 8.675781 9.113281 7.976562 9.300781 7.429688 8.984375 C 6.882812 8.671875 6.695312 7.972656 7.011719 7.425781 C 7.203125 7.089844 7.558594 6.871094 7.945312 6.855469 Z M 8.0625 5.332031 C 7.089844 5.308594 6.179688 5.820312 5.691406 6.664062 C 5.335938 7.273438 5.242188 8.003906 5.425781 8.6875 C 5.605469 9.371094 6.054688 9.953125 6.667969 10.304688 C 7.277344 10.660156 8.007812 10.753906 8.691406 10.570312 C 9.371094 10.390625 9.957031 9.941406 10.308594 9.328125 C 10.664062 8.71875 10.757812 7.988281 10.574219 7.304688 C 10.394531 6.621094 9.945312 6.039062 9.332031 5.6875 C 8.945312 5.464844 8.507812 5.339844 8.0625 5.332031 Z M 11.144531 3.234375 L 9.617188 4.765625 L 11.230469 6.378906 L 12.765625 4.84375 C 13.378906 5.773438 13.714844 6.867188 13.714844 7.996094 C 13.714844 9.511719 13.113281 10.964844 12.039062 12.035156 C 10.96875 13.109375 9.515625 13.710938 8 13.710938 C 6.484375 13.710938 5.03125 13.109375 3.960938 12.035156 C 2.886719 10.964844 2.285156 9.511719 2.285156 7.996094 C 2.285156 6.480469 2.886719 5.027344 3.960938 3.957031 C 5.230469 2.6875 7.023438 2.089844 8.804688 2.34375 L 10.679688 0.46875 C 7.773438 -0.566406 4.527344 0.160156 2.34375 2.339844 C -0.78125 5.464844 -0.78125 10.527344 2.34375 13.652344 C 5.46875 16.777344 10.53125 16.777344 13.65625 13.652344 C 16.78125 10.527344 16.78125 5.464844 13.65625 2.339844 C 13.417969 2.105469 13.164062 1.886719 12.898438 1.683594 L 12.847656 1.53125 L 12.785156 1.597656 C 12.785156 1.597656 12.785156 1.597656 12.78125 1.597656 Z M 11.144531 3.234375 "/>
</g>
</svg>
