
<svg xmlns="http://www.w3.org/2000/svg" xmlns:xlink="http://www.w3.org/1999/xlink" width="16px" height="16px" viewBox="0 0 16 16" version="1.1">
<g id="surface1">
<path style=" stroke:none;fill-rule:nonzero;fill:#ff6666;fill-opacity:1;" d="M 14.734375 9.21875 C 14.734375 11.285156 14.214844 12.851562 13.171875 13.914062 C 12.128906 14.972656 10.570312 15.5 8.492188 15.5 C 7.03125 15.5 5.769531 15.183594 4.707031 14.546875 C 3.652344 13.902344 2.851562 13.015625 2.3125 11.878906 C 1.769531 10.734375 1.5 9.40625 1.5 7.894531 C 1.5 6.460938 1.785156 5.1875 2.351562 4.070312 C 2.921875 2.953125 3.738281 2.082031 4.808594 1.453125 C 5.878906 0.816406 7.117188 0.5 8.523438 0.5 C 10.074219 0.5 11.34375 0.890625 12.328125 1.671875 C 13.324219 2.457031 14.128906 3.585938 14.515625 4.910156 L 11.867188 4.910156 C 11.617188 4.296875 11.113281 3.710938 10.523438 3.308594 C 9.933594 2.90625 9.253906 2.707031 8.484375 2.707031 C 7.238281 2.707031 6.167969 3.199219 5.277344 4.183594 C 4.382812 5.160156 3.9375 6.390625 3.9375 7.882812 C 3.9375 8.886719 4.117188 9.796875 4.472656 10.613281 C 4.839844 11.421875 5.367188 12.070312 6.058594 12.558594 C 6.753906 13.046875 7.554688 13.292969 8.464844 13.292969 C 9.171875 13.292969 9.804688 13.207031 10.351562 13.03125 C 10.90625 12.851562 11.359375 12.5625 11.710938 12.167969 C 12.070312 11.765625 12.289062 11.214844 12.308594 10.648438 L 9.882812 10.648438 L 9.882812 8.441406 L 14.734375 8.441406 "/>
</g>
</svg>
