
<svg xmlns="http://www.w3.org/2000/svg" xmlns:xlink="http://www.w3.org/1999/xlink" width="16px" height="16px" viewBox="0 0 16 16" version="1.1">
<g id="surface1">
<path style=" stroke:none;fill-rule:evenodd;fill:#ff6666;fill-opacity:1;" d="M 5.933594 2.957031 C 3.753906 3.808594 2.316406 5.90625 2.3125 8.25 C 2.3125 11.390625 4.859375 13.9375 8 13.9375 C 11.140625 13.9375 13.6875 11.390625 13.6875 8.25 C 13.683594 5.976562 12.328125 3.921875 10.238281 3.027344 L 9.625 4.527344 C 11.105469 5.175781 12.0625 6.636719 12.0625 8.25 C 12.0625 10.492188 10.242188 12.3125 8 12.3125 C 5.757812 12.3125 3.9375 10.492188 3.9375 8.25 C 3.9375 6.617188 4.921875 5.140625 6.425781 4.507812 Z M 0 8 C 0 3.585938 3.585938 0 8 0 C 12.414062 0 16 3.585938 16 8 C 16 12.414062 12.414062 16 8 16 C 3.585938 16 0 12.414062 0 8 Z M 7.1875 0.9375 L 7.1875 5.8125 L 8.8125 5.8125 L 8.8125 0.9375 Z M 7.1875 0.9375 "/>
</g>
</svg>
