
<svg xmlns="http://www.w3.org/2000/svg" xmlns:xlink="http://www.w3.org/1999/xlink" width="16px" height="16px" viewBox="0 0 16 16" version="1.1">
<g id="surface1">
<path style=" stroke:none;fill-rule:evenodd;fill:#ff6666;fill-opacity:1;" d="M 4.28125 4.21875 C 5.617188 4.148438 6.773438 5.039062 8.109375 4.964844 C 9.222656 4.902344 11.332031 4 11.332031 4 C 11.148438 5.195312 10.78125 5.980469 8.136719 6.3125 C 6.703125 6.488281 5.089844 5.511719 3.914062 5.34375 C 3.140625 5.230469 2 5.578125 2 5.578125 C 2 5.578125 2.765625 4.296875 4.28125 4.21875 Z M 8.949219 6.882812 C 10.285156 6.816406 11.441406 7.707031 12.773438 7.632812 C 13.890625 7.570312 16 6.667969 16 6.667969 C 15.8125 7.863281 15.449219 8.648438 12.800781 8.976562 C 11.371094 9.15625 9.757812 8.179688 8.582031 8.007812 C 7.808594 7.898438 6.667969 8.246094 6.667969 8.246094 C 6.667969 8.246094 7.433594 6.960938 8.949219 6.882812 Z M 2.28125 9.882812 C 3.617188 9.816406 4.773438 10.707031 6.109375 10.632812 C 7.222656 10.570312 9.332031 9.667969 9.332031 9.667969 C 9.148438 10.863281 8.78125 11.648438 6.136719 11.976562 C 4.703125 12.15625 3.089844 11.179688 1.914062 11.007812 C 1.140625 10.894531 0 11.246094 0 11.246094 C 0 11.246094 0.765625 9.960938 2.28125 9.882812 Z M 2.28125 9.882812 "/>
</g>
</svg>
