
<svg xmlns="http://www.w3.org/2000/svg" xmlns:xlink="http://www.w3.org/1999/xlink" width="16px" height="16px" viewBox="0 0 16 16" version="1.1">
<g id="surface1">
<path style=" stroke:none;fill-rule:nonzero;fill:#ff6666;fill-opacity:1;" d="M 6.921875 14.820312 C 6.753906 14.726562 5.855469 14.160156 4.929688 13.570312 C 2.730469 12.164062 2.066406 11.753906 1.601562 11.53125 C 0.972656 11.222656 1.03125 11.578125 1.011719 7.980469 C 0.992188 4.621094 0.949219 4.035156 1.28125 4.121094 C 1.019531 3.886719 2.238281 3.519531 4.140625 2.707031 C 6.003906 1.914062 8.058594 1.113281 8.511719 1.003906 C 8.632812 0.976562 8.925781 1.09375 10.027344 1.617188 C 12.449219 2.773438 14.449219 3.835938 14.703125 4.101562 C 14.765625 4.164062 14.84375 4.214844 14.886719 4.214844 C 15 4.214844 15.03125 4.4375 14.96875 4.839844 C 14.9375 5.046875 14.710938 6.378906 14.464844 7.804688 C 14.21875 9.226562 14 10.539062 13.980469 10.714844 C 13.90625 11.347656 13.925781 11.324219 12.921875 11.914062 C 12.421875 12.210938 11.148438 12.921875 10.101562 13.492188 C 9.050781 14.066406 8.003906 14.640625 7.773438 14.773438 C 7.546875 14.898438 7.332031 15.003906 7.296875 15 C 7.261719 14.996094 7.09375 14.917969 6.925781 14.820312 M 7.167969 13.425781 C 7.1875 12.945312 7.222656 11.566406 7.246094 10.363281 C 7.304688 7.695312 7.316406 7.777344 6.726562 7.398438 C 6.003906 6.933594 5.222656 6.5 3.886719 5.828125 C 3.160156 5.464844 2.367188 5.050781 2.117188 4.90625 C 1.8125 4.730469 1.648438 4.667969 1.613281 4.703125 C 1.539062 4.773438 1.535156 7.5625 1.601562 9.515625 L 1.648438 10.90625 L 2.050781 11.128906 C 2.394531 11.324219 4.40625 12.621094 6.359375 13.90625 C 6.6875 14.125 6.992188 14.300781 7.042969 14.304688 C 7.128906 14.304688 7.136719 14.191406 7.167969 13.429688 M 3.71875 11.035156 L 3.804688 8.339844 L 2.734375 7.800781 L 2.875 6.6875 L 6.257812 8.230469 L 6.191406 9.277344 L 4.964844 8.789062 C 4.804688 9.390625 4.78125 10.601562 4.6875 11.523438 L 3.71875 11.035156 M 10.101562 12.925781 C 12.554688 11.574219 13.382812 11.082031 13.414062 10.941406 C 13.429688 10.875 13.480469 10.554688 13.53125 10.230469 C 13.582031 9.898438 13.800781 8.613281 14.011719 7.371094 C 14.367188 5.285156 14.441406 4.753906 14.375 4.753906 C 14.300781 4.753906 12.988281 5.320312 11.308594 6.074219 C 10.273438 6.542969 9.121094 7.058594 8.753906 7.222656 C 8.382812 7.386719 8.050781 7.550781 8.007812 7.582031 C 7.894531 7.683594 7.628906 13.863281 7.730469 14.109375 C 7.765625 14.191406 7.804688 14.183594 8.089844 14.023438 C 8.269531 13.929688 9.171875 13.433594 10.097656 12.925781 M 8.867188 11.996094 C 8.851562 10.566406 8.738281 9.15625 9.070312 7.65625 L 9.765625 7.644531 L 9.824219 9.699219 L 12.25 6.863281 L 13.394531 6.578125 L 11.261719 9.382812 L 13.238281 10.289062 L 12.425781 10.792969 L 10.410156 9.933594 L 9.679688 10.28125 L 9.652344 11.660156 M 8.113281 6.941406 C 8.277344 6.875 9.472656 6.328125 10.773438 5.738281 C 12.074219 5.144531 13.300781 4.589844 13.5 4.507812 C 14.03125 4.285156 14.054688 4.257812 13.796875 4.09375 C 13.40625 3.847656 11.40625 2.828125 10.007812 2.160156 L 8.617188 1.496094 L 8.148438 1.648438 C 7.492188 1.859375 5.617188 2.609375 4.015625 3.304688 C 2.324219 4.03125 2.101562 4.140625 2.101562 4.230469 C 2.101562 4.265625 2.472656 4.496094 2.929688 4.738281 C 4.394531 5.515625 7.578125 7.074219 7.703125 7.074219 C 7.773438 7.074219 7.960938 7.015625 8.128906 6.945312 M 7.234375 6.078125 C 6.421875 5.886719 5.496094 5.433594 5.253906 5.113281 C 5.066406 4.859375 4.902344 4.449219 4.902344 4.222656 C 4.902344 3.945312 5.085938 3.558594 5.320312 3.320312 C 5.617188 3.027344 6.03125 2.898438 7.109375 2.78125 C 8.179688 2.660156 9.105469 2.695312 9.65625 2.878906 C 10.175781 3.054688 10.386719 3.160156 10.492188 3.308594 C 10.773438 3.695312 10.972656 4.019531 10.972656 4.085938 C 10.972656 4.183594 10.714844 4.277344 10.527344 4.246094 C 10.449219 4.230469 10.289062 4.207031 10.175781 4.1875 C 10.003906 4.160156 9.945312 4.113281 9.839844 3.9375 C 9.695312 3.695312 9.316406 3.441406 8.953125 3.347656 C 8.394531 3.203125 6.851562 3.324219 6.382812 3.546875 C 6.113281 3.671875 5.972656 3.949219 5.929688 4.40625 C 5.902344 4.71875 5.914062 4.769531 6.035156 4.894531 C 6.199219 5.0625 6.65625 5.289062 7.167969 5.453125 C 7.449219 5.542969 7.613281 5.566406 7.808594 5.539062 C 8.265625 5.480469 8.316406 5.363281 8.050781 5.042969 C 7.816406 4.761719 7.761719 4.609375 7.835938 4.472656 C 7.890625 4.375 7.933594 4.363281 8.1875 4.386719 C 8.550781 4.425781 9.316406 4.703125 9.492188 4.867188 C 9.652344 5.007812 9.679688 5.34375 9.535156 5.472656 C 9.382812 5.628906 8.683594 5.996094 8.410156 6.074219 C 8.09375 6.167969 7.621094 6.167969 7.238281 6.074219 "/>
</g>
</svg>
