
<svg xmlns="http://www.w3.org/2000/svg" xmlns:xlink="http://www.w3.org/1999/xlink" width="16px" height="16px" viewBox="0 0 16 16" version="1.1">
<g id="surface1">
<path style=" stroke:none;fill-rule:nonzero;fill:#ff6666;fill-opacity:1;" d="M 4.710938 0 L 4.710938 4.710938 L 0 4.710938 L 0 6.09375 L 4.710938 6.09375 L 4.710938 9.90625 L 0 9.90625 L 0 11.289062 L 4.710938 11.289062 L 4.710938 16 L 6.09375 16 L 6.09375 11.289062 L 9.90625 11.289062 L 9.90625 16 L 11.289062 16 L 11.289062 11.289062 L 16 11.289062 L 16 9.90625 L 11.289062 9.90625 L 11.289062 6.09375 L 16 6.09375 L 16 4.710938 L 11.289062 4.710938 L 11.289062 0 L 9.90625 0 L 9.90625 4.710938 L 6.09375 4.710938 L 6.09375 0 Z M 6.09375 6.09375 L 9.90625 6.09375 L 9.90625 9.90625 L 6.09375 9.90625 Z M 6.09375 6.09375 "/>
</g>
</svg>
