
<svg xmlns="http://www.w3.org/2000/svg" xmlns:xlink="http://www.w3.org/1999/xlink" width="16px" height="16px" viewBox="0 0 16 16" version="1.1">
<g id="surface1">
<path style=" stroke:none;fill-rule:nonzero;fill:#ff6666;fill-opacity:1;" d="M 8.238281 1.667969 L 9.617188 1.667969 L 12.554688 15.015625 C 12.632812 15.375 12.996094 15.667969 13.363281 15.667969 L 15.332031 15.667969 C 15.511719 15.667969 15.679688 15.597656 15.804688 15.46875 C 15.929688 15.347656 16 15.175781 16 15 C 16 14.824219 15.929688 14.652344 15.804688 14.53125 C 15.679688 14.402344 15.511719 14.332031 15.332031 14.332031 L 13.765625 14.332031 L 10.832031 0.984375 C 10.753906 0.625 10.390625 0.332031 10.023438 0.332031 L 5.976562 0.332031 C 5.609375 0.332031 5.246094 0.625 5.167969 0.984375 L 2.234375 14.332031 L 0.667969 14.332031 C 0.488281 14.332031 0.320312 14.402344 0.195312 14.53125 C 0.0703125 14.652344 0 14.824219 0 15 C 0 15.175781 0.0703125 15.347656 0.195312 15.46875 C 0.320312 15.597656 0.488281 15.667969 0.667969 15.667969 L 2.636719 15.667969 C 3.003906 15.667969 3.367188 15.375 3.445312 15.015625 L 6.382812 1.667969 Z M 8.238281 1.667969 "/>
</g>
</svg>
