
<svg xmlns="http://www.w3.org/2000/svg" xmlns:xlink="http://www.w3.org/1999/xlink" width="16px" height="16px" viewBox="0 0 16 16" version="1.1">
<g id="surface1">
<path style=" stroke:none;fill-rule:nonzero;fill:#ff6666;fill-opacity:1;" d="M 7.222656 15.460938 C 6.109375 15.34375 4.796875 14.878906 3.902344 14.28125 C 3.195312 13.8125 2.503906 13.167969 2.019531 12.53125 C 1.191406 11.441406 0.671875 10.117188 0.527344 8.71875 C 0.472656 8.21875 0.5 7.285156 0.582031 6.796875 C 0.839844 5.234375 1.578125 3.796875 2.691406 2.683594 C 3.816406 1.558594 5.226562 0.835938 6.828125 0.570312 C 7.375 0.476562 8.699219 0.476562 9.199219 0.570312 C 11.386719 0.976562 13.125 2.109375 14.296875 3.894531 C 14.527344 4.242188 14.628906 4.425781 14.601562 4.453125 C 14.59375 4.457031 13.492188 4.761719 12.15625 5.125 C 10.820312 5.488281 8.589844 6.09375 7.203125 6.46875 C 4.175781 7.292969 3.488281 7.476562 3.476562 7.464844 C 3.445312 7.445312 3.5625 6.917969 3.671875 6.574219 C 3.800781 6.167969 4.105469 5.535156 4.195312 5.484375 C 4.253906 5.453125 10.820312 3.664062 11.402344 3.519531 C 11.488281 3.5 11.554688 3.464844 11.546875 3.441406 C 11.523438 3.371094 11 3.027344 10.632812 2.847656 C 10.1875 2.625 9.640625 2.433594 9.148438 2.324219 C 8.832031 2.257812 8.671875 2.246094 8.003906 2.246094 C 7.121094 2.246094 6.808594 2.292969 6.109375 2.535156 C 5.246094 2.835938 4.570312 3.261719 3.921875 3.914062 C 3.246094 4.585938 2.824219 5.269531 2.527344 6.164062 C 2.292969 6.863281 2.222656 7.367188 2.246094 8.171875 C 2.265625 8.894531 2.335938 9.289062 2.542969 9.898438 C 3.160156 11.691406 4.671875 13.09375 6.511719 13.574219 C 7.105469 13.730469 7.511719 13.773438 8.230469 13.75 C 9.132812 13.722656 9.808594 13.550781 10.59375 13.15625 C 11.460938 12.726562 12.285156 11.996094 12.8125 11.199219 C 13.085938 10.789062 13.40625 10.15625 13.363281 10.113281 C 13.34375 10.09375 12.394531 10.34375 9.597656 11.109375 C 8.648438 11.367188 7.4375 11.695312 6.902344 11.835938 L 5.929688 12.09375 L 5.734375 11.984375 C 5.46875 11.832031 5.121094 11.574219 4.886719 11.351562 C 4.671875 11.148438 4.328125 10.75 4.347656 10.726562 C 4.355469 10.71875 5.085938 10.519531 5.972656 10.28125 C 6.859375 10.042969 8.269531 9.660156 9.109375 9.429688 C 9.945312 9.199219 11.210938 8.859375 11.917969 8.667969 C 12.628906 8.476562 13.6875 8.191406 14.277344 8.03125 C 14.863281 7.871094 15.371094 7.734375 15.402344 7.730469 C 15.550781 7.703125 15.527344 8.691406 15.363281 9.496094 C 15.261719 9.996094 15 10.761719 14.773438 11.238281 C 14.046875 12.746094 12.808594 13.996094 11.320312 14.71875 C 10.035156 15.347656 8.605469 15.605469 7.222656 15.460938 Z M 3.800781 9.777344 C 3.628906 9.375 3.539062 9.011719 3.453125 8.367188 C 3.445312 8.304688 3.46875 8.277344 3.554688 8.25 C 3.667969 8.214844 5.589844 7.695312 8.382812 6.945312 C 9.199219 6.726562 10.53125 6.367188 11.339844 6.148438 C 13.460938 5.574219 14.902344 5.191406 14.964844 5.1875 C 15.058594 5.179688 15.375 6.148438 15.457031 6.6875 L 15.480469 6.855469 L 14.070312 7.226562 C 13.296875 7.433594 11.945312 7.796875 11.066406 8.035156 C 10.1875 8.273438 9.039062 8.582031 8.511719 8.722656 C 7.980469 8.863281 6.738281 9.195312 5.75 9.464844 C 4.761719 9.730469 3.9375 9.953125 3.914062 9.953125 C 3.894531 9.953125 3.84375 9.875 3.800781 9.777344 Z M 3.800781 9.777344 "/>
</g>
</svg>
