
<svg xmlns="http://www.w3.org/2000/svg" xmlns:xlink="http://www.w3.org/1999/xlink" width="16px" height="16px" viewBox="0 0 16 16" version="1.1">
<g id="surface1">
<path style=" stroke:none;fill-rule:nonzero;fill:#ff6666;fill-opacity:1;" d="M 14.222656 4.445312 C 13.542969 2.289062 11.21875 1.792969 9.347656 1.777344 C 7.699219 1.777344 6.488281 2.394531 5.714844 3.480469 C 4.945312 4.5625 4.445312 5.671875 4.445312 8.003906 C 4.445312 10.320312 4.933594 11.488281 5.671875 12.585938 C 6.410156 13.671875 7.914062 14.210938 9.125 14.21875 C 10.191406 14.222656 11.382812 13.761719 12.445312 13.332031 L 12.445312 9.847656 L 10.667969 9.847656 L 10.667969 8.890625 L 16 8.890625 L 16 14.222656 C 13.664062 15.46875 11.214844 15.988281 8.773438 16 C 6.042969 16 3.898438 15.285156 2.335938 13.863281 C 0.777344 12.4375 0 10.484375 0 8.003906 C 0 5.519531 0.777344 3.5625 2.335938 2.136719 C 3.898438 0.714844 6.042969 0 8.773438 0 C 11.101562 0.0742188 13.121094 0.550781 15.109375 1.335938 L 15.109375 4.445312 Z M 14.222656 4.445312 "/>
</g>
</svg>
