
<svg xmlns="http://www.w3.org/2000/svg" xmlns:xlink="http://www.w3.org/1999/xlink" width="16px" height="16px" viewBox="0 0 16 16" version="1.1">
<g id="surface1">
<path style=" stroke:none;fill-rule:nonzero;fill:#ff6666;fill-opacity:1;" d="M 9 15 L 9 1 L 8 1 L 8 15 Z M 9 15 "/>
<path style=" stroke:none;fill-rule:nonzero;fill:#ff6666;fill-opacity:1;" d="M 7 13 L 7 3 L 6 3 L 6 13 Z M 7 13 "/>
<path style=" stroke:none;fill-rule:nonzero;fill:#ff6666;fill-opacity:1;" d="M 5 12 L 5 4 L 4 4 L 4 12 Z M 5 12 "/>
<path style=" stroke:none;fill-rule:nonzero;fill:#ff6666;fill-opacity:1;" d="M 3 9 L 3 6 L 2 6 L 2 9 Z M 3 9 "/>
<path style=" stroke:none;fill-rule:nonzero;fill:#ff6666;fill-opacity:1;" d="M 10 3 L 10 13 L 11 13 L 11 3 Z M 10 3 "/>
<path style=" stroke:none;fill-rule:nonzero;fill:#ff6666;fill-opacity:1;" d="M 12 4 L 12 12 L 13 12 L 13 4 Z M 12 4 "/>
<path style=" stroke:none;fill-rule:nonzero;fill:#ff6666;fill-opacity:1;" d="M 14 6 L 14 9 L 15 9 L 15 6 Z M 14 6 "/>
</g>
</svg>
