
<svg xmlns="http://www.w3.org/2000/svg" xmlns:xlink="http://www.w3.org/1999/xlink" width="16px" height="16px" viewBox="0 0 16 16" version="1.1">
<g id="surface1">
<path style=" stroke:none;fill-rule:evenodd;fill:#ff6666;fill-opacity:1;" d="M 11.78125 3 C 11.707031 2.996094 11.617188 3.003906 11.507812 3.011719 L 6.691406 3.765625 C 6.148438 3.820312 6.089844 4.074219 6.09375 4.390625 L 6.09375 10.75 C 5.816406 10.570312 5.523438 10.441406 5.128906 10.441406 C 4.621094 10.441406 4.316406 10.636719 4.136719 10.890625 C 3.953125 11.148438 3.890625 11.46875 3.890625 11.71875 C 3.890625 12.019531 3.996094 12.339844 4.21875 12.582031 C 4.441406 12.828125 4.78125 13 5.273438 13 C 5.832031 13 6.21875 12.84375 6.441406 12.542969 C 6.613281 12.304688 6.710938 11.984375 6.746094 11.589844 C 6.75 11.542969 6.753906 11.492188 6.757812 11.441406 C 6.761719 11.402344 6.761719 11.375 6.761719 11.328125 L 6.761719 6.179688 C 6.777344 5.765625 7.152344 5.707031 7.152344 5.707031 L 11.0625 5.09375 C 11.441406 4.980469 11.441406 5.445312 11.441406 5.445312 L 11.441406 10.082031 C 11.164062 9.902344 10.867188 9.773438 10.472656 9.773438 C 9.96875 9.773438 9.664062 9.964844 9.480469 10.222656 C 9.296875 10.476562 9.238281 10.800781 9.238281 11.050781 C 9.238281 11.351562 9.339844 11.671875 9.5625 11.914062 C 9.785156 12.160156 10.128906 12.332031 10.621094 12.332031 C 11.175781 12.332031 11.566406 12.175781 11.789062 11.875 C 11.960938 11.636719 12.058594 11.316406 12.09375 10.921875 C 12.097656 10.875 12.101562 10.824219 12.101562 10.773438 C 12.105469 10.734375 12.105469 10.707031 12.105469 10.660156 L 12.109375 10.660156 L 12.109375 3.597656 C 12.117188 3.140625 12.015625 3.019531 11.785156 3.003906 Z M 11.78125 3 "/>
<path style=" stroke:none;fill-rule:nonzero;fill:#ff6666;fill-opacity:1;" d="M 4.566406 0 C 3.128906 0.015625 2.074219 -0.0351562 1.214844 0.441406 C 0.785156 0.675781 0.445312 1.078125 0.257812 1.582031 C 0.0664062 2.082031 0 2.675781 0 3.429688 L 0 12.570312 C 0 13.324219 0.0664062 13.917969 0.257812 14.417969 C 0.445312 14.921875 0.785156 15.320312 1.214844 15.558594 C 2.074219 16.035156 3.128906 15.984375 4.566406 16 L 11.433594 16 C 12.871094 15.984375 13.925781 16.035156 14.785156 15.558594 C 15.214844 15.320312 15.554688 14.921875 15.742188 14.417969 C 15.933594 13.917969 16 13.324219 16 12.570312 L 16 3.429688 C 16 2.675781 15.933594 2.082031 15.742188 1.582031 C 15.554688 1.078125 15.214844 0.675781 14.785156 0.441406 C 13.925781 -0.0351562 12.871094 0.015625 11.433594 0 Z M 4.578125 1.140625 L 11.429688 1.140625 C 12.867188 1.160156 13.8125 1.210938 14.234375 1.441406 C 14.441406 1.554688 14.5625 1.683594 14.671875 1.980469 C 14.785156 2.277344 14.855469 2.75 14.855469 3.429688 L 14.855469 12.570312 C 14.855469 13.25 14.785156 13.71875 14.671875 14.019531 C 14.5625 14.316406 14.441406 14.441406 14.234375 14.558594 C 13.8125 14.789062 12.867188 14.839844 11.429688 14.855469 L 4.570312 14.855469 C 3.132812 14.839844 2.1875 14.789062 1.765625 14.558594 C 1.558594 14.441406 1.4375 14.316406 1.328125 14.019531 C 1.214844 13.71875 1.144531 13.25 1.144531 12.570312 L 1.144531 3.429688 C 1.144531 2.75 1.214844 2.277344 1.328125 1.980469 C 1.4375 1.683594 1.558594 1.554688 1.765625 1.441406 C 2.1875 1.210938 3.132812 1.160156 4.578125 1.140625 Z M 4.578125 1.140625 "/>
</g>
</svg>
