
<svg xmlns="http://www.w3.org/2000/svg" xmlns:xlink="http://www.w3.org/1999/xlink" width="16px" height="16px" viewBox="0 0 16 16" version="1.1">
<g id="surface1">
<path style=" stroke:none;fill-rule:evenodd;fill:#ff6666;fill-opacity:1;" d="M 5.632812 6.519531 L 5.679688 4.296875 L 2.148438 4.296875 C 1.953125 4.375 1.753906 4.34375 1.582031 4.460938 C 0.714844 5.039062 0.210938 6.195312 0.03125 7.734375 C -0.0546875 8.234375 0.03125 8.589844 0.355469 9.179688 C 0.554688 9.792969 0.757812 10.234375 0.898438 10.582031 C 1.316406 11.570312 1.675781 11.75 2.449219 11.691406 L 6.175781 11.691406 L 6.6875 9.03125 L 6.6875 8 L 4.453125 8 L 4.441406 9.480469 L 2.855469 9.480469 L 2.230469 7.929688 C 2.289062 7.378906 2.449219 6.933594 2.707031 6.519531 Z M 8.097656 6.519531 L 8.097656 4.296875 L 14.851562 4.296875 C 16.074219 4.296875 16.367188 5 15.5 5.867188 L 11.886719 9.480469 L 15.503906 9.480469 L 15.503906 11.703125 L 8.742188 11.703125 C 7.515625 11.703125 7.226562 11 8.09375 10.132812 L 11.707031 6.519531 Z M 8.097656 6.519531 "/>
</g>
</svg>
