
<svg xmlns="http://www.w3.org/2000/svg" xmlns:xlink="http://www.w3.org/1999/xlink" width="16px" height="16px" viewBox="0 0 16 16" version="1.1">
<g id="surface1">
<path style=" stroke:none;fill-rule:nonzero;fill:#ff6666;fill-opacity:1;" d="M 4.152344 0.296875 C 3.992188 0.296875 3.847656 0.417969 3.8125 0.574219 C 3.777344 0.734375 3.867188 0.894531 4.015625 0.960938 C 4.027344 0.964844 5.335938 1.554688 6.855469 3.148438 C 7.539062 3.867188 8.257812 4.8125 7.777344 5.285156 C 7.765625 5.296875 7.707031 5.363281 7.496094 5.574219 C 7.476562 5.59375 7.472656 5.609375 7.453125 5.628906 L 7.445312 5.640625 L 10.0625 8.257812 L 10.308594 8.019531 C 10.3125 8.015625 10.3125 8.003906 10.316406 8 L 10.703125 7.613281 L 11.183594 8.097656 C 11.320312 8.234375 11.289062 8.578125 11.246094 8.660156 C 11.117188 8.917969 11.144531 9.1875 11.3125 9.355469 L 12.496094 10.542969 C 12.683594 10.726562 12.925781 10.820312 13.171875 10.820312 C 13.414062 10.820312 13.648438 10.726562 13.832031 10.542969 L 15.722656 8.660156 C 16.09375 8.292969 16.09375 7.6875 15.722656 7.316406 L 14.535156 6.128906 C 14.363281 5.957031 14.105469 5.921875 13.886719 6.035156 C 13.78125 6.085938 13.417969 6.121094 13.285156 5.992188 L 12.796875 5.5 C 12.910156 5.339844 12.96875 5.148438 12.96875 4.953125 C 12.96875 4.703125 12.867188 4.460938 12.6875 4.28125 L 11.40625 3 C 11.402344 2.992188 11.378906 2.980469 11.363281 2.96875 L 11.097656 2.699219 C 10.539062 2.144531 10.023438 1.617188 9.890625 1.484375 C 8.757812 0.351562 4.621094 0.300781 4.152344 0.296875 Z M 6.964844 6.117188 L 0.277344 12.808594 C -0.09375 13.175781 -0.09375 13.773438 0.277344 14.140625 L 1.558594 15.425781 C 1.742188 15.609375 1.988281 15.703125 2.230469 15.703125 C 2.472656 15.703125 2.710938 15.609375 2.894531 15.425781 L 9.582031 8.746094 Z M 6.964844 6.117188 "/>
</g>
</svg>
