
<svg xmlns="http://www.w3.org/2000/svg" xmlns:xlink="http://www.w3.org/1999/xlink" width="16px" height="16px" viewBox="0 0 16 16" version="1.1">
<g id="surface1">
<path style=" stroke:none;fill-rule:evenodd;fill:#ff6666;fill-opacity:1;" d="M 6.683594 5.464844 L 6.753906 5.402344 L 6.921875 5.027344 L 7.160156 4.847656 L 7.410156 4.8125 L 7.625 4.714844 L 7.792969 4.597656 L 8.199219 4.683594 L 8.382812 4.496094 L 8.695312 4.53125 L 8.785156 4.476562 L 8.957031 4.574219 L 8.820312 4.726562 L 8.773438 4.957031 L 9.53125 5.078125 L 9.601562 5.191406 L 9.699219 5.152344 L 9.652344 4.941406 L 9.785156 4.863281 L 10.210938 4.941406 L 10.285156 4.878906 L 10.832031 5.078125 L 11.046875 5.097656 L 11.035156 4.824219 L 10.953125 4.585938 L 10.601562 4.570312 L 10.191406 4.613281 L 9.773438 4.582031 L 9.644531 4.351562 L 10.121094 4.019531 L 10.476562 4.023438 L 10.890625 3.984375 L 10.921875 3.863281 L 10.671875 3.777344 L 10.609375 3.605469 L 10.269531 3.617188 L 10.011719 3.519531 L 9.8125 3.640625 L 9.945312 3.714844 L 9.941406 3.847656 L 9.804688 4.070312 L 9.546875 4.113281 L 9.449219 4.050781 L 9.371094 3.886719 L 9.09375 3.898438 L 8.929688 3.800781 L 8.769531 3.6875 L 8.695312 3.785156 L 8.851562 3.929688 L 9.089844 4.160156 L 9.269531 4.179688 L 9.410156 4.273438 L 9.171875 4.382812 L 9.109375 4.4375 L 9.011719 4.285156 L 8.847656 4.191406 L 8.625 3.992188 C 8.625 3.992188 8.363281 3.851562 8.382812 3.808594 C 8.398438 3.761719 8.191406 3.949219 8.191406 3.949219 L 7.933594 3.980469 L 7.742188 4.15625 L 7.617188 4.488281 L 7.359375 4.664062 L 7.304688 4.617188 L 7.144531 4.652344 L 7.039062 4.71875 L 6.808594 4.644531 L 6.867188 4.398438 C 6.867188 4.398438 6.890625 4.164062 6.964844 4.085938 C 7 4.039062 7.046875 4.011719 7.101562 4 C 7.101562 4 7.351562 3.984375 7.464844 3.894531 L 7.40625 3.851562 L 7.433594 3.683594 L 7.332031 3.730469 L 7.316406 3.613281 L 7.460938 3.527344 L 7.589844 3.550781 L 7.613281 3.453125 L 7.738281 3.34375 C 7.738281 3.34375 7.8125 3.429688 7.835938 3.398438 C 7.855469 3.367188 7.898438 3.386719 7.898438 3.386719 L 7.988281 3.332031 L 8.074219 3.316406 L 8.078125 2.925781 L 8.375 2.9375 L 8.214844 2.667969 L 8.078125 2.746094 L 7.898438 2.585938 L 7.96875 2.304688 L 8.695312 1.941406 C 8.882812 2.015625 9.265625 1.972656 9.578125 1.925781 C 9.582031 1.925781 9.585938 1.925781 9.589844 1.925781 C 9.601562 1.929688 9.617188 1.933594 9.628906 1.9375 C 9.832031 1.992188 10.027344 2.054688 10.214844 2.132812 C 10.421875 2.203125 10.621094 2.292969 10.816406 2.386719 C 10.980469 2.46875 11.136719 2.558594 11.289062 2.660156 C 11.4375 2.742188 11.578125 2.839844 11.710938 2.945312 C 11.855469 3.042969 11.988281 3.148438 12.121094 3.261719 C 12.34375 3.457031 12.550781 3.664062 12.746094 3.886719 C 12.855469 4.015625 12.957031 4.144531 13.050781 4.28125 C 13.164062 4.421875 13.265625 4.574219 13.355469 4.730469 C 13.679688 5.25 13.925781 5.820312 14.082031 6.429688 L 13.894531 6.011719 L 13.734375 6.035156 L 13.53125 5.761719 L 13.296875 5.503906 L 12.933594 5.386719 L 12.691406 5.320312 L 12.480469 5.273438 L 12.324219 5.097656 L 12.101562 4.878906 L 12.019531 5.03125 C 12.042969 5.117188 12.074219 5.207031 12.105469 5.292969 C 12.167969 5.449219 12.226562 5.355469 12.226562 5.355469 L 12.386719 5.46875 L 12.511719 5.660156 L 12.578125 5.507812 L 12.628906 5.480469 L 12.90625 5.617188 L 13.097656 5.722656 L 13.160156 5.9375 L 12.945312 6.921875 L 12.78125 7.023438 L 12.722656 7.175781 L 12.335938 6.988281 L 12.085938 6.726562 L 11.9375 6.488281 L 11.761719 6.117188 L 11.5625 5.949219 L 11.378906 5.4375 L 11.199219 5.492188 L 11.410156 5.964844 L 11.535156 6.1875 L 11.574219 6.332031 L 11.757812 6.652344 L 11.929688 6.820312 C 11.929688 6.820312 12.097656 7.011719 12.230469 7.027344 C 12.363281 7.039062 12.332031 7.15625 12.332031 7.15625 L 12.5 7.433594 L 12.480469 7.367188 L 12.761719 7.425781 L 12.785156 7.296875 L 12.960938 7.269531 L 12.957031 7.445312 L 12.941406 7.890625 L 12.695312 8.480469 L 12.527344 8.722656 L 12.335938 8.855469 L 12.296875 9.3125 C 12.324219 9.429688 12.355469 9.546875 12.390625 9.660156 C 12.421875 9.742188 12.445312 9.828125 12.460938 9.917969 L 12.191406 10.757812 L 12.046875 10.847656 L 11.949219 11.117188 L 11.722656 11.300781 L 11.683594 11.496094 L 11.828125 11.878906 L 11.628906 12.035156 L 11.382812 12.5 L 11.183594 12.835938 L 10.742188 12.925781 L 10.484375 13.082031 L 10.355469 13.277344 L 10.164062 13.320312 L 10.136719 13.144531 L 10.035156 12.90625 L 10.085938 12.566406 L 9.945312 12.140625 L 9.648438 11.738281 L 9.484375 10.683594 C 9.484375 10.683594 9.605469 10.433594 9.625 10.390625 C 9.621094 10.371094 9.621094 10.359375 9.621094 10.34375 C 9.164062 10.671875 8.601562 10.855469 8 10.855469 C 6.421875 10.855469 5.144531 9.578125 5.144531 8 C 5.144531 6.898438 5.769531 5.941406 6.683594 5.464844 Z M 2.671875 4.691406 C 2.5625 4.84375 2.46875 5.007812 2.386719 5.179688 C 1.953125 6.027344 1.714844 6.984375 1.714844 8 C 1.714844 8.246094 1.730469 8.492188 1.753906 8.734375 C 1.773438 8.871094 1.792969 9.007812 1.835938 9.136719 C 1.871094 9.4375 1.945312 9.722656 2.039062 9.996094 C 2.082031 10.125 2.128906 10.246094 2.195312 10.359375 C 2.285156 10.636719 2.410156 10.894531 2.558594 11.136719 C 2.628906 11.269531 2.710938 11.398438 2.808594 11.511719 C 2.945312 11.738281 3.109375 11.949219 3.289062 12.148438 C 3.464844 12.351562 3.65625 12.542969 3.859375 12.722656 L 3.90625 12.382812 L 4.113281 12.335938 L 4.140625 12.1875 L 4.136719 10.890625 L 4.378906 10.667969 L 4.417969 10.464844 L 4.332031 10.335938 L 4.007812 10.085938 L 3.695312 10.070312 L 3.511719 9.6875 L 3.078125 9.6875 L 2.851562 9.179688 L 2.847656 8.972656 L 2.707031 8.878906 L 2.445312 8.878906 L 2.292969 8.683594 L 2.140625 8.277344 L 1.765625 8.085938 L 1.71875 8.148438 C 1.722656 8.347656 1.738281 8.539062 1.753906 8.734375 C 1.777344 8.867188 1.796875 9.007812 1.835938 9.136719 C 1.878906 9.429688 1.949219 9.71875 2.039062 9.996094 C 2.085938 10.121094 2.132812 10.242188 2.195312 10.359375 C 2.289062 10.632812 2.414062 10.890625 2.558594 11.136719 C 2.632812 11.265625 2.714844 11.394531 2.671875 4.691406 Z M 7.902344 1.71875 C 7.585938 1.722656 7.269531 1.75 6.957031 1.804688 L 7.835938 1.757812 Z M 6.957031 1.804688 C 6.320312 1.910156 5.703125 2.113281 5.128906 2.410156 L 5.128906 2.566406 L 5.246094 2.859375 L 5.453125 2.816406 L 5.398438 2.609375 L 5.441406 2.449219 L 6.199219 2.390625 L 6.429688 2.382812 L 6.890625 2.042969 Z M 7.324219 2.71875 L 7.195312 2.746094 L 7.351562 3.011719 L 7.289062 3.308594 L 7.304688 3.488281 L 7.738281 3.195312 L 7.589844 3.027344 L 7.464844 2.914062 Z M 4.445312 2.824219 C 4.339844 2.898438 4.234375 2.972656 4.132812 3.050781 C 3.976562 3.175781 3.824219 3.308594 3.6875 3.453125 C 3.550781 3.566406 3.425781 3.695312 3.308594 3.832031 C 3.183594 3.96875 3.066406 4.113281 2.960938 4.265625 C 2.851562 4.398438 2.757812 4.539062 2.671875 4.691406 C 2.566406 4.847656 2.472656 5.011719 2.386719 5.179688 C 2.308594 5.34375 2.230469 5.507812 2.164062 5.679688 L 2.226562 5.621094 L 2.566406 5.496094 L 2.59375 5.371094 L 2.582031 5.253906 L 2.59375 5.136719 L 2.636719 4.980469 L 2.714844 4.910156 L 2.789062 4.863281 L 2.828125 4.792969 C 2.878906 4.703125 2.941406 4.621094 3.007812 4.542969 L 3.589844 4.121094 L 3.644531 3.851562 C 3.644531 3.851562 3.925781 3.679688 3.957031 3.742188 C 3.984375 3.800781 4.070312 3.761719 4.082031 3.894531 C 4.09375 4.023438 4.191406 3.550781 4.191406 3.550781 L 4.1875 3.105469 L 4.445312 2.921875 Z M 13.054688 10.167969 L 12.902344 10.570312 L 12.613281 10.773438 L 12.515625 11.011719 L 12.535156 11.207031 L 12.445312 11.492188 L 12.449219 11.488281 C 12.46875 11.53125 12.335938 11.617188 12.316406 11.628906 C 12.328125 11.632812 12.339844 11.640625 12.375 11.671875 L 12.335938 11.875 L 12.421875 12.054688 L 12.757812 11.796875 L 12.914062 11.0625 L 13 10.671875 L 13.117188 10.570312 L 13.191406 10.296875 Z M 12.316406 11.628906 C 12.308594 11.621094 12.308594 11.621094 12.300781 11.609375 L 12.3125 11.632812 C 12.3125 11.632812 12.316406 11.628906 12.316406 11.628906 Z M 2.960938 4.265625 C 3.0625 4.109375 3.179688 3.964844 3.308594 3.832031 C 3.421875 3.691406 3.546875 3.5625 3.6875 3.453125 C 3.820312 3.300781 3.972656 3.171875 4.132812 3.050781 C 5.199219 2.210938 6.539062 1.714844 8 1.714844 C 8.546875 1.714844 9.078125 1.785156 9.578125 1.925781 C 9.597656 1.921875 9.617188 1.925781 9.628906 1.9375 C 9.835938 1.984375 10.03125 2.046875 10.214844 2.132812 C 10.425781 2.195312 10.625 2.285156 10.816406 2.386719 C 10.984375 2.464844 11.140625 2.554688 11.289062 2.660156 C 11.441406 2.738281 11.585938 2.835938 11.710938 2.945312 C 11.859375 3.035156 11.992188 3.144531 12.121094 3.261719 C 12.347656 3.453125 12.558594 3.660156 12.746094 3.886719 C 12.859375 4.011719 12.964844 4.140625 13.050781 4.28125 C 13.167969 4.421875 13.269531 4.570312 13.355469 4.730469 C 13.949219 5.679688 14.285156 6.800781 14.285156 8 C 14.285156 11.46875 11.46875 14.285156 8 14.285156 C 6.121094 14.285156 4.4375 13.460938 3.289062 12.148438 C 3.109375 11.953125 2.945312 11.742188 2.960938 4.265625 Z M 7.9375 0 L 7.9375 0.00390625 C 3.535156 0.0351562 0 3.589844 0 8 C 0 12.433594 3.566406 16 8 16 C 12.273438 16 15.738281 12.683594 15.984375 8.476562 L 16 8.460938 L 16 1.601562 C 16 0.714844 15.285156 0 14.398438 0 Z M 7.9375 0 "/>
</g>
</svg>
