
<svg xmlns="http://www.w3.org/2000/svg" xmlns:xlink="http://www.w3.org/1999/xlink" width="16px" height="16px" viewBox="0 0 16 16" version="1.1">
<g id="surface1">
<path style=" stroke:none;fill-rule:nonzero;fill:#ff6666;fill-opacity:1;" d="M 1.785156 15.238281 C 1.832031 14.773438 2.109375 13.769531 2.796875 11.570312 C 3.960938 7.847656 4.691406 3.617188 4.382812 2.386719 C 4.304688 2.082031 4.296875 1.925781 4.351562 1.851562 C 4.527344 1.632812 5.234375 1.394531 5.816406 1.359375 C 7.019531 1.332031 6.960938 1.777344 6.921875 2.746094 C 6.882812 3.613281 6.65625 5.246094 6.441406 6.339844 C 6.375 6.679688 6.339844 7.007812 6.363281 7.070312 C 6.398438 7.160156 6.722656 7.179688 8.257812 7.179688 C 9.273438 7.179688 10.148438 7.152344 10.199219 7.117188 C 10.355469 7.015625 10.445312 6.671875 11.105469 3.679688 C 11.457031 2.078125 11.808594 0.660156 11.882812 0.53125 C 12.050781 0.234375 12.464844 0 12.820312 0 C 13.183594 0 13.824219 0.203125 14.046875 0.386719 L 14.222656 0.535156 L 14.054688 1.035156 C 13.664062 2.1875 12.589844 7.3125 12.167969 10.023438 C 12.058594 10.738281 11.898438 11.667969 11.820312 12.089844 C 11.644531 13 11.640625 13.347656 11.796875 13.769531 C 12.046875 14.4375 12.035156 14.503906 11.628906 14.6875 C 11.425781 14.78125 10.964844 14.90625 10.601562 14.972656 C 9.378906 15.183594 9.003906 14.910156 9.003906 13.804688 C 9.003906 13.058594 9.070312 12.660156 9.542969 10.703125 C 9.75 9.84375 9.917969 9.070312 9.917969 8.984375 C 9.917969 8.839844 9.882812 8.832031 9.390625 8.882812 C 9.097656 8.910156 8.210938 8.941406 7.414062 8.945312 C 6.617188 8.953125 5.941406 8.980469 5.914062 9.011719 C 5.886719 9.039062 5.726562 9.660156 5.5625 10.390625 C 5.398438 11.121094 5.105469 12.320312 4.910156 13.058594 C 4.710938 13.796875 4.535156 14.621094 4.519531 14.890625 C 4.496094 15.210938 4.441406 15.421875 4.363281 15.496094 C 4.175781 15.664062 3.261719 15.933594 2.683594 15.988281 C 1.980469 16.0625 1.730469 15.753906 1.785156 15.238281 Z M 1.785156 15.238281 "/>
</g>
</svg>
