
<svg xmlns="http://www.w3.org/2000/svg" xmlns:xlink="http://www.w3.org/1999/xlink" width="16px" height="16px" viewBox="0 0 16 16" version="1.1">
<g id="surface1">
<path style=" stroke:none;fill-rule:evenodd;fill:#ff6666;fill-opacity:1;" d="M 14.132812 1.695312 L 13.707031 4.183594 L 14.84375 4.183594 C 15.125 4.183594 15.328125 4.191406 15.453125 4.214844 C 15.582031 4.238281 15.703125 4.3125 15.820312 4.445312 C 15.941406 4.578125 16 4.773438 16 5.027344 C 16 5.285156 15.972656 5.5625 15.921875 5.863281 C 15.871094 6.164062 15.753906 6.425781 15.578125 6.648438 C 15.398438 6.867188 15.226562 6.992188 15.066406 7.019531 C 14.902344 7.050781 14.65625 7.066406 14.332031 7.066406 L 13.21875 7.066406 L 12.816406 9.484375 L 13.953125 9.484375 C 14.234375 9.484375 14.4375 9.496094 14.566406 9.519531 C 14.691406 9.539062 14.8125 9.617188 14.933594 9.75 C 15.050781 9.882812 15.109375 10.078125 15.109375 10.332031 C 15.109375 10.589844 15.085938 10.84375 15.042969 11.09375 C 15 11.339844 14.929688 11.570312 14.832031 11.773438 C 14.734375 11.980469 14.605469 12.128906 14.441406 12.214844 C 14.203125 12.332031 13.871094 12.390625 13.441406 12.390625 L 12.328125 12.390625 C 12.179688 13.300781 12.089844 13.863281 12.0625 14.085938 L 12.015625 14.328125 C 11.957031 14.648438 11.910156 14.878906 11.871094 15.011719 C 11.835938 15.140625 11.757812 15.304688 11.636719 15.492188 C 11.402344 15.832031 10.851562 16 9.992188 16 C 9.132812 16 8.699219 15.730469 8.699219 15.1875 C 8.699219 15.171875 8.761719 14.789062 8.878906 14.039062 L 9.144531 12.390625 L 5.828125 12.390625 C 5.683594 13.300781 5.59375 13.863281 5.5625 14.085938 L 5.519531 14.328125 C 5.460938 14.648438 5.410156 14.878906 5.375 15.011719 C 5.335938 15.140625 5.257812 15.304688 5.140625 15.492188 C 4.902344 15.832031 4.355469 16 3.492188 16 C 2.632812 16 2.203125 15.730469 2.203125 15.1875 C 2.203125 15.171875 2.261719 14.789062 2.382812 14.039062 L 2.648438 12.390625 L 1.179688 12.390625 C 0.554688 12.390625 0.1875 12.257812 0.0664062 11.992188 C 0.0234375 11.875 0 11.703125 0 11.476562 C 0 11.25 0.0273438 10.984375 0.078125 10.683594 C 0.128906 10.382812 0.25 10.125 0.433594 9.902344 C 0.621094 9.683594 0.792969 9.558594 0.957031 9.53125 C 1.121094 9.5 1.363281 9.484375 1.691406 9.484375 L 3.136719 9.484375 L 3.539062 7.066406 L 2.070312 7.066406 C 1.433594 7.066406 1.0625 6.941406 0.957031 6.691406 C 0.914062 6.558594 0.890625 6.382812 0.890625 6.160156 C 0.890625 5.941406 0.914062 5.683594 0.96875 5.382812 C 1.019531 5.082031 1.136719 4.820312 1.324219 4.601562 C 1.507812 4.378906 1.683594 4.253906 1.847656 4.226562 C 2.011719 4.195312 2.253906 4.183594 2.582031 4.183594 L 4.027344 4.183594 L 4.40625 1.914062 C 4.421875 1.828125 4.4375 1.683594 4.460938 1.484375 C 4.484375 1.289062 4.507812 1.148438 4.527344 1.066406 C 4.550781 0.988281 4.585938 0.871094 4.628906 0.726562 C 4.671875 0.578125 4.734375 0.476562 4.816406 0.417969 C 4.898438 0.359375 5.007812 0.285156 5.140625 0.199219 C 5.347656 0.0664062 5.726562 0 6.273438 0 C 6.824219 0 7.207031 0.078125 7.421875 0.230469 C 7.636719 0.386719 7.742188 0.617188 7.742188 0.925781 C 7.742188 0.96875 7.707031 1.226562 7.632812 1.695312 L 7.210938 4.183594 L 10.527344 4.183594 L 10.902344 1.914062 C 10.917969 1.828125 10.9375 1.683594 10.960938 1.484375 C 10.980469 1.289062 11.003906 1.148438 11.027344 1.066406 C 11.046875 0.988281 11.082031 0.871094 11.128906 0.726562 C 11.171875 0.578125 11.234375 0.476562 11.316406 0.417969 C 11.398438 0.359375 11.503906 0.285156 11.636719 0.199219 C 11.847656 0.0664062 12.222656 0 12.773438 0 C 13.324219 0 13.703125 0.078125 13.917969 0.230469 C 14.132812 0.386719 14.242188 0.617188 14.242188 0.925781 C 14.242188 0.96875 14.203125 1.226562 14.132812 1.695312 Z M 6.320312 9.484375 L 9.636719 9.484375 L 10.035156 7.066406 L 6.742188 7.066406 Z M 6.320312 9.484375 "/>
</g>
</svg>
