
<svg xmlns="http://www.w3.org/2000/svg" xmlns:xlink="http://www.w3.org/1999/xlink" width="16px" height="16px" viewBox="0 0 16 16" version="1.1">
<g id="surface1">
<path style=" stroke:none;fill-rule:nonzero;fill:#ff6666;fill-opacity:1;" d="M 14.476562 0 C 13.695312 0 13.066406 0.589844 12.976562 1.34375 C 11.988281 1.535156 11.328125 2.253906 10.882812 3.023438 C 9.980469 2.558594 9.003906 2.285156 8 2.285156 C 6.996094 2.285156 6.019531 2.558594 5.117188 3.023438 C 4.894531 2.695312 4.574219 2.441406 4.203125 2.296875 C 3.847656 2.160156 3.449219 2.128906 3.023438 2.09375 C 2.929688 1.34375 2.300781 0.761719 1.523438 0.761719 C 0.683594 0.761719 0 1.445312 0 2.285156 C 0 3.125 0.683594 3.808594 1.523438 3.808594 C 2.148438 3.808594 2.710938 3.425781 2.941406 2.84375 C 3.351562 2.878906 3.691406 2.921875 3.929688 3.011719 C 4.144531 3.09375 4.308594 3.210938 4.453125 3.417969 C 2.304688 4.835938 0.761719 7.410156 0.761719 10.164062 C 0.761719 13.761719 3.535156 16 8 16 C 12.464844 16 15.238281 13.761719 15.238281 10.164062 C 15.238281 7.40625 13.691406 4.820312 11.535156 3.40625 C 11.898438 2.761719 12.375 2.242188 13.070312 2.09375 C 13.300781 2.671875 13.855469 3.046875 14.476562 3.046875 C 15.316406 3.046875 16 2.363281 16 1.523438 C 16 0.683594 15.316406 0 14.476562 0 Z M 8 6.09375 C 9.472656 6.09375 10.667969 7.289062 10.667969 8.761719 C 10.667969 10.234375 9.472656 11.429688 8 11.429688 C 6.527344 11.429688 5.332031 10.234375 5.332031 8.761719 C 5.332031 7.289062 6.527344 6.09375 8 6.09375 Z M 8 7.617188 C 7.351562 7.617188 6.855469 8.113281 6.855469 8.761719 C 6.855469 9.410156 7.351562 9.90625 8 9.90625 C 8.648438 9.90625 9.144531 9.410156 9.144531 8.761719 L 9.144531 8.691406 C 9.066406 8.730469 8.992188 8.761719 8.917969 8.761719 C 8.648438 8.761719 8.453125 8.574219 8.453125 8.308594 C 8.453125 8.117188 8.574219 7.957031 8.726562 7.882812 C 8.535156 7.730469 8.265625 7.617188 8 7.617188 Z M 10.785156 12.644531 C 10.9375 12.628906 11.085938 12.710938 11.15625 12.84375 C 11.253906 13.03125 11.1875 13.269531 11 13.367188 C 10.945312 13.398438 9.601562 14.09375 8 14.09375 C 6.398438 14.09375 5.054688 13.398438 5 13.367188 C 4.8125 13.269531 4.746094 13.03125 4.84375 12.84375 C 4.890625 12.757812 4.972656 12.691406 5.070312 12.660156 C 5.164062 12.632812 5.269531 12.644531 5.355469 12.691406 C 5.371094 12.699219 6.59375 13.332031 8 13.332031 C 9.414062 13.332031 10.632812 12.695312 10.644531 12.691406 C 10.6875 12.664062 10.734375 12.648438 10.785156 12.644531 Z M 10.785156 12.644531 "/>
</g>
</svg>
