
<svg xmlns="http://www.w3.org/2000/svg" xmlns:xlink="http://www.w3.org/1999/xlink" width="16px" height="16px" viewBox="0 0 16 16" version="1.1">
<g id="surface1">
<path style=" stroke:none;fill-rule:nonzero;fill:#ff6666;fill-opacity:1;" d="M 8 0 C 3.574219 0 0 3.574219 0 8 C 0 12.425781 3.574219 16 8 16 C 12.425781 16 16 12.425781 16 8 C 16 3.574219 12.425781 0 8 0 Z M 8 1 C 11.871094 1 15 4.128906 15 8 C 15 11.871094 11.871094 15 8 15 C 4.128906 15 1 11.871094 1 8 C 1 4.128906 4.128906 1 8 1 Z M 8.0625 3 C 6.8125 2.976562 5.5 3.46875 5.09375 4.4375 C 4.859375 4.976562 5.085938 5.9375 5.875 5.9375 C 6.335938 5.9375 6.527344 5.621094 6.5625 5.34375 C 6.589844 5.132812 6.519531 4.957031 6.46875 4.78125 C 6.410156 4.582031 6.640625 4.1875 6.90625 4.03125 C 7.128906 3.898438 7.371094 3.851562 7.40625 3.84375 C 8.199219 3.648438 8.980469 4.097656 9.3125 4.625 C 9.644531 5.152344 9.273438 5.941406 8.75 6.71875 C 8.226562 7.496094 7.683594 8.375 7.6875 9.3125 C 7.6875 9.667969 7.632812 9.792969 7.65625 9.9375 C 7.675781 10.054688 8.058594 10.054688 8.34375 10 C 8.320312 9.09375 8.507812 8.1875 9.34375 7.5625 C 10.226562 6.855469 11.089844 5.976562 11 4.9375 C 10.980469 3.933594 9.820312 3.144531 8.59375 3.03125 C 8.417969 3.011719 8.242188 3 8.0625 3 Z M 7.71875 11.21875 C 7.117188 11.367188 6.757812 12.132812 7.15625 12.625 C 7.5625 13.246094 8.710938 13.078125 8.90625 12.375 C 9.109375 11.828125 8.597656 11.210938 7.96875 11.21875 C 7.875 11.214844 7.804688 11.199219 7.71875 11.21875 Z M 7.71875 11.21875 "/>
</g>
</svg>
