
<svg xmlns="http://www.w3.org/2000/svg" xmlns:xlink="http://www.w3.org/1999/xlink" width="16px" height="16px" viewBox="0 0 16 16" version="1.1">
<g id="surface1">
<path style=" stroke:none;fill-rule:nonzero;fill:#ff6666;fill-opacity:1;" d="M 0 3.601562 L 0 11.601562 L 1.601562 11.601562 L 1.601562 7.199219 L 2.398438 7.199219 L 2.398438 10 L 4 10 L 4 3.601562 L 2.398438 3.601562 L 2.398438 5.601562 L 1.601562 5.601562 L 1.601562 3.601562 Z M 8 3.601562 C 7.152344 3.601562 6.335938 3.9375 5.738281 4.535156 C 5.136719 5.136719 4.800781 5.949219 4.800781 6.800781 C 4.800781 7.648438 5.136719 8.464844 5.738281 9.0625 C 6.335938 9.664062 7.152344 10 8 10 C 8.847656 10 9.664062 9.664062 10.261719 9.0625 C 10.863281 8.464844 11.199219 7.648438 11.199219 6.800781 C 11.199219 5.949219 10.863281 5.136719 10.261719 4.535156 C 9.664062 3.9375 8.847656 3.601562 8 3.601562 Z M 12 3.601562 L 12 10 L 13.601562 10 L 13.601562 6.5625 L 14.398438 7.949219 L 14.398438 11.601562 L 16 11.601562 L 16 3.601562 L 14.398438 3.601562 L 14.398438 4.953125 L 13.601562 3.601562 Z M 8 5.199219 C 8.425781 5.199219 8.832031 5.367188 9.132812 5.667969 C 9.429688 5.96875 9.601562 6.375 9.601562 6.800781 C 9.601562 7.222656 9.429688 7.632812 9.132812 7.929688 C 8.832031 8.230469 8.425781 8.398438 8 8.398438 C 7.574219 8.398438 7.167969 8.230469 6.867188 7.929688 C 6.570312 7.632812 6.398438 7.222656 6.398438 6.800781 C 6.398438 6.375 6.570312 5.96875 6.867188 5.667969 C 7.167969 5.367188 7.574219 5.199219 8 5.199219 Z M 4.800781 10.800781 L 4.800781 12.398438 L 11.199219 12.398438 L 11.199219 10.800781 Z M 4.800781 10.800781 "/>
</g>
</svg>
