
<svg xmlns="http://www.w3.org/2000/svg" xmlns:xlink="http://www.w3.org/1999/xlink" width="16px" height="16px" viewBox="0 0 16 16" version="1.1">
<g id="surface1">
<path style=" stroke:none;fill-rule:evenodd;fill:#ff6666;fill-opacity:1;" d="M 8 1.777344 C 11.433594 1.777344 14.222656 4.476562 14.222656 7.613281 C 14.21875 8.960938 13.613281 10.265625 12.546875 11.363281 C 12.210938 11.703125 12.03125 12.164062 12.039062 12.640625 C 12.050781 13.164062 12.253906 13.644531 12.453125 14.097656 C 11.882812 13.964844 11.328125 13.730469 10.785156 13.375 C 10.386719 13.113281 9.894531 13.019531 9.425781 13.125 C 8.859375 13.25 8.386719 13.332031 8 13.332031 C 4.535156 13.332031 1.777344 10.75 1.777344 7.613281 C 1.777344 4.476562 4.566406 1.777344 8 1.777344 Z M 8 0 C 3.632812 0 0 3.445312 0 7.613281 C 0 11.78125 3.632812 15.109375 8 15.109375 L 8.003906 15.109375 C 8.613281 15.109375 9.214844 14.992188 9.8125 14.859375 C 11.039062 15.667969 12.539062 16.222656 14.242188 15.914062 C 15.023438 15.773438 15.335938 15 14.789062 14.421875 C 14.207031 13.808594 13.835938 13.425781 13.816406 12.601562 C 15.148438 11.238281 15.996094 9.496094 16 7.613281 C 16 3.445312 12.367188 0 8 0 Z M 10.203125 9.007812 C 10.402344 8.882812 10.648438 8.847656 10.875 8.898438 C 11.105469 8.953125 11.300781 9.101562 11.425781 9.300781 C 11.550781 9.5 11.585938 9.742188 11.53125 9.972656 C 11.472656 10.203125 11.332031 10.398438 11.128906 10.523438 C 10.816406 10.714844 10.492188 10.882812 10.152344 11.023438 C 9.839844 11.160156 9.515625 11.277344 9.179688 11.371094 C 8.800781 11.476562 8.398438 11.535156 8 11.539062 C 7.597656 11.535156 7.203125 11.476562 6.816406 11.371094 C 6.488281 11.277344 6.164062 11.160156 5.847656 11.023438 C 5.511719 10.882812 5.183594 10.714844 4.871094 10.523438 C 4.671875 10.398438 4.523438 10.203125 4.46875 9.972656 C 4.410156 9.742188 4.453125 9.5 4.574219 9.300781 C 4.695312 9.101562 4.894531 8.953125 5.121094 8.898438 C 5.355469 8.847656 5.59375 8.882812 5.800781 9.007812 C 6.039062 9.152344 6.292969 9.28125 6.554688 9.394531 C 6.792969 9.5 7.042969 9.589844 7.300781 9.660156 C 7.527344 9.722656 7.761719 9.757812 8 9.761719 C 8.238281 9.757812 8.472656 9.722656 8.699219 9.660156 C 8.953125 9.589844 9.207031 9.5 9.449219 9.394531 C 9.710938 9.28125 9.964844 9.152344 10.203125 9.007812 Z M 10.203125 9.007812 "/>
</g>
</svg>
