
<svg xmlns="http://www.w3.org/2000/svg" xmlns:xlink="http://www.w3.org/1999/xlink" width="16px" height="16px" viewBox="0 0 16 16" version="1.1">
<g id="surface1">
<path style=" stroke:none;fill-rule:nonzero;fill:#ff6666;fill-opacity:1;" d="M 8.15625 1.480469 C 6.574219 1.644531 5.445312 1.738281 3.828125 1.753906 C 2.574219 1.746094 1.417969 1.589844 0.175781 1.5 C -0.121094 1.5 0 1.609375 0.238281 1.867188 C 0.433594 2.074219 0.769531 2.121094 0.769531 2.230469 C 0.769531 2.34375 0.828125 2.933594 0.984375 3.09375 C 1.164062 3.289062 1.441406 3.363281 1.882812 3.296875 C 2.160156 3.308594 2.164062 3.453125 2.164062 3.707031 C 2.164062 3.882812 2.261719 4.109375 2.382812 4.3125 C 2.671875 4.8125 3.105469 5.171875 3.585938 5.199219 C 3.847656 5.210938 4.203125 5.152344 4.476562 5.015625 C 4.742188 4.882812 4.988281 4.773438 5.019531 4.773438 C 5.054688 4.773438 5.113281 4.984375 5.152344 5.242188 C 5.308594 6.257812 5.910156 6.550781 6.804688 6.773438 C 7.214844 6.851562 7.664062 6.867188 7.984375 6.671875 C 7.867188 7.304688 7.75 7.976562 7.5625 9.09375 C 7.40625 10.027344 7.253906 11.414062 7.222656 12.046875 C 7.171875 13.042969 7.191406 13.253906 7.378906 13.601562 C 7.652344 14.117188 8.339844 14.519531 8.929688 14.519531 L 9.386719 14.523438 L 9.332031 13.671875 C 9.238281 12.171875 9.90625 10.453125 10.945312 9.726562 C 11.878906 9.074219 12.078125 9.519531 11.734375 11.480469 C 11.425781 13.234375 11.464844 13.765625 11.945312 14.210938 C 12.355469 14.59375 12.953125 14.632812 13.835938 14.335938 C 14.746094 14.027344 16.160156 12.742188 15.984375 12.273438 C 15.894531 12.027344 15.785156 12.113281 15.238281 12.550781 C 14.601562 13.066406 14.164062 13.050781 13.914062 12.765625 C 13.734375 12.554688 13.738281 12.429688 14.023438 11.238281 C 14.234375 10.375 14.421875 9.75 14.425781 9.066406 C 14.429688 7.976562 14.285156 7.527344 13.253906 7.371094 C 12.464844 7.261719 11.292969 7.484375 10.351562 8.15625 C 10.0625 8.363281 9.804688 8.503906 9.773438 8.472656 C 9.742188 8.441406 9.898438 7.402344 10.113281 6.261719 C 10.332031 5.117188 10.507812 4.042969 10.507812 3.871094 C 10.507812 3.554688 10.070312 3.050781 8.785156 1.890625 C 8.578125 1.703125 8.445312 1.578125 8.28125 1.507812 C 8.261719 1.484375 8.242188 1.476562 8.230469 1.472656 C 8.210938 1.472656 8.195312 1.476562 8.179688 1.476562 C 8.171875 1.472656 8.164062 1.472656 8.15625 1.46875 C 8.15625 1.46875 8.15625 1.46875 8.15625 1.480469 Z M 8.15625 1.480469 "/>
</g>
</svg>
