
<svg xmlns="http://www.w3.org/2000/svg" xmlns:xlink="http://www.w3.org/1999/xlink" width="16px" height="16px" viewBox="0 0 16 16" version="1.1">
<g id="surface1">
<path style=" stroke:none;fill-rule:evenodd;fill:#ff6666;fill-opacity:1;" d="M 7.382812 0 L 8.691406 0 C 8.933594 0 9.128906 0.253906 9.128906 0.570312 L 9.128906 7.429688 C 9.128906 7.746094 8.933594 8 8.691406 8 L 7.382812 8 C 7.140625 8 6.945312 7.746094 6.945312 7.429688 L 6.945312 0.570312 C 6.945312 0.253906 7.140625 0 7.382812 0 Z M 2.398438 5.054688 C 3.246094 3.878906 4.441406 3 5.816406 2.542969 L 5.816406 4.898438 C 5.050781 5.296875 4.410156 5.898438 3.960938 6.640625 C 3.511719 7.378906 3.273438 8.226562 3.273438 9.089844 C 3.273438 10.34375 3.769531 11.546875 4.65625 12.433594 C 5.542969 13.320312 6.746094 13.816406 8 13.816406 C 9.253906 13.816406 10.457031 13.320312 11.34375 12.433594 C 12.230469 11.546875 12.726562 10.34375 12.726562 9.089844 C 12.726562 8.226562 12.488281 7.378906 12.039062 6.640625 C 11.589844 5.902344 10.949219 5.300781 10.183594 4.902344 L 10.183594 2.542969 C 11.558594 3.003906 12.753906 3.878906 13.601562 5.054688 C 14.449219 6.230469 14.90625 7.640625 14.910156 9.089844 C 14.910156 10.921875 14.179688 12.679688 12.886719 13.976562 C 11.589844 15.273438 9.832031 16 8 16 C 6.167969 16 4.410156 15.273438 3.113281 13.976562 C 1.820312 12.679688 1.089844 10.921875 1.089844 9.089844 C 1.09375 7.640625 1.550781 6.230469 2.398438 5.054688 Z M 2.398438 5.054688 "/>
</g>
</svg>
