
<svg xmlns="http://www.w3.org/2000/svg" xmlns:xlink="http://www.w3.org/1999/xlink" width="16px" height="16px" viewBox="0 0 16 16" version="1.1">
<g id="surface1">
<path style=" stroke:none;fill-rule:nonzero;fill:#ff6666;fill-opacity:1;" d="M 8 0.507812 L 0 8.507812 L 0.71875 9.230469 L 1.890625 8.0625 L 1.890625 15.488281 L 11.058594 15.488281 L 11.058594 10.914062 C 11.058594 10.65625 11.03125 10.421875 10.984375 10.207031 C 10.933594 9.996094 10.851562 9.8125 10.730469 9.664062 C 10.613281 9.507812 10.453125 9.386719 10.253906 9.304688 C 10.058594 9.21875 9.804688 9.175781 9.507812 9.175781 C 9.171875 9.175781 8.875 9.195312 8.617188 9.242188 C 8.410156 9.273438 8.203125 9.316406 8 9.367188 L 8 14.46875 L 2.90625 14.46875 L 2.90625 7.046875 L 8 1.949219 L 13.09375 7.046875 L 13.09375 15.488281 L 14.109375 15.488281 L 14.109375 8.0625 L 15.28125 9.230469 L 16 8.507812 Z M 12.074219 3.265625 L 14.109375 5.304688 L 14.109375 3.265625 Z M 12.074219 3.265625 "/>
</g>
</svg>
