
<svg xmlns="http://www.w3.org/2000/svg" xmlns:xlink="http://www.w3.org/1999/xlink" width="16px" height="16px" viewBox="0 0 16 16" version="1.1">
<g id="surface1">
<path style=" stroke:none;fill-rule:nonzero;fill:#ff6666;fill-opacity:1;" d="M 1.410156 5.601562 L 1.410156 7.578125 L 0 7.578125 C 0 7.703125 0.00390625 8.269531 0 8.421875 L 1.410156 8.421875 L 1.410156 10.398438 L 2.257812 10.398438 L 2.257812 5.601562 Z M 5.21875 5.601562 C 3.894531 5.601562 2.820312 6.675781 2.820312 8 C 2.820312 9.324219 3.894531 10.398438 5.21875 10.398438 C 6.539062 10.398438 7.613281 9.324219 7.613281 8 C 7.613281 6.675781 6.539062 5.601562 5.21875 5.601562 Z M 10.574219 5.601562 C 9.25 5.601562 8.179688 6.675781 8.179688 8 C 8.179688 9.324219 9.25 10.398438 10.574219 10.398438 C 11.898438 10.398438 12.972656 9.324219 12.972656 8 C 12.972656 6.675781 11.898438 5.601562 10.574219 5.601562 Z M 13.535156 5.601562 L 13.535156 10.398438 L 14.382812 10.398438 L 14.382812 8.734375 L 16 10.128906 C 16 9.761719 16 9.34375 16 9.027344 L 14.75 8.007812 L 16 6.796875 C 16 6.46875 16 6.015625 16 5.679688 L 14.382812 7.285156 L 14.382812 5.601562 Z M 10.621094 6.355469 C 11.503906 6.355469 12.21875 7.070312 12.21875 7.953125 C 12.21875 8.835938 11.503906 9.550781 10.621094 9.550781 C 9.738281 9.550781 9.023438 8.835938 9.023438 7.953125 C 9.023438 7.070312 9.738281 6.355469 10.621094 6.355469 Z M 5.21875 6.449219 C 6.074219 6.449219 6.769531 7.144531 6.769531 8 C 6.769531 8.855469 6.074219 9.550781 5.21875 9.550781 C 4.359375 9.550781 3.664062 8.855469 3.664062 8 C 3.664062 7.144531 4.359375 6.449219 5.21875 6.449219 Z M 5.21875 6.449219 "/>
</g>
</svg>
