
<svg xmlns="http://www.w3.org/2000/svg" xmlns:xlink="http://www.w3.org/1999/xlink" width="16px" height="16px" viewBox="0 0 16 16" version="1.1">
<g id="surface1">
<path style=" stroke:none;fill-rule:nonzero;fill:#ff6666;fill-opacity:1;" d="M 3.179688 0 L 4.953125 2.542969 L 6.40625 2.082031 L 10.570312 5.363281 L 9.355469 2.75 Z M 6.246094 2.472656 L 1.4375 3.910156 L 9.875 5.335938 Z M 9.070312 5.566406 C 8.863281 5.570312 8.792969 5.640625 8.566406 5.863281 L 7.804688 6.71875 C 7.535156 7.0625 7.425781 7.285156 7.511719 7.664062 L 8.117188 9.5625 L 9.902344 10.300781 L 13.148438 6.3125 L 9.335938 5.582031 C 9.226562 5.570312 9.140625 5.566406 9.070312 5.566406 Z M 13.507812 6.625 L 12.191406 8.171875 L 12.710938 10.328125 C 14.132812 9.980469 14.367188 8.785156 14.5625 7.894531 Z M 7.179688 9.78125 C 7.117188 9.777344 7.054688 9.78125 7 9.789062 C 6.285156 9.765625 4.714844 11.519531 4.714844 11.519531 L 9.460938 12.132812 L 9.65625 10.851562 C 9.65625 10.851562 8.117188 9.808594 7.179688 9.78125 Z M 4.769531 12.179688 L 7.199219 15.402344 L 9.574219 12.589844 Z M 8.925781 13.941406 L 7.523438 15.539062 L 9.171875 16 L 12.171875 15.550781 Z M 8.925781 13.941406 "/>
</g>
</svg>
