
<svg xmlns="http://www.w3.org/2000/svg" xmlns:xlink="http://www.w3.org/1999/xlink" width="16px" height="16px" viewBox="0 0 16 16" version="1.1">
<g id="surface1">
<path style=" stroke:none;fill-rule:nonzero;fill:#ff6666;fill-opacity:1;" d="M 2.65625 0 L 2.3125 0.472656 C 2.3125 0.472656 1.328125 1.765625 1.328125 3.375 C 1.328125 4.398438 1.667969 5.351562 1.839844 5.761719 C 1.101562 7.128906 0.71875 8.765625 0.71875 10.65625 L 0.71875 11.203125 L 1.289062 11.261719 C 2.570312 11.359375 4.097656 11.738281 4.4375 12.359375 C 4.601562 12.664062 4.738281 13.050781 4.871094 13.421875 C 5.027344 13.847656 5.1875 14.28125 5.402344 14.652344 C 5.917969 15.542969 6.796875 16 8 16 C 9.203125 16 10.082031 15.542969 10.597656 14.652344 C 10.8125 14.28125 10.972656 13.847656 11.128906 13.421875 C 11.261719 13.050781 11.398438 12.664062 11.5625 12.359375 C 11.902344 11.738281 13.429688 11.359375 14.710938 11.261719 L 15.28125 11.203125 L 15.28125 10.652344 C 15.28125 8.765625 14.898438 7.128906 14.160156 5.761719 C 14.332031 5.351562 14.671875 4.398438 14.671875 3.375 C 14.671875 1.765625 13.6875 0.472656 13.6875 0.472656 L 13.34375 0 L 12.871094 0.320312 L 10.40625 1.953125 C 10.28125 1.882812 10.273438 1.859375 10.066406 1.78125 C 9.597656 1.605469 8.914062 1.441406 8 1.441406 C 7.085938 1.441406 6.398438 1.605469 5.933594 1.78125 C 5.726562 1.859375 5.71875 1.882812 5.59375 1.953125 L 3.128906 0.324219 Z M 3.015625 1.707031 L 5.214844 3.167969 L 5.574219 3.394531 L 5.933594 3.128906 C 5.933594 3.128906 6.03125 3.046875 6.371094 2.917969 C 6.707031 2.792969 7.234375 2.652344 8 2.652344 C 8.765625 2.652344 9.308594 2.792969 9.648438 2.917969 C 9.988281 3.046875 10.085938 3.128906 10.085938 3.128906 L 10.425781 3.394531 L 10.785156 3.167969 L 12.984375 1.707031 C 13.207031 2.121094 13.460938 2.691406 13.460938 3.375 C 13.460938 3.761719 13.382812 4.144531 13.289062 4.492188 C 13.015625 4.160156 12.730469 3.835938 12.398438 3.546875 L 11.355469 4.246094 C 13.039062 5.59375 13.9375 7.554688 14.046875 10.105469 C 12.898438 10.25 11.113281 10.660156 10.503906 11.792969 C 10.296875 12.171875 10.140625 12.59375 9.992188 13.003906 C 9.847656 13.402344 9.699219 13.765625 9.535156 14.046875 C 9.453125 14.199219 9.34375 14.335938 9.214844 14.445312 L 9.214844 13.765625 C 8.820312 13.636719 8.410156 13.574219 8 13.574219 C 7.492188 13.574219 7.089844 13.664062 6.785156 13.761719 L 6.785156 14.445312 C 6.65625 14.335938 6.546875 14.199219 6.464844 14.046875 C 6.300781 13.765625 6.152344 13.402344 6.007812 13.003906 C 5.859375 12.59375 5.703125 12.171875 5.496094 11.792969 C 4.886719 10.660156 3.101562 10.25 1.953125 10.105469 C 2.0625 7.554688 2.960938 5.59375 4.644531 4.246094 L 3.601562 3.546875 C 3.269531 3.835938 2.984375 4.160156 2.710938 4.492188 C 2.621094 4.144531 2.539062 3.761719 2.539062 3.375 C 2.539062 2.691406 2.792969 2.121094 3.015625 1.707031 Z M 5.269531 8.113281 C 4.851562 8.535156 4.851562 9.210938 5.269531 9.628906 C 5.691406 10.046875 6.367188 10.046875 6.785156 9.628906 Z M 10.730469 8.113281 L 9.214844 9.628906 C 9.632812 10.046875 10.308594 10.046875 10.730469 9.628906 C 11.148438 9.210938 11.148438 8.535156 10.730469 8.113281 Z M 10.730469 8.113281 "/>
</g>
</svg>
