
<svg xmlns="http://www.w3.org/2000/svg" xmlns:xlink="http://www.w3.org/1999/xlink" width="16px" height="16px" viewBox="0 0 16 16" version="1.1">
<g id="surface1">
<path style=" stroke:none;fill-rule:evenodd;fill:#ff6666;fill-opacity:1;" d="M 3.792969 15.003906 C 1.71875 13.769531 1.632812 13.691406 1.746094 13.222656 C 1.859375 12.757812 3.550781 11.097656 4.382812 10.640625 L 5.027344 10.285156 L 5.617188 10.773438 C 6.359375 11.386719 7.039062 11.640625 7.953125 11.648438 C 8.867188 11.65625 9.453125 11.445312 10.308594 10.804688 L 10.992188 10.285156 L 11.640625 10.640625 C 11.996094 10.832031 12.75 11.460938 13.316406 12.035156 C 14.738281 13.476562 14.734375 13.484375 12.359375 14.910156 C 11.699219 15.304688 11.082031 15.65625 10.699219 15.859375 C 10.277344 16.132812 10.226562 15.9375 9.988281 15.648438 C 9.632812 15.289062 8.980469 14.855469 8 14.855469 C 6.933594 14.855469 6.285156 15.378906 5.984375 15.742188 C 5.765625 16.136719 5.636719 15.996094 5.339844 15.863281 C 4.960938 15.675781 4.390625 15.359375 3.792969 15.003906 Z M 0.105469 10.757812 C 0.046875 10.699219 0 9.628906 0 8.378906 L 0 6.109375 L 0.730469 5.785156 C 1.980469 5.230469 2.527344 4.335938 2.347656 3.007812 C 2.304688 2.6875 2.3125 2.351562 2.367188 2.261719 C 2.5 2.050781 6.054688 0 6.292969 0 C 6.390625 0 6.53125 0.078125 6.605469 0.175781 C 7.078125 0.785156 7.558594 3.097656 7.394531 3.96875 C 7.324219 4.359375 7.210938 4.464844 6.585938 4.71875 C 5.703125 5.078125 4.960938 5.8125 4.5625 6.71875 C 4.324219 7.261719 4.273438 7.601562 4.3125 8.449219 L 4.359375 9.503906 L 3.898438 9.816406 C 2.902344 10.492188 0.4375 11.101562 0.105469 10.757812 Z M 15.894531 10.757812 C 15.953125 10.699219 16 9.628906 16 8.378906 L 16 6.109375 L 15.269531 5.785156 C 14.019531 5.230469 13.511719 4.335938 13.691406 3.007812 C 13.734375 2.6875 13.726562 2.351562 13.671875 2.261719 C 13.539062 2.050781 9.945312 0 9.707031 0 C 9.609375 0 9.46875 0.078125 9.394531 0.175781 C 8.921875 0.785156 8.441406 3.097656 8.605469 3.96875 C 8.675781 4.359375 8.789062 4.464844 9.414062 4.71875 C 10.296875 5.078125 11.039062 5.8125 11.4375 6.71875 C 11.675781 7.261719 11.726562 7.601562 11.6875 8.449219 L 11.640625 9.503906 L 12.101562 9.816406 C 13.097656 10.492188 15.5625 11.101562 15.894531 10.757812 Z M 15.894531 10.757812 "/>
</g>
</svg>
