
<svg xmlns="http://www.w3.org/2000/svg" xmlns:xlink="http://www.w3.org/1999/xlink" width="16px" height="16px" viewBox="0 0 16 16" version="1.1">
<g id="surface1">
<path style=" stroke:none;fill-rule:nonzero;fill:#ff6666;fill-opacity:1;" d="M 0 5.355469 L 0 10.644531 L 1.269531 10.644531 L 1.269531 8.5 C 1.273438 8.414062 1.3125 8.332031 1.375 8.269531 C 1.441406 8.207031 1.53125 8.167969 1.625 8.167969 L 2.355469 8.167969 C 2.441406 8.167969 2.515625 8.210938 2.582031 8.269531 C 2.652344 8.332031 2.679688 8.410156 2.6875 8.5 L 2.6875 10.644531 L 3.960938 10.644531 L 3.960938 8.335938 C 3.960938 8.015625 3.894531 7.765625 3.769531 7.5625 C 3.644531 7.375 3.460938 7.230469 3.25 7.144531 C 3.019531 7.042969 2.773438 6.992188 2.519531 7 L 1.6875 7 L 1.375 7.042969 C 1.300781 7.0625 1.269531 7.085938 1.269531 7.085938 L 1.269531 5.355469 Z M 9.792969 5.355469 L 9.792969 10.644531 L 11.0625 10.644531 L 11.0625 5.355469 Z M 4.875 7 L 4.875 9.25 C 4.875 9.546875 4.921875 9.792969 5.039062 10 C 5.160156 10.210938 5.347656 10.375 5.5625 10.480469 C 5.785156 10.585938 6.015625 10.644531 6.3125 10.644531 L 7.5625 10.644531 L 7.5625 10.625 C 7.828125 10.625 8.066406 10.570312 8.25 10.460938 C 8.433594 10.339844 8.582031 10.167969 8.6875 9.960938 C 8.785156 9.75 8.824219 9.515625 8.832031 9.25 L 8.832031 7 L 7.5625 7 L 7.5625 9.125 C 7.554688 9.21875 7.519531 9.304688 7.457031 9.375 C 7.398438 9.4375 7.316406 9.472656 7.230469 9.480469 L 6.480469 9.480469 C 6.394531 9.476562 6.3125 9.4375 6.25 9.375 C 6.1875 9.308594 6.148438 9.21875 6.144531 9.125 L 6.144531 7 Z M 12.039062 7 L 12.039062 9.25 C 12.050781 9.546875 12.105469 9.792969 12.230469 10 C 12.355469 10.210938 12.515625 10.375 12.730469 10.480469 C 12.949219 10.585938 13.191406 10.644531 13.480469 10.644531 L 14.730469 10.644531 L 14.730469 10.625 C 14.996094 10.625 15.222656 10.570312 15.417969 10.460938 C 15.601562 10.339844 15.757812 10.167969 15.855469 9.960938 C 15.957031 9.753906 16 9.515625 16 9.25 L 16 7 L 14.730469 7 L 14.730469 9.125 C 14.726562 9.21875 14.6875 9.308594 14.625 9.375 C 14.5625 9.4375 14.480469 9.472656 14.394531 9.480469 L 13.644531 9.480469 C 13.558594 9.476562 13.476562 9.4375 13.417969 9.375 C 13.351562 9.308594 13.316406 9.21875 13.3125 9.125 L 13.3125 7 Z M 12.039062 7 "/>
</g>
</svg>
