
<svg xmlns="http://www.w3.org/2000/svg" xmlns:xlink="http://www.w3.org/1999/xlink" width="16px" height="16px" viewBox="0 0 16 16" version="1.1">
<g id="surface1">
<path style=" stroke:none;fill-rule:evenodd;fill:#ff6666;fill-opacity:1;" d="M 5.746094 0.265625 L 2.324219 4.878906 L 3.289062 6.800781 L 5.539062 6.800781 C 5.480469 7.070312 5.410156 7.382812 5.320312 7.71875 C 5.058594 8.71875 4.574219 9.871094 4.222656 10.273438 L 4.207031 10.289062 L 4.195312 10.304688 C 3.34375 11.335938 1.957031 12.394531 0 13.511719 L 1.265625 15.734375 C 3.363281 14.539062 4.992188 13.347656 6.148438 11.953125 C 7.074219 10.894531 7.488281 9.53125 7.796875 8.375 C 7.960938 7.746094 8.074219 7.191406 8.144531 6.800781 L 13.542969 6.800781 C 13.445312 9.257812 13.425781 9.851562 12.902344 11.125 C 12.59375 11.871094 12.203125 12.34375 11.417969 12.710938 C 10.632812 13.078125 9.375 13.300781 7.464844 13.175781 L 7.3125 15.574219 C 9.464844 15.714844 11.121094 15.503906 12.433594 14.890625 C 13.75 14.277344 14.640625 13.21875 15.125 12.042969 C 16.097656 9.683594 15.835938 8.511719 16 5.667969 L 15.949219 4.394531 L 5.679688 4.394531 L 7.675781 1.699219 Z M 5.746094 0.265625 "/>
</g>
</svg>
