
<svg xmlns="http://www.w3.org/2000/svg" xmlns:xlink="http://www.w3.org/1999/xlink" width="16px" height="16px" viewBox="0 0 16 16" version="1.1">
<g id="surface1">
<path style=" stroke:none;fill-rule:nonzero;fill:#ff6666;fill-opacity:1;" d="M 12.800781 0.234375 C 12.417969 1.257812 11.96875 2.242188 11.457031 3.136719 L 6.789062 3.136719 L 6.789062 4.820312 L 8.453125 4.820312 L 8.453125 7.199219 C 8.453125 7.582031 8.429688 7.847656 8.386719 8.1875 L 6.738281 8.1875 L 6.738281 9.871094 L 8.261719 9.871094 C 8.003906 12.132812 7.128906 13.699219 5.636719 14.808594 L 6.957031 15.765625 C 8.703125 14.488281 9.726562 12.601562 10.023438 9.871094 L 12.632812 9.871094 L 12.632812 15.703125 L 14.316406 15.703125 L 14.316406 9.871094 L 16 9.871094 L 16 8.1875 L 14.316406 8.1875 L 14.316406 4.820312 L 16 4.820312 L 16 3.136719 L 12.800781 3.136719 C 13.269531 2.410156 13.738281 1.554688 14.207031 0.617188 Z M 8.964844 0.425781 L 7.683594 0.808594 C 8.152344 1.40625 8.515625 2.089844 8.769531 2.855469 L 10.113281 2.410156 C 9.859375 1.683594 9.476562 1.023438 8.964844 0.425781 Z M 2.527344 0.609375 L 2.527344 3.136719 L 0 3.136719 L 0 4.820312 L 2.527344 4.820312 L 2.527344 8.15625 C 1.714844 8.496094 0.9375 8.835938 0 9.179688 L 0.449219 10.523438 C 1.214844 10.222656 1.84375 9.925781 2.527344 9.628906 L 2.527344 13.65625 C 2.527344 14.167969 2.433594 14.421875 2.21875 14.421875 C 1.621094 14.421875 1.128906 14.339844 0.574219 14.167969 L 0.832031 15.511719 C 1.34375 15.636719 1.898438 15.703125 2.492188 15.703125 C 3.003906 15.703125 3.660156 15.574219 3.875 15.320312 C 4.085938 15.0625 4.210938 14.617188 4.210938 13.976562 L 4.210938 8.988281 L 6.007812 8.089844 L 5.816406 6.941406 L 5.816406 6.9375 C 5.261719 7.195312 4.765625 7.34375 4.210938 7.644531 L 4.210938 4.820312 L 5.894531 4.820312 L 5.894531 3.136719 L 4.210938 3.136719 L 4.210938 0.609375 Z M 10.152344 4.820312 L 12.632812 4.820312 L 12.632812 8.1875 L 10.089844 8.1875 C 10.132812 7.890625 10.152344 7.6875 10.152344 7.390625 Z M 10.152344 4.820312 "/>
</g>
</svg>
