
<svg xmlns="http://www.w3.org/2000/svg" xmlns:xlink="http://www.w3.org/1999/xlink" width="16px" height="16px" viewBox="0 0 16 16" version="1.1">
<g id="surface1">
<path style=" stroke:none;fill-rule:evenodd;fill:#ff6666;fill-opacity:1;" d="M 7.144531 1.714844 L 7.144531 3.429688 L 8.855469 3.429688 L 8.855469 1.714844 Z M 8.042969 0 C 7.710938 -0.0078125 7.382812 0.078125 7.09375 0.246094 L 1.757812 3.371094 C 1.234375 3.679688 0.894531 4.234375 0.855469 4.847656 C 0.890625 5.46875 1.230469 6.027344 1.757812 6.339844 L 7.09375 9.46875 C 7.652344 9.796875 8.347656 9.796875 8.90625 9.46875 L 14.242188 6.339844 C 14.765625 6.03125 15.105469 5.476562 15.144531 4.863281 C 15.109375 4.246094 14.769531 3.683594 14.242188 3.371094 L 8.90625 0.246094 C 8.644531 0.09375 8.347656 0.0078125 8.042969 0 Z M 7.144531 4.285156 L 7.144531 8.285156 L 8.855469 8.285156 L 8.855469 4.285156 Z M 7.144531 4.285156 "/>
<path style=" stroke:none;fill-rule:evenodd;fill:#ff6666;fill-opacity:1;" d="M 0.859375 4.800781 C 0.859375 4.800781 0.855469 4.804688 0.855469 4.808594 C 0.859375 4.8125 0.859375 4.820312 0.859375 4.828125 C 0.859375 4.84375 0.859375 4.855469 0.855469 4.871094 L 0.855469 11.089844 C 0.855469 11.738281 1.203125 12.339844 1.761719 12.664062 L 7.09375 15.757812 C 7.371094 15.917969 7.6875 16 8 16 L 8 9.597656 C 7.996094 9.597656 7.996094 9.597656 7.996094 9.597656 C 7.945312 9.597656 7.898438 9.597656 7.847656 9.589844 C 7.835938 9.589844 7.820312 9.589844 7.808594 9.589844 C 7.757812 9.582031 7.710938 9.574219 7.660156 9.566406 C 7.652344 9.5625 7.640625 9.5625 7.632812 9.5625 C 7.589844 9.550781 7.546875 9.539062 7.503906 9.527344 C 7.484375 9.523438 7.46875 9.519531 7.449219 9.511719 C 7.414062 9.503906 7.382812 9.488281 7.351562 9.476562 C 7.324219 9.46875 7.300781 9.457031 7.273438 9.449219 C 7.246094 9.433594 7.222656 9.421875 7.195312 9.40625 C 7.160156 9.390625 7.125 9.375 7.09375 9.355469 L 1.757812 6.265625 C 1.707031 6.234375 1.65625 6.203125 1.605469 6.164062 C 1.605469 6.164062 1.601562 6.164062 1.601562 6.160156 C 1.554688 6.128906 1.511719 6.09375 1.472656 6.058594 C 1.449219 6.039062 1.429688 6.019531 1.40625 5.996094 C 1.386719 5.976562 1.363281 5.953125 1.34375 5.933594 C 1.320312 5.90625 1.296875 5.878906 1.273438 5.851562 C 1.257812 5.835938 1.242188 5.8125 1.226562 5.792969 C 1.203125 5.765625 1.183594 5.734375 1.164062 5.703125 C 1.148438 5.683594 1.136719 5.664062 1.125 5.644531 C 1.105469 5.609375 1.085938 5.578125 1.066406 5.542969 C 1.058594 5.523438 1.046875 5.503906 1.035156 5.484375 C 1.019531 5.449219 1.003906 5.414062 0.992188 5.378906 C 0.980469 5.359375 0.972656 5.339844 0.964844 5.316406 C 0.957031 5.292969 0.949219 5.265625 0.941406 5.242188 C 0.929688 5.207031 0.917969 5.171875 0.910156 5.136719 C 0.90625 5.121094 0.902344 5.105469 0.902344 5.09375 C 0.890625 5.050781 0.882812 5.003906 0.875 4.960938 C 0.867188 4.90625 0.859375 4.855469 0.859375 4.800781 Z M 2.609375 8.066406 C 2.070312 8.054688 1.714844 8.367188 1.714844 8.960938 L 1.714844 10.097656 C 1.714844 11.046875 2.621094 12.34375 3.75 13.007812 L 7.144531 15 L 7.144531 13.859375 L 3.75 11.863281 C 3.351562 11.628906 3.070312 11.230469 3.070312 10.894531 L 3.070312 9.757812 C 3.070312 9.421875 3.351562 9.351562 3.75 9.585938 L 7.144531 11.578125 L 7.144531 10.441406 L 3.75 8.445312 C 3.328125 8.195312 2.933594 8.074219 2.609375 8.066406 Z M 2.609375 8.066406 "/>
<path style=" stroke:none;fill-rule:evenodd;fill:#ff6666;fill-opacity:1;" d="M 15.140625 4.828125 C 15.09375 5.425781 14.757812 5.964844 14.242188 6.265625 L 8.90625 9.355469 C 8.632812 9.515625 8.316406 9.597656 8 9.597656 L 8 16 C 8.3125 16 8.625 15.917969 8.90625 15.757812 L 14.238281 12.664062 C 14.796875 12.339844 15.144531 11.738281 15.144531 11.089844 L 15.144531 4.871094 C 15.140625 4.855469 15.140625 4.84375 15.140625 4.828125 Z M 12.640625 9.46875 C 12.820312 9.460938 12.929688 9.566406 12.929688 9.777344 L 10.214844 11.371094 C 10.214844 11.039062 10.492188 10.640625 10.894531 10.402344 L 11.570312 10.007812 L 12.25 9.605469 C 12.398438 9.519531 12.53125 9.472656 12.640625 9.46875 Z M 13.390625 8.089844 C 13.066406 8.09375 12.671875 8.21875 12.25 8.46875 L 11.570312 8.863281 L 10.894531 9.265625 C 9.765625 9.925781 8.855469 11.222656 8.855469 12.171875 L 8.855469 13.3125 C 8.855469 14.257812 9.765625 14.488281 10.894531 13.824219 L 11.570312 13.425781 L 11.570312 12.285156 L 10.894531 12.683594 C 10.492188 12.917969 10.214844 12.847656 10.214844 12.511719 L 11.570312 11.714844 L 12.929688 10.914062 L 14.285156 10.117188 L 14.285156 8.980469 C 14.285156 8.386719 13.929688 8.074219 13.390625 8.089844 Z M 13.390625 8.089844 "/>
</g>
</svg>
