
<svg xmlns="http://www.w3.org/2000/svg" xmlns:xlink="http://www.w3.org/1999/xlink" width="16px" height="16px" viewBox="0 0 16 16" version="1.1">
<g id="surface1">
<path style=" stroke:none;fill-rule:nonzero;fill:#ff6666;fill-opacity:1;" d="M 10.121094 6.039062 L 6.414062 6.039062 C 5.832031 6.066406 5.277344 6.285156 4.832031 6.664062 C 4.390625 7.042969 4.089844 7.558594 3.972656 8.125 C 3.933594 8.300781 3.917969 8.476562 3.917969 8.652344 C 3.917969 9.652344 4.492188 10.570312 5.398438 11.007812 C 5.75 11.179688 6.140625 11.265625 6.53125 11.265625 C 7.308594 11.265625 8.042969 10.925781 8.539062 10.328125 C 8.871094 9.929688 9.351562 9.679688 9.867188 9.632812 C 10.386719 9.589844 10.902344 9.75 11.300781 10.082031 C 11.699219 10.414062 11.949219 10.894531 11.992188 11.410156 C 12.039062 11.929688 11.878906 12.445312 11.546875 12.84375 C 10.304688 14.328125 8.46875 15.183594 6.53125 15.183594 C 5.550781 15.183594 4.582031 14.964844 3.695312 14.535156 C 2.589844 14.003906 1.65625 13.167969 1 12.128906 C 0.347656 11.085938 0 9.882812 0 8.652344 C 0 8.210938 0.0429688 7.773438 0.132812 7.34375 C 0.425781 5.914062 1.183594 4.628906 2.289062 3.683594 C 3.394531 2.738281 4.785156 2.1875 6.238281 2.125 C 6.257812 2.121094 6.28125 2.121094 6.300781 2.121094 L 10.121094 2.121094 L 10.121094 1.796875 C 10.121094 1.53125 10.226562 1.277344 10.414062 1.09375 C 10.605469 0.910156 10.859375 0.808594 11.121094 0.816406 C 11.28125 0.820312 11.441406 0.863281 11.585938 0.945312 L 13.550781 2.089844 L 15.511719 3.230469 C 15.8125 3.40625 16 3.730469 16 4.078125 C 16 4.429688 15.8125 4.753906 15.511719 4.929688 L 13.550781 6.070312 L 11.585938 7.214844 C 11.28125 7.390625 10.910156 7.390625 10.609375 7.214844 C 10.308594 7.039062 10.121094 6.714844 10.121094 6.363281 Z M 10.121094 6.039062 "/>
</g>
</svg>
