
<svg xmlns="http://www.w3.org/2000/svg" xmlns:xlink="http://www.w3.org/1999/xlink" width="16px" height="16px" viewBox="0 0 16 16" version="1.1">
<g id="surface1">
<path style=" stroke:none;fill-rule:nonzero;fill:#ff6666;fill-opacity:1;" d="M 5.375 0 L 7.917969 0 C 8.125 0 8.292969 0.167969 8.292969 0.375 L 8.292969 2.917969 C 8.292969 3.125 8.125 3.292969 7.917969 3.292969 L 5.375 3.292969 C 5.167969 3.292969 5 3.125 5 2.917969 L 5 0.375 C 5 0.167969 5.167969 0 5.375 0 Z M 5.375 0 "/>
<path style=" stroke:none;fill-rule:nonzero;fill:#ff6666;fill-opacity:1;" d="M 5.375 4.238281 L 7.917969 4.238281 C 8.125 4.238281 8.292969 4.410156 8.292969 4.617188 L 8.292969 7.15625 C 8.292969 7.367188 8.125 7.535156 7.917969 7.535156 L 5.375 7.535156 C 5.167969 7.535156 5 7.367188 5 7.15625 L 5 4.617188 C 5 4.410156 5.167969 4.238281 5.375 4.238281 Z M 5.375 4.238281 "/>
<path style=" stroke:none;fill-rule:nonzero;fill:#ff6666;fill-opacity:1;" d="M 5.375 8.46875 L 7.917969 8.46875 C 8.125 8.46875 8.292969 8.636719 8.292969 8.847656 L 8.292969 11.386719 C 8.292969 11.59375 8.125 11.765625 7.917969 11.765625 L 5.375 11.765625 C 5.167969 11.765625 5 11.59375 5 11.386719 L 5 8.847656 C 5 8.636719 5.167969 8.46875 5.375 8.46875 Z M 5.375 8.46875 "/>
<path style=" stroke:none;fill-rule:nonzero;fill:#ff6666;fill-opacity:1;" d="M 5.375 12.710938 L 7.917969 12.710938 C 8.125 12.710938 8.292969 12.878906 8.292969 13.085938 L 8.292969 15.628906 C 8.292969 15.835938 8.125 16.003906 7.917969 16.003906 L 5.375 16.003906 C 5.167969 16.003906 5 15.835938 5 15.628906 L 5 13.085938 C 5 12.878906 5.167969 12.710938 5.375 12.710938 Z M 5.375 12.710938 "/>
<path style=" stroke:none;fill-rule:nonzero;fill:#ff6666;fill-opacity:1;" d="M 9.605469 4.238281 L 12.148438 4.238281 C 12.355469 4.238281 12.523438 4.410156 12.523438 4.617188 L 12.523438 7.15625 C 12.523438 7.367188 12.355469 7.535156 12.148438 7.535156 L 9.605469 7.535156 C 9.398438 7.535156 9.230469 7.367188 9.230469 7.15625 L 9.230469 4.617188 C 9.230469 4.410156 9.398438 4.238281 9.605469 4.238281 Z M 9.605469 4.238281 "/>
<path style=" stroke:none;fill-rule:nonzero;fill:#ff6666;fill-opacity:1;" d="M 9.605469 8.46875 L 12.148438 8.46875 C 12.355469 8.46875 12.523438 8.636719 12.523438 8.847656 L 12.523438 11.386719 C 12.523438 11.59375 12.355469 11.765625 12.148438 11.765625 L 9.605469 11.765625 C 9.398438 11.765625 9.230469 11.59375 9.230469 11.386719 L 9.230469 8.847656 C 9.230469 8.636719 9.398438 8.46875 9.605469 8.46875 Z M 9.605469 8.46875 "/>
<path style=" stroke:none;fill-rule:nonzero;fill:#ff6666;fill-opacity:1;" d="M 9.605469 12.710938 L 12.148438 12.710938 C 12.355469 12.710938 12.523438 12.878906 12.523438 13.085938 L 12.523438 15.628906 C 12.523438 15.835938 12.355469 16.003906 12.148438 16.003906 L 9.605469 16.003906 C 9.398438 16.003906 9.230469 15.835938 9.230469 15.628906 L 9.230469 13.085938 C 9.230469 12.878906 9.398438 12.710938 9.605469 12.710938 Z M 9.605469 12.710938 "/>
</g>
</svg>
