
<svg xmlns="http://www.w3.org/2000/svg" xmlns:xlink="http://www.w3.org/1999/xlink" width="16px" height="16px" viewBox="0 0 16 16" version="1.1">
<g id="surface1">
<path style=" stroke:none;fill-rule:evenodd;fill:#ff6666;fill-opacity:1;" d="M 7.9375 0 L 7.9375 0.00390625 C 3.535156 0.0351562 0 3.589844 0 8 C 0 12.433594 3.566406 16 8 16 C 12.273438 16 15.738281 12.683594 15.984375 8.476562 L 16 8.460938 L 16 1.601562 C 16 0.714844 15.285156 0 14.398438 0 Z M 8.363281 8.570312 L 8.625 6.855469 L 7.824219 6.855469 L 7.566406 8.570312 Z M 9.519531 8.570312 L 9.777344 6.855469 L 10.953125 6.855469 L 11.128906 5.714844 L 9.953125 5.714844 L 10.296875 3.429688 L 9.144531 3.429688 L 8.796875 5.714844 L 7.996094 5.714844 L 8.34375 3.429688 L 7.1875 3.429688 L 6.84375 5.714844 L 5.523438 5.714844 L 5.351562 6.855469 L 6.667969 6.855469 L 6.410156 8.570312 L 5.09375 8.570312 L 4.917969 9.714844 L 6.238281 9.714844 L 5.804688 12.570312 L 6.960938 12.570312 L 7.390625 9.714844 L 8.191406 9.714844 L 7.761719 12.570312 L 8.914062 12.570312 L 9.347656 9.714844 L 10.523438 9.714844 L 10.695312 8.570312 Z M 9.519531 8.570312 "/>
</g>
</svg>
