
<svg xmlns="http://www.w3.org/2000/svg" xmlns:xlink="http://www.w3.org/1999/xlink" width="16px" height="16px" viewBox="0 0 16 16" version="1.1">
<g id="surface1">
<path style=" stroke:none;fill-rule:nonzero;fill:#ff6666;fill-opacity:1;" d="M 0.460938 0 L 0.460938 15.078125 L 5.5625 15.078125 C 4.386719 14.308594 3.492188 13.175781 3.015625 11.847656 L 1.539062 11.847656 L 1.539062 1.078125 L 14.464844 1.078125 L 14.464844 6.179688 C 15.128906 7.195312 15.515625 8.402344 15.515625 9.695312 C 15.539062 9.695312 15.542969 8.34375 15.542969 0 Z M 11.769531 2.15625 C 11.019531 2.15625 10.394531 2.667969 10.214844 3.359375 C 11.289062 3.554688 12.28125 4.019531 13.105469 4.679688 C 13.441406 4.1875 13.476562 3.546875 13.199219 3.015625 C 12.917969 2.484375 12.367188 2.15625 11.769531 2.15625 Z M 9.078125 4.308594 C 6.109375 4.308594 3.691406 6.726562 3.691406 9.695312 C 3.691406 12.664062 6.109375 15.078125 9.078125 15.078125 C 10.367188 15.078125 11.535156 14.605469 12.464844 13.84375 L 14.621094 16 L 15.382812 15.238281 L 13.226562 13.082031 C 13.988281 12.152344 14.464844 10.984375 14.464844 9.695312 C 14.464844 6.726562 12.042969 4.308594 9.078125 4.308594 Z M 8.96875 5.429688 C 9.003906 5.429688 9.039062 5.429688 9.078125 5.429688 C 10.207031 5.429688 11.292969 5.875 12.09375 6.675781 C 12.894531 7.476562 13.34375 8.5625 13.34375 9.695312 C 13.34375 10.828125 12.894531 11.914062 12.09375 12.710938 C 11.292969 13.511719 10.207031 13.960938 9.078125 13.957031 C 7.945312 13.960938 6.859375 13.511719 6.058594 12.710938 C 5.261719 11.910156 4.8125 10.828125 4.8125 9.695312 C 4.808594 7.378906 6.652344 5.484375 8.96875 5.429688 Z M 8.859375 6.507812 C 8.582031 6.523438 8.308594 6.578125 8.046875 6.664062 L 7.460938 7.539062 L 7.195312 7.09375 C 6.355469 7.695312 5.863281 8.664062 5.867188 9.695312 C 5.867188 10.078125 5.945312 10.433594 6.0625 10.769531 L 11.234375 10.769531 Z M 2.707031 10.601562 L 2.613281 10.769531 L 2.734375 10.769531 C 2.722656 10.714844 2.714844 10.660156 2.707031 10.601562 Z M 6.699219 11.847656 C 7.285156 12.496094 8.121094 12.90625 9.078125 12.90625 C 10.03125 12.90625 10.871094 12.496094 11.453125 11.847656 Z M 6.699219 11.847656 "/>
</g>
</svg>
