
<svg xmlns="http://www.w3.org/2000/svg" xmlns:xlink="http://www.w3.org/1999/xlink" width="16px" height="16px" viewBox="0 0 16 16" version="1.1">
<g id="surface1">
<path style=" stroke:none;fill-rule:evenodd;fill:#ff6666;fill-opacity:1;" d="M 8.332031 2.332031 C 8.332031 1.324219 9.203125 0.5 10.210938 0.5 C 11.125 0.5 11.789062 1.117188 11.789062 2.058594 C 11.789062 3.109375 10.917969 3.890625 9.890625 3.890625 C 8.949219 3.890625 8.332031 3.269531 8.332031 2.332031 Z M 7.09375 6.84375 C 7.257812 6.429688 7.050781 6.226562 6.867188 6.226562 C 6.019531 6.226562 4.921875 8.21875 4.507812 8.21875 C 4.347656 8.21875 4.210938 8.058594 4.210938 7.921875 C 4.210938 7.507812 5.21875 6.546875 5.515625 6.246094 C 6.433594 5.378906 7.621094 4.714844 8.949219 4.714844 C 9.933594 4.714844 10.988281 5.308594 10.164062 7.53125 L 8.515625 11.996094 C 8.378906 12.339844 8.125 12.914062 8.125 13.277344 C 8.125 13.4375 8.21875 13.597656 8.398438 13.597656 C 9.085938 13.597656 10.347656 11.652344 10.667969 11.652344 C 10.78125 11.652344 10.941406 11.789062 10.941406 11.996094 C 10.941406 12.660156 8.261719 15.5 5.949219 15.5 C 5.125 15.5 4.554688 15.109375 4.554688 14.242188 C 4.554688 13.140625 5.332031 11.265625 5.492188 10.875 C 5.492188 10.875 7.09375 6.84375 7.09375 6.84375 Z M 7.09375 6.84375 "/>
</g>
</svg>
