
<svg xmlns="http://www.w3.org/2000/svg" xmlns:xlink="http://www.w3.org/1999/xlink" width="16px" height="16px" viewBox="0 0 16 16" version="1.1">
<g id="surface1">
<path style=" stroke:none;fill-rule:evenodd;fill:#ff6666;fill-opacity:1;" d="M 7.996094 0.0273438 C 7.539062 0.0273438 7.09375 0.199219 6.746094 0.558594 L 0.527344 6.96875 C 0.183594 7.324219 0.00390625 7.789062 -0.00390625 8.25 C -0.00390625 8.257812 -0.00390625 8.273438 -0.00390625 8.28125 C -0.00390625 9.65625 3.664062 8.320312 3.996094 10 C 4.175781 10.910156 1.996094 10.492188 1.996094 11.410156 C 1.996094 12.480469 5.082031 11.742188 5.964844 12.628906 C 6.328125 13.511719 4.785156 13.371094 5.058594 14.191406 C 5.574219 14.726562 6.742188 14.421875 6.964844 15.285156 C 7.21875 16.269531 8.894531 16.101562 9.871094 15.378906 C 10.386719 14.84375 9.070312 14.601562 9.589844 14.066406 C 10.105469 13.53125 12.664062 13.640625 12.683594 12.472656 C 12.4375 11.738281 11.480469 11.617188 11.464844 10.75 C 11.414062 10.015625 12.25 10.230469 14.902344 9.5 C 15.960938 9.003906 16 8.738281 15.996094 8.28125 C 15.996094 8.273438 15.996094 8.261719 15.996094 8.25 C 15.988281 7.789062 15.777344 7.320312 15.433594 6.96875 L 9.246094 0.558594 C 8.894531 0.199219 8.453125 0.0273438 7.996094 0.0273438 Z M 8.121094 1.371094 C 8.589844 1.375 9.878906 2.964844 11.027344 4.15625 C 11.351562 4.585938 10.902344 5.03125 10.902344 5.03125 L 8.496094 3.714844 L 7.433594 5.15625 L 6.496094 3.746094 L 5.933594 5.9375 L 4.277344 4.9375 L 4.714844 4.375 L 7.308594 1.714844 C 7.507812 1.511719 7.660156 1.367188 8.121094 1.371094 Z M 15.246094 11 C 15.117188 10.996094 14.992188 11.007812 14.902344 11.03125 C 14.730469 11.082031 13.929688 11.109375 13.996094 11.722656 C 14.722656 12.027344 15.832031 12.269531 15.964844 11.660156 C 16.0625 11.199219 15.625 11.015625 15.246094 11.003906 Z M 2.839844 13.035156 C 2.769531 13.042969 2.722656 13.070312 2.652344 13.097656 C 2.101562 13.304688 1.730469 13.75 2.246094 13.941406 C 2.761719 14.132812 3.105469 13.929688 3.558594 13.691406 C 4.011719 13.453125 3.996094 13.40625 3.964844 13.316406 C 3.902344 13.328125 3.492188 13.074219 3.058594 13.035156 C 2.984375 13.027344 2.910156 13.027344 2.839844 13.035156 Z M 2.839844 13.035156 "/>
</g>
</svg>
