
<svg xmlns="http://www.w3.org/2000/svg" xmlns:xlink="http://www.w3.org/1999/xlink" width="16px" height="16px" viewBox="0 0 16 16" version="1.1">
<g id="surface1">
<path style=" stroke:none;fill-rule:nonzero;fill:#ff6666;fill-opacity:1;" d="M 4.238281 15.863281 C 2.035156 15.636719 0.675781 14.496094 0.152344 12.445312 C 0.0195312 11.917969 0 11.355469 0 7.996094 C 0 3.789062 0.0234375 3.542969 0.542969 2.441406 C 0.847656 1.796875 1.695312 0.949219 2.355469 0.632812 C 3.449219 0.105469 3.691406 0.0820312 8 0.0820312 C 12.308594 0.0820312 12.550781 0.105469 13.644531 0.632812 C 14.304688 0.949219 15.152344 1.796875 15.457031 2.441406 C 15.976562 3.542969 16 3.789062 16 7.996094 C 16 12.199219 15.976562 12.445312 15.457031 13.550781 C 15.152344 14.191406 14.304688 15.039062 13.644531 15.355469 C 12.613281 15.851562 12.328125 15.882812 8.488281 15.910156 C 6.539062 15.929688 4.628906 15.902344 4.238281 15.863281 Z M 11.484375 14.449219 C 12.859375 14.316406 13.683594 13.847656 14.144531 12.945312 C 14.546875 12.160156 14.585938 11.71875 14.585938 7.996094 C 14.585938 4.269531 14.546875 3.832031 14.144531 3.042969 C 13.683594 2.140625 12.859375 1.675781 11.484375 1.539062 C 10.351562 1.429688 5.648438 1.429688 4.515625 1.539062 C 2.757812 1.710938 1.882812 2.425781 1.535156 3.972656 C 1.363281 4.726562 1.363281 11.261719 1.535156 12.019531 C 1.871094 13.515625 2.78125 14.289062 4.394531 14.445312 C 5.449219 14.546875 10.453125 14.550781 11.484375 14.449219 Z M 6.929688 11.933594 C 5.808594 11.625 4.753906 10.746094 4.273438 9.71875 C 3.015625 7.019531 5.003906 3.929688 8 3.929688 C 10.027344 3.929688 11.75 5.398438 12.066406 7.398438 C 12.382812 9.417969 11.058594 11.398438 9.027344 11.941406 C 8.472656 12.085938 7.476562 12.085938 6.929688 11.9375 Z M 9.203125 10.355469 C 10.101562 9.898438 10.652344 9.003906 10.652344 7.996094 C 10.652344 6.988281 10.109375 6.101562 9.203125 5.625 C 8.816406 5.421875 8.644531 5.386719 8 5.386719 C 7.355469 5.386719 7.183594 5.421875 6.796875 5.625 C 6.230469 5.921875 5.667969 6.550781 5.488281 7.085938 C 4.988281 8.550781 5.773438 10.070312 7.292969 10.570312 C 7.726562 10.714844 8.722656 10.601562 9.203125 10.355469 Z M 11.925781 4.597656 C 11.3125 4.328125 11.164062 3.617188 11.617188 3.109375 C 11.992188 2.691406 12.585938 2.691406 12.960938 3.109375 C 13.636719 3.867188 12.847656 5 11.925781 4.597656 Z M 11.925781 4.597656 "/>
</g>
</svg>
