
<svg xmlns="http://www.w3.org/2000/svg" xmlns:xlink="http://www.w3.org/1999/xlink" width="16px" height="16px" viewBox="0 0 16 16" version="1.1">
<g id="surface1">
<path style=" stroke:none;fill-rule:evenodd;fill:#ff6666;fill-opacity:1;" d="M 1.652344 0 C 1.1875 0.105469 0.820312 0.394531 0.859375 0.921875 L 1.480469 10.871094 C 1.503906 11.1875 1.65625 11.472656 1.894531 11.652344 L 7.484375 15.824219 C 7.796875 16.058594 8.203125 16.058594 8.515625 15.824219 L 14.105469 11.652344 C 14.34375 11.472656 14.496094 11.1875 14.519531 10.871094 L 15.140625 0.921875 C 15.179688 0.394531 14.8125 0.105469 14.347656 0 Z M 8.398438 4.285156 L 7.207031 5.601562 L 8.398438 5.601562 L 8.792969 6 L 9.585938 4.800781 L 9.191406 4.285156 Z M 9.984375 4.855469 L 9.191406 6 L 9.585938 7.199219 L 10.777344 6 L 10.777344 6.398438 L 9.585938 7.601562 L 9.984375 8.398438 L 11.570312 6.800781 L 11.570312 7.199219 L 9.984375 8.800781 L 11.570312 8.800781 L 12.285156 8 L 12.285156 7.199219 L 12 6.800781 L 12 6 L 11.175781 5.601562 L 10.777344 4.855469 Z M 5.617188 6.800781 L 6.015625 8.800781 L 6.015625 9.199219 L 2.671875 12.234375 L 2.890625 12.394531 C 3.371094 11.953125 5.230469 10.257812 6.410156 9.199219 Z M 8.398438 10.398438 L 8.792969 10.398438 L 6.808594 12.800781 Z M 6.410156 6 L 6.015625 6.398438 L 6.808594 9.199219 L 3.53125 12.871094 L 5.984375 14.707031 L 9.191406 10.398438 L 9.984375 10.398438 L 10.382812 10 L 11.175781 9.601562 L 11.570312 9.144531 L 9.585938 9.144531 L 9.191406 8 L 8.792969 8 L 8.398438 9.144531 L 7.601562 9.144531 L 8 8 L 7.207031 7.199219 L 7.601562 6.800781 L 8.398438 7.601562 L 9.191406 7.601562 L 9.191406 7.199219 L 8.398438 6 Z M 6.410156 6 "/>
</g>
</svg>
