
<svg xmlns="http://www.w3.org/2000/svg" xmlns:xlink="http://www.w3.org/1999/xlink" width="16px" height="16px" viewBox="0 0 16 16" version="1.1">
<g id="surface1">
<path style=" stroke:none;fill-rule:nonzero;fill:#ff6666;fill-opacity:1;" d="M 9.828125 11.390625 L 11.785156 11.390625 L 11.785156 15.304688 L 9.828125 15.304688 Z M 9.828125 11.390625 "/>
<path style=" stroke:none;fill-rule:nonzero;fill:#ff6666;fill-opacity:1;" d="M 11.78125 9.105469 C 11.78125 9.644531 11.34375 10.082031 10.804688 10.082031 C 10.265625 10.082031 9.828125 9.644531 9.828125 9.105469 C 9.828125 8.5625 10.265625 8.125 10.804688 8.125 C 11.34375 8.125 11.78125 8.5625 11.78125 9.105469 Z M 11.78125 9.105469 "/>
<path style=" stroke:none;fill-rule:nonzero;fill:#ff6666;fill-opacity:1;" d="M 10.476562 2.910156 C 7.246094 2.910156 4.609375 5.542969 4.609375 8.777344 L 4.609375 9.429688 L 5.914062 9.429688 L 5.914062 8.777344 C 5.914062 6.25 7.949219 4.214844 10.476562 4.214844 L 11.128906 4.214844 L 11.128906 2.910156 Z M 10.476562 2.910156 "/>
<path style=" stroke:none;fill-rule:nonzero;fill:#ff6666;fill-opacity:1;" d="M 10.476562 5.519531 C 8.683594 5.519531 7.21875 6.984375 7.21875 8.777344 L 7.21875 9.429688 L 8.523438 9.429688 L 8.523438 8.777344 C 8.523438 7.6875 9.390625 6.824219 10.476562 6.824219 L 11.128906 6.824219 L 11.128906 5.519531 Z M 10.476562 5.519531 "/>
<path style=" stroke:none;fill-rule:nonzero;fill:#ff6666;fill-opacity:1;" d="M 10.476562 0.300781 C 5.804688 0.300781 2 4.101562 2 8.777344 L 2 9.429688 L 3.304688 9.429688 L 3.304688 8.777344 C 3.304688 4.808594 6.507812 1.605469 10.476562 1.605469 L 11.128906 1.605469 L 11.128906 0.300781 Z M 10.476562 0.300781 "/>
<path style=" stroke:none;fill-rule:nonzero;fill:#ff6666;fill-opacity:1;" d="M 9.828125 11.390625 L 11.785156 11.390625 L 11.785156 15.304688 L 9.828125 15.304688 Z M 9.828125 11.390625 "/>
<path style=" stroke:none;fill-rule:nonzero;fill:#ff6666;fill-opacity:1;" d="M 11.78125 9.105469 C 11.78125 9.644531 11.34375 10.082031 10.804688 10.082031 C 10.265625 10.082031 9.828125 9.644531 9.828125 9.105469 C 9.828125 8.5625 10.265625 8.125 10.804688 8.125 C 11.34375 8.125 11.78125 8.5625 11.78125 9.105469 Z M 11.78125 9.105469 "/>
</g>
</svg>
