
<svg xmlns="http://www.w3.org/2000/svg" xmlns:xlink="http://www.w3.org/1999/xlink" width="16px" height="16px" viewBox="0 0 16 16" version="1.1">
<g id="surface1">
<path style=" stroke:none;fill-rule:nonzero;fill:#ff6666;fill-opacity:1;" d="M 0.00390625 15.992188 C 0 15.980469 0 12.382812 0 7.988281 L 0.00390625 0 L 16 0 L 16 16 L 8.003906 16 C 1.613281 16 0.0078125 16 0.00390625 15.988281 Z M 7.605469 13.300781 L 7.605469 12.800781 L 1.605469 12.800781 L 1.605469 13.796875 L 7.605469 13.796875 Z M 9.273438 8.871094 C 9.839844 8.792969 10.257812 8.597656 10.582031 8.257812 C 10.949219 7.867188 11.144531 7.328125 11.195312 6.578125 C 11.199219 6.460938 11.207031 5.5 11.207031 4.144531 L 11.207031 1.902344 L 9.707031 1.902344 L 9.703125 4.246094 C 9.695312 6.691406 9.699219 6.632812 9.644531 6.839844 C 9.558594 7.175781 9.367188 7.386719 9.070312 7.46875 C 8.953125 7.5 8.640625 7.496094 8.515625 7.457031 C 8.273438 7.390625 8.050781 7.25 7.796875 7.003906 C 7.703125 6.90625 7.621094 6.832031 7.617188 6.832031 C 7.613281 6.832031 7.40625 7.066406 7.160156 7.355469 C 6.824219 7.738281 6.707031 7.878906 6.714844 7.894531 C 6.738281 7.9375 6.949219 8.148438 7.070312 8.253906 C 7.480469 8.609375 7.976562 8.824219 8.511719 8.882812 C 8.65625 8.898438 9.117188 8.894531 9.273438 8.867188 Z M 5.601562 8.148438 L 5.601562 7.496094 L 4.605469 7.496094 L 4.605469 3.199219 L 5.601562 3.199219 L 5.601562 1.902344 L 2.207031 1.902344 L 2.207031 3.199219 L 3.203125 3.199219 L 3.203125 7.496094 L 2.207031 7.496094 L 2.207031 8.804688 L 5.601562 8.804688 Z M 5.601562 8.148438 "/>
</g>
</svg>
