
<svg xmlns="http://www.w3.org/2000/svg" xmlns:xlink="http://www.w3.org/1999/xlink" width="16px" height="16px" viewBox="0 0 16 16" version="1.1">
<g id="surface1">
<path style=" stroke:none;fill-rule:evenodd;fill:#ff6666;fill-opacity:1;" d="M 9.285156 6.667969 L 11.667969 6.667969 L 11.667969 13.332031 L 13 13.332031 L 13 6.667969 L 16 6.667969 L 16 5.332031 L 8.882812 5.332031 C 8.136719 3.757812 6.527344 2.667969 4.667969 2.667969 C 2.089844 2.667969 0 4.757812 0 7.332031 C 0 9.910156 2.089844 12 4.667969 12 C 7.242188 12 9.332031 9.910156 9.332031 7.332031 C 9.332031 7.105469 9.316406 6.882812 9.285156 6.667969 Z M 4.667969 4.066406 C 6.472656 4.066406 7.933594 5.527344 7.933594 7.332031 C 7.933594 9.136719 6.472656 10.601562 4.667969 10.601562 C 2.863281 10.601562 1.398438 9.136719 1.398438 7.332031 C 1.398438 5.527344 2.863281 4.066406 4.667969 4.066406 Z M 4.667969 4.066406 "/>
</g>
</svg>
