
<svg xmlns="http://www.w3.org/2000/svg" xmlns:xlink="http://www.w3.org/1999/xlink" width="16px" height="16px" viewBox="0 0 16 16" version="1.1">
<g id="surface1">
<path style=" stroke:none;fill-rule:evenodd;fill:#ff6666;fill-opacity:1;" d="M 1 9.84375 L 2.003906 9.84375 L 2.003906 6.15625 L 1 6.15625 L 1 5.613281 L 3.660156 5.613281 L 3.660156 6.15625 L 2.65625 6.15625 L 2.65625 9.84375 L 3.660156 9.84375 L 3.660156 10.386719 L 1 10.386719 Z M 4.863281 5.613281 L 6.261719 5.613281 C 6.792969 5.613281 7.199219 5.730469 7.480469 5.972656 C 7.621094 6.097656 7.726562 6.253906 7.792969 6.433594 C 7.859375 6.613281 7.894531 6.816406 7.894531 7.042969 C 7.894531 7.511719 7.757812 7.867188 7.484375 8.105469 C 7.210938 8.347656 6.804688 8.46875 6.261719 8.46875 L 5.511719 8.46875 L 5.511719 10.386719 L 4.863281 10.386719 Z M 6.261719 7.9375 C 6.421875 7.9375 6.5625 7.917969 6.675781 7.875 C 6.792969 7.832031 6.886719 7.773438 6.964844 7.699219 C 7.132812 7.542969 7.214844 7.324219 7.214844 7.039062 C 7.214844 6.753906 7.132812 6.535156 6.964844 6.375 C 6.804688 6.21875 6.570312 6.144531 6.261719 6.144531 L 5.511719 6.144531 L 5.511719 7.9375 Z M 8.855469 6.1875 L 9.699219 6.1875 L 9.699219 6.472656 L 9.222656 6.472656 L 9.222656 9.527344 L 9.699219 9.527344 L 9.699219 9.8125 L 8.855469 9.8125 Z M 11.410156 9.058594 C 11.304688 9.320312 11.203125 9.496094 11.105469 9.574219 C 11.007812 9.65625 10.875 9.695312 10.710938 9.695312 L 10.421875 9.695312 L 10.421875 9.390625 L 10.632812 9.390625 C 10.734375 9.390625 10.8125 9.367188 10.867188 9.320312 C 10.925781 9.273438 10.988281 9.160156 11.054688 8.980469 L 11.121094 8.816406 L 10.21875 6.628906 L 10.605469 6.628906 L 11.304688 8.367188 L 12 6.628906 L 12.386719 6.628906 Z M 13.75 6.1875 L 13.75 9.8125 L 12.90625 9.8125 L 12.90625 9.527344 L 13.382812 9.527344 L 13.382812 6.472656 L 12.90625 6.472656 L 12.90625 6.1875 Z M 14.578125 8.546875 L 15 8.546875 L 15 9.050781 L 14.578125 9.050781 Z M 14.578125 6.949219 L 15 6.949219 L 15 7.453125 L 14.578125 7.453125 Z M 14.578125 6.949219 "/>
</g>
</svg>
