
<svg xmlns="http://www.w3.org/2000/svg" xmlns:xlink="http://www.w3.org/1999/xlink" width="16px" height="16px" viewBox="0 0 16 16" version="1.1">
<g id="surface1">
<path style=" stroke:none;fill-rule:nonzero;fill:#ff6666;fill-opacity:1;" d="M 7.601562 0.800781 C 5.070312 0.804688 2.976562 2.769531 2.816406 5.289062 C 1.171875 5.65625 0.00390625 7.117188 0 8.800781 C 0 10.789062 1.613281 12.398438 3.601562 12.398438 L 3.582031 12.398438 L 3.910156 12.417969 C 3.988281 12.691406 4.058594 12.96875 4.039062 13.238281 C 4.050781 13.917969 3.675781 14.332031 3.21875 14.726562 C 3.101562 14.789062 3.011719 14.863281 3.023438 14.886719 C 3.050781 14.972656 3.582031 15.152344 3.898438 15.1875 C 4.300781 15.226562 4.867188 15.175781 5.1875 15.054688 C 5.699219 14.863281 6.113281 14.542969 6.402344 14.109375 C 6.652344 13.738281 6.78125 13.367188 6.820312 12.941406 L 6.855469 12.417969 L 8.863281 12.398438 L 13 12.398438 C 14.65625 12.398438 16 11.058594 16 9.398438 C 16 7.742188 14.65625 6.398438 13 6.398438 C 12.769531 6.402344 12.539062 6.429688 12.316406 6.484375 C 12.371094 6.191406 12.398438 5.894531 12.398438 5.601562 C 12.398438 2.949219 10.25 0.800781 7.601562 0.800781 Z M 7.601562 0.800781 "/>
</g>
</svg>
