
<svg xmlns="http://www.w3.org/2000/svg" xmlns:xlink="http://www.w3.org/1999/xlink" width="16px" height="16px" viewBox="0 0 16 16" version="1.1">
<g id="surface1">
<path style=" stroke:none;fill-rule:nonzero;fill:#ff6666;fill-opacity:1;" d="M 7.296875 3.199219 C 6.207031 3.167969 5.160156 3.390625 4.195312 3.617188 C 2.773438 3.953125 0.429688 4.992188 0.429688 4.992188 C -0.136719 5.238281 -0.144531 6.039062 0.414062 6.296875 C 1.21875 6.710938 2.441406 6.882812 2.609375 7.8125 C 2.859375 9.179688 1.421875 10.4375 0.660156 11.699219 C 0.203125 12.425781 1.175781 13.195312 1.769531 12.578125 C 1.769531 12.578125 5.460938 9.152344 10.277344 9.023438 C 11.175781 9 12.367188 9.398438 13.300781 9.828125 C 14.234375 10.261719 14.898438 10.589844 14.898438 10.589844 C 15.488281 10.972656 16.21875 10.195312 15.9375 9.546875 C 14.558594 6.320312 11.699219 3.664062 7.769531 3.230469 L 7.765625 3.230469 C 7.605469 3.214844 7.449219 3.203125 7.296875 3.199219 Z M 7.296875 3.199219 "/>
</g>
</svg>
