
<svg xmlns="http://www.w3.org/2000/svg" xmlns:xlink="http://www.w3.org/1999/xlink" width="16px" height="16px" viewBox="0 0 16 16" version="1.1">
<g id="surface1">
<path style=" stroke:none;fill-rule:evenodd;fill:#ff6666;fill-opacity:1;" d="M 1.617188 1.453125 C 4.445312 4.675781 4.820312 8 4.671875 10.183594 C 4.539062 12.09375 3.363281 12.808594 3.140625 12.902344 C 2.671875 13.089844 1.570312 13.371094 0 12.363281 C 0 13.539062 1.007812 14.546875 2.765625 14.546875 C 4.523438 14.546875 5.960938 13.136719 6.25 11.546875 C 7.265625 3.347656 5.335938 2.195312 5.335938 2.195312 C 5.335938 2.195312 3.570312 1.453125 1.617188 1.453125 Z M 7.273438 1.453125 C 7.785156 3.628906 11.636719 4.488281 11.636719 5.519531 C 11.636719 6.554688 8.683594 6.734375 8.726562 8.410156 C 8.769531 10.730469 12.492188 13.796875 16 14.546875 C 14.460938 12.761719 10.566406 8.875 11.851562 7.875 C 16.472656 4.734375 12.234375 2.167969 7.273438 1.453125 Z M 7.273438 1.453125 "/>
</g>
</svg>
