
<svg xmlns="http://www.w3.org/2000/svg" xmlns:xlink="http://www.w3.org/1999/xlink" width="16px" height="16px" viewBox="0 0 16 16" version="1.1">
<g id="surface1">
<path style=" stroke:none;fill-rule:nonzero;fill:#ff6666;fill-opacity:1;" d="M 12.554688 15.835938 C 12.140625 15.691406 11.539062 15.15625 9.296875 12.929688 C 7.78125 11.429688 6.441406 10.039062 6.316406 9.835938 C 5.941406 9.234375 6.085938 8.964844 7.566406 7.503906 C 9.484375 5.609375 9.074219 5.484375 12.628906 9.042969 C 15.707031 12.121094 15.941406 12.441406 15.949219 13.492188 C 15.949219 14.191406 15.539062 15.082031 15.042969 15.449219 C 14.273438 16.019531 13.445312 16.144531 12.554688 15.835938 Z M 14.460938 12.46875 C 14.511719 12.222656 9.777344 7.433594 9.484375 7.433594 C 9.382812 7.433594 9.265625 7.519531 9.226562 7.621094 C 9.171875 7.765625 9.777344 8.4375 11.632812 10.292969 C 13.074219 11.734375 14.179688 12.753906 14.269531 12.726562 C 14.355469 12.695312 14.441406 12.582031 14.460938 12.46875 Z M 3.140625 4.972656 C 0.433594 2.257812 0.0078125 1.714844 0 0.96875 C -0.00390625 0.570312 0.371094 0.121094 0.773438 0.0429688 C 1.582031 -0.121094 1.824219 0.0585938 4.835938 3.054688 C 6.40625 4.621094 7.675781 5.953125 7.652344 6.015625 C 7.53125 6.378906 7.148438 6.148438 6.058594 5.066406 L 4.914062 3.921875 L 3.90625 4.945312 L 5.078125 6.121094 C 5.898438 6.945312 6.230469 7.351562 6.183594 7.476562 C 6.144531 7.578125 6.046875 7.65625 5.96875 7.65625 C 5.886719 7.65625 4.617188 6.449219 3.140625 4.972656 Z M 3.847656 2.851562 C 3.699219 2.695312 3.53125 2.566406 3.472656 2.566406 C 3.414062 2.566406 3.171875 2.785156 2.9375 3.046875 L 2.503906 3.527344 L 2.804688 3.84375 L 3.101562 4.15625 L 4.117188 3.140625 Z M 2.242188 2.191406 L 2.722656 1.699219 L 2.15625 1.171875 C 1.675781 0.722656 1.523438 0.644531 1.128906 0.644531 C 0.589844 0.644531 0.484375 0.800781 0.667969 1.359375 C 0.792969 1.730469 1.519531 2.679688 1.679688 2.679688 C 1.722656 2.679688 1.976562 2.460938 2.242188 2.191406 Z M 2.242188 2.191406 "/>
</g>
</svg>
