
<svg xmlns="http://www.w3.org/2000/svg" xmlns:xlink="http://www.w3.org/1999/xlink" width="16px" height="16px" viewBox="0 0 16 16" version="1.1">
<g id="surface1">
<path style=" stroke:none;fill-rule:evenodd;fill:#ff6666;fill-opacity:1;" d="M 8.445312 3.214844 C 7.949219 3.214844 7.570312 3.085938 7.3125 2.820312 C 7.054688 2.554688 6.925781 2.175781 6.925781 1.679688 C 6.925781 1.164062 7.074219 0.753906 7.371094 0.453125 C 7.664062 0.152344 8.066406 0 8.574219 0 C 9.046875 0 9.417969 0.132812 9.679688 0.402344 C 9.945312 0.671875 10.078125 1.050781 10.078125 1.535156 C 10.078125 2.050781 9.929688 2.460938 9.640625 2.765625 C 9.347656 3.066406 8.949219 3.214844 8.445312 3.214844 Z M 6.554688 16 L 5.792969 15.304688 L 5.824219 15.0625 C 6.289062 14.609375 6.601562 14.136719 6.765625 13.640625 C 6.925781 13.144531 7.007812 12.417969 7.007812 11.460938 L 7.007812 6.996094 C 7.007812 6.644531 6.96875 6.398438 6.894531 6.261719 C 6.816406 6.128906 6.675781 6.0625 6.472656 6.0625 C 6.34375 6.0625 6.234375 6.066406 6.140625 6.078125 C 6.050781 6.085938 5.988281 6.097656 5.957031 6.109375 L 6.085938 4.800781 C 6.957031 4.671875 7.765625 4.542969 8.507812 4.421875 C 9.253906 4.296875 9.746094 4.210938 9.996094 4.171875 L 10.207031 4.523438 C 9.914062 5.183594 9.769531 7.746094 9.769531 12.21875 C 9.769531 12.960938 9.480469 13.675781 8.898438 14.359375 C 8.316406 15.042969 7.535156 15.589844 6.554688 16 Z M 6.554688 16 "/>
</g>
</svg>
