
<svg xmlns="http://www.w3.org/2000/svg" xmlns:xlink="http://www.w3.org/1999/xlink" width="16px" height="16px" viewBox="0 0 16 16" version="1.1">
<g id="surface1">
<path style=" stroke:none;fill-rule:nonzero;fill:#ff6666;fill-opacity:1;" d="M 7.921875 2.996094 C 7.1875 3.511719 6.355469 4.097656 5.90625 5.066406 C 5.132812 6.757812 7.492188 8.601562 7.59375 8.679688 C 7.617188 8.699219 7.644531 8.707031 7.675781 8.707031 C 7.703125 8.707031 7.734375 8.695312 7.757812 8.675781 C 7.804688 8.636719 7.816406 8.570312 7.789062 8.515625 C 7.78125 8.5 6.933594 6.855469 6.964844 5.671875 C 6.976562 5.261719 7.550781 4.796875 8.160156 4.300781 C 8.71875 3.847656 9.351562 3.335938 9.722656 2.734375 C 10.535156 1.414062 9.632812 0.117188 9.621094 0.105469 C 9.585938 0.0546875 9.519531 0.0351562 9.464844 0.0625 C 9.40625 0.0859375 9.375 0.148438 9.386719 0.207031 C 9.390625 0.214844 9.566406 1.074219 9.078125 1.957031 C 8.875 2.324219 8.433594 2.636719 7.921875 2.996094 Z M 7.921875 2.996094 "/>
<path style=" stroke:none;fill-rule:nonzero;fill:#ff6666;fill-opacity:1;" d="M 11.015625 3.578125 C 11.070312 3.539062 11.082031 3.46875 11.050781 3.410156 C 11.019531 3.355469 10.953125 3.328125 10.890625 3.351562 C 10.765625 3.398438 7.835938 4.53125 7.835938 5.894531 C 7.835938 6.835938 8.238281 7.332031 8.53125 7.695312 C 8.644531 7.839844 8.746094 7.960938 8.777344 8.066406 C 8.871094 8.371094 8.652344 8.917969 8.558594 9.101562 C 8.535156 9.15625 8.546875 9.21875 8.59375 9.257812 C 8.617188 9.28125 8.648438 9.289062 8.675781 9.289062 C 8.703125 9.289062 8.730469 9.28125 8.75 9.265625 C 8.800781 9.230469 9.984375 8.394531 9.773438 7.390625 C 9.691406 7.007812 9.503906 6.726562 9.339844 6.480469 C 9.082031 6.097656 8.894531 5.824219 9.179688 5.3125 C 9.507812 4.71875 11 3.589844 11.015625 3.578125 Z M 11.015625 3.578125 "/>
<path style=" stroke:none;fill-rule:nonzero;fill:#ff6666;fill-opacity:1;" d="M 3.386719 9.3125 C 3.335938 9.460938 3.359375 9.613281 3.453125 9.742188 C 3.773438 10.183594 4.898438 10.425781 6.625 10.425781 C 6.859375 10.425781 7.105469 10.421875 7.359375 10.414062 C 10.117188 10.316406 11.140625 9.457031 11.183594 9.417969 C 11.230469 9.378906 11.242188 9.3125 11.214844 9.257812 C 11.183594 9.207031 11.125 9.179688 11.066406 9.195312 C 10.09375 9.460938 8.277344 9.554688 7.019531 9.554688 C 5.609375 9.554688 4.890625 9.453125 4.714844 9.378906 C 4.804688 9.253906 5.363281 9.03125 6.050781 8.898438 C 6.117188 8.882812 6.164062 8.824219 6.15625 8.757812 C 6.148438 8.691406 6.09375 8.640625 6.027344 8.640625 C 5.621094 8.640625 3.597656 8.671875 3.386719 9.3125 Z M 3.386719 9.3125 "/>
<path style=" stroke:none;fill-rule:nonzero;fill:#ff6666;fill-opacity:1;" d="M 12.621094 8.425781 C 12.050781 8.425781 11.511719 8.710938 11.488281 8.722656 C 11.4375 8.75 11.410156 8.8125 11.425781 8.871094 C 11.4375 8.929688 11.492188 8.96875 11.550781 8.96875 C 11.5625 8.96875 12.765625 8.980469 12.875 9.664062 C 12.972656 10.257812 11.738281 11.21875 11.253906 11.539062 C 11.199219 11.574219 11.179688 11.640625 11.203125 11.699219 C 11.226562 11.746094 11.273438 11.777344 11.324219 11.777344 C 11.335938 11.777344 11.34375 11.777344 11.351562 11.773438 C 11.46875 11.75 14.160156 11.15625 13.875 9.589844 C 13.703125 8.628906 13.097656 8.425781 12.621094 8.425781 Z M 12.621094 8.425781 "/>
<path style=" stroke:none;fill-rule:nonzero;fill:#ff6666;fill-opacity:1;" d="M 10.773438 11.347656 C 10.785156 11.296875 10.761719 11.246094 10.722656 11.214844 L 10.074219 10.761719 C 10.042969 10.742188 10.003906 10.734375 9.96875 10.746094 C 9.960938 10.746094 9.285156 10.921875 8.304688 11.03125 C 7.917969 11.074219 7.480469 11.097656 7.046875 11.097656 C 6.066406 11.097656 5.425781 10.984375 5.332031 10.898438 C 5.320312 10.875 5.324219 10.863281 5.324219 10.859375 C 5.339844 10.8125 5.433594 10.753906 5.492188 10.734375 C 5.554688 10.710938 5.589844 10.640625 5.570312 10.574219 C 5.550781 10.507812 5.480469 10.46875 5.414062 10.484375 C 4.765625 10.640625 4.449219 10.859375 4.472656 11.132812 C 4.515625 11.621094 5.644531 11.871094 6.597656 11.9375 C 6.734375 11.945312 6.882812 11.953125 7.039062 11.953125 C 8.625 11.953125 10.65625 11.453125 10.679688 11.449219 C 10.726562 11.4375 10.765625 11.398438 10.773438 11.347656 Z M 10.773438 11.347656 "/>
<path style=" stroke:none;fill-rule:nonzero;fill:#ff6666;fill-opacity:1;" d="M 5.90625 12.390625 C 5.957031 12.359375 5.976562 12.300781 5.960938 12.242188 C 5.941406 12.1875 5.890625 12.152344 5.832031 12.152344 C 5.746094 12.15625 4.984375 12.1875 4.929688 12.675781 C 4.914062 12.820312 4.953125 12.953125 5.054688 13.070312 C 5.328125 13.394531 6.066406 13.585938 7.3125 13.660156 C 7.460938 13.667969 7.609375 13.671875 7.757812 13.671875 C 9.339844 13.671875 10.410156 13.175781 10.453125 13.15625 C 10.496094 13.132812 10.523438 13.089844 10.527344 13.042969 C 10.53125 12.996094 10.507812 12.949219 10.464844 12.925781 L 9.648438 12.425781 C 9.621094 12.410156 9.585938 12.402344 9.554688 12.410156 C 9.550781 12.410156 9.03125 12.519531 8.25 12.625 C 8.101562 12.644531 7.917969 12.65625 7.699219 12.65625 C 6.917969 12.65625 6.050781 12.527344 5.882812 12.445312 C 5.878906 12.429688 5.882812 12.410156 5.90625 12.390625 Z M 5.90625 12.390625 "/>
<path style=" stroke:none;fill-rule:nonzero;fill:#ff6666;fill-opacity:1;" d="M 7.019531 15.167969 C 10.648438 15.167969 12.597656 14.519531 12.972656 14.113281 C 13.105469 13.972656 13.117188 13.835938 13.105469 13.746094 C 13.078125 13.527344 12.878906 13.394531 12.855469 13.378906 C 12.804688 13.34375 12.730469 13.351562 12.6875 13.402344 C 12.644531 13.453125 12.644531 13.523438 12.6875 13.570312 C 12.710938 13.601562 12.722656 13.652344 12.65625 13.71875 C 12.503906 13.859375 10.992188 14.28125 8.472656 14.410156 C 8.128906 14.429688 7.765625 14.4375 7.398438 14.4375 C 5.140625 14.4375 3.492188 14.128906 3.273438 13.949219 C 3.359375 13.828125 3.941406 13.636719 4.5625 13.527344 C 4.632812 13.515625 4.679688 13.449219 4.671875 13.378906 C 4.660156 13.308594 4.59375 13.261719 4.523438 13.269531 C 4.507812 13.273438 4.445312 13.277344 4.378906 13.28125 C 3.351562 13.34375 2.167969 13.484375 2.109375 14.011719 C 2.089844 14.171875 2.136719 14.316406 2.25 14.445312 C 2.527344 14.757812 3.320312 15.167969 7.019531 15.167969 Z M 7.019531 15.167969 "/>
<path style=" stroke:none;fill-rule:nonzero;fill:#ff6666;fill-opacity:1;" d="M 13.683594 14.230469 C 13.632812 14.207031 13.570312 14.21875 13.535156 14.257812 C 13.527344 14.265625 12.984375 14.835938 11.34375 15.171875 C 10.714844 15.296875 9.535156 15.359375 7.839844 15.359375 C 6.136719 15.359375 4.519531 15.292969 4.503906 15.292969 C 4.4375 15.289062 4.378906 15.339844 4.371094 15.40625 C 4.359375 15.472656 4.402344 15.535156 4.46875 15.550781 C 4.484375 15.554688 6.179688 15.949219 8.5 15.949219 C 9.609375 15.949219 10.691406 15.859375 11.714844 15.683594 C 13.621094 15.347656 13.753906 14.402344 13.757812 14.363281 C 13.765625 14.308594 13.734375 14.253906 13.683594 14.230469 Z M 13.683594 14.230469 "/>
</g>
</svg>
