
<svg xmlns="http://www.w3.org/2000/svg" xmlns:xlink="http://www.w3.org/1999/xlink" width="16px" height="16px" viewBox="0 0 16 16" version="1.1">
<g id="surface1">
<path style=" stroke:none;fill-rule:nonzero;fill:#ff6666;fill-opacity:1;" d="M 8 0 C 3.582031 0 0 3.582031 0 8 C 0 8.738281 0.105469 9.476562 0.304688 10.1875 C 0.292969 10.027344 0.285156 9.871094 0.285156 9.714844 C 0.285156 6.402344 2.972656 3.714844 6.285156 3.714844 C 9.597656 3.714844 12.285156 6.402344 12.285156 9.714844 C 12.285156 13.027344 9.597656 15.714844 6.285156 15.714844 C 6.132812 15.710938 5.976562 15.703125 5.824219 15.691406 C 6.53125 15.894531 7.265625 15.996094 8 16 C 12.417969 16 16 12.417969 16 8 C 16 3.582031 12.417969 0 8 0 Z M 8 0 "/>
</g>
</svg>
