
<svg xmlns="http://www.w3.org/2000/svg" xmlns:xlink="http://www.w3.org/1999/xlink" width="16px" height="16px" viewBox="0 0 16 16" version="1.1">
<g id="surface1">
<path style=" stroke:none;fill-rule:evenodd;fill:#ff6666;fill-opacity:1;" d="M 8 0 C 5.882812 0 -0.933594 12.355469 0.105469 14.445312 C 1.144531 16.53125 14.867188 16.507812 15.894531 14.445312 C 16.921875 12.382812 10.117188 0 8 0 Z M 13.074219 12.429688 C 12.414062 13.753906 3.59375 13.769531 2.925781 12.429688 C 2.257812 11.085938 6.640625 3.144531 8 3.144531 C 9.363281 3.144531 13.734375 11.101562 13.074219 12.429688 Z M 5.179688 10.871094 C 4.808594 10.128906 7.242188 5.714844 8 5.714844 C 8.757812 5.714844 11.1875 10.136719 10.820312 10.871094 C 10.453125 11.609375 5.550781 11.617188 5.179688 10.871094 Z M 5.179688 10.871094 "/>
</g>
</svg>
