
<svg xmlns="http://www.w3.org/2000/svg" xmlns:xlink="http://www.w3.org/1999/xlink" width="16px" height="16px" viewBox="0 0 16 16" version="1.1">
<g id="surface1">
<path style=" stroke:none;fill-rule:nonzero;fill:#ff6666;fill-opacity:1;" d="M 11.65625 0 C 10.191406 1.550781 9.289062 3.210938 8.851562 5.097656 C 8.289062 7.535156 8.378906 10.21875 8.429688 13.960938 L 11.601562 13.960938 C 11.574219 11.933594 11.570312 10.285156 11.621094 8.886719 L 14.101562 8.886719 L 14.101562 5.714844 L 11.984375 5.714844 C 12.355469 4.183594 12.976562 3.054688 14.402344 1.726562 C 13.601562 0.988281 12.671875 0.402344 11.65625 0 Z M 7.757812 1.890625 L 4.585938 1.925781 C 4.640625 6.941406 4.484375 9.433594 4.039062 10.792969 C 3.644531 12 2.992188 12.660156 1.597656 13.960938 C 2.289062 14.785156 3.121094 15.472656 4.054688 16 C 5.421875 14.703125 6.476562 13.558594 7.054688 11.777344 C 7.753906 9.648438 7.8125 6.964844 7.757812 1.890625 Z M 7.757812 1.890625 "/>
</g>
</svg>
