
<svg xmlns="http://www.w3.org/2000/svg" xmlns:xlink="http://www.w3.org/1999/xlink" width="16px" height="16px" viewBox="0 0 16 16" version="1.1">
<g id="surface1">
<path style=" stroke:none;fill-rule:nonzero;fill:#ff6666;fill-opacity:1;" d="M 5.570312 15.964844 C 3.785156 15.800781 2.398438 15.226562 1.359375 14.210938 C 0.472656 13.351562 0.00390625 11.945312 0 10.90625 C 0 10.175781 0.207031 9.597656 0.628906 9.15625 C 1.109375 8.65625 1.660156 8.425781 2.390625 8.421875 C 3.304688 8.414062 4.089844 8.734375 4.425781 9.445312 C 4.570312 9.742188 4.578125 9.792969 4.609375 10.554688 C 4.640625 11.414062 4.683594 12.054688 4.894531 12.464844 C 5.191406 13.050781 6.007812 13.421875 6.839844 13.503906 C 8.101562 13.625 9.292969 12.910156 9.601562 11.710938 C 9.679688 11.40625 9.6875 11.015625 9.6875 7.042969 C 9.6875 2.792969 9.683594 3.089844 9.589844 2.921875 C 9.417969 2.628906 9.207031 2.558594 8.402344 2.539062 L 7.578125 2.539062 L 7.578125 0 L 16 0 L 16 2.539062 L 15.167969 2.539062 C 14.402344 2.566406 14.265625 2.601562 14.097656 2.785156 C 13.863281 3.035156 13.925781 2.5625 13.894531 7.1875 C 13.863281 11.773438 13.859375 11.820312 13.640625 12.425781 C 13.09375 13.941406 11.601562 15.210938 9.726562 15.699219 C 8.769531 15.945312 6.636719 16.0625 5.570312 15.964844 Z M 5.570312 15.964844 "/>
</g>
</svg>
