
<svg xmlns="http://www.w3.org/2000/svg" xmlns:xlink="http://www.w3.org/1999/xlink" width="16px" height="16px" viewBox="0 0 16 16" version="1.1">
<g id="surface1">
<path style=" stroke:none;fill-rule:nonzero;fill:#ff6666;fill-opacity:1;" d="M 5.589844 0.015625 L 0 2.660156 L 0 15.585938 C 0 15.660156 0.0234375 15.730469 0.0507812 15.785156 C 0.0820312 15.851562 0.132812 15.902344 0.199219 15.933594 C 0.257812 15.964844 0.324219 15.984375 0.398438 15.984375 C 0.480469 15.984375 0.550781 15.992188 0.550781 15.910156 L 5.589844 13.589844 L 10.378906 15.984375 L 15.96875 13.339844 L 15.96875 3.859375 L 10.378906 9.449219 L 10.378906 14.238281 L 6.3125 12.144531 L 5.589844 11.84375 L 5.589844 1.789062 L 5.664062 1.761719 L 9.183594 2.960938 L 10.53125 1.613281 L 10.628906 1.535156 L 10.378906 1.613281 Z M 14.148438 0.0664062 C 14.019531 0.0664062 13.90625 0.0859375 13.824219 0.164062 L 12.925781 1.0625 L 14.921875 3.058594 L 15.820312 2.160156 C 16.058594 1.921875 16.058594 1.621094 15.820312 1.464844 L 14.523438 0.164062 C 14.410156 0.09375 14.28125 0.0585938 14.148438 0.0664062 Z M 12.453125 1.535156 L 7.1875 6.800781 L 7.1875 8.796875 L 9.183594 8.796875 L 14.449219 3.53125 Z M 12.453125 1.535156 "/>
</g>
</svg>
