
<svg xmlns="http://www.w3.org/2000/svg" xmlns:xlink="http://www.w3.org/1999/xlink" width="16px" height="16px" viewBox="0 0 16 16" version="1.1">
<g id="surface1">
<path style=" stroke:none;fill-rule:nonzero;fill:#ff6666;fill-opacity:1;" d="M 7.386719 0 L 7.386719 3.753906 C 6.679688 3.859375 6.011719 4.140625 5.441406 4.566406 L 2.777344 1.90625 L 1.910156 2.777344 L 4.566406 5.441406 C 4.136719 6.011719 3.851562 6.679688 3.75 7.386719 L 0 7.386719 L 0 8.613281 L 3.75 8.613281 C 3.855469 9.34375 4.144531 10 4.566406 10.558594 L 1.910156 13.222656 L 2.777344 14.089844 L 5.441406 11.429688 C 6 11.847656 6.664062 12.140625 7.386719 12.246094 L 7.386719 16 L 8.613281 16 L 8.613281 12.246094 C 9.320312 12.140625 9.988281 11.859375 10.558594 11.429688 L 13.222656 14.089844 L 14.089844 13.222656 L 11.429688 10.558594 C 11.863281 9.992188 12.148438 9.324219 12.25 8.613281 L 16 8.613281 L 16 7.386719 L 12.25 7.386719 C 12.148438 6.675781 11.863281 6.007812 11.429688 5.441406 L 14.089844 2.777344 L 13.222656 1.910156 L 10.558594 4.566406 C 9.988281 4.140625 9.320312 3.859375 8.613281 3.753906 L 8.613281 0 Z M 8 4.921875 C 9.707031 4.921875 11.078125 6.292969 11.078125 8 C 11.078125 9.707031 9.707031 11.078125 8 11.078125 C 7.183594 11.078125 6.398438 10.757812 5.820312 10.179688 C 5.242188 9.601562 4.921875 8.816406 4.921875 8 C 4.921875 6.292969 6.292969 4.921875 8 4.921875 Z M 8 4.921875 "/>
</g>
</svg>
