
<svg xmlns="http://www.w3.org/2000/svg" xmlns:xlink="http://www.w3.org/1999/xlink" width="16px" height="16px" viewBox="0 0 16 16" version="1.1">
<g id="surface1">
<path style=" stroke:none;fill-rule:evenodd;fill:#ff6666;fill-opacity:1;" d="M 3.148438 9.917969 C 3.082031 9.746094 3.039062 9.566406 3.039062 9.40625 C 3.039062 9.300781 3.054688 9.21875 3.066406 9.144531 C 3.5 9.253906 3.992188 9.339844 4.511719 9.410156 L 4.511719 9.472656 C 4.511719 10.28125 5.066406 11.160156 6.09375 11.199219 C 6.128906 11.199219 6.164062 11.203125 6.199219 11.203125 C 6.589844 11.203125 6.945312 11.089844 7.210938 10.886719 C 7.4375 10.710938 7.710938 10.378906 7.710938 9.792969 L 7.710938 9.628906 C 7.808594 9.632812 7.902344 9.632812 8 9.632812 C 8.117188 9.632812 8.234375 9.628906 8.351562 9.628906 L 8.351562 9.792969 C 8.351562 10.765625 9.109375 11.203125 9.863281 11.203125 C 9.894531 11.203125 9.929688 11.199219 9.964844 11.199219 C 10.996094 11.160156 11.550781 10.28125 11.550781 9.472656 L 11.550781 9.402344 C 12.066406 9.328125 12.558594 9.242188 12.992188 9.128906 C 13.011719 9.195312 13.023438 9.273438 13.023438 9.375 C 13.023438 9.546875 12.980469 9.738281 12.910156 9.917969 L 12.914062 9.917969 C 12.773438 10.292969 12.519531 10.628906 12.253906 10.65625 L 12.0625 10.675781 L 11.988281 10.855469 C 11.082031 13.113281 9.910156 15.425781 8.035156 15.390625 C 6.074219 15.359375 4.835938 12.808594 4.074219 10.890625 L 4.003906 10.710938 L 3.8125 10.6875 C 3.574219 10.664062 3.300781 10.308594 3.148438 9.917969 Z M 2.496094 9.976562 C 2.433594 9.777344 2.398438 9.578125 2.398438 9.40625 C 2.398438 9.238281 2.421875 9.101562 2.460938 8.992188 C 0.972656 8.597656 0 8.007812 0 7.230469 C 0 6.421875 1.011719 5.78125 3 5.328125 C 3.585938 2.917969 4.332031 0.03125 5.984375 0.03125 C 6.460938 0.03125 6.8125 0.21875 7.121094 0.382812 C 7.410156 0.539062 7.660156 0.671875 8 0.671875 C 8.339844 0.671875 8.589844 0.539062 8.878906 0.382812 C 9.1875 0.21875 9.539062 0.03125 10.015625 0.03125 C 11.410156 0.03125 12.125 2.050781 12.691406 4.160156 L 12.703125 4.160156 C 12.703125 4.167969 12.699219 4.175781 12.699219 4.1875 C 12.792969 4.527344 12.882812 4.871094 12.96875 5.21875 L 12.996094 5.328125 C 14.988281 5.78125 16 6.421875 16 7.230469 C 16 7.996094 15.054688 8.582031 13.601562 8.976562 C 13.640625 9.078125 13.664062 9.210938 13.664062 9.375 C 13.664062 9.566406 13.625 9.78125 13.5625 9.996094 C 13.558594 10 13.558594 10.003906 13.554688 10.011719 C 14.1875 10.359375 15.082031 11.015625 15.9375 12.195312 C 15.988281 12.265625 16.011719 12.351562 15.996094 12.433594 C 15.980469 12.519531 15.933594 12.59375 15.863281 12.644531 L 13.007812 14.65625 L 13.65625 15.472656 C 13.757812 15.558594 13.792969 15.699219 13.746094 15.824219 C 13.699219 15.949219 13.578125 16.03125 13.445312 16.03125 L 2.558594 16.03125 C 2.4375 16.03125 2.324219 15.960938 2.273438 15.847656 C 2.21875 15.738281 2.234375 15.605469 2.3125 15.511719 L 2.992188 14.65625 L 0.136719 12.644531 C 0.0664062 12.59375 0.0195312 12.519531 0.00390625 12.433594 C -0.0117188 12.351562 0.0117188 12.265625 0.0625 12.195312 C 0.898438 11.039062 1.863281 10.332031 2.496094 9.976562 Z M 3.574219 5.675781 C 3.632812 5.433594 3.695312 5.175781 3.765625 4.902344 C 4.5625 5.507812 6.328125 5.789062 8 5.789062 C 9.664062 5.789062 11.417969 5.515625 12.234375 4.925781 L 12.347656 5.375 L 12.433594 5.714844 C 12.300781 6.105469 10.644531 6.75 8 6.75 C 5.359375 6.75 3.703125 6.105469 3.566406 5.714844 Z M 3.574219 5.675781 "/>
</g>
</svg>
