
<svg xmlns="http://www.w3.org/2000/svg" xmlns:xlink="http://www.w3.org/1999/xlink" width="16px" height="16px" viewBox="0 0 16 16" version="1.1">
<g id="surface1">
<path style=" stroke:none;fill-rule:nonzero;fill:#ff6666;fill-opacity:1;" d="M 8 0.5 C 3.859375 0.5 0.5 3.859375 0.5 8 C 0.5 12.140625 3.859375 15.5 8 15.5 C 12.140625 15.5 15.5 12.140625 15.5 8 C 15.5 3.859375 12.140625 0.5 8 0.5 Z M 8 0.945312 C 11.894531 0.945312 15.054688 4.105469 15.054688 8 C 15.054688 11.894531 11.894531 15.054688 8 15.054688 C 4.105469 15.054688 0.945312 11.894531 0.945312 8 C 0.945312 4.105469 4.105469 0.945312 8 0.945312 Z M 8 1.550781 C 5.730469 1.550781 3.738281 2.722656 2.585938 4.492188 C 3.320312 4.488281 4.105469 4.476562 4.890625 4.4375 C 4.925781 4.433594 4.953125 4.464844 4.953125 4.5 L 4.953125 4.886719 C 4.953125 4.921875 4.925781 4.953125 4.890625 4.953125 L 4.140625 4.953125 C 4.058594 4.953125 4.023438 5 4.054688 5.085938 L 6.398438 11.984375 L 7.820312 7.683594 L 6.875 5.09375 C 6.839844 5 6.796875 4.953125 6.652344 4.953125 L 6 4.953125 C 5.964844 4.953125 5.9375 4.921875 5.9375 4.886719 L 5.9375 4.5 C 5.9375 4.464844 5.964844 4.433594 6 4.4375 C 7.21875 4.488281 8.445312 4.488281 9.679688 4.4375 C 9.710938 4.433594 9.742188 4.464844 9.742188 4.5 L 9.742188 4.886719 C 9.742188 4.921875 9.710938 4.953125 9.679688 4.953125 L 9.023438 4.953125 C 8.894531 4.953125 8.855469 5.011719 8.890625 5.117188 L 11.199219 11.90625 L 12.042969 9.328125 C 13.066406 6.214844 11.167969 5.882812 11.214844 4.335938 C 11.238281 3.570312 11.800781 3.238281 12.363281 3.25 C 11.214844 2.195312 9.683594 1.550781 8 1.550781 Z M 13.671875 4.929688 C 13.707031 5.890625 13.417969 7.078125 13.109375 7.960938 L 11.09375 13.65625 C 13.09375 12.5625 14.449219 10.441406 14.449219 8 C 14.449219 6.886719 14.167969 5.84375 13.671875 4.929688 Z M 2.132812 5.328125 C 1.757812 6.140625 1.550781 7.046875 1.550781 8 C 1.550781 10.574219 3.058594 12.796875 5.242188 13.828125 Z M 8.109375 8.476562 L 6.125 14.171875 C 6.71875 14.351562 7.347656 14.449219 8 14.449219 C 8.757812 14.449219 9.484375 14.316406 10.160156 14.078125 Z M 8.109375 8.476562 "/>
</g>
</svg>
