
<svg xmlns="http://www.w3.org/2000/svg" xmlns:xlink="http://www.w3.org/1999/xlink" width="16px" height="16px" viewBox="0 0 16 16" version="1.1">
<g id="surface1">
<path style=" stroke:none;fill-rule:nonzero;fill:#ff6666;fill-opacity:1;" d="M 3.433594 0 L 3.566406 0 C 5.1875 0 6.5 1.335938 6.5 2.984375 L 6.5 13.015625 C 6.5 14.664062 5.1875 16 3.566406 16 L 3.433594 16 C 1.8125 16 0.5 14.664062 0.5 13.015625 L 0.5 2.984375 C 0.5 1.335938 1.8125 0 3.433594 0 Z M 3.433594 0 "/>
<path style=" stroke:none;fill-rule:nonzero;fill:#ff6666;fill-opacity:1;" d="M 5.910156 0 C 6.789062 0.710938 7.378906 1.789062 7.378906 3 L 7.378906 4 L 9.5 4 C 9.429688 2.898438 10.75 2 11.5 2 C 12.179688 2 12.5 2.011719 12.5 3 L 12.5 4 L 13.71875 4 C 14.949219 3.398438 15.5 2.03125 15.5 1.308594 C 15.5 0.570312 13.121094 0 11.808594 0 Z M 7.5 5 L 7.5 9.308594 C 10.269531 11.96875 13.628906 11.71875 13.628906 11.71875 C 13.628906 11.71875 13.980469 10.199219 11.71875 7.691406 L 9.351562 5 L 7.558594 5 C 7.539062 5 7.519531 5 7.5 5 Z M 10.480469 7.53125 L 12.160156 9.269531 C 10.359375 9.429688 10.011719 8.410156 10.480469 7.53125 Z M 10.480469 7.53125 "/>
</g>
</svg>
