
<svg xmlns="http://www.w3.org/2000/svg" xmlns:xlink="http://www.w3.org/1999/xlink" width="16px" height="16px" viewBox="0 0 16 16" version="1.1">
<g id="surface1">
<path style=" stroke:none;fill-rule:nonzero;fill:#ff6666;fill-opacity:1;" d="M 12.015625 3.25 C 8.175781 3.3125 5.992188 5.605469 4.863281 7.816406 C 3.925781 9.652344 3.710938 11.1875 3.644531 11.746094 L 0 11.746094 L 0 12.75 L 4.066406 12.75 C 4.328125 12.75 4.546875 12.550781 4.566406 12.289062 C 4.566406 12.289062 4.730469 10.28125 5.753906 8.269531 C 6.695312 6.425781 8.351562 4.695312 11.285156 4.371094 C 9.550781 8.171875 11.421875 12.457031 11.421875 12.457031 C 11.503906 12.636719 11.683594 12.75 11.875 12.75 L 16 12.75 L 16 11.746094 L 12.25 11.746094 C 12.0625 11.296875 10.386719 7.246094 12.445312 4.019531 C 12.542969 3.867188 12.550781 3.667969 12.460938 3.507812 C 12.371094 3.347656 12.203125 3.246094 12.015625 3.25 Z M 12.015625 3.25 "/>
</g>
</svg>
