
<svg xmlns="http://www.w3.org/2000/svg" xmlns:xlink="http://www.w3.org/1999/xlink" width="16px" height="16px" viewBox="0 0 16 16" version="1.1">
<g id="surface1">
<path style=" stroke:none;fill-rule:nonzero;fill:#ff6666;fill-opacity:1;" d="M 1.488281 1.503906 C 1.402344 1.503906 1.316406 1.503906 1.230469 1.507812 C 0.597656 1.515625 0.21875 1.535156 0.171875 1.5625 C 0.113281 1.59375 0.175781 1.609375 0.488281 1.625 C 3.683594 1.804688 4.871094 1.9375 6.234375 2.269531 C 6.820312 2.414062 7.671875 2.683594 7.941406 2.816406 L 8.113281 2.898438 L 8.179688 3.289062 C 8.253906 3.75 8.390625 4.207031 8.570312 4.597656 L 8.699219 4.875 L 8.519531 5.023438 C 7.796875 5.621094 7.535156 6.101562 7.480469 6.929688 C 7.402344 8.160156 8.089844 9.070312 9.332031 9.371094 C 9.503906 9.414062 9.867188 9.472656 10.132812 9.503906 C 11.726562 9.695312 12.371094 9.972656 13.261719 10.847656 C 13.605469 11.183594 14.066406 11.726562 14.285156 12.050781 C 14.648438 12.582031 14.972656 13.410156 15.105469 14.132812 L 15.171875 14.496094 L 15.183594 14.113281 C 15.21875 12.785156 14.453125 11.265625 13.175781 10.132812 C 12.972656 9.949219 12.820312 9.796875 12.84375 9.789062 C 12.921875 9.761719 13.59375 9.984375 13.941406 10.15625 C 14.746094 10.554688 15.378906 11.21875 15.8125 12.121094 C 15.90625 12.316406 15.992188 12.46875 15.996094 12.460938 C 16.023438 12.433594 15.8125 11.726562 15.699219 11.464844 C 15.289062 10.511719 14.480469 9.859375 13.265625 9.507812 C 12.792969 9.371094 12.289062 9.277344 11.140625 9.113281 C 10.566406 9.035156 9.933594 8.925781 9.738281 8.875 C 8.804688 8.640625 8.320312 8.226562 8.179688 7.554688 C 8.117188 7.269531 8.128906 6.753906 8.195312 6.519531 C 8.355469 5.96875 8.851562 5.519531 9.550781 5.289062 C 9.996094 5.140625 10.753906 5.304688 12.140625 5.851562 L 12.875 6.140625 L 12.878906 6.292969 C 12.878906 6.539062 12.972656 6.644531 13.402344 6.875 C 13.652344 7.007812 13.875 7.160156 14.03125 7.308594 L 14.277344 7.535156 L 14.472656 7.359375 C 14.578125 7.265625 14.667969 7.175781 14.667969 7.164062 C 14.667969 7.152344 14.609375 7.121094 14.539062 7.097656 C 14.464844 7.074219 14.304688 6.980469 14.179688 6.890625 C 14.003906 6.757812 13.960938 6.707031 13.976562 6.648438 C 14.007812 6.550781 13.585938 5.921875 13.46875 5.890625 C 13.417969 5.878906 13.328125 5.867188 13.265625 5.867188 C 13.167969 5.867188 13.121094 5.828125 12.976562 5.644531 C 12.882812 5.523438 12.769531 5.40625 12.730469 5.382812 C 12.660156 5.34375 12.652344 5.351562 12.652344 5.472656 C 12.652344 5.546875 12.640625 5.605469 12.625 5.605469 C 12.609375 5.605469 12.484375 5.492188 12.347656 5.355469 C 12.105469 5.117188 12.09375 5.109375 12.09375 5.203125 C 12.09375 5.261719 12.078125 5.308594 12.0625 5.308594 C 12.019531 5.308594 11.75 5.109375 11.6875 5.03125 C 11.625 4.957031 11.570312 4.953125 11.570312 5.019531 C 11.570312 5.054688 11.507812 5.039062 11.355469 4.964844 C 11.046875 4.8125 10.496094 4.675781 10.019531 4.632812 C 9.230469 4.5625 8.886719 4.378906 8.644531 3.890625 C 8.523438 3.65625 8.472656 3.386719 8.472656 2.992188 L 8.472656 2.65625 L 8.296875 2.570312 C 7.0625 1.945312 4.148438 1.496094 1.488281 1.503906 Z M 8.023438 2.90625 L 6.78125 2.933594 C 4.488281 2.980469 2.796875 3.132812 0.953125 3.464844 C 0.300781 3.578125 0.191406 3.609375 0.101562 3.695312 C 0.046875 3.746094 0 3.804688 0 3.820312 C 0 3.863281 -0.0078125 3.863281 0.601562 3.761719 C 1.675781 3.578125 2.871094 3.445312 4.21875 3.363281 C 4.773438 3.328125 7.445312 3.3125 7.988281 3.339844 C 8.113281 3.347656 8.117188 3.34375 8.105469 3.21875 C 8.097656 3.148438 8.078125 3.050781 8.058594 3 Z M 8.035156 3.523438 C 7.976562 3.519531 7.886719 3.535156 7.738281 3.554688 C 5.8125 3.8125 3.816406 4.488281 2.070312 5.472656 C 1.703125 5.679688 1.605469 5.761719 1.605469 5.855469 C 1.605469 5.882812 1.621094 5.902344 1.640625 5.902344 C 1.65625 5.902344 1.929688 5.769531 2.246094 5.609375 C 3.878906 4.761719 5.613281 4.230469 7.410156 4.019531 C 8.289062 3.917969 8.257812 3.925781 8.234375 3.871094 C 8.226562 3.84375 8.195312 3.753906 8.171875 3.667969 C 8.136719 3.5625 8.132812 3.523438 8.035156 3.523438 Z M 10.316406 3.863281 C 10.316406 3.863281 10.3125 3.863281 10.3125 3.863281 C 10.304688 3.871094 10.605469 4.039062 10.980469 4.234375 C 12.105469 4.8125 12.726562 5.21875 13.097656 5.613281 C 13.210938 5.730469 13.3125 5.828125 13.324219 5.828125 C 13.335938 5.828125 13.378906 5.808594 13.414062 5.78125 C 13.476562 5.734375 13.460938 5.714844 13.242188 5.511719 C 12.808594 5.105469 12.167969 4.671875 11.570312 4.371094 C 11.277344 4.226562 10.390625 3.867188 10.316406 3.863281 Z M 13.546875 6.257812 L 13.757812 6.503906 L 13.722656 6.527344 C 13.722656 6.527344 13.675781 6.523438 13.652344 6.519531 C 13.625 6.515625 13.59375 6.511719 13.566406 6.492188 C 13.550781 6.484375 13.53125 6.46875 13.527344 6.449219 C 13.507812 6.386719 13.546875 6.257812 13.546875 6.257812 Z M 13.546875 6.257812 "/>
</g>
</svg>
