
<svg xmlns="http://www.w3.org/2000/svg" xmlns:xlink="http://www.w3.org/1999/xlink" width="16px" height="16px" viewBox="0 0 16 16" version="1.1">
<g id="surface1">
<path style=" stroke:none;fill-rule:evenodd;fill:#ff6666;fill-opacity:1;" d="M 13.773438 3.984375 L 14.316406 4.902344 L 2.226562 12.015625 L 1.683594 11.097656 Z M 1.683594 4.902344 L 2.226562 3.984375 L 14.316406 11.097656 L 13.773438 12.015625 Z M 1.683594 4.902344 "/>
<path style=" stroke:none;fill-rule:nonzero;fill:#ff6666;fill-opacity:1;" d="M 1.957031 2.488281 C 0.875 2.488281 0 3.363281 0 4.445312 C 0 5.523438 0.875 6.398438 1.957031 6.398438 C 3.035156 6.398438 3.910156 5.523438 3.910156 4.445312 C 3.910156 3.363281 3.035156 2.488281 1.957031 2.488281 Z M 14.042969 2.488281 C 13.527344 2.488281 13.027344 2.695312 12.660156 3.0625 C 12.296875 3.429688 12.089844 3.925781 12.089844 4.445312 C 12.089844 4.964844 12.296875 5.460938 12.660156 5.828125 C 13.027344 6.195312 13.527344 6.398438 14.042969 6.398438 C 14.5625 6.398438 15.0625 6.195312 15.425781 5.828125 C 15.792969 5.460938 16 4.964844 16 4.445312 C 16 3.925781 15.792969 3.429688 15.425781 3.0625 C 15.0625 2.695312 14.5625 2.488281 14.042969 2.488281 Z M 8 4.976562 C 6.332031 4.976562 4.976562 6.332031 4.976562 8 C 4.976562 9.667969 6.332031 11.023438 8 11.023438 C 9.667969 11.023438 11.023438 9.667969 11.023438 8 C 11.023438 6.332031 9.667969 4.976562 8 4.976562 Z M 1.957031 9.601562 C 0.875 9.601562 0 10.476562 0 11.554688 C 0 12.636719 0.875 13.511719 1.957031 13.511719 C 3.035156 13.511719 3.910156 12.636719 3.910156 11.554688 C 3.910156 10.476562 3.035156 9.601562 1.957031 9.601562 Z M 14.042969 9.601562 C 13.527344 9.601562 13.027344 9.804688 12.660156 10.171875 C 12.296875 10.539062 12.089844 11.035156 12.089844 11.554688 C 12.089844 12.074219 12.296875 12.570312 12.660156 12.9375 C 13.027344 13.304688 13.527344 13.511719 14.042969 13.511719 C 14.5625 13.511719 15.0625 13.304688 15.425781 12.9375 C 15.792969 12.570312 16 12.074219 16 11.554688 C 16 11.035156 15.792969 10.539062 15.425781 10.171875 C 15.0625 9.804688 14.5625 9.601562 14.042969 9.601562 Z M 14.042969 9.601562 "/>
</g>
</svg>
