
<svg xmlns="http://www.w3.org/2000/svg" xmlns:xlink="http://www.w3.org/1999/xlink" width="16px" height="16px" viewBox="0 0 16 16" version="1.1">
<g id="surface1">
<path style=" stroke:none;fill-rule:evenodd;fill:#ff6666;fill-opacity:1;" d="M 11.335938 16 L 13.078125 15.960938 C 13.574219 15.425781 13.933594 14.871094 14.191406 14.316406 C 14.445312 13.761719 14.585938 13.164062 14.644531 12.511719 C 14.644531 12.035156 14.625 11.558594 14.585938 11.101562 C 14.546875 10.648438 14.46875 10.210938 14.308594 9.8125 C 14.03125 9.121094 13.59375 8.523438 12.980469 8.03125 C 12.367188 7.515625 11.851562 7.136719 11.394531 6.898438 L 11.632812 6.007812 L 11.808594 5.949219 L 11.808594 5.09375 L 10.066406 5.09375 C 9.730469 5.609375 9.550781 6.007812 9.472656 6.324219 L 9.410156 6.304688 L 7.726562 6.304688 C 7.367188 6.324219 7.03125 6.363281 6.714844 6.464844 L 6.792969 4.261719 L 9.53125 4.144531 C 10.5625 4.105469 11.652344 3.984375 12.839844 3.785156 L 12.839844 2.855469 L 9.589844 3.132812 C 8.679688 3.210938 7.785156 3.269531 6.875 3.3125 L 6.875 0 L 4.988281 0 L 4.988281 2.757812 C 4.988281 3.054688 4.96875 3.269531 4.949219 3.390625 L 4.058594 3.351562 L 1.480469 3.351562 L 1.480469 4.261719 L 2.867188 4.320312 L 4.871094 4.320312 L 4.792969 5.351562 L 4.792969 7.257812 C 4.632812 7.335938 4.394531 7.476562 4.097656 7.671875 C 3.800781 7.851562 3.523438 8.070312 3.246094 8.308594 C 2.730469 8.761719 2.3125 9.257812 1.996094 9.8125 C 1.660156 10.347656 1.460938 10.945312 1.363281 11.578125 C 1.34375 12.035156 1.363281 12.511719 1.421875 12.96875 C 1.480469 13.441406 1.660156 13.859375 1.996094 14.214844 C 2.253906 14.472656 2.570312 14.613281 2.90625 14.691406 L 4.792969 14.691406 C 5.1875 14.613281 5.523438 14.511719 5.824219 14.375 C 5.902344 14.691406 6.019531 15.089844 6.21875 15.585938 L 8.0625 15.585938 C 7.964844 14.988281 7.886719 14.53125 7.785156 14.195312 C 7.6875 13.859375 7.605469 13.542969 7.546875 13.203125 L 7.628906 13.125 C 8.359375 12.371094 9.015625 11.597656 9.550781 10.746094 C 10.105469 9.894531 10.480469 9.101562 10.738281 8.367188 L 11.316406 8.804688 C 11.789062 9.21875 12.128906 9.675781 12.347656 10.210938 C 12.585938 10.746094 12.703125 11.300781 12.742188 11.914062 C 12.703125 12.53125 12.585938 13.105469 12.367188 13.640625 C 12.148438 14.175781 11.808594 14.710938 11.335938 15.246094 Z M 4.8125 13.242188 L 3.980469 13.640625 C 3.917969 13.640625 3.839844 13.582031 3.761719 13.480469 C 3.503906 13.183594 3.324219 12.808594 3.265625 12.390625 C 3.246094 11.914062 3.324219 11.460938 3.523438 11.0625 C 3.699219 10.648438 3.960938 10.230469 4.277344 9.835938 C 4.574219 9.4375 4.773438 9.179688 4.871094 9.039062 C 4.929688 9.378906 4.988281 9.894531 5.109375 10.585938 C 5.207031 11.28125 5.328125 11.953125 5.484375 12.609375 L 5.484375 12.667969 Z M 6.972656 9.894531 L 6.734375 8.167969 L 6.753906 7.910156 C 6.914062 7.8125 7.152344 7.691406 7.429688 7.574219 C 7.726562 7.453125 8.023438 7.375 8.320312 7.316406 C 8.679688 7.316406 8.914062 7.355469 9.035156 7.414062 C 8.835938 8.050781 8.539062 8.703125 8.121094 9.417969 C 7.824219 9.953125 7.488281 10.46875 7.132812 10.964844 C 7.109375 10.726562 7.050781 10.367188 6.972656 9.894531 Z M 6.972656 9.894531 "/>
</g>
</svg>
