
<svg xmlns="http://www.w3.org/2000/svg" xmlns:xlink="http://www.w3.org/1999/xlink" width="16px" height="16px" viewBox="0 0 16 16" version="1.1">
<g id="surface1">
<path style=" stroke:none;fill-rule:evenodd;fill:#ff6666;fill-opacity:1;" d="M 8.222656 0 C 3.789062 0 0.222656 3.566406 0.222656 8 C 0.222656 12.433594 3.789062 16 8.222656 16 C 10.945312 16 13.34375 14.652344 14.785156 12.585938 L 8.222656 8 L 15.777344 5.363281 C 14.695312 2.234375 11.726562 0 8.222656 0 Z M 7.605469 3.691406 C 7.605469 3.011719 8.15625 2.460938 8.835938 2.460938 C 9.515625 2.460938 10.066406 3.011719 10.066406 3.691406 C 10.066406 4.371094 9.515625 4.921875 8.835938 4.921875 C 8.15625 4.921875 7.605469 4.371094 7.605469 3.691406 Z M 7.605469 3.691406 "/>
</g>
</svg>
