
<svg xmlns="http://www.w3.org/2000/svg" xmlns:xlink="http://www.w3.org/1999/xlink" width="16px" height="16px" viewBox="0 0 16 16" version="1.1">
<g id="surface1">
<path style=" stroke:none;fill-rule:nonzero;fill:#ff6666;fill-opacity:1;" d="M 3.5 2 C 2.671875 2 2 2.671875 2 3.5 C 2 4.15625 2.414062 4.703125 3 4.90625 L 3 11 L 2 11 L 2 14 L 5 14 L 5 11 L 4 11 L 4 4.90625 C 4.433594 4.757812 4.757812 4.433594 4.90625 4 L 11 4 L 11 5 L 14 5 L 14 2 L 11 2 L 11 3 L 4.90625 3 C 4.703125 2.414062 4.15625 2 3.5 2 Z M 3.5 3 C 3.777344 3 4 3.222656 4 3.5 C 4 3.777344 3.777344 4 3.5 4 C 3.222656 4 3 3.777344 3 3.5 C 3 3.222656 3.222656 3 3.5 3 Z M 12 3 L 13 3 L 13 4 L 12 4 Z M 3 12 L 4 12 L 4 13 L 3 13 Z M 3 12 "/>
</g>
</svg>
