
<svg xmlns="http://www.w3.org/2000/svg" xmlns:xlink="http://www.w3.org/1999/xlink" width="16px" height="16px" viewBox="0 0 16 16" version="1.1">
<g id="surface1">
<path style=" stroke:none;fill-rule:evenodd;fill:#ff6666;fill-opacity:1;" d="M 4.828125 2.054688 L 4.859375 7.121094 L 3.671875 7.121094 C 3.671875 7.121094 4.644531 9.5 6.050781 11.441406 C 6.050781 11.441406 6.054688 11.441406 6.054688 11.441406 C 7.503906 9.390625 8.425781 7.121094 8.425781 7.121094 L 7.234375 7.121094 L 7.21875 3.273438 C 6.371094 2.835938 5.566406 2.414062 4.828125 2.054688 Z M 0.628906 0 L 0.628906 16 C 0.628906 16 8.742188 12.71875 15.371094 7.996094 C 15.371094 7.992188 15.371094 7.992188 15.371094 7.992188 C 15.371094 7.988281 15.371094 7.988281 15.367188 7.984375 C 15.367188 7.984375 15.367188 7.980469 15.363281 7.980469 C 15.363281 7.976562 15.363281 7.976562 15.363281 7.976562 C 8.367188 3.097656 0.628906 0 0.628906 0 Z M 0.628906 0 "/>
</g>
</svg>
