
<svg xmlns="http://www.w3.org/2000/svg" xmlns:xlink="http://www.w3.org/1999/xlink" width="16px" height="16px" viewBox="0 0 16 16" version="1.1">
<g id="surface1">
<path style=" stroke:none;fill-rule:nonzero;fill:#ff6666;fill-opacity:1;" d="M 9.800781 3.765625 C 9.710938 3.785156 9.628906 3.835938 9.566406 3.902344 L 8.777344 4.714844 C 8.671875 4.757812 8.589844 4.839844 8.546875 4.945312 L 7.714844 5.753906 C 7.632812 5.835938 7.585938 5.945312 7.585938 6.0625 C 7.585938 6.179688 7.632812 6.289062 7.714844 6.371094 C 7.796875 6.453125 7.90625 6.5 8.023438 6.5 C 8.140625 6.5 8.25 6.453125 8.332031 6.371094 L 8.949219 5.753906 L 10.414062 7.199219 C 9.835938 7.539062 8.867188 7.914062 7.40625 7.914062 C 4.753906 7.914062 3.703125 6.679688 3.703125 6.679688 L 3.703125 6.3125 C 3.703125 5.589844 3.421875 4.898438 2.914062 4.382812 C 2.761719 4.230469 2.542969 4.164062 2.332031 4.210938 C 2.101562 4.253906 1.914062 4.421875 1.851562 4.644531 C 1.785156 4.871094 1.855469 5.113281 2.023438 5.273438 C 2.273438 5.519531 2.46875 5.9375 2.46875 6.3125 L 2.46875 6.679688 L 1.660156 6.679688 C 1.105469 6.679688 0.617188 7.105469 0.617188 7.722656 L 0.617188 9.148438 L 0.558594 9.148438 C 0.25 9.148438 0 9.398438 0 9.707031 L 0 10.382812 C 0 10.753906 0.25 11 0.558594 11 L 1.234375 11 L 1.234375 10.691406 C 1.234375 11.554688 1.914062 12.234375 2.777344 12.234375 C 3.511719 12.238281 4.144531 11.722656 4.28125 11 L 11.726562 11 C 11.726562 10.878906 11.671875 10.816406 11.671875 10.691406 C 11.671875 10.34375 11.769531 10.023438 11.960938 9.765625 L 12.035156 9.765625 C 11.847656 10.023438 11.726562 10.34375 11.726562 10.691406 C 11.726562 11.554688 12.40625 12.234375 13.269531 12.234375 C 14.003906 12.238281 14.636719 11.722656 14.777344 11 L 15.429688 11 C 15.738281 11 15.988281 10.75 15.988281 10.441406 L 15.988281 9.765625 C 16.054688 9.394531 15.796875 9.148438 15.488281 9.148438 L 15.238281 9.148438 C 14.425781 7.722656 11.109375 6.679688 11.109375 6.679688 L 9.566406 5.136719 L 10.183594 4.519531 C 10.320312 4.394531 10.363281 4.203125 10.296875 4.035156 C 10.226562 3.867188 10.058594 3.757812 9.875 3.765625 C 9.851562 3.765625 9.824219 3.765625 9.800781 3.765625 Z M 2.777344 10.132812 C 2.976562 10.132812 3.160156 10.238281 3.261719 10.414062 C 3.363281 10.585938 3.363281 10.800781 3.261719 10.972656 C 3.160156 11.144531 2.976562 11.253906 2.777344 11.253906 C 2.46875 11.253906 2.21875 11.003906 2.21875 10.691406 C 2.21875 10.382812 2.46875 10.132812 2.777344 10.132812 Z M 13.269531 10.132812 C 13.472656 10.132812 13.65625 10.238281 13.753906 10.414062 C 13.855469 10.585938 13.855469 10.800781 13.753906 10.972656 C 13.65625 11.144531 13.46875 11.253906 13.269531 11.253906 C 12.960938 11.253906 12.710938 11.003906 12.710938 10.691406 C 12.710938 10.382812 12.960938 10.132812 13.269531 10.132812 Z M 4.320312 10.691406 C 4.320312 10.785156 4.308594 10.847656 4.28125 10.925781 C 4.292969 10.847656 4.320312 10.773438 4.320312 10.691406 Z M 14.8125 10.691406 C 14.8125 10.785156 14.800781 10.847656 14.773438 10.925781 C 14.785156 10.847656 14.8125 10.773438 14.8125 10.691406 Z M 14.8125 10.691406 "/>
</g>
</svg>
