
<svg xmlns="http://www.w3.org/2000/svg" xmlns:xlink="http://www.w3.org/1999/xlink" width="16px" height="16px" viewBox="0 0 16 16" version="1.1">
<g id="surface1">
<path style=" stroke:none;fill-rule:nonzero;fill:#ff6666;fill-opacity:1;" d="M 8 0 C 3.582031 0 0 3.582031 0 8 C 0 12.417969 3.582031 16 8 16 C 12.417969 16 16 12.417969 16 8 C 16 3.582031 12.417969 0 8 0 Z M 8 1 C 11.867188 1 15 4.132812 15 8 C 15 11.867188 11.867188 15 8 15 C 4.132812 15 1 11.867188 1 8 C 1 4.132812 4.132812 1 8 1 Z M 8 1 "/>
<path style=" stroke:none;fill-rule:nonzero;fill:#ff6666;fill-opacity:1;" d="M 8 2 C 4.6875 2 2 4.6875 2 8 C 2 11.3125 4.6875 14 8 14 C 11.3125 14 14 11.3125 14 8 C 14 4.6875 11.3125 2 8 2 Z M 8 2.75 C 10.898438 2.75 13.25 5.101562 13.25 8 C 13.25 10.898438 10.898438 13.25 8 13.25 C 5.101562 13.25 2.75 10.898438 2.75 8 C 2.75 5.101562 5.101562 2.75 8 2.75 Z M 8 2.75 "/>
<path style=" stroke:none;fill-rule:nonzero;fill:#ff6666;fill-opacity:1;" d="M 8 5 C 6.34375 5 5 6.34375 5 8 C 5 9.65625 6.34375 11 8 11 C 9.65625 11 11 9.65625 11 8 C 11 6.34375 9.65625 5 8 5 Z M 7.828125 7.996094 C 9.277344 7.996094 10.625 6.550781 10.625 8 C 10.625 9.449219 9.449219 10.625 8 10.625 C 6.550781 10.625 5.375 9.449219 5.375 8 C 5.375 6.550781 6.375 7.996094 7.828125 7.996094 Z M 7.828125 7.996094 "/>
</g>
</svg>
