
<svg xmlns="http://www.w3.org/2000/svg" xmlns:xlink="http://www.w3.org/1999/xlink" width="16px" height="16px" viewBox="0 0 16 16" version="1.1">
<g id="surface1">
<path style=" stroke:none;fill-rule:nonzero;fill:#ff6666;fill-opacity:1;" d="M 3.261719 2.636719 C 3.191406 2.632812 3.121094 2.65625 3.066406 2.710938 L 1.855469 3.925781 C 1.742188 4.035156 1.742188 4.21875 1.855469 4.328125 L 3.105469 6.296875 C 3.007812 6.5 2.921875 6.710938 2.847656 6.921875 L 0.570312 7.429688 C 0.410156 7.429688 0.285156 7.554688 0.285156 7.714844 L 0.285156 9.429688 C 0.285156 9.585938 0.414062 9.679688 0.570312 9.714844 L 2.847656 10.222656 C 2.917969 10.433594 3.003906 10.640625 3.101562 10.839844 L 1.84375 12.8125 C 1.761719 12.945312 1.734375 13.105469 1.84375 13.21875 L 3.058594 14.429688 C 3.167969 14.542969 3.347656 14.542969 3.460938 14.429688 L 5.433594 13.175781 C 5.636719 13.277344 5.847656 13.363281 6.066406 13.4375 L 6.570312 15.714844 C 6.570312 15.871094 6.699219 16 6.855469 16 L 8.570312 16 C 8.730469 16 8.820312 15.867188 8.855469 15.714844 L 9.363281 13.4375 C 9.578125 13.363281 9.789062 13.277344 9.992188 13.179688 L 11.957031 14.429688 C 12.066406 14.542969 12.246094 14.542969 12.359375 14.429688 L 13.574219 13.21875 C 13.683594 13.105469 13.65625 12.945312 13.574219 12.8125 L 13.035156 11.972656 L 12.636719 12.132812 L 11.355469 10.210938 C 10.710938 11.648438 9.285156 12.570312 7.714844 12.570312 C 5.503906 12.570312 3.714844 10.78125 3.714844 8.570312 C 3.714844 7.027344 4.605469 5.625 6 4.960938 L 6 3.730469 C 5.804688 3.796875 5.617188 3.875 5.433594 3.964844 L 3.472656 2.710938 C 3.402344 2.667969 3.332031 2.640625 3.261719 2.636719 Z M 3.261719 2.636719 "/>
<path style=" stroke:none;fill-rule:nonzero;fill:#ff6666;fill-opacity:1;" d="M 9.425781 0 L 6.570312 0.265625 L 6.570312 11.429688 L 9.425781 10.855469 L 9.425781 6.285156 L 12.855469 11.429688 L 15.714844 10.285156 L 12 5.476562 L 15.714844 0.570312 L 12.722656 0 L 9.425781 4.855469 Z M 9.425781 0 "/>
</g>
</svg>
