
<svg xmlns="http://www.w3.org/2000/svg" xmlns:xlink="http://www.w3.org/1999/xlink" width="16px" height="16px" viewBox="0 0 16 16" version="1.1">
<g id="surface1">
<path style=" stroke:none;fill-rule:nonzero;fill:#ff6666;fill-opacity:1;" d="M 7.722656 1.078125 L 7.746094 15.5 L 8.875 15.5 L 8.875 1.078125 Z M 7.722656 1.078125 "/>
<path style=" stroke:none;fill-rule:evenodd;fill:#ff6666;fill-opacity:1;" d="M 5.414062 3.382812 L 5.414062 4.25 L 6.570312 4.25 L 6.570312 3.382812 Z M 4.261719 5.113281 L 4.261719 5.980469 L 6.570312 5.980469 L 6.570312 5.113281 Z M 1.953125 6.84375 L 1.953125 7.710938 L 6.570312 7.710938 L 6.570312 6.84375 Z M 0.800781 8.578125 L 0.800781 9.441406 L 6.570312 9.441406 L 6.570312 8.578125 Z M 1.953125 10.308594 L 1.953125 11.171875 L 6.570312 11.171875 L 6.570312 10.308594 Z M 4.261719 12.039062 L 4.261719 12.902344 L 6.570312 12.902344 L 6.570312 12.039062 Z M 4.261719 12.039062 "/>
<path style=" stroke:none;fill-rule:nonzero;fill:#ff6666;fill-opacity:1;" d="M 10.609375 0.5 L 5.992188 0.5 L 7.144531 2.230469 L 8.300781 3.960938 L 9.453125 2.230469 Z M 10.609375 0.5 "/>
<path style=" stroke:none;fill-rule:nonzero;fill:#ff6666;fill-opacity:1;" d="M 10.480469 4.941406 C 10.265625 4.953125 10.039062 5.140625 10.039062 5.347656 L 10.03125 11.460938 C 10.03125 11.734375 10.4375 11.976562 10.667969 11.8125 L 15.046875 8.746094 C 15.28125 8.582031 15.28125 8.203125 15.046875 8.039062 L 10.675781 4.996094 C 10.621094 4.953125 10.550781 4.9375 10.480469 4.941406 Z M 10.480469 4.941406 "/>
</g>
</svg>
