
<svg xmlns="http://www.w3.org/2000/svg" xmlns:xlink="http://www.w3.org/1999/xlink" width="16px" height="16px" viewBox="0 0 16 16" version="1.1">
<g id="surface1">
<path style=" stroke:none;fill-rule:nonzero;fill:#ff6666;fill-opacity:1;" d="M 8.480469 11.9375 C 8.480469 12.054688 8.433594 12.164062 8.351562 12.246094 C 8.269531 12.328125 8.160156 12.375 8.042969 12.375 C 7.925781 12.375 7.816406 12.328125 7.734375 12.246094 C 7.652344 12.164062 7.605469 12.054688 7.605469 11.9375 L 7.605469 2.226562 C 7.605469 2.109375 7.652344 1.996094 7.734375 1.914062 C 7.816406 1.835938 7.925781 1.785156 8.042969 1.785156 C 8.160156 1.785156 8.269531 1.835938 8.351562 1.914062 C 8.433594 1.996094 8.480469 2.109375 8.480469 2.226562 Z M 8.480469 11.9375 "/>
<path style=" stroke:none;fill-rule:nonzero;fill:#ff6666;fill-opacity:1;" d="M 3.40625 14.125 C 3.40625 14.242188 3.359375 14.351562 3.277344 14.433594 C 3.195312 14.515625 3.085938 14.5625 2.96875 14.5625 C 2.851562 14.5625 2.742188 14.515625 2.660156 14.433594 C 2.578125 14.351562 2.53125 14.242188 2.53125 14.125 L 2.53125 9.226562 C 2.53125 9.109375 2.578125 8.996094 2.660156 8.914062 C 2.742188 8.835938 2.851562 8.785156 2.96875 8.785156 C 3.085938 8.785156 3.195312 8.835938 3.277344 8.914062 C 3.359375 8.996094 3.40625 9.109375 3.40625 9.226562 Z M 3.40625 14.125 "/>
<path style=" stroke:none;fill-rule:nonzero;fill:#ff6666;fill-opacity:1;" d="M 3.550781 9.15625 C 3.453125 9.21875 3.335938 9.238281 3.222656 9.214844 C 3.109375 9.1875 3.011719 9.117188 2.949219 9.019531 C 2.886719 8.921875 2.867188 8.804688 2.890625 8.691406 C 2.917969 8.578125 2.988281 8.480469 3.085938 8.417969 L 7.8125 5.441406 C 7.910156 5.378906 8.027344 5.359375 8.140625 5.386719 C 8.253906 5.410156 8.351562 5.480469 8.414062 5.578125 C 8.476562 5.679688 8.496094 5.796875 8.472656 5.910156 C 8.445312 6.023438 8.375 6.121094 8.277344 6.183594 Z M 3.550781 9.15625 "/>
<path style=" stroke:none;fill-rule:nonzero;fill:#ff6666;fill-opacity:1;" d="M 13 8.417969 C 13.101562 8.480469 13.167969 8.578125 13.195312 8.691406 C 13.222656 8.804688 13.199219 8.921875 13.140625 9.019531 C 13.078125 9.117188 12.980469 9.1875 12.867188 9.214844 C 12.753906 9.238281 12.632812 9.21875 12.535156 9.15625 L 7.8125 6.183594 C 7.710938 6.121094 7.644531 6.023438 7.617188 5.910156 C 7.589844 5.796875 7.609375 5.679688 7.675781 5.578125 C 7.734375 5.480469 7.835938 5.410156 7.945312 5.386719 C 8.058594 5.359375 8.179688 5.378906 8.277344 5.441406 Z M 13 8.417969 "/>
<path style=" stroke:none;fill-rule:nonzero;fill:#ff6666;fill-opacity:1;" d="M 7.167969 1.875 C 7.167969 1.390625 7.5625 1 8.042969 1 C 8.527344 1 8.917969 1.390625 8.917969 1.875 C 8.917969 2.359375 8.527344 2.75 8.042969 2.75 C 7.5625 2.75 7.167969 2.359375 7.167969 1.875 Z M 7.167969 1.875 "/>
<path style=" stroke:none;fill-rule:nonzero;fill:#ff6666;fill-opacity:1;" d="M 7.167969 12.199219 C 7.167969 11.71875 7.5625 11.324219 8.042969 11.324219 C 8.527344 11.324219 8.917969 11.71875 8.917969 12.199219 C 8.917969 12.683594 8.527344 13.074219 8.042969 13.074219 C 7.5625 13.074219 7.167969 12.683594 7.167969 12.199219 Z M 7.167969 12.199219 "/>
<path style=" stroke:none;fill-rule:nonzero;fill:#ff6666;fill-opacity:1;" d="M 2.007812 9.136719 C 2.007812 8.65625 2.398438 8.261719 2.882812 8.261719 C 3.363281 8.261719 3.757812 8.65625 3.757812 9.136719 C 3.757812 9.621094 3.363281 10.011719 2.882812 10.011719 C 2.398438 10.011719 2.007812 9.621094 2.007812 9.136719 Z M 2.007812 9.136719 "/>
<path style=" stroke:none;fill-rule:nonzero;fill:#ff6666;fill-opacity:1;" d="M 2.09375 14.125 C 2.09375 13.640625 2.484375 13.25 2.96875 13.25 C 3.453125 13.25 3.84375 13.640625 3.84375 14.125 C 3.84375 14.609375 3.453125 15 2.96875 15 C 2.484375 15 2.09375 14.609375 2.09375 14.125 Z M 2.09375 14.125 "/>
<path style=" stroke:none;fill-rule:nonzero;fill:#ff6666;fill-opacity:1;" d="M 12.242188 9.136719 C 12.242188 8.65625 12.636719 8.261719 13.117188 8.261719 C 13.601562 8.261719 13.992188 8.65625 13.992188 9.136719 C 13.992188 9.621094 13.601562 10.011719 13.117188 10.011719 C 12.636719 10.011719 12.242188 9.621094 12.242188 9.136719 Z M 12.242188 9.136719 "/>
</g>
</svg>
