
<svg xmlns="http://www.w3.org/2000/svg" xmlns:xlink="http://www.w3.org/1999/xlink" width="16px" height="16px" viewBox="0 0 16 16" version="1.1">
<g id="surface1">
<path style=" stroke:none;fill-rule:evenodd;fill:#ff6666;fill-opacity:1;" d="M 3.601562 0 C 3.503906 0 3.40625 0.0351562 3.332031 0.109375 L 0.109375 3.332031 C 0.0390625 3.402344 0 3.5 0 3.601562 C 0 3.699219 0.0390625 3.796875 0.109375 3.867188 L 3.332031 7.089844 C 3.402344 7.160156 3.5 7.199219 3.601562 7.199219 C 3.699219 7.199219 3.796875 7.160156 3.867188 7.089844 L 7.089844 3.867188 C 7.160156 3.796875 7.199219 3.699219 7.199219 3.601562 C 7.199219 3.5 7.160156 3.402344 7.089844 3.332031 L 3.867188 0.109375 C 3.796875 0.0390625 3.699219 0 3.601562 0 Z M 12.398438 0 C 12.304688 0 12.207031 0.0351562 12.132812 0.109375 L 8.910156 3.332031 C 8.839844 3.402344 8.800781 3.5 8.800781 3.601562 C 8.800781 3.699219 8.839844 3.796875 8.910156 3.867188 L 12.132812 7.089844 C 12.203125 7.160156 12.300781 7.199219 12.398438 7.199219 C 12.5 7.199219 12.597656 7.160156 12.667969 7.089844 L 15.890625 3.867188 C 15.960938 3.796875 16 3.699219 16 3.601562 C 16 3.5 15.960938 3.402344 15.890625 3.332031 L 12.667969 0.109375 C 12.597656 0.0390625 12.5 0 12.398438 0 Z M 3.601562 8.800781 C 3.503906 8.800781 3.40625 8.835938 3.332031 8.910156 L 0.109375 12.132812 C 0.0390625 12.203125 0 12.300781 0 12.398438 C 0 12.5 0.0390625 12.597656 0.109375 12.667969 L 3.332031 15.890625 C 3.402344 15.960938 3.5 16 3.601562 16 C 3.699219 16 3.796875 15.960938 3.867188 15.890625 L 7.089844 12.667969 C 7.160156 12.597656 7.199219 12.5 7.199219 12.398438 C 7.199219 12.300781 7.160156 12.203125 7.089844 12.132812 L 3.867188 8.910156 C 3.796875 8.839844 3.699219 8.800781 3.601562 8.800781 Z M 12.398438 8.800781 C 12.304688 8.800781 12.207031 8.835938 12.132812 8.910156 L 8.910156 12.132812 C 8.839844 12.203125 8.800781 12.300781 8.800781 12.398438 C 8.800781 12.5 8.839844 12.597656 8.910156 12.667969 L 12.132812 15.890625 C 12.203125 15.960938 12.300781 16 12.398438 16 C 12.5 16 12.597656 15.960938 12.667969 15.890625 L 15.890625 12.667969 C 15.960938 12.597656 16 12.5 16 12.398438 C 16 12.300781 15.960938 12.203125 15.890625 12.132812 L 12.667969 8.910156 C 12.597656 8.839844 12.5 8.800781 12.398438 8.800781 Z M 12.398438 8.800781 "/>
</g>
</svg>
