
<svg xmlns="http://www.w3.org/2000/svg" xmlns:xlink="http://www.w3.org/1999/xlink" width="16px" height="16px" viewBox="0 0 16 16" version="1.1">
<g id="surface1">
<path style=" stroke:none;fill-rule:nonzero;fill:#ff6666;fill-opacity:1;" d="M 0 0 L 0 13.207031 L 10.085938 13.21875 L 10.085938 4.03125 L 6.054688 0.0117188 Z M 5.914062 0.695312 L 9.390625 4.175781 L 5.914062 4.175781 Z M 10.78125 2.78125 L 10.78125 9.25 L 11.226562 8.792969 L 11.726562 9.292969 L 10.78125 10.226562 L 10.78125 10.433594 L 13.914062 10.433594 L 13.914062 11.128906 L 10.78125 11.128906 L 10.78125 11.335938 L 11.726562 12.273438 L 11.226562 12.773438 L 10.78125 12.316406 L 10.78125 13.914062 L 5.914062 13.914062 L 5.914062 15.988281 L 16 16 L 16 6.816406 L 11.96875 2.792969 Z M 11.824219 3.476562 L 15.304688 6.957031 L 11.824219 6.957031 Z M 5.46875 6.359375 L 7.445312 8.347656 L 5.46875 10.335938 L 4.96875 9.835938 L 6.121094 8.695312 L 2.78125 8.695312 L 2.78125 8 L 6.121094 8 L 4.96875 6.859375 Z M 5.46875 6.359375 "/>
</g>
</svg>
