
<svg xmlns="http://www.w3.org/2000/svg" xmlns:xlink="http://www.w3.org/1999/xlink" width="16px" height="16px" viewBox="0 0 16 16" version="1.1">
<g id="surface1">
<path style=" stroke:none;fill-rule:evenodd;fill:#ff6666;fill-opacity:1;" d="M 1.601562 7.199219 C 1.601562 4 3.199219 0.800781 8 0.800781 C 12.800781 0.800781 14.398438 4 14.398438 7.199219 L 14.398438 13.601562 C 10.144531 15.433594 5.867188 15.425781 1.601562 13.601562 L 1.601562 12 L 0.800781 12 C 0.320312 12 0 11.679688 0 11.199219 L 0 8 C 0 7.519531 0.320312 7.199219 0.800781 7.199219 Z M 12.667969 9.601562 C 12.753906 9.34375 12.800781 9.074219 12.800781 8.800781 L 12.800781 7.199219 C 12.800781 5.761719 11.601562 4 8 4 C 4.398438 4 3.199219 5.679688 3.199219 7.199219 L 3.199219 8.800781 C 3.199219 10.558594 5.039062 12 8 12 C 9.355469 12 10.480469 11.695312 11.296875 11.199219 L 9.199219 11.199219 C 8.558594 11.199219 8 10.640625 8 10 C 8 9.359375 8.558594 8.800781 9.199219 8.800781 C 9.679688 8.800781 10.160156 9.121094 10.320312 9.601562 Z M 14.398438 12 L 15.199219 12 C 15.679688 12 16 11.679688 16 11.199219 L 16 8 C 16 7.519531 15.679688 7.199219 15.199219 7.199219 L 14.398438 7.199219 Z M 14.398438 12 "/>
</g>
</svg>
