
<svg xmlns="http://www.w3.org/2000/svg" xmlns:xlink="http://www.w3.org/1999/xlink" width="16px" height="16px" viewBox="0 0 16 16" version="1.1">
<g id="surface1">
<path style=" stroke:none;fill-rule:nonzero;fill:#ff6666;fill-opacity:1;" d="M 9.734375 0.726562 C 6.726562 0.726562 4.019531 2.554688 2.890625 5.34375 L 1.421875 5.34375 L 0.5 7.1875 L 2.414062 7.1875 C 2.371094 7.496094 2.351562 7.804688 2.347656 8.113281 L 1.421875 9.960938 L 2.59375 9.960938 C 3.433594 13.21875 6.371094 15.496094 9.734375 15.5 C 11.976562 15.5 14.097656 14.480469 15.5 12.730469 L 12.792969 12.730469 C 11.886719 13.332031 10.820312 13.652344 9.734375 13.652344 C 7.386719 13.652344 5.296875 12.171875 4.515625 9.960938 L 10.65625 9.960938 L 11.582031 8.113281 L 4.195312 8.113281 C 4.195312 7.804688 4.222656 7.496094 4.277344 7.1875 L 11.582031 7.1875 L 12.503906 5.34375 L 4.941406 5.34375 C 5.929688 3.628906 7.757812 2.574219 9.734375 2.570312 C 10.820312 2.574219 11.882812 2.894531 12.789062 3.496094 L 15.492188 3.496094 C 14.09375 1.746094 11.972656 0.726562 9.734375 0.726562 Z M 9.734375 0.726562 "/>
</g>
</svg>
