
<svg xmlns="http://www.w3.org/2000/svg" xmlns:xlink="http://www.w3.org/1999/xlink" width="16px" height="16px" viewBox="0 0 16 16" version="1.1">
<g id="surface1">
<path style=" stroke:none;fill-rule:nonzero;fill:#ff6666;fill-opacity:1;" d="M 4.5625 0 C 3.125 0.015625 2.074219 -0.0351562 1.214844 0.4375 C 0.785156 0.675781 0.445312 1.078125 0.257812 1.578125 C 0.0664062 2.082031 0 2.675781 0 3.429688 L 0 12.808594 L 0.167969 12.972656 L 3.191406 16 L 11.4375 16 C 12.875 15.984375 13.925781 16.035156 14.785156 15.5625 C 15.214844 15.324219 15.554688 14.921875 15.746094 14.421875 C 15.933594 13.917969 16 13.324219 16 12.574219 L 16 3.429688 C 16 2.675781 15.933594 2.082031 15.746094 1.578125 C 15.554688 1.078125 15.214844 0.675781 14.785156 0.4375 C 13.925781 -0.0351562 12.875 0.015625 11.4375 0 Z M 4.570312 1.140625 L 11.429688 1.140625 C 12.867188 1.160156 13.816406 1.210938 14.234375 1.441406 C 14.445312 1.558594 14.5625 1.683594 14.671875 1.984375 C 14.785156 2.28125 14.859375 2.75 14.859375 3.429688 L 14.859375 12.574219 C 14.859375 13.25 14.785156 13.71875 14.671875 14.015625 C 14.5625 14.316406 14.445312 14.441406 14.234375 14.558594 C 13.949219 14.714844 13.335938 14.777344 12.574219 14.8125 L 12.574219 9.140625 L 3.429688 9.140625 L 3.429688 14.621094 L 1.140625 12.332031 L 1.140625 3.429688 C 1.140625 2.75 1.214844 2.28125 1.328125 1.984375 C 1.4375 1.683594 1.558594 1.558594 1.765625 1.441406 C 2.1875 1.210938 3.132812 1.160156 4.570312 1.140625 Z M 5.714844 10.285156 L 8 10.285156 L 8 14.859375 L 5.714844 14.859375 Z M 5.714844 10.285156 "/>
</g>
</svg>
