
<svg xmlns="http://www.w3.org/2000/svg" xmlns:xlink="http://www.w3.org/1999/xlink" width="16px" height="16px" viewBox="0 0 16 16" version="1.1">
<g id="surface1">
<path style=" stroke:none;fill-rule:evenodd;fill:#ff6666;fill-opacity:1;" d="M 0 0.363281 L 0 15.636719 L 2.910156 15.636719 L 2.910156 12 L 5.816406 15.636719 L 9.453125 15.636719 L 4.363281 8 L 9.453125 0.363281 L 5.816406 0.363281 L 2.910156 4 L 2.910156 0.363281 Z M 12.363281 5.453125 L 15.273438 5.453125 L 15.273438 15.636719 L 12.363281 15.636719 Z M 11.636719 2.546875 C 11.636719 1.339844 12.613281 0.363281 13.816406 0.363281 C 15.023438 0.363281 16 1.339844 16 2.546875 C 16 3.75 15.023438 4.726562 13.816406 4.726562 C 12.613281 4.726562 11.636719 3.75 11.636719 2.546875 Z M 11.636719 2.546875 "/>
</g>
</svg>
