
<svg xmlns="http://www.w3.org/2000/svg" xmlns:xlink="http://www.w3.org/1999/xlink" width="16px" height="16px" viewBox="0 0 16 16" version="1.1">
<g id="surface1">
<path style=" stroke:none;fill-rule:nonzero;fill:#ff6666;fill-opacity:1;" d="M 11.484375 0 L 11.023438 0.484375 L 0.480469 11.023438 L 0 11.484375 L 4.515625 16 L 4.976562 15.519531 L 15.519531 4.996094 L 16 4.515625 Z M 11.484375 1.890625 L 14.109375 4.515625 L 4.515625 14.109375 L 1.890625 11.484375 L 3.191406 10.183594 L 4.871094 11.863281 L 5.816406 10.921875 L 4.136719 9.238281 L 5.207031 8.167969 L 6.152344 9.113281 L 7.097656 8.167969 L 6.152344 7.222656 L 7.222656 6.152344 L 8.902344 7.832031 L 9.847656 6.886719 L 8.167969 5.207031 L 9.238281 4.136719 L 10.183594 5.082031 L 11.128906 4.136719 L 10.183594 3.191406 Z M 11.484375 1.890625 "/>
</g>
</svg>
