
<svg xmlns="http://www.w3.org/2000/svg" xmlns:xlink="http://www.w3.org/1999/xlink" width="16px" height="16px" viewBox="0 0 16 16" version="1.1">
<g id="surface1">
<path style=" stroke:none;fill-rule:nonzero;fill:#ff6666;fill-opacity:1;" d="M 16 1.480469 L 7.976562 1.484375 L 3.523438 9.199219 L 1.964844 6.496094 L 0 6.59375 L 0 7.597656 L 1.433594 7.597656 L 3.570312 11.300781 L 4.105469 10.199219 L 8.558594 2.484375 L 16 2.488281 Z M 10.984375 4.488281 C 9.320312 4.488281 7.976562 5.832031 7.976562 7.5 C 7.976562 9.164062 9.320312 10.507812 10.984375 10.507812 C 11.761719 10.507812 12.457031 10.207031 12.992188 9.730469 L 12.992188 10.507812 L 13.992188 10.507812 L 13.992188 4.488281 L 12.992188 4.488281 L 12.992188 5.265625 C 12.457031 4.789062 11.761719 4.488281 10.984375 4.488281 M 10.984375 5.492188 C 12.097656 5.492188 12.992188 6.386719 12.992188 7.5 C 12.992188 8.609375 12.097656 9.503906 10.984375 9.503906 C 9.875 9.503906 8.980469 8.609375 8.980469 7.5 C 8.980469 6.386719 9.875 5.492188 10.984375 5.492188 M 0.0117188 11.597656 C 0.00390625 11.597656 0 11.820312 0 12.097656 C 0 12.375 0.00390625 12.601562 0.0117188 12.601562 L 15.988281 12.503906 C 15.996094 12.503906 16 12.277344 16 12 C 16 11.722656 15.996094 11.5 15.988281 11.5 Z M 5.972656 13.515625 L 5.972656 14.519531 L 9.980469 14.519531 L 9.980469 13.515625 Z M 5.972656 13.515625 "/>
</g>
</svg>
