
<svg xmlns="http://www.w3.org/2000/svg" xmlns:xlink="http://www.w3.org/1999/xlink" width="16px" height="16px" viewBox="0 0 16 16" version="1.1">
<g id="surface1">
<path style=" stroke:none;fill-rule:evenodd;fill:#ff6666;fill-opacity:1;" d="M 3.554688 10.441406 L 3.554688 13.824219 C 3.554688 14.167969 3.289062 14.449219 2.964844 14.449219 L 0.59375 14.449219 C 0.265625 14.449219 0 14.167969 0 13.824219 L 0 2.625 C 0 2.28125 0.265625 2.003906 0.59375 2.003906 L 2.964844 2.003906 C 3.289062 2.003906 3.554688 2.28125 3.554688 2.625 L 3.554688 4.886719 L 5.78125 2.4375 C 5.800781 2.414062 5.820312 2.394531 5.835938 2.375 C 6.144531 2.03125 6.171875 2.003906 6.847656 2.003906 L 10.421875 2.003906 C 10.421875 2.003906 11.128906 1.9375 10.671875 2.398438 L 7.898438 5.5625 L 10.449219 13.820312 C 10.457031 13.851562 10.46875 13.886719 10.476562 13.914062 C 10.5625 14.1875 10.605469 14.328125 10.554688 14.398438 C 10.5 14.472656 10.332031 14.464844 9.980469 14.449219 L 7.402344 14.449219 C 6.808594 14.449219 6.769531 14.445312 6.632812 13.828125 L 5.070312 8.773438 Z M 12.265625 2.003906 L 15.378906 2.003906 C 15.722656 2.003906 16 2.28125 16 2.625 L 16 13.824219 C 16 14.167969 15.722656 14.449219 15.378906 14.449219 L 12.265625 14.449219 C 11.921875 14.449219 11.644531 14.167969 11.644531 13.824219 L 14.132812 5.5625 L 11.644531 2.625 C 11.421875 2.363281 11.921875 2.003906 12.265625 2.003906 Z M 12.265625 2.003906 "/>
</g>
</svg>
