
<svg xmlns="http://www.w3.org/2000/svg" xmlns:xlink="http://www.w3.org/1999/xlink" width="16px" height="16px" viewBox="0 0 16 16" version="1.1">
<g id="surface1">
<path style=" stroke:none;fill-rule:evenodd;fill:#ff6666;fill-opacity:1;" d="M 3.238281 1.863281 L 3.304688 2.105469 L 7.347656 2.105469 C 7.464844 2.105469 7.539062 2.066406 7.566406 1.972656 C 7.308594 1.730469 6.890625 1.390625 6.890625 1.390625 L 6.515625 1.863281 L 5.597656 1.863281 L 5.597656 1.070312 C 5.78125 1.039062 5.855469 0.964844 5.871094 0.855469 L 5.054688 0.773438 L 5.054688 1.863281 Z M 3.921875 2.273438 C 4.097656 2.675781 4.3125 3.28125 4.347656 3.765625 C 4.847656 4.234375 5.414062 3.191406 4.027344 2.238281 Z M 0.859375 7.351562 L 0.859375 5.300781 L 2.5625 5.300781 L 2.5625 7.351562 Z M 2.785156 4.726562 L 2.476562 5.058594 L 1.992188 5.058594 L 1.992188 3.507812 L 3.453125 3.507812 C 3.5625 3.507812 3.644531 3.464844 3.671875 3.375 C 3.402344 3.125 2.96875 2.773438 2.96875 2.773438 L 2.59375 3.257812 L 1.992188 3.257812 L 1.992188 1.679688 C 2.402344 1.5625 2.777344 1.4375 3.070312 1.3125 C 3.269531 1.371094 3.410156 1.363281 3.480469 1.289062 L 2.777344 0.753906 C 2.195312 1.171875 1.027344 1.679688 0 1.929688 L 0.0507812 2.066406 C 0.515625 2.015625 0.992188 1.929688 1.453125 1.824219 L 1.453125 3.257812 L 0.0078125 3.257812 L 0.0664062 3.507812 L 1.453125 3.507812 L 1.453125 5.058594 L 0.902344 5.058594 L 0.335938 4.800781 L 0.335938 8.269531 L 0.417969 8.269531 C 0.640625 8.269531 0.859375 8.144531 0.859375 8.097656 L 0.859375 7.59375 L 2.5625 7.59375 L 2.5625 8.046875 L 2.644531 8.046875 C 2.820312 8.046875 3.085938 7.921875 3.09375 7.863281 L 3.09375 5.410156 C 3.269531 5.367188 3.402344 5.300781 3.460938 5.242188 Z M 7.53125 4.308594 C 7.640625 4.308594 7.726562 4.265625 7.75 4.175781 C 7.492188 3.933594 7.066406 3.601562 7.066406 3.601562 L 6.699219 4.066406 L 5.730469 4.066406 C 6.121094 3.632812 6.496094 3.058594 6.722656 2.625 C 6.898438 2.632812 6.992188 2.566406 7.023438 2.480469 L 6.15625 2.214844 C 6.03125 2.773438 5.789062 3.53125 5.546875 4.066406 L 3.144531 4.066406 L 3.210938 4.308594 L 5.054688 4.308594 L 5.054688 5.71875 L 3.4375 5.71875 L 3.496094 5.96875 L 5.054688 5.96875 L 5.054688 8.386719 L 5.148438 8.386719 C 5.421875 8.386719 5.597656 8.253906 5.597656 8.214844 L 5.597656 5.96875 L 7.332031 5.96875 C 7.457031 5.96875 7.53125 5.925781 7.558594 5.835938 C 7.300781 5.585938 6.875 5.25 6.875 5.25 L 6.496094 5.71875 L 5.597656 5.71875 L 5.597656 4.308594 Z M 10.253906 14.554688 L 10.253906 13.859375 L 14.054688 13.859375 L 14.054688 14.554688 Z M 14.054688 12.960938 L 14.054688 13.617188 L 10.253906 13.617188 L 10.253906 12.960938 Z M 13.972656 12.726562 L 10.300781 12.726562 L 9.71875 12.460938 L 9.71875 15.246094 L 9.785156 15.246094 C 10.019531 15.246094 10.253906 15.121094 10.253906 15.070312 L 10.253906 14.804688 L 14.054688 14.804688 L 14.054688 15.226562 L 14.140625 15.226562 C 14.316406 15.226562 14.589844 15.101562 14.597656 15.054688 L 14.597656 13.066406 C 14.765625 13.035156 14.898438 12.96875 14.957031 12.902344 L 14.273438 12.382812 Z M 12.371094 10.105469 L 12.371094 9.4375 L 13.996094 9.4375 L 13.996094 10.105469 Z M 12.371094 8.554688 L 13.996094 8.554688 L 13.996094 9.203125 L 12.371094 9.203125 Z M 14.074219 10.675781 C 14.257812 10.675781 14.523438 10.546875 14.53125 10.488281 L 14.53125 9.4375 L 15.789062 9.4375 C 15.90625 9.4375 15.976562 9.40625 16 9.3125 C 15.757812 9.078125 15.339844 8.746094 15.339844 8.746094 L 14.992188 9.203125 L 14.53125 9.203125 L 14.53125 8.648438 C 14.691406 8.613281 14.816406 8.546875 14.875 8.488281 L 14.214844 7.980469 L 13.914062 8.304688 L 12.371094 8.304688 L 12.371094 7.9375 C 12.570312 7.902344 12.648438 7.820312 12.671875 7.703125 L 11.828125 7.613281 L 11.828125 8.304688 L 9.386719 8.304688 L 9.460938 8.554688 L 11.828125 8.554688 L 11.828125 9.203125 L 8.359375 9.203125 L 8.425781 9.4375 L 11.828125 9.4375 L 11.828125 10.105469 L 9.335938 10.105469 L 9.410156 10.355469 L 11.828125 10.355469 L 11.828125 10.992188 L 9.085938 10.992188 L 9.144531 11.242188 L 11.828125 11.242188 L 11.828125 11.898438 L 8.417969 11.898438 L 8.492188 12.140625 L 15.707031 12.140625 C 15.824219 12.140625 15.90625 12.101562 15.933594 12.007812 C 15.648438 11.757812 15.234375 11.441406 15.234375 11.441406 L 14.847656 11.898438 L 12.371094 11.898438 L 12.371094 11.242188 L 15.199219 11.242188 C 15.300781 11.242188 15.382812 11.199219 15.40625 11.105469 C 15.148438 10.863281 14.730469 10.558594 14.730469 10.558594 L 14.371094 10.992188 L 12.371094 10.992188 L 12.371094 10.355469 L 13.996094 10.355469 L 13.996094 10.675781 Z M 14.074219 10.675781 "/>
</g>
</svg>
