
<svg xmlns="http://www.w3.org/2000/svg" xmlns:xlink="http://www.w3.org/1999/xlink" width="16px" height="16px" viewBox="0 0 16 16" version="1.1">
<g id="surface1">
<path style=" stroke:none;fill-rule:nonzero;fill:#ff6666;fill-opacity:1;" d="M 13.8125 13.875 C 14.207031 13.140625 15.023438 13.0625 15.023438 12.191406 C 15.023438 11.523438 14.835938 11.160156 14.382812 10.945312 C 13.546875 10.546875 12.734375 11.015625 12.734375 11.894531 C 12.734375 12.757812 13.558594 13.238281 14.101562 12.691406 C 14.332031 12.464844 14.386719 12.082031 14.222656 11.851562 C 14.152344 11.75 14.144531 11.765625 14.1875 11.925781 C 14.34375 12.472656 13.921875 12.851562 13.4375 12.597656 C 12.933594 12.335938 13.027344 11.496094 13.582031 11.359375 C 13.851562 11.289062 14.214844 11.527344 14.394531 11.894531 C 14.492188 12.089844 14.496094 12.207031 14.414062 12.484375 C 14.140625 13.386719 12.925781 13.394531 11.09375 12.5 C 10.648438 12.285156 10.054688 11.957031 9.769531 11.773438 C 9.28125 11.457031 8.6875 11.191406 7.835938 10.445312 C 7.382812 10.046875 7.316406 10.101562 8.492188 9.910156 C 8.832031 9.851562 9.820312 9.566406 10.691406 9.269531 C 12.238281 8.746094 12.296875 8.730469 13.242188 8.726562 C 13.777344 8.722656 12.894531 8.6875 13.777344 8.726562 L 15.382812 8.796875 L 15.382812 7.054688 L 13.511719 7.003906 C 10.839844 6.933594 12.140625 6.839844 9.382812 5.777344 C 8.855469 5.574219 8.125 5.328125 7.757812 5.230469 C 6.886719 5.003906 5.566406 4.925781 4.90625 5.0625 C 4.144531 5.222656 3.066406 5.800781 2.441406 6.386719 C 1.46875 7.292969 0.371094 8.992188 0.480469 9.417969 C 0.527344 9.609375 0.578125 9.625 1.433594 9.660156 C 1.929688 9.679688 2.960938 9.792969 3.722656 9.910156 L 5.105469 10.125 L 5.105469 10.722656 C 4.867188 11.816406 5.039062 12.410156 5.082031 12.808594 C 5.242188 14.25 5.300781 14.40625 5.667969 14.355469 C 6.238281 13.417969 6.246094 11.625 6.25 10.585938 L 6.886719 11.15625 C 8.480469 12.578125 8.949219 12.558594 10.316406 13.222656 C 11.605469 13.847656 13.019531 14.113281 13.8125 13.875 Z M 1.695312 8.808594 C 1.605469 8.722656 2.152344 8.050781 2.863281 7.367188 C 3.921875 6.347656 3.917969 6.347656 3.921875 7.164062 C 3.921875 7.96875 4.117188 8.40625 4.671875 8.867188 L 5.035156 9.167969 L 3.386719 9.011719 C 2.480469 8.925781 1.71875 8.835938 1.695312 8.808594 Z M 7.636719 8.886719 C 7.792969 8.761719 8.03125 8.476562 8.164062 8.25 C 8.375 7.890625 8.40625 7.746094 8.40625 7.113281 C 8.40625 6.714844 8.433594 6.386719 8.464844 6.386719 C 8.496094 6.386719 9.125 6.644531 9.859375 6.960938 C 10.59375 7.273438 11.289062 7.554688 11.40625 7.585938 C 11.523438 7.613281 11.617188 7.667969 11.617188 7.707031 C 11.617188 7.742188 11.171875 7.996094 10.628906 8.265625 C 9.515625 8.816406 8.6875 9.046875 7.613281 9.097656 L 7.351562 9.113281 Z M 16 4.652344 C 16 4.164062 15.941406 4.117188 15.324219 4.117188 C 13.941406 4.117188 13.601562 3.894531 11.523438 2.972656 C 9.300781 1.988281 7.953125 1.636719 6.410156 1.636719 C 4.898438 1.636719 3.304688 2.050781 1.671875 2.863281 C 0.339844 3.527344 -0.230469 4.074219 0.0859375 4.390625 C 0.195312 4.5 0.121094 4.523438 1.984375 3.796875 C 3.257812 3.300781 4.824219 2.882812 5.671875 2.8125 C 6.980469 2.699219 8.539062 3.042969 11.296875 4.050781 C 12.289062 4.414062 13.429688 4.792969 13.828125 4.894531 C 14.6875 5.113281 14.777344 5.078125 15.496094 5.082031 L 16 5.085938 Z M 16 4.652344 "/>
</g>
</svg>
