
<svg xmlns="http://www.w3.org/2000/svg" xmlns:xlink="http://www.w3.org/1999/xlink" width="16px" height="16px" viewBox="0 0 16 16" version="1.1">
<g id="surface1">
<path style=" stroke:none;fill-rule:nonzero;fill:#ff6666;fill-opacity:1;" d="M 2.644531 1.285156 C 1.460938 1.285156 0.5 2.246094 0.5 3.425781 C 0.5 4.613281 1.457031 5.570312 2.644531 5.570312 C 3.828125 5.570312 4.785156 4.613281 4.785156 3.425781 C 4.785156 2.246094 3.824219 1.285156 2.644531 1.285156 Z M 8.042969 6.007812 C 6.859375 6.011719 5.902344 6.96875 5.902344 8.152344 C 5.902344 9.335938 6.859375 10.292969 8.042969 10.296875 C 9.226562 10.292969 10.183594 9.335938 10.1875 8.152344 C 10.183594 6.96875 9.226562 6.011719 8.042969 6.007812 Z M 13.359375 10.714844 C 12.175781 10.714844 11.214844 11.675781 11.214844 12.859375 C 11.214844 14.039062 12.175781 15 13.359375 15 C 14.539062 15 15.5 14.039062 15.5 12.859375 C 15.5 11.675781 14.539062 10.714844 13.359375 10.714844 Z M 13.359375 10.714844 "/>
</g>
</svg>
