
<svg xmlns="http://www.w3.org/2000/svg" xmlns:xlink="http://www.w3.org/1999/xlink" width="16px" height="16px" viewBox="0 0 16 16" version="1.1">
<g id="surface1">
<path style=" stroke:none;fill-rule:nonzero;fill:#ff6666;fill-opacity:1;" d="M 10.285156 1 L 10.285156 2.164062 L 0 2.164062 L 0 4.5 L 10.285156 4.5 L 10.285156 5.664062 L 12.574219 5.664062 L 12.574219 1 Z M 13.714844 2.164062 L 13.714844 4.5 L 16 4.5 L 16 2.164062 Z M 3.429688 5.664062 L 3.429688 6.835938 L 0 6.835938 L 0 9.164062 L 3.429688 9.164062 L 3.429688 10.332031 L 5.714844 10.332031 L 5.714844 5.664062 Z M 6.859375 6.835938 L 6.859375 9.164062 L 16 9.164062 L 16 6.835938 Z M 8 10.332031 L 8 11.5 L 0 11.5 L 0 13.832031 L 8 13.832031 L 8 15 L 10.285156 15 L 10.285156 10.332031 Z M 11.425781 11.5 L 11.425781 13.832031 L 16 13.832031 L 16 11.5 Z M 11.425781 11.5 "/>
</g>
</svg>
