
<svg xmlns="http://www.w3.org/2000/svg" xmlns:xlink="http://www.w3.org/1999/xlink" width="16px" height="16px" viewBox="0 0 16 16" version="1.1">
<g id="surface1">
<path style=" stroke:none;fill-rule:evenodd;fill:#ff6666;fill-opacity:1;" d="M 1.453125 7.808594 L 1.453125 1.453125 L 8.035156 1.453125 L 8.050781 7.722656 C 7.964844 7.746094 7.875 7.769531 7.789062 7.796875 Z M 1.453125 8.082031 L 1.453125 12.550781 C 1.589844 12.242188 1.75 11.945312 1.9375 11.664062 C 2.519531 10.808594 3.253906 10.082031 4.109375 9.519531 C 5.007812 8.933594 5.972656 8.445312 6.976562 8.070312 Z M 14.546875 8.054688 L 14.546875 14.546875 L 8.335938 14.546875 L 8.324219 8.109375 C 8.363281 8.09375 8.402344 8.078125 8.441406 8.066406 Z M 14.546875 7.78125 L 14.546875 3.511719 C 14.445312 3.742188 14.328125 3.964844 14.199219 4.183594 C 13.710938 4.980469 13.054688 5.683594 12.289062 6.226562 C 11.617188 6.71875 10.890625 7.128906 10.128906 7.453125 C 9.839844 7.574219 9.546875 7.6875 9.257812 7.792969 Z M 8.308594 1.453125 L 14.546875 1.453125 L 14.546875 1.820312 C 14.449219 2.566406 14.199219 3.292969 13.816406 3.945312 C 13.34375 4.691406 12.746094 5.34375 12.027344 5.855469 C 11.382812 6.328125 10.683594 6.71875 9.945312 7.035156 C 9.417969 7.253906 8.890625 7.453125 8.34375 7.628906 C 8.339844 7.628906 8.328125 7.632812 8.320312 7.636719 Z M 8.0625 14.546875 L 1.453125 14.546875 L 1.453125 14.226562 C 1.5625 13.40625 1.855469 12.617188 2.316406 11.917969 C 2.863281 11.117188 3.554688 10.4375 4.363281 9.898438 C 5.503906 9.152344 6.742188 8.578125 8.050781 8.195312 Z M 0 0 L 16 0 L 16 16 L 0 16 Z M 0 0 "/>
</g>
</svg>
