
<svg xmlns="http://www.w3.org/2000/svg" xmlns:xlink="http://www.w3.org/1999/xlink" width="16px" height="16px" viewBox="0 0 16 16" version="1.1">
<g id="surface1">
<path style=" stroke:none;fill-rule:evenodd;fill:#ff6666;fill-opacity:1;" d="M 1.652344 4.964844 L 1.652344 6.621094 L 0 6.621094 L 0 7.171875 L 2.207031 7.171875 L 2.207031 5.519531 L 2.757812 5.519531 L 2.757812 8.828125 L 4.414062 8.828125 L 4.414062 7.171875 L 7.722656 7.171875 L 7.722656 5.519531 L 8.277344 5.519531 L 8.277344 8.828125 L 9.929688 8.828125 L 9.929688 7.171875 L 12.6875 7.171875 L 12.6875 5.519531 L 13.242188 5.519531 L 13.242188 8.828125 L 14.898438 8.828125 L 14.898438 7.171875 L 16 7.171875 L 16 6.621094 L 14.34375 6.621094 L 14.34375 8.277344 L 13.792969 8.277344 L 13.792969 4.964844 L 12.136719 4.964844 L 12.136719 6.621094 L 9.378906 6.621094 L 9.378906 8.277344 L 8.828125 8.277344 L 8.828125 4.964844 L 7.171875 4.964844 L 7.171875 6.621094 L 3.863281 6.621094 L 3.863281 8.277344 L 3.308594 8.277344 L 3.308594 4.964844 Z M 12.136719 9.378906 L 12.136719 11.035156 L 12.6875 11.035156 L 12.6875 9.378906 Z M 11.035156 9.929688 L 11.035156 11.035156 L 11.585938 11.035156 L 11.585938 9.929688 Z M 13.242188 9.929688 L 13.242188 11.035156 L 13.792969 11.035156 L 13.792969 9.929688 Z M 9.929688 10.484375 L 9.929688 11.035156 L 10.480469 11.035156 L 10.480469 10.484375 Z M 14.34375 10.484375 L 14.34375 11.035156 L 14.898438 11.035156 L 14.898438 10.484375 Z M 14.34375 10.484375 "/>
</g>
</svg>
