
<svg xmlns="http://www.w3.org/2000/svg" xmlns:xlink="http://www.w3.org/1999/xlink" width="16px" height="16px" viewBox="0 0 16 16" version="1.1">
<g id="surface1">
<path style=" stroke:none;fill-rule:nonzero;fill:#ff6666;fill-opacity:1;" d="M 7.984375 0 C 7.722656 0.00390625 7.476562 0.109375 7.292969 0.292969 L 5 2.585938 L 5 9.585938 L 11.5 3.085938 L 8.707031 0.292969 C 8.515625 0.101562 8.253906 -0.00390625 7.984375 0 Z M 12.914062 4.5 L 9.414062 8 L 12.914062 11.5 L 15.707031 8.707031 C 16.097656 8.316406 16.097656 7.683594 15.707031 7.292969 Z M 3 4.585938 L 0.292969 7.292969 C -0.0976562 7.683594 -0.0976562 8.316406 0.292969 8.707031 L 3 11.414062 Z M 8 9.414062 L 4.5 12.914062 L 7.292969 15.707031 C 7.683594 16.097656 8.316406 16.097656 8.707031 15.707031 L 11.5 12.914062 Z M 8 9.414062 "/>
</g>
</svg>
