
<svg xmlns="http://www.w3.org/2000/svg" xmlns:xlink="http://www.w3.org/1999/xlink" width="16px" height="16px" viewBox="0 0 16 16" version="1.1">
<g id="surface1">
<path style=" stroke:none;fill-rule:nonzero;fill:#ff6666;fill-opacity:1;" d="M 14.917969 0.90625 C 14.847656 0.941406 14.785156 0.992188 14.742188 1.054688 L 14.265625 1.527344 L 14.117188 1.382812 L 8.433594 7.066406 L 8.582031 7.214844 L 8.109375 7.6875 L 8.078125 8.367188 L 8.761719 8.339844 L 9.234375 7.863281 L 9.382812 8.011719 L 15.066406 2.328125 L 14.917969 2.179688 L 15.390625 1.707031 C 15.667969 1.425781 15.367188 0.84375 14.976562 0.90625 C 14.957031 0.90625 14.9375 0.90625 14.917969 0.90625 Z M 1.449219 2.683594 C 0.921875 2.683594 0.5 3.105469 0.5 3.632812 L 0.5 12.15625 C 0.5 12.683594 0.921875 13.105469 1.449219 13.105469 L 12.816406 13.105469 C 13.339844 13.105469 13.765625 12.683594 13.765625 12.15625 L 13.765625 4.992188 L 10.0625 8.695312 L 9.382812 9.34375 L 9.234375 9.195312 L 9.175781 9.257812 L 8.789062 9.285156 L 8.109375 9.316406 L 7.101562 9.34375 L 7.132812 8.339844 L 7.160156 7.65625 L 7.191406 7.273438 L 7.25 7.214844 L 7.101562 7.066406 L 7.753906 6.382812 L 11.453125 2.683594 Z M 0.5 13.105469 L 0.5 14.050781 C 0.5 14.578125 0.921875 15 1.449219 15 L 12.816406 15 C 13.339844 15 13.765625 14.578125 13.765625 14.050781 L 13.765625 13.105469 C 13.765625 13.628906 13.339844 14.050781 12.816406 14.050781 L 1.449219 14.050781 C 0.921875 14.050781 0.5 13.628906 0.5 13.105469 Z M 0.5 13.105469 "/>
</g>
</svg>
