
<svg xmlns="http://www.w3.org/2000/svg" xmlns:xlink="http://www.w3.org/1999/xlink" width="16px" height="16px" viewBox="0 0 16 16" version="1.1">
<g id="surface1">
<path style=" stroke:none;fill-rule:nonzero;fill:#ff6666;fill-opacity:1;" d="M 5.890625 5.890625 C 5.839844 5.632812 5.816406 5.363281 5.816406 5.089844 C 5.816406 2.269531 8.085938 0 10.910156 0 L 16 0 L 16 5.089844 C 16 7.914062 13.730469 10.183594 10.910156 10.183594 C 10.636719 10.183594 10.367188 10.160156 10.109375 10.109375 C 10.160156 10.367188 10.183594 10.636719 10.183594 10.910156 C 10.183594 13.730469 7.914062 16 5.089844 16 L 0 16 L 0 10.910156 C 0 8.085938 2.269531 5.816406 5.089844 5.816406 C 5.363281 5.816406 5.632812 5.839844 5.890625 5.890625 Z M 5.890625 5.890625 "/>
</g>
</svg>
