
<svg xmlns="http://www.w3.org/2000/svg" xmlns:xlink="http://www.w3.org/1999/xlink" width="16px" height="16px" viewBox="0 0 16 16" version="1.1">
<g id="surface1">
<path style=" stroke:none;fill-rule:nonzero;fill:#ff6666;fill-opacity:1;" d="M 7.949219 14.390625 C 7.667969 14.230469 7.597656 14.101562 7.597656 13.742188 C 7.59375 13.292969 7.875 13.089844 8.644531 12.996094 C 9.351562 12.90625 9.449219 12.871094 9.796875 12.554688 L 10.023438 12.347656 L 10.023438 8.085938 C 10.023438 4.308594 10.007812 3.796875 9.859375 3.585938 C 9.640625 3.273438 9.125 3.070312 8.550781 3.070312 C 8.167969 3.070312 8.03125 3.015625 7.78125 2.765625 C 7.550781 2.535156 7.496094 2.410156 7.550781 2.234375 C 7.648438 1.914062 7.875 1.679688 8.160156 1.609375 C 8.554688 1.507812 9.722656 1.742188 10.242188 2.023438 L 10.71875 2.28125 L 11.261719 2.015625 C 11.871094 1.71875 12.941406 1.507812 13.375 1.601562 C 13.675781 1.667969 13.972656 2.035156 13.972656 2.339844 C 13.972656 2.441406 13.882812 2.621094 13.777344 2.738281 C 13.574219 2.953125 13.402344 3.003906 12.539062 3.117188 C 12.277344 3.152344 11.945312 3.273438 11.804688 3.386719 C 11.566406 3.574219 11.542969 3.65625 11.542969 4.34375 L 11.542969 5.09375 L 12.851562 5.09375 C 13.90625 5.09375 14.191406 5.125 14.320312 5.253906 C 14.558594 5.492188 14.558594 10.570312 14.320312 10.808594 C 14.191406 10.9375 13.90625 10.96875 12.847656 10.96875 L 11.535156 10.96875 L 11.566406 11.742188 C 11.589844 12.433594 11.621094 12.535156 11.847656 12.707031 C 11.988281 12.808594 12.351562 12.921875 12.660156 12.953125 C 13.433594 13.03125 13.734375 13.167969 13.871094 13.5 C 14.035156 13.894531 13.828125 14.316406 13.417969 14.429688 C 12.980469 14.550781 11.816406 14.347656 11.234375 14.050781 L 10.734375 13.800781 L 10.238281 14.050781 C 9.964844 14.1875 9.453125 14.347656 9.101562 14.40625 C 8.300781 14.535156 8.203125 14.535156 7.949219 14.390625 Z M 13.46875 8.03125 L 13.46875 6.007812 L 11.542969 6.007812 L 11.542969 10.054688 L 13.46875 10.054688 Z M 1.679688 10.808594 C 1.441406 10.570312 1.441406 5.492188 1.679688 5.253906 C 1.816406 5.117188 2.300781 5.09375 5.425781 5.09375 L 9.011719 5.09375 L 9.011719 6.007812 L 2.53125 6.007812 L 2.53125 10.054688 L 9.011719 10.054688 L 9.011719 10.96875 L 5.425781 10.96875 C 2.300781 10.96875 1.816406 10.949219 1.679688 10.808594 Z M 3.546875 8.03125 L 3.546875 7.019531 L 8 7.019531 L 8 9.042969 L 3.546875 9.042969 Z M 3.546875 8.03125 "/>
</g>
</svg>
