
<svg xmlns="http://www.w3.org/2000/svg" xmlns:xlink="http://www.w3.org/1999/xlink" width="16px" height="16px" viewBox="0 0 16 16" version="1.1">
<g id="surface1">
<path style=" stroke:none;fill-rule:nonzero;fill:#ff6666;fill-opacity:1;" d="M 8.78125 2 C 8.726562 1.992188 8.675781 2.007812 8.636719 2.042969 C 8.597656 2.078125 8.574219 2.128906 8.570312 2.183594 L 8.34375 4.671875 C 8.332031 4.785156 8.410156 4.886719 8.515625 4.898438 C 9.136719 4.960938 9.730469 5.140625 10.289062 5.429688 C 10.316406 5.445312 10.347656 5.449219 10.375 5.449219 C 10.398438 5.449219 10.417969 5.445312 10.4375 5.4375 C 10.484375 5.417969 10.527344 5.382812 10.546875 5.332031 L 11.5625 3.082031 C 11.605469 2.976562 11.566406 2.855469 11.46875 2.804688 C 10.625 2.367188 9.71875 2.09375 8.78125 2 Z M 6.914062 2.035156 C 5.984375 2.171875 5.085938 2.480469 4.257812 2.953125 C 4.160156 3.007812 4.125 3.132812 4.175781 3.234375 L 5.265625 5.441406 C 5.300781 5.511719 5.371094 5.550781 5.4375 5.550781 C 5.46875 5.550781 5.5 5.542969 5.53125 5.527344 C 6.078125 5.214844 6.667969 5.011719 7.28125 4.921875 C 7.386719 4.910156 7.460938 4.804688 7.445312 4.6875 L 7.132812 2.210938 C 7.121094 2.097656 7.023438 2.019531 6.914062 2.035156 Z M 12.902344 3.832031 C 12.851562 3.835938 12.804688 3.867188 12.769531 3.90625 L 11.300781 5.84375 C 11.269531 5.886719 11.253906 5.941406 11.261719 6 C 11.265625 6.054688 11.289062 6.105469 11.328125 6.140625 C 11.8125 6.558594 12.21875 7.0625 12.535156 7.632812 C 12.574219 7.699219 12.640625 7.734375 12.703125 7.734375 C 12.738281 7.734375 12.773438 7.726562 12.804688 7.703125 L 14.804688 6.421875 C 14.847656 6.394531 14.878906 6.351562 14.890625 6.296875 C 14.90625 6.242188 14.898438 6.1875 14.871094 6.140625 C 14.390625 5.273438 13.773438 4.511719 13.046875 3.875 C 13.003906 3.84375 12.953125 3.828125 12.902344 3.832031 Z M 2.859375 4.039062 C 2.808594 4.035156 2.757812 4.054688 2.71875 4.089844 C 2.015625 4.757812 1.425781 5.539062 0.976562 6.421875 C 0.953125 6.472656 0.945312 6.53125 0.960938 6.585938 C 0.976562 6.636719 1.007812 6.679688 1.054688 6.707031 L 3.097656 7.90625 C 3.128906 7.921875 3.160156 7.929688 3.191406 7.929688 C 3.261719 7.929688 3.324219 7.890625 3.359375 7.820312 C 3.660156 7.238281 4.046875 6.71875 4.515625 6.28125 C 4.554688 6.242188 4.578125 6.191406 4.578125 6.136719 C 4.582031 6.082031 4.566406 6.027344 4.53125 5.984375 L 2.992188 4.109375 C 2.960938 4.066406 2.914062 4.042969 2.859375 4.039062 Z M 15.390625 7.828125 L 13.167969 8.578125 C 13.066406 8.609375 13.007812 8.726562 13.042969 8.835938 C 13.199219 9.382812 13.28125 9.953125 13.28125 10.53125 C 13.28125 10.617188 13.28125 10.707031 13.277344 10.796875 C 13.273438 10.855469 13.292969 10.910156 13.328125 10.949219 C 13.359375 10.988281 13.410156 11.015625 13.460938 11.015625 L 15.789062 11.132812 C 15.792969 11.132812 15.792969 11.132812 15.796875 11.132812 C 15.898438 11.132812 15.984375 11.046875 15.988281 10.933594 C 15.996094 10.792969 16 10.664062 16 10.53125 C 16 9.660156 15.875 8.796875 15.636719 7.96875 C 15.601562 7.855469 15.496094 7.796875 15.390625 7.828125 Z M 4.613281 8.070312 C 4.570312 8.074219 4.53125 8.09375 4.5 8.128906 C 4.433594 8.195312 4.417969 8.300781 4.460938 8.382812 L 6.179688 11.84375 C 6.175781 11.910156 6.171875 11.976562 6.171875 12.046875 C 6.171875 12.566406 6.359375 13.054688 6.703125 13.421875 C 7.050781 13.792969 7.503906 13.996094 7.992188 13.996094 C 8.480469 13.996094 8.9375 13.792969 9.28125 13.421875 C 9.625 13.054688 9.8125 12.566406 9.8125 12.046875 C 9.8125 11.523438 9.625 11.03125 9.28125 10.664062 C 8.9375 10.296875 8.480469 10.09375 7.992188 10.09375 C 7.960938 10.09375 7.925781 10.09375 7.890625 10.09375 L 4.738281 8.101562 C 4.699219 8.074219 4.65625 8.066406 4.613281 8.070312 Z M 0.515625 8.136719 C 0.46875 8.121094 0.414062 8.128906 0.367188 8.15625 C 0.324219 8.183594 0.292969 8.230469 0.28125 8.28125 C 0.09375 9.015625 0 9.769531 0 10.53125 C 0 10.664062 0.00390625 10.792969 0.0078125 10.933594 C 0.015625 11.046875 0.101562 11.132812 0.203125 11.132812 C 0.207031 11.132812 0.210938 11.132812 0.210938 11.132812 L 2.539062 11.015625 C 2.589844 11.015625 2.640625 10.988281 2.671875 10.949219 C 2.707031 10.910156 2.726562 10.855469 2.726562 10.796875 C 2.71875 10.707031 2.71875 10.617188 2.71875 10.53125 C 2.71875 10.027344 2.78125 9.527344 2.902344 9.046875 C 2.929688 8.9375 2.867188 8.820312 2.765625 8.789062 Z M 0.515625 8.136719 "/>
</g>
</svg>
