
<svg xmlns="http://www.w3.org/2000/svg" xmlns:xlink="http://www.w3.org/1999/xlink" width="16px" height="16px" viewBox="0 0 16 16" version="1.1">
<g id="surface1">
<path style=" stroke:none;fill-rule:nonzero;fill:#ff6666;fill-opacity:1;" d="M 8.984375 15.890625 C 8.929688 15.890625 8.875 15.890625 8.765625 15.835938 C 8.652344 15.78125 8.542969 15.667969 8.433594 15.558594 L 6.382812 10.796875 L 3.890625 13.121094 C 3.835938 13.230469 3.726562 13.289062 3.558594 13.289062 C 3.503906 13.289062 3.394531 13.289062 3.339844 13.230469 C 3.171875 13.179688 3.007812 12.953125 3.007812 12.734375 L 3.007812 0.554688 C 3.007812 0.332031 3.117188 0.109375 3.339844 0.0546875 C 3.394531 0 3.503906 0 3.558594 0 C 3.671875 0 3.835938 0.0546875 3.949219 0.167969 L 12.804688 8.472656 C 12.972656 8.636719 13.027344 8.859375 12.972656 9.078125 C 12.917969 9.300781 12.695312 9.414062 12.476562 9.46875 L 8.988281 9.800781 L 11.144531 14.503906 C 11.203125 14.617188 11.203125 14.78125 11.144531 14.949219 C 11.089844 15.058594 10.980469 15.226562 10.867188 15.28125 L 9.261719 16 C 9.152344 15.890625 9.039062 15.890625 8.988281 15.890625 Z M 8.984375 15.890625 "/>
</g>
</svg>
