
<svg xmlns="http://www.w3.org/2000/svg" xmlns:xlink="http://www.w3.org/1999/xlink" width="16px" height="16px" viewBox="0 0 16 16" version="1.1">
<g id="surface1">
<path style=" stroke:none;fill-rule:nonzero;fill:#ff6666;fill-opacity:1;" d="M 6.007812 0.132812 C 5.886719 0.234375 5.855469 0.394531 5.855469 0.578125 C 5.855469 0.921875 5.976562 1.34375 6.035156 1.5 C 6.035156 1.5 6.269531 3.269531 6.300781 3.480469 C 6.03125 3.507812 5.699219 3.53125 5.523438 3.585938 L 5.28125 3.585938 C 4.777344 3.609375 4.296875 3.636719 4.089844 3.820312 L 4 3.898438 L 4.089844 4.007812 C 4.238281 4.164062 4.296875 4.609375 4.359375 5.085938 C 4.507812 6.058594 4.6875 7.34375 5.582031 7.816406 L 5.761719 7.894531 L 5.761719 7.710938 C 5.761719 7.710938 5.789062 7.632812 5.789062 7.527344 C 5.789062 7.445312 5.761719 7.316406 5.730469 7.132812 C 5.96875 7.15625 6.332031 7.210938 6.511719 7.210938 C 6.539062 7.421875 7.460938 16 7.460938 16 L 7.757812 16 C 7.757812 16 8.195312 7.527344 8.195312 7.261719 C 8.40625 7.261719 9.222656 7.289062 9.488281 7.316406 C 9.429688 7.472656 9.191406 8.132812 9.191406 8.132812 L 9.609375 7.789062 C 9.726562 7.710938 12.324219 5.558594 11.964844 4.191406 C 11.847656 3.742188 11.429688 3.425781 10.742188 3.269531 L 10.683594 3.269531 C 10.296875 3.269531 9.210938 3.296875 8.316406 3.347656 C 8.347656 2.664062 8.347656 2.367188 8.347656 2.183594 L 8.347656 1.945312 C 8.347656 1.816406 8.386719 1.632812 8.503906 1.5 C 8.625 1.34375 8.773438 1.210938 8.773438 1.054688 C 8.773438 1 8.742188 0.945312 8.714844 0.894531 C 8.535156 0.65625 6.929688 0.0546875 6.363281 0 C 6.183594 0.0273438 6.066406 0.0546875 6.007812 0.132812 Z M 6.183594 4.375 L 6.332031 4.375 C 6.332031 4.609375 6.421875 6.34375 6.449219 6.578125 C 6.210938 6.550781 5.789062 6.5 5.609375 6.5 C 5.523438 6.15625 5.492188 5.789062 5.460938 5.421875 C 5.433594 5.105469 5.402344 4.714844 5.34375 4.425781 C 5.609375 4.425781 6.183594 4.375 6.183594 4.375 Z M 8.257812 5.261719 C 8.257812 5.261719 8.285156 4.558594 8.285156 4.347656 C 8.675781 4.398438 9.070312 4.425781 9.550781 4.425781 L 10.085938 4.425781 C 10.085938 4.53125 10.058594 4.664062 10.058594 4.664062 C 9.996094 5.242188 9.90625 6 9.640625 6.683594 C 9.460938 6.683594 8.464844 6.632812 8.226562 6.605469 C 8.226562 6.421875 8.257812 5.261719 8.257812 5.261719 Z M 8.257812 5.261719 "/>
</g>
</svg>
