
<svg xmlns="http://www.w3.org/2000/svg" xmlns:xlink="http://www.w3.org/1999/xlink" width="16px" height="16px" viewBox="0 0 16 16" version="1.1">
<g id="surface1">
<path style=" stroke:none;fill-rule:nonzero;fill:#ff6666;fill-opacity:1;" d="M 13.835938 1.816406 C 13.777344 1.8125 13.714844 1.824219 13.660156 1.855469 C 13.214844 2.054688 13.734375 2.53125 12.191406 3.230469 C 10.675781 3.910156 7.460938 3.507812 4.566406 4.816406 C 4.179688 4.988281 3.84375 5.179688 3.539062 5.359375 C 3.46875 5.207031 3.371094 5.066406 3.25 4.953125 C 2.96875 4.675781 2.554688 4.527344 2.089844 4.527344 C 1.945312 4.527344 1.941406 4.496094 1.914062 4.46875 C 1.855469 4.410156 1.816406 4.335938 1.796875 4.253906 C 1.738281 4.023438 1.777344 3.730469 1.777344 3.730469 C 1.808594 3.53125 1.738281 3.332031 1.59375 3.191406 C 1.445312 3.054688 1.238281 2.996094 1.042969 3.035156 C 0.773438 3.085938 0.570312 3.304688 0.539062 3.578125 C 0.539062 3.578125 0.46875 4.03125 0.597656 4.546875 C 0.664062 4.800781 0.792969 5.089844 1.042969 5.339844 C 1.320312 5.609375 1.695312 5.765625 2.089844 5.765625 C 2.3125 5.765625 2.351562 5.816406 2.378906 5.84375 C 2.40625 5.867188 2.4375 5.917969 2.457031 6.035156 C 2.457031 6.054688 2.453125 6.074219 2.457031 6.09375 C 0.898438 7.417969 1.046875 8.671875 0.945312 9.074219 C 0.820312 8.882812 0.53125 8.828125 0.289062 8.9375 C 0.0234375 9.058594 -0.207031 9.597656 0.308594 10.738281 C 0.820312 11.882812 1.398438 12.078125 1.660156 11.957031 C 1.90625 11.847656 2.03125 11.59375 1.972656 11.378906 C 2.214844 11.503906 2.679688 11.945312 3.539062 12.152344 C 3.441406 11.804688 3.386719 11.449219 3.386719 11.089844 C 3.386719 8.898438 5.160156 7.121094 7.351562 7.121094 C 8.839844 7.121094 10.140625 7.941406 10.816406 9.152344 C 11.824219 8.1875 12.949219 7.078125 13.757812 6.714844 C 15.300781 6.015625 15.347656 6.796875 15.792969 6.597656 C 16.066406 6.472656 16.027344 6.242188 15.90625 5.976562 L 14.203125 2.183594 C 14.113281 1.984375 14.003906 1.832031 13.835938 1.816406 Z M 7.351562 7.992188 C 5.640625 7.992188 4.257812 9.378906 4.257812 11.089844 C 4.257812 12.796875 5.640625 14.183594 7.351562 14.183594 C 9.0625 14.183594 10.449219 12.796875 10.449219 11.089844 C 10.449219 9.378906 9.0625 7.992188 7.351562 7.992188 Z M 7.351562 9.171875 C 8.410156 9.171875 9.269531 10.027344 9.269531 11.089844 C 9.269531 12.144531 8.410156 13.003906 7.351562 13.003906 C 6.292969 13.003906 5.4375 12.144531 5.4375 11.089844 C 5.4375 10.027344 6.292969 9.171875 7.351562 9.171875 Z M 7.351562 10.429688 C 6.996094 10.429688 6.695312 10.730469 6.695312 11.089844 C 6.695312 11.445312 6.996094 11.746094 7.351562 11.746094 C 7.710938 11.746094 8.011719 11.445312 8.011719 11.089844 C 8.011719 10.730469 7.710938 10.429688 7.351562 10.429688 Z M 7.351562 10.429688 "/>
</g>
</svg>
