
<svg xmlns="http://www.w3.org/2000/svg" xmlns:xlink="http://www.w3.org/1999/xlink" width="16px" height="16px" viewBox="0 0 16 16" version="1.1">
<g id="surface1">
<path style=" stroke:none;fill-rule:nonzero;fill:#ff6666;fill-opacity:1;" d="M 8.003906 2.238281 C 7.828125 2.238281 7.652344 2.242188 7.480469 2.257812 C 5.621094 2.425781 4.015625 3.488281 3.089844 5.007812 C 2.664062 5.789062 2.417969 6.699219 2.417969 7.699219 C 2.417969 8.382812 2.546875 9.050781 2.789062 9.710938 C 2.8125 9.75 2.828125 9.78125 2.828125 9.78125 C 3.421875 10.742188 5.949219 10.71875 8.773438 9.160156 C 10.636719 8.140625 12.042969 6.71875 12.355469 5.539062 C 12.457031 5.152344 12.441406 4.824219 12.285156 4.566406 C 12.28125 4.5625 12.234375 4.480469 12.144531 4.359375 C 11.191406 3.175781 9.960938 2.386719 8.453125 2.257812 C 8.304688 2.242188 8.152344 2.238281 8.003906 2.238281 Z M 12.40625 2.367188 C 12.25 2.367188 12.089844 2.378906 11.925781 2.386719 C 11.871094 2.390625 11.808594 2.394531 11.753906 2.398438 C 11.636719 2.40625 11.519531 2.410156 11.394531 2.425781 C 11.332031 2.433594 11.269531 2.449219 11.203125 2.457031 C 11.144531 2.464844 11.085938 2.46875 11.023438 2.476562 C 11.644531 2.875 12.207031 3.394531 12.695312 4.007812 C 12.691406 4.011719 12.6875 4.015625 12.683594 4.019531 C 12.78125 4.152344 12.832031 4.25 12.835938 4.257812 C 13.078125 4.652344 13.121094 5.15625 12.976562 5.710938 C 12.621094 7.050781 11.09375 8.621094 9.082031 9.722656 C 7.445312 10.625 5.832031 11.082031 4.5625 11.082031 C 3.503906 11.082031 2.6875 10.769531 2.289062 10.121094 L 2.269531 10.070312 C 2.265625 10.070312 2.261719 10.074219 2.257812 10.070312 C 2.246094 10.03125 2.234375 9.988281 2.21875 9.949219 C 2.203125 9.90625 2.191406 9.875 2.1875 9.871094 C 2.191406 9.871094 2.1875 9.863281 2.1875 9.859375 C 1.9375 9.152344 1.777344 8.429688 1.777344 7.699219 C 1.777344 7.621094 1.785156 7.546875 1.789062 7.46875 C 0.132812 9.28125 -0.421875 11.042969 0.328125 12.292969 C 0.882812 13.210938 2.066406 13.664062 3.589844 13.664062 C 3.800781 13.664062 4.019531 13.652344 4.238281 13.632812 C 4.3125 13.628906 4.386719 13.621094 4.460938 13.613281 C 4.886719 13.566406 5.3125 13.496094 5.730469 13.402344 C 5.789062 13.390625 5.851562 13.386719 5.910156 13.371094 C 7.265625 13.058594 8.742188 12.488281 10.214844 11.671875 C 11.546875 10.917969 12.714844 10.046875 13.644531 9.140625 C 13.78125 9.007812 13.910156 8.882812 14.035156 8.75 C 14.0625 8.722656 14.082031 8.695312 14.105469 8.671875 C 14.207031 8.558594 14.3125 8.449219 14.40625 8.339844 C 14.4375 8.304688 14.464844 8.269531 14.496094 8.230469 C 14.578125 8.132812 14.660156 8.03125 14.734375 7.929688 C 14.769531 7.886719 14.804688 7.84375 14.835938 7.800781 C 14.90625 7.707031 14.972656 7.613281 15.035156 7.519531 C 15.070312 7.472656 15.09375 7.425781 15.128906 7.378906 C 15.183594 7.289062 15.242188 7.199219 15.296875 7.109375 C 15.328125 7.058594 15.347656 7.007812 15.378906 6.960938 C 15.425781 6.871094 15.472656 6.785156 15.515625 6.699219 C 15.539062 6.648438 15.5625 6.597656 15.585938 6.550781 C 15.628906 6.457031 15.671875 6.371094 15.707031 6.277344 C 15.726562 6.234375 15.742188 6.191406 15.757812 6.148438 C 15.804688 6.019531 15.851562 5.886719 15.886719 5.757812 C 16.089844 4.980469 16.019531 4.304688 15.675781 3.738281 C 15.613281 3.636719 15.542969 3.539062 15.46875 3.445312 C 15.445312 3.421875 15.417969 3.402344 15.398438 3.378906 C 15.335938 3.308594 15.269531 3.246094 15.195312 3.1875 C 15.171875 3.167969 15.148438 3.144531 15.128906 3.128906 C 15.03125 3.050781 14.929688 2.980469 14.824219 2.917969 C 14.804688 2.902344 14.789062 2.898438 14.765625 2.886719 C 14.671875 2.832031 14.574219 2.78125 14.476562 2.738281 C 14.441406 2.722656 14.402344 2.710938 14.367188 2.695312 C 14.261719 2.65625 14.152344 2.617188 14.046875 2.585938 C 14.019531 2.578125 13.992188 2.566406 13.964844 2.558594 C 13.828125 2.519531 13.683594 2.484375 13.535156 2.457031 C 13.496094 2.449219 13.457031 2.453125 13.414062 2.445312 C 13.300781 2.429688 13.179688 2.40625 13.054688 2.398438 C 13.007812 2.390625 12.964844 2.390625 12.914062 2.386719 C 12.75 2.375 12.582031 2.367188 12.414062 2.367188 Z M 13.246094 10.351562 C 12.398438 11.058594 11.484375 11.6875 10.523438 12.234375 C 9.410156 12.851562 8.257812 13.34375 7.140625 13.691406 C 7.429688 13.738281 7.71875 13.761719 8.003906 13.761719 C 10.324219 13.761719 12.34375 12.386719 13.246094 10.351562 Z M 13.246094 10.351562 "/>
</g>
</svg>
