
<svg xmlns="http://www.w3.org/2000/svg" xmlns:xlink="http://www.w3.org/1999/xlink" width="16px" height="16px" viewBox="0 0 16 16" version="1.1">
<g id="surface1">
<path style=" stroke:none;fill-rule:nonzero;fill:#ff6666;fill-opacity:1;" d="M 1.332031 11 L 1.332031 9.667969 L 7.332031 9.667969 L 7.332031 5 L 14.667969 5 L 14.667969 6.332031 L 8.667969 6.332031 L 8.667969 11 Z M 1.332031 11 "/>
<path style=" stroke:none;fill-rule:nonzero;fill:#ff6666;fill-opacity:1;" d="M 8 4.332031 C 7.265625 4.332031 6.667969 4.929688 6.667969 5.667969 C 6.667969 6.402344 7.265625 7 8 7 C 8.734375 7 9.332031 6.402344 9.332031 5.667969 C 9.332031 4.929688 8.734375 4.332031 8 4.332031 Z M 14.667969 4.332031 C 13.929688 4.332031 13.332031 4.929688 13.332031 5.667969 C 13.332031 6.402344 13.929688 7 14.667969 7 C 15.402344 7 16 6.402344 16 5.667969 C 16 4.929688 15.402344 4.332031 14.667969 4.332031 Z M 1.332031 9 C 0.597656 9 0 9.597656 0 10.332031 C 0 11.070312 0.597656 11.667969 1.332031 11.667969 C 2.070312 11.667969 2.667969 11.070312 2.667969 10.332031 C 2.667969 9.597656 2.070312 9 1.332031 9 Z M 8 9 C 7.265625 9 6.667969 9.597656 6.667969 10.332031 C 6.667969 11.070312 7.265625 11.667969 8 11.667969 C 8.734375 11.667969 9.332031 11.070312 9.332031 10.332031 C 9.332031 9.597656 8.734375 9 8 9 Z M 8 9 "/>
</g>
</svg>
