
<svg xmlns="http://www.w3.org/2000/svg" xmlns:xlink="http://www.w3.org/1999/xlink" width="16px" height="16px" viewBox="0 0 16 16" version="1.1">
<g id="surface1">
<path style=" stroke:none;fill-rule:evenodd;fill:#ff6666;fill-opacity:1;" d="M 13.714844 14.285156 L 13.714844 15.109375 C 13.714844 15.601562 13.347656 16 12.898438 16 L 3.101562 16 C 2.652344 16 2.285156 15.601562 2.285156 15.109375 L 2.285156 9.144531 L 0.429688 9.144531 C 0.191406 9.144531 0 8.972656 0 8.761719 L 0 7.238281 C 0 7.027344 0.191406 6.855469 0.429688 6.855469 L 2.285156 6.855469 L 2.285156 4 L 0.429688 4 C 0.191406 4 0 3.828125 0 3.621094 L 0 2.09375 C 0 1.886719 0.191406 1.714844 0.429688 1.714844 L 2.285156 1.714844 L 2.285156 0.890625 C 2.285156 0.398438 2.652344 0 3.101562 0 L 12.898438 0 C 13.347656 0 13.714844 0.398438 13.714844 0.890625 L 13.714844 1.714844 L 15.570312 1.714844 C 15.808594 1.714844 16 1.886719 16 2.09375 L 16 3.621094 C 16 3.828125 15.808594 4 15.570312 4 L 13.714844 4 L 13.714844 6.855469 L 15.570312 6.855469 C 15.808594 6.855469 16 7.027344 16 7.238281 L 16 8.761719 C 16 8.972656 15.808594 9.144531 15.570312 9.144531 L 13.714844 9.144531 L 13.714844 12 L 15.570312 12 C 15.808594 12 16 12.171875 16 12.382812 L 16 13.90625 C 16 14.113281 15.808594 14.285156 15.570312 14.285156 Z M 4.570312 2.855469 L 11.429688 2.855469 L 11.429688 13.144531 L 8 13.144531 L 8 9.714844 L 4.570312 9.714844 Z M 4.570312 2.855469 "/>
</g>
</svg>
