
<svg xmlns="http://www.w3.org/2000/svg" xmlns:xlink="http://www.w3.org/1999/xlink" width="16px" height="16px" viewBox="0 0 16 16" version="1.1">
<g id="surface1">
<path style=" stroke:none;fill-rule:evenodd;fill:#ff6666;fill-opacity:1;" d="M 4.835938 12.105469 C 4.835938 12.148438 4.824219 12.167969 4.800781 12.167969 C 4.734375 12.167969 4.640625 12.160156 4.519531 12.152344 C 4.394531 12.144531 4.289062 12.140625 4.210938 12.140625 C 4.128906 12.140625 4.019531 12.144531 3.882812 12.152344 C 3.734375 12.160156 3.613281 12.167969 3.515625 12.167969 C 3.496094 12.167969 3.484375 12.148438 3.484375 12.105469 C 3.484375 12.070312 3.496094 12.050781 3.519531 12.046875 C 3.714844 12.023438 3.816406 11.976562 3.816406 11.914062 C 3.816406 11.867188 3.777344 11.792969 3.710938 11.691406 L 3.15625 10.886719 L 2.5625 11.691406 C 2.511719 11.75 2.488281 11.808594 2.488281 11.863281 C 2.488281 11.914062 2.511719 11.953125 2.566406 11.980469 C 2.617188 12.007812 2.710938 12.03125 2.835938 12.046875 C 2.855469 12.050781 2.863281 12.070312 2.863281 12.105469 C 2.863281 12.148438 2.851562 12.167969 2.828125 12.167969 C 2.730469 12.167969 2.617188 12.160156 2.492188 12.152344 C 2.382812 12.144531 2.289062 12.140625 2.214844 12.140625 C 2.152344 12.140625 2.074219 12.144531 1.984375 12.152344 C 1.878906 12.160156 1.78125 12.167969 1.695312 12.167969 C 1.671875 12.167969 1.660156 12.148438 1.660156 12.105469 C 1.660156 12.070312 1.675781 12.050781 1.707031 12.046875 C 1.855469 12.035156 1.96875 12.003906 2.050781 11.960938 C 2.132812 11.914062 2.226562 11.820312 2.335938 11.6875 L 3.074219 10.769531 L 2.292969 9.683594 C 2.191406 9.539062 2.101562 9.445312 2.023438 9.40625 C 1.945312 9.367188 1.824219 9.339844 1.667969 9.324219 C 1.675781 9.324219 1.679688 9.304688 1.679688 9.261719 C 1.679688 9.222656 1.691406 9.203125 1.710938 9.203125 C 1.777344 9.203125 1.871094 9.207031 1.996094 9.214844 C 2.128906 9.226562 2.234375 9.230469 2.308594 9.230469 C 2.398438 9.230469 2.507812 9.226562 2.640625 9.214844 C 2.78125 9.207031 2.898438 9.203125 2.996094 9.203125 C 3.019531 9.203125 3.03125 9.222656 3.03125 9.261719 C 3.03125 9.304688 3.015625 9.324219 2.984375 9.324219 C 2.855469 9.339844 2.765625 9.359375 2.722656 9.378906 C 2.675781 9.394531 2.65625 9.425781 2.65625 9.460938 C 2.65625 9.507812 2.691406 9.582031 2.769531 9.683594 L 3.328125 10.4375 L 3.851562 9.683594 C 3.902344 9.605469 3.929688 9.546875 3.929688 9.511719 C 3.929688 9.460938 3.898438 9.421875 3.84375 9.394531 C 3.785156 9.363281 3.691406 9.339844 3.566406 9.324219 C 3.546875 9.324219 3.539062 9.304688 3.539062 9.261719 C 3.539062 9.222656 3.550781 9.203125 3.574219 9.203125 C 3.667969 9.203125 3.769531 9.207031 3.886719 9.214844 C 3.992188 9.226562 4.089844 9.230469 4.179688 9.230469 C 4.242188 9.230469 4.320312 9.226562 4.414062 9.21875 C 4.523438 9.210938 4.628906 9.203125 4.726562 9.203125 C 4.75 9.203125 4.761719 9.222656 4.761719 9.261719 C 4.761719 9.277344 4.757812 9.292969 4.746094 9.304688 C 4.734375 9.316406 4.726562 9.324219 4.714844 9.324219 C 4.5625 9.339844 4.445312 9.371094 4.363281 9.421875 C 4.28125 9.46875 4.191406 9.554688 4.089844 9.683594 L 3.40625 10.558594 L 4.191406 11.691406 C 4.296875 11.839844 4.386719 11.929688 4.453125 11.964844 C 4.523438 12.003906 4.640625 12.03125 4.800781 12.046875 C 4.824219 12.050781 4.835938 12.070312 4.835938 12.105469 Z M 4.359375 12.351562 C 4.472656 12.597656 4.5625 12.839844 4.636719 13.066406 C 5.171875 13.046875 5.554688 13.035156 5.78125 13.035156 C 6.007812 13.035156 6.390625 13.046875 6.925781 13.066406 C 6.949219 13.066406 6.960938 13.042969 6.960938 13.003906 C 6.960938 12.96875 6.949219 12.945312 6.925781 12.945312 C 6.808594 12.933594 6.71875 12.914062 6.65625 12.890625 C 6.59375 12.867188 6.550781 12.835938 6.523438 12.796875 C 6.5 12.757812 6.484375 12.6875 6.484375 12.589844 L 6.484375 10.59375 C 6.484375 10.496094 6.5 10.425781 6.519531 10.386719 C 6.546875 10.347656 6.589844 10.3125 6.652344 10.289062 C 6.714844 10.265625 6.808594 10.246094 6.925781 10.230469 C 6.949219 10.230469 6.960938 10.210938 6.960938 10.171875 C 6.960938 10.132812 6.949219 10.109375 6.925781 10.109375 C 6.566406 10.128906 6.199219 10.140625 5.824219 10.140625 C 5.445312 10.140625 5.074219 10.128906 4.71875 10.109375 C 4.6875 10.324219 4.644531 10.535156 4.582031 10.742188 C 4.582031 10.773438 4.605469 10.785156 4.660156 10.785156 C 4.683594 10.785156 4.695312 10.777344 4.699219 10.757812 C 4.808594 10.433594 5.03125 10.273438 5.378906 10.273438 L 5.808594 10.273438 C 5.96875 10.273438 6.050781 10.355469 6.050781 10.519531 L 6.050781 11.421875 L 5.503906 11.421875 C 5.359375 11.421875 5.257812 11.390625 5.207031 11.328125 C 5.152344 11.269531 5.117188 11.15625 5.097656 11 C 5.097656 10.980469 5.078125 10.96875 5.039062 10.96875 C 5 10.96875 4.980469 10.980469 4.980469 11.003906 C 4.980469 11.078125 4.988281 11.164062 5.003906 11.273438 C 5.019531 11.375 5.027344 11.460938 5.027344 11.527344 C 5.027344 11.59375 5.019531 11.675781 5.003906 11.78125 C 4.988281 11.890625 4.980469 11.984375 4.980469 12.054688 C 4.980469 12.078125 5 12.089844 5.039062 12.089844 C 5.078125 12.089844 5.097656 12.078125 5.097656 12.054688 C 5.121094 11.871094 5.160156 11.742188 5.214844 11.671875 C 5.269531 11.597656 5.367188 11.558594 5.503906 11.558594 L 6.050781 11.558594 L 6.050781 12.640625 C 6.050781 12.816406 5.96875 12.902344 5.808594 12.902344 L 5.34375 12.902344 C 5.175781 12.902344 5.007812 12.847656 4.839844 12.734375 C 4.671875 12.625 4.550781 12.484375 4.472656 12.316406 C 4.46875 12.304688 4.457031 12.296875 4.4375 12.296875 C 4.417969 12.296875 4.398438 12.300781 4.382812 12.3125 C 4.367188 12.320312 4.359375 12.335938 4.359375 12.351562 Z M 9.398438 9.90625 C 9.398438 9.933594 9.371094 9.945312 9.320312 9.945312 C 9.300781 9.945312 9.285156 9.933594 9.277344 9.914062 C 9.21875 9.714844 9.132812 9.574219 9.019531 9.488281 C 8.902344 9.40625 8.734375 9.367188 8.511719 9.367188 L 8.3125 9.367188 C 8.242188 9.367188 8.191406 9.378906 8.167969 9.402344 C 8.140625 9.421875 8.128906 9.464844 8.128906 9.523438 L 8.128906 11.691406 C 8.128906 11.785156 8.140625 11.855469 8.167969 11.894531 C 8.191406 11.9375 8.238281 11.972656 8.300781 11.992188 C 8.363281 12.015625 8.453125 12.035156 8.570312 12.046875 C 8.59375 12.050781 8.605469 12.070312 8.605469 12.105469 C 8.605469 12.148438 8.59375 12.167969 8.570312 12.167969 C 8.476562 12.167969 8.359375 12.160156 8.230469 12.152344 C 8.105469 12.144531 8.003906 12.140625 7.921875 12.140625 C 7.832031 12.140625 7.722656 12.144531 7.597656 12.152344 C 7.464844 12.160156 7.351562 12.167969 7.257812 12.167969 C 7.234375 12.167969 7.226562 12.148438 7.226562 12.105469 C 7.226562 12.070312 7.234375 12.050781 7.257812 12.046875 C 7.429688 12.03125 7.546875 12 7.609375 11.953125 C 7.671875 11.910156 7.703125 11.824219 7.703125 11.691406 L 7.703125 9.523438 C 7.703125 9.464844 7.6875 9.421875 7.664062 9.402344 C 7.636719 9.378906 7.589844 9.367188 7.515625 9.367188 L 7.351562 9.367188 C 7.152344 9.367188 6.96875 9.417969 6.804688 9.519531 C 6.644531 9.617188 6.535156 9.75 6.488281 9.914062 C 6.480469 9.933594 6.464844 9.945312 6.441406 9.945312 C 6.390625 9.945312 6.367188 9.929688 6.367188 9.898438 C 6.445312 9.683594 6.523438 9.441406 6.59375 9.167969 C 6.785156 9.210938 7.230469 9.230469 7.921875 9.230469 C 8.628906 9.230469 9.078125 9.210938 9.269531 9.167969 C 9.289062 9.355469 9.332031 9.601562 9.398438 9.90625 Z M 11.421875 12.351562 C 11.3125 12.597656 11.21875 12.839844 11.148438 13.066406 C 10.613281 13.046875 10.230469 13.035156 10.003906 13.035156 C 9.773438 13.035156 9.390625 13.046875 8.859375 13.066406 C 8.835938 13.066406 8.824219 13.042969 8.824219 13.003906 C 8.824219 12.96875 8.835938 12.945312 8.859375 12.945312 C 8.972656 12.933594 9.0625 12.914062 9.125 12.890625 C 9.1875 12.867188 9.234375 12.835938 9.257812 12.796875 C 9.28125 12.757812 9.296875 12.6875 9.296875 12.589844 L 9.296875 10.59375 C 9.296875 10.496094 9.285156 10.425781 9.261719 10.386719 C 9.238281 10.347656 9.191406 10.3125 9.128906 10.289062 C 9.066406 10.265625 8.976562 10.246094 8.859375 10.230469 C 8.835938 10.230469 8.824219 10.210938 8.824219 10.171875 C 8.824219 10.132812 8.835938 10.109375 8.859375 10.109375 C 9.21875 10.128906 9.585938 10.140625 9.960938 10.140625 C 10.339844 10.140625 10.710938 10.128906 11.066406 10.109375 C 11.09375 10.324219 11.140625 10.535156 11.203125 10.742188 C 11.203125 10.773438 11.175781 10.785156 11.125 10.785156 C 11.101562 10.785156 11.085938 10.777344 11.082031 10.757812 C 10.976562 10.433594 10.75 10.273438 10.40625 10.273438 L 9.976562 10.273438 C 9.8125 10.273438 9.730469 10.355469 9.730469 10.519531 L 9.730469 11.421875 L 10.277344 11.421875 C 10.425781 11.421875 10.523438 11.390625 10.578125 11.328125 C 10.628906 11.269531 10.664062 11.15625 10.683594 11 C 10.683594 10.980469 10.703125 10.96875 10.742188 10.96875 C 10.78125 10.96875 10.800781 10.980469 10.800781 11.003906 C 10.800781 11.078125 10.792969 11.164062 10.777344 11.273438 C 10.761719 11.375 10.753906 11.460938 10.753906 11.527344 C 10.753906 11.59375 10.761719 11.675781 10.777344 11.78125 C 10.792969 11.890625 10.800781 11.984375 10.800781 12.054688 C 10.800781 12.078125 10.78125 12.089844 10.742188 12.089844 C 10.703125 12.089844 10.683594 12.078125 10.683594 12.054688 C 10.660156 11.871094 10.621094 11.742188 10.570312 11.671875 C 10.515625 11.597656 10.417969 11.558594 10.277344 11.558594 L 9.730469 11.558594 L 9.730469 12.640625 C 9.730469 12.816406 9.8125 12.902344 9.976562 12.902344 L 10.441406 12.902344 C 10.609375 12.902344 10.777344 12.847656 10.941406 12.734375 C 11.109375 12.625 11.234375 12.484375 11.308594 12.316406 C 11.316406 12.304688 11.328125 12.296875 11.34375 12.296875 C 11.367188 12.296875 11.382812 12.300781 11.398438 12.3125 C 11.414062 12.320312 11.421875 12.335938 11.421875 12.351562 Z M 14.21875 12.105469 C 14.21875 12.148438 14.207031 12.167969 14.183594 12.167969 C 14.117188 12.167969 14.023438 12.160156 13.90625 12.152344 C 13.777344 12.144531 13.675781 12.140625 13.59375 12.140625 C 13.511719 12.140625 13.402344 12.144531 13.265625 12.152344 C 13.117188 12.160156 12.996094 12.167969 12.898438 12.167969 C 12.878906 12.167969 12.867188 12.148438 12.867188 12.105469 C 12.867188 12.070312 12.878906 12.050781 12.902344 12.046875 C 13.097656 12.023438 13.199219 11.976562 13.199219 11.914062 C 13.199219 11.867188 13.160156 11.792969 13.09375 11.691406 L 12.539062 10.886719 L 11.945312 11.691406 C 11.894531 11.75 11.871094 11.808594 11.871094 11.863281 C 11.871094 11.914062 11.894531 11.953125 11.949219 11.980469 C 12.003906 12.007812 12.09375 12.03125 12.21875 12.046875 C 12.238281 12.050781 12.246094 12.070312 12.246094 12.105469 C 12.246094 12.148438 12.234375 12.167969 12.214844 12.167969 C 12.113281 12.167969 12 12.160156 11.875 12.152344 C 11.765625 12.144531 11.675781 12.140625 11.597656 12.140625 C 11.535156 12.140625 11.457031 12.144531 11.367188 12.152344 C 11.261719 12.160156 11.164062 12.167969 11.078125 12.167969 C 11.054688 12.167969 11.046875 12.148438 11.046875 12.105469 C 11.046875 12.070312 11.058594 12.050781 11.089844 12.046875 C 11.238281 12.035156 11.351562 12.003906 11.433594 11.960938 C 11.515625 11.914062 11.609375 11.820312 11.71875 11.6875 L 12.457031 10.769531 L 11.675781 9.683594 C 11.574219 9.539062 11.484375 9.445312 11.40625 9.40625 C 11.328125 9.367188 11.210938 9.339844 11.050781 9.324219 C 11.058594 9.324219 11.0625 9.304688 11.0625 9.261719 C 11.0625 9.222656 11.074219 9.203125 11.09375 9.203125 C 11.160156 9.203125 11.257812 9.207031 11.378906 9.214844 C 11.511719 9.226562 11.617188 9.230469 11.691406 9.230469 C 11.78125 9.230469 11.890625 9.226562 12.023438 9.214844 C 12.164062 9.207031 12.28125 9.203125 12.378906 9.203125 C 12.402344 9.203125 12.414062 9.222656 12.414062 9.261719 C 12.414062 9.304688 12.398438 9.324219 12.367188 9.324219 C 12.238281 9.339844 12.148438 9.359375 12.105469 9.378906 C 12.058594 9.394531 12.039062 9.425781 12.039062 9.460938 C 12.039062 9.507812 12.078125 9.582031 12.152344 9.683594 L 12.714844 10.4375 L 13.234375 9.683594 C 13.285156 9.605469 13.3125 9.546875 13.3125 9.511719 C 13.3125 9.460938 13.28125 9.421875 13.226562 9.394531 C 13.167969 9.363281 13.074219 9.339844 12.949219 9.324219 C 12.933594 9.324219 12.921875 9.304688 12.921875 9.261719 C 12.921875 9.222656 12.933594 9.203125 12.957031 9.203125 C 13.050781 9.203125 13.152344 9.207031 13.269531 9.214844 C 13.375 9.226562 13.476562 9.230469 13.5625 9.230469 C 13.628906 9.230469 13.703125 9.226562 13.796875 9.21875 C 13.90625 9.210938 14.011719 9.203125 14.109375 9.203125 C 14.132812 9.203125 14.144531 9.222656 14.144531 9.261719 C 14.144531 9.277344 14.140625 9.292969 14.128906 9.304688 C 14.117188 9.316406 14.109375 9.324219 14.097656 9.324219 C 13.945312 9.339844 13.828125 9.371094 13.746094 9.421875 C 13.664062 9.46875 13.574219 9.554688 13.472656 9.683594 L 12.789062 10.558594 L 13.574219 11.691406 C 13.679688 11.839844 13.769531 11.929688 13.839844 11.964844 C 13.90625 12.003906 14.023438 12.03125 14.183594 12.046875 C 14.207031 12.050781 14.21875 12.070312 14.21875 12.105469 Z M 2.355469 5.25 L 3.695312 7.636719 L 2.375 7.636719 L 1.519531 5.984375 L 1.175781 6.191406 L 1.175781 7.636719 L 0 7.636719 L 0 3.3125 L 1.175781 3.3125 L 1.175781 5.191406 C 1.234375 5.074219 1.355469 4.890625 1.53125 4.636719 L 2.441406 3.3125 L 3.71875 3.3125 Z M 5.738281 6.78125 C 5.894531 6.78125 6.082031 6.742188 6.296875 6.667969 L 6.296875 7.511719 C 6.140625 7.578125 5.992188 7.625 5.851562 7.652344 C 5.710938 7.683594 5.546875 7.695312 5.355469 7.695312 C 4.96875 7.695312 4.6875 7.601562 4.515625 7.410156 C 4.34375 7.222656 4.257812 6.929688 4.257812 6.535156 L 4.257812 5.152344 L 3.851562 5.152344 L 3.851562 4.679688 L 4.367188 4.316406 L 4.667969 3.613281 L 5.425781 3.613281 L 5.425781 4.285156 L 6.246094 4.285156 L 6.246094 5.152344 L 5.425781 5.152344 L 5.425781 6.457031 C 5.425781 6.671875 5.527344 6.78125 5.738281 6.78125 Z M 8.046875 4.285156 L 8.046875 7.636719 L 6.890625 7.636719 L 6.890625 4.285156 Z M 6.859375 3.449219 C 6.859375 3.277344 6.90625 3.148438 7.003906 3.0625 C 7.101562 2.976562 7.257812 2.933594 7.472656 2.933594 C 7.6875 2.933594 7.84375 2.980469 7.941406 3.066406 C 8.039062 3.152344 8.089844 3.28125 8.089844 3.449219 C 8.089844 3.789062 7.882812 3.960938 7.472656 3.960938 C 7.0625 3.960938 6.859375 3.789062 6.859375 3.449219 Z M 9.953125 5.753906 L 9.976562 5.753906 C 10.113281 5.53125 10.234375 5.355469 10.332031 5.230469 L 11.085938 4.285156 L 12.375 4.285156 L 11.210938 5.710938 L 12.449219 7.636719 L 11.125 7.636719 L 10.390625 6.4375 L 10.015625 6.722656 L 10.015625 7.636719 L 8.855469 7.636719 L 8.855469 3.03125 L 10.015625 3.03125 L 10.015625 4.84375 C 10.015625 5.152344 9.996094 5.457031 9.953125 5.753906 Z M 16 6.695312 L 16 7.636719 L 12.628906 7.636719 L 12.628906 6.914062 L 14.503906 4.253906 L 12.675781 4.253906 L 12.675781 3.3125 L 15.953125 3.3125 L 15.953125 4.03125 L 14.078125 6.695312 Z M 16 6.695312 "/>
</g>
</svg>
