
<svg xmlns="http://www.w3.org/2000/svg" xmlns:xlink="http://www.w3.org/1999/xlink" width="16px" height="16px" viewBox="0 0 16 16" version="1.1">
<g id="surface1">
<path style=" stroke:none;fill-rule:evenodd;fill:#ff6666;fill-opacity:1;" d="M 2.554688 10.535156 C 1.96875 10.535156 1.597656 10.410156 1.421875 10.148438 C 1.203125 9.828125 1.214844 9.550781 1.261719 9.375 C 1.316406 9.160156 1.449219 8.996094 1.570312 8.882812 C 1.390625 8.433594 1.335938 7.730469 1.5625 6.972656 C 1.785156 6.210938 2.480469 4.828125 4.59375 4.167969 C 5.28125 3.949219 5.933594 3.839844 6.53125 3.839844 C 8.449219 3.839844 9.371094 4.949219 9.742188 5.59375 C 10.140625 5.617188 10.46875 5.855469 10.605469 6.234375 C 10.785156 6.730469 10.601562 7.320312 10.144531 7.707031 C 9.183594 8.515625 7.570312 9.34375 5.9375 9.871094 C 4.640625 10.285156 3.375 10.535156 2.554688 10.535156 Z M 14.554688 5.441406 C 14.289062 5.441406 14.074219 5.226562 14.074219 4.960938 C 14.074219 4.695312 14.289062 4.480469 14.554688 4.480469 C 14.820312 4.480469 15.035156 4.695312 15.035156 4.960938 C 15.035156 5.226562 14.820312 5.441406 14.554688 5.441406 Z M 15.488281 3.765625 C 15.003906 3.03125 14.210938 2.558594 13.46875 2.558594 C 13.222656 2.558594 12.988281 2.609375 12.769531 2.707031 C 11.914062 3.09375 11.539062 4.238281 11.203125 5.246094 C 11.15625 5.398438 11.105469 5.550781 11.050781 5.699219 C 11.113281 5.796875 11.164062 5.902344 11.207031 6.015625 C 11.480469 6.761719 11.21875 7.636719 10.554688 8.195312 C 9.535156 9.054688 7.839844 9.929688 6.132812 10.476562 C 4.777344 10.914062 3.4375 11.175781 2.554688 11.175781 C 2.253906 11.175781 1.34375 11.175781 0.890625 10.503906 C 0.871094 10.480469 0.859375 10.453125 0.84375 10.429688 C 0.566406 10.621094 0.3125 10.839844 0.0859375 11.085938 C -0.015625 11.195312 -0.0273438 11.359375 0.0546875 11.484375 C 0.136719 11.605469 0.289062 11.660156 0.429688 11.609375 C 0.914062 11.441406 1.699219 11.4375 2.097656 11.605469 C 2.042969 11.796875 1.902344 12.035156 1.699219 12.296875 C 1.597656 12.421875 1.296875 12.800781 1.460938 13.140625 C 1.527344 13.277344 1.683594 13.4375 2.058594 13.4375 L 2.769531 13.441406 C 2.914062 13.441406 3.089844 13.441406 3.320312 13.4375 C 3.785156 13.4375 4.03125 13.191406 4.609375 12.3125 C 5.222656 12.425781 5.84375 12.480469 6.46875 12.480469 C 7.589844 12.480469 8.414062 12.292969 8.847656 12.164062 C 9.019531 12.640625 9.421875 13.4375 10.164062 13.4375 L 11.304688 13.4375 C 11.734375 13.4375 11.933594 13.273438 12.027344 13.136719 C 12.125 12.992188 12.148438 12.808594 12.089844 12.660156 C 11.761719 11.855469 11.578125 11.257812 11.511719 10.78125 C 11.335938 9.53125 11.914062 8.175781 13.105469 7.027344 C 13.371094 7.269531 13.734375 7.40625 14.148438 7.40625 C 14.75 7.40625 15.316406 7.117188 15.632812 6.65625 C 16.253906 5.753906 16.007812 4.554688 15.488281 3.765625 Z M 15.488281 3.765625 "/>
</g>
</svg>
