
<svg xmlns="http://www.w3.org/2000/svg" xmlns:xlink="http://www.w3.org/1999/xlink" width="16px" height="16px" viewBox="0 0 16 16" version="1.1">
<g id="surface1">
<path style=" stroke:none;fill-rule:evenodd;fill:#ff6666;fill-opacity:1;" d="M 9.449219 9.144531 L 9.472656 8.898438 C 10.128906 8.675781 10.734375 8.304688 11.230469 7.804688 C 12.089844 6.945312 12.570312 5.785156 12.570312 4.570312 C 12.570312 2.046875 10.523438 0 8 0 C 5.476562 0 3.429688 2.046875 3.429688 4.570312 C 3.429688 5.785156 3.910156 6.945312 4.769531 7.804688 C 5.265625 8.304688 5.871094 8.675781 6.527344 8.898438 L 6.550781 9.144531 L 4.953125 9.144531 L 4.953125 10.667969 L 6.703125 10.667969 L 7.238281 16 L 8.761719 16 L 9.296875 10.667969 L 11.046875 10.667969 L 11.046875 9.144531 Z M 8 0.761719 C 8.808594 0.761719 9.582031 1.082031 10.15625 1.65625 C 10.726562 2.226562 11.046875 3 11.046875 3.808594 C 11.046875 4.617188 10.726562 5.394531 10.15625 5.964844 C 9.582031 6.535156 8.808594 6.855469 8 6.855469 C 7.191406 6.855469 6.417969 6.535156 5.84375 5.964844 C 5.273438 5.394531 4.953125 4.617188 4.953125 3.808594 C 4.953125 3 5.273438 2.226562 5.84375 1.65625 C 6.417969 1.082031 7.191406 0.761719 8 0.761719 Z M 8 0.761719 "/>
</g>
</svg>
