
<svg xmlns="http://www.w3.org/2000/svg" xmlns:xlink="http://www.w3.org/1999/xlink" width="16px" height="16px" viewBox="0 0 16 16" version="1.1">
<g id="surface1">
<path style=" stroke:none;fill-rule:nonzero;fill:#ff6666;fill-opacity:1;" d="M 2 12.761719 C 1.925781 12.742188 1.796875 12.640625 1.644531 12.488281 C 1.453125 12.292969 1.375 12.175781 1.238281 11.894531 C 0.246094 9.855469 0.257812 6.140625 1.261719 4.105469 C 1.546875 3.527344 1.878906 3.195312 2.210938 3.160156 C 2.5625 3.121094 3.324219 3.425781 3.992188 3.871094 C 4.917969 4.492188 5.90625 5.441406 6.375 6.167969 C 6.496094 6.351562 6.519531 6.425781 6.554688 6.667969 C 6.574219 6.820312 6.589844 7.066406 6.589844 7.210938 L 6.589844 7.472656 L 6.363281 7.375 C 6.050781 7.242188 5.53125 7.085938 5.128906 7.007812 C 4.714844 6.921875 4.003906 6.859375 3.863281 6.890625 C 3.761719 6.914062 3.765625 6.917969 3.941406 6.960938 C 4.519531 7.105469 6.519531 7.757812 6.582031 7.820312 C 6.613281 7.851562 6.515625 8.632812 6.480469 8.65625 C 6.394531 8.707031 5.804688 8.890625 5.132812 9.066406 C 4.75 9.167969 4.425781 9.261719 4.414062 9.269531 C 4.402344 9.28125 4.464844 9.28125 4.546875 9.269531 C 4.628906 9.257812 4.914062 9.226562 5.183594 9.199219 C 5.449219 9.167969 5.839844 9.117188 6.042969 9.082031 C 6.25 9.042969 6.425781 9.015625 6.433594 9.015625 C 6.457031 9.015625 6.355469 9.425781 6.25 9.753906 C 6.128906 10.125 6.101562 10.160156 5.414062 10.761719 C 4.171875 11.847656 3.222656 12.507812 2.597656 12.71875 C 2.324219 12.808594 2.191406 12.816406 2 12.761719 Z M 13.429688 12.75 C 12.976562 12.628906 12.210938 12.171875 11.539062 11.613281 C 11.101562 11.253906 10.507812 10.703125 10.242188 10.414062 L 10.035156 10.183594 L 10.09375 9.960938 C 10.125 9.835938 10.15625 9.601562 10.167969 9.4375 C 10.1875 9.15625 10.191406 9.144531 10.257812 9.164062 C 10.703125 9.292969 11.289062 9.40625 11.953125 9.484375 C 12.128906 9.5 12.316406 9.527344 12.371094 9.535156 C 12.46875 9.550781 12.472656 9.550781 12.390625 9.511719 C 12.34375 9.492188 12.011719 9.394531 11.652344 9.292969 C 11.292969 9.195312 10.816406 9.050781 10.59375 8.976562 L 10.191406 8.839844 L 10.128906 8.363281 C 10.097656 8.105469 10.066406 7.851562 10.0625 7.804688 C 10.058594 7.730469 10.109375 7.695312 10.5625 7.464844 C 10.839844 7.320312 11.347656 7.074219 11.691406 6.914062 C 12.039062 6.753906 12.316406 6.617188 12.3125 6.609375 C 12.285156 6.585938 11.441406 6.832031 10.75 7.070312 C 10.320312 7.222656 9.957031 7.332031 9.941406 7.316406 C 9.929688 7.300781 9.890625 7.203125 9.859375 7.101562 C 9.828125 7 9.75 6.8125 9.6875 6.6875 C 9.625 6.558594 9.574219 6.441406 9.574219 6.421875 C 9.574219 6.410156 9.644531 6.285156 9.726562 6.152344 C 10.277344 5.296875 11.449219 4.191406 12.390625 3.632812 C 12.945312 3.304688 13.554688 3.105469 13.832031 3.160156 C 14.148438 3.21875 14.457031 3.542969 14.734375 4.101562 C 15.253906 5.152344 15.542969 6.753906 15.496094 8.324219 C 15.449219 9.742188 15.1875 11.011719 14.757812 11.894531 C 14.625 12.175781 14.542969 12.292969 14.351562 12.484375 C 14.035156 12.804688 13.847656 12.859375 13.429688 12.746094 Z M 7.679688 10.351562 C 7.273438 10.292969 6.882812 10.136719 6.726562 9.972656 C 6.660156 9.902344 6.660156 9.898438 6.726562 9.648438 C 6.902344 8.960938 7.007812 7.804688 6.960938 7.003906 C 6.933594 6.570312 6.9375 6.511719 6.988281 6.472656 C 7.171875 6.332031 8.15625 6.140625 8.511719 6.179688 C 8.75 6.203125 8.957031 6.292969 9.078125 6.421875 C 9.285156 6.644531 9.542969 7.375 9.664062 8.097656 C 9.75 8.613281 9.75 9.648438 9.660156 9.941406 C 9.601562 10.140625 9.59375 10.152344 9.433594 10.21875 C 9.339844 10.257812 9.152344 10.3125 9.015625 10.339844 C 8.738281 10.390625 8.007812 10.398438 7.679688 10.351562 Z M 7.679688 10.351562 "/>
</g>
</svg>
