
<svg xmlns="http://www.w3.org/2000/svg" xmlns:xlink="http://www.w3.org/1999/xlink" width="16px" height="16px" viewBox="0 0 16 16" version="1.1">
<g id="surface1">
<path style=" stroke:none;fill-rule:nonzero;fill:#ff6666;fill-opacity:1;" d="M 14.152344 3.691406 L 1.628906 3.691406 C 1.089844 3.691406 0.609375 3.585938 0.609375 3.078125 L 14.152344 2.460938 L 14.152344 1.230469 C 14.152344 0.210938 13.328125 0 12.308594 0 L 1.242188 1.847656 C 0.257812 2.066406 0 2.484375 0 3.078125 L 0 14.152344 C 0 15.171875 0.828125 16 1.847656 16 L 14.152344 16 C 15.171875 16 16 15.171875 16 14.152344 L 16 5.539062 C 16 4.519531 15.171875 3.691406 14.152344 3.691406 Z M 13.539062 11.078125 C 12.859375 11.078125 12.308594 10.527344 12.308594 9.847656 C 12.308594 9.164062 12.859375 8.613281 13.539062 8.613281 C 14.21875 8.613281 14.769531 9.164062 14.769531 9.847656 C 14.769531 10.527344 14.21875 11.078125 13.539062 11.078125 Z M 13.539062 11.078125 "/>
</g>
</svg>
