
<svg xmlns="http://www.w3.org/2000/svg" xmlns:xlink="http://www.w3.org/1999/xlink" width="16px" height="16px" viewBox="0 0 16 16" version="1.1">
<g id="surface1">
<path style=" stroke:none;fill-rule:nonzero;fill:#ff6666;fill-opacity:1;" d="M 8.023438 1.332031 C 7.953125 1.339844 7.894531 1.390625 7.878906 1.476562 C 7.867188 1.53125 7.871094 1.621094 7.890625 1.683594 C 7.90625 1.746094 7.921875 1.820312 7.921875 1.851562 C 7.921875 1.882812 7.949219 1.945312 7.980469 1.996094 C 8.035156 2.078125 8.035156 2.085938 7.992188 2.148438 C 7.933594 2.234375 7.824219 2.296875 7.699219 2.3125 C 7.601562 2.328125 7.597656 2.332031 7.597656 2.445312 C 7.597656 2.546875 7.585938 2.566406 7.480469 2.640625 C 7.414062 2.6875 7.308594 2.734375 7.246094 2.742188 C 7.160156 2.757812 7.113281 2.785156 7.042969 2.867188 C 6.933594 2.988281 6.703125 3.101562 6.597656 3.078125 C 6.558594 3.066406 6.492188 3.027344 6.449219 2.988281 C 6.359375 2.898438 6.246094 2.886719 6.199219 2.964844 C 6.152344 3.050781 6.195312 3.152344 6.328125 3.277344 C 6.398438 3.339844 6.453125 3.410156 6.453125 3.433594 C 6.453125 3.503906 6.347656 3.609375 6.234375 3.652344 C 6.023438 3.734375 5.980469 3.835938 6.085938 4.023438 C 6.113281 4.074219 6.152344 4.171875 6.171875 4.230469 C 6.214844 4.386719 6.148438 4.574219 6.015625 4.671875 C 5.902344 4.753906 5.886719 4.851562 5.976562 4.925781 C 6.085938 5.015625 6.050781 5.082031 5.839844 5.171875 C 5.535156 5.300781 5.457031 5.464844 5.5625 5.738281 C 5.628906 5.898438 5.621094 5.933594 5.515625 6.007812 C 5.414062 6.078125 5.359375 6.171875 5.285156 6.390625 C 5.222656 6.578125 5.175781 6.636719 5.042969 6.714844 C 4.902344 6.800781 4.703125 7.066406 4.703125 7.179688 C 4.703125 7.261719 4.929688 7.597656 5.101562 7.785156 C 5.199219 7.886719 5.234375 8.050781 5.183594 8.164062 C 5.121094 8.300781 4.980469 8.445312 4.859375 8.492188 C 4.75 8.539062 4.746094 8.539062 4.617188 8.476562 C 4.546875 8.441406 4.421875 8.34375 4.339844 8.257812 C 4.15625 8.066406 4.089844 8.058594 3.988281 8.21875 C 3.933594 8.300781 3.914062 8.367188 3.914062 8.476562 C 3.914062 8.648438 3.902344 8.65625 3.605469 8.6875 C 3.417969 8.707031 3.328125 8.746094 3.140625 8.882812 C 3.011719 8.976562 2.984375 8.980469 2.875 8.894531 C 2.828125 8.859375 2.664062 8.789062 2.515625 8.742188 C 2.265625 8.667969 2.230469 8.648438 2.160156 8.558594 C 2.117188 8.5 2.078125 8.425781 2.066406 8.390625 C 2.035156 8.269531 1.617188 7.707031 1.519531 7.652344 C 1.496094 7.636719 1.378906 7.585938 1.261719 7.539062 C 1.066406 7.457031 1.039062 7.453125 0.828125 7.464844 C 0.5625 7.484375 0.425781 7.546875 0.261719 7.730469 C 0.128906 7.878906 0.0898438 7.972656 0.0507812 8.222656 C -0.0429688 8.792969 -0.0195312 8.867188 0.234375 8.886719 C 0.414062 8.902344 0.46875 8.941406 0.582031 9.132812 C 0.625 9.199219 0.675781 9.265625 0.699219 9.277344 C 0.742188 9.296875 1.011719 9.398438 1.246094 9.480469 C 1.40625 9.539062 1.484375 9.597656 1.625 9.777344 C 1.679688 9.851562 1.773438 9.957031 1.835938 10.019531 C 1.894531 10.078125 1.941406 10.148438 1.941406 10.175781 C 1.941406 10.199219 1.878906 10.28125 1.800781 10.355469 C 1.640625 10.507812 1.628906 10.566406 1.699219 10.792969 C 1.734375 10.894531 1.765625 10.933594 1.863281 10.992188 C 1.929688 11.03125 2.039062 11.109375 2.105469 11.164062 C 2.226562 11.269531 2.226562 11.269531 2.183594 11.347656 C 2.15625 11.390625 2.125 11.433594 2.105469 11.441406 C 2.089844 11.449219 2.058594 11.5 2.035156 11.546875 C 2 11.628906 2 11.644531 2.054688 11.738281 C 2.101562 11.820312 2.109375 11.871094 2.09375 11.972656 C 2.078125 12.074219 2.085938 12.113281 2.128906 12.171875 C 2.160156 12.210938 2.207031 12.300781 2.234375 12.363281 C 2.3125 12.542969 2.324219 12.550781 2.789062 12.734375 C 2.875 12.765625 2.898438 12.796875 2.949219 12.925781 C 2.980469 13.007812 3.023438 13.125 3.039062 13.183594 C 3.085938 13.351562 3.242188 13.453125 3.449219 13.453125 C 3.566406 13.453125 3.6875 13.492188 3.6875 13.53125 C 3.6875 13.582031 3.882812 13.804688 3.988281 13.878906 C 4.042969 13.921875 4.132812 13.957031 4.191406 13.957031 C 4.273438 13.964844 4.324219 13.996094 4.492188 14.160156 C 4.601562 14.265625 4.734375 14.40625 4.785156 14.472656 C 4.835938 14.535156 4.917969 14.609375 4.96875 14.632812 L 4.96875 14.636719 C 5.0625 14.679688 5.113281 14.679688 5.734375 14.628906 C 6.050781 14.601562 6.105469 14.574219 6.144531 14.4375 C 6.195312 14.269531 6.15625 14.179688 5.996094 14.109375 C 5.863281 14.046875 5.859375 14.046875 5.734375 14.089844 C 5.617188 14.128906 5.597656 14.128906 5.472656 14.089844 C 5.398438 14.070312 5.292969 14.046875 5.234375 14.035156 C 5.097656 14.015625 5.101562 13.980469 5.25 13.917969 C 5.402344 13.855469 5.441406 13.855469 5.53125 13.921875 C 5.679688 14.027344 5.765625 13.960938 5.730469 13.765625 C 5.71875 13.679688 5.730469 13.660156 5.886719 13.515625 C 5.980469 13.433594 6.113281 13.335938 6.179688 13.300781 C 6.285156 13.246094 6.324219 13.242188 6.496094 13.257812 C 6.664062 13.269531 6.707031 13.265625 6.785156 13.21875 C 6.886719 13.160156 6.894531 13.125 6.84375 12.945312 C 6.8125 12.839844 6.816406 12.816406 6.863281 12.734375 C 6.9375 12.609375 7.066406 12.492188 7.132812 12.492188 C 7.203125 12.492188 7.386719 12.59375 7.460938 12.671875 C 7.515625 12.730469 7.546875 12.734375 7.742188 12.746094 C 7.863281 12.753906 7.976562 12.753906 7.992188 12.753906 C 8.007812 12.753906 8.117188 12.746094 8.234375 12.738281 C 8.425781 12.722656 8.472656 12.726562 8.632812 12.789062 C 8.734375 12.824219 8.898438 12.871094 8.992188 12.894531 C 9.195312 12.9375 9.257812 12.980469 9.347656 13.140625 C 9.421875 13.28125 9.457031 13.3125 9.710938 13.464844 C 9.996094 13.636719 10.203125 13.652344 10.492188 13.515625 C 10.566406 13.480469 10.652344 13.453125 10.683594 13.453125 C 10.773438 13.453125 10.882812 13.347656 10.921875 13.21875 C 10.957031 13.113281 10.964844 13.101562 11.058594 13.101562 C 11.117188 13.101562 11.183594 13.085938 11.214844 13.058594 C 11.246094 13.03125 11.308594 13.011719 11.351562 13.011719 C 11.464844 13.011719 11.503906 12.96875 11.503906 12.855469 C 11.503906 12.777344 11.523438 12.742188 11.605469 12.679688 C 11.808594 12.511719 11.824219 12.507812 11.972656 12.570312 C 12.175781 12.652344 12.269531 12.640625 12.636719 12.464844 C 12.753906 12.410156 12.882812 12.363281 12.925781 12.363281 C 12.96875 12.363281 13.070312 12.414062 13.183594 12.492188 C 13.453125 12.679688 13.554688 12.664062 13.640625 12.417969 C 13.695312 12.257812 13.6875 12.234375 13.492188 12.101562 C 13.3125 11.972656 13.296875 11.941406 13.359375 11.824219 C 13.421875 11.707031 13.535156 11.644531 13.8125 11.578125 C 14.042969 11.527344 14.113281 11.496094 14.507812 11.265625 C 14.699219 11.152344 14.78125 11.117188 14.867188 11.117188 C 15.277344 11.117188 15.480469 10.726562 15.523438 9.839844 C 15.53125 9.710938 15.558594 9.613281 15.636719 9.449219 C 15.835938 9.039062 15.878906 8.902344 15.921875 8.515625 C 15.945312 8.273438 15.949219 8.109375 15.933594 8.042969 C 15.917969 7.976562 15.925781 7.769531 15.957031 7.445312 C 16.035156 6.601562 16.019531 6.4375 15.824219 6.175781 C 15.769531 6.101562 15.738281 6.019531 15.726562 5.910156 C 15.703125 5.722656 15.636719 5.558594 15.480469 5.285156 C 15.351562 5.0625 15.285156 4.972656 15.070312 4.742188 C 14.867188 4.523438 14.859375 4.503906 14.863281 4.230469 C 14.867188 4.058594 14.855469 3.960938 14.824219 3.890625 C 14.796875 3.835938 14.777344 3.75 14.777344 3.703125 C 14.777344 3.640625 14.761719 3.605469 14.71875 3.589844 C 14.640625 3.546875 14.28125 3.539062 14.238281 3.578125 C 14.222656 3.59375 14.199219 3.664062 14.191406 3.730469 C 14.179688 3.824219 14.164062 3.855469 14.113281 3.878906 C 14.019531 3.917969 13.808594 3.800781 13.734375 3.664062 C 13.703125 3.609375 13.632812 3.53125 13.574219 3.492188 C 13.398438 3.367188 13.371094 3.335938 13.351562 3.226562 C 13.335938 3.136719 13.347656 3.101562 13.417969 2.984375 C 13.515625 2.820312 13.554688 2.558594 13.492188 2.476562 C 13.429688 2.394531 13.28125 2.34375 13.15625 2.363281 C 13.050781 2.378906 13.035156 2.390625 12.96875 2.527344 C 12.921875 2.617188 12.847656 2.699219 12.78125 2.746094 C 12.722656 2.785156 12.632812 2.851562 12.582031 2.890625 C 12.480469 2.972656 12.363281 2.984375 12.238281 2.925781 C 12.167969 2.894531 12.15625 2.871094 12.140625 2.722656 C 12.125 2.59375 12.101562 2.53125 12.023438 2.433594 C 11.972656 2.363281 11.917969 2.261719 11.910156 2.203125 C 11.898438 2.132812 11.867188 2.085938 11.796875 2.035156 C 11.742188 2 11.679688 1.9375 11.65625 1.894531 C 11.601562 1.796875 11.460938 1.71875 11.335938 1.71875 C 11.25 1.71875 11.210938 1.742188 11.054688 1.894531 C 10.953125 1.992188 10.847656 2.082031 10.816406 2.089844 C 10.785156 2.101562 10.691406 2.082031 10.585938 2.042969 C 10.386719 1.96875 10.308594 1.964844 10.210938 2.015625 C 10.152344 2.046875 10.121094 2.046875 10.027344 2.015625 C 9.875 1.964844 9.800781 1.984375 9.726562 2.097656 C 9.605469 2.273438 9.488281 2.269531 9.449219 2.078125 C 9.425781 1.976562 9.339844 1.929688 9.179688 1.925781 C 9.113281 1.925781 9.003906 1.898438 8.925781 1.863281 C 8.765625 1.785156 8.648438 1.78125 8.453125 1.839844 C 8.320312 1.878906 8.3125 1.878906 8.277344 1.832031 C 8.242188 1.789062 8.242188 1.773438 8.289062 1.703125 C 8.363281 1.589844 8.359375 1.53125 8.265625 1.4375 C 8.1875 1.359375 8.097656 1.324219 8.023438 1.332031 Z M 10.492188 3.113281 C 10.679688 3.101562 10.910156 3.125 11.234375 3.183594 C 11.355469 3.207031 11.542969 3.238281 11.652344 3.257812 C 11.757812 3.273438 11.902344 3.292969 11.972656 3.304688 C 12.148438 3.332031 12.261719 3.394531 12.332031 3.507812 C 12.386719 3.59375 12.390625 3.605469 12.351562 3.632812 C 12.289062 3.671875 12.296875 3.703125 12.363281 3.742188 C 12.394531 3.761719 12.417969 3.804688 12.417969 3.839844 C 12.417969 3.941406 12.46875 4.007812 12.539062 4.007812 C 12.640625 4.007812 12.683594 4.070312 12.640625 4.160156 C 12.625 4.199219 12.613281 4.25 12.617188 4.269531 C 12.621094 4.296875 12.605469 4.304688 12.570312 4.296875 C 12.347656 4.257812 12.222656 4.304688 12.28125 4.40625 C 12.308594 4.449219 12.300781 4.46875 12.226562 4.523438 C 12.125 4.601562 12.113281 4.65625 12.199219 4.65625 C 12.234375 4.65625 12.261719 4.675781 12.269531 4.710938 C 12.289062 4.777344 12.300781 4.773438 12.390625 4.695312 C 12.453125 4.636719 12.46875 4.636719 12.519531 4.667969 C 12.566406 4.699219 12.574219 4.730469 12.566406 4.894531 C 12.554688 5.152344 12.609375 5.535156 12.667969 5.632812 C 12.757812 5.78125 12.78125 5.976562 12.75 6.28125 C 12.734375 6.4375 12.714844 6.660156 12.703125 6.773438 C 12.691406 6.9375 12.671875 6.996094 12.621094 7.054688 C 12.550781 7.136719 12.542969 7.191406 12.554688 7.683594 C 12.5625 7.953125 12.566406 7.972656 12.644531 8.078125 C 12.691406 8.136719 12.753906 8.1875 12.785156 8.199219 C 12.839844 8.210938 12.84375 8.210938 12.78125 8.28125 C 12.75 8.320312 12.722656 8.375 12.722656 8.398438 C 12.722656 8.441406 12.738281 8.445312 12.808594 8.433594 C 12.878906 8.417969 12.894531 8.425781 12.917969 8.484375 C 12.953125 8.570312 13.023438 8.574219 13.0625 8.492188 C 13.089844 8.441406 13.113281 8.429688 13.226562 8.429688 C 13.347656 8.429688 13.367188 8.4375 13.382812 8.492188 C 13.402344 8.566406 13.460938 8.589844 13.535156 8.554688 C 13.613281 8.515625 13.65625 8.558594 13.726562 8.742188 C 13.796875 8.925781 13.796875 9.03125 13.730469 9.164062 C 13.648438 9.335938 13.425781 9.480469 13.027344 9.632812 C 12.847656 9.703125 12.773438 9.746094 12.691406 9.839844 C 12.515625 10.03125 12.464844 10.105469 12.472656 10.710938 C 12.480469 11.691406 12.480469 11.675781 12.417969 11.789062 C 12.386719 11.847656 12.367188 11.914062 12.335938 11.941406 L 12.335938 11.9375 C 12.289062 11.976562 12.222656 11.988281 12.007812 12 C 11.859375 12.003906 11.726562 12 11.714844 11.988281 C 11.683594 11.957031 11.296875 11.9375 11.148438 11.957031 C 11.101562 11.964844 11.09375 11.949219 11.09375 11.867188 C 11.09375 11.773438 11.003906 11.648438 10.980469 11.710938 C 10.929688 11.835938 10.804688 11.847656 10.804688 11.730469 C 10.804688 11.636719 10.710938 11.648438 10.671875 11.746094 C 10.628906 11.851562 10.535156 11.855469 10.5625 11.753906 C 10.613281 11.542969 10.613281 11.515625 10.574219 11.515625 C 10.496094 11.515625 10.464844 11.449219 10.496094 11.367188 C 10.539062 11.265625 10.507812 11.15625 10.429688 11.144531 C 10.375 11.136719 10.371094 11.121094 10.363281 10.941406 C 10.359375 10.835938 10.355469 10.699219 10.355469 10.640625 C 10.355469 10.507812 10.285156 10.519531 10.148438 10.417969 C 10.085938 10.375 10.050781 10.324219 10.050781 10.285156 C 10.050781 10.253906 10.03125 10.207031 10.011719 10.179688 C 9.972656 10.128906 9.96875 10.128906 9.898438 10.191406 C 9.835938 10.246094 9.8125 10.25 9.683594 10.234375 C 9.492188 10.210938 9.230469 10.195312 8.808594 10.179688 C 8.503906 10.171875 8.316406 10.144531 8.246094 10.105469 C 8.234375 10.097656 8.078125 10.078125 7.902344 10.0625 C 7.726562 10.046875 7.542969 10.015625 7.492188 9.996094 C 7.4375 9.976562 7.332031 9.960938 7.253906 9.960938 C 7.175781 9.960938 6.996094 9.941406 6.851562 9.925781 C 6.5625 9.886719 6.472656 9.699219 6.417969 9.535156 C 6.402344 9.488281 6.347656 9.425781 6.300781 9.398438 C 6.222656 9.347656 6.21875 9.339844 6.226562 9.191406 C 6.230469 9.09375 6.253906 9.019531 6.28125 8.988281 C 6.320312 8.949219 6.324219 8.925781 6.296875 8.820312 C 6.265625 8.703125 6.269531 8.695312 6.332031 8.648438 C 6.371094 8.621094 6.402344 8.585938 6.402344 8.566406 C 6.402344 8.546875 6.429688 8.515625 6.460938 8.5 C 6.507812 8.476562 6.515625 8.453125 6.503906 8.398438 C 6.492188 8.351562 6.507812 8.300781 6.554688 8.238281 C 6.621094 8.148438 6.621094 8.144531 6.570312 8.101562 C 6.519531 8.058594 6.519531 8.050781 6.613281 7.890625 C 6.703125 7.738281 6.707031 7.714844 6.675781 7.636719 C 6.621094 7.492188 6.746094 7.296875 7.070312 7.019531 C 7.300781 6.816406 7.34375 6.769531 7.398438 6.625 C 7.433594 6.535156 7.488281 6.40625 7.519531 6.335938 C 7.550781 6.261719 7.585938 6.167969 7.597656 6.125 C 7.613281 6.082031 7.664062 5.964844 7.722656 5.859375 C 7.804688 5.707031 7.902344 5.59375 8.226562 5.273438 C 8.449219 5.058594 8.679688 4.816406 8.734375 4.738281 C 8.953125 4.445312 8.992188 4.382812 9.019531 4.285156 C 9.039062 4.226562 9.105469 4.117188 9.167969 4.039062 C 9.285156 3.890625 9.375 3.753906 9.449219 3.601562 C 9.550781 3.402344 9.871094 3.230469 10.320312 3.136719 C 10.375 3.125 10.429688 3.117188 10.492188 3.113281 Z M 10.039062 6.261719 C 10.015625 6.269531 9.984375 6.285156 9.949219 6.308594 C 9.894531 6.34375 9.816406 6.394531 9.777344 6.417969 C 9.503906 6.59375 9.277344 6.847656 9.277344 6.980469 C 9.277344 7.03125 9.164062 7.246094 9.058594 7.394531 C 9.019531 7.449219 8.980469 7.542969 8.96875 7.601562 C 8.957031 7.664062 8.929688 7.761719 8.910156 7.820312 C 8.878906 7.917969 8.878906 8.203125 8.929688 8.253906 C 8.996094 8.324219 9.191406 8.40625 9.355469 8.433594 C 9.425781 8.445312 9.75 8.457031 10.070312 8.457031 C 10.761719 8.460938 10.878906 8.4375 10.980469 8.28125 C 11.085938 8.125 11.113281 7.761719 11.085938 7.671875 C 11.054688 7.574219 10.984375 7.492188 10.925781 7.492188 C 10.84375 7.492188 10.667969 7.378906 10.652344 7.3125 C 10.640625 7.273438 10.609375 7.1875 10.578125 7.113281 C 10.492188 6.910156 10.453125 6.8125 10.414062 6.6875 C 10.378906 6.574219 10.175781 6.304688 10.09375 6.261719 C 10.082031 6.253906 10.0625 6.253906 10.039062 6.261719 Z M 10.039062 6.261719 "/>
</g>
</svg>
