
<svg xmlns="http://www.w3.org/2000/svg" xmlns:xlink="http://www.w3.org/1999/xlink" width="16px" height="16px" viewBox="0 0 16 16" version="1.1">
<g id="surface1">
<path style=" stroke:none;fill-rule:evenodd;fill:#ff6666;fill-opacity:1;" d="M 4.019531 8.71875 L 6.890625 8 L 4.019531 7.28125 C 3.800781 6.683594 3.3125 6.21875 2.691406 6.039062 C 3.382812 3.472656 6.605469 3.898438 6.605469 3.898438 C 3.246094 2.707031 1.890625 5.003906 1.230469 6.132812 C 0.5 6.4375 0 7.160156 0 8 C 0 8.8125 0.46875 9.515625 1.160156 9.835938 C 1.855469 11.007812 3.3125 13.28125 6.605469 12.109375 C 6.605469 12.109375 3.277344 12.230469 2.660156 9.976562 C 3.292969 9.800781 3.796875 9.324219 4.019531 8.71875 Z M 7.617188 2.964844 C 7.339844 2.964844 7.109375 3.164062 7.109375 3.40625 L 7.109375 4.890625 C 7.109375 5.132812 7.339844 5.332031 7.617188 5.332031 L 13.714844 5.332031 C 13.992188 5.332031 14.222656 5.132812 14.222656 4.890625 L 14.222656 3.40625 C 14.222656 3.164062 13.992188 2.964844 13.714844 2.964844 Z M 8.820312 7.109375 C 8.535156 7.109375 8.296875 7.3125 8.296875 7.554688 L 8.296875 8.445312 C 8.296875 8.6875 8.535156 8.890625 8.820312 8.890625 L 15.476562 8.890625 C 15.761719 8.890625 16 8.6875 16 8.445312 L 16 7.554688 C 16 7.3125 15.761719 7.109375 15.476562 7.109375 Z M 7.617188 10.667969 C 7.339844 10.667969 7.109375 10.867188 7.109375 11.109375 L 7.109375 12.59375 C 7.109375 12.835938 7.339844 13.035156 7.617188 13.035156 L 13.714844 13.035156 C 13.992188 13.035156 14.222656 12.835938 14.222656 12.59375 L 14.222656 11.109375 C 14.222656 10.867188 13.992188 10.667969 13.714844 10.667969 Z M 7.617188 10.667969 "/>
</g>
</svg>
