
<svg xmlns="http://www.w3.org/2000/svg" xmlns:xlink="http://www.w3.org/1999/xlink" width="16px" height="16px" viewBox="0 0 16 16" version="1.1">
<g id="surface1">
<path style=" stroke:none;fill-rule:evenodd;fill:#ff6666;fill-opacity:1;" d="M 7.679688 2 C 7.089844 2 6.472656 2.378906 6.34375 3.011719 C 6.328125 3.070312 6.320312 3.132812 6.320312 3.199219 L 6.320312 3.21875 C 6.320312 3.226562 6.320312 3.230469 6.320312 3.238281 C 6.316406 3.242188 6.316406 3.25 6.316406 3.253906 L 6.316406 4.160156 C 6.324219 4.148438 6.332031 4.136719 6.335938 4.125 C 6.34375 4.117188 6.347656 4.113281 6.351562 4.105469 L 8 4.105469 L 8 3.683594 L 9.261719 3.683594 L 9.261719 8.730469 L 10.945312 8.730469 L 10.945312 3.683594 L 12.207031 3.683594 L 12.207031 4.105469 L 13.84375 4.105469 C 13.851562 4.113281 13.855469 4.121094 13.863281 4.128906 C 13.871094 4.140625 13.878906 4.148438 13.890625 4.160156 C 13.890625 3.808594 13.894531 3.546875 13.894531 3.371094 C 13.894531 2.636719 13.347656 2 12.390625 2 Z M 3.253906 9.996094 C 3.1875 9.996094 3.085938 9.996094 2.972656 10.007812 C 2.9375 10.007812 2.90625 10.011719 2.875 10.015625 L 2.851562 10.019531 C 2.820312 10.023438 2.789062 10.027344 2.753906 10.03125 C 2.328125 10.09375 1.882812 10.261719 1.367188 10.675781 C 0.945312 11 0.484375 11.472656 0 12.171875 L 1.554688 13.007812 C 1.695312 12.914062 1.835938 12.773438 1.984375 12.625 C 2.136719 12.46875 2.296875 12.304688 2.484375 12.171875 C 2.722656 11.996094 3.054688 11.878906 3.253906 11.878906 C 3.453125 11.878906 3.59375 11.917969 3.722656 11.988281 C 3.835938 12.054688 3.9375 12.136719 4.167969 12.355469 L 4.175781 12.363281 C 4.175781 12.363281 4.179688 12.363281 4.179688 12.363281 C 4.351562 12.527344 4.484375 12.648438 4.609375 12.746094 C 4.734375 12.847656 4.851562 12.925781 4.996094 13.007812 C 5.410156 13.242188 5.867188 13.359375 6.394531 13.359375 C 6.523438 13.359375 6.652344 13.355469 6.773438 13.339844 C 7.023438 13.308594 7.253906 13.25 7.46875 13.160156 C 7.578125 13.117188 7.683594 13.066406 7.789062 13.007812 C 8.078125 12.84375 8.257812 12.691406 8.609375 12.363281 C 8.726562 12.25 8.8125 12.171875 8.882812 12.117188 C 8.953125 12.058594 9.003906 12.023438 9.0625 11.988281 C 9.191406 11.917969 9.332031 11.878906 9.53125 11.878906 C 9.734375 11.878906 9.871094 11.917969 10 11.988281 C 10.117188 12.054688 10.214844 12.136719 10.457031 12.363281 C 10.804688 12.691406 10.984375 12.84375 11.277344 13.007812 C 11.378906 13.066406 11.484375 13.117188 11.59375 13.160156 C 11.921875 13.292969 12.277344 13.359375 12.671875 13.359375 C 12.804688 13.359375 12.933594 13.351562 13.058594 13.335938 C 13.0625 13.335938 13.0625 13.335938 13.066406 13.335938 C 13.441406 13.289062 13.785156 13.179688 14.089844 13.007812 C 14.296875 12.902344 14.5 12.75 14.699219 12.578125 C 14.710938 12.566406 14.726562 12.554688 14.738281 12.542969 C 14.773438 12.515625 14.804688 12.484375 14.835938 12.457031 C 14.871094 12.425781 14.902344 12.394531 14.9375 12.363281 L 14.953125 12.34375 L 14.972656 12.320312 C 15.484375 11.808594 15.875 11.246094 15.960938 11.121094 L 15.976562 11.101562 L 16 11.070312 L 14.445312 10.269531 C 14.480469 10.230469 14.460938 10.25 14.433594 10.277344 C 14.417969 10.292969 14.398438 10.3125 14.390625 10.320312 C 14.191406 10.585938 13.648438 11.203125 13.363281 11.339844 C 13.195312 11.421875 13.007812 11.460938 12.820312 11.457031 C 12.65625 11.449219 12.496094 11.417969 12.34375 11.367188 C 12.121094 11.285156 11.917969 11.15625 11.746094 10.992188 C 11.398438 10.664062 11.21875 10.511719 10.925781 10.347656 C 10.515625 10.117188 10.058594 9.996094 9.53125 9.996094 C 9.402344 9.996094 9.273438 10 9.148438 10.015625 C 8.777344 10.0625 8.445312 10.171875 8.136719 10.347656 C 7.84375 10.515625 7.664062 10.664062 7.316406 10.992188 C 7.078125 11.21875 6.976562 11.300781 6.863281 11.367188 C 6.796875 11.402344 6.730469 11.429688 6.65625 11.449219 C 6.578125 11.464844 6.492188 11.476562 6.394531 11.476562 C 6.191406 11.476562 6.050781 11.4375 5.921875 11.367188 C 5.808594 11.300781 5.707031 11.21875 5.46875 10.992188 C 5.121094 10.664062 4.941406 10.511719 4.648438 10.347656 C 4.238281 10.117188 3.78125 9.996094 3.253906 9.996094 Z M 3.371094 7.449219 L 3.371094 7.457031 C 3.375 8.273438 3.921875 8.699219 4.734375 8.730469 C 4.738281 8.730469 4.742188 8.730469 4.75 8.730469 L 8 8.730469 L 8 7.050781 L 5.054688 7.050781 L 5.054688 3.398438 C 5.054688 3.03125 4.90625 2 3.5625 2 L 2.53125 2 L 2.53125 3.683594 L 3.371094 3.683594 Z M 3.371094 7.449219 "/>
</g>
</svg>
