
<svg xmlns="http://www.w3.org/2000/svg" xmlns:xlink="http://www.w3.org/1999/xlink" width="16px" height="16px" viewBox="0 0 16 16" version="1.1">
<g id="surface1">
<path style=" stroke:none;fill-rule:nonzero;fill:#ff6666;fill-opacity:1;" d="M 0.0390625 0 L 0.660156 8.710938 L 1.109375 14.984375 C 1.140625 15.402344 1.402344 15.765625 1.792969 15.921875 C 1.855469 15.945312 1.921875 15.964844 1.992188 15.980469 C 2.023438 15.984375 2.058594 15.988281 2.09375 15.988281 C 2.128906 15.992188 2.164062 16 2.199219 16 L 7.386719 16 C 7.457031 16 7.527344 15.992188 7.59375 15.980469 C 8.078125 15.886719 8.441406 15.476562 8.476562 14.984375 L 8.941406 8.449219 L 9.546875 0 Z M 0.820312 0.726562 L 8.765625 0.726562 L 8.53125 4 L 1.054688 4 Z M 14.957031 3.273438 C 13.226562 3.273438 11.707031 4.398438 11.09375 6.039062 L 10.863281 4.667969 C 10.839844 4.492188 10.691406 4.363281 10.511719 4.359375 C 10.402344 4.355469 10.300781 4.402344 10.230469 4.484375 C 10.160156 4.570312 10.128906 4.679688 10.148438 4.785156 L 10.460938 6.652344 C 10.230469 6.703125 10.003906 6.769531 9.785156 6.851562 L 9.199219 15.035156 C 9.199219 15.039062 9.195312 15.046875 9.195312 15.054688 C 9.875 15.4375 10.640625 15.636719 11.414062 15.636719 C 13.925781 15.636719 15.960938 13.597656 15.960938 11.089844 C 15.960938 9.210938 14.8125 7.59375 13.179688 6.902344 C 14.40625 6.335938 15.335938 5.167969 15.59375 3.714844 L 15.636719 3.316406 L 15.234375 3.285156 C 15.144531 3.28125 15.050781 3.273438 14.957031 3.273438 Z M 12.324219 11.273438 C 12.523438 11.273438 12.6875 11.4375 12.6875 11.636719 C 12.6875 11.835938 12.523438 12 12.324219 12 C 12.125 12 11.960938 11.835938 11.960938 11.636719 C 11.960938 11.4375 12.125 11.273438 12.324219 11.273438 Z M 13.78125 11.273438 C 13.980469 11.273438 14.144531 11.4375 14.144531 11.636719 C 14.144531 11.835938 13.980469 12 13.78125 12 C 13.578125 12 13.414062 11.835938 13.414062 11.636719 C 13.414062 11.4375 13.578125 11.273438 13.78125 11.273438 Z M 13.054688 12.363281 C 13.253906 12.363281 13.414062 12.527344 13.414062 12.726562 C 13.414062 12.925781 13.253906 13.089844 13.054688 13.089844 C 12.851562 13.089844 12.6875 12.925781 12.6875 12.726562 C 12.6875 12.527344 12.851562 12.363281 13.054688 12.363281 Z M 13.054688 12.363281 "/>
</g>
</svg>
