
<svg xmlns="http://www.w3.org/2000/svg" xmlns:xlink="http://www.w3.org/1999/xlink" width="16px" height="16px" viewBox="0 0 16 16" version="1.1">
<g id="surface1">
<path style=" stroke:none;fill-rule:evenodd;fill:#ff6666;fill-opacity:1;" d="M 0 9.425781 L 0.0429688 9.035156 C 0.226562 9.007812 0.351562 8.953125 0.417969 8.867188 C 0.488281 8.785156 0.519531 8.640625 0.519531 8.4375 L 0.519531 5.601562 C 0.519531 5.453125 0.503906 5.351562 0.472656 5.300781 C 0.4375 5.246094 0.371094 5.222656 0.265625 5.222656 C 0.21875 5.222656 0.175781 5.222656 0.128906 5.230469 C 0.0859375 5.234375 0.0546875 5.234375 0.0429688 5.234375 L 0.015625 5.195312 L 0.0625 4.84375 L 0.261719 4.847656 L 0.921875 4.855469 C 1.046875 4.855469 1.214844 4.847656 1.417969 4.832031 C 1.621094 4.816406 1.757812 4.804688 1.824219 4.800781 L 1.789062 5.195312 C 1.628906 5.210938 1.515625 5.242188 1.453125 5.277344 C 1.390625 5.316406 1.347656 5.367188 1.328125 5.433594 C 1.3125 5.5 1.296875 5.617188 1.289062 5.785156 C 1.230469 6.617188 1.203125 7.503906 1.203125 8.445312 C 1.203125 8.597656 1.214844 8.703125 1.242188 8.769531 C 1.269531 8.835938 1.316406 8.878906 1.390625 8.902344 C 1.460938 8.925781 1.578125 8.9375 1.738281 8.9375 C 1.996094 8.9375 2.1875 8.914062 2.316406 8.863281 C 2.441406 8.816406 2.539062 8.71875 2.601562 8.578125 C 2.664062 8.4375 2.71875 8.214844 2.765625 7.902344 L 3.195312 7.863281 L 3.230469 7.910156 C 3.21875 7.992188 3.1875 8.171875 3.144531 8.457031 C 3.097656 8.742188 3.0625 9.042969 3.035156 9.359375 L 2.984375 9.417969 C 2.855469 9.40625 2.574219 9.394531 2.148438 9.378906 C 1.726562 9.363281 1.359375 9.355469 1.054688 9.355469 C 0.816406 9.355469 0.59375 9.363281 0.390625 9.382812 C 0.1875 9.402344 0.0546875 9.414062 0 9.425781 Z M 3.082031 6.425781 L 3.433594 6.425781 C 3.550781 6.425781 3.675781 6.421875 3.804688 6.410156 L 3.5 5.339844 L 3.457031 5.339844 Z M 5.496094 9.410156 L 5.554688 9.039062 C 5.78125 9.019531 5.9375 8.988281 6.027344 8.949219 C 6.121094 8.910156 6.179688 8.839844 6.210938 8.738281 C 6.242188 8.636719 6.257812 8.46875 6.257812 8.230469 L 6.257812 5.273438 C 5.914062 5.28125 5.679688 5.304688 5.554688 5.339844 C 5.425781 5.375 5.339844 5.445312 5.289062 5.558594 C 5.242188 5.667969 5.199219 5.871094 5.160156 6.171875 L 4.714844 6.210938 C 4.761719 5.789062 4.796875 5.339844 4.816406 4.855469 L 4.886719 4.792969 L 5.519531 4.871094 L 7.707031 4.871094 L 8.355469 4.792969 L 8.425781 4.855469 C 8.445312 5.351562 8.476562 5.789062 8.515625 6.171875 L 8.074219 6.210938 C 8.027344 5.894531 7.980469 5.679688 7.933594 5.566406 C 7.886719 5.457031 7.804688 5.382812 7.6875 5.347656 C 7.570312 5.3125 7.351562 5.285156 7.03125 5.273438 C 7.007812 5.578125 6.988281 6.0625 6.964844 6.722656 C 6.945312 7.382812 6.933594 7.980469 6.933594 8.515625 C 6.933594 8.691406 6.964844 8.8125 7.023438 8.886719 C 7.085938 8.960938 7.1875 8.996094 7.328125 8.996094 C 7.453125 8.996094 7.582031 8.988281 7.707031 8.976562 L 7.734375 9.011719 L 7.671875 9.402344 C 7.222656 9.386719 6.847656 9.375 6.554688 9.375 C 6.226562 9.375 5.875 9.386719 5.496094 9.410156 Z M 11.671875 9.839844 L 11.707031 9.890625 C 11.621094 10.261719 11.554688 10.671875 11.507812 11.128906 L 11.460938 11.183594 C 10.515625 11.152344 9.796875 11.136719 9.304688 11.136719 C 8.933594 11.136719 8.574219 11.160156 8.222656 11.207031 L 8.265625 10.820312 C 8.46875 10.789062 8.613281 10.734375 8.6875 10.648438 C 8.761719 10.566406 8.800781 10.421875 8.800781 10.222656 L 8.804688 7.382812 C 8.804688 7.234375 8.789062 7.132812 8.757812 7.082031 C 8.722656 7.03125 8.65625 7.003906 8.558594 7.003906 L 8.328125 7.019531 L 8.300781 6.976562 L 8.355469 6.617188 C 8.90625 6.632812 9.273438 6.636719 9.46875 6.636719 C 10.011719 6.636719 10.445312 6.632812 10.773438 6.621094 C 11.101562 6.609375 11.371094 6.585938 11.59375 6.554688 L 11.628906 6.609375 C 11.589844 6.785156 11.558594 6.984375 11.527344 7.207031 C 11.496094 7.433594 11.476562 7.640625 11.46875 7.828125 L 10.996094 7.863281 L 11.007812 7.566406 C 11.007812 7.417969 10.988281 7.308594 10.945312 7.246094 C 10.902344 7.183594 10.816406 7.140625 10.6875 7.121094 C 10.558594 7.097656 10.335938 7.089844 10.015625 7.089844 C 9.871094 7.089844 9.769531 7.09375 9.714844 7.101562 C 9.65625 7.113281 9.621094 7.132812 9.605469 7.167969 C 9.589844 7.203125 9.578125 7.265625 9.574219 7.347656 L 9.515625 8.59375 L 10.214844 8.601562 C 10.316406 8.601562 10.449219 8.59375 10.605469 8.582031 C 10.761719 8.566406 10.914062 8.550781 11.058594 8.53125 L 11.09375 8.582031 L 10.996094 9.082031 C 10.503906 9.066406 10.1875 9.058594 10.046875 9.058594 C 9.910156 9.058594 9.726562 9.074219 9.503906 9.101562 L 9.480469 10.296875 C 9.480469 10.429688 9.492188 10.523438 9.511719 10.578125 C 9.535156 10.636719 9.578125 10.671875 9.644531 10.691406 C 9.710938 10.710938 9.824219 10.722656 9.988281 10.722656 C 10.339844 10.722656 10.59375 10.703125 10.75 10.664062 C 10.902344 10.625 11.015625 10.554688 11.078125 10.441406 C 11.144531 10.332031 11.195312 10.144531 11.234375 9.882812 Z M 3.65625 7.691406 L 3.640625 7.660156 L 3.65625 7.445312 C 3.808594 7.433594 3.90625 7.417969 3.953125 7.398438 C 4.003906 7.375 4.027344 7.339844 4.027344 7.28125 C 4.027344 7.230469 4.015625 7.167969 3.996094 7.097656 L 3.871094 6.6875 C 3.800781 6.683594 3.65625 6.679688 3.441406 6.679688 C 3.300781 6.679688 3.148438 6.691406 2.992188 6.710938 L 2.851562 7.117188 C 2.828125 7.191406 2.816406 7.242188 2.816406 7.269531 C 2.816406 7.328125 2.832031 7.371094 2.871094 7.394531 C 2.90625 7.417969 2.96875 7.433594 3.050781 7.433594 L 3.277344 7.433594 L 3.289062 7.453125 L 3.261719 7.679688 C 3.226562 7.675781 3.140625 7.667969 3.011719 7.660156 C 2.882812 7.65625 2.757812 7.652344 2.640625 7.652344 C 2.523438 7.652344 2.421875 7.652344 2.324219 7.65625 C 2.230469 7.660156 2.167969 7.660156 2.136719 7.664062 L 2.171875 7.421875 C 2.246094 7.410156 2.308594 7.382812 2.355469 7.335938 C 2.402344 7.292969 2.445312 7.214844 2.484375 7.101562 L 3.3125 4.867188 L 3.769531 4.792969 L 3.8125 4.808594 C 3.832031 4.878906 3.878906 5.046875 3.949219 5.308594 C 4.019531 5.566406 4.101562 5.871094 4.203125 6.214844 C 4.300781 6.558594 4.394531 6.859375 4.480469 7.121094 C 4.511719 7.230469 4.554688 7.304688 4.609375 7.347656 C 4.660156 7.386719 4.746094 7.414062 4.863281 7.425781 L 4.878906 7.449219 L 4.847656 7.664062 C 4.8125 7.660156 4.746094 7.660156 4.648438 7.65625 C 4.550781 7.652344 4.449219 7.652344 4.351562 7.652344 C 4.203125 7.652344 4.058594 7.65625 3.921875 7.667969 C 3.785156 7.675781 3.695312 7.683594 3.65625 7.691406 Z M 13.894531 9.425781 L 13.867188 9.375 L 13.902344 9.039062 C 14.066406 9.027344 14.1875 9.007812 14.261719 8.976562 C 14.335938 8.941406 14.375 8.886719 14.375 8.8125 C 14.375 8.742188 14.332031 8.648438 14.246094 8.53125 L 13.550781 7.484375 L 12.980469 8.257812 C 12.859375 8.425781 12.777344 8.546875 12.734375 8.617188 C 12.691406 8.691406 12.671875 8.757812 12.671875 8.8125 C 12.671875 8.878906 12.699219 8.929688 12.761719 8.960938 C 12.824219 8.992188 12.917969 9.015625 13.050781 9.023438 L 13.070312 9.066406 L 13.027344 9.417969 C 12.964844 9.414062 12.835938 9.40625 12.640625 9.394531 C 12.449219 9.382812 12.300781 9.375 12.191406 9.375 C 12.039062 9.375 11.886719 9.378906 11.742188 9.386719 C 11.59375 9.394531 11.496094 9.398438 11.445312 9.402344 L 11.417969 9.347656 L 11.46875 9.003906 C 11.636719 8.945312 11.804688 8.839844 11.972656 8.683594 C 12.144531 8.527344 12.335938 8.3125 12.550781 8.039062 L 13.296875 7.09375 L 12.445312 5.828125 C 12.324219 5.648438 12.1875 5.515625 12.039062 5.425781 C 11.894531 5.332031 11.714844 5.269531 11.503906 5.238281 L 11.488281 5.210938 L 11.53125 4.855469 C 11.601562 4.863281 11.738281 4.867188 11.945312 4.871094 C 12.152344 4.875 12.367188 4.878906 12.59375 4.878906 C 12.804688 4.878906 13.011719 4.871094 13.210938 4.851562 C 13.414062 4.835938 13.542969 4.828125 13.601562 4.820312 L 13.621094 4.878906 L 13.601562 5.195312 C 13.425781 5.203125 13.300781 5.226562 13.222656 5.265625 C 13.144531 5.304688 13.105469 5.355469 13.105469 5.425781 C 13.105469 5.484375 13.164062 5.605469 13.277344 5.796875 C 13.394531 5.988281 13.578125 6.273438 13.824219 6.652344 L 14.070312 6.3125 C 14.253906 6.070312 14.394531 5.871094 14.496094 5.71875 C 14.597656 5.566406 14.648438 5.460938 14.648438 5.398438 C 14.648438 5.339844 14.617188 5.292969 14.558594 5.261719 C 14.503906 5.230469 14.40625 5.210938 14.269531 5.203125 L 14.253906 5.175781 L 14.296875 4.835938 L 14.492188 4.851562 C 14.5625 4.855469 14.667969 4.859375 14.808594 4.867188 C 14.945312 4.875 15.054688 4.878906 15.132812 4.878906 C 15.261719 4.878906 15.402344 4.875 15.558594 4.867188 C 15.71875 4.859375 15.820312 4.855469 15.867188 4.851562 L 15.894531 4.898438 L 15.851562 5.238281 C 15.644531 5.289062 15.484375 5.363281 15.367188 5.460938 C 15.25 5.5625 15.097656 5.730469 14.910156 5.976562 L 14.09375 7.039062 L 15.035156 8.40625 C 15.167969 8.597656 15.304688 8.738281 15.449219 8.832031 C 15.597656 8.921875 15.773438 8.976562 15.984375 8.996094 L 16 9.023438 L 15.949219 9.398438 C 15.886719 9.390625 15.765625 9.386719 15.59375 9.382812 C 15.417969 9.378906 15.238281 9.375 15.058594 9.375 C 14.898438 9.375 14.683594 9.382812 14.421875 9.398438 C 14.15625 9.410156 13.980469 9.421875 13.894531 9.425781 Z M 13.894531 9.425781 "/>
</g>
</svg>
