
<svg xmlns="http://www.w3.org/2000/svg" xmlns:xlink="http://www.w3.org/1999/xlink" width="16px" height="16px" viewBox="0 0 16 16" version="1.1">
<g id="surface1">
<path style=" stroke:none;fill-rule:nonzero;fill:#ff6666;fill-opacity:1;" d="M 10 7 C 10 8.105469 9.105469 9 8 9 C 6.894531 9 6 8.105469 6 7 C 6 5.894531 6.894531 5 8 5 C 9.105469 5 10 5.894531 10 7 Z M 10 7 "/>
<path style=" stroke:none;fill-rule:nonzero;fill:#ff6666;fill-opacity:1;" d="M 4 13 C 4 14.105469 3.105469 15 2 15 C 0.894531 15 0 14.105469 0 13 C 0 11.894531 0.894531 11 2 11 C 3.105469 11 4 11.894531 4 13 Z M 4 13 "/>
<path style=" stroke:none;fill-rule:nonzero;fill:#ff6666;fill-opacity:1;" d="M 16 13 C 16 14.105469 15.105469 15 14 15 C 12.894531 15 12 14.105469 12 13 C 12 11.894531 12.894531 11 14 11 C 15.105469 11 16 11.894531 16 13 Z M 16 13 "/>
</g>
</svg>
