
<svg xmlns="http://www.w3.org/2000/svg" xmlns:xlink="http://www.w3.org/1999/xlink" width="16px" height="16px" viewBox="0 0 16 16" version="1.1">
<g id="surface1">
<path style=" stroke:none;fill-rule:nonzero;fill:#ff6666;fill-opacity:1;" d="M 7.976562 2 C 7.871094 2.003906 7.769531 2.03125 7.679688 2.082031 L 0.347656 6.082031 C 0.132812 6.199219 0 6.421875 0 6.667969 L 0 10 C 0 10.261719 0.152344 10.5 0.390625 10.605469 L 7.722656 13.941406 C 7.929688 14.035156 8.167969 14.015625 8.359375 13.894531 L 14.320312 10.078125 L 14.777344 10.714844 L 15.390625 9.355469 L 16 8 L 14.519531 8.148438 L 13.039062 8.300781 L 13.539062 8.996094 L 7.945312 12.578125 L 1.332031 9.570312 L 1.332031 7.0625 L 8.011719 3.421875 L 13.34375 6.085938 L 7.941406 9.703125 L 2.945312 7.394531 L 2.386719 8.605469 L 7.71875 11.070312 C 7.929688 11.171875 8.179688 11.148438 8.371094 11.019531 L 15.039062 6.554688 C 15.234375 6.421875 15.347656 6.195312 15.332031 5.957031 C 15.316406 5.722656 15.175781 5.511719 14.964844 5.402344 L 8.296875 2.070312 C 8.199219 2.019531 8.085938 1.996094 7.976562 2 Z M 7.976562 2 "/>
</g>
</svg>
