
<svg xmlns="http://www.w3.org/2000/svg" xmlns:xlink="http://www.w3.org/1999/xlink" width="16px" height="16px" viewBox="0 0 16 16" version="1.1">
<g id="surface1">
<path style=" stroke:none;fill-rule:nonzero;fill:#ff6666;fill-opacity:1;" d="M 10.460938 3.691406 C 10.460938 5.730469 8.808594 7.382812 6.769531 7.382812 C 4.730469 7.382812 3.078125 5.730469 3.078125 3.691406 C 3.078125 1.652344 4.730469 0 6.769531 0 C 8.808594 0 10.460938 1.652344 10.460938 3.691406 Z M 10.460938 3.691406 "/>
<path style=" stroke:none;fill-rule:nonzero;fill:#ff6666;fill-opacity:1;" d="M 9.230469 3.691406 C 9.230469 5.050781 8.128906 6.152344 6.769531 6.152344 C 5.410156 6.152344 4.308594 5.050781 4.308594 3.691406 C 4.308594 2.332031 5.410156 1.230469 6.769531 1.230469 C 8.128906 1.230469 9.230469 2.332031 9.230469 3.691406 Z M 9.230469 3.691406 "/>
<path style=" stroke:none;fill-rule:nonzero;fill:#ff6666;fill-opacity:1;" d="M 6.753906 2.871094 C 5.519531 2.871094 5.519531 3.691406 5.515625 4.511719 C 5.507812 5.019531 5.511719 6.078125 5.519531 7.640625 C 5.535156 10.136719 5.53125 10.917969 5.5 11.027344 C 4.648438 10.9375 3.363281 10.59375 2.789062 10.136719 C 2.410156 9.839844 2.039062 9.566406 1.960938 9.527344 C 1.628906 9.382812 1.160156 9.476562 0.890625 9.742188 C 0.703125 9.925781 0.636719 10.089844 0.621094 10.382812 C 0.609375 10.609375 0.613281 10.660156 0.683594 10.8125 C 0.726562 10.90625 0.808594 11.03125 0.859375 11.09375 C 0.910156 11.152344 1.628906 12.082031 2.449219 13.15625 C 3.976562 15.152344 5.492188 15.890625 5.753906 15.964844 C 5.914062 16.011719 14.15625 16.011719 14.320312 15.96875 C 14.394531 15.945312 14.503906 15.878906 14.582031 15.800781 C 14.691406 15.691406 14.730469 15.613281 14.816406 15.351562 C 15.058594 14.605469 15.300781 13.472656 15.367188 12.84375 C 15.398438 12.109375 15.382812 12.082031 15.367188 11.488281 C 15.367188 11.476562 15.363281 11.464844 15.363281 11.453125 C 15.367188 10.929688 15.367188 10.480469 15.363281 10.257812 C 15.367188 9.4375 15.367188 8.617188 14.140625 8.617188 C 13.03125 8.617188 12.925781 9.289062 12.914062 10.019531 C 12.914062 10.039062 12.90625 10.0625 12.90625 10.078125 C 12.90625 9.882812 12.910156 9.558594 12.90625 9.4375 C 12.910156 8.617188 12.910156 7.796875 11.679688 7.796875 C 10.578125 7.796875 10.46875 8.460938 10.453125 9.1875 C 10.453125 9.1875 10.449219 9.1875 10.445312 9.191406 C 10.445312 9.1875 10.445312 9.148438 10.445312 9.136719 C 10.445312 8.992188 10.445312 8.714844 10.445312 8.617188 C 10.445312 7.796875 10.445312 6.976562 9.21875 6.976562 C 8.28125 6.976562 8.058594 7.449219 8.003906 8.035156 C 8.003906 8.035156 7.984375 8.042969 7.984375 8.042969 C 7.964844 8.046875 7.980469 7.046875 7.980469 5.964844 C 7.980469 5.226562 7.984375 4.785156 7.980469 4.511719 C 7.980469 3.691406 7.984375 2.871094 6.753906 2.871094 Z M 6.753906 2.871094 "/>
</g>
</svg>
