
<svg xmlns="http://www.w3.org/2000/svg" xmlns:xlink="http://www.w3.org/1999/xlink" width="16px" height="16px" viewBox="0 0 16 16" version="1.1">
<g id="surface1">
<path style=" stroke:none;fill-rule:nonzero;fill:#ff6666;fill-opacity:1;" d="M 1.84375 0.0078125 C 1.363281 0.09375 0.992188 0.539062 1 1.007812 L 1 15 C 1 15.523438 1.511719 16 2.0625 16 L 13.9375 16 C 14.488281 16 15 15.523438 15 15 L 15 7.5 C 15.007812 7.234375 14.878906 6.882812 14.6875 6.691406 L 8.28125 0.289062 C 8.082031 0.101562 7.808594 0 7.53125 0.0078125 L 2.0625 0.0078125 C 1.996094 0 1.910156 0 1.84375 0.0078125 Z M 11.28125 0.0078125 C 11.003906 0.0820312 10.90625 0.503906 11.125 0.695312 L 14.3125 3.878906 C 14.53125 4.109375 15.003906 3.914062 15 3.597656 L 15 0.382812 C 14.988281 0.175781 14.796875 0 14.59375 0.0078125 L 11.40625 0.0078125 C 11.363281 0 11.324219 0 11.28125 0.0078125 Z M 2.25 1.25 L 7.5 1.25 L 13.75 7.5 L 13.75 14.75 L 2.25 14.75 Z M 2.25 1.25 "/>
<path style=" stroke:none;fill-rule:nonzero;fill:#ff6666;fill-opacity:1;" d="M 7 7 L 7 12 L 9 12 L 9 7 Z M 4 9 L 4 12 L 6 12 L 6 9 Z M 10 10 L 10 12 L 12 12 L 12 10 Z M 10 10 "/>
</g>
</svg>
