
<svg xmlns="http://www.w3.org/2000/svg" xmlns:xlink="http://www.w3.org/1999/xlink" width="16px" height="16px" viewBox="0 0 16 16" version="1.1">
<g id="surface1">
<path style=" stroke:none;fill-rule:nonzero;fill:#ff6666;fill-opacity:0.4;" d="M 1.269531 0 L 6.117188 0 C 6.816406 0 7.386719 0.566406 7.386719 1.269531 L 7.386719 6.117188 C 7.386719 6.816406 6.816406 7.386719 6.117188 7.386719 L 1.269531 7.386719 C 0.566406 7.386719 0 6.816406 0 6.117188 L 0 1.269531 C 0 0.566406 0.566406 0 1.269531 0 Z M 1.269531 0 "/>
<path style=" stroke:none;fill-rule:nonzero;fill:#ff6666;fill-opacity:0.4;" d="M 9.890625 8.621094 L 14.734375 8.621094 C 15.4375 8.621094 16.003906 9.1875 16.003906 9.890625 L 16.003906 14.734375 C 16.003906 15.4375 15.4375 16.003906 14.734375 16.003906 L 9.890625 16.003906 C 9.1875 16.003906 8.621094 15.4375 8.621094 14.734375 L 8.621094 9.890625 C 8.621094 9.1875 9.1875 8.621094 9.890625 8.621094 Z M 9.890625 8.621094 "/>
<path style=" stroke:none;fill-rule:nonzero;fill:#ff6666;fill-opacity:1;" d="M 9.890625 0 L 14.734375 0 C 15.4375 0 16.003906 0.566406 16.003906 1.269531 L 16.003906 6.117188 C 16.003906 6.816406 15.4375 7.386719 14.734375 7.386719 L 9.890625 7.386719 C 9.1875 7.386719 8.621094 6.816406 8.621094 6.117188 L 8.621094 1.269531 C 8.621094 0.566406 9.1875 0 9.890625 0 Z M 9.890625 0 "/>
<path style=" stroke:none;fill-rule:nonzero;fill:#ff6666;fill-opacity:1;" d="M 1.269531 8.621094 L 6.117188 8.621094 C 6.816406 8.621094 7.386719 9.1875 7.386719 9.890625 L 7.386719 14.734375 C 7.386719 15.4375 6.816406 16.003906 6.117188 16.003906 L 1.269531 16.003906 C 0.566406 16.003906 0 15.4375 0 14.734375 L 0 9.890625 C 0 9.1875 0.566406 8.621094 1.269531 8.621094 Z M 1.269531 8.621094 "/>
</g>
</svg>
