
<svg xmlns="http://www.w3.org/2000/svg" xmlns:xlink="http://www.w3.org/1999/xlink" width="16px" height="16px" viewBox="0 0 16 16" version="1.1">
<g id="surface1">
<path style=" stroke:none;fill-rule:nonzero;fill:#ff6666;fill-opacity:1;" d="M 3.875 0 C 1.738281 0 0 1.738281 0 3.875 C 0 6.007812 1.738281 7.742188 3.875 7.742188 C 3.875 7.742188 3.878906 7.742188 3.882812 7.742188 C 3.898438 7.480469 3.9375 7.222656 4 6.976562 C 4.136719 6.445312 4.375 5.960938 4.691406 5.539062 C 4.730469 5.484375 4.773438 5.433594 4.8125 5.382812 C 4.898438 5.277344 4.988281 5.179688 5.082031 5.085938 C 5.222656 4.949219 5.371094 4.816406 5.53125 4.699219 C 5.742188 4.539062 5.96875 4.402344 6.210938 4.285156 C 6.679688 4.058594 7.199219 3.921875 7.742188 3.886719 C 7.742188 3.882812 7.742188 3.878906 7.742188 3.875 C 7.742188 1.738281 6.007812 0 3.875 0 Z M 12.125 0 C 9.992188 0 8.257812 1.734375 8.257812 3.871094 C 8.257812 3.875 8.257812 3.882812 8.257812 3.886719 C 10.328125 4.011719 11.988281 5.671875 12.121094 7.742188 C 12.121094 7.742188 12.125 7.742188 12.125 7.742188 C 14.261719 7.742188 16 6.007812 16 3.871094 C 16 1.734375 14.261719 0 12.125 0 Z M 7.78125 4.140625 C 7.765625 4.140625 7.75 4.144531 7.734375 4.144531 C 5.8125 4.277344 4.273438 5.8125 4.140625 7.734375 C 4.136719 7.75 4.136719 7.765625 4.132812 7.78125 L 7.78125 7.78125 Z M 8.21875 4.140625 L 8.21875 7.78125 L 11.863281 7.78125 C 11.863281 7.765625 11.863281 7.75 11.859375 7.734375 C 11.726562 5.8125 10.1875 4.277344 8.265625 4.144531 C 8.25 4.144531 8.234375 4.140625 8.21875 4.140625 Z M 4.132812 8.21875 C 4.136719 8.234375 4.136719 8.25 4.136719 8.265625 C 4.265625 10.191406 5.808594 11.734375 7.734375 11.867188 C 7.75 11.867188 7.765625 11.867188 7.78125 11.871094 L 7.78125 8.21875 Z M 8.21875 8.21875 L 8.21875 11.871094 C 8.234375 11.867188 8.25 11.867188 8.265625 11.867188 C 10.191406 11.734375 11.734375 10.191406 11.863281 8.265625 C 11.863281 8.25 11.863281 8.234375 11.863281 8.21875 Z M 12.121094 8.257812 C 11.996094 10.332031 10.332031 11.996094 8.257812 12.125 C 8.257812 14.261719 9.992188 16 12.125 16 C 14.261719 16 16 14.261719 16 12.125 C 16 9.992188 14.261719 8.257812 12.125 8.257812 C 12.125 8.257812 12.121094 8.257812 12.121094 8.257812 Z M 3.875 8.257812 C 1.738281 8.257812 0 9.992188 0 12.128906 C 0 14.265625 1.738281 16 3.875 16 C 6.007812 16 7.742188 14.265625 7.742188 12.128906 C 7.742188 12.128906 7.742188 12.125 7.742188 12.125 C 7.195312 12.089844 6.679688 11.949219 6.210938 11.722656 C 5.96875 11.609375 5.742188 11.472656 5.53125 11.3125 C 5.371094 11.195312 5.222656 11.0625 5.082031 10.921875 C 4.988281 10.832031 4.898438 10.734375 4.8125 10.628906 C 4.773438 10.578125 4.730469 10.527344 4.691406 10.472656 C 4.375 10.050781 4.136719 9.566406 4 9.039062 C 3.9375 8.785156 3.898438 8.523438 3.882812 8.257812 C 3.878906 8.257812 3.875 8.257812 3.875 8.257812 Z M 3.875 8.257812 "/>
</g>
</svg>
