
<svg xmlns="http://www.w3.org/2000/svg" xmlns:xlink="http://www.w3.org/1999/xlink" width="16px" height="16px" viewBox="0 0 16 16" version="1.1">
<g id="surface1">
<path style=" stroke:none;fill-rule:nonzero;fill:#ff6666;fill-opacity:1;" d="M 3.199219 2.183594 C 2.3125 2.183594 1.4375 2.890625 1.453125 3.769531 L 1.453125 10.910156 L 0 10.910156 L 0 13.816406 L 16 13.816406 L 16 10.910156 L 14.546875 10.910156 L 14.546875 3.769531 C 14.546875 2.890625 13.6875 2.183594 12.800781 2.183594 Z M 4 3.636719 L 12 3.636719 C 12.589844 3.636719 13.089844 4.242188 13.089844 4.828125 L 13.089844 10.113281 C 13.089844 10.308594 13.132812 11.011719 12.652344 10.910156 L 3.347656 10.910156 C 2.867188 10.882812 2.910156 10.308594 2.910156 10.113281 L 2.910156 4.828125 C 2.910156 4.242188 3.410156 3.636719 4 3.636719 Z M 4 3.636719 "/>
</g>
</svg>
