
<svg xmlns="http://www.w3.org/2000/svg" xmlns:xlink="http://www.w3.org/1999/xlink" width="16px" height="16px" viewBox="0 0 16 16" version="1.1">
<g id="surface1">
<path style=" stroke:none;fill-rule:evenodd;fill:#ff6666;fill-opacity:1;" d="M 0 3 C 0 1.34375 1.34375 0 3 0 C 4.65625 0 6 1.34375 6 3 C 6 4.65625 4.65625 6 3 6 C 1.34375 6 0 4.65625 0 3 Z M 10 8 C 10 6.34375 11.34375 5 13 5 C 14.65625 5 16 6.34375 16 8 C 16 9.65625 14.65625 11 13 11 C 11.34375 11 10 9.65625 10 8 Z M 0 13 C 0 11.34375 1.34375 10 3 10 C 4.65625 10 6 11.34375 6 13 C 6 14.65625 4.65625 16 3 16 C 1.34375 16 0 14.65625 0 13 Z M 0 13 "/>
</g>
</svg>
