
<svg xmlns="http://www.w3.org/2000/svg" xmlns:xlink="http://www.w3.org/1999/xlink" width="16px" height="16px" viewBox="0 0 16 16" version="1.1">
<g id="surface1">
<path style=" stroke:none;fill-rule:evenodd;fill:#ff6666;fill-opacity:1;" d="M 1.066406 2.132812 L 10.667969 2.132812 C 13.019531 2.132812 14.933594 3.691406 14.933594 6.042969 L 14.933594 13.867188 L 6.757812 13.867188 C 4.621094 13.867188 3.199219 11.734375 3.199219 9.601562 L 3.199219 5.6875 C 3.199219 4.636719 2.789062 4.265625 1.777344 4.265625 L 1.066406 4.265625 Z M 0 1.066406 L 0 5.332031 L 2.132812 5.332031 L 2.132812 9.601562 C 2.132812 12.445312 3.910156 14.933594 6.757812 14.933594 L 16 14.933594 L 16 6.042969 C 16 3.121094 13.589844 1.082031 10.667969 1.066406 Z M 4.621094 3.199219 L 4.621094 10.3125 C 4.621094 11.734375 5.6875 12.445312 6.757812 12.445312 L 11.734375 12.445312 C 12.914062 12.445312 13.511719 11.847656 13.511719 10.667969 L 13.511719 6.042969 C 13.511719 5.15625 12.597656 4.621094 11.734375 4.621094 C 11.210938 4.621094 10.816406 4.855469 10.476562 5.203125 C 10.140625 4.855469 9.769531 4.621094 9.242188 4.621094 C 8.308594 4.621094 7.46875 5.167969 7.46875 6.042969 L 7.46875 9.601562 L 8.53125 9.601562 L 8.53125 6.398438 C 8.53125 5.957031 8.804688 5.6875 9.242188 5.6875 C 9.6875 5.6875 9.957031 5.957031 9.957031 6.398438 L 9.957031 9.601562 L 11.023438 9.601562 L 11.023438 6.398438 C 11.023438 5.957031 11.292969 5.6875 11.734375 5.6875 C 12.175781 5.6875 12.445312 5.957031 12.445312 6.398438 L 12.445312 10.667969 C 12.445312 11.257812 12.324219 11.378906 11.734375 11.378906 L 6.757812 11.378906 C 6.042969 11.378906 5.6875 10.667969 5.6875 9.957031 L 5.6875 3.199219 Z M 4.621094 3.199219 "/>
</g>
</svg>
