
<svg xmlns="http://www.w3.org/2000/svg" xmlns:xlink="http://www.w3.org/1999/xlink" width="16px" height="16px" viewBox="0 0 16 16" version="1.1">
<g id="surface1">
<path style=" stroke:none;fill-rule:nonzero;fill:#ff6666;fill-opacity:1;" d="M 8.144531 0 C 7.859375 0 7.578125 0.015625 7.304688 0.0429688 C 3.210938 0.398438 0 3.824219 0 8.003906 C 0 12.417969 3.582031 16 8 16 C 12.417969 16 16 12.417969 16 8.003906 C 16 3.652344 12.519531 0.113281 8.1875 0.0117188 C 12.140625 0.113281 15.3125 3.34375 15.3125 7.316406 C 15.3125 7.542969 15.300781 7.769531 15.28125 7.992188 C 14.941406 11.710938 11.808594 14.625 8 14.625 C 4.191406 14.625 0.71875 11.726562 0.71875 7.992188 C 0.71875 4.257812 4.335938 1.453125 8.144531 1.453125 Z M 7.289062 0.0429688 C 7.089844 0.0664062 6.894531 0.09375 6.703125 0.128906 C 6.894531 0.09375 7.089844 0.0625 7.289062 0.0429688 Z M 6.5625 0.148438 C 6.453125 0.171875 6.347656 0.203125 6.238281 0.230469 C 6.347656 0.203125 6.453125 0.171875 6.5625 0.148438 Z M 6.5625 0.148438 "/>
<path style=" stroke:none;fill-rule:nonzero;fill:#ff6666;fill-opacity:1;" d="M 6.03125 3.96875 C 5.917969 3.96875 5.820312 4.089844 5.820312 4.238281 L 5.820312 11.769531 C 5.820312 11.917969 5.917969 12.035156 6.03125 12.035156 C 6.144531 12.035156 6.242188 11.917969 6.242188 11.769531 L 6.242188 4.238281 C 6.242188 4.089844 6.144531 3.96875 6.03125 3.96875 Z M 11.28125 4.109375 C 11.167969 4.109375 11.074219 4.230469 11.074219 4.378906 L 11.074219 11.628906 C 11.074219 11.777344 11.167969 11.898438 11.28125 11.898438 C 11.394531 11.898438 11.488281 11.777344 11.488281 11.628906 L 11.488281 4.375 C 11.488281 4.230469 11.394531 4.109375 11.28125 4.109375 Z M 4.71875 4.59375 C 4.605469 4.59375 4.507812 4.714844 4.507812 4.859375 L 4.507812 11.148438 C 4.507812 11.296875 4.605469 11.414062 4.71875 11.414062 C 4.832031 11.414062 4.929688 11.296875 4.929688 11.148438 L 4.929688 4.859375 C 4.929688 4.714844 4.832031 4.59375 4.71875 4.59375 Z M 10.625 5.035156 C 10.511719 5.035156 10.417969 5.15625 10.417969 5.304688 L 10.417969 10.703125 C 10.417969 10.851562 10.511719 10.972656 10.625 10.972656 C 10.738281 10.972656 10.832031 10.851562 10.832031 10.703125 L 10.832031 5.304688 C 10.832031 5.15625 10.738281 5.035156 10.625 5.035156 Z M 5.375 5.199219 C 5.261719 5.199219 5.164062 5.320312 5.164062 5.46875 L 5.164062 10.542969 C 5.164062 10.691406 5.261719 10.808594 5.375 10.808594 C 5.488281 10.808594 5.585938 10.691406 5.585938 10.542969 L 5.585938 5.46875 C 5.585938 5.320312 5.488281 5.199219 5.375 5.199219 Z M 4.0625 5.472656 C 3.949219 5.472656 3.851562 5.589844 3.851562 5.738281 L 3.851562 10.269531 C 3.851562 10.417969 3.949219 10.535156 4.0625 10.535156 C 4.175781 10.535156 4.273438 10.417969 4.273438 10.269531 L 4.273438 5.738281 C 4.273438 5.589844 4.175781 5.472656 4.0625 5.472656 Z M 11.9375 5.953125 C 11.824219 5.953125 11.730469 6.070312 11.730469 6.21875 L 11.730469 9.789062 C 11.730469 9.9375 11.824219 10.058594 11.9375 10.058594 C 12.050781 10.058594 12.144531 9.9375 12.144531 9.789062 L 12.144531 6.21875 C 12.144531 6.070312 12.050781 5.953125 11.9375 5.953125 Z M 9.96875 6.027344 C 9.855469 6.027344 9.761719 6.148438 9.757812 6.296875 L 9.757812 9.710938 C 9.761719 9.859375 9.855469 9.980469 9.96875 9.980469 C 10.082031 9.980469 10.175781 9.859375 10.175781 9.710938 L 10.175781 6.296875 C 10.175781 6.148438 10.082031 6.027344 9.96875 6.027344 Z M 6.6875 6.191406 C 6.574219 6.191406 6.476562 6.3125 6.476562 6.460938 L 6.476562 9.546875 C 6.476562 9.695312 6.574219 9.816406 6.6875 9.816406 C 6.800781 9.816406 6.898438 9.695312 6.898438 9.546875 L 6.898438 6.460938 C 6.898438 6.3125 6.800781 6.191406 6.6875 6.191406 Z M 2.75 6.632812 C 2.636719 6.632812 2.539062 6.753906 2.539062 6.898438 L 2.539062 9.109375 C 2.539062 9.253906 2.636719 9.375 2.75 9.375 C 2.863281 9.375 2.960938 9.253906 2.960938 9.109375 L 2.960938 6.898438 C 2.960938 6.753906 2.863281 6.632812 2.75 6.632812 Z M 8.65625 6.820312 C 8.542969 6.820312 8.449219 6.9375 8.445312 7.085938 L 8.445312 8.921875 C 8.449219 9.070312 8.542969 9.1875 8.65625 9.1875 C 8.769531 9.1875 8.867188 9.070312 8.867188 8.921875 L 8.867188 7.085938 C 8.867188 6.9375 8.769531 6.820312 8.65625 6.820312 Z M 7.34375 6.859375 C 7.230469 6.859375 7.132812 6.976562 7.132812 7.125 L 7.132812 8.882812 C 7.132812 9.03125 7.230469 9.148438 7.34375 9.148438 C 7.457031 9.148438 7.554688 9.03125 7.554688 8.882812 L 7.554688 7.125 C 7.554688 6.976562 7.457031 6.859375 7.34375 6.859375 Z M 3.40625 7.269531 C 3.292969 7.269531 3.195312 7.390625 3.195312 7.539062 L 3.195312 8.472656 C 3.195312 8.621094 3.292969 8.738281 3.40625 8.738281 C 3.519531 8.738281 3.617188 8.621094 3.617188 8.472656 L 3.617188 7.539062 C 3.617188 7.390625 3.519531 7.269531 3.40625 7.269531 Z M 12.59375 7.269531 C 12.480469 7.269531 12.386719 7.390625 12.386719 7.539062 L 12.386719 8.472656 C 12.386719 8.621094 12.480469 8.738281 12.59375 8.738281 C 12.707031 8.738281 12.800781 8.621094 12.800781 8.472656 L 12.800781 7.539062 C 12.800781 7.390625 12.707031 7.269531 12.59375 7.269531 Z M 8 7.492188 C 7.886719 7.492188 7.789062 7.609375 7.789062 7.757812 L 7.789062 8.25 C 7.789062 8.398438 7.886719 8.515625 8 8.515625 C 8.113281 8.515625 8.210938 8.398438 8.210938 8.25 L 8.210938 7.757812 C 8.210938 7.609375 8.113281 7.492188 8 7.492188 Z M 9.3125 7.492188 C 9.199219 7.492188 9.101562 7.609375 9.101562 7.757812 L 9.101562 8.25 C 9.101562 8.398438 9.199219 8.515625 9.3125 8.515625 C 9.425781 8.515625 9.523438 8.398438 9.523438 8.25 L 9.523438 7.757812 C 9.523438 7.609375 9.425781 7.492188 9.3125 7.492188 Z M 13.25 7.582031 C 13.136719 7.582031 13.042969 7.703125 13.042969 7.851562 L 13.042969 8.15625 C 13.042969 8.304688 13.136719 8.425781 13.25 8.425781 C 13.363281 8.425781 13.457031 8.304688 13.457031 8.15625 L 13.457031 7.851562 C 13.457031 7.703125 13.363281 7.582031 13.25 7.582031 Z M 13.25 7.582031 "/>
</g>
</svg>
