
<svg xmlns="http://www.w3.org/2000/svg" xmlns:xlink="http://www.w3.org/1999/xlink" width="16px" height="16px" viewBox="0 0 16 16" version="1.1">
<g id="surface1">
<path style=" stroke:none;fill-rule:evenodd;fill:#ff6666;fill-opacity:1;" d="M 9.332031 7.230469 L 15.199219 7.230469 C 15.640625 7.230469 16 7.589844 16 8.03125 C 16 8.472656 15.640625 8.832031 15.199219 8.832031 L 9.332031 8.832031 C 8.890625 8.832031 8.53125 8.472656 8.53125 8.03125 C 8.53125 7.589844 8.890625 7.230469 9.332031 7.230469 Z M 0.800781 4.800781 L 6.667969 4.800781 C 7.109375 4.800781 7.46875 5.15625 7.46875 5.597656 C 7.46875 6.039062 7.109375 6.398438 6.667969 6.398438 L 0.800781 6.398438 C 0.359375 6.398438 0 6.039062 0 5.597656 C 0 5.15625 0.359375 4.800781 0.800781 4.800781 Z M 0.867188 9.53125 L 6.734375 9.53125 C 7.175781 9.53125 7.53125 9.890625 7.53125 10.332031 C 7.53125 10.773438 7.175781 11.132812 6.734375 11.132812 L 0.867188 11.132812 C 0.425781 11.132812 0.0664062 10.773438 0.0664062 10.332031 C 0.0664062 9.890625 0.425781 9.53125 0.867188 9.53125 Z M 0.867188 9.53125 "/>
<path style=" stroke:none;fill-rule:nonzero;fill:#ff6666;fill-opacity:1;" d="M 4.53125 12.03125 C 5.097656 10.40625 5.34375 9.25 5.332031 8.03125 C 5.324219 6.851562 5.078125 5.605469 4.53125 4.03125 C 9.703125 4.03125 12 8.03125 12 8.03125 C 12 8.03125 9.703125 12.03125 4.53125 12.03125 Z M 4.53125 12.03125 "/>
</g>
</svg>
