
<svg xmlns="http://www.w3.org/2000/svg" xmlns:xlink="http://www.w3.org/1999/xlink" width="16px" height="16px" viewBox="0 0 16 16" version="1.1">
<g id="surface1">
<path style=" stroke:none;fill-rule:nonzero;fill:#ff6666;fill-opacity:1;" d="M 7.648438 2.605469 C 7.453125 2.605469 7.300781 2.753906 7.300781 2.945312 L 7.300781 4.300781 C 7.300781 4.488281 7.453125 4.640625 7.648438 4.640625 L 8.34375 4.640625 C 8.535156 4.640625 8.6875 4.488281 8.6875 4.300781 L 8.6875 2.945312 C 8.6875 2.753906 8.535156 2.605469 8.34375 2.605469 Z M 11.421875 3.859375 C 11.332031 3.859375 11.242188 3.890625 11.175781 3.957031 L 10.195312 4.914062 C 10.058594 5.050781 10.058594 5.261719 10.195312 5.398438 L 10.6875 5.875 C 10.820312 6.011719 11.039062 6.011719 11.175781 5.875 L 12.15625 4.914062 C 12.292969 4.78125 12.292969 4.570312 12.15625 4.4375 L 11.667969 3.957031 C 11.597656 3.890625 11.511719 3.859375 11.421875 3.859375 Z M 4.554688 3.859375 C 4.464844 3.859375 4.375 3.894531 4.308594 3.960938 L 3.816406 4.441406 C 3.679688 4.574219 3.679688 4.789062 3.816406 4.921875 L 4.796875 5.882812 C 4.933594 6.015625 5.152344 6.015625 5.289062 5.882812 L 5.78125 5.398438 C 5.914062 5.265625 5.914062 5.054688 5.78125 4.921875 L 4.796875 3.960938 C 4.730469 3.894531 4.640625 3.859375 4.554688 3.859375 Z M 2.789062 7.359375 C 2.59375 7.359375 2.4375 7.511719 2.4375 7.699219 L 2.4375 8.378906 C 2.4375 8.566406 2.59375 8.71875 2.789062 8.71875 L 4.175781 8.71875 C 4.367188 8.71875 4.523438 8.566406 4.523438 8.378906 L 4.523438 7.699219 C 4.523438 7.511719 4.367188 7.359375 4.175781 7.359375 Z M 11.808594 7.359375 C 11.613281 7.359375 11.460938 7.511719 11.460938 7.699219 L 11.460938 8.378906 C 11.460938 8.566406 11.613281 8.71875 11.808594 8.71875 L 13.195312 8.71875 C 13.386719 8.71875 13.542969 8.566406 13.542969 8.378906 L 13.542969 7.699219 C 13.542969 7.511719 13.386719 7.359375 13.195312 7.359375 Z M 5.042969 10.09375 C 4.953125 10.09375 4.863281 10.125 4.796875 10.191406 L 3.816406 11.152344 C 3.679688 11.285156 3.679688 11.496094 3.816406 11.628906 L 4.304688 12.109375 C 4.441406 12.246094 4.660156 12.246094 4.796875 12.109375 L 5.78125 11.152344 C 5.914062 11.019531 5.914062 10.804688 5.78125 10.671875 L 5.289062 10.191406 C 5.222656 10.125 5.132812 10.09375 5.042969 10.09375 Z M 10.933594 10.097656 C 10.84375 10.097656 10.753906 10.128906 10.6875 10.199219 L 10.195312 10.675781 C 10.058594 10.8125 10.058594 11.023438 10.195312 11.15625 L 11.175781 12.117188 C 11.3125 12.25 11.53125 12.25 11.667969 12.117188 L 12.15625 11.636719 C 12.292969 11.503906 12.292969 11.289062 12.15625 11.15625 L 11.175781 10.199219 C 11.109375 10.128906 11.019531 10.097656 10.933594 10.097656 Z M 7.648438 11.421875 C 7.453125 11.421875 7.300781 11.574219 7.300781 11.765625 L 7.300781 13.121094 C 7.300781 13.308594 7.453125 13.460938 7.648438 13.460938 L 8.34375 13.460938 C 8.535156 13.460938 8.6875 13.308594 8.6875 13.121094 L 8.6875 11.765625 C 8.6875 11.574219 8.535156 11.421875 8.34375 11.421875 Z M 7.648438 11.421875 "/>
<path style=" stroke:none;fill-rule:nonzero;fill:#ff6666;fill-opacity:1;" d="M 6.425781 5.699219 L 6.425781 10.386719 L 6.890625 10.386719 C 6.96875 10.386719 7.050781 10.371094 7.121094 10.328125 L 10.371094 8.453125 C 10.515625 8.375 10.585938 8.207031 10.585938 8.042969 C 10.585938 7.878906 10.515625 7.714844 10.371094 7.632812 L 7.121094 5.757812 C 7.050781 5.71875 6.96875 5.699219 6.890625 5.699219 Z M 6.425781 5.699219 "/>
<path style=" stroke:none;fill-rule:nonzero;fill:#ff6666;fill-opacity:1;" d="M 8 0 C 3.589844 0 0 3.589844 0 8 C 0 12.410156 3.589844 16 8 16 C 12.410156 16 16 12.410156 16 8 C 16 3.589844 12.410156 0 8 0 Z M 8 1.144531 C 11.792969 1.144531 14.855469 4.207031 14.855469 8 C 14.855469 11.792969 11.792969 14.855469 8 14.855469 C 4.207031 14.855469 1.144531 11.792969 1.144531 8 C 1.144531 4.207031 4.207031 1.144531 8 1.144531 Z M 8 1.144531 "/>
</g>
</svg>
