
<svg xmlns="http://www.w3.org/2000/svg" xmlns:xlink="http://www.w3.org/1999/xlink" width="16px" height="16px" viewBox="0 0 16 16" version="1.1">
<g id="surface1">
<path style=" stroke:none;fill-rule:evenodd;fill:#ff6666;fill-opacity:1;" d="M 8.03125 5.332031 C 9.503906 5.332031 10.699219 6.527344 10.699219 8 C 10.699219 9.472656 9.503906 10.667969 8.03125 10.667969 C 6.558594 10.667969 5.363281 9.472656 5.363281 8 C 5.363281 6.527344 6.558594 5.332031 8.03125 5.332031 Z M 8.03125 4.265625 C 5.96875 4.265625 4.296875 5.9375 4.296875 8 C 4.296875 10.0625 5.96875 11.734375 8.03125 11.734375 C 10.09375 11.734375 11.765625 10.0625 11.765625 8 C 11.765625 5.9375 10.09375 4.265625 8.03125 4.265625 Z M 8.03125 2.667969 C 5.960938 2.667969 4.195312 3.894531 3.4375 5.636719 C 1.511719 5.914062 0.03125 7.507812 0.03125 9.453125 C 0.03125 11.597656 1.820312 13.332031 4.03125 13.332031 L 12.53125 13.332031 C 14.464844 13.332031 16.03125 11.8125 16.03125 9.9375 C 16.03125 8.195312 14.679688 6.769531 12.9375 6.574219 C 12.484375 4.351562 10.457031 2.667969 8.03125 2.667969 Z M 6.429688 8 C 6.429688 7.117188 7.148438 6.398438 8.03125 6.398438 C 8.914062 6.398438 9.632812 7.117188 9.632812 8 C 9.632812 8.882812 8.914062 9.601562 8.03125 9.601562 C 7.148438 9.601562 6.429688 8.882812 6.429688 8 Z M 6.429688 8 "/>
</g>
</svg>
