
<svg xmlns="http://www.w3.org/2000/svg" xmlns:xlink="http://www.w3.org/1999/xlink" width="16px" height="16px" viewBox="0 0 16 16" version="1.1">
<g id="surface1">
<path style=" stroke:none;fill-rule:nonzero;fill:#ff6666;fill-opacity:1;" d="M 3.324219 1 C 2.609375 1 1.988281 1.511719 1.851562 2.214844 L 0.5 9.199219 L 0.5 11.5 C 0.5 12.324219 1.175781 13 2 13 L 5.5 13 L 5.5 12 L 2 12 C 1.867188 12.003906 1.738281 11.949219 1.644531 11.855469 C 1.550781 11.761719 1.496094 11.632812 1.5 11.5 L 1.5 9.5 C 1.5 9.21875 1.71875 9 2 9 L 7.5 9 L 7.5 8 L 2 8 C 1.914062 8 1.828125 8.011719 1.746094 8.027344 L 2.835938 2.402344 C 2.878906 2.167969 3.085938 1.996094 3.324219 2 L 11.675781 2 C 11.914062 2 12.121094 2.171875 12.164062 2.402344 L 13.0625 7 L 14.074219 7 L 13.148438 2.214844 C 13.011719 1.511719 12.394531 1 11.675781 1 Z M 12 8 C 10.242188 8 8.796875 9.308594 8.550781 11 L 6 11 L 9 14 L 12 11 L 9.550781 11 C 9.785156 9.835938 10.808594 8.996094 12 9 C 13.386719 9 14.5 10.113281 14.5 11.5 C 14.5 12.886719 13.386719 14 12 14 L 11.480469 14 L 11.480469 15 L 12 15 C 13.925781 15 15.5 13.425781 15.5 11.5 C 15.5 9.574219 13.925781 8 12 8 Z M 12 8 "/>
</g>
</svg>
