
<svg xmlns="http://www.w3.org/2000/svg" xmlns:xlink="http://www.w3.org/1999/xlink" width="16px" height="16px" viewBox="0 0 16 16" version="1.1">
<g id="surface1">
<path style=" stroke:none;fill-rule:nonzero;fill:#ff6666;fill-opacity:1;" d="M 6.929688 0 C 3.105469 0 0 3.105469 0 6.929688 C 0 10.753906 3.105469 13.859375 6.929688 13.859375 C 8.566406 13.859375 10.152344 13.277344 11.398438 12.214844 L 15.183594 16 L 16 15.183594 L 12.214844 11.398438 C 13.277344 10.152344 13.859375 8.566406 13.859375 6.929688 C 13.859375 3.105469 10.753906 0 6.929688 0 Z M 6.929688 1.15625 C 10.117188 1.15625 12.703125 3.742188 12.703125 6.929688 C 12.703125 10.117188 10.117188 12.703125 6.929688 12.703125 C 3.742188 12.703125 1.15625 10.117188 1.15625 6.929688 C 1.15625 3.742188 3.742188 1.15625 6.929688 1.15625 Z M 6.929688 1.15625 "/>
</g>
</svg>
