
<svg xmlns="http://www.w3.org/2000/svg" xmlns:xlink="http://www.w3.org/1999/xlink" width="16px" height="16px" viewBox="0 0 16 16" version="1.1">
<g id="surface1">
<path style=" stroke:none;fill-rule:nonzero;fill:#ff6666;fill-opacity:1;" d="M 0.984375 0.734375 L 0.984375 12.734375 L 8.171875 12.734375 L 8.25 11.765625 L 11.1875 8.46875 C 11.265625 8.5 11.425781 8.515625 11.671875 8.515625 C 13.027344 9.359375 14.128906 10.058594 14.984375 10.609375 L 14.984375 0.734375 Z M 2.691406 1.734375 L 13.277344 1.734375 L 7.984375 7.027344 Z M 1.984375 2.441406 L 5.917969 6.375 L 1.984375 10.964844 Z M 13.984375 2.441406 L 13.984375 9.765625 L 11.746094 8.351562 L 10.050781 6.375 Z M 6.628906 7.085938 L 7.984375 8.441406 L 9.34375 7.085938 L 10.789062 8.773438 L 8.171875 11.734375 L 2.640625 11.734375 Z M 6.628906 7.085938 "/>
<path style=" stroke:none;fill-rule:evenodd;fill:#ff6666;fill-opacity:1;" d="M 7.5 11.875 C 7.5 9.667969 9.292969 7.875 11.5 7.875 C 13.707031 7.875 15.5 9.667969 15.5 11.875 C 15.5 14.082031 13.707031 15.875 11.5 15.875 C 9.292969 15.875 7.5 14.082031 7.5 11.875 Z M 14.179688 12.320312 L 11.941406 12.320312 L 11.941406 14.554688 L 11.046875 14.554688 L 11.046875 12.320312 L 8.820312 12.320312 L 8.820312 11.429688 L 11.046875 11.429688 L 11.046875 9.195312 L 11.941406 9.195312 L 11.941406 11.429688 L 14.179688 11.429688 Z M 14.179688 12.320312 "/>
</g>
</svg>
