
<svg xmlns="http://www.w3.org/2000/svg" xmlns:xlink="http://www.w3.org/1999/xlink" width="16px" height="16px" viewBox="0 0 16 16" version="1.1">
<g id="surface1">
<path style=" stroke:none;fill-rule:evenodd;fill:#ff6666;fill-opacity:1;" d="M 13.601562 6 C 13.441406 6 13.320312 6 13.199219 6.039062 L 13.199219 5.800781 C 13.199219 4.359375 12.039062 3.199219 10.601562 3.199219 C 9.921875 3.199219 9.320312 3.480469 8.839844 3.878906 C 8.265625 2.730469 7.089844 2 5.800781 2 C 3.921875 2 2.398438 3.519531 2.398438 5.398438 C 2.398438 5.601562 2.441406 5.839844 2.441406 6.039062 C 1.046875 6.207031 -0.00390625 7.394531 0 8.800781 C 0 10.359375 1.242188 11.601562 2.800781 11.601562 C 2.960938 11.601562 3.078125 11.601562 3.242188 11.558594 C 3.398438 12.921875 4.601562 14 6 14 C 7.242188 14 8.320312 13.199219 8.679688 12.039062 C 9.121094 12.480469 9.71875 12.800781 10.398438 12.800781 C 11.640625 12.800781 12.640625 11.878906 12.800781 10.640625 C 13.039062 10.71875 13.320312 10.800781 13.601562 10.800781 C 14.921875 10.800781 16 9.71875 16 8.398438 C 16 7.078125 14.921875 6 13.601562 6 Z M 10.320312 5.601562 L 7.160156 8.757812 L 5.679688 7.242188 L 4.800781 8.121094 L 7.160156 10.480469 L 11.199219 6.480469 Z M 10.320312 5.601562 "/>
</g>
</svg>
