
<svg xmlns="http://www.w3.org/2000/svg" xmlns:xlink="http://www.w3.org/1999/xlink" width="16px" height="16px" viewBox="0 0 16 16" version="1.1">
<g id="surface1">
<path style=" stroke:none;fill-rule:evenodd;fill:#ff6666;fill-opacity:1;" d="M 7.234375 7.238281 C 7.855469 7.238281 8.335938 7.425781 8.675781 7.796875 C 9.011719 8.171875 9.179688 8.796875 9.179688 9.683594 L 9.179688 12.171875 C 9.179688 12.484375 9.082031 12.71875 8.886719 12.878906 C 8.691406 13.035156 8.449219 13.113281 8.15625 13.113281 C 7.863281 13.113281 7.621094 13.035156 7.425781 12.878906 C 7.226562 12.71875 7.128906 12.484375 7.128906 12.171875 L 7.128906 9.636719 C 7.128906 9.328125 7.078125 9.113281 6.96875 8.992188 C 6.863281 8.867188 6.703125 8.804688 6.496094 8.804688 C 6.226562 8.804688 6.011719 8.902344 5.851562 9.09375 C 5.691406 9.285156 5.609375 9.550781 5.609375 9.890625 L 5.609375 12.171875 C 5.609375 12.484375 5.515625 12.71875 5.320312 12.878906 C 5.128906 13.035156 4.882812 13.113281 4.585938 13.113281 C 4.292969 13.113281 4.050781 13.035156 3.851562 12.878906 C 3.65625 12.71875 3.558594 12.484375 3.558594 12.171875 L 3.558594 9.636719 C 3.558594 9.328125 3.503906 9.113281 3.398438 8.992188 C 3.289062 8.867188 3.132812 8.804688 2.925781 8.804688 C 2.65625 8.804688 2.445312 8.902344 2.285156 9.09375 C 2.128906 9.285156 2.050781 9.550781 2.050781 9.890625 L 2.050781 12.171875 C 2.050781 12.484375 1.953125 12.71875 1.757812 12.878906 C 1.5625 13.035156 1.316406 13.113281 1.023438 13.113281 C 0.734375 13.113281 0.488281 13.035156 0.292969 12.878906 C 0.0976562 12.71875 0 12.484375 0 12.171875 L 0 8.183594 C 0 7.882812 0.101562 7.65625 0.304688 7.5 C 0.507812 7.339844 0.753906 7.261719 1.035156 7.261719 C 1.304688 7.261719 1.53125 7.335938 1.710938 7.476562 C 1.890625 7.617188 1.984375 7.824219 1.992188 8.09375 C 2.367188 7.523438 2.945312 7.238281 3.722656 7.238281 C 4.542969 7.238281 5.089844 7.574219 5.367188 8.242188 C 5.558594 7.933594 5.816406 7.691406 6.140625 7.511719 C 6.460938 7.328125 6.828125 7.238281 7.234375 7.238281 Z M 15.320312 5.015625 C 15.511719 5.015625 15.671875 5.082031 15.804688 5.210938 C 15.933594 5.34375 16 5.503906 16 5.695312 C 16 5.886719 15.933594 6.050781 15.804688 6.1875 C 15.671875 6.320312 15.511719 6.386719 15.320312 6.386719 L 13.867188 6.386719 L 13.867188 7.828125 C 13.867188 8.019531 13.804688 8.179688 13.679688 8.3125 C 13.550781 8.441406 13.390625 8.507812 13.1875 8.507812 C 12.996094 8.507812 12.835938 8.441406 12.707031 8.3125 C 12.574219 8.179688 12.511719 8.019531 12.511719 7.828125 L 12.511719 6.386719 L 11.058594 6.386719 C 10.867188 6.386719 10.703125 6.320312 10.574219 6.1875 C 10.445312 6.050781 10.378906 5.886719 10.378906 5.695312 C 10.378906 5.503906 10.445312 5.34375 10.574219 5.210938 C 10.703125 5.082031 10.867188 5.015625 11.058594 5.015625 L 12.511719 5.015625 L 12.511719 3.566406 C 12.511719 3.371094 12.574219 3.210938 12.707031 3.082031 C 12.835938 2.949219 12.996094 2.886719 13.1875 2.886719 C 13.382812 2.886719 13.542969 2.949219 13.671875 3.082031 C 13.804688 3.210938 13.867188 3.371094 13.867188 3.566406 L 13.867188 5.015625 Z M 15.320312 5.015625 "/>
</g>
</svg>
