
<svg xmlns="http://www.w3.org/2000/svg" xmlns:xlink="http://www.w3.org/1999/xlink" width="16px" height="16px" viewBox="0 0 16 16" version="1.1">
<g id="surface1">
<path style=" stroke:none;fill-rule:evenodd;fill:#ff6666;fill-opacity:1;" d="M 8 5.949219 L 0 1.328125 L 0 10.828125 L 2.667969 12.429688 L 2.667969 8.777344 L 1.777344 8.273438 L 1.777344 5.492188 L 7.992188 9.078125 L 8 9.074219 L 8.007812 9.078125 L 14.230469 5.488281 L 16 4.464844 L 16 1.328125 Z M 8 11.75 L 12.445312 9.183594 L 12.445312 12.101562 L 10.53125 13.210938 L 10.117188 13.445312 L 8 14.671875 L 5.46875 13.210938 L 5.472656 13.210938 L 3.554688 12.101562 L 3.554688 9.183594 Z M 16 4.46875 L 14.21875 5.5 L 14.222656 8.273438 L 13.332031 8.777344 L 13.332031 12.429688 L 16 10.828125 Z M 16 4.46875 "/>
</g>
</svg>
