
<svg xmlns="http://www.w3.org/2000/svg" xmlns:xlink="http://www.w3.org/1999/xlink" width="16px" height="16px" viewBox="0 0 16 16" version="1.1">
<g id="surface1">
<path style=" stroke:none;fill-rule:nonzero;fill:#ff6666;fill-opacity:1;" d="M 9.71875 0.472656 L 5.058594 5.132812 L 4.953125 5.21875 L 4.910156 5.34375 L 3.289062 9.179688 L 1.835938 10.59375 L 1.328125 11.054688 L 2.023438 11.753906 L 0 13.777344 L 3.585938 15.527344 L 4.679688 14.429688 L 4.847656 14.578125 L 5.3125 15.0625 L 5.796875 14.597656 L 7.292969 13.1875 L 11.132812 11.5625 L 11.234375 11.5 L 11.34375 11.414062 L 16 6.757812 L 15.03125 5.808594 L 12.605469 8.230469 L 8.222656 3.847656 L 10.664062 1.421875 Z M 7.292969 4.816406 L 11.65625 9.179688 L 10.855469 9.980469 L 6.492188 5.617188 Z M 5.777344 6.800781 L 9.675781 10.699219 L 6.621094 12.003906 L 6.515625 12.046875 L 6.410156 12.132812 L 5.332031 13.164062 L 3.269531 11.097656 L 4.320312 10.085938 L 4.40625 9.980469 L 4.46875 9.855469 Z M 5.777344 6.800781 "/>
</g>
</svg>
