
<svg xmlns="http://www.w3.org/2000/svg" xmlns:xlink="http://www.w3.org/1999/xlink" width="16px" height="16px" viewBox="0 0 16 16" version="1.1">
<g id="surface1">
<path style=" stroke:none;fill-rule:nonzero;fill:#ff6666;fill-opacity:1;" d="M 12.523438 5 L 12.523438 0 L 0 0 L 0 16 L 12.523438 16 L 12.523438 11 L 11.53125 12 L 11.519531 15 L 1 15 L 1 1 L 11.519531 1 L 11.519531 6 Z M 12.523438 5 "/>
<path style=" stroke:none;fill-rule:evenodd;fill:#ff6666;fill-opacity:1;" d="M 5.773438 3.136719 C 5.757812 3.144531 5.738281 3.152344 5.722656 3.15625 C 5.652344 3.21875 5.632812 3.550781 5.808594 4.101562 C 5.902344 3.46875 5.828125 3.191406 5.773438 3.136719 Z M 6.078125 6.480469 L 6.058594 6.550781 L 6.035156 6.511719 C 5.851562 7.003906 5.648438 7.484375 5.425781 7.960938 L 5.496094 7.929688 L 5.464844 7.984375 C 5.929688 7.820312 6.402344 7.671875 6.878906 7.539062 L 6.855469 7.519531 L 6.929688 7.503906 C 6.617188 7.183594 6.335938 6.84375 6.078125 6.480469 Z M 9.503906 7.9375 C 9.375 7.9375 9.234375 7.945312 9.078125 7.957031 C 9.253906 8.015625 9.433594 8.046875 9.617188 8.050781 C 9.84375 8.050781 9.964844 8.03125 10.027344 8.015625 C 9.972656 7.984375 9.824219 7.9375 9.503906 7.9375 Z M 5.789062 2.304688 C 6.066406 2.304688 6.308594 2.421875 6.476562 2.632812 C 6.824219 3.089844 6.800781 4.019531 6.402344 5.398438 C 6.835938 6.136719 7.386719 6.804688 7.945312 7.28125 C 8.554688 7.15625 9.078125 7.09375 9.503906 7.09375 C 10.785156 7.09375 10.921875 7.734375 10.921875 8.007812 C 10.921875 8.894531 9.972656 8.894531 9.617188 8.894531 C 9.003906 8.894531 8.367188 8.660156 7.722656 8.195312 C 6.726562 8.4375 5.75 8.753906 4.800781 9.148438 C 3.613281 11.1875 2.886719 11.1875 2.648438 11.1875 C 2.5 11.1875 2.359375 11.152344 2.226562 11.085938 C 1.8125 10.867188 1.757812 10.550781 1.765625 10.382812 C 1.773438 10.167969 1.800781 9.523438 4.183594 8.488281 C 4.703125 7.535156 5.136719 6.53125 5.46875 5.496094 C 5.105469 4.816406 4.511719 3.480469 4.96875 2.734375 C 5.136719 2.457031 5.429688 2.304688 5.789062 2.304688 Z M 3.167969 9.96875 C 2.929688 10.121094 2.785156 10.242188 2.707031 10.328125 C 2.800781 10.296875 2.957031 10.191406 3.167969 9.96875 Z M 3.167969 9.96875 "/>
<path style=" stroke:none;fill-rule:nonzero;fill:#ff6666;fill-opacity:1;" d="M 13.324219 5.371094 L 11.914062 6.800781 L 11.210938 7.511719 L 10.507812 8.226562 L 9.800781 8.941406 L 8.394531 10.371094 L 7.6875 11.085938 L 7.15625 11.800781 C 7.085938 11.929688 7.050781 11.972656 6.929688 12.21875 C 6.707031 12.675781 6.429688 13.296875 6.207031 14 L 6 14.65625 L 6.65625 14.449219 C 7.359375 14.226562 7.980469 13.949219 8.4375 13.726562 C 8.894531 13.503906 9.140625 13.355469 9.214844 13.308594 L 9.246094 13.289062 L 16 6.628906 L 14.027344 4.65625 Z M 8.066406 11.722656 L 8.933594 12.59375 L 8.808594 12.71875 C 8.8125 12.714844 8.539062 12.878906 8.121094 13.085938 C 7.96875 13.160156 7.738281 13.242188 7.527344 13.324219 L 7.332031 13.128906 C 7.414062 12.917969 7.496094 12.6875 7.570312 12.535156 C 7.777344 12.117188 7.941406 11.84375 7.9375 11.847656 Z M 8.066406 11.722656 "/>
</g>
</svg>
