
<svg xmlns="http://www.w3.org/2000/svg" xmlns:xlink="http://www.w3.org/1999/xlink" width="16px" height="16px" viewBox="0 0 16 16" version="1.1">
<g id="surface1">
<path style=" stroke:none;fill-rule:nonzero;fill:#ff6666;fill-opacity:1;" d="M 2.03125 7.0625 C 1.945312 7.0625 1.863281 7.027344 1.804688 6.96875 L 1.304688 6.46875 C 0.949219 6.113281 0.949219 5.542969 1.304688 5.191406 L 6.238281 0.257812 C 6.578125 -0.0820312 7.171875 -0.0820312 7.511719 0.257812 L 8.015625 0.761719 C 8.140625 0.886719 8.140625 1.085938 8.015625 1.210938 L 2.257812 6.96875 C 2.195312 7.027344 2.117188 7.0625 2.03125 7.0625 Z M 4.324219 9.574219 L 4.042969 9.859375 C 2.066406 11.839844 2.066406 11.839844 1.65625 12.019531 C 1.457031 12.109375 1.15625 12.242188 0.578125 12.589844 C 0.15625 12.84375 0.0351562 13.167969 0.0078125 13.394531 C -0.0546875 13.882812 0.242188 14.460938 0.890625 15.105469 C 1.484375 15.699219 2.015625 15.996094 2.476562 15.996094 C 2.742188 15.996094 3.121094 15.898438 3.410156 15.417969 C 3.757812 14.839844 3.890625 14.539062 3.976562 14.339844 C 4.160156 13.933594 4.160156 13.933594 6.140625 11.953125 L 6.421875 11.671875 Z M 8.28125 1.851562 L 2.894531 7.238281 L 8.753906 13.101562 L 14.140625 7.714844 Z M 6.070312 8.621094 L 8.386719 7.648438 L 7.304688 6.566406 L 9.769531 5.742188 L 10.875 6.847656 L 8.816406 7.257812 L 9.964844 8.402344 Z M 10.164062 14.953125 C 9.921875 14.953125 9.695312 14.859375 9.527344 14.691406 L 9.023438 14.1875 C 8.964844 14.128906 8.929688 14.046875 8.929688 13.960938 C 8.929688 13.878906 8.964844 13.796875 9.023438 13.734375 L 14.78125 7.980469 C 14.839844 7.917969 14.921875 7.886719 15.007812 7.886719 C 15.09375 7.886719 15.175781 7.917969 15.234375 7.980469 L 15.734375 8.480469 C 15.90625 8.652344 16 8.878906 16 9.117188 C 16 9.359375 15.90625 9.585938 15.734375 9.757812 L 10.800781 14.691406 C 10.632812 14.859375 10.402344 14.957031 10.164062 14.953125 Z M 10.164062 14.953125 "/>
</g>
</svg>
