
<svg xmlns="http://www.w3.org/2000/svg" xmlns:xlink="http://www.w3.org/1999/xlink" width="16px" height="16px" viewBox="0 0 16 16" version="1.1">
<g id="surface1">
<path style=" stroke:none;fill-rule:evenodd;fill:#ff6666;fill-opacity:1;" d="M 7.15625 1.25 L 8.84375 1.25 L 8.84375 14.75 L 7.15625 14.75 Z M 16 8 C 15.488281 8.722656 14.742188 9.289062 13.75 9.6875 L 13.75 8.5625 L 10.628906 8.5625 L 11.5 7.4375 L 13.75 7.4375 L 13.75 6.3125 C 14.558594 6.757812 15.308594 7.320312 16 8 Z M 0 8 C 0.574219 8.722656 1.324219 9.285156 2.25 9.6875 L 2.25 8.5625 L 4.5 8.5625 L 5.371094 7.4375 L 2.25 7.4375 L 2.25 6.3125 C 1.421875 6.667969 0.671875 7.230469 0 8 Z M 0 8 "/>
</g>
</svg>
