
<svg xmlns="http://www.w3.org/2000/svg" xmlns:xlink="http://www.w3.org/1999/xlink" width="16px" height="16px" viewBox="0 0 16 16" version="1.1">
<g id="surface1">
<path style=" stroke:none;fill-rule:evenodd;fill:#ff6666;fill-opacity:1;" d="M 11.691406 13.539062 L 14.769531 13.539062 L 14.769531 14.152344 L 11.691406 14.152344 Z M 1.753906 11.601562 L 3.785156 13.628906 C 3.976562 13.824219 3.839844 14.152344 3.566406 14.152344 L 1.847656 14.152344 C 1.507812 14.152344 1.230469 13.878906 1.230469 13.539062 L 1.230469 11.816406 C 1.230469 11.542969 1.5625 11.40625 1.753906 11.601562 Z M 2.769531 1.230469 L 13.230469 1.230469 L 13.230469 1.539062 L 2.769531 1.539062 Z M 0.921875 4.921875 L 1.230469 4.921875 L 1.230469 5.570312 C 1.007812 5.617188 0.796875 5.714844 0.613281 5.855469 L 0.613281 5.230469 C 0.613281 5.0625 0.753906 4.921875 0.921875 4.921875 Z M 4.613281 3.386719 L 12 3.386719 L 12 4 L 4.613281 4 Z M 15.078125 4.921875 C 15.246094 4.921875 15.386719 5.0625 15.386719 5.230469 L 15.386719 5.855469 C 15.203125 5.714844 14.992188 5.617188 14.769531 5.570312 L 14.769531 4.921875 Z M 11.691406 12.308594 L 14.769531 12.308594 L 14.769531 12.921875 L 11.691406 12.921875 Z M 6.460938 4.613281 L 9.539062 4.613281 L 9.539062 5.230469 L 6.460938 5.230469 Z M 2.152344 2.152344 L 13.847656 2.152344 C 14.015625 2.152344 14.152344 2.292969 14.152344 2.460938 L 14.152344 5.539062 L 11.097656 5.539062 C 10.789062 5.539062 10.503906 5.691406 10.328125 5.949219 L 9.464844 7.246094 C 9.40625 7.332031 9.3125 7.386719 9.210938 7.386719 L 6.789062 7.386719 C 6.6875 7.386719 6.59375 7.332031 6.535156 7.246094 L 5.671875 5.949219 C 5.5 5.691406 5.210938 5.539062 4.902344 5.539062 L 1.847656 5.539062 L 1.847656 2.460938 C 1.847656 2.292969 1.984375 2.152344 2.152344 2.152344 Z M 15.386719 13.847656 C 15.386719 14.355469 14.96875 14.769531 14.460938 14.769531 L 1.539062 14.769531 C 1.03125 14.769531 0.613281 14.355469 0.613281 13.847656 L 0.613281 7.078125 C 0.613281 6.566406 1.03125 6.152344 1.539062 6.152344 L 4.902344 6.152344 C 5.003906 6.152344 5.101562 6.203125 5.15625 6.289062 L 6.023438 7.589844 C 6.195312 7.847656 6.480469 8 6.789062 8 L 9.210938 8 C 9.519531 8 9.804688 7.847656 9.976562 7.589844 L 10.84375 6.289062 C 10.898438 6.203125 10.996094 6.152344 11.097656 6.152344 L 14.460938 6.152344 C 14.96875 6.152344 15.386719 6.566406 15.386719 7.078125 Z M 15.078125 4.308594 L 14.769531 4.308594 L 14.769531 2.460938 C 14.769531 1.953125 14.355469 1.539062 13.847656 1.539062 L 13.847656 1.230469 C 13.847656 0.890625 13.570312 0.613281 13.230469 0.613281 L 2.769531 0.613281 C 2.429688 0.613281 2.152344 0.890625 2.152344 1.230469 L 2.152344 1.539062 C 1.644531 1.539062 1.230469 1.953125 1.230469 2.460938 L 1.230469 4.308594 L 0.921875 4.308594 C 0.414062 4.308594 0 4.722656 0 5.230469 L 0 13.847656 C 0 14.695312 0.691406 15.386719 1.539062 15.386719 L 14.460938 15.386719 C 15.308594 15.386719 16 14.695312 16 13.847656 L 16 5.230469 C 16 4.722656 15.585938 4.308594 15.078125 4.308594 Z M 7.078125 5.847656 L 8.921875 5.847656 L 8.921875 6.460938 L 7.078125 6.460938 Z M 7.078125 5.847656 "/>
</g>
</svg>
