
<svg xmlns="http://www.w3.org/2000/svg" xmlns:xlink="http://www.w3.org/1999/xlink" width="16px" height="16px" viewBox="0 0 16 16" version="1.1">
<g id="surface1">
<path style=" stroke:none;fill-rule:nonzero;fill:#ff6666;fill-opacity:1;" d="M 8 0 C 3.582031 0 0 3.582031 0 8 C 0 12.417969 3.582031 16 8 16 C 12.417969 16 16 12.417969 16 8 C 16 3.582031 12.417969 0 8 0 Z M 9.335938 2.164062 L 12.445312 4 L 9.332031 5.835938 Z M 8 3.109375 C 8.226562 3.109375 8.449219 3.125 8.671875 3.15625 L 8.671875 3.835938 C 8.453125 3.800781 8.230469 3.78125 8 3.78125 C 6.222656 3.78125 4.703125 4.871094 4.078125 6.421875 L 3.503906 6.078125 C 4.25 4.335938 5.984375 3.109375 8 3.109375 Z M 8 4.769531 C 8.226562 4.769531 8.453125 4.796875 8.667969 4.84375 L 8.667969 5.535156 C 8.453125 5.476562 8.230469 5.449219 8 5.449219 C 6.832031 5.449219 5.859375 6.222656 5.550781 7.289062 L 4.953125 6.933594 C 5.398438 5.675781 6.597656 4.769531 8 4.769531 Z M 11.921875 5.078125 C 12.53125 5.894531 12.890625 6.90625 12.890625 8 C 12.890625 9.109375 12.519531 10.136719 11.890625 10.957031 L 11.3125 10.613281 C 11.878906 9.894531 12.21875 8.988281 12.21875 8 C 12.21875 7.027344 11.890625 6.136719 11.34375 5.421875 Z M 10.476562 5.9375 C 10.945312 6.5 11.230469 7.214844 11.230469 8 C 11.230469 8.800781 10.933594 9.539062 10.445312 10.105469 L 9.851562 9.753906 C 10.285156 9.296875 10.550781 8.683594 10.550781 8 C 10.550781 7.335938 10.300781 6.734375 9.890625 6.28125 Z M 2.335938 6.164062 L 5.445312 8 L 2.332031 9.835938 Z M 5.550781 8.710938 C 5.859375 9.777344 6.832031 10.546875 8 10.546875 C 8.230469 10.546875 8.453125 10.519531 8.667969 10.460938 L 8.667969 11.15625 C 8.453125 11.203125 8.226562 11.230469 8 11.230469 C 6.59375 11.230469 5.394531 10.320312 4.953125 9.0625 Z M 4.078125 9.578125 C 4.703125 11.128906 6.222656 12.21875 8 12.21875 C 8.226562 12.21875 8.445312 12.199219 8.664062 12.164062 L 8.664062 12.84375 C 8.445312 12.871094 8.226562 12.890625 8 12.890625 C 5.984375 12.890625 4.25 11.664062 3.503906 9.917969 Z M 9.332031 10.222656 L 12.441406 12.054688 L 9.328125 13.890625 Z M 9.332031 10.222656 "/>
</g>
</svg>
