
<svg xmlns="http://www.w3.org/2000/svg" xmlns:xlink="http://www.w3.org/1999/xlink" width="16px" height="16px" viewBox="0 0 16 16" version="1.1">
<g id="surface1">
<path style=" stroke:none;fill-rule:evenodd;fill:#ff6666;fill-opacity:1;" d="M 8.019531 0 C 7.847656 -0.0078125 7.6875 0.078125 7.601562 0.226562 L 6.214844 2.570312 L 3.703125 1.480469 C 3.554688 1.414062 3.378906 1.433594 3.246094 1.527344 C 3.113281 1.625 3.039062 1.78125 3.058594 1.945312 L 3.332031 4.644531 L 0.648438 5.222656 C 0.488281 5.257812 0.359375 5.375 0.308594 5.527344 C 0.257812 5.683594 0.292969 5.851562 0.402344 5.972656 L 2.230469 8 L 0.402344 10.027344 C 0.292969 10.148438 0.257812 10.320312 0.308594 10.472656 C 0.359375 10.628906 0.488281 10.742188 0.648438 10.777344 L 3.332031 11.355469 L 3.058594 14.058594 C 3.042969 14.21875 3.113281 14.378906 3.246094 14.472656 C 3.378906 14.566406 3.554688 14.585938 3.703125 14.519531 L 6.21875 13.429688 L 7.601562 15.773438 C 7.683594 15.914062 7.835938 16 8 16 C 8.164062 16 8.316406 15.914062 8.398438 15.773438 L 9.785156 13.429688 L 12.296875 14.519531 C 12.445312 14.585938 12.621094 14.566406 12.753906 14.472656 C 12.886719 14.375 12.960938 14.21875 12.941406 14.054688 L 12.667969 11.355469 L 15.351562 10.777344 C 15.511719 10.742188 15.640625 10.625 15.691406 10.472656 C 15.742188 10.316406 15.707031 10.148438 15.597656 10.027344 L 13.769531 8 L 15.597656 5.972656 C 15.707031 5.851562 15.742188 5.679688 15.691406 5.527344 C 15.640625 5.371094 15.511719 5.257812 15.351562 5.222656 L 12.667969 4.644531 L 12.941406 1.941406 C 12.957031 1.78125 12.886719 1.621094 12.753906 1.527344 C 12.621094 1.433594 12.445312 1.414062 12.296875 1.480469 L 9.78125 2.570312 L 8.398438 0.226562 C 8.320312 0.09375 8.175781 0.0078125 8.019531 0 Z M 10.40625 5.023438 C 10.359375 5.382812 10.308594 5.753906 10.285156 6.089844 C 10.257812 6.484375 10.207031 6.769531 10.351562 7.222656 C 10.507812 7.703125 10.726562 7.894531 10.996094 8.214844 C 11.261719 8.53125 11.582031 8.871094 11.890625 9.191406 C 11.445312 9.265625 10.976562 9.355469 10.5625 9.457031 C 10.148438 9.558594 9.84375 9.601562 9.449219 9.871094 C 9.054688 10.144531 8.90625 10.414062 8.675781 10.757812 C 8.457031 11.089844 8.234375 11.472656 8.027344 11.839844 C 7.636719 11.125 7.1875 10.347656 6.421875 9.855469 C 5.757812 9.433594 4.96875 9.277344 4.230469 9.160156 C 4.757812 8.613281 5.300781 7.972656 5.546875 7.144531 C 5.757812 6.433594 5.722656 5.726562 5.648438 5.078125 C 6.316406 5.402344 7.085938 5.714844 7.9375 5.714844 C 8.847656 5.714844 9.6875 5.371094 10.40625 5.023438 Z M 4.46875 3.429688 C 4.46875 3.429688 5.125 5.546875 4.722656 6.902344 C 4.320312 8.261719 2.285156 9.789062 2.285156 9.789062 C 2.285156 9.789062 4.949219 9.933594 5.960938 10.578125 C 6.96875 11.226562 7.996094 13.714844 7.996094 13.714844 C 7.996094 13.714844 9.363281 10.972656 9.933594 10.578125 C 10.503906 10.1875 13.714844 9.785156 13.714844 9.785156 C 13.714844 9.785156 11.367188 7.574219 11.167969 6.960938 C 10.96875 6.34375 11.53125 3.429688 11.53125 3.429688 C 11.53125 3.429688 9.421875 4.855469 7.9375 4.855469 C 6.453125 4.855469 4.46875 3.429688 4.46875 3.429688 Z M 4.46875 3.429688 "/>
</g>
</svg>
