
<svg xmlns="http://www.w3.org/2000/svg" xmlns:xlink="http://www.w3.org/1999/xlink" width="16px" height="16px" viewBox="0 0 16 16" version="1.1">
<g id="surface1">
<path style=" stroke:none;fill-rule:nonzero;fill:#ff6666;fill-opacity:1;" d="M 11.21875 0.832031 C 10.953125 1.035156 10.183594 2.464844 9.410156 4.164062 C 9.097656 4.859375 8.65625 5.769531 8.433594 6.183594 C 7.769531 7.421875 6.148438 9.671875 5.398438 10.386719 L 4.699219 11.0625 L 5.222656 11.617188 C 5.539062 11.960938 5.964844 12.671875 6.316406 13.46875 C 6.980469 14.980469 7.097656 15.199219 7.222656 15.199219 C 7.285156 15.199219 7.625 15.011719 8.003906 14.773438 C 8.855469 14.238281 9.648438 13.515625 10.726562 12.285156 C 12.410156 10.371094 13.675781 9.964844 15.234375 10.84375 C 15.652344 11.085938 16 11.234375 16 11.179688 C 16 11.117188 15.785156 10.542969 15.527344 9.894531 C 15.269531 9.242188 14.570312 7.410156 13.972656 5.816406 C 13.546875 5.117188 12.160156 0.34375 11.21875 0.835938 M 7.859375 4.753906 C 7.851562 4.753906 7.84375 4.753906 7.832031 4.757812 C 6.40625 5.382812 5.890625 5.667969 5.472656 6.0625 C 5.195312 6.328125 4.96875 6.609375 4.96875 6.691406 C 4.96875 6.945312 6.09375 7.628906 6.277344 7.484375 C 6.367188 7.414062 6.71875 6.914062 7.054688 6.367188 C 7.65625 5.394531 7.964844 4.769531 7.859375 4.753906 M 3.867188 7.511719 C 3.625 7.511719 0.183594 8.8125 0.0195312 8.964844 C -0.03125 9.011719 0.0195312 9.09375 0.132812 9.152344 C 0.242188 9.21875 0.871094 9.636719 1.539062 10.089844 C 2.207031 10.542969 2.785156 10.910156 2.824219 10.914062 C 2.867188 10.914062 3.171875 10.753906 3.5 10.558594 C 4.1875 10.144531 5.511719 8.867188 5.507812 8.621094 C 5.503906 8.402344 4.179688 7.507812 3.867188 7.507812 "/>
</g>
</svg>
