
<svg xmlns="http://www.w3.org/2000/svg" xmlns:xlink="http://www.w3.org/1999/xlink" width="16px" height="16px" viewBox="0 0 16 16" version="1.1">
<g id="surface1">
<path style=" stroke:none;fill-rule:nonzero;fill:#ff6666;fill-opacity:1;" d="M 7.992188 0 C 3.574219 0.0078125 0 3.585938 0 8 C 0 12.417969 3.582031 16 8 16 C 12.417969 16 16 12.417969 16 8 C 15.996094 5.128906 14.453125 2.480469 11.960938 1.0625 C 11.976562 1.15625 11.984375 1.253906 11.984375 1.351562 L 11.984375 2.871094 C 13.019531 3.917969 13.597656 5.328125 13.601562 6.800781 C 13.601562 9.890625 11.09375 12.398438 8 12.398438 C 4.90625 12.398438 2.398438 9.890625 2.398438 6.800781 C 2.402344 4.121094 4.300781 1.820312 6.925781 1.308594 C 7.183594 0.988281 7.46875 0.632812 7.597656 0.472656 C 7.714844 0.320312 7.828125 0.183594 7.9375 0.0585938 C 7.953125 0.0390625 7.972656 0.0195312 7.992188 0 Z M 9.699219 1.199219 C 9.660156 1.199219 9.628906 1.199219 9.605469 1.210938 C 9.5625 1.230469 9.367188 1.453125 9.171875 1.707031 C 8.972656 1.960938 8.539062 2.5 8.207031 2.910156 C 7.875 3.320312 7.242188 4.105469 6.808594 4.652344 C 5.949219 5.726562 5.8125 5.941406 5.671875 6.453125 C 5.585938 6.773438 5.574219 7.289062 5.65625 7.589844 C 5.871094 8.40625 6.59375 9.023438 7.523438 9.183594 C 7.566406 9.1875 7.714844 9.199219 7.847656 9.199219 C 8.414062 9.207031 8.894531 9.007812 9.300781 8.597656 C 9.515625 8.382812 9.574219 8.296875 9.707031 8.019531 C 9.792969 7.84375 9.882812 7.605469 9.914062 7.492188 C 9.988281 7.210938 10.023438 6.621094 9.984375 5.273438 L 9.984375 1.351562 C 9.96875 1.269531 9.8125 1.210938 9.699219 1.199219 Z M 9.699219 1.199219 "/>
</g>
</svg>
