
<svg xmlns="http://www.w3.org/2000/svg" xmlns:xlink="http://www.w3.org/1999/xlink" width="16px" height="16px" viewBox="0 0 16 16" version="1.1">
<g id="surface1">
<path style=" stroke:none;fill-rule:nonzero;fill:#ff6666;fill-opacity:1;" d="M 11.414062 0.78125 L 11.414062 1.707031 L 10.234375 1.707031 C 9.800781 1.707031 9.394531 1.742188 9.011719 1.8125 C 8.628906 1.882812 8.253906 2.015625 7.890625 2.203125 C 7.554688 2.386719 7.28125 2.628906 7.070312 2.941406 C 6.859375 3.257812 6.75 3.636719 6.75 4.082031 C 6.75 4.730469 7.011719 5.222656 7.53125 5.558594 C 8.050781 5.894531 8.738281 6.066406 9.59375 6.066406 L 10.914062 6.066406 L 10.914062 6.921875 L 9.128906 6.921875 C 8.140625 6.921875 7.382812 7.109375 6.863281 7.480469 C 6.34375 7.855469 6.085938 8.441406 6.085938 9.238281 C 6.085938 9.894531 6.296875 10.402344 6.726562 10.765625 C 7.148438 11.125 7.742188 11.308594 8.5 11.308594 L 9.703125 11.308594 C 10.457031 11.308594 11.027344 11.492188 11.414062 11.863281 C 11.804688 12.234375 12 12.726562 12 13.347656 C 12 14.015625 11.679688 14.625 11.039062 15.175781 C 10.398438 15.726562 9.632812 16 8.746094 16 C 8.109375 16 7.65625 15.929688 7.390625 15.792969 C 7.121094 15.65625 6.988281 15.449219 6.988281 15.183594 C 6.988281 14.964844 7.0625 14.792969 7.210938 14.664062 C 7.359375 14.53125 7.582031 14.464844 7.871094 14.464844 C 8.042969 14.464844 8.195312 14.496094 8.332031 14.554688 C 8.46875 14.613281 8.585938 14.683594 8.691406 14.761719 C 8.789062 14.824219 8.90625 14.910156 9.042969 15.011719 C 9.179688 15.117188 9.308594 15.195312 9.429688 15.25 C 9.578125 15.238281 9.734375 15.207031 9.910156 15.15625 C 10.082031 15.101562 10.246094 15.015625 10.402344 14.890625 C 10.570312 14.765625 10.699219 14.621094 10.796875 14.453125 C 10.894531 14.289062 10.941406 14.0625 10.941406 13.777344 C 10.941406 13.382812 10.800781 13.089844 10.519531 12.898438 C 10.234375 12.710938 9.832031 12.613281 9.304688 12.613281 L 7.882812 12.613281 C 6.835938 12.613281 5.976562 12.328125 5.3125 11.757812 C 4.644531 11.183594 4.308594 10.476562 4.308594 9.632812 C 4.308594 9.175781 4.410156 8.757812 4.613281 8.378906 C 4.816406 8.003906 5.089844 7.671875 5.441406 7.386719 C 5.765625 7.121094 6.144531 6.910156 6.5625 6.75 C 6.984375 6.59375 7.394531 6.492188 7.78125 6.449219 L 7.78125 6.402344 C 6.859375 6.265625 6.15625 5.992188 5.675781 5.582031 C 5.195312 5.175781 4.953125 4.6875 4.953125 4.117188 C 4.953125 3.792969 5.027344 3.5 5.167969 3.238281 C 5.3125 2.972656 5.511719 2.734375 5.765625 2.53125 C 6.003906 2.339844 6.28125 2.175781 6.605469 2.039062 C 6.925781 1.90625 7.265625 1.792969 7.617188 1.695312 L 7.617188 1.558594 C 7.375 1.566406 7.058594 1.574219 6.667969 1.589844 C 6.28125 1.609375 5.945312 1.617188 5.667969 1.617188 C 5.09375 1.617188 4.675781 1.542969 4.40625 1.398438 C 4.132812 1.257812 4 1.050781 4 0.78125 C 4 0.570312 4.0625 0.386719 4.1875 0.234375 C 4.3125 0.078125 4.523438 0 4.816406 0 C 5.097656 0 5.335938 0.0507812 5.535156 0.148438 C 5.734375 0.246094 5.917969 0.351562 6.085938 0.464844 C 6.28125 0.597656 6.449219 0.703125 6.597656 0.796875 C 6.742188 0.886719 6.964844 0.929688 7.261719 0.929688 C 7.917969 0.929688 8.625 0.914062 9.390625 0.878906 C 10.152344 0.851562 10.828125 0.816406 11.414062 0.78125 Z M 11.414062 0.78125 "/>
</g>
</svg>
