
<svg xmlns="http://www.w3.org/2000/svg" xmlns:xlink="http://www.w3.org/1999/xlink" width="16px" height="16px" viewBox="0 0 16 16" version="1.1">
<g id="surface1">
<path style=" stroke:none;fill-rule:nonzero;fill:#ff6666;fill-opacity:1;" d="M 4.800781 0 L 4.800781 1.601562 C 5.117188 1.601562 5.847656 1.777344 6.375 2.101562 C 6.554688 2.210938 6.699219 2.324219 6.824219 2.449219 C 3.746094 2.792969 1.71875 4.566406 1.601562 8 C 0.714844 8 0 8.714844 0 9.601562 C 0 10.484375 0.714844 11.199219 1.601562 11.199219 C 1.746094 11.199219 1.890625 11.1875 2.023438 11.148438 C 2.90625 13.933594 5.089844 16 8 16 C 10.910156 16 13.09375 13.929688 13.976562 11.148438 C 14.109375 11.1875 14.253906 11.199219 14.398438 11.199219 C 15.285156 11.199219 16 10.484375 16 9.601562 C 16 8.714844 15.285156 8 14.398438 8 C 14.277344 4.507812 12.175781 2.746094 9 2.449219 C 9.332031 1.824219 9.949219 1.523438 9.949219 1.523438 L 9.25 0.0742188 C 9.25 0.0742188 8.472656 0.449219 7.875 1.25 C 7.667969 1.050781 7.441406 0.875 7.199219 0.722656 C 6.386719 0.230469 5.523438 0 4.800781 0 Z M 6.398438 6.398438 C 6.960938 6.398438 7.519531 6.554688 8 6.875 C 8.480469 6.632812 9.039062 6.398438 9.601562 6.398438 C 11.359375 6.398438 12.800781 7.839844 12.800781 9.601562 C 12.800781 10.800781 12.160156 11.839844 11.199219 12.398438 C 11.039062 14 9.683594 15.199219 8 15.199219 C 6.316406 15.199219 5.039062 14 4.800781 12.398438 C 3.839844 11.839844 3.199219 10.800781 3.199219 9.601562 C 3.199219 7.839844 4.640625 6.398438 6.398438 6.398438 Z M 5.601562 9.601562 C 5.160156 9.601562 4.800781 9.960938 4.800781 10.398438 C 4.800781 10.839844 5.160156 11.199219 5.601562 11.199219 C 6.039062 11.199219 6.398438 10.839844 6.398438 10.398438 C 6.398438 9.960938 6.039062 9.601562 5.601562 9.601562 Z M 10.398438 9.601562 C 9.960938 9.601562 9.601562 9.960938 9.601562 10.398438 C 9.601562 10.839844 9.960938 11.199219 10.398438 11.199219 C 10.839844 11.199219 11.199219 10.839844 11.199219 10.398438 C 11.199219 9.960938 10.839844 9.601562 10.398438 9.601562 Z M 10.398438 9.601562 "/>
</g>
</svg>
