
<svg xmlns="http://www.w3.org/2000/svg" xmlns:xlink="http://www.w3.org/1999/xlink" width="16px" height="16px" viewBox="0 0 16 16" version="1.1">
<g id="surface1">
<path style=" stroke:none;fill-rule:evenodd;fill:#ff6666;fill-opacity:1;" d="M 15.996094 10.582031 C 15.800781 10.636719 14.71875 10.945312 14.601562 10.871094 C 13.382812 10.144531 12.414062 10.507812 11.273438 10.980469 C 10.917969 11.128906 10.5625 11.277344 10.050781 11.488281 C 12.078125 7.507812 10.824219 3.601562 6.195312 2.726562 C 7.082031 2.519531 8.320312 2.5 9.292969 2.757812 C 11.945312 3.453125 13.40625 4.503906 14.96875 7.335938 C 15.429688 8.261719 16.046875 9.734375 15.996094 10.582031 Z M 1.308594 6.96875 C 1.976562 5.671875 4.347656 5.332031 5.679688 6.015625 C 7.003906 6.695312 7.882812 8.890625 6.675781 11.019531 C 6.691406 9.527344 6.347656 8.15625 5.210938 7.195312 C 4.089844 6.28125 2.695312 6.421875 1.308594 6.96875 Z M 2.363281 5.121094 C 3.300781 3.902344 4.480469 3.546875 5.785156 3.652344 C 7.503906 3.785156 8.808594 4.628906 9.507812 6.253906 C 10.160156 7.808594 9.824219 9.808594 8.4375 11.355469 C 8.960938 9.335938 8.855469 7.632812 7.519531 6.226562 C 6.144531 4.832031 4.390625 4.5625 2.363281 5.121094 Z M 2.378906 12.015625 C 2.378906 11.9375 2.390625 11.875 2.410156 11.824219 C 2.433594 11.773438 2.464844 11.730469 2.503906 11.699219 C 2.539062 11.664062 2.585938 11.644531 2.636719 11.628906 C 2.691406 11.613281 2.746094 11.605469 2.804688 11.605469 C 2.859375 11.605469 2.914062 11.613281 2.964844 11.628906 C 3.015625 11.644531 3.058594 11.664062 3.097656 11.699219 C 3.136719 11.730469 3.164062 11.773438 3.1875 11.824219 C 3.210938 11.875 3.222656 11.9375 3.222656 12.015625 C 3.222656 12.085938 3.210938 12.148438 3.1875 12.199219 C 3.164062 12.25 3.136719 12.292969 3.097656 12.328125 C 3.058594 12.359375 3.015625 12.386719 2.964844 12.398438 C 2.914062 12.414062 2.859375 12.421875 2.804688 12.421875 C 2.746094 12.421875 2.691406 12.414062 2.636719 12.398438 C 2.585938 12.386719 2.539062 12.359375 2.503906 12.328125 C 2.464844 12.292969 2.433594 12.25 2.410156 12.199219 C 2.390625 12.148438 2.378906 12.085938 2.378906 12.015625 Z M 2.460938 11.09375 L 2.460938 11.085938 C 2.460938 11.003906 2.46875 10.835938 2.484375 10.769531 C 2.5 10.703125 2.527344 10.640625 2.5625 10.578125 C 2.597656 10.519531 2.640625 10.460938 2.695312 10.402344 C 2.75 10.347656 2.8125 10.289062 2.890625 10.226562 C 2.957031 10.175781 3.015625 10.128906 3.0625 10.085938 C 3.109375 10.042969 3.144531 10.003906 3.175781 9.960938 C 3.203125 9.921875 3.222656 9.878906 3.238281 9.835938 C 3.25 9.789062 3.257812 9.738281 3.257812 9.679688 C 3.257812 9.585938 3.226562 9.511719 3.164062 9.453125 C 3.101562 9.394531 3.007812 9.363281 2.882812 9.363281 C 2.769531 9.363281 2.652344 9.386719 2.523438 9.433594 C 2.398438 9.480469 2.265625 9.535156 2.128906 9.605469 L 1.886719 9.074219 C 1.953125 9.03125 2.027344 8.996094 2.109375 8.960938 C 2.191406 8.921875 2.273438 8.890625 2.363281 8.863281 C 2.449219 8.835938 2.539062 8.8125 2.628906 8.796875 C 2.71875 8.78125 2.804688 8.773438 2.890625 8.773438 C 3.054688 8.773438 3.203125 8.792969 3.332031 8.832031 C 3.464844 8.871094 3.574219 8.929688 3.664062 9.003906 C 3.757812 9.078125 3.828125 9.171875 3.875 9.277344 C 3.925781 9.386719 3.949219 9.507812 3.949219 9.644531 C 3.949219 9.746094 3.9375 9.835938 3.914062 9.914062 C 3.894531 9.992188 3.859375 10.066406 3.816406 10.136719 C 3.773438 10.203125 3.71875 10.269531 3.652344 10.332031 C 3.585938 10.394531 3.507812 10.460938 3.417969 10.53125 C 3.351562 10.585938 3.296875 10.632812 3.253906 10.671875 C 3.210938 10.710938 3.179688 10.746094 3.15625 10.78125 C 3.132812 10.816406 3.113281 10.855469 3.105469 10.890625 C 3.097656 10.929688 3.09375 11.171875 3.09375 11.121094 L 3.09375 11.09375 Z M 0 10.585938 C 0 9.015625 1.277344 7.738281 2.847656 7.738281 C 4.417969 7.738281 5.695312 9.015625 5.695312 10.585938 C 5.695312 12.15625 4.417969 13.433594 2.847656 13.433594 C 1.277344 13.433594 0 12.15625 0 10.585938 Z M 0 10.585938 "/>
</g>
</svg>
