
<svg xmlns="http://www.w3.org/2000/svg" xmlns:xlink="http://www.w3.org/1999/xlink" width="16px" height="16px" viewBox="0 0 16 16" version="1.1">
<g id="surface1">
<path style=" stroke:none;fill-rule:nonzero;fill:#ff6666;fill-opacity:1;" d="M 10.398438 0.0078125 C 10.398438 0.0078125 9.910156 0.03125 9.289062 0.300781 C 8.667969 0.566406 7.820312 1.066406 6.839844 2.050781 C 4.875 4.011719 4.214844 6.035156 4.214844 6.035156 C 4.101562 6.253906 4.128906 6.515625 4.28125 6.707031 C 4.4375 6.898438 4.6875 6.980469 4.925781 6.921875 C 5.160156 6.859375 5.339844 6.664062 5.382812 6.425781 C 5.382812 6.425781 5.964844 4.714844 7.734375 2.945312 C 8.617188 2.058594 9.328125 1.628906 9.792969 1.425781 C 10.097656 1.300781 10.101562 1.324219 10.183594 1.3125 L 10.902344 2.03125 C 9.640625 3.003906 8.4375 4.054688 7.304688 5.179688 C 4.667969 7.816406 2.214844 11.148438 2.214844 11.148438 L 4.855469 13.789062 C 4.855469 13.789062 8.183594 11.335938 10.824219 8.699219 C 13.464844 6.058594 15.160156 3.488281 15.160156 3.488281 L 12.515625 0.84375 C 12.515625 0.84375 12.28125 1.023438 11.933594 1.273438 L 10.84375 0.183594 C 10.726562 0.0664062 10.5625 0.00390625 10.398438 0.0078125 Z M 14.535156 0.0078125 C 14.140625 0.0507812 13.675781 0.25 13.078125 0.53125 L 15.46875 2.925781 C 16.039062 1.734375 16.246094 1.074219 15.585938 0.414062 C 15.257812 0.0898438 14.933594 -0.0351562 14.535156 0.0078125 Z M 1.785156 11.574219 C 0.960938 12.949219 0.71875 14.089844 0.65625 14.742188 L 0.132812 15.25 C 0.0507812 15.332031 0.00390625 15.441406 0.00390625 15.558594 C 0.00390625 15.675781 0.0507812 15.789062 0.132812 15.871094 C 0.214844 15.953125 0.328125 16 0.445312 16 C 0.5625 16 0.671875 15.953125 0.753906 15.871094 L 1.28125 15.347656 C 1.9375 15.28125 3.066406 15.035156 4.429688 14.21875 Z M 1.785156 11.574219 "/>
</g>
</svg>
