
<svg xmlns="http://www.w3.org/2000/svg" xmlns:xlink="http://www.w3.org/1999/xlink" width="16px" height="16px" viewBox="0 0 16 16" version="1.1">
<g id="surface1">
<path style=" stroke:none;fill-rule:nonzero;fill:#ff6666;fill-opacity:1;" d="M 5.460938 0.25 C 5.265625 0.25 5.078125 0.328125 4.9375 0.46875 L 2.726562 2.679688 C 2.585938 2.816406 2.507812 3.007812 2.507812 3.203125 C 2.507812 3.398438 2.585938 3.585938 2.726562 3.726562 C 3.011719 4.011719 3.480469 4.011719 3.765625 3.726562 L 4.722656 2.769531 L 4.722656 10.242188 C 4.722656 10.242188 4.722656 10.246094 4.722656 10.246094 C 4.722656 10.34375 4.742188 10.4375 4.78125 10.527344 C 4.941406 12.183594 6.363281 13.535156 8.042969 13.535156 C 9.820312 13.535156 11.363281 12.035156 11.363281 10.246094 C 11.363281 9.351562 10.953125 8.535156 10.355469 7.929688 C 9.757812 7.320312 8.945312 6.890625 8.042969 6.890625 C 7.34375 6.890625 6.730469 7.195312 6.195312 7.59375 L 6.195312 0.988281 C 6.199219 0.582031 5.867188 0.253906 5.460938 0.25 Z M 7.601562 4.695312 C 7.40625 4.710938 7.226562 4.804688 7.101562 4.953125 C 6.972656 5.101562 6.910156 5.292969 6.925781 5.492188 C 6.941406 5.6875 7.035156 5.867188 7.183594 5.992188 C 7.332031 6.121094 7.523438 6.183594 7.71875 6.167969 C 9.472656 6.027344 11.105469 7.023438 11.785156 8.640625 C 12.46875 10.261719 12.03125 12.128906 10.707031 13.28125 C 9.382812 14.429688 7.476562 14.601562 5.96875 13.703125 C 4.457031 12.804688 3.699219 11.046875 4.078125 9.335938 C 4.167969 8.9375 3.917969 8.542969 3.519531 8.453125 C 3.121094 8.363281 2.726562 8.617188 2.640625 9.015625 C 2.121094 11.34375 3.160156 13.75 5.210938 14.972656 C 7.261719 16.195312 9.875 15.960938 11.675781 14.390625 C 13.476562 12.824219 14.074219 10.273438 13.148438 8.070312 C 12.222656 5.867188 9.984375 4.503906 7.601562 4.695312 Z M 8.042969 8.367188 C 8.457031 8.367188 8.9375 8.59375 9.304688 8.960938 C 9.667969 9.332031 9.890625 9.824219 9.890625 10.246094 C 9.890625 11.085938 8.894531 12.0625 8.042969 12.0625 C 7.1875 12.0625 6.195312 11.085938 6.195312 10.246094 C 6.195312 9.824219 6.421875 9.332031 6.785156 8.960938 C 7.148438 8.59375 7.628906 8.367188 8.042969 8.367188 Z M 8.042969 8.367188 "/>
</g>
</svg>
