
<svg xmlns="http://www.w3.org/2000/svg" xmlns:xlink="http://www.w3.org/1999/xlink" width="16px" height="16px" viewBox="0 0 16 16" version="1.1">
<g id="surface1">
<path style=" stroke:none;fill-rule:evenodd;fill:#ff6666;fill-opacity:1;" d="M 6.277344 12.605469 L 5.007812 15.425781 C 4.953125 15.542969 4.953125 15.6875 5.007812 15.808594 C 5.058594 15.925781 5.15625 16 5.265625 16 L 10.734375 16 C 10.84375 16 10.941406 15.925781 10.992188 15.808594 C 11.046875 15.6875 11.046875 15.542969 10.992188 15.425781 L 9.722656 12.605469 C 10.472656 13.007812 11.328125 13.253906 12.304688 13.242188 C 13.472656 13.207031 14.636719 12.699219 15.25 11.828125 C 16.183594 10.503906 15.738281 8.765625 13.898438 6.160156 C 12.71875 4.488281 8.578125 0.175781 8 0 C 7.421875 0.175781 3.28125 4.488281 2.101562 6.160156 C 0.261719 8.765625 -0.183594 10.503906 0.75 11.828125 C 1.363281 12.699219 2.527344 13.207031 3.695312 13.242188 C 4.671875 13.253906 5.527344 13.007812 6.277344 12.605469 Z M 4.46875 4.855469 L 4.46875 11.453125 L 5.992188 11.453125 L 5.992188 6.964844 L 7.015625 8.09375 L 8.019531 9.097656 L 9.027344 8.09375 L 10.050781 6.964844 L 10.050781 11.453125 L 11.574219 11.453125 L 11.574219 4.855469 L 10.050781 4.855469 L 8.019531 6.984375 L 5.992188 4.855469 Z M 4.46875 4.855469 "/>
</g>
</svg>
