
<svg xmlns="http://www.w3.org/2000/svg" xmlns:xlink="http://www.w3.org/1999/xlink" width="16px" height="16px" viewBox="0 0 16 16" version="1.1">
<g id="surface1">
<path style=" stroke:none;fill-rule:nonzero;fill:#ff6666;fill-opacity:1;" d="M 4.296875 0.5 C 3.683594 0.5 3.132812 0.511719 2.644531 0.539062 C 2.402344 0.554688 2.171875 0.574219 1.957031 0.597656 C 1.878906 0.605469 1.816406 0.617188 1.746094 0.628906 C 1.644531 1.191406 1.519531 1.960938 1.453125 2.476562 C 1.398438 2.910156 1.351562 3.332031 1.3125 3.742188 C 1.277344 4.148438 1.246094 4.542969 1.230469 4.921875 C 1.210938 5.300781 1.199219 5.667969 1.199219 6.019531 C 1.199219 6.367188 1.207031 6.703125 1.226562 7.023438 C 1.246094 7.339844 1.269531 7.644531 1.308594 7.929688 C 1.34375 8.21875 1.390625 8.488281 1.445312 8.742188 C 1.5 8.996094 1.5625 9.234375 1.632812 9.453125 C 1.707031 9.671875 1.789062 9.871094 1.878906 10.054688 C 1.941406 10.175781 2.003906 10.292969 2.074219 10.410156 C 2.144531 10.523438 2.21875 10.636719 2.296875 10.742188 C 2.375 10.851562 2.457031 10.953125 2.542969 11.054688 C 2.632812 11.15625 2.722656 11.253906 2.820312 11.34375 C 2.914062 11.4375 3.015625 11.527344 3.117188 11.613281 C 3.222656 11.699219 3.328125 11.777344 3.441406 11.855469 C 3.664062 12.011719 3.902344 12.148438 4.15625 12.269531 C 4.292969 12.335938 4.425781 12.390625 4.550781 12.4375 C 4.679688 12.484375 4.800781 12.523438 4.925781 12.550781 C 5.050781 12.582031 5.175781 12.601562 5.304688 12.617188 C 5.433594 12.632812 5.566406 12.640625 5.707031 12.640625 C 5.894531 12.640625 6.066406 12.632812 6.238281 12.613281 C 6.40625 12.59375 6.570312 12.566406 6.738281 12.519531 C 6.910156 12.476562 7.082031 12.421875 7.265625 12.347656 C 7.453125 12.277344 7.648438 12.1875 7.867188 12.082031 C 8.125 11.957031 8.316406 11.851562 8.496094 11.722656 C 8.675781 11.59375 8.84375 11.445312 9.058594 11.230469 C 9.214844 11.078125 9.355469 10.917969 9.472656 10.757812 C 9.589844 10.59375 9.691406 10.429688 9.773438 10.261719 C 9.851562 10.09375 9.914062 9.925781 9.953125 9.753906 C 9.996094 9.585938 10.015625 9.414062 10.015625 9.242188 C 10.015625 9.097656 10 8.953125 9.972656 8.804688 C 9.941406 8.660156 9.898438 8.511719 9.84375 8.367188 C 9.789062 8.21875 9.726562 8.078125 9.648438 7.9375 C 9.574219 7.800781 9.488281 7.664062 9.394531 7.539062 C 9.300781 7.410156 9.199219 7.289062 9.089844 7.179688 C 8.980469 7.070312 8.867188 6.96875 8.75 6.878906 C 8.632812 6.792969 8.507812 6.714844 8.382812 6.652344 C 8.257812 6.589844 8.132812 6.542969 8.003906 6.515625 C 7.925781 6.496094 7.832031 6.480469 7.730469 6.472656 C 7.628906 6.464844 7.515625 6.460938 7.40625 6.460938 C 7.296875 6.460938 7.1875 6.464844 7.085938 6.472656 C 6.988281 6.484375 6.898438 6.496094 6.828125 6.515625 C 6.710938 6.546875 6.605469 6.582031 6.515625 6.625 C 6.429688 6.667969 6.355469 6.714844 6.296875 6.769531 C 6.238281 6.820312 6.195312 6.878906 6.164062 6.941406 C 6.136719 7.003906 6.121094 7.066406 6.125 7.136719 C 6.125 7.203125 6.140625 7.277344 6.171875 7.347656 C 6.203125 7.421875 6.25 7.5 6.3125 7.574219 C 6.371094 7.652344 6.449219 7.730469 6.539062 7.808594 C 6.628906 7.886719 6.734375 7.96875 6.855469 8.046875 C 6.9375 8.101562 7.019531 8.160156 7.097656 8.226562 C 7.175781 8.292969 7.25 8.359375 7.316406 8.429688 C 7.382812 8.496094 7.4375 8.5625 7.484375 8.625 C 7.527344 8.6875 7.558594 8.742188 7.570312 8.789062 C 7.59375 8.859375 7.601562 8.902344 7.59375 8.949219 C 7.585938 8.996094 7.558594 9.050781 7.511719 9.148438 C 7.480469 9.210938 7.441406 9.269531 7.394531 9.324219 C 7.347656 9.378906 7.292969 9.429688 7.234375 9.480469 C 7.175781 9.527344 7.109375 9.574219 7.039062 9.613281 C 6.972656 9.65625 6.898438 9.691406 6.820312 9.722656 C 6.742188 9.753906 6.664062 9.785156 6.578125 9.804688 C 6.496094 9.828125 6.414062 9.84375 6.328125 9.855469 C 6.242188 9.867188 6.15625 9.875 6.070312 9.875 C 5.984375 9.875 5.898438 9.867188 5.816406 9.855469 C 5.660156 9.832031 5.511719 9.792969 5.367188 9.738281 C 5.222656 9.683594 5.082031 9.613281 4.949219 9.53125 C 4.816406 9.449219 4.6875 9.355469 4.570312 9.25 C 4.449219 9.140625 4.339844 9.027344 4.238281 8.898438 C 4.140625 8.773438 4.046875 8.636719 3.96875 8.496094 C 3.886719 8.351562 3.816406 8.203125 3.761719 8.046875 C 3.703125 7.890625 3.65625 7.730469 3.625 7.566406 C 3.597656 7.398438 3.578125 7.230469 3.578125 7.058594 C 3.574219 6.859375 3.585938 6.699219 3.621094 6.542969 C 3.660156 6.382812 3.71875 6.226562 3.808594 6.035156 C 3.867188 5.914062 3.933594 5.792969 4.007812 5.675781 C 4.082031 5.558594 4.164062 5.441406 4.253906 5.328125 C 4.34375 5.214844 4.441406 5.105469 4.542969 5 C 4.644531 4.894531 4.753906 4.789062 4.867188 4.691406 C 4.980469 4.59375 5.097656 4.5 5.21875 4.414062 C 5.339844 4.324219 5.464844 4.242188 5.59375 4.167969 C 5.71875 4.09375 5.851562 4.023438 5.984375 3.960938 C 6.113281 3.898438 6.25 3.847656 6.382812 3.800781 C 6.53125 3.75 6.6875 3.707031 6.84375 3.675781 C 7.003906 3.648438 7.167969 3.625 7.335938 3.613281 C 7.503906 3.601562 7.671875 3.601562 7.84375 3.609375 C 8.015625 3.613281 8.1875 3.632812 8.363281 3.65625 C 8.535156 3.683594 8.707031 3.71875 8.878906 3.761719 C 9.046875 3.804688 9.214844 3.859375 9.382812 3.917969 C 9.546875 3.980469 9.707031 4.050781 9.863281 4.125 C 10.019531 4.203125 10.171875 4.292969 10.316406 4.386719 C 10.488281 4.496094 10.648438 4.617188 10.796875 4.742188 C 10.945312 4.867188 11.078125 5.003906 11.203125 5.148438 C 11.328125 5.289062 11.441406 5.445312 11.542969 5.609375 C 11.644531 5.773438 11.738281 5.949219 11.820312 6.140625 C 11.902344 6.328125 11.972656 6.53125 12.039062 6.75 C 12.101562 6.964844 12.15625 7.199219 12.203125 7.449219 C 12.25 7.695312 12.289062 7.964844 12.320312 8.246094 C 12.351562 8.53125 12.375 8.835938 12.390625 9.160156 C 12.414062 9.578125 12.414062 10.050781 12.402344 10.554688 C 12.386719 11.0625 12.351562 11.601562 12.304688 12.152344 C 12.257812 12.707031 12.191406 13.277344 12.113281 13.839844 C 12.035156 14.40625 11.945312 14.964844 11.839844 15.5 C 11.976562 15.480469 12.113281 15.464844 12.234375 15.441406 C 12.992188 15.300781 13.539062 15.058594 13.933594 14.664062 C 14.722656 13.878906 14.894531 12.476562 14.894531 10.027344 L 14.894531 6.101562 C 14.894531 2.730469 14.566406 1.347656 12.761719 0.8125 C 12.597656 0.761719 12.421875 0.722656 12.234375 0.6875 C 12.046875 0.652344 11.84375 0.621094 11.628906 0.597656 C 11.414062 0.574219 11.183594 0.554688 10.9375 0.539062 C 10.449219 0.511719 9.902344 0.5 9.289062 0.5 Z M 4.296875 0.5 "/>
</g>
</svg>
