
<svg xmlns="http://www.w3.org/2000/svg" xmlns:xlink="http://www.w3.org/1999/xlink" width="16px" height="16px" viewBox="0 0 16 16" version="1.1">
<g id="surface1">
<path style=" stroke:none;fill-rule:nonzero;fill:#ff6666;fill-opacity:1;" d="M 3.761719 2.238281 C 3.109375 2.261719 2.476562 2.5625 1.996094 3.019531 C 1.503906 3.484375 1.152344 4.121094 1.082031 4.808594 C 1.042969 5.148438 1.078125 5.5 1.1875 5.828125 C 1.296875 6.152344 1.484375 6.453125 1.730469 6.683594 C 2.019531 6.957031 2.382812 7.128906 2.714844 7.34375 C 2.882812 7.449219 3.042969 7.570312 3.179688 7.714844 C 3.316406 7.855469 3.433594 8.027344 3.496094 8.222656 C 3.550781 8.394531 3.566406 8.578125 3.539062 8.753906 C 3.515625 8.933594 3.449219 9.109375 3.359375 9.261719 C 3.171875 9.566406 2.871094 9.789062 2.542969 9.910156 C 2.164062 10.046875 1.742188 10.054688 1.375 10.226562 C 1.082031 10.367188 0.839844 10.605469 0.6875 10.898438 C 0.535156 11.1875 0.472656 11.609375 0.511719 11.9375 C 0.554688 12.324219 0.734375 12.695312 1 12.96875 C 1.269531 13.242188 1.625 13.417969 1.996094 13.480469 C 2.539062 13.566406 3.308594 13.382812 3.703125 12.984375 C 3.902344 12.789062 4.050781 12.539062 4.136719 12.265625 C 4.21875 11.992188 4.238281 11.625 4.183594 11.34375 C 4.140625 11.128906 4.058594 10.925781 3.984375 10.722656 C 3.90625 10.519531 3.835938 10.308594 3.816406 10.09375 C 3.785156 9.707031 3.738281 9.316406 3.984375 9.027344 C 4.230469 8.738281 4.574219 8.359375 4.9375 8.277344 C 5.167969 8.222656 5.414062 8.207031 5.648438 8.25 C 5.886719 8.292969 6.113281 8.386719 6.304688 8.535156 C 6.496094 8.6875 6.648438 9.078125 6.734375 9.3125 C 6.820312 9.542969 6.835938 9.804688 6.765625 10.042969 C 6.699219 10.289062 6.359375 10.5 6.210938 10.699219 C 6.058594 10.902344 5.898438 11.105469 5.808594 11.339844 C 5.710938 11.601562 5.703125 11.898438 5.769531 12.171875 C 5.835938 12.441406 5.980469 12.691406 6.167969 12.894531 C 6.375 13.117188 6.828125 13.285156 7.113281 13.375 C 7.398438 13.46875 7.691406 13.484375 7.988281 13.484375 C 8.289062 13.484375 8.601562 13.46875 8.886719 13.375 C 9.171875 13.285156 9.625 13.117188 9.832031 12.894531 C 10.019531 12.691406 10.164062 12.441406 10.230469 12.171875 C 10.296875 11.898438 10.289062 11.601562 10.191406 11.339844 C 10.101562 11.105469 9.941406 10.902344 9.789062 10.699219 C 9.636719 10.5 9.304688 10.289062 9.234375 10.042969 C 9.164062 9.804688 9.179688 9.542969 9.265625 9.3125 C 9.351562 9.078125 9.503906 8.6875 9.695312 8.535156 C 9.886719 8.386719 10.113281 8.292969 10.351562 8.25 C 10.585938 8.207031 10.832031 8.21875 11.0625 8.277344 C 11.425781 8.359375 11.769531 8.738281 12.015625 9.027344 C 12.261719 9.316406 12.214844 9.707031 12.183594 10.09375 C 12.164062 10.308594 12.09375 10.519531 12.015625 10.722656 C 11.941406 10.925781 11.859375 11.128906 11.816406 11.34375 C 11.761719 11.625 11.78125 11.992188 11.863281 12.265625 C 11.949219 12.539062 12.097656 12.789062 12.296875 12.984375 C 12.691406 13.382812 13.460938 13.566406 14.003906 13.480469 C 14.378906 13.417969 14.730469 13.242188 15 12.96875 C 15.265625 12.695312 15.445312 12.324219 15.488281 11.9375 C 15.527344 11.609375 15.464844 11.1875 15.3125 10.898438 C 15.160156 10.605469 14.917969 10.367188 14.625 10.226562 C 14.257812 10.054688 13.835938 10.046875 13.457031 9.910156 C 13.128906 9.789062 12.828125 9.566406 12.640625 9.261719 C 12.550781 9.109375 12.484375 8.933594 12.460938 8.753906 C 12.433594 8.578125 12.449219 8.394531 12.503906 8.222656 C 12.566406 8.027344 12.683594 7.859375 12.820312 7.714844 C 12.957031 7.570312 13.117188 7.449219 13.285156 7.34375 C 13.617188 7.128906 13.980469 6.957031 14.269531 6.683594 C 14.515625 6.453125 14.703125 6.152344 14.8125 5.828125 C 14.921875 5.5 14.957031 5.148438 14.921875 4.808594 C 14.847656 4.121094 14.496094 3.484375 14.003906 3.019531 C 13.523438 2.5625 12.890625 2.261719 12.238281 2.238281 C 11.914062 2.226562 11.585938 2.289062 11.285156 2.417969 C 10.984375 2.550781 10.710938 2.757812 10.5 3.019531 C 10.261719 3.320312 10.113281 3.683594 9.976562 4.042969 C 9.839844 4.40625 9.710938 4.777344 9.5 5.101562 C 9.160156 5.632812 8.617188 5.988281 8 5.988281 C 7.382812 5.988281 6.839844 5.632812 6.5 5.101562 C 6.289062 4.777344 6.160156 4.40625 6.023438 4.042969 C 5.886719 3.683594 5.738281 3.320312 5.5 3.019531 C 5.289062 2.757812 5.015625 2.550781 4.714844 2.417969 C 4.414062 2.289062 4.085938 2.230469 3.761719 2.238281 Z M 8 6.738281 C 8.414062 6.738281 8.75 7.074219 8.75 7.488281 C 8.75 7.902344 8.414062 8.238281 8 8.238281 C 7.585938 8.238281 7.25 7.902344 7.25 7.488281 C 7.25 7.074219 7.585938 6.738281 8 6.738281 Z M 8 6.738281 "/>
</g>
</svg>
