
<svg xmlns="http://www.w3.org/2000/svg" xmlns:xlink="http://www.w3.org/1999/xlink" width="16px" height="16px" viewBox="0 0 16 16" version="1.1">
<g id="surface1">
<path style=" stroke:none;fill-rule:nonzero;fill:#ff6666;fill-opacity:1;" d="M 7.339844 13.570312 C 6.894531 13.53125 6.007812 13.367188 5.628906 13.257812 C 4.808594 13.019531 4.085938 12.636719 3.492188 12.125 C 3.375 12.023438 3.230469 11.941406 3.171875 11.941406 C 3.109375 11.941406 2.542969 12.117188 1.90625 12.332031 C 1.269531 12.550781 0.71875 12.726562 0.683594 12.726562 C 0.5625 12.726562 0.472656 12.574219 0.324219 12.113281 C 0.164062 11.605469 0.152344 11.511719 0.246094 11.433594 C 0.28125 11.40625 0.734375 11.238281 1.253906 11.066406 C 1.769531 10.894531 2.199219 10.734375 2.207031 10.707031 C 2.226562 10.652344 1.496094 10.597656 0.726562 10.597656 C 0.246094 10.597656 0.21875 10.59375 0.105469 10.480469 C -0.0078125 10.367188 -0.015625 10.339844 0.0117188 10.078125 C 0.03125 9.925781 0.0429688 9.691406 0.0429688 9.554688 C 0.0429688 9.15625 0.046875 9.15625 1.078125 9.175781 L 1.960938 9.1875 L 2.015625 8.792969 C 2.085938 8.335938 2.234375 7.914062 2.464844 7.53125 C 2.589844 7.332031 2.625 7.226562 2.609375 7.117188 C 2.390625 5.546875 2.359375 4.742188 2.472656 3.582031 C 2.5625 2.644531 2.707031 2.402344 3.179688 2.402344 C 3.671875 2.402344 4.542969 3.027344 5.886719 4.347656 L 6.5625 5.011719 L 7.007812 4.960938 C 7.566406 4.898438 8.292969 4.898438 9 4.960938 L 9.546875 5.007812 L 10.320312 4.273438 C 11.34375 3.300781 11.765625 2.945312 12.226562 2.671875 C 12.554688 2.476562 12.652344 2.4375 12.894531 2.421875 C 13.164062 2.40625 13.191406 2.414062 13.324219 2.546875 C 13.589844 2.8125 13.707031 3.429688 13.707031 4.609375 C 13.707031 5.320312 13.695312 5.496094 13.566406 6.652344 L 13.507812 7.167969 L 13.707031 7.472656 C 13.960938 7.859375 14.117188 8.292969 14.191406 8.796875 L 14.246094 9.1875 L 15.007812 9.171875 C 15.621094 9.160156 15.789062 9.171875 15.859375 9.222656 C 15.933594 9.28125 15.953125 9.378906 15.984375 9.835938 C 16.007812 10.15625 16.003906 10.414062 15.980469 10.460938 C 15.929688 10.554688 15.707031 10.597656 15.285156 10.597656 C 15.117188 10.597656 14.746094 10.613281 14.460938 10.628906 C 13.710938 10.671875 13.757812 10.730469 14.84375 11.09375 C 15.324219 11.253906 15.753906 11.414062 15.789062 11.453125 C 15.855469 11.519531 15.855469 11.554688 15.78125 11.824219 C 15.671875 12.253906 15.507812 12.640625 15.410156 12.699219 C 15.34375 12.738281 15.101562 12.671875 14.207031 12.367188 C 13.589844 12.15625 13.042969 11.984375 12.996094 11.984375 C 12.945312 11.984375 12.71875 12.128906 12.484375 12.304688 C 11.59375 12.984375 10.46875 13.410156 9.191406 13.554688 C 8.800781 13.601562 7.746094 13.609375 7.339844 13.570312 Z M 5.714844 9.542969 C 5.917969 9.425781 6.03125 9.242188 6.054688 8.992188 C 6.09375 8.585938 5.890625 8.308594 5.472656 8.199219 C 5.304688 8.152344 5.246094 8.15625 5.078125 8.230469 C 4.558594 8.460938 4.429688 9.054688 4.820312 9.441406 C 5.058594 9.679688 5.40625 9.71875 5.714844 9.542969 Z M 11.035156 9.625 C 11.363281 9.535156 11.625 9.195312 11.625 8.863281 C 11.625 8.6875 11.4375 8.398438 11.265625 8.300781 C 10.984375 8.148438 10.835938 8.140625 10.566406 8.265625 C 10.269531 8.402344 10.144531 8.59375 10.140625 8.902344 C 10.140625 9.230469 10.320312 9.507812 10.605469 9.621094 C 10.757812 9.683594 10.824219 9.683594 11.035156 9.625 Z M 11.035156 9.625 "/>
</g>
</svg>
