
<svg xmlns="http://www.w3.org/2000/svg" xmlns:xlink="http://www.w3.org/1999/xlink" width="16px" height="16px" viewBox="0 0 16 16" version="1.1">
<g id="surface1">
<path style=" stroke:none;fill-rule:evenodd;fill:#ff6666;fill-opacity:1;" d="M 12.597656 2.984375 L 11.992188 0.800781 C 11.871094 0.371094 11.636719 0 11.191406 0 L 9.714844 0 L 8 2.855469 L 6.285156 0 L 4.808594 0 C 4.363281 0 4.128906 0.371094 4.007812 0.800781 L 0.0195312 15.199219 C -0.101562 15.628906 0.375 16 0.816406 16 L 15.183594 16 C 15.625 16 16.101562 15.628906 15.980469 15.199219 L 13.214844 5.222656 L 13.882812 4.070312 C 14.109375 3.679688 13.972656 3.175781 13.578125 2.945312 L 13.523438 2.914062 C 13.222656 2.738281 12.851562 2.777344 12.597656 2.984375 Z M 8.304688 10.304688 C 8.203125 10.292969 8.101562 10.285156 8 10.285156 C 6.738281 10.285156 5.714844 11.308594 5.714844 12.570312 C 5.714844 13.832031 6.738281 14.855469 8 14.855469 C 9.261719 14.855469 10.285156 13.832031 10.285156 12.570312 C 10.285156 12.035156 10.101562 11.542969 9.792969 11.152344 L 8.710938 13.027344 C 8.484375 13.421875 7.980469 13.554688 7.585938 13.328125 L 7.53125 13.296875 C 7.136719 13.066406 7 12.5625 7.226562 12.171875 Z M 8.304688 10.304688 "/>
</g>
</svg>
