
<svg xmlns="http://www.w3.org/2000/svg" xmlns:xlink="http://www.w3.org/1999/xlink" width="16px" height="16px" viewBox="0 0 16 16" version="1.1">
<g id="surface1">
<path style=" stroke:none;fill-rule:nonzero;fill:#ff6666;fill-opacity:1;" d="M 6.328125 0.0117188 L 3.941406 1.011719 C 3.859375 1.046875 3.8125 1.125 3.84375 1.203125 L 4.113281 1.839844 C 4.148438 1.921875 4.226562 1.953125 4.308594 1.917969 L 4.847656 1.707031 L 5 2.109375 L 4.769531 2.207031 C 4.394531 2.355469 4.390625 2.371094 4.539062 2.746094 L 5.136719 4.191406 L 4.636719 4.382812 C 3.066406 5.023438 2.304688 6.824219 2.941406 8.390625 L 3.554688 9.894531 C 4.003906 9.460938 4.585938 9.183594 5.253906 9.179688 L 4.652344 7.695312 C 4.402344 7.070312 4.703125 6.355469 5.328125 6.097656 L 5.828125 5.90625 L 6.097656 6.539062 L 8.816406 5.441406 L 7.273438 1.628906 C 7.125 1.25 7.128906 1.246094 6.753906 1.398438 L 6.464844 1.511719 L 6.3125 1.109375 L 6.714844 0.933594 C 6.796875 0.902344 6.828125 0.804688 6.792969 0.722656 L 6.542969 0.105469 C 6.507812 0.0273438 6.410156 -0.0234375 6.328125 0.0117188 Z M 9.199219 6.40625 L 6.464844 7.503906 L 6.792969 8.3125 L 7.757812 8.71875 L 9.105469 8.160156 L 9.527344 7.214844 Z M 11.800781 8.507812 C 11.742188 8.515625 11.683594 8.535156 11.628906 8.5625 L 6.714844 10.546875 C 6.375 10.121094 5.859375 9.835938 5.269531 9.835938 C 4.25 9.835938 3.421875 10.664062 3.421875 11.683594 C 3.425781 12.601562 4.09375 13.378906 5 13.515625 C 5.015625 13.546875 5.027344 13.578125 5.039062 13.609375 C 5.230469 14.078125 5.53125 14.460938 5.886719 14.765625 L 4.039062 14.765625 C 3.695312 14.765625 3.421875 15.042969 3.421875 15.382812 L 3.421875 16 L 13.285156 16 L 13.285156 15.382812 C 13.285156 15.039062 13.011719 14.765625 12.667969 14.765625 L 10.414062 14.765625 L 12.300781 14.035156 C 12.777344 13.851562 13.027344 13.316406 12.839844 12.839844 C 12.753906 12.613281 12.578125 12.429688 12.351562 12.332031 C 12.128906 12.234375 11.875 12.230469 11.648438 12.320312 L 8.351562 13.59375 C 7.726562 13.847656 7.011719 13.542969 6.753906 12.917969 C 6.746094 12.894531 6.726562 12.851562 6.714844 12.820312 C 6.972656 12.503906 7.113281 12.109375 7.121094 11.703125 L 12.089844 9.699219 C 12.371094 9.59375 12.539062 9.300781 12.480469 9.003906 C 12.421875 8.707031 12.160156 8.496094 11.859375 8.507812 Z M 5.269531 11.066406 C 5.609375 11.066406 5.886719 11.347656 5.886719 11.683594 C 5.886719 12.023438 5.609375 12.300781 5.269531 12.300781 C 4.933594 12.300781 4.652344 12.023438 4.652344 11.683594 C 4.652344 11.347656 4.933594 11.066406 5.269531 11.066406 Z M 5.269531 11.066406 "/>
</g>
</svg>
