
<svg xmlns="http://www.w3.org/2000/svg" xmlns:xlink="http://www.w3.org/1999/xlink" width="16px" height="16px" viewBox="0 0 16 16" version="1.1">
<g id="surface1">
<path style=" stroke:none;fill-rule:nonzero;fill:#ff6666;fill-opacity:1;" d="M 6.039062 0 C 5.679688 0 5.386719 0.292969 5.386719 0.652344 L 5.386719 1.304688 C 5.386719 1.664062 5.679688 1.960938 6.039062 1.960938 L 9.960938 1.960938 C 10.320312 1.960938 10.613281 1.664062 10.613281 1.304688 L 10.613281 0.652344 C 10.613281 0.292969 10.320312 0 9.960938 0 Z M 5.765625 2.582031 C 5.035156 3.941406 4.40625 6.363281 4.40625 7.121094 L 4.40625 14.367188 C 4.40625 15.269531 5.140625 16 6.039062 16 L 9.960938 16 C 10.859375 16 11.59375 15.269531 11.59375 14.367188 L 11.59375 7.121094 C 11.59375 6.363281 10.96875 3.941406 10.234375 2.582031 C 10.148438 2.601562 10.050781 2.613281 9.960938 2.613281 L 6.039062 2.613281 C 5.945312 2.613281 5.855469 2.601562 5.765625 2.582031 Z M 5.765625 2.582031 "/>
</g>
</svg>
