
<svg xmlns="http://www.w3.org/2000/svg" xmlns:xlink="http://www.w3.org/1999/xlink" width="16px" height="16px" viewBox="0 0 16 16" version="1.1">
<g id="surface1">
<path style=" stroke:none;fill-rule:evenodd;fill:#ff6666;fill-opacity:1;" d="M 4.113281 10.027344 C 3.949219 10.050781 3.785156 10.0625 3.613281 10.0625 C 1.640625 10.0625 0.0351562 8.460938 0.0351562 6.484375 C 0.0351562 4.851562 1.136719 3.472656 2.632812 3.046875 C 3.0625 1.386719 4.570312 0.15625 6.367188 0.15625 C 7.710938 0.15625 8.894531 0.847656 9.582031 1.890625 C 10 1.496094 10.5625 1.257812 11.183594 1.257812 C 12.132812 1.257812 12.953125 1.824219 13.316406 2.640625 C 14.816406 2.746094 16 3.996094 16 5.523438 C 16 6.5625 15.449219 7.476562 14.625 7.984375 C 14.625 7.988281 14.625 7.996094 14.625 8 C 14.625 9.59375 13.328125 10.890625 11.734375 10.890625 C 11.269531 10.890625 10.828125 10.78125 10.441406 10.585938 C 9.734375 11.445312 8.664062 11.992188 7.46875 11.992188 C 6.027344 11.992188 4.773438 11.199219 4.113281 10.027344 Z M 8.84375 13.367188 C 8.84375 12.605469 9.460938 11.992188 10.21875 11.992188 C 10.980469 11.992188 11.597656 12.605469 11.597656 13.367188 C 11.597656 14.125 10.980469 14.742188 10.21875 14.742188 C 9.460938 14.742188 8.84375 14.125 8.84375 13.367188 Z M 4.992188 14.46875 C 4.992188 13.859375 5.484375 13.367188 6.09375 13.367188 C 6.699219 13.367188 7.191406 13.859375 7.191406 14.46875 C 7.191406 15.074219 6.699219 15.570312 6.09375 15.570312 C 5.484375 15.570312 4.992188 15.074219 4.992188 14.46875 Z M 7.039062 5.386719 L 8.808594 3.921875 C 8.808594 3.714844 8.808594 3.527344 8.808594 3.398438 C 8.808594 3.28125 8.890625 3.183594 8.992188 3.183594 C 9.671875 3.183594 11.523438 3.183594 12.199219 3.183594 C 12.304688 3.183594 12.386719 3.28125 12.386719 3.398438 C 12.386719 3.796875 12.386719 4.773438 12.386719 5.167969 C 12.386719 5.289062 12.304688 5.386719 12.199219 5.386719 C 11.523438 5.386719 9.671875 5.386719 8.992188 5.386719 C 8.890625 5.386719 8.808594 5.289062 8.808594 5.167969 C 8.808594 5.011719 8.808594 4.761719 8.808594 4.492188 L 7.484375 5.589844 C 7.496094 5.617188 7.5 5.644531 7.5 5.675781 C 7.5 6.058594 7.5 6.914062 7.5 7.296875 C 7.5 7.328125 7.496094 7.355469 7.484375 7.386719 L 8.808594 8.480469 C 8.808594 8.210938 8.808594 7.960938 8.808594 7.804688 C 8.808594 7.683594 8.890625 7.585938 8.992188 7.585938 C 9.671875 7.585938 11.523438 7.585938 12.199219 7.585938 C 12.304688 7.585938 12.386719 7.683594 12.386719 7.804688 C 12.386719 8.199219 12.386719 9.175781 12.386719 9.574219 C 12.386719 9.691406 12.304688 9.789062 12.199219 9.789062 C 11.523438 9.789062 9.671875 9.789062 8.992188 9.789062 C 8.890625 9.789062 8.808594 9.691406 8.808594 9.574219 C 8.808594 9.445312 8.808594 9.257812 8.808594 9.050781 L 7.039062 7.585938 C 5.929688 7.585938 3.472656 7.585938 2.539062 7.585938 C 2.390625 7.585938 2.269531 7.457031 2.269531 7.296875 C 2.269531 6.914062 2.269531 6.058594 2.269531 5.675781 C 2.269531 5.515625 2.390625 5.386719 2.539062 5.386719 C 3.472656 5.386719 5.929688 5.386719 7.039062 5.386719 Z M 7.039062 5.386719 "/>
</g>
</svg>
