
<svg xmlns="http://www.w3.org/2000/svg" xmlns:xlink="http://www.w3.org/1999/xlink" width="16px" height="16px" viewBox="0 0 16 16" version="1.1">
<g id="surface1">
<path style=" stroke:none;fill-rule:evenodd;fill:#ff6666;fill-opacity:1;" d="M 9.601562 11.324219 L 9.601562 14.800781 L 8 16 L 6.398438 14.800781 L 6.398438 11.324219 L 3.109375 9.5 C 2.671875 9.257812 2.398438 8.804688 2.398438 8.316406 L 2.398438 3.683594 C 2.398438 3.195312 2.671875 2.742188 3.109375 2.5 L 7.289062 0.183594 C 7.515625 0.0585938 7.773438 -0.0078125 8.035156 0 C 8.269531 0.0078125 8.503906 0.0664062 8.710938 0.183594 L 12.890625 2.5 C 13.328125 2.742188 13.601562 3.195312 13.601562 3.683594 L 13.601562 8.316406 C 13.601562 8.804688 13.328125 9.257812 12.890625 9.5 Z M 9.601562 11.324219 "/>
</g>
</svg>
