
<svg xmlns="http://www.w3.org/2000/svg" xmlns:xlink="http://www.w3.org/1999/xlink" width="16px" height="16px" viewBox="0 0 16 16" version="1.1">
<g id="surface1">
<path style=" stroke:none;fill-rule:evenodd;fill:#ff6666;fill-opacity:1;" d="M 0 1.03125 L 0 5.160156 L 2.066406 5.160156 L 2.066406 9.855469 C 2.066406 12.6875 4.347656 14.96875 7.175781 14.96875 L 16 14.96875 L 16 6.144531 C 16 3.3125 13.71875 1.03125 10.886719 1.03125 Z M 1.03125 2.066406 L 1.03125 4.128906 L 2.066406 4.128906 C 2.605469 4.128906 3.097656 4.621094 3.097656 5.160156 L 3.097656 9.855469 C 3.097656 12.132812 4.902344 13.933594 7.175781 13.933594 L 14.96875 13.933594 L 14.96875 6.144531 C 14.96875 3.867188 13.164062 2.066406 10.886719 2.066406 Z M 1.03125 2.066406 "/>
<path style=" stroke:none;fill-rule:nonzero;fill:#ff6666;fill-opacity:1;" d="M 4.644531 3.097656 L 4.644531 10.324219 C 4.644531 11.464844 5.566406 12.386719 6.710938 12.386719 L 11.355469 12.386719 C 12.5 12.386719 13.417969 11.464844 13.417969 10.324219 L 13.417969 6.453125 C 13.417969 5.453125 12.609375 4.644531 11.613281 4.644531 C 11.105469 4.644531 10.652344 4.855469 10.324219 5.195312 C 9.996094 4.855469 9.539062 4.644531 9.03125 4.644531 C 8.035156 4.644531 7.226562 5.453125 7.226562 6.453125 L 7.226562 9.546875 L 8.257812 9.546875 L 8.257812 6.453125 C 8.257812 6.023438 8.605469 5.675781 9.03125 5.675781 C 9.460938 5.675781 9.804688 6.023438 9.804688 6.453125 L 9.804688 9.546875 L 10.839844 9.546875 L 10.839844 6.453125 C 10.839844 6.023438 11.183594 5.675781 11.613281 5.675781 C 12.039062 5.675781 12.386719 6.023438 12.386719 6.453125 L 12.386719 10.324219 C 12.386719 10.894531 11.925781 11.355469 11.355469 11.355469 L 6.710938 11.355469 C 6.136719 11.355469 5.675781 10.894531 5.675781 10.324219 L 5.675781 3.097656 Z M 4.644531 3.097656 "/>
</g>
</svg>
