
<svg xmlns="http://www.w3.org/2000/svg" xmlns:xlink="http://www.w3.org/1999/xlink" width="16px" height="16px" viewBox="0 0 16 16" version="1.1">
<g id="surface1">
<path style=" stroke:none;fill-rule:nonzero;fill:#ff6666;fill-opacity:1;" d="M 10.214844 3.0625 C 10.035156 3.214844 9.9375 3.375 9.800781 3.464844 C 9.742188 3.507812 9.617188 3.554688 9.585938 3.636719 C 9.582031 3.648438 9.628906 3.664062 9.652344 3.652344 C 9.886719 3.574219 10.113281 3.476562 10.339844 3.382812 C 10.597656 3.277344 10.863281 3.214844 11.128906 3.152344 C 11.394531 3.089844 11.65625 3.015625 11.929688 3.003906 C 12.1875 2.996094 12.476562 3.070312 12.730469 3.007812 C 12.933594 2.957031 13.015625 2.765625 13.15625 2.636719 C 13.324219 2.476562 13.53125 2.457031 13.753906 2.488281 C 13.953125 2.519531 14.152344 2.566406 14.308594 2.40625 C 14.4375 2.28125 14.5 2.066406 14.707031 2.066406 C 14.929688 2.070312 15.140625 2.265625 15.367188 2.167969 C 15.464844 2.128906 15.539062 2.042969 15.621094 1.980469 C 15.726562 1.90625 15.839844 1.851562 15.960938 1.800781 C 15.085938 1.667969 14.199219 1.5 13.3125 1.484375 C 12.527344 1.472656 11.800781 1.660156 11.171875 2.140625 C 10.992188 2.28125 10.824219 2.433594 10.660156 2.59375 C 10.484375 2.765625 10.339844 2.972656 10.144531 3.121094 "/>
<path style=" stroke:none;fill-rule:nonzero;fill:#ff6666;fill-opacity:1;" d="M 10.109375 4.183594 C 10.339844 4.078125 10.597656 4.042969 10.84375 3.984375 C 11.101562 3.921875 11.363281 3.875 11.625 3.84375 C 12.199219 3.769531 12.785156 3.75 13.363281 3.753906 C 13.847656 3.757812 14.390625 3.773438 14.796875 4.074219 C 15.210938 4.382812 15.4375 4.90625 15.621094 5.375 C 15.792969 5.824219 15.917969 6.285156 16 6.757812 C 15.832031 6.609375 15.664062 6.457031 15.457031 6.363281 C 15.285156 6.285156 15.066406 6.277344 14.914062 6.160156 C 14.753906 6.035156 14.734375 5.816406 14.617188 5.664062 C 14.472656 5.480469 14.246094 5.523438 14.039062 5.507812 C 13.796875 5.492188 13.703125 5.347656 13.59375 5.148438 C 13.484375 4.941406 13.355469 4.828125 13.113281 4.816406 C 12.867188 4.808594 12.636719 4.835938 12.398438 4.765625 C 12.148438 4.695312 11.921875 4.570312 11.683594 4.476562 C 11.410156 4.367188 11.136719 4.328125 10.84375 4.324219 C 10.695312 4.320312 10.546875 4.320312 10.398438 4.308594 C 10.320312 4.304688 10.160156 4.324219 10.082031 4.277344 C 10.058594 4.265625 10.09375 4.183594 10.109375 4.183594 "/>
<path style=" stroke:none;fill-rule:nonzero;fill:#ff6666;fill-opacity:1;" d="M 9.480469 4.949219 C 9.570312 4.9375 9.667969 4.964844 9.757812 4.972656 C 9.847656 4.980469 9.953125 4.980469 10.046875 4.988281 C 10.136719 5 10.222656 5.035156 10.308594 5.058594 C 10.390625 5.078125 10.476562 5.089844 10.558594 5.113281 C 10.734375 5.167969 10.910156 5.238281 11.082031 5.292969 C 11.261719 5.347656 11.441406 5.378906 11.601562 5.484375 C 11.789062 5.613281 11.96875 5.71875 12.101562 5.894531 C 12.121094 5.921875 12.167969 5.9375 12.195312 5.96875 C 12.222656 6 12.25 6.039062 12.273438 6.078125 C 12.324219 6.160156 12.375 6.246094 12.433594 6.328125 C 12.535156 6.472656 12.632812 6.621094 12.734375 6.769531 C 12.933594 7.0625 13.136719 7.339844 13.261719 7.667969 C 13.328125 7.839844 13.410156 8 13.484375 8.171875 C 13.546875 8.324219 13.621094 8.484375 13.6875 8.640625 C 13.738281 8.753906 13.785156 8.878906 13.816406 9.003906 C 13.816406 9.011719 13.75 8.988281 13.742188 8.984375 C 13.714844 8.960938 13.695312 8.933594 13.675781 8.902344 C 13.652344 8.851562 13.625 8.820312 13.59375 8.804688 C 13.53125 8.769531 13.488281 8.738281 13.417969 8.714844 C 13.351562 8.695312 13.273438 8.703125 13.203125 8.699219 C 13.113281 8.6875 13.007812 8.699219 12.921875 8.675781 C 12.753906 8.632812 12.761719 8.417969 12.695312 8.289062 C 12.605469 8.121094 12.464844 8.101562 12.285156 8.089844 C 12.136719 8.082031 11.886719 8.105469 11.828125 7.941406 C 11.796875 7.863281 11.792969 7.773438 11.765625 7.691406 C 11.742188 7.625 11.691406 7.558594 11.644531 7.5 C 11.550781 7.382812 11.410156 7.285156 11.265625 7.242188 C 11.125 7.203125 10.929688 7.148438 10.871094 6.988281 C 10.84375 6.910156 10.867188 6.8125 10.84375 6.734375 C 10.820312 6.660156 10.785156 6.617188 10.75 6.558594 C 10.703125 6.484375 10.679688 6.398438 10.636719 6.324219 C 10.566406 6.207031 10.457031 6.109375 10.394531 5.984375 C 10.355469 5.910156 10.316406 5.835938 10.257812 5.765625 C 10.207031 5.707031 10.15625 5.660156 10.105469 5.597656 C 10.058594 5.542969 10.007812 5.488281 9.960938 5.429688 C 9.910156 5.367188 9.867188 5.296875 9.816406 5.230469 C 9.765625 5.167969 9.699219 5.121094 9.636719 5.074219 C 9.59375 5.066406 9.539062 5.046875 9.503906 5.027344 C 9.472656 5.011719 9.410156 4.921875 9.492188 4.945312 "/>
<path style=" stroke:none;fill-rule:nonzero;fill:#ff6666;fill-opacity:1;" d="M 7.960938 3.5 C 7.976562 3.480469 7.988281 3.460938 7.996094 3.429688 C 8.0625 3.132812 7.871094 2.84375 7.742188 2.589844 C 7.589844 2.285156 7.535156 1.871094 7.660156 1.542969 C 7.769531 1.246094 7.972656 1.019531 8.152344 0.761719 C 8.21875 0.664062 8.339844 0.539062 8.460938 0.515625 C 8.476562 0.714844 8.417969 0.878906 8.410156 1.066406 C 8.394531 1.394531 8.609375 1.714844 8.726562 2.003906 C 8.867188 2.347656 8.796875 2.664062 8.5625 2.949219 C 8.386719 3.160156 8.15625 3.308594 7.960938 3.5 "/>
<path style=" stroke:none;fill-rule:nonzero;fill:#ff6666;fill-opacity:1;" d="M 6.214844 3.882812 C 6.148438 3.796875 6.050781 3.722656 5.964844 3.648438 C 5.875 3.574219 5.785156 3.5 5.691406 3.425781 C 5.527344 3.289062 5.355469 3.15625 5.175781 3.039062 C 5 2.921875 4.816406 2.820312 4.621094 2.734375 C 4.429688 2.648438 4.234375 2.582031 4.03125 2.53125 C 3.824219 2.480469 3.613281 2.449219 3.402344 2.4375 C 3.1875 2.421875 2.96875 2.425781 2.75 2.4375 C 2.53125 2.453125 2.3125 2.484375 2.09375 2.519531 C 1.871094 2.558594 1.652344 2.605469 1.4375 2.65625 C 1.21875 2.707031 1.003906 2.761719 0.789062 2.824219 C 0.578125 2.882812 0.363281 2.945312 0.152344 3.007812 C 0.101562 3.023438 0.0507812 3.035156 0 3.050781 C 0.101562 3.09375 0.195312 3.136719 0.289062 3.191406 C 0.378906 3.25 0.464844 3.316406 0.566406 3.351562 C 0.667969 3.390625 0.773438 3.382812 0.875 3.347656 C 0.976562 3.3125 1.074219 3.257812 1.183594 3.242188 C 1.410156 3.214844 1.554688 3.375 1.734375 3.480469 C 1.824219 3.53125 1.925781 3.5625 2.027344 3.546875 C 2.128906 3.53125 2.214844 3.46875 2.304688 3.425781 C 2.402344 3.378906 2.503906 3.363281 2.609375 3.394531 C 2.714844 3.421875 2.800781 3.488281 2.882812 3.554688 C 2.964844 3.621094 3.046875 3.6875 3.140625 3.730469 C 3.242188 3.777344 3.347656 3.800781 3.457031 3.804688 C 3.695312 3.816406 3.933594 3.789062 4.167969 3.78125 C 4.402344 3.769531 4.644531 3.765625 4.878906 3.78125 C 5.105469 3.796875 5.328125 3.859375 5.550781 3.910156 C 5.671875 3.9375 5.789062 3.972656 5.90625 4 C 5.992188 4.023438 6.117188 4.058594 6.195312 3.996094 C 6.214844 3.984375 6.234375 3.960938 6.246094 3.941406 C 6.265625 3.910156 6.246094 3.894531 6.214844 3.882812 "/>
<path style=" stroke:none;fill-rule:nonzero;fill:#ff6666;fill-opacity:1;" d="M 6.253906 4.644531 C 6.15625 4.632812 6.089844 4.609375 6.003906 4.585938 C 5.800781 4.53125 5.582031 4.550781 5.371094 4.542969 C 5.136719 4.539062 4.902344 4.523438 4.667969 4.511719 C 4.203125 4.488281 3.734375 4.472656 3.265625 4.503906 C 3 4.519531 2.734375 4.558594 2.476562 4.621094 C 2.039062 4.726562 1.625 4.925781 1.332031 5.273438 C 1.039062 5.621094 0.890625 6.066406 0.796875 6.503906 C 0.679688 7.054688 0.695312 7.3125 0.640625 7.871094 C 0.773438 7.683594 0.84375 7.800781 1.023438 7.65625 C 1.175781 7.535156 1.355469 7.476562 1.515625 7.367188 C 1.660156 7.265625 1.691406 7.113281 1.742188 6.953125 C 1.804688 6.761719 1.914062 6.648438 2.113281 6.597656 C 2.300781 6.550781 2.535156 6.5625 2.683594 6.410156 C 2.8125 6.28125 2.804688 6.085938 2.90625 5.941406 C 3.019531 5.78125 3.242188 5.785156 3.417969 5.761719 C 3.644531 5.726562 3.839844 5.652344 4.023438 5.507812 C 4.226562 5.355469 4.414062 5.207031 4.660156 5.125 C 4.980469 5.015625 5.316406 4.960938 5.644531 4.890625 C 5.730469 4.875 5.820312 4.867188 5.90625 4.851562 C 6.015625 4.835938 6.136719 4.816406 6.238281 4.765625 C 6.257812 4.753906 6.277344 4.742188 6.296875 4.730469 C 6.304688 4.722656 6.316406 4.710938 6.320312 4.699219 C 6.324219 4.652344 6.257812 4.648438 6.226562 4.636719 "/>
<path style=" stroke:none;fill-rule:nonzero;fill:#ff6666;fill-opacity:1;" d="M 5.96875 5.558594 C 5.519531 5.65625 5.039062 5.972656 4.726562 6.292969 C 4.613281 6.40625 4.484375 6.511719 4.390625 6.640625 C 4.28125 6.785156 4.191406 6.9375 4.085938 7.082031 C 3.96875 7.25 3.878906 7.4375 3.808594 7.625 C 3.734375 7.8125 3.714844 8.027344 3.644531 8.214844 C 3.566406 8.414062 3.480469 8.539062 3.421875 8.746094 C 3.328125 9.082031 3.214844 9.097656 3.164062 9.707031 C 3.363281 9.542969 3.414062 9.523438 3.464844 9.511719 C 3.570312 9.488281 3.621094 9.519531 3.71875 9.5 C 3.824219 9.480469 3.8125 9.464844 3.890625 9.390625 C 3.964844 9.328125 3.988281 9.214844 4.019531 9.128906 C 4.058594 9.023438 4.070312 8.941406 4.171875 8.878906 C 4.257812 8.824219 4.355469 8.800781 4.449219 8.765625 C 4.535156 8.734375 4.640625 8.710938 4.71875 8.648438 C 4.796875 8.582031 4.828125 8.496094 4.863281 8.402344 C 4.949219 8.191406 5.003906 7.988281 5.199219 7.859375 C 5.277344 7.804688 5.367188 7.769531 5.433594 7.707031 C 5.503906 7.640625 5.542969 7.542969 5.574219 7.460938 C 5.714844 7.089844 5.832031 6.703125 5.972656 6.328125 C 6.035156 6.152344 6.132812 5.957031 6.292969 5.835938 C 6.363281 5.785156 6.453125 5.742188 6.511719 5.664062 C 6.550781 5.617188 6.664062 5.511719 6.644531 5.445312 C 6.609375 5.339844 6.355469 5.394531 6.289062 5.425781 C 6.1875 5.46875 6.078125 5.523438 5.96875 5.558594 "/>
<path style=" stroke:none;fill-rule:nonzero;fill:#ff6666;fill-opacity:1;" d="M 8.289062 4.394531 C 8.222656 4.382812 8.101562 4.40625 8.039062 4.421875 C 7.984375 4.433594 7.917969 4.414062 7.863281 4.429688 C 7.8125 4.445312 7.785156 4.4375 7.734375 4.453125 C 7.71875 4.460938 7.707031 4.472656 7.703125 4.484375 C 7.703125 4.484375 7.703125 4.488281 7.703125 4.488281 C 7.703125 4.542969 7.722656 4.617188 7.734375 4.667969 C 7.75 4.71875 7.785156 4.816406 7.8125 4.863281 C 7.84375 4.929688 7.867188 4.953125 7.894531 5.023438 C 7.917969 5.089844 7.953125 5.117188 7.992188 5.132812 C 8.074219 5.160156 8.171875 5.121094 8.257812 5.125 C 8.34375 5.132812 8.492188 5.148438 8.585938 5.078125 C 8.628906 5.046875 8.574219 4.917969 8.554688 4.867188 C 8.53125 4.792969 8.503906 4.722656 8.472656 4.648438 C 8.421875 4.53125 8.425781 4.421875 8.289062 4.394531 Z M 7.703125 4.488281 C 7.703125 4.488281 7.703125 4.492188 7.703125 4.492188 C 7.695312 4.503906 7.699219 4.523438 7.710938 4.539062 Z M 8.769531 5.828125 C 8.726562 5.832031 8.6875 5.828125 8.644531 5.828125 C 8.550781 5.835938 8.457031 5.835938 8.359375 5.839844 C 8.269531 5.84375 8.175781 5.839844 8.085938 5.851562 C 8.058594 5.851562 7.96875 5.847656 7.960938 5.875 C 7.957031 5.894531 8 5.941406 8.015625 5.953125 C 8.0625 6.003906 8.109375 6.058594 8.132812 6.125 C 8.160156 6.191406 8.1875 6.253906 8.234375 6.3125 L 8.1875 6.234375 C 8.21875 6.273438 8.234375 6.339844 8.25 6.386719 C 8.304688 6.523438 8.351562 6.667969 8.414062 6.804688 C 8.4375 6.859375 8.492188 6.933594 8.546875 6.953125 C 8.625 6.976562 8.695312 6.980469 8.78125 6.984375 C 8.859375 6.984375 8.941406 6.976562 9.019531 6.976562 C 9.089844 6.976562 9.1875 6.996094 9.210938 6.921875 C 9.234375 6.851562 9.230469 6.796875 9.230469 6.722656 C 9.230469 6.644531 9.203125 6.5625 9.171875 6.492188 C 9.140625 6.421875 9.136719 6.320312 9.097656 6.25 C 9.058594 6.179688 9.035156 6.132812 9.003906 6.0625 C 8.972656 5.988281 8.925781 5.902344 8.875 5.84375 C 8.851562 5.816406 8.804688 5.828125 8.769531 5.828125 Z M 8.671875 7.648438 C 8.609375 7.652344 8.527344 7.65625 8.476562 7.695312 C 8.449219 7.714844 8.382812 7.722656 8.464844 7.871094 C 8.53125 7.992188 8.542969 8.101562 8.578125 8.230469 C 8.578125 8.257812 8.589844 8.28125 8.59375 8.304688 C 8.613281 8.375 8.613281 8.441406 8.609375 8.511719 C 8.601562 8.851562 8.546875 9.003906 8.695312 9.039062 C 8.820312 9.066406 8.898438 9.109375 9.015625 9.15625 C 9.152344 9.210938 9.390625 9.277344 9.539062 9.277344 C 9.667969 9.277344 9.644531 9.1875 9.664062 9.070312 C 9.691406 8.914062 9.679688 8.75 9.664062 8.59375 C 9.652344 8.414062 9.613281 8.242188 9.601562 8.0625 C 9.578125 7.824219 9.558594 7.695312 9.351562 7.6875 C 9.199219 7.683594 9.101562 7.652344 8.953125 7.648438 C 8.859375 7.644531 8.765625 7.640625 8.671875 7.648438 Z M 8.414062 9.734375 C 8.378906 9.746094 8.359375 9.785156 8.359375 9.867188 C 8.363281 10 8.382812 10.140625 8.390625 10.273438 C 8.394531 10.402344 8.371094 10.523438 8.371094 10.65625 L 8.367188 10.632812 C 8.355469 10.742188 8.339844 10.839844 8.316406 10.945312 C 8.226562 11.394531 8.070312 11.480469 8.335938 11.566406 C 8.492188 11.617188 8.605469 11.675781 8.796875 11.75 C 8.960938 11.816406 9.160156 11.933594 9.320312 11.921875 C 9.398438 11.917969 9.523438 11.417969 9.539062 11.277344 C 9.574219 11.039062 9.609375 10.734375 9.648438 10.496094 C 9.703125 10.171875 9.664062 10.128906 9.5 10.105469 C 9.3125 10.078125 9.1875 10.015625 9.007812 9.953125 C 8.851562 9.902344 8.707031 9.820312 8.550781 9.757812 C 8.496094 9.734375 8.449219 9.722656 8.414062 9.734375 Z M 7.734375 12.203125 C 7.660156 12.257812 7.617188 12.523438 7.601562 12.605469 C 7.566406 12.753906 7.574219 12.910156 7.53125 13.058594 C 7.523438 13.089844 7.511719 13.136719 7.503906 13.183594 C 7.488281 13.25 7.46875 13.320312 7.425781 13.355469 L 7.445312 13.3125 C 7.394531 13.441406 7.328125 13.53125 7.257812 13.652344 C 7.175781 13.789062 7.089844 13.925781 7.007812 14.0625 C 6.957031 14.15625 6.890625 14.3125 6.832031 14.402344 C 6.699219 14.605469 6.9375 14.621094 7.257812 14.890625 C 7.382812 14.992188 7.507812 15.097656 7.640625 15.195312 C 7.738281 15.269531 7.917969 15.441406 8.039062 15.476562 C 8.277344 15.542969 8.382812 15.214844 8.507812 15.046875 C 8.867188 14.546875 9.121094 13.972656 9.285156 13.375 C 9.355469 13.125 9.554688 12.941406 9.257812 12.757812 C 9.140625 12.6875 8.929688 12.652344 8.800781 12.625 C 8.636719 12.582031 8.46875 12.496094 8.304688 12.445312 C 8.175781 12.40625 8.152344 12.390625 8.023438 12.34375 C 7.957031 12.324219 7.796875 12.160156 7.734375 12.203125 Z M 7.734375 12.203125 "/>
</g>
</svg>
