
<svg xmlns="http://www.w3.org/2000/svg" xmlns:xlink="http://www.w3.org/1999/xlink" width="16px" height="16px" viewBox="0 0 16 16" version="1.1">
<g id="surface1">
<path style=" stroke:none;fill-rule:evenodd;fill:#ff6666;fill-opacity:1;" d="M 8.382812 6.363281 C 8.214844 6.261719 8.09375 6.09375 8.046875 5.898438 C 8.003906 5.703125 8.039062 5.5 8.144531 5.332031 C 8.25 5.164062 8.417969 5.042969 8.609375 5 C 8.804688 4.953125 9.007812 4.988281 9.179688 5.09375 C 9.289062 5.164062 9.398438 5.246094 9.496094 5.332031 C 9.726562 5.527344 9.929688 5.746094 10.105469 5.988281 C 10.359375 6.339844 10.5625 6.722656 10.703125 7.132812 C 10.886719 7.660156 10.976562 8.214844 10.96875 8.769531 C 10.976562 9.328125 10.882812 9.882812 10.695312 10.40625 C 10.554688 10.816406 10.34375 11.195312 10.078125 11.539062 C 9.894531 11.773438 9.683594 11.988281 9.453125 12.175781 C 9.347656 12.261719 9.238281 12.335938 9.121094 12.402344 C 8.949219 12.5 8.746094 12.523438 8.554688 12.472656 C 8.359375 12.421875 8.195312 12.296875 8.097656 12.121094 C 8 11.949219 7.976562 11.746094 8.027344 11.554688 C 8.078125 11.359375 8.203125 11.195312 8.378906 11.097656 C 8.421875 11.070312 8.46875 11.042969 8.507812 11.011719 C 8.648438 10.894531 8.78125 10.765625 8.894531 10.621094 C 9.058594 10.402344 9.191406 10.164062 9.285156 9.90625 C 9.414062 9.539062 9.476562 9.15625 9.46875 8.769531 C 9.476562 8.378906 9.414062 7.988281 9.285156 7.617188 C 9.191406 7.351562 9.0625 7.101562 8.894531 6.875 C 8.785156 6.722656 8.65625 6.585938 8.511719 6.464844 C 8.472656 6.429688 8.429688 6.394531 8.382812 6.363281 Z M 8 2.5 C 5.929688 2.5 4.164062 3.769531 3.40625 5.5625 C 1.476562 5.847656 0 7.492188 0 9.5 C 0 11.710938 1.789062 13.5 4 13.5 L 12.5 13.5 C 14.433594 13.5 16 11.933594 16 10 C 16 8.203125 14.648438 6.730469 12.90625 6.53125 C 12.453125 4.238281 10.425781 2.5 8 2.5 Z M 6 11.457031 C 5.8125 11.523438 5.609375 11.511719 5.429688 11.429688 C 5.246094 11.34375 5.109375 11.1875 5.042969 11 C 4.976562 10.8125 4.988281 10.605469 5.074219 10.429688 C 5.15625 10.246094 5.3125 10.109375 5.5 10.042969 C 5.550781 10.023438 5.597656 10.003906 5.644531 9.980469 C 5.78125 9.914062 5.910156 9.828125 6.027344 9.730469 C 6.164062 9.625 6.273438 9.492188 6.363281 9.34375 C 6.453125 9.175781 6.5 8.988281 6.5 8.796875 C 6.5 8.792969 6.5 8.792969 6.5 8.789062 C 6.5 8.589844 6.453125 8.394531 6.359375 8.21875 C 6.265625 8.058594 6.148438 7.914062 6.011719 7.792969 C 5.886719 7.6875 5.757812 7.59375 5.617188 7.515625 C 5.566406 7.488281 5.515625 7.464844 5.46875 7.445312 C 5.28125 7.371094 5.136719 7.222656 5.058594 7.039062 C 4.984375 6.859375 4.980469 6.648438 5.054688 6.46875 C 5.128906 6.28125 5.277344 6.136719 5.460938 6.058594 C 5.640625 5.984375 5.851562 5.980469 6.03125 6.054688 C 6.140625 6.101562 6.25 6.152344 6.351562 6.210938 C 6.578125 6.339844 6.796875 6.488281 6.988281 6.65625 C 7.265625 6.894531 7.496094 7.179688 7.671875 7.496094 C 7.886719 7.894531 8 8.339844 8 8.789062 C 8.003906 9.238281 7.886719 9.683594 7.671875 10.078125 C 7.488281 10.394531 7.253906 10.671875 6.972656 10.898438 C 6.773438 11.0625 6.554688 11.203125 6.324219 11.316406 C 6.21875 11.371094 6.109375 11.417969 6 11.457031 Z M 6 11.457031 "/>
</g>
</svg>
