
<svg xmlns="http://www.w3.org/2000/svg" xmlns:xlink="http://www.w3.org/1999/xlink" width="16px" height="16px" viewBox="0 0 16 16" version="1.1">
<g id="surface1">
<path style=" stroke:none;fill-rule:nonzero;fill:#ff6666;fill-opacity:1;" d="M 10.285156 0.5 L 10.285156 1.75 L 0 1.75 L 0 4.25 L 10.285156 4.25 L 10.285156 5.5 L 12.574219 5.5 L 12.574219 0.5 Z M 13.714844 1.75 L 13.714844 4.25 L 16 4.25 L 16 1.75 Z M 3.429688 5.5 L 3.429688 6.75 L 0 6.75 L 0 9.25 L 3.429688 9.25 L 3.429688 10.5 L 5.714844 10.5 L 5.714844 5.5 Z M 6.859375 6.75 L 6.859375 9.25 L 16 9.25 L 16 6.75 Z M 8 10.5 L 8 11.75 L 0 11.75 L 0 14.25 L 8 14.25 L 8 15.5 L 10.285156 15.5 L 10.285156 10.5 Z M 11.425781 11.75 L 11.425781 14.25 L 16 14.25 L 16 11.75 Z M 11.425781 11.75 "/>
</g>
</svg>
