
<svg xmlns="http://www.w3.org/2000/svg" xmlns:xlink="http://www.w3.org/1999/xlink" width="16px" height="16px" viewBox="0 0 16 16" version="1.1">
<g id="surface1">
<path style=" stroke:none;fill-rule:evenodd;fill:#ff6666;fill-opacity:1;" d="M 6.203125 11.726562 C 4.792969 12.140625 3.59375 12.359375 2.863281 12.371094 C 1.671875 12.382812 0.164062 12.191406 0.0078125 10.988281 C -0.109375 10.117188 1.351562 8.722656 1.351562 8.722656 C 1.351562 8.722656 0.277344 10.070312 0.5625 10.726562 C 0.882812 11.460938 1.996094 11.636719 2.796875 11.613281 C 3.601562 11.59375 4.617188 11.421875 5.726562 11.125 C 5.320312 10.550781 5.089844 9.847656 5.089844 9.089844 C 5.089844 7.082031 6.71875 5.453125 8.726562 5.453125 C 9 5.453125 9.261719 5.484375 9.515625 5.546875 C 9.476562 5.402344 9.453125 5.25 9.453125 5.089844 C 9.453125 4.085938 10.269531 3.273438 11.273438 3.273438 C 12.277344 3.273438 13.089844 4.085938 13.089844 5.089844 C 13.089844 5.980469 12.453125 6.71875 11.613281 6.886719 C 11.9375 7.308594 12.164062 7.804688 12.273438 8.347656 C 14.042969 7.265625 15.289062 6.03125 15.34375 4.851562 C 15.382812 4.007812 13.636719 3.570312 13.636719 3.570312 C 13.636719 3.492188 15.988281 3.605469 16 4.914062 C 16.011719 6.496094 14.453125 7.972656 12.359375 9.183594 C 12.3125 11.148438 10.707031 12.726562 8.726562 12.726562 C 7.828125 12.726562 7.003906 12.402344 6.375 11.855469 C 6.308594 11.824219 6.25 11.78125 6.203125 11.726562 Z M 5.820312 10.851562 C 5.683594 10.542969 5.609375 10.203125 5.609375 9.84375 C 5.609375 8.480469 6.710938 7.375 8.078125 7.375 C 9.265625 7.375 10.265625 8.210938 10.496094 9.332031 C 9.65625 9.753906 8.765625 10.132812 7.878906 10.433594 C 7.710938 10.066406 7.339844 9.820312 6.910156 9.820312 C 6.328125 9.820312 5.851562 10.273438 5.820312 10.851562 Z M 6.875 11.996094 C 7.222656 12.210938 7.636719 12.328125 8.078125 12.328125 C 9.351562 12.328125 10.40625 11.355469 10.546875 10.117188 C 9.703125 10.523438 8.820312 10.878906 7.96875 11.164062 C 7.855469 11.644531 7.421875 12 6.910156 12 C 6.898438 12 6.886719 12 6.875 11.996094 Z M 6.875 11.996094 "/>
</g>
</svg>
