
<svg xmlns="http://www.w3.org/2000/svg" xmlns:xlink="http://www.w3.org/1999/xlink" width="16px" height="16px" viewBox="0 0 16 16" version="1.1">
<g id="surface1">
<path style=" stroke:none;fill-rule:nonzero;fill:#ff6666;fill-opacity:1;" d="M 1.347656 0.921875 C 0.609375 0.921875 0 1.226562 0 2.210938 C 0 8.179688 0.667969 9.230469 5.039062 9.230469 C 1.898438 9.230469 1.421875 11.453125 1.730469 12.191406 C 2.347656 13.730469 3.683594 15.078125 4.730469 15.078125 C 5.128906 15.078125 7.210938 13.90625 8 11.328125 C 8.789062 13.90625 10.871094 15.078125 11.269531 15.078125 C 12.316406 15.078125 13.652344 13.730469 14.269531 12.191406 C 14.578125 11.453125 14.101562 9.230469 10.960938 9.230469 C 15.332031 9.230469 16 8.179688 16 2.210938 C 16 1.226562 15.390625 0.921875 14.652344 0.921875 C 13.070312 0.921875 9.109375 4.304688 8 7.597656 C 6.890625 4.304688 2.929688 0.921875 1.347656 0.921875 Z M 1.347656 0.921875 "/>
</g>
</svg>
