
<svg xmlns="http://www.w3.org/2000/svg" xmlns:xlink="http://www.w3.org/1999/xlink" width="16px" height="16px" viewBox="0 0 16 16" version="1.1">
<g id="surface1">
<path style=" stroke:none;fill-rule:evenodd;fill:#ff6666;fill-opacity:1;" d="M 8 11.90625 C 7.960938 11.980469 7.914062 12.046875 7.863281 12.113281 C 7.875 12.121094 7.882812 12.128906 7.890625 12.136719 C 7.933594 12.179688 7.957031 12.234375 7.953125 12.292969 C 7.953125 12.3125 7.953125 12.332031 7.953125 12.351562 C 7.953125 12.445312 7.957031 12.53125 7.96875 12.621094 C 7.976562 12.71875 7.992188 12.8125 8.023438 12.90625 C 8.035156 12.941406 8.054688 12.980469 8.074219 13.011719 C 8.085938 13.039062 8.105469 13.0625 8.128906 13.085938 C 8.144531 13.101562 8.160156 13.113281 8.183594 13.121094 C 8.210938 13.132812 8.238281 13.136719 8.265625 13.136719 C 8.324219 13.136719 8.378906 13.15625 8.421875 13.199219 C 8.464844 13.238281 8.488281 13.296875 8.488281 13.355469 C 8.488281 13.410156 8.464844 13.46875 8.425781 13.511719 C 8.382812 13.554688 8.328125 13.578125 8.269531 13.578125 C 8.183594 13.578125 8.097656 13.5625 8.019531 13.53125 C 7.945312 13.503906 7.878906 13.457031 7.820312 13.402344 C 7.769531 13.351562 7.722656 13.292969 7.6875 13.230469 C 7.652344 13.171875 7.625 13.105469 7.605469 13.039062 C 7.566406 12.917969 7.539062 12.789062 7.527344 12.664062 C 7.519531 12.574219 7.515625 12.484375 7.515625 12.398438 C 6.984375 12.703125 6.101562 12.605469 4.605469 11.71875 C 2.535156 10.492188 0.191406 8.007812 0 7.164062 C 0.59375 6.980469 2.519531 7.386719 4.3125 8.121094 C 3.597656 6.28125 3.199219 4.304688 3.382812 3.695312 C 3.984375 3.839844 5.453125 5.179688 6.648438 6.734375 C 6.925781 4.773438 7.546875 2.859375 8 2.421875 C 8.4375 2.84375 9.027344 4.628906 9.316406 6.507812 C 10.519531 4.9375 12.007812 3.574219 12.617188 3.425781 C 12.808594 4.070312 12.355469 6.242188 11.566406 8.167969 C 13.394531 7.40625 15.390625 6.976562 16 7.164062 C 15.808594 8.007812 13.464844 10.492188 11.394531 11.71875 C 9.324219 12.945312 8.425781 12.660156 8 11.90625 Z M 8 11.90625 "/>
</g>
</svg>
