
<svg xmlns="http://www.w3.org/2000/svg" xmlns:xlink="http://www.w3.org/1999/xlink" width="16px" height="16px" viewBox="0 0 16 16" version="1.1">
<g id="surface1">
<path style=" stroke:none;fill-rule:nonzero;fill:#ff6666;fill-opacity:1;" d="M 2.875 1 C 1.839844 1 1 1.839844 1 2.875 L 1 13.125 C 1 14.160156 1.839844 15 2.875 15 L 13.125 15 C 14.160156 15 15 14.160156 15 13.125 L 15 2.875 C 15 1.839844 14.160156 1 13.125 1 Z M 14 2 L 14 14 L 3.1875 13.949219 C 3.1875 13.949219 3.847656 12.972656 3.847656 12.96875 C 3.847656 12.910156 5.933594 10.398438 5.976562 10.40625 C 6.003906 10.414062 6.9375 10.808594 8.054688 11.289062 C 9.957031 12.105469 10.082031 12.15625 10.132812 12.085938 C 10.210938 11.980469 10.480469 11.417969 10.621094 11.0625 L 10.742188 10.761719 L 10.539062 10.652344 C 10.25 10.496094 9.832031 10.144531 9.566406 9.84375 C 9.324219 9.570312 8.890625 8.910156 8.890625 8.816406 C 8.890625 8.785156 9.027344 8.925781 9.195312 9.125 C 9.671875 9.691406 10.761719 10.574219 10.832031 10.449219 C 10.914062 10.300781 10.964844 9.859375 10.964844 9.351562 C 10.960938 8.726562 10.878906 8.242188 10.664062 7.570312 L 10.542969 7.195312 L 9.949219 7.007812 C 9.621094 6.90625 9.292969 6.804688 9.21875 6.78125 C 8.964844 6.699219 9.125 6.703125 9.5 6.789062 C 9.953125 6.886719 10.40625 6.972656 10.6875 7.007812 C 10.9375 7.039062 10.992188 6.992188 11.019531 6.714844 C 11.054688 6.363281 10.824219 5.386719 10.59375 4.898438 C 10.503906 4.707031 10.464844 4.664062 10.28125 4.578125 C 9.667969 4.300781 7.753906 4.039062 6.941406 4.125 C 6.589844 4.160156 6.226562 4.246094 6.117188 4.320312 C 6.082031 4.339844 6.3125 4.398438 6.703125 4.46875 C 7.050781 4.53125 7.304688 4.59375 7.265625 4.601562 C 7.230469 4.605469 6.679688 4.546875 6.046875 4.464844 C 4.929688 4.320312 4.886719 4.320312 4.8125 4.390625 C 4.648438 4.535156 4.417969 4.9375 4.367188 5.148438 C 4.324219 5.359375 4.328125 5.382812 4.429688 5.59375 C 4.605469 5.953125 4.929688 6.214844 5.675781 6.589844 C 6.027344 6.769531 6.308594 6.921875 6.296875 6.933594 C 6.285156 6.945312 5.984375 6.832031 5.628906 6.683594 L 4.980469 6.414062 L 4.03125 6.679688 C 3.507812 6.828125 2.070312 6.964844 2.050781 6.964844 L 2 2 Z M 14 2 "/>
</g>
</svg>
