
<svg xmlns="http://www.w3.org/2000/svg" xmlns:xlink="http://www.w3.org/1999/xlink" width="16px" height="16px" viewBox="0 0 16 16" version="1.1">
<g id="surface1">
<path style=" stroke:none;fill-rule:evenodd;fill:#ff6666;fill-opacity:1;" d="M 1.882812 14.5 C 1.082031 12.433594 0.0234375 10.613281 0 7.242188 C -0.0234375 3.757812 2.777344 1.5 4.988281 1.5 C 7.671875 1.5 10.027344 3.914062 10.152344 5.917969 C 10.265625 7.722656 9.664062 10.347656 6.554688 10.328125 C 5.070312 10.320312 3.53125 8.941406 3.523438 6.890625 C 3.511719 4.679688 6.109375 4.464844 6.761719 5.027344 C 7.019531 5.246094 7.011719 5.679688 6.785156 5.601562 C 5.386719 5.117188 4.523438 6.074219 4.589844 7.023438 C 4.675781 8.316406 5.394531 9.085938 6.679688 9.152344 C 8.539062 9.246094 9.058594 7.316406 9.011719 6.535156 C 8.953125 5.582031 8.175781 3.625 5.757812 3.269531 C 4.617188 3.101562 3.671875 3.464844 2.980469 4.179688 C 2.289062 4.894531 1.898438 5.636719 1.84375 6.847656 C 1.785156 8.101562 2.042969 8.839844 2.746094 10.484375 C 2.996094 11.074219 3.695312 12.261719 4.242188 13.449219 Z M 1.882812 14.5 "/>
<path style=" stroke:none;fill-rule:evenodd;fill:#ff6666;fill-opacity:1;" d="M 14.117188 1.5 C 14.917969 3.566406 15.976562 5.386719 16 8.757812 C 16.023438 12.242188 13.222656 14.5 11.011719 14.5 C 8.328125 14.5 5.972656 12.085938 5.847656 10.085938 C 5.734375 8.277344 6.335938 5.652344 9.445312 5.671875 C 10.929688 5.679688 12.46875 7.058594 12.476562 9.109375 C 12.488281 11.320312 9.890625 11.535156 9.238281 10.972656 C 8.980469 10.753906 8.988281 10.320312 9.214844 10.398438 C 10.613281 10.886719 11.476562 9.925781 11.410156 8.976562 C 11.324219 7.683594 10.605469 6.914062 9.320312 6.847656 C 7.460938 6.753906 6.941406 8.683594 6.988281 9.464844 C 7.046875 10.417969 7.824219 12.375 10.242188 12.730469 C 11.382812 12.898438 12.328125 12.535156 13.019531 11.820312 C 13.710938 11.105469 14.101562 10.363281 14.15625 9.152344 C 14.214844 7.898438 13.957031 7.160156 13.253906 5.515625 C 13.003906 4.925781 12.304688 3.738281 11.757812 2.550781 Z M 14.117188 1.5 "/>
</g>
</svg>
