
<svg xmlns="http://www.w3.org/2000/svg" xmlns:xlink="http://www.w3.org/1999/xlink" width="16px" height="16px" viewBox="0 0 16 16" version="1.1">
<g id="surface1">
<path style=" stroke:none;fill-rule:nonzero;fill:#ff6666;fill-opacity:1;" d="M 7.464844 0 C 5.714844 0.121094 4.046875 0.8125 2.726562 1.972656 L 7.464844 6.710938 Z M 8.535156 0.0078125 L 8.535156 6.710938 L 13.273438 1.96875 C 11.953125 0.8125 10.285156 0.125 8.535156 0.0078125 Z M 1.96875 2.726562 C 0.8125 4.046875 0.125 5.714844 0.0078125 7.464844 L 6.710938 7.464844 Z M 14.027344 2.726562 L 9.289062 7.464844 L 16 7.464844 C 15.878906 5.714844 15.1875 4.046875 14.027344 2.726562 Z M 0 8.535156 C 0.121094 10.285156 0.8125 11.953125 1.972656 13.273438 L 6.710938 8.535156 Z M 9.289062 8.535156 L 14.03125 13.273438 C 15.1875 11.953125 15.875 10.285156 15.992188 8.535156 Z M 7.464844 9.289062 L 2.726562 14.03125 C 4.046875 15.1875 5.714844 15.875 7.464844 15.992188 Z M 8.535156 9.289062 L 8.535156 16 C 10.285156 15.878906 11.953125 15.1875 13.273438 14.027344 Z M 8.535156 9.289062 "/>
</g>
</svg>
