
<svg xmlns="http://www.w3.org/2000/svg" xmlns:xlink="http://www.w3.org/1999/xlink" width="16px" height="16px" viewBox="0 0 16 16" version="1.1">
<g id="surface1">
<path style=" stroke:none;fill-rule:evenodd;fill:#ff6666;fill-opacity:1;" d="M 5.714844 0 C 5.457031 0.00390625 5.199219 0.015625 4.945312 0.046875 C 9.019531 0.46875 12.113281 3.902344 12.113281 8 C 12.109375 12.117188 8.980469 15.558594 4.882812 15.953125 C 5.160156 15.984375 5.4375 16 5.714844 16 C 10.132812 16 13.714844 12.417969 13.714844 8 C 13.714844 3.582031 10.132812 0 5.714844 0 Z M 5.734375 3.429688 C 5.472656 3.429688 5.214844 3.449219 4.957031 3.496094 C 7.160156 3.859375 8.777344 5.765625 8.78125 8 C 8.78125 10.226562 7.179688 12.128906 4.984375 12.503906 C 5.234375 12.546875 5.484375 12.570312 5.734375 12.570312 C 8.257812 12.570312 10.304688 10.523438 10.304688 8 C 10.304688 5.476562 8.257812 3.429688 5.734375 3.429688 Z M 3.949219 9.328125 C 3.949219 9.257812 3.957031 9.195312 3.980469 9.148438 C 4 9.097656 4.027344 9.058594 4.0625 9.027344 C 4.101562 8.996094 4.144531 8.976562 4.191406 8.964844 C 4.242188 8.949219 4.292969 8.941406 4.351562 8.941406 C 4.402344 8.941406 4.453125 8.949219 4.5 8.964844 C 4.550781 8.976562 4.589844 8.996094 4.628906 9.027344 C 4.664062 9.058594 4.691406 9.097656 4.714844 9.148438 C 4.734375 9.195312 4.746094 9.257812 4.746094 9.328125 C 4.746094 9.394531 4.734375 9.453125 4.714844 9.503906 C 4.691406 9.550781 4.664062 9.59375 4.628906 9.625 C 4.589844 9.65625 4.550781 9.679688 4.5 9.691406 C 4.453125 9.707031 4.402344 9.714844 4.351562 9.714844 C 4.292969 9.714844 4.242188 9.707031 4.191406 9.691406 C 4.144531 9.679688 4.101562 9.65625 4.0625 9.625 C 4.027344 9.59375 4 9.550781 3.980469 9.503906 C 3.960938 9.453125 3.949219 9.398438 3.949219 9.328125 Z M 4.023438 8.570312 L 4.023438 8.382812 C 4.023438 8.308594 4.03125 8.238281 4.046875 8.175781 C 4.0625 8.109375 4.085938 8.050781 4.121094 7.992188 C 4.152344 7.9375 4.195312 7.882812 4.246094 7.828125 C 4.296875 7.773438 4.359375 7.71875 4.433594 7.660156 C 4.496094 7.613281 4.550781 7.566406 4.59375 7.527344 C 4.636719 7.488281 4.671875 7.449219 4.699219 7.410156 C 4.726562 7.371094 4.746094 7.332031 4.757812 7.289062 C 4.769531 7.246094 4.777344 7.199219 4.777344 7.140625 C 4.777344 7.054688 4.746094 6.984375 4.6875 6.929688 C 4.632812 6.871094 4.542969 6.84375 4.421875 6.84375 C 4.316406 6.84375 4.207031 6.867188 4.085938 6.910156 C 3.964844 6.953125 3.839844 7.007812 3.710938 7.070312 L 3.480469 6.570312 C 3.546875 6.53125 3.617188 6.496094 3.691406 6.460938 C 3.769531 6.429688 3.847656 6.398438 3.929688 6.371094 C 4.015625 6.34375 4.097656 6.324219 4.183594 6.308594 C 4.265625 6.292969 4.351562 6.285156 4.433594 6.285156 C 4.585938 6.285156 4.726562 6.304688 4.847656 6.339844 C 4.972656 6.378906 5.078125 6.433594 5.164062 6.503906 C 5.253906 6.574219 5.316406 6.660156 5.363281 6.761719 C 5.410156 6.863281 5.433594 6.980469 5.433594 7.109375 C 5.433594 7.203125 5.421875 7.289062 5.402344 7.363281 C 5.378906 7.441406 5.347656 7.511719 5.308594 7.574219 C 5.265625 7.640625 5.214844 7.699219 5.152344 7.761719 C 5.089844 7.820312 5.015625 7.882812 4.929688 7.949219 C 4.867188 8 4.816406 8.042969 4.777344 8.082031 C 4.734375 8.117188 4.703125 8.152344 4.683594 8.1875 C 4.660156 8.21875 4.644531 8.253906 4.636719 8.289062 C 4.628906 8.324219 4.621094 8.367188 4.621094 8.414062 L 4.621094 8.570312 Z M 2.285156 8 C 2.285156 6.738281 3.308594 5.714844 4.570312 5.714844 C 5.832031 5.714844 6.855469 6.738281 6.855469 8 C 6.855469 9.261719 5.832031 10.285156 4.570312 10.285156 C 3.308594 10.285156 2.285156 9.261719 2.285156 8 Z M 2.285156 8 "/>
</g>
</svg>
