
<svg xmlns="http://www.w3.org/2000/svg" xmlns:xlink="http://www.w3.org/1999/xlink" width="16px" height="16px" viewBox="0 0 16 16" version="1.1">
<g id="surface1">
<path style=" stroke:none;fill-rule:nonzero;fill:#ff6666;fill-opacity:1;" d="M 10.464844 13.933594 C 10.738281 13.933594 11 14.042969 11.195312 14.238281 C 11.390625 14.429688 11.5 14.691406 11.5 14.96875 C 11.5 15.242188 11.390625 15.503906 11.195312 15.695312 C 11 15.890625 10.738281 16 10.464844 16 L 2.1875 16 C 1.914062 16 1.648438 15.890625 1.457031 15.695312 C 1.261719 15.503906 1.152344 15.242188 1.152344 14.96875 C 1.152344 14.691406 1.261719 14.429688 1.457031 14.238281 C 1.648438 14.042969 1.914062 13.933594 2.1875 13.933594 Z M 10.464844 13.933594 "/>
<path style=" stroke:none;fill-rule:evenodd;fill:#ff6666;fill-opacity:1;" d="M 1.515625 6.496094 L 1.515625 8.171875 C 1.515625 8.390625 1.335938 8.570312 1.117188 8.570312 L 0.398438 8.570312 C 0.175781 8.570312 0 8.390625 0 8.171875 L 0 2.125 C 0 1.90625 0.175781 1.726562 0.398438 1.726562 L 1.164062 1.726562 C 1.382812 1.726562 1.605469 1.898438 1.664062 2.109375 L 2.386719 4.867188 L 3.132812 2.109375 C 3.191406 1.898438 3.414062 1.726562 3.632812 1.726562 L 4.339844 1.726562 C 4.558594 1.726562 4.734375 1.90625 4.734375 2.125 L 4.734375 8.171875 C 4.734375 8.390625 4.558594 8.570312 4.339844 8.570312 L 3.617188 8.570312 C 3.398438 8.570312 3.222656 8.390625 3.222656 8.171875 L 3.222656 6.496094 L 2.691406 8.378906 C 2.660156 8.484375 2.546875 8.570312 2.4375 8.570312 L 2.296875 8.570312 C 2.1875 8.570312 2.074219 8.484375 2.042969 8.378906 Z M 8.796875 3.828125 C 8.804688 3.871094 8.808594 3.914062 8.808594 3.960938 C 8.808594 4.007812 8.804688 4.054688 8.796875 4.101562 C 8.789062 4.144531 8.78125 4.183594 8.765625 4.21875 C 8.753906 4.257812 8.738281 4.292969 8.71875 4.324219 C 8.695312 4.363281 8.671875 4.394531 8.644531 4.425781 C 8.621094 4.453125 8.597656 4.472656 8.570312 4.492188 C 8.542969 4.515625 8.511719 4.53125 8.476562 4.546875 C 8.433594 4.5625 8.394531 4.574219 8.347656 4.582031 C 8.285156 4.59375 8.21875 4.601562 8.152344 4.601562 L 7.253906 4.601562 L 7.253906 3.320312 L 8.152344 3.320312 C 8.222656 3.320312 8.292969 3.328125 8.363281 3.339844 C 8.40625 3.347656 8.449219 3.359375 8.492188 3.378906 C 8.523438 3.394531 8.554688 3.410156 8.582031 3.429688 C 8.605469 3.449219 8.628906 3.472656 8.648438 3.496094 C 8.675781 3.527344 8.699219 3.566406 8.71875 3.605469 C 8.738281 3.640625 8.753906 3.675781 8.769531 3.710938 C 8.78125 3.75 8.792969 3.789062 8.796875 3.828125 Z M 14.109375 6.992188 C 14.078125 7.011719 14.046875 7.027344 14.011719 7.039062 C 13.972656 7.050781 13.929688 7.0625 13.890625 7.066406 C 13.835938 7.078125 13.777344 7.082031 13.722656 7.082031 C 13.667969 7.082031 13.617188 7.078125 13.566406 7.066406 C 13.515625 7.058594 13.464844 7.046875 13.414062 7.03125 C 13.367188 7.015625 13.316406 6.996094 13.269531 6.96875 C 13.214844 6.941406 13.164062 6.910156 13.117188 6.875 C 13.019531 6.804688 12.929688 6.722656 12.855469 6.628906 C 12.769531 6.523438 12.699219 6.410156 12.644531 6.289062 C 12.613281 6.21875 12.554688 6.167969 12.488281 6.140625 C 12.417969 6.109375 12.339844 6.109375 12.269531 6.136719 L 11.308594 6.492188 C 11.234375 6.519531 11.175781 6.574219 11.140625 6.644531 C 11.109375 6.714844 11.105469 6.792969 11.128906 6.867188 C 11.175781 7.003906 11.230469 7.136719 11.296875 7.261719 C 11.359375 7.386719 11.433594 7.5 11.511719 7.613281 C 11.59375 7.71875 11.683594 7.820312 11.777344 7.914062 C 11.875 8.011719 11.980469 8.101562 12.09375 8.183594 C 12.207031 8.261719 12.324219 8.335938 12.445312 8.398438 C 12.566406 8.460938 12.691406 8.511719 12.816406 8.550781 C 12.945312 8.59375 13.078125 8.621094 13.210938 8.644531 C 13.351562 8.664062 13.492188 8.675781 13.632812 8.675781 C 13.792969 8.675781 13.957031 8.664062 14.117188 8.636719 C 14.265625 8.613281 14.410156 8.578125 14.546875 8.527344 C 14.683594 8.480469 14.8125 8.421875 14.9375 8.351562 C 15.0625 8.28125 15.179688 8.199219 15.289062 8.105469 C 15.402344 8.011719 15.507812 7.90625 15.597656 7.792969 C 15.683594 7.679688 15.757812 7.558594 15.816406 7.429688 C 15.878906 7.292969 15.921875 7.152344 15.953125 7.007812 C 15.984375 6.847656 16 6.683594 16 6.523438 C 16 6.371094 15.984375 6.222656 15.949219 6.074219 C 15.917969 5.933594 15.871094 5.796875 15.808594 5.667969 C 15.746094 5.539062 15.667969 5.417969 15.578125 5.308594 C 15.484375 5.191406 15.378906 5.085938 15.261719 4.996094 C 15.15625 4.910156 15.050781 4.832031 14.9375 4.753906 C 14.855469 4.691406 14.765625 4.636719 14.675781 4.582031 C 14.585938 4.53125 14.496094 4.480469 14.40625 4.4375 C 14.277344 4.371094 14.148438 4.308594 14.019531 4.25 C 14 4.242188 13.980469 4.234375 13.960938 4.222656 C 13.914062 4.203125 13.867188 4.183594 13.820312 4.160156 C 13.773438 4.136719 13.722656 4.113281 13.675781 4.09375 C 13.652344 4.082031 13.628906 4.070312 13.605469 4.0625 C 13.589844 4.054688 13.570312 4.046875 13.554688 4.039062 C 13.519531 4.019531 13.480469 4.003906 13.445312 3.984375 C 13.40625 3.964844 13.371094 3.949219 13.335938 3.929688 C 13.320312 3.921875 13.308594 3.910156 13.292969 3.902344 C 13.277344 3.894531 13.257812 3.882812 13.242188 3.871094 C 13.214844 3.851562 13.1875 3.835938 13.164062 3.816406 C 13.144531 3.804688 13.125 3.789062 13.105469 3.773438 C 13.105469 3.773438 13.101562 3.769531 13.101562 3.769531 C 13.085938 3.753906 13.074219 3.738281 13.0625 3.722656 C 13.046875 3.703125 13.035156 3.6875 13.019531 3.667969 C 13.015625 3.664062 13.015625 3.660156 13.011719 3.65625 C 13.011719 3.652344 13.011719 3.648438 13.007812 3.648438 C 13.007812 3.636719 13.003906 3.628906 13.003906 3.617188 C 13.003906 3.609375 13 3.597656 13 3.585938 C 13 3.554688 13.003906 3.519531 13.011719 3.488281 C 13.015625 3.46875 13.023438 3.445312 13.03125 3.425781 C 13.039062 3.410156 13.050781 3.390625 13.0625 3.378906 C 13.078125 3.359375 13.09375 3.34375 13.113281 3.328125 C 13.132812 3.308594 13.15625 3.296875 13.179688 3.285156 C 13.207031 3.269531 13.234375 3.257812 13.261719 3.246094 C 13.292969 3.238281 13.328125 3.230469 13.363281 3.222656 C 13.40625 3.21875 13.453125 3.214844 13.5 3.214844 C 13.578125 3.214844 13.65625 3.226562 13.734375 3.246094 C 13.796875 3.261719 13.855469 3.289062 13.910156 3.324219 C 13.96875 3.359375 14.019531 3.40625 14.0625 3.457031 C 14.125 3.53125 14.179688 3.613281 14.222656 3.699219 C 14.253906 3.765625 14.308594 3.816406 14.375 3.84375 C 14.441406 3.871094 14.515625 3.871094 14.585938 3.847656 L 15.539062 3.527344 C 15.609375 3.503906 15.671875 3.453125 15.707031 3.382812 C 15.742188 3.316406 15.75 3.238281 15.730469 3.164062 C 15.695312 3.054688 15.65625 2.945312 15.605469 2.84375 C 15.558594 2.742188 15.5 2.644531 15.433594 2.550781 C 15.367188 2.457031 15.296875 2.371094 15.214844 2.289062 C 15.128906 2.203125 15.035156 2.125 14.9375 2.050781 C 14.839844 1.980469 14.738281 1.917969 14.632812 1.867188 C 14.527344 1.8125 14.417969 1.765625 14.304688 1.730469 C 14.191406 1.695312 14.070312 1.667969 13.949219 1.648438 C 13.820312 1.628906 13.691406 1.621094 13.5625 1.621094 C 13.394531 1.621094 13.230469 1.632812 13.066406 1.660156 C 12.921875 1.683594 12.78125 1.71875 12.644531 1.769531 C 12.519531 1.8125 12.398438 1.871094 12.28125 1.941406 C 12.167969 2.007812 12.0625 2.085938 11.964844 2.171875 C 11.863281 2.265625 11.769531 2.367188 11.6875 2.476562 C 11.609375 2.582031 11.546875 2.691406 11.492188 2.808594 C 11.441406 2.925781 11.402344 3.046875 11.375 3.167969 C 11.347656 3.300781 11.335938 3.433594 11.335938 3.566406 C 11.335938 3.710938 11.351562 3.855469 11.378906 3.996094 C 11.40625 4.125 11.449219 4.253906 11.507812 4.375 C 11.5625 4.492188 11.636719 4.609375 11.722656 4.710938 C 11.8125 4.820312 11.914062 4.921875 12.027344 5.007812 C 12.128906 5.085938 12.234375 5.160156 12.339844 5.234375 C 12.421875 5.285156 12.503906 5.335938 12.589844 5.382812 C 12.671875 5.425781 12.753906 5.46875 12.835938 5.507812 C 12.964844 5.570312 13.09375 5.628906 13.226562 5.6875 C 13.417969 5.773438 13.605469 5.867188 13.792969 5.96875 C 13.902344 6.03125 14.007812 6.101562 14.109375 6.179688 C 14.15625 6.214844 14.195312 6.253906 14.230469 6.296875 C 14.253906 6.324219 14.277344 6.351562 14.292969 6.386719 C 14.304688 6.410156 14.316406 6.4375 14.324219 6.464844 C 14.332031 6.492188 14.335938 6.519531 14.335938 6.546875 C 14.335938 6.601562 14.328125 6.652344 14.320312 6.703125 C 14.3125 6.734375 14.304688 6.769531 14.289062 6.800781 C 14.277344 6.828125 14.265625 6.851562 14.246094 6.875 C 14.230469 6.898438 14.210938 6.917969 14.1875 6.9375 C 14.164062 6.960938 14.136719 6.976562 14.109375 6.992188 Z M 7.253906 8.171875 L 7.253906 6.195312 L 8.097656 6.195312 C 8.296875 6.195312 8.496094 6.179688 8.691406 6.144531 C 8.855469 6.117188 9.015625 6.070312 9.171875 6.007812 C 9.308594 5.949219 9.4375 5.878906 9.558594 5.796875 C 9.679688 5.710938 9.785156 5.617188 9.882812 5.511719 C 9.980469 5.402344 10.070312 5.285156 10.148438 5.160156 C 10.222656 5.039062 10.285156 4.914062 10.335938 4.785156 C 10.382812 4.65625 10.421875 4.523438 10.445312 4.390625 C 10.472656 4.246094 10.484375 4.105469 10.484375 3.960938 C 10.484375 3.808594 10.472656 3.652344 10.445312 3.503906 C 10.421875 3.363281 10.382812 3.226562 10.335938 3.09375 C 10.285156 2.964844 10.226562 2.84375 10.15625 2.726562 C 10.082031 2.605469 9.996094 2.492188 9.902344 2.386719 C 9.804688 2.277344 9.691406 2.183594 9.570312 2.101562 C 9.4375 2.015625 9.296875 1.941406 9.144531 1.890625 C 8.996094 1.835938 8.839844 1.796875 8.683594 1.769531 C 8.488281 1.742188 8.292969 1.726562 8.097656 1.726562 L 5.992188 1.726562 C 5.773438 1.726562 5.597656 1.90625 5.597656 2.125 L 5.597656 8.171875 C 5.597656 8.390625 5.773438 8.570312 5.992188 8.570312 L 6.855469 8.570312 C 7.074219 8.570312 7.253906 8.390625 7.253906 8.171875 Z M 7.253906 8.171875 "/>
</g>
</svg>
