
<svg xmlns="http://www.w3.org/2000/svg" xmlns:xlink="http://www.w3.org/1999/xlink" width="16px" height="16px" viewBox="0 0 16 16" version="1.1">
<g id="surface1">
<path style=" stroke:none;fill-rule:evenodd;fill:#ff6666;fill-opacity:1;" d="M 8.566406 1 C 6.128906 1.433594 3.6875 2.011719 1.25 2.4375 C 1.25 6.144531 1.25 9.855469 1.25 13.566406 C 3.675781 13.992188 6.101562 14.558594 8.523438 15 L 9.25 15 L 9.25 1 Z M 6.90625 5.484375 C 7.046875 5.484375 7.160156 5.53125 7.242188 5.617188 C 7.324219 5.703125 7.367188 5.820312 7.367188 5.964844 L 7.367188 10.367188 C 7.367188 10.511719 7.324219 10.632812 7.238281 10.722656 C 7.152344 10.8125 7.042969 10.855469 6.90625 10.855469 C 6.746094 10.855469 6.625 10.796875 6.539062 10.683594 L 3.804688 7.121094 L 3.804688 10.367188 C 3.804688 10.511719 3.761719 10.632812 3.683594 10.722656 C 3.601562 10.8125 3.492188 10.855469 3.351562 10.855469 C 3.214844 10.855469 3.101562 10.8125 3.023438 10.722656 C 2.941406 10.632812 2.902344 10.511719 2.902344 10.367188 L 2.902344 5.964844 C 2.902344 5.820312 2.945312 5.703125 3.03125 5.617188 C 3.117188 5.53125 3.226562 5.484375 3.367188 5.484375 C 3.523438 5.484375 3.644531 5.542969 3.726562 5.65625 L 6.457031 9.207031 L 6.457031 5.964844 C 6.457031 5.820312 6.5 5.703125 6.582031 5.617188 C 6.664062 5.53125 6.773438 5.484375 6.90625 5.484375 Z M 6.90625 5.484375 "/>
<path style=" stroke:none;fill-rule:nonzero;fill:#ff6666;fill-opacity:1;" d="M 9.75 3 L 9.75 4 L 13.75 4 L 13.75 7.003906 L 9.75 7.003906 L 9.75 7.5 L 13.75 7.5 L 13.75 9.875 L 9.75 9.875 L 9.75 10.375 L 13.75 10.375 L 13.75 12.5 L 9.75 12.5 L 9.75 13.5 L 14.75 13.5 L 14.75 3 Z M 9.75 3 "/>
<path style=" stroke:none;fill-rule:nonzero;fill:#ff6666;fill-opacity:1;" d="M 12.332031 7.5 L 12.832031 7.5 L 12.832031 12.8125 L 12.332031 12.8125 Z M 12.332031 7.5 "/>
</g>
</svg>
