
<svg xmlns="http://www.w3.org/2000/svg" xmlns:xlink="http://www.w3.org/1999/xlink" width="16px" height="16px" viewBox="0 0 16 16" version="1.1">
<g id="surface1">
<path style=" stroke:none;fill-rule:evenodd;fill:#ff6666;fill-opacity:1;" d="M 9.6875 2.976562 L 14.769531 2.976562 L 14.769531 13.457031 L 9.6875 13.457031 Z M 9.6875 3.957031 L 13.644531 3.957031 L 13.644531 4.707031 L 9.6875 8.207031 Z M 13.644531 5.707031 L 10.894531 8.082031 L 13.644531 10.332031 Z M 9.6875 9.101562 L 10.3125 8.601562 L 13.644531 11.457031 L 13.644531 12.457031 L 9.6875 12.457031 Z M 8.546875 1 C 6.109375 1.433594 3.667969 2.011719 1.230469 2.4375 C 1.230469 6.144531 1.226562 9.855469 1.230469 13.566406 C 3.65625 13.992188 6.082031 14.558594 8.503906 15 L 9.230469 15 L 9.230469 1 Z M 7.847656 8.183594 C 7.847656 9.070312 7.625 9.753906 7.1875 10.230469 C 6.746094 10.703125 6.117188 10.941406 5.296875 10.941406 C 4.476562 10.941406 3.847656 10.703125 3.40625 10.230469 C 2.96875 9.753906 2.746094 9.070312 2.746094 8.179688 C 2.746094 7.285156 2.96875 6.605469 3.410156 6.136719 C 3.851562 5.664062 4.480469 5.429688 5.304688 5.429688 C 6.128906 5.429688 6.757812 5.667969 7.191406 6.140625 C 7.628906 6.617188 7.847656 7.296875 7.847656 8.183594 Z M 3.9375 8.183594 C 3.9375 8.78125 4.050781 9.234375 4.277344 9.535156 C 4.507812 9.839844 4.84375 9.992188 5.296875 9.992188 C 6.203125 9.992188 6.65625 9.390625 6.65625 8.183594 C 6.65625 6.980469 6.207031 6.375 5.304688 6.375 C 4.851562 6.375 4.511719 6.527344 4.28125 6.832031 C 4.054688 7.136719 3.9375 7.585938 3.9375 8.183594 Z M 3.9375 8.183594 "/>
</g>
</svg>
