
<svg xmlns="http://www.w3.org/2000/svg" xmlns:xlink="http://www.w3.org/1999/xlink" width="16px" height="16px" viewBox="0 0 16 16" version="1.1">
<g id="surface1">
<path style=" stroke:none;fill-rule:nonzero;fill:#ff6666;fill-opacity:1;" d="M 8.628906 0.144531 C 5.921875 0.628906 3.210938 1.265625 0.5 1.742188 C 0.5 5.863281 0.5 9.984375 0.5 14.105469 C 3.195312 14.578125 5.890625 15.207031 8.582031 15.699219 L 9.390625 15.699219 L 9.390625 0.144531 Z M 4.554688 5.042969 C 5.085938 5.03125 5.601562 5.109375 6.015625 5.484375 C 6.816406 6.453125 6.605469 8.234375 5.421875 8.816406 C 5 9.03125 4.519531 9 4.0625 8.984375 C 4.058594 9.710938 4.058594 10.433594 4.058594 11.15625 C 3.691406 11.125 3.324219 11.09375 2.957031 11.066406 C 2.941406 9.085938 2.9375 7.199219 2.960938 5.222656 C 3.480469 5.15625 4.019531 5.054688 4.554688 5.042969 Z M 4.492188 6.117188 C 4.347656 6.113281 4.195312 6.125 4.058594 6.132812 C 4.054688 6.753906 4.050781 7.375 4.089844 7.996094 C 4.457031 7.949219 4.9375 7.988281 5.148438 7.605469 C 5.324219 7.230469 5.332031 6.753906 5.121094 6.390625 C 4.96875 6.175781 4.734375 6.121094 4.492188 6.117188 Z M 4.492188 6.117188 "/>
<path style=" stroke:none;fill-rule:nonzero;fill:#ff6666;fill-opacity:1;" d="M 9.945312 2.367188 L 9.945312 4.214844 C 10.207031 4.15625 10.488281 4.050781 10.777344 4.035156 L 10.777344 6.535156 L 13.261719 6.535156 C 13.171875 7.292969 12.835938 8.070312 12.167969 8.46875 C 11.511719 8.90625 10.679688 8.914062 9.945312 8.6875 C 9.945312 9.046875 9.941406 9.78125 9.945312 10.144531 L 14.390625 10.144531 L 14.390625 10.699219 L 9.945312 10.699219 L 9.945312 11.8125 L 14.390625 11.8125 L 14.390625 12.367188 L 9.945312 12.367188 L 9.945312 14.035156 L 15.5 14.035156 L 15.5 2.367188 Z M 11.332031 3.699219 C 12.515625 3.820312 13.492188 4.800781 13.621094 5.976562 L 11.332031 5.976562 Z M 11.332031 3.699219 "/>
</g>
</svg>
