
<svg xmlns="http://www.w3.org/2000/svg" xmlns:xlink="http://www.w3.org/1999/xlink" width="16px" height="16px" viewBox="0 0 16 16" version="1.1">
<g id="surface1">
<path style=" stroke:none;fill-rule:nonzero;fill:#ff6666;fill-opacity:1;" d="M 8.628906 0.144531 C 5.921875 0.628906 3.210938 1.265625 0.5 1.742188 C 0.5 5.863281 0.5 9.984375 0.5 14.109375 C 3.195312 14.578125 5.890625 15.207031 8.582031 15.699219 L 9.390625 15.699219 L 9.390625 0.144531 Z M 7.582031 5.183594 L 6.332031 10.421875 L 5.308594 10.339844 C 5.074219 9.171875 4.800781 8.007812 4.589844 6.832031 C 4.382812 7.976562 4.113281 9.105469 3.878906 10.242188 C 3.539062 10.222656 3.199219 10.203125 2.855469 10.179688 C 2.5625 8.625 2.21875 7.078125 1.945312 5.519531 C 2.246094 5.503906 2.550781 5.496094 2.851562 5.484375 C 3.035156 6.609375 3.242188 7.730469 3.402344 8.855469 C 3.648438 7.699219 3.90625 6.542969 4.152344 5.390625 C 4.488281 5.371094 4.824219 5.355469 5.160156 5.335938 C 5.394531 6.53125 5.632812 7.722656 5.890625 8.910156 C 6.089844 7.683594 6.308594 6.460938 6.523438 5.234375 C 6.875 5.222656 7.230469 5.203125 7.582031 5.183594 Z M 7.582031 5.183594 "/>
<path style=" stroke:none;fill-rule:nonzero;fill:#ff6666;fill-opacity:1;" d="M 9.945312 2.367188 L 15.5 2.367188 L 15.5 13.476562 L 9.945312 13.476562 L 9.945312 12.367188 L 14.390625 12.367188 L 14.390625 11.8125 L 9.945312 11.8125 L 9.945312 10.699219 L 14.390625 10.699219 L 14.390625 10.144531 L 9.945312 10.144531 L 9.945312 9.035156 L 14.390625 9.035156 L 14.390625 8.476562 L 9.945312 8.476562 L 9.945312 7.367188 L 14.390625 7.367188 L 14.390625 6.8125 L 9.945312 6.8125 L 9.945312 5.703125 L 14.390625 5.703125 L 14.390625 5.144531 L 9.945312 5.144531 L 9.945312 4.035156 L 14.390625 4.035156 L 14.390625 3.476562 L 9.945312 3.476562 Z M 9.945312 2.367188 "/>
</g>
</svg>
