
<svg xmlns="http://www.w3.org/2000/svg" xmlns:xlink="http://www.w3.org/1999/xlink" width="16px" height="16px" viewBox="0 0 16 16" version="1.1">
<g id="surface1">
<path style=" stroke:none;fill-rule:nonzero;fill:#ff6666;fill-opacity:1;" d="M 12.363281 1.410156 C 14.003906 1.410156 16 3.09375 16 5.183594 C 16 6.078125 15.6875 7.238281 15.160156 7.886719 C 15.046875 8.183594 15.164062 8.425781 15.167969 8.492188 C 15.179688 8.714844 14.695312 8.808594 13.390625 8.390625 C 11.035156 7.460938 9.496094 6.132812 8.726562 4.316406 L 7.273438 4.328125 L 7.273438 2.863281 L 8.726562 2.863281 C 8.726562 1.796875 10.726562 1.410156 12.363281 1.410156 Z M 1.453125 2.863281 C 2.257812 2.863281 2.910156 3.515625 2.910156 4.316406 C 2.910156 5.121094 2.257812 5.773438 1.453125 5.773438 C 0.652344 5.773438 0 5.121094 0 4.316406 C 0 3.515625 0.652344 2.863281 1.453125 2.863281 Z M 5.816406 4.316406 L 5.816406 4.328125 C 5.816406 5.136719 6.476562 5.789062 7.285156 5.785156 L 8.046875 5.777344 C 9.09375 7.496094 10.667969 8.882812 12.859375 9.742188 C 12.890625 9.757812 12.917969 9.765625 12.945312 9.777344 C 13.558594 9.972656 14.023438 10.070312 14.488281 10.105469 C 14.769531 11.617188 15.21875 13.484375 16 14.5 C 16 14.5 12.117188 14.488281 10.183594 14.5 L 5.816406 14.5 C 6.1875 12.910156 8.863281 10.101562 5.816406 10.136719 L 5.835938 9.410156 C 4.972656 8.546875 3.894531 7.695312 2.972656 6.792969 C 3.835938 6.265625 4.363281 5.328125 4.363281 4.316406 C 4.539062 4.320312 4.613281 4.316406 4.789062 4.316406 C 5.539062 4.328125 5.425781 4.320312 5.816406 4.316406 Z M 10.183594 8.683594 C 8.136719 8.726562 7.273438 10.136719 7.273438 10.136719 L 10.183594 10.136719 Z M 10.183594 8.683594 "/>
</g>
</svg>
