
<svg xmlns="http://www.w3.org/2000/svg" xmlns:xlink="http://www.w3.org/1999/xlink" width="16px" height="16px" viewBox="0 0 16 16" version="1.1">
<g id="surface1">
<path style=" stroke:none;fill-rule:nonzero;fill:#ff6666;fill-opacity:1;" d="M 3.992188 1 C 2.734375 1.015625 1.816406 0.96875 1.0625 1.386719 C 0.6875 1.59375 0.390625 1.945312 0.226562 2.382812 C 0.0585938 2.820312 0 3.34375 0 4 L 0 12 C 0 12.65625 0.0585938 13.179688 0.226562 13.617188 C 0.390625 14.054688 0.6875 14.40625 1.0625 14.613281 C 1.816406 15.03125 2.734375 14.984375 3.992188 15 L 5.496094 15 C 4.476562 14.261719 3.699219 13.21875 3.300781 12 L 1 12 L 1 4 C 1 3.40625 1.0625 2.992188 1.160156 2.734375 C 1.257812 2.472656 1.363281 2.363281 1.546875 2.261719 C 1.910156 2.058594 2.742188 2.015625 4 2 L 12 2 C 13.257812 2.015625 14.085938 2.058594 14.453125 2.261719 C 14.636719 2.363281 14.742188 2.472656 14.839844 2.734375 C 14.9375 2.992188 15 3.40625 15 4 L 15 12 L 14.632812 12 C 14.480469 12.390625 14.304688 12.765625 14.09375 13.117188 L 15.308594 14.332031 C 15.507812 14.136719 15.671875 13.898438 15.773438 13.617188 C 15.941406 13.179688 16 12.65625 16 12 L 16 4 C 16 3.34375 15.941406 2.820312 15.773438 2.382812 C 15.609375 1.945312 15.3125 1.59375 14.9375 1.386719 C 14.183594 0.96875 13.265625 1.015625 12.007812 1 Z M 6.695312 12 C 7.234375 12.671875 8.054688 13.105469 9 13.105469 C 9.945312 13.105469 10.765625 12.671875 11.304688 12 Z M 6.695312 12 "/>
<path style=" stroke:none;fill-rule:nonzero;fill:#ff6666;fill-opacity:1;" d="M 6 2 L 3.035156 7.925781 L 1 12 L 3.300781 12 C 3.105469 11.414062 3 10.792969 3 10.144531 C 3 7.746094 4.433594 5.671875 6.480469 4.714844 C 6.847656 4.28125 7.386719 4 8 4 C 8.277344 4 8.539062 4.054688 8.78125 4.15625 C 8.855469 4.15625 8.925781 4.148438 9 4.148438 C 10.257812 4.148438 11.425781 4.542969 12.394531 5.210938 L 14 2 Z M 9.558594 7.238281 C 9.191406 7.699219 8.632812 8 8 8 C 7.703125 8 7.425781 7.933594 7.175781 7.816406 C 6.484375 8.355469 6.039062 9.1875 6.039062 10.144531 C 6.039062 10.855469 6.289062 11.492188 6.695312 12 L 9 12 L 11.015625 7.972656 C 10.617188 7.605469 10.117188 7.34375 9.558594 7.238281 Z M 9.558594 7.238281 "/>
<path style=" stroke:none;fill-rule:nonzero;fill:#ff6666;fill-opacity:1;" d="M 9 5 C 6.246094 5 4 7.246094 4 10 C 4 12.753906 6.246094 15 9 15 C 11.753906 15 14 12.753906 14 10 C 14 7.246094 11.753906 5 9 5 Z M 9 6.039062 C 11.191406 6.039062 12.960938 7.808594 12.960938 10 C 12.960938 12.191406 11.191406 13.960938 9 13.960938 C 6.808594 13.960938 5.039062 12.191406 5.039062 10 C 5.039062 7.808594 6.808594 6.039062 9 6.039062 Z M 9 6.039062 "/>
<path style=" stroke:none;fill-rule:evenodd;fill:#ff6666;fill-opacity:1;" d="M 12.355469 12.644531 L 11.644531 13.355469 L 14.144531 15.855469 L 14.855469 15.144531 Z M 12.355469 12.644531 "/>
</g>
</svg>
