
<svg xmlns="http://www.w3.org/2000/svg" xmlns:xlink="http://www.w3.org/1999/xlink" width="16px" height="16px" viewBox="0 0 16 16" version="1.1">
<g id="surface1">
<path style=" stroke:none;fill-rule:nonzero;fill:#ff6666;fill-opacity:1;" d="M 3.992188 4 C 3.925781 4 3.859375 4.007812 3.796875 4.023438 C 1.6875 4.128906 0 5.863281 0 8 C 0 10.207031 1.792969 12 4 12 L 4.007812 12 C 5.394531 12 6.511719 11.296875 7.328125 10.515625 C 6.945312 10.0625 6.605469 9.574219 6.3125 9.054688 C 6.277344 9 6.246094 8.945312 6.21875 8.886719 C 6.203125 8.867188 6.191406 8.84375 6.179688 8.820312 C 5.613281 9.433594 4.859375 10 4.007812 10 L 4 10 C 2.894531 10 2 9.105469 2 8 C 2 6.894531 2.894531 6 4 6 L 4.007812 6 C 5.765625 6 7.109375 8.4375 7.109375 8.4375 C 7.160156 8.539062 7.226562 8.632812 7.304688 8.710938 C 7.417969 8.921875 7.675781 9.445312 8.34375 10.171875 C 9.132812 11.035156 10.359375 12 12 12 C 12.078125 12 12.15625 11.992188 12.234375 11.972656 C 14.324219 11.847656 15.996094 10.125 16 8.007812 C 16.007812 6.941406 15.585938 5.921875 14.828125 5.171875 C 14.082031 4.417969 13.066406 3.996094 12.007812 4 L 12 4 C 10.601562 4 9.496094 4.679688 8.6875 5.445312 C 9.082031 5.914062 9.425781 6.421875 9.71875 6.957031 C 9.742188 6.992188 9.761719 7.027344 9.78125 7.0625 L 9.820312 7.140625 C 10.359375 6.558594 11.101562 6 12 6 C 13.105469 6 14 6.894531 14 8 C 14 9.105469 13.105469 10 12 10 C 11.171875 10 10.40625 9.460938 9.816406 8.820312 C 9.226562 8.179688 8.902344 7.539062 8.902344 7.539062 C 8.855469 7.449219 8.800781 7.367188 8.730469 7.296875 L 8.726562 7.296875 C 8.511719 6.839844 7.089844 4 4.007812 4 Z M 3.992188 4 "/>
</g>
</svg>
