
<svg xmlns="http://www.w3.org/2000/svg" xmlns:xlink="http://www.w3.org/1999/xlink" width="16px" height="16px" viewBox="0 0 16 16" version="1.1">
<g id="surface1">
<path style=" stroke:none;fill-rule:evenodd;fill:#ff6666;fill-opacity:1;" d="M 13.984375 0.00390625 C 13.863281 -0.00390625 13.722656 0.00390625 13.550781 0.0195312 L 5.929688 1.222656 C 5.070312 1.3125 4.976562 1.71875 4.984375 2.222656 L 4.984375 12.402344 C 4.546875 12.113281 4.082031 11.90625 3.457031 11.90625 C 2.65625 11.90625 2.175781 12.214844 1.886719 12.625 C 1.597656 13.035156 1.5 13.550781 1.5 13.949219 C 1.5 14.429688 1.664062 14.941406 2.015625 15.332031 C 2.367188 15.726562 2.910156 16 3.6875 16 C 4.566406 16 5.183594 15.753906 5.535156 15.265625 C 5.808594 14.886719 5.964844 14.375 6.019531 13.746094 C 6.023438 13.667969 6.03125 13.589844 6.035156 13.507812 C 6.039062 13.445312 6.039062 13.398438 6.039062 13.324219 L 6.042969 13.324219 L 6.042969 5.089844 C 6.066406 4.425781 6.660156 4.328125 6.660156 4.328125 L 12.847656 3.351562 C 13.441406 3.167969 13.441406 3.910156 13.441406 3.910156 L 13.441406 11.332031 C 13.003906 11.042969 12.539062 10.835938 11.914062 10.835938 C 11.113281 10.835938 10.632812 11.148438 10.34375 11.554688 C 10.054688 11.964844 9.957031 12.480469 9.957031 12.878906 C 9.957031 13.359375 10.121094 13.875 10.472656 14.265625 C 10.824219 14.65625 11.367188 14.929688 12.144531 14.929688 C 13.023438 14.929688 13.640625 14.683594 13.992188 14.199219 C 14.265625 13.816406 14.421875 13.304688 14.476562 12.675781 C 14.480469 12.597656 14.488281 12.519531 14.492188 12.4375 C 14.496094 12.375 14.496094 12.332031 14.496094 12.253906 L 14.5 12.253906 L 14.5 0.957031 C 14.511719 0.222656 14.351562 0.0273438 13.984375 0.00390625 Z M 13.984375 0.00390625 "/>
</g>
</svg>
