
<svg xmlns="http://www.w3.org/2000/svg" xmlns:xlink="http://www.w3.org/1999/xlink" width="16px" height="16px" viewBox="0 0 16 16" version="1.1">
<g id="surface1">
<path style=" stroke:none;fill-rule:nonzero;fill:#ff6666;fill-opacity:1;" d="M 1.25 0 C 0.800781 -0.0078125 0.300781 0.226562 0.0859375 0.753906 C -0.101562 1.226562 0.046875 1.695312 0.242188 2.039062 C 0.441406 2.382812 0.695312 2.664062 0.792969 2.800781 C 0.976562 3.0625 1.1875 3.328125 1.285156 3.542969 C 1.335938 3.660156 1.351562 3.835938 1.441406 4.078125 C 1.605469 4.539062 1.757812 5.066406 2.003906 5.546875 C 2.117188 5.773438 2.25 6.019531 2.410156 6.242188 C 2.480469 6.339844 2.53125 6.375 2.566406 6.40625 C 2.441406 6.679688 2.4375 6.945312 2.386719 7.105469 C 1.984375 8.398438 2.117188 9.941406 2.730469 10.949219 C 2.820312 11.09375 2.972656 11.335938 3.210938 11.53125 C 3.453125 11.730469 3.84375 11.871094 4.230469 11.710938 C 4.585938 11.566406 4.75 11.214844 4.808594 10.929688 C 4.8125 10.898438 4.8125 10.871094 4.820312 10.839844 C 4.820312 10.84375 4.824219 10.847656 4.824219 10.851562 C 5.179688 11.433594 5.757812 11.984375 6.261719 12.371094 C 6.429688 12.5 6.644531 12.886719 7.113281 13.050781 C 7.214844 13.085938 7.328125 13.070312 7.417969 13.007812 C 7.503906 12.945312 7.554688 12.839844 7.554688 12.730469 L 7.554688 12.707031 C 7.554688 12.578125 7.484375 12.464844 7.375 12.40625 C 7.289062 12.316406 7.207031 12.265625 7.191406 12.25 C 7.015625 12.074219 6.820312 11.851562 6.679688 11.660156 C 6.261719 11.078125 5.882812 10.4375 5.542969 9.765625 C 5.382812 9.457031 5.242188 9.105469 5.097656 8.769531 C 5.097656 8.761719 5.082031 8.691406 5.050781 8.59375 C 5.023438 8.492188 4.972656 8.328125 4.796875 8.222656 C 4.644531 8.132812 4.449219 8.179688 4.351562 8.332031 C 4.234375 8.519531 3.980469 8.734375 3.824219 9.109375 C 3.6875 9.441406 3.632812 9.789062 3.589844 10.136719 C 3.570312 10.089844 3.554688 10.058594 3.53125 10.007812 C 3.265625 9.359375 3.203125 8.175781 3.445312 7.40625 C 3.46875 7.339844 3.574219 7.082031 3.652344 6.832031 C 3.691406 6.707031 3.726562 6.578125 3.746094 6.445312 C 3.761719 6.3125 3.78125 6.164062 3.675781 5.992188 C 3.6875 6.019531 3.699219 6.035156 3.710938 6.066406 L 3.671875 5.984375 C 3.550781 5.679688 3.324219 5.542969 3.277344 5.480469 C 3.15625 5.3125 3.023438 5.066406 2.933594 4.863281 C 2.699219 4.328125 2.582031 3.664062 2.289062 3.019531 C 2.136719 2.683594 1.90625 2.386719 1.734375 2.140625 C 1.511719 1.828125 1.320312 1.644531 1.195312 1.371094 C 1.175781 1.328125 1.15625 1.277344 1.148438 1.246094 C 1.164062 1.242188 1.199219 1.234375 1.246094 1.246094 C 1.347656 1.269531 1.46875 1.3125 1.527344 1.339844 C 1.902344 1.496094 2.195312 1.640625 2.496094 1.84375 C 2.574219 1.894531 2.738281 2.144531 3.085938 2.25 C 3.117188 2.257812 3.148438 2.261719 3.175781 2.261719 L 3.390625 2.261719 C 3.777344 2.339844 4.125 2.308594 4.320312 2.367188 C 4.835938 2.527344 5.304688 2.777344 5.738281 3.058594 C 7.058594 3.90625 8.136719 5.117188 8.878906 6.5625 C 8.980469 6.761719 9.03125 6.980469 9.152344 7.269531 C 9.382812 7.800781 9.660156 8.332031 9.871094 8.820312 C 10.085938 9.320312 10.304688 9.855469 10.644531 10.316406 C 10.832031 10.570312 11.066406 10.625 11.292969 10.703125 C 11.519531 10.78125 11.753906 10.84375 11.851562 10.886719 C 12.09375 10.988281 12.414062 11.089844 12.523438 11.15625 C 12.867188 11.363281 13.207031 11.621094 13.550781 11.867188 C 13.566406 11.878906 13.582031 11.886719 13.597656 11.898438 C 13.125 11.9375 12.6875 12.011719 12.304688 12.175781 C 12.285156 12.1875 12.183594 12.203125 12.050781 12.257812 C 11.984375 12.285156 11.902344 12.324219 11.828125 12.398438 C 11.75 12.472656 11.691406 12.59375 11.675781 12.710938 C 11.664062 12.8125 11.695312 12.914062 11.761719 12.988281 C 11.746094 12.96875 11.769531 13.070312 11.890625 13.269531 C 12.039062 13.519531 12.253906 13.816406 12.515625 14.019531 C 12.730469 14.179688 12.957031 14.363281 13.210938 14.519531 C 13.667969 14.804688 14.121094 14.953125 14.46875 15.171875 C 14.675781 15.308594 14.90625 15.492188 15.140625 15.667969 C 15.175781 15.695312 15.285156 15.882812 15.558594 15.980469 C 15.660156 16.015625 15.773438 16 15.859375 15.9375 C 15.949219 15.875 16 15.773438 16 15.664062 L 16 15.640625 C 16 15.5625 15.972656 15.488281 15.925781 15.429688 C 15.925781 15.425781 15.90625 15.300781 15.773438 15.109375 C 15.761719 15.089844 15.75 15.074219 15.734375 15.0625 L 15.425781 14.746094 L 15.457031 14.78125 C 15.128906 14.339844 14.722656 13.960938 14.292969 13.644531 C 14.089844 13.5 13.835938 13.363281 13.613281 13.21875 C 13.574219 13.195312 13.550781 13.171875 13.519531 13.144531 C 13.570312 13.128906 13.640625 13.117188 13.683594 13.105469 C 13.980469 13.023438 14.300781 13.046875 14.726562 12.9375 C 14.730469 12.933594 14.734375 12.933594 14.734375 12.933594 C 14.902344 12.886719 15.070312 12.839844 15.234375 12.789062 C 15.378906 12.75 15.476562 12.617188 15.476562 12.464844 L 15.476562 12.367188 C 15.476562 12.28125 15.441406 12.195312 15.378906 12.132812 C 15.242188 11.984375 15.105469 11.714844 14.835938 11.480469 C 14.296875 11.011719 13.703125 10.539062 13.085938 10.144531 C 12.703125 9.898438 12.28125 9.761719 11.960938 9.59375 C 11.855469 9.539062 11.769531 9.519531 11.710938 9.496094 C 11.683594 9.488281 11.664062 9.476562 11.65625 9.472656 C 11.527344 9.292969 11.425781 9.023438 11.273438 8.722656 C 10.980469 8.148438 10.691406 7.515625 10.429688 6.902344 C 10.257812 6.503906 10.140625 6.078125 9.882812 5.648438 C 8.78125 3.800781 7.558594 2.652344 5.726562 1.558594 C 5.273438 1.292969 4.78125 1.203125 4.300781 1.085938 C 4.28125 1.082031 4.265625 1.082031 4.246094 1.078125 C 4.011719 1.0625 3.777344 1.050781 3.539062 1.035156 C 3.515625 1.019531 3.476562 0.992188 3.414062 0.941406 C 3.339844 0.875 3.257812 0.792969 3.140625 0.71875 C 2.746094 0.464844 2.003906 0.0117188 1.25 0 Z M 1.183594 1.203125 C 1.152344 1.226562 1.140625 1.238281 1.148438 1.238281 C 1.148438 1.238281 1.144531 1.234375 1.144531 1.230469 C 1.136719 1.199219 1.152344 1.21875 1.125 1.265625 C 1.128906 1.253906 1.136719 1.242188 1.144531 1.230469 C 1.160156 1.222656 1.171875 1.214844 1.183594 1.203125 Z M 4.648438 3.574219 C 4.375 3.570312 4.1875 3.605469 3.984375 3.648438 L 3.984375 3.6875 L 4.019531 3.6875 C 4.148438 3.957031 4.375 4.128906 4.535156 4.363281 C 4.660156 4.625 4.78125 4.886719 4.90625 5.148438 C 4.917969 5.136719 4.929688 5.125 4.941406 5.113281 C 5.167969 4.949219 5.277344 4.6875 5.273438 4.285156 C 5.183594 4.1875 5.167969 4.066406 5.089844 3.949219 C 4.984375 3.792969 4.78125 3.707031 4.648438 3.574219 Z M 4.648438 3.574219 "/>
</g>
</svg>
