
<svg xmlns="http://www.w3.org/2000/svg" xmlns:xlink="http://www.w3.org/1999/xlink" width="16px" height="16px" viewBox="0 0 16 16" version="1.1">
<g id="surface1">
<path style=" stroke:none;fill-rule:nonzero;fill:#ff6666;fill-opacity:1;" d="M 13.808594 16 L 1.617188 16 C 1.355469 16 0.976562 15.816406 0.976562 15.488281 C 0.976562 15.410156 1.003906 15.339844 1.050781 15.28125 C 3.058594 12.882812 5.0625 10.496094 7.183594 7.996094 C 5.144531 5.5 3.097656 3.011719 1.050781 0.523438 C 0.972656 0.429688 0.953125 0.296875 1.007812 0.183594 C 1.058594 0.0703125 1.171875 0 1.296875 0 L 13.746094 0 C 13.921875 0 14.066406 0.144531 14.066406 0.320312 L 14.066406 4 C 14.066406 4.175781 13.921875 4.320312 13.746094 4.320312 L 13.328125 4.320312 C 13 4.320312 12.800781 4.164062 12.730469 3.859375 C 12.714844 3.800781 12.703125 3.742188 12.691406 3.683594 C 12.6875 3.652344 12.683594 3.621094 12.671875 3.589844 C 12.289062 2.3125 12.164062 1.886719 10.511719 1.886719 C 9.367188 1.914062 7.40625 1.917969 6.363281 1.921875 L 7.390625 3.269531 C 8.355469 4.53125 9.296875 5.769531 10.316406 7.101562 C 10.40625 7.21875 10.40625 7.386719 10.3125 7.5 L 5.6875 13.121094 L 11.320312 13.121094 C 12.328125 13.121094 13.003906 12.683594 13.386719 11.777344 C 13.398438 11.742188 13.425781 11.679688 13.457031 11.617188 C 13.476562 11.582031 13.492188 11.550781 13.507812 11.515625 C 13.660156 10.976562 14.070312 10.648438 14.597656 10.648438 C 14.699219 10.648438 14.765625 10.660156 14.765625 10.660156 C 14.933594 10.699219 15.050781 10.863281 15.019531 11.035156 L 14.125 15.738281 C 14.09375 15.890625 13.960938 16 13.808594 16 Z M 13.808594 16 "/>
</g>
</svg>
