
<svg xmlns="http://www.w3.org/2000/svg" xmlns:xlink="http://www.w3.org/1999/xlink" width="16px" height="16px" viewBox="0 0 16 16" version="1.1">
<g id="surface1">
<path style=" stroke:none;fill-rule:nonzero;fill:#ff6666;fill-opacity:1;" d="M 1.15625 8.269531 L 1.238281 8.8125 L 0.148438 8.976562 L 0.0664062 8.429688 C 0.0234375 8.136719 0 7.835938 0 7.535156 C 0 7.070312 0.0507812 6.609375 0.148438 6.152344 C 0.242188 5.703125 0.378906 5.261719 0.550781 4.832031 C 0.890625 3.992188 1.355469 3.207031 1.929688 2.507812 C 2.203125 2.171875 2.496094 1.859375 2.816406 1.574219 C 3.117188 1.300781 3.441406 1.054688 3.785156 0.84375 C 4.105469 0.640625 4.449219 0.476562 4.808594 0.355469 C 5.148438 0.234375 5.503906 0.175781 5.863281 0.171875 C 6.0625 0.171875 6.265625 0.191406 6.460938 0.238281 C 6.660156 0.28125 6.847656 0.355469 7.027344 0.449219 C 7.3125 0.59375 7.566406 0.78125 7.792969 1.003906 C 8.003906 1.214844 8.179688 1.457031 8.3125 1.722656 C 8.441406 1.980469 8.53125 2.253906 8.585938 2.535156 C 8.640625 2.816406 8.667969 3.105469 8.664062 3.390625 C 8.664062 3.601562 8.652344 3.8125 8.632812 4.019531 C 8.609375 4.234375 8.578125 4.445312 8.539062 4.660156 C 8.4375 5.234375 8.296875 5.804688 8.125 6.367188 C 7.59375 6.347656 7.058594 6.386719 6.535156 6.480469 C 6.195312 6.542969 5.859375 6.636719 5.53125 6.757812 C 5.242188 6.867188 4.964844 7 4.703125 7.160156 C 4.464844 7.308594 4.242188 7.480469 4.035156 7.671875 C 3.664062 8.023438 3.367188 8.449219 3.164062 8.921875 C 2.976562 9.375 2.878906 9.863281 2.878906 10.359375 C 2.878906 10.84375 2.96875 11.320312 3.144531 11.769531 C 3.328125 12.242188 3.601562 12.679688 3.945312 13.054688 C 4.324219 13.472656 4.78125 13.8125 5.285156 14.066406 C 5.570312 14.210938 5.863281 14.328125 6.167969 14.421875 C 6.503906 14.523438 6.847656 14.597656 7.195312 14.644531 C 7.585938 14.699219 7.976562 14.726562 8.367188 14.726562 C 8.746094 14.726562 9.125 14.699219 9.496094 14.644531 C 9.847656 14.59375 10.191406 14.519531 10.527344 14.417969 C 10.839844 14.320312 11.144531 14.203125 11.441406 14.058594 C 11.710938 13.925781 11.96875 13.769531 12.214844 13.59375 C 12.4375 13.429688 12.644531 13.246094 12.832031 13.039062 C 13.007812 12.851562 13.15625 12.648438 13.285156 12.425781 C 13.402344 12.21875 13.496094 11.996094 13.558594 11.765625 C 13.621094 11.539062 13.652344 11.304688 13.652344 11.070312 C 13.648438 10.703125 13.578125 10.34375 13.445312 10.003906 C 13.367188 9.804688 13.273438 9.617188 13.164062 9.4375 C 13.039062 9.234375 12.902344 9.039062 12.75 8.855469 C 12.574219 8.648438 12.386719 8.449219 12.1875 8.265625 C 11.960938 8.054688 11.71875 7.859375 11.472656 7.675781 C 11.1875 7.46875 10.890625 7.273438 10.589844 7.09375 C 10.144531 6.832031 9.6875 6.59375 9.214844 6.382812 C 9.210938 6 9.238281 5.621094 9.300781 5.242188 C 9.34375 4.980469 9.402344 4.71875 9.472656 4.464844 C 9.609375 3.949219 9.800781 3.449219 10.039062 2.972656 C 10.152344 2.746094 10.277344 2.53125 10.417969 2.324219 C 10.550781 2.128906 10.699219 1.945312 10.863281 1.78125 C 11.019531 1.617188 11.199219 1.480469 11.398438 1.375 C 11.605469 1.261719 11.835938 1.199219 12.070312 1.195312 C 12.167969 1.195312 12.261719 1.207031 12.355469 1.226562 C 12.636719 1.289062 12.902344 1.390625 13.15625 1.527344 C 13.40625 1.667969 13.644531 1.835938 13.859375 2.027344 C 14.085938 2.226562 14.289062 2.441406 14.476562 2.679688 C 14.667969 2.921875 14.839844 3.179688 14.996094 3.449219 C 15.316406 4.015625 15.5625 4.617188 15.730469 5.246094 C 15.90625 5.890625 15.996094 6.550781 16 7.21875 C 16.003906 7.773438 15.929688 8.328125 15.785156 8.863281 L 15.640625 9.394531 L 14.574219 9.105469 L 14.71875 8.570312 C 14.839844 8.132812 14.898438 7.679688 14.894531 7.222656 C 14.894531 6.652344 14.816406 6.085938 14.667969 5.535156 C 14.523438 4.996094 14.3125 4.480469 14.035156 3.996094 C 13.910156 3.773438 13.765625 3.5625 13.605469 3.359375 C 13.464844 3.179688 13.304688 3.007812 13.128906 2.851562 C 12.972656 2.714844 12.804688 2.597656 12.625 2.496094 C 12.464844 2.410156 12.292969 2.34375 12.117188 2.304688 C 12.105469 2.300781 12.09375 2.300781 12.082031 2.300781 C 12.027344 2.304688 11.972656 2.316406 11.925781 2.34375 C 11.824219 2.398438 11.730469 2.46875 11.652344 2.550781 C 11.535156 2.671875 11.429688 2.800781 11.335938 2.941406 C 11.222656 3.109375 11.117188 3.285156 11.027344 3.464844 C 10.820312 3.878906 10.65625 4.308594 10.535156 4.753906 C 10.476562 4.972656 10.425781 5.199219 10.390625 5.425781 C 10.375 5.519531 10.359375 5.609375 10.351562 5.703125 C 10.621094 5.84375 10.886719 5.988281 11.148438 6.144531 C 11.484375 6.339844 11.808594 6.554688 12.121094 6.785156 C 12.40625 6.992188 12.679688 7.21875 12.9375 7.453125 C 13.171875 7.671875 13.390625 7.902344 13.597656 8.148438 C 13.785156 8.375 13.953125 8.613281 14.105469 8.863281 C 14.246094 9.097656 14.367188 9.34375 14.46875 9.59375 C 14.65625 10.0625 14.753906 10.5625 14.757812 11.066406 C 14.757812 11.402344 14.710938 11.734375 14.625 12.058594 C 14.535156 12.378906 14.40625 12.6875 14.242188 12.976562 C 14.074219 13.265625 13.871094 13.539062 13.644531 13.789062 C 13.40625 14.046875 13.144531 14.277344 12.863281 14.484375 C 12.566406 14.699219 12.253906 14.890625 11.921875 15.050781 C 11.578125 15.21875 11.21875 15.359375 10.847656 15.472656 C 10.457031 15.589844 10.058594 15.679688 9.65625 15.738281 C 9.230469 15.800781 8.796875 15.828125 8.367188 15.828125 C 7.925781 15.828125 7.484375 15.800781 7.050781 15.738281 C 6.640625 15.683594 6.238281 15.597656 5.847656 15.476562 C 5.484375 15.367188 5.128906 15.222656 4.789062 15.054688 C 4.164062 14.738281 3.601562 14.316406 3.132812 13.800781 C 2.695312 13.324219 2.351562 12.773438 2.113281 12.171875 C 1.890625 11.59375 1.773438 10.980469 1.773438 10.359375 C 1.773438 9.71875 1.898438 9.085938 2.148438 8.492188 C 2.410156 7.878906 2.796875 7.324219 3.28125 6.867188 C 3.539062 6.625 3.824219 6.40625 4.125 6.222656 C 4.449219 6.023438 4.789062 5.855469 5.148438 5.722656 C 5.535156 5.578125 5.933594 5.46875 6.339844 5.394531 C 6.652344 5.339844 6.964844 5.300781 7.28125 5.277344 C 7.347656 5.007812 7.40625 4.738281 7.453125 4.464844 C 7.488281 4.277344 7.515625 4.09375 7.535156 3.90625 C 7.550781 3.734375 7.5625 3.558594 7.5625 3.386719 C 7.5625 3.171875 7.542969 2.953125 7.503906 2.742188 C 7.46875 2.558594 7.40625 2.382812 7.324219 2.214844 C 7.246094 2.058594 7.140625 1.914062 7.015625 1.785156 C 6.867188 1.644531 6.703125 1.519531 6.519531 1.429688 C 6.421875 1.375 6.316406 1.335938 6.210938 1.3125 C 6.097656 1.285156 5.984375 1.273438 5.871094 1.273438 C 5.628906 1.277344 5.394531 1.316406 5.167969 1.398438 C 4.886719 1.492188 4.621094 1.621094 4.371094 1.777344 C 4.082031 1.957031 3.808594 2.160156 3.558594 2.390625 C 3.28125 2.640625 3.019531 2.914062 2.785156 3.203125 C 2.28125 3.820312 1.871094 4.507812 1.574219 5.246094 C 1.425781 5.613281 1.308594 5.996094 1.226562 6.382812 C 1.148438 6.761719 1.105469 7.148438 1.105469 7.539062 C 1.105469 7.78125 1.121094 8.027344 1.15625 8.269531 Z M 1.15625 8.269531 "/>
</g>
</svg>
