
<svg xmlns="http://www.w3.org/2000/svg" xmlns:xlink="http://www.w3.org/1999/xlink" width="16px" height="16px" viewBox="0 0 16 16" version="1.1">
<g id="surface1">
<path style=" stroke:none;fill-rule:nonzero;fill:#ff6666;fill-opacity:1;" d="M 8.699219 2.328125 C 8.425781 2.910156 7.902344 3.144531 7.253906 3.117188 C 6.324219 3.078125 5.433594 3.609375 4.878906 4.359375 C 4.527344 4.839844 4.082031 5.445312 3.425781 5.34375 C 2.863281 5.257812 2.21875 5.660156 2.777344 6.195312 C 3.167969 6.570312 3.757812 6.539062 4.113281 6.921875 C 4.789062 7.644531 5.789062 7.921875 6.75 8.011719 C 6.898438 9.003906 7.449219 10.222656 8.507812 10.367188 C 9.46875 10.496094 8.671875 9.390625 8.753906 8.855469 C 8.886719 8.039062 9.527344 8.667969 9.914062 8.839844 C 10.410156 9.0625 10.929688 9.386719 11.167969 9.878906 C 11.589844 10.746094 10.292969 10.277344 9.941406 10.636719 C 9.515625 11.070312 9.964844 11.828125 10.417969 12.113281 C 10.921875 12.425781 11.339844 12.816406 11.507812 13.414062 C 11.660156 13.933594 11.757812 15.34375 12.464844 14.925781 C 13.140625 14.523438 13.21875 13.546875 13.304688 12.789062 C 13.386719 12.054688 13.324219 11.292969 13.015625 10.605469 C 13.824219 8.894531 13.417969 6.789062 12.246094 5.347656 C 11.839844 4.847656 11.371094 4.394531 10.820312 4.058594 C 11.195312 3.625 11.285156 2.984375 11.035156 2.492188 C 10.742188 1.910156 11.917969 1.085938 10.945312 1.007812 C 10.054688 0.929688 9.246094 1.558594 8.742188 2.277344 C 8.257812 2.972656 8.726562 2.296875 8.722656 2.304688 C 8.714844 2.3125 8.9375 1.832031 8.699219 2.328125 Z M 8.699219 2.328125 "/>
</g>
</svg>
