
<svg xmlns="http://www.w3.org/2000/svg" xmlns:xlink="http://www.w3.org/1999/xlink" width="16px" height="16px" viewBox="0 0 16 16" version="1.1">
<g id="surface1">
<path style=" stroke:none;fill-rule:nonzero;fill:#ff6666;fill-opacity:1;" d="M 6.9375 0 C 6.492188 0 6.132812 0.425781 6.132812 0.953125 L 6.132812 2.246094 C 6.132812 2.296875 6.140625 2.34375 6.144531 2.390625 C 4.882812 2.800781 4.003906 3.699219 4 4.800781 L 4 15.238281 C 4 15.660156 4.332031 16 4.746094 16 L 10.71875 16 C 11.132812 16 11.46875 15.660156 11.46875 15.238281 L 11.46875 4.800781 L 11.464844 4.800781 C 11.460938 3.699219 10.585938 2.800781 9.320312 2.390625 C 9.328125 2.34375 9.332031 2.296875 9.332031 2.246094 L 9.332031 0.953125 C 9.332031 0.425781 8.972656 0 8.527344 0 Z M 7.734375 7.46875 C 7.945312 7.46875 8.148438 7.59375 8.300781 7.816406 C 8.449219 8.042969 8.53125 8.347656 8.53125 8.667969 C 8.53125 8.703125 8.53125 8.738281 8.53125 8.769531 L 9.746094 7.527344 L 10.03125 7.804688 L 8.265625 9.605469 L 9.867188 9.605469 L 9.867188 10 L 8.570312 10 C 8.683594 10.191406 8.757812 10.417969 8.785156 10.660156 L 10.03125 11.929688 L 9.746094 12.203125 L 8.765625 11.203125 C 8.648438 11.828125 8.222656 12.265625 7.734375 12.265625 C 7.242188 12.265625 6.816406 11.828125 6.699219 11.203125 L 5.71875 12.203125 L 5.4375 11.929688 L 6.679688 10.660156 C 6.707031 10.417969 6.78125 10.191406 6.898438 10 L 5.601562 10 L 5.601562 9.605469 L 7.203125 9.605469 L 5.4375 7.804688 L 5.71875 7.527344 L 6.9375 8.769531 C 6.933594 8.738281 6.933594 8.703125 6.933594 8.667969 C 6.933594 8.003906 7.292969 7.46875 7.734375 7.46875 Z M 7.734375 7.46875 "/>
</g>
</svg>
