
<svg xmlns="http://www.w3.org/2000/svg" xmlns:xlink="http://www.w3.org/1999/xlink" width="16px" height="16px" viewBox="0 0 16 16" version="1.1">
<g id="surface1">
<path style=" stroke:none;fill-rule:evenodd;fill:#ff6666;fill-opacity:1;" d="M 9.339844 16 C 10.632812 15.960938 11.824219 15.132812 12.261719 13.835938 C 12.816406 12.175781 11.925781 10.378906 10.265625 9.820312 C 10.070312 9.753906 9.878906 9.710938 9.683594 9.683594 C 9.585938 9.675781 9.488281 9.652344 9.390625 9.625 C 9 9.496094 8.714844 9.183594 8.597656 8.8125 C 8.476562 8.539062 8.453125 8.21875 8.554688 7.914062 C 8.609375 7.757812 8.6875 7.617188 8.789062 7.5 C 8.796875 7.492188 8.804688 7.480469 8.8125 7.46875 C 8.820312 7.460938 8.832031 7.449219 8.839844 7.441406 C 9.53125 6.8125 10.007812 5.953125 10.148438 4.984375 C 10.15625 4.925781 10.171875 4.871094 10.191406 4.816406 C 10.410156 4.160156 11.117188 3.804688 11.773438 4.023438 C 11.886719 4.0625 11.988281 4.117188 12.082031 4.175781 L 12.085938 4.175781 C 12.253906 4.289062 12.433594 4.378906 12.632812 4.445312 C 13.828125 4.839844 15.121094 4.191406 15.515625 2.996094 C 15.910156 1.800781 15.261719 0.511719 14.066406 0.117188 C 12.949219 -0.253906 11.75 0.285156 11.273438 1.332031 C 11.03125 1.941406 10.347656 2.265625 9.714844 2.054688 C 9.488281 1.980469 9.300781 1.847656 9.15625 1.675781 C 8.402344 0.824219 7.300781 0.285156 6.074219 0.285156 C 3.804688 0.285156 1.964844 2.128906 1.964844 4.398438 C 1.964844 5.25 2.222656 6.039062 2.664062 6.691406 C 2.796875 6.925781 2.859375 7.199219 2.820312 7.484375 C 2.792969 7.675781 2.726562 7.851562 2.625 8.003906 L 2.367188 8.347656 C 2.183594 8.570312 1.929688 8.726562 1.644531 8.78125 L 1.640625 8.785156 C 1 8.917969 0.480469 9.441406 0.386719 10.125 C 0.265625 10.992188 0.867188 11.792969 1.734375 11.914062 C 2.605469 12.035156 3.410156 11.429688 3.53125 10.5625 C 3.554688 10.386719 3.550781 10.207031 3.515625 10.039062 C 3.503906 9.929688 3.5 9.820312 3.515625 9.707031 C 3.542969 9.507812 3.617188 9.324219 3.722656 9.171875 L 3.972656 8.835938 C 4.238281 8.515625 4.660156 8.335938 5.105469 8.398438 C 5.125 8.398438 5.148438 8.40625 5.167969 8.40625 C 5.414062 8.460938 5.660156 8.488281 5.917969 8.503906 C 5.9375 8.503906 5.953125 8.503906 5.96875 8.507812 C 5.984375 8.507812 6 8.507812 6.019531 8.507812 C 6.117188 8.515625 6.214844 8.53125 6.308594 8.5625 C 6.703125 8.695312 6.984375 9 7.101562 9.367188 C 7.222656 9.644531 7.25 9.960938 7.144531 10.269531 C 7.101562 10.40625 7.03125 10.53125 6.945312 10.640625 C 6.640625 10.964844 6.398438 11.359375 6.25 11.808594 C 5.691406 13.46875 6.585938 15.269531 8.246094 15.824219 C 8.609375 15.945312 8.980469 15.996094 9.339844 15.988281 Z M 9.222656 14.964844 C 9.011719 14.960938 8.800781 14.925781 8.59375 14.855469 C 7.476562 14.480469 6.875 13.273438 7.25 12.15625 C 7.625 11.042969 8.832031 10.441406 9.949219 10.816406 C 11.0625 11.1875 11.664062 12.398438 11.289062 13.511719 C 10.988281 14.417969 10.128906 14.984375 9.222656 14.964844 Z M 2.007812 11.273438 C 1.945312 11.277344 1.886719 11.273438 1.824219 11.265625 C 1.320312 11.199219 0.96875 10.730469 1.039062 10.226562 C 1.109375 9.722656 1.574219 9.375 2.078125 9.441406 C 2.582031 9.507812 2.933594 9.976562 2.863281 10.480469 C 2.800781 10.921875 2.433594 11.246094 2.007812 11.273438 Z M 6.074219 7.308594 C 4.46875 7.308594 3.167969 6.007812 3.167969 4.40625 C 3.167969 2.800781 4.46875 1.496094 6.074219 1.496094 C 7.679688 1.496094 8.980469 2.800781 8.980469 4.40625 C 8.980469 6.007812 7.679688 7.308594 6.074219 7.308594 Z M 13.40625 3.6875 C 13.359375 3.6875 13.3125 3.683594 13.261719 3.683594 C 12.488281 3.636719 11.894531 2.976562 11.941406 2.203125 C 11.984375 1.425781 12.648438 0.839844 13.421875 0.882812 C 14.195312 0.929688 14.789062 1.589844 14.742188 2.363281 C 14.703125 3.089844 14.117188 3.65625 13.40625 3.6875 Z M 13.40625 3.6875 "/>
</g>
</svg>
