
<svg xmlns="http://www.w3.org/2000/svg" xmlns:xlink="http://www.w3.org/1999/xlink" width="16px" height="16px" viewBox="0 0 16 16" version="1.1">
<g id="surface1">
<path style=" stroke:none;fill-rule:evenodd;fill:#ff6666;fill-opacity:1;" d="M 1.558594 12.945312 C 1.636719 12.628906 1.800781 12.355469 2.117188 12.265625 C 2.925781 12.039062 2.265625 10.894531 2.296875 10.863281 C 2.328125 10.832031 2.675781 11.292969 2.828125 11.425781 C 3.214844 11.765625 3.445312 11.507812 3.855469 11.386719 C 4.597656 11.164062 4.910156 10.40625 4.308594 9.019531 C 4.113281 8.566406 3.894531 7.910156 3.828125 7.675781 C 3.613281 6.945312 3.703125 6.519531 3.96875 7.023438 C 4.230469 7.527344 4.953125 8.273438 5.550781 8.183594 C 6.234375 8.085938 6.695312 7.273438 6.800781 6.429688 C 6.804688 6.074219 6.808594 5.695312 6.585938 5.214844 C 6.253906 4.496094 6.230469 4.121094 6.476562 3.613281 L 6.648438 3.257812 L 6.757812 3.6875 C 6.894531 4.230469 7.277344 4.488281 7.878906 4.714844 C 8.164062 4.820312 8.488281 5.019531 8.695312 5.214844 C 9.039062 5.546875 9.113281 6.175781 8.882812 6.808594 C 8.8125 7.015625 8.710938 7.273438 8.5625 7.628906 C 7.953125 9.109375 7.953125 9.621094 8.5625 9.976562 C 8.964844 10.214844 9.851562 10.195312 10.433594 9.945312 C 11.140625 9.636719 11.394531 9.054688 11.394531 8.089844 C 11.394531 7.597656 11.398438 7.589844 11.546875 7.722656 C 11.628906 7.796875 11.832031 8.128906 11.996094 8.460938 C 12.363281 9.199219 12.398438 9.769531 12.117188 10.390625 C 11.90625 10.855469 12.179688 11.066406 12.480469 11.066406 C 12.632812 11.066406 12.804688 10.953125 13.078125 10.675781 C 13.292969 10.457031 13.5 10.28125 13.539062 10.28125 C 13.613281 10.28125 13.570312 11.03125 13.460938 11.65625 C 13.453125 11.691406 14.15625 12.289062 14.5 12.703125 C 14.507812 12.671875 14.515625 12.636719 14.519531 12.601562 C 14.550781 12.4375 14.574219 12.269531 14.59375 12.101562 C 14.617188 11.898438 14.632812 11.695312 14.644531 11.488281 C 14.660156 11.25 14.667969 11.007812 14.671875 10.769531 C 14.679688 10.492188 14.683594 10.214844 14.683594 9.9375 L 14.683594 6.0625 C 14.683594 5.785156 14.679688 5.507812 14.671875 5.230469 C 14.667969 4.992188 14.660156 4.75 14.644531 4.511719 C 14.632812 4.304688 14.617188 4.101562 14.59375 3.898438 C 14.574219 3.730469 14.550781 3.5625 14.519531 3.398438 C 14.496094 3.265625 14.464844 3.136719 14.429688 3.007812 C 14.398438 2.910156 14.363281 2.816406 14.324219 2.726562 C 14.296875 2.660156 14.261719 2.597656 14.21875 2.539062 C 14.191406 2.496094 14.15625 2.453125 14.117188 2.414062 C 14.078125 2.378906 14.035156 2.34375 13.992188 2.3125 C 13.933594 2.273438 13.871094 2.238281 13.804688 2.210938 C 13.714844 2.167969 13.621094 2.132812 13.523438 2.105469 C 13.394531 2.066406 13.265625 2.035156 13.132812 2.011719 C 12.96875 1.980469 12.800781 1.957031 12.632812 1.9375 C 12.425781 1.917969 12.222656 1.898438 12.019531 1.886719 C 11.777344 1.875 11.535156 1.863281 11.296875 1.859375 C 11.019531 1.855469 10.742188 1.851562 10.464844 1.851562 L 5.535156 1.851562 C 5.257812 1.851562 4.980469 1.855469 4.703125 1.859375 C 4.464844 1.863281 4.222656 1.875 3.980469 1.886719 C 3.777344 1.898438 3.574219 1.917969 3.367188 1.9375 C 3.199219 1.957031 3.03125 1.980469 2.867188 2.011719 C 2.734375 2.035156 2.605469 2.066406 2.476562 2.105469 C 2.378906 2.132812 2.285156 2.167969 2.195312 2.210938 C 2.128906 2.238281 2.066406 2.273438 2.007812 2.3125 C 1.964844 2.34375 1.921875 2.378906 1.882812 2.414062 C 1.84375 2.453125 1.808594 2.496094 1.78125 2.539062 C 1.738281 2.597656 1.703125 2.660156 1.675781 2.726562 C 1.636719 2.816406 1.601562 2.910156 1.570312 3.007812 C 1.535156 3.136719 1.503906 3.265625 1.480469 3.398438 C 1.449219 3.5625 1.425781 3.730469 1.40625 3.898438 C 1.382812 4.101562 1.367188 4.304688 1.355469 4.511719 C 1.339844 4.75 1.332031 4.992188 1.328125 5.230469 C 1.320312 5.507812 1.316406 5.785156 1.316406 6.0625 L 1.316406 9.9375 C 1.316406 10.214844 1.320312 10.492188 1.328125 10.769531 C 1.332031 11.007812 1.339844 11.25 1.355469 11.488281 C 1.367188 11.695312 1.382812 11.898438 1.40625 12.101562 C 1.425781 12.269531 1.449219 12.4375 1.480469 12.601562 C 1.5 12.71875 1.527344 12.832031 1.558594 12.945312 Z M 10.464844 0.53125 C 15.308594 0.53125 16 1.222656 16 6.0625 L 16 9.9375 C 16 14.777344 15.308594 15.46875 10.464844 15.46875 L 5.535156 15.46875 C 0.691406 15.46875 0 14.777344 0 9.9375 L 0 6.0625 C 0 1.222656 0.691406 0.53125 5.535156 0.53125 Z M 10.464844 0.53125 "/>
</g>
</svg>
