
<svg xmlns="http://www.w3.org/2000/svg" xmlns:xlink="http://www.w3.org/1999/xlink" width="16px" height="16px" viewBox="0 0 16 16" version="1.1">
<g id="surface1">
<path style=" stroke:none;fill-rule:nonzero;fill:#ff6666;fill-opacity:1;" d="M 7.824219 0 C 7.492188 0 7.152344 0.0625 6.832031 0.1875 L 0.507812 2.65625 C 0.199219 2.777344 0.0195312 3.078125 0.0078125 3.371094 C 0.0078125 3.410156 0.015625 3.445312 0.0195312 3.484375 L 0 3.484375 L 0.0117188 11.5625 C 0.015625 12.121094 0.332031 12.628906 0.828125 12.863281 L 6.910156 15.757812 C 7.59375 16.082031 8.382812 16.082031 9.0625 15.757812 L 15.144531 12.875 C 15.667969 12.625 16 12.09375 16 11.511719 L 15.992188 3.503906 L 15.976562 3.503906 C 15.976562 3.484375 15.992188 3.46875 15.992188 3.449219 C 15.988281 3.214844 15.839844 2.96875 15.59375 2.871094 L 8.8125 0.191406 C 8.496094 0.0625 8.160156 0 7.824219 0 Z M 7.824219 0.742188 C 8.070312 0.742188 8.316406 0.789062 8.554688 0.882812 L 15.09375 3.46875 L 8.558594 6.410156 C 8.039062 6.644531 7.445312 6.636719 6.925781 6.390625 L 0.765625 3.449219 C 0.730469 3.433594 0.734375 3.425781 0.734375 3.402344 C 0.734375 3.375 0.730469 3.363281 0.765625 3.347656 L 7.09375 0.878906 C 7.328125 0.789062 7.578125 0.742188 7.824219 0.742188 Z M 15.265625 4.203125 L 15.269531 11.511719 C 15.269531 11.808594 15.101562 12.078125 14.835938 12.203125 L 8.753906 15.085938 C 8.601562 15.15625 8.441406 15.199219 8.28125 15.226562 L 8.238281 7.273438 C 8.449219 7.238281 8.65625 7.179688 8.851562 7.089844 Z M 0.730469 4.253906 L 6.617188 7.066406 C 6.902344 7.199219 7.203125 7.265625 7.507812 7.296875 L 7.550781 15.199219 C 7.4375 15.171875 7.328125 15.136719 7.21875 15.085938 L 1.140625 12.195312 C 0.898438 12.078125 0.746094 11.832031 0.742188 11.5625 Z M 0.730469 4.253906 "/>
</g>
</svg>
