
<svg xmlns="http://www.w3.org/2000/svg" xmlns:xlink="http://www.w3.org/1999/xlink" width="16px" height="16px" viewBox="0 0 16 16" version="1.1">
<g id="surface1">
<path style=" stroke:none;fill-rule:evenodd;fill:#ff6666;fill-opacity:1;" d="M 7.78125 3.820312 C 7.738281 3.558594 7.714844 3.292969 7.710938 3.027344 C 7.714844 2.648438 7.757812 2.269531 7.839844 1.894531 C 7.921875 1.601562 8.054688 1.320312 8.222656 1.066406 C 8.386719 0.828125 8.585938 0.625 8.816406 0.453125 C 9.246094 0.152344 9.765625 -0.0078125 10.289062 0 C 10.71875 0.0078125 11.140625 0.0976562 11.53125 0.261719 C 11.921875 0.421875 12.28125 0.636719 12.605469 0.902344 C 12.824219 1.082031 12.964844 1.34375 12.996094 1.625 C 13.019531 1.914062 12.933594 2.195312 12.753906 2.414062 C 12.574219 2.636719 12.3125 2.777344 12.03125 2.804688 C 11.746094 2.828125 11.460938 2.742188 11.242188 2.566406 C 11.082031 2.433594 10.898438 2.324219 10.707031 2.246094 C 10.5625 2.183594 10.410156 2.152344 10.253906 2.148438 C 10.1875 2.148438 10.121094 2.167969 10.066406 2.203125 C 10.042969 2.222656 10.023438 2.242188 10.007812 2.265625 C 9.972656 2.320312 9.941406 2.378906 9.921875 2.4375 C 9.882812 2.632812 9.863281 2.824219 9.859375 3.023438 C 9.863281 3.207031 9.882812 3.390625 9.917969 3.5625 C 10.308594 3.59375 10.695312 3.652344 11.078125 3.738281 C 11.53125 3.84375 11.964844 4.003906 12.371094 4.21875 C 12.863281 4.476562 13.304688 4.8125 13.691406 5.203125 C 14.144531 5.667969 14.5 6.210938 14.742188 6.804688 C 15.019531 7.507812 15.15625 8.253906 15.148438 9.003906 C 15.148438 9.417969 15.109375 9.824219 15.046875 10.230469 C 14.914062 11.109375 14.640625 11.960938 14.226562 12.746094 C 13.878906 13.398438 13.421875 13.984375 12.867188 14.46875 C 12.023438 15.21875 10.976562 15.707031 9.859375 15.871094 C 9.296875 15.953125 8.726562 15.996094 8.15625 16 C 7.480469 16.003906 6.808594 15.933594 6.148438 15.789062 C 5.363281 15.621094 4.617188 15.3125 3.941406 14.878906 C 3.15625 14.371094 2.5 13.691406 2.019531 12.886719 C 1.742188 12.429688 1.523438 11.9375 1.355469 11.429688 C 1.164062 10.851562 1.027344 10.261719 0.949219 9.660156 C 0.886719 9.210938 0.851562 8.757812 0.851562 8.304688 C 0.847656 7.640625 0.929688 6.972656 1.09375 6.328125 C 1.269531 5.664062 1.542969 5.027344 1.914062 4.445312 C 2.316406 3.820312 2.816406 3.261719 3.390625 2.792969 C 4.046875 2.261719 4.765625 1.816406 5.535156 1.46875 C 5.796875 1.355469 6.09375 1.34375 6.359375 1.445312 C 6.625 1.546875 6.839844 1.746094 6.960938 2.011719 C 7.074219 2.269531 7.085938 2.566406 6.984375 2.828125 C 6.882812 3.097656 6.679688 3.3125 6.417969 3.433594 C 5.820312 3.699219 5.257812 4.042969 4.75 4.460938 C 4.351562 4.785156 4.003906 5.171875 3.726562 5.605469 C 3.476562 5.996094 3.292969 6.421875 3.171875 6.871094 C 3.054688 7.335938 2.996094 7.8125 3.003906 8.296875 C 3.003906 8.652344 3.027344 9.015625 3.078125 9.371094 C 3.136719 9.84375 3.246094 10.304688 3.390625 10.757812 C 3.515625 11.113281 3.671875 11.460938 3.863281 11.785156 C 4.171875 12.304688 4.59375 12.742188 5.101562 13.074219 C 5.5625 13.363281 6.074219 13.574219 6.609375 13.691406 C 7.109375 13.800781 7.625 13.855469 8.140625 13.851562 C 8.609375 13.851562 9.078125 13.8125 9.546875 13.742188 C 10.25 13.640625 10.910156 13.335938 11.445312 12.863281 C 11.800781 12.546875 12.097656 12.167969 12.324219 11.746094 C 12.625 11.167969 12.828125 10.546875 12.921875 9.898438 C 12.972656 9.597656 12.996094 9.296875 12.996094 8.988281 C 13.003906 8.519531 12.917969 8.046875 12.746094 7.609375 C 12.609375 7.269531 12.40625 6.964844 12.15625 6.703125 C 11.925781 6.46875 11.660156 6.273438 11.367188 6.121094 C 11.195312 6.03125 11.015625 5.957031 10.832031 5.894531 C 10.859375 5.972656 10.886719 6.046875 10.914062 6.121094 C 11.109375 6.664062 11.269531 7.226562 11.382812 7.789062 C 11.445312 8.09375 11.472656 8.402344 11.476562 8.714844 C 11.480469 9.085938 11.425781 9.449219 11.316406 9.800781 C 11.1875 10.195312 10.972656 10.554688 10.683594 10.855469 C 10.367188 11.175781 9.972656 11.414062 9.542969 11.550781 C 9.070312 11.703125 8.582031 11.773438 8.089844 11.761719 L 7.976562 11.761719 C 7.695312 11.757812 7.417969 11.710938 7.15625 11.609375 C 6.890625 11.507812 6.648438 11.359375 6.4375 11.167969 C 6.242188 10.988281 6.070312 10.789062 5.925781 10.566406 C 5.777344 10.34375 5.648438 10.109375 5.535156 9.871094 C 5.257812 9.289062 5.121094 8.65625 5.128906 8.019531 C 5.132812 7.054688 5.410156 6.113281 5.933594 5.304688 C 6.3125 4.714844 6.847656 4.242188 7.480469 3.945312 C 7.578125 3.902344 7.679688 3.859375 7.78125 3.820312 Z M 8.484375 5.851562 C 8.449219 5.867188 8.414062 5.882812 8.382812 5.894531 C 8.121094 6.019531 7.898438 6.222656 7.742188 6.464844 C 7.4375 6.933594 7.277344 7.480469 7.277344 8.039062 C 7.273438 8.351562 7.339844 8.664062 7.476562 8.949219 C 7.546875 9.101562 7.628906 9.246094 7.722656 9.386719 C 7.765625 9.457031 7.820312 9.515625 7.878906 9.574219 C 7.890625 9.585938 7.90625 9.59375 7.917969 9.597656 C 7.949219 9.609375 7.972656 9.613281 8.003906 9.613281 L 8.121094 9.613281 C 8.121094 9.613281 8.128906 9.613281 8.132812 9.613281 C 8.386719 9.621094 8.644531 9.585938 8.882812 9.507812 C 8.988281 9.472656 9.074219 9.421875 9.15625 9.34375 C 9.203125 9.289062 9.242188 9.222656 9.269531 9.152344 C 9.308594 9.015625 9.328125 8.875 9.328125 8.734375 C 9.328125 8.5625 9.308594 8.386719 9.277344 8.210938 C 9.183594 7.75 9.054688 7.300781 8.898438 6.859375 C 8.769531 6.519531 8.632812 6.183594 8.484375 5.851562 Z M 8.484375 5.851562 "/>
</g>
</svg>
