
<svg xmlns="http://www.w3.org/2000/svg" xmlns:xlink="http://www.w3.org/1999/xlink" width="16px" height="16px" viewBox="0 0 16 16" version="1.1">
<g id="surface1">
<path style=" stroke:none;fill-rule:evenodd;fill:#ff6666;fill-opacity:1;" d="M 7.992188 14.753906 L 8.1875 14.964844 C 8.324219 15.105469 8.464844 15.25 8.605469 15.390625 L 8.804688 15.597656 L 8.394531 16 L 8.195312 15.796875 C 8.050781 15.648438 7.910156 15.503906 7.773438 15.359375 L 7.574219 15.148438 Z M 5.5 11.578125 C 5.425781 11.460938 5.351562 11.339844 5.277344 11.21875 L 5.128906 10.96875 L 4.636719 11.265625 L 4.785156 11.511719 C 4.792969 11.53125 4.804688 11.546875 4.816406 11.566406 C 4.714844 11.5625 4.613281 11.554688 4.511719 11.546875 L 4.222656 11.527344 L 4.183594 12.101562 L 4.472656 12.121094 C 4.710938 12.136719 4.949219 12.148438 5.1875 12.15625 C 5.273438 12.28125 5.359375 12.410156 5.449219 12.539062 L 5.613281 12.773438 L 6.085938 12.445312 L 5.921875 12.210938 C 5.90625 12.191406 5.894531 12.171875 5.882812 12.152344 L 5.945312 12.152344 L 5.9375 11.578125 L 5.648438 11.578125 C 5.601562 11.582031 5.550781 11.582031 5.5 11.578125 Z M 3.546875 1.878906 L 3.5 2.164062 C 3.433594 2.5625 3.386719 2.953125 3.355469 3.335938 L 3.332031 3.621094 L 2.761719 3.574219 L 2.785156 3.289062 C 2.816406 2.890625 2.863281 2.484375 2.933594 2.070312 L 2.976562 1.789062 Z M 3.3125 4.226562 L 3.3125 4.515625 C 3.316406 4.910156 3.335938 5.304688 3.375 5.6875 L 3.402344 5.976562 L 2.832031 6.03125 L 2.804688 5.746094 C 2.761719 5.34375 2.742188 4.933594 2.738281 4.519531 L 2.734375 4.230469 Z M 3.492188 6.570312 L 3.550781 6.851562 C 3.625 7.238281 3.71875 7.617188 3.832031 7.992188 L 3.914062 8.269531 L 3.363281 8.433594 L 3.28125 8.160156 C 3.164062 7.765625 3.066406 7.367188 2.984375 6.964844 L 2.929688 6.683594 Z M 4.113281 8.839844 L 4.222656 9.105469 C 4.367188 9.46875 4.527344 9.828125 4.707031 10.179688 L 4.835938 10.4375 L 4.320312 10.695312 L 4.191406 10.4375 C 4.007812 10.070312 3.839844 9.699219 3.6875 9.320312 L 3.578125 9.054688 Z M 6.449219 12.9375 L 6.628906 13.164062 C 6.867188 13.472656 7.121094 13.777344 7.386719 14.082031 L 7.574219 14.296875 L 7.140625 14.675781 L 6.953125 14.457031 C 6.683594 14.148438 6.425781 13.835938 6.175781 13.519531 L 5.996094 13.292969 Z M 3.953125 0.152344 L 3.878906 0.429688 C 3.824219 0.621094 3.777344 0.8125 3.730469 1.003906 L 3.664062 1.28125 L 3.105469 1.148438 L 3.171875 0.871094 C 3.21875 0.675781 3.269531 0.476562 3.324219 0.277344 L 3.398438 0 Z M 15.859375 7.410156 L 15.65625 7.613281 C 15.515625 7.753906 15.375 7.890625 15.234375 8.023438 L 15.023438 8.21875 L 14.628906 7.800781 L 14.839844 7.605469 C 14.976562 7.472656 15.113281 7.339844 15.253906 7.203125 L 15.457031 7.003906 Z M 14.570312 8.621094 L 14.347656 8.804688 C 14.039062 9.0625 13.726562 9.304688 13.414062 9.53125 L 13.179688 9.699219 L 12.84375 9.234375 L 13.078125 9.066406 C 13.378906 8.847656 13.683594 8.613281 13.980469 8.363281 L 14.203125 8.179688 Z M 12.671875 10.039062 L 12.425781 10.1875 C 12.082031 10.398438 11.738281 10.589844 11.390625 10.765625 L 11.132812 10.894531 L 10.875 10.378906 L 11.132812 10.25 C 11.464844 10.085938 11.796875 9.898438 12.125 9.699219 L 12.371094 9.546875 Z M 10.570312 11.144531 L 10.304688 11.25 C 9.933594 11.398438 9.558594 11.527344 9.179688 11.636719 L 8.902344 11.71875 L 8.742188 11.164062 L 9.015625 11.085938 C 9.378906 10.980469 9.738281 10.855469 10.09375 10.71875 L 10.359375 10.609375 Z M 0.304688 10.71875 L 0.578125 10.804688 C 0.765625 10.859375 0.949219 10.910156 1.132812 10.960938 L 1.410156 11.035156 L 1.257812 11.589844 L 0.980469 11.515625 C 0.792969 11.464844 0.605469 11.410156 0.414062 11.351562 L 0.140625 11.269531 Z M 1.964844 11.171875 L 2.246094 11.230469 C 2.628906 11.308594 3.003906 11.375 3.375 11.429688 L 3.660156 11.46875 L 3.578125 12.039062 L 3.292969 11.996094 C 2.910156 11.941406 2.519531 11.875 2.128906 11.792969 L 1.847656 11.734375 Z M 8.304688 11.863281 L 8.019531 11.917969 C 7.632812 11.992188 7.238281 12.050781 6.84375 12.089844 L 6.558594 12.117188 L 6.5 11.546875 L 6.785156 11.515625 C 7.164062 11.480469 7.539062 11.425781 7.910156 11.351562 L 8.195312 11.300781 Z M 11.433594 2.347656 L 10.847656 4.148438 L 12.699219 4.546875 L 11.011719 5.40625 L 12.039062 6.996094 L 10.238281 6.410156 L 9.839844 8.261719 L 8.980469 6.574219 L 7.390625 7.601562 L 7.976562 5.800781 L 6.125 5.402344 L 7.8125 4.542969 L 6.785156 2.953125 L 8.585938 3.539062 L 8.984375 1.6875 L 9.84375 3.375 Z M 11.433594 2.347656 "/>
</g>
</svg>
