
<svg xmlns="http://www.w3.org/2000/svg" xmlns:xlink="http://www.w3.org/1999/xlink" width="16px" height="16px" viewBox="0 0 16 16" version="1.1">
<g id="surface1">
<path style=" stroke:none;fill-rule:evenodd;fill:#ff6666;fill-opacity:1;" d="M 15.710938 6.242188 C 15.84375 6.769531 15.933594 7.351562 15.980469 7.980469 C 15.980469 12.390625 12.410156 15.964844 8 15.964844 L 8 16 C 7.730469 16 7.464844 15.984375 7.203125 15.960938 C 6.9375 15.933594 6.675781 15.894531 6.414062 15.839844 C 2.691406 15.085938 0.0195312 11.816406 0.0195312 8.019531 C 0.0195312 7.652344 0.0507812 7.285156 0.105469 6.921875 C 0.09375 6.898438 0.09375 6.894531 0.09375 6.890625 C 0.625 2.996094 3.875 0.078125 8 0 C 9.800781 -0.015625 11.480469 0.601562 12.820312 1.664062 C 13.726562 2.339844 14.574219 3.285156 15.164062 4.617188 C 15.191406 4.65625 15.214844 4.707031 15.230469 4.757812 C 15.40625 5.175781 15.554688 5.609375 15.675781 6.054688 C 15.554688 5.589844 15.40625 5.15625 15.710938 6.242188 Z M 14.777344 6.484375 C 14.894531 6.984375 14.960938 7.488281 14.980469 8 C 14.980469 9.851562 14.238281 11.621094 12.929688 12.929688 C 11.621094 14.230469 9.851562 14.960938 8 14.960938 L 8 5.738281 C 5.578125 5.738281 3.246094 5.964844 1.175781 6.503906 C 1.503906 4.996094 2.320312 3.632812 3.5 2.640625 C 4.761719 1.578125 6.351562 1 7.988281 1 C 7.992188 1 7.996094 1 8 1 L 8 5.703125 C 10.449219 5.703125 12.71875 5.933594 14.777344 6.484375 Z M 14.777344 6.484375 "/>
</g>
</svg>
