
<svg xmlns="http://www.w3.org/2000/svg" xmlns:xlink="http://www.w3.org/1999/xlink" width="16px" height="16px" viewBox="0 0 16 16" version="1.1">
<g id="surface1">
<path style=" stroke:none;fill-rule:evenodd;fill:#ff6666;fill-opacity:1;" d="M 8 6.398438 C 8.882812 6.398438 9.601562 7.117188 9.601562 8 C 9.601562 8.882812 8.882812 9.601562 8 9.601562 C 7.117188 9.601562 6.398438 8.882812 6.398438 8 C 6.398438 7.117188 7.117188 6.398438 8 6.398438 Z M 2.398438 7.199219 C 2.84375 7.199219 3.199219 7.558594 3.199219 8 C 3.199219 8.441406 2.84375 8.800781 2.398438 8.800781 C 1.957031 8.800781 1.601562 8.441406 1.601562 8 C 1.601562 7.558594 1.957031 7.199219 2.398438 7.199219 Z M 8 4.800781 C 6.234375 4.800781 4.800781 6.234375 4.800781 8 C 4.800781 9.765625 6.234375 11.199219 8 11.199219 C 9.765625 11.199219 11.199219 9.765625 11.199219 8 C 11.199219 6.234375 9.765625 4.800781 8 4.800781 Z M 2.398438 5.601562 C 1.074219 5.601562 0 6.675781 0 8 C 0 9.324219 1.074219 10.398438 2.398438 10.398438 C 3.726562 10.398438 4.800781 9.324219 4.800781 8 C 4.800781 6.675781 3.726562 5.601562 2.398438 5.601562 Z M 13.601562 7.199219 C 14.042969 7.199219 14.398438 7.558594 14.398438 8 C 14.398438 8.441406 14.042969 8.800781 13.601562 8.800781 C 13.15625 8.800781 12.800781 8.441406 12.800781 8 C 12.800781 7.558594 13.15625 7.199219 13.601562 7.199219 Z M 13.601562 5.601562 C 12.273438 5.601562 11.199219 6.675781 11.199219 8 C 11.199219 9.324219 12.273438 10.398438 13.601562 10.398438 C 14.925781 10.398438 16 9.324219 16 8 C 16 6.675781 14.925781 5.601562 13.601562 5.601562 Z M 13.601562 5.601562 "/>
</g>
</svg>
