
<svg xmlns="http://www.w3.org/2000/svg" xmlns:xlink="http://www.w3.org/1999/xlink" width="16px" height="16px" viewBox="0 0 16 16" version="1.1">
<g id="surface1">
<path style=" stroke:none;fill-rule:nonzero;fill:#ff6666;fill-opacity:1;" d="M 2.5 15.445312 C 2.574219 15.449219 2.640625 15.460938 2.71875 15.460938 C 3.136719 15.488281 3.644531 15.488281 4.136719 15.496094 L 4.160156 10.273438 C 4.167969 8.3125 4.058594 5.554688 4.507812 4.242188 C 5.257812 2.722656 6.851562 1.90625 8.546875 2.167969 C 10.234375 2.429688 11.515625 3.757812 11.726562 5.46875 C 11.773438 5.84375 11.785156 8.101562 11.757812 10.882812 L 11.707031 15.5 C 12.25 15.492188 12.792969 15.488281 13.253906 15.460938 C 13.328125 15.457031 13.394531 15.449219 13.46875 15.441406 L 13.433594 10.351562 C 13.394531 4.730469 13.398438 4.777344 12.894531 3.675781 C 12.394531 2.589844 11.445312 1.582031 10.4375 1.066406 C 9.28125 0.476562 7.613281 0.328125 6.382812 0.707031 C 4.824219 1.1875 3.613281 2.261719 2.933594 3.769531 C 2.511719 4.707031 2.5 4.871094 2.5 10.382812 Z M 2.5 15.445312 "/>
</g>
</svg>
