
<svg xmlns="http://www.w3.org/2000/svg" xmlns:xlink="http://www.w3.org/1999/xlink" width="16px" height="16px" viewBox="0 0 16 16" version="1.1">
<g id="surface1">
<path style=" stroke:none;fill-rule:nonzero;fill:#ff6666;fill-opacity:1;" d="M 9.363281 1.777344 C 7.847656 1.777344 6.535156 2.636719 5.882812 3.878906 C 5.460938 3.613281 4.960938 3.460938 4.425781 3.460938 C 2.921875 3.460938 1.703125 4.664062 1.703125 6.148438 C 1.703125 6.386719 1.738281 6.613281 1.796875 6.832031 C 0.710938 7.558594 0 8.789062 0 10.1875 C 0 12.421875 1.820312 14.222656 4.085938 14.222656 L 11.914062 14.222656 C 14.179688 14.222656 16 12.421875 16 10.1875 C 16 8.402344 14.832031 6.894531 13.214844 6.359375 C 13.257812 6.128906 13.277344 5.890625 13.277344 5.644531 C 13.277344 3.511719 11.523438 1.777344 9.363281 1.777344 Z M 9.363281 1.777344 "/>
</g>
</svg>
