
<svg xmlns="http://www.w3.org/2000/svg" xmlns:xlink="http://www.w3.org/1999/xlink" width="16px" height="16px" viewBox="0 0 16 16" version="1.1">
<g id="surface1">
<path style=" stroke:none;fill-rule:evenodd;fill:#ff6666;fill-opacity:1;" d="M 9.769531 12.304688 C 10.253906 12.484375 10.78125 12.582031 11.332031 12.582031 C 11.371094 12.582031 11.40625 12.578125 11.441406 12.578125 C 11.269531 13.082031 10.976562 13.542969 10.589844 13.929688 C 9.910156 14.609375 8.96875 15 8 15 C 7.03125 15 6.089844 14.609375 5.410156 13.929688 C 5.046875 13.566406 4.765625 13.136719 4.59375 12.664062 C 4.617188 12.664062 4.640625 12.667969 4.667969 12.667969 C 5.257812 12.667969 5.820312 12.558594 6.335938 12.347656 C 6.847656 12.558594 7.410156 12.667969 8 12.667969 C 8.628906 12.667969 9.226562 12.542969 9.769531 12.304688 Z M 5.089844 11.648438 C 4.949219 11.660156 4.808594 11.671875 4.671875 11.671875 C 4.558594 11.671875 4.449219 11.664062 4.339844 11.660156 C 4.335938 11.550781 4.328125 11.441406 4.328125 11.328125 C 4.328125 11.191406 4.339844 11.050781 4.351562 10.910156 C 4.570312 11.183594 4.816406 11.429688 5.089844 11.648438 Z M 3.652344 6.332031 C 3.441406 5.820312 3.332031 5.257812 3.332031 4.667969 C 3.332031 4.640625 3.335938 4.617188 3.335938 4.59375 C 2.863281 4.765625 2.433594 5.046875 2.070312 5.410156 C 1.390625 6.089844 1 7.03125 1 8 C 1 8.96875 1.390625 9.910156 2.070312 10.589844 C 2.433594 10.953125 2.863281 11.234375 3.335938 11.40625 C 3.335938 11.382812 3.332031 11.359375 3.332031 11.332031 C 3.332031 10.742188 3.441406 10.179688 3.652344 9.667969 C 3.441406 9.152344 3.332031 8.589844 3.332031 8 C 3.332031 7.410156 3.441406 6.847656 3.652344 6.332031 Z M 11.648438 5.089844 C 11.660156 4.949219 11.671875 4.808594 11.671875 4.671875 C 11.671875 4.53125 11.660156 4.394531 11.648438 4.261719 C 11.542969 4.253906 11.4375 4.25 11.328125 4.25 C 11.15625 4.25 10.988281 4.261719 10.820312 4.289062 C 11.128906 4.519531 11.40625 4.789062 11.648438 5.089844 Z M 11.007812 11.570312 C 11.117188 11.574219 11.222656 11.578125 11.328125 11.578125 C 11.441406 11.578125 11.550781 11.574219 11.660156 11.570312 C 11.667969 11.488281 11.671875 11.410156 11.671875 11.328125 C 11.671875 11.191406 11.660156 11.050781 11.648438 10.910156 C 11.453125 11.148438 11.242188 11.371094 11.007812 11.570312 Z M 5.089844 4.351562 C 4.949219 4.339844 4.808594 4.328125 4.671875 4.328125 C 4.558594 4.328125 4.449219 4.335938 4.339844 4.339844 C 4.335938 4.449219 4.328125 4.558594 4.328125 4.671875 C 4.328125 4.808594 4.339844 4.949219 4.351562 5.089844 C 4.570312 4.816406 4.816406 4.570312 5.089844 4.351562 Z M 12.347656 6.332031 C 12.558594 5.820312 12.667969 5.257812 12.667969 4.667969 C 12.667969 4.613281 12.664062 4.558594 12.660156 4.507812 C 13.136719 4.679688 13.566406 4.957031 13.929688 5.320312 C 14.609375 6.011719 15 6.941406 15 7.910156 C 15 8.890625 14.609375 9.820312 13.929688 10.511719 C 13.566406 10.867188 13.136719 11.144531 12.664062 11.316406 C 12.664062 10.734375 12.554688 10.175781 12.347656 9.667969 C 12.558594 9.152344 12.667969 8.589844 12.667969 8 C 12.667969 7.410156 12.558594 6.847656 12.347656 6.332031 Z M 9.566406 3.609375 C 10.105469 3.371094 10.703125 3.246094 11.332031 3.246094 C 11.347656 3.246094 11.359375 3.246094 11.371094 3.25 C 11.199219 2.808594 10.929688 2.410156 10.589844 2.070312 C 9.910156 1.390625 8.96875 1 8 1 C 7.03125 1 6.089844 1.390625 5.410156 2.070312 C 5.046875 2.433594 4.765625 2.863281 4.59375 3.335938 C 4.617188 3.335938 4.640625 3.332031 4.667969 3.332031 C 5.257812 3.332031 5.820312 3.441406 6.332031 3.652344 C 6.847656 3.441406 7.410156 3.332031 8 3.332031 C 8.550781 3.332031 9.078125 3.429688 9.566406 3.609375 Z M 12.527344 12.417969 C 14.527344 11.898438 16 10.078125 16 7.914062 C 16 5.738281 14.507812 3.910156 12.488281 3.402344 C 11.941406 1.441406 10.136719 0 8 0 C 5.832031 0 4.007812 1.484375 3.492188 3.492188 C 1.484375 4.007812 0 5.832031 0 8 C 0 10.167969 1.484375 11.992188 3.492188 12.507812 C 4.007812 14.515625 5.832031 16 8 16 C 10.199219 16 12.046875 14.472656 12.527344 12.417969 Z M 4.28125 8.03125 C 4.28125 5.960938 5.960938 4.28125 8.03125 4.28125 C 10.101562 4.28125 11.78125 5.960938 11.78125 8.03125 C 11.78125 10.101562 10.101562 11.78125 8.03125 11.78125 C 5.960938 11.78125 4.28125 10.101562 4.28125 8.03125 Z M 4.28125 8.03125 "/>
</g>
</svg>
