
<svg xmlns="http://www.w3.org/2000/svg" xmlns:xlink="http://www.w3.org/1999/xlink" width="16px" height="16px" viewBox="0 0 16 16" version="1.1">
<g id="surface1">
<path style=" stroke:none;fill-rule:nonzero;fill:#ff6666;fill-opacity:1;" d="M 2.429688 0 C 2.296875 0 2.179688 0.078125 2.128906 0.199219 C 1.777344 1.097656 1.597656 2.054688 1.601562 3.019531 C 1.601562 6.917969 4.472656 10.089844 8 10.089844 C 11.527344 10.089844 14.398438 6.917969 14.398438 3.019531 C 14.398438 2.042969 14.222656 1.09375 13.871094 0.199219 C 13.820312 0.078125 13.703125 0 13.570312 0 Z M 2.648438 0.640625 L 13.351562 0.640625 C 13.683594 1.570312 13.816406 2.558594 13.738281 3.539062 L 2.261719 3.539062 C 2.183594 2.558594 2.316406 1.570312 2.648438 0.640625 Z M 6.988281 10.648438 C 7.019531 10.738281 7.039062 10.832031 7.039062 10.929688 L 7.039062 13.320312 C 7.039062 13.742188 5.90625 14.222656 5.230469 14.511719 C 4.4375 14.847656 3.917969 15.074219 3.859375 15.46875 C 3.847656 15.570312 3.851562 15.761719 4.058594 15.929688 C 4.117188 15.976562 4.1875 16 4.261719 16 L 11.738281 16 C 11.8125 16 11.882812 15.976562 11.941406 15.929688 C 12.148438 15.761719 12.152344 15.570312 12.140625 15.46875 C 12.085938 15.078125 11.597656 14.871094 10.78125 14.519531 C 10.101562 14.230469 8.960938 13.746094 8.960938 13.320312 L 8.960938 10.929688 C 8.960938 10.832031 8.980469 10.734375 9.011719 10.648438 C 8.675781 10.703125 8.339844 10.730469 8 10.730469 C 7.65625 10.730469 7.320312 10.699219 6.988281 10.648438 Z M 6.988281 10.648438 "/>
</g>
</svg>
