
<svg xmlns="http://www.w3.org/2000/svg" xmlns:xlink="http://www.w3.org/1999/xlink" width="16px" height="16px" viewBox="0 0 16 16" version="1.1">
<g id="surface1">
<path style=" stroke:none;fill-rule:nonzero;fill:#ff6666;fill-opacity:1;" d="M 8.003906 0 C 8.003906 0 8 0.00390625 8 0.00390625 C 7.035156 2.175781 6.292969 4.390625 5.867188 5.746094 C 4.476562 5.75 2.183594 5.804688 0 6.101562 C 0 6.101562 0.00390625 6.105469 0.00390625 6.105469 C 0.00390625 6.105469 0.00390625 6.109375 0.00390625 6.109375 C 1.671875 7.746094 3.445312 9.171875 4.542969 10.015625 C 4.113281 11.40625 3.453125 13.714844 3.046875 15.992188 C 3.046875 15.992188 3.050781 15.992188 3.050781 15.992188 C 3.050781 15.992188 3.054688 15.992188 3.054688 15.992188 C 5.050781 14.828125 6.890625 13.496094 7.992188 12.660156 C 9.117188 13.519531 11.003906 14.890625 12.9375 16 C 12.9375 16 12.9375 15.996094 12.9375 15.996094 C 12.9375 15.996094 12.9375 15.992188 12.9375 15.992188 C 12.9375 15.992188 12.941406 15.992188 12.941406 15.992188 C 12.503906 13.636719 11.867188 11.386719 11.449219 10.027344 C 12.578125 9.167969 14.398438 7.707031 16 6.117188 C 16 6.117188 15.996094 6.113281 15.996094 6.113281 C 15.996094 6.113281 15.992188 6.109375 15.992188 6.109375 C 13.730469 5.816406 11.5 5.757812 10.140625 5.753906 C 9.710938 4.363281 8.949219 2.089844 8.003906 0 Z M 8.003906 3.289062 C 8.363281 4.285156 8.839844 5.4375 9.054688 6.128906 L 9.3125 6.953125 L 10.136719 6.953125 C 10.808594 6.957031 12.023438 7.078125 13.023438 7.128906 C 12.234375 7.796875 11.339844 8.628906 10.78125 9.058594 L 10.113281 9.566406 L 10.367188 10.394531 C 10.570312 11.066406 10.835938 12.316406 11.101562 13.335938 C 10.253906 12.753906 9.21875 12.113281 8.664062 11.6875 L 7.992188 11.179688 L 7.324219 11.6875 C 6.78125 12.101562 5.730469 12.75 4.890625 13.328125 C 5.15625 12.300781 5.414062 11.074219 5.628906 10.382812 L 5.882812 9.558594 L 5.214844 9.046875 C 4.671875 8.628906 3.757812 7.78125 2.976562 7.121094 C 3.988281 7.070312 5.179688 6.949219 5.871094 6.949219 L 6.695312 6.945312 L 6.953125 6.121094 C 7.164062 5.449219 7.648438 4.273438 8.003906 3.289062 Z M 8.003906 3.289062 "/>
</g>
</svg>
