
<svg xmlns="http://www.w3.org/2000/svg" xmlns:xlink="http://www.w3.org/1999/xlink" width="16px" height="16px" viewBox="0 0 16 16" version="1.1">
<g id="surface1">
<path style=" stroke:none;fill-rule:nonzero;fill:#ff6666;fill-opacity:1;" d="M 10.34375 8.308594 C 9.910156 7.8125 9.289062 7.503906 8.546875 7.566406 C 8.484375 7.441406 8.234375 6.203125 8.234375 6.203125 C 8.234375 6.203125 9.105469 4.898438 9.289062 4.652344 C 10.21875 3.164062 10.28125 1.984375 9.722656 0.804688 C 9.539062 0.371094 9.042969 0 8.546875 0 C 8.175781 0 7.863281 0.308594 7.679688 0.683594 C 7.058594 1.738281 7.058594 3.722656 7.367188 5.085938 C 7.367188 5.085938 7.058594 5.394531 6.746094 5.765625 C 6.128906 6.449219 5.445312 7.195312 5.199219 8.1875 C 4.886719 9.300781 5.136719 10.355469 5.816406 11.164062 C 6.5625 12.09375 7.679688 12.527344 9.042969 12.402344 C 9.289062 13.582031 9.476562 14.324219 9.105469 15.007812 C 8.980469 15.253906 8.730469 15.503906 8.296875 15.503906 C 8.175781 15.503906 8.113281 15.503906 7.988281 15.441406 C 8.359375 15.253906 8.671875 14.882812 8.671875 14.449219 C 8.671875 13.828125 8.175781 13.332031 7.554688 13.332031 C 6.5 13.394531 6.4375 14.449219 6.4375 14.449219 C 6.4375 14.820312 6.5625 15.195312 6.808594 15.441406 C 7.121094 15.75 7.617188 16 8.175781 16 C 8.855469 16 9.539062 15.75 9.785156 14.757812 C 10.035156 13.953125 9.601562 12.652344 9.539062 12.21875 C 10.21875 11.90625 10.839844 10.976562 10.902344 10.355469 C 11.027344 9.675781 10.777344 8.867188 10.34375 8.308594 Z M 8.359375 1.425781 C 8.421875 1.300781 8.546875 1.242188 8.671875 1.242188 C 8.730469 1.242188 8.855469 1.300781 8.917969 1.363281 C 9.167969 1.488281 9.226562 1.738281 9.226562 2.109375 C 9.167969 3.039062 8.359375 4.15625 7.925781 4.527344 C 7.738281 3.660156 7.863281 2.046875 8.359375 1.425781 Z M 6.5625 11.164062 C 6.128906 10.730469 5.941406 10.109375 6.003906 9.488281 C 6.128906 8.496094 6.808594 7.691406 7.367188 7.070312 C 7.492188 6.945312 7.617188 6.820312 7.679688 6.699219 C 7.738281 7.007812 7.925781 7.503906 7.988281 7.75 C 7.242188 8.0625 6.808594 9.054688 6.871094 9.859375 C 6.871094 10.234375 6.996094 10.480469 7.183594 10.730469 C 7.242188 10.789062 7.304688 10.851562 7.367188 10.851562 C 7.429688 10.851562 7.554688 10.789062 7.554688 10.730469 C 7.617188 10.667969 7.617188 10.542969 7.554688 10.480469 C 7.492188 10.417969 7.492188 10.355469 7.492188 10.234375 C 7.429688 9.675781 7.800781 9.242188 8.234375 9.054688 C 8.296875 9.425781 8.730469 11.347656 8.792969 11.78125 C 7.988281 12.03125 7.121094 11.78125 6.5625 11.164062 Z M 9.351562 11.535156 C 9.226562 11.101562 9.167969 10.605469 9.042969 10.046875 C 8.980469 9.675781 8.917969 9.242188 8.792969 8.867188 C 9.601562 8.867188 9.847656 9.550781 9.910156 9.796875 C 10.097656 10.480469 9.910156 11.164062 9.351562 11.535156 Z M 9.351562 11.535156 "/>
</g>
</svg>
