
<svg xmlns="http://www.w3.org/2000/svg" xmlns:xlink="http://www.w3.org/1999/xlink" width="16px" height="16px" viewBox="0 0 16 16" version="1.1">
<g id="surface1">
<path style=" stroke:none;fill-rule:nonzero;fill:#ff6666;fill-opacity:1;" d="M 2.03125 5.878906 L 13.957031 8.40625 L 13.957031 10.1875 L 13.480469 10.792969 C 13.480469 10.792969 10.148438 10.316406 10.078125 10.316406 L 9.515625 11.746094 L 2.609375 11.746094 L 1.976562 10.792969 Z M 2.03125 5.878906 "/>
<path style=" stroke:none;fill-rule:nonzero;fill:#ff6666;fill-opacity:1;" d="M 2.308594 2.214844 L 1.363281 3.164062 L 1.363281 10.789062 L 2.308594 11.746094 L 8.511719 11.746094 L 8.511719 10.722656 L 2.382812 10.722656 L 2.382812 3.234375 L 13.65625 3.234375 L 13.65625 4.117188 L 13.851562 4.117188 L 14.636719 4.875 L 14.636719 3.164062 L 13.691406 2.214844 Z M 9.816406 4.597656 L 8.851562 5.578125 L 8.851562 12.464844 L 9.816406 13.445312 L 13.671875 13.445312 L 14.636719 12.464844 L 14.636719 5.578125 L 13.671875 4.597656 Z M 9.871094 5.617188 L 13.617188 5.617188 L 13.617188 10.042969 L 9.871094 10.042969 Z M 9.871094 11.0625 L 13.617188 11.0625 L 13.617188 12.425781 L 9.871094 12.425781 Z M 11.234375 11.402344 L 11.234375 12.085938 L 12.253906 12.085938 L 12.253906 11.402344 Z M 0 12.425781 L 0.941406 13.445312 L 9.21875 13.445312 L 8.472656 12.636719 L 8.472656 12.425781 Z M 15.058594 12.425781 L 15.058594 12.636719 L 14.3125 13.445312 L 15.058594 13.445312 L 16 12.425781 Z M 15.058594 12.425781 "/>
</g>
</svg>
