
<svg xmlns="http://www.w3.org/2000/svg" xmlns:xlink="http://www.w3.org/1999/xlink" width="16px" height="16px" viewBox="0 0 16 16" version="1.1">
<g id="surface1">
<path style=" stroke:none;fill-rule:nonzero;fill:#ff6666;fill-opacity:1;" d="M 6.039062 11.957031 C 6.167969 12.152344 6.152344 12.277344 5.996094 12.332031 C 5.152344 12.195312 5.46875 10.839844 6.59375 11.3125 C 7.5625 11.59375 7.316406 13.722656 6.230469 13.792969 C 4.191406 14.351562 2.851562 11.015625 3.21875 8.660156 L 2.617188 8.785156 C 2.570312 9.242188 2.605469 9.894531 2.636719 10.199219 C 2.894531 12.71875 4.355469 14.507812 6.367188 14.261719 C 8.160156 13.863281 8.058594 11.371094 6.777344 10.867188 C 5.878906 10.542969 5.09375 10.996094 5.011719 11.757812 C 4.976562 12.390625 5.570312 12.871094 5.996094 12.777344 C 6.628906 12.730469 6.628906 11.980469 6.039062 11.957031 Z M 6.039062 11.957031 "/>
<path style=" stroke:none;fill-rule:nonzero;fill:#ff6666;fill-opacity:1;" d="M 14.46875 2.570312 C 15.535156 3.550781 14.726562 5.53125 12.492188 6.289062 C 10.027344 5.292969 12.429688 1.324219 14.46875 2.570312 Z M 14.46875 2.570312 "/>
<path style=" stroke:none;fill-rule:nonzero;fill:#ff6666;fill-opacity:1;" d="M 13.335938 9.125 L 13.339844 10.257812 C 14.066406 10.273438 14.882812 10.140625 15.789062 9.851562 C 16.035156 9.773438 16.035156 9.644531 15.789062 9.566406 C 14.824219 9.261719 14.007812 9.113281 13.335938 9.125 Z M 13.335938 9.125 "/>
<path style=" stroke:none;fill-rule:nonzero;fill:#ff6666;fill-opacity:1;" d="M 0.375 9.125 L 8.523438 9.125 C 8.464844 9.375 8.4375 9.601562 8.441406 9.804688 C 8.445312 9.972656 8.472656 10.125 8.523438 10.257812 L 0.375 10.257812 C 0.273438 10.257812 0.148438 10.183594 0.101562 10.09375 C -0.03125 9.835938 -0.03125 9.460938 0.0859375 9.28125 C 0.144531 9.195312 0.273438 9.125 0.375 9.125 Z M 0.375 9.125 "/>
<path style=" stroke:none;fill-rule:nonzero;fill:#ff6666;fill-opacity:1;" d="M 2.34375 9.125 L 13.507812 9.125 C 13.398438 9.589844 13.402344 9.96875 13.507812 10.257812 L 2.34375 10.257812 C 2.199219 9.871094 2.203125 9.496094 2.34375 9.125 Z M 2.34375 9.125 "/>
<path style=" stroke:none;fill-rule:nonzero;fill:#ff6666;fill-opacity:1;" d="M 9.878906 8.003906 C 10.167969 8.425781 10.550781 8.796875 11.027344 9.113281 C 10.808594 9.25 11.097656 9.300781 11.460938 9.125 C 11.90625 9.125 12.175781 9.136719 12.65625 9.148438 C 12.445312 8.953125 12.210938 8.804688 11.953125 8.703125 C 11.710938 8.734375 11.445312 8.820312 11.15625 8.960938 C 10.976562 8.585938 10.785156 8.175781 10.578125 7.730469 C 10.679688 7.675781 10.785156 7.613281 10.886719 7.542969 C 11.640625 7.953125 12.65625 7.757812 13.753906 6.886719 C 13.457031 6.019531 12.867188 5.507812 11.988281 5.355469 L 8.160156 4.042969 C 6.988281 3.355469 5.828125 3.351562 4.671875 4.03125 C 3.421875 5.054688 2.734375 6.75 2.601562 9.125 L 3.039062 9.117188 C 3.53125 7.902344 4.058594 7.199219 4.625 7.253906 C 4.367188 7.84375 4.464844 8.6875 4.785156 9.148438 C 4.539062 9.214844 4.292969 9.300781 5.21875 9.21875 C 4.777344 8.90625 4.605469 8.15625 4.972656 7.324219 C 5.226562 7.398438 5.378906 7.496094 5.28125 7.777344 C 5.628906 7.90625 5.964844 8.007812 6.289062 8.074219 C 6.257812 8.488281 6.179688 8.980469 5.960938 9.148438 L 6.273438 9.160156 C 6.421875 8.894531 6.601562 8.539062 6.707031 8.136719 C 7.226562 8.226562 7.710938 8.222656 8.171875 8.136719 C 8.253906 8.4375 8.417969 8.800781 8.5625 9.1875 C 8.710938 9.585938 8.964844 9.578125 9.609375 9.25 C 9.585938 8.992188 9.507812 8.839844 9.378906 8.785156 C 9.246094 8.832031 9.128906 8.945312 9.027344 9.125 C 8.664062 9.046875 8.496094 8.703125 8.523438 8.070312 C 8.601562 8.050781 8.679688 8.027344 8.757812 8 C 9.117188 8.105469 9.488281 8.109375 9.878906 8.003906 Z M 9.878906 8.003906 "/>
<path style=" stroke:none;fill-rule:nonzero;fill:#ff6666;fill-opacity:1;" d="M 10.511719 6.105469 C 8.300781 6.105469 7.914062 2.277344 9.683594 1.738281 C 10.945312 1.574219 11.648438 2.292969 11.789062 3.890625 C 11.8125 5.34375 11.386719 6.082031 10.511719 6.105469 Z M 10.511719 6.105469 "/>
</g>
</svg>
