
<svg xmlns="http://www.w3.org/2000/svg" xmlns:xlink="http://www.w3.org/1999/xlink" width="16px" height="16px" viewBox="0 0 16 16" version="1.1">
<g id="surface1">
<path style=" stroke:none;fill-rule:nonzero;fill:#ff6666;fill-opacity:1;" d="M 0 16 L 5.640625 16 L 5.640625 14.628906 L 4.503906 14.398438 C 3.867188 14.261719 3.804688 14.058594 3.804688 13.347656 L 3.804688 3.910156 L 3.890625 3.910156 L 10.820312 16 L 14.164062 16 L 14.164062 2.742188 C 14.164062 1.988281 14.1875 1.714844 14.820312 1.601562 L 16 1.371094 L 16 0 L 10.359375 0 L 10.359375 1.371094 L 11.519531 1.601562 C 12.152344 1.714844 12.195312 1.941406 12.195312 2.652344 L 12.195312 12.089844 L 12.132812 12.089844 L 5.203125 0 L 0 0 L 0 1.371094 L 1.160156 1.601562 C 1.792969 1.714844 1.835938 1.941406 1.835938 2.652344 L 1.835938 13.257812 C 1.835938 14.058594 1.792969 14.285156 1.179688 14.398438 L 0 14.628906 Z M 0 16 "/>
</g>
</svg>
