
<svg xmlns="http://www.w3.org/2000/svg" xmlns:xlink="http://www.w3.org/1999/xlink" width="16px" height="16px" viewBox="0 0 16 16" version="1.1">
<g id="surface1">
<path style=" stroke:none;fill-rule:nonzero;fill:#ff6666;fill-opacity:1;" d="M 4.921875 10.5625 L 6.972656 10.5625 L 6.972656 9.539062 L 9.027344 9.539062 L 9.027344 5.4375 L 4.921875 5.4375 Z M 6.972656 6.460938 L 8 6.460938 L 8 8.511719 L 6.972656 8.511719 Z M 9.847656 5.4375 L 9.847656 9.539062 L 11.898438 9.539062 L 11.898438 6.460938 L 12.921875 6.460938 L 12.921875 9.539062 L 13.949219 9.539062 L 13.949219 6.460938 L 14.972656 6.460938 L 14.972656 9.539062 L 16 9.539062 L 16 5.4375 Z M 0 9.539062 L 2.050781 9.539062 L 2.050781 6.460938 L 3.078125 6.460938 L 3.078125 9.539062 L 4.101562 9.539062 L 4.101562 5.4375 L 0 5.4375 Z M 0 9.539062 "/>
</g>
</svg>
