
<svg xmlns="http://www.w3.org/2000/svg" xmlns:xlink="http://www.w3.org/1999/xlink" width="16px" height="16px" viewBox="0 0 16 16" version="1.1">
<g id="surface1">
<path style=" stroke:none;fill-rule:nonzero;fill:#ff6666;fill-opacity:1;" d="M 10.097656 0 C 11.558594 1.785156 12.070312 4.164062 11.476562 6.390625 C 10.449219 10.226562 6.511719 12.5 2.675781 11.472656 C 1.699219 11.207031 0.785156 10.738281 0.00390625 10.09375 C 0.792969 12.839844 2.960938 14.976562 5.722656 15.71875 C 10.078125 16.886719 14.550781 14.304688 15.71875 9.949219 C 16.867188 5.65625 14.367188 1.234375 10.097656 0 Z M 12.816406 3.082031 C 14.148438 4.464844 14.84375 6.339844 14.730469 8.257812 C 14.703125 8.722656 14.625 9.179688 14.503906 9.625 C 13.15625 14.71875 6.820312 16.472656 3.042969 12.796875 C 7.308594 13.5625 11.550781 10.972656 12.691406 6.71875 L 12.691406 6.714844 C 12.996094 5.527344 13.039062 4.289062 12.816406 3.082031 Z M 12.816406 3.082031 "/>
</g>
</svg>
