
<svg xmlns="http://www.w3.org/2000/svg" xmlns:xlink="http://www.w3.org/1999/xlink" width="16px" height="16px" viewBox="0 0 16 16" version="1.1">
<g id="surface1">
<path style=" stroke:none;fill-rule:evenodd;fill:#ff6666;fill-opacity:1;" d="M 3.199219 2.40625 L 7.199219 2.40625 L 7.199219 4.808594 L 1.601562 4.808594 Z M 8.800781 2.40625 L 12.800781 2.40625 L 14.398438 4.808594 L 8.800781 4.808594 Z M 7.628906 13.230469 L 7.628906 14.210938 C 6.988281 14.195312 6.484375 14.003906 6.121094 13.636719 C 5.757812 13.265625 5.574219 12.730469 5.574219 12.027344 L 5.574219 11.445312 C 5.574219 11.234375 5.535156 11.070312 5.453125 10.949219 C 5.371094 10.828125 5.257812 10.765625 5.109375 10.765625 L 4.894531 10.765625 L 4.894531 9.785156 L 5.109375 9.785156 C 5.257812 9.785156 5.371094 9.722656 5.453125 9.601562 C 5.535156 9.476562 5.574219 9.308594 5.574219 9.105469 L 5.574219 8.535156 C 5.574219 7.832031 5.757812 7.296875 6.121094 6.929688 C 6.484375 6.5625 6.988281 6.371094 7.628906 6.351562 L 7.628906 7.332031 C 6.988281 7.371094 6.664062 7.714844 6.664062 8.367188 L 6.664062 9.011719 C 6.664062 9.402344 6.601562 9.699219 6.476562 9.894531 C 6.347656 10.089844 6.15625 10.21875 5.902344 10.28125 C 6.410156 10.410156 6.664062 10.835938 6.664062 11.550781 L 6.664062 12.191406 C 6.664062 12.859375 6.988281 13.203125 7.628906 13.230469 Z M 3.273438 0.808594 C 2.714844 0.808594 2.246094 1.128906 1.925781 1.609375 L 0.148438 4.480469 C 0.0703125 4.640625 0 4.964844 0 5.203125 L 0 13.59375 C 0 14.472656 0.71875 15.191406 1.601562 15.191406 L 14.398438 15.191406 C 15.28125 15.191406 16 14.472656 16 13.597656 L 16 5.203125 C 16 4.964844 15.929688 4.640625 15.851562 4.480469 L 14.074219 1.609375 C 13.753906 1.128906 13.285156 0.808594 12.726562 0.808594 Z M 8.371094 14.210938 L 8.371094 13.230469 C 9.019531 13.199219 9.34375 12.851562 9.34375 12.191406 L 9.34375 11.550781 C 9.34375 10.835938 9.597656 10.410156 10.109375 10.28125 C 9.855469 10.21875 9.664062 10.089844 9.535156 9.894531 C 9.40625 9.699219 9.34375 9.402344 9.34375 9.011719 L 9.34375 8.367188 C 9.34375 7.714844 9.019531 7.371094 8.371094 7.332031 L 8.371094 6.351562 C 9.011719 6.371094 9.519531 6.566406 9.886719 6.9375 C 10.25 7.304688 10.433594 7.839844 10.433594 8.535156 L 10.433594 9.105469 C 10.433594 9.308594 10.476562 9.476562 10.554688 9.601562 C 10.636719 9.722656 10.753906 9.785156 10.902344 9.785156 L 11.105469 9.785156 L 11.105469 10.765625 L 10.902344 10.765625 C 10.753906 10.765625 10.636719 10.828125 10.554688 10.949219 C 10.476562 11.070312 10.433594 11.234375 10.433594 11.445312 L 10.433594 12.027344 C 10.433594 12.730469 10.25 13.265625 9.886719 13.636719 C 9.519531 14.003906 9.011719 14.195312 8.371094 14.210938 Z M 8.371094 14.210938 "/>
</g>
</svg>
