
<svg xmlns="http://www.w3.org/2000/svg" xmlns:xlink="http://www.w3.org/1999/xlink" width="16px" height="16px" viewBox="0 0 16 16" version="1.1">
<g id="surface1">
<path style=" stroke:none;fill-rule:evenodd;fill:#ff6666;fill-opacity:1;" d="M 0.816406 5.5625 C 0.613281 5.570312 0.410156 5.5 0.257812 5.363281 C 0.105469 5.226562 0.015625 5.035156 0 4.828125 C -0.0078125 4.625 0.0625 4.421875 0.199219 4.269531 C 0.335938 4.117188 0.527344 4.027344 0.734375 4.011719 C 0.910156 4.003906 1.085938 4 1.261719 4 C 1.710938 3.996094 2.160156 4.035156 2.601562 4.105469 C 3.003906 4.171875 3.394531 4.277344 3.773438 4.414062 C 4.445312 4.664062 5.070312 5.035156 5.617188 5.507812 C 6.097656 5.9375 6.527344 6.421875 6.890625 6.953125 C 7.222656 7.433594 7.53125 7.929688 7.820312 8.433594 C 8.027344 8.800781 8.246094 9.160156 8.480469 9.511719 C 8.664062 9.792969 8.878906 10.054688 9.121094 10.289062 C 9.296875 10.445312 9.484375 10.589844 9.683594 10.710938 C 9.917969 10.863281 10.164062 10.996094 10.414062 11.113281 C 10.980469 11.371094 11.566406 11.589844 12.167969 11.753906 C 12.746094 11.921875 13.332031 12.050781 13.925781 12.144531 C 14.171875 12.1875 14.417969 12.21875 14.664062 12.238281 C 14.855469 12.261719 15.042969 12.269531 15.230469 12.269531 C 15.433594 12.273438 15.632812 12.355469 15.777344 12.5 C 15.921875 12.648438 16.003906 12.84375 16 13.050781 C 16 13.253906 15.914062 13.453125 15.769531 13.59375 C 15.621094 13.738281 15.425781 13.820312 15.222656 13.820312 C 14.984375 13.816406 14.746094 13.804688 14.515625 13.78125 C 14.234375 13.753906 13.957031 13.71875 13.679688 13.675781 C 13.027344 13.570312 12.382812 13.425781 11.75 13.246094 C 11.070312 13.058594 10.40625 12.8125 9.765625 12.519531 C 9.453125 12.371094 9.152344 12.210938 8.859375 12.027344 C 8.574219 11.847656 8.308594 11.644531 8.0625 11.417969 C 7.730469 11.097656 7.4375 10.742188 7.1875 10.359375 C 6.9375 9.980469 6.699219 9.59375 6.476562 9.203125 C 6.207031 8.734375 5.921875 8.273438 5.613281 7.828125 C 5.320312 7.402344 4.980469 7.015625 4.59375 6.667969 C 4.195312 6.324219 3.734375 6.050781 3.238281 5.867188 C 2.949219 5.761719 2.652344 5.683594 2.351562 5.632812 C 1.992188 5.574219 1.628906 5.546875 1.265625 5.550781 C 1.117188 5.550781 0.964844 5.550781 0.816406 5.5625 Z M 9.25 5.421875 C 9.210938 5.699219 9.191406 5.976562 9.191406 6.257812 C 9.191406 6.347656 9.195312 6.4375 9.207031 6.527344 C 9.207031 6.539062 9.210938 6.550781 9.214844 6.558594 C 9.402344 6.929688 9.691406 7.242188 10.042969 7.464844 C 10.332031 7.644531 10.667969 7.742188 11.011719 7.742188 C 11.390625 7.746094 11.753906 7.609375 12.03125 7.351562 C 12.164062 7.21875 12.269531 7.0625 12.34375 6.886719 C 12.429688 6.65625 12.476562 6.417969 12.472656 6.175781 C 12.46875 5.902344 12.429688 5.628906 12.355469 5.363281 C 12.324219 4.824219 12.074219 4.324219 11.660156 3.972656 C 11.289062 3.652344 10.8125 3.472656 10.320312 3.472656 C 10.019531 3.46875 9.730469 3.550781 9.476562 3.707031 C 9.347656 3.789062 9.230469 3.890625 9.132812 4.007812 C 9.015625 4.148438 8.917969 4.308594 8.847656 4.476562 C 8.8125 4.558594 8.757812 4.636719 8.691406 4.695312 C 8.863281 4.71875 9.015625 4.808594 9.121094 4.941406 C 9.226562 5.078125 9.269531 5.253906 9.25 5.421875 Z M 8.171875 4.863281 C 7.96875 4.835938 7.792969 4.71875 7.691406 4.542969 C 7.59375 4.367188 7.582031 4.15625 7.660156 3.972656 C 7.78125 3.683594 7.945312 3.421875 8.140625 3.183594 C 8.324219 2.960938 8.546875 2.765625 8.789062 2.613281 C 9.253906 2.324219 9.785156 2.175781 10.332031 2.179688 C 11.125 2.1875 11.894531 2.472656 12.5 2.992188 C 13.140625 3.535156 13.546875 4.308594 13.632812 5.144531 C 13.714844 5.480469 13.761719 5.820312 13.761719 6.164062 C 13.769531 6.574219 13.691406 6.976562 13.542969 7.359375 C 13.402344 7.707031 13.191406 8.023438 12.921875 8.285156 C 12.402344 8.773438 11.710938 9.039062 11 9.03125 C 10.417969 9.03125 9.851562 8.863281 9.359375 8.558594 C 8.816406 8.21875 8.375 7.738281 8.078125 7.171875 C 8.035156 7.09375 7.996094 7.011719 7.976562 6.925781 C 7.949219 6.847656 7.9375 6.773438 7.925781 6.691406 C 7.90625 6.546875 7.898438 6.394531 7.898438 6.246094 C 7.902344 5.910156 7.925781 5.578125 7.96875 5.25 C 7.988281 5.101562 8.058594 4.964844 8.171875 4.863281 Z M 8.171875 4.863281 "/>
</g>
</svg>
