
<svg xmlns="http://www.w3.org/2000/svg" xmlns:xlink="http://www.w3.org/1999/xlink" width="16px" height="16px" viewBox="0 0 16 16" version="1.1">
<g id="surface1">
<path style=" stroke:none;fill-rule:evenodd;fill:#ff6666;fill-opacity:1;" d="M 8.472656 9.570312 L 14.152344 3.726562 L 6.890625 7.730469 C 6.480469 7.53125 6.023438 7.417969 5.539062 7.417969 C 3.839844 7.417969 2.460938 8.796875 2.460938 10.496094 C 2.460938 12.195312 3.839844 13.574219 5.539062 13.574219 C 7.238281 13.574219 8.613281 12.195312 8.613281 10.496094 C 8.613281 10.175781 8.566406 9.863281 8.472656 9.570312 Z M 6.152344 0.648438 C 3.894531 0.652344 1.730469 1.433594 0 2.824219 L 0 3.179688 C 1.382812 2.34375 2.976562 1.882812 4.613281 1.882812 C 7.042969 1.882812 9.269531 2.859375 10.894531 4.46875 L 12.910156 3.359375 C 11.136719 1.679688 8.753906 0.652344 6.152344 0.648438 Z M 14.265625 4.933594 L 12.535156 6.714844 C 12.9375 7.492188 13.234375 8.332031 13.394531 9.226562 L 15.886719 9.089844 C 15.664062 7.554688 15.097656 6.144531 14.265625 4.933594 Z M 15.960938 9.703125 L 13.476562 9.839844 C 13.515625 10.160156 13.535156 10.480469 13.539062 10.804688 C 13.535156 10.90625 13.53125 11.007812 13.523438 11.113281 L 15.976562 11.113281 C 15.992188 10.90625 16 10.703125 16 10.496094 C 15.996094 10.230469 15.984375 9.964844 15.960938 9.703125 Z M 13.488281 11.726562 C 13.441406 12.148438 13.363281 12.570312 13.257812 12.980469 L 15.644531 13.113281 C 15.765625 12.660156 15.855469 12.195312 15.910156 11.726562 Z M 13.085938 13.589844 C 12.953125 13.988281 12.789062 14.382812 12.601562 14.761719 L 14.707031 15.351562 C 15.003906 14.828125 15.25 14.285156 15.445312 13.71875 Z M 13.085938 13.589844 "/>
</g>
</svg>
