
<svg xmlns="http://www.w3.org/2000/svg" xmlns:xlink="http://www.w3.org/1999/xlink" width="16px" height="16px" viewBox="0 0 16 16" version="1.1">
<g id="surface1">
<path style=" stroke:none;fill-rule:nonzero;fill:#ff6666;fill-opacity:1;" d="M 1 1 L 4.5 1 L 4.5 4.5 L 1 4.5 Z M 1 1 "/>
<path style=" stroke:none;fill-rule:nonzero;fill:#ff6666;fill-opacity:1;" d="M 6.25 1 L 9.75 1 L 9.75 4.5 L 6.25 4.5 Z M 6.25 1 "/>
<path style=" stroke:none;fill-rule:nonzero;fill:#ff6666;fill-opacity:1;" d="M 11.5 1 L 15 1 L 15 4.5 L 11.5 4.5 Z M 11.5 1 "/>
<path style=" stroke:none;fill-rule:nonzero;fill:#ff6666;fill-opacity:1;" d="M 1 6.25 L 4.5 6.25 L 4.5 9.75 L 1 9.75 Z M 1 6.25 "/>
<path style=" stroke:none;fill-rule:nonzero;fill:#ff6666;fill-opacity:1;" d="M 6.25 6.25 L 9.75 6.25 L 9.75 9.75 L 6.25 9.75 Z M 6.25 6.25 "/>
<path style=" stroke:none;fill-rule:nonzero;fill:#ff6666;fill-opacity:1;" d="M 11.5 6.25 L 15 6.25 L 15 9.75 L 11.5 9.75 Z M 11.5 6.25 "/>
<path style=" stroke:none;fill-rule:nonzero;fill:#ff6666;fill-opacity:1;" d="M 1 11.5 L 4.5 11.5 L 4.5 15 L 1 15 Z M 1 11.5 "/>
<path style=" stroke:none;fill-rule:nonzero;fill:#ff6666;fill-opacity:1;" d="M 6.25 11.5 L 9.75 11.5 L 9.75 15 L 6.25 15 Z M 6.25 11.5 "/>
<path style=" stroke:none;fill-rule:nonzero;fill:#ff6666;fill-opacity:1;" d="M 11.5 11.5 L 15 11.5 L 15 15 L 11.5 15 Z M 11.5 11.5 "/>
</g>
</svg>
