
<svg xmlns="http://www.w3.org/2000/svg" xmlns:xlink="http://www.w3.org/1999/xlink" width="16px" height="16px" viewBox="0 0 16 16" version="1.1">
<g id="surface1">
<path style=" stroke:none;fill-rule:nonzero;fill:#ff6666;fill-opacity:1;" d="M 4.492188 0.00390625 C 4.386719 0 4.285156 0.0507812 4.222656 0.136719 C 4.160156 0.222656 4.144531 0.332031 4.179688 0.433594 C 4.199219 0.480469 4.515625 1.300781 5.371094 1.703125 C 5.460938 1.503906 5.5625 1.3125 5.691406 1.140625 C 5.039062 0.859375 4.792969 0.246094 4.78125 0.210938 C 4.734375 0.0898438 4.621094 0.0078125 4.492188 0.00390625 Z M 11.507812 0.00390625 C 11.382812 0.0078125 11.265625 0.0898438 11.21875 0.210938 C 11.207031 0.246094 10.957031 0.871094 10.289062 1.152344 C 10.421875 1.324219 10.535156 1.507812 10.628906 1.703125 C 11.484375 1.300781 11.800781 0.480469 11.820312 0.433594 C 11.878906 0.265625 11.792969 0.0859375 11.628906 0.0234375 C 11.589844 0.0078125 11.550781 0 11.507812 0.00390625 Z M 8 0.640625 C 7.265625 0.640625 6.574219 1 6.152344 1.601562 L 9.828125 1.601562 C 9.402344 1.015625 8.726562 0.640625 8 0.640625 Z M 0.933594 1.921875 C 0.808594 1.933594 0.703125 2.015625 0.660156 2.140625 C 0.636719 2.222656 0.640625 2.308594 0.679688 2.382812 C 0.714844 2.460938 0.78125 2.515625 0.863281 2.542969 L 2.671875 3.152344 L 3.050781 3.792969 C 3.152344 3.53125 3.265625 3.300781 3.382812 3.09375 L 3.152344 2.722656 C 3.113281 2.65625 3.054688 2.605469 2.980469 2.582031 L 1.0625 1.941406 C 1.019531 1.925781 0.976562 1.921875 0.933594 1.921875 Z M 15.066406 1.921875 C 15.023438 1.921875 14.980469 1.925781 14.9375 1.941406 L 13.019531 2.582031 C 12.945312 2.605469 12.886719 2.65625 12.847656 2.722656 L 12.597656 3.121094 C 12.710938 3.328125 12.824219 3.570312 12.929688 3.832031 L 13.328125 3.152344 L 15.136719 2.542969 C 15.21875 2.515625 15.285156 2.460938 15.320312 2.382812 C 15.359375 2.308594 15.363281 2.222656 15.335938 2.140625 C 15.296875 2.015625 15.191406 1.933594 15.066406 1.921875 Z M 5.652344 2.242188 C 5.59375 2.242188 4.351562 2.316406 3.550781 4.320312 C 3.675781 4.410156 3.789062 4.484375 3.859375 4.519531 C 3.875 4.527344 3.878906 4.535156 3.890625 4.539062 C 3.894531 4.546875 4.839844 5.121094 8 5.121094 C 11.152344 5.121094 12.058594 4.546875 12.070312 4.539062 C 12.175781 4.480469 12.296875 4.390625 12.417969 4.300781 C 12.398438 4.246094 12.390625 4.203125 12.367188 4.152344 C 11.558594 2.308594 10.429688 2.242188 10.367188 2.242188 Z M 12.808594 4.820312 C 12.632812 4.949219 12.480469 5.046875 12.417969 5.082031 C 12.359375 5.125 11.746094 5.511719 9.898438 5.679688 C 9.792969 6.519531 9.140625 7.191406 8.308594 7.328125 C 8.3125 7.339844 8.320312 7.351562 8.320312 7.359375 L 8.320312 15.597656 C 9.035156 15.363281 11.207031 14.527344 12.667969 12.570312 L 13.128906 14.167969 C 13.144531 14.222656 13.171875 14.269531 13.207031 14.308594 L 14.808594 15.90625 C 14.871094 15.96875 14.953125 15.996094 15.039062 15.996094 C 15.121094 15.996094 15.203125 15.96875 15.269531 15.90625 C 15.394531 15.78125 15.394531 15.574219 15.269531 15.449219 L 13.726562 13.90625 L 13.136719 11.847656 C 13.699219 10.867188 14.078125 9.652344 14.078125 8.160156 C 14.078125 7.597656 14 7.078125 13.847656 6.589844 L 14.789062 6.96875 L 15.378906 8.441406 C 15.429688 8.566406 15.550781 8.640625 15.679688 8.640625 C 15.71875 8.640625 15.757812 8.632812 15.796875 8.621094 C 15.960938 8.554688 16.042969 8.363281 15.976562 8.199219 L 15.339844 6.601562 C 15.304688 6.519531 15.238281 6.453125 15.15625 6.421875 L 13.558594 5.78125 C 13.542969 5.773438 13.523438 5.773438 13.507812 5.769531 C 13.320312 5.425781 13.085938 5.105469 12.808594 4.820312 Z M 3.183594 4.839844 C 2.914062 5.121094 2.6875 5.433594 2.5 5.769531 C 2.484375 5.773438 2.460938 5.773438 2.441406 5.78125 L 0.84375 6.421875 C 0.761719 6.453125 0.695312 6.519531 0.660156 6.601562 L 0.0234375 8.199219 C -0.0429688 8.367188 0.0390625 8.554688 0.203125 8.621094 C 0.242188 8.636719 0.28125 8.640625 0.320312 8.640625 C 0.449219 8.640625 0.570312 8.566406 0.621094 8.441406 L 1.210938 6.96875 L 2.152344 6.589844 C 2.003906 7.074219 1.921875 7.597656 1.921875 8.160156 C 1.921875 9.648438 2.296875 10.867188 2.863281 11.847656 L 2.28125 13.910156 L 0.730469 15.445312 C 0.605469 15.574219 0.605469 15.777344 0.730469 15.90625 C 0.796875 15.96875 0.878906 15.996094 0.960938 15.996094 C 1.046875 15.996094 1.128906 15.96875 1.191406 15.90625 L 2.792969 14.308594 C 2.828125 14.269531 2.855469 14.21875 2.871094 14.167969 L 3.332031 12.558594 C 4.792969 14.515625 6.964844 15.363281 7.679688 15.597656 L 7.679688 7.359375 C 7.679688 7.351562 7.6875 7.339844 7.691406 7.328125 C 6.859375 7.191406 6.207031 6.519531 6.101562 5.679688 C 4.351562 5.519531 3.6875 5.167969 3.550781 5.082031 C 3.425781 5.007812 3.300781 4.929688 3.183594 4.839844 Z M 4.800781 7.359375 C 5.507812 7.359375 6.082031 7.933594 6.082031 8.640625 C 6.082031 9.347656 5.507812 9.921875 4.800781 9.921875 C 4.09375 9.921875 3.519531 9.347656 3.519531 8.640625 C 3.519531 7.933594 4.09375 7.359375 4.800781 7.359375 Z M 11.199219 7.359375 C 11.90625 7.359375 12.480469 7.933594 12.480469 8.640625 C 12.480469 9.347656 11.90625 9.921875 11.199219 9.921875 C 10.492188 9.921875 9.917969 9.347656 9.917969 8.640625 C 9.917969 7.933594 10.492188 7.359375 11.199219 7.359375 Z M 5.761719 11.839844 C 6.289062 11.839844 6.722656 12.269531 6.71875 12.800781 C 6.71875 13.328125 6.289062 13.757812 5.761719 13.757812 C 5.230469 13.757812 4.800781 13.328125 4.800781 12.800781 C 4.800781 12.269531 5.230469 11.839844 5.761719 11.839844 Z M 10.238281 11.839844 C 10.769531 11.839844 11.199219 12.269531 11.199219 12.800781 C 11.199219 13.328125 10.769531 13.757812 10.238281 13.757812 C 9.707031 13.757812 9.277344 13.328125 9.277344 12.800781 C 9.277344 12.269531 9.710938 11.839844 10.238281 11.839844 Z M 10.238281 11.839844 "/>
</g>
</svg>
