
<svg xmlns="http://www.w3.org/2000/svg" xmlns:xlink="http://www.w3.org/1999/xlink" width="16px" height="16px" viewBox="0 0 16 16" version="1.1">
<g id="surface1">
<path style=" stroke:none;fill-rule:evenodd;fill:#ff6666;fill-opacity:1;" d="M 6.289062 13.230469 C 7.050781 13 7.960938 12.359375 8.390625 11.757812 L 8.53125 11.558594 L 8.355469 11.023438 C 7.707031 9.070312 8.882812 7.101562 10.890625 6.761719 C 12.351562 6.515625 13.886719 7.40625 14.414062 8.8125 C 14.539062 9.148438 14.542969 9.152344 14.503906 8.894531 C 14.382812 8.136719 14.003906 7.433594 13.394531 6.828125 C 12.753906 6.199219 12.011719 5.839844 11.085938 5.714844 C 10.800781 5.679688 10.773438 5.6875 10.664062 5.871094 C 10.5 6.148438 10.019531 6.617188 9.664062 6.84375 C 8.710938 7.453125 7.238281 7.453125 6.28125 6.84375 C 5.199219 6.152344 4.589844 4.835938 4.789062 3.621094 C 4.894531 2.957031 5.1875 2.367188 5.652344 1.875 C 5.992188 1.515625 6.015625 1.476562 5.820312 1.589844 C 5.492188 1.777344 4.722656 2.613281 4.503906 3.019531 C 4.253906 3.484375 4.046875 4.3125 4.050781 4.859375 C 4.050781 5.332031 4.175781 5.953125 4.355469 6.40625 C 4.460938 6.671875 4.472656 6.679688 4.863281 6.722656 C 5.085938 6.746094 5.433594 6.824219 5.636719 6.894531 C 7.453125 7.519531 8.3125 9.617188 7.460938 11.351562 C 6.882812 12.535156 5.539062 13.296875 4.285156 13.152344 C 3.773438 13.097656 3.828125 13.164062 4.394531 13.296875 C 4.898438 13.410156 5.8125 13.378906 6.289062 13.230469 Z M 8 0.859375 C 11.949219 0.859375 15.140625 4.050781 15.140625 8 C 15.140625 11.949219 11.949219 15.140625 8 15.140625 C 4.050781 15.140625 0.859375 11.949219 0.859375 8 C 0.859375 4.050781 4.050781 0.859375 8 0.859375 Z M 8 0 C 3.585938 0 0 3.585938 0 8 C 0 12.414062 3.585938 16 8 16 C 12.414062 16 16 12.414062 16 8 C 16 3.585938 12.414062 0 8 0 Z M 8 0 "/>
</g>
</svg>
