
<svg xmlns="http://www.w3.org/2000/svg" xmlns:xlink="http://www.w3.org/1999/xlink" width="16px" height="16px" viewBox="0 0 16 16" version="1.1">
<g id="surface1">
<path style=" stroke:none;fill-rule:evenodd;fill:#ff6666;fill-opacity:1;" d="M 8 0 C 6.085938 0.00390625 4.238281 0.691406 2.789062 1.941406 L 4.972656 4.125 C 5.164062 4.046875 5.378906 4 5.601562 4 L 10.398438 4 C 10.621094 4 10.835938 4.046875 11.027344 4.125 L 13.214844 1.9375 C 11.765625 0.6875 9.914062 0 8 0 Z M 1.9375 2.785156 C 0.6875 4.234375 0 6.085938 0 8 C 0.00390625 9.914062 0.691406 11.761719 1.941406 13.210938 L 4 11.152344 L 4 5.601562 C 4 5.378906 4.046875 5.164062 4.125 4.972656 Z M 14.058594 2.789062 L 11.875 4.972656 C 11.953125 5.164062 12 5.378906 12 5.601562 L 12 10.398438 C 12 10.621094 11.953125 10.835938 11.875 11.027344 L 14.0625 13.214844 C 15.3125 11.765625 16 9.914062 16 8 C 15.996094 6.085938 15.308594 4.238281 14.058594 2.789062 Z M 11.027344 11.875 C 10.835938 11.953125 10.621094 12 10.398438 12 L 6.800781 12 L 4 14.800781 L 4 12.847656 L 2.785156 14.0625 C 4.234375 15.3125 6.085938 16 8 16 C 9.914062 15.996094 11.761719 15.308594 13.210938 14.058594 Z M 11.027344 11.875 "/>
</g>
</svg>
