
<svg xmlns="http://www.w3.org/2000/svg" xmlns:xlink="http://www.w3.org/1999/xlink" width="16px" height="16px" viewBox="0 0 16 16" version="1.1">
<g id="surface1">
<path style=" stroke:none;fill-rule:nonzero;fill:#ff6666;fill-opacity:1;" d="M 2.660156 1.660156 C 0.152344 4.355469 0.757812 9.378906 4.015625 12.878906 C 7.273438 16.382812 11.945312 17.035156 14.453125 14.339844 C 16.960938 11.644531 16.355469 6.621094 13.097656 3.117188 C 9.839844 -0.382812 5.167969 -1.035156 2.660156 1.660156 Z M 4.933594 2.78125 C 6.902344 0.664062 10.527344 1.125 13.027344 3.8125 C 15.527344 6.496094 15.953125 10.390625 13.984375 12.507812 C 12.011719 14.625 8.390625 14.167969 5.890625 11.480469 C 3.390625 8.792969 2.964844 4.898438 4.933594 2.78125 Z M 4.933594 2.78125 "/>
<path style=" stroke:none;fill-rule:nonzero;fill:#ff6666;fill-opacity:1;" d="M 12.175781 2.621094 L 13.535156 2.621094 C 13.742188 2.621094 13.90625 2.785156 13.90625 2.988281 L 13.90625 4.328125 C 13.90625 4.535156 13.742188 4.695312 13.535156 4.695312 L 12.175781 4.695312 C 11.972656 4.695312 11.804688 4.535156 11.804688 4.328125 L 11.804688 2.988281 C 11.804688 2.785156 11.972656 2.621094 12.175781 2.621094 Z M 12.175781 2.621094 "/>
<path style=" stroke:none;fill-rule:nonzero;fill:#ff6666;fill-opacity:1;" d="M 0.875 5.351562 L 4.070312 5.351562 C 4.554688 5.351562 4.945312 5.738281 4.945312 6.21875 L 4.945312 9.378906 C 4.945312 9.859375 4.554688 10.242188 4.070312 10.242188 L 0.875 10.242188 C 0.390625 10.242188 0 9.859375 0 9.378906 L 0 6.21875 C 0 5.738281 0.390625 5.351562 0.875 5.351562 Z M 0.875 5.351562 "/>
<path style=" stroke:none;fill-rule:nonzero;fill:#ff6666;fill-opacity:1;" d="M 13.316406 11.753906 L 15.246094 11.753906 C 15.539062 11.753906 15.773438 11.988281 15.773438 12.277344 L 15.773438 14.1875 C 15.773438 14.476562 15.539062 14.710938 15.246094 14.710938 L 13.316406 14.710938 C 13.023438 14.710938 12.789062 14.476562 12.789062 14.1875 L 12.789062 12.277344 C 12.789062 11.988281 13.023438 11.753906 13.316406 11.753906 Z M 13.316406 11.753906 "/>
</g>
</svg>
