
<svg xmlns="http://www.w3.org/2000/svg" xmlns:xlink="http://www.w3.org/1999/xlink" width="16px" height="16px" viewBox="0 0 16 16" version="1.1">
<g id="surface1">
<path style=" stroke:none;fill-rule:nonzero;fill:#ff6666;fill-opacity:1;" d="M 8 2.546875 C 4.363281 2.546875 1.257812 4.808594 0 8 C 1.257812 11.191406 4.363281 13.453125 8 13.453125 C 11.636719 13.453125 14.742188 11.191406 16 8 C 14.742188 4.808594 11.636719 2.546875 8 2.546875 Z M 8 11.636719 C 5.992188 11.636719 4.363281 10.007812 4.363281 8 C 4.363281 5.992188 5.992188 4.363281 8 4.363281 C 10.007812 4.363281 11.636719 5.992188 11.636719 8 C 11.636719 10.007812 10.007812 11.636719 8 11.636719 Z M 8 5.816406 C 6.792969 5.816406 5.816406 6.792969 5.816406 8 C 5.816406 9.207031 6.792969 10.183594 8 10.183594 C 9.207031 10.183594 10.183594 9.207031 10.183594 8 C 10.183594 6.792969 9.207031 5.816406 8 5.816406 Z M 8 5.816406 "/>
</g>
</svg>
