
<svg xmlns="http://www.w3.org/2000/svg" xmlns:xlink="http://www.w3.org/1999/xlink" width="16px" height="16px" viewBox="0 0 16 16" version="1.1">
<g id="surface1">
<path style=" stroke:none;fill-rule:nonzero;fill:#ff6666;fill-opacity:1;" d="M 10.148438 3.765625 C 9.863281 3.78125 9.609375 3.945312 9.480469 4.199219 L 7.390625 8.742188 L 4.933594 11.554688 L 1.75 11.171875 C 0.691406 11.054688 0.511719 12.644531 1.574219 12.761719 L 5.171875 13.1875 C 5.433594 13.21875 5.6875 13.117188 5.863281 12.921875 L 8.660156 9.722656 C 8.703125 9.671875 8.742188 9.617188 8.769531 9.558594 L 10.273438 6.40625 L 11.1875 8.414062 C 11.417969 8.921875 12.085938 9.042969 12.480469 8.648438 L 14.878906 6.246094 C 15.664062 5.496094 14.5 4.332031 13.746094 5.117188 L 12.164062 6.699219 L 10.921875 4.234375 C 10.785156 3.933594 10.480469 3.746094 10.148438 3.765625 Z M 10.148438 3.765625 "/>
<path style=" stroke:none;fill-rule:evenodd;fill:#ff6666;fill-opacity:1;" d="M 10.003906 1.570312 C 10.003906 0.703125 10.707031 0 11.574219 0 C 12.441406 0 13.148438 0.703125 13.148438 1.570312 C 13.148438 2.4375 12.441406 3.144531 11.574219 3.144531 C 10.707031 3.144531 10.003906 2.4375 10.003906 1.570312 Z M 8.496094 3.171875 C 8.429688 3.167969 8.359375 3.175781 8.292969 3.195312 L 5.179688 3.992188 C 4.824219 4.082031 4.574219 4.402344 4.574219 4.769531 L 4.574219 8.367188 C 4.558594 9.449219 6.019531 9.449219 6.003906 8.367188 L 6.003906 5.421875 L 7.742188 5.007812 L 7.796875 5.953125 C 7.597656 6.542969 7.410156 7.128906 7.265625 7.707031 C 6.828125 9.226562 7.308594 10.140625 8.230469 10.367188 C 8.265625 10.40625 8.304688 10.441406 8.347656 10.472656 L 10.644531 12.117188 L 12.152344 15.519531 C 12.585938 16.492188 14.050781 15.84375 13.617188 14.867188 L 12.015625 11.269531 C 11.960938 11.140625 11.867188 11.027344 11.753906 10.945312 L 9.921875 9.632812 C 10.300781 8.988281 10.457031 8.058594 10.679688 7.28125 C 10.847656 6.679688 11.023438 6.078125 11.195312 5.476562 C 11.351562 4.980469 11.308594 4.570312 11.195312 4.289062 C 10.949219 3.699219 10.605469 3.640625 10.046875 3.511719 L 8.71875 3.203125 C 8.648438 3.183594 8.574219 3.171875 8.496094 3.171875 Z M 8.496094 3.171875 "/>
</g>
</svg>
