
<svg xmlns="http://www.w3.org/2000/svg" xmlns:xlink="http://www.w3.org/1999/xlink" width="16px" height="16px" viewBox="0 0 16 16" version="1.1">
<g id="surface1">
<path style=" stroke:none;fill-rule:evenodd;fill:#ff6666;fill-opacity:1;" d="M 8.605469 4.316406 C 7.84375 4.175781 7.058594 4.304688 6.382812 4.679688 C 6.023438 4.882812 5.710938 5.144531 5.449219 5.457031 L 3.121094 3.167969 C 3.597656 2.640625 4.160156 2.1875 4.792969 1.835938 C 6.132812 1.085938 7.691406 0.832031 9.203125 1.109375 C 10.710938 1.390625 12.074219 2.191406 13.054688 3.371094 C 13.269531 3.628906 13.460938 3.898438 13.632812 4.179688 C 14.246094 5.199219 14.574219 6.371094 14.574219 7.574219 L 16 7.574219 L 12.878906 10.753906 L 9.753906 7.574219 L 11.3125 7.574219 C 11.3125 6.800781 11.042969 6.050781 10.546875 5.457031 C 10.429688 5.3125 10.300781 5.183594 10.164062 5.0625 C 9.722656 4.683594 9.183594 4.421875 8.605469 4.316406 Z M 10.457031 9.796875 L 12.875 11.984375 C 12.070312 12.875 11.039062 13.523438 9.902344 13.867188 C 9.585938 13.964844 9.261719 14.035156 8.929688 14.082031 C 7.410156 14.300781 5.863281 13.980469 4.554688 13.175781 C 3.25 12.371094 2.261719 11.132812 1.773438 9.679688 C 1.539062 8.996094 1.425781 8.285156 1.425781 7.574219 L 0 7.574219 L 3.121094 4.394531 L 6.246094 7.574219 L 4.6875 7.574219 C 4.6875 7.933594 4.742188 8.292969 4.859375 8.636719 C 5.109375 9.367188 5.605469 9.992188 6.265625 10.398438 C 6.765625 10.707031 7.339844 10.875 7.921875 10.886719 C 8.105469 10.890625 8.285156 10.882812 8.46875 10.855469 C 9.234375 10.746094 9.9375 10.371094 10.457031 9.796875 Z M 10.457031 9.796875 "/>
</g>
</svg>
