
<svg xmlns="http://www.w3.org/2000/svg" xmlns:xlink="http://www.w3.org/1999/xlink" width="16px" height="16px" viewBox="0 0 16 16" version="1.1">
<g id="surface1">
<path style=" stroke:none;fill-rule:nonzero;fill:#ff6666;fill-opacity:1;" d="M 2.222656 0 L 2.222656 7.386719 C 2.222656 9.023438 2.835938 10.601562 3.871094 11.554688 L 2.222656 14.222656 C 3.902344 15.515625 5.925781 16 8 16 C 10.074219 16 12.097656 15.515625 13.777344 14.222656 L 12.128906 11.554688 C 13.164062 10.601562 13.777344 9.023438 13.777344 7.386719 L 13.777344 0 L 11.554688 0 L 11.554688 2.953125 C 11.089844 2.65625 10.1875 2.089844 9.332031 1.929688 L 9.332031 0 L 6.667969 0 L 6.667969 1.929688 C 6.253906 2.015625 4.910156 2.65625 4.445312 2.953125 L 4.445312 0 Z M 8 4.445312 C 9.558594 4.445312 10.566406 5.160156 11.554688 5.777344 L 11.554688 8 C 11.554688 9.5625 9.15625 10.941406 8 11.554688 C 6.84375 10.941406 4.445312 9.5625 4.445312 8 L 4.445312 5.777344 C 5.433594 5.160156 6.441406 4.445312 8 4.445312 Z M 8 4.445312 "/>
</g>
</svg>
