
<svg xmlns="http://www.w3.org/2000/svg" xmlns:xlink="http://www.w3.org/1999/xlink" width="16px" height="16px" viewBox="0 0 16 16" version="1.1">
<g id="surface1">
<path style=" stroke:none;fill-rule:nonzero;fill:#ff6666;fill-opacity:1;" d="M 12.933594 1.867188 C 12.847656 1.871094 12.765625 1.890625 12.6875 1.917969 L 12.683594 1.910156 L 12.628906 1.933594 C 12.585938 1.953125 12.542969 1.972656 12.5 2 L 10.984375 2.816406 C 12.890625 4.117188 13.925781 5.953125 13.84375 8.25 C 14.320312 8 14.703125 7.769531 15.179688 7.582031 C 15.191406 7.578125 15.207031 7.570312 15.222656 7.566406 C 15.253906 7.554688 15.28125 7.542969 15.3125 7.527344 C 15.328125 7.519531 15.347656 7.507812 15.363281 7.5 C 15.390625 7.484375 15.417969 7.46875 15.445312 7.449219 C 15.484375 7.421875 15.523438 7.390625 15.5625 7.355469 C 15.597656 7.316406 15.632812 7.28125 15.660156 7.238281 C 15.683594 7.210938 15.703125 7.183594 15.71875 7.15625 C 15.738281 7.132812 15.753906 7.109375 15.765625 7.082031 C 15.785156 7.046875 15.804688 7.007812 15.824219 6.96875 C 15.832031 6.949219 15.839844 6.929688 15.851562 6.910156 C 15.867188 6.863281 15.882812 6.820312 15.894531 6.773438 C 15.902344 6.75 15.910156 6.726562 15.917969 6.707031 C 15.929688 6.664062 15.941406 6.617188 15.949219 6.570312 C 15.953125 6.542969 15.960938 6.511719 15.964844 6.484375 C 15.972656 6.4375 15.980469 6.390625 15.984375 6.339844 C 15.988281 6.3125 15.988281 6.28125 15.992188 6.25 C 15.996094 6.203125 15.996094 6.152344 15.996094 6.101562 C 16 6.066406 16 6.03125 16 5.996094 C 16 5.953125 15.996094 5.90625 15.992188 5.863281 C 15.992188 5.820312 15.992188 5.777344 15.988281 5.734375 C 15.984375 5.722656 15.984375 5.703125 15.984375 5.691406 C 15.964844 5.527344 15.941406 5.355469 15.902344 5.1875 C 15.902344 5.179688 15.898438 5.171875 15.894531 5.164062 C 15.859375 4.988281 15.808594 4.808594 15.746094 4.632812 L 15.742188 4.621094 C 15.742188 4.621094 15.738281 4.617188 15.738281 4.613281 C 15.675781 4.4375 15.605469 4.257812 15.519531 4.085938 C 15.515625 4.074219 15.511719 4.066406 15.507812 4.054688 C 15.417969 3.867188 15.316406 3.6875 15.210938 3.511719 C 15.132812 3.390625 15.050781 3.273438 14.96875 3.160156 C 14.960938 3.152344 14.953125 3.140625 14.945312 3.128906 C 14.863281 3.019531 14.777344 2.917969 14.691406 2.820312 C 14.679688 2.804688 14.667969 2.792969 14.652344 2.78125 C 14.578125 2.695312 14.5 2.617188 14.421875 2.546875 C 14.40625 2.53125 14.394531 2.519531 14.378906 2.503906 C 14.289062 2.425781 14.195312 2.351562 14.101562 2.28125 C 14.097656 2.277344 14.089844 2.273438 14.082031 2.265625 C 14.003906 2.210938 13.921875 2.160156 13.84375 2.117188 C 13.820312 2.101562 13.792969 2.089844 13.769531 2.074219 C 13.679688 2.027344 13.59375 1.988281 13.507812 1.957031 C 13.5 1.953125 13.492188 1.953125 13.484375 1.949219 C 13.402344 1.921875 13.324219 1.902344 13.246094 1.886719 C 13.222656 1.882812 13.203125 1.882812 13.179688 1.878906 C 13.097656 1.867188 13.011719 1.863281 12.933594 1.867188 Z M 12.933594 1.867188 "/>
<path style=" stroke:none;fill-rule:evenodd;fill:#ff6666;fill-opacity:1;" d="M 1.621094 7.476562 C 1.890625 4.339844 4.523438 1.875 7.730469 1.875 C 11.117188 1.875 13.859375 4.621094 13.859375 8.007812 C 13.859375 8.746094 13.730469 9.453125 13.480469 10.101562 C 13.816406 8.945312 13.628906 7.902344 12.996094 7.441406 C 12.796875 7.300781 12.5625 7.21875 12.304688 7.207031 C 11.445312 7.164062 10.433594 7.871094 9.753906 8.984375 C 9.320312 9.699219 9.070312 10.503906 9.0625 11.226562 C 9.054688 11.949219 9.289062 12.527344 9.714844 12.835938 C 10.234375 13.210938 10.988281 13.132812 11.726562 12.628906 C 11.867188 12.507812 12 12.378906 12.128906 12.246094 C 12.1875 12.1875 12.242188 12.125 12.308594 12.070312 C 12.628906 11.695312 12.910156 11.289062 13.15625 10.863281 C 13.25 10.664062 13.339844 10.46875 13.421875 10.265625 C 13.347656 10.472656 13.257812 10.671875 13.15625 10.863281 C 12.921875 11.300781 12.640625 11.710938 12.308594 12.070312 C 12.257812 12.140625 12.199219 12.199219 12.128906 12.246094 C 11.027344 13.417969 9.464844 14.136719 7.730469 14.136719 C 6.4375 14.136719 5.242188 13.738281 4.253906 13.054688 L 5.324219 12.527344 L 5.320312 12.527344 C 5.402344 12.484375 5.476562 12.429688 5.542969 12.363281 C 5.871094 12.035156 6.019531 11.445312 5.957031 10.726562 C 5.890625 10.007812 5.621094 9.214844 5.199219 8.523438 C 4.605469 7.542969 3.800781 6.90625 3.113281 6.875 C 2.980469 6.871094 2.851562 6.886719 2.738281 6.929688 Z M 7.730469 1.875 C 6.699219 1.878906 5.683594 2.140625 4.78125 2.640625 C 4.445312 2.890625 4.265625 3.179688 4.265625 3.476562 C 4.265625 3.898438 4.628906 4.304688 5.28125 4.605469 C 5.929688 4.90625 6.8125 5.074219 7.730469 5.074219 C 8.648438 5.074219 9.53125 4.90625 10.179688 4.605469 C 10.828125 4.304688 11.195312 3.898438 11.195312 3.476562 C 11.195312 3.171875 11.007812 2.875 10.660156 2.621094 C 9.761719 2.132812 8.753906 1.875 7.730469 1.875 Z M 7.730469 1.875 "/>
<path style=" stroke:none;fill-rule:nonzero;fill:#ff6666;fill-opacity:1;" d="M 3.113281 6.875 C 2.980469 6.871094 2.851562 6.886719 2.738281 6.929688 L 0.765625 7.898438 C 0.707031 7.921875 0.652344 7.949219 0.597656 7.980469 L 0.585938 7.988281 C 0.527344 8.023438 0.476562 8.066406 0.429688 8.113281 C 0.101562 8.441406 -0.0507812 9.03125 0.015625 9.75 C 0.078125 10.472656 0.351562 11.265625 0.769531 11.957031 C 1.535156 13.21875 2.621094 13.867188 3.34375 13.5 L 5.324219 12.527344 L 5.320312 12.527344 C 5.402344 12.484375 5.476562 12.429688 5.542969 12.363281 C 5.871094 12.035156 6.019531 11.445312 5.957031 10.726562 C 5.890625 10.007812 5.621094 9.214844 5.199219 8.523438 C 4.605469 7.542969 3.800781 6.90625 3.113281 6.875 Z M 3.113281 6.875 "/>
</g>
</svg>
