
<svg xmlns="http://www.w3.org/2000/svg" xmlns:xlink="http://www.w3.org/1999/xlink" width="16px" height="16px" viewBox="0 0 16 16" version="1.1">
<g id="surface1">
<path style=" stroke:none;fill-rule:evenodd;fill:#ff6666;fill-opacity:1;" d="M 1 6.0625 L 3.242188 6.0625 L 3.242188 9.050781 L 4.722656 9.050781 L 4.722656 6.0625 L 11.285156 6.0625 L 11.285156 9.050781 L 12.769531 9.050781 L 12.769531 6.0625 L 15 6.0625 L 15 9.941406 C 15 10.46875 14.988281 10.988281 14.960938 11.511719 C 14.941406 11.898438 14.898438 12.289062 14.828125 12.671875 C 14.789062 12.929688 14.710938 13.171875 14.609375 13.410156 C 14.539062 13.558594 14.449219 13.691406 14.339844 13.808594 C 14.230469 13.921875 14.089844 14.011719 13.941406 14.078125 C 13.710938 14.179688 13.460938 14.25 13.199219 14.300781 C 12.820312 14.371094 12.429688 14.410156 12.039062 14.429688 C 11.519531 14.460938 10.988281 14.46875 10.46875 14.46875 C 10.46875 14.46875 10.46875 14.46875 10.460938 14.46875 L 5.539062 14.46875 C 5.53125 14.46875 5.53125 14.46875 5.53125 14.46875 C 5.011719 14.46875 4.480469 14.460938 3.960938 14.429688 C 3.570312 14.410156 3.179688 14.371094 2.800781 14.300781 C 2.539062 14.25 2.289062 14.179688 2.058594 14.078125 C 1.910156 14.011719 1.769531 13.921875 1.660156 13.808594 C 1.550781 13.691406 1.460938 13.558594 1.390625 13.410156 C 1.289062 13.171875 1.210938 12.929688 1.171875 12.671875 C 1.101562 12.289062 1.058594 11.898438 1.039062 11.511719 C 1.011719 10.988281 1 10.46875 1 9.941406 Z M 0 6.0625 C 0 1.222656 0.691406 0.53125 5.535156 0.53125 L 10.464844 0.53125 C 15.308594 0.53125 16 1.222656 16 6.0625 L 16 9.9375 C 16 14.777344 15.308594 15.46875 10.464844 15.46875 L 5.535156 15.46875 C 0.691406 15.46875 0 14.777344 0 9.9375 Z M 0 6.0625 "/>
</g>
</svg>
