
<svg xmlns="http://www.w3.org/2000/svg" xmlns:xlink="http://www.w3.org/1999/xlink" width="16px" height="16px" viewBox="0 0 16 16" version="1.1">
<g id="surface1">
<path style=" stroke:none;fill-rule:evenodd;fill:#ff6666;fill-opacity:1;" d="M 10.207031 11.566406 C 8.613281 9.921875 7.007812 8.285156 5.445312 6.613281 L 3.570312 8.472656 L 1.578125 6.472656 L 5.558594 2.53125 L 9.078125 3.015625 L 6.546875 5.519531 C 8.265625 7.144531 9.988281 8.769531 11.707031 10.394531 C 12.328125 9.648438 12.695312 8.691406 12.691406 7.644531 C 12.683594 6.480469 12.359375 5.019531 11.613281 3.621094 C 10.882812 2.238281 9.636719 0.921875 8 0 C 9.875 0.496094 11.53125 1.617188 12.664062 2.96875 C 14.140625 4.738281 14.789062 6.894531 14.734375 8.566406 C 14.691406 9.957031 14.253906 11.171875 13.523438 12.105469 C 14.246094 12.785156 14.964844 13.464844 15.683594 14.140625 C 16.109375 14.566406 16.105469 15.257812 15.675781 15.683594 C 15.246094 16.109375 14.554688 16.105469 14.128906 15.679688 C 13.429688 14.921875 12.722656 14.171875 12.007812 13.429688 C 11.175781 13.902344 10.195312 14.152344 9.125 14.128906 C 7.410156 14.089844 5.871094 13.320312 4.851562 12.113281 C 4.789062 12.355469 4.628906 12.554688 4.402344 12.664062 C 4.390625 12.671875 4.378906 12.679688 4.363281 12.6875 C 3.695312 13.007812 3.171875 13.574219 2.925781 14.269531 C 2.816406 14.617188 2.59375 14.972656 2.292969 15.273438 C 1.769531 15.800781 1.09375 16.074219 0.601562 15.964844 C 0.546875 15.988281 0.492188 16 0.433594 16 C 0.203125 16 0.0195312 15.816406 0.0195312 15.585938 C 0.0195312 15.539062 0.0273438 15.496094 0.0429688 15.453125 C -0.109375 14.957031 0.160156 14.253906 0.707031 13.699219 C 0.984375 13.425781 1.308594 13.210938 1.632812 13.089844 C 1.640625 13.089844 1.644531 13.085938 1.652344 13.082031 C 2.355469 12.84375 2.933594 12.324219 3.265625 11.664062 C 3.367188 11.363281 3.628906 11.148438 3.941406 11.105469 C 4.066406 10.960938 4.25 10.875 4.441406 10.875 C 4.523438 10.875 4.601562 10.890625 4.679688 10.917969 L 5.117188 10.550781 C 5.914062 11.429688 7.0625 11.980469 8.34375 11.980469 C 9.011719 11.980469 9.644531 11.832031 10.207031 11.566406 Z M 10.207031 11.566406 "/>
</g>
</svg>
