
<svg xmlns="http://www.w3.org/2000/svg" xmlns:xlink="http://www.w3.org/1999/xlink" width="16px" height="16px" viewBox="0 0 16 16" version="1.1">
<g id="surface1">
<path style=" stroke:none;fill-rule:evenodd;fill:#ff6666;fill-opacity:1;" d="M 14.691406 0.316406 C 14.398438 0.0664062 13.828125 0.00390625 13.328125 0 C 12.828125 0 12.296875 0.0351562 11.796875 0.355469 C 10.398438 1.070312 9.210938 1.890625 8.148438 2.777344 C 8.601562 3.625 9.167969 4.386719 9.835938 5.074219 L 8.523438 6.503906 L 1.238281 0.957031 C 1.195312 0.832031 1.132812 0.730469 1.054688 0.652344 C 0.992188 0.613281 0.921875 0.589844 0.855469 0.589844 C 0.714844 0.5 0.558594 0.5 0.417969 0.589844 C 0.28125 0.679688 0.167969 0.855469 0.113281 1.070312 C -0.0351562 1.378906 -0.0390625 1.796875 0.105469 2.105469 C 0.214844 2.175781 0.335938 2.191406 0.453125 2.152344 L 1.988281 3.316406 C 1.964844 3.355469 1.957031 3.421875 1.984375 3.523438 C 2.136719 3.777344 2.609375 4.226562 3.472656 4.882812 C 3.507812 4.910156 3.550781 4.941406 3.601562 4.980469 C 3.804688 5.128906 4.09375 5.347656 4.199219 5.472656 C 4.429688 5.75 4.617188 6.007812 4.726562 6.238281 L 7.046875 8.109375 L 0.625 15.085938 C 0.53125 15.191406 0.480469 15.328125 0.488281 15.46875 C 0.492188 15.609375 0.554688 15.742188 0.65625 15.839844 C 0.761719 15.9375 0.898438 15.984375 1.039062 15.980469 C 1.179688 15.972656 1.316406 15.914062 1.410156 15.808594 L 7.636719 9.035156 C 7.65625 9.207031 7.710938 9.375 7.796875 9.527344 C 7.925781 9.742188 8.097656 9.929688 8.304688 10.074219 C 8.472656 10.210938 8.664062 10.316406 8.867188 10.394531 C 9.03125 10.457031 9.207031 10.488281 9.386719 10.488281 C 9.539062 10.484375 9.6875 10.464844 9.832031 10.429688 L 10.472656 11.082031 L 10.683594 12.019531 L 12.855469 15.660156 C 12.992188 15.886719 13.058594 15.976562 13.332031 15.996094 C 13.5 16.011719 13.660156 15.988281 13.808594 15.960938 C 14.265625 15.875 14.664062 15.554688 15.050781 15.238281 L 15.105469 15.195312 C 15.367188 15 15.386719 14.984375 15.304688 14.625 C 15.253906 14.351562 15.171875 14.113281 14.878906 13.964844 L 12.148438 11.972656 L 11.601562 10.214844 L 11.457031 9.601562 C 11.578125 8.628906 11.382812 8.527344 10.75 8.191406 L 10.730469 8.179688 L 10.730469 8.183594 L 9.375 7.148438 L 10.617188 5.796875 C 11.226562 6.316406 11.90625 6.78125 12.648438 7.199219 C 13.5625 5.917969 14.433594 4.613281 15.105469 3.207031 C 15.320312 2.742188 15.4375 2.332031 15.269531 1.765625 C 15.183594 1.230469 15.015625 0.59375 14.691406 0.316406 Z M 7.910156 8.925781 C 7.910156 8.886719 7.914062 8.851562 7.917969 8.8125 L 9.511719 10.097656 L 9.601562 10.195312 C 9.53125 10.207031 9.460938 10.210938 9.386719 10.210938 C 9.242188 10.210938 9.097656 10.183594 8.960938 10.136719 C 8.785156 10.066406 8.617188 9.972656 8.46875 9.855469 C 8.292969 9.730469 8.144531 9.570312 8.03125 9.386719 C 7.953125 9.242188 7.910156 9.085938 7.910156 8.925781 Z M 7.910156 8.925781 "/>
</g>
</svg>
