
<svg xmlns="http://www.w3.org/2000/svg" xmlns:xlink="http://www.w3.org/1999/xlink" width="16px" height="16px" viewBox="0 0 16 16" version="1.1">
<g id="surface1">
<path style=" stroke:none;fill-rule:evenodd;fill:#ff6666;fill-opacity:1;" d="M 3.960938 8.183594 C 4.414062 8.234375 4.863281 8.320312 5.300781 8.4375 C 5.78125 8.566406 6.234375 8.761719 6.65625 9.023438 C 7.070312 9.289062 7.429688 9.640625 7.695312 10.054688 C 7.914062 10.386719 8.09375 10.738281 8.230469 11.109375 C 8.347656 11.421875 8.410156 11.757812 8.414062 12.09375 C 8.429688 12.707031 8.167969 13.289062 7.710938 13.679688 C 7.277344 14.027344 6.726562 14.207031 6.175781 14.191406 C 5.648438 14.183594 5.132812 14.050781 4.671875 13.804688 C 4.140625 13.523438 3.679688 13.121094 3.332031 12.632812 C 2.992188 12.054688 2.738281 11.429688 2.597656 10.773438 C 2.515625 10.398438 2.453125 10.023438 2.414062 9.648438 C 2.273438 9.640625 2.132812 9.636719 1.992188 9.636719 C 1.992188 9.636719 1.992188 9.636719 1.988281 9.636719 L 0.785156 9.605469 L 0 9.589844 L 0.0351562 8.023438 L 0.816406 8.039062 L 2.023438 8.066406 C 2.144531 8.066406 2.269531 8.070312 2.398438 8.070312 C 2.421875 7.746094 2.460938 7.429688 2.515625 7.109375 C 2.597656 6.597656 2.738281 6.101562 2.9375 5.617188 C 3.121094 5.171875 3.371094 4.75 3.695312 4.386719 C 4.027344 4.011719 4.460938 3.734375 4.941406 3.601562 C 5.230469 3.527344 5.535156 3.496094 5.832031 3.496094 C 6.335938 3.496094 6.828125 3.601562 7.28125 3.808594 C 7.703125 4.003906 8.085938 4.261719 8.421875 4.578125 C 8.738281 4.875 9.03125 5.199219 9.292969 5.539062 C 9.539062 5.863281 9.78125 6.191406 10.011719 6.527344 C 10.175781 6.757812 10.34375 6.984375 10.511719 7.210938 C 10.644531 7.394531 10.789062 7.566406 10.953125 7.730469 C 11.054688 7.835938 11.164062 7.933594 11.292969 8.003906 C 11.34375 8.03125 11.40625 8.050781 11.46875 8.054688 C 11.539062 8.050781 11.613281 8.027344 11.679688 7.992188 C 11.726562 7.972656 11.765625 7.9375 11.785156 7.894531 C 11.832031 7.785156 11.847656 7.667969 11.84375 7.550781 C 11.84375 7.304688 11.816406 7.0625 11.757812 6.824219 C 11.695312 6.507812 11.625 6.207031 11.546875 5.898438 C 11.457031 5.566406 11.378906 5.230469 11.3125 4.894531 C 11.238281 4.558594 11.199219 4.210938 11.191406 3.871094 C 11.183594 3.519531 11.242188 3.171875 11.382812 2.847656 C 11.546875 2.480469 11.824219 2.179688 12.175781 1.988281 C 12.402344 1.863281 12.660156 1.804688 12.917969 1.808594 C 13.25 1.820312 13.574219 1.898438 13.871094 2.039062 C 14.132812 2.15625 14.386719 2.289062 14.621094 2.449219 C 14.894531 2.621094 15.152344 2.8125 15.402344 3.019531 L 16 3.527344 L 14.984375 4.722656 L 14.386719 4.21875 C 14.195312 4.050781 13.988281 3.902344 13.777344 3.765625 C 13.601562 3.652344 13.417969 3.550781 13.222656 3.46875 C 13.121094 3.417969 13.015625 3.390625 12.902344 3.382812 C 12.867188 3.40625 12.839844 3.4375 12.816406 3.472656 C 12.773438 3.585938 12.757812 3.707031 12.761719 3.832031 C 12.761719 4.078125 12.789062 4.328125 12.847656 4.578125 C 12.90625 4.886719 12.980469 5.191406 13.0625 5.5 C 13.148438 5.832031 13.226562 6.160156 13.292969 6.496094 C 13.367188 6.828125 13.40625 7.171875 13.410156 7.511719 C 13.421875 7.871094 13.355469 8.222656 13.210938 8.550781 C 13.042969 8.914062 12.75 9.210938 12.390625 9.390625 C 12.105469 9.539062 11.792969 9.617188 11.46875 9.625 C 11.136719 9.617188 10.808594 9.527344 10.515625 9.367188 C 10.257812 9.222656 10.023438 9.035156 9.816406 8.816406 C 9.613281 8.605469 9.421875 8.382812 9.25 8.152344 C 9.070312 7.910156 8.894531 7.664062 8.722656 7.417969 C 8.511719 7.101562 8.285156 6.800781 8.050781 6.496094 C 7.839844 6.222656 7.609375 5.964844 7.351562 5.726562 C 7.136719 5.523438 6.890625 5.359375 6.628906 5.230469 C 6.375 5.121094 6.105469 5.0625 5.839844 5.0625 C 5.671875 5.0625 5.507812 5.082031 5.34375 5.121094 C 5.160156 5.175781 4.996094 5.28125 4.875 5.421875 C 4.667969 5.65625 4.503906 5.921875 4.390625 6.207031 C 4.242188 6.582031 4.128906 6.972656 4.0625 7.371094 C 4.011719 7.640625 3.976562 7.910156 3.960938 8.183594 Z M 4.011719 9.769531 C 4.039062 9.992188 4.078125 10.210938 4.128906 10.429688 C 4.230469 10.902344 4.402344 11.355469 4.648438 11.769531 C 4.851562 12.039062 5.109375 12.261719 5.40625 12.421875 C 5.652344 12.554688 5.933594 12.621094 6.214844 12.621094 C 6.386719 12.632812 6.566406 12.582031 6.707031 12.476562 C 6.800781 12.386719 6.851562 12.257812 6.847656 12.128906 C 6.847656 11.964844 6.8125 11.804688 6.757812 11.648438 C 6.660156 11.390625 6.539062 11.140625 6.386719 10.917969 C 6.242188 10.6875 6.046875 10.496094 5.816406 10.347656 C 5.535156 10.171875 5.222656 10.039062 4.902344 9.953125 C 4.605469 9.875 4.308594 9.816406 4.011719 9.769531 Z M 4.011719 9.769531 "/>
</g>
</svg>
