
<svg xmlns="http://www.w3.org/2000/svg" xmlns:xlink="http://www.w3.org/1999/xlink" width="16px" height="16px" viewBox="0 0 16 16" version="1.1">
<g id="surface1">
<path style=" stroke:none;fill-rule:nonzero;fill:#ff6666;fill-opacity:1;" d="M 0 14.667969 L 16 14.667969 L 16 1.332031 L 0 1.332031 Z M 1.332031 2.667969 L 7.332031 2.667969 L 7.332031 5.332031 L 1.332031 5.332031 Z M 8.667969 2.667969 L 14.667969 2.667969 L 14.667969 5.332031 L 8.667969 5.332031 Z M 1.332031 6.667969 L 7.332031 6.667969 L 7.332031 9.332031 L 1.332031 9.332031 Z M 8.667969 6.667969 L 14.667969 6.667969 L 14.667969 9.332031 L 8.667969 9.332031 Z M 1.332031 10.667969 L 7.332031 10.667969 L 7.332031 13.332031 L 1.332031 13.332031 Z M 8.667969 10.667969 L 14.667969 10.667969 L 14.667969 13.332031 L 8.667969 13.332031 Z M 8.667969 10.667969 "/>
</g>
</svg>
