
<svg xmlns="http://www.w3.org/2000/svg" xmlns:xlink="http://www.w3.org/1999/xlink" width="16px" height="16px" viewBox="0 0 16 16" version="1.1">
<g id="surface1">
<path style=" stroke:none;fill-rule:evenodd;fill:#ff6666;fill-opacity:1;" d="M 15.382812 4.285156 C 15.351562 4.265625 15.316406 4.25 15.285156 4.234375 C 14.761719 3.972656 14.183594 3.796875 13.570312 3.738281 C 12.488281 3.632812 11.453125 3.890625 10.582031 4.417969 C 9.984375 4.0625 9.304688 3.832031 8.574219 3.761719 C 7.570312 3.660156 6.605469 3.878906 5.773438 4.335938 C 5.765625 4.335938 5.757812 4.34375 5.746094 4.347656 C 5.726562 4.363281 5.714844 4.390625 5.714844 4.417969 C 5.714844 4.46875 5.753906 4.507812 5.800781 4.507812 C 5.804688 4.507812 5.808594 4.507812 5.8125 4.507812 C 5.816406 4.507812 5.820312 4.507812 5.820312 4.507812 C 6.269531 4.421875 6.734375 4.394531 7.210938 4.441406 C 8.546875 4.574219 9.710938 5.003906 10.53125 5.96875 C 10.570312 6.011719 10.609375 6.011719 10.652344 5.964844 C 11.683594 4.726562 13.257812 4.234375 14.949219 4.402344 C 15.046875 4.410156 15.140625 4.421875 15.230469 4.4375 C 15.261719 4.441406 15.3125 4.449219 15.34375 4.453125 C 15.398438 4.460938 15.429688 4.414062 15.429688 4.363281 C 15.429688 4.328125 15.414062 4.300781 15.382812 4.285156 Z M 12.75 8.285156 C 10.957031 8.285156 9.296875 8.847656 7.941406 9.800781 C 6.90625 9.339844 5.757812 9.085938 4.550781 9.085938 C 3.796875 9.085938 3.066406 9.183594 2.371094 9.371094 C 2.378906 9.394531 2.367188 9.347656 2.371094 9.371094 C 1.519531 9.636719 0.753906 10.097656 0.0585938 10.589844 C 0.0546875 10.59375 0.0507812 10.59375 0.046875 10.597656 C 0.0117188 10.625 -0.0078125 10.671875 0.00390625 10.71875 C 0.0195312 10.785156 0.0859375 10.824219 0.148438 10.808594 C 0.152344 10.808594 0.265625 10.773438 0.320312 10.757812 C 0.503906 10.699219 0.695312 10.648438 0.886719 10.605469 C 1.480469 10.46875 2.066406 10.355469 2.648438 10.351562 C 4.503906 10.335938 6.816406 11.109375 8.085938 12.246094 C 8.089844 12.25 8.09375 12.253906 8.097656 12.253906 C 8.117188 12.273438 8.144531 12.285156 8.175781 12.285156 C 8.214844 12.285156 8.25 12.269531 8.273438 12.242188 C 8.273438 12.242188 8.320312 12.175781 8.34375 12.144531 C 9.851562 10.109375 12.34375 9.105469 15.109375 9.105469 C 15.308594 9.105469 15.507812 9.113281 15.699219 9.128906 C 15.757812 9.128906 15.875 9.140625 15.878906 9.140625 C 15.945312 9.140625 16 9.085938 16 9.019531 C 16 8.972656 15.972656 8.929688 15.929688 8.910156 C 15.925781 8.90625 15.921875 8.90625 15.914062 8.902344 C 14.941406 8.503906 13.871094 8.285156 12.75 8.285156 Z M 12.75 8.285156 "/>
</g>
</svg>
