
<svg xmlns="http://www.w3.org/2000/svg" xmlns:xlink="http://www.w3.org/1999/xlink" width="16px" height="16px" viewBox="0 0 16 16" version="1.1">
<g id="surface1">
<path style=" stroke:none;fill-rule:evenodd;fill:#ff6666;fill-opacity:1;" d="M 4.164062 10.074219 C 4.164062 12.191406 5.882812 13.90625 8 13.90625 C 10.117188 13.90625 11.835938 12.191406 11.835938 10.074219 C 11.835938 7.953125 10.117188 6.238281 8 6.238281 C 5.976562 6.238281 4.320312 7.804688 4.175781 9.785156 L 4.175781 10.074219 Z M 4.175781 5.546875 C 5.207031 4.671875 6.539062 4.144531 8 4.144531 C 11.273438 4.144531 13.925781 6.800781 13.925781 10.074219 C 13.925781 13.347656 11.273438 16 8 16 C 4.726562 16 2.074219 13.347656 2.074219 10.074219 C 2.074219 9.949219 2.078125 9.828125 2.085938 9.707031 L 2.09375 0.113281 C 2.78125 0.0546875 3.472656 0.0195312 4.171875 0 Z M 9.046875 10.074219 C 9.046875 9.496094 9.515625 9.027344 10.09375 9.027344 C 10.667969 9.027344 11.136719 9.496094 11.136719 10.074219 C 11.136719 10.648438 10.667969 11.117188 10.09375 11.117188 C 9.515625 11.117188 9.046875 10.648438 9.046875 10.074219 Z M 9.046875 10.074219 "/>
</g>
</svg>
