
<svg xmlns="http://www.w3.org/2000/svg" xmlns:xlink="http://www.w3.org/1999/xlink" width="16px" height="16px" viewBox="0 0 16 16" version="1.1">
<g id="surface1">
<path style=" stroke:none;fill-rule:nonzero;fill:#ff6666;fill-opacity:1;" d="M 8 0 L 8 1.523438 L 11.046875 1.523438 L 10.285156 0.761719 L 11.046875 0 Z M 8 2.285156 L 13.332031 7.617188 L 13.332031 9.144531 C 13.332031 9.144531 13.519531 9.90625 14.476562 9.90625 C 14.476562 9.90625 15.617188 9.144531 15.617188 9.144531 L 15.617188 7.617188 Z M 8 2.285156 L 8.761719 7.617188 L 8.761719 9.144531 C 8.761719 9.144531 9.140625 9.90625 10.285156 9.90625 C 10.285156 9.90625 11.808594 9.144531 11.808594 9.144531 L 11.808594 7.617188 Z M 8 2.285156 L 4.191406 7.617188 L 4.191406 9.144531 C 4.191406 9.144531 4.566406 9.90625 5.714844 9.90625 C 5.714844 9.90625 7.238281 9.144531 7.238281 9.144531 L 7.238281 7.617188 Z M 8 2.285156 L 0.382812 7.617188 L 0.382812 9.144531 C 0.382812 9.144531 0.566406 9.90625 1.523438 9.90625 C 2.480469 9.90625 2.667969 9.144531 2.667969 9.144531 L 2.667969 7.617188 Z M 3.429688 9.90625 C 3.429688 9.90625 2.671875 10.667969 1.523438 10.667969 C 1.359375 10.667969 1.210938 10.644531 1.070312 10.617188 L 0.382812 16 L 5.714844 16 L 6.476562 12.953125 L 9.523438 12.953125 L 10.285156 16 L 15.617188 16 L 14.929688 10.617188 C 14.78125 10.648438 14.628906 10.664062 14.476562 10.667969 C 13.152344 10.667969 12.570312 9.90625 12.570312 9.90625 C 12.570312 9.90625 11.695312 10.667969 10.285156 10.667969 C 9.066406 10.667969 8 9.90625 8 9.90625 C 8 9.90625 6.925781 10.667969 5.714844 10.667969 C 4.324219 10.667969 3.429688 9.90625 3.429688 9.90625 Z M 3.429688 9.90625 "/>
</g>
</svg>
