
<svg xmlns="http://www.w3.org/2000/svg" xmlns:xlink="http://www.w3.org/1999/xlink" width="16px" height="16px" viewBox="0 0 16 16" version="1.1">
<g id="surface1">
<path style=" stroke:none;fill-rule:evenodd;fill:#ff6666;fill-opacity:1;" d="M 11.132812 3.707031 C 9.265625 2.804688 6.984375 2.75 5.101562 3.636719 C 3.777344 4.246094 2.683594 5.296875 1.960938 6.554688 C 2.605469 5.742188 3.390625 5.019531 4.332031 4.566406 C 6.015625 3.710938 8.078125 3.6875 9.804688 4.441406 C 11.113281 4.996094 12.21875 6 12.910156 7.246094 C 13.03125 7.183594 13.152344 7.125 13.273438 7.066406 L 13.273438 7.0625 C 13.585938 6.910156 13.898438 6.753906 14.207031 6.597656 C 13.511719 5.347656 12.425781 4.320312 11.132812 3.707031 Z M 3.816406 7.609375 C 4.738281 6.222656 6.324219 5.257812 8.007812 5.273438 C 9.6875 5.253906 11.285156 6.210938 12.167969 7.617188 L 10.875 8.265625 C 10.082031 7.027344 8.683594 6.183594 7.199219 6.171875 C 5.925781 6.121094 4.71875 6.730469 3.832031 7.617188 Z M 0 6.996094 C 0 7.371094 0 7.746094 0 8.125 C 2.667969 9.457031 5.332031 10.789062 8 12.125 C 10.664062 10.789062 13.332031 9.457031 16 8.125 C 15.996094 7.75 15.996094 7.371094 16 6.996094 C 14.132812 7.933594 12.265625 8.863281 10.398438 9.796875 L 8 10.996094 L 6.746094 10.371094 L 6.742188 10.367188 C 4.496094 9.246094 2.246094 8.121094 0 6.996094 Z M 7.796875 7.191406 C 6.925781 7.242188 6.210938 7.832031 5.71875 8.507812 C 6.164062 8.226562 6.667969 7.988281 7.207031 8.050781 C 7.957031 8.09375 8.59375 8.589844 8.992188 9.199219 C 9.1875 9.101562 9.382812 9.003906 9.574219 8.90625 C 9.8125 8.789062 10.046875 8.671875 10.28125 8.550781 C 9.765625 7.710938 8.8125 7.085938 7.796875 7.191406 Z M 7.796875 7.191406 "/>
</g>
</svg>
