
<svg xmlns="http://www.w3.org/2000/svg" xmlns:xlink="http://www.w3.org/1999/xlink" width="16px" height="16px" viewBox="0 0 16 16" version="1.1">
<g id="surface1">
<path style=" stroke:none;fill-rule:evenodd;fill:#ff6666;fill-opacity:1;" d="M 8.050781 1.828125 C 5.59375 1.828125 4.191406 2.835938 3.277344 3.964844 C 3.980469 4.160156 4.46875 4.320312 4.628906 4.371094 C 4.628906 4.265625 4.644531 3.308594 4.644531 3.308594 L 4.660156 3.277344 L 4.695312 3.269531 C 4.910156 3.300781 9.511719 3.980469 11.449219 5.109375 C 11.691406 5.25 11.808594 5.398438 11.957031 5.550781 C 12.492188 6.105469 13.203125 8.410156 13.28125 8.886719 L 13.25 8.933594 C 13.222656 8.945312 13.152344 8.992188 13.066406 9.054688 C 12.613281 9.367188 11.554688 10.109375 10.199219 9.988281 C 8.980469 9.878906 7.390625 9.179688 5.472656 7.917969 C 5.558594 8.117188 5.957031 9.0625 6.023438 9.222656 L 6.050781 9.253906 C 6.328125 9.398438 8.992188 10.757812 10.316406 10.730469 C 11.382812 10.710938 12.523438 10.1875 12.976562 9.914062 L 13.125 9.886719 C 13.164062 9.917969 13.15625 9.980469 13.144531 10.039062 C 13.117188 10.167969 13.054688 10.40625 13.011719 10.519531 L 12.976562 10.613281 C 12.925781 10.75 12.871094 10.882812 12.777344 10.964844 C 12.507812 11.207031 12.078125 11.402344 11.40625 11.695312 C 10.367188 12.148438 8.683594 12.433594 7.117188 12.425781 C 6.558594 12.410156 6.015625 12.351562 5.539062 12.296875 C 4.546875 12.183594 3.738281 12.09375 3.257812 12.46875 C 4.429688 13.792969 6.140625 14.628906 8.050781 14.628906 C 11.585938 14.628906 14.453125 11.761719 14.453125 8.230469 C 14.453125 4.695312 11.585938 1.828125 8.050781 1.828125 Z M 8 0 C 3.582031 0 0 3.582031 0 8 C 0 12.417969 3.582031 16 8 16 C 12.417969 16 16 12.417969 16 8 C 16 3.582031 12.417969 0 8 0 Z M 10.050781 6.484375 C 9.714844 6.484375 9.441406 6.664062 9.441406 6.890625 C 9.441406 7.113281 9.714844 7.300781 10.050781 7.300781 C 10.386719 7.300781 10.65625 7.113281 10.65625 6.890625 C 10.65625 6.664062 10.386719 6.484375 10.050781 6.484375 Z M 9.6875 5.796875 C 9.734375 5.792969 9.777344 5.796875 9.824219 5.796875 C 10.582031 5.824219 11.175781 6.457031 11.148438 7.214844 C 11.140625 7.582031 10.984375 7.925781 10.714844 8.175781 C 10.445312 8.425781 10.097656 8.554688 9.730469 8.539062 C 8.972656 8.511719 8.382812 7.875 8.40625 7.117188 C 8.417969 6.753906 8.574219 6.414062 8.839844 6.164062 C 9.074219 5.945312 9.371094 5.816406 9.6875 5.796875 Z M 9.742188 5.214844 C 9.253906 5.222656 8.789062 5.40625 8.429688 5.742188 C 8.046875 6.101562 7.824219 6.589844 7.804688 7.117188 C 7.769531 8.199219 8.621094 9.113281 9.707031 9.152344 C 10.234375 9.171875 10.734375 8.984375 11.117188 8.621094 C 11.5 8.265625 11.722656 7.78125 11.742188 7.253906 C 11.777344 6.171875 10.925781 5.253906 9.839844 5.214844 C 9.808594 5.214844 9.773438 5.214844 9.742188 5.214844 Z M 9.742188 5.214844 "/>
</g>
</svg>
