
<svg xmlns="http://www.w3.org/2000/svg" xmlns:xlink="http://www.w3.org/1999/xlink" width="16px" height="16px" viewBox="0 0 16 16" version="1.1">
<g id="surface1">
<path style=" stroke:none;fill-rule:nonzero;fill:#ff6666;fill-opacity:1;" d="M 0.527344 0.148438 L 1.070312 0.554688 C -0.652344 1.347656 3.773438 4.976562 3.773438 4.976562 C 3.773438 4.976562 4.636719 4.199219 5.898438 4.121094 C 7.148438 2.835938 12.359375 3.8125 12.164062 4.867188 C 10.414062 4.894531 9.859375 4.671875 9.859375 4.671875 C 9.859375 4.671875 9.945312 4.769531 9.980469 5.109375 C 9.851562 5.21875 8.042969 4.8125 7.664062 4.839844 C 6.585938 4.921875 5.859375 4.949219 5.085938 5.035156 C 5.617188 5.210938 9.855469 5.964844 11.210938 7.273438 C 10.847656 7.414062 10.691406 7.355469 10.570312 7.402344 C 10.464844 7.441406 10.355469 7.65625 10.121094 7.65625 C 9.957031 7.65625 10.011719 7.507812 9.667969 7.347656 C 7.523438 7.433594 6.828125 6.125 6.617188 5.964844 C 5.671875 5.738281 4.078125 5.226562 4.078125 5.226562 C 4.078125 5.226562 5.425781 6.304688 6.167969 6.902344 C 6.230469 6.953125 7.242188 7.140625 8.53125 7.769531 C 9.226562 7.203125 11.097656 8.164062 10.75 9.046875 C 10.4375 9.832031 8.363281 9.023438 8.441406 7.953125 C 7.964844 7.808594 7.089844 7.382812 6.53125 7.183594 C 7.066406 7.601562 9.175781 9.359375 9.601562 9.855469 C 11.457031 9.628906 14.261719 10.089844 16 11.203125 C 15.601562 11.308594 13.714844 11.667969 13.339844 11.566406 C 12.636719 11.300781 11.589844 10.441406 11.476562 10.34375 C 11.074219 10.277344 10.167969 10.148438 9.820312 10.105469 C 10.175781 10.464844 11.339844 11.8125 11.703125 12.378906 C 11.855469 12.34375 12.628906 12.53125 12.84375 12.675781 C 13.636719 11.867188 14.921875 13.285156 15.714844 13.972656 C 15.507812 14.394531 12.242188 13.746094 12.679688 12.800781 C 12.445312 12.769531 11.980469 12.515625 11.808594 12.5 C 11.984375 12.730469 12.367188 13.042969 12.871094 13.574219 C 13.359375 13.433594 15.191406 15.417969 15.242188 15.851562 C 13.867188 15.519531 13.191406 15.226562 12.980469 14.980469 C 12.558594 14.488281 12.71875 13.785156 12.757812 13.660156 C 12.21875 13.179688 12.117188 13.035156 11.941406 12.9375 C 11.9375 12.945312 11.941406 13.085938 11.949219 13.15625 C 12.839844 13.808594 12.410156 15.617188 11.898438 15.683594 C 11.679688 15.710938 11.167969 13.132812 11.804688 13.035156 C 11.820312 12.984375 11.828125 12.832031 11.828125 12.824219 C 11.492188 12.460938 9.625 10.472656 9.503906 10.390625 C 9.5625 10.546875 9.664062 10.804688 9.753906 11.121094 C 10.855469 11.84375 11.039062 12.996094 10.957031 14.351562 C 10.691406 13.886719 8.101562 11.777344 9.234375 10.84375 C 9.242188 10.699219 9.199219 10.371094 9.292969 10.1875 C 8.933594 9.828125 7.816406 8.722656 7.714844 8.726562 C 7.839844 8.980469 7.917969 9.128906 7.980469 9.40625 C 8.832031 9.828125 8.585938 10.929688 8.195312 10.953125 C 7.785156 10.976562 6.878906 9.714844 7.734375 9.449219 C 7.664062 9.132812 7.539062 8.699219 7.488281 8.511719 C 7.117188 8.230469 5.898438 7.25 5.613281 7.023438 C 5.960938 7.601562 6.300781 8.5 6.46875 9.015625 C 7.492188 10.171875 7.210938 11.964844 7.105469 13.8125 C 5.90625 12.921875 5.160156 9.882812 5.925781 9.125 C 5.671875 8.246094 5.285156 6.761719 5.285156 6.761719 C 3.636719 5.480469 2.726562 4.523438 2.726562 4.523438 C 2.726562 4.523438 3.824219 5.945312 3.949219 6.710938 C 4.910156 6.898438 5.714844 8.574219 4.949219 8.859375 C 3.832031 9.277344 2.632812 7.503906 3.585938 6.84375 C 3.585938 6.84375 2.738281 5.285156 2.085938 3.921875 C -0.492188 1.089844 -0.246094 0.242188 0.527344 0.148438 Z M 0.527344 0.148438 "/>
</g>
</svg>
