
<svg xmlns="http://www.w3.org/2000/svg" xmlns:xlink="http://www.w3.org/1999/xlink" width="16px" height="16px" viewBox="0 0 16 16" version="1.1">
<g id="surface1">
<path style=" stroke:none;fill-rule:nonzero;fill:#ff6666;fill-opacity:1;" d="M 1.09375 0 C 0.492188 0 0 0.492188 0 1.09375 L 0 14.90625 C 0 15.507812 0.492188 16 1.09375 16 L 14.90625 16 C 15.507812 16 16 15.507812 16 14.90625 L 16 1.09375 C 16 0.492188 15.507812 0 14.90625 0 Z M 1.09375 1 L 14.90625 1 C 14.972656 1 15 1.027344 15 1.09375 L 15 6 L 13.90625 6 C 13.707031 5.417969 13.152344 5 12.5 5 C 11.675781 5 11 5.675781 11 6.5 C 11 6.746094 11.082031 6.949219 11.1875 7.15625 L 8.1875 10.15625 C 7.988281 10.054688 7.742188 10 7.5 10 C 7.234375 10 7 10.066406 6.78125 10.1875 L 5.78125 9.25 C 5.917969 9.023438 6 8.78125 6 8.5 C 6 7.675781 5.320312 7 4.5 7 C 3.675781 7 3 7.675781 3 8.5 C 3 8.824219 3.132812 9.097656 3.3125 9.34375 L 1 11.71875 L 1 1.09375 C 1 1.027344 1.027344 1 1.09375 1 Z M 12.5 6 C 12.78125 6 13 6.21875 13 6.5 C 13 6.78125 12.78125 7 12.5 7 C 12.21875 7 12 6.78125 12 6.5 C 12 6.21875 12.21875 6 12.5 6 Z M 13.90625 7 L 15 7 L 15 14.90625 C 15 14.972656 14.972656 15 14.90625 15 L 1.09375 15 C 1.027344 15 1 14.972656 1 14.90625 L 1 13.15625 L 4.15625 9.9375 C 4.273438 9.96875 4.375 10 4.5 10 C 4.671875 10 4.847656 9.960938 5 9.90625 L 6.125 10.9375 C 6.054688 11.109375 6 11.304688 6 11.5 C 6 12.324219 6.679688 13 7.5 13 C 8.324219 13 9 12.324219 9 11.5 C 9 11.285156 8.957031 11.058594 8.875 10.875 L 11.875 7.84375 C 12.070312 7.9375 12.269531 8 12.5 8 C 13.140625 8 13.699219 7.574219 13.90625 7 Z M 4.5 8 C 4.78125 8 5 8.21875 5 8.5 C 5 8.78125 4.78125 9 4.5 9 C 4.21875 9 4 8.78125 4 8.5 C 4 8.21875 4.21875 8 4.5 8 Z M 7.5 11 C 7.78125 11 8 11.21875 8 11.5 C 8 11.78125 7.78125 12 7.5 12 C 7.21875 12 7 11.78125 7 11.5 C 7 11.21875 7.21875 11 7.5 11 Z M 7.5 11 "/>
</g>
</svg>
