
<svg xmlns="http://www.w3.org/2000/svg" xmlns:xlink="http://www.w3.org/1999/xlink" width="16px" height="16px" viewBox="0 0 16 16" version="1.1">
<g id="surface1">
<path style=" stroke:none;fill-rule:nonzero;fill:#ff6666;fill-opacity:1;" d="M 7.390625 15.738281 C 7.113281 15.5 7.097656 15.441406 7.097656 14.765625 L 7.097656 14.046875 L 6.617188 14.289062 C 6.355469 14.421875 5.804688 14.617188 5.390625 14.71875 C 4.558594 14.933594 3.84375 14.871094 3.277344 14.542969 C 2.730469 14.222656 2.570312 13.898438 2.566406 13.109375 C 2.566406 12.722656 2.601562 12.226562 2.644531 12.007812 C 2.6875 11.789062 2.683594 11.671875 2.636719 11.738281 C 2.445312 12.023438 1.871094 12.355469 1.570312 12.355469 C 1.054688 12.355469 0.742188 11.902344 0.742188 11.148438 C 0.742188 10.792969 0.828125 10.316406 0.945312 9.980469 L 1.148438 9.410156 L 0.921875 9.105469 C 0.746094 8.863281 0.695312 8.671875 0.699219 8.222656 C 0.699219 7.738281 0.769531 7.511719 1.136719 6.800781 C 1.574219 5.949219 1.828125 5.609375 1.824219 5.878906 C 1.824219 5.953125 1.722656 6.195312 1.59375 6.414062 C 1.171875 7.148438 0.902344 8.042969 0.980469 8.449219 C 1.039062 8.765625 1.085938 8.816406 1.316406 8.8125 C 1.710938 8.8125 2.074219 8.550781 3.28125 7.402344 L 4.375 6.359375 L 3.640625 5.828125 C 3.242188 5.535156 2.714844 5.171875 2.472656 5.019531 C 1.867188 4.636719 1.691406 4.203125 1.933594 3.675781 C 2.050781 3.417969 2.214844 3.304688 3.035156 2.898438 C 3.34375 2.742188 3.601562 2.597656 3.601562 2.578125 C 3.601562 2.554688 3.527344 2.464844 3.4375 2.375 C 3.179688 2.117188 3.40625 1.503906 3.820312 1.339844 C 3.996094 1.269531 4.421875 1.085938 4.761719 0.933594 C 5.433594 0.628906 7.453125 -0.0507812 7.507812 0.00390625 C 7.628906 0.121094 7.359375 0.347656 6.917969 0.5 C 5.4375 1.007812 3.601562 1.777344 3.601562 1.890625 C 3.601562 1.917969 3.667969 2.074219 3.75 2.230469 L 3.898438 2.519531 L 4.414062 2.3125 C 6.058594 1.65625 8.488281 0.949219 9.113281 0.949219 C 9.226562 0.949219 9.429688 1.0625 9.566406 1.195312 C 9.773438 1.402344 9.800781 1.5 9.746094 1.8125 C 9.652344 2.347656 9.398438 2.710938 8.667969 3.359375 C 8.3125 3.675781 7.878906 4.128906 7.707031 4.367188 C 7.328125 4.890625 7.242188 4.761719 7.554688 4.136719 C 7.761719 3.722656 8.378906 3.054688 9.164062 2.394531 C 9.453125 2.152344 9.457031 2.144531 9.269531 1.941406 C 9.132812 1.792969 8.964844 1.738281 8.644531 1.738281 C 8.195312 1.738281 6.761719 2.082031 5.71875 2.441406 C 4.546875 2.84375 2.222656 3.878906 2.222656 4 C 2.222656 4.03125 2.363281 4.132812 2.542969 4.222656 C 2.875 4.398438 3.675781 4.878906 4.660156 5.492188 L 5.242188 5.859375 L 5.695312 5.6875 C 5.945312 5.59375 6.175781 5.492188 6.203125 5.460938 C 6.230469 5.433594 6.160156 4.875 6.046875 4.222656 C 5.847656 3.089844 5.851562 2.523438 6.0625 2.523438 C 6.117188 2.523438 6.160156 2.566406 6.160156 2.613281 C 6.160156 2.664062 6.300781 2.929688 6.472656 3.207031 C 6.777344 3.699219 6.796875 3.945312 6.507812 3.703125 C 6.320312 3.550781 6.3125 3.679688 6.464844 4.382812 C 6.589844 4.972656 6.867188 5.351562 7.308594 5.535156 C 7.601562 5.65625 7.636719 5.710938 7.636719 6.0625 C 7.636719 6.496094 7.589844 6.523438 7.179688 6.308594 C 6.851562 6.136719 6.328125 6.117188 6.054688 6.261719 C 5.882812 6.355469 5.976562 6.449219 6.921875 7.125 C 7.503906 7.542969 8.148438 8.007812 8.351562 8.164062 L 8.71875 8.445312 L 8.71875 8.179688 C 8.71875 8.03125 8.671875 7.058594 8.613281 6.011719 C 8.523438 4.375 8.527344 4.074219 8.65625 3.835938 L 8.804688 3.554688 L 9.015625 4.046875 C 9.511719 5.195312 9.601562 5.785156 9.203125 5.265625 L 9.019531 5.03125 L 9.027344 5.570312 C 9.03125 5.867188 9.085938 6.726562 9.148438 7.476562 L 9.261719 8.84375 L 9.644531 9.042969 C 9.996094 9.226562 10.0625 9.230469 10.433594 9.101562 L 10.839844 8.960938 L 10.855469 8.371094 C 10.867188 8.046875 10.832031 7.429688 10.785156 6.996094 C 10.734375 6.5625 10.648438 5.613281 10.597656 4.882812 C 10.546875 4.152344 10.453125 2.945312 10.394531 2.203125 C 10.292969 0.933594 10.3125 0.457031 10.476562 0.460938 C 10.570312 0.464844 11.183594 1.875 11.183594 2.085938 C 11.183594 2.25 11.171875 2.25 10.984375 2.082031 C 10.746094 1.863281 10.75 1.773438 10.929688 3.652344 C 11.328125 7.777344 11.351562 8.378906 11.148438 9.058594 C 10.949219 9.71875 10.234375 10.054688 9.570312 9.800781 L 9.324219 9.707031 L 9.34375 11.351562 C 9.359375 12.9375 9.230469 13.925781 9.007812 13.925781 C 8.964844 13.925781 8.9375 13.496094 8.949219 12.96875 C 8.957031 12.441406 8.929688 11.40625 8.882812 10.671875 L 8.800781 9.332031 L 8.144531 8.832031 C 7.785156 8.558594 7.402344 8.253906 7.292969 8.15625 C 7.183594 8.058594 6.835938 7.785156 6.519531 7.550781 L 5.941406 7.121094 L 6.191406 7.550781 C 6.519531 8.113281 6.605469 8.609375 6.453125 9.078125 C 6.265625 9.660156 6.003906 9.871094 5.132812 10.140625 C 4.207031 10.425781 3.375 10.878906 3.148438 11.21875 C 3.0625 11.351562 2.949219 11.738281 2.890625 12.078125 C 2.761719 12.875 2.914062 13.347656 3.433594 13.765625 C 3.753906 14.023438 3.90625 14.074219 4.492188 14.105469 C 5.476562 14.164062 6.785156 13.6875 7.769531 12.914062 C 8.21875 12.5625 8.21875 12.46875 7.738281 11.136719 C 7.496094 10.472656 7.4375 10.183594 7.488281 9.914062 L 7.554688 9.558594 L 7.988281 10.046875 C 8.464844 10.589844 8.519531 10.730469 8.226562 10.652344 C 7.984375 10.589844 7.984375 10.609375 8.226562 11.25 C 8.445312 11.824219 8.484375 12.546875 8.3125 12.875 C 8.25 12.996094 8.015625 13.292969 7.785156 13.539062 C 7.449219 13.902344 7.359375 14.078125 7.304688 14.503906 C 7.25 14.90625 7.269531 15.082031 7.390625 15.265625 C 7.707031 15.746094 8.015625 15.539062 9.488281 13.863281 C 10.007812 13.273438 10.222656 13.128906 11.316406 12.652344 L 11.894531 12.402344 L 11.917969 11.714844 C 11.945312 10.796875 12.226562 10.289062 12.707031 10.289062 C 12.878906 10.289062 12.972656 10.382812 13.09375 10.683594 C 13.179688 10.902344 13.25 11.160156 13.25 11.261719 C 13.25 11.570312 12.960938 12.285156 12.742188 12.519531 C 12.445312 12.835938 12.566406 13.042969 13.054688 13.042969 C 13.351562 13.042969 13.519531 12.976562 13.699219 12.800781 C 13.992188 12.507812 13.996094 12.371094 13.796875 9.648438 C 13.339844 3.46875 13.300781 2.421875 13.53125 2.425781 C 13.605469 2.429688 14.234375 3.824219 14.234375 3.988281 C 14.234375 4.15625 14.058594 4.117188 13.949219 3.925781 C 13.804688 3.679688 13.8125 4.0625 13.984375 6.203125 C 14.445312 11.90625 14.417969 12.742188 13.757812 13.371094 C 13.191406 13.914062 12.5 13.898438 12.253906 13.34375 C 12.179688 13.175781 12.070312 13.042969 12.007812 13.042969 C 11.761719 13.042969 10.34375 13.757812 9.988281 14.0625 C 9.78125 14.238281 9.390625 14.671875 9.125 15.023438 C 8.359375 16.035156 7.9375 16.207031 7.390625 15.738281 Z M 12.636719 12.003906 C 12.890625 11.828125 12.929688 11.40625 12.714844 11.117188 C 12.417969 10.71875 12.054688 11.296875 12.210938 11.921875 C 12.28125 12.199219 12.34375 12.210938 12.636719 12.003906 Z M 1.9375 11.589844 C 2.082031 11.496094 2.4375 11.171875 2.730469 10.871094 C 3.472656 10.101562 3.929688 9.828125 5.148438 9.417969 C 6.027344 9.121094 6.214844 9.023438 6.238281 8.847656 C 6.285156 8.53125 5.933594 7.910156 5.355469 7.300781 C 4.75 6.65625 4.914062 6.589844 3.332031 8.128906 C 2.65625 8.789062 2.042969 9.296875 1.785156 9.410156 C 1.445312 9.5625 1.332031 9.679688 1.203125 10.015625 C 0.824219 11.027344 0.910156 11.765625 1.40625 11.761719 C 1.554688 11.761719 1.796875 11.683594 1.9375 11.589844 Z M 2.285156 10.519531 C 2.164062 10.394531 2.21875 9.679688 2.378906 9.34375 C 2.539062 9.007812 2.792969 8.863281 2.664062 9.183594 C 2.453125 9.703125 2.402344 9.914062 2.457031 10.054688 C 2.507812 10.183594 2.546875 10.191406 2.664062 10.089844 C 2.835938 9.949219 2.847656 9.992188 2.714844 10.332031 C 2.625 10.574219 2.425781 10.660156 2.285156 10.519531 Z M 3.777344 8.886719 C 3.519531 8.671875 3.515625 8.660156 3.675781 8.398438 C 3.863281 8.09375 4.011719 8.058594 4.191406 8.273438 C 4.359375 8.480469 4.546875 8.457031 4.71875 8.214844 L 4.863281 8.007812 L 5.167969 8.234375 C 5.519531 8.496094 5.535156 8.582031 5.269531 8.902344 L 5.070312 9.136719 L 4.820312 8.902344 L 4.566406 8.667969 L 4.386719 8.886719 C 4.167969 9.160156 4.113281 9.160156 3.777344 8.886719 Z M 9.511719 15.917969 C 9.511719 15.875 9.578125 15.757812 9.660156 15.652344 C 9.847656 15.40625 9.84375 15.195312 9.65625 15.265625 C 9.441406 15.347656 9.476562 15.167969 9.710938 14.953125 C 9.886719 14.796875 9.925781 14.789062 10.003906 14.914062 C 10.136719 15.117188 10.125 15.183594 9.882812 15.609375 C 9.691406 15.953125 9.503906 16.109375 9.511719 15.917969 Z M 11.140625 15.253906 C 11.054688 15.054688 10.890625 14.867188 10.746094 14.8125 C 10.457031 14.703125 10.375 14.222656 10.644531 14.222656 C 10.804688 14.222656 11.160156 14.546875 11.332031 14.851562 C 11.425781 15.019531 11.433594 15.019531 11.449219 14.824219 C 11.472656 14.546875 11.699219 14.097656 11.839844 14.050781 C 11.992188 14 12.304688 14.472656 12.214844 14.617188 C 12.167969 14.691406 12.089844 14.671875 11.960938 14.558594 C 11.757812 14.371094 11.777344 14.339844 11.574219 15.128906 C 11.507812 15.386719 11.414062 15.597656 11.367188 15.597656 C 11.320312 15.597656 11.21875 15.441406 11.140625 15.253906 Z M 1.730469 13.65625 C 1.734375 13.617188 1.800781 13.472656 1.875 13.335938 C 2.058594 13.019531 2.058594 12.945312 1.875 12.945312 C 1.699219 12.945312 1.6875 12.828125 1.847656 12.667969 C 2.007812 12.507812 2.1875 12.519531 2.257812 12.699219 C 2.320312 12.859375 1.9375 13.730469 1.808594 13.730469 C 1.765625 13.730469 1.730469 13.695312 1.730469 13.65625 Z M 4.09375 13.339844 C 3.933594 13.238281 3.890625 12.5 4.019531 12.035156 L 4.09375 11.769531 L 3.746094 11.976562 C 3.378906 12.191406 3.195312 12.164062 3.394531 11.921875 C 3.519531 11.769531 4.710938 11.03125 5.015625 10.917969 C 5.320312 10.804688 5.15625 11.09375 4.773438 11.351562 C 4.289062 11.679688 4.144531 12.011719 4.179688 12.730469 C 4.1875 12.910156 4.230469 12.945312 4.386719 12.894531 C 4.628906 12.816406 4.640625 12.953125 4.414062 13.226562 C 4.289062 13.375 4.199219 13.40625 4.09375 13.339844 Z M 5.535156 12.449219 C 5.230469 12.207031 5.210938 12.058594 5.445312 11.777344 L 5.617188 11.574219 L 5.910156 11.8125 C 6.164062 12.019531 6.191406 12.082031 6.105469 12.316406 C 5.984375 12.667969 5.855469 12.695312 5.535156 12.449219 Z M 6.808594 12.363281 C 6.613281 12.144531 6.613281 11.917969 6.808594 11.339844 C 6.992188 10.808594 7.175781 10.804688 7.03125 11.332031 C 6.917969 11.742188 7.003906 12.285156 7.144531 12.054688 C 7.265625 11.867188 7.347656 11.972656 7.277344 12.226562 C 7.203125 12.515625 7 12.574219 6.808594 12.363281 Z M 10 12.074219 C 10 12.019531 10.042969 11.945312 10.097656 11.914062 C 10.148438 11.882812 10.167969 11.730469 10.136719 11.582031 C 10.09375 11.375 10.148438 11.230469 10.351562 10.988281 C 10.652344 10.628906 11.035156 10.59375 11.035156 10.929688 C 11.035156 11.078125 10.96875 11.125 10.75 11.125 C 10.589844 11.125 10.445312 11.175781 10.421875 11.238281 C 10.367188 11.402344 10.746094 11.5 11.148438 11.421875 C 11.4375 11.367188 11.488281 11.386719 11.460938 11.523438 C 11.441406 11.625 11.222656 11.753906 10.886719 11.859375 C 10.589844 11.957031 10.269531 12.066406 10.171875 12.105469 C 10.074219 12.148438 10 12.136719 10 12.074219 Z M 14.875 10.707031 C 14.875 9.910156 14.796875 8.144531 14.703125 6.785156 C 14.570312 4.929688 14.554688 4.242188 14.636719 4.03125 C 14.742188 3.757812 14.75 3.761719 15.078125 4.539062 C 15.261719 4.972656 15.410156 5.378906 15.414062 5.449219 C 15.417969 5.628906 15.246094 5.597656 15.128906 5.398438 C 14.988281 5.15625 14.996094 5.664062 15.171875 7.585938 C 15.359375 9.660156 15.359375 11.003906 15.167969 11.648438 C 15.082031 11.929688 14.984375 12.15625 14.945312 12.15625 C 14.90625 12.15625 14.875 11.503906 14.875 10.707031 Z M 5.375 11.023438 C 5.445312 10.941406 5.84375 10.582031 6.265625 10.226562 C 6.6875 9.871094 7.058594 9.519531 7.085938 9.441406 C 7.117188 9.367188 7.089844 9.195312 7.03125 9.0625 C 6.941406 8.871094 6.953125 8.773438 7.089844 8.566406 C 7.222656 8.359375 7.285156 8.332031 7.398438 8.425781 C 7.476562 8.492188 7.539062 8.664062 7.539062 8.808594 C 7.539062 8.953125 7.589844 9.121094 7.648438 9.179688 C 7.777344 9.308594 7.675781 9.519531 7.503906 9.480469 C 7.4375 9.464844 7.210938 9.644531 7 9.882812 C 6.554688 10.371094 5.542969 11.175781 5.367188 11.175781 C 5.277344 11.175781 5.28125 11.136719 5.375 11.023438 Z M 10.984375 10.398438 C 10.984375 10.339844 11.074219 10.289062 11.183594 10.289062 C 11.289062 10.289062 11.378906 10.242188 11.378906 10.183594 C 11.378906 10.117188 11.265625 10.101562 11.058594 10.144531 L 10.738281 10.210938 L 10.953125 9.992188 C 11.125 9.8125 11.226562 9.785156 11.519531 9.839844 C 11.914062 9.914062 11.953125 9.992188 11.699219 10.21875 C 11.472656 10.421875 10.984375 10.542969 10.984375 10.398438 Z M 0.0195312 10.214844 C -0.0117188 10.164062 0.0742188 9.964844 0.207031 9.769531 C 0.433594 9.441406 0.4375 9.40625 0.277344 9.316406 C 0.117188 9.226562 0.113281 9.207031 0.265625 9.054688 C 0.492188 8.824219 0.679688 8.96875 0.609375 9.320312 C 0.539062 9.667969 0.0976562 10.339844 0.0195312 10.214844 Z M 11.921875 9.605469 C 11.757812 9.421875 11.757812 9.394531 11.910156 9.160156 C 12.097656 8.875 12.144531 8.867188 12.40625 9.0625 C 12.578125 9.191406 12.621094 9.1875 12.828125 8.992188 L 13.058594 8.777344 L 13.324219 9.039062 L 13.589844 9.304688 L 13.324219 9.570312 C 13.066406 9.828125 13.058594 9.832031 12.859375 9.652344 C 12.671875 9.484375 12.648438 9.484375 12.480469 9.636719 C 12.246094 9.847656 12.136719 9.839844 11.921875 9.605469 Z M 12.265625 8.503906 C 12.265625 8.3125 12.238281 7.882812 12.203125 7.550781 L 12.140625 6.945312 L 11.796875 7.144531 C 11.421875 7.367188 11.210938 7.316406 11.527344 7.078125 C 12.199219 6.578125 12.15625 6.703125 12.0625 5.570312 C 11.773438 2.070312 11.753906 1.148438 11.96875 1.148438 C 12.0625 1.148438 12.660156 2.5625 12.660156 2.78125 C 12.660156 2.933594 12.640625 2.929688 12.464844 2.769531 C 12.269531 2.59375 12.265625 2.597656 12.308594 3.074219 C 12.332031 3.339844 12.382812 4.019531 12.425781 4.585938 C 12.464844 5.15625 12.507812 5.652344 12.519531 5.695312 C 12.527344 5.734375 12.542969 5.882812 12.550781 6.023438 C 12.558594 6.246094 12.582031 6.265625 12.714844 6.15625 C 12.820312 6.070312 12.832031 6 12.761719 5.929688 C 12.617188 5.785156 12.636719 5.445312 12.796875 5.226562 C 12.910156 5.070312 12.960938 5.058594 13.082031 5.160156 C 13.269531 5.316406 13.28125 6.160156 13.09375 6.160156 C 12.847656 6.160156 12.554688 6.664062 12.613281 6.988281 C 12.679688 7.339844 12.496094 8.625 12.359375 8.761719 C 12.300781 8.820312 12.265625 8.722656 12.265625 8.503906 Z M 15.457031 8.371094 C 15.382812 8.070312 15.484375 7.492188 15.675781 7.121094 C 15.910156 6.667969 15.988281 6.8125 15.804688 7.355469 C 15.625 7.894531 15.648438 8.171875 15.875 8.085938 C 16.035156 8.023438 16.035156 8.039062 15.910156 8.367188 C 15.789062 8.6875 15.539062 8.691406 15.457031 8.371094 Z M 9.84375 7.976562 C 9.746094 7.585938 10.019531 6.554688 10.222656 6.554688 C 10.328125 6.554688 10.316406 6.644531 10.136719 7.113281 C 9.953125 7.59375 10.011719 7.929688 10.25 7.734375 C 10.425781 7.585938 10.449219 7.742188 10.292969 8.035156 C 10.148438 8.300781 9.917969 8.269531 9.84375 7.976562 Z M 2.410156 7.328125 C 2.28125 7.082031 2.332031 6.652344 2.558594 6.117188 C 2.753906 5.644531 2.863281 5.71875 2.722656 6.226562 C 2.664062 6.433594 2.617188 6.707031 2.617188 6.832031 C 2.617188 7.015625 2.652344 7.046875 2.820312 6.992188 C 3.015625 6.929688 3.019531 6.9375 2.867188 7.234375 C 2.679688 7.589844 2.566406 7.613281 2.410156 7.328125 Z M 7.847656 7.40625 C 7.730469 7.261719 7.84375 6.71875 8.097656 6.226562 C 8.320312 5.796875 8.367188 5.988281 8.179688 6.554688 C 8 7.089844 8.03125 7.25 8.273438 7.046875 C 8.457031 6.898438 8.480469 7.050781 8.324219 7.347656 C 8.207031 7.566406 8.003906 7.59375 7.847656 7.40625 Z M 0.0195312 6.703125 C 0.0507812 6.621094 0.109375 6.554688 0.144531 6.554688 C 0.246094 6.554688 1.378906 5.671875 1.417969 5.558594 C 1.4375 5.507812 1.398438 5.402344 1.332031 5.320312 C 1.164062 5.121094 1.386719 4.585938 1.640625 4.585938 C 1.792969 4.585938 1.828125 4.660156 1.828125 4.992188 C 1.828125 5.492188 1.4375 6.019531 0.707031 6.511719 C 0.167969 6.871094 -0.0742188 6.941406 0.0195312 6.703125 Z M 0.550781 5.480469 C 0.464844 5.316406 0.480469 5.183594 0.628906 4.84375 C 0.734375 4.609375 0.871094 4.386719 0.929688 4.347656 C 1.070312 4.261719 1.066406 4.296875 0.890625 4.71875 C 0.808594 4.914062 0.742188 5.125 0.742188 5.1875 C 0.742188 5.269531 0.785156 5.265625 0.890625 5.175781 C 1.121094 4.984375 1.082031 5.304688 0.851562 5.515625 C 0.667969 5.675781 0.65625 5.675781 0.550781 5.480469 Z M 4.597656 4.804688 C 4.460938 4.542969 4.3125 4.394531 4.167969 4.375 C 3.886719 4.332031 3.800781 3.929688 4.054688 3.832031 C 4.175781 3.785156 4.304688 3.859375 4.488281 4.085938 L 4.753906 4.402344 L 4.863281 3.96875 C 5.003906 3.414062 5.214844 3.214844 5.367188 3.492188 C 5.5625 3.859375 5.417969 4.214844 5.210938 3.875 C 5.117188 3.726562 5.003906 4.089844 4.988281 4.585938 C 4.96875 5.183594 4.828125 5.261719 4.597656 4.804688 Z M 9.707031 4.34375 C 9.570312 4.179688 9.613281 3.644531 9.796875 3.171875 C 9.964844 2.746094 10.046875 2.949219 9.90625 3.445312 C 9.785156 3.878906 9.832031 4.152344 10.007812 4.042969 C 10.152344 3.953125 10.113281 4.257812 9.964844 4.378906 C 9.863281 4.464844 9.800781 4.457031 9.707031 4.34375 Z M 11.179688 4.1875 C 11.058594 3.964844 11.132812 3.492188 11.34375 3.113281 C 11.472656 2.882812 11.480469 2.902344 11.421875 3.382812 C 11.371094 3.832031 11.382812 3.890625 11.519531 3.839844 C 11.699219 3.769531 11.722656 3.921875 11.574219 4.199219 C 11.441406 4.445312 11.316406 4.441406 11.179688 4.1875 Z M 7.367188 3.492188 C 7.300781 3.425781 7.242188 3.285156 7.242188 3.1875 C 7.242188 2.941406 7.726562 1.933594 7.839844 1.933594 C 7.984375 1.933594 7.949219 2.097656 7.734375 2.445312 C 7.492188 2.84375 7.460938 3.199219 7.6875 3.015625 C 7.902344 2.835938 7.882812 3.128906 7.660156 3.402344 C 7.523438 3.570312 7.464844 3.589844 7.367188 3.492188 Z M 1.984375 3.238281 C 1.871094 3.125 1.925781 2.507812 2.082031 2.214844 C 2.277344 1.835938 2.378906 1.917969 2.234375 2.335938 C 2.089844 2.746094 2.09375 2.816406 2.261719 2.816406 C 2.347656 2.816406 2.382812 2.886719 2.351562 3.007812 C 2.296875 3.207031 2.085938 3.339844 1.984375 3.238281 Z M 8.71875 0.675781 C 8.71875 0.632812 8.84375 0.542969 8.992188 0.480469 C 9.253906 0.367188 9.253906 0.367188 8.894531 0.40625 C 8.511719 0.449219 8.441406 0.386719 8.640625 0.183594 C 8.765625 0.0625 9.527344 0.0195312 9.636719 0.128906 C 9.753906 0.246094 9.511719 0.539062 9.199219 0.644531 C 8.828125 0.773438 8.71875 0.78125 8.71875 0.675781 Z M 8.71875 0.675781 "/>
</g>
</svg>
