
<svg xmlns="http://www.w3.org/2000/svg" xmlns:xlink="http://www.w3.org/1999/xlink" width="16px" height="16px" viewBox="0 0 16 16" version="1.1">
<g id="surface1">
<path style=" stroke:none;fill-rule:evenodd;fill:#ff6666;fill-opacity:1;" d="M 8 0 C 3.566406 0 0 3.566406 0 8 C 0 12.433594 3.566406 16 8 16 C 12.433594 16 16 12.433594 16 8 C 16 3.566406 12.433594 0 8 0 Z M 8 3.429688 C 8.910156 3.429688 9.78125 3.910156 10.425781 4.769531 C 11.066406 5.625 11.429688 6.789062 11.429688 8 C 11.429688 9.214844 11.066406 10.375 10.425781 11.234375 C 9.78125 12.089844 8.910156 12.570312 8 12.570312 C 7.089844 12.570312 6.21875 12.089844 5.574219 11.234375 C 4.933594 10.375 4.570312 9.214844 4.570312 8 C 4.570312 6.789062 4.933594 5.625 5.574219 4.769531 C 6.21875 3.910156 7.089844 3.429688 8 3.429688 Z M 8 3.429688 "/>
</g>
</svg>
