
<svg xmlns="http://www.w3.org/2000/svg" xmlns:xlink="http://www.w3.org/1999/xlink" width="16px" height="16px" viewBox="0 0 16 16" version="1.1">
<g id="surface1">
<path style=" stroke:none;fill-rule:nonzero;fill:#ff6666;fill-opacity:1;" d="M 8 0 C 4.183594 0 1.089844 3.582031 1.089844 8 C 1.089844 12.417969 4.183594 16 8 16 C 11.816406 16 14.910156 12.417969 14.910156 8 C 14.910156 3.582031 11.816406 0 8 0 Z M 8 2.910156 C 8.867188 2.910156 9.699219 3.445312 10.3125 4.398438 C 10.929688 5.355469 11.273438 6.648438 11.273438 8 C 11.273438 9.351562 10.929688 10.644531 10.3125 11.601562 C 9.699219 12.554688 8.867188 13.089844 8 13.089844 C 7.132812 13.089844 6.300781 12.554688 5.6875 11.601562 C 5.070312 10.644531 4.726562 9.351562 4.726562 8 C 4.726562 6.648438 5.070312 5.355469 5.6875 4.398438 C 6.300781 3.445312 7.132812 2.910156 8 2.910156 Z M 8 2.910156 "/>
</g>
</svg>
