
<svg xmlns="http://www.w3.org/2000/svg" xmlns:xlink="http://www.w3.org/1999/xlink" width="16px" height="16px" viewBox="0 0 16 16" version="1.1">
<g id="surface1">
<path style=" stroke:none;fill-rule:evenodd;fill:#ff6666;fill-opacity:1;" d="M 4 3.429688 L 2.285156 3.429688 L 2.285156 11.429688 L 4.570312 11.429688 L 5.714844 12.570312 L 10.285156 12.570312 L 11.429688 11.429688 L 13.714844 11.429688 L 13.714844 3.429688 L 12 3.429688 L 12 4.570312 L 10.855469 4.570312 L 10.855469 3.429688 L 10.285156 3.429688 L 10.285156 4.570312 L 9.144531 4.570312 L 9.144531 3.429688 L 8.570312 3.429688 L 8.570312 4.570312 L 7.429688 4.570312 L 7.429688 3.429688 L 6.855469 3.429688 L 6.855469 4.570312 L 5.714844 4.570312 L 5.714844 3.429688 L 5.144531 3.429688 L 5.144531 4.570312 L 4 4.570312 Z M 4.570312 14.855469 L 3.429688 13.714844 L 1.144531 13.714844 C 0.511719 13.714844 0 13.203125 0 12.570312 L 0 2.285156 C 0 1.652344 0.511719 1.144531 1.144531 1.144531 L 14.855469 1.144531 C 15.488281 1.144531 16 1.652344 16 2.285156 L 16 12.570312 C 16 13.203125 15.488281 13.714844 14.855469 13.714844 L 12.570312 13.714844 L 11.429688 14.855469 Z M 4.570312 14.855469 "/>
</g>
</svg>
