
<svg xmlns="http://www.w3.org/2000/svg" xmlns:xlink="http://www.w3.org/1999/xlink" width="16px" height="16px" viewBox="0 0 16 16" version="1.1">
<g id="surface1">
<path style=" stroke:none;fill-rule:nonzero;fill:#ff6666;fill-opacity:1;" d="M 10.125 0 L 3.957031 6.164062 C 3.957031 6.164062 5.242188 9.109375 4.597656 9.753906 C 3.382812 10.972656 2.136719 10.914062 1.378906 11.671875 C 0.160156 12.890625 -0.4375 14.816406 0.371094 15.628906 C 1.183594 16.441406 3.105469 15.835938 4.324219 14.621094 C 5.085938 13.859375 5.488281 12.160156 6.246094 11.402344 C 7.003906 10.644531 9.832031 12.042969 9.832031 12.042969 L 16 5.875 Z M 10.125 1.472656 L 14.527344 5.875 C 14.527344 5.875 13.359375 7.066406 12.898438 7.523438 C 12.242188 8.179688 11.765625 8.214844 11.519531 7.96875 C 11.273438 7.726562 11.921875 6.742188 11.539062 6.359375 C 11.160156 5.980469 10.289062 6.71875 9.949219 6.378906 C 9.75 6.179688 9.738281 5.871094 9.929688 5.46875 C 10.125 5.0625 10.515625 4.269531 10.300781 4.054688 C 10.078125 3.835938 9.480469 4.160156 9.039062 4.460938 C 8.757812 4.652344 8.089844 5.003906 7.796875 4.710938 C 7.566406 4.480469 7.5625 4.015625 7.992188 3.585938 Z M 5.992188 5.003906 L 10.996094 10.007812 L 9.832031 11.167969 L 4.828125 6.164062 Z M 1.84375 13.339844 C 2.054688 13.339844 2.265625 13.414062 2.425781 13.574219 C 2.746094 13.894531 2.746094 14.414062 2.425781 14.738281 C 2.105469 15.058594 1.585938 15.058594 1.261719 14.738281 C 0.941406 14.414062 0.941406 13.894531 1.261719 13.574219 C 1.421875 13.414062 1.636719 13.339844 1.84375 13.339844 Z M 1.84375 13.339844 "/>
</g>
</svg>
