
<svg xmlns="http://www.w3.org/2000/svg" xmlns:xlink="http://www.w3.org/1999/xlink" width="16px" height="16px" viewBox="0 0 16 16" version="1.1">
<g id="surface1">
<path style=" stroke:none;fill-rule:nonzero;fill:#ff6666;fill-opacity:1;" d="M 4.363281 0.00390625 C -0.132812 0.171875 -0.675781 2.363281 0.597656 5.34375 C 0.984375 6.25 2.21875 6.171875 1.527344 5.253906 C -1.378906 -3.785156 17.917969 4.480469 14.042969 9.847656 C 12.949219 11.058594 11.21875 11.382812 9.828125 10.769531 C 9.195312 10.488281 8.039062 10.851562 8.972656 11.378906 C 10.859375 12.441406 15.335938 11.832031 15.875 9.300781 C 17.210938 3 7.609375 -0.117188 4.363281 0.00390625 M 10.46875 4.609375 C 7.808594 7.515625 5.203125 13.539062 3.777344 14.960938 C 3.007812 15.730469 1.9375 14.324219 1.613281 14.761719 C 1.027344 15.5625 2.222656 15.984375 3.433594 16 C 6.285156 16.050781 11.601562 3.601562 10.46875 4.609375 Z M 10.46875 4.609375 "/>
</g>
</svg>
