
<svg xmlns="http://www.w3.org/2000/svg" xmlns:xlink="http://www.w3.org/1999/xlink" width="16px" height="16px" viewBox="0 0 16 16" version="1.1">
<g id="surface1">
<path style=" stroke:none;fill-rule:nonzero;fill:#ff6666;fill-opacity:1;" d="M 10.074219 0 L 5.925781 0.59375 L 5.925781 1.777344 L 3.910156 1.777344 C 0.59375 1.777344 0.59375 3.851562 0.59375 3.851562 L 0.59375 5.925781 L 5.925781 5.925781 C 5.925781 5.238281 6.304688 4.742188 6.992188 4.742188 C 7.679688 4.742188 7.980469 5.238281 7.980469 5.925781 L 8.019531 5.925781 L 0.667969 10.667969 L 0.59375 10.667969 L 0.59375 14.222656 L 5.925781 14.222656 L 5.925781 16 L 10.074219 15.40625 L 10.074219 14.222656 L 15.40625 14.222656 L 15.40625 10.667969 L 8 10.667969 L 13.882812 6.925781 C 14.695312 6.339844 15.40625 5.925781 15.40625 4.265625 C 15.40625 4.265625 15.527344 1.777344 10.964844 1.777344 L 10.074219 1.777344 Z M 10.074219 0 "/>
</g>
</svg>
