
<svg xmlns="http://www.w3.org/2000/svg" xmlns:xlink="http://www.w3.org/1999/xlink" width="16px" height="16px" viewBox="0 0 16 16" version="1.1">
<g id="surface1">
<path style=" stroke:none;fill-rule:evenodd;fill:#ff6666;fill-opacity:1;" d="M 8.667969 8 L 7.332031 8 L 7.332031 3.332031 L 8.667969 3.332031 Z M 1.332031 13.332031 L 1.332031 12 L 7.332031 12 L 7.332031 7.332031 L 14.667969 7.332031 L 14.667969 8.667969 L 8.667969 8.667969 L 8.667969 13.332031 Z M 1.332031 13.332031 "/>
<path style=" stroke:none;fill-rule:nonzero;fill:#ff6666;fill-opacity:1;" d="M 8 2 C 7.265625 2 6.667969 2.597656 6.667969 3.332031 C 6.667969 4.070312 7.265625 4.667969 8 4.667969 C 8.734375 4.667969 9.332031 4.070312 9.332031 3.332031 C 9.332031 2.597656 8.734375 2 8 2 Z M 8 6.667969 C 7.265625 6.667969 6.667969 7.265625 6.667969 8 C 6.667969 8.734375 7.265625 9.332031 8 9.332031 C 8.734375 9.332031 9.332031 8.734375 9.332031 8 C 9.332031 7.265625 8.734375 6.667969 8 6.667969 Z M 14.667969 6.667969 C 13.929688 6.667969 13.332031 7.265625 13.332031 8 C 13.332031 8.734375 13.929688 9.332031 14.667969 9.332031 C 15.402344 9.332031 16 8.734375 16 8 C 16 7.265625 15.402344 6.667969 14.667969 6.667969 Z M 1.332031 11.332031 C 0.597656 11.332031 0 11.929688 0 12.667969 C 0 13.402344 0.597656 14 1.332031 14 C 2.070312 14 2.667969 13.402344 2.667969 12.667969 C 2.667969 11.929688 2.070312 11.332031 1.332031 11.332031 Z M 8 11.332031 C 7.265625 11.332031 6.667969 11.929688 6.667969 12.667969 C 6.667969 13.402344 7.265625 14 8 14 C 8.734375 14 9.332031 13.402344 9.332031 12.667969 C 9.332031 11.929688 8.734375 11.332031 8 11.332031 Z M 8 11.332031 "/>
</g>
</svg>
