
<svg xmlns="http://www.w3.org/2000/svg" xmlns:xlink="http://www.w3.org/1999/xlink" width="16px" height="16px" viewBox="0 0 16 16" version="1.1">
<g id="surface1">
<path style=" stroke:none;fill-rule:evenodd;fill:#ff6666;fill-opacity:1;" d="M 8 1.714844 C 11.472656 1.714844 14.285156 4.527344 14.285156 8 C 14.285156 11.472656 11.472656 14.285156 8 14.285156 C 4.527344 14.285156 1.714844 11.472656 1.714844 8 C 1.714844 4.527344 4.527344 1.714844 8 1.714844 Z M 8 0 C 3.582031 0 0 3.582031 0 8 C 0 12.417969 3.582031 16 8 16 C 12.417969 16 16 12.417969 16 8 C 16 3.582031 12.417969 0 8 0 Z M 6.855469 6.3125 L 9.457031 6.3125 C 9.945312 6.3125 10.285156 6.757812 10.285156 7.226562 C 10.285156 7.695312 9.945312 8.039062 9.457031 8.027344 L 6.855469 8.027344 Z M 5.769531 4 C 5.105469 4 4.570312 4.519531 4.570312 5.167969 L 4.570312 11.402344 C 4.570312 12.050781 5.105469 12.570312 5.769531 12.570312 C 6.4375 12.570312 6.824219 12.046875 6.855469 11.402344 L 6.855469 10.347656 L 9.371094 10.347656 C 11.140625 10.347656 12.570312 8.953125 12.570312 7.230469 C 12.570312 5.511719 11.140625 4 9.371094 4 Z M 5.769531 4 "/>
</g>
</svg>
