
<svg xmlns="http://www.w3.org/2000/svg" xmlns:xlink="http://www.w3.org/1999/xlink" width="16px" height="16px" viewBox="0 0 16 16" version="1.1">
<g id="surface1">
<path style=" stroke:none;fill-rule:evenodd;fill:#ff6666;fill-opacity:1;" d="M 8.011719 8.140625 C 7.972656 8.101562 7.941406 8.074219 7.910156 8.046875 C 6.941406 7.117188 5.972656 6.183594 5.003906 5.257812 C 4.558594 4.832031 3.878906 4.847656 3.453125 5.285156 C 3.039062 5.71875 3.042969 6.40625 3.484375 6.828125 C 4.738281 8.042969 6 9.253906 7.261719 10.460938 C 7.683594 10.863281 8.328125 10.859375 8.757812 10.464844 C 8.929688 10.304688 9.09375 10.140625 9.261719 9.976562 C 10.34375 8.941406 11.421875 7.902344 12.5 6.867188 C 12.761719 6.617188 12.898438 6.316406 12.863281 5.960938 C 12.820312 5.503906 12.578125 5.175781 12.148438 5.019531 C 11.71875 4.863281 11.328125 4.957031 10.996094 5.273438 C 10.453125 5.792969 9.914062 6.3125 9.371094 6.832031 C 8.921875 7.265625 8.472656 7.699219 8.011719 8.140625 Z M 8.007812 0.835938 C 10.183594 0.835938 12.359375 0.835938 14.53125 0.835938 C 15.207031 0.835938 15.785156 1.269531 15.953125 1.902344 C 15.980469 2.003906 15.996094 2.109375 15.996094 2.210938 C 15.996094 3.910156 16.007812 5.609375 15.992188 7.308594 C 15.976562 9.046875 15.449219 10.617188 14.382812 11.988281 C 13.191406 13.515625 11.660156 14.523438 9.769531 14.960938 C 5.429688 15.960938 1.28125 13.160156 0.257812 9.242188 C 0.121094 8.71875 0.03125 8.1875 0.0273438 7.648438 C 0.0117188 5.839844 0 4.03125 0 2.226562 C 0 1.464844 0.679688 0.835938 1.472656 0.835938 C 3.652344 0.835938 5.828125 0.835938 8.007812 0.835938 Z M 8.007812 0.835938 "/>
</g>
</svg>
