
<svg xmlns="http://www.w3.org/2000/svg" xmlns:xlink="http://www.w3.org/1999/xlink" width="16px" height="16px" viewBox="0 0 16 16" version="1.1">
<g id="surface1">
<path style=" stroke:none;fill-rule:nonzero;fill:#ff6666;fill-opacity:1;" d="M 6.109375 1.835938 L 6.109375 13.398438 L 8.609375 14.164062 L 8.609375 4.511719 C 8.609375 4.257812 8.640625 4.070312 8.746094 3.960938 C 8.851562 3.8125 8.953125 3.800781 9.101562 3.863281 C 9.464844 3.96875 9.632812 4.296875 9.632812 4.828125 L 9.632812 8.710938 C 10.445312 9.09375 11.171875 9.132812 11.703125 8.730469 C 12.257812 8.34375 12.550781 7.664062 12.550781 6.640625 C 12.550781 5.574219 12.351562 4.753906 11.878906 4.21875 C 11.453125 3.644531 10.703125 3.183594 9.59375 2.800781 C 8.210938 2.351562 7.046875 2.03125 6.109375 1.835938 Z M 5.339844 8.828125 L 4.847656 8.984375 L 1.753906 10.089844 L 1.222656 10.304688 C 0.410156 10.644531 -0.0195312 11.007812 0 11.328125 C 0.0429688 11.796875 0.578125 12.136719 1.539062 12.394531 C 2.785156 12.726562 4.046875 12.804688 5.339844 12.609375 L 5.339844 11.289062 L 4.847656 11.46875 L 4.296875 11.683594 L 3.410156 11.859375 L 2.5625 11.761719 C 2.390625 11.652344 2.335938 11.535156 2.441406 11.429688 C 2.582031 11.34375 2.726562 11.269531 2.878906 11.210938 L 3.449219 11.015625 L 5.339844 10.34375 Z M 12.511719 9.4375 C 12.277344 9.429688 12.046875 9.449219 11.820312 9.457031 C 10.992188 9.476562 10.144531 9.609375 9.261719 9.890625 L 9.261719 11.445312 L 11.011719 10.835938 L 11.917969 10.519531 L 12.511719 10.363281 C 12.890625 10.261719 13.296875 10.402344 13.296875 10.402344 C 13.53125 10.421875 13.648438 10.511719 13.691406 10.621094 C 13.734375 10.746094 13.578125 10.847656 13.257812 10.953125 L 12.472656 11.269531 L 9.261719 12.410156 L 9.261719 13.929688 L 10.757812 13.398438 L 14.363281 12.117188 L 14.796875 11.921875 C 15.648438 11.597656 16.039062 11.261719 15.996094 10.835938 C 15.972656 10.429688 15.488281 10.109375 14.636719 9.832031 C 13.949219 9.601562 13.234375 9.46875 12.511719 9.4375 Z M 12.511719 9.4375 "/>
</g>
</svg>
