
<svg xmlns="http://www.w3.org/2000/svg" xmlns:xlink="http://www.w3.org/1999/xlink" width="16px" height="16px" viewBox="0 0 16 16" version="1.1">
<g id="surface1">
<path style=" stroke:none;fill-rule:evenodd;fill:#ff6666;fill-opacity:1;" d="M 0.0742188 13.113281 L 0.15625 12.476562 C 0.351562 12.460938 0.480469 12.414062 0.539062 12.328125 C 0.597656 12.246094 0.628906 12.074219 0.636719 11.816406 C 0.671875 11.15625 0.691406 10.621094 0.691406 10.21875 L 0.691406 7.257812 C 0.691406 7.019531 0.652344 6.855469 0.578125 6.765625 C 0.507812 6.675781 0.375 6.628906 0.179688 6.628906 L 0.0429688 6.628906 L 0 6.578125 L 0.0507812 6.035156 C 0.441406 5.976562 0.828125 5.910156 1.214844 5.835938 C 1.597656 5.757812 1.84375 5.710938 1.957031 5.6875 L 2.050781 5.792969 C 2.042969 5.835938 2.023438 5.925781 1.996094 6.058594 C 1.96875 6.195312 1.949219 6.328125 1.933594 6.453125 L 1.976562 6.503906 C 2.546875 5.996094 2.898438 5.742188 3.03125 5.742188 C 3.445312 5.742188 3.808594 5.835938 4.121094 6.023438 C 4.433594 6.210938 4.675781 6.480469 4.847656 6.828125 C 5.019531 7.175781 5.101562 7.578125 5.101562 8.03125 C 5.101562 8.566406 4.984375 9.042969 4.746094 9.453125 C 4.511719 9.867188 4.183594 10.183594 3.765625 10.410156 C 3.347656 10.636719 2.867188 10.75 2.332031 10.75 C 2.242188 10.75 2.152344 10.746094 2.058594 10.738281 C 1.96875 10.734375 1.90625 10.726562 1.871094 10.71875 L 1.882812 11.691406 C 1.882812 11.976562 1.90625 12.167969 1.949219 12.265625 C 1.996094 12.363281 2.097656 12.414062 2.257812 12.414062 C 2.355469 12.414062 2.441406 12.410156 2.515625 12.402344 C 2.589844 12.394531 2.644531 12.390625 2.6875 12.390625 L 2.707031 12.433594 L 2.59375 13.070312 C 2.441406 13.070312 2.304688 13.066406 2.1875 13.0625 L 1.339844 13.050781 C 1.09375 13.050781 0.84375 13.058594 0.578125 13.078125 C 0.320312 13.09375 0.148438 13.105469 0.0742188 13.113281 Z M 2.699219 9.902344 C 3.039062 9.902344 3.304688 9.773438 3.492188 9.515625 C 3.679688 9.257812 3.773438 8.894531 3.773438 8.429688 C 3.773438 7.917969 3.679688 7.511719 3.488281 7.210938 C 3.296875 6.90625 3.042969 6.757812 2.730469 6.757812 C 2.632812 6.757812 2.511719 6.785156 2.375 6.84375 C 2.234375 6.902344 2.101562 6.980469 1.976562 7.078125 C 1.933594 7.894531 1.914062 8.785156 1.914062 9.746094 C 2.003906 9.78125 2.121094 9.816406 2.269531 9.851562 C 2.414062 9.886719 2.558594 9.902344 2.699219 9.902344 Z M 9.964844 10.769531 C 9.34375 10.769531 8.996094 10.519531 8.921875 10.019531 L 8.859375 9.996094 C 8.179688 10.484375 7.773438 10.730469 7.632812 10.730469 C 7.027344 10.730469 6.542969 10.523438 6.1875 10.113281 C 5.828125 9.699219 5.648438 9.144531 5.648438 8.4375 C 5.648438 7.921875 5.761719 7.457031 5.988281 7.042969 C 6.214844 6.628906 6.527344 6.304688 6.929688 6.070312 C 7.328125 5.835938 7.78125 5.71875 8.28125 5.71875 C 8.449219 5.71875 8.628906 5.730469 8.824219 5.753906 L 8.824219 4.402344 C 8.824219 4.1875 8.792969 4.035156 8.726562 3.949219 C 8.660156 3.859375 8.546875 3.816406 8.386719 3.816406 C 8.332031 3.816406 8.277344 3.820312 8.230469 3.828125 C 8.179688 3.835938 8.148438 3.839844 8.136719 3.847656 L 8.199219 3.230469 C 8.609375 3.183594 9.023438 3.121094 9.441406 3.042969 C 9.863281 2.964844 10.132812 2.914062 10.257812 2.886719 L 10.351562 3.0625 C 10.261719 3.195312 10.1875 3.875 10.121094 5.101562 C 10.058594 6.332031 10.027344 7.722656 10.027344 9.277344 C 10.027344 9.410156 10.058594 9.511719 10.117188 9.589844 C 10.175781 9.667969 10.257812 9.703125 10.363281 9.703125 C 10.441406 9.703125 10.511719 9.691406 10.582031 9.664062 C 10.652344 9.636719 10.710938 9.605469 10.757812 9.578125 C 10.800781 9.550781 10.832031 9.535156 10.84375 9.527344 L 11.011719 9.746094 C 10.992188 9.789062 10.929688 9.878906 10.835938 10.019531 C 10.738281 10.15625 10.609375 10.304688 10.453125 10.457031 C 10.296875 10.613281 10.132812 10.714844 9.964844 10.769531 Z M 8.019531 9.765625 C 8.132812 9.765625 8.25 9.742188 8.371094 9.6875 C 8.492188 9.636719 8.59375 9.582031 8.675781 9.527344 C 8.753906 9.472656 8.804688 9.433594 8.824219 9.410156 L 8.824219 6.765625 C 8.8125 6.757812 8.769531 6.742188 8.699219 6.714844 C 8.632812 6.6875 8.539062 6.65625 8.429688 6.628906 C 8.316406 6.601562 8.191406 6.589844 8.050781 6.589844 C 7.710938 6.589844 7.445312 6.714844 7.257812 6.96875 C 7.070312 7.226562 6.976562 7.585938 6.976562 8.050781 C 6.976562 8.566406 7.070312 8.984375 7.261719 9.296875 C 7.453125 9.609375 7.707031 9.765625 8.019531 9.765625 Z M 11.640625 8.773438 L 11.285156 8.386719 L 11.285156 8.28125 L 12.226562 7.238281 L 12.425781 7.195312 C 12.613281 7.195312 13.027344 7.265625 13.667969 7.402344 C 14.253906 7.53125 14.617188 7.59375 14.757812 7.59375 C 14.839844 7.59375 14.9375 7.546875 15.054688 7.460938 C 15.167969 7.375 15.269531 7.285156 15.355469 7.191406 C 15.445312 7.09375 15.5 7.035156 15.527344 7.007812 L 15.644531 7.007812 L 16 7.394531 L 16 7.496094 L 15.058594 8.554688 L 14.859375 8.597656 C 14.644531 8.597656 14.230469 8.523438 13.617188 8.375 C 13.03125 8.25 12.667969 8.1875 12.527344 8.1875 C 12.445312 8.1875 12.34375 8.230469 12.230469 8.320312 C 12.117188 8.40625 12.015625 8.496094 11.925781 8.589844 C 11.839844 8.683594 11.78125 8.746094 11.753906 8.773438 Z M 11.640625 8.773438 "/>
</g>
</svg>
