
<svg xmlns="http://www.w3.org/2000/svg" xmlns:xlink="http://www.w3.org/1999/xlink" width="16px" height="16px" viewBox="0 0 16 16" version="1.1">
<g id="surface1">
<path style=" stroke:none;fill-rule:evenodd;fill:#ff6666;fill-opacity:1;" d="M 4.40625 4.84375 C 4.910156 4.5625 5.484375 4.335938 6.109375 4.167969 C 7.738281 4.269531 9.257812 4.769531 10.347656 5.566406 C 12.871094 5.78125 14.980469 6.941406 15.722656 8.523438 C 16.460938 10.101562 15.699219 11.808594 13.773438 12.871094 C 11.6875 13.902344 8.832031 13.992188 6.570312 13.105469 C 4.046875 12.890625 1.9375 11.734375 1.195312 10.152344 C 0.496094 8.660156 1.136719 7.058594 2.824219 5.988281 L 0.34375 3.953125 C 0.148438 3.796875 0.0273438 3.570312 0.00390625 3.320312 C -0.0195312 3.070312 0.0546875 2.824219 0.210938 2.628906 C 0.371094 2.4375 0.597656 2.316406 0.84375 2.292969 C 1.09375 2.269531 1.34375 2.34375 1.535156 2.496094 Z M 4.878906 7.667969 C 4.828125 7.757812 4.78125 7.847656 4.742188 7.941406 C 4.070312 8.808594 4.054688 9.859375 4.6875 10.742188 C 5.324219 11.625 6.53125 12.21875 7.894531 12.316406 C 9.652344 12.53125 11.390625 11.886719 12.175781 10.730469 C 12.84375 9.863281 12.863281 8.8125 12.226562 7.929688 C 11.59375 7.046875 10.386719 6.453125 9.023438 6.355469 C 8.480469 6.160156 7.882812 6.054688 7.277344 6.046875 C 6.929688 6.132812 6.601562 6.253906 6.304688 6.402344 L 6.703125 6.726562 C 6.898438 6.886719 7.019531 7.113281 7.042969 7.363281 C 7.066406 7.609375 6.992188 7.859375 6.835938 8.054688 C 6.675781 8.246094 6.453125 8.367188 6.203125 8.390625 C 5.953125 8.414062 5.703125 8.339844 5.511719 8.183594 Z M 4.878906 7.667969 "/>
</g>
</svg>
