
<svg xmlns="http://www.w3.org/2000/svg" xmlns:xlink="http://www.w3.org/1999/xlink" width="16px" height="16px" viewBox="0 0 16 16" version="1.1">
<g id="surface1">
<path style=" stroke:none;fill-rule:nonzero;fill:#ff6666;fill-opacity:1;" d="M 5.960938 1.003906 C 5.753906 1.003906 5.589844 1.011719 5.402344 1.015625 C 5.15625 1.023438 4.894531 1.023438 4.671875 1.03125 C 4.65625 1.039062 4.636719 1.046875 4.621094 1.050781 L 4.363281 1.171875 L 4.300781 1.476562 L 3.070312 7.621094 L 2.605469 9.945312 L 1.75 14.214844 C 1.816406 14.273438 1.882812 14.335938 1.957031 14.386719 C 2.066406 14.460938 2.1875 14.527344 2.316406 14.585938 C 2.449219 14.644531 2.589844 14.695312 2.738281 14.742188 C 2.890625 14.785156 3.054688 14.824219 3.230469 14.859375 C 3.40625 14.890625 3.59375 14.917969 3.792969 14.941406 C 3.992188 14.964844 4.207031 14.980469 4.433594 14.992188 C 4.519531 15 4.636719 14.996094 4.726562 15 C 4.835938 14.472656 4.90625 14.140625 5.109375 13.125 L 5.582031 10.753906 L 5.6875 10.222656 L 6.269531 10.222656 C 7.070312 10.222656 8.183594 10.167969 8.691406 10.105469 C 10.542969 9.882812 11.867188 9.277344 12.96875 8.148438 C 13.566406 7.535156 13.980469 6.878906 14.320312 6.023438 C 14.488281 5.589844 14.628906 5.011719 14.691406 4.515625 C 14.6875 4.421875 14.683594 4.328125 14.679688 4.234375 C 14.660156 4.066406 14.628906 3.902344 14.585938 3.738281 C 14.554688 3.625 14.519531 3.511719 14.476562 3.402344 C 14.417969 3.246094 14.347656 3.09375 14.265625 2.941406 C 14.183594 2.792969 14.089844 2.652344 13.984375 2.511719 C 13.882812 2.371094 13.765625 2.238281 13.640625 2.109375 C 13.515625 1.980469 13.382812 1.859375 13.238281 1.742188 C 13.191406 1.710938 13.148438 1.679688 13.101562 1.648438 C 12.550781 1.277344 11.738281 0.949219 11.28125 1.015625 C 11.050781 1.011719 10.847656 1 10.59375 1 Z M 7.167969 2.789062 L 8.253906 2.789062 C 9.328125 2.789062 9.949219 2.828125 10.28125 2.917969 C 10.511719 2.984375 10.78125 3.148438 10.941406 3.328125 C 11.207031 3.617188 11.316406 4.007812 11.289062 4.566406 C 11.257812 5.132812 11.074219 5.695312 10.730469 6.269531 C 10.085938 7.347656 9.242188 7.867188 7.800781 8.074219 C 7.59375 8.101562 7.210938 8.121094 6.785156 8.121094 L 6.101562 8.121094 L 6.636719 5.453125 Z M 7.167969 2.789062 "/>
</g>
</svg>
