
<svg xmlns="http://www.w3.org/2000/svg" xmlns:xlink="http://www.w3.org/1999/xlink" width="16px" height="16px" viewBox="0 0 16 16" version="1.1">
<g id="surface1">
<path style=" stroke:none;fill-rule:evenodd;fill:#ff6666;fill-opacity:1;" d="M 13.714844 12.042969 C 14.542969 10.871094 15 9.460938 15 8 C 15 6.140625 14.261719 4.359375 12.949219 3.050781 C 11.640625 1.738281 9.859375 1 8 1 C 6.140625 1 4.359375 1.738281 3.050781 3.050781 C 1.738281 4.359375 1 6.140625 1 8 C 1 9.859375 1.738281 11.640625 3.050781 12.949219 C 3.804688 13.707031 4.71875 14.273438 5.714844 14.617188 L 5.714844 7.199219 L 9.714844 5.144531 L 13.714844 7.199219 Z M 0 8 C 0 3.585938 3.585938 0 8 0 C 12.414062 0 16 3.585938 16 8 C 16 12.414062 12.414062 16 8 16 C 3.585938 16 0 12.414062 0 8 Z M 10.855469 7.429688 C 10.855469 7.632812 10.640625 7.820312 10.285156 7.921875 C 9.933594 8.027344 9.496094 8.027344 9.144531 7.921875 C 8.789062 7.820312 8.570312 7.632812 8.570312 7.429688 Z M 10.855469 7.429688 "/>
</g>
</svg>
