
<svg xmlns="http://www.w3.org/2000/svg" xmlns:xlink="http://www.w3.org/1999/xlink" width="16px" height="16px" viewBox="0 0 16 16" version="1.1">
<g id="surface1">
<path style=" stroke:none;fill-rule:nonzero;fill:#ff6666;fill-opacity:1;" d="M 11.761719 0 C 11.675781 0 11.582031 0.0390625 11.511719 0.109375 L 2.46875 9.152344 C 2.433594 9.1875 2.402344 9.214844 2.402344 9.28125 L 0.0351562 15.542969 C -0.0351562 15.648438 0.0078125 15.785156 0.109375 15.890625 C 0.179688 15.960938 0.246094 16 0.351562 16 C 0.386719 16 0.421875 16.003906 0.492188 15.964844 L 6.75 13.597656 C 6.785156 13.5625 6.855469 13.566406 6.890625 13.53125 L 7.445312 12.976562 L 15.890625 4.523438 C 15.960938 4.417969 16 4.34375 16 4.238281 C 16 4.136719 15.960938 4.070312 15.890625 4 L 12 0.109375 C 11.929688 0.0390625 11.847656 0 11.761719 0 Z M 3.164062 9.457031 C 3.339844 9.804688 3.269531 10.1875 3.132812 10.5 C 3.0625 10.636719 3.136719 10.820312 3.273438 10.890625 C 3.410156 10.996094 3.582031 10.960938 3.6875 10.890625 C 3.929688 10.71875 4.835938 10.296875 5.25 10.75 C 5.667969 11.167969 5.328125 12.035156 5.152344 12.316406 C 5.050781 12.417969 5.050781 12.589844 5.152344 12.726562 C 5.257812 12.832031 5.394531 12.902344 5.535156 12.867188 C 5.984375 12.730469 6.335938 12.800781 6.578125 12.867188 L 6.4375 13.011719 L 2.566406 14.457031 L 1.566406 13.421875 L 3.023438 9.597656 Z M 3.164062 9.457031 "/>
</g>
</svg>
