
<svg xmlns="http://www.w3.org/2000/svg" xmlns:xlink="http://www.w3.org/1999/xlink" width="16px" height="16px" viewBox="0 0 16 16" version="1.1">
<g id="surface1">
<path style=" stroke:none;fill-rule:evenodd;fill:#ff6666;fill-opacity:1;" d="M 6.09375 0 L 5.429688 0.484375 L 3.730469 1.152344 L 3.355469 1.542969 L 3.066406 1.761719 L 3.003906 2.273438 L 3.125 2.539062 L 3.238281 3.035156 L 3.652344 3.839844 L 4.101562 4.410156 L 3.398438 5.5625 L 2.980469 7.289062 L 2.492188 8.066406 L 1.8125 9.050781 L 1.777344 9.5 L 1.257812 9.886719 L 1.886719 10.460938 L 1.78125 11.140625 L 1.84375 12.847656 L 2.082031 14.738281 L 2.324219 16 L 4.570312 16 L 4.402344 15.949219 L 4.617188 15.757812 L 4.582031 15.210938 L 4.8125 14.738281 L 4.617188 14.761719 L 4.917969 14.152344 L 4.917969 13.394531 L 5.148438 13.078125 L 5.148438 12.664062 L 5.621094 11.808594 L 5.65625 11.261719 L 5.558594 10.8125 L 5.722656 10.300781 L 5.980469 9.886719 L 5.980469 9.632812 L 6.269531 9.597656 L 6.523438 9.339844 L 6.753906 8.695312 L 7.265625 8.125 L 7.871094 7.894531 L 8.246094 8.222656 L 9.179688 8.503906 L 9.917969 9.195312 L 10.269531 9.644531 L 10.875 9.707031 L 12.789062 10.542969 L 13.773438 10.898438 L 14.574219 11.503906 L 14.742188 11.453125 L 14.742188 11.226562 L 14.316406 10.898438 L 14.742188 11.007812 L 14.742188 10.09375 L 14.671875 10.09375 L 14.292969 9.9375 L 14.039062 9.804688 L 14.414062 9.488281 L 14.511719 9.257812 L 14.453125 9.097656 L 14.101562 9.160156 L 13.359375 9.546875 L 13.265625 9.742188 L 13.007812 9.683594 L 12.089844 9.160156 L 12.050781 8.808594 L 11.507812 8.527344 L 10.585938 8.042969 L 10.355469 8.199219 L 10.390625 7.980469 L 9.882812 7.496094 L 9.699219 7.070312 L 9.289062 6.582031 L 9.15625 6.425781 L 9.566406 6.71875 L 9.507812 6.390625 L 9.832031 6.558594 L 9.734375 6.074219 L 10.183594 6.484375 L 9.992188 6.207031 L 10.4375 6.390625 L 10.050781 5.855469 L 10.34375 5.949219 L 10.210938 5.429688 L 10.4375 5.621094 L 10.113281 5.148438 L 10.4375 5.246094 L 10.148438 4.859375 L 10.535156 4.820312 L 10.113281 4.566406 L 10.367188 4.445312 L 10.089844 4.410156 L 10.464844 4.054688 L 10.113281 4.09375 L 10.148438 3.863281 L 10.183594 3.230469 L 9.992188 3.667969 L 9.761719 3.035156 L 9.796875 3.546875 L 9.664062 3.582031 L 9.347656 3.582031 L 8.730469 3.058594 L 8.378906 3.058594 L 7.96875 2.707031 L 7.773438 2.902344 L 7.289062 3.070312 L 6.816406 3.070312 L 6.683594 3.386719 L 6.816406 3.898438 L 6.746094 4.273438 L 6.429688 4.09375 L 6.175781 3.605469 L 5.46875 3.484375 L 5.253906 3.253906 L 4.765625 3.035156 L 4.433594 2.503906 L 4.472656 2.089844 L 5.816406 1.058594 L 6.445312 1.347656 L 6.542969 1.796875 L 6.542969 2.0625 L 6.714844 2.28125 L 7.027344 2.378906 L 7.246094 2.183594 L 7.28125 1.964844 L 7.1875 1.773438 L 6.992188 1.675781 L 6.871094 1.289062 L 7.148438 1.152344 L 7.089844 0.839844 L 7.089844 0.644531 L 6.894531 0.449219 L 6.796875 0.15625 L 6.421875 0.0742188 Z M 6.09375 0 "/>
</g>
</svg>
