
<svg xmlns="http://www.w3.org/2000/svg" xmlns:xlink="http://www.w3.org/1999/xlink" width="16px" height="16px" viewBox="0 0 16 16" version="1.1">
<g id="surface1">
<path style=" stroke:none;fill-rule:evenodd;fill:#ff6666;fill-opacity:1;" d="M 5.023438 6.121094 C 4.410156 5.917969 3.863281 5.660156 3.429688 5.332031 L 3.808594 7.238281 L 3.429688 9.144531 C 5.5625 7.542969 10.164062 7.773438 12.570312 7.238281 C 10.84375 6.933594 7.675781 6.917969 5.324219 6.214844 C 7.273438 4.902344 8.785156 5.074219 11.046875 4.570312 C 8.917969 4.199219 7.292969 4.257812 5.335938 2.9375 C 7.652344 2.277344 10.746094 2.308594 12.570312 1.90625 C 10.304688 1.507812 5.5625 1.601562 3.429688 0 L 3.808594 1.90625 L 3.429688 3.808594 C 3.867188 3.480469 4.414062 3.226562 5.023438 3.03125 L 5.332031 4.570312 Z M 7.238281 9.90625 C 5.636719 12.039062 5.730469 13.730469 5.332031 16 C 4.800781 13.59375 5.027344 12.039062 3.429688 9.90625 L 5.332031 10.285156 Z M 12.570312 9.90625 C 10.972656 12.039062 11.0625 13.730469 10.667969 16 C 10.132812 13.59375 10.363281 12.039062 8.761719 9.90625 L 10.667969 10.285156 Z M 12.570312 9.90625 "/>
</g>
</svg>
