
<svg xmlns="http://www.w3.org/2000/svg" xmlns:xlink="http://www.w3.org/1999/xlink" width="16px" height="16px" viewBox="0 0 16 16" version="1.1">
<g id="surface1">
<path style=" stroke:none;fill-rule:evenodd;fill:#ff6666;fill-opacity:1;" d="M 14.5 7.8125 L 14.5 3.328125 C 14.488281 2.839844 14.289062 2.371094 13.941406 2.03125 C 13.578125 1.679688 13.109375 1.488281 12.609375 1.5 C 12.609375 1.5 12.609375 1.5 12.601562 1.5 L 10.894531 1.5 L 8.316406 7.8125 Z M 14.5 8.765625 L 14.5 12.671875 C 14.488281 13.160156 14.289062 13.628906 13.941406 13.96875 C 13.578125 14.320312 13.109375 14.511719 12.609375 14.5 C 12.609375 14.5 12.609375 14.5 12.601562 14.5 L 5.589844 14.5 L 7.925781 8.765625 Z M 4.558594 14.5 L 3.398438 14.5 C 3.390625 14.5 3.390625 14.5 3.390625 14.5 C 2.890625 14.511719 2.421875 14.320312 2.058594 13.96875 C 1.710938 13.628906 1.511719 13.160156 1.5 12.671875 L 1.5 3.328125 C 1.511719 2.839844 1.710938 2.371094 2.058594 2.03125 C 2.421875 1.679688 2.890625 1.488281 3.390625 1.5 C 3.390625 1.5 3.390625 1.5 3.398438 1.5 L 9.796875 1.5 Z M 12.601562 0.5 C 14.207031 0.5 15.5 1.761719 15.5 3.324219 L 15.5 12.675781 C 15.5 14.238281 14.207031 15.5 12.601562 15.5 L 3.398438 15.5 C 1.792969 15.5 0.5 14.238281 0.5 12.675781 L 0.5 3.324219 C 0.5 1.761719 1.792969 0.5 3.398438 0.5 Z M 12.601562 0.5 "/>
</g>
</svg>
