
<svg xmlns="http://www.w3.org/2000/svg" xmlns:xlink="http://www.w3.org/1999/xlink" width="16px" height="16px" viewBox="0 0 16 16" version="1.1">
<g id="surface1">
<path style=" stroke:none;fill-rule:nonzero;fill:#ff6666;fill-opacity:1;" d="M 3.019531 0.5 C 1.78125 0.484375 0.3125 1.777344 0.046875 5.445312 C -0.238281 9.359375 0.871094 9.742188 2.078125 9.742188 C 3.085938 9.742188 3.890625 9.242188 4.777344 8.207031 C 4.910156 8.050781 5.0625 7.96875 5.117188 8.027344 C 5.179688 8.085938 5.222656 8.132812 5.21875 8.128906 C 5.210938 8.121094 5.148438 8.277344 5.085938 8.476562 C 4.910156 9.019531 4.644531 10.074219 4.910156 10.816406 C 4.980469 11.011719 5.128906 10.984375 5.1875 10.785156 C 5.328125 10.3125 5.601562 9.5 5.898438 9.09375 C 6.019531 8.925781 6.160156 9.019531 6.152344 9.226562 C 6.113281 10.484375 6.519531 12.78125 8.371094 14.238281 C 10.3125 15.765625 13.136719 15.722656 14.664062 15.070312 C 14.851562 14.992188 15.144531 14.996094 15.347656 15.03125 C 15.46875 15.054688 15.625 15.070312 15.820312 15.058594 C 16.386719 15.027344 15.441406 14.546875 15.378906 14.285156 C 15.3125 14.027344 15.820312 13.980469 15.921875 13.15625 C 16.023438 12.335938 15.378906 13.128906 15.378906 13.128906 C 15.378906 13.128906 14.902344 13.683594 13.011719 13.5625 C 11.269531 13.453125 9.191406 12.554688 9.261719 9.394531 C 9.265625 9.183594 9.328125 9 9.390625 8.976562 C 9.453125 8.949219 9.625 9.042969 9.730469 9.21875 C 9.992188 9.652344 10.230469 10.359375 10.355469 10.785156 C 10.417969 10.984375 10.5625 11.011719 10.632812 10.816406 C 10.863281 10.171875 10.695312 9.289062 10.53125 8.714844 C 10.476562 8.515625 10.535156 8.261719 10.664062 8.140625 C 10.796875 8.015625 10.996094 8.035156 11.132812 8.191406 C 12.019531 9.234375 12.832031 9.746094 13.84375 9.746094 C 15.046875 9.746094 16.160156 9.359375 15.878906 5.445312 C 15.59375 1.535156 13.933594 0.324219 12.65625 0.519531 C 11.835938 0.644531 11.265625 1.066406 10.964844 1.355469 C 10.816406 1.496094 10.714844 1.640625 10.714844 1.65625 C 10.714844 1.675781 10.597656 1.570312 10.4375 1.4375 C 9.75 0.863281 8.886719 0.519531 7.945312 0.519531 C 7.019531 0.519531 6.164062 0.855469 5.480469 1.414062 C 5.320312 1.542969 5.207031 1.652344 5.203125 1.644531 C 5.203125 1.636719 5.101562 1.5 4.953125 1.355469 C 4.652344 1.070312 4.085938 0.644531 3.261719 0.519531 C 3.183594 0.507812 3.101562 0.5 3.019531 0.5 Z M 6.5 3.5 C 6.777344 3.5 7 3.722656 7 4 C 7 4.277344 6.777344 4.5 6.5 4.5 C 6.222656 4.5 6 4.277344 6 4 C 6 3.722656 6.222656 3.5 6.5 3.5 Z M 9.5 3.5 C 9.777344 3.5 10 3.722656 10 4 C 10 4.277344 9.777344 4.5 9.5 4.5 C 9.222656 4.5 9 4.277344 9 4 C 9 3.722656 9.222656 3.5 9.5 3.5 Z M 9.5 3.5 "/>
</g>
</svg>
