
<svg xmlns="http://www.w3.org/2000/svg" xmlns:xlink="http://www.w3.org/1999/xlink" width="16px" height="16px" viewBox="0 0 16 16" version="1.1">
<g id="surface1">
<path style=" stroke:none;fill-rule:nonzero;fill:#ff6666;fill-opacity:1;" d="M 6.730469 0 C 6.121094 0 5.527344 0.046875 4.988281 0.148438 C 4.289062 0.378906 3.707031 0.683594 3.304688 1.421875 C 2.871094 2.117188 2.71875 3.070312 2.707031 3.757812 C 2.695312 4.296875 2.601562 5.601562 3.621094 6.992188 C 3.996094 7.441406 4.546875 7.917969 5.207031 8.1875 C 6.746094 8.664062 7.222656 7.613281 8.003906 6.0625 C 7.816406 6.886719 7.726562 7.738281 7.085938 8.445312 C 7.605469 9.269531 8.460938 9.6875 9.269531 10.414062 C 9.429688 10.558594 9.683594 10.644531 9.449219 11.015625 C 9.105469 11.59375 8.746094 11.964844 8.378906 12.421875 C 8.140625 12.746094 7.984375 12.972656 7.90625 13.230469 C 7.832031 13.800781 7.882812 14.304688 8.183594 14.851562 C 8.324219 15.148438 8.492188 15.429688 8.730469 15.699219 C 8.972656 16 9.132812 16.074219 9.539062 15.925781 C 9.882812 15.800781 10.191406 15.652344 10.460938 15.375 C 10.582031 15.171875 10.609375 14.730469 10.265625 14.546875 C 10.140625 14.464844 10.007812 14.378906 9.921875 14.285156 C 9.773438 14.121094 9.621094 13.960938 9.605469 13.707031 C 9.589844 13.535156 9.828125 13.253906 9.828125 13.253906 C 10.726562 12.421875 11.722656 11.609375 12.179688 11.089844 C 13.191406 9.914062 13.6875 7.964844 13.5625 6.089844 C 13.585938 4.675781 12.992188 3.109375 12.011719 1.898438 C 11.402344 1.203125 10.726562 0.6875 9.75 0.4375 C 8.804688 0.148438 7.742188 0.00390625 6.730469 0 Z M 11.019531 5.121094 C 11.191406 5.121094 11.351562 5.1875 11.472656 5.308594 C 11.59375 5.425781 11.660156 5.589844 11.660156 5.761719 C 11.660156 5.929688 11.59375 6.09375 11.472656 6.214844 C 11.351562 6.332031 11.191406 6.398438 11.019531 6.398438 C 10.851562 6.398438 10.6875 6.332031 10.566406 6.214844 C 10.445312 6.09375 10.378906 5.929688 10.378906 5.761719 C 10.378906 5.589844 10.445312 5.425781 10.566406 5.308594 C 10.6875 5.1875 10.851562 5.121094 11.019531 5.121094 Z M 10.472656 8.320312 C 10.554688 8.3125 10.625 8.378906 10.769531 8.503906 L 12.785156 10.175781 C 12.511719 10.167969 12.148438 10.269531 11.746094 10.230469 C 10.878906 10.15625 9.835938 9.910156 9.75 9.597656 C 9.703125 9.160156 9.796875 8.820312 10.222656 8.472656 C 10.339844 8.375 10.40625 8.324219 10.472656 8.320312 Z M 10.472656 8.320312 "/>
</g>
</svg>
