
<svg xmlns="http://www.w3.org/2000/svg" xmlns:xlink="http://www.w3.org/1999/xlink" width="16px" height="16px" viewBox="0 0 16 16" version="1.1">
<g id="surface1">
<path style=" stroke:none;fill-rule:evenodd;fill:#ff6666;fill-opacity:1;" d="M 8 1.714844 C 3.566406 1.714844 0 5.644531 0 8 C 0 10.355469 3.566406 14.285156 8 14.285156 C 12.433594 14.285156 16 10.355469 16 8 C 16 5.644531 12.433594 1.714844 8 1.714844 Z M 8.859375 5.144531 C 9.972656 5.144531 10.859375 6.03125 10.859375 7.140625 C 10.859375 8.253906 9.972656 9.140625 8.859375 9.140625 C 7.75 9.140625 6.863281 8.253906 6.863281 7.140625 C 6.863281 6.03125 7.75 5.144531 8.859375 5.144531 Z M 8.859375 4 C 7.132812 4 5.703125 5.414062 5.703125 7.140625 C 5.703125 7.800781 5.925781 8.402344 6.277344 8.910156 L 4.171875 11.015625 L 4.53125 12.390625 L 7.078125 9.730469 C 7.585938 10.078125 8.203125 10.285156 8.859375 10.285156 C 10.589844 10.285156 12 8.871094 12 7.140625 C 12 5.414062 10.589844 4 8.859375 4 Z M 8.859375 4 "/>
</g>
</svg>
