
<svg xmlns="http://www.w3.org/2000/svg" xmlns:xlink="http://www.w3.org/1999/xlink" width="16px" height="16px" viewBox="0 0 16 16" version="1.1">
<g id="surface1">
<path style=" stroke:none;fill-rule:nonzero;fill:#ff6666;fill-opacity:1;" d="M 12.535156 0 C 14.023438 0.335938 16.5625 0.835938 15.886719 3.101562 C 15.03125 5.976562 12.609375 8.59375 10.609375 10.597656 C 10.605469 10.597656 10.605469 10.597656 10.601562 10.601562 C 10.601562 10.605469 10.597656 10.605469 10.597656 10.609375 C 8.59375 12.609375 5.976562 15.03125 3.101562 15.886719 C 0.835938 16.5625 0.335938 14.023438 0 12.535156 L 4.800781 10.421875 L 6.683594 11.4375 C 7.378906 10.992188 8.582031 9.878906 9.328125 9.136719 C 10.070312 8.390625 11.183594 7.191406 11.628906 6.492188 L 10.421875 4.800781 Z M 12.535156 0 "/>
</g>
</svg>
