
<svg xmlns="http://www.w3.org/2000/svg" xmlns:xlink="http://www.w3.org/1999/xlink" width="16px" height="16px" viewBox="0 0 16 16" version="1.1">
<g id="surface1">
<path style=" stroke:none;fill-rule:evenodd;fill:#ff6666;fill-opacity:1;" d="M 15.03125 9.480469 L 15.03125 2.910156 C 15.03125 2.789062 14.980469 2.671875 14.898438 2.589844 C 14.808594 2.5 14.699219 2.449219 14.578125 2.449219 L 1.511719 2.449219 C 1.378906 2.460938 1.269531 2.519531 1.191406 2.621094 C 1.101562 2.691406 1.039062 2.808594 1.03125 2.929688 L 1.03125 8.453125 C 1.039062 8.453125 1.050781 8.453125 1.0625 8.449219 C 1.066406 8.445312 1.085938 8.4375 1.089844 8.433594 C 1.097656 8.425781 1.175781 8.433594 1.191406 8.414062 C 1.199219 8.40625 1.230469 8.421875 1.242188 8.414062 L 1.335938 8.371094 C 1.363281 8.355469 1.414062 8.378906 1.445312 8.371094 C 1.457031 8.367188 1.460938 8.355469 1.46875 8.347656 C 1.476562 8.339844 1.5 8.339844 1.515625 8.335938 C 1.539062 8.328125 1.554688 8.304688 1.578125 8.292969 C 1.609375 8.277344 1.597656 8.324219 1.625 8.308594 C 1.632812 8.304688 1.671875 8.261719 1.675781 8.261719 C 1.675781 8.261719 1.675781 8.265625 1.675781 8.269531 C 1.675781 8.285156 1.699219 8.308594 1.722656 8.296875 C 1.726562 8.296875 1.726562 8.285156 1.734375 8.28125 C 1.746094 8.273438 1.765625 8.285156 1.777344 8.28125 C 1.792969 8.273438 1.8125 8.265625 1.828125 8.253906 C 1.832031 8.253906 1.902344 8.242188 1.914062 8.238281 C 1.960938 8.222656 2.027344 8.253906 2.066406 8.234375 C 2.097656 8.21875 2.132812 8.1875 2.164062 8.175781 C 2.175781 8.171875 2.179688 8.15625 2.1875 8.152344 C 2.191406 8.152344 2.203125 8.152344 2.210938 8.152344 C 2.269531 8.152344 2.230469 8.152344 2.269531 8.195312 C 2.273438 8.199219 2.304688 8.195312 2.304688 8.195312 C 2.308594 8.195312 2.304688 8.183594 2.3125 8.179688 C 2.328125 8.171875 2.351562 8.175781 2.363281 8.164062 C 2.367188 8.164062 2.367188 8.15625 2.371094 8.15625 C 2.390625 8.164062 2.394531 8.210938 2.421875 8.195312 C 2.453125 8.179688 2.425781 8.125 2.429688 8.125 C 2.449219 8.113281 2.496094 8.101562 2.519531 8.089844 C 2.546875 8.078125 2.59375 8.074219 2.609375 8.054688 C 2.609375 8.054688 2.617188 8.035156 2.617188 8.027344 C 2.628906 8.039062 2.65625 8.066406 2.671875 8.046875 C 2.679688 8.042969 2.671875 8.023438 2.675781 8.015625 C 2.683594 8.003906 2.703125 8.007812 2.707031 8.003906 C 2.714844 7.992188 2.734375 7.972656 2.746094 7.96875 C 2.773438 7.953125 2.820312 7.988281 2.851562 7.972656 C 2.894531 7.949219 2.789062 7.921875 2.800781 7.90625 C 2.8125 7.894531 2.875 7.894531 2.894531 7.886719 C 2.898438 7.886719 2.90625 7.871094 2.914062 7.875 C 2.925781 7.878906 2.953125 7.941406 2.964844 7.929688 C 2.972656 7.921875 2.972656 7.902344 2.976562 7.894531 C 2.988281 7.882812 3.011719 7.855469 3.023438 7.847656 C 3.039062 7.839844 3.0625 7.832031 3.074219 7.820312 C 3.089844 7.804688 3.136719 7.828125 3.152344 7.816406 C 3.15625 7.8125 3.15625 7.792969 3.164062 7.785156 C 3.183594 7.765625 3.21875 7.785156 3.238281 7.773438 C 3.261719 7.761719 3.285156 7.738281 3.300781 7.726562 C 3.316406 7.710938 3.347656 7.707031 3.367188 7.6875 C 3.40625 7.648438 3.480469 7.6875 3.488281 7.679688 C 3.507812 7.664062 3.5 7.636719 3.519531 7.617188 C 3.539062 7.597656 3.550781 7.632812 3.574219 7.621094 C 3.585938 7.613281 3.601562 7.609375 3.613281 7.605469 C 3.617188 7.601562 3.617188 7.59375 3.621094 7.589844 C 3.636719 7.585938 3.683594 7.628906 3.699219 7.609375 C 3.714844 7.597656 3.699219 7.554688 3.722656 7.542969 C 3.742188 7.535156 3.789062 7.539062 3.804688 7.53125 C 3.835938 7.515625 3.867188 7.496094 3.898438 7.480469 C 3.90625 7.476562 3.917969 7.476562 3.933594 7.484375 C 3.957031 7.421875 4.199219 6.78125 4.304688 6.542969 C 4.304688 6.542969 4.484375 6.1875 4.492188 6.140625 C 4.492188 6.140625 4.574219 5.863281 4.628906 5.804688 C 4.628906 5.804688 4.730469 5.640625 4.757812 5.613281 C 4.757812 5.613281 4.929688 5.4375 4.972656 5.378906 C 4.972656 5.378906 5.140625 5.222656 5.140625 5.195312 C 5.140625 5.195312 5.222656 5.078125 5.277344 5.050781 C 5.277344 5.050781 5.402344 4.9375 5.46875 4.9375 C 5.46875 4.9375 5.640625 4.90625 5.640625 4.90625 L 5.710938 4.929688 L 5.800781 4.941406 L 5.894531 4.976562 C 5.894531 4.976562 5.960938 4.980469 5.980469 5.003906 C 5.980469 5.003906 6.023438 5.074219 6.023438 5.074219 C 6.023438 5.074219 6.089844 5.054688 6.085938 5.082031 C 6.085938 5.082031 6.117188 5.171875 6.148438 5.175781 C 6.148438 5.175781 6.195312 5.203125 6.210938 5.226562 C 6.210938 5.226562 6.234375 5.273438 6.257812 5.289062 C 6.257812 5.289062 6.308594 5.308594 6.339844 5.34375 C 6.339844 5.34375 6.464844 5.453125 6.492188 5.488281 C 6.492188 5.488281 6.613281 5.601562 6.65625 5.675781 C 6.65625 5.675781 6.828125 5.953125 6.851562 6.007812 C 6.851562 6.007812 6.910156 6.203125 6.910156 6.203125 C 6.910156 6.203125 6.925781 6.179688 6.941406 6.203125 C 6.941406 6.203125 7.058594 6.375 7.074219 6.4375 C 7.074219 6.4375 7.152344 6.664062 7.175781 6.707031 C 7.175781 6.707031 7.230469 6.84375 7.230469 6.859375 C 7.230469 6.859375 7.203125 6.890625 7.214844 6.921875 C 7.214844 6.921875 7.246094 7.132812 7.246094 7.132812 L 7.261719 7.128906 C 7.257812 7.113281 7.257812 7.101562 7.269531 7.085938 C 7.277344 7.078125 7.316406 7.074219 7.324219 7.066406 C 7.332031 7.058594 7.34375 7.046875 7.359375 7.039062 C 7.367188 7.039062 7.386719 7.050781 7.390625 7.046875 C 7.398438 7.039062 7.398438 7.03125 7.402344 7.023438 C 7.429688 7 7.445312 7.023438 7.464844 7.015625 C 7.480469 7.007812 7.484375 6.984375 7.496094 6.976562 C 7.503906 6.976562 7.515625 6.980469 7.523438 6.980469 C 7.535156 6.980469 7.539062 6.976562 7.542969 6.96875 C 7.554688 6.957031 7.578125 6.980469 7.589844 6.972656 C 7.597656 6.96875 7.613281 6.914062 7.628906 6.902344 C 7.648438 6.882812 7.703125 6.875 7.71875 6.863281 C 7.722656 6.855469 7.742188 6.863281 7.75 6.859375 C 7.804688 6.824219 7.761719 6.8125 7.765625 6.808594 C 7.769531 6.804688 7.828125 6.796875 7.835938 6.804688 C 7.847656 6.816406 7.824219 6.839844 7.855469 6.839844 C 7.886719 6.839844 7.9375 6.832031 7.953125 6.8125 C 7.953125 6.8125 7.945312 6.785156 7.96875 6.765625 C 7.96875 6.761719 8.003906 6.757812 8.015625 6.757812 C 8.015625 6.757812 8.023438 6.765625 8.027344 6.761719 C 8.039062 6.75 8.046875 6.730469 8.054688 6.722656 C 8.066406 6.710938 8.085938 6.710938 8.097656 6.699219 C 8.105469 6.691406 8.082031 6.691406 8.082031 6.683594 C 8.082031 6.679688 8.15625 6.695312 8.164062 6.695312 C 8.179688 6.695312 8.214844 6.699219 8.226562 6.695312 C 8.25 6.683594 8.273438 6.628906 8.285156 6.609375 C 8.277344 6.597656 8.308594 6.640625 8.308594 6.628906 C 8.3125 6.621094 8.300781 6.601562 8.304688 6.597656 C 8.320312 6.578125 8.40625 6.613281 8.414062 6.597656 C 8.425781 6.574219 8.414062 6.546875 8.4375 6.523438 C 8.4375 6.523438 8.441406 6.519531 8.441406 6.519531 C 8.445312 6.523438 8.453125 6.519531 8.457031 6.523438 C 8.464844 6.527344 8.46875 6.539062 8.476562 6.542969 C 8.488281 6.546875 8.488281 6.53125 8.496094 6.527344 C 8.519531 6.519531 8.558594 6.511719 8.582031 6.511719 C 8.605469 6.511719 8.609375 6.515625 8.621094 6.527344 C 8.621094 6.527344 8.675781 6.53125 8.679688 6.527344 C 8.699219 6.488281 8.691406 6.476562 8.738281 6.460938 C 8.738281 6.460938 8.753906 6.453125 8.757812 6.457031 C 8.769531 6.46875 8.777344 6.488281 8.8125 6.472656 C 8.828125 6.46875 8.84375 6.449219 8.855469 6.445312 C 8.859375 6.441406 8.867188 6.464844 8.878906 6.464844 C 8.890625 6.464844 8.933594 6.460938 8.941406 6.464844 C 8.953125 6.476562 8.953125 6.515625 8.960938 6.519531 C 8.964844 6.523438 8.96875 6.519531 8.96875 6.519531 C 9.015625 6.519531 8.984375 6.46875 8.992188 6.453125 C 8.996094 6.445312 9.007812 6.445312 9.011719 6.445312 C 9.035156 6.433594 9.03125 6.460938 9.042969 6.464844 C 9.050781 6.46875 9.085938 6.445312 9.09375 6.449219 C 9.109375 6.457031 9.128906 6.484375 9.144531 6.511719 C 9.171875 6.496094 9.1875 6.484375 9.1875 6.484375 C 9.210938 6.460938 9.257812 6.460938 9.257812 6.460938 C 9.277344 6.445312 9.296875 6.394531 9.296875 6.394531 C 9.3125 6.382812 9.335938 6.394531 9.335938 6.394531 C 9.355469 6.394531 9.382812 6.347656 9.382812 6.347656 L 9.515625 6.203125 C 9.5 6.207031 9.433594 6.191406 9.441406 6.179688 C 9.449219 6.15625 9.480469 6.128906 9.5 6.117188 C 9.507812 6.113281 9.527344 6.125 9.53125 6.117188 C 9.558594 6.089844 9.5 6.097656 9.492188 6.09375 C 9.445312 6.070312 9.5 6.035156 9.519531 6.023438 C 9.539062 6.015625 9.613281 6.035156 9.617188 6.035156 C 9.636719 6.015625 9.585938 5.992188 9.597656 5.984375 C 9.601562 5.980469 9.660156 5.980469 9.664062 5.984375 C 9.667969 5.988281 9.664062 5.996094 9.675781 6 C 9.691406 6.003906 9.789062 6.007812 9.808594 6 C 9.8125 5.996094 9.8125 5.988281 9.816406 5.988281 C 9.84375 5.960938 9.878906 6.035156 9.902344 6.011719 C 9.914062 5.996094 10.03125 5.949219 10.066406 5.964844 L 10.117188 5.992188 C 10.160156 6.011719 10.230469 5.957031 10.265625 6.007812 C 10.273438 6.019531 10.246094 6.035156 10.238281 6.042969 C 10.234375 6.046875 10.234375 6.050781 10.234375 6.058594 L 10.277344 6.058594 C 10.289062 6.039062 10.292969 6.023438 10.296875 6.023438 C 10.300781 6.03125 10.371094 6.003906 10.386719 5.988281 C 10.390625 5.984375 10.390625 5.976562 10.390625 5.96875 C 10.402344 5.953125 10.429688 5.921875 10.441406 5.914062 C 10.449219 5.914062 10.480469 5.914062 10.484375 5.914062 C 10.484375 5.914062 10.488281 5.925781 10.488281 5.929688 C 10.507812 5.945312 10.554688 5.914062 10.574219 5.925781 C 10.597656 5.933594 10.597656 5.960938 10.609375 5.96875 C 10.617188 5.980469 10.675781 5.964844 10.679688 5.960938 C 10.730469 5.976562 10.84375 5.988281 10.898438 5.980469 C 10.910156 5.976562 10.941406 5.964844 10.949219 5.96875 C 10.96875 5.980469 10.980469 5.992188 10.988281 6 C 10.992188 6.003906 11.019531 6.003906 11.03125 6.007812 C 11.050781 6.015625 11.097656 6.003906 11.105469 6.007812 C 11.117188 6.015625 11.113281 6.042969 11.125 6.050781 C 11.132812 6.058594 11.179688 6.050781 11.1875 6.046875 C 11.191406 6.042969 11.191406 6.035156 11.195312 6.035156 C 11.199219 6.035156 11.195312 6.042969 11.195312 6.046875 C 11.195312 6.054688 11.199219 6.066406 11.203125 6.070312 C 11.214844 6.089844 11.234375 6.078125 11.25 6.089844 C 11.261719 6.09375 11.277344 6.085938 11.289062 6.089844 C 11.308594 6.089844 11.316406 6.09375 11.328125 6.105469 C 11.335938 6.113281 11.335938 6.171875 11.355469 6.191406 C 11.367188 6.203125 11.402344 6.21875 11.421875 6.207031 C 11.421875 6.207031 11.429688 6.199219 11.433594 6.203125 C 11.441406 6.210938 11.449219 6.265625 11.453125 6.273438 C 11.460938 6.289062 11.488281 6.296875 11.496094 6.304688 C 11.511719 6.320312 11.566406 6.289062 11.582031 6.296875 C 11.585938 6.296875 11.585938 6.3125 11.585938 6.3125 C 11.601562 6.332031 11.617188 6.347656 11.636719 6.367188 C 11.640625 6.371094 11.65625 6.359375 11.679688 6.367188 C 11.695312 6.378906 11.691406 6.398438 11.699219 6.410156 C 11.714844 6.433594 11.746094 6.429688 11.761719 6.445312 C 11.78125 6.460938 11.804688 6.5 11.816406 6.507812 C 11.84375 6.523438 11.925781 6.566406 11.925781 6.566406 C 11.925781 6.570312 11.9375 6.582031 11.941406 6.589844 C 11.957031 6.621094 12.003906 6.621094 12.035156 6.652344 C 12.046875 6.664062 12.066406 6.683594 12.082031 6.695312 C 12.105469 6.710938 12.144531 6.730469 12.15625 6.746094 C 12.164062 6.75 12.175781 6.746094 12.183594 6.753906 C 12.210938 6.78125 12.199219 6.800781 12.210938 6.828125 C 12.230469 6.871094 12.246094 6.859375 12.265625 6.878906 C 12.269531 6.882812 12.273438 6.929688 12.289062 6.945312 C 12.296875 6.953125 12.316406 6.941406 12.324219 6.949219 C 12.335938 6.953125 12.332031 6.972656 12.339844 6.980469 C 12.347656 6.996094 12.371094 7.011719 12.386719 7.019531 C 12.402344 7.023438 12.464844 7.046875 12.46875 7.058594 C 12.480469 7.074219 12.480469 7.117188 12.5 7.125 C 12.503906 7.128906 12.511719 7.125 12.515625 7.125 C 12.546875 7.136719 12.578125 7.136719 12.574219 7.136719 C 12.570312 7.136719 12.574219 7.167969 12.59375 7.175781 C 12.605469 7.183594 12.628906 7.171875 12.644531 7.175781 C 12.679688 7.195312 12.734375 7.210938 12.757812 7.234375 C 12.765625 7.242188 12.78125 7.238281 12.792969 7.246094 C 12.800781 7.257812 12.828125 7.238281 12.839844 7.246094 C 12.84375 7.253906 12.851562 7.269531 12.859375 7.277344 C 12.863281 7.285156 12.902344 7.277344 12.910156 7.28125 C 12.925781 7.289062 12.921875 7.324219 12.925781 7.328125 C 12.9375 7.332031 12.953125 7.332031 12.960938 7.335938 C 13 7.355469 13.046875 7.390625 13.0625 7.421875 C 13.066406 7.429688 13.078125 7.429688 13.085938 7.433594 C 13.09375 7.4375 13.121094 7.449219 13.140625 7.441406 C 13.152344 7.4375 13.140625 7.4375 13.15625 7.4375 C 13.15625 7.4375 13.152344 7.433594 13.152344 7.433594 C 13.144531 7.441406 13.171875 7.484375 13.179688 7.488281 C 13.207031 7.503906 13.253906 7.488281 13.25 7.488281 C 13.246094 7.488281 13.25 7.496094 13.25 7.496094 C 13.25 7.515625 13.210938 7.519531 13.226562 7.550781 C 13.230469 7.550781 13.253906 7.546875 13.257812 7.550781 C 13.273438 7.554688 13.261719 7.554688 13.277344 7.574219 C 13.289062 7.585938 13.335938 7.5625 13.347656 7.574219 C 13.355469 7.582031 13.328125 7.605469 13.339844 7.617188 L 13.363281 7.640625 C 13.378906 7.65625 13.402344 7.644531 13.414062 7.667969 C 13.421875 7.683594 13.402344 7.734375 13.414062 7.746094 C 13.429688 7.761719 13.453125 7.707031 13.476562 7.730469 C 13.496094 7.75 13.515625 7.785156 13.535156 7.808594 C 13.550781 7.820312 13.582031 7.835938 13.585938 7.847656 C 13.597656 7.882812 13.585938 7.914062 13.609375 7.9375 C 13.613281 7.941406 13.609375 7.957031 13.617188 7.964844 C 13.621094 7.96875 13.675781 7.984375 13.675781 7.984375 C 13.683594 7.996094 13.675781 8.019531 13.679688 8.03125 C 13.6875 8.046875 13.699219 8.03125 13.707031 8.039062 C 13.714844 8.050781 13.691406 8.074219 13.710938 8.085938 C 13.730469 8.097656 13.769531 8.109375 13.765625 8.148438 C 13.847656 8.234375 13.894531 8.285156 13.894531 8.285156 C 13.980469 8.351562 14.347656 8.734375 14.347656 8.734375 C 14.425781 8.8125 14.574219 9.101562 14.574219 9.101562 C 14.617188 9.1875 14.699219 9.433594 14.738281 9.542969 L 14.917969 9.542969 L 14.9375 9.480469 Z M 15.03125 10.300781 L 15.03125 13.089844 C 15.03125 13.210938 14.980469 13.328125 14.898438 13.410156 C 14.808594 13.5 14.699219 13.550781 14.578125 13.550781 L 1.488281 13.550781 C 1.371094 13.550781 1.25 13.5 1.160156 13.410156 C 1.078125 13.328125 1.03125 13.210938 1.03125 13.089844 L 1.03125 9.929688 L 5.457031 10.097656 L 13.554688 10.40625 L 14.84375 10.382812 L 14.832031 10.292969 Z M 16.03125 2.910156 L 16.03125 13.089844 C 16.03125 13.816406 15.304688 14.546875 14.578125 14.546875 L 1.484375 14.546875 C 0.6875 14.546875 0.03125 13.890625 0.03125 13.089844 L 0.03125 2.910156 C 0.03125 2.183594 0.757812 1.453125 1.484375 1.453125 L 14.578125 1.453125 C 15.304688 1.453125 16.03125 2.183594 16.03125 2.910156 Z M 2.617188 8.027344 C 2.617188 8.023438 2.617188 8.023438 2.613281 8.023438 C 2.613281 8.023438 2.617188 8.023438 2.617188 8.027344 Z M 2.617188 8.027344 "/>
</g>
</svg>
