
<svg xmlns="http://www.w3.org/2000/svg" xmlns:xlink="http://www.w3.org/1999/xlink" width="16px" height="16px" viewBox="0 0 16 16" version="1.1">
<g id="surface1">
<path style=" stroke:none;fill-rule:evenodd;fill:#ff6666;fill-opacity:1;" d="M 4.019531 5.726562 L 1.214844 5.726562 L 0 11.867188 L 1.441406 11.867188 L 1.742188 10.273438 L 3.109375 10.273438 C 4.398438 10.351562 5.839844 9.289062 5.839844 7.46875 C 5.839844 6.40625 5.230469 5.800781 4.019531 5.726562 Z M 2.957031 9.136719 L 2.046875 9.136719 L 2.425781 6.863281 L 3.410156 6.863281 C 3.941406 6.863281 4.320312 7.089844 4.320312 7.546875 C 4.246094 8.835938 3.640625 9.0625 2.957031 9.136719 Z M 5.382812 10.273438 L 6.597656 4.132812 L 8.039062 4.132812 L 7.734375 5.726562 L 9.097656 5.726562 C 10.3125 5.800781 10.769531 6.40625 10.617188 7.164062 L 10.085938 10.273438 L 8.566406 10.273438 L 9.097656 7.46875 C 9.175781 7.089844 9.175781 6.863281 8.644531 6.863281 L 7.507812 6.863281 L 6.824219 10.273438 Z M 14.179688 5.726562 L 11.375 5.726562 L 10.160156 11.867188 L 11.601562 11.867188 L 11.90625 10.273438 L 13.269531 10.273438 C 14.558594 10.351562 16 9.289062 16 7.46875 C 16 6.40625 15.394531 5.800781 14.179688 5.726562 Z M 13.117188 9.136719 L 12.207031 9.136719 L 12.589844 6.863281 L 13.574219 6.863281 C 14.105469 6.863281 14.484375 7.089844 14.484375 7.546875 C 14.40625 8.835938 13.800781 9.0625 13.117188 9.136719 Z M 13.117188 9.136719 "/>
</g>
</svg>
