
<svg xmlns="http://www.w3.org/2000/svg" xmlns:xlink="http://www.w3.org/1999/xlink" width="16px" height="16px" viewBox="0 0 16 16" version="1.1">
<g id="surface1">
<path style=" stroke:none;fill-rule:evenodd;fill:#ff6666;fill-opacity:1;" d="M -0.03125 12.5 L 15.96875 12.5 L 15.96875 14.5 L -0.03125 14.5 Z M -0.03125 12.5 "/>
<path style=" stroke:none;fill-rule:evenodd;fill:#ff6666;fill-opacity:1;" d="M 2.660156 10.183594 L 1.179688 10.183594 L 1.179688 1.546875 L 4.769531 1.546875 C 5.761719 1.546875 6.496094 1.808594 6.964844 2.324219 C 7.433594 2.84375 7.667969 3.476562 7.667969 4.226562 C 7.667969 4.933594 7.421875 5.554688 6.933594 6.097656 C 6.445312 6.640625 5.722656 6.914062 4.769531 6.914062 L 2.660156 6.914062 Z M 2.660156 5.507812 L 4.84375 5.507812 C 5.277344 5.507812 5.601562 5.378906 5.816406 5.125 C 6.03125 4.871094 6.136719 4.570312 6.136719 4.226562 C 6.136719 3.894531 6.035156 3.601562 5.835938 3.34375 C 5.632812 3.082031 5.300781 2.953125 4.84375 2.953125 L 2.660156 2.953125 Z M 11.785156 10.328125 C 10.996094 10.328125 10.316406 10.128906 9.746094 9.730469 C 9.171875 9.332031 8.769531 8.789062 8.53125 8.097656 L 9.898438 7.59375 C 10.082031 7.996094 10.339844 8.316406 10.675781 8.558594 C 11.011719 8.800781 11.398438 8.925781 11.835938 8.925781 C 12.289062 8.925781 12.648438 8.820312 12.914062 8.617188 C 13.183594 8.410156 13.316406 8.113281 13.316406 7.726562 C 13.316406 7.570312 13.277344 7.425781 13.203125 7.289062 C 13.132812 7.152344 13.046875 7.039062 12.953125 6.949219 C 12.855469 6.859375 12.714844 6.769531 12.527344 6.679688 C 12.335938 6.589844 12.175781 6.515625 12.046875 6.464844 C 11.914062 6.410156 11.71875 6.34375 11.464844 6.261719 C 11.136719 6.144531 10.882812 6.054688 10.707031 5.988281 C 10.53125 5.921875 10.304688 5.8125 10.027344 5.660156 C 9.753906 5.507812 9.542969 5.355469 9.398438 5.199219 C 9.257812 5.042969 9.128906 4.835938 9.019531 4.574219 C 8.90625 4.316406 8.851562 4.03125 8.851562 3.71875 C 8.851562 3.0625 9.105469 2.511719 9.617188 2.066406 C 10.125 1.621094 10.816406 1.398438 11.6875 1.398438 C 12.410156 1.398438 13.011719 1.570312 13.488281 1.910156 C 13.964844 2.253906 14.285156 2.699219 14.449219 3.25 L 13.117188 3.695312 C 12.855469 3.101562 12.34375 2.804688 11.589844 2.804688 C 11.203125 2.804688 10.902344 2.886719 10.683594 3.046875 C 10.464844 3.207031 10.355469 3.433594 10.355469 3.730469 C 10.355469 3.929688 10.441406 4.105469 10.609375 4.261719 C 10.777344 4.417969 10.957031 4.535156 11.152344 4.613281 C 11.34375 4.691406 11.628906 4.792969 12.007812 4.914062 C 12.253906 5.003906 12.441406 5.074219 12.570312 5.117188 C 12.699219 5.164062 12.875 5.242188 13.105469 5.347656 C 13.335938 5.453125 13.519531 5.550781 13.648438 5.636719 C 13.78125 5.722656 13.929688 5.839844 14.097656 5.988281 C 14.269531 6.136719 14.398438 6.289062 14.488281 6.449219 C 14.578125 6.609375 14.65625 6.800781 14.722656 7.019531 C 14.789062 7.234375 14.820312 7.472656 14.820312 7.726562 C 14.820312 8.53125 14.535156 9.167969 13.964844 9.632812 C 13.390625 10.097656 12.667969 10.328125 11.785156 10.328125 Z M 11.785156 10.328125 "/>
</g>
</svg>
