
<svg xmlns="http://www.w3.org/2000/svg" xmlns:xlink="http://www.w3.org/1999/xlink" width="16px" height="16px" viewBox="0 0 16 16" version="1.1">
<g id="surface1">
<path style=" stroke:none;fill-rule:nonzero;fill:#ff6666;fill-opacity:1;" d="M 1.324219 0 C 0.589844 0 0 0.589844 0 1.320312 L 0 14.675781 C 0 15.410156 0.589844 16 1.324219 16 L 14.679688 16 C 15.410156 16 16 15.410156 16 14.675781 L 16 1.320312 C 16 0.589844 15.410156 0 14.679688 0 Z M 3.894531 1.15625 L 8 5.261719 L 12.105469 1.15625 L 14.84375 3.894531 L 10.738281 8 L 14.84375 12.105469 L 12.105469 14.84375 L 8 10.738281 L 3.894531 14.84375 L 1.15625 12.105469 L 5.261719 8 L 1.15625 3.894531 Z M 3.894531 1.15625 "/>
</g>
</svg>
