
<svg xmlns="http://www.w3.org/2000/svg" xmlns:xlink="http://www.w3.org/1999/xlink" width="16px" height="16px" viewBox="0 0 16 16" version="1.1">
<g id="surface1">
<path style=" stroke:none;fill-rule:evenodd;fill:#ff6666;fill-opacity:1;" d="M 13.0625 11.164062 C 13.199219 11.160156 13.371094 11.175781 13.511719 11.210938 L 13.679688 11.25 L 13.460938 11.34375 C 13.339844 11.394531 13.203125 11.4375 13.152344 11.4375 C 13.03125 11.433594 12.824219 11.300781 12.824219 11.222656 C 12.824219 11.1875 12.925781 11.167969 13.0625 11.164062 Z M 3.382812 11.117188 C 3.527344 11.132812 3.507812 11.21875 3.296875 11.324219 C 3.171875 11.386719 3.039062 11.4375 3 11.433594 C 2.855469 11.425781 2.558594 11.3125 2.558594 11.269531 C 2.558594 11.222656 2.664062 11.199219 3.179688 11.128906 C 3.265625 11.113281 3.332031 11.113281 3.382812 11.117188 Z M 5.589844 10.976562 C 5.683594 11.019531 5.429688 11.207031 5.222656 11.242188 C 5.117188 11.261719 4.992188 11.316406 4.945312 11.363281 C 4.898438 11.40625 4.78125 11.480469 4.683594 11.519531 C 4.410156 11.632812 4.183594 11.652344 3.941406 11.59375 C 3.746094 11.542969 3.621094 11.382812 3.777344 11.382812 C 3.8125 11.382812 3.957031 11.316406 4.105469 11.234375 C 4.300781 11.121094 4.523438 11.066406 4.953125 11.015625 C 5.273438 10.980469 5.558594 10.960938 5.589844 10.976562 Z M 10.75 11 C 10.824219 10.996094 10.929688 11 11.058594 11.011719 C 11.371094 11.039062 11.53125 11.082031 11.65625 11.179688 C 11.753906 11.253906 11.9375 11.359375 12.066406 11.410156 C 12.289062 11.503906 12.296875 11.511719 12.175781 11.585938 C 12.023438 11.675781 12.058594 11.679688 11.632812 11.542969 C 11.230469 11.410156 10.632812 11.105469 10.632812 11.027344 C 10.632812 11.011719 10.675781 11.003906 10.75 11 Z M 8.113281 11.019531 L 8.28125 11.1875 C 8.371094 11.277344 8.496094 11.449219 8.5625 11.566406 C 8.625 11.679688 8.695312 11.773438 8.722656 11.773438 C 8.828125 11.773438 9.539062 12.199219 9.539062 12.261719 C 9.539062 12.339844 9.195312 12.503906 9.027344 12.503906 C 8.964844 12.503906 8.757812 12.59375 8.5625 12.699219 C 8.140625 12.933594 8.019531 12.9375 7.65625 12.738281 C 7.507812 12.65625 7.226562 12.523438 7.039062 12.449219 C 6.851562 12.371094 6.699219 12.269531 6.699219 12.226562 C 6.699219 12.179688 6.875 12.046875 7.089844 11.929688 C 7.335938 11.796875 7.535156 11.636719 7.613281 11.507812 C 7.6875 11.390625 7.828125 11.234375 7.929688 11.160156 Z M 8.953125 10.933594 C 9.203125 10.9375 9.933594 11.183594 10.210938 11.378906 C 10.351562 11.476562 10.363281 11.523438 10.324219 11.746094 C 10.296875 11.886719 10.242188 11.996094 10.199219 11.996094 C 10.089844 11.992188 9.550781 11.726562 9.246094 11.523438 C 9.011719 11.367188 8.789062 11.023438 8.878906 10.949219 C 8.894531 10.941406 8.917969 10.933594 8.953125 10.933594 Z M 7.148438 10.929688 C 7.296875 10.925781 7.417969 10.960938 7.417969 11.03125 C 7.417969 11.191406 6.601562 11.765625 6.199219 11.886719 C 5.753906 12.023438 5.738281 12.023438 5.570312 11.886719 C 5.300781 11.667969 5.441406 11.515625 6.105469 11.304688 C 6.335938 11.226562 6.609375 11.113281 6.707031 11.050781 C 6.824219 10.976562 7 10.933594 7.148438 10.929688 Z M 10.773438 11.671875 C 10.886719 11.671875 10.984375 11.71875 10.941406 11.773438 C 10.886719 11.847656 10.65625 11.847656 10.601562 11.773438 C 10.574219 11.742188 10.605469 11.703125 10.664062 11.683594 C 10.699219 11.671875 10.738281 11.667969 10.773438 11.671875 Z M 5.15625 11.691406 C 5.207031 11.691406 5.261719 11.722656 5.277344 11.761719 C 5.292969 11.800781 5.246094 11.832031 5.15625 11.832031 C 5.070312 11.832031 5.019531 11.800781 5.039062 11.761719 C 5.054688 11.722656 5.105469 11.691406 5.15625 11.691406 Z M 14.839844 10.367188 C 13.742188 10.132812 13.730469 10.121094 13.894531 9.441406 C 14.027344 8.910156 14.285156 8.363281 14.410156 8.363281 C 14.609375 8.363281 14.859375 8.539062 14.976562 8.757812 C 15.050781 8.890625 15.171875 9.054688 15.25 9.113281 C 15.351562 9.191406 15.390625 9.3125 15.390625 9.535156 C 15.390625 9.902344 15.53125 10.171875 15.804688 10.320312 C 15.914062 10.382812 16 10.457031 16 10.492188 C 16 10.585938 15.742188 10.558594 14.839844 10.367188 Z M 3.535156 5.453125 L 3.1875 5.617188 C 2.738281 5.828125 2.527344 6.097656 2.410156 6.625 C 2.355469 6.859375 2.253906 7.113281 2.179688 7.1875 C 2.109375 7.261719 1.960938 7.609375 1.851562 7.957031 C 1.742188 8.304688 1.613281 8.640625 1.566406 8.703125 C 1.484375 8.800781 1.464844 8.789062 1.359375 8.605469 C 1.296875 8.488281 1.210938 8.394531 1.175781 8.394531 C 1.046875 8.394531 0.726562 8.949219 0.59375 9.398438 C 0.445312 9.902344 0.304688 10.1875 0.09375 10.398438 C -0.015625 10.503906 -0.0273438 10.542969 0.046875 10.546875 C 0.132812 10.546875 2.246094 10.253906 3.222656 10.101562 C 3.523438 10.058594 3.535156 10.046875 3.652344 9.695312 C 3.71875 9.496094 3.878906 9.152344 4.011719 8.925781 L 4.246094 8.515625 L 4.238281 7.375 C 4.230469 6.140625 4.242188 6.199219 3.777344 5.703125 L 3.539062 5.453125 Z M 4.183594 9.207031 C 4.152344 9.214844 4.121094 9.238281 4.09375 9.285156 C 3.96875 9.515625 3.859375 9.890625 3.902344 9.957031 C 3.960938 10.039062 4.054688 10.039062 4.226562 9.957031 C 4.332031 9.90625 4.363281 9.816406 4.363281 9.605469 C 4.363281 9.359375 4.273438 9.195312 4.183594 9.207031 Z M 8.261719 10.546875 C 6.695312 10.53125 5.25 10.597656 3.992188 10.738281 C 1.746094 10.992188 0.824219 11.105469 0.761719 11.136719 C 0.65625 11.191406 0.78125 11.25 1.289062 11.371094 C 1.597656 11.449219 1.800781 11.53125 1.859375 11.609375 C 1.929688 11.703125 1.96875 11.714844 2.042969 11.660156 C 2.191406 11.5625 2.546875 11.683594 2.859375 11.945312 C 3.140625 12.179688 3.203125 12.203125 3.273438 12.113281 C 3.300781 12.082031 3.429688 12.054688 3.570312 12.054688 C 3.710938 12.054688 3.867188 12.03125 3.925781 12 C 3.996094 11.964844 4.097656 11.980469 4.253906 12.058594 C 4.378906 12.117188 4.582031 12.167969 4.707031 12.167969 C 4.832031 12.167969 5.113281 12.242188 5.335938 12.335938 C 5.558594 12.429688 6.015625 12.609375 6.347656 12.738281 C 6.683594 12.863281 7.191406 13.078125 7.480469 13.210938 C 7.765625 13.34375 8.03125 13.453125 8.066406 13.453125 C 8.105469 13.453125 8.242188 13.402344 8.375 13.335938 C 8.925781 13.054688 10.769531 12.335938 10.929688 12.335938 C 11.027344 12.335938 11.125 12.308594 11.152344 12.273438 C 11.175781 12.242188 11.273438 12.230469 11.367188 12.25 C 11.492188 12.277344 11.59375 12.242188 11.769531 12.113281 C 12.0625 11.902344 12.46875 11.875 12.605469 12.054688 C 12.722656 12.210938 12.800781 12.195312 13.050781 11.976562 C 13.347656 11.71875 13.675781 11.589844 13.925781 11.636719 C 14.070312 11.660156 14.179688 11.636719 14.347656 11.535156 C 14.46875 11.464844 14.710938 11.367188 14.878906 11.324219 C 15.277344 11.230469 15.3125 11.210938 15.246094 11.15625 C 15.167969 11.09375 13.96875 10.894531 13.234375 10.824219 C 11.507812 10.65625 9.824219 10.5625 8.261719 10.546875 Z M 12.136719 9.714844 C 10.230469 9.402344 8.054688 9.3125 6.324219 9.480469 C 5.734375 9.535156 5.355469 9.546875 5.320312 9.507812 C 5.289062 9.472656 5.21875 9.160156 5.160156 8.820312 C 5.066406 8.234375 5.066406 8.160156 5.171875 7.535156 C 5.332031 6.589844 5.40625 6.34375 5.636719 6.027344 C 5.84375 5.742188 6.054688 5.664062 6.171875 5.832031 C 6.308594 6.03125 6.558594 7.070312 6.558594 7.429688 C 6.558594 8.023438 6.679688 7.777344 6.75 7.03125 C 6.820312 6.304688 6.839844 6.207031 7.132812 5.128906 C 7.25 4.691406 7.367188 4.117188 7.390625 3.851562 C 7.417969 3.570312 7.476562 3.308594 7.539062 3.21875 C 7.597656 3.132812 7.683594 2.964844 7.726562 2.847656 C 7.863281 2.46875 7.914062 2.460938 8.464844 2.738281 L 8.964844 2.988281 L 9.113281 3.503906 C 9.195312 3.785156 9.316406 4.175781 9.386719 4.371094 C 9.457031 4.566406 9.625 5.191406 9.757812 5.761719 C 9.90625 6.394531 10.039062 6.824219 10.101562 6.875 C 10.214844 6.96875 10.46875 7.6875 10.53125 8.109375 C 10.554688 8.261719 10.617188 8.441406 10.664062 8.511719 C 10.75 8.625 10.753906 8.597656 10.71875 8.226562 C 10.699219 8.003906 10.652344 7.703125 10.621094 7.5625 C 10.546875 7.246094 10.632812 6.679688 10.804688 6.355469 C 10.871094 6.226562 10.984375 5.878906 11.058594 5.578125 C 11.230469 4.882812 11.285156 4.816406 11.558594 4.96875 C 12.089844 5.269531 12.195312 5.421875 12.410156 6.195312 C 12.519531 6.59375 12.664062 7.019531 12.730469 7.140625 C 12.867188 7.394531 13.089844 8.445312 13.089844 8.839844 C 13.09375 9.316406 12.898438 9.851562 12.734375 9.816406 C 12.710938 9.8125 12.441406 9.765625 12.136719 9.714844 Z M 12.136719 9.714844 "/>
</g>
</svg>
