
<svg xmlns="http://www.w3.org/2000/svg" xmlns:xlink="http://www.w3.org/1999/xlink" width="16px" height="16px" viewBox="0 0 16 16" version="1.1">
<g id="surface1">
<path style=" stroke:none;fill-rule:nonzero;fill:#ff6666;fill-opacity:1;" d="M 5.179688 1.480469 C 5.164062 1.480469 5.15625 1.488281 5.140625 1.488281 C 5.117188 1.492188 5.089844 1.492188 5.070312 1.5 C 5.066406 1.5 5.066406 1.496094 5.058594 1.5 C 5.058594 1.5 5.050781 1.507812 5.050781 1.511719 C 1.726562 2.585938 0.421875 5.339844 0.101562 6.148438 L 8.75 6.148438 C 9.011719 5.832031 9.664062 5.828125 9.921875 5.828125 C 10.175781 5.828125 10.828125 5.832031 11.089844 6.148438 L 15.75 6.148438 L 5.300781 1.511719 C 5.261719 1.492188 5.222656 1.480469 5.179688 1.480469 Z M 7.019531 2.980469 L 8.621094 3.691406 C 8.527344 3.996094 8 4.230469 7.359375 4.230469 C 6.652344 4.230469 6.078125 3.941406 6.078125 3.589844 C 6.078125 3.296875 6.480469 3.054688 7.019531 2.980469 Z M 0 6.789062 L 0 13.679688 C -0.00390625 13.902344 0.0859375 14.117188 0.242188 14.277344 C 0.402344 14.433594 0.617188 14.523438 0.839844 14.519531 C 0.855469 14.519531 0.875 14.519531 0.890625 14.519531 C 0.898438 14.519531 0.902344 14.519531 0.910156 14.519531 L 15.140625 13.449219 C 15.613281 13.414062 16 13.007812 16 12.53125 L 16 10.351562 C 16 10.214844 15.910156 10.085938 15.78125 10.039062 C 15.773438 10.035156 15.039062 9.78125 15.039062 9.199219 C 15.039062 8.617188 15.773438 8.351562 15.78125 8.351562 C 15.910156 8.308594 16 8.1875 16 8.050781 L 16 6.789062 L 11.148438 6.789062 C 11.007812 7.339844 10.515625 7.75 9.921875 7.75 C 9.324219 7.75 8.832031 7.339844 8.691406 6.789062 Z M 3.519531 7.75 C 4.402344 7.75 5.121094 8.324219 5.121094 9.03125 C 5.121094 9.734375 4.402344 10.308594 3.519531 10.308594 C 2.636719 10.308594 1.921875 9.734375 1.921875 9.03125 C 1.921875 8.324219 2.636719 7.75 3.519531 7.75 Z M 12 9.988281 C 12.617188 9.988281 13.121094 10.421875 13.121094 10.949219 C 13.121094 11.476562 12.617188 11.910156 12 11.910156 C 11.382812 11.910156 10.878906 11.476562 10.878906 10.949219 C 10.878906 10.421875 11.382812 9.988281 12 9.988281 Z M 7.679688 10.628906 C 8.742188 10.628906 9.601562 11.378906 9.601562 12.300781 C 9.601562 12.65625 9.46875 12.980469 9.25 13.25 L 6.320312 13.46875 C 5.976562 13.167969 5.761719 12.757812 5.761719 12.300781 C 5.761719 11.378906 6.621094 10.628906 7.679688 10.628906 Z M 7.679688 10.628906 "/>
</g>
</svg>
