
<svg xmlns="http://www.w3.org/2000/svg" xmlns:xlink="http://www.w3.org/1999/xlink" width="16px" height="16px" viewBox="0 0 16 16" version="1.1">
<g id="surface1">
<path style=" stroke:none;fill-rule:nonzero;fill:#ff6666;fill-opacity:1;" d="M 11.90625 2.75 C 11.078125 2.75 10.40625 3.421875 10.40625 4.25 C 10.40625 5.078125 11.078125 5.75 11.90625 5.75 C 12.734375 5.75 13.40625 5.078125 13.40625 4.25 C 13.40625 3.421875 12.734375 2.75 11.90625 2.75 Z M 11.90625 2.75 "/>
<path style=" stroke:none;fill-rule:nonzero;fill:#ff6666;fill-opacity:1;" d="M 2 4.722656 L 2 2 L 14 2 L 14 12 L 2 12 L 2 9.238281 L 1 8.300781 L 1 15 L 15 15 L 15 1 L 1 1 L 1 5.65625 Z M 2 4.722656 "/>
<path style=" stroke:none;fill-rule:nonzero;fill:#ff6666;fill-opacity:1;" d="M 4.890625 5.359375 L 5.484375 3 L 6.953125 4.921875 L 7.765625 3.984375 L 8.734375 5.4375 Z M 4.890625 5.359375 "/>
<path style=" stroke:none;fill-rule:nonzero;fill:#ff6666;fill-opacity:1;" d="M 6.265625 8.53125 L 4.734375 8.609375 C 4.847656 9.453125 4.753906 10.015625 4.453125 10.296875 C 4.292969 10.445312 3.941406 10.496094 3.390625 10.453125 L 3 11 L 11 11 L 9.484375 8.359375 L 7.765625 8.4375 Z M 6.265625 8.53125 "/>
<path style=" stroke:none;fill-rule:nonzero;fill:#ff6666;fill-opacity:1;" d="M 3.878906 3.902344 C 3.808594 3.910156 3.742188 3.9375 3.683594 3.980469 C 2.195312 4.988281 0.757812 6.664062 0.703125 6.730469 C 0.648438 6.792969 0.613281 6.875 0.609375 6.960938 C 0.609375 7.046875 0.648438 7.121094 0.703125 7.191406 C 0.757812 7.257812 2.195312 8.933594 3.683594 9.941406 C 3.800781 10.019531 3.945312 10.027344 4.066406 9.964844 C 4.1875 9.898438 4.265625 9.769531 4.261719 9.632812 L 4.261719 8.210938 C 4.261719 8.210938 10.570312 7.980469 10.703125 7.882812 C 10.902344 7.742188 11.03125 7.339844 11.03125 6.960938 C 11.03125 6.582031 10.902344 6.117188 10.703125 5.980469 C 10.570312 5.882812 4.261719 5.710938 4.261719 5.710938 L 4.261719 4.289062 C 4.265625 4.152344 4.191406 4.023438 4.070312 3.960938 C 4.011719 3.925781 3.945312 3.90625 3.878906 3.902344 Z M 3.878906 3.902344 "/>
</g>
</svg>
