
<svg xmlns="http://www.w3.org/2000/svg" xmlns:xlink="http://www.w3.org/1999/xlink" width="16px" height="16px" viewBox="0 0 16 16" version="1.1">
<g id="surface1">
<path style=" stroke:none;fill-rule:nonzero;fill:#ff6666;fill-opacity:1;" d="M 4.25 0.5 C 3.730469 0.5 3.3125 0.917969 3.3125 1.4375 C 3.3125 1.957031 3.730469 2.375 4.25 2.375 C 4.769531 2.375 5.1875 1.957031 5.1875 1.4375 C 5.1875 0.917969 4.769531 0.5 4.25 0.5 M 10.8125 0.5 L 8.9375 2.375 L 11.75 5.1875 L 8.9375 8 L 10.8125 9.875 L 15.5 5.1875 Z M 1.90625 6.125 C 1.128906 6.125 0.5 6.753906 0.5 7.53125 C 0.5 8.308594 1.128906 8.9375 1.90625 8.9375 C 2.683594 8.9375 3.3125 8.308594 3.3125 7.53125 C 3.3125 6.753906 2.683594 6.125 1.90625 6.125 M 6.125 11.75 C 5.085938 11.75 4.25 12.585938 4.25 13.625 C 4.25 14.664062 5.085938 15.5 6.125 15.5 C 7.164062 15.5 8 14.664062 8 13.625 C 8 12.585938 7.164062 11.75 6.125 11.75 "/>
</g>
</svg>
