
<svg xmlns="http://www.w3.org/2000/svg" xmlns:xlink="http://www.w3.org/1999/xlink" width="16px" height="16px" viewBox="0 0 16 16" version="1.1">
<g id="surface1">
<path style=" stroke:none;fill-rule:nonzero;fill:#ff6666;fill-opacity:1;" d="M 9.03125 7.9375 C 8.917969 8.109375 8.742188 8.226562 8.535156 8.265625 C 8.335938 8.308594 8.125 8.261719 7.960938 8.148438 C 7.789062 8.035156 7.671875 7.851562 7.628906 7.652344 C 7.59375 7.453125 7.636719 7.242188 7.75 7.070312 C 8.085938 6.574219 8.644531 6.273438 9.242188 6.261719 C 9.75 6.265625 10.234375 6.476562 10.585938 6.84375 C 10.933594 7.207031 11.128906 7.695312 11.109375 8.203125 C 11.09375 8.757812 10.882812 9.285156 10.523438 9.710938 C 10.277344 10.011719 9.972656 10.257812 9.617188 10.421875 C 9.300781 10.574219 8.945312 10.648438 8.585938 10.648438 C 8.132812 10.644531 7.679688 10.53125 7.277344 10.320312 C 6.910156 10.136719 6.582031 9.886719 6.308594 9.589844 C 5.824219 9.042969 5.554688 8.339844 5.5625 7.613281 C 5.5625 6.597656 6.023438 5.640625 6.816406 5.003906 C 7.464844 4.484375 8.273438 4.199219 9.105469 4.203125 C 10.371094 4.203125 11.566406 4.804688 12.332031 5.8125 C 12.902344 6.5625 13.207031 7.488281 13.203125 8.433594 C 13.203125 9.949219 12.472656 11.378906 11.242188 12.273438 C 10.382812 12.894531 9.351562 13.226562 8.289062 13.226562 C 6.519531 13.226562 4.855469 12.359375 3.835938 10.910156 C 3.15625 9.949219 2.796875 8.796875 2.796875 7.621094 C 2.796875 5.601562 3.800781 3.695312 5.464844 2.550781 C 6.535156 1.820312 7.796875 1.429688 9.089844 1.433594 C 10.199219 1.433594 11.289062 1.707031 12.269531 2.222656 C 13.277344 2.746094 14.136719 3.515625 14.769531 4.449219 C 15.5625 5.621094 15.976562 7.003906 15.976562 8.414062 C 15.972656 9.644531 15.671875 10.855469 15.09375 11.941406 C 14.511719 13.058594 13.65625 14.011719 12.609375 14.707031 C 11.335938 15.550781 9.835938 16 8.308594 16 C 6.957031 15.992188 5.625 15.664062 4.433594 15.027344 C 3.207031 14.382812 2.164062 13.441406 1.402344 12.285156 C 0.5 10.90625 0.0234375 9.285156 0.0234375 7.640625 C 0.0273438 6.164062 0.394531 4.71875 1.082031 3.417969 C 1.789062 2.085938 2.820312 0.949219 4.085938 0.125 C 4.257812 0.0117188 4.46875 -0.0234375 4.664062 0.015625 C 4.867188 0.0546875 5.042969 0.175781 5.15625 0.351562 C 5.269531 0.523438 5.308594 0.734375 5.265625 0.933594 C 5.226562 1.132812 5.105469 1.308594 4.933594 1.421875 C 3.886719 2.101562 3.035156 3.042969 2.449219 4.140625 C 1.875 5.21875 1.570312 6.421875 1.570312 7.640625 C 1.566406 8.992188 1.960938 10.308594 2.695312 11.4375 C 3.316406 12.371094 4.160156 13.140625 5.15625 13.65625 C 6.125 14.175781 7.207031 14.449219 8.308594 14.449219 C 9.53125 14.457031 10.734375 14.097656 11.753906 13.417969 C 12.585938 12.867188 13.265625 12.109375 13.726562 11.21875 C 14.183594 10.351562 14.429688 9.390625 14.429688 8.410156 C 14.429688 7.308594 14.101562 6.234375 13.488281 5.316406 C 12.996094 4.59375 12.332031 4 11.554688 3.59375 C 10.792969 3.195312 9.949219 2.984375 9.089844 2.984375 C 8.109375 2.980469 7.152344 3.273438 6.34375 3.828125 C 5.09375 4.6875 4.347656 6.109375 4.347656 7.621094 C 4.347656 8.484375 4.609375 9.316406 5.097656 10.015625 C 5.828125 11.058594 7.027344 11.675781 8.289062 11.675781 C 9.027344 11.679688 9.738281 11.445312 10.332031 11.019531 C 11.164062 10.414062 11.652344 9.453125 11.65625 8.425781 C 11.65625 7.816406 11.464844 7.230469 11.101562 6.746094 C 10.621094 6.117188 9.886719 5.75 9.101562 5.75 C 8.621094 5.75 8.160156 5.90625 7.785156 6.210938 C 7.355469 6.550781 7.109375 7.070312 7.105469 7.617188 C 7.105469 7.960938 7.230469 8.296875 7.460938 8.550781 C 7.601562 8.710938 7.777344 8.84375 7.976562 8.941406 C 8.171875 9.042969 8.386719 9.09375 8.605469 9.097656 C 8.730469 9.097656 8.847656 9.070312 8.964844 9.023438 C 9.105469 8.949219 9.238281 8.847656 9.339844 8.71875 C 9.476562 8.5625 9.554688 8.363281 9.566406 8.160156 C 9.566406 8.066406 9.53125 7.988281 9.476562 7.921875 C 9.417969 7.855469 9.332031 7.816406 9.246094 7.8125 C 9.160156 7.816406 9.082031 7.867188 9.03125 7.9375 Z M 9.03125 7.9375 "/>
</g>
</svg>
