
<svg xmlns="http://www.w3.org/2000/svg" xmlns:xlink="http://www.w3.org/1999/xlink" width="16px" height="16px" viewBox="0 0 16 16" version="1.1">
<g id="surface1">
<path style=" stroke:none;fill-rule:evenodd;fill:#ff6666;fill-opacity:1;" d="M 7.980469 8.035156 C 7.976562 8.035156 7.972656 8.035156 7.96875 8.035156 C 7.96875 8.015625 7.96875 7.992188 7.964844 7.96875 C 7.964844 7.992188 7.972656 8.015625 7.980469 8.035156 Z M 7.972656 8.0625 C 7.992188 8.050781 8.011719 8.042969 8.027344 8.035156 C 8.011719 8.035156 7.996094 8.035156 7.972656 8.0625 Z M 4.457031 8.984375 C 1.921875 10.210938 0.164062 12.347656 2.546875 13.722656 C 3.464844 14.25 4.121094 14.28125 4.601562 14.074219 C 4.664062 14.59375 5.019531 15.148438 5.933594 15.675781 C 8.050781 16.902344 9.109375 14.445312 9.011719 11.722656 C 10.296875 14.128906 12.441406 15.722656 13.664062 13.605469 C 14.191406 12.691406 14.222656 12.03125 14.015625 11.550781 C 14.535156 11.492188 15.089844 11.136719 15.617188 10.222656 C 17 7.832031 14.394531 6.859375 11.578125 7.0625 C 14.082031 5.804688 15.804688 3.585938 13.636719 2.335938 C 12.71875 1.808594 12.0625 1.777344 11.582031 1.984375 C 11.523438 1.464844 11.164062 0.910156 10.25 0.382812 C 7.777344 -1.046875 6.820312 1.796875 7.148438 4.730469 C 5.957031 2.03125 3.707031 0.0390625 2.277344 2.519531 C 1.75 3.433594 1.71875 4.09375 1.925781 4.570312 C 1.40625 4.632812 0.851562 4.988281 0.324219 5.902344 C -0.929688 8.066406 1.664062 9.128906 4.457031 8.984375 Z M 4.457031 8.984375 "/>
</g>
</svg>
