
<svg xmlns="http://www.w3.org/2000/svg" xmlns:xlink="http://www.w3.org/1999/xlink" width="16px" height="16px" viewBox="0 0 16 16" version="1.1">
<g id="surface1">
<path style=" stroke:none;fill-rule:evenodd;fill:#ff6666;fill-opacity:1;" d="M 3.816406 2 L 5.941406 2 L 10.441406 8.402344 L 6.324219 14.199219 L 7.015625 14.199219 L 11.054688 8.398438 L 6.644531 2 L 8.761719 2 L 13.128906 8.398438 L 9.167969 14.199219 L 9.789062 14.199219 L 13.8125 8.398438 L 16 8.398438 L 16 9 L 14.125 9 L 10.105469 14.800781 L 8.035156 14.800781 L 12.402344 8.398438 L 8.445312 2.601562 L 7.785156 2.601562 L 11.785156 8.402344 L 7.328125 14.800781 L 5.164062 14.800781 L 9.707031 8.398438 L 5.628906 2.601562 L 4.949219 2.601562 L 8.902344 8.421875 L 0 8.421875 L 0 7.820312 L 7.769531 7.820312 Z M 3.816406 2 "/>
</g>
</svg>
