
<svg xmlns="http://www.w3.org/2000/svg" xmlns:xlink="http://www.w3.org/1999/xlink" width="16px" height="16px" viewBox="0 0 16 16" version="1.1">
<g id="surface1">
<path style=" stroke:none;fill-rule:nonzero;fill:#ff6666;fill-opacity:1;" d="M 11.59375 1.230469 C 11.339844 1.109375 11.101562 1.035156 10.871094 1.011719 C 10.640625 0.988281 10.429688 1.003906 10.238281 1.058594 C 10.050781 1.113281 9.882812 1.203125 9.734375 1.328125 C 9.589844 1.453125 9.472656 1.605469 9.386719 1.785156 C 9.332031 1.898438 9.289062 2.003906 9.265625 2.101562 C 9.238281 2.203125 9.21875 2.292969 9.210938 2.371094 C 9.199219 2.449219 9.199219 2.515625 9.199219 2.570312 C 9.203125 2.625 9.203125 2.671875 9.207031 2.691406 L 9.230469 2.933594 C 9.242188 3.042969 9.230469 3.128906 9.195312 3.1875 C 9.160156 3.253906 9.097656 3.289062 9.007812 3.296875 C 8.984375 3.300781 8.960938 3.300781 8.933594 3.296875 C 8.910156 3.296875 8.886719 3.292969 8.867188 3.289062 L 5.101562 1.476562 L 3.875 4.023438 C 3.871094 4.046875 3.867188 4.066406 3.867188 4.09375 C 3.867188 4.117188 3.867188 4.144531 3.867188 4.164062 C 3.878906 4.257812 3.914062 4.320312 3.976562 4.351562 C 4.035156 4.386719 4.121094 4.398438 4.234375 4.390625 L 4.472656 4.363281 C 4.496094 4.359375 4.542969 4.363281 4.597656 4.359375 C 4.648438 4.355469 4.714844 4.359375 4.796875 4.371094 C 4.871094 4.378906 4.960938 4.394531 5.0625 4.421875 C 5.160156 4.449219 5.265625 4.488281 5.382812 4.542969 C 5.5625 4.632812 5.714844 4.746094 5.839844 4.894531 C 5.964844 5.039062 6.054688 5.207031 6.109375 5.398438 C 6.164062 5.589844 6.179688 5.800781 6.15625 6.03125 C 6.128906 6.257812 6.058594 6.5 5.9375 6.75 C 5.8125 7.003906 5.675781 7.214844 5.519531 7.382812 C 5.363281 7.546875 5.195312 7.667969 5.019531 7.746094 C 4.839844 7.824219 4.65625 7.859375 4.460938 7.851562 C 4.269531 7.847656 4.078125 7.796875 3.886719 7.703125 C 3.773438 7.648438 3.675781 7.59375 3.585938 7.53125 C 3.496094 7.472656 3.421875 7.414062 3.359375 7.359375 C 3.300781 7.304688 3.25 7.257812 3.210938 7.214844 C 3.175781 7.167969 3.160156 7.136719 3.148438 7.113281 L 3.019531 6.910156 C 2.960938 6.816406 2.894531 6.757812 2.832031 6.730469 C 2.765625 6.703125 2.695312 6.714844 2.617188 6.765625 C 2.597656 6.777344 2.578125 6.792969 2.558594 6.808594 C 2.539062 6.824219 2.523438 6.84375 2.511719 6.859375 L 0.707031 10.605469 L 4.472656 12.417969 C 4.492188 12.421875 4.515625 12.425781 4.539062 12.425781 C 4.566406 12.425781 4.589844 12.425781 4.609375 12.425781 C 4.703125 12.414062 4.765625 12.378906 4.800781 12.316406 C 4.835938 12.257812 4.847656 12.171875 4.835938 12.058594 L 4.8125 11.820312 C 4.808594 11.796875 4.808594 11.75 4.804688 11.695312 C 4.804688 11.644531 4.804688 11.578125 4.816406 11.496094 C 4.824219 11.421875 4.84375 11.332031 4.871094 11.230469 C 4.894531 11.132812 4.9375 11.027344 4.992188 10.910156 C 5.078125 10.730469 5.195312 10.578125 5.339844 10.453125 C 5.484375 10.328125 5.652344 10.238281 5.84375 10.183594 C 6.035156 10.128906 6.246094 10.113281 6.476562 10.136719 C 6.703125 10.164062 6.945312 10.234375 7.199219 10.355469 C 7.449219 10.480469 7.660156 10.617188 7.828125 10.773438 C 7.992188 10.929688 8.113281 11.097656 8.191406 11.277344 C 8.269531 11.453125 8.304688 11.640625 8.300781 11.832031 C 8.292969 12.023438 8.242188 12.214844 8.148438 12.410156 C 8.097656 12.519531 8.039062 12.621094 7.980469 12.707031 C 7.917969 12.796875 7.859375 12.871094 7.804688 12.933594 C 7.753906 12.992188 7.703125 13.042969 7.660156 13.082031 C 7.613281 13.117188 7.582031 13.132812 7.558594 13.144531 L 7.355469 13.273438 C 7.265625 13.335938 7.203125 13.398438 7.179688 13.460938 C 7.148438 13.527344 7.160156 13.597656 7.210938 13.675781 C 7.222656 13.695312 7.238281 13.714844 7.253906 13.734375 C 7.273438 13.753906 7.289062 13.769531 7.304688 13.78125 L 9.835938 15 L 11.640625 11.253906 C 11.652344 11.238281 11.667969 11.222656 11.6875 11.203125 C 11.707031 11.1875 11.726562 11.171875 11.742188 11.160156 C 11.820312 11.109375 11.894531 11.097656 11.957031 11.128906 C 12.023438 11.152344 12.085938 11.210938 12.144531 11.304688 L 12.277344 11.507812 C 12.289062 11.53125 12.300781 11.5625 12.339844 11.609375 C 12.375 11.652344 12.425781 11.699219 12.488281 11.753906 C 12.550781 11.808594 12.625 11.867188 12.714844 11.929688 C 12.800781 11.988281 12.902344 12.046875 13.011719 12.097656 C 13.203125 12.191406 13.398438 12.242188 13.589844 12.246094 C 13.78125 12.253906 13.96875 12.21875 14.144531 12.140625 C 14.324219 12.0625 14.488281 11.941406 14.648438 11.777344 C 14.804688 11.609375 14.941406 11.398438 15.0625 11.144531 C 15.183594 10.894531 15.257812 10.652344 15.28125 10.425781 C 15.304688 10.195312 15.289062 9.984375 15.234375 9.792969 C 15.179688 9.601562 15.089844 9.433594 14.964844 9.289062 C 14.839844 9.140625 14.6875 9.027344 14.507812 8.941406 C 14.394531 8.886719 14.289062 8.84375 14.191406 8.820312 C 14.089844 8.792969 14 8.773438 13.921875 8.765625 C 13.84375 8.753906 13.777344 8.75 13.722656 8.753906 C 13.667969 8.757812 13.621094 8.757812 13.601562 8.761719 L 13.359375 8.785156 C 13.25 8.796875 13.164062 8.78125 13.105469 8.75 C 13.042969 8.714844 13.007812 8.652344 12.996094 8.558594 C 12.992188 8.539062 12.992188 8.515625 12.996094 8.488281 C 12.996094 8.464844 13 8.441406 13.003906 8.421875 L 14.230469 5.871094 L 11.699219 4.652344 C 11.683594 4.640625 11.667969 4.625 11.652344 4.605469 C 11.632812 4.585938 11.617188 4.566406 11.609375 4.550781 C 11.558594 4.472656 11.546875 4.398438 11.574219 4.335938 C 11.597656 4.269531 11.660156 4.207031 11.753906 4.148438 L 11.953125 4.015625 C 11.980469 4.003906 12.007812 3.992188 12.054688 3.953125 C 12.097656 3.917969 12.148438 3.867188 12.203125 3.804688 C 12.257812 3.742188 12.3125 3.667969 12.375 3.582031 C 12.433594 3.492188 12.492188 3.394531 12.546875 3.28125 C 12.636719 3.089844 12.6875 2.894531 12.695312 2.703125 C 12.699219 2.511719 12.664062 2.324219 12.585938 2.148438 C 12.507812 1.96875 12.386719 1.804688 12.222656 1.644531 C 12.054688 1.488281 11.84375 1.351562 11.59375 1.230469 Z M 11.59375 1.230469 "/>
</g>
</svg>
