
<svg xmlns="http://www.w3.org/2000/svg" xmlns:xlink="http://www.w3.org/1999/xlink" width="16px" height="16px" viewBox="0 0 16 16" version="1.1">
<g id="surface1">
<path style=" stroke:none;fill-rule:nonzero;fill:#ff6666;fill-opacity:1;" d="M 0 8 C 0 3.582031 3.582031 0 8 0 C 12.417969 0 16 3.582031 16 8 L 14 8 C 14 4.6875 11.3125 2 8 2 C 4.6875 2 2 4.6875 2 8 C 2 11.3125 4.6875 14 8 14 L 8 16 C 3.582031 16 0 12.417969 0 8 Z M 8 12.800781 C 5.347656 12.800781 3.199219 10.652344 3.199219 8 C 3.199219 5.347656 5.347656 3.199219 8 3.199219 C 10.652344 3.199219 12.800781 5.347656 12.800781 8 L 11.054688 8 C 11.054688 6.3125 9.6875 4.945312 8 4.945312 C 6.3125 4.945312 4.945312 6.3125 4.945312 8 C 4.945312 9.6875 6.3125 11.054688 8 11.054688 Z M 8 12.800781 "/>
</g>
</svg>
