
<svg xmlns="http://www.w3.org/2000/svg" xmlns:xlink="http://www.w3.org/1999/xlink" width="16px" height="16px" viewBox="0 0 16 16" version="1.1">
<g id="surface1">
<path style=" stroke:none;fill-rule:nonzero;fill:#ff6666;fill-opacity:1;" d="M 10.128906 2.613281 C 7.664062 4.390625 5.152344 6.539062 3.945312 7.746094 C 3.816406 7.875 3.695312 8.011719 3.582031 8.148438 C 3.546875 8.191406 3.515625 8.238281 3.480469 8.285156 C 3.410156 8.378906 3.335938 8.476562 3.269531 8.574219 C 3.234375 8.625 3.203125 8.679688 3.167969 8.734375 C 3.113281 8.828125 3.054688 8.921875 3.003906 9.015625 C 2.972656 9.074219 2.945312 9.128906 2.914062 9.1875 C 2.867188 9.28125 2.820312 9.378906 2.777344 9.476562 C 2.753906 9.53125 2.726562 9.585938 2.703125 9.640625 C 2.644531 9.789062 2.585938 9.941406 2.535156 10.09375 C 2.496094 10.203125 2.464844 10.3125 2.433594 10.421875 C 2.421875 10.464844 2.40625 10.503906 2.398438 10.546875 C 2.363281 10.671875 2.332031 10.796875 2.304688 10.921875 C 2.300781 10.941406 2.292969 10.964844 2.289062 10.984375 C 2.226562 11.269531 2.179688 11.554688 2.148438 11.84375 C 2.148438 11.851562 2.148438 11.855469 2.148438 11.859375 C 2.128906 12.007812 2.117188 12.152344 2.105469 12.300781 C 2.101562 12.394531 2.097656 12.480469 2.09375 12.5625 C 2.089844 12.601562 2.089844 12.632812 2.089844 12.664062 C 2.085938 12.734375 2.085938 12.800781 2.085938 12.863281 L 2.085938 12.96875 C 2.085938 13.019531 2.085938 13.066406 2.085938 13.113281 C 2.085938 13.152344 2.085938 13.1875 2.089844 13.21875 C 2.089844 13.25 2.089844 13.277344 2.089844 13.304688 C 2.09375 13.34375 2.09375 13.382812 2.097656 13.414062 L 0.101562 15.40625 C -0.0351562 15.542969 -0.0351562 15.765625 0.101562 15.898438 C 0.171875 15.964844 0.257812 16 0.347656 16 C 0.441406 16 0.527344 15.964844 0.59375 15.898438 L 2.589844 13.902344 C 2.632812 13.90625 2.6875 13.910156 2.746094 13.910156 C 2.84375 13.914062 2.945312 13.914062 3.046875 13.914062 C 4.183594 13.914062 6.605469 13.703125 8.253906 12.054688 L 8.257812 12.050781 C 8.265625 12.039062 8.277344 12.03125 8.289062 12.023438 C 8.449219 11.859375 8.632812 11.667969 8.824219 11.460938 L 8.832031 11.453125 C 9.21875 11.039062 9.664062 10.542969 10.132812 9.992188 C 10.136719 9.988281 10.140625 9.984375 10.144531 9.980469 C 10.34375 9.75 10.535156 9.519531 10.730469 9.285156 L 10.753906 9.257812 C 10.953125 9.019531 11.152344 8.777344 11.351562 8.527344 C 11.355469 8.527344 11.355469 8.527344 11.355469 8.523438 L 11.359375 8.519531 C 11.503906 8.339844 11.648438 8.160156 11.792969 7.976562 C 11.804688 7.960938 11.8125 7.949219 11.824219 7.9375 C 12.050781 7.648438 12.277344 7.355469 12.503906 7.058594 C 12.546875 7.003906 12.589844 6.945312 12.632812 6.890625 C 12.722656 6.773438 12.808594 6.652344 12.898438 6.535156 C 12.9375 6.480469 12.976562 6.433594 13.011719 6.382812 C 13.136719 6.210938 13.261719 6.039062 13.386719 5.867188 C 16.726562 1.226562 16.015625 0.519531 15.75 0.25 C 15.480469 -0.015625 14.773438 -0.726562 10.128906 2.613281 Z M 3.925781 11.585938 L 3.925781 11.582031 Z M 11.472656 2.523438 C 11.71875 2.355469 11.949219 2.203125 12.167969 2.066406 L 12.167969 3.339844 L 11.472656 4.035156 Z M 9.386719 4.03125 C 9.617188 3.855469 9.847656 3.679688 10.082031 3.511719 L 10.082031 5.425781 L 9.386719 6.121094 Z M 8.097656 7.410156 Z M 7.300781 5.6875 C 7.527344 5.5 7.757812 5.3125 7.996094 5.121094 L 7.996094 7.511719 L 7.300781 8.207031 Z M 6.011719 9.496094 Z M 5.214844 7.496094 C 5.429688 7.300781 5.660156 7.09375 5.910156 6.871094 L 5.910156 9.597656 L 5.214844 10.292969 Z M 7.761719 11.5625 C 7.527344 11.792969 7.273438 12 6.996094 12.175781 L 4.316406 12.175781 L 5.011719 11.480469 L 7.84375 11.480469 C 7.816406 11.507812 7.789062 11.539062 7.761719 11.5625 Z M 9.128906 10.089844 L 6.402344 10.089844 L 7.097656 9.394531 L 9.726562 9.394531 C 9.523438 9.636719 9.320312 9.871094 9.128906 10.089844 Z M 10.878906 8.003906 L 8.488281 8.003906 L 9.183594 7.308594 L 11.429688 7.308594 C 11.246094 7.542969 11.0625 7.777344 10.878906 8.003906 Z M 12.492188 5.917969 L 10.574219 5.917969 L 11.269531 5.222656 L 12.992188 5.222656 C 12.9375 5.304688 12.601562 5.765625 12.492188 5.917969 Z M 12.492188 5.917969 "/>
</g>
</svg>
