
<svg xmlns="http://www.w3.org/2000/svg" xmlns:xlink="http://www.w3.org/1999/xlink" width="16px" height="16px" viewBox="0 0 16 16" version="1.1">
<g id="surface1">
<path style=" stroke:none;fill-rule:nonzero;fill:#ff6666;fill-opacity:1;" d="M 8 0 C 7.410156 0 6.839844 0.0664062 6.285156 0.1875 L 6.285156 3.863281 L 3.6875 1.261719 C 2.714844 1.886719 1.886719 2.714844 1.261719 3.6875 L 3.863281 6.285156 L 0.1875 6.285156 C 0.0664062 6.839844 0 7.410156 0 8 C 0 8.589844 0.0664062 9.160156 0.1875 9.714844 L 3.863281 9.714844 L 1.261719 12.3125 C 1.886719 13.285156 2.714844 14.113281 3.6875 14.738281 L 6.285156 12.136719 L 6.285156 15.8125 C 6.839844 15.933594 7.410156 16 8 16 C 8.589844 16 9.160156 15.933594 9.714844 15.8125 L 9.714844 12.136719 L 12.3125 14.738281 C 13.285156 14.113281 14.113281 13.285156 14.738281 12.3125 L 12.136719 9.714844 L 15.8125 9.714844 C 15.933594 9.160156 16 8.589844 16 8 C 16 7.410156 15.933594 6.839844 15.8125 6.285156 L 12.136719 6.285156 L 14.738281 3.6875 C 14.113281 2.714844 13.285156 1.886719 12.3125 1.261719 L 9.714844 3.863281 L 9.714844 0.1875 C 9.160156 0.0664062 8.589844 0 8 0 Z M 4.285156 5.144531 L 7.714844 5.144531 L 7.714844 6.285156 L 6.570312 6.285156 L 6.570312 10.855469 L 5.429688 10.855469 L 5.429688 6.285156 L 4.285156 6.285156 Z M 8.285156 5.144531 L 9.429688 5.144531 L 9.429688 7.429688 L 10.570312 7.429688 L 10.570312 5.144531 L 11.714844 5.144531 L 11.714844 10.855469 L 10.570312 10.855469 L 10.570312 8.570312 L 9.429688 8.570312 L 9.429688 10.855469 L 8.285156 10.855469 Z M 8.285156 5.144531 "/>
</g>
</svg>
