
<svg xmlns="http://www.w3.org/2000/svg" xmlns:xlink="http://www.w3.org/1999/xlink" width="16px" height="16px" viewBox="0 0 16 16" version="1.1">
<g id="surface1">
<path style=" stroke:none;fill-rule:nonzero;fill:#ff6666;fill-opacity:1;" d="M 8 0 C 3.589844 0 0 3.589844 0 8 C 0 12.410156 3.589844 16 8 16 C 12.410156 16 16 12.410156 16 8 C 16 3.589844 12.410156 0 8 0 Z M 8 1 C 11.871094 1 15 4.128906 15 8 C 15 11.871094 11.871094 15 8 15 C 4.128906 15 1 11.871094 1 8 C 1 4.128906 4.128906 1 8 1 Z M 10.019531 4.496094 C 3.339844 12.164062 6.679688 8.332031 10.019531 4.496094 Z M 5.363281 4.863281 C 4.535156 4.863281 3.863281 5.535156 3.863281 6.363281 C 3.863281 7.191406 4.535156 7.863281 5.363281 7.863281 C 6.191406 7.863281 6.863281 7.191406 6.863281 6.363281 C 6.863281 5.535156 6.191406 4.863281 5.363281 4.863281 Z M 11.363281 4.863281 C 10.535156 4.863281 9.863281 5.535156 9.863281 6.363281 C 9.863281 7.191406 10.535156 7.863281 11.363281 7.863281 C 12.191406 7.863281 12.863281 7.191406 12.863281 6.363281 C 12.863281 5.535156 12.191406 4.863281 11.363281 4.863281 Z M 6.921875 9.867188 L 8.007812 12.558594 L 9.347656 9.929688 Z M 6.921875 9.867188 "/>
</g>
</svg>
