
<svg xmlns="http://www.w3.org/2000/svg" xmlns:xlink="http://www.w3.org/1999/xlink" width="16px" height="16px" viewBox="0 0 16 16" version="1.1">
<g id="surface1">
<path style=" stroke:none;fill-rule:nonzero;fill:#ff6666;fill-opacity:1;" d="M 9.667969 0.726562 C 9.273438 0.726562 8.851562 0.734375 8.398438 0.742188 C 4.957031 0.828125 3.492188 1.269531 1.714844 2.511719 C 0.441406 3.402344 -0.390625 4.65625 0.183594 5.019531 C 0.671875 5.328125 2.066406 4.640625 2.488281 3.882812 C 3.015625 2.929688 3.621094 2.660156 4.757812 2.660156 C 5.4375 2.660156 5.507812 2.84375 5.335938 4.195312 C 4.96875 7.136719 4.132812 10.476562 3.066406 13.113281 C 2.757812 13.875 2.507812 14.644531 2.507812 14.820312 C 2.507812 15.359375 2.980469 15.417969 3.839844 14.988281 C 4.726562 14.546875 5.089844 14.050781 5.796875 12.300781 C 6.148438 11.429688 6.433594 10.664062 6.433594 10.609375 C 6.433594 10.332031 6.953125 10.117188 7.96875 9.984375 C 11.460938 9.515625 14.460938 7.707031 15.566406 5.40625 C 16.328125 3.820312 16.085938 2.539062 14.859375 1.710938 C 13.808594 1 12.429688 0.726562 9.667969 0.726562 Z M 9.121094 2.671875 C 9.234375 2.675781 9.359375 2.683594 9.496094 2.699219 C 11.109375 2.871094 12.328125 3.367188 12.828125 4.054688 C 13.167969 4.519531 13.179688 5.628906 12.851562 6.300781 C 12.21875 7.59375 11.171875 8.0625 8.054688 8.445312 C 7.496094 8.515625 7.332031 8.496094 7.277344 8.355469 C 7.242188 8.257812 7.378906 7.339844 7.578125 6.316406 C 7.78125 5.289062 7.984375 4.125 8.03125 3.726562 C 8.113281 3 8.277344 2.71875 8.816406 2.671875 C 8.90625 2.664062 9.007812 2.664062 9.121094 2.671875 Z M 9.121094 2.671875 "/>
</g>
</svg>
