
<svg xmlns="http://www.w3.org/2000/svg" xmlns:xlink="http://www.w3.org/1999/xlink" width="16px" height="16px" viewBox="0 0 16 16" version="1.1">
<g id="surface1">
<path style=" stroke:none;fill-rule:evenodd;fill:#ff6666;fill-opacity:1;" d="M 10.464844 0.53125 C 15.308594 0.53125 16 1.222656 16 6.0625 L 16 9.9375 C 16 14.777344 15.308594 15.46875 10.464844 15.46875 L 5.535156 15.46875 C 0.691406 15.46875 0 14.777344 0 9.9375 L 0 6.0625 C 0 1.222656 0.691406 0.53125 5.535156 0.53125 Z M 6.554688 3.648438 C 3.683594 3.648438 3.273438 4.066406 3.273438 6.980469 L 3.273438 9.3125 C 3.273438 12.230469 3.683594 12.644531 6.554688 12.644531 L 9.476562 12.644531 C 12.347656 12.644531 12.757812 12.230469 12.757812 9.3125 L 12.757812 6.980469 C 12.757812 4.066406 12.347656 3.648438 9.476562 3.648438 Z M 6.355469 3.027344 C 3.085938 3.027344 2.621094 3.503906 2.621094 6.820312 L 2.621094 9.476562 C 2.621094 12.792969 3.085938 13.265625 6.355469 13.265625 L 9.679688 13.265625 C 12.945312 13.265625 13.410156 12.792969 13.410156 9.476562 L 13.410156 6.820312 C 13.410156 3.503906 12.945312 3.027344 9.679688 3.027344 Z M 6.355469 3.027344 "/>
</g>
</svg>
