
<svg xmlns="http://www.w3.org/2000/svg" xmlns:xlink="http://www.w3.org/1999/xlink" width="16px" height="16px" viewBox="0 0 16 16" version="1.1">
<g id="surface1">
<path style=" stroke:none;fill-rule:nonzero;fill:#ff6666;fill-opacity:1;" d="M 9.875 1.371094 C 7.847656 1.375 6.019531 2.601562 5.25 4.476562 C 4.796875 4.085938 4.222656 3.875 3.625 3.871094 C 2.246094 3.871094 1.125 4.992188 1.125 6.371094 C 1.125 6.921875 1.308594 7.457031 1.640625 7.890625 C 0.9375 8.273438 0.5 9.011719 0.5 9.808594 C 0.5 11.019531 1.480469 11.996094 2.6875 11.996094 C 2.792969 11.996094 2.898438 11.992188 3 11.976562 L 3 12.625 C 3 13.664062 3.835938 14.5 4.875 14.5 L 11.125 14.5 C 12.164062 14.5 13 13.664062 13 12.625 L 13 12.597656 C 13.101562 12.613281 13.207031 12.625 13.3125 12.625 C 14.519531 12.625 15.5 11.644531 15.5 10.4375 C 15.5 9.644531 15.070312 8.917969 14.378906 8.53125 C 14.703125 7.859375 14.871094 7.121094 14.875 6.375 C 14.875 3.613281 12.636719 1.375 9.875 1.375 Z M 4.5625 6.996094 C 5.253906 6.996094 5.8125 7.558594 5.8125 8.246094 C 5.8125 8.9375 5.253906 9.496094 4.5625 9.496094 C 3.871094 9.496094 3.3125 8.9375 3.3125 8.246094 C 3.3125 7.558594 3.871094 6.996094 4.5625 6.996094 Z M 11.4375 6.996094 C 12.128906 6.996094 12.6875 7.558594 12.6875 8.246094 C 12.6875 8.9375 12.128906 9.496094 11.4375 9.496094 C 10.746094 9.496094 10.1875 8.9375 10.1875 8.246094 C 10.1875 7.558594 10.746094 6.996094 11.4375 6.996094 Z M 6.125 9.496094 L 9.875 9.496094 C 9.875 10.535156 9.035156 11.371094 8 11.371094 C 6.964844 11.371094 6.125 10.535156 6.125 9.496094 Z M 6.125 9.496094 "/>
</g>
</svg>
