
<svg xmlns="http://www.w3.org/2000/svg" xmlns:xlink="http://www.w3.org/1999/xlink" width="16px" height="16px" viewBox="0 0 16 16" version="1.1">
<g id="surface1">
<path style=" stroke:none;fill-rule:nonzero;fill:#ff6666;fill-opacity:1;" d="M 8 0 C 5.863281 0 3.855469 0.832031 2.34375 2.34375 C 0.832031 3.855469 0 5.863281 0 8 C 0 10.136719 0.832031 12.144531 2.34375 13.65625 C 3.855469 15.167969 5.863281 16 8 16 C 10.136719 16 12.144531 15.167969 13.65625 13.65625 C 15.167969 12.144531 16 10.136719 16 8 C 16 5.863281 15.167969 3.855469 13.65625 2.34375 C 12.144531 0.828125 10.140625 0 8 0 Z M 13.636719 3.664062 L 7.464844 3.664062 L 9.964844 1.160156 C 11.441406 1.589844 12.722656 2.480469 13.636719 3.664062 Z M 4.558594 1.777344 C 5.609375 1.191406 6.796875 0.882812 8 0.886719 C 8.316406 0.886719 8.621094 0.90625 8.925781 0.945312 L 4.558594 5.3125 Z M 3.667969 2.363281 L 3.667969 8.53125 L 1.164062 6.035156 C 1.59375 4.558594 2.484375 3.277344 3.667969 2.363281 Z M 1.78125 11.441406 C 1.195312 10.390625 0.886719 9.203125 0.886719 8 C 0.886719 7.683594 0.910156 7.378906 0.949219 7.074219 L 5.316406 11.441406 Z M 2.367188 12.332031 L 8.535156 12.332031 L 6.035156 14.835938 C 4.578125 14.410156 3.292969 13.53125 2.367188 12.332031 Z M 11.445312 14.214844 C 10.394531 14.800781 9.210938 15.109375 8.003906 15.109375 C 7.6875 15.109375 7.382812 15.085938 7.078125 15.050781 L 9.929688 12.199219 L 11.445312 10.679688 Z M 11.445312 9.425781 L 9.429688 11.441406 L 6.574219 11.441406 L 4.5625 9.429688 L 4.5625 6.574219 L 6.578125 4.558594 L 9.433594 4.5625 L 11.449219 6.574219 L 11.449219 9.425781 Z M 12.335938 13.632812 L 12.335938 7.457031 L 14.839844 9.957031 C 14.414062 11.417969 13.535156 12.703125 12.335938 13.632812 Z M 15.113281 7.996094 C 15.113281 8.308594 15.089844 8.613281 15.050781 8.917969 L 10.683594 4.554688 L 14.222656 4.554688 C 14.789062 5.574219 15.113281 6.75 15.113281 7.996094 Z M 15.113281 7.996094 "/>
</g>
</svg>
