
<svg xmlns="http://www.w3.org/2000/svg" xmlns:xlink="http://www.w3.org/1999/xlink" width="16px" height="16px" viewBox="0 0 16 16" version="1.1">
<g id="surface1">
<path style=" stroke:none;fill-rule:nonzero;fill:#ff6666;fill-opacity:1;" d="M 0 15.984375 L 1.058594 14.691406 L 2.40625 16 Z M 0 15.984375 "/>
<path style=" stroke:none;fill-rule:nonzero;fill:#ff6666;fill-opacity:1;" d="M 1.339844 14.457031 L 2.820312 16.015625 C 2.875 15.597656 2.675781 15.105469 2.480469 14.429688 C 5.828125 13.703125 11.578125 8.515625 12.953125 5.046875 L 7.441406 9.804688 C 6.765625 10.125 6.128906 10.257812 5.519531 10.195312 Z M 1.339844 14.457031 "/>
<path style=" stroke:none;fill-rule:nonzero;fill:#ff6666;fill-opacity:1;" d="M 6.921875 8.738281 L 5.90625 9.757812 C 7.0625 9.757812 7.1875 9.625 7.519531 9.335938 L 12.761719 4.660156 C 13.28125 4.21875 12.320312 3.308594 11.75 3.855469 Z M 6.921875 8.738281 "/>
<path style=" stroke:none;fill-rule:nonzero;fill:#ff6666;fill-opacity:1;" d="M 6.585938 8.507812 C 5.945312 9.023438 5.078125 9.179688 3.960938 9.101562 L 5.597656 7.546875 C 8.898438 4.15625 11.035156 2.710938 11.90625 3.257812 Z M 6.585938 8.507812 "/>
<path style=" stroke:none;fill-rule:nonzero;fill:#ff6666;fill-opacity:1;" d="M 13.414062 2.359375 L 14.816406 3.855469 C 13.335938 4.21875 11.945312 3.320312 12.101562 1.90625 C 12.492188 -0.25 14.660156 -0.328125 15.257812 0.515625 C 14.71875 1.042969 14.105469 1.660156 13.414062 2.359375 Z M 13.414062 2.359375 "/>
<path style=" stroke:none;fill-rule:nonzero;fill:#ff6666;fill-opacity:1;" d="M 15.191406 3.609375 L 13.894531 2.308594 L 15.59375 0.683594 C 16.332031 1.777344 16.039062 2.945312 15.191406 3.609375 Z M 15.191406 3.609375 "/>
</g>
</svg>
