
<svg xmlns="http://www.w3.org/2000/svg" xmlns:xlink="http://www.w3.org/1999/xlink" width="16px" height="16px" viewBox="0 0 16 16" version="1.1">
<g id="surface1">
<path style=" stroke:none;fill-rule:nonzero;fill:#ff6666;fill-opacity:1;" d="M 8 0 C 3.578125 0 0 3.574219 0 8 C 0 12.425781 3.578125 16 8 16 C 12.425781 16 16 12.425781 16 8 C 16 3.574219 12.425781 0 8 0 Z M 8 1 C 11.871094 1 15 4.128906 15 8 C 15 11.871094 11.871094 15 8 15 C 4.132812 15 1 11.871094 1 8 C 1 4.128906 4.132812 1 8 1 Z M 9 3 L 5.5 9 L 7.5 9 L 7 13 L 10.5 7 L 8.5 7 Z M 9 3 "/>
</g>
</svg>
