
<svg xmlns="http://www.w3.org/2000/svg" xmlns:xlink="http://www.w3.org/1999/xlink" width="16px" height="16px" viewBox="0 0 16 16" version="1.1">
<g id="surface1">
<path style=" stroke:none;fill-rule:nonzero;fill:#ff6666;fill-opacity:1;" d="M 3.988281 5.160156 L 1.167969 2.339844 C 2.613281 0.890625 4.613281 0 6.832031 0 C 11.261719 0 14.832031 3.566406 14.832031 8 C 14.832031 12.433594 11.261719 16 6.832031 16 C 4.613281 16 2.613281 15.109375 1.167969 13.660156 L 3.988281 10.839844 C 4.710938 11.558594 5.707031 12 6.804688 12 C 6.804688 12.386719 6.800781 12.949219 6.789062 13.6875 C 8.457031 12.015625 9.414062 11.050781 9.667969 10.792969 C 10.371094 10.070312 10.804688 9.085938 10.804688 8 C 10.804688 5.789062 9.015625 4 6.804688 4 C 5.707031 4 4.710938 4.441406 3.988281 5.160156 Z M 3.988281 5.160156 "/>
</g>
</svg>
