
<svg xmlns="http://www.w3.org/2000/svg" xmlns:xlink="http://www.w3.org/1999/xlink" width="16px" height="16px" viewBox="0 0 16 16" version="1.1">
<g id="surface1">
<path style=" stroke:none;fill-rule:nonzero;fill:#ff6666;fill-opacity:1;" d="M 11.5625 0 C 11.472656 -0.00390625 11.332031 0.0507812 11.070312 0.164062 C 10.761719 0.300781 10.0625 0.410156 9.511719 0.410156 C 7.566406 0.449219 6.011719 1.117188 4.753906 2.371094 C 3.042969 4.085938 2.503906 6.242188 3.285156 8.242188 C 3.464844 8.707031 3.574219 9.175781 3.527344 9.289062 C 3.480469 9.402344 3.152344 9.710938 2.796875 9.980469 C 2.03125 10.566406 1.5 11.507812 1.367188 12.519531 C 1.285156 13.128906 1.339844 13.417969 1.679688 14.140625 C 2.40625 15.695312 4.058594 16.359375 5.820312 15.808594 C 6.839844 15.488281 7.855469 14.359375 8.671875 12.640625 C 9.378906 11.15625 9.40625 11.121094 10.164062 10.855469 C 11.441406 10.402344 12.242188 9.90625 13.042969 9.074219 C 14.460938 7.59375 14.984375 5.679688 14.476562 3.847656 C 14.25 3.027344 14.058594 2.742188 13.023438 1.695312 C 12.371094 1.03125 11.789062 0.363281 11.734375 0.203125 C 11.6875 0.0742188 11.652344 0.0078125 11.5625 0 Z M 8.125 1.777344 C 8.730469 1.78125 9.199219 1.964844 9.324219 2.328125 C 9.367188 2.445312 9.191406 3.007812 8.933594 3.574219 C 8.265625 5.03125 8.050781 5.835938 7.648438 8.40625 C 7.148438 11.59375 6.601562 12.972656 5.507812 13.800781 C 4.816406 14.320312 3.972656 14.363281 3.519531 13.90625 C 3.128906 13.507812 3.015625 13.007812 3.195312 12.484375 C 3.339844 12.070312 3.480469 12.003906 4.53125 11.847656 C 5.261719 11.742188 5.777344 11.234375 5.777344 10.570312 C 5.777344 10.152344 5.609375 9.914062 5.039062 9.3125 C 4.160156 8.382812 3.777344 7.488281 3.773438 6.363281 C 3.769531 4.601562 4.628906 3.101562 6.105469 2.316406 C 6.777344 1.953125 7.519531 1.777344 8.125 1.777344 Z M 10.375 2.667969 C 10.558594 2.640625 10.789062 2.855469 11.113281 3.296875 C 12.402344 5.046875 12.269531 7.699219 10.820312 9.222656 C 10.199219 9.871094 10.054688 9.910156 9.625 9.558594 C 9.378906 9.355469 9.332031 9.175781 9.332031 8.433594 C 9.335938 7.300781 9.671875 4.527344 9.933594 3.472656 C 10.0625 2.960938 10.195312 2.695312 10.375 2.667969 Z M 10.375 2.667969 "/>
</g>
</svg>
