
<svg xmlns="http://www.w3.org/2000/svg" xmlns:xlink="http://www.w3.org/1999/xlink" width="16px" height="16px" viewBox="0 0 16 16" version="1.1">
<g id="surface1">
<path style=" stroke:none;fill-rule:evenodd;fill:#ff6666;fill-opacity:1;" d="M 4.714844 0 C 4.320312 0.0078125 4 0.328125 4 0.726562 L 4 2.855469 L 2.183594 2.855469 C 1.675781 2.855469 1.320312 3.335938 1.5 3.8125 L 2.4375 6.394531 L 0.179688 8.976562 C -0.148438 9.351562 -0.0078125 9.941406 0.457031 10.128906 L 2 10.671875 L 2 12.191406 C 2 12.59375 2.34375 12.914062 2.746094 12.914062 L 3.714844 12.914062 L 3.714844 14.992188 C 3.714844 15.566406 4.269531 15.914062 4.753906 15.605469 L 8.433594 13.179688 L 14.988281 15.941406 C 15.585938 16.191406 16.1875 15.601562 15.945312 15 L 13.996094 9.851562 L 15.921875 5.835938 C 16.164062 5.351562 15.8125 4.855469 15.269531 4.855469 L 12.855469 4.855469 L 12.855469 3.273438 C 12.855469 3.113281 12.839844 2.960938 12.746094 2.835938 L 10.945312 0.609375 C 10.683594 0.261719 10.183594 0.21875 9.867188 0.511719 L 7.652344 2.625 L 5.242188 0.214844 C 5.101562 0.0742188 4.914062 -0.00390625 4.714844 0 Z M 11.25 8.613281 L 8.792969 8.613281 L 8.792969 11.070312 L 7.152344 11.070312 L 7.152344 8.613281 L 4.695312 8.613281 L 4.695312 6.972656 L 7.152344 6.972656 L 7.152344 4.515625 L 8.792969 4.515625 L 8.792969 6.972656 L 11.25 6.972656 Z M 11.25 8.613281 "/>
</g>
</svg>
