
<svg xmlns="http://www.w3.org/2000/svg" xmlns:xlink="http://www.w3.org/1999/xlink" width="16px" height="16px" viewBox="0 0 16 16" version="1.1">
<g id="surface1">
<path style=" stroke:none;fill-rule:nonzero;fill:#ff6666;fill-opacity:1;" d="M 0.972656 5.25 C 0.710938 5.25 0.5 5.410156 0.5 5.609375 L 0.5 8.640625 C 0.5 8.839844 0.710938 9 0.972656 9 L 3.777344 9 C 4.039062 9 4.25 8.835938 4.25 8.640625 L 4.25 5.609375 C 4.25 5.410156 4.039062 5.25 3.777344 5.25 Z M 6.597656 5.25 C 6.335938 5.25 6.125 5.410156 6.125 5.609375 L 6.125 8.640625 C 6.125 8.839844 6.335938 9 6.597656 9 L 9.402344 9 C 9.664062 9 9.875 8.835938 9.875 8.640625 L 9.875 5.609375 C 9.875 5.410156 9.664062 5.25 9.402344 5.25 Z M 12.222656 5.25 C 11.960938 5.25 11.75 5.410156 11.75 5.609375 L 11.75 8.640625 C 11.75 8.839844 11.960938 9 12.222656 9 L 15.027344 9 C 15.289062 9 15.5 8.835938 15.5 8.640625 L 15.5 5.609375 C 15.5 5.410156 15.289062 5.25 15.027344 5.25 Z M 12.222656 5.25 "/>
</g>
</svg>
