
<svg xmlns="http://www.w3.org/2000/svg" xmlns:xlink="http://www.w3.org/1999/xlink" width="16px" height="16px" viewBox="0 0 16 16" version="1.1">
<g id="surface1">
<path style=" stroke:none;fill-rule:nonzero;fill:#ff6666;fill-opacity:1;" d="M 9.410156 1.410156 C 9.410156 2.191406 8.78125 2.824219 8 2.824219 C 7.21875 2.824219 6.589844 2.191406 6.589844 1.410156 C 6.589844 0.632812 7.21875 0 8 0 C 8.78125 0 9.410156 0.632812 9.410156 1.410156 Z M 9.410156 1.410156 "/>
<path style=" stroke:none;fill-rule:nonzero;fill:#ff6666;fill-opacity:1;" d="M 9.410156 14.589844 C 9.410156 15.367188 8.78125 16 8 16 C 7.21875 16 6.589844 15.367188 6.589844 14.589844 C 6.589844 13.808594 7.21875 13.175781 8 13.175781 C 8.78125 13.175781 9.410156 13.808594 9.410156 14.589844 Z M 9.410156 14.589844 "/>
<path style=" stroke:none;fill-rule:nonzero;fill:#ff6666;fill-opacity:1;" d="M 14.589844 9.410156 C 15.367188 9.410156 16 8.777344 16 8 C 16 7.222656 15.367188 6.589844 14.589844 6.589844 C 13.808594 6.589844 13.175781 7.222656 13.175781 8 C 13.175781 8.777344 13.808594 9.410156 14.589844 9.410156 Z M 14.589844 9.410156 "/>
<path style=" stroke:none;fill-rule:nonzero;fill:#ff6666;fill-opacity:1;" d="M 1.410156 9.410156 C 2.191406 9.410156 2.824219 8.777344 2.824219 8 C 2.824219 7.222656 2.191406 6.589844 1.410156 6.589844 C 0.632812 6.589844 0 7.222656 0 8 C 0 8.777344 0.632812 9.410156 1.410156 9.410156 Z M 1.410156 9.410156 "/>
<path style=" stroke:none;fill-rule:nonzero;fill:#ff6666;fill-opacity:1;" d="M 11.660156 13.65625 C 12.210938 14.207031 13.105469 14.207031 13.65625 13.65625 C 14.207031 13.105469 14.207031 12.210938 13.65625 11.660156 C 13.105469 11.109375 12.210938 11.109375 11.660156 11.660156 C 11.109375 12.210938 11.109375 13.105469 11.660156 13.65625 Z M 11.660156 13.65625 "/>
<path style=" stroke:none;fill-rule:nonzero;fill:#ff6666;fill-opacity:1;" d="M 2.34375 4.339844 C 2.894531 4.890625 3.789062 4.890625 4.339844 4.339844 C 4.890625 3.789062 4.890625 2.894531 4.339844 2.34375 C 3.789062 1.792969 2.894531 1.792969 2.34375 2.34375 C 1.792969 2.894531 1.792969 3.789062 2.34375 4.339844 Z M 2.34375 4.339844 "/>
<path style=" stroke:none;fill-rule:nonzero;fill:#ff6666;fill-opacity:1;" d="M 4.339844 13.65625 C 3.789062 14.207031 2.894531 14.207031 2.34375 13.65625 C 1.792969 13.105469 1.792969 12.210938 2.34375 11.660156 C 2.894531 11.109375 3.789062 11.109375 4.339844 11.660156 C 4.890625 12.210938 4.890625 13.105469 4.339844 13.65625 Z M 4.339844 13.65625 "/>
<path style=" stroke:none;fill-rule:nonzero;fill:#ff6666;fill-opacity:1;" d="M 13.65625 4.339844 C 13.105469 4.890625 12.210938 4.890625 11.660156 4.339844 C 11.109375 3.789062 11.109375 2.894531 11.660156 2.34375 C 12.210938 1.792969 13.105469 1.792969 13.65625 2.34375 C 14.207031 2.894531 14.207031 3.789062 13.65625 4.339844 Z M 13.65625 4.339844 "/>
</g>
</svg>
