
<svg xmlns="http://www.w3.org/2000/svg" xmlns:xlink="http://www.w3.org/1999/xlink" width="16px" height="16px" viewBox="0 0 16 16" version="1.1">
<g id="surface1">
<path style=" stroke:none;fill-rule:nonzero;fill:#ff6666;fill-opacity:1;" d="M 7.785156 14.445312 C 7.273438 14.503906 6.691406 14.492188 6.007812 14.5 L 3.992188 14.5 C 2.734375 14.484375 1.816406 14.53125 1.0625 14.113281 C 0.6875 13.90625 0.390625 13.554688 0.226562 13.117188 C 0.0585938 12.679688 0 12.15625 0 11.5 L 0 9.5 C 0 8.84375 0.0585938 8.320312 0.226562 7.882812 C 0.390625 7.445312 0.6875 7.09375 1.0625 6.886719 C 1.816406 6.46875 2.734375 6.515625 3.992188 6.5 L 6.007812 6.5 C 7.265625 6.515625 8.183594 6.46875 8.9375 6.886719 C 9.3125 7.09375 9.609375 7.445312 9.773438 7.882812 C 9.867188 8.148438 9.925781 8.425781 9.957031 8.730469 C 9.59375 8.59375 9.203125 8.4375 8.839844 8.234375 C 8.742188 7.972656 8.636719 7.863281 8.453125 7.761719 C 8.085938 7.558594 7.257812 7.515625 6 7.5 L 4 7.5 C 2.742188 7.515625 1.910156 7.558594 1.546875 7.761719 C 1.363281 7.863281 1.257812 7.972656 1.160156 8.234375 C 1.0625 8.492188 1 8.90625 1 9.5 L 1 11.5 C 1 12.09375 1.0625 12.507812 1.160156 12.765625 C 1.257812 13.027344 1.363281 13.136719 1.546875 13.238281 C 1.910156 13.441406 2.742188 13.484375 4 13.5 L 6 13.5 C 6.742188 13.492188 7.335938 13.472656 7.769531 13.417969 C 7.8125 13.8125 7.828125 14.0625 7.785156 14.445312 Z M 7.785156 14.445312 "/>
<path style=" stroke:none;fill-rule:nonzero;fill:#ff6666;fill-opacity:1;" d="M 6.992188 1.5 C 5.734375 1.515625 4.816406 1.46875 4.0625 1.886719 C 3.6875 2.09375 3.390625 2.445312 3.226562 2.882812 C 3.058594 3.320312 3 3.84375 3 4.5 L 3 5.5 L 4 5.5 L 4 4.5 C 4 3.90625 4.0625 3.492188 4.160156 3.234375 C 4.257812 2.972656 4.363281 2.863281 4.546875 2.761719 C 4.910156 2.558594 5.742188 2.515625 7 2.5 L 12 2.5 C 13.257812 2.515625 14.085938 2.558594 14.453125 2.761719 C 14.636719 2.863281 14.742188 2.972656 14.839844 3.234375 C 14.9375 3.492188 15 3.90625 15 4.5 L 15 8.5 C 15 9.09375 14.9375 9.507812 14.839844 9.765625 C 14.742188 10.027344 14.636719 10.136719 14.453125 10.238281 C 14.253906 10.351562 13.90625 10.414062 13.421875 10.449219 C 13.765625 10.875 14.03125 11.078125 14.394531 11.332031 C 14.585938 11.28125 14.765625 11.210938 14.9375 11.113281 C 15.3125 10.90625 15.609375 10.554688 15.773438 10.117188 C 15.941406 9.679688 16 9.15625 16 8.5 L 16 4.5 C 16 3.84375 15.941406 3.320312 15.773438 2.882812 C 15.609375 2.445312 15.3125 2.09375 14.9375 1.886719 C 14.183594 1.46875 13.265625 1.515625 12.007812 1.5 Z M 6.992188 1.5 "/>
<path style=" stroke:none;fill-rule:nonzero;fill:#ff6666;fill-opacity:1;" d="M 8.34375 8.535156 L 8.34375 14.875 C 8.34375 14.875 11.558594 13.574219 14.1875 11.703125 C 14.1875 11.699219 14.1875 11.699219 14.1875 11.699219 C 14.183594 11.699219 14.183594 11.699219 14.183594 11.699219 C 14.183594 11.695312 14.183594 11.695312 14.183594 11.695312 C 11.410156 9.765625 8.34375 8.535156 8.34375 8.535156 Z M 8.34375 8.535156 "/>
</g>
</svg>
