
<svg xmlns="http://www.w3.org/2000/svg" xmlns:xlink="http://www.w3.org/1999/xlink" width="16px" height="16px" viewBox="0 0 16 16" version="1.1">
<g id="surface1">
<path style=" stroke:none;fill-rule:nonzero;fill:#ff6666;fill-opacity:1;" d="M 3.992188 1 C 2.734375 1.015625 1.816406 0.96875 1.0625 1.386719 C 0.671875 1.605469 0.375 1.960938 0.226562 2.382812 C 0.0585938 2.820312 0 3.34375 0 4 L 0 7 C 0 7.65625 0.0585938 8.179688 0.226562 8.617188 C 0.390625 9.054688 0.6875 9.40625 1.0625 9.613281 C 1.816406 10.03125 2.734375 9.984375 3.992188 10 L 4.957031 10 C 4.859375 10.75 4.542969 10.945312 4 10.980469 L 4 12 L 5 12 L 5 9 L 4 9 C 2.742188 8.984375 1.910156 8.941406 1.546875 8.738281 C 1.363281 8.636719 1.257812 8.527344 1.160156 8.265625 C 1.0625 8.007812 1 7.59375 1 7 L 1 4 C 1 3.40625 1.0625 2.992188 1.160156 2.734375 C 1.257812 2.472656 1.363281 2.363281 1.546875 2.261719 C 1.910156 2.058594 2.742188 2.015625 4 2 L 8 2 C 9.257812 2.015625 10.085938 2.058594 10.453125 2.261719 C 10.636719 2.363281 10.742188 2.472656 10.839844 2.734375 C 10.9375 2.992188 11 3.40625 11 4 L 12 4 C 12 3.34375 11.941406 2.820312 11.773438 2.382812 C 11.625 1.960938 11.328125 1.605469 10.9375 1.386719 C 10.183594 0.96875 9.265625 1.015625 8.007812 1 Z M 3.992188 1 "/>
<path style=" stroke:none;fill-rule:nonzero;fill:#ff6666;fill-opacity:1;" d="M 8 5 L 8 7.027344 C 7.613281 7.054688 7.277344 7.109375 6.964844 7.242188 C 6.636719 7.378906 6.371094 7.625 6.210938 7.941406 C 6.050781 8.261719 6 8.628906 6 9.0625 L 6 10.9375 C 6 11.371094 6.050781 11.738281 6.210938 12.058594 C 6.367188 12.378906 6.648438 12.625 6.964844 12.757812 C 6.976562 12.761719 6.988281 12.761719 7 12.769531 L 7 9.0625 C 7 8.714844 7.050781 8.496094 7.105469 8.382812 C 7.160156 8.269531 7.210938 8.222656 7.351562 8.160156 C 7.636719 8.042969 8.332031 8.007812 9.363281 8 L 12.636719 8 C 13.667969 8.007812 14.363281 8.042969 14.648438 8.160156 C 14.792969 8.222656 14.839844 8.269531 14.894531 8.382812 C 14.949219 8.496094 15 8.714844 15 9.0625 L 15 12.769531 C 15.011719 12.761719 15.023438 12.761719 15.035156 12.757812 C 15.351562 12.625 15.632812 12.378906 15.789062 12.058594 C 15.949219 11.738281 16 11.371094 16 10.9375 L 16 9.0625 C 16 8.628906 15.949219 8.261719 15.789062 7.941406 C 15.628906 7.625 15.363281 7.378906 15.035156 7.242188 C 14.722656 7.109375 14.386719 7.054688 14 7.027344 L 14 5 Z M 9 6 L 13 6 L 13 7.007812 C 12.871094 7.007812 12.777344 7 12.640625 7 L 9.359375 7 C 9.222656 7 9.128906 7.003906 9 7.007812 Z M 13.5 9 C 13.222656 9 13 9.222656 13 9.5 C 13 9.777344 13.222656 10 13.5 10 C 13.777344 10 14 9.777344 14 9.5 C 14 9.222656 13.777344 9 13.5 9 Z M 8 11 L 8 15 L 14 15 L 14 11 L 13 11 L 13 14 L 9 14 L 9 11 Z M 8 11 "/>
</g>
</svg>
