
<svg xmlns="http://www.w3.org/2000/svg" xmlns:xlink="http://www.w3.org/1999/xlink" width="16px" height="16px" viewBox="0 0 16 16" version="1.1">
<g id="surface1">
<path style=" stroke:none;fill-rule:nonzero;fill:#ff6666;fill-opacity:1;" d="M 4.730469 0 C 4.074219 0 3.542969 0.507812 3.542969 1.144531 L 3.542969 2.285156 C 3.542969 2.917969 4.074219 3.429688 4.730469 3.429688 L 5.917969 3.429688 C 6.578125 3.429688 7.109375 2.917969 7.109375 2.285156 L 7.109375 1.144531 C 7.109375 0.507812 6.578125 0 5.917969 0 Z M 4.167969 4.570312 L 3.542969 5.007812 L 1.226562 9.460938 C 0.828125 10.15625 1.953125 10.695312 2.289062 9.96875 L 3.542969 7.5625 L 3.992188 6.277344 L 3.542969 10.285156 L 3.542969 16 L 4.730469 16 L 4.730469 11.429688 L 5.917969 11.429688 L 5.917969 16 L 7.109375 16 L 7.109375 10.285156 L 6.480469 6.273438 L 7.109375 7.5625 L 8.359375 9.96875 C 8.417969 10.078125 8.511719 10.167969 8.628906 10.226562 L 10.675781 11.210938 L 10.675781 16 L 13.054688 16 L 13.054688 12.238281 L 13.820312 12.976562 C 14.382812 13.535156 15.246094 12.707031 14.664062 12.167969 L 13.054688 10.621094 L 13.054688 10.285156 L 11.410156 10.285156 L 9.335938 9.289062 L 7.109375 5.007812 L 6.285156 4.570312 Z M 10.675781 6.855469 L 10.675781 9.144531 L 13.054688 9.144531 L 13.054688 6.855469 Z M 10.675781 6.855469 "/>
</g>
</svg>
