
<svg xmlns="http://www.w3.org/2000/svg" xmlns:xlink="http://www.w3.org/1999/xlink" width="16px" height="16px" viewBox="0 0 16 16" version="1.1">
<g id="surface1">
<path style=" stroke:none;fill-rule:nonzero;fill:#ff6666;fill-opacity:1;" d="M 8.640625 2 C 6.480469 2.003906 4.648438 3.410156 3.769531 5.421875 L 3.710938 5.558594 L 3.570312 5.570312 C 1.578125 5.722656 0 7.550781 0 9.773438 C 0 12.09375 1.714844 14 3.835938 14 L 13.121094 14 C 14.714844 14 16 12.570312 16 10.835938 C 16.003906 9.574219 15.292969 8.433594 14.195312 7.941406 L 14.058594 7.878906 L 14.046875 7.722656 C 13.914062 4.550781 11.5625 2.003906 8.644531 2 Z M 8.640625 3.058594 C 11.007812 3.0625 12.933594 5.125 13.046875 7.769531 L 13.046875 7.777344 L 13.09375 8.601562 L 13.800781 8.914062 C 14.53125 9.238281 15.003906 9.996094 14.992188 10.835938 C 15.003906 12.015625 14.148438 12.941406 13.125 12.941406 L 3.835938 12.941406 C 2.28125 12.941406 1 11.542969 1 9.773438 C 1 8.082031 2.183594 6.738281 3.644531 6.625 L 4.367188 6.570312 L 4.675781 5.871094 L 4.675781 5.867188 C 5.40625 4.191406 6.890625 3.0625 8.636719 3.058594 Z M 8.640625 3.058594 "/>
</g>
</svg>
