
<svg xmlns="http://www.w3.org/2000/svg" xmlns:xlink="http://www.w3.org/1999/xlink" width="16px" height="16px" viewBox="0 0 16 16" version="1.1">
<g id="surface1">
<path style=" stroke:none;fill-rule:nonzero;fill:#ff6666;fill-opacity:1;" d="M 8 0 L 8.78125 4.078125 L 11.0625 0.609375 L 10.222656 4.675781 L 13.65625 2.34375 L 11.324219 5.777344 L 15.390625 4.9375 L 11.921875 7.21875 L 16 8 L 11.921875 8.78125 L 15.390625 11.0625 L 11.324219 10.222656 L 13.65625 13.65625 L 10.222656 11.324219 L 11.0625 15.390625 L 8.78125 11.921875 L 8 16 L 7.21875 11.921875 L 4.9375 15.390625 L 5.777344 11.324219 L 2.34375 13.65625 L 4.675781 10.222656 L 0.609375 11.0625 L 4.078125 8.78125 L 0 8 L 4.078125 7.21875 L 0.609375 4.9375 L 4.675781 5.777344 L 2.34375 2.34375 L 5.777344 4.675781 L 4.9375 0.609375 L 7.21875 4.078125 Z M 8 0 "/>
</g>
</svg>
