
<svg xmlns="http://www.w3.org/2000/svg" xmlns:xlink="http://www.w3.org/1999/xlink" width="16px" height="16px" viewBox="0 0 16 16" version="1.1">
<g id="surface1">
<path style=" stroke:none;fill-rule:nonzero;fill:#ff6666;fill-opacity:1;" d="M 8.75 14.820312 C 8.480469 14.417969 8.261719 14.03125 8.261719 13.960938 C 8.261719 13.890625 8.746094 13.765625 9.332031 13.679688 C 11.238281 13.402344 12.808594 12.441406 13.222656 11.308594 C 13.847656 9.59375 12.761719 7.863281 10.8125 7.464844 C 10.480469 7.398438 10.417969 7.46875 9.953125 8.386719 C 9.308594 9.679688 8.527344 10.828125 7.6875 11.726562 C 7.085938 12.367188 7.023438 12.488281 7.105469 12.875 C 7.386719 14.195312 7.429688 14.089844 6.484375 14.480469 L 5.625 14.832031 L 5.546875 14.464844 C 5.40625 13.824219 5.320312 13.769531 4.84375 14.039062 C 3.699219 14.683594 2.234375 14.722656 1.589844 14.128906 C 0.46875 13.085938 1.003906 10.511719 2.699219 8.785156 C 3.121094 8.359375 3.804688 7.789062 4.226562 7.523438 L 4.992188 7.035156 L 5.089844 6.003906 C 5.140625 5.4375 5.140625 4.933594 5.089844 4.878906 C 5.039062 4.828125 4.300781 4.804688 3.449219 4.832031 L 1.90625 4.882812 L 1.90625 4.292969 C 1.902344 3.96875 1.867188 3.566406 1.820312 3.402344 C 1.742188 3.105469 1.757812 3.101562 3.476562 3.0625 L 5.210938 3.027344 L 5.410156 1.761719 L 5.605469 0.5 L 6.003906 0.578125 C 6.222656 0.625 6.628906 0.660156 6.902344 0.660156 L 7.402344 0.660156 L 7.289062 1.695312 C 7.226562 2.265625 7.210938 2.761719 7.25 2.800781 C 7.34375 2.894531 9.105469 2.628906 10.6875 2.285156 C 12.160156 1.964844 12.179688 1.976562 12.183594 3.042969 L 12.1875 3.734375 L 10.257812 4.089844 C 9.199219 4.285156 8.027344 4.492188 7.65625 4.546875 L 6.980469 4.652344 L 6.9375 5.445312 C 6.898438 6.234375 6.898438 6.238281 7.242188 6.152344 C 7.433594 6.105469 7.875 6.027344 8.230469 5.980469 C 9.023438 5.878906 9.179688 5.757812 9.289062 5.175781 C 9.386719 4.660156 9.40625 4.65625 10.476562 4.871094 L 11.246094 5.027344 L 11.160156 5.472656 C 11.078125 5.902344 11.09375 5.921875 11.597656 6.011719 C 13.136719 6.296875 14.691406 7.613281 15.085938 8.964844 C 15.679688 11.019531 14.894531 13.140625 13.125 14.257812 C 12.457031 14.679688 11.152344 15.203125 10.488281 15.320312 C 10.195312 15.371094 9.792969 15.445312 9.59375 15.484375 C 9.28125 15.546875 9.175781 15.464844 8.75 14.820312 Z M 3.652344 12.699219 C 3.90625 12.628906 4.355469 12.402344 4.652344 12.195312 L 5.1875 11.824219 L 5.09375 10.472656 C 5.042969 9.726562 4.96875 9.085938 4.929688 9.046875 C 4.808594 8.933594 3.464844 10.453125 3.207031 10.992188 C 2.8125 11.824219 2.746094 12.832031 3.085938 12.832031 C 3.144531 12.832031 3.402344 12.773438 3.652344 12.699219 Z M 7.375 9.417969 C 7.519531 9.175781 7.808594 8.648438 8.019531 8.25 L 8.398438 7.523438 L 7.957031 7.59375 C 7.71875 7.636719 7.351562 7.734375 7.148438 7.8125 C 6.789062 7.949219 6.777344 7.996094 6.777344 8.90625 C 6.777344 9.984375 6.949219 10.128906 7.375 9.417969 Z M 7.375 9.417969 "/>
</g>
</svg>
