
<svg xmlns="http://www.w3.org/2000/svg" xmlns:xlink="http://www.w3.org/1999/xlink" width="16px" height="16px" viewBox="0 0 16 16" version="1.1">
<g id="surface1">
<path style=" stroke:none;fill-rule:evenodd;fill:#ff6666;fill-opacity:1;" d="M 3.441406 11.710938 L 3.441406 12.945312 C 2.636719 12.929688 2.003906 12.6875 1.546875 12.222656 C 1.085938 11.757812 0.859375 11.082031 0.859375 10.195312 L 0.859375 9.46875 C 0.859375 9.203125 0.808594 8.992188 0.703125 8.839844 C 0.601562 8.6875 0.457031 8.609375 0.269531 8.609375 L 0 8.609375 L 0 7.378906 L 0.269531 7.378906 C 0.457031 7.378906 0.601562 7.296875 0.703125 7.140625 C 0.808594 6.984375 0.859375 6.777344 0.859375 6.519531 L 0.859375 5.804688 C 0.859375 4.917969 1.085938 4.246094 1.546875 3.78125 C 2.003906 3.320312 2.636719 3.078125 3.441406 3.054688 L 3.441406 4.289062 C 2.636719 4.335938 2.230469 4.769531 2.230469 5.59375 L 2.230469 6.402344 C 2.230469 6.894531 2.152344 7.265625 1.992188 7.511719 C 1.832031 7.757812 1.589844 7.921875 1.269531 8 C 1.910156 8.164062 2.230469 8.699219 2.230469 9.597656 L 2.230469 10.40625 C 2.230469 11.246094 2.636719 11.679688 3.441406 11.710938 Z M 5.945312 11.296875 C 5.765625 11.472656 5.539062 11.558594 5.273438 11.558594 C 5.007812 11.558594 4.785156 11.472656 4.605469 11.296875 C 4.425781 11.117188 4.335938 10.902344 4.335938 10.644531 C 4.335938 10.386719 4.425781 10.167969 4.605469 9.992188 C 4.785156 9.816406 5.007812 9.726562 5.273438 9.726562 C 5.539062 9.726562 5.765625 9.816406 5.945312 9.996094 C 6.125 10.175781 6.214844 10.390625 6.214844 10.644531 C 6.214844 10.902344 6.125 11.117188 5.945312 11.296875 Z M 8.671875 11.296875 C 8.488281 11.472656 8.265625 11.558594 8 11.558594 C 7.734375 11.558594 7.511719 11.472656 7.328125 11.296875 C 7.148438 11.117188 7.058594 10.902344 7.058594 10.644531 C 7.058594 10.386719 7.148438 10.167969 7.328125 9.992188 C 7.511719 9.816406 7.734375 9.726562 8 9.726562 C 8.265625 9.726562 8.488281 9.816406 8.671875 9.996094 C 8.851562 10.175781 8.941406 10.390625 8.941406 10.644531 C 8.941406 10.902344 8.851562 11.117188 8.671875 11.296875 Z M 11.394531 11.296875 C 11.214844 11.472656 10.992188 11.558594 10.726562 11.558594 C 10.460938 11.558594 10.234375 11.472656 10.054688 11.296875 C 9.875 11.117188 9.785156 10.902344 9.785156 10.644531 C 9.785156 10.386719 9.875 10.167969 10.054688 9.992188 C 10.234375 9.816406 10.460938 9.726562 10.726562 9.726562 C 10.992188 9.726562 11.214844 9.816406 11.394531 9.996094 C 11.574219 10.175781 11.664062 10.390625 11.664062 10.644531 C 11.664062 10.902344 11.574219 11.117188 11.394531 11.296875 Z M 12.558594 12.945312 L 12.558594 11.710938 C 13.371094 11.671875 13.78125 11.238281 13.78125 10.40625 L 13.78125 9.597656 C 13.78125 8.699219 14.101562 8.164062 14.742188 8 C 14.421875 7.921875 14.179688 7.757812 14.019531 7.511719 C 13.859375 7.265625 13.78125 6.894531 13.78125 6.402344 L 13.78125 5.59375 C 13.78125 4.769531 13.371094 4.335938 12.558594 4.289062 L 12.558594 3.054688 C 13.363281 3.078125 14 3.324219 14.460938 3.789062 C 14.921875 4.253906 15.152344 4.925781 15.152344 5.804688 L 15.152344 6.519531 C 15.152344 6.777344 15.203125 6.984375 15.308594 7.140625 C 15.410156 7.296875 15.554688 7.378906 15.742188 7.378906 L 16 7.378906 L 16 8.609375 L 15.742188 8.609375 C 15.554688 8.609375 15.410156 8.6875 15.308594 8.839844 C 15.203125 8.992188 15.152344 9.203125 15.152344 9.46875 L 15.152344 10.195312 C 15.152344 11.082031 14.921875 11.757812 14.460938 12.222656 C 14 12.6875 13.363281 12.929688 12.558594 12.945312 Z M 12.558594 12.945312 "/>
</g>
</svg>
