
<svg xmlns="http://www.w3.org/2000/svg" xmlns:xlink="http://www.w3.org/1999/xlink" width="16px" height="16px" viewBox="0 0 16 16" version="1.1">
<g id="surface1">
<path style=" stroke:none;fill-rule:nonzero;fill:#ff6666;fill-opacity:1;" d="M 1 3 C 0.648438 2.382812 1.371094 1.542969 1.890625 1.054688 C 2.371094 0.597656 3.085938 0.386719 3.746094 0.335938 C 4.511719 0.28125 5.320312 0.46875 5.992188 0.835938 C 6.75 1.25 7.347656 1.949219 7.824219 2.667969 C 8.398438 3.53125 8.75 4.539062 9 5.546875 C 9.191406 6.316406 9.148438 7.125 9.238281 7.910156 C 9.335938 8.742188 9.292969 9.613281 9.570312 10.40625 C 9.785156 11.015625 10.128906 11.59375 10.570312 12.070312 C 10.894531 12.421875 11.292969 12.726562 11.734375 12.902344 C 12.28125 13.121094 12.902344 13.058594 13.480469 13.152344 C 13.953125 13.226562 14.898438 13.402344 14.898438 13.402344 C 14.898438 13.402344 13.640625 14.109375 12.984375 14.402344 C 12.46875 14.628906 11.960938 14.941406 11.402344 14.984375 C 10.722656 15.03125 10.007812 14.878906 9.40625 14.566406 C 8.898438 14.304688 8.480469 13.871094 8.15625 13.402344 C 7.78125 12.859375 7.5625 12.210938 7.40625 11.570312 C 7.082031 10.210938 7.054688 7.390625 7.054688 7.390625 C 7.054688 7.390625 6.320312 8.214844 5.992188 8.660156 C 5.539062 9.269531 5.027344 9.867188 4.746094 10.574219 C 4.460938 11.28125 4.402344 12.0625 4.328125 12.820312 C 4.257812 13.542969 4.308594 15 4.308594 15 L 2.554688 15 C 2.554688 15 2.519531 13.433594 2.582031 12.652344 C 2.644531 11.835938 2.65625 10.988281 2.941406 10.222656 C 3.261719 9.367188 3.839844 8.621094 4.410156 7.910156 C 4.878906 7.328125 5.496094 6.882812 5.992188 6.328125 C 6.230469 6.0625 6.644531 5.851562 6.660156 5.496094 C 6.679688 4.996094 6.15625 4.625 5.828125 4.25 C 5.460938 3.835938 5.082031 3.386719 4.578125 3.167969 C 4.117188 2.964844 3.582031 3.027344 3.082031 3 C 2.386719 2.960938 1.34375 3.601562 1 3 Z M 1 3 "/>
</g>
</svg>
