
<svg xmlns="http://www.w3.org/2000/svg" xmlns:xlink="http://www.w3.org/1999/xlink" width="16px" height="16px" viewBox="0 0 16 16" version="1.1">
<g id="surface1">
<path style=" stroke:none;fill-rule:nonzero;fill:#ff6666;fill-opacity:1;" d="M 8 0 C 7.617188 0 7.230469 0.015625 6.988281 0.0507812 C 4.035156 0.472656 2.292969 1.902344 1.945312 4.183594 C 1.90625 4.433594 1.894531 4.882812 1.890625 6.59375 L 1.882812 8.632812 L 1.96875 8.765625 C 2.179688 9.101562 2.472656 9.335938 3.859375 10.292969 C 6.183594 11.890625 7.136719 12.476562 7.722656 12.652344 C 7.816406 12.683594 7.945312 12.703125 8.007812 12.707031 C 8.398438 12.710938 9.539062 12.074219 11.265625 10.890625 C 13.417969 9.414062 13.820312 9.109375 14.027344 8.773438 L 14.117188 8.632812 L 14.117188 6.949219 C 14.117188 4.761719 14.101562 4.375 14 3.902344 C 13.816406 3.066406 13.480469 2.40625 12.945312 1.828125 C 12.089844 0.90625 10.75 0.300781 9.011719 0.0507812 C 8.769531 0.015625 8.382812 0 8 0 Z M 8 2.824219 C 9.882812 2.824219 10.792969 3.933594 11.21875 5.292969 C 11.292969 5.53125 11.292969 5.539062 11.292969 6.515625 C 11.292969 7.054688 11.285156 7.507812 11.273438 7.515625 C 11.265625 7.527344 9.796875 7.53125 8 7.527344 C 6.203125 7.53125 4.734375 7.527344 4.726562 7.515625 C 4.714844 7.507812 4.707031 7.054688 4.707031 6.515625 C 4.707031 5.539062 4.707031 5.53125 4.78125 5.292969 C 5.207031 3.933594 6.117188 2.824219 8 2.824219 Z M 14.117188 10.042969 L 14.027344 10.183594 C 13.820312 10.519531 13.417969 10.824219 11.265625 12.304688 C 9.539062 13.488281 8.398438 14.121094 8.007812 14.117188 C 7.945312 14.117188 7.816406 14.09375 7.722656 14.066406 C 7.136719 13.886719 6.183594 13.304688 3.859375 11.703125 C 2.472656 10.746094 2.179688 10.511719 1.96875 10.175781 L 1.882812 10.046875 C 1.882812 10.113281 1.882812 10.394531 1.882812 10.425781 C 1.882812 10.433594 1.882812 10.4375 1.882812 10.449219 L 1.882812 13.554688 C 1.882812 13.582031 1.890625 13.609375 1.890625 13.636719 L 1.898438 15.460938 L 1.988281 15.632812 C 2.058594 15.761719 2.117188 15.820312 2.230469 15.886719 L 2.382812 15.972656 L 4.820312 15.988281 C 6.160156 15.996094 8.667969 16 10.394531 16 L 13.535156 15.996094 L 13.6875 15.933594 C 13.882812 15.851562 13.941406 15.804688 14.03125 15.636719 L 14.101562 15.5 L 14.105469 13.679688 C 14.109375 13.636719 14.117188 13.597656 14.117188 13.554688 L 14.117188 10.449219 C 14.117188 10.441406 14.117188 10.4375 14.117188 10.429688 Z M 14.117188 10.042969 "/>
</g>
</svg>
