
<svg xmlns="http://www.w3.org/2000/svg" xmlns:xlink="http://www.w3.org/1999/xlink" width="16px" height="16px" viewBox="0 0 16 16" version="1.1">
<g id="surface1">
<path style=" stroke:none;fill-rule:evenodd;fill:#ff6666;fill-opacity:1;" d="M 5.09375 9.878906 C 4.875 9.417969 4.75 8.921875 4.714844 8.425781 C 4.648438 7.722656 4.753906 7.003906 5.039062 6.34375 C 4.789062 6.433594 4.539062 6.527344 4.300781 6.621094 C 3.414062 6.980469 2.628906 7.410156 2.175781 7.769531 C 1.984375 7.921875 1.890625 8.03125 1.835938 8.105469 C 1.890625 8.175781 1.984375 8.285156 2.175781 8.4375 C 2.628906 8.800781 3.414062 9.226562 4.300781 9.585938 C 4.554688 9.6875 4.824219 9.785156 5.09375 9.878906 Z M 7.644531 12.359375 C 10.109375 13.96875 14.050781 15.660156 15.371094 14.34375 C 16.4375 13.277344 15.535156 10.5 14.296875 8.171875 C 15.621094 5.765625 16.640625 2.78125 15.519531 1.664062 C 14.125 0.265625 9.824219 2.203125 7.371094 3.890625 C 4.40625 4.453125 0 6.125 0 8.105469 C 0 10.148438 4.707031 11.867188 7.644531 12.359375 Z M 12.636719 10.726562 C 12.828125 10.480469 13.027344 10.214844 13.230469 9.921875 C 13.296875 10.054688 13.355469 10.1875 13.410156 10.320312 C 13.777344 11.183594 14.027344 12.03125 14.089844 12.59375 C 14.117188 12.835938 14.105469 12.976562 14.09375 13.066406 C 14.007812 13.078125 13.867188 13.089844 13.625 13.0625 C 13.058594 12.996094 12.214844 12.746094 11.347656 12.382812 C 11.175781 12.308594 11 12.226562 10.824219 12.148438 C 11.554688 11.851562 12.179688 11.355469 12.636719 10.726562 Z M 8.308594 10.679688 C 7.773438 10.335938 7.386719 10.039062 7.195312 9.847656 C 6.164062 8.816406 6.164062 7.195312 7.195312 6.167969 C 7.476562 5.886719 7.800781 5.683594 8.144531 5.5625 C 8.542969 5.496094 8.890625 5.460938 9.105469 5.460938 C 9.554688 5.460938 9.972656 5.566406 10.339844 5.753906 C 10.53125 5.863281 10.710938 6.003906 10.875 6.167969 C 11.023438 6.3125 11.230469 6.570312 11.488281 6.949219 C 11.65625 7.292969 11.75 7.6875 11.75 8.105469 C 11.75 9.585938 10.585938 10.746094 9.105469 10.746094 C 8.914062 10.746094 8.617188 10.71875 8.308594 10.679688 Z M 13.007812 6.046875 C 13.058594 6.113281 13.113281 6.191406 13.167969 6.269531 C 13.300781 5.980469 13.421875 5.710938 13.53125 5.449219 C 13.902344 4.574219 14.15625 3.714844 14.222656 3.144531 C 14.25 2.898438 14.238281 2.753906 14.226562 2.664062 C 14.136719 2.652344 13.992188 2.640625 13.75 2.671875 C 13.175781 2.734375 12.316406 2.988281 11.441406 3.359375 C 11.085938 3.511719 10.71875 3.6875 10.367188 3.878906 C 10.441406 3.902344 10.519531 3.929688 10.589844 3.960938 C 10.703125 4 10.8125 4.046875 10.917969 4.101562 C 11.347656 4.304688 11.746094 4.585938 12.101562 4.941406 C 12.371094 5.210938 12.683594 5.589844 13.007812 6.046875 Z M 13.007812 6.046875 "/>
</g>
</svg>
