
<svg xmlns="http://www.w3.org/2000/svg" xmlns:xlink="http://www.w3.org/1999/xlink" width="16px" height="16px" viewBox="0 0 16 16" version="1.1">
<g id="surface1">
<path style=" stroke:none;fill-rule:nonzero;fill:#ff6666;fill-opacity:1;" d="M 6.453125 11.765625 C 6.269531 11.710938 6.085938 11.648438 5.902344 11.574219 C 5.664062 11.480469 5.441406 11.347656 5.242188 11.179688 C 5.125 11.078125 5.035156 10.957031 4.96875 10.820312 C 4.902344 10.65625 4.863281 10.484375 4.859375 10.3125 L 4.855469 10.214844 C 4.859375 10.078125 4.867188 9.945312 4.886719 9.8125 C 4.910156 9.636719 4.945312 9.460938 4.984375 9.285156 C 5.097656 8.835938 5.21875 8.390625 5.355469 7.945312 C 5.488281 7.488281 5.617188 7.027344 5.738281 6.570312 C 5.769531 6.464844 5.804688 6.355469 5.847656 6.253906 C 5.902344 6.109375 5.953125 5.964844 5.996094 5.8125 C 6.0625 5.609375 6.101562 5.390625 6.105469 5.175781 C 6.113281 4.867188 6.035156 4.558594 5.867188 4.292969 C 5.679688 4.007812 5.402344 3.789062 5.082031 3.679688 C 4.632812 3.515625 4.15625 3.429688 3.679688 3.425781 C 3.300781 3.429688 2.921875 3.484375 2.554688 3.582031 C 2.277344 3.664062 2.007812 3.753906 1.738281 3.863281 C 1.636719 3.898438 1.539062 3.9375 1.433594 3.972656 L 2.191406 6.128906 C 2.320312 6.085938 2.445312 6.035156 2.570312 5.988281 C 2.769531 5.910156 2.972656 5.84375 3.175781 5.78125 C 3.316406 5.746094 3.464844 5.71875 3.613281 5.714844 L 3.53125 5.972656 C 3.417969 6.410156 3.296875 6.851562 3.164062 7.289062 C 3.019531 7.773438 2.882812 8.261719 2.765625 8.757812 C 2.707031 8.992188 2.660156 9.238281 2.625 9.480469 C 2.589844 9.722656 2.570312 9.96875 2.570312 10.210938 C 2.570312 10.222656 2.570312 10.230469 2.570312 10.242188 L 2.570312 10.355469 C 2.570312 10.359375 2.570312 10.363281 2.570312 10.367188 C 2.585938 10.84375 2.6875 11.3125 2.882812 11.753906 C 3.085938 12.203125 3.386719 12.601562 3.761719 12.921875 C 4.148438 13.25 4.585938 13.511719 5.0625 13.695312 C 5.335938 13.808594 5.617188 13.902344 5.898438 13.984375 L 5.394531 16 L 7.75 16 L 8.183594 14.269531 C 8.839844 14.230469 9.488281 14.085938 10.105469 13.84375 C 10.753906 13.582031 11.359375 13.226562 11.90625 12.78125 C 12.398438 12.390625 12.839844 11.929688 13.210938 11.421875 C 13.378906 11.191406 13.53125 10.949219 13.664062 10.695312 C 13.789062 10.472656 13.890625 10.234375 13.96875 9.992188 C 14.222656 9.339844 14.390625 8.664062 14.46875 7.972656 C 14.539062 7.296875 14.570312 6.621094 14.5625 5.941406 C 14.5625 5.726562 14.5625 5.511719 14.5625 5.292969 C 14.558594 5.050781 14.558594 4.8125 14.558594 4.570312 L 12.273438 4.570312 C 12.273438 4.816406 12.273438 5.066406 12.273438 5.3125 C 12.273438 5.527344 12.277344 5.746094 12.277344 5.964844 C 12.285156 6.550781 12.261719 7.132812 12.199219 7.71875 C 12.136719 8.234375 12.007812 8.738281 11.816406 9.21875 C 11.773438 9.355469 11.722656 9.492188 11.652344 9.617188 C 11.566406 9.773438 11.472656 9.925781 11.367188 10.070312 C 11.109375 10.421875 10.808594 10.734375 10.46875 11.007812 C 10.105469 11.304688 9.691406 11.546875 9.253906 11.71875 C 9.101562 11.78125 8.941406 11.835938 8.78125 11.875 L 11.75 0 L 9.394531 0 Z M 6.453125 11.765625 "/>
</g>
</svg>
