
<svg xmlns="http://www.w3.org/2000/svg" xmlns:xlink="http://www.w3.org/1999/xlink" width="16px" height="16px" viewBox="0 0 16 16" version="1.1">
<g id="surface1">
<path style=" stroke:none;fill-rule:evenodd;fill:#ff6666;fill-opacity:1;" d="M 1.46875 11.378906 L 0 11.378906 L 0 4.621094 L 2.992188 4.621094 C 3.796875 4.621094 4.390625 4.828125 4.773438 5.246094 C 5.15625 5.667969 5.347656 6.183594 5.347656 6.792969 C 5.347656 7.058594 5.304688 7.3125 5.214844 7.5625 C 5.125 7.808594 4.988281 8.039062 4.808594 8.25 C 4.628906 8.464844 4.378906 8.632812 4.066406 8.761719 C 3.75 8.890625 3.390625 8.957031 2.992188 8.957031 L 1.46875 8.957031 Z M 1.46875 7.574219 L 3.050781 7.574219 C 3.308594 7.574219 3.503906 7.496094 3.632812 7.34375 C 3.757812 7.1875 3.824219 7.003906 3.824219 6.792969 C 3.824219 6.585938 3.761719 6.40625 3.640625 6.246094 C 3.519531 6.089844 3.320312 6.011719 3.050781 6.011719 L 1.46875 6.011719 Z M 7.3125 11.253906 C 7.144531 11.414062 6.9375 11.496094 6.691406 11.496094 C 6.449219 11.496094 6.242188 11.414062 6.078125 11.253906 C 5.914062 11.09375 5.832031 10.894531 5.832031 10.65625 C 5.832031 10.417969 5.914062 10.214844 6.078125 10.046875 C 6.242188 9.878906 6.449219 9.796875 6.691406 9.796875 C 6.9375 9.796875 7.144531 9.878906 7.3125 10.046875 C 7.484375 10.214844 7.570312 10.417969 7.570312 10.65625 C 7.570312 10.894531 7.484375 11.09375 7.3125 11.253906 Z M 10.96875 11.496094 C 10.3125 11.496094 9.746094 11.320312 9.273438 10.96875 C 8.800781 10.617188 8.460938 10.132812 8.257812 9.515625 L 9.570312 9.023438 C 9.722656 9.351562 9.925781 9.613281 10.175781 9.808594 C 10.429688 10.007812 10.707031 10.105469 11.007812 10.105469 C 11.324219 10.105469 11.570312 10.046875 11.75 9.925781 C 11.933594 9.808594 12.023438 9.636719 12.023438 9.410156 C 12.023438 9.261719 11.957031 9.128906 11.824219 9.015625 C 11.691406 8.898438 11.554688 8.8125 11.410156 8.757812 C 11.261719 8.703125 11.039062 8.628906 10.738281 8.53125 C 10.539062 8.46875 10.386719 8.417969 10.289062 8.382812 C 10.1875 8.34375 10.046875 8.289062 9.859375 8.210938 C 9.671875 8.136719 9.53125 8.066406 9.433594 8 C 9.335938 7.933594 9.222656 7.847656 9.085938 7.738281 C 8.953125 7.628906 8.851562 7.515625 8.78125 7.394531 C 8.714844 7.277344 8.65625 7.132812 8.605469 6.960938 C 8.550781 6.792969 8.527344 6.609375 8.527344 6.414062 C 8.527344 5.875 8.738281 5.421875 9.164062 5.054688 C 9.589844 4.6875 10.164062 4.503906 10.890625 4.503906 C 11.496094 4.503906 12.007812 4.664062 12.417969 4.976562 C 12.828125 5.292969 13.101562 5.699219 13.238281 6.195312 L 11.925781 6.617188 C 11.714844 6.136719 11.34375 5.894531 10.816406 5.894531 C 10.269531 5.894531 9.992188 6.078125 9.992188 6.445312 C 9.992188 6.527344 10.019531 6.601562 10.070312 6.667969 C 10.121094 6.730469 10.214844 6.796875 10.351562 6.859375 C 10.488281 6.925781 10.597656 6.972656 10.683594 7.003906 C 10.769531 7.039062 10.925781 7.09375 11.144531 7.171875 C 11.375 7.246094 11.554688 7.308594 11.679688 7.351562 C 11.804688 7.398438 11.976562 7.46875 12.195312 7.5625 C 12.414062 7.65625 12.585938 7.753906 12.710938 7.859375 C 12.835938 7.964844 12.96875 8.09375 13.101562 8.242188 C 13.238281 8.390625 13.335938 8.5625 13.398438 8.761719 C 13.457031 8.960938 13.488281 9.179688 13.488281 9.417969 C 13.488281 10.054688 13.25 10.5625 12.773438 10.933594 C 12.296875 11.308594 11.695312 11.496094 10.96875 11.496094 Z M 15.742188 11.253906 C 15.574219 11.414062 15.367188 11.496094 15.121094 11.496094 C 14.875 11.496094 14.671875 11.414062 14.507812 11.253906 C 14.34375 11.09375 14.261719 10.894531 14.261719 10.65625 C 14.261719 10.417969 14.34375 10.214844 14.507812 10.046875 C 14.671875 9.878906 14.875 9.796875 15.121094 9.796875 C 15.367188 9.796875 15.574219 9.878906 15.742188 10.046875 C 15.914062 10.214844 16 10.417969 16 10.65625 C 16 10.894531 15.914062 11.09375 15.742188 11.253906 Z M 15.742188 11.253906 "/>
</g>
</svg>
