
<svg xmlns="http://www.w3.org/2000/svg" xmlns:xlink="http://www.w3.org/1999/xlink" width="16px" height="16px" viewBox="0 0 16 16" version="1.1">
<g id="surface1">
<path style=" stroke:none;fill-rule:evenodd;fill:#ff6666;fill-opacity:1;" d="M 2.183594 1.453125 C 1.578125 1.453125 1.089844 1.941406 1.089844 2.546875 L 1.089844 13.453125 C 1.089844 14.058594 1.578125 14.546875 2.183594 14.546875 C 2.785156 14.546875 3.273438 14.058594 3.273438 13.453125 L 3.273438 2.546875 C 3.273438 1.941406 2.785156 1.453125 2.183594 1.453125 Z M 13.816406 1.453125 C 13.214844 1.453125 12.726562 1.941406 12.726562 2.546875 L 12.726562 13.453125 C 12.726562 14.058594 13.214844 14.546875 13.816406 14.546875 C 14.421875 14.546875 14.910156 14.058594 14.910156 13.453125 L 14.910156 2.546875 C 14.910156 1.941406 14.421875 1.453125 13.816406 1.453125 Z M 8 1.453125 C 7.394531 1.453125 6.910156 1.941406 6.910156 2.546875 L 6.910156 13.453125 C 6.910156 14.058594 7.394531 14.546875 8 14.546875 C 8.605469 14.546875 9.089844 14.058594 9.089844 13.453125 L 9.089844 2.546875 C 9.089844 1.941406 8.605469 1.453125 8 1.453125 Z M 8 1.453125 "/>
<path style=" stroke:none;fill-rule:nonzero;fill:#ff6666;fill-opacity:1;" d="M 16 7.273438 C 16 8.476562 15.023438 9.453125 13.816406 9.453125 C 12.613281 9.453125 11.636719 8.476562 11.636719 7.273438 C 11.636719 6.066406 12.613281 5.089844 13.816406 5.089844 C 15.023438 5.089844 16 6.066406 16 7.273438 Z M 16 7.273438 "/>
<path style=" stroke:none;fill-rule:evenodd;fill:#ff6666;fill-opacity:1;" d="M 13.816406 8.070312 C 13.214844 8.070312 12.726562 8.558594 12.726562 9.160156 L 12.726562 13.453125 C 12.726562 14.058594 13.214844 14.546875 13.816406 14.546875 C 14.421875 14.546875 14.910156 14.058594 14.910156 13.453125 L 14.910156 9.160156 C 14.910156 8.558594 14.421875 8.070312 13.816406 8.070312 Z M 1.089844 6.992188 L 1.089844 13.453125 C 1.089844 14.058594 1.578125 14.546875 2.183594 14.546875 C 2.785156 14.546875 3.273438 14.058594 3.273438 13.453125 L 3.273438 7.03125 C 3.941406 6.65625 4.394531 5.941406 4.394531 5.121094 C 4.394531 3.917969 3.417969 2.941406 2.214844 2.941406 C 1.007812 2.941406 0.03125 3.917969 0.03125 5.121094 C 0.03125 5.917969 0.457031 6.613281 1.089844 6.992188 Z M 6.910156 12.070312 L 6.910156 13.453125 C 6.910156 14.058594 7.394531 14.546875 8 14.546875 C 8.605469 14.546875 9.089844 14.058594 9.089844 13.453125 L 9.089844 12.070312 C 9.742188 11.695312 10.183594 10.988281 10.183594 10.183594 C 10.183594 8.976562 9.203125 8 8 8 C 6.796875 8 5.816406 8.976562 5.816406 10.183594 C 5.816406 10.988281 6.257812 11.695312 6.910156 12.070312 Z M 6.910156 12.070312 "/>
</g>
</svg>
