
<svg xmlns="http://www.w3.org/2000/svg" xmlns:xlink="http://www.w3.org/1999/xlink" width="16px" height="16px" viewBox="0 0 16 16" version="1.1">
<g id="surface1">
<path style=" stroke:none;fill-rule:nonzero;fill:#ff6666;fill-opacity:1;" d="M 8 4 C 5.792969 4 4 5.792969 4 8 C 4 10.207031 5.792969 12 8 12 C 10.207031 12 12 10.207031 12 8 C 12 5.792969 10.207031 4 8 4 Z M 8 0 C 3.585938 0 0 3.585938 0 8 C 0 12.414062 3.585938 16 8 16 C 12.414062 16 16 12.414062 16 8 C 16 3.585938 12.414062 0 8 0 Z M 8 14.398438 C 4.464844 14.398438 1.601562 11.535156 1.601562 8 C 1.601562 4.464844 4.464844 1.601562 8 1.601562 C 11.535156 1.601562 14.398438 4.464844 14.398438 8 C 14.398438 11.535156 11.535156 14.398438 8 14.398438 Z M 8 14.398438 "/>
</g>
</svg>
