
<svg xmlns="http://www.w3.org/2000/svg" xmlns:xlink="http://www.w3.org/1999/xlink" width="16px" height="16px" viewBox="0 0 16 16" version="1.1">
<g id="surface1">
<path style=" stroke:none;fill-rule:evenodd;fill:#ff6666;fill-opacity:1;" d="M 0.628906 2.824219 L 3.136719 2.824219 C 3.484375 2.824219 3.765625 3.078125 3.765625 3.398438 L 3.765625 12.601562 C 3.765625 12.917969 3.484375 13.175781 3.136719 13.175781 L 0.628906 13.175781 C 0.28125 13.175781 0 12.917969 0 12.601562 L 0 3.398438 C 0 3.078125 0.28125 2.824219 0.628906 2.824219 Z M 5.296875 2.824219 C 4.96875 2.824219 4.707031 3.078125 4.707031 3.398438 L 4.707031 12.597656 C 4.707031 12.914062 4.96875 13.175781 5.296875 13.175781 C 7.082031 13.175781 8.863281 13.175781 10.648438 13.175781 C 13.605469 13.175781 16 10.859375 16 8 C 16 5.140625 13.605469 2.824219 10.648438 2.824219 Z M 5.296875 2.824219 "/>
</g>
</svg>
