
<svg xmlns="http://www.w3.org/2000/svg" xmlns:xlink="http://www.w3.org/1999/xlink" width="16px" height="16px" viewBox="0 0 16 16" version="1.1">
<g id="surface1">
<path style=" stroke:none;fill-rule:nonzero;fill:#ff6666;fill-opacity:1;" d="M 0 2.285156 L 0 6.09375 L 1.144531 6.09375 L 1.144531 2.285156 Z M 4.191406 5.714844 C 3.558594 5.714844 3.046875 6.226562 3.046875 6.855469 C 3.046875 7.488281 3.558594 8 4.191406 8 C 4.820312 8 5.332031 7.488281 5.332031 6.855469 C 5.332031 6.226562 4.820312 5.714844 4.191406 5.714844 Z M 7.238281 8.382812 L 7.238281 9.523438 L 11.046875 9.523438 L 11.046875 8.382812 Z M 12.191406 8.382812 L 12.191406 9.523438 L 16 9.523438 L 16 8.382812 Z M 4.179688 9.898438 C 3.878906 9.898438 3.59375 10.019531 3.378906 10.230469 C 3.167969 10.445312 3.046875 10.734375 3.046875 11.03125 C 3.046875 11.519531 3.355469 11.949219 3.816406 12.105469 L 3.441406 13.714844 L 4.277344 13.714844 C 4.816406 12.851562 5.453125 12.09375 5.316406 11.03125 C 5.316406 10.734375 5.195312 10.445312 4.984375 10.230469 C 4.769531 10.019531 4.480469 9.898438 4.179688 9.898438 Z M 4.179688 9.898438 "/>
</g>
</svg>
