
<svg xmlns="http://www.w3.org/2000/svg" xmlns:xlink="http://www.w3.org/1999/xlink" width="16px" height="16px" viewBox="0 0 16 16" version="1.1">
<g id="surface1">
<path style=" stroke:none;fill-rule:evenodd;fill:#ff6666;fill-opacity:1;" d="M -0.03125 12.5 L 15.96875 12.5 L 15.96875 14.5 L -0.03125 14.5 Z M 2.394531 5.507812 L 4.578125 5.507812 C 5.011719 5.507812 5.339844 5.378906 5.550781 5.125 C 5.765625 4.871094 5.871094 4.570312 5.871094 4.226562 C 5.871094 3.894531 5.769531 3.601562 5.570312 3.34375 C 5.367188 3.082031 5.039062 2.953125 4.578125 2.953125 L 2.394531 2.953125 Z M 12.0625 10.328125 C 11.546875 10.328125 11.078125 10.242188 10.65625 10.070312 C 10.238281 9.898438 9.894531 9.667969 9.628906 9.378906 C 9.359375 9.09375 9.136719 8.75 8.957031 8.355469 C 8.773438 7.960938 8.644531 7.558594 8.566406 7.148438 C 8.488281 6.738281 8.449219 6.308594 8.449219 5.863281 C 8.449219 5.339844 8.515625 4.824219 8.648438 4.324219 C 8.78125 3.820312 8.980469 3.347656 9.253906 2.898438 C 9.523438 2.449219 9.902344 2.089844 10.386719 1.8125 C 10.871094 1.539062 11.429688 1.398438 12.0625 1.398438 C 12.828125 1.398438 13.46875 1.578125 13.988281 1.9375 C 14.507812 2.292969 14.867188 2.726562 15.074219 3.238281 L 13.742188 3.84375 C 13.511719 3.488281 13.269531 3.230469 13.019531 3.066406 C 12.769531 2.898438 12.449219 2.816406 12.0625 2.816406 C 11.6875 2.816406 11.355469 2.910156 11.070312 3.097656 C 10.789062 3.28125 10.570312 3.527344 10.417969 3.835938 C 10.265625 4.144531 10.152344 4.46875 10.085938 4.808594 C 10.015625 5.152344 9.980469 5.503906 9.980469 5.863281 C 9.980469 6.671875 10.160156 7.378906 10.515625 7.984375 C 10.875 8.59375 11.390625 8.898438 12.0625 8.898438 C 12.722656 8.898438 13.273438 8.527344 13.71875 7.789062 L 15.085938 8.308594 C 14.484375 9.65625 13.480469 10.328125 12.0625 10.328125 Z M 2.394531 10.183594 L 0.914062 10.183594 L 0.914062 1.546875 L 4.503906 1.546875 C 5.5 1.546875 6.230469 1.808594 6.699219 2.324219 C 7.167969 2.84375 7.402344 3.476562 7.402344 4.226562 C 7.402344 4.933594 7.15625 5.554688 6.667969 6.097656 C 6.179688 6.640625 5.457031 6.914062 4.503906 6.914062 L 2.394531 6.914062 Z M 2.394531 10.183594 "/>
</g>
</svg>
