
<svg xmlns="http://www.w3.org/2000/svg" xmlns:xlink="http://www.w3.org/1999/xlink" width="16px" height="16px" viewBox="0 0 16 16" version="1.1">
<g id="surface1">
<path style=" stroke:none;fill-rule:evenodd;fill:#ff6666;fill-opacity:1;" d="M -0.03125 12.5 L 15.96875 12.5 L 15.96875 14.5 L -0.03125 14.5 Z M -0.03125 12.5 "/>
<path style=" stroke:none;fill-rule:evenodd;fill:#ff6666;fill-opacity:1;" d="M 2.425781 10.328125 L 0.894531 10.328125 L 0.894531 1.398438 L 4.605469 1.398438 C 5.636719 1.398438 6.390625 1.667969 6.878906 2.203125 C 7.363281 2.738281 7.605469 3.394531 7.605469 4.167969 C 7.605469 4.898438 7.351562 5.546875 6.84375 6.105469 C 6.339844 6.667969 5.59375 6.949219 4.605469 6.949219 L 2.425781 6.949219 Z M 2.425781 5.496094 L 4.683594 5.496094 C 5.132812 5.496094 5.46875 5.363281 5.691406 5.101562 C 5.914062 4.835938 6.023438 4.523438 6.023438 4.167969 C 6.023438 3.828125 5.917969 3.523438 5.710938 3.257812 C 5.503906 2.988281 5.160156 2.855469 4.683594 2.855469 L 2.425781 2.855469 Z M 15.105469 10.328125 L 9.007812 10.328125 L 9.007812 1.398438 L 14.824219 1.398438 L 14.824219 2.84375 L 10.539062 2.84375 L 10.539062 4.996094 L 13.179688 4.996094 L 13.179688 6.4375 L 10.539062 6.4375 L 10.539062 8.886719 L 15.105469 8.886719 Z M 15.105469 10.328125 "/>
</g>
</svg>
