
<svg xmlns="http://www.w3.org/2000/svg" xmlns:xlink="http://www.w3.org/1999/xlink" width="16px" height="16px" viewBox="0 0 16 16" version="1.1">
<g id="surface1">
<path style=" stroke:none;fill-rule:nonzero;fill:#ff6666;fill-opacity:1;" d="M 7.867188 6.675781 C 7.945312 6.671875 8.023438 6.667969 8.101562 6.667969 C 8.820312 6.667969 9.472656 6.953125 9.949219 7.414062 L 10.1875 7.257812 C 10.132812 7.070312 10.101562 6.871094 10.101562 6.667969 C 10.101562 5.5625 10.996094 4.667969 12.101562 4.667969 C 13.203125 4.667969 14.101562 5.5625 14.101562 6.667969 C 14.101562 7.769531 13.203125 8.667969 12.101562 8.667969 C 11.640625 8.667969 11.21875 8.511719 10.882812 8.253906 L 10.609375 8.433594 C 10.710938 8.714844 10.765625 9.015625 10.765625 9.332031 C 10.765625 9.824219 10.632812 10.28125 10.402344 10.675781 L 11.742188 11.769531 C 12.125 11.496094 12.59375 11.332031 13.101562 11.332031 C 14.386719 11.332031 15.433594 12.378906 15.433594 13.667969 C 15.433594 14.953125 14.386719 16 13.101562 16 C 11.8125 16 10.765625 14.953125 10.765625 13.667969 C 10.765625 13.324219 10.839844 13 10.972656 12.710938 L 9.566406 11.558594 C 9.144531 11.839844 8.640625 12 8.101562 12 C 7.460938 12 6.875 11.773438 6.414062 11.398438 L 4.640625 12.710938 C 4.722656 12.9375 4.765625 13.179688 4.765625 13.433594 C 4.765625 14.59375 3.824219 15.53125 2.667969 15.53125 C 1.507812 15.53125 0.566406 14.59375 0.566406 13.433594 C 0.566406 12.273438 1.507812 11.332031 2.667969 11.332031 C 3.132812 11.332031 3.5625 11.484375 3.910156 11.742188 L 5.671875 10.441406 C 5.519531 10.101562 5.433594 9.726562 5.433594 9.332031 C 5.433594 8.457031 5.859375 7.675781 6.511719 7.191406 L 5.414062 4.644531 C 5.3125 4.660156 5.207031 4.667969 5.101562 4.667969 C 3.8125 4.667969 2.765625 3.621094 2.765625 2.332031 C 2.765625 1.046875 3.8125 0 5.101562 0 C 6.386719 0 7.433594 1.046875 7.433594 2.332031 C 7.433594 3.007812 7.148438 3.613281 6.691406 4.039062 Z M 7.867188 6.675781 "/>
</g>
</svg>
