
<svg xmlns="http://www.w3.org/2000/svg" xmlns:xlink="http://www.w3.org/1999/xlink" width="16px" height="16px" viewBox="0 0 16 16" version="1.1">
<g id="surface1">
<path style=" stroke:none;fill-rule:nonzero;fill:#ff6666;fill-opacity:1;" d="M 6.382812 2 L 2 13 L 3.359375 13 L 4.546875 10 L 9.476562 10 L 10.625 13 L 12 13 L 7.75 2 Z M 11 2 L 11 7 L 13.5 7 C 14.328125 7 15 6.328125 15 5.5 C 15 4.964844 14.730469 4.484375 14.3125 4.21875 C 14.429688 4.007812 14.5 3.757812 14.5 3.5 C 14.5 2.671875 13.828125 2 13 2 Z M 12 3 L 13 3 C 13.277344 3 13.5 3.222656 13.5 3.5 C 13.5 3.777344 13.277344 4 13 4 L 12 4 Z M 7.0625 3.328125 C 7.175781 3.703125 7.773438 5.410156 8.859375 8.445312 L 9.085938 9 L 4.941406 9 Z M 12 5 L 13.5 5 C 13.777344 5 14 5.222656 14 5.5 C 14 5.777344 13.777344 6 13.5 6 L 12 6 Z M 12 5 "/>
</g>
</svg>
