
<svg xmlns="http://www.w3.org/2000/svg" xmlns:xlink="http://www.w3.org/1999/xlink" width="16px" height="16px" viewBox="0 0 16 16" version="1.1">
<g id="surface1">
<path style=" stroke:none;fill-rule:nonzero;fill:#ff6666;fill-opacity:1;" d="M 7.722656 0 C 5.890625 0 4.414062 0.738281 4.414062 1.65625 L 4.414062 3.863281 L 7.722656 3.863281 L 7.722656 4.414062 L 1.65625 4.414062 C 0.738281 4.414062 0 5.890625 0 7.722656 L 0 8.277344 C 0 10.109375 0.738281 11.585938 1.65625 11.585938 L 3.863281 11.585938 L 3.863281 9.929688 C 3.863281 9.929688 3.863281 7.722656 6.070312 7.722656 L 10.484375 7.722656 C 10.484375 7.722656 11.585938 7.722656 11.585938 6.621094 L 11.585938 1.65625 C 11.585938 0.738281 10.109375 0 8.277344 0 Z M 6.070312 1.101562 C 6.375 1.101562 6.621094 1.351562 6.621094 1.65625 C 6.621094 1.960938 6.375 2.207031 6.070312 2.207031 C 5.765625 2.207031 5.515625 1.960938 5.515625 1.65625 C 5.515625 1.351562 5.765625 1.101562 6.070312 1.101562 Z M 6.070312 1.101562 "/>
<path style=" stroke:none;fill-rule:nonzero;fill:#ff6666;fill-opacity:1;" d="M 8.277344 16 C 10.109375 16 11.585938 15.261719 11.585938 14.34375 L 11.585938 12.136719 L 8.277344 12.136719 L 8.277344 11.585938 L 14.34375 11.585938 C 15.261719 11.585938 16 10.109375 16 8.277344 L 16 7.722656 C 16 5.890625 15.261719 4.414062 14.34375 4.414062 L 12.136719 4.414062 L 12.136719 6.621094 C 12.136719 8.277344 10.484375 8.277344 10.484375 8.277344 L 6.070312 8.277344 C 4.414062 8.277344 4.414062 9.929688 4.414062 9.929688 L 4.414062 14.34375 C 4.414062 15.261719 5.890625 16 7.722656 16 Z M 9.929688 14.34375 C 9.625 14.34375 9.378906 14.097656 9.378906 13.792969 C 9.378906 13.488281 9.625 13.242188 9.929688 13.242188 C 10.234375 13.242188 10.484375 13.488281 10.484375 13.792969 C 10.484375 14.097656 10.234375 14.34375 9.929688 14.34375 Z M 9.929688 14.34375 "/>
</g>
</svg>
