
<svg xmlns="http://www.w3.org/2000/svg" xmlns:xlink="http://www.w3.org/1999/xlink" width="16px" height="16px" viewBox="0 0 16 16" version="1.1">
<g id="surface1">
<path style=" stroke:none;fill-rule:evenodd;fill:#ff6666;fill-opacity:1;" d="M 8.839844 8.679688 L 10.957031 8.679688 C 11.34375 8.679688 11.660156 8.992188 11.660156 9.382812 L 11.660156 13.125 C 11.660156 13.515625 11.34375 13.832031 10.957031 13.832031 L 8.839844 13.832031 C 8.453125 13.832031 8.136719 13.515625 8.136719 13.125 L 8.136719 9.382812 C 8.136719 8.992188 8.453125 8.679688 8.839844 8.679688 Z M 13.179688 8.679688 L 15.296875 8.679688 C 15.683594 8.679688 16 8.992188 16 9.382812 L 16 13.125 C 16 13.515625 15.683594 13.832031 15.296875 13.832031 L 13.179688 13.832031 C 12.789062 13.832031 12.476562 13.515625 12.476562 13.125 L 12.476562 9.382812 C 12.476562 8.992188 12.789062 8.679688 13.179688 8.679688 Z M 9.476562 5.355469 L 10.355469 4.480469 L 9.476562 3.609375 C 9.425781 3.558594 9.394531 3.488281 9.394531 3.414062 C 9.394531 3.339844 9.425781 3.269531 9.476562 3.21875 C 9.527344 3.167969 9.597656 3.136719 9.671875 3.136719 C 9.746094 3.136719 9.8125 3.167969 9.867188 3.21875 L 11.136719 4.480469 L 9.867188 5.742188 C 9.8125 5.796875 9.746094 5.824219 9.671875 5.824219 C 9.597656 5.824219 9.527344 5.796875 9.476562 5.742188 C 9.425781 5.691406 9.394531 5.621094 9.394531 5.546875 C 9.394531 5.476562 9.425781 5.40625 9.476562 5.355469 Z M 11.375 5.355469 L 12.253906 4.480469 L 11.375 3.609375 C 11.324219 3.558594 11.292969 3.488281 11.292969 3.414062 C 11.292969 3.339844 11.320312 3.269531 11.375 3.21875 C 11.425781 3.167969 11.496094 3.136719 11.570312 3.136719 C 11.640625 3.136719 11.714844 3.167969 11.765625 3.21875 L 13.035156 4.480469 L 11.765625 5.742188 C 11.714844 5.796875 11.640625 5.824219 11.570312 5.824219 C 11.496094 5.824219 11.425781 5.796875 11.375 5.742188 C 11.320312 5.691406 11.292969 5.621094 11.292969 5.546875 C 11.292969 5.476562 11.324219 5.40625 11.375 5.355469 Z M 13.273438 5.355469 L 14.148438 4.480469 L 13.273438 3.609375 C 13.222656 3.558594 13.191406 3.488281 13.191406 3.414062 C 13.191406 3.339844 13.222656 3.269531 13.273438 3.21875 C 13.324219 3.167969 13.394531 3.136719 13.46875 3.136719 C 13.539062 3.136719 13.609375 3.167969 13.664062 3.21875 L 14.933594 4.480469 L 13.664062 5.742188 C 13.609375 5.796875 13.539062 5.824219 13.46875 5.824219 C 13.394531 5.824219 13.324219 5.796875 13.273438 5.742188 C 13.222656 5.691406 13.191406 5.621094 13.191406 5.546875 C 13.191406 5.476562 13.222656 5.40625 13.273438 5.355469 Z M 8.851562 2.167969 L 15.285156 2.167969 C 15.679688 2.167969 16 2.488281 16 2.882812 L 16 7.148438 C 16 7.542969 15.679688 7.863281 15.285156 7.863281 L 8.851562 7.863281 C 8.457031 7.863281 8.136719 7.542969 8.136719 7.148438 L 8.136719 2.882812 C 8.136719 2.488281 8.457031 2.167969 8.851562 2.167969 Z M 1.085938 4.339844 L 6.238281 4.339844 L 6.238281 5.152344 L 1.085938 5.152344 Z M 1.085938 6.507812 L 6.238281 6.507812 L 6.238281 7.320312 L 1.085938 7.320312 Z M 1.085938 8.679688 L 6.238281 8.679688 L 6.238281 9.492188 L 1.085938 9.492188 Z M 1.085938 10.847656 L 4.609375 10.847656 L 4.609375 11.660156 L 1.085938 11.660156 Z M 0.730469 2.167969 L 6.589844 2.167969 C 6.992188 2.167969 7.320312 2.496094 7.320312 2.902344 L 7.320312 13.097656 C 7.320312 13.503906 6.992188 13.832031 6.589844 13.832031 L 0.730469 13.832031 C 0.328125 13.832031 0 13.503906 0 13.097656 L 0 2.902344 C 0 2.496094 0.328125 2.167969 0.730469 2.167969 Z M 0.730469 2.167969 "/>
</g>
</svg>
