
<svg xmlns="http://www.w3.org/2000/svg" xmlns:xlink="http://www.w3.org/1999/xlink" width="16px" height="16px" viewBox="0 0 16 16" version="1.1">
<g id="surface1">
<path style=" stroke:none;fill-rule:evenodd;fill:#ff6666;fill-opacity:1;" d="M 12 0 L 12 12 L 14.398438 12 L 14.398438 0 Z M 12 13.601562 L 12 16 L 14.398438 16 L 14.398438 13.601562 Z M 8.398438 0 C 4.644531 0 1.601562 2.6875 1.601562 6 C 1.601562 9.3125 4.644531 12 8.398438 12 C 9.078125 12 9.753906 11.910156 10.398438 11.734375 L 10.398438 9.917969 C 9.78125 10.234375 9.09375 10.398438 8.398438 10.398438 C 5.96875 10.398438 4 8.429688 4 6 C 4 3.570312 5.96875 1.601562 8.398438 1.601562 C 9.097656 1.601562 9.78125 1.769531 10.398438 2.085938 L 10.398438 0.273438 C 9.753906 0.09375 9.078125 0.00390625 8.398438 0 Z M 8.398438 0 "/>
</g>
</svg>
