
<svg xmlns="http://www.w3.org/2000/svg" xmlns:xlink="http://www.w3.org/1999/xlink" width="16px" height="16px" viewBox="0 0 16 16" version="1.1">
<g id="surface1">
<path style=" stroke:none;fill-rule:evenodd;fill:#ff6666;fill-opacity:1;" d="M 5.933594 1.8125 C 5.023438 1.8125 4.269531 2.484375 4.144531 3.359375 L 1.03125 3.359375 L 1.03125 7.488281 L 0 7.488281 L 0 8.007812 L 2.582031 8.007812 L 2.582031 7.488281 L 1.546875 7.488281 L 1.546875 3.875 L 4.144531 3.875 C 4.269531 4.753906 5.023438 5.425781 5.933594 5.425781 C 6.847656 5.425781 7.601562 4.753906 7.726562 3.875 L 9.804688 3.875 L 9.804688 4.910156 L 14.453125 4.910156 L 14.453125 3.875 L 15.484375 3.875 L 15.484375 12.136719 L 13.917969 12.136719 C 13.796875 11.257812 13.039062 10.585938 12.128906 10.585938 C 11.21875 10.585938 10.460938 11.257812 10.339844 12.136719 L 8.726562 12.136719 C 8.621094 11.832031 8.339844 11.621094 8 11.621094 C 7.574219 11.621094 7.226562 11.964844 7.226562 12.394531 C 7.226562 12.820312 7.574219 13.167969 8 13.167969 C 8.339844 13.167969 8.621094 12.953125 8.726562 12.652344 L 10.339844 12.652344 C 10.460938 13.527344 11.21875 14.199219 12.128906 14.199219 C 13.039062 14.199219 13.796875 13.527344 13.917969 12.652344 L 16 12.652344 L 16 3.359375 L 14.453125 3.359375 L 14.453125 2.328125 L 9.804688 2.328125 L 9.804688 3.359375 L 7.726562 3.359375 C 7.601562 2.484375 6.847656 1.8125 5.933594 1.8125 M 5.933594 2.328125 C 6.195312 2.328125 6.441406 2.40625 6.644531 2.539062 L 5.933594 3.246094 L 5.226562 2.539062 C 5.429688 2.40625 5.675781 2.328125 5.933594 2.328125 M 4.855469 2.910156 L 5.5625 3.617188 L 4.855469 4.328125 C 4.722656 4.125 4.644531 3.878906 4.644531 3.617188 C 4.644531 3.359375 4.722656 3.109375 4.855469 2.910156 M 7.015625 2.910156 C 7.148438 3.109375 7.226562 3.359375 7.226562 3.617188 C 7.226562 3.878906 7.148438 4.125 7.015625 4.328125 L 6.304688 3.617188 Z M 5.933594 3.988281 L 6.644531 4.699219 C 6.441406 4.832031 6.195312 4.910156 5.933594 4.910156 C 5.675781 4.910156 5.429688 4.832031 5.226562 4.699219 Z M 0.515625 8.523438 L 0.515625 9.039062 L 1.03125 9.039062 L 1.03125 12.652344 L 3.144531 12.652344 C 3.25 12.953125 3.53125 13.167969 3.871094 13.167969 C 4.296875 13.167969 4.644531 12.820312 4.644531 12.394531 C 4.644531 12.339844 4.640625 12.28125 4.628906 12.230469 L 7.371094 10.652344 L 7.113281 10.199219 L 4.355469 11.796875 C 4.222656 11.6875 4.054688 11.617188 3.871094 11.617188 C 3.53125 11.617188 3.25 11.832031 3.144531 12.136719 L 1.546875 12.136719 L 1.546875 9.039062 L 2.0625 9.039062 L 2.0625 8.523438 Z M 12.128906 11.101562 C 12.84375 11.101562 13.417969 11.679688 13.417969 12.394531 C 13.417969 13.105469 12.84375 13.683594 12.128906 13.683594 C 11.417969 13.683594 10.839844 13.105469 10.839844 12.394531 C 10.839844 11.679688 11.417969 11.101562 12.128906 11.101562 M 3.871094 12.136719 C 4.011719 12.136719 4.128906 12.25 4.128906 12.394531 C 4.128906 12.535156 4.011719 12.652344 3.871094 12.652344 C 3.726562 12.652344 3.613281 12.535156 3.613281 12.394531 C 3.613281 12.25 3.726562 12.136719 3.871094 12.136719 M 8 12.136719 C 8.140625 12.136719 8.257812 12.25 8.257812 12.394531 C 8.257812 12.535156 8.140625 12.652344 8 12.652344 C 7.859375 12.652344 7.742188 12.535156 7.742188 12.394531 C 7.742188 12.25 7.859375 12.136719 8 12.136719 "/>
</g>
</svg>
