
<svg xmlns="http://www.w3.org/2000/svg" xmlns:xlink="http://www.w3.org/1999/xlink" width="16px" height="16px" viewBox="0 0 16 16" version="1.1">
<g id="surface1">
<path style=" stroke:none;fill-rule:nonzero;fill:#ff6666;fill-opacity:1;" d="M 5.109375 0 C 5.101562 0.367188 4.460938 0.0507812 4.433594 0.46875 C 3.722656 0.152344 4.488281 0.949219 4.414062 1.023438 L 4.359375 1.019531 C 4.324219 1.007812 4.273438 0.984375 4.203125 0.941406 C 4.050781 1.058594 3.945312 1.21875 3.859375 1.390625 C 3.265625 2.3125 2.976562 3.082031 2.78125 4.050781 C 2.535156 5.289062 2.472656 6.734375 2.5 7.957031 C 2.527344 8.300781 2.613281 8.625 2.894531 8.84375 C 3.6875 9.496094 4.347656 10.320312 5.015625 11.105469 C 6.328125 12.886719 7.480469 14.402344 8.230469 16 C 8.144531 15.464844 8.039062 14.609375 7.988281 13.949219 C 7.53125 11.628906 6.601562 10.398438 6.496094 7.804688 C 6.46875 7.160156 7.160156 5.863281 7.9375 5.183594 C 9.105469 4.15625 9.949219 4.414062 11.441406 4.636719 C 11.449219 4.636719 11.460938 4.640625 11.46875 4.640625 C 11.519531 4.648438 11.570312 4.65625 11.621094 4.667969 C 12.019531 4.703125 12.820312 4.859375 12.964844 4.582031 C 12.414062 4.113281 11.625 4.054688 10.953125 3.871094 C 10.847656 3.851562 10.714844 3.828125 10.585938 3.816406 L 9.929688 3.671875 L 9.765625 3.628906 L 9.765625 3.632812 L 7.421875 3.175781 C 7.382812 3.144531 7.34375 3.109375 7.304688 3.082031 L 9.59375 3.367188 L 9.59375 3.355469 C 9.675781 3.371094 9.753906 3.386719 9.835938 3.398438 L 9.835938 3.402344 L 11.453125 3.699219 C 11.730469 3.804688 12.03125 3.886719 12.308594 3.902344 C 12.769531 3.96875 13.355469 4.65625 13.507812 4.691406 C 13.433594 3.964844 12.710938 3.640625 12.109375 3.429688 C 11.410156 3.089844 10.359375 3.101562 10.25 2.15625 C 10.21875 2.09375 10.191406 2.027344 10.15625 1.964844 L 9.882812 1.601562 L 9.894531 1.597656 C 9.519531 1.15625 8.996094 0.835938 8.441406 0.714844 C 7.886719 0.523438 7.265625 0.335938 6.679688 0.257812 C 6.480469 0.84375 6.261719 -0.203125 5.78125 0.105469 C 5.363281 0.15625 5.421875 0.265625 5.109375 0 Z M 8 1.316406 C 8.148438 1.3125 8.316406 1.347656 8.488281 1.417969 C 8.941406 1.613281 9.234375 2.023438 9.148438 2.339844 C 9.0625 2.652344 8.621094 2.742188 8.171875 2.550781 C 7.71875 2.355469 7.421875 1.949219 7.511719 1.636719 C 7.566406 1.441406 7.753906 1.324219 8 1.316406 Z M 8 1.316406 "/>
</g>
</svg>
