
<svg xmlns="http://www.w3.org/2000/svg" xmlns:xlink="http://www.w3.org/1999/xlink" width="16px" height="16px" viewBox="0 0 16 16" version="1.1">
<g id="surface1">
<path style=" stroke:none;fill-rule:evenodd;fill:#ff6666;fill-opacity:1;" d="M 6.851562 6.710938 C 6.851562 7.441406 6.851562 8.171875 6.851562 8.902344 C 7.390625 9.433594 7.929688 9.964844 8.46875 10.496094 C 8.929688 10.953125 9.394531 11.410156 9.855469 11.867188 C 11.105469 13.105469 12.355469 14.347656 13.585938 15.601562 L 16 15.65625 L 15.851562 13.339844 L 12.664062 10.144531 C 12.664062 10.144531 12.667969 10.144531 12.671875 10.144531 L 10.78125 8.28125 L 9.164062 6.6875 C 8.394531 6.695312 7.621094 6.703125 6.851562 6.710938 Z M 6.828125 15.285156 C 5.777344 15.152344 5.027344 14.921875 4.046875 14.4375 C 3.570312 14.199219 3.527344 14.175781 3.4375 14.09375 C 3.394531 14.054688 3.347656 14.023438 3.328125 14.023438 C 3.246094 14.023438 2.433594 13.371094 2.128906 13.058594 C 1.96875 12.894531 1.699219 12.589844 1.574219 12.429688 C 1.304688 12.078125 1.160156 11.882812 1.160156 11.859375 C 1.160156 11.84375 1.125 11.785156 1.082031 11.722656 C 0.953125 11.539062 0.746094 11.132812 0.59375 10.769531 C 0.09375 9.566406 -0.0976562 8.242188 0.0507812 6.992188 C 0.167969 5.976562 0.457031 5.019531 0.855469 4.316406 C 0.933594 4.179688 0.992188 4.0625 0.992188 4.050781 C 0.992188 4.007812 1.472656 3.335938 1.65625 3.117188 C 2.011719 2.699219 2.683594 2.058594 2.910156 1.921875 C 3.164062 1.769531 3.261719 1.703125 3.261719 1.675781 C 3.261719 1.65625 3.277344 1.644531 3.300781 1.644531 C 3.324219 1.644531 3.441406 1.582031 3.5625 1.507812 C 3.992188 1.238281 5.152344 0.71875 5.316406 0.71875 C 5.351562 0.722656 5.464844 0.695312 5.566406 0.660156 C 6.179688 0.472656 7.109375 0.347656 7.941406 0.34375 C 8.917969 0.339844 10.066406 0.527344 10.855469 0.816406 C 11.273438 0.96875 11.867188 1.226562 12.078125 1.351562 C 12.195312 1.421875 12.296875 1.476562 12.304688 1.476562 C 12.347656 1.476562 12.851562 1.820312 13.171875 2.070312 C 13.449219 2.289062 14.019531 2.851562 14.398438 3.28125 C 14.753906 3.683594 15.390625 4.902344 15.570312 5.527344 C 15.925781 6.75 16.003906 7.699219 15.851562 8.839844 C 15.769531 9.421875 15.628906 9.960938 15.359375 10.6875 C 15.253906 10.980469 14.996094 11.464844 14.949219 11.464844 C 14.925781 11.464844 14.378906 10.9375 13.738281 10.292969 L 12.566406 9.121094 L 12.636719 8.828125 C 12.683594 8.617188 12.703125 8.320312 12.703125 7.804688 C 12.703125 7.0625 12.648438 6.703125 12.4375 6.089844 C 12.273438 5.605469 11.824219 4.820312 11.570312 4.574219 C 11.53125 4.535156 11.464844 4.460938 11.417969 4.40625 C 11.289062 4.246094 10.894531 3.910156 10.628906 3.730469 C 9.828125 3.199219 8.972656 2.945312 8.003906 2.945312 C 6.882812 2.945312 5.871094 3.296875 4.964844 4.003906 C 4.640625 4.257812 3.972656 5.007812 3.972656 5.121094 C 3.972656 5.148438 3.960938 5.167969 3.941406 5.167969 C 3.894531 5.167969 3.53125 5.902344 3.453125 6.15625 C 3.417969 6.269531 3.359375 6.460938 3.320312 6.574219 C 3.148438 7.128906 3.148438 8.507812 3.324219 9.070312 C 3.496094 9.617188 3.554688 9.78125 3.699219 10.070312 C 4.085938 10.832031 4.652344 11.476562 5.347656 11.941406 C 5.640625 12.136719 6.121094 12.375 6.40625 12.46875 C 7.085938 12.691406 7.15625 12.703125 7.960938 12.703125 C 8.386719 12.703125 8.804688 12.6875 8.890625 12.671875 L 9.042969 12.636719 L 11.191406 14.753906 L 10.992188 14.832031 C 9.871094 15.273438 8.167969 15.457031 6.828125 15.285156 Z M 6.828125 15.285156 "/>
</g>
</svg>
