
<svg xmlns="http://www.w3.org/2000/svg" xmlns:xlink="http://www.w3.org/1999/xlink" width="16px" height="16px" viewBox="0 0 16 16" version="1.1">
<g id="surface1">
<path style=" stroke:none;fill-rule:nonzero;fill:#ff6666;fill-opacity:1;" d="M 8.445312 1.089844 C 8.183594 1.089844 7.914062 1.101562 7.640625 1.125 C 5.195312 1.328125 3.441406 2.566406 2.027344 4.027344 C 1.03125 5.0625 0.289062 6.511719 0.078125 7.960938 C -0.222656 10.070312 0.34375 11.949219 1.78125 13.304688 C 3 14.453125 4.929688 14.859375 6.953125 14.902344 C 8.371094 14.9375 9.703125 14.820312 10.898438 14.542969 C 11.492188 14.40625 12.078125 14.230469 12.453125 14.007812 C 12.828125 13.78125 13.085938 13.488281 13.09375 13.132812 C 13.09375 12.554688 12.757812 12.078125 12.269531 11.691406 C 10.863281 10.695312 9.710938 10.125 8.148438 9.335938 C 7.71875 9.132812 7.332031 8.863281 7.273438 8.4375 C 7.199219 7.894531 8.03125 7.730469 8.4375 7.683594 C 9 7.632812 9.476562 7.65625 10.050781 7.714844 C 10.625 7.769531 11.265625 8.285156 11.464844 8.363281 L 11.476562 8.367188 L 11.492188 8.371094 C 11.535156 8.375 11.589844 8.355469 11.617188 8.324219 C 11.644531 8.296875 11.648438 8.273438 11.652344 8.257812 C 11.65625 8.226562 11.65625 8.214844 11.652344 8.199219 C 11.652344 8.167969 11.644531 8.136719 11.636719 8.101562 C 11.621094 8.027344 11.59375 7.925781 11.554688 7.804688 C 11.425781 7.058594 10.984375 5.988281 10.675781 5.347656 C 10.601562 5.214844 10.53125 5.101562 10.453125 5.011719 C 10.378906 4.921875 10.304688 4.847656 10.195312 4.820312 C 10.054688 4.78125 9.847656 4.769531 9.570312 4.773438 C 9.289062 4.777344 8.898438 4.796875 8.515625 4.835938 C 7.753906 4.910156 6.929688 5.054688 6.050781 5.261719 C 5.175781 5.472656 4.347656 5.746094 3.773438 6.101562 C 3.484375 6.28125 3.179688 6.476562 3.046875 6.710938 C 2.90625 6.941406 2.875 7.503906 2.980469 7.773438 C 3.203125 8.359375 3.84375 8.800781 4.539062 9.179688 C 6 9.972656 7.289062 10.480469 8.667969 11.332031 C 9.175781 11.605469 9.515625 12.015625 9.4375 12.433594 C 9.359375 12.867188 8.832031 13.085938 8.378906 13.238281 C 7.5625 13.507812 6.742188 13.480469 6.019531 13.453125 C 4.34375 13.382812 2.777344 13.03125 1.625 11.726562 C 0.910156 10.917969 0.8125 10.085938 0.734375 8.894531 C 0.65625 7.726562 1.113281 6.425781 1.769531 5.453125 C 3.222656 3.300781 5.113281 2.054688 7.625 1.71875 C 10.585938 1.339844 12.609375 2.402344 13.902344 3.546875 C 14.550781 4.121094 15.015625 4.8125 15.3125 5.253906 C 15.464844 5.476562 15.570312 5.660156 15.640625 5.785156 C 15.679688 5.847656 15.703125 5.894531 15.722656 5.925781 C 15.730469 5.941406 15.734375 5.953125 15.742188 5.964844 C 15.746094 5.972656 15.738281 5.96875 15.765625 5.996094 C 15.769531 6.003906 15.8125 6.027344 15.8125 6.027344 C 15.8125 6.027344 15.980469 5.972656 15.980469 5.972656 C 15.980469 5.972656 16 5.90625 16 5.894531 C 16 5.882812 16 5.878906 15.996094 5.875 C 15.988281 5.835938 15.988281 5.839844 15.980469 5.824219 C 15.972656 5.808594 15.964844 5.789062 15.953125 5.765625 C 15.933594 5.722656 15.902344 5.660156 15.863281 5.589844 C 15.78125 5.441406 15.660156 5.238281 15.5 5 C 15.179688 4.523438 14.691406 3.804688 14.019531 3.203125 C 12.84375 2.15625 11.09375 1.160156 8.703125 1.09375 C 8.617188 1.09375 8.53125 1.089844 8.445312 1.089844 Z M 8.445312 1.089844 "/>
</g>
</svg>
