
<svg xmlns="http://www.w3.org/2000/svg" xmlns:xlink="http://www.w3.org/1999/xlink" width="16px" height="16px" viewBox="0 0 16 16" version="1.1">
<g id="surface1">
<path style=" stroke:none;fill-rule:nonzero;fill:#ff6666;fill-opacity:1;" d="M 4.785156 1 C 3.410156 1 2.296875 1.480469 1.449219 2.4375 C 0.484375 3.527344 0 5.007812 0 6.878906 C 0 8.269531 0.28125 9.480469 0.84375 10.503906 C 1.699219 12.03125 3.019531 12.789062 4.785156 12.789062 C 5.167969 14.421875 6.222656 15.277344 8.703125 14.917969 L 8.703125 13.738281 C 7.546875 13.839844 7.296875 13.230469 7.207031 12.160156 L 7.207031 12.089844 C 7.554688 11.878906 7.871094 11.617188 8.152344 11.292969 C 9.074219 10.234375 9.535156 8.757812 9.535156 6.878906 C 9.535156 5.472656 9.242188 4.265625 8.65625 3.242188 C 7.789062 1.75 6.5 1 4.785156 1 Z M 14.074219 1.472656 L 12.332031 1.515625 L 11.753906 4.128906 L 10.515625 4.128906 L 10.515625 6.082031 L 11.652344 6.082031 L 11.652344 9.820312 C 11.652344 10.84375 11.808594 11.5625 12.101562 11.976562 C 12.476562 12.519531 13.269531 12.789062 14.488281 12.789062 C 14.894531 12.789062 15.394531 12.738281 16 12.613281 L 16 10.757812 C 15.582031 10.78125 15.273438 10.792969 15.066406 10.792969 C 14.722656 10.792969 14.484375 10.738281 14.339844 10.625 C 14.164062 10.492188 14.074219 10.148438 14.074219 9.601562 L 14.074219 6.082031 L 15.871094 6.082031 L 15.871094 4.128906 L 14.074219 4.128906 Z M 4.785156 3.191406 C 6.132812 3.191406 6.804688 4.421875 6.804688 6.894531 C 6.804688 9.367188 6.132812 10.609375 4.785156 10.609375 C 3.417969 10.609375 2.730469 9.359375 2.730469 6.878906 C 2.730469 6.777344 2.730469 6.679688 2.730469 6.578125 C 2.796875 4.320312 3.484375 3.191406 4.785156 3.191406 Z M 4.785156 3.191406 "/>
</g>
</svg>
