
<svg xmlns="http://www.w3.org/2000/svg" xmlns:xlink="http://www.w3.org/1999/xlink" width="16px" height="16px" viewBox="0 0 16 16" version="1.1">
<g id="surface1">
<path style=" stroke:none;fill-rule:evenodd;fill:#ff6666;fill-opacity:1;" d="M 10.367188 4.570312 L 10.367188 4.148438 C 10.367188 4.144531 10.367188 4.144531 10.367188 4.144531 C 10.367188 3.792969 10.3125 3.445312 10.199219 3.117188 C 10.097656 2.820312 9.941406 2.546875 9.734375 2.308594 C 9.539062 2.085938 9.292969 1.902344 9.019531 1.78125 C 8.871094 1.714844 8.714844 1.664062 8.554688 1.632812 C 8.371094 1.597656 8.1875 1.578125 8 1.578125 C 7.8125 1.578125 7.628906 1.597656 7.445312 1.632812 C 7.285156 1.664062 7.128906 1.714844 6.980469 1.78125 C 6.707031 1.902344 6.460938 2.085938 6.265625 2.308594 C 6.058594 2.546875 5.902344 2.820312 5.800781 3.117188 C 5.6875 3.445312 5.632812 3.792969 5.632812 4.144531 C 5.632812 4.144531 5.632812 4.144531 5.632812 4.148438 L 5.632812 4.570312 C 6.613281 4.742188 7.488281 5.355469 8 6.269531 C 8.511719 5.355469 9.386719 4.742188 10.367188 4.570312 Z M 4.054688 4.683594 L 4.054688 4.148438 C 4.050781 3.625 4.136719 3.101562 4.304688 2.605469 C 4.472656 2.113281 4.734375 1.664062 5.070312 1.269531 C 5.421875 0.871094 5.855469 0.554688 6.339844 0.339844 C 6.59375 0.226562 6.859375 0.140625 7.128906 0.0859375 C 7.417969 0.0273438 7.707031 0 8 0 C 8.292969 0 8.582031 0.0273438 8.871094 0.0859375 C 9.140625 0.140625 9.40625 0.226562 9.660156 0.339844 C 10.144531 0.554688 10.578125 0.871094 10.929688 1.269531 C 11.265625 1.664062 11.527344 2.113281 11.695312 2.605469 C 11.863281 3.101562 11.949219 3.625 11.945312 4.148438 L 11.945312 4.683594 C 12.9375 5.003906 13.746094 5.785156 14.109375 6.824219 C 14.558594 8.101562 14.253906 9.53125 13.324219 10.496094 L 8 16 L 2.675781 10.496094 C 1.746094 9.53125 1.441406 8.101562 1.890625 6.824219 C 2.253906 5.785156 3.0625 5.003906 4.054688 4.683594 Z M 7.617188 10.195312 C 7.171875 10.039062 6.851562 9.613281 6.851562 9.113281 C 6.851562 8.480469 7.367188 7.964844 8 7.964844 C 8.632812 7.964844 9.148438 8.480469 9.148438 9.113281 C 9.148438 9.621094 8.816406 10.054688 8.355469 10.203125 L 9.148438 12.554688 L 6.851562 12.554688 Z M 7.617188 10.195312 "/>
</g>
</svg>
