
<svg xmlns="http://www.w3.org/2000/svg" xmlns:xlink="http://www.w3.org/1999/xlink" width="16px" height="16px" viewBox="0 0 16 16" version="1.1">
<g id="surface1">
<path style=" stroke:none;fill-rule:evenodd;fill:#ff6666;fill-opacity:1;" d="M 6.957031 0 L 7.265625 0 C 7.492188 0.0664062 7.726562 0.148438 7.910156 0.304688 C 8.4375 0.730469 8.824219 1.3125 9.117188 1.921875 C 9.351562 2.453125 9.441406 3.027344 9.515625 3.601562 C 9.542969 4.039062 9.644531 4.476562 9.625 4.921875 C 9.625 5.257812 9.601562 5.601562 9.492188 5.921875 C 9.320312 6.402344 9.222656 6.90625 9.046875 7.390625 C 8.867188 7.9375 8.644531 8.472656 8.386719 8.984375 C 8.273438 9.226562 8.050781 9.390625 7.90625 9.613281 C 7.765625 9.8125 7.625 10.023438 7.441406 10.1875 C 7.28125 10.332031 7.125 10.488281 6.957031 10.625 C 6.65625 10.847656 6.371094 11.097656 6.03125 11.257812 C 5.769531 11.371094 5.507812 11.523438 5.210938 11.511719 C 5.105469 11.515625 4.996094 11.503906 4.894531 11.5 C 4.957031 11.324219 5.035156 11.15625 5.128906 11 C 5.199219 10.878906 5.3125 10.808594 5.414062 10.726562 C 5.734375 10.484375 6.03125 10.21875 6.339844 9.96875 C 6.441406 9.878906 6.570312 9.820312 6.652344 9.710938 C 6.691406 9.625 6.632812 9.476562 6.527344 9.492188 C 6.402344 9.488281 6.304688 9.570312 6.214844 9.644531 C 5.863281 9.933594 5.523438 10.234375 5.15625 10.507812 C 5.042969 10.601562 4.914062 10.691406 4.84375 10.828125 C 4.757812 10.988281 4.6875 11.152344 4.59375 11.308594 C 4.265625 11.253906 3.921875 11.277344 3.601562 11.171875 C 3.292969 11.089844 3.015625 10.875 2.859375 10.601562 C 2.734375 10.296875 2.703125 9.964844 2.71875 9.640625 C 2.933594 9.519531 3.171875 9.441406 3.394531 9.339844 C 4.203125 8.96875 5.0625 8.730469 5.917969 8.5 C 6.03125 8.484375 6.105469 8.355469 6.042969 8.257812 C 5.984375 8.164062 5.859375 8.175781 5.769531 8.195312 C 5.117188 8.371094 4.472656 8.570312 3.839844 8.792969 C 3.441406 8.953125 3.050781 9.132812 2.652344 9.296875 C 2.484375 9.105469 2.328125 8.902344 2.203125 8.683594 C 2.074219 8.480469 2.042969 8.234375 1.96875 8.011719 L 1.96875 7.105469 C 2.078125 6.726562 2.257812 6.378906 2.457031 6.042969 C 2.683594 6.050781 2.90625 6.101562 3.128906 6.128906 C 3.6875 6.191406 4.242188 6.238281 4.796875 6.304688 C 5.230469 6.359375 5.660156 6.429688 6.09375 6.484375 C 6.1875 6.507812 6.308594 6.457031 6.3125 6.351562 C 6.34375 6.214844 6.1875 6.160156 6.082031 6.148438 C 5.605469 6.097656 5.136719 6.019531 4.660156 5.957031 C 3.941406 5.890625 3.222656 5.816406 2.507812 5.699219 C 2.421875 5.4375 2.402344 5.15625 2.394531 4.878906 C 2.378906 4.21875 2.621094 3.570312 3.03125 3.058594 C 3.203125 2.816406 3.441406 2.636719 3.683594 2.460938 C 3.957031 2.714844 4.230469 2.972656 4.507812 3.222656 C 4.773438 3.480469 5.082031 3.6875 5.371094 3.921875 C 5.621094 4.128906 5.925781 4.246094 6.210938 4.402344 C 6.382812 4.488281 6.546875 4.601562 6.734375 4.648438 C 6.882812 4.679688 6.964844 4.453125 6.835938 4.375 C 6.488281 4.144531 6.09375 4.003906 5.746094 3.785156 C 5.523438 3.625 5.308594 3.449219 5.089844 3.285156 C 4.796875 3.066406 4.550781 2.808594 4.28125 2.566406 C 4.15625 2.453125 4.027344 2.351562 3.914062 2.222656 C 3.917969 2.148438 3.945312 2.074219 3.96875 2.003906 C 4.089844 1.691406 4.152344 1.347656 4.371094 1.078125 C 4.523438 0.835938 4.761719 0.671875 4.988281 0.5 C 5.324219 0.289062 5.738281 0.332031 6.117188 0.335938 C 6.3125 0.875 6.449219 1.441406 6.625 1.984375 C 6.675781 2.117188 6.757812 2.222656 6.835938 2.335938 C 7.136719 2.78125 7.441406 3.222656 7.738281 3.671875 C 7.890625 3.902344 8.128906 4.054688 8.347656 4.222656 C 8.425781 4.296875 8.535156 4.269531 8.628906 4.257812 C 8.625 4.175781 8.664062 4.074219 8.597656 4.011719 C 8.417969 3.828125 8.171875 3.722656 8.027344 3.503906 C 7.746094 3.09375 7.464844 2.675781 7.183594 2.265625 C 7.074219 2.105469 6.945312 1.953125 6.894531 1.761719 C 6.773438 1.320312 6.636719 0.882812 6.515625 0.449219 C 6.503906 0.390625 6.46875 0.324219 6.527344 0.277344 C 6.648438 0.160156 6.824219 0.109375 6.957031 0 Z M 9.925781 5.480469 C 10.363281 5.929688 10.855469 6.320312 11.40625 6.609375 C 11.5625 6.695312 11.738281 6.777344 11.847656 6.921875 C 11.964844 7.089844 12.117188 7.261719 12.097656 7.480469 C 12.109375 7.730469 11.886719 7.878906 11.714844 8.023438 C 11.597656 8.042969 11.476562 8.058594 11.363281 8.097656 C 11.007812 8.125 10.640625 8.066406 10.285156 8.140625 C 9.878906 8.144531 9.480469 8.257812 9.078125 8.289062 C 9.183594 7.976562 9.308594 7.671875 9.410156 7.355469 C 9.570312 6.910156 9.636719 6.445312 9.816406 6.007812 C 9.886719 5.839844 9.894531 5.65625 9.925781 5.480469 Z M 12.378906 7.132812 C 12.613281 7.179688 12.859375 7.300781 12.941406 7.539062 C 12.976562 7.726562 12.953125 7.925781 12.9375 8.117188 C 12.933594 8.214844 13.035156 8.261719 13.109375 8.300781 C 13.113281 8.390625 13.109375 8.488281 13.109375 8.578125 C 12.921875 8.683594 12.917969 8.921875 12.90625 9.113281 C 12.828125 9.359375 12.730469 9.625 12.789062 9.882812 C 12.820312 10.144531 12.707031 10.402344 12.796875 10.65625 C 12.84375 10.742188 12.898438 10.828125 12.933594 10.921875 C 12.808594 10.832031 12.703125 10.710938 12.566406 10.644531 C 12.398438 10.554688 12.222656 10.480469 12.082031 10.355469 C 12.0625 10.203125 12.183594 10.089844 12.261719 9.976562 C 12.335938 9.707031 12.15625 9.46875 12.144531 9.203125 C 12.121094 9.027344 12.152344 8.851562 12.148438 8.679688 C 12.160156 8.570312 12.023438 8.558594 11.984375 8.476562 C 11.9375 8.390625 11.945312 8.273438 12.019531 8.203125 C 12.144531 8.066406 12.328125 7.960938 12.378906 7.769531 C 12.457031 7.5625 12.417969 7.34375 12.378906 7.132812 Z M 10.253906 10.960938 C 10.316406 10.960938 10.382812 10.960938 10.445312 10.964844 C 10.4375 10.988281 10.425781 11.03125 10.417969 11.050781 C 10.367188 11.054688 10.3125 11.058594 10.265625 11.066406 C 10.261719 11.042969 10.253906 10.988281 10.253906 10.960938 Z M 7.015625 11.4375 C 7.210938 11.316406 7.40625 11.203125 7.613281 11.109375 C 7.757812 11.320312 7.925781 11.542969 8.183594 11.628906 C 8.535156 11.816406 8.921875 11.898438 9.296875 12.027344 C 9.554688 12.101562 9.824219 12.089844 10.089844 12.128906 C 10.410156 12.175781 10.730469 12.183594 11.050781 12.210938 C 11.550781 12.175781 12.066406 12.175781 12.53125 11.960938 C 12.695312 11.851562 12.882812 11.757812 12.996094 11.597656 C 13.078125 11.441406 13.089844 11.265625 13.117188 11.097656 C 13.277344 11.121094 13.421875 11.1875 13.582031 11.214844 C 13.636719 11.230469 13.710938 11.222656 13.746094 11.277344 C 13.035156 11.8125 12.304688 12.332031 11.589844 12.859375 C 11.53125 12.902344 11.472656 12.949219 11.410156 12.980469 C 11.269531 12.976562 11.136719 12.914062 11.007812 12.878906 C 9.855469 12.535156 8.707031 12.1875 7.550781 11.851562 C 7.277344 11.757812 6.996094 11.679688 6.722656 11.597656 C 6.796875 11.511719 6.921875 11.496094 7.015625 11.4375 Z M 13.441406 11.910156 C 13.496094 11.871094 13.554688 11.835938 13.609375 11.800781 C 13.617188 12.074219 13.65625 12.363281 13.558594 12.628906 C 13.496094 12.742188 13.597656 12.878906 13.53125 12.992188 C 13.460938 13.089844 13.363281 13.152344 13.277344 13.226562 C 12.75 13.683594 12.21875 14.140625 11.6875 14.597656 C 11.554688 14.707031 11.429688 14.835938 11.285156 14.933594 C 11.183594 14.949219 11.085938 14.886719 10.984375 14.863281 C 9.550781 14.402344 8.121094 13.929688 6.683594 13.484375 C 6.679688 13.378906 6.65625 13.273438 6.699219 13.171875 C 6.753906 13.007812 6.65625 12.84375 6.660156 12.679688 C 6.652344 12.515625 6.761719 12.367188 6.757812 12.203125 C 6.769531 12.101562 6.703125 12.011719 6.660156 11.921875 C 8.179688 12.382812 9.695312 12.832031 11.207031 13.289062 C 11.285156 13.308594 11.367188 13.339844 11.449219 13.332031 C 11.546875 13.300781 11.625 13.238281 11.710938 13.179688 C 12.285156 12.757812 12.867188 12.335938 13.441406 11.910156 Z M 9.941406 10.601562 C 9.722656 10.617188 9.488281 10.644531 9.3125 10.785156 C 9.210938 10.890625 9.265625 11.070312 9.382812 11.148438 C 9.597656 11.308594 9.875 11.308594 10.121094 11.371094 C 10.292969 11.414062 10.472656 11.425781 10.648438 11.410156 C 10.863281 11.386719 11.085938 11.378906 11.265625 11.257812 C 11.378906 11.195312 11.441406 11.03125 11.363281 10.925781 C 11.246094 10.734375 11.003906 10.695312 10.800781 10.648438 C 10.519531 10.609375 10.230469 10.550781 9.941406 10.601562 Z M 9.433594 10.074219 C 10.019531 10.019531 10.609375 10.070312 11.191406 10.152344 C 11.339844 10.175781 11.476562 10.222656 11.621094 10.261719 C 11.914062 10.335938 12.148438 10.539062 12.417969 10.667969 C 12.640625 10.773438 12.839844 10.941406 12.988281 11.140625 C 13.03125 11.347656 12.949219 11.597656 12.753906 11.703125 C 12.453125 11.941406 12.074219 12.039062 11.703125 12.070312 C 10.988281 12.175781 10.273438 12.058594 9.570312 11.992188 C 9.335938 11.972656 9.117188 11.863281 8.894531 11.804688 C 8.601562 11.730469 8.324219 11.609375 8.0625 11.46875 C 7.847656 11.316406 7.640625 11.074219 7.683594 10.796875 C 7.730469 10.660156 7.847656 10.5625 7.957031 10.472656 C 8.398438 10.199219 8.925781 10.125 9.433594 10.074219 Z M 11.46875 15.214844 C 12.234375 14.566406 12.984375 13.898438 13.753906 13.261719 C 13.855469 13.363281 13.976562 13.460938 14.03125 13.605469 C 14.03125 13.699219 13.984375 13.796875 13.910156 13.863281 C 13.597656 14.160156 13.304688 14.484375 12.964844 14.761719 C 12.597656 15.125 12.222656 15.484375 11.835938 15.828125 C 11.757812 15.90625 11.65625 15.964844 11.550781 16 L 11.039062 16 C 10.714844 15.875 10.386719 15.765625 10.054688 15.671875 C 9.039062 15.292969 8.015625 14.9375 6.992188 14.570312 C 6.722656 14.492188 6.453125 14.386719 6.210938 14.238281 C 5.988281 14.074219 6.214844 13.664062 6.46875 13.746094 C 8.011719 14.246094 9.550781 14.746094 11.089844 15.242188 C 11.214844 15.289062 11.363281 15.324219 11.46875 15.214844 Z M 11.46875 15.214844 "/>
</g>
</svg>
