
<svg xmlns="http://www.w3.org/2000/svg" xmlns:xlink="http://www.w3.org/1999/xlink" width="16px" height="16px" viewBox="0 0 16 16" version="1.1">
<g id="surface1">
<path style=" stroke:none;fill-rule:evenodd;fill:#ff6666;fill-opacity:1;" d="M 7.507812 5.785156 L 4.6875 5.785156 L 5.535156 6.738281 L 5.535156 8.773438 C 5.148438 8.554688 4.789062 8.28125 4.472656 7.964844 C 3.535156 7.027344 3.011719 5.757812 3.011719 4.4375 C 3.011719 2.65625 3.964844 1.011719 5.503906 0.121094 L 5.503906 0 C 3.378906 0.972656 2.015625 3.097656 2.011719 5.433594 C 2.011719 7.863281 3.457031 9.953125 5.535156 10.890625 L 5.535156 13.058594 L 6.589844 16 L 7.648438 13.058594 L 7.648438 11.410156 C 7.765625 11.417969 7.882812 11.421875 8 11.421875 C 8.117188 11.421875 8.234375 11.417969 8.351562 11.410156 L 8.351562 13.058594 L 9.410156 16 L 10.464844 13.058594 L 10.464844 10.890625 C 12.542969 9.953125 13.988281 7.863281 13.988281 5.433594 C 13.980469 3.097656 12.617188 0.976562 10.496094 0.00390625 L 10.496094 0.121094 C 12.035156 1.011719 12.988281 2.65625 12.988281 4.4375 C 12.988281 5.757812 12.464844 7.027344 11.527344 7.964844 C 11.210938 8.28125 10.851562 8.554688 10.464844 8.773438 L 10.464844 6.738281 L 11.3125 5.785156 Z M 8 6.339844 L 7.648438 6.738281 L 7.648438 9.414062 C 7.765625 9.421875 7.882812 9.425781 8 9.425781 C 8.117188 9.425781 8.234375 9.421875 8.351562 9.414062 L 8.351562 6.738281 Z M 8 6.339844 "/>
</g>
</svg>
