
<svg xmlns="http://www.w3.org/2000/svg" xmlns:xlink="http://www.w3.org/1999/xlink" width="16px" height="16px" viewBox="0 0 16 16" version="1.1">
<g id="surface1">
<path style=" stroke:none;fill-rule:evenodd;fill:#ff6666;fill-opacity:1;" d="M 8 0.445312 L 7.039062 8 L 8 15.554688 L 8.960938 8 Z M 3.371094 4.363281 L 2.515625 4.597656 C 1.8125 4.789062 1.261719 5.007812 0.816406 5.3125 C 0.371094 5.617188 -0.0625 6.140625 0.0078125 6.800781 C 0.078125 7.457031 0.539062 7.84375 1.011719 8.121094 C 1.484375 8.398438 2.070312 8.605469 2.808594 8.785156 C 3.523438 8.960938 4.324219 9.089844 5.167969 9.179688 L 6.398438 15.554688 L 6.398438 7.523438 C 3.296875 7.375 1.335938 6.738281 1.332031 6 C 1.335938 5.5625 2.125 5.148438 3.503906 4.851562 Z M 12.722656 4.382812 L 12.582031 4.871094 C 13.910156 5.164062 14.664062 5.574219 14.667969 6 C 14.664062 6.738281 12.703125 7.375 9.601562 7.523438 L 9.601562 15.554688 L 10.835938 9.179688 C 11.636719 9.09375 12.40625 8.972656 13.097656 8.808594 C 13.84375 8.632812 14.441406 8.429688 14.921875 8.160156 C 15.40625 7.890625 15.863281 7.535156 15.980469 6.890625 C 16.097656 6.246094 15.683594 5.671875 15.246094 5.355469 C 14.8125 5.039062 14.269531 4.820312 13.578125 4.621094 Z M 12.722656 4.382812 "/>
</g>
</svg>
