
<svg xmlns="http://www.w3.org/2000/svg" xmlns:xlink="http://www.w3.org/1999/xlink" width="16px" height="16px" viewBox="0 0 16 16" version="1.1">
<g id="surface1">
<path style=" stroke:none;fill-rule:nonzero;fill:#ff6666;fill-opacity:1;" d="M 2 4 L 2 6 L 0 6 L 0 7 L 2 7 L 2 9 L 0 9 L 0 10 L 2 10 L 2 12 L 3 12 L 3 10 L 5 10 L 5 12 L 6 12 L 6 10 L 8 10 L 8 9 L 6 9 L 6 7 L 8 7 L 8 6 L 6 6 L 6 4 L 5 4 L 5 6 L 3 6 L 3 4 Z M 3 7 L 5 7 L 5 9 L 3 9 Z M 3 7 "/>
<path style=" stroke:none;fill-rule:nonzero;fill:#ff6666;fill-opacity:1;" d="M 12 10 C 11.445312 10 11 10.445312 11 11 C 11 11.554688 11.445312 12 12 12 C 12.554688 12 13 11.554688 13 11 C 13 10.445312 12.554688 10 12 10 Z M 15 10 C 14.445312 10 14 10.445312 14 11 C 14 11.554688 14.445312 12 15 12 C 15.554688 12 16 11.554688 16 11 C 16 10.445312 15.554688 10 15 10 Z M 15 10 "/>
</g>
</svg>
