
<svg xmlns="http://www.w3.org/2000/svg" xmlns:xlink="http://www.w3.org/1999/xlink" width="16px" height="16px" viewBox="0 0 16 16" version="1.1">
<g id="surface1">
<path style=" stroke:none;fill-rule:nonzero;fill:#ff6666;fill-opacity:1;" d="M 8.367188 0.0117188 C 5.859375 -0.117188 3.34375 0.96875 1.726562 3.144531 C 0.890625 4.269531 0.40625 5.546875 0.246094 6.84375 L 1.253906 6.695312 L 3.164062 6.414062 L 4.757812 5.191406 L 1.515625 5.671875 C 1.738281 4.992188 2.058594 4.332031 2.511719 3.726562 C 4.269531 1.359375 7.242188 0.464844 9.90625 1.253906 L 10.835938 0.542969 C 10.035156 0.226562 9.203125 0.0507812 8.367188 0.0078125 Z M 12.351562 1.503906 L 12.351562 1.507812 L 12.039062 2.476562 L 11.53125 4.078125 L 11.828125 6.359375 L 12.847656 3.160156 C 13.359375 3.660156 13.808594 4.238281 14.15625 4.910156 C 15.605469 7.71875 14.925781 11.035156 12.703125 13.066406 L 12.707031 13.097656 C 12.691406 13.113281 12.675781 13.128906 12.65625 13.144531 L 15.121094 16 L 15.878906 15.34375 L 13.976562 13.144531 C 16.011719 10.804688 16.535156 7.390625 15.023438 4.460938 C 14.378906 3.214844 13.445312 2.21875 12.351562 1.503906 Z M 0.105469 9.136719 C 0.578125 12.636719 3.378906 15.46875 7.054688 15.832031 C 8.453125 15.972656 9.800781 15.730469 10.992188 15.199219 L 10.347656 14.414062 L 10.34375 14.414062 L 9.074219 12.867188 L 7.160156 12.070312 L 9.332031 14.714844 C 8.636719 14.875 7.902344 14.9375 7.152344 14.863281 C 4.140625 14.566406 1.800781 12.371094 1.171875 9.582031 Z M 0.105469 9.136719 "/>
</g>
</svg>
