
<svg xmlns="http://www.w3.org/2000/svg" xmlns:xlink="http://www.w3.org/1999/xlink" width="16px" height="16px" viewBox="0 0 16 16" version="1.1">
<g id="surface1">
<path style=" stroke:none;fill-rule:nonzero;fill:#ff6666;fill-opacity:1;" d="M 5.09375 0.00390625 C 3.8125 -0.0625 3.003906 1.398438 3.8125 2.347656 C 4.613281 3.539062 6.53125 4.265625 7.828125 3.375 C 7.828125 7.410156 7.847656 11.945312 7.847656 15.980469 C 8.621094 16.179688 8.265625 14.855469 8.445312 14.394531 C 8.808594 12.644531 10.585938 11.730469 11.726562 10.480469 C 12.660156 9.457031 12.785156 7.894531 11.964844 6.765625 C 11.734375 6.445312 10.984375 5.128906 11.097656 5.378906 C 11.601562 6.402344 12.25 7.554688 11.945312 8.71875 C 11.554688 10.113281 10.144531 11.003906 8.691406 11.222656 C 8.324219 11.273438 8.347656 11.167969 8.308594 10.585938 C 8.308594 7.703125 8.308594 4.820312 8.308594 1.9375 C 7.824219 0.761719 6.410156 -0.0351562 5.09375 0.00390625 Z M 5.246094 0.375 C 6.472656 0.320312 7.953125 1.253906 7.796875 2.519531 C 7.480469 3.640625 5.859375 3.554688 5.035156 3.007812 C 4.117188 2.589844 3.441406 1.136719 4.550781 0.554688 C 4.761719 0.445312 5.003906 0.390625 5.246094 0.375 Z M 5.246094 0.375 "/>
</g>
</svg>
