
<svg xmlns="http://www.w3.org/2000/svg" xmlns:xlink="http://www.w3.org/1999/xlink" width="16px" height="16px" viewBox="0 0 16 16" version="1.1">
<g id="surface1">
<path style=" stroke:none;fill-rule:evenodd;fill:#ff6666;fill-opacity:1;" d="M 3.074219 6.5 C 2.742188 6.5 2.5 6.386719 2.347656 6.160156 C 2.277344 6.066406 2.222656 5.945312 2.179688 5.792969 C 2.136719 5.636719 2.117188 5.46875 2.117188 5.285156 C 2.117188 4.964844 2.199219 4.671875 2.363281 4.402344 C 2.53125 4.132812 2.773438 3.925781 3.089844 3.777344 L 3.175781 3.941406 C 3.015625 4.015625 2.871094 4.121094 2.746094 4.261719 C 2.621094 4.398438 2.535156 4.542969 2.484375 4.695312 C 2.453125 4.78125 2.4375 4.882812 2.4375 5 C 2.4375 5.09375 2.445312 5.160156 2.457031 5.203125 C 2.617188 5.011719 2.839844 4.917969 3.128906 4.917969 C 3.375 4.917969 3.570312 4.988281 3.71875 5.125 C 3.863281 5.261719 3.9375 5.457031 3.9375 5.710938 C 3.9375 5.949219 3.859375 6.140625 3.699219 6.285156 C 3.539062 6.429688 3.332031 6.5 3.074219 6.5 Z M 0.957031 6.5 C 0.625 6.5 0.382812 6.386719 0.230469 6.160156 C 0.164062 6.066406 0.105469 5.945312 0.0625 5.792969 C 0.0195312 5.636719 0 5.46875 0 5.285156 C 0 4.964844 0.0820312 4.671875 0.246094 4.402344 C 0.414062 4.132812 0.65625 3.925781 0.976562 3.777344 L 1.058594 3.941406 C 0.898438 4.015625 0.757812 4.121094 0.628906 4.261719 C 0.503906 4.398438 0.417969 4.542969 0.367188 4.695312 C 0.335938 4.78125 0.320312 4.882812 0.320312 5 C 0.320312 5.09375 0.328125 5.160156 0.339844 5.203125 C 0.5 5.011719 0.722656 4.917969 1.011719 4.917969 C 1.257812 4.917969 1.453125 4.988281 1.601562 5.125 C 1.75 5.261719 1.820312 5.457031 1.820312 5.710938 C 1.820312 5.949219 1.742188 6.140625 1.582031 6.285156 C 1.421875 6.429688 1.214844 6.5 0.957031 6.5 Z M 11.34375 10.160156 L 11.519531 10.207031 C 11.488281 10.613281 11.417969 10.960938 11.304688 11.246094 C 11.191406 11.535156 11.039062 11.753906 10.847656 11.902344 C 10.710938 12.003906 10.542969 12.085938 10.335938 12.140625 C 10.132812 12.195312 9.917969 12.222656 9.699219 12.222656 C 9.324219 12.222656 8.957031 12.164062 8.601562 12.046875 C 8.246094 11.929688 7.796875 11.75 7.25 11.503906 L 6.644531 11.246094 C 6.527344 11.203125 6.453125 11.183594 6.421875 11.183594 C 6.300781 11.25 6.167969 11.304688 6.03125 11.347656 C 5.894531 11.390625 5.765625 11.414062 5.648438 11.414062 C 5.519531 11.414062 5.414062 11.390625 5.335938 11.34375 C 5.257812 11.296875 5.21875 11.230469 5.21875 11.136719 C 5.21875 11.046875 5.261719 10.976562 5.347656 10.925781 C 5.429688 10.875 5.558594 10.851562 5.722656 10.851562 C 5.9375 10.851562 6.171875 10.90625 6.421875 11.019531 C 6.65625 10.957031 6.886719 10.875 7.113281 10.769531 C 7.167969 10.75 7.230469 10.726562 7.300781 10.695312 C 7.371094 10.664062 7.453125 10.632812 7.546875 10.605469 C 6.9375 10.542969 6.410156 10.375 5.957031 10.097656 C 5.507812 9.820312 5.160156 9.445312 4.914062 8.964844 C 4.667969 8.488281 4.546875 7.929688 4.546875 7.289062 C 4.546875 6.617188 4.691406 6.019531 4.988281 5.496094 C 5.28125 4.976562 5.691406 4.570312 6.21875 4.28125 C 6.746094 3.996094 7.347656 3.851562 8.023438 3.851562 C 8.714844 3.851562 9.324219 3.980469 9.84375 4.246094 C 10.367188 4.511719 10.769531 4.890625 11.058594 5.390625 C 11.347656 5.890625 11.492188 6.488281 11.492188 7.179688 C 11.492188 7.84375 11.351562 8.433594 11.066406 8.949219 C 10.785156 9.460938 10.390625 9.867188 9.882812 10.15625 C 9.371094 10.449219 8.789062 10.605469 8.132812 10.621094 C 7.992188 10.640625 7.855469 10.671875 7.722656 10.714844 C 7.59375 10.757812 7.46875 10.804688 7.351562 10.851562 C 7.105469 10.949219 6.902344 11.019531 6.742188 11.0625 L 7.101562 11.074219 C 7.628906 11.089844 8.078125 11.101562 8.445312 11.101562 C 9.085938 11.101562 9.605469 11.058594 10.011719 10.972656 C 10.355469 10.898438 10.625 10.804688 10.820312 10.6875 C 11.015625 10.570312 11.191406 10.394531 11.34375 10.160156 Z M 6.476562 7.253906 C 6.476562 7.894531 6.546875 8.453125 6.6875 8.9375 C 6.832031 9.421875 7.019531 9.796875 7.257812 10.0625 C 7.5 10.324219 7.761719 10.457031 8.050781 10.457031 C 8.351562 10.457031 8.617188 10.320312 8.847656 10.046875 C 9.078125 9.773438 9.253906 9.394531 9.375 8.902344 C 9.5 8.410156 9.558594 7.851562 9.558594 7.21875 C 9.558594 6.578125 9.488281 6.019531 9.347656 5.535156 C 9.207031 5.050781 9.015625 4.675781 8.777344 4.410156 C 8.539062 4.148438 8.273438 4.015625 7.984375 4.015625 C 7.683594 4.015625 7.421875 4.152344 7.191406 4.425781 C 6.960938 4.699219 6.785156 5.082031 6.660156 5.570312 C 6.539062 6.0625 6.476562 6.621094 6.476562 7.253906 Z M 12.925781 3.851562 C 13.257812 3.851562 13.5 3.964844 13.652344 4.191406 C 13.722656 4.28125 13.777344 4.40625 13.820312 4.558594 C 13.863281 4.710938 13.882812 4.882812 13.882812 5.066406 C 13.882812 5.382812 13.800781 5.679688 13.636719 5.949219 C 13.46875 6.21875 13.226562 6.425781 12.910156 6.574219 L 12.824219 6.40625 C 12.984375 6.335938 13.128906 6.230469 13.253906 6.089844 C 13.378906 5.953125 13.464844 5.808594 13.515625 5.652344 C 13.546875 5.566406 13.5625 5.464844 13.5625 5.351562 C 13.5625 5.257812 13.554688 5.191406 13.542969 5.148438 C 13.382812 5.339844 13.160156 5.433594 12.871094 5.433594 C 12.625 5.433594 12.429688 5.363281 12.28125 5.226562 C 12.136719 5.089844 12.0625 4.894531 12.0625 4.640625 C 12.0625 4.402344 12.140625 4.210938 12.300781 4.066406 C 12.460938 3.921875 12.667969 3.851562 12.925781 3.851562 Z M 15.042969 3.851562 C 15.375 3.851562 15.617188 3.964844 15.769531 4.191406 C 15.835938 4.28125 15.894531 4.40625 15.9375 4.558594 C 15.980469 4.710938 16 4.882812 16 5.066406 C 16 5.382812 15.917969 5.679688 15.753906 5.949219 C 15.585938 6.21875 15.34375 6.425781 15.023438 6.574219 L 14.941406 6.40625 C 15.101562 6.335938 15.242188 6.230469 15.371094 6.089844 C 15.496094 5.953125 15.582031 5.808594 15.632812 5.652344 C 15.664062 5.566406 15.679688 5.464844 15.679688 5.351562 C 15.679688 5.257812 15.671875 5.191406 15.660156 5.148438 C 15.5 5.339844 15.277344 5.433594 14.988281 5.433594 C 14.742188 5.433594 14.546875 5.363281 14.398438 5.226562 C 14.25 5.089844 14.179688 4.894531 14.179688 4.640625 C 14.179688 4.402344 14.257812 4.210938 14.417969 4.066406 C 14.578125 3.921875 14.785156 3.851562 15.042969 3.851562 Z M 15.042969 3.851562 "/>
</g>
</svg>
