
<svg xmlns="http://www.w3.org/2000/svg" xmlns:xlink="http://www.w3.org/1999/xlink" width="16px" height="16px" viewBox="0 0 16 16" version="1.1">
<g id="surface1">
<path style=" stroke:none;fill-rule:nonzero;fill:#ff6666;fill-opacity:1;" d="M 9.144531 0.382812 C 8.722656 0.382812 8.382812 0.722656 8.382812 1.144531 L 8.382812 6.617188 L 7.570312 7.425781 C 7.289062 5.566406 5.691406 4.191406 3.808594 4.191406 C 1.707031 4.191406 0 5.894531 0 8 C 0 10.105469 1.707031 11.808594 3.808594 11.808594 C 4.632812 11.808594 5.4375 11.539062 6.09375 11.042969 L 6.09375 14.855469 C 6.09375 15.277344 6.433594 15.617188 6.855469 15.617188 C 7.277344 15.617188 7.617188 15.277344 7.617188 14.855469 L 7.617188 9.535156 L 8.449219 8.703125 C 8.789062 10.503906 10.359375 11.808594 12.191406 11.808594 C 14.292969 11.808594 16 10.105469 16 8 C 16 5.894531 14.292969 4.191406 12.191406 4.191406 C 11.367188 4.191406 10.5625 4.460938 9.90625 4.957031 L 9.90625 1.144531 C 9.90625 0.722656 9.566406 0.382812 9.144531 0.382812 Z M 3.808594 5.714844 C 5.070312 5.714844 6.097656 6.738281 6.097656 8 C 6.097656 9.261719 5.070312 10.285156 3.808594 10.285156 C 2.546875 10.285156 1.523438 9.261719 1.523438 8 C 1.523438 6.738281 2.546875 5.714844 3.808594 5.714844 Z M 12.191406 5.714844 C 13.453125 5.714844 14.476562 6.738281 14.476562 8 C 14.476562 9.261719 13.453125 10.285156 12.191406 10.285156 C 10.929688 10.285156 9.90625 9.261719 9.90625 8 C 9.90625 6.738281 10.929688 5.714844 12.191406 5.714844 Z M 12.191406 5.714844 "/>
</g>
</svg>
