
<svg xmlns="http://www.w3.org/2000/svg" xmlns:xlink="http://www.w3.org/1999/xlink" width="16px" height="16px" viewBox="0 0 16 16" version="1.1">
<g id="surface1">
<path style=" stroke:none;fill-rule:nonzero;fill:#ff6666;fill-opacity:1;" d="M 4.839844 5.328125 C 4.855469 5.769531 4.621094 5.835938 4.414062 5.816406 C 4.214844 5.804688 3.894531 5.722656 3.988281 5.234375 C 4.207031 4.089844 3.425781 3.425781 2.683594 3.011719 C 4.195312 4.953125 2.800781 4.957031 2.101562 7.453125 C 1.957031 7.964844 1.828125 8.484375 1.824219 8.980469 C 1.820312 9.308594 2.019531 9.621094 2.152344 9.921875 C 2.25 10.132812 2.503906 10.390625 2.476562 10.648438 C 2.453125 10.917969 2.265625 11.125 2.148438 11.359375 C 1.964844 11.71875 1.261719 12.042969 1.109375 12.363281 C 1.023438 12.542969 1.234375 12.675781 1.386719 12.761719 C 1.617188 12.890625 1.929688 12.933594 2.066406 13.171875 C 2.160156 13.339844 2.136719 13.515625 2.054688 13.675781 C 1.980469 13.824219 1.925781 14.050781 2.078125 14.152344 C 2.191406 14.226562 2.339844 14.265625 2.417969 14.394531 C 2.488281 14.519531 2.457031 14.664062 2.574219 14.761719 C 2.769531 14.921875 3.09375 14.90625 3.242188 15.238281 C 3.3125 15.394531 3.359375 15.566406 3.449219 15.71875 C 3.589844 15.949219 3.980469 16.019531 4.25 15.996094 C 4.539062 15.96875 4.753906 15.878906 5.03125 15.796875 C 5.75 15.578125 6.429688 15.289062 7.070312 14.890625 C 7.613281 14.554688 7.941406 14.363281 8.425781 14.082031 C 8.78125 13.886719 9.289062 13.949219 9.679688 13.851562 C 10.167969 13.730469 10.75 13.535156 11.09375 13.203125 C 11.457031 12.851562 11.609375 12.574219 11.71875 11.925781 C 11.5625 12.140625 11.15625 12.84375 10.753906 12.972656 C 10.3125 13.113281 10.105469 13.039062 9.96875 12.863281 C 9.855469 12.710938 9.824219 12.507812 9.832031 12.320312 C 10.09375 11.476562 11.277344 11.609375 12.035156 11.316406 C 13.417969 10.785156 13.734375 9.777344 13.828125 8.828125 C 13.871094 8.3125 13.941406 7.964844 14.832031 6.925781 C 13.714844 7.394531 13.253906 7.621094 12.996094 8.171875 C 12.757812 8.6875 11.871094 8.980469 11.414062 8.472656 C 10.835938 7.824219 12.257812 7.273438 13.203125 7.042969 C 13.960938 6.859375 14.675781 6.117188 14.832031 5.40625 C 15.082031 3.773438 14.464844 2.738281 14.398438 1.703125 C 14.363281 1.164062 14.597656 0.625 14.910156 0 C 12.214844 2.0625 14.503906 3.183594 12.78125 4.882812 C 11.796875 5.84375 10.984375 5.332031 11.367188 4.507812 C 11.621094 3.976562 11.859375 4.082031 12.0625 2.855469 C 11.5 3.648438 9.984375 3.621094 9.476562 4.914062 C 9.0625 5.9375 8.730469 5.945312 8.523438 5.660156 C 8.273438 5.316406 8.261719 4.070312 9.375 3.484375 C 10.238281 3.027344 11.917969 3.320312 12.421875 0.078125 C 11.410156 1.996094 9.179688 1.691406 7.183594 2.523438 C 6.148438 2.949219 4.785156 4.097656 4.839844 5.328125 "/>
</g>
</svg>
