
<svg xmlns="http://www.w3.org/2000/svg" xmlns:xlink="http://www.w3.org/1999/xlink" width="16px" height="16px" viewBox="0 0 16 16" version="1.1">
<g id="surface1">
<path style=" stroke:none;fill-rule:nonzero;fill:#ff6666;fill-opacity:1;" d="M 4.847656 0 C 1.503906 0 1.3125 0.015625 0.964844 0.335938 C 0.269531 0.964844 0.652344 2.253906 1.539062 2.257812 C 1.75 2.257812 2.0625 2.304688 2.234375 2.355469 L 2.550781 2.453125 L 2.550781 13.535156 L 2.152344 13.535156 C 1.570312 13.535156 0.890625 13.847656 0.730469 14.1875 C 0.421875 14.855469 0.664062 15.570312 1.292969 15.835938 C 1.410156 15.886719 2.621094 15.933594 3.988281 15.9375 C 5.847656 15.949219 6.589844 15.894531 6.949219 15.71875 L 6.949219 15.722656 C 7.496094 15.457031 7.703125 14.863281 7.464844 14.257812 C 7.28125 13.792969 6.566406 13.535156 5.449219 13.535156 L 4.644531 13.535156 L 4.644531 9.183594 L 7.691406 9.183594 L 8.4375 10.117188 C 9.253906 11.132812 10.476562 13.183594 11.296875 14.898438 L 11.8125 15.984375 C 11.8125 15.984375 12.433594 15.996094 13.613281 16 C 14.789062 16.003906 15.402344 15.652344 15.402344 14.722656 C 15.402344 14.015625 14.96875 13.691406 13.878906 13.578125 L 13.039062 13.492188 L 12.261719 12.074219 C 11.835938 11.296875 11.195312 10.289062 10.84375 9.835938 C 10.488281 9.382812 10.222656 8.992188 10.25 8.96875 C 10.921875 8.453125 11.667969 7.703125 11.898438 7.316406 C 13.054688 5.378906 12.402344 2.355469 10.539062 0.988281 C 9.328125 0.105469 8.730469 0 4.847656 0 Z M 4.644531 2.417969 L 6.636719 2.421875 C 7.46875 2.421875 7.988281 2.4375 8.367188 2.480469 C 8.554688 2.503906 8.703125 2.535156 8.839844 2.574219 C 8.976562 2.617188 9.09375 2.667969 9.21875 2.734375 C 9.410156 2.832031 9.574219 2.953125 9.71875 3.09375 C 9.863281 3.234375 9.984375 3.394531 10.082031 3.574219 C 10.179688 3.753906 10.25 3.953125 10.300781 4.171875 C 10.347656 4.390625 10.371094 4.628906 10.375 4.882812 C 10.375 5.070312 10.363281 5.242188 10.335938 5.398438 C 10.3125 5.550781 10.269531 5.691406 10.210938 5.8125 C 10.152344 5.9375 10.078125 6.046875 9.984375 6.140625 C 9.886719 6.238281 9.769531 6.320312 9.632812 6.390625 C 9.492188 6.460938 9.328125 6.519531 9.136719 6.566406 C 8.949219 6.617188 8.730469 6.65625 8.488281 6.683594 C 7.996094 6.742188 7.386719 6.765625 6.636719 6.765625 L 4.644531 6.765625 Z M 4.644531 2.417969 "/>
</g>
</svg>
