
<svg xmlns="http://www.w3.org/2000/svg" xmlns:xlink="http://www.w3.org/1999/xlink" width="16px" height="16px" viewBox="0 0 16 16" version="1.1">
<g id="surface1">
<path style=" stroke:none;fill-rule:nonzero;fill:#ff6666;fill-opacity:1;" d="M 6.535156 0 C 5.480469 0.117188 4.449219 0.429688 3.507812 0.925781 C 3.5 0.941406 3.488281 0.96875 3.488281 0.972656 C 3.5 1.007812 3.574219 0.992188 3.851562 0.894531 C 4.347656 0.722656 4.875 0.605469 5.15625 0.601562 C 5.566406 0.675781 5.84375 0.886719 6.105469 1.273438 C 6.507812 1.847656 6.714844 2.410156 6.984375 3.667969 C 7.035156 3.898438 7.03125 4.390625 6.976562 4.660156 C 6.84375 5.328125 6.550781 6.132812 6.144531 6.933594 L 1.710938 14.894531 C 1.679688 14.953125 1.539062 15.191406 1.292969 15.609375 C 1.714844 15.785156 2.382812 15.910156 3.292969 15.96875 L 7.398438 6.179688 C 7.535156 5.96875 7.683594 5.851562 7.789062 5.871094 C 7.867188 5.890625 7.980469 6.03125 8.144531 6.316406 C 9.480469 8.683594 10.261719 11.808594 11.285156 14.230469 C 11.46875 14.78125 11.714844 15.433594 11.949219 16 C 13.183594 15.960938 14.105469 15.796875 14.707031 15.515625 C 14.402344 14.863281 14.1875 14.394531 14.0625 14.109375 C 12.199219 9.488281 8.148438 1.035156 8.148438 1.035156 C 8.039062 0.867188 7.816406 0.597656 7.710938 0.503906 C 7.417969 0.246094 6.988281 0.0390625 6.535156 0 Z M 6.535156 0 "/>
</g>
</svg>
