
<svg xmlns="http://www.w3.org/2000/svg" xmlns:xlink="http://www.w3.org/1999/xlink" width="16px" height="16px" viewBox="0 0 16 16" version="1.1">
<g id="surface1">
<path style=" stroke:none;fill-rule:nonzero;fill:#ff6666;fill-opacity:1;" d="M 8.644531 0 C 8.660156 2.050781 8.671875 3.542969 8.679688 5.015625 L 8.691406 5 C 8.691406 5 9.78125 6.058594 10.335938 5.117188 C 10.890625 4.171875 10.808594 3.730469 10.871094 3.433594 C 10.933594 3.136719 11.160156 2.691406 11.589844 3.308594 C 12.019531 3.925781 12.449219 4.644531 11.664062 6.816406 C 10.882812 8.988281 11.496094 10.117188 11.90625 11 C 12.3125 11.882812 13.359375 13.503906 12.125 14.609375 C 10.894531 15.714844 8.863281 15.980469 7.980469 16 C 7.097656 16.015625 4.394531 15.894531 3.746094 14.761719 C 3.234375 13.871094 3.105469 13.160156 3.617188 11.707031 C 4.132812 10.25 4.789062 9.636719 4.421875 8.570312 C 4.054688 7.5 3.648438 6.34375 3.730469 5.921875 C 3.855469 5.265625 4.328125 4.445312 4.757812 4.816406 C 5.1875 5.1875 4.957031 6.621094 5.902344 6.621094 C 6.324219 6.621094 6.730469 6.339844 7.046875 6.027344 L 7.136719 0 Z M 8.644531 0 "/>
</g>
</svg>
