
<svg xmlns="http://www.w3.org/2000/svg" xmlns:xlink="http://www.w3.org/1999/xlink" width="16px" height="16px" viewBox="0 0 16 16" version="1.1">
<g id="surface1">
<path style=" stroke:none;fill-rule:nonzero;fill:#ff6666;fill-opacity:1;" d="M 10.867188 12.355469 C 10.867188 13.019531 9.949219 14.9375 8.828125 14.9375 C 7.433594 14.9375 5.433594 13.414062 5.433594 12.417969 C 5.433594 11.421875 6.753906 10.863281 8.152344 10.863281 C 9.546875 10.863281 10.867188 11.648438 10.867188 12.355469 Z M 14.261719 7.136719 C 14.261719 7.695312 13.652344 8.148438 12.902344 8.148438 C 12.152344 8.148438 11.546875 7.695312 11.546875 7.136719 C 11.546875 6.578125 12.152344 6.125 12.902344 6.125 C 13.652344 6.125 14.261719 6.578125 14.261719 7.136719 Z M 15.519531 1.0625 C 15.519531 1.0625 10.53125 5.167969 5.074219 5.339844 C 3.578125 5.382812 2.484375 5.007812 1.746094 4.660156 C 1.011719 4.308594 0.304688 3.617188 0.304688 3.617188 L 0 4.304688 C 0 4.304688 0.289062 4.605469 0.527344 4.777344 C 0.722656 5.8125 1.59375 8.828125 4.757812 8.828125 C 7.433594 8.828125 8.445312 6.648438 8.734375 5.554688 C 12.699219 4.425781 16 1.578125 16 1.578125 Z M 15.519531 1.0625 "/>
</g>
</svg>
