
<svg xmlns="http://www.w3.org/2000/svg" xmlns:xlink="http://www.w3.org/1999/xlink" width="16px" height="16px" viewBox="0 0 16 16" version="1.1">
<g id="surface1">
<path style=" stroke:none;fill-rule:nonzero;fill:#ff6666;fill-opacity:1;" d="M 5.539062 0 C 4.730469 0 4.089844 0.0742188 3.546875 0.277344 C 3.007812 0.480469 2.574219 0.84375 2.320312 1.308594 C 1.808594 2.234375 1.863281 3.367188 1.84375 4.914062 L 1.84375 11.082031 C 1.863281 12.632812 1.808594 13.765625 2.320312 14.691406 C 2.574219 15.15625 3.007812 15.523438 3.546875 15.722656 C 4.089844 15.925781 4.730469 16 5.539062 16 L 10.460938 16 C 11.269531 16 11.910156 15.925781 12.453125 15.722656 C 12.992188 15.519531 13.421875 15.15625 13.675781 14.691406 C 14.1875 13.765625 14.136719 12.632812 14.15625 11.082031 L 14.15625 6.582031 L 12.894531 4.691406 C 12.882812 3.285156 12.929688 2.175781 12.449219 1.304688 C 12.195312 0.84375 11.761719 0.476562 11.21875 0.273438 C 10.679688 0.0742188 10.039062 0 9.230469 0 Z M 5.539062 1.230469 L 9.230469 1.230469 C 9.960938 1.230469 10.46875 1.308594 10.789062 1.429688 C 11.109375 1.546875 11.246094 1.679688 11.371094 1.90625 C 11.621094 2.355469 11.671875 3.375 11.691406 4.929688 L 11.695312 5.113281 L 12.921875 6.957031 L 12.921875 11.070312 C 12.90625 12.625 12.851562 13.644531 12.601562 14.09375 C 12.476562 14.320312 12.339844 14.453125 12.019531 14.574219 C 11.699219 14.691406 11.191406 14.769531 10.460938 14.769531 L 5.539062 14.769531 C 4.808594 14.769531 4.300781 14.691406 3.980469 14.574219 C 3.660156 14.453125 3.523438 14.320312 3.398438 14.09375 C 3.148438 13.644531 3.09375 12.625 3.078125 11.078125 L 3.078125 4.921875 C 3.09375 3.375 3.148438 2.355469 3.398438 1.90625 C 3.523438 1.679688 3.660156 1.546875 3.980469 1.429688 C 4.300781 1.308594 4.808594 1.230469 5.539062 1.230469 Z M 4.308594 2.460938 L 4.308594 4.921875 L 5.539062 4.921875 L 5.539062 2.460938 Z M 6.769531 2.460938 L 6.769531 4.921875 L 8 4.921875 L 8 2.460938 Z M 9.230469 2.460938 L 9.230469 4.921875 L 10.460938 4.921875 L 10.460938 2.460938 Z M 9.230469 2.460938 "/>
</g>
</svg>
