
<svg xmlns="http://www.w3.org/2000/svg" xmlns:xlink="http://www.w3.org/1999/xlink" width="16px" height="16px" viewBox="0 0 16 16" version="1.1">
<g id="surface1">
<path style=" stroke:none;fill-rule:nonzero;fill:#ff6666;fill-opacity:1;" d="M 15.753906 0 C 15.722656 0 15.664062 0.00390625 15.601562 0.0078125 C 15.519531 0.0117188 15.445312 0.015625 15.441406 0.015625 C 15.433594 0.015625 15.402344 0.0507812 15.371094 0.09375 C 15.339844 0.140625 15.308594 0.179688 15.300781 0.183594 C 15.292969 0.1875 15.238281 0.210938 15.183594 0.230469 C 15.085938 0.265625 15.074219 0.265625 15.042969 0.257812 C 14.996094 0.246094 14.929688 0.25 14.347656 0.296875 L 14.078125 0.316406 L 13.941406 0.445312 C 13.867188 0.515625 13.804688 0.578125 13.800781 0.585938 C 13.792969 0.589844 13.753906 0.609375 13.707031 0.621094 C 13.542969 0.675781 13.40625 0.753906 13.3125 0.851562 C 13.246094 0.917969 13.222656 0.953125 13.171875 1.082031 C 13.148438 1.136719 13.128906 1.183594 13.125 1.183594 C 13.121094 1.1875 13.089844 1.167969 13.050781 1.144531 C 12.839844 1.007812 12.632812 0.941406 12.402344 0.941406 C 12.078125 0.941406 11.785156 1.03125 11.566406 1.195312 C 11.355469 1.355469 11.179688 1.554688 11.082031 1.75 C 11.042969 1.824219 11.003906 1.976562 10.984375 2.125 C 10.964844 2.277344 10.972656 2.53125 10.996094 2.648438 C 11.039062 2.851562 11.210938 3.226562 11.398438 3.539062 C 11.621094 3.90625 11.804688 4.140625 12.25 4.621094 C 12.421875 4.808594 12.457031 4.847656 12.8125 5.214844 C 13.09375 5.5 13.183594 5.605469 13.300781 5.78125 C 13.554688 6.167969 13.683594 6.535156 13.644531 6.75 C 13.625 6.859375 13.550781 6.972656 13.449219 7.050781 C 13.378906 7.101562 13.222656 7.179688 13.132812 7.207031 C 13.054688 7.230469 12.960938 7.25 12.949219 7.242188 C 12.949219 7.242188 12.960938 7.183594 12.976562 7.113281 C 13.03125 6.890625 13.054688 6.691406 13.042969 6.5 C 13.019531 6.167969 12.890625 5.835938 12.695312 5.625 C 12.542969 5.460938 12.265625 5.273438 12.0625 5.203125 C 11.945312 5.160156 11.882812 5.152344 11.746094 5.15625 C 11.597656 5.160156 11.519531 5.179688 11.414062 5.230469 C 11.28125 5.296875 11.214844 5.390625 11.214844 5.507812 C 11.214844 5.5625 11.21875 5.578125 11.238281 5.617188 C 11.273438 5.675781 11.328125 5.734375 11.375 5.753906 C 11.394531 5.761719 11.449219 5.773438 11.496094 5.777344 C 11.613281 5.789062 11.699219 5.816406 11.800781 5.863281 C 11.898438 5.910156 11.964844 5.957031 12.054688 6.042969 C 12.160156 6.148438 12.21875 6.253906 12.25 6.398438 C 12.269531 6.480469 12.269531 6.660156 12.25 6.734375 C 12.230469 6.8125 12.1875 6.921875 12.167969 6.949219 L 12.148438 6.972656 L 11.988281 6.8125 C 11.773438 6.601562 11.476562 6.324219 11.394531 6.257812 C 11.097656 6.007812 10.792969 5.832031 10.546875 5.769531 C 10.507812 5.757812 10.472656 5.746094 10.46875 5.742188 C 10.460938 5.738281 10.453125 5.703125 10.445312 5.664062 C 10.398438 5.355469 10.261719 5 10.09375 4.75 C 9.996094 4.601562 9.910156 4.503906 9.738281 4.332031 C 9.484375 4.078125 9.25 3.902344 9 3.78125 L 8.871094 3.71875 L 8.847656 3.632812 C 8.773438 3.371094 8.636719 3.089844 8.46875 2.871094 C 8.394531 2.769531 8.226562 2.597656 8.128906 2.519531 C 7.871094 2.316406 7.585938 2.195312 7.226562 2.140625 C 7.078125 2.117188 6.777344 2.109375 6.632812 2.125 C 6.332031 2.152344 6.078125 2.242188 5.894531 2.382812 C 5.519531 2.660156 5.183594 3.140625 5.03125 3.605469 C 4.910156 3.976562 4.496094 5.652344 4.285156 6.632812 C 4.257812 6.757812 4.230469 6.816406 4.148438 6.929688 C 4.066406 7.042969 3.996094 7.117188 3.933594 7.15625 C 3.890625 7.179688 3.878906 7.183594 3.824219 7.183594 C 3.75 7.183594 3.679688 7.152344 3.652344 7.113281 C 3.601562 7.042969 3.578125 6.910156 3.585938 6.726562 C 3.589844 6.597656 3.601562 6.527344 3.65625 6.246094 C 3.714844 5.945312 3.660156 5.726562 3.484375 5.546875 C 3.398438 5.457031 3.265625 5.378906 3.140625 5.34375 C 3.0625 5.320312 2.902344 5.324219 2.816406 5.347656 C 2.578125 5.410156 2.386719 5.554688 2.257812 5.765625 C 2.234375 5.804688 2.210938 5.855469 2.199219 5.882812 C 2.164062 5.960938 2.164062 5.960938 2.109375 5.875 C 2.082031 5.835938 2.03125 5.773438 2 5.742188 C 1.941406 5.683594 1.941406 5.683594 1.824219 5.644531 C 1.761719 5.625 1.683594 5.59375 1.648438 5.574219 C 1.558594 5.53125 1.488281 5.511719 1.402344 5.5 C 1.363281 5.496094 1.238281 5.476562 1.128906 5.457031 C 0.9375 5.425781 0.925781 5.425781 0.839844 5.382812 C 0.738281 5.335938 0.75 5.347656 0.644531 5.1875 C 0.582031 5.085938 0.535156 5.042969 0.464844 5.027344 C 0.335938 4.996094 0.175781 5.117188 0.164062 5.257812 C 0.160156 5.300781 0.15625 5.308594 0.136719 5.320312 C 0.09375 5.34375 0.0429688 5.394531 0.0195312 5.4375 C -0.03125 5.554688 0.0234375 5.714844 0.132812 5.765625 C 0.160156 5.777344 0.382812 5.8125 0.429688 5.8125 C 0.4375 5.8125 0.480469 5.839844 0.523438 5.875 C 0.605469 5.933594 0.609375 5.9375 0.679688 6.054688 C 0.71875 6.117188 0.773438 6.195312 0.796875 6.222656 C 0.820312 6.253906 0.847656 6.289062 0.855469 6.308594 C 0.886719 6.367188 0.972656 6.476562 1.023438 6.515625 C 1.050781 6.535156 1.085938 6.578125 1.109375 6.605469 C 1.210938 6.742188 1.328125 6.800781 1.5625 6.824219 L 1.65625 6.835938 L 1.726562 6.886719 C 1.824219 6.953125 1.949219 7.015625 2.050781 7.042969 C 2.164062 7.070312 2.289062 7.066406 2.414062 7.03125 C 2.460938 7.015625 2.496094 7.007812 2.5 7.011719 C 2.503906 7.015625 2.507812 7.0625 2.511719 7.117188 C 2.546875 7.476562 2.695312 7.773438 2.964844 8.003906 C 3.199219 8.207031 3.378906 8.289062 3.695312 8.34375 C 3.808594 8.359375 4.03125 8.363281 4.128906 8.347656 C 4.308594 8.316406 4.53125 8.214844 4.710938 8.082031 C 4.921875 7.925781 5.121094 7.652344 5.328125 7.234375 C 5.550781 6.796875 5.667969 6.445312 5.820312 5.753906 C 5.898438 5.40625 5.976562 5.011719 6.023438 4.71875 C 6.039062 4.613281 6.0625 4.480469 6.078125 4.421875 C 6.152344 4.117188 6.285156 3.84375 6.472656 3.605469 C 6.539062 3.519531 6.679688 3.382812 6.734375 3.355469 C 6.859375 3.289062 7.03125 3.289062 7.1875 3.359375 C 7.246094 3.386719 7.535156 3.601562 7.535156 3.617188 C 7.53125 3.621094 7.484375 3.648438 7.425781 3.671875 C 7.175781 3.769531 6.964844 3.902344 6.804688 4.070312 C 6.621094 4.253906 6.476562 4.484375 6.398438 4.714844 C 6.355469 4.84375 6.347656 4.914062 6.347656 5.085938 C 6.347656 5.289062 6.371094 5.445312 6.433594 5.597656 C 6.515625 5.8125 6.691406 5.988281 6.894531 6.058594 C 7.011719 6.101562 7.097656 6.085938 7.171875 6.015625 C 7.234375 5.953125 7.265625 5.871094 7.253906 5.792969 C 7.25 5.773438 7.226562 5.722656 7.203125 5.679688 C 7.121094 5.539062 7.078125 5.410156 7.070312 5.277344 C 7.0625 5.144531 7.101562 4.953125 7.15625 4.839844 C 7.191406 4.765625 7.277344 4.671875 7.363281 4.605469 C 7.472656 4.523438 7.640625 4.453125 7.753906 4.441406 L 7.800781 4.433594 L 7.796875 4.511719 C 7.789062 4.59375 7.785156 4.621094 7.71875 4.984375 C 7.699219 5.105469 7.675781 5.246094 7.667969 5.296875 C 7.613281 5.726562 7.640625 6.144531 7.738281 6.398438 C 7.738281 6.40625 7.714844 6.425781 7.683594 6.449219 C 7.371094 6.667969 7.09375 6.992188 6.925781 7.335938 C 6.730469 7.734375 6.609375 8.195312 6.609375 8.558594 L 6.609375 8.664062 L 6.546875 8.71875 C 6.453125 8.792969 6.320312 8.925781 6.242188 9.023438 C 5.929688 9.410156 5.773438 9.855469 5.789062 10.316406 C 5.796875 10.527344 5.824219 10.664062 5.902344 10.890625 C 6.039062 11.300781 6.25 11.613281 6.515625 11.8125 C 6.59375 11.871094 6.851562 11.996094 6.992188 12.046875 C 7.289062 12.148438 7.597656 12.191406 7.894531 12.183594 C 8.03125 12.175781 8.050781 12.175781 9.039062 11.988281 C 9.59375 11.882812 10.292969 11.75 10.597656 11.691406 C 10.90625 11.632812 11.191406 11.578125 11.238281 11.566406 C 11.449219 11.523438 11.691406 11.574219 11.828125 11.691406 C 11.894531 11.753906 11.933594 11.847656 11.921875 11.925781 C 11.90625 11.988281 11.800781 12.082031 11.664062 12.144531 C 11.542969 12.199219 11.425781 12.230469 11.1875 12.277344 C 11.007812 12.3125 10.972656 12.324219 10.878906 12.371094 C 10.695312 12.46875 10.542969 12.640625 10.496094 12.816406 C 10.472656 12.902344 10.46875 13.082031 10.492188 13.160156 C 10.554688 13.394531 10.726562 13.585938 10.964844 13.6875 C 11.09375 13.746094 11.277344 13.78125 11.398438 13.769531 C 11.429688 13.765625 11.457031 13.765625 11.460938 13.769531 C 11.460938 13.773438 11.445312 13.808594 11.421875 13.847656 C 11.398438 13.886719 11.367188 13.945312 11.355469 13.980469 C 11.320312 14.058594 11.320312 14.074219 11.335938 14.332031 C 11.347656 14.511719 11.359375 14.597656 11.394531 14.6875 C 11.40625 14.714844 11.417969 14.765625 11.421875 14.808594 C 11.4375 14.9375 11.453125 15.007812 11.476562 15.0625 L 11.496094 15.113281 L 11.488281 15.246094 L 11.476562 15.382812 L 11.40625 15.488281 C 11.332031 15.609375 11.3125 15.65625 11.3125 15.707031 C 11.3125 15.769531 11.328125 15.808594 11.378906 15.855469 C 11.460938 15.9375 11.554688 15.96875 11.640625 15.949219 C 11.683594 15.941406 11.6875 15.941406 11.714844 15.957031 C 11.730469 15.96875 11.761719 15.980469 11.78125 15.988281 C 11.847656 16.007812 11.902344 16.003906 11.96875 15.972656 C 12.042969 15.9375 12.089844 15.894531 12.117188 15.832031 C 12.148438 15.765625 12.140625 15.695312 12.09375 15.574219 L 12.058594 15.480469 L 12.082031 15.324219 C 12.105469 15.171875 12.105469 15.167969 12.136719 15.136719 C 12.183594 15.085938 12.199219 15.054688 12.226562 14.988281 C 12.242188 14.957031 12.277344 14.898438 12.308594 14.859375 C 12.371094 14.777344 12.433594 14.65625 12.457031 14.570312 C 12.46875 14.539062 12.496094 14.457031 12.523438 14.390625 L 12.570312 14.269531 L 12.566406 14.1875 C 12.5625 14.121094 12.554688 14.085938 12.527344 14.007812 L 12.496094 13.914062 L 12.511719 13.792969 C 12.527344 13.65625 12.527344 13.59375 12.515625 13.492188 C 12.496094 13.34375 12.449219 13.226562 12.359375 13.117188 C 12.328125 13.082031 12.304688 13.046875 12.304688 13.039062 C 12.304688 13.03125 12.339844 13.007812 12.382812 12.984375 C 12.535156 12.898438 12.707031 12.75 12.820312 12.609375 C 12.988281 12.394531 13.097656 11.988281 13.070312 11.695312 C 13.046875 11.445312 12.96875 11.21875 12.855469 11.042969 C 12.726562 10.851562 12.527344 10.679688 12.292969 10.5625 C 12.105469 10.46875 11.917969 10.425781 11.570312 10.386719 C 11.433594 10.371094 10.90625 10.371094 10.753906 10.386719 C 10.28125 10.429688 9.691406 10.546875 9.066406 10.722656 C 8.960938 10.75 8.820312 10.785156 8.757812 10.800781 C 8.628906 10.828125 7.917969 10.921875 7.835938 10.921875 C 7.777344 10.921875 7.597656 10.890625 7.515625 10.871094 C 7.34375 10.828125 7.199219 10.761719 7.136719 10.699219 C 7.089844 10.652344 7.027344 10.53125 7.007812 10.453125 C 7 10.429688 6.992188 10.378906 6.988281 10.34375 C 6.984375 10.28125 6.984375 10.265625 7.03125 10.078125 C 7.058594 9.96875 7.085938 9.882812 7.089844 9.882812 C 7.09375 9.882812 7.128906 9.910156 7.171875 9.949219 C 7.5 10.253906 7.914062 10.390625 8.257812 10.417969 C 8.71875 10.433594 9.3125 10.222656 9.507812 9.863281 C 9.632812 9.625 9.636719 9.382812 9.511719 9.269531 C 9.464844 9.226562 9.410156 9.207031 9.324219 9.207031 C 9.226562 9.207031 9.160156 9.242188 9.109375 9.324219 C 9.050781 9.414062 9.03125 9.4375 8.980469 9.488281 C 8.886719 9.585938 8.730469 9.664062 8.574219 9.703125 C 8.476562 9.730469 8.328125 9.730469 8.25 9.710938 C 8.171875 9.6875 8.046875 9.628906 7.984375 9.582031 C 7.894531 9.519531 7.757812 9.359375 7.753906 9.316406 C 7.753906 9.300781 7.988281 9.226562 8.304688 9.144531 C 8.621094 9.0625 8.832031 8.988281 9.066406 8.871094 C 9.289062 8.761719 9.429688 8.664062 9.574219 8.523438 C 9.621094 8.476562 9.667969 8.4375 9.671875 8.4375 C 9.675781 8.4375 9.707031 8.449219 9.734375 8.460938 C 9.882812 8.527344 10.132812 8.601562 10.3125 8.632812 C 10.546875 8.671875 10.734375 8.675781 10.964844 8.640625 C 11.386719 8.578125 11.742188 8.464844 12.035156 8.296875 C 12.078125 8.269531 12.117188 8.253906 12.121094 8.253906 C 12.128906 8.253906 12.191406 8.269531 12.261719 8.292969 C 12.484375 8.367188 12.675781 8.402344 12.910156 8.410156 C 13.25 8.421875 13.558594 8.359375 13.839844 8.21875 C 14.046875 8.117188 14.171875 8.023438 14.328125 7.859375 C 14.617188 7.566406 14.820312 7.230469 14.902344 6.925781 C 14.941406 6.78125 14.949219 6.691406 14.9375 6.535156 C 14.898438 6.039062 14.714844 5.570312 14.398438 5.152344 C 14.128906 4.796875 13.503906 4.074219 12.753906 3.261719 C 12.484375 2.964844 12.492188 2.972656 12.390625 2.851562 C 12.261719 2.691406 12.210938 2.574219 12.1875 2.378906 C 12.167969 2.222656 12.21875 2.105469 12.328125 2.066406 C 12.453125 2.015625 12.710938 2.171875 12.9375 2.429688 C 13.113281 2.632812 13.195312 2.699219 13.328125 2.765625 C 13.5625 2.882812 13.789062 2.875 14.015625 2.746094 C 14.117188 2.691406 14.226562 2.578125 14.273438 2.488281 C 14.324219 2.378906 14.351562 2.269531 14.355469 2.128906 C 14.363281 1.921875 14.320312 1.761719 14.214844 1.574219 C 14.195312 1.546875 14.1875 1.523438 14.1875 1.523438 C 14.191406 1.519531 14.269531 1.511719 14.363281 1.507812 C 14.527344 1.5 14.535156 1.496094 14.582031 1.472656 C 14.609375 1.460938 14.65625 1.433594 14.679688 1.414062 C 14.707031 1.398438 14.765625 1.359375 14.808594 1.328125 C 14.898438 1.265625 14.972656 1.199219 15.050781 1.101562 C 15.09375 1.050781 15.117188 1.027344 15.15625 1.007812 C 15.226562 0.972656 15.28125 0.917969 15.3125 0.855469 L 15.339844 0.804688 L 15.425781 0.773438 C 15.511719 0.742188 15.523438 0.742188 15.628906 0.742188 C 15.796875 0.738281 15.871094 0.71875 15.933594 0.660156 C 15.984375 0.605469 16 0.570312 16 0.480469 C 16 0.386719 15.984375 0.347656 15.929688 0.28125 C 15.902344 0.253906 15.894531 0.238281 15.890625 0.195312 C 15.882812 0.109375 15.820312 0.015625 15.769531 0 C 15.769531 0 15.761719 0 15.753906 0 Z M 8.644531 4.414062 C 8.652344 4.414062 8.664062 4.425781 8.695312 4.445312 C 8.84375 4.558594 8.992188 4.714844 9.113281 4.871094 C 9.355469 5.195312 9.484375 5.570312 9.46875 5.914062 C 9.460938 6.085938 9.417969 6.210938 9.332031 6.308594 C 9.261719 6.386719 9.179688 6.414062 9.074219 6.390625 C 8.875 6.347656 8.730469 6.195312 8.660156 5.953125 C 8.59375 5.722656 8.574219 5.242188 8.617188 4.824219 C 8.625 4.753906 8.632812 4.636719 8.632812 4.5625 C 8.632812 4.492188 8.632812 4.425781 8.640625 4.421875 C 8.640625 4.417969 8.640625 4.417969 8.644531 4.414062 Z M 10.179688 6.734375 C 10.296875 6.734375 10.421875 6.765625 10.554688 6.828125 C 10.6875 6.894531 11.003906 7.113281 11.253906 7.316406 C 11.46875 7.488281 11.652344 7.648438 11.648438 7.65625 C 11.644531 7.675781 11.441406 7.726562 11.277344 7.75 C 11.191406 7.761719 10.855469 7.773438 10.78125 7.765625 C 10.683594 7.757812 10.511719 7.726562 10.429688 7.703125 C 10.210938 7.640625 9.957031 7.484375 9.847656 7.339844 C 9.777344 7.246094 9.726562 7.113281 9.726562 7.035156 C 9.726562 6.992188 9.761719 6.929688 9.808594 6.882812 C 9.90625 6.78125 10.035156 6.734375 10.179688 6.734375 Z M 8.632812 7.132812 C 8.640625 7.132812 8.652344 7.132812 8.660156 7.132812 C 8.785156 7.144531 8.882812 7.175781 8.929688 7.226562 C 8.976562 7.277344 8.992188 7.402344 8.964844 7.507812 C 8.878906 7.835938 8.460938 8.148438 7.742188 8.421875 C 7.621094 8.46875 7.417969 8.53125 7.382812 8.53125 C 7.375 8.53125 7.375 8.523438 7.378906 8.5 C 7.402344 8.382812 7.476562 8.183594 7.5625 8.015625 C 7.769531 7.621094 8.058594 7.324219 8.378906 7.191406 C 8.472656 7.152344 8.554688 7.132812 8.632812 7.132812 Z M 8.632812 7.132812 "/>
</g>
</svg>
