
<svg xmlns="http://www.w3.org/2000/svg" xmlns:xlink="http://www.w3.org/1999/xlink" width="16px" height="16px" viewBox="0 0 16 16" version="1.1">
<g id="surface1">
<path style=" stroke:none;fill-rule:evenodd;fill:#ff6666;fill-opacity:1;" d="M 0 8 C 0 5.878906 0.84375 3.84375 2.34375 2.34375 C 3.84375 0.84375 5.878906 0 8 0 C 10.121094 0 12.15625 0.84375 13.65625 2.34375 C 15.15625 3.84375 16 5.878906 16 8 C 16 10.121094 15.15625 12.15625 13.65625 13.65625 C 12.15625 15.15625 10.121094 16 8 16 C 5.878906 16 3.84375 15.15625 2.34375 13.65625 C 0.84375 12.15625 0 10.121094 0 8 Z M 2.398438 8 C 2.398438 6.515625 2.992188 5.089844 4.039062 4.039062 C 5.089844 2.992188 6.515625 2.398438 8 2.398438 C 9.484375 2.398438 10.910156 2.992188 11.960938 4.039062 C 13.007812 5.089844 13.601562 6.515625 13.601562 8 C 13.601562 9.484375 13.007812 10.910156 11.960938 11.960938 C 10.910156 13.007812 9.484375 13.601562 8 13.601562 C 6.515625 13.601562 5.089844 13.007812 4.039062 11.960938 C 2.992188 10.910156 2.398438 9.484375 2.398438 8 Z M 2.398438 8 "/>
</g>
</svg>
