
<svg xmlns="http://www.w3.org/2000/svg" xmlns:xlink="http://www.w3.org/1999/xlink" width="16px" height="16px" viewBox="0 0 16 16" version="1.1">
<g id="surface1">
<path style=" stroke:none;fill-rule:evenodd;fill:#ff6666;fill-opacity:1;" d="M 9.453125 4.414062 L 9.152344 5.355469 L 10.285156 5.914062 L 8.824219 6.113281 L 8.5 7.144531 L 7.972656 5.992188 L 6.285156 5.792969 L 7.542969 5.199219 L 7.164062 4.285156 L 8.34375 4.890625 Z M 8.105469 11.714844 L 5.714844 10.222656 L 9.144531 9.429688 Z M 2.285156 7.714844 C 2.285156 7.085938 3.183594 6.570312 4.285156 6.570312 C 5.390625 6.570312 6.285156 7.085938 6.285156 7.714844 C 6.285156 8.34375 5.390625 8.855469 4.285156 8.855469 C 3.183594 8.855469 2.285156 8.34375 2.285156 7.714844 Z M 8 3.144531 C 7.46875 3.144531 6.9375 3.261719 6.546875 3.5 L 0.589844 7.117188 C -0.195312 7.59375 -0.195312 8.40625 0.589844 8.882812 L 6.546875 12.5 C 7.332031 12.976562 8.667969 12.976562 9.453125 12.5 L 15.410156 8.882812 C 16.195312 8.40625 16.195312 7.59375 15.410156 7.117188 L 9.453125 3.5 C 9.0625 3.261719 8.53125 3.144531 8 3.144531 Z M 11.429688 9.429688 L 9.144531 8.074219 L 11.429688 6.570312 L 13.714844 7.929688 Z M 11.429688 9.429688 "/>
</g>
</svg>
