
<svg xmlns="http://www.w3.org/2000/svg" xmlns:xlink="http://www.w3.org/1999/xlink" width="16px" height="16px" viewBox="0 0 16 16" version="1.1">
<g id="surface1">
<path style=" stroke:none;fill-rule:nonzero;fill:#ff6666;fill-opacity:1;" d="M 8.894531 0.445312 C 8.671875 0.441406 8.480469 0.601562 8.449219 0.824219 L 7.6875 5.789062 C 5.9375 5.839844 4.277344 6.335938 3.023438 7.179688 C 2.691406 6.851562 2.242188 6.667969 1.777344 6.667969 C 0.796875 6.667969 0 7.464844 0 8.445312 C 0 9.109375 0.371094 9.714844 0.957031 10.023438 C 0.914062 10.234375 0.890625 10.453125 0.890625 10.667969 C 0.890625 13.367188 4.074219 15.554688 8 15.554688 C 11.925781 15.554688 15.109375 13.367188 15.109375 10.667969 C 15.109375 10.453125 15.085938 10.238281 15.039062 10.023438 C 15.628906 9.71875 16 9.109375 16 8.445312 C 16 7.464844 15.203125 6.667969 14.222656 6.667969 C 13.753906 6.667969 13.308594 6.851562 12.972656 7.179688 C 11.789062 6.378906 10.234375 5.890625 8.582031 5.796875 L 9.257812 1.429688 L 11.566406 1.941406 C 11.648438 2.609375 12.214844 3.109375 12.890625 3.113281 C 13.625 3.113281 14.222656 2.515625 14.222656 1.777344 C 14.222656 1.042969 13.625 0.445312 12.890625 0.445312 C 12.429688 0.445312 12.003906 0.683594 11.761719 1.070312 L 8.988281 0.457031 C 8.957031 0.449219 8.925781 0.445312 8.894531 0.445312 Z M 5.777344 8.445312 C 6.515625 8.445312 7.109375 9.042969 7.109375 9.777344 C 7.109375 10.515625 6.515625 11.113281 5.777344 11.113281 C 5.039062 11.113281 4.445312 10.515625 4.445312 9.777344 C 4.445312 9.042969 5.039062 8.445312 5.777344 8.445312 Z M 10.222656 8.445312 C 10.960938 8.445312 11.554688 9.042969 11.554688 9.777344 C 11.554688 10.515625 10.960938 11.113281 10.222656 11.113281 C 9.484375 11.113281 8.890625 10.515625 8.890625 9.777344 C 8.890625 9.042969 9.484375 8.445312 10.222656 8.445312 Z M 11.085938 12.429688 C 11.5 12.394531 11.734375 12.894531 11.441406 13.1875 C 11.441406 13.1875 11.148438 13.496094 10.597656 13.753906 C 10.039062 14.007812 9.191406 14.246094 7.988281 14.226562 C 6.796875 14.203125 5.960938 13.96875 5.410156 13.726562 C 4.863281 13.484375 4.570312 13.199219 4.570312 13.199219 C 4.300781 12.933594 4.46875 12.46875 4.847656 12.441406 C 4.863281 12.4375 4.875 12.4375 4.890625 12.4375 C 5.011719 12.441406 5.125 12.488281 5.207031 12.578125 C 5.207031 12.578125 5.335938 12.71875 5.773438 12.910156 C 6.210938 13.105469 6.925781 13.3125 8.011719 13.332031 C 9.089844 13.351562 9.789062 13.144531 10.21875 12.945312 C 10.652344 12.746094 10.777344 12.589844 10.777344 12.589844 C 10.855469 12.496094 10.96875 12.441406 11.085938 12.429688 Z M 11.085938 12.429688 "/>
</g>
</svg>
