
<svg xmlns="http://www.w3.org/2000/svg" xmlns:xlink="http://www.w3.org/1999/xlink" width="16px" height="16px" viewBox="0 0 16 16" version="1.1">
<g id="surface1">
<path style=" stroke:none;fill-rule:evenodd;fill:#ff6666;fill-opacity:1;" d="M 5.640625 11.894531 L 4.609375 10.863281 L 1.808594 10.863281 L 1.808594 8.0625 L 0.0546875 6.308594 L 1.808594 4.554688 L 1.808594 1.753906 L 4.609375 1.753906 L 6.363281 0 L 8.117188 1.753906 L 10.921875 1.753906 L 10.921875 4.554688 L 12.128906 5.765625 C 14.328125 6.378906 15.945312 8.394531 15.945312 10.789062 C 15.945312 13.664062 13.609375 16 10.734375 16 C 8.238281 16 6.148438 14.238281 5.640625 11.894531 Z M 5.578125 10.070312 C 3.824219 9.71875 2.507812 8.167969 2.507812 6.308594 C 2.507812 4.179688 4.234375 2.453125 6.363281 2.453125 C 8.25 2.453125 9.824219 3.808594 10.144531 5.605469 C 7.78125 5.878906 5.894531 7.726562 5.578125 10.070312 Z M 5.578125 10.070312 "/>
</g>
</svg>
