
<svg xmlns="http://www.w3.org/2000/svg" xmlns:xlink="http://www.w3.org/1999/xlink" width="16px" height="16px" viewBox="0 0 16 16" version="1.1">
<g id="surface1">
<path style=" stroke:none;fill-rule:evenodd;fill:#ff6666;fill-opacity:1;" d="M 12.523438 6.789062 C 11.3125 9.871094 3.359375 10.34375 2.953125 9.101562 C 2.246094 6.71875 3.8125 4.269531 6.453125 3.632812 C 9.097656 2.992188 11.8125 4.40625 12.523438 6.789062 Z M 12.523438 7.652344 C 12.523438 7.652344 5.964844 12.398438 1.753906 10.878906 C 1.023438 10.304688 2.410156 9.34375 2.40625 9.125 C 0.796875 9.765625 0 10.597656 0 11.597656 C 0.683594 13.828125 6.902344 11.375 7.9375 10.90625 C 9.984375 9.925781 12.523438 7.652344 12.523438 7.652344 Z M 4.175781 12.523438 C 4.175781 12.523438 12.214844 10.664062 14.023438 6.695312 C 14.109375 5.804688 12.707031 6.140625 12.546875 5.996094 C 14.800781 4.964844 16.109375 6.027344 15.992188 6.695312 C 15.78125 7.90625 13.28125 9.890625 10.015625 11.183594 C 7.871094 12.003906 4.175781 12.523438 4.175781 12.523438 Z M 4.175781 12.523438 "/>
</g>
</svg>
