
<svg xmlns="http://www.w3.org/2000/svg" xmlns:xlink="http://www.w3.org/1999/xlink" width="16px" height="16px" viewBox="0 0 16 16" version="1.1">
<g id="surface1">
<path style=" stroke:none;fill-rule:nonzero;fill:#ff6666;fill-opacity:1;" d="M 1.914062 15.175781 C -0.015625 11.007812 -0.546875 6.339844 0.597656 3.574219 C 0.808594 3.066406 0.722656 3.105469 2.84375 2.519531 C 2.964844 2.484375 3.425781 2.121094 3.867188 1.714844 C 6.386719 -0.59375 9.753906 -0.570312 12.394531 1.78125 C 13.140625 2.441406 13.355469 2.5625 14.210938 2.78125 C 15.097656 3.003906 15.203125 3.066406 15.402344 3.464844 C 15.519531 3.703125 15.714844 4.367188 15.835938 4.945312 C 16.117188 6.316406 16.027344 9.230469 15.648438 10.808594 C 15.121094 13.023438 13.882812 16.070312 13.554688 15.976562 C 13.464844 15.949219 13.1875 15.546875 12.941406 15.085938 C 12.515625 14.167969 11.757812 13.351562 10.988281 13.070312 C 9.679688 12.59375 6.511719 12.765625 5.1875 13.050781 C 3.667969 13.378906 3.632812 14.03125 3.144531 15.066406 C 2.863281 15.660156 2.632812 16 2.5 16 C 2.371094 16 2.152344 15.695312 1.914062 15.175781 Z M 1.914062 15.175781 "/>
</g>
</svg>
