
<svg xmlns="http://www.w3.org/2000/svg" xmlns:xlink="http://www.w3.org/1999/xlink" width="16px" height="16px" viewBox="0 0 16 16" version="1.1">
<g id="surface1">
<path style=" stroke:none;fill-rule:nonzero;fill:#ff6666;fill-opacity:1;" d="M 8 0 C 5.160156 0 2.855469 2.308594 2.855469 5.15625 C 2.855469 6.84375 3.652344 8.316406 4.898438 9.257812 C 5.472656 9.691406 5.945312 10.25 5.945312 11.023438 L 6 12 L 10 12 L 10.058594 11.023438 C 10.101562 10.25 10.53125 9.691406 11.101562 9.257812 C 12.347656 8.316406 13.144531 6.84375 13.144531 5.15625 C 13.144531 2.308594 10.839844 0 8 0 Z M 8 2.058594 C 9.703125 2.058594 11.085938 3.449219 11.085938 5.15625 C 11.085938 6.128906 10.640625 7.027344 9.863281 7.609375 C 8.703125 8.488281 8.265625 9.46875 8.101562 10.285156 L 7.898438 10.285156 C 7.738281 9.46875 7.296875 8.488281 6.136719 7.609375 C 5.359375 7.027344 4.914062 6.128906 4.914062 5.15625 C 4.914062 3.449219 6.296875 2.058594 8 2.058594 Z M 6 13 L 6 14 L 10 14 L 10 13 Z M 7 15 L 7 16 L 9 16 L 9 15 Z M 7 15 "/>
</g>
</svg>
