
<svg xmlns="http://www.w3.org/2000/svg" xmlns:xlink="http://www.w3.org/1999/xlink" width="16px" height="16px" viewBox="0 0 16 16" version="1.1">
<g id="surface1">
<path style=" stroke:none;fill-rule:evenodd;fill:#ff6666;fill-opacity:1;" d="M 2.046875 3.488281 L 0 10.460938 L 0.847656 10.460938 L 2.871094 3.488281 Z M 6.5625 10.460938 L 6.5625 9.230469 L 7.796875 9.230469 L 7.796875 10.460938 Z M 10.660156 3.488281 L 8.613281 10.460938 L 9.460938 10.460938 L 11.488281 3.488281 Z M 13.488281 5.949219 C 13.738281 5.949219 13.957031 6.023438 14.152344 6.167969 C 14.347656 6.3125 14.5 6.523438 14.609375 6.800781 C 14.714844 7.074219 14.769531 7.617188 14.769531 7.996094 C 14.769531 8.367188 14.714844 8.535156 14.609375 8.808594 C 14.5 9.074219 14.347656 9.28125 14.152344 9.425781 C 13.953125 9.570312 13.730469 9.640625 13.476562 9.640625 C 13.050781 9.640625 12.746094 9.503906 12.570312 9.222656 C 12.394531 8.941406 12.308594 8.636719 12.308594 7.996094 C 12.308594 7.351562 12.402344 6.671875 12.589844 6.382812 C 12.777344 6.09375 13.078125 5.949219 13.488281 5.949219 Z M 15.164062 5.128906 C 15.148438 5.148438 15.136719 5.378906 15.121094 5.613281 C 15.109375 5.847656 15.101562 6.011719 15.101562 6.109375 L 15.09375 6.109375 C 14.941406 5.800781 14.730469 5.5625 14.453125 5.398438 C 14.175781 5.230469 13.851562 5.148438 13.476562 5.148438 C 12.808594 5.148438 12.308594 5.363281 11.976562 5.800781 C 11.652344 6.230469 11.488281 7.148438 11.488281 8.058594 C 11.488281 8.957031 11.640625 9.441406 11.941406 9.863281 C 12.25 10.28125 12.730469 10.488281 13.378906 10.488281 C 13.769531 10.488281 14.109375 10.40625 14.398438 10.242188 C 14.6875 10.074219 14.917969 9.824219 15.082031 9.496094 L 15.09375 9.496094 L 15.09375 10.324219 C 15.09375 11.324219 14.652344 11.695312 13.777344 11.695312 C 13.449219 11.695312 13.183594 11.632812 12.980469 11.503906 C 12.78125 11.375 12.652344 11.191406 12.59375 10.953125 L 11.707031 11.078125 C 11.804688 11.484375 12.027344 11.960938 12.367188 12.179688 C 12.710938 12.402344 13.171875 12.511719 13.753906 12.511719 C 15.230469 12.511719 16 11.75 16 10.304688 L 16 5.128906 Z M 3.699219 3.488281 L 5.742188 10.460938 L 4.898438 10.460938 L 2.871094 3.488281 Z M 3.699219 3.488281 "/>
</g>
</svg>
