
<svg xmlns="http://www.w3.org/2000/svg" xmlns:xlink="http://www.w3.org/1999/xlink" width="16px" height="16px" viewBox="0 0 16 16" version="1.1">
<g id="surface1">
<path style=" stroke:none;fill-rule:nonzero;fill:#ff6666;fill-opacity:1;" d="M 7.984375 0.273438 C 7.96875 0.273438 7.949219 0.273438 7.933594 0.273438 C 7.929688 0.277344 7.925781 0.277344 7.921875 0.277344 C 7.90625 0.28125 7.890625 0.28125 7.875 0.289062 C 7.859375 0.289062 7.84375 0.296875 7.828125 0.300781 C 7.820312 0.304688 7.8125 0.304688 7.804688 0.308594 C 7.800781 0.308594 7.796875 0.3125 7.789062 0.3125 C 7.777344 0.320312 7.765625 0.324219 7.753906 0.328125 C 7.75 0.332031 7.742188 0.335938 7.738281 0.339844 C 7.707031 0.359375 7.675781 0.378906 7.648438 0.40625 C 7.636719 0.414062 7.621094 0.429688 7.609375 0.441406 C 7.597656 0.453125 7.589844 0.464844 7.578125 0.476562 C 7.574219 0.480469 7.574219 0.484375 7.570312 0.488281 C 7.5625 0.5 7.554688 0.511719 7.546875 0.523438 C 7.542969 0.53125 7.539062 0.535156 7.539062 0.539062 C 7.535156 0.546875 7.53125 0.550781 7.527344 0.558594 L 0.0625 14.949219 C -0.0273438 15.117188 -0.0195312 15.316406 0.0820312 15.476562 C 0.179688 15.636719 0.355469 15.734375 0.546875 15.730469 L 15.453125 15.730469 C 15.457031 15.730469 15.460938 15.730469 15.46875 15.730469 C 15.472656 15.730469 15.476562 15.730469 15.484375 15.730469 C 15.496094 15.726562 15.511719 15.726562 15.527344 15.722656 C 15.542969 15.722656 15.558594 15.71875 15.574219 15.71875 C 15.59375 15.710938 15.613281 15.707031 15.632812 15.703125 C 15.636719 15.699219 15.640625 15.699219 15.644531 15.699219 C 15.652344 15.695312 15.65625 15.695312 15.660156 15.691406 C 15.675781 15.683594 15.6875 15.679688 15.703125 15.671875 C 15.71875 15.664062 15.730469 15.65625 15.746094 15.652344 C 15.75 15.648438 15.753906 15.644531 15.757812 15.640625 C 15.769531 15.632812 15.78125 15.625 15.796875 15.613281 C 15.800781 15.613281 15.804688 15.609375 15.808594 15.605469 C 15.820312 15.59375 15.832031 15.585938 15.84375 15.574219 C 15.84375 15.570312 15.847656 15.566406 15.851562 15.5625 C 15.855469 15.5625 15.859375 15.558594 15.859375 15.554688 C 15.871094 15.542969 15.882812 15.53125 15.890625 15.515625 C 15.898438 15.503906 15.910156 15.492188 15.917969 15.480469 C 15.921875 15.476562 15.921875 15.472656 15.925781 15.46875 C 15.933594 15.453125 15.941406 15.441406 15.949219 15.425781 C 15.949219 15.421875 15.953125 15.417969 15.953125 15.410156 C 15.960938 15.398438 15.964844 15.382812 15.96875 15.371094 C 15.972656 15.363281 15.972656 15.359375 15.972656 15.355469 C 15.980469 15.335938 15.984375 15.316406 15.988281 15.296875 C 15.992188 15.273438 15.996094 15.253906 16 15.234375 C 16 15.21875 16 15.203125 16 15.1875 C 16 15.183594 16 15.179688 16 15.171875 C 16 15.15625 16 15.140625 15.996094 15.125 C 15.996094 15.121094 15.996094 15.117188 15.996094 15.109375 C 15.992188 15.097656 15.988281 15.082031 15.984375 15.066406 C 15.984375 15.0625 15.980469 15.058594 15.980469 15.050781 C 15.976562 15.039062 15.972656 15.023438 15.96875 15.007812 C 15.964844 15.003906 15.964844 15 15.960938 14.996094 C 15.953125 14.980469 15.949219 14.964844 15.941406 14.953125 L 15.933594 14.9375 L 8.484375 0.578125 L 8.476562 0.570312 C 8.46875 0.546875 8.457031 0.527344 8.441406 0.507812 C 8.433594 0.492188 8.421875 0.476562 8.410156 0.464844 C 8.410156 0.460938 8.40625 0.460938 8.40625 0.457031 C 8.394531 0.445312 8.382812 0.433594 8.367188 0.421875 C 8.367188 0.417969 8.363281 0.414062 8.359375 0.414062 C 8.347656 0.402344 8.335938 0.390625 8.320312 0.382812 C 8.320312 0.378906 8.316406 0.375 8.3125 0.375 C 8.300781 0.363281 8.285156 0.355469 8.273438 0.34375 C 8.269531 0.34375 8.265625 0.34375 8.265625 0.34375 C 8.25 0.332031 8.234375 0.324219 8.21875 0.320312 C 8.214844 0.316406 8.210938 0.316406 8.210938 0.3125 C 8.191406 0.308594 8.175781 0.300781 8.160156 0.296875 C 8.144531 0.292969 8.125 0.285156 8.109375 0.28125 C 8.105469 0.28125 8.101562 0.28125 8.101562 0.28125 C 8.097656 0.28125 8.09375 0.28125 8.089844 0.28125 C 8.074219 0.277344 8.054688 0.273438 8.039062 0.273438 C 8.023438 0.273438 8.011719 0.273438 7.996094 0.273438 C 7.992188 0.269531 7.988281 0.269531 7.984375 0.273438 Z M 7.46875 2.992188 L 7.46875 12.300781 L 1.617188 14.265625 Z M 8.53125 2.992188 L 14.386719 14.269531 L 8.53125 12.300781 Z M 8 13.777344 L 11.351562 14.660156 L 4.648438 14.660156 Z M 8 13.777344 "/>
</g>
</svg>
