
<svg xmlns="http://www.w3.org/2000/svg" xmlns:xlink="http://www.w3.org/1999/xlink" width="16px" height="16px" viewBox="0 0 16 16" version="1.1">
<g id="surface1">
<path style=" stroke:none;fill-rule:nonzero;fill:#ff6666;fill-opacity:1;" d="M 6.421875 0 L 3.449219 1.222656 L 4.148438 2.898438 C 3.671875 3.261719 3.25 3.683594 2.898438 4.148438 L 1.222656 3.449219 L 0 6.421875 L 1.648438 7.121094 C 1.570312 7.695312 1.589844 8.285156 1.671875 8.871094 L 0 9.574219 L 1.222656 12.550781 L 2.898438 11.847656 C 3.261719 12.328125 3.683594 12.746094 4.148438 13.097656 L 3.449219 14.773438 L 6.421875 16 L 7.125 14.347656 C 7.699219 14.429688 8.285156 14.40625 8.871094 14.324219 L 9.574219 16 L 12.550781 14.773438 L 11.847656 13.101562 C 12.328125 12.738281 12.746094 12.316406 13.097656 11.851562 L 14.777344 12.550781 L 16 9.574219 L 14.351562 8.875 C 14.429688 8.300781 14.40625 7.710938 14.324219 7.125 L 16 6.425781 L 14.777344 3.453125 L 13.097656 4.152344 C 12.738281 3.671875 12.316406 3.253906 11.847656 2.902344 L 12.550781 1.226562 L 9.574219 0 L 8.871094 1.652344 C 8.296875 1.574219 7.714844 1.59375 7.125 1.675781 Z M 8 4 C 10.210938 4 12 5.789062 12 8 C 12 10.207031 10.210938 12 8 12 C 5.789062 12 4 10.207031 4 8 C 4 5.789062 5.789062 4 8 4 Z M 8 4 "/>
</g>
</svg>
