
<svg xmlns="http://www.w3.org/2000/svg" xmlns:xlink="http://www.w3.org/1999/xlink" width="16px" height="16px" viewBox="0 0 16 16" version="1.1">
<g id="surface1">
<path style=" stroke:none;fill-rule:nonzero;fill:#ff6666;fill-opacity:1;" d="M 6.085938 0.210938 C 2.441406 1.070312 -0.171875 4.445312 0.0078125 8.226562 C 0.0429688 8.96875 0.339844 10.253906 0.632812 10.929688 C 1.035156 11.863281 2.078125 13.355469 2.230469 13.210938 C 2.304688 13.140625 3.207031 12.199219 3.238281 12.160156 C 3.246094 12.148438 3.113281 11.949219 2.933594 11.71875 C 2.347656 10.953125 1.945312 10.121094 1.75 9.28125 C 0.886719 5.542969 3.542969 1.933594 7.402344 1.589844 C 8.792969 1.464844 10.503906 1.933594 11.597656 2.742188 L 11.960938 3.007812 L 12.5 2.441406 C 12.980469 1.9375 13.027344 1.863281 12.9375 1.792969 C 11.203125 0.386719 9.027344 -0.226562 6.828125 0.0742188 C 6.578125 0.109375 6.332031 0.15625 6.085938 0.210938 Z M 3.644531 4.898438 C 3.59375 4.902344 3.625 5.109375 3.777344 5.757812 L 3.984375 6.648438 L 5.027344 7.035156 C 5.601562 7.25 6.074219 7.429688 6.074219 7.4375 C 6.074219 7.445312 5.730469 7.808594 5.308594 8.25 L 4.539062 9.050781 L 4.742188 9.941406 C 4.902344 10.636719 4.960938 10.816406 5.011719 10.765625 C 5.273438 10.519531 8.742188 6.855469 8.738281 6.832031 C 8.730469 6.808594 4.007812 5.011719 3.65625 4.898438 C 3.652344 4.898438 3.648438 4.894531 3.644531 4.894531 Z M 13.789062 2.78125 C 13.78125 2.78125 13.773438 2.785156 13.769531 2.789062 C 13.695312 2.859375 12.792969 3.800781 12.765625 3.835938 C 12.753906 3.851562 12.886719 4.050781 13.066406 4.28125 C 13.652344 5.046875 14.054688 5.878906 14.25 6.71875 C 15.113281 10.453125 12.457031 14.066406 8.597656 14.410156 C 7.207031 14.535156 5.496094 14.066406 4.402344 13.257812 L 4.039062 12.992188 L 3.5 13.558594 C 3.023438 14.0625 2.972656 14.136719 3.066406 14.207031 C 4.796875 15.613281 6.972656 16.226562 9.171875 15.925781 C 13.199219 15.378906 16.183594 11.808594 15.992188 7.773438 C 15.957031 7.03125 15.660156 5.746094 15.367188 5.070312 C 14.980469 4.164062 13.988281 2.738281 13.789062 2.78125 Z M 10.996094 5.226562 C 10.992188 5.226562 10.992188 5.230469 10.988281 5.234375 C 10.726562 5.484375 7.257812 9.148438 7.261719 9.167969 C 7.269531 9.195312 11.992188 10.992188 12.34375 11.105469 C 12.410156 11.125 12.382812 10.9375 12.222656 10.242188 L 12.015625 9.351562 L 10.972656 8.964844 C 10.398438 8.753906 9.925781 8.570312 9.925781 8.566406 C 9.925781 8.558594 10.269531 8.191406 10.691406 7.75 L 11.460938 6.953125 L 11.257812 6.0625 C 11.105469 5.410156 11.046875 5.210938 10.996094 5.226562 Z M 10.996094 5.226562 "/>
</g>
</svg>
