
<svg xmlns="http://www.w3.org/2000/svg" xmlns:xlink="http://www.w3.org/1999/xlink" width="16px" height="16px" viewBox="0 0 16 16" version="1.1">
<g id="surface1">
<path style=" stroke:none;fill-rule:evenodd;fill:#ff6666;fill-opacity:1;" d="M 3 9.96875 L 3 11.5625 L 4.59375 11.5625 L 8.617188 7.535156 L 7.023438 5.941406 Z M 10.027344 6.132812 C 10.195312 5.964844 10.195312 5.695312 10.027344 5.527344 L 9.03125 4.53125 C 8.863281 4.363281 8.597656 4.363281 8.429688 4.53125 L 7.597656 5.371094 L 9.191406 6.964844 Z M 12.941406 4.742188 C 12.941406 4.171875 13.40625 3.703125 13.980469 3.703125 C 14.554688 3.703125 15.023438 4.171875 15.023438 4.742188 C 15.023438 5.316406 14.554688 5.78125 13.980469 5.78125 C 13.40625 5.78125 12.941406 5.316406 12.941406 4.742188 Z M 12.941406 7.34375 C 12.941406 6.769531 13.40625 6.304688 13.980469 6.304688 C 14.554688 6.304688 15.023438 6.769531 15.023438 7.34375 C 15.023438 7.917969 14.554688 8.382812 13.980469 8.382812 C 13.40625 8.382812 12.941406 7.917969 12.941406 7.34375 Z M 12.941406 10.203125 L 12.941406 10.722656 L 15.023438 10.722656 L 15.023438 10.203125 Z M 12.941406 11.761719 L 12.941406 12.28125 L 15.023438 12.28125 L 15.023438 11.761719 Z M 11.636719 7.847656 C 11.636719 3.273438 9.90625 2.890625 6.4375 2.890625 C 2.972656 2.890625 1.238281 3.273438 1.238281 7.847656 C 1.238281 12.421875 2.972656 12.800781 6.4375 12.800781 C 9.90625 12.800781 11.636719 12.421875 11.636719 7.847656 Z M 10.464844 0.53125 C 15.308594 0.53125 16 1.222656 16 6.0625 L 16 9.9375 C 16 14.777344 15.308594 15.46875 10.464844 15.46875 L 5.535156 15.46875 C 0.691406 15.46875 0 14.777344 0 9.9375 L 0 6.0625 C 0 1.222656 0.691406 0.53125 5.535156 0.53125 Z M 12.941406 10.984375 L 12.941406 11.503906 L 15.023438 11.503906 L 15.023438 10.984375 Z M 12.941406 10.984375 "/>
</g>
</svg>
