
<svg xmlns="http://www.w3.org/2000/svg" xmlns:xlink="http://www.w3.org/1999/xlink" width="16px" height="16px" viewBox="0 0 16 16" version="1.1">
<g id="surface1">
<path style=" stroke:none;fill-rule:evenodd;fill:#ff6666;fill-opacity:1;" d="M 15.5 7.957031 L 15.5 6.128906 L 9.871094 6.128906 L 9.871094 0.5 L 6.128906 0.5 L 6.128906 6.128906 L 0.5 6.128906 L 0.5 9.871094 L 6.128906 9.871094 L 6.128906 15.5 L 9.871094 15.5 L 9.871094 9.871094 L 15.5 9.871094 L 15.5 8.089844 L 13.433594 9.09375 L 13.441406 8.589844 L 7.449219 8.589844 L 7.449219 2.671875 L 6.9375 2.660156 L 8.074219 0.507812 L 9.140625 2.707031 L 8.550781 2.695312 L 8.550781 7.488281 L 13.46875 7.488281 L 13.480469 6.890625 Z M 16 5.632812 L 16 10.367188 L 10.367188 10.367188 L 10.367188 16 L 5.632812 16 L 5.632812 10.367188 L 0 10.367188 L 0 5.632812 L 5.632812 5.632812 L 5.632812 0 L 10.367188 0 L 10.367188 5.632812 Z M 16 5.632812 "/>
</g>
</svg>
