
<svg xmlns="http://www.w3.org/2000/svg" xmlns:xlink="http://www.w3.org/1999/xlink" width="16px" height="16px" viewBox="0 0 16 16" version="1.1">
<g id="surface1">
<path style=" stroke:none;fill-rule:evenodd;fill:#ff6666;fill-opacity:1;" d="M -0.03125 12.5 L 15.96875 12.5 L 15.96875 14.5 L -0.03125 14.5 Z M -0.03125 12.5 "/>
<path style=" stroke:none;fill-rule:evenodd;fill:#ff6666;fill-opacity:1;" d="M 1.539062 10.375 L 0 10.375 L 0 1.398438 L 3.972656 1.398438 C 5.007812 1.398438 5.757812 1.65625 6.222656 2.167969 C 6.691406 2.683594 6.921875 3.335938 6.921875 4.132812 C 6.921875 4.6875 6.765625 5.207031 6.449219 5.695312 C 6.132812 6.183594 5.675781 6.515625 5.078125 6.695312 L 6.871094 10.375 L 5.140625 10.375 L 3.410156 6.863281 L 1.539062 6.863281 Z M 1.539062 2.863281 L 1.539062 5.398438 L 4 5.398438 C 4.460938 5.398438 4.800781 5.28125 5.011719 5.039062 C 5.226562 4.800781 5.332031 4.5 5.332031 4.132812 C 5.332031 3.773438 5.230469 3.46875 5.027344 3.226562 C 4.820312 2.984375 4.480469 2.863281 4 2.863281 Z M 10.589844 10.375 L 9.28125 10.375 L 9.640625 8.027344 L 8.230469 8.027344 L 8.421875 6.757812 L 9.832031 6.757812 L 10.128906 4.796875 L 8.71875 4.796875 L 8.910156 3.527344 L 10.332031 3.527344 L 10.652344 1.398438 L 11.949219 1.398438 L 11.628906 3.527344 L 13.296875 3.527344 L 13.628906 1.398438 L 14.921875 1.398438 L 14.589844 3.527344 L 16 3.527344 L 15.820312 4.796875 L 14.398438 4.796875 L 14.101562 6.757812 L 15.511719 6.757812 L 15.320312 8.027344 L 13.910156 8.027344 L 13.550781 10.375 L 12.257812 10.375 L 12.613281 8.027344 L 10.949219 8.027344 Z M 11.4375 4.796875 L 11.140625 6.757812 L 12.808594 6.757812 L 13.101562 4.796875 Z M 11.4375 4.796875 "/>
</g>
</svg>
