
<svg xmlns="http://www.w3.org/2000/svg" xmlns:xlink="http://www.w3.org/1999/xlink" width="16px" height="16px" viewBox="0 0 16 16" version="1.1">
<g id="surface1">
<path style=" stroke:none;fill-rule:nonzero;fill:#ff6666;fill-opacity:1;" d="M 4.648438 0.00390625 C 4.007812 0.0234375 3.378906 0.0898438 2.800781 0.257812 C 1.4375 0.714844 1.453125 1.417969 1.453125 2.480469 L 1.453125 13.960938 C 1.453125 15 1.457031 15.496094 2.222656 15.769531 C 2.457031 15.847656 2.742188 15.910156 3.078125 15.957031 C 3.628906 16.03125 4.394531 16.003906 4.898438 15.902344 C 5.089844 15.863281 5.277344 15.808594 5.433594 15.746094 C 5.898438 15.589844 5.894531 15.304688 5.878906 14.933594 C 5.84375 14.171875 5.757812 13.265625 6.492188 12.664062 C 6.828125 12.390625 7.246094 12.375 7.644531 12.5625 C 7.980469 12.71875 8.363281 13.09375 8.535156 13.445312 C 8.703125 13.777344 8.746094 14.003906 8.835938 14.625 C 8.972656 15.566406 9.214844 15.75 10.21875 15.925781 C 10.464844 15.96875 11.28125 15.992188 11.753906 16 C 12.367188 16.007812 13.007812 15.984375 13.28125 15.925781 C 13.757812 15.832031 14.105469 15.664062 14.269531 15.453125 C 14.414062 15.261719 14.53125 15.042969 14.542969 14.789062 C 14.5625 14.363281 14.347656 13.839844 13.964844 13.203125 C 13.621094 12.628906 13.34375 12.503906 12.789062 11.878906 C 12.117188 11.117188 11.796875 10.625 11.671875 10.191406 C 11.515625 9.648438 12.007812 9.085938 12.828125 8.355469 C 13.59375 7.671875 14.214844 7.089844 14.441406 6.425781 C 14.515625 6.214844 14.546875 5.917969 14.542969 5.578125 C 14.53125 4.882812 14.359375 4.011719 14.070312 3.339844 C 13.546875 2.113281 12.550781 1.410156 10.289062 0.675781 C 9.722656 0.492188 9.300781 0.386719 8.75 0.289062 C 8.109375 0.175781 7.089844 0.0898438 6.132812 0.0429688 C 5.851562 0.0234375 5.570312 0.0117188 5.285156 0.00390625 C 5.074219 -0.00390625 4.859375 -0.00390625 4.648438 0.00390625 Z M 7.234375 4.363281 C 7.902344 4.375 8.484375 4.878906 8.675781 5.628906 C 8.742188 5.898438 8.746094 6.484375 8.675781 6.8125 C 8.496094 7.671875 7.882812 8.105469 7.019531 7.976562 C 6.722656 7.929688 6.519531 7.824219 6.316406 7.597656 C 5.996094 7.25 5.820312 6.707031 5.816406 6.09375 C 5.816406 5.089844 6.304688 4.4375 7.101562 4.367188 C 7.144531 4.363281 7.191406 4.363281 7.234375 4.363281 Z M 7.234375 4.363281 "/>
</g>
</svg>
