
<svg xmlns="http://www.w3.org/2000/svg" xmlns:xlink="http://www.w3.org/1999/xlink" width="16px" height="16px" viewBox="0 0 16 16" version="1.1">
<g id="surface1">
<path style=" stroke:none;fill-rule:nonzero;fill:#ff6666;fill-opacity:1;" d="M 0.503906 0.00390625 C 0.210938 0.0585938 -0.00390625 0.316406 0.00390625 0.617188 L 0.00390625 1.230469 C 0 1.453125 0.117188 1.660156 0.308594 1.773438 C 0.5 1.882812 0.734375 1.882812 0.929688 1.773438 C 1.121094 1.660156 1.238281 1.453125 1.234375 1.230469 C 1.457031 1.234375 1.660156 1.117188 1.773438 0.925781 C 1.886719 0.734375 1.886719 0.5 1.773438 0.308594 C 1.660156 0.113281 1.453125 0 1.234375 0.00390625 Z M 3.675781 0.00390625 L 3.195312 0.253906 L 3.097656 0.789062 L 3.464844 1.195312 L 3.675781 1.230469 L 4.964844 1.230469 L 5.464844 0.984375 L 5.558594 0.445312 L 5.175781 0.0390625 L 4.964844 0.00390625 Z M 7.386719 0.00390625 L 6.886719 0.253906 L 6.789062 0.789062 L 7.175781 1.195312 L 7.386719 1.230469 L 8.675781 1.230469 L 9.15625 0.984375 L 9.25 0.445312 L 8.886719 0.0390625 L 8.675781 0.00390625 Z M 11.097656 0.00390625 L 10.597656 0.253906 L 10.5 0.789062 L 10.886719 1.195312 L 11.097656 1.230469 L 12.367188 1.230469 L 12.867188 0.984375 L 12.960938 0.445312 L 12.578125 0.0390625 L 12.363281 0.00390625 Z M 14.652344 0.00390625 C 14.316406 0.03125 14.066406 0.335938 14.097656 0.675781 C 14.128906 1.011719 14.429688 1.265625 14.769531 1.230469 C 14.765625 1.453125 14.882812 1.660156 15.074219 1.773438 C 15.265625 1.882812 15.503906 1.882812 15.695312 1.773438 C 15.886719 1.660156 16.003906 1.453125 16 1.230469 L 16 0.617188 C 16 0.277344 15.722656 0.00390625 15.382812 0.00390625 Z M 13.230469 2.519531 L 9.425781 3.019531 C 9.238281 3.019531 9.226562 3.148438 9.347656 3.269531 L 10.636719 4.558594 L 6.558594 8.613281 L 1.234375 8.613281 L 1.234375 7.328125 L 0.984375 6.847656 L 0.445312 6.75 L 0.0429688 7.117188 L 0.00390625 7.328125 L 0.00390625 8.613281 L 0.117188 8.863281 C 0.0429688 8.972656 0.00390625 9.101562 0.00390625 9.230469 L 0.00390625 14.652344 C 0 14.691406 0 14.730469 0.00390625 14.769531 L 0.00390625 15.382812 C 0.0078125 15.445312 0.0195312 15.511719 0.0429688 15.574219 C 0.0507812 15.609375 0.0625 15.640625 0.078125 15.671875 C 0.101562 15.710938 0.128906 15.75 0.15625 15.785156 C 0.167969 15.796875 0.167969 15.816406 0.175781 15.824219 C 0.214844 15.855469 0.25 15.882812 0.292969 15.902344 C 0.300781 15.90625 0.304688 15.914062 0.3125 15.921875 L 0.328125 15.941406 C 0.34375 15.949219 0.355469 15.953125 0.367188 15.960938 L 0.386719 15.960938 C 0.394531 15.960938 0.402344 15.957031 0.40625 15.960938 C 0.464844 15.980469 0.519531 15.992188 0.578125 15.996094 L 6.769531 15.996094 C 6.890625 15.996094 6.988281 15.96875 7.078125 15.921875 L 7.117188 15.960938 L 7.328125 15.996094 L 8.617188 15.996094 L 9.117188 15.746094 L 9.214844 15.210938 L 8.828125 14.804688 L 8.617188 14.769531 L 7.386719 14.769531 L 7.386719 9.441406 L 11.441406 5.367188 L 12.730469 6.652344 C 12.855469 6.777344 12.980469 6.699219 12.980469 6.578125 L 13.480469 2.769531 C 13.480469 2.585938 13.351562 2.457031 13.230469 2.519531 Z M 0.445312 3.039062 L 0.0429688 3.425781 L 0.00390625 3.636719 L 0.00390625 4.90625 L 0.253906 5.40625 L 0.792969 5.5 L 1.195312 5.117188 L 1.234375 4.902344 L 1.234375 3.636719 L 0.984375 3.136719 Z M 15.210938 3.097656 L 14.808594 3.464844 L 14.769531 3.675781 L 14.769531 4.960938 L 15.019531 5.460938 L 15.558594 5.558594 L 15.960938 5.175781 L 16 4.960938 L 16 3.675781 L 15.75 3.195312 Z M 15.210938 6.789062 L 14.808594 7.171875 L 14.769531 7.386719 L 14.769531 8.671875 L 15.019531 9.152344 L 15.558594 9.25 L 15.960938 8.882812 L 16 8.671875 L 16 7.386719 L 15.75 6.886719 Z M 15.210938 10.5 L 14.808594 10.882812 L 14.769531 11.09375 L 14.769531 12.363281 L 15.019531 12.863281 L 15.558594 12.960938 L 15.960938 12.574219 L 16 12.363281 L 16 11.09375 L 15.75 10.59375 Z M 15.328125 14.132812 C 15.300781 14.136719 15.273438 14.144531 15.25 14.152344 C 14.964844 14.21875 14.761719 14.472656 14.769531 14.769531 C 14.546875 14.765625 14.339844 14.882812 14.226562 15.074219 C 14.117188 15.265625 14.117188 15.5 14.226562 15.691406 C 14.34375 15.886719 14.546875 16 14.769531 15.996094 L 15.382812 15.996094 C 15.722656 15.996094 16 15.722656 16 15.382812 L 16 14.769531 C 16.007812 14.589844 15.9375 14.417969 15.808594 14.296875 C 15.679688 14.175781 15.503906 14.117188 15.328125 14.132812 Z M 11.039062 14.769531 L 10.539062 15.015625 L 10.441406 15.554688 L 10.828125 15.960938 L 11.039062 15.996094 L 12.328125 15.996094 L 12.808594 15.746094 L 12.902344 15.210938 L 12.539062 14.804688 L 12.328125 14.769531 Z M 11.039062 14.769531 "/>
</g>
</svg>
