
<svg xmlns="http://www.w3.org/2000/svg" xmlns:xlink="http://www.w3.org/1999/xlink" width="16px" height="16px" viewBox="0 0 16 16" version="1.1">
<g id="surface1">
<path style=" stroke:none;fill-rule:nonzero;fill:#ff6666;fill-opacity:1;" d="M 3.460938 15 C 3.640625 15.003906 3.84375 14.980469 4.050781 14.9375 C 4.652344 14.808594 5.164062 14.535156 5.554688 14.046875 C 5.792969 13.753906 5.996094 13.429688 6.167969 13.09375 C 6.371094 12.695312 6.542969 12.28125 6.691406 11.863281 C 6.871094 11.355469 7.027344 10.835938 7.144531 10.3125 C 7.210938 10.019531 7.136719 9.835938 6.8125 9.734375 C 6.398438 9.605469 5.984375 9.492188 5.5625 9.398438 C 4.859375 9.246094 4.152344 9.144531 3.433594 9.171875 C 3.230469 9.179688 3.027344 9.199219 2.824219 9.234375 C 2.242188 9.335938 1.746094 9.605469 1.34375 10.03125 C 0.652344 10.753906 0.378906 11.617188 0.550781 12.601562 C 0.792969 14.007812 2.042969 15.011719 3.460938 15 Z M 3.460938 15 "/>
<path style=" stroke:none;fill-rule:nonzero;fill:#ff6666;fill-opacity:1;" d="M 5.085938 4.324219 C 5.078125 4.539062 5.113281 4.773438 5.175781 5.007812 C 5.296875 5.453125 5.496094 5.863281 5.730469 6.25 C 6.269531 7.128906 6.941406 7.878906 7.675781 8.578125 C 7.734375 8.632812 7.808594 8.683594 7.882812 8.71875 C 7.960938 8.757812 8.035156 8.757812 8.117188 8.726562 C 8.191406 8.691406 8.261719 8.640625 8.320312 8.578125 C 8.574219 8.316406 8.824219 8.054688 9.066406 7.78125 C 9.402344 7.394531 9.726562 7 10.019531 6.574219 C 10.285156 6.1875 10.523438 5.78125 10.695312 5.339844 C 10.871094 4.902344 10.957031 4.453125 10.898438 3.976562 C 10.804688 3.195312 10.484375 2.53125 9.910156 2.011719 C 9.238281 1.394531 8.449219 1.148438 7.5625 1.285156 C 6.125 1.511719 5.078125 2.835938 5.085938 4.324219 Z M 5.085938 4.324219 "/>
<path style=" stroke:none;fill-rule:nonzero;fill:#ff6666;fill-opacity:1;" d="M 12.539062 15 C 12.359375 15.003906 12.15625 14.980469 11.949219 14.9375 C 11.347656 14.808594 10.835938 14.535156 10.445312 14.046875 C 10.207031 13.753906 10.003906 13.429688 9.832031 13.09375 C 9.628906 12.695312 9.457031 12.28125 9.308594 11.863281 C 9.128906 11.355469 8.972656 10.835938 8.855469 10.3125 C 8.789062 10.019531 8.863281 9.835938 9.1875 9.734375 C 9.601562 9.605469 10.015625 9.492188 10.4375 9.398438 C 11.140625 9.246094 11.847656 9.144531 12.566406 9.171875 C 12.769531 9.179688 12.972656 9.199219 13.175781 9.234375 C 13.757812 9.335938 14.253906 9.605469 14.65625 10.03125 C 15.347656 10.753906 15.621094 11.617188 15.449219 12.601562 C 15.207031 14.007812 13.957031 15.011719 12.539062 15 Z M 12.539062 15 "/>
</g>
</svg>
