
<svg xmlns="http://www.w3.org/2000/svg" xmlns:xlink="http://www.w3.org/1999/xlink" width="16px" height="16px" viewBox="0 0 16 16" version="1.1">
<g id="surface1">
<path style=" stroke:none;fill-rule:nonzero;fill:#ff6666;fill-opacity:1;" d="M 7.75 0.25 C 7.335938 0.25 7 0.585938 7 1 L 7 1.25 L 5.75 1.25 C 5.0625 1.25 4.5 1.8125 4.5 2.5 L 4.5 2.75 C 4.5 3.441406 5.0625 4 5.75 4 C 5.886719 4 6 4.113281 6 4.25 L 6 9.5 C 6 9.914062 6.335938 10.25 6.75 10.25 L 7 10.25 L 7 12.25 L 2.25 12.25 C 1.835938 12.25 1.5 12.585938 1.5 13 L 1.5 14.25 L 0.75 14.25 C 0.335938 14.25 0 14.585938 0 15 C 0 15.414062 0.335938 15.75 0.75 15.75 L 15.25 15.75 C 15.664062 15.75 16 15.414062 16 15 C 16 14.585938 15.664062 14.25 15.25 14.25 L 14.5 14.25 L 14.5 13 C 14.5 12.585938 14.164062 12.25 13.75 12.25 L 13 12.25 L 13 12 C 13 11.585938 12.664062 11.25 12.25 11.25 L 11.75 11.25 C 11.335938 11.25 11 11.585938 11 12 L 11 12.25 L 9 12.25 L 9 10.25 L 9.25 10.25 C 9.664062 10.25 10 9.914062 10 9.5 L 10 2 C 10 1.585938 9.664062 1.25 9.25 1.25 L 9 1.25 L 9 1 C 9 0.585938 8.664062 0.25 8.25 0.25 Z M 7.75 0.75 L 8.25 0.75 C 8.386719 0.75 8.5 0.863281 8.5 1 L 8.5 1.25 L 7.5 1.25 L 7.5 1 C 7.5 0.863281 7.613281 0.75 7.75 0.75 Z M 5.75 1.75 L 9.25 1.75 C 9.386719 1.75 9.5 1.863281 9.5 2 L 9.5 9.5 C 9.5 9.636719 9.386719 9.75 9.25 9.75 L 6.75 9.75 C 6.613281 9.75 6.5 9.636719 6.5 9.5 L 6.5 4.25 C 6.5 3.835938 6.164062 3.5 5.75 3.5 C 5.335938 3.5 5 3.164062 5 2.75 L 5 2.5 C 5 2.085938 5.335938 1.75 5.75 1.75 Z M 8.25 2.25 C 8.113281 2.25 8 2.363281 8 2.5 C 8 2.636719 8.113281 2.75 8.25 2.75 L 8.75 2.75 C 8.886719 2.75 9 2.636719 9 2.5 C 9 2.363281 8.886719 2.25 8.75 2.25 Z M 8.25 3.5 C 8.113281 3.5 8 3.613281 8 3.75 C 8 3.886719 8.113281 4 8.25 4 L 8.75 4 C 8.886719 4 9 3.886719 9 3.75 C 9 3.613281 8.886719 3.5 8.75 3.5 Z M 8.25 4.75 C 8.113281 4.75 8 4.863281 8 5 C 8 5.136719 8.113281 5.25 8.25 5.25 L 8.75 5.25 C 8.886719 5.25 9 5.136719 9 5 C 9 4.863281 8.886719 4.75 8.75 4.75 Z M 8.25 6 C 8.113281 6 8 6.113281 8 6.25 C 8 6.386719 8.113281 6.5 8.25 6.5 L 8.75 6.5 C 8.886719 6.5 9 6.386719 9 6.25 C 9 6.113281 8.886719 6 8.75 6 Z M 8.25 7.25 C 8.113281 7.25 8 7.363281 8 7.5 C 8 7.636719 8.113281 7.75 8.25 7.75 L 8.75 7.75 C 8.886719 7.75 9 7.636719 9 7.5 C 9 7.363281 8.886719 7.25 8.75 7.25 Z M 8.25 8.5 C 8.113281 8.5 8 8.613281 8 8.75 C 8 8.886719 8.113281 9 8.25 9 L 8.75 9 C 8.886719 9 9 8.886719 9 8.75 C 9 8.613281 8.886719 8.5 8.75 8.5 Z M 7.5 10.25 L 8.5 10.25 L 8.5 12.25 L 7.5 12.25 Z M 11.75 11.75 L 12.25 11.75 C 12.386719 11.75 12.5 11.863281 12.5 12 L 12.5 12.25 L 11.5 12.25 L 11.5 12 C 11.5 11.863281 11.613281 11.75 11.75 11.75 Z M 2.25 12.75 L 13.75 12.75 C 13.886719 12.75 14 12.863281 14 13 L 14 14.25 L 2 14.25 L 2 13 C 2 12.863281 2.113281 12.75 2.25 12.75 Z M 0.75 14.75 L 15.25 14.75 C 15.386719 14.75 15.5 14.863281 15.5 15 C 15.5 15.136719 15.386719 15.25 15.25 15.25 L 0.75 15.25 C 0.613281 15.25 0.5 15.136719 0.5 15 C 0.5 14.863281 0.613281 14.75 0.75 14.75 Z M 0.75 14.75 "/>
</g>
</svg>
