
<svg xmlns="http://www.w3.org/2000/svg" xmlns:xlink="http://www.w3.org/1999/xlink" width="16px" height="16px" viewBox="0 0 16 16" version="1.1">
<g id="surface1">
<path style=" stroke:none;fill-rule:nonzero;fill:#ff6666;fill-opacity:1;" d="M 3.292969 0.390625 C 3.292969 0.390625 2.503906 0.390625 1.621094 0.808594 L 1.621094 0.804688 C 0.945312 1.125 0.378906 1.59375 0.105469 1.976562 C 0.0234375 2.082031 0.0078125 2.222656 0.0585938 2.34375 C -0.0351562 2.488281 -0.015625 2.679688 0.109375 2.800781 C 0.230469 2.921875 0.425781 2.9375 0.566406 2.839844 C 0.710938 2.742188 0.761719 2.558594 0.695312 2.398438 C 0.824219 2.214844 1.382812 1.722656 1.933594 1.460938 C 2.664062 1.113281 3.292969 1.113281 3.292969 1.113281 C 3.425781 1.117188 3.546875 1.046875 3.613281 0.933594 C 3.679688 0.820312 3.679688 0.683594 3.613281 0.570312 C 3.546875 0.457031 3.425781 0.386719 3.292969 0.390625 Z M 10.507812 0.734375 C 9.515625 0.730469 8.527344 0.789062 7.542969 0.914062 C 6.054688 1.105469 4.707031 1.402344 3.429688 1.820312 C 1.257812 2.527344 0.539062 3.355469 0.269531 3.667969 L 0.242188 3.699219 C -0.292969 4.3125 0.386719 6.5 0.394531 6.519531 C 0.554688 7.015625 0.964844 7.265625 1.328125 7.265625 C 1.402344 7.265625 1.472656 7.257812 1.539062 7.238281 C 1.675781 7.195312 2.210938 6.984375 3.011719 6.664062 C 3.40625 6.507812 3.757812 6.367188 3.867188 6.328125 C 4.179688 6.214844 4.410156 5.890625 4.492188 5.457031 C 4.53125 5.257812 4.753906 4.335938 4.894531 3.753906 C 5.265625 3.601562 6.289062 3.238281 7.824219 3.039062 C 9.359375 2.839844 10.449219 2.917969 10.84375 2.960938 C 11.25 3.640625 11.835938 4.625 11.863281 4.667969 C 12.058594 4.964844 12.316406 5.140625 12.589844 5.164062 C 12.714844 5.171875 13.113281 5.222656 13.558594 5.277344 C 14.375 5.382812 14.917969 5.449219 15.074219 5.453125 C 15.472656 5.460938 15.960938 5.089844 15.996094 4.46875 C 15.996094 4.445312 16.089844 2.203125 15.414062 1.746094 C 15.414062 1.746094 15.347656 1.699219 15.308594 1.675781 C 14.886719 1.402344 13.8125 0.808594 11.289062 0.746094 C 11.027344 0.738281 10.769531 0.734375 10.507812 0.734375 Z M 5.84375 4.726562 C 5.640625 4.726562 5.480469 4.890625 5.480469 5.089844 L 5.480469 6.019531 C 5.113281 6.371094 3.914062 7.539062 2.484375 9.207031 C 1.28125 10.605469 1.121094 11.582031 1.125 12.355469 C 1.128906 13.035156 1.476562 15.214844 1.492188 15.304688 C 1.519531 15.480469 1.671875 15.613281 1.851562 15.609375 L 3.664062 15.609375 C 3.863281 15.609375 4.027344 15.449219 4.027344 15.246094 L 4.027344 14.886719 L 12.734375 14.886719 L 12.734375 15.246094 C 12.734375 15.449219 12.898438 15.609375 13.097656 15.609375 L 14.910156 15.609375 C 15.089844 15.609375 15.242188 15.480469 15.269531 15.304688 C 15.285156 15.214844 15.636719 13.03125 15.636719 12.347656 C 15.640625 11.578125 15.480469 10.601562 14.28125 9.207031 C 12.847656 7.539062 11.652344 6.371094 11.285156 6.019531 L 11.285156 5.089844 C 11.285156 4.890625 11.121094 4.726562 10.921875 4.726562 L 9.832031 4.726562 C 9.632812 4.726562 9.46875 4.890625 9.46875 5.089844 L 9.46875 5.816406 L 7.292969 5.816406 L 7.292969 5.089844 C 7.292969 4.890625 7.128906 4.726562 6.929688 4.726562 Z M 12.734375 5.832031 C 12.578125 5.828125 12.441406 5.925781 12.390625 6.070312 C 12.335938 6.21875 12.382812 6.378906 12.503906 6.476562 C 12.820312 6.738281 13.269531 6.871094 13.800781 6.902344 C 14.4375 6.941406 14.734375 6.867188 15.058594 6.746094 C 15.234375 6.664062 15.320312 6.460938 15.25 6.28125 C 15.179688 6.101562 14.980469 6.007812 14.796875 6.066406 C 14.496094 6.183594 14.433594 6.214844 13.847656 6.179688 C 13.425781 6.152344 13.089844 6.019531 12.964844 5.917969 C 12.902344 5.863281 12.820312 5.832031 12.734375 5.832031 Z M 5.480469 7.992188 L 6.929688 7.992188 L 6.929688 8.71875 L 5.480469 8.71875 Z M 7.65625 7.992188 L 9.105469 7.992188 L 9.105469 8.71875 L 7.65625 8.71875 Z M 9.832031 7.992188 L 11.285156 7.992188 L 11.285156 8.71875 L 9.832031 8.71875 Z M 5.480469 9.441406 L 6.929688 9.441406 L 6.929688 10.167969 L 5.480469 10.167969 Z M 7.65625 9.441406 L 9.105469 9.441406 L 9.105469 10.167969 L 7.65625 10.167969 Z M 9.832031 9.441406 L 11.285156 9.441406 L 11.285156 10.167969 L 9.832031 10.167969 Z M 5.480469 10.894531 L 6.929688 10.894531 L 6.929688 11.621094 L 5.480469 11.621094 Z M 7.65625 10.894531 L 9.105469 10.894531 L 9.105469 11.621094 L 7.65625 11.621094 Z M 9.832031 10.894531 L 11.285156 10.894531 L 11.285156 11.621094 L 9.832031 11.621094 Z M 9.832031 10.894531 "/>
</g>
</svg>
