
<svg xmlns="http://www.w3.org/2000/svg" xmlns:xlink="http://www.w3.org/1999/xlink" width="16px" height="16px" viewBox="0 0 16 16" version="1.1">
<g id="surface1">
<path style=" stroke:none;fill-rule:evenodd;fill:#ff6666;fill-opacity:1;" d="M -0.03125 12.5 L 15.96875 12.5 L 15.96875 14.5 L -0.03125 14.5 Z M -0.03125 12.5 "/>
<path style=" stroke:none;fill-rule:evenodd;fill:#ff6666;fill-opacity:1;" d="M 1.632812 10.328125 L 0.101562 10.328125 L 0.101562 1.398438 L 4.058594 1.398438 C 5.085938 1.398438 5.832031 1.65625 6.296875 2.164062 C 6.761719 2.675781 6.992188 3.328125 6.992188 4.117188 C 6.992188 4.667969 6.835938 5.1875 6.519531 5.675781 C 6.207031 6.160156 5.75 6.492188 5.15625 6.667969 L 6.941406 10.328125 L 5.21875 10.328125 L 3.496094 6.835938 L 1.632812 6.835938 Z M 1.632812 2.855469 L 1.632812 5.378906 L 4.085938 5.378906 C 4.542969 5.378906 4.878906 5.261719 5.089844 5.023438 C 5.304688 4.785156 5.410156 4.484375 5.410156 4.117188 C 5.410156 3.757812 5.308594 3.460938 5.105469 3.21875 C 4.898438 2.976562 4.558594 2.855469 4.085938 2.855469 Z M 8.84375 10.328125 L 8.84375 1.398438 L 11.597656 1.398438 C 12.203125 1.398438 12.75 1.484375 13.242188 1.65625 C 13.738281 1.824219 14.144531 2.050781 14.46875 2.332031 C 14.792969 2.613281 15.0625 2.945312 15.277344 3.332031 C 15.496094 3.71875 15.652344 4.125 15.75 4.546875 C 15.847656 4.964844 15.898438 5.40625 15.898438 5.863281 C 15.898438 6.289062 15.851562 6.707031 15.761719 7.113281 C 15.671875 7.523438 15.519531 7.925781 15.304688 8.320312 C 15.085938 8.714844 14.816406 9.0625 14.492188 9.355469 C 14.171875 9.648438 13.757812 9.882812 13.25 10.0625 C 12.742188 10.242188 12.175781 10.328125 11.546875 10.328125 Z M 10.371094 8.886719 L 11.761719 8.886719 C 12.214844 8.886719 12.613281 8.800781 12.957031 8.621094 C 13.300781 8.441406 13.570312 8.203125 13.761719 7.898438 C 13.953125 7.597656 14.089844 7.277344 14.179688 6.9375 C 14.269531 6.597656 14.316406 6.238281 14.316406 5.863281 C 14.316406 5.03125 14.109375 4.320312 13.703125 3.726562 C 13.292969 3.136719 12.695312 2.84375 11.902344 2.84375 L 10.371094 2.84375 Z M 10.371094 8.886719 "/>
</g>
</svg>
