
<svg xmlns="http://www.w3.org/2000/svg" xmlns:xlink="http://www.w3.org/1999/xlink" width="16px" height="16px" viewBox="0 0 16 16" version="1.1">
<g id="surface1">
<path style=" stroke:none;fill-rule:evenodd;fill:#ff6666;fill-opacity:1;" d="M 8 3.589844 C 5.984375 3.589844 4.175781 4.144531 2.933594 4.972656 C 1.695312 5.796875 1.066406 6.8125 1.066406 7.851562 C 1.070312 8.605469 1.402344 9.371094 2.148438 10.097656 C 2.382812 10.324219 2.5 10.652344 2.464844 10.976562 C 2.347656 12.046875 2.175781 13.042969 1.894531 13.933594 C 2.976562 13.59375 3.945312 13.003906 4.699219 12.1875 C 4.957031 11.910156 5.34375 11.789062 5.714844 11.871094 C 6.449219 12.035156 7.222656 12.121094 8.003906 12.121094 C 10.019531 12.121094 11.828125 11.5625 13.066406 10.738281 C 14.304688 9.910156 14.933594 8.894531 14.933594 7.855469 C 14.933594 6.8125 14.304688 5.796875 13.066406 4.972656 C 11.824219 4.144531 10.015625 3.589844 8 3.589844 Z M 5.484375 12.917969 C 4.121094 14.394531 2.167969 15.320312 0 15.320312 C 0.746094 14.449219 1.203125 12.796875 1.410156 10.875 C 0.519531 10.015625 0 8.976562 0 7.855469 C 0 6.765625 0.492188 5.75 1.335938 4.90625 C 1.089844 2.957031 0.628906 1.269531 0 0.386719 C 2.167969 0.386719 4.121094 1.3125 5.484375 2.789062 C 6.277344 2.617188 7.121094 2.519531 8 2.519531 C 12.414062 2.519531 16 4.910156 16 7.855469 C 16 10.796875 12.414062 13.1875 8 13.1875 C 7.121094 13.1875 6.277344 13.09375 5.484375 12.917969 Z M 4.800781 6.789062 C 4.210938 6.789062 3.734375 7.265625 3.734375 7.855469 C 3.734375 8.445312 4.210938 8.921875 4.800781 8.921875 C 5.390625 8.921875 5.867188 8.445312 5.867188 7.855469 C 5.867188 7.265625 5.390625 6.789062 4.800781 6.789062 Z M 8 6.789062 C 7.410156 6.789062 6.933594 7.265625 6.933594 7.855469 C 6.933594 8.445312 7.410156 8.921875 8 8.921875 C 8.589844 8.921875 9.066406 8.445312 9.066406 7.855469 C 9.066406 7.265625 8.589844 6.789062 8 6.789062 Z M 11.199219 6.789062 C 10.609375 6.789062 10.132812 7.265625 10.132812 7.855469 C 10.132812 8.445312 10.609375 8.921875 11.199219 8.921875 C 11.789062 8.921875 12.265625 8.445312 12.265625 7.855469 C 12.265625 7.265625 11.789062 6.789062 11.199219 6.789062 Z M 11.199219 6.789062 "/>
</g>
</svg>
