
<svg xmlns="http://www.w3.org/2000/svg" xmlns:xlink="http://www.w3.org/1999/xlink" width="16px" height="16px" viewBox="0 0 16 16" version="1.1">
<g id="surface1">
<path style=" stroke:none;fill-rule:nonzero;fill:#ff6666;fill-opacity:1;" d="M 5.769531 0 C 4.898438 0 4.492188 0.761719 4.492188 1.277344 L 4.492188 10.929688 L 3.003906 9.59375 C 2.972656 9.558594 1.984375 8.734375 1.039062 9.722656 C 0.253906 10.691406 0.84375 11.667969 1.199219 12.046875 L 3.183594 14.023438 C 4.460938 15.300781 6.132812 16 7.90625 16 L 11.199219 16 C 13.488281 16 15.351562 14.136719 15.351562 11.847656 L 15.351562 1.914062 C 15.351562 1.402344 14.945312 0.640625 14.074219 0.640625 C 13.203125 0.640625 12.796875 1.402344 12.796875 1.914062 L 12.796875 9.003906 C 12.800781 9.332031 12.808594 9.941406 12.347656 10.410156 C 12.144531 10.613281 11.789062 10.859375 11.199219 10.859375 C 10.613281 10.859375 10.253906 10.613281 10.050781 10.410156 C 10.003906 10.363281 9.960938 10.3125 9.921875 10.261719 C 9.882812 10.3125 9.839844 10.363281 9.792969 10.410156 C 9.589844 10.613281 9.234375 10.859375 8.644531 10.859375 C 8.058594 10.859375 7.695312 10.613281 7.496094 10.410156 C 7.03125 9.9375 7.039062 9.308594 7.046875 9.003906 L 7.046875 1.277344 C 7.046875 0.746094 6.648438 0 5.769531 0 Z M 8.644531 4.472656 C 8.351562 4.472656 8.121094 4.5625 7.953125 4.730469 C 7.675781 5.015625 7.683594 5.429688 7.683594 5.679688 L 7.683594 9.015625 C 7.683594 9.265625 7.675781 9.679688 7.953125 9.960938 C 8.121094 10.132812 8.351562 10.222656 8.644531 10.222656 C 8.9375 10.222656 9.175781 10.132812 9.34375 9.960938 C 9.617188 9.683594 9.605469 9.28125 9.601562 9.015625 L 9.601562 5.6875 C 9.605469 5.4375 9.613281 5.019531 9.332031 4.730469 C 9.164062 4.5625 8.933594 4.472656 8.644531 4.472656 Z M 11.199219 4.472656 C 10.90625 4.472656 10.675781 4.5625 10.511719 4.730469 C 10.230469 5.015625 10.238281 5.429688 10.242188 5.679688 L 10.242188 9.015625 C 10.234375 9.265625 10.230469 9.679688 10.511719 9.960938 C 10.675781 10.132812 10.90625 10.222656 11.199219 10.222656 C 11.496094 10.222656 11.730469 10.132812 11.898438 9.960938 C 12.171875 9.683594 12.160156 9.28125 12.15625 9.015625 L 12.15625 5.6875 C 12.160156 5.4375 12.171875 5.019531 11.886719 4.730469 C 11.71875 4.5625 11.488281 4.472656 11.199219 4.472656 Z M 11.199219 4.472656 "/>
</g>
</svg>
