
<svg xmlns="http://www.w3.org/2000/svg" xmlns:xlink="http://www.w3.org/1999/xlink" width="16px" height="16px" viewBox="0 0 16 16" version="1.1">
<g id="surface1">
<path style=" stroke:none;fill-rule:evenodd;fill:#ff6666;fill-opacity:1;" d="M 8.160156 16.019531 C 8.59375 16.019531 8.945312 15.667969 8.945312 15.234375 C 8.945312 15.023438 8.859375 14.820312 8.707031 14.671875 L 9.65625 12.613281 C 9.679688 12.617188 9.703125 12.617188 9.730469 12.617188 C 9.964844 12.617188 10.1875 12.511719 10.335938 12.328125 L 12.554688 13.121094 C 12.5625 13.316406 12.644531 13.503906 12.785156 13.644531 C 13.089844 13.949219 13.585938 13.949219 13.894531 13.644531 C 14.199219 13.335938 14.199219 12.839844 13.894531 12.535156 C 13.753906 12.394531 13.566406 12.3125 13.371094 12.304688 L 12.578125 10.085938 C 12.761719 9.9375 12.867188 9.714844 12.867188 9.480469 L 13.390625 9.480469 L 13.980469 9.410156 L 16.007812 9.164062 L 16.007812 6.652344 L 13.980469 6.410156 C 13.839844 5.863281 13.621094 5.339844 13.335938 4.851562 L 14.597656 3.246094 L 12.820312 1.472656 L 11.214844 2.730469 C 10.730469 2.445312 10.203125 2.230469 9.660156 2.089844 L 9.414062 0.0585938 L 6.902344 0.0585938 L 6.902344 0.0625 L 6.660156 2.085938 C 6.113281 2.226562 5.589844 2.445312 5.105469 2.730469 L 3.496094 1.472656 L 1.890625 3.246094 L 3.152344 4.855469 L 3.515625 5.320312 L 3.917969 5.722656 C 3.730469 5.871094 3.617188 6.097656 3.617188 6.339844 C 3.617188 6.363281 3.621094 6.386719 3.621094 6.414062 L 1.355469 7.363281 C 1.207031 7.210938 1.003906 7.125 0.792969 7.125 C 0.359375 7.125 0.0078125 7.476562 0.0078125 7.910156 C 0.0078125 8.34375 0.359375 8.695312 0.792969 8.695312 C 1.003906 8.695312 1.207031 8.609375 1.355469 8.457031 L 3.621094 9.40625 C 3.621094 9.429688 3.617188 9.453125 3.617188 9.480469 C 3.617188 9.714844 3.726562 9.9375 3.90625 10.085938 L 2.90625 12.304688 C 2.710938 12.3125 2.523438 12.394531 2.382812 12.535156 C 2.078125 12.839844 2.078125 13.335938 2.382812 13.644531 C 2.691406 13.949219 3.1875 13.949219 3.492188 13.644531 C 3.632812 13.503906 3.714844 13.316406 3.722656 13.121094 L 5.980469 12.328125 C 6.128906 12.511719 6.355469 12.617188 6.589844 12.617188 C 6.613281 12.617188 6.636719 12.617188 6.660156 12.613281 L 7.613281 14.671875 C 7.460938 14.820312 7.375 15.023438 7.375 15.234375 C 7.375 15.667969 7.726562 16.019531 8.160156 16.019531 Z M 8.085938 14.453125 L 7.136719 12.394531 C 7.222656 12.3125 7.289062 12.207031 7.328125 12.09375 L 8.988281 12.09375 C 9.03125 12.207031 9.097656 12.3125 9.183594 12.394531 L 8.234375 14.453125 C 8.207031 14.449219 8.183594 14.449219 8.160156 14.449219 C 8.136719 14.449219 8.109375 14.449219 8.085938 14.453125 Z M 12.710938 12.621094 L 10.515625 11.835938 L 10.515625 11.832031 C 10.511719 11.714844 10.488281 11.601562 10.4375 11.496094 L 11.746094 10.1875 C 11.851562 10.238281 11.964844 10.261719 12.082031 10.265625 L 12.085938 10.265625 L 12.871094 12.460938 C 12.839844 12.480469 12.808594 12.507812 12.785156 12.535156 C 12.757812 12.558594 12.730469 12.589844 12.710938 12.621094 Z M 3.566406 12.621094 C 3.542969 12.589844 3.519531 12.558594 3.492188 12.535156 C 3.464844 12.507812 3.4375 12.480469 3.40625 12.457031 L 4.402344 10.261719 C 4.519531 10.261719 4.636719 10.238281 4.738281 10.1875 L 5.882812 11.496094 C 5.832031 11.601562 5.804688 11.714844 5.804688 11.832031 L 5.804688 11.835938 Z M 8.988281 11.570312 L 7.328125 11.570312 C 7.21875 11.257812 6.921875 11.046875 6.589844 11.046875 C 6.472656 11.046875 6.359375 11.074219 6.253906 11.125 L 5.109375 9.816406 C 5.160156 9.710938 5.1875 9.59375 5.1875 9.480469 C 5.1875 9.144531 4.976562 8.851562 4.664062 8.738281 L 4.664062 7.078125 C 4.976562 6.96875 5.1875 6.671875 5.1875 6.339844 C 5.1875 6.15625 5.121094 5.976562 5.003906 5.835938 C 5.71875 4.6875 6.804688 3.84375 8.160156 3.839844 C 10.96875 3.839844 12.269531 5.742188 12.269531 7.910156 C 12.269531 8.175781 12.242188 8.4375 12.1875 8.699219 C 11.636719 8.710938 11.296875 9.078125 11.296875 9.480469 C 11.296875 9.597656 11.324219 9.710938 11.375 9.816406 L 10.066406 11.125 C 9.960938 11.074219 9.847656 11.046875 9.730469 11.046875 C 9.394531 11.050781 9.101562 11.257812 8.988281 11.570312 Z M 3.84375 8.933594 L 1.574219 7.980469 C 1.574219 7.957031 1.578125 7.933594 1.578125 7.910156 C 1.578125 7.886719 1.574219 7.859375 1.574219 7.835938 L 3.839844 6.886719 C 3.925781 6.972656 4.027344 7.039062 4.140625 7.078125 L 4.140625 8.738281 C 4.027344 8.78125 3.925781 8.847656 3.84375 8.933594 Z M 3.84375 8.933594 "/>
</g>
</svg>
