
<svg xmlns="http://www.w3.org/2000/svg" xmlns:xlink="http://www.w3.org/1999/xlink" width="16px" height="16px" viewBox="0 0 16 16" version="1.1">
<g id="surface1">
<path style=" stroke:none;fill-rule:evenodd;fill:#ff6666;fill-opacity:1;" d="M 4 2 L 12 2 C 13.257812 2.015625 14.085938 2.058594 14.453125 2.261719 C 14.636719 2.363281 14.742188 2.476562 14.839844 2.734375 C 14.9375 2.992188 15 3.40625 15 4 L 15 12 C 15 12.59375 14.9375 13.007812 14.839844 13.265625 C 14.742188 13.527344 14.636719 13.636719 14.453125 13.738281 C 14.085938 13.941406 13.257812 13.984375 12 14 L 4 14 C 2.742188 13.984375 1.910156 13.941406 1.546875 13.738281 C 1.363281 13.636719 1.257812 13.527344 1.160156 13.265625 C 1.0625 13.007812 1 12.59375 1 12 L 1 4 C 1 3.40625 1.0625 2.992188 1.160156 2.734375 C 1.257812 2.476562 1.363281 2.363281 1.546875 2.261719 C 1.910156 2.058594 2.742188 2.015625 4 2 Z M 3.992188 1 C 2.734375 1.015625 1.816406 0.96875 1.0625 1.386719 C 0.6875 1.59375 0.390625 1.945312 0.226562 2.382812 C 0.0585938 2.820312 0 3.34375 0 4 L 0 12 C 0 12.65625 0.0585938 13.179688 0.226562 13.617188 C 0.390625 14.054688 0.6875 14.40625 1.0625 14.613281 C 1.816406 15.03125 2.734375 14.984375 3.992188 15 L 12.007812 15 C 13.265625 14.984375 14.183594 15.03125 14.9375 14.613281 C 15.3125 14.40625 15.609375 14.054688 15.777344 13.617188 C 15.941406 13.179688 16 12.65625 16 12 L 16 4 C 16 3.34375 15.941406 2.820312 15.773438 2.382812 C 15.609375 1.945312 15.3125 1.59375 14.9375 1.386719 C 14.183594 0.96875 13.265625 1.015625 12.007812 1 Z M 4.726562 5.925781 L 4.5625 6.980469 L 5.457031 6.980469 L 5.609375 5.925781 Z M 11.132812 8.96875 L 7.367188 8.96875 L 7.367188 8.308594 L 11.132812 8.308594 Z M 4.261719 8.96875 L 3.546875 8.96875 L 3.742188 7.683594 L 2.96875 7.683594 L 3.074219 6.980469 L 3.847656 6.980469 L 4.003906 5.925781 L 3.242188 5.925781 L 3.347656 5.230469 L 4.113281 5.230469 L 4.289062 4.050781 L 5.007812 4.050781 L 4.832031 5.230469 L 5.714844 5.230469 L 5.90625 4.050781 L 6.613281 4.050781 L 6.441406 5.230469 L 7.214844 5.230469 L 7.113281 5.925781 L 6.335938 5.925781 L 6.171875 6.980469 L 6.9375 6.980469 L 6.832031 7.683594 L 6.066406 7.683594 L 5.871094 8.96875 L 5.152344 8.96875 L 5.351562 7.683594 L 4.457031 7.683594 Z M 4.261719 8.96875 "/>
</g>
</svg>
