
<svg xmlns="http://www.w3.org/2000/svg" xmlns:xlink="http://www.w3.org/1999/xlink" width="16px" height="16px" viewBox="0 0 16 16" version="1.1">
<g id="surface1">
<path style=" stroke:none;fill-rule:nonzero;fill:#ff6666;fill-opacity:1;" d="M 8.175781 15.214844 C 7.433594 15.089844 6.792969 14.605469 6.40625 13.875 C 6.226562 13.539062 6.058594 12.996094 6.101562 12.882812 C 6.125 12.824219 6.324219 12.804688 7.128906 12.78125 C 8.558594 12.742188 9.183594 12.621094 10.039062 12.222656 C 11.339844 11.613281 12.324219 10.777344 12.921875 9.78125 C 13.214844 9.285156 13.367188 8.796875 13.464844 8.035156 C 13.53125 7.515625 13.589844 7.277344 13.765625 6.828125 C 14.050781 6.085938 14.152344 5.730469 14.121094 5.5625 C 14.105469 5.488281 14.070312 5.191406 14.039062 4.910156 C 14 4.488281 13.960938 4.347656 13.839844 4.125 C 13.667969 3.824219 13.652344 3.730469 13.761719 3.636719 C 13.828125 3.585938 13.898438 3.597656 14.167969 3.714844 C 14.691406 3.9375 15.058594 4.203125 15.425781 4.628906 C 15.921875 5.207031 16 5.40625 16 6.054688 C 16 7.042969 15.90625 8.539062 15.828125 8.796875 C 15.730469 9.128906 15.523438 9.367188 15.09375 9.65625 L 14.738281 9.890625 L 14.824219 10.023438 C 14.871094 10.09375 14.996094 10.257812 15.101562 10.382812 C 15.417969 10.761719 15.472656 11.042969 15.296875 11.425781 C 15.1875 11.675781 14.804688 12.09375 14.511719 12.296875 C 14.175781 12.527344 13.460938 12.867188 12.507812 13.253906 C 11.246094 13.757812 11.183594 13.796875 10.339844 14.558594 C 9.792969 15.054688 9.449219 15.214844 8.871094 15.238281 C 8.628906 15.25 8.316406 15.238281 8.175781 15.214844 Z M 4.402344 12.039062 C 4.152344 11.988281 3.847656 11.90625 3.722656 11.863281 C 3.320312 11.714844 2.460938 11.195312 1.652344 10.617188 C 0.683594 9.929688 0.332031 9.628906 0.144531 9.332031 C 0.015625 9.128906 0 9.058594 0 8.679688 C 0 8.308594 0.0195312 8.210938 0.179688 7.847656 C 0.296875 7.578125 0.390625 7.234375 0.460938 6.835938 C 0.570312 6.199219 0.75 5.675781 1.03125 5.171875 C 1.40625 4.507812 1.824219 4.195312 2.355469 4.191406 C 2.699219 4.191406 2.847656 4.324219 2.894531 4.675781 C 2.910156 4.8125 2.992188 5.183594 3.074219 5.5 C 3.457031 6.996094 3.457031 6.972656 3.121094 7.652344 C 2.84375 8.222656 2.789062 8.433594 2.863281 8.628906 C 2.890625 8.699219 3.085938 8.960938 3.296875 9.203125 C 3.511719 9.449219 3.886719 9.949219 4.132812 10.316406 C 4.664062 11.113281 5.105469 11.59375 5.554688 11.867188 C 5.734375 11.976562 5.882812 12.085938 5.886719 12.105469 C 5.890625 12.179688 4.851562 12.132812 4.402344 12.039062 Z M 7.421875 12.019531 C 7.027344 11.929688 6.539062 11.730469 6.230469 11.53125 C 5.875 11.304688 5.59375 10.964844 5.285156 10.386719 C 4.855469 9.585938 4.722656 9.433594 4.230469 9.191406 C 3.644531 8.898438 3.558594 8.71875 3.816406 8.3125 C 4.210938 7.695312 4.886719 7.394531 5.632812 7.515625 C 5.8125 7.542969 6.492188 7.746094 7.144531 7.964844 C 8.53125 8.425781 8.800781 8.5 9.316406 8.546875 C 9.609375 8.570312 9.769531 8.558594 9.996094 8.492188 C 10.484375 8.351562 10.964844 8.070312 11.320312 7.714844 C 11.816406 7.21875 12.011719 6.839844 12.304688 5.789062 C 12.347656 5.628906 12.40625 5.5 12.429688 5.5 C 12.601562 5.5 12.6875 6.980469 12.558594 7.714844 C 12.335938 8.996094 11.660156 10.132812 10.558594 11.070312 C 9.648438 11.851562 8.367188 12.238281 7.421875 12.019531 Z M 9.515625 7.675781 C 9.3125 7.511719 9.402344 7.359375 10.160156 6.582031 C 11.054688 5.667969 11.132812 5.527344 11.160156 4.769531 L 11.179688 4.210938 L 10.980469 4.03125 C 10.671875 3.75 10.285156 3.625 9.65625 3.597656 C 9.257812 3.582031 9.046875 3.597656 8.839844 3.65625 C 8.183594 3.847656 7.625 4.554688 7.722656 5.070312 C 7.765625 5.316406 8.066406 5.625 8.425781 5.804688 C 8.707031 5.941406 8.78125 5.957031 9 5.929688 C 9.449219 5.867188 9.957031 5.441406 10.066406 5.039062 C 10.234375 4.414062 9.515625 3.902344 8.832031 4.164062 C 8.589844 4.257812 8.300781 4.542969 8.300781 4.691406 C 8.300781 4.746094 8.277344 4.804688 8.246094 4.824219 C 8.175781 4.867188 8.230469 4.585938 8.339844 4.355469 C 8.648438 3.6875 10.195312 3.699219 10.417969 4.371094 C 10.578125 4.863281 10.324219 5.476562 9.625 6.285156 C 9.382812 6.5625 9.078125 6.917969 8.945312 7.070312 C 8.628906 7.441406 8.375 7.5625 7.90625 7.5625 C 7.28125 7.5625 6.480469 7.234375 6.199219 6.867188 C 6.089844 6.722656 6.0625 6.636719 6.0625 6.402344 C 6.0625 6.148438 6.101562 6.039062 6.429688 5.390625 C 6.730469 4.789062 6.867188 4.578125 7.21875 4.183594 C 8.070312 3.214844 8.511719 3.023438 9.574219 3.160156 C 10.496094 3.273438 11.074219 3.503906 11.480469 3.90625 C 11.726562 4.152344 11.839844 4.371094 11.949219 4.792969 C 12.042969 5.148438 12.023438 5.445312 11.878906 5.878906 C 11.683594 6.464844 10.929688 7.375 10.4375 7.613281 C 10.101562 7.777344 9.675781 7.804688 9.515625 7.675781 Z M 13.101562 6.363281 C 12.945312 6.261719 12.84375 5.890625 12.65625 4.722656 C 12.566406 4.140625 12.417969 3.789062 12.148438 3.488281 C 11.738281 3.035156 10.949219 2.582031 10.265625 2.410156 C 8.957031 2.074219 7.773438 2.460938 6.871094 3.519531 C 6.46875 3.988281 6.195312 4.511719 5.960938 5.253906 C 5.746094 5.929688 5.644531 6.054688 5.308594 6.054688 C 4.992188 6.054688 4.964844 5.980469 4.992188 5.203125 C 5.011719 4.683594 5.039062 4.496094 5.152344 4.171875 C 5.464844 3.257812 5.988281 2.628906 6.816406 2.167969 C 7.324219 1.886719 8.285156 1.363281 8.707031 1.136719 C 9.0625 0.941406 9.59375 0.992188 10.769531 1.320312 C 11.28125 1.460938 11.8125 1.632812 11.949219 1.695312 C 12.304688 1.855469 12.683594 2.21875 12.871094 2.570312 C 13.160156 3.109375 13.335938 4.152344 13.332031 5.285156 C 13.328125 6.101562 13.253906 6.460938 13.101562 6.367188 Z M 3.796875 6.085938 C 3.730469 5.9375 3.582031 5.367188 3.46875 4.792969 C 3.289062 3.914062 3.257812 3.664062 3.253906 3.085938 C 3.246094 2.433594 3.25 2.390625 3.390625 2.085938 C 3.5625 1.722656 3.671875 1.617188 4.066406 1.472656 C 4.222656 1.414062 4.558594 1.242188 4.808594 1.089844 C 5.125 0.902344 5.347656 0.804688 5.535156 0.773438 C 5.777344 0.734375 6.339844 0.769531 6.644531 0.839844 C 6.710938 0.859375 6.980469 0.890625 7.242188 0.917969 C 7.558594 0.949219 7.742188 0.992188 7.796875 1.046875 C 7.867188 1.121094 7.863281 1.136719 7.738281 1.246094 C 7.570312 1.390625 7.152344 1.550781 6.589844 1.683594 C 5.3125 1.984375 4.921875 2.269531 4.425781 3.261719 C 4.136719 3.847656 4.070312 4.207031 4.039062 5.359375 C 4.023438 5.929688 3.992188 6.355469 3.964844 6.355469 C 3.941406 6.355469 3.863281 6.234375 3.796875 6.085938 Z M 8.921875 5.199219 C 8.71875 5.078125 8.671875 4.90625 8.777344 4.699219 C 8.886719 4.488281 9.042969 4.40625 9.148438 4.511719 C 9.210938 4.574219 9.214844 4.613281 9.167969 4.71875 C 9.027344 5.027344 9.183594 5.167969 9.539062 5.058594 C 9.757812 4.992188 9.761719 5.066406 9.546875 5.199219 C 9.339844 5.324219 9.128906 5.324219 8.921875 5.199219 Z M 8.921875 5.199219 "/>
</g>
</svg>
