
<svg xmlns="http://www.w3.org/2000/svg" xmlns:xlink="http://www.w3.org/1999/xlink" width="16px" height="16px" viewBox="0 0 16 16" version="1.1">
<g id="surface1">
<path style=" stroke:none;fill-rule:evenodd;fill:#ff6666;fill-opacity:1;" d="M 2.152344 5.910156 L 2.152344 5.101562 L 0 5.101562 L 0 13.792969 L 2.152344 13.792969 L 2.152344 7.277344 L 5.386719 7.277344 L 5.386719 5.101562 C 4.246094 5.097656 3.121094 5.378906 2.152344 5.910156 Z M 8.617188 4.378906 L 8.617188 7.277344 L 10.664062 7.277344 C 11.527344 7.277344 12.207031 6.710938 12.207031 5.828125 C 12.207031 4.945312 11.527344 4.378906 10.664062 4.378906 Z M 10.019531 9.449219 L 13.292969 13.792969 L 16 13.792969 L 12.601562 9.28125 C 14.035156 8.816406 15.078125 7.445312 15.078125 5.828125 C 15.078125 3.828125 13.488281 2.207031 11.53125 2.207031 L 6.460938 2.207031 L 6.460938 13.792969 L 8.617188 13.792969 L 8.617188 9.449219 Z M 10.019531 9.449219 "/>
</g>
</svg>
