
<svg xmlns="http://www.w3.org/2000/svg" xmlns:xlink="http://www.w3.org/1999/xlink" width="16px" height="16px" viewBox="0 0 16 16" version="1.1">
<g id="surface1">
<path style=" stroke:none;fill-rule:nonzero;fill:#ff6666;fill-opacity:1;" d="M 0.5 1.246094 L 0.5 14.800781 L 15.5 14.800781 L 15.5 1.246094 Z M 15.082031 1.554688 L 15.082031 14.492188 Z M 2.757812 2.742188 C 4.175781 2.742188 5.535156 3.023438 6.828125 3.582031 C 8.121094 4.140625 9.238281 4.890625 10.175781 5.832031 C 11.113281 6.773438 11.859375 7.898438 12.414062 9.199219 C 12.972656 10.496094 13.25 11.863281 13.25 13.289062 L 11.234375 13.289062 C 11.234375 12.136719 11.011719 11.03125 10.5625 9.976562 C 10.117188 8.921875 9.511719 8.015625 8.753906 7.257812 C 7.996094 6.496094 7.09375 5.894531 6.046875 5.441406 C 5 4.992188 3.90625 4.769531 2.757812 4.769531 Z M 2.757812 6.328125 C 4.011719 6.328125 5.167969 6.640625 6.230469 7.261719 C 7.292969 7.882812 8.136719 8.730469 8.753906 9.796875 C 9.371094 10.867188 9.683594 12.03125 9.683594 13.289062 L 7.667969 13.289062 C 7.667969 11.925781 7.1875 10.761719 6.230469 9.796875 C 5.265625 8.828125 4.109375 8.34375 2.757812 8.34375 Z M 4.152344 10.472656 C 4.539062 10.472656 4.867188 10.609375 5.140625 10.882812 C 5.410156 11.160156 5.546875 11.488281 5.546875 11.875 C 5.546875 12.269531 5.410156 12.601562 5.140625 12.871094 C 4.867188 13.144531 4.539062 13.277344 4.152344 13.277344 C 3.769531 13.277344 3.4375 13.140625 3.167969 12.867188 C 2.894531 12.59375 2.757812 12.261719 2.757812 11.875 C 2.757812 11.488281 2.894531 11.160156 3.167969 10.882812 C 3.4375 10.609375 3.769531 10.472656 4.152344 10.472656 Z M 4.152344 10.472656 "/>
</g>
</svg>
