
<svg xmlns="http://www.w3.org/2000/svg" xmlns:xlink="http://www.w3.org/1999/xlink" width="16px" height="16px" viewBox="0 0 16 16" version="1.1">
<g id="surface1">
<path style=" stroke:none;fill-rule:evenodd;fill:#ff6666;fill-opacity:1;" d="M -0.03125 12.5 L 15.96875 12.5 L 15.96875 14.5 L -0.03125 14.5 Z M -0.03125 12.5 "/>
<path style=" stroke:none;fill-rule:evenodd;fill:#ff6666;fill-opacity:1;" d="M 1.453125 9.871094 L 0 9.871094 L 0 1.398438 L 3.753906 1.398438 C 4.726562 1.398438 5.4375 1.640625 5.875 2.125 C 6.316406 2.609375 6.535156 3.226562 6.535156 3.976562 C 6.535156 4.503906 6.386719 4.996094 6.089844 5.453125 C 5.789062 5.914062 5.359375 6.230469 4.792969 6.398438 L 6.488281 9.871094 L 4.851562 9.871094 L 3.21875 6.554688 L 1.453125 6.554688 Z M 1.453125 2.78125 L 1.453125 5.175781 L 3.777344 5.175781 C 4.210938 5.175781 4.53125 5.0625 4.730469 4.835938 C 4.933594 4.609375 5.035156 4.324219 5.035156 3.976562 C 5.035156 3.640625 4.9375 3.355469 4.742188 3.125 C 4.550781 2.894531 4.226562 2.78125 3.777344 2.78125 Z M 16 1.398438 L 16 9.871094 L 14.546875 9.871094 L 14.546875 5.371094 C 14.546875 5 14.5625 4.660156 14.597656 4.351562 C 14.5 4.644531 14.371094 4.992188 14.210938 5.394531 L 12.152344 10.015625 L 10.09375 5.371094 C 9.949219 5.046875 9.816406 4.707031 9.695312 4.351562 C 9.726562 4.660156 9.742188 5 9.742188 5.371094 L 9.742188 9.871094 L 8.289062 9.871094 L 8.289062 1.398438 L 9.753906 1.398438 L 11.933594 6.375 C 12.023438 6.601562 12.097656 6.808594 12.164062 7.003906 C 12.226562 6.808594 12.304688 6.601562 12.394531 6.375 L 14.585938 1.398438 Z M 16 1.398438 "/>
</g>
</svg>
