
<svg xmlns="http://www.w3.org/2000/svg" xmlns:xlink="http://www.w3.org/1999/xlink" width="16px" height="16px" viewBox="0 0 16 16" version="1.1">
<g id="surface1">
<path style=" stroke:none;fill-rule:evenodd;fill:#ff6666;fill-opacity:1;" d="M 4.398438 0.894531 L 4.398438 3.203125 C 4.851562 3.207031 5.171875 3.214844 5.589844 3.3125 C 6.015625 3.410156 6.398438 3.492188 6.398438 4.027344 L 5.839844 4.398438 C 5.839844 4.398438 5.546875 4.074219 5.28125 4.027344 C 5.171875 4.007812 5.054688 4.023438 4.800781 4.226562 L 4.800781 14.636719 L 3.601562 16 L 2.398438 14.636719 L 2.398438 10 L 1.199219 8.800781 L 2.398438 7.601562 L 2.398438 4.09375 C 2.238281 4.03125 2.074219 4 1.921875 4.027344 C 1.652344 4.074219 1.359375 4.398438 1.359375 4.398438 L 0.800781 4.027344 C 0.800781 3.492188 1.183594 3.410156 1.609375 3.3125 C 2.019531 3.21875 2.363281 3.210938 2.800781 3.203125 L 2.800781 0.894531 C 2.554688 0.675781 2.398438 0.355469 2.398438 0 L 4.800781 0 C 4.800781 0.355469 4.644531 0.675781 4.398438 0.894531 Z M 6.929688 3.199219 C 7.089844 3.441406 7.199219 3.738281 7.199219 4.027344 C 7.199219 4.242188 7.03125 4.453125 6.875 4.601562 C 7.53125 5.0625 8 5.890625 8 6.707031 C 8 8.21875 7.15625 8.351562 5.601562 8.800781 C 6.535156 11.082031 8.394531 13.101562 10.234375 14.148438 C 11.804688 15.097656 13.246094 15.765625 15.199219 16 C 13.042969 13.363281 9.679688 12.207031 8 9.601562 C 9.121094 9.011719 10.398438 8.503906 10.398438 6.554688 C 10.398438 4.976562 8.960938 3.199219 7.890625 3.199219 Z M 6.929688 3.199219 "/>
</g>
</svg>
