
<svg xmlns="http://www.w3.org/2000/svg" xmlns:xlink="http://www.w3.org/1999/xlink" width="16px" height="16px" viewBox="0 0 16 16" version="1.1">
<g id="surface1">
<path style=" stroke:none;fill-rule:evenodd;fill:#ff6666;fill-opacity:1;" d="M 8.335938 7.582031 L 9.167969 8.414062 L 8.335938 9.25 L 7.503906 8.414062 Z M 10.835938 0.109375 L 10.003906 5.113281 L 6.667969 5.113281 L 5.835938 0.109375 Z M 6.667969 5.945312 L 10.003906 5.945312 L 10.003906 6.78125 L 6.667969 6.78125 Z M 0 5.945312 L 5.003906 6.78125 L 5.003906 10.113281 L 0 10.949219 Z M 5.835938 10.113281 L 5.835938 6.78125 L 6.667969 6.78125 L 6.667969 10.113281 Z M 12.464844 15.953125 L 9.515625 11.824219 L 11.875 9.46875 L 16 12.414062 Z M 11.285156 8.878906 L 8.925781 11.234375 L 8.335938 10.644531 L 10.695312 8.289062 Z M 11.285156 8.878906 "/>
</g>
</svg>
