
<svg xmlns="http://www.w3.org/2000/svg" xmlns:xlink="http://www.w3.org/1999/xlink" width="16px" height="16px" viewBox="0 0 16 16" version="1.1">
<g id="surface1">
<path style=" stroke:none;fill-rule:nonzero;fill:#ff6666;fill-opacity:1;" d="M 5.441406 0 L 6.589844 4.277344 C 6.667969 4.566406 6.710938 4.722656 6.371094 5.125 C 6.316406 5.195312 6.261719 5.261719 6.214844 5.339844 C 6.039062 5.648438 5.976562 6.023438 6.078125 6.394531 C 6.273438 7.136719 7.039062 7.578125 7.78125 7.378906 C 8.523438 7.179688 8.964844 6.417969 8.765625 5.675781 C 8.664062 5.304688 8.425781 5.007812 8.117188 4.828125 C 8.039062 4.785156 7.957031 4.753906 7.871094 4.722656 C 7.378906 4.546875 7.339844 4.386719 7.261719 4.097656 L 6.164062 0 Z M 16 5.535156 L 11.734375 6.679688 C 11.445312 6.757812 11.289062 6.800781 10.886719 6.464844 C 10.816406 6.40625 10.75 6.351562 10.671875 6.304688 C 10.363281 6.128906 9.988281 6.066406 9.617188 6.167969 C 8.875 6.363281 8.433594 7.128906 8.632812 7.871094 C 8.832031 8.613281 9.59375 9.054688 10.335938 8.855469 C 10.707031 8.753906 11.003906 8.515625 11.179688 8.207031 C 11.226562 8.128906 11.257812 8.046875 11.289062 7.964844 C 11.46875 7.46875 11.625 7.429688 11.914062 7.351562 L 16 6.257812 Z M 5.863281 7.203125 C 5.769531 7.207031 5.675781 7.222656 5.585938 7.246094 C 5.214844 7.347656 4.917969 7.585938 4.738281 7.894531 C 4.695312 7.972656 4.664062 8.054688 4.632812 8.140625 C 4.453125 8.632812 4.296875 8.671875 4.007812 8.75 L 0 9.824219 L 0 10.542969 L 4.1875 9.421875 C 4.476562 9.34375 4.632812 9.300781 5.035156 9.636719 C 5.105469 9.695312 5.171875 9.75 5.25 9.796875 C 5.558594 9.972656 5.933594 10.035156 6.304688 9.933594 C 7.046875 9.734375 7.488281 8.972656 7.289062 8.230469 C 7.113281 7.582031 6.507812 7.164062 5.863281 7.203125 Z M 8.417969 8.675781 C 8.328125 8.683594 8.234375 8.699219 8.140625 8.722656 C 7.398438 8.921875 6.957031 9.683594 7.15625 10.425781 C 7.257812 10.796875 7.496094 11.09375 7.804688 11.273438 C 7.882812 11.316406 7.964844 11.347656 8.050781 11.378906 C 8.542969 11.558594 8.582031 11.71875 8.660156 12.003906 L 9.730469 16 L 10.449219 16 L 9.332031 11.824219 C 9.253906 11.535156 9.210938 11.378906 9.546875 10.976562 C 9.605469 10.90625 9.660156 10.839844 9.707031 10.761719 C 9.882812 10.453125 9.945312 10.078125 9.84375 9.707031 C 9.671875 9.058594 9.066406 8.636719 8.417969 8.675781 Z M 8.417969 8.675781 "/>
</g>
</svg>
