
<svg xmlns="http://www.w3.org/2000/svg" xmlns:xlink="http://www.w3.org/1999/xlink" width="16px" height="16px" viewBox="0 0 16 16" version="1.1">
<g id="surface1">
<path style=" stroke:none;fill-rule:nonzero;fill:#ff6666;fill-opacity:1;" d="M 7.109375 12.445312 C 7.109375 12.933594 7.511719 13.332031 8 13.332031 C 8.488281 13.332031 8.890625 12.933594 8.890625 12.445312 C 8.890625 11.957031 8.488281 11.554688 8 11.554688 C 7.511719 11.554688 7.109375 11.957031 7.109375 12.445312 Z M 7.109375 0 L 7.109375 3.554688 L 8.890625 3.554688 L 8.890625 1.847656 C 11.902344 2.285156 14.222656 4.863281 14.222656 8 C 14.222656 11.441406 11.441406 14.222656 8 14.222656 C 4.558594 14.222656 1.777344 11.441406 1.777344 8 C 1.777344 6.507812 2.300781 5.136719 3.183594 4.070312 L 8 8.890625 L 9.253906 7.636719 L 3.210938 1.589844 L 3.210938 1.609375 C 1.261719 3.066406 0 5.378906 0 8 C 0 12.417969 3.574219 16 8 16 C 12.417969 16 16 12.417969 16 8 C 16 3.582031 12.417969 0 8 0 Z M 13.332031 8 C 13.332031 7.511719 12.933594 7.109375 12.445312 7.109375 C 11.957031 7.109375 11.554688 7.511719 11.554688 8 C 11.554688 8.488281 11.957031 8.890625 12.445312 8.890625 C 12.933594 8.890625 13.332031 8.488281 13.332031 8 Z M 2.667969 8 C 2.667969 8.488281 3.066406 8.890625 3.554688 8.890625 C 4.042969 8.890625 4.445312 8.488281 4.445312 8 C 4.445312 7.511719 4.042969 7.109375 3.554688 7.109375 C 3.066406 7.109375 2.667969 7.511719 2.667969 8 Z M 2.667969 8 "/>
</g>
</svg>
