
<svg xmlns="http://www.w3.org/2000/svg" xmlns:xlink="http://www.w3.org/1999/xlink" width="16px" height="16px" viewBox="0 0 16 16" version="1.1">
<g id="surface1">
<path style=" stroke:none;fill-rule:nonzero;fill:#ff6666;fill-opacity:1;" d="M 5.386719 0 C 5.054688 0 4.785156 0.269531 4.785156 0.597656 C 4.785156 0.730469 4.832031 0.847656 4.90625 0.945312 L 3.398438 2.667969 C 3.335938 2.648438 3.28125 2.625 3.214844 2.625 C 2.808594 2.625 2.472656 2.957031 2.472656 3.359375 C 2.472656 3.375 2.492188 3.382812 2.492188 3.402344 L 1.164062 4.269531 C 1.066406 4.203125 0.953125 4.15625 0.824219 4.15625 C 0.492188 4.15625 0.222656 4.421875 0.222656 4.753906 C 0.222656 4.957031 0.328125 5.128906 0.480469 5.238281 L 0.242188 9.71875 C 0.09375 9.800781 0 9.96875 0 10.144531 C 0 10.402344 0.222656 10.609375 0.480469 10.609375 C 0.496094 10.609375 0.507812 10.609375 0.523438 10.609375 L 3.820312 13.953125 C 3.820312 13.960938 3.820312 13.964844 3.820312 13.972656 C 3.820312 14.230469 4.019531 14.453125 4.28125 14.453125 C 4.375 14.453125 4.46875 14.421875 4.542969 14.378906 L 6.351562 15.324219 C 6.347656 15.351562 6.332031 15.375 6.332031 15.402344 C 6.332031 15.730469 6.601562 16 6.933594 16 C 7.246094 16 7.484375 15.761719 7.519531 15.460938 L 12.339844 14.050781 C 12.453125 14.199219 12.640625 14.300781 12.84375 14.300781 C 13.175781 14.300781 13.445312 14.03125 13.445312 13.703125 C 13.445312 13.5625 13.386719 13.4375 13.304688 13.335938 L 15.398438 8.753906 C 15.730469 8.753906 16 8.488281 16 8.15625 C 16 7.867188 15.792969 7.628906 15.519531 7.574219 L 14.855469 5.390625 C 14.957031 5.304688 15.035156 5.1875 15.035156 5.042969 C 15.035156 4.785156 14.8125 4.582031 14.554688 4.582031 C 14.53125 4.582031 14.515625 4.597656 14.492188 4.601562 L 11.457031 0.929688 C 11.460938 0.90625 11.476562 0.878906 11.476562 0.851562 C 11.476562 0.59375 11.257812 0.386719 10.996094 0.386719 C 10.839844 0.386719 10.71875 0.464844 10.632812 0.582031 L 5.949219 0.40625 C 5.867188 0.171875 5.652344 0 5.386719 0 Z M 5.949219 0.8125 L 10.550781 0.984375 C 10.582031 1.089844 10.644531 1.175781 10.734375 1.234375 L 10.613281 1.757812 C 10.398438 1.808594 10.226562 1.953125 10.128906 2.144531 L 4.984375 2.761719 L 5.328125 1.179688 C 5.347656 1.179688 5.363281 1.199219 5.386719 1.199219 C 5.644531 1.199219 5.863281 1.035156 5.949219 0.8125 Z M 11.195312 1.273438 L 14.152344 4.851562 C 14.121094 4.914062 14.089844 4.96875 14.089844 5.042969 C 14.089844 5.171875 14.144531 5.285156 14.230469 5.371094 L 13.988281 6.046875 L 11.417969 2.800781 C 11.472656 2.699219 11.515625 2.578125 11.515625 2.453125 C 11.515625 2.140625 11.316406 1.878906 11.035156 1.777344 L 11.136719 1.292969 C 11.15625 1.285156 11.175781 1.285156 11.195312 1.273438 Z M 5.085938 1.371094 L 4.765625 2.78125 L 3.777344 2.898438 C 3.773438 2.890625 3.765625 2.886719 3.757812 2.878906 Z M 10.152344 2.976562 L 8.664062 8.734375 C 8.617188 8.746094 8.566406 8.753906 8.523438 8.773438 L 4.703125 4.464844 L 6.492188 4.273438 C 6.574219 4.417969 6.734375 4.523438 6.914062 4.523438 C 7.175781 4.523438 7.375 4.300781 7.375 4.039062 C 7.375 4.003906 7.363281 3.976562 7.355469 3.945312 L 9.929688 2.996094 Z M 9.046875 3.089844 L 7.257812 3.75 C 7.167969 3.644531 7.0625 3.574219 6.914062 3.574219 C 6.652344 3.574219 6.433594 3.777344 6.433594 4.039062 C 6.433594 4.046875 6.433594 4.050781 6.433594 4.058594 L 4.664062 4.269531 L 4.804688 3.574219 Z M 10.953125 3.1875 L 13.75 6.742188 L 13.164062 8.367188 L 9.667969 9.179688 C 9.617188 9.082031 9.546875 9.015625 9.46875 8.945312 Z M 4.5625 3.613281 L 4.441406 4.171875 L 4 3.671875 Z M 2.652344 3.804688 C 2.6875 3.847656 2.730469 3.886719 2.773438 3.921875 L 2.671875 4.480469 L 1.40625 4.636719 C 1.40625 4.628906 1.410156 4.625 1.40625 4.617188 Z M 3.175781 4.078125 C 3.191406 4.078125 3.203125 4.078125 3.214844 4.078125 C 3.230469 4.078125 3.242188 4.078125 3.257812 4.078125 L 3.539062 4.386719 L 3.117188 4.445312 Z M 3.71875 4.578125 L 4.242188 5.160156 L 4 6.222656 C 3.75 6.234375 3.558594 6.433594 3.558594 6.683594 C 3.558594 6.832031 3.632812 6.945312 3.738281 7.03125 L 2.152344 9.429688 L 3.074219 4.65625 Z M 2.632812 4.695312 L 1.628906 9.890625 C 1.449219 9.929688 1.308594 10.046875 1.226562 10.203125 L 0.945312 10.144531 C 0.945312 9.949219 0.832031 9.769531 0.664062 9.699219 L 0.90625 5.332031 C 1.171875 5.296875 1.371094 5.09375 1.40625 4.828125 Z M 4.402344 5.371094 L 7.980469 9.371094 C 7.972656 9.394531 7.964844 9.421875 7.960938 9.449219 L 2.171875 10.066406 C 2.132812 10.03125 2.097656 9.996094 2.050781 9.96875 L 3.898438 7.128906 C 3.9375 7.140625 3.976562 7.148438 4.019531 7.148438 C 4.28125 7.148438 4.503906 6.945312 4.503906 6.683594 C 4.503906 6.5 4.378906 6.335938 4.222656 6.261719 Z M 14.410156 5.488281 C 14.425781 5.492188 14.4375 5.484375 14.453125 5.488281 L 14.996094 7.339844 L 14.152344 6.238281 Z M 13.890625 6.9375 L 14.734375 8 L 13.40625 8.308594 Z M 14.792969 8.597656 L 12.882812 12.753906 L 12.925781 10.164062 C 13.125 10.121094 13.285156 9.949219 13.285156 9.738281 C 13.285156 9.566406 13.171875 9.421875 13.023438 9.351562 L 13.164062 8.984375 Z M 12.945312 9.042969 L 12.84375 9.292969 C 12.597656 9.292969 12.402344 9.496094 12.402344 9.738281 C 12.402344 9.941406 12.535156 10.113281 12.722656 10.164062 L 12.664062 13.117188 C 12.515625 13.164062 12.398438 13.277344 12.320312 13.410156 L 9.6875 12.828125 C 9.6875 12.570312 9.46875 12.367188 9.207031 12.367188 C 8.953125 12.367188 8.734375 12.558594 8.722656 12.808594 L 8.082031 12.964844 L 8.882812 10.53125 C 9.324219 10.523438 9.691406 10.191406 9.769531 9.777344 Z M 8.058594 10.046875 C 8.117188 10.148438 8.195312 10.246094 8.28125 10.316406 L 7.355469 13.136719 L 5.425781 13.621094 L 2.3125 10.703125 C 2.316406 10.691406 2.328125 10.675781 2.332031 10.664062 Z M 1.085938 10.550781 L 1.164062 10.570312 C 1.167969 10.59375 1.160156 10.625 1.164062 10.648438 Z M 1.566406 11.03125 C 1.625 11.050781 1.6875 11.074219 1.75 11.074219 C 1.761719 11.074219 1.777344 11.074219 1.789062 11.074219 L 4.421875 13.527344 C 4.378906 13.515625 4.328125 13.507812 4.28125 13.507812 C 4.1875 13.507812 4.113281 13.539062 4.039062 13.582031 L 1.566406 11.035156 Z M 8.765625 13.003906 C 8.832031 13.179688 9.003906 13.292969 9.207031 13.292969 C 9.402344 13.292969 9.578125 13.191406 9.648438 13.023438 L 11.941406 13.523438 L 7.476562 14.820312 L 8.019531 13.175781 Z M 7.296875 13.371094 L 6.8125 14.820312 C 6.789062 14.824219 6.757812 14.832031 6.734375 14.839844 L 5.589844 13.777344 Z M 4.882812 13.949219 L 5.1875 14.238281 L 4.765625 14.007812 C 4.765625 13.996094 4.765625 13.984375 4.765625 13.96875 Z M 4.882812 13.949219 "/>
</g>
</svg>
