
<svg xmlns="http://www.w3.org/2000/svg" xmlns:xlink="http://www.w3.org/1999/xlink" width="16px" height="16px" viewBox="0 0 16 16" version="1.1">
<g id="surface1">
<path style=" stroke:none;fill-rule:nonzero;fill:#ff6666;fill-opacity:1;" d="M 1.5 13.734375 C 0.601562 12.511719 0.5 12.367188 0.5 12.3125 C 0.5 12.285156 0.867188 11.78125 1.316406 11.195312 L 2.132812 10.128906 L 2.132812 12.316406 C 2.132812 13.515625 2.117188 14.5 2.097656 14.5 C 2.078125 14.5 1.8125 14.15625 1.5 13.734375 Z M 2.609375 12.332031 L 2.609375 11.300781 L 6.894531 11.300781 C 11.992188 11.300781 11.476562 11.414062 11.441406 10.320312 C 11.429688 9.898438 11.386719 9.582031 11.335938 9.519531 C 11.261719 9.433594 10.648438 9.414062 7.054688 9.375 C 3.195312 9.335938 2.851562 9.324219 2.730469 9.214844 C 2.605469 9.101562 2.597656 8.996094 2.621094 6.710938 C 2.640625 4.472656 2.652344 4.316406 2.777344 4.097656 C 2.976562 3.765625 3.234375 3.597656 3.644531 3.539062 C 3.84375 3.511719 6.125 3.484375 8.714844 3.484375 L 13.425781 3.476562 L 13.425781 5.445312 L 9.144531 5.464844 C 5.136719 5.484375 4.851562 5.492188 4.738281 5.605469 C 4.636719 5.707031 4.617188 5.847656 4.617188 6.433594 C 4.617188 7.53125 4.214844 7.421875 8.351562 7.429688 C 10.261719 7.429688 12.035156 7.453125 12.285156 7.480469 C 12.800781 7.539062 13.042969 7.679688 13.257812 8.042969 C 13.382812 8.261719 13.390625 8.398438 13.390625 10.292969 L 13.390625 12.3125 L 13.238281 12.722656 C 13.125 12.882812 12.976562 13.011719 12.785156 13.097656 L 12.339844 13.292969 L 7.472656 13.328125 L 2.609375 13.363281 Z M 13.9375 2.175781 L 14.488281 2.914062 C 15.617188 4.425781 15.566406 4.339844 15.429688 4.550781 C 15.277344 4.785156 14.578125 5.714844 14.207031 6.175781 L 13.921875 6.527344 C 13.917969 6.597656 13.9375 2.175781 13.9375 2.175781 Z M 13.9375 2.175781 "/>
</g>
</svg>
