
<svg xmlns="http://www.w3.org/2000/svg" xmlns:xlink="http://www.w3.org/1999/xlink" width="16px" height="16px" viewBox="0 0 16 16" version="1.1">
<g id="surface1">
<path style=" stroke:none;fill-rule:evenodd;fill:#ff6666;fill-opacity:1;" d="M 3.144531 8 C 3.144531 5.320312 5.320312 3.144531 8 3.144531 C 10.679688 3.144531 12.855469 5.320312 12.855469 8 C 12.855469 10.679688 10.679688 12.855469 8 12.855469 C 5.320312 12.855469 3.144531 10.679688 3.144531 8 Z M 8 1.714844 L 8 0 C 12.417969 0 16 3.582031 16 8 L 14.285156 8 C 14.285156 11.46875 11.46875 14.285156 8 14.285156 L 8 16 C 3.582031 16 0 12.417969 0 8 L 1.714844 8 C 1.714844 4.53125 4.53125 1.714844 8 1.714844 Z M 6.355469 5.273438 L 9.53125 5.273438 C 9.835938 5.273438 10.097656 5.382812 10.316406 5.601562 C 10.535156 5.816406 10.644531 6.078125 10.644531 6.382812 L 10.644531 7.597656 C 10.644531 7.90625 10.535156 8.167969 10.316406 8.386719 C 10.097656 8.605469 9.835938 8.714844 9.53125 8.714844 L 6.410156 8.714844 L 6.410156 9.609375 L 10.644531 9.609375 L 10.644531 10.777344 L 5.242188 10.777344 L 5.242188 8.648438 C 5.242188 8.339844 5.351562 8.078125 5.570312 7.863281 C 5.789062 7.644531 6.050781 7.539062 6.355469 7.539062 L 9.476562 7.539062 L 9.476562 6.445312 L 6.410156 6.445312 L 6.410156 6.886719 L 5.242188 6.886719 L 5.242188 6.382812 C 5.242188 6.078125 5.351562 5.816406 5.570312 5.601562 C 5.789062 5.382812 6.050781 5.273438 6.355469 5.273438 Z M 6.355469 5.273438 "/>
</g>
</svg>
