
<svg xmlns="http://www.w3.org/2000/svg" xmlns:xlink="http://www.w3.org/1999/xlink" width="16px" height="16px" viewBox="0 0 16 16" version="1.1">
<g id="surface1">
<path style=" stroke:none;fill-rule:nonzero;fill:#ff6666;fill-opacity:1;" d="M 3.003906 1 C 3.003906 1 2.003906 0.996094 2.003906 2 L 2 5.996094 L 0 5.996094 L 0 6.996094 L 16 6.996094 L 16 5.996094 L 14 5.996094 L 14.003906 2 C 14.003906 0.996094 13.003906 1 13.003906 1 Z M 3 1.996094 L 13 1.996094 L 13 5.996094 L 3 5.996094 Z M 2.003906 8.996094 L 2.003906 14 C 2.003906 14 2.003906 15 3.003906 15 L 13.003906 15 C 14.003906 15 14.003906 14 14.003906 14 L 14.003906 8.996094 L 13 8.996094 L 13 13.996094 L 3 13.996094 L 3 8.996094 Z M 2.003906 8.996094 "/>
</g>
</svg>
