
<svg xmlns="http://www.w3.org/2000/svg" xmlns:xlink="http://www.w3.org/1999/xlink" width="16px" height="16px" viewBox="0 0 16 16" version="1.1">
<g id="surface1">
<path style=" stroke:none;fill-rule:nonzero;fill:#ff6666;fill-opacity:1;" d="M 15.925781 0.65625 L 15.925781 2.621094 C 15.925781 2.984375 15.632812 3.277344 15.269531 3.277344 L 3.734375 3.277344 C 3.515625 3.277344 3.339844 3.453125 3.339844 3.671875 L 3.339844 6.164062 C 3.339844 6.382812 3.515625 6.558594 3.734375 6.558594 L 15.269531 6.558594 C 15.628906 6.558594 15.925781 6.851562 15.925781 7.214844 L 15.9375 15.34375 C 15.9375 15.707031 15.644531 16 15.285156 16 L 0.71875 16 C 0.355469 16 0.0625 15.707031 0.0625 15.34375 L 0.0625 13.378906 C 0.0625 13.015625 0.355469 12.722656 0.71875 12.722656 L 12.261719 12.722656 C 12.480469 12.722656 12.65625 12.546875 12.65625 12.328125 L 12.652344 10.230469 C 12.652344 10.011719 12.472656 9.835938 12.257812 9.835938 L 0.71875 9.835938 C 0.355469 9.835938 0.0625 9.542969 0.0625 9.179688 L 0.0625 0.65625 C 0.0625 0.292969 0.355469 0 0.71875 0 L 15.269531 0 C 15.632812 0 15.925781 0.292969 15.925781 0.65625 Z M 15.925781 0.65625 "/>
</g>
</svg>
