
<svg xmlns="http://www.w3.org/2000/svg" xmlns:xlink="http://www.w3.org/1999/xlink" width="16px" height="16px" viewBox="0 0 16 16" version="1.1">
<g id="surface1">
<path style=" stroke:none;fill-rule:nonzero;fill:#ff6666;fill-opacity:1;" d="M 0.5 8.277344 C 0.5 4.488281 2.460938 2.421875 3.605469 2.421875 C 4.753906 2.421875 4.875 3.007812 4.875 3.9375 C 4.875 5.742188 2.6875 5.097656 2.6875 8.484375 C 2.6875 9.605469 3.308594 10.863281 4.585938 10.863281 C 5.613281 10.863281 5.992188 9.769531 6.511719 7.578125 C 7.375 4.285156 8.25 1.800781 11.199219 1.800781 C 14.066406 1.800781 15.5 4.210938 15.5 8 C 15.5 11.792969 13.28125 14.296875 12.132812 14.296875 C 10.988281 14.296875 10.5 13.839844 10.5 12.910156 C 10.5 11.105469 13.101562 11.394531 13.101562 8.007812 C 13.101562 6.882812 12.609375 5.230469 11.332031 5.230469 C 10.304688 5.230469 9.941406 5.304688 9.3125 7.703125 C 8.96875 10.269531 8.152344 14.300781 5.035156 14.300781 C 2.167969 14.300781 0.5 12.070312 0.5 8.28125 Z M 0.5 8.277344 "/>
</g>
</svg>
