
<svg xmlns="http://www.w3.org/2000/svg" xmlns:xlink="http://www.w3.org/1999/xlink" width="16px" height="16px" viewBox="0 0 16 16" version="1.1">
<g id="surface1">
<path style=" stroke:none;fill-rule:evenodd;fill:#ff6666;fill-opacity:1;" d="M 2.511719 9.207031 C 1.003906 9.207031 1.003906 8.449219 1.003906 8.203125 C 1.003906 7.953125 1.003906 7.195312 2.511719 7.195312 C 4.019531 7.195312 4.019531 7.953125 4.019531 8.203125 C 4.019531 8.449219 4.019531 9.207031 2.511719 9.207031 Z M 9.933594 7.074219 C 9.691406 7.789062 9.347656 8.460938 8.914062 9.078125 C 8.777344 9.277344 8.648438 9.472656 8.527344 9.699219 C 10.796875 9.425781 12.484375 9.207031 12.484375 9.207031 C 15.085938 8.71875 16 6.191406 16 6.191406 Z M 5.023438 8.203125 C 5.023438 6.945312 4.082031 6.191406 2.511719 6.191406 C 0.9375 6.191406 0 6.945312 0 8.203125 C 0 9.828125 1.335938 10.46875 4.046875 10.210938 C 4.351562 10.183594 4.613281 10.128906 5 10.085938 C 5.109375 9.613281 5.230469 9.105469 5.355469 8.582031 C 5 8.621094 5.023438 8.371094 5.023438 8.203125 Z M 6.707031 8.714844 C 6.886719 8.714844 7.050781 8.8125 7.136719 8.964844 C 7.226562 9.121094 7.226562 9.308594 7.136719 9.464844 C 7.046875 9.617188 6.882812 9.714844 6.707031 9.714844 C 6.429688 9.710938 6.207031 9.488281 6.207031 9.214844 C 6.207031 8.9375 6.433594 8.714844 6.707031 8.714844 Z M 8.195312 13.441406 C 8.019531 14.9375 7.269531 14.847656 7.019531 14.820312 C 6.773438 14.792969 6.023438 14.703125 6.199219 13.207031 C 6.378906 11.710938 7.128906 11.800781 7.375 11.828125 C 7.621094 11.855469 8.371094 11.945312 8.195312 13.441406 Z M 7.492188 10.828125 C 7.316406 10.808594 7.027344 10.695312 7.167969 10.28125 C 7.703125 8.675781 8.484375 8.796875 9.175781 6.507812 L 10.78125 0.164062 C 10.78125 0.164062 8.167969 0.777344 7.375 3.300781 C 7.375 3.300781 5.921875 9.09375 5.386719 11.558594 C 4.808594 14.222656 5.285156 15.625 6.902344 15.816406 C 8.152344 15.964844 9.007812 15.121094 9.195312 13.5625 C 9.378906 12 8.742188 10.976562 7.492188 10.828125 Z M 7.492188 10.828125 "/>
</g>
</svg>
