
<svg xmlns="http://www.w3.org/2000/svg" xmlns:xlink="http://www.w3.org/1999/xlink" width="16px" height="16px" viewBox="0 0 16 16" version="1.1">
<g id="surface1">
<path style=" stroke:none;fill-rule:evenodd;fill:#ff6666;fill-opacity:1;" d="M 12.847656 2.570312 L 11.671875 1.390625 L 12.253906 0.800781 C 12.914062 0.128906 13.503906 -0.128906 13.976562 0.0585938 C 14.40625 0.226562 15.382812 1.261719 15.410156 1.585938 C 15.476562 2.230469 15.371094 2.492188 14.800781 3.101562 C 14.464844 3.460938 14.152344 3.753906 14.105469 3.753906 C 14.0625 3.753906 13.496094 3.222656 12.847656 2.570312 Z M 11.929688 3.492188 C 10.8125 2.371094 10.765625 2.296875 10.980469 2.082031 C 11.195312 1.863281 11.269531 1.914062 12.410156 3.058594 C 13.449219 4.09375 13.59375 4.289062 13.445312 4.464844 C 13.351562 4.578125 13.234375 4.671875 13.1875 4.671875 C 13.140625 4.671875 12.574219 4.140625 11.929688 3.492188 Z M 3.257812 12.203125 C 2.644531 11.578125 2.140625 11.03125 2.140625 10.988281 C 2.140625 10.945312 3.972656 9.078125 6.214844 6.839844 L 10.285156 2.769531 L 11.5 3.984375 L 12.714844 5.195312 L 8.644531 9.269531 C 6.40625 11.507812 4.527344 13.339844 4.472656 13.339844 C 4.417969 13.339844 3.871094 12.828125 3.257812 12.203125 Z M 1.761719 11.429688 C 2.472656 12.226562 3.222656 12.988281 3.96875 13.753906 L 0.480469 14.96875 Z M 0.585938 15.320312 L 15.414062 15.320312 C 15.503906 15.320312 15.589844 15.355469 15.652344 15.417969 C 15.71875 15.484375 15.753906 15.570312 15.753906 15.660156 C 15.753906 15.75 15.71875 15.835938 15.652344 15.902344 C 15.589844 15.964844 15.503906 16 15.414062 16 L 0.585938 16 C 0.496094 16 0.410156 15.964844 0.347656 15.902344 C 0.28125 15.835938 0.246094 15.75 0.246094 15.660156 C 0.246094 15.570312 0.28125 15.484375 0.347656 15.417969 C 0.410156 15.355469 0.496094 15.320312 0.585938 15.320312 Z M 0.585938 15.320312 "/>
</g>
</svg>
