
<svg xmlns="http://www.w3.org/2000/svg" xmlns:xlink="http://www.w3.org/1999/xlink" width="16px" height="16px" viewBox="0 0 16 16" version="1.1">
<g id="surface1">
<path style=" stroke:none;fill-rule:nonzero;fill:#ff6666;fill-opacity:1;" d="M 8.308594 1.835938 C 7.570312 1.835938 6.957031 2.21875 6.519531 2.761719 C 6.203125 2.628906 5.894531 2.453125 5.539062 2.453125 C 4.488281 2.453125 3.570312 3.054688 3.25 3.953125 C 2.75 4.167969 2.285156 4.402344 1.941406 4.722656 C 1.527344 5.105469 1.210938 5.597656 1.210938 6.164062 C 1.210938 6.28125 1.242188 6.398438 1.269531 6.511719 L 0 10.472656 C 0 12.5625 3.445312 14.164062 8 14.164062 C 12.554688 14.164062 16 12.5625 16 10.472656 L 14.730469 6.566406 C 14.734375 6.5625 14.730469 6.554688 14.730469 6.546875 C 14.761719 6.425781 14.789062 6.296875 14.789062 6.164062 C 14.789062 5.597656 14.46875 5.113281 14.058594 4.738281 C 13.710938 4.429688 13.230469 4.183594 12.730469 3.953125 C 12.410156 3.058594 11.507812 2.453125 10.460938 2.453125 C 10.253906 2.453125 10.109375 2.511719 9.941406 2.546875 C 9.507812 2.140625 8.964844 1.835938 8.308594 1.835938 Z M 8.308594 3.105469 C 8.714844 3.105469 9.085938 3.308594 9.269531 3.566406 C 9.429688 3.792969 9.71875 3.886719 9.980469 3.796875 C 10.136719 3.75 10.296875 3.722656 10.460938 3.722656 C 11.136719 3.722656 11.570312 4.101562 11.632812 4.488281 C 11.671875 4.695312 11.808594 4.867188 12 4.953125 C 12.539062 5.179688 12.960938 5.433594 13.210938 5.664062 C 13.460938 5.890625 13.519531 6.054688 13.519531 6.164062 C 13.519531 6.289062 13.460938 6.445312 13.230469 6.664062 C 13 6.878906 12.621094 7.117188 12.113281 7.316406 C 11.101562 7.722656 9.625 7.992188 8 7.992188 C 6.375 7.992188 4.898438 7.722656 3.882812 7.316406 C 3.378906 7.117188 3 6.882812 2.769531 6.664062 C 2.539062 6.445312 2.480469 6.289062 2.480469 6.164062 C 2.480469 6.054688 2.539062 5.875 2.789062 5.644531 C 3.035156 5.414062 3.4375 5.164062 3.960938 4.972656 C 4.171875 4.894531 4.328125 4.710938 4.367188 4.492188 C 4.429688 4.101562 4.863281 3.722656 5.539062 3.722656 C 5.851562 3.722656 6.078125 3.777344 6.367188 3.972656 C 6.523438 4.074219 6.714844 4.101562 6.894531 4.046875 C 7.074219 3.988281 7.21875 3.855469 7.289062 3.683594 C 7.433594 3.320312 7.777344 3.105469 8.308594 3.105469 Z M 5.460938 4.914062 C 5.21875 4.941406 5.011719 5.105469 4.933594 5.335938 C 4.855469 5.570312 4.917969 5.824219 5.097656 5.992188 C 5.097656 5.992188 5.328125 6.222656 5.710938 6.414062 C 6.230469 6.671875 6.804688 6.804688 7.386719 6.800781 C 7.734375 6.800781 8.019531 6.515625 8.019531 6.164062 C 8.019531 5.8125 7.734375 5.53125 7.386719 5.53125 C 6.871094 5.53125 6.523438 5.414062 6.289062 5.300781 C 6.054688 5.183594 5.980469 5.105469 5.980469 5.105469 C 5.847656 4.964844 5.65625 4.894531 5.460938 4.914062 Z M 10.386719 4.914062 C 10.070312 4.949219 9.828125 5.214844 9.828125 5.53125 L 9.828125 5.546875 C 9.5 5.574219 9.246094 5.851562 9.253906 6.183594 C 9.257812 6.511719 9.515625 6.78125 9.847656 6.796875 C 9.847656 6.796875 10.140625 6.796875 10.441406 6.644531 C 10.746094 6.492188 11.09375 6.066406 11.09375 5.546875 C 11.097656 5.363281 11.023438 5.1875 10.886719 5.066406 C 10.75 4.945312 10.566406 4.890625 10.382812 4.914062 Z M 5.960938 9.242188 C 6.515625 9.242188 7.019531 9.726562 7.019531 10.277344 L 7.019531 10.472656 L 9.289062 10.472656 C 9.226562 10.347656 9.230469 10.285156 9.230469 10.164062 C 9.230469 9.671875 9.660156 9.242188 10.152344 9.242188 C 10.644531 9.242188 11.078125 9.671875 11.078125 10.164062 C 11.078125 10.535156 10.882812 10.847656 10.578125 10.972656 C 10.882812 11.15625 11.078125 11.523438 11.078125 11.894531 C 11.078125 12.445312 10.589844 12.933594 10.039062 12.933594 C 9.484375 12.933594 8.980469 12.445312 8.980469 11.894531 L 8.980469 11.703125 L 6.710938 11.703125 C 6.773438 11.824219 6.769531 11.886719 6.769531 12.011719 C 6.769531 12.503906 6.339844 12.933594 5.847656 12.933594 C 5.355469 12.933594 4.921875 12.503906 4.921875 12.011719 C 4.921875 11.640625 5.117188 11.324219 5.421875 11.203125 C 5.117188 11.015625 4.921875 10.648438 4.921875 10.277344 C 4.921875 9.726562 5.410156 9.242188 5.960938 9.242188 Z M 5.960938 9.242188 "/>
</g>
</svg>
