
<svg xmlns="http://www.w3.org/2000/svg" xmlns:xlink="http://www.w3.org/1999/xlink" width="16px" height="16px" viewBox="0 0 16 16" version="1.1">
<g id="surface1">
<path style=" stroke:none;fill-rule:evenodd;fill:#ff6666;fill-opacity:1;" d="M 8 6.398438 C 7.433594 6.398438 6.890625 6.625 6.492188 7.023438 C 6.089844 7.425781 5.867188 7.96875 5.867188 8.53125 C 5.867188 9.097656 6.089844 9.640625 6.492188 10.042969 C 6.890625 10.441406 7.433594 10.667969 8 10.667969 C 8.566406 10.667969 9.109375 10.441406 9.507812 10.042969 C 9.910156 9.640625 10.132812 9.097656 10.132812 8.53125 C 10.132812 7.96875 9.910156 7.425781 9.507812 7.023438 C 9.109375 6.625 8.566406 6.398438 8 6.398438 Z M 8 5.332031 C 9.765625 5.332031 11.199219 6.765625 11.199219 8.53125 C 11.199219 10.300781 9.765625 11.734375 8 11.734375 C 6.234375 11.734375 4.800781 10.300781 4.800781 8.53125 C 4.800781 6.765625 6.234375 5.332031 8 5.332031 Z M 8 4.265625 C 5.644531 4.265625 3.734375 6.175781 3.734375 8.53125 C 3.734375 10.890625 5.644531 12.800781 8 12.800781 C 10.355469 12.800781 12.265625 10.890625 12.265625 8.53125 C 12.265625 6.175781 10.355469 4.265625 8 4.265625 Z M 6.910156 1.601562 C 5.464844 1.601562 4.074219 2.160156 3.050781 3.160156 C 2.027344 4.160156 1.453125 5.519531 1.453125 6.933594 C 1.453125 7.390625 1.515625 7.847656 1.636719 8.289062 C 0.667969 8.757812 0 9.738281 0 10.882812 L 0 11.519531 C 0 13.113281 1.296875 14.398438 2.90625 14.398438 L 13.09375 14.398438 C 14.703125 14.398438 16 13.113281 16 11.519531 L 16 10.882812 C 16 9.671875 15.253906 8.640625 14.195312 8.214844 C 14.65625 7.648438 14.90625 6.945312 14.910156 6.222656 C 14.910156 5.375 14.5625 4.558594 13.949219 3.960938 C 13.335938 3.359375 12.503906 3.023438 11.636719 3.023438 C 11.335938 3.023438 11.03125 3.0625 10.742188 3.144531 C 9.722656 2.15625 8.34375 1.601562 6.910156 1.601562 Z M 3.734375 4 C 3.734375 3.558594 4.09375 3.199219 4.53125 3.199219 C 4.976562 3.199219 5.332031 3.558594 5.332031 4 C 5.332031 4.441406 4.976562 4.800781 4.53125 4.800781 C 4.09375 4.800781 3.734375 4.441406 3.734375 4 Z M 3.734375 4 "/>
</g>
</svg>
