
<svg xmlns="http://www.w3.org/2000/svg" xmlns:xlink="http://www.w3.org/1999/xlink" width="16px" height="16px" viewBox="0 0 16 16" version="1.1">
<g id="surface1">
<path style=" stroke:none;fill-rule:nonzero;fill:#ff6666;fill-opacity:1;" d="M 0 0 L 0 1.332031 L 1.332031 1.332031 L 1.332031 0 Z M 2.667969 0 L 2.667969 1.332031 L 4 1.332031 L 4 0 Z M 5.332031 0 L 5.332031 1.332031 L 6.667969 1.332031 L 6.667969 0 Z M 8 0 L 8 1.332031 L 9.332031 1.332031 L 9.332031 0 Z M 10.667969 0 L 10.667969 1.332031 L 12 1.332031 L 12 0 Z M 13.332031 0 L 13.332031 1.332031 L 14.667969 1.332031 L 14.667969 0 Z M 0 2.667969 L 0 4 L 1.332031 4 L 1.332031 2.667969 Z M 13.332031 2.667969 L 13.332031 4 L 14.667969 4 L 14.667969 2.667969 Z M 0 5.332031 L 0 6.667969 L 1.332031 6.667969 L 1.332031 5.332031 Z M 13.332031 5.332031 L 13.332031 6.667969 L 14.667969 6.667969 L 14.667969 5.332031 Z M 7 6 L 6.789062 6.269531 L 6 7.332031 L 2.667969 7.332031 L 2.667969 16 L 16 16 L 16 7.332031 L 12.667969 7.332031 L 11.875 6.269531 L 11.667969 6 Z M 7.667969 7.332031 L 11 7.332031 L 11.792969 8.394531 L 12 8.667969 L 14.667969 8.667969 L 14.667969 14.667969 L 4 14.667969 L 4 8.667969 L 6.667969 8.667969 L 6.875 8.394531 Z M 0 8 L 0 9.332031 L 1.332031 9.332031 L 1.332031 8 Z M 9.332031 8.667969 C 7.867188 8.667969 6.667969 9.867188 6.667969 11.332031 C 6.667969 12.800781 7.867188 14 9.332031 14 C 10.800781 14 12 12.800781 12 11.332031 C 12 9.867188 10.800781 8.667969 9.332031 8.667969 Z M 9.332031 10 C 10.078125 10 10.667969 10.589844 10.667969 11.332031 C 10.667969 12.078125 10.078125 12.667969 9.332031 12.667969 C 8.589844 12.667969 8 12.078125 8 11.332031 C 8 10.589844 8.589844 10 9.332031 10 Z M 0 10.667969 L 0 12 L 1.332031 12 L 1.332031 10.667969 Z M 0 10.667969 "/>
</g>
</svg>
