
<svg xmlns="http://www.w3.org/2000/svg" xmlns:xlink="http://www.w3.org/1999/xlink" width="16px" height="16px" viewBox="0 0 16 16" version="1.1">
<g id="surface1">
<path style=" stroke:none;fill-rule:nonzero;fill:#ff6666;fill-opacity:1;" d="M 9.449219 0.5 L 0.503906 9.402344 L 0.503906 12.992188 C 1.847656 13.015625 4.058594 12.992188 4.058594 12.992188 L 13.003906 4.050781 Z M 8.550781 3.195312 L 10.308594 4.949219 L 6.75 8.542969 L 4.953125 6.742188 Z M 4.058594 7.644531 L 5.855469 9.402344 L 4.957031 10.296875 L 3.199219 8.542969 Z M 13.15625 9.246094 C 12.910156 9.246094 12.242188 9.300781 11.203125 9.945312 C 10.878906 10.148438 10.636719 10.378906 10.265625 10.652344 C 10.070312 10.796875 9.359375 11.269531 9.09375 11.433594 C 8.320312 11.910156 8.042969 12.03125 7.375 12.371094 C 6.730469 12.695312 6.054688 12.992188 5.578125 13.226562 C 3.589844 14.222656 0.5 14.242188 0.5 14.242188 L 0.5 15.492188 C 0.5 15.492188 3.621094 15.53125 5.890625 14.398438 C 6.195312 14.25 6.726562 14.003906 7.21875 13.773438 C 7.21875 13.773438 8.617188 13.035156 8.625 13.035156 C 8.871094 12.898438 9.078125 12.792969 9.445312 12.566406 C 9.730469 12.390625 10.414062 11.953125 10.695312 11.746094 C 11.109375 11.441406 11.375 11.21875 11.59375 11.082031 C 12.074219 10.703125 12.621094 10.480469 13.15625 10.496094 C 13.113281 10.496094 13.320312 10.507812 13.507812 10.613281 C 13.695312 10.71875 13.894531 10.90625 14.054688 11.082031 C 14.359375 11.496094 14.5 11.8125 14.5625 12.371094 C 14.519531 14.003906 12.964844 14.25 11.75 14.242188 L 11.75 15.492188 C 14.222656 15.605469 15.5 14.449219 15.5 12.332031 C 15.496094 11.972656 15.4375 11.675781 15.304688 11.277344 C 15.171875 10.878906 14.972656 10.433594 14.679688 10.105469 C 14.230469 9.578125 14 9.34375 13.15625 9.246094 Z M 13.15625 9.246094 "/>
</g>
</svg>
