
<svg xmlns="http://www.w3.org/2000/svg" xmlns:xlink="http://www.w3.org/1999/xlink" width="16px" height="16px" viewBox="0 0 16 16" version="1.1">
<g id="surface1">
<path style=" stroke:none;fill-rule:nonzero;fill:#ff6666;fill-opacity:1;" d="M 13.710938 8.972656 C 14.023438 9.59375 14.183594 10.34375 14.183594 11.195312 C 14.183594 12.023438 14.007812 12.761719 13.660156 13.363281 C 13.316406 13.96875 12.855469 14.476562 12.300781 14.867188 C 11.746094 15.257812 11.105469 15.535156 10.40625 15.726562 C 9.703125 15.917969 8.988281 16 8.28125 16 C 6.863281 16 5.339844 15.558594 4.378906 15.039062 C 3.28125 14.519531 1.789062 12.925781 1.820312 12.679688 C 1.855469 12.355469 2.699219 11.289062 3.210938 10.566406 C 3.460938 10.214844 3.558594 10.050781 3.933594 10.378906 C 4.398438 10.945312 5.046875 11.3125 5.640625 11.617188 C 6.164062 11.863281 7.269531 12.21875 7.851562 12.292969 C 8.335938 12.363281 9.058594 12.363281 9.109375 11.605469 C 9.109375 11.316406 8.867188 11.050781 8.550781 10.792969 C 8.234375 10.53125 8.023438 10.3125 7.554688 10.027344 C 5.695312 8.578125 4.6875 7.925781 3.742188 6.476562 C 3.425781 5.90625 3.242188 5.269531 3.242188 4.519531 C 3.242188 3.785156 3.359375 3.070312 3.636719 2.519531 C 4.535156 0.878906 6.355469 0.0234375 7.980469 0 C 9.375 0 10.394531 0.375 11.308594 0.785156 C 12.546875 1.3125 13.335938 2 14.007812 2.609375 C 14.269531 2.847656 14.042969 3.132812 13.90625 3.34375 C 13.5625 3.871094 13.074219 4.527344 12.925781 4.839844 C 12.804688 5.070312 12.582031 5.15625 12.394531 4.996094 C 12.394531 4.996094 11.9375 4.609375 11.570312 4.371094 C 10.589844 3.828125 9.570312 3.027344 8.535156 2.925781 C 8.257812 2.925781 7.980469 3.007812 7.847656 3.144531 C 7.71875 3.28125 7.671875 3.558594 7.675781 3.773438 C 7.6875 4.160156 7.796875 4.230469 8.164062 4.578125 C 8.476562 4.816406 8.726562 4.984375 9.363281 5.324219 C 9.839844 5.578125 10.425781 5.933594 10.972656 6.246094 C 11.519531 6.558594 12.066406 6.960938 12.542969 7.40625 C 13.019531 7.847656 13.394531 8.355469 13.710938 8.972656 Z M 13.710938 8.972656 "/>
</g>
</svg>
