
<svg xmlns="http://www.w3.org/2000/svg" xmlns:xlink="http://www.w3.org/1999/xlink" width="16px" height="16px" viewBox="0 0 16 16" version="1.1">
<g id="surface1">
<path style=" stroke:none;fill-rule:nonzero;fill:#ff6666;fill-opacity:1;" d="M 8 0.335938 C 8 0.335938 6.363281 3.011719 2 3.011719 C 2 12.121094 8 15.335938 8 15.335938 C 8 15.335938 14 12.121094 14 3.011719 C 9.636719 3.011719 8 0.335938 8 0.335938 Z M 8 1.691406 C 8.273438 1.996094 8.257812 2.101562 8.78125 2.46875 C 9.691406 3.109375 11.144531 3.632812 12.933594 3.828125 C 12.761719 7.6875 11.496094 10.328125 10.203125 12 C 9.222656 13.269531 8.464844 13.835938 8 14.144531 C 7.535156 13.835938 6.777344 13.269531 5.796875 12 C 4.503906 10.328125 3.238281 7.6875 3.066406 3.828125 C 4.855469 3.632812 6.308594 3.109375 7.21875 2.46875 C 7.742188 2.101562 7.726562 1.996094 8 1.691406 Z M 8 1.691406 "/>
<path style=" stroke:none;fill-rule:nonzero;fill:#ff6666;fill-opacity:1;" d="M 8 3.65625 C 7.488281 3.65625 7.070312 4.082031 7.070312 4.609375 C 7.070312 5.558594 7.382812 6.828125 7.691406 9.363281 L 8.308594 9.363281 C 8.617188 6.828125 8.925781 5.558594 8.925781 4.609375 C 8.925781 4.082031 8.511719 3.65625 8 3.65625 Z M 8 10.316406 C 7.488281 10.316406 7.070312 10.742188 7.070312 11.265625 C 7.070312 11.792969 7.488281 12.21875 8 12.21875 C 8.511719 12.21875 8.925781 11.792969 8.925781 11.265625 C 8.925781 10.742188 8.511719 10.316406 8 10.316406 Z M 8 10.316406 "/>
</g>
</svg>
