
<svg xmlns="http://www.w3.org/2000/svg" xmlns:xlink="http://www.w3.org/1999/xlink" width="16px" height="16px" viewBox="0 0 16 16" version="1.1">
<g id="surface1">
<path style=" stroke:none;fill-rule:nonzero;fill:#ff6666;fill-opacity:1;" d="M 8 0.335938 C 8 0.335938 6.363281 3.011719 2 3.011719 C 2 12.121094 8 15.335938 8 15.335938 C 8 15.335938 14 12.121094 14 3.011719 C 9.636719 3.011719 8 0.335938 8 0.335938 Z M 8 1.691406 C 8.273438 1.996094 8.257812 2.101562 8.78125 2.46875 C 9.691406 3.109375 11.144531 3.632812 12.933594 3.828125 C 12.761719 7.6875 11.496094 10.328125 10.203125 12 C 9.222656 13.269531 8.464844 13.835938 8 14.144531 C 7.535156 13.835938 6.777344 13.269531 5.796875 12 C 4.503906 10.328125 3.238281 7.6875 3.066406 3.828125 C 4.855469 3.632812 6.308594 3.109375 7.21875 2.46875 C 7.742188 2.101562 7.726562 1.996094 8 1.691406 Z M 8 1.691406 "/>
<path style=" stroke:none;fill-rule:nonzero;fill:#ff6666;fill-opacity:1;" d="M 9.992188 5.558594 L 10.84375 6.320312 L 7.976562 10.0625 L 5.761719 8.175781 L 6.492188 7.214844 L 7.789062 8.324219 Z M 9.992188 5.558594 "/>
</g>
</svg>
