
<svg xmlns="http://www.w3.org/2000/svg" xmlns:xlink="http://www.w3.org/1999/xlink" width="16px" height="16px" viewBox="0 0 16 16" version="1.1">
<g id="surface1">
<path style=" stroke:none;fill-rule:evenodd;fill:#ff6666;fill-opacity:1;" d="M 0 8 L 4.667969 8 C 4.917969 5.839844 6.042969 4.625 8 4.667969 L 14.5 4.667969 C 15.328125 4.667969 16 3.996094 16 3.167969 L 16 1.667969 C 16 0.839844 15.328125 0.167969 14.5 0.167969 L 7 0.167969 C 2.457031 0.375 0.125 3.625 0 8 Z M 16 8 L 11.332031 8 C 11.082031 10.160156 9.957031 11.375 8 11.332031 L 1.5 11.332031 C 0.671875 11.332031 0 12.003906 0 12.832031 L 0 14.332031 C 0 15.160156 0.671875 15.832031 1.5 15.832031 L 9 15.832031 C 13.542969 15.625 15.875 12.375 16 8 Z M 16 8 "/>
</g>
</svg>
