
<svg xmlns="http://www.w3.org/2000/svg" xmlns:xlink="http://www.w3.org/1999/xlink" width="16px" height="16px" viewBox="0 0 16 16" version="1.1">
<g id="surface1">
<path style=" stroke:none;fill-rule:nonzero;fill:#ff6666;fill-opacity:1;" d="M 3.199219 2.132812 L 3.199219 3.199219 L 6.398438 3.199219 L 6.398438 4.265625 L 2.132812 4.265625 L 2.132812 7.46875 L 1.066406 7.46875 L 1.066406 4.265625 L 0 4.265625 L 0 11.734375 L 1.066406 11.734375 L 1.066406 8.53125 L 2.132812 8.53125 L 2.132812 11.734375 L 4.265625 13.867188 L 11.199219 13.867188 L 12.265625 12.800781 L 13.867188 12.800781 L 13.867188 13.867188 L 14.933594 13.867188 L 16 12.800781 L 16 6.398438 L 14.933594 5.332031 L 13.867188 5.332031 L 13.867188 6.398438 L 12.933594 6.398438 L 10.800781 4.265625 L 7.46875 4.265625 L 7.46875 3.199219 L 10.667969 3.199219 L 10.667969 2.132812 Z M 3.199219 5.332031 L 10.132812 5.332031 L 12.265625 7.46875 L 14.933594 7.46875 L 14.933594 11.734375 L 11.734375 11.734375 L 10.667969 12.800781 L 4.933594 12.800781 L 3.199219 10.988281 Z M 3.199219 5.332031 "/>
</g>
</svg>
