
<svg xmlns="http://www.w3.org/2000/svg" xmlns:xlink="http://www.w3.org/1999/xlink" width="16px" height="16px" viewBox="0 0 16 16" version="1.1">
<g id="surface1">
<path style=" stroke:none;fill-rule:nonzero;fill:#ff6666;fill-opacity:1;" d="M 7.996094 0 L 8 0.00390625 C 8.964844 2.175781 9.707031 4.390625 10.132812 5.746094 C 11.523438 5.75 13.816406 5.804688 16 6.101562 L 15.996094 6.105469 L 15.996094 6.109375 C 14.328125 7.746094 12.554688 9.171875 11.457031 10.011719 C 11.886719 11.40625 12.546875 13.714844 12.953125 15.992188 L 12.945312 15.992188 C 10.949219 14.828125 9.109375 13.496094 8.007812 12.660156 C 6.882812 13.519531 4.996094 14.890625 3.0625 16 L 3.0625 15.992188 L 3.058594 15.992188 C 3.496094 13.636719 4.132812 11.386719 4.550781 10.027344 C 3.421875 9.167969 1.601562 7.707031 0 6.117188 L 0.0078125 6.109375 C 2.269531 5.816406 4.5 5.757812 5.859375 5.753906 C 6.289062 4.363281 7.050781 2.089844 7.996094 0 Z M 7.996094 3.289062 C 7.996094 3.292969 7.996094 3.296875 7.992188 3.296875 L 7.992188 11.1875 L 8.007812 11.179688 L 8.675781 11.6875 C 9.21875 12.101562 10.269531 12.75 11.109375 13.328125 C 10.84375 12.300781 10.585938 11.074219 10.371094 10.382812 L 10.117188 9.558594 L 10.785156 9.046875 C 11.328125 8.628906 12.242188 7.78125 13.023438 7.121094 C 12.011719 7.070312 10.820312 6.949219 10.128906 6.949219 L 9.304688 6.945312 L 9.046875 6.121094 C 8.835938 5.449219 8.351562 4.273438 7.996094 3.289062 Z M 7.996094 3.289062 "/>
</g>
</svg>
