
<svg xmlns="http://www.w3.org/2000/svg" xmlns:xlink="http://www.w3.org/1999/xlink" width="16px" height="16px" viewBox="0 0 16 16" version="1.1">
<g id="surface1">
<path style=" stroke:none;fill-rule:nonzero;fill:#ff6666;fill-opacity:1;" d="M 15.464844 2.667969 C 15.464844 1.199219 14.265625 0 12.800781 0 C 11.332031 0 10.132812 1.199219 10.132812 2.667969 C 10.132812 4.132812 11.332031 5.332031 12.800781 5.332031 C 14.265625 5.332031 15.464844 4.132812 15.464844 2.667969 Z M 15.464844 13.332031 C 15.464844 11.867188 14.265625 10.667969 12.800781 10.667969 C 11.332031 10.667969 10.132812 11.867188 10.132812 13.332031 C 10.132812 14.800781 11.332031 16 12.800781 16 C 14.265625 16 15.464844 14.800781 15.464844 13.332031 Z M 14.398438 2.667969 C 14.398438 3.554688 13.691406 4.265625 12.800781 4.265625 C 11.910156 4.265625 11.199219 3.554688 11.199219 2.667969 C 11.199219 1.777344 11.910156 1.066406 12.800781 1.066406 C 13.691406 1.066406 14.398438 1.777344 14.398438 2.667969 Z M 14.398438 13.332031 C 14.398438 14.222656 13.691406 14.933594 12.800781 14.933594 C 11.910156 14.933594 11.199219 14.222656 11.199219 13.332031 C 11.199219 12.445312 11.910156 11.734375 12.800781 11.734375 C 13.691406 11.734375 14.398438 12.445312 14.398438 13.332031 Z M 9.851562 4.917969 C 9.632812 4.632812 9.453125 4.324219 9.324219 3.988281 L 5.210938 6.273438 C 4.722656 5.703125 4.003906 5.332031 3.199219 5.332031 C 1.734375 5.332031 0.535156 6.535156 0.535156 8 C 0.535156 9.464844 1.734375 10.667969 3.199219 10.667969 C 4.003906 10.667969 4.722656 10.296875 5.210938 9.726562 L 9.324219 12.011719 C 9.453125 11.675781 9.632812 11.367188 9.851562 11.082031 L 5.730469 8.796875 C 5.8125 8.542969 5.867188 8.277344 5.867188 8 C 5.867188 7.722656 5.8125 7.457031 5.730469 7.203125 Z M 4.800781 8 C 4.800781 8.890625 4.089844 9.601562 3.199219 9.601562 C 2.308594 9.601562 1.601562 8.890625 1.601562 8 C 1.601562 7.109375 2.308594 6.398438 3.199219 6.398438 C 4.089844 6.398438 4.800781 7.109375 4.800781 8 Z M 4.800781 8 "/>
</g>
</svg>
