
<svg xmlns="http://www.w3.org/2000/svg" xmlns:xlink="http://www.w3.org/1999/xlink" width="16px" height="16px" viewBox="0 0 16 16" version="1.1">
<g id="surface1">
<path style=" stroke:none;fill-rule:nonzero;fill:#ff6666;fill-opacity:1;" d="M 2.265625 12.734375 L 2.265625 14.5 L 4.910156 14.5 L 4.910156 12.734375 Z M 2.265625 12.734375 "/>
<path style=" stroke:none;fill-rule:nonzero;fill:#ff6666;fill-opacity:1;" d="M 5.792969 12.734375 L 5.792969 14.5 L 8.441406 14.5 L 8.441406 12.734375 Z M 5.792969 12.734375 "/>
<path style=" stroke:none;fill-rule:nonzero;fill:#ff6666;fill-opacity:1;" d="M 9.324219 12.734375 L 9.324219 14.5 L 11.96875 14.5 L 11.96875 12.734375 Z M 9.324219 12.734375 "/>
<path style=" stroke:none;fill-rule:nonzero;fill:#ff6666;fill-opacity:1;" d="M 12.851562 12.734375 L 12.851562 14.5 L 15.5 14.5 L 15.5 12.734375 Z M 12.851562 12.734375 "/>
<path style=" stroke:none;fill-rule:nonzero;fill:#ff6666;fill-opacity:1;" d="M 0.5 10.089844 L 0.5 11.851562 L 3.148438 11.851562 L 3.148438 10.089844 Z M 0.5 10.089844 "/>
<path style=" stroke:none;fill-rule:nonzero;fill:#ff6666;fill-opacity:1;" d="M 4.03125 10.089844 L 4.03125 11.851562 L 6.675781 11.851562 L 6.675781 10.089844 Z M 4.03125 10.089844 "/>
<path style=" stroke:none;fill-rule:nonzero;fill:#ff6666;fill-opacity:1;" d="M 7.558594 10.089844 L 7.558594 11.851562 L 10.207031 11.851562 L 10.207031 10.089844 Z M 7.558594 10.089844 "/>
<path style=" stroke:none;fill-rule:nonzero;fill:#ff6666;fill-opacity:1;" d="M 11.089844 10.089844 L 11.089844 11.851562 L 13.734375 11.851562 L 13.734375 10.089844 Z M 11.089844 10.089844 "/>
<path style=" stroke:none;fill-rule:nonzero;fill:#ff6666;fill-opacity:1;" d="M 2.265625 7.441406 L 2.265625 9.207031 L 4.910156 9.207031 L 4.910156 7.441406 Z M 2.265625 7.441406 "/>
<path style=" stroke:none;fill-rule:nonzero;fill:#ff6666;fill-opacity:1;" d="M 5.792969 7.441406 L 5.792969 9.207031 L 8.441406 9.207031 L 8.441406 7.441406 Z M 5.792969 7.441406 "/>
<path style=" stroke:none;fill-rule:nonzero;fill:#ff6666;fill-opacity:1;" d="M 9.324219 7.441406 L 9.324219 9.207031 L 11.96875 9.207031 L 11.96875 7.441406 Z M 9.324219 7.441406 "/>
<path style=" stroke:none;fill-rule:nonzero;fill:#ff6666;fill-opacity:1;" d="M 12.851562 7.441406 L 12.851562 9.207031 L 15.5 9.207031 L 15.5 7.441406 Z M 12.851562 7.441406 "/>
<path style=" stroke:none;fill-rule:nonzero;fill:#ff6666;fill-opacity:1;" d="M 0.5 4.792969 L 0.5 6.558594 L 3.148438 6.558594 L 3.148438 4.792969 Z M 0.5 4.792969 "/>
<path style=" stroke:none;fill-rule:nonzero;fill:#ff6666;fill-opacity:1;" d="M 4.03125 4.792969 L 4.03125 6.558594 L 6.675781 6.558594 L 6.675781 4.792969 Z M 4.03125 4.792969 "/>
<path style=" stroke:none;fill-rule:nonzero;fill:#ff6666;fill-opacity:1;" d="M 7.558594 4.792969 L 7.558594 6.558594 L 10.207031 6.558594 L 10.207031 4.792969 Z M 7.558594 4.792969 "/>
<path style=" stroke:none;fill-rule:nonzero;fill:#ff6666;fill-opacity:1;" d="M 11.089844 4.792969 L 11.089844 6.558594 L 13.734375 6.558594 L 13.734375 4.792969 Z M 11.089844 4.792969 "/>
<path style=" stroke:none;fill-rule:nonzero;fill:#ff6666;fill-opacity:1;" d="M 2.265625 2.148438 L 2.265625 3.910156 L 4.910156 3.910156 L 4.910156 2.148438 Z M 2.265625 2.148438 "/>
<path style=" stroke:none;fill-rule:nonzero;fill:#ff6666;fill-opacity:1;" d="M 5.792969 2.148438 L 5.792969 3.910156 L 8.441406 3.910156 L 8.441406 2.148438 Z M 5.792969 2.148438 "/>
<path style=" stroke:none;fill-rule:nonzero;fill:#ff6666;fill-opacity:1;" d="M 9.324219 2.148438 L 9.324219 3.910156 L 11.96875 3.910156 L 11.96875 2.148438 Z M 9.324219 2.148438 "/>
<path style=" stroke:none;fill-rule:nonzero;fill:#ff6666;fill-opacity:1;" d="M 12.851562 2.148438 L 12.851562 3.910156 L 15.5 3.910156 L 15.5 2.148438 Z M 12.851562 2.148438 "/>
</g>
</svg>
