
<svg xmlns="http://www.w3.org/2000/svg" xmlns:xlink="http://www.w3.org/1999/xlink" width="16px" height="16px" viewBox="0 0 16 16" version="1.1">
<g id="surface1">
<path style=" stroke:none;fill-rule:nonzero;fill:#ff6666;fill-opacity:1;" d="M 13.953125 0.015625 C 11.773438 -0.105469 7.570312 0.507812 6.351562 1.953125 C 5.472656 3.214844 5.363281 8.152344 5.589844 7.847656 C 7.457031 5.339844 11.929688 2.246094 14.59375 1 C 15.832031 0.421875 15.257812 0.0859375 13.953125 0.015625 Z M 4.730469 2.78125 C 4.15625 2.875 1.847656 4.457031 2.378906 7.289062 C 2.886719 8.738281 6.117188 10.664062 6.007812 10.300781 C 5.089844 7.308594 4.753906 5.378906 4.859375 2.828125 C 4.859375 2.78125 4.8125 2.765625 4.730469 2.78125 Z M 11.042969 4.085938 C 9.5 4.199219 6.785156 6.796875 7.167969 6.78125 C 10.320312 6.675781 12.292969 6.855469 14.753906 7.609375 C 15.117188 7.722656 14.363281 4.339844 11.042969 4.085938 Z M 9.375 6.777344 C 9.296875 6.78125 9.261719 6.800781 9.289062 6.839844 C 11.09375 9.40625 12.007812 11.144531 12.703125 13.601562 C 12.804688 13.964844 15.261719 11.5 13.675781 8.601562 C 12.863281 7.527344 9.945312 6.75 9.375 6.777344 Z M 0.992188 7.25 C 0.679688 7.410156 0.117188 10.464844 2.800781 12.046875 C 4.234375 12.621094 7.828125 11.484375 7.476562 11.328125 C 4.601562 10.042969 2.917969 9.015625 1.046875 7.257812 C 1.03125 7.242188 1.011719 7.238281 0.992188 7.25 Z M 10.3125 8.835938 C 10.292969 8.828125 10.28125 8.839844 10.277344 8.859375 C 9.480469 11.886719 8.742188 13.703125 7.304688 15.824219 C 7.09375 16.136719 10.582031 16.386719 11.777344 13.308594 C 12.089844 11.90625 10.578125 8.902344 10.3125 8.835938 Z M 9.40625 10.757812 C 6.5625 12.105469 4.683594 12.722656 2.121094 13.003906 C 1.742188 13.046875 3.800781 15.84375 6.945312 14.765625 C 8.316406 14.050781 9.753906 10.59375 9.40625 10.757812 Z M 9.40625 10.757812 "/>
</g>
</svg>
