
<svg xmlns="http://www.w3.org/2000/svg" xmlns:xlink="http://www.w3.org/1999/xlink" width="16px" height="16px" viewBox="0 0 16 16" version="1.1">
<g id="surface1">
<path style=" stroke:none;fill-rule:nonzero;fill:#ff6666;fill-opacity:1;" d="M 4.082031 0.00390625 C 4.035156 -0.0273438 3.648438 0.230469 3.335938 0.496094 C 2.902344 0.867188 2.453125 1.496094 2.222656 2.054688 C 1.867188 2.917969 1.808594 3.980469 2.066406 4.878906 C 2.226562 5.4375 2.734375 6.359375 2.882812 6.355469 C 2.914062 6.355469 3.023438 6.253906 3.125 6.128906 C 3.226562 6.007812 3.3125 5.890625 3.3125 5.871094 C 3.3125 5.851562 3.242188 5.722656 3.152344 5.578125 C 2.953125 5.253906 2.804688 4.894531 2.707031 4.503906 C 2.601562 4.074219 2.597656 3.371094 2.703125 2.941406 C 2.914062 2.089844 3.394531 1.378906 4.109375 0.859375 C 4.273438 0.742188 4.402344 0.644531 4.402344 0.636719 C 4.402344 0.601562 4.109375 0.0195312 4.082031 0.00390625 Z M 9.273438 0.0742188 C 8.332031 0.0546875 7.355469 0.398438 6.648438 0.859375 C 6.300781 1.085938 6.335938 1.15625 6.699219 0.960938 C 7.304688 0.632812 7.894531 0.503906 8.785156 0.503906 C 9.925781 0.503906 10.558594 0.679688 11.214844 1.183594 L 11.492188 1.394531 L 11.847656 1.398438 C 12.042969 1.402344 12.28125 1.414062 12.378906 1.429688 C 12.632812 1.472656 12.671875 1.472656 12.691406 1.4375 C 12.738281 1.351562 11.929688 0.757812 11.460938 0.53125 C 10.746094 0.171875 9.988281 0.0898438 9.273438 0.0742188 Z M 4.839844 1.171875 C 4.753906 1.171875 4.386719 1.320312 4.125 1.597656 C 3.703125 2.042969 3.4375 2.574219 3.320312 3.191406 C 3.199219 3.816406 3.304688 4.621094 3.570312 5.15625 C 3.707031 5.429688 3.84375 5.640625 3.886719 5.640625 C 3.90625 5.640625 3.992188 5.554688 4.078125 5.453125 C 4.363281 5.121094 4.351562 5.175781 4.207031 4.871094 C 4.019531 4.472656 3.957031 4.199219 3.957031 3.773438 C 3.957031 2.988281 4.335938 2.222656 4.9375 1.785156 C 5.042969 1.707031 5.132812 1.617188 5.132812 1.582031 C 5.136719 1.484375 4.890625 1.171875 4.839844 1.171875 Z M 6.5 2.226562 C 5.507812 2.226562 4.707031 3.027344 4.707031 4.019531 C 4.707031 5.011719 5.507812 5.8125 6.5 5.8125 C 7.492188 5.8125 8.292969 5.011719 8.292969 4.019531 C 8.292969 3.027344 7.492188 2.226562 6.5 2.226562 Z M 11.523438 2.226562 C 10.53125 2.226562 9.726562 3.027344 9.726562 4.019531 C 9.726562 5.011719 10.53125 5.8125 11.523438 5.8125 C 12.511719 5.8125 13.316406 5.011719 13.316406 4.019531 C 13.316406 3.027344 12.511719 2.226562 11.523438 2.226562 Z M 6.5 2.941406 C 7.09375 2.941406 7.574219 3.425781 7.574219 4.019531 C 7.574219 4.613281 7.09375 5.097656 6.5 5.097656 C 5.90625 5.097656 5.425781 4.613281 5.425781 4.019531 C 5.425781 3.425781 5.90625 2.941406 6.5 2.941406 Z M 11.519531 2.941406 C 12.113281 2.941406 12.597656 3.425781 12.597656 4.019531 C 12.597656 4.613281 12.113281 5.097656 11.519531 5.097656 C 10.925781 5.097656 10.445312 4.613281 10.445312 4.019531 C 10.445312 3.425781 10.925781 2.941406 11.519531 2.941406 Z M 6.414062 3.351562 C 6.328125 3.355469 6.246094 3.367188 6.234375 3.382812 C 6.222656 3.390625 6.230469 3.453125 6.25 3.523438 C 6.3125 3.75 6.183594 3.894531 5.96875 3.828125 C 5.910156 3.8125 5.859375 3.808594 5.84375 3.824219 C 5.828125 3.835938 5.824219 3.941406 5.828125 4.058594 C 5.835938 4.230469 5.855469 4.289062 5.917969 4.386719 C 6.003906 4.515625 6.175781 4.640625 6.316406 4.675781 C 6.453125 4.710938 6.683594 4.6875 6.808594 4.621094 C 7.144531 4.449219 7.273438 4.027344 7.089844 3.691406 C 7 3.527344 6.816406 3.386719 6.65625 3.355469 C 6.601562 3.34375 6.503906 3.347656 6.414062 3.351562 Z M 11.4375 3.351562 C 11.347656 3.355469 11.269531 3.367188 11.257812 3.382812 C 11.246094 3.390625 11.253906 3.453125 11.269531 3.523438 C 11.335938 3.75 11.203125 3.894531 10.988281 3.828125 C 10.933594 3.8125 10.882812 3.808594 10.867188 3.824219 C 10.851562 3.835938 10.84375 3.941406 10.851562 4.058594 C 10.859375 4.230469 10.878906 4.289062 10.941406 4.386719 C 11.027344 4.515625 11.195312 4.640625 11.335938 4.675781 C 11.476562 4.710938 11.707031 4.6875 11.828125 4.621094 C 12.167969 4.449219 12.292969 4.027344 12.109375 3.691406 C 12.019531 3.527344 11.839844 3.386719 11.679688 3.355469 C 11.625 3.34375 11.527344 3.347656 11.4375 3.351562 Z M 9.011719 4.378906 C 8.769531 4.378906 8.628906 4.484375 8.519531 4.75 C 8.425781 4.976562 8.480469 5.515625 8.640625 5.898438 C 8.730469 6.113281 8.980469 6.53125 9.019531 6.53125 C 9.03125 6.53125 9.089844 6.464844 9.148438 6.382812 C 9.378906 6.058594 9.542969 5.503906 9.546875 5.03125 C 9.550781 4.785156 9.546875 4.757812 9.464844 4.632812 C 9.34375 4.449219 9.214844 4.378906 9.011719 4.378906 Z M 14.058594 4.921875 C 14.03125 4.925781 13.777344 5.152344 13.5 5.425781 L 12.988281 5.917969 L 12.96875 6.449219 C 12.863281 8.867188 12.042969 10.828125 10.5 12.359375 C 9.332031 13.515625 7.570312 14.46875 5.769531 14.90625 C 5.21875 15.042969 3.835938 15.242188 3.789062 15.195312 C 3.769531 15.171875 3.800781 15.09375 3.882812 14.96875 C 4.1875 14.511719 4.425781 13.914062 4.539062 13.320312 C 4.648438 12.738281 4.660156 12.339844 4.59375 11.496094 C 4.519531 10.570312 4.539062 9.945312 4.640625 9.464844 C 4.789062 8.777344 5.085938 8.238281 5.46875 7.949219 C 5.9375 7.597656 6.375 7.441406 6.890625 7.441406 C 8.070312 7.441406 9.257812 8.265625 9.496094 9.378906 C 9.570312 9.71875 9.539062 10.472656 9.441406 10.976562 C 9.207031 12.140625 8.457031 12.976562 7.578125 13.71875 C 7.414062 13.863281 7.21875 14.03125 7.148438 14.09375 L 7.023438 14.210938 L 7.132812 14.171875 C 7.1875 14.148438 7.394531 14.035156 7.589844 13.921875 C 9.046875 13.050781 10.007812 12.167969 10.320312 10.695312 C 10.414062 10.242188 10.453125 9.421875 10.394531 9.074219 C 10.296875 8.511719 9.953125 7.914062 9.464844 7.453125 C 8.449219 6.5 6.890625 6.277344 5.613281 6.875 C 4.957031 7.183594 4.390625 7.695312 4.113281 8.234375 C 3.65625 9.125 3.578125 9.976562 3.871094 11.496094 C 3.96875 12.011719 4.015625 12.410156 4.015625 12.765625 C 4.015625 13.894531 3.617188 14.964844 2.910156 15.746094 C 2.800781 15.863281 2.710938 15.96875 2.710938 15.980469 C 2.710938 16.015625 2.796875 16.003906 3.21875 15.914062 C 3.441406 15.867188 3.960938 15.777344 4.375 15.71875 C 5.953125 15.492188 7.082031 15.152344 8.398438 14.503906 C 10.023438 13.703125 11.296875 12.628906 12.265625 11.265625 C 13.257812 9.867188 13.878906 8.085938 14.03125 6.199219 C 14.101562 5.304688 14.109375 4.90625 14.058594 4.921875 Z M 14.058594 4.921875 "/>
</g>
</svg>
