
<svg xmlns="http://www.w3.org/2000/svg" xmlns:xlink="http://www.w3.org/1999/xlink" width="16px" height="16px" viewBox="0 0 16 16" version="1.1">
<g id="surface1">
<path style=" stroke:none;fill-rule:nonzero;fill:#ff6666;fill-opacity:1;" d="M 6.613281 10.890625 C 6.921875 10.78125 7.554688 10.925781 7.671875 11.535156 C 8.0625 11.035156 8.238281 10.410156 7.480469 9.824219 C 7.285156 9.675781 7.003906 9.519531 6.65625 9.445312 C 6.078125 9.324219 5.734375 9.332031 5.261719 9.585938 C 4.789062 9.84375 4.429688 10.386719 4.375 10.777344 C 4.285156 11.40625 4.542969 12.679688 5.453125 13.4375 C 6.382812 14.378906 7.859375 14.445312 8.367188 14.390625 C 10.820312 14.109375 12.554688 11.941406 10.777344 9.824219 C 10.152344 9.128906 9.160156 8.738281 8.367188 8.367188 C 6.933594 7.695312 5.59375 7.269531 4.820312 6.59375 C 4.070312 5.9375 3.828125 5.070312 3.929688 4.121094 C 4.027344 3.253906 4.546875 2.511719 5.136719 2.027344 C 6.46875 0.929688 8.4375 0.960938 10.460938 1.902344 L 11.601562 1.648438 C 11.742188 1.691406 11.851562 1.820312 11.917969 2.027344 C 11.945312 2.175781 11.769531 2.3125 11.789062 2.449219 C 12.308594 4.164062 11.875 5.371094 10.777344 5.703125 L 10.460938 5.578125 C 10.839844 4.785156 10.839844 4.027344 10.460938 3.296875 C 9.628906 2.289062 8.699219 1.804688 7.671875 1.839844 C 4.464844 1.945312 4.636719 5.222656 7.226562 5.960938 C 7.621094 6.160156 9.570312 6.839844 10.207031 7.152344 C 11.078125 7.578125 11.691406 8.027344 12.042969 8.492188 C 13.085938 10.242188 13.003906 12.445312 11.601562 13.816406 C 10.214844 15.175781 7.359375 15.300781 5.136719 14.515625 L 4.058594 14.707031 C 3.859375 14.695312 3.734375 14.632812 3.679688 14.515625 L 3.613281 13.4375 C 2.5625 11.136719 3.941406 8.921875 5.832031 8.8125 C 6.820312 8.753906 8.027344 9.332031 8.367188 10.203125 C 8.710938 11.085938 8.046875 12.242188 7.480469 12.488281 C 6.914062 12.734375 5.929688 12.277344 6.085938 11.535156 C 6.148438 11.238281 6.363281 10.976562 6.613281 10.890625 Z M 6.613281 10.890625 "/>
</g>
</svg>
