
<svg xmlns="http://www.w3.org/2000/svg" xmlns:xlink="http://www.w3.org/1999/xlink" width="16px" height="16px" viewBox="0 0 16 16" version="1.1">
<g id="surface1">
<path style=" stroke:none;fill-rule:nonzero;fill:#ff6666;fill-opacity:1;" d="M 3 3 C 2.34375 3 1.820312 3.058594 1.382812 3.226562 C 0.945312 3.390625 0.59375 3.6875 0.382812 4.0625 C -0.03125 4.816406 0.015625 5.734375 0 6.992188 L 0 9.007812 C 0.015625 10.265625 -0.03125 11.183594 0.382812 11.9375 C 0.59375 12.3125 0.945312 12.609375 1.382812 12.777344 C 1.820312 12.941406 2.34375 13 3 13 L 9 13 C 9.65625 13 10.179688 12.941406 10.617188 12.777344 C 11.054688 12.609375 11.40625 12.3125 11.613281 11.9375 C 12.015625 11.214844 11.984375 10.320312 11.996094 9.132812 C 13.550781 10.019531 14.960938 10.789062 16 11.28125 L 16 4.71875 C 14.980469 5.203125 13.566406 5.972656 11.996094 6.867188 C 11.984375 5.683594 12.015625 4.785156 11.613281 4.0625 C 11.40625 3.6875 11.054688 3.390625 10.617188 3.226562 C 10.179688 3.058594 9.65625 3 9 3 Z M 3 4 L 9 4 C 9.59375 4 10.003906 4.0625 10.265625 4.160156 C 10.527344 4.257812 10.636719 4.363281 10.738281 4.546875 C 10.941406 4.910156 10.984375 5.742188 11 7 L 11 8.992188 C 10.984375 10.257812 10.941406 11.085938 10.738281 11.453125 C 10.636719 11.636719 10.527344 11.742188 10.265625 11.839844 C 10.003906 11.9375 9.59375 12 9 12 L 3 12 C 2.40625 12 1.996094 11.9375 1.734375 11.839844 C 1.472656 11.742188 1.363281 11.636719 1.261719 11.453125 C 1.058594 11.085938 1.015625 10.257812 1 9 L 1 7 C 1.015625 5.742188 1.058594 4.910156 1.261719 4.546875 C 1.363281 4.363281 1.472656 4.257812 1.734375 4.160156 C 1.996094 4.0625 2.40625 4 3 4 Z M 3 4 "/>
</g>
</svg>
