
<svg xmlns="http://www.w3.org/2000/svg" xmlns:xlink="http://www.w3.org/1999/xlink" width="16px" height="16px" viewBox="0 0 16 16" version="1.1">
<g id="surface1">
<path style=" stroke:none;fill-rule:nonzero;fill:#ff6666;fill-opacity:1;" d="M 8 0 C 5.492188 0 3.554688 2.039062 3.554688 4.570312 L 3.554688 6.667969 L 2.570312 6.667969 C 2.132812 6.667969 1.777344 7.085938 1.777344 7.527344 L 1.777344 15.199219 C 1.777344 15.640625 2.132812 16 2.570312 16 L 13.429688 16 C 13.867188 16 14.222656 15.640625 14.222656 15.199219 L 14.222656 7.527344 C 14.222656 7.085938 13.867188 6.636719 13.429688 6.667969 L 12.445312 6.667969 L 12.445312 4.570312 C 12.445312 2.039062 10.507812 0 8 0 Z M 8 1.777344 C 9.566406 1.777344 10.667969 2.988281 10.667969 4.570312 L 10.667969 6.667969 L 5.332031 6.667969 L 5.332031 4.570312 C 5.332031 2.988281 6.433594 1.777344 8 1.777344 Z M 8 8 C 9.226562 8 10.222656 8.996094 10.222656 10.222656 C 10.222656 11.105469 9.699219 11.902344 8.890625 12.257812 L 8.890625 13.777344 C 8.890625 14.269531 8.492188 14.667969 8 14.667969 C 7.507812 14.667969 7.109375 14.269531 7.109375 13.777344 L 7.109375 12.257812 C 6.300781 11.90625 5.777344 11.105469 5.777344 10.222656 C 5.777344 8.996094 6.773438 8 8 8 Z M 8 8 "/>
</g>
</svg>
