
<svg xmlns="http://www.w3.org/2000/svg" xmlns:xlink="http://www.w3.org/1999/xlink" width="16px" height="16px" viewBox="0 0 16 16" version="1.1">
<g id="surface1">
<path style=" stroke:none;fill-rule:evenodd;fill:#ff6666;fill-opacity:1;" d="M 5.1875 12.675781 C 4.21875 12.433594 3.679688 11.664062 3.679688 10.519531 C 3.675781 10.15625 3.703125 9.980469 3.796875 9.746094 C 4.019531 9.171875 4.609375 8.738281 5.386719 8.578125 C 5.773438 8.496094 5.894531 8.410156 5.894531 8.214844 C 5.894531 8.152344 5.941406 7.96875 5.996094 7.804688 C 6.253906 7.058594 6.726562 6.441406 7.234375 6.1875 C 7.761719 5.921875 8.03125 5.859375 8.671875 5.863281 C 9.582031 5.867188 10.035156 6.066406 10.671875 6.734375 L 11.019531 7.101562 L 11.335938 6.992188 C 12.847656 6.46875 14.359375 7.359375 14.480469 8.851562 L 14.515625 9.261719 L 14.8125 9.367188 C 15.664062 9.671875 16.0625 10.3125 15.992188 11.253906 C 15.945312 11.871094 15.65625 12.363281 15.199219 12.605469 L 14.984375 12.722656 L 10.21875 12.730469 C 6.554688 12.738281 5.386719 12.726562 5.1875 12.675781 Z M 1.613281 12.015625 C 1.046875 11.882812 0.449219 11.382812 0.167969 10.8125 C 0.0078125 10.488281 0 10.441406 0 9.867188 C 0 9.320312 0.015625 9.234375 0.140625 8.964844 C 0.40625 8.394531 0.921875 7.980469 1.5625 7.820312 C 1.699219 7.785156 1.824219 7.730469 1.847656 7.699219 C 1.867188 7.664062 1.890625 7.488281 1.894531 7.304688 C 1.941406 6.164062 2.6875 5.160156 3.734375 4.835938 C 4.300781 4.660156 5.011719 4.703125 5.625 4.949219 C 5.820312 5.027344 5.796875 5.046875 6.210938 4.503906 C 6.453125 4.183594 6.945312 3.785156 7.347656 3.585938 C 7.78125 3.367188 8.234375 3.265625 8.777344 3.265625 C 10.289062 3.269531 11.589844 4.21875 12.074219 5.660156 C 12.226562 6.121094 12.21875 6.25 12.039062 6.253906 C 11.960938 6.257812 11.730469 6.300781 11.53125 6.351562 L 11.171875 6.445312 L 10.84375 6.117188 C 9.914062 5.1875 8.402344 4.988281 7.117188 5.621094 C 6.601562 5.875 6.1875 6.238281 5.878906 6.714844 C 5.652344 7.050781 5.371094 7.683594 5.371094 7.839844 C 5.371094 7.949219 5.28125 8.003906 4.898438 8.132812 C 3.707031 8.519531 3.015625 9.421875 3.015625 10.574219 C 3.015625 10.992188 3.121094 11.507812 3.273438 11.800781 C 3.328125 11.910156 3.359375 12.015625 3.34375 12.035156 C 3.296875 12.078125 1.816406 12.066406 1.613281 12.015625 Z M 1.613281 12.015625 "/>
</g>
</svg>
