
<svg xmlns="http://www.w3.org/2000/svg" xmlns:xlink="http://www.w3.org/1999/xlink" width="16px" height="16px" viewBox="0 0 16 16" version="1.1">
<g id="surface1">
<path style=" stroke:none;fill-rule:nonzero;fill:#ff6666;fill-opacity:1;" d="M 14.207031 0 C 11.542969 0 7.972656 1.824219 5.574219 4.964844 L 3.585938 4.964844 C 2.148438 4.964844 1.324219 6.039062 0.757812 7.171875 L 0 8.691406 L 3.585938 8.691406 L 5.449219 10.550781 L 7.308594 12.414062 L 7.308594 16 L 8.828125 15.242188 C 9.960938 14.675781 11.035156 13.851562 11.035156 12.414062 L 11.035156 10.425781 C 14.175781 8.027344 16 4.457031 16 1.792969 L 16 0 Z M 11.035156 3.722656 C 11.71875 3.722656 12.277344 4.28125 12.277344 4.964844 C 12.277344 5.652344 11.71875 6.207031 11.035156 6.207031 C 10.347656 6.207031 9.792969 5.652344 9.792969 4.964844 C 9.792969 4.28125 10.347656 3.722656 11.035156 3.722656 Z M 2.964844 11.171875 L 2.34375 11.792969 C 1.449219 12.691406 1.101562 14.898438 1.101562 14.898438 C 1.101562 14.898438 3.210938 14.652344 4.207031 13.65625 L 4.828125 13.035156 Z M 2.964844 11.171875 "/>
</g>
</svg>
