
<svg xmlns="http://www.w3.org/2000/svg" xmlns:xlink="http://www.w3.org/1999/xlink" width="16px" height="16px" viewBox="0 0 16 16" version="1.1">
<g id="surface1">
<path style=" stroke:none;fill-rule:nonzero;fill:#ff6666;fill-opacity:1;" d="M 10.617188 8.671875 L 10.589844 8.632812 L 10.613281 8.554688 L 10.675781 8.566406 L 10.738281 8.601562 L 10.746094 8.59375 L 10.726562 8.648438 L 10.671875 8.675781 Z M 10.953125 9.03125 L 10.929688 8.945312 L 10.410156 8.609375 L 10.285156 8.601562 L 10.171875 8.726562 L 10.117188 8.878906 L 10.160156 8.964844 Z M 2.976562 8.625 L 2.917969 8.839844 L 3.113281 8.621094 L 3.128906 8.554688 L 3.046875 8.519531 Z M 3.09375 8.277344 L 3.09375 8.289062 L 2.761719 8.449219 L 3.183594 8.363281 Z M 3.347656 8.695312 L 3.390625 8.664062 L 3.425781 8.582031 L 3.421875 8.589844 L 3.445312 8.492188 L 3.371094 8.480469 L 3.308594 8.496094 L 3.269531 8.539062 L 3.246094 8.609375 L 3.300781 8.679688 Z M 10 7.195312 L 9.941406 7.164062 L 9.675781 7.144531 L 9.5625 7.054688 L 9.699219 6.554688 L 9.035156 7.625 L 8.859375 7.753906 L 9.1875 7.878906 Z M 10.625 10.171875 L 11.285156 11.21875 L 10.753906 10.226562 Z M 12.234375 9.886719 C 12.234375 13.265625 9.5 16 6.125 16 C 2.75 16 0.0117188 13.265625 0.0117188 9.886719 C 0.0117188 6.511719 2.75 3.777344 6.125 3.777344 C 9.5 3.777344 12.234375 6.511719 12.234375 9.886719 Z M 7.789062 7.417969 L 7.789062 7.941406 L 7.894531 8.203125 L 8.148438 8.148438 L 8.160156 7.976562 Z M 8.160156 6.488281 L 8.070312 6.453125 L 7.882812 6.492188 L 7.699219 6.453125 L 7.691406 6.679688 L 7.714844 6.730469 L 7.957031 6.753906 L 8.113281 6.628906 Z M 4.539062 4.867188 L 4.84375 4.855469 L 5.4375 4.46875 C 5.246094 4.492188 5.0625 4.523438 4.878906 4.566406 L 4.769531 4.710938 Z M 4.15625 5.046875 L 4.359375 5.207031 L 4.613281 5.238281 L 4.777344 5.089844 L 4.679688 5.074219 L 4.28125 4.847656 L 4.167969 4.824219 Z M 3.632812 5.019531 L 3.652344 5.050781 L 3.769531 5.042969 L 3.890625 4.992188 L 3.953125 4.910156 L 3.929688 4.875 C 3.828125 4.921875 3.730469 4.972656 3.632812 5.019531 Z M 3.339844 5.640625 L 3.492188 5.660156 L 3.597656 5.535156 L 3.628906 5.390625 L 3.546875 5.347656 L 3.34375 5.574219 Z M 2.246094 6.058594 L 2.515625 6.214844 L 2.910156 6.03125 L 3.21875 5.699219 L 3.226562 5.402344 L 2.960938 5.453125 L 2.933594 5.441406 C 2.746094 5.578125 2.566406 5.722656 2.398438 5.882812 L 2.425781 5.910156 L 2.265625 6.023438 Z M 0.742188 10.378906 L 0.621094 10.175781 C 0.621094 10.195312 0.625 10.210938 0.625 10.230469 L 0.738281 10.480469 Z M 6.167969 12.753906 L 5.894531 12.546875 L 5.101562 12.3125 L 4.640625 11.707031 L 4.070312 11.492188 L 2.730469 11.445312 L 2.324219 10.761719 L 2.21875 10.746094 L 1.886719 10.910156 L 1.765625 10.777344 L 1.742188 10.59375 L 1.78125 10.4375 L 1.992188 10.152344 L 2.242188 10.011719 L 2.863281 10.128906 L 2.957031 10.390625 L 3.148438 10.433594 L 3.144531 10.035156 L 3.667969 9.277344 L 4.816406 8.636719 L 4.648438 8.617188 L 4.351562 8.394531 L 5.109375 8.179688 L 5.136719 8.246094 L 5.125 8.3125 L 5.078125 8.375 L 4.996094 8.433594 L 5.054688 8.511719 L 5.238281 8.519531 L 5.390625 8.464844 L 4.894531 7.269531 L 4.824219 7.277344 L 4.21875 6.984375 L 4.085938 7.117188 L 3.730469 8.019531 L 3.5625 7.863281 L 3.160156 7.679688 L 2.910156 7.398438 L 3.203125 6.953125 L 4.097656 6.261719 L 4.230469 5.890625 L 4.644531 6.148438 L 4.710938 6.292969 L 4.273438 6.648438 L 4.707031 6.917969 L 4.800781 6.867188 L 4.847656 6.871094 L 5.03125 6.582031 L 4.988281 6.535156 L 5.238281 6.257812 L 5.046875 5.921875 L 4.546875 5.496094 L 4.808594 5.449219 L 4.796875 5.378906 L 4.652344 5.347656 L 4.234375 5.582031 L 4.367188 5.363281 L 4.089844 5.449219 L 4.039062 6.136719 L 3.816406 6.289062 L 3.65625 6.140625 L 4.066406 5.375 L 4.035156 5.34375 L 4 5.328125 L 3.953125 5.328125 L 3.90625 5.347656 L 3.253906 6.253906 L 3.269531 6.199219 L 3.335938 6.074219 L 3.3125 6.023438 L 3.199219 6.089844 L 2.261719 6.28125 L 2.089844 6.1875 C 1.128906 7.214844 0.601562 8.570312 0.609375 9.976562 C 0.609375 9.992188 0.613281 10.011719 0.613281 10.027344 L 0.617188 10.019531 L 0.753906 10.070312 L 1.25 10.914062 L 2.742188 11.574219 L 2.949219 11.800781 L 2.953125 12.101562 L 2.765625 12.546875 L 2.753906 12.789062 L 3.402344 14.042969 L 3.425781 14.738281 C 3.777344 14.9375 4.148438 15.097656 4.535156 15.21875 L 5.214844 14.347656 L 5.816406 13.90625 Z M 3.910156 6.628906 L 3.859375 6.554688 L 3.808594 6.542969 L 3.621094 6.777344 L 3.652344 6.8125 L 3.886719 6.8125 L 3.957031 6.769531 Z M 6.203125 7.121094 L 7.757812 5.777344 L 8.121094 4.800781 C 7.472656 4.546875 6.78125 4.417969 6.085938 4.421875 C 5.988281 4.421875 5.898438 4.433594 5.800781 4.4375 L 5.730469 4.480469 L 5.585938 4.6875 L 5.554688 4.828125 L 5.613281 4.933594 L 6.011719 4.984375 L 6.128906 5.757812 L 5.929688 6.222656 L 5.882812 6.5625 L 6.007812 6.921875 Z M 11.410156 11.363281 L 11.453125 11.335938 C 11.574219 10.878906 11.640625 10.394531 11.636719 9.894531 C 11.632812 9.539062 11.59375 9.195312 11.527344 8.859375 L 11.5 8.800781 L 11.511719 8.761719 C 11.34375 7.984375 11.007812 7.257812 10.527344 6.628906 L 10.492188 6.640625 L 10.292969 6.4375 L 10.363281 6.414062 C 10.191406 6.207031 10.003906 6.015625 9.800781 5.835938 L 9.632812 5.824219 L 9.328125 5.957031 L 8.519531 7.050781 L 8.558594 7.191406 L 8.9375 7.484375 L 8.9375 7.632812 L 7.875 8.414062 L 7.882812 8.515625 L 7.96875 8.664062 L 7.996094 8.792969 L 7.535156 8.976562 L 7.5 9.210938 L 7.535156 9.503906 L 6.832031 10.886719 L 6.800781 11.5 L 7.324219 11.808594 L 8.191406 11.808594 L 8.585938 11.917969 L 9.328125 14.414062 C 10.355469 13.679688 11.101562 12.613281 11.4375 11.394531 Z M 10.667969 9.46875 L 9.84375 9.246094 L 9.757812 9.144531 L 9.777344 9.386719 L 9.753906 9.402344 L 9.109375 8.726562 L 9.109375 8.730469 L 9.003906 8.757812 L 8.988281 8.730469 L 9.019531 8.863281 L 9.273438 9.050781 L 9.289062 9.1875 L 9.242188 9.269531 L 9.203125 9.296875 L 9.160156 9.3125 L 8.914062 8.929688 L 8.550781 8.933594 L 7.789062 9.496094 L 8.785156 9.460938 L 9.238281 9.871094 L 9.457031 9.945312 L 10.652344 9.703125 Z M 10.667969 9.46875 "/>
<path style=" stroke:none;fill-rule:evenodd;fill:#ff6666;fill-opacity:1;" d="M 10.226562 7.820312 C 10.898438 7.246094 11.558594 6.597656 12.128906 5.96875 C 13.402344 4.554688 14.191406 3.152344 14.4375 2.257812 C 14.628906 1.539062 14.089844 1.199219 13.265625 1.25 C 12.621094 1.289062 11.746094 1.628906 11.320312 1.816406 C 10.375 2.226562 9.222656 3.199219 8.183594 4.078125 C 8.050781 4.03125 7.917969 3.984375 7.78125 3.949219 C 9.878906 1.902344 12.34375 0.121094 14.0625 0.0078125 C 14.160156 0 14.257812 0 14.347656 0 C 14.625 0.0078125 14.871094 0.0507812 15.085938 0.136719 C 16.820312 0.824219 15.980469 3.871094 13.207031 6.941406 C 12.523438 7.699219 11.785156 8.433594 11.03125 9.074219 C 11.144531 9.398438 11.203125 9.746094 11.203125 10.105469 C 11.203125 11.867188 9.773438 13.300781 8.011719 13.300781 C 6.25 13.300781 4.820312 11.867188 4.820312 10.105469 C 4.820312 8.347656 6.25 6.914062 8.011719 6.914062 C 8.875 6.914062 9.65625 7.257812 10.226562 7.820312 Z M 9.394531 8.515625 C 9.082031 8.753906 8.773438 8.976562 8.480469 9.164062 C 8.34375 9.082031 8.183594 9.042969 8.011719 9.042969 C 7.425781 9.042969 6.949219 9.519531 6.949219 10.105469 C 6.949219 10.695312 7.425781 11.171875 8.011719 11.171875 C 8.296875 11.171875 8.550781 11.058594 8.734375 10.871094 C 9.1875 10.578125 9.652344 10.238281 10.121094 9.859375 C 10.136719 9.941406 10.140625 10.023438 10.140625 10.105469 C 10.140625 11.28125 9.1875 12.234375 8.011719 12.234375 C 6.839844 12.234375 5.886719 11.28125 5.886719 10.105469 C 5.886719 8.933594 6.839844 7.980469 8.011719 7.980469 C 8.546875 7.980469 9.035156 8.175781 9.394531 8.515625 Z M 9.394531 8.515625 "/>
</g>
</svg>
