
<svg xmlns="http://www.w3.org/2000/svg" xmlns:xlink="http://www.w3.org/1999/xlink" width="16px" height="16px" viewBox="0 0 16 16" version="1.1">
<g id="surface1">
<path style=" stroke:none;fill-rule:nonzero;fill:#ff6666;fill-opacity:1;" d="M 8 0 C 3.566406 0 0 3.566406 0 8 C 0 12.433594 3.566406 16 8 16 C 12.433594 16 16 12.433594 16 8 C 16 3.566406 12.433594 0 8 0 Z M 8 1 C 9.105469 1 10 1.894531 10 3 C 10 4.105469 9.105469 5 8 5 C 6.894531 5 6 4.105469 6 3 C 6 1.894531 6.894531 1 8 1 Z M 3 6 C 4.105469 6 5 6.894531 5 8 C 5 9.105469 4.105469 10 3 10 C 1.894531 10 1 9.105469 1 8 C 1 6.894531 1.894531 6 3 6 Z M 13 6 C 14.105469 6 15 6.894531 15 8 C 15 9.105469 14.105469 10 13 10 C 11.894531 10 11 9.105469 11 8 C 11 6.894531 11.894531 6 13 6 Z M 7.488281 6.636719 C 7.671875 6.628906 7.84375 6.726562 7.933594 6.886719 C 8.070312 7.125 7.988281 7.429688 7.75 7.566406 C 7.636719 7.632812 7.5 7.652344 7.371094 7.617188 C 7.242188 7.582031 7.132812 7.5 7.066406 7.386719 C 7 7.269531 6.980469 7.132812 7.015625 7.003906 C 7.050781 6.875 7.136719 6.765625 7.25 6.699219 C 7.324219 6.660156 7.40625 6.636719 7.488281 6.636719 Z M 8.855469 7 C 9.039062 6.996094 9.207031 7.089844 9.300781 7.25 C 9.367188 7.363281 9.382812 7.5 9.347656 7.628906 C 9.316406 7.757812 9.230469 7.867188 9.117188 7.933594 C 8.875 8.070312 8.570312 7.988281 8.433594 7.75 C 8.367188 7.632812 8.347656 7.5 8.382812 7.371094 C 8.417969 7.242188 8.5 7.132812 8.613281 7.066406 C 8.6875 7.023438 8.769531 7 8.855469 7 Z M 7.125 8 C 7.304688 7.996094 7.476562 8.09375 7.566406 8.25 C 7.707031 8.488281 7.625 8.792969 7.386719 8.933594 C 7.269531 9 7.132812 9.019531 7.003906 8.984375 C 6.875 8.949219 6.765625 8.863281 6.699219 8.75 C 6.632812 8.632812 6.617188 8.496094 6.652344 8.371094 C 6.683594 8.242188 6.769531 8.132812 6.882812 8.066406 C 6.957031 8.023438 7.039062 8 7.121094 8 Z M 8.488281 8.363281 C 8.671875 8.359375 8.84375 8.457031 8.933594 8.613281 C 9 8.730469 9.019531 8.867188 8.984375 8.996094 C 8.949219 9.125 8.867188 9.234375 8.75 9.300781 C 8.636719 9.367188 8.5 9.382812 8.371094 9.347656 C 8.242188 9.316406 8.132812 9.230469 8.066406 9.113281 C 7.929688 8.875 8.011719 8.570312 8.25 8.433594 C 8.324219 8.390625 8.40625 8.367188 8.488281 8.363281 Z M 8 11 C 9.105469 11 10 11.894531 10 13 C 10 14.105469 9.105469 15 8 15 C 6.894531 15 6 14.105469 6 13 C 6 11.894531 6.894531 11 8 11 Z M 8 11 "/>
</g>
</svg>
