
<svg xmlns="http://www.w3.org/2000/svg" xmlns:xlink="http://www.w3.org/1999/xlink" width="16px" height="16px" viewBox="0 0 16 16" version="1.1">
<g id="surface1">
<path style=" stroke:none;fill-rule:evenodd;fill:#ff6666;fill-opacity:1;" d="M 13.097656 4.613281 L 15.628906 7.148438 C 16.09375 7.617188 16.09375 8.382812 15.628906 8.851562 L 8.847656 15.648438 C 8.378906 16.117188 7.621094 16.117188 7.152344 15.648438 L 0.371094 8.851562 C -0.09375 8.382812 -0.09375 7.617188 0.371094 7.148438 L 3.972656 3.542969 C 3.972656 3.539062 3.976562 3.535156 3.976562 3.53125 L 4.46875 3.042969 C 4.472656 3.039062 4.476562 3.035156 4.480469 3.03125 L 7.152344 0.351562 C 7.621094 -0.117188 8.378906 -0.117188 8.847656 0.351562 L 11.101562 2.613281 L 11.105469 2.613281 L 13.097656 4.609375 C 13.097656 4.609375 13.097656 4.613281 13.097656 4.613281 Z M 13.097656 4.613281 L 11.105469 2.613281 C 10.277344 2.300781 9.175781 1.996094 11.101562 2.613281 L 8 1.996094 C 6.539062 1.996094 5.363281 2.335938 4.519531 2.996094 C 4.503906 3.007812 4.492188 3.019531 4.480469 3.03125 L 3.972656 3.542969 C 3.484375 4.15625 3.238281 4.917969 3.292969 5.65625 C 3.441406 7.613281 5.386719 9.140625 8 9.140625 C 9.773438 9.140625 10.414062 10.050781 10.453125 10.519531 C 10.472656 10.757812 10.429688 10.941406 10.105469 11.191406 C 9.785156 11.445312 9.117188 11.714844 8 11.714844 C 6.441406 11.714844 4.574219 10.722656 4.574219 10.722656 C 4.273438 10.542969 3.90625 10.511719 3.578125 10.644531 C 3.25 10.773438 3.003906 11.046875 2.902344 11.386719 L 4.894531 13.382812 C 5.722656 13.695312 6.820312 14 8 14 C 9.441406 14 10.601562 13.671875 11.445312 13.039062 L 12.117188 12.367188 C 12.5625 11.769531 12.785156 11.039062 12.726562 10.335938 C 12.566406 8.375 10.613281 6.855469 8 6.855469 C 6.226562 6.855469 5.601562 5.953125 5.566406 5.480469 C 5.550781 5.246094 5.597656 5.050781 5.921875 4.800781 C 6.242188 4.550781 6.898438 4.28125 8 4.28125 C 9.5625 4.28125 11.425781 5.277344 11.425781 5.277344 C 11.726562 5.453125 12.097656 5.484375 12.421875 5.351562 C 12.75 5.222656 12.996094 4.949219 13.097656 4.613281 Z M 13.097656 4.613281 "/>
</g>
</svg>
