
<svg xmlns="http://www.w3.org/2000/svg" xmlns:xlink="http://www.w3.org/1999/xlink" width="16px" height="16px" viewBox="0 0 16 16" version="1.1">
<g id="surface1">
<path style=" stroke:none;fill-rule:nonzero;fill:#ff6666;fill-opacity:1;" d="M 8.59375 0 L 8.601562 7.398438 L 8.609375 15.53125 L 10.796875 15.53125 L 10.800781 13.394531 C 10.804688 11.699219 10.8125 11.257812 10.832031 11.261719 C 10.84375 11.269531 11.265625 11.917969 11.699219 12.703125 C 12.132812 13.492188 12.546875 14.222656 12.613281 14.332031 C 12.75 14.558594 13.019531 14.871094 13.195312 15.003906 C 13.566406 15.285156 13.949219 15.429688 14.539062 15.511719 C 14.859375 15.554688 15.933594 15.570312 15.964844 15.53125 C 15.980469 15.515625 15.984375 15.128906 15.980469 14.304688 L 15.976562 12.96875 L 15.578125 12.953125 C 14.886719 12.960938 14.5625 12.78125 14.175781 12.273438 C 14.113281 12.175781 13.808594 11.621094 13.492188 11.046875 C 12.941406 10.027344 12.925781 9.996094 12.953125 9.941406 C 12.972656 9.914062 13.660156 8.804688 14.488281 7.476562 C 15.3125 6.148438 15.992188 5.21875 16 5.199219 C 16.007812 5.175781 15.796875 5.183594 14.671875 5.183594 L 13.328125 5.183594 L 12.121094 6.941406 C 11.453125 8.011719 10.84375 8.886719 10.828125 8.890625 C 10.808594 8.898438 10.808594 2.710938 10.820312 0.0117188 C 10.746094 0.0117188 10.734375 0 10.664062 0 Z M 3.597656 5.183594 C 3.324219 5.1875 3.050781 5.199219 2.921875 5.226562 C 1.855469 5.429688 1.136719 6.003906 0.726562 6.921875 C 0.597656 7.210938 0.519531 7.492188 0.46875 7.835938 C 0.433594 8.066406 0.433594 8.164062 0.441406 8.535156 C 0.449219 8.835938 0.460938 9.027344 0.488281 9.175781 C 0.664062 10.1875 1.140625 10.828125 2.035156 11.160156 C 2.320312 11.269531 2.503906 11.3125 3.273438 11.441406 C 3.699219 11.511719 4.027344 11.574219 4.09375 11.601562 C 4.390625 11.722656 4.527344 11.941406 4.554688 12.324219 C 4.585938 12.792969 4.355469 13.117188 3.894531 13.25 C 3.707031 13.304688 3.367188 13.332031 3.132812 13.316406 C 2.347656 13.265625 1.835938 13.074219 1.394531 12.660156 L 1.339844 12.609375 L 0.671875 13.394531 C 0.300781 13.824219 0 14.199219 0 14.21875 C 0 14.269531 0.308594 14.582031 0.546875 14.769531 C 1.144531 15.238281 1.78125 15.460938 2.789062 15.546875 C 3 15.566406 3.78125 15.539062 3.960938 15.507812 C 5.316406 15.269531 6.328125 14.460938 6.636719 13.253906 C 6.777344 12.691406 6.773438 11.84375 6.628906 11.214844 C 6.519531 10.753906 6.378906 10.464844 6.109375 10.144531 C 5.824219 9.808594 5.503906 9.636719 5.074219 9.46875 C 4.785156 9.355469 4.359375 9.300781 3.585938 9.175781 C 2.761719 9.039062 2.664062 9.007812 2.476562 8.800781 C 2.265625 8.566406 2.226562 8.257812 2.371094 7.917969 C 2.472656 7.679688 2.675781 7.542969 2.972656 7.449219 C 3.128906 7.398438 3.933594 7.394531 4.179688 7.441406 C 4.511719 7.503906 4.824219 7.617188 5.042969 7.824219 C 5.109375 7.886719 5.171875 7.9375 5.1875 7.9375 C 5.222656 7.9375 6.507812 6.429688 6.507812 6.386719 C 6.507812 6.335938 6.257812 6.089844 6.019531 5.898438 C 5.554688 5.535156 5 5.3125 4.3125 5.214844 C 4.160156 5.191406 3.875 5.183594 3.601562 5.183594 Z M 3.597656 5.183594 "/>
</g>
</svg>
