
<svg xmlns="http://www.w3.org/2000/svg" xmlns:xlink="http://www.w3.org/1999/xlink" width="16px" height="16px" viewBox="0 0 16 16" version="1.1">
<g id="surface1">
<path style=" stroke:none;fill-rule:nonzero;fill:#ff6666;fill-opacity:1;" d="M 6.390625 1.859375 C 6.082031 1.867188 5.820312 2.058594 5.761719 2.316406 L 4.605469 7.246094 L 4.277344 4.652344 C 4.242188 4.386719 3.996094 4.175781 3.683594 4.148438 C 3.371094 4.121094 3.078125 4.285156 2.980469 4.539062 L 1.945312 7.285156 L 0 7.285156 L 0 8.429688 L 2.433594 8.429688 C 2.722656 8.429688 2.976562 8.269531 3.066406 8.03125 L 3.289062 7.445312 L 3.742188 11.0625 C 3.777344 11.339844 4.046875 11.558594 4.375 11.570312 C 4.703125 11.582031 4.992188 11.390625 5.058594 11.113281 L 6.207031 6.214844 L 7.113281 13.628906 C 7.148438 13.914062 7.425781 14.132812 7.761719 14.140625 C 8.09375 14.148438 8.382812 13.941406 8.433594 13.65625 L 9.613281 7.152344 L 10.414062 11.9375 C 10.460938 12.214844 10.738281 12.425781 11.066406 12.429688 C 11.394531 12.433594 11.675781 12.230469 11.734375 11.953125 L 12.566406 7.859375 L 12.757812 8.558594 C 12.828125 8.816406 13.097656 9 13.40625 9 L 16 9 L 16 7.859375 L 13.9375 7.859375 L 13.125 4.871094 C 13.050781 4.605469 12.773438 4.421875 12.457031 4.429688 C 12.140625 4.4375 11.871094 4.636719 11.816406 4.902344 L 11.140625 8.222656 L 10.300781 3.207031 C 10.253906 2.925781 9.976562 2.71875 9.644531 2.714844 C 9.316406 2.714844 9.03125 2.921875 8.980469 3.199219 L 7.90625 9.140625 L 7.074219 2.371094 C 7.039062 2.070312 6.738281 1.847656 6.390625 1.859375 Z M 6.390625 1.859375 "/>
</g>
</svg>
