
<svg xmlns="http://www.w3.org/2000/svg" xmlns:xlink="http://www.w3.org/1999/xlink" width="16px" height="16px" viewBox="0 0 16 16" version="1.1">
<g id="surface1">
<path style=" stroke:none;fill-rule:nonzero;fill:#ff6666;fill-opacity:1;" d="M 3.992188 0 C 2.734375 0.015625 1.816406 -0.03125 1.0625 0.410156 C 0.6875 0.632812 0.390625 1.007812 0.226562 1.476562 C 0.0585938 1.941406 0 2.496094 0 3.199219 L 0 9.601562 C 0 10.300781 0.0585938 10.855469 0.226562 11.324219 C 0.390625 11.792969 0.6875 12.167969 1.0625 12.390625 C 1.816406 12.832031 2.734375 12.785156 3.992188 12.800781 L 6 12.800781 L 6 13.332031 C 6 14.933594 5.5 14.933594 4.5 14.933594 L 4 14.933594 L 4 16 L 12 16 L 12 14.933594 L 11.5 14.933594 C 10.5 14.933594 10 14.933594 10 13.332031 L 10 12.800781 L 12.003906 12.800781 C 13.265625 12.785156 14.183594 12.832031 14.9375 12.390625 C 15.3125 12.167969 15.609375 11.792969 15.777344 11.324219 C 15.941406 10.855469 16 10.300781 16 9.601562 L 16 3.199219 C 16 2.496094 15.941406 1.941406 15.777344 1.476562 C 15.609375 1.007812 15.3125 0.632812 14.9375 0.410156 C 14.183594 -0.03125 13.265625 0.015625 12.003906 0 Z M 4 1.066406 L 12 1.066406 C 13.257812 1.082031 14.085938 1.128906 14.453125 1.34375 C 14.636719 1.453125 14.742188 1.574219 14.839844 1.851562 C 14.9375 2.125 15 2.566406 15 3.199219 L 15 9.601562 C 15 10.230469 14.9375 10.671875 14.839844 10.949219 C 14.742188 11.226562 14.636719 11.347656 14.453125 11.453125 C 14.085938 11.671875 13.257812 11.714844 12 11.734375 L 4 11.734375 C 2.742188 11.714844 1.910156 11.671875 1.546875 11.453125 C 1.363281 11.347656 1.257812 11.226562 1.160156 10.949219 C 1.0625 10.671875 1 10.230469 1 9.601562 L 1 3.199219 C 1 2.566406 1.0625 2.125 1.160156 1.851562 C 1.257812 1.574219 1.363281 1.453125 1.546875 1.34375 C 1.910156 1.128906 2.742188 1.082031 4 1.066406 Z M 4 1.066406 "/>
</g>
</svg>
