
<svg xmlns="http://www.w3.org/2000/svg" xmlns:xlink="http://www.w3.org/1999/xlink" width="16px" height="16px" viewBox="0 0 16 16" version="1.1">
<g id="surface1">
<path style=" stroke:none;fill-rule:nonzero;fill:#ff6666;fill-opacity:1;" d="M 6.1875 14.800781 C 5.863281 14.710938 5.425781 14.546875 5.144531 13.949219 C 4.757812 13.128906 4.761719 13.148438 5.097656 12.644531 C 5.566406 11.953125 6.414062 10.71875 6.414062 10.378906 C 6.414062 10.167969 6.203125 10 5.683594 9.796875 C 4.558594 9.363281 3.035156 8.625 2.246094 8.046875 C 1.285156 7.335938 0.386719 6.003906 0.109375 5.078125 C -0.0898438 4.425781 -0.0234375 4.285156 0.363281 4.523438 C 2.402344 5.695312 3.039062 5.878906 5.058594 6.058594 C 6.316406 6.003906 7.296875 5.265625 7.246094 4.378906 C 7.203125 3.714844 6.765625 3.148438 6.496094 2.292969 C 6.347656 1.8125 6.429688 1.644531 6.457031 1.460938 C 6.476562 1.332031 6.527344 1.214844 6.566406 1.199219 C 6.789062 1.324219 6.9375 1.546875 7.148438 1.628906 C 7.65625 1.828125 8.1875 1.832031 8.726562 2.066406 C 9.273438 2.347656 9.519531 2.628906 9.640625 3.132812 C 9.730469 3.492188 9.96875 3.738281 10.21875 3.980469 C 10.335938 4.09375 10.429688 4.21875 10.429688 4.253906 C 10.429688 4.441406 9.824219 4.40625 9.324219 4.265625 C 8.886719 4.140625 8.761719 4.695312 8.804688 5.097656 C 8.871094 6.164062 10.261719 5.96875 11.453125 6.058594 C 12.445312 6.136719 14.136719 6.007812 15.425781 5.453125 C 15.695312 5.339844 15.953125 5.253906 16 5.261719 C 15.5625 7.140625 13.675781 8.742188 12.042969 9.425781 C 11.238281 9.753906 10.078125 10.121094 9.730469 10.164062 C 8.863281 10.273438 8.566406 10.386719 8.425781 10.664062 C 8.265625 10.980469 8.03125 12.4375 7.941406 13.542969 C 7.734375 14.46875 6.789062 14.792969 6.1875 14.800781 Z M 6.1875 14.800781 "/>
</g>
</svg>
