
<svg xmlns="http://www.w3.org/2000/svg" xmlns:xlink="http://www.w3.org/1999/xlink" width="16px" height="16px" viewBox="0 0 16 16" version="1.1">
<g id="surface1">
<path style=" stroke:none;fill-rule:nonzero;fill:#ff6666;fill-opacity:1;" d="M 1 0 L 1 4 L 2 4 L 2 1 L 14 1 L 14 4 L 15 4 L 15 0 Z M 10 3 L 10 4 L 13 4 L 13 3 Z M 10 3 "/>
<path style=" stroke:none;fill-rule:nonzero;fill:#ff6666;fill-opacity:1;" d="M 1 5 L 1 9 L 2 9 L 2 6 L 14 6 L 14 9 L 15 9 L 15 5 Z M 10 8 L 10 9 L 13 9 L 13 8 Z M 10 8 "/>
<path style=" stroke:none;fill-rule:nonzero;fill:#ff6666;fill-opacity:1;" d="M 1 10 L 1 16 L 15 16 L 15 10 Z M 2 11 L 14 11 L 14 15 L 2 15 Z M 10 13 L 10 14 L 13 14 L 13 13 Z M 10 13 "/>
</g>
</svg>
