
<svg xmlns="http://www.w3.org/2000/svg" xmlns:xlink="http://www.w3.org/1999/xlink" width="16px" height="16px" viewBox="0 0 16 16" version="1.1">
<g id="surface1">
<path style=" stroke:none;fill-rule:nonzero;fill:#ff6666;fill-opacity:1;" d="M 0.179688 8.6875 C 0.148438 8.6875 0.121094 8.714844 0.117188 8.75 L 0 9.644531 L 0.117188 10.523438 C 0.121094 10.5625 0.148438 10.585938 0.179688 10.585938 C 0.214844 10.585938 0.238281 10.5625 0.246094 10.527344 L 0.382812 9.644531 L 0.246094 8.75 C 0.242188 8.714844 0.214844 8.6875 0.179688 8.6875 Z M 0.839844 8.199219 C 0.832031 8.160156 0.804688 8.132812 0.773438 8.132812 C 0.738281 8.132812 0.710938 8.160156 0.707031 8.199219 C 0.707031 8.199219 0.546875 9.644531 0.546875 9.644531 L 0.707031 11.058594 C 0.710938 11.097656 0.738281 11.125 0.773438 11.125 C 0.804688 11.125 0.832031 11.097656 0.839844 11.058594 L 1.019531 9.644531 Z M 3.316406 6.867188 C 3.253906 6.867188 3.199219 6.917969 3.195312 6.984375 L 3.070312 9.648438 L 3.195312 11.367188 C 3.199219 11.433594 3.253906 11.488281 3.316406 11.488281 C 3.382812 11.488281 3.433594 11.433594 3.4375 11.367188 L 3.582031 9.644531 L 3.4375 6.984375 C 3.433594 6.917969 3.382812 6.863281 3.316406 6.863281 Z M 2.035156 7.789062 C 1.984375 7.789062 1.945312 7.832031 1.941406 7.882812 L 1.800781 9.644531 L 1.941406 11.351562 C 1.945312 11.40625 1.984375 11.445312 2.035156 11.445312 C 2.082031 11.445312 2.125 11.40625 2.128906 11.351562 L 2.289062 9.644531 L 2.128906 7.882812 C 2.125 7.828125 2.082031 7.789062 2.035156 7.789062 Z M 4.621094 11.488281 C 4.703125 11.488281 4.765625 11.421875 4.769531 11.339844 L 4.890625 9.648438 L 4.769531 6.105469 C 4.765625 6.023438 4.703125 5.957031 4.621094 5.957031 C 4.539062 5.957031 4.476562 6.023438 4.472656 6.105469 C 4.472656 6.105469 4.363281 9.648438 4.363281 9.648438 L 4.472656 11.339844 C 4.476562 11.421875 4.539062 11.488281 4.621094 11.488281 Z M 7.289062 11.496094 C 7.398438 11.496094 7.492188 11.40625 7.492188 11.292969 L 7.578125 9.652344 L 7.492188 5.558594 C 7.492188 5.449219 7.398438 5.355469 7.289062 5.355469 C 7.179688 5.355469 7.089844 5.445312 7.085938 5.558594 L 7.011719 9.648438 C 7.011719 9.648438 7.085938 11.292969 7.085938 11.292969 C 7.085938 11.40625 7.179688 11.496094 7.289062 11.496094 Z M 5.945312 11.488281 C 6.042969 11.488281 6.117188 11.410156 6.121094 11.308594 L 6.226562 9.644531 L 6.121094 6.078125 C 6.117188 5.976562 6.042969 5.902344 5.945312 5.902344 C 5.847656 5.902344 5.773438 5.976562 5.769531 6.078125 L 5.675781 9.644531 L 5.769531 11.308594 C 5.773438 11.410156 5.847656 11.484375 5.945312 11.484375 Z M 2.671875 11.46875 C 2.730469 11.46875 2.777344 11.425781 2.78125 11.363281 L 2.933594 9.644531 L 2.78125 8.007812 C 2.777344 7.945312 2.730469 7.902344 2.671875 7.902344 C 2.617188 7.902344 2.570312 7.949219 2.566406 8.007812 L 2.433594 9.644531 L 2.566406 11.363281 C 2.570312 11.425781 2.617188 11.46875 2.671875 11.46875 Z M 1.402344 11.375 C 1.441406 11.375 1.476562 11.34375 1.480469 11.296875 L 1.652344 9.644531 L 1.480469 7.929688 C 1.476562 7.882812 1.441406 7.847656 1.402344 7.847656 C 1.359375 7.847656 1.324219 7.882812 1.320312 7.929688 C 1.320312 7.929688 1.171875 9.644531 1.171875 9.644531 L 1.320312 11.296875 C 1.324219 11.34375 1.359375 11.375 1.402344 11.375 Z M 6.617188 6.019531 C 6.511719 6.019531 6.425781 6.101562 6.425781 6.207031 L 6.339844 9.648438 L 6.425781 11.300781 C 6.429688 11.40625 6.511719 11.488281 6.617188 11.488281 C 6.71875 11.488281 6.800781 11.40625 6.804688 11.300781 L 6.898438 9.644531 L 6.804688 6.207031 C 6.800781 6.101562 6.71875 6.015625 6.617188 6.015625 Z M 3.96875 11.488281 C 4.039062 11.488281 4.097656 11.429688 4.101562 11.355469 L 4.234375 9.644531 L 4.101562 6.375 C 4.097656 6.300781 4.039062 6.242188 3.96875 6.242188 C 3.894531 6.242188 3.835938 6.300781 3.832031 6.375 C 3.832031 6.375 3.714844 9.644531 3.714844 9.644531 L 3.832031 11.355469 C 3.835938 11.429688 3.894531 11.488281 3.96875 11.488281 Z M 5.441406 11.328125 L 5.554688 9.648438 L 5.441406 5.984375 C 5.4375 5.894531 5.367188 5.824219 5.28125 5.824219 C 5.191406 5.824219 5.121094 5.894531 5.117188 5.984375 L 5.019531 9.648438 L 5.117188 11.328125 C 5.121094 11.417969 5.191406 11.488281 5.28125 11.488281 C 5.367188 11.488281 5.441406 11.417969 5.441406 11.328125 Z M 14.03125 7.535156 C 13.761719 7.535156 13.503906 7.589844 13.269531 7.6875 C 13.113281 5.902344 11.628906 4.503906 9.8125 4.503906 C 9.367188 4.503906 8.9375 4.589844 8.554688 4.742188 C 8.40625 4.796875 8.367188 4.859375 8.363281 4.972656 L 8.363281 11.261719 C 8.363281 11.382812 8.460938 11.480469 8.578125 11.496094 C 8.582031 11.496094 13.996094 11.496094 14.03125 11.496094 C 15.117188 11.496094 16 10.605469 16 9.511719 C 16 8.417969 15.117188 7.53125 14.03125 7.53125 Z M 7.960938 4.96875 C 7.84375 4.96875 7.746094 5.066406 7.746094 5.183594 L 7.65625 9.648438 L 7.746094 11.265625 C 7.746094 11.386719 7.84375 11.484375 7.960938 11.484375 C 8.078125 11.484375 8.175781 11.386719 8.179688 11.265625 L 8.273438 9.644531 L 8.179688 5.183594 C 8.179688 5.0625 8.078125 4.964844 7.960938 4.964844 Z M 7.960938 4.96875 "/>
</g>
</svg>
