
<svg xmlns="http://www.w3.org/2000/svg" xmlns:xlink="http://www.w3.org/1999/xlink" width="16px" height="16px" viewBox="0 0 16 16" version="1.1">
<g id="surface1">
<path style=" stroke:none;fill-rule:nonzero;fill:#ff6666;fill-opacity:1;" d="M 8.058594 0.617188 C 7.351562 0.59375 6.710938 1.015625 6.480469 1.65625 L 5.269531 5.007812 L 1.578125 5.074219 C 0.894531 5.089844 0.289062 5.515625 0.078125 6.144531 C -0.132812 6.769531 0.09375 7.457031 0.640625 7.855469 L 3.578125 9.996094 L 2.511719 13.390625 C 2.3125 14.019531 2.550781 14.699219 3.105469 15.089844 C 3.660156 15.476562 4.410156 15.480469 4.972656 15.105469 L 8 13.078125 L 11.027344 15.105469 C 11.589844 15.480469 12.339844 15.476562 12.894531 15.089844 C 13.449219 14.699219 13.6875 14.019531 13.488281 13.390625 L 12.421875 9.996094 L 15.359375 7.855469 C 15.90625 7.457031 16.132812 6.769531 15.921875 6.144531 C 15.710938 5.515625 15.105469 5.089844 14.421875 5.074219 L 10.730469 5.007812 L 9.519531 1.65625 C 9.300781 1.054688 8.722656 0.640625 8.058594 0.617188 Z M 8 2.882812 L 8.996094 5.632812 C 9.253906 6.351562 9.933594 6.835938 10.695312 6.851562 L 13.527344 6.90625 L 11.332031 8.503906 C 10.691406 8.96875 10.421875 9.792969 10.65625 10.550781 L 11.492188 13.195312 L 9.027344 11.546875 C 8.40625 11.128906 7.59375 11.128906 6.972656 11.546875 L 4.507812 13.195312 L 5.34375 10.550781 C 5.578125 9.792969 5.308594 8.96875 4.667969 8.503906 L 2.472656 6.90625 L 5.304688 6.851562 C 6.066406 6.835938 6.746094 6.351562 7.003906 5.632812 Z M 8 2.882812 "/>
</g>
</svg>
