
<svg xmlns="http://www.w3.org/2000/svg" xmlns:xlink="http://www.w3.org/1999/xlink" width="16px" height="16px" viewBox="0 0 16 16" version="1.1">
<g id="surface1">
<path style=" stroke:none;fill-rule:evenodd;fill:#ff6666;fill-opacity:1;" d="M 0.703125 2.894531 C 0.742188 2.847656 0.792969 2.824219 0.855469 2.824219 L 2.378906 2.824219 C 2.445312 2.824219 2.496094 2.84375 2.53125 2.890625 C 2.570312 2.933594 2.589844 2.996094 2.589844 3.074219 L 2.589844 3.464844 L 1.96875 3.464844 L 1.96875 3.3125 L 1.265625 3.3125 L 1.265625 3.390625 L 2.46875 3.808594 C 2.515625 3.820312 2.546875 3.847656 2.5625 3.878906 C 2.578125 3.914062 2.589844 3.953125 2.589844 4.003906 L 2.589844 4.507812 C 2.589844 4.585938 2.570312 4.648438 2.53125 4.695312 C 2.492188 4.742188 2.441406 4.765625 2.378906 4.765625 L 0.855469 4.765625 C 0.792969 4.765625 0.742188 4.742188 0.703125 4.695312 C 0.664062 4.648438 0.648438 4.585938 0.648438 4.507812 L 0.648438 4.078125 L 1.265625 4.078125 L 1.265625 4.277344 L 1.96875 4.277344 L 1.96875 4.195312 L 0.761719 3.773438 C 0.71875 3.757812 0.6875 3.734375 0.671875 3.707031 C 0.65625 3.671875 0.648438 3.632812 0.648438 3.582031 L 0.648438 3.082031 C 0.648438 3.003906 0.664062 2.941406 0.703125 2.894531 Z M 3.234375 4.765625 L 3.234375 2.824219 L 4.972656 2.824219 C 5.039062 2.824219 5.085938 2.847656 5.121094 2.894531 C 5.15625 2.941406 5.175781 3.003906 5.175781 3.082031 L 5.175781 4.015625 C 5.175781 4.09375 5.15625 4.15625 5.121094 4.203125 C 5.082031 4.25 5.03125 4.273438 4.96875 4.273438 L 3.855469 4.273438 L 3.855469 4.765625 Z M 5.824219 4.765625 L 5.824219 2.824219 L 7.746094 2.824219 L 7.746094 3.375 L 6.457031 3.375 L 6.457031 3.53125 L 7.441406 3.53125 L 7.441406 4.039062 L 6.457031 4.039062 L 6.457031 4.214844 L 7.765625 4.214844 L 7.765625 4.765625 Z M 8.460938 2.894531 C 8.496094 2.847656 8.546875 2.824219 8.609375 2.824219 L 10.152344 2.824219 C 10.214844 2.824219 10.261719 2.847656 10.296875 2.894531 C 10.335938 2.941406 10.351562 3.003906 10.351562 3.082031 L 10.351562 3.640625 L 9.761719 3.640625 L 9.761719 3.347656 L 9.003906 3.347656 L 9.003906 4.238281 L 9.761719 4.238281 L 9.761719 3.945312 L 10.351562 3.945312 L 10.351562 4.507812 C 10.351562 4.585938 10.332031 4.648438 10.296875 4.695312 C 10.261719 4.742188 10.214844 4.765625 10.152344 4.765625 L 8.609375 4.765625 C 8.546875 4.765625 8.496094 4.742188 8.460938 4.695312 C 8.429688 4.648438 8.410156 4.585938 8.410156 4.507812 L 8.410156 3.082031 C 8.410156 3.003906 8.429688 2.941406 8.460938 2.894531 Z M 4.558594 3.347656 L 3.855469 3.347656 L 3.855469 3.765625 L 4.558594 3.765625 Z M 8.460938 5.484375 C 8.496094 5.433594 8.546875 5.410156 8.609375 5.410156 L 10.15625 5.410156 C 10.21875 5.410156 10.265625 5.433594 10.300781 5.484375 C 10.335938 5.527344 10.351562 5.589844 10.351562 5.667969 L 10.351562 7.097656 C 10.351562 7.175781 10.335938 7.238281 10.300781 7.285156 C 10.265625 7.332031 10.21875 7.351562 10.15625 7.351562 L 8.609375 7.351562 C 8.546875 7.351562 8.496094 7.332031 8.460938 7.285156 C 8.429688 7.238281 8.410156 7.175781 8.410156 7.097656 L 8.410156 5.667969 C 8.410156 5.589844 8.429688 5.527344 8.460938 5.484375 Z M 11 7.351562 L 11 5.410156 L 12.734375 5.410156 C 12.800781 5.410156 12.851562 5.433594 12.886719 5.484375 C 12.921875 5.527344 12.941406 5.589844 12.941406 5.667969 L 12.941406 6.605469 C 12.941406 6.683594 12.921875 6.746094 12.882812 6.792969 C 12.847656 6.839844 12.796875 6.863281 12.734375 6.863281 L 11.617188 6.863281 L 11.617188 7.351562 Z M 13.644531 5.484375 C 13.683594 5.433594 13.734375 5.410156 13.796875 5.410156 L 15.320312 5.410156 C 15.386719 5.410156 15.4375 5.433594 15.472656 5.480469 C 15.511719 5.523438 15.527344 5.585938 15.527344 5.660156 L 15.527344 6.050781 L 14.910156 6.050781 L 14.910156 5.898438 L 14.207031 5.898438 L 14.207031 5.980469 L 15.410156 6.394531 C 15.457031 6.410156 15.488281 6.433594 15.503906 6.46875 C 15.519531 6.5 15.527344 6.542969 15.527344 6.59375 L 15.527344 7.097656 C 15.527344 7.175781 15.511719 7.238281 15.472656 7.285156 C 15.433594 7.332031 15.382812 7.351562 15.316406 7.351562 L 13.796875 7.351562 C 13.734375 7.351562 13.683594 7.332031 13.644531 7.285156 C 13.605469 7.238281 13.589844 7.175781 13.589844 7.097656 L 13.589844 6.667969 L 14.207031 6.667969 L 14.207031 6.863281 L 14.910156 6.863281 L 14.910156 6.785156 L 13.707031 6.363281 C 13.660156 6.347656 13.628906 6.324219 13.613281 6.292969 C 13.597656 6.261719 13.589844 6.222656 13.589844 6.171875 L 13.589844 5.667969 C 13.589844 5.589844 13.605469 5.527344 13.644531 5.484375 Z M 9.761719 5.9375 L 9.003906 5.9375 L 9.003906 6.828125 L 9.761719 6.828125 Z M 12.320312 5.9375 L 11.617188 5.9375 L 11.617188 6.355469 L 12.320312 6.355469 Z M 0.00390625 9.59375 L 0.0117188 9.292969 L 1.984375 9.292969 L 1.992188 9.554688 C 2 9.710938 1.988281 9.835938 1.964844 9.863281 C 1.9375 9.894531 1.828125 9.914062 1.667969 9.921875 L 1.410156 9.933594 L 1.421875 10.929688 C 1.425781 11.300781 1.4375 11.9375 1.445312 12.34375 C 1.457031 12.84375 1.449219 13.101562 1.421875 13.132812 C 1.394531 13.164062 1.28125 13.179688 1.039062 13.175781 C 0.847656 13.171875 0.664062 13.164062 0.632812 13.15625 C 0.597656 13.148438 0.5625 13.109375 0.550781 13.074219 C 0.539062 13.042969 0.539062 12.398438 0.546875 11.644531 L 0.5625 9.949219 L 0.324219 9.949219 C 0.191406 9.949219 0.0625 9.9375 0.0390625 9.921875 C 0.00390625 9.898438 -0.00390625 9.808594 0.00390625 9.59375 Z M 2.3125 9.46875 L 2.335938 9.292969 L 3.089844 9.292969 L 3.105469 9.898438 L 3.125 10.824219 L 3.433594 10.835938 L 3.742188 10.84375 L 3.769531 10.625 C 3.785156 10.503906 3.789062 9.90625 3.78125 9.6875 L 3.769531 9.292969 L 4.558594 9.300781 L 4.558594 10.992188 C 4.558594 11.746094 4.546875 12.375 4.53125 12.390625 C 4.515625 12.40625 4.484375 12.398438 4.460938 12.375 C 4.394531 12.3125 4.296875 12.324219 4.253906 12.402344 C 4.195312 12.507812 4.144531 12.492188 4.144531 12.367188 C 4.144531 12.285156 4.128906 12.261719 4.070312 12.261719 C 4.011719 12.261719 4 12.28125 4.007812 12.371094 C 4.019531 12.476562 4.035156 12.488281 4.269531 12.558594 L 4.519531 12.636719 L 4.519531 12.902344 L 4.523438 13.167969 L 3.660156 13.167969 L 3.65625 12.792969 C 3.652344 12.589844 3.660156 12.308594 3.679688 12.175781 C 3.710938 11.949219 3.703125 11.859375 3.625 11.492188 C 3.609375 11.425781 3.589844 11.417969 3.457031 11.4375 C 3.339844 11.449219 3.269531 11.457031 3.230469 11.496094 C 3.171875 11.550781 3.175781 11.675781 3.183594 11.988281 L 3.195312 12.453125 L 3.105469 12.472656 L 3.015625 12.496094 L 3.097656 12.5625 C 3.164062 12.621094 3.175781 12.667969 3.175781 12.851562 C 3.175781 12.984375 3.160156 13.082031 3.132812 13.105469 C 3.078125 13.148438 2.878906 13.195312 2.851562 13.167969 C 2.839844 13.160156 2.707031 13.148438 2.550781 13.140625 L 2.265625 13.132812 L 2.273438 11.550781 C 2.28125 10.679688 2.296875 9.566406 2.3125 9.46875 Z M 10.242188 9.53125 C 10.242188 9.453125 10.679688 9.300781 10.875 9.292969 C 10.902344 9.292969 10.925781 9.296875 10.941406 9.300781 C 10.988281 9.320312 10.996094 9.425781 10.984375 10.117188 L 10.984375 10.128906 C 10.976562 10.8125 10.972656 11.21875 10.921875 11.222656 L 10.339844 11.234375 C 10.324219 11.234375 10.316406 11.230469 10.308594 11.226562 C 10.300781 11.226562 10.292969 11.222656 10.269531 11.21875 L 10.0625 11.175781 L 10.070312 10.523438 L 10.082031 9.550781 L 10.160156 9.558594 C 10.207031 9.5625 10.242188 9.550781 10.242188 9.53125 Z M 11.925781 9.296875 C 11.964844 9.296875 11.992188 9.292969 12.011719 9.292969 C 12.09375 9.292969 12.125 9.328125 12.246094 9.578125 C 12.324219 9.734375 12.421875 9.980469 12.457031 10.121094 C 12.488281 10.226562 12.515625 10.355469 12.542969 10.476562 C 12.59375 10.707031 12.640625 10.914062 12.671875 10.894531 C 12.691406 10.878906 12.707031 10.292969 12.707031 9.949219 C 12.707031 9.566406 12.695312 9.414062 12.765625 9.351562 C 12.820312 9.300781 12.929688 9.3125 13.136719 9.3125 L 13.410156 9.308594 L 13.433594 10.046875 C 13.449219 10.566406 13.445312 11.121094 13.417969 11.15625 C 13.414062 11.15625 13.414062 11.15625 13.410156 11.160156 C 13.40625 11.160156 13.40625 11.160156 13.40625 11.160156 L 11.445312 11.207031 C 11.4375 11.203125 11.429688 11.203125 11.425781 11.199219 C 11.414062 11.199219 11.40625 11.195312 11.398438 11.191406 C 11.339844 11.148438 11.335938 11.113281 11.359375 10.945312 C 11.398438 10.675781 11.398438 10.265625 11.347656 9.816406 C 11.324219 9.605469 11.316406 9.402344 11.328125 9.371094 C 11.347656 9.324219 11.410156 9.308594 11.632812 9.304688 C 11.738281 9.300781 11.847656 9.296875 11.925781 9.296875 Z M 4.871094 9.324219 C 4.894531 9.300781 5.359375 9.292969 5.828125 9.296875 L 5.828125 9.292969 C 6.296875 9.296875 6.773438 9.3125 6.816406 9.335938 C 6.871094 9.363281 6.882812 9.414062 6.882812 9.617188 C 6.882812 9.753906 6.878906 9.871094 6.875 9.871094 C 6.871094 9.875 6.609375 9.886719 6.292969 9.898438 L 5.71875 9.917969 L 5.707031 10.515625 C 5.699219 10.707031 5.710938 10.796875 5.746094 10.824219 C 5.773438 10.847656 5.960938 10.871094 6.167969 10.875 L 6.542969 10.886719 L 6.554688 11.195312 C 6.5625 11.503906 6.5625 11.507812 6.472656 11.53125 C 6.421875 11.542969 6.316406 11.542969 6.238281 11.53125 C 6.160156 11.519531 6.007812 11.519531 5.898438 11.53125 L 5.703125 11.554688 L 5.703125 12.011719 C 5.703125 12.304688 5.6875 12.476562 5.660156 12.492188 C 5.5625 12.550781 5.753906 12.578125 6.300781 12.578125 L 6.882812 12.578125 L 6.882812 12.859375 C 6.882812 13.082031 6.871094 13.144531 6.828125 13.160156 C 6.769531 13.183594 5.699219 13.179688 5.207031 13.15625 C 5.066406 13.148438 4.949219 13.128906 4.949219 13.109375 C 4.949219 13.089844 4.972656 13.027344 5.003906 12.96875 C 5.042969 12.886719 5.046875 12.847656 5.015625 12.777344 C 4.941406 12.617188 4.992188 12.578125 5.269531 12.578125 C 5.527344 12.578125 5.632812 12.527344 5.460938 12.484375 C 5.292969 12.445312 5.265625 12.402344 5.289062 12.238281 C 5.308594 12.105469 5.304688 12.078125 5.230469 12.03125 C 5.183594 11.996094 5.113281 11.972656 5.074219 11.972656 C 4.941406 11.972656 4.914062 11.902344 4.914062 11.570312 C 4.914062 11.394531 4.894531 10.574219 4.875 10.144531 C 4.847656 9.625 4.847656 9.347656 4.871094 9.324219 Z M 14 9.316406 C 14.015625 9.300781 14.140625 9.296875 14.3125 9.296875 C 14.839844 9.289062 15.835938 9.324219 15.878906 9.363281 C 15.914062 9.390625 15.929688 9.488281 15.929688 9.652344 L 15.929688 9.902344 L 15.300781 9.902344 C 14.730469 9.84375 14.597656 9.921875 14.710938 9.992188 C 14.730469 10.003906 14.746094 10.4375 14.746094 10.5625 C 14.746094 10.683594 14.757812 10.804688 14.773438 10.828125 C 14.789062 10.851562 14.953125 10.878906 15.171875 10.886719 C 15.375 10.898438 15.558594 10.921875 15.578125 10.941406 C 15.597656 10.960938 15.605469 11.011719 15.601562 11.058594 C 15.597656 11.082031 15.59375 11.097656 15.582031 11.109375 L 13.910156 11.148438 L 13.933594 10.089844 C 13.949219 9.535156 13.964844 9.339844 14 9.316406 Z M 8.089844 9.898438 C 8.085938 9.402344 8.085938 9.308594 8.269531 9.296875 C 8.3125 9.292969 8.367188 9.292969 8.433594 9.296875 C 8.476562 9.296875 8.523438 9.300781 8.574219 9.300781 L 8.933594 9.300781 L 8.9375 10.472656 C 8.941406 10.878906 8.957031 11.1875 8.96875 11.273438 L 8.699219 11.28125 C 8.671875 11.273438 8.632812 11.273438 8.558594 11.285156 C 8.460938 11.296875 8.316406 11.296875 8.238281 11.285156 L 8.089844 11.261719 L 8.089844 10.132812 C 8.089844 10.042969 8.089844 9.96875 8.089844 9.898438 Z M 14.03125 11.292969 L 15.679688 11.289062 L 15.679688 11.363281 C 15.679688 11.476562 15.667969 11.484375 15.542969 11.503906 C 15.46875 11.515625 15.257812 11.53125 15.078125 11.535156 L 14.746094 11.546875 L 14.746094 11.949219 C 14.746094 12.230469 14.746094 12.371094 14.816406 12.445312 C 14.886719 12.515625 15.035156 12.519531 15.328125 12.523438 C 15.660156 12.53125 15.804688 12.546875 15.886719 12.589844 C 15.996094 12.648438 16 12.660156 16 12.882812 C 16 13.011719 15.988281 13.121094 15.972656 13.132812 C 15.921875 13.164062 14.046875 13.195312 14.003906 13.164062 C 13.96875 13.140625 13.964844 13.070312 14 12.832031 C 14.035156 12.570312 14.035156 12.511719 13.980469 12.363281 C 13.929688 12.214844 13.925781 12.132812 13.953125 11.769531 C 13.972656 11.535156 14.003906 11.324219 14.03125 11.292969 Z M 11.601562 11.300781 L 13.414062 11.296875 C 13.476562 11.304688 13.515625 11.3125 13.527344 11.328125 C 13.558594 11.367188 13.566406 11.621094 13.558594 12.226562 C 13.550781 12.863281 13.550781 13.074219 13.453125 13.140625 C 13.402344 13.179688 13.316406 13.175781 13.183594 13.175781 C 12.996094 13.175781 12.945312 13.160156 12.882812 13.09375 C 12.757812 12.960938 12.671875 12.800781 12.671875 12.703125 C 12.667969 12.589844 12.273438 11.421875 12.238281 11.421875 C 12.191406 11.421875 12.15625 12.109375 12.175781 12.636719 C 12.195312 13.054688 12.1875 13.136719 12.144531 13.15625 C 12.074219 13.183594 11.628906 13.175781 11.558594 13.148438 C 11.460938 13.109375 11.449219 13.050781 11.445312 12.464844 C 11.445312 12.140625 11.441406 11.757812 11.4375 11.605469 C 11.433594 11.332031 11.433594 11.332031 11.53125 11.320312 C 11.5625 11.316406 11.585938 11.308594 11.601562 11.300781 Z M 10.699219 11.304688 C 10.742188 11.3125 10.792969 11.3125 10.855469 11.304688 L 11.015625 11.304688 C 11.035156 11.316406 11.050781 11.335938 11.0625 11.371094 C 11.113281 11.5 11.121094 12.972656 11.078125 13.085938 C 11.039062 13.171875 11.035156 13.175781 10.585938 13.175781 C 10.335938 13.175781 10.125 13.171875 10.113281 13.160156 C 10.074219 13.117188 10.101562 12.5 10.152344 12.378906 C 10.183594 12.308594 10.207031 12.195312 10.207031 12.128906 C 10.207031 12.03125 10.21875 12.011719 10.269531 12.03125 C 10.304688 12.042969 10.359375 12.085938 10.398438 12.125 C 10.53125 12.265625 10.621094 12.050781 10.511719 11.839844 C 10.46875 11.757812 10.429688 11.734375 10.304688 11.71875 L 10.152344 11.703125 L 10.152344 11.34375 L 10.367188 11.324219 C 10.425781 11.320312 10.46875 11.3125 10.496094 11.308594 Z M 8.707031 11.3125 L 8.972656 11.3125 C 8.972656 11.3125 8.972656 11.320312 8.972656 11.324219 C 8.972656 11.332031 8.972656 11.335938 8.976562 11.335938 C 8.992188 11.347656 9.007812 11.546875 9.011719 11.773438 C 9.019531 12.003906 9.023438 12.230469 9.03125 12.28125 C 9.039062 12.351562 9.015625 12.375 8.914062 12.410156 C 8.792969 12.453125 8.792969 12.453125 8.878906 12.472656 C 9.019531 12.503906 9.417969 12.542969 9.613281 12.546875 L 9.792969 12.550781 L 9.8125 12.820312 C 9.824219 12.96875 9.828125 13.113281 9.816406 13.136719 C 9.808594 13.164062 9.753906 13.179688 9.6875 13.175781 C 9.628906 13.171875 9.261719 13.160156 8.878906 13.148438 L 8.179688 13.128906 L 8.171875 12.285156 C 8.164062 11.691406 8.171875 11.425781 8.203125 11.390625 C 8.230469 11.359375 8.324219 11.339844 8.488281 11.339844 C 8.613281 11.339844 8.679688 11.332031 8.707031 11.3125 Z M 8.707031 11.3125 "/>
</g>
</svg>
