
<svg xmlns="http://www.w3.org/2000/svg" xmlns:xlink="http://www.w3.org/1999/xlink" width="16px" height="16px" viewBox="0 0 16 16" version="1.1">
<g id="surface1">
<path style=" stroke:none;fill-rule:evenodd;fill:#ff6666;fill-opacity:1;" d="M 6.226562 6.722656 L 0 6.722656 L 0.00390625 7.679688 L 6.667969 7.679688 C 6.824219 7.183594 6.550781 6.683594 6.226562 6.722656 Z M 11.75 7.679688 L 12.476562 7.679688 C 12.558594 7.679688 12.644531 7.679688 12.726562 7.679688 C 13.929688 7.683594 14.753906 7.003906 15.023438 6.089844 C 15.546875 4.308594 12.734375 4.785156 13.050781 3.742188 C 13.140625 3.410156 13.476562 3.183594 13.820312 3.175781 C 14.132812 3.171875 14.378906 3.238281 14.476562 3.316406 C 14.988281 3.71875 15.613281 3.535156 15.964844 3.074219 C 16.152344 2.835938 15.605469 2.234375 14.355469 2.246094 C 14.167969 2.246094 13.984375 2.246094 13.796875 2.246094 C 12.59375 2.246094 11.824219 2.867188 11.554688 3.78125 C 11.042969 5.496094 13.738281 5.089844 13.421875 6.152344 C 13.300781 6.5625 12.960938 6.738281 12.464844 6.75 L 11.832031 6.75 Z M 0 4.484375 L 0 6.082031 L 6.808594 6.082031 C 8.148438 6.179688 8.714844 7.007812 8.316406 8.324219 L 7.722656 10.054688 C 7.320312 11.371094 6.316406 12.15625 4.773438 12.15625 L 4.59375 12.15625 L 5.8125 8.320312 L 2.792969 8.320312 L 1.304688 13.070312 C 1.210938 13.414062 1.496094 13.753906 2.121094 13.753906 L 5.347656 13.753906 C 8.433594 13.753906 10.160156 12.109375 10.804688 10.027344 L 11.296875 8.410156 C 11.964844 6.242188 11.105469 4.492188 8.019531 4.492188 L 6.984375 4.492188 C 4.65625 4.488281 2.339844 4.484375 0 4.484375 Z M 0 4.484375 "/>
</g>
</svg>
