
<svg xmlns="http://www.w3.org/2000/svg" xmlns:xlink="http://www.w3.org/1999/xlink" width="16px" height="16px" viewBox="0 0 16 16" version="1.1">
<g id="surface1">
<path style=" stroke:none;fill-rule:evenodd;fill:#ff6666;fill-opacity:1;" d="M 0 0 L 0 1.777344 L 1.777344 1.777344 L 1.777344 0 Z M 1.777344 1.777344 L 1.777344 3.554688 L 3.554688 3.554688 L 3.554688 1.777344 Z M 12.445312 3.554688 L 14.222656 3.554688 L 14.222656 1.777344 L 12.445312 1.777344 Z M 14.222656 1.777344 L 16 1.777344 L 16 0 L 14.222656 0 Z M 0 11.554688 L 0 16 L 16 16 L 16 11.554688 Z M 3.554688 7.109375 L 5.332031 7.109375 L 5.332031 8.890625 L 3.554688 8.890625 Z M 3.554688 3.554688 L 3.554688 5.332031 L 1.777344 5.332031 L 1.777344 7.109375 L 0 7.109375 L 0 9.777344 L 16 9.777344 L 16 7.109375 L 14.222656 7.109375 L 14.222656 5.332031 L 12.445312 5.332031 L 12.445312 3.554688 Z M 10.667969 7.109375 L 12.445312 7.109375 L 12.445312 8.890625 L 10.667969 8.890625 Z M 10.667969 7.109375 "/>
</g>
</svg>
