
<svg xmlns="http://www.w3.org/2000/svg" xmlns:xlink="http://www.w3.org/1999/xlink" width="16px" height="16px" viewBox="0 0 16 16" version="1.1">
<g id="surface1">
<path style=" stroke:none;fill-rule:evenodd;fill:#ff6666;fill-opacity:1;" d="M 11.582031 5.386719 L 13.144531 6.882812 C 13.277344 7.011719 13.480469 7 13.601562 6.863281 L 15.824219 4.296875 C 15.953125 4.140625 16.015625 3.941406 15.996094 3.742188 C 15.976562 3.539062 15.882812 3.351562 15.726562 3.222656 C 15.570312 3.09375 15.371094 3.03125 15.171875 3.050781 C 14.96875 3.070312 14.78125 3.164062 14.652344 3.320312 L 13.285156 4.96875 L 11.363281 3.046875 L 7.300781 2.945312 C 7.117188 2.941406 6.871094 3.050781 6.757812 3.191406 L 4.757812 5.597656 C 4.625 5.75 4.558594 5.945312 4.574219 6.148438 C 4.585938 6.351562 4.683594 6.539062 4.835938 6.671875 C 4.988281 6.804688 5.183594 6.867188 5.386719 6.855469 C 5.589844 6.84375 5.773438 6.746094 5.910156 6.59375 L 7.660156 4.570312 L 8.492188 4.570312 L 5.949219 7.722656 L 4.671875 9.144531 L 1.144531 9.144531 C 0.839844 9.144531 0.550781 9.265625 0.335938 9.480469 C 0.121094 9.691406 0 9.980469 0 10.285156 C 0 10.585938 0.121094 10.882812 0.335938 11.09375 C 0.550781 11.308594 0.839844 11.429688 1.144531 11.429688 L 5.25 11.429688 C 5.492188 11.429688 5.824219 11.28125 5.984375 11.101562 L 7.386719 9.539062 L 8.996094 10.742188 L 8.035156 14.578125 C 7.960938 14.871094 8.007812 15.1875 8.164062 15.445312 C 8.320312 15.703125 8.570312 15.894531 8.863281 15.964844 C 9.15625 16.039062 9.472656 15.992188 9.730469 15.835938 C 9.992188 15.679688 10.179688 15.429688 10.253906 15.136719 L 11.445312 10.359375 C 11.519531 10.066406 11.378906 9.675781 11.136719 9.492188 L 9.351562 8.152344 Z M 12.21875 0 C 11.835938 -0.00390625 11.445312 0.136719 11.15625 0.402344 C 10.640625 0.871094 10.515625 1.667969 10.859375 2.285156 C 11.054688 2.632812 11.546875 2.96875 11.949219 3.03125 C 12.871094 3.171875 13.714844 2.449219 13.714844 1.523438 C 13.714844 0.945312 13.335938 0.355469 12.808594 0.125 C 12.625 0.0429688 12.421875 0.00390625 12.21875 0 Z M 12.21875 0 "/>
</g>
</svg>
