
<svg xmlns="http://www.w3.org/2000/svg" xmlns:xlink="http://www.w3.org/1999/xlink" width="16px" height="16px" viewBox="0 0 16 16" version="1.1">
<g id="surface1">
<path style=" stroke:none;fill-rule:nonzero;fill:#ff6666;fill-opacity:1;" d="M 7.828125 11.707031 C 7.46875 11.640625 7.1875 11.453125 7.058594 11.195312 C 7.015625 11.105469 7.007812 11.066406 7.007812 10.929688 C 7.007812 10.792969 7.015625 10.75 7.058594 10.664062 C 7.15625 10.453125 7.339844 10.300781 7.613281 10.203125 C 7.8125 10.128906 8.15625 10.109375 8.367188 10.160156 C 8.679688 10.234375 8.941406 10.421875 9.054688 10.65625 C 9.105469 10.753906 9.109375 10.789062 9.109375 10.929688 C 9.109375 11.066406 9.101562 11.105469 9.058594 11.195312 C 8.953125 11.402344 8.730469 11.578125 8.46875 11.660156 C 8.300781 11.714844 7.988281 11.738281 7.828125 11.707031 Z M 9.511719 9.367188 C 9.289062 9.273438 9.148438 9.140625 9.039062 8.910156 C 8.8125 8.449219 8.894531 7.871094 9.230469 7.535156 C 9.480469 7.289062 9.769531 7.230469 10.066406 7.367188 C 10.332031 7.492188 10.535156 7.789062 10.59375 8.148438 C 10.679688 8.648438 10.457031 9.152344 10.070312 9.34375 C 9.964844 9.394531 9.921875 9.40625 9.785156 9.410156 C 9.648438 9.414062 9.605469 9.40625 9.511719 9.367188 Z M 10.164062 8.738281 C 10.386719 8.625 10.449219 8.148438 10.273438 7.867188 C 10.226562 7.789062 10.148438 7.746094 10.058594 7.746094 C 9.910156 7.746094 9.78125 7.972656 9.78125 8.246094 C 9.78125 8.484375 9.851562 8.652344 9.980469 8.734375 C 10.050781 8.777344 10.089844 8.777344 10.164062 8.738281 Z M 6.085938 9.238281 C 5.820312 9.160156 5.585938 8.910156 5.480469 8.597656 C 5.441406 8.476562 5.433594 8.421875 5.433594 8.199219 C 5.433594 7.890625 5.476562 7.738281 5.621094 7.523438 C 5.777344 7.289062 5.980469 7.160156 6.222656 7.144531 C 6.609375 7.117188 6.960938 7.414062 7.085938 7.882812 C 7.128906 8.042969 7.128906 8.359375 7.085938 8.519531 C 6.96875 8.949219 6.660156 9.238281 6.3125 9.253906 C 6.234375 9.257812 6.132812 9.25 6.085938 9.238281 Z M 6.714844 8.558594 C 6.808594 8.492188 6.871094 8.332031 6.878906 8.144531 C 6.894531 7.875 6.816406 7.679688 6.671875 7.605469 C 6.609375 7.578125 6.589844 7.574219 6.535156 7.59375 C 6.265625 7.683594 6.199219 8.28125 6.429688 8.523438 C 6.488281 8.585938 6.511719 8.597656 6.578125 8.597656 C 6.628906 8.597656 6.679688 8.582031 6.714844 8.558594 Z M 6.714844 8.558594 "/>
<path style=" stroke:none;fill-rule:nonzero;fill:#ff6666;fill-opacity:1;" d="M 11.902344 3.003906 C 11.449219 3.40625 10.996094 4.03125 10.523438 4.820312 C 10.414062 5 10.285156 5.230469 10.183594 5.414062 C 10.128906 5.507812 10.089844 5.589844 10.054688 5.652344 C 10.039062 5.683594 10.027344 5.710938 10.015625 5.734375 C 10.011719 5.746094 10.007812 5.753906 10 5.773438 C 9.996094 5.78125 9.992188 5.789062 9.988281 5.8125 C 9.988281 5.824219 9.984375 5.871094 9.984375 5.871094 C 9.984375 5.871094 9.996094 5.933594 9.996094 5.933594 C 9.996094 5.933594 10.0625 6.03125 10.0625 6.03125 L 10.070312 6.042969 L 10.082031 6.046875 C 10.128906 6.082031 10.113281 6.066406 10.125 6.074219 C 10.136719 6.082031 10.148438 6.089844 10.164062 6.097656 C 10.175781 6.105469 10.21875 6.144531 10.328125 6.136719 C 10.441406 6.128906 10.507812 6.054688 10.535156 6.015625 C 10.597656 5.933594 10.636719 5.851562 10.734375 5.667969 C 11.40625 4.417969 12.210938 3.429688 12.710938 3.132812 C 12.960938 2.984375 13.089844 2.988281 13.175781 3.039062 C 13.265625 3.089844 13.375 3.257812 13.433594 3.605469 C 13.574219 4.445312 13.371094 6 12.824219 7.945312 C 12.792969 8.050781 12.769531 8.144531 12.753906 8.21875 C 12.742188 8.257812 12.738281 8.289062 12.730469 8.316406 C 12.730469 8.332031 12.726562 8.34375 12.722656 8.363281 C 12.722656 8.371094 12.722656 8.382812 12.722656 8.402344 C 12.726562 8.414062 12.730469 8.449219 12.730469 8.449219 C 12.730469 8.449219 12.75 8.492188 12.75 8.492188 C 12.75 8.492188 12.792969 8.558594 12.792969 8.558594 L 12.796875 8.5625 L 12.804688 8.566406 C 12.847656 8.609375 12.867188 8.609375 12.886719 8.621094 C 12.910156 8.628906 12.929688 8.636719 12.953125 8.644531 L 12.964844 8.644531 C 12.972656 8.648438 12.984375 8.652344 12.992188 8.652344 L 13.003906 8.65625 L 13.019531 8.65625 C 13.019531 8.65625 13.109375 8.65625 13.109375 8.65625 C 13.109375 8.65625 13.171875 8.636719 13.171875 8.636719 C 13.171875 8.636719 13.234375 8.59375 13.234375 8.589844 C 13.234375 8.589844 13.25 8.570312 13.257812 8.5625 C 13.261719 8.554688 13.265625 8.546875 13.269531 8.542969 C 13.28125 8.523438 13.285156 8.515625 13.289062 8.507812 C 13.296875 8.488281 13.300781 8.472656 13.308594 8.457031 C 13.320312 8.421875 13.332031 8.378906 13.347656 8.324219 C 13.378906 8.214844 13.421875 8.066406 13.464844 7.902344 C 13.550781 7.570312 13.652344 7.167969 13.71875 6.878906 C 13.984375 5.71875 14.121094 4.8125 14.082031 4.035156 C 14.058594 3.523438 13.914062 2.703125 13.476562 2.511719 C 12.808594 2.214844 12.332031 2.738281 11.902344 3.003906 Z M 2.667969 2.472656 C 2.453125 2.523438 2.269531 2.664062 2.144531 2.859375 C 2.015625 3.054688 1.933594 3.300781 1.886719 3.59375 C 1.808594 4.046875 1.824219 4.695312 1.914062 5.394531 C 2.019531 6.234375 2.320312 7.671875 2.574219 8.394531 C 2.574219 8.394531 2.574219 8.398438 2.574219 8.398438 C 2.609375 8.503906 2.652344 8.601562 2.773438 8.664062 C 2.867188 8.710938 2.980469 8.6875 2.980469 8.6875 L 2.984375 8.6875 C 3.015625 8.675781 3.042969 8.660156 3.074219 8.640625 C 3.089844 8.632812 3.105469 8.621094 3.128906 8.59375 C 3.140625 8.582031 3.15625 8.570312 3.167969 8.542969 C 3.175781 8.53125 3.1875 8.496094 3.1875 8.496094 C 3.1875 8.496094 3.199219 8.425781 3.199219 8.425781 C 3.199219 8.425781 3.195312 8.394531 3.195312 8.386719 C 3.191406 8.382812 3.191406 8.378906 3.191406 8.375 C 3.191406 8.367188 3.191406 8.363281 3.1875 8.359375 C 3.1875 8.351562 3.1875 8.34375 3.183594 8.332031 C 3.175781 8.308594 3.167969 8.28125 3.160156 8.242188 C 3.140625 8.171875 3.113281 8.078125 3.085938 7.976562 C 2.785156 6.925781 2.566406 5.84375 2.472656 5 C 2.460938 4.875 2.449219 4.589844 2.449219 4.324219 C 2.449219 4.0625 2.464844 3.785156 2.46875 3.75 L 2.472656 3.75 C 2.523438 3.449219 2.597656 3.253906 2.667969 3.160156 C 2.738281 3.066406 2.777344 3.050781 2.890625 3.058594 C 3.042969 3.070312 3.285156 3.195312 3.625 3.527344 C 4.109375 3.996094 4.632812 4.730469 5.1875 5.738281 C 5.230469 5.816406 5.273438 5.894531 5.304688 5.953125 C 5.335938 6.011719 5.351562 6.03125 5.367188 6.0625 L 5.367188 6.066406 L 5.371094 6.066406 C 5.382812 6.085938 5.402344 6.117188 5.441406 6.144531 C 5.484375 6.175781 5.542969 6.195312 5.589844 6.195312 C 5.675781 6.195312 5.703125 6.175781 5.734375 6.160156 C 5.765625 6.144531 5.792969 6.132812 5.820312 6.109375 C 5.832031 6.097656 5.847656 6.085938 5.867188 6.0625 C 5.878906 6.050781 5.886719 6.039062 5.898438 6.015625 C 5.90625 6.003906 5.914062 5.972656 5.914062 5.972656 C 5.917969 5.972656 5.925781 5.90625 5.925781 5.90625 C 5.925781 5.90625 5.921875 5.863281 5.917969 5.851562 C 5.917969 5.839844 5.914062 5.832031 5.914062 5.828125 C 5.910156 5.816406 5.90625 5.808594 5.90625 5.804688 C 5.898438 5.789062 5.894531 5.78125 5.886719 5.769531 C 5.878906 5.746094 5.863281 5.71875 5.847656 5.6875 C 5.8125 5.621094 5.769531 5.539062 5.71875 5.449219 C 5.617188 5.261719 5.492188 5.042969 5.394531 4.886719 C 4.917969 4.09375 4.46875 3.492188 4.015625 3.058594 C 3.546875 2.609375 3.097656 2.375 2.667969 2.472656 Z M 4.308594 9.84375 C 3.15625 9.796875 2.066406 9.941406 0.726562 10.316406 C 0.589844 10.351562 0.453125 10.394531 0.351562 10.425781 C 0.296875 10.441406 0.25 10.457031 0.214844 10.464844 C 0.199219 10.472656 0.1875 10.476562 0.171875 10.484375 C 0.164062 10.484375 0.160156 10.488281 0.148438 10.492188 C 0.144531 10.492188 0.140625 10.496094 0.132812 10.5 C 0.125 10.503906 0.113281 10.511719 0.101562 10.519531 C 0.09375 10.523438 0.0351562 10.589844 0.0351562 10.589844 C 0.0351562 10.589844 0.0117188 10.644531 0.0117188 10.644531 C 0.0117188 10.644531 0 10.691406 0 10.703125 C 0 10.730469 0 10.738281 0.00390625 10.75 C 0.00390625 10.769531 0.0078125 10.78125 0.0117188 10.789062 C 0.015625 10.8125 0.0234375 10.832031 0.03125 10.851562 L 0.03125 10.855469 C 0.0429688 10.890625 0.0507812 10.933594 0.113281 10.992188 C 0.179688 11.054688 0.328125 11.070312 0.386719 11.046875 L 0.390625 11.046875 C 0.390625 11.046875 0.613281 10.976562 0.824219 10.914062 C 1.035156 10.855469 1.269531 10.792969 1.394531 10.761719 C 2.332031 10.535156 3.058594 10.441406 3.910156 10.441406 C 4.652344 10.441406 5.242188 10.507812 5.972656 10.675781 C 6.054688 10.695312 6.132812 10.714844 6.1875 10.726562 C 6.21875 10.730469 6.242188 10.734375 6.261719 10.738281 C 6.273438 10.738281 6.28125 10.742188 6.296875 10.742188 C 6.304688 10.746094 6.3125 10.746094 6.324219 10.746094 C 6.332031 10.746094 6.359375 10.742188 6.359375 10.742188 C 6.363281 10.742188 6.398438 10.734375 6.398438 10.734375 C 6.398438 10.734375 6.476562 10.691406 6.476562 10.691406 L 6.484375 10.683594 L 6.496094 10.675781 C 6.496094 10.675781 6.519531 10.644531 6.527344 10.632812 C 6.535156 10.625 6.539062 10.617188 6.539062 10.609375 C 6.546875 10.597656 6.550781 10.589844 6.550781 10.585938 C 6.554688 10.570312 6.558594 10.5625 6.5625 10.554688 C 6.570312 10.535156 6.574219 10.515625 6.578125 10.496094 L 6.578125 10.488281 C 6.582031 10.472656 6.589844 10.453125 6.585938 10.40625 C 6.585938 10.355469 6.550781 10.261719 6.496094 10.214844 C 6.394531 10.121094 6.359375 10.148438 6.308594 10.136719 C 6.253906 10.125 6.097656 10.089844 5.960938 10.058594 C 5.425781 9.9375 4.894531 9.867188 4.308594 9.84375 Z M 12.09375 10.003906 C 11.382812 10.003906 11.054688 10.03125 10.445312 10.136719 L 10.441406 10.136719 C 10.28125 10.164062 10.085938 10.207031 9.921875 10.242188 C 9.839844 10.261719 9.765625 10.277344 9.707031 10.292969 C 9.679688 10.300781 9.65625 10.304688 9.632812 10.3125 C 9.609375 10.320312 9.609375 10.308594 9.542969 10.347656 L 9.542969 10.351562 C 9.480469 10.386719 9.421875 10.488281 9.417969 10.554688 C 9.410156 10.625 9.425781 10.660156 9.4375 10.695312 C 9.4375 10.695312 9.507812 10.828125 9.585938 10.871094 C 9.695312 10.933594 9.875 10.871094 9.875 10.871094 C 10.125 10.8125 10.554688 10.726562 10.8125 10.691406 C 11.347656 10.613281 11.46875 10.609375 12.152344 10.609375 C 12.722656 10.609375 12.851562 10.613281 13.140625 10.648438 C 13.851562 10.734375 14.664062 10.914062 15.433594 11.152344 C 15.488281 11.167969 15.539062 11.183594 15.582031 11.195312 C 15.605469 11.199219 15.621094 11.207031 15.640625 11.210938 C 15.660156 11.214844 15.648438 11.226562 15.742188 11.214844 C 15.878906 11.199219 15.90625 11.132812 15.929688 11.097656 C 15.953125 11.066406 15.964844 11.039062 15.976562 11.007812 C 15.984375 10.980469 15.996094 10.949219 16 10.90625 C 16 10.882812 16 10.855469 15.988281 10.8125 C 15.980469 10.769531 15.949219 10.707031 15.878906 10.664062 L 15.875 10.660156 C 15.832031 10.636719 15.832031 10.640625 15.824219 10.636719 C 15.8125 10.632812 15.804688 10.632812 15.792969 10.628906 C 15.769531 10.621094 15.742188 10.609375 15.707031 10.601562 C 15.636719 10.578125 15.546875 10.554688 15.449219 10.527344 C 15.246094 10.46875 15.007812 10.402344 14.835938 10.359375 C 13.800781 10.09375 13.097656 10 12.09375 10.003906 Z M 9.839844 10.394531 L 9.839844 10.398438 C 9.820312 10.402344 9.785156 10.40625 9.765625 10.414062 Z M 4.003906 11.015625 C 2.714844 11.105469 1.707031 11.480469 0.648438 12.261719 C 0.398438 12.460938 0.386719 12.609375 0.480469 12.757812 C 0.558594 12.882812 0.746094 12.882812 0.914062 12.816406 C 1.824219 12.121094 2.65625 11.777344 3.730469 11.644531 C 4.167969 11.59375 5.222656 11.59375 6.058594 11.652344 L 6.476562 11.679688 L 6.476562 11.070312 L 6.050781 11.046875 C 5.195312 10.992188 4.496094 10.980469 4.003906 11.015625 Z M 10.222656 11.183594 C 9.96875 11.175781 9.769531 11.1875 9.511719 11.207031 C 9.511719 11.207031 9.53125 11.511719 9.527344 11.519531 L 9.527344 11.828125 L 10.019531 11.800781 C 10.152344 11.792969 10.398438 11.78125 10.566406 11.773438 C 10.964844 11.75 11.683594 11.75 11.964844 11.773438 C 12.453125 11.808594 12.878906 11.921875 13.296875 12.054688 C 13.460938 12.105469 13.632812 12.167969 13.789062 12.234375 C 14.203125 12.414062 14.605469 12.621094 15.023438 12.925781 C 15.082031 12.972656 15.101562 12.996094 15.191406 13.03125 C 15.234375 13.046875 15.320312 13.054688 15.378906 13.03125 C 15.441406 13.007812 15.464844 12.980469 15.476562 12.96875 C 15.507812 12.941406 15.527344 12.917969 15.542969 12.890625 C 15.5625 12.859375 15.589844 12.839844 15.589844 12.738281 C 15.589844 12.738281 15.585938 12.683594 15.578125 12.664062 C 15.574219 12.644531 15.566406 12.632812 15.5625 12.621094 C 15.550781 12.597656 15.539062 12.585938 15.53125 12.578125 C 15.515625 12.554688 15.5 12.539062 15.488281 12.527344 C 15.457031 12.5 15.421875 12.472656 15.382812 12.441406 C 15.304688 12.382812 15.195312 12.304688 15.058594 12.214844 C 14.726562 11.996094 14.175781 11.785156 13.839844 11.636719 C 13.289062 11.394531 13.023438 11.316406 12.292969 11.191406 C 11.894531 11.144531 10.828125 11.144531 10.222656 11.183594 Z M 4.359375 11.828125 C 4.015625 11.890625 3.679688 11.976562 3.46875 12.0625 C 2.824219 12.328125 2.707031 12.460938 2.441406 12.667969 C 2.351562 12.738281 2.230469 12.9375 2.222656 13.082031 C 2.214844 13.183594 2.28125 13.300781 2.28125 13.300781 C 2.296875 13.320312 2.3125 13.335938 2.332031 13.351562 C 2.34375 13.359375 2.355469 13.371094 2.371094 13.378906 C 2.382812 13.386719 2.390625 13.390625 2.414062 13.402344 C 2.425781 13.40625 2.457031 13.414062 2.457031 13.414062 C 2.457031 13.414062 2.523438 13.414062 2.539062 13.414062 C 2.550781 13.414062 2.566406 13.414062 2.566406 13.414062 C 2.566406 13.414062 2.597656 13.402344 2.597656 13.402344 C 2.597656 13.402344 2.617188 13.394531 2.621094 13.390625 C 2.632812 13.382812 2.640625 13.378906 2.644531 13.375 C 2.65625 13.367188 2.664062 13.363281 2.671875 13.355469 C 2.6875 13.34375 2.707031 13.332031 2.726562 13.3125 C 2.773438 13.277344 2.832031 13.226562 2.894531 13.175781 C 3.257812 12.871094 3.570312 12.679688 3.90625 12.558594 C 3.914062 12.554688 3.925781 12.546875 3.933594 12.546875 C 4.277344 12.425781 4.648438 12.386719 5.121094 12.40625 C 5.300781 12.410156 5.574219 12.429688 5.699219 12.441406 L 5.703125 12.441406 C 5.84375 12.457031 6.011719 12.476562 6.089844 12.484375 C 6.089844 12.484375 6.3125 12.476562 6.410156 12.382812 C 6.492188 12.296875 6.472656 12.175781 6.472656 12.175781 L 6.472656 12.171875 C 6.472656 12.175781 6.492188 12.132812 6.433594 12.035156 C 6.378906 11.941406 6.289062 11.910156 6.234375 11.898438 C 6.132812 11.875 6.015625 11.867188 5.734375 11.835938 C 5.324219 11.792969 4.808594 11.769531 4.359375 11.828125 Z M 11.015625 11.972656 C 10.601562 11.972656 10.367188 11.980469 10.144531 12.007812 C 9.929688 12.03125 9.839844 12.035156 9.738281 12.066406 C 9.6875 12.082031 9.589844 12.132812 9.550781 12.226562 C 9.511719 12.316406 9.527344 12.355469 9.527344 12.363281 C 9.527344 12.378906 9.523438 12.394531 9.527344 12.429688 C 9.535156 12.460938 9.546875 12.53125 9.613281 12.59375 C 9.683594 12.65625 9.765625 12.660156 9.800781 12.65625 C 9.832031 12.65625 9.84375 12.65625 9.859375 12.652344 L 9.867188 12.648438 C 9.894531 12.644531 10.035156 12.628906 10.175781 12.613281 C 11.699219 12.453125 12.265625 12.601562 13.226562 13.425781 C 13.226562 13.425781 13.230469 13.425781 13.230469 13.425781 C 13.402344 13.515625 13.484375 13.699219 13.726562 13.453125 C 13.832031 13.347656 13.8125 13.179688 13.664062 13.003906 C 13.023438 12.453125 12.472656 12.148438 11.832031 12.019531 C 11.632812 11.976562 11.523438 11.96875 11.015625 11.972656 Z M 13.476562 13.019531 L 13.535156 13.066406 C 13.511719 13.046875 13.488281 13.046875 13.46875 13.03125 Z M 13.476562 13.019531 "/>
</g>
</svg>
