
<svg xmlns="http://www.w3.org/2000/svg" xmlns:xlink="http://www.w3.org/1999/xlink" width="16px" height="16px" viewBox="0 0 16 16" version="1.1">
<g id="surface1">
<path style=" stroke:none;fill-rule:nonzero;fill:#ff6666;fill-opacity:1;" d="M 10.195312 15.863281 C 10.023438 15.699219 9.855469 15.40625 9.785156 15.128906 C 9.753906 15.019531 9.722656 14.921875 9.714844 14.910156 C 9.703125 14.902344 9.585938 14.832031 9.453125 14.753906 C 9.167969 14.59375 9.097656 14.507812 9.199219 14.449219 C 9.359375 14.351562 9.53125 14.164062 9.613281 14 C 9.703125 13.8125 9.808594 13.46875 9.78125 13.4375 C 9.773438 13.429688 9.628906 13.464844 9.464844 13.515625 C 8.664062 13.761719 7.667969 13.796875 6.925781 13.609375 C 6.796875 13.578125 6.683594 13.554688 6.675781 13.5625 C 6.652344 13.585938 6.777344 13.925781 6.847656 14.039062 C 6.9375 14.1875 7.070312 14.324219 7.175781 14.378906 C 7.226562 14.40625 7.269531 14.449219 7.269531 14.476562 C 7.269531 14.535156 7.101562 14.664062 6.875 14.777344 C 6.710938 14.859375 6.699219 14.875 6.640625 15.082031 C 6.472656 15.6875 6.03125 16.132812 5.820312 15.902344 C 5.738281 15.8125 5.753906 15.578125 5.855469 15.269531 C 5.902344 15.121094 5.9375 14.996094 5.925781 14.984375 C 5.914062 14.972656 5.808594 14.996094 5.691406 15.035156 C 5.324219 15.15625 5.128906 15.183594 4.996094 15.128906 C 4.851562 15.066406 4.796875 14.917969 4.898438 14.847656 C 5.039062 14.742188 5.644531 14.617188 6.210938 14.578125 L 6.535156 14.554688 L 6.410156 14.296875 C 6.28125 14.035156 6.140625 13.585938 6.140625 13.429688 C 6.140625 13.359375 6.097656 13.3125 5.917969 13.195312 C 5.128906 12.6875 4.699219 11.828125 4.691406 10.742188 C 4.691406 10.492188 4.683594 10.289062 4.671875 10.289062 C 4.664062 10.289062 4.570312 10.375 4.464844 10.480469 C 4.265625 10.679688 4.058594 10.777344 3.9375 10.734375 C 3.898438 10.722656 3.835938 10.660156 3.792969 10.597656 C 3.742188 10.523438 3.710938 10.503906 3.699219 10.535156 C 3.691406 10.558594 3.640625 10.695312 3.59375 10.835938 C 3.542969 10.976562 3.433594 11.234375 3.351562 11.402344 C 3.015625 12.097656 2.851562 11.992188 2.847656 11.085938 C 2.84375 10.835938 2.835938 10.632812 2.824219 10.632812 C 2.816406 10.632812 2.734375 10.757812 2.640625 10.910156 C 2.382812 11.34375 2.097656 11.609375 2.023438 11.484375 C 1.984375 11.425781 1.996094 10.695312 2.039062 10.464844 C 2.207031 9.550781 2.847656 8.714844 3.820312 8.136719 C 4.214844 7.902344 4.667969 7.695312 4.851562 7.664062 L 4.988281 7.640625 L 4.785156 7.515625 C 4.535156 7.359375 4.3125 7.125 4.21875 6.910156 C 4.109375 6.675781 4.117188 6.273438 4.234375 5.992188 L 4.320312 5.78125 L 4.199219 5.703125 C 4.121094 5.660156 4.09375 5.625 4.117188 5.617188 C 4.144531 5.605469 4.082031 5.527344 3.953125 5.410156 C 3.839844 5.308594 3.722656 5.179688 3.695312 5.121094 L 3.644531 5.023438 L 3.851562 5.128906 C 4.066406 5.234375 4.09375 5.230469 4 5.097656 C 3.953125 5.03125 3.839844 4.71875 3.863281 4.71875 C 3.867188 4.71875 3.945312 4.757812 4.035156 4.804688 C 4.128906 4.851562 4.226562 4.890625 4.25 4.890625 C 4.300781 4.890625 4.304688 4.875 4.398438 4.308594 C 4.433594 4.070312 4.492188 3.796875 4.519531 3.691406 C 4.816406 2.691406 5.546875 1.917969 6.523438 1.570312 C 6.816406 1.464844 6.828125 1.457031 6.925781 1.28125 C 6.980469 1.179688 7.074219 1.046875 7.136719 0.976562 C 7.238281 0.859375 7.546875 0.617188 7.59375 0.617188 C 7.605469 0.617188 7.605469 0.664062 7.59375 0.726562 C 7.574219 0.816406 7.578125 0.832031 7.617188 0.800781 C 8.050781 0.445312 8.464844 0.207031 8.871094 0.0703125 C 9.203125 -0.0390625 9.242188 -0.0234375 9.058594 0.144531 C 8.875 0.316406 8.484375 0.785156 8.507812 0.808594 C 8.519531 0.816406 8.59375 0.792969 8.675781 0.757812 C 8.757812 0.722656 8.9375 0.667969 9.070312 0.636719 C 9.324219 0.578125 9.765625 0.5625 9.765625 0.609375 C 9.765625 0.625 9.6875 0.710938 9.59375 0.804688 C 9.429688 0.964844 9.148438 1.34375 9.148438 1.402344 C 9.148438 1.417969 9.207031 1.441406 9.277344 1.453125 C 9.507812 1.496094 10.019531 1.679688 10.324219 1.832031 C 11.269531 2.300781 11.785156 2.984375 11.933594 3.972656 C 11.960938 4.148438 12.007812 4.375 12.035156 4.480469 C 12.066406 4.582031 12.089844 4.71875 12.089844 4.777344 C 12.089844 4.84375 12.109375 4.898438 12.136719 4.910156 C 12.175781 4.925781 12.351562 4.859375 12.539062 4.761719 C 12.582031 4.738281 12.5 4.988281 12.425781 5.113281 C 12.386719 5.179688 12.359375 5.238281 12.367188 5.246094 C 12.375 5.253906 12.46875 5.214844 12.578125 5.160156 L 12.773438 5.0625 L 12.722656 5.160156 C 12.695312 5.210938 12.582031 5.339844 12.46875 5.445312 C 12.355469 5.550781 12.28125 5.640625 12.304688 5.648438 C 12.355469 5.667969 12.199219 5.773438 12.03125 5.832031 C 11.953125 5.859375 11.90625 5.894531 11.914062 5.921875 C 12.046875 6.425781 12.0625 6.527344 12.046875 6.769531 C 12.019531 7.117188 11.917969 7.378906 11.707031 7.605469 C 11.539062 7.789062 11.539062 7.796875 11.628906 7.796875 C 11.730469 7.796875 12.335938 8.191406 12.808594 8.570312 C 13.503906 9.125 14.085938 9.828125 14.242188 10.304688 C 14.421875 10.84375 14.261719 11.328125 13.925781 11.273438 L 13.816406 11.253906 L 13.828125 11.414062 C 13.84375 11.644531 13.789062 11.761719 13.671875 11.761719 C 13.445312 11.761719 12.988281 11.335938 12.769531 10.929688 L 12.65625 10.71875 L 12.628906 10.851562 C 12.566406 11.160156 12.4375 11.15625 12.015625 10.835938 C 11.84375 10.703125 11.691406 10.597656 11.679688 10.597656 C 11.664062 10.597656 11.644531 10.753906 11.636719 10.949219 C 11.613281 11.316406 11.5 11.839844 11.371094 12.15625 C 11.328125 12.257812 11.304688 12.351562 11.3125 12.363281 C 11.324219 12.371094 11.425781 12.390625 11.542969 12.398438 L 11.75 12.417969 L 11.660156 12.511719 C 11.613281 12.5625 11.519531 12.636719 11.453125 12.667969 C 11.390625 12.703125 11.339844 12.742188 11.339844 12.757812 C 11.339844 12.78125 11.628906 12.804688 11.742188 12.785156 C 11.769531 12.785156 11.777344 12.796875 11.769531 12.816406 C 11.738281 12.863281 11.414062 12.980469 11.226562 13.007812 C 11.136719 13.019531 11.074219 13.046875 11.082031 13.0625 C 11.117188 13.113281 10.921875 13.136719 10.757812 13.101562 C 10.617188 13.066406 10.578125 13.070312 10.460938 13.128906 C 10.324219 13.195312 10.324219 13.199219 10.28125 13.46875 C 10.234375 13.773438 10.125 14.117188 9.992188 14.382812 C 9.941406 14.480469 9.902344 14.566406 9.902344 14.574219 C 9.902344 14.582031 10.039062 14.597656 10.203125 14.609375 C 10.789062 14.652344 11.378906 14.777344 11.523438 14.882812 C 11.570312 14.914062 11.582031 14.953125 11.5625 15.019531 C 11.515625 15.210938 11.246094 15.234375 10.792969 15.089844 C 10.636719 15.042969 10.503906 15.007812 10.496094 15.015625 C 10.492188 15.023438 10.523438 15.144531 10.570312 15.292969 C 10.667969 15.597656 10.679688 15.863281 10.601562 15.945312 C 10.503906 16.039062 10.359375 16.011719 10.195312 15.863281 Z M 8.445312 7.066406 C 8.574219 6.886719 8.875 6.328125 8.875 6.273438 C 8.875 6.265625 8.597656 6.257812 8.257812 6.257812 L 7.640625 6.257812 L 7.664062 6.332031 C 7.746094 6.59375 8.179688 7.28125 8.265625 7.28125 C 8.28125 7.28125 8.359375 7.1875 8.445312 7.066406 Z M 6.9375 5.816406 C 7.175781 5.546875 6.902344 5.128906 6.488281 5.128906 C 6.363281 5.128906 6.320312 5.148438 6.222656 5.246094 C 6.097656 5.371094 6.082031 5.449219 6.152344 5.617188 C 6.292969 5.941406 6.722656 6.050781 6.9375 5.816406 Z M 10 5.855469 C 10.121094 5.765625 10.242188 5.578125 10.242188 5.484375 C 10.242188 5.273438 10.082031 5.128906 9.847656 5.128906 C 9.59375 5.128906 9.371094 5.308594 9.332031 5.550781 C 9.308594 5.691406 9.359375 5.796875 9.503906 5.882812 C 9.636719 5.96875 9.867188 5.953125 10 5.855469 Z M 5.691406 3.375 C 5.804688 3.171875 6.03125 2.953125 6.15625 2.921875 C 6.203125 2.910156 6.316406 2.910156 6.40625 2.921875 C 6.726562 2.960938 6.738281 2.960938 6.75 2.898438 C 6.773438 2.789062 6.636719 2.703125 6.441406 2.703125 C 6.121094 2.703125 5.863281 2.886719 5.683594 3.242188 C 5.597656 3.417969 5.546875 3.554688 5.570312 3.554688 C 5.582031 3.554688 5.632812 3.476562 5.691406 3.375 Z M 10.746094 3.273438 C 10.554688 2.886719 10.308594 2.699219 9.980469 2.699219 C 9.785156 2.699219 9.648438 2.789062 9.671875 2.898438 C 9.683594 2.960938 9.695312 2.960938 10.015625 2.921875 C 10.105469 2.910156 10.214844 2.910156 10.261719 2.921875 C 10.390625 2.953125 10.613281 3.171875 10.730469 3.378906 C 10.878906 3.640625 10.890625 3.566406 10.746094 3.273438 Z M 10.746094 3.273438 "/>
</g>
</svg>
