
<svg xmlns="http://www.w3.org/2000/svg" xmlns:xlink="http://www.w3.org/1999/xlink" width="16px" height="16px" viewBox="0 0 16 16" version="1.1">
<g id="surface1">
<path style=" stroke:none;fill-rule:nonzero;fill:#ff6666;fill-opacity:1;" d="M 8.003906 0 C 8.003906 0 8.003906 0.00390625 8.003906 0.00390625 C 8 0.00390625 8 0.00390625 8 0.00390625 C 8 0.0078125 8 0.0078125 8 0.0078125 C 7.035156 2.179688 6.292969 4.390625 5.867188 5.75 C 4.476562 5.75 2.183594 5.804688 0 6.101562 C 0 6.105469 0 6.105469 0 6.105469 C 0 6.105469 0 6.105469 0 6.109375 C 0 6.109375 0.00390625 6.109375 0.00390625 6.109375 C 0.00390625 6.113281 0.00390625 6.109375 0.00390625 6.113281 C 1.671875 7.746094 3.445312 9.171875 4.539062 10.015625 C 4.113281 11.40625 3.453125 13.714844 3.046875 15.992188 C 3.046875 15.992188 3.046875 15.992188 3.050781 15.992188 C 3.054688 15.992188 3.054688 15.992188 3.054688 15.992188 C 5.050781 14.828125 6.890625 13.496094 7.992188 12.660156 C 9.117188 13.519531 11.003906 14.890625 12.9375 16 C 12.9375 16 12.9375 16 12.9375 15.996094 C 12.9375 15.992188 12.9375 15.992188 12.9375 15.992188 C 12.503906 13.636719 11.867188 11.386719 11.449219 10.027344 C 12.578125 9.167969 14.398438 7.707031 16 6.117188 C 16 6.117188 16 6.117188 15.996094 6.117188 C 15.996094 6.113281 15.996094 6.113281 15.996094 6.113281 C 15.996094 6.113281 15.992188 6.113281 15.992188 6.113281 C 15.992188 6.113281 15.992188 6.109375 15.992188 6.109375 C 13.730469 5.820312 11.496094 5.761719 10.140625 5.757812 C 9.707031 4.363281 8.949219 2.089844 8.003906 0 Z M 8.003906 0 "/>
</g>
</svg>
