
<svg xmlns="http://www.w3.org/2000/svg" xmlns:xlink="http://www.w3.org/1999/xlink" width="16px" height="16px" viewBox="0 0 16 16" version="1.1">
<g id="surface1">
<path style=" stroke:none;fill-rule:evenodd;fill:#ff6666;fill-opacity:1;" d="M 7.945312 11.144531 L 6.609375 9.8125 L 5.277344 8.476562 C 5.277344 8.476562 10.609375 8.476562 10.609375 8.476562 L 9.277344 9.8125 Z M 8 2.667969 C 5.929688 2.667969 4.164062 3.894531 3.40625 5.636719 C 1.476562 5.914062 0 7.507812 0 9.453125 C 0 11.597656 1.789062 13.332031 4 13.332031 L 12.5 13.332031 C 14.433594 13.332031 16 11.8125 16 9.9375 C 16 8.195312 14.648438 6.769531 12.90625 6.574219 C 12.453125 4.351562 10.425781 2.667969 8 2.667969 Z M 6.34375 5.8125 L 9.546875 5.8125 L 9.546875 8.476562 L 6.34375 8.476562 Z M 6.34375 5.8125 "/>
</g>
</svg>
