
<svg xmlns="http://www.w3.org/2000/svg" xmlns:xlink="http://www.w3.org/1999/xlink" width="16px" height="16px" viewBox="0 0 16 16" version="1.1">
<g id="surface1">
<path style=" stroke:none;fill-rule:nonzero;fill:#ff6666;fill-opacity:1;" d="M 12.5 2 C 10.785156 2 9.320312 3.246094 9.046875 4.941406 L 6.566406 9.058594 C 6.382812 9.019531 6.191406 9 6 9 C 5.546875 9 5.101562 9.105469 4.691406 9.300781 L 0.265625 6.75 C 0.09375 7.484375 0.00390625 8.242188 0 9 C 0.00390625 9.367188 0.0273438 9.734375 0.0703125 10.097656 L 3.007812 11.792969 C 3.003906 11.863281 3 11.929688 3 12 C 3 13.65625 4.34375 15 6 15 C 7.65625 15 9 13.65625 9 12 C 9 11.90625 8.992188 11.8125 8.984375 11.71875 L 13.363281 8.886719 C 14.910156 8.492188 15.996094 7.097656 16 5.5 C 16 3.566406 14.433594 2 12.5 2 Z M 12.5 3 C 13.878906 3 15 4.121094 15 5.5 C 15 6.878906 13.878906 8 12.5 8 C 11.121094 8 10 6.878906 10 5.5 C 10 4.121094 11.121094 3 12.5 3 Z M 12.5 4 C 11.671875 4 11 4.671875 11 5.5 C 11 6.328125 11.671875 7 12.5 7 C 13.328125 7 14 6.328125 14 5.5 C 14 4.671875 13.328125 4 12.5 4 Z M 6 10 C 7.105469 10 8 10.894531 8 12 C 8 13.105469 7.105469 14 6 14 C 5.046875 14 4.226562 13.324219 4.039062 12.390625 L 4.746094 12.796875 C 5.464844 13.210938 6.378906 12.96875 6.792969 12.25 C 7.210938 11.527344 6.964844 10.613281 6.246094 10.199219 L 5.90625 10.003906 C 5.9375 10 5.96875 10 6 10 Z M 6 10 "/>
</g>
</svg>
