
<svg xmlns="http://www.w3.org/2000/svg" xmlns:xlink="http://www.w3.org/1999/xlink" width="16px" height="16px" viewBox="0 0 16 16" version="1.1">
<g id="surface1">
<path style=" stroke:none;fill-rule:nonzero;fill:#ff6666;fill-opacity:1;" d="M 7 0 C 3.132812 0 0 3.132812 0 7 C 0 10.867188 3.132812 14 7 14 C 10.867188 14 14 10.867188 14 7 C 14 3.132812 10.867188 0 7 0 Z M 7 0.875 C 10.382812 0.875 13.125 3.617188 13.125 7 C 13.125 10.382812 10.382812 13.125 7 13.125 C 3.617188 13.125 0.875 10.382812 0.875 7 C 0.875 3.617188 3.617188 0.875 7 0.875 Z M 7 0.875 "/>
<path style=" stroke:none;fill-rule:nonzero;fill:#ff6666;fill-opacity:1;" d="M 9 2 C 5.132812 2 2 5.132812 2 9 C 2 12.867188 5.132812 16 9 16 C 12.867188 16 16 12.867188 16 9 C 16 5.132812 12.867188 2 9 2 Z M 8.960938 7.6875 C 8.972656 7.6875 8.988281 7.6875 9 7.6875 C 9.726562 7.6875 10.3125 8.273438 10.3125 9 C 10.3125 9.726562 9.726562 10.3125 9 10.3125 C 8.273438 10.3125 7.6875 9.726562 7.6875 9 C 7.6875 8.289062 8.25 7.707031 8.960938 7.6875 Z M 8.960938 7.6875 "/>
</g>
</svg>
