
<svg xmlns="http://www.w3.org/2000/svg" xmlns:xlink="http://www.w3.org/1999/xlink" width="16px" height="16px" viewBox="0 0 16 16" version="1.1">
<g id="surface1">
<path style=" stroke:none;fill-rule:nonzero;fill:#ff6666;fill-opacity:1;" d="M 8 0 C 3.582031 0 0 3.582031 0 8 C 0 12.417969 3.582031 16 8 16 C 8.5 16 9 15.949219 9.492188 15.855469 L 9.492188 14.828125 C 9.003906 14.941406 8.503906 14.996094 8 15 C 4.132812 15 1 11.867188 1 8 C 1 4.132812 4.132812 1 8 1 C 11.867188 1 15 4.132812 15 8 C 14.996094 9.007812 14.777344 10 14.355469 10.917969 L 15.449219 10.917969 C 15.8125 9.988281 16 8.996094 16 8 C 16 3.582031 12.417969 0 8 0 Z M 8 5 C 6.34375 5 5 6.34375 5 8 C 5 9.65625 6.34375 11 8 11 C 9.65625 11 11 9.65625 11 8 C 11 6.34375 9.65625 5 8 5 Z M 8 6.5 C 8.828125 6.5 9.5 7.171875 9.5 8 C 9.5 8.828125 8.828125 9.5 8 9.5 C 7.171875 9.5 6.5 8.828125 6.5 8 C 6.5 7.171875 7.171875 6.5 8 6.5 Z M 8 6.5 "/>
<path style=" stroke:none;fill-rule:nonzero;fill:#ff6666;fill-opacity:1;" d="M 12.5 11 L 12.5 13 L 10.5 13 L 10.5 14 L 12.5 14 L 12.5 16 L 13.5 16 L 13.5 14 L 15.5 14 L 15.5 13 L 13.5 13 L 13.5 11 Z M 12.5 11 "/>
</g>
</svg>
