
<svg xmlns="http://www.w3.org/2000/svg" xmlns:xlink="http://www.w3.org/1999/xlink" width="16px" height="16px" viewBox="0 0 16 16" version="1.1">
<g id="surface1">
<path style=" stroke:none;fill-rule:nonzero;fill:#ff6666;fill-opacity:1;" d="M 14.207031 8.285156 C 14.726562 8.578125 15.15625 8.949219 15.496094 9.398438 C 15.832031 9.84375 16 10.421875 16 11.128906 C 16 11.832031 15.800781 12.476562 15.398438 13.058594 C 14.996094 13.644531 14.429688 14.152344 13.699219 14.585938 C 12.886719 15.066406 11.921875 15.425781 10.8125 15.660156 C 9.714844 15.886719 8.507812 16 7.191406 16 C 5.84375 16 4.519531 15.898438 3.214844 15.691406 C 1.910156 15.492188 0.835938 15.269531 0 15.03125 L 0 12.875 L 0.246094 12.875 C 1.167969 13.257812 2.257812 13.578125 3.507812 13.832031 C 4.757812 14.089844 5.964844 14.214844 7.128906 14.214844 C 7.8125 14.214844 8.542969 14.144531 9.3125 14 C 10.085938 13.855469 10.710938 13.640625 11.1875 13.359375 C 11.6875 13.054688 12.058594 12.722656 12.296875 12.359375 C 12.546875 11.992188 12.671875 11.53125 12.671875 10.976562 C 12.671875 10.425781 12.53125 9.972656 12.25 9.613281 C 11.976562 9.25 11.597656 8.964844 11.105469 8.757812 C 10.617188 8.542969 10.023438 8.402344 9.328125 8.324219 C 8.632812 8.242188 7.882812 8.199219 7.078125 8.199219 L 5.609375 8.199219 L 5.609375 6.488281 L 6.753906 6.488281 C 8.40625 6.488281 9.722656 6.273438 10.699219 5.839844 C 11.6875 5.398438 12.183594 4.757812 12.183594 3.921875 C 12.183594 3.546875 12.058594 3.226562 11.808594 2.949219 C 11.558594 2.667969 11.210938 2.4375 10.765625 2.257812 C 10.296875 2.082031 9.796875 1.957031 9.265625 1.886719 C 8.730469 1.820312 8.128906 1.785156 7.453125 1.785156 C 6.421875 1.785156 5.324219 1.902344 4.160156 2.136719 C 2.996094 2.371094 1.898438 2.699219 0.863281 3.125 L 0.703125 3.125 L 0.703125 0.96875 C 1.472656 0.730469 2.5 0.507812 3.785156 0.308594 C 5.078125 0.101562 6.328125 0 7.535156 0 C 8.71875 0 9.765625 0.0703125 10.667969 0.207031 C 11.570312 0.34375 12.382812 0.5625 13.113281 0.867188 C 13.894531 1.195312 14.488281 1.59375 14.890625 2.0625 C 15.292969 2.53125 15.496094 3.078125 15.496094 3.703125 C 15.496094 4.554688 15.015625 5.300781 14.058594 5.941406 C 13.113281 6.574219 11.992188 6.972656 10.699219 7.136719 L 10.699219 7.28125 C 11.222656 7.339844 11.820312 7.453125 12.492188 7.632812 C 13.167969 7.804688 13.738281 8.023438 14.207031 8.285156 Z M 14.207031 8.285156 "/>
</g>
</svg>
