
<svg xmlns="http://www.w3.org/2000/svg" xmlns:xlink="http://www.w3.org/1999/xlink" width="16px" height="16px" viewBox="0 0 16 16" version="1.1">
<g id="surface1">
<path style=" stroke:none;fill-rule:evenodd;fill:#ff6666;fill-opacity:1;" d="M 6.40625 1.039062 C 6.5625 0.832031 6.796875 0.695312 7.054688 0.664062 C 7.3125 0.628906 7.570312 0.695312 7.777344 0.855469 C 7.984375 1.011719 8.121094 1.242188 8.152344 1.503906 C 8.1875 1.761719 8.121094 2.023438 7.960938 2.226562 C 7.707031 2.5625 7.410156 2.867188 7.085938 3.132812 C 6.78125 3.378906 6.460938 3.597656 6.117188 3.789062 C 5.800781 3.964844 5.480469 4.125 5.144531 4.265625 C 4.84375 4.394531 4.535156 4.519531 4.230469 4.640625 C 3.910156 4.761719 3.597656 4.890625 3.289062 5.027344 C 3.0625 5.128906 2.851562 5.25 2.648438 5.398438 C 2.535156 5.480469 2.445312 5.582031 2.375 5.703125 C 2.3125 5.824219 2.28125 5.964844 2.285156 6.101562 C 2.28125 6.300781 2.316406 6.503906 2.378906 6.691406 C 2.4375 6.84375 2.519531 6.984375 2.625 7.113281 C 2.757812 7.265625 2.902344 7.40625 3.058594 7.53125 C 3.257812 7.691406 3.464844 7.839844 3.671875 7.984375 C 3.917969 8.152344 4.152344 8.324219 4.386719 8.507812 C 4.648438 8.714844 4.890625 8.945312 5.105469 9.203125 C 5.351562 9.5 5.542969 9.828125 5.679688 10.1875 C 5.824219 10.589844 5.898438 11.015625 5.894531 11.445312 C 5.894531 11.765625 5.859375 12.085938 5.796875 12.398438 C 5.707031 12.871094 5.53125 13.324219 5.269531 13.726562 C 5.027344 14.09375 4.703125 14.398438 4.324219 14.613281 C 3.988281 14.800781 3.625 14.921875 3.246094 14.984375 C 2.917969 15.035156 2.585938 15.0625 2.253906 15.058594 C 2.011719 15.058594 1.769531 15.050781 1.53125 15.035156 C 1.34375 15.027344 1.160156 15.019531 0.972656 15.019531 C 0.710938 15.015625 0.464844 14.914062 0.28125 14.726562 C 0.0976562 14.542969 -0.00390625 14.292969 0 14.035156 C 0.00390625 13.773438 0.109375 13.523438 0.292969 13.34375 C 0.476562 13.160156 0.726562 13.058594 0.984375 13.0625 C 1.203125 13.066406 1.414062 13.066406 1.628906 13.082031 C 1.84375 13.089844 2.058594 13.097656 2.273438 13.097656 C 2.496094 13.101562 2.714844 13.085938 2.933594 13.050781 C 3.085938 13.027344 3.230469 12.976562 3.367188 12.902344 C 3.472656 12.84375 3.5625 12.757812 3.632812 12.65625 C 3.753906 12.464844 3.832031 12.253906 3.867188 12.03125 C 3.910156 11.832031 3.933594 11.628906 3.933594 11.425781 C 3.9375 11.234375 3.90625 11.046875 3.84375 10.871094 C 3.785156 10.71875 3.707031 10.582031 3.605469 10.460938 C 3.472656 10.308594 3.332031 10.171875 3.175781 10.046875 C 2.976562 9.890625 2.773438 9.742188 2.566406 9.601562 C 2.320312 9.429688 2.078125 9.253906 1.847656 9.070312 C 1.585938 8.863281 1.339844 8.625 1.121094 8.367188 C 0.875 8.070312 0.679688 7.734375 0.542969 7.371094 C 0.398438 6.964844 0.324219 6.535156 0.328125 6.109375 C 0.320312 5.640625 0.433594 5.179688 0.652344 4.765625 C 0.863281 4.390625 1.148438 4.066406 1.496094 3.8125 C 1.804688 3.585938 2.140625 3.394531 2.496094 3.238281 C 2.835938 3.085938 3.179688 2.941406 3.527344 2.808594 C 3.8125 2.699219 4.09375 2.582031 4.375 2.464844 C 4.648438 2.347656 4.90625 2.222656 5.164062 2.078125 C 5.402344 1.941406 5.632812 1.785156 5.847656 1.613281 C 6.058594 1.445312 6.242188 1.25 6.40625 1.039062 Z M 9.503906 8.507812 C 9.542969 8.292969 9.625 8.089844 9.742188 7.90625 C 9.875 7.695312 10.035156 7.5 10.214844 7.328125 C 10.382812 7.15625 10.566406 6.996094 10.753906 6.84375 C 10.945312 6.6875 11.140625 6.535156 11.335938 6.382812 C 11.578125 6.199219 11.816406 6.007812 12.054688 5.8125 C 12.261719 5.644531 12.460938 5.457031 12.644531 5.257812 C 12.777344 5.117188 12.894531 4.957031 12.984375 4.785156 C 13.03125 4.691406 13.058594 4.589844 13.0625 4.488281 C 13.066406 4.171875 13.023438 3.859375 12.9375 3.554688 C 12.882812 3.367188 12.785156 3.1875 12.65625 3.035156 C 12.535156 2.90625 12.390625 2.808594 12.222656 2.746094 C 11.949219 2.652344 11.65625 2.605469 11.367188 2.613281 C 11.148438 2.605469 10.929688 2.652344 10.730469 2.738281 C 10.558594 2.824219 10.402344 2.941406 10.277344 3.089844 C 10.101562 3.296875 9.957031 3.53125 9.84375 3.773438 C 9.710938 4.058594 9.597656 4.351562 9.503906 4.652344 Z M 9.503906 9.140625 L 9.503906 14.367188 C 9.503906 14.628906 9.398438 14.878906 9.214844 15.058594 C 9.03125 15.242188 8.785156 15.347656 8.523438 15.347656 C 8.261719 15.347656 8.011719 15.242188 7.828125 15.058594 C 7.648438 14.878906 7.542969 14.628906 7.542969 14.367188 L 7.542969 4.507812 C 7.542969 4.410156 7.554688 4.320312 7.582031 4.230469 C 7.710938 3.796875 7.871094 3.367188 8.0625 2.953125 C 8.25 2.546875 8.492188 2.164062 8.785156 1.820312 C 9.089844 1.460938 9.472656 1.167969 9.898438 0.964844 C 10.359375 0.753906 10.855469 0.648438 11.359375 0.652344 C 11.878906 0.644531 12.394531 0.730469 12.886719 0.902344 C 13.355469 1.074219 13.78125 1.359375 14.117188 1.730469 C 14.445312 2.101562 14.683594 2.539062 14.820312 3.015625 C 14.960938 3.503906 15.03125 4.011719 15.019531 4.523438 C 15.015625 4.933594 14.910156 5.339844 14.71875 5.703125 C 14.539062 6.03125 14.324219 6.332031 14.070312 6.601562 C 13.828125 6.855469 13.574219 7.097656 13.304688 7.324219 C 13.046875 7.53125 12.789062 7.738281 12.527344 7.941406 C 12.34375 8.082031 12.164062 8.222656 11.988281 8.367188 C 11.84375 8.480469 11.710938 8.601562 11.578125 8.726562 C 11.535156 8.769531 11.496094 8.8125 11.460938 8.863281 C 11.464844 8.863281 11.464844 8.867188 11.464844 8.867188 C 11.546875 9.03125 11.636719 9.191406 11.742188 9.34375 C 11.894531 9.5625 12.058594 9.78125 12.230469 9.988281 C 12.429688 10.234375 12.628906 10.476562 12.839844 10.710938 C 13.660156 11.621094 14.507812 12.5 15.386719 13.351562 C 15.496094 13.460938 15.605469 13.566406 15.714844 13.675781 C 15.894531 13.859375 16 14.105469 16 14.367188 C 16 14.625 15.898438 14.875 15.714844 15.058594 C 15.53125 15.242188 15.28125 15.347656 15.019531 15.347656 C 14.761719 15.347656 14.515625 15.246094 14.328125 15.058594 C 14.226562 14.960938 14.121094 14.855469 14.019531 14.753906 C 13.105469 13.871094 12.230469 12.960938 11.378906 12.015625 C 11.152344 11.757812 10.925781 11.492188 10.707031 11.222656 C 10.507812 10.976562 10.316406 10.71875 10.136719 10.460938 C 9.96875 10.222656 9.820312 9.972656 9.699219 9.710938 C 9.636719 9.585938 9.585938 9.449219 9.542969 9.3125 C 9.527344 9.257812 9.511719 9.199219 9.503906 9.140625 Z M 9.503906 9.140625 "/>
</g>
</svg>
