
<svg xmlns="http://www.w3.org/2000/svg" xmlns:xlink="http://www.w3.org/1999/xlink" width="16px" height="16px" viewBox="0 0 16 16" version="1.1">
<g id="surface1">
<path style=" stroke:none;fill-rule:evenodd;fill:#ff6666;fill-opacity:1;" d="M 0.570312 12 Z M 8 8.570312 C 8 7.941406 8.511719 7.429688 9.144531 7.429688 C 9.773438 7.429688 10.285156 7.941406 10.285156 8.570312 C 10.285156 9.203125 9.773438 9.714844 9.144531 9.714844 C 8.511719 9.714844 8 9.203125 8 8.570312 Z M 10.855469 8.570312 C 10.855469 7.941406 11.367188 7.429688 12 7.429688 C 12.632812 7.429688 13.144531 7.941406 13.144531 8.570312 C 13.144531 9.203125 12.632812 9.714844 12 9.714844 C 11.367188 9.714844 10.855469 9.203125 10.855469 8.570312 Z M 3.457031 7.089844 C 3.445312 7.109375 3.4375 7.128906 3.429688 7.144531 C 3.027344 6.351562 0.570312 6 0.570312 6 L 0.570312 8 L 0 8 L 0 10.332031 L 0.570312 10.332031 L 0.570312 12.046875 C 0.554688 12.046875 3.027344 11.695312 3.429688 10.902344 L 3.429688 10.855469 C 3.828125 11.648438 6 13.144531 9.199219 13.144531 C 12.398438 13.144531 16 11.414062 16 8.789062 C 15.996094 6.929688 14.433594 5.339844 12 4.570312 L 12 3.648438 C 12 3.210938 11.644531 2.855469 11.199219 2.855469 L 7.199219 2.855469 C 6.757812 2.855469 6.285156 3.210938 6.285156 3.648438 L 6.285156 4.570312 C 5.605469 4.785156 5.03125 5.179688 4.570312 5.617188 L 4.570312 3.394531 C 4.570312 3.097656 4.332031 2.855469 4.035156 2.855469 L 3.964844 2.855469 C 3.667969 2.855469 3.429688 3.097656 3.429688 3.394531 L 3.429688 6.894531 C 3.429688 6.960938 3.441406 7.027344 3.457031 7.089844 Z M 5.144531 8.570312 C 5.144531 7.941406 5.65625 7.429688 6.285156 7.429688 C 6.914062 7.429688 7.429688 7.941406 7.429688 8.570312 C 7.429688 9.203125 6.914062 9.714844 6.285156 9.714844 C 5.65625 9.714844 5.144531 9.203125 5.144531 8.570312 Z M 5.144531 8.570312 "/>
</g>
</svg>
