
<svg xmlns="http://www.w3.org/2000/svg" xmlns:xlink="http://www.w3.org/1999/xlink" width="16px" height="16px" viewBox="0 0 16 16" version="1.1">
<g id="surface1">
<path style=" stroke:none;fill-rule:nonzero;fill:#ff6666;fill-opacity:1;" d="M 5.921875 0 L 5.671875 0.0078125 C 5.671875 0.0078125 6.175781 0.664062 6.527344 0.941406 L 6.476562 1.164062 C 6.449219 1.40625 6.414062 1.671875 6.40625 1.746094 L 6.390625 1.882812 L 6.253906 1.789062 L 6.007812 1.691406 L 6.101562 1.851562 L 6.199219 2.011719 L 5.703125 2.011719 L 5.703125 1.699219 L 5.46875 1.789062 L 5.226562 1.882812 L 5.308594 2.019531 L 5.390625 2.152344 L 5.070312 2.460938 L 4.753906 2.6875 L 4.988281 2.953125 L 4.777344 2.828125 L 4.570312 2.707031 L 4.84375 2.398438 L 5.117188 2.09375 L 4.972656 2.078125 C 4.894531 2.070312 4.683594 2.046875 4.503906 2.027344 L 4.175781 1.988281 L 4.152344 2.28125 L 4.132812 2.574219 L 3.746094 2.941406 L 3.359375 3.304688 L 3 4.761719 C 2.800781 5.5625 2.570312 6.445312 2.527344 6.628906 L 2.457031 6.960938 C 2.816406 7.109375 3.136719 7.183594 3.476562 7.203125 C 3.566406 7.144531 3.691406 6.898438 3.753906 6.65625 C 3.8125 6.410156 3.945312 6.136719 4 6.136719 L 4.105469 6.136719 L 4.117188 6.660156 C 4.125 6.949219 4.25 7.609375 4.398438 8.125 C 4.542969 8.640625 4.617188 9.238281 4.660156 9.449219 L 4.738281 9.835938 L 4.578125 9.9375 L 4.414062 10.039062 L 4.675781 10.1875 L 4.765625 10.335938 L 4.535156 10.246094 L 4.308594 10.15625 L 3.949219 10.914062 L 3.589844 11.667969 L 2.808594 12.175781 L 2.304688 12.6875 L 2.433594 13.25 L 2.554688 13.816406 L 2.53125 14.71875 L 2.503906 15.621094 L 2.621094 15.808594 L 2.734375 16 L 3.59375 16 L 3.953125 15.8125 L 4.175781 15.519531 L 3.875 15.234375 C 3.8125 15.078125 3.726562 14.492188 3.683594 13.9375 L 3.605469 12.925781 L 4.042969 12.167969 L 4.476562 11.414062 L 5.144531 10.757812 L 5.808594 10.097656 L 5.910156 9.242188 L 6.007812 8.390625 L 5.625 8.609375 L 5.808594 8.40625 L 5.988281 8.207031 L 6.363281 8.40625 C 6.570312 8.511719 6.972656 8.777344 7.257812 8.992188 L 7.773438 9.386719 L 7.773438 10.199219 L 8.167969 11.074219 C 8.386719 11.554688 8.609375 11.75 8.667969 11.996094 C 8.726562 12.246094 8.839844 12.53125 8.921875 12.636719 L 9.066406 12.824219 L 9.511719 12.691406 C 9.757812 12.621094 10.117188 12.476562 10.308594 12.375 C 10.503906 12.269531 11.3125 12.386719 12.109375 12.148438 L 13.5625 11.714844 L 13.628906 11.511719 L 13.695312 11.230469 L 13.144531 11.230469 C 12.839844 11.230469 12.367188 11.277344 12.097656 11.332031 L 11.601562 11.433594 L 11.6875 11.570312 L 11.773438 11.710938 L 11.523438 11.613281 L 11.277344 11.519531 L 10.636719 11.777344 C 10.285156 11.921875 9.859375 11.996094 9.699219 12.039062 L 9.402344 12.039062 L 9.148438 11.472656 L 8.890625 10.824219 L 8.789062 9.945312 L 8.6875 9.0625 L 8.058594 8.203125 C 7.714844 7.734375 7.203125 7.144531 6.925781 6.894531 L 6.414062 6.398438 C 6.601562 6.402344 6.621094 6.421875 6.808594 6.394531 L 6.691406 6.339844 L 6.652344 6.136719 L 7.050781 6.214844 L 7.007812 5.953125 L 6.964844 5.925781 L 7.207031 5.832031 C 7.292969 5.800781 7.363281 5.667969 7.40625 5.601562 L 6.96875 5.601562 L 6.96875 5.195312 C 6.96875 5.0625 7.015625 4.949219 7.070312 4.949219 C 7.3125 5.113281 7.523438 5.148438 7.757812 5.246094 C 7.980469 5.078125 8.480469 4.988281 8.742188 4.886719 L 8.847656 4.144531 C 8.902344 3.734375 8.824219 3.332031 8.878906 3.246094 L 8.972656 3.089844 L 8.734375 2.847656 C 8.605469 2.714844 8.167969 2.574219 8.058594 2.535156 L 7.855469 2.46875 L 8.058594 2.21875 L 8.101562 1.996094 L 8.121094 1.496094 C 8.078125 1.257812 8.019531 1.128906 7.910156 0.992188 C 7.621094 0.824219 7.523438 0.789062 7.210938 0.820312 L 6.71875 0.8125 Z M 7.292969 2.902344 L 7.445312 2.902344 C 7.527344 2.902344 7.835938 2.976562 7.835938 3.070312 L 7.835938 3.242188 L 7.980469 3.152344 L 8.128906 3.058594 L 8.246094 3.246094 L 8.359375 3.4375 L 8.175781 3.320312 L 8.121094 3.324219 L 8.101562 3.664062 L 8.101562 4.011719 L 7.835938 4.019531 L 7.285156 4.007812 C 7.277344 3.941406 7.320312 3.613281 7.292969 3.367188 Z M 7.292969 2.902344 "/>
</g>
</svg>
