
<svg xmlns="http://www.w3.org/2000/svg" xmlns:xlink="http://www.w3.org/1999/xlink" width="16px" height="16px" viewBox="0 0 16 16" version="1.1">
<g id="surface1">
<path style=" stroke:none;fill-rule:nonzero;fill:#ff6666;fill-opacity:1;" d="M 3.996094 1 C 2.738281 1.015625 1.816406 0.96875 1.0625 1.382812 C 0.675781 1.605469 0.375 1.960938 0.226562 2.382812 C 0.0585938 2.820312 0 3.34375 0 4 L 0 10 C 0 10.65625 0.0585938 11.179688 0.226562 11.617188 C 0.390625 12.054688 0.6875 12.40625 1.0625 12.613281 C 1.816406 13.03125 2.738281 12.984375 3.996094 13 L 4.203125 13 L 7.003906 15 L 9.804688 13 L 12.003906 13 C 13.261719 12.984375 14.183594 13.03125 14.9375 12.613281 C 15.328125 12.394531 15.625 12.039062 15.777344 11.617188 C 15.941406 11.179688 16 10.65625 16 10 L 16 4 C 16 3.34375 15.941406 2.820312 15.777344 2.382812 C 15.625 1.960938 15.328125 1.605469 14.9375 1.382812 C 14.183594 0.96875 13.261719 1.015625 12.003906 1 Z M 4 2 L 12.011719 2 C 13.269531 2.015625 14.097656 2.058594 14.464844 2.261719 C 14.648438 2.363281 14.753906 2.472656 14.851562 2.734375 C 14.949219 2.996094 15.011719 3.40625 15.011719 4 L 15.011719 10 C 15.011719 10.59375 14.949219 11.003906 14.851562 11.265625 C 14.753906 11.527344 14.648438 11.636719 14.464844 11.738281 C 14.097656 11.941406 13.269531 11.984375 12.011719 12 L 4 12 C 2.742188 11.984375 1.910156 11.941406 1.546875 11.738281 C 1.363281 11.636719 1.257812 11.527344 1.160156 11.265625 C 1.0625 11.003906 1 10.59375 1 10 L 1 4 C 1 3.40625 1.0625 2.996094 1.160156 2.734375 C 1.257812 2.472656 1.363281 2.363281 1.546875 2.261719 C 1.910156 2.058594 2.742188 2.015625 4 2 Z M 4 2 "/>
<path style=" stroke:none;fill-rule:nonzero;fill:#ff6666;fill-opacity:1;" d="M 4.410156 3.972656 L 2.925781 7.484375 L 3.84375 8.140625 L 4.546875 6.476562 L 6.570312 9.972656 L 7.855469 7.261719 L 8.550781 8.464844 L 8.976562 7.917969 C 8.976562 7.917969 9.132812 7.71875 9.296875 7.523438 C 9.378906 7.429688 9.460938 7.34375 9.515625 7.285156 C 9.859375 7.285156 12.921875 7.292969 12.921875 7.292969 L 12.925781 5.929688 C 12.925781 5.929688 9.511719 5.921875 9.378906 5.921875 C 9.128906 5.921875 9.101562 6.007812 9.042969 6.054688 C 8.984375 6.097656 8.933594 6.144531 8.886719 6.191406 C 8.816406 6.261719 8.75 6.339844 8.683594 6.417969 L 7.773438 4.839844 L 6.484375 7.558594 Z M 4.410156 3.972656 "/>
</g>
</svg>
