
<svg xmlns="http://www.w3.org/2000/svg" xmlns:xlink="http://www.w3.org/1999/xlink" width="16px" height="16px" viewBox="0 0 16 16" version="1.1">
<g id="surface1">
<path style=" stroke:none;fill-rule:nonzero;fill:#ff6666;fill-opacity:1;" d="M 14.675781 0.0703125 L 0.0703125 14.675781 C 0.152344 14.976562 0.3125 15.253906 0.523438 15.476562 C 0.746094 15.6875 1.023438 15.847656 1.324219 15.929688 L 15.9375 1.324219 C 15.769531 0.710938 15.289062 0.230469 14.675781 0.0703125 Z M 7.894531 0 L 0 7.894531 L 0 10.410156 L 10.410156 0 Z M 1.777344 0 C 0.800781 0 0 0.800781 0 1.777344 L 0 3.554688 L 3.554688 0 Z M 14.222656 16 C 14.710938 16 15.15625 15.804688 15.476562 15.476562 C 15.804688 15.15625 16 14.710938 16 14.222656 L 16 12.445312 L 12.445312 16 Z M 5.589844 16 L 8.105469 16 L 16 8.105469 L 16 5.589844 Z M 5.589844 16 "/>
</g>
</svg>
