
<svg xmlns="http://www.w3.org/2000/svg" xmlns:xlink="http://www.w3.org/1999/xlink" width="16px" height="16px" viewBox="0 0 16 16" version="1.1">
<g id="surface1">
<path style=" stroke:none;fill-rule:evenodd;fill:#ff6666;fill-opacity:1;" d="M 0 6.53125 L 0 0 L 6.53125 0 L 6.53125 6.53125 Z M 5.222656 1.304688 L 1.304688 1.304688 L 1.304688 5.222656 L 5.222656 5.222656 Z M 15.925781 3.339844 C 15.925781 5.140625 14.464844 6.605469 12.660156 6.605469 C 10.859375 6.605469 9.394531 5.140625 9.394531 3.339844 C 9.394531 1.535156 10.859375 0.0742188 12.660156 0.0742188 C 14.464844 0.0742188 15.925781 1.535156 15.925781 3.339844 Z M 1.960938 9.46875 L 4.570312 9.46875 L 4.570312 11.429688 L 6.53125 11.429688 L 6.53125 14.039062 L 4.570312 14.039062 L 4.570312 16 L 1.960938 16 L 1.960938 14.039062 L 0 14.039062 L 0 11.429688 L 1.960938 11.429688 Z M 12.734375 9.46875 L 9.46875 16 L 16 16 Z M 10.601562 15.300781 L 12.734375 11.035156 L 12.734375 15.300781 Z M 10.601562 15.300781 "/>
</g>
</svg>
