
<svg xmlns="http://www.w3.org/2000/svg" xmlns:xlink="http://www.w3.org/1999/xlink" width="16px" height="16px" viewBox="0 0 16 16" version="1.1">
<g id="surface1">
<path style=" stroke:none;fill-rule:evenodd;fill:#ff6666;fill-opacity:1;" d="M 10.632812 9.578125 L 12.03125 11.675781 C 12.136719 11.648438 12.25 11.636719 12.363281 11.636719 C 12.6875 11.636719 12.984375 11.742188 13.226562 11.921875 C 14.078125 10.800781 14.542969 9.425781 14.546875 8 C 14.542969 7.507812 14.484375 7.015625 14.375 6.535156 C 14.140625 6.507812 13.921875 6.425781 13.734375 6.296875 L 10.859375 8.351562 C 10.890625 8.46875 10.910156 8.597656 10.910156 8.726562 C 10.910156 9.046875 10.808594 9.339844 10.632812 9.578125 Z M 10.265625 7.519531 L 13.140625 5.46875 C 13.109375 5.347656 13.089844 5.222656 13.089844 5.089844 C 13.089844 4.78125 13.1875 4.492188 13.351562 4.253906 C 12.144531 2.511719 10.152344 1.453125 8 1.453125 C 4.386719 1.453125 1.453125 4.386719 1.453125 8 C 2.03125 8 2.53125 8.335938 2.765625 8.824219 L 8.050781 8.34375 C 8.21875 7.726562 8.785156 7.273438 9.453125 7.273438 C 9.753906 7.273438 10.035156 7.363281 10.265625 7.519531 Z M 8.144531 9.355469 L 2.859375 9.839844 C 2.746094 10.246094 2.460938 10.582031 2.078125 10.75 C 3.128906 13.039062 5.429688 14.542969 8 14.546875 C 9.082031 14.542969 10.144531 14.273438 11.085938 13.753906 C 10.96875 13.558594 10.910156 13.332031 10.910156 13.089844 C 10.910156 12.773438 11.011719 12.480469 11.183594 12.238281 L 9.785156 10.144531 C 9.679688 10.167969 9.570312 10.183594 9.453125 10.183594 C 8.878906 10.183594 8.378906 9.84375 8.144531 9.355469 Z M 15.082031 6.421875 C 15.210938 6.9375 15.269531 7.46875 15.273438 8 C 15.273438 9.714844 14.679688 11.289062 13.6875 12.535156 C 13.777344 12.699219 13.816406 12.890625 13.816406 13.089844 C 13.816406 13.894531 13.164062 14.546875 12.363281 14.546875 C 12.082031 14.546875 11.816406 14.464844 11.59375 14.324219 C 10.53125 14.929688 9.308594 15.273438 8 15.273438 C 6.070312 15.273438 4.222656 14.507812 2.855469 13.144531 C 2.210938 12.492188 1.695312 11.734375 1.355469 10.902344 C 0.597656 10.855469 0 10.222656 0 9.453125 C 0 8.914062 0.292969 8.445312 0.734375 8.199219 C 0.726562 8.132812 0.726562 8.066406 0.726562 8 C 0.726562 3.984375 3.984375 0.726562 8 0.726562 C 10.390625 0.730469 12.585938 1.902344 13.921875 3.796875 C 14.101562 3.6875 14.316406 3.636719 14.546875 3.636719 C 15.347656 3.636719 16 4.289062 16 5.089844 C 16 5.699219 15.625 6.222656 15.082031 6.421875 Z M 15.082031 6.421875 "/>
</g>
</svg>
