
<svg xmlns="http://www.w3.org/2000/svg" xmlns:xlink="http://www.w3.org/1999/xlink" width="16px" height="16px" viewBox="0 0 16 16" version="1.1">
<g id="surface1">
<path style=" stroke:none;fill-rule:evenodd;fill:#ff6666;fill-opacity:1;" d="M 5.324219 9.144531 L 7.144531 9.144531 L 6.492188 9.792969 C 6.832031 10.269531 7.386719 10.570312 8 10.570312 C 8.859375 10.570312 9.605469 9.980469 9.804688 9.144531 L 10.679688 9.144531 C 10.46875 10.460938 9.332031 11.429688 8 11.429688 C 7.148438 11.429688 6.378906 11.03125 5.878906 10.40625 L 5.144531 11.144531 L 5.144531 9.144531 Z M 3.285156 13.988281 C 1.449219 13.84375 0 12.304688 0 10.429688 C 0 9.253906 0.566406 8.210938 1.441406 7.558594 C 1.25 7.175781 1.144531 6.742188 1.144531 6.285156 C 1.144531 4.710938 2.421875 3.429688 4 3.429688 C 4.820312 3.429688 5.558594 3.773438 6.082031 4.328125 C 6.714844 2.953125 8.101562 2 9.714844 2 C 11.816406 2 13.546875 3.628906 13.703125 5.691406 C 15.070312 6.445312 16 7.898438 16 9.570312 C 16 11.96875 14.09375 13.921875 11.714844 13.996094 L 11.714844 14 L 3.285156 14 Z M 9.507812 7.632812 C 9.167969 7.160156 8.613281 6.859375 8 6.855469 C 7.140625 6.859375 6.394531 7.449219 6.195312 8.285156 L 5.320312 8.285156 C 5.53125 6.96875 6.667969 6 8 6 C 8.851562 6 9.621094 6.394531 10.121094 7.023438 L 10.855469 6.285156 L 10.855469 8.285156 L 8.855469 8.285156 Z M 9.507812 7.632812 "/>
</g>
</svg>
