
<svg xmlns="http://www.w3.org/2000/svg" xmlns:xlink="http://www.w3.org/1999/xlink" width="16px" height="16px" viewBox="0 0 16 16" version="1.1">
<g id="surface1">
<path style=" stroke:none;fill-rule:nonzero;fill:#ff6666;fill-opacity:1;" d="M 2.835938 2.078125 C 2.347656 2.074219 1.878906 2.265625 1.535156 2.609375 C 1.1875 2.953125 0.996094 3.425781 1 3.910156 L 1 12.089844 C 0.996094 12.574219 1.1875 13.046875 1.535156 13.390625 C 1.878906 13.734375 2.347656 13.925781 2.835938 13.921875 L 13.164062 13.921875 C 13.652344 13.925781 14.121094 13.734375 14.464844 13.390625 C 14.8125 13.046875 15.003906 12.574219 15 12.089844 L 15 3.910156 C 15.003906 3.425781 14.8125 2.953125 14.464844 2.609375 C 14.121094 2.265625 13.652344 2.074219 13.164062 2.078125 Z M 2.078125 7.308594 C 2.304688 7.410156 2.566406 7.460938 2.835938 7.460938 L 3.691406 7.460938 L 3.691406 10.691406 L 4.769531 10.691406 L 4.769531 7.460938 L 5.308594 7.460938 L 5.308594 10.691406 L 6.386719 10.691406 L 6.386719 7.460938 L 6.921875 7.460938 L 6.921875 10.691406 L 8 10.691406 L 8 7.460938 L 9.613281 7.460938 L 9.613281 10.691406 L 10.691406 10.691406 L 10.691406 7.460938 L 11.230469 7.460938 L 11.230469 10.691406 L 12.308594 10.691406 L 12.308594 7.460938 L 13.164062 7.460938 C 13.433594 7.460938 13.695312 7.410156 13.921875 7.308594 L 13.921875 12.089844 C 13.921875 12.519531 13.597656 12.847656 13.164062 12.847656 L 2.835938 12.847656 C 2.402344 12.847656 2.078125 12.519531 2.078125 12.089844 Z M 2.078125 7.308594 "/>
</g>
</svg>
