
<svg xmlns="http://www.w3.org/2000/svg" xmlns:xlink="http://www.w3.org/1999/xlink" width="16px" height="16px" viewBox="0 0 16 16" version="1.1">
<g id="surface1">
<path style=" stroke:none;fill-rule:evenodd;fill:#ff6666;fill-opacity:1;" d="M 4.746094 7.953125 L 4.746094 14.546875 L 2.304688 13.800781 L 2.339844 7.988281 L 0 8.019531 C 0 8.019531 1.316406 4.636719 3.425781 1.566406 C 3.425781 1.566406 3.429688 1.566406 3.429688 1.566406 C 3.429688 1.566406 3.429688 1.5625 3.429688 1.5625 C 3.429688 1.5625 3.429688 1.5625 3.433594 1.5625 C 5.554688 4.414062 7.050781 7.921875 7.050781 7.921875 Z M 13.695312 8.046875 L 13.695312 1.453125 L 11.253906 2.199219 L 11.289062 8.011719 L 8.949219 7.980469 C 8.949219 7.980469 10.269531 11.363281 12.375 14.433594 C 12.375 14.433594 12.378906 14.433594 12.378906 14.433594 C 12.378906 14.433594 12.378906 14.4375 12.382812 14.4375 C 14.507812 11.585938 16 8.078125 16 8.078125 Z M 13.695312 8.046875 "/>
</g>
</svg>
