
<svg xmlns="http://www.w3.org/2000/svg" xmlns:xlink="http://www.w3.org/1999/xlink" width="16px" height="16px" viewBox="0 0 16 16" version="1.1">
<g id="surface1">
<path style=" stroke:none;fill-rule:evenodd;fill:#ff6666;fill-opacity:1;" d="M 0.140625 8.050781 C 0.128906 8.890625 0.253906 9.722656 0.507812 10.523438 C 1.546875 13.785156 4.574219 16 8 16 C 11.425781 16 14.457031 13.785156 15.496094 10.523438 C 16.527344 7.257812 15.3125 3.703125 12.507812 1.742188 L 11.222656 3.585938 C 13.230469 4.976562 14.09375 7.515625 13.355469 9.84375 C 12.617188 12.175781 10.449219 13.761719 8 13.753906 C 5.554688 13.761719 3.386719 12.179688 2.644531 9.84375 C 1.90625 7.515625 2.773438 4.976562 4.777344 3.585938 L 3.492188 1.742188 C 1.429688 3.183594 0.179688 5.53125 0.140625 8.050781 Z M 6.878906 0.28125 L 6.878906 8.140625 L 9.125 8.140625 L 9.125 0 Z M 6.878906 0.28125 "/>
</g>
</svg>
