
<svg xmlns="http://www.w3.org/2000/svg" xmlns:xlink="http://www.w3.org/1999/xlink" width="16px" height="16px" viewBox="0 0 16 16" version="1.1">
<g id="surface1">
<path style=" stroke:none;fill-rule:nonzero;fill:#ff6666;fill-opacity:1;" d="M 8 0 C 12.417969 0 16 3.582031 16 8 C 16 12.417969 12.417969 16 8 16 C 3.582031 16 0 12.417969 0 8 C 0 3.582031 3.582031 0 8 0 Z M 8 1.777344 C 4.5625 1.777344 1.777344 4.5625 1.777344 8 C 1.777344 11.4375 4.5625 14.222656 8 14.222656 C 11.4375 14.222656 14.222656 11.4375 14.222656 8 C 14.222656 4.5625 11.4375 1.777344 8 1.777344 Z M 10.765625 8.890625 L 3.578125 8.890625 L 4.566406 7.109375 L 11.863281 7.109375 Z M 10.765625 8.890625 "/>
</g>
</svg>
