
<svg xmlns="http://www.w3.org/2000/svg" xmlns:xlink="http://www.w3.org/1999/xlink" width="16px" height="16px" viewBox="0 0 16 16" version="1.1">
<g id="surface1">
<path style=" stroke:none;fill-rule:nonzero;fill:#ff6666;fill-opacity:1;" d="M 9.3125 0.0390625 L 6.679688 0.433594 L 6.679688 1.246094 C 5.945312 1.386719 5.234375 1.644531 4.578125 2.007812 L 3.929688 1.234375 L 1.921875 2.945312 L 2.5625 3.703125 C 2.324219 3.996094 2.113281 4.304688 1.925781 4.625 C 1.734375 4.960938 1.582031 5.304688 1.453125 5.648438 L 0.445312 5.472656 L 0.0078125 8.074219 L 1 8.25 C 1.015625 9 1.148438 9.742188 1.390625 10.445312 L 0.5 10.964844 L 1.828125 13.238281 L 2.710938 12.730469 C 3.1875 13.28125 3.757812 13.765625 4.414062 14.160156 L 4.0625 15.136719 L 6.539062 16.023438 L 6.890625 15.058594 C 7.632812 15.179688 8.378906 15.179688 9.109375 15.0625 L 9.460938 16.039062 L 11.933594 15.121094 L 11.582031 14.164062 C 12.214844 13.789062 12.792969 13.308594 13.289062 12.734375 L 14.183594 13.25 L 15.484375 10.953125 L 14.605469 10.449219 C 14.855469 9.730469 14.980469 8.988281 14.988281 8.25 L 16.007812 8.070312 L 15.53125 5.476562 L 14.53125 5.652344 C 14.269531 4.960938 13.890625 4.3125 13.421875 3.726562 L 14.085938 2.929688 L 12.058594 1.246094 L 11.40625 2.019531 C 10.753906 1.652344 10.050781 1.394531 9.3125 1.25 Z M 7.992188 2.125 C 11.304688 2.125 13.992188 4.816406 13.992188 8.140625 C 13.992188 11.460938 11.304688 14.152344 7.992188 14.152344 C 4.679688 14.152344 1.992188 11.460938 1.992188 8.140625 C 1.992188 4.816406 4.679688 2.125 7.992188 2.125 Z M 7.984375 3.128906 C 7.867188 3.128906 7.753906 3.132812 7.640625 3.140625 C 5.984375 3.253906 4.488281 4.1875 3.65625 5.628906 C 2.285156 8.03125 3.105469 11.089844 5.492188 12.480469 C 7.882812 13.863281 10.941406 13.042969 12.324219 10.648438 C 13.699219 8.25 12.878906 5.1875 10.488281 3.800781 C 9.726562 3.359375 8.863281 3.125 7.984375 3.128906 Z M 7.929688 4.128906 C 7.949219 4.128906 7.972656 4.128906 7.992188 4.128906 C 10.203125 4.128906 11.992188 5.925781 11.992188 8.140625 C 11.992188 10.351562 10.203125 12.148438 7.992188 12.148438 C 5.78125 12.148438 3.992188 10.351562 3.992188 8.140625 C 3.992188 5.949219 5.742188 4.164062 7.929688 4.128906 Z M 7.929688 4.128906 "/>
</g>
</svg>
