
<svg xmlns="http://www.w3.org/2000/svg" xmlns:xlink="http://www.w3.org/1999/xlink" width="16px" height="16px" viewBox="0 0 16 16" version="1.1">
<g id="surface1">
<path style=" stroke:none;fill-rule:evenodd;fill:#ff6666;fill-opacity:1;" d="M 7.238281 1.507812 C 5.679688 1.667969 4.261719 2.324219 3.152344 3.316406 C 1.667969 4.648438 0.734375 6.582031 0.734375 8.734375 C 0.734375 12.746094 3.984375 16 8 16 C 12.015625 16 15.265625 12.746094 15.265625 8.734375 C 15.265625 8.203125 15.210938 7.6875 15.101562 7.191406 L 13.523438 7.53125 C 13.605469 7.917969 13.652344 8.320312 13.652344 8.734375 C 13.652344 11.855469 11.121094 14.386719 8 14.386719 C 4.878906 14.386719 2.347656 11.855469 2.347656 8.734375 C 2.347656 6.976562 3.148438 5.40625 4.40625 4.371094 C 5.203125 3.710938 6.1875 3.269531 7.261719 3.128906 L 7.285156 4.714844 C 7.285156 4.714844 9.628906 3.714844 11.535156 2.296875 C 11.535156 2.292969 11.535156 2.292969 11.535156 2.292969 C 11.535156 2.292969 11.535156 2.289062 11.53125 2.289062 C 9.480469 0.882812 7.21875 0 7.21875 0 Z M 7.238281 1.507812 "/>
</g>
</svg>
