
<svg xmlns="http://www.w3.org/2000/svg" xmlns:xlink="http://www.w3.org/1999/xlink" width="16px" height="16px" viewBox="0 0 16 16" version="1.1">
<g id="surface1">
<path style=" stroke:none;fill-rule:nonzero;fill:#ff6666;fill-opacity:1;" d="M 7.734375 5.28125 L 7.617188 6.691406 C 7.160156 6.859375 6.738281 7.097656 6.363281 7.40625 L 5.058594 6.800781 L 3.695312 9.121094 L 4.882812 9.929688 C 4.839844 10.164062 4.816406 10.402344 4.816406 10.640625 C 4.816406 10.878906 4.835938 11.117188 4.878906 11.355469 L 3.695312 12.160156 L 5.058594 14.480469 L 6.359375 13.878906 C 6.734375 14.183594 7.160156 14.421875 7.617188 14.585938 L 7.734375 16 L 10.460938 16 L 10.582031 14.589844 C 11.035156 14.421875 11.460938 14.183594 11.832031 13.875 L 13.136719 14.480469 L 14.5 12.160156 L 13.316406 11.351562 C 13.359375 11.117188 13.378906 10.878906 13.378906 10.640625 C 13.378906 10.402344 13.359375 10.164062 13.320312 9.925781 L 14.5 9.121094 L 13.136719 6.800781 L 11.835938 7.402344 C 11.460938 7.097656 11.035156 6.859375 10.582031 6.695312 L 10.460938 5.28125 Z M 9.097656 9.109375 C 9.957031 9.109375 10.65625 9.796875 10.65625 10.640625 C 10.65625 11.488281 9.957031 12.171875 9.097656 12.171875 C 8.238281 12.171875 7.539062 11.488281 7.539062 10.640625 C 7.539062 9.796875 8.238281 9.109375 9.097656 9.109375 Z M 9.097656 9.109375 "/>
<path style=" stroke:none;fill-rule:nonzero;fill:#ff6666;fill-opacity:1;" d="M 7.113281 5.570312 L 6.746094 4.800781 C 6.929688 4.582031 7.078125 4.332031 7.179688 4.0625 L 8.039062 3.992188 L 8.039062 2.382812 L 7.179688 2.3125 C 7.128906 2.179688 7.066406 2.046875 6.996094 1.925781 C 6.921875 1.800781 6.839844 1.683594 6.746094 1.570312 L 7.113281 0.804688 L 5.699219 0 L 5.203125 0.699219 C 4.917969 0.648438 4.625 0.652344 4.335938 0.699219 L 3.84375 0 L 2.425781 0.804688 L 2.796875 1.574219 C 2.609375 1.792969 2.464844 2.042969 2.363281 2.3125 L 1.5 2.382812 L 1.5 3.992188 L 2.363281 4.0625 C 2.410156 4.195312 2.472656 4.324219 2.546875 4.449219 C 2.617188 4.574219 2.703125 4.691406 2.796875 4.800781 L 2.425781 5.570312 L 3.84375 6.375 L 4.335938 5.675781 C 4.621094 5.722656 4.917969 5.722656 5.203125 5.675781 L 5.699219 6.375 Z M 5.238281 3.984375 C 4.789062 4.238281 4.21875 4.085938 3.960938 3.644531 C 3.703125 3.207031 3.855469 2.644531 4.304688 2.390625 C 4.75 2.136719 5.320312 2.289062 5.578125 2.726562 C 5.835938 3.167969 5.683594 3.730469 5.238281 3.984375 Z M 5.238281 3.984375 "/>
</g>
</svg>
