
<svg xmlns="http://www.w3.org/2000/svg" xmlns:xlink="http://www.w3.org/1999/xlink" width="16px" height="16px" viewBox="0 0 16 16" version="1.1">
<g id="surface1">
<path style=" stroke:none;fill-rule:nonzero;fill:#ff6666;fill-opacity:1;" d="M 0 3.332031 L 0 12.667969 C 0 13.585938 0.746094 14.332031 1.667969 14.332031 L 14.332031 14.332031 C 15.253906 14.332031 16 13.585938 16 12.667969 L 16 3.332031 C 16 2.414062 15.253906 1.667969 14.332031 1.667969 L 1.667969 1.667969 C 0.746094 1.667969 0 2.414062 0 3.332031 Z M 15.332031 8 C 15.332031 8.554688 14.886719 9 14.332031 9 C 13.78125 9 13.332031 8.554688 13.332031 8 C 13.332031 7.445312 13.78125 7 14.332031 7 C 14.886719 7 15.332031 7.445312 15.332031 8 Z M 12.667969 3 L 12.667969 13 L 2 13 L 2 3 Z M 12.667969 3 "/>
</g>
</svg>
