
<svg xmlns="http://www.w3.org/2000/svg" xmlns:xlink="http://www.w3.org/1999/xlink" width="16px" height="16px" viewBox="0 0 16 16" version="1.1">
<g id="surface1">
<path style=" stroke:none;fill-rule:nonzero;fill:#ff6666;fill-opacity:1;" d="M 2.632812 0 C 2.632812 0 1.996094 -0.0078125 1.34375 0.320312 C 0.691406 0.644531 0 1.402344 0 2.632812 L 0 8.109375 L 7.890625 16 L 16 7.890625 L 8.109375 0 Z M 2.632812 1.054688 L 7.671875 1.054688 L 14.511719 7.890625 L 7.890625 14.511719 L 1.054688 7.671875 L 1.054688 2.632812 C 1.054688 1.753906 1.410156 1.460938 1.8125 1.257812 C 2.214844 1.058594 2.632812 1.054688 2.632812 1.054688 Z M 3.679688 2.101562 C 2.816406 2.101562 2.101562 2.816406 2.101562 3.679688 C 2.101562 4.546875 2.816406 5.257812 3.679688 5.257812 C 4.546875 5.257812 5.257812 4.546875 5.257812 3.679688 C 5.257812 2.816406 4.546875 2.101562 3.679688 2.101562 Z M 3.679688 3.15625 C 3.976562 3.15625 4.210938 3.386719 4.210938 3.679688 C 4.210938 3.976562 3.976562 4.210938 3.679688 4.210938 C 3.386719 4.210938 3.15625 3.976562 3.15625 3.679688 C 3.15625 3.386719 3.386719 3.15625 3.679688 3.15625 Z M 3.679688 3.15625 "/>
</g>
</svg>
