
<svg xmlns="http://www.w3.org/2000/svg" xmlns:xlink="http://www.w3.org/1999/xlink" width="16px" height="16px" viewBox="0 0 16 16" version="1.1">
<g id="surface1">
<path style=" stroke:none;fill-rule:nonzero;fill:#ff6666;fill-opacity:1;" d="M 9.121094 0.0664062 C 12.777344 -0.414062 14.109375 1.820312 15.539062 3.105469 C 12.988281 2.675781 12.757812 -0.425781 8.066406 1.566406 C 4.316406 3.15625 4.910156 6.429688 3.894531 8.621094 L 2.085938 7.640625 C 3 4.230469 5.910156 0.488281 9.121094 0.0664062 Z M 9.121094 0.0664062 "/>
<path style=" stroke:none;fill-rule:evenodd;fill:#ff6666;fill-opacity:1;" d="M 10.054688 6.410156 C 10.058594 7.152344 10.066406 7.898438 10.074219 8.644531 C 10.082031 9.148438 10.097656 9.652344 10.121094 10.15625 C 10.136719 10.53125 10.164062 10.898438 10.207031 11.269531 C 10.234375 11.535156 10.28125 11.800781 10.351562 12.0625 C 10.402344 12.273438 10.492188 12.476562 10.617188 12.660156 C 10.738281 12.84375 10.914062 12.980469 11.117188 13.066406 C 11.289062 13.132812 11.480469 13.164062 11.667969 13.15625 L 12.199219 13.140625 L 12.164062 12.074219 L 11.632812 12.09375 C 11.59375 12.09375 11.554688 12.089844 11.515625 12.074219 C 11.507812 12.070312 11.5 12.066406 11.496094 12.0625 C 11.445312 11.980469 11.40625 11.894531 11.382812 11.800781 C 11.328125 11.589844 11.289062 11.371094 11.265625 11.15625 C 11.226562 10.808594 11.203125 10.460938 11.1875 10.109375 C 11.164062 9.617188 11.148438 9.121094 11.140625 8.628906 C 11.132812 7.890625 11.125 7.148438 11.117188 6.410156 L 12.183594 6.410156 L 12.183594 5.34375 L 11.113281 5.34375 C 11.113281 4.929688 11.113281 4.515625 11.117188 4.105469 L 11.121094 3.570312 L 10.054688 3.566406 L 10.050781 4.097656 C 10.050781 4.511719 10.050781 4.929688 10.050781 5.34375 L 8.984375 5.34375 L 8.984375 6.410156 Z M 1.523438 7.476562 C 1.027344 7.503906 0.617188 7.53125 0.515625 7.789062 C 0.222656 8.699219 1.242188 8.566406 1.242188 8.566406 L 0.925781 8.222656 C 0.753906 7.484375 3.988281 8.90625 4.855469 9.953125 C 7.277344 12.878906 7.46875 16.640625 12.671875 15.90625 C 13.472656 15.792969 14.265625 15.710938 15.023438 15.023438 C 13.988281 15.289062 13.058594 15.308594 12.230469 15.398438 C 9.335938 15.699219 8.480469 14.628906 7.476562 12.4375 C 6.863281 11.070312 5.933594 9.636719 4.710938 8.660156 L 4.78125 7.527344 L 4.269531 8.339844 C 3.464844 7.808594 2.550781 7.476562 1.523438 7.476562 Z M 1.523438 7.476562 "/>
</g>
</svg>
