
<svg xmlns="http://www.w3.org/2000/svg" xmlns:xlink="http://www.w3.org/1999/xlink" width="16px" height="16px" viewBox="0 0 16 16" version="1.1">
<g id="surface1">
<path style=" stroke:none;fill-rule:evenodd;fill:#ff6666;fill-opacity:1;" d="M 3.789062 12.945312 C 2.003906 11.644531 0.84375 9.535156 0.84375 7.15625 C 0.84375 3.203125 4.046875 0 8 0 C 11.953125 0 15.15625 3.203125 15.15625 7.15625 C 15.15625 11.109375 11.953125 14.316406 8 14.316406 C 7.589844 14.316406 7.183594 14.28125 6.789062 14.214844 L 5.730469 14.9375 L 4.242188 15.953125 C 4.148438 16.015625 4.035156 16.015625 3.941406 15.953125 C 3.847656 15.886719 3.789062 15.769531 3.789062 15.640625 Z M 4.210938 7.15625 L 11.789062 7.15625 C 11.789062 9.25 10.09375 10.945312 8 10.945312 C 5.90625 10.945312 4.210938 9.25 4.210938 7.15625 Z M 4.210938 7.15625 "/>
</g>
</svg>
