
<svg xmlns="http://www.w3.org/2000/svg" xmlns:xlink="http://www.w3.org/1999/xlink" width="16px" height="16px" viewBox="0 0 16 16" version="1.1">
<g id="surface1">
<path style=" stroke:none;fill-rule:evenodd;fill:#ff6666;fill-opacity:1;" d="M 8.234375 1.144531 L 12.570312 6.089844 L 11.550781 7.03125 L 9.992188 5.253906 L 5.785156 9.144531 L 4.570312 7.757812 L 8.78125 3.867188 L 7.214844 2.085938 Z M 1.851562 8.292969 L 2.980469 9.691406 L 2.851562 11.183594 L 4.835938 13.640625 L 4.804688 14.003906 L 1.691406 10.144531 Z M 8.046875 0 C 7.765625 0.00390625 7.492188 0.0195312 7.253906 0.0546875 C 6.363281 0.203125 5.484375 0.546875 4.726562 0.929688 C 2.453125 2.097656 -0.046875 5.023438 0 7.230469 L 0.00390625 7.226562 C 0.0078125 7.304688 0.0195312 7.394531 0.046875 7.5 C 0.121094 7.78125 0.28125 8.160156 0.519531 8.605469 C 0.992188 9.5 1.769531 10.660156 2.734375 11.890625 C 4.210938 13.769531 5.703125 15.246094 6.539062 15.714844 L 6.539062 15.71875 C 7.128906 16.101562 7.636719 16 7.8125 15.945312 C 8.40625 15.839844 9.722656 14.984375 11.332031 13.609375 C 13.652344 11.628906 15.714844 9.308594 15.964844 8.402344 L 15.976562 8.417969 C 16.363281 4.753906 12.203125 1.710938 11.671875 1.316406 C 10.6875 0.496094 9.425781 0 8.046875 0 Z M 13.894531 10.65625 C 13.59375 10.96875 13.285156 11.277344 12.972656 11.582031 C 12.65625 11.886719 12.335938 12.191406 12.003906 12.492188 C 11.261719 13.167969 10.695312 13.632812 10.300781 13.878906 C 9.910156 14.125 9.746094 14.121094 9.816406 13.863281 C 9.886719 13.605469 10.160156 13.203125 10.644531 12.652344 C 11.125 12.101562 11.75 11.472656 12.515625 10.773438 C 12.8125 10.5 13.09375 10.253906 13.359375 10.027344 C 13.628906 9.796875 13.875 9.59375 14.105469 9.410156 L 14.015625 9.742188 C 13.78125 9.921875 13.542969 10.109375 13.304688 10.308594 C 13.066406 10.507812 12.824219 10.71875 12.574219 10.945312 C 12.117188 11.363281 11.753906 11.730469 11.480469 12.050781 C 11.210938 12.367188 11.050781 12.609375 11.003906 12.78125 C 10.957031 12.949219 11.042969 12.972656 11.257812 12.847656 C 11.46875 12.722656 11.796875 12.457031 12.234375 12.054688 C 12.355469 11.945312 12.464844 11.84375 12.570312 11.746094 C 12.675781 11.644531 12.769531 11.554688 12.851562 11.46875 L 12.9375 11.15625 L 12.234375 11.796875 L 12.3125 11.519531 L 14.101562 9.886719 Z M 13.894531 10.65625 "/>
</g>
</svg>
