
<svg xmlns="http://www.w3.org/2000/svg" xmlns:xlink="http://www.w3.org/1999/xlink" width="16px" height="16px" viewBox="0 0 16 16" version="1.1">
<g id="surface1">
<path style=" stroke:none;fill-rule:nonzero;fill:#ff6666;fill-opacity:1;" d="M 8.628906 0.0234375 C 5.328125 -0.234375 2.207031 1.566406 0.777344 4.558594 L 5.15625 5.730469 C 5.730469 5.015625 6.550781 4.542969 7.457031 4.40625 Z M 11.441406 0.777344 L 10.269531 5.15625 C 10.984375 5.730469 11.457031 6.550781 11.59375 7.457031 L 15.976562 8.628906 C 16.234375 5.328125 14.433594 2.203125 11.441406 0.777344 Z M 0.0234375 7.371094 C -0.234375 10.671875 1.566406 13.792969 4.558594 15.222656 L 5.730469 10.84375 C 5.015625 10.269531 4.542969 9.449219 4.40625 8.542969 Z M 10.84375 10.269531 C 10.269531 10.984375 9.449219 11.457031 8.542969 11.59375 L 7.371094 15.976562 C 10.671875 16.234375 13.792969 14.433594 15.222656 11.441406 Z M 10.84375 10.269531 "/>
</g>
</svg>
