
<svg xmlns="http://www.w3.org/2000/svg" xmlns:xlink="http://www.w3.org/1999/xlink" width="16px" height="16px" viewBox="0 0 16 16" version="1.1">
<g id="surface1">
<path style=" stroke:none;fill-rule:nonzero;fill:#ff6666;fill-opacity:1;" d="M 6.15625 0.0078125 C 5.519531 0.03125 4.875 0.117188 4.226562 0.265625 C 3.441406 0.445312 3.140625 0.589844 2.886719 0.898438 C 2.613281 1.230469 2.53125 1.5 2.207031 3.207031 C 1.898438 4.796875 1.910156 4.773438 1.320312 5.203125 C 1.015625 5.421875 0.683594 5.917969 0.574219 6.324219 C 0.460938 6.738281 0.480469 7.453125 0.617188 7.890625 C 0.707031 8.179688 0.835938 8.378906 1.136719 8.699219 C 1.484375 9.070312 1.601562 9.148438 2.011719 9.28125 C 2.835938 9.550781 3.625 9.34375 4.230469 8.703125 C 4.664062 8.238281 4.84375 7.765625 4.84375 7.050781 C 4.84375 6.496094 4.746094 6.113281 4.496094 5.722656 C 5.472656 6.9375 5.878906 8.339844 5.722656 9.984375 C 5.574219 11.5 5.207031 12.410156 4.363281 13.363281 L 4.03125 13.738281 L 4.269531 13.785156 C 4.398438 13.808594 4.535156 13.835938 4.570312 13.847656 C 4.71875 13.902344 5.894531 13.875 6.105469 13.8125 C 6.234375 13.773438 6.398438 13.664062 6.472656 13.566406 C 6.597656 13.398438 6.601562 13.335938 6.566406 12.699219 C 6.527344 12.078125 6.535156 11.996094 6.652344 11.824219 C 6.761719 11.660156 6.765625 11.625 6.683594 11.554688 C 6.550781 11.4375 6.570312 11.203125 6.722656 11.101562 C 6.828125 11.03125 6.84375 10.96875 6.816406 10.785156 C 6.792969 10.660156 6.761719 10.453125 6.742188 10.324219 C 6.6875 10.007812 6.8125 9.867188 7.320312 9.6875 C 7.539062 9.609375 7.734375 9.507812 7.753906 9.457031 C 7.792969 9.351562 7.742188 9.257812 7.082031 8.214844 C 6.5625 7.390625 6.34375 6.972656 6.34375 6.789062 C 6.34375 6.722656 6.429688 6.539062 6.53125 6.375 C 6.765625 6.003906 6.765625 5.785156 6.53125 5.035156 C 6.039062 3.46875 5.121094 2.121094 4.179688 1.59375 L 3.867188 1.417969 C 3.871094 1.273438 3.871094 0.820312 3.878906 0.808594 C 3.988281 0.695312 4.742188 0.589844 5.71875 0.554688 C 7.679688 0.480469 9.390625 0.9375 11.03125 1.964844 C 12.757812 3.050781 13.863281 4.5625 14.34375 6.492188 C 14.574219 7.421875 14.585938 8.765625 14.371094 9.613281 C 14.105469 10.675781 13.617188 11.621094 12.902344 12.457031 C 12.101562 13.390625 10.394531 14.546875 9.144531 15 C 7.601562 15.5625 5.671875 15.667969 4.03125 15.285156 C 3.796875 15.230469 3.445312 15.148438 3.25 15.101562 C 2.898438 15.019531 2.535156 15.054688 2.535156 15.167969 C 2.535156 15.242188 3.714844 15.632812 4.355469 15.773438 C 4.621094 15.835938 5.074219 15.90625 5.363281 15.9375 C 8.347656 16.25 11.125 15.371094 13.128906 13.472656 C 15.5 11.226562 16.15625 7.964844 14.8125 5.113281 C 14.195312 3.804688 12.839844 2.3125 11.449219 1.410156 C 9.898438 0.410156 8.070312 -0.0664062 6.15625 0.0078125 Z M 6.15625 0.0078125 "/>
</g>
</svg>
