
<svg xmlns="http://www.w3.org/2000/svg" xmlns:xlink="http://www.w3.org/1999/xlink" width="16px" height="16px" viewBox="0 0 16 16" version="1.1">
<g id="surface1">
<path style=" stroke:none;fill-rule:evenodd;fill:#ff6666;fill-opacity:1;" d="M -0.03125 12.5 L 15.96875 12.5 L 15.96875 14.5 L -0.03125 14.5 Z M -0.03125 12.5 "/>
<path style=" stroke:none;fill-rule:evenodd;fill:#ff6666;fill-opacity:1;" d="M 7.261719 2.964844 L 4.804688 2.964844 L 4.804688 10.183594 L 3.324219 10.183594 L 3.324219 2.964844 L 0.871094 2.964844 L 0.871094 1.546875 L 7.261719 1.546875 Z M 12.105469 10.328125 C 11.589844 10.328125 11.121094 10.242188 10.699219 10.070312 C 10.28125 9.898438 9.9375 9.667969 9.671875 9.378906 C 9.402344 9.09375 9.179688 8.75 9 8.355469 C 8.816406 7.960938 8.6875 7.558594 8.609375 7.148438 C 8.53125 6.738281 8.492188 6.308594 8.492188 5.863281 C 8.492188 5.339844 8.558594 4.824219 8.691406 4.324219 C 8.824219 3.820312 9.023438 3.347656 9.296875 2.898438 C 9.566406 2.449219 9.945312 2.089844 10.429688 1.8125 C 10.914062 1.539062 11.472656 1.398438 12.105469 1.398438 C 12.871094 1.398438 13.511719 1.578125 14.03125 1.9375 C 14.550781 2.292969 14.910156 2.726562 15.117188 3.238281 L 13.785156 3.84375 C 13.554688 3.488281 13.3125 3.230469 13.0625 3.066406 C 12.8125 2.898438 12.492188 2.816406 12.105469 2.816406 C 11.730469 2.816406 11.398438 2.910156 11.113281 3.097656 C 10.832031 3.28125 10.613281 3.527344 10.460938 3.835938 C 10.308594 4.144531 10.199219 4.46875 10.128906 4.808594 C 10.058594 5.152344 10.023438 5.503906 10.023438 5.863281 C 10.023438 6.671875 10.203125 7.378906 10.558594 7.984375 C 10.917969 8.59375 11.433594 8.898438 12.105469 8.898438 C 12.765625 8.898438 13.316406 8.527344 13.761719 7.789062 L 15.128906 8.308594 C 14.527344 9.65625 13.523438 10.328125 12.105469 10.328125 Z M 12.105469 10.328125 "/>
</g>
</svg>
