
<svg xmlns="http://www.w3.org/2000/svg" xmlns:xlink="http://www.w3.org/1999/xlink" width="16px" height="16px" viewBox="0 0 16 16" version="1.1">
<g id="surface1">
<path style=" stroke:none;fill-rule:evenodd;fill:#ff6666;fill-opacity:1;" d="M 8.710938 7.035156 C 8.730469 7.179688 8.746094 7.324219 8.761719 7.46875 C 8.804688 7.878906 8.765625 8.292969 8.738281 8.703125 C 8.722656 9.066406 8.738281 9.429688 8.742188 9.792969 C 8.75 10.074219 8.722656 10.355469 8.699219 10.636719 C 8.683594 10.828125 8.707031 11.019531 8.703125 11.214844 C 8.699219 11.394531 8.671875 11.574219 8.640625 11.757812 C 8.980469 11.726562 9.324219 11.691406 9.664062 11.664062 C 9.90625 11.625 10.152344 11.589844 10.398438 11.554688 C 10.46875 11.558594 10.535156 11.550781 10.601562 11.539062 C 10.664062 11.511719 11.070312 12.417969 11.007812 12.445312 C 10.914062 12.472656 10.828125 12.503906 10.734375 12.523438 C 10.511719 12.535156 10.292969 12.605469 10.070312 12.632812 C 9.707031 12.730469 9.335938 12.785156 8.960938 12.824219 C 8.8125 12.832031 8.667969 12.847656 8.523438 12.863281 C 8.527344 12.953125 8.527344 13.039062 8.53125 13.128906 C 8.554688 13.46875 8.550781 13.808594 8.550781 14.148438 C 8.550781 14.433594 8.542969 14.71875 8.519531 15.003906 C 8.503906 15.128906 8.507812 15.253906 8.507812 15.378906 C 8.507812 15.449219 7.519531 15.457031 7.519531 15.386719 C 7.519531 15.253906 7.519531 15.125 7.5 14.996094 C 7.484375 14.714844 7.484375 14.429688 7.492188 14.148438 C 7.488281 13.816406 7.472656 13.488281 7.460938 13.15625 C 7.460938 13.105469 7.457031 13.054688 7.457031 13.003906 C 7.304688 13.050781 7.15625 13.125 6.992188 13.144531 C 6.59375 13.226562 6.191406 13.3125 5.785156 13.300781 C 5.71875 13.332031 5.277344 12.425781 5.34375 12.394531 C 5.734375 12.214844 6.167969 12.167969 6.589844 12.121094 C 6.867188 12.128906 7.121094 12.039062 7.386719 11.96875 C 7.433594 11.960938 7.484375 11.949219 7.53125 11.9375 C 7.546875 11.820312 7.558594 11.703125 7.578125 11.589844 C 7.640625 11.234375 7.582031 11.589844 7.648438 11.277344 C 7.65625 11.230469 7.660156 11.183594 7.671875 11.140625 C 7.703125 10.976562 7.71875 10.808594 7.703125 10.640625 C 7.675781 10.359375 7.640625 10.078125 7.640625 9.796875 C 7.640625 9.414062 7.652344 9.035156 7.6875 8.65625 C 7.699219 8.289062 7.65625 7.925781 7.613281 7.5625 C 7.59375 7.363281 7.578125 7.164062 7.570312 6.960938 C 7.550781 7.023438 7.542969 7.085938 7.539062 7.15625 C 7.507812 7.363281 7.425781 7.558594 7.328125 7.746094 C 7.265625 7.84375 7.246094 7.953125 7.199219 8.0625 C 7.136719 8.207031 7.050781 8.339844 6.984375 8.480469 C 6.921875 8.636719 6.855469 8.792969 6.796875 8.949219 C 6.71875 9.203125 6.582031 9.421875 6.425781 9.632812 C 6.355469 9.703125 6.308594 9.78125 6.273438 9.871094 C 6.183594 10.058594 6.085938 10.238281 5.980469 10.417969 C 5.894531 10.5625 5.800781 10.695312 5.71875 10.839844 C 5.628906 11 5.554688 11.164062 5.464844 11.324219 C 5.371094 11.488281 5.273438 11.648438 5.183594 11.8125 C 5.0625 12.011719 4.914062 12.195312 4.765625 12.371094 C 4.679688 12.480469 4.589844 12.59375 4.535156 12.722656 C 4.445312 12.9375 4.308594 13.125 4.164062 13.300781 C 4.039062 13.46875 3.898438 13.613281 3.765625 13.769531 C 3.675781 13.894531 3.554688 14 3.476562 14.136719 C 3.390625 14.3125 3.257812 14.460938 3.132812 14.609375 C 3.019531 14.757812 2.894531 14.886719 2.761719 15.015625 C 2.636719 15.140625 2.511719 15.261719 2.386719 15.386719 C 2.261719 15.511719 2.140625 15.636719 2.019531 15.761719 C 1.9375 15.839844 1.863281 15.921875 1.773438 15.996094 C 1.730469 16.050781 0.953125 15.4375 0.996094 15.382812 C 1.066406 15.296875 1.148438 15.222656 1.226562 15.140625 C 1.351562 15.019531 1.472656 14.894531 1.59375 14.765625 C 1.722656 14.636719 1.851562 14.503906 1.988281 14.378906 C 2.09375 14.28125 2.203125 14.1875 2.292969 14.070312 C 2.386719 13.945312 2.496094 13.828125 2.582031 13.691406 C 2.6875 13.519531 2.792969 13.359375 2.925781 13.210938 C 3.058594 13.046875 3.195312 12.886719 3.324219 12.71875 C 3.425781 12.613281 3.53125 12.507812 3.601562 12.378906 C 3.691406 12.179688 3.78125 11.972656 3.917969 11.800781 C 4.042969 11.652344 4.171875 11.5 4.285156 11.34375 C 4.328125 11.289062 4.378906 11.230469 4.410156 11.171875 C 4.429688 11.132812 4.46875 11.027344 4.484375 10.996094 C 4.496094 10.96875 4.515625 10.9375 4.53125 10.90625 C 4.621094 10.734375 4.742188 10.585938 4.824219 10.410156 C 4.910156 10.269531 4.988281 10.121094 5.058594 9.972656 C 5.148438 9.820312 5.226562 9.648438 5.359375 9.527344 C 5.429688 9.402344 5.46875 9.257812 5.546875 9.136719 C 5.652344 8.960938 5.757812 8.785156 5.851562 8.605469 C 5.925781 8.457031 5.992188 8.3125 6.039062 8.152344 C 6.101562 7.996094 6.183594 7.851562 6.28125 7.714844 C 6.289062 7.699219 6.296875 7.679688 6.304688 7.664062 C 6.308594 7.660156 6.316406 7.660156 6.316406 7.65625 C 6.363281 7.554688 6.359375 7.429688 6.429688 7.335938 C 6.492188 7.25 6.503906 7.140625 6.550781 7.046875 C 6.585938 6.859375 6.589844 6.664062 6.699219 6.503906 C 6.753906 6.390625 6.816406 6.285156 6.855469 6.167969 C 6.886719 6.082031 6.914062 5.996094 6.941406 5.914062 C 6.8125 5.949219 6.683594 5.976562 6.550781 5.96875 C 6.355469 5.992188 6.164062 6.046875 5.96875 6.046875 C 5.835938 6.0625 5.707031 6.09375 5.574219 6.113281 C 5.4375 6.132812 5.300781 6.132812 5.167969 6.175781 C 4.875 6.214844 4.585938 6.257812 4.292969 6.300781 C 4.058594 6.316406 3.824219 6.359375 3.59375 6.410156 C 3.425781 6.433594 3.257812 6.484375 3.089844 6.496094 C 2.941406 6.507812 2.796875 6.507812 2.648438 6.511719 C 2.601562 6.511719 2.554688 6.511719 2.507812 6.507812 C 2.277344 6.503906 2.050781 6.492188 1.820312 6.496094 C 1.59375 6.492188 1.371094 6.503906 1.144531 6.511719 C 0.859375 6.519531 0.570312 6.535156 0.285156 6.480469 C 0.21875 6.460938 0.464844 5.503906 0.53125 5.519531 C 0.820312 5.46875 1.113281 5.480469 1.40625 5.488281 C 1.628906 5.496094 1.851562 5.507812 2.070312 5.503906 C 2.304688 5.507812 2.535156 5.496094 2.769531 5.488281 C 3.128906 5.488281 2.78125 5.492188 2.769531 5.484375 C 2.734375 5.457031 2.851562 5.476562 2.890625 5.476562 C 3.011719 5.464844 3.132812 5.457031 3.25 5.445312 C 3.472656 5.417969 3.695312 5.363281 3.914062 5.320312 C 4.210938 5.265625 4.507812 5.21875 4.804688 5.183594 C 5.070312 5.148438 5.332031 5.109375 5.597656 5.070312 C 5.804688 5.046875 6.007812 5.042969 6.214844 5.023438 C 6.390625 5.011719 6.503906 5.007812 6.671875 4.953125 C 6.902344 4.878906 7.140625 4.832031 7.382812 4.804688 C 7.382812 4.726562 7.382812 4.648438 7.390625 4.570312 C 7.382812 4.292969 7.339844 4.027344 7.3125 3.753906 C 7.289062 3.320312 7.292969 2.886719 7.238281 2.457031 C 7.195312 2.046875 7.152344 1.636719 7.132812 1.226562 C 7.113281 0.863281 7.042969 0.503906 7.035156 0.140625 C 7.027344 0.0703125 8.011719 -0.0507812 8.019531 0.0195312 C 8.1875 0.382812 8.210938 0.792969 8.222656 1.1875 C 8.234375 1.570312 8.277344 1.957031 8.335938 2.339844 C 8.421875 2.796875 8.410156 3.261719 8.410156 3.726562 C 8.402344 4.003906 8.410156 4.28125 8.410156 4.5625 C 8.410156 4.597656 8.410156 4.636719 8.414062 4.671875 C 8.664062 4.617188 8.917969 4.585938 9.171875 4.546875 C 9.355469 4.527344 9.542969 4.492188 9.726562 4.480469 C 9.757812 4.476562 9.785156 4.480469 9.8125 4.480469 C 9.839844 4.476562 9.871094 4.472656 9.902344 4.472656 C 10.082031 4.429688 10.265625 4.449219 10.449219 4.421875 C 10.617188 4.386719 10.789062 4.351562 10.960938 4.324219 C 11.132812 4.285156 11.304688 4.261719 11.476562 4.230469 C 11.707031 4.195312 11.9375 4.164062 12.160156 4.105469 C 12.355469 4.042969 12.558594 3.996094 12.753906 3.9375 C 12.945312 3.875 13.128906 3.800781 13.316406 3.730469 C 13.496094 3.65625 13.6875 3.640625 13.875 3.601562 C 14.011719 3.585938 14.027344 3.589844 14.15625 3.539062 C 14.300781 3.484375 14.445312 3.449219 14.582031 3.382812 C 14.75 3.285156 14.917969 3.253906 15.105469 3.238281 C 15.113281 3.238281 15.121094 3.238281 15.128906 3.234375 C 15.191406 3.203125 15.636719 4.09375 15.574219 4.125 C 15.535156 4.136719 15.5 4.148438 15.460938 4.160156 C 15.410156 4.171875 15.359375 4.1875 15.308594 4.1875 C 15.300781 4.191406 15.296875 4.179688 15.289062 4.175781 C 15.246094 4.160156 15.199219 4.183594 15.160156 4.199219 C 14.996094 4.273438 14.839844 4.371094 14.65625 4.410156 C 14.539062 4.441406 14.425781 4.480469 14.308594 4.507812 C 14.296875 4.511719 14.300781 4.460938 14.28125 4.503906 C 14.207031 4.519531 14.140625 4.550781 14.070312 4.570312 C 13.984375 4.589844 13.894531 4.59375 13.8125 4.628906 C 13.707031 4.648438 13.617188 4.695312 13.515625 4.734375 C 13.257812 4.832031 13.523438 4.734375 13.328125 4.785156 C 13.296875 4.796875 13.265625 4.808594 13.230469 4.820312 C 13.046875 4.878906 12.859375 4.949219 12.675781 5.015625 C 12.472656 5.09375 12.265625 5.164062 12.046875 5.175781 C 12.011719 5.179688 11.976562 5.175781 11.9375 5.175781 C 11.90625 5.175781 11.871094 5.183594 11.839844 5.183594 C 11.765625 5.191406 11.695312 5.203125 11.621094 5.207031 C 11.605469 5.210938 11.59375 5.199219 11.578125 5.199219 C 11.511719 5.199219 11.445312 5.230469 11.378906 5.242188 C 11.203125 5.285156 11.023438 5.320312 10.84375 5.347656 C 10.644531 5.394531 10.453125 5.441406 10.246094 5.425781 C 10.175781 5.4375 10.105469 5.453125 10.03125 5.464844 C 10.003906 5.464844 9.976562 5.460938 9.949219 5.464844 C 9.820312 5.46875 9.707031 5.519531 9.582031 5.542969 C 9.390625 5.578125 9.199219 5.601562 9.007812 5.625 C 9.160156 5.777344 9.28125 5.960938 9.382812 6.15625 C 9.394531 6.1875 9.410156 6.214844 9.421875 6.246094 C 9.460938 6.351562 9.460938 6.359375 9.476562 6.472656 C 9.480469 6.484375 9.484375 6.519531 9.480469 6.507812 C 9.445312 6.394531 9.453125 6.417969 9.480469 6.453125 C 9.582031 6.484375 9.65625 6.699219 9.71875 6.792969 C 9.761719 6.863281 9.835938 6.90625 9.890625 6.964844 C 9.914062 6.988281 9.992188 7.089844 10.015625 7.117188 C 10.144531 7.265625 10.273438 7.410156 10.378906 7.578125 C 10.457031 7.71875 10.539062 7.859375 10.617188 8.003906 C 10.699219 8.105469 10.777344 8.207031 10.863281 8.308594 C 10.984375 8.464844 11.109375 8.617188 11.21875 8.785156 C 11.308594 8.90625 11.402344 9.03125 11.480469 9.167969 C 11.570312 9.3125 11.6875 9.441406 11.792969 9.578125 C 11.9375 9.757812 12.054688 9.960938 12.203125 10.136719 C 12.316406 10.277344 12.441406 10.40625 12.574219 10.53125 C 12.699219 10.644531 12.820312 10.765625 12.941406 10.890625 C 13.066406 11.015625 13.191406 11.144531 13.316406 11.273438 C 13.339844 11.292969 13.355469 11.316406 13.378906 11.335938 C 13.414062 11.367188 13.460938 11.386719 13.5 11.417969 C 13.585938 11.476562 13.660156 11.546875 13.738281 11.613281 C 13.753906 11.625 13.769531 11.640625 13.785156 11.648438 C 13.800781 11.660156 13.816406 11.660156 13.832031 11.667969 C 13.855469 11.679688 13.878906 11.691406 13.902344 11.707031 C 13.992188 11.757812 14.078125 11.8125 14.164062 11.871094 C 14.359375 11.980469 14.523438 12.132812 14.703125 12.261719 C 14.8125 12.324219 14.894531 12.417969 14.988281 12.496094 C 15.027344 12.53125 15.074219 12.5625 15.117188 12.597656 C 15.230469 12.691406 15.351562 12.773438 15.476562 12.851562 C 15.558594 12.875 15.636719 12.917969 15.71875 12.945312 C 15.777344 12.984375 15.246094 13.816406 15.1875 13.777344 C 15.070312 13.726562 14.949219 13.679688 14.839844 13.613281 C 14.675781 13.515625 14.515625 13.40625 14.371094 13.277344 C 14.261719 13.171875 14.152344 13.070312 14.011719 13.003906 C 13.835938 12.882812 13.664062 12.746094 13.484375 12.628906 C 13.320312 12.519531 13.148438 12.417969 12.988281 12.296875 C 12.828125 12.167969 12.664062 12.046875 12.523438 11.890625 C 12.398438 11.761719 12.273438 11.632812 12.148438 11.5 C 12.042969 11.390625 11.9375 11.28125 11.816406 11.1875 C 11.636719 11.035156 11.464844 10.871094 11.324219 10.675781 C 11.191406 10.480469 11.046875 10.296875 10.914062 10.101562 C 10.804688 9.945312 10.699219 9.785156 10.605469 9.617188 C 10.523438 9.507812 10.441406 9.398438 10.355469 9.292969 C 10.238281 9.148438 10.117188 9.007812 10.023438 8.847656 C 9.921875 8.714844 9.816406 8.585938 9.734375 8.441406 C 9.644531 8.3125 9.570312 8.175781 9.484375 8.050781 C 9.394531 7.925781 9.304688 7.800781 9.199219 7.691406 C 9.058594 7.546875 8.910156 7.410156 8.816406 7.226562 C 8.78125 7.160156 8.746094 7.097656 8.710938 7.035156 Z M 8.710938 7.035156 "/>
</g>
</svg>
