
<svg xmlns="http://www.w3.org/2000/svg" xmlns:xlink="http://www.w3.org/1999/xlink" width="16px" height="16px" viewBox="0 0 16 16" version="1.1">
<g id="surface1">
<path style=" stroke:none;fill-rule:evenodd;fill:#ff6666;fill-opacity:1;" d="M 11.988281 5.570312 C 11.054688 4.878906 9.894531 4.480469 8.640625 4.480469 C 8.230469 4.480469 7.828125 4.523438 7.449219 4.621094 C 6.980469 3.90625 6.226562 3.398438 5.347656 3.253906 C 5.839844 1.910156 7.128906 0.960938 8.640625 0.960938 C 10.585938 0.960938 12.160156 2.535156 12.160156 4.480469 C 12.160156 4.859375 12.097656 5.226562 11.988281 5.570312 Z M 12.75 6.230469 C 13.777344 7.253906 14.398438 8.675781 14.398438 10.238281 C 14.398438 13.421875 11.820312 16 8.640625 16 C 5.460938 16 2.878906 13.421875 2.878906 10.238281 C 2.878906 9.828125 2.921875 9.429688 3.023438 9.050781 C 2.160156 8.484375 1.601562 7.507812 1.601562 6.398438 C 1.601562 4.789062 2.785156 3.460938 4.335938 3.238281 C 4.871094 1.367188 6.597656 0 8.640625 0 C 11.113281 0 13.121094 2.007812 13.121094 4.480469 C 13.121094 5.101562 12.992188 5.695312 12.75 6.230469 Z M 5.292969 5.578125 C 5.644531 5.308594 6.039062 5.09375 6.457031 4.929688 C 6.128906 4.53125 5.660156 4.265625 5.128906 4.1875 C 5.125 4.285156 5.121094 4.382812 5.121094 4.480469 C 5.121094 4.863281 5.179688 5.234375 5.292969 5.578125 Z M 4.53125 6.234375 C 4.011719 6.742188 3.601562 7.367188 3.328125 8.058594 C 2.851562 7.664062 2.558594 7.066406 2.558594 6.398438 C 2.558594 5.386719 3.234375 4.527344 4.167969 4.265625 C 4.160156 4.335938 4.160156 4.40625 4.160156 4.480469 C 4.160156 5.105469 4.289062 5.699219 4.53125 6.234375 Z M 12.261719 7.097656 C 12.996094 7.9375 13.441406 9.035156 13.441406 10.238281 C 13.441406 12.890625 11.289062 15.039062 8.640625 15.039062 C 5.988281 15.039062 3.839844 12.890625 3.839844 10.238281 C 3.839844 9.976562 3.859375 9.722656 3.914062 9.472656 C 4.195312 9.554688 4.492188 9.601562 4.800781 9.601562 C 5.683594 9.601562 6.480469 9.242188 7.054688 8.660156 C 7.542969 8.855469 8.078125 8.960938 8.640625 8.960938 C 10.136719 8.960938 11.460938 8.226562 12.261719 7.097656 Z M 11.554688 6.433594 C 10.75 5.808594 9.738281 5.441406 8.640625 5.441406 C 8.378906 5.441406 8.121094 5.460938 7.875 5.511719 C 7.957031 5.792969 8 6.09375 8 6.398438 C 8 6.925781 7.871094 7.421875 7.648438 7.859375 C 7.960938 7.949219 8.296875 8 8.640625 8 C 9.859375 8 10.933594 7.382812 11.554688 6.433594 Z M 5.019531 7.101562 C 4.652344 7.515625 4.363281 8.003906 4.164062 8.53125 C 4.359375 8.605469 4.578125 8.640625 4.800781 8.640625 C 5.308594 8.640625 5.773438 8.472656 6.144531 8.183594 C 5.699219 7.902344 5.320312 7.53125 5.019531 7.101562 Z M 5.726562 6.433594 C 6.089844 6.152344 6.496094 5.929688 6.933594 5.765625 C 7.007812 5.960938 7.039062 6.175781 7.039062 6.398438 C 7.039062 6.78125 6.945312 7.140625 6.761719 7.445312 C 6.34375 7.191406 5.988281 6.847656 5.726562 6.433594 Z M 5.726562 6.433594 "/>
</g>
</svg>
