
<svg xmlns="http://www.w3.org/2000/svg" xmlns:xlink="http://www.w3.org/1999/xlink" width="16px" height="16px" viewBox="0 0 16 16" version="1.1">
<g id="surface1">
<path style=" stroke:none;fill-rule:nonzero;fill:#ff6666;fill-opacity:1;" d="M 14.816406 0.816406 C 14.617188 0.828125 14.425781 0.875 14.242188 0.953125 L 14.238281 0.953125 C 14.0625 1.023438 13.230469 1.371094 11.960938 1.90625 L 7.417969 3.820312 C 4.15625 5.191406 0.953125 6.542969 0.953125 6.542969 L 0.988281 6.527344 C 0.988281 6.527344 0.769531 6.601562 0.539062 6.757812 C 0.394531 6.851562 0.273438 6.96875 0.179688 7.109375 C 0.0625 7.273438 -0.0273438 7.527344 0.0078125 7.789062 C 0.0625 8.234375 0.351562 8.503906 0.558594 8.648438 C 0.765625 8.796875 0.964844 8.867188 0.964844 8.867188 L 0.972656 8.867188 L 3.976562 9.878906 C 4.109375 10.3125 4.894531 12.882812 5.078125 13.472656 C 5.191406 13.824219 5.300781 14.046875 5.433594 14.214844 C 5.5 14.300781 5.574219 14.375 5.667969 14.433594 C 5.714844 14.460938 5.765625 14.480469 5.816406 14.496094 L 5.789062 14.488281 C 5.796875 14.492188 5.804688 14.5 5.8125 14.503906 C 5.835938 14.507812 5.851562 14.511719 5.882812 14.515625 C 6.359375 14.660156 6.742188 14.363281 6.742188 14.363281 L 6.761719 14.347656 L 8.539062 12.730469 L 11.511719 15.011719 L 11.578125 15.042969 C 12.199219 15.3125 12.828125 15.164062 13.160156 14.894531 C 13.492188 14.628906 13.621094 14.28125 13.621094 14.28125 L 13.644531 14.226562 L 15.941406 2.453125 C 16.007812 2.160156 16.023438 1.890625 15.953125 1.625 C 15.878906 1.359375 15.707031 1.128906 15.472656 0.980469 C 15.273438 0.863281 15.046875 0.804688 14.816406 0.816406 Z M 14.753906 2.078125 C 14.75 2.117188 14.757812 2.113281 14.742188 2.1875 L 14.742188 2.191406 L 12.464844 13.84375 C 12.453125 13.863281 12.4375 13.898438 12.390625 13.933594 C 12.34375 13.972656 12.304688 13.996094 12.105469 13.917969 L 8.46875 11.128906 L 6.269531 13.132812 L 6.730469 10.183594 L 12.675781 4.644531 C 12.921875 4.414062 12.839844 4.367188 12.839844 4.367188 C 12.855469 4.089844 12.46875 4.285156 12.46875 4.285156 L 4.972656 8.929688 L 4.972656 8.914062 L 1.378906 7.707031 L 1.378906 7.703125 L 1.371094 7.703125 C 1.378906 7.699219 1.382812 7.699219 1.390625 7.695312 L 1.410156 7.683594 L 1.429688 7.679688 C 1.429688 7.679688 4.636719 6.324219 7.894531 4.953125 C 9.527344 4.265625 11.171875 3.574219 12.4375 3.039062 C 13.1875 2.722656 13.9375 2.410156 14.691406 2.097656 C 14.742188 2.078125 14.71875 2.078125 14.753906 2.078125 Z M 14.753906 2.078125 "/>
</g>
</svg>
