
<svg xmlns="http://www.w3.org/2000/svg" xmlns:xlink="http://www.w3.org/1999/xlink" width="16px" height="16px" viewBox="0 0 16 16" version="1.1">
<g id="surface1">
<path style=" stroke:none;fill-rule:evenodd;fill:#ff6666;fill-opacity:1;" d="M 0.941406 13.300781 C 0.949219 13.253906 0.960938 13.214844 0.988281 13.175781 C 1.082031 13.0625 1.1875 12.96875 1.308594 12.902344 C 1.769531 12.632812 2.269531 12.425781 2.796875 12.300781 C 3.558594 12.105469 4.339844 11.953125 5.121094 11.867188 C 6.078125 11.765625 7.039062 11.707031 8 11.71875 C 8.960938 11.707031 9.921875 11.765625 10.878906 11.867188 C 11.660156 11.953125 12.441406 12.105469 13.203125 12.300781 C 13.730469 12.425781 14.230469 12.632812 14.691406 12.902344 C 14.8125 12.96875 14.917969 13.0625 15.011719 13.175781 C 15.039062 13.214844 15.050781 13.253906 15.058594 13.300781 C 15.050781 13.335938 15.039062 13.382812 15.011719 13.410156 C 14.917969 13.523438 14.8125 13.617188 14.691406 13.695312 C 14.230469 13.96875 13.730469 14.164062 13.203125 14.285156 C 12.441406 14.492188 11.660156 14.636719 10.878906 14.71875 C 9.921875 14.824219 8.960938 14.878906 8 14.878906 C 7.039062 14.878906 6.078125 14.824219 5.121094 14.71875 C 4.339844 14.636719 3.558594 14.492188 2.796875 14.285156 C 2.269531 14.164062 1.769531 13.96875 1.308594 13.695312 C 1.1875 13.617188 1.082031 13.523438 0.988281 13.410156 C 0.960938 13.382812 0.949219 13.335938 0.941406 13.300781 Z M 0.941406 8 C 0.949219 7.953125 0.960938 7.914062 0.988281 7.878906 C 1.082031 7.773438 1.1875 7.679688 1.308594 7.605469 C 1.769531 7.332031 2.269531 7.125 2.796875 7.003906 C 3.558594 6.804688 4.339844 6.664062 5.121094 6.578125 C 6.078125 6.464844 7.039062 6.417969 8 6.417969 C 8.960938 6.417969 9.921875 6.464844 10.878906 6.578125 C 11.660156 6.664062 12.441406 6.804688 13.203125 7.003906 C 13.730469 7.125 14.230469 7.332031 14.691406 7.605469 C 14.8125 7.679688 14.917969 7.773438 15.011719 7.878906 C 15.039062 7.914062 15.050781 7.953125 15.058594 8 C 15.050781 8.046875 15.039062 8.085938 15.011719 8.121094 C 14.917969 8.226562 14.8125 8.320312 14.691406 8.394531 C 14.230469 8.667969 13.730469 8.875 13.203125 8.996094 C 12.441406 9.195312 11.660156 9.335938 10.878906 9.421875 C 9.921875 9.535156 8.960938 9.582031 8 9.582031 C 7.039062 9.582031 6.078125 9.535156 5.121094 9.421875 C 4.339844 9.335938 3.558594 9.195312 2.796875 8.996094 C 2.269531 8.875 1.769531 8.667969 1.308594 8.394531 C 1.1875 8.320312 1.082031 8.226562 0.988281 8.121094 C 0.960938 8.085938 0.949219 8.046875 0.941406 8 Z M 0 13.300781 C 0.0078125 13.035156 0.09375 12.789062 0.253906 12.585938 C 0.414062 12.394531 0.601562 12.226562 0.820312 12.09375 C 1.363281 11.773438 1.949219 11.527344 2.558594 11.386719 C 3.367188 11.171875 4.1875 11.019531 5.015625 10.9375 C 6.003906 10.824219 7.003906 10.765625 8 10.777344 C 8.996094 10.765625 9.996094 10.824219 10.984375 10.9375 C 11.8125 11.019531 12.632812 11.171875 13.441406 11.386719 C 14.050781 11.527344 14.636719 11.773438 15.179688 12.09375 C 15.398438 12.226562 15.585938 12.394531 15.746094 12.585938 C 15.90625 12.789062 15.992188 13.035156 16 13.300781 C 15.992188 13.554688 15.90625 13.796875 15.746094 14.003906 C 15.585938 14.203125 15.398438 14.371094 15.179688 14.492188 C 14.636719 14.824219 14.050781 15.058594 13.441406 15.199219 C 12.632812 15.414062 11.8125 15.566406 10.984375 15.652344 C 9.996094 15.765625 8.996094 15.820312 8 15.820312 C 7.003906 15.820312 6.003906 15.765625 5.015625 15.652344 C 4.1875 15.566406 3.367188 15.414062 2.558594 15.199219 C 1.949219 15.058594 1.363281 14.824219 0.820312 14.492188 C 0.601562 14.371094 0.414062 14.203125 0.253906 14.003906 C 0.09375 13.796875 0.0078125 13.554688 0 13.300781 Z M 0 8 C 0.0078125 7.746094 0.09375 7.492188 0.253906 7.292969 C 0.414062 7.097656 0.601562 6.925781 0.820312 6.796875 C 1.363281 6.476562 1.949219 6.238281 2.558594 6.089844 C 3.367188 5.882812 4.1875 5.730469 5.015625 5.636719 C 6.003906 5.535156 7.003906 5.476562 8 5.476562 C 8.996094 5.476562 9.996094 5.535156 10.984375 5.636719 C 11.8125 5.730469 12.632812 5.882812 13.441406 6.089844 C 14.050781 6.238281 14.636719 6.476562 15.179688 6.796875 C 15.398438 6.925781 15.585938 7.097656 15.746094 7.292969 C 15.90625 7.492188 15.992188 7.746094 16 8 C 15.992188 8.253906 15.90625 8.507812 15.746094 8.707031 C 15.585938 8.902344 15.398438 9.074219 15.179688 9.203125 C 14.636719 9.523438 14.050781 9.761719 13.441406 9.910156 C 12.632812 10.117188 11.8125 10.269531 10.984375 10.363281 C 9.996094 10.464844 8.996094 10.523438 8 10.523438 C 7.003906 10.523438 6.003906 10.464844 5.015625 10.363281 C 4.1875 10.269531 3.367188 10.117188 2.558594 9.910156 C 1.949219 9.761719 1.363281 9.523438 0.820312 9.203125 C 0.601562 9.074219 0.414062 8.902344 0.253906 8.707031 C 0.09375 8.507812 0.0078125 8.253906 0 8 Z M 0.941406 2.699219 C 0.949219 2.664062 0.960938 2.617188 0.988281 2.589844 C 1.082031 2.476562 1.1875 2.382812 1.308594 2.304688 C 1.769531 2.03125 2.269531 1.835938 2.796875 1.714844 C 3.558594 1.507812 4.339844 1.363281 5.121094 1.28125 C 6.078125 1.175781 7.039062 1.121094 8 1.121094 C 8.960938 1.121094 9.921875 1.175781 10.878906 1.28125 C 11.660156 1.363281 12.441406 1.507812 13.203125 1.714844 C 13.730469 1.835938 14.230469 2.03125 14.691406 2.304688 C 14.8125 2.382812 14.917969 2.476562 15.011719 2.589844 C 15.039062 2.617188 15.050781 2.664062 15.058594 2.699219 C 15.050781 2.746094 15.039062 2.785156 15.011719 2.824219 C 14.917969 2.9375 14.8125 3.03125 14.691406 3.097656 C 14.230469 3.367188 13.730469 3.574219 13.203125 3.699219 C 12.441406 3.894531 11.660156 4.046875 10.878906 4.132812 C 9.921875 4.234375 8.960938 4.292969 8 4.28125 C 7.039062 4.292969 6.078125 4.234375 5.121094 4.132812 C 4.339844 4.046875 3.558594 3.894531 2.796875 3.699219 C 2.269531 3.574219 1.769531 3.367188 1.308594 3.097656 C 1.1875 3.03125 1.082031 2.9375 0.988281 2.824219 C 0.960938 2.785156 0.949219 2.746094 0.941406 2.699219 Z M 0 2.699219 C 0.0078125 2.445312 0.09375 2.191406 0.253906 1.996094 C 0.414062 1.796875 0.601562 1.628906 0.820312 1.507812 C 1.363281 1.175781 1.949219 0.941406 2.558594 0.800781 C 3.367188 0.585938 4.1875 0.433594 5.015625 0.347656 C 6.003906 0.234375 7.003906 0.179688 8 0.179688 C 8.996094 0.179688 9.996094 0.234375 10.984375 0.347656 C 11.8125 0.433594 12.632812 0.585938 13.441406 0.800781 C 14.050781 0.941406 14.636719 1.175781 15.179688 1.507812 C 15.398438 1.628906 15.585938 1.796875 15.746094 1.996094 C 15.90625 2.203125 15.992188 2.445312 16 2.699219 C 15.992188 2.964844 15.90625 3.210938 15.746094 3.414062 C 15.585938 3.605469 15.398438 3.773438 15.179688 3.90625 C 14.636719 4.226562 14.050781 4.472656 13.441406 4.613281 C 12.632812 4.828125 11.8125 4.980469 10.984375 5.0625 C 9.996094 5.175781 8.996094 5.234375 8 5.222656 C 7.003906 5.234375 6.003906 5.175781 5.015625 5.0625 C 4.1875 4.980469 3.367188 4.828125 2.558594 4.613281 C 1.949219 4.472656 1.363281 4.226562 0.820312 3.90625 C 0.601562 3.773438 0.414062 3.605469 0.253906 3.414062 C 0.09375 3.210938 0.0078125 2.964844 0 2.699219 Z M 0 2.699219 "/>
</g>
</svg>
