
<svg xmlns="http://www.w3.org/2000/svg" xmlns:xlink="http://www.w3.org/1999/xlink" width="16px" height="16px" viewBox="0 0 16 16" version="1.1">
<g id="surface1">
<path style=" stroke:none;fill-rule:nonzero;fill:#ff6666;fill-opacity:1;" d="M 8 0 C 6.675781 0.00390625 5.605469 1.074219 5.601562 2.398438 C 4.277344 2.402344 3.203125 3.476562 3.199219 4.800781 C 3.199219 5.195312 3.304688 5.566406 3.476562 5.898438 C 2.335938 6.417969 1.605469 7.550781 1.601562 8.800781 C 1.601562 10.558594 3.039062 12 4.800781 12 L 7.074219 12 L 6.398438 16 L 9.601562 16 L 8.925781 12 L 11.199219 12 C 12.960938 12 14.398438 10.558594 14.398438 8.800781 C 14.398438 7.511719 13.628906 6.40625 12.523438 5.898438 C 12.695312 5.570312 12.800781 5.195312 12.800781 4.800781 C 12.800781 3.480469 11.71875 2.398438 10.398438 2.398438 C 10.398438 1.082031 9.316406 0 8 0 Z M 8 0 "/>
</g>
</svg>
