
<svg xmlns="http://www.w3.org/2000/svg" xmlns:xlink="http://www.w3.org/1999/xlink" width="16px" height="16px" viewBox="0 0 16 16" version="1.1">
<g id="surface1">
<path style=" stroke:none;fill-rule:evenodd;fill:#ff6666;fill-opacity:1;" d="M 12.050781 9.359375 C 12.050781 10.832031 10.730469 12.160156 10.027344 13.449219 C 9.183594 14.992188 9.371094 15.320312 7.667969 15.320312 C 4.546875 15.320312 3.511719 12.429688 3.511719 9.191406 C 3.511719 7.503906 3.59375 5.425781 4.695312 4.355469 C 5.707031 3.371094 7.414062 3.125 8.910156 3.125 C 10.566406 3.125 11.382812 4.351562 11.867188 5.117188 C 12.296875 5.796875 12.050781 7.839844 12.050781 9.359375 Z M 15.429688 6.339844 C 15.429688 10.085938 11.101562 16 7.328125 16 C 3.558594 16 0.324219 10.089844 0.585938 6.074219 C 0.761719 3.347656 4.070312 -0.0625 6 0 C 6.644531 0.0664062 5.480469 0.730469 6.257812 0.515625 C 6.847656 0.351562 7.46875 0.261719 8.109375 0.261719 C 11.882812 0.261719 15.429688 2.59375 15.429688 6.339844 Z M 5.871094 7.449219 L 6.023438 7.503906 C 6.152344 7.554688 6.289062 7.507812 6.328125 7.402344 C 6.367188 7.292969 6.292969 7.167969 6.164062 7.117188 L 4.722656 6.574219 C 4.59375 6.527344 4.453125 6.570312 4.414062 6.679688 C 4.375 6.785156 4.449219 6.910156 4.582031 6.960938 L 5.257812 7.214844 C 5.085938 7.445312 4.96875 7.910156 4.96875 8.445312 C 4.96875 9.207031 5.207031 9.824219 5.503906 9.824219 C 5.796875 9.824219 6.035156 9.207031 6.035156 8.445312 C 6.035156 8.054688 5.972656 7.699219 5.871094 7.449219 Z M 9.160156 6.308594 L 10.71875 5.554688 C 10.859375 5.484375 11.015625 5.515625 11.0625 5.625 C 11.113281 5.730469 11.039062 5.875 10.898438 5.941406 L 9.339844 6.695312 C 9.199219 6.765625 9.042969 6.730469 8.996094 6.625 C 8.945312 6.515625 9.019531 6.375 9.160156 6.308594 Z M 9.304688 8.125 C 9.25 7.324219 9.460938 6.671875 9.773438 6.667969 C 10.085938 6.664062 10.382812 7.3125 10.4375 8.113281 C 10.488281 8.914062 10.277344 9.566406 9.964844 9.570312 C 9.652344 9.574219 9.355469 8.925781 9.304688 8.125 Z M 8.722656 9.753906 C 8.953125 10.027344 9.558594 10.171875 9.691406 10.574219 C 9.8125 10.933594 9.667969 11.375 9.445312 11.679688 C 9.316406 11.855469 9.097656 11.996094 8.882812 12.007812 C 8.554688 12.023438 8.074219 11.921875 7.976562 11.605469 C 7.953125 11.523438 8.03125 11.40625 8.117188 11.382812 C 8.324219 11.320312 8.496094 11.714844 8.703125 11.65625 C 9.074219 11.554688 9.414062 11.082031 9.351562 10.699219 C 9.292969 10.347656 8.660156 10.367188 8.5 10.050781 C 8.375 9.804688 8.21875 9.28125 8.484375 9.230469 C 8.554688 9.382812 8.621094 9.625 8.722656 9.753906 Z M 6.574219 13.472656 L 8.832031 13.71875 C 9.03125 13.738281 9.171875 13.828125 9.136719 13.921875 C 9.105469 14.011719 8.914062 14.066406 8.714844 14.046875 L 6.457031 13.804688 C 6.257812 13.78125 6.121094 13.691406 6.152344 13.597656 C 6.1875 13.507812 6.375 13.453125 6.574219 13.472656 Z M 6.574219 13.472656 "/>
</g>
</svg>
