
<svg xmlns="http://www.w3.org/2000/svg" xmlns:xlink="http://www.w3.org/1999/xlink" width="16px" height="16px" viewBox="0 0 16 16" version="1.1">
<g id="surface1">
<path style=" stroke:none;fill-rule:nonzero;fill:#ff6666;fill-opacity:1;" d="M 9.644531 11.992188 C 9.640625 11.988281 9.636719 11.945312 9.636719 11.894531 C 9.636719 11.753906 9.613281 11.671875 9.519531 11.441406 C 9.484375 11.367188 9.433594 11.238281 9.402344 11.152344 C 9.320312 10.9375 9.160156 10.578125 9.121094 10.523438 C 9.105469 10.496094 9.078125 10.445312 9.0625 10.410156 C 9.050781 10.375 9.027344 10.324219 9.015625 10.304688 C 8.941406 10.160156 8.730469 9.621094 8.628906 9.3125 C 8.597656 9.222656 8.542969 9.074219 8.507812 8.988281 C 8.46875 8.902344 8.410156 8.75 8.378906 8.648438 C 8.347656 8.550781 8.28125 8.375 8.230469 8.257812 C 8.125 7.992188 7.96875 7.523438 7.941406 7.378906 C 7.933594 7.320312 7.917969 7.246094 7.910156 7.222656 C 7.90625 7.195312 7.898438 7.132812 7.898438 7.085938 C 7.898438 7 7.925781 6.804688 7.941406 6.777344 C 7.957031 6.753906 7.980469 6.769531 8.027344 6.835938 C 8.152344 7.015625 8.242188 7.050781 8.679688 7.074219 C 8.921875 7.089844 9.054688 7.109375 9.125 7.144531 C 9.246094 7.203125 9.34375 7.347656 9.464844 7.648438 C 9.664062 8.144531 9.730469 8.320312 9.84375 8.648438 C 9.890625 8.785156 9.921875 8.863281 9.933594 8.863281 C 9.980469 8.875 10.21875 8.503906 10.328125 8.25 C 10.46875 7.933594 10.710938 7.296875 10.761719 7.109375 C 10.800781 6.964844 10.933594 6.761719 11.15625 6.515625 C 11.222656 6.441406 11.300781 6.363281 11.328125 6.34375 C 11.4375 6.257812 11.722656 6.21875 11.914062 6.261719 C 11.957031 6.273438 12.085938 6.285156 12.199219 6.289062 C 12.351562 6.292969 12.414062 6.300781 12.421875 6.3125 C 12.4375 6.328125 12.410156 6.429688 12.355469 6.546875 C 12.335938 6.59375 12.308594 6.671875 12.292969 6.71875 C 12.277344 6.769531 12.261719 6.8125 12.257812 6.820312 C 12.253906 6.824219 12.230469 6.882812 12.210938 6.945312 C 12.1875 7.007812 12.167969 7.0625 12.164062 7.070312 C 12.132812 7.109375 11.914062 7.761719 11.84375 8.027344 C 11.820312 8.128906 11.785156 8.261719 11.769531 8.328125 C 11.75 8.394531 11.714844 8.519531 11.691406 8.613281 C 11.664062 8.703125 11.640625 8.796875 11.636719 8.820312 C 11.628906 8.84375 11.613281 8.890625 11.59375 8.921875 C 11.503906 9.09375 11.332031 9.488281 11.136719 9.972656 C 10.929688 10.492188 10.890625 10.582031 10.800781 10.742188 C 10.714844 10.894531 10.4375 11.320312 10.402344 11.359375 C 10.390625 11.367188 10.367188 11.402344 10.347656 11.429688 C 10.289062 11.527344 10.148438 11.695312 10.066406 11.777344 C 9.96875 11.867188 9.910156 11.910156 9.785156 11.960938 C 9.695312 12 9.660156 12.007812 9.644531 11.992188 Z M 7.917969 11.460938 C 7.910156 11.453125 7.890625 11.421875 7.875 11.382812 C 7.863281 11.347656 7.828125 11.285156 7.804688 11.242188 C 7.78125 11.203125 7.757812 11.164062 7.757812 11.160156 C 7.757812 11.15625 7.742188 11.125 7.722656 11.09375 C 7.703125 11.058594 7.660156 10.976562 7.632812 10.910156 C 7.492188 10.574219 7.390625 10.347656 7.335938 10.234375 L 7.273438 10.109375 L 6.976562 10.105469 C 6.816406 10.101562 6.652344 10.105469 6.609375 10.109375 C 6.5 10.117188 6.488281 10.136719 6.433594 10.339844 C 6.40625 10.433594 6.378906 10.539062 6.367188 10.570312 C 6.332031 10.691406 6.21875 10.996094 6.1875 11.050781 C 6.148438 11.117188 6.050781 11.21875 5.980469 11.261719 C 5.90625 11.304688 5.785156 11.335938 5.695312 11.335938 C 5.65625 11.335938 5.546875 11.320312 5.449219 11.300781 C 5.339844 11.277344 5.234375 11.265625 5.179688 11.265625 C 5.085938 11.265625 5.085938 11.265625 5.011719 11.210938 C 4.9375 11.152344 4.929688 11.136719 4.960938 11.109375 C 5.003906 11.074219 5.066406 10.875 5.105469 10.660156 C 5.117188 10.59375 5.140625 10.484375 5.152344 10.421875 C 5.179688 10.292969 5.183594 10.230469 5.160156 10.210938 C 5.152344 10.203125 5.105469 10.191406 5.058594 10.1875 C 5.011719 10.179688 4.96875 10.171875 4.960938 10.164062 C 4.953125 10.15625 4.960938 10.132812 4.988281 10.101562 C 5.019531 10.0625 5.027344 10.039062 5.027344 10.003906 C 5.027344 9.960938 5.023438 9.949219 4.972656 9.90625 L 4.917969 9.859375 L 4.964844 9.78125 C 4.992188 9.738281 5.023438 9.6875 5.03125 9.671875 C 5.105469 9.550781 5.214844 9.402344 5.246094 9.378906 C 5.28125 9.355469 5.296875 9.351562 5.347656 9.359375 C 5.378906 9.367188 5.421875 9.371094 5.4375 9.371094 C 5.476562 9.371094 5.464844 9.398438 5.582031 9.058594 C 5.609375 8.96875 5.65625 8.839844 5.679688 8.765625 C 5.703125 8.695312 5.746094 8.574219 5.769531 8.5 C 5.792969 8.425781 5.84375 8.265625 5.882812 8.144531 C 5.917969 8.023438 5.960938 7.882812 5.972656 7.835938 C 5.988281 7.785156 6.019531 7.691406 6.050781 7.628906 C 6.078125 7.5625 6.132812 7.429688 6.175781 7.328125 C 6.253906 7.148438 6.445312 6.75 6.527344 6.613281 C 6.574219 6.527344 6.683594 6.398438 6.707031 6.398438 C 6.714844 6.398438 6.726562 6.410156 6.734375 6.425781 C 6.757812 6.457031 6.796875 6.449219 6.949219 6.382812 C 7.089844 6.316406 7.253906 6.273438 7.253906 6.300781 C 7.253906 6.308594 7.226562 6.339844 7.195312 6.378906 C 7.113281 6.472656 7.035156 6.59375 7.011719 6.664062 C 7.003906 6.699219 6.992188 6.777344 6.988281 6.84375 L 6.980469 6.960938 L 7.042969 7.140625 C 7.109375 7.335938 7.191406 7.515625 7.363281 7.847656 C 7.496094 8.105469 7.730469 8.585938 7.773438 8.679688 C 7.824219 8.800781 7.96875 9.089844 8.027344 9.183594 C 8.058594 9.234375 8.09375 9.304688 8.113281 9.335938 C 8.144531 9.402344 8.265625 9.519531 8.339844 9.558594 C 8.425781 9.601562 8.453125 9.628906 8.46875 9.691406 C 8.5 9.792969 8.496094 9.820312 8.421875 9.902344 C 8.386719 9.941406 8.359375 9.988281 8.359375 10 C 8.359375 10.015625 8.394531 10.09375 8.4375 10.179688 C 8.644531 10.59375 8.828125 10.96875 8.828125 10.972656 C 8.828125 10.976562 8.777344 10.980469 8.714844 10.984375 C 8.53125 10.996094 8.46875 11.035156 8.183594 11.316406 C 8.054688 11.445312 8.035156 11.460938 7.988281 11.46875 C 7.953125 11.472656 7.929688 11.46875 7.917969 11.460938 Z M 6.96875 9.378906 C 6.976562 9.363281 6.929688 9.242188 6.863281 9.117188 C 6.808594 9.007812 6.800781 8.996094 6.773438 8.996094 C 6.742188 8.996094 6.742188 9 6.695312 9.164062 C 6.65625 9.308594 6.648438 9.367188 6.664062 9.382812 C 6.675781 9.394531 6.960938 9.390625 6.96875 9.378906 Z M 12.597656 11.375 C 12.546875 11.363281 12.382812 11.28125 12.324219 11.238281 C 12.246094 11.175781 12.203125 11.15625 12.128906 11.148438 C 12.035156 11.140625 12.011719 11.148438 11.945312 11.207031 C 11.886719 11.257812 11.882812 11.257812 11.84375 11.242188 C 11.800781 11.226562 11.796875 11.199219 11.8125 11.0625 C 11.835938 10.816406 11.90625 10.613281 12.011719 10.476562 C 12.042969 10.441406 12.078125 10.382812 12.089844 10.347656 C 12.15625 10.175781 12.246094 9.703125 12.304688 9.257812 C 12.324219 9.105469 12.351562 8.902344 12.367188 8.808594 C 12.441406 8.363281 12.464844 7.972656 12.425781 7.839844 C 12.410156 7.777344 12.355469 7.714844 12.273438 7.648438 C 12.210938 7.601562 12.210938 7.582031 12.277344 7.511719 C 12.359375 7.421875 12.429688 7.28125 12.578125 6.9375 C 12.585938 6.917969 12.609375 6.851562 12.632812 6.785156 C 12.6875 6.613281 12.742188 6.472656 12.757812 6.464844 C 12.765625 6.460938 12.820312 6.484375 12.878906 6.511719 C 13.066406 6.605469 13.117188 6.613281 13.515625 6.613281 C 13.867188 6.613281 14.234375 6.585938 14.386719 6.550781 C 14.484375 6.527344 14.914062 6.53125 15.039062 6.558594 C 15.164062 6.585938 15.460938 6.675781 15.542969 6.714844 C 15.613281 6.75 15.800781 6.921875 15.878906 7.027344 C 15.945312 7.113281 16.007812 7.21875 16 7.226562 C 15.996094 7.230469 15.957031 7.210938 15.914062 7.183594 C 15.839844 7.136719 15.828125 7.132812 15.769531 7.140625 C 15.691406 7.144531 15.679688 7.15625 15.5625 7.328125 C 15.4375 7.507812 15.28125 7.722656 15.230469 7.773438 C 15.195312 7.8125 15.1875 7.8125 15.144531 7.804688 C 15.113281 7.800781 15.035156 7.78125 14.96875 7.761719 C 14.804688 7.710938 14.710938 7.707031 14.507812 7.738281 C 14.230469 7.78125 14.078125 7.800781 13.941406 7.800781 C 13.765625 7.800781 13.773438 7.789062 13.71875 8.078125 C 13.695312 8.203125 13.671875 8.355469 13.664062 8.414062 C 13.652344 8.511719 13.652344 8.527344 13.671875 8.542969 C 13.691406 8.566406 13.710938 8.566406 14.277344 8.59375 C 14.476562 8.601562 14.539062 8.609375 14.636719 8.636719 C 14.699219 8.652344 14.757812 8.671875 14.765625 8.679688 C 14.777344 8.6875 14.792969 8.773438 14.8125 8.902344 C 14.824219 9.027344 14.957031 9.210938 15.046875 9.234375 C 15.097656 9.246094 15.09375 9.28125 15.035156 9.300781 C 14.816406 9.382812 14.824219 9.382812 14.558594 9.390625 C 14.34375 9.398438 14.007812 9.429688 13.695312 9.472656 C 13.648438 9.480469 13.605469 9.484375 13.59375 9.484375 C 13.582031 9.484375 13.554688 9.5 13.535156 9.515625 C 13.507812 9.542969 13.496094 9.570312 13.472656 9.660156 C 13.433594 9.8125 13.414062 9.996094 13.4375 10.015625 C 13.445312 10.027344 13.523438 10.035156 13.703125 10.042969 C 14.21875 10.066406 14.511719 10.078125 14.769531 10.097656 C 14.914062 10.105469 15.152344 10.113281 15.300781 10.113281 C 15.550781 10.113281 15.566406 10.113281 15.585938 10.136719 C 15.609375 10.164062 15.609375 10.164062 15.566406 10.195312 C 15.488281 10.257812 15.359375 10.394531 15.328125 10.457031 C 15.289062 10.53125 15.261719 10.632812 15.234375 10.765625 C 15.191406 10.984375 15.148438 11.097656 15.085938 11.152344 C 14.992188 11.234375 14.78125 11.300781 14.628906 11.300781 C 14.574219 11.300781 14.460938 11.304688 14.378906 11.3125 C 14.066406 11.335938 13.765625 11.347656 13.285156 11.359375 C 13.011719 11.367188 12.753906 11.375 12.710938 11.378906 C 12.664062 11.378906 12.613281 11.378906 12.597656 11.375 Z M 2.09375 11.300781 C 1.832031 11.261719 1.765625 11.246094 1.550781 11.175781 C 1.304688 11.09375 1.066406 10.984375 1.042969 10.941406 C 1.035156 10.925781 1.019531 10.910156 1.011719 10.910156 C 1.003906 10.910156 0.984375 10.894531 0.972656 10.875 C 0.957031 10.859375 0.917969 10.824219 0.878906 10.800781 C 0.84375 10.773438 0.746094 10.6875 0.667969 10.609375 C 0.433594 10.375 0.347656 10.253906 0.246094 10.019531 C 0.167969 9.835938 0.148438 9.753906 0.121094 9.539062 C 0.109375 9.445312 0.09375 9.316406 0.0859375 9.246094 C 0.0585938 9.0625 0.046875 8.933594 0.0273438 8.5625 C -0.00390625 8 -0.0078125 7.761719 0.015625 7.621094 C 0.0234375 7.550781 0.046875 7.402344 0.0625 7.289062 C 0.078125 7.175781 0.101562 7.027344 0.109375 6.96875 C 0.121094 6.90625 0.140625 6.785156 0.152344 6.699219 C 0.191406 6.429688 0.238281 6.230469 0.296875 6.101562 C 0.324219 6.03125 0.367188 5.921875 0.398438 5.859375 C 0.457031 5.710938 0.617188 5.320312 0.78125 5.085938 C 0.882812 4.941406 1.003906 4.816406 1.136719 4.703125 C 1.316406 4.546875 1.585938 4.367188 1.726562 4.300781 C 1.863281 4.230469 2.121094 4.128906 2.328125 4.078125 C 2.550781 4.023438 2.820312 3.996094 3.003906 4 C 3.390625 4.011719 3.433594 4.007812 3.640625 4.054688 C 3.785156 4.082031 3.933594 4.125 4.0625 4.195312 C 4.273438 4.3125 4.464844 4.472656 4.625 4.652344 C 4.734375 4.777344 4.980469 5.148438 5.050781 5.289062 C 5.078125 5.347656 5.113281 5.433594 5.128906 5.476562 C 5.144531 5.523438 5.167969 5.589844 5.183594 5.628906 C 5.199219 5.664062 5.226562 5.777344 5.246094 5.878906 C 5.28125 6.046875 5.285156 6.070312 5.277344 6.21875 C 5.269531 6.414062 5.246094 6.527344 5.195312 6.652344 C 5.164062 6.734375 5.144531 6.761719 5.054688 6.851562 C 4.945312 6.960938 4.828125 7.046875 4.664062 7.136719 C 4.527344 7.214844 4.109375 7.417969 4.09375 7.417969 C 4.082031 7.417969 4.070312 7.425781 4.066406 7.429688 C 4.058594 7.445312 3.929688 7.484375 3.859375 7.496094 C 3.808594 7.503906 3.800781 7.5 3.765625 7.46875 C 3.734375 7.4375 3.730469 7.425781 3.738281 7.390625 C 3.75 7.335938 3.757812 7.332031 3.828125 7.335938 C 3.890625 7.335938 3.894531 7.335938 3.933594 7.285156 C 4.015625 7.183594 4.019531 7.175781 4.015625 7.058594 C 4.011719 6.894531 3.980469 6.667969 3.953125 6.601562 C 3.921875 6.515625 3.820312 6.3125 3.765625 6.21875 C 3.699219 6.117188 3.65625 6.070312 3.492188 5.9375 C 3.414062 5.875 3.34375 5.816406 3.339844 5.808594 C 3.332031 5.804688 3.285156 5.773438 3.238281 5.746094 C 3.085938 5.660156 2.933594 5.65625 2.792969 5.726562 C 2.664062 5.792969 2.382812 6.105469 2.25 6.332031 C 2.066406 6.640625 1.960938 6.96875 1.925781 7.335938 C 1.917969 7.402344 1.910156 7.625 1.910156 7.828125 C 1.910156 8.304688 1.925781 8.375 2.046875 8.59375 C 2.074219 8.644531 2.097656 8.691406 2.097656 8.699219 C 2.097656 8.703125 2.109375 8.722656 2.121094 8.738281 C 2.136719 8.753906 2.179688 8.816406 2.222656 8.882812 C 2.269531 8.953125 2.335938 9.035156 2.394531 9.09375 C 2.445312 9.144531 2.492188 9.1875 2.496094 9.1875 C 2.496094 9.1875 2.535156 9.21875 2.582031 9.257812 C 2.671875 9.339844 2.78125 9.394531 2.949219 9.445312 C 3.148438 9.511719 3.242188 9.519531 3.601562 9.523438 C 3.882812 9.523438 3.9375 9.523438 4.019531 9.503906 C 4.070312 9.492188 4.140625 9.476562 4.175781 9.46875 C 4.246094 9.460938 4.296875 9.449219 4.34375 9.441406 C 4.359375 9.4375 4.386719 9.433594 4.402344 9.433594 C 4.417969 9.433594 4.4375 9.429688 4.449219 9.425781 C 4.460938 9.417969 4.507812 9.410156 4.554688 9.40625 C 4.601562 9.402344 4.671875 9.398438 4.707031 9.394531 C 4.769531 9.386719 4.824219 9.398438 4.824219 9.421875 C 4.824219 9.429688 4.804688 9.464844 4.78125 9.503906 C 4.695312 9.648438 4.515625 9.996094 4.484375 10.078125 C 4.457031 10.15625 4.460938 10.300781 4.492188 10.355469 C 4.527344 10.414062 4.523438 10.433594 4.476562 10.488281 C 4.453125 10.515625 4.4375 10.542969 4.4375 10.550781 C 4.4375 10.558594 4.429688 10.566406 4.421875 10.570312 C 4.410156 10.578125 4.398438 10.59375 4.390625 10.609375 C 4.347656 10.695312 4.015625 11.066406 3.949219 11.109375 C 3.84375 11.175781 3.480469 11.257812 3.066406 11.304688 C 2.96875 11.316406 2.789062 11.328125 2.609375 11.328125 C 2.339844 11.332031 2.300781 11.328125 2.09375 11.300781 Z M 10.105469 6.570312 C 10.101562 6.566406 9.699219 6.523438 9.410156 6.492188 C 9.105469 6.464844 8.914062 6.417969 8.875 6.367188 C 8.851562 6.339844 8.878906 6.222656 9.003906 5.746094 C 9.023438 5.671875 9.050781 5.535156 9.0625 5.441406 C 9.074219 5.351562 9.097656 5.230469 9.113281 5.171875 C 9.128906 5.09375 9.132812 5.039062 9.128906 4.976562 C 9.125 4.90625 9.128906 4.890625 9.140625 4.890625 C 9.152344 4.890625 9.222656 4.902344 9.296875 4.914062 C 9.371094 4.925781 9.515625 4.945312 9.621094 4.957031 C 9.722656 4.96875 9.84375 4.980469 9.882812 4.984375 C 9.925781 4.992188 10.082031 5.003906 10.230469 5.011719 C 10.378906 5.015625 10.503906 5.023438 10.507812 5.027344 C 10.515625 5.03125 10.546875 5.09375 10.585938 5.167969 C 10.644531 5.285156 10.648438 5.300781 10.632812 5.316406 C 10.582031 5.367188 10.144531 5.351562 9.796875 5.289062 C 9.578125 5.25 9.589844 5.246094 9.570312 5.359375 C 9.539062 5.519531 9.550781 5.535156 9.710938 5.554688 C 9.890625 5.574219 9.988281 5.59375 9.992188 5.609375 C 9.992188 5.613281 9.992188 5.652344 9.988281 5.6875 C 9.988281 5.746094 9.992188 5.757812 10.023438 5.796875 C 10.046875 5.820312 10.058594 5.847656 10.054688 5.851562 C 10.046875 5.863281 9.984375 5.863281 9.828125 5.855469 C 9.566406 5.84375 9.519531 5.847656 9.5 5.867188 C 9.476562 5.890625 9.460938 6.066406 9.476562 6.085938 C 9.507812 6.117188 9.820312 6.171875 10.027344 6.183594 C 10.140625 6.191406 10.289062 6.207031 10.367188 6.214844 C 10.441406 6.226562 10.523438 6.230469 10.550781 6.230469 C 10.609375 6.230469 10.621094 6.25 10.589844 6.285156 C 10.578125 6.300781 10.566406 6.316406 10.566406 6.324219 C 10.566406 6.328125 10.550781 6.355469 10.535156 6.378906 C 10.492188 6.445312 10.488281 6.472656 10.515625 6.519531 C 10.53125 6.542969 10.539062 6.5625 10.535156 6.570312 C 10.527344 6.578125 10.113281 6.578125 10.105469 6.570312 Z M 8.398438 6.261719 C 8.328125 6.210938 8.289062 6.210938 8.175781 6.246094 C 8.058594 6.28125 8.058594 6.277344 8.058594 6.046875 C 8.058594 5.933594 8.070312 5.796875 8.082031 5.707031 L 8.101562 5.554688 L 8.0625 5.511719 C 8.007812 5.445312 7.941406 5.402344 7.851562 5.378906 C 7.761719 5.347656 7.742188 5.347656 7.726562 5.367188 C 7.71875 5.378906 7.703125 5.449219 7.695312 5.53125 C 7.65625 5.855469 7.648438 5.867188 7.480469 5.925781 C 7.417969 5.945312 7.351562 5.96875 7.328125 5.976562 C 7.1875 6.039062 7.101562 6.066406 7.101562 6.046875 C 7.101562 6.042969 7.128906 5.992188 7.160156 5.929688 C 7.226562 5.800781 7.234375 5.773438 7.261719 5.515625 C 7.28125 5.308594 7.273438 5.246094 7.234375 5.207031 C 7.195312 5.171875 7.09375 5.128906 7.050781 5.128906 C 7.023438 5.128906 7.007812 5.121094 7.007812 5.113281 C 7.007812 5.09375 7.1875 4.972656 7.285156 4.921875 C 7.355469 4.886719 7.347656 4.910156 7.410156 4.5625 C 7.464844 4.289062 7.460938 4.296875 7.476562 4.296875 C 7.480469 4.296875 7.527344 4.335938 7.578125 4.386719 C 7.632812 4.433594 7.710938 4.496094 7.757812 4.523438 C 7.804688 4.550781 7.847656 4.578125 7.851562 4.585938 C 7.859375 4.597656 7.859375 4.632812 7.847656 4.703125 C 7.835938 4.757812 7.824219 4.828125 7.820312 4.859375 L 7.816406 4.914062 L 7.90625 4.96875 C 7.953125 5.003906 8.03125 5.050781 8.074219 5.078125 C 8.113281 5.105469 8.15625 5.128906 8.164062 5.128906 C 8.199219 5.128906 8.238281 4.992188 8.238281 4.871094 C 8.242188 4.765625 8.246094 4.761719 8.398438 4.824219 C 8.503906 4.867188 8.542969 4.878906 8.601562 4.878906 C 8.640625 4.878906 8.675781 4.882812 8.679688 4.886719 C 8.683594 4.894531 8.675781 4.980469 8.664062 5.082031 C 8.652344 5.183594 8.636719 5.367188 8.628906 5.496094 C 8.613281 5.789062 8.609375 5.824219 8.574219 5.929688 C 8.527344 6.0625 8.507812 6.136719 8.503906 6.210938 C 8.496094 6.320312 8.488281 6.324219 8.398438 6.261719 Z M 6.214844 6.140625 C 6.203125 6.136719 6.179688 6.125 6.167969 6.117188 C 6.15625 6.109375 6.121094 6.101562 6.089844 6.101562 C 6.035156 6.101562 6.03125 6.097656 6.039062 6.074219 C 6.0625 5.976562 6.101562 5.738281 6.109375 5.675781 C 6.113281 5.632812 6.125 5.464844 6.132812 5.300781 C 6.140625 5.136719 6.152344 4.949219 6.15625 4.882812 C 6.167969 4.746094 6.152344 4.671875 6.113281 4.648438 C 6.09375 4.640625 6.007812 4.636719 5.753906 4.640625 C 5.398438 4.644531 5.386719 4.640625 5.414062 4.589844 C 5.421875 4.574219 5.421875 4.53125 5.421875 4.488281 C 5.414062 4.425781 5.40625 4.402344 5.371094 4.347656 C 5.347656 4.3125 5.304688 4.265625 5.28125 4.242188 C 5.257812 4.21875 5.234375 4.195312 5.234375 4.1875 C 5.234375 4.167969 5.625 4.175781 5.816406 4.203125 C 5.992188 4.226562 6.039062 4.226562 6.296875 4.203125 C 6.410156 4.195312 6.53125 4.164062 6.546875 4.140625 C 6.550781 4.136719 6.5625 4.128906 6.574219 4.128906 C 6.589844 4.128906 6.597656 4.144531 6.601562 4.195312 C 6.605469 4.230469 6.617188 4.265625 6.625 4.277344 C 6.644531 4.304688 6.777344 4.320312 7.027344 4.320312 C 7.265625 4.320312 7.269531 4.320312 7.242188 4.394531 C 7.234375 4.414062 7.199219 4.46875 7.164062 4.511719 C 7.074219 4.625 7.03125 4.640625 6.820312 4.65625 C 6.726562 4.660156 6.644531 4.671875 6.640625 4.675781 C 6.632812 4.683594 6.601562 5.054688 6.589844 5.300781 C 6.585938 5.382812 6.589844 5.515625 6.601562 5.660156 C 6.617188 5.839844 6.621094 5.910156 6.609375 5.960938 C 6.59375 6.042969 6.5625 6.097656 6.511719 6.117188 C 6.472656 6.136719 6.253906 6.152344 6.214844 6.140625 Z M 6.214844 6.140625 "/>
</g>
</svg>
