
<svg xmlns="http://www.w3.org/2000/svg" xmlns:xlink="http://www.w3.org/1999/xlink" width="16px" height="16px" viewBox="0 0 16 16" version="1.1">
<g id="surface1">
<path style=" stroke:none;fill-rule:evenodd;fill:#ff6666;fill-opacity:1;" d="M 8 0.363281 C 5.878906 0.363281 3.84375 1.167969 2.34375 2.601562 C 0.84375 4.03125 0 5.976562 0 8 C 0 10.023438 0.84375 11.96875 2.34375 13.398438 C 3.84375 14.832031 5.878906 15.636719 8 15.636719 C 10.121094 15.636719 12.15625 14.832031 13.65625 13.398438 C 15.15625 11.96875 16 10.023438 16 8 C 16 5.976562 15.15625 4.03125 13.65625 2.601562 C 12.15625 1.167969 10.121094 0.363281 8 0.363281 Z M 8 1.816406 C 9.445312 1.816406 10.835938 2.46875 11.855469 3.628906 C 12.878906 4.789062 13.453125 6.359375 13.453125 8 C 13.453125 9.640625 12.878906 11.210938 11.855469 12.371094 C 10.835938 13.53125 9.445312 14.183594 8 14.183594 C 6.554688 14.183594 5.164062 13.53125 4.144531 12.371094 C 3.121094 11.210938 2.546875 9.640625 2.546875 8 C 2.546875 6.359375 3.121094 4.789062 4.144531 3.628906 C 5.164062 2.46875 6.554688 1.816406 8 1.816406 Z M 5.089844 5.816406 L 5.089844 10.183594 L 5.636719 10.183594 C 5.636719 9.089844 5.621094 9.089844 8.265625 9.089844 C 10.378906 9.089844 10.363281 9.089844 10.363281 10.183594 L 10.910156 10.183594 L 10.910156 5.816406 L 10.363281 5.816406 C 10.363281 6.910156 10.378906 6.910156 8.265625 6.910156 C 5.621094 6.910156 5.636719 6.910156 5.636719 5.816406 Z M 5.089844 5.816406 "/>
</g>
</svg>
