
<svg xmlns="http://www.w3.org/2000/svg" xmlns:xlink="http://www.w3.org/1999/xlink" width="16px" height="16px" viewBox="0 0 16 16" version="1.1">
<g id="surface1">
<path style=" stroke:none;fill-rule:nonzero;fill:#ff6666;fill-opacity:1;" d="M 1.640625 0 L 1.003906 0.734375 C 0.96875 1.851562 1.28125 2.84375 1.65625 3.8125 C 2.308594 5.429688 4.070312 6.03125 5.132812 7.027344 C 5.808594 7.671875 5.988281 8.242188 6.085938 8.8125 C 6.195312 9.46875 6.265625 10.183594 6.335938 11.285156 C 6.570312 12.71875 6.695312 15.050781 6.871094 15.828125 C 7.035156 16.007812 8.039062 16 8.039062 16 C 8.039062 16 9.046875 16.007812 9.207031 15.828125 C 9.382812 15.050781 9.511719 12.71875 9.746094 11.285156 C 9.816406 10.183594 9.882812 9.46875 9.996094 8.8125 C 10.089844 8.242188 10.273438 7.671875 10.945312 7.027344 C 12.011719 6.03125 13.769531 5.429688 14.421875 3.8125 C 14.796875 2.84375 15.109375 1.851562 15.078125 0.734375 L 14.441406 0 L 14.441406 0.734375 L 11.5625 2.585938 L 8.039062 2.535156 L 4.515625 2.585938 L 1.640625 0.734375 Z M 4.3125 3.777344 L 6.761719 5.191406 C 6.492188 5.546875 6.070312 5.757812 5.621094 5.761719 C 4.835938 5.761719 4.199219 5.121094 4.199219 4.335938 C 4.199219 4.144531 4.238281 3.953125 4.3125 3.777344 Z M 11.765625 3.777344 C 11.839844 3.953125 11.878906 4.144531 11.878906 4.335938 C 11.878906 5.121094 11.242188 5.761719 10.457031 5.761719 C 10.007812 5.757812 9.589844 5.546875 9.320312 5.191406 Z M 6.695312 9.609375 C 6.695312 9.609375 6.695312 9.609375 6.699219 9.609375 C 6.871094 9.675781 7.035156 9.757812 7.199219 9.832031 C 7.246094 9.851562 7.289062 9.871094 7.335938 9.890625 C 7.289062 9.871094 7.246094 9.851562 7.199219 9.832031 C 7.035156 9.757812 6.871094 9.675781 6.699219 9.609375 C 6.75 10.210938 6.898438 10.921875 7.398438 11.3125 L 7.398438 10.242188 L 8.679688 10.242188 L 8.679688 11.3125 C 9.179688 10.921875 9.332031 10.210938 9.382812 9.613281 L 8.933594 14.179688 L 8.988281 13.582031 C 8.851562 13.359375 8.875 13.160156 8.679688 13.007812 L 8.679688 14.078125 L 7.398438 14.078125 L 7.398438 13.007812 C 7.207031 13.160156 7.226562 13.359375 7.089844 13.582031 Z M 7.695312 10.007812 C 7.710938 10.011719 7.730469 10.015625 7.746094 10.019531 C 7.730469 10.015625 7.710938 10.011719 7.695312 10.007812 Z M 8.921875 14.261719 C 8.914062 14.332031 8.910156 14.390625 8.902344 14.4375 C 8.910156 14.390625 8.914062 14.332031 8.921875 14.261719 Z M 7.199219 14.535156 C 7.238281 14.636719 7.3125 14.660156 7.503906 14.679688 C 7.570312 14.691406 7.625 14.695312 7.679688 14.703125 L 8.324219 14.703125 C 8.398438 14.695312 8.480469 14.6875 8.566406 14.671875 C 8.371094 14.703125 8.222656 14.714844 8.039062 14.710938 L 8.039062 14.722656 C 7.855469 14.726562 7.703125 14.714844 7.503906 14.683594 C 7.3125 14.664062 7.238281 14.636719 7.199219 14.535156 Z M 7.199219 14.535156 "/>
</g>
</svg>
