
<svg xmlns="http://www.w3.org/2000/svg" xmlns:xlink="http://www.w3.org/1999/xlink" width="16px" height="16px" viewBox="0 0 16 16" version="1.1">
<g id="surface1">
<path style=" stroke:none;fill-rule:nonzero;fill:#ff6666;fill-opacity:1;" d="M 9.46875 0 L 9.464844 0.160156 C 9.457031 0.34375 9.324219 3.617188 9.214844 6.207031 C 9.175781 7.152344 9.148438 7.933594 9.152344 7.9375 C 9.15625 7.941406 9.164062 7.941406 9.167969 7.941406 C 9.171875 7.9375 9.613281 6.65625 10.152344 5.097656 C 11.554688 1.046875 11.847656 0.191406 11.886719 0.0898438 L 11.921875 0 Z M 6.832031 3.339844 C 6.832031 3.339844 5.125 4.765625 5.109375 4.804688 C 5.105469 4.816406 5.390625 5.109375 5.945312 5.660156 C 6.410156 6.117188 7.214844 6.914062 7.734375 7.429688 C 8.257812 7.941406 8.6875 8.363281 8.695312 8.363281 C 8.703125 8.363281 8.707031 8.359375 8.707031 8.351562 C 8.707031 8.34375 8.355469 7.394531 7.925781 6.238281 C 7.496094 5.085938 7.078125 3.964844 6.996094 3.746094 C 6.917969 3.527344 6.832031 3.339844 6.832031 3.339844 Z M 13.457031 4.390625 C 13.441406 4.382812 9.59375 8.464844 9.585938 8.496094 C 9.582031 8.515625 9.59375 8.515625 9.628906 8.503906 C 9.652344 8.496094 10.785156 8.054688 12.144531 7.523438 C 13.503906 6.988281 14.621094 6.546875 14.621094 6.539062 C 14.628906 6.519531 13.480469 4.398438 13.457031 4.390625 Z M 5.710938 7.023438 C 5.691406 7.015625 5.683594 7.027344 5.675781 7.050781 C 5.664062 7.109375 5.402344 9.199219 5.402344 9.246094 C 5.402344 9.277344 5.410156 9.289062 5.433594 9.289062 C 5.449219 9.289062 6.042969 9.167969 6.753906 9.019531 C 7.460938 8.875 8.046875 8.746094 8.054688 8.738281 C 8.0625 8.730469 8.066406 8.722656 8.0625 8.71875 C 8.023438 8.683594 5.726562 7.03125 5.710938 7.023438 Z M 13.867188 8.757812 C 13.847656 8.742188 9.980469 9.089844 9.964844 9.105469 C 9.960938 9.113281 9.960938 9.121094 9.96875 9.128906 C 9.976562 9.132812 10.757812 9.558594 11.699219 10.078125 C 12.644531 10.597656 13.429688 11.023438 13.445312 11.023438 C 13.472656 11.019531 13.492188 10.925781 13.679688 9.894531 L 13.675781 9.894531 C 13.789062 9.273438 13.871094 8.761719 13.867188 8.757812 Z M 8.359375 9.316406 C 8.339844 9.324219 7.078125 9.925781 5.558594 10.652344 C 4.039062 11.378906 2.476562 12.121094 2.085938 12.308594 C 1.695312 12.492188 1.378906 12.652344 1.378906 12.664062 C 1.378906 12.675781 1.652344 13.082031 1.988281 13.566406 C 2.789062 14.714844 2.773438 14.691406 2.785156 14.691406 C 2.792969 14.691406 4.054688 13.488281 5.589844 12.015625 L 5.589844 12.011719 C 7.128906 10.539062 8.386719 9.328125 8.390625 9.320312 C 8.394531 9.308594 8.382812 9.308594 8.359375 9.316406 Z M 9.410156 9.605469 C 9.402344 9.601562 9.394531 9.605469 9.394531 9.613281 C 9.394531 9.621094 9.542969 9.964844 9.722656 10.371094 C 9.902344 10.777344 10.527344 12.195312 11.113281 13.515625 C 11.695312 14.839844 12.183594 15.976562 12.191406 16 C 12.253906 15.996094 12.285156 15.996094 12.285156 15.996094 C 12.289062 15.988281 12.71875 15.703125 13.230469 15.382812 C 13.742188 15.058594 14.15625 14.792969 14.15625 14.785156 C 14.15625 14.773438 9.429688 9.609375 9.410156 9.605469 Z M 8.851562 9.714844 C 8.847656 9.710938 8.84375 9.710938 8.835938 9.71875 C 8.804688 9.753906 6.953125 13.0625 6.953125 13.082031 C 6.953125 13.101562 7.007812 13.113281 7.167969 13.132812 C 7.285156 13.148438 7.796875 13.214844 8.300781 13.28125 C 8.804688 13.347656 9.226562 13.398438 9.238281 13.394531 C 9.25 13.390625 9.253906 13.367188 9.246094 13.324219 C 9.238281 13.265625 8.964844 10.636719 8.902344 10.011719 C 8.878906 9.808594 8.867188 9.730469 8.851562 9.714844 Z M 8.851562 9.714844 "/>
</g>
</svg>
