
<svg xmlns="http://www.w3.org/2000/svg" xmlns:xlink="http://www.w3.org/1999/xlink" width="16px" height="16px" viewBox="0 0 16 16" version="1.1">
<g id="surface1">
<path style=" stroke:none;fill-rule:nonzero;fill:#ff6666;fill-opacity:1;" d="M 0.0625 0 C 0.0625 0.125 0.0742188 1.609375 0.808594 2.347656 C 0.808594 2.410156 0.246094 2.148438 0.00390625 2.269531 C 0.00390625 3.257812 0.925781 4.058594 0.925781 4.058594 C 0.925781 4.058594 0.3125 3.882812 0.00390625 3.945312 C -0.0585938 4.25 0.871094 6.152344 2.347656 6.152344 L 2.464844 6.152344 L 2.464844 6.652344 C 2.460938 6.691406 2.460938 6.730469 2.464844 6.769531 L 2.464844 9.421875 C 2.449219 9.453125 2.40625 9.539062 2.40625 9.539062 C 2.40625 9.539062 2.09375 14.207031 0.0625 14.269531 C 0.183594 15.253906 1.054688 16 3.269531 16 L 12.730469 16 C 14.945312 16 15.820312 15.3125 15.941406 14.269531 C 13.910156 14.207031 13.597656 9.539062 13.597656 9.539062 C 13.597656 9.539062 13.554688 9.453125 13.539062 9.421875 L 13.539062 6.152344 L 13.65625 6.152344 C 15.128906 6.152344 16.066406 4.308594 15.941406 4 C 15.695312 3.878906 15.078125 4.058594 15.078125 4.058594 C 15.078125 4.058594 16 3.257812 16 2.269531 C 15.753906 2.148438 15.191406 2.410156 15.191406 2.347656 C 15.929688 1.609375 15.941406 0.125 15.941406 0 C 15.941406 0 14.15625 0.0546875 14.097656 3.195312 C 14.097656 4.96875 13.714844 5.378906 13.441406 5.441406 C 12.796875 2.667969 8.511719 1.640625 8 0.617188 C 7.433594 1.582031 3.199219 2.660156 2.558594 5.441406 C 2.289062 5.378906 1.90625 4.96875 1.90625 3.195312 C 1.84375 0.0546875 0.0625 0 0.0625 0 Z M 8 2.269531 C 8.308594 2.453125 8.671875 2.640625 9.039062 2.886719 C 10.824219 3.808594 12.308594 4.800781 12.308594 6.152344 L 12.308594 6.769531 C 12.308594 7.078125 12.304688 7.351562 12.289062 7.636719 C 11.242188 7.207031 9.84375 6.828125 7.945312 6.828125 C 6.046875 6.828125 4.695312 7.148438 3.714844 7.578125 C 3.699219 7.308594 3.695312 7.039062 3.695312 6.769531 C 3.699219 6.730469 3.699219 6.691406 3.695312 6.652344 L 3.695312 6.152344 C 3.695312 4.738281 5.175781 3.8125 7.019531 2.828125 C 7.390625 2.582031 7.695312 2.394531 8 2.269531 Z M 7.945312 8.058594 C 9.941406 8.058594 11.292969 8.484375 12.175781 8.921875 C 11.867188 11.191406 11.082031 12.589844 10.289062 13.441406 C 9.78125 13.988281 9.257812 14.324219 8.828125 14.519531 C 8.566406 14.640625 8.285156 14.722656 8 14.769531 C 7.964844 14.769531 7.601562 14.722656 7.175781 14.535156 C 6.621094 14.292969 6.125 13.941406 5.714844 13.5 C 4.914062 12.652344 4.132812 11.238281 3.828125 8.902344 C 4.683594 8.472656 5.988281 8.058594 7.945312 8.058594 Z M 4.925781 8.921875 C 4.925781 9.539062 5.414062 10.460938 6.214844 10.460938 C 6.949219 10.460938 7.328125 9.839844 7.328125 9.597656 Z M 11.078125 8.921875 L 8.675781 9.597656 C 8.675781 9.839844 9.050781 10.460938 9.789062 10.460938 C 10.589844 10.460938 11.078125 9.539062 11.078125 8.921875 Z M 11.078125 8.921875 "/>
</g>
</svg>
