
<svg xmlns="http://www.w3.org/2000/svg" xmlns:xlink="http://www.w3.org/1999/xlink" width="16px" height="16px" viewBox="0 0 16 16" version="1.1">
<g id="surface1">
<path style=" stroke:none;fill-rule:nonzero;fill:#ff6666;fill-opacity:1;" d="M 2.75 0.640625 C 1.761719 0.640625 0.609375 1.324219 0.609375 3.261719 C 0.609375 3.84375 0.921875 4.71875 1.449219 5.308594 C 1.480469 5.265625 1.515625 5.226562 1.539062 5.191406 C 1.925781 3.542969 2.675781 2.296875 3.699219 1.53125 C 3.628906 1.4375 3.554688 1.351562 3.511719 1.289062 C 3.234375 0.914062 3.035156 0.640625 2.75 0.640625 Z M 13.28125 0.640625 C 12.996094 0.640625 12.804688 0.902344 12.53125 1.269531 C 12.480469 1.339844 12.402344 1.4375 12.320312 1.539062 C 13.335938 2.308594 14.074219 3.554688 14.460938 5.191406 C 14.488281 5.230469 14.523438 5.277344 14.558594 5.328125 C 15.097656 4.738281 15.421875 3.851562 15.421875 3.261719 C 15.421875 1.324219 14.269531 0.640625 13.28125 0.640625 Z M 6.460938 1.28125 C 4.289062 1.28125 2.714844 2.800781 2.132812 5.460938 C 2.058594 5.554688 1.921875 5.753906 1.738281 6.039062 C 1.828125 6.175781 1.949219 6.335938 2.070312 6.480469 C 2.070312 6.480469 2.632812 7.082031 3.609375 7.371094 C 3.78125 7.421875 3.878906 7.601562 3.828125 7.769531 C 3.789062 7.90625 3.664062 8 3.519531 8 C 3.488281 8 3.460938 7.996094 3.429688 7.988281 C 2.269531 7.648438 1.617188 6.929688 1.589844 6.898438 C 1.527344 6.828125 1.449219 6.742188 1.378906 6.648438 C 1.257812 6.882812 1.140625 7.121094 1.03125 7.359375 C 1.171875 7.570312 1.328125 7.757812 1.410156 7.839844 C 1.417969 7.847656 1.425781 7.851562 1.429688 7.859375 C 1.4375 7.867188 2.175781 8.753906 3.929688 9.289062 C 4.097656 9.339844 4.203125 9.519531 4.148438 9.691406 C 4.109375 9.828125 3.976562 9.921875 3.839844 9.921875 C 3.808594 9.921875 3.78125 9.921875 3.75 9.910156 C 1.890625 9.34375 1.058594 8.410156 0.949219 8.28125 C 0.917969 8.246094 0.835938 8.15625 0.738281 8.039062 C 0.609375 8.371094 0.496094 8.707031 0.398438 9.050781 C 0.511719 9.234375 0.636719 9.410156 0.78125 9.570312 C 0.792969 9.582031 1.496094 10.332031 2.988281 10.898438 C 3.15625 10.960938 3.242188 11.144531 3.179688 11.308594 C 3.132812 11.433594 3.015625 11.519531 2.878906 11.519531 C 2.84375 11.519531 2.804688 11.511719 2.769531 11.5 C 1.140625 10.878906 0.363281 10.066406 0.308594 10.011719 C 0.304688 10.003906 0.261719 9.953125 0.199219 9.878906 C 0.0703125 10.523438 0.00390625 11.183594 0 11.839844 C 0 11.9375 0.0429688 12.03125 0.121094 12.089844 C 0.8125 12.636719 2.835938 13.167969 4.5 13.398438 C 4.484375 13.25 4.480469 13.152344 4.480469 13.140625 L 4.480469 13.121094 C 4.480469 10.425781 5.625 8.261719 6.191406 7.359375 C 5.984375 7.414062 5.769531 7.402344 5.570312 7.328125 C 4.226562 6.882812 4.480469 5.441406 4.480469 5.441406 L 6.910156 6.878906 C 6.921875 6.890625 6.9375 6.898438 6.949219 6.910156 C 7.070312 7.03125 7.070312 7.222656 6.960938 7.351562 C 6.898438 7.433594 5.121094 9.914062 5.121094 13.109375 C 5.125 13.167969 5.140625 13.480469 5.199219 13.839844 C 5.394531 13.898438 5.601562 13.949219 5.789062 13.988281 C 5.796875 13.992188 5.804688 14 5.808594 14 C 5.816406 14 5.816406 14 5.820312 14 C 6.039062 14.0625 6.660156 14.03125 7.128906 13.679688 C 7.492188 13.40625 7.679688 13.007812 7.679688 12.480469 C 7.679688 12.304688 7.824219 12.160156 8 12.160156 C 8.175781 12.160156 8.320312 12.304688 8.320312 12.480469 C 8.320312 13.007812 8.507812 13.410156 8.871094 13.679688 C 9.320312 14.019531 9.910156 14.050781 10.148438 14 C 10.160156 13.996094 10.167969 13.992188 10.179688 13.988281 C 10.378906 13.949219 10.597656 13.894531 10.800781 13.828125 C 10.855469 13.480469 10.875 13.175781 10.878906 13.109375 C 10.878906 9.875 9.058594 7.371094 9.039062 7.351562 C 8.914062 7.226562 8.925781 7.023438 9.050781 6.898438 C 9.085938 6.867188 9.132812 6.84375 9.179688 6.828125 L 11.519531 5.441406 C 11.519531 5.441406 11.773438 6.882812 10.429688 7.328125 C 10.230469 7.402344 10.015625 7.414062 9.808594 7.359375 C 10.375 8.261719 11.519531 10.425781 11.519531 13.121094 L 11.519531 13.140625 C 11.519531 13.152344 11.515625 13.25 11.5 13.398438 C 13.164062 13.167969 15.1875 12.636719 15.878906 12.089844 C 15.957031 12.027344 16 11.9375 16 11.839844 C 16 11.175781 15.933594 10.511719 15.800781 9.859375 C 15.734375 9.945312 15.679688 10 15.671875 10.011719 C 15.636719 10.046875 14.859375 10.871094 13.210938 11.5 C 13.175781 11.515625 13.136719 11.519531 13.101562 11.519531 C 12.972656 11.519531 12.847656 11.4375 12.800781 11.308594 C 12.769531 11.230469 12.769531 11.144531 12.804688 11.066406 C 12.839844 10.988281 12.902344 10.929688 12.980469 10.898438 C 14.480469 10.328125 15.191406 9.578125 15.199219 9.570312 C 15.203125 9.566406 15.398438 9.355469 15.589844 9.03125 C 15.488281 8.675781 15.382812 8.332031 15.261719 8.019531 C 15.15625 8.144531 15.066406 8.242188 15.03125 8.28125 C 14.921875 8.410156 14.089844 9.34375 12.230469 9.910156 C 12.199219 9.921875 12.171875 9.921875 12.140625 9.921875 C 12.003906 9.921875 11.871094 9.828125 11.828125 9.691406 C 11.777344 9.523438 11.871094 9.34375 12.039062 9.289062 C 13.8125 8.75 14.53125 7.867188 14.539062 7.859375 C 14.546875 7.851562 14.5625 7.847656 14.570312 7.839844 C 14.683594 7.722656 14.832031 7.535156 14.960938 7.339844 C 14.851562 7.097656 14.734375 6.863281 14.609375 6.628906 C 14.535156 6.726562 14.464844 6.824219 14.398438 6.898438 C 14.367188 6.9375 13.710938 7.648438 12.550781 7.988281 C 12.519531 7.996094 12.488281 8 12.460938 8 C 12.320312 8 12.191406 7.910156 12.148438 7.769531 C 12.101562 7.597656 12.199219 7.421875 12.371094 7.371094 C 13.351562 7.082031 13.914062 6.476562 13.921875 6.46875 C 14.042969 6.324219 14.160156 6.167969 14.25 6.03125 C 14.074219 5.753906 13.941406 5.554688 13.871094 5.460938 C 13.285156 2.800781 11.710938 1.28125 9.539062 1.28125 C 8.789062 1.28125 8.371094 1.398438 8 1.519531 C 7.628906 1.398438 7.210938 1.28125 6.460938 1.28125 Z M 6.078125 2.558594 C 6.609375 2.558594 7.292969 2.636719 8 3.148438 C 8.707031 2.636719 9.390625 2.558594 9.921875 2.558594 C 10.097656 2.558594 10.238281 2.703125 10.238281 2.878906 C 10.238281 3.058594 10.097656 3.199219 9.921875 3.199219 C 9.210938 3.199219 8.699219 3.382812 8.210938 3.800781 C 8.195312 3.8125 8.179688 3.820312 8.160156 3.828125 C 8.148438 3.835938 8.132812 3.84375 8.121094 3.851562 C 8.082031 3.863281 8.039062 3.871094 8 3.871094 C 7.960938 3.871094 7.917969 3.863281 7.878906 3.851562 C 7.867188 3.84375 7.851562 3.835938 7.839844 3.828125 C 7.820312 3.820312 7.804688 3.8125 7.789062 3.800781 C 7.300781 3.382812 6.789062 3.199219 6.078125 3.199219 C 5.902344 3.199219 5.761719 3.054688 5.761719 2.878906 C 5.761719 2.703125 5.902344 2.558594 6.078125 2.558594 Z M 4.800781 3.519531 C 5.351562 3.519531 7.074219 3.605469 8 4.621094 C 8.925781 3.605469 10.648438 3.519531 11.199219 3.519531 C 11.378906 3.519531 11.519531 3.664062 11.519531 3.839844 C 11.519531 4.015625 11.378906 4.160156 11.199219 4.160156 C 10.675781 4.160156 8.914062 4.238281 8.28125 5.308594 C 8.277344 5.316406 8.265625 5.324219 8.261719 5.328125 C 8.253906 5.339844 8.246094 5.34375 8.238281 5.351562 C 8.21875 5.378906 8.199219 5.402344 8.171875 5.421875 C 8.167969 5.421875 8.164062 5.429688 8.160156 5.429688 C 8.140625 5.441406 8.128906 5.445312 8.109375 5.449219 L 8.078125 5.460938 C 8.058594 5.464844 8.039062 5.46875 8.019531 5.46875 L 8 5.46875 C 7.992188 5.46875 7.988281 5.472656 7.980469 5.46875 C 7.960938 5.46875 7.941406 5.464844 7.921875 5.460938 C 7.910156 5.457031 7.898438 5.453125 7.890625 5.449219 C 7.871094 5.445312 7.855469 5.441406 7.839844 5.429688 C 7.835938 5.429688 7.832031 5.421875 7.828125 5.421875 C 7.800781 5.402344 7.773438 5.378906 7.75 5.351562 C 7.742188 5.34375 7.746094 5.335938 7.738281 5.328125 C 7.734375 5.324219 7.722656 5.316406 7.71875 5.308594 C 7.089844 4.238281 5.324219 4.160156 4.800781 4.160156 C 4.625 4.160156 4.480469 4.015625 4.480469 3.839844 C 4.480469 3.664062 4.625 3.519531 4.800781 3.519531 Z M 8 9.28125 C 8.960938 9.285156 9.921875 9.46875 9.921875 9.820312 L 9.921875 10.140625 C 9.921875 10.300781 9.699219 10.523438 9.378906 10.78125 C 9.378906 10.746094 9.371094 10.75 9.339844 10.71875 C 9.179688 10.558594 8.925781 10.53125 8.800781 10.660156 C 8.671875 10.789062 8.703125 11.011719 8.828125 11.171875 C 8.503906 11.359375 8.0625 11.523438 8 11.570312 C 7.9375 11.523438 7.5 11.359375 7.199219 11.140625 C 7.296875 10.980469 7.328125 10.789062 7.199219 10.660156 C 7.074219 10.53125 6.820312 10.558594 6.660156 10.71875 L 6.660156 10.75 C 6.339844 10.492188 6.078125 10.300781 6.078125 10.300781 L 6.078125 9.789062 C 6.078125 9.4375 7.039062 9.273438 8 9.28125 Z M 8 13.671875 C 7.875 13.875 7.710938 14.054688 7.519531 14.199219 C 7.0625 14.542969 6.496094 14.660156 6.070312 14.660156 C 5.917969 14.660156 5.789062 14.648438 5.679688 14.621094 C 5.675781 14.617188 5.664062 14.621094 5.660156 14.621094 C 5.628906 14.613281 5.589844 14.605469 5.53125 14.589844 C 6.054688 15.039062 6.796875 15.359375 8 15.359375 C 9.214844 15.359375 9.953125 15.035156 10.480469 14.578125 C 10.441406 14.589844 10.410156 14.59375 10.378906 14.601562 C 10.375 14.601562 10.367188 14.609375 10.359375 14.609375 C 10.25 14.644531 10.097656 14.660156 9.929688 14.660156 C 9.503906 14.660156 8.9375 14.542969 8.480469 14.199219 C 8.289062 14.054688 8.128906 13.875 8 13.671875 Z M 8 13.671875 "/>
</g>
</svg>
