
<svg xmlns="http://www.w3.org/2000/svg" xmlns:xlink="http://www.w3.org/1999/xlink" width="16px" height="16px" viewBox="0 0 16 16" version="1.1">
<g id="surface1">
<path style=" stroke:none;fill-rule:evenodd;fill:#ff6666;fill-opacity:1;" d="M 0.882812 0 L 4.175781 0 C 4.527344 0 4.8125 0.285156 4.8125 0.640625 L 4.8125 3.929688 C 4.8125 4.285156 4.527344 4.570312 4.175781 4.570312 L 0.882812 4.570312 C 0.53125 4.570312 0.242188 4.285156 0.242188 3.929688 L 0.242188 0.640625 C 0.242188 0.285156 0.53125 0 0.882812 0 Z M 6.367188 0 L 9.660156 0 C 10.011719 0 10.300781 0.285156 10.300781 0.640625 L 10.300781 3.929688 C 10.300781 4.285156 10.011719 4.570312 9.660156 4.570312 L 6.367188 4.570312 C 6.015625 4.570312 5.730469 4.285156 5.730469 3.929688 L 5.730469 0.640625 C 5.730469 0.285156 6.015625 0 6.367188 0 Z M 11.824219 0 L 15.117188 0 C 15.46875 0 15.757812 0.285156 15.757812 0.640625 L 15.757812 3.929688 C 15.757812 4.285156 15.46875 4.570312 15.117188 4.570312 L 11.824219 4.570312 C 11.472656 4.570312 11.1875 4.285156 11.1875 3.929688 L 11.1875 0.640625 C 11.1875 0.285156 11.472656 0 11.824219 0 Z M 6.339844 5.484375 L 9.632812 5.484375 C 9.984375 5.484375 10.269531 5.773438 10.269531 6.125 L 10.269531 9.417969 C 10.269531 9.769531 9.984375 10.058594 9.632812 10.058594 L 6.339844 10.058594 C 5.988281 10.058594 5.699219 9.769531 5.699219 9.417969 L 5.699219 6.125 C 5.699219 5.773438 5.988281 5.484375 6.339844 5.484375 Z M 6.339844 10.972656 L 9.632812 10.972656 C 9.984375 10.972656 10.269531 11.257812 10.269531 11.609375 L 10.269531 14.902344 C 10.269531 15.257812 9.984375 15.542969 9.632812 15.542969 L 6.339844 15.542969 C 5.988281 15.542969 5.699219 15.257812 5.699219 14.902344 L 5.699219 11.609375 C 5.699219 11.257812 5.988281 10.972656 6.339844 10.972656 Z M 6.339844 10.972656 "/>
</g>
</svg>
