
<svg xmlns="http://www.w3.org/2000/svg" xmlns:xlink="http://www.w3.org/1999/xlink" width="16px" height="16px" viewBox="0 0 16 16" version="1.1">
<g id="surface1">
<path style=" stroke:none;fill-rule:evenodd;fill:#ff6666;fill-opacity:1;" d="M 2.347656 7.050781 L 2.882812 7.050781 L 2.882812 6.652344 C 3.347656 6.574219 3.699219 6.242188 3.699219 5.710938 C 3.699219 5.035156 3.179688 4.8125 2.753906 4.648438 C 2.445312 4.53125 2.175781 4.421875 2.175781 4.179688 C 2.175781 3.976562 2.328125 3.855469 2.578125 3.855469 C 2.839844 3.855469 3.007812 4.007812 3.078125 4.1875 L 3.570312 4.023438 C 3.480469 3.710938 3.25 3.457031 2.882812 3.371094 L 2.882812 3 L 2.347656 3 L 2.347656 3.367188 C 1.878906 3.449219 1.621094 3.792969 1.621094 4.179688 C 1.621094 4.785156 2.097656 4.984375 2.519531 5.144531 C 2.84375 5.273438 3.140625 5.40625 3.140625 5.71875 C 3.140625 6.003906 2.945312 6.160156 2.652344 6.160156 C 2.359375 6.160156 2.125 5.957031 2.003906 5.671875 L 1.5 5.855469 C 1.632812 6.257812 1.929688 6.546875 2.347656 6.644531 Z M 4.203125 7.433594 L 6.671875 7.433594 L 6.671875 7.003906 L 4.203125 7.003906 Z M 10.085938 5.316406 L 10.191406 4.625 L 10.769531 4.625 L 10.667969 5.316406 Z M 12.03125 7.433594 L 14.5 7.433594 L 14.5 7.003906 L 12.03125 7.003906 Z M 9.414062 6.621094 L 9.886719 6.621094 L 10.015625 5.777344 L 10.601562 5.777344 L 10.472656 6.621094 L 10.941406 6.621094 L 11.070312 5.777344 L 11.570312 5.777344 L 11.640625 5.316406 L 11.136719 5.316406 L 11.242188 4.625 L 11.753906 4.625 L 11.820312 4.171875 L 11.3125 4.171875 L 11.429688 3.394531 L 10.964844 3.394531 L 10.839844 4.171875 L 10.257812 4.171875 L 10.375 3.394531 L 9.902344 3.394531 L 9.789062 4.171875 L 9.285156 4.171875 L 9.21875 4.625 L 9.714844 4.625 L 9.613281 5.316406 L 9.109375 5.316406 L 9.039062 5.777344 L 9.546875 5.777344 Z M 4 2 L 12 2 C 13.257812 2.015625 14.085938 2.058594 14.453125 2.261719 C 14.636719 2.363281 14.742188 2.476562 14.839844 2.734375 C 14.9375 2.992188 15 3.40625 15 4 L 15 12 C 15 12.59375 14.9375 13.007812 14.839844 13.265625 C 14.742188 13.527344 14.636719 13.636719 14.453125 13.738281 C 14.085938 13.941406 13.257812 13.984375 12 14 L 4 14 C 2.742188 13.984375 1.910156 13.941406 1.546875 13.738281 C 1.363281 13.636719 1.257812 13.527344 1.160156 13.265625 C 1.0625 13.007812 1 12.59375 1 12 L 1 4 C 1 3.40625 1.0625 2.992188 1.160156 2.734375 C 1.257812 2.476562 1.363281 2.363281 1.546875 2.261719 C 1.910156 2.058594 2.742188 2.015625 4 2 Z M 3.992188 1 C 2.734375 1.015625 1.816406 0.96875 1.0625 1.386719 C 0.6875 1.59375 0.390625 1.945312 0.226562 2.382812 C 0.0585938 2.820312 0 3.34375 0 4 L 0 12 C 0 12.65625 0.0585938 13.179688 0.226562 13.617188 C 0.390625 14.054688 0.6875 14.40625 1.0625 14.613281 C 1.816406 15.03125 2.734375 14.984375 3.992188 15 L 12.007812 15 C 13.265625 14.984375 14.183594 15.03125 14.9375 14.613281 C 15.3125 14.40625 15.609375 14.054688 15.777344 13.617188 C 15.941406 13.179688 16 12.65625 16 12 L 16 4 C 16 3.34375 15.941406 2.820312 15.773438 2.382812 C 15.609375 1.945312 15.3125 1.59375 14.9375 1.386719 C 14.183594 0.96875 13.265625 1.015625 12.007812 1 Z M 3.992188 1 "/>
</g>
</svg>
