
<svg xmlns="http://www.w3.org/2000/svg" xmlns:xlink="http://www.w3.org/1999/xlink" width="16px" height="16px" viewBox="0 0 16 16" version="1.1">
<g id="surface1">
<path style=" stroke:none;fill-rule:evenodd;fill:#ff6666;fill-opacity:1;" d="M 9.582031 2.511719 L 15.417969 2.511719 C 15.738281 2.511719 16 2.773438 16 3.09375 L 16 7.472656 C 16 7.792969 15.738281 8.054688 15.417969 8.054688 L 9.582031 8.054688 C 9.261719 8.054688 9 7.792969 9 7.472656 L 9 3.09375 C 9 2.773438 9.261719 2.511719 9.582031 2.511719 Z M 5.082031 9.496094 L 10.917969 9.496094 C 11.238281 9.496094 11.5 9.757812 11.5 10.078125 L 11.5 14.457031 C 11.5 14.777344 11.238281 15.039062 10.917969 15.039062 L 5.082031 15.039062 C 4.761719 15.039062 4.5 14.777344 4.5 14.457031 L 4.5 10.078125 C 4.5 9.757812 4.761719 9.496094 5.082031 9.496094 Z M 0.582031 0.960938 L 6.417969 0.960938 C 6.738281 0.960938 7 1.222656 7 1.542969 L 7 5.921875 C 7 6.242188 6.738281 6.503906 6.417969 6.503906 L 0.582031 6.503906 C 0.261719 6.503906 0 6.242188 0 5.921875 L 0 1.542969 C 0 1.222656 0.261719 0.960938 0.582031 0.960938 Z M 0.582031 0.960938 "/>
</g>
</svg>
