
<svg xmlns="http://www.w3.org/2000/svg" xmlns:xlink="http://www.w3.org/1999/xlink" width="16px" height="16px" viewBox="0 0 16 16" version="1.1">
<g id="surface1">
<path style=" stroke:none;fill-rule:nonzero;fill:#ff6666;fill-opacity:1;" d="M 6.683594 6.296875 C 5.324219 6.40625 4.328125 6.332031 3.625 6.203125 C 1.425781 5.621094 0.605469 4.554688 1.15625 3.011719 C 1.617188 2.46875 2.050781 2.136719 2.796875 2.269531 C 5.804688 2.816406 8.582031 3.847656 10.984375 3.863281 C 12.914062 3.878906 14.621094 3.054688 15.902344 2.25 C 16.148438 1.746094 15.929688 1.433594 15.289062 1.351562 C 14.328125 1.9375 13.441406 2.257812 12.667969 2.359375 C 9.347656 2.6875 5.109375 0.28125 2.621094 0.761719 C 0.960938 1.082031 0.0859375 2.203125 0 4.128906 C 0.234375 6.332031 2.851562 7.320312 6.105469 7.226562 C 6.101562 7.234375 6.097656 7.242188 6.09375 7.25 C 5.265625 8.277344 4.957031 9.652344 4.894531 11.136719 C 4.835938 12.402344 5.492188 13.503906 6.398438 14.4375 C 7.578125 15.296875 8.789062 15.515625 10.023438 15.09375 C 12.09375 14.421875 13.351562 12.972656 13.804688 10.746094 C 13.746094 9.40625 13.113281 8.640625 11.902344 8.453125 C 10.273438 8.496094 8.960938 9.59375 7.972656 11.75 C 8.066406 12.367188 8.308594 12.515625 8.824219 12.273438 C 9.535156 10.507812 11.03125 9.019531 12.011719 9.433594 C 12.996094 9.851562 12.515625 12.796875 9.785156 14.238281 C 8.636719 14.589844 7.777344 14.386719 7.207031 13.628906 C 6.152344 12.074219 6.453125 9.878906 8.101562 7.042969 C 9.097656 6.894531 10.117188 6.65625 11.117188 6.332031 C 11.492188 6.046875 11.773438 6.136719 11.582031 5.683594 C 11.390625 5.230469 11.238281 5.46875 10.746094 5.480469 C 10.011719 5.722656 9.34375 5.902344 8.738281 6.019531 C 9.121094 5.433594 9.558594 4.828125 10.046875 4.191406 C 9.707031 4.050781 9.4375 3.980469 9.238281 3.972656 C 8.949219 4.132812 8.519531 4.308594 7.949219 4.496094 C 7.421875 5.222656 7 5.820312 6.683594 6.296875 Z M 6.683594 6.296875 "/>
</g>
</svg>
