
<svg xmlns="http://www.w3.org/2000/svg" xmlns:xlink="http://www.w3.org/1999/xlink" width="16px" height="16px" viewBox="0 0 16 16" version="1.1">
<g id="surface1">
<path style=" stroke:none;fill-rule:nonzero;fill:#ff6666;fill-opacity:1;" d="M 8.417969 0 C 8.558594 0.109375 8.679688 0.242188 8.8125 0.355469 C 10.019531 1.503906 11.125 2.773438 12.015625 4.191406 C 12.875 5.5625 13.539062 7.078125 13.832031 8.679688 C 13.996094 9.554688 14.046875 10.457031 13.953125 11.34375 C 13.910156 11.714844 13.847656 12.085938 13.730469 12.441406 C 13.566406 12.953125 13.347656 13.453125 13.054688 13.90625 C 12.796875 14.296875 12.480469 14.644531 12.113281 14.925781 C 11.707031 15.234375 11.246094 15.460938 10.765625 15.617188 C 10.167969 15.808594 9.539062 15.90625 8.914062 15.957031 C 8.167969 16.011719 7.417969 16.023438 6.675781 15.929688 C 5.832031 15.824219 4.996094 15.597656 4.246094 15.1875 C 3.550781 14.8125 2.941406 14.257812 2.550781 13.558594 C 2.09375 12.765625 1.945312 11.820312 2.015625 10.910156 C 2.089844 9.945312 2.394531 9.011719 2.796875 8.136719 C 3.148438 7.386719 3.574219 6.675781 4.050781 6 C 4.453125 5.425781 4.890625 4.878906 5.367188 4.363281 C 5.375 4.355469 5.390625 4.34375 5.402344 4.335938 C 5.394531 4.769531 5.433594 5.207031 5.558594 5.621094 C 5.683594 6.046875 5.894531 6.449219 6.175781 6.789062 C 6.191406 6.808594 6.203125 6.839844 6.234375 6.84375 C 6.847656 6.382812 7.421875 5.863281 7.875 5.238281 C 8.339844 4.59375 8.652344 3.839844 8.769531 3.046875 C 8.929688 2.027344 8.792969 0.960938 8.417969 0 Z M 8.417969 0 "/>
</g>
</svg>
