
<svg xmlns="http://www.w3.org/2000/svg" xmlns:xlink="http://www.w3.org/1999/xlink" width="16px" height="16px" viewBox="0 0 16 16" version="1.1">
<g id="surface1">
<path style=" stroke:none;fill-rule:evenodd;fill:#ff6666;fill-opacity:1;" d="M 5.714844 11.714844 C 5.714844 11.242188 6.097656 10.855469 6.570312 10.855469 C 7.046875 10.855469 7.429688 11.242188 7.429688 11.714844 C 7.429688 12.1875 7.046875 12.570312 6.570312 12.570312 C 6.097656 12.570312 5.714844 12.1875 5.714844 11.714844 Z M 1.714844 8.996094 C 1.691406 7.34375 1.976562 5.769531 2.554688 4.324219 C 3.28125 2.492188 4.339844 0.625 6.214844 0.117188 C 6.644531 0.0078125 7.945312 -0.0390625 8.027344 0.0390625 C 8.046875 0.0625 7.890625 0.269531 7.675781 0.503906 C 7.21875 1.007812 6.5625 1.679688 6.402344 2.320312 C 6.25 2.90625 6.253906 3.074219 6.417969 3.179688 C 6.777344 3.414062 9.75 3.585938 10.121094 3.378906 C 10.199219 3.339844 10.445312 3.199219 10.671875 2.972656 C 11.191406 2.449219 12.128906 1.878906 12.820312 1.769531 C 13.316406 1.695312 14.246094 1.757812 14.285156 1.875 C 14.296875 1.914062 14.132812 2.066406 13.921875 2.21875 C 13.492188 2.523438 13 2.9375 12.859375 3.234375 C 12.773438 3.414062 12.777344 3.46875 12.914062 4 C 13.132812 4.835938 13.21875 5.992188 13.132812 7.015625 C 13.035156 8.128906 12.726562 10.203125 12.480469 11.347656 C 11.871094 14.234375 10.753906 15.621094 9.128906 15.960938 C 8.738281 16.042969 7.65625 15.96875 7.65625 15.96875 C 3.769531 15.753906 1.789062 12.429688 1.714844 8.996094 Z M 10.285156 12.285156 C 10.285156 11.8125 10.671875 11.429688 11.144531 11.429688 C 11.617188 11.429688 12 11.8125 12 12.285156 C 12 12.757812 11.617188 13.144531 11.144531 13.144531 C 10.671875 13.144531 10.285156 12.757812 10.285156 12.285156 Z M 10.285156 12.285156 "/>
</g>
</svg>
