
<svg xmlns="http://www.w3.org/2000/svg" xmlns:xlink="http://www.w3.org/1999/xlink" width="16px" height="16px" viewBox="0 0 16 16" version="1.1">
<g id="surface1">
<path style=" stroke:none;fill-rule:nonzero;fill:#ff6666;fill-opacity:1;" d="M 0.964844 3.296875 L 4.917969 5.558594 C 4.917969 5.558594 5.183594 5.667969 5.277344 5.667969 C 5.367188 5.667969 5.777344 5.476562 5.777344 5.476562 L 13.148438 1.253906 C 13.148438 1.253906 13.402344 1.085938 13.546875 1.042969 C 13.667969 1.007812 13.800781 0.984375 13.921875 1.011719 C 14.257812 1.089844 14.8125 1.527344 14.8125 1.527344 C 14.8125 1.527344 14.996094 1.65625 15.027344 1.757812 C 15.050781 1.84375 15.023438 1.945312 14.980469 2.023438 C 14.941406 2.09375 14.800781 2.179688 14.800781 2.179688 L 5.578125 7.472656 C 5.578125 7.472656 5.390625 7.53125 5.292969 7.527344 C 5.203125 7.527344 5.027344 7.472656 5.027344 7.472656 L 0.964844 5.164062 Z M 0.964844 3.296875 "/>
<path style=" stroke:none;fill-rule:nonzero;fill:#ff6666;fill-opacity:1;" d="M 0.964844 7.03125 L 4.917969 9.292969 C 4.917969 9.292969 5.183594 9.402344 5.277344 9.402344 C 5.367188 9.402344 5.777344 9.214844 5.777344 9.214844 L 13.148438 4.988281 C 13.148438 4.988281 13.402344 4.820312 13.546875 4.777344 C 13.667969 4.742188 13.800781 4.71875 13.921875 4.746094 C 14.257812 4.824219 14.8125 5.261719 14.8125 5.261719 C 14.8125 5.261719 14.996094 5.394531 15.027344 5.492188 C 15.050781 5.578125 15.023438 5.679688 14.980469 5.761719 C 14.941406 5.828125 14.800781 5.914062 14.800781 5.914062 L 5.578125 11.207031 C 5.578125 11.207031 5.390625 11.265625 5.292969 11.265625 C 5.203125 11.265625 5.027344 11.207031 5.027344 11.207031 L 0.964844 8.898438 Z M 0.964844 7.03125 "/>
<path style=" stroke:none;fill-rule:nonzero;fill:#ff6666;fill-opacity:1;" d="M 0.964844 10.769531 L 4.917969 13.027344 C 4.917969 13.027344 5.183594 13.140625 5.277344 13.140625 C 5.367188 13.140625 5.777344 12.949219 5.777344 12.949219 L 13.148438 8.726562 C 13.148438 8.726562 13.402344 8.554688 13.546875 8.511719 C 13.667969 8.476562 13.800781 8.457031 13.921875 8.484375 C 14.257812 8.558594 14.8125 8.996094 14.8125 8.996094 C 14.8125 8.996094 14.996094 9.128906 15.027344 9.230469 C 15.050781 9.316406 15.023438 9.417969 14.980469 9.496094 C 14.941406 9.5625 14.800781 9.652344 14.800781 9.652344 L 5.578125 14.941406 C 5.578125 14.941406 5.390625 15 5.292969 15 C 5.203125 15 5.027344 14.941406 5.027344 14.941406 L 0.964844 12.636719 Z M 0.964844 10.769531 "/>
</g>
</svg>
