
<svg xmlns="http://www.w3.org/2000/svg" xmlns:xlink="http://www.w3.org/1999/xlink" width="16px" height="16px" viewBox="0 0 16 16" version="1.1">
<g id="surface1">
<path style=" stroke:none;fill-rule:nonzero;fill:#ff6666;fill-opacity:1;" d="M 8.042969 0.457031 C 3.898438 0.457031 0.542969 3.816406 0.542969 7.957031 C 0.542969 12.101562 3.898438 15.457031 8.042969 15.457031 C 12.183594 15.457031 15.542969 12.101562 15.542969 7.957031 C 15.542969 3.816406 12.183594 0.457031 8.042969 0.457031 Z M 8.042969 2.332031 C 11.148438 2.332031 13.667969 4.851562 13.667969 7.957031 C 13.664062 9.554688 12.984375 11.078125 11.792969 12.140625 L 11.792969 6.082031 L 9.917969 6.082031 L 9.917969 13.253906 C 9.316406 13.46875 8.683594 13.582031 8.042969 13.582031 C 4.9375 13.582031 2.417969 11.066406 2.417969 7.957031 C 2.417969 4.851562 4.9375 2.332031 8.042969 2.332031 Z M 9.917969 8.425781 L 5.230469 5.144531 L 5.230469 11.707031 Z M 9.917969 8.425781 "/>
</g>
</svg>
