
<svg xmlns="http://www.w3.org/2000/svg" xmlns:xlink="http://www.w3.org/1999/xlink" width="16px" height="16px" viewBox="0 0 16 16" version="1.1">
<g id="surface1">
<path style=" stroke:none;fill-rule:nonzero;fill:#ff6666;fill-opacity:1;" d="M 15.984375 6.644531 L 13.863281 2.65625 C 13.859375 2.648438 13.855469 2.644531 13.851562 2.640625 C 13.835938 2.621094 13.820312 2.605469 13.800781 2.59375 C 13.726562 2.539062 13.621094 2.527344 13.535156 2.574219 C 13.480469 2.601562 13.445312 2.644531 13.421875 2.691406 C 13.417969 2.695312 13.417969 2.699219 13.414062 2.707031 L 12.269531 5.40625 L 9.992188 6.574219 C 9.976562 6.578125 9.960938 6.589844 9.949219 6.597656 L 9.175781 6.992188 L 8.5 7.339844 L 8.324219 7.007812 C 8.222656 6.820312 7.988281 6.746094 7.796875 6.84375 C 7.605469 6.941406 7.53125 7.175781 7.632812 7.363281 L 7.808594 7.691406 L 7.15625 8.027344 L 6.59375 6.96875 L 7.601562 6.453125 C 7.863281 6.316406 7.964844 6.003906 7.828125 5.75 C 7.804688 5.710938 7.777344 5.671875 7.746094 5.640625 L 7.703125 5.59375 C 7.542969 5.460938 7.308594 5.429688 7.113281 5.53125 L 4.132812 7.058594 C 3.871094 7.191406 3.769531 7.503906 3.90625 7.761719 C 3.925781 7.800781 3.953125 7.835938 3.984375 7.867188 C 3.996094 7.886719 4.015625 7.902344 4.03125 7.914062 C 4.191406 8.046875 4.425781 8.082031 4.621094 7.980469 L 5.632812 7.464844 L 6.191406 8.519531 L 5.472656 8.890625 L 5.296875 8.558594 C 5.199219 8.371094 4.960938 8.296875 4.769531 8.394531 C 4.722656 8.421875 4.679688 8.457031 4.644531 8.496094 C 4.554688 8.613281 4.53125 8.773438 4.605469 8.910156 L 4.78125 9.242188 L 3.6875 9.804688 C 3.671875 9.8125 3.65625 9.820312 3.640625 9.828125 L 1.035156 11.164062 L 0.144531 10.972656 C 0.140625 10.972656 0.140625 10.972656 0.136719 10.972656 C 0.113281 10.96875 0.0859375 10.972656 0.0625 10.984375 C 0.0117188 11.011719 -0.0117188 11.070312 0.0078125 11.125 L 0.984375 12.960938 C 0.984375 12.960938 0.988281 12.964844 0.992188 12.96875 L 1.007812 12.984375 C 1.039062 13.011719 1.089844 13.019531 1.132812 12.996094 C 1.15625 12.984375 1.175781 12.964844 1.1875 12.941406 C 1.1875 12.941406 1.1875 12.9375 1.1875 12.9375 L 1.546875 12.09375 L 2.589844 11.558594 C 2.59375 11.851562 2.664062 12.144531 2.8125 12.421875 C 3.3125 13.363281 4.496094 13.726562 5.457031 13.234375 C 5.472656 13.226562 5.484375 13.21875 5.5 13.210938 L 6.59375 12.652344 L 6.800781 13.035156 C 6.898438 13.222656 7.136719 13.296875 7.328125 13.199219 C 7.515625 13.101562 7.59375 12.867188 7.492188 12.683594 L 7.285156 12.296875 L 8.007812 11.929688 L 8.601562 13.050781 C 8.742188 13.3125 9.070312 13.414062 9.335938 13.277344 C 9.410156 13.238281 9.472656 13.1875 9.519531 13.125 C 9.640625 12.964844 9.664062 12.746094 9.566406 12.558594 L 8.96875 11.433594 L 9.621094 11.101562 L 9.824219 11.484375 C 9.925781 11.671875 10.160156 11.746094 10.351562 11.648438 C 10.542969 11.550781 10.617188 11.316406 10.519531 11.132812 L 10.3125 10.746094 L 11.824219 9.972656 C 11.929688 9.917969 12.023438 9.855469 12.113281 9.785156 C 12.839844 9.222656 13.078125 8.21875 12.636719 7.386719 C 12.488281 7.113281 12.285156 6.886719 12.042969 6.714844 L 12.757812 6.351562 L 15.6875 6.972656 C 15.691406 6.976562 15.695312 6.976562 15.703125 6.976562 C 15.757812 6.988281 15.8125 6.980469 15.863281 6.953125 C 15.980469 6.894531 16.027344 6.761719 15.984375 6.644531 Z M 4.976562 12.285156 C 4.96875 12.289062 4.964844 12.292969 4.957031 12.296875 C 4.523438 12.519531 3.992188 12.355469 3.769531 11.929688 C 3.542969 11.507812 3.710938 10.984375 4.140625 10.765625 L 5.28125 10.179688 L 6.09375 11.714844 Z M 6.785156 11.359375 L 5.972656 9.828125 L 6.019531 9.804688 L 6.691406 9.460938 L 7.507812 10.988281 L 7.351562 11.070312 Z M 8.46875 10.496094 L 7.65625 8.964844 L 8.308594 8.632812 L 9.121094 10.160156 Z M 11.171875 9.109375 C 11.160156 9.117188 11.152344 9.121094 11.140625 9.125 L 9.8125 9.808594 L 8.996094 8.277344 L 9.988281 7.769531 L 10.308594 7.605469 C 10.324219 7.597656 10.339844 7.589844 10.359375 7.582031 C 10.777344 7.398438 11.277344 7.566406 11.496094 7.972656 C 11.6875 8.328125 11.59375 8.757812 11.300781 9.015625 C 11.261719 9.050781 11.21875 9.082031 11.171875 9.109375 Z M 11.171875 9.109375 "/>
</g>
</svg>
