
<svg xmlns="http://www.w3.org/2000/svg" xmlns:xlink="http://www.w3.org/1999/xlink" width="16px" height="16px" viewBox="0 0 16 16" version="1.1">
<g id="surface1">
<path style=" stroke:none;fill-rule:nonzero;fill:#ff6666;fill-opacity:1;" d="M 8.214844 0.5 L 7.570312 0.507812 C 7.210938 0.507812 6.675781 0.566406 6.371094 0.625 C 4.59375 1.007812 3.195312 1.886719 1.886719 3.464844 C 0.996094 4.539062 0.296875 6.171875 0.0820312 7.699219 C -0.210938 9.820312 0.277344 11.828125 1.574219 13.8125 C 1.9375 14.375 2.015625 14.453125 2.402344 14.652344 C 3.144531 15.054688 3.84375 15.28125 4.925781 15.460938 C 5.035156 15.480469 5.132812 15.488281 5.132812 15.472656 C 5.132812 15.460938 4.972656 15.320312 4.761719 15.167969 C 4.175781 14.714844 3.234375 13.691406 2.8125 13.050781 C 1.761719 11.484375 1.4375 10.328125 1.507812 8.433594 C 1.535156 7.667969 1.582031 7.355469 1.710938 6.921875 C 2.578125 4.019531 4.925781 2.03125 7.515625 2.007812 L 8.050781 2 L 8.089844 1.566406 C 8.117188 1.328125 8.148438 0.992188 8.171875 0.8125 Z M 8.421875 2.464844 C 7.921875 2.453125 7.367188 2.464844 7.183594 2.492188 C 5.140625 2.832031 3.390625 4.1875 2.5 6.113281 C 1.683594 7.859375 1.761719 10.113281 2.699219 12 C 3.378906 13.359375 4.535156 14.53125 5.910156 15.238281 L 6.421875 15.5 L 8.699219 15.5 C 11.15625 15.5 11.578125 15.460938 12.554688 15.125 C 13.023438 14.972656 13.441406 14.765625 13.082031 14.867188 C 12.769531 14.960938 10.199219 14.914062 9.46875 14.804688 C 5.695312 14.238281 3.421875 11.945312 3.421875 8.699219 C 3.421875 7.945312 3.441406 7.804688 3.617188 7.285156 C 3.980469 6.199219 4.644531 5.304688 5.511719 4.738281 C 6.363281 4.179688 7.183594 3.9375 8.226562 3.953125 C 8.988281 3.953125 9.597656 4.078125 10.269531 4.359375 C 10.535156 4.472656 10.765625 4.550781 10.769531 4.546875 C 10.785156 4.539062 10.925781 4.246094 11.089844 3.90625 C 11.433594 3.191406 11.4375 3.191406 10.863281 2.964844 C 10.015625 2.625 9.367188 2.492188 8.421875 2.464844 Z M 8.203125 4.378906 C 7.945312 4.386719 7.683594 4.417969 7.414062 4.472656 C 6.839844 4.585938 5.882812 5.046875 5.457031 5.40625 C 4.4375 6.273438 3.9375 7.433594 3.9375 8.902344 C 3.9375 9.8125 4.042969 10.300781 4.425781 11.078125 C 5.175781 12.605469 6.75 13.644531 9.136719 14.171875 C 9.710938 14.304688 10.042969 14.328125 11.949219 14.355469 L 14.117188 14.378906 L 14.421875 14.195312 C 14.714844 14.019531 16.058594 12.726562 16 12.671875 C 15.984375 12.667969 15.738281 12.671875 15.453125 12.707031 C 15.164062 12.734375 14.265625 12.792969 13.457031 12.832031 C 10.375 12.980469 8.53125 12.671875 7.042969 11.753906 C 6.605469 11.480469 5.921875 10.761719 5.734375 10.359375 C 5.0625 8.933594 5.445312 7.253906 6.632812 6.441406 C 8.03125 5.488281 9.945312 5.851562 10.851562 7.253906 L 11.011719 7.5 L 11.636719 7.160156 C 11.984375 6.964844 12.273438 6.804688 12.289062 6.792969 C 12.367188 6.726562 12.007812 6.214844 11.546875 5.734375 C 11.117188 5.28125 10.921875 5.132812 10.40625 4.875 C 9.679688 4.507812 8.96875 4.34375 8.203125 4.378906 Z M 8.203125 4.378906 "/>
</g>
</svg>
