
<svg xmlns="http://www.w3.org/2000/svg" xmlns:xlink="http://www.w3.org/1999/xlink" width="16px" height="16px" viewBox="0 0 16 16" version="1.1">
<g id="surface1">
<path style=" stroke:none;fill-rule:evenodd;fill:#ff6666;fill-opacity:1;" d="M 6.234375 10.003906 C 5.886719 10.371094 5.773438 10.90625 5.945312 11.386719 C 6.199219 12.082031 6.964844 12.4375 7.65625 12.1875 C 8.347656 11.933594 8.703125 11.164062 8.453125 10.472656 C 8.277344 9.992188 7.851562 9.65625 7.347656 9.601562 L 7.34375 9.691406 L 7.277344 11.136719 L 6.296875 10.070312 Z M 11.035156 8.136719 C 10.6875 8.507812 10.574219 9.039062 10.746094 9.519531 C 11 10.214844 11.765625 10.570312 12.457031 10.320312 C 13.148438 10.066406 13.503906 9.300781 13.253906 8.605469 C 13.078125 8.125 12.648438 7.789062 12.144531 7.734375 L 12.140625 7.824219 L 12.074219 9.269531 L 11.097656 8.203125 Z M 2.003906 6.132812 C 1.792969 6.132812 1.570312 6.15625 1.332031 6.199219 C 1.332031 6.199219 2.804688 6.347656 3.535156 7.253906 C 3.226562 8.433594 2.824219 9.332031 2.824219 9.332031 L 4.265625 7.046875 C 4.265625 7.046875 3.472656 6.125 2.003906 6.132812 Z M 9.332031 1.332031 L 8 3.734375 L 8.8125 3.5 C 8.8125 3.5 9.222656 2.496094 9.332031 1.332031 Z M 9.339844 0 L 6.988281 3.308594 C 6.300781 3.550781 5.660156 3.898438 5.089844 4.347656 C 2.75 3.792969 0.265625 5.65625 0.265625 5.65625 L 2.675781 10.597656 C 3.226562 13.71875 5.957031 15.996094 9.152344 16 C 12.785156 16 15.734375 13.074219 15.734375 9.46875 C 15.730469 7.414062 14.753906 5.480469 13.09375 4.25 C 12.695312 1.523438 9.339844 0 9.339844 0 Z M 13.097656 12.054688 L 13.324219 11.917969 L 13.601562 12.371094 L 13.371094 12.511719 C 13.140625 12.652344 12.890625 12.769531 12.632812 12.851562 C 12.398438 12.929688 12.15625 12.96875 11.914062 12.972656 C 11.652344 12.972656 11.390625 12.917969 11.148438 12.8125 C 11.101562 12.792969 11.054688 12.769531 11.003906 12.742188 C 10.988281 13.128906 10.859375 13.5 10.628906 13.808594 C 10.5 13.980469 10.347656 14.140625 10.179688 14.273438 C 9.996094 14.429688 9.792969 14.566406 9.578125 14.683594 L 9.34375 14.8125 L 9.089844 14.34375 L 9.324219 14.214844 C 9.507812 14.113281 9.683594 13.996094 9.84375 13.863281 C 9.980469 13.753906 10.097656 13.628906 10.203125 13.488281 C 10.375 13.257812 10.46875 12.972656 10.472656 12.683594 C 10.472656 12.53125 10.449219 12.382812 10.410156 12.238281 C 10.378906 12.121094 10.769531 11.894531 10.851562 11.976562 C 11.003906 12.121094 11.171875 12.238281 11.363281 12.324219 C 11.535156 12.398438 11.722656 12.4375 11.910156 12.4375 C 12.097656 12.433594 12.285156 12.40625 12.464844 12.347656 C 12.683594 12.273438 12.894531 12.175781 13.097656 12.054688 Z M 13.097656 12.054688 "/>
</g>
</svg>
