
<svg xmlns="http://www.w3.org/2000/svg" xmlns:xlink="http://www.w3.org/1999/xlink" width="16px" height="16px" viewBox="0 0 16 16" version="1.1">
<g id="surface1">
<path style=" stroke:none;fill-rule:evenodd;fill:#ff6666;fill-opacity:1;" d="M 3.164062 6.25 L 2.34375 6.25 L 2.34375 9.046875 L 3.164062 9.046875 C 3.449219 9.046875 3.671875 8.976562 3.835938 8.84375 C 4.003906 8.707031 4.085938 8.515625 4.085938 8.269531 L 4.085938 7.027344 C 4.085938 6.78125 4.003906 6.589844 3.835938 6.453125 C 3.671875 6.316406 3.449219 6.25 3.164062 6.25 Z M 0.242188 4.492188 L 3.121094 4.492188 C 3.78125 4.492188 4.355469 4.578125 4.84375 4.753906 C 5.328125 4.925781 5.722656 5.222656 6.023438 5.636719 C 6.324219 6.050781 6.476562 6.570312 6.476562 7.1875 L 6.476562 8.109375 C 6.476562 9.070312 6.148438 9.769531 5.5 10.210938 C 4.90625 10.605469 4.113281 10.804688 3.121094 10.804688 L 0.242188 10.804688 C 0.175781 10.804688 0.121094 10.78125 0.0703125 10.730469 C 0.0234375 10.683594 0 10.628906 0 10.5625 L 0 4.734375 C 0 4.667969 0.0234375 4.613281 0.0703125 4.5625 C 0.121094 4.515625 0.175781 4.492188 0.242188 4.492188 Z M 13.214844 8.640625 L 13.214844 6.1875 L 12.320312 6.1875 L 12.320312 7.972656 C 12.320312 8.308594 12.292969 8.527344 12.242188 8.640625 Z M 10.453125 4.390625 L 15.078125 4.390625 C 15.144531 4.390625 15.199219 4.414062 15.246094 4.460938 C 15.292969 4.507812 15.316406 4.5625 15.316406 4.625 L 15.316406 8.640625 L 15.761719 8.640625 C 15.828125 8.640625 15.882812 8.664062 15.929688 8.710938 C 15.976562 8.757812 16 8.8125 16 8.875 L 16 11.375 C 16 11.4375 15.976562 11.492188 15.929688 11.539062 C 15.882812 11.585938 15.828125 11.609375 15.761719 11.609375 L 14.34375 11.609375 C 14.28125 11.609375 14.222656 11.585938 14.175781 11.539062 C 14.128906 11.492188 14.105469 11.4375 14.105469 11.375 L 14.105469 10.523438 L 11.117188 10.523438 L 11.117188 11.375 C 11.117188 11.4375 11.09375 11.492188 11.050781 11.539062 C 11.003906 11.585938 10.945312 11.609375 10.882812 11.609375 L 9.472656 11.609375 C 9.40625 11.609375 9.351562 11.589844 9.304688 11.542969 C 9.257812 11.5 9.234375 11.445312 9.234375 11.375 L 9.234375 8.875 C 9.234375 8.8125 9.257812 8.757812 9.304688 8.710938 C 9.351562 8.664062 9.40625 8.640625 9.472656 8.640625 L 9.613281 8.640625 C 9.753906 8.640625 9.886719 8.578125 10.019531 8.457031 C 10.152344 8.332031 10.21875 8.167969 10.21875 7.964844 L 10.21875 4.625 C 10.21875 4.5625 10.242188 4.507812 10.285156 4.460938 C 10.332031 4.414062 10.390625 4.390625 10.453125 4.390625 Z M 10.453125 4.390625 "/>
</g>
</svg>
