
<svg xmlns="http://www.w3.org/2000/svg" xmlns:xlink="http://www.w3.org/1999/xlink" width="16px" height="16px" viewBox="0 0 16 16" version="1.1">
<g id="surface1">
<path style=" stroke:none;fill-rule:evenodd;fill:#ff6666;fill-opacity:1;" d="M 7.941406 7.367188 C 7.914062 7.371094 7.890625 7.378906 7.863281 7.386719 C 7.578125 7.449219 7.378906 7.707031 7.386719 8 L 7.386719 9.847656 C 7.382812 10.066406 7.496094 10.273438 7.691406 10.386719 C 7.882812 10.496094 8.117188 10.496094 8.308594 10.386719 C 8.503906 10.273438 8.617188 10.066406 8.613281 9.847656 L 8.613281 8 C 8.621094 7.824219 8.550781 7.652344 8.421875 7.53125 C 8.292969 7.410156 8.117188 7.347656 7.941406 7.367188 Z M 11.652344 8.347656 C 11.628906 8.351562 11.601562 8.359375 11.578125 8.363281 C 11.398438 8.398438 11.242188 8.511719 11.152344 8.671875 L 10.230469 10.269531 C 10.148438 10.410156 10.128906 10.582031 10.171875 10.742188 C 10.214844 10.898438 10.320312 11.035156 10.460938 11.117188 C 10.605469 11.199219 10.773438 11.21875 10.933594 11.175781 C 11.089844 11.132812 11.226562 11.027344 11.308594 10.886719 L 12.230469 9.289062 C 12.355469 9.089844 12.355469 8.839844 12.234375 8.636719 C 12.113281 8.4375 11.886719 8.324219 11.652344 8.347656 Z M 4.210938 8.363281 C 4.007812 8.394531 3.832031 8.523438 3.742188 8.707031 C 3.65625 8.894531 3.664062 9.109375 3.769531 9.289062 L 4.691406 10.886719 C 4.863281 11.183594 5.242188 11.285156 5.539062 11.117188 C 5.835938 10.945312 5.9375 10.566406 5.769531 10.269531 L 4.847656 8.671875 C 4.71875 8.445312 4.46875 8.324219 4.210938 8.367188 Z M 14.367188 11.058594 C 14.347656 11.0625 14.328125 11.070312 14.308594 11.078125 C 14.234375 11.089844 14.160156 11.113281 14.097656 11.152344 L 12.5 12.078125 C 12.203125 12.246094 12.097656 12.625 12.269531 12.921875 C 12.441406 13.222656 12.816406 13.324219 13.117188 13.152344 L 14.710938 12.230469 C 15 12.109375 15.152344 11.789062 15.0625 11.488281 C 14.972656 11.1875 14.671875 11.003906 14.363281 11.058594 Z M 1.5 11.078125 C 1.234375 11.109375 1.019531 11.3125 0.972656 11.578125 C 0.921875 11.839844 1.050781 12.105469 1.289062 12.230469 L 2.886719 13.152344 C 3.183594 13.324219 3.558594 13.222656 3.730469 12.921875 C 3.8125 12.78125 3.835938 12.609375 3.789062 12.453125 C 3.746094 12.292969 3.644531 12.15625 3.5 12.078125 L 1.902344 11.152344 C 1.78125 11.082031 1.640625 11.054688 1.5 11.078125 Z M 8 11.078125 C 5.839844 11.078125 4.050781 12.691406 3.75 14.769531 L 0 14.769531 L 0 16 L 16 16 L 16 14.769531 L 12.25 14.769531 C 11.949219 12.691406 10.160156 11.078125 8 11.078125 Z M 8 11.078125 "/>
</g>
</svg>
