
<svg xmlns="http://www.w3.org/2000/svg" xmlns:xlink="http://www.w3.org/1999/xlink" width="16px" height="16px" viewBox="0 0 16 16" version="1.1">
<g id="surface1">
<path style=" stroke:none;fill-rule:nonzero;fill:#ff6666;fill-opacity:1;" d="M 7.203125 1.644531 C 4.585938 1.644531 2.4375 3.789062 2.4375 6.410156 L 2.4375 8 L 13.558594 8 L 13.558594 6.410156 C 13.558594 3.789062 11.414062 1.644531 8.792969 1.644531 Z M 0.777344 9.339844 C 0.246094 9.382812 -0.152344 10.003906 0.0546875 10.632812 L 0.378906 11.574219 C 0.933594 13.402344 2.359375 14.355469 4.027344 14.355469 L 11.972656 14.355469 C 13.640625 14.355469 15.066406 13.402344 15.621094 11.574219 L 15.941406 10.632812 C 16.179688 9.917969 15.636719 9.183594 15 9.339844 L 8.792969 11.175781 C 8.398438 11.335938 7.601562 11.335938 7.203125 11.175781 L 1 9.339844 C 0.917969 9.320312 0.851562 9.335938 0.777344 9.339844 Z M 0.777344 9.339844 "/>
</g>
</svg>
