
<svg xmlns="http://www.w3.org/2000/svg" xmlns:xlink="http://www.w3.org/1999/xlink" width="16px" height="16px" viewBox="0 0 16 16" version="1.1">
<g id="surface1">
<path style=" stroke:none;fill-rule:nonzero;fill:#ff6666;fill-opacity:1;" d="M 1.722656 0 C 2.292969 0.789062 2.585938 1.632812 1.722656 2.855469 C 1.628906 3.929688 2.003906 4.554688 3.289062 4.53125 C 3.59375 4.511719 4.074219 4.449219 4.328125 4.210938 C 4.730469 3.71875 4.574219 3.460938 4.40625 3.425781 C 4.234375 3.378906 3.820312 3.632812 4.21875 3.824219 C 4.304688 4.167969 3.34375 4.132812 3.167969 3.84375 C 2.5 2.652344 4.273438 1.792969 6.292969 2.570312 C 6.707031 5.828125 7.175781 9.976562 6.667969 13.851562 C 6.335938 14.621094 5.980469 15.085938 5.148438 15.429688 L 5.148438 16 C 6.292969 15.429688 9.148438 15.429688 10.863281 15.429688 L 10.863281 14.855469 C 10.125 14.722656 9.539062 14.039062 9.449219 13.347656 C 9.164062 9.503906 8.953125 6.691406 9.722656 2.855469 L 12.558594 2.855469 C 12.914062 2.863281 13.058594 3.160156 13.148438 4 L 14.292969 4 C 13.894531 3.046875 13.722656 2.285156 13.722656 1.144531 C 9.453125 1.804688 6.335938 1.214844 1.722656 0 Z M 1.722656 0 "/>
</g>
</svg>
