
<svg xmlns="http://www.w3.org/2000/svg" xmlns:xlink="http://www.w3.org/1999/xlink" width="16px" height="16px" viewBox="0 0 16 16" version="1.1">
<g id="surface1">
<path style=" stroke:none;fill-rule:evenodd;fill:#ff6666;fill-opacity:1;" d="M 8.164062 16 C 5.71875 16 3.761719 15.320312 2.285156 13.957031 C 0.8125 12.59375 0.078125 10.695312 0.078125 8.265625 C 0.078125 5.878906 0.871094 3.90625 2.464844 2.34375 C 4.054688 0.78125 6.023438 0 8.363281 0 C 10.617188 0 12.441406 0.636719 13.835938 1.910156 C 15.226562 3.1875 15.921875 4.757812 15.921875 6.628906 C 15.921875 8.25 15.472656 9.589844 14.574219 10.652344 C 13.675781 11.710938 12.554688 12.242188 11.214844 12.242188 C 10.847656 12.242188 10.488281 12.148438 10.132812 11.957031 C 9.777344 11.765625 9.542969 11.476562 9.425781 11.09375 C 8.96875 11.859375 8.238281 12.242188 7.238281 12.242188 C 6.292969 12.242188 5.527344 11.898438 4.9375 11.203125 C 4.351562 10.511719 4.054688 9.597656 4.054688 8.464844 C 4.054688 7.285156 4.441406 6.226562 5.214844 5.292969 C 5.988281 4.359375 6.972656 3.890625 8.164062 3.890625 C 9.035156 3.890625 9.640625 4.191406 9.976562 4.796875 L 10.089844 4.175781 L 12.277344 4.175781 L 11.546875 8.109375 C 11.355469 9.066406 11.261719 9.65625 11.261719 9.878906 C 11.261719 10.128906 11.386719 10.253906 11.636719 10.253906 C 12.195312 10.253906 12.6875 9.925781 13.117188 9.269531 C 13.542969 8.613281 13.757812 7.75 13.757812 6.675781 C 13.757812 5.363281 13.308594 4.285156 12.410156 3.4375 C 11.511719 2.589844 10.199219 2.164062 8.476562 2.164062 C 6.675781 2.164062 5.210938 2.742188 4.078125 3.890625 C 2.941406 5.039062 2.375 6.503906 2.375 8.285156 C 2.375 10.054688 2.902344 11.421875 3.957031 12.386719 C 5.007812 13.351562 6.441406 13.835938 8.253906 13.835938 C 9.125 13.835938 10.132812 13.695312 11.28125 13.414062 L 10.640625 15.824219 C 9.726562 15.941406 8.902344 16 8.164062 16 Z M 7.503906 10.078125 C 8.0625 10.078125 8.519531 9.820312 8.871094 9.304688 C 9.226562 8.789062 9.402344 8.21875 9.402344 7.601562 C 9.402344 7.117188 9.300781 6.738281 9.09375 6.464844 C 8.886719 6.191406 8.59375 6.054688 8.210938 6.054688 C 7.648438 6.054688 7.191406 6.292969 6.839844 6.773438 C 6.484375 7.253906 6.308594 7.832031 6.308594 8.507812 C 6.308594 8.980469 6.414062 9.359375 6.628906 9.644531 C 6.84375 9.933594 7.132812 10.078125 7.503906 10.078125 Z M 7.503906 10.078125 "/>
</g>
</svg>
