
<svg xmlns="http://www.w3.org/2000/svg" xmlns:xlink="http://www.w3.org/1999/xlink" width="16px" height="16px" viewBox="0 0 16 16" version="1.1">
<g id="surface1">
<path style=" stroke:none;fill-rule:nonzero;fill:#ff6666;fill-opacity:1;" d="M 7.824219 0 C 6.214844 0 5.398438 1.167969 5.398438 3.46875 L 5.398438 5.203125 C 5.398438 5.332031 5.363281 5.484375 5.300781 5.609375 C 5.28125 5.652344 5.183594 5.789062 5.097656 5.910156 C 4.613281 6.585938 3.550781 8.449219 3.351562 10.476562 C 3.429688 10.460938 3.507812 10.449219 3.59375 10.449219 C 3.808594 10.449219 4.367188 10.449219 5.261719 11.925781 C 5.433594 12.171875 5.523438 12.320312 5.644531 12.527344 C 5.730469 12.667969 5.828125 12.839844 5.992188 13.097656 L 6 13.109375 L 6.011719 13.125 C 6.105469 13.292969 6.203125 13.425781 6.296875 13.550781 C 6.351562 13.625 6.40625 13.699219 6.460938 13.777344 C 6.671875 13.695312 6.890625 13.566406 7.019531 13.382812 C 7.1875 13.101562 7.167969 12.765625 6.96875 12.464844 C 6.886719 12.339844 6.734375 12.25 6.367188 12.039062 C 6.148438 11.914062 5.875 11.757812 5.75 11.652344 C 5.460938 11.402344 5.050781 10.859375 5.050781 10.429688 C 5.050781 9.507812 5.667969 8.101562 6.160156 7.269531 C 6.445312 6.792969 6.660156 6.425781 6.746094 6.113281 C 6.796875 6.144531 6.851562 6.179688 6.925781 6.203125 L 6.9375 6.210938 L 6.949219 6.214844 C 7.191406 6.277344 7.433594 6.265625 7.59375 6.265625 C 7.917969 6.265625 8.152344 6.109375 8.375 5.976562 C 8.589844 5.847656 8.800781 5.722656 8.832031 5.714844 C 8.988281 6.011719 9.195312 6.285156 9.40625 6.570312 C 9.984375 7.351562 10.683594 8.664062 10.886719 10.613281 C 11.15625 10.472656 11.3125 10.429688 11.640625 10.429688 C 11.648438 10.429688 11.65625 10.429688 11.664062 10.429688 C 11.691406 10.429688 11.722656 10.425781 11.753906 10.425781 C 11.839844 10.425781 11.925781 10.429688 12.011719 10.4375 C 12.21875 10.449219 12.492188 10.523438 12.652344 10.578125 C 12.925781 10.65625 13.148438 10.800781 13.304688 10.980469 C 13.445312 10.980469 13.582031 11.015625 13.707031 11.074219 C 13.707031 10.851562 13.722656 10.515625 13.722656 10.429688 C 13.722656 9.28125 12.972656 7.703125 12.40625 6.894531 C 12.289062 6.726562 12.179688 6.566406 12.070312 6.417969 C 11.570312 5.726562 11.175781 5.175781 10.949219 4.234375 C 10.800781 3.621094 10.777344 3.433594 10.757812 3.25 C 10.738281 3.066406 10.71875 2.871094 10.59375 2.355469 C 10.371094 1.304688 10.09375 0 7.824219 0 Z M 6.785156 2.082031 C 7.167969 2.082031 7.480469 2.777344 7.480469 3.355469 C 7.480469 3.390625 7.476562 3.445312 7.472656 3.496094 C 7.445312 3.496094 7.421875 3.492188 7.394531 3.492188 C 7.296875 3.492188 7.203125 3.507812 7.113281 3.527344 C 7.074219 3.308594 6.945312 3.144531 6.785156 3.144531 C 6.59375 3.144531 6.4375 3.378906 6.4375 3.664062 C 6.4375 3.734375 6.449219 3.800781 6.464844 3.863281 C 6.371094 3.933594 6.300781 3.992188 6.257812 4.035156 L 6.226562 4.0625 C 6.199219 4.007812 6.179688 3.949219 6.160156 3.890625 C 6.121094 3.648438 6.09375 3.355469 6.09375 3.355469 C 6.09375 2.78125 6.402344 2.082031 6.785156 2.082031 Z M 8.519531 2.082031 C 8.902344 2.082031 9.214844 2.777344 9.214844 3.355469 C 9.214844 3.570312 9.167969 3.820312 9.09375 4.019531 C 9.003906 3.980469 8.910156 3.949219 8.8125 3.925781 C 8.84375 3.847656 8.867188 3.761719 8.867188 3.664062 C 8.867188 3.378906 8.710938 3.144531 8.519531 3.144531 C 8.328125 3.144531 8.171875 3.378906 8.171875 3.664062 L 8.171875 3.667969 C 8.0625 3.621094 7.953125 3.585938 7.835938 3.554688 C 7.832031 3.488281 7.828125 3.421875 7.824219 3.355469 C 7.824219 2.777344 8.136719 2.082031 8.519531 2.082031 Z M 7.394531 4.183594 C 7.535156 4.183594 7.738281 4.238281 7.925781 4.316406 C 8.113281 4.390625 8.273438 4.476562 8.40625 4.53125 L 8.433594 4.542969 L 8.460938 4.550781 C 8.636719 4.589844 8.796875 4.636719 8.859375 4.667969 C 8.84375 4.816406 8.824219 4.898438 8.816406 4.910156 C 8.808594 4.925781 8.757812 4.972656 8.582031 5.066406 C 8.363281 5.144531 8.195312 5.273438 8.015625 5.382812 C 7.820312 5.5 7.621094 5.570312 7.59375 5.570312 C 7.441406 5.570312 7.230469 5.5625 7.144531 5.542969 C 7.179688 5.554688 7.121094 5.523438 7.050781 5.457031 C 6.972656 5.386719 6.878906 5.285156 6.777344 5.179688 L 6.753906 5.15625 L 6.726562 5.136719 C 6.613281 5.058594 6.527344 4.984375 6.484375 4.9375 C 6.441406 4.886719 6.4375 4.871094 6.4375 4.835938 C 6.4375 4.785156 6.429688 4.816406 6.460938 4.78125 C 6.492188 4.742188 6.585938 4.667969 6.714844 4.554688 L 6.726562 4.546875 L 6.738281 4.535156 C 6.71875 4.554688 6.84375 4.429688 6.980469 4.339844 C 7.117188 4.253906 7.289062 4.183594 7.394531 4.183594 Z M 11.753906 11.121094 C 11.429688 11.121094 11.203125 11.21875 11.140625 11.292969 C 11.28125 11.457031 11.371094 11.613281 11.460938 11.898438 C 11.554688 12.109375 11.796875 12.164062 11.988281 12.164062 C 12.578125 12.164062 12.691406 11.808594 12.878906 11.609375 C 12.878906 11.609375 12.828125 11.554688 12.828125 11.503906 C 12.777344 11.398438 12.636719 11.289062 12.441406 11.238281 C 12.296875 11.1875 12.058594 11.132812 11.960938 11.132812 C 11.890625 11.125 11.820312 11.121094 11.753906 11.121094 Z M 3.59375 11.144531 C 3.351562 11.144531 3.234375 11.261719 3.074219 11.425781 C 2.910156 11.585938 2.742188 11.832031 2.460938 12.035156 C 2.210938 12.355469 1.46875 12.046875 1.257812 12.53125 C 1.140625 12.796875 1.546875 13.144531 1.546875 13.746094 C 1.546875 13.988281 1.34375 14.148438 1.304688 14.308594 C 1.261719 14.507812 1.222656 14.628906 1.304688 14.789062 C 1.464844 15.027344 1.664062 15.109375 3.03125 15.386719 C 3.757812 15.550781 4.441406 15.949219 4.882812 15.988281 C 5.324219 16.027344 6.089844 15.988281 6.089844 14.910156 C 6.128906 14.269531 5.765625 14.109375 5.40625 13.46875 C 5.003906 12.824219 4.964844 12.707031 4.683594 12.304688 C 4.441406 11.902344 3.917969 11.144531 3.59375 11.144531 Z M 10.683594 11.835938 C 10.601562 11.996094 10.601562 12.121094 10.601562 12.53125 C 10.601562 12.859375 10.601562 13.226562 10.5625 13.515625 C 10.476562 14.210938 10.253906 14.523438 10.253906 14.933594 C 10.253906 15.386719 10.378906 15.671875 10.542969 15.796875 C 10.664062 15.917969 10.871094 16 11.320312 16 C 11.769531 16 12.058594 15.835938 12.34375 15.550781 C 12.550781 15.34375 12.714844 15.261719 13.289062 14.851562 C 13.738281 14.566406 14.4375 14.195312 14.558594 14.074219 C 14.640625 13.992188 14.765625 13.949219 14.765625 13.703125 C 14.765625 13.5 14.601562 13.417969 14.476562 13.378906 C 14.3125 13.292969 14.027344 13.171875 13.78125 12.800781 C 13.671875 12.625 13.6875 12.167969 13.5625 11.890625 L 13.382812 12.082031 C 13.363281 12.101562 13.34375 12.132812 13.324219 12.15625 C 13.15625 12.386719 12.808594 12.855469 11.988281 12.855469 C 11.453125 12.855469 11.019531 12.605469 10.828125 12.183594 L 10.808594 12.144531 L 10.796875 12.105469 C 10.753906 11.964844 10.71875 11.890625 10.683594 11.835938 Z M 9.734375 14.054688 C 9.40625 14.335938 8.898438 14.613281 8.171875 14.613281 C 7.433594 14.613281 6.9375 14.339844 6.617188 14.0625 C 6.730469 14.289062 6.800781 14.566406 6.78125 14.929688 C 6.78125 15.0625 6.769531 15.1875 6.75 15.304688 L 9.589844 15.304688 C 9.570312 15.183594 9.5625 15.058594 9.5625 14.933594 C 9.5625 14.628906 9.636719 14.378906 9.710938 14.136719 C 9.71875 14.109375 9.726562 14.078125 9.734375 14.050781 Z M 9.734375 14.054688 "/>
</g>
</svg>
