
<svg xmlns="http://www.w3.org/2000/svg" xmlns:xlink="http://www.w3.org/1999/xlink" width="16px" height="16px" viewBox="0 0 16 16" version="1.1">
<g id="surface1">
<path style=" stroke:none;fill-rule:evenodd;fill:#ff6666;fill-opacity:1;" d="M 8.785156 0 C 10.859375 0 12.410156 0.472656 13.4375 1.414062 C 14.464844 2.359375 14.976562 3.78125 14.976562 5.691406 C 14.976562 6.089844 14.96875 6.390625 14.945312 6.601562 L 14.351562 14.113281 C 14.308594 14.699219 14.113281 15.152344 13.769531 15.464844 C 13.421875 15.78125 12.957031 15.9375 12.367188 15.9375 C 11.824219 15.9375 11.390625 15.765625 11.066406 15.417969 C 10.742188 15.074219 10.597656 14.628906 10.640625 14.082031 L 10.671875 13.484375 C 10.253906 14.28125 9.664062 14.898438 8.910156 15.339844 C 8.15625 15.78125 7.296875 16 6.335938 16 C 5.328125 16 4.421875 15.804688 3.613281 15.417969 C 2.808594 15.03125 2.175781 14.496094 1.714844 13.816406 C 1.253906 13.132812 1.023438 12.363281 1.023438 11.503906 C 1.023438 10.332031 1.320312 9.394531 1.917969 8.691406 C 2.515625 7.988281 3.472656 7.476562 4.792969 7.152344 C 6.113281 6.828125 7.875 6.664062 10.074219 6.664062 L 11.207031 6.664062 L 11.238281 6.066406 C 11.320312 5.019531 11.121094 4.242188 10.640625 3.742188 C 10.15625 3.238281 9.394531 2.984375 8.347656 2.984375 C 7.109375 2.984375 5.695312 3.394531 4.101562 4.210938 C 3.828125 4.339844 3.566406 4.402344 3.316406 4.402344 C 2.9375 4.402344 2.625 4.269531 2.371094 4.007812 C 2.121094 3.746094 1.996094 3.425781 1.996094 3.050781 C 1.996094 2.777344 2.078125 2.5 2.246094 2.214844 C 2.414062 1.933594 2.65625 1.699219 2.972656 1.507812 C 3.726562 1.046875 4.617188 0.679688 5.640625 0.410156 C 6.667969 0.136719 7.71875 0 8.785156 0 Z M 7.339844 13.171875 C 8.324219 13.171875 9.15625 12.820312 9.839844 12.117188 C 10.519531 11.414062 10.902344 10.519531 10.984375 9.429688 L 11.050781 8.738281 L 10.167969 8.738281 C 8.828125 8.738281 7.773438 8.8125 7.011719 8.960938 C 6.246094 9.105469 5.695312 9.351562 5.359375 9.695312 C 5.023438 10.042969 4.855469 10.507812 4.855469 11.097656 C 4.855469 11.726562 5.082031 12.226562 5.53125 12.605469 C 5.984375 12.980469 6.585938 13.171875 7.339844 13.171875 Z M 7.339844 13.171875 "/>
</g>
</svg>
