
<svg xmlns="http://www.w3.org/2000/svg" xmlns:xlink="http://www.w3.org/1999/xlink" width="16px" height="16px" viewBox="0 0 16 16" version="1.1">
<g id="surface1">
<path style=" stroke:none;fill-rule:nonzero;fill:#ff6666;fill-opacity:1;" d="M 9.851562 1.679688 C 8.652344 2.042969 7.5 3.660156 7.863281 5.492188 C 3.886719 5.25 2.128906 3.121094 1.074219 2.101562 C 0 4 1.101562 5.847656 2.066406 6.445312 C 1.558594 6.472656 0.941406 6.253906 0.636719 6.0625 C 0.519531 7.8125 1.949219 9.03125 3.164062 9.34375 C 2.773438 9.460938 2.410156 9.476562 1.785156 9.382812 C 2.316406 11.148438 3.746094 11.617188 4.8125 11.695312 C 3.441406 12.886719 1.792969 13.148438 0 13.058594 C 4.648438 15.902344 9.339844 14.15625 11.625 11.921875 C 13.542969 10.046875 14.402344 7.242188 14.433594 4.730469 C 14.871094 4.375 15.757812 3.617188 16 3.027344 C 15.648438 3.160156 14.957031 3.480469 14.234375 3.511719 C 14.828125 3.121094 15.511719 2.339844 15.582031 1.726562 C 14.925781 2.085938 14.160156 2.398438 13.507812 2.496094 C 12.277344 1.308594 11.078125 1.308594 9.851562 1.679688 Z M 9.851562 1.679688 "/>
</g>
</svg>
