
<svg xmlns="http://www.w3.org/2000/svg" xmlns:xlink="http://www.w3.org/1999/xlink" width="16px" height="16px" viewBox="0 0 16 16" version="1.1">
<g id="surface1">
<path style=" stroke:none;fill-rule:nonzero;fill:#ff6666;fill-opacity:1;" d="M 11.246094 10.386719 C 11.3125 10.417969 11.378906 10.441406 11.445312 10.464844 C 11.75 10.566406 12.070312 10.617188 12.390625 10.621094 L 12.460938 10.621094 C 13.113281 10.625 13.742188 10.367188 14.199219 9.902344 C 14.621094 9.476562 14.859375 8.894531 14.859375 8.289062 C 14.867188 7.824219 14.785156 7.363281 14.628906 6.925781 C 14.503906 6.59375 14.3125 6.292969 14.066406 6.039062 C 13.859375 5.820312 13.609375 5.652344 13.335938 5.535156 C 13.105469 5.433594 12.847656 5.378906 12.59375 5.378906 C 12.121094 5.375 11.65625 5.453125 11.210938 5.621094 C 10.832031 5.773438 10.476562 5.984375 10.164062 6.257812 C 9.839844 6.539062 9.542969 6.859375 9.28125 7.210938 C 8.996094 7.585938 8.722656 7.96875 8.464844 8.363281 C 8.199219 8.769531 7.914062 9.164062 7.628906 9.550781 C 7.332031 9.945312 6.992188 10.3125 6.621094 10.640625 C 6.230469 10.988281 5.785156 11.261719 5.300781 11.453125 C 4.757812 11.664062 4.175781 11.765625 3.59375 11.761719 C 3.058594 11.765625 2.53125 11.644531 2.046875 11.414062 C 1.609375 11.195312 1.21875 10.886719 0.90625 10.511719 C 0.613281 10.15625 0.382812 9.746094 0.230469 9.308594 C 0.078125 8.890625 0 8.445312 0 8 C 0 7.996094 0 7.996094 0 7.996094 L 0 7.992188 C -0.00390625 7.441406 0.0976562 6.898438 0.308594 6.390625 C 0.492188 5.9375 0.773438 5.53125 1.125 5.195312 C 1.777344 4.574219 2.644531 4.234375 3.542969 4.234375 C 3.546875 4.234375 3.554688 4.234375 3.558594 4.234375 L 3.699219 4.238281 C 3.699219 4.238281 3.703125 4.238281 3.703125 4.238281 C 4.351562 4.261719 4.980469 4.453125 5.53125 4.796875 L 6.128906 4.199219 L 6.484375 5.53125 L 6.839844 6.859375 L 5.511719 6.503906 L 4.179688 6.148438 L 4.695312 5.632812 C 4.375 5.476562 4.023438 5.390625 3.664062 5.378906 L 3.535156 5.375 C 2.929688 5.375 2.347656 5.605469 1.910156 6.019531 C 1.675781 6.246094 1.484375 6.519531 1.359375 6.820312 C 1.210938 7.191406 1.136719 7.585938 1.140625 7.984375 C 1.140625 7.984375 1.140625 7.988281 1.140625 7.988281 L 1.140625 7.996094 C 1.140625 8.316406 1.195312 8.632812 1.304688 8.925781 C 1.414062 9.238281 1.578125 9.53125 1.789062 9.785156 C 1.996094 10.035156 2.253906 10.242188 2.546875 10.386719 C 2.871094 10.546875 3.234375 10.625 3.59375 10.621094 C 4.035156 10.625 4.472656 10.550781 4.882812 10.394531 C 5.246094 10.246094 5.574219 10.039062 5.867188 9.785156 C 6.179688 9.507812 6.464844 9.199219 6.714844 8.867188 C 6.992188 8.496094 7.257812 8.121094 7.511719 7.738281 C 7.78125 7.324219 8.066406 6.917969 8.367188 6.523438 C 8.679688 6.109375 9.03125 5.734375 9.417969 5.398438 C 9.828125 5.039062 10.296875 4.753906 10.804688 4.558594 C 11.378906 4.339844 11.988281 4.230469 12.605469 4.238281 C 13.011719 4.242188 13.414062 4.324219 13.789062 4.488281 C 14.203125 4.667969 14.574219 4.921875 14.886719 5.25 C 15.238281 5.613281 15.515625 6.050781 15.695312 6.527344 C 15.90625 7.097656 16.007812 7.695312 16 8.300781 C 15.996094 9.195312 15.640625 10.058594 15.011719 10.703125 C 14.339844 11.386719 13.414062 11.769531 12.453125 11.761719 C 12.453125 11.761719 12.453125 11.761719 12.449219 11.761719 L 12.375 11.761719 C 11.941406 11.757812 11.507812 11.6875 11.089844 11.550781 C 10.851562 11.46875 10.621094 11.359375 10.410156 11.222656 L 9.835938 11.800781 L 9.476562 10.46875 L 9.121094 9.140625 L 10.449219 9.496094 L 11.78125 9.851562 Z M 11.246094 10.386719 "/>
</g>
</svg>
