
<svg xmlns="http://www.w3.org/2000/svg" xmlns:xlink="http://www.w3.org/1999/xlink" width="16px" height="16px" viewBox="0 0 16 16" version="1.1">
<g id="surface1">
<path style=" stroke:none;fill-rule:nonzero;fill:#ff6666;fill-opacity:1;" d="M 15.246094 7.273438 C 15.058594 5.789062 14.304688 4.433594 13.140625 3.492188 C 12.90625 3.578125 12.65625 3.636719 12.390625 3.636719 C 11.472656 3.636719 10.6875 3.058594 10.363281 2.253906 C 10.070312 2.207031 9.777344 2.183594 9.480469 2.183594 C 8.703125 2.183594 7.9375 2.335938 7.222656 2.636719 L 8.328125 4.554688 C 8.699219 4.429688 9.089844 4.363281 9.480469 4.363281 C 11.207031 4.363281 12.695312 5.582031 13.039062 7.273438 Z M 15.246094 8.726562 L 13.042969 8.726562 C 12.695312 10.421875 11.207031 11.636719 9.480469 11.636719 C 9.089844 11.636719 8.699219 11.570312 8.328125 11.445312 L 7.226562 13.359375 C 7.9375 13.660156 8.703125 13.816406 9.480469 13.816406 C 9.777344 13.816406 10.074219 13.789062 10.367188 13.742188 C 10.691406 12.9375 11.476562 12.363281 12.390625 12.363281 C 12.65625 12.363281 12.90625 12.421875 13.144531 12.507812 C 14.304688 11.566406 15.058594 10.210938 15.246094 8.726562 Z M 13.84375 1.453125 C 13.84375 0.652344 13.191406 0 12.390625 0 C 11.585938 0 10.933594 0.652344 10.933594 1.453125 C 10.933594 2.257812 11.585938 2.910156 12.390625 2.910156 C 13.191406 2.910156 13.84375 2.257812 13.84375 1.453125 Z M 13.84375 14.546875 C 13.84375 13.742188 13.191406 13.089844 12.390625 13.089844 C 11.585938 13.089844 10.933594 13.742188 10.933594 14.546875 C 10.933594 15.347656 11.585938 16 12.390625 16 C 13.191406 16 13.84375 15.347656 13.84375 14.546875 Z M 7.070312 5.28125 L 5.96875 3.371094 C 4.914062 4.167969 4.167969 5.300781 3.84375 6.578125 C 4.179688 6.964844 4.390625 7.457031 4.390625 8 C 4.390625 8.542969 4.179688 9.035156 3.847656 9.417969 C 4.167969 10.699219 4.914062 11.832031 5.964844 12.632812 L 7.070312 10.71875 C 6.292969 10.03125 5.84375 9.039062 5.84375 8 C 5.847656 6.960938 6.292969 5.972656 7.070312 5.28125 Z M 3.660156 8 C 3.660156 7.195312 3.011719 6.546875 2.207031 6.546875 C 1.402344 6.546875 0.753906 7.195312 0.753906 8 C 0.753906 8.804688 1.402344 9.453125 2.207031 9.453125 C 3.011719 9.453125 3.660156 8.804688 3.660156 8 Z M 3.660156 8 "/>
</g>
</svg>
