
<svg xmlns="http://www.w3.org/2000/svg" xmlns:xlink="http://www.w3.org/1999/xlink" width="16px" height="16px" viewBox="0 0 16 16" version="1.1">
<g id="surface1">
<path style=" stroke:none;fill-rule:nonzero;fill:#ff6666;fill-opacity:1;" d="M 8 0 C 4.890625 0 1.5 2.90625 1.5 7.109375 C 1.5 11.316406 4.496094 16 8 16 C 11.503906 16 14.5 11.316406 14.5 7.109375 C 14.5 2.90625 11.109375 0 8 0 Z M 4.242188 4.914062 C 4.765625 4.90625 5.339844 5.007812 5.859375 5.335938 C 7.378906 6.289062 7.421875 8.242188 7.421875 8.242188 C 7.421875 8.242188 5.566406 8.632812 4.003906 7.851562 C 2.441406 7.070312 2.402344 5.335938 2.402344 5.335938 C 2.402344 5.335938 3.238281 4.925781 4.242188 4.914062 Z M 11.757812 4.914062 C 12.761719 4.925781 13.597656 5.335938 13.597656 5.335938 C 13.597656 5.335938 13.558594 7.070312 11.996094 7.851562 C 10.433594 8.632812 8.578125 8.242188 8.578125 8.242188 C 8.578125 8.242188 8.617188 6.289062 10.136719 5.335938 C 10.660156 5.007812 11.234375 4.90625 11.757812 4.914062 Z M 11.757812 4.914062 "/>
</g>
</svg>
