
<svg xmlns="http://www.w3.org/2000/svg" xmlns:xlink="http://www.w3.org/1999/xlink" width="16px" height="16px" viewBox="0 0 16 16" version="1.1">
<g id="surface1">
<path style=" stroke:none;fill-rule:nonzero;fill:#ff6666;fill-opacity:1;" d="M 15.5 6.5 L 11.75 6.5 L 11.75 8.75 L 14 8.75 L 9.875 13.625 L 6.125 8.75 L 8 8.75 L 8 3.5 L 11.75 3.5 L 11.75 5 L 15.5 5 L 15.5 3.5 C 15.5 3.5 15.5 0.5 12.6875 0.5 L 7.0625 0.5 C 7.0625 0.5 4.25 0.5 4.25 3.6875 L 4.25 9.5 L 2.75 9.5 L 2.75 4.25 L 0.5 4.25 L 0.5 9.875 C 0.5 11.75 2.375 11.75 2.375 11.75 L 4.25 11.75 L 4.25 12.6875 C 4.25 15.5 7.0625 15.5 7.0625 15.5 L 12.6875 15.5 C 15.5 15.5 15.5 12.6875 15.5 12.6875 "/>
</g>
</svg>
