
<svg xmlns="http://www.w3.org/2000/svg" xmlns:xlink="http://www.w3.org/1999/xlink" width="16px" height="16px" viewBox="0 0 16 16" version="1.1">
<g id="surface1">
<path style=" stroke:none;fill-rule:evenodd;fill:#ff6666;fill-opacity:1;" d="M 11.144531 2.410156 L 11.144531 1.710938 L 15.144531 0 L 15.144531 8.699219 C 15.144531 8.710938 15.140625 8.722656 15.140625 8.734375 L 15.140625 8.886719 C 15.140625 9.9375 15 10.898438 14.714844 11.773438 C 14.429688 12.648438 13.992188 13.402344 13.402344 14.027344 C 12.8125 14.652344 12.070312 15.140625 11.160156 15.480469 C 10.253906 15.824219 9.179688 15.996094 7.933594 15.996094 L 7.9375 16 C 6.710938 16 5.652344 15.824219 4.761719 15.472656 C 4.660156 15.429688 4.566406 15.386719 4.480469 15.335938 L 4.371094 15.300781 C 3.65625 14.96875 3.050781 14.535156 2.558594 14.003906 C 1.976562 13.378906 1.550781 12.632812 1.273438 11.761719 C 0.996094 10.894531 0.855469 9.9375 0.855469 8.890625 L 0.855469 6.453125 L 4.855469 4.675781 L 4.855469 9.429688 C 4.855469 11.203125 6.242188 12.570312 8 12.570312 C 8.894531 12.570312 9.695312 12.261719 10.273438 11.664062 C 10.25 11.6875 10.222656 11.710938 10.199219 11.734375 C 10.800781 11.152344 11.144531 10.339844 11.144531 9.429688 L 11.144531 2.800781 C 11.144531 2.796875 11.140625 2.789062 11.140625 2.785156 L 11.140625 2.410156 C 11.144531 2.410156 11.144531 2.410156 11.144531 2.410156 Z M 10.175781 11.898438 L 10.203125 11.828125 Z M 10.175781 11.757812 C 10.097656 11.832031 10.015625 11.898438 9.933594 11.964844 C 10.015625 11.898438 10.097656 11.832031 10.175781 11.757812 Z M 10.175781 11.757812 "/>
</g>
</svg>
