
<svg xmlns="http://www.w3.org/2000/svg" xmlns:xlink="http://www.w3.org/1999/xlink" width="16px" height="16px" viewBox="0 0 16 16" version="1.1">
<g id="surface1">
<path style=" stroke:none;fill-rule:nonzero;fill:#ff6666;fill-opacity:1;" d="M 7.457031 1.082031 L 7.453125 1.554688 C 6.152344 1.652344 4.910156 1.957031 3.785156 2.589844 C 1.875 3.613281 0.582031 6.582031 0.507812 8.648438 C 0.511719 8.835938 0.46875 9.046875 0.546875 9.21875 C 0.726562 9.457031 1.160156 9.527344 1.351562 9.265625 C 1.847656 8.691406 2.613281 8.289062 3.417969 8.332031 C 4.167969 8.292969 4.863281 8.699219 5.300781 9.246094 C 5.460938 9.453125 5.796875 9.507812 6.003906 9.335938 C 6.25 9.101562 6.472656 8.832031 6.777344 8.652344 C 6.996094 8.515625 7.238281 8.421875 7.496094 8.375 C 7.539062 10.171875 7.492188 10.964844 7.5 12.765625 C 7.515625 13.0625 7.441406 13.359375 7.230469 13.585938 C 6.863281 14.054688 6.136719 14.230469 5.574219 13.957031 C 5.132812 13.757812 4.84375 13.324219 4.820312 12.867188 C 4.796875 12.644531 4.636719 12.414062 4.375 12.398438 C 4.082031 12.359375 3.824219 12.621094 3.863281 12.890625 C 3.847656 13.875 4.683594 14.765625 5.703125 14.953125 C 6.796875 15.183594 8 14.539062 8.34375 13.546875 C 8.539062 13.007812 8.433594 12.433594 8.46875 11.878906 C 8.476562 10.375 8.445312 9.875 8.492188 8.367188 C 9.09375 8.484375 9.578125 8.886719 9.953125 9.320312 C 10.164062 9.507812 10.535156 9.464844 10.695312 9.234375 C 11.046875 8.800781 11.550781 8.453125 12.132812 8.363281 C 12.882812 8.21875 13.652344 8.496094 14.21875 8.949219 C 14.441406 9.089844 14.609375 9.320312 14.859375 9.417969 C 15.179688 9.511719 15.570312 9.238281 15.488281 8.910156 C 15.5 6.988281 14.472656 4.105469 12.824219 2.976562 C 11.683594 2.183594 10.292969 1.734375 8.878906 1.59375 C 8.75 1.574219 8.617188 1.582031 8.5 1.546875 L 8.492188 1.082031 C 8.496094 0.367188 7.480469 0.375 7.457031 1.082031 M 12.480469 4.128906 C 13.117188 4.617188 13.976562 6.300781 14.1875 7.449219 C 13.558594 7.078125 13.039062 7.078125 12.285156 7.148438 C 11.535156 7.199219 10.824219 7.808594 10.289062 8.292969 C 9.640625 7.707031 8.738281 7.082031 7.828125 7.148438 C 7.03125 7.167969 6.277344 7.511719 5.703125 8.019531 C 4.835938 7.214844 3.472656 6.921875 2.308594 7.296875 C 2.054688 7.375 1.789062 7.410156 1.765625 7.191406 C 2.085938 5.683594 3.867188 3.875 4.550781 3.484375 C 5.265625 3.117188 6.789062 2.542969 8.050781 2.589844 C 9.699219 2.5 11.753906 3.464844 12.480469 4.128906 "/>
</g>
</svg>
