
<svg xmlns="http://www.w3.org/2000/svg" xmlns:xlink="http://www.w3.org/1999/xlink" width="16px" height="16px" viewBox="0 0 16 16" version="1.1">
<g id="surface1">
<path style=" stroke:none;fill-rule:evenodd;fill:#ff6666;fill-opacity:1;" d="M 2.328125 10.4375 C 2.660156 10.566406 3.113281 10.722656 3.621094 10.878906 C 3.472656 12.246094 3.777344 13.617188 4.804688 14.871094 C 6.527344 16.976562 10 14.925781 11.964844 12.617188 C 11.644531 12.03125 7.835938 15.257812 6.171875 13.558594 C 5.636719 13.042969 5.425781 12.265625 5.449219 11.359375 C 7.597656 11.835938 10.195312 12.085938 12.3125 11.410156 C 12.445312 11.898438 12.519531 12.335938 12.511719 12.691406 C 11.9375 12.839844 11.511719 13.359375 11.511719 13.976562 C 11.511719 14.710938 12.105469 15.304688 12.839844 15.304688 C 13.574219 15.304688 14.167969 14.710938 14.167969 13.976562 C 14.167969 13.375 13.765625 12.867188 13.214844 12.710938 C 13.199219 12.421875 13.113281 11.851562 12.96875 11.164062 C 14.230469 10.609375 15.265625 9.660156 15.839844 8.140625 C 16.800781 5.597656 13.285156 3.617188 10.304688 3.066406 C 9.960938 3.640625 14.660156 5.324219 14.019531 7.613281 C 13.839844 8.324219 13.285156 8.890625 12.5 9.320312 C 11.890625 7.25 10.863281 4.820312 9.273438 3.210938 C 9.554688 2.910156 9.832031 2.65625 10.089844 2.480469 C 10.261719 2.664062 10.480469 2.796875 10.726562 2.863281 C 11.066406 2.953125 11.429688 2.90625 11.734375 2.730469 C 12.039062 2.554688 12.261719 2.265625 12.351562 1.921875 C 12.445312 1.582031 12.394531 1.222656 12.21875 0.914062 C 11.976562 0.496094 11.523438 0.238281 11.039062 0.25 C 10.816406 0.257812 10.597656 0.316406 10.40625 0.429688 C 10.101562 0.605469 9.878906 0.894531 9.785156 1.234375 C 9.730469 1.441406 9.726562 1.65625 9.785156 1.859375 C 9.53125 2.046875 9.160156 2.355469 8.753906 2.730469 C 7.585938 1.757812 6.144531 1.226562 4.390625 1.515625 C 1.707031 1.953125 1.75 5.984375 2.765625 8.839844 C 3.433594 8.855469 2.539062 3.941406 4.84375 3.351562 C 5.65625 3.121094 6.546875 3.417969 7.421875 4.039062 C 5.878906 5.679688 4.246094 7.890625 3.742188 10.152344 C 3.3125 10.0625 2.925781 9.953125 2.617188 9.820312 C 2.671875 9.617188 2.664062 9.410156 2.609375 9.207031 C 2.519531 8.867188 2.296875 8.574219 1.992188 8.398438 C 1.800781 8.289062 1.582031 8.226562 1.359375 8.222656 C 1.328125 8.222656 1.296875 8.222656 1.265625 8.222656 C 0.8125 8.246094 0.402344 8.492188 0.179688 8.886719 C 0.00390625 9.191406 -0.046875 9.554688 0.046875 9.894531 C 0.136719 10.234375 0.359375 10.523438 0.664062 10.699219 C 0.96875 10.875 1.332031 10.925781 1.671875 10.832031 C 1.925781 10.765625 2.152344 10.625 2.328125 10.4375 Z M 11.679688 9.695312 C 9.953125 10.351562 7.582031 10.550781 5.554688 10.398438 C 5.882812 8.519531 6.953125 6.300781 8.140625 4.617188 C 9.554688 5.894531 10.867188 7.886719 11.679688 9.695312 Z M 11.679688 9.695312 "/>
</g>
</svg>
