
<svg xmlns="http://www.w3.org/2000/svg" xmlns:xlink="http://www.w3.org/1999/xlink" width="16px" height="16px" viewBox="0 0 16 16" version="1.1">
<g id="surface1">
<path style=" stroke:none;fill-rule:nonzero;fill:#ff6666;fill-opacity:1;" d="M 7.5 0 L 7.5 2 L 8.5 2 L 8.5 0 Z M 2.695312 1.992188 L 1.992188 2.695312 L 3.40625 4.109375 L 4.109375 3.40625 Z M 13.300781 1.992188 L 11.890625 3.40625 L 12.59375 4.109375 L 14.011719 2.695312 Z M 8 3 C 5.238281 3 3 5.238281 3 8 C 3 10.761719 5.238281 13 8 13 C 10.761719 13 13 10.761719 13 8 C 13 5.238281 10.761719 3 8 3 Z M 8 4 L 8 12 C 5.789062 12 4 10.210938 4 8 C 4 5.789062 5.789062 4 8 4 Z M 0 7.5 L 0 8.5 L 2 8.5 L 2 7.5 Z M 14 7.5 L 14 8.5 L 16 8.5 L 16 7.5 Z M 3.40625 11.890625 L 1.992188 13.300781 L 2.695312 14.011719 L 4.109375 12.59375 Z M 12.59375 11.890625 L 11.890625 12.59375 L 13.300781 14.011719 L 14.011719 13.300781 Z M 7.5 14 L 7.5 16 L 8.5 16 L 8.5 14 Z M 7.5 14 "/>
</g>
</svg>
