
<svg xmlns="http://www.w3.org/2000/svg" xmlns:xlink="http://www.w3.org/1999/xlink" width="16px" height="16px" viewBox="0 0 16 16" version="1.1">
<g id="surface1">
<path style=" stroke:none;fill-rule:evenodd;fill:#ff6666;fill-opacity:1;" d="M 0 3.304688 L 0 5.390625 L 2.085938 5.390625 L 2.085938 3.304688 Z M 13.914062 3.304688 L 13.914062 5.390625 L 16 5.390625 L 16 3.304688 Z M 5.21875 6.78125 L 5.21875 7.824219 L 10.433594 7.824219 L 10.433594 6.78125 Z M 10.433594 7.824219 L 10.433594 8.871094 L 11.824219 8.871094 L 11.824219 9.914062 L 3.859375 9.914062 L 3.859375 8.871094 L 5.21875 8.871094 L 5.21875 7.824219 L 2.78125 7.824219 L 2.78125 9.914062 L 1.738281 9.914062 L 1.738281 12.347656 L 2.78125 12.347656 L 2.78125 10.957031 L 11.824219 10.957031 L 11.824219 12.695312 L 12.9375 12.695312 L 12.9375 7.824219 Z M 10.433594 7.824219 "/>
</g>
</svg>
