
<svg xmlns="http://www.w3.org/2000/svg" xmlns:xlink="http://www.w3.org/1999/xlink" width="16px" height="16px" viewBox="0 0 16 16" version="1.1">
<g id="surface1">
<path style=" stroke:none;fill-rule:evenodd;fill:#ff6666;fill-opacity:1;" d="M -0.03125 12.5 L 15.96875 12.5 L 15.96875 14.5 L -0.03125 14.5 Z M -0.03125 12.5 "/>
<path style=" stroke:none;fill-rule:evenodd;fill:#ff6666;fill-opacity:1;" d="M 3.667969 10.328125 C 3.191406 10.328125 2.753906 10.269531 2.363281 10.148438 C 1.96875 10.027344 1.609375 9.835938 1.285156 9.570312 C 0.957031 9.308594 0.703125 8.945312 0.519531 8.480469 C 0.335938 8.015625 0.242188 7.464844 0.242188 6.832031 L 0.242188 1.398438 L 1.746094 1.398438 L 1.746094 6.832031 C 1.746094 7.589844 1.914062 8.125 2.242188 8.429688 C 2.574219 8.734375 3.046875 8.886719 3.667969 8.886719 C 4.285156 8.886719 4.761719 8.734375 5.089844 8.425781 C 5.421875 8.113281 5.585938 7.582031 5.585938 6.832031 L 5.585938 1.398438 L 7.089844 1.398438 L 7.089844 6.832031 C 7.089844 7.457031 7 8.003906 6.820312 8.46875 C 6.640625 8.933594 6.390625 9.296875 6.070312 9.558594 C 5.746094 9.824219 5.386719 10.015625 4.988281 10.140625 C 4.59375 10.265625 4.152344 10.328125 3.667969 10.328125 Z M 10.664062 10.179688 L 9.160156 10.179688 L 9.160156 1.398438 L 12.808594 1.398438 C 13.820312 1.398438 14.566406 1.664062 15.042969 2.191406 C 15.519531 2.714844 15.757812 3.359375 15.757812 4.121094 C 15.757812 4.839844 15.507812 5.476562 15.011719 6.027344 C 14.511719 6.578125 13.78125 6.855469 12.808594 6.855469 L 10.664062 6.855469 Z M 10.664062 5.425781 L 12.886719 5.425781 C 13.328125 5.425781 13.660156 5.296875 13.875 5.035156 C 14.09375 4.777344 14.203125 4.472656 14.203125 4.121094 C 14.203125 3.789062 14.101562 3.488281 13.894531 3.226562 C 13.691406 2.960938 13.355469 2.828125 12.886719 2.828125 L 10.664062 2.828125 Z M 10.664062 5.425781 "/>
</g>
</svg>
