
<svg xmlns="http://www.w3.org/2000/svg" xmlns:xlink="http://www.w3.org/1999/xlink" width="16px" height="16px" viewBox="0 0 16 16" version="1.1">
<g id="surface1">
<path style=" stroke:none;fill-rule:evenodd;fill:#ff6666;fill-opacity:1;" d="M 0 2.546875 L 0 7.929688 C 0 8.019531 0.0117188 8.113281 0.0351562 8.203125 C 0.0351562 8.203125 0.199219 8.824219 0.679688 9.394531 C 1.164062 9.964844 2.070312 10.546875 3.273438 10.546875 C 4.476562 10.546875 5.382812 9.964844 5.863281 9.394531 C 6.347656 8.824219 6.511719 8.203125 6.511719 8.203125 C 6.535156 8.113281 6.546875 8.019531 6.546875 7.929688 L 6.546875 5.929688 C 6.828125 6.25 6.808594 6.265625 7.132812 6.609375 C 7.339844 6.832031 7.574219 7.015625 7.789062 7.234375 C 7.785156 7.257812 7.78125 7.273438 7.777344 7.296875 C 7.285156 9.761719 7.273438 12.921875 7.273438 13.453125 L 9.453125 13.453125 C 9.453125 13.09375 9.609375 11.285156 9.796875 9.679688 C 10.398438 10.128906 11 10.511719 11.8125 10.542969 C 13.0625 10.59375 14.167969 10.117188 14.898438 9.355469 C 15.628906 8.589844 16 7.574219 16 6.546875 C 16 4.359375 14.183594 2.546875 12 2.546875 C 9.402344 2.578125 9.195312 4.351562 8.515625 4.875 C 7.601562 3.871094 6.859375 2.929688 6.546875 2.546875 L 4.363281 2.546875 C 4.363281 2.546875 4.363281 3.054688 4.363281 3.636719 L 4.363281 7.710938 C 4.351562 7.75 4.332031 7.828125 4.199219 7.988281 C 4.035156 8.179688 3.851562 8.363281 3.273438 8.363281 C 2.695312 8.363281 2.511719 8.179688 2.347656 7.988281 C 2.214844 7.828125 2.195312 7.75 2.183594 7.710938 L 2.183594 2.546875 Z M 12 4.726562 C 12.867188 4.726562 13.816406 5.675781 13.816406 6.546875 C 13.816406 7.042969 13.632812 7.519531 13.320312 7.847656 C 13.007812 8.175781 12.589844 8.390625 11.898438 8.363281 C 11.933594 8.367188 11.335938 8.152344 10.714844 7.660156 C 10.582031 7.554688 10.433594 7.382812 10.292969 7.261719 C 10.476562 6.664062 10.625 5.984375 10.863281 5.589844 C 11.257812 4.933594 11.558594 4.726562 12 4.726562 Z M 12 4.726562 "/>
</g>
</svg>
