
<svg xmlns="http://www.w3.org/2000/svg" xmlns:xlink="http://www.w3.org/1999/xlink" width="16px" height="16px" viewBox="0 0 16 16" version="1.1">
<g id="surface1">
<path style=" stroke:none;fill-rule:evenodd;fill:#ff6666;fill-opacity:1;" d="M 3.570312 12.417969 L 2.332031 12.660156 L 0.910156 7.847656 L 0.175781 4.066406 L 2.351562 3.644531 L 3.085938 7.425781 Z M 4.582031 15.347656 C 4.351562 15.679688 4.03125 15.886719 3.617188 15.96875 C 3.207031 16.046875 2.835938 15.976562 2.511719 15.757812 C 2.183594 15.539062 1.980469 15.226562 1.902344 14.824219 C 1.824219 14.425781 1.894531 14.058594 2.113281 13.726562 C 2.335938 13.394531 2.648438 13.1875 3.0625 13.105469 C 3.476562 13.027344 3.851562 13.097656 4.191406 13.320312 C 4.527344 13.546875 4.738281 13.859375 4.816406 14.261719 C 4.890625 14.648438 4.8125 15.011719 4.582031 15.347656 Z M 7.511719 8.996094 L 6.289062 8.679688 L 7.089844 3.726562 L 8.0625 0 L 10.203125 0.558594 L 9.234375 4.285156 Z M 7.15625 12.074219 C 6.804688 12.277344 6.425781 12.324219 6.019531 12.21875 C 5.613281 12.113281 5.308594 11.890625 5.109375 11.550781 C 4.910156 11.210938 4.863281 10.84375 4.96875 10.445312 C 5.070312 10.050781 5.292969 9.75 5.632812 9.546875 C 5.972656 9.34375 6.347656 9.292969 6.753906 9.398438 C 7.160156 9.503906 7.46875 9.730469 7.679688 10.078125 C 7.886719 10.429688 7.9375 10.800781 7.835938 11.195312 C 7.734375 11.582031 7.507812 11.875 7.15625 12.074219 Z M 12.035156 12.164062 L 10.867188 11.6875 L 12.316406 6.882812 L 13.773438 3.316406 L 15.824219 4.15625 L 14.367188 7.722656 Z M 11.277344 15.167969 C 10.902344 15.320312 10.519531 15.316406 10.128906 15.15625 C 9.738281 15 9.46875 14.738281 9.316406 14.375 C 9.164062 14.011719 9.164062 13.640625 9.320312 13.261719 C 9.476562 12.882812 9.734375 12.617188 10.101562 12.460938 C 10.464844 12.300781 10.84375 12.300781 11.230469 12.460938 C 11.621094 12.621094 11.894531 12.886719 12.054688 13.257812 C 12.21875 13.628906 12.21875 14.007812 12.066406 14.386719 C 11.914062 14.753906 11.652344 15.011719 11.277344 15.167969 Z M 11.277344 15.167969 "/>
</g>
</svg>
