
<svg xmlns="http://www.w3.org/2000/svg" xmlns:xlink="http://www.w3.org/1999/xlink" width="16px" height="16px" viewBox="0 0 16 16" version="1.1">
<g id="surface1">
<path style=" stroke:none;fill-rule:evenodd;fill:#ff6666;fill-opacity:1;" d="M 4.484375 5.59375 L 4.484375 9.1875 C 4.484375 9.410156 4.453125 9.609375 4.386719 9.792969 C 4.320312 9.972656 4.203125 10.128906 4.039062 10.257812 C 3.871094 10.386719 3.644531 10.484375 3.351562 10.558594 C 3.0625 10.628906 2.691406 10.667969 2.242188 10.667969 C 1.792969 10.667969 1.421875 10.628906 1.132812 10.558594 C 0.84375 10.484375 0.613281 10.386719 0.445312 10.257812 C 0.28125 10.128906 0.164062 9.972656 0.0976562 9.792969 C 0.03125 9.609375 0 9.410156 0 9.1875 L 0 5.59375 C 0 5.503906 0.0195312 5.4375 0.0625 5.394531 C 0.101562 5.355469 0.167969 5.332031 0.261719 5.332031 L 1.398438 5.332031 C 1.492188 5.332031 1.558594 5.355469 1.601562 5.394531 C 1.640625 5.4375 1.660156 5.503906 1.660156 5.59375 L 1.660156 8.902344 C 1.660156 9 1.699219 9.082031 1.769531 9.144531 C 1.84375 9.210938 2.003906 9.242188 2.257812 9.242188 C 2.511719 9.242188 2.675781 9.210938 2.75 9.144531 C 2.824219 9.082031 2.859375 9 2.859375 8.902344 L 2.859375 5.59375 C 2.859375 5.503906 2.878906 5.4375 2.921875 5.394531 C 2.960938 5.355469 3.027344 5.332031 3.121094 5.332031 L 4.222656 5.332031 C 4.316406 5.332031 4.382812 5.355469 4.421875 5.394531 C 4.464844 5.4375 4.484375 5.503906 4.484375 5.59375 Z M 7.632812 6.640625 L 7.089844 6.640625 L 7.089844 7.566406 L 7.632812 7.566406 C 7.757812 7.566406 7.84375 7.535156 7.886719 7.46875 C 7.929688 7.40625 7.953125 7.324219 7.953125 7.226562 L 7.953125 6.980469 C 7.953125 6.882812 7.929688 6.800781 7.886719 6.738281 C 7.84375 6.671875 7.757812 6.640625 7.632812 6.640625 Z M 6.828125 10.558594 L 5.710938 10.558594 C 5.617188 10.558594 5.550781 10.539062 5.511719 10.496094 C 5.46875 10.453125 5.449219 10.386719 5.449219 10.296875 L 5.449219 5.59375 C 5.449219 5.503906 5.46875 5.4375 5.511719 5.394531 C 5.550781 5.355469 5.617188 5.332031 5.710938 5.332031 L 8.128906 5.332031 C 8.667969 5.332031 9.042969 5.445312 9.246094 5.671875 C 9.453125 5.894531 9.554688 6.1875 9.554688 6.546875 L 9.554688 6.878906 C 9.554688 7.082031 9.527344 7.253906 9.464844 7.398438 C 9.40625 7.539062 9.300781 7.644531 9.148438 7.707031 C 9.410156 7.734375 9.621094 7.839844 9.785156 8.023438 C 9.945312 8.210938 10.027344 8.453125 10.027344 8.757812 L 10.027344 10.296875 C 10.027344 10.386719 10.007812 10.453125 9.964844 10.496094 C 9.925781 10.539062 9.859375 10.558594 9.765625 10.558594 L 8.640625 10.558594 C 8.550781 10.558594 8.484375 10.539062 8.441406 10.496094 C 8.402344 10.453125 8.382812 10.386719 8.382812 10.296875 L 8.382812 9.1875 C 8.382812 9.078125 8.359375 9 8.320312 8.949219 C 8.277344 8.898438 8.207031 8.875 8.105469 8.875 L 7.089844 8.875 L 7.089844 10.296875 C 7.089844 10.386719 7.070312 10.453125 7.027344 10.496094 C 6.988281 10.539062 6.921875 10.558594 6.828125 10.558594 Z M 12.183594 10.558594 L 11.101562 10.558594 C 11.011719 10.558594 10.941406 10.539062 10.902344 10.496094 C 10.863281 10.453125 10.839844 10.386719 10.839844 10.296875 L 10.839844 5.59375 C 10.839844 5.503906 10.863281 5.4375 10.902344 5.394531 C 10.941406 5.355469 11.011719 5.332031 11.101562 5.332031 L 12.269531 5.332031 C 12.347656 5.332031 12.410156 5.351562 12.464844 5.382812 C 12.511719 5.417969 12.5625 5.472656 12.605469 5.550781 L 13.257812 6.734375 C 13.28125 6.777344 13.300781 6.808594 13.320312 6.828125 C 13.335938 6.847656 13.359375 6.855469 13.386719 6.855469 L 13.453125 6.855469 C 13.480469 6.855469 13.503906 6.847656 13.523438 6.828125 C 13.539062 6.808594 13.558594 6.777344 13.585938 6.734375 L 14.230469 5.550781 C 14.273438 5.472656 14.320312 5.417969 14.371094 5.382812 C 14.421875 5.351562 14.484375 5.332031 14.5625 5.332031 L 15.738281 5.332031 C 15.832031 5.332031 15.898438 5.355469 15.9375 5.394531 C 15.980469 5.4375 16 5.503906 16 5.59375 L 16 10.296875 C 16 10.386719 15.980469 10.453125 15.9375 10.496094 C 15.898438 10.539062 15.832031 10.558594 15.738281 10.558594 L 14.621094 10.558594 C 14.527344 10.558594 14.460938 10.539062 14.421875 10.496094 C 14.378906 10.453125 14.359375 10.386719 14.359375 10.296875 L 14.359375 7.742188 L 13.933594 8.53125 C 13.886719 8.617188 13.835938 8.675781 13.777344 8.710938 C 13.714844 8.746094 13.640625 8.765625 13.546875 8.765625 L 13.257812 8.765625 C 13.164062 8.765625 13.089844 8.746094 13.027344 8.710938 C 12.96875 8.675781 12.917969 8.617188 12.871094 8.53125 L 12.445312 7.742188 L 12.445312 10.296875 C 12.445312 10.386719 12.421875 10.453125 12.382812 10.496094 C 12.339844 10.539062 12.273438 10.558594 12.183594 10.558594 Z M 12.183594 10.558594 "/>
</g>
</svg>
