
<svg xmlns="http://www.w3.org/2000/svg" xmlns:xlink="http://www.w3.org/1999/xlink" width="16px" height="16px" viewBox="0 0 16 16" version="1.1">
<g id="surface1">
<path style=" stroke:none;fill-rule:evenodd;fill:#ff6666;fill-opacity:1;" d="M 9.519531 15.929688 L 8.179688 12.890625 C 8.941406 12.894531 10.378906 12.839844 11.34375 12.359375 C 12.277344 11.890625 12.816406 11.050781 13.074219 10.53125 C 13.324219 10.714844 13.71875 10.929688 14.3125 11.101562 C 14.589844 11.179688 14.933594 11.226562 15.347656 11.246094 C 14.296875 13.667969 12.113281 15.429688 9.519531 15.929688 Z M 15.984375 8.597656 C 15.578125 8.519531 15.285156 8.378906 15.125 8.1875 C 14.496094 7.429688 12.984375 3.949219 12.457031 2.671875 C 12.394531 2.523438 12.234375 2.441406 12.082031 2.480469 L 9.523438 3.121094 C 9.429688 3.144531 9.355469 3.207031 9.3125 3.289062 C 9.269531 3.375 9.269531 3.472656 9.308594 3.5625 C 9.324219 3.601562 11.066406 7.566406 11.382812 8.351562 C 11.460938 8.539062 11.402344 8.910156 11.113281 9.3125 C 10.601562 10.011719 9.6875 10.386719 8.664062 10.3125 C 7.300781 10.214844 6.03125 7.109375 5.351562 5.441406 C 4.851562 4.214844 4.695312 3.859375 4.421875 3.769531 C 3.84375 3.574219 1.628906 4.070312 1.214844 4.484375 C 1.003906 4.695312 0.824219 4.875 5.03125 15.503906 C 2.035156 14.300781 0 11.339844 0 8.070312 C 0 3.660156 3.589844 0.0703125 8 0.0703125 C 12.410156 0.0703125 16 3.660156 16 8.070312 C 16 8.246094 15.992188 8.421875 15.984375 8.597656 Z M 15.984375 8.597656 "/>
</g>
</svg>
