
<svg xmlns="http://www.w3.org/2000/svg" xmlns:xlink="http://www.w3.org/1999/xlink" width="16px" height="16px" viewBox="0 0 16 16" version="1.1">
<g id="surface1">
<path style=" stroke:none;fill-rule:nonzero;fill:#ff6666;fill-opacity:1;" d="M 3.667969 0.960938 C 3.589844 0.96875 3.511719 0.996094 3.441406 1.039062 L 0.300781 2.847656 C 0.0117188 3.015625 -0.0859375 3.382812 0.0820312 3.671875 L 0.6875 4.71875 C 0.851562 5.007812 1.21875 5.109375 1.511719 4.941406 L 2.039062 4.632812 C 2.449219 5.449219 3.128906 6.691406 4.464844 9.132812 C 6.414062 12.6875 7.34375 14.328125 7.496094 14.488281 C 8.03125 15.058594 8.800781 15.199219 9.519531 14.863281 C 9.707031 14.773438 9.921875 14.613281 10.058594 14.457031 C 10.324219 14.15625 15.851562 4.113281 15.941406 3.769531 C 16.035156 3.40625 16.011719 2.890625 15.886719 2.535156 C 15.730469 2.09375 15.296875 1.640625 14.867188 1.46875 C 14.675781 1.394531 14.449219 1.355469 14.222656 1.355469 C 13.933594 1.355469 13.640625 1.417969 13.402344 1.539062 C 13.058594 1.71875 12.710938 2.09375 12.558594 2.457031 C 12.394531 2.839844 12.371094 3.519531 12.511719 3.882812 C 12.566406 4.03125 12.667969 4.296875 12.734375 4.464844 C 12.878906 4.84375 12.929688 5.675781 12.839844 6.144531 C 12.734375 6.671875 12.410156 7.28125 12.03125 7.664062 C 10.898438 8.8125 9.175781 8.835938 8.046875 7.710938 C 7.660156 7.324219 7.605469 7.230469 5.84375 4.019531 C 5.4375 3.277344 5.117188 2.722656 4.882812 2.339844 C 4.875 2.328125 4.875 2.316406 4.867188 2.304688 L 4.265625 1.257812 C 4.140625 1.039062 3.902344 0.929688 3.667969 0.960938 Z M 3.667969 0.960938 "/>
</g>
</svg>
