
<svg xmlns="http://www.w3.org/2000/svg" xmlns:xlink="http://www.w3.org/1999/xlink" width="16px" height="16px" viewBox="0 0 16 16" version="1.1">
<g id="surface1">
<path style=" stroke:none;fill-rule:evenodd;fill:#ff6666;fill-opacity:1;" d="M 11.777344 11.851562 C 12.1875 11.617188 12.671875 11.554688 13.128906 11.671875 C 13.578125 11.792969 13.972656 12.089844 14.207031 12.5 C 14.441406 12.90625 14.503906 13.394531 14.382812 13.851562 C 14.261719 14.304688 13.960938 14.695312 13.554688 14.929688 C 12.339844 15.632812 10.960938 16 9.5625 16 C 7.195312 16 4.949219 14.957031 3.429688 13.148438 C 2.21875 11.703125 1.554688 9.882812 1.554688 8 C 1.554688 6.121094 2.214844 4.304688 3.421875 2.863281 C 4.941406 1.046875 7.1875 0 9.5625 0 C 10.953125 0 12.332031 0.367188 13.546875 1.066406 C 13.953125 1.300781 14.25 1.6875 14.371094 2.140625 C 14.496094 2.597656 14.433594 3.082031 14.199219 3.492188 C 13.960938 3.898438 13.574219 4.199219 13.117188 4.320312 C 12.664062 4.441406 12.179688 4.378906 11.773438 4.144531 C 11.097656 3.757812 10.332031 3.554688 9.554688 3.554688 C 8.242188 3.554688 6.988281 4.136719 6.144531 5.148438 C 5.472656 5.949219 5.109375 6.957031 5.109375 8 C 5.109375 9.046875 5.476562 10.0625 6.148438 10.859375 C 6.992188 11.863281 8.246094 12.445312 9.554688 12.445312 C 10.339844 12.445312 11.101562 12.242188 11.777344 11.851562 Z M 6.890625 8 C 6.890625 6.527344 8.085938 5.335938 9.554688 5.335938 C 11.027344 5.335938 12.222656 6.527344 12.222656 8 C 12.222656 9.472656 11.027344 10.664062 9.554688 10.664062 C 8.085938 10.664062 6.890625 9.472656 6.890625 8 Z M 6.890625 8 "/>
</g>
</svg>
