
<svg xmlns="http://www.w3.org/2000/svg" xmlns:xlink="http://www.w3.org/1999/xlink" width="16px" height="16px" viewBox="0 0 16 16" version="1.1">
<g id="surface1">
<path style=" stroke:none;fill-rule:nonzero;fill:#ff6666;fill-opacity:1;" d="M 4.179688 0.796875 C 4 0.796875 3.808594 0.804688 3.605469 0.804688 C 2.578125 0.78125 1.546875 0.816406 0.519531 0.804688 C -0.195312 0.796875 -0.0273438 1.671875 0.175781 2.039062 C 2.457031 6.105469 5.15625 10.65625 7.667969 14.949219 C 8.148438 15.660156 8.660156 14.695312 8.929688 14.28125 C 9.613281 13.234375 10.175781 12.140625 10.753906 11.042969 C 11 10.304688 10.316406 9.738281 10.074219 9.113281 C 8.589844 6.480469 7.03125 3.898438 5.519531 1.289062 C 5.15625 0.855469 4.71875 0.796875 4.179688 0.796875 Z M 11.632812 0.804688 C 10.867188 0.804688 11.351562 1.667969 11.351562 1.667969 C 11.351562 1.667969 12.503906 3.847656 13.164062 5.039062 C 13.828125 6.234375 14.1875 5.207031 14.351562 4.878906 C 14.949219 3.6875 15.46875 2.449219 15.886719 1.628906 C 16.304688 0.804688 15.433594 0.804688 15.433594 0.804688 Z M 11.632812 0.804688 "/>
</g>
</svg>
