
<svg xmlns="http://www.w3.org/2000/svg" xmlns:xlink="http://www.w3.org/1999/xlink" width="16px" height="16px" viewBox="0 0 16 16" version="1.1">
<g id="surface1">
<path style=" stroke:none;fill-rule:nonzero;fill:#ff6666;fill-opacity:1;" d="M 8.53125 0.00390625 C 8.101562 -0.0078125 8.015625 0.0078125 7.890625 0.117188 C 7.6875 0.296875 7.695312 0.675781 7.90625 0.839844 C 8.019531 0.925781 8.109375 0.945312 8.609375 0.972656 C 10.097656 1.058594 11.230469 1.449219 12.328125 2.253906 C 13.644531 3.21875 14.46875 4.5625 14.78125 6.242188 C 14.863281 6.671875 14.902344 7.027344 14.929688 7.582031 C 14.945312 7.945312 14.957031 8.027344 15.003906 8.117188 C 15.15625 8.402344 15.597656 8.441406 15.796875 8.191406 C 15.902344 8.0625 15.914062 7.960938 15.898438 7.511719 C 15.847656 6.183594 15.554688 4.980469 15.039062 3.96875 C 14.667969 3.242188 14.320312 2.773438 13.691406 2.15625 C 13.019531 1.503906 12.511719 1.148438 11.71875 0.765625 C 10.914062 0.382812 10.179688 0.167969 9.269531 0.0546875 C 9.089844 0.0351562 8.757812 0.0117188 8.53125 0.00390625 Z M 2.890625 0.269531 C 2.769531 0.257812 2.652344 0.257812 2.566406 0.277344 C 2.316406 0.328125 2 0.511719 1.316406 1.007812 C 0.910156 1.308594 0.347656 1.84375 0.214844 2.0625 C -0.09375 2.578125 -0.0742188 3.011719 0.296875 4.015625 C 0.9375 5.738281 1.875 7.398438 3.101562 9 C 5.457031 12.066406 8.421875 14.296875 12.132812 15.789062 C 12.605469 15.980469 12.757812 16.011719 13.128906 15.996094 C 13.578125 15.976562 13.917969 15.839844 14.402344 15.480469 C 14.933594 15.085938 15.695312 14.164062 15.890625 13.667969 C 16.074219 13.203125 16.027344 12.777344 15.75 12.445312 C 15.59375 12.265625 14.441406 11.34375 13.902344 10.976562 C 13.492188 10.695312 12.859375 10.3125 12.570312 10.164062 C 12.1875 9.972656 11.804688 9.941406 11.429688 10.0625 C 11.136719 10.164062 11.042969 10.246094 10.613281 10.773438 C 10.390625 11.042969 10.183594 11.285156 10.160156 11.308594 C 10.128906 11.332031 10.035156 11.382812 9.949219 11.421875 C 9.605469 11.578125 9.128906 11.484375 8.355469 11.105469 C 7.753906 10.816406 7.21875 10.445312 6.613281 9.902344 C 6.097656 9.445312 5.578125 8.84375 5.289062 8.375 C 4.914062 7.773438 4.628906 6.992188 4.625 6.5625 C 4.625 6.375 4.703125 6.113281 4.796875 5.976562 C 4.832031 5.925781 5.066406 5.71875 5.320312 5.519531 C 5.945312 5.027344 6.085938 4.875 6.171875 4.578125 C 6.253906 4.304688 6.164062 3.9375 5.902344 3.4375 C 5.445312 2.5625 4.046875 0.816406 3.546875 0.492188 C 3.464844 0.441406 3.320312 0.367188 3.226562 0.335938 C 3.132812 0.304688 3.011719 0.28125 2.890625 0.269531 Z M 8.777344 1.890625 C 8.628906 1.914062 8.542969 1.976562 8.472656 2.078125 C 8.34375 2.269531 8.359375 2.496094 8.511719 2.664062 C 8.609375 2.773438 8.75 2.828125 9.011719 2.847656 C 9.726562 2.902344 10.511719 3.132812 11.046875 3.441406 C 11.664062 3.800781 12.171875 4.316406 12.519531 4.941406 C 12.828125 5.492188 13.003906 6.195312 13.003906 6.863281 C 13.003906 7.296875 13.066406 7.457031 13.269531 7.558594 C 13.390625 7.621094 13.609375 7.625 13.714844 7.574219 C 13.808594 7.523438 13.917969 7.40625 13.953125 7.320312 C 13.992188 7.226562 13.988281 6.667969 13.957031 6.359375 C 13.859375 5.519531 13.574219 4.738281 13.117188 4.070312 C 12.300781 2.886719 11.058594 2.160156 9.453125 1.929688 C 9.136719 1.882812 8.925781 1.871094 8.777344 1.890625 Z M 9.339844 3.824219 C 9.289062 3.828125 9.253906 3.84375 9.203125 3.867188 C 8.933594 4 8.859375 4.367188 9.054688 4.589844 C 9.160156 4.710938 9.257812 4.746094 9.582031 4.785156 C 10.277344 4.867188 10.683594 5.121094 10.917969 5.609375 C 11.023438 5.839844 11.089844 6.085938 11.125 6.441406 C 11.152344 6.707031 11.191406 6.804688 11.320312 6.898438 C 11.492188 7.03125 11.78125 7.023438 11.9375 6.882812 C 12.101562 6.734375 12.132812 6.554688 12.0625 6.09375 C 11.957031 5.390625 11.714844 4.898438 11.277344 4.492188 C 10.933594 4.179688 10.535156 3.988281 10.015625 3.878906 C 9.90625 3.855469 9.707031 3.832031 9.566406 3.824219 C 9.457031 3.820312 9.390625 3.816406 9.339844 3.824219 Z M 9.339844 3.824219 "/>
</g>
</svg>
