
<svg xmlns="http://www.w3.org/2000/svg" xmlns:xlink="http://www.w3.org/1999/xlink" width="16px" height="16px" viewBox="0 0 16 16" version="1.1">
<g id="surface1">
<path style=" stroke:none;fill-rule:nonzero;fill:#ff6666;fill-opacity:1;" d="M 8 0 C 3.582031 0 0 3.585938 0 8.003906 C 0.00390625 11.335938 2.070312 14.3125 5.1875 15.484375 C 5.183594 15.371094 5.183594 15.222656 5.175781 15.140625 C 5.152344 14.875 5.214844 13.6875 5.273438 13.328125 C 5.292969 13.203125 5.367188 12.960938 5.433594 12.785156 C 5.570312 12.4375 5.726562 11.917969 5.78125 11.613281 C 5.800781 11.503906 5.847656 11.300781 5.890625 11.15625 C 5.953125 10.9375 5.960938 10.84375 5.9375 10.554688 C 5.917969 10.285156 5.925781 10.167969 5.96875 10.035156 C 6.042969 9.808594 6.039062 9.730469 5.953125 9.527344 C 5.910156 9.421875 5.882812 9.269531 5.882812 9.125 L 5.878906 8.890625 L 5.8125 8.980469 C 5.773438 9.027344 5.71875 9.171875 5.6875 9.292969 C 5.550781 9.828125 5.339844 10.140625 4.730469 10.714844 C 4.507812 10.925781 4.316406 11.132812 4.296875 11.179688 C 4.0625 11.8125 4.039062 11.902344 4.058594 12.144531 C 4.066406 12.277344 4.085938 12.425781 4.101562 12.46875 C 4.132812 12.582031 4.023438 12.628906 3.933594 12.539062 C 3.898438 12.503906 3.84375 12.488281 3.808594 12.503906 C 3.761719 12.523438 3.753906 12.566406 3.765625 12.71875 C 3.789062 12.953125 3.800781 12.96875 3.949219 12.964844 C 4.050781 12.964844 4.074219 12.976562 4.109375 13.074219 C 4.128906 13.136719 4.132812 13.1875 4.113281 13.1875 C 4.097656 13.1875 4.082031 13.234375 4.082031 13.300781 C 4.082031 13.414062 4.074219 13.417969 3.921875 13.417969 C 3.785156 13.417969 3.761719 13.429688 3.75 13.503906 C 3.742188 13.558594 3.710938 13.597656 3.660156 13.605469 C 3.554688 13.621094 3.261719 13.308594 3.148438 13.054688 C 3.035156 12.800781 3.058594 12.410156 3.210938 11.921875 C 3.269531 11.730469 3.339844 11.46875 3.363281 11.339844 C 3.417969 11.035156 3.488281 10.898438 3.59375 10.871094 C 3.660156 10.851562 3.722656 10.753906 3.859375 10.453125 C 3.957031 10.234375 4.074219 9.941406 4.121094 9.804688 C 4.21875 9.503906 4.328125 9.324219 4.613281 8.980469 C 4.734375 8.839844 4.851562 8.65625 4.875 8.574219 C 4.898438 8.492188 4.996094 8.25 5.085938 8.035156 L 5.25 7.648438 L 5.273438 6.949219 C 5.285156 6.5625 5.3125 6.1875 5.335938 6.109375 C 5.359375 6.035156 5.46875 5.855469 5.574219 5.714844 C 5.691406 5.558594 5.773438 5.414062 5.773438 5.363281 C 5.773438 5.253906 5.941406 4.988281 6.070312 4.898438 C 6.121094 4.863281 6.210938 4.824219 6.265625 4.808594 C 6.46875 4.761719 6.496094 4.746094 6.53125 4.671875 C 6.5625 4.609375 6.546875 4.546875 6.457031 4.355469 C 6.394531 4.222656 6.320312 4.078125 6.296875 4.035156 C 6.25 3.96875 6.253906 3.953125 6.316406 3.90625 C 6.355469 3.878906 6.488281 3.828125 6.613281 3.804688 C 6.820312 3.757812 6.835938 3.746094 6.847656 3.640625 C 6.855469 3.539062 6.835938 3.511719 6.632812 3.382812 C 6.160156 3.085938 5.988281 2.890625 5.992188 2.65625 C 5.992188 2.390625 6.136719 2.238281 6.542969 2.070312 C 6.75 1.984375 6.804688 1.941406 6.8125 1.871094 C 6.820312 1.820312 6.839844 1.761719 6.855469 1.742188 C 6.875 1.722656 6.890625 1.632812 6.890625 1.546875 C 6.890625 1.277344 6.96875 0.929688 7.046875 0.832031 C 7.199219 0.652344 7.316406 0.613281 7.699219 0.617188 C 8.003906 0.617188 8.085938 0.632812 8.214844 0.703125 C 8.390625 0.804688 8.425781 0.871094 8.546875 1.371094 C 8.589844 1.550781 8.65625 1.730469 8.691406 1.765625 C 8.730469 1.796875 8.769531 1.867188 8.78125 1.921875 C 8.796875 1.992188 8.855469 2.039062 9.019531 2.105469 C 9.4375 2.285156 9.664062 2.605469 9.585938 2.90625 C 9.519531 3.171875 9.175781 3.46875 8.9375 3.46875 C 8.902344 3.46875 8.871094 3.496094 8.871094 3.527344 C 8.871094 3.558594 8.894531 3.585938 8.917969 3.585938 C 8.953125 3.585938 8.972656 3.667969 8.988281 3.871094 C 9.003906 4.03125 9.03125 4.207031 9.054688 4.261719 C 9.097656 4.359375 9.109375 4.363281 9.40625 4.363281 C 9.671875 4.363281 9.757812 4.378906 10.003906 4.484375 C 10.160156 4.554688 10.304688 4.632812 10.320312 4.660156 C 10.335938 4.691406 10.425781 4.753906 10.519531 4.808594 C 10.753906 4.9375 11.09375 5.324219 11.351562 5.761719 C 11.46875 5.964844 11.601562 6.171875 11.640625 6.222656 C 11.683594 6.269531 11.714844 6.339844 11.714844 6.371094 C 11.714844 6.402344 11.75 6.484375 11.796875 6.550781 C 11.839844 6.621094 11.878906 6.738281 11.882812 6.820312 C 11.890625 7.011719 12.03125 7.328125 12.390625 7.964844 C 12.613281 8.359375 12.683594 8.523438 12.703125 8.679688 C 12.71875 8.789062 12.738281 9.339844 12.753906 9.902344 C 12.773438 10.886719 12.777344 10.925781 12.855469 11.015625 C 12.933594 11.105469 12.933594 11.105469 12.902344 12.058594 C 12.886719 12.582031 12.855469 13.058594 12.835938 13.113281 C 12.8125 13.171875 12.75 13.242188 12.691406 13.277344 C 12.632812 13.308594 12.574219 13.367188 12.5625 13.410156 C 12.550781 13.449219 12.441406 13.53125 12.324219 13.59375 C 12.203125 13.65625 12.097656 13.71875 12.089844 13.734375 C 12.078125 13.75 12.140625 13.90625 12.222656 14.085938 C 12.308594 14.269531 12.410156 14.417969 12.539062 14.578125 C 14.703125 13.089844 15.996094 10.628906 16 8.003906 C 16 3.582031 12.417969 0 8 0 Z M 10.15625 7.589844 C 10.144531 7.589844 10.136719 7.683594 10.140625 7.792969 C 10.144531 7.960938 10.128906 8.023438 10.058594 8.132812 C 10.007812 8.203125 9.894531 8.421875 9.800781 8.617188 L 9.636719 8.96875 L 10.320312 10.425781 C 11.078125 12.03125 11.152344 12.175781 11.226562 12.175781 C 11.257812 12.175781 11.34375 12.074219 11.417969 11.953125 L 11.421875 11.953125 C 11.496094 11.828125 11.617188 11.652344 11.6875 11.5625 C 11.777344 11.449219 11.832031 11.328125 11.863281 11.175781 C 11.886719 11.050781 11.917969 10.933594 11.929688 10.910156 C 12.019531 10.777344 12.003906 10.617188 11.851562 10.207031 C 11.683594 9.734375 11.609375 9.375 11.609375 8.964844 L 11.605469 8.683594 L 11.351562 8.574219 C 11.148438 8.488281 11.03125 8.398438 10.777344 8.144531 C 10.605469 7.96875 10.4375 7.824219 10.40625 7.824219 C 10.375 7.824219 10.328125 7.785156 10.304688 7.738281 C 10.261719 7.648438 10.207031 7.59375 10.15625 7.59375 Z M 10.058594 11.273438 C 10.007812 11.234375 10.015625 11.386719 10.023438 11.6875 C 10.027344 12.027344 10.140625 12.574219 10.210938 12.597656 C 10.234375 12.605469 10.296875 12.660156 10.347656 12.714844 L 10.441406 12.8125 L 10.488281 14.328125 C 10.507812 14.972656 10.527344 15.328125 10.546875 15.578125 C 11.113281 15.386719 11.65625 15.136719 12.167969 14.824219 C 11.730469 14.570312 11.332031 14.066406 11.035156 13.355469 C 10.941406 13.121094 10.671875 12.527344 10.441406 12.039062 C 10.21875 11.554688 10.109375 11.316406 10.058594 11.273438 Z M 11.75 12.320312 C 11.726562 12.3125 11.703125 12.3125 11.671875 12.332031 C 11.511719 12.425781 11.515625 12.527344 11.699219 12.949219 C 11.8125 13.210938 11.882812 13.324219 11.898438 13.292969 C 11.914062 13.265625 11.929688 13.082031 11.929688 12.886719 C 11.929688 12.558594 11.921875 12.519531 11.839844 12.410156 C 11.800781 12.363281 11.773438 12.332031 11.75 12.320312 Z M 7.589844 14.273438 C 7.554688 14.273438 7.539062 14.316406 7.539062 14.417969 C 7.539062 14.5625 7.425781 15.242188 7.355469 15.527344 C 7.34375 15.570312 7.308594 15.800781 7.28125 15.96875 C 7.484375 15.988281 7.691406 15.996094 7.898438 16 C 7.894531 15.738281 7.816406 15.269531 7.738281 15.066406 C 7.695312 14.960938 7.679688 14.828125 7.6875 14.644531 C 7.699219 14.355469 7.675781 14.273438 7.589844 14.273438 Z M 7.589844 14.273438 "/>
</g>
</svg>
