
<svg xmlns="http://www.w3.org/2000/svg" xmlns:xlink="http://www.w3.org/1999/xlink" width="16px" height="16px" viewBox="0 0 16 16" version="1.1">
<g id="surface1">
<path style=" stroke:none;fill-rule:nonzero;fill:#ff6666;fill-opacity:1;" d="M 0 0 L 0 1.230469 L 1.230469 1.230469 C 1.578125 1.230469 1.847656 1.496094 1.847656 1.847656 L 1.847656 14.152344 L 3.078125 14.152344 L 3.078125 12.308594 L 4.308594 12.308594 L 4.308594 13.539062 L 13.539062 13.539062 L 13.539062 12.308594 L 14.152344 12.308594 C 15.164062 12.308594 16 11.472656 16 10.460938 L 16 4.308594 C 16 3.296875 15.164062 2.460938 14.152344 2.460938 L 3.078125 2.460938 L 3.078125 1.847656 C 3.078125 0.835938 2.242188 0 1.230469 0 Z M 3.078125 3.691406 L 14.152344 3.691406 C 14.503906 3.691406 14.769531 3.960938 14.769531 4.308594 L 14.769531 10.460938 C 14.769531 10.808594 14.503906 11.078125 14.152344 11.078125 L 3.078125 11.078125 Z M 11.078125 4.308594 C 9.382812 4.308594 8 5.6875 8 7.386719 C 8 9.082031 9.382812 10.460938 11.078125 10.460938 C 12.773438 10.460938 14.152344 9.082031 14.152344 7.386719 C 14.152344 5.6875 12.773438 4.308594 11.078125 4.308594 Z M 4.308594 4.921875 L 4.308594 6.152344 L 6.769531 6.152344 L 6.769531 4.921875 Z M 11.078125 4.921875 C 11.59375 4.921875 12.074219 5.082031 12.46875 5.355469 C 12.253906 5.519531 12.003906 5.730469 11.710938 6.007812 C 11.550781 6.160156 11.394531 6.316406 11.246094 6.476562 C 11.191406 6.300781 11.140625 6.121094 11.09375 5.941406 C 10.984375 5.488281 10.910156 5.03125 10.902344 4.941406 C 10.960938 4.9375 11.019531 4.921875 11.078125 4.921875 Z M 10.007812 5.175781 C 10.039062 5.445312 10.101562 5.769531 10.199219 6.164062 C 10.25 6.375 10.3125 6.585938 10.375 6.792969 C 10.191406 6.753906 10.011719 6.710938 9.828125 6.660156 C 9.371094 6.53125 8.929688 6.367188 8.859375 6.332031 C 9.097656 5.828125 9.503906 5.421875 10.007812 5.175781 Z M 13.121094 6.011719 C 13.386719 6.402344 13.539062 6.875 13.539062 7.386719 C 13.539062 7.441406 13.527344 7.496094 13.523438 7.554688 C 13.21875 7.433594 12.910156 7.328125 12.59375 7.242188 C 12.386719 7.179688 12.175781 7.125 11.964844 7.078125 C 12.089844 6.941406 12.207031 6.8125 12.347656 6.679688 C 12.59375 6.441406 12.851562 6.21875 13.121094 6.011719 Z M 4.308594 6.769531 L 4.308594 8 L 6.769531 8 L 6.769531 6.769531 Z M 8.632812 7.230469 C 8.886719 7.339844 9.191406 7.441406 9.582031 7.550781 C 9.796875 7.609375 10.007812 7.648438 10.222656 7.691406 C 10.09375 7.835938 9.957031 7.980469 9.820312 8.117188 C 9.578125 8.355469 9.324219 8.582031 9.058594 8.792969 C 8.769531 8.382812 8.613281 7.890625 8.613281 7.386719 C 8.613281 7.332031 8.628906 7.285156 8.632812 7.230469 Z M 11.789062 7.988281 C 12.300781 8.101562 12.800781 8.257812 13.285156 8.453125 C 13.050781 8.941406 12.65625 9.339844 12.171875 9.578125 C 12.121094 9.253906 12.054688 8.933594 11.972656 8.617188 C 11.917969 8.40625 11.855469 8.195312 11.789062 7.988281 Z M 10.917969 8.300781 C 10.972656 8.480469 11.03125 8.664062 11.078125 8.847656 C 11.191406 9.285156 11.265625 9.707031 11.277344 9.824219 C 11.210938 9.832031 11.144531 9.847656 11.078125 9.847656 C 10.597656 9.847656 10.125 9.703125 9.726562 9.441406 C 9.988281 9.234375 10.234375 9.011719 10.46875 8.773438 C 10.621094 8.621094 10.773438 8.460938 10.917969 8.300781 Z M 4.308594 8.613281 L 4.308594 9.847656 L 6.769531 9.847656 L 6.769531 8.613281 Z M 4.308594 8.613281 "/>
</g>
</svg>
