
<svg xmlns="http://www.w3.org/2000/svg" xmlns:xlink="http://www.w3.org/1999/xlink" width="16px" height="16px" viewBox="0 0 16 16" version="1.1">
<g id="surface1">
<path style=" stroke:none;fill-rule:nonzero;fill:#ff6666;fill-opacity:1;" d="M 4.660156 2.5 C 4.367188 2.503906 4.113281 2.703125 4.027344 2.988281 L 2.171875 9.375 L 0 9.375 L 0 10.75 L 2.667969 10.75 C 2.960938 10.75 3.21875 10.550781 3.304688 10.261719 L 4.65625 5.617188 L 6.734375 13.003906 C 6.816406 13.289062 7.0625 13.488281 7.351562 13.5 C 7.640625 13.511719 7.898438 13.328125 8 13.050781 L 9.425781 9.042969 L 10.070312 10.371094 C 10.183594 10.601562 10.414062 10.75 10.667969 10.75 L 16 10.75 L 16 9.375 L 11.078125 9.375 L 9.929688 7.007812 C 9.8125 6.761719 9.5625 6.613281 9.296875 6.628906 C 9.03125 6.644531 8.800781 6.820312 8.707031 7.078125 L 7.449219 10.613281 L 5.308594 2.996094 C 5.222656 2.699219 4.957031 2.496094 4.660156 2.5 Z M 4.660156 2.5 "/>
</g>
</svg>
