
<svg xmlns="http://www.w3.org/2000/svg" xmlns:xlink="http://www.w3.org/1999/xlink" width="16px" height="16px" viewBox="0 0 16 16" version="1.1">
<g id="surface1">
<path style=" stroke:none;fill-rule:nonzero;fill:#ff6666;fill-opacity:1;" d="M 13.734375 0.882812 C 12.761719 0.882812 11.96875 1.671875 11.96875 2.648438 C 11.972656 2.882812 12.019531 3.117188 12.113281 3.332031 C 12.125 3.382812 12.136719 3.445312 12.152344 3.488281 C 12.523438 4.910156 12.144531 6.023438 11.304688 7.035156 C 10.128906 8.21875 8.441406 8.242188 7.269531 7.082031 L 3.703125 1.441406 C 3.34375 1.054688 2.839844 0.914062 2.378906 0.910156 C 1.390625 0.894531 0.703125 1.683594 0.539062 2.53125 C 0.417969 3.210938 0.363281 3.09375 3.5625 8.902344 C 5.582031 12.570312 6.539062 14.261719 6.699219 14.429688 C 7.253906 15.015625 8.050781 15.160156 8.792969 14.8125 C 8.988281 14.71875 9.207031 14.554688 9.347656 14.394531 C 9.625 14.082031 15.257812 3.726562 15.351562 3.371094 C 15.460938 3.132812 15.484375 2.882812 15.5 2.648438 C 15.5 1.671875 14.710938 0.882812 13.734375 0.882812 Z M 13.734375 0.882812 "/>
</g>
</svg>
