
<svg xmlns="http://www.w3.org/2000/svg" xmlns:xlink="http://www.w3.org/1999/xlink" width="16px" height="16px" viewBox="0 0 16 16" version="1.1">
<g id="surface1">
<path style=" stroke:none;fill-rule:evenodd;fill:#ff6666;fill-opacity:1;" d="M 7.828125 12.648438 L 8.785156 12.648438 C 8.785156 12.648438 9.074219 12.617188 9.222656 12.453125 C 9.355469 12.304688 9.351562 12.023438 9.351562 12.023438 C 9.351562 12.023438 9.335938 10.703125 9.929688 10.511719 C 10.515625 10.316406 11.269531 11.785156 12.070312 12.347656 C 12.675781 12.773438 13.132812 12.679688 13.132812 12.679688 L 15.269531 12.648438 C 15.269531 12.648438 16.386719 12.578125 15.855469 11.675781 C 15.8125 11.601562 15.550781 11.007812 14.269531 9.785156 C 12.929688 8.511719 13.109375 8.71875 14.722656 6.507812 C 15.703125 5.160156 16.097656 4.339844 15.976562 3.988281 C 15.859375 3.652344 15.136719 3.738281 15.136719 3.738281 L 12.730469 3.753906 C 12.730469 3.753906 12.550781 3.730469 12.417969 3.8125 C 12.289062 3.890625 12.207031 4.078125 12.207031 4.078125 C 12.207031 4.078125 11.824219 5.117188 11.316406 6.003906 C 10.246094 7.871094 9.816406 7.972656 9.644531 7.855469 C 9.234375 7.585938 9.335938 6.769531 9.335938 6.191406 C 9.335938 4.378906 9.605469 3.621094 8.816406 3.425781 C 8.554688 3.363281 8.363281 3.320312 7.691406 3.3125 C 6.835938 3.304688 6.109375 3.316406 5.695312 3.523438 C 5.421875 3.660156 5.210938 3.96875 5.339844 3.984375 C 5.5 4.007812 5.859375 4.085938 6.050781 4.351562 C 6.296875 4.695312 6.289062 5.46875 6.289062 5.46875 C 6.289062 5.46875 6.429688 7.601562 5.957031 7.867188 C 5.632812 8.050781 5.1875 7.679688 4.234375 5.980469 C 3.746094 5.113281 3.375 4.152344 3.375 4.152344 C 3.375 4.152344 3.304688 3.972656 3.175781 3.878906 C 3.023438 3.761719 2.808594 3.722656 2.808594 3.722656 L 0.523438 3.738281 C 0.523438 3.738281 0.179688 3.75 0.0507812 3.902344 C -0.0585938 4.039062 0.0429688 4.320312 0.0429688 4.320312 C 0.0429688 4.320312 1.832031 8.625 3.859375 10.792969 C 5.71875 12.78125 7.828125 12.652344 7.828125 12.652344 "/>
</g>
</svg>
