
<svg xmlns="http://www.w3.org/2000/svg" xmlns:xlink="http://www.w3.org/1999/xlink" width="16px" height="16px" viewBox="0 0 16 16" version="1.1">
<g id="surface1">
<path style=" stroke:none;fill-rule:nonzero;fill:#ff6666;fill-opacity:1;" d="M 8.03125 0 C 7.796875 0.00390625 7.566406 0.0585938 7.320312 0.15625 C 7.191406 0.203125 7.09375 0.320312 7.058594 0.433594 C 6.058594 3.3125 4.691406 7.386719 3.621094 9.644531 L 2.15625 9.644531 C 1.90625 9.644531 1.703125 9.863281 1.703125 10.132812 L 0 15.511719 C 0 15.78125 0.203125 16 0.453125 16 L 15.546875 16 C 15.796875 16 16 15.78125 16 15.511719 L 14.410156 10.132812 C 14.410156 9.863281 14.210938 9.644531 13.957031 9.644531 L 12.351562 9.644531 C 11.902344 8.4375 10.007812 3.347656 9.070312 0.375 C 9.035156 0.261719 8.898438 0.179688 8.773438 0.132812 C 8.507812 0.0390625 8.269531 -0.00390625 8.03125 0 Z M 7.054688 1.953125 C 7.449219 2.019531 7.558594 2.058594 8 2.058594 C 8.457031 2.058594 8.683594 2.023438 9.089844 1.953125 C 9.359375 2.9375 9.835938 4 10.148438 5.078125 C 9.523438 5.285156 8.816406 5.410156 8 5.410156 C 7.195312 5.410156 6.59375 5.289062 5.976562 5.085938 C 6.296875 4.015625 6.777344 2.949219 7.054688 1.953125 Z M 4.96875 7.664062 C 5.761719 8.039062 6.746094 8.273438 8.003906 8.273438 C 9.234375 8.273438 10.292969 8.042969 11.082031 7.683594 C 11.507812 9.066406 12.050781 10.363281 12.097656 10.523438 C 11.4375 11.214844 9.804688 11.699219 8.003906 11.699219 C 6.125 11.699219 4.523438 11.175781 3.914062 10.4375 C 4.019531 10.113281 4.503906 9.105469 4.96875 7.664062 Z M 3.277344 11.449219 C 3.804688 12.242188 5.710938 12.828125 8 12.828125 C 10.289062 12.828125 12.195312 12.242188 12.722656 11.449219 C 12.816406 11.605469 12.882812 11.769531 12.882812 11.9375 C 12.882812 13.082031 10.699219 14.003906 8 14.003906 C 5.300781 14.003906 3.117188 13.082031 3.117188 11.9375 C 3.117188 11.765625 3.183594 11.605469 3.277344 11.449219 Z M 3.277344 11.449219 "/>
</g>
</svg>
