
<svg xmlns="http://www.w3.org/2000/svg" xmlns:xlink="http://www.w3.org/1999/xlink" width="16px" height="16px" viewBox="0 0 16 16" version="1.1">
<g id="surface1">
<path style=" stroke:none;fill-rule:evenodd;fill:#ff6666;fill-opacity:1;" d="M 0 4.414062 L 1.015625 8.757812 L 1.675781 11.585938 L 3.144531 11.585938 L 3.804688 8.757812 L 3.867188 8.503906 L 4.820312 4.414062 L 3.347656 4.414062 L 2.410156 8.429688 L 1.476562 4.414062 Z M 5.253906 4.414062 L 3.847656 11.445312 L 3.820312 11.585938 L 5.28125 11.585938 L 6.039062 7.800781 L 6.921875 11.585938 L 8.390625 11.585938 L 9.273438 7.800781 L 10.03125 11.585938 L 11.492188 11.585938 L 11.464844 11.445312 L 10.058594 4.414062 L 8.589844 4.414062 L 7.65625 8.429688 L 6.71875 4.414062 Z M 13.132812 6.03125 C 13.308594 6.070312 13.335938 6.035156 13.53125 6.132812 C 14.074219 6.402344 14.566406 6.804688 14.566406 8 C 14.566406 9.195312 14.074219 9.597656 13.53125 9.867188 C 13.335938 9.964844 13.308594 9.929688 13.132812 9.96875 Z M 11.703125 4.414062 L 11.703125 11.585938 L 12.417969 11.585938 C 12.417969 11.585938 13.28125 11.597656 14.171875 11.152344 C 15.058594 10.707031 16 9.675781 16 8 C 16 6.324219 15.058594 5.292969 14.171875 4.847656 C 13.28125 4.402344 12.417969 4.414062 12.417969 4.414062 Z M 11.703125 4.414062 "/>
</g>
</svg>
