
<svg xmlns="http://www.w3.org/2000/svg" xmlns:xlink="http://www.w3.org/1999/xlink" width="16px" height="16px" viewBox="0 0 16 16" version="1.1">
<g id="surface1">
<path style=" stroke:none;fill-rule:nonzero;fill:#ff6666;fill-opacity:1;" d="M 9.183594 15.308594 C 8.6875 15.058594 8.503906 14.597656 8.703125 14.117188 C 8.917969 13.601562 9.375 13.449219 10.726562 13.449219 C 11.347656 13.449219 11.855469 13.414062 11.855469 13.367188 C 11.855469 13.320312 11.503906 12.933594 11.078125 12.503906 L 10.296875 11.726562 L 8.535156 11.726562 L 8.535156 9.675781 L 8.941406 9.675781 C 9.457031 9.675781 9.605469 9.527344 9.605469 9.007812 L 9.605469 8.597656 L 11.75 8.597656 L 11.75 10.382812 L 13.355469 11.988281 L 13.355469 10.832031 C 13.355469 9.417969 13.5 8.984375 14.050781 8.753906 C 14.382812 8.613281 14.472656 8.613281 14.804688 8.753906 C 15.4375 9.019531 15.5 9.320312 15.5 12.050781 C 15.5 15.652344 15.652344 15.5 11.992188 15.5 C 9.882812 15.5 9.503906 15.472656 9.183594 15.308594 Z M 4.914062 11.5625 C 4.410156 11.34375 4.25 10.871094 4.25 9.628906 L 4.25 8.597656 L 6.390625 8.597656 L 6.390625 9.007812 C 6.390625 9.523438 6.542969 9.675781 7.058594 9.675781 L 7.464844 9.675781 L 7.464844 11.726562 L 6.367188 11.722656 C 5.660156 11.71875 5.140625 11.664062 4.914062 11.5625 Z M 1.164062 7.25 C 0.566406 6.988281 0.5 6.660156 0.5 3.964844 C 0.5 1.238281 0.5625 0.933594 1.1875 0.671875 C 1.730469 0.441406 6.230469 0.441406 6.773438 0.671875 C 7.558594 1 7.582031 1.980469 6.816406 2.371094 C 6.53125 2.519531 6.179688 2.5625 5.292969 2.5625 C 4.660156 2.5625 4.144531 2.59375 4.144531 2.640625 C 4.144531 2.683594 4.492188 3.070312 4.917969 3.503906 L 5.691406 4.285156 L 7.464844 4.285156 L 7.464844 6.335938 L 7.058594 6.335938 C 6.542969 6.335938 6.390625 6.488281 6.390625 7.003906 L 6.390625 7.414062 L 4.25 7.414062 L 4.25 5.628906 L 2.644531 4.023438 L 2.644531 5.183594 C 2.644531 6.589844 2.5 7.027344 1.953125 7.253906 C 1.511719 7.441406 1.601562 7.441406 1.164062 7.25 Z M 9.605469 7.003906 C 9.605469 6.488281 9.457031 6.335938 8.941406 6.335938 L 8.535156 6.335938 L 8.535156 4.285156 L 10.308594 4.285156 L 11.082031 3.503906 C 11.507812 3.070312 11.855469 2.683594 11.855469 2.640625 C 11.855469 2.597656 11.339844 2.5625 10.703125 2.5625 C 9.820312 2.5625 9.46875 2.515625 9.183594 2.371094 C 8.417969 1.984375 8.441406 1 9.226562 0.671875 C 9.765625 0.441406 14.265625 0.441406 14.808594 0.671875 C 15.433594 0.933594 15.5 1.238281 15.5 3.964844 C 15.5 6.691406 15.4375 6.992188 14.804688 7.257812 C 14.472656 7.398438 14.382812 7.398438 14.050781 7.257812 C 13.5 7.027344 13.355469 6.59375 13.355469 5.183594 L 13.355469 4.023438 L 11.75 5.628906 L 11.75 7.414062 L 9.605469 7.414062 Z M 9.605469 7.003906 "/>
</g>
</svg>
