
<svg xmlns="http://www.w3.org/2000/svg" xmlns:xlink="http://www.w3.org/1999/xlink" width="16px" height="16px" viewBox="0 0 16 16" version="1.1">
<g id="surface1">
<path style=" stroke:none;fill-rule:evenodd;fill:#ff6666;fill-opacity:1;" d="M 6.855469 2.351562 L 9.144531 2.351562 L 9.144531 4.234375 L 6.855469 4.234375 Z M 5.027344 5.175781 L 7.3125 5.175781 L 7.3125 7.058594 L 5.027344 7.058594 Z M 8.6875 5.175781 L 10.972656 5.175781 L 10.972656 7.058594 L 8.6875 7.058594 Z M 6.855469 8 L 9.144531 8 L 9.144531 9.882812 L 6.855469 9.882812 Z M 3.199219 8 L 5.484375 8 L 5.484375 9.882812 L 3.199219 9.882812 Z M 1.371094 1.410156 L 14.628906 1.410156 L 14.628906 11.292969 L 1.371094 11.292969 Z M 8.6875 14.589844 L 8.6875 12.707031 L 14.667969 12.707031 C 15.40625 12.707031 16 12.109375 16 11.367188 L 16 1.335938 C 16 0.597656 15.40625 0 14.667969 0 L 1.332031 0 C 0.59375 0 0 0.597656 0 1.335938 L 0 11.367188 C 0 12.109375 0.59375 12.707031 1.332031 12.707031 L 7.3125 12.707031 L 7.3125 14.589844 L 4.808594 14.589844 C 4.425781 14.589844 4.113281 14.898438 4.113281 15.285156 L 4.113281 15.304688 C 4.113281 15.6875 4.425781 16 4.808594 16 L 11.191406 16 C 11.574219 16 11.886719 15.6875 11.886719 15.304688 L 11.886719 15.285156 C 11.886719 14.898438 11.574219 14.589844 11.191406 14.589844 Z M 10.515625 8 L 12.800781 8 L 12.800781 9.882812 L 10.515625 9.882812 Z M 10.515625 8 "/>
</g>
</svg>
