
<svg xmlns="http://www.w3.org/2000/svg" xmlns:xlink="http://www.w3.org/1999/xlink" width="16px" height="16px" viewBox="0 0 16 16" version="1.1">
<g id="surface1">
<path style=" stroke:none;fill-rule:evenodd;fill:#ff6666;fill-opacity:1;" d="M 4.21875 4.253906 L 3.089844 4.253906 C 2.277344 4.253906 1.492188 4.582031 0.929688 5.144531 C 0.351562 5.722656 0.0234375 6.496094 0.0351562 7.308594 L 0.0351562 12.945312 C 0.0234375 13.757812 0.351562 14.53125 0.929688 15.105469 C 1.492188 15.683594 2.277344 16 3.089844 16 L 8.726562 16 C 9.527344 16 10.3125 15.683594 10.878906 15.105469 C 11.453125 14.53125 11.78125 13.757812 11.78125 12.945312 L 11.78125 11.746094 L 12.910156 11.746094 C 13.722656 11.746094 14.496094 11.417969 15.070312 10.855469 C 15.636719 10.277344 15.964844 9.503906 15.964844 8.691406 L 15.964844 3.054688 C 15.964844 2.242188 15.636719 1.46875 15.070312 0.894531 C 14.496094 0.316406 13.722656 0 12.910156 0 L 7.273438 0 C 6.460938 0 5.6875 0.316406 5.109375 0.894531 C 4.535156 1.46875 4.21875 2.242188 4.21875 3.054688 Z M 6.566406 4.253906 L 8.726562 4.253906 C 9.527344 4.253906 10.3125 4.582031 10.878906 5.144531 C 11.453125 5.722656 11.78125 6.496094 11.78125 7.308594 L 11.78125 9.398438 L 12.910156 9.398438 C 13.097656 9.398438 13.273438 9.316406 13.402344 9.1875 C 13.53125 9.058594 13.613281 8.882812 13.613281 8.691406 L 13.613281 3.054688 C 13.613281 2.867188 13.53125 2.691406 13.402344 2.550781 C 13.273438 2.421875 13.097656 2.347656 12.910156 2.347656 L 7.273438 2.347656 C 7.085938 2.347656 6.90625 2.421875 6.765625 2.550781 C 6.636719 2.691406 6.566406 2.867188 6.566406 3.054688 Z M 4.21875 6.601562 L 3.078125 6.601562 C 2.902344 6.601562 2.714844 6.683594 2.585938 6.8125 C 2.453125 6.941406 2.386719 7.117188 2.386719 7.308594 L 2.386719 12.945312 C 2.386719 13.132812 2.453125 13.308594 2.585938 13.449219 C 2.714844 13.578125 2.902344 13.652344 3.078125 13.652344 L 8.726562 13.652344 C 8.90625 13.652344 9.09375 13.578125 9.222656 13.449219 C 9.351562 13.308594 9.433594 13.132812 9.433594 12.945312 L 9.433594 11.746094 L 7.273438 11.746094 C 6.460938 11.746094 5.6875 11.417969 5.109375 10.855469 C 4.535156 10.277344 4.21875 9.503906 4.21875 8.691406 Z M 6.566406 6.601562 L 8.726562 6.601562 C 8.90625 6.601562 9.09375 6.683594 9.222656 6.8125 C 9.351562 6.941406 9.433594 7.117188 9.433594 7.308594 L 9.433594 9.398438 L 7.273438 9.398438 C 7.085938 9.398438 6.90625 9.316406 6.765625 9.1875 C 6.636719 9.058594 6.566406 8.882812 6.566406 8.691406 Z M 6.566406 6.601562 "/>
</g>
</svg>
