
<svg xmlns="http://www.w3.org/2000/svg" xmlns:xlink="http://www.w3.org/1999/xlink" width="16px" height="16px" viewBox="0 0 16 16" version="1.1">
<g id="surface1">
<path style=" stroke:none;fill-rule:nonzero;fill:#ff6666;fill-opacity:1;" d="M 0 1.558594 L 3.628906 13.589844 C 3.632812 13.597656 3.636719 13.597656 3.640625 13.605469 C 3.765625 14.085938 4.203125 14.441406 4.726562 14.441406 C 5.222656 14.441406 5.636719 14.121094 5.785156 13.679688 C 5.789062 13.671875 5.800781 13.664062 5.800781 13.65625 L 9.449219 1.558594 L 8.234375 1.558594 L 4.726562 13.28125 L 1.21875 1.558594 Z M 13.179688 1.558594 C 11.625 1.558594 10.363281 2.820312 10.363281 4.375 L 10.363281 7.195312 L 11.570312 7.195312 L 11.570312 4.375 C 11.570312 3.472656 12.277344 2.765625 13.179688 2.765625 C 14.085938 2.765625 14.792969 3.472656 14.792969 4.375 L 14.792969 7.195312 L 16 7.195312 L 16 4.375 C 16 2.820312 14.738281 1.558594 13.179688 1.558594 Z M 13.179688 8.804688 C 11.625 8.804688 10.363281 10.066406 10.363281 11.625 C 10.363281 13.179688 11.625 14.441406 13.179688 14.441406 L 16 14.441406 L 16 13.234375 L 13.179688 13.234375 C 12.277344 13.234375 11.570312 12.527344 11.570312 11.625 C 11.570312 10.71875 12.277344 10.015625 13.179688 10.015625 L 16 10.015625 L 16 8.804688 Z M 13.179688 8.804688 "/>
</g>
</svg>
