
<svg xmlns="http://www.w3.org/2000/svg" xmlns:xlink="http://www.w3.org/1999/xlink" width="16px" height="16px" viewBox="0 0 16 16" version="1.1">
<g id="surface1">
<path style=" stroke:none;fill-rule:nonzero;fill:#ff6666;fill-opacity:1;" d="M 12.195312 5.714844 C 11.984375 5.714844 11.8125 5.886719 11.8125 6.09375 L 11.8125 9.144531 C 11.8125 11.242188 10.101562 12.957031 8 12.957031 C 5.898438 12.957031 4.1875 11.242188 4.1875 9.144531 L 4.1875 6.09375 C 4.1875 5.886719 4.015625 5.714844 3.804688 5.714844 C 3.597656 5.714844 3.425781 5.886719 3.425781 6.09375 L 3.425781 9.144531 C 3.425781 11.535156 5.273438 13.503906 7.617188 13.699219 L 7.617188 15.238281 L 6.257812 15.238281 C 6.046875 15.238281 5.875 15.410156 5.875 15.617188 C 5.875 15.828125 6.046875 16 6.257812 16 L 9.742188 16 C 9.953125 16 10.125 15.828125 10.125 15.617188 C 10.125 15.410156 9.953125 15.238281 9.742188 15.238281 L 8.382812 15.238281 L 8.382812 13.699219 C 10.722656 13.503906 12.574219 11.53125 12.574219 9.144531 L 12.574219 6.09375 C 12.574219 5.886719 12.402344 5.714844 12.195312 5.714844 Z M 6.476562 4.191406 C 6.6875 4.191406 6.855469 4.359375 6.855469 4.570312 C 6.855469 4.78125 6.6875 4.953125 6.476562 4.953125 C 6.265625 4.953125 6.09375 4.78125 6.09375 4.570312 C 6.09375 4.359375 6.265625 4.191406 6.476562 4.191406 Z M 9.527344 4.191406 C 9.738281 4.191406 9.90625 4.359375 9.90625 4.570312 C 9.90625 4.78125 9.738281 4.953125 9.527344 4.953125 C 9.316406 4.953125 9.144531 4.78125 9.144531 4.570312 C 9.144531 4.359375 9.316406 4.191406 9.527344 4.191406 Z M 8.761719 3.429688 C 8.972656 3.429688 9.144531 3.597656 9.144531 3.808594 C 9.144531 4.019531 8.972656 4.191406 8.761719 4.191406 C 8.550781 4.191406 8.382812 4.019531 8.382812 3.808594 C 8.382812 3.597656 8.550781 3.429688 8.761719 3.429688 Z M 7.238281 3.429688 C 7.449219 3.429688 7.617188 3.597656 7.617188 3.808594 C 7.617188 4.019531 7.449219 4.191406 7.238281 4.191406 C 7.027344 4.191406 6.855469 4.019531 6.855469 3.808594 C 6.855469 3.597656 7.027344 3.429688 7.238281 3.429688 Z M 8.761719 1.90625 C 8.972656 1.90625 9.144531 2.074219 9.144531 2.285156 C 9.144531 2.496094 8.972656 2.667969 8.761719 2.667969 C 8.550781 2.667969 8.382812 2.496094 8.382812 2.285156 C 8.382812 2.074219 8.550781 1.90625 8.761719 1.90625 Z M 7.238281 1.90625 C 7.449219 1.90625 7.617188 2.074219 7.617188 2.285156 C 7.617188 2.496094 7.449219 2.667969 7.238281 2.667969 C 7.027344 2.667969 6.855469 2.496094 6.855469 2.285156 C 6.855469 2.074219 7.027344 1.90625 7.238281 1.90625 Z M 8 4.191406 C 8.210938 4.191406 8.382812 4.359375 8.382812 4.570312 C 8.382812 4.78125 8.210938 4.953125 8 4.953125 C 7.789062 4.953125 7.617188 4.78125 7.617188 4.570312 C 7.617188 4.359375 7.789062 4.191406 8 4.191406 Z M 6.476562 2.667969 C 6.6875 2.667969 6.855469 2.835938 6.855469 3.046875 C 6.855469 3.257812 6.6875 3.429688 6.476562 3.429688 C 6.265625 3.429688 6.09375 3.257812 6.09375 3.046875 C 6.09375 2.835938 6.265625 2.667969 6.476562 2.667969 Z M 9.527344 2.667969 C 9.738281 2.667969 9.90625 2.835938 9.90625 3.046875 C 9.90625 3.257812 9.738281 3.429688 9.527344 3.429688 C 9.316406 3.429688 9.144531 3.257812 9.144531 3.046875 C 9.144531 2.835938 9.316406 2.667969 9.527344 2.667969 Z M 8 2.667969 C 8.210938 2.667969 8.382812 2.835938 8.382812 3.046875 C 8.382812 3.257812 8.210938 3.429688 8 3.429688 C 7.789062 3.429688 7.617188 3.257812 7.617188 3.046875 C 7.617188 2.835938 7.789062 2.667969 8 2.667969 Z M 11.050781 3.046875 C 11.050781 1.363281 9.683594 0 8.003906 0 C 6.324219 0 4.957031 1.367188 4.957031 3.046875 L 4.957031 9.144531 C 4.957031 10.824219 6.320312 12.191406 8.003906 12.191406 C 9.6875 12.191406 11.050781 10.824219 11.050781 9.144531 Z M 10.289062 5.714844 L 5.714844 5.714844 L 5.714844 3.046875 C 5.714844 1.785156 6.738281 0.761719 8 0.761719 C 9.261719 0.761719 10.285156 1.785156 10.285156 3.046875 L 10.285156 5.714844 Z M 10.289062 5.714844 "/>
</g>
</svg>
