
<svg xmlns="http://www.w3.org/2000/svg" xmlns:xlink="http://www.w3.org/1999/xlink" width="16px" height="16px" viewBox="0 0 16 16" version="1.1">
<g id="surface1">
<path style=" stroke:none;fill-rule:nonzero;fill:#ff6666;fill-opacity:1;" d="M 12.878906 8 C 11.722656 8 10.792969 8.949219 10.792969 10.113281 L 10.792969 11.125 L 9.753906 11.125 L 9.753906 15.289062 L 16 15.289062 L 16 11.125 L 14.960938 11.125 L 14.960938 10.113281 C 14.960938 8.949219 14.03125 8 12.878906 8 Z M 12.878906 9.042969 C 13.453125 9.042969 13.917969 9.503906 13.917969 10.082031 L 13.917969 11.125 L 11.835938 11.125 L 11.835938 10.082031 C 11.835938 9.503906 12.300781 9.042969 12.878906 9.042969 Z M 12.878906 9.042969 "/>
<path style=" stroke:none;fill-rule:nonzero;fill:#ff6666;fill-opacity:1;" d="M 7.671875 0.710938 C 4.894531 0.710938 2.117188 1.769531 0 3.882812 L 0.769531 4.652344 C 4.585938 0.835938 10.757812 0.835938 14.574219 4.652344 L 15.339844 3.882812 C 13.226562 1.769531 10.449219 0.710938 7.671875 0.710938 Z M 7.671875 3.816406 C 5.671875 3.816406 3.671875 4.578125 2.148438 6.101562 L 2.914062 6.867188 C 5.546875 4.234375 9.796875 4.234375 12.425781 6.867188 L 13.191406 6.101562 C 11.671875 4.578125 9.671875 3.816406 7.671875 3.816406 Z M 7.671875 6.9375 C 6.449219 6.9375 5.226562 7.402344 4.296875 8.332031 L 5.0625 9.101562 C 6.425781 7.738281 8.566406 7.675781 10.019531 8.890625 C 10.160156 8.550781 10.367188 8.246094 10.609375 7.976562 C 9.746094 7.296875 8.714844 6.9375 7.671875 6.9375 Z M 7.671875 10.082031 C 6.519531 10.082031 5.589844 11.015625 5.589844 12.164062 C 5.589844 13.316406 6.519531 14.246094 7.671875 14.246094 C 8.035156 14.246094 8.394531 14.152344 8.710938 13.96875 L 8.710938 10.367188 C 8.394531 10.179688 8.035156 10.082031 7.671875 10.082031 Z M 7.671875 10.082031 "/>
</g>
</svg>
