
<svg xmlns="http://www.w3.org/2000/svg" xmlns:xlink="http://www.w3.org/1999/xlink" width="16px" height="16px" viewBox="0 0 16 16" version="1.1">
<g id="surface1">
<path style=" stroke:none;fill-rule:nonzero;fill:#ff6666;fill-opacity:1;" d="M 8.132812 15.972656 C 7.722656 15.839844 7.570312 15.546875 7.332031 14.421875 C 7.199219 13.789062 6.925781 13.433594 6.410156 13.230469 C 6.109375 13.109375 5.960938 13.089844 4.851562 13.011719 C 3.855469 12.941406 3.390625 12.691406 3.066406 12.054688 C 2.9375 11.804688 2.839844 11.480469 2.699219 10.84375 C 2.523438 10.035156 2.359375 9.621094 2.011719 9.097656 C 1.796875 8.773438 1.308594 8.28125 0.964844 8.039062 C 0.632812 7.808594 0.554688 7.738281 0.492188 7.617188 C 0.410156 7.460938 0.4375 7.3125 0.566406 7.191406 C 0.824219 6.949219 1.195312 7.027344 1.464844 7.378906 C 1.511719 7.4375 1.625 7.621094 1.71875 7.785156 C 1.886719 8.089844 2.070312 8.355469 2.109375 8.355469 C 2.125 8.355469 2.132812 7.925781 2.132812 7.382812 C 2.132812 6.34375 2.140625 6.289062 2.261719 6.203125 C 2.359375 6.136719 2.496094 6.152344 2.597656 6.242188 C 2.769531 6.390625 2.789062 6.503906 2.988281 8.566406 C 3.035156 9.007812 3.023438 8.992188 3.15625 8.847656 C 3.28125 8.710938 3.421875 8.433594 3.46875 8.226562 C 3.515625 8.03125 3.507812 7.722656 3.445312 7.472656 C 3.382812 7.21875 3.378906 7.117188 3.429688 7.011719 C 3.535156 6.789062 3.828125 6.792969 3.984375 7.023438 C 4.09375 7.175781 4.128906 7.316406 4.144531 7.59375 C 4.160156 7.96875 4.101562 8.230469 3.832031 9.0625 C 3.539062 9.957031 3.507812 10.101562 3.507812 10.472656 C 3.507812 10.703125 3.519531 10.796875 3.566406 10.949219 C 3.804688 11.71875 4.53125 12.1875 5.683594 12.324219 C 6.011719 12.363281 6.164062 12.367188 6.164062 12.347656 C 6.164062 12.339844 6.105469 12.234375 6.035156 12.109375 C 5.609375 11.347656 5.429688 10.78125 5.464844 10.285156 C 5.484375 9.996094 5.539062 9.792969 5.742188 9.273438 C 6.050781 8.480469 6.09375 8.285156 6.097656 7.777344 C 6.097656 6.6875 5.539062 5.65625 4.644531 5.109375 C 4.546875 5.046875 4.246094 4.898438 3.984375 4.78125 C 3.4375 4.535156 3.1875 4.382812 2.988281 4.175781 C 2.753906 3.933594 2.613281 3.628906 2.613281 3.367188 C 2.613281 3.246094 2.664062 3.214844 2.890625 3.199219 C 3.300781 3.171875 3.65625 3.355469 4.269531 3.921875 C 4.660156 4.273438 4.839844 4.410156 5.0625 4.519531 C 5.277344 4.621094 5.59375 4.679688 5.640625 4.632812 C 5.660156 4.613281 5.671875 4.523438 5.671875 4.40625 C 5.671875 4.140625 5.574219 3.941406 5.335938 3.71875 C 5.175781 3.570312 5.058594 3.492188 4.566406 3.21875 C 4.0625 2.933594 3.808594 2.539062 3.875 2.136719 C 3.910156 1.898438 4.078125 1.730469 4.316406 1.695312 C 4.984375 1.585938 5.996094 2.726562 6.449219 4.101562 C 6.691406 4.824219 6.773438 5.394531 6.777344 6.277344 C 6.777344 7.09375 6.710938 7.707031 6.5 8.769531 C 6.414062 9.199219 6.386719 9.386719 6.398438 9.492188 C 6.429688 9.886719 6.65625 9.988281 6.988281 9.761719 C 7.378906 9.492188 7.765625 8.996094 7.925781 8.5625 C 8.050781 8.214844 8.082031 8.015625 8.101562 7.359375 C 8.113281 6.816406 8.121094 6.746094 8.171875 6.65625 C 8.238281 6.527344 8.324219 6.445312 8.441406 6.40625 C 8.566406 6.363281 8.671875 6.386719 8.765625 6.480469 C 8.972656 6.6875 8.957031 7.0625 8.691406 8.09375 C 8.535156 8.707031 8.300781 9.242188 8.027344 9.613281 C 7.949219 9.71875 7.710938 9.96875 7.5 10.167969 C 7.046875 10.597656 6.902344 10.773438 6.773438 11.039062 C 6.683594 11.234375 6.679688 11.246094 6.679688 11.515625 C 6.679688 11.773438 6.683594 11.800781 6.746094 11.910156 C 7.03125 12.390625 7.753906 12.519531 8.28125 12.183594 C 8.871094 11.804688 9.371094 10.421875 9.589844 8.570312 C 9.742188 7.257812 9.640625 6.347656 9.246094 5.523438 C 8.980469 4.964844 8.628906 4.574219 7.96875 4.101562 C 7.75 3.945312 7.496094 3.757812 7.410156 3.683594 C 7.203125 3.507812 6.972656 3.199219 6.878906 2.976562 C 6.816406 2.828125 6.808594 2.769531 6.804688 2.550781 L 6.804688 2.300781 L 6.917969 2.242188 C 7.210938 2.097656 7.644531 2.246094 8 2.617188 C 8.078125 2.695312 8.234375 2.917969 8.351562 3.109375 C 8.699219 3.683594 8.90625 3.929688 9.117188 4.039062 L 9.1875 4.078125 L 9.074219 3.855469 C 9.011719 3.734375 8.761719 3.242188 8.511719 2.765625 C 7.898438 1.582031 7.875 1.523438 7.875 1.230469 C 7.875 0.945312 8.050781 0.75 8.316406 0.75 C 8.558594 0.75 8.773438 0.917969 8.910156 1.214844 C 8.949219 1.300781 9.117188 1.84375 9.285156 2.425781 C 9.453125 3.007812 9.667969 3.75 9.761719 4.074219 L 9.933594 4.664062 L 10.007812 4.515625 C 10.183594 4.164062 10.320312 3.664062 10.367188 3.167969 C 10.417969 2.6875 10.367188 2.242188 10.179688 1.46875 C 10.039062 0.890625 10.03125 0.820312 10.066406 0.625 C 10.140625 0.207031 10.394531 -0.0234375 10.746094 0.00390625 C 11.183594 0.0351562 11.511719 0.386719 11.574219 0.898438 C 11.636719 1.390625 11.519531 1.910156 11.054688 3.195312 C 10.640625 4.34375 10.515625 4.738281 10.421875 5.195312 C 10.265625 5.964844 10.289062 6.699219 10.488281 7.269531 L 10.535156 7.40625 L 10.820312 6.601562 C 10.976562 6.160156 11.132812 5.738281 11.167969 5.664062 C 11.304688 5.390625 11.53125 5.339844 11.722656 5.542969 C 11.8125 5.640625 11.832031 5.75 11.789062 5.925781 C 11.652344 6.464844 10.941406 8.496094 9.804688 11.613281 C 9.269531 13.078125 9.265625 13.097656 9.355469 13.007812 C 9.40625 12.960938 10.152344 12.28125 11.011719 11.5 C 11.867188 10.71875 12.636719 10.007812 12.714844 9.921875 C 12.945312 9.664062 13.085938 9.347656 13.085938 9.085938 C 13.085938 8.785156 12.953125 8.433594 12.613281 7.847656 C 12.199219 7.128906 12.089844 6.753906 12.191406 6.410156 C 12.261719 6.167969 12.480469 5.988281 12.695312 5.988281 C 12.789062 5.988281 12.949219 6.078125 13.035156 6.179688 C 13.144531 6.304688 13.355469 6.75 13.476562 7.109375 C 13.570312 7.394531 13.691406 7.9375 13.691406 8.074219 C 13.691406 8.117188 13.699219 8.15625 13.710938 8.164062 C 13.722656 8.171875 13.90625 7.820312 14.125 7.390625 C 14.542969 6.558594 14.644531 6.410156 14.832031 6.316406 C 15.117188 6.179688 15.421875 6.339844 15.53125 6.679688 C 15.601562 6.910156 15.5 7.304688 15.230469 7.839844 C 14.910156 8.460938 14.296875 9.421875 13.722656 10.1875 C 13.558594 10.40625 13.425781 10.59375 13.417969 10.601562 C 13.414062 10.609375 13.503906 10.566406 13.617188 10.496094 C 14.117188 10.195312 14.527344 10.175781 14.832031 10.441406 C 15.007812 10.597656 15.074219 10.855469 14.984375 11.03125 C 14.851562 11.300781 14.617188 11.386719 13.933594 11.429688 C 13.433594 11.457031 13.082031 11.523438 12.730469 11.644531 C 12.152344 11.84375 11.703125 12.128906 11.261719 12.570312 C 10.898438 12.933594 10.710938 13.207031 10.304688 13.960938 C 9.851562 14.796875 9.671875 15.066406 9.3125 15.4375 C 9.066406 15.695312 8.839844 15.867188 8.652344 15.9375 C 8.480469 16.003906 8.265625 16.019531 8.132812 15.976562 Z M 8.132812 15.972656 "/>
</g>
</svg>
