
<svg xmlns="http://www.w3.org/2000/svg" xmlns:xlink="http://www.w3.org/1999/xlink" width="16px" height="16px" viewBox="0 0 16 16" version="1.1">
<g id="surface1">
<path style=" stroke:none;fill-rule:evenodd;fill:#ff6666;fill-opacity:1;" d="M 8.699219 0 C 7.214844 0 5.796875 0.589844 4.746094 1.636719 C 3.699219 2.683594 3.109375 4.105469 3.109375 5.585938 C 3.113281 5.625 3.113281 5.660156 3.113281 5.695312 C 3.113281 5.730469 3.105469 5.761719 3.105469 5.796875 C 3.109375 5.886719 3.109375 5.972656 3.113281 6.0625 C 3.113281 6.078125 3.113281 6.097656 3.113281 6.113281 L 3.113281 7.15625 L 3.105469 7.542969 L 1.832031 9.554688 C 1.539062 10.113281 1.816406 10.464844 2.445312 10.472656 L 3.113281 10.480469 L 3.113281 12.050781 C 3.113281 12.710938 3.726562 13.261719 4.386719 13.261719 L 5.90625 13.28125 L 5.914062 15.992188 C 6.066406 16.003906 8.164062 16 12.207031 15.984375 L 12.199219 10.195312 C 12.199219 10.105469 12.195312 10.03125 12.191406 9.945312 C 13.515625 8.886719 14.285156 7.28125 14.285156 5.585938 C 14.285156 4.105469 13.695312 2.683594 12.648438 1.636719 C 11.601562 0.589844 10.179688 0 8.699219 0 Z M 7.957031 5.195312 C 7.957031 4.617188 8.425781 4.148438 9.003906 4.148438 C 9.582031 4.148438 10.050781 4.617188 10.050781 5.195312 C 10.050781 5.773438 9.582031 6.242188 9.003906 6.242188 C 8.425781 6.242188 7.957031 5.773438 7.957031 5.195312 Z M 9.003906 3.449219 C 9.96875 3.449219 10.75 4.230469 10.75 5.195312 C 10.75 6.160156 9.96875 6.941406 9.003906 6.941406 C 8.039062 6.941406 7.257812 6.160156 7.257812 5.195312 C 7.257812 4.230469 8.039062 3.449219 9.003906 3.449219 Z M 9.003906 2.050781 C 7.269531 2.050781 5.859375 3.460938 5.859375 5.195312 C 5.859375 6.929688 7.269531 8.339844 9.003906 8.339844 C 10.738281 8.339844 12.148438 6.929688 12.148438 5.195312 C 12.148438 3.460938 10.738281 2.050781 9.003906 2.050781 Z M 9.003906 2.050781 "/>
</g>
</svg>
