
<svg xmlns="http://www.w3.org/2000/svg" xmlns:xlink="http://www.w3.org/1999/xlink" width="16px" height="16px" viewBox="0 0 16 16" version="1.1">
<g id="surface1">
<path style=" stroke:none;fill-rule:nonzero;fill:#ff6666;fill-opacity:1;" d="M 2.082031 1.832031 C 1.570312 1.839844 1.09375 2.089844 0.800781 2.503906 C 0.503906 2.917969 0.421875 3.449219 0.578125 3.933594 L 3.5625 13.566406 C 3.769531 14.242188 4.394531 14.699219 5.101562 14.695312 C 5.804688 14.695312 6.425781 14.230469 6.632812 13.554688 L 8 9.019531 L 9.367188 13.554688 C 9.570312 14.234375 10.191406 14.699219 10.898438 14.699219 C 11.605469 14.703125 12.230469 14.242188 12.441406 13.566406 L 15.421875 3.933594 C 15.613281 3.378906 15.484375 2.765625 15.09375 2.332031 C 14.699219 1.894531 14.101562 1.710938 13.53125 1.847656 C 12.960938 1.984375 12.507812 2.417969 12.355469 2.984375 L 10.925781 7.597656 L 9.539062 2.996094 C 9.332031 2.316406 8.707031 1.855469 8 1.855469 C 7.292969 1.855469 6.667969 2.316406 6.464844 2.996094 L 5.074219 7.597656 L 3.648438 2.984375 C 3.441406 2.292969 2.800781 1.820312 2.082031 1.832031 Z M 2.082031 1.832031 "/>
</g>
</svg>
