
<svg xmlns="http://www.w3.org/2000/svg" xmlns:xlink="http://www.w3.org/1999/xlink" width="16px" height="16px" viewBox="0 0 16 16" version="1.1">
<g id="surface1">
<path style=" stroke:none;fill-rule:nonzero;fill:#ff6666;fill-opacity:1;" d="M 5.765625 15.769531 C 4.355469 15.421875 3.152344 14.703125 1.921875 13.472656 C 0.949219 12.507812 0.796875 12.289062 0.417969 11.320312 C 0.0429688 10.363281 -0.00390625 10.117188 0 9.042969 C 0.0078125 7.332031 0.339844 6.300781 1.296875 5.027344 C 2.199219 3.832031 2.605469 3.5 4.039062 2.796875 C 5.046875 2.304688 5.695312 2.113281 7.113281 1.890625 C 7.691406 1.800781 7.710938 1.597656 7.175781 1.226562 C 6.492188 0.746094 5.761719 0.0820312 5.835938 0.00390625 C 5.914062 -0.078125 8.613281 0.855469 9.847656 1.394531 C 11.417969 2.078125 13.347656 3.414062 14.234375 4.429688 C 14.578125 4.824219 14.742188 5.246094 14.550781 5.246094 C 14.460938 5.246094 13.324219 4.730469 12.175781 4.171875 C 11.695312 3.933594 11.246094 3.777344 11.179688 3.820312 C 11.113281 3.863281 11.195312 3.957031 11.363281 4.03125 C 11.53125 4.101562 11.695312 4.199219 11.730469 4.246094 C 11.765625 4.292969 12.035156 4.402344 12.328125 4.492188 C 12.621094 4.578125 12.863281 4.699219 12.863281 4.757812 C 12.863281 4.816406 12.933594 4.867188 13.019531 4.871094 C 13.105469 4.878906 13.457031 5.011719 13.796875 5.175781 L 14.421875 5.472656 L 13.925781 5.609375 C 13.15625 5.824219 12.824219 5.785156 11.402344 5.308594 C 9.742188 4.746094 8.054688 4.609375 6.535156 4.914062 C 5.035156 5.214844 4.898438 5.445312 5.640625 6.425781 C 6.214844 7.179688 6.792969 7.367188 7.652344 7.074219 C 8.007812 6.953125 8.378906 6.90625 8.574219 6.960938 C 8.878906 7.039062 8.882812 7.054688 8.65625 7.140625 C 8.425781 7.222656 8.4375 7.246094 8.78125 7.4375 C 9.035156 7.574219 9.085938 7.640625 8.9375 7.644531 C 8.695312 7.652344 8.640625 7.84375 8.84375 7.96875 C 9.078125 8.113281 8.972656 8.300781 8.699219 8.214844 C 8.480469 8.144531 8.441406 8.167969 8.507812 8.339844 C 8.574219 8.507812 8.535156 8.535156 8.339844 8.472656 C 8.152344 8.414062 8.089844 8.453125 8.085938 8.621094 C 8.082031 8.800781 8.003906 8.757812 7.730469 8.429688 C 7.398438 8.023438 7.328125 7.996094 6.195312 7.886719 C 4.796875 7.75 4.421875 7.617188 4.003906 7.117188 L 3.6875 6.742188 L 3.355469 7.476562 C 2.917969 8.4375 2.8125 9.867188 3.113281 10.78125 C 3.796875 12.847656 5.230469 13.726562 6.695312 12.976562 C 7.6875 12.464844 7.96875 11.519531 7.382812 10.667969 C 7.042969 10.175781 7.039062 9.632812 7.378906 9.914062 C 7.582031 10.085938 7.710938 9.976562 7.71875 9.625 C 7.726562 9.386719 7.742188 9.394531 7.855469 9.675781 L 7.984375 9.992188 L 8.179688 9.707031 C 8.417969 9.355469 8.589844 9.339844 8.503906 9.675781 C 8.429688 9.960938 8.585938 10.007812 8.832031 9.769531 C 8.964844 9.640625 8.980469 9.667969 8.90625 9.910156 C 8.828125 10.175781 8.847656 10.199219 9.113281 10.125 C 9.367188 10.054688 9.347656 10.09375 8.984375 10.40625 L 8.5625 10.769531 L 8.742188 13.558594 L 8.355469 13.882812 C 7.976562 14.207031 7.976562 14.210938 8.261719 14.28125 C 8.671875 14.386719 10.425781 14.164062 11.167969 13.914062 C 12.414062 13.496094 13.890625 12.371094 14.503906 11.375 C 15.269531 10.121094 15.695312 7.691406 15.328125 6.667969 C 15.171875 6.234375 15.167969 6.132812 15.300781 6.132812 C 15.640625 6.132812 15.996094 7.515625 16 8.859375 C 16.007812 10.519531 15.402344 12.0625 14.238281 13.382812 C 12.410156 15.449219 8.695312 16.496094 5.765625 15.769531 Z M 5.765625 15.769531 "/>
</g>
</svg>
