
<svg xmlns="http://www.w3.org/2000/svg" xmlns:xlink="http://www.w3.org/1999/xlink" width="16px" height="16px" viewBox="0 0 16 16" version="1.1">
<g id="surface1">
<path style=" stroke:none;fill-rule:evenodd;fill:#ff6666;fill-opacity:1;" d="M 7.300781 7.859375 L 7.300781 15.988281 L 8.699219 16 L 8.699219 7.859375 C 9.316406 7.589844 9.75 6.972656 9.75 6.257812 C 9.75 5.289062 8.964844 4.507812 8 4.507812 C 7.035156 4.507812 6.25 5.289062 6.25 6.257812 C 6.25 6.972656 6.683594 7.589844 7.300781 7.859375 Z M 11.476562 0 L 10.851562 1.253906 C 12.746094 2.199219 13.945312 4.136719 13.949219 6.257812 C 13.945312 8.378906 12.75 10.3125 10.851562 11.261719 L 11.476562 12.507812 C 13.84375 11.324219 15.34375 8.90625 15.347656 6.257812 C 15.347656 3.605469 13.847656 1.183594 11.476562 0 Z M 4.523438 0.00390625 C 2.15625 1.1875 0.65625 3.609375 0.652344 6.257812 C 0.652344 8.90625 2.152344 11.328125 4.523438 12.515625 L 5.148438 11.257812 C 3.253906 10.3125 2.054688 8.375 2.050781 6.257812 C 2.054688 4.136719 3.25 2.199219 5.148438 1.253906 Z M 10.226562 2.503906 L 9.601562 3.757812 C 10.546875 4.230469 11.148438 5.195312 11.148438 6.257812 C 11.148438 7.316406 10.550781 8.285156 9.601562 8.757812 L 10.226562 10.007812 C 11.648438 9.296875 12.546875 7.847656 12.546875 6.257812 C 12.546875 4.667969 11.648438 3.214844 10.226562 2.503906 Z M 5.773438 2.507812 C 4.351562 3.214844 3.453125 4.667969 3.453125 6.257812 C 3.453125 7.847656 4.351562 9.300781 5.773438 10.011719 L 6.398438 8.757812 C 5.453125 8.285156 4.851562 7.316406 4.851562 6.257812 C 4.851562 5.195312 5.449219 4.226562 6.398438 3.753906 Z M 5.773438 2.507812 "/>
</g>
</svg>
