
<svg xmlns="http://www.w3.org/2000/svg" xmlns:xlink="http://www.w3.org/1999/xlink" width="16px" height="16px" viewBox="0 0 16 16" version="1.1">
<g id="surface1">
<path style=" stroke:none;fill-rule:nonzero;fill:#ff6666;fill-opacity:1;" d="M 8.796875 0 C 8.617188 0 8.28125 0.03125 8.105469 0.078125 C 7.527344 0.238281 6.988281 0.992188 6.789062 1.539062 C 6.757812 1.621094 6.71875 1.699219 6.703125 1.707031 C 6.683594 1.714844 6.617188 1.734375 6.550781 1.746094 C 5.863281 1.890625 5.027344 2.203125 4.453125 2.53125 C 3.164062 3.269531 2.179688 4.316406 1.535156 5.625 C 1.171875 6.363281 0.964844 7.042969 0.847656 7.890625 C 0.796875 8.253906 0.796875 9.34375 0.847656 9.703125 C 1.074219 11.328125 1.753906 12.722656 2.875 13.855469 C 4.148438 15.144531 5.785156 15.882812 7.636719 15.996094 C 7.867188 16.011719 8.5625 15.988281 8.835938 15.957031 C 9.589844 15.871094 10.394531 15.640625 11.085938 15.3125 C 13.339844 14.238281 14.878906 12.089844 15.160156 9.613281 C 15.175781 9.492188 15.1875 9.15625 15.1875 8.867188 C 15.230469 8.042969 14.894531 7.226562 14.554688 6.621094 C 14.203125 5.894531 14.136719 5.265625 14.085938 4.492188 C 14.089844 4.445312 14.089844 4.394531 14.082031 4.382812 C 13.152344 4.667969 12.355469 5.421875 11.867188 6.113281 C 11.535156 6.644531 11.320312 7.183594 11.320312 7.65625 C 11.367188 8.867188 12.402344 9.742188 12.425781 10.835938 C 12.425781 11.996094 11.726562 13.121094 10.894531 13.925781 C 10.726562 14.085938 10.6875 14.117188 10.667969 14.097656 C 10.664062 14.089844 10.6875 14.019531 10.726562 13.9375 C 11.304688 12.667969 11.183594 11.148438 10.292969 10.082031 C 10.171875 9.933594 9.679688 9.449219 9.609375 9.40625 C 9.644531 9.574219 9.660156 9.742188 9.660156 9.914062 C 9.660156 11.441406 8.421875 12.679688 6.894531 12.679688 C 5.367188 12.679688 4.128906 11.441406 4.128906 9.914062 C 4.128906 8.386719 5.367188 7.148438 6.894531 7.148438 C 7.066406 7.148438 7.242188 7.164062 7.414062 7.199219 C 7.421875 7.199219 7.433594 7.199219 7.441406 7.199219 C 7.464844 7.179688 7.484375 7.15625 7.484375 7.152344 C 7.484375 7.109375 6.800781 6.425781 6.613281 6.28125 C 6.230469 5.984375 5.792969 5.625 5.285156 5.492188 C 5.152344 5.460938 5.082031 5.429688 5.082031 5.414062 C 5.082031 5.363281 5.5625 5.21875 6.09375 5.113281 C 6.738281 4.980469 7.160156 4.949219 8.414062 4.9375 C 8.941406 4.929688 9.460938 4.917969 9.566406 4.90625 C 10.917969 4.6875 12.007812 3.804688 12.492188 2.8125 C 12.503906 2.769531 12.503906 2.769531 12.292969 2.769531 C 11.847656 2.769531 11.402344 2.675781 10.976562 2.488281 C 10.425781 2.175781 9.941406 1.8125 9.351562 1.6875 C 9.199219 1.652344 8.785156 1.648438 8.554688 1.617188 C 8.5 1.152344 8.703125 0.480469 8.902344 0.179688 C 8.953125 0.109375 8.988281 0.0429688 8.984375 0.03125 C 8.976562 0.0078125 8.902344 0 8.796875 0 Z M 8.796875 0 "/>
</g>
</svg>
