
<svg xmlns="http://www.w3.org/2000/svg" xmlns:xlink="http://www.w3.org/1999/xlink" width="16px" height="16px" viewBox="0 0 16 16" version="1.1">
<g id="surface1">
<path style=" stroke:none;fill-rule:nonzero;fill:#ff6666;fill-opacity:1;" d="M 14.191406 0 C 14.507812 0 14.683594 0.246094 14.71875 0.746094 L 14.320312 3.085938 L 14.417969 3.085938 L 14.628906 2.910156 L 14.683594 2.910156 L 14.683594 2.964844 C 14.394531 3.183594 14.117188 3.785156 13.847656 4.765625 C 13.746094 5.609375 13.574219 6.390625 13.332031 7.105469 C 13.121094 7.847656 13.011719 8.527344 13.011719 9.152344 L 12.609375 10.382812 C 12.609375 10.488281 12.761719 10.59375 13.070312 10.695312 C 13.011719 10.9375 12.929688 11.058594 12.816406 11.058594 L 12.816406 11.128906 L 12.914062 11.128906 L 12.914062 11.179688 C 12.914062 11.308594 12.757812 11.371094 12.441406 11.371094 L 12.496094 11.441406 L 12.496094 11.683594 L 12.402344 11.683594 C 12.464844 11.925781 12.605469 12.046875 12.816406 12.046875 L 12.816406 12.167969 L 12.402344 12.167969 L 12.402344 12.238281 C 12.539062 12.238281 12.609375 12.34375 12.609375 12.550781 L 12.023438 12.792969 L 12.082031 12.863281 L 12.082031 12.914062 C 12.082031 12.996094 12.011719 13.035156 11.871094 13.035156 L 11.871094 13.105469 C 12.046875 13.105469 12.136719 13.144531 12.136719 13.226562 C 11.886719 13.328125 11.554688 13.84375 11.148438 14.769531 C 10.730469 15.589844 10.367188 16 10.0625 16 L 9.949219 16 C 9.71875 15.816406 9.527344 15.203125 9.382812 14.164062 C 8.785156 12.578125 8.488281 11.648438 8.488281 11.371094 C 8.488281 10.65625 8.300781 10.019531 7.917969 9.210938 C 7.816406 8.851562 7.746094 8.226562 7.710938 7.683594 L 7.460938 7.683594 C 6.828125 8.875 6.5 9.78125 6.472656 10.453125 C 6.296875 10.847656 6.15625 11.320312 6.054688 11.875 C 6.433594 12 6.625 12.121094 6.625 12.238281 L 6.625 12.308594 C 6.328125 12.261719 6.117188 12.175781 5.996094 12.046875 C 5.867188 12.359375 5.695312 13.035156 5.484375 14.457031 C 5.316406 15.113281 5.109375 15.359375 4.855469 15.359375 C 4.152344 15.070312 3.5625 14.679688 3.089844 14.023438 C 3.015625 14.023438 2.894531 13.691406 2.726562 13.035156 C 2.625 13.035156 2.554688 12.703125 2.519531 12.046875 C 2.164062 11.109375 1.925781 10.234375 1.796875 9.03125 L 1.796875 7.230469 L 1.738281 7.230469 L 1.488281 7.296875 L 1.488281 7.230469 C 1.488281 7.148438 1.570312 7.105469 1.738281 7.105469 L 1.683594 6.066406 L 1.683594 5.253906 L 1.28125 2.652344 L 1.28125 1.671875 C 1.457031 0.976562 1.761719 0.632812 2.199219 0.632812 L 2.367188 0.804688 L 2.199219 0.753906 C 2.875 1.675781 3.273438 2.328125 3.394531 2.964844 L 3.867188 2.964844 L 3.867188 3.085938 L 3.507812 3.085938 L 3.507812 3.222656 C 3.644531 3.757812 3.746094 4.023438 3.8125 4.023438 L 3.925781 4.023438 L 4.175781 3.953125 L 4.230469 4.023438 L 4.285156 3.953125 L 4.34375 4.023438 L 4.34375 4.074219 C 4.15625 4.210938 4.03125 4.402344 3.964844 4.644531 L 3.925781 4.644531 L 3.925781 4.765625 L 4.023438 4.765625 C 4.152344 6.695312 4.394531 8.414062 4.746094 9.410156 L 4.953125 9.601562 L 5.066406 9.601562 C 5.203125 9.601562 5.496094 8.84375 5.941406 7.488281 C 6.230469 6.878906 6.4375 6.429688 6.570312 5.96875 L 6.511719 5.777344 C 6.800781 5.324219 7.097656 5.121094 7.402344 5.121094 L 7.503906 5.121094 C 7.695312 5.121094 7.835938 5.226562 7.917969 5.480469 C 8.179688 5.863281 8.386719 6.347656 8.546875 7.109375 L 9.324219 8.71875 C 9.425781 8.847656 9.476562 8.992188 9.476562 9.152344 C 9.765625 9.835938 10.023438 10.660156 10.257812 10.878906 L 10.425781 10.878906 C 10.617188 10.878906 10.878906 9.660156 11.203125 7.972656 C 11.257812 7.972656 11.414062 7.523438 11.664062 6.621094 L 11.664062 6.550781 L 11.398438 6.429688 L 11.191406 6.5 L 10.925781 6.5 L 10.925781 6.363281 L 11.453125 6.308594 L 11.871094 6.308594 C 12.269531 4.820312 12.636719 3.664062 12.972656 2.84375 C 13.082031 1.15625 13.234375 0.3125 13.429688 0.3125 Z M 14.191406 0 "/>
</g>
</svg>
