
<svg xmlns="http://www.w3.org/2000/svg" xmlns:xlink="http://www.w3.org/1999/xlink" width="16px" height="16px" viewBox="0 0 16 16" version="1.1">
<g id="surface1">
<path style=" stroke:none;fill-rule:nonzero;fill:#ff6666;fill-opacity:1;" d="M 11.378906 5.746094 C 10.027344 5.746094 8.894531 6.574219 8.316406 7.734375 L 8.375 7.730469 C 8.347656 7.730469 8.328125 7.746094 8.304688 7.746094 C 8.289062 7.773438 8.261719 7.789062 8.246094 7.816406 L 8.273438 7.757812 C 6.996094 7.90625 6 9.011719 6 10.355469 C 6 11.800781 7.136719 13 8.550781 13 L 14.015625 13 C 15.117188 13 16 12.066406 16 10.949219 C 16 10.140625 15.519531 9.472656 14.847656 9.140625 L 14.851562 9.195312 L 14.851562 9.203125 C 14.851562 9.179688 14.835938 9.15625 14.835938 9.132812 C 14.804688 9.117188 14.789062 9.082031 14.761719 9.070312 L 14.828125 9.097656 C 14.6875 7.242188 13.21875 5.746094 11.378906 5.746094 L 11.398438 5.746094 Z M 11.8125 6.425781 C 13.152344 6.644531 14.199219 7.777344 14.265625 9.230469 L 14.265625 9.234375 L 14.285156 9.503906 L 14.527344 9.609375 C 15.046875 9.828125 15.410156 10.335938 15.410156 10.949219 C 15.410156 11.328125 15.253906 11.660156 15.027344 11.917969 C 15.253906 11.65625 15.410156 11.324219 15.40625 10.945312 C 15.40625 10.339844 15.039062 9.828125 14.527344 9.609375 L 14.28125 9.507812 L 14.261719 9.242188 L 14.261719 9.230469 C 14.195312 7.78125 13.152344 6.648438 11.8125 6.425781 Z M 11.378906 6.921875 L 11.382812 6.921875 C 12.609375 6.925781 13.613281 7.9375 13.675781 9.257812 L 13.71875 9.90625 L 14.296875 10.152344 C 14.609375 10.28125 14.820312 10.566406 14.820312 10.949219 C 14.824219 11.453125 14.449219 11.824219 14.015625 11.824219 L 8.554688 11.824219 C 7.804688 11.824219 7.179688 11.191406 7.179688 10.355469 C 7.179688 9.5625 7.757812 8.953125 8.460938 8.902344 L 9.058594 8.859375 L 9.316406 8.304688 C 9.703125 7.472656 10.46875 6.921875 11.378906 6.921875 Z M 8.753906 8.125 L 8.671875 8.296875 Z M 7.121094 8.957031 C 6.792969 9.324219 6.589844 9.816406 6.589844 10.359375 C 6.589844 10.640625 6.644531 10.910156 6.742188 11.15625 C 6.644531 10.910156 6.589844 10.640625 6.589844 10.359375 C 6.589844 9.8125 6.792969 9.324219 7.121094 8.957031 Z M 7.164062 11.808594 C 7.34375 11.996094 7.554688 12.144531 7.789062 12.25 C 7.554688 12.144531 7.34375 11.996094 7.164062 11.808594 Z M 15.003906 11.980469 C 14.804688 12.191406 14.515625 12.265625 14.226562 12.320312 C 14.515625 12.265625 14.804688 12.191406 15.003906 11.980469 Z M 15.003906 11.980469 "/>
<path style=" stroke:none;fill-rule:nonzero;fill:#ff6666;fill-opacity:1;" d="M 6.171875 1.171875 L 5.113281 3 L 3 3 L 3 5.113281 L 1.171875 6.171875 L 2.226562 8 L 1.171875 9.828125 L 3 10.886719 L 3 13 L 5.113281 13 L 6.171875 14.828125 L 8 13.773438 L 9.828125 14.828125 L 10.886719 13 L 13 13 L 13 11.894531 C 11.910156 11.949219 10.796875 11.902344 9.695312 11.90625 C 9.03125 11.839844 8.25 12.0625 7.6875 11.589844 C 6.753906 10.921875 6.984375 9.199219 8.136719 8.910156 C 8.425781 8.773438 8.863281 8.898438 9.058594 8.652344 C 9.421875 7.769531 10.175781 6.867188 11.214844 6.878906 C 11.457031 6.878906 11.703125 6.867188 11.941406 6.925781 C 13.132812 7.21875 13.820312 8.472656 13.777344 9.644531 C 13.65625 10.007812 14.214844 9.867188 14.246094 10.152344 C 14.238281 10.164062 14.226562 10.171875 14.214844 10.1875 L 14.828125 9.828125 L 13.773438 8 L 14.828125 6.171875 L 13 5.113281 L 13 3 L 10.886719 3 L 9.828125 1.171875 L 8 2.226562 Z M 6.171875 1.171875 "/>
</g>
</svg>
