
<svg xmlns="http://www.w3.org/2000/svg" xmlns:xlink="http://www.w3.org/1999/xlink" width="16px" height="16px" viewBox="0 0 16 16" version="1.1">
<g id="surface1">
<path style=" stroke:none;fill-rule:evenodd;fill:#ff6666;fill-opacity:1;" d="M 11.105469 3.089844 C 10.566406 3.386719 10.097656 3.855469 9.675781 4.382812 C 8.921875 5.332031 8.273438 6.535156 7.613281 7.714844 C 6.953125 8.894531 6.285156 10.050781 5.566406 10.875 C 5.179688 11.320312 4.792969 11.65625 4.386719 11.867188 C 4.136719 11.535156 3.742188 11.328125 3.296875 11.328125 C 2.863281 11.328125 2.476562 11.527344 2.226562 11.84375 C 1.835938 11.65625 1.460938 11.367188 1.136719 11.0625 C 0.632812 10.585938 0.105469 9.839844 0 9.6875 L 0 11.496094 C 0.046875 11.539062 0.324219 11.824219 0.371094 11.871094 C 0.792969 12.269531 1.3125 12.6875 1.921875 12.960938 C 2.039062 13.613281 2.609375 14.113281 3.296875 14.113281 C 3.980469 14.113281 4.546875 13.621094 4.671875 12.976562 C 5.324219 12.675781 5.902344 12.183594 6.40625 11.605469 C 7.234375 10.65625 7.925781 9.445312 8.589844 8.257812 C 9.25 7.070312 9.890625 5.90625 10.546875 5.078125 C 10.859375 4.683594 11.164062 4.378906 11.46875 4.175781 C 11.714844 4.46875 12.078125 4.644531 12.488281 4.644531 C 12.933594 4.644531 13.332031 4.433594 13.582031 4.101562 C 14.058594 4.304688 14.546875 4.613281 14.964844 4.941406 C 15.316406 5.21875 15.777344 5.550781 16 5.765625 C 15.992188 5.238281 15.96875 4.753906 15.925781 4.308594 C 15.863281 4.257812 15.71875 4.117188 15.652344 4.066406 C 15.140625 3.664062 14.53125 3.246094 13.863281 2.976562 C 13.730469 2.339844 13.164062 1.859375 12.488281 1.859375 C 11.773438 1.859375 11.183594 2.398438 11.105469 3.089844 Z M 14.078125 13.28125 L 14.078125 14.140625 L 10.101562 14.140625 L 12.257812 11.308594 L 10.101562 8.476562 L 14.078125 8.476562 L 14.078125 9.339844 L 11.835938 9.339844 L 13.339844 11.308594 L 11.835938 13.28125 Z M 14.078125 13.28125 "/>
</g>
</svg>
