
<svg xmlns="http://www.w3.org/2000/svg" xmlns:xlink="http://www.w3.org/1999/xlink" width="16px" height="16px" viewBox="0 0 16 16" version="1.1">
<g id="surface1">
<path style=" stroke:none;fill-rule:evenodd;fill:#ff6666;fill-opacity:1;" d="M -0.03125 12.5 L 15.96875 12.5 L 15.96875 14.5 L -0.03125 14.5 Z M -0.03125 12.5 "/>
<path style=" stroke:none;fill-rule:evenodd;fill:#ff6666;fill-opacity:1;" d="M 3.042969 9.734375 L 1.757812 9.734375 L 0 1.539062 L 1.441406 1.539062 L 2.410156 6.363281 C 2.496094 6.816406 2.542969 7.078125 2.550781 7.148438 C 2.574219 6.976562 2.628906 6.714844 2.714844 6.363281 L 3.921875 1.539062 L 5.113281 1.539062 L 6.34375 6.351562 C 6.421875 6.632812 6.476562 6.894531 6.507812 7.136719 C 6.539062 6.910156 6.585938 6.652344 6.648438 6.363281 L 7.621094 1.539062 L 9.035156 1.539062 L 7.269531 9.734375 L 5.980469 9.734375 L 4.65625 4.664062 C 4.574219 4.363281 4.519531 4.109375 4.496094 3.90625 C 4.472656 4.09375 4.421875 4.34375 4.34375 4.652344 Z M 13.121094 9.875 C 12.371094 9.875 11.726562 9.683594 11.183594 9.304688 C 10.640625 8.929688 10.257812 8.410156 10.03125 7.757812 L 11.328125 7.277344 C 11.5 7.65625 11.746094 7.964844 12.066406 8.195312 C 12.386719 8.425781 12.753906 8.539062 13.167969 8.539062 C 13.597656 8.539062 13.9375 8.441406 14.191406 8.246094 C 14.445312 8.050781 14.570312 7.769531 14.570312 7.402344 C 14.570312 7.257812 14.535156 7.117188 14.46875 6.988281 C 14.394531 6.859375 14.316406 6.753906 14.226562 6.667969 C 14.136719 6.582031 14.003906 6.496094 13.824219 6.410156 C 13.644531 6.324219 13.492188 6.253906 13.367188 6.203125 C 13.242188 6.15625 13.058594 6.089844 12.816406 6.011719 C 12.503906 5.902344 12.265625 5.816406 12.097656 5.753906 C 11.929688 5.691406 11.714844 5.589844 11.453125 5.445312 C 11.191406 5.300781 10.992188 5.152344 10.855469 5.003906 C 10.71875 4.855469 10.597656 4.660156 10.492188 4.414062 C 10.386719 4.167969 10.335938 3.898438 10.335938 3.601562 C 10.335938 2.976562 10.578125 2.453125 11.0625 2.03125 C 11.542969 1.609375 12.199219 1.398438 13.027344 1.398438 C 13.714844 1.398438 14.285156 1.5625 14.734375 1.886719 C 15.1875 2.210938 15.492188 2.632812 15.648438 3.15625 L 14.386719 3.578125 C 14.136719 3.015625 13.652344 2.734375 12.933594 2.734375 C 12.566406 2.734375 12.28125 2.808594 12.074219 2.964844 C 11.867188 3.113281 11.761719 3.332031 11.761719 3.613281 C 11.761719 3.800781 11.84375 3.96875 12.003906 4.113281 C 12.164062 4.261719 12.335938 4.375 12.519531 4.449219 C 12.703125 4.523438 12.972656 4.617188 13.332031 4.734375 C 13.566406 4.820312 13.742188 4.886719 13.863281 4.929688 C 13.984375 4.972656 14.15625 5.042969 14.371094 5.144531 C 14.589844 5.246094 14.761719 5.339844 14.886719 5.421875 C 15.011719 5.503906 15.15625 5.613281 15.316406 5.753906 C 15.476562 5.894531 15.597656 6.039062 15.683594 6.191406 C 15.769531 6.34375 15.84375 6.523438 15.90625 6.730469 C 15.96875 6.9375 16 7.164062 16 7.402344 C 16 8.167969 15.730469 8.773438 15.1875 9.214844 C 14.644531 9.652344 13.957031 9.875 13.121094 9.875 Z M 13.121094 9.875 "/>
</g>
</svg>
