
<svg xmlns="http://www.w3.org/2000/svg" xmlns:xlink="http://www.w3.org/1999/xlink" width="16px" height="16px" viewBox="0 0 16 16" version="1.1">
<g id="surface1">
<path style=" stroke:none;fill-rule:evenodd;fill:#ff6666;fill-opacity:1;" d="M 11.8125 5.414062 C 12.023438 5.414062 12.195312 5.585938 12.195312 5.796875 C 12.195312 6.007812 12.023438 6.179688 11.8125 6.179688 C 11.601562 6.179688 11.433594 6.007812 11.433594 5.796875 C 11.433594 5.585938 11.601562 5.414062 11.8125 5.414062 Z M 10.289062 5.414062 C 10.496094 5.414062 10.667969 5.585938 10.667969 5.796875 C 10.667969 6.007812 10.496094 6.179688 10.289062 6.179688 C 10.078125 6.179688 9.90625 6.007812 9.90625 5.796875 C 9.90625 5.585938 10.078125 5.414062 10.289062 5.414062 Z M 8.761719 5.414062 C 8.972656 5.414062 9.144531 5.585938 9.144531 5.796875 C 9.144531 6.007812 8.972656 6.179688 8.761719 6.179688 C 8.550781 6.179688 8.382812 6.007812 8.382812 5.796875 C 8.382812 5.585938 8.550781 5.414062 8.761719 5.414062 Z M 7.238281 5.414062 C 7.449219 5.414062 7.617188 5.585938 7.617188 5.796875 C 7.617188 6.007812 7.449219 6.179688 7.238281 6.179688 C 7.027344 6.179688 6.855469 6.007812 6.855469 5.796875 C 6.855469 5.585938 7.027344 5.414062 7.238281 5.414062 Z M 5.710938 5.414062 C 5.921875 5.414062 6.09375 5.585938 6.09375 5.796875 C 6.09375 6.007812 5.921875 6.179688 5.710938 6.179688 C 5.5 6.179688 5.332031 6.007812 5.332031 5.796875 C 5.332031 5.585938 5.5 5.414062 5.710938 5.414062 Z M 4.1875 5.414062 C 4.398438 5.414062 4.566406 5.585938 4.566406 5.796875 C 4.566406 6.007812 4.398438 6.179688 4.1875 6.179688 C 3.976562 6.179688 3.804688 6.007812 3.804688 5.796875 C 3.804688 5.585938 3.976562 5.414062 4.1875 5.414062 Z M 6.476562 16 L 6.476562 11.355469 L 4.726562 10.359375 C 4.15625 10.03125 3.804688 9.425781 3.804688 8.769531 C 3.804688 7.761719 4.625 6.941406 5.632812 6.941406 C 6.289062 6.941406 6.898438 7.296875 7.222656 7.863281 L 8 9.222656 L 8.777344 7.863281 C 9.101562 7.292969 9.710938 6.941406 10.363281 6.941406 C 11.375 6.941406 12.191406 7.761719 12.195312 8.769531 C 12.195312 9.425781 11.84375 10.03125 11.273438 10.359375 L 9.523438 11.355469 L 9.523438 16 L 15.027344 14.425781 L 13.757812 11.882812 C 14.042969 11.160156 15.027344 8.3125 14.0625 5.699219 C 13.089844 3.070312 10.351562 1.433594 8.878906 0.554688 C 8.613281 0.394531 8.386719 0.257812 8.210938 0.140625 L 8 0 L 7.785156 0.144531 C 7.609375 0.261719 7.371094 0.40625 7.09375 0.570312 C 5.628906 1.449219 2.902344 3.082031 1.9375 5.699219 C 0.972656 8.3125 1.957031 11.160156 2.242188 11.882812 L 0.972656 14.425781 Z M 8.761719 10.914062 L 10.894531 9.695312 C 11.226562 9.507812 11.429688 9.152344 11.433594 8.769531 C 11.429688 8.183594 10.953125 7.703125 10.363281 7.703125 C 9.984375 7.703125 9.628906 7.910156 9.4375 8.242188 L 8 10.761719 L 6.558594 8.242188 C 6.371094 7.910156 6.015625 7.703125 5.632812 7.703125 C 5.046875 7.703125 4.570312 8.183594 4.566406 8.769531 C 4.566406 9.152344 4.773438 9.507812 5.105469 9.695312 L 7.238281 10.914062 L 7.238281 13.828125 C 7.746094 13.800781 8.253906 13.800781 8.761719 13.828125 Z M 8.761719 10.914062 "/>
</g>
</svg>
