
<svg xmlns="http://www.w3.org/2000/svg" xmlns:xlink="http://www.w3.org/1999/xlink" width="16px" height="16px" viewBox="0 0 16 16" version="1.1">
<g id="surface1">
<path style=" stroke:none;fill-rule:nonzero;fill:#ff6666;fill-opacity:1;" d="M 8 0 C 7.808594 0 7.617188 0.0117188 7.425781 0.0234375 C 7.402344 0.0234375 7.382812 0.0234375 7.359375 0.0273438 C 4.5 0.253906 2.078125 1.96875 0.855469 4.402344 C 0.777344 4.558594 0.695312 4.71875 0.628906 4.878906 C 0.253906 5.726562 0.046875 6.621094 0.0117188 7.5625 C 0.0117188 7.59375 0.0078125 7.625 0.0078125 7.652344 C 0.00390625 7.742188 0 7.832031 0 7.921875 C 0 7.949219 0 7.972656 0 8 C 0 8.929688 0.164062 9.820312 0.453125 10.648438 C 0.570312 11.019531 0.707031 11.394531 0.867188 11.773438 C 1.269531 12.722656 1.320312 12.980469 1.257812 13.769531 C 1.214844 14.324219 1.0625 14.886719 0.875 15.203125 C 0.707031 15.492188 0.570312 15.789062 0.570312 15.863281 C 0.570312 16.097656 1.917969 16.015625 3.113281 15.707031 C 4.511719 15.351562 4.632812 15.351562 5.78125 15.710938 C 6.304688 15.875 6.902344 15.964844 7.578125 15.988281 C 7.605469 15.988281 7.636719 15.992188 7.664062 15.992188 C 7.757812 15.996094 7.847656 16 7.941406 16 C 7.949219 16 7.957031 16 7.960938 16 C 7.976562 16 7.988281 16 8 16 C 8.222656 16 8.445312 15.988281 8.660156 15.96875 C 10.640625 15.828125 12.226562 15.097656 13.65625 13.671875 C 14.835938 12.496094 15.566406 11.042969 15.855469 9.523438 C 15.882812 9.386719 15.902344 9.246094 15.921875 9.101562 C 15.933594 9.015625 15.945312 8.929688 15.953125 8.84375 C 15.972656 8.65625 15.984375 8.46875 15.992188 8.277344 C 15.992188 8.230469 15.996094 8.183594 15.996094 8.132812 C 15.996094 8.089844 16 8.042969 16 8 C 16 3.640625 12.550781 0.121094 8.21875 0.00390625 C 8.1875 0.00390625 8.152344 0.00390625 8.117188 0.00390625 C 8.078125 0.00390625 8.039062 0 8 0 Z M 5.5 4 C 6.328125 4 7 4.671875 7 5.5 C 7 6 7 7 6 7 C 6 8 8.03125 9.945312 9 10 C 9 9 10 9 10.5 9 C 11.328125 9 12 9.671875 12 10.5 C 12 11.328125 11.328125 12 10.5 12 L 9.9375 12 C 9.644531 11.992188 9.296875 11.882812 8.8125 11.707031 C 7.191406 11.113281 6.0625 10.164062 4.90625 8.414062 C 4.234375 7.394531 4.003906 6.78125 4 6.015625 L 4 5.5 C 4 4.671875 4.671875 4 5.5 4 Z M 5.5 4 "/>
</g>
</svg>
