
<svg xmlns="http://www.w3.org/2000/svg" xmlns:xlink="http://www.w3.org/1999/xlink" width="16px" height="16px" viewBox="0 0 16 16" version="1.1">
<g id="surface1">
<path style=" stroke:none;fill-rule:evenodd;fill:#ff6666;fill-opacity:1;" d="M 8.5625 8.191406 C 8.691406 8.066406 8.863281 7.992188 9.042969 7.992188 C 9.226562 7.992188 9.398438 8.066406 9.527344 8.191406 C 9.652344 8.320312 9.726562 8.492188 9.726562 8.671875 C 9.726562 8.855469 9.652344 9.027344 9.527344 9.15625 L 5.890625 12.789062 C 5.765625 12.914062 5.59375 12.988281 5.410156 12.988281 C 5.230469 12.988281 5.058594 12.914062 4.929688 12.789062 C 4.800781 12.660156 4.730469 12.488281 4.730469 12.308594 C 4.730469 12.125 4.800781 11.953125 4.929688 11.824219 Z M 10.464844 0.53125 C 15.308594 0.53125 16 1.222656 16 6.0625 L 16 9.9375 C 16 14.777344 15.308594 15.46875 10.464844 15.46875 L 5.535156 15.46875 C 0.691406 15.46875 0 14.777344 0 9.9375 L 0 6.0625 C 0 1.222656 0.691406 0.53125 5.535156 0.53125 Z M 9.070312 12.789062 C 8.945312 12.914062 8.773438 12.988281 8.589844 12.988281 C 8.40625 12.988281 8.234375 12.914062 8.109375 12.789062 C 7.980469 12.660156 7.910156 12.488281 7.910156 12.308594 C 7.910156 12.125 7.980469 11.953125 8.109375 11.824219 L 11.742188 8.191406 C 11.867188 8.066406 12.042969 7.992188 12.222656 7.992188 C 12.40625 7.992188 12.578125 8.066406 12.703125 8.191406 C 12.832031 8.320312 12.90625 8.492188 12.90625 8.671875 C 12.90625 8.855469 12.832031 9.027344 12.703125 9.15625 Z M 9.070312 12.789062 "/>
</g>
</svg>
