
<svg xmlns="http://www.w3.org/2000/svg" xmlns:xlink="http://www.w3.org/1999/xlink" width="16px" height="16px" viewBox="0 0 16 16" version="1.1">
<g id="surface1">
<path style=" stroke:none;fill-rule:nonzero;fill:#ff6666;fill-opacity:1;" d="M 10.21875 8.054688 C 11.058594 8.746094 11.800781 9.601562 12.289062 10.515625 C 15.042969 6.984375 15.222656 4.074219 12.828125 1.78125 L 11.609375 1.925781 L 13.800781 0.417969 C 17.652344 3.722656 16.136719 8.179688 11.644531 12.132812 C 11.085938 11.128906 10.523438 10.34375 9.960938 9.773438 C 9.980469 11.054688 9.914062 12.230469 10.277344 14.21875 C 10.972656 13.933594 12.003906 13.863281 13.367188 14.003906 C 14.328125 12.585938 15.097656 11.726562 15.671875 11.414062 C 14.914062 13.054688 14.808594 14.230469 15.058594 14.863281 C 14.816406 15.320312 14.398438 15.621094 14.089844 15.835938 L 13.511719 14.972656 C 10.855469 14.957031 8.734375 14.96875 7.152344 15.007812 L 7.1875 14.648438 L 8.519531 14.359375 C 8.105469 12.347656 8.273438 11.25 8.480469 11.054688 C 8.421875 10.726562 8.367188 10.417969 8.320312 10.125 L 6.9375 11.917969 C 3.761719 10.089844 2.21875 7.480469 2.300781 4.082031 C 1.144531 4.117188 0.378906 3.832031 0 3.21875 C 0.796875 3.601562 1.601562 3.519531 2.40625 2.96875 L 3.773438 0.164062 C 5.207031 0.671875 6.25 1.511719 6.898438 2.679688 C 6.324219 3.820312 5.273438 4.359375 3.738281 4.296875 C 3.921875 6.925781 4.855469 9.164062 6.539062 11.019531 L 8.199219 8.507812 C 8.222656 8.042969 8.324219 7.644531 8.535156 7.320312 C 8.296875 5.460938 7.789062 4.488281 7.007812 4.40625 L 6.828125 3.902344 L 11.714844 3.9375 L 11.679688 4.371094 C 10.5 4.15625 10.042969 5.386719 9.953125 7.429688 C 10.089844 7.632812 10.179688 7.839844 10.21875 8.054688 Z M 10.21875 8.054688 "/>
</g>
</svg>
