
<svg xmlns="http://www.w3.org/2000/svg" xmlns:xlink="http://www.w3.org/1999/xlink" width="16px" height="16px" viewBox="0 0 16 16" version="1.1">
<g id="surface1">
<path style=" stroke:none;fill-rule:nonzero;fill:#ff6666;fill-opacity:1;" d="M 8 0.941406 C 5.101562 0.941406 2.207031 2.042969 0 4.25 L 0.800781 5.050781 C 4.78125 1.070312 11.21875 1.070312 15.199219 5.050781 L 16 4.25 C 13.792969 2.042969 10.898438 0.941406 8 0.941406 Z M 8 4.179688 C 5.914062 4.179688 3.828125 4.972656 2.242188 6.5625 L 3.039062 7.363281 C 5.785156 4.617188 10.214844 4.617188 12.960938 7.363281 L 13.757812 6.5625 C 12.171875 4.972656 10.085938 4.179688 8 4.179688 Z M 8 7.4375 C 6.726562 7.4375 5.449219 7.917969 4.480469 8.890625 L 5.28125 9.691406 C 6.789062 8.183594 9.210938 8.183594 10.71875 9.691406 L 11.519531 8.890625 C 10.550781 7.917969 9.273438 7.4375 8 7.4375 Z M 8 10.714844 C 6.800781 10.714844 5.828125 11.6875 5.828125 12.886719 C 5.828125 14.085938 6.800781 15.058594 8 15.058594 C 9.199219 15.058594 10.171875 14.085938 10.171875 12.886719 C 10.171875 11.6875 9.199219 10.714844 8 10.714844 Z M 8 10.714844 "/>
</g>
</svg>
