
<svg xmlns="http://www.w3.org/2000/svg" xmlns:xlink="http://www.w3.org/1999/xlink" width="16px" height="16px" viewBox="0 0 16 16" version="1.1">
<g id="surface1">
<path style=" stroke:none;fill-rule:nonzero;fill:#ff6666;fill-opacity:1;" d="M 5.277344 13.660156 L 5.976562 13.660156 L 8.304688 9.140625 L 10.222656 13.660156 L 10.894531 13.660156 L 14.875 4.496094 C 15.097656 3.984375 15.53125 3.675781 15.996094 3.605469 L 15.996094 3.058594 L 12.777344 3.058594 L 12.777344 3.605469 C 13.203125 3.699219 13.65625 3.859375 13.859375 4.3125 L 10.933594 11.054688 C 10.40625 9.929688 9.863281 8.703125 9.347656 7.476562 C 9.878906 6.34375 10.316406 5.289062 10.972656 4.253906 C 11.355469 3.644531 11.976562 3.628906 12.296875 3.601562 L 12.296875 3.058594 L 8.875 3.058594 L 8.875 3.601562 C 9.300781 3.601562 10.1875 3.640625 9.792969 4.472656 L 8.800781 6.558594 L 7.75 4.238281 C 7.585938 3.875 7.902344 3.636719 8.421875 3.605469 L 8.417969 3.058594 L 4.566406 3.058594 L 4.566406 3.601562 C 5.027344 3.617188 5.671875 3.613281 5.910156 4.003906 C 6.648438 5.355469 7.140625 6.757812 7.808594 8.132812 L 6.074219 11.378906 L 3.160156 4.675781 C 2.828125 3.921875 3.609375 3.675781 4.117188 3.613281 L 4.109375 3.058594 L 0.00390625 3.058594 L 0.00390625 3.601562 C 0.570312 3.789062 1.304688 4.632812 1.507812 5.058594 C 3.042969 8.269531 3.8125 10.417969 5.277344 13.660156 Z M 5.277344 13.660156 "/>
</g>
</svg>
