
<svg xmlns="http://www.w3.org/2000/svg" xmlns:xlink="http://www.w3.org/1999/xlink" width="16px" height="16px" viewBox="0 0 16 16" version="1.1">
<g id="surface1">
<path style=" stroke:none;fill-rule:evenodd;fill:#ff6666;fill-opacity:1;" d="M 11.988281 0.578125 C 12.4375 0.589844 12.8125 0.625 13.132812 0.6875 C 13.179688 0.683594 13.207031 0.6875 13.210938 0.703125 C 15.59375 1.085938 16 2.359375 16 6.0625 L 16 9.9375 C 16 14.777344 15.308594 15.46875 10.464844 15.46875 L 5.535156 15.46875 C 0.691406 15.46875 0 14.777344 0 9.9375 L 0 6.0625 C 0 4.910156 0.0390625 3.992188 0.175781 3.289062 C 0.0585938 3.289062 0.0585938 3.289062 0.0664062 3.289062 C 0.359375 1.542969 1.136719 0.871094 3.0625 0.652344 C 3.183594 0.621094 3.34375 0.605469 3.535156 0.605469 C 3.84375 0.566406 4.210938 0.550781 4.617188 0.539062 C 4.832031 0.539062 5.042969 0.535156 5.269531 0.535156 C 5.355469 0.535156 5.445312 0.53125 5.535156 0.53125 L 5.441406 0.53125 C 5.378906 0.53125 5.320312 0.53125 5.269531 0.535156 C 5.035156 0.535156 4.820312 0.535156 11.988281 0.578125 Z M 10.367188 0.53125 L 10.464844 0.53125 C 10.800781 0.53125 11.113281 0.535156 11.417969 0.542969 C 11.621094 0.550781 11.824219 0.558594 10.367188 0.53125 Z M 1.179688 3.289062 C 1.175781 3.304688 1.171875 3.316406 1.171875 3.328125 C 1.101562 3.710938 1.058594 4.101562 1.039062 4.488281 C 1.011719 5.011719 1 5.53125 1 6.058594 L 1 9.941406 C 1 10.46875 1.011719 10.988281 1.039062 11.511719 C 1.058594 11.898438 1.101562 12.289062 1.171875 12.671875 C 1.210938 12.929688 1.289062 13.171875 1.390625 13.410156 C 1.460938 13.558594 1.550781 13.691406 1.660156 13.808594 C 1.769531 13.921875 1.910156 14.011719 2.058594 14.078125 C 2.289062 14.179688 2.539062 14.25 2.800781 14.300781 C 3.179688 14.371094 3.570312 14.410156 3.960938 14.429688 C 4.480469 14.460938 5.011719 14.46875 5.53125 14.46875 C 5.53125 14.46875 5.53125 14.46875 5.539062 14.46875 L 10.460938 14.46875 C 10.46875 14.46875 10.46875 14.46875 10.46875 14.46875 C 10.988281 14.46875 11.519531 14.460938 12.039062 14.429688 C 12.429688 14.410156 12.820312 14.371094 13.199219 14.300781 C 13.460938 14.25 13.710938 14.179688 13.941406 14.078125 C 14.089844 14.011719 14.230469 13.921875 14.339844 13.808594 C 14.449219 13.691406 14.539062 13.558594 14.609375 13.410156 C 14.710938 13.171875 14.789062 12.929688 14.828125 12.671875 C 14.898438 12.289062 14.941406 11.898438 14.960938 11.511719 C 14.988281 10.988281 15 10.46875 15 9.941406 L 15 6.058594 C 15 5.53125 14.988281 5.011719 14.960938 4.488281 C 14.941406 4.101562 14.898438 3.710938 14.828125 3.328125 C 14.824219 3.292969 14.816406 3.257812 14.808594 3.226562 C 13.816406 3.265625 1.691406 3.316406 1.179688 3.289062 Z M 1.179688 3.289062 "/>
</g>
</svg>
