
<svg xmlns="http://www.w3.org/2000/svg" xmlns:xlink="http://www.w3.org/1999/xlink" width="16px" height="16px" viewBox="0 0 16 16" version="1.1">
<g id="surface1">
<path style=" stroke:none;fill-rule:nonzero;fill:#ff6666;fill-opacity:1;" d="M 12.023438 3.257812 C 12.019531 3.261719 12.019531 3.261719 12.015625 3.261719 C 8.175781 3.324219 5.992188 5.609375 4.863281 7.816406 C 3.925781 9.652344 3.710938 11.179688 3.644531 11.738281 L 0 11.738281 L 0 12.738281 L 4.066406 12.738281 C 4.328125 12.742188 4.546875 12.539062 4.566406 12.277344 C 4.566406 12.277344 4.730469 10.277344 5.753906 8.269531 C 6.695312 6.429688 8.351562 4.703125 11.285156 4.378906 C 9.550781 8.171875 11.421875 12.449219 11.421875 12.449219 C 11.503906 12.625 11.683594 12.738281 11.875 12.738281 L 16 12.738281 L 16 11.738281 L 12.25 11.738281 C 12.0625 11.292969 10.386719 7.25 12.445312 4.027344 C 12.542969 3.875 12.550781 3.679688 12.460938 3.519531 C 12.375 3.359375 12.207031 3.257812 12.023438 3.257812 Z M 12.023438 3.257812 "/>
</g>
</svg>
