
<svg xmlns="http://www.w3.org/2000/svg" xmlns:xlink="http://www.w3.org/1999/xlink" width="16px" height="16px" viewBox="0 0 16 16" version="1.1">
<g id="surface1">
<path style=" stroke:none;fill-rule:nonzero;fill:#ff6666;fill-opacity:1;" d="M 1.777344 1.777344 C 0.792969 1.777344 0 2.570312 0 3.554688 L 8 8 L 16 3.554688 C 16 2.570312 15.207031 1.777344 14.222656 1.777344 Z M 1.777344 2.667969 L 14.222656 2.667969 C 14.558594 2.667969 14.789062 2.867188 14.9375 3.128906 L 8 6.980469 L 1.0625 3.128906 C 1.210938 2.867188 1.441406 2.664062 1.777344 2.664062 Z M 0 4.445312 L 0 12.445312 C 0 13.429688 0.792969 14.222656 1.777344 14.222656 L 14.222656 14.222656 C 15.207031 14.222656 16 13.429688 16 12.445312 L 16 4.445312 L 8 8.890625 Z M 0.890625 5.957031 L 7.566406 9.667969 C 7.835938 9.816406 8.164062 9.816406 8.433594 9.667969 L 15.109375 5.957031 L 15.109375 12.445312 C 15.109375 12.953125 14.730469 13.332031 14.222656 13.332031 L 1.777344 13.332031 C 1.269531 13.332031 0.886719 12.953125 0.886719 12.445312 L 0.886719 5.957031 Z M 0.890625 5.957031 "/>
</g>
</svg>
