
<svg xmlns="http://www.w3.org/2000/svg" xmlns:xlink="http://www.w3.org/1999/xlink" width="16px" height="16px" viewBox="0 0 16 16" version="1.1">
<g id="surface1">
<path style=" stroke:none;fill-rule:nonzero;fill:#ff6666;fill-opacity:1;" d="M 7.941406 0.726562 C 5.570312 0.726562 4.152344 2.210938 4.152344 2.210938 L 6.332031 6.347656 C 6.820312 6.003906 7.402344 5.820312 8 5.816406 C 8.566406 5.820312 9.117188 5.984375 9.589844 6.292969 L 11.742188 2.210938 C 11.742188 2.210938 10.316406 0.726562 7.941406 0.726562 Z M 8 7.273438 C 7.195312 7.273438 6.546875 7.925781 6.546875 8.726562 C 6.546875 9.53125 7.195312 10.183594 8 10.183594 C 8.804688 10.183594 9.453125 9.53125 9.453125 8.726562 C 9.453125 7.925781 8.804688 7.273438 8 7.273438 Z M 10.949219 8.640625 C 10.941406 8.855469 10.90625 9.066406 10.855469 9.28125 C 10.847656 9.3125 10.84375 9.34375 10.835938 9.375 C 10.828125 9.386719 10.828125 9.402344 10.824219 9.417969 C 10.625 10.222656 10.097656 10.902344 9.371094 11.289062 L 12.039062 15.214844 C 12.039062 15.214844 14.089844 14.769531 15.273438 12.796875 C 16.460938 10.820312 15.835938 8.902344 15.835938 8.902344 L 15.835938 8.898438 Z M 5.050781 8.699219 L 0.164062 8.960938 C 0.164062 8.960938 -0.460938 10.886719 0.726562 12.859375 C 1.914062 14.835938 3.957031 15.273438 3.957031 15.273438 L 6.636719 11.339844 C 6.378906 11.183594 6.140625 10.992188 5.929688 10.769531 C 5.890625 10.730469 5.855469 10.6875 5.820312 10.648438 C 5.789062 10.609375 5.753906 10.578125 5.722656 10.539062 C 5.722656 10.535156 5.722656 10.535156 5.722656 10.535156 C 5.648438 10.441406 5.582031 10.34375 5.519531 10.242188 C 5.511719 10.230469 5.503906 10.222656 5.5 10.210938 C 5.484375 10.191406 5.476562 10.167969 5.464844 10.148438 C 5.433594 10.089844 5.398438 10.027344 5.371094 9.964844 C 5.171875 9.558594 5.0625 9.128906 5.050781 8.699219 Z M 5.050781 8.699219 "/>
</g>
</svg>
