
<svg xmlns="http://www.w3.org/2000/svg" xmlns:xlink="http://www.w3.org/1999/xlink" width="16px" height="16px" viewBox="0 0 16 16" version="1.1">
<g id="surface1">
<path style=" stroke:none;fill-rule:nonzero;fill:#ff6666;fill-opacity:1;" d="M 13.503906 0.203125 C 9.65625 -0.078125 6.128906 -0.0703125 2.496094 0.253906 L 2.496094 16 L 8 13.582031 L 13.503906 16 Z M 8 4.1875 C 8.285156 5.046875 8.546875 5.917969 8.820312 6.78125 C 9.679688 6.8125 10.546875 6.820312 11.398438 6.855469 C 10.730469 7.390625 10.042969 7.90625 9.367188 8.429688 C 9.613281 9.296875 9.871094 10.164062 10.109375 11.03125 C 9.402344 10.546875 8.710938 10.027344 8 9.535156 C 7.292969 10.027344 6.601562 10.539062 5.894531 11.03125 L 5.890625 11.019531 C 6.136719 10.15625 6.390625 9.296875 6.632812 8.429688 C 5.957031 7.902344 5.273438 7.386719 4.601562 6.855469 C 5.460938 6.820312 6.320312 6.808594 7.179688 6.78125 C 7.457031 5.917969 7.71875 5.046875 8 4.1875 Z M 8 4.1875 "/>
</g>
</svg>
