
<svg xmlns="http://www.w3.org/2000/svg" xmlns:xlink="http://www.w3.org/1999/xlink" width="16px" height="16px" viewBox="0 0 16 16" version="1.1">
<g id="surface1">
<path style=" stroke:none;fill-rule:nonzero;fill:#ff6666;fill-opacity:1;" d="M 1.738281 0 C 1.539062 0 1.347656 0.078125 1.207031 0.21875 C 1.066406 0.359375 0.988281 0.550781 0.988281 0.75 L 0.988281 14.273438 C 0.988281 14.691406 1.328125 15.023438 1.738281 15.023438 L 7.027344 15.023438 C 7.050781 14.664062 7.175781 14.316406 7.390625 14.023438 L 4.496094 14.023438 C 4.363281 14.023438 4.234375 13.96875 4.140625 13.875 C 4.046875 13.78125 3.992188 13.652344 3.992188 13.519531 L 3.992188 8.511719 C 3.992188 8.234375 4.214844 8.011719 4.496094 8.011719 L 9.171875 8.011719 C 9.363281 7.585938 9.742188 7.273438 10.195312 7.160156 L 10.734375 7.011719 L 4.496094 7.011719 C 4.363281 7.011719 4.234375 6.957031 4.140625 6.863281 C 4.046875 6.769531 3.992188 6.644531 3.992188 6.511719 L 3.992188 1.503906 C 3.992188 1.222656 4.214844 1 4.496094 1 L 11.503906 1 C 11.785156 1 12.007812 1.222656 12.007812 1.503906 L 12.007812 6.511719 C 12.007812 6.570312 11.996094 6.621094 11.976562 6.671875 L 14.289062 6.039062 L 14.28125 6.039062 C 14.480469 5.980469 14.699219 5.96875 14.921875 6.007812 C 14.953125 6.015625 14.980469 6.019531 15.011719 6.03125 L 15.011719 0.75 C 15.011719 0.550781 14.933594 0.359375 14.792969 0.21875 C 14.652344 0.078125 14.460938 0 14.261719 0 Z M 1.992188 1 L 2.992188 1 L 2.992188 2.003906 L 1.992188 2.003906 Z M 13.007812 1 L 14.007812 1 L 14.007812 2.003906 L 13.007812 2.003906 Z M 1.992188 3.003906 L 2.992188 3.003906 L 2.992188 4.007812 L 1.992188 4.007812 Z M 13.007812 3.003906 L 14.007812 3.003906 L 14.007812 4.007812 L 13.007812 4.007812 Z M 1.992188 5.007812 L 2.992188 5.007812 L 2.992188 6.007812 L 1.992188 6.007812 Z M 13.007812 5.007812 L 14.007812 5.007812 L 14.007812 6.007812 L 13.007812 6.007812 Z M 14.730469 6.992188 C 14.671875 6.980469 14.609375 6.984375 14.550781 7 L 10.453125 8.121094 C 10.203125 8.191406 10.003906 8.472656 10.003906 8.753906 L 10.003906 14.023438 C 9.722656 13.976562 9.417969 13.992188 9.132812 14.0625 C 8.328125 14.261719 7.84375 14.839844 8.050781 15.355469 C 8.253906 15.871094 9.070312 16.128906 9.871094 15.933594 C 10.5625 15.765625 11.035156 15.3125 11.003906 14.84375 L 11.003906 9.824219 L 14.007812 9.003906 L 14.007812 13.019531 C 13.730469 12.976562 13.425781 12.992188 13.136719 13.0625 C 12.335938 13.257812 11.851562 13.835938 12.054688 14.351562 C 12.257812 14.871094 13.074219 15.128906 13.878906 14.933594 C 14.546875 14.769531 15.011719 14.335938 15.011719 13.882812 L 15.011719 7.382812 C 15.011719 7.171875 14.902344 7.019531 14.730469 6.992188 Z M 1.992188 7.011719 L 2.992188 7.011719 L 2.992188 8.011719 L 1.992188 8.011719 Z M 1.992188 9.015625 L 2.992188 9.015625 L 2.992188 10.015625 L 1.992188 10.015625 Z M 1.992188 11.015625 L 2.992188 11.015625 L 2.992188 12.019531 L 1.992188 12.019531 Z M 1.992188 13.019531 L 2.992188 13.019531 L 2.992188 14.023438 L 1.992188 14.023438 Z M 1.992188 13.019531 "/>
</g>
</svg>
