
<svg xmlns="http://www.w3.org/2000/svg" xmlns:xlink="http://www.w3.org/1999/xlink" width="16px" height="16px" viewBox="0 0 16 16" version="1.1">
<g id="surface1">
<path style=" stroke:none;fill-rule:evenodd;fill:#ff6666;fill-opacity:1;" d="M 8 0 C 7.28125 0 6.695312 0.582031 6.695312 1.300781 C 6.699219 1.804688 6.988281 2.261719 7.441406 2.476562 L 7.441406 3.234375 L 6.078125 2.324219 C 5.910156 2.210938 5.695312 2.195312 5.515625 2.285156 C 5.335938 2.371094 5.214844 2.550781 5.203125 2.753906 C 5.191406 2.953125 5.289062 3.144531 5.457031 3.253906 L 7.441406 4.578125 L 7.441406 7.03125 L 5.316406 5.804688 L 5.160156 3.425781 C 5.140625 3.117188 4.875 2.886719 4.570312 2.90625 C 4.261719 2.925781 4.027344 3.191406 4.046875 3.496094 L 4.152344 5.132812 L 3.496094 4.753906 C 3.535156 4.253906 3.285156 3.773438 2.851562 3.523438 C 2.550781 3.351562 2.195312 3.304688 1.863281 3.394531 C 1.527344 3.484375 1.242188 3.699219 1.070312 4 C 0.898438 4.300781 0.851562 4.65625 0.941406 4.988281 C 1.03125 5.320312 1.25 5.605469 1.546875 5.777344 C 1.984375 6.03125 2.523438 6.007812 2.9375 5.722656 L 3.59375 6.101562 L 2.125 6.828125 C 1.847656 6.964844 1.734375 7.300781 1.871094 7.574219 C 2.007812 7.851562 2.34375 7.964844 2.621094 7.828125 L 4.757812 6.773438 L 6.882812 8 L 4.761719 9.226562 L 2.621094 8.167969 C 2.445312 8.078125 2.230469 8.09375 2.066406 8.203125 C 1.898438 8.316406 1.804688 8.507812 1.820312 8.703125 C 1.832031 8.902344 1.949219 9.082031 2.128906 9.167969 L 3.597656 9.894531 L 2.9375 10.277344 C 2.523438 9.992188 1.984375 9.96875 1.546875 10.222656 C 1.25 10.394531 1.03125 10.679688 0.941406 11.011719 C 0.851562 11.34375 0.898438 11.699219 1.070312 12 C 1.242188 12.300781 1.527344 12.515625 1.863281 12.605469 C 2.195312 12.695312 2.550781 12.648438 2.851562 12.476562 C 3.285156 12.226562 3.535156 11.746094 3.496094 11.246094 L 4.15625 10.863281 L 4.050781 12.5 C 4.03125 12.808594 4.265625 13.074219 4.570312 13.09375 C 4.878906 13.113281 5.144531 12.878906 5.164062 12.570312 L 5.320312 10.191406 L 7.441406 8.96875 L 7.441406 11.417969 L 5.457031 12.742188 C 5.289062 12.851562 5.191406 13.042969 5.203125 13.242188 C 5.214844 13.445312 5.335938 13.621094 5.515625 13.710938 C 5.695312 13.800781 5.910156 13.785156 6.078125 13.667969 L 7.441406 12.757812 L 7.441406 13.523438 C 6.988281 13.738281 6.699219 14.195312 6.695312 14.699219 C 6.695312 15.417969 7.28125 16 8 16 C 8.71875 16 9.300781 15.417969 9.300781 14.699219 C 9.300781 14.195312 9.011719 13.738281 8.558594 13.523438 L 8.558594 12.757812 L 9.921875 13.667969 C 10.089844 13.785156 10.304688 13.800781 10.484375 13.710938 C 10.664062 13.621094 10.785156 13.445312 10.796875 13.242188 C 10.808594 13.042969 10.710938 12.851562 10.542969 12.742188 L 8.558594 11.417969 L 8.558594 8.96875 L 10.679688 10.191406 L 10.835938 12.570312 C 10.855469 12.878906 11.117188 13.113281 11.425781 13.09375 C 11.734375 13.074219 11.96875 12.808594 11.949219 12.5 L 11.84375 10.863281 L 12.503906 11.246094 C 12.464844 11.746094 12.714844 12.226562 13.148438 12.476562 C 13.773438 12.835938 14.566406 12.621094 14.929688 12 C 15.289062 11.378906 15.074219 10.582031 14.453125 10.222656 C 14.015625 9.96875 13.476562 9.992188 13.0625 10.277344 L 12.402344 9.894531 L 13.871094 9.167969 C 14.050781 9.082031 14.167969 8.902344 14.179688 8.703125 C 14.195312 8.507812 14.097656 8.316406 13.933594 8.203125 C 13.765625 8.09375 13.554688 8.078125 13.375 8.167969 L 11.238281 9.226562 L 9.117188 8 L 11.242188 6.773438 L 13.382812 7.828125 C 13.558594 7.921875 13.777344 7.910156 13.945312 7.800781 C 14.113281 7.691406 14.210938 7.496094 14.195312 7.292969 C 14.179688 7.09375 14.058594 6.914062 13.875 6.828125 L 12.40625 6.101562 L 13.0625 5.722656 C 13.476562 6.007812 14.015625 6.03125 14.453125 5.777344 C 15.074219 5.417969 15.289062 4.621094 14.929688 4 C 14.566406 3.378906 13.773438 3.164062 13.148438 3.523438 C 12.714844 3.773438 12.464844 4.253906 12.503906 4.753906 L 11.847656 5.132812 L 11.953125 3.496094 C 11.972656 3.296875 11.878906 3.097656 11.710938 2.980469 C 11.542969 2.867188 11.324219 2.851562 11.144531 2.945312 C 10.960938 3.035156 10.84375 3.222656 10.839844 3.425781 L 10.683594 5.804688 L 8.558594 7.03125 L 8.558594 4.578125 L 10.542969 3.253906 C 10.710938 3.144531 10.808594 2.953125 10.796875 2.753906 C 10.785156 2.550781 10.664062 2.371094 10.484375 2.285156 C 10.304688 2.195312 10.089844 2.210938 9.921875 2.324219 L 8.558594 3.234375 L 8.558594 2.476562 C 9.011719 2.261719 9.300781 1.804688 9.300781 1.300781 C 9.300781 0.582031 8.71875 0 8 0 Z M 8 0 "/>
</g>
</svg>
