
<svg xmlns="http://www.w3.org/2000/svg" xmlns:xlink="http://www.w3.org/1999/xlink" width="16px" height="16px" viewBox="0 0 16 16" version="1.1">
<g id="surface1">
<path style=" stroke:none;fill-rule:nonzero;fill:#ff6666;fill-opacity:1;" d="M 9.574219 4.332031 L 9.574219 5.996094 L 7.359375 5.996094 C 6.832031 5.996094 6.382812 6.140625 6.054688 6.445312 C 5.722656 6.75 5.566406 7.199219 5.566406 7.730469 L 5.566406 9.929688 C 5.558594 9.996094 5.554688 10.058594 5.554688 10.121094 C 5.554688 10.457031 5.652344 10.769531 5.84375 11.042969 C 6.035156 11.320312 6.308594 11.515625 6.628906 11.601562 C 6.8125 11.652344 7.050781 11.667969 7.367188 11.667969 L 8.515625 11.667969 C 9.085938 11.667969 9.554688 11.539062 9.882812 11.242188 C 10.210938 10.949219 10.367188 10.503906 10.367188 9.972656 L 10.367188 4.332031 Z M 0.0390625 5.996094 L 2.253906 8.84375 L 0 11.667969 L 1.039062 11.667969 L 2.761719 9.488281 L 4.464844 11.667969 L 5.5 11.667969 L 3.269531 8.835938 L 5.457031 5.996094 L 4.425781 5.996094 L 2.761719 8.179688 L 1.070312 5.996094 Z M 11.257812 5.996094 L 11.257812 6.800781 L 14.34375 6.800781 C 14.671875 6.800781 14.878906 6.875 15.003906 7 C 15.128906 7.121094 15.207031 7.316406 15.207031 7.632812 L 15.207031 7.71875 L 12.84375 7.71875 C 12.378906 7.71875 11.972656 7.867188 11.679688 8.167969 C 11.390625 8.457031 11.246094 8.863281 11.246094 9.328125 L 11.246094 10.101562 C 11.246094 10.492188 11.371094 10.847656 11.609375 11.121094 C 11.910156 11.484375 12.355469 11.667969 12.875 11.667969 L 14.433594 11.667969 C 14.910156 11.667969 15.316406 11.523438 15.59375 11.214844 C 15.871094 10.914062 16 10.503906 16 10.023438 L 16 7.691406 C 16 7.164062 15.851562 6.722656 15.527344 6.425781 C 15.207031 6.128906 14.746094 5.996094 14.1875 5.996094 Z M 7.347656 6.808594 L 9.574219 6.808594 L 9.574219 9.953125 C 9.574219 10.25 9.496094 10.441406 9.351562 10.582031 C 9.207031 10.722656 8.972656 10.828125 8.621094 10.867188 L 8.507812 10.867188 C 8.46875 10.875 8.441406 10.875 8.4375 10.875 L 7.359375 10.875 C 6.933594 10.875 6.679688 10.785156 6.558594 10.671875 C 6.449219 10.558594 6.359375 10.308594 6.359375 9.886719 L 6.359375 7.75 C 6.359375 7.363281 6.480469 7.121094 6.757812 6.9375 C 6.871094 6.863281 7.0625 6.808594 7.347656 6.808594 Z M 12.824219 8.515625 L 15.195312 8.515625 L 15.195312 10.101562 C 15.195312 10.402344 15.125 10.582031 15.015625 10.695312 C 14.90625 10.804688 14.734375 10.875 14.441406 10.875 L 12.855469 10.875 C 12.84375 10.875 12.796875 10.871094 12.730469 10.859375 C 12.472656 10.8125 12.308594 10.726562 12.203125 10.605469 C 12.101562 10.488281 12.042969 10.328125 12.042969 10.082031 L 12.042969 9.316406 C 12.042969 9.058594 12.101562 8.890625 12.199219 8.773438 C 12.296875 8.652344 12.449219 8.570312 12.695312 8.53125 C 12.777344 8.519531 12.839844 8.515625 12.824219 8.515625 Z M 12.824219 8.515625 "/>
</g>
</svg>
