
<svg xmlns="http://www.w3.org/2000/svg" xmlns:xlink="http://www.w3.org/1999/xlink" width="16px" height="16px" viewBox="0 0 16 16" version="1.1">
<g id="surface1">
<path style=" stroke:none;fill-rule:evenodd;fill:#ff6666;fill-opacity:1;" d="M 15.226562 12.765625 C 15.226562 12.757812 15.226562 12.75 15.230469 12.738281 C 15.300781 12.339844 15.339844 11.941406 15.359375 11.53125 C 15.390625 11 15.398438 10.46875 15.398438 9.941406 L 15.398438 6.058594 C 15.398438 5.53125 15.390625 5 15.359375 4.46875 C 15.339844 4.058594 15.300781 3.660156 15.230469 3.261719 C 15.179688 2.96875 15.089844 2.691406 14.980469 2.429688 C 14.890625 2.238281 14.769531 2.058594 14.621094 1.910156 C 14.46875 1.761719 14.300781 1.640625 14.101562 1.558594 C 13.839844 1.441406 13.558594 1.359375 13.269531 1.308594 C 12.871094 1.238281 12.46875 1.191406 12.058594 1.171875 C 11.53125 1.140625 11 1.128906 10.46875 1.128906 C 10.46875 1.128906 10.46875 1.128906 10.460938 1.128906 L 5.539062 1.128906 C 5.53125 1.128906 5.53125 1.128906 5.53125 1.128906 C 5 1.128906 4.46875 1.140625 3.941406 1.171875 C 3.53125 1.191406 3.128906 1.238281 2.730469 1.308594 C 2.441406 1.359375 2.160156 1.441406 1.898438 1.558594 C 1.699219 1.640625 1.53125 1.761719 1.378906 1.910156 C 1.230469 2.058594 1.109375 2.238281 1.019531 2.429688 C 0.910156 2.691406 0.820312 2.96875 0.769531 3.261719 C 0.699219 3.660156 0.660156 4.058594 0.640625 4.46875 C 0.609375 5 0.601562 5.53125 0.601562 6.058594 L 0.601562 9.941406 C 0.601562 10.46875 0.609375 11 0.640625 11.53125 C 0.660156 11.941406 0.699219 12.339844 0.769531 12.738281 C 0.773438 12.75 0.773438 12.757812 0.773438 12.765625 Z M 4.574219 13.054688 L 11.425781 13.054688 C 11.6875 13.054688 11.898438 13.265625 11.898438 13.527344 L 11.898438 14.742188 C 11.898438 15.003906 11.6875 15.21875 11.425781 15.21875 L 4.574219 15.21875 C 4.3125 15.21875 4.101562 15.003906 4.101562 14.742188 L 4.101562 13.527344 C 4.101562 13.265625 4.3125 13.054688 4.574219 13.054688 Z M 10.464844 0.53125 C 15.308594 0.53125 16 1.222656 16 6.0625 L 16 9.9375 C 16 14.777344 15.308594 15.46875 10.464844 15.46875 L 5.535156 15.46875 C 0.691406 15.46875 0 14.777344 0 9.9375 L 0 6.0625 C 0 1.222656 0.691406 0.53125 5.535156 0.53125 Z M 5.566406 13.277344 C 6.125 13.277344 6.203125 13.355469 6.203125 13.914062 L 6.203125 14.359375 C 6.203125 14.914062 6.125 14.992188 5.566406 14.992188 L 5 14.992188 C 4.445312 14.992188 4.363281 14.914062 4.363281 14.359375 L 4.363281 13.914062 C 4.363281 13.355469 4.445312 13.277344 5 13.277344 Z M 5.566406 13.277344 "/>
</g>
</svg>
