
<svg xmlns="http://www.w3.org/2000/svg" xmlns:xlink="http://www.w3.org/1999/xlink" width="16px" height="16px" viewBox="0 0 16 16" version="1.1">
<g id="surface1">
<path style=" stroke:none;fill-rule:evenodd;fill:#ff6666;fill-opacity:1;" d="M 3.75 7.148438 C 3.28125 7.152344 2.902344 7.53125 2.902344 8 C 2.902344 8.46875 3.28125 8.851562 3.75 8.851562 C 4.21875 8.851562 4.601562 8.46875 4.601562 8 C 4.601562 7.53125 4.21875 7.148438 3.75 7.148438 Z M 3.75 6.300781 C 4.703125 6.300781 5.449219 7.050781 5.449219 8 C 5.449219 8.949219 4.703125 9.699219 3.75 9.699219 C 2.800781 9.699219 2.050781 8.949219 2.050781 8 C 2.050781 7.050781 2.800781 6.300781 3.75 6.300781 Z M 3.75 5.621094 C 1.710938 5.621094 0.144531 7.695312 0.0742188 7.796875 C -0.0234375 7.933594 -0.0234375 8.066406 0.0742188 8.203125 C 0.144531 8.304688 1.710938 10.378906 3.75 10.378906 C 5.789062 10.378906 7.355469 8.304688 7.425781 8.203125 C 7.527344 8.066406 7.527344 7.933594 7.425781 7.796875 C 7.355469 7.695312 5.789062 5.621094 3.75 5.621094 Z M 12.25 7.148438 C 11.78125 7.152344 11.398438 7.53125 11.398438 8 C 11.398438 8.46875 11.78125 8.851562 12.25 8.851562 C 12.71875 8.851562 13.097656 8.46875 13.097656 8 C 13.097656 7.53125 12.71875 7.148438 12.25 7.148438 Z M 12.25 6.300781 C 13.199219 6.300781 13.949219 7.050781 13.949219 8 C 13.949219 8.949219 13.199219 9.699219 12.25 9.699219 C 11.296875 9.699219 10.550781 8.949219 10.550781 8 C 10.550781 7.050781 11.296875 6.300781 12.25 6.300781 Z M 12.25 5.621094 C 10.210938 5.621094 8.644531 7.695312 8.574219 7.796875 C 8.472656 7.933594 8.472656 8.066406 8.574219 8.203125 C 8.644531 8.304688 10.210938 10.378906 12.25 10.378906 C 14.289062 10.378906 15.855469 8.304688 15.925781 8.203125 C 16.023438 8.066406 16.023438 7.933594 15.925781 7.796875 C 15.855469 7.695312 14.289062 5.621094 12.25 5.621094 Z M 12.25 5.621094 "/>
</g>
</svg>
