
<svg xmlns="http://www.w3.org/2000/svg" xmlns:xlink="http://www.w3.org/1999/xlink" width="16px" height="16px" viewBox="0 0 16 16" version="1.1">
<g id="surface1">
<path style=" stroke:none;fill-rule:nonzero;fill:#ff6666;fill-opacity:1;" d="M 13.324219 1.25 L 7.253906 9.1875 L 10.152344 13.21875 C 9.648438 13.300781 9.128906 13.355469 8.589844 13.355469 C 7.0625 13.355469 5.667969 12.992188 4.53125 12.402344 L 8.773438 6.8125 L 4.75 1.257812 L 1.5 1.257812 L 6.554688 8.320312 L 3.773438 11.960938 C 2.570312 11.117188 1.828125 9.964844 1.828125 8.6875 C 1.828125 7.285156 2.726562 6.027344 4.148438 5.171875 L 3.710938 4.515625 C 1.480469 5.449219 0 7.085938 0 8.953125 C 0 10.597656 1.152344 12.070312 2.953125 13.03125 L 1.648438 14.746094 L 2.753906 14.746094 L 3.765625 13.410156 C 4.996094 13.917969 6.445312 14.214844 8 14.214844 C 8.929688 14.214844 9.820312 14.105469 10.652344 13.910156 L 11.25 14.75 L 14.5 14.75 L 13.207031 12.941406 C 14.914062 11.976562 16 10.546875 16 8.953125 C 16 7.015625 14.40625 5.324219 12.035156 4.410156 L 11.890625 4.617188 C 13.957031 5.414062 15.355469 6.941406 15.355469 8.6875 C 15.355469 10.167969 14.332031 11.472656 12.773438 12.328125 L 9.476562 7.703125 L 14.40625 1.25 Z M 8 3.714844 C 7.609375 3.714844 7.191406 3.742188 6.816406 3.78125 C 7.484375 4.640625 8.039062 5.371094 8.679688 6.203125 C 8.320312 5.4375 7.582031 4.707031 7.835938 4.332031 C 8.089844 3.960938 8.554688 4.023438 8.589844 4.023438 C 9.335938 4.023438 10.054688 4.105469 10.722656 4.257812 L 10.878906 4.046875 C 9.988281 3.816406 9.015625 3.714844 8 3.714844 Z M 8 3.714844 "/>
</g>
</svg>
