
<svg xmlns="http://www.w3.org/2000/svg" xmlns:xlink="http://www.w3.org/1999/xlink" width="16px" height="16px" viewBox="0 0 16 16" version="1.1">
<g id="surface1">
<path style=" stroke:none;fill-rule:nonzero;fill:#ff6666;fill-opacity:1;" d="M 5.726562 0.0078125 C 5.472656 0.0273438 5.378906 0.0664062 5.28125 0.1875 C 5.179688 0.316406 5.09375 0.347656 4.71875 0.382812 C 4.433594 0.410156 4.234375 0.460938 4.15625 0.527344 C 4.011719 0.660156 3.871094 0.976562 3.871094 1.183594 C 3.871094 1.332031 3.886719 1.339844 4.113281 1.300781 C 4.242188 1.28125 4.449219 1.296875 4.574219 1.335938 C 4.753906 1.398438 4.78125 1.425781 4.722656 1.496094 C 4.683594 1.546875 4.539062 1.53125 4.386719 1.53125 C 4.074219 1.53125 4.042969 1.621094 4.257812 1.871094 L 4.398438 2.035156 L 4.640625 1.90625 C 4.914062 1.761719 5.105469 1.796875 5.300781 1.902344 C 5.371094 1.945312 5.703125 1.992188 6.035156 2.011719 C 6.597656 2.042969 6.449219 2.058594 6.585938 2.214844 C 6.671875 2.320312 6.796875 2.464844 6.792969 2.582031 C 6.792969 2.980469 6.515625 3.6875 5.6875 4.671875 C 5.265625 5.171875 5.183594 6.085938 5.183594 6.324219 C 5.183594 6.398438 5.15625 6.476562 5.125 6.496094 C 5.066406 6.53125 5.027344 6.304688 4.96875 5.550781 C 4.914062 4.804688 4.773438 4.386719 4.453125 4.054688 C 4.265625 3.859375 4.089844 3.746094 3.914062 3.699219 C 3.605469 3.617188 3.589844 3.554688 3.839844 3.449219 C 3.9375 3.40625 4.023438 3.351562 4.023438 3.320312 C 4.023438 3.246094 3.742188 3.1875 3.5625 3.222656 C 3.375 3.257812 3.371094 3.222656 3.539062 3.046875 C 3.867188 2.695312 3.308594 2.777344 2.730469 3.164062 C 2.210938 3.507812 1.894531 3.863281 1.847656 4.121094 C 1.816406 4.285156 1.71875 4.425781 1.5 4.628906 C 1.097656 5 1.003906 5.1875 1.058594 5.535156 C 1.132812 6.039062 1.191406 6.082031 1.425781 5.800781 C 1.574219 5.625 1.917969 5.441406 1.980469 5.507812 C 2.042969 5.566406 1.882812 5.785156 1.699219 5.894531 C 1.464844 6.035156 1.46875 6.132812 1.707031 6.214844 C 1.933594 6.296875 1.976562 6.273438 2.105469 6.019531 C 2.253906 5.726562 2.425781 5.558594 2.671875 5.480469 C 2.792969 5.441406 3.019531 5.289062 3.179688 5.144531 C 3.335938 4.996094 3.496094 4.878906 3.53125 4.878906 C 3.65625 4.878906 3.890625 5.167969 3.953125 5.40625 C 3.988281 5.535156 4.046875 6.050781 4.082031 6.554688 C 4.195312 8.101562 4.351562 8.320312 4.914062 9.550781 C 5.097656 9.941406 5.242188 10.304688 5.242188 10.351562 C 5.242188 10.417969 4.769531 10.449219 4.414062 10.480469 C 3.5625 10.554688 3.207031 10.84375 3.144531 11.507812 C 3.125 11.746094 3.144531 11.886719 3.226562 12.042969 C 3.394531 12.363281 3.496094 12.355469 3.453125 12.027344 C 3.414062 11.746094 3.515625 11.566406 3.59375 11.78125 C 3.648438 11.941406 3.863281 12.167969 3.960938 12.167969 C 4.054688 12.167969 4.058594 12.160156 3.980469 11.957031 C 3.914062 11.78125 3.953125 11.765625 4.125 11.894531 C 4.289062 12.015625 4.34375 11.957031 4.300781 11.699219 C 4.234375 11.289062 4.886719 10.9375 5.660156 11.164062 C 6.035156 11.277344 6.140625 11.285156 6.308594 11.226562 C 6.625 11.113281 7.074219 11.140625 7.28125 11.3125 C 7.488281 11.488281 7.320312 11.945312 7.175781 12.15625 C 7.027344 12.367188 6.796875 12.453125 6.21875 12.527344 C 5.925781 12.5625 5.617188 12.632812 5.539062 12.6875 C 5.382812 12.789062 5.253906 13.023438 5.253906 13.210938 C 5.253906 13.371094 5.324219 13.359375 5.484375 13.175781 C 5.558594 13.09375 5.675781 13.023438 5.742188 13.023438 C 5.894531 13.023438 5.894531 13.058594 5.742188 13.253906 C 5.632812 13.390625 5.570312 13.757812 5.65625 13.757812 C 5.675781 13.757812 5.78125 13.660156 5.890625 13.542969 C 6.003906 13.425781 6.152344 13.328125 6.222656 13.328125 C 6.375 13.328125 6.382812 13.378906 6.261719 13.539062 C 6.167969 13.660156 6.132812 14.066406 6.214844 14.0625 C 6.242188 14.0625 6.316406 13.972656 6.386719 13.863281 C 6.5 13.679688 6.644531 13.585938 7.128906 13.382812 C 7.234375 13.335938 7.644531 12.960938 8.035156 12.546875 C 8.734375 11.804688 8.726562 11.789062 8.707031 11.535156 L 8.683594 11.28125 L 9.394531 11.207031 C 10.023438 10.980469 10.355469 10.964844 10.722656 11.152344 C 11.207031 11.40625 11.664062 11.839844 11.597656 12.25 C 11.550781 12.550781 11.382812 13.121094 10.964844 13.164062 C 9.96875 13.144531 8.582031 13.785156 8.738281 14.710938 C 8.867188 15.335938 9.675781 15.75 10.484375 15.933594 C 10.738281 15.992188 11.082031 16.011719 11.507812 15.992188 C 12.582031 15.949219 13.269531 15.894531 13.84375 15.300781 C 14.054688 15.085938 14.324219 14.570312 14.425781 14.316406 L 14.957031 14.609375 L 14.957031 13.210938 L 13.566406 13.820312 L 14.296875 14.238281 C 14.210938 14.3125 14.097656 14.484375 13.96875 14.617188 C 13.402344 15.199219 13.015625 15.199219 12.3125 15.292969 C 11.730469 15.371094 11.097656 15.289062 10.699219 15.113281 C 10.378906 14.972656 10.128906 14.660156 10.128906 14.433594 C 10.128906 14.214844 10.386719 14.015625 10.695312 14.007812 C 11.539062 13.976562 11.699219 13.902344 11.699219 13.902344 C 12.308594 13.714844 12.882812 12.660156 12.882812 11.992188 C 12.882812 11.824219 12.910156 11.617188 12.941406 11.53125 C 12.988281 11.402344 12.960938 11.292969 12.789062 10.933594 C 12.648438 10.636719 12.59375 10.585938 12.617188 10.484375 C 12.648438 10.363281 12.589844 10.273438 12.296875 9.976562 C 11.976562 9.652344 11.945312 9.5 12.011719 9.390625 C 12.054688 9.324219 12.089844 9.257812 12.089844 9.242188 C 12.089844 9.222656 11.929688 9.128906 11.734375 9.03125 C 11.542969 8.933594 11.316406 8.800781 11.234375 8.734375 C 11.105469 8.628906 11.09375 8.597656 11.167969 8.511719 C 11.210938 8.453125 11.234375 8.394531 11.214844 8.375 C 11.195312 8.355469 10.964844 8.300781 10.703125 8.25 C 10.113281 8.136719 10.023438 8.089844 10 7.878906 C 9.988281 7.785156 9.957031 7.710938 9.933594 7.714844 C 9.90625 7.71875 9.613281 7.769531 9.28125 7.832031 C 8.628906 7.949219 8.480469 7.933594 8.480469 7.742188 C 8.480469 7.585938 8.484375 7.582031 8.074219 7.800781 C 7.410156 8.15625 6.867188 7.9375 7.035156 7.378906 C 7.078125 7.238281 7.191406 7.007812 7.289062 6.863281 C 7.679688 6.300781 8.421875 6.117188 9.78125 6.054688 C 10.542969 6.019531 10.886719 5.988281 11.109375 5.886719 C 11.460938 5.726562 12.269531 5.167969 12.417969 4.886719 C 12.484375 4.769531 12.554688 4.671875 12.582031 4.671875 C 12.710938 4.671875 12.875 4.410156 12.875 4.207031 C 12.875 3.929688 13 3.949219 13.074219 4.238281 C 13.148438 4.523438 13.273438 4.382812 13.265625 4.023438 C 13.257812 3.722656 13.304688 3.6875 13.441406 3.890625 C 13.589844 4.109375 13.636719 3.964844 13.554688 3.550781 C 13.472656 3.15625 12.941406 2.1875 12.722656 1.910156 C 12.652344 1.820312 12.101562 1.734375 12.007812 1.714844 C 11.878906 1.6875 11.710938 1.578125 11.523438 1.273438 C 11.386719 1.039062 11.203125 0.824219 11.105469 0.773438 C 10.945312 0.691406 10.902344 0.691406 10.660156 0.785156 C 10.367188 0.894531 10.34375 0.941406 10.492188 1.066406 C 10.617188 1.167969 10.820312 1.632812 10.820312 1.808594 C 10.820312 1.933594 10.820312 1.933594 10.695312 1.820312 C 10.625 1.757812 10.429688 1.609375 10.378906 1.488281 C 10.289062 1.28125 10.28125 1.277344 10.199219 1.394531 C 10.046875 1.601562 10.089844 1.890625 10.296875 2.039062 C 10.5 2.183594 10.683594 2.503906 10.753906 2.835938 C 10.777344 2.953125 10.847656 3.132812 10.914062 3.238281 C 11.152344 3.632812 11.105469 4.550781 10.738281 4.726562 C 10.609375 4.785156 10.199219 4.84375 9.566406 4.882812 C 8.109375 4.972656 7.445312 5.160156 6.746094 5.847656 C 6.414062 6.175781 6.390625 6.1875 6.429688 6.023438 C 6.496094 5.753906 6.523438 5.398438 7.125 4.609375 C 7.902344 3.59375 8 3.351562 8 2.621094 C 7.996094 2.003906 7.714844 1.292969 7.054688 0.761719 C 6.921875 0.664062 6.824219 0.566406 6.84375 0.535156 C 6.859375 0.507812 6.984375 0.480469 7.121094 0.480469 C 7.40625 0.480469 7.414062 0.386719 7.136719 0.226562 C 6.90625 0.0898438 6.140625 -0.0273438 5.726562 0.0078125 Z M 5.726562 0.0078125 "/>
</g>
</svg>
