
<svg xmlns="http://www.w3.org/2000/svg" xmlns:xlink="http://www.w3.org/1999/xlink" width="16px" height="16px" viewBox="0 0 16 16" version="1.1">
<g id="surface1">
<path style=" stroke:none;fill-rule:nonzero;fill:#ff6666;fill-opacity:1;" d="M 4.75 3.332031 C 4.710938 3.332031 4.671875 3.335938 4.628906 3.339844 C 4.453125 3.347656 1.179688 3.960938 0.96875 4.023438 C 0.75 4.085938 0.5625 4.222656 0.515625 4.351562 C 0.4375 4.566406 0.664062 5.273438 0.964844 5.75 C 2.160156 7.167969 3.484375 7.53125 4.785156 8.292969 C 4.933594 8.46875 4.992188 8.554688 3.847656 9.0625 C 2.058594 9.851562 1.480469 10.527344 1.136719 11.523438 C 1.039062 11.816406 0.988281 12.597656 1.0625 12.792969 C 1.152344 13.046875 1.210938 13.097656 2.9375 12.769531 C 4.675781 12.441406 4.53125 12.421875 4.675781 12.285156 C 4.792969 12.171875 4.800781 12.144531 4.851562 11.617188 C 4.882812 11.3125 4.945312 10.722656 4.988281 10.566406 C 5.09375 10.203125 5.355469 9.820312 5.640625 9.621094 C 6.722656 8.859375 8.761719 9.238281 9.867188 10.40625 C 10.28125 10.847656 10.542969 11.476562 10.75 12.160156 C 10.871094 12.554688 10.992188 12.726562 11.183594 12.765625 C 11.355469 12.800781 11.359375 12.746094 13.570312 12.324219 C 14.800781 12.09375 15.3125 11.980469 15.382812 11.921875 C 15.539062 11.800781 15.539062 11.503906 15.382812 11.015625 C 15.117188 10.175781 14.65625 9.617188 13.804688 8.96875 C 13.382812 8.648438 12.847656 8.347656 11.945312 7.914062 C 11.085938 7.503906 10.679688 7.394531 10.679688 7.265625 C 10.679688 7.160156 11.015625 7.113281 11.695312 6.910156 C 13.1875 6.460938 13.910156 5.835938 13.910156 4.675781 C 13.910156 4.167969 13.8125 3.753906 13.664062 3.621094 C 13.464844 3.445312 13.117188 3.441406 12.28125 3.59375 C 9.605469 4.074219 9.789062 4.058594 9.667969 4.257812 C 9.601562 4.363281 9.601562 4.390625 9.722656 4.875 C 9.792969 5.152344 9.847656 5.5 9.847656 5.578125 C 9.847656 5.75 9.625 6.035156 9.515625 6.136719 C 9.25 6.386719 8.648438 6.558594 8.027344 6.558594 C 7.28125 6.558594 6.71875 6.300781 6.15625 5.703125 C 5.753906 5.273438 5.546875 4.855469 5.273438 4.089844 C 5.03125 3.417969 4.996094 3.328125 4.746094 3.332031 Z M 4.75 3.332031 "/>
</g>
</svg>
