
<svg xmlns="http://www.w3.org/2000/svg" xmlns:xlink="http://www.w3.org/1999/xlink" width="16px" height="16px" viewBox="0 0 16 16" version="1.1">
<g id="surface1">
<path style=" stroke:none;fill-rule:evenodd;fill:#ff6666;fill-opacity:1;" d="M 10.703125 2 L 8.351562 4.84375 C 7.058594 6.402344 5.996094 7.714844 5.996094 7.753906 C 5.996094 7.789062 7.105469 9.210938 8.457031 10.910156 L 10.914062 14 L 13.488281 14 C 15.539062 14 16.050781 13.980469 15.996094 13.90625 C 15.855469 13.722656 11.308594 7.996094 11.207031 7.875 C 11.109375 7.765625 11.316406 7.488281 13.375 5.003906 C 14.625 3.492188 15.695312 2.199219 15.75 2.128906 C 15.84375 2.007812 15.714844 2 13.277344 2 Z M 0.664062 2 C 0.664062 2 5.015625 7.746094 4.929688 7.726562 C 4.9375 7.757812 3.929688 9.054688 2.691406 10.613281 C 1.449219 12.171875 0.335938 13.570312 0.214844 13.722656 L 0 14 L 5.15625 14 L 6.363281 12.488281 C 7.203125 11.4375 7.550781 10.949219 7.503906 10.886719 C 7.46875 10.839844 6.894531 10.109375 6.226562 9.273438 L 5.015625 7.75 L 6.28125 6.21875 C 6.980469 5.378906 7.546875 4.6875 7.535156 4.679688 Z M 0.664062 2 "/>
</g>
</svg>
