
<svg xmlns="http://www.w3.org/2000/svg" xmlns:xlink="http://www.w3.org/1999/xlink" width="16px" height="16px" viewBox="0 0 16 16" version="1.1">
<g id="surface1">
<path style=" stroke:none;fill-rule:nonzero;fill:#ff6666;fill-opacity:1;" d="M 6.863281 15.214844 C 6.546875 15.152344 5.851562 14.890625 5.320312 14.632812 C 4.484375 14.222656 4.066406 13.871094 2.210938 12.023438 C 0.804688 10.625 0.0507812 9.777344 0.0195312 9.566406 C -0.0742188 8.945312 0.175781 8.476562 1.097656 7.546875 L 2.023438 6.613281 L 1.226562 5.785156 C 0.46875 4.992188 0.359375 4.765625 0.425781 4.097656 C 0.464844 3.738281 1.03125 3.171875 1.433594 3.09375 C 1.953125 2.996094 2.359375 3.210938 3.195312 4.03125 L 3.96875 4.785156 L 4.820312 4.066406 L 4.550781 3.019531 C 4.246094 1.820312 4.296875 1.457031 4.828125 1.007812 C 5.730469 0.25 6.683594 0.789062 7.089844 2.28125 L 7.328125 3.167969 L 8.578125 3.167969 L 8.886719 2.28125 C 9.417969 0.765625 10.335938 0.269531 11.21875 1.011719 C 11.769531 1.476562 11.816406 1.878906 11.4375 2.992188 C 11.257812 3.519531 11.125 3.957031 11.144531 3.964844 C 11.160156 3.976562 11.371094 4.140625 11.609375 4.332031 L 12.042969 4.6875 L 12.832031 3.929688 C 13.667969 3.128906 14.113281 2.929688 14.628906 3.125 C 15.191406 3.339844 15.484375 3.769531 15.484375 4.390625 C 15.484375 4.910156 15.417969 5.027344 14.722656 5.75 L 13.957031 6.539062 L 14.976562 7.585938 C 15.96875 8.601562 16 8.652344 16 9.257812 L 16 9.882812 L 13.84375 12.019531 C 11.988281 13.859375 11.554688 14.21875 10.722656 14.625 C 9.328125 15.308594 8.222656 15.480469 6.863281 15.214844 Z M 10.386719 12.863281 C 12.269531 11.9375 13.011719 9.207031 11.945312 7.125 C 10.59375 4.488281 6.90625 3.953125 4.871094 6.097656 L 4.355469 6.636719 L 4.976562 6.171875 C 6.5625 4.980469 8.644531 5.097656 10.046875 6.457031 C 11.730469 8.089844 11.316406 10.808594 9.246094 11.765625 C 7.082031 12.765625 4.703125 10.546875 5.707031 8.472656 C 6.253906 7.34375 7.683594 6.828125 8.601562 7.429688 C 8.796875 7.558594 8.910156 7.59375 8.859375 7.507812 C 8.566406 7.035156 7.03125 6.832031 6.367188 7.175781 C 5.847656 7.445312 5.117188 8.300781 4.933594 8.855469 C 4.847656 9.121094 4.800781 9.671875 4.832031 10.085938 C 5.007812 12.546875 7.984375 14.035156 10.386719 12.863281 Z M 10.386719 12.863281 "/>
</g>
</svg>
