
<svg xmlns="http://www.w3.org/2000/svg" xmlns:xlink="http://www.w3.org/1999/xlink" width="16px" height="16px" viewBox="0 0 16 16" version="1.1">
<g id="surface1">
<path style=" stroke:none;fill-rule:evenodd;fill:#ff6666;fill-opacity:1;" d="M 5.558594 7.953125 L 4.320312 8.632812 L 5.910156 6.832031 C 5.429688 6.871094 4.644531 7.039062 3.707031 7.402344 L 9.863281 3.707031 L 10.183594 3.902344 C 10.554688 3.796875 10.886719 3.726562 11.1875 3.710938 L 11.183594 3.710938 C 11.683594 3.683594 11.976562 3.988281 12.324219 4.324219 C 10.113281 4.445312 10.054688 5.40625 10.082031 5.660156 C 10.765625 5.664062 11.726562 5.675781 12.015625 5.863281 C 9.152344 6.714844 9.195312 8.445312 9.246094 8.714844 C 9.433594 10.839844 10.996094 11.152344 12.941406 11.136719 C 12.992188 11.136719 13.039062 11.140625 13.078125 11.148438 C 14.140625 9.90625 14.769531 8.292969 14.769531 6.605469 C 14.769531 4.085938 13.5 1.898438 11.382812 0.746094 L 11.464844 0.664062 C 14.148438 1.910156 16 4.5625 16 7.640625 C 16 11.914062 12.417969 15.382812 8 15.382812 C 3.582031 15.382812 0 11.914062 0 7.640625 C 0 4.523438 1.898438 1.847656 4.632812 0.617188 C 4.648438 0.648438 4.671875 0.683594 4.683594 0.714844 C 2.53125 1.851562 1.230469 4.058594 1.230469 6.605469 C 1.230469 8.378906 1.925781 10.070312 3.078125 11.335938 C 3.101562 11.378906 5.1875 9.875 5.558594 7.953125 Z M 9.339844 4.460938 C 9.480469 4.515625 9.5 4.601562 9.523438 4.695312 C 9.277344 4.742188 8.929688 4.855469 8.835938 4.726562 C 8.789062 4.683594 9.09375 4.523438 9.34375 4.460938 Z M 9.339844 4.460938 "/>
</g>
</svg>
