
<svg xmlns="http://www.w3.org/2000/svg" xmlns:xlink="http://www.w3.org/1999/xlink" width="16px" height="16px" viewBox="0 0 16 16" version="1.1">
<g id="surface1">
<path style=" stroke:none;fill-rule:nonzero;fill:#ff6666;fill-opacity:1;" d="M 9.105469 2.277344 C 8.980469 2.289062 8.882812 2.394531 8.875 2.523438 L 8.875 2.550781 L 8.351562 10.914062 L 7.691406 6.210938 C 7.679688 6.078125 7.574219 5.976562 7.441406 5.972656 C 7.308594 5.96875 7.195312 6.066406 7.179688 6.199219 L 6.683594 8.882812 L 6.375 7.941406 C 6.339844 7.828125 6.226562 7.753906 6.109375 7.761719 C 5.988281 7.773438 5.890625 7.863281 5.875 7.984375 L 5.398438 11.203125 L 4.433594 4.703125 C 4.414062 4.582031 4.308594 4.492188 4.183594 4.492188 C 4.058594 4.488281 3.953125 4.578125 3.929688 4.699219 L 3.285156 8.4375 L 0 8.4375 L 0 8.957031 L 3.5 8.957031 C 3.625 8.957031 3.734375 8.867188 3.757812 8.742188 L 4.160156 6.367188 L 5.144531 12.992188 C 5.164062 13.113281 5.273438 13.203125 5.394531 13.203125 C 5.519531 13.203125 5.625 13.113281 5.648438 12.992188 L 6.226562 9.132812 L 6.511719 10.003906 C 6.550781 10.113281 6.65625 10.183594 6.769531 10.175781 C 6.882812 10.167969 6.980469 10.085938 7.007812 9.976562 L 7.398438 7.84375 L 8.195312 13.5 C 8.214844 13.632812 8.328125 13.726562 8.464844 13.722656 C 8.597656 13.714844 8.703125 13.609375 8.707031 13.476562 L 8.707031 13.425781 L 9.132812 6.640625 L 9.230469 8.214844 C 9.242188 8.339844 9.34375 8.4375 9.46875 8.449219 C 9.59375 8.460938 9.707031 8.375 9.738281 8.253906 L 10.203125 6.21875 L 10.71875 9.914062 C 10.738281 10.039062 10.84375 10.128906 10.964844 10.136719 C 11.089844 10.140625 11.199219 10.054688 11.226562 9.929688 L 11.558594 8.4375 L 11.59375 8.730469 C 11.609375 8.859375 11.722656 8.957031 11.851562 8.953125 L 16 8.953125 L 16 8.4375 L 12.078125 8.4375 L 11.882812 6.914062 C 11.863281 6.789062 11.757812 6.699219 11.632812 6.695312 C 11.511719 6.691406 11.402344 6.777344 11.375 6.898438 L 11.03125 8.4375 L 10.519531 4.765625 C 10.503906 4.640625 10.398438 4.546875 10.273438 4.542969 C 10.148438 4.535156 10.039062 4.621094 10.011719 4.742188 L 9.632812 6.410156 L 9.386719 2.550781 L 9.386719 2.523438 C 9.382812 2.453125 9.351562 2.386719 9.300781 2.339844 C 9.246094 2.296875 9.175781 2.273438 9.105469 2.28125 Z M 9.105469 2.277344 "/>
</g>
</svg>
