
<svg xmlns="http://www.w3.org/2000/svg" xmlns:xlink="http://www.w3.org/1999/xlink" width="16px" height="16px" viewBox="0 0 16 16" version="1.1">
<g id="surface1">
<path style=" stroke:none;fill-rule:nonzero;fill:#ff6666;fill-opacity:1;" d="M 14.589844 0.0078125 C 14.519531 0.0234375 14.453125 0.0585938 14.40625 0.109375 L 7.628906 6.871094 C 7.488281 7.007812 7.488281 7.230469 7.628906 7.371094 L 8.660156 8.402344 C 8.726562 8.46875 8.816406 8.503906 8.910156 8.503906 C 9.003906 8.503906 9.09375 8.464844 9.160156 8.398438 L 15.898438 1.609375 C 16.035156 1.472656 16.035156 1.25 15.894531 1.113281 L 14.902344 0.109375 C 14.835938 0.046875 14.746094 0.0078125 14.652344 0.0078125 C 14.632812 0.00390625 14.609375 0.00390625 14.589844 0.0078125 Z M 6.722656 7.402344 C 6.632812 7.398438 6.546875 7.429688 6.480469 7.488281 L 2.597656 10.789062 C 2.523438 10.855469 2.480469 10.945312 2.472656 11.046875 C 2.46875 11.144531 2.507812 11.238281 2.578125 11.308594 L 2.6875 11.417969 C 2.03125 12.085938 0.0273438 14.234375 0.0078125 15.636719 L 0 15.996094 L 0.359375 15.996094 C 1.804688 15.996094 3.921875 13.984375 4.585938 13.320312 L 4.691406 13.425781 C 4.757812 13.492188 4.847656 13.527344 4.941406 13.527344 L 4.957031 13.527344 C 5.058594 13.523438 5.148438 13.476562 5.214844 13.402344 L 8.476562 9.476562 C 8.59375 9.335938 8.582031 9.128906 8.453125 9.003906 L 6.957031 7.507812 C 6.894531 7.441406 6.8125 7.40625 6.722656 7.402344 Z M 3.179688 11.914062 L 4.09375 12.824219 C 3.328125 13.574219 1.839844 14.882812 0.796875 15.214844 C 1.140625 14.1875 2.4375 12.6875 3.179688 11.914062 Z M 3.179688 11.914062 "/>
</g>
</svg>
