
<svg xmlns="http://www.w3.org/2000/svg" xmlns:xlink="http://www.w3.org/1999/xlink" width="16px" height="16px" viewBox="0 0 16 16" version="1.1">
<g id="surface1">
<path style=" stroke:none;fill-rule:evenodd;fill:#ff6666;fill-opacity:1;" d="M 2.667969 1.863281 L 13.332031 1.863281 L 13.332031 3.433594 L 8 6.054688 L 2.667969 3.433594 Z M 2.0625 0.71875 L 13.9375 0.71875 C 14.234375 0.71875 14.476562 0.960938 14.476562 1.261719 L 14.476562 8.941406 C 14.476562 9.238281 14.234375 9.480469 13.9375 9.480469 L 2.0625 9.480469 C 1.765625 9.480469 1.523438 9.238281 1.523438 8.941406 L 1.523438 1.261719 C 1.523438 0.960938 1.765625 0.71875 2.0625 0.71875 Z M 2.441406 11.1875 C 2.304688 11.445312 1.792969 12.28125 1.464844 12.816406 C 1.136719 12.269531 0.742188 11.636719 0.488281 11.1875 C 0.285156 11.230469 0.203125 11.230469 0 11.1875 L 0.00390625 11.1875 C 0 11.1875 0 11.1875 0 11.1875 C 0.398438 11.789062 1.042969 12.9375 1.261719 13.316406 L 1.230469 14.886719 C 1.230469 14.886719 1.371094 14.863281 1.464844 14.863281 C 1.570312 14.863281 1.699219 14.886719 1.699219 14.886719 L 1.671875 13.316406 C 2.078125 12.601562 2.746094 11.4375 2.933594 11.1875 C 2.757812 11.226562 2.601562 11.226562 2.441406 11.1875 Z M 15.742188 11.222656 C 15.628906 11.222656 15.511719 11.292969 15.511719 11.46875 C 15.441406 12.351562 15.367188 13.234375 15.25 14.078125 L 15.253906 14.078125 C 15.324219 14.066406 15.378906 14.085938 15.433594 14.105469 C 15.566406 13.25 15.886719 11.96875 15.972656 11.609375 C 15.980469 11.558594 16 11.496094 16 11.453125 C 16 11.324219 15.917969 11.25 15.796875 11.230469 C 15.796875 11.230469 15.765625 11.222656 15.742188 11.222656 Z M 13.09375 11.542969 C 13.867188 11.542969 14.4375 12.011719 14.4375 13.050781 C 14.4375 14.179688 13.746094 14.546875 13.09375 14.546875 C 12.394531 14.546875 11.757812 14.136719 11.757812 13.027344 C 11.757812 11.882812 12.464844 11.542969 13.09375 11.542969 Z M 5.253906 11.578125 C 5.296875 12.554688 5.292969 13.53125 5.253906 14.507812 C 5.414062 14.46875 5.574219 14.46875 5.742188 14.507812 C 5.71875 14.050781 5.707031 13.597656 5.707031 13.144531 C 6.25 13.136719 6.796875 13.136719 7.34375 13.144531 C 7.339844 13.597656 7.328125 14.050781 7.304688 14.507812 L 7.308594 14.507812 L 7.304688 14.507812 C 7.472656 14.46875 7.636719 14.46875 7.792969 14.507812 C 7.753906 13.53125 7.75 12.554688 7.792969 11.578125 C 7.628906 11.617188 7.464844 11.613281 7.304688 11.578125 C 7.328125 12.03125 7.339844 12.488281 7.34375 12.945312 C 6.796875 12.957031 6.25 12.957031 5.707031 12.945312 C 5.707031 12.488281 5.71875 12.03125 5.742188 11.578125 C 5.582031 11.613281 5.421875 11.617188 5.253906 11.578125 Z M 9.488281 11.714844 C 9.496094 11.714844 9.507812 11.714844 9.515625 11.714844 C 10.148438 11.714844 10.613281 12.144531 10.613281 13.046875 C 10.613281 13.949219 10.148438 14.378906 9.515625 14.378906 C 8.828125 14.378906 8.421875 13.886719 8.421875 13.050781 C 8.421875 12.105469 8.921875 11.726562 9.488281 11.714844 Z M 3.652344 12.082031 C 3.8125 12.53125 3.992188 12.988281 4.171875 13.441406 C 3.824219 13.453125 3.480469 13.453125 3.132812 13.441406 C 3.34375 12.90625 3.546875 12.386719 3.652344 12.082031 Z M 15.234375 14.429688 C 15.082031 14.429688 15.003906 14.546875 15.003906 14.675781 C 15.003906 14.824219 15.121094 14.898438 15.269531 14.898438 C 15.375 14.898438 15.492188 14.835938 15.492188 14.660156 C 15.492188 14.519531 15.382812 14.429688 15.234375 14.429688 Z M 13.089844 11.359375 C 12.058594 11.359375 11.269531 11.945312 11.269531 13.035156 C 11.269531 13.933594 11.796875 14.722656 13.097656 14.722656 C 14.203125 14.722656 14.925781 14.117188 14.925781 13.050781 C 14.925781 12.046875 14.253906 11.359375 13.089844 11.359375 Z M 9.515625 11.535156 C 8.476562 11.535156 7.933594 12.195312 7.933594 13.046875 C 7.933594 13.976562 8.527344 14.546875 9.511719 14.546875 C 10.578125 14.546875 11.097656 13.90625 11.097656 13.054688 C 11.097656 12.105469 10.476562 11.535156 9.515625 11.535156 Z M 3.480469 11.574219 C 3.089844 12.5625 2.636719 13.675781 2.226562 14.507812 L 2.230469 14.507812 C 2.226562 14.507812 2.226562 14.507812 2.226562 14.507812 L 2.230469 14.507812 C 2.414062 14.460938 2.59375 14.472656 2.710938 14.507812 C 2.710938 14.507812 2.710938 14.507812 2.710938 14.503906 L 2.710938 14.507812 C 2.816406 14.242188 2.933594 13.945312 3.050781 13.648438 C 3.453125 13.636719 3.851562 13.632812 4.253906 13.648438 C 4.367188 13.933594 4.480469 14.21875 4.589844 14.507812 C 4.59375 14.507812 4.59375 14.507812 4.59375 14.507812 C 4.769531 14.460938 4.949219 14.472656 5.078125 14.507812 C 4.785156 13.957031 4.195312 12.523438 3.820312 11.574219 L 3.820312 11.578125 L 3.820312 11.574219 C 3.699219 11.617188 3.601562 11.617188 3.480469 11.574219 Z M 3.480469 11.574219 "/>
</g>
</svg>
