
<svg xmlns="http://www.w3.org/2000/svg" xmlns:xlink="http://www.w3.org/1999/xlink" width="16px" height="16px" viewBox="0 0 16 16" version="1.1">
<g id="surface1">
<path style=" stroke:none;fill-rule:nonzero;fill:#ff6666;fill-opacity:1;" d="M 7.15625 9.011719 L 3.09375 1.9375 L 5.253906 1.9375 L 8.097656 6.898438 L 10.945312 1.9375 L 13.105469 1.9375 L 9.027344 8.996094 L 9.027344 14.375 L 7.15625 14.375 Z M 7.15625 9.011719 "/>
<path style=" stroke:none;fill-rule:evenodd;fill:#ff6666;fill-opacity:1;" d="M 8 0 C 3.71875 0 0.203125 3.339844 0.203125 7.472656 C 0.203125 9.675781 1.222656 11.632812 2.800781 12.996094 L 2.800781 16 L 5.6875 14.558594 C 6.417969 14.777344 7.183594 14.945312 8 14.945312 C 12.28125 14.945312 15.796875 11.605469 15.796875 7.472656 C 15.796875 3.339844 12.28125 0 8 0 Z M 8 1.300781 C 11.613281 1.300781 14.496094 4.070312 14.496094 7.472656 C 14.496094 10.871094 11.613281 13.644531 8 13.644531 C 7.222656 13.644531 6.480469 13.496094 5.785156 13.257812 L 5.523438 13.179688 L 4.101562 13.886719 L 4.101562 12.425781 L 3.859375 12.222656 C 2.414062 11.085938 1.503906 9.382812 1.503906 7.472656 C 1.503906 4.070312 4.386719 1.300781 8 1.300781 Z M 8 1.300781 "/>
</g>
</svg>
