
<svg xmlns="http://www.w3.org/2000/svg" xmlns:xlink="http://www.w3.org/1999/xlink" width="16px" height="16px" viewBox="0 0 16 16" version="1.1">
<g id="surface1">
<path style=" stroke:none;fill-rule:evenodd;fill:#ff6666;fill-opacity:1;" d="M 4.6875 12.570312 C 2.234375 12.554688 0.40625 11.898438 0.0585938 10.730469 C -0.472656 8.941406 2.65625 6.632812 7.039062 5.570312 C 11.425781 4.511719 15.410156 5.097656 15.941406 6.882812 C 16.308594 8.125 14.957031 9.597656 12.59375 10.75 C 12.769531 8.394531 9.332031 8.972656 8 9.296875 C 6.488281 9.664062 3.640625 10.59375 4.6875 12.570312 Z M 4.816406 12.121094 C 4.617188 11.207031 6.121094 10.0625 8.171875 9.570312 C 10.222656 9.078125 12.050781 9.417969 12.25 10.332031 C 12.449219 11.242188 10.945312 12.386719 8.894531 12.878906 C 6.84375 13.375 5.015625 13.035156 4.816406 12.121094 Z M 3.421875 6.515625 C 3.964844 4.503906 4.960938 3.339844 6.375 2.984375 C 8.171875 2.59375 9.613281 3.195312 10.671875 4.75 C 8.199219 4.523438 5.792969 5.121094 3.421875 6.515625 Z M 3.421875 6.515625 "/>
</g>
</svg>
