
<svg xmlns="http://www.w3.org/2000/svg" xmlns:xlink="http://www.w3.org/1999/xlink" width="16px" height="16px" viewBox="0 0 16 16" version="1.1">
<g id="surface1">
<path style=" stroke:none;fill-rule:nonzero;fill:#ff6666;fill-opacity:1;" d="M 7.675781 0 C 5.675781 0 3.839844 0.808594 2.398438 2.25 C 0.882812 3.769531 0 5.757812 0 8 C 0 12.398438 3.433594 16 7.75 16 L 8 16 C 12.398438 16 16 12.398438 16 8 C 16 3.601562 12.398438 0 8 0 Z M 7.75 1.601562 C 9.507812 1.601562 12 2.558594 12 4.800781 C 12 6.882812 10.398438 7.839844 8.398438 8 C 6.800781 8.082031 5.273438 8.890625 4.476562 10.25 C 3.835938 11.367188 3.910156 12.394531 4.148438 13.273438 C 2.539062 11.996094 1.601562 10.054688 1.601562 8 C 1.601562 6.238281 2.242188 4.550781 3.523438 3.351562 C 4.644531 2.230469 6.070312 1.601562 7.75 1.601562 Z M 8 3.199219 C 7.117188 3.199219 6.398438 3.914062 6.398438 4.800781 C 6.398438 5.683594 7.117188 6.398438 8 6.398438 C 8.882812 6.398438 9.601562 5.683594 9.601562 4.800781 C 9.601562 3.914062 8.882812 3.199219 8 3.199219 Z M 8 10.398438 C 8.882812 10.398438 9.601562 11.117188 9.601562 12 C 9.601562 12.882812 8.882812 13.601562 8 13.601562 C 7.117188 13.601562 6.398438 12.882812 6.398438 12 C 6.398438 11.117188 7.117188 10.398438 8 10.398438 Z M 8 10.398438 "/>
</g>
</svg>
