
<svg xmlns="http://www.w3.org/2000/svg" xmlns:xlink="http://www.w3.org/1999/xlink" width="16px" height="16px" viewBox="0 0 16 16" version="1.1">
<g id="surface1">
<path style=" stroke:none;fill-rule:evenodd;fill:#ff6666;fill-opacity:1;" d="M 10.183594 5.089844 L 10.183594 13.816406 C 12.59375 13.816406 14.546875 11.863281 14.546875 9.453125 C 14.546875 7.046875 12.59375 5.089844 10.183594 5.089844 Z M 10.183594 3.636719 C 13.394531 3.636719 16 6.242188 16 9.453125 C 16 12.667969 13.394531 15.273438 10.183594 15.273438 L 8.726562 15.273438 L 8.726562 3.636719 Z M 5.816406 2.183594 L 5.816406 10.910156 C 3.40625 10.910156 1.453125 8.953125 1.453125 6.546875 C 1.453125 4.136719 3.40625 2.183594 5.816406 2.183594 Z M 5.816406 0.726562 C 2.605469 0.726562 0 3.332031 0 6.546875 C 0 9.757812 2.605469 12.363281 5.816406 12.363281 L 7.273438 12.363281 L 7.273438 0.726562 Z M 5.816406 0.726562 "/>
</g>
</svg>
