
<svg xmlns="http://www.w3.org/2000/svg" xmlns:xlink="http://www.w3.org/1999/xlink" width="16px" height="16px" viewBox="0 0 16 16" version="1.1">
<g id="surface1">
<path style=" stroke:none;fill-rule:evenodd;fill:#ff6666;fill-opacity:1;" d="M 15.515625 14.738281 C 15.726562 15.324219 15.308594 16 14.632812 16 L 1.382812 16 C 0.710938 16 0.246094 15.367188 0.496094 14.738281 L 4.714844 4.210938 L 4.714844 0.84375 L 11.285156 0.84375 L 11.285156 4.210938 Z M 14.859375 14.980469 C 14.871094 15 14.871094 15.03125 14.871094 15.050781 C 14.871094 15.121094 14.851562 15.179688 14.800781 15.230469 C 14.761719 15.269531 14.699219 15.300781 14.628906 15.300781 L 1.378906 15.300781 C 1.378906 15.300781 1.371094 15.300781 1.371094 15.300781 C 1.308594 15.300781 1.25 15.28125 1.199219 15.238281 C 1.160156 15.199219 1.128906 15.140625 1.128906 15.078125 C 1.128906 15.058594 1.140625 15.03125 1.148438 15 L 5.410156 4.351562 L 5.410156 1.539062 L 10.589844 1.539062 L 10.589844 4.351562 Z M 14.859375 14.980469 "/>
<path style=" stroke:none;fill-rule:nonzero;fill:#ff6666;fill-opacity:1;" d="M 11.542969 1.714844 L 4.457031 1.714844 C 3.96875 1.714844 3.570312 1.328125 3.570312 0.855469 C 3.570312 0.386719 3.96875 0 4.457031 0 L 11.542969 0 C 12.03125 0 12.429688 0.386719 12.429688 0.855469 C 12.429688 1.328125 12.03125 1.714844 11.542969 1.714844 Z M 11.542969 1.714844 "/>
<path style=" stroke:none;fill-rule:nonzero;fill:#ff6666;fill-opacity:1;" d="M 6.492188 9.335938 C 5.234375 8.644531 4.429688 7.488281 4.429688 7.488281 C 4.429688 7.488281 6.257812 6.003906 8.238281 6.332031 C 10.191406 6.65625 11.539062 8.550781 11.5625 8.585938 C 11.570312 8.585938 11.570312 8.585938 11.570312 8.585938 C 11.570312 8.585938 11.570312 8.585938 11.570312 8.597656 C 11.570312 8.585938 11.570312 8.585938 11.570312 8.597656 C 11.570312 8.628906 11.546875 10.28125 9.957031 11.394531 C 11.632812 11.976562 12.941406 13.011719 12.941406 13.011719 C 12.941406 13.011719 11.398438 14.703125 8.929688 14.5625 C 6.53125 14.429688 4.269531 12.636719 4.175781 12.5625 C 4.144531 12.558594 4.144531 12.558594 4.144531 12.558594 C 4.144531 12.558594 4.089844 10.617188 6.164062 9.5 C 6.273438 9.441406 6.382812 9.390625 6.492188 9.335938 Z M 6.492188 9.335938 "/>
</g>
</svg>
