<svg xmlns="http://www.w3.org/2000/svg" xmlns:xlink="http://www.w3.org/1999/xlink" width="64" height="64" viewBox="0 0 64 64" version="1.1">
<defs>
<linearGradient id="linear0" gradientUnits="userSpaceOnUse" x1="0" y1="0" x2="0" y2="1" gradientTransform="matrix(64,0,0,57.140625,0,3.429688)">
<stop offset="0" style="stop-color:#ff6666;stop-opacity:1;"/>
<stop offset="1" style="stop-color:#d90000;stop-opacity:1;"/>
</linearGradient>
<linearGradient id="linear1" gradientUnits="userSpaceOnUse" x1="0" y1="0" x2="0" y2="1" gradientTransform="matrix(9.785156,0,0,9.703125,22.855469,14.296875)">
<stop offset="0" style="stop-color:#ff6666;stop-opacity:1;"/>
<stop offset="1" style="stop-color:#d90000;stop-opacity:1;"/>
</linearGradient>
</defs>
<g id="surface1">
<path style=" stroke:none;fill-rule:nonzero;fill:url(#linear0);" d="M 64 3.429688 C 57.144531 10.285156 52.570312 17.144531 41.375 20.371094 C 39.992188 11.921875 32.632812 5.714844 24 5.714844 C 14.277344 5.714844 6.398438 13.53125 6.398438 23.175781 C 6.410156 23.902344 6.460938 24.632812 6.5625 25.359375 C 2.585938 27.605469 0 31.65625 0 38.351562 C 0 49.550781 10.917969 60.570312 23.363281 60.570312 C 47.972656 60.570312 64 35.175781 64 3.429688 Z M 24 13.585938 C 29.304688 13.585938 33.601562 17.847656 33.601562 23.109375 C 33.601562 28.371094 29.304688 32.636719 24 32.636719 C 18.695312 32.636719 14.398438 28.371094 14.398438 23.109375 C 14.398438 17.851562 18.695312 13.585938 24 13.585938 Z M 47.363281 36.933594 C 47.363281 38.699219 36.265625 52.632812 25.601562 52.632812 C 15.820312 52.632812 10.238281 46.070312 10.238281 39.253906 C 20.90625 49.628906 38.402344 42.785156 47.363281 36.933594 Z M 47.363281 36.933594 "/>
<path style=" stroke:none;fill-rule:nonzero;fill:url(#linear1);" d="M 32.640625 19.148438 C 32.640625 21.828125 30.449219 24 27.746094 24 C 25.046875 24 22.855469 21.828125 22.855469 19.148438 C 22.855469 16.46875 25.046875 14.296875 27.746094 14.296875 C 30.449219 14.296875 32.640625 16.46875 32.640625 19.148438 Z M 32.640625 19.148438 "/>
</g>
</svg>
