<svg xmlns="http://www.w3.org/2000/svg" xmlns:xlink="http://www.w3.org/1999/xlink" width="64" height="64" viewBox="0 0 64 64" version="1.1">
<defs>
<linearGradient id="linear0" gradientUnits="userSpaceOnUse" x1="0" y1="0" x2="0" y2="1" gradientTransform="matrix(64,0,0,64,0,0)">
<stop offset="0" style="stop-color:#ff6666;stop-opacity:1;"/>
<stop offset="1" style="stop-color:#d90000;stop-opacity:1;"/>
</linearGradient>
</defs>
<g id="surface1">
<path style=" stroke:none;fill-rule:nonzero;fill:url(#linear0);" d="M 34.078125 0.00390625 C 28.097656 19.195312 25.289062 13.957031 12.488281 4.792969 C 20.097656 23.8125 18.910156 20.664062 3.875 19.550781 C 16.882812 29.386719 14.566406 32.730469 0 40.039062 C 15 40.144531 20.230469 39.011719 13.558594 53.097656 C 27.222656 46.144531 25.613281 46.078125 29.71875 64 C 36.363281 45.992188 36.125 47.839844 50.058594 56.480469 C 44.75 41.894531 44.488281 41.5 62.058594 45.203125 C 47.164062 32.636719 50.335938 31.742188 64 23.027344 C 44.664062 23.726562 46.980469 22.355469 52.46875 6.769531 C 36.652344 18.929688 37.875 15.046875 34.074219 0 "/>
</g>
</svg>
