<svg xmlns="http://www.w3.org/2000/svg" xmlns:xlink="http://www.w3.org/1999/xlink" width="64" height="64" viewBox="0 0 64 64" version="1.1">
<defs>
<linearGradient id="linear0" gradientUnits="userSpaceOnUse" x1="0" y1="0" x2="0" y2="1" gradientTransform="matrix(64,0,0,64,0,0)">
<stop offset="0" style="stop-color:#ff6666;stop-opacity:1;"/>
<stop offset="1" style="stop-color:#d90000;stop-opacity:1;"/>
</linearGradient>
</defs>
<g id="surface1">
<path style=" stroke:none;fill-rule:nonzero;fill:url(#linear0);" d="M 32 0 C 14.34375 0 0 14.34375 0 32 C 0 49.65625 14.34375 64 32 64 C 49.65625 64 64 49.65625 64 32 C 64 14.34375 49.65625 0 32 0 Z M 15.628906 21.761719 C 19.371094 21.664062 23.082031 24.207031 24.628906 28.28125 C 26.527344 33.300781 24.429688 38.753906 19.949219 40.453125 C 15.464844 42.148438 10.28125 39.453125 8.378906 34.4375 C 6.480469 29.421875 8.578125 23.964844 13.058594 22.265625 C 13.902344 21.949219 14.765625 21.785156 15.628906 21.761719 Z M 48.921875 21.761719 C 49.785156 21.785156 50.648438 21.949219 51.488281 22.265625 C 55.972656 23.964844 58.074219 29.421875 56.171875 34.4375 C 54.273438 39.453125 49.085938 42.148438 44.605469 40.453125 C 40.121094 38.753906 38.023438 33.300781 39.921875 28.28125 C 41.464844 24.207031 45.179688 21.664062 48.921875 21.761719 Z M 48.921875 21.761719 "/>
</g>
</svg>
