<svg xmlns="http://www.w3.org/2000/svg" xmlns:xlink="http://www.w3.org/1999/xlink" width="64" height="64" viewBox="0 0 64 64" version="1.1">
<defs>
<linearGradient id="linear0" gradientUnits="userSpaceOnUse" x1="0" y1="0" x2="0" y2="1" gradientTransform="matrix(64,0,0,56.015625,0,3.992188)">
<stop offset="0" style="stop-color:#ff6666;stop-opacity:1;"/>
<stop offset="1" style="stop-color:#d90000;stop-opacity:1;"/>
</linearGradient>
</defs>
<g id="surface1">
<path style=" stroke:none;fill-rule:nonzero;fill:url(#linear0);" d="M 29.003906 4.007812 C 25.148438 4.007812 22.003906 7.152344 22.003906 11.007812 C 22.003906 11.1875 22.042969 11.355469 22.058594 11.535156 C 16.867188 14.070312 12.328125 17.828125 9.097656 22.367188 C 8.429688 22.15625 7.734375 22.007812 7 22.007812 C 3.144531 22.007812 0 25.152344 0 29.007812 C 0 31.839844 1.703125 34.273438 4.128906 35.375 C 3.585938 41.824219 5.882812 47.519531 10.148438 51.589844 C 10.050781 52.046875 10 52.523438 10 53.007812 C 10 56.863281 13.144531 60.007812 17 60.007812 C 19.125 60.007812 21.019531 59.035156 22.296875 57.53125 C 23.765625 57.796875 25.277344 57.984375 26.871094 58.003906 C 31.816406 58.070312 36.71875 56.910156 41.183594 54.859375 C 42.285156 55.582031 43.589844 56.007812 45 56.007812 C 48.855469 56.007812 52 52.863281 52 49.007812 C 52 48.449219 51.914062 47.914062 51.789062 47.390625 C 55.636719 43.429688 58.441406 38.628906 59.519531 33.371094 C 59.65625 32.703125 59.746094 32.046875 59.816406 31.394531 C 62.273438 30.304688 64 27.851562 64 25 C 64 21.144531 60.855469 18 57 18 C 56.953125 18 56.910156 18.011719 56.867188 18.015625 C 53.027344 12.03125 45.921875 8.125 37.132812 7.996094 C 36.535156 7.988281 35.941406 8.046875 35.34375 8.078125 C 34.230469 5.675781 31.8125 3.992188 29 3.992188 Z M 29.003906 5.992188 C 31.785156 5.992188 34.019531 8.222656 34.019531 11.007812 C 34.019531 13.789062 31.785156 16.023438 29.003906 16.023438 C 26.222656 16.023438 23.988281 13.792969 23.988281 11.007812 C 23.988281 8.226562 26.21875 5.992188 29.003906 5.992188 Z M 36.050781 13.300781 C 42.949219 13.394531 48.425781 16.273438 51.570312 20.65625 C 50.605469 21.855469 50.003906 23.355469 50.003906 25.007812 C 50.003906 27.933594 51.820312 30.441406 54.378906 31.484375 C 54.324219 32.085938 54.25 32.691406 54.125 33.308594 C 53.378906 36.949219 51.550781 40.355469 48.996094 43.273438 C 47.863281 42.480469 46.488281 42.007812 45.003906 42.007812 C 41.152344 42.007812 38.003906 45.152344 38.003906 49.007812 C 38.003906 49.605469 38.109375 50.175781 38.25 50.734375 C 35.019531 52.015625 31.535156 52.761719 27.960938 52.710938 C 26.542969 52.691406 25.210938 52.511719 23.921875 52.261719 C 23.542969 48.761719 20.597656 46.003906 17 46.003906 C 15.785156 46.003906 14.65625 46.34375 13.660156 46.890625 C 10.863281 43.871094 9.390625 39.886719 9.59375 35.492188 C 12.167969 34.457031 14 31.941406 14 29.003906 C 14 27.691406 13.613281 26.472656 12.976562 25.421875 C 15.59375 21.441406 19.503906 18.125 24.078125 15.96875 C 25.34375 17.222656 27.082031 18.003906 29 18.003906 C 32.039062 18.003906 34.617188 16.03125 35.578125 13.308594 C 35.734375 13.304688 35.890625 13.292969 36.046875 13.296875 Z M 57.003906 19.992188 C 59.785156 19.992188 62.019531 22.222656 62.019531 25.007812 C 62.019531 27.789062 59.789062 30.023438 57.003906 30.023438 C 54.222656 30.023438 51.988281 27.792969 51.988281 25.007812 C 51.988281 22.226562 54.21875 19.992188 57.003906 19.992188 Z M 7.003906 23.992188 C 9.785156 23.992188 12.019531 26.222656 12.019531 29.007812 C 12.019531 31.789062 9.785156 34.023438 7.003906 34.023438 C 4.21875 34.023438 1.984375 31.792969 1.984375 29.007812 C 1.984375 26.226562 4.21875 23.992188 7.003906 23.992188 Z M 45.003906 43.992188 C 47.785156 43.992188 50.019531 46.222656 50.019531 49.007812 C 50.019531 51.789062 47.789062 54.023438 45.003906 54.023438 C 42.222656 54.023438 39.988281 51.792969 39.988281 49.007812 C 39.988281 46.226562 42.21875 43.992188 45.003906 43.992188 Z M 17.003906 47.992188 C 19.785156 47.992188 22.019531 50.222656 22.019531 53.007812 C 22.019531 55.789062 19.785156 58.023438 17.003906 58.023438 C 14.21875 58.023438 11.988281 55.792969 11.988281 53.007812 C 11.988281 50.226562 14.21875 47.992188 17.003906 47.992188 Z M 17.003906 47.992188 "/>
</g>
</svg>
