<svg xmlns="http://www.w3.org/2000/svg" xmlns:xlink="http://www.w3.org/1999/xlink" width="64" height="64" viewBox="0 0 64 64" version="1.1">
<defs>
<linearGradient id="linear0" gradientUnits="userSpaceOnUse" x1="0" y1="0" x2="0" y2="1" gradientTransform="matrix(29.507812,0,0,21.621094,34.492188,18.265625)">
<stop offset="0" style="stop-color:#ff6666;stop-opacity:1;"/>
<stop offset="1" style="stop-color:#d90000;stop-opacity:1;"/>
</linearGradient>
<linearGradient id="linear1" gradientUnits="userSpaceOnUse" x1="0" y1="0" x2="0" y2="1" gradientTransform="matrix(11.082031,0,0,15.367188,39.238281,21.210938)">
<stop offset="0" style="stop-color:#ff6666;stop-opacity:1;"/>
<stop offset="1" style="stop-color:#d90000;stop-opacity:1;"/>
</linearGradient>
<linearGradient id="linear2" gradientUnits="userSpaceOnUse" x1="0" y1="0" x2="0" y2="1" gradientTransform="matrix(12.316406,0,0,2.710938,49.527344,21.195312)">
<stop offset="0" style="stop-color:#ff6666;stop-opacity:1;"/>
<stop offset="1" style="stop-color:#d90000;stop-opacity:1;"/>
</linearGradient>
<linearGradient id="linear3" gradientUnits="userSpaceOnUse" x1="0" y1="0" x2="0" y2="1" gradientTransform="matrix(23.632812,0,0,21.265625,35.960938,24.46875)">
<stop offset="0" style="stop-color:#ff6666;stop-opacity:1;"/>
<stop offset="1" style="stop-color:#d90000;stop-opacity:1;"/>
</linearGradient>
<linearGradient id="linear4" gradientUnits="userSpaceOnUse" x1="0" y1="0" x2="0" y2="1" gradientTransform="matrix(5.304687,0,0,7.121094,39.4375,21.398437)">
<stop offset="0" style="stop-color:#ff6666;stop-opacity:1;"/>
<stop offset="1" style="stop-color:#d90000;stop-opacity:1;"/>
</linearGradient>
<linearGradient id="linear5" gradientUnits="userSpaceOnUse" x1="0" y1="0" x2="0" y2="1" gradientTransform="matrix(10.257813,0,0,11.839844,26.871094,25.855469)">
<stop offset="0" style="stop-color:#ff6666;stop-opacity:1;"/>
<stop offset="1" style="stop-color:#d90000;stop-opacity:1;"/>
</linearGradient>
<linearGradient id="linear6" gradientUnits="userSpaceOnUse" x1="0" y1="0" x2="0" y2="1" gradientTransform="matrix(29.507812,0,0,21.621094,0.000000000000003276,18.265625)">
<stop offset="0" style="stop-color:#ff6666;stop-opacity:1;"/>
<stop offset="1" style="stop-color:#d90000;stop-opacity:1;"/>
</linearGradient>
<linearGradient id="linear7" gradientUnits="userSpaceOnUse" x1="0" y1="0" x2="0" y2="1" gradientTransform="matrix(11.082031,0,0,15.367188,13.679687,21.210938)">
<stop offset="0" style="stop-color:#ff6666;stop-opacity:1;"/>
<stop offset="1" style="stop-color:#d90000;stop-opacity:1;"/>
</linearGradient>
<linearGradient id="linear8" gradientUnits="userSpaceOnUse" x1="0" y1="0" x2="0" y2="1" gradientTransform="matrix(12.5,0,0,2.707031,1.972656,21.199219)">
<stop offset="0" style="stop-color:#ff6666;stop-opacity:1;"/>
<stop offset="1" style="stop-color:#d90000;stop-opacity:1;"/>
</linearGradient>
<linearGradient id="linear9" gradientUnits="userSpaceOnUse" x1="0" y1="0" x2="0" y2="1" gradientTransform="matrix(23.632813,0,0,21.265625,4.40625,24.46875)">
<stop offset="0" style="stop-color:#ff6666;stop-opacity:1;"/>
<stop offset="1" style="stop-color:#d90000;stop-opacity:1;"/>
</linearGradient>
<linearGradient id="linear10" gradientUnits="userSpaceOnUse" x1="0" y1="0" x2="0" y2="1" gradientTransform="matrix(5.304687,0,0,7.121094,19.257812,21.398437)">
<stop offset="0" style="stop-color:#ff6666;stop-opacity:1;"/>
<stop offset="1" style="stop-color:#d90000;stop-opacity:1;"/>
</linearGradient>
<linearGradient id="linear11" gradientUnits="userSpaceOnUse" x1="0" y1="0" x2="0" y2="1" gradientTransform="matrix(15.820312,0,0,14.070312,24.089844,18.597656)">
<stop offset="0" style="stop-color:#ff6666;stop-opacity:1;"/>
<stop offset="1" style="stop-color:#d90000;stop-opacity:1;"/>
</linearGradient>
</defs>
<g id="surface1">
<path style=" stroke:none;fill-rule:nonzero;fill:url(#linear0);" d="M 47.222656 18.296875 L 34.5 38.085938 C 34.488281 38.109375 34.488281 38.136719 34.503906 38.160156 L 35.601562 39.855469 C 35.628906 39.898438 35.6875 39.898438 35.714844 39.855469 L 48.28125 20.808594 C 48.292969 20.789062 48.316406 20.777344 48.339844 20.777344 L 62.246094 20.777344 C 62.265625 20.777344 62.289062 20.765625 62.300781 20.746094 L 63.988281 18.375 C 64.019531 18.328125 63.988281 18.265625 63.929688 18.265625 L 47.28125 18.265625 C 47.257812 18.265625 47.238281 18.277344 47.222656 18.296875 Z M 47.222656 18.296875 "/>
<path style=" stroke:none;fill-rule:nonzero;fill:url(#linear1);" d="M 48.53125 21.242188 L 39.246094 35.3125 C 39.230469 35.335938 39.234375 35.371094 39.253906 35.394531 L 40.339844 36.558594 C 40.371094 36.589844 40.421875 36.585938 40.449219 36.546875 L 50.308594 21.316406 C 50.335938 21.273438 50.304688 21.210938 50.25 21.210938 L 48.585938 21.210938 C 48.566406 21.210938 48.542969 21.222656 48.53125 21.242188 Z M 48.53125 21.242188 "/>
<path style=" stroke:none;fill-rule:nonzero;fill:url(#linear2);" d="M 49.597656 23.90625 L 60.019531 23.90625 C 60.042969 23.90625 60.0625 23.898438 60.078125 23.878906 L 61.832031 21.320312 C 61.863281 21.273438 61.832031 21.210938 61.773438 21.210938 L 51.226562 21.195312 C 51.203125 21.195312 51.171875 21.226562 51.171875 21.226562 L 49.542969 23.796875 C 49.507812 23.84375 49.542969 23.90625 49.597656 23.90625 Z M 49.597656 23.90625 "/>
<path style=" stroke:none;fill-rule:nonzero;fill:url(#linear3);" d="M 40.382812 37.59375 L 38.964844 36.0625 C 38.9375 36.03125 38.882812 36.035156 38.859375 36.074219 L 35.996094 40.464844 L 35.960938 40.519531 L 39.386719 45.703125 C 39.414062 45.742188 39.476562 45.742188 39.503906 45.703125 L 51.871094 27.113281 C 51.882812 27.09375 51.902344 27.082031 51.925781 27.082031 L 57.765625 27.082031 C 57.789062 27.082031 57.808594 27.070312 57.820312 27.050781 L 59.582031 24.574219 C 59.613281 24.53125 59.582031 24.46875 59.523438 24.46875 L 49.136719 24.46875 C 49.113281 24.46875 49.09375 24.480469 49.082031 24.5 L 40.488281 37.585938 C 40.464844 37.621094 40.410156 37.625 40.382812 37.59375 Z M 40.382812 37.59375 "/>
<path style=" stroke:none;fill-rule:nonzero;fill:url(#linear4);" d="M 44.671875 21.398438 L 43.363281 21.398438 C 43.339844 21.398438 43.316406 21.410156 43.304688 21.429688 L 39.449219 27.394531 C 39.433594 27.417969 39.433594 27.449219 39.453125 27.472656 L 40.15625 28.488281 C 40.183594 28.53125 40.242188 28.527344 40.269531 28.488281 L 44.730469 21.503906 C 44.757812 21.457031 44.726562 21.398438 44.671875 21.398438 Z M 44.671875 21.398438 "/>
<path style=" stroke:none;fill-rule:nonzero;fill:url(#linear5);" d="M 34.296875 37.664062 L 37.117188 33.300781 C 37.132812 33.277344 37.132812 33.246094 37.117188 33.222656 L 32 25.855469 L 32 25.859375 L 26.882812 33.222656 C 26.867188 33.246094 26.867188 33.277344 26.882812 33.300781 L 29.703125 37.664062 C 29.730469 37.703125 29.792969 37.703125 29.820312 37.664062 L 31.996094 34.300781 L 32.003906 34.300781 L 34.179688 37.664062 C 34.207031 37.703125 34.269531 37.703125 34.296875 37.664062 Z M 34.296875 37.664062 "/>
<path style=" stroke:none;fill-rule:nonzero;fill:url(#linear6);" d="M 0.0117188 18.375 L 1.699219 20.746094 C 1.710938 20.765625 1.734375 20.777344 1.753906 20.777344 L 15.660156 20.777344 C 15.683594 20.777344 15.707031 20.789062 15.71875 20.808594 L 28.285156 39.855469 C 28.3125 39.898438 28.371094 39.898438 28.398438 39.855469 L 29.5 38.160156 C 29.511719 38.136719 29.511719 38.109375 29.5 38.085938 L 16.777344 18.296875 C 16.761719 18.277344 16.742188 18.265625 16.71875 18.265625 L 0.0703125 18.265625 C 0.0117188 18.265625 -0.0195312 18.332031 0.0117188 18.375 Z M 0.0117188 18.375 "/>
<path style=" stroke:none;fill-rule:nonzero;fill:url(#linear7);" d="M 24.753906 35.3125 L 15.46875 21.242188 C 15.457031 21.222656 15.433594 21.210938 15.414062 21.210938 L 13.75 21.210938 C 13.695312 21.210938 13.664062 21.273438 13.691406 21.320312 L 23.550781 36.546875 C 23.578125 36.585938 23.628906 36.589844 23.660156 36.558594 L 24.746094 35.398438 C 24.765625 35.375 24.769531 35.339844 24.753906 35.3125 Z M 24.753906 35.3125 "/>
<path style=" stroke:none;fill-rule:nonzero;fill:url(#linear8);" d="M 12.535156 21.199219 L 2.039062 21.199219 C 1.984375 21.199219 1.953125 21.261719 1.984375 21.308594 L 3.921875 23.878906 C 3.9375 23.898438 3.957031 23.90625 3.980469 23.90625 L 14.402344 23.90625 C 14.457031 23.90625 14.492188 23.84375 14.457031 23.800781 L 12.589844 21.226562 C 12.578125 21.210938 12.554688 21.199219 12.535156 21.199219 Z M 12.535156 21.199219 "/>
<path style=" stroke:none;fill-rule:nonzero;fill:url(#linear9);" d="M 25.035156 36.066406 L 23.617188 37.59375 C 23.589844 37.628906 23.535156 37.621094 23.511719 37.585938 L 14.921875 24.5 C 14.90625 24.480469 14.886719 24.46875 14.863281 24.46875 L 4.476562 24.46875 C 4.417969 24.46875 4.386719 24.53125 4.417969 24.578125 L 6.179688 27.054688 C 6.191406 27.070312 6.210938 27.082031 6.234375 27.082031 L 12.074219 27.082031 C 12.097656 27.082031 12.117188 27.09375 12.128906 27.113281 L 24.496094 45.703125 C 24.523438 45.742188 24.585938 45.742188 24.613281 45.703125 L 28.039062 40.519531 L 28.003906 40.464844 L 25.140625 36.074219 C 25.117188 36.035156 25.0625 36.03125 25.035156 36.066406 Z M 25.035156 36.066406 "/>
<path style=" stroke:none;fill-rule:nonzero;fill:url(#linear10);" d="M 24.550781 27.394531 L 20.695312 21.429688 C 20.683594 21.410156 20.660156 21.398438 20.636719 21.398438 L 19.328125 21.398438 C 19.273438 21.398438 19.242188 21.457031 19.269531 21.503906 L 23.730469 28.488281 C 23.757812 28.527344 23.816406 28.53125 23.847656 28.488281 L 24.550781 27.472656 C 24.566406 27.449219 24.566406 27.417969 24.550781 27.394531 Z M 24.550781 27.394531 "/>
<path style=" stroke:none;fill-rule:nonzero;fill:url(#linear11);" d="M 24.101562 29.050781 L 26.46875 32.636719 C 26.496094 32.679688 26.554688 32.679688 26.582031 32.640625 L 31.945312 24.988281 C 31.972656 24.949219 32.027344 24.949219 32.058594 24.988281 L 37.417969 32.640625 C 37.445312 32.679688 37.503906 32.679688 37.53125 32.636719 L 39.898438 29.046875 C 39.914062 29.023438 39.914062 28.996094 39.898438 28.972656 L 32.851562 18.628906 C 32.835938 18.609375 32.816406 18.597656 32.792969 18.597656 L 29.890625 18.597656 C 29.871094 18.597656 29.855469 18.605469 29.839844 18.617188 L 28.453125 19.945312 C 28.4375 19.960938 28.429688 19.976562 28.429688 19.996094 L 28.429688 20.355469 C 28.429688 20.371094 28.4375 20.386719 28.445312 20.398438 L 29.230469 21.359375 C 29.25 21.382812 29.25 21.417969 29.234375 21.441406 L 24.101562 28.972656 C 24.085938 28.996094 24.085938 29.023438 24.101562 29.050781 Z M 24.101562 29.050781 "/>
</g>
</svg>
