<svg xmlns="http://www.w3.org/2000/svg" xmlns:xlink="http://www.w3.org/1999/xlink" width="64" height="64" viewBox="0 0 64 64" version="1.1">
<defs>
<linearGradient id="linear0" gradientUnits="userSpaceOnUse" x1="0" y1="0" x2="0" y2="1" gradientTransform="matrix(64,0,0,30.710938,0,16.644531)">
<stop offset="0" style="stop-color:#ff6666;stop-opacity:1;"/>
<stop offset="1" style="stop-color:#d90000;stop-opacity:1;"/>
</linearGradient>
</defs>
<g id="surface1">
<path style=" stroke:none;fill-rule:evenodd;fill:url(#linear0);" d="M 9.800781 38.582031 C 5.3125 39.175781 3 39.679688 0.75 42.144531 C -2.539062 37.757812 5.414062 22.953125 16.105469 16.917969 C 16.597656 20.039062 18.835938 20.726562 23.507812 21.582031 L 26.800781 21.582031 L 26.800781 19.113281 L 28.171875 21.03125 L 35.847656 21.03125 L 37.21875 19.113281 L 37.21875 21.582031 L 40.507812 21.582031 C 45.179688 20.726562 47.144531 19.765625 47.636719 16.644531 C 58.332031 22.675781 66.554688 37.757812 63.265625 42.144531 C 61.015625 39.679688 58.703125 39.175781 54.21875 38.582031 L 52.847656 40.226562 L 50.929688 37.757812 L 45.992188 37.757812 L 32.007812 47.355469 C 39.785156 41.699219 44.003906 38.25 50.652344 30.355469 C 49.320312 27.558594 47.878906 25.886719 43.796875 22.675781 C 34.046875 22.152344 28.78125 22.101562 19.945312 22.675781 C 16.761719 25.511719 15.183594 27.167969 13.089844 30.355469 C 19.132812 37.347656 23.25 41.074219 32.007812 47.355469 L 18.023438 37.757812 L 13.089844 37.757812 L 11.171875 40.226562 Z M 32.007812 47.355469 Z M 33.414062 28.144531 C 40.851562 28.144531 45.445312 30.800781 46.300781 33.644531 L 48.339844 31.332031 C 46.335938 28.589844 44.683594 27.164062 41.347656 25.574219 C 37.171875 23.621094 33.910156 23.824219 28.675781 24.152344 L 28.671875 24.152344 C 28.507812 24.164062 28.339844 24.175781 28.171875 24.1875 C 27.183594 24.246094 23.148438 25.144531 24.828125 26.824219 C 26.253906 28.25 29 28.207031 31.875 28.160156 C 32.386719 28.152344 32.902344 28.144531 33.414062 28.144531 Z M 38.734375 23.816406 C 38.734375 23.816406 42.726562 23.378906 43.40625 24.21875 C 44.011719 24.972656 43.367188 25.324219 43.011719 25.179688 C 40.441406 24.132812 38.734375 23.816406 38.734375 23.816406 Z M 49.136719 30.183594 L 48.8125 30.679688 C 48.40625 30.175781 48.019531 29.722656 47.65625 29.300781 C 46.570312 28.03125 45.6875 27 45.179688 25.503906 C 46.804688 27.113281 47.699219 28.054688 49.136719 30.183594 Z M 14.855469 30.183594 C 16.539062 27.601562 17.886719 26.292969 20.5625 23.964844 L 21.46875 23.964844 C 18.1875 26.941406 16.824219 28.785156 16.894531 32.992188 C 16.695312 33.277344 16.074219 32.230469 15.078125 30.554688 L 15.074219 30.554688 C 15.003906 30.433594 14.929688 30.308594 14.855469 30.183594 Z M 37.765625 38.5625 C 38.238281 38.914062 38.625 39.367188 38.011719 40.089844 C 37.816406 40.316406 37.226562 40.828125 35.03125 41.289062 C 29.652344 42.417969 24.632812 40.910156 20.21875 36.011719 C 20.21875 36.011719 24.519531 37.292969 27.210938 37.5 C 29.433594 37.671875 30.984375 37.625 32.234375 37.585938 C 32.367188 37.582031 32.496094 37.574219 32.625 37.570312 C 34.5625 37.503906 36.257812 37.445312 37.765625 38.5625 Z M 35.667969 42.796875 C 32.6875 43.078125 31.035156 43.0625 28.101562 42.796875 C 29.257812 43.753906 30.007812 44.34375 30.933594 45.070312 L 30.9375 45.074219 L 30.9375 45.078125 C 31.261719 45.332031 31.609375 45.605469 32 45.914062 Z M 35.667969 42.796875 "/>
</g>
</svg>
