<svg xmlns="http://www.w3.org/2000/svg" xmlns:xlink="http://www.w3.org/1999/xlink" width="64" height="64" viewBox="0 0 64 64" version="1.1">
<defs>
<linearGradient id="linear0" gradientUnits="userSpaceOnUse" x1="0" y1="0" x2="0" y2="1" gradientTransform="matrix(64,0,0,42.75,0,10.625)">
<stop offset="0" style="stop-color:#ff6666;stop-opacity:1;"/>
<stop offset="1" style="stop-color:#d90000;stop-opacity:1;"/>
</linearGradient>
</defs>
<g id="surface1">
<path style=" stroke:none;fill-rule:evenodd;fill:url(#linear0);" d="M 0 24.410156 C 3.566406 18.980469 6.257812 16.160156 11.679688 11.332031 C 26.734375 10.347656 35.703125 10.433594 52.320312 11.332031 C 59.277344 16.800781 61.730469 19.648438 64 24.410156 C 52.671875 37.859375 45.484375 43.738281 32.234375 53.375 C 17.3125 42.675781 10.296875 36.320312 0 24.410156 Z M 56.582031 30.015625 C 55.125 25.167969 47.300781 20.644531 34.628906 20.644531 C 33.753906 20.644531 32.875 20.65625 32.003906 20.671875 C 27.109375 20.75 22.429688 20.824219 20 18.394531 C 17.140625 15.535156 24.007812 14.003906 25.691406 13.898438 C 25.984375 13.882812 26.273438 13.863281 26.558594 13.84375 C 35.472656 13.285156 41.03125 12.9375 48.144531 16.265625 C 53.824219 18.972656 56.640625 21.402344 60.058594 26.074219 Z M 51.648438 13.957031 C 50.496094 12.527344 43.691406 13.273438 43.691406 13.273438 C 43.691406 13.273438 46.597656 13.8125 50.976562 15.59375 C 51.585938 15.839844 52.683594 15.238281 51.648438 13.957031 Z M 60.859375 24.964844 L 61.417969 24.117188 C 58.964844 20.496094 57.441406 18.886719 54.671875 16.148438 C 55.535156 18.695312 57.039062 20.449219 58.894531 22.613281 C 59.515625 23.335938 60.171875 24.105469 60.859375 24.964844 Z M 12.730469 13.519531 C 8.175781 17.488281 5.875 19.71875 3.007812 24.117188 C 3.136719 24.335938 3.261719 24.546875 3.382812 24.75 L 3.382812 24.753906 C 5.082031 27.609375 6.144531 29.390625 6.480469 28.90625 C 6.363281 21.734375 8.683594 18.589844 14.277344 13.519531 Z M 42.460938 40.996094 C 43.503906 39.769531 42.847656 38.992188 42.042969 38.394531 C 39.300781 36.367188 36.195312 36.613281 32.617188 36.726562 C 30.488281 36.796875 27.847656 36.878906 24.058594 36.585938 C 19.472656 36.230469 12.144531 34.046875 12.144531 34.046875 C 19.664062 42.394531 28.21875 44.964844 37.386719 43.039062 C 41.121094 42.253906 42.128906 41.382812 42.460938 40.996094 Z M 25.578125 45.605469 C 30.574219 46.0625 33.394531 46.089844 38.46875 45.605469 L 32.21875 50.921875 C 31.550781 50.390625 30.960938 49.925781 30.40625 49.492188 L 30.402344 49.484375 C 28.828125 48.246094 27.546875 47.238281 25.578125 45.605469 Z M 25.578125 45.605469 "/>
</g>
</svg>
