<svg xmlns="http://www.w3.org/2000/svg" xmlns:xlink="http://www.w3.org/1999/xlink" width="64" height="64" viewBox="0 0 64 64" version="1.1">
<defs>
<linearGradient id="linear0" gradientUnits="userSpaceOnUse" x1="0" y1="0" x2="0" y2="1" gradientTransform="matrix(64,0,0,59.585938,0,2.207031)">
<stop offset="0" style="stop-color:#ff6666;stop-opacity:1;"/>
<stop offset="1" style="stop-color:#d90000;stop-opacity:1;"/>
</linearGradient>
</defs>
<g id="surface1">
<path style=" stroke:none;fill-rule:evenodd;fill:url(#linear0);" d="M 64 38.765625 L 62.617188 51.679688 L 29.445312 51.679688 L 29.445312 50.65625 L 46.207031 32.117188 L 29.914062 11.328125 L 29.914062 10.3125 L 61.324219 10.3125 L 61.324219 21.300781 L 59.242188 21.300781 C 58.808594 19.359375 57.980469 17.527344 56.757812 15.808594 C 55.535156 14.085938 54.269531 13.121094 52.957031 12.910156 C 52.367188 12.8125 51.535156 12.734375 50.453125 12.691406 C 49.363281 12.640625 48.480469 12.613281 47.789062 12.613281 L 38.722656 12.613281 L 51.785156 29.289062 L 51.785156 29.757812 L 36.515625 46.546875 L 55.683594 46.546875 C 56.566406 46.546875 57.347656 46.285156 58.039062 45.757812 C 58.71875 45.242188 59.3125 44.566406 59.800781 43.75 C 60.253906 43.011719 60.652344 42.1875 61.003906 41.292969 C 61.328125 40.453125 61.640625 39.609375 61.9375 38.765625 Z M 24.726562 5.121094 L 24.726562 8.558594 L 20.785156 8.558594 C 19.34375 8.558594 17.984375 8.691406 16.710938 8.953125 C 15.433594 9.222656 14.1875 9.710938 12.976562 10.414062 C 11.855469 11.089844 10.941406 12.003906 10.238281 13.164062 C 9.53125 14.335938 9.167969 15.75 9.167969 17.410156 C 9.167969 19.816406 10.039062 21.652344 11.773438 22.910156 C 13.503906 24.164062 15.796875 24.796875 18.660156 24.796875 L 23.058594 24.796875 L 23.058594 27.984375 L 17.101562 27.984375 C 13.804688 27.984375 11.285156 28.679688 9.550781 30.070312 C 7.820312 31.460938 6.960938 33.640625 6.960938 36.617188 C 6.960938 39.054688 7.664062 40.945312 9.085938 42.292969 C 10.496094 43.644531 12.476562 44.316406 15.007812 44.316406 L 19.023438 44.316406 C 21.53125 44.316406 23.429688 45.003906 24.726562 46.382812 C 26.023438 47.761719 26.675781 49.597656 26.675781 51.914062 C 26.675781 54.402344 25.609375 56.675781 23.472656 58.722656 C 21.335938 60.777344 18.785156 61.792969 15.828125 61.792969 C 13.703125 61.792969 12.1875 61.535156 11.304688 61.023438 C 10.414062 60.507812 9.96875 59.75 9.96875 58.753906 C 9.96875 57.941406 10.214844 57.300781 10.703125 56.8125 C 11.203125 56.324219 11.9375 56.074219 12.914062 56.074219 C 13.484375 56.074219 13.992188 56.1875 14.449219 56.417969 C 14.875 56.621094 15.277344 56.875 15.640625 57.175781 C 15.972656 57.414062 16.355469 57.734375 16.8125 58.121094 C 17.269531 58.503906 17.703125 58.792969 18.109375 59 C 18.597656 58.960938 19.125 58.84375 19.707031 58.648438 C 20.277344 58.453125 20.828125 58.128906 21.355469 57.664062 C 21.90625 57.195312 22.339844 56.65625 22.664062 56.03125 C 22.996094 55.421875 23.152344 54.582031 23.152344 53.523438 C 23.152344 52.046875 22.683594 50.949219 21.738281 50.242188 C 20.796875 49.535156 19.449219 49.175781 17.683594 49.175781 L 12.945312 49.175781 C 9.457031 49.175781 6.597656 48.117188 4.375 45.988281 C 2.148438 43.863281 1.027344 41.226562 1.027344 38.082031 C 1.027344 36.378906 1.367188 34.824219 2.042969 33.410156 C 2.726562 32.007812 3.640625 30.773438 4.800781 29.71875 C 5.890625 28.730469 7.144531 27.941406 8.546875 27.351562 C 9.957031 26.757812 11.316406 26.386719 12.613281 26.21875 L 12.613281 26.042969 C 9.53125 25.535156 7.1875 24.519531 5.589844 23.003906 C 3.984375 21.476562 3.183594 19.660156 3.183594 17.535156 C 3.183594 16.332031 3.421875 15.238281 3.898438 14.265625 C 4.375 13.28125 5.039062 12.398438 5.890625 11.628906 C 6.679688 10.921875 7.613281 10.3125 8.691406 9.800781 C 9.785156 9.296875 10.910156 8.871094 12.0625 8.527344 L 12.0625 8.019531 C 11.253906 8.039062 10.195312 8.070312 8.898438 8.132812 C 7.601562 8.195312 6.492188 8.226562 5.558594 8.226562 C 3.652344 8.226562 2.25 7.957031 1.347656 7.417969 C 0.445312 6.886719 0 6.117188 0 5.121094 C 0 4.332031 0.207031 3.648438 0.621094 3.078125 C 1.039062 2.496094 1.742188 2.207031 2.726562 2.207031 C 3.660156 2.207031 4.460938 2.394531 5.113281 2.757812 C 5.757812 3.105469 6.371094 3.503906 6.960938 3.9375 C 7.519531 4.363281 8.085938 4.773438 8.660156 5.175781 C 9.148438 5.507812 9.882812 5.671875 10.878906 5.671875 C 13.058594 5.671875 15.421875 5.609375 17.976562 5.488281 C 20.515625 5.371094 22.765625 5.246094 24.726562 5.121094 Z M 24.726562 5.121094 "/>
</g>
</svg>
