<svg xmlns="http://www.w3.org/2000/svg" xmlns:xlink="http://www.w3.org/1999/xlink" width="64" height="64" viewBox="0 0 64 64" version="1.1">
<g id="surface1">
<path style=" stroke:none;fill-rule:nonzero;fill:rgb(57.647061%,58.431375%,59.215689%);fill-opacity:0.960784;" d="M 0 0 L 0 9.464844 L 4.730469 9.464844 C 32.296875 9.464844 54.535156 31.707031 54.535156 59.269531 L 54.535156 64 L 64 64 L 64 59.269531 C 64 26.59375 37.40625 0 4.730469 0 Z M 0 22.855469 L 0 32.324219 L 4.730469 32.324219 C 8.273438 32.3125 11.78125 33.003906 15.054688 34.355469 C 18.328125 35.703125 21.300781 37.6875 23.808594 40.191406 C 26.3125 42.699219 28.296875 45.671875 29.644531 48.945312 C 30.996094 52.21875 31.6875 55.726562 31.675781 59.269531 L 31.675781 64 L 41.144531 64 L 41.144531 59.269531 C 41.144531 39.214844 24.785156 22.855469 4.730469 22.855469 Z M 9.144531 45.714844 C 4.09375 45.714844 0 49.808594 0 54.855469 C 0 59.90625 4.09375 64 9.144531 64 C 14.191406 64 18.285156 59.90625 18.285156 54.855469 C 18.285156 49.808594 14.191406 45.714844 9.144531 45.714844 Z M 9.144531 45.714844 "/>
</g>
</svg>
