<svg xmlns="http://www.w3.org/2000/svg" xmlns:xlink="http://www.w3.org/1999/xlink" width="64" height="64" viewBox="0 0 64 64" version="1.1">
<defs>
<linearGradient id="linear0" gradientUnits="userSpaceOnUse" x1="0" y1="0" x2="0" y2="1" gradientTransform="matrix(64,0,0,64,0,0)">
<stop offset="0" style="stop-color:#ff6666;stop-opacity:1;"/>
<stop offset="1" style="stop-color:#d90000;stop-opacity:1;"/>
</linearGradient>
</defs>
<g id="surface1">
<path style=" stroke:none;fill-rule:nonzero;fill:url(#linear0);" d="M 1.457031 0 C 0.652344 0 0 0.652344 0 1.457031 L 0 62.542969 C 0 63.347656 0.652344 64 1.457031 64 L 17.457031 64 C 18.257812 64 18.90625 63.347656 18.90625 62.542969 L 18.90625 1.457031 C 18.90625 0.652344 18.257812 0 17.457031 0 Z M 30.664062 3.5625 C 30.089844 3.492188 29.523438 3.769531 29.226562 4.269531 L 21.820312 16.847656 L 21.820312 35.214844 L 27.484375 38.476562 L 26 40.976562 L 21.820312 38.566406 L 21.820312 54.121094 L 45.523438 13.863281 C 45.929688 13.167969 45.695312 12.273438 45 11.863281 L 31.214844 3.746094 C 31.046875 3.652344 30.859375 3.589844 30.664062 3.5625 Z M 24.230469 18.269531 L 35.613281 24.816406 L 34.128906 27.316406 L 22.738281 20.765625 Z M 50.890625 18.925781 C 50.703125 18.957031 50.523438 19.019531 50.355469 19.121094 L 43.246094 23.453125 L 39.664062 29.527344 L 46.261719 40.351562 L 43.78125 41.863281 L 37.996094 32.371094 L 30.460938 45.171875 L 32.597656 48.679688 L 30.113281 50.1875 L 28.789062 48.015625 L 22.929688 57.976562 L 60.199219 35.265625 C 60.527344 35.0625 60.765625 34.742188 60.855469 34.367188 C 60.945312 33.996094 60.882812 33.601562 60.683594 33.273438 L 52.355469 19.605469 C 52.15625 19.277344 51.835938 19.039062 51.460938 18.949219 C 51.277344 18.902344 51.078125 18.894531 50.890625 18.925781 Z M 49.667969 45.09375 L 45.09375 47.890625 L 32 55.902344 L 32 61.09375 L 29.09375 61.09375 L 29.09375 57.679688 L 21.820312 62.136719 L 21.820312 64 L 62.542969 64 C 63.347656 64 64 63.347656 64 62.542969 L 64 46.542969 C 64 45.742188 63.347656 45.09375 62.542969 45.09375 Z M 45.09375 48 L 48 48 L 48 61.09375 L 45.09375 61.09375 Z M 9.457031 52.363281 C 10.660156 52.363281 11.636719 53.339844 11.636719 54.542969 C 11.636719 55.753906 10.660156 56.726562 9.457031 56.726562 C 8.246094 56.726562 7.273438 55.753906 7.273438 54.542969 C 7.273438 53.339844 8.246094 52.363281 9.457031 52.363281 Z M 9.457031 52.363281 "/>
</g>
</svg>
