<svg xmlns="http://www.w3.org/2000/svg" xmlns:xlink="http://www.w3.org/1999/xlink" width="64" height="64" viewBox="0 0 64 64" version="1.1">
<defs>
<linearGradient id="linear0" gradientUnits="userSpaceOnUse" x1="0" y1="0" x2="0" y2="1" gradientTransform="matrix(64,0,0,51.679688,0,6.320312)">
<stop offset="0" style="stop-color:#ff6666;stop-opacity:1;"/>
<stop offset="1" style="stop-color:#d90000;stop-opacity:1;"/>
</linearGradient>
</defs>
<g id="surface1">
<path style=" stroke:none;fill-rule:evenodd;fill:url(#linear0);" d="M 47.035156 6.320312 L 47.574219 7.042969 L 44.941406 17.1875 L 43.941406 17.355469 L 37.554688 7.207031 L 38.015625 6.320312 Z M 25.984375 6.320312 L 26.429688 7.230469 L 18.914062 17.941406 L 17.914062 17.683594 L 16.410156 6.972656 L 16.964844 6.320312 Z M 52.726562 6.523438 L 64 21.179688 L 63.566406 22.105469 L 47.785156 22.105469 L 47.25 21.363281 L 51.757812 6.707031 Z M 32.433594 6.523438 L 43.707031 21.179688 L 43.273438 22.105469 L 20.726562 22.105469 L 20.292969 21.179688 L 31.566406 6.523438 Z M 11.273438 6.523438 L 12.242188 6.707031 L 16.75 21.363281 L 16.214844 22.105469 L 0.433594 22.105469 L 0 21.179688 Z M 63.566406 24.359375 L 63.980469 25.304688 L 34.667969 58 L 33.738281 57.394531 L 47.265625 24.699219 L 47.785156 24.359375 Z M 43.273438 24.359375 L 43.792969 25.136719 L 32.519531 53.324219 L 31.480469 53.324219 L 20.207031 25.136719 L 20.726562 24.359375 Z M 16.214844 24.359375 L 16.734375 24.699219 L 30.261719 57.394531 L 29.332031 58 L 0.0195312 25.304688 L 0.433594 24.359375 Z M 16.214844 24.359375 "/>
</g>
</svg>
