<svg xmlns="http://www.w3.org/2000/svg" xmlns:xlink="http://www.w3.org/1999/xlink" width="64" height="64" viewBox="0 0 64 64" version="1.1">
<defs>
<linearGradient id="linear0" gradientUnits="userSpaceOnUse" x1="0" y1="0" x2="0" y2="1" gradientTransform="matrix(64,0,0,64,0,0)">
<stop offset="0" style="stop-color:#ff6666;stop-opacity:1;"/>
<stop offset="1" style="stop-color:#d90000;stop-opacity:1;"/>
</linearGradient>
</defs>
<g id="surface1">
<path style=" stroke:none;fill-rule:nonzero;fill:url(#linear0);" d="M 32 0 C 30.925781 0.00390625 29.851562 0.0585938 28.78125 0.167969 C 27.765625 0.269531 26.761719 0.421875 25.773438 0.617188 C 25.730469 0.625 25.6875 0.632812 25.644531 0.636719 C 24.714844 0.824219 23.808594 1.070312 22.914062 1.335938 C 22.785156 1.371094 22.65625 1.402344 22.53125 1.4375 C 21.519531 1.753906 20.527344 2.109375 19.5625 2.519531 C 18.609375 2.921875 17.671875 3.375 16.761719 3.867188 C 14.957031 4.851562 13.246094 6.007812 11.664062 7.320312 C 10.871094 7.972656 10.113281 8.664062 9.386719 9.386719 C 8.695312 10.082031 8.039062 10.804688 7.414062 11.554688 C 7.375 11.601562 7.335938 11.644531 7.300781 11.6875 C 6.792969 12.3125 6.3125 12.957031 5.855469 13.617188 C 5.695312 13.847656 5.523438 14.070312 5.367188 14.304688 C 5.023438 14.839844 4.691406 15.378906 4.375 15.929688 C 4.152344 16.3125 3.925781 16.6875 3.71875 17.074219 C 3.460938 17.570312 3.21875 18.074219 2.988281 18.582031 C 2.773438 19.042969 2.5625 19.503906 2.367188 19.976562 C 2.179688 20.457031 2 20.945312 1.832031 21.4375 C 1.648438 21.957031 1.46875 22.472656 1.3125 23 C 1.179688 23.464844 1.058594 23.929688 0.949219 24.398438 C 0.8125 24.957031 0.675781 25.515625 0.570312 26.082031 C 0.472656 26.617188 0.390625 27.160156 0.324219 27.699219 C 0.257812 28.203125 0.1875 28.703125 0.144531 29.214844 C 0.0546875 30.140625 0.0078125 31.070312 0 32 C 0.00390625 33.074219 0.0585938 34.148438 0.167969 35.21875 C 0.71875 40.6875 2.65625 45.75 5.617188 50.0625 C 5.644531 50.101562 5.671875 50.140625 5.699219 50.179688 C 5.929688 50.511719 6.164062 50.835938 6.40625 51.15625 C 6.40625 51.144531 6.410156 51.136719 6.414062 51.125 C 12.257812 58.921875 21.539062 64 32 64 C 38.007812 64 43.621094 62.304688 48.429688 59.40625 L 48.4375 59.414062 C 48.503906 59.367188 48.566406 59.324219 48.632812 59.28125 C 49.394531 58.8125 50.136719 58.320312 50.855469 57.792969 C 51.023438 57.671875 51.1875 57.550781 51.351562 57.425781 C 51.980469 56.941406 52.59375 56.4375 53.1875 55.914062 C 53.429688 55.699219 53.667969 55.480469 53.898438 55.257812 C 54.394531 54.789062 54.871094 54.308594 55.335938 53.8125 C 55.613281 53.519531 55.886719 53.222656 56.148438 52.917969 C 56.585938 52.414062 57 51.898438 57.40625 51.367188 C 57.628906 51.082031 57.84375 50.792969 58.054688 50.5 C 58.480469 49.902344 58.878906 49.289062 59.261719 48.664062 C 59.421875 48.410156 59.578125 48.152344 59.730469 47.894531 C 60.113281 47.234375 60.460938 46.550781 60.792969 45.863281 C 60.925781 45.601562 61.050781 45.335938 61.175781 45.070312 C 61.472656 44.40625 61.738281 43.726562 61.992188 43.039062 C 62.117188 42.710938 62.238281 42.386719 62.351562 42.054688 C 62.570312 41.394531 62.761719 40.71875 62.9375 40.039062 C 63.03125 39.695312 63.117188 39.351562 63.199219 39.007812 C 63.34375 38.363281 63.457031 37.707031 63.5625 37.050781 C 63.636719 36.617188 63.699219 36.183594 63.757812 35.75 C 63.824219 35.1875 63.855469 34.617188 63.894531 34.042969 C 63.949219 33.363281 63.984375 32.683594 64 32 C 64 30.921875 63.941406 29.859375 63.835938 28.804688 L 63.832031 28.78125 C 63.726562 27.765625 63.578125 26.761719 63.382812 25.773438 C 63.371094 25.730469 63.371094 25.6875 63.363281 25.644531 C 63.171875 24.714844 62.929688 23.808594 62.660156 22.914062 C 62.625 22.792969 62.605469 22.664062 62.570312 22.542969 L 62.554688 22.5 C 62.242188 21.5 61.886719 20.519531 61.480469 19.5625 C 61.078125 18.609375 60.625 17.671875 60.128906 16.761719 C 59.148438 14.957031 57.992188 13.246094 56.679688 11.664062 C 56.027344 10.871094 55.335938 10.113281 54.613281 9.386719 C 53.917969 8.695312 53.195312 8.039062 52.441406 7.414062 C 52.40625 7.382812 52.371094 7.351562 52.335938 7.320312 C 52.328125 7.3125 52.320312 7.308594 52.3125 7.300781 C 51.6875 6.792969 51.042969 6.3125 50.378906 5.855469 C 50.152344 5.695312 49.929688 5.523438 49.691406 5.367188 C 49.160156 5.019531 48.621094 4.691406 48.066406 4.375 C 47.6875 4.152344 47.3125 3.925781 46.925781 3.71875 C 46.429688 3.460938 45.925781 3.21875 45.417969 2.988281 C 44.957031 2.773438 44.496094 2.5625 44.023438 2.367188 C 43.542969 2.175781 43.054688 2 42.5625 1.832031 C 42.042969 1.648438 41.527344 1.46875 41 1.3125 C 40.535156 1.179688 40.070312 1.058594 39.601562 0.949219 C 39.042969 0.8125 38.488281 0.675781 37.917969 0.570312 C 37.382812 0.472656 36.839844 0.390625 36.300781 0.324219 C 35.796875 0.257812 35.296875 0.1875 34.789062 0.144531 C 33.859375 0.0546875 32.929688 0.0078125 32 0 Z M 27.136719 4.617188 L 31.460938 14.769531 L 38.855469 8.488281 L 38.855469 26.039062 L 56 40 L 50.730469 43.503906 L 36.085938 43.355469 L 44.289062 54.476562 C 40.644531 56.464844 36.460938 57.601562 32 57.601562 C 21.332031 57.601562 12.230469 51.128906 8.375 41.886719 C 10.394531 34.089844 13.40625 26.5625 17.726562 22.363281 C 19.566406 15.585938 23.160156 9.972656 27.136719 4.617188 Z M 32.230469 28.800781 L 32.230469 31.523438 L 38.398438 32 C 37.605469 30.082031 35.878906 29.199219 32.230469 28.800781 Z M 32.230469 28.800781 "/>
</g>
</svg>
