<svg xmlns="http://www.w3.org/2000/svg" xmlns:xlink="http://www.w3.org/1999/xlink" width="64" height="64" viewBox="0 0 64 64" version="1.1">
<defs>
<linearGradient id="linear0" gradientUnits="userSpaceOnUse" x1="0" y1="0" x2="0" y2="1" gradientTransform="matrix(64,0,0,44.984375,0,9.507812)">
<stop offset="0" style="stop-color:#ff6666;stop-opacity:1;"/>
<stop offset="1" style="stop-color:#d90000;stop-opacity:1;"/>
</linearGradient>
</defs>
<g id="surface1">
<path style=" stroke:none;fill-rule:evenodd;fill:url(#linear0);" d="M 14.796875 50.484375 L 14.796875 54.492188 C 11.484375 54.417969 8.878906 53.332031 6.972656 51.230469 C 5.066406 49.128906 4.113281 46.085938 4.113281 42.097656 L 4.113281 39.160156 C 4.113281 37.589844 3.792969 36.328125 3.152344 35.367188 C 2.511719 34.402344 1.621094 33.921875 0.480469 33.921875 L 0 33.921875 L 0 29.96875 L 0.480469 29.96875 C 1.621094 29.96875 2.511719 29.5 3.152344 28.554688 C 3.792969 27.609375 4.113281 26.355469 4.113281 24.789062 L 4.113281 21.902344 C 4.113281 17.914062 5.066406 14.871094 6.972656 12.769531 C 8.878906 10.667969 11.484375 9.582031 14.796875 9.507812 L 14.796875 13.515625 C 12.804688 13.585938 11.308594 14.253906 10.308594 15.519531 C 9.3125 16.785156 8.816406 18.574219 8.816406 20.886719 L 8.816406 24.148438 C 8.816406 26.890625 8.378906 28.820312 7.503906 29.941406 C 6.632812 31.066406 5.253906 31.75 3.367188 32 C 5.253906 32.214844 6.632812 32.871094 7.503906 33.976562 C 8.378906 35.082031 8.816406 37.039062 8.816406 39.851562 L 8.816406 43.058594 C 8.816406 47.867188 10.808594 50.339844 14.796875 50.484375 Z M 45.300781 47.546875 L 22.277344 47.546875 L 22.277344 10.148438 L 26.925781 10.148438 L 26.925781 43.058594 L 45.300781 43.058594 Z M 49.203125 54.492188 L 49.203125 50.484375 C 53.15625 50.304688 55.132812 47.832031 55.132812 43.058594 L 55.132812 39.851562 C 55.132812 37.039062 55.566406 35.082031 56.441406 33.976562 C 57.3125 32.871094 58.695312 32.214844 60.582031 32 C 58.695312 31.75 57.3125 31.066406 56.441406 29.941406 C 55.566406 28.820312 55.132812 26.890625 55.132812 24.148438 L 55.132812 20.886719 C 55.132812 16.152344 53.15625 13.695312 49.203125 13.515625 L 49.203125 9.507812 C 52.480469 9.582031 55.070312 10.667969 56.976562 12.769531 C 58.878906 14.871094 59.832031 17.914062 59.832031 21.902344 L 59.832031 24.789062 C 59.832031 26.355469 60.164062 27.609375 60.820312 28.554688 C 61.480469 29.5 62.363281 29.96875 63.464844 29.96875 L 64 29.96875 L 64 33.921875 L 63.464844 33.921875 C 62.363281 33.921875 61.480469 34.402344 60.820312 35.367188 C 60.164062 36.328125 59.832031 37.589844 59.832031 39.160156 L 59.832031 42.097656 C 59.832031 46.085938 58.878906 49.128906 56.976562 51.230469 C 55.070312 53.332031 52.480469 54.417969 49.203125 54.492188 Z M 49.203125 54.492188 "/>
</g>
</svg>
