<svg xmlns="http://www.w3.org/2000/svg" xmlns:xlink="http://www.w3.org/1999/xlink" width="64" height="64" viewBox="0 0 64 64" version="1.1">
<defs>
<linearGradient id="linear0" gradientUnits="userSpaceOnUse" x1="0" y1="0" x2="0" y2="1" gradientTransform="matrix(60.335938,0,0,64,1.832031,0)">
<stop offset="0" style="stop-color:#ff6666;stop-opacity:1;"/>
<stop offset="1" style="stop-color:#d90000;stop-opacity:1;"/>
</linearGradient>
</defs>
<g id="surface1">
<path style=" stroke:none;fill-rule:nonzero;fill:url(#linear0);" d="M 12.515625 60.441406 C 12.515625 60.441406 16.332031 62.238281 21.410156 62.871094 C 23.464844 63.125 31.289062 64.023438 37.289062 64 C 37.289062 64 44.597656 64.007812 48.632812 63.433594 C 52.851562 62.835938 55.242188 62.070312 56.574219 60.542969 C 56.609375 60.179688 57.214844 58.992188 55.574219 57.847656 C 51.378906 54.921875 45.960938 54.121094 35.425781 51.621094 C 23.78125 48.691406 20.121094 45.890625 18.382812 43.859375 C 16.734375 41.828125 18.871094 37.601562 28.257812 35.53125 C 33.007812 34.375 49.71875 33.773438 49.71875 33.773438 C 44.644531 29.746094 36.09375 22.914062 34.148438 21.382812 C 32.4375 20.035156 29.683594 17.96875 29.390625 16.125 C 28.988281 14.328125 31.816406 13.460938 33.316406 13.363281 C 38.140625 13.03125 44.726562 14.304688 50.582031 15.46875 C 53.527344 16.054688 54.042969 15.96875 54.042969 15.96875 C 58.238281 16.167969 62.332031 13.261719 62.164062 8.636719 C 62.132812 3.945312 56.605469 0.183594 51.414062 0.0195312 C 46.164062 0 33.71875 0 33.71875 0 C 47.761719 2.894531 50.816406 4.355469 51.550781 6.042969 C 51.984375 7.042969 50.828125 8.035156 46.960938 7.84375 C 42.746094 7.632812 34.113281 6.609375 34.113281 6.609375 C 25.894531 5.347656 20.882812 4.148438 18.386719 7.410156 C 16.757812 9.539062 18.621094 12.136719 19.351562 13.664062 C 22.613281 19.355469 27.539062 23.257812 31.117188 26.007812 C 32.464844 27.042969 36.574219 29.335938 36.574219 29.335938 C 23.796875 25.84375 12.90625 27.804688 6.449219 31.199219 C -0.96875 35.59375 0.300781 43.003906 12.074219 49.933594 C 19.027344 54.027344 23.199219 55.992188 34.585938 57.390625 C 41.242188 58.449219 42.589844 58.886719 42.539062 59.441406 C 42.46875 60.21875 34.304688 60.515625 32.160156 60.664062 C 26.703125 61.039062 12.585938 60.445312 12.515625 60.445312 Z M 12.515625 60.441406 "/>
</g>
</svg>
