<svg xmlns="http://www.w3.org/2000/svg" xmlns:xlink="http://www.w3.org/1999/xlink" width="64" height="64" viewBox="0 0 64 64" version="1.1">
<defs>
<linearGradient id="linear0" gradientUnits="userSpaceOnUse" x1="0" y1="0" x2="0" y2="1" gradientTransform="matrix(64,0,0,64,0,0)">
<stop offset="0" style="stop-color:#ff6666;stop-opacity:1;"/>
<stop offset="1" style="stop-color:#d90000;stop-opacity:1;"/>
</linearGradient>
</defs>
<g id="surface1">
<path style=" stroke:none;fill-rule:nonzero;fill:url(#linear0);" d="M 45.425781 18.578125 C 46.980469 20.132812 46.980469 22.652344 45.425781 24.210938 L 24.210938 45.425781 C 22.652344 46.984375 20.132812 46.984375 18.574219 45.425781 C 17.019531 43.871094 17.019531 41.347656 18.574219 39.792969 L 39.792969 18.578125 C 41.347656 17.019531 43.867188 17.019531 45.425781 18.578125 Z M 21.054688 54.273438 C 17.933594 57.398438 12.851562 57.398438 9.726562 54.273438 C 6.605469 51.152344 6.605469 46.070312 9.726562 42.945312 L 24.765625 27.925781 C 19.71875 26.699219 14.171875 28.058594 10.234375 32 L 4.507812 37.726562 C -1.503906 43.734375 -1.503906 53.480469 4.507812 59.492188 C 10.519531 65.503906 20.265625 65.503906 26.277344 59.492188 L 32.003906 53.765625 C 35.941406 49.828125 37.300781 44.285156 36.078125 39.238281 Z M 37.726562 4.507812 L 32 10.234375 C 28.058594 14.171875 26.695312 19.707031 27.921875 24.753906 L 42.949219 9.726562 C 46.070312 6.605469 51.152344 6.605469 54.273438 9.726562 C 57.398438 12.851562 57.398438 17.933594 54.273438 21.054688 L 39.246094 36.082031 C 44.292969 37.304688 49.828125 35.941406 53.765625 32 L 59.492188 26.273438 C 65.503906 20.261719 65.503906 10.519531 59.492188 4.507812 C 53.480469 -1.503906 43.738281 -1.503906 37.726562 4.507812 Z M 37.726562 4.507812 "/>
</g>
</svg>
