<svg xmlns="http://www.w3.org/2000/svg" xmlns:xlink="http://www.w3.org/1999/xlink" width="64" height="64" viewBox="0 0 64 64" version="1.1">
<g id="surface1">
<path style=" stroke:none;fill-rule:evenodd;fill:rgb(57.647061%,58.431375%,59.215689%);fill-opacity:1;" d="M 35.488281 46.960938 L 27.71875 46.960938 L 27.71875 45.019531 C 27.71875 41.902344 28.261719 39.164062 29.351562 36.8125 C 30.441406 34.457031 31.765625 32.558594 33.324219 31.117188 C 34.882812 29.675781 36.441406 28.308594 38.003906 27.011719 C 39.5625 25.71875 40.886719 24.21875 41.976562 22.511719 C 43.0625 20.804688 43.609375 18.890625 43.609375 16.773438 C 43.609375 14.007812 42.636719 11.710938 40.695312 9.886719 C 38.753906 8.0625 36.074219 7.148438 32.660156 7.148438 C 28.71875 7.148438 25.644531 8.238281 23.4375 10.417969 C 21.230469 12.59375 20.125 15.507812 20.125 19.15625 L 12.625 19.15625 C 12.625 13.449219 14.460938 8.828125 18.140625 5.296875 C 21.820312 1.765625 26.660156 0 32.660156 0 C 38.546875 0 43.136719 1.589844 46.433594 4.765625 C 49.730469 7.945312 51.375 11.976562 51.375 16.859375 C 51.375 19.625 50.832031 22.070312 49.742188 24.1875 C 48.65625 26.304688 47.332031 28.058594 45.769531 29.441406 C 44.210938 30.824219 42.652344 32.175781 41.09375 33.5 C 39.53125 34.824219 38.207031 36.457031 37.121094 38.398438 C 36.03125 40.34375 35.488281 42.578125 35.488281 45.109375 Z M 35.796875 62.191406 C 34.589844 63.398438 33.132812 64 31.425781 64 C 29.71875 64 28.277344 63.398438 27.101562 62.191406 C 25.921875 60.984375 25.335938 59.585938 25.335938 57.996094 C 25.335938 56.347656 25.921875 54.921875 27.101562 53.714844 C 28.277344 52.507812 29.71875 51.90625 31.425781 51.90625 C 33.132812 51.90625 34.589844 52.523438 35.796875 53.761719 C 37.003906 54.996094 37.605469 56.410156 37.605469 57.996094 C 37.605469 59.585938 37.003906 60.984375 35.796875 62.191406 Z M 35.796875 62.191406 "/>
</g>
</svg>
