<svg xmlns="http://www.w3.org/2000/svg" xmlns:xlink="http://www.w3.org/1999/xlink" width="64" height="64" viewBox="0 0 64 64" version="1.1">
<defs>
<linearGradient id="linear0" gradientUnits="userSpaceOnUse" x1="0" y1="0" x2="0" y2="1" gradientTransform="matrix(64,0,0,46.625,0,8.6875)">
<stop offset="0" style="stop-color:#ff6666;stop-opacity:1;"/>
<stop offset="1" style="stop-color:#d90000;stop-opacity:1;"/>
</linearGradient>
</defs>
<g id="surface1">
<path style=" stroke:none;fill-rule:evenodd;fill:url(#linear0);" d="M 37.964844 39.335938 C 37.816406 42.488281 36.96875 45.28125 35.410156 47.710938 C 33.851562 50.121094 31.664062 51.988281 28.839844 53.316406 C 26.035156 54.644531 22.828125 55.3125 19.214844 55.3125 C 13.257812 55.3125 8.5625 53.371094 5.136719 49.488281 C 1.710938 45.605469 0 40.125 0 33.042969 L 0 30.800781 C 0 26.359375 0.769531 22.476562 2.304688 19.152344 C 3.863281 15.8125 6.09375 13.234375 9 11.429688 C 11.90625 9.601562 15.269531 8.6875 19.089844 8.6875 C 24.59375 8.6875 29.015625 10.144531 32.359375 13.050781 C 35.699219 15.933594 37.601562 19.921875 38.058594 25.007812 L 27.15625 25.007812 C 27.074219 22.246094 26.378906 20.265625 25.070312 19.058594 C 23.761719 17.855469 21.769531 17.253906 19.089844 17.253906 C 16.371094 17.253906 14.378906 18.269531 13.109375 20.304688 C 11.84375 22.339844 11.179688 25.589844 11.117188 30.054688 L 11.117188 33.261719 C 11.117188 38.097656 11.71875 41.554688 12.925781 43.632812 C 14.148438 45.707031 16.246094 46.746094 19.214844 46.746094 C 21.726562 46.746094 23.648438 46.15625 24.976562 44.972656 C 26.304688 43.789062 27.011719 41.910156 27.09375 39.335938 Z M 42.574219 17.003906 L 50.871094 17.03125 L 50.902344 8.6875 L 55.621094 8.707031 L 55.59375 17.046875 L 64 17.078125 L 63.984375 21.796875 L 55.578125 21.769531 L 55.546875 30.109375 L 50.828125 30.09375 L 50.855469 21.753906 L 42.554688 21.722656 Z M 42.484375 42.203125 L 50.785156 42.230469 L 50.8125 33.890625 L 55.535156 33.90625 L 55.503906 42.246094 L 63.910156 42.277344 L 63.894531 46.996094 L 55.488281 46.96875 L 55.457031 55.3125 L 50.738281 55.292969 L 50.765625 46.953125 L 42.46875 46.921875 Z M 42.484375 42.203125 "/>
</g>
</svg>
