<svg xmlns="http://www.w3.org/2000/svg" xmlns:xlink="http://www.w3.org/1999/xlink" width="64" height="64" viewBox="0 0 64 64" version="1.1">
<defs>
<linearGradient id="linear0" gradientUnits="userSpaceOnUse" x1="0" y1="0" x2="0" y2="1" gradientTransform="matrix(64,0,0,60.984375,0,1.375)">
<stop offset="0" style="stop-color:#ff6666;stop-opacity:1;"/>
<stop offset="1" style="stop-color:#d90000;stop-opacity:1;"/>
</linearGradient>
</defs>
<g id="surface1">
<path style=" stroke:none;fill-rule:nonzero;fill:url(#linear0);" d="M 31.6875 1.375 C 28.378906 1.382812 24.667969 1.882812 22.222656 2.644531 C 21.808594 2.773438 21.359375 2.878906 21.226562 2.878906 C 20.566406 2.878906 15.941406 4.945312 14.226562 6.011719 C 13.738281 6.3125 13.261719 6.566406 13.171875 6.566406 C 13.082031 6.566406 13.011719 6.621094 13.007812 6.691406 C 13.007812 6.804688 12.628906 7.074219 11.613281 7.679688 C 10.710938 8.222656 8.027344 10.78125 6.617188 12.445312 C 5.882812 13.3125 3.96875 15.996094 3.96875 16.160156 C 3.96875 16.207031 3.71875 16.683594 3.414062 17.222656 C 1.828125 20.027344 0.671875 23.859375 0.195312 27.902344 C -0.394531 32.890625 0.363281 38.175781 2.371094 42.984375 C 2.972656 44.425781 3.816406 46.0625 4.324219 46.789062 C 4.5 47.03125 4.636719 47.277344 4.636719 47.332031 C 4.636719 47.421875 5.207031 48.207031 6.28125 49.601562 C 6.773438 50.238281 7.851562 51.46875 8.496094 52.125 C 9.714844 53.371094 12.957031 55.96875 13.289062 55.96875 C 13.351562 55.96875 13.542969 56.097656 13.710938 56.25 C 14.078125 56.582031 14.25 56.679688 16.152344 57.621094 C 20.058594 59.558594 23.050781 60.472656 27.25 61.011719 C 32.597656 61.699219 39.40625 60.953125 43.875 59.195312 L 44.671875 58.882812 L 40.382812 54.660156 L 36.097656 50.433594 L 35.480469 50.566406 C 35.144531 50.640625 33.476562 50.699219 31.769531 50.699219 C 28.558594 50.699219 28.285156 50.652344 25.574219 49.765625 C 24.429688 49.390625 22.503906 48.433594 21.34375 47.660156 C 18.570312 45.8125 16.296875 43.226562 14.769531 40.183594 C 14.195312 39.035156 13.945312 38.390625 13.265625 36.210938 C 12.566406 33.960938 12.5625 28.453125 13.257812 26.238281 C 13.402344 25.78125 13.636719 25.023438 13.78125 24.5625 C 14.097656 23.550781 15.546875 20.636719 15.730469 20.636719 C 15.800781 20.636719 15.863281 20.546875 15.863281 20.441406 C 15.863281 19.988281 18.515625 16.996094 19.8125 15.980469 C 23.429688 13.164062 27.472656 11.757812 31.933594 11.757812 C 35.808594 11.757812 39.222656 12.777344 42.410156 14.898438 C 43.480469 15.609375 45.050781 16.949219 45.574219 17.597656 C 45.75 17.8125 46.019531 18.113281 46.175781 18.265625 C 47.1875 19.238281 48.984375 22.363281 49.644531 24.308594 C 50.472656 26.746094 50.695312 28.191406 50.695312 31.152344 C 50.699219 33.214844 50.617188 34.386719 50.425781 35.226562 L 50.160156 36.414062 L 54.820312 41.082031 C 57.386719 43.652344 59.570312 45.757812 59.667969 45.757812 C 59.855469 45.757812 60.875 43.824219 61.304688 42.65625 C 62.367188 39.761719 62.9375 37.609375 63.253906 35.289062 C 63.875 30.734375 63.554688 26.941406 62.140625 22.054688 C 61.417969 19.5625 58.882812 14.710938 57.460938 13.097656 C 55.953125 11.382812 53.683594 9.144531 52.558594 8.265625 C 51.28125 7.265625 49.28125 5.894531 49.105469 5.894531 C 49.066406 5.894531 48.667969 5.671875 48.210938 5.40625 C 47.367188 4.90625 44.992188 3.859375 43.332031 3.253906 C 40.175781 2.105469 35.585938 1.363281 31.6875 1.375 Z M 36.582031 26.691406 C 33.53125 26.71875 30.476562 26.746094 27.429688 26.777344 L 27.34375 26.785156 L 27.34375 35.539062 L 33.796875 41.898438 L 39.316406 47.347656 L 39.847656 47.871094 C 44.660156 52.648438 49.589844 57.511719 54.339844 62.359375 L 63.976562 62.28125 L 64 53.523438 L 50.535156 40.496094 L 50.574219 40.496094 L 43.027344 33.054688 Z M 36.582031 26.691406 "/>
</g>
</svg>
