<svg xmlns="http://www.w3.org/2000/svg" xmlns:xlink="http://www.w3.org/1999/xlink" width="64" height="64" viewBox="0 0 64 64" version="1.1">
<defs>
<linearGradient id="linear0" gradientUnits="userSpaceOnUse" x1="0" y1="0" x2="0" y2="1" gradientTransform="matrix(56,0,0,64,4,0)">
<stop offset="0" style="stop-color:#ff6666;stop-opacity:1;"/>
<stop offset="1" style="stop-color:#d90000;stop-opacity:1;"/>
</linearGradient>
<linearGradient id="linear1" gradientUnits="userSpaceOnUse" x1="0" y1="0" x2="0" y2="1" gradientTransform="matrix(25.046875,0,0,39.609375,11.765625,8)">
<stop offset="0" style="stop-color:#ff6666;stop-opacity:1;"/>
<stop offset="1" style="stop-color:#d90000;stop-opacity:1;"/>
</linearGradient>
<linearGradient id="linear2" gradientUnits="userSpaceOnUse" x1="0" y1="0" x2="0" y2="1" gradientTransform="matrix(8.648438,0,0,15.5,20.15625,12.90625)">
<stop offset="0" style="stop-color:#ff6666;stop-opacity:1;"/>
<stop offset="1" style="stop-color:#d90000;stop-opacity:1;"/>
</linearGradient>
</defs>
<g id="surface1">
<path style=" stroke:none;fill-rule:nonzero;fill:url(#linear0);" d="M 4 0 L 4 64 L 43 64 L 60 47 L 60 0 Z M 8 4 L 56 4 L 56 44 L 40 44 L 40 60 L 8 60 Z M 8 4 "/>
<path style=" stroke:none;fill-rule:evenodd;fill:url(#linear1);" d="M 11.980469 44.742188 C 11.902344 45.671875 11.832031 46.625 11.765625 47.609375 C 12.054688 47.257812 12.339844 46.914062 12.625 46.570312 C 12.953125 46.175781 13.277344 45.789062 13.597656 45.402344 C 22.644531 34.527344 28.550781 28.035156 34.214844 39.359375 C 35.082031 41.09375 35.945312 43.242188 36.8125 45.859375 C 36.523438 43.472656 36.195312 41.128906 35.816406 38.84375 C 33.855469 26.925781 30.605469 16.585938 25.273438 9.410156 C 24.914062 8.925781 24.542969 8.457031 24.164062 8 C 23.859375 8.523438 23.566406 9.039062 23.28125 9.550781 C 15.898438 22.621094 13.152344 31.007812 11.980469 44.742188 Z M 13.867188 42.484375 C 15.453125 40.601562 16.957031 38.871094 18.378906 37.390625 C 20.746094 34.933594 23.113281 32.921875 25.507812 32.128906 C 26.757812 31.71875 28.054688 31.621094 29.355469 31.992188 C 30.640625 32.359375 31.792969 33.144531 32.828125 34.253906 C 33.027344 34.46875 33.222656 34.695312 33.417969 34.9375 C 31.5 25.265625 28.621094 17 24.371094 11.003906 C 20.804688 17.378906 18.398438 22.582031 16.738281 27.867188 C 15.324219 32.375 14.441406 36.984375 13.867188 42.484375 Z M 13.867188 42.484375 "/>
<path style=" stroke:none;fill-rule:nonzero;fill:url(#linear2);" d="M 24.289062 12.90625 L 23.15625 22.9375 L 23.109375 22.9375 L 20.234375 24.023438 L 20.15625 24.054688 L 20.234375 24.09375 L 22.828125 25.5 L 22.851562 25.507812 L 22.859375 25.5 L 22.867188 25.5 L 22.539062 28.382812 L 22.617188 28.40625 L 24.328125 25.71875 L 26.125 28.40625 L 26.203125 28.382812 L 25.859375 25.515625 L 25.960938 25.515625 L 25.96875 25.507812 L 28.71875 24.09375 L 28.804688 24.054688 L 28.710938 24.023438 L 25.632812 22.9375 L 25.554688 22.9375 L 24.367188 12.90625 Z M 24.289062 12.90625 "/>
</g>
</svg>
