<svg xmlns="http://www.w3.org/2000/svg" xmlns:xlink="http://www.w3.org/1999/xlink" width="64" height="64" viewBox="0 0 64 64" version="1.1">
<defs>
<linearGradient id="linear0" gradientUnits="userSpaceOnUse" x1="0" y1="0" x2="0" y2="1" gradientTransform="matrix(64,0,0,53.015625,0,5.492188)">
<stop offset="0" style="stop-color:#ff6666;stop-opacity:1;"/>
<stop offset="1" style="stop-color:#d90000;stop-opacity:1;"/>
</linearGradient>
</defs>
<g id="surface1">
<path style=" stroke:none;fill-rule:evenodd;fill:url(#linear0);" d="M 13.472656 57.628906 L 6.003906 57.628906 L 8.054688 44.230469 L 0 44.230469 L 1.097656 36.980469 L 9.152344 36.980469 L 10.835938 25.777344 L 2.78125 25.777344 L 3.882812 18.527344 L 12.007812 18.527344 L 13.839844 6.371094 L 21.234375 6.371094 L 19.40625 18.527344 L 28.925781 18.527344 L 30.828125 6.371094 L 38.222656 6.371094 L 36.320312 18.527344 L 44.375 18.527344 L 43.351562 25.777344 L 35.222656 25.777344 L 33.539062 36.980469 L 41.59375 36.980469 L 40.496094 44.230469 L 32.4375 44.230469 L 30.390625 57.628906 L 22.992188 57.628906 L 25.042969 44.230469 L 15.523438 44.230469 Z M 18.304688 25.777344 L 16.621094 36.980469 L 26.140625 36.980469 L 27.824219 25.777344 Z M 60.191406 43.496094 L 55.796875 43.496094 L 53.675781 21.894531 L 53.675781 5.492188 L 62.242188 5.492188 L 62.242188 21.894531 Z M 57.996094 58.507812 C 56.285156 58.507812 54.871094 57.945312 53.75 56.824219 C 52.625 55.699219 52.0625 54.335938 52.0625 52.722656 C 52.0625 51.113281 52.625 49.734375 53.75 48.585938 C 54.871094 47.4375 56.285156 46.863281 57.996094 46.863281 C 59.65625 46.863281 61.070312 47.4375 62.242188 48.585938 C 63.414062 49.734375 64 51.113281 64 52.722656 C 64 54.285156 63.414062 55.640625 62.242188 56.789062 C 61.070312 57.933594 59.65625 58.507812 57.996094 58.507812 Z M 57.996094 58.507812 "/>
</g>
</svg>
