<svg xmlns="http://www.w3.org/2000/svg" xmlns:xlink="http://www.w3.org/1999/xlink" width="64" height="64" viewBox="0 0 64 64" version="1.1">
<defs>
<linearGradient id="linear0" gradientUnits="userSpaceOnUse" x1="0" y1="0" x2="0" y2="1" gradientTransform="matrix(64,0,0,50.664063,0,6.667969)">
<stop offset="0" style="stop-color:#ff6666;stop-opacity:1;"/>
<stop offset="1" style="stop-color:#d90000;stop-opacity:1;"/>
</linearGradient>
</defs>
<g id="surface1">
<path style=" stroke:none;fill-rule:evenodd;fill:url(#linear0);" d="M 32 6.667969 C 14.324219 6.667969 0 16.21875 0 28 C 0 37.285156 9.578125 45.164062 22 48.09375 L 22 41.027344 C 15.554688 38.125 10.667969 33.378906 10.667969 28 C 10.667969 19.164062 22.011719 12 36 12 C 49.988281 12 61.332031 19.167969 61.332031 28 C 61.332031 34.910156 54.773438 41.1875 45.050781 43.421875 C 45.832031 44.710938 46.613281 45.996094 47.390625 47.246094 C 57.507812 43.660156 64 36.171875 64 28 C 64 16.21875 49.675781 6.667969 32 6.667969 Z M 32 25.34375 L 37.324219 25.34375 C 40.269531 25.34375 42.65625 27.730469 42.65625 30.667969 C 42.65625 33.625 40.261719 36 37.324219 36 L 32 36 L 32 25.332031 Z M 24 17.34375 L 24 57.332031 L 32 57.332031 L 32 44 L 34.667969 44 L 42.667969 57.332031 L 50.667969 57.332031 L 42.667969 44 L 42.082031 43.082031 C 47.082031 41.164062 50.65625 36.355469 50.65625 30.667969 C 50.65625 23.3125 44.6875 17.34375 37.324219 17.34375 Z M 24 17.34375 "/>
</g>
</svg>
