<svg xmlns="http://www.w3.org/2000/svg" xmlns:xlink="http://www.w3.org/1999/xlink" width="64" height="64" viewBox="0 0 64 64" version="1.1">
<defs>
<linearGradient id="linear0" gradientUnits="userSpaceOnUse" x1="0" y1="0" x2="0" y2="1" gradientTransform="matrix(61.535156,0,0,64,1.234375,0)">
<stop offset="0" style="stop-color:#ff6666;stop-opacity:1;"/>
<stop offset="1" style="stop-color:#d90000;stop-opacity:1;"/>
</linearGradient>
</defs>
<g id="surface1">
<path style=" stroke:none;fill-rule:nonzero;fill:url(#linear0);" d="M 23.382812 0 L 28.304688 7.382812 L 30.78125 11.085938 L 30.867188 64 L 35.695312 64 L 35.695312 11.078125 L 38.15625 7.382812 L 43.078125 0 Z M 20.921875 12.304688 L 20.921875 16 L 25.84375 16 L 25.84375 12.304688 Z M 42.53125 18.953125 C 41.625 19.003906 40.644531 19.804688 40.648438 20.6875 L 40.617188 46.757812 C 40.617188 47.933594 42.351562 48.964844 43.34375 48.265625 L 62.023438 35.179688 C 63.019531 34.488281 63.019531 32.867188 62.023438 32.171875 L 43.375 19.179688 C 43.125 19.007812 42.832031 18.9375 42.53125 18.953125 Z M 16 19.695312 L 16 23.382812 L 25.84375 23.382812 L 25.84375 19.695312 Z M 6.15625 27.078125 L 6.15625 30.765625 L 25.84375 30.765625 L 25.84375 27.078125 Z M 1.234375 34.460938 L 1.234375 38.15625 L 25.84375 38.15625 L 25.84375 34.460938 Z M 6.15625 41.84375 L 6.15625 45.539062 L 25.84375 45.539062 L 25.84375 41.84375 Z M 16 49.234375 L 16 52.921875 L 25.84375 52.921875 L 25.84375 49.234375 Z M 16 49.234375 "/>
</g>
</svg>
