<svg xmlns="http://www.w3.org/2000/svg" xmlns:xlink="http://www.w3.org/1999/xlink" width="64" height="64" viewBox="0 0 64 64" version="1.1">
<defs>
<linearGradient id="linear0" gradientUnits="userSpaceOnUse" x1="0" y1="0" x2="0" y2="1" gradientTransform="matrix(64,0,0,64.007812,0,-0.00390625)">
<stop offset="0" style="stop-color:#ff6666;stop-opacity:1;"/>
<stop offset="1" style="stop-color:#d90000;stop-opacity:1;"/>
</linearGradient>
<linearGradient id="linear1" gradientUnits="userSpaceOnUse" x1="0" y1="0" x2="0" y2="1" gradientTransform="matrix(32,0,0,32,16,15.996094)">
<stop offset="0" style="stop-color:#ff6666;stop-opacity:1;"/>
<stop offset="1" style="stop-color:#d90000;stop-opacity:1;"/>
</linearGradient>
</defs>
<g id="surface1">
<path style=" stroke:none;fill-rule:nonzero;fill:url(#linear0);" d="M 29.929688 -0.00390625 L 27.757812 4.273438 C 26.292969 4.496094 24.847656 4.832031 23.4375 5.28125 L 19.625 2.398438 L 15.757812 4.304688 L 15.726562 9.085938 C 14.625 9.84375 13.574219 10.675781 12.59375 11.585938 L 7.9375 10.601562 L 5.09375 14.195312 L 7.1875 18.476562 C 6.625 19.507812 6.125 20.574219 5.695312 21.664062 L 1.023438 22.726562 L 0.0078125 27.429688 L 3.757812 30.367188 C 3.714844 30.914062 3.691406 31.453125 3.679688 32 C 3.683594 32.554688 3.699219 33.097656 3.734375 33.648438 L 0 36.570312 L 1.039062 41.273438 L 5.679688 42.328125 C 6.121094 43.417969 6.628906 44.476562 7.203125 45.5 L 5.101562 49.796875 L 7.945312 53.398438 L 12.609375 52.40625 C 13.585938 53.324219 14.628906 54.167969 15.726562 54.9375 L 15.757812 59.710938 L 19.601562 61.617188 L 23.414062 58.734375 C 24.832031 59.175781 26.28125 59.5 27.75 59.710938 L 29.914062 63.96875 L 34.070312 64.003906 L 36.242188 59.726562 C 37.707031 59.503906 39.152344 59.167969 40.5625 58.71875 L 44.375 61.601562 L 48.242188 59.695312 L 48.273438 54.914062 C 49.375 54.15625 50.425781 53.324219 51.40625 52.414062 L 56.0625 53.398438 L 58.90625 49.804688 L 56.8125 45.523438 C 57.375 44.492188 57.875 43.425781 58.304688 42.335938 L 62.976562 41.273438 L 63.992188 36.570312 L 60.242188 33.632812 C 60.285156 33.085938 60.308594 32.546875 60.320312 32 C 60.316406 31.445312 60.300781 30.902344 60.265625 30.351562 L 64 27.429688 L 62.960938 22.726562 L 58.320312 21.671875 C 57.878906 20.582031 57.371094 19.523438 56.796875 18.5 L 58.898438 14.203125 L 56.054688 10.601562 L 51.390625 11.59375 C 50.414062 10.675781 49.371094 9.832031 48.273438 9.0625 L 48.242188 4.289062 L 44.398438 2.382812 L 40.585938 5.265625 C 39.167969 4.824219 37.71875 4.5 36.25 4.289062 L 34.085938 0.03125 Z M 32 7.996094 C 45.253906 7.996094 56 18.742188 56 31.996094 C 56 45.25 45.253906 55.996094 32 55.996094 C 18.746094 55.996094 8 45.25 8 31.996094 C 8 18.742188 18.746094 7.996094 32 7.996094 Z M 32 7.996094 "/>
<path style=" stroke:none;fill-rule:nonzero;fill:url(#linear1);" d="M 33.277344 15.996094 C 42.234375 15.996094 46 19.996094 46 25.996094 C 46 31.332031 41.089844 33.839844 38.398438 34.316406 C 40.582031 34.890625 41.488281 37.113281 42.679688 40.796875 C 43.714844 43.996094 45.527344 43.996094 48 43.996094 L 48 47.996094 L 42 47.996094 C 38.851562 47.996094 38.308594 45.480469 37.199219 42.398438 C 35.613281 37.996094 34.394531 35.996094 30.800781 35.996094 L 26 35.996094 L 26 43.996094 L 30 43.996094 L 30 47.996094 L 16 47.996094 L 16 43.996094 L 20 43.996094 L 20 19.996094 L 16 19.996094 L 16 15.996094 Z M 26 31.996094 L 32.597656 31.996094 C 38 31.996094 39.417969 28.914062 39.417969 25.996094 C 39.417969 22.109375 36.871094 19.996094 32.578125 19.996094 L 26 19.996094 "/>
</g>
</svg>
