<svg xmlns="http://www.w3.org/2000/svg" xmlns:xlink="http://www.w3.org/1999/xlink" width="64" height="64" viewBox="0 0 64 64" version="1.1">
<defs>
<linearGradient id="linear0" gradientUnits="userSpaceOnUse" x1="0" y1="0" x2="0" y2="1" gradientTransform="matrix(59.703125,0,0,64,2.148438,0)">
<stop offset="0" style="stop-color:#ff6666;stop-opacity:1;"/>
<stop offset="1" style="stop-color:#d90000;stop-opacity:1;"/>
</linearGradient>
</defs>
<g id="surface1">
<path style=" stroke:none;fill-rule:nonzero;fill:url(#linear0);" d="M 32 0 C 24.089844 0 16.921875 1.210938 11.5625 3.273438 C 8.882812 4.304688 6.648438 5.535156 4.976562 7.054688 C 3.445312 8.449219 2.398438 10.191406 2.222656 12.132812 L 2.148438 12.132812 L 2.148438 51.324219 C 2.148438 54.132812 4.039062 56.5 6.746094 58.304688 C 9.453125 60.105469 13.136719 61.511719 17.621094 62.507812 C 26.585938 64.496094 37.40625 64.496094 46.371094 62.507812 C 50.855469 61.511719 54.539062 60.105469 57.246094 58.304688 C 59.953125 56.5 61.84375 54.132812 61.84375 51.324219 L 61.84375 12.734375 C 61.84375 12.714844 61.851562 12.691406 61.851562 12.667969 C 61.851562 12.644531 61.84375 12.625 61.84375 12.601562 L 61.84375 12.132812 L 61.777344 12.132812 C 61.601562 10.191406 60.554688 8.449219 59.023438 7.054688 C 57.351562 5.535156 55.117188 4.304688 52.4375 3.273438 C 47.078125 1.210938 39.910156 0 32 0 Z M 32 3.859375 C 39.507812 3.859375 46.300781 5.054688 51.046875 6.878906 C 53.417969 7.792969 55.269531 8.867188 56.421875 9.917969 C 57.578125 10.964844 57.984375 11.867188 57.984375 12.667969 C 57.984375 13.472656 57.578125 14.371094 56.421875 15.421875 C 55.269531 16.46875 53.417969 17.546875 51.046875 18.457031 C 46.300781 20.285156 39.507812 21.480469 32 21.480469 C 24.492188 21.480469 17.699219 20.285156 12.953125 18.457031 C 10.582031 17.546875 8.730469 16.46875 7.578125 15.421875 C 6.421875 14.371094 6.015625 13.472656 6.015625 12.667969 C 6.015625 11.867188 6.421875 10.964844 7.578125 9.917969 C 8.730469 8.867188 10.582031 7.792969 12.953125 6.878906 C 17.699219 5.054688 24.492188 3.859375 32 3.859375 Z M 6.007812 19.019531 C 7.542969 20.1875 9.359375 21.21875 11.5625 22.066406 C 16.921875 24.128906 24.089844 25.339844 32 25.339844 C 39.910156 25.339844 47.078125 24.128906 52.4375 22.066406 C 54.640625 21.21875 56.449219 20.1875 57.984375 19.019531 L 57.984375 25.554688 C 57.984375 26.582031 57.222656 27.90625 55.105469 29.316406 C 52.992188 30.722656 49.6875 32.042969 45.535156 32.964844 C 37.222656 34.808594 26.769531 34.808594 18.457031 32.964844 C 14.304688 32.042969 11.007812 30.722656 8.894531 29.316406 C 6.777344 27.90625 6.007812 26.582031 6.007812 25.554688 Z M 6.007812 31.949219 C 6.257812 32.140625 6.476562 32.351562 6.746094 32.527344 C 9.453125 34.332031 13.136719 35.746094 17.621094 36.742188 C 26.585938 38.730469 37.40625 38.730469 46.371094 36.742188 C 50.855469 35.746094 54.539062 34.332031 57.246094 32.527344 C 57.515625 32.351562 57.734375 32.140625 57.984375 31.949219 L 57.984375 38.433594 C 57.984375 39.460938 57.222656 40.785156 55.105469 42.195312 C 52.992188 43.601562 49.6875 44.929688 45.535156 45.851562 C 37.222656 47.699219 26.769531 47.699219 18.457031 45.851562 C 14.304688 44.929688 11.007812 43.601562 8.894531 42.195312 C 6.777344 40.785156 6.007812 39.460938 6.007812 38.433594 Z M 6.007812 44.835938 C 6.257812 45.027344 6.476562 45.238281 6.746094 45.414062 C 9.453125 47.21875 13.136719 48.632812 17.621094 49.628906 C 26.585938 51.617188 37.40625 51.617188 46.371094 49.628906 C 50.855469 48.632812 54.539062 47.21875 57.246094 45.414062 C 57.515625 45.238281 57.734375 45.027344 57.984375 44.835938 L 57.984375 51.324219 C 57.984375 52.347656 57.222656 53.671875 55.105469 55.082031 C 52.992188 56.488281 49.6875 57.816406 45.535156 58.738281 C 37.222656 60.585938 26.769531 60.585938 18.457031 58.738281 C 14.304688 57.816406 11.007812 56.488281 8.894531 55.082031 C 6.777344 53.671875 6.007812 52.347656 6.007812 51.324219 Z M 6.007812 44.835938 "/>
</g>
</svg>
