<svg xmlns="http://www.w3.org/2000/svg" xmlns:xlink="http://www.w3.org/1999/xlink" width="64" height="64" viewBox="0 0 64 64" version="1.1">
<defs>
<linearGradient id="linear0" gradientUnits="userSpaceOnUse" x1="0" y1="0" x2="0" y2="1" gradientTransform="matrix(48,0,0,64,8,0)">
<stop offset="0" style="stop-color:#ff6666;stop-opacity:1;"/>
<stop offset="1" style="stop-color:#d90000;stop-opacity:1;"/>
</linearGradient>
</defs>
<g id="surface1">
<path style=" stroke:none;fill-rule:evenodd;fill:url(#linear0);" d="M 44.664062 0.140625 C 42.953125 -0.0546875 41.582031 -0.0546875 40.324219 0.191406 C 39.066406 0.4375 37.902344 1.035156 37.207031 1.789062 C 36.515625 2.542969 36.296875 3.285156 36.191406 3.648438 C 33.75 8.4375 30.867188 13.195312 28.226562 17.269531 C 24.96875 22.097656 21.167969 27.71875 19.183594 32.253906 C 17.976562 35.023438 16.675781 38.363281 15.394531 41.839844 C 12.730469 49.128906 10.335938 56.414062 8 63.738281 C 11.796875 64 11.796875 63.980469 14.726562 64 C 16.886719 60.039062 20.464844 56.273438 23.457031 53.519531 C 28.636719 48.792969 36.113281 43.957031 43.25 42.878906 L 45.65625 42.519531 C 45.789062 35.050781 46.46875 26.96875 50.160156 20.417969 C 51.675781 17.695312 53.785156 15.535156 55.742188 13.0625 C 56.246094 12.65625 55.847656 12.175781 55.902344 11.734375 C 54.441406 4.484375 49.492188 0.886719 44.800781 0.15625 C 44.75 0.164062 44.703125 0.144531 44.660156 0.140625 Z M 44.664062 0.140625 "/>
</g>
</svg>
