<svg xmlns="http://www.w3.org/2000/svg" xmlns:xlink="http://www.w3.org/1999/xlink" width="64" height="64" viewBox="0 0 64 64" version="1.1">
<g id="surface1">
<path style=" stroke:none;fill-rule:evenodd;fill:rgb(57.647061%,58.431375%,59.215689%);fill-opacity:1;" d="M 7.546875 13.351562 C 12.382812 8.390625 18.949219 5.574219 25.8125 5.515625 L 25.84375 9.046875 C 19.890625 9.097656 14.203125 11.539062 10.011719 15.835938 C 5.820312 20.136719 3.46875 25.945312 3.46875 32 C 3.46875 38.054688 5.820312 43.863281 10.011719 48.164062 C 14.199219 52.460938 19.886719 54.898438 25.835938 54.953125 L 64 54.953125 L 64 58.484375 L 25.8125 58.484375 C 18.949219 58.425781 12.382812 55.609375 7.546875 50.648438 C 2.710938 45.6875 0 38.984375 0 32 C 0 25.015625 2.710938 18.3125 7.546875 13.351562 Z M 24.859375 12.605469 C 27.675781 12.460938 30.488281 12.949219 33.09375 14.042969 L 31.773438 17.308594 C 29.640625 16.414062 27.339844 16.011719 25.035156 16.132812 C 22.730469 16.25 20.480469 16.890625 18.445312 18 C 16.414062 19.109375 14.648438 20.664062 13.273438 22.550781 C 11.902344 24.441406 10.957031 26.613281 10.511719 28.917969 C 10.0625 31.21875 10.121094 33.597656 10.683594 35.875 C 11.246094 38.148438 12.296875 40.273438 13.761719 42.085938 C 15.226562 43.902344 17.070312 45.363281 19.15625 46.367188 C 21.242188 47.371094 23.519531 47.890625 25.828125 47.890625 L 64 47.890625 L 64 51.421875 L 25.828125 51.421875 C 23.007812 51.421875 20.222656 50.785156 17.671875 49.558594 C 15.121094 48.332031 12.871094 46.546875 11.082031 44.328125 C 9.292969 42.109375 8.007812 39.515625 7.320312 36.734375 C 6.632812 33.949219 6.558594 31.046875 7.105469 28.230469 C 7.652344 25.417969 8.808594 22.757812 10.484375 20.453125 C 12.160156 18.144531 14.320312 16.246094 16.804688 14.886719 C 19.289062 13.53125 22.039062 12.75 24.859375 12.605469 Z M 29.355469 20.171875 C 27.441406 19.582031 25.417969 19.480469 23.457031 19.878906 C 21.5 20.273438 19.667969 21.15625 18.121094 22.445312 C 16.578125 23.734375 15.371094 25.390625 14.605469 27.269531 C 13.839844 29.148438 13.542969 31.1875 13.738281 33.210938 C 13.9375 35.234375 14.617188 37.175781 15.730469 38.867188 C 16.839844 40.554688 18.339844 41.941406 20.101562 42.898438 C 21.863281 43.855469 23.832031 44.359375 25.828125 44.359375 L 64 44.359375 L 64 40.828125 L 25.828125 40.828125 C 24.402344 40.828125 22.996094 40.46875 21.738281 39.785156 C 20.480469 39.101562 19.40625 38.109375 18.613281 36.902344 C 17.820312 35.695312 17.332031 34.308594 17.195312 32.863281 C 17.054688 31.417969 17.265625 29.960938 17.8125 28.621094 C 18.359375 27.28125 19.222656 26.097656 20.324219 25.175781 C 21.425781 24.253906 22.734375 23.625 24.136719 23.339844 C 25.535156 23.058594 26.980469 23.128906 28.347656 23.550781 C 29.710938 23.972656 30.953125 24.730469 31.960938 25.757812 L 34.417969 23.261719 C 33.003906 21.824219 31.265625 20.761719 29.355469 20.171875 Z M 29.355469 20.171875 "/>
</g>
</svg>
