<svg xmlns="http://www.w3.org/2000/svg" xmlns:xlink="http://www.w3.org/1999/xlink" width="64" height="64" viewBox="0 0 64 64" version="1.1">
<defs>
<linearGradient id="linear0" gradientUnits="userSpaceOnUse" x1="0" y1="0" x2="0" y2="1" gradientTransform="matrix(64,0,0,64,0,0)">
<stop offset="0" style="stop-color:#ff6666;stop-opacity:1;"/>
<stop offset="1" style="stop-color:#d90000;stop-opacity:1;"/>
</linearGradient>
</defs>
<g id="surface1">
<path style=" stroke:none;fill-rule:nonzero;fill:url(#linear0);" d="M 4.15625 0 C 1.863281 0.00390625 0.00390625 1.863281 0 4.15625 L 0 35.230469 C 0 37.519531 1.867188 39.382812 4.15625 39.382812 L 9.847656 39.382812 L 9.847656 46.769531 L 17.230469 54.152344 L 24.617188 54.152344 L 24.617188 59.847656 C 24.617188 62.136719 26.480469 64 28.769531 64 L 59.84375 64 C 62.136719 63.996094 63.996094 62.136719 64 59.84375 L 64 28.769531 C 63.996094 26.476562 62.136719 24.617188 59.84375 24.617188 L 39.382812 24.617188 L 39.382812 4.152344 C 39.378906 1.859375 37.523438 0.00390625 35.230469 0 Z M 4.921875 4.921875 L 34.460938 4.921875 L 34.460938 24.617188 L 28.769531 24.617188 C 27.816406 24.617188 26.933594 24.921875 26.234375 25.460938 C 25.222656 24.875 24.296875 24.335938 23.460938 23.769531 C 25.6875 21.472656 27.554688 18.855469 29 16 C 29.210938 15.625 29.316406 15.199219 29.308594 14.769531 L 32 14.769531 L 32 9.847656 L 22.152344 9.847656 L 22.152344 7.382812 L 17.230469 7.382812 L 17.230469 9.847656 L 7.382812 9.847656 L 7.382812 14.769531 L 12.617188 14.769531 C 11.960938 15.007812 11.4375 15.507812 11.171875 16.152344 C 10.90625 16.800781 10.929688 17.523438 11.230469 18.152344 C 11.230469 18.152344 12.050781 19.882812 14 22.078125 C 14.511719 22.644531 15.097656 23.277344 15.769531 23.921875 C 12.277344 26.472656 9.308594 27.617188 9.308594 27.617188 C 8.378906 27.820312 7.652344 28.542969 7.441406 29.472656 C 7.230469 30.394531 7.570312 31.359375 8.3125 31.949219 C 9.054688 32.539062 10.070312 32.648438 10.921875 32.230469 C 10.921875 32.230469 15.058594 30.691406 19.691406 27.078125 C 20.972656 28.011719 22.347656 28.980469 24 29.921875 C 24.195312 30.027344 24.402344 30.105469 24.617188 30.152344 L 24.617188 34.460938 L 14.769531 34.460938 L 13.539062 33.230469 L 12.308594 34.460938 L 4.921875 34.460938 Z M 14.308594 14.769531 L 24 14.769531 C 22.792969 16.941406 21.289062 18.933594 19.539062 20.691406 C 18.890625 20.105469 18.277344 19.492188 17.691406 18.84375 C 16.085938 17.046875 15.691406 16.15625 15.691406 16.15625 C 15.441406 15.519531 14.941406 15.019531 14.304688 14.769531 Z M 41.769531 32.769531 L 46.921875 32.769531 L 55.382812 55.691406 L 50.078125 55.691406 L 48.382812 50.769531 L 40.230469 50.769531 L 38.539062 55.691406 L 33.230469 55.691406 Z M 44.230469 39.078125 L 41.460938 47.152344 L 47.152344 47.152344 L 44.382812 39.078125 Z M 17.230469 39.382812 L 24.617188 39.382812 L 24.617188 46.769531 L 17.230469 46.769531 Z M 17.230469 39.382812 "/>
</g>
</svg>
