<svg xmlns="http://www.w3.org/2000/svg" xmlns:xlink="http://www.w3.org/1999/xlink" width="64" height="64" viewBox="0 0 64 64" version="1.1">
<defs>
<linearGradient id="linear0" gradientUnits="userSpaceOnUse" x1="0" y1="0" x2="0" y2="1" gradientTransform="matrix(49.777344,0,0,64,7.109375,0)">
<stop offset="0" style="stop-color:#ff6666;stop-opacity:1;"/>
<stop offset="1" style="stop-color:#d90000;stop-opacity:1;"/>
</linearGradient>
</defs>
<g id="surface1">
<path style=" stroke:none;fill-rule:nonzero;fill:url(#linear0);" d="M 30.675781 0 C 29.914062 0 29.296875 0.570312 29.296875 1.28125 L 29.296875 4.398438 C 26.875 5.386719 25.164062 7.621094 25.164062 10.238281 C 25.164062 13.765625 28.253906 16.636719 32.054688 16.636719 C 35.859375 16.636719 38.949219 13.765625 38.949219 10.238281 C 38.949219 7.621094 37.238281 5.386719 34.8125 4.398438 L 34.8125 1.28125 C 34.8125 0.570312 34.199219 0 33.433594 0 Z M 23.914062 15.035156 L 16.632812 33.269531 L 8.578125 33.269531 C 8.183594 33.25 7.796875 33.382812 7.515625 33.644531 C 7.234375 33.90625 7.089844 34.265625 7.113281 34.632812 C 7.160156 35.335938 7.820312 35.875 8.578125 35.828125 L 29.296875 35.828125 L 29.296875 39.667969 C 29.296875 40.378906 29.914062 40.949219 30.675781 40.949219 L 33.433594 40.949219 C 34.199219 40.949219 34.8125 40.378906 34.8125 39.667969 L 34.8125 35.828125 L 55.492188 35.828125 C 55.988281 35.835938 56.449219 35.59375 56.703125 35.195312 C 56.949219 34.796875 56.949219 34.304688 56.703125 33.90625 C 56.449219 33.507812 55.984375 33.265625 55.492188 33.269531 L 47.476562 33.269531 L 40.199219 15.035156 C 38.613281 17.367188 35.957031 18.886719 33.003906 19.15625 L 38.863281 33.269531 L 34.8125 33.269531 L 34.8125 29.433594 C 34.8125 28.722656 34.199219 28.152344 33.433594 28.152344 L 30.675781 28.152344 C 29.914062 28.152344 29.296875 28.722656 29.296875 29.433594 L 29.296875 33.269531 L 25.25 33.269531 L 31.109375 19.15625 C 28.152344 18.886719 25.5 17.367188 23.914062 15.035156 Z M 14.652344 38.269531 L 9.050781 52.265625 C 8.957031 52.539062 8.957031 52.832031 9.050781 53.105469 L 11.378906 60.304688 L 11.378906 62.703125 C 11.371094 63.164062 11.632812 63.589844 12.0625 63.828125 C 12.492188 64.058594 13.019531 64.058594 13.449219 63.828125 C 13.882812 63.589844 14.140625 63.160156 14.132812 62.703125 L 14.132812 60.304688 L 23.226562 38.269531 Z M 40.886719 38.269531 L 49.976562 60.304688 L 49.976562 62.703125 C 49.972656 63.164062 50.230469 63.589844 50.660156 63.828125 C 51.09375 64.058594 51.617188 64.058594 52.050781 63.828125 C 52.480469 63.589844 52.738281 63.160156 52.734375 62.703125 L 52.734375 60.304688 L 55.0625 53.105469 C 55.148438 52.835938 55.167969 52.527344 55.0625 52.265625 L 49.460938 38.269531 Z M 40.886719 38.269531 "/>
</g>
</svg>
