<svg xmlns="http://www.w3.org/2000/svg" xmlns:xlink="http://www.w3.org/1999/xlink" width="64" height="64" viewBox="0 0 64 64" version="1.1">
<defs>
<linearGradient id="linear0" gradientUnits="userSpaceOnUse" x1="0" y1="0" x2="0" y2="1" gradientTransform="matrix(53.039062,0,0,64,5.1875,0)">
<stop offset="0" style="stop-color:#ff6666;stop-opacity:1;"/>
<stop offset="1" style="stop-color:#d90000;stop-opacity:1;"/>
</linearGradient>
</defs>
<g id="surface1">
<path style=" stroke:none;fill-rule:nonzero;fill:url(#linear0);" d="M 16.15625 0 L 16.15625 5.484375 L 18 5.484375 L 18 9.140625 L 14.34375 9.140625 L 14.34375 14.65625 L 18 14.65625 L 18 31.078125 L 5.1875 31.078125 L 5.1875 32.90625 L 18 32.90625 L 18 47.515625 L 14.34375 47.515625 L 14.34375 53.03125 L 18 53.03125 L 18 56.6875 L 15.257812 56.6875 L 18.914062 64 L 22.570312 56.6875 L 19.828125 56.6875 L 19.828125 53.03125 L 36.289062 53.03125 C 48.445312 53.03125 58.226562 43.242188 58.226562 31.085938 C 58.226562 18.929688 48.445312 9.140625 36.289062 9.140625 L 19.828125 9.140625 L 19.828125 5.484375 L 21.640625 5.484375 L 21.640625 0 Z M 19.828125 14.65625 L 36.289062 14.65625 C 45.488281 14.65625 52.710938 21.886719 52.710938 31.085938 C 52.710938 40.285156 45.488281 47.515625 36.289062 47.515625 L 19.828125 47.515625 L 19.828125 32.90625 L 25.3125 32.90625 L 21.65625 40.226562 L 39.945312 40.226562 L 36.28125 32.90625 L 41.773438 32.90625 L 41.773438 35.65625 L 49.085938 32 L 41.773438 28.34375 L 41.773438 31.078125 L 35.367188 31.078125 L 30.796875 21.945312 L 26.234375 31.078125 L 19.828125 31.078125 Z M 19.828125 14.65625 "/>
</g>
</svg>
