<svg xmlns="http://www.w3.org/2000/svg" xmlns:xlink="http://www.w3.org/1999/xlink" width="64" height="64" viewBox="0 0 64 64" version="1.1">
<defs>
<linearGradient id="linear0" gradientUnits="userSpaceOnUse" x1="0" y1="0" x2="0" y2="1" gradientTransform="matrix(46.933594,0,0,64,8.535156,0)">
<stop offset="0" style="stop-color:#ff6666;stop-opacity:1;"/>
<stop offset="1" style="stop-color:#d90000;stop-opacity:1;"/>
</linearGradient>
</defs>
<g id="surface1">
<path style=" stroke:none;fill-rule:nonzero;fill:url(#linear0);" d="M 32.039062 0.00390625 C 24.484375 0.0117188 17.089844 3.460938 12.539062 9.84375 C 5.460938 19.808594 8.03125 33.308594 18.132812 40.347656 L 18.132812 61.332031 L 21.59375 61.332031 L 21.59375 64 L 42.449219 64 L 42.449219 61.332031 L 45.871094 61.332031 L 45.871094 40.347656 C 48.042969 38.828125 49.957031 36.992188 51.464844 34.859375 C 58.6875 24.652344 55.875 10.753906 45.128906 3.84375 C 41.105469 1.257812 36.554688 0 32.015625 0 M 31.984375 4.0625 C 35.683594 4.0625 39.421875 5.082031 42.730469 7.207031 C 51.539062 12.871094 53.851562 24.183594 47.902344 32.566406 C 46.527344 34.496094 44.785156 36.179688 42.746094 37.496094 L 42.398438 42.671875 L 21.542969 42.671875 L 21.238281 37.496094 C 12.410156 31.828125 10.109375 20.519531 16.078125 12.132812 C 19.796875 6.894531 25.832031 4.054688 31.984375 4.082031 M 21.558594 45.347656 L 42.414062 45.347656 L 42.414062 50.667969 L 21.558594 50.667969 M 21.558594 53.335938 L 42.414062 53.335938 L 42.414062 57.90625 L 21.558594 57.90625 "/>
</g>
</svg>
