<svg xmlns="http://www.w3.org/2000/svg" xmlns:xlink="http://www.w3.org/1999/xlink" width="64" height="64" viewBox="0 0 64 64" version="1.1">
<defs>
<linearGradient id="linear0" gradientUnits="userSpaceOnUse" x1="0" y1="0" x2="0" y2="1" gradientTransform="matrix(64,0,0,58.617188,0,2.691406)">
<stop offset="0" style="stop-color:#ff6666;stop-opacity:1;"/>
<stop offset="1" style="stop-color:#d90000;stop-opacity:1;"/>
</linearGradient>
</defs>
<g id="surface1">
<path style=" stroke:none;fill-rule:nonzero;fill:url(#linear0);" d="M 19.144531 2.691406 C 13.632812 2.691406 9.179688 4.695312 5.792969 8.707031 C 1.933594 13.277344 0 19.46875 0 27.300781 C 0 33.128906 1.117188 38.195312 3.375 42.484375 C 6.804688 48.871094 12.070312 52.058594 19.144531 52.058594 C 20.671875 58.882812 24.890625 62.472656 34.804688 60.96875 L 34.804688 56.019531 C 30.191406 56.445312 29.1875 53.90625 28.828125 49.417969 L 28.828125 49.125 C 30.214844 48.238281 31.476562 47.136719 32.605469 45.785156 C 36.292969 41.355469 38.144531 35.179688 38.144531 27.300781 C 38.144531 21.425781 36.964844 16.371094 34.621094 12.082031 C 31.152344 5.832031 26 2.691406 19.144531 2.691406 Z M 56.296875 4.671875 L 49.328125 4.855469 L 47.019531 15.785156 L 42.066406 15.785156 L 42.066406 23.964844 L 46.617188 23.964844 L 46.617188 39.625 C 46.617188 43.914062 47.226562 46.921875 48.414062 48.644531 C 49.90625 50.929688 53.074219 52.058594 57.949219 52.058594 C 59.574219 52.058594 61.585938 51.835938 64 51.324219 L 64 43.546875 C 62.332031 43.640625 61.09375 43.695312 60.257812 43.695312 C 58.898438 43.695312 57.933594 43.464844 57.363281 43 C 56.660156 42.4375 56.296875 40.992188 56.296875 38.707031 L 56.296875 23.964844 L 63.488281 23.964844 L 63.488281 15.785156 L 56.296875 15.785156 Z M 19.144531 11.859375 C 24.527344 11.859375 27.214844 17.023438 27.214844 27.375 C 27.214844 37.726562 24.527344 42.925781 19.144531 42.925781 C 13.675781 42.925781 10.929688 37.699219 10.929688 27.300781 C 10.929688 26.882812 10.929688 26.472656 10.929688 26.054688 C 11.191406 16.589844 13.9375 11.859375 19.144531 11.859375 Z M 19.144531 11.859375 "/>
</g>
</svg>
