<svg xmlns="http://www.w3.org/2000/svg" xmlns:xlink="http://www.w3.org/1999/xlink" width="64" height="64" viewBox="0 0 64 64" version="1.1">
<defs>
<linearGradient id="linear0" gradientUnits="userSpaceOnUse" x1="0" y1="0" x2="0" y2="1" gradientTransform="matrix(64,0,0,43.867188,0,10.066406)">
<stop offset="0" style="stop-color:#ff6666;stop-opacity:1;"/>
<stop offset="1" style="stop-color:#d90000;stop-opacity:1;"/>
</linearGradient>
</defs>
<g id="surface1">
<path style=" stroke:none;fill-rule:evenodd;fill:url(#linear0);" d="M 32.253906 10.066406 C 32.253906 10.066406 29.800781 12.003906 27.300781 13.929688 C 24.730469 13.847656 19.683594 14.425781 16.953125 15.417969 C 14.433594 13.824219 12.222656 12.0625 12.222656 12.0625 C 12.222656 12.0625 10.332031 15.316406 9.144531 17.222656 C 7.378906 18.160156 5.609375 19.214844 4.03125 20.609375 C 2.195312 19.882812 0.0703125 18.992188 0 18.964844 C 2.429688 23.867188 4.0625 28.773438 8.507812 31.726562 C 15.582031 20.550781 48.460938 21.582031 55.683594 31.660156 C 60.347656 29.226562 62.164062 23.988281 64 19.15625 C 63.796875 19.222656 61.300781 20.058594 59.683594 20.675781 C 58.714844 19.621094 56.4375 18.003906 55.144531 17.222656 C 53.914062 14.972656 52.128906 11.933594 52.128906 11.933594 C 52.128906 11.933594 50.007812 13.511719 47.554688 15.226562 C 44.238281 14.617188 40.230469 13.871094 36.855469 14.058594 C 34.5625 12.167969 32.253906 10.066406 32.253906 10.066406 Z M 2.511719 29.382812 C 2.511719 29.382812 5.957031 37.722656 8.347656 43.515625 C 18.484375 56.890625 44.371094 57.820312 55.65625 43.777344 C 58.324219 37.757812 61.929688 29.300781 61.929688 29.300781 C 59.03125 33.589844 54.320312 36.550781 51.417969 38.144531 C 49.359375 39.273438 44.601562 39.957031 44.601562 39.957031 L 32.109375 33.484375 L 19.546875 39.828125 C 19.546875 39.828125 14.851562 39.074219 12.726562 38.078125 C 8.4375 35.789062 5.554688 33.085938 2.511719 29.382812 Z M 2.511719 29.382812 "/>
</g>
</svg>
