<svg xmlns="http://www.w3.org/2000/svg" xmlns:xlink="http://www.w3.org/1999/xlink" width="64" height="64" viewBox="0 0 64 64" version="1.1">
<defs>
<linearGradient id="linear0" gradientUnits="userSpaceOnUse" x1="0" y1="0" x2="0" y2="1" gradientTransform="matrix(64,0,0,55.46875,0,4.265625)">
<stop offset="0" style="stop-color:#ff6666;stop-opacity:1;"/>
<stop offset="1" style="stop-color:#d90000;stop-opacity:1;"/>
</linearGradient>
</defs>
<g id="surface1">
<path style=" stroke:none;fill-rule:nonzero;fill:url(#linear0);" d="M 23.449219 55.914062 C 23.238281 53.453125 25.609375 51.128906 28.914062 51 C 29.496094 51 30.117188 51.085938 30.769531 51.230469 C 31.539062 51.402344 32.621094 51.433594 33.269531 51.488281 C 33.496094 51.335938 33.484375 51.195312 33.183594 50.445312 C 32.300781 48.210938 30.476562 45.722656 28.15625 45.035156 C 27.667969 44.890625 26.925781 44.804688 26.207031 44.789062 C 21.402344 44.910156 17.902344 49.515625 15.714844 52.957031 C 15.015625 54.046875 14.195312 55.28125 13.890625 55.691406 C 12.351562 57.796875 10.550781 58.992188 8.738281 59.519531 C 8.058594 59.71875 6.414062 59.800781 5.734375 59.667969 C 2.113281 58.976562 -0.308594 55.515625 0.03125 51.8125 C 0.0585938 51.5 0.109375 51.242188 0.132812 51.246094 C 0.160156 51.253906 0.304688 51.414062 0.457031 51.617188 C 1.074219 52.445312 2.433594 52.949219 3.496094 53.199219 C 4.289062 53.390625 5.058594 53.421875 5.800781 53.289062 C 7.804688 52.9375 9.089844 52.09375 11.179688 49.253906 C 14.347656 44.957031 16.609375 41.019531 21.054688 31.320312 C 23.988281 24.921875 25.597656 21.714844 27.351562 18.753906 C 29.617188 14.933594 32.003906 11.855469 34.242188 9.875 C 37.667969 6.851562 41.71875 5.019531 46.382812 4.394531 C 47.789062 4.207031 50.214844 4.226562 51.542969 4.433594 C 56.304688 5.175781 59.96875 7.566406 62.21875 11.40625 C 62.949219 12.648438 63.570312 14.402344 63.859375 16.019531 C 64.042969 17.046875 64.046875 19.34375 63.859375 20.375 C 63.710938 21.226562 63.328125 22.617188 63.066406 23.257812 L 62.886719 23.695312 L 62.878906 22.902344 C 62.84375 19.566406 60.675781 15.933594 57.429688 15.019531 C 56.792969 14.84375 56.59375 14.824219 55.585938 14.824219 C 54.601562 14.828125 54.363281 14.851562 53.726562 15.023438 C 50.089844 16.015625 46.589844 20.730469 45.394531 25.515625 C 44.515625 29.027344 44.65625 32.894531 45.804688 37.046875 C 46.882812 40.949219 52.058594 46.238281 53.121094 47.027344 C 56.875 49.8125 59.410156 50.761719 62.289062 52.757812 C 63.28125 53.445312 63.554688 53.789062 63.648438 54.449219 C 63.757812 55.265625 63.261719 56.023438 62.007812 56.964844 C 61.660156 57.222656 61.007812 57.734375 60.554688 58.101562 C 59.050781 59.304688 58.867188 59.628906 57.859375 59.632812 C 57.285156 59.636719 57.152344 59.609375 56.789062 59.429688 C 55.625 58.847656 55.144531 58.039062 55.707031 56.878906 C 56.226562 55.804688 57.414062 55.308594 58.535156 55.695312 C 58.789062 55.785156 59.066406 55.96875 59.347656 56.230469 C 59.800781 56.65625 59.601562 56.164062 59.730469 55.914062 C 59.871094 55.644531 59.898438 54.703125 59.78125 54.09375 C 59.367188 51.929688 57.46875 51.042969 55.332031 51.164062 C 54.089844 51.230469 52.898438 51.800781 51.914062 52.804688 C 49.824219 55.84375 46.933594 59.660156 43.734375 59.617188 C 43.183594 59.675781 42.644531 59.628906 42.214844 59.460938 C 41.890625 59.335938 41.566406 59.109375 41.289062 58.820312 C 40.492188 58.023438 40.578125 57.175781 40.65625 56.152344 C 40.738281 54.992188 41.457031 54.117188 42.144531 53.46875 C 43.140625 52.648438 44.152344 52.3125 45.253906 52.199219 C 46.628906 52.0625 47.90625 51.957031 49.160156 52.289062 C 49.851562 52.511719 50.085938 52.515625 50.160156 52.304688 C 50.28125 51.992188 49.628906 49.414062 49.085938 48.65625 C 48.1875 47.398438 47.296875 46.886719 45.8125 46.453125 C 45.128906 46.253906 43.515625 46.175781 42.703125 46.308594 C 38.171875 47.164062 36.65625 50.542969 34.855469 53.71875 C 32.78125 57.355469 30.875 58.742188 28.925781 59.421875 C 28.640625 59.519531 28.253906 59.59375 27.855469 59.628906 C 25.234375 59.875 23.640625 58.21875 23.449219 55.914062 Z M 23.449219 55.914062 "/>
</g>
</svg>
