<svg xmlns="http://www.w3.org/2000/svg" xmlns:xlink="http://www.w3.org/1999/xlink" width="64" height="64" viewBox="0 0 64 64" version="1.1">
<defs>
<linearGradient id="linear0" gradientUnits="userSpaceOnUse" x1="0" y1="0" x2="0" y2="1" gradientTransform="matrix(60.648438,0,0,64,1.675781,0)">
<stop offset="0" style="stop-color:#ff6666;stop-opacity:1;"/>
<stop offset="1" style="stop-color:#d90000;stop-opacity:1;"/>
</linearGradient>
</defs>
<g id="surface1">
<path style=" stroke:none;fill-rule:nonzero;fill:url(#linear0);" d="M 58.789062 8.46875 L 55.433594 8.46875 L 55.433594 3.378906 C 55.433594 1.453125 53.933594 0 51.945312 0 L 5.210938 0 C 3.226562 0 1.675781 1.484375 1.675781 3.378906 L 1.675781 15.734375 C 1.675781 17.699219 3.261719 19.296875 5.210938 19.296875 L 51.945312 19.296875 C 53.867188 19.296875 55.433594 17.699219 55.433594 15.734375 L 55.433594 11.617188 L 58.789062 11.617188 C 58.972656 11.617188 59.089844 11.632812 59.164062 11.648438 C 59.167969 11.695312 59.175781 11.761719 59.175781 11.855469 L 59.175781 24.925781 C 59.175781 25.515625 58.941406 25.992188 58.789062 25.992188 L 31.59375 25.992188 C 29.128906 25.992188 27.273438 27.511719 27.273438 29.519531 L 27.273438 31.507812 L 26.308594 31.507812 C 25.804688 31.507812 25.359375 31.828125 25.191406 32.300781 L 22.21875 40.886719 C 22.175781 41.011719 22.152344 41.144531 22.152344 41.273438 L 22.152344 62.820312 C 22.152344 63.472656 22.683594 64 23.335938 64 L 34.953125 64 C 35.605469 64 36.136719 63.472656 36.136719 62.820312 L 36.136719 41.273438 C 36.136719 41.148438 36.113281 41.023438 36.074219 40.902344 L 33.210938 32.316406 C 33.050781 31.832031 32.597656 31.507812 32.089844 31.507812 L 30.421875 31.507812 L 30.421875 29.527344 C 30.476562 29.421875 30.921875 29.144531 31.59375 29.144531 L 58.789062 29.144531 C 60.839844 29.144531 62.324219 27.371094 62.324219 24.925781 L 62.324219 11.855469 C 62.328125 9.734375 61.003906 8.46875 58.789062 8.46875 Z M 58.789062 8.46875 "/>
</g>
</svg>
