<svg xmlns="http://www.w3.org/2000/svg" xmlns:xlink="http://www.w3.org/1999/xlink" width="64" height="64" viewBox="0 0 64 64" version="1.1">
<defs>
<filter id="alpha" filterUnits="objectBoundingBox" x="0%" y="0%" width="100%" height="100%">
  <feColorMatrix type="matrix" in="SourceGraphic" values="0 0 0 0 1 0 0 0 0 1 0 0 0 0 1 0 0 0 1 0"/>
</filter>
<mask id="mask0">
  <g filter="url(#alpha)">
<rect x="0" y="0" width="64" height="64" style="fill:rgb(0%,0%,0%);fill-opacity:0.3;stroke:none;"/>
  </g>
</mask>
<linearGradient id="linear0" gradientUnits="userSpaceOnUse" x1="0" y1="0" x2="0" y2="1" gradientTransform="matrix(32.335938,0,0,64,15.832031,0)">
<stop offset="0" style="stop-color:#ff6666;stop-opacity:1;"/>
<stop offset="1" style="stop-color:#d90000;stop-opacity:1;"/>
</linearGradient>
<clipPath id="clip1">
  <rect x="0" y="0" width="64" height="64"/>
</clipPath>
<g id="surface5" clip-path="url(#clip1)">
<path style=" stroke:none;fill-rule:evenodd;fill:url(#linear0);" d="M 33.414062 7.816406 C 33.414062 3.515625 37.128906 0 41.425781 0 C 45.335938 0 48.167969 2.636719 48.167969 6.644531 C 48.167969 11.140625 44.457031 14.460938 40.0625 14.460938 C 36.054688 14.460938 33.414062 11.824219 33.414062 7.816406 Z M 28.140625 27.0625 C 28.824219 25.308594 27.945312 24.429688 27.164062 24.429688 C 23.550781 24.429688 18.859375 32.929688 17.105469 32.929688 C 16.417969 32.929688 15.832031 32.242188 15.832031 31.65625 C 15.832031 29.898438 20.128906 25.796875 21.402344 24.523438 C 25.308594 20.8125 30.386719 17.976562 36.054688 17.976562 C 40.253906 17.976562 44.75 20.515625 41.230469 29.996094 L 34.199219 49.050781 C 33.613281 50.515625 32.539062 52.960938 32.539062 54.523438 C 32.539062 55.207031 32.925781 55.890625 33.707031 55.890625 C 36.636719 55.890625 42.011719 47.585938 43.382812 47.585938 C 43.871094 47.585938 44.550781 48.167969 44.550781 49.050781 C 44.550781 51.882812 33.125 64 23.257812 64 C 19.738281 64 17.296875 62.339844 17.296875 58.628906 C 17.296875 53.9375 20.617188 45.925781 21.304688 44.261719 C 21.304688 44.261719 28.140625 27.0625 28.140625 27.0625 Z M 28.140625 27.0625 "/>
</g>
<linearGradient id="linear1" gradientUnits="userSpaceOnUse" x1="0" y1="0" x2="0" y2="1" gradientTransform="matrix(32.335938,0,0,64,15.832031,0)">
<stop offset="0" style="stop-color:#ff6666;stop-opacity:1;"/>
<stop offset="1" style="stop-color:#d90000;stop-opacity:1;"/>
</linearGradient>
</defs>
<g id="surface1">
<use xlink:href="#surface5" mask="url(#mask0)"/>
<path style=" stroke:none;fill-rule:evenodd;fill:url(#linear1);" d="M 33.414062 7.816406 C 33.414062 3.515625 37.128906 0 41.425781 0 C 45.335938 0 48.167969 2.636719 48.167969 6.644531 C 48.167969 11.140625 44.457031 14.460938 40.0625 14.460938 C 36.054688 14.460938 33.414062 11.824219 33.414062 7.816406 Z M 28.140625 27.0625 C 28.824219 25.308594 27.945312 24.429688 27.164062 24.429688 C 23.550781 24.429688 18.859375 32.929688 17.105469 32.929688 C 16.417969 32.929688 15.832031 32.242188 15.832031 31.65625 C 15.832031 29.898438 20.128906 25.796875 21.402344 24.523438 C 25.308594 20.8125 30.386719 17.976562 36.054688 17.976562 C 40.253906 17.976562 44.75 20.515625 41.230469 29.996094 L 34.199219 49.050781 C 33.613281 50.515625 32.539062 52.960938 32.539062 54.523438 C 32.539062 55.207031 32.925781 55.890625 33.707031 55.890625 C 36.636719 55.890625 42.011719 47.585938 43.382812 47.585938 C 43.871094 47.585938 44.550781 48.167969 44.550781 49.050781 C 44.550781 51.882812 33.125 64 23.257812 64 C 19.738281 64 17.296875 62.339844 17.296875 58.628906 C 17.296875 53.9375 20.617188 45.925781 21.304688 44.261719 C 21.304688 44.261719 28.140625 27.0625 28.140625 27.0625 Z M 28.140625 27.0625 "/>
</g>
</svg>
