<svg xmlns="http://www.w3.org/2000/svg" xmlns:xlink="http://www.w3.org/1999/xlink" width="64" height="64" viewBox="0 0 64 64" version="1.1">
<defs>
<linearGradient id="linear0" gradientUnits="userSpaceOnUse" x1="0" y1="0" x2="0" y2="1" gradientTransform="matrix(58.8125,0,0,64,2.59375,0)">
<stop offset="0" style="stop-color:#ff6666;stop-opacity:1;"/>
<stop offset="1" style="stop-color:#d90000;stop-opacity:1;"/>
</linearGradient>
</defs>
<g id="surface1">
<path style=" stroke:none;fill-rule:nonzero;fill:url(#linear0);" d="M 49.539062 0.00390625 C 47.199219 0.0664062 44.871094 0.828125 42.976562 2.210938 C 40.777344 3.816406 39.21875 6.128906 37.503906 8.242188 C 36.644531 9.304688 35.734375 10.328125 34.683594 11.191406 C 33.632812 12.054688 32.453125 12.9375 31.117188 13.113281 C 28.410156 13.46875 25.605469 12.097656 23.160156 11.238281 C 20.621094 10.269531 18.117188 9.046875 15.410156 8.761719 C 11.679688 8.367188 7.800781 9.921875 5.359375 12.785156 C 2.925781 15.648438 2.003906 20.609375 2.972656 24.242188 C 3.945312 27.882812 6.78125 30.964844 10.316406 32.21875 C 13.851562 33.476562 17.988281 32.871094 21.023438 30.65625 C 23.222656 29.050781 24.78125 26.738281 26.496094 24.625 C 28.332031 22.339844 30.257812 20.09375 32.882812 19.058594 C 34.140625 18.566406 35.59375 18.710938 36.933594 18.933594 C 38.273438 19.152344 39.570312 19.585938 40.839844 20.070312 C 43.378906 21.042969 45.882812 22.265625 48.589844 22.546875 C 52.320312 22.945312 56.199219 21.390625 58.640625 18.527344 C 61.074219 15.664062 61.996094 12.261719 61.027344 8.625 C 60.054688 4.984375 57.21875 1.902344 53.683594 0.648438 C 52.355469 0.175781 50.945312 -0.0351562 49.539062 0.00390625 Z M 50.949219 25.953125 C 49.226562 25.996094 47.519531 26.554688 46.125 27.574219 C 44.507812 28.761719 43.359375 30.460938 42.097656 32.019531 C 41.46875 32.800781 40.796875 33.554688 40.023438 34.191406 C 39.246094 34.832031 38.367188 35.347656 37.398438 35.609375 C 36.4375 35.867188 35.414062 35.863281 34.429688 35.699219 C 33.445312 35.539062 32.484375 35.222656 31.550781 34.863281 C 29.683594 34.148438 27.847656 33.246094 25.859375 33.039062 C 23.117188 32.746094 20.261719 33.890625 18.46875 36 C 16.679688 38.113281 16 41.128906 16.710938 43.808594 C 17.429688 46.488281 19.511719 48.761719 22.113281 49.6875 C 24.710938 50.613281 27.753906 50.167969 29.984375 48.535156 C 31.601562 47.351562 32.746094 45.648438 34.011719 44.089844 C 34.640625 43.308594 35.3125 42.550781 36.085938 41.914062 C 36.859375 41.28125 37.738281 40.761719 38.707031 40.5 C 39.671875 40.238281 40.691406 40.246094 41.679688 40.40625 C 42.664062 40.570312 43.625 40.882812 44.554688 41.242188 C 46.425781 41.960938 48.261719 42.859375 50.246094 43.070312 C 52.992188 43.363281 55.847656 42.21875 57.640625 40.109375 C 59.433594 38 60.109375 34.984375 59.394531 32.300781 C 58.679688 29.621094 56.597656 27.347656 53.996094 26.425781 C 53.019531 26.074219 51.984375 25.921875 50.949219 25.953125 Z M 32.46875 51.902344 C 32.074219 51.929688 31.679688 51.992188 31.296875 52.097656 C 29.765625 52.503906 28.410156 53.542969 27.621094 54.914062 C 26.824219 56.292969 26.605469 57.984375 27.011719 59.515625 C 27.425781 61.046875 28.460938 62.398438 29.835938 63.191406 C 31.207031 63.988281 32.898438 64.207031 34.433594 63.800781 C 35.964844 63.386719 37.320312 62.351562 38.113281 60.976562 C 38.902344 59.605469 39.128906 57.910156 38.714844 56.378906 C 38.304688 54.847656 37.269531 53.492188 35.894531 52.699219 C 34.863281 52.105469 33.65625 51.828125 32.46875 51.902344 Z M 32.46875 51.902344 "/>
</g>
</svg>
