<svg xmlns="http://www.w3.org/2000/svg" xmlns:xlink="http://www.w3.org/1999/xlink" width="64" height="64" viewBox="0 0 64 64" version="1.1">
<defs>
<linearGradient id="linear0" gradientUnits="userSpaceOnUse" x1="0" y1="0" x2="0" y2="1" gradientTransform="matrix(35.554688,0,0,62.21875,2,0.980469)">
<stop offset="0" style="stop-color:#ff6666;stop-opacity:1;"/>
<stop offset="1" style="stop-color:#d90000;stop-opacity:1;"/>
</linearGradient>
<linearGradient id="linear1" gradientUnits="userSpaceOnUse" x1="0" y1="0" x2="0" y2="1" gradientTransform="matrix(22.222656,0,0,46.667969,39.777344,9.867188)">
<stop offset="0" style="stop-color:#ff6666;stop-opacity:1;"/>
<stop offset="1" style="stop-color:#d90000;stop-opacity:1;"/>
</linearGradient>
</defs>
<g id="surface1">
<path style=" stroke:none;fill-rule:nonzero;fill:url(#linear0);" d="M 34.519531 0.980469 C 23.679688 2.910156 12.839844 5.46875 2.003906 7.363281 C 2.003906 23.847656 1.996094 40.339844 2.003906 56.828125 C 12.78125 58.71875 23.566406 61.234375 34.328125 63.199219 L 37.554688 63.199219 L 37.554688 0.980469 Z M 27.285156 20.375 C 25.398438 24.242188 23.503906 28.105469 21.582031 31.960938 C 23.523438 35.917969 25.511719 39.847656 27.460938 43.804688 C 25.757812 43.699219 24.0625 43.597656 22.359375 43.480469 C 21.15625 40.53125 19.695312 37.683594 18.832031 34.601562 C 17.871094 37.472656 16.5 40.179688 15.394531 42.992188 C 13.847656 42.976562 12.300781 42.902344 10.75 42.839844 C 12.570312 39.285156 14.320312 35.703125 16.195312 32.167969 C 14.605469 28.527344 12.859375 24.957031 11.21875 21.339844 C 12.773438 21.25 14.328125 21.15625 15.882812 21.074219 C 16.9375 23.835938 18.089844 26.5625 18.957031 29.398438 C 19.890625 26.394531 21.285156 23.566406 22.476562 20.664062 C 24.074219 20.554688 25.679688 20.449219 27.285156 20.371094 Z M 27.285156 20.375 "/>
<path style=" stroke:none;fill-rule:nonzero;fill:url(#linear1);" d="M 39.777344 9.867188 L 39.777344 14.3125 L 46.445312 14.3125 L 46.445312 18.757812 L 39.777344 18.757812 L 39.777344 20.976562 L 46.445312 20.976562 L 46.445312 25.429688 L 39.777344 25.429688 L 39.777344 27.644531 L 46.445312 27.644531 L 46.445312 32.089844 L 39.777344 32.089844 L 39.777344 34.3125 L 46.445312 34.3125 L 46.445312 38.757812 L 39.777344 38.757812 L 39.777344 40.976562 L 46.445312 40.976562 L 46.445312 45.421875 L 39.777344 45.421875 L 39.777344 47.644531 L 46.445312 47.644531 L 46.445312 52.089844 L 39.777344 52.089844 L 39.777344 56.535156 L 62 56.535156 L 62 9.867188 Z M 48.667969 14.3125 L 57.554688 14.3125 L 57.554688 18.757812 L 48.667969 18.757812 Z M 48.667969 20.976562 L 57.554688 20.976562 L 57.554688 25.429688 L 48.667969 25.429688 Z M 48.667969 27.644531 L 57.554688 27.644531 L 57.554688 32.089844 L 48.667969 32.089844 Z M 48.667969 34.3125 L 57.554688 34.3125 L 57.554688 38.757812 L 48.667969 38.757812 Z M 48.667969 40.976562 L 57.554688 40.976562 L 57.554688 45.421875 L 48.667969 45.421875 Z M 48.667969 47.644531 L 57.554688 47.644531 L 57.554688 52.089844 L 48.667969 52.089844 Z M 48.667969 47.644531 "/>
</g>
</svg>
