<svg xmlns="http://www.w3.org/2000/svg" xmlns:xlink="http://www.w3.org/1999/xlink" width="64" height="64" viewBox="0 0 64 64" version="1.1">
<defs>
<linearGradient id="linear0" gradientUnits="userSpaceOnUse" x1="0" y1="0" x2="0" y2="1" gradientTransform="matrix(64,0,0,64,0,0)">
<stop offset="0" style="stop-color:#ff6666;stop-opacity:1;"/>
<stop offset="1" style="stop-color:#d90000;stop-opacity:1;"/>
</linearGradient>
</defs>
<g id="surface1">
<path style=" stroke:none;fill-rule:nonzero;fill:url(#linear0);" d="M 10.519531 0 C 10.519531 0 7.980469 -0.0273438 5.375 1.273438 C 2.769531 2.578125 0 5.613281 0 10.523438 L 0 32.4375 L 31.5625 64 L 64 31.5625 L 32.4375 0 Z M 10.519531 4.207031 L 30.691406 4.207031 L 58.046875 31.5625 L 31.5625 58.046875 L 4.207031 30.691406 L 4.207031 10.523438 C 4.207031 7.015625 5.648438 5.839844 7.25 5.039062 C 8.851562 4.238281 10.519531 4.207031 10.519531 4.207031 Z M 14.730469 8.417969 C 11.269531 8.417969 8.417969 11.269531 8.417969 14.730469 C 8.417969 18.191406 11.269531 21.042969 14.730469 21.042969 C 18.191406 21.042969 21.042969 18.191406 21.042969 14.730469 C 21.042969 11.269531 18.191406 8.417969 14.730469 8.417969 Z M 14.730469 12.625 C 15.917969 12.625 16.835938 13.542969 16.835938 14.730469 C 16.835938 15.917969 15.917969 16.835938 14.730469 16.835938 C 13.542969 16.835938 12.625 15.917969 12.625 14.730469 C 12.625 13.542969 13.542969 12.625 14.730469 12.625 Z M 14.730469 12.625 "/>
</g>
</svg>
