<svg xmlns="http://www.w3.org/2000/svg" xmlns:xlink="http://www.w3.org/1999/xlink" width="64" height="64" viewBox="0 0 64 64" version="1.1">
<defs>
<linearGradient id="linear0" gradientUnits="userSpaceOnUse" x1="0" y1="0" x2="0" y2="1" gradientTransform="matrix(49.191406,0,0,59.855469,6.8125,0.152344)">
<stop offset="0" style="stop-color:#ff6666;stop-opacity:1;"/>
<stop offset="1" style="stop-color:#d90000;stop-opacity:1;"/>
</linearGradient>
</defs>
<g id="surface1">
<path style=" stroke:none;fill-rule:evenodd;fill:url(#linear0);" d="M 54.054688 0.164062 C 53.59375 0.132812 53.050781 0.171875 52.414062 0.226562 L 23.578125 4.726562 C 20.324219 5.058594 19.972656 6.578125 20 8.46875 L 20 46.546875 C 18.347656 45.460938 16.578125 44.6875 14.21875 44.6875 C 11.183594 44.6875 9.371094 45.851562 8.273438 47.382812 C 7.175781 48.914062 6.8125 50.84375 6.8125 52.335938 C 6.8125 54.136719 7.433594 56.050781 8.765625 57.515625 C 10.097656 58.980469 12.148438 60.007812 15.09375 60.007812 C 18.421875 60.007812 20.753906 59.078125 22.078125 57.265625 C 23.121094 55.835938 23.699219 53.925781 23.90625 51.570312 C 23.933594 51.285156 23.949219 50.988281 23.96875 50.6875 C 23.984375 50.449219 23.980469 50.28125 23.984375 50 L 24 50 L 24 19.1875 C 24.089844 16.710938 26.335938 16.34375 26.335938 16.34375 L 49.75 12.6875 C 51.996094 12 52 14.78125 52 14.78125 L 52 42.546875 C 50.347656 41.460938 48.578125 40.6875 46.21875 40.6875 C 43.183594 40.6875 41.371094 41.851562 40.273438 43.382812 C 39.175781 44.914062 38.8125 46.84375 38.8125 48.335938 C 38.8125 50.136719 39.433594 52.050781 40.765625 53.515625 C 42.097656 54.980469 44.148438 56.007812 47.09375 56.007812 C 50.421875 56.007812 52.753906 55.078125 54.078125 53.265625 C 55.121094 51.835938 55.699219 49.925781 55.90625 47.570312 C 55.933594 47.285156 55.949219 46.988281 55.96875 46.6875 C 55.984375 46.449219 55.980469 46.28125 55.984375 46 L 56 46 L 56 3.726562 C 56.046875 0.984375 55.4375 0.261719 54.054688 0.164062 Z M 54.054688 0.164062 "/>
</g>
</svg>
