<svg xmlns="http://www.w3.org/2000/svg" xmlns:xlink="http://www.w3.org/1999/xlink" width="64" height="64" viewBox="0 0 64 64" version="1.1">
<defs>
<linearGradient id="linear0" gradientUnits="userSpaceOnUse" x1="0" y1="0" x2="0" y2="1" gradientTransform="matrix(64,0,0,64,0,0)">
<stop offset="0" style="stop-color:#ff6666;stop-opacity:1;"/>
<stop offset="1" style="stop-color:#d90000;stop-opacity:1;"/>
</linearGradient>
</defs>
<g id="surface1">
<path style=" stroke:none;fill-rule:evenodd;fill:url(#linear0);" d="M 17.230469 0 C 15.875 0 14.769531 1.109375 14.769531 2.460938 L 14.769531 9.847656 C 14.769531 11.199219 15.875 12.308594 17.230469 12.308594 C 18.585938 12.308594 19.691406 11.199219 19.691406 9.847656 L 19.691406 2.460938 C 19.691406 1.109375 18.585938 0 17.230469 0 Z M 46.769531 0 C 45.414062 0 44.308594 1.109375 44.308594 2.460938 L 44.308594 9.847656 C 44.308594 11.199219 45.414062 12.308594 46.769531 12.308594 C 48.125 12.308594 49.230469 11.199219 49.230469 9.847656 L 49.230469 2.460938 C 49.230469 1.109375 48.125 0 46.769531 0 Z M 4.921875 22.152344 L 59.078125 22.152344 L 59.078125 56.617188 C 59.078125 57.96875 57.96875 59.078125 56.617188 59.078125 L 7.382812 59.078125 C 6.03125 59.078125 4.921875 57.96875 4.921875 56.617188 Z M 7.382812 4.921875 C 3.304688 4.921875 0 8.230469 0 12.308594 L 0 56.617188 C 0 60.695312 3.304688 64 7.382812 64 L 56.617188 64 C 60.695312 64 64 60.695312 64 56.617188 L 64 12.308594 C 64 8.230469 60.695312 4.921875 56.617188 4.921875 L 51.691406 4.921875 L 51.691406 9.847656 C 51.691406 12.566406 49.488281 14.769531 46.769531 14.769531 C 44.050781 14.769531 41.847656 12.566406 41.847656 9.847656 L 41.847656 4.921875 L 22.152344 4.921875 L 22.152344 9.847656 C 22.152344 12.566406 19.949219 14.769531 17.230469 14.769531 C 14.511719 14.769531 12.308594 12.566406 12.308594 9.847656 L 12.308594 4.921875 Z M 29.792969 52.441406 L 14.546875 52.441406 C 14.546875 47.128906 17.148438 43.058594 22.359375 40.226562 C 23.429688 39.648438 24.269531 39.054688 24.878906 38.445312 C 25.488281 37.832031 25.792969 37.089844 25.792969 36.210938 C 25.792969 35.332031 25.484375 34.613281 24.863281 34.054688 C 24.246094 33.5 23.429688 33.222656 22.421875 33.222656 C 20.449219 33.222656 19.070312 34.140625 18.292969 35.984375 L 14.890625 34.410156 C 15.480469 32.929688 16.445312 31.753906 17.789062 30.875 C 19.136719 29.996094 20.667969 29.554688 22.390625 29.554688 C 24.597656 29.554688 26.351562 30.179688 27.652344 31.421875 C 28.953125 32.664062 29.605469 34.261719 29.605469 36.210938 C 29.605469 37.96875 29.167969 39.355469 28.296875 40.371094 C 27.425781 41.390625 26.078125 42.414062 24.25 43.441406 C 22.714844 44.300781 21.539062 45.136719 20.722656 45.949219 C 19.902344 46.765625 19.355469 47.6875 19.082031 48.714844 L 29.792969 48.714844 Z M 39.402344 37.625 C 39.972656 38.140625 40.714844 38.394531 41.640625 38.394531 C 42.566406 38.394531 43.316406 38.140625 43.894531 37.625 C 44.472656 37.109375 44.761719 36.46875 44.761719 35.695312 C 44.761719 34.925781 44.472656 34.296875 43.894531 33.816406 C 43.316406 33.332031 42.566406 33.09375 41.640625 33.09375 C 40.714844 33.09375 39.972656 33.332031 39.402344 33.816406 C 38.835938 34.296875 38.554688 34.925781 38.554688 35.695312 C 38.554688 36.46875 38.835938 37.109375 39.402344 37.625 Z M 38.804688 48.265625 C 39.539062 48.929688 40.484375 49.261719 41.640625 49.261719 C 42.796875 49.261719 43.75 48.921875 44.507812 48.25 C 45.265625 47.574219 45.640625 46.710938 45.640625 45.660156 C 45.640625 44.632812 45.257812 43.765625 44.492188 43.058594 C 43.726562 42.351562 42.773438 41.996094 41.640625 41.996094 C 40.484375 41.996094 39.539062 42.34375 38.804688 43.042969 C 38.070312 43.738281 37.703125 44.609375 37.703125 45.660156 C 37.703125 46.730469 38.070312 47.601562 38.804688 48.265625 Z M 47.3125 50.867188 C 45.882812 52.175781 43.992188 52.828125 41.640625 52.828125 C 39.289062 52.828125 37.402344 52.175781 35.984375 50.867188 C 34.566406 49.5625 33.859375 47.855469 33.859375 45.757812 C 33.859375 43.1875 35.085938 41.3125 37.546875 40.132812 C 35.695312 39.082031 34.773438 37.527344 34.773438 35.472656 C 34.773438 33.734375 35.398438 32.316406 36.648438 31.210938 C 37.898438 30.109375 39.5625 29.554688 41.640625 29.554688 C 43.71875 29.554688 45.390625 30.109375 46.652344 31.210938 C 47.910156 32.316406 48.539062 33.734375 48.539062 35.472656 C 48.539062 37.507812 47.617188 39.050781 45.769531 40.101562 C 46.902344 40.65625 47.800781 41.417969 48.460938 42.382812 C 49.125 43.347656 49.453125 44.472656 49.453125 45.757812 C 49.453125 47.855469 48.742188 49.5625 47.3125 50.867188 Z M 47.3125 50.867188 "/>
</g>
</svg>
