<svg xmlns="http://www.w3.org/2000/svg" xmlns:xlink="http://www.w3.org/1999/xlink" width="64" height="64" viewBox="0 0 64 64" version="1.1">
<defs>
<linearGradient id="linear0" gradientUnits="userSpaceOnUse" x1="0" y1="0" x2="0" y2="1" gradientTransform="matrix(64,0,0,33.976562,0,15.011719)">
<stop offset="0" style="stop-color:#ff6666;stop-opacity:1;"/>
<stop offset="1" style="stop-color:#d90000;stop-opacity:1;"/>
</linearGradient>
</defs>
<g id="surface1">
<path style=" stroke:none;fill-rule:nonzero;fill:url(#linear0);" d="M 39.273438 15.011719 L 39.273438 16.125 L 40.011719 16.125 C 41.984375 16.125 42.664062 16.378906 43.34375 17.382812 L 49.933594 27.378906 L 44.011719 36.039062 C 43.507812 36.753906 42.449219 38.40625 38.828125 38.40625 L 38.828125 39.519531 L 42.828125 39.371094 C 44.152344 39.371094 46.125 39.410156 47.417969 39.519531 L 47.417969 38.40625 C 45.769531 38.371094 45.121094 37.351562 45.121094 36.707031 C 45.121094 36.382812 45.242188 36.285156 45.492188 35.890625 L 50.601562 28.339844 L 56.226562 36.925781 C 56.296875 37.070312 56.449219 37.191406 56.449219 37.296875 C 56.449219 37.726562 55.621094 38.371094 54.078125 38.40625 L 54.078125 39.519531 C 55.335938 39.410156 57.972656 39.371094 59.335938 39.371094 L 64 39.519531 L 64 38.40625 L 63.332031 38.40625 C 61.46875 38.40625 60.679688 38.1875 59.929688 37.074219 L 52.375 25.675781 L 57.261719 18.492188 C 58.050781 17.347656 59.328125 16.160156 62.519531 16.125 L 62.519531 15.011719 L 58.523438 15.160156 C 57.089844 15.160156 55.363281 15.121094 53.929688 15.011719 L 53.929688 16.125 C 55.363281 16.160156 56.152344 16.929688 56.152344 17.753906 C 56.152344 18.109375 56.105469 18.246094 55.855469 18.640625 L 51.710938 24.636719 L 47.121094 17.753906 C 47.046875 17.644531 46.898438 17.378906 46.898438 17.234375 C 46.898438 16.804688 47.652344 16.160156 49.195312 16.125 L 49.195312 15.011719 C 47.9375 15.121094 45.300781 15.160156 43.9375 15.160156 Z M 0.667969 15.011719 L 0 23.082031 L 0.886719 23.082031 C 1.390625 17.3125 1.917969 16.125 7.328125 16.125 C 7.972656 16.125 8.894531 16.125 9.253906 16.199219 C 10.007812 16.339844 10.070312 16.707031 10.070312 17.53125 L 10.070312 36.820312 C 10.070312 38.039062 10.054688 38.671875 6.292969 38.597656 L 4.8125 38.597656 L 4.8125 39.710938 C 6.28125 39.601562 9.972656 39.5625 11.625 39.5625 C 13.273438 39.5625 16.964844 39.601562 18.433594 39.710938 L 18.433594 38.597656 L 16.953125 38.597656 C 13.191406 38.597656 13.25 38.039062 13.25 36.820312 L 13.25 17.53125 C 13.25 16.8125 13.199219 16.339844 13.84375 16.199219 C 14.238281 16.125 15.234375 16.125 15.917969 16.125 C 21.328125 16.125 21.855469 17.3125 22.359375 23.082031 L 23.246094 23.082031 L 22.578125 15.011719 Z M 19.890625 24.453125 L 19.890625 25.5625 L 20.78125 25.5625 C 23.539062 25.5625 23.59375 25.902344 23.59375 27.191406 L 23.59375 46.171875 C 23.59375 47.464844 23.539062 47.875 20.78125 47.875 L 19.890625 47.875 L 19.890625 48.988281 L 40.546875 48.988281 L 42.101562 39.730469 L 41.140625 39.730469 C 40.242188 45.25 39.457031 47.875 33.292969 47.875 L 28.554688 47.875 C 26.867188 47.875 26.777344 47.578125 26.777344 46.394531 L 26.777344 36.757812 L 29.960938 36.757812 C 33.4375 36.757812 33.882812 37.929688 33.882812 40.976562 L 34.773438 40.976562 L 34.773438 31.425781 L 33.882812 31.425781 C 33.882812 34.507812 33.4375 35.644531 29.960938 35.644531 L 26.777344 35.644531 L 26.777344 26.96875 C 26.777344 25.789062 26.871094 25.5625 28.554688 25.5625 L 33.144531 25.5625 C 38.628906 25.5625 39.601562 27.464844 40.175781 32.449219 L 41.066406 32.449219 L 40.027344 24.453125 Z M 19.890625 24.453125 "/>
</g>
</svg>
