<svg xmlns="http://www.w3.org/2000/svg" xmlns:xlink="http://www.w3.org/1999/xlink" width="64" height="64" viewBox="0 0 64 64" version="1.1">
<defs>
<linearGradient id="linear0" gradientUnits="userSpaceOnUse" x1="0" y1="0" x2="0" y2="1" gradientTransform="matrix(64,0,0,62.5625,0,0.71875)">
<stop offset="0" style="stop-color:#ff6666;stop-opacity:1;"/>
<stop offset="1" style="stop-color:#d90000;stop-opacity:1;"/>
</linearGradient>
</defs>
<g id="surface1">
<path style=" stroke:none;fill-rule:nonzero;fill:url(#linear0);" d="M 20.734375 37.230469 C 22.683594 33.414062 24.898438 29.109375 26.667969 24.792969 L 27.371094 23.085938 C 25.054688 14.277344 23.667969 7.207031 24.90625 2.632812 C 25.242188 1.441406 26.621094 0.71875 28.097656 0.71875 L 28.996094 0.734375 L 29.164062 0.734375 C 31.183594 0.703125 32.132812 3.273438 32.242188 4.269531 C 32.421875 5.9375 31.652344 8.753906 31.652344 8.753906 C 31.652344 7.613281 31.695312 5.777344 30.976562 4.191406 C 30.140625 2.355469 29.34375 1.257812 28.628906 1.085938 C 28.265625 1.328125 27.914062 1.828125 27.792969 2.789062 C 27.546875 4.136719 27.472656 5.835938 27.472656 6.714844 C 27.472656 9.8125 28.082031 13.902344 29.28125 18.121094 C 29.507812 17.46875 29.707031 16.839844 29.863281 16.253906 C 30.109375 15.328125 31.671875 9.1875 31.671875 9.1875 C 31.671875 9.1875 31.277344 17.359375 30.730469 19.832031 C 30.609375 20.355469 30.480469 20.871094 30.34375 21.402344 C 32.324219 26.925781 35.507812 31.859375 39.308594 35.40625 C 40.808594 36.808594 42.703125 37.9375 44.492188 38.964844 C 48.40625 38.40625 52.007812 38.144531 55.011719 38.175781 C 59 38.230469 61.925781 38.820312 63.109375 39.984375 C 63.691406 40.554688 63.925781 41.238281 64 42.007812 C 64.015625 42.304688 63.871094 43.007812 63.828125 43.183594 C 63.871094 42.96875 63.871094 41.921875 60.671875 40.898438 C 58.148438 40.09375 53.433594 40.117188 47.773438 40.722656 C 54.320312 43.925781 60.699219 45.515625 62.71875 44.5625 C 63.214844 44.320312 63.8125 43.5 63.8125 43.5 C 63.8125 43.5 63.457031 45.117188 63.199219 45.523438 C 62.875 45.964844 62.234375 46.441406 61.625 46.601562 C 58.433594 47.453125 50.125 45.480469 42.878906 41.339844 C 34.785156 42.535156 25.898438 44.734375 18.773438 47.074219 C 11.769531 59.34375 6.507812 64.976562 2.222656 62.835938 L 0.648438 62.042969 C 0.0117188 61.675781 -0.0859375 60.785156 0.0585938 60.058594 C 0.558594 57.617188 3.621094 53.9375 9.773438 50.265625 C 10.4375 49.863281 13.386719 48.304688 13.386719 48.304688 C 13.386719 48.304688 11.203125 50.417969 10.691406 50.832031 C 5.78125 54.855469 2.15625 59.917969 2.246094 61.882812 L 2.265625 62.054688 C 6.4375 61.460938 12.691406 52.96875 20.734375 37.230469 M 23.285156 38.535156 C 21.941406 41.066406 20.628906 43.414062 19.414062 45.566406 C 26.121094 42.757812 33.335938 40.960938 40.207031 39.683594 C 39.285156 39.042969 38.386719 38.371094 37.542969 37.65625 C 33.761719 34.453125 30.878906 30.457031 28.785156 26.25 C 27.460938 29.824219 25.882812 33.621094 23.285156 38.535156 "/>
</g>
</svg>
