<svg xmlns="http://www.w3.org/2000/svg" xmlns:xlink="http://www.w3.org/1999/xlink" width="64" height="64" viewBox="0 0 64 64" version="1.1">
<defs>
<linearGradient id="linear0" gradientUnits="userSpaceOnUse" x1="0" y1="0" x2="0" y2="1" gradientTransform="matrix(64,0,0,30.515625,0,16.742188)">
<stop offset="0" style="stop-color:#ff6666;stop-opacity:1;"/>
<stop offset="1" style="stop-color:#d90000;stop-opacity:1;"/>
</linearGradient>
</defs>
<g id="surface1">
<path style=" stroke:none;fill-rule:nonzero;fill:url(#linear0);" d="M 30.902344 16.742188 L 29.695312 21.402344 L 25.714844 36.703125 L 22.730469 26.742188 L 22.410156 25.722656 L 0 25.722656 L 0 28.511719 L 20.292969 28.582031 L 24.453125 42.402344 L 25.910156 47.257812 L 27.1875 42.347656 L 31.242188 26.796875 L 33.65625 34.097656 L 34.972656 38.0625 L 36.359375 34.117188 L 39.21875 25.902344 L 42.757812 36.742188 L 43.074219 37.722656 L 44.105469 37.722656 L 64 37.710938 L 64 34.789062 L 45.136719 34.867188 L 40.605469 21.011719 L 39.292969 17.011719 L 37.90625 20.992188 L 35.042969 29.207031 L 32.414062 21.3125 Z M 30.902344 16.742188 "/>
</g>
</svg>
