<svg xmlns="http://www.w3.org/2000/svg" xmlns:xlink="http://www.w3.org/1999/xlink" width="64" height="64" viewBox="0 0 64 64" version="1.1">
<defs>
<linearGradient id="linear0" gradientUnits="userSpaceOnUse" x1="0" y1="0" x2="0" y2="1" gradientTransform="matrix(64,0,0,51.992187,0,6.003906)">
<stop offset="0" style="stop-color:#ff6666;stop-opacity:1;"/>
<stop offset="1" style="stop-color:#d90000;stop-opacity:1;"/>
</linearGradient>
</defs>
<g id="surface1">
<path style=" stroke:none;fill-rule:evenodd;fill:url(#linear0);" d="M 33.363281 35.238281 C 33.480469 33.101562 34.527344 31.222656 36.105469 29.890625 C 37.652344 28.578125 39.734375 27.78125 42.003906 27.78125 C 44.273438 27.78125 46.355469 28.578125 47.902344 29.890625 C 49.480469 31.222656 50.523438 33.101562 50.644531 35.234375 C 50.761719 37.429688 49.882812 39.464844 48.335938 40.976562 C 46.757812 42.511719 44.515625 43.476562 42.003906 43.476562 C 39.492188 43.476562 37.246094 42.511719 35.667969 40.976562 C 34.121094 39.464844 33.242188 37.429688 33.363281 35.238281 Z M 51.839844 44.191406 C 49.253906 46.828125 45.636719 48.320312 41.71875 48.328125 C 37.800781 48.335938 34.179688 46.855469 31.59375 44.222656 C 30.332031 42.941406 29.402344 41.46875 28.832031 39.898438 C 28.269531 38.355469 28.050781 36.71875 28.195312 35.066406 C 28.335938 33.449219 28.816406 31.910156 29.582031 30.515625 C 30.335938 29.144531 31.375 27.90625 32.65625 26.859375 C 35.167969 24.8125 38.367188 23.703125 41.714844 23.699219 C 45.066406 23.691406 48.261719 24.792969 50.777344 26.832031 C 52.054688 27.875 53.09375 29.109375 53.847656 30.480469 C 54.621094 31.871094 55.097656 33.40625 55.238281 35.027344 C 55.378906 36.675781 55.164062 38.3125 54.601562 39.855469 C 54.03125 41.433594 53.105469 42.90625 51.839844 44.191406 Z M 19.601562 39.550781 C 19.617188 40.386719 19.882812 42.007812 20.28125 43.277344 C 21.121094 45.960938 22.546875 48.441406 24.53125 50.628906 C 26.566406 52.878906 29.070312 54.6875 31.960938 55.964844 C 35.003906 57.316406 38.296875 58 41.71875 57.996094 C 45.136719 57.988281 48.433594 57.289062 51.472656 55.933594 C 54.367188 54.640625 56.871094 52.824219 58.902344 50.574219 C 60.882812 48.378906 62.304688 45.890625 63.144531 43.207031 C 63.570312 41.851562 63.835938 40.476562 63.945312 39.09375 C 64.050781 37.734375 64.003906 36.375 63.8125 35.011719 C 63.433594 32.359375 62.515625 29.871094 61.105469 27.601562 C 59.8125 25.515625 58.144531 23.691406 56.164062 22.152344 L 56.167969 22.152344 L 36.175781 6.800781 C 36.160156 6.785156 36.144531 6.769531 36.125 6.757812 C 34.8125 5.75 32.605469 5.757812 31.164062 6.765625 C 29.707031 7.785156 29.539062 9.472656 30.835938 10.539062 L 30.832031 10.542969 L 39.167969 17.324219 L 13.753906 17.351562 C 13.742188 17.351562 13.730469 17.351562 13.71875 17.351562 C 11.617188 17.351562 9.597656 18.730469 9.199219 20.472656 C 8.789062 22.25 10.214844 23.71875 12.398438 23.726562 L 12.398438 23.734375 L 25.277344 23.710938 L 2.292969 41.355469 C 2.261719 41.378906 2.230469 41.398438 2.203125 41.421875 C 0.0351562 43.082031 -0.664062 45.84375 0.699219 47.589844 C 2.085938 49.367188 5.035156 49.371094 7.226562 47.601562 L 19.769531 37.332031 C 19.769531 37.332031 19.585938 38.71875 19.601562 39.550781 Z M 19.601562 39.550781 "/>
</g>
</svg>
