<svg xmlns="http://www.w3.org/2000/svg" xmlns:xlink="http://www.w3.org/1999/xlink" width="64" height="64" viewBox="0 0 64 64" version="1.1">
<defs>
<linearGradient id="linear0" gradientUnits="userSpaceOnUse" x1="0" y1="0" x2="0" y2="1" gradientTransform="matrix(9.492188,0,0,3.082031,11.257812,30.019531)">
<stop offset="0" style="stop-color:#ff6666;stop-opacity:1;"/>
<stop offset="1" style="stop-color:#d90000;stop-opacity:1;"/>
</linearGradient>
<linearGradient id="linear1" gradientUnits="userSpaceOnUse" x1="0" y1="0" x2="0" y2="1" gradientTransform="matrix(8.78125,0,0,8.785156,43.230469,27.167969)">
<stop offset="0" style="stop-color:#ff6666;stop-opacity:1;"/>
<stop offset="1" style="stop-color:#d90000;stop-opacity:1;"/>
</linearGradient>
<linearGradient id="linear2" gradientUnits="userSpaceOnUse" x1="0" y1="0" x2="0" y2="1" gradientTransform="matrix(64,0,0,30.203125,0,16.898438)">
<stop offset="0" style="stop-color:#ff6666;stop-opacity:1;"/>
<stop offset="1" style="stop-color:#d90000;stop-opacity:1;"/>
</linearGradient>
</defs>
<g id="surface1">
<path style=" stroke:none;fill-rule:nonzero;fill:url(#linear0);" d="M 11.257812 33.101562 L 11.257812 30.019531 L 20.75 30.019531 L 20.75 33.101562 Z M 11.257812 33.101562 "/>
<path style=" stroke:none;fill-rule:nonzero;fill:url(#linear1);" d="M 46.121094 35.953125 L 46.121094 33.046875 L 43.230469 33.046875 L 43.230469 30.050781 L 46.121094 30.050781 L 46.121094 27.167969 L 49.125 27.167969 L 49.125 30.050781 L 52.011719 30.050781 L 52.011719 33.046875 L 49.125 33.046875 L 49.125 35.953125 Z M 46.121094 35.953125 "/>
<path style=" stroke:none;fill-rule:evenodd;fill:url(#linear2);" d="M 5.328125 31.988281 C 5.328125 33.285156 5.59375 34.566406 6.117188 35.75 C 6.628906 36.917969 7.371094 37.972656 8.289062 38.855469 C 9.234375 39.757812 10.34375 40.480469 11.554688 40.96875 C 12.855469 41.496094 14.246094 41.761719 15.648438 41.75 C 15.90625 41.769531 16.167969 41.777344 16.429688 41.777344 C 17.171875 41.777344 17.910156 41.707031 18.636719 41.5625 C 19.273438 41.429688 19.902344 41.234375 20.5 40.972656 C 21.082031 40.71875 21.636719 40.40625 22.160156 40.046875 C 22.703125 39.667969 23.222656 39.246094 23.699219 38.785156 C 24.21875 38.285156 24.710938 37.753906 25.167969 37.199219 C 25.660156 36.597656 26.128906 35.976562 26.574219 35.335938 C 27.050781 34.652344 27.511719 33.960938 27.957031 33.253906 C 28.261719 32.769531 28.566406 32.277344 28.871094 31.789062 C 28.800781 31.679688 28.734375 31.570312 28.664062 31.460938 C 28.191406 30.714844 27.699219 29.980469 27.191406 29.257812 C 26.710938 28.570312 26.203125 27.90625 25.667969 27.261719 C 25.160156 26.660156 24.621094 26.085938 24.046875 25.550781 C 23.503906 25.042969 22.921875 24.582031 22.308594 24.167969 C 21.703125 23.761719 21.0625 23.414062 20.390625 23.132812 C 19.683594 22.839844 18.949219 22.617188 18.199219 22.46875 C 17.335938 22.304688 16.460938 22.222656 15.582031 22.226562 C 14.203125 22.222656 12.835938 22.488281 11.554688 23.007812 C 10.34375 23.5 9.234375 24.21875 8.289062 25.125 C 7.371094 26.003906 6.628906 27.058594 6.117188 28.226562 C 5.59375 29.410156 5.328125 30.695312 5.328125 31.988281 Z M 32 26.84375 C 32.148438 26.625 32.300781 26.414062 32.449219 26.195312 C 33.015625 25.390625 33.617188 24.605469 34.25 23.847656 C 34.890625 23.078125 35.582031 22.351562 36.316406 21.664062 C 37.066406 20.960938 37.871094 20.316406 38.726562 19.742188 C 39.617188 19.148438 40.5625 18.636719 41.550781 18.222656 C 42.59375 17.785156 43.679688 17.457031 44.792969 17.242188 C 45.988281 17.011719 47.203125 16.898438 48.425781 16.898438 C 50.488281 16.898438 52.535156 17.296875 54.449219 18.074219 C 56.289062 18.816406 57.964844 19.90625 59.398438 21.28125 C 60.820312 22.644531 61.960938 24.273438 62.757812 26.078125 C 63.578125 27.941406 64 29.953125 64 31.988281 C 64 34.023438 63.578125 36.039062 62.757812 37.898438 C 61.960938 39.703125 60.820312 41.332031 59.398438 42.699219 C 57.964844 44.070312 56.289062 45.160156 54.449219 45.90625 C 52.554688 46.671875 50.53125 47.070312 48.488281 47.078125 C 48.1875 47.09375 47.882812 47.101562 47.585938 47.101562 C 46.484375 47.105469 45.386719 46.996094 44.3125 46.777344 C 43.300781 46.574219 42.316406 46.265625 41.371094 45.855469 C 40.472656 45.460938 39.613281 44.980469 38.808594 44.421875 C 38.03125 43.882812 37.296875 43.28125 36.613281 42.625 C 35.941406 41.980469 35.308594 41.296875 34.71875 40.578125 C 34.136719 39.867188 33.578125 39.132812 33.054688 38.378906 C 32.695312 37.863281 32.34375 37.339844 32 36.8125 M 58.675781 31.988281 C 58.675781 33.285156 58.40625 34.566406 57.882812 35.75 C 57.371094 36.917969 56.628906 37.972656 55.710938 38.855469 C 54.765625 39.757812 53.660156 40.480469 52.445312 40.96875 C 51.148438 41.496094 49.753906 41.761719 48.351562 41.75 C 48.09375 41.769531 47.832031 41.777344 47.574219 41.777344 C 46.832031 41.777344 46.09375 41.707031 45.367188 41.5625 C 44.726562 41.429688 44.101562 41.234375 43.503906 40.972656 C 42.921875 40.71875 42.367188 40.40625 41.84375 40.046875 C 41.296875 39.667969 40.78125 39.246094 40.300781 38.785156 C 39.78125 38.285156 39.292969 37.753906 38.835938 37.199219 C 38.339844 36.597656 37.871094 35.976562 37.425781 35.335938 C 36.949219 34.652344 36.488281 33.960938 36.046875 33.253906 C 35.738281 32.769531 35.433594 32.277344 35.132812 31.789062 C 35.199219 31.679688 35.269531 31.570312 35.339844 31.460938 C 35.808594 30.714844 36.300781 29.980469 36.808594 29.257812 C 37.289062 28.570312 37.796875 27.90625 38.335938 27.261719 C 38.839844 26.660156 39.382812 26.085938 39.953125 25.550781 C 40.496094 25.042969 41.078125 24.582031 41.691406 24.167969 C 42.300781 23.761719 42.941406 23.414062 43.609375 23.132812 C 44.316406 22.839844 45.050781 22.617188 45.800781 22.46875 C 46.664062 22.304688 47.539062 22.222656 48.417969 22.226562 C 49.796875 22.222656 51.167969 22.488281 52.445312 23.007812 C 53.660156 23.5 54.765625 24.21875 55.710938 25.125 C 56.628906 26.003906 57.371094 27.058594 57.882812 28.226562 C 58.40625 29.410156 58.675781 30.695312 58.675781 31.988281 M 32 26.84375 C 31.851562 26.625 31.703125 26.414062 31.550781 26.195312 C 30.984375 25.390625 30.382812 24.605469 29.753906 23.847656 C 29.109375 23.078125 28.417969 22.351562 27.6875 21.664062 C 26.9375 20.960938 26.128906 20.316406 25.273438 19.742188 C 24.382812 19.148438 23.4375 18.636719 22.453125 18.222656 C 21.40625 17.785156 20.320312 17.457031 19.207031 17.242188 C 18.011719 17.011719 16.796875 16.898438 15.578125 16.898438 C 13.511719 16.898438 11.464844 17.296875 9.554688 18.074219 C 7.714844 18.816406 6.035156 19.90625 4.605469 21.28125 C 3.179688 22.644531 2.039062 24.273438 1.242188 26.078125 C 0.425781 27.941406 0 29.953125 0 31.988281 C 0 34.023438 0.425781 36.039062 1.242188 37.898438 C 2.039062 39.703125 3.179688 41.332031 4.605469 42.699219 C 6.035156 44.070312 7.714844 45.160156 9.550781 45.90625 C 11.445312 46.671875 13.46875 47.070312 15.511719 47.078125 C 15.816406 47.09375 16.113281 47.101562 16.417969 47.101562 C 17.515625 47.105469 18.613281 46.996094 19.691406 46.777344 C 20.699219 46.574219 21.683594 46.265625 22.628906 45.855469 C 23.527344 45.460938 24.386719 44.980469 25.191406 44.421875 C 25.96875 43.882812 26.707031 43.28125 27.390625 42.625 C 28.058594 41.980469 28.691406 41.296875 29.28125 40.578125 C 29.867188 39.867188 30.421875 39.132812 30.945312 38.378906 C 31.304688 37.863281 31.660156 37.339844 32 36.8125 "/>
</g>
</svg>
