<svg xmlns="http://www.w3.org/2000/svg" xmlns:xlink="http://www.w3.org/1999/xlink" width="64" height="64" viewBox="0 0 64 64" version="1.1">
<defs>
<linearGradient id="linear0" gradientUnits="userSpaceOnUse" x1="0" y1="0" x2="0" y2="1" gradientTransform="matrix(64,0,0,64.007812,0,-0.00390625)">
<stop offset="0" style="stop-color:#ff6666;stop-opacity:1;"/>
<stop offset="1" style="stop-color:#d90000;stop-opacity:1;"/>
</linearGradient>
</defs>
<g id="surface1">
<path style=" stroke:none;fill-rule:nonzero;fill:url(#linear0);" d="M 31.996094 -0.00390625 C 14.375 -0.00390625 0 14.328125 0 32 C 0 49.671875 14.375 64.003906 31.996094 64.003906 C 49.632812 64.003906 64 49.671875 64 32 C 64 14.328125 49.621094 -0.00390625 31.996094 -0.00390625 Z M 31.996094 4.039062 C 47.535156 4.039062 60.039062 16.5625 60.039062 32.003906 C 60.039062 47.445312 47.53125 59.964844 31.996094 59.964844 C 16.46875 59.964844 3.953125 47.445312 3.953125 32.003906 C 3.953125 16.5625 16.464844 4.039062 31.996094 4.039062 Z M 32.910156 8.023438 C 30.652344 8.023438 28.394531 8.886719 26.664062 10.613281 L 10.601562 26.65625 C 7.136719 30.113281 7.136719 35.675781 10.601562 39.132812 C 14.0625 42.589844 19.632812 42.589844 23.097656 39.132812 L 39.15625 23.089844 C 42.621094 19.636719 42.621094 14.074219 39.15625 10.613281 C 37.429688 8.886719 35.171875 8.023438 32.914062 8.023438 Z M 32.910156 9.289062 C 34.847656 9.289062 36.789062 10.027344 38.269531 11.507812 C 41.230469 14.460938 41.230469 19.257812 38.269531 22.214844 C 35.296875 25.167969 30.5 25.167969 27.550781 22.214844 C 24.597656 19.265625 24.597656 14.46875 27.550781 11.507812 C 29.03125 10.027344 30.972656 9.289062 32.910156 9.289062 Z M 47.1875 22.277344 C 44.933594 22.277344 42.671875 23.140625 40.941406 24.867188 L 24.878906 40.910156 C 21.417969 44.363281 21.417969 49.925781 24.878906 53.386719 C 28.34375 56.84375 33.917969 56.84375 37.382812 53.386719 L 53.441406 37.34375 C 56.90625 33.886719 56.90625 28.316406 53.441406 24.863281 C 51.710938 23.132812 49.453125 22.269531 47.195312 22.269531 Z M 47.1875 23.554688 C 49.125 23.554688 51.070312 24.292969 52.554688 25.765625 C 55.507812 28.738281 55.507812 33.511719 52.554688 36.46875 C 49.589844 39.417969 44.796875 39.417969 41.835938 36.46875 C 38.882812 33.496094 38.882812 28.722656 41.835938 25.765625 C 43.3125 24.292969 45.25 23.554688 47.1875 23.554688 Z M 16.84375 25.339844 C 18.785156 25.339844 20.71875 26.078125 22.203125 27.558594 C 25.160156 30.503906 25.160156 35.292969 22.203125 38.261719 C 19.226562 41.21875 14.4375 41.21875 11.492188 38.261719 C 8.527344 35.304688 8.527344 30.515625 11.492188 27.558594 C 12.972656 26.078125 14.90625 25.339844 16.84375 25.339844 Z M 31.125 39.589844 C 33.0625 39.589844 34.992188 40.328125 36.464844 41.808594 C 39.429688 44.765625 39.429688 49.554688 36.464844 52.511719 C 33.511719 55.484375 28.71875 55.484375 25.773438 52.511719 C 22.808594 49.5625 22.808594 44.773438 25.773438 41.808594 C 27.25 40.332031 29.1875 39.589844 31.125 39.589844 Z M 31.125 39.589844 "/>
</g>
</svg>
