<svg xmlns="http://www.w3.org/2000/svg" xmlns:xlink="http://www.w3.org/1999/xlink" width="64" height="64" viewBox="0 0 64 64" version="1.1">
<defs>
<linearGradient id="linear0" gradientUnits="userSpaceOnUse" x1="0" y1="0" x2="0" y2="1" gradientTransform="matrix(56.007812,0,0,55.996094,3.996094,4.324219)">
<stop offset="0" style="stop-color:#ff6666;stop-opacity:1;"/>
<stop offset="1" style="stop-color:#d90000;stop-opacity:1;"/>
</linearGradient>
<linearGradient id="linear1" gradientUnits="userSpaceOnUse" x1="0" y1="0" x2="0" y2="1" gradientTransform="matrix(64,0,0,63.847656,0.0585938,0)">
<stop offset="0" style="stop-color:#ff6666;stop-opacity:1;"/>
<stop offset="1" style="stop-color:#d90000;stop-opacity:1;"/>
</linearGradient>
<linearGradient id="linear2" gradientUnits="userSpaceOnUse" x1="0" y1="0" x2="0" y2="1" gradientTransform="matrix(39.992188,0,0,40,12,12.324219)">
<stop offset="0" style="stop-color:#ff6666;stop-opacity:1;"/>
<stop offset="1" style="stop-color:#d90000;stop-opacity:1;"/>
</linearGradient>
</defs>
<g id="surface1">
<path style=" stroke:none;fill-rule:nonzero;fill:url(#linear0);" d="M 32.726562 4.335938 C 22.464844 4.050781 12.871094 9.414062 7.734375 18.304688 C 0.0195312 31.675781 4.632812 48.824219 18.015625 56.554688 C 31.398438 64.289062 48.550781 59.722656 56.265625 46.351562 C 63.980469 32.980469 59.367188 15.820312 45.984375 8.085938 C 41.949219 5.746094 37.390625 4.457031 32.726562 4.335938 Z M 32 8.320312 C 45.253906 8.320312 56 19.066406 56 32.320312 C 56 45.574219 45.253906 56.320312 32 56.320312 C 18.746094 56.320312 8 45.574219 8 32.320312 C 8 19.066406 18.746094 8.320312 32 8.320312 Z M 32 8.320312 "/>
<path style=" stroke:none;fill-rule:nonzero;fill:url(#linear1);" d="M 37.289062 0 L 26.761719 1.574219 L 26.761719 6.988281 C 30.230469 6.273438 33.816406 6.28125 37.289062 7.007812 Z M 15.746094 4.765625 L 7.722656 11.585938 L 11.675781 16.296875 C 13.871094 13.511719 16.617188 11.210938 19.742188 9.53125 Z M 48.261719 4.816406 L 44.289062 9.546875 C 44.515625 9.664062 44.742188 9.785156 44.96875 9.90625 C 47.8125 11.5625 50.316406 13.738281 52.347656 16.324219 L 56.371094 11.53125 Z M 1.820312 21.683594 L 0.0585938 32.0625 L 6.121094 33.132812 C 6.011719 29.585938 6.628906 26.058594 7.941406 22.765625 Z M 62.164062 21.695312 L 56.070312 22.769531 C 57.390625 26.0625 58.023438 29.589844 57.929688 33.132812 L 64.058594 32.050781 Z M 7.433594 40.472656 L 2.027344 43.59375 L 7.347656 52.679688 L 12.703125 49.589844 C 10.34375 46.941406 8.546875 43.835938 7.433594 40.472656 Z M 56.636719 40.484375 C 56.09375 42.171875 55.375 43.800781 54.5 45.34375 C 53.617188 46.871094 52.578125 48.308594 51.402344 49.625 L 56.757812 52.710938 L 61.964844 43.558594 Z M 18.40625 54.371094 L 16.273438 60.246094 L 26.191406 63.785156 L 28.292969 58.003906 C 25.046875 57.527344 21.921875 56.441406 19.078125 54.804688 C 18.855469 54.664062 18.628906 54.519531 18.40625 54.371094 Z M 45.664062 54.433594 C 42.644531 56.292969 39.277344 57.515625 35.765625 58.023438 L 37.882812 63.847656 L 47.757812 60.183594 Z M 45.664062 54.433594 "/>
<path style=" stroke:none;fill-rule:nonzero;fill:url(#linear2);" d="M 30.59375 12.375 C 23.960938 12.828125 17.988281 16.546875 14.664062 22.304688 C 9.164062 31.882812 12.449219 44.105469 22.007812 49.640625 C 31.570312 55.160156 43.796875 51.890625 49.328125 42.335938 C 54.828125 32.757812 51.542969 20.539062 41.984375 15.007812 C 38.535156 13.011719 34.566406 12.09375 30.59375 12.375 Z M 32 16.320312 C 40.835938 16.320312 48 23.484375 48 32.320312 C 48 41.15625 40.835938 48.320312 32 48.320312 C 23.164062 48.320312 16 41.15625 16 32.320312 C 16 23.484375 23.164062 16.320312 32 16.320312 Z M 32 16.320312 "/>
</g>
</svg>
