<svg xmlns="http://www.w3.org/2000/svg" xmlns:xlink="http://www.w3.org/1999/xlink" width="64" height="64" viewBox="0 0 64 64" version="1.1">
<defs>
<linearGradient id="linear0" gradientUnits="userSpaceOnUse" x1="0" y1="0" x2="0" y2="1" gradientTransform="matrix(64,0,0,64,0,0)">
<stop offset="0" style="stop-color:#ff6666;stop-opacity:1;"/>
<stop offset="1" style="stop-color:#d90000;stop-opacity:1;"/>
</linearGradient>
</defs>
<g id="surface1">
<path style=" stroke:none;fill-rule:evenodd;fill:url(#linear0);" d="M 63.960938 40.371094 L 55.527344 8.746094 C 55.527344 8.652344 55.433594 8.558594 55.246094 8.464844 L 23.636719 0 C 23.546875 0 23.359375 0 23.265625 0.09375 L 0.09375 23.253906 C 0 23.347656 0 23.441406 0 23.628906 L 8.433594 55.253906 C 8.433594 55.347656 8.527344 55.441406 8.714844 55.535156 L 40.324219 64 C 40.417969 64 40.601562 64 40.695312 63.90625 L 63.867188 40.746094 C 63.960938 40.558594 64.054688 40.464844 63.960938 40.371094 Z M 33 15.535156 L 24.65625 46.605469 C 24.65625 46.699219 24.566406 46.699219 24.472656 46.605469 L 1.855469 23.90625 C 1.761719 23.8125 1.855469 23.8125 1.855469 23.722656 L 32.90625 15.347656 C 32.90625 15.441406 33 15.441406 33 15.535156 Z M 33 15.535156 "/>
</g>
</svg>
