<svg xmlns="http://www.w3.org/2000/svg" xmlns:xlink="http://www.w3.org/1999/xlink" width="64" height="64" viewBox="0 0 64 64" version="1.1">
<defs>
<linearGradient id="linear0" gradientUnits="userSpaceOnUse" x1="0" y1="0" x2="0" y2="1" gradientTransform="matrix(64,0,0,64,0,0)">
<stop offset="0" style="stop-color:#ff6666;stop-opacity:1;"/>
<stop offset="1" style="stop-color:#d90000;stop-opacity:1;"/>
</linearGradient>
</defs>
<g id="surface1">
<path style=" stroke:none;fill-rule:evenodd;fill:url(#linear0);" d="M 55.550781 59.441406 C 45.15625 67.707031 28.15625 64.535156 16.050781 51.527344 C 13.070312 48.320312 10.648438 44.796875 8.800781 41.140625 L 3.242188 41.140625 C 1.445312 41.140625 0 39.691406 0 37.910156 L 0 26.097656 C 0 24.3125 1.449219 22.867188 3.242188 22.867188 L 4.457031 22.867188 C 4.640625 16.636719 6.660156 10.910156 10.632812 6.644531 L 10.625 6.648438 C 19.828125 -3.246094 36.328125 -1.867188 49.050781 9.261719 C 49.21875 9.175781 49.414062 9.140625 49.613281 9.140625 L 55.523438 9.140625 C 56.417969 9.140625 57.140625 9.867188 57.140625 10.757812 L 57.140625 16.667969 C 57.140625 17.125 56.949219 17.539062 56.628906 17.816406 C 62.910156 26.96875 65.273438 37.652344 63.3125 46.511719 C 63.746094 46.925781 64 47.511719 64 48.160156 L 64 57.019531 C 64 58.359375 62.910156 59.441406 61.566406 59.441406 Z M 58.621094 45.738281 C 62.367188 37.898438 60.625 27.011719 54.167969 18.28125 L 49.613281 18.28125 C 48.71875 18.28125 47.996094 17.558594 47.996094 16.667969 L 47.996094 11.847656 C 38.457031 4.203125 26.691406 3.636719 19.726562 11.128906 L 19.730469 11.140625 C 16.816406 14.277344 15.214844 18.386719 14.859375 22.867188 L 15.042969 22.867188 C 16.839844 22.867188 18.285156 24.316406 18.285156 26.097656 L 18.285156 37.910156 C 18.285156 38.050781 18.273438 38.191406 18.253906 38.332031 C 19.59375 41.019531 21.382812 43.597656 23.5625 45.945312 C 31.542969 54.535156 42.277344 57.433594 50.285156 53.910156 L 50.285156 48.160156 C 50.285156 46.820312 51.375 45.738281 52.71875 45.738281 Z M 58.621094 45.738281 "/>
</g>
</svg>
