<svg xmlns="http://www.w3.org/2000/svg" xmlns:xlink="http://www.w3.org/1999/xlink" width="64" height="64" viewBox="0 0 64 64" version="1.1">
<defs>
<linearGradient id="linear0" gradientUnits="userSpaceOnUse" x1="0" y1="0" x2="0" y2="1" gradientTransform="matrix(54.21875,0,0,64,4.890625,0)">
<stop offset="0" style="stop-color:#ff6666;stop-opacity:1;"/>
<stop offset="1" style="stop-color:#d90000;stop-opacity:1;"/>
</linearGradient>
</defs>
<g id="surface1">
<path style=" stroke:none;fill-rule:evenodd;fill:url(#linear0);" d="M 33.25 0 C 41.652344 0 48.0625 1.773438 52.480469 5.324219 C 56.902344 8.875 59.109375 14.054688 59.109375 20.863281 C 59.109375 27.890625 56.902344 33.214844 52.480469 36.835938 C 48.0625 40.457031 41.652344 42.269531 33.25 42.269531 L 26.621094 42.269531 L 26.621094 53.027344 L 37.597656 53.027344 L 37.597656 64 L 4.890625 64 L 4.890625 53.027344 L 14.015625 53.027344 L 14.015625 10.972656 L 4.890625 10.972656 L 4.890625 0 Z M 33.140625 32.378906 C 41.6875 32.378906 45.960938 28.648438 45.960938 21.1875 C 45.960938 17.710938 44.914062 15.140625 42.8125 13.472656 C 40.710938 11.808594 37.488281 10.972656 33.140625 10.972656 L 26.730469 10.972656 L 26.730469 32.378906 Z M 33.140625 32.378906 "/>
</g>
</svg>
