<svg xmlns="http://www.w3.org/2000/svg" xmlns:xlink="http://www.w3.org/1999/xlink" width="64" height="64" viewBox="0 0 64 64" version="1.1">
<defs>
<linearGradient id="linear0" gradientUnits="userSpaceOnUse" x1="0" y1="0" x2="0" y2="1" gradientTransform="matrix(64,0,0,40.46875,0,11.765625)">
<stop offset="0" style="stop-color:#ff6666;stop-opacity:1;"/>
<stop offset="1" style="stop-color:#d90000;stop-opacity:1;"/>
</linearGradient>
</defs>
<g id="surface1">
<path style=" stroke:none;fill-rule:evenodd;fill:url(#linear0);" d="M 14.699219 52.234375 C 12.652344 52.234375 10.777344 51.851562 9.082031 51.089844 C 7.386719 50.324219 5.988281 49.300781 4.890625 48.015625 C 3.792969 46.726562 2.871094 45.210938 2.125 43.457031 C 1.378906 41.707031 0.839844 39.882812 0.503906 37.980469 C 0.167969 36.082031 0 34.085938 0 32 C 0 28.421875 0.484375 25.152344 1.453125 22.191406 C 2.421875 19.226562 4.042969 16.75 6.316406 14.757812 C 8.589844 12.761719 11.382812 11.765625 14.699219 11.765625 C 19.65625 11.765625 23.214844 14.078125 25.375 18.695312 L 21.128906 20.988281 C 20.308594 19.460938 19.414062 18.285156 18.445312 17.46875 C 17.476562 16.648438 16.226562 16.238281 14.699219 16.238281 C 12.984375 16.238281 11.476562 16.710938 10.171875 17.664062 C 8.867188 18.613281 7.851562 19.871094 7.125 21.4375 C 6.398438 23 5.859375 24.667969 5.503906 26.4375 C 5.152344 28.207031 4.976562 30.0625 4.976562 32 C 4.976562 34.792969 5.300781 37.339844 5.953125 39.628906 C 6.605469 41.921875 7.6875 43.851562 9.195312 45.414062 C 10.703125 46.980469 12.539062 47.761719 14.699219 47.761719 C 17.679688 47.761719 19.953125 46.105469 21.519531 42.789062 L 25.824219 44.410156 C 24.855469 46.71875 23.449219 48.601562 21.601562 50.054688 C 19.757812 51.507812 17.457031 52.234375 14.699219 52.234375 Z M 40.859375 51.5625 L 36.386719 51.5625 L 38.066406 40.550781 L 31.46875 40.550781 L 32.195312 36.359375 L 38.679688 36.359375 L 40.132812 26.914062 L 33.816406 26.914062 L 34.488281 22.777344 L 40.746094 22.777344 L 42.3125 12.4375 L 46.785156 12.4375 L 45.21875 22.777344 L 52.875 22.777344 L 54.496094 12.4375 L 58.914062 12.4375 L 57.292969 22.777344 L 64 22.777344 L 63.328125 26.914062 L 56.675781 26.914062 L 55.222656 36.359375 L 61.597656 36.359375 L 60.980469 40.550781 L 54.609375 40.550781 L 52.933594 51.5625 L 48.515625 51.5625 L 50.195312 40.550781 L 42.535156 40.550781 Z M 44.605469 26.914062 L 43.152344 36.359375 L 50.808594 36.359375 L 52.261719 26.914062 Z M 44.605469 26.914062 "/>
</g>
</svg>
