<svg xmlns="http://www.w3.org/2000/svg" xmlns:xlink="http://www.w3.org/1999/xlink" width="64" height="64" viewBox="0 0 64 64" version="1.1">
<defs>
<linearGradient id="linear0" gradientUnits="userSpaceOnUse" x1="0" y1="0" x2="0" y2="1" gradientTransform="matrix(63.96875,0,0,56,0,4)">
<stop offset="0" style="stop-color:#ff6666;stop-opacity:1;"/>
<stop offset="1" style="stop-color:#d90000;stop-opacity:1;"/>
</linearGradient>
</defs>
<g id="surface1">
<path style=" stroke:none;fill-rule:nonzero;fill:url(#linear0);" d="M 35.96875 4 L 24.765625 12 L 15.976562 12 C 10.945312 12.058594 7.257812 11.878906 4.25 13.539062 C 2.691406 14.425781 1.503906 15.84375 0.898438 17.53125 C 0.242188 19.285156 0 21.371094 0 24 L 0 48 C 0 50.632812 0.242188 52.714844 0.898438 54.46875 C 1.503906 56.15625 2.691406 57.574219 4.25 58.460938 C 7.261719 60.125 10.945312 59.941406 15.976562 60 L 47.992188 60 C 53.023438 59.941406 56.707031 60.121094 59.71875 58.460938 C 61.277344 57.574219 62.464844 56.15625 63.070312 54.46875 C 63.730469 52.714844 63.96875 50.628906 63.96875 48 L 63.96875 24 C 63.96875 21.367188 63.730469 19.285156 63.070312 17.53125 C 62.410156 15.773438 61.226562 14.371094 59.71875 13.539062 C 56.707031 11.875 53.023438 12.058594 47.992188 12 L 47.171875 12 Z M 15.953125 16 L 47.96875 16 C 53 16.058594 56.324219 16.238281 57.789062 17.046875 C 58.519531 17.445312 58.9375 17.898438 59.328125 18.9375 C 59.71875 19.976562 59.96875 21.632812 59.96875 24 L 59.96875 48 C 59.96875 50.367188 59.714844 52.023438 59.328125 53.0625 C 58.9375 54.101562 58.519531 54.550781 57.789062 54.953125 C 56.324219 55.761719 53 55.941406 47.96875 56 L 15.953125 56 C 10.917969 55.941406 7.597656 55.761719 6.132812 54.953125 C 5.402344 54.554688 4.980469 54.101562 4.59375 53.0625 C 4.207031 52.023438 3.953125 50.367188 3.953125 48 L 3.953125 24 C 3.953125 21.632812 4.207031 19.976562 4.59375 18.9375 C 4.984375 17.898438 5.40625 17.449219 6.140625 17.046875 C 7.605469 16.238281 10.917969 16.058594 15.953125 16 Z M 15.953125 16 "/>
</g>
</svg>
