<svg xmlns="http://www.w3.org/2000/svg" xmlns:xlink="http://www.w3.org/1999/xlink" width="64" height="64" viewBox="0 0 64 64" version="1.1">
<defs>
<linearGradient id="linear0" gradientUnits="userSpaceOnUse" x1="0" y1="0" x2="0" y2="1" gradientTransform="matrix(47.148438,0,0,64,8.425781,0)">
<stop offset="0" style="stop-color:#ff6666;stop-opacity:1;"/>
<stop offset="1" style="stop-color:#d90000;stop-opacity:1;"/>
</linearGradient>
</defs>
<g id="surface1">
<path style=" stroke:none;fill-rule:nonzero;fill:url(#linear0);" d="M 31.980469 0 C 29.582031 0 27.570312 1.367188 26.644531 3.289062 C 24.820312 2.054688 22.269531 1.8125 20.207031 2.953125 C 18.136719 4.078125 17.050781 6.226562 17.25 8.3125 C 15.039062 8.296875 12.722656 9.160156 11.539062 11.082031 C 10.339844 13.027344 10.585938 15.410156 11.917969 17.128906 C 9.867188 17.988281 8.425781 19.894531 8.425781 22.136719 C 8.425781 24.382812 9.867188 26.292969 11.917969 27.152344 C 10.601562 28.871094 10.339844 31.234375 11.539062 33.195312 C 12.722656 35.117188 15.039062 36.152344 17.25 35.964844 C 17.050781 38.0625 18.136719 40.210938 20.207031 41.324219 C 20.742188 41.617188 21.316406 41.777344 21.894531 41.886719 L 21.894531 64 L 32 53.894531 L 42.105469 64 L 42.105469 41.941406 C 42.691406 41.871094 43.257812 41.71875 43.792969 41.324219 C 45.863281 40.203125 46.949219 38.054688 46.75 35.964844 C 48.960938 35.984375 51.277344 35.117188 52.460938 33.195312 C 53.660156 31.25 53.414062 28.871094 52.082031 27.152344 C 54.132812 26.292969 55.574219 24.382812 55.574219 22.136719 C 55.574219 19.894531 54.132812 17.988281 52.082031 17.128906 C 53.398438 15.410156 53.660156 13.046875 52.460938 11.082031 C 51.277344 9.160156 48.960938 8.128906 46.75 8.3125 C 46.949219 6.21875 45.863281 4.070312 43.792969 2.953125 C 41.722656 1.832031 39.179688 2.058594 37.355469 3.289062 C 36.429688 1.367188 34.417969 0 32.019531 0 L 31.976562 0 Z M 31.980469 8.199219 C 40.105469 8.199219 46.71875 14.394531 46.71875 22.035156 C 46.71875 29.679688 40.125 35.859375 31.980469 35.859375 C 23.859375 35.859375 17.25 29.675781 17.25 22.035156 C 17.25 14.390625 23.839844 8.199219 31.980469 8.199219 Z M 31.980469 10.96875 C 25.484375 10.96875 20.207031 15.925781 20.207031 22.035156 C 20.207031 28.148438 25.484375 33.09375 31.980469 33.09375 C 38.480469 33.09375 43.765625 28.148438 43.765625 22.035156 C 43.765625 15.925781 38.480469 10.96875 31.980469 10.96875 Z M 31.980469 10.96875 "/>
</g>
</svg>
