<svg xmlns="http://www.w3.org/2000/svg" xmlns:xlink="http://www.w3.org/1999/xlink" width="64" height="64" viewBox="0 0 64 64" version="1.1">
<defs>
<linearGradient id="linear0" gradientUnits="userSpaceOnUse" x1="0" y1="0" x2="0" y2="1" gradientTransform="matrix(49.015625,0,0,64,7.492188,0)">
<stop offset="0" style="stop-color:#ff6666;stop-opacity:1;"/>
<stop offset="1" style="stop-color:#d90000;stop-opacity:1;"/>
</linearGradient>
</defs>
<g id="surface1">
<path style=" stroke:none;fill-rule:evenodd;fill:url(#linear0);" d="M 46.605469 4.445312 C 46.605469 1.992188 48.597656 0 51.050781 0 C 53.5 0 55.492188 1.992188 55.492188 4.445312 C 55.492188 6.898438 53.5 8.890625 51.050781 8.890625 C 48.597656 8.890625 46.605469 6.898438 46.605469 4.445312 Z M 7.492188 59.554688 C 7.492188 57.101562 9.484375 55.109375 11.9375 55.109375 C 14.390625 55.109375 16.382812 57.101562 16.382812 59.554688 C 16.382812 62.007812 14.390625 64 11.9375 64 C 9.484375 64 7.492188 62.007812 7.492188 59.554688 Z M 7.492188 8.890625 C 7.492188 6.925781 9.085938 5.332031 11.050781 5.332031 C 13.011719 5.332031 14.605469 6.925781 14.605469 8.890625 C 14.605469 10.851562 13.011719 12.445312 11.050781 12.445312 C 9.085938 12.445312 7.492188 10.851562 7.492188 8.890625 Z M 32.382812 7.109375 C 20.972656 7.125 11.03125 14.894531 8.265625 25.964844 C 12.648438 20.976562 22.046875 17.785156 32.382812 17.777344 C 42.726562 17.785156 52.128906 20.980469 56.507812 25.980469 C 53.746094 14.902344 43.800781 7.121094 32.382812 7.109375 Z M 8.257812 38.019531 C 11.019531 49.097656 20.964844 56.878906 32.382812 56.890625 C 43.792969 56.875 53.734375 49.105469 56.5 38.035156 C 52.113281 43.023438 42.71875 46.214844 32.382812 46.222656 C 22.039062 46.214844 12.636719 43.019531 8.257812 38.019531 Z M 8.257812 38.019531 "/>
</g>
</svg>
