<svg xmlns="http://www.w3.org/2000/svg" xmlns:xlink="http://www.w3.org/1999/xlink" width="64" height="64" viewBox="0 0 64 64" version="1.1">
<defs>
<linearGradient id="linear0" gradientUnits="userSpaceOnUse" x1="0" y1="0" x2="0" y2="1" gradientTransform="matrix(64,0,0,61.429687,0,1.285156)">
<stop offset="0" style="stop-color:#ff6666;stop-opacity:1;"/>
<stop offset="1" style="stop-color:#d90000;stop-opacity:1;"/>
</linearGradient>
</defs>
<g id="surface1">
<path style=" stroke:none;fill-rule:nonzero;fill:url(#linear0);" d="M 47.765625 2.292969 C 46.660156 1.761719 45.605469 1.4375 44.605469 1.332031 C 43.59375 1.226562 42.667969 1.296875 41.828125 1.535156 C 40.992188 1.777344 40.253906 2.171875 39.613281 2.71875 C 38.972656 3.269531 38.464844 3.941406 38.082031 4.730469 C 37.839844 5.230469 37.664062 5.695312 37.550781 6.125 C 37.433594 6.566406 37.351562 6.957031 37.3125 7.296875 C 37.269531 7.648438 37.257812 7.941406 37.269531 8.175781 C 37.277344 8.410156 37.273438 8.617188 37.292969 8.714844 L 37.398438 9.761719 C 37.449219 10.25 37.398438 10.625 37.242188 10.890625 C 37.097656 11.167969 36.820312 11.324219 36.414062 11.363281 C 36.316406 11.371094 36.214844 11.371094 36.101562 11.367188 C 35.992188 11.363281 35.890625 11.351562 35.804688 11.332031 L 19.285156 3.382812 L 13.90625 14.558594 C 13.886719 14.644531 13.875 14.746094 13.871094 14.859375 C 13.859375 14.972656 13.867188 15.074219 13.875 15.167969 C 13.914062 15.578125 14.070312 15.851562 14.347656 15.996094 C 14.609375 16.152344 14.988281 16.203125 15.476562 16.15625 L 16.523438 16.046875 C 16.621094 16.03125 16.828125 16.035156 17.0625 16.023438 C 17.296875 16.011719 17.589844 16.027344 17.941406 16.070312 C 18.28125 16.105469 18.667969 16.1875 19.113281 16.304688 C 19.542969 16.417969 20.007812 16.597656 20.507812 16.835938 C 21.296875 17.21875 21.96875 17.726562 22.519531 18.367188 C 23.066406 19.007812 23.460938 19.75 23.703125 20.582031 C 23.941406 21.421875 24.011719 22.347656 23.90625 23.359375 C 23.792969 24.359375 23.472656 25.414062 22.945312 26.519531 C 22.410156 27.625 21.804688 28.550781 21.117188 29.285156 C 20.429688 30.003906 19.695312 30.539062 18.914062 30.878906 C 18.132812 31.226562 17.324219 31.386719 16.476562 31.355469 C 15.632812 31.324219 14.792969 31.105469 13.945312 30.695312 C 13.453125 30.464844 13.019531 30.214844 12.628906 29.945312 C 12.242188 29.683594 11.917969 29.433594 11.644531 29.191406 C 11.371094 28.949219 11.152344 28.734375 10.988281 28.546875 C 10.828125 28.34375 10.765625 28.214844 10.71875 28.113281 L 10.144531 27.222656 C 9.882812 26.808594 9.605469 26.546875 9.320312 26.4375 C 9.039062 26.3125 8.722656 26.363281 8.375 26.585938 C 8.296875 26.632812 8.214844 26.699219 8.128906 26.773438 C 8.046875 26.847656 7.976562 26.917969 7.917969 26.988281 L 0 43.429688 L 16.515625 51.378906 C 16.601562 51.398438 16.703125 51.410156 16.816406 51.414062 C 16.933594 51.425781 17.035156 51.421875 17.128906 51.410156 C 17.539062 51.371094 17.8125 51.214844 17.960938 50.941406 C 18.113281 50.675781 18.164062 50.296875 18.113281 49.8125 L 18.007812 48.761719 C 17.988281 48.664062 17.996094 48.457031 17.980469 48.222656 C 17.972656 47.988281 17.984375 47.695312 18.027344 47.34375 C 18.070312 47.007812 18.148438 46.617188 18.265625 46.171875 C 18.378906 45.742188 18.554688 45.277344 18.796875 44.777344 C 19.175781 43.988281 19.6875 43.320312 20.328125 42.765625 C 20.96875 42.21875 21.707031 41.824219 22.542969 41.585938 C 23.378906 41.34375 24.304688 41.277344 25.320312 41.378906 C 26.316406 41.492188 27.371094 41.8125 28.480469 42.339844 C 29.585938 42.878906 30.507812 43.484375 31.246094 44.167969 C 31.964844 44.855469 32.496094 45.59375 32.84375 46.375 C 33.183594 47.152344 33.34375 47.964844 33.316406 48.808594 C 33.285156 49.652344 33.066406 50.5 32.65625 51.34375 C 32.421875 51.832031 32.171875 52.269531 31.90625 52.65625 C 31.644531 53.042969 31.390625 53.367188 31.148438 53.640625 C 30.910156 53.914062 30.695312 54.132812 30.503906 54.296875 C 30.300781 54.457031 30.171875 54.519531 30.070312 54.570312 L 29.179688 55.140625 C 28.769531 55.402344 28.507812 55.679688 28.394531 55.964844 C 28.269531 56.246094 28.324219 56.5625 28.542969 56.910156 C 28.59375 56.988281 28.65625 57.070312 28.730469 57.15625 C 28.804688 57.238281 28.878906 57.308594 28.945312 57.371094 L 40.046875 62.714844 L 47.96875 46.273438 C 48.023438 46.203125 48.09375 46.132812 48.175781 46.058594 C 48.265625 45.984375 48.34375 45.921875 48.421875 45.871094 C 48.769531 45.648438 49.085938 45.597656 49.367188 45.71875 C 49.652344 45.835938 49.929688 46.09375 50.191406 46.503906 L 50.765625 47.394531 C 50.816406 47.496094 50.875 47.628906 51.039062 47.832031 C 51.199219 48.019531 51.425781 48.238281 51.691406 48.476562 C 51.964844 48.71875 52.289062 48.96875 52.679688 49.234375 C 53.066406 49.5 53.503906 49.75 53.992188 49.984375 C 54.839844 50.390625 55.679688 50.613281 56.527344 50.640625 C 57.371094 50.667969 58.179688 50.511719 58.960938 50.167969 C 59.742188 49.824219 60.476562 49.289062 61.164062 48.570312 C 61.851562 47.835938 62.457031 46.914062 62.992188 45.804688 C 63.523438 44.699219 63.84375 43.644531 63.953125 42.648438 C 64.058594 41.628906 63.992188 40.703125 63.75 39.871094 C 63.507812 39.035156 63.113281 38.292969 62.566406 37.652344 C 62.015625 37.011719 61.34375 36.5 60.554688 36.125 C 60.058594 35.882812 59.59375 35.707031 59.160156 35.59375 C 58.71875 35.476562 58.328125 35.394531 57.988281 35.355469 C 57.636719 35.3125 57.34375 35.292969 57.109375 35.308594 C 56.875 35.320312 56.667969 35.316406 56.574219 35.335938 L 55.523438 35.441406 C 55.035156 35.488281 54.660156 35.433594 54.394531 35.285156 C 54.121094 35.140625 53.964844 34.863281 53.921875 34.453125 C 53.914062 34.359375 53.914062 34.257812 53.917969 34.144531 C 53.921875 34.03125 53.933594 33.929688 53.953125 33.84375 L 59.332031 22.667969 L 48.230469 17.316406 C 48.164062 17.261719 48.09375 17.191406 48.019531 17.109375 C 47.945312 17.023438 47.878906 16.941406 47.832031 16.863281 C 47.605469 16.515625 47.554688 16.199219 47.683594 15.917969 C 47.792969 15.632812 48.054688 15.355469 48.460938 15.09375 L 49.351562 14.519531 C 49.457031 14.46875 49.585938 14.410156 49.792969 14.25 C 49.980469 14.085938 50.195312 13.863281 50.4375 13.59375 C 50.675781 13.320312 50.929688 12.996094 51.191406 12.609375 C 51.457031 12.21875 51.707031 11.785156 51.941406 11.292969 C 52.351562 10.445312 52.570312 9.605469 52.601562 8.761719 C 52.625 7.914062 52.46875 7.105469 52.125 6.324219 C 51.78125 5.542969 51.25 4.808594 50.53125 4.121094 C 49.792969 3.433594 48.871094 2.828125 47.765625 2.292969 Z M 47.765625 2.292969 "/>
</g>
</svg>
