<svg xmlns="http://www.w3.org/2000/svg" xmlns:xlink="http://www.w3.org/1999/xlink" width="64" height="64" viewBox="0 0 64 64" version="1.1">
<defs>
<linearGradient id="linear0" gradientUnits="userSpaceOnUse" x1="0" y1="0" x2="0" y2="1" gradientTransform="matrix(50.726562,0,0,64,6.636719,0)">
<stop offset="0" style="stop-color:#ff6666;stop-opacity:1;"/>
<stop offset="1" style="stop-color:#d90000;stop-opacity:1;"/>
</linearGradient>
</defs>
<g id="surface1">
<path style=" stroke:none;fill-rule:nonzero;fill:url(#linear0);" d="M 12.039062 0 C 9.0625 0 6.636719 2.425781 6.636719 5.402344 L 6.636719 58.597656 C 6.636719 61.574219 9.0625 64 12.039062 64 L 51.9375 64 C 54.917969 64 57.363281 61.566406 57.363281 58.582031 L 57.363281 17.144531 L 40.144531 0 Z M 12.039062 1.9375 L 39.347656 1.9375 L 39.742188 2.332031 L 39.742188 13.160156 C 39.742188 15.613281 41.75 17.554688 44.203125 17.554688 L 55.023438 17.546875 L 55.425781 17.945312 L 55.425781 58.582031 C 55.425781 60.511719 53.871094 62.0625 51.9375 62.0625 L 12.039062 62.0625 C 10.101562 62.0625 8.574219 60.535156 8.574219 58.597656 L 8.574219 5.402344 C 8.574219 3.464844 10.101562 1.9375 12.039062 1.9375 Z M 20.847656 18.332031 C 20.351562 18.332031 19.867188 18.480469 19.453125 18.757812 C 19.042969 19.035156 18.722656 19.425781 18.539062 19.886719 C 18.351562 20.347656 18.308594 20.855469 18.410156 21.339844 C 18.511719 21.828125 18.757812 22.269531 19.113281 22.613281 L 28.621094 32.128906 L 19.113281 41.636719 C 18.644531 42.105469 18.378906 42.742188 18.378906 43.402344 C 18.378906 44.0625 18.644531 44.699219 19.113281 45.167969 C 19.582031 45.632812 20.210938 45.894531 20.871094 45.894531 C 21.53125 45.894531 22.167969 45.632812 22.636719 45.167969 L 32.144531 35.652344 L 41.660156 45.167969 C 41.890625 45.398438 42.167969 45.578125 42.46875 45.703125 C 42.773438 45.828125 43.097656 45.894531 43.425781 45.894531 C 43.75 45.894531 44.074219 45.828125 44.378906 45.703125 C 44.679688 45.578125 44.957031 45.398438 45.1875 45.167969 C 45.421875 44.933594 45.601562 44.660156 45.726562 44.355469 C 45.851562 44.054688 45.917969 43.730469 45.917969 43.402344 C 45.917969 43.074219 45.851562 42.75 45.726562 42.445312 C 45.601562 42.144531 45.421875 41.867188 45.1875 41.636719 L 35.675781 32.128906 L 45.1875 22.613281 C 45.421875 22.382812 45.601562 22.105469 45.726562 21.804688 C 45.851562 21.5 45.917969 21.175781 45.917969 20.847656 C 45.917969 20.519531 45.851562 20.195312 45.726562 19.894531 C 45.601562 19.589844 45.421875 19.324219 45.1875 19.089844 C 44.957031 18.859375 44.679688 18.671875 44.378906 18.546875 C 44.078125 18.421875 43.75 18.355469 43.425781 18.355469 C 43.097656 18.355469 42.773438 18.421875 42.46875 18.546875 C 42.167969 18.671875 41.890625 18.859375 41.660156 19.089844 L 32.144531 28.597656 L 22.636719 19.089844 C 22.402344 18.851562 22.125 18.660156 21.816406 18.53125 C 21.511719 18.402344 21.183594 18.332031 20.847656 18.332031 Z M 20.847656 18.332031 "/>
</g>
</svg>
