<svg xmlns="http://www.w3.org/2000/svg" xmlns:xlink="http://www.w3.org/1999/xlink" width="16" height="16" viewBox="0 0 16 16" version="1.1">
<defs>
<linearGradient id="linear0" gradientUnits="userSpaceOnUse" x1="0" y1="0" x2="0" y2="1" gradientTransform="matrix(14,0,0,15,1,0.5)">
<stop offset="0" style="stop-color:#ff6666;stop-opacity:1;"/>
<stop offset="1" style="stop-color:#d90000;stop-opacity:1;"/>
</linearGradient>
</defs>
<g id="surface1">
<path style=" stroke:none;fill-rule:nonzero;fill:url(#linear0);" d="M 8 0.5 C 7.46875 0.5 6.96875 0.597656 6.507812 0.796875 C 6.046875 0.984375 5.636719 1.257812 5.296875 1.617188 L 5.296875 1.621094 C 4.964844 1.980469 4.710938 2.410156 4.53125 2.902344 C 4.34375 3.414062 4.25 3.957031 4.257812 4.5 C 4.257812 5.082031 4.34375 5.625 4.53125 6.113281 C 4.710938 6.59375 4.964844 7.023438 5.296875 7.378906 L 5.296875 7.382812 C 5.636719 7.738281 6.042969 8.019531 6.5 8.214844 L 6.507812 8.21875 C 6.96875 8.40625 7.472656 8.5 8 8.5 C 8.527344 8.5 9.027344 8.40625 9.492188 8.21875 C 9.941406 8.027344 10.347656 7.742188 10.679688 7.382812 C 11.019531 7.023438 11.28125 6.597656 11.460938 6.113281 C 11.644531 5.625 11.734375 5.082031 11.734375 4.5 L 11.742188 4.5 C 11.742188 3.925781 11.652344 3.390625 11.46875 2.902344 C 11.300781 2.425781 11.035156 1.988281 10.691406 1.617188 C 10.359375 1.257812 9.949219 0.976562 9.492188 0.796875 C 9.023438 0.59375 8.511719 0.496094 8 0.5 Z M 8 1.5 C 8.40625 1.5 8.769531 1.574219 9.101562 1.714844 L 9.113281 1.71875 L 9.121094 1.71875 C 9.453125 1.855469 9.726562 2.046875 9.960938 2.296875 L 9.960938 2.304688 C 10.199219 2.558594 10.390625 2.871094 10.527344 3.246094 L 10.527344 3.25 C 10.65625 3.601562 10.722656 4.003906 10.726562 4.453125 L 10.726562 4.5 C 10.726562 4.984375 10.65625 5.398438 10.519531 5.761719 L 10.519531 5.765625 C 10.394531 6.109375 10.203125 6.425781 9.949219 6.695312 L 9.941406 6.699219 L 9.941406 6.703125 C 9.707031 6.957031 9.425781 7.152344 9.09375 7.296875 C 8.746094 7.433594 8.375 7.503906 8 7.5 C 7.589844 7.5 7.222656 7.429688 6.890625 7.292969 L 6.886719 7.292969 C 6.5625 7.152344 6.289062 6.957031 6.046875 6.710938 L 6 6.640625 L 5.992188 6.632812 C 5.765625 6.378906 5.585938 6.085938 5.464844 5.765625 C 5.320312 5.359375 5.25 4.929688 5.257812 4.5 C 5.257812 4.03125 5.328125 3.613281 5.464844 3.25 L 5.46875 3.25 L 5.46875 3.242188 C 5.605469 2.867188 5.792969 2.558594 6.023438 2.308594 L 6.035156 2.296875 C 6.273438 2.046875 6.554688 1.855469 6.882812 1.71875 L 6.890625 1.714844 L 6.898438 1.714844 C 7.226562 1.574219 7.59375 1.5 8 1.5 Z M 15 15.5 L 14 15.5 C 14 14.632812 13.929688 14.199219 13.765625 13.667969 C 13.601562 13.132812 13.355469 12.761719 12.953125 12.457031 C 12.140625 11.847656 10.839844 11.523438 8.03125 11.523438 C 5.214844 11.523438 3.863281 11.84375 3.054688 12.457031 C 2.648438 12.761719 2.40625 13.132812 2.238281 13.667969 C 2.070312 14.203125 2 14.632812 2 15.5 L 1 15.5 C 1 14.585938 1.070312 14.058594 1.28125 13.371094 C 1.496094 12.679688 1.875 12.09375 2.453125 11.660156 C 3.601562 10.792969 5.148438 10.523438 8.03125 10.523438 C 10.910156 10.523438 12.40625 10.792969 13.554688 11.660156 C 14.128906 12.09375 14.507812 12.683594 14.71875 13.371094 C 14.933594 14.058594 15 14.585938 15 15.5 Z M 15 15.5 "/>
</g>
</svg>
