<svg xmlns="http://www.w3.org/2000/svg" xmlns:xlink="http://www.w3.org/1999/xlink" width="16" height="16" viewBox="0 0 16 16" version="1.1">
<defs>
<linearGradient id="linear0" gradientUnits="userSpaceOnUse" x1="0" y1="0" x2="0" y2="1" gradientTransform="matrix(16,0,0,16,0,0)">
<stop offset="0" style="stop-color:#ff6666;stop-opacity:1;"/>
<stop offset="1" style="stop-color:#d90000;stop-opacity:1;"/>
</linearGradient>
</defs>
<g id="surface1">
<path style=" stroke:none;fill-rule:nonzero;fill:url(#linear0);" d="M 3.992188 0 C 2.734375 0.015625 1.816406 -0.03125 1.0625 0.386719 C 0.671875 0.609375 0.375 0.960938 0.222656 1.382812 C 0.0585938 1.820312 0 2.34375 0 3 L 0 10 C 0 10.65625 0.0585938 11.179688 0.222656 11.617188 C 0.386719 12.054688 0.6875 12.40625 1.0625 12.617188 C 1.816406 13.03125 2.734375 12.984375 3.992188 13 L 7 13 L 7 14 L 9 14 L 9 13 L 12.007812 13 C 13.265625 12.984375 14.183594 13.03125 14.9375 12.617188 C 15.3125 12.40625 15.613281 12.054688 15.777344 11.617188 C 15.941406 11.179688 16 10.65625 16 10 L 16 5 C 16 4.34375 15.941406 3.820312 15.777344 3.382812 C 15.757812 3.328125 15.726562 3.28125 15.703125 3.226562 L 15.675781 3.171875 C 15.515625 2.84375 15.257812 2.566406 14.9375 2.382812 C 14.183594 1.96875 13.265625 2.015625 12.007812 2 L 8.96875 2 L 6.945312 0 Z M 4.007812 1 L 6.535156 1 L 8.300781 2.746094 L 7.03125 4 L 3.992188 4 C 2.734375 4.015625 1.816406 3.96875 1.0625 4.382812 C 1.039062 4.398438 1.023438 4.414062 1 4.429688 L 1 3 C 1 2.40625 1.0625 1.992188 1.160156 1.734375 C 1.257812 1.472656 1.363281 1.363281 1.546875 1.261719 C 1.914062 1.058594 2.742188 1.015625 4.007812 1 Z M 9.464844 3 L 11.992188 3 C 13.257812 3.015625 14.085938 3.058594 14.453125 3.261719 C 14.632812 3.363281 14.742188 3.472656 14.835938 3.734375 C 14.9375 3.992188 15 4.40625 15 5 L 15 10 C 15 10.59375 14.9375 11.007812 14.839844 11.265625 C 14.742188 11.527344 14.636719 11.636719 14.453125 11.738281 C 14.085938 11.941406 13.257812 11.984375 12 12 L 4 12 C 2.742188 11.984375 1.914062 11.941406 1.546875 11.738281 C 1.363281 11.636719 1.257812 11.527344 1.160156 11.265625 C 1.0625 11.007812 1 10.59375 1 10 L 1 7 C 1 6.40625 1.0625 5.992188 1.164062 5.734375 C 1.257812 5.472656 1.367188 5.363281 1.546875 5.261719 C 1.914062 5.058594 2.742188 5.015625 4.007812 5 L 7.445312 5 Z M 1 15 L 1 16 L 15 16 L 15 15 Z M 1 15 "/>
</g>
</svg>
