<svg xmlns="http://www.w3.org/2000/svg" xmlns:xlink="http://www.w3.org/1999/xlink" width="16" height="16" viewBox="0 0 16 16" version="1.1">
<g id="surface1">
<path style=" stroke:none;fill-rule:evenodd;fill:#ff6666;fill-opacity:1;" d="M 7.925781 3.28125 C 7.234375 3.765625 6.449219 4.320312 6.027344 5.234375 C 5.296875 6.828125 7.523438 8.570312 7.617188 8.640625 C 7.640625 8.65625 7.664062 8.667969 7.691406 8.667969 C 7.71875 8.667969 7.75 8.65625 7.773438 8.636719 C 7.816406 8.601562 7.828125 8.539062 7.800781 8.488281 C 7.792969 8.46875 6.992188 6.917969 7.023438 5.804688 C 7.035156 5.417969 7.578125 4.976562 8.152344 4.511719 C 8.679688 4.085938 9.273438 3.601562 9.625 3.035156 C 10.390625 1.789062 9.539062 0.5625 9.53125 0.550781 C 9.496094 0.503906 9.433594 0.488281 9.378906 0.507812 C 9.328125 0.535156 9.296875 0.59375 9.308594 0.648438 C 9.3125 0.65625 9.476562 1.46875 9.015625 2.300781 C 8.828125 2.648438 8.410156 2.941406 7.925781 3.28125 Z M 10.84375 3.828125 C 10.894531 3.792969 10.90625 3.726562 10.878906 3.671875 C 10.847656 3.617188 10.785156 3.59375 10.726562 3.617188 C 10.609375 3.660156 7.84375 4.726562 7.84375 6.015625 C 7.84375 6.902344 8.222656 7.371094 8.5 7.714844 C 8.609375 7.847656 8.703125 7.964844 8.734375 8.0625 C 8.820312 8.347656 8.617188 8.867188 8.527344 9.039062 C 8.503906 9.089844 8.515625 9.148438 8.558594 9.1875 C 8.582031 9.207031 8.609375 9.21875 8.640625 9.21875 C 8.664062 9.21875 8.6875 9.210938 8.710938 9.195312 C 8.757812 9.164062 9.871094 8.375 9.671875 7.421875 C 9.59375 7.0625 9.417969 6.800781 9.261719 6.566406 C 9.019531 6.207031 8.84375 5.945312 9.109375 5.464844 C 9.421875 4.90625 10.832031 3.839844 10.84375 3.828125 Z M 3.648438 9.238281 C 3.601562 9.378906 3.625 9.519531 3.710938 9.644531 C 4.011719 10.0625 5.074219 10.289062 6.703125 10.289062 C 6.921875 10.289062 7.15625 10.285156 7.394531 10.277344 C 10 10.183594 10.960938 9.375 11.003906 9.335938 C 11.046875 9.300781 11.058594 9.238281 11.03125 9.1875 C 11.003906 9.136719 10.945312 9.113281 10.890625 9.125 C 9.972656 9.375 8.261719 9.464844 7.074219 9.464844 C 5.746094 9.464844 5.070312 9.371094 4.902344 9.300781 C 4.988281 9.183594 5.511719 8.972656 6.164062 8.847656 C 6.222656 8.835938 6.265625 8.777344 6.261719 8.714844 C 6.253906 8.652344 6.203125 8.601562 6.140625 8.601562 C 5.757812 8.601562 3.847656 8.632812 3.648438 9.238281 Z M 12.359375 8.402344 C 11.820312 8.402344 11.3125 8.671875 11.289062 8.679688 C 11.242188 8.710938 11.214844 8.765625 11.230469 8.820312 C 11.242188 8.875 11.292969 8.914062 11.347656 8.914062 C 11.359375 8.914062 12.492188 8.921875 12.597656 9.570312 C 12.6875 10.128906 11.523438 11.035156 11.070312 11.335938 C 11.019531 11.371094 11 11.433594 11.023438 11.488281 C 11.042969 11.535156 11.085938 11.5625 11.136719 11.5625 C 11.144531 11.5625 11.152344 11.5625 11.160156 11.5625 C 11.269531 11.539062 13.808594 10.976562 13.539062 9.5 C 13.375 8.59375 12.804688 8.402344 12.359375 8.402344 Z M 10.617188 11.15625 C 10.625 11.109375 10.605469 11.0625 10.566406 11.035156 L 9.957031 10.609375 C 9.929688 10.585938 9.890625 10.578125 9.855469 10.589844 C 9.847656 10.589844 9.210938 10.757812 8.289062 10.859375 C 7.921875 10.902344 7.507812 10.921875 7.097656 10.921875 C 6.175781 10.921875 5.570312 10.816406 5.484375 10.734375 C 5.46875 10.710938 5.476562 10.703125 5.476562 10.695312 C 5.492188 10.652344 5.578125 10.601562 5.632812 10.578125 C 5.695312 10.554688 5.726562 10.492188 5.710938 10.429688 C 5.691406 10.367188 5.625 10.328125 5.5625 10.34375 C 4.953125 10.492188 4.652344 10.699219 4.675781 10.957031 C 4.710938 11.414062 5.777344 11.652344 6.675781 11.714844 C 6.804688 11.722656 6.945312 11.726562 7.09375 11.726562 C 8.589844 11.726562 10.507812 11.257812 10.523438 11.253906 C 10.570312 11.242188 10.609375 11.203125 10.617188 11.15625 Z M 6.027344 12.140625 C 6.070312 12.113281 6.09375 12.054688 6.078125 12.003906 C 6.058594 11.953125 6.011719 11.917969 5.957031 11.917969 C 5.875 11.917969 5.15625 11.953125 5.101562 12.410156 C 5.089844 12.546875 5.128906 12.671875 5.21875 12.78125 C 5.476562 13.085938 6.175781 13.269531 7.351562 13.335938 C 7.492188 13.34375 7.632812 13.351562 7.773438 13.351562 C 9.265625 13.351562 10.273438 12.882812 10.3125 12.863281 C 10.351562 12.84375 10.382812 12.804688 10.382812 12.757812 C 10.386719 12.710938 10.363281 12.671875 10.324219 12.648438 L 9.554688 12.175781 C 9.53125 12.160156 9.496094 12.15625 9.464844 12.160156 C 9.460938 12.164062 8.972656 12.261719 8.234375 12.363281 C 8.09375 12.382812 7.921875 12.390625 7.714844 12.390625 C 6.980469 12.390625 6.160156 12.273438 6.003906 12.195312 C 6 12.179688 6.003906 12.160156 6.027344 12.140625 Z M 7.074219 14.761719 C 10.496094 14.757812 12.335938 14.152344 12.6875 13.765625 C 12.8125 13.632812 12.828125 13.503906 12.816406 13.421875 C 12.789062 13.214844 12.601562 13.085938 12.578125 13.074219 C 12.53125 13.039062 12.460938 13.050781 12.421875 13.09375 C 12.378906 13.140625 12.378906 13.210938 12.417969 13.257812 C 12.441406 13.285156 12.453125 13.332031 12.390625 13.394531 C 12.25 13.527344 10.820312 13.925781 8.445312 14.046875 C 8.121094 14.066406 7.78125 14.074219 7.429688 14.074219 C 5.304688 14.074219 3.75 13.78125 3.542969 13.613281 C 3.625 13.5 4.171875 13.320312 4.757812 13.214844 C 4.824219 13.203125 4.871094 13.140625 4.859375 13.078125 C 4.847656 13.007812 4.789062 12.964844 4.722656 12.972656 C 4.703125 12.976562 4.648438 12.976562 4.585938 12.984375 C 3.617188 13.039062 2.5 13.171875 2.445312 13.671875 C 2.425781 13.820312 2.46875 13.960938 2.578125 14.078125 C 2.835938 14.375 3.585938 14.761719 7.074219 14.761719 Z M 13.359375 13.875 C 13.3125 13.851562 13.253906 13.867188 13.21875 13.90625 C 13.210938 13.910156 12.699219 14.449219 11.152344 14.765625 C 10.558594 14.882812 9.449219 14.945312 7.847656 14.945312 C 6.242188 14.945312 4.71875 14.878906 4.703125 14.878906 C 4.640625 14.875 4.585938 14.921875 4.578125 14.984375 C 4.570312 15.046875 4.609375 15.109375 4.671875 15.121094 C 4.683594 15.125 6.285156 15.5 8.46875 15.5 C 9.519531 15.5 10.539062 15.414062 11.503906 15.246094 C 13.300781 14.929688 13.425781 14.039062 13.429688 14 C 13.4375 13.949219 13.40625 13.898438 13.359375 13.875 Z M 13.359375 13.875 "/>
</g>
</svg>
