<svg xmlns="http://www.w3.org/2000/svg" xmlns:xlink="http://www.w3.org/1999/xlink" width="16" height="16" viewBox="0 0 16 16" version="1.1">
<g id="surface1">
<path style=" stroke:none;fill-rule:evenodd;fill:#ff6666;fill-opacity:1;" d="M 8.273438 1.691406 L 9.113281 0 L 11.515625 0 L 11.515625 2.578125 C 11.972656 2.835938 12.40625 3.140625 12.800781 3.496094 C 14.058594 4.625 14.871094 6.171875 15.089844 7.847656 C 15.308594 9.523438 14.921875 11.226562 13.992188 12.640625 C 13.066406 14.054688 11.664062 15.089844 10.039062 15.558594 C 8.414062 16.03125 6.671875 15.902344 5.136719 15.199219 L 5.835938 13.667969 C 7.007812 14.203125 8.332031 14.304688 9.570312 13.945312 C 10.8125 13.585938 11.882812 12.796875 12.585938 11.71875 C 13.292969 10.640625 13.589844 9.34375 13.421875 8.0625 C 13.257812 6.785156 12.636719 5.609375 11.679688 4.75 C 11.625 4.699219 11.570312 4.652344 11.515625 4.609375 L 11.515625 8.8125 L 9.113281 7.1875 L 9.113281 4.964844 L 7.382812 8.761719 L 9.234375 8.761719 L 9.234375 7.847656 L 12.230469 9.914062 L 9.234375 11.980469 L 9.234375 11.066406 L 6.332031 11.066406 L 4.082031 16 L 1.164062 16 L 7.421875 3.40625 C 6.40625 3.53125 5.445312 3.941406 4.648438 4.59375 C 3.652344 5.414062 2.984375 6.5625 2.761719 7.835938 C 2.609375 8.714844 2.675781 9.613281 2.953125 10.449219 L 1.996094 12.378906 C 1.128906 10.925781 0.8125 9.210938 1.105469 7.546875 C 1.398438 5.878906 2.273438 4.371094 3.582031 3.296875 C 4.890625 2.222656 6.539062 1.652344 8.226562 1.6875 C 8.242188 1.6875 8.257812 1.691406 8.273438 1.691406 Z M 11.515625 12.367188 L 9.46875 12.367188 L 11.515625 10.984375 Z M 11.515625 12.367188 "/>
</g>
</svg>
