<svg xmlns="http://www.w3.org/2000/svg" xmlns:xlink="http://www.w3.org/1999/xlink" width="16" height="16" viewBox="0 0 16 16" version="1.1">
<defs>
<linearGradient id="linear0" gradientUnits="userSpaceOnUse" x1="0" y1="0" x2="0" y2="1" gradientTransform="matrix(16,0,0,10,0,3)">
<stop offset="0" style="stop-color:#ff6666;stop-opacity:1;"/>
<stop offset="1" style="stop-color:#d90000;stop-opacity:1;"/>
</linearGradient>
</defs>
<g id="surface1">
<path style=" stroke:none;fill-rule:nonzero;fill:url(#linear0);" d="M 2.445312 3 C 1.925781 3 1.503906 3.046875 1.140625 3.191406 C 0.777344 3.335938 0.476562 3.601562 0.308594 3.925781 C -0.03125 4.574219 0.0117188 5.328125 0 6.359375 L 0 9.640625 C 0.0117188 10.671875 -0.03125 11.425781 0.308594 12.074219 C 0.476562 12.398438 0.777344 12.664062 1.140625 12.808594 C 1.503906 12.953125 1.925781 13 2.445312 13 L 5.554688 13 C 6.078125 13 6.496094 12.953125 6.859375 12.808594 C 7.226562 12.664062 7.523438 12.398438 7.691406 12.074219 C 7.988281 11.511719 7.988281 10.832031 7.992188 10 L 9.9375 9.992188 L 10.5 9.5 L 11 10 L 11.5 9.5 L 12 10 L 12.5 9.5 L 13.5 10.5 L 16 8 L 14 6 L 7.992188 6 C 7.992188 5.167969 7.984375 4.488281 7.691406 3.925781 C 7.523438 3.601562 7.222656 3.335938 6.859375 3.191406 C 6.496094 3.046875 6.078125 3 5.554688 3 Z M 2.445312 4 L 5.554688 4 C 6.007812 4 6.3125 4.050781 6.492188 4.125 C 6.671875 4.195312 6.734375 4.257812 6.804688 4.390625 C 6.945312 4.660156 6.988281 5.335938 7 6.367188 L 7 7 L 13.585938 7 L 14.585938 8 L 13.5 9.085938 L 12.5 8.085938 L 12 8.585938 L 11.5 8.085938 L 11 8.585938 L 10.546875 8.132812 L 9.558594 8.992188 L 7 9 L 7 9.632812 C 6.988281 10.664062 6.945312 11.339844 6.804688 11.609375 C 6.738281 11.742188 6.671875 11.804688 6.492188 11.875 C 6.3125 11.949219 6.007812 12 5.554688 12 L 2.445312 12 C 1.992188 12 1.6875 11.949219 1.507812 11.875 C 1.328125 11.804688 1.265625 11.742188 1.195312 11.609375 C 1.054688 11.34375 1.011719 10.664062 1 9.636719 L 1 6.363281 C 1.011719 5.335938 1.054688 4.65625 1.195312 4.390625 C 1.265625 4.257812 1.328125 4.195312 1.507812 4.125 C 1.6875 4.050781 1.992188 4 2.445312 4 Z M 3 7 C 2.449219 7 2 7.449219 2 8 C 2 8.550781 2.449219 9 3 9 C 3.550781 9 4 8.550781 4 8 C 4 7.449219 3.550781 7 3 7 Z M 3 7 "/>
</g>
</svg>
