<svg xmlns="http://www.w3.org/2000/svg" xmlns:xlink="http://www.w3.org/1999/xlink" width="16" height="16" viewBox="0 0 16 16" version="1.1">
<defs>
<linearGradient id="linear0" gradientUnits="userSpaceOnUse" x1="0" y1="0" x2="0" y2="1" gradientTransform="matrix(11.162109,0,0,8.833008,2.042969,3.930664)">
<stop offset="0" style="stop-color:#ff6666;stop-opacity:1;"/>
<stop offset="1" style="stop-color:#d90000;stop-opacity:1;"/>
</linearGradient>
<linearGradient id="linear1" gradientUnits="userSpaceOnUse" x1="0" y1="0" x2="0" y2="1" gradientTransform="matrix(11.912109,0,0,7.196289,2.051758,3.942383)">
<stop offset="0" style="stop-color:#ff6666;stop-opacity:1;"/>
<stop offset="1" style="stop-color:#d90000;stop-opacity:1;"/>
</linearGradient>
<linearGradient id="linear2" gradientUnits="userSpaceOnUse" x1="0" y1="0" x2="0" y2="1" gradientTransform="matrix(12.800781,0,0,13.009766,1.599609,1.929687)">
<stop offset="0" style="stop-color:#ff6666;stop-opacity:1;"/>
<stop offset="1" style="stop-color:#d90000;stop-opacity:1;"/>
</linearGradient>
<linearGradient id="linear3" gradientUnits="userSpaceOnUse" x1="0" y1="0" x2="0" y2="1" gradientTransform="matrix(1.785156,0,0,7.944336,7.121094,1.060547)">
<stop offset="0" style="stop-color:#ff6666;stop-opacity:1;"/>
<stop offset="1" style="stop-color:#d90000;stop-opacity:1;"/>
</linearGradient>
</defs>
<g id="surface1">
<path style=" stroke:none;fill-rule:nonzero;fill:url(#linear0);" d="M 6.117188 4.054688 C 4.304688 3.71875 2.875 4.070312 2.296875 5.058594 C 1.867188 5.792969 1.992188 6.777344 2.59375 7.820312 C 2.640625 7.914062 2.761719 7.9375 2.84375 7.882812 C 2.9375 7.835938 2.96875 7.71875 2.910156 7.632812 C 2.371094 6.695312 2.269531 5.847656 2.613281 5.242188 C 3.085938 4.425781 4.371094 4.109375 6.042969 4.417969 C 6.144531 4.4375 6.238281 4.371094 6.257812 4.265625 C 6.273438 4.164062 6.21875 4.070312 6.117188 4.054688 Z M 3.542969 9.09375 C 4.277344 9.902344 5.226562 10.65625 6.3125 11.277344 C 8.945312 12.792969 11.742188 13.203125 13.125 12.261719 C 13.210938 12.207031 13.226562 12.085938 13.171875 12 C 13.117188 11.917969 12.996094 11.898438 12.914062 11.953125 C 11.675781 12.800781 9.015625 12.410156 6.5 10.960938 C 5.449219 10.355469 4.519531 9.621094 3.8125 8.839844 C 3.746094 8.765625 3.625 8.757812 3.550781 8.832031 C 3.476562 8.898438 3.46875 9.015625 3.542969 9.09375 Z M 3.542969 9.09375 "/>
<path style=" stroke:none;fill-rule:nonzero;fill:url(#linear1);" d="M 12.679688 8.867188 C 13.871094 7.464844 14.28125 6.054688 13.710938 5.066406 C 13.292969 4.34375 12.402344 3.960938 11.230469 3.941406 C 11.128906 3.941406 11.042969 4.027344 11.042969 4.128906 C 11.042969 4.230469 11.128906 4.3125 11.230469 4.3125 C 12.289062 4.324219 13.050781 4.65625 13.398438 5.253906 C 13.871094 6.070312 13.5 7.335938 12.402344 8.628906 C 12.335938 8.703125 12.34375 8.820312 12.421875 8.886719 C 12.492188 8.953125 12.617188 8.945312 12.679688 8.867188 Z M 9.632812 4.109375 C 8.5625 4.34375 7.417969 4.789062 6.320312 5.421875 C 3.597656 6.992188 1.832031 9.304688 2.074219 10.980469 C 2.09375 11.082031 2.1875 11.148438 2.289062 11.136719 C 2.390625 11.117188 2.453125 11.023438 2.445312 10.921875 C 2.222656 9.4375 3.90625 7.25 6.507812 5.746094 C 7.578125 5.132812 8.683594 4.695312 9.714844 4.472656 C 9.816406 4.453125 9.882812 4.351562 9.855469 4.25 C 9.828125 4.15625 9.734375 4.089844 9.632812 4.109375 Z M 9.632812 4.109375 "/>
<path style=" stroke:none;fill-rule:nonzero;fill:url(#linear2);" d="M 5.234375 12.140625 C 5.859375 13.871094 6.871094 14.9375 8.015625 14.9375 C 8.851562 14.9375 9.613281 14.371094 10.21875 13.367188 C 10.273438 13.285156 10.246094 13.164062 10.152344 13.117188 C 10.070312 13.0625 9.945312 13.089844 9.902344 13.183594 C 9.359375 14.085938 8.703125 14.566406 8.015625 14.566406 C 7.066406 14.566406 6.164062 13.617188 5.585938 12.011719 C 5.550781 11.917969 5.449219 11.863281 5.34375 11.898438 C 5.242188 11.9375 5.195312 12.046875 5.234375 12.140625 Z M 10.90625 11.804688 C 11.230469 10.785156 11.398438 9.59375 11.398438 8.359375 C 11.398438 5.28125 10.320312 2.621094 8.785156 1.945312 C 8.691406 1.90625 8.582031 1.945312 8.542969 2.039062 C 8.507812 2.128906 8.542969 2.242188 8.636719 2.277344 C 10.003906 2.882812 11.023438 5.402344 11.023438 8.359375 C 11.023438 9.554688 10.859375 10.699219 10.550781 11.695312 C 10.523438 11.796875 10.578125 11.898438 10.671875 11.929688 C 10.765625 11.953125 10.867188 11.898438 10.90625 11.804688 Z M 14.398438 11.621094 C 14.398438 11.128906 14 10.726562 13.507812 10.726562 C 13.015625 10.726562 12.617188 11.128906 12.617188 11.621094 C 12.617188 12.113281 13.015625 12.511719 13.507812 12.511719 C 14.007812 12.511719 14.398438 12.113281 14.398438 11.621094 Z M 14.027344 11.621094 C 14.027344 11.910156 13.796875 12.140625 13.507812 12.140625 C 13.21875 12.140625 12.988281 11.910156 12.988281 11.621094 C 12.988281 11.332031 13.21875 11.101562 13.507812 11.101562 C 13.796875 11.101562 14.027344 11.332031 14.027344 11.621094 Z M 2.492188 12.511719 C 2.984375 12.511719 3.382812 12.113281 3.382812 11.621094 C 3.382812 11.128906 2.984375 10.726562 2.492188 10.726562 C 2 10.726562 1.601562 11.128906 1.601562 11.621094 C 1.601562 12.113281 2 12.511719 2.492188 12.511719 Z M 2.492188 12.140625 C 2.203125 12.140625 1.972656 11.910156 1.972656 11.621094 C 1.972656 11.332031 2.203125 11.101562 2.492188 11.101562 C 2.78125 11.101562 3.011719 11.332031 3.011719 11.621094 C 3.011719 11.910156 2.78125 12.140625 2.492188 12.140625 Z M 2.492188 12.140625 "/>
<path style=" stroke:none;fill-rule:nonzero;fill:url(#linear3);" d="M 8.015625 2.84375 C 8.507812 2.84375 8.90625 2.445312 8.90625 1.953125 C 8.90625 1.460938 8.507812 1.0625 8.015625 1.0625 C 7.523438 1.0625 7.121094 1.460938 7.121094 1.953125 C 7.121094 2.445312 7.523438 2.84375 8.015625 2.84375 Z M 8.015625 2.472656 C 7.726562 2.472656 7.492188 2.242188 7.492188 1.953125 C 7.492188 1.664062 7.726562 1.433594 8.015625 1.433594 C 8.300781 1.433594 8.535156 1.664062 8.535156 1.953125 C 8.535156 2.242188 8.292969 2.472656 8.015625 2.472656 Z M 8.144531 8.992188 C 7.800781 9.0625 7.457031 8.839844 7.382812 8.496094 C 7.308594 8.152344 7.53125 7.808594 7.875 7.734375 C 8.21875 7.660156 8.5625 7.882812 8.636719 8.226562 C 8.710938 8.570312 8.496094 8.914062 8.144531 8.992188 Z M 8.144531 8.992188 "/>
</g>
</svg>
