<svg xmlns="http://www.w3.org/2000/svg" xmlns:xlink="http://www.w3.org/1999/xlink" width="16" height="16" viewBox="0 0 16 16" version="1.1">
<defs>
<linearGradient id="linear0" gradientUnits="userSpaceOnUse" x1="0" y1="0" x2="0" y2="1" gradientTransform="matrix(15,0,0,11.25,0.5,2.375)">
<stop offset="0" style="stop-color:#ff6666;stop-opacity:1;"/>
<stop offset="1" style="stop-color:#d90000;stop-opacity:1;"/>
</linearGradient>
</defs>
<g id="surface1">
<path style=" stroke:none;fill-rule:nonzero;fill:url(#linear0);" d="M 7.148438 2.375 C 4.5 2.375 4.445312 4.140625 3.679688 5.332031 C 4.617188 4.890625 5.660156 4.511719 6.789062 4.21875 C 7.8125 3.957031 8.847656 3.78125 9.851562 3.703125 C 9.214844 3.183594 8.773438 2.375 7.148438 2.375 Z M 10.78125 4.90625 C 9.617188 4.929688 8.347656 5.109375 7.101562 5.429688 C 2.988281 6.492188 0.0585938 8.804688 0.554688 10.589844 C 0.839844 11.613281 2.222656 12.539062 4.277344 12.660156 C 4.277344 12.652344 4.273438 12.644531 4.273438 12.636719 C 4.273438 12.636719 4.273438 12.636719 4.273438 12.632812 C 4.273438 12.617188 4.265625 12.601562 4.261719 12.582031 C 4.140625 11.492188 4.765625 10.648438 5.484375 10.046875 C 6.203125 9.453125 7.121094 9.023438 8.164062 8.789062 C 8.667969 8.675781 9.179688 8.617188 9.679688 8.625 C 10.429688 8.632812 11.125 8.773438 11.734375 9.121094 C 12.238281 9.40625 12.699219 9.902344 12.898438 10.515625 C 14.773438 9.367188 15.742188 7.824219 15.449219 6.746094 C 15.117188 5.5625 13.328125 4.855469 10.78125 4.90625 Z M 9.664062 9.875 C 9.269531 9.871094 8.851562 9.914062 8.433594 10.007812 C 6.710938 10.390625 5.398438 11.484375 5.507812 12.445312 C 5.613281 13.40625 7.09375 13.875 8.820312 13.492188 C 10.539062 13.105469 11.851562 12.015625 11.742188 11.054688 C 11.667969 10.355469 10.847656 9.890625 9.664062 9.875 Z M 9.664062 9.875 "/>
</g>
</svg>
