<svg xmlns="http://www.w3.org/2000/svg" xmlns:xlink="http://www.w3.org/1999/xlink" width="16" height="16" viewBox="0 0 16 16" version="1.1">
<defs>
<linearGradient id="linear0" gradientUnits="userSpaceOnUse" x1="0" y1="0" x2="0" y2="1" gradientTransform="matrix(11.25,0,0,15,2.375,0.5)">
<stop offset="0" style="stop-color:#ff6666;stop-opacity:1;"/>
<stop offset="1" style="stop-color:#d90000;stop-opacity:1;"/>
</linearGradient>
</defs>
<g id="surface1">
<path style=" stroke:none;fill-rule:nonzero;fill:url(#linear0);" d="M 12.445312 0.5 C 9.589844 0.5 9.054688 4.953125 10.664062 4.953125 C 12.265625 4.953125 15.304688 0.5 12.445312 0.5 Z M 8.046875 1.183594 C 8 1.183594 7.953125 1.1875 7.902344 1.195312 C 6.28125 1.40625 6.851562 4.214844 7.714844 4.265625 C 8.546875 4.320312 9.460938 1.191406 8.046875 1.183594 Z M 5.242188 2.222656 C 5.140625 2.214844 5.03125 2.234375 4.910156 2.285156 C 3.609375 2.835938 4.710938 5.09375 5.441406 4.945312 C 6.101562 4.804688 6.195312 2.285156 5.242188 2.222656 Z M 3.117188 4.070312 C 3.003906 4.070312 2.882812 4.109375 2.75 4.207031 C 1.710938 5.003906 3.101562 6.929688 3.714844 6.632812 C 4.25 6.371094 3.90625 4.101562 3.117188 4.070312 Z M 9.265625 5.910156 C 7.011719 5.871094 4.035156 7.046875 3.527344 9.40625 C 2.976562 11.957031 5.789062 15.5 8.722656 15.5 C 10.167969 15.5 11.835938 14.148438 12.144531 12.429688 C 12.382812 11.125 9.34375 11.648438 9.453125 12.515625 C 9.585938 13.550781 8.71875 14.0625 7.875 13.394531 C 5.183594 11.265625 12.335938 10.207031 11.863281 7.300781 C 11.714844 6.394531 10.621094 5.933594 9.265625 5.910156 Z M 9.265625 5.910156 "/>
</g>
</svg>
