<svg xmlns="http://www.w3.org/2000/svg" xmlns:xlink="http://www.w3.org/1999/xlink" width="16" height="16" viewBox="0 0 16 16" version="1.1">
<defs>
<linearGradient id="linear0" gradientUnits="userSpaceOnUse" x1="0" y1="0" x2="0" y2="1" gradientTransform="matrix(3,0,0,3,10,3)">
<stop offset="0" style="stop-color:#ff6666;stop-opacity:1;"/>
<stop offset="1" style="stop-color:#d90000;stop-opacity:1;"/>
</linearGradient>
<linearGradient id="linear1" gradientUnits="userSpaceOnUse" x1="0" y1="0" x2="0" y2="1" gradientTransform="matrix(14,0,0,14,1,1)">
<stop offset="0" style="stop-color:#ff6666;stop-opacity:1;"/>
<stop offset="1" style="stop-color:#d90000;stop-opacity:1;"/>
</linearGradient>
<linearGradient id="linear2" gradientUnits="userSpaceOnUse" x1="0" y1="0" x2="0" y2="1" gradientTransform="matrix(8,0,0,5.5,3,5.5)">
<stop offset="0" style="stop-color:#ff6666;stop-opacity:1;"/>
<stop offset="1" style="stop-color:#d90000;stop-opacity:1;"/>
</linearGradient>
</defs>
<g id="surface1">
<path style=" stroke:none;fill-rule:nonzero;fill:url(#linear0);" d="M 11.5 3 C 10.671875 3 10 3.671875 10 4.5 C 10 5.328125 10.671875 6 11.5 6 C 12.328125 6 13 5.328125 13 4.5 C 13 3.671875 12.328125 3 11.5 3 Z M 11.5 3 "/>
<path style=" stroke:none;fill-rule:nonzero;fill:url(#linear1);" d="M 1 1 L 1 15 L 15 15 L 15 1 Z M 2 2 L 14 2 L 14 12 L 2 12 Z M 2 2 "/>
<path style=" stroke:none;fill-rule:nonzero;fill:url(#linear2);" d="M 6 5.5 L 3 11 L 11 11 L 8.5 6.5 L 7.5 8 Z M 6 5.5 "/>
</g>
</svg>
