<svg xmlns="http://www.w3.org/2000/svg" xmlns:xlink="http://www.w3.org/1999/xlink" width="16" height="16" viewBox="0 0 16 16" version="1.1">
<defs>
<linearGradient id="linear0" gradientUnits="userSpaceOnUse" x1="0" y1="0" x2="0" y2="1" gradientTransform="matrix(16,0,0,10.665039,0,2.666992)">
<stop offset="0" style="stop-color:#ff6666;stop-opacity:1;"/>
<stop offset="1" style="stop-color:#d90000;stop-opacity:1;"/>
</linearGradient>
</defs>
<g id="surface1">
<path style=" stroke:none;fill-rule:nonzero;fill:url(#linear0);" d="M 4.660156 2.667969 C 4.367188 2.671875 4.113281 2.863281 4.03125 3.140625 L 2.171875 9.335938 L 0 9.335938 L 0 10.667969 L 2.667969 10.667969 C 2.960938 10.667969 3.21875 10.476562 3.304688 10.195312 L 4.65625 5.6875 L 6.734375 12.851562 C 6.816406 13.128906 7.0625 13.320312 7.351562 13.332031 C 7.640625 13.34375 7.898438 13.167969 8 12.898438 L 9.425781 9.011719 L 10.070312 10.296875 C 10.183594 10.523438 10.414062 10.667969 10.667969 10.667969 L 16 10.667969 L 16 9.335938 L 11.078125 9.335938 L 9.929688 7.039062 C 9.8125 6.800781 9.5625 6.65625 9.296875 6.671875 C 9.03125 6.683594 8.800781 6.855469 8.707031 7.105469 L 7.449219 10.53125 L 5.304688 3.148438 C 5.222656 2.859375 4.960938 2.664062 4.660156 2.667969 Z M 4.660156 2.667969 "/>
</g>
</svg>
