<svg xmlns="http://www.w3.org/2000/svg" xmlns:xlink="http://www.w3.org/1999/xlink" width="16" height="16" viewBox="0 0 16 16" version="1.1">
<defs>
<linearGradient id="linear0" gradientUnits="userSpaceOnUse" x1="0" y1="0" x2="0" y2="1" gradientTransform="matrix(4,0,0,16,9,0)">
<stop offset="0" style="stop-color:#ff6666;stop-opacity:1;"/>
<stop offset="1" style="stop-color:#d90000;stop-opacity:1;"/>
</linearGradient>
<linearGradient id="linear1" gradientUnits="userSpaceOnUse" x1="0" y1="0" x2="0" y2="1" gradientTransform="matrix(5,0,0,15,3,0.000000000000013323)">
<stop offset="0" style="stop-color:#ff6666;stop-opacity:1;"/>
<stop offset="1" style="stop-color:#d90000;stop-opacity:1;"/>
</linearGradient>
</defs>
<g id="surface1">
<path style=" stroke:none;fill-rule:nonzero;fill:url(#linear0);" d="M 11 16 L 10.523438 15.078125 C 10.078125 14.21875 9.703125 13.328125 9.394531 12.414062 C 9.25 11.992188 9.121094 11.570312 9.011719 11.140625 L 9 11.085938 L 9 1 C 9 1 9 0 10 0 L 12 0 C 12 0 13 0 13 1 L 13 11.085938 L 12.988281 11.140625 C 12.960938 11.261719 12.851562 11.6875 12.605469 12.414062 C 12.296875 13.328125 11.921875 14.21875 11.476562 15.078125 Z M 10.789062 12.957031 L 11.207031 12.957031 C 11.347656 12.640625 11.5 12.304688 11.585938 12.0625 C 11.808594 11.40625 12 10.992188 12 11 L 10 11 C 10 10.992188 10.1875 11.402344 10.414062 12.0625 C 10.496094 12.308594 10.652344 12.640625 10.789062 12.957031 Z M 10 3 L 12 3 L 12 1 L 10 1 Z M 10 3 "/>
<path style=" stroke:none;fill-rule:nonzero;fill:url(#linear1);" d="M 3 0 L 3 15 L 8 15 L 8 0 Z M 4 1 L 7 1 L 7 2 L 6 2 L 6 3 L 7 3 L 7 4 L 6 4 L 6 5 L 7 5 L 7 6 L 6 6 L 6 7 L 7 7 L 7 8 L 6 8 L 6 9 L 7 9 L 7 10 L 6 10 L 6 11 L 7 11 L 7 12 L 6 12 L 6 13 L 7 13 L 7 14 L 4 14 Z M 4 1 "/>
</g>
</svg>
