<svg xmlns="http://www.w3.org/2000/svg" xmlns:xlink="http://www.w3.org/1999/xlink" width="16" height="16" viewBox="0 0 16 16" version="1.1">
<defs>
<linearGradient id="linear0" gradientUnits="userSpaceOnUse" x1="0" y1="0" x2="0" y2="1" gradientTransform="matrix(12.666016,0,0,16,1.666992,0)">
<stop offset="0" style="stop-color:#ff6666;stop-opacity:1;"/>
<stop offset="1" style="stop-color:#d90000;stop-opacity:1;"/>
</linearGradient>
</defs>
<g id="surface1">
<path style=" stroke:none;fill-rule:nonzero;fill:url(#linear0);" d="M 13.746094 0 C 13.554688 0 13.296875 0.0273438 12.953125 0.078125 L 6.78125 0.957031 C 5.40625 1.238281 5.40625 1.324219 5.40625 2.4375 L 5.40625 12.890625 C 5.304688 12.824219 5.207031 12.753906 5.101562 12.6875 C 4.664062 12.40625 4.199219 12.207031 3.574219 12.207031 C 2.792969 12.207031 2.324219 12.496094 2.042969 12.875 C 1.757812 13.253906 1.667969 13.730469 1.667969 14.101562 C 1.667969 14.546875 1.824219 15.023438 2.167969 15.382812 C 2.511719 15.746094 3.039062 16 3.796875 16 C 4.65625 16 5.257812 15.769531 5.601562 15.320312 C 5.867188 14.96875 6.015625 14.496094 6.070312 13.914062 L 6.070312 13.910156 C 6.078125 13.839844 6.082031 13.765625 6.085938 13.691406 C 6.09375 13.578125 6.09375 13.359375 6.09375 13.359375 L 6.09375 5.117188 C 6.09375 4.125 6.09375 4.070312 7.46875 3.84375 L 12.269531 3.1875 C 13.625 3.019531 13.648438 3.136719 13.648438 3.847656 L 13.648438 11.570312 C 13.546875 11.503906 13.445312 11.4375 13.339844 11.367188 C 12.90625 11.085938 12.4375 10.886719 11.8125 10.886719 C 11.03125 10.886719 10.566406 11.175781 10.28125 11.554688 C 10 11.933594 9.90625 12.414062 9.90625 12.78125 C 9.90625 13.226562 10.066406 13.703125 10.40625 14.0625 C 10.75 14.425781 11.28125 14.679688 12.039062 14.679688 C 12.898438 14.679688 13.5 14.453125 13.839844 14 C 14.109375 13.648438 14.257812 13.175781 14.308594 12.59375 L 14.308594 12.589844 C 14.316406 12.519531 14.324219 12.449219 14.328125 12.375 C 14.335938 12.257812 14.332031 12.042969 14.332031 12.042969 L 14.332031 1.160156 C 14.332031 0.292969 14.328125 0.0078125 13.746094 0 Z M 13.746094 0 "/>
</g>
</svg>
