<svg xmlns="http://www.w3.org/2000/svg" xmlns:xlink="http://www.w3.org/1999/xlink" width="16" height="16" viewBox="0 0 16 16" version="1.1">
<defs>
<linearGradient id="linear0" gradientUnits="userSpaceOnUse" x1="0" y1="0" x2="0" y2="1" gradientTransform="matrix(16,0,0,16,0,0)">
<stop offset="0" style="stop-color:#ff6666;stop-opacity:1;"/>
<stop offset="1" style="stop-color:#d90000;stop-opacity:1;"/>
</linearGradient>
</defs>
<g id="surface1">
<path style=" stroke:none;fill-rule:nonzero;fill:url(#linear0);" d="M 3.992188 0 C 2.734375 0.015625 1.816406 -0.03125 1.0625 0.441406 C 0.6875 0.679688 0.386719 1.078125 0.222656 1.582031 C 0.0585938 2.082031 0 2.675781 0 3.429688 L 0 12.570312 C 0 13.324219 0.0585938 13.917969 0.222656 14.417969 C 0.386719 14.921875 0.6875 15.324219 1.0625 15.558594 C 1.816406 16.035156 2.734375 15.984375 3.992188 16 L 12.007812 16 C 13.265625 15.984375 14.183594 16.035156 14.9375 15.558594 C 15.3125 15.324219 15.613281 14.921875 15.777344 14.417969 C 15.941406 13.917969 16 13.324219 16 12.570312 L 16 5.714844 C 16 4.960938 15.941406 4.367188 15.777344 3.867188 C 15.757812 3.804688 15.730469 3.746094 15.703125 3.691406 C 15.691406 3.667969 15.683594 3.644531 15.675781 3.625 C 15.503906 3.238281 15.25 2.921875 14.9375 2.726562 C 14.183594 2.25 13.265625 2.300781 12.007812 2.285156 L 8.96875 2.285156 L 6.945312 0 Z M 4.003906 1.144531 L 6.535156 1.144531 L 8.300781 3.136719 L 7.03125 4.570312 L 3.992188 4.570312 C 2.734375 4.589844 1.816406 4.535156 1.0625 5.011719 C 1.039062 5.023438 1.019531 5.046875 1 5.058594 L 1 3.429688 C 1 2.75 1.0625 2.277344 1.160156 1.980469 C 1.257812 1.683594 1.363281 1.558594 1.546875 1.441406 C 1.914062 1.210938 2.742188 1.160156 4.003906 1.144531 Z M 9.464844 3.429688 L 11.992188 3.429688 C 13.253906 3.445312 14.085938 3.496094 14.449219 3.726562 C 14.632812 3.84375 14.742188 3.972656 14.835938 4.269531 C 14.9375 4.566406 15 5.039062 15 5.714844 L 15 12.570312 C 15 13.25 14.9375 13.722656 14.839844 14.019531 C 14.742188 14.316406 14.636719 14.441406 14.453125 14.558594 C 14.085938 14.789062 13.261719 14.839844 12 14.855469 L 4 14.855469 C 2.738281 14.839844 1.914062 14.789062 1.546875 14.558594 C 1.363281 14.441406 1.257812 14.316406 1.160156 14.019531 C 1.0625 13.722656 1 13.25 1 12.570312 L 1 8 C 1 7.324219 1.0625 6.851562 1.164062 6.554688 C 1.257812 6.257812 1.367188 6.128906 1.550781 6.011719 C 1.914062 5.78125 2.746094 5.730469 4.007812 5.714844 L 7.445312 5.714844 Z M 9.464844 3.429688 "/>
</g>
</svg>
