<svg xmlns="http://www.w3.org/2000/svg" xmlns:xlink="http://www.w3.org/1999/xlink" width="16" height="16" viewBox="0 0 16 16" version="1.1">
<defs>
<linearGradient id="linear0" gradientUnits="userSpaceOnUse" x1="0" y1="0" x2="0" y2="1" gradientTransform="matrix(16,0,0,13,0,1.5)">
<stop offset="0" style="stop-color:#ff6666;stop-opacity:1;"/>
<stop offset="1" style="stop-color:#d90000;stop-opacity:1;"/>
</linearGradient>
</defs>
<g id="surface1">
<path style=" stroke:none;fill-rule:nonzero;fill:url(#linear0);" d="M 0 9.554688 L 3.007812 11.292969 C 3.003906 11.363281 3 11.429688 3 11.5 C 3 13.15625 4.34375 14.5 6 14.5 C 7.65625 14.5 9 13.15625 9 11.5 C 9 11.363281 8.988281 11.226562 8.96875 11.09375 L 12.605469 8.492188 C 14.496094 8.4375 16 6.890625 16 5 C 16 3.066406 14.433594 1.5 12.5 1.5 C 10.566406 1.5 9 3.066406 9 5.015625 L 6.679688 8.582031 C 6.457031 8.53125 6.226562 8.5 6 8.5 C 5.546875 8.5 5.101562 8.605469 4.695312 8.804688 L 0 6.09375 M 12.5 2.5 C 13.882812 2.5 15 3.617188 15 5 C 15 6.382812 13.882812 7.5 12.5 7.5 C 11.117188 7.5 10 6.382812 10 5 C 10 3.617188 11.117188 2.5 12.5 2.5 Z M 12.5 3.5 C 11.671875 3.5 11 4.171875 11 5 C 11 5.828125 11.671875 6.5 12.5 6.5 C 13.328125 6.5 14 5.828125 14 5 C 14 4.171875 13.328125 3.5 12.5 3.5 Z M 6 9.5 C 7.105469 9.5 8 10.394531 8 11.5 C 8 12.605469 7.105469 13.5 6 13.5 C 5.046875 13.5 4.226562 12.824219 4.039062 11.890625 L 4.746094 12.296875 C 5.464844 12.710938 6.378906 12.46875 6.796875 11.75 C 7.210938 11.027344 6.964844 10.117188 6.246094 9.699219 L 5.90625 9.503906 C 5.9375 9.5 5.96875 9.5 6 9.5 Z M 6 9.5 "/>
</g>
</svg>
