<svg xmlns="http://www.w3.org/2000/svg" xmlns:xlink="http://www.w3.org/1999/xlink" width="16" height="16" viewBox="0 0 16 16" version="1.1">
<defs>
<linearGradient id="linear0" gradientUnits="userSpaceOnUse" x1="0" y1="0" x2="0" y2="1" gradientTransform="matrix(16,0,0,14,0,1)">
<stop offset="0" style="stop-color:#ff6666;stop-opacity:1;"/>
<stop offset="1" style="stop-color:#d90000;stop-opacity:1;"/>
</linearGradient>
<linearGradient id="linear1" gradientUnits="userSpaceOnUse" x1="0" y1="0" x2="0" y2="1" gradientTransform="matrix(10,0,0,10,4,5)">
<stop offset="0" style="stop-color:#ff6666;stop-opacity:1;"/>
<stop offset="1" style="stop-color:#d90000;stop-opacity:1;"/>
</linearGradient>
</defs>
<g id="surface1">
<path style=" stroke:none;fill-rule:nonzero;fill:url(#linear0);" d="M 3.992188 1 C 2.734375 1.015625 1.816406 0.96875 1.0625 1.386719 C 0.671875 1.609375 0.375 1.960938 0.222656 2.382812 C 0.0585938 2.820312 0 3.34375 0 4 L 0 12 C 0 12.65625 0.0585938 13.179688 0.222656 13.617188 C 0.386719 14.054688 0.6875 14.40625 1.0625 14.617188 C 1.589844 14.90625 2.25 14.957031 3 14.976562 L 4 15 L 4 14 L 3 13.960938 C 2.335938 13.929688 1.796875 13.875 1.546875 13.738281 C 1.363281 13.636719 1.257812 13.527344 1.160156 13.265625 C 1.0625 13.007812 1 12.59375 1 12 L 1 4 C 1 3.40625 1.0625 2.992188 1.160156 2.734375 C 1.257812 2.472656 1.363281 2.363281 1.546875 2.261719 C 1.914062 2.058594 2.742188 2.015625 4.007812 2 L 6.535156 2 L 8.554688 4 L 11.992188 4 C 13.257812 4.015625 14.085938 4.058594 14.453125 4.261719 C 14.632812 4.363281 14.742188 4.472656 14.835938 4.734375 C 14.9375 4.992188 15 5.40625 15 6 L 15 12 L 16 12 L 16 6 C 16 5.34375 15.941406 4.820312 15.773438 4.382812 C 15.625 3.960938 15.328125 3.609375 14.9375 3.382812 C 14.183594 2.96875 13.265625 3.015625 12.007812 3 L 8.96875 3 L 6.945312 1 Z M 3.992188 1 "/>
<path style=" stroke:none;fill-rule:nonzero;fill:url(#linear1);" d="M 9 5 C 6.246094 5 4 7.246094 4 10 C 4 12.753906 6.246094 15 9 15 C 11.753906 15 14 12.753906 14 10 C 14 7.246094 11.753906 5 9 5 Z M 9 6.039062 C 10.050781 6.039062 11.058594 6.453125 11.800781 7.199219 C 12.546875 7.941406 12.960938 8.949219 12.960938 10 C 12.960938 11.050781 12.546875 12.058594 11.800781 12.800781 C 11.058594 13.546875 10.050781 13.960938 9 13.960938 C 7.949219 13.960938 6.941406 13.546875 6.199219 12.800781 C 5.453125 12.058594 5.039062 11.050781 5.039062 10 C 5.039062 8.949219 5.453125 7.941406 6.199219 7.199219 C 6.941406 6.453125 7.949219 6.039062 9 6.039062 Z M 9 6.039062 "/>
<path style=" stroke:none;fill-rule:evenodd;fill:#ff6666;fill-opacity:1;" d="M 12.351562 12.648438 L 11.648438 13.351562 L 14.148438 15.851562 L 14.851562 15.148438 Z M 12.351562 12.648438 "/>
</g>
</svg>
