<svg xmlns="http://www.w3.org/2000/svg" xmlns:xlink="http://www.w3.org/1999/xlink" width="16" height="16" viewBox="0 0 16 16" version="1.1">
<defs>
<linearGradient id="linear0" gradientUnits="userSpaceOnUse" x1="0" y1="0" x2="0" y2="1" gradientTransform="matrix(16,0,0,14,0,1)">
<stop offset="0" style="stop-color:#ff6666;stop-opacity:1;"/>
<stop offset="1" style="stop-color:#d90000;stop-opacity:1;"/>
</linearGradient>
</defs>
<g id="surface1">
<path style=" stroke:none;fill-rule:nonzero;fill:url(#linear0);" d="M 3.992188 1 C 2.734375 1.015625 1.8125 0.972656 1.0625 1.386719 C 0.6875 1.59375 0.386719 1.945312 0.222656 2.382812 C 0.0585938 2.820312 0 3.34375 0 4 L 0 12 C 0 12.65625 0.0585938 13.179688 0.222656 13.617188 C 0.386719 14.054688 0.6875 14.40625 1.0625 14.617188 C 1.816406 15.03125 2.734375 14.984375 3.992188 15 L 12.015625 15 C 13.273438 14.984375 14.191406 15.03125 14.945312 14.617188 C 15.320312 14.40625 15.621094 14.054688 15.785156 13.617188 C 15.941406 13.179688 16 12.65625 16 12 L 16 6 C 16 5.34375 15.941406 4.820312 15.777344 4.382812 C 15.757812 4.328125 15.730469 4.28125 15.703125 4.226562 C 15.695312 4.210938 15.6875 4.191406 15.675781 4.171875 C 15.503906 3.832031 15.25 3.558594 14.9375 3.382812 C 14.183594 2.96875 13.265625 3.015625 12.007812 3 L 8.960938 3 L 6.941406 1 Z M 3.992188 2 L 6.53125 2 L 8.554688 4 L 12 4 C 13.28125 4.015625 14.03125 4.027344 14.453125 4.257812 C 14.574219 4.324219 14.691406 4.445312 14.785156 4.625 C 14.769531 4.597656 14.785156 4.636719 14.816406 4.691406 C 14.828125 4.707031 14.816406 4.695312 14.828125 4.703125 C 14.835938 4.726562 14.851562 4.757812 14.84375 4.734375 C 14.945312 5 15 5.402344 15 6 L 15 9 L 1 9 L 1 4 C 1 3.402344 1.058594 3 1.15625 2.734375 C 1.242188 2.503906 1.390625 2.347656 1.546875 2.261719 C 1.96875 2.027344 2.71875 2.015625 3.992188 2 Z M 3.992188 2 "/>
</g>
</svg>
