<svg xmlns="http://www.w3.org/2000/svg" xmlns:xlink="http://www.w3.org/1999/xlink" width="16" height="16" viewBox="0 0 16 16" version="1.1">
<defs>
<linearGradient id="linear0" gradientUnits="userSpaceOnUse" x1="0" y1="0" x2="0" y2="1" gradientTransform="matrix(15,0,0,15,0.5,0.5)">
<stop offset="0" style="stop-color:#ff6666;stop-opacity:1;"/>
<stop offset="1" style="stop-color:#d90000;stop-opacity:1;"/>
</linearGradient>
</defs>
<g id="surface1">
<path style=" stroke:none;fill-rule:nonzero;fill:url(#linear0);" d="M 8.816406 11.296875 C 7.617188 11.851562 6.5 11.847656 5.75 11.792969 C 4.855469 11.726562 4.132812 11.484375 3.820312 11.269531 C 3.625 11.136719 3.359375 11.1875 3.226562 11.382812 C 3.09375 11.578125 3.148438 11.84375 3.339844 11.976562 C 3.851562 12.320312 4.75 12.574219 5.6875 12.640625 C 5.84375 12.65625 6.023438 12.660156 6.210938 12.660156 C 7.027344 12.660156 8.0625 12.582031 9.171875 12.066406 C 9.386719 11.96875 9.480469 11.714844 9.382812 11.5 C 9.28125 11.289062 9.027344 11.195312 8.816406 11.296875 Z M 13.550781 10.664062 C 13.589844 6.960938 13.972656 -0.03125 6.886719 0.53125 C -0.109375 1.09375 1.746094 8.484375 1.640625 10.960938 C 1.546875 12.273438 1.113281 13.871094 0.5 15.5 L 2.390625 15.5 C 2.585938 14.808594 2.726562 14.125 2.789062 13.476562 C 2.90625 13.554688 3.027344 13.632812 3.15625 13.707031 C 3.367188 13.832031 3.550781 13.996094 3.742188 14.171875 C 4.195312 14.582031 4.703125 15.046875 5.703125 15.105469 C 5.765625 15.109375 5.835938 15.113281 5.902344 15.113281 C 6.910156 15.113281 7.601562 14.671875 8.15625 14.316406 C 8.421875 14.148438 8.652344 14 8.867188 13.929688 C 9.480469 13.734375 10.015625 13.425781 10.417969 13.03125 C 10.480469 12.96875 10.539062 12.90625 10.59375 12.839844 C 10.816406 13.660156 11.125 14.582031 11.460938 15.5 L 15.5 15.5 C 14.53125 14.003906 13.53125 12.535156 13.550781 10.664062 Z M 2.320312 8.648438 C 2.25 7.441406 2.828125 6.425781 3.609375 6.378906 C 4.390625 6.335938 5.082031 7.277344 5.152344 8.484375 C 5.15625 8.550781 5.15625 8.613281 5.15625 8.679688 C 4.910156 8.742188 4.683594 8.832031 4.484375 8.9375 C 4.484375 8.929688 4.484375 8.917969 4.484375 8.910156 C 4.414062 8.222656 4.050781 7.707031 3.664062 7.753906 C 3.28125 7.800781 3.023438 8.394531 3.089844 9.078125 C 3.117188 9.378906 3.203125 9.648438 3.324219 9.847656 C 3.292969 9.871094 3.210938 9.933594 3.113281 10.003906 C 3.039062 10.054688 2.953125 10.121094 2.84375 10.203125 C 2.554688 9.820312 2.351562 9.269531 2.320312 8.648438 Z M 10.246094 11.632812 C 10.21875 12.273438 9.382812 12.875 8.609375 13.117188 L 8.605469 13.117188 C 8.285156 13.21875 8 13.40625 7.695312 13.597656 C 7.1875 13.921875 6.660156 14.257812 5.902344 14.257812 C 5.851562 14.257812 5.800781 14.257812 5.75 14.253906 C 5.054688 14.214844 4.726562 13.917969 4.316406 13.542969 C 4.097656 13.34375 3.875 13.140625 3.585938 12.96875 L 3.578125 12.964844 C 2.953125 12.613281 2.5625 12.171875 2.539062 11.789062 C 2.527344 11.601562 2.613281 11.4375 2.789062 11.300781 C 3.179688 11.007812 3.445312 10.820312 3.617188 10.691406 C 3.808594 10.550781 3.867188 10.507812 3.910156 10.46875 C 3.941406 10.4375 3.972656 10.40625 4.007812 10.371094 C 4.367188 10.023438 4.964844 9.441406 5.886719 9.441406 C 6.449219 9.441406 7.070312 9.65625 7.734375 10.085938 C 8.046875 10.289062 8.320312 10.382812 8.664062 10.5 C 8.898438 10.582031 9.167969 10.671875 9.527344 10.828125 L 9.53125 10.832031 C 9.867188 10.96875 10.261719 11.21875 10.246094 11.632812 Z M 10.058594 10.132812 C 9.996094 10.101562 9.929688 10.070312 9.859375 10.042969 C 9.535156 9.90625 9.273438 9.8125 9.058594 9.734375 C 9.179688 9.503906 9.25 9.210938 9.257812 8.898438 C 9.277344 8.128906 8.890625 7.507812 8.394531 7.507812 C 7.902344 7.503906 7.488281 8.125 7.46875 8.890625 C 7.46875 8.917969 7.46875 8.945312 7.46875 8.96875 C 7.167969 8.828125 6.867188 8.726562 6.574219 8.664062 C 6.574219 8.632812 6.570312 8.605469 6.570312 8.578125 C 6.542969 7.179688 7.402344 6.023438 8.488281 5.992188 C 9.574219 5.960938 10.476562 7.070312 10.503906 8.46875 C 10.515625 9.101562 10.347656 9.683594 10.058594 10.132812 Z M 10.058594 10.132812 "/>
</g>
</svg>
