<svg xmlns="http://www.w3.org/2000/svg" xmlns:xlink="http://www.w3.org/1999/xlink" width="16" height="16" viewBox="0 0 16 16" version="1.1">
<g id="surface1">
<path style=" stroke:none;fill-rule:evenodd;fill:#ff6666;fill-opacity:1;" d="M 7.984375 2.085938 C 11.296875 2.085938 13.984375 4.777344 13.984375 8.097656 C 13.984375 11.421875 11.296875 14.113281 7.984375 14.113281 C 4.671875 14.113281 1.984375 11.421875 1.984375 8.097656 C 1.984375 4.777344 4.671875 2.085938 7.984375 2.085938 Z M 6.675781 1.203125 C 5.933594 1.34375 5.222656 1.605469 4.570312 1.96875 L 3.921875 1.195312 L 1.914062 2.902344 L 2.554688 3.664062 C 2.320312 3.953125 2.109375 4.257812 1.917969 4.585938 C 1.726562 4.921875 1.566406 5.261719 1.433594 5.609375 L 0.441406 5.433594 L 0 8.035156 L 0.984375 8.210938 C 1 8.960938 1.132812 9.703125 1.378906 10.410156 L 0.492188 10.921875 L 1.820312 13.203125 L 2.699219 12.695312 C 3.175781 13.246094 3.75 13.730469 4.40625 14.125 L 4.054688 15.097656 L 6.53125 15.984375 L 6.878906 15.027344 C 7.621094 15.148438 8.375 15.144531 9.101562 15.027344 L 9.457031 16 L 11.921875 15.082031 L 11.578125 14.128906 C 12.210938 13.75 12.789062 13.273438 13.285156 12.695312 L 14.171875 13.210938 L 15.476562 10.914062 L 14.601562 10.410156 C 14.851562 9.691406 14.976562 8.949219 14.984375 8.210938 L 16 8.03125 L 15.527344 5.4375 L 14.527344 5.613281 C 14.261719 4.921875 13.890625 4.265625 13.414062 3.679688 L 14.078125 2.890625 L 12.050781 1.207031 L 11.402344 1.980469 C 10.746094 1.613281 10.039062 1.351562 9.304688 1.210938 L 9.304688 0 L 6.675781 0.394531 Z M 7.984375 4.089844 C 10.195312 4.089844 11.984375 5.882812 11.984375 8.097656 C 11.984375 10.3125 10.195312 12.109375 7.984375 12.109375 C 5.777344 12.109375 3.984375 10.3125 3.984375 8.097656 C 3.984375 5.882812 5.777344 4.089844 7.984375 4.089844 Z M 7.632812 3.101562 C 5.976562 3.214844 4.484375 4.148438 3.652344 5.589844 C 2.277344 7.992188 3.097656 11.054688 5.488281 12.441406 C 7.878906 13.824219 10.933594 13.003906 12.316406 10.609375 C 13.691406 8.210938 12.871094 5.148438 10.480469 3.761719 C 9.617188 3.257812 8.625 3.03125 7.632812 3.101562 Z M 7.632812 3.101562 "/>
</g>
</svg>
