<svg xmlns="http://www.w3.org/2000/svg" xmlns:xlink="http://www.w3.org/1999/xlink" width="16" height="16" viewBox="0 0 16 16" version="1.1">
<g id="surface1">
<path style=" stroke:none;fill-rule:evenodd;fill:#ff6666;fill-opacity:1;" d="M 8.554688 10.300781 L 7.242188 10.300781 L 6.828125 6.011719 L 6.828125 2.652344 L 8.964844 2.652344 L 8.964844 6.011719 Z M 8 0 C 3.582031 0 0 3.582031 0 8 C 0 12.417969 3.582031 16 8 16 C 12.417969 16 16 12.417969 16 8 C 16 3.582031 12.417969 0 8 0 Z M 8.882812 12.921875 C 8.613281 13.1875 8.28125 13.320312 7.890625 13.320312 C 7.496094 13.320312 7.171875 13.191406 6.917969 12.929688 C 6.664062 12.667969 6.535156 12.347656 6.535156 11.964844 C 6.535156 11.582031 6.664062 11.257812 6.917969 10.992188 C 7.171875 10.726562 7.496094 10.59375 7.890625 10.59375 C 8.28125 10.59375 8.613281 10.726562 8.882812 10.992188 C 9.15625 11.257812 9.289062 11.582031 9.289062 11.964844 C 9.289062 12.335938 9.15625 12.65625 8.882812 12.921875 Z M 8.882812 12.921875 "/>
</g>
</svg>
