
<svg xmlns="http://www.w3.org/2000/svg" xmlns:xlink="http://www.w3.org/1999/xlink" width="16px" height="16px" viewBox="0 0 16 16" version="1.1">
<g id="surface1">
<path style=" stroke:none;fill-rule:nonzero;fill:#ff6666;fill-opacity:1;" d="M 7.738281 2.519531 C 7.617188 2.519531 7.511719 2.574219 7.363281 2.71875 C 7.246094 2.828125 6.121094 4.066406 4.859375 5.472656 C 2.292969 8.332031 2.28125 8.347656 2.113281 9.273438 C 2.035156 9.699219 2.03125 9.839844 2.082031 10.171875 C 2.179688 10.789062 2.4375 11.238281 2.917969 11.613281 C 3.117188 11.769531 3.519531 11.902344 5.960938 12.632812 C 7.507812 13.097656 8.835938 13.476562 8.914062 13.480469 C 8.992188 13.484375 9.09375 13.472656 9.140625 13.457031 C 9.230469 13.417969 13.738281 8.011719 13.851562 7.800781 C 13.910156 7.6875 13.910156 7.617188 13.855469 7.386719 C 13.792969 7.125 13.800781 6.914062 13.886719 6.449219 C 13.917969 6.273438 13.902344 6.230469 13.761719 6.089844 C 13.308594 5.636719 12.851562 6.203125 12.910156 7.140625 L 12.9375 7.535156 L 11.625 9.113281 C 10.90625 9.980469 9.972656 11.105469 9.550781 11.613281 C 9.128906 12.121094 8.757812 12.523438 8.726562 12.511719 C 8.691406 12.5 7.515625 12.148438 6.113281 11.734375 C 4.433594 11.234375 3.511719 10.9375 3.417969 10.859375 C 3.089844 10.589844 2.90625 10.109375 2.957031 9.652344 C 3.011719 9.199219 3.214844 8.960938 3.542969 8.960938 C 3.605469 8.960938 4.761719 9.277344 6.113281 9.660156 C 7.84375 10.15625 8.609375 10.351562 8.707031 10.328125 C 8.886719 10.28125 8.84375 10.328125 11.589844 7.164062 C 12.863281 5.691406 13.925781 4.425781 13.941406 4.351562 C 13.984375 4.191406 13.890625 3.949219 13.753906 3.863281 C 13.628906 3.785156 7.964844 2.519531 7.738281 2.519531 Z M 8.40625 3.839844 L 9.003906 4 L 8.527344 6.359375 L 8.023438 6.222656 L 8.121094 5.796875 L 7.335938 5.582031 L 6.996094 5.941406 L 6.492188 5.804688 Z M 8.425781 4.425781 L 7.683594 5.214844 L 8.214844 5.359375 Z M 9.65625 4.847656 C 9.769531 4.847656 9.882812 4.855469 9.988281 4.871094 C 10.097656 4.882812 10.203125 4.902344 10.304688 4.929688 C 10.566406 5 10.722656 5.109375 10.777344 5.257812 C 10.828125 5.40625 10.785156 5.609375 10.640625 5.867188 L 10.128906 6.792969 L 9.660156 6.667969 L 9.792969 6.425781 C 9.675781 6.507812 9.566406 6.5625 9.464844 6.585938 C 9.359375 6.609375 9.253906 6.605469 9.140625 6.574219 C 8.992188 6.535156 8.894531 6.449219 8.855469 6.328125 C 8.816406 6.203125 8.839844 6.0625 8.925781 5.90625 C 9.03125 5.71875 9.164062 5.59375 9.332031 5.535156 C 9.5 5.480469 9.707031 5.484375 9.960938 5.554688 L 10.234375 5.628906 L 10.257812 5.585938 C 10.300781 5.503906 10.304688 5.4375 10.269531 5.382812 C 10.230469 5.328125 10.152344 5.285156 10.027344 5.253906 C 9.929688 5.226562 9.828125 5.210938 9.730469 5.210938 C 9.632812 5.207031 9.535156 5.21875 9.4375 5.246094 Z M 9.6875 5.851562 C 9.644531 5.847656 9.605469 5.855469 9.570312 5.867188 C 9.503906 5.890625 9.449219 5.9375 9.410156 6.007812 C 9.371094 6.074219 9.363281 6.132812 9.382812 6.179688 C 9.402344 6.226562 9.445312 6.261719 9.515625 6.28125 C 9.605469 6.304688 9.695312 6.289062 9.796875 6.234375 C 9.894531 6.179688 9.972656 6.101562 10.03125 5.996094 L 10.0625 5.9375 L 9.820312 5.871094 C 9.773438 5.859375 9.726562 5.851562 9.6875 5.851562 Z M 9.6875 5.851562 "/>
</g>
</svg>
