
<svg xmlns="http://www.w3.org/2000/svg" xmlns:xlink="http://www.w3.org/1999/xlink" width="16px" height="16px" viewBox="0 0 16 16" version="1.1">
<g id="surface1">
<path style=" stroke:none;fill-rule:nonzero;fill:#ff6666;fill-opacity:1;" d="M 8 1 C 4.132812 1 1 4.132812 1 8 C 1 11.867188 4.132812 15 8 15 C 11.867188 15 15 11.867188 15 8 C 15 4.132812 11.867188 1 8 1 Z M 6.5 4 L 9.5 4 C 10.332031 4 11 4.679688 11 5.523438 L 11 6.285156 C 11 7.132812 10.332031 8 9.5 8 L 9 8 L 9 11.238281 C 9 11.660156 8.789062 12 8.375 12 L 7.625 12 C 7.210938 12 7.015625 11.660156 7 11.238281 L 7 8 L 6.5 8 C 5.667969 8 5 7.128906 5 6.285156 L 5 5.523438 C 5 4.679688 5.667969 4 6.5 4 Z M 6.5 4 "/>
</g>
</svg>
