
<svg xmlns="http://www.w3.org/2000/svg" xmlns:xlink="http://www.w3.org/1999/xlink" width="16px" height="16px" viewBox="0 0 16 16" version="1.1">
<g id="surface1">
<path style=" stroke:none;fill-rule:nonzero;fill:#ff6666;fill-opacity:1;" d="M 8 1 C 7.773438 1 7.546875 1.089844 7.375 1.261719 L 1.257812 7.375 C 0.914062 7.71875 0.914062 8.28125 1.257812 8.628906 L 7.375 14.738281 C 7.71875 15.085938 8.28125 15.085938 8.625 14.738281 L 14.738281 8.628906 C 15.085938 8.28125 15.085938 7.71875 14.738281 7.375 L 8.625 1.261719 C 8.453125 1.089844 8.226562 1 8 1 Z M 7.890625 4 C 8.625 4 9.191406 4.175781 9.601562 4.527344 C 10.011719 4.878906 10.21875 5.347656 10.21875 5.929688 C 10.21875 6.421875 10.074219 6.832031 9.78125 7.164062 C 9.492188 7.492188 9.074219 7.703125 8.539062 7.796875 L 8.539062 7.828125 C 9.816406 7.992188 10.457031 8.613281 10.457031 9.679688 C 10.457031 10.398438 10.214844 10.96875 9.726562 11.382812 C 9.234375 11.792969 8.527344 12 7.601562 12 C 6.742188 12 6.054688 11.859375 5.539062 11.578125 L 5.539062 10.671875 C 6.195312 11.015625 6.875 11.1875 7.578125 11.1875 C 8.835938 11.1875 9.460938 10.675781 9.460938 9.648438 C 9.460938 8.734375 8.789062 8.273438 7.4375 8.273438 L 6.726562 8.273438 L 6.726562 7.46875 L 7.4375 7.46875 C 8.003906 7.46875 8.445312 7.335938 8.757812 7.066406 C 9.066406 6.796875 9.226562 6.441406 9.226562 5.996094 C 9.226562 5.632812 9.101562 5.347656 8.859375 5.140625 C 8.621094 4.925781 8.296875 4.820312 7.890625 4.820312 C 7.261719 4.820312 6.652344 5.035156 6.0625 5.460938 L 5.570312 4.796875 C 6.234375 4.265625 7.007812 4 7.890625 4 Z M 7.890625 4 "/>
</g>
</svg>
