<?xml version="1.0" encoding="UTF-8" standalone="no"?>
<svg
   viewBox="0 0 22 22"
   version="1.1"
   id="svg1"
   sodipodi:docname="configure.svg"
   width="22"
   height="22"
   inkscape:version="1.3.2 (091e20ef0f, 2023-11-25)"
   xmlns:inkscape="http://www.inkscape.org/namespaces/inkscape"
   xmlns:sodipodi="http://sodipodi.sourceforge.net/DTD/sodipodi-0.dtd"
   xmlns="http://www.w3.org/2000/svg"
   xmlns:svg="http://www.w3.org/2000/svg">
  <sodipodi:namedview
     id="namedview1"
     pagecolor="#ffffff"
     bordercolor="#999999"
     borderopacity="1"
     inkscape:showpageshadow="2"
     inkscape:pageopacity="0"
     inkscape:pagecheckerboard="0"
     inkscape:deskcolor="#d1d1d1"
     inkscape:zoom="17.318182"
     inkscape:cx="10.913386"
     inkscape:cy="20.614173"
     inkscape:window-width="1920"
     inkscape:window-height="994"
     inkscape:window-x="0"
     inkscape:window-y="0"
     inkscape:window-maximized="1"
     inkscape:current-layer="svg1" />
  <defs
     id="defs3051">
    <style
       type="text/css"
       id="current-color-scheme">
      .ColorScheme-Text {
        color:#d8d8d8;
      }
      </style>
  </defs>
  <g
     transform="translate(-10,-40)"
     id="22-22-configure-7"
     fill="currentColor">
    <rect
       id="rect5384-5"
       fill="none"
       height="22"
       width="22"
       y="40"
       x="10" />
    <path
       id="path2996-7"
       d="m 20.759105,43 c -0.520006,2.03e-4 -1.027326,0.175866 -1.294071,0.392578 -0.314518,0.255676 -0.472269,0.585444 -0.575363,0.890625 -0.254598,0.7536 -0.198849,1.023134 -0.477811,1.25 -0.277919,0.225977 -0.603,0.409978 -0.941686,0.533203 -0.339413,0.123493 -0.549932,-0.05885 -1.343842,-0.21875 -0.3219,-0.06477 -0.696227,-0.09425 -1.073083,0.04297 -0.321163,0.116941 -0.734165,0.46229 -0.995439,0.90625 l -0.238906,0.40625 c -0.25994,0.441109 -0.361189,0.95914 -0.302612,1.296875 0.06946,0.400677 0.282982,0.69646 0.49971,0.935547 0.536715,0.592092 0.802984,0.679114 0.864041,1.03125 0.06052,0.349162 0.06052,0.717215 0,1.066406 -0.061,0.351893 -0.32735,0.439193 -0.864041,1.03125 -0.213837,0.235903 -0.4299,0.531331 -0.49971,0.933594 -0.05897,0.33982 0.0422,0.85642 0.302612,1.298828 l 0.238906,0.40625 c 0.259676,0.441829 0.669467,0.788223 0.993448,0.90625 v -0.002 c 0.380587,0.138789 0.751666,0.110073 1.075074,0.04492 0.793925,-0.159916 1.004182,-0.342313 1.343842,-0.21875 0.338633,0.123193 0.663737,0.307218 0.941686,0.533203 0.27876,0.226649 0.22322,0.496393 0.477811,1.25 0.103038,0.304997 0.260947,0.63497 0.575363,0.890625 C 19.733139,58.824819 20.239782,59 20.759105,59 h 0.479801 c 0.520455,2.88e-4 1.029229,-0.175841 1.296062,-0.392578 0.315295,-0.256098 0.472467,-0.584882 0.575363,-0.888672 0.254655,-0.751792 0.200374,-1.024708 0.479802,-1.251953 0.278606,-0.226535 0.601791,-0.410264 0.939695,-0.533203 0.339428,-0.123498 0.549967,0.05884 1.343841,0.21875 0.321903,0.06477 0.696219,0.09426 1.073084,-0.04297 0.321111,-0.116925 0.734161,-0.46227 0.995439,-0.90625 L 28.061644,55 28.181097,54.796875 C 28.441036,54.355767 28.542285,53.837732 28.483711,53.5 28.414241,53.099324 28.200726,52.803541 27.984,52.564453 c -0.536715,-0.592092 -0.802986,-0.679114 -0.864042,-1.03125 -0.06054,-0.349165 -0.06053,-0.717211 0,-1.066406 0.06099,-0.351893 0.327349,-0.43919 0.864042,-1.03125 0.213839,-0.235905 0.4299,-0.531332 0.499711,-0.933594 0.05896,-0.33982 -0.04219,-0.85642 -0.302614,-1.298828 L 28.061644,47 27.942192,46.796875 c -0.259677,-0.441829 -0.669467,-0.788223 -0.993447,-0.90625 v 0.002 c -0.380588,-0.138789 -0.751667,-0.110073 -1.075076,-0.04492 -0.793928,0.159916 -1.004186,0.342313 -1.343841,0.21875 -0.337854,-0.122908 -0.661052,-0.306656 -0.939695,-0.533203 -0.280245,-0.227857 -0.225446,-0.499102 -0.479802,-1.25 C 23.00749,43.979647 22.850147,43.650652 22.534968,43.39458 22.274024,43.182477 21.764545,43 21.240897,43 h -0.240896 -0.238905 z m 0,1 h 0.240896 0.240896 c 0.379762,0 0.540205,0.07888 0.645045,0.164062 0.104834,0.08517 0.183597,0.219374 0.256823,0.435547 0.14645,0.432344 0.154014,1.179247 0.798341,1.703125 0.366912,0.298313 0.786452,0.538232 1.234344,0.701172 0.784789,0.285495 1.447771,-0.08598 1.90328,-0.177734 0.227755,-0.04588 0.387933,-0.04462 0.515637,0.002 0.127704,0.04652 0.27427,0.146145 0.463875,0.46875 L 27.179685,47.5 l 0.119454,0.203125 c 0.189883,0.322589 0.202022,0.501177 0.179178,0.632813 -0.02284,0.131632 -0.102388,0.263221 -0.256823,0.433593 -0.30888,0.340745 -0.964609,0.719629 -1.104938,1.529297 -0.08,0.461563 -0.08003,0.940718 0,1.402344 0.140397,0.809734 0.795961,1.188442 1.104938,1.529297 0.154489,0.170428 0.23402,0.305975 0.256823,0.4375 0.02281,0.131527 0.01079,0.306521 -0.179178,0.628906 L 27.179685,54.5 27.058242,54.703125 c -0.189848,0.322599 -0.338051,0.42221 -0.465865,0.46875 -0.127815,0.04654 -0.285967,0.04776 -0.513647,0.002 -0.455359,-0.09172 -1.118577,-0.463241 -1.90328,-0.177734 -0.447851,0.162943 -0.867404,0.402813 -1.234344,0.701172 -0.644329,0.524003 -0.651852,1.272613 -0.798341,1.705078 -0.07324,0.216235 -0.152065,0.350457 -0.256823,0.435547 C 21.781185,57.922981 21.620559,58.00021 21.240897,58 h -0.481792 c -0.379761,0 -0.540451,-0.07706 -0.645045,-0.162109 -0.104592,-0.08505 -0.183799,-0.21939 -0.256823,-0.435547 -0.146047,-0.432311 -0.15186,-1.181067 -0.796353,-1.705078 -0.367739,-0.298988 -0.789003,-0.538435 -1.236333,-0.701172 -0.784789,-0.285493 -1.447772,0.08598 -1.903279,0.177734 -0.227755,0.04588 -0.387933,0.04462 -0.515637,-0.002 -0.127705,-0.04652 -0.27427,-0.146145 -0.463875,-0.46875 l -0.240897,-0.40625 c -0.189883,-0.322589 -0.202022,-0.501177 -0.17918,-0.632813 0.02284,-0.131632 0.102389,-0.26322 0.256824,-0.433593 0.308881,-0.340744 0.96461,-0.719629 1.104939,-1.529297 0.08,-0.461554 0.08003,-0.940726 0,-1.402344 -0.140396,-0.809734 -0.795963,-1.188442 -1.104939,-1.529297 -0.154488,-0.170427 -0.234021,-0.305973 -0.256824,-0.4375 -0.0228,-0.131526 -0.01079,-0.306521 0.17918,-0.628906 l 0.240897,-0.40625 c 0.189846,-0.322589 0.33805,-0.42221 0.465865,-0.46875 0.127817,-0.04654 0.285966,-0.04776 0.513647,-0.002 0.455359,0.09171 1.118582,0.463239 1.903279,0.177734 0.447298,-0.162743 0.86857,-0.402141 1.236333,-0.701172 0.644491,-0.52413 0.650256,-1.272637 0.796353,-1.705078 0.07305,-0.216221 0.152309,-0.350587 0.256823,-0.435547 C 20.218573,44.077199 20.379462,43.99979 20.759105,44 Z m 0.240896,4 c -1.687247,0 -3.057989,1.344747 -3.057989,3 0,1.655252 1.370742,3 3.057989,3 1.687248,0 3.057988,-1.344748 3.057988,-3 0,-1.655253 -1.37074,-3 -3.057988,-3 z m 0,3 z"
       sodipodi:nodetypes="scccscscccscssscccccssscscsccscsccccsssssccccccssscsccsccssssssccccsssssscccscscsscsssssscccssscssccscscsccsssssccccc"
       style="fill:#d3dae3;fill-opacity:1;stroke-width:1.00962" />
  </g>
</svg>
