<?xml version="1.0" encoding="UTF-8" standalone="no"?>
<svg
   viewBox="0 0 22 22"
   version="1.1"
   id="svg1"
   sodipodi:docname="system-shutdown.svg"
   width="22"
   height="22"
   inkscape:version="1.3.2 (091e20ef0f, 2023-11-25)"
   xmlns:inkscape="http://www.inkscape.org/namespaces/inkscape"
   xmlns:sodipodi="http://sodipodi.sourceforge.net/DTD/sodipodi-0.dtd"
   xmlns:xlink="http://www.w3.org/1999/xlink"
   xmlns="http://www.w3.org/2000/svg"
   xmlns:svg="http://www.w3.org/2000/svg">
  <sodipodi:namedview
     id="namedview1"
     pagecolor="#ffffff"
     bordercolor="#999999"
     borderopacity="1"
     inkscape:showpageshadow="2"
     inkscape:pageopacity="0"
     inkscape:pagecheckerboard="0"
     inkscape:deskcolor="#d1d1d1"
     inkscape:zoom="12.245804"
     inkscape:cx="8.4110443"
     inkscape:cy="13.269851"
     inkscape:window-width="1920"
     inkscape:window-height="994"
     inkscape:window-x="0"
     inkscape:window-y="0"
     inkscape:window-maximized="1"
     inkscape:current-layer="svg1"
     showgrid="false">
    <inkscape:grid
       id="grid1"
       units="px"
       originx="0"
       originy="0"
       spacingx="1"
       spacingy="1"
       empcolor="#0099e5"
       empopacity="0.30196078"
       color="#0099e5"
       opacity="0.14901961"
       empspacing="5"
       dotted="false"
       gridanglex="30"
       gridanglez="30"
       visible="false" />
  </sodipodi:namedview>
  <defs
     id="defs3051">
    <style
       type="text/css"
       id="current-color-scheme">.ColorScheme-Text {color:#fcfcfc;}</style>
    <linearGradient
       inkscape:collect="always"
       xlink:href="#linearGradient9"
       id="linearGradient1130"
       x1="11"
       y1="1"
       x2="19.521629"
       y2="16.211727"
       gradientUnits="userSpaceOnUse"
       gradientTransform="matrix(0.80000005,0,0,0.80000005,2.2000003,2.2000001)" />
    <linearGradient
       id="linearGradient9"
       inkscape:collect="always">
      <stop
         style="stop-color:#d63384;stop-opacity:1"
         offset="0"
         id="stop7" />
      <stop
         style="stop-color:#00ccff;stop-opacity:1"
         offset="1"
         id="stop8" />
    </linearGradient>
    <linearGradient
       inkscape:collect="always"
       xlink:href="#linearGradient9"
       id="linearGradient1468"
       gradientUnits="userSpaceOnUse"
       gradientTransform="matrix(0.61538495,0,0,0.61538495,-14.802663,71.92308)"
       x1="41.929306"
       y1="-95.099953"
       x2="41.942657"
       y2="-107.24975" />
  </defs>
  <path
     style="fill:none"
     d="M 0,0 V 22 H 22 V 0 Z"
     id="path49" />
  <path
     d="M 10.99095,19 C 10.56316,19 10.135335,18.96264 9.7075628,18.888421 5.3550725,18.1818 2.3975877,14.07228 3.1043815,9.7209996 3.4391761,7.6197994 4.5924679,5.7602547 6.32226,4.514407 8.052116,3.2685263 10.172571,2.7664627 12.274384,3.1011663 c 4.352499,0.7065848 7.32856,4.8161444 6.621736,9.1673797 -0.130193,0.8368 -0.390601,1.636365 -0.7812,2.380214 -0.09302,0.185919 -0.186014,0.353279 -0.297607,0.520621 -0.167417,0.26033 -0.502223,0.353319 -0.762632,0.186019 -0.2604,-0.1674 -0.353402,-0.502111 -0.185996,-0.76247 0.09301,-0.148731 0.167395,-0.29753 0.260399,-0.446289 0.334814,-0.632242 0.558012,-1.338842 0.669614,-2.045455 C 18.393913,8.3635915 15.845661,4.8119431 12.088382,4.216839 10.265562,3.9193264 8.4612967,4.346999 6.9546363,5.4255432 5.4666545,6.5040947 4.480797,8.0846155 4.1832153,9.9069589 3.5693816,13.644581 6.136252,17.196241 9.874924,17.791291 c 1.599656,0.260349 3.236484,-0.05552 4.612912,-0.873932 0.260403,-0.14876 0.613807,-0.07437 0.762613,0.185916 0.148802,0.260346 0.07441,0.613705 -0.186009,0.762445 C 13.836829,18.60948 12.423188,19 10.99095,19 Z"
     id="path2-53-6"
     style="fill:url(#linearGradient1130);fill-opacity:1;stroke-width:0.185978" />
  <path
     d="M 11.000001,14.638401 C 9.4694548,14.642703 7.4024534,13.237999 7.3344007,10.936705 7.3005407,9.7916999 7.9450279,8.9508596 8.6704009,8.0648006 8.95254,7.7201606 8.7468828,7.4640489 8.4848009,7.263368 8.1582119,7.017768 7.8368082,7.1270388 7.5168881,7.4714634 6.5914566,8.3969748 6.0816008,9.6274476 6.0816008,10.936705 c 0,2.702223 2.1984074,4.900614 4.9006232,4.900614 2.702252,0 4.900637,-2.198391 4.900637,-4.900614 0,-1.3093782 -0.50982,-2.5402335 -1.435726,-3.4654976 C 13.998402,6.9645485 13.643506,7.0537786 13.400201,7.2438119 13.179836,7.4150474 13.1028,7.7671862 13.282402,8.0091 c 0.747635,0.8471961 1.323127,1.7821853 1.348,2.927605 0.0496,2.284576 -2.055402,3.705998 -3.630401,3.701696 z"
     id="path2-5-5-26"
     style="fill:url(#linearGradient1468);stroke-width:0.153152"
     sodipodi:nodetypes="cssccssscccsc" />
  <path
     style="color:#000000;text-indent:0;text-transform:none;direction:ltr;baseline-shift:baseline;fill:#d63384;fill-opacity:1;stroke-width:0.112828;enable-background:accumulate"
     d="m 11.910799,5.9232006 h -1.805158 c -0.11812,1.6e-5 -0.22564,0.107568 -0.22564,0.2256554 v 6.317947 c 0,0.118168 0.10752,0.225638 0.22564,0.225658 h 1.805158 c 0.118123,-2e-5 0.225615,-0.10749 0.225634,-0.225658 V 6.148856 c -0.0065,-0.1267114 -0.124,-0.222864 -0.225634,-0.2256554 z M 11.68515,6.374504 V 12.24117 6.374504 h -1.353892 z"
     fill-opacity="1"
     stroke="none"
     marker="none"
     visibility="visible"
     display="inline"
     overflow="visible"
     id="path2-0-1"
     sodipodi:nodetypes="ccsscccccccccc" />
</svg>
