<?xml version="1.0" encoding="UTF-8" standalone="no"?>
<svg
   viewBox="0 0 22 22"
   width="22"
   height="22"
   version="1.1"
   id="svg1"
   sodipodi:docname="system-log-out-rtl.svg"
   inkscape:version="1.3.2 (091e20ef0f, 2023-11-25)"
   xmlns:inkscape="http://www.inkscape.org/namespaces/inkscape"
   xmlns:sodipodi="http://sodipodi.sourceforge.net/DTD/sodipodi-0.dtd"
   xmlns:xlink="http://www.w3.org/1999/xlink"
   xmlns="http://www.w3.org/2000/svg"
   xmlns:svg="http://www.w3.org/2000/svg">
  <sodipodi:namedview
     id="namedview1"
     pagecolor="#ffffff"
     bordercolor="#999999"
     borderopacity="1"
     inkscape:showpageshadow="2"
     inkscape:pageopacity="0"
     inkscape:pagecheckerboard="0"
     inkscape:deskcolor="#d1d1d1"
     inkscape:zoom="11.22532"
     inkscape:cx="9.9774439"
     inkscape:cy="6.0577338"
     inkscape:window-width="1920"
     inkscape:window-height="994"
     inkscape:window-x="0"
     inkscape:window-y="0"
     inkscape:window-maximized="1"
     inkscape:current-layer="svg1" />
  <defs
     id="defs3051">
    <style
       type="text/css"
       id="current-color-scheme">.ColorScheme-Text {color:#fcfcfc;}</style>
    <linearGradient
       inkscape:collect="always"
       xlink:href="#linearGradient19"
       id="linearGradient1133"
       gradientUnits="userSpaceOnUse"
       gradientTransform="matrix(0,-0.6155594,0.61538476,0,2.9999978,19.000004)"
       x1="5.6218852e-09"
       y1="13"
       x2="25.992626"
       y2="13" />
    <linearGradient
       id="linearGradient19"
       inkscape:collect="always">
      <stop
         style="stop-color:#ffd42a;stop-opacity:1"
         offset="0"
         id="stop18" />
      <stop
         style="stop-color:#00ccff;stop-opacity:1"
         offset="1"
         id="stop19" />
    </linearGradient>
    <linearGradient
       inkscape:collect="always"
       xlink:href="#linearGradient19"
       id="linearGradient1087"
       x1="5.5095949"
       y1="11.004683"
       x2="16.378988"
       y2="11.004683"
       gradientUnits="userSpaceOnUse"
       gradientTransform="matrix(0.63256994,0,0,0.63256996,4.0747874,3.9987681)" />
  </defs>
  <path
     style="fill:none"
     d="M 0,0 V 22 H 22 V 0 Z"
     id="path29" />
  <g
     id="g1"
     transform="rotate(-90,11,11)">
    <path
       d="m 2.9999986,10.99096 c 0,-0.42782 0.037168,-0.855627 0.1115719,-1.2834323 0.7066089,-4.3524945 4.816136,-7.3099533 9.1673875,-6.6031403 2.101265,0.3348049 3.960778,1.4880311 5.206647,3.2178713 1.245871,1.7298338 1.747933,3.8502873 1.413231,5.9521163 -0.706611,4.3525 -4.816144,7.328578 -9.1673971,6.621747 C 8.8946492,18.765926 8.0950665,18.50552 7.3512595,18.114917 7.1653065,18.021904 6.9979532,17.928906 6.8305992,17.817309 6.5702665,17.649895 6.4772871,17.315106 6.6446471,17.05468 c 0.1673527,-0.260394 0.5020641,-0.353395 0.7624,-0.185994 0.148752,0.09301 0.2975142,0.167394 0.4462845,0.260403 0.6322276,0.334817 1.3388506,0.558024 2.0454617,0.669606 C 13.636406,18.393915 17.188079,15.84567 17.783119,12.08839 18.080655,10.265537 17.652965,8.4613043 16.574437,6.9546706 15.495919,5.4666398 13.915332,4.4808185 12.093022,4.183212 8.3553992,3.5693962 4.8037304,6.1362519 4.2086826,9.8749385 c -0.2603299,1.5996325 0.055769,3.2364645 0.8739639,4.6128865 0.148772,0.260414 0.074382,0.613819 -0.1859414,0.762629 -0.2603347,0.1488 -0.6136385,0.07438 -0.7623998,-0.186014 C 3.3904919,13.836827 2.9999986,12.423184 2.9999986,10.99096 Z"
       id="path2-75-6"
       style="fill:url(#linearGradient1133);fill-opacity:1;stroke-width:0.185986" />
    <path
       d="m 14.435595,7.7973315 c -1.16e-4,0.012132 -0.0015,0.024239 -0.0034,0.036207 L 13.75588,12.181528 c -0.02935,0.192506 -0.268172,0.269473 -0.406577,0.131031 L 12.50384,11.476296 9.7989111,14.15227 c -0.2801791,0.276971 -0.7343498,0.276971 -1.0145288,0 L 7.7699951,13.148573 c -0.2800964,-0.277054 -0.2800964,-0.726163 0,-1.00322 L 10.476073,9.4696237 9.6303897,8.6336053 C 9.490351,8.4966637 9.5683546,8.2604058 9.7631311,8.2315579 l 4.3970009,-0.668811 c 0.144834,-0.022017 0.275455,0.088758 0.275507,0.2336572 z M 13.909436,8.080183 Z"
       id="path8-2"
       style="fill:url(#linearGradient1087);stroke-width:0.237833"
       sodipodi:nodetypes="ccccccccccccccccccc" />
  </g>
</svg>
