<?xml version="1.0" encoding="UTF-8" standalone="no"?>
<svg
   viewBox="0 0 22 22"
   version="1.1"
   id="svg1"
   sodipodi:docname="system-suspend-hibernate.svg"
   width="22"
   height="22"
   inkscape:version="1.3.2 (091e20ef0f, 2023-11-25)"
   xmlns:inkscape="http://www.inkscape.org/namespaces/inkscape"
   xmlns:sodipodi="http://sodipodi.sourceforge.net/DTD/sodipodi-0.dtd"
   xmlns:xlink="http://www.w3.org/1999/xlink"
   xmlns="http://www.w3.org/2000/svg"
   xmlns:svg="http://www.w3.org/2000/svg">
  <defs
     id="defs1">
    <linearGradient
       inkscape:collect="always"
       xlink:href="#linearGradient1040"
       id="linearGradient1207"
       gradientUnits="userSpaceOnUse"
       gradientTransform="matrix(0.61556045,0,0,0.61538583,2.9999838,2.9999998)"
       x1="5.6218852e-09"
       y1="13"
       x2="25.992626"
       y2="13" />
    <linearGradient
       inkscape:collect="always"
       id="linearGradient1040">
      <stop
         style="stop-color:#00ff00;stop-opacity:1;"
         offset="0"
         id="stop1036" />
      <stop
         style="stop-color:#008080;stop-opacity:1"
         offset="1"
         id="stop1038" />
    </linearGradient>
    <linearGradient
       inkscape:collect="always"
       xlink:href="#linearGradient1040"
       id="linearGradient1116"
       x1="85.342789"
       y1="158.47438"
       x2="72.127899"
       y2="158.599"
       gradientUnits="userSpaceOnUse"
       gradientTransform="matrix(0.80000011,0,0,0.80000011,-52.200026,-115.40002)" />
  </defs>
  <sodipodi:namedview
     id="namedview1"
     pagecolor="#ffffff"
     bordercolor="#999999"
     borderopacity="1"
     inkscape:showpageshadow="2"
     inkscape:pageopacity="0"
     inkscape:pagecheckerboard="0"
     inkscape:deskcolor="#d1d1d1"
     inkscape:zoom="8.6590909"
     inkscape:cx="11.895013"
     inkscape:cy="6.8136483"
     inkscape:window-width="1920"
     inkscape:window-height="994"
     inkscape:window-x="0"
     inkscape:window-y="0"
     inkscape:window-maximized="1"
     inkscape:current-layer="svg1" />
  <style
     type="text/css"
     id="current-color-scheme">.ColorScheme-Text {color:#fcfcfc;}</style>
  <path
     style="fill:none"
     d="M 0,0 V 22 H 22 V 0 Z"
     id="path49-1" />
  <path
     d="m 11.009039,2.9999998 c 0.42782,0 0.855627,0.0376 1.283437,0.111552 4.352509,0.7066881 7.30997,4.8161363 6.60315,9.1674802 -0.334801,2.101187 -1.488035,3.960688 -3.217874,5.206607 -1.729838,1.245865 -3.85029,1.747898 -5.9521371,1.413189 C 5.3731116,18.192281 2.3970365,14.082693 3.1038621,9.7314806 3.2340598,8.8946804 3.4944676,8.095137 3.8850736,7.35124 3.9780817,7.1653448 4.071085,6.9979367 4.1826775,6.8306407 4.3500911,6.5703367 4.6848933,6.4773198 4.9453046,6.6446087 5.2057084,6.8120167 5.2987097,7.1466888 5.1313084,7.407112 5.0383079,7.5558568 4.9639079,7.704625 4.8709012,7.853377 4.5360892,8.4856243 4.3128855,9.1922166 4.2012865,9.8987853 3.6060714,13.636389 6.1543279,17.188078 9.911615,17.783202 c 1.82285,0.297516 3.627084,-0.130182 5.133729,-1.208732 1.48803,-1.078552 2.47385,-2.659079 2.771461,-4.481396 C 18.430624,8.3554483 15.863757,4.8037762 12.125067,4.2087596 10.525433,3.9483277 8.8885918,4.2644396 7.5121652,5.0826082 7.2517511,5.2313603 6.8983492,5.1566083 6.749545,4.8967842 6.6007411,4.6363522 6.675161,4.283024 6.9355496,4.134272 8.1631743,3.3905279 9.5768121,2.9999998 11.009039,2.9999998 Z"
     id="path2-35-6"
     style="fill:url(#linearGradient1207);fill-opacity:1;stroke-width:0.185987" />
  <path
     id="path891-3-2"
     class="ColorScheme-Text"
     d="M 8.3245175,6.5760398 7.9509378,6.7914247 8.8756148,8.3925043 7.3182532,7.9751921 7.2071751,8.3916651 9.1801571,8.9200244 10.501916,11.210177 H 7.8584045 L 6.4138293,9.7655853 6.1092423,10.070153 7.2492767,11.210177 H 5.399986 v 0.430774 h 1.8492907 l -1.1400344,1.14003 0.304587,0.304544 1.4445744,-1.444574 h 2.6435123 l -1.3217589,2.290148 -1.972982,0.528339 0.1110781,0.416487 1.5573616,-0.417296 -0.924677,1.601063 0.3735797,0.215379 0.9246279,-1.601073 0.417312,1.557326 0.4156326,-0.111904 -0.5283891,-1.972941 1.4462861,-2.505528 1.446289,2.505528 -0.528398,1.972941 0.415634,0.111904 0.417315,-1.557326 0.924634,1.601073 0.373569,-0.215379 -0.924676,-1.601063 1.557355,0.417296 0.111108,-0.416487 -1.972999,-0.528339 -1.321761,-2.290148 h 2.643505 l 1.444577,1.444574 0.304606,-0.304544 -1.140047,-1.14003 h 1.84929 v -0.430774 h -1.84929 L 15.615623,10.3478 h -0.61505 l -0.859011,0.862377 H 11.498057 L 11.995078,10.3478 H 11.495394 L 10.999987,11.20933 9.5537009,8.7046484 10.082091,6.7316879 9.6664583,6.6197838 9.2491471,8.1771283 Z m 6.6959885,0.554377 h 0.71792 v 0.363472 H 14.302555 L 15.020506,6.4034727 H 14.302555 V 6.0400006 h 1.435871 z m -0.857082,2.4230405 h 0.71792 V 9.9169367 H 13.445478 L 14.163424,8.8265044 H 13.445478 V 8.4630483 h 1.435866 z M 12.148705,8.099665 h 0.717926 V 8.4631531 H 11.430743 L 12.148705,7.372728 H 11.430743 V 7.0092559 h 1.435888 z"
     style="fill:url(#linearGradient1116);fill-opacity:1;stroke:none;stroke-width:0.430784" />
</svg>
