<?xml version="1.0" encoding="UTF-8" standalone="no"?>
<svg
   width="32"
   height="32"
   version="1.1"
   id="svg2"
   sodipodi:docname="disk-quota-high.svg"
   inkscape:version="1.3.2 (091e20ef0f, 2023-11-25)"
   xmlns:inkscape="http://www.inkscape.org/namespaces/inkscape"
   xmlns:sodipodi="http://sodipodi.sourceforge.net/DTD/sodipodi-0.dtd"
   xmlns="http://www.w3.org/2000/svg"
   xmlns:svg="http://www.w3.org/2000/svg">
  <defs
     id="defs2" />
  <sodipodi:namedview
     id="namedview2"
     pagecolor="#ffffff"
     bordercolor="#999999"
     borderopacity="1"
     inkscape:showpageshadow="2"
     inkscape:pageopacity="0"
     inkscape:pagecheckerboard="0"
     inkscape:deskcolor="#d1d1d1"
     inkscape:zoom="16.83798"
     inkscape:cx="14.966166"
     inkscape:cy="21.736574"
     inkscape:window-width="1920"
     inkscape:window-height="994"
     inkscape:window-x="0"
     inkscape:window-y="0"
     inkscape:window-maximized="1"
     inkscape:current-layer="svg2" />
  <style
     type="text/css"
     id="current-color-scheme">.ColorScheme-Text{color:#232629;}.ColorScheme-NeutralText{color:#f67400;}.ColorScheme-NegativeText { color: #da4453; } </style>
  <g
     id="disk-quota-high-7"
     transform="translate(-64)">
    <rect
       style="opacity:0.00100002"
       width="32"
       height="32"
       x="64"
       y="-3.0050278e-09"
       id="rect49" />
    <path
       style="fill:#d7f1f8;fill-opacity:1;stroke-width:1.33342"
       inkscape:connector-curvature="0"
       fill="#dedede"
       d="M 73.36666,4.5 C 71.889339,4.5 70.7,5.6893342 70.7,7.166666 V 25.83334 c 0,1.477318 1.189339,2.66666 2.66666,2.66666 h 13.333342 c 1.477324,0 2.666672,-1.189342 2.666672,-2.66666 V 7.166666 C 89.366674,5.6893342 88.177326,4.5 86.700002,4.5 Z m 0,2.666666 h 1.333342 v 2.66666 H 73.36666 Z m 2.666666,0 h 1.333348 v 2.66666 h -1.333348 z m 2.666672,0 h 1.333342 v 2.66666 h -1.333342 z m 2.66666,0 H 82.7 v 2.66666 h -1.333342 z m 2.666684,1.333336 h 1.333318 v 1.333324 h -1.333318 z m -4.000002,2.666672 a 6.6666674,6.6666674 0 0 1 6.666662,6.666668 6.6666674,6.6666674 0 0 1 -6.666662,6.666656 6.6666674,6.6666674 0 0 1 -6.66668,-6.666656 6.6666674,6.6666674 0 0 1 6.66668,-6.666668 z m 6.666662,13.333324 a 1.3333342,1.3333342 0 0 1 1.333324,1.333342 1.3333342,1.3333342 0 0 1 -1.333324,1.333318 1.3333342,1.3333342 0 0 1 -1.333342,-1.333318 1.3333342,1.3333342 0 0 1 1.333342,-1.333342 z"
       id="path65" />
    <path
       style="fill:#ff6600;stroke:#d7f1f8;stroke-width:1.33342;stroke-opacity:1"
       inkscape:connector-curvature="0"
       d="m 80.03334,11.166674 a 6.6666674,6.6666674 0 0 0 -6.66668,6.666668 6.6666674,6.6666674 0 0 0 6.66668,6.666656 6.6666674,6.6666674 0 0 0 6.666662,-6.666656 H 80.03334 Z"
       id="path67" />
    <circle
       style="fill:#ffb380;fill-opacity:1;stroke-width:1.33333"
       r="2.6666684"
       cy="17.833344"
       cx="80.03334"
       id="circle71" />
  </g>
</svg>
