<?xml version="1.0" encoding="UTF-8" standalone="no"?>
<svg
   width="32"
   height="32"
   version="1.1"
   id="svg2"
   sodipodi:docname="disk-quota-low.svg"
   inkscape:version="1.3.2 (091e20ef0f, 2023-11-25)"
   xmlns:inkscape="http://www.inkscape.org/namespaces/inkscape"
   xmlns:sodipodi="http://sodipodi.sourceforge.net/DTD/sodipodi-0.dtd"
   xmlns="http://www.w3.org/2000/svg"
   xmlns:svg="http://www.w3.org/2000/svg">
  <defs
     id="defs2" />
  <sodipodi:namedview
     id="namedview2"
     pagecolor="#ffffff"
     bordercolor="#999999"
     borderopacity="1"
     inkscape:showpageshadow="2"
     inkscape:pageopacity="0"
     inkscape:pagecheckerboard="0"
     inkscape:deskcolor="#d1d1d1"
     inkscape:zoom="11.90625"
     inkscape:cx="15.706037"
     inkscape:cy="15.538058"
     inkscape:window-width="1920"
     inkscape:window-height="994"
     inkscape:window-x="0"
     inkscape:window-y="0"
     inkscape:window-maximized="1"
     inkscape:current-layer="svg2" />
  <style
     type="text/css"
     id="current-color-scheme">.ColorScheme-Text{color:#232629;}.ColorScheme-NeutralText{color:#f67400;}.ColorScheme-NegativeText { color: #da4453; } </style>
  <g
     id="disk-quota-low-6"
     transform="translate(-32)">
    <rect
       style="opacity:0.00100002"
       width="32"
       height="32"
       x="32"
       y="0"
       id="rect40" />
    <path
       style="fill:#d7f1f8;fill-opacity:1;stroke-width:1.33334"
       inkscape:connector-curvature="0"
       fill="#dedede"
       d="M 41.26666,4.5 C 39.789331,4.5 38.6,5.6893334 38.6,7.166666 V 25.83334 C 38.6,27.310666 39.789331,28.5 41.26666,28.5 H 54.6 c 1.477333,0 2.666667,-1.189334 2.666667,-2.66666 V 7.166666 C 57.266667,5.6893334 56.077333,4.5 54.6,4.5 Z m 0,2.666666 H 42.6 v 2.666667 h -1.33334 z m 2.666673,0 h 1.333334 v 2.666667 h -1.333334 z m 2.666667,0 h 1.33334 V 9.833333 H 46.6 Z m 2.666666,0 H 50.6 V 9.833333 H 49.266666 Z M 51.933334,8.5 H 53.26666 V 9.833333 H 51.933334 Z M 47.93334,11.166667 A 6.6666667,6.6666667 0 0 1 54.6,17.833334 6.6666667,6.6666667 0 0 1 47.93334,24.5 6.6666667,6.6666667 0 0 1 41.26666,17.833334 6.6666667,6.6666667 0 0 1 47.93334,11.166667 Z M 54.6,24.5 A 1.3333334,1.3333334 0 0 1 55.933333,25.83334 1.3333334,1.3333334 0 0 1 54.6,27.166666 1.3333334,1.3333334 0 0 1 53.26666,25.83334 1.3333334,1.3333334 0 0 1 54.6,24.5 Z"
       id="path53-3" />
    <path
       style="fill:#7e68cb;fill-opacity:1;stroke:#d7f1f8;stroke-width:1.33334;stroke-opacity:1"
       inkscape:connector-curvature="0"
       d="M 47.93334,11.166667 A 6.6666667,6.6666667 0 0 0 41.26666,17.833334 6.6666667,6.6666667 0 0 0 47.93334,24.5 6.6666667,6.6666667 0 0 0 54.6,17.833334 h -6.66666 z"
       id="path55-6" />
    <circle
       style="fill:#beb4e4;fill-opacity:1;stroke-width:1.33334"
       r="2.666666"
       cy="17.833311"
       cx="47.933334"
       id="circle59" />
  </g>
</svg>
