<?xml version="1.0" encoding="UTF-8" standalone="no"?>
<svg
   width="32"
   height="32"
   version="1.1"
   id="svg2"
   sodipodi:docname="disk-quota.svg"
   inkscape:version="1.3.2 (091e20ef0f, 2023-11-25)"
   xmlns:inkscape="http://www.inkscape.org/namespaces/inkscape"
   xmlns:sodipodi="http://sodipodi.sourceforge.net/DTD/sodipodi-0.dtd"
   xmlns="http://www.w3.org/2000/svg"
   xmlns:svg="http://www.w3.org/2000/svg">
  <defs
     id="defs2" />
  <sodipodi:namedview
     id="namedview2"
     pagecolor="#ffffff"
     bordercolor="#999999"
     borderopacity="1"
     inkscape:showpageshadow="2"
     inkscape:pageopacity="0"
     inkscape:pagecheckerboard="0"
     inkscape:deskcolor="#d1d1d1"
     showguides="true"
     inkscape:zoom="11.90625"
     inkscape:cx="16.377953"
     inkscape:cy="15.622047"
     inkscape:window-width="1920"
     inkscape:window-height="994"
     inkscape:window-x="0"
     inkscape:window-y="0"
     inkscape:window-maximized="1"
     inkscape:current-layer="svg2" />
  <style
     type="text/css"
     id="current-color-scheme">.ColorScheme-Text{color:#232629;}.ColorScheme-NeutralText{color:#f67400;}.ColorScheme-NegativeText { color: #da4453; } </style>
  <g
     id="disk-quota-3">
    <rect
       style="opacity:0.00100002"
       width="32"
       height="32"
       x="0"
       y="0"
       id="rect35" />
    <path
       style="fill:#daf2f8;fill-opacity:1;stroke-width:1.33342"
       inkscape:connector-curvature="0"
       d="M 9.26666,4.5 C 7.789342,4.5 6.6,5.6893342 6.6,7.166666 V 25.83334 C 6.6,27.310658 7.789342,28.5 9.26666,28.5 h 13.333342 c 1.477324,0 2.666672,-1.189342 2.666672,-2.66666 V 7.166666 C 25.266674,5.6893342 24.077326,4.5 22.600002,4.5 Z m 0,2.666666 h 1.333342 v 2.66666 H 9.26666 Z m 2.666666,0 h 1.333348 v 2.66666 h -1.333348 z m 2.666672,0 h 1.333342 v 2.66666 h -1.333342 z m 2.66666,0 H 18.6 v 2.66666 h -1.333342 z m 2.666684,1.333336 h 1.333318 v 1.333324 h -1.333318 z m -4.000002,2.666672 a 6.6666674,6.6666674 0 0 1 6.666662,6.666668 6.6666674,6.6666674 0 0 1 -6.666662,6.666656 6.6666674,6.6666674 0 0 1 -6.66668,-6.666656 6.6666674,6.6666674 0 0 1 6.66668,-6.666668 z m 6.666662,13.333324 a 1.3333342,1.3333342 0 0 1 1.333324,1.333342 1.3333342,1.3333342 0 0 1 -1.333324,1.333318 1.3333342,1.3333342 0 0 1 -1.333342,-1.333318 1.3333342,1.3333342 0 0 1 1.333342,-1.333342 z"
       id="path15" />
    <path
       style="fill:#0085c7;fill-opacity:1;fill-rule:evenodd;stroke:#d7f1f8;stroke-width:1.33342;stroke-opacity:1"
       inkscape:connector-curvature="0"
       d="m 15.93334,11.166674 a 6.6666674,6.6666674 0 0 0 -6.66668,6.666668 6.6666674,6.6666674 0 0 0 6.66668,6.666656 6.6666674,6.6666674 0 0 0 6.666662,-6.666656 H 15.93334 Z"
       id="path17" />
    <circle
       style="fill:#66ccff;fill-opacity:1;stroke-width:1.33333"
       r="2.6666684"
       cy="17.833344"
       cx="15.933351"
       id="circle21" />
  </g>
</svg>
