<?xml version="1.0" encoding="UTF-8" standalone="no"?>
<svg
   width="24"
   height="24"
   viewBox="0 0 24 24"
   version="1.1"
   id="svg1"
   sodipodi:docname="plasmavault_error.svg"
   inkscape:version="1.3.2 (091e20ef0f, 2023-11-25)"
   xmlns:inkscape="http://www.inkscape.org/namespaces/inkscape"
   xmlns:sodipodi="http://sodipodi.sourceforge.net/DTD/sodipodi-0.dtd"
   xmlns="http://www.w3.org/2000/svg"
   xmlns:svg="http://www.w3.org/2000/svg">
  <defs
     id="defs1" />
  <sodipodi:namedview
     id="namedview1"
     pagecolor="#ffffff"
     bordercolor="#999999"
     borderopacity="1"
     inkscape:showpageshadow="2"
     inkscape:pageopacity="0"
     inkscape:pagecheckerboard="0"
     inkscape:deskcolor="#d1d1d1"
     inkscape:zoom="7.9375"
     inkscape:cx="12.850394"
     inkscape:cy="27.590551"
     inkscape:window-width="1920"
     inkscape:window-height="994"
     inkscape:window-x="0"
     inkscape:window-y="0"
     inkscape:window-maximized="1"
     inkscape:current-layer="svg1" />
  <style
     type="text/css"
     id="current-color-scheme">.ColorScheme-NegativeText { color: #da4453; } </style>
  <g
     id="22-22-plasmavault_error-6"
     transform="translate(1,1)">
    <rect
       style="opacity:0.00100002;fill:#ff557f;fill-opacity:1"
       width="22"
       height="22"
       x="0"
       y="0"
       id="rect2" />
    <path
       d="m 12.821386,11.441333 h -0.164665 l -9.35e-4,-0.820664 C 12.654997,9.72667 11.927845,8.999335 11.033845,9 10.139844,9.000822 9.4125114,9.728003 9.4131784,10.622003 l 0.0014,0.820668 h -0.05858 c -0.30733,6.21e-4 -0.556663,0.249995 -0.555996,0.55733 v 2.443334 C 8.8000024,14.750671 9.0500014,15 9.3573354,15 l 3.4653366,-0.002 c 0.307327,0 0.556662,-0.249335 0.555997,-0.556669 v -2.443972 c 0,-0.307332 -0.249997,-0.555997 -0.557333,-0.555997 z m -2.809333,0.0015 -0.0014,-0.820665 c 0,-0.564666 0.458667,-1.023999 1.023331,-1.024668 0.564672,0 1.023999,0.459335 1.023999,1.023334 l 0.0015,0.820648 z"
       id="path2-7"
       style="fill:#ff557f;fill-opacity:1;stroke-width:0.0666646" />
    <path
       style="color:#000000;font-style:normal;font-variant:normal;font-weight:normal;font-stretch:normal;font-size:medium;line-height:normal;font-family:Sans;-inkscape-font-specification:Sans;text-indent:0;text-align:start;text-decoration:none;text-decoration-line:none;letter-spacing:normal;word-spacing:normal;text-transform:none;writing-mode:lr-tb;direction:ltr;baseline-shift:baseline;text-anchor:start;display:inline;overflow:visible;visibility:visible;fill:#ff557f;fill-opacity:1;fill-rule:nonzero;stroke:none;stroke-width:0.808683;marker:none;enable-background:accumulate"
       d="m 3.3460014,4.000056 c -0.833413,9e-6 -1.346,0.671685 -1.346,1.430944 v 9.569001 1.699996 c 0,0.604929 0.53435,1.300005 1.246,1.300003 l 14.6945026,-4.9e-5 C 18.28348,18.006451 18.273717,17.004782 17.940588,17 H 4.2500034 c -1.250002,-3e-6 -1.250002,0 -1.250002,-1.085105 V 14.921987 5.985816 c 0,-0.985819 0,-0.985816 1.05,-0.992908 h 4.486766 L 10.709751,6.66623 C 10.782171,6.72881 11.099875,6.998002 11.1965,7 h 6.972455 C 18.524469,6.998 18.513234,6.00546 18.157175,6 H 11.342878 L 8.8015654,4.09375 C 8.7282054,4.03344 8.6355274,4.00025 8.5397264,4 Z M 11.742083,4 c -0.319043,0 -0.352624,1 0,1 h 4.882932 l 1.374986,-3e-6 c 1,0 1,0 1,1.000003 v 11.599954 c 0.0015,0.371835 0.984074,0.384063 0.985456,0.01282 L 19.999997,5.4 C 20.0009,4.641695 19.484492,4 18.586998,4 h -0.849801 -4.737199 z"
       id="path2-3-3-5"
       sodipodi:nodetypes="ssccscccccccccccccccscccccccscccc" />
  </g>
</svg>
