<?xml version="1.0" encoding="UTF-8" standalone="no"?>
<svg
   version="1.1"
   viewBox="0 0 22 22"
   id="svg1"
   sodipodi:docname="system-reboot-update.svg"
   inkscape:version="1.3.2 (091e20ef0f, 2023-11-25)"
   xmlns:inkscape="http://www.inkscape.org/namespaces/inkscape"
   xmlns:sodipodi="http://sodipodi.sourceforge.net/DTD/sodipodi-0.dtd"
   xmlns:xlink="http://www.w3.org/1999/xlink"
   xmlns="http://www.w3.org/2000/svg"
   xmlns:svg="http://www.w3.org/2000/svg">
  <sodipodi:namedview
     id="namedview1"
     pagecolor="#cfcfcf"
     bordercolor="#999999"
     borderopacity="1"
     inkscape:showpageshadow="2"
     inkscape:pageopacity="0"
     inkscape:pagecheckerboard="0"
     inkscape:deskcolor="#d1d1d1"
     inkscape:zoom="34.727273"
     inkscape:cx="11"
     inkscape:cy="11"
     inkscape:window-width="1920"
     inkscape:window-height="996"
     inkscape:window-x="0"
     inkscape:window-y="0"
     inkscape:window-maximized="1"
     inkscape:current-layer="svg1" />
  <defs
     id="defs1">
    <linearGradient
       id="linearGradient1"
       inkscape:collect="always">
      <stop
         style="stop-color:#006a80;stop-opacity:1;"
         offset="0"
         id="stop1" />
      <stop
         style="stop-color:#c8e0e7;stop-opacity:1;"
         offset="1"
         id="stop2" />
    </linearGradient>
    <style
       id="current-color-scheme"
       type="text/css">.ColorScheme-Text { color: #fcfcfc; } </style>
    <linearGradient
       inkscape:collect="always"
       xlink:href="#linearGradient1"
       id="linearGradient2"
       x1="11.763799"
       y1="3.0386035"
       x2="11.858639"
       y2="19"
       gradientUnits="userSpaceOnUse" />
  </defs>
  <path
     class="ColorScheme-Text"
     d="m11 3c-4.02799 0.0047934-7.4242381 3.0035994-7.9277344 7h1.0058594c0.4967546-3.441627 3.4445843-5.9968562 6.921875-6 2.702236 0.00164 5.162212 1.5585076 6.320312 4h-3.320312v1h5v-5h-1v3.1679688c-1.3982-2.5623399-4.081014-4.159752-7-4.1679688zm4 7-4 4h2v5h4v-5h2l-4-4zm-12 3v5h1v-3.195312c1.3909801 2.572907 4.0751939 4.181638 7 4.195312v-1c-2.6987065-0.005403-5.1539614-1.561689-6.3105469-4h3.3105469v-1h-5z"
     fill="currentColor"
     id="path1"
     style="fill:url(#linearGradient2)" />
</svg>
