<?xml version="1.0" encoding="UTF-8" standalone="no"?>
<svg
   viewBox="0 0 22 22"
   version="1.1"
   id="svg1"
   sodipodi:docname="system-switch-user.svg"
   inkscape:version="1.3.2 (091e20ef0f, 2023-11-25)"
   xmlns:inkscape="http://www.inkscape.org/namespaces/inkscape"
   xmlns:sodipodi="http://sodipodi.sourceforge.net/DTD/sodipodi-0.dtd"
   xmlns:xlink="http://www.w3.org/1999/xlink"
   xmlns="http://www.w3.org/2000/svg"
   xmlns:svg="http://www.w3.org/2000/svg">
  <sodipodi:namedview
     id="namedview1"
     pagecolor="#ffffff"
     bordercolor="#999999"
     borderopacity="1"
     inkscape:showpageshadow="2"
     inkscape:pageopacity="0"
     inkscape:pagecheckerboard="0"
     inkscape:deskcolor="#d1d1d1"
     inkscape:zoom="34.636364"
     inkscape:cx="11"
     inkscape:cy="11"
     inkscape:window-width="1920"
     inkscape:window-height="996"
     inkscape:window-x="0"
     inkscape:window-y="0"
     inkscape:window-maximized="1"
     inkscape:current-layer="svg1" />
  <defs
     id="defs3051">
    <linearGradient
       id="linearGradient1"
       inkscape:collect="always">
      <stop
         style="stop-color:#006a80;stop-opacity:1;"
         offset="0"
         id="stop1" />
      <stop
         style="stop-color:#c8e0e7;stop-opacity:1;"
         offset="1"
         id="stop2" />
    </linearGradient>
    <style
       type="text/css"
       id="current-color-scheme">.ColorScheme-Text { color: #fcfcfc; } </style>
    <linearGradient
       inkscape:collect="always"
       xlink:href="#linearGradient1"
       id="linearGradient2"
       x1="10.383325"
       y1="2.3790398"
       x2="10.900749"
       y2="19.124447"
       gradientUnits="userSpaceOnUse" />
  </defs>
  <path
     style="fill:url(#linearGradient2);fill-opacity:1;stroke:none"
     id="path890-3"
     d="m 11.38212,2.388 c -1.989467,0 -3.220562,1.263525 -3.397744,2.799 V 6.205 L 5.8333441,4.684817 4.9843762,5.347854 7.5312808,7.336963 8.380249,8 9.229216,7.336963 11.776121,5.347854 10.927153,4.684817 8.984376,6.205 V 5.187 c 0,-1.035581 1.06462,-1.798637 2.397544,-1.799 1.332927,3.63e-4 2.621,0.763585 2.602456,1.799 V 6 h 1 V 5.186673 C 14.984376,3.641009 13.371591,2.388 11.382123,2.388 Z M 13.984376,7 c -1.10457,0 -2,0.895431 -2,2 0,1.10457 0.89543,2 2,2 1.104569,0 2,-0.89543 2,-2 0,-1.104569 -0.895431,-2 -2,-2 z M 7.984375,9 a 1.999999,2 0 0 0 -2,2 1.999999,2 0 0 0 2,2 1.999999,2 0 0 0 2,-2 1.999999,2 0 0 0 -2,-2 z M 14,12 c -1.518796,0 -2.764244,1.163057 -2.978516,2.671875 C 11.604353,15.334017 11.984375,16 11.984375,17 v 0 H 14 h 1.8125 0.601563 c 0.393221,-0.54062 0.60674,-1.198565 0.607421,-1.875 C 17.021485,13.39911 15.669244,12 14,12 Z m -0.04883,1 c 1.102577,0 1.996096,0.839466 1.996094,1.875 -4.5e-4,0.405861 -0.14066,0.800628 -0.400391,1.125 H 15.148435 13.95117 12.751951 12.726561 C 12.640916,15.461489 12.369372,14.980111 11.984375,14.601562 12.125907,13.696272 12.947971,13 13.951172,13 Z m -5.966795,1 a 2.9999989,3.1249983 0 0 0 -3,3.125 A 2.9999989,3.1249983 0 0 0 5.589844,19 h 0.59375 1.800781 1.800781 0.597657 a 2.9999989,3.1249983 0 0 0 0.601562,-1.875 2.9999989,3.1249983 0 0 0 -3,-3.125 z m 0,1 a 2.0000009,2.2500008 0 0 1 2,2.25 A 2.0000009,2.2500008 0 0 1 9.867187,18 H 6.101563 a 2.0000009,2.2500008 0 0 1 -0.117188,-0.75 2.0000009,2.2500008 0 0 1 2,-2.25 z" />
</svg>
