<?xml version="1.0" encoding="UTF-8" standalone="no"?>
<svg
   viewBox="0 0 22 22"
   version="1.1"
   id="svg2"
   sodipodi:docname="system-suspend.svg"
   inkscape:version="1.3.2 (091e20ef0f, 2023-11-25)"
   xmlns:inkscape="http://www.inkscape.org/namespaces/inkscape"
   xmlns:sodipodi="http://sodipodi.sourceforge.net/DTD/sodipodi-0.dtd"
   xmlns:xlink="http://www.w3.org/1999/xlink"
   xmlns="http://www.w3.org/2000/svg"
   xmlns:svg="http://www.w3.org/2000/svg">
  <defs
     id="defs2">
    <linearGradient
       id="linearGradient1"
       inkscape:collect="always">
      <stop
         style="stop-color:#006a80;stop-opacity:1;"
         offset="0"
         id="stop1" />
      <stop
         style="stop-color:#c8e0e7;stop-opacity:1;"
         offset="1"
         id="stop2" />
    </linearGradient>
    <linearGradient
       inkscape:collect="always"
       xlink:href="#linearGradient1"
       id="linearGradient2"
       x1="10.795276"
       y1="3.7292244"
       x2="11.590294"
       y2="19.088804"
       gradientUnits="userSpaceOnUse" />
    <linearGradient
       inkscape:collect="always"
       xlink:href="#linearGradient1"
       id="linearGradient4"
       x1="13.291339"
       y1="2.8622048"
       x2="13.543307"
       y2="9.9068241"
       gradientUnits="userSpaceOnUse" />
  </defs>
  <sodipodi:namedview
     id="namedview2"
     pagecolor="#ffffff"
     bordercolor="#999999"
     borderopacity="1"
     inkscape:showpageshadow="2"
     inkscape:pageopacity="0"
     inkscape:pagecheckerboard="0"
     inkscape:deskcolor="#d1d1d1"
     inkscape:zoom="34.636364"
     inkscape:cx="11"
     inkscape:cy="11"
     inkscape:window-width="1920"
     inkscape:window-height="996"
     inkscape:window-x="0"
     inkscape:window-y="0"
     inkscape:window-maximized="1"
     inkscape:current-layer="svg2" />
  <style
     type="text/css"
     id="current-color-scheme">.ColorScheme-Text { color: #fcfcfc; } </style>
  <g
     class="ColorScheme-Text"
     fill="currentColor"
     id="g2">
    <path
       d="M7.047 4.049A7.995 8 0 0 0 3 11a7.995 8 0 0 0 7.994 8 7.995 8 0 0 0 6.938-4.043 7.995 8 0 0 0 .01-.006l-.739-.738a6.996 7 0 0 1-.004.006 6.996 7 0 0 1-3.207.781 6.996 7 0 0 1-6.994-7 6.996 7 0 0 1 .785-3.213zM6.303 5.82A7.995 8 0 0 0 5.998 8a7.995 8 0 0 0 7.994 8 7.995 8 0 0 0 2.188-.313A6.996 7 0 0 1 10.994 18 6.996 7 0 0 1 4 11a6.996 7 0 0 1 2.303-5.18z"
       id="path1"
       style="fill:url(#linearGradient2);fill-opacity:1" />
    <path
       d="M10 6v1h2.293l-2 2-.293.293V10h4V9h-2.293l2-2L14 6.707V6h-.707zm5-3v1h2.293l-2 2-.293.293V7h4V6h-2.293l2-2L19 3.707V3h-.707z"
       id="path2"
       style="fill:url(#linearGradient4);fill-opacity:1" />
  </g>
</svg>
