<?xml version="1.0" encoding="UTF-8" standalone="no"?>
<svg
   viewBox="0 0 22 22"
   version="1.1"
   id="svg1"
   sodipodi:docname="system-reboot.svg"
   inkscape:version="1.3.2 (091e20ef0f, 2023-11-25)"
   width="22"
   height="22"
   xmlns:inkscape="http://www.inkscape.org/namespaces/inkscape"
   xmlns:sodipodi="http://sodipodi.sourceforge.net/DTD/sodipodi-0.dtd"
   xmlns:xlink="http://www.w3.org/1999/xlink"
   xmlns="http://www.w3.org/2000/svg"
   xmlns:svg="http://www.w3.org/2000/svg">
  <sodipodi:namedview
     id="namedview1"
     pagecolor="#ffffff"
     bordercolor="#999999"
     borderopacity="1"
     inkscape:showpageshadow="2"
     inkscape:pageopacity="0"
     inkscape:pagecheckerboard="0"
     inkscape:deskcolor="#d1d1d1"
     inkscape:zoom="6.122902"
     inkscape:cx="10.942524"
     inkscape:cy="10.779202"
     inkscape:window-width="1920"
     inkscape:window-height="994"
     inkscape:window-x="0"
     inkscape:window-y="0"
     inkscape:window-maximized="1"
     inkscape:current-layer="svg1" />
  <defs
     id="defs3051">
    <linearGradient
       id="linearGradient1"
       inkscape:collect="always">
      <stop
         style="stop-color:#006a80;stop-opacity:1;"
         offset="0"
         id="stop1" />
      <stop
         style="stop-color:#c8e0e7;stop-opacity:1;"
         offset="1"
         id="stop2" />
    </linearGradient>
    <style
       type="text/css"
       id="current-color-scheme">.ColorScheme-Text { color: #fcfcfc; } </style>
    <linearGradient
       inkscape:collect="always"
       xlink:href="#linearGradient1"
       id="linearGradient975"
       gradientUnits="userSpaceOnUse"
       x1="-34.72995"
       y1="-60.331238"
       x2="-35.393539"
       y2="-44.974224"
       gradientTransform="translate(54,74)" />
  </defs>
  <g
     transform="translate(0,-10)"
     id="22-22-system-reboot">
    <path
       id="path27"
       class="ColorScheme-Text"
       d="m 11,13 c -1.441715,0 -2.802961,0.36915 -3.96875,1.03125 l 0.71875,0.6875 0.0625,0.0625 2.75,2.78125 0.71875,-0.71875 -2.5,-2.46875 C 9.479582,14.1404 10.220394,14 11,14 c 3.877969,0 7,3.12205 7,7 0,1.1625 -0.283874,2.2559 -0.78125,3.21875 l 0.75,0.75 C 18.630802,23.80295 19,22.44165 19,21 19,16.56795 15.431966,13 11,13 Z M 4.03125,17.03125 C 3.369199,18.19705 3,19.55835 3,21 c 0,4.43205 3.568034,8 8,8 1.441714,0 2.802962,-0.36915 3.96875,-1.03125 l -0.6875,-0.6875 -0.0625,-0.0625 L 11.4375,24.4375 10.75,25.15625 13.21875,27.625 C 12.520417,27.8596 11.779606,28 11,28 7.12203,28 4,24.87795 4,21 4,19.8375 4.283876,18.7441 4.78125,17.78125 Z"
       style="fill:url(#linearGradient975);fill-opacity:1;stroke:none" />
    <path
       id="path29"
       d="M 0,10 V 32 H 22 V 10 Z"
       style="opacity:1;fill:none" />
  </g>
</svg>
