<?xml version="1.0" encoding="UTF-8" standalone="no"?>
<svg
   viewBox="0 0 22 22"
   version="1.1"
   id="svg1"
   sodipodi:docname="tools-report-bug.svg"
   width="22"
   height="22"
   inkscape:version="1.3.2 (091e20ef0f, 2023-11-25)"
   xmlns:inkscape="http://www.inkscape.org/namespaces/inkscape"
   xmlns:sodipodi="http://sodipodi.sourceforge.net/DTD/sodipodi-0.dtd"
   xmlns="http://www.w3.org/2000/svg"
   xmlns:svg="http://www.w3.org/2000/svg">
  <sodipodi:namedview
     id="namedview1"
     pagecolor="#ffffff"
     bordercolor="#999999"
     borderopacity="1"
     inkscape:showpageshadow="2"
     inkscape:pageopacity="0"
     inkscape:pagecheckerboard="0"
     inkscape:deskcolor="#d1d1d1"
     inkscape:zoom="12.245804"
     inkscape:cx="8.0844019"
     inkscape:cy="16.332125"
     inkscape:window-width="1920"
     inkscape:window-height="994"
     inkscape:window-x="0"
     inkscape:window-y="0"
     inkscape:window-maximized="1"
     inkscape:current-layer="svg1" />
  <defs
     id="defs3051">
    <style
       type="text/css"
       id="current-color-scheme">.ColorScheme-Text { color: #fcfcfc; } </style>
  </defs>
  <g
     id="22-22-tools-report-bug"
     transform="translate(-32,-10)">
    <path
       id="path9"
       d="M 32,10 V 32 H 54 V 10 Z"
       style="fill:none" />
    <path
       style="color:#d5c289;fill:#ff557f;fill-opacity:1;stroke-width:1"
       class="ColorScheme-Text"
       d="m 43,13 c -4.424,0 -8,3.576 -8,8 0,4.424 3.576,8 8,8 4.423999,0 8,-3.576 8,-8 0,-4.424 -3.576001,-8 -8,-8 z m 0,1 c 3.870004,0 7,3.13 7,7 0,3.870009 -3.129996,7 -7,7 -3.869991,0 -7,-3.129991 -7,-7 0,-3.87 3.130009,-7 7,-7 z m 0.750009,5.719003 v 0 0 0 0 0 c 0,0 -0.03395,0.008 0,0 z m -0.781014,4.500002 z"
       id="path58-3"
       sodipodi:nodetypes="ssssssssssccccccccccccccccc" />
    <path
       style="fill:#ff557f;fill-opacity:1;stroke-width:0.666667"
       class="ColorScheme-Text"
       d="M 40.341553,16.333333 A 0.33333333,0.33333333 0 0 0 40.00822,16.666667 0.33333333,0.33333333 0 0 0 40.341553,17 v 0.0067 a 1.2573333,1.4446667 0 0 1 0.986667,0.74 2.6666667,3.3333333 0 0 0 -0.846667,1.513333 4.02,3.3333333 0 0 0 0.01333,0.0067 3.576,3.576 0 0 0 -1.833334,1.806667 c -0.8,1.76 -0.08667,3.8 1.586667,4.566666 a 0.33266667,0.33266667 0 0 0 0.44,-0.166666 l 0.593333,-1.306667 A 2.6666667,3.5 0 0 0 43.00822,25 a 2.6666667,3.5 0 0 0 1.72,-0.833333 l 0.6,1.306666 c 0.07333,0.166667 0.273333,0.24 0.44,0.16 1.673333,-0.76 2.386667,-2.8 1.586667,-4.566666 a 3.5766667,3.5766667 0 0 0 -1.833334,-1.8 4.02,3.3333333 0 0 0 0.0067,-0.0067 2.6666667,3.3333333 0 0 0 -0.846667,-1.513333 1.2573333,1.4446667 0 0 1 0.993334,-0.74 v -0.0066 a 0.33333333,0.33333333 0 0 0 0.333333,-0.333333 0.33333333,0.33333333 0 0 0 -0.333333,-0.333334 0.33333333,0.33333333 0 0 0 -0.113334,0.02 1.924,2.1113333 0 0 0 -1.406666,0.973334 2.6666667,3.3333333 0 0 0 -1.1467,-0.326667 2.6666667,3.3333333 0 0 0 -1.146667,0.333333 1.924,2.1113333 0 0 0 -1.406666,-0.98 0.33333333,0.33333333 0 0 0 -0.113334,-0.02 z m 1.033334,3.373334 a 4.02,3.3333333 0 0 0 1.086666,0.26 l -1.62,3.566666 L 40.234887,24.86 c -1.12,-0.706667 -1.56,-2.2 -0.966667,-3.513333 a 2.8633333,2.8633333 0 0 1 1.433333,-1.433334 c 0.05333,-0.02667 0.113334,-0.04667 0.173334,-0.06667 A 2.7666667,2.7666667 0 0 1 41.32822,19.71333 Z m 3.266666,0 0.03333,0.0067 c 0.18,0.03333 0.36,0.08667 0.533333,0.153333 0.03333,0.01333 0.06,0.02667 0.09333,0.04 a 2.864,2.864 0 0 1 1.446667,1.44 c 0.59334,1.31333 0.15334,2.806663 -0.96666,3.51333 l -0.606666,-1.333333 -1.62,-3.56 a 4.02,3.3333333 0 0 0 1.086666,-0.26 z"
       id="path58-5-6" />
  </g>
</svg>
