<svg xmlns="http://www.w3.org/2000/svg" xmlns:xlink="http://www.w3.org/1999/xlink" width="64" height="64" viewBox="0 0 64 64" version="1.1">
<defs>
<linearGradient id="linear0" gradientUnits="userSpaceOnUse" x1="0" y1="0" x2="0" y2="1" gradientTransform="matrix(56,0,0,56,4,4)">
<stop offset="0" style="stop-color:#ff6666;stop-opacity:1;"/>
<stop offset="1" style="stop-color:#d90000;stop-opacity:1;"/>
</linearGradient>
</defs>
<g id="surface1">
<path style=" stroke:none;fill-rule:nonzero;fill:url(#linear0);" d="M 42.5 4 C 39.621094 4 36.667969 7.980469 36.667969 15.667969 C 36.667969 22.667969 39 27.332031 39 27.332031 C 39 27.332031 57.667969 25 57.667969 15.667969 C 57.667969 8.667969 51.097656 2.980469 48.332031 8.667969 C 47.292969 5.539062 45.289062 4 42.5 4 Z M 15.667969 6.332031 C 8.667969 6.332031 2.980469 12.902344 8.667969 15.667969 C 5.539062 16.707031 4 18.710938 4 21.5 C 4 24.378906 7.980469 27.332031 15.667969 27.332031 C 22.667969 27.332031 27.332031 25 27.332031 25 C 27.332031 25 25 6.332031 15.667969 6.332031 Z M 25 36.667969 C 25 36.667969 6.332031 39 6.332031 48.332031 C 6.332031 55.332031 12.902344 61.019531 15.667969 55.332031 C 16.707031 58.460938 18.710938 60 21.5 60 C 24.378906 60 27.332031 56.019531 27.332031 48.332031 C 27.332031 41.332031 25 36.667969 25 36.667969 Z M 48.332031 36.667969 C 41.332031 36.667969 36.667969 39 36.667969 39 C 36.667969 39 39 57.667969 48.332031 57.667969 C 55.332031 57.667969 61.019531 51.097656 55.332031 48.332031 C 58.460938 47.292969 60 45.289062 60 42.5 C 60 39.621094 56.019531 36.667969 48.332031 36.667969 Z M 48.332031 36.667969 "/>
</g>
</svg>
