<svg xmlns="http://www.w3.org/2000/svg" xmlns:xlink="http://www.w3.org/1999/xlink" width="64" height="64" viewBox="0 0 64 64" version="1.1">
<defs>
<linearGradient id="linear0" gradientUnits="userSpaceOnUse" x1="0" y1="0" x2="0" y2="1" gradientTransform="matrix(56.609375,0,0,56,3.695312,4)">
<stop offset="0" style="stop-color:#ff6666;stop-opacity:1;"/>
<stop offset="1" style="stop-color:#d90000;stop-opacity:1;"/>
</linearGradient>
</defs>
<g id="surface1">
<path style=" stroke:none;fill-rule:evenodd;fill:url(#linear0);" d="M 3.695312 32 C 3.695312 16.546875 16.375 4 32 4 C 47.625 4 60.304688 16.546875 60.304688 32 C 60.304688 47.453125 47.625 60 32 60 C 16.375 60 3.695312 47.453125 3.695312 32 Z M 10.5 32 C 10.5 20.261719 20.132812 10.730469 32 10.730469 C 43.867188 10.730469 53.5 20.261719 53.5 32 C 53.5 43.738281 43.867188 53.269531 32 53.269531 C 20.132812 53.269531 10.5 43.738281 10.5 32 Z M 31.953125 49.695312 C 28.328125 49.695312 25.410156 48.726562 23.203125 46.785156 C 20.992188 44.84375 19.886719 42.320312 19.886719 39.203125 C 19.886719 37.296875 20.421875 35.613281 21.488281 34.152344 C 22.550781 32.691406 24.003906 31.578125 25.847656 30.8125 C 24.515625 30.175781 23.417969 29.265625 22.558594 28.070312 C 21.703125 26.878906 21.273438 25.503906 21.273438 23.949219 C 21.273438 21.375 22.25 19.269531 24.203125 17.632812 C 26.160156 15.996094 28.742188 15.175781 31.953125 15.175781 C 35.195312 15.175781 37.800781 15.996094 39.773438 17.632812 C 41.742188 19.269531 42.726562 21.375 42.726562 23.949219 C 42.726562 25.503906 42.289062 26.878906 41.414062 28.070312 C 40.542969 29.265625 39.421875 30.164062 38.054688 30.769531 C 39.898438 31.53125 41.367188 32.660156 42.464844 34.152344 C 43.558594 35.644531 44.109375 37.328125 44.109375 39.203125 C 44.109375 42.320312 42.996094 44.84375 40.773438 46.785156 C 38.546875 48.726562 35.609375 49.695312 31.953125 49.695312 Z M 28.28125 27.308594 C 29.203125 28.085938 30.425781 28.476562 31.953125 28.476562 C 33.476562 28.476562 34.71875 28.085938 35.671875 27.308594 C 36.625 26.53125 37.101562 25.550781 37.101562 24.375 C 37.101562 23.136719 36.625 22.136719 35.671875 21.371094 C 34.71875 20.609375 33.476562 20.226562 31.953125 20.226562 C 30.425781 20.226562 29.203125 20.609375 28.28125 21.371094 C 27.359375 22.136719 26.898438 23.136719 26.898438 24.375 C 26.898438 25.550781 27.359375 26.53125 28.28125 27.308594 Z M 27.351562 43.042969 C 28.542969 44.074219 30.078125 44.59375 31.953125 44.59375 C 33.828125 44.59375 35.367188 44.074219 36.574219 43.042969 C 37.785156 42.007812 38.386719 40.667969 38.386719 39.015625 C 38.386719 37.425781 37.785156 36.105469 36.574219 35.054688 C 35.367188 34.007812 33.828125 33.484375 31.953125 33.484375 C 30.078125 33.484375 28.542969 34.007812 27.351562 35.054688 C 26.160156 36.105469 25.5625 37.425781 25.5625 39.015625 C 25.5625 40.667969 26.160156 42.007812 27.351562 43.042969 Z M 27.351562 43.042969 "/>
</g>
</svg>
