<svg xmlns="http://www.w3.org/2000/svg" xmlns:xlink="http://www.w3.org/1999/xlink" width="64" height="64" viewBox="0 0 64 64" version="1.1">
<defs>
<linearGradient id="linear0" gradientUnits="userSpaceOnUse" x1="0" y1="0" x2="0" y2="1" gradientTransform="matrix(43.070312,0,0,56,10.464844,4)">
<stop offset="0" style="stop-color:#ff6666;stop-opacity:1;"/>
<stop offset="1" style="stop-color:#d90000;stop-opacity:1;"/>
</linearGradient>
</defs>
<g id="surface1">
<path style=" stroke:none;fill-rule:evenodd;fill:url(#linear0);" d="M 31.640625 4.003906 C 31.277344 3.976562 30.847656 4.0625 30.378906 4.316406 C 17.734375 11.136719 10.351562 23.457031 10.464844 31.667969 C 10.625 43.613281 19.792969 53.390625 33.460938 53.058594 C 32.832031 56.242188 30.945312 57.300781 31.222656 58.8125 C 31.332031 59.410156 32.207031 60.441406 33.394531 59.792969 C 45.53125 53.183594 53.292969 41.378906 53.527344 32.878906 C 53.855469 21.265625 45.019531 10.246094 30.472656 10.988281 C 30.820312 9.378906 31.628906 7.957031 32.636719 6.289062 C 33.269531 5.253906 32.730469 4.097656 31.640625 4.003906 Z M 32 23.382812 C 36.761719 23.382812 40.617188 27.242188 40.617188 32 C 40.617188 36.761719 36.761719 40.617188 32 40.617188 C 27.242188 40.617188 23.382812 36.761719 23.382812 32 C 23.382812 27.242188 27.242188 23.382812 32 23.382812 Z M 32 23.382812 "/>
</g>
</svg>
