<svg xmlns="http://www.w3.org/2000/svg" xmlns:xlink="http://www.w3.org/1999/xlink" width="64" height="64" viewBox="0 0 64 64" version="1.1">
<defs>
<linearGradient id="linear0" gradientUnits="userSpaceOnUse" x1="0" y1="0" x2="0" y2="1" gradientTransform="matrix(64.003906,0,0,64,0,0)">
<stop offset="0" style="stop-color:#ff6666;stop-opacity:1;"/>
<stop offset="1" style="stop-color:#d90000;stop-opacity:1;"/>
</linearGradient>
</defs>
<g id="surface1">
<path style=" stroke:none;fill-rule:nonzero;fill:url(#linear0);" d="M 55.046875 50.695312 C 55.046875 50.695312 70.390625 81.902344 60.910156 48.726562 C 60.910156 48.726562 53.6875 24.652344 44.257812 9.871094 C 44.257812 9.871094 35.800781 -7.503906 25.226562 3.851562 C 25.226562 3.851562 2.90625 27.4375 0.164062 54.894531 C 0.164062 54.894531 -2.738281 70.617188 15.929688 60.636719 L 41.195312 48.132812 C 41.195312 48.132812 59.929688 38.195312 38.515625 44.558594 L 17.332031 52.214844 C 17.332031 52.214844 8.09375 56.628906 12.101562 48.132812 C 12.101562 48.132812 20.90625 26.566406 26.265625 20.824219 C 26.265625 20.824219 32.519531 8.808594 37.621094 20.109375 C 37.625 20.109375 47.839844 34.632812 55.046875 50.695312 Z M 55.046875 50.695312 "/>
</g>
</svg>
