<svg xmlns="http://www.w3.org/2000/svg" xmlns:xlink="http://www.w3.org/1999/xlink" width="64" height="64" viewBox="0 0 64 64" version="1.1">
<defs> <linearGradient id="linear0" gradientUnits="userSpaceOnUse" x1="0" y1="0" x2="0" y2="1" gradientTransform="matrix(55.992188,0,0,56,4.003906,4)"> <stop offset="0" style="stop-color:#ff6666;stop-opacity:1;"/> <stop offset="1" style="stop-color:#d90000;stop-opacity:1;"/> </linearGradient> </defs>
<g id="surface1">
<path style=" stroke:none;fill-rule:nonzero;fill:url(#linear0);fill-opacity:1;" d="M 38.808594 31.347656 C 38.808594 35.113281 35.742188 38.167969 31.960938 38.167969 C 28.175781 38.167969 25.109375 35.113281 25.109375 31.347656 C 25.109375 27.582031 28.175781 24.527344 31.960938 24.527344 C 35.742188 24.527344 38.808594 27.582031 38.808594 31.347656 Z M 38.808594 31.347656 "/>
<path style=" stroke:none;fill-rule:nonzero;fill:url(#linear0);fill-opacity:1;" d="M 31.960938 7.664062 C 18.796875 7.664062 8.066406 17.546875 7.550781 31.007812 L 22.15625 31.007812 C 22.652344 25.625 26.855469 22.175781 31.960938 22.175781 C 37.058594 22.175781 41.265625 25.625 41.761719 31.007812 L 56.363281 31.007812 C 55.851562 17.546875 45.117188 7.664062 31.960938 7.664062 Z M 31.960938 16.140625 C 30.628906 16.140625 29.558594 15.070312 29.558594 13.753906 C 29.558594 12.429688 30.628906 11.363281 31.960938 11.363281 C 33.28125 11.363281 34.355469 12.429688 34.355469 13.753906 C 34.355469 15.070312 33.28125 16.140625 31.960938 16.140625 Z M 31.960938 16.140625 "/>
<path style=" stroke:none;fill-rule:nonzero;fill:url(#linear0);fill-opacity:1;" d="M 31.960938 41.152344 C 26.855469 41.152344 22.652344 37.273438 22.15625 32.320312 L 7.550781 32.320312 C 7.628906 34.277344 7.9375 36.171875 8.453125 37.976562 C 11.351562 48.1875 20.777344 55.671875 31.960938 55.671875 C 45.117188 55.671875 55.851562 45.304688 56.363281 32.320312 L 41.753906 32.320312 C 41.265625 37.273438 37.058594 41.152344 31.960938 41.152344 Z M 31.960938 41.152344 "/>
</g>
</svg>
