<svg xmlns="http://www.w3.org/2000/svg" xmlns:xlink="http://www.w3.org/1999/xlink" width="64" height="64" viewBox="0 0 64 64" version="1.1">
<defs>
<linearGradient id="linear0" gradientUnits="userSpaceOnUse" x1="0" y1="0" x2="0" y2="1" gradientTransform="matrix(56,0,0,51.695312,4,6.152344)">
<stop offset="0" style="stop-color:#ff6666;stop-opacity:1;"/>
<stop offset="1" style="stop-color:#d90000;stop-opacity:1;"/>
</linearGradient>
</defs>
<g id="surface1">
<path style=" stroke:none;fill-rule:nonzero;fill:url(#linear0);" d="M 42.683594 18.171875 C 44.078125 20.289062 44.925781 22.816406 44.925781 25.539062 C 44.925781 25.589844 44.925781 25.640625 44.910156 25.683594 C 47.863281 26.1875 50.476562 27.6875 52.300781 29.90625 C 56.625 30.351562 60 34.007812 60 38.460938 C 60 42.886719 56.65625 46.535156 52.355469 47.011719 C 52.019531 47.347656 51.667969 47.675781 51.300781 47.984375 C 51.351562 48.390625 51.382812 48.808594 51.382812 49.230469 C 51.382812 53.984375 47.523438 57.847656 42.769531 57.847656 C 38.007812 57.847656 34.152344 53.984375 34.152344 49.230469 C 34.152344 48.851562 34.179688 48.476562 34.230469 48.109375 C 33.328125 47.394531 32.5625 46.53125 31.925781 45.578125 C 31.332031 46.488281 30.597656 47.289062 29.761719 47.984375 C 29.816406 48.390625 29.847656 48.808594 29.847656 49.230469 C 29.847656 53.984375 25.984375 57.847656 21.230469 57.847656 C 16.46875 57.847656 12.617188 53.984375 12.617188 49.230469 C 12.617188 48.808594 12.644531 48.394531 12.699219 47.984375 C 12.332031 47.675781 11.980469 47.347656 11.640625 47.011719 C 7.335938 46.535156 4 42.882812 4 38.460938 C 4 34.007812 7.367188 30.351562 11.699219 29.90625 C 13.519531 27.6875 16.136719 26.1875 19.089844 25.683594 C 19.074219 25.636719 19.074219 25.589844 19.074219 25.539062 C 19.074219 22.8125 19.921875 20.285156 21.316406 18.171875 C 21.257812 17.765625 21.230469 17.34375 21.230469 16.925781 C 21.230469 10.976562 26.050781 6.152344 32 6.152344 C 37.949219 6.152344 42.769531 10.976562 42.769531 16.925781 C 42.769531 17.34375 42.742188 17.765625 42.683594 18.171875 Z M 42.683594 18.171875 "/>
</g>
</svg>
