<svg xmlns="http://www.w3.org/2000/svg" xmlns:xlink="http://www.w3.org/1999/xlink" width="64" height="64" viewBox="0 0 64 64" version="1.1">
<defs>
<linearGradient id="linear0" gradientUnits="userSpaceOnUse" x1="0" y1="0" x2="0" y2="1" gradientTransform="matrix(55.996094,0,0,44.738281,4.003906,9.628906)">
<stop offset="0" style="stop-color:#ff6666;stop-opacity:1;"/>
<stop offset="1" style="stop-color:#d90000;stop-opacity:1;"/>
</linearGradient>
</defs>
<g id="surface1">
<path style=" stroke:none;fill-rule:evenodd;fill:url(#linear0);" d="M 41.46875 49.445312 C 40.277344 50.480469 38.945312 51.347656 37.503906 52.039062 C 30.148438 55.222656 21.636719 54.902344 14.136719 52.523438 C 10.375 51.3125 6.21875 49.46875 4.589844 45.59375 C 3.261719 40.605469 4.359375 35.332031 6.140625 30.613281 C 8.625 24.074219 12.621094 17.539062 19.117188 14.335938 C 19.628906 14.078125 20.148438 13.847656 20.667969 13.625 C 20.882812 13.558594 21.097656 13.480469 21.3125 13.414062 C 21.105469 13.457031 20.890625 13.523438 20.667969 13.625 C 20.621094 13.632812 20.566406 13.652344 20.515625 13.675781 C 20.488281 13.710938 20.609375 11.027344 22.703125 10.511719 C 31.65625 7.683594 41.996094 11.882812 47.40625 19.730469 C 50.503906 16.390625 57.449219 14.765625 58.988281 16.664062 C 60.664062 18.730469 59.867188 22.367188 59.355469 22.800781 C 58.847656 23.230469 55.527344 20.59375 52.636719 21.921875 C 51.464844 22.457031 50.5 22.996094 49.632812 23.539062 C 53.28125 31.226562 52.910156 40.835938 45.429688 48.890625 C 43.738281 50.832031 41.527344 49.511719 41.453125 49.464844 C 41.457031 49.460938 41.464844 49.453125 41.46875 49.445312 Z M 41.472656 39.941406 C 41.277344 40.339844 41.054688 40.726562 40.820312 41.105469 C 39.445312 43.5 37.40625 45.359375 35.011719 46.617188 C 32.074219 47.816406 28.898438 48.410156 25.722656 48.355469 C 22.371094 48.355469 19.074219 47.816406 15.898438 46.796875 C 14.402344 46.375 12.964844 45.71875 11.648438 44.941406 C 11.109375 44.578125 10.566406 44.101562 10.273438 43.5 C 10.09375 42.722656 9.972656 41.882812 9.972656 41.042969 C 10.09375 38.171875 10.628906 35.414062 11.707031 32.78125 C 12.789062 29.902344 14.222656 27.207031 15.960938 24.753906 C 17.519531 22.597656 19.496094 20.859375 21.832031 19.660156 C 23.6875 18.761719 25.722656 18.285156 27.820312 18.34375 C 28.207031 18.34375 28.597656 18.355469 28.984375 18.390625 C 29.3125 18.8125 29.664062 19.253906 30.03125 19.699219 C 34.144531 24.722656 38.234375 31.835938 40.886719 38.394531 C 41.097656 38.914062 41.300781 39.433594 41.472656 39.941406 Z M 41.472656 39.941406 "/>
</g>
</svg>
