<svg xmlns="http://www.w3.org/2000/svg" xmlns:xlink="http://www.w3.org/1999/xlink" width="64" height="64" viewBox="0 0 64 64" version="1.1">
<defs>
<linearGradient id="linear0" gradientUnits="userSpaceOnUse" x1="0" y1="0" x2="0" y2="1" gradientTransform="matrix(56,0,0,60.664062,4,1.667969)">
<stop offset="0" style="stop-color:#ff6666;stop-opacity:1;"/>
<stop offset="1" style="stop-color:#d90000;stop-opacity:1;"/>
</linearGradient>
</defs>
<g id="surface1">
<path style=" stroke:none;fill-rule:evenodd;fill:url(#linear0);" d="M 12.644531 48.308594 C 7.800781 47.960938 4 43.941406 4 39 L 4 11 C 4 5.828125 8.164062 1.667969 13.332031 1.667969 L 20.332031 1.667969 L 20.332031 11 L 15.667969 11 C 14.375 11 13.332031 12.039062 13.332031 13.332031 L 13.332031 36.667969 C 13.332031 37.960938 14.375 39 15.667969 39 L 16.832031 39 L 27.332031 15.667969 L 36.667969 15.667969 L 47.167969 39 L 48.332031 39 C 49.625 39 50.667969 37.960938 50.667969 36.667969 L 50.667969 13.332031 C 50.667969 12.039062 49.625 11 48.332031 11 L 43.667969 11 L 43.667969 1.667969 L 50.667969 1.667969 C 55.835938 1.667969 60 5.828125 60 11 L 60 39 C 60 43.941406 56.203125 47.960938 51.355469 48.308594 L 57.667969 62.332031 L 47.167969 62.332031 L 41.21875 48.332031 L 22.78125 48.332031 L 16.832031 62.332031 L 6.332031 62.332031 Z M 37.253906 39 L 26.746094 39 L 32 26.632812 Z M 37.253906 39 "/>
</g>
</svg>
