<svg xmlns="http://www.w3.org/2000/svg" xmlns:xlink="http://www.w3.org/1999/xlink" width="64" height="64" viewBox="0 0 64 64" version="1.1">
<defs>
<linearGradient id="linear0" gradientUnits="userSpaceOnUse" x1="0" y1="0" x2="0" y2="1" gradientTransform="matrix(64,0,0,64,0,0)">
<stop offset="0" style="stop-color:#ff6666;stop-opacity:1;"/>
<stop offset="1" style="stop-color:#d90000;stop-opacity:1;"/>
</linearGradient>
</defs>
<g id="surface1">
<path style=" stroke:none;fill-rule:evenodd;fill:url(#linear0);" d="M 7.113281 0 C 3.191406 0 0 3.191406 0 7.113281 L 0 56.886719 C 0 60.808594 3.191406 64 7.113281 64 L 56.886719 64 C 60.808594 64 64 60.808594 64 56.886719 L 64 7.113281 C 64 3.191406 60.808594 0 56.886719 0 Z M 19.496094 18.382812 L 11.109375 45.175781 L 16.042969 45.175781 L 18.292969 37.589844 L 26.605469 37.589844 L 28.972656 45.175781 L 34.101562 45.175781 L 25.597656 18.382812 L 19.496094 18.382812 M 21.09375 27.292969 C 21.554688 25.703125 21.953125 23.832031 22.335938 22.277344 L 22.410156 22.277344 C 22.796875 23.828125 23.226562 25.652344 23.730469 27.292969 L 25.789062 33.886719 L 19.074219 33.886719 L 21.09375 27.292969 M 35.855469 35.796875 C 35.855469 41.722656 39.464844 45.617188 45.597656 45.617188 C 48.320312 45.617188 50.566406 45.054688 52.199219 44.378906 L 51.503906 41.007812 C 50.0625 41.558594 48.476562 41.875 46.265625 41.875 C 43.226562 41.875 40.546875 40.367188 40.4375 36.871094 L 53.101562 36.871094 C 53.179688 36.433594 53.253906 35.714844 53.253906 34.800781 C 53.253906 30.542969 51.273438 25.378906 45.097656 25.378906 C 39.039062 25.378906 35.855469 30.414062 35.855469 35.777344 L 35.855469 35.796875 M 44.824219 28.707031 C 48.007812 28.707031 48.789062 31.644531 48.742188 33.4375 L 40.4375 33.4375 C 40.625 31.445312 41.875 28.707031 44.824219 28.707031 M 19.496094 18.382812 Z M 19.496094 18.382812 "/>
</g>
</svg>
