<svg xmlns="http://www.w3.org/2000/svg" xmlns:xlink="http://www.w3.org/1999/xlink" width="64" height="64" viewBox="0 0 64 64" version="1.1">
<defs>
<linearGradient id="linear0" gradientUnits="userSpaceOnUse" x1="0" y1="0" x2="0" y2="1" gradientTransform="matrix(64,0,0,64,0,0)">
<stop offset="0" style="stop-color:#ff6666;stop-opacity:1;"/>
<stop offset="1" style="stop-color:#d90000;stop-opacity:1;"/>
</linearGradient>
</defs>
<g id="surface1">
<path style=" stroke:none;fill-rule:evenodd;fill:url(#linear0);" d="M 7.113281 0 C 3.191406 0 0 3.191406 0 7.113281 L 0 56.886719 C 0 60.808594 3.191406 64 7.113281 64 L 56.886719 64 C 60.808594 64 64 60.808594 64 56.886719 L 64 7.113281 C 64 3.191406 60.808594 0 56.886719 0 Z M 11.46875 21.257812 C 11.46875 25.382812 14.484375 27.886719 19.199219 29.585938 C 22.847656 30.902344 24.296875 32.167969 24.296875 34.339844 C 24.296875 36.675781 22.429688 38.246094 19.066406 38.246094 C 16.394531 38.246094 13.851562 37.394531 12.148438 36.421875 L 11 40.757812 C 12.574219 41.683594 15.714844 42.574219 18.730469 42.574219 C 26.121094 42.574219 29.609375 38.535156 29.609375 33.957031 C 29.609375 29.839844 27.183594 27.332031 22.21875 25.46875 C 18.398438 23.976562 16.742188 22.960938 16.742188 20.746094 C 16.742188 19.09375 18.179688 17.304688 21.492188 17.304688 C 24.171875 17.304688 26.164062 18.117188 27.1875 18.664062 L 28.460938 14.460938 C 26.976562 13.695312 24.679688 13.015625 21.578125 13.015625 C 15.382812 13.015625 11.480469 16.585938 11.480469 21.257812 L 11.46875 21.257812 M 32.789062 31.886719 C 32.789062 37.742188 36.445312 41.984375 41.578125 41.984375 C 44.300781 41.984375 46.414062 40.753906 47.621094 38.925781 L 47.699219 38.925781 L 47.699219 40.703125 C 47.699219 45.164062 45.152344 46.953125 41.753906 46.953125 C 39.253906 46.953125 37.042969 46.140625 35.714844 45.382812 L 34.574219 49.328125 C 36.355469 50.441406 39.160156 50.984375 41.792969 50.984375 C 44.636719 50.984375 47.613281 50.390625 49.777344 48.476562 C 51.941406 46.523438 52.828125 43.433594 52.828125 39.097656 L 52.828125 27.371094 C 52.828125 24.527344 52.914062 22.832031 53 21.429688 L 48.457031 21.429688 L 48.242188 24.191406 L 48.160156 24.191406 C 47.183594 22.488281 45.316406 20.960938 42.175781 20.960938 C 37.207031 20.960938 32.789062 25.085938 32.789062 31.878906 L 32.789062 31.886719 M 38.101562 31.707031 C 38.101562 27.503906 40.261719 24.960938 43.191406 24.960938 C 45.398438 24.960938 46.886719 26.394531 47.441406 28.3125 C 47.566406 28.730469 47.613281 29.246094 47.613281 29.707031 L 47.613281 33.066406 C 47.613281 33.660156 47.527344 34.378906 47.394531 34.9375 C 46.800781 36.804688 45.105469 38.074219 43.152344 38.074219 C 39.878906 38.074219 38.101562 35.230469 38.101562 31.707031 M 11.46875 21.257812 Z M 11.46875 21.257812 "/>
</g>
</svg>
