<svg xmlns="http://www.w3.org/2000/svg" xmlns:xlink="http://www.w3.org/1999/xlink" width="64" height="64" viewBox="0 0 64 64" version="1.1">
<defs>
<linearGradient id="linear0" gradientUnits="userSpaceOnUse" x1="0" y1="0" x2="0" y2="1" gradientTransform="matrix(64.011719,0,0,64,-0.00390625,0)">
<stop offset="0" style="stop-color:#ff6666;stop-opacity:1;"/>
<stop offset="1" style="stop-color:#d90000;stop-opacity:1;"/>
</linearGradient>
</defs>
<g id="surface1">
<path style=" stroke:none;fill-rule:nonzero;fill:url(#linear0);" d="M 61.300781 44.351562 C 61.113281 44.097656 60.816406 43.742188 60.484375 43.402344 C 57.019531 39.84375 54.429688 35.644531 53.035156 30.996094 C 52.972656 30.777344 52.90625 30.5625 52.847656 30.34375 C 52.789062 30.128906 52.738281 29.90625 52.683594 29.683594 C 51.566406 24.960938 51.703125 20.027344 52.933594 15.214844 C 52.933594 15.214844 53.121094 14.421875 53.167969 14.09375 C 54.199219 8.015625 50.457031 2.042969 44.386719 0.414062 C 38.199219 -1.246094 31.851562 2.226562 29.828125 8.214844 C 29.746094 8.4375 29.574219 9 29.574219 9.007812 C 28.242188 13.726562 25.929688 18.007812 22.664062 21.511719 C 18.957031 25.40625 14.238281 28.175781 8.949219 29.589844 C 2.507812 31.316406 -1.316406 37.949219 0.410156 44.394531 C 2.136719 50.835938 8.761719 54.664062 15.207031 52.9375 C 20.015625 51.707031 24.949219 51.570312 29.675781 52.683594 C 29.894531 52.738281 30.117188 52.792969 30.335938 52.851562 C 30.554688 52.910156 30.773438 52.976562 30.992188 53.039062 C 35.640625 54.433594 39.84375 57.019531 43.394531 60.488281 C 43.832031 60.925781 44.207031 61.230469 44.5625 61.480469 C 49.335938 65.121094 56.128906 64.839844 60.480469 60.488281 C 64.898438 56.074219 65.15625 49.097656 61.300781 44.351562 Z M 32.027344 46.535156 C 25.722656 44.84375 21.976562 38.359375 23.667969 32.054688 C 25.359375 25.746094 31.839844 22.003906 38.148438 23.691406 C 44.457031 25.382812 48.199219 31.867188 46.507812 38.171875 C 44.820312 44.480469 38.335938 48.226562 32.027344 46.535156 Z M 32.027344 46.535156 "/>
</g>
</svg>
