<svg xmlns="http://www.w3.org/2000/svg" xmlns:xlink="http://www.w3.org/1999/xlink" width="64" height="64" viewBox="0 0 64 64" version="1.1">
<defs>
<linearGradient id="linear0" gradientUnits="userSpaceOnUse" x1="0" y1="0" x2="0" y2="1" gradientTransform="matrix(74.65625,0,0,74.666667,5.338541,5.333333)">
<stop offset="0" style="stop-color:#ff6666;stop-opacity:1;"/>
<stop offset="1" style="stop-color:#d90000;stop-opacity:1;"/>
</linearGradient>
</defs>
<g id="surface1">
<path style=" stroke:none;fill-rule:nonzero;fill:url(#linear0);" d="M 12.027344 8.410156 C 9.660156 8.410156 7.417969 9.089844 5.707031 10.535156 C 4 11.984375 2.960938 14.226562 2.960938 16.636719 L 2.960938 47.332031 C 2.960938 49.875 3.957031 52.226562 5.730469 53.660156 C 7.5 55.089844 9.734375 55.589844 12.027344 55.589844 L 52.785156 55.589844 C 55.140625 55.589844 57.335938 54.75 58.828125 53.199219 C 60.320312 51.652344 61.039062 49.519531 61.039062 47.332031 L 61.039062 25.820312 C 61.039062 23.476562 60.34375 21.257812 58.773438 19.730469 C 57.203125 18.207031 55.023438 17.59375 52.785156 17.59375 L 21.945312 17.59375 C 19.652344 17.59375 17.417969 18.089844 15.648438 19.523438 C 13.878906 20.957031 12.878906 23.308594 12.878906 25.847656 L 12.878906 44.785156 C 12.878906 46.257812 14.070312 47.449219 15.542969 47.449219 C 17.015625 47.449219 18.210938 46.257812 18.210938 44.785156 L 18.210938 25.847656 C 18.210938 24.503906 18.519531 24.058594 19 23.667969 C 19.480469 23.28125 20.449219 22.925781 21.945312 22.925781 L 52.785156 22.925781 C 54.105469 22.925781 54.722656 23.234375 55.054688 23.558594 C 55.386719 23.882812 55.707031 24.445312 55.707031 25.820312 L 55.707031 47.332031 C 55.707031 48.40625 55.402344 49.070312 54.988281 49.5 C 54.574219 49.929688 53.972656 50.253906 52.785156 50.253906 L 12.027344 50.253906 C 10.53125 50.253906 9.566406 49.898438 9.082031 49.511719 C 8.601562 49.121094 8.292969 48.679688 8.292969 47.332031 L 8.292969 16.636719 C 8.292969 15.617188 8.59375 15.082031 9.15625 14.605469 C 9.71875 14.132812 10.675781 13.746094 12.027344 13.746094 L 37.03125 13.746094 C 38.503906 13.746094 39.699219 12.550781 39.699219 11.078125 C 39.699219 9.605469 38.503906 8.410156 37.03125 8.410156 Z M 12.027344 8.410156 "/>
</g>
</svg>
