<svg xmlns="http://www.w3.org/2000/svg" xmlns:xlink="http://www.w3.org/1999/xlink" width="64" height="64" viewBox="0 0 64 64" version="1.1">
<defs>
<linearGradient id="linear0" gradientUnits="userSpaceOnUse" x1="0" y1="0" x2="0" y2="1" gradientTransform="matrix(43.078125,0,0,56,10.460938,4)">
<stop offset="0" style="stop-color:#ff6666;stop-opacity:1;"/>
<stop offset="1" style="stop-color:#d90000;stop-opacity:1;"/>
</linearGradient>
</defs>
<g id="surface1">
<path style=" stroke:none;fill-rule:nonzero;fill:url(#linear0);" d="M 35.230469 4 L 34.152344 5.074219 L 34.152344 6.152344 L 35.230469 6.691406 L 34.152344 10.460938 L 36.308594 12.617188 L 37.734375 12.617188 L 39.539062 13.691406 L 38.460938 16.925781 L 34.152344 23.382812 L 27.542969 26.597656 C 27.144531 25.941406 26.410156 25.539062 25.625 25.539062 C 24.386719 25.535156 23.382812 26.503906 23.382812 27.691406 C 23.382812 28.878906 24.386719 29.847656 25.625 29.847656 C 26.859375 29.847656 27.859375 28.878906 27.859375 27.691406 L 35.230469 24.460938 L 38.460938 21.230469 L 38.460938 27.691406 L 35.960938 29.847656 L 22.09375 41.691406 L 17.351562 55.691406 L 14.769531 55.691406 L 10.460938 53.539062 L 10.460938 55.691406 L 14.769531 60 L 18 60 L 24.460938 42.769531 L 32 38.460938 L 27.691406 49.230469 L 41.046875 55.691406 L 36.308594 58.925781 L 36.308594 60 L 44.925781 60 L 44.925781 57.847656 L 43.847656 54.617188 L 30.925781 48.15625 L 44.925781 32 L 44.925781 21.230469 L 47.074219 23.382812 L 50.148438 32.390625 C 49.570312 32.796875 49.230469 33.453125 49.230469 34.152344 C 49.230469 35.34375 50.195312 36.308594 51.382812 36.308594 C 52.574219 36.308594 53.539062 35.34375 53.539062 34.152344 C 53.539062 32.964844 52.574219 32 51.382812 32 L 49.230469 22.308594 L 44.925781 16.925781 L 42.769531 12.988281 L 40.617188 10.460938 L 40.617188 6.152344 L 38.675781 4 Z M 35.230469 4 "/>
</g>
</svg>
