<svg xmlns="http://www.w3.org/2000/svg" xmlns:xlink="http://www.w3.org/1999/xlink" width="64" height="64" viewBox="0 0 64 64" version="1.1">
<defs>
<linearGradient id="linear0" gradientUnits="userSpaceOnUse" x1="0" y1="0" x2="0" y2="1" gradientTransform="matrix(55.210937,0,0,64,4.394531,0)">
<stop offset="0" style="stop-color:#ff6666;stop-opacity:1;"/>
<stop offset="1" style="stop-color:#d90000;stop-opacity:1;"/>
</linearGradient>
</defs>
<g id="surface1">
<path style=" stroke:none;fill-rule:evenodd;fill:url(#linear0);" d="M 34.207031 45.269531 L 39.664062 45.269531 C 39.808594 45.269531 39.949219 45.269531 40.09375 45.28125 C 40.347656 45.304688 40.601562 45.3125 40.867188 45.304688 C 41.726562 45.3125 42.601562 45.246094 43.460938 45.125 C 44.375 45.003906 45.285156 44.753906 46.144531 44.386719 C 46.5625 44.21875 46.929688 43.957031 47.222656 43.613281 C 47.273438 43.535156 47.316406 43.460938 47.347656 43.371094 C 47.425781 43.097656 47.46875 42.808594 47.457031 42.519531 C 47.46875 41.878906 47.390625 41.253906 47.234375 40.644531 C 47.136719 40.3125 47.003906 40.003906 46.828125 39.714844 C 46.488281 39.195312 46.011719 38.789062 45.449219 38.5 C 44.644531 38.09375 43.769531 37.816406 42.863281 37.671875 C 42.09375 37.527344 41.308594 37.464844 40.523438 37.464844 C 40.378906 37.464844 40.234375 37.476562 40.09375 37.484375 C 39.960938 37.484375 39.828125 37.496094 39.707031 37.496094 L 34.207031 37.539062 Z M 28.6875 45.269531 L 16.707031 45.269531 C 15.097656 45.269531 13.546875 45.90625 12.410156 47.046875 C 11.277344 48.183594 10.636719 49.730469 10.636719 51.34375 C 10.636719 52.957031 11.277344 54.5 12.410156 55.636719 C 13.546875 56.777344 15.097656 57.414062 16.707031 57.414062 L 28.6875 57.414062 L 28.6875 61.242188 C 28.6875 62.765625 29.925781 64 31.449219 64 C 32.972656 64 34.207031 62.765625 34.207031 61.242188 L 34.207031 57.414062 L 39.476562 57.414062 C 39.949219 57.449219 40.4375 57.460938 40.910156 57.449219 C 42.324219 57.449219 43.734375 57.347656 45.128906 57.152344 C 47.085938 56.882812 49.003906 56.367188 50.824219 55.59375 C 53.175781 54.621094 55.238281 53.050781 56.820312 51.054688 C 57.746094 49.851562 58.445312 48.503906 58.90625 47.066406 C 59.382812 45.601562 59.617188 44.054688 59.605469 42.507812 C 59.617188 40.820312 59.402344 39.132812 58.964844 37.496094 C 58.542969 35.953125 57.890625 34.472656 57.03125 33.125 C 55.515625 30.796875 53.40625 28.914062 50.925781 27.660156 C 49.023438 26.699219 46.984375 26.035156 44.875 25.691406 C 43.460938 25.453125 42.023438 25.328125 40.578125 25.316406 C 40.203125 25.316406 39.828125 25.328125 39.453125 25.351562 L 34.207031 25.382812 L 34.207031 17.667969 L 46.902344 17.667969 C 48.515625 17.667969 50.0625 17.023438 51.199219 15.886719 C 52.335938 14.753906 52.980469 13.203125 52.980469 11.59375 C 52.980469 9.980469 52.335938 8.4375 51.199219 7.300781 C 50.0625 6.160156 48.515625 5.519531 46.902344 5.519531 L 34.207031 5.519531 L 34.207031 2.796875 C 34.21875 2.050781 33.929688 1.332031 33.398438 0.808594 C 32.871094 0.28125 32.152344 -0.0117188 31.40625 0 C 29.882812 0.0234375 28.664062 1.277344 28.6875 2.796875 L 28.6875 5.519531 L 24.460938 5.519531 C 24.214844 5.507812 23.984375 5.507812 23.738281 5.507812 C 22.402344 5.507812 21.066406 5.609375 19.742188 5.808594 C 17.691406 6.085938 15.667969 6.648438 13.761719 7.453125 C 12.589844 7.960938 11.476562 8.59375 10.4375 9.339844 C 9.269531 10.179688 8.226562 11.195312 7.355469 12.332031 C 6.382812 13.605469 5.644531 15.039062 5.148438 16.5625 C 4.640625 18.164062 4.382812 19.839844 4.394531 21.53125 C 4.382812 23.230469 4.640625 24.921875 5.160156 26.53125 C 5.65625 28.066406 6.414062 29.503906 7.386719 30.785156 C 8.285156 31.933594 9.320312 32.9375 10.503906 33.789062 C 11.539062 34.527344 12.667969 35.15625 13.835938 35.664062 C 15.757812 36.46875 17.78125 37.019531 19.84375 37.308594 C 21.15625 37.496094 22.484375 37.597656 23.808594 37.597656 C 24.027344 37.597656 24.246094 37.597656 24.46875 37.585938 L 28.6875 37.558594 Z M 24.292969 25.441406 C 24.226562 25.441406 24.148438 25.441406 24.070312 25.453125 C 24.007812 25.453125 23.929688 25.453125 23.863281 25.453125 C 23.078125 25.453125 22.304688 25.394531 21.53125 25.273438 C 20.515625 25.140625 19.535156 24.875 18.597656 24.480469 C 18.230469 24.324219 17.886719 24.136719 17.578125 23.902344 C 17.371094 23.761719 17.183594 23.585938 17.015625 23.375 C 16.894531 23.207031 16.785156 23.011719 16.71875 22.8125 C 16.597656 22.390625 16.53125 21.960938 16.539062 21.53125 C 16.53125 21.101562 16.589844 20.667969 16.71875 20.261719 C 16.785156 20.0625 16.882812 19.875 17.007812 19.707031 C 17.160156 19.511719 17.347656 19.332031 17.546875 19.1875 C 17.855469 18.960938 18.1875 18.773438 18.539062 18.628906 C 19.46875 18.226562 20.441406 17.964844 21.445312 17.832031 C 22.226562 17.710938 23.011719 17.65625 23.796875 17.65625 C 23.882812 17.65625 23.972656 17.65625 24.050781 17.65625 C 24.148438 17.667969 24.234375 17.667969 24.335938 17.667969 L 28.6875 17.667969 L 28.6875 25.394531 Z M 24.292969 25.441406 "/>
</g>
</svg>
