<svg xmlns="http://www.w3.org/2000/svg" xmlns:xlink="http://www.w3.org/1999/xlink" width="64" height="64" viewBox="0 0 64 64" version="1.1">
<defs> <linearGradient id="linear0" gradientUnits="userSpaceOnUse" x1="0" y1="0" x2="0" y2="1" gradientTransform="matrix(55.992188,0,0,56,4.003906,4)"> <stop offset="0" style="stop-color:#ff6666;stop-opacity:1;"/> <stop offset="1" style="stop-color:#d90000;stop-opacity:1;"/> </linearGradient> </defs>
<g id="surface1">
<path style=" stroke:none;fill-rule:nonzero;fill:url(#linear0);fill-opacity:1;" d="M 33.039062 9.609375 C 30.546875 9.632812 28.097656 9.953125 25.734375 10.570312 C 25.558594 10.613281 25.390625 10.660156 25.210938 10.710938 C 14.179688 13.804688 5.261719 23.238281 2.742188 36.625 C 2.730469 36.675781 2.71875 36.726562 2.707031 36.777344 C 2.492188 37.640625 2.304688 38.53125 2.15625 39.429688 L 1.953125 40.652344 L 2.835938 41.523438 C 3.234375 41.910156 3.636719 42.289062 4.042969 42.652344 C 4.046875 42.660156 4.042969 42.660156 4.046875 42.664062 C 14.140625 53.09375 26.582031 56.667969 37.449219 53.769531 C 48.320312 50.875 57.425781 41.582031 61.183594 27.390625 C 61.195312 27.355469 61.195312 27.347656 61.1875 27.378906 C 61.1875 27.367188 61.195312 27.355469 61.199219 27.34375 C 61.207031 27.308594 61.21875 27.269531 61.230469 27.234375 C 61.417969 26.664062 61.597656 26.089844 61.769531 25.496094 L 62.160156 24.144531 L 61.167969 23.152344 C 60.667969 22.65625 60.15625 22.175781 59.644531 21.710938 C 59.605469 21.671875 59.558594 21.636719 59.523438 21.597656 C 51.433594 13.316406 41.941406 9.527344 33.039062 9.609375 Z M 33.039062 9.609375 "/>
<path style=" stroke:none;fill-rule:nonzero;fill:rgb(15.686275%,14.901961%,16.078432%);fill-opacity:1;" d="M 40.039062 32.171875 C 40.039062 36.5625 36.464844 40.125 32.054688 40.125 C 27.648438 40.125 24.070312 36.5625 24.070312 32.171875 C 24.070312 27.785156 27.648438 24.222656 32.054688 24.222656 C 36.464844 24.222656 40.039062 27.785156 40.039062 32.171875 Z M 40.039062 32.171875 "/>
</g>
</svg>
