<svg xmlns="http://www.w3.org/2000/svg" xmlns:xlink="http://www.w3.org/1999/xlink" width="64" height="64" viewBox="0 0 64 64" version="1.1">
<defs>
<linearGradient id="linear0" gradientUnits="userSpaceOnUse" x1="0" y1="0" x2="0" y2="1" gradientTransform="matrix(74.65625,0,0,74.666667,5.338541,5.333333)">
<stop offset="0" style="stop-color:#ff6666;stop-opacity:1;"/>
<stop offset="1" style="stop-color:#d90000;stop-opacity:1;"/>
</linearGradient>
</defs>
<g id="surface1">
<path style=" stroke:none;fill-rule:nonzero;fill:url(#linear0);" d="M 32.425781 2.757812 C 32.0625 2.742188 31.699219 2.765625 31.339844 2.820312 C 29.898438 3.035156 28.53125 3.789062 27.554688 4.960938 C 26.476562 6.25 26.207031 7.890625 26.445312 9.332031 C 26.683594 10.769531 27.394531 12.117188 28.621094 13.046875 C 28.625 13.046875 28.625 13.050781 28.628906 13.050781 C 29.261719 13.570312 29.789062 13.910156 29.902344 14.015625 C 29.910156 14.023438 29.910156 14.019531 29.914062 14.023438 C 29.910156 14.039062 29.90625 14.039062 29.90625 14.074219 L 29.894531 22.664062 C 29.894531 23.636719 30.046875 24.617188 30.558594 25.519531 C 31.070312 26.421875 31.972656 27.132812 32.953125 27.480469 C 35.386719 28.398438 36.832031 29.863281 37.285156 31.238281 C 37.734375 32.617188 37.492188 34.160156 35.527344 36.125 C 34.746094 36.90625 34.746094 38.171875 35.527344 38.953125 C 36.308594 39.734375 37.574219 39.734375 38.355469 38.953125 C 41.066406 36.242188 42.03125 32.878906 41.085938 29.992188 C 40.140625 27.105469 37.59375 24.945312 34.324219 23.722656 C 34.3125 23.71875 34.304688 23.714844 34.292969 23.710938 C 34.039062 23.621094 34.078125 23.621094 34.035156 23.546875 C 33.996094 23.472656 33.898438 23.203125 33.894531 22.667969 L 33.894531 22.664062 L 33.90625 14.078125 C 33.90625 14.074219 33.90625 14.074219 33.90625 14.074219 C 33.90625 12.890625 33.289062 11.710938 32.644531 11.101562 C 32 10.496094 31.5 10.242188 31.117188 9.921875 C 31.089844 9.902344 31.0625 9.878906 31.035156 9.859375 C 30.773438 9.660156 30.472656 9.175781 30.390625 8.679688 C 30.308594 8.179688 30.414062 7.777344 30.625 7.523438 C 31.25 6.773438 32.503906 6.609375 33.074219 7.054688 C 33.425781 7.332031 33.53125 7.589844 33.582031 7.914062 C 33.628906 8.234375 33.527344 8.621094 33.507812 8.65625 C 33.015625 9.644531 33.417969 10.847656 34.40625 11.339844 C 35.394531 11.832031 36.597656 11.429688 37.089844 10.441406 C 37.546875 9.523438 37.714844 8.480469 37.535156 7.304688 C 37.355469 6.132812 36.726562 4.832031 35.539062 3.90625 C 34.597656 3.167969 33.515625 2.804688 32.425781 2.757812 Z M 46.324219 5.660156 C 43.273438 5.667969 41.132812 7.445312 40.039062 9.203125 C 38.949219 10.953125 38.390625 12.6875 37.964844 13.273438 C 37.964844 13.273438 37.960938 13.277344 37.960938 13.277344 C 37.644531 13.679688 37.261719 14.042969 36.824219 14.632812 C 36.371094 15.242188 35.90625 16.214844 35.90625 17.273438 L 35.90625 19.949219 C 35.90625 21.164062 36.503906 22.304688 37.339844 22.984375 C 38.175781 23.664062 39.191406 23.964844 40.214844 23.929688 C 45.457031 23.765625 49.4375 22.96875 52.9375 21.035156 C 56.429688 19.101562 59.3125 16.144531 62.660156 11.945312 L 62.660156 11.941406 C 62.933594 11.605469 63.195312 11.257812 63.347656 10.664062 C 63.503906 10.066406 63.351562 8.96875 62.707031 8.367188 C 62.0625 7.769531 61.429688 7.726562 60.976562 7.71875 C 60.523438 7.714844 60.144531 7.789062 59.753906 7.898438 C 57 8.652344 55.824219 8.242188 54.035156 7.53125 C 52.242188 6.824219 49.886719 5.660156 46.328125 5.660156 C 46.328125 5.660156 46.324219 5.660156 46.324219 5.660156 Z M 17.671875 5.859375 C 14.113281 5.859375 11.757812 7.019531 9.964844 7.730469 C 8.175781 8.441406 7 8.851562 4.242188 8.09375 C 3.855469 7.988281 3.476562 7.914062 3.019531 7.917969 C 2.566406 7.921875 1.9375 7.96875 1.292969 8.566406 C 0.648438 9.164062 0.496094 10.265625 0.652344 10.859375 C 0.804688 11.453125 1.058594 11.796875 1.332031 12.132812 C 4.683594 16.339844 7.5625 19.300781 11.058594 21.234375 C 14.558594 23.167969 18.539062 23.964844 23.785156 24.128906 C 24.808594 24.160156 25.824219 23.863281 26.660156 23.183594 C 27.496094 22.503906 28.089844 21.363281 28.089844 20.148438 L 28.089844 17.472656 C 28.089844 16.414062 27.628906 15.441406 27.175781 14.832031 C 26.734375 14.234375 26.347656 13.867188 26.03125 13.460938 C 25.605469 12.875 25.050781 11.148438 23.960938 9.398438 C 22.867188 7.644531 20.726562 5.867188 17.675781 5.859375 C 17.675781 5.859375 17.671875 5.859375 17.671875 5.859375 Z M 46.328125 9.660156 C 49.0625 9.660156 50.527344 10.445312 52.558594 11.25 C 53.8125 11.746094 55.410156 12.03125 57.199219 12.074219 C 55.050781 14.484375 53.058594 16.398438 51.003906 17.535156 C 48.207031 19.082031 45 19.777344 40.085938 19.929688 C 39.992188 19.933594 39.9375 19.90625 39.90625 19.890625 L 39.90625 17.273438 C 39.90625 17.144531 39.859375 17.253906 40.03125 17.023438 C 40.203125 16.789062 40.640625 16.351562 41.15625 15.683594 C 41.167969 15.667969 41.175781 15.65625 41.1875 15.640625 C 42.339844 14.074219 42.75 12.421875 43.433594 11.316406 C 44.121094 10.214844 44.566406 9.664062 46.328125 9.660156 Z M 17.667969 9.859375 C 19.429688 9.863281 19.875 10.410156 20.5625 11.515625 C 21.25 12.617188 21.664062 14.269531 22.8125 15.839844 C 22.820312 15.855469 22.832031 15.867188 22.839844 15.882812 C 23.355469 16.550781 23.792969 16.988281 23.964844 17.21875 C 24.136719 17.453125 24.089844 17.34375 24.089844 17.472656 L 24.089844 20.089844 C 24.058594 20.105469 24.007812 20.132812 23.910156 20.128906 C 19 19.976562 15.789062 19.277344 12.996094 17.734375 C 10.9375 16.597656 8.945312 14.679688 6.796875 12.273438 C 8.585938 12.230469 10.183594 11.945312 11.4375 11.449219 C 13.46875 10.644531 14.933594 9.859375 17.667969 9.859375 Z M 26.964844 26.257812 C 26.460938 26.265625 25.976562 26.464844 25.613281 26.8125 C 23.566406 28.761719 22.246094 31.558594 22.914062 34.484375 C 23.582031 37.40625 26.046875 39.980469 30.277344 42.023438 C 34.898438 44.257812 36.378906 46.398438 36.730469 47.945312 C 37.085938 49.488281 36.417969 50.972656 35.433594 52.15625 C 34.726562 53.003906 34.84375 54.265625 35.691406 54.96875 C 36.542969 55.675781 37.800781 55.558594 38.507812 54.710938 C 39.996094 52.917969 41.34375 50.175781 40.632812 47.054688 C 39.921875 43.929688 37.253906 40.953125 32.015625 38.421875 C 32.015625 38.417969 32.015625 38.417969 32.011719 38.417969 C 28.417969 36.683594 27.109375 34.894531 26.8125 33.589844 C 26.515625 32.285156 27.027344 30.988281 28.371094 29.707031 C 29.171875 28.945312 29.203125 27.679688 28.441406 26.878906 C 28.054688 26.476562 27.519531 26.25 26.964844 26.257812 Z M 31.894531 28.421875 C 30.789062 28.421875 29.894531 29.316406 29.894531 30.421875 L 29.894531 35.234375 C 29.894531 36.335938 30.789062 37.234375 31.894531 37.234375 C 32.996094 37.234375 33.894531 36.335938 33.894531 35.234375 L 33.894531 30.421875 C 33.894531 29.316406 32.996094 28.421875 31.894531 28.421875 Z M 27.097656 41.875 C 26.546875 41.902344 26.03125 42.152344 25.667969 42.570312 C 24.175781 44.300781 23.015625 46.15625 22.84375 48.347656 C 22.671875 50.539062 23.636719 52.757812 25.503906 54.773438 C 26.253906 55.585938 27.519531 55.632812 28.328125 54.882812 C 29.136719 54.132812 29.1875 52.867188 28.4375 52.054688 C 27.042969 50.550781 26.757812 49.574219 26.832031 48.664062 C 26.902344 47.75 27.476562 46.597656 28.699219 45.179688 C 29.417969 44.34375 29.324219 43.082031 28.488281 42.359375 C 28.105469 42.027344 27.605469 41.855469 27.097656 41.875 Z M 31.921875 44.253906 C 30.820312 44.238281 29.910156 45.117188 29.894531 46.222656 C 29.894531 46.222656 29.847656 49.398438 29.824219 52.617188 C 29.8125 54.226562 29.804688 55.84375 29.816406 57.09375 C 29.820312 57.71875 29.828125 58.253906 29.839844 58.664062 C 29.847656 58.867188 29.855469 59.039062 29.871094 59.203125 C 29.875 59.289062 29.882812 59.363281 29.902344 59.476562 C 29.917969 59.589844 29.785156 59.597656 30.164062 60.25 C 30.71875 61.203125 31.941406 61.53125 32.898438 60.976562 C 33.632812 60.546875 34.019531 59.703125 33.855469 58.867188 C 33.855469 58.863281 33.855469 58.859375 33.855469 58.859375 C 33.851562 58.796875 33.84375 58.683594 33.839844 58.527344 C 33.828125 58.183594 33.820312 57.671875 33.816406 57.066406 C 33.808594 55.851562 33.8125 54.242188 33.824219 52.644531 C 33.847656 49.445312 33.894531 46.28125 33.894531 46.28125 C 33.910156 45.179688 33.027344 44.269531 31.921875 44.253906 Z M 31.921875 44.253906 "/>
</g>
</svg>
