<svg xmlns="http://www.w3.org/2000/svg" xmlns:xlink="http://www.w3.org/1999/xlink" width="64" height="64" viewBox="0 0 64 64" version="1.1">
<defs>
<linearGradient id="linear0" gradientUnits="userSpaceOnUse" x1="0" y1="0" x2="0" y2="1" gradientTransform="matrix(64,0,0,58.664063,0,2.667969)">
<stop offset="0" style="stop-color:#ff6666;stop-opacity:1;"/>
<stop offset="1" style="stop-color:#d90000;stop-opacity:1;"/>
</linearGradient>
</defs>
<g id="surface1">
<path style=" stroke:none;fill-rule:nonzero;fill:url(#linear0);" d="M 21.332031 2.667969 C 17.867188 2.667969 14.9375 4.90625 13.832031 8 L 10.835938 8 L 0.921875 40 C 0.3125 41.710938 0 43.515625 0 45.332031 C 0 54.132812 7.199219 61.332031 16 61.332031 C 21.859375 61.324219 27.253906 58.132812 30.082031 53 C 30.675781 53.230469 31.324219 53.332031 32 53.332031 C 32.675781 53.332031 33.324219 53.226562 33.917969 53 C 36.746094 58.132812 42.140625 61.324219 48 61.332031 C 56.800781 61.332031 64 54.132812 64 45.332031 C 64.003906 42.519531 63.257812 39.757812 61.832031 37.332031 L 53.164062 8 L 50.164062 8 C 49.042969 4.816406 46.042969 2.679688 42.667969 2.667969 C 39.199219 2.667969 36.273438 4.90625 35.164062 8 L 28.835938 8 C 27.714844 4.816406 24.710938 2.679688 21.332031 2.667969 Z M 16 34.667969 C 21.929688 34.667969 26.667969 39.40625 26.667969 45.332031 C 26.667969 51.261719 21.929688 56 16 56 C 10.070312 56 5.332031 51.261719 5.332031 45.332031 C 5.332031 39.40625 10.070312 34.667969 16 34.667969 Z M 48 34.667969 C 53.929688 34.667969 58.667969 39.40625 58.667969 45.332031 C 58.667969 51.261719 53.929688 56 48 56 C 42.070312 56 37.332031 51.261719 37.332031 45.332031 C 37.332031 39.40625 42.070312 34.667969 48 34.667969 Z M 48 34.667969 "/>
</g>
</svg>
