<svg xmlns="http://www.w3.org/2000/svg" xmlns:xlink="http://www.w3.org/1999/xlink" width="64" height="64" viewBox="0 0 64 64" version="1.1">
<defs>
<linearGradient id="linear0" gradientUnits="userSpaceOnUse" x1="0" y1="0" x2="0" y2="1" gradientTransform="matrix(56,0,0,40.523438,4,11.738281)">
<stop offset="0" style="stop-color:#ff6666;stop-opacity:1;"/>
<stop offset="1" style="stop-color:#d90000;stop-opacity:1;"/>
</linearGradient>
</defs>
<g id="surface1">
<path style=" stroke:none;fill-rule:evenodd;fill:url(#linear0);" d="M 44.53125 39.726562 L 43.652344 38.757812 C 40.660156 35.464844 36.414062 33.570312 32 33.570312 C 27.585938 33.570312 23.335938 35.464844 20.347656 38.757812 L 19.46875 39.726562 L 12.730469 32.992188 L 13.554688 32.113281 C 18.398438 26.929688 24.949219 24.070312 32 24.070312 C 39.046875 24.070312 45.601562 26.929688 50.441406 32.113281 L 51.265625 32.992188 Z M 32 52.261719 L 21.746094 42.015625 L 22.507812 41.136719 C 24.925781 38.34375 28.378906 36.742188 32 36.742188 C 35.617188 36.742188 39.074219 38.34375 41.488281 41.136719 L 42.246094 42.015625 Z M 53.5625 30.699219 L 52.679688 29.765625 C 47.226562 24.007812 39.882812 20.832031 32 20.832031 C 24.121094 20.832031 16.777344 24.003906 11.320312 29.765625 L 10.4375 30.699219 L 4 24.261719 L 4.84375 23.375 C 12.015625 15.871094 21.660156 11.738281 32 11.738281 C 42.335938 11.738281 51.980469 15.871094 59.15625 23.375 L 60 24.261719 Z M 53.5625 30.699219 "/>
</g>
</svg>
