<svg xmlns="http://www.w3.org/2000/svg" xmlns:xlink="http://www.w3.org/1999/xlink" width="64" height="64" viewBox="0 0 64 64" version="1.1">
<defs>
<linearGradient id="linear0" gradientUnits="userSpaceOnUse" x1="0" y1="0" x2="0" y2="1" gradientTransform="matrix(56,0,0,34.460938,4,14.769531)">
<stop offset="0" style="stop-color:#ff6666;stop-opacity:1;"/>
<stop offset="1" style="stop-color:#d90000;stop-opacity:1;"/>
</linearGradient>
</defs>
<g id="surface1">
<path style=" stroke:none;fill-rule:nonzero;fill:url(#linear0);" d="M 26.128906 14.777344 C 18.542969 14.769531 13 20.585938 9.457031 27.359375 C 4.839844 36.1875 -0.03125 49.230469 9.367188 49.230469 C 19.265625 49.230469 27.488281 43.738281 33.300781 39.589844 C 35.40625 43.4375 38.480469 49.230469 42.769531 49.230469 C 47.054688 49.230469 50.964844 47.542969 52.875 46.039062 L 60 36.121094 L 59.226562 35.230469 C 50.210938 39.699219 47.136719 42.773438 42.066406 33.128906 L 48.464844 27.246094 L 57.855469 15.625 L 57.164062 14.769531 L 40.269531 29.5625 C 37.53125 23.898438 31.910156 14.785156 26.121094 14.777344 M 19.796875 22.09375 C 25.164062 22.09375 28.316406 30.003906 31.476562 35.863281 C 26.816406 38.511719 20.726562 41.78125 16.269531 40.867188 C 10.980469 39.785156 9.632812 34.253906 11.765625 30.097656 C 13.652344 26.203125 15.96875 22.097656 19.789062 22.097656 "/>
</g>
</svg>
