<svg xmlns="http://www.w3.org/2000/svg" xmlns:xlink="http://www.w3.org/1999/xlink" width="64" height="64" viewBox="0 0 64 64" version="1.1">
<defs>
<linearGradient id="linear0" gradientUnits="userSpaceOnUse" x1="0" y1="0" x2="0" y2="1" gradientTransform="matrix(56,0,0,48.3125,4,7.84375)">
<stop offset="0" style="stop-color:#ff6666;stop-opacity:1;"/>
<stop offset="1" style="stop-color:#d90000;stop-opacity:1;"/>
</linearGradient>
</defs>
<g id="surface1">
<path style=" stroke:none;fill-rule:evenodd;fill:url(#linear0);" d="M 35.296875 7.84375 C 41.054688 7.84375 45.722656 12.511719 45.722656 18.277344 C 45.71875 22.234375 43.472656 25.851562 39.921875 27.609375 L 42.433594 27.609375 C 43.648438 27.609375 44.628906 28.589844 44.628906 29.804688 L 44.628906 33.101562 L 60 27.609375 L 60 56.15625 L 44.628906 50.667969 L 44.628906 53.960938 C 44.628906 55.175781 43.648438 56.15625 42.433594 56.15625 L 7.296875 56.15625 C 6.074219 56.15625 5.101562 55.175781 5.101562 53.960938 L 5.101562 29.804688 C 5.101562 28.589844 6.074219 27.609375 7.296875 27.609375 L 9.789062 27.609375 C 6.242188 25.847656 4.003906 22.230469 4 18.277344 C 4 12.511719 8.671875 7.84375 14.433594 7.84375 C 20.191406 7.84375 24.863281 12.511719 24.863281 18.277344 C 24.855469 22.234375 22.609375 25.851562 19.058594 27.609375 L 30.648438 27.609375 C 27.105469 25.84375 24.863281 22.230469 24.863281 18.277344 C 24.863281 12.511719 29.53125 7.84375 35.296875 7.84375 Z M 35.296875 7.84375 "/>
</g>
</svg>
