<svg xmlns="http://www.w3.org/2000/svg" xmlns:xlink="http://www.w3.org/1999/xlink" width="64" height="64" viewBox="0 0 64 64" version="1.1">
<defs>
<linearGradient id="linear0" gradientUnits="userSpaceOnUse" x1="0" y1="0" x2="0" y2="1" gradientTransform="matrix(45.484375,0,0,56,9.257812,4)">
<stop offset="0" style="stop-color:#ff6666;stop-opacity:1;"/>
<stop offset="1" style="stop-color:#d90000;stop-opacity:1;"/>
</linearGradient>
</defs>
<g id="surface1">
<path style=" stroke:none;fill-rule:nonzero;fill:url(#linear0);" d="M 32.011719 4 C 19.464844 4 9.257812 13.214844 9.257812 24.527344 C 9.257812 30.347656 11.84375 39.058594 15.691406 46.214844 C 20.480469 55.109375 26.273438 60 32 60 C 37.726562 60 43.53125 55.109375 48.308594 46.214844 C 52.15625 39.058594 54.742188 30.332031 54.742188 24.527344 C 54.769531 13.214844 44.558594 4 32.011719 4 Z M 11.84375 24.539062 C 11.84375 14.644531 20.890625 6.589844 32.023438 6.589844 C 43.160156 6.589844 52.207031 14.644531 52.207031 24.539062 C 52.207031 35.097656 42.65625 57.453125 32.023438 57.453125 C 21.394531 57.453125 11.84375 35.097656 11.84375 24.539062 Z M 29.734375 36.601562 L 29.644531 35.726562 C 29.621094 35.457031 28.949219 29.113281 24.792969 26.84375 C 20.625 24.578125 14.933594 27.464844 14.6875 27.578125 L 13.914062 27.976562 L 14.007812 28.851562 C 14.03125 29.125 14.699219 35.46875 18.859375 37.746094 C 20.03125 38.375 21.316406 38.609375 22.5625 38.609375 C 25.785156 38.609375 28.785156 37.09375 28.949219 37 Z M 20.078125 35.480469 C 17.867188 34.273438 17.003906 31.066406 16.695312 29.496094 C 18.40625 28.800781 21.484375 27.976562 23.554688 29.113281 C 25.757812 30.308594 26.632812 33.511719 26.941406 35.085938 C 25.449219 35.6875 22.296875 36.691406 20.078125 35.480469 Z M 41.652344 38.609375 C 42.898438 38.609375 44.199219 38.375 45.359375 37.746094 C 49.515625 35.480469 50.1875 29.125 50.210938 28.851562 L 50.300781 27.976562 L 49.527344 27.578125 C 49.285156 27.453125 43.597656 24.566406 39.429688 26.84375 C 35.269531 29.113281 34.601562 35.46875 34.574219 35.726562 L 34.484375 36.601562 L 35.257812 37 C 35.4375 37.09375 38.4375 38.609375 41.652344 38.609375 Z M 47.507812 29.507812 C 47.199219 31.078125 46.335938 34.285156 44.125 35.480469 C 41.925781 36.679688 38.757812 35.6875 37.265625 35.085938 C 37.570312 33.511719 38.4375 30.308594 40.648438 29.113281 C 42.863281 27.910156 46.027344 28.914062 47.507812 29.507812 Z M 27.328125 45.945312 L 36.542969 45.945312 L 36.542969 48.519531 L 27.328125 48.519531 Z M 27.328125 45.945312 "/>
</g>
</svg>
