<svg xmlns="http://www.w3.org/2000/svg" xmlns:xlink="http://www.w3.org/1999/xlink" width="64" height="64" viewBox="0 0 64 64" version="1.1">
<defs>
<linearGradient id="linear0" gradientUnits="userSpaceOnUse" x1="0" y1="0" x2="0" y2="1" gradientTransform="matrix(56,0,0,43.078125,4,10.460938)">
<stop offset="0" style="stop-color:#ff6666;stop-opacity:1;"/>
<stop offset="1" style="stop-color:#d90000;stop-opacity:1;"/>
</linearGradient>
</defs>
<g id="surface1">
<path style=" stroke:none;fill-rule:nonzero;fill:url(#linear0);" d="M 28.769531 10.460938 C 12.617188 10.460938 4 30.960938 4 38.03125 C 4 47.078125 8.308594 53.539062 18 53.539062 L 21.230469 53.539062 C 28.347656 53.539062 36.976562 44.925781 39.539062 40.617188 C 40.617188 42.769531 42.769531 53.539062 51.382812 53.539062 C 55.070312 53.539062 60 49.230469 60 49.230469 C 49.230469 52.546875 46 33.074219 46 33.074219 L 58.925781 12.617188 L 48.152344 12.617188 L 42.769531 21.769531 C 41.976562 19.636719 38.460938 10.460938 28.769531 10.460938 Z M 28.433594 15.882812 C 31.730469 16.246094 34.691406 20.425781 36.308594 30.925781 C 33.558594 36.308594 24.375 48.195312 16.925781 48.152344 C 5.617188 48.078125 18.539062 14.800781 28.433594 15.882812 Z M 28.433594 15.882812 "/>
</g>
</svg>
