<svg xmlns="http://www.w3.org/2000/svg" xmlns:xlink="http://www.w3.org/1999/xlink" width="64" height="64" viewBox="0 0 64 64" version="1.1">
<defs>
<linearGradient id="linear0" gradientUnits="userSpaceOnUse" x1="0" y1="0" x2="0" y2="1" gradientTransform="matrix(74.65625,0,0,74.666667,5.338541,5.333333)">
<stop offset="0" style="stop-color:#ff6666;stop-opacity:1;"/>
<stop offset="1" style="stop-color:#d90000;stop-opacity:1;"/>
</linearGradient>
</defs>
<g id="surface1">
<path style=" stroke:none;fill-rule:nonzero;fill:url(#linear0);" d="M 32.546875 2.6875 C 26.292969 2.566406 19.960938 4.433594 14.585938 8.40625 C 13.046875 9.539062 11.652344 10.796875 10.402344 12.15625 C 1.65625 21.675781 0.0390625 36.15625 7.105469 47.503906 C 7.84375 48.691406 9.40625 49.054688 10.59375 48.316406 C 11.78125 47.574219 12.144531 46.011719 11.40625 44.828125 C 4.703125 34.0625 7.390625 20.011719 17.59375 12.480469 C 27.796875 4.949219 42.011719 6.519531 50.324219 16.097656 C 58.636719 25.675781 58.191406 39.972656 49.296875 49.015625 C 40.40625 58.054688 26.121094 58.738281 16.40625 50.585938 C 15.335938 49.6875 13.738281 49.828125 12.835938 50.898438 C 11.9375 51.972656 12.078125 53.566406 13.148438 54.46875 C 24.851562 64.285156 42.199219 63.457031 52.914062 52.566406 C 63.625 41.671875 64.164062 24.316406 54.148438 12.777344 C 48.515625 6.285156 40.59375 2.84375 32.546875 2.6875 Z M 41.65625 13.761719 C 40.554688 13.761719 39.65625 14.65625 39.65625 15.761719 L 39.65625 48.242188 C 39.65625 49.34375 40.554688 50.242188 41.65625 50.242188 C 42.761719 50.242188 43.65625 49.34375 43.65625 48.242188 L 43.65625 15.761719 C 43.65625 14.65625 42.761719 13.761719 41.65625 13.761719 Z M 22.378906 18.933594 C 21.273438 18.933594 20.378906 19.828125 20.378906 20.933594 L 20.378906 43.070312 C 20.378906 44.171875 21.273438 45.070312 22.378906 45.070312 C 23.484375 45.070312 24.378906 44.171875 24.378906 43.070312 L 24.378906 20.933594 C 24.378906 19.828125 23.484375 18.933594 22.378906 18.933594 Z M 36.835938 20.285156 C 35.734375 20.285156 34.835938 21.179688 34.835938 22.285156 L 34.835938 41.71875 C 34.835938 42.820312 35.734375 43.71875 36.835938 43.71875 C 37.941406 43.71875 38.835938 42.820312 38.835938 41.71875 L 38.835938 22.285156 C 38.835938 21.179688 37.941406 20.285156 36.835938 20.285156 Z M 46.476562 21.339844 C 45.371094 21.339844 44.476562 22.234375 44.476562 23.339844 L 44.476562 40.664062 C 44.476562 41.765625 45.371094 42.664062 46.476562 42.664062 C 47.582031 42.664062 48.476562 41.765625 48.476562 40.664062 L 48.476562 23.339844 C 48.476562 22.234375 47.582031 21.339844 46.476562 21.339844 Z M 27.195312 22.359375 C 26.09375 22.359375 25.195312 23.253906 25.195312 24.359375 L 25.195312 39.640625 C 25.195312 40.746094 26.09375 41.640625 27.195312 41.640625 C 28.300781 41.640625 29.195312 40.746094 29.195312 39.640625 L 29.195312 24.359375 C 29.195312 23.253906 28.300781 22.359375 27.195312 22.359375 Z M 17.558594 24.570312 C 16.453125 24.570312 15.558594 25.464844 15.558594 26.570312 L 15.558594 37.433594 C 15.558594 38.539062 16.453125 39.433594 17.558594 39.433594 C 18.664062 39.433594 19.558594 38.539062 19.558594 37.433594 L 19.558594 26.570312 C 19.558594 25.464844 18.664062 24.570312 17.558594 24.570312 Z M 32.015625 27.34375 C 30.914062 27.34375 30.015625 28.238281 30.015625 29.34375 L 30.015625 34.65625 C 30.015625 35.761719 30.914062 36.65625 32.015625 36.65625 C 33.121094 36.65625 34.015625 35.761719 34.015625 34.65625 L 34.015625 29.34375 C 34.015625 28.238281 33.121094 27.34375 32.015625 27.34375 Z M 12.929688 28.257812 C 11.828125 28.257812 10.929688 29.152344 10.929688 30.257812 L 10.929688 33.742188 C 10.929688 34.84375 11.828125 35.742188 12.929688 35.742188 C 14.035156 35.742188 14.929688 34.84375 14.929688 33.742188 L 14.929688 30.257812 C 14.929688 29.152344 14.035156 28.257812 12.929688 28.257812 Z M 51.160156 28.257812 C 50.054688 28.257812 49.160156 29.152344 49.160156 30.257812 L 49.160156 33.742188 C 49.160156 34.84375 50.054688 35.742188 51.160156 35.742188 C 52.265625 35.742188 53.160156 34.84375 53.160156 33.742188 L 53.160156 30.257812 C 53.160156 29.152344 52.265625 28.257812 51.160156 28.257812 Z M 51.160156 28.257812 "/>
</g>
</svg>
