<svg xmlns="http://www.w3.org/2000/svg" xmlns:xlink="http://www.w3.org/1999/xlink" width="64" height="64" viewBox="0 0 64 64" version="1.1">
<defs>
<linearGradient id="linear0" gradientUnits="userSpaceOnUse" x1="0" y1="0" x2="0" y2="1" gradientTransform="matrix(50.238281,0,0,60,8,2)">
<stop offset="0" style="stop-color:#ff6666;stop-opacity:1;"/>
<stop offset="1" style="stop-color:#d90000;stop-opacity:1;"/>
</linearGradient>
</defs>
<g id="surface1">
<path style=" stroke:none;fill-rule:evenodd;fill:url(#linear0);" d="M 38.96875 35.523438 C 38.96875 39.613281 39.066406 43.023438 37 46.660156 C 35.332031 49.617188 32.675781 51.433594 29.726562 51.433594 C 25.695312 51.433594 23.335938 48.363281 23.335938 43.820312 C 23.335938 34.878906 31.367188 33.25 38.96875 33.25 Z M 49.566406 61.121094 C 48.867188 61.742188 47.863281 61.785156 47.078125 61.363281 C 43.585938 58.46875 42.960938 57.128906 41.054688 54.367188 C 35.289062 60.238281 31.199219 62 23.730469 62 C 14.878906 62 8 56.546875 8 45.636719 C 8 37.113281 12.621094 31.320312 19.207031 28.476562 C 24.910156 25.976562 32.875 25.523438 38.96875 24.839844 L 38.96875 23.476562 C 38.96875 20.980469 39.164062 18.023438 37.6875 15.863281 C 36.410156 13.933594 33.953125 13.136719 31.792969 13.136719 C 27.785156 13.136719 24.21875 15.1875 23.34375 19.441406 C 23.160156 20.386719 22.472656 21.324219 21.515625 21.371094 L 11.332031 20.269531 C 10.472656 20.078125 9.515625 19.386719 9.765625 18.074219 C 12.105469 5.730469 23.265625 2 33.265625 2 C 38.378906 2 45.0625 3.363281 49.09375 7.226562 C 54.207031 12 53.714844 18.363281 53.714844 25.296875 L 53.714844 41.652344 C 53.714844 46.570312 55.757812 48.730469 57.679688 51.386719 C 58.351562 52.335938 58.503906 53.472656 57.644531 54.171875 C 55.5 55.96875 51.683594 59.28125 49.585938 61.144531 Z M 49.566406 61.121094 "/>
</g>
</svg>
