<svg xmlns="http://www.w3.org/2000/svg" xmlns:xlink="http://www.w3.org/1999/xlink" width="64" height="64" viewBox="0 0 64 64" version="1.1">
<defs>
<linearGradient id="linear0" gradientUnits="userSpaceOnUse" x1="0" y1="0" x2="0" y2="1" gradientTransform="matrix(50.238281,0,0,60,6.878906,2)">
<stop offset="0" style="stop-color:#ff6666;stop-opacity:1;"/>
<stop offset="1" style="stop-color:#d90000;stop-opacity:1;"/>
</linearGradient>
</defs>
<g id="surface1">
<path style=" stroke:none;fill-rule:evenodd;fill:url(#linear0);" d="M 37.847656 35.523438 C 37.847656 39.617188 37.949219 43.023438 35.878906 46.660156 C 34.210938 49.617188 31.554688 51.433594 28.609375 51.433594 C 24.574219 51.433594 22.214844 48.363281 22.214844 43.820312 C 22.214844 34.875 30.246094 33.253906 37.847656 33.253906 Z M 48.449219 61.121094 C 47.746094 61.742188 46.742188 61.789062 45.960938 61.363281 C 42.46875 58.46875 41.84375 57.128906 39.9375 54.367188 C 34.167969 60.238281 30.085938 62 22.613281 62 C 13.761719 62 6.878906 56.546875 6.878906 45.636719 C 6.878906 37.117188 11.5 31.320312 18.089844 28.476562 C 23.789062 25.976562 31.757812 25.523438 37.847656 24.839844 L 37.847656 23.476562 C 37.847656 20.980469 38.042969 18.023438 36.570312 15.863281 C 35.292969 13.933594 32.835938 13.136719 30.671875 13.136719 C 26.664062 13.136719 23.101562 15.1875 22.222656 19.441406 C 22.042969 20.386719 21.351562 21.324219 20.398438 21.371094 L 10.210938 20.269531 C 9.351562 20.074219 8.394531 19.386719 8.644531 18.074219 C 10.984375 5.730469 22.144531 2 32.148438 2 C 37.261719 2 43.945312 3.363281 47.976562 7.226562 C 53.089844 12 52.597656 18.363281 52.597656 25.296875 L 52.597656 41.652344 C 52.597656 46.570312 54.640625 48.730469 56.558594 51.382812 C 57.230469 52.335938 57.382812 53.476562 56.527344 54.171875 C 54.378906 55.96875 50.5625 59.28125 48.464844 61.144531 Z M 48.449219 61.121094 "/>
</g>
</svg>
