<svg xmlns="http://www.w3.org/2000/svg" xmlns:xlink="http://www.w3.org/1999/xlink" width="64" height="64" viewBox="0 0 64 64" version="1.1">
<defs>
<linearGradient id="linear0" gradientUnits="userSpaceOnUse" x1="0" y1="0" x2="0" y2="1" gradientTransform="matrix(64,0,0,53.296875,0,5.351562)">
<stop offset="0" style="stop-color:#ff6666;stop-opacity:1;"/>
<stop offset="1" style="stop-color:#d90000;stop-opacity:1;"/>
</linearGradient>
</defs>
<g id="surface1">
<path style=" stroke:none;fill-rule:evenodd;fill:url(#linear0);" d="M 56.15625 33.894531 C 56.15625 37.050781 49.09375 39.730469 39.390625 40.609375 L 32.394531 40.402344 L 30.671875 46.035156 L 30.660156 46.066406 C 30.007812 47.832031 29.027344 49.054688 27.871094 49.683594 C 26.707031 50.320312 25.390625 50.324219 24.367188 49.65625 C 23.332031 48.980469 22.824219 47.757812 23.003906 46.425781 C 23.175781 45.121094 23.988281 43.765625 25.429688 42.496094 L 25.613281 42.707031 L 25.519531 42.421875 L 28.460938 40.289062 L 21.203125 40.074219 C 13.792969 38.886719 8.757812 36.5625 8.757812 33.890625 C 8.757812 33.480469 8.941406 33.085938 9.171875 32.691406 C 3.988281 32.132812 0 29.128906 0 25.476562 C 0 21.433594 4.871094 18.144531 10.867188 18.144531 C 12.867188 18.144531 14.726562 18.539062 16.335938 19.175781 C 17.28125 15.171875 20.332031 12.222656 23.996094 12.222656 C 25.210938 12.222656 26.359375 12.574219 27.386719 13.148438 C 29.96875 8.550781 35.226562 5.351562 41.363281 5.351562 C 50.03125 5.351562 57.054688 11.652344 57.054688 19.398438 C 57.054688 20.667969 56.808594 21.871094 56.457031 23.039062 C 56.589844 23.015625 56.726562 22.984375 56.859375 22.957031 C 57.121094 22.894531 57.382812 22.832031 57.667969 22.832031 C 61.167969 22.832031 64 25.195312 64 28.121094 C 64 31.050781 61.167969 33.429688 57.667969 33.429688 C 57.0625 33.429688 56.503906 33.289062 55.949219 33.152344 L 55.890625 33.136719 C 55.921875 33.21875 55.957031 33.296875 55.996094 33.375 C 56.074219 33.546875 56.15625 33.714844 56.15625 33.894531 Z M 18.410156 53.816406 L 18.398438 53.847656 C 17.746094 55.613281 16.769531 56.832031 15.613281 57.464844 C 14.449219 58.101562 13.128906 58.105469 12.109375 57.4375 C 11.074219 56.761719 10.5625 55.539062 10.742188 54.207031 C 10.917969 52.902344 11.730469 51.546875 13.167969 50.277344 L 13.351562 50.488281 L 13.261719 50.203125 L 21.300781 44.367188 Z M 36.472656 54.554688 L 36.484375 54.523438 L 39.375 45.074219 L 31.335938 50.910156 L 31.429688 51.195312 L 31.242188 50.984375 C 29.804688 52.253906 28.992188 53.609375 28.816406 54.914062 C 28.640625 56.246094 29.148438 57.46875 30.183594 58.144531 C 31.207031 58.8125 32.523438 58.808594 33.6875 58.171875 C 34.84375 57.539062 35.824219 56.320312 36.472656 54.554688 Z M 36.472656 54.554688 "/>
</g>
</svg>
