<svg xmlns="http://www.w3.org/2000/svg" xmlns:xlink="http://www.w3.org/1999/xlink" width="64" height="64" viewBox="0 0 64 64" version="1.1">
<defs>
<linearGradient id="linear0" gradientUnits="userSpaceOnUse" x1="0" y1="0" x2="0" y2="1" gradientTransform="matrix(58.21875,0,0,64,2.890625,0)">
<stop offset="0" style="stop-color:#ff6666;stop-opacity:1;"/>
<stop offset="1" style="stop-color:#d90000;stop-opacity:1;"/>
</linearGradient>
</defs>
<g id="surface1">
<path style=" stroke:none;fill-rule:nonzero;fill:url(#linear0);" d="M 44.285156 0 C 39.410156 0 35.453125 3.957031 35.453125 8.839844 C 35.453125 10.417969 35.859375 11.882812 36.582031 13.167969 L 26.902344 22.855469 C 25.15625 22.144531 23.265625 21.726562 21.261719 21.726562 C 18.667969 21.726562 16.207031 22.402344 14.074219 23.558594 L 11.539062 14.105469 C 12.316406 13.230469 12.804688 12.082031 12.804688 10.816406 C 12.804688 8.074219 10.566406 5.878906 7.824219 5.878906 C 5.085938 5.878906 2.890625 8.074219 2.890625 10.816406 C 2.890625 13.265625 4.648438 15.296875 6.980469 15.707031 L 9.988281 26.851562 C 7.652344 29.503906 6.226562 32.960938 6.226562 36.773438 C 6.226562 45.082031 12.960938 51.820312 21.261719 51.820312 C 25.863281 51.820312 29.96875 49.765625 32.726562 46.507812 L 40.339844 50.925781 C 40.140625 51.738281 40.058594 52.59375 40.058594 53.464844 C 40.058594 59.285156 44.769531 64 50.582031 64 C 56.394531 64 61.109375 59.285156 61.109375 53.464844 C 61.109375 47.648438 56.394531 42.933594 50.582031 42.933594 C 47.375 42.933594 44.480469 44.382812 42.546875 46.648438 L 35.21875 42.414062 C 35.917969 40.679688 36.300781 38.761719 36.300781 36.773438 C 36.300781 32.230469 34.261719 28.199219 31.082031 25.441406 L 39.964844 16.550781 C 41.238281 17.265625 42.726562 17.679688 44.285156 17.679688 C 49.164062 17.679688 53.121094 13.722656 53.121094 8.839844 C 53.121094 3.957031 49.164062 0 44.285156 0 Z M 44.285156 0 "/>
</g>
</svg>
