<svg xmlns="http://www.w3.org/2000/svg" xmlns:xlink="http://www.w3.org/1999/xlink" width="64" height="64" viewBox="0 0 64 64" version="1.1">
<defs>
<linearGradient id="linear0" gradientUnits="userSpaceOnUse" x1="0" y1="0" x2="0" y2="1" gradientTransform="matrix(56,0,0,56,4,4)">
<stop offset="0" style="stop-color:#ff6666;stop-opacity:1;"/>
<stop offset="1" style="stop-color:#d90000;stop-opacity:1;"/>
</linearGradient>
</defs>
<g id="surface1">
<path style=" stroke:none;fill-rule:nonzero;fill:url(#linear0);" d="M 29.996094 4 C 27.953125 4 26.035156 4.878906 24.707031 6.40625 C 21.207031 5.628906 18.007812 7.980469 17.234375 11.183594 C 16.484375 10.871094 15.679688 10.710938 14.863281 10.707031 C 11.347656 10.707031 8.484375 13.589844 8.484375 17.125 C 8.484375 17.277344 8.507812 17.40625 8.519531 17.5625 C 5.9375 18.398438 4.070312 20.839844 4.070312 23.652344 C 4.070312 26.78125 6.339844 29.390625 9.289062 29.960938 C 8.855469 30.789062 8.585938 31.6875 8.484375 32.621094 C 5.8125 33.441406 3.992188 35.910156 4 38.707031 C 4 42.40625 7.117188 45.464844 10.890625 45.125 C 11.742188 47.691406 14.144531 49.5 16.90625 49.5 C 18.824219 49.5 20.585938 48.640625 21.792969 47.167969 C 22.324219 47.277344 22.832031 47.347656 23.324219 47.347656 C 24.753906 47.34375 26.15625 46.980469 27.40625 46.292969 C 29.199219 46.894531 31.167969 46.695312 32.804688 45.742188 C 33.734375 46.535156 34.914062 46.949219 36.15625 46.949219 C 37.710938 46.957031 39.1875 46.261719 40.167969 45.050781 C 42.136719 45.59375 44.273438 45.320312 46.070312 44.324219 C 47.242188 46.199219 49.296875 47.339844 51.503906 47.347656 C 55.023438 47.347656 57.882812 44.46875 57.882812 40.933594 C 57.886719 39.167969 57.160156 37.480469 55.878906 36.265625 C 58.332031 35.34375 60 32.960938 60 30.253906 C 60 27.347656 58.035156 24.8125 55.222656 24.089844 C 54.640625 21.941406 52.984375 20.242188 50.847656 19.605469 C 51.179688 18.832031 51.355469 18 51.359375 17.160156 C 51.359375 13.625 48.496094 10.742188 44.980469 10.742188 C 43.878906 10.734375 42.800781 11.011719 41.84375 11.546875 C 40.730469 9.632812 38.699219 8.441406 36.484375 8.410156 C 35.433594 5.746094 32.859375 3.996094 29.992188 4 Z M 32.585938 48.40625 C 31.59375 48.773438 30.539062 48.957031 29.484375 48.953125 C 28.859375 48.957031 28.234375 48.894531 27.625 48.773438 C 27.476562 48.835938 27.34375 48.890625 27.1875 48.953125 C 27.28125 49.824219 27.332031 50.792969 27.332031 51.832031 C 27.332031 54.835938 25.484375 55.261719 22.410156 55.589844 C 20.796875 55.761719 19.386719 55.910156 18.726562 57.007812 C 18.355469 57.636719 18.335938 58.394531 18.691406 59.273438 C 18.871094 59.710938 19.3125 60 19.789062 60 L 44.175781 60 C 44.824219 60 45.34375 59.480469 45.34375 58.832031 C 45.34375 56.621094 43.085938 56.480469 41.734375 56.390625 C 39.351562 56.234375 37.894531 55.96875 37.832031 52.964844 C 37.820312 52.324219 37.886719 50.671875 37.980469 49.027344 C 37.375 49.179688 36.789062 49.316406 36.15625 49.316406 C 34.90625 49.3125 33.679688 49 32.585938 48.402344 Z M 32.585938 48.40625 "/>
</g>
</svg>
