<svg xmlns="http://www.w3.org/2000/svg" xmlns:xlink="http://www.w3.org/1999/xlink" width="64" height="64" viewBox="0 0 64 64" version="1.1">
<defs>
<linearGradient id="linear0" gradientUnits="userSpaceOnUse" x1="0" y1="0" x2="0" y2="1" gradientTransform="matrix(47.90625,0,0,56,8.046875,4)">
<stop offset="0" style="stop-color:#ff6666;stop-opacity:1;"/>
<stop offset="1" style="stop-color:#d90000;stop-opacity:1;"/>
</linearGradient>
</defs>
<g id="surface1">
<path style=" stroke:none;fill-rule:evenodd;fill:url(#linear0);" d="M 55.953125 25.007812 L 55.953125 38.535156 C 55.953125 40.449219 54.433594 41.996094 52.546875 41.996094 C 50.671875 41.996094 49.148438 40.445312 49.148438 38.535156 L 49.148438 25.007812 C 49.148438 23.097656 50.660156 21.546875 52.546875 21.546875 C 54.433594 21.546875 55.953125 23.101562 55.953125 25.007812 Z M 11.445312 21.546875 C 9.566406 21.546875 8.046875 23.101562 8.046875 25.007812 L 8.046875 38.527344 C 8.046875 40.441406 9.566406 41.996094 11.445312 41.996094 C 13.339844 41.996094 14.851562 40.441406 14.851562 38.527344 L 14.851562 25.007812 C 14.859375 24.097656 14.507812 23.21875 13.867188 22.566406 C 13.226562 21.921875 12.355469 21.550781 11.445312 21.546875 Z M 16.902344 46.351562 C 16.902344 47.828125 18.101562 49.011719 19.5625 49.011719 L 22.605469 49.011719 L 22.605469 56.542969 C 22.605469 58.453125 24.132812 60 26.007812 60 C 27.894531 60 29.414062 58.453125 29.414062 56.542969 L 29.414062 49.011719 L 34.714844 49.011719 L 34.714844 56.542969 C 34.714844 58.453125 36.246094 60 38.125 60 C 40.011719 60 41.53125 58.453125 41.53125 56.542969 L 41.53125 49.011719 L 44.570312 49.011719 C 45.277344 49.011719 45.953125 48.734375 46.449219 48.234375 C 46.949219 47.738281 47.226562 47.0625 47.226562 46.359375 L 47.226562 21.648438 L 16.902344 21.648438 Z M 47.152344 19.457031 L 16.839844 19.457031 C 17.234375 14.851562 20.355469 10.925781 24.816406 8.851562 L 22.015625 4.785156 C 21.84375 4.542969 21.882812 4.222656 22.097656 4.070312 C 22.316406 3.933594 22.628906 4 22.804688 4.238281 L 25.707031 8.464844 C 27.710938 7.679688 29.847656 7.28125 32 7.289062 C 34.152344 7.285156 36.289062 7.683594 38.292969 8.464844 L 41.195312 4.242188 C 41.371094 4 41.683594 3.933594 41.902344 4.070312 C 42.113281 4.222656 42.15625 4.542969 41.988281 4.78125 L 39.183594 8.851562 C 43.636719 10.925781 46.769531 14.851562 47.15625 19.457031 Z M 27.289062 13.574219 C 27.285156 13.132812 27.109375 12.703125 26.792969 12.390625 C 26.476562 12.078125 26.050781 11.902344 25.609375 11.90625 C 24.683594 11.902344 23.933594 12.648438 23.925781 13.570312 C 23.925781 14.503906 24.675781 15.257812 25.609375 15.257812 C 26.535156 15.257812 27.289062 14.503906 27.289062 13.570312 Z M 40.28125 13.574219 C 40.28125 13.132812 40.105469 12.703125 39.789062 12.390625 C 39.472656 12.078125 39.046875 11.902344 38.605469 11.90625 C 37.925781 11.90625 37.3125 12.316406 37.050781 12.945312 C 36.792969 13.570312 36.941406 14.292969 37.421875 14.773438 C 37.898438 15.253906 38.625 15.390625 39.246094 15.128906 C 39.875 14.863281 40.28125 14.253906 40.277344 13.570312 Z M 40.28125 13.574219 "/>
</g>
</svg>
