<svg xmlns="http://www.w3.org/2000/svg" xmlns:xlink="http://www.w3.org/1999/xlink" width="64" height="64" viewBox="0 0 64 64" version="1.1">
<defs> <linearGradient id="linear0" gradientUnits="userSpaceOnUse" x1="0" y1="0" x2="0" y2="1" gradientTransform="matrix(55.992188,0,0,56,4.003906,4)"> <stop offset="0" style="stop-color:#ff6666;stop-opacity:1;"/> <stop offset="1" style="stop-color:#d90000;stop-opacity:1;"/> </linearGradient> </defs>
<g id="surface1">
<path style=" stroke:none;fill-rule:nonzero;fill:url(#linear0);fill-opacity:1;" d="M 17.277344 13.691406 C 17.21875 13.691406 17.148438 13.703125 17.085938 13.726562 C 16.75 13.839844 16.570312 14.207031 16.683594 14.539062 L 17.613281 17.28125 L 18.027344 18.503906 L 18.449219 19.742188 C 12.484375 20.789062 7.652344 24.488281 6.214844 29.816406 L 41.175781 39.144531 C 42.613281 33.820312 40.277344 28.203125 35.640625 24.328125 L 36.628906 23.46875 L 37.597656 22.617188 L 39.785156 20.703125 C 40.050781 20.472656 40.074219 20.070312 39.84375 19.800781 C 39.601562 19.535156 39.199219 19.503906 38.925781 19.738281 L 36.585938 21.785156 L 35.605469 22.648438 L 34.605469 23.519531 C 32.585938 22.050781 30.199219 20.890625 27.542969 20.179688 C 24.890625 19.472656 22.242188 19.289062 19.75 19.554688 L 19.324219 18.304688 L 18.910156 17.066406 L 17.910156 14.132812 C 17.839844 13.921875 17.671875 13.769531 17.464844 13.714844 C 17.410156 13.703125 17.347656 13.691406 17.277344 13.691406 M 17.964844 23.71875 C 18.160156 23.707031 18.351562 23.722656 18.546875 23.78125 C 19.578125 24.050781 20.191406 25.117188 19.914062 26.144531 C 19.640625 27.179688 18.578125 27.785156 17.546875 27.507812 C 16.511719 27.234375 15.894531 26.179688 16.167969 25.148438 C 16.394531 24.3125 17.144531 23.746094 17.964844 23.71875 M 50.355469 25.484375 C 48.707031 25.546875 47.21875 26.664062 46.765625 28.34375 L 42.472656 44.304688 C 41.921875 46.363281 43.148438 48.476562 45.214844 49.03125 C 47.28125 49.582031 49.410156 48.359375 49.960938 46.300781 L 54.253906 30.339844 C 54.8125 28.277344 53.589844 26.160156 51.523438 25.613281 C 51.132812 25.511719 50.738281 25.464844 50.359375 25.484375 M 32.953125 27.71875 C 33.140625 27.710938 33.339844 27.726562 33.539062 27.777344 C 34.570312 28.054688 35.179688 29.121094 34.90625 30.148438 C 34.628906 31.179688 33.566406 31.789062 32.53125 31.511719 C 31.5 31.234375 30.878906 30.175781 31.160156 29.148438 C 31.378906 28.3125 32.125 27.75 32.953125 27.71875 M -1.851562 30.511719 C -3.503906 30.578125 -5 31.699219 -5.449219 33.371094 L -7.304688 40.277344 C -6.363281 44.519531 -4.738281 48.5 -2.546875 52.109375 C -2.421875 51.867188 -2.320312 51.609375 -2.246094 51.332031 L 2.046875 35.375 C 2.597656 33.316406 1.371094 31.195312 -0.695312 30.640625 C -1.082031 30.539062 -1.472656 30.492188 -1.851562 30.511719 M 5.550781 32.308594 L 4.71875 35.414062 L 4.035156 37.941406 L -0.570312 55.054688 C 6.671875 64.882812 18.347656 71.261719 31.523438 71.261719 L 31.574219 71.261719 C 32.316406 70.730469 32.898438 69.953125 33.152344 69 L 39 47.273438 L 39.675781 44.746094 L 40.511719 41.640625 L 40.246094 41.566406 L 5.820312 32.382812 L 5.550781 32.308594 "/>
</g>
</svg>
