<svg xmlns="http://www.w3.org/2000/svg" xmlns:xlink="http://www.w3.org/1999/xlink" width="64" height="64" viewBox="0 0 64 64" version="1.1">
<defs>
<linearGradient id="linear0" gradientUnits="userSpaceOnUse" x1="0" y1="0" x2="0" y2="1" gradientTransform="matrix(56,0,0,64,4,0)">
<stop offset="0" style="stop-color:#ff6666;stop-opacity:1;"/>
<stop offset="1" style="stop-color:#d90000;stop-opacity:1;"/>
</linearGradient>
</defs>
<g id="surface1">
<path style=" stroke:none;fill-rule:nonzero;fill:url(#linear0);" d="M 10.226562 27.417969 C 8.808594 27.003906 4 30.464844 4 30.464844 C 6.550781 21.214844 22.675781 12.183594 22.675781 12.183594 C 21.117188 11.621094 13.339844 12.183594 13.339844 12.183594 C 24.820312 1.253906 41.351562 6.09375 41.351562 6.09375 C 41.773438 3.707031 47.578125 0 47.578125 0 C 46.867188 0.695312 47.578125 4.570312 47.578125 4.570312 C 48.285156 3.304688 50.691406 3.046875 50.691406 3.046875 C 49.414062 5.988281 49.496094 11.914062 49.496094 11.914062 C 53.179688 15.5625 57.292969 28.183594 57.292969 28.183594 L 58.855469 30.425781 C 60.839844 33.234375 60.03125 37.636719 58.066406 38.683594 C 52.554688 41.910156 50.0625 35.476562 50.0625 35.476562 C 43.96875 34.777344 38.238281 27.417969 38.238281 27.417969 C 30.496094 31.699219 39.257812 45.289062 42.804688 49.84375 C 47.363281 55.6875 41.351562 63.972656 41.351562 63.972656 C 41.351562 63.972656 25.789062 65.046875 14.128906 53.316406 C 8.386719 47.292969 4 40.566406 10.222656 27.414062 Z M 10.226562 27.417969 "/>
</g>
</svg>
