<svg xmlns="http://www.w3.org/2000/svg" xmlns:xlink="http://www.w3.org/1999/xlink" width="64" height="64" viewBox="0 0 64 64" version="1.1">
<defs>
<linearGradient id="linear0" gradientUnits="userSpaceOnUse" x1="0" y1="0" x2="0" y2="1" gradientTransform="matrix(47.359375,0,0,56,8.320312,4)">
<stop offset="0" style="stop-color:#ff6666;stop-opacity:1;"/>
<stop offset="1" style="stop-color:#d90000;stop-opacity:1;"/>
</linearGradient>
</defs>
<g id="surface1">
<path style=" stroke:none;fill-rule:evenodd;fill:url(#linear0);" d="M 25.691406 21.226562 C 22.960938 21.609375 22.597656 31.542969 20.605469 33.464844 C 18.613281 35.378906 8.828125 35.296875 8.339844 38.03125 C 7.851562 40.757812 17.039062 44.195312 18.253906 46.707031 C 19.457031 49.207031 16.355469 58.542969 18.789062 59.851562 C 21.226562 61.164062 27.328125 53.386719 30.058594 53.011719 C 32.796875 52.632812 40.703125 58.488281 42.6875 56.566406 C 44.691406 54.648438 39.203125 46.433594 39.691406 43.695312 C 40.179688 40.957031 48.164062 35.238281 46.960938 32.753906 C 45.757812 30.253906 36.3125 32.964844 33.878906 31.648438 C 31.441406 30.335938 28.4375 20.859375 25.691406 21.253906 M 49.277344 4.042969 C 47.871094 4.433594 45.515625 7.535156 44.320312 7.765625 C 42.949219 8.023438 38.859375 5.324219 37.90625 6.324219 C 36.964844 7.335938 39.960938 11.289062 39.792969 12.660156 C 39.617188 14.019531 35.703125 17.109375 36.375 18.3125 C 37.050781 19.507812 41.78125 17.898438 43.03125 18.480469 C 44.296875 19.058594 46.027344 23.628906 47.386719 23.367188 C 48.753906 23.109375 48.660156 18.21875 49.609375 17.210938 C 50.558594 16.207031 55.507812 15.96875 55.675781 14.597656 C 55.84375 13.230469 51.140625 11.835938 50.460938 10.632812 C 49.785156 9.429688 51.039062 4.625 49.777344 4.042969 C 49.628906 3.976562 49.464844 3.996094 49.265625 4.042969 "/>
</g>
</svg>
