<svg xmlns="http://www.w3.org/2000/svg" xmlns:xlink="http://www.w3.org/1999/xlink" width="64" height="64" viewBox="0 0 64 64" version="1.1">
<defs>
<linearGradient id="linear0" gradientUnits="userSpaceOnUse" x1="0" y1="0" x2="0" y2="1" gradientTransform="matrix(64,0,0,61.546875,0,1.226562)">
<stop offset="0" style="stop-color:#ff6666;stop-opacity:1;"/>
<stop offset="1" style="stop-color:#d90000;stop-opacity:1;"/>
</linearGradient>
</defs>
<g id="surface1">
<path style=" stroke:none;fill-rule:nonzero;fill:url(#linear0);" d="M 19.414062 1.246094 C 18.777344 1.332031 18.195312 1.664062 17.800781 2.171875 L 9.421875 12.699219 L 3.882812 9.011719 C 3.144531 8.511719 2.191406 8.449219 1.390625 8.84375 C 0.589844 9.238281 0.0585938 10.035156 0.00390625 10.929688 C -0.0507812 11.816406 0.375 12.671875 1.121094 13.164062 L 8.5 18.085938 C 9.570312 18.796875 11.015625 18.5625 11.804688 17.542969 L 21.644531 5.242188 C 22.289062 4.464844 22.382812 3.367188 21.890625 2.488281 C 21.398438 1.605469 20.414062 1.113281 19.414062 1.246094 Z M 29.558594 8.628906 L 29.558594 13.546875 L 64 13.546875 L 64 8.628906 Z M 19.414062 23.386719 C 18.777344 23.472656 18.195312 23.804688 17.800781 24.308594 L 9.421875 34.839844 L 3.882812 31.152344 C 2.738281 30.386719 1.1875 30.695312 0.425781 31.84375 C -0.339844 32.988281 -0.0273438 34.539062 1.117188 35.304688 L 8.496094 40.222656 C 9.570312 40.9375 11.011719 40.699219 11.804688 39.683594 L 21.644531 27.382812 C 22.285156 26.605469 22.378906 25.507812 21.886719 24.628906 C 21.394531 23.742188 20.414062 23.253906 19.414062 23.386719 Z M 29.558594 30.769531 L 29.558594 35.6875 L 64 35.6875 L 64 30.769531 Z M 19.414062 45.527344 C 18.777344 45.613281 18.195312 45.941406 17.800781 46.449219 L 9.421875 56.980469 L 3.882812 53.289062 C 3.144531 52.796875 2.195312 52.734375 1.394531 53.128906 C 0.597656 53.523438 0.0664062 54.316406 0.0117188 55.203125 C -0.0429688 56.097656 0.375 56.949219 1.117188 57.441406 L 8.496094 62.359375 C 9.570312 63.074219 11.011719 62.839844 11.804688 61.824219 L 21.644531 49.523438 C 22.285156 48.742188 22.378906 47.648438 21.886719 46.769531 C 21.394531 45.882812 20.414062 45.390625 19.414062 45.527344 Z M 29.558594 52.902344 L 29.558594 57.824219 L 64 57.824219 L 64 52.902344 Z M 29.558594 52.902344 "/>
</g>
</svg>
