<svg xmlns="http://www.w3.org/2000/svg" xmlns:xlink="http://www.w3.org/1999/xlink" width="64" height="64" viewBox="0 0 64 64" version="1.1">
<defs>
<linearGradient id="linear0" gradientUnits="userSpaceOnUse" x1="0" y1="0" x2="0" y2="1" gradientTransform="matrix(64,0,0,48.550781,0,7.722656)">
<stop offset="0" style="stop-color:#ff6666;stop-opacity:1;"/>
<stop offset="1" style="stop-color:#d90000;stop-opacity:1;"/>
</linearGradient>
</defs>
<g id="surface1">
<path style=" stroke:none;fill-rule:evenodd;fill:url(#linear0);" d="M 32 13.378906 L 27.769531 9.148438 C 26.820312 8.199219 25.546875 7.722656 24.277344 7.722656 C 23.003906 7.722656 21.730469 8.199219 20.78125 9.148438 L 1.425781 28.507812 C -0.476562 30.40625 -0.472656 33.589844 1.429688 35.492188 L 20.785156 54.847656 C 22.683594 56.746094 25.867188 56.753906 27.769531 54.851562 L 32.003906 50.621094 L 36.230469 54.847656 C 38.132812 56.746094 41.316406 56.753906 43.21875 54.851562 L 62.570312 35.492188 C 64.476562 33.59375 64.476562 30.40625 62.570312 28.507812 L 43.21875 9.148438 C 42.269531 8.199219 40.996094 7.722656 39.722656 7.722656 C 38.453125 7.722656 37.179688 8.199219 36.226562 9.148438 Z M 29.167969 16.207031 L 24.960938 12 C 24.761719 11.800781 24.519531 11.71875 24.28125 11.71875 C 24.039062 11.71875 23.761719 11.800781 23.601562 12 L 4.28125 31.320312 C 4.078125 31.519531 4 31.761719 4 32 C 4 32.238281 4.078125 32.480469 4.28125 32.679688 L 23.601562 52 C 23.800781 52.199219 24.039062 52.28125 24.28125 52.28125 C 24.519531 52.28125 24.761719 52.199219 24.960938 52 L 29.171875 47.789062 L 16.875 35.492188 C 14.976562 33.589844 14.972656 30.40625 16.871094 28.507812 Z M 29.167969 16.207031 "/>
</g>
</svg>
