<svg xmlns="http://www.w3.org/2000/svg" xmlns:xlink="http://www.w3.org/1999/xlink" width="64" height="64" viewBox="0 0 64 64" version="1.1">
<defs>
<linearGradient id="linear0" gradientUnits="userSpaceOnUse" x1="0" y1="0" x2="0" y2="1" gradientTransform="matrix(74.65625,0,0,74.666667,5.338541,5.333333)">
<stop offset="0" style="stop-color:#ff6666;stop-opacity:1;"/>
<stop offset="1" style="stop-color:#d90000;stop-opacity:1;"/>
</linearGradient>
</defs>
<g id="surface1">
<path style=" stroke:none;fill-rule:nonzero;fill:url(#linear0);" d="M 50.765625 1.515625 C 46.144531 1.652344 41.550781 4.113281 37.195312 7.394531 C 31.382812 11.765625 25.625 17.824219 19.976562 23.347656 C 19.03125 24.273438 19.011719 25.792969 19.9375 26.742188 C 20.863281 27.691406 22.382812 27.707031 23.332031 26.78125 C 29.0625 21.175781 34.765625 15.226562 40.078125 11.230469 C 45.011719 7.515625 49.269531 5.804688 52.964844 6.628906 C 54.476562 9.15625 55.101562 11.5 53.371094 15.1875 C 51.515625 19.140625 46.53125 24.632812 36.699219 31.746094 C 34.429688 31.003906 32.507812 30.777344 30.980469 31.320312 C 29.730469 31.765625 29.078125 33.136719 29.523438 34.386719 C 29.964844 35.632812 31.335938 36.289062 32.585938 35.84375 C 32.585938 35.84375 33.992188 35.609375 36.277344 36.578125 C 37.042969 36.902344 37.925781 36.804688 38.605469 36.324219 C 49.414062 28.640625 55.164062 22.660156 57.714844 17.226562 C 60.265625 11.792969 59.074219 6.847656 56.605469 3.148438 C 56.3125 2.710938 55.886719 2.382812 55.390625 2.210938 C 53.851562 1.683594 52.304688 1.46875 50.765625 1.515625 Z M 49.746094 9.316406 C 49.339844 9.3125 48.9375 9.414062 48.582031 9.613281 C 32.585938 18.410156 13.421875 36.746094 5.015625 59.25 C 4.550781 60.492188 5.179688 61.875 6.421875 62.339844 C 7.664062 62.800781 9.046875 62.171875 9.511719 60.929688 C 17.375 39.890625 35.972656 22.023438 50.894531 13.816406 C 52.054688 13.179688 52.480469 11.722656 51.84375 10.558594 C 51.421875 9.792969 50.617188 9.316406 49.746094 9.316406 Z M 15.1875 26.78125 C 14.144531 26.8125 13.246094 27.511719 12.953125 28.511719 C 12.582031 29.789062 12.148438 31.980469 11.757812 34.265625 C 11.53125 35.570312 12.410156 36.8125 13.714844 37.035156 C 15.019531 37.261719 16.261719 36.382812 16.484375 35.074219 C 16.859375 32.894531 17.347656 30.582031 17.5625 29.851562 C 17.929688 28.578125 17.199219 27.25 15.929688 26.878906 C 15.6875 26.808594 15.4375 26.773438 15.1875 26.78125 Z M 31.296875 37.824219 C 30.992188 37.832031 30.691406 37.898438 30.414062 38.019531 C 27.863281 39.113281 26.777344 39.199219 23.828125 39.949219 C 22.542969 40.273438 21.765625 41.582031 22.09375 42.867188 C 22.421875 44.152344 23.726562 44.925781 25.011719 44.601562 C 27.757812 43.902344 29.367188 43.691406 32.308594 42.425781 C 33.527344 41.902344 34.089844 40.492188 33.566406 39.273438 C 33.179688 38.371094 32.28125 37.796875 31.296875 37.824219 Z M 31.296875 37.824219 "/>
</g>
</svg>
