<svg xmlns="http://www.w3.org/2000/svg" xmlns:xlink="http://www.w3.org/1999/xlink" width="64" height="64" viewBox="0 0 64 64" version="1.1">
<defs>
<linearGradient id="linear0" gradientUnits="userSpaceOnUse" x1="0" y1="0" x2="0" y2="1" gradientTransform="matrix(56,0,0,51.695312,4,6.152344)">
<stop offset="0" style="stop-color:#ff6666;stop-opacity:1;"/>
<stop offset="1" style="stop-color:#d90000;stop-opacity:1;"/>
</linearGradient>
</defs>
<g id="surface1">
<path style=" stroke:none;fill-rule:nonzero;fill:url(#linear0);" d="M 41.707031 9.425781 C 43.238281 11.46875 44.203125 13.898438 44.503906 16.464844 C 44.515625 16.554688 44.527344 16.644531 44.535156 16.734375 C 44.535156 16.742188 44.535156 16.746094 44.535156 16.753906 C 44.542969 16.847656 44.554688 16.941406 44.558594 17.035156 L 44.558594 17.082031 C 44.566406 17.175781 44.570312 17.265625 44.578125 17.359375 C 44.582031 17.449219 44.585938 17.546875 44.589844 17.636719 C 44.589844 17.703125 44.589844 17.769531 44.597656 17.835938 C 44.59375 17.84375 44.59375 17.855469 44.597656 17.867188 L 44.597656 18.203125 C 44.601562 21.132812 43.730469 23.992188 42.109375 26.398438 C 42.289062 27.269531 42.378906 28.160156 42.378906 29.054688 C 42.378906 29.65625 42.339844 30.253906 42.257812 30.851562 C 43.042969 30.660156 43.808594 30.386719 44.539062 30.035156 C 45.085938 29.777344 45.613281 29.480469 46.113281 29.140625 C 46.214844 29.511719 46.304688 29.886719 46.371094 30.269531 C 46.519531 31.066406 46.589844 31.871094 46.589844 32.679688 C 46.589844 33.324219 46.546875 33.964844 46.453125 34.601562 C 47.539062 34.484375 48.601562 34.21875 49.617188 33.808594 C 50.152344 33.59375 50.671875 33.34375 51.171875 33.054688 C 51.246094 33.484375 51.296875 33.921875 51.328125 34.359375 C 51.351562 34.675781 51.363281 34.996094 51.363281 35.320312 C 51.363281 36.207031 51.277344 37.085938 51.101562 37.953125 C 52.378906 37.898438 53.640625 37.636719 54.84375 37.179688 C 55.703125 34.800781 56.140625 32.277344 56.140625 29.734375 C 56.148438 29.175781 56.132812 28.625 56.09375 28.082031 C 55.972656 26.460938 55.671875 24.855469 55.199219 23.304688 C 55.007812 23.832031 54.769531 24.335938 54.484375 24.8125 C 54.113281 22.28125 53.253906 19.851562 51.957031 17.667969 C 50.660156 15.484375 48.949219 13.59375 46.929688 12.109375 C 45.53125 11.074219 43.996094 10.246094 42.371094 9.652344 C 42.152344 9.570312 41.929688 9.496094 41.707031 9.425781 Z M 23.105469 9.449219 C 21.214844 10.339844 19.445312 11.476562 17.835938 12.835938 C 13.765625 16.277344 10.902344 21.003906 9.691406 26.289062 C 9.261719 28.164062 9.042969 30.082031 9.046875 32.007812 C 9.039062 36.152344 10.046875 40.234375 11.96875 43.875 C 12.101562 42.679688 12.394531 41.507812 12.84375 40.398438 C 14.292969 44.019531 16.59375 47.214844 19.535156 49.691406 C 22.476562 52.167969 25.964844 53.847656 29.6875 54.585938 C 29.050781 53.722656 28.519531 52.78125 28.113281 51.78125 C 30.097656 52.445312 32.160156 52.808594 34.246094 52.859375 C 34.429688 52.859375 34.617188 52.867188 34.800781 52.867188 C 38.113281 52.875 41.382812 52.089844 44.351562 50.578125 C 43.859375 50.289062 43.382812 49.96875 42.933594 49.609375 C 46.230469 48.304688 49.148438 46.140625 51.410156 43.332031 C 52.457031 42.03125 53.347656 40.609375 54.070312 39.089844 C 52.949219 39.511719 51.773438 39.761719 50.582031 39.832031 C 50.332031 39.851562 50.074219 39.859375 49.820312 39.859375 L 49.566406 39.859375 C 49.722656 39.230469 49.828125 38.589844 49.890625 37.945312 C 49.929688 37.527344 49.953125 37.105469 49.953125 36.675781 C 49.953125 36.199219 49.925781 35.722656 49.875 35.25 C 48.675781 35.863281 47.382812 36.269531 46.058594 36.453125 C 45.6875 36.503906 45.316406 36.539062 44.9375 36.554688 C 45.058594 35.933594 45.132812 35.304688 45.160156 34.675781 C 45.171875 34.464844 45.175781 34.25 45.175781 34.039062 C 45.175781 33.132812 45.082031 32.226562 44.898438 31.335938 C 43.957031 31.910156 42.949219 32.347656 41.898438 32.644531 C 41.519531 32.753906 41.128906 32.84375 40.738281 32.914062 L 40.726562 32.898438 C 40.839844 32.304688 40.917969 31.703125 40.949219 31.101562 C 40.960938 30.875 40.964844 30.648438 40.964844 30.414062 C 40.964844 29.644531 40.898438 28.878906 40.765625 28.125 C 39.46875 29.527344 37.914062 30.644531 36.1875 31.40625 C 34.460938 32.171875 32.601562 32.5625 30.722656 32.558594 C 28.507812 32.5625 26.320312 32.015625 24.351562 30.964844 C 25.246094 30.605469 26.101562 30.136719 26.890625 29.574219 C 24.789062 28.53125 23.019531 26.898438 21.777344 24.859375 C 20.539062 22.820312 19.878906 20.460938 19.878906 18.050781 C 19.878906 17.28125 19.949219 16.511719 20.082031 15.75 C 20.214844 15 20.410156 14.261719 20.671875 13.546875 C 20.929688 12.839844 21.25 12.160156 21.625 11.511719 C 22.046875 10.773438 22.546875 10.085938 23.105469 9.453125 Z M 23.105469 9.449219 "/>
</g>
</svg>
