<svg xmlns="http://www.w3.org/2000/svg" xmlns:xlink="http://www.w3.org/1999/xlink" width="64" height="64" viewBox="0 0 64 64" version="1.1">
<defs>
<linearGradient id="linear0" gradientUnits="userSpaceOnUse" x1="0" y1="0" x2="0" y2="1" gradientTransform="matrix(64,0,0,56.890625,0,3.554688)">
<stop offset="0" style="stop-color:#ff6666;stop-opacity:1;"/>
<stop offset="1" style="stop-color:#d90000;stop-opacity:1;"/>
</linearGradient>
</defs>
<g id="surface1">
<path style=" stroke:none;fill-rule:evenodd;fill:url(#linear0);" d="M 0 3.554688 L 16.789062 3.554688 L 16.789062 20.339844 L 0 20.339844 Z M 23.710938 3.660156 L 40.5 3.660156 L 40.5 20.445312 L 23.710938 20.445312 Z M 47.210938 3.660156 L 64 3.660156 L 64 20.445312 L 47.210938 20.445312 Z M 0 23.554688 L 16.789062 23.554688 L 16.789062 40.339844 L 0 40.339844 Z M 23.710938 23.660156 L 40.5 23.660156 L 40.5 40.445312 L 23.710938 40.445312 Z M 47.210938 23.660156 L 64 23.660156 L 64 40.445312 L 47.210938 40.445312 Z M 0 43.554688 L 16.789062 43.554688 L 16.789062 60.339844 L 0 60.339844 Z M 23.710938 43.660156 L 40.5 43.660156 L 40.5 60.445312 L 23.710938 60.445312 Z M 47.210938 43.660156 L 64 43.660156 L 64 60.445312 L 47.210938 60.445312 Z M 47.210938 43.660156 "/>
</g>
</svg>
