<svg xmlns="http://www.w3.org/2000/svg" xmlns:xlink="http://www.w3.org/1999/xlink" width="64" height="64" viewBox="0 0 64 64" version="1.1">
<defs>
<linearGradient id="linear0" gradientUnits="userSpaceOnUse" x1="0" y1="0" x2="0" y2="1" gradientTransform="matrix(64,0,0,52,-0.125,6)">
<stop offset="0" style="stop-color:#ff6666;stop-opacity:1;"/>
<stop offset="1" style="stop-color:#d90000;stop-opacity:1;"/>
</linearGradient>
</defs>
<g id="surface1">
<path style=" stroke:none;fill-rule:evenodd;fill:url(#linear0);" d="M 11.839844 27.808594 L 20.800781 27.808594 L 17.398438 18.847656 C 16.875 17.535156 16.515625 16.503906 16.320312 15.746094 C 16.121094 16.503906 15.761719 17.535156 15.234375 18.847656 Z M 51.519531 41.542969 C 48.925781 41.542969 46.660156 41.027344 44.722656 39.992188 C 42.789062 38.960938 41.277344 37.566406 40.195312 35.808594 C 39.113281 34.054688 38.316406 32.175781 37.808594 30.171875 C 37.296875 28.167969 37.042969 26.035156 37.042969 23.773438 C 37.042969 21.671875 37.308594 19.628906 37.832031 17.644531 C 38.355469 15.65625 39.160156 13.769531 40.242188 11.980469 C 41.328125 10.191406 42.835938 8.75 44.773438 7.648438 C 46.710938 6.550781 48.960938 6 51.519531 6 C 54.601562 6 57.203125 6.753906 59.320312 8.265625 C 61.4375 9.773438 62.9375 11.613281 63.824219 13.78125 L 57.867188 16.488281 C 56.949219 15.074219 56.015625 14.039062 55.0625 13.382812 C 54.113281 12.726562 52.929688 12.398438 51.519531 12.398438 C 49.714844 12.398438 48.210938 13.015625 47.011719 14.246094 C 45.816406 15.476562 45.003906 16.902344 44.574219 18.527344 C 44.148438 20.15625 43.9375 21.902344 43.9375 23.773438 C 43.9375 26.757812 44.585938 29.402344 45.878906 31.699219 C 47.175781 33.996094 49.054688 35.144531 51.519531 35.144531 C 53.914062 35.144531 56 33.667969 57.773438 30.710938 L 63.875 33.027344 C 61.316406 38.707031 57.199219 41.542969 51.519531 41.542969 Z M 32.761719 41.003906 L 25.625 41.003906 L 22.964844 33.863281 L 9.671875 33.863281 L 7.011719 41.003906 L -0.125 41.003906 L 13.066406 6.539062 L 19.566406 6.539062 Z M -0.125 50 L 63.875 50 L 63.875 58 L -0.125 58 Z M -0.125 50 "/>
</g>
</svg>
