<svg xmlns="http://www.w3.org/2000/svg" xmlns:xlink="http://www.w3.org/1999/xlink" width="64" height="64" viewBox="0 0 64 64" version="1.1">
<defs>
<linearGradient id="linear0" gradientUnits="userSpaceOnUse" x1="0" y1="0" x2="0" y2="1" gradientTransform="matrix(64,0,0,61.03125,0,1.484375)">
<stop offset="0" style="stop-color:#ff6666;stop-opacity:1;"/>
<stop offset="1" style="stop-color:#d90000;stop-opacity:1;"/>
</linearGradient>
</defs>
<g id="surface1">
<path style=" stroke:none;fill-rule:nonzero;fill:url(#linear0);" d="M 58.664062 62.480469 C 58.066406 62.390625 57.558594 62.125 57.148438 61.683594 C 56.242188 60.714844 54.753906 57.859375 53.53125 54.75 C 52.847656 53.007812 51.53125 49.167969 51.53125 48.902344 C 51.53125 48.820312 52.398438 48.25 53.457031 47.632812 L 55.382812 46.511719 L 55.683594 46.792969 C 56.882812 47.917969 60.324219 53.0625 62.332031 56.722656 C 63.136719 58.1875 63.214844 58.398438 63.214844 59 C 63.207031 59.804688 62.957031 60.367188 62.238281 61.164062 C 61.382812 62.117188 59.902344 62.660156 58.664062 62.480469 Z M 1.441406 61.523438 C 1.476562 61.425781 2.0625 58.78125 2.742188 55.648438 C 3.421875 52.519531 3.992188 49.9375 4.011719 49.914062 C 4.074219 49.835938 10.226562 54.152344 10.222656 54.269531 C 10.222656 54.335938 8.445312 55.867188 6.273438 57.667969 C 1.378906 61.726562 1.359375 61.742188 1.441406 61.523438 Z M 7.957031 50.472656 C 6.242188 49.289062 4.851562 48.269531 4.867188 48.207031 C 4.910156 48.0625 19.636719 23.132812 19.757812 23.003906 C 19.824219 22.933594 26.261719 26.980469 26.5625 27.28125 C 26.625 27.347656 11.3125 52.574219 11.191406 52.601562 C 11.125 52.617188 9.671875 51.660156 7.957031 50.472656 Z M 48.375 43.886719 C 47.203125 41.90625 46.257812 40.269531 46.277344 40.257812 C 46.488281 40.109375 50.941406 37.546875 50.988281 37.546875 C 51.0625 37.546875 54.800781 44.996094 54.746094 45.03125 C 54.265625 45.367188 50.695312 47.496094 50.621094 47.492188 C 50.5625 47.492188 49.550781 45.867188 48.375 43.886719 Z M 0.046875 43.511719 C 0.00390625 43.167969 -0.0117188 40.375 0.0078125 37.3125 L 0.0429688 31.742188 L 6.21875 31.78125 C 9.613281 31.800781 12.40625 31.832031 12.421875 31.847656 C 12.441406 31.863281 10.804688 34.636719 8.792969 38.011719 L 5.128906 44.144531 L 0.121094 44.144531 Z M 18.566406 43.964844 C 18.566406 43.933594 20.242188 41.152344 22.292969 37.789062 L 26.019531 31.675781 L 39.246094 31.675781 L 42.78125 37.5625 C 44.726562 40.800781 46.386719 43.578125 46.472656 43.738281 L 46.625 44.023438 L 32.59375 44.023438 C 24.878906 44.023438 18.566406 43.996094 18.566406 43.964844 Z M 54.65625 41.355469 C 53.941406 39.886719 52.601562 37.136719 51.675781 35.242188 L 49.992188 31.792969 L 54.570312 31.792969 C 57.085938 31.792969 60.238281 31.757812 61.574219 31.714844 L 64 31.636719 L 64 44.023438 L 55.949219 44.023438 Z M 44.4375 37.398438 C 41.726562 33.128906 38.964844 28.109375 35.648438 21.425781 C 33.015625 16.121094 30.480469 10.636719 29.4375 7.980469 C 27.921875 4.128906 27.558594 1.738281 28.457031 1.511719 C 29.898438 1.152344 32.710938 4.417969 36.71875 11.097656 C 39.855469 16.328125 44.878906 25.472656 48.710938 32.933594 C 49.421875 34.316406 50.132812 35.675781 50.289062 35.949219 L 50.570312 36.445312 L 48.179688 37.835938 C 46.867188 38.601562 45.75 39.226562 45.695312 39.226562 C 45.640625 39.226562 45.074219 38.402344 44.4375 37.398438 Z M 23.6875 24.164062 L 20.355469 21.96875 L 20.671875 21.472656 C 20.84375 21.199219 21.714844 19.808594 22.609375 18.382812 C 23.503906 16.957031 24.246094 15.773438 24.265625 15.753906 C 24.28125 15.734375 25.78125 16.691406 27.597656 17.886719 L 30.898438 20.0625 L 30.410156 20.863281 C 30.136719 21.304688 29.324219 22.636719 28.601562 23.820312 C 27.878906 25.007812 27.226562 26.066406 27.152344 26.171875 C 27.035156 26.335938 26.558594 26.058594 23.6875 24.164062 Z M 27.9375 17.039062 C 26.210938 15.910156 24.800781 14.933594 24.800781 14.867188 C 24.800781 14.394531 26.226562 13.070312 26.929688 12.894531 C 28.085938 12.605469 29.984375 13.347656 31.039062 14.503906 C 31.855469 15.394531 32.035156 15.832031 31.960938 16.75 C 31.902344 17.4375 31.339844 19.085938 31.160156 19.085938 C 31.113281 19.085938 29.664062 18.164062 27.9375 17.039062 Z M 27.9375 17.039062 "/>
</g>
</svg>
