<svg xmlns="http://www.w3.org/2000/svg" xmlns:xlink="http://www.w3.org/1999/xlink" width="64px" height="64px" viewBox="0 0 64 64" version="1.1">
<defs>
<linearGradient id="linear0" gradientUnits="userSpaceOnUse" x1="0" y1="0" x2="0" y2="1" gradientTransform="matrix(56,0,0,56,4.125,4)">
<stop offset="0" style="stop-color:#ff6666;stop-opacity:1;"/>
<stop offset="1" style="stop-color:#d90000;stop-opacity:1;"/>
</linearGradient>
<linearGradient id="linear1" gradientUnits="userSpaceOnUse" x1="0" y1="0" x2="0" y2="1" gradientTransform="matrix(46.5,0,0,46.5,8.625,8.753906)">
<stop offset="0" style="stop-color:#ff6666;stop-opacity:1;"/>
<stop offset="1" style="stop-color:#d90000;stop-opacity:1;"/>
</linearGradient>
</defs>
<g id="surface1">
<path style=" stroke:none;fill-rule:nonzero;fill:url(#linear0);fill-opacity:1;" d="M 32.105469 8.648438 C 31.09375 8.644531 30.085938 8.863281 29.3125 9.304688 L 13.8125 18.160156 C 13.210938 18.503906 12.660156 19.039062 12.203125 19.667969 L 17.6875 22.867188 L 28.542969 29.195312 C 30.011719 30.054688 31.234375 31.511719 32 33.148438 C 32.769531 31.511719 33.988281 30.054688 35.460938 29.195312 L 51.78125 19.679688 C 51.355469 19.117188 50.851562 18.636719 50.3125 18.320312 L 34.890625 9.328125 C 34.121094 8.878906 33.113281 8.652344 32.105469 8.648438 Z M 52.644531 21.175781 L 47.179688 24.363281 L 36.335938 30.6875 C 34.53125 31.738281 32.867188 34.636719 32.863281 36.734375 C 32.863281 36.742188 32.863281 36.757812 32.863281 36.769531 L 32.863281 37.355469 L 32.917969 49.328125 L 32.945312 55.261719 C 33.582031 55.164062 34.1875 54.984375 34.6875 54.699219 L 50.1875 45.839844 C 51.734375 44.957031 52.992188 42.796875 53 41.019531 L 53.082031 23.167969 C 53.082031 22.53125 52.917969 21.839844 52.644531 21.179688 Z M 11.378906 21.1875 C 11.144531 21.789062 11.003906 22.402344 11 22.980469 L 10.917969 40.832031 C 10.914062 42.613281 12.152344 44.78125 13.6875 45.675781 L 21.398438 50.171875 L 29.109375 54.671875 C 29.664062 54.992188 30.339844 55.195312 31.054688 55.289062 L 31.082031 49.324219 L 31.136719 37.355469 L 31.136719 36.765625 C 31.136719 36.757812 31.136719 36.742188 31.136719 36.734375 C 31.132812 34.636719 29.46875 31.738281 27.664062 30.6875 L 16.820312 24.363281 Z M 11.378906 21.1875 "/>
<path style=" stroke:none;fill-rule:nonzero;fill:url(#linear1);fill-opacity:1;" d="M 32.078125 14.703125 C 31.332031 14.699219 30.582031 14.863281 30.011719 15.1875 L 24.265625 18.46875 L 18.527344 21.75 C 18.128906 21.976562 17.761719 22.320312 17.445312 22.726562 L 17.6875 22.867188 L 28.542969 29.195312 C 30.011719 30.054688 31.234375 31.511719 32 33.148438 C 32.769531 31.511719 33.988281 30.054688 35.460938 29.195312 L 46.3125 22.867188 L 46.539062 22.738281 C 46.25 22.382812 45.917969 22.074219 45.5625 21.867188 L 34.140625 15.207031 C 33.574219 14.875 32.828125 14.707031 32.078125 14.703125 Z M 47.386719 24.238281 L 47.179688 24.363281 L 36.335938 30.6875 C 34.53125 31.738281 32.867188 34.636719 32.863281 36.734375 C 32.863281 36.742188 32.863281 36.757812 32.863281 36.769531 L 32.863281 37.351562 L 32.917969 49.1875 C 33.308594 49.109375 33.679688 48.992188 33.992188 48.8125 L 45.472656 42.253906 C 46.617188 41.597656 47.550781 39.996094 47.558594 38.683594 L 47.585938 32.070312 L 47.613281 25.460938 C 47.617188 25.066406 47.53125 24.652344 47.386719 24.242188 Z M 16.628906 24.25 C 16.511719 24.613281 16.445312 24.976562 16.445312 25.316406 L 16.386719 38.539062 C 16.378906 39.859375 17.296875 41.46875 18.4375 42.132812 L 29.859375 48.792969 C 30.210938 49 30.636719 49.136719 31.085938 49.214844 L 31.136719 37.351562 L 31.136719 36.765625 C 31.136719 36.757812 31.136719 36.742188 31.136719 36.734375 C 31.136719 34.636719 29.472656 31.738281 27.667969 30.6875 L 16.820312 24.363281 Z M 16.628906 24.25 "/>
</g>
</svg>
