<svg xmlns="http://www.w3.org/2000/svg" xmlns:xlink="http://www.w3.org/1999/xlink" width="64" height="64" viewBox="0 0 64 64" version="1.1">
<defs> <linearGradient id="linear0" gradientUnits="userSpaceOnUse" x1="0" y1="0" x2="0" y2="1" gradientTransform="matrix(55.992188,0,0,56,4.003906,4)"> <stop offset="0" style="stop-color:#ff6666;stop-opacity:1;"/> <stop offset="1" style="stop-color:#d90000;stop-opacity:1;"/> </linearGradient> </defs>
<g id="surface1">
<path style=" stroke:none;fill-rule:nonzero;fill:url(#linear0);fill-opacity:1;" d="M 27.859375 2.082031 L 23.378906 13.238281 C 12.808594 15.269531 5.601562 21.347656 5.601562 28.230469 C 5.601562 32.371094 8.234375 36.347656 12.921875 39.289062 L 7.703125 52.289062 L 19.253906 52.289062 L 22.652344 43.078125 C 25.273438 43.636719 28.035156 43.917969 30.8125 43.917969 C 44.738281 43.917969 56.019531 36.894531 56.019531 28.230469 C 56.015625 24.410156 53.777344 20.722656 49.710938 17.855469 C 49.71875 17.824219 49.71875 17.796875 49.71875 17.769531 C 49.71875 16.039062 48.308594 14.628906 46.566406 14.628906 C 44.828125 14.628906 43.414062 16.039062 43.414062 17.769531 C 43.414062 19.503906 44.828125 20.90625 46.566406 20.90625 C 47.226562 20.90625 47.859375 20.703125 48.398438 20.324219 C 50.625 22.367188 51.820312 24.746094 51.820312 27.183594 C 51.820312 34.117188 42.414062 39.738281 30.8125 39.738281 C 28.535156 39.738281 26.273438 39.519531 24.117188 39.085938 L 30.8125 20.90625 L 36.769531 37.085938 C 40.132812 36.441406 43.054688 35.300781 45.230469 33.863281 C 45.5 33.683594 45.738281 33.503906 45.980469 33.316406 L 32.914062 2.082031 Z M 22.402344 15.683594 L 14.582031 35.152344 C 11.492188 32.910156 9.804688 30.09375 9.804688 27.183594 C 9.804688 22.195312 14.746094 17.679688 22.402344 15.683594 Z M 49.335938 41.335938 C 46.570312 42.992188 43.304688 44.257812 39.699219 45.054688 L 42.367188 52.289062 L 53.921875 52.289062 Z M 49.335938 41.335938 "/>
</g>
</svg>
