<svg xmlns="http://www.w3.org/2000/svg" xmlns:xlink="http://www.w3.org/1999/xlink" width="64" height="64" viewBox="0 0 64 64" version="1.1">
<defs>
<linearGradient id="linear0" gradientUnits="userSpaceOnUse" x1="0" y1="0" x2="0" y2="1" gradientTransform="matrix(64,0,0,48,0,8)">
<stop offset="0" style="stop-color:#ff6666;stop-opacity:1;"/>
<stop offset="1" style="stop-color:#d90000;stop-opacity:1;"/>
</linearGradient>
</defs>
<g id="surface1">
<path style=" stroke:none;fill-rule:nonzero;fill:url(#linear0);" d="M 19.960938 8 C 11.105469 8 -0.0976562 16.328125 0 29.195312 C 0.09375 41.648438 4.332031 48.375 7.53125 56 L 16.960938 52.117188 C 14.789062 47.730469 11.980469 43.351562 10.976562 41.179688 C 8.164062 35.101562 7.140625 32.382812 7.375 27.75 C 7.601562 23.269531 9.15625 20.539062 11.921875 17.898438 C 14.6875 15.257812 18.464844 13.910156 23.03125 14.53125 C 30.371094 15.535156 33.921875 19.9375 35.3125 23.539062 C 27.128906 24.457031 24.199219 30.21875 23.539062 35.664062 C 20.394531 34.582031 18.621094 32.070312 18.351562 28.398438 C 18.09375 24.882812 21.550781 21.347656 27.140625 23.140625 C 28.039062 23.429688 28.070312 21.832031 27.054688 21.023438 C 24.4375 18.945312 14.050781 19.738281 14.085938 27.90625 C 14.113281 34.308594 18.539062 38.902344 23.492188 40.195312 C 24.363281 47.480469 33.554688 56 44.039062 56 C 52.894531 56 64.097656 47.671875 64 34.804688 C 63.90625 22.351562 59.667969 15.625 56.46875 8 L 47.039062 11.882812 C 49.210938 16.269531 52.019531 20.648438 53.023438 22.820312 C 55.835938 28.898438 56.859375 31.617188 56.625 36.25 C 56.398438 40.730469 54.84375 43.460938 52.078125 46.101562 C 49.3125 48.742188 45.535156 50.089844 40.96875 49.46875 C 33.621094 48.464844 30.074219 44.0625 28.6875 40.460938 C 36.871094 39.542969 39.800781 33.78125 40.460938 28.335938 C 43.605469 29.414062 45.378906 31.929688 45.648438 35.601562 C 45.90625 39.117188 42.449219 42.652344 36.859375 40.859375 C 35.960938 40.570312 35.929688 42.167969 36.945312 42.976562 C 39.5625 45.054688 49.949219 44.261719 49.914062 36.09375 C 49.886719 29.691406 45.460938 25.097656 40.507812 23.804688 C 39.636719 16.519531 30.445312 8 19.960938 8 Z M 36 27.851562 C 35.652344 30.910156 33.5 35.707031 28 36.148438 C 28.347656 33.089844 30.5 28.292969 36 27.851562 Z M 36 27.851562 "/>
</g>
</svg>
