<svg xmlns="http://www.w3.org/2000/svg" xmlns:xlink="http://www.w3.org/1999/xlink" width="64" height="64" viewBox="0 0 64 64" version="1.1">
<defs>
<linearGradient id="linear0" gradientUnits="userSpaceOnUse" x1="0" y1="0" x2="0" y2="1" gradientTransform="matrix(43.535156,0,0,64.003906,12,-0.00390625)">
<stop offset="0" style="stop-color:#ff6666;stop-opacity:1;"/>
<stop offset="1" style="stop-color:#d90000;stop-opacity:1;"/>
</linearGradient>
</defs>
<g id="surface1">
<path style=" stroke:none;fill-rule:nonzero;fill:url(#linear0);" d="M 30.878906 63.835938 C 26.644531 63.253906 22.703125 61.460938 19.425781 58.625 C 16.214844 55.84375 13.761719 51.886719 12.699219 47.765625 C 12.277344 46.125 12.148438 45.308594 12.042969 43.558594 C 11.707031 38.121094 13.417969 32.714844 16.796875 28.539062 C 17.605469 27.539062 19.511719 25.675781 20.484375 24.933594 L 21.183594 24.398438 L 22.371094 24.519531 C 27.203125 25.003906 32.539062 23.839844 36.632812 21.40625 C 37.808594 20.703125 37.839844 20.703125 39.714844 21.246094 C 42.175781 21.953125 44.378906 23.015625 46.519531 24.527344 C 47.691406 25.355469 49.667969 27.210938 50.640625 28.398438 C 53.15625 31.480469 54.761719 35.121094 55.363281 39.136719 C 55.589844 40.640625 55.589844 43.710938 55.371094 45.269531 C 54.113281 54.089844 47.597656 61.292969 38.964844 63.398438 C 36.550781 63.988281 33.28125 64.164062 30.878906 63.835938 Z M 42.203125 61.449219 C 45.972656 59.871094 49.242188 57.171875 51.382812 53.855469 C 52.910156 51.492188 54.210938 48.050781 54.78125 44.867188 L 54.84375 44.523438 L 54.042969 44.335938 C 53.3125 44.164062 52.589844 44.074219 51.34375 44.007812 L 50.898438 43.976562 L 50.828125 42.472656 C 50.789062 41.644531 50.722656 40.261719 50.683594 39.394531 L 50.609375 37.820312 L 51.117188 37.742188 C 51.730469 37.652344 53.476562 36.800781 53.832031 36.421875 L 54.085938 36.148438 L 53.847656 35.4375 C 53.480469 34.34375 52.164062 31.710938 51.460938 30.667969 C 48.570312 26.371094 44.425781 23.445312 38.960938 21.832031 L 37.769531 21.480469 L 37.507812 21.800781 C 37.078125 22.332031 36.597656 23.308594 36.410156 24.035156 C 36.21875 24.78125 36.179688 26.222656 36.335938 26.890625 L 36.433594 27.304688 L 32.53125 29.804688 L 28.628906 32.300781 L 27.902344 31.753906 C 24.878906 29.460938 20.992188 29.324219 17.871094 31.398438 C 15.292969 33.109375 13.457031 36.144531 12.867188 39.683594 C 12.585938 41.359375 12.6875 44 13.09375 45.542969 C 14.136719 49.539062 16.691406 52.574219 19.941406 53.679688 C 23.125 54.761719 26.480469 53.894531 29.023438 51.328125 C 29.742188 50.601562 30.808594 49.144531 31.113281 48.464844 C 31.203125 48.277344 31.316406 48.179688 31.410156 48.214844 C 31.492188 48.246094 33.320312 49.308594 35.46875 50.578125 L 39.375 52.878906 L 39.308594 53.226562 C 38.882812 55.507812 39.015625 57.375 39.753906 59.429688 C 40.050781 60.261719 40.621094 61.476562 40.832031 61.742188 C 40.992188 61.9375 41.046875 61.929688 42.203125 61.445312 Z M 42.808594 60.09375 C 42.621094 59.894531 42.488281 59.679688 42.511719 59.613281 C 42.53125 59.550781 43.148438 59.257812 43.878906 58.96875 L 45.210938 58.445312 L 45.207031 57.851562 C 45.203125 56.925781 45.152344 56.867188 44.40625 56.863281 C 44.050781 56.863281 43.347656 56.832031 42.839844 56.789062 L 41.921875 56.714844 L 41.921875 56.132812 C 41.921875 54.429688 42.574219 52.386719 43.628906 50.804688 C 44.394531 49.65625 46.320312 47.746094 46.535156 47.925781 C 46.617188 47.988281 47.078125 48.683594 47.5625 49.460938 C 48.046875 50.238281 48.476562 50.925781 48.519531 50.988281 C 48.578125 51.078125 49.824219 50.625 50.046875 50.433594 C 50.070312 50.417969 49.945312 49.546875 49.769531 48.503906 C 49.597656 47.460938 49.496094 46.570312 49.542969 46.519531 C 49.652344 46.414062 53.246094 46.398438 53.355469 46.507812 C 53.460938 46.613281 53.125 47.964844 52.65625 49.332031 C 51.074219 53.929688 48.132812 57.441406 43.5625 60.195312 L 43.144531 60.445312 L 42.808594 60.085938 Z M 35.722656 50.082031 C 30.984375 47.261719 31.5 47.640625 31.714844 47.132812 C 32.054688 46.316406 32.429688 44.691406 32.566406 43.421875 C 32.941406 40.003906 31.886719 36.191406 29.875 33.703125 C 29.601562 33.363281 29.308594 32.992188 29.230469 32.886719 C 29.097656 32.710938 29.433594 32.46875 32.777344 30.335938 C 34.808594 29.035156 36.515625 28.003906 36.574219 28.042969 C 36.632812 28.070312 36.679688 28.164062 36.679688 28.242188 C 36.679688 28.316406 36.953125 28.929688 37.285156 29.601562 C 39.554688 34.171875 44.894531 37.90625 49.160156 37.90625 L 50.03125 37.90625 L 50.101562 39.328125 C 50.140625 40.109375 50.203125 41.480469 50.242188 42.375 L 50.3125 44 L 49.425781 44.121094 C 47.746094 44.359375 45.828125 45.101562 44.320312 46.101562 C 43.453125 46.675781 42.035156 48.023438 41.339844 48.941406 C 40.816406 49.628906 39.804688 51.503906 39.667969 52.035156 C 39.628906 52.171875 39.558594 52.28125 39.507812 52.277344 C 39.457031 52.269531 37.753906 51.28125 35.726562 50.074219 Z M 20.460938 51.164062 C 20.21875 51.105469 19.652344 50.886719 19.203125 50.671875 C 18.253906 50.210938 18.289062 50.339844 18.5625 48.242188 L 18.734375 46.933594 L 18.375 46.628906 C 17.835938 46.175781 17.675781 46.054688 17.582031 46.050781 C 17.535156 46.050781 17.261719 46.523438 16.96875 47.109375 C 16.679688 47.691406 16.394531 48.152344 16.332031 48.128906 C 16.269531 48.113281 16.003906 47.695312 15.742188 47.210938 C 14.699219 45.269531 14.21875 42.808594 14.460938 40.664062 C 14.597656 39.488281 14.871094 38.257812 15.042969 38.089844 C 15.097656 38.027344 15.402344 38.148438 15.746094 38.339844 C 16.082031 38.53125 16.40625 38.6875 16.472656 38.6875 C 16.535156 38.6875 16.789062 38.40625 17.035156 38.058594 C 17.53125 37.355469 17.542969 37.492188 16.902344 36.101562 L 16.503906 35.242188 L 16.863281 34.808594 C 18.4375 32.90625 20.953125 31.972656 23.207031 32.457031 C 23.996094 32.625 24.746094 32.957031 24.746094 33.140625 C 24.746094 33.214844 24.402344 33.835938 23.976562 34.507812 L 23.210938 35.730469 L 23.722656 36.261719 C 24.003906 36.550781 24.273438 36.789062 24.316406 36.789062 C 24.363281 36.789062 25.015625 36.386719 25.773438 35.894531 L 27.144531 35 L 27.460938 35.367188 C 27.945312 35.929688 28.828125 37.847656 29.117188 38.964844 C 29.464844 40.316406 29.492188 43.1875 29.164062 44.484375 C 29.050781 44.945312 28.925781 45.355469 28.886719 45.398438 C 28.847656 45.441406 28.066406 45.152344 27.144531 44.761719 C 26.226562 44.371094 25.410156 44.046875 25.339844 44.042969 C 25.210938 44.039062 24.414062 45.28125 24.414062 45.484375 C 24.414062 45.527344 25.058594 46.171875 25.851562 46.898438 C 26.644531 47.628906 27.296875 48.296875 27.300781 48.386719 C 27.308594 48.476562 26.949219 48.90625 26.503906 49.335938 C 25.609375 50.195312 24.5 50.847656 23.460938 51.117188 C 22.746094 51.304688 21.164062 51.328125 20.460938 51.164062 Z M 47.570312 35.5625 C 46.75 35.425781 45.515625 35.023438 44.820312 34.671875 C 44.003906 34.261719 42.539062 33.167969 41.972656 32.546875 C 41.449219 31.96875 40.917969 31.28125 40.917969 31.179688 C 40.917969 31.132812 41.46875 30.828125 42.144531 30.492188 C 42.816406 30.152344 43.371094 29.824219 43.371094 29.761719 C 43.371094 29.597656 42.878906 28.851562 42.621094 28.621094 C 42.410156 28.433594 42.320312 28.429688 40.90625 28.589844 C 39.191406 28.789062 39.316406 28.839844 38.886719 27.757812 C 38.691406 27.257812 38.640625 26.898438 38.636719 25.910156 C 38.628906 24.601562 38.769531 24.125 39.382812 23.367188 L 39.636719 23.050781 L 40.472656 23.351562 C 44.503906 24.796875 47.71875 27.308594 50.121094 30.882812 C 50.746094 31.8125 52.179688 34.578125 52.179688 34.851562 C 52.179688 34.925781 52.039062 35.066406 51.871094 35.152344 C 51.230469 35.484375 51.207031 35.46875 50.585938 34.21875 L 50.003906 33.046875 L 49.347656 33.015625 L 48.691406 32.988281 L 48.847656 35.675781 L 48.480469 35.660156 C 48.277344 35.65625 47.867188 35.601562 47.570312 35.554688 Z M 23.128906 23.457031 C 21.109375 23.25 18.578125 22.742188 17.21875 22.265625 C 16.609375 22.050781 16.480469 21.636719 16.410156 19.675781 C 16.351562 17.875 16.519531 16.722656 17.066406 15.207031 C 17.253906 14.6875 17.414062 14.265625 17.425781 14.265625 C 17.433594 14.265625 17.820312 14.34375 18.277344 14.4375 C 19.386719 14.660156 22.378906 14.761719 23.910156 14.625 C 24.585938 14.5625 25.160156 14.53125 25.183594 14.5625 C 25.210938 14.59375 25.125 14.71875 24.996094 14.859375 C 24.566406 15.316406 24.277344 16.144531 24.28125 16.902344 C 24.296875 19.621094 27.5 21.050781 29.515625 19.238281 C 31.152344 17.761719 30.867188 15.078125 28.960938 14.09375 L 28.609375 13.910156 L 29.882812 13.542969 C 32.410156 12.8125 34.441406 11.914062 35.5625 11.027344 L 36.101562 10.601562 L 36.816406 11.359375 C 38.082031 12.699219 39.097656 14.605469 39.539062 16.472656 L 39.730469 17.28125 L 39.460938 17.570312 C 39.308594 17.730469 38.738281 18.242188 38.183594 18.707031 C 35.285156 21.148438 32.019531 22.625 28.148438 23.25 C 27.0625 23.421875 24.027344 23.550781 23.128906 23.460938 Z M 34.96875 18.671875 C 36.21875 17.851562 35.65625 15.902344 34.171875 15.902344 C 32.527344 15.902344 32.105469 18.105469 33.613281 18.796875 C 34.003906 18.976562 34.582031 18.917969 34.96875 18.675781 Z M 19.34375 14.035156 C 18.914062 13.972656 18.375 13.875 18.140625 13.8125 L 17.714844 13.691406 L 17.96875 13.269531 C 18.519531 12.355469 18.503906 12.363281 19.058594 12.480469 C 19.960938 12.671875 23.824219 12.742188 25.203125 12.585938 C 27.867188 12.296875 30.976562 11.265625 33.277344 9.917969 L 34.394531 9.261719 L 35.03125 9.710938 C 35.382812 9.957031 35.644531 10.199219 35.609375 10.253906 C 35.578125 10.316406 35.246094 10.558594 34.875 10.8125 C 32.96875 12.105469 29.472656 13.261719 25.804688 13.808594 C 24.019531 14.078125 20.558594 14.191406 19.34375 14.023438 Z M 21.011719 9.851562 C 21.539062 9.40625 22.910156 8.625 23.648438 8.347656 C 24.019531 8.214844 24.34375 8.039062 24.371094 7.96875 C 24.398438 7.894531 24.328125 7.191406 24.214844 6.398438 L 24.011719 4.953125 L 24.242188 4.894531 C 24.367188 4.863281 24.480469 4.832031 24.496094 4.847656 C 24.511719 4.859375 24.597656 5.414062 24.691406 6.085938 C 24.953125 7.992188 24.925781 7.914062 25.328125 7.796875 C 25.515625 7.738281 25.691406 7.675781 25.714844 7.648438 C 25.738281 7.617188 25.636719 6.90625 25.484375 6.054688 C 25.015625 3.414062 24.535156 0.617188 24.5 0.324219 C 24.476562 0.113281 24.523438 0.0390625 24.707031 0.0117188 C 24.976562 -0.03125 24.914062 -0.304688 25.789062 4.785156 L 26.257812 7.519531 L 27.59375 7.488281 C 28.886719 7.457031 30.507812 7.609375 30.683594 7.78125 C 30.796875 7.902344 29.769531 8.511719 28.664062 8.988281 C 26.828125 9.78125 24.816406 10.148438 22.3125 10.140625 L 20.675781 10.136719 L 21.011719 9.855469 Z M 21.011719 9.851562 "/>
</g>
</svg>
