<svg xmlns="http://www.w3.org/2000/svg" xmlns:xlink="http://www.w3.org/1999/xlink" width="64" height="64" viewBox="0 0 64 64" version="1.1">
<defs>
<linearGradient id="linear0" gradientUnits="userSpaceOnUse" x1="0" y1="0" x2="0" y2="1" gradientTransform="matrix(64,0,0,60,0,2)">
<stop offset="0" style="stop-color:#ff6666;stop-opacity:1;"/>
<stop offset="1" style="stop-color:#d90000;stop-opacity:1;"/>
</linearGradient>
</defs>
<g id="surface1">
<path style=" stroke:none;fill-rule:nonzero;fill:url(#linear0);" d="M 58.664062 61.964844 C 58.066406 61.886719 57.558594 61.617188 57.148438 61.183594 C 56.242188 60.226562 54.753906 57.421875 53.53125 54.367188 C 52.847656 52.652344 51.53125 48.875 51.53125 48.617188 C 51.53125 48.539062 52.398438 47.976562 53.457031 47.367188 L 55.382812 46.265625 L 55.6875 46.546875 C 56.882812 47.648438 60.324219 52.707031 62.332031 56.308594 C 63.136719 57.746094 63.21875 57.953125 63.214844 58.546875 C 63.210938 59.335938 62.957031 59.890625 62.242188 60.671875 C 61.382812 61.609375 59.902344 62.144531 58.664062 61.964844 Z M 1.441406 61.023438 C 1.476562 60.929688 2.0625 58.328125 2.742188 55.25 C 3.421875 52.171875 3.992188 49.632812 4.011719 49.609375 C 4.074219 49.53125 10.226562 53.777344 10.222656 53.894531 C 10.222656 53.957031 8.445312 55.464844 6.273438 57.234375 C 1.378906 61.222656 1.359375 61.238281 1.441406 61.023438 Z M 7.957031 50.160156 C 6.242188 48.996094 4.851562 47.992188 4.867188 47.933594 C 4.910156 47.789062 19.636719 23.28125 19.757812 23.15625 C 19.824219 23.09375 26.261719 27.066406 26.5625 27.363281 C 26.625 27.425781 11.3125 52.226562 11.191406 52.253906 C 11.125 52.269531 9.671875 51.328125 7.957031 50.160156 Z M 48.375 43.683594 C 47.203125 41.738281 46.257812 40.132812 46.277344 40.117188 C 46.488281 39.972656 50.941406 37.453125 50.988281 37.453125 C 51.0625 37.453125 54.800781 44.773438 54.746094 44.8125 C 54.265625 45.144531 50.695312 47.234375 50.621094 47.230469 C 50.5625 47.230469 49.550781 45.632812 48.375 43.683594 Z M 0.046875 43.316406 C 0.0078125 42.976562 -0.0117188 40.234375 0.0078125 37.222656 L 0.0429688 31.746094 L 6.214844 31.78125 C 9.613281 31.796875 12.40625 31.828125 12.421875 31.84375 C 12.4375 31.859375 10.804688 34.589844 8.789062 37.902344 L 5.128906 43.933594 L 0.121094 43.933594 Z M 18.566406 43.761719 C 18.566406 43.726562 20.242188 41 22.292969 37.691406 L 26.019531 31.679688 L 39.246094 31.679688 L 42.78125 37.46875 C 44.726562 40.652344 46.386719 43.382812 46.472656 43.539062 L 46.625 43.820312 L 32.59375 43.820312 C 24.878906 43.820312 18.566406 43.785156 18.566406 43.753906 Z M 54.65625 41.195312 C 53.941406 39.753906 52.601562 37.046875 51.675781 35.183594 L 49.992188 31.796875 L 54.570312 31.796875 C 57.085938 31.796875 60.238281 31.761719 61.574219 31.714844 L 64 31.636719 L 64 43.8125 L 55.949219 43.8125 L 54.65625 41.191406 Z M 44.4375 37.304688 C 41.726562 33.109375 38.964844 28.175781 35.648438 21.601562 C 33.015625 16.386719 30.480469 10.996094 29.4375 8.386719 C 27.921875 4.601562 27.558594 2.25 28.457031 2.027344 C 29.898438 1.671875 32.710938 4.882812 36.71875 11.449219 C 39.859375 16.59375 44.878906 25.582031 48.710938 32.917969 C 49.425781 34.277344 50.132812 35.609375 50.289062 35.878906 L 50.570312 36.371094 L 48.179688 37.738281 C 46.867188 38.488281 45.75 39.101562 45.695312 39.101562 C 45.640625 39.101562 45.074219 38.292969 44.4375 37.304688 Z M 23.6875 24.296875 L 20.355469 22.136719 L 20.671875 21.648438 C 20.84375 21.378906 21.714844 20.011719 22.609375 18.609375 C 23.503906 17.210938 24.246094 16.046875 24.265625 16.023438 C 24.28125 16.007812 25.78125 16.949219 27.597656 18.125 L 30.898438 20.261719 L 30.410156 21.050781 C 30.140625 21.484375 29.324219 22.792969 28.601562 23.960938 C 27.878906 25.125 27.226562 26.164062 27.152344 26.269531 C 27.035156 26.429688 26.558594 26.15625 23.6875 24.296875 Z M 27.9375 17.289062 C 26.210938 16.179688 24.800781 15.222656 24.800781 15.15625 C 24.800781 14.691406 26.226562 13.390625 26.929688 13.214844 C 28.085938 12.929688 29.984375 13.660156 31.039062 14.796875 C 31.859375 15.675781 32.035156 16.105469 31.960938 17.003906 C 31.902344 17.683594 31.339844 19.304688 31.160156 19.304688 C 31.113281 19.304688 29.664062 18.394531 27.9375 17.289062 Z M 27.9375 17.289062 "/>
</g>
</svg>
