<svg xmlns="http://www.w3.org/2000/svg" xmlns:xlink="http://www.w3.org/1999/xlink" width="64px" height="64px" viewBox="0 0 64 64" version="1.1">
<defs>
<linearGradient id="linear0" gradientUnits="userSpaceOnUse" x1="0" y1="128" x2="128" y2="0" gradientTransform="matrix(0.432432,0,0,0.432432,4.324324,4.324324)">
<stop offset="0" style="stop-color:#ff6666;stop-opacity:1;"/>
<stop offset="1" style="stop-color:#d90000;stop-opacity:1;"/>
</linearGradient>
</defs>
<g id="surface1">
<path style=" stroke:none;fill-rule:nonzero;fill:url(#linear0);" d="M 16.648438 9.1875 C 15.394531 9.316406 14.433594 10.386719 14.433594 11.675781 L 14.433594 52.328125 C 14.433594 53.703125 15.527344 54.8125 16.90625 54.8125 L 47.09375 54.8125 C 48.472656 54.8125 49.566406 53.703125 49.566406 52.328125 L 49.566406 21.785156 L 40.472656 21.785156 C 38.613281 21.785156 36.988281 20.425781 36.988281 18.621094 L 36.988281 9.1875 L 16.90625 9.1875 C 16.820312 9.1875 16.734375 9.183594 16.648438 9.1875 Z M 38.714844 9.1875 L 38.714844 18.621094 C 38.714844 19.363281 39.421875 20.054688 40.472656 20.054688 L 49.566406 20.054688 Z M 26.40625 27.492188 C 26.769531 27.484375 27.128906 27.511719 27.472656 27.5625 C 29.179688 27.789062 30.636719 28.613281 32.109375 29.4375 L 31.40625 35.628906 C 30.007812 34.835938 28.546875 34.050781 26.785156 33.816406 C 25.664062 33.667969 24.4375 33.761719 23.082031 34.238281 L 23.769531 28.035156 C 24.289062 27.832031 24.796875 27.703125 25.269531 27.613281 C 25.664062 27.539062 26.039062 27.5 26.40625 27.492188 Z M 41.742188 30.046875 L 41.039062 36.261719 C 40.921875 36.261719 40.804688 36.292969 40.703125 36.359375 C 37.511719 38.078125 35.449219 37.632812 33.40625 36.683594 C 33.125 36.550781 32.84375 36.414062 32.566406 36.261719 L 33.242188 30.0625 C 35.554688 31.257812 38.0625 32.03125 41.742188 30.046875 Z M 25.554688 34.9375 C 25.789062 34.933594 26.015625 34.949219 26.242188 34.964844 C 26.371094 34.972656 26.511719 34.988281 26.636719 35.007812 C 28.273438 35.222656 29.726562 36.09375 31.285156 36.953125 L 30.582031 43.128906 C 28.164062 41.769531 25.789062 40.378906 22.257812 41.75 L 22.933594 35.492188 C 23.03125 35.511719 23.132812 35.507812 23.230469 35.480469 C 23.800781 35.257812 24.335938 35.085938 24.835938 35.007812 C 25.085938 34.964844 25.320312 34.945312 25.554688 34.9375 Z M 32.40625 37.546875 C 32.5625 37.625 32.71875 37.703125 32.878906 37.777344 C 35.023438 38.773438 37.589844 39.265625 40.890625 37.613281 L 40.214844 43.738281 C 36.539062 45.71875 34.027344 44.945312 31.714844 43.75 Z M 32.40625 37.546875 "/>
</g>
</svg>
