<svg xmlns="http://www.w3.org/2000/svg" xmlns:xlink="http://www.w3.org/1999/xlink" width="64" height="64" viewBox="0 0 64 64" version="1.1">
<defs> <linearGradient id="linear0" gradientUnits="userSpaceOnUse" x1="0" y1="0" x2="0" y2="1" gradientTransform="matrix(55.992188,0,0,56,4.003906,4)"> <stop offset="0" style="stop-color:#ff6666;stop-opacity:1;"/> <stop offset="1" style="stop-color:#d90000;stop-opacity:1;"/> </linearGradient> </defs>
<g id="surface1">
<path style=" stroke:none;fill-rule:evenodd;fill:url(#linear0);fill-opacity:1;" d="M 27.082031 17.984375 L 22.453125 40.496094 L 27.949219 40.496094 L 30.558594 27.988281 L 34.890625 27.988281 C 36.921875 27.988281 36.921875 28.832031 36.632812 30.214844 L 34.601562 40.507812 L 40.398438 40.507812 L 42.421875 29.109375 C 43 26.324219 41.261719 24.101562 36.632812 23.820312 L 31.425781 23.820312 L 32.578125 17.984375 Z M 6.527344 23.824219 L 1.894531 46.363281 L 7.386719 46.363281 L 8.550781 40.519531 L 13.765625 40.519531 C 18.683594 40.78125 24.179688 36.902344 24.179688 30.226562 C 24.179688 26.332031 21.867188 24.109375 17.238281 23.824219 Z M 44.574219 23.824219 L 39.933594 46.363281 L 45.429688 46.363281 L 46.589844 40.519531 L 51.800781 40.519531 C 56.726562 40.78125 62.222656 36.902344 62.222656 30.226562 C 62.222656 26.332031 59.910156 24.113281 55.28125 23.824219 Z M 11.15625 28.011719 L 14.917969 28.011719 C 16.949219 28.011719 18.390625 28.835938 18.390625 30.511719 C 18.097656 35.238281 15.785156 36.070312 13.179688 36.347656 L 9.710938 36.347656 Z M 49.199219 28.011719 L 52.960938 28.011719 C 54.980469 28.011719 56.429688 28.835938 56.429688 30.511719 C 56.140625 35.238281 53.828125 36.070312 51.21875 36.347656 L 47.753906 36.347656 Z M 49.199219 28.011719 "/>
</g>
</svg>
