<svg xmlns="http://www.w3.org/2000/svg" xmlns:xlink="http://www.w3.org/1999/xlink" width="64" height="64" viewBox="0 0 64 64" version="1.1">
<defs>
<linearGradient id="linear0" gradientUnits="userSpaceOnUse" x1="0" y1="0" x2="0" y2="1" gradientTransform="matrix(64,0,0,56,0,4)">
<stop offset="0" style="stop-color:#ff6666;stop-opacity:1;"/>
<stop offset="1" style="stop-color:#d90000;stop-opacity:1;"/>
</linearGradient>
</defs>
<g id="surface1">
<path style=" stroke:none;fill-rule:nonzero;fill:url(#linear0);" d="M 15.976562 4 C 10.945312 4.058594 7.261719 3.878906 4.25 5.539062 C 2.691406 6.425781 1.503906 7.84375 0.898438 9.53125 C 0.238281 11.285156 0 13.371094 0 16 L 0 48 C 0 50.632812 0.238281 52.714844 0.898438 54.46875 C 1.554688 56.226562 2.746094 57.628906 4.25 58.460938 C 7.261719 60.125 10.945312 59.941406 15.976562 60 L 48.023438 60 C 53.054688 59.941406 56.738281 60.121094 59.75 58.460938 C 61.308594 57.574219 62.496094 56.15625 63.101562 54.46875 C 63.757812 52.714844 64 50.628906 64 48 L 64 16 C 64 13.367188 63.761719 11.285156 63.101562 9.53125 C 62.496094 7.84375 61.308594 6.425781 59.75 5.539062 C 56.738281 3.875 53.054688 4.058594 48.023438 4 Z M 16 8 L 32 8 L 32 56 L 16 56 C 10.964844 55.941406 7.640625 55.761719 6.179688 54.953125 C 5.449219 54.554688 5.03125 54.101562 4.640625 53.0625 C 4.253906 52.023438 4 50.367188 4 48 L 4 16 C 4 13.632812 4.253906 11.976562 4.640625 10.9375 C 5.03125 9.898438 5.449219 9.449219 6.179688 9.046875 C 7.644531 8.238281 10.964844 8.058594 16 8 Z M 16 16 L 16 20 L 12 20 L 12 24 L 16 24 L 16 28 L 20 28 L 20 24 L 24 24 L 24 20 L 20 20 L 20 16 Z M 40 24 L 56 24 L 56 28 L 40 28 Z M 40 32 L 56 32 L 56 36 L 40 36 Z M 12 40 L 12 44 L 24 44 L 24 40 Z M 12 40 "/>
</g>
</svg>
