<svg xmlns="http://www.w3.org/2000/svg" xmlns:xlink="http://www.w3.org/1999/xlink" width="64" height="64" viewBox="0 0 64 64" version="1.1">
<defs>
<linearGradient id="linear0" gradientUnits="userSpaceOnUse" x1="0" y1="0" x2="0" y2="1" gradientTransform="matrix(60,0,0,60.785156,2,1.214844)">
<stop offset="0" style="stop-color:#ff6666;stop-opacity:1;"/>
<stop offset="1" style="stop-color:#d90000;stop-opacity:1;"/>
</linearGradient>
</defs>
<g id="surface1">
<path style=" stroke:none;fill-rule:nonzero;fill:url(#linear0);" d="M 30.222656 61.984375 C 30.308594 61.972656 30.371094 61.953125 30.394531 61.921875 C 30.4375 61.863281 30.417969 61.695312 30.347656 61.558594 C 30.289062 61.453125 30.285156 61.367188 30.328125 61.339844 C 30.34375 61.332031 30.5 61.308594 30.675781 61.308594 C 31.035156 61.296875 31.210938 61.234375 31.347656 61.128906 C 31.546875 60.960938 31.582031 60.710938 31.441406 60.425781 C 31.328125 60.203125 31.125 59.941406 30.871094 59.699219 C 30.476562 59.320312 30.152344 59.109375 29.726562 58.953125 C 29.386719 58.832031 29.328125 58.78125 29.261719 58.535156 C 29.246094 58.472656 29.1875 58.363281 29.128906 58.28125 C 28.953125 58.019531 28.863281 57.605469 28.789062 56.710938 C 28.710938 55.738281 28.695312 55.105469 28.683594 52.214844 L 28.667969 49.261719 L 28.820312 48.960938 C 29.097656 48.40625 29.351562 47.847656 29.417969 47.644531 C 29.53125 47.296875 29.589844 46.9375 29.664062 46.097656 C 29.800781 44.558594 29.949219 44.082031 31.152344 41.335938 C 32.164062 39.023438 32.8125 37.425781 33.210938 36.269531 C 33.578125 35.199219 33.882812 34.570312 34.164062 34.300781 C 34.265625 34.210938 34.414062 34.128906 34.503906 34.128906 C 34.648438 34.128906 34.875 34.320312 35.058594 34.609375 C 35.242188 34.890625 35.628906 35.707031 35.878906 36.347656 C 36.335938 37.492188 36.695312 38.652344 37.03125 40.03125 C 37.46875 41.820312 37.710938 42.539062 38.246094 43.664062 C 38.640625 44.492188 38.699219 44.6875 38.785156 45.460938 C 38.882812 46.375 39.082031 47.113281 39.382812 47.710938 C 39.5 47.949219 39.597656 48.085938 39.769531 48.273438 C 39.988281 48.507812 40.011719 48.554688 40.101562 48.882812 C 40.144531 49.050781 40.328125 49.683594 40.507812 50.289062 C 41.015625 52.023438 41.34375 53.238281 41.71875 54.785156 C 41.9375 55.683594 42.109375 56.308594 42.269531 56.808594 C 42.445312 57.347656 42.457031 57.46875 42.382812 57.964844 C 42.320312 58.378906 42.328125 58.632812 42.410156 58.933594 C 42.5625 59.484375 42.914062 59.816406 43.507812 59.964844 C 43.964844 60.085938 44.269531 60.101562 45.535156 60.101562 C 46.78125 60.105469 46.941406 60.09375 47.261719 59.980469 C 47.445312 59.921875 47.605469 59.792969 47.65625 59.660156 C 47.679688 59.617188 47.703125 59.476562 47.714844 59.371094 C 47.734375 59.128906 47.757812 59.105469 47.914062 59.144531 C 48.042969 59.175781 48.132812 59.152344 48.230469 59.066406 C 48.480469 58.835938 48.492188 58.125 48.25 57.890625 C 48.0625 57.707031 47.761719 57.644531 46.902344 57.605469 C 46.015625 57.5625 45.710938 57.5 45.273438 57.257812 C 45.011719 57.109375 44.808594 56.933594 44.734375 56.78125 C 44.707031 56.722656 44.652344 56.53125 44.621094 56.363281 C 44.585938 56.195312 44.527344 55.96875 44.492188 55.863281 C 44.402344 55.589844 44.042969 54.863281 43.632812 54.109375 C 43.011719 52.964844 42.800781 52.464844 42.558594 51.527344 C 42.472656 51.199219 42.25 50.398438 42.0625 49.746094 C 41.875 49.09375 41.699219 48.445312 41.667969 48.304688 C 41.59375 47.933594 41.582031 47.574219 41.621094 46.730469 C 41.664062 45.847656 41.664062 45.199219 41.621094 44.941406 C 41.605469 44.835938 41.535156 44.550781 41.46875 44.308594 C 41.28125 43.65625 41.257812 43.457031 41.253906 42.785156 C 41.253906 42.015625 41.316406 41.402344 41.59375 39.46875 C 41.878906 37.484375 41.949219 36.769531 41.964844 35.628906 C 41.972656 35.15625 41.988281 34.761719 41.996094 34.75 C 42.003906 34.738281 42.613281 34.523438 43.34375 34.265625 C 44.074219 34.007812 44.832031 33.742188 45.027344 33.667969 C 46.71875 33.046875 47.523438 32.601562 48.363281 31.824219 C 50.289062 30.046875 51.523438 27.484375 52.671875 22.882812 C 53.238281 20.625 53.496094 19.183594 53.625 17.566406 C 53.652344 17.257812 53.683594 16.570312 53.730469 15.328125 C 53.785156 13.796875 53.871094 13.5 54.617188 12.234375 C 54.929688 11.699219 55.242188 11.105469 55.351562 10.828125 C 55.394531 10.722656 55.460938 10.488281 55.492188 10.320312 C 55.527344 10.152344 55.5625 9.992188 55.578125 9.960938 C 55.605469 9.902344 56.222656 9.589844 56.730469 9.382812 C 57.113281 9.226562 57.867188 8.855469 58.085938 8.710938 C 58.175781 8.652344 58.335938 8.535156 58.441406 8.453125 C 58.546875 8.359375 58.644531 8.289062 58.660156 8.277344 C 58.675781 8.265625 58.8125 8.308594 59.003906 8.398438 C 59.175781 8.472656 59.414062 8.570312 59.53125 8.605469 C 59.730469 8.667969 59.78125 8.667969 60.226562 8.667969 C 60.769531 8.667969 60.972656 8.636719 61.316406 8.464844 C 61.699219 8.285156 61.8125 8.140625 61.863281 7.785156 C 61.910156 7.445312 61.859375 7.257812 61.648438 6.96875 C 61.59375 6.894531 61.617188 6.847656 61.765625 6.742188 C 61.96875 6.589844 62 6.496094 62 6.03125 C 62 5.539062 61.988281 5.515625 61.578125 5.085938 C 61.207031 4.707031 60.910156 4.316406 60.691406 3.929688 C 60.292969 3.21875 60.152344 3.027344 59.953125 2.933594 C 59.730469 2.828125 59.152344 2.785156 57.378906 2.753906 C 55.515625 2.722656 54.925781 2.679688 54.375 2.535156 C 53.921875 2.414062 53.652344 2.269531 53.136719 1.832031 C 52.792969 1.539062 52.75 1.527344 52.058594 1.527344 C 51.441406 1.523438 51.070312 1.554688 50.535156 1.660156 C 50.128906 1.738281 49.886719 1.738281 49.714844 1.675781 C 49.644531 1.648438 49.445312 1.570312 49.269531 1.488281 C 49.097656 1.410156 48.894531 1.320312 48.828125 1.300781 C 48.332031 1.144531 47.890625 1.195312 47.515625 1.46875 C 47.171875 1.714844 46.9375 2.039062 46.484375 2.90625 C 46.324219 3.207031 46.058594 3.695312 45.890625 3.996094 C 45.25 5.140625 45.046875 5.753906 45.023438 6.640625 C 45 7.324219 45.058594 7.605469 45.414062 8.597656 C 45.609375 9.132812 45.609375 9.128906 45.609375 10.683594 C 45.609375 11.574219 45.597656 12.210938 45.574219 12.480469 C 45.460938 13.9375 45.328125 15.128906 45.175781 16.015625 C 45.019531 16.941406 44.914062 17.242188 44.660156 17.5 C 44.335938 17.824219 43.882812 17.929688 42.796875 17.929688 C 41.878906 17.929688 41.464844 17.867188 41.035156 17.648438 C 40.328125 17.292969 39.445312 16.414062 38.664062 15.289062 C 38.335938 14.816406 38.042969 14.332031 37.570312 13.5 C 36.203125 11.070312 35.46875 10.144531 34 8.992188 C 33.113281 8.296875 32.671875 7.632812 32.308594 6.464844 C 31.9375 5.277344 31.382812 4.421875 30.492188 3.683594 C 29.421875 2.796875 28.5 2.492188 26.859375 2.492188 C 26.195312 2.488281 25.90625 2.519531 25.472656 2.625 C 24.566406 2.859375 23.953125 3.324219 23.582031 4.0625 C 23.441406 4.34375 23.367188 4.644531 23.097656 6.007812 C 22.824219 7.382812 22.671875 7.914062 22.390625 8.488281 C 22.195312 8.890625 21.980469 9.183594 21.640625 9.527344 C 21.226562 9.941406 20.9375 10.082031 20.6875 10 C 20.480469 9.925781 20.371094 9.753906 19.597656 8.210938 C 18.886719 6.792969 18.699219 6.433594 18.410156 5.953125 C 17.910156 5.121094 17.492188 4.742188 16.925781 4.609375 C 16.761719 4.566406 16.625 4.566406 16.132812 4.566406 C 15.445312 4.566406 15.367188 4.582031 14.851562 4.800781 C 13.503906 5.382812 12.457031 6.238281 12.128906 7.03125 C 11.957031 7.449219 11.289062 9.546875 10.890625 10.914062 C 10.664062 11.695312 10.570312 11.949219 10.378906 12.332031 C 10.136719 12.816406 10.011719 12.980469 9.390625 13.59375 C 8.984375 14 8.753906 14.253906 8.59375 14.46875 C 8.007812 15.253906 7.496094 16.1875 6.886719 17.589844 C 5.964844 19.71875 5.640625 20.8125 5.542969 22.179688 C 5.496094 22.765625 5.523438 24.085938 5.605469 25.464844 C 5.6875 26.832031 5.683594 27.40625 5.59375 27.691406 C 5.527344 27.902344 5.324219 28.3125 5.175781 28.542969 C 4.976562 28.847656 4.859375 28.945312 3.933594 29.550781 C 3.605469 29.769531 3.304688 29.988281 3.148438 30.128906 C 2.492188 30.71875 2.058594 31.457031 2.003906 32.089844 C 1.984375 32.296875 2.027344 32.4375 2.109375 32.457031 C 2.273438 32.503906 3.214844 32.050781 4.375 31.386719 C 4.980469 31.035156 5.339844 30.804688 5.792969 30.46875 C 6.25 30.128906 6.398438 30.035156 6.515625 30.015625 C 6.585938 30.003906 6.605469 30.011719 6.632812 30.0625 C 6.785156 30.351562 7.40625 32.882812 7.910156 35.277344 C 8.359375 37.421875 8.453125 38.167969 8.457031 39.566406 C 8.457031 40.664062 8.386719 41.4375 8.210938 42.242188 C 8.058594 42.949219 8.042969 43.148438 8.058594 43.96875 C 8.074219 44.71875 8.101562 45.136719 8.289062 47.300781 C 8.472656 49.382812 8.503906 50.25 8.457031 51.570312 C 8.40625 53.070312 8.195312 56.285156 8.0625 57.625 C 7.976562 58.492188 7.914062 58.796875 7.722656 59.292969 C 7.535156 59.78125 7.464844 60.035156 7.449219 60.308594 C 7.425781 60.71875 7.519531 60.96875 7.796875 61.246094 C 8.144531 61.59375 8.632812 61.6875 9.734375 61.628906 C 11.230469 61.550781 11.46875 61.476562 11.390625 61.152344 C 11.355469 60.992188 11.363281 60.894531 11.417969 60.867188 C 11.445312 60.851562 11.5625 60.835938 11.679688 60.835938 C 11.949219 60.835938 12.175781 60.789062 12.253906 60.746094 C 12.289062 60.714844 12.347656 60.65625 12.382812 60.585938 C 12.433594 60.496094 12.445312 60.433594 12.445312 60.285156 C 12.445312 60.113281 12.4375 60.074219 12.355469 59.929688 C 12.25 59.730469 11.972656 59.445312 11.671875 59.21875 C 10.757812 58.535156 10.117188 57.769531 10.015625 57.242188 C 9.855469 56.402344 9.878906 53.976562 10.078125 51.265625 C 10.183594 49.777344 10.226562 49.074219 10.253906 48.148438 C 10.285156 47.195312 10.304688 47.085938 10.546875 46.527344 C 10.671875 46.234375 10.820312 45.714844 10.925781 45.199219 C 11.050781 44.578125 11.074219 44.382812 11.074219 43.96875 C 11.074219 43.542969 11.023438 43.273438 10.875 42.910156 C 10.75 42.597656 10.726562 42.433594 10.761719 42.058594 C 10.847656 41.105469 11.03125 40.222656 11.308594 39.40625 C 11.519531 38.789062 11.703125 38.367188 12.148438 37.488281 C 12.761719 36.277344 12.988281 35.746094 13.074219 35.320312 C 13.226562 34.59375 13.25 33.132812 13.121094 32.441406 C 13.097656 32.304688 13.078125 32.085938 13.082031 31.945312 C 13.082031 31.722656 13.089844 31.675781 13.15625 31.535156 C 13.246094 31.332031 13.425781 31.164062 13.605469 31.109375 C 13.847656 31.035156 13.980469 31.082031 14.136719 31.246094 C 14.328125 31.457031 14.46875 31.808594 14.777344 32.824219 C 15.09375 33.875 15.5625 35.316406 16.070312 36.800781 C 17.203125 40.117188 17.46875 41.175781 17.777344 43.527344 C 18.019531 45.375 18.207031 46.09375 18.78125 47.375 C 18.960938 47.785156 19.636719 49.121094 20.074219 49.933594 C 20.960938 51.601562 21.417969 52.800781 21.832031 54.558594 C 22.089844 55.65625 22.257812 56.171875 22.5 56.648438 C 22.613281 56.871094 22.660156 56.933594 22.902344 57.171875 C 23.207031 57.46875 23.210938 57.484375 23.121094 57.691406 C 23.074219 57.78125 23.0625 57.878906 23.054688 58.109375 C 23.039062 58.5 23.078125 58.644531 23.242188 58.785156 C 23.390625 58.921875 23.773438 59.105469 23.996094 59.160156 C 24.210938 59.203125 24.8125 59.25 25.421875 59.25 C 25.894531 59.25 26.386719 59.292969 26.425781 59.324219 C 26.460938 59.355469 26.425781 59.429688 26.210938 59.773438 C 25.949219 60.1875 25.886719 60.324219 25.886719 60.46875 C 25.886719 60.625 25.992188 60.832031 26.195312 61.074219 C 26.636719 61.597656 27.152344 61.820312 28.179688 61.933594 C 28.773438 61.992188 29.917969 62.023438 30.214844 61.976562 Z M 26.296875 57.03125 C 26.039062 56.894531 25.746094 56.652344 25.265625 56.171875 C 24.78125 55.683594 24.589844 55.457031 24.265625 54.964844 C 23.628906 54.015625 23.160156 52.742188 22.484375 50.140625 C 21.914062 47.949219 21.632812 46.570312 21.488281 45.25 C 21.425781 44.679688 21.425781 42.789062 21.492188 41.96875 C 21.546875 41.242188 21.574219 39.71875 21.535156 39.257812 C 21.519531 39.070312 21.488281 38.742188 21.46875 38.523438 C 21.351562 37.34375 21.378906 35.328125 21.515625 34.929688 C 21.542969 34.855469 21.5625 34.839844 21.617188 34.824219 C 21.730469 34.8125 22.003906 34.902344 22.488281 35.128906 C 23.230469 35.464844 23.75 35.621094 24.355469 35.683594 C 24.96875 35.746094 25.761719 35.625 26.277344 35.390625 C 26.386719 35.34375 26.484375 35.300781 26.496094 35.316406 C 26.535156 35.34375 26.550781 35.726562 26.574219 37.226562 C 26.601562 39.136719 26.628906 39.546875 26.828125 40.984375 C 26.996094 42.207031 27.011719 42.425781 27.015625 43.171875 C 27.015625 43.914062 26.996094 44.121094 26.851562 44.765625 C 26.707031 45.402344 26.671875 45.746094 26.671875 46.4375 C 26.671875 47.226562 26.75 47.855469 26.941406 48.707031 C 27.425781 50.8125 27.480469 52.648438 27.128906 54.777344 C 26.992188 55.621094 26.671875 56.988281 26.59375 57.085938 C 26.550781 57.128906 26.476562 57.117188 26.296875 57.023438 Z M 26.296875 57.03125 "/>
</g>
</svg>
