<svg xmlns="http://www.w3.org/2000/svg" xmlns:xlink="http://www.w3.org/1999/xlink" width="64" height="64" viewBox="0 0 64 64" version="1.1">
<defs>
<linearGradient id="linear0" gradientUnits="userSpaceOnUse" x1="0" y1="0" x2="0" y2="1" gradientTransform="matrix(44,0,0,63.964844,0,0)">
<stop offset="0" style="stop-color:#ff6666;stop-opacity:1;"/>
<stop offset="1" style="stop-color:#d90000;stop-opacity:1;"/>
</linearGradient>
<linearGradient id="linear1" gradientUnits="userSpaceOnUse" x1="0" y1="0" x2="0" y2="1" gradientTransform="matrix(25.910156,0,0,60.902344,38.0625,3.042969)">
<stop offset="0" style="stop-color:#ff6666;stop-opacity:0.341176;"/>
<stop offset="1" style="stop-color:#d90000;stop-opacity:0.341176;"/>
</linearGradient>
<linearGradient id="linear2" gradientUnits="userSpaceOnUse" x1="0" y1="0" x2="0" y2="1" gradientTransform="matrix(30.625,0,0,62.359375,33.375,1.640625)">
<stop offset="0" style="stop-color:#ff6666;stop-opacity:1;"/>
<stop offset="1" style="stop-color:#d90000;stop-opacity:1;"/>
</linearGradient>
</defs>
<g id="surface1">
<path style=" stroke:none;fill-rule:nonzero;fill:url(#linear0);" d="M 5 0.0390625 C 2.167969 0.671875 0 3.496094 0 6.78125 L 0 57.097656 C 0 60.855469 2.941406 63.964844 6.375 63.964844 L 37.625 63.964844 C 41.058594 63.964844 44 60.855469 44 57.097656 L 44 6.78125 C 44 3.023438 41.058594 0.0390625 37.625 0.0390625 L 6.375 0.0390625 C 5.945312 0.0390625 5.40625 -0.0507812 5 0.0390625 Z M 9.25 4.035156 L 10.75 4.035156 L 16 16.019531 L 13.625 16.019531 L 12 12.027344 L 8 12.027344 L 6.5 16.019531 L 4 16.019531 Z M 10 6.53125 L 8.375 10.527344 L 11.625 10.527344 Z M 15 20.015625 C 18.867188 20.015625 22 22.984375 22 26.757812 C 22 22.984375 25.132812 20.015625 29 20.015625 C 32.867188 20.015625 36 22.984375 36 26.757812 C 36 28.550781 35.28125 30.28125 34.125 31.5 C 34.0625 31.566406 34.0625 31.566406 34 31.625 L 22 43.988281 L 10.625 32 C 10.140625 31.609375 9.863281 31.128906 9.5 30.628906 C 8.699219 29.515625 8 28.21875 8 26.757812 C 8 22.984375 11.132812 20.015625 15 20.015625 Z M 28 47.980469 L 30.5 47.980469 L 32 51.976562 L 36 51.976562 L 37.625 47.980469 L 40 47.980469 L 34.75 59.96875 L 33.25 59.96875 Z M 32.375 53.476562 L 34 57.46875 L 35.625 53.476562 Z M 32.375 53.476562 "/>
<path style=" stroke:none;fill-rule:nonzero;fill:url(#linear1);" d="M 52 8.035156 L 53.5 8.035156 L 52 7.410156 L 41.625 3.042969 L 42.125 59.972656 L 38.0625 63.78125 C 41.820312 64.417969 44.957031 63.195312 46.25 60.097656 L 63.5 18.523438 C 64.792969 15.421875 63.320312 12.039062 60.375 10.90625 L 53.5 8.035156 M 52 8.035156 L 52 7.410156 "/>
<path style=" stroke:none;fill-rule:nonzero;fill:rgb(74.117649%,74.117649%,74.117649%);fill-opacity:0.34902;" d="M 44 59.964844 C 44 59.964844 44.015625 59.480469 44 55.941406 C 44 58.605469 43.796875 59.003906 43.375 59.964844 Z M 44 59.964844 "/>
<path style=" stroke:none;fill-rule:nonzero;fill:url(#linear2);" d="M 41.125 1.640625 L 41.125 3.761719 L 41.25 58.484375 L 37 61.355469 L 33.375 63.730469 L 37.625 63.980469 C 37.625 63.980469 38.578125 64.023438 39.75 63.980469 C 40.917969 63.9375 42.335938 63.789062 43.5 63.355469 C 45.394531 62.648438 47.09375 61.355469 47.875 59.359375 L 63.496094 19.261719 C 64.890625 15.683594 63.277344 11.734375 59.996094 10.265625 C 59.96875 10.253906 60.027344 10.152344 59.996094 10.140625 L 59.871094 10.140625 L 53.746094 7.394531 L 52.371094 6.769531 L 42.996094 2.519531 L 41.121094 1.644531 Z M 43.875 5.886719 L 51.25 9.257812 L 52.625 9.882812 L 58.746094 12.632812 L 58.871094 12.632812 C 60.785156 13.421875 61.785156 15.910156 60.871094 18.253906 L 45.375 58.355469 C 45.1875 58.796875 44.460938 59.035156 44 59.476562 L 44 59.351562 L 43.875 5.878906 Z M 43.875 5.886719 "/>
</g>
</svg>
