<svg xmlns="http://www.w3.org/2000/svg" xmlns:xlink="http://www.w3.org/1999/xlink" width="64" height="64" viewBox="0 0 64 64" version="1.1">
<defs>
<linearGradient id="linear0" gradientUnits="userSpaceOnUse" x1="0" y1="0" x2="0" y2="1" gradientTransform="matrix(60,0,0,60.035156,2.089844,1.578125)">
<stop offset="0" style="stop-color:#ff6666;stop-opacity:1;"/>
<stop offset="1" style="stop-color:#d90000;stop-opacity:1;"/>
</linearGradient>
</defs>
<g id="surface1">
<path style=" stroke:none;fill-rule:nonzero;fill:url(#linear0);" d="M 57.386719 1.589844 C 56.472656 1.667969 55.554688 2.128906 54.816406 2.839844 L 38.28125 17.222656 C 37.570312 17.910156 37.171875 18.882812 37.171875 19.863281 C 37.171875 20.332031 37.277344 20.761719 37.449219 21.183594 C 37.457031 21.203125 37.441406 21.230469 37.449219 21.25 C 36.835938 22.558594 37.03125 24.390625 37.03125 28.335938 C 37.03125 29.792969 33.25 31.324219 32.308594 31.324219 C 32.261719 31.324219 32.214844 31.324219 32.167969 31.324219 C 29.160156 31.324219 19.40625 31.769531 16.398438 35.910156 C 13.390625 40.050781 2.089844 58.855469 2.089844 61.613281 C 6.601562 61.613281 39.378906 45.230469 41.0625 43.691406 C 43.09375 41.824219 42.097656 38.066406 40.78125 35.5625 C 40.792969 35.550781 40.777344 35.507812 40.78125 35.492188 C 40.820312 35.402344 40.832031 35.269531 40.714844 35.074219 C 40.007812 33.894531 39.601562 32.703125 39.601562 31.046875 C 39.601562 27.363281 39.988281 25.332031 40.78125 24.167969 C 42.558594 24.476562 45.128906 23.605469 46.269531 22.5 L 60.789062 8.675781 C 62.269531 7.25 62.617188 5.101562 61.136719 3.675781 L 59.957031 2.492188 C 59.21875 1.78125 58.300781 1.515625 57.386719 1.589844 Z M 57.386719 1.589844 "/>
</g>
</svg>
