<svg xmlns="http://www.w3.org/2000/svg" xmlns:xlink="http://www.w3.org/1999/xlink" width="64" height="64" viewBox="0 0 64 64" version="1.1">
<defs>
<linearGradient id="linear0" gradientUnits="userSpaceOnUse" x1="0" y1="0" x2="0" y2="1" gradientTransform="matrix(64,0,0,60,0,2)">
<stop offset="0" style="stop-color:#ff6666;stop-opacity:1;"/>
<stop offset="1" style="stop-color:#d90000;stop-opacity:1;"/>
</linearGradient>
</defs>
<g id="surface1">
<path style=" stroke:none;fill-rule:nonzero;fill:url(#linear0);" d="M 12.542969 61.636719 C 10.378906 60.859375 6.414062 58.558594 4.589844 57.023438 C 1.355469 54.308594 -1.023438 50.660156 0.441406 50.660156 C 0.683594 50.660156 2.359375 51.839844 4.167969 53.28125 C 10.117188 58.023438 14.78125 59.695312 19.039062 58.609375 C 23.875 57.371094 31.09375 52.886719 32.859375 50.019531 C 33.992188 48.179688 33.960938 47.027344 32.753906 46.167969 C 31.828125 45.503906 31.910156 45.476562 34.59375 45.570312 L 37.402344 45.675781 L 37.527344 47.195312 C 37.613281 48.265625 37.136719 49.78125 35.90625 52.324219 C 34.945312 54.3125 34.160156 56.28125 34.160156 56.703125 C 34.160156 57.648438 31.035156 59.40625 27.460938 60.476562 C 24.71875 61.292969 17.339844 61.558594 14.953125 60.925781 C 13.835938 60.628906 13.753906 60.667969 14.25 61.265625 C 14.722656 61.839844 14.683594 61.941406 14 61.910156 C 13.554688 61.894531 12.898438 61.769531 12.542969 61.644531 Z M 30.15625 60.515625 C 35.53125 58.269531 38.96875 55.769531 41.289062 52.40625 C 42.4375 50.742188 42.527344 49.46875 41.417969 50.582031 C 40.257812 51.746094 39.78125 51.136719 39.78125 48.492188 C 39.78125 45.058594 38.882812 44.03125 36.210938 44.394531 L 34.378906 44.644531 L 36.539062 43.496094 C 37.730469 42.863281 38.992188 42.089844 39.351562 41.78125 C 39.707031 41.472656 40.820312 40.804688 41.820312 40.296875 C 43.992188 39.203125 44.539062 38.316406 44.539062 35.878906 C 44.539062 32.789062 43.628906 30.644531 41.28125 28.210938 C 39.992188 26.875 39.355469 25.933594 39.734375 25.933594 C 40.089844 25.933594 41.402344 26.988281 42.648438 28.277344 C 44.441406 30.136719 45.097656 31.230469 45.804688 33.53125 C 46.855469 36.941406 46.976562 41.835938 46.101562 45.5625 C 45.78125 46.9375 45.582031 48.058594 45.664062 48.058594 C 45.742188 48.058594 46.097656 47.519531 46.453125 46.863281 C 46.808594 46.210938 47.105469 45.90625 47.117188 46.191406 C 47.144531 46.988281 45.167969 50.523438 43.355469 52.921875 C 40.195312 57.105469 33.507812 61.199219 28.972656 61.722656 L 26.59375 62 Z M 25.511719 43.253906 C 21.316406 41.355469 17.105469 35.664062 16.625 31.242188 L 16.398438 29.183594 L 17.78125 31.976562 C 20.40625 37.277344 24.371094 40.054688 27.460938 38.757812 C 28.78125 38.203125 30.269531 36.617188 30.269531 35.761719 C 30.269531 35.550781 29.789062 35.695312 29.203125 36.078125 C 27.492188 37.203125 25.214844 36.980469 23.785156 35.546875 C 20.710938 32.460938 21.367188 27.082031 25.308594 23.132812 C 27.558594 20.871094 29.234375 20.167969 32.882812 19.953125 C 35.578125 19.796875 36.53125 19.914062 38.375 20.71875 C 42.675781 22.574219 46.984375 28.53125 47.449219 33.261719 L 47.644531 35.257812 L 46.160156 32.222656 C 44.253906 28.335938 42.832031 26.664062 40.425781 25.496094 C 38.035156 24.335938 36.34375 24.617188 34.820312 26.429688 C 33.429688 28.089844 33.417969 28.839844 34.792969 27.933594 C 36.507812 26.804688 38.78125 27.03125 40.210938 28.464844 C 44.503906 32.769531 41.148438 41.246094 34.203125 43.644531 C 31.886719 44.445312 27.734375 44.257812 25.511719 43.253906 Z M 35.175781 41.847656 C 36.042969 41.179688 37.046875 40.070312 37.40625 39.378906 C 38.738281 36.796875 37.847656 32.410156 35.863281 31.78125 C 34.660156 31.394531 33.601562 32.414062 31.566406 35.910156 C 29.394531 39.644531 28.566406 40.332031 25.945312 40.582031 C 24.054688 40.765625 23.84375 40.878906 24.316406 41.453125 C 25.382812 42.742188 27.394531 43.296875 30.527344 43.175781 C 33.113281 43.070312 33.839844 42.867188 35.175781 41.847656 Z M 30.144531 31.460938 C 30.636719 30.925781 31.640625 29.398438 32.378906 28.070312 C 34.304688 24.613281 35.445312 23.675781 38.054688 23.425781 C 40.148438 23.226562 40.214844 23.179688 39.53125 22.421875 C 38.425781 21.195312 36.078125 20.613281 33.042969 20.804688 C 29.980469 21.003906 28.542969 21.796875 26.917969 24.191406 C 24.316406 28.03125 27.246094 34.636719 30.144531 31.464844 Z M 21.839844 36.296875 C 18.003906 32.75 16.398438 26.871094 17.53125 20.507812 C 18.304688 16.144531 18.304688 16.042969 17.503906 17.0625 C 16.921875 17.800781 16.925781 17.6875 17.519531 16.171875 C 19.753906 10.492188 26.574219 4.554688 32.96875 2.722656 C 36.445312 1.726562 38.183594 2.039062 35.027344 3.089844 C 29.488281 4.9375 23.746094 9.210938 21.847656 12.894531 L 21.078125 14.390625 L 22.199219 13.652344 C 23.96875 12.488281 24.214844 12.714844 24.214844 15.519531 C 24.214844 18.960938 25.117188 19.988281 27.789062 19.597656 L 29.621094 19.328125 L 27.675781 20.386719 C 24.113281 22.324219 20.546875 24.636719 20 25.371094 C 19.308594 26.296875 19.304688 29.4375 19.992188 31.738281 C 20.316406 32.828125 21.378906 34.414062 22.71875 35.800781 C 25.308594 38.488281 24.625 38.875 21.835938 36.296875 Z M 26.667969 18.265625 C 25.964844 17.5625 26.515625 15.027344 28.109375 11.613281 C 29.054688 9.585938 29.832031 7.617188 29.832031 7.234375 C 29.835938 6.371094 33.136719 4.554688 36.539062 3.546875 C 39.320312 2.722656 45.648438 2.488281 48.621094 3.09375 C 50.144531 3.402344 50.265625 3.367188 49.757812 2.753906 C 47.84375 0.445312 55.730469 3.890625 59.390625 6.96875 C 62.640625 9.699219 65.023438 13.347656 63.558594 13.347656 C 63.316406 13.347656 61.613281 12.144531 59.773438 10.675781 C 56.03125 7.6875 53.363281 5.203125 49.40625 4.46875 C 46.492188 3.925781 43.328125 4.734375 40.644531 5.996094 C 36.402344 7.992188 29.933594 12.488281 29.933594 15.132812 C 29.933594 15.546875 30.695312 17.183594 31.214844 17.671875 L 32.164062 18.554688 L 29.558594 18.554688 C 28.125 18.554688 26.824219 18.417969 26.667969 18.265625 Z M 26.667969 18.265625 "/>
</g>
</svg>
