<svg xmlns="http://www.w3.org/2000/svg" xmlns:xlink="http://www.w3.org/1999/xlink" width="64" height="64" viewBox="0 0 64 64" version="1.1">
<defs>
<linearGradient id="linear0" gradientUnits="userSpaceOnUse" x1="0" y1="0" x2="0" y2="1" gradientTransform="matrix(64,0,0,60.019531,0,1.992188)">
<stop offset="0" style="stop-color:#ff6666;stop-opacity:1;"/>
<stop offset="1" style="stop-color:#d90000;stop-opacity:1;"/>
</linearGradient>
</defs>
<g id="surface1">
<path style=" stroke:none;fill-rule:evenodd;fill:url(#linear0);" d="M 31.566406 2.003906 C 32.132812 1.996094 32.785156 1.984375 33.316406 2.003906 C 37.472656 2.140625 42.363281 3.519531 46.503906 6.003906 C 35.9375 14.003906 35.746094 14.289062 31.320312 19.003906 C 29.996094 20.40625 28.699219 21.714844 27.453125 23.125 C 26.660156 23.949219 25.871094 24.648438 25.078125 25.5 C 24.9375 25.671875 24.722656 25.820312 24.578125 26 C 23.648438 21.773438 12.179688 25.472656 11.980469 15.125 C 11.789062 5.210938 23.128906 2.125 31.566406 2.003906 Z M 23.957031 8.128906 C 20.644531 8.125 17.960938 10.808594 17.957031 14.121094 C 17.953125 17.433594 20.636719 20.117188 23.949219 20.121094 C 27.261719 20.121094 29.945312 17.441406 29.949219 14.128906 C 29.949219 10.8125 27.265625 8.128906 23.957031 8.128906 Z M 53.035156 10.777344 L 53.03125 10.773438 C 58.265625 16.125 63.171875 24.257812 63.882812 33.253906 C 65.546875 54.195312 49.03125 64.515625 33.441406 61.492188 C 23.707031 59.609375 20.714844 54.5 20.46875 48.621094 C 25.316406 44.007812 29.707031 39.808594 33.066406 36.246094 C 34.902344 34.371094 36.996094 31.757812 39.554688 29.125 C 43.5625 25 47.355469 19.707031 53.035156 10.777344 Z M 54.402344 26 C 52.195312 26 50.402344 27.789062 50.402344 30 C 50.402344 32.207031 52.195312 34 54.402344 34 C 56.613281 34 58.402344 32.207031 58.402344 30 C 58.402344 27.789062 56.613281 26 54.402344 26 Z M 51.90625 38 C 49.699219 38 47.90625 39.789062 47.90625 42 C 47.90625 44.207031 49.699219 46 51.90625 46 C 54.117188 46 55.90625 44.207031 55.90625 42 C 55.90625 39.789062 54.117188 38 51.90625 38 Z M 31.945312 46 L 31.945312 45.996094 C 29.734375 45.996094 27.945312 47.785156 27.945312 49.996094 C 27.945312 52.203125 29.734375 53.996094 31.945312 53.996094 C 34.105469 53.929688 35.816406 52.15625 35.816406 49.996094 C 35.816406 47.835938 34.105469 46.066406 31.945312 46 Z M 43.921875 46 L 43.921875 45.996094 C 41.710938 45.996094 39.921875 47.785156 39.921875 49.996094 C 39.921875 52.203125 41.710938 53.996094 43.921875 53.996094 C 46.078125 53.929688 47.792969 52.15625 47.792969 49.996094 C 47.792969 47.835938 46.078125 46.066406 43.921875 46 Z M 13.015625 46.515625 C 11.8125 45.820312 10.253906 45.753906 8.59375 46.847656 C 5.574219 48.839844 6.207031 55.992188 0 55.988281 C 0.589844 58.394531 6.945312 58.363281 11.234375 57.292969 C 15.289062 56.28125 16.527344 52.722656 15.757812 49.753906 C 15.644531 49.324219 15.457031 48.882812 15.164062 48.476562 C 23.175781 41.871094 28.734375 36.4375 32.570312 32.363281 C 33.53125 31.378906 34.691406 30.101562 35.976562 28.671875 C 40.792969 23.332031 47.675781 14.921875 56.148438 2.003906 C 48.949219 7.199219 39.324219 15.210938 31.691406 23.339844 C 30.996094 24.074219 30.328125 24.789062 29.671875 25.527344 C 29.261719 25.957031 28.824219 26.308594 28.410156 26.757812 C 28.152344 27.0625 27.90625 27.40625 27.652344 27.714844 C 22.453125 33.464844 17.304688 40.253906 13.015625 46.515625 Z M 13.015625 46.515625 "/>
</g>
</svg>
