<svg xmlns="http://www.w3.org/2000/svg" xmlns:xlink="http://www.w3.org/1999/xlink" width="64" height="64" viewBox="0 0 64 64" version="1.1">
<defs>
<linearGradient id="linear0" gradientUnits="userSpaceOnUse" x1="0" y1="0" x2="0" y2="1" gradientTransform="matrix(64,0,0,56,0,4)">
<stop offset="0" style="stop-color:#ff6666;stop-opacity:1;"/>
<stop offset="1" style="stop-color:#d90000;stop-opacity:1;"/>
</linearGradient>
</defs>
<g id="surface1">
<path style=" stroke:none;fill-rule:nonzero;fill:url(#linear0);" d="M 61.179688 4 C 60.46875 4.023438 59.792969 4.34375 59.292969 4.894531 L 35.097656 30.988281 L 24.589844 19.65625 C 23.523438 18.507812 21.789062 18.507812 20.722656 19.65625 L 0.800781 41.132812 C -0.269531 42.285156 -0.265625 44.15625 0.804688 45.308594 C 1.875 46.460938 3.609375 46.460938 4.679688 45.304688 L 22.652344 25.921875 L 33.160156 37.253906 C 33.671875 37.808594 34.371094 38.121094 35.097656 38.121094 C 35.824219 38.121094 36.523438 37.808594 37.035156 37.253906 L 63.171875 9.070312 C 63.980469 8.21875 64.222656 6.921875 63.78125 5.800781 C 63.339844 4.679688 62.308594 3.964844 61.179688 4 Z M 57.996094 23.753906 C 56.894531 23.753906 56.003906 24.714844 56.003906 25.90625 L 56.003906 57.839844 C 56.003906 59.03125 56.894531 59.992188 57.996094 59.992188 L 58.988281 59.992188 C 60.09375 59.992188 60.984375 59.03125 60.984375 57.839844 L 60.984375 25.90625 C 60.984375 24.714844 60.09375 23.753906 58.988281 23.753906 Z M 49.039062 33.148438 C 47.933594 33.148438 47.050781 34.105469 47.050781 35.296875 L 47.050781 57.851562 C 47.050781 59.039062 47.933594 59.992188 49.039062 59.992188 L 50.039062 59.992188 C 51.140625 59.992188 52.023438 59.039062 52.023438 57.851562 L 52.023438 35.296875 C 52.023438 34.105469 51.140625 33.148438 50.039062 33.148438 Z M 22.402344 36.503906 C 21.296875 36.503906 20.40625 37.460938 20.40625 38.652344 L 20.40625 57.839844 C 20.40625 59.03125 21.296875 59.992188 22.402344 59.992188 L 23.394531 59.992188 C 24.496094 59.992188 25.386719 59.03125 25.386719 57.839844 L 25.386719 38.652344 C 25.386719 37.460938 24.496094 36.503906 23.394531 36.503906 Z M 40.328125 41.738281 C 39.226562 41.738281 38.335938 42.699219 38.335938 43.886719 L 38.335938 57.839844 C 38.335938 59.03125 39.226562 59.992188 40.328125 59.992188 L 41.320312 59.992188 C 42.425781 59.992188 43.316406 59.03125 43.316406 57.839844 L 43.316406 43.886719 C 43.316406 42.699219 42.425781 41.738281 41.320312 41.738281 Z M 31.367188 43.347656 C 30.265625 43.347656 29.375 44.300781 29.375 45.492188 L 29.375 57.839844 C 29.375 59.03125 30.265625 59.992188 31.367188 59.992188 L 32.363281 59.992188 C 33.464844 59.992188 34.355469 59.03125 34.355469 57.839844 L 34.355469 45.492188 C 34.355469 44.300781 33.464844 43.347656 32.363281 43.347656 Z M 13.441406 43.898438 C 12.339844 43.898438 11.457031 44.855469 11.457031 46.046875 L 11.457031 57.859375 C 11.457031 59.046875 12.339844 60 13.441406 60 L 14.441406 60 C 15.546875 60 16.429688 59.046875 16.429688 57.859375 L 16.429688 46.046875 C 16.429688 44.855469 15.546875 43.898438 14.441406 43.898438 Z M 4.492188 49.265625 C 3.386719 49.265625 2.496094 50.21875 2.496094 51.410156 L 2.496094 57.851562 C 2.496094 59.039062 3.386719 60 4.492188 60 L 5.484375 60 C 6.585938 60 7.476562 59.039062 7.476562 57.851562 L 7.476562 51.410156 C 7.476562 50.21875 6.585938 49.265625 5.484375 49.265625 Z M 4.492188 49.265625 "/>
</g>
</svg>
