<svg xmlns="http://www.w3.org/2000/svg" xmlns:xlink="http://www.w3.org/1999/xlink" width="64" height="64" viewBox="0 0 64 64" version="1.1">
<defs>
<linearGradient id="linear0" gradientUnits="userSpaceOnUse" x1="0" y1="0" x2="0" y2="1" gradientTransform="matrix(64,0,0,52,0,6)">
<stop offset="0" style="stop-color:#ff6666;stop-opacity:1;"/>
<stop offset="1" style="stop-color:#d90000;stop-opacity:1;"/>
</linearGradient>
</defs>
<g id="surface1">
<path style=" stroke:none;fill-rule:nonzero;fill:url(#linear0);" d="M 29.867188 6 L 29.867188 8.167969 L 34.132812 8.167969 L 34.132812 6 Z M 29.867188 10.332031 L 29.867188 12.5 L 34.132812 12.5 L 34.132812 10.332031 Z M 29.867188 14.667969 L 29.867188 27.667969 L 14.933594 27.667969 C 14.789062 27.664062 14.648438 27.675781 14.507812 27.707031 C 7.941406 27.898438 2.21875 32.433594 0.507812 38.910156 C -1.238281 45.53125 1.621094 52.546875 7.464844 55.976562 C 13.261719 59.375 20.589844 58.417969 25.367188 53.671875 L 38.632812 53.671875 C 43.410156 58.417969 50.738281 59.375 56.535156 55.976562 C 62.378906 52.546875 65.238281 45.53125 63.492188 38.910156 C 61.78125 32.425781 56.046875 27.886719 49.464844 27.707031 C 49.335938 27.675781 49.199219 27.667969 49.066406 27.667969 L 34.132812 27.667969 L 34.132812 14.667969 Z M 14.933594 32.003906 L 49.066406 32.003906 C 53.90625 32.003906 58.121094 35.289062 59.375 40.035156 C 60.628906 44.78125 58.589844 49.765625 54.398438 52.222656 C 50.441406 54.546875 45.542969 54.007812 42.125 51.011719 C 41.566406 50.453125 41.019531 49.324219 40.015625 49.335938 L 23.984375 49.335938 C 22.984375 49.324219 22.300781 50.496094 21.882812 51.003906 C 18.464844 54.007812 13.5625 54.546875 9.601562 52.222656 C 5.410156 49.765625 3.382812 44.78125 4.632812 40.035156 C 5.886719 35.289062 10.09375 32.003906 14.933594 32.003906 Z M 12.800781 36.335938 L 12.800781 40.667969 L 8.535156 40.667969 L 8.535156 45.003906 L 12.800781 45.003906 L 12.800781 49.335938 L 17.066406 49.335938 L 17.066406 45.003906 L 21.332031 45.003906 L 21.332031 40.667969 L 17.066406 40.667969 L 17.066406 36.335938 Z M 49.066406 36.335938 C 47.886719 36.335938 46.933594 37.304688 46.933594 38.503906 C 46.933594 39.699219 47.886719 40.667969 49.066406 40.667969 C 50.246094 40.667969 51.199219 39.699219 51.199219 38.503906 C 51.199219 37.304688 50.246094 36.335938 49.066406 36.335938 Z M 44.800781 40.667969 C 43.621094 40.667969 42.667969 41.640625 42.667969 42.835938 C 42.667969 44.035156 43.621094 45.003906 44.800781 45.003906 C 45.976562 45.003906 46.933594 44.035156 46.933594 42.835938 C 46.933594 41.640625 45.976562 40.667969 44.800781 40.667969 Z M 53.332031 40.667969 C 52.15625 40.667969 51.199219 41.640625 51.199219 42.835938 C 51.199219 44.035156 52.15625 45.003906 53.332031 45.003906 C 54.511719 45.003906 55.464844 44.035156 55.464844 42.835938 C 55.464844 41.640625 54.511719 40.667969 53.332031 40.667969 Z M 49.066406 45.003906 C 47.886719 45.003906 46.933594 45.972656 46.933594 47.171875 C 46.933594 48.367188 47.886719 49.335938 49.066406 49.335938 C 50.246094 49.335938 51.199219 48.367188 51.199219 47.171875 C 51.199219 45.972656 50.246094 45.003906 49.066406 45.003906 Z M 49.066406 45.003906 "/>
</g>
</svg>
