<svg xmlns="http://www.w3.org/2000/svg" xmlns:xlink="http://www.w3.org/1999/xlink" width="64" height="64" viewBox="0 0 64 64" version="1.1">
<defs>
<linearGradient id="linear0" gradientUnits="userSpaceOnUse" x1="0" y1="0" x2="0" y2="1" gradientTransform="matrix(64,0,0,34.46875,0,15.53125)">
<stop offset="0" style="stop-color:#ff6666;stop-opacity:1;"/>
<stop offset="1" style="stop-color:#d90000;stop-opacity:1;"/>
</linearGradient>
</defs>
<g id="surface1">
<path style=" stroke:none;fill-rule:nonzero;fill:url(#linear0);" d="M 0 15.53125 L 0 21.085938 L 64 21.085938 L 64 15.53125 Z M 3.53125 23.867188 L 3.53125 44.445312 L 0 44.445312 L 0 50 L 64 50 L 64 44.445312 L 42.453125 44.445312 L 42.453125 29.429688 L 53.570312 29.429688 L 53.570312 34.992188 L 45.234375 34.992188 L 45.234375 40.546875 L 59.132812 40.546875 L 59.132812 23.867188 L 36.890625 23.867188 L 36.890625 44.445312 L 9.09375 44.445312 L 9.09375 29.429688 L 20.210938 29.429688 L 20.210938 34.992188 L 11.867188 34.992188 L 11.867188 40.546875 L 25.773438 40.546875 L 25.773438 23.867188 Z M 3.53125 23.867188 "/>
</g>
</svg>
