<svg xmlns="http://www.w3.org/2000/svg" xmlns:xlink="http://www.w3.org/1999/xlink" width="64" height="64" viewBox="0 0 64 64" version="1.1">
<defs>
<linearGradient id="linear0" gradientUnits="userSpaceOnUse" x1="0" y1="0" x2="0" y2="1" gradientTransform="matrix(82.873152,0,0,81.69886,-8.584262,-8.849262)">
<stop offset="0" style="stop-color:#ff6666;stop-opacity:1;"/>
<stop offset="1" style="stop-color:#d90000;stop-opacity:1;"/>
</linearGradient>
</defs>
<g id="surface1">
<path style=" stroke:none;fill-rule:nonzero;fill:url(#linear0);" d="M 14.722656 11.574219 L 27.667969 11.574219 C 29.097656 11.574219 30.257812 12.714844 30.257812 14.125 L 30.257812 26.890625 C 30.257812 28.300781 29.097656 29.441406 27.667969 29.441406 L 14.722656 29.441406 C 13.289062 29.441406 12.132812 28.300781 12.132812 26.890625 L 12.132812 14.125 C 12.132812 12.714844 13.289062 11.574219 14.722656 11.574219 Z M 14.722656 11.574219 "/>
<path style=" stroke:none;fill-rule:nonzero;fill:url(#linear0);fill-opacity:1;" d="M 38.027344 11.574219 C 36.589844 11.574219 35.4375 12.710938 35.4375 14.125 L 35.4375 26.890625 C 35.4375 28.304688 36.589844 29.441406 38.027344 29.441406 L 50.972656 29.441406 C 52.410156 29.441406 53.5625 28.304688 53.5625 26.890625 L 53.5625 14.125 C 53.5625 12.710938 52.410156 11.574219 50.972656 11.574219 Z M 38.027344 14.125 L 50.972656 14.125 L 50.972656 26.890625 L 38.027344 26.890625 Z M 38.027344 34.546875 C 36.589844 34.546875 35.4375 35.683594 35.4375 37.101562 L 35.4375 49.863281 C 35.4375 51.28125 36.589844 52.417969 38.027344 52.417969 L 50.972656 52.417969 C 52.410156 52.417969 53.5625 51.28125 53.5625 49.863281 L 53.5625 37.101562 C 53.5625 35.683594 52.410156 34.546875 50.972656 34.546875 Z M 38.027344 37.101562 L 50.972656 37.101562 L 50.972656 49.863281 L 38.027344 49.863281 Z M 14.722656 34.546875 C 13.285156 34.546875 12.132812 35.683594 12.132812 37.101562 L 12.132812 49.863281 C 12.132812 51.28125 13.285156 52.417969 14.722656 52.417969 L 27.667969 52.417969 C 29.105469 52.417969 30.257812 51.28125 30.257812 49.863281 L 30.257812 37.101562 C 30.257812 35.683594 29.105469 34.546875 27.667969 34.546875 Z M 14.722656 37.101562 L 27.667969 37.101562 L 27.667969 49.863281 L 14.722656 49.863281 Z M 14.722656 37.101562 "/>
</g>
</svg>
