<svg xmlns="http://www.w3.org/2000/svg" xmlns:xlink="http://www.w3.org/1999/xlink" width="64" height="64" viewBox="0 0 64 64" version="1.1">
<defs>
<filter id="alpha" filterUnits="objectBoundingBox" x="0%" y="0%" width="100%" height="100%">
  <feColorMatrix type="matrix" in="SourceGraphic" values="0 0 0 0 1 0 0 0 0 1 0 0 0 0 1 0 0 0 1 0"/>
</filter>
<mask id="mask0">
  <g filter="url(#alpha)">
<rect x="0" y="0" width="64" height="64" style="fill:rgb(0%,0%,0%);fill-opacity:0.5;stroke:none;"/>
  </g>
</mask>
<linearGradient id="linear0" gradientUnits="userSpaceOnUse" x1="0" y1="0" x2="0" y2="1" gradientTransform="matrix(-36.570312,0,0,4.570312,41.160156,41.160156)">
<stop offset="0" style="stop-color:#ff6666;stop-opacity:1;"/>
<stop offset="1" style="stop-color:#d90000;stop-opacity:1;"/>
</linearGradient>
<clipPath id="clip1">
  <rect x="0" y="0" width="64" height="64"/>
</clipPath>
<g id="surface5" clip-path="url(#clip1)">
<path style=" stroke:none;fill-rule:nonzero;fill:url(#linear0);" d="M 38.875 41.160156 L 6.871094 41.160156 C 5.609375 41.160156 4.589844 42.183594 4.589844 43.445312 L 4.589844 43.449219 C 4.589844 44.710938 5.609375 45.730469 6.871094 45.730469 L 38.875 45.730469 C 40.136719 45.730469 41.160156 44.710938 41.160156 43.449219 L 41.160156 43.445312 C 41.160156 42.183594 40.136719 41.160156 38.875 41.160156 Z M 38.875 41.160156 "/>
</g>
<linearGradient id="linear1" gradientUnits="userSpaceOnUse" x1="0" y1="0" x2="0" y2="1" gradientTransform="matrix(64,0,0,64,0,0)">
<stop offset="0" style="stop-color:#ff6666;stop-opacity:1;"/>
<stop offset="1" style="stop-color:#d90000;stop-opacity:1;"/>
</linearGradient>
</defs>
<g id="surface1">
<use xlink:href="#surface5" mask="url(#mask0)"/>
<path style=" stroke:none;fill-rule:nonzero;fill:url(#linear1);" d="M 26.3125 0 C 24.097656 4.617188 21.96875 9.296875 19.9375 14.035156 C 17.90625 18.714844 15.84375 23.640625 13.75 28.8125 C 12.789062 31.253906 11.769531 33.992188 10.785156 36.570312 L 6.855469 36.570312 C 3.058594 36.570312 0 39.628906 0 43.429688 C 0 46.816406 2.4375 49.59375 5.660156 50.160156 C 4.011719 54.589844 2.363281 59 0.542969 64 L 12.695312 64 L 17.582031 50.285156 L 51.222656 50.285156 C 51.78125 51.835938 52.328125 53.359375 52.902344 54.945312 C 53.949219 57.839844 55.054688 60.859375 56.222656 64 L 63.152344 64 C 61.277344 59.058594 59.605469 54.632812 57.9375 50.207031 C 61.355469 49.808594 64 46.953125 64 43.429688 C 64 39.628906 60.941406 36.570312 57.144531 36.570312 L 52.707031 36.570312 C 51.71875 34.046875 50.730469 31.460938 49.757812 29.089844 C 47.726562 23.917969 45.691406 18.964844 43.660156 14.222656 C 41.628906 9.484375 39.472656 4.742188 37.195312 0 Z M 34.242188 7.207031 C 36.582031 12.5 38.863281 17.886719 41.082031 23.367188 C 42.730469 27.445312 44.453125 32.011719 46.167969 36.570312 L 22.464844 36.570312 C 23.921875 32.558594 25.375 28.550781 26.832031 24.75 C 28.402344 20.71875 30.03125 16.828125 31.722656 13.070312 L 31.722656 13 C 32.554688 11.054688 33.394531 9.125 34.242188 7.207031 Z M 6.855469 41.144531 L 57.445312 41.144531 C 58.542969 41.144531 59.429688 42.027344 59.429688 43.125 L 59.429688 43.730469 C 59.429688 44.832031 58.542969 45.714844 57.445312 45.714844 L 6.855469 45.714844 C 5.589844 45.714844 4.570312 44.695312 4.570312 43.429688 C 4.570312 42.164062 5.589844 41.144531 6.855469 41.144531 Z M 6.855469 41.144531 "/>
</g>
</svg>
