<svg xmlns="http://www.w3.org/2000/svg" xmlns:xlink="http://www.w3.org/1999/xlink" width="64" height="64" viewBox="0 0 64 64" version="1.1">
<defs>
<linearGradient id="linear0" gradientUnits="userSpaceOnUse" x1="0" y1="0" x2="0" y2="1" gradientTransform="matrix(43.578125,0,0,64,10,0)">
<stop offset="0" style="stop-color:#ff6666;stop-opacity:1;"/>
<stop offset="1" style="stop-color:#d90000;stop-opacity:1;"/>
</linearGradient>
</defs>
<g id="surface1">
<path style=" stroke:none;fill-rule:nonzero;fill:url(#linear0);" d="M 27.699219 0 C 25.714844 0 25.652344 0.0078125 25.472656 0.28125 C 25.324219 0.507812 22.476562 6.488281 20.375 10.992188 C 20.152344 11.472656 19.453125 12.953125 18.820312 14.285156 C 17.433594 17.210938 14.742188 22.914062 14.101562 24.285156 C 13.847656 24.832031 13.132812 26.339844 12.511719 27.636719 C 11.308594 30.164062 10.769531 31.617188 10.421875 33.261719 C 10.234375 34.152344 10.226562 34.3125 10.382812 34.457031 C 10.535156 34.597656 13.171875 35.125 14.878906 35.355469 C 16.203125 35.535156 15.460938 35.648438 12.996094 35.648438 C 10.792969 35.648438 10.359375 35.679688 10.195312 35.84375 C 10.035156 36.003906 10 36.375 10 37.929688 C 10 39.238281 10.046875 39.867188 10.148438 39.972656 C 10.253906 40.078125 10.996094 40.121094 12.6875 40.121094 C 14.003906 40.121094 15.105469 40.167969 15.140625 40.222656 C 15.199219 40.320312 13.652344 40.640625 11.398438 41.003906 C 10.902344 41.085938 10.429688 41.230469 10.347656 41.332031 C 10.035156 41.710938 10.90625 44.855469 11.933594 47.054688 C 12.917969 49.152344 14.304688 51.183594 15.886719 52.839844 C 16.339844 53.308594 16.707031 53.730469 16.707031 53.777344 C 16.707031 53.824219 16.511719 54.050781 16.273438 54.28125 C 15.625 54.910156 15.683594 55.210938 16.597656 55.949219 C 20.214844 58.875 24.527344 60.640625 29.316406 61.160156 C 29.589844 61.1875 30.761719 61.191406 31.921875 61.167969 C 35.128906 61.105469 37.554688 60.601562 40.492188 59.394531 C 42.847656 58.421875 46.53125 56.039062 46.621094 55.425781 C 46.644531 55.253906 46.488281 54.945312 46.199219 54.589844 L 45.742188 54.027344 L 46.753906 53.003906 C 49.445312 50.28125 51.339844 46.894531 52.269531 43.148438 C 52.613281 41.761719 52.632812 41.585938 52.460938 41.414062 C 52.339844 41.296875 51.375 41.066406 49.859375 40.796875 C 48.535156 40.5625 47.40625 40.371094 47.351562 40.371094 C 47.292969 40.371094 47.285156 40.3125 47.328125 40.242188 C 47.378906 40.160156 48.339844 40.117188 50.003906 40.125 C 51.429688 40.132812 52.65625 40.105469 52.726562 40.058594 C 52.914062 39.941406 52.894531 35.988281 52.703125 35.796875 C 52.597656 35.691406 51.761719 35.648438 49.722656 35.648438 C 46.992188 35.648438 46.101562 35.523438 47.621094 35.351562 C 48.023438 35.304688 49.070312 35.128906 49.945312 34.960938 C 50.820312 34.792969 51.660156 34.65625 51.808594 34.65625 C 51.957031 34.65625 52.207031 34.554688 52.359375 34.429688 L 52.636719 34.203125 L 52.238281 32.660156 C 52.015625 31.808594 51.808594 31 51.777344 30.859375 C 51.722656 30.636719 51.832031 30.5625 52.601562 30.300781 C 53.238281 30.082031 53.5 29.929688 53.542969 29.75 C 53.578125 29.613281 53.585938 28.019531 53.570312 26.207031 C 53.535156 22.992188 53.527344 22.894531 53.191406 21.90625 C 53.003906 21.347656 52.78125 20.871094 52.695312 20.84375 C 52.613281 20.816406 51.816406 20.828125 50.929688 20.863281 L 49.3125 20.929688 L 48.941406 22.074219 C 48.734375 22.707031 48.515625 23.203125 48.449219 23.183594 C 48.382812 23.164062 47.804688 22.035156 47.164062 20.671875 C 39.9375 5.332031 37.554688 0.316406 37.425781 0.15625 C 37.332031 0.0429688 36.738281 0 35.265625 0 C 33.386719 0 33.226562 0.0195312 33.109375 0.242188 C 33.027344 0.394531 32.980469 2.207031 32.980469 5.269531 L 32.980469 10.0625 L 30 10.0625 L 30 5.269531 C 30 2.207031 29.953125 0.394531 29.871094 0.242188 C 29.75 0.0195312 29.589844 0 27.699219 0 Z M 26.183594 0.992188 L 29.003906 0.992188 L 29.003906 10.066406 L 28.695312 10.183594 C 28.414062 10.289062 28.382812 10.378906 28.363281 11.019531 C 28.351562 11.414062 28.332031 11.820312 28.320312 11.925781 C 28.3125 12.027344 28.257812 13.132812 28.207031 14.378906 C 28.113281 16.5625 28.101562 16.648438 27.84375 16.699219 C 24.515625 17.363281 21.851562 18.433594 19.371094 20.101562 C 18.761719 20.511719 17.742188 21.300781 17.109375 21.855469 C 16.480469 22.410156 15.960938 22.828125 15.960938 22.785156 C 15.960938 22.742188 16.363281 21.859375 16.851562 20.824219 C 17.339844 19.789062 17.972656 18.4375 18.261719 17.824219 C 18.550781 17.210938 20.253906 13.605469 22.042969 9.8125 C 23.835938 6.023438 25.5 2.484375 25.742188 1.957031 Z M 33.972656 0.992188 L 35.371094 0.996094 L 36.769531 0.996094 L 38.597656 4.878906 C 40.285156 8.460938 41.230469 10.464844 45.570312 19.65625 C 46.433594 21.484375 47.140625 23.007812 47.140625 23.042969 C 47.140625 23.203125 46.894531 23.011719 46.207031 22.324219 C 43.449219 19.5625 39.5625 17.609375 35.011719 16.699219 C 34.691406 16.636719 34.636719 16.242188 34.527344 13.230469 C 34.445312 10.867188 34.382812 10.371094 34.148438 10.175781 C 34.003906 10.054688 33.972656 9.265625 33.972656 5.511719 Z M 26.28125 5.726562 C 25.628906 5.671875 24.945312 5.96875 24.582031 6.527344 C 24.089844 7.273438 24.457031 8.558594 25.28125 8.972656 C 25.804688 9.238281 26.265625 9.25 26.832031 9.011719 C 28.03125 8.511719 28.078125 6.511719 26.90625 5.90625 C 26.710938 5.804688 26.496094 5.746094 26.28125 5.726562 Z M 36.839844 5.726562 C 36.1875 5.671875 35.503906 5.96875 35.140625 6.527344 C 34.648438 7.273438 35.015625 8.558594 35.839844 8.972656 C 36.363281 9.238281 36.824219 9.25 37.390625 9.011719 C 38.589844 8.511719 38.636719 6.511719 37.460938 5.90625 C 37.265625 5.804688 37.054688 5.746094 36.839844 5.726562 Z M 26.105469 6.707031 C 26.71875 6.707031 27 7.648438 26.492188 8.003906 C 26.339844 8.113281 26.15625 8.199219 26.085938 8.199219 C 26.011719 8.199219 25.832031 8.113281 25.679688 8.003906 C 25.148438 7.632812 25.457031 6.707031 26.105469 6.707031 Z M 36.664062 6.707031 C 37.277344 6.707031 37.558594 7.648438 37.050781 8.003906 C 36.6875 8.257812 36.417969 8.25 36.167969 7.96875 C 35.742188 7.503906 36.058594 6.707031 36.664062 6.707031 Z M 29.394531 11.054688 L 31.378906 11.054688 C 32.851562 11.054688 33.375 11.09375 33.414062 11.210938 C 33.441406 11.296875 33.554688 13.40625 33.65625 15.898438 C 33.761719 18.394531 33.875 20.796875 33.90625 21.242188 C 33.9375 21.683594 34 22.941406 34.042969 24.035156 C 34.085938 25.128906 34.140625 26.191406 34.164062 26.394531 C 34.183594 26.601562 34.214844 27.410156 34.226562 28.195312 L 34.253906 29.625 L 33.429688 29.660156 L 32.605469 29.699219 L 32.605469 28.890625 C 32.605469 28.046875 32.429688 27.769531 31.984375 27.921875 C 31.683594 28.023438 31.617188 28.214844 31.613281 28.972656 C 31.613281 29.652344 31.597656 29.6875 31.300781 29.6875 C 31.003906 29.6875 30.992188 29.65625 30.992188 28.882812 C 30.992188 28.046875 30.8125 27.769531 30.371094 27.921875 C 30.070312 28.023438 30 28.214844 30 28.972656 L 30 29.6875 L 28.488281 29.6875 L 28.5625 28.164062 C 28.601562 27.328125 28.691406 25.414062 28.757812 23.910156 C 28.992188 18.738281 29.011719 18.316406 29.066406 17.453125 C 29.097656 16.972656 29.15625 15.632812 29.191406 14.472656 C 29.230469 13.308594 29.289062 12.066406 29.328125 11.707031 Z M 38.203125 11.179688 C 37.523438 11.179688 36.5 11.742188 36.113281 12.328125 C 35.636719 13.046875 35.578125 14.175781 35.972656 14.96875 C 36.285156 15.589844 36.714844 15.964844 37.4375 16.230469 C 38.425781 16.601562 39.808594 16.148438 40.398438 15.257812 C 40.867188 14.550781 40.945312 13.3125 40.570312 12.574219 C 40.144531 11.738281 39.195312 11.179688 38.203125 11.179688 Z M 24.335938 11.203125 C 24.121094 11.207031 23.90625 11.238281 23.707031 11.304688 C 22.550781 11.675781 21.898438 12.574219 21.898438 13.804688 C 21.898438 14.984375 22.484375 15.796875 23.632812 16.226562 C 24.261719 16.460938 25.179688 16.351562 25.839844 15.964844 C 26.933594 15.324219 27.324219 13.707031 26.6875 12.472656 C 26.289062 11.703125 25.273438 11.1875 24.335938 11.203125 Z M 38.261719 12.171875 C 38.800781 12.171875 39.6875 12.765625 39.6875 13.125 C 39.6875 13.253906 39.363281 13.289062 38.257812 13.289062 C 37.472656 13.289062 36.832031 13.246094 36.832031 13.195312 C 36.832031 12.785156 37.6875 12.171875 38.261719 12.171875 Z M 24.558594 12.191406 C 25.039062 12.21875 25.492188 12.484375 25.78125 12.957031 C 26.269531 13.757812 25.964844 14.792969 25.117188 15.195312 C 24.550781 15.464844 24.1875 15.457031 23.703125 15.160156 C 23.160156 14.828125 22.902344 14.398438 22.894531 13.796875 C 22.886719 13.203125 23.152344 12.75 23.703125 12.417969 C 23.976562 12.25 24.269531 12.175781 24.558594 12.191406 Z M 38.289062 14.25 C 39.410156 14.269531 39.738281 14.3125 39.707031 14.433594 C 39.644531 14.679688 39.289062 15.035156 38.917969 15.230469 C 38.453125 15.46875 37.957031 15.445312 37.488281 15.160156 C 37.121094 14.9375 36.832031 14.566406 36.832031 14.324219 C 36.832031 14.269531 37.488281 14.234375 38.289062 14.25 Z M 34.6875 17.730469 L 35.417969 17.820312 C 36.402344 17.941406 38.832031 18.75 40.226562 19.421875 C 42.09375 20.320312 42.101562 19.96875 40.125 22.714844 C 39.183594 24.023438 38.378906 25.117188 38.335938 25.140625 C 38.292969 25.164062 37.8125 24.964844 37.265625 24.699219 C 36.71875 24.429688 35.984375 24.128906 35.632812 24.027344 L 34.996094 23.839844 L 34.917969 21.703125 C 34.871094 20.527344 34.800781 19.152344 34.761719 18.648438 Z M 27.742188 17.761719 L 28.046875 17.761719 L 27.964844 20.089844 C 27.917969 21.371094 27.847656 22.703125 27.808594 23.050781 L 27.738281 23.683594 L 26.851562 23.964844 C 23.304688 25.097656 20.257812 27.703125 18.578125 31.054688 C 18.125 31.953125 17.554688 33.546875 17.390625 34.375 C 17.292969 34.859375 17.417969 34.855469 15.03125 34.410156 C 14.003906 34.21875 12.761719 33.996094 12.265625 33.914062 C 11.75 33.828125 11.367188 33.703125 11.367188 33.617188 C 11.367188 33.539062 11.5 33 11.660156 32.417969 C 13.253906 26.722656 17.296875 21.945312 22.699219 19.378906 C 24.335938 18.601562 26.953125 17.761719 27.742188 17.761719 Z M 42.726562 20.925781 C 43.0625 20.9375 44.6875 22.242188 46.023438 23.59375 C 47.222656 24.804688 48.375 26.257812 48.246094 26.386719 C 48.214844 26.417969 46.859375 26.921875 45.234375 27.503906 C 43.605469 28.089844 42.238281 28.5625 42.191406 28.550781 C 42.144531 28.539062 41.605469 28.019531 40.992188 27.390625 C 40.375 26.765625 39.707031 26.136719 39.5 25.992188 L 39.128906 25.730469 L 39.390625 25.441406 C 39.53125 25.28125 40.308594 24.230469 41.113281 23.105469 C 41.917969 21.976562 42.621094 21.003906 42.679688 20.941406 C 42.6875 20.929688 42.707031 20.925781 42.726562 20.925781 Z M 51.402344 21.734375 C 52.039062 21.71875 52.183594 21.914062 52.296875 22.515625 L 52.382812 22.980469 L 51.066406 22.980469 C 50.339844 22.980469 49.75 22.945312 49.75 22.902344 C 49.75 22.855469 49.8125 22.613281 49.886719 22.355469 C 50.015625 21.925781 50.070312 21.886719 50.585938 21.8125 C 50.925781 21.769531 51.191406 21.738281 51.402344 21.734375 Z M 52.605469 23.960938 L 52.605469 26.015625 C 52.605469 27.144531 52.5625 28.070312 52.511719 28.070312 C 52.394531 28.0625 51.703125 27.5625 51.582031 27.394531 C 51.527344 27.324219 51.5 26.539062 51.519531 25.648438 L 51.550781 24.035156 L 52.078125 23.996094 Z M 49.996094 23.972656 L 50.492188 23.972656 L 50.492188 25.339844 C 50.492188 26.089844 50.480469 26.703125 50.460938 26.695312 C 50.445312 26.691406 50.207031 26.519531 49.933594 26.316406 C 49.449219 25.949219 49.4375 25.925781 49.460938 25.238281 C 49.476562 24.847656 49.488281 24.40625 49.492188 24.253906 C 49.5 24.011719 49.566406 23.972656 49.996094 23.972656 Z M 27.617188 24.8125 C 27.660156 24.8125 27.6875 24.820312 27.699219 24.835938 C 27.734375 24.898438 27.742188 25.164062 27.710938 25.425781 C 27.683594 25.683594 27.617188 26.890625 27.570312 28.101562 C 27.503906 29.785156 27.519531 30.351562 27.636719 30.496094 C 27.753906 30.632812 28.066406 30.679688 28.902344 30.679688 L 30.015625 30.679688 L 29.976562 31.015625 C 29.941406 31.292969 29.84375 31.382812 29.433594 31.5 C 28.765625 31.691406 27.761719 32.207031 27.296875 32.597656 C 27.089844 32.773438 26.898438 32.914062 26.875 32.90625 C 26.851562 32.902344 25.640625 31.910156 24.1875 30.703125 L 21.542969 28.507812 L 22.324219 27.777344 C 23.246094 26.917969 24.167969 26.273438 25.277344 25.710938 C 26.273438 25.210938 27.316406 24.816406 27.617188 24.8125 Z M 35.300781 24.988281 C 35.335938 24.996094 35.382812 25.007812 35.433594 25.023438 C 36.15625 25.195312 38.058594 26.230469 39.09375 27.015625 C 40.078125 27.761719 41.164062 28.871094 41.035156 29 C 41.007812 29.027344 39.671875 29.527344 38.070312 30.105469 C 36.464844 30.683594 34.855469 31.273438 34.496094 31.414062 C 34.136719 31.558594 33.828125 31.667969 33.8125 31.660156 C 33.800781 31.65625 33.519531 31.566406 33.195312 31.46875 C 32.703125 31.316406 32.605469 31.238281 32.605469 30.984375 C 32.605469 30.683594 32.617188 30.679688 33.832031 30.679688 C 34.699219 30.679688 35.101562 30.632812 35.195312 30.515625 C 35.292969 30.398438 35.300781 29.71875 35.214844 28.125 C 35.058594 25.183594 35.03125 24.941406 35.300781 24.988281 Z M 49.253906 27.078125 L 49.6875 27.359375 C 49.921875 27.511719 50.101562 27.691406 50.078125 27.753906 C 50.058594 27.816406 49.347656 28.128906 48.496094 28.445312 C 46.375 29.238281 42.390625 30.71875 39.191406 31.898438 C 35.761719 33.164062 36.097656 33.09375 35.59375 32.664062 C 35.359375 32.464844 35.195312 32.273438 35.226562 32.242188 C 35.257812 32.210938 38.078125 31.171875 41.492188 29.9375 C 44.90625 28.699219 48.046875 27.550781 48.476562 27.382812 Z M 51.140625 28.523438 C 51.285156 28.519531 51.472656 28.613281 51.792969 28.839844 C 52.101562 29.058594 52.316406 29.277344 52.261719 29.328125 C 52.210938 29.375 50.6875 29.949219 48.878906 30.601562 C 47.066406 31.253906 43.828125 32.425781 41.675781 33.207031 C 39.523438 33.988281 37.671875 34.667969 37.558594 34.710938 C 37.414062 34.769531 37.277344 34.667969 37.078125 34.347656 C 36.925781 34.097656 36.820312 33.878906 36.847656 33.855469 C 36.871094 33.832031 37.757812 33.496094 38.816406 33.105469 C 39.875 32.714844 42 31.929688 43.535156 31.359375 C 45.074219 30.789062 47.335938 29.953125 48.5625 29.496094 C 49.789062 29.042969 50.890625 28.621094 51.011719 28.558594 C 51.050781 28.535156 51.09375 28.523438 51.140625 28.523438 Z M 20.878906 29.3125 C 20.972656 29.3125 26.085938 33.574219 26.085938 33.652344 C 26.085938 33.691406 25.863281 34.15625 25.589844 34.6875 L 25.089844 35.648438 L 23.414062 35.636719 C 22.230469 35.625 21.25 35.535156 20.066406 35.320312 C 19.148438 35.15625 18.371094 34.992188 18.339844 34.960938 C 18.226562 34.851562 18.824219 32.890625 19.25 31.972656 C 19.640625 31.121094 20.75 29.3125 20.878906 29.3125 Z M 31.300781 30.679688 C 31.53125 30.679688 31.613281 30.746094 31.613281 30.929688 C 31.613281 31.109375 31.53125 31.175781 31.300781 31.175781 C 31.074219 31.175781 30.992188 31.109375 30.992188 30.929688 C 30.992188 30.746094 31.074219 30.679688 31.300781 30.679688 Z M 50.683594 31.101562 C 50.902344 31.183594 51.523438 33.5625 51.355469 33.667969 C 51.273438 33.714844 50.78125 33.824219 50.261719 33.90625 C 49.738281 33.988281 48.613281 34.1875 47.761719 34.347656 C 45.371094 34.800781 45.039062 34.832031 44.96875 34.636719 C 44.847656 34.289062 44.648438 33.253906 44.695312 33.207031 C 44.824219 33.078125 50.570312 31.058594 50.683594 31.101562 Z M 31.300781 32.171875 C 31.605469 32.171875 31.613281 32.195312 31.613281 33.03125 C 31.613281 33.648438 31.667969 33.949219 31.808594 34.085938 C 32.039062 34.320312 32.054688 34.320312 32.367188 34.152344 C 32.570312 34.046875 32.605469 33.890625 32.605469 33.152344 C 32.605469 32.304688 32.613281 32.28125 32.886719 32.363281 C 33.636719 32.585938 34.753906 33.246094 35.320312 33.800781 C 38.1875 36.609375 37.40625 41.21875 33.765625 42.945312 C 32.890625 43.359375 32.679688 43.410156 31.613281 43.445312 C 30.617188 43.476562 30.304688 43.4375 29.613281 43.1875 C 27.753906 42.515625 26.457031 41.101562 25.945312 39.1875 C 25.277344 36.699219 26.652344 33.847656 29.066406 32.714844 C 29.964844 32.292969 30 32.308594 30 33.15625 C 30 33.660156 30.058594 33.953125 30.191406 34.085938 C 30.425781 34.320312 30.441406 34.320312 30.75 34.152344 C 30.957031 34.042969 30.992188 33.886719 30.992188 33.097656 C 30.992188 32.191406 31 32.171875 31.300781 32.171875 Z M 43.660156 33.554688 L 43.859375 34.238281 C 43.96875 34.613281 44.03125 34.949219 43.996094 34.984375 C 43.964844 35.015625 43.160156 35.179688 42.214844 35.34375 C 40.570312 35.628906 38.320312 35.753906 38.320312 35.554688 C 38.320312 35.503906 39.089844 35.191406 40.027344 34.863281 C 40.96875 34.535156 42.167969 34.105469 42.699219 33.910156 Z M 31.460938 35.292969 C 31.363281 35.292969 31.261719 35.296875 31.160156 35.304688 C 29.839844 35.414062 28.878906 36.484375 28.878906 37.855469 C 28.878906 38.863281 29.527344 39.894531 30.371094 40.230469 C 30.832031 40.414062 32.058594 40.394531 32.53125 40.195312 C 33.433594 39.820312 33.972656 38.929688 33.972656 37.820312 C 33.972656 36.324219 32.9375 35.300781 31.460938 35.292969 Z M 31.425781 36.332031 C 32.078125 36.332031 32.160156 36.367188 32.554688 36.796875 C 32.910156 37.183594 32.980469 37.355469 32.980469 37.832031 C 32.980469 38.554688 32.65625 39.03125 31.984375 39.300781 C 31.371094 39.542969 31.414062 39.546875 30.804688 39.265625 C 30.207031 38.988281 29.875 38.457031 29.875 37.769531 C 29.875 37.363281 29.960938 37.167969 30.300781 36.796875 C 30.695312 36.367188 30.773438 36.332031 31.425781 36.332031 Z M 10.992188 36.640625 L 14.222656 36.640625 L 14.222656 37.386719 L 10.992188 37.386719 Z M 15.21875 36.640625 L 20.03125 36.644531 L 24.84375 36.644531 L 24.84375 39.128906 L 15.21875 39.128906 Z M 38.011719 36.640625 L 47.636719 36.640625 L 47.636719 39.125 L 38.011719 39.125 Z M 48.628906 36.640625 L 51.859375 36.640625 L 51.859375 37.386719 L 48.628906 37.386719 Z M 10.992188 38.382812 L 14.222656 38.382812 L 14.222656 39.125 L 10.992188 39.125 Z M 48.628906 38.382812 L 51.859375 38.382812 L 51.859375 39.125 L 48.628906 39.125 Z M 37.683594 40.121094 L 39.152344 40.125 C 40.449219 40.128906 43.515625 40.554688 43.71875 40.757812 C 43.75 40.789062 43.703125 41.0625 43.609375 41.367188 C 43.136719 42.945312 41.878906 45.054688 40.632812 46.363281 C 40.257812 46.753906 39.933594 47.078125 39.914062 47.078125 C 39.890625 47.078125 39.015625 46.066406 37.972656 44.828125 C 36.394531 42.964844 36.101562 42.554688 36.25 42.4375 C 36.535156 42.207031 37.195312 41.230469 37.449219 40.652344 Z M 23.316406 40.128906 C 24.199219 40.109375 24.980469 40.132812 25.089844 40.214844 C 25.160156 40.265625 25.351562 40.578125 25.519531 40.910156 C 25.6875 41.242188 26.003906 41.738281 26.21875 42.015625 L 26.617188 42.519531 L 24.617188 44.796875 C 23.519531 46.050781 22.550781 47.078125 22.46875 47.078125 C 22.226562 47.078125 20.929688 45.589844 20.210938 44.492188 C 19.527344 43.445312 18.753906 41.8125 18.617188 41.136719 C 18.535156 40.71875 18.382812 40.777344 20.914062 40.3125 C 21.441406 40.214844 22.433594 40.148438 23.316406 40.128906 Z M 44.96875 40.914062 C 44.984375 40.914062 45 40.914062 45.019531 40.917969 C 45.125 40.949219 45.882812 41.09375 46.703125 41.242188 C 49.710938 41.78125 51.402344 42.105469 51.453125 42.160156 C 51.566406 42.269531 50.828125 44.671875 50.3125 45.875 C 49.300781 48.230469 48.105469 50.0625 46.289062 52.039062 C 45.722656 52.65625 45.191406 53.160156 45.109375 53.15625 C 45.03125 53.152344 43.972656 51.96875 42.761719 50.527344 L 40.558594 47.902344 L 41.339844 47.085938 C 42.785156 45.578125 44.003906 43.519531 44.605469 41.578125 C 44.75 41.113281 44.847656 40.925781 44.96875 40.914062 Z M 17.335938 40.992188 C 17.464844 40.992188 17.605469 41.230469 17.753906 41.703125 C 18.335938 43.582031 19.511719 45.558594 20.980469 47.132812 L 21.789062 47.996094 L 21.078125 48.808594 C 20.691406 49.253906 19.894531 50.15625 19.316406 50.808594 C 18.734375 51.460938 18.078125 52.203125 17.859375 52.457031 C 17.640625 52.707031 17.4375 52.914062 17.414062 52.914062 C 17.386719 52.914062 17.0625 52.59375 16.6875 52.199219 C 14.988281 50.414062 13.507812 48.195312 12.601562 46.09375 C 12.109375 44.960938 11.367188 42.628906 11.367188 42.234375 C 11.367188 42.066406 11.550781 41.988281 12.203125 41.878906 C 12.664062 41.796875 13.964844 41.570312 15.09375 41.363281 C 16.21875 41.160156 17.230469 40.992188 17.335938 40.992188 Z M 27.476562 43.242188 C 27.550781 43.257812 27.652344 43.316406 27.742188 43.394531 C 28.027344 43.652344 29.035156 44.09375 29.8125 44.300781 C 31.265625 44.6875 33.375 44.402344 34.691406 43.640625 C 34.984375 43.472656 35.273438 43.351562 35.335938 43.371094 C 35.433594 43.410156 36.386719 44.527344 43 52.390625 C 45.304688 55.128906 45.421875 55.292969 45.199219 55.46875 C 44.359375 56.132812 42.1875 57.480469 41.128906 57.996094 C 38.914062 59.074219 36.304688 59.839844 33.972656 60.097656 C 32.714844 60.234375 30.179688 60.242188 28.875 60.105469 C 27.648438 59.980469 25.453125 59.472656 24.078125 58.992188 C 21.917969 58.238281 19.011719 56.628906 17.519531 55.351562 L 17.023438 54.933594 L 18.078125 53.761719 C 18.65625 53.117188 20.078125 51.507812 21.242188 50.183594 C 25.917969 44.855469 27.3125 43.285156 27.417969 43.246094 C 27.433594 43.238281 27.453125 43.238281 27.476562 43.242188 Z M 27.054688 46.953125 C 26.019531 46.953125 25.339844 47.484375 25.105469 48.480469 C 24.933594 49.195312 25.5625 50.335938 26.273438 50.59375 C 26.753906 50.765625 27.613281 50.671875 28.011719 50.398438 C 29.535156 49.359375 28.871094 46.953125 27.054688 46.953125 Z M 35.511719 46.953125 C 33.609375 46.953125 32.878906 49.34375 34.457031 50.398438 C 35.246094 50.925781 36.332031 50.726562 37 49.929688 C 37.265625 49.613281 37.328125 49.414062 37.328125 48.863281 C 37.328125 47.640625 36.671875 46.953125 35.511719 46.953125 Z M 31.332031 47.710938 C 30.796875 47.714844 30.25 47.945312 29.847656 48.421875 C 29.390625 48.964844 29.296875 49.660156 29.597656 50.328125 C 29.875 50.957031 30.074219 51.144531 30.710938 51.371094 C 32.300781 51.9375 33.699219 50.355469 33.003906 48.78125 C 32.691406 48.074219 32.023438 47.703125 31.332031 47.710938 Z M 27.015625 47.875 C 27.117188 47.878906 27.21875 47.921875 27.371094 48 C 27.964844 48.304688 28.074219 48.96875 27.597656 49.414062 C 27.125 49.859375 26.5 49.753906 26.203125 49.175781 C 26.042969 48.867188 26.039062 48.753906 26.175781 48.472656 C 26.261719 48.285156 26.488281 48.0625 26.671875 47.972656 C 26.816406 47.90625 26.914062 47.871094 27.015625 47.875 Z M 35.464844 47.875 C 35.566406 47.871094 35.664062 47.90625 35.804688 47.972656 C 36.269531 48.195312 36.464844 48.628906 36.308594 49.082031 C 36.238281 49.28125 36.082031 49.496094 35.957031 49.5625 C 35.179688 49.976562 34.351562 49.21875 34.671875 48.386719 C 34.714844 48.277344 34.910156 48.101562 35.109375 48 C 35.261719 47.921875 35.363281 47.878906 35.464844 47.875 Z M 31.351562 48.722656 C 31.859375 48.753906 32.347656 49.21875 32.1875 49.859375 C 32.140625 50.035156 31.941406 50.261719 31.742188 50.367188 C 31.273438 50.609375 31.214844 50.605469 30.828125 50.304688 C 30.398438 49.964844 30.320312 49.648438 30.554688 49.195312 C 30.734375 48.84375 31.046875 48.707031 31.351562 48.722656 Z M 36.527344 51.09375 C 36.320312 51.097656 36.101562 51.144531 35.882812 51.234375 C 35.210938 51.515625 34.894531 51.855469 34.722656 52.46875 C 34.457031 53.410156 34.941406 54.40625 35.835938 54.761719 C 36.578125 55.058594 37.433594 54.820312 37.980469 54.171875 C 39.050781 52.898438 37.980469 51.046875 36.527344 51.09375 Z M 26.082031 51.113281 C 25.933594 51.117188 25.785156 51.140625 25.632812 51.179688 C 23.921875 51.640625 23.726562 54.011719 25.339844 54.726562 C 26.527344 55.253906 28.011719 54.324219 28.011719 53.050781 C 28.011719 51.929688 27.117188 51.089844 26.082031 51.113281 Z M 36.5 52.046875 C 36.601562 52.046875 36.859375 52.191406 37.070312 52.367188 C 37.539062 52.761719 37.5625 53.1875 37.144531 53.605469 C 36.976562 53.769531 36.695312 53.910156 36.519531 53.910156 C 36.128906 53.910156 35.589844 53.398438 35.589844 53.035156 C 35.589844 52.734375 36.222656 52.046875 36.5 52.046875 Z M 31.332031 52.050781 C 30.386719 52.082031 29.453125 52.789062 29.457031 53.875 C 29.457031 54.605469 29.761719 55.210938 30.285156 55.527344 C 30.851562 55.875 31.824219 55.855469 32.371094 55.488281 C 33.25 54.902344 33.472656 53.65625 32.855469 52.792969 C 32.476562 52.257812 31.902344 52.03125 31.332031 52.050781 Z M 26.15625 52.058594 C 26.324219 52.070312 26.488281 52.164062 26.6875 52.347656 C 27.101562 52.734375 27.113281 53.203125 26.710938 53.601562 C 26.230469 54.085938 25.640625 53.96875 25.292969 53.3125 C 25.101562 52.953125 25.207031 52.617188 25.613281 52.296875 C 25.824219 52.132812 25.992188 52.050781 26.15625 52.058594 Z M 31.300781 53.058594 C 31.914062 53.054688 32.425781 53.75 32.113281 54.332031 C 31.59375 55.304688 30.03125 54.585938 30.507812 53.59375 C 30.601562 53.394531 30.839844 53.175781 31.03125 53.109375 C 31.121094 53.078125 31.210938 53.0625 31.300781 53.058594 Z M 15.898438 56.773438 L 15.121094 57.648438 C 18.382812 61.558594 24.648438 63.996094 31.464844 64 C 38.167969 63.996094 44.347656 61.644531 47.65625 57.835938 L 46.949219 57.027344 C 43.671875 60.652344 37.828125 62.867188 31.527344 62.871094 C 25.074219 62.863281 19.117188 60.539062 15.898438 56.773438 Z M 15.898438 56.773438 "/>
</g>
</svg>
