<svg xmlns="http://www.w3.org/2000/svg" xmlns:xlink="http://www.w3.org/1999/xlink" width="64" height="64" viewBox="0 0 64 64" version="1.1">
<defs>
<linearGradient id="linear0" gradientUnits="userSpaceOnUse" x1="0" y1="0" x2="0" y2="1" gradientTransform="matrix(60.398438,0,0,64,1.800781,0)">
<stop offset="0" style="stop-color:#ff6666;stop-opacity:1;"/>
<stop offset="1" style="stop-color:#d90000;stop-opacity:1;"/>
</linearGradient>
</defs>
<g id="surface1">
<path style=" stroke:none;fill-rule:nonzero;fill:url(#linear0);" d="M 50.40625 9.488281 L 41.640625 28.949219 L 39.09375 28.949219 L 48.449219 8.339844 L 34 8.339844 L 34 56.488281 C 36.980469 56.605469 52.15625 61.523438 52.15625 61.523438 L 52.15625 64 L 11.351562 64 L 11.351562 61.367188 C 11.351562 61.367188 26.550781 56.484375 28.882812 56.484375 L 28.882812 8.339844 L 15.234375 8.339844 L 24.585938 28.949219 L 22.03125 28.949219 L 13.265625 9.488281 L 4.496094 28.949219 L 1.949219 28.949219 L 11.351562 8.117188 L 11.351562 5.714844 L 27.046875 5.714844 C 27.046875 2.574219 29.15625 0 31.613281 0 C 34.210938 0 36.175781 2.710938 36.175781 5.714844 L 52.15625 5.714844 L 52.15625 7.769531 L 61.722656 28.949219 L 59.164062 28.949219 Z M 24.746094 31.640625 C 24.746094 37.898438 20.40625 43.59375 13.273438 43.59375 C 6.296875 43.59375 1.800781 37.898438 1.800781 31.640625 C 1.785156 31.652344 24.746094 31.652344 24.746094 31.640625 Z M 39.246094 31.640625 C 39.246094 31.648438 62.199219 31.648438 62.199219 31.640625 C 62.199219 37.898438 57.859375 43.59375 50.726562 43.59375 C 43.75 43.59375 39.246094 37.898438 39.246094 31.640625 Z M 39.246094 31.640625 "/>
</g>
</svg>
