<svg xmlns="http://www.w3.org/2000/svg" xmlns:xlink="http://www.w3.org/1999/xlink" width="64" height="64" viewBox="0 0 64 64" version="1.1">
<defs> <linearGradient id="linear0" gradientUnits="userSpaceOnUse" x1="0" y1="0" x2="0" y2="1" gradientTransform="matrix(55.992188,0,0,56,4.003906,4)"> <stop offset="0" style="stop-color:#ff6666;stop-opacity:1;"/> <stop offset="1" style="stop-color:#d90000;stop-opacity:1;"/> </linearGradient> </defs>
<g id="surface1">
<path style=" stroke:none;fill-rule:nonzero;fill:url(#linear0);fill-opacity:1;" d="M 30.425781 6.855469 C 29.382812 6.855469 28.332031 7.523438 28.332031 8.941406 C 28.332031 12.128906 27.609375 13.820312 26.40625 14.640625 C 25.816406 14.851562 25.265625 15.128906 24.703125 15.386719 C 24.683594 15.398438 24.65625 15.382812 24.640625 15.386719 C 23.195312 15.6875 21.503906 15.007812 19.203125 12.71875 C 18.199219 11.71875 16.972656 11.984375 16.230469 12.71875 L 13.285156 15.648438 C 12.546875 16.390625 12.28125 17.609375 13.285156 18.617188 C 15.582031 20.902344 16.269531 22.585938 15.96875 24.023438 C 15.96875 24.039062 15.972656 24.0625 15.96875 24.085938 C 15.699219 24.644531 15.429688 25.195312 15.21875 25.78125 C 14.390625 26.980469 12.695312 27.699219 9.492188 27.699219 C 8.066406 27.699219 7.398438 28.746094 7.398438 29.785156 L 7.398438 33.953125 C 7.398438 35 8.066406 36.042969 9.492188 36.042969 C 12.695312 36.042969 14.390625 36.761719 15.21875 37.964844 C 15.429688 38.550781 15.699219 39.09375 15.96875 39.65625 C 15.980469 39.671875 15.960938 39.707031 15.96875 39.722656 C 16.269531 41.160156 15.585938 42.839844 13.285156 45.128906 C 12.28125 46.128906 12.546875 47.359375 13.285156 48.09375 L 16.230469 51.023438 C 16.972656 51.761719 18.199219 52.023438 19.203125 51.023438 C 21.503906 48.738281 23.195312 48.054688 24.640625 48.351562 C 24.65625 48.359375 24.679688 48.347656 24.703125 48.351562 C 25.265625 48.617188 25.816406 48.894531 26.40625 49.101562 C 27.609375 49.925781 28.332031 51.609375 28.332031 54.800781 C 28.332031 56.21875 29.382812 56.886719 30.425781 56.886719 L 34.613281 56.886719 C 35.65625 56.886719 36.707031 56.21875 36.707031 54.800781 C 36.707031 51.609375 37.429688 49.925781 38.636719 49.101562 C 39.230469 48.894531 39.773438 48.617188 40.335938 48.351562 C 40.351562 48.34375 40.382812 48.359375 40.402344 48.351562 C 41.847656 48.054688 43.535156 48.738281 45.832031 51.023438 C 46.839844 52.023438 48.066406 51.761719 48.808594 51.023438 L 51.75 48.09375 C 52.488281 47.359375 52.757812 46.128906 51.75 45.128906 C 49.457031 42.839844 48.769531 41.160156 49.070312 39.722656 C 49.074219 39.699219 49.066406 39.679688 49.070312 39.65625 C 49.335938 39.09375 49.609375 38.550781 49.820312 37.964844 C 50.648438 36.761719 52.339844 36.042969 55.542969 36.042969 C 56.96875 36.042969 57.640625 35 57.640625 33.953125 L 57.640625 29.785156 C 57.640625 28.746094 56.96875 27.699219 55.542969 27.699219 C 52.339844 27.699219 50.648438 26.980469 49.820312 25.78125 C 49.617188 25.195312 49.335938 24.644531 49.070312 24.085938 C 49.066406 24.0625 49.074219 24.039062 49.070312 24.023438 C 48.769531 22.585938 49.457031 20.902344 51.75 18.617188 C 52.757812 17.609375 52.488281 16.390625 51.75 15.648438 L 48.808594 12.71875 C 48.066406 11.984375 46.839844 11.71875 45.832031 12.71875 C 43.535156 15.007812 41.847656 15.6875 40.402344 15.386719 C 40.382812 15.382812 40.351562 15.398438 40.335938 15.386719 C 39.773438 15.128906 39.230469 14.851562 38.636719 14.640625 C 37.429688 13.816406 36.707031 12.128906 36.707031 8.941406 C 36.707031 7.523438 35.65625 6.855469 34.613281 6.855469 Z M 32.523438 21.449219 C 38.296875 21.449219 42.980469 26.117188 42.980469 31.867188 C 42.980469 37.625 38.296875 42.289062 32.523438 42.289062 C 26.742188 42.289062 22.054688 37.625 22.054688 31.867188 C 22.054688 26.117188 26.742188 21.449219 32.523438 21.449219 "/>
</g>
</svg>
