<svg xmlns="http://www.w3.org/2000/svg" xmlns:xlink="http://www.w3.org/1999/xlink" width="64px" height="64px" viewBox="0 0 64 64" version="1.1">
<defs>
<linearGradient id="linear0" gradientUnits="userSpaceOnUse" x1="0" y1="128" x2="128" y2="0" gradientTransform="matrix(0.432432,0,0,0.432432,4.324324,4.324324)">
<stop offset="0" style="stop-color:#ff6666;stop-opacity:1;"/>
<stop offset="1" style="stop-color:#d90000;stop-opacity:1;"/>
</linearGradient>
</defs>
<g id="surface1">
<path style=" stroke:none;fill-rule:nonzero;fill:url(#linear0);" d="M 30.910156 9.429688 C 26.03125 9.675781 21.585938 11.554688 18.085938 14.519531 C 20.679688 14.566406 24.382812 14.742188 27.273438 15.34375 C 32.191406 16.371094 40.171875 19.210938 42.9375 23.210938 C 45.710938 27.210938 44.914062 32.433594 44.195312 34.484375 C 43.480469 36.535156 42.660156 36.757812 42.148438 34.914062 C 41.636719 33.066406 38.246094 30.613281 38.246094 30.613281 C 38.863281 27.234375 38.4375 24.242188 35.667969 21.988281 C 32.902344 19.734375 28.386719 17.480469 23.804688 17.0625 C 21.039062 16.8125 17.777344 16.925781 15.539062 17.0625 C 12.371094 20.8125 10.449219 25.65625 10.449219 30.945312 L 10.449219 33.03125 C 10.449219 34.445312 10.585938 35.816406 10.84375 37.160156 L 27.175781 36.664062 C 27.175781 36.664062 26.460938 38.789062 26.976562 40.632812 C 27.488281 42.476562 29.519531 44.433594 29.519531 44.433594 L 13.789062 44.496094 C 17.605469 50.550781 24.316406 54.578125 32 54.578125 L 48.957031 54.578125 C 51.332031 54.578125 53.550781 52.757812 53.550781 49.71875 C 53.550781 41.824219 53.550781 40.210938 53.550781 33.03125 C 53.550781 32.335938 53.550781 41.097656 53.550781 30.945312 C 53.550781 19.046875 43.898438 9.429688 32 9.429688 C 31.628906 9.429688 31.277344 9.410156 30.910156 9.429688 Z M 20.960938 25.363281 C 22.007812 25.363281 22.878906 26.230469 22.878906 27.277344 C 22.878906 28.324219 22.007812 29.164062 20.960938 29.164062 C 19.914062 29.164062 19.078125 28.324219 19.078125 27.277344 C 19.078125 26.230469 19.914062 25.363281 20.960938 25.363281 Z M 26.878906 26.914062 C 28.742188 26.914062 30.246094 28.417969 30.246094 30.285156 C 30.246094 32.152344 28.742188 33.6875 26.878906 33.6875 C 25.011719 33.6875 23.472656 32.152344 23.472656 30.285156 C 23.472656 28.417969 25.011719 26.914062 26.878906 26.914062 Z M 34.347656 31.738281 C 37.859375 31.738281 40.691406 34.578125 40.691406 38.085938 C 40.691406 41.59375 37.859375 44.433594 34.347656 44.433594 C 30.835938 44.433594 28 41.59375 28 38.085938 C 28 34.578125 30.835938 31.738281 34.347656 31.738281 Z M 34.347656 31.738281 "/>
</g>
</svg>
