<svg xmlns="http://www.w3.org/2000/svg" xmlns:xlink="http://www.w3.org/1999/xlink" width="64" height="64" viewBox="0 0 64 64" version="1.1">
<defs> <linearGradient id="linear0" gradientUnits="userSpaceOnUse" x1="0" y1="0" x2="0" y2="1" gradientTransform="matrix(55.992188,0,0,56,4.003906,4)"> <stop offset="0" style="stop-color:#ff6666;stop-opacity:1;"/> <stop offset="1" style="stop-color:#d90000;stop-opacity:1;"/> </linearGradient> </defs>
<g id="surface1">
<path style=" stroke:none;fill-rule:nonzero;fill:url(#linear0);fill-opacity:1;" d="M -3.183594 50.832031 C -3.183594 50.65625 22.3125 2.363281 23.167969 0.921875 L 23.757812 -0.078125 L 24.402344 1.046875 C 24.757812 1.667969 27.355469 6.59375 30.175781 11.996094 C 33 17.394531 38.6875 28.261719 42.824219 36.132812 C 48.621094 47.175781 50.257812 50.496094 49.984375 50.667969 C 49.792969 50.785156 47.46875 50.886719 44.824219 50.894531 L 40.011719 50.894531 L 38.597656 49.460938 C 35.039062 45.871094 28.820312 42.609375 21.863281 40.695312 L 18.75 39.84375 L 22.644531 39.648438 C 26.304688 39.464844 30.425781 39.585938 32.679688 39.949219 C 33.4375 40.066406 33.675781 40.015625 33.675781 39.738281 C 33.675781 39.0625 24.128906 21.6875 23.753906 21.6875 C 23.480469 21.6875 21.554688 25.03125 14.078125 38.492188 C 10.402344 45.097656 7.375 50.53125 7.351562 50.558594 C 7.246094 50.695312 -3.183594 50.960938 -3.183594 50.824219 Z M -3.183594 50.832031 "/>
<path style=" stroke:none;fill-rule:nonzero;fill:url(#linear0);fill-opacity:1;" d="M 47.671875 17.015625 C 47.921875 16.660156 48.480469 15.949219 48.917969 15.433594 L 49.230469 15.03125 L 54.515625 15.03125 L 57.191406 11.464844 C 58.21875 9.804688 59.195312 8.285156 59.359375 8.097656 C 60.023438 7.328125 61.394531 7.996094 61.382812 9.089844 L 57.621094 14.929688 L 60.097656 14.988281 C 61.46875 15.015625 62.582031 15.089844 62.582031 15.140625 C 62.582031 15.195312 63.164062 15.042969 62.898438 15.460938 C 62.632812 15.878906 62.273438 16.546875 62.109375 16.945312 L 61.808594 17.660156 L 47.234375 17.660156 "/>
<path style=" stroke:none;fill-rule:nonzero;fill:url(#linear0);fill-opacity:1;" d="M 44.21875 35.804688 C 44.003906 35.492188 43.777344 34.746094 43.710938 34.136719 C 43.648438 33.53125 43.5625 32.710938 43.515625 32.316406 C 43.378906 30.984375 44.386719 25.554688 44.804688 23.847656 C 45.03125 22.921875 45.539062 21.382812 45.917969 20.433594 L 46.609375 18.695312 L 57.179688 18.695312 L 57.179688 20.132812 C 57.175781 22.164062 56.726562 23.617188 58.527344 25.667969 L 59.882812 27.214844 C 57.867188 25.097656 58.457031 22.507812 58.496094 20.015625 C 58.496094 19.589844 58.480469 18.691406 59.820312 18.691406 C 61.085938 18.691406 61.925781 18.726562 61.808594 19.035156 C 61.449219 19.964844 61.257812 21.457031 61.347656 22.582031 C 61.480469 24.1875 62.15625 25.351562 63.859375 26.914062 C 66.199219 29.058594 66.238281 31.351562 66.351562 32.191406 C 66.503906 33.339844 66.039062 34.621094 65.171875 35.488281 C 64.558594 36.09375 64.160156 36.226562 62.710938 36.3125 L 60.128906 36.425781 L 59.203125 34.503906 C 58.105469 32.222656 57.617188 30.882812 57.277344 29.203125 C 57.132812 28.53125 56.988281 28.027344 56.941406 28.097656 C 56.867188 28.199219 57.542969 34.085938 57.816406 35.726562 L 57.925781 36.375 L 51.6875 36.359375 C 44.9375 36.339844 44.582031 36.335938 44.21875 35.796875 "/>
</g>
</svg>
