<svg xmlns="http://www.w3.org/2000/svg" xmlns:xlink="http://www.w3.org/1999/xlink" width="64" height="64" viewBox="0 0 64 64" version="1.1">
<defs>
<linearGradient id="linear0" gradientUnits="userSpaceOnUse" x1="0" y1="0" x2="0" y2="1" gradientTransform="matrix(64,0,0,55.421875,0,4.289062)">
<stop offset="0" style="stop-color:#ff6666;stop-opacity:1;"/>
<stop offset="1" style="stop-color:#d90000;stop-opacity:1;"/>
</linearGradient>
</defs>
<g id="surface1">
<path style=" stroke:none;fill-rule:nonzero;fill:url(#linear0);" d="M 32 4.289062 L 0 59.710938 L 0.554688 59.710938 C 1.648438 59.6875 2.082031 57.894531 2.652344 57.894531 C 3.027344 57.894531 3.570312 58.175781 3.945312 58.175781 C 4.65625 58.175781 4.863281 54.414062 5.460938 54.425781 C 6.058594 54.4375 5.949219 57.640625 7.074219 57.679688 C 8.246094 57.722656 7.476562 50.304688 8.617188 50.304688 C 9.613281 50.304688 9.113281 56.632812 10.476562 56.675781 C 11.792969 56.714844 10.773438 45.710938 12.089844 45.605469 C 13.625 45.480469 12.652344 55.847656 14.238281 55.847656 C 15.625 55.847656 14.707031 41.289062 15.933594 41.289062 C 17.15625 41.289062 16.789062 55.355469 18.035156 55.234375 C 19.238281 55.234375 18.078125 38.273438 19.464844 38.273438 C 21.238281 38.273438 20.332031 55.109375 21.546875 55.105469 C 22.917969 55.101562 21.800781 36.617188 23.394531 36.617188 C 25.050781 36.617188 23.921875 55.285156 25.300781 55.234375 C 26.753906 55.183594 25.230469 37.746094 26.832031 37.746094 C 28.371094 37.746094 27.324219 55.480469 28.667969 55.480469 C 30.09375 55.480469 28.570312 37.976562 30.429688 38.097656 C 32.230469 38.21875 31.050781 55.992188 32.339844 55.992188 C 33.566406 55.992188 32.835938 40.460938 34.300781 40.546875 C 36.019531 40.644531 35.015625 56.46875 36.203125 56.46875 C 37.304688 56.46875 36.804688 43.835938 38.261719 43.835938 C 39.800781 43.835938 38.644531 56.949219 40.058594 56.886719 C 41.476562 56.828125 40.84375 46.890625 42.222656 46.890625 C 43.539062 46.890625 42.449219 57.730469 43.9375 57.730469 C 45.488281 57.730469 44.703125 50.140625 46.070312 50.140625 C 47.480469 50.140625 46.59375 58.433594 47.671875 58.433594 C 48.722656 58.433594 48.414062 53.210938 49.449219 53.210938 C 50.484375 53.210938 50 58.738281 50.871094 58.738281 C 51.773438 58.738281 51.40625 55.546875 52.359375 55.546875 C 53.316406 55.546875 52.976562 58.992188 53.710938 59.03125 C 54.363281 59.070312 54.277344 56.859375 54.878906 56.859375 C 55.488281 56.859375 55.230469 59.316406 56.074219 59.3125 C 56.886719 59.3125 56.636719 57.953125 57.214844 57.953125 C 57.78125 57.953125 57.800781 59.550781 58.46875 59.550781 C 58.945312 59.542969 59.453125 58.820312 60.0625 58.820312 C 60.859375 58.820312 61.105469 59.710938 63.152344 59.710938 L 64 59.710938 Z M 32 4.289062 "/>
</g>
</svg>
