<svg xmlns="http://www.w3.org/2000/svg" xmlns:xlink="http://www.w3.org/1999/xlink" width="64" height="64" viewBox="0 0 64 64" version="1.1">
<defs>
<linearGradient id="linear0" gradientUnits="userSpaceOnUse" x1="0" y1="0" x2="0" y2="1" gradientTransform="matrix(60,0,0,59.679688,2,2.160156)">
<stop offset="0" style="stop-color:#ff6666;stop-opacity:1;"/>
<stop offset="1" style="stop-color:#d90000;stop-opacity:1;"/>
</linearGradient>
</defs>
<g id="surface1">
<path style=" stroke:none;fill-rule:nonzero;fill:url(#linear0);" d="M 55.246094 2.160156 C 54.953125 2.148438 54.660156 2.199219 54.390625 2.320312 L 52.367188 4.339844 L 51.4375 3.328125 L 50.65625 4.574219 L 51.667969 5.585938 L 50.65625 6.601562 L 49.410156 5.585938 L 48.398438 6.601562 L 49.410156 7.53125 L 47.386719 9.550781 C 47.148438 9.777344 47.015625 10.085938 47.015625 10.410156 C 47.015625 10.734375 47.148438 11.042969 47.386719 11.269531 L 38.984375 19.667969 C 36.359375 17.902344 33.398438 17.023438 30.734375 17.023438 C 28.070312 17.015625 25.5 17.984375 23.5 19.746094 C 22.507812 20.738281 21.496094 22.214844 21.242188 23.710938 C 20.253906 26.699219 17.539062 28.691406 14.550781 28.691406 C 11.070312 28.691406 8.097656 29.960938 5.605469 32.195312 C -0.125 37.925781 1.113281 48.40625 8.328125 55.382812 C 12.558594 59.617188 17.765625 61.839844 22.492188 61.839844 C 25.902344 61.855469 29.199219 60.609375 31.746094 58.339844 C 33.988281 56.101562 35.246094 52.871094 35.246094 49.390625 C 35.246094 46.15625 37.242188 43.449219 40.226562 42.699219 C 41.726562 42.203125 42.953125 41.4375 44.195312 40.445312 C 47.984375 36.660156 47.855469 30.171875 44.277344 24.960938 L 52.679688 16.554688 C 52.898438 16.796875 53.210938 16.929688 53.535156 16.929688 C 53.859375 16.929688 54.167969 16.796875 54.390625 16.554688 L 56.414062 14.53125 L 57.347656 15.542969 L 58.359375 14.53125 L 57.347656 13.523438 L 58.359375 12.507812 L 59.371094 13.289062 L 60.378906 12.277344 L 59.371094 11.265625 L 61.628906 9.550781 C 62.125 9.054688 62.125 8.339844 61.628906 7.839844 L 56.105469 2.320312 C 55.835938 2.203125 55.539062 2.148438 55.246094 2.164062 Z M 55.398438 5.351562 L 56.414062 6.289062 L 51.125 11.578125 L 50.191406 10.5625 Z M 57.660156 7.53125 L 58.59375 8.542969 L 53.378906 13.757812 L 52.367188 12.824219 Z M 30.734375 20.761719 C 32.597656 20.761719 34.445312 21.4375 36.183594 22.472656 L 29.105469 29.546875 C 28.820312 29.511719 28.539062 29.472656 28.246094 29.472656 C 24.8125 29.476562 22.023438 32.261719 22.023438 35.695312 C 22.023438 39.132812 24.8125 41.925781 28.246094 41.925781 C 31.679688 41.925781 34.472656 39.132812 34.472656 35.695312 C 34.472656 35.40625 34.433594 35.125 34.394531 34.839844 L 41.476562 27.761719 C 43.636719 31.40625 43.800781 35.394531 41.476562 37.71875 C 40.726562 38.46875 39.976562 38.703125 38.988281 39.199219 C 34.5 40.445312 31.457031 44.644531 31.203125 49.625 C 31.203125 51.367188 30.707031 53.855469 28.710938 55.851562 C 26.71875 57.84375 23.996094 58.339844 22.257812 58.339844 C 18.269531 58.339844 14.054688 56.363281 10.820312 53.128906 C 5.09375 47.398438 3.863281 39.464844 8.097656 35.226562 C 10.089844 33.234375 12.578125 32.738281 14.320312 32.738281 C 19.300781 32.738281 23.246094 29.445312 24.746094 24.960938 C 25 23.96875 25.476562 23.21875 26.222656 22.472656 C 27.71875 20.96875 29.492188 20.761719 30.734375 20.761719 Z M 15.640625 40.445312 L 13.308594 42.78125 L 21.089844 50.480469 L 23.34375 48.222656 Z M 15.640625 40.445312 "/>
</g>
</svg>
