<svg xmlns="http://www.w3.org/2000/svg" xmlns:xlink="http://www.w3.org/1999/xlink" width="64" height="64" viewBox="0 0 64 64" version="1.1">
<defs> <linearGradient id="linear0" gradientUnits="userSpaceOnUse" x1="0" y1="0" x2="0" y2="1" gradientTransform="matrix(55.992188,0,0,56,4.003906,4)"> <stop offset="0" style="stop-color:#ff6666;stop-opacity:1;"/> <stop offset="1" style="stop-color:#d90000;stop-opacity:1;"/> </linearGradient> </defs>
<g id="surface1">
<path style=" stroke:none;fill-rule:nonzero;fill:url(#linear0);fill-opacity:1;" d="M 37.96875 53.390625 L 58.359375 46.71875 L 52.113281 43.15625 C 52.738281 41.402344 53.074219 39.566406 53.074219 37.601562 C 53.074219 28.367188 45.570312 20.855469 36.304688 20.855469 C 34.488281 20.855469 32.738281 21.195312 31.097656 21.726562 C 37.824219 23.90625 42.710938 30.175781 42.710938 37.601562 C 42.710938 37.648438 42.710938 37.675781 42.710938 37.726562 L 33.59375 32.5 L 37.96875 53.390625 M 27.8125 43.484375 C 29.625 43.484375 31.375 43.144531 33.015625 42.617188 C 26.285156 40.4375 21.402344 34.167969 21.402344 26.742188 C 21.402344 26.691406 21.402344 26.664062 21.402344 26.621094 L 30.515625 31.839844 L 26.144531 10.953125 L 5.75 17.628906 L 11.992188 21.191406 C 11.367188 22.9375 11.039062 24.78125 11.039062 26.742188 C 11.039062 35.980469 18.535156 43.488281 27.808594 43.488281 "/>
</g>
</svg>
