<svg xmlns="http://www.w3.org/2000/svg" xmlns:xlink="http://www.w3.org/1999/xlink" width="64" height="64" viewBox="0 0 64 64" version="1.1">
<defs> <linearGradient id="linear0" gradientUnits="userSpaceOnUse" x1="0" y1="0" x2="0" y2="1" gradientTransform="matrix(55.992188,0,0,56,4.003906,4)"> <stop offset="0" style="stop-color:#ff6666;stop-opacity:1;"/> <stop offset="1" style="stop-color:#d90000;stop-opacity:1;"/> </linearGradient> </defs>
<g id="surface1">
<path style=" stroke:none;fill-rule:nonzero;fill:url(#linear0);fill-opacity:1;" d="M 32.117188 -9.703125 L 32.117188 -5.644531 L 36.253906 -5.644531 L 36.253906 -9.703125 Z M 27.988281 -5.628906 L 27.988281 -1.550781 L 32.117188 -1.550781 L 32.117188 -5.628906 Z M 32.117188 -1.550781 L 32.117188 2.527344 L 36.253906 2.527344 L 36.253906 -1.550781 Z M 27.988281 2.542969 L 27.988281 6.605469 L 32.117188 6.605469 L 32.117188 2.542969 Z M 32.117188 6.621094 L 32.117188 10.683594 L 36.253906 10.683594 L 36.253906 6.621094 Z M 27.988281 10.699219 L 27.988281 14.777344 L 32.117188 14.777344 L 32.117188 10.699219 Z M 32.117188 14.777344 L 32.117188 18.855469 L 36.253906 18.855469 L 36.253906 14.777344 Z M 27.988281 18.871094 L 27.988281 22.949219 L 32.117188 22.949219 L 32.117188 18.871094 Z M 28.246094 23.589844 C 27.410156 23.589844 26.742188 24.273438 26.742188 25.105469 L 26.742188 31.777344 C 24.367188 33.453125 22.8125 36.199219 22.8125 39.308594 C 22.8125 44.394531 26.945312 48.511719 32.042969 48.511719 C 37.148438 48.511719 41.300781 44.394531 41.300781 39.308594 C 41.300781 36.207031 39.746094 33.453125 37.371094 31.777344 L 37.371094 25.105469 C 37.371094 24.273438 36.703125 23.589844 35.867188 23.589844 Z M 32.042969 34.25 C 34.84375 34.25 37.117188 36.523438 37.117188 39.308594 C 37.117188 42.097656 34.84375 44.359375 32.042969 44.359375 C 29.246094 44.359375 26.980469 42.097656 26.980469 39.308594 C 26.980469 36.523438 29.246094 34.25 32.042969 34.25 Z M 32.042969 34.25 "/>
</g>
</svg>
