<svg xmlns="http://www.w3.org/2000/svg" xmlns:xlink="http://www.w3.org/1999/xlink" width="64" height="64" viewBox="0 0 64 64" version="1.1">
<defs>
<linearGradient id="linear0" gradientUnits="userSpaceOnUse" x1="0" y1="0" x2="0" y2="1" gradientTransform="matrix(64,0,0,64,0,0)">
<stop offset="0" style="stop-color:#ff6666;stop-opacity:1;"/>
<stop offset="1" style="stop-color:#d90000;stop-opacity:1;"/>
</linearGradient>
</defs>
<g id="surface1">
<path style=" stroke:none;fill-rule:nonzero;fill:url(#linear0);" d="M 32 0 C 14.328125 0 0 14.328125 0 32 C 0 49.671875 14.328125 64 32 64 C 49.671875 64 64 49.671875 64 32 C 64 14.328125 49.671875 0 32 0 Z M 32 4.773438 C 47.019531 4.773438 59.230469 16.980469 59.230469 32 C 59.230469 47.019531 47.019531 59.230469 32 59.230469 C 16.980469 59.230469 4.769531 47.019531 4.769531 32 C 4.769531 16.980469 16.984375 4.769531 32 4.769531 Z M 27.617188 9.078125 C 18.234375 10.898438 10.902344 18.234375 9.078125 27.613281 L 15.691406 28.84375 C 16.980469 22.183594 22.1875 16.976562 28.847656 15.691406 Z M 30.769531 19.84375 C 24.636719 20.46875 19.84375 25.691406 19.84375 31.996094 C 19.839844 35.222656 21.117188 38.320312 23.398438 40.601562 C 25.679688 42.878906 28.777344 44.160156 32 44.15625 C 35.222656 44.160156 38.320312 42.878906 40.601562 40.601562 C 42.878906 38.320312 44.160156 35.222656 44.15625 32 C 44.160156 28.777344 42.878906 25.679688 40.601562 23.398438 C 38.320312 21.121094 35.222656 19.839844 32 19.84375 C 31.574219 19.84375 31.183594 19.808594 30.769531 19.84375 Z M 32 29.070312 C 33.605469 29.070312 34.925781 30.390625 34.925781 31.996094 C 34.925781 33.605469 33.605469 34.921875 32 34.921875 C 30.386719 34.914062 29.085938 33.613281 29.074219 32 C 29.074219 30.394531 30.394531 29.074219 32 29.074219 Z M 48.308594 35.152344 C 47.019531 41.8125 41.8125 47.019531 35.152344 48.304688 L 36.382812 54.921875 C 45.765625 53.101562 53.101562 45.765625 54.921875 36.378906 Z M 48.308594 35.152344 "/>
</g>
</svg>
