<svg xmlns="http://www.w3.org/2000/svg" xmlns:xlink="http://www.w3.org/1999/xlink" width="64" height="64" viewBox="0 0 64 64" version="1.1">
<defs>
<linearGradient id="linear0" gradientUnits="userSpaceOnUse" x1="0" y1="0" x2="0" y2="1" gradientTransform="matrix(60,0,0,24.210938,2,25.789062)">
<stop offset="0" style="stop-color:#ff6666;stop-opacity:1;"/>
<stop offset="1" style="stop-color:#d90000;stop-opacity:1;"/>
</linearGradient>
<linearGradient id="linear1" gradientUnits="userSpaceOnUse" x1="0" y1="0" x2="0" y2="1" gradientTransform="matrix(51.375,0,0,26.203125,6.210938,20.542969)">
<stop offset="0" style="stop-color:#ff6666;stop-opacity:1;"/>
<stop offset="1" style="stop-color:#d90000;stop-opacity:1;"/>
</linearGradient>
</defs>
<g id="surface1">
<path style=" stroke:none;fill-rule:nonzero;fill:url(#linear0);" d="M 4.277344 44.90625 C 4.636719 44.058594 11.8125 27.519531 12.152344 26.664062 C 12.496094 25.808594 11.8125 25.421875 11.511719 26.238281 C 11.210938 27.050781 2.734375 45.632812 2.261719 46.703125 C 1.792969 47.773438 1.792969 48.5 3.632812 48.5 C 5.472656 48.5 29.023438 48.5 29.023438 48.5 L 29.023438 50 L 35.019531 50 L 35.019531 48.371094 C 35.019531 48.371094 59.851562 48.371094 60.75 48.371094 C 61.648438 48.371094 62.464844 48.203125 61.691406 46.574219 C 60.921875 44.949219 52.957031 27.351562 52.574219 26.40625 C 52.1875 25.464844 51.460938 25.851562 51.757812 26.578125 C 52.058594 27.308594 59.464844 44.21875 59.765625 45.035156 C 60.066406 45.847656 60.449219 47.132812 56.980469 47.132812 C 52.316406 47.132812 44.136719 43.878906 40.582031 43.878906 C 37.03125 43.878906 33.691406 45.976562 32 48.203125 C 30.308594 46.617188 28.167969 43.878906 23.585938 43.878906 C 19.003906 43.878906 13.179688 47.089844 7.230469 47.089844 C 5.003906 47.089844 3.429688 46.882812 4.277344 44.90625 Z M 4.277344 44.90625 "/>
<path style=" stroke:none;fill-rule:nonzero;fill:url(#linear1);" d="M 57.152344 42.679688 C 56.46875 40.835938 49.746094 23.195312 49.746094 23.195312 C 49.746094 23.195312 49.105469 23.410156 47.777344 23.410156 C 43.453125 23.410156 38.570312 20.542969 36.644531 20.542969 C 34.632812 20.542969 32 22.769531 32 22.769531 C 32 22.769531 28.9375 20.542969 27.480469 20.542969 C 24.785156 20.542969 21.273438 23.367188 16.007812 23.367188 C 14.851562 23.367188 14.167969 23.199219 14.167969 23.199219 C 14.167969 23.199219 7.015625 42.121094 6.503906 43.40625 C 5.988281 44.691406 5.988281 45.546875 7.914062 45.546875 C 12.539062 45.546875 20.886719 41.351562 23.5 41.351562 C 28.296875 41.351562 32 46.746094 32 46.746094 C 32 46.746094 36.089844 41.394531 40.457031 41.394531 C 44.824219 41.394531 50.730469 45.632812 56.167969 45.632812 C 57.839844 45.632812 57.839844 44.519531 57.152344 42.679688 Z M 30.820312 42.292969 C 30.820312 42.292969 28.511719 39.46875 23.972656 39.46875 C 19.261719 39.46875 12.238281 43.578125 10.269531 43.578125 C 9.15625 43.578125 8.515625 43.320312 8.984375 41.738281 C 9.457031 40.152344 15.109375 25.039062 15.109375 25.039062 C 15.109375 25.039062 15.921875 25.125 17.078125 25.125 C 22.34375 25.125 24.269531 22.683594 27.355469 22.683594 C 29.453125 22.683594 30.566406 23.882812 30.820312 24.738281 Z M 53.808594 43.578125 C 51.839844 43.578125 44.816406 39.46875 40.109375 39.46875 C 35.570312 39.46875 33.257812 42.292969 33.257812 42.292969 L 33.257812 24.738281 C 33.515625 23.882812 34.628906 22.683594 36.726562 22.683594 C 39.808594 22.683594 41.734375 25.125 47 25.125 C 48.15625 25.125 48.96875 25.039062 48.96875 25.039062 C 48.96875 25.039062 54.621094 40.152344 55.09375 41.734375 C 55.566406 43.320312 54.921875 43.578125 53.808594 43.578125 Z M 53.808594 43.578125 "/>
</g>
</svg>
