<svg xmlns="http://www.w3.org/2000/svg" xmlns:xlink="http://www.w3.org/1999/xlink" width="64" height="64" viewBox="0 0 64 64" version="1.1">
<defs>
<linearGradient id="linear0" gradientUnits="userSpaceOnUse" x1="0" y1="0" x2="0" y2="1" gradientTransform="matrix(56,0,0,34.449219,4,14.777344)">
<stop offset="0" style="stop-color:#ff6666;stop-opacity:1;"/>
<stop offset="1" style="stop-color:#d90000;stop-opacity:1;"/>
</linearGradient>
</defs>
<g id="surface1">
<path style=" stroke:none;fill-rule:nonzero;fill:url(#linear0);" d="M 18.1875 49.066406 C 17.066406 48.914062 15.074219 48.269531 13.742188 47.628906 C 5.085938 43.480469 1.539062 33.027344 5.808594 24.222656 C 10.679688 14.15625 23.980469 11.59375 31.984375 19.171875 C 34.296875 21.359375 35.324219 23.226562 38.808594 31.511719 C 42.445312 40.175781 43.117188 41.535156 44.296875 42.691406 C 45.558594 43.921875 46.726562 44.332031 48.96875 44.332031 C 52.644531 44.332031 55.273438 42.058594 55.273438 38.886719 C 55.273438 36.203125 54.328125 35.34375 49.515625 33.636719 C 42.183594 30.992188 39.8125 28.601562 39.800781 23.804688 C 39.800781 21.242188 40.453125 19.535156 42.101562 17.769531 C 44.464844 15.242188 48.542969 14.40625 52.15625 15.664062 C 53.695312 16.210938 56.921875 19.0625 56.921875 19.878906 C 56.921875 20.277344 55.050781 21.488281 54.015625 21.773438 C 53.46875 21.914062 52.996094 21.730469 52.363281 21.125 C 51.085938 19.894531 50.21875 19.515625 48.6875 19.515625 C 46.042969 19.515625 44.402344 21.109375 44.402344 23.675781 C 44.402344 26.234375 45.449219 27.101562 50.65625 28.859375 C 57.835938 31.285156 59.957031 33.472656 60 38.539062 C 60.042969 42.914062 58.070312 46.070312 54.148438 47.941406 C 52.363281 48.785156 51.761719 48.886719 48.847656 48.886719 C 44.6875 48.878906 42.820312 48.117188 40.488281 45.488281 C 38.925781 43.722656 37.332031 40.40625 32.238281 28.304688 C 30.128906 23.285156 27.421875 20.828125 22.898438 19.859375 C 20.609375 19.371094 17.421875 19.824219 15.339844 20.921875 C 13.3125 21.980469 11.046875 24.371094 9.980469 26.558594 C 9.097656 28.335938 9.011719 28.832031 9.011719 31.921875 C 9.011719 34.863281 9.128906 35.554688 9.867188 37.171875 C 10.988281 39.648438 13.191406 41.921875 15.617188 43.148438 C 17.367188 44.03125 17.914062 44.140625 20.707031 44.140625 C 23.390625 44.140625 24.074219 44 25.683594 43.246094 C 27.511719 42.355469 29.96875 40.167969 30.96875 38.527344 L 31.492188 37.675781 L 32.519531 40.023438 C 33.09375 41.328125 33.550781 42.542969 33.550781 42.769531 C 33.550781 43.414062 31.230469 45.503906 29.101562 46.851562 C 25.867188 48.847656 22.15625 49.597656 18.191406 49.054688 "/>
</g>
</svg>
