<svg xmlns="http://www.w3.org/2000/svg" xmlns:xlink="http://www.w3.org/1999/xlink" width="64" height="64" viewBox="0 0 64 64" version="1.1">
<defs>
<linearGradient id="linear0" gradientUnits="userSpaceOnUse" x1="0" y1="0" x2="0" y2="1" gradientTransform="matrix(64,0,0,32,0,16)">
<stop offset="0" style="stop-color:#ff6666;stop-opacity:1;"/>
<stop offset="1" style="stop-color:#d90000;stop-opacity:1;"/>
</linearGradient>
</defs>
<g id="surface1">
<path style=" stroke:none;fill-rule:nonzero;fill:url(#linear0);" d="M 9.144531 16 C 7.878906 16 6.855469 17.023438 6.855469 18.285156 C 6.855469 19.546875 7.878906 20.570312 9.144531 20.570312 C 10.402344 20.570312 11.429688 19.546875 11.429688 18.285156 C 11.429688 17.023438 10.402344 16 9.144531 16 Z M 32 16 C 30.734375 16 29.714844 17.023438 29.714844 18.285156 C 29.714844 19.546875 30.734375 20.570312 32 20.570312 C 33.265625 20.570312 34.285156 19.546875 34.285156 18.285156 C 34.285156 17.023438 33.265625 16 32 16 Z M 38.855469 16 C 37.597656 16 36.570312 17.023438 36.570312 18.285156 C 36.570312 19.546875 37.597656 20.570312 38.855469 20.570312 C 40.121094 20.570312 41.144531 19.546875 41.144531 18.285156 C 41.144531 17.023438 40.121094 16 38.855469 16 Z M 48 16 C 46.734375 16 45.714844 17.023438 45.714844 18.285156 C 45.714844 19.546875 46.734375 20.570312 48 20.570312 C 49.265625 20.570312 50.285156 19.546875 50.285156 18.285156 C 50.285156 17.023438 49.265625 16 48 16 Z M 54.855469 16 C 53.597656 16 52.570312 17.023438 52.570312 18.285156 C 52.570312 19.546875 53.597656 20.570312 54.855469 20.570312 C 56.121094 20.570312 57.144531 19.546875 57.144531 18.285156 C 57.144531 17.023438 56.121094 16 54.855469 16 Z M 61.714844 16 C 60.453125 16 59.429688 17.023438 59.429688 18.285156 C 59.429688 19.546875 60.453125 20.570312 61.714844 20.570312 C 62.976562 20.570312 64 19.546875 64 18.285156 C 64 17.023438 62.976562 16 61.714844 16 Z M 2.285156 22.855469 C 1.023438 22.855469 0 23.878906 0 25.144531 C 0 26.402344 1.023438 27.429688 2.285156 27.429688 C 3.546875 27.429688 4.570312 26.402344 4.570312 25.144531 C 4.570312 23.878906 3.546875 22.855469 2.285156 22.855469 Z M 16 22.855469 C 14.734375 22.855469 13.714844 23.878906 13.714844 25.144531 C 13.714844 26.402344 14.734375 27.429688 16 27.429688 C 17.265625 27.429688 18.285156 26.402344 18.285156 25.144531 C 18.285156 23.878906 17.265625 22.855469 16 22.855469 Z M 27.429688 22.855469 C 26.167969 22.855469 25.144531 23.878906 25.144531 25.144531 C 25.144531 26.402344 26.167969 27.429688 27.429688 27.429688 C 28.691406 27.429688 29.714844 26.402344 29.714844 25.144531 C 29.714844 23.878906 28.691406 22.855469 27.429688 22.855469 Z M 48 22.855469 C 46.734375 22.855469 45.714844 23.878906 45.714844 25.144531 C 45.714844 26.402344 46.734375 27.429688 48 27.429688 C 49.265625 27.429688 50.285156 26.402344 50.285156 25.144531 C 50.285156 23.878906 49.265625 22.855469 48 22.855469 Z M 2.285156 29.714844 C 1.023438 29.714844 0 30.734375 0 32 C 0 33.265625 1.023438 34.285156 2.285156 34.285156 C 3.546875 34.285156 4.570312 33.265625 4.570312 32 C 4.570312 30.734375 3.546875 29.714844 2.285156 29.714844 Z M 9.144531 29.714844 C 7.878906 29.714844 6.855469 30.734375 6.855469 32 C 6.855469 33.265625 7.878906 34.285156 9.144531 34.285156 C 10.402344 34.285156 11.429688 33.265625 11.429688 32 C 11.429688 30.734375 10.402344 29.714844 9.144531 29.714844 Z M 16 29.714844 C 14.734375 29.714844 13.714844 30.734375 13.714844 32 C 13.714844 33.265625 14.734375 34.285156 16 34.285156 C 17.265625 34.285156 18.285156 33.265625 18.285156 32 C 18.285156 30.734375 17.265625 29.714844 16 29.714844 Z M 32 29.714844 C 30.734375 29.714844 29.714844 30.734375 29.714844 32 C 29.714844 33.265625 30.734375 34.285156 32 34.285156 C 33.265625 34.285156 34.285156 33.265625 34.285156 32 C 34.285156 30.734375 33.265625 29.714844 32 29.714844 Z M 48 29.714844 C 46.734375 29.714844 45.714844 30.734375 45.714844 32 C 45.714844 33.265625 46.734375 34.285156 48 34.285156 C 49.265625 34.285156 50.285156 33.265625 50.285156 32 C 50.285156 30.734375 49.265625 29.714844 48 29.714844 Z M 54.855469 29.714844 C 53.597656 29.714844 52.570312 30.734375 52.570312 32 C 52.570312 33.265625 53.597656 34.285156 54.855469 34.285156 C 56.121094 34.285156 57.144531 33.265625 57.144531 32 C 57.144531 30.734375 56.121094 29.714844 54.855469 29.714844 Z M 2.285156 36.570312 C 1.023438 36.570312 0 37.597656 0 38.855469 C 0 40.121094 1.023438 41.144531 2.285156 41.144531 C 3.546875 41.144531 4.570312 40.121094 4.570312 38.855469 C 4.570312 37.597656 3.546875 36.570312 2.285156 36.570312 Z M 16 36.570312 C 14.734375 36.570312 13.714844 37.597656 13.714844 38.855469 C 13.714844 40.121094 14.734375 41.144531 16 41.144531 C 17.265625 41.144531 18.285156 40.121094 18.285156 38.855469 C 18.285156 37.597656 17.265625 36.570312 16 36.570312 Z M 38.855469 36.570312 C 37.597656 36.570312 36.570312 37.597656 36.570312 38.855469 C 36.570312 40.121094 37.597656 41.144531 38.855469 41.144531 C 40.121094 41.144531 41.144531 40.121094 41.144531 38.855469 C 41.144531 37.597656 40.121094 36.570312 38.855469 36.570312 Z M 48 36.570312 C 46.734375 36.570312 45.714844 37.597656 45.714844 38.855469 C 45.714844 40.121094 46.734375 41.144531 48 41.144531 C 49.265625 41.144531 50.285156 40.121094 50.285156 38.855469 C 50.285156 37.597656 49.265625 36.570312 48 36.570312 Z M 2.285156 43.429688 C 1.023438 43.429688 0 44.453125 0 45.714844 C 0 46.976562 1.023438 48 2.285156 48 C 3.546875 48 4.570312 46.976562 4.570312 45.714844 C 4.570312 44.453125 3.546875 43.429688 2.285156 43.429688 Z M 16 43.429688 C 14.734375 43.429688 13.714844 44.453125 13.714844 45.714844 C 13.714844 46.976562 14.734375 48 16 48 C 17.265625 48 18.285156 46.976562 18.285156 45.714844 C 18.285156 44.453125 17.265625 43.429688 16 43.429688 Z M 25.144531 43.429688 C 23.878906 43.429688 22.855469 44.453125 22.855469 45.714844 C 22.855469 46.976562 23.878906 48 25.144531 48 C 26.402344 48 27.429688 46.976562 27.429688 45.714844 C 27.429688 44.453125 26.402344 43.429688 25.144531 43.429688 Z M 32 43.429688 C 30.734375 43.429688 29.714844 44.453125 29.714844 45.714844 C 29.714844 46.976562 30.734375 48 32 48 C 33.265625 48 34.285156 46.976562 34.285156 45.714844 C 34.285156 44.453125 33.265625 43.429688 32 43.429688 Z M 48 43.429688 C 46.734375 43.429688 45.714844 44.453125 45.714844 45.714844 C 45.714844 46.976562 46.734375 48 48 48 C 49.265625 48 50.285156 46.976562 50.285156 45.714844 C 50.285156 44.453125 49.265625 43.429688 48 43.429688 Z M 54.855469 43.429688 C 53.597656 43.429688 52.570312 44.453125 52.570312 45.714844 C 52.570312 46.976562 53.597656 48 54.855469 48 C 56.121094 48 57.144531 46.976562 57.144531 45.714844 C 57.144531 44.453125 56.121094 43.429688 54.855469 43.429688 Z M 61.714844 43.429688 C 60.453125 43.429688 59.429688 44.453125 59.429688 45.714844 C 59.429688 46.976562 60.453125 48 61.714844 48 C 62.976562 48 64 46.976562 64 45.714844 C 64 44.453125 62.976562 43.429688 61.714844 43.429688 Z M 61.714844 43.429688 "/>
</g>
</svg>
