<svg xmlns="http://www.w3.org/2000/svg" xmlns:xlink="http://www.w3.org/1999/xlink" width="64" height="64" viewBox="0 0 64 64" version="1.1">
<defs> <linearGradient id="linear0" gradientUnits="userSpaceOnUse" x1="0" y1="0" x2="0" y2="1" gradientTransform="matrix(55.992188,0,0,56,4.003906,4)"> <stop offset="0" style="stop-color:#ff6666;stop-opacity:1;"/> <stop offset="1" style="stop-color:#d90000;stop-opacity:1;"/> </linearGradient> </defs>
<g id="surface1">
<path style=" stroke:none;fill-rule:nonzero;fill:url(#linear0);fill-opacity:1;" d="M 41.6875 7.566406 C 24.890625 7.5625 12.890625 16.472656 8.9375 31.914062 C 7.796875 36.351562 7.6875 42.597656 8.675781 46.5 C 9.554688 49.964844 13.140625 54.210938 16.523438 55.796875 C 19.796875 57.328125 25.683594 57.039062 29.308594 55.183594 C 31.800781 53.902344 34.738281 51.152344 36.878906 48.082031 C 37.957031 46.53125 37.960938 46.601562 37.535156 51.089844 L 37.097656 55.675781 L 49.957031 55.675781 L 49.957031 52.667969 C 49.960938 47.605469 51.125 38.902344 53.789062 24.070312 C 55.191406 16.269531 56.230469 9.796875 56.09375 9.664062 C 55.3125 8.882812 46.28125 7.566406 41.6875 7.566406 M 36.917969 17.917969 C 37.628906 17.882812 38.335938 17.933594 39.042969 18.074219 C 40.144531 18.296875 41.050781 18.859375 41.050781 19.339844 C 41.050781 21.246094 37.945312 34.621094 36.957031 36.992188 C 33.726562 44.722656 28.007812 48.386719 24.535156 44.933594 C 22.804688 43.207031 22.394531 41.148438 22.75 35.84375 C 23.367188 26.371094 30.058594 18.238281 36.917969 17.917969 "/>
</g>
</svg>
