<svg xmlns="http://www.w3.org/2000/svg" xmlns:xlink="http://www.w3.org/1999/xlink" width="64" height="64" viewBox="0 0 64 64" version="1.1">
<defs>
<linearGradient id="linear0" gradientUnits="userSpaceOnUse" x1="0" y1="0" x2="0" y2="1" gradientTransform="matrix(64,0,0,64,0,0)">
<stop offset="0" style="stop-color:#ff6666;stop-opacity:1;"/>
<stop offset="1" style="stop-color:#d90000;stop-opacity:1;"/>
</linearGradient>
</defs>
<g id="surface1">
<path style=" stroke:none;fill-rule:nonzero;fill:url(#linear0);" d="M 32 0 C 14.328125 0 0 14.328125 0 32 C 0 49.671875 14.328125 64 32 64 C 49.671875 64 64 49.671875 64 32 C 64 14.328125 49.671875 0 32 0 Z M 43.375 8.875 C 43.925781 8.945312 44.488281 9.207031 45 9.5 C 47.042969 10.679688 47.804688 13.207031 46.625 15.25 C 45.445312 17.292969 42.792969 18.054688 40.75 16.875 C 38.707031 15.695312 37.945312 13.042969 39.125 11 C 40.011719 9.46875 41.722656 8.671875 43.375 8.875 Z M 32 13.5 C 33.71875 13.5 35.421875 13.6875 37 14.125 C 37.277344 15.839844 38.25 17.4375 39.875 18.375 C 41.496094 19.308594 43.375 19.363281 45 18.75 C 48.160156 21.855469 50.199219 26.042969 50.5 30.75 L 44.375 30.875 C 43.8125 24.5 38.519531 19.5 32 19.5 C 30.121094 19.5 28.347656 19.882812 26.75 20.625 L 23.75 15.375 C 26.230469 14.148438 29.046875 13.5 32 13.5 Z M 21.75 16.5 L 24.875 21.75 C 21.667969 24.007812 19.5 27.777344 19.5 32 C 19.5 36.222656 21.667969 39.992188 24.875 42.25 L 21.75 47.5 C 18.011719 45 15.152344 41.097656 14 36.625 C 15.347656 35.523438 16.25 33.878906 16.25 32 C 16.25 30.121094 15.347656 28.476562 14 27.375 C 15.15625 22.902344 18.011719 19 21.75 16.5 Z M 10.25 27.75 C 12.609375 27.75 14.5 29.640625 14.5 32 C 14.5 34.359375 12.609375 36.25 10.25 36.25 C 7.890625 36.25 6 34.359375 6 32 C 6 29.640625 7.890625 27.75 10.25 27.75 Z M 44.375 33.125 L 50.5 33.25 C 50.199219 37.957031 48.160156 42.144531 45 45.25 C 43.375 44.636719 41.496094 44.6875 39.875 45.625 C 38.25 46.5625 37.277344 48.15625 37 49.875 C 35.421875 50.3125 33.71875 50.5 32 50.5 C 29.046875 50.5 26.230469 49.851562 23.75 48.625 L 26.75 43.375 C 28.347656 44.117188 30.121094 44.5 32 44.5 C 38.519531 44.5 43.816406 39.5 44.375 33.125 Z M 42.375 46.625 C 44.027344 46.421875 45.742188 47.21875 46.625 48.75 C 47.804688 50.792969 47.042969 53.320312 45 54.5 C 42.957031 55.679688 40.304688 55.042969 39.125 53 C 37.945312 50.957031 38.707031 48.304688 40.75 47.125 C 41.261719 46.832031 41.824219 46.691406 42.375 46.625 Z M 42.375 46.625 "/>
</g>
</svg>
