<svg xmlns="http://www.w3.org/2000/svg" xmlns:xlink="http://www.w3.org/1999/xlink" width="64" height="64" viewBox="0 0 64 64" version="1.1">
<defs> <linearGradient id="linear0" gradientUnits="userSpaceOnUse" x1="0" y1="0" x2="0" y2="1" gradientTransform="matrix(55.992188,0,0,56,4.003906,4)"> <stop offset="0" style="stop-color:#ff6666;stop-opacity:1;"/> <stop offset="1" style="stop-color:#d90000;stop-opacity:1;"/> </linearGradient> </defs>
<g id="surface1">
<path style=" stroke:none;fill-rule:evenodd;fill:url(#linear0);fill-opacity:1;" d="M 10.925781 10.40625 C -0.242188 10.40625 -0.292969 22.378906 -0.292969 22.378906 L -0.292969 35.992188 C -0.292969 38.550781 1.476562 41.960938 3.195312 43.671875 C 6.226562 46.683594 8.328125 46.253906 8.328125 46.253906 C 8.328125 46.253906 8.359375 47.097656 9.214844 49.652344 C 10.074219 52.214844 12.601562 53.941406 15.179688 53.941406 C 17.75 53.941406 18.660156 53.058594 18.660156 53.058594 L 18.660156 49.652344 C 18.660156 49.652344 17.777344 49.6875 16.0625 48.835938 C 14.34375 47.980469 14.347656 46.253906 14.347656 46.253906 C 14.347656 46.253906 16.910156 45.414062 19.484375 42.851562 C 22.0625 40.292969 22.082031 35.992188 22.082031 35.992188 L 22.082031 23.191406 C 22.082031 23.191406 22.089844 10.40625 10.925781 10.40625 M 27.933594 12.164062 L 25.332031 18.96875 L 23.617188 18.96875 L 23.617188 22.378906 L 25.332031 22.378906 L 25.332031 40.328125 C 25.332031 40.328125 25.34375 44.554688 29.636719 44.554688 C 33.929688 44.554688 34.78125 42.851562 34.78125 42.851562 L 34.78125 39.566406 C 34.695312 39.808594 34.355469 40.328125 33.066406 40.328125 C 31.347656 40.328125 30.527344 38.625 30.527344 38.625 L 30.527344 22.378906 L 34.78125 22.378906 L 34.78125 18.972656 L 30.527344 18.972656 L 30.527344 12.171875 L 27.933594 12.171875 M 11.457031 14.691406 C 15.75 14.691406 15.769531 18.917969 15.769531 18.917969 L 15.769531 35.992188 C 15.769531 35.992188 15.75 41.972656 11.457031 41.972656 C 7.164062 41.972656 7.148438 35.992188 7.148438 35.992188 L 7.148438 19.792969 C 7.148438 19.792969 7.164062 14.691406 11.457031 14.691406 "/>
<path style=" stroke:none;fill-rule:nonzero;fill:url(#linear0);fill-opacity:1;" d="M 52.546875 36.320312 L 45.84375 36.320312 L 45.84375 35.40625 C 45.84375 34.402344 46.050781 33.503906 46.457031 32.722656 C 46.867188 31.9375 47.722656 30.941406 49.035156 29.734375 L 50.222656 28.660156 C 50.925781 28.015625 51.445312 27.417969 51.773438 26.847656 C 52.101562 26.28125 52.265625 25.714844 52.265625 25.148438 C 52.265625 24.285156 51.972656 23.609375 51.375 23.125 C 50.78125 22.632812 49.949219 22.390625 48.886719 22.390625 C 47.882812 22.390625 46.804688 22.597656 45.640625 23.011719 C 44.476562 23.425781 43.261719 24.035156 42 24.847656 L 42 19.042969 C 43.492188 18.527344 44.863281 18.140625 46.101562 17.898438 C 47.339844 17.648438 48.535156 17.527344 49.6875 17.527344 C 52.703125 17.527344 55.011719 18.140625 56.59375 19.371094 C 58.179688 20.597656 58.972656 22.382812 58.972656 24.742188 C 58.972656 25.945312 58.730469 27.03125 58.246094 27.988281 C 57.765625 28.9375 56.941406 29.96875 55.777344 31.066406 L 54.589844 32.117188 C 53.75 32.886719 53.199219 33.496094 52.9375 33.960938 C 52.675781 34.417969 52.546875 34.925781 52.546875 35.488281 Z M 45.84375 39.054688 L 52.546875 39.054688 L 52.546875 45.640625 L 45.84375 45.640625 Z M 39.382812 10.480469 "/>
</g>
</svg>
