<svg xmlns="http://www.w3.org/2000/svg" xmlns:xlink="http://www.w3.org/1999/xlink" width="64" height="64" viewBox="0 0 64 64" version="1.1">
<defs>
<linearGradient id="linear0" gradientUnits="userSpaceOnUse" x1="0" y1="0" x2="0" y2="1" gradientTransform="matrix(56,0,0,52.507812,4,5.746094)">
<stop offset="0" style="stop-color:#ff6666;stop-opacity:1;"/>
<stop offset="1" style="stop-color:#d90000;stop-opacity:1;"/>
</linearGradient>
</defs>
<g id="surface1">
<path style=" stroke:none;fill-rule:evenodd;fill:url(#linear0);" d="M 21.5 30.863281 C 20.9375 30.875 20.359375 30.960938 19.753906 31.027344 C 18.023438 31.214844 16.714844 31.578125 15.269531 32.121094 C 14.28125 32.484375 13.535156 32.851562 12.425781 33.542969 C 11.308594 34.234375 10.179688 35.238281 10.179688 35.238281 L 13.570312 38.636719 C 13.570312 38.636719 15.171875 37.441406 16.089844 36.933594 C 17.003906 36.4375 18.246094 36.222656 19.152344 36.113281 C 21.488281 35.839844 23.761719 36.304688 24.839844 37.203125 C 25.992188 38.175781 26.480469 38.847656 26.535156 41.425781 C 25.496094 41.375 24.429688 41.445312 23.253906 41.472656 C 22.207031 41.503906 20.078125 41.550781 19.203125 41.6875 C 16.875 42.070312 14.355469 42.460938 11.933594 44.046875 C 10.640625 44.886719 9.597656 46.160156 9.035156 47.605469 C 8.410156 49.222656 8.265625 51.136719 8.761719 52.796875 C 9.28125 54.53125 10.453125 56.222656 11.988281 57.171875 C 14.949219 58.347656 18.808594 58.644531 21.613281 57.664062 C 23.183594 57.097656 24.40625 56.625 25.824219 54.984375 C 26.054688 54.71875 26.257812 54.253906 26.535156 53.78125 L 26.535156 57.773438 L 32.441406 57.773438 L 32.441406 41.6875 C 32.378906 38.1875 30.984375 35.0625 28.503906 32.992188 C 26.085938 31.359375 23.957031 30.800781 21.503906 30.859375 M 25.933594 45.789062 L 26.261719 45.789062 L 26.261719 45.902344 C 26.261719 45.902344 26.539062 50.5 24.019531 52.085938 C 21.496094 53.65625 20.394531 53.710938 18.550781 53.394531 C 17.269531 53.175781 15.789062 52.460938 15.269531 51.246094 C 14.851562 50.285156 15.167969 49.019531 15.824219 48.1875 C 16.839844 46.914062 18.699219 46.570312 20.308594 46.210938 C 21.777344 45.882812 24.066406 45.769531 25.941406 45.773438 M 36.945312 29.0625 L 33.261719 32.488281 C 43.109375 37.269531 50.984375 44.019531 55.488281 53.023438 L 58.867188 48.527344 C 54.40625 41.839844 47.613281 35.019531 36.945312 29.085938 M 4 19.261719 L 4 22.921875 C 6.816406 23.769531 13.003906 24.609375 18.636719 24.609375 L 19.195312 21.511719 C 13.59375 21.292969 9.347656 20.671875 4 19.261719 M 60 16.726562 C 52.683594 16.726562 45.652344 18.136719 36.640625 21.511719 L 39.738281 24.320312 C 44.242188 22.070312 51.558594 19.535156 60 19.535156 M 26.230469 5.746094 C 23.4375 12.277344 25.558594 16.238281 26.3125 19 L 30.734375 18.40625 C 29.800781 14.980469 28.183594 11.035156 30.457031 5.746094 "/>
</g>
</svg>
