<svg xmlns="http://www.w3.org/2000/svg" xmlns:xlink="http://www.w3.org/1999/xlink" width="64" height="64" viewBox="0 0 64 64" version="1.1">
<defs> <linearGradient id="linear0" gradientUnits="userSpaceOnUse" x1="0" y1="0" x2="0" y2="1" gradientTransform="matrix(55.992188,0,0,56,4.003906,4)"> <stop offset="0" style="stop-color:#ff6666;stop-opacity:1;"/> <stop offset="1" style="stop-color:#d90000;stop-opacity:1;"/> </linearGradient> </defs>
<g id="surface1">
<path style=" stroke:none;fill-rule:nonzero;fill:url(#linear0);fill-opacity:1;" d="M 26.648438 7.679688 C 24.027344 13.769531 26.019531 17.46875 26.722656 20.042969 L 30.867188 19.492188 C 29.996094 16.292969 28.484375 12.617188 30.609375 7.679688 L 26.648438 7.679688 M 58.296875 17.917969 C 51.445312 17.917969 44.84375 19.226562 36.40625 22.378906 L 39.308594 25.007812 C 43.527344 22.910156 50.386719 20.546875 58.296875 20.546875 L 58.296875 17.917969 M 5.8125 20.28125 L 5.8125 23.695312 C 8.453125 24.480469 14.253906 25.269531 19.527344 25.269531 L 20.054688 22.378906 C 14.804688 22.175781 10.828125 21.59375 5.8125 20.28125 M 36.695312 29.425781 L 33.242188 32.621094 C 42.476562 37.082031 49.867188 43.382812 54.085938 51.78125 L 57.246094 47.578125 C 53.066406 41.339844 46.695312 34.976562 36.703125 29.425781 M 22.644531 31.105469 C 22.503906 31.105469 22.363281 31.109375 22.21875 31.109375 C 21.6875 31.121094 21.152344 31.199219 20.578125 31.261719 C 18.960938 31.445312 17.734375 31.78125 16.375 32.28125 C 15.457031 32.621094 14.757812 32.964844 13.710938 33.609375 C 12.667969 34.253906 11.613281 35.191406 11.613281 35.191406 L 14.792969 38.355469 C 14.792969 38.355469 16.292969 37.246094 17.148438 36.777344 C 18.007812 36.3125 19.164062 36.109375 20.015625 36.007812 C 22.207031 35.753906 24.332031 36.1875 25.347656 37.03125 C 26.429688 37.929688 26.882812 38.558594 26.933594 40.960938 C 25.957031 40.921875 24.957031 40.984375 23.859375 41.011719 C 22.878906 41.039062 20.886719 41.085938 20.066406 41.214844 C 17.886719 41.574219 15.53125 41.933594 13.253906 43.410156 C 12.042969 44.195312 11.054688 45.382812 10.53125 46.722656 C 9.941406 48.238281 9.8125 50.027344 10.277344 51.578125 C 10.761719 53.195312 11.863281 54.773438 13.304688 55.660156 C 16.074219 56.757812 19.691406 57.027344 22.320312 56.117188 C 23.789062 55.59375 24.945312 55.152344 26.269531 53.617188 C 26.484375 53.371094 26.667969 52.933594 26.933594 52.492188 L 26.933594 56.21875 L 32.46875 56.21875 L 32.46875 41.214844 C 32.40625 37.949219 31.101562 35.035156 28.777344 33.101562 C 26.65625 31.675781 24.765625 31.128906 22.644531 31.105469 M 25.695312 45.042969 C 25.929688 45.042969 26.148438 45.042969 26.371094 45.042969 C 26.480469 45.042969 26.574219 45.042969 26.679688 45.042969 C 26.679688 45.078125 26.679688 45.113281 26.679688 45.148438 C 26.679688 45.148438 26.945312 49.433594 24.578125 50.910156 C 22.207031 52.390625 21.1875 52.4375 19.453125 52.136719 C 18.246094 51.933594 16.863281 51.265625 16.375 50.144531 C 15.984375 49.253906 16.285156 48.058594 16.894531 47.289062 C 17.847656 46.089844 19.597656 45.792969 21.09375 45.453125 C 22.300781 45.1875 24.082031 45.066406 25.695312 45.042969 "/>
</g>
</svg>
