<svg xmlns="http://www.w3.org/2000/svg" xmlns:xlink="http://www.w3.org/1999/xlink" width="64" height="64" viewBox="0 0 64 64" version="1.1">
<defs>
<linearGradient id="linear0" gradientUnits="userSpaceOnUse" x1="0" y1="0" x2="0" y2="1" gradientTransform="matrix(56,0,0,56,4,4)">
<stop offset="0" style="stop-color:#ff6666;stop-opacity:1;"/>
<stop offset="1" style="stop-color:#d90000;stop-opacity:1;"/>
</linearGradient>
</defs>
<g id="surface1">
<path style=" stroke:none;fill-rule:nonzero;fill:url(#linear0);" d="M 49.230469 19.074219 L 49.230469 32 C 52.800781 32 55.691406 29.109375 55.691406 25.539062 C 55.691406 21.972656 52.800781 19.074219 49.230469 19.074219 Z M 27.691406 49.230469 L 27.691406 51.382812 C 27.691406 56.769531 29.847656 57.84375 32 60 C 34.152344 57.84375 36.308594 56.769531 36.308594 51.382812 L 36.308594 49.230469 L 38.460938 49.230469 L 38.460938 40.617188 L 44.925781 40.617188 L 44.925781 14.769531 L 60 14.769531 L 60 8.308594 L 44.925781 8.308594 L 44.925781 4 L 19.074219 4 L 19.074219 8.308594 L 4 8.308594 L 4 14.769531 L 19.074219 14.769531 L 19.074219 40.617188 L 25.539062 40.617188 L 25.539062 49.230469 Z M 14.769531 19.074219 C 11.199219 19.074219 8.308594 21.972656 8.308594 25.539062 C 8.308594 29.109375 11.199219 32 14.769531 32 Z M 14.769531 19.074219 "/>
</g>
</svg>
