<svg xmlns="http://www.w3.org/2000/svg" xmlns:xlink="http://www.w3.org/1999/xlink" width="64" height="64" viewBox="0 0 64 64" version="1.1">
<defs>
<linearGradient id="linear0" gradientUnits="userSpaceOnUse" x1="0" y1="0" x2="0" y2="1" gradientTransform="matrix(43.046875,0,0,56,10.476562,4)">
<stop offset="0" style="stop-color:#ff6666;stop-opacity:1;"/>
<stop offset="1" style="stop-color:#d90000;stop-opacity:1;"/>
</linearGradient>
</defs>
<g id="surface1">
<path style=" stroke:none;fill-rule:nonzero;fill:url(#linear0);" d="M 32.042969 4 L 28.96875 11.066406 L 29.789062 12.9375 C 24.828125 13.273438 25.800781 14.285156 25.800781 14.285156 C 25.800781 14.285156 20.085938 15.34375 20.085938 16.136719 L 20.085938 16.203125 C 18.9375 16.761719 17.8125 17.535156 16.734375 18.375 C 2.351562 37.703125 17.742188 42.175781 14.328125 53.398438 C 13.589844 55.835938 10.492188 59.976562 10.492188 59.976562 C 10.492188 59.976562 16.730469 60.753906 19.308594 53.449219 C 21.390625 47.542969 14.328125 35.664062 19.59375 30.351562 C 27.058594 22.816406 32.597656 38.339844 30.261719 40.492188 C 27.882812 42.648438 28.476562 43.234375 28.476562 43.234375 L 32.007812 50.367188 L 35.519531 43.234375 C 35.519531 43.234375 36.128906 42.648438 33.757812 40.492188 C 31.398438 38.339844 36.953125 22.800781 44.402344 30.351562 C 49.6875 35.683594 42.605469 47.542969 44.707031 53.449219 C 47.285156 60.746094 53.523438 59.976562 53.523438 59.976562 C 53.523438 59.976562 50.445312 55.804688 49.683594 53.398438 C 46.273438 42.195312 61.617188 37.71875 47.246094 18.375 C 46.171875 17.5625 45.042969 16.777344 43.921875 16.222656 L 43.921875 16.152344 C 43.921875 15.34375 38.214844 14.300781 38.214844 14.300781 C 38.214844 14.300781 39.195312 13.292969 34.210938 12.953125 L 35.019531 11.085938 L 31.960938 4.015625 "/>
</g>
</svg>
