<svg xmlns="http://www.w3.org/2000/svg" xmlns:xlink="http://www.w3.org/1999/xlink" width="64" height="64" viewBox="0 0 64 64" version="1.1">
<defs>
<linearGradient id="linear0" gradientUnits="userSpaceOnUse" x1="0" y1="0" x2="0" y2="1" gradientTransform="matrix(12,0,0,12,8,16)">
<stop offset="0" style="stop-color:#ff6666;stop-opacity:0.4;"/>
<stop offset="1" style="stop-color:#d90000;stop-opacity:0.4;"/>
</linearGradient>
<linearGradient id="linear1" gradientUnits="userSpaceOnUse" x1="0" y1="0" x2="0" y2="1" gradientTransform="matrix(12,0,0,12,8,38)">
<stop offset="0" style="stop-color:#ff6666;stop-opacity:0.4;"/>
<stop offset="1" style="stop-color:#d90000;stop-opacity:0.4;"/>
</linearGradient>
<linearGradient id="linear2" gradientUnits="userSpaceOnUse" x1="0" y1="0" x2="0" y2="1" gradientTransform="matrix(12,0,0,12,30,44)">
<stop offset="0" style="stop-color:#ff6666;stop-opacity:0.4;"/>
<stop offset="1" style="stop-color:#d90000;stop-opacity:0.4;"/>
</linearGradient>
<linearGradient id="linear3" gradientUnits="userSpaceOnUse" x1="0" y1="0" x2="0" y2="1" gradientTransform="matrix(12,0,0,12,30,8)">
<stop offset="0" style="stop-color:#ff6666;stop-opacity:0.4;"/>
<stop offset="1" style="stop-color:#d90000;stop-opacity:0.4;"/>
</linearGradient>
<linearGradient id="linear4" gradientUnits="userSpaceOnUse" x1="0" y1="0" x2="0" y2="1" gradientTransform="matrix(12,0,0,12,44,26)">
<stop offset="0" style="stop-color:#ff6666;stop-opacity:0.4;"/>
<stop offset="1" style="stop-color:#d90000;stop-opacity:0.4;"/>
</linearGradient>
<linearGradient id="linear5" gradientUnits="userSpaceOnUse" x1="0" y1="0" x2="0" y2="1" gradientTransform="matrix(20,0,0,20,4,12)">
<stop offset="0" style="stop-color:#ff6666;stop-opacity:1;"/>
<stop offset="1" style="stop-color:#d90000;stop-opacity:1;"/>
</linearGradient>
<linearGradient id="linear6" gradientUnits="userSpaceOnUse" x1="0" y1="0" x2="0" y2="1" gradientTransform="matrix(20,0,0,20,4,34)">
<stop offset="0" style="stop-color:#ff6666;stop-opacity:1;"/>
<stop offset="1" style="stop-color:#d90000;stop-opacity:1;"/>
</linearGradient>
<linearGradient id="linear7" gradientUnits="userSpaceOnUse" x1="0" y1="0" x2="0" y2="1" gradientTransform="matrix(20,0,0,20,26,40)">
<stop offset="0" style="stop-color:#ff6666;stop-opacity:1;"/>
<stop offset="1" style="stop-color:#d90000;stop-opacity:1;"/>
</linearGradient>
<linearGradient id="linear8" gradientUnits="userSpaceOnUse" x1="0" y1="0" x2="0" y2="1" gradientTransform="matrix(20,0,0,20,26,4)">
<stop offset="0" style="stop-color:#ff6666;stop-opacity:1;"/>
<stop offset="1" style="stop-color:#d90000;stop-opacity:1;"/>
</linearGradient>
<linearGradient id="linear9" gradientUnits="userSpaceOnUse" x1="0" y1="0" x2="0" y2="1" gradientTransform="matrix(20,0,0,20,40,22)">
<stop offset="0" style="stop-color:#ff6666;stop-opacity:1;"/>
<stop offset="1" style="stop-color:#d90000;stop-opacity:1;"/>
</linearGradient>
</defs>
<g id="surface1">
<path style=" stroke:none;fill-rule:nonzero;fill:url(#linear0);" d="M 8 22 C 8 18.6875 10.6875 16 14 16 C 17.3125 16 20 18.6875 20 22 C 20 25.3125 17.3125 28 14 28 C 10.6875 28 8 25.3125 8 22 Z M 8 22 "/>
<path style=" stroke:none;fill-rule:nonzero;fill:url(#linear1);" d="M 8 44 C 8 40.6875 10.6875 38 14 38 C 17.3125 38 20 40.6875 20 44 C 20 47.3125 17.3125 50 14 50 C 10.6875 50 8 47.3125 8 44 Z M 8 44 "/>
<path style=" stroke:none;fill-rule:nonzero;fill:url(#linear2);" d="M 30 50 C 30 46.6875 32.6875 44 36 44 C 39.3125 44 42 46.6875 42 50 C 42 53.3125 39.3125 56 36 56 C 32.6875 56 30 53.3125 30 50 Z M 30 50 "/>
<path style=" stroke:none;fill-rule:nonzero;fill:url(#linear3);" d="M 30 14 C 30 10.6875 32.6875 8 36 8 C 39.3125 8 42 10.6875 42 14 C 42 17.3125 39.3125 20 36 20 C 32.6875 20 30 17.3125 30 14 Z M 30 14 "/>
<path style=" stroke:none;fill-rule:nonzero;fill:url(#linear4);" d="M 44 32 C 44 28.6875 46.6875 26 50 26 C 53.3125 26 56 28.6875 56 32 C 56 35.3125 53.3125 38 50 38 C 46.6875 38 44 35.3125 44 32 Z M 44 32 "/>
<path style=" stroke:none;fill-rule:evenodd;fill:url(#linear5);" d="M 4 22 C 4 16.480469 8.480469 12 14 12 C 19.519531 12 24 16.480469 24 22 C 24 27.519531 19.519531 32 14 32 C 8.480469 32 4 27.519531 4 22 Z M 8 22 C 8 18.6875 10.6875 16 14 16 C 17.3125 16 20 18.6875 20 22 C 20 25.3125 17.3125 28 14 28 C 10.6875 28 8 25.3125 8 22 Z M 8 22 "/>
<path style=" stroke:none;fill-rule:evenodd;fill:url(#linear6);" d="M 4 44 C 4 38.480469 8.480469 34 14 34 C 19.519531 34 24 38.480469 24 44 C 24 49.519531 19.519531 54 14 54 C 8.480469 54 4 49.519531 4 44 Z M 8 44 C 8 40.6875 10.6875 38 14 38 C 17.3125 38 20 40.6875 20 44 C 20 47.3125 17.3125 50 14 50 C 10.6875 50 8 47.3125 8 44 Z M 8 44 "/>
<path style=" stroke:none;fill-rule:evenodd;fill:url(#linear7);" d="M 26 50 C 26 44.480469 30.480469 40 36 40 C 41.519531 40 46 44.480469 46 50 C 46 55.519531 41.519531 60 36 60 C 30.480469 60 26 55.519531 26 50 Z M 30 50 C 30 46.6875 32.6875 44 36 44 C 39.3125 44 42 46.6875 42 50 C 42 53.3125 39.3125 56 36 56 C 32.6875 56 30 53.3125 30 50 Z M 30 50 "/>
<path style=" stroke:none;fill-rule:evenodd;fill:url(#linear8);" d="M 26 14 C 26 8.480469 30.480469 4 36 4 C 41.519531 4 46 8.480469 46 14 C 46 19.519531 41.519531 24 36 24 C 30.480469 24 26 19.519531 26 14 Z M 30 14 C 30 10.6875 32.6875 8 36 8 C 39.3125 8 42 10.6875 42 14 C 42 17.3125 39.3125 20 36 20 C 32.6875 20 30 17.3125 30 14 Z M 30 14 "/>
<path style=" stroke:none;fill-rule:evenodd;fill:url(#linear9);" d="M 40 32 C 40 26.480469 44.480469 22 50 22 C 55.519531 22 60 26.480469 60 32 C 60 37.519531 55.519531 42 50 42 C 44.480469 42 40 37.519531 40 32 Z M 44 32 C 44 28.6875 46.6875 26 50 26 C 53.3125 26 56 28.6875 56 32 C 56 35.3125 53.3125 38 50 38 C 46.6875 38 44 35.3125 44 32 Z M 44 32 "/>
</g>
</svg>
