<svg xmlns="http://www.w3.org/2000/svg" xmlns:xlink="http://www.w3.org/1999/xlink" width="64" height="64" viewBox="0 0 64 64" version="1.1">
<defs>
<linearGradient id="linear0" gradientUnits="userSpaceOnUse" x1="0" y1="0" x2="0" y2="1" gradientTransform="matrix(47.390625,0,0,56,8.304688,4)">
<stop offset="0" style="stop-color:#ff6666;stop-opacity:1;"/>
<stop offset="1" style="stop-color:#d90000;stop-opacity:1;"/>
</linearGradient>
</defs>
<g id="surface1">
<path style=" stroke:none;fill-rule:evenodd;fill:url(#linear0);" d="M 46 17.027344 C 39.539062 17.027344 36.308594 20.3125 36.308594 27.796875 L 42.773438 27.796875 C 42.773438 23.488281 46 23.488281 46 23.488281 C 46 23.488281 49.230469 23.488281 49.230469 26.71875 C 49.230469 33.089844 42.773438 27.796875 42.773438 40.71875 L 49.230469 40.71875 C 49.261719 31.027344 55.695312 36.09375 55.695312 25.644531 C 55.695312 19.179688 52.464844 17.027344 46 17.027344 Z M 42.773438 42.875 L 42.773438 49.335938 L 49.230469 49.335938 L 49.230469 42.875 Z M 22.636719 7.976562 L 22.640625 7.976562 C 21.398438 8.066406 19.441406 9.441406 18.515625 11.890625 C 18.050781 13.121094 17.40625 15.179688 18.273438 18.972656 L 18.589844 20.351562 C 20.132812 19.011719 21.449219 17.8125 22.089844 16.722656 C 25.027344 11.714844 23.996094 8.921875 23.566406 8.320312 C 23.378906 8.058594 23.046875 7.949219 22.636719 7.976562 Z M 18.753906 25.988281 L 18.753906 25.984375 C 16.996094 27.882812 15.113281 29.714844 13.34375 31.617188 C 9.757812 35.472656 11.1875 40.84375 14.410156 43.632812 C 16.8125 45.707031 20.34375 46.203125 23.070312 45.378906 L 20.652344 34.523438 C 18.460938 35 16.730469 36.878906 17.375 40.472656 C 17.550781 41.453125 18.496094 42.257812 19.882812 43.296875 C 11.34375 40.523438 14.445312 32.851562 19.875 31.042969 Z M 16.179688 57.839844 C 17.171875 59.5625 21.15625 59.0625 22.285156 58.339844 C 24.566406 56.867188 24.914062 53.664062 24.394531 51.332031 L 23.34375 46.609375 C 15.9375 48.40625 7.683594 42.65625 8.34375 34.910156 C 8.867188 28.792969 13.773438 24.5 17.671875 21.144531 L 17.148438 18.789062 C 15.953125 13.421875 16.421875 10.617188 17.667969 7.828125 C 18.832031 5.226562 20.203125 4.089844 21.492188 4.003906 L 21.488281 4.003906 C 24.316406 3.816406 26.710938 8.742188 25.472656 14.554688 C 24.601562 18.65625 22.324219 21.9375 19.636719 24.980469 L 20.960938 30.78125 C 23.394531 30.351562 26.144531 31.085938 28.496094 33.914062 C 31.5 37.527344 29.175781 44.410156 24.484375 46.261719 L 25.523438 50.832031 C 26.96875 56.609375 23.863281 60.144531 19.007812 59.996094 C 16.050781 59.902344 14.191406 57.835938 13.625 56.039062 C 13.519531 55.820312 13.433594 55.574219 13.390625 55.324219 C 13.324219 55.101562 13.304688 54.886719 13.3125 54.695312 C 13.292969 54.648438 13.292969 54.597656 13.292969 54.542969 C 13.328125 52.714844 14.886719 51.265625 16.777344 51.296875 C 18.660156 51.332031 20.164062 52.839844 20.128906 54.664062 C 20.09375 56.492188 18.53125 57.949219 16.644531 57.910156 C 16.484375 57.90625 16.328125 57.894531 16.179688 57.839844 Z M 21.785156 34.398438 L 21.785156 34.402344 L 24.175781 44.921875 C 25.300781 44.367188 26.21875 43.578125 26.695312 42.511719 C 28.984375 37.414062 25.21875 34.378906 21.785156 34.398438 Z M 21.785156 34.398438 "/>
</g>
</svg>
