<svg xmlns="http://www.w3.org/2000/svg" xmlns:xlink="http://www.w3.org/1999/xlink" width="64" height="64" viewBox="0 0 64 64" version="1.1">
<defs> <linearGradient id="linear0" gradientUnits="userSpaceOnUse" x1="0" y1="0" x2="0" y2="1" gradientTransform="matrix(55.992188,0,0,56,4.003906,4)"> <stop offset="0" style="stop-color:#ff6666;stop-opacity:1;"/> <stop offset="1" style="stop-color:#d90000;stop-opacity:1;"/> </linearGradient> </defs>
<g id="surface1">
<path style=" stroke:none;fill-rule:evenodd;fill:url(#linear0);fill-opacity:1;" d="M 14.304688 20.992188 C 10.199219 20.992188 6.859375 24.335938 6.859375 28.417969 C 6.859375 32.507812 10.199219 35.839844 14.304688 35.839844 C 18.410156 35.839844 21.753906 32.507812 21.753906 28.417969 C 21.753906 24.328125 18.410156 20.992188 14.304688 20.992188 M 32.050781 20.992188 C 27.945312 20.992188 24.605469 24.335938 24.605469 28.417969 C 24.605469 32.507812 27.945312 35.839844 32.050781 35.839844 C 36.15625 35.839844 39.507812 32.507812 39.507812 28.417969 C 39.507812 24.328125 36.15625 20.992188 32.050781 20.992188 M 49.804688 20.992188 C 45.695312 20.992188 42.359375 24.335938 42.359375 28.417969 C 42.359375 32.507812 45.695312 35.839844 49.804688 35.839844 C 53.910156 35.839844 57.253906 32.507812 57.253906 28.417969 C 57.253906 24.328125 53.910156 20.992188 49.804688 20.992188 M 23.15625 31.144531 C 22.300781 33.660156 20.417969 35.894531 17.960938 36.933594 C 13.753906 38.910156 8.425781 36.839844 6.1875 32.929688 L 0.582031 43.347656 L 63.527344 43.347656 L 58.105469 32.433594 C 56.992188 34.695312 55.015625 36.539062 52.574219 37.261719 C 47.867188 38.886719 42.367188 35.816406 40.910156 31.167969 C 40.0625 33.675781 38.105469 35.96875 35.558594 36.992188 C 30.734375 39.167969 24.65625 36.074219 23.15625 31.148438 Z M 23.15625 31.144531 "/>
</g>
</svg>
