<svg xmlns="http://www.w3.org/2000/svg" xmlns:xlink="http://www.w3.org/1999/xlink" width="64" height="64" viewBox="0 0 64 64" version="1.1">
<defs> <linearGradient id="linear0" gradientUnits="userSpaceOnUse" x1="0" y1="0" x2="0" y2="1" gradientTransform="matrix(55.992188,0,0,56,4.003906,4)"> <stop offset="0" style="stop-color:#ff6666;stop-opacity:1;"/> <stop offset="1" style="stop-color:#d90000;stop-opacity:1;"/> </linearGradient> </defs>
<g id="surface1">
<path style=" stroke:none;fill-rule:nonzero;fill:url(#linear0);fill-opacity:1;" d="M 31.421875 6.957031 C 28.035156 6.957031 25.292969 8.851562 25.292969 11.179688 C 25.390625 12.050781 25.945312 13.148438 26.234375 13.527344 C 27.648438 15.40625 27.648438 16.574219 27.296875 17.28125 L 15.863281 17.28125 C 13.78125 17.28125 12.09375 18.957031 12.09375 21.039062 L 12.09375 30.539062 C 12.804688 30.894531 13.980469 30.894531 15.863281 29.488281 C 16.246094 29.191406 17.347656 28.644531 18.222656 28.546875 C 20.566406 28.546875 22.464844 31.28125 22.464844 34.648438 C 22.464844 38.015625 20.566406 40.746094 18.222656 40.746094 C 17.507812 40.734375 16.410156 40.097656 15.863281 39.808594 C 13.980469 38.398438 12.804688 38.398438 12.09375 38.757812 L 12.09375 51.074219 C 12.09375 53.15625 13.78125 54.828125 15.863281 54.828125 L 31.066406 54.828125 C 31.421875 54.128906 31.421875 52.949219 30.007812 51.074219 C 29.714844 50.699219 29.160156 49.597656 29.0625 48.726562 C 29.0625 46.398438 31.804688 44.503906 35.191406 44.503906 C 38.574219 44.503906 41.320312 46.398438 41.320312 48.726562 C 41.308594 49.445312 40.660156 50.53125 40.375 51.074219 C 38.960938 52.949219 38.960938 54.128906 39.3125 54.828125 L 46.03125 54.828125 C 48.121094 54.828125 49.804688 53.15625 49.804688 51.074219 L 49.804688 40.632812 C 50.507812 40.28125 51.6875 40.28125 53.574219 41.6875 C 54.113281 41.972656 55.210938 42.613281 55.925781 42.625 C 58.269531 42.625 60.167969 39.898438 60.167969 36.527344 C 60.167969 33.15625 58.269531 30.425781 55.925781 30.425781 C 55.054688 30.523438 53.949219 31.070312 53.574219 31.363281 C 51.6875 32.773438 50.507812 32.773438 49.804688 32.417969 L 49.804688 21.039062 C 49.804688 18.957031 48.121094 17.28125 46.03125 17.28125 L 35.542969 17.28125 C 35.191406 16.582031 35.191406 15.40625 36.605469 13.527344 C 36.894531 12.984375 37.535156 11.898438 37.546875 11.179688 C 37.546875 8.851562 34.804688 6.957031 31.421875 6.957031 "/>
</g>
</svg>
