<svg xmlns="http://www.w3.org/2000/svg" xmlns:xlink="http://www.w3.org/1999/xlink" width="64" height="64" viewBox="0 0 64 64" version="1.1">
<defs>
<linearGradient id="linear0" gradientUnits="userSpaceOnUse" x1="0" y1="0" x2="0" y2="1" gradientTransform="matrix(64,0,0,56,0,4)">
<stop offset="0" style="stop-color:#ff6666;stop-opacity:1;"/>
<stop offset="1" style="stop-color:#d90000;stop-opacity:1;"/>
</linearGradient>
</defs>
<g id="surface1">
<path style=" stroke:none;fill-rule:nonzero;fill:url(#linear0);" d="M 15.976562 4 C 10.945312 4.054688 7.257812 3.875 4.25 5.539062 C 2.742188 6.367188 1.554688 7.773438 0.898438 9.53125 C 0.238281 11.285156 0 13.367188 0 16 L 0 48 C 0 50.632812 0.238281 52.714844 0.898438 54.46875 C 1.554688 56.226562 2.742188 57.632812 4.25 58.460938 C 7.257812 60.125 10.945312 59.941406 15.976562 60 L 48.023438 60 C 53.054688 59.945312 56.738281 60.125 59.75 58.460938 C 61.253906 57.632812 62.441406 56.226562 63.101562 54.46875 C 63.757812 52.714844 64 50.632812 64 48 L 64 16 C 64 13.367188 63.761719 11.285156 63.101562 9.53125 C 62.445312 7.773438 61.253906 6.367188 59.75 5.539062 C 56.738281 3.875 53.054688 4.058594 48.023438 4 Z M 4 17.078125 L 60 17.078125 L 60 48 C 60 50.367188 59.746094 52.023438 59.359375 53.0625 C 58.96875 54.101562 58.546875 54.550781 57.8125 54.953125 C 56.347656 55.761719 53.035156 55.941406 48 56 L 16 56 C 10.964844 55.941406 7.644531 55.761719 6.179688 54.953125 C 5.449219 54.550781 5.03125 54.101562 4.640625 53.0625 C 4.253906 52.023438 4 50.367188 4 48 Z M 4 17.078125 "/>
</g>
</svg>
