<svg xmlns="http://www.w3.org/2000/svg" xmlns:xlink="http://www.w3.org/1999/xlink" width="64" height="64" viewBox="0 0 64 64" version="1.1">
<defs>
<linearGradient id="linear0" gradientUnits="userSpaceOnUse" x1="0" y1="0" x2="0" y2="1" gradientTransform="matrix(61.277344,0,0,64,1.363281,0)">
<stop offset="0" style="stop-color:#ff6666;stop-opacity:1;"/>
<stop offset="1" style="stop-color:#d90000;stop-opacity:1;"/>
</linearGradient>
</defs>
<g id="surface1">
<path style=" stroke:none;fill-rule:nonzero;fill:url(#linear0);" d="M 35.824219 0.660156 C 28.777344 2.585938 26.625 4.800781 24.714844 12 C 23.050781 18.066406 22.269531 19.199219 18.058594 21.273438 C 14.589844 23 14.441406 23.144531 14.441406 24.773438 C 14.441406 25.710938 14.636719 26.648438 14.929688 26.796875 C 15.222656 26.992188 14.976562 27.683594 14.34375 28.570312 L 13.265625 30 L 12.234375 29.015625 C 11.652344 28.472656 10.867188 28.027344 10.476562 28.027344 C 9.253906 28.027344 7.246094 30.542969 5.679688 33.949219 C 4.847656 35.921875 3.625 37.597656 2.695312 38.285156 C 1.425781 39.273438 1.179688 39.714844 1.472656 40.753906 C 1.960938 42.921875 4.359375 44.796875 6.613281 44.796875 C 8.46875 44.796875 10.523438 46.074219 10.523438 47.210938 C 10.523438 47.507812 11.160156 48.101562 11.945312 48.542969 C 12.726562 49.035156 13.757812 50.21875 14.242188 51.257812 C 15.222656 53.523438 18.890625 57.273438 21.144531 58.355469 C 22.023438 58.800781 24.371094 59.492188 26.332031 59.882812 C 28.238281 60.28125 31.320312 61.269531 33.132812 62.105469 C 36.703125 63.730469 39.882812 64.472656 39.882812 63.683594 C 39.882812 62.945312 38.90625 62.253906 36.851562 61.613281 C 34.601562 60.871094 33.523438 59.6875 34.550781 59.097656 C 34.945312 58.847656 36.214844 58.503906 37.441406 58.355469 C 42.722656 57.617188 48.398438 55.152344 47.324219 54.0625 C 46.980469 53.71875 46 53.867188 44.144531 54.558594 L 41.453125 55.597656 L 41.15625 54.0625 C 40.769531 51.996094 37.683594 49.183594 34.699219 48.101562 C 33.328125 47.605469 31.710938 46.867188 31.128906 46.472656 L 30.046875 45.683594 L 32.300781 43.660156 C 35.09375 41.195312 36.460938 39.074219 37.929688 34.933594 C 38.5625 33.15625 39.246094 31.527344 39.492188 31.285156 C 40.078125 30.542969 42.527344 33.15625 43.800781 35.921875 C 44.4375 37.300781 44.78125 38.53125 44.585938 38.726562 C 44.386719 38.976562 42.773438 39.222656 41.058594 39.371094 C 39.347656 39.519531 37.929688 39.816406 37.929688 40.113281 C 37.929688 40.40625 39.9375 40.753906 42.480469 40.898438 C 44.976562 41.097656 46.8125 41.21875 48.574219 41.230469 C 54.230469 41.015625 55.769531 39.628906 57.960938 39.449219 C 62.851562 39.039062 62.929688 37.792969 62.453125 37 C 61.292969 35.058594 59.488281 37.703125 58.574219 37.949219 C 57.59375 38.210938 52.703125 38.515625 52.539062 38.125 C 52.222656 37.359375 53.210938 34.726562 54.910156 33.628906 C 57.722656 31.800781 58.804688 29.195312 56.308594 28.953125 C 55.214844 28.84375 53.785156 30.550781 53.636719 32.339844 C 53.507812 33.941406 50.527344 37.050781 49.550781 36.851562 C 49.015625 36.738281 48.542969 36.296875 48.007812 35.773438 C 45.808594 33.652344 44.925781 31.433594 43.949219 25.710938 C 43.507812 23.34375 43.605469 23 45.121094 20.53125 C 48.941406 14.320312 47.960938 2.585938 43.40625 0.460938 C 41.941406 -0.226562 38.761719 -0.132812 35.824219 0.660156 Z M 35.824219 0.660156 "/>
</g>
</svg>
