<svg xmlns="http://www.w3.org/2000/svg" xmlns:xlink="http://www.w3.org/1999/xlink" width="64" height="64" viewBox="0 0 64 64" version="1.1">
<defs> <linearGradient id="linear0" gradientUnits="userSpaceOnUse" x1="0" y1="0" x2="0" y2="1" gradientTransform="matrix(55.992188,0,0,56,4.003906,4)"> <stop offset="0" style="stop-color:#ff6666;stop-opacity:1;"/> <stop offset="1" style="stop-color:#d90000;stop-opacity:1;"/> </linearGradient> </defs>
<g id="surface1">
<path style=" stroke:none;fill-rule:nonzero;fill:url(#linear0);fill-opacity:1;" d="M 38.136719 5.953125 C 38.109375 5.949219 38.121094 5.996094 38.15625 6.089844 C 38.199219 6.199219 38.257812 6.261719 38.292969 6.226562 C 38.324219 6.191406 38.296875 6.101562 38.21875 6.027344 C 38.179688 5.988281 38.148438 5.960938 38.136719 5.953125 M 24.269531 7.707031 C 23.867188 7.707031 23.679688 7.777344 23.183594 8.019531 C 22.765625 8.222656 22.316406 8.554688 22.078125 8.828125 C 21.628906 9.355469 21.125 10.367188 20.949219 11.09375 C 20.003906 15.03125 22.253906 19.976562 25.484375 21.089844 C 26.992188 21.609375 28.621094 21.019531 29.507812 19.652344 C 30.601562 17.957031 30.765625 15.332031 29.945312 12.796875 C 29.464844 11.320312 28.847656 10.308594 27.8125 9.28125 C 26.679688 8.148438 25.980469 7.792969 24.765625 7.71875 C 24.566406 7.707031 24.40625 7.707031 24.269531 7.707031 M 36.765625 8.6875 C 35.828125 8.699219 34.945312 9.109375 34.175781 9.90625 C 32 12.152344 31.542969 16.636719 33.152344 19.945312 C 33.894531 21.480469 35.230469 22.683594 36.46875 22.925781 C 38.574219 23.34375 40.597656 21.574219 41.414062 18.59375 C 41.753906 17.355469 41.753906 14.730469 41.414062 13.453125 C 40.839844 11.3125 39.457031 9.4375 38.0625 8.925781 C 37.621094 8.761719 37.191406 8.679688 36.765625 8.6875 M 14.847656 14.289062 C 13.027344 14.332031 11.851562 15.695312 11.578125 18.101562 C 11.128906 22.089844 13.992188 26.902344 17.1875 27.523438 C 17.898438 27.660156 17.960938 27.660156 18.589844 27.496094 C 19.734375 27.203125 20.460938 26.433594 20.949219 25.03125 C 21.3125 23.984375 21.3125 21.863281 20.949219 20.523438 C 20.027344 17.136719 17.570312 14.464844 15.222656 14.300781 C 15.097656 14.289062 14.96875 14.289062 14.847656 14.289062 M 46.753906 17.710938 C 45.917969 17.71875 45.089844 18.074219 44.367188 18.832031 C 43.214844 20.046875 42.636719 21.9375 42.753906 24.136719 C 42.828125 25.636719 43.023438 26.398438 43.625 27.648438 C 44.199219 28.835938 45.226562 29.90625 46.132812 30.261719 C 46.890625 30.554688 48.054688 30.535156 48.71875 30.214844 C 49.84375 29.679688 50.898438 28.117188 51.246094 26.488281 C 51.507812 25.273438 51.460938 23.488281 51.144531 22.238281 C 50.421875 19.402344 48.582031 17.707031 46.753906 17.710938 M 31 23.222656 C 29.109375 23.226562 28.800781 23.253906 27.808594 23.515625 C 26.09375 23.960938 23.433594 25.414062 22.179688 26.585938 C 20.980469 27.699219 20.703125 28.371094 20.429688 30.878906 C 20.222656 32.824219 20.113281 33.328125 19.664062 34.269531 C 19.191406 35.265625 18.359375 36.125 16.25 37.789062 C 14.148438 39.445312 13.753906 39.8125 13.144531 40.660156 C 12.019531 42.230469 11.964844 43.839844 12.957031 45.71875 C 14.398438 48.449219 18.023438 50.71875 21.53125 51.085938 C 24.242188 51.367188 26.269531 50.71875 31.742188 47.789062 C 35.367188 45.847656 37.160156 45.269531 39.558594 45.277344 C 40.335938 45.28125 41.566406 45.332031 42.304688 45.402344 C 44.265625 45.585938 46.570312 45.566406 47.558594 45.355469 C 49.625 44.914062 51.148438 43.699219 52.160156 41.667969 C 53.226562 39.519531 53.453125 37.710938 52.800781 36.414062 C 52.0625 34.949219 50.960938 33.988281 49.554688 33.566406 C 49.148438 33.441406 48.128906 33.203125 47.28125 33.027344 C 46.433594 32.851562 45.453125 32.601562 45.101562 32.472656 C 43.480469 31.863281 41.863281 30.375 39.988281 27.789062 C 38.53125 25.777344 37.636719 24.953125 36.171875 24.238281 C 34.414062 23.390625 33.5 23.210938 31 23.222656 M 8.761719 25.535156 C 8.414062 25.550781 8.066406 25.617188 7.734375 25.726562 C 6.171875 26.242188 5.261719 28.136719 5.535156 30.296875 C 5.914062 33.328125 8.25 36.359375 10.902344 37.257812 C 11.414062 37.433594 11.894531 37.5 12.519531 37.507812 C 13.296875 37.507812 13.496094 37.464844 14.09375 37.167969 C 15.320312 36.554688 15.980469 35.285156 15.980469 33.511719 C 15.980469 29.402344 12.128906 25.375 8.761719 25.535156 "/>
</g>
</svg>
