<svg xmlns="http://www.w3.org/2000/svg" xmlns:xlink="http://www.w3.org/1999/xlink" width="64" height="64" viewBox="0 0 64 64" version="1.1">
<defs>
<linearGradient id="linear0" gradientUnits="userSpaceOnUse" x1="0" y1="0" x2="0" y2="1" gradientTransform="matrix(64,0,0,36.25,0,13.875)">
<stop offset="0" style="stop-color:#ff6666;stop-opacity:1;"/>
<stop offset="1" style="stop-color:#d90000;stop-opacity:1;"/>
</linearGradient>
</defs>
<g id="surface1">
<path style=" stroke:none;fill-rule:nonzero;fill:url(#linear0);" d="M 0 13.875 L 0 50.125 L 9.058594 50.125 L 9.058594 49.324219 C 10.515625 49.847656 12.046875 50.117188 13.59375 50.125 C 21.101562 50.125 27.183594 44.035156 27.183594 36.53125 C 27.183594 32.929688 25.753906 29.46875 23.203125 26.921875 C 20.652344 24.371094 17.195312 22.941406 13.59375 22.941406 C 12.046875 22.945312 10.515625 23.214844 9.058594 23.734375 L 9.058594 13.875 Z M 48.328125 13.875 C 43.519531 13.875 38.910156 15.789062 35.511719 19.183594 C 32.113281 22.585938 30.203125 27.191406 30.203125 32 C 30.203125 36.808594 32.113281 41.414062 35.511719 44.816406 C 38.910156 48.210938 43.519531 50.125 48.328125 50.125 C 54.792969 50.113281 60.761719 46.660156 63.996094 41.058594 L 48.328125 41.058594 C 43.320312 41.058594 39.265625 37.003906 39.265625 32 C 39.265625 26.996094 43.320312 22.941406 48.328125 22.941406 L 64 22.941406 C 60.769531 17.339844 54.792969 13.882812 48.328125 13.875 Z M 13.59375 32 C 14.792969 32 15.945312 32.476562 16.796875 33.328125 C 17.644531 34.175781 18.125 35.328125 18.125 36.53125 C 18.125 37.730469 17.644531 38.882812 16.796875 39.734375 C 15.945312 40.585938 14.792969 41.058594 13.59375 41.058594 C 11.089844 41.058594 9.058594 39.03125 9.058594 36.53125 C 9.058594 34.027344 11.089844 32 13.59375 32 Z M 13.59375 32 "/>
</g>
</svg>
