<svg xmlns="http://www.w3.org/2000/svg" xmlns:xlink="http://www.w3.org/1999/xlink" width="64" height="64" viewBox="0 0 64 64" version="1.1">
<defs> <linearGradient id="linear0" gradientUnits="userSpaceOnUse" x1="0" y1="0" x2="0" y2="1" gradientTransform="matrix(55.992188,0,0,56,4.003906,4)"> <stop offset="0" style="stop-color:#ff6666;stop-opacity:1;"/> <stop offset="1" style="stop-color:#d90000;stop-opacity:1;"/> </linearGradient> </defs>
<g id="surface1">
<path style=" stroke:none;fill-rule:nonzero;fill:url(#linear0);fill-opacity:1;" d="M 9.515625 13.941406 L 9.515625 26.96875 L 22.925781 26.96875 L 22.925781 13.941406 Z M 24.910156 13.941406 L 24.910156 26.96875 L 38.3125 26.96875 L 38.3125 13.941406 Z M 40.238281 13.941406 L 40.238281 26.96875 L 53.640625 26.96875 L 53.640625 13.941406 Z M 47.480469 15.8125 C 49.046875 15.8125 50.230469 16.296875 51.121094 17.238281 L 50.097656 18.203125 C 49.496094 17.464844 48.699219 17.050781 47.480469 17.050781 C 45.152344 17.050781 44.179688 18.582031 44.179688 20.507812 C 44.179688 22.382812 45.113281 23.859375 47.472656 23.859375 C 48.695312 23.859375 49.492188 23.457031 50.105469 22.707031 L 51.109375 23.660156 C 50.222656 24.613281 49.03125 25.097656 47.472656 25.097656 C 44.363281 25.097656 42.753906 23.238281 42.753906 20.507812 C 42.753906 17.761719 44.425781 15.8125 47.480469 15.8125 M 13.007812 15.925781 L 16.65625 15.925781 C 18.308594 15.925781 19.101562 17.089844 19.101562 18.425781 C 19.101562 19.21875 18.851562 19.792969 18.296875 20.21875 L 18.296875 20.246094 C 19.035156 20.570312 19.4375 21.367188 19.4375 22.359375 C 19.4375 23.984375 18.472656 24.996094 16.726562 24.996094 L 13.007812 24.996094 L 13.007812 15.925781 M 28.40625 15.925781 L 32.042969 15.925781 C 33.695312 15.925781 34.496094 17.089844 34.496094 18.425781 C 34.496094 19.222656 34.25 19.792969 33.691406 20.21875 L 33.691406 20.246094 C 34.429688 20.570312 34.832031 21.367188 34.832031 22.359375 C 34.832031 23.984375 33.867188 24.996094 32.125 24.996094 L 28.40625 24.996094 L 28.40625 15.925781 M 14.03125 17.164062 L 14.144531 17.300781 L 14.144531 19.574219 L 14.03125 19.703125 L 16.558594 19.703125 C 17.589844 19.703125 17.933594 19.132812 17.933594 18.414062 C 17.933594 17.589844 17.496094 17.164062 16.558594 17.164062 Z M 29.425781 17.164062 L 29.546875 17.300781 L 29.546875 19.574219 L 29.425781 19.703125 L 31.949219 19.703125 C 32.980469 19.703125 33.328125 19.132812 33.328125 18.414062 C 33.328125 17.589844 32.886719 17.164062 31.949219 17.164062 Z M 14.03125 20.949219 L 14.144531 21.078125 L 14.144531 23.609375 L 14.03125 23.746094 L 16.726562 23.746094 C 17.871094 23.746094 18.265625 23.25 18.265625 22.359375 C 18.265625 21.5 17.820312 20.949219 16.726562 20.949219 Z M 29.425781 20.949219 L 29.546875 21.078125 L 29.546875 23.609375 L 29.425781 23.746094 L 32.125 23.746094 C 33.265625 23.746094 33.664062 23.25 33.664062 22.359375 C 33.664062 21.5 33.214844 20.949219 32.125 20.949219 Z M 57.714844 33.410156 C 56.101562 33.410156 54.761719 33.796875 53.742188 34.570312 C 52.734375 35.351562 52.210938 36.4375 52.210938 37.75 C 52.210938 38.960938 52.558594 39.976562 53.25 40.765625 C 53.941406 41.542969 55.074219 42.195312 56.617188 42.742188 C 57.683594 43.121094 58.476562 43.457031 58.980469 43.746094 L 58.980469 43.75 C 59.492188 44.039062 59.84375 44.339844 60.035156 44.636719 C 60.230469 44.9375 60.335938 45.328125 60.335938 45.832031 C 60.335938 46.578125 60.070312 47.113281 59.496094 47.539062 C 58.933594 47.957031 58.058594 48.1875 56.855469 48.1875 C 56.152344 48.1875 55.386719 48.109375 54.566406 47.941406 C 53.753906 47.777344 53.003906 47.550781 52.324219 47.261719 L 51.996094 47.121094 L 51.996094 49.5625 L 52.132812 49.625 C 53.25 50.15625 54.789062 50.40625 56.765625 50.40625 C 58.652344 50.40625 60.148438 50 61.242188 49.152344 C 62.332031 48.300781 62.886719 47.113281 62.886719 45.65625 C 62.886719 44.882812 62.734375 44.195312 62.425781 43.621094 C 62.121094 43.039062 61.648438 42.535156 61.023438 42.105469 C 60.394531 41.667969 59.460938 41.238281 58.230469 40.792969 C 57.214844 40.429688 56.476562 40.101562 56.019531 39.832031 C 55.574219 39.558594 55.253906 39.277344 55.0625 38.972656 C 55.0625 38.972656 55.0625 38.964844 55.0625 38.964844 C 54.878906 38.660156 54.785156 38.269531 54.785156 37.773438 C 54.785156 37.09375 55.015625 36.605469 55.511719 36.234375 C 56.011719 35.867188 56.726562 35.664062 57.667969 35.664062 C 58.847656 35.664062 60.132812 35.945312 61.523438 36.503906 L 61.746094 36.597656 L 61.832031 36.371094 L 62.476562 34.628906 L 62.550781 34.417969 L 62.347656 34.332031 C 60.933594 33.722656 59.390625 33.410156 57.714844 33.410156 Z M 1.226562 33.644531 L 1.226562 50.1875 L 3.617188 50.1875 L 3.617188 40.96875 C 3.617188 39.976562 3.570312 38.816406 3.480469 37.476562 L 3.46875 37.320312 L 11.90625 50.082031 L 11.976562 50.1875 L 14.523438 50.1875 L 14.523438 49.953125 L 14.761719 49.953125 L 14.761719 33.644531 L 12.351562 33.644531 L 12.351562 42.953125 C 12.351562 43.4375 12.371094 44.226562 12.417969 45.3125 C 12.445312 45.976562 12.457031 46.152344 12.476562 46.480469 L 9.980469 42.6875 L 4.570312 34.539062 L 4.570312 34.53125 L 4.0625 33.757812 L 3.996094 33.648438 L 1.226562 33.648438 M 18.761719 33.648438 L 18.761719 50.191406 L 28.207031 50.191406 L 28.207031 49.960938 L 28.445312 49.960938 L 28.445312 47.941406 L 21.3125 47.941406 L 21.3125 42.675781 L 28.03125 42.675781 L 28.03125 40.441406 L 21.3125 40.441406 L 21.3125 35.898438 L 28.445312 35.898438 L 28.445312 33.648438 L 18.761719 33.648438 M 29.574219 33.648438 L 29.660156 33.945312 L 34.019531 50.023438 L 34.066406 50.191406 L 36.519531 50.191406 L 36.570312 50.027344 L 39.683594 39.558594 C 39.9375 38.738281 40.113281 38.03125 40.257812 37.394531 C 40.402344 37.953125 40.589844 38.625 40.851562 39.492188 L 44.0625 50.027344 L 44.113281 50.191406 L 46.382812 50.191406 L 46.382812 49.960938 L 46.617188 50.023438 L 50.996094 33.945312 L 51.082031 33.648438 L 48.421875 33.648438 L 48.378906 33.824219 L 45.828125 43.621094 C 45.566406 44.605469 45.390625 45.433594 45.242188 46.203125 C 45.0625 45.320312 44.851562 44.445312 44.582031 43.585938 L 41.550781 33.8125 L 41.5 33.648438 L 39.007812 33.648438 L 38.957031 33.8125 L 36.046875 43.511719 C 35.777344 44.449219 35.570312 45.328125 35.402344 46.171875 C 35.246094 45.328125 35.066406 44.492188 34.839844 43.640625 L 32.277344 33.824219 L 32.230469 33.648438 L 29.574219 33.648438 "/>
</g>
</svg>
