<svg xmlns="http://www.w3.org/2000/svg" xmlns:xlink="http://www.w3.org/1999/xlink" width="64" height="64" viewBox="0 0 64 64" version="1.1">
<defs> <linearGradient id="linear0" gradientUnits="userSpaceOnUse" x1="0" y1="0" x2="0" y2="1" gradientTransform="matrix(55.992188,0,0,56,4.003906,4)"> <stop offset="0" style="stop-color:#ff6666;stop-opacity:1;"/> <stop offset="1" style="stop-color:#d90000;stop-opacity:1;"/> </linearGradient> </defs>
<g id="surface1">
<path style=" stroke:none;fill-rule:nonzero;fill:url(#linear0);fill-opacity:1;" d="M 18.671875 6.367188 C 16.523438 6.367188 14.78125 8.105469 14.78125 10.242188 L 14.78125 54.105469 C 14.78125 56.242188 16.523438 57.980469 18.671875 57.980469 L 45.441406 57.980469 C 47.589844 57.980469 49.332031 56.242188 49.332031 54.105469 L 49.332031 10.242188 C 49.332031 8.105469 47.589844 6.367188 45.441406 6.367188 L 18.671875 6.367188 M 32.054688 11.429688 C 35.808594 11.429688 38.859375 14.464844 38.859375 18.203125 C 38.859375 21.9375 35.808594 24.972656 32.054688 24.972656 C 28.300781 24.972656 25.253906 21.9375 25.253906 18.203125 C 25.253906 14.464844 28.300781 11.429688 32.054688 11.429688 M 32.054688 15.296875 C 30.449219 15.296875 29.136719 16.597656 29.136719 18.199219 C 29.136719 19.804688 30.449219 21.101562 32.054688 21.101562 C 33.664062 21.101562 34.976562 19.804688 34.976562 18.199219 C 34.976562 16.597656 33.664062 15.296875 32.054688 15.296875 M 32.054688 31.636719 C 37.949219 31.636719 42.742188 36.410156 42.742188 42.28125 C 42.742188 48.148438 37.949219 52.921875 32.054688 52.921875 C 26.160156 52.921875 21.367188 48.148438 21.367188 42.28125 C 21.367188 36.410156 26.160156 31.636719 32.054688 31.636719 M 32.054688 35.503906 C 28.300781 35.503906 25.257812 38.546875 25.257812 42.28125 C 25.257812 46.019531 28.300781 49.054688 32.054688 49.054688 C 35.808594 49.054688 38.859375 46.019531 38.859375 42.28125 C 38.859375 38.546875 35.804688 35.503906 32.054688 35.503906 "/>
</g>
</svg>
