<svg xmlns="http://www.w3.org/2000/svg" xmlns:xlink="http://www.w3.org/1999/xlink" width="64" height="64" viewBox="0 0 64 64" version="1.1">
<defs>
<linearGradient id="linear0" gradientUnits="userSpaceOnUse" x1="0" y1="0" x2="0" y2="1" gradientTransform="matrix(71.940186,0,0,79.006577,-4.601233,-6.600595)">
<stop offset="0" style="stop-color:#ff6666;stop-opacity:1;"/>
<stop offset="1" style="stop-color:#d90000;stop-opacity:1;"/>
</linearGradient>
</defs>
<g id="surface1">
<path style=" stroke:none;fill-rule:evenodd;fill:url(#linear0);" d="M 20.128906 3.570312 C 18.601562 4.503906 16.945312 5.527344 15.632812 6.328125 L 15.632812 36.613281 C 15.632812 41.550781 17.878906 45.253906 26.871094 50.191406 C 26.871094 50.191406 29.121094 51.425781 31.367188 51.425781 C 33.617188 51.425781 35.863281 50.191406 35.863281 50.191406 C 44.855469 45.253906 47.105469 41.550781 47.105469 36.613281 L 47.105469 29.207031 C 47.105469 24.269531 44.855469 20.566406 35.863281 15.628906 C 35.863281 15.628906 33.617188 14.394531 31.367188 14.394531 L 31.367188 20.566406 C 37.574219 20.566406 42.609375 26.09375 42.609375 32.910156 C 42.609375 39.726562 37.574219 45.253906 31.367188 45.253906 C 25.160156 45.253906 20.128906 39.726562 20.128906 32.910156 Z M 29.121094 14.757812 C 27.847656 15.121094 26.871094 15.625 26.871094 15.625 L 26.871094 21.605469 C 27.59375 21.253906 28.347656 20.984375 29.121094 20.808594 Z M 24.625 16.980469 C 23.863281 17.441406 23.113281 17.925781 22.375 18.4375 L 22.375 25.570312 C 23.015625 24.628906 23.773438 23.796875 24.625 23.089844 Z M 24.625 16.980469 "/>
</g>
</svg>
