<svg xmlns="http://www.w3.org/2000/svg" xmlns:xlink="http://www.w3.org/1999/xlink" width="64" height="64" viewBox="0 0 64 64" version="1.1">
<defs>
<linearGradient id="linear0" gradientUnits="userSpaceOnUse" x1="0" y1="0" x2="0" y2="1" gradientTransform="matrix(56,0,0,56,4.125,4)">
<stop offset="0" style="stop-color:#ff6666;stop-opacity:1;"/>
<stop offset="1" style="stop-color:#d90000;stop-opacity:1;"/>
</linearGradient>
<linearGradient id="linear1" gradientUnits="userSpaceOnUse" x1="0" y1="0" x2="0" y2="1" gradientTransform="matrix(46.5,0,0,46.5,8.625,8.753906)">
<stop offset="0" style="stop-color:#ff6666;stop-opacity:1;"/>
<stop offset="1" style="stop-color:#d90000;stop-opacity:1;"/>
</linearGradient>
</defs>
<g id="surface1">
<path style=" stroke:none;fill-rule:nonzero;fill:url(#linear0);" d="M 31.195312 2.785156 C 24.039062 2.785156 20.414062 7.085938 20.414062 15.566406 L 20.414062 21.957031 C 20.414062 22.433594 20.261719 23 19.988281 23.453125 C 19.898438 23.609375 19.460938 24.117188 19.082031 24.558594 C 16.9375 27.046875 12.203125 33.917969 11.324219 41.386719 C 11.664062 41.332031 12.015625 41.292969 12.40625 41.292969 C 13.347656 41.292969 15.839844 41.292969 19.8125 46.726562 C 20.570312 47.628906 20.972656 48.1875 21.515625 48.945312 C 21.882812 49.464844 22.332031 50.097656 23.054688 51.050781 L 23.089844 51.097656 L 23.132812 51.152344 C 23.554688 51.765625 23.984375 52.253906 24.40625 52.71875 C 24.644531 52.988281 24.890625 53.273438 25.132812 53.558594 C 26.074219 53.246094 27.039062 52.773438 27.609375 52.09375 C 28.363281 51.054688 28.277344 49.820312 27.386719 48.714844 C 27.019531 48.253906 26.34375 47.921875 24.71875 47.148438 C 23.746094 46.6875 22.53125 46.109375 21.980469 45.722656 C 20.683594 44.804688 18.871094 42.800781 18.871094 41.210938 C 18.871094 37.816406 21.613281 32.636719 23.808594 29.566406 C 25.070312 27.816406 26.023438 26.460938 26.402344 25.3125 C 26.617188 25.433594 26.859375 25.554688 27.191406 25.652344 L 27.246094 25.664062 L 27.308594 25.679688 C 28.382812 25.914062 29.457031 25.875 30.15625 25.875 C 31.605469 25.875 32.652344 25.292969 33.628906 24.808594 C 34.582031 24.328125 35.527344 23.875 35.664062 23.835938 C 36.363281 24.929688 37.269531 25.945312 38.207031 27 C 40.78125 29.871094 43.875 34.710938 44.785156 41.898438 C 45.984375 41.367188 46.667969 41.210938 48.136719 41.210938 C 48.171875 41.210938 48.207031 41.21875 48.234375 41.21875 C 48.367188 41.210938 48.492188 41.199219 48.625 41.199219 C 49.007812 41.199219 49.398438 41.222656 49.785156 41.253906 C 50.695312 41.296875 51.914062 41.558594 52.628906 41.761719 C 53.828125 42.054688 54.824219 42.578125 55.519531 43.25 C 56.144531 43.253906 56.75 43.371094 57.304688 43.597656 C 57.304688 42.765625 57.375 41.539062 57.375 41.210938 C 57.375 36.992188 54.046875 31.171875 51.539062 28.183594 C 51.019531 27.566406 50.519531 26.988281 50.039062 26.429688 C 47.820312 23.878906 46.058594 21.863281 45.058594 18.394531 C 44.394531 16.132812 44.308594 15.429688 44.214844 14.761719 C 44.128906 14.082031 44.035156 13.371094 43.484375 11.464844 C 42.492188 7.597656 41.253906 2.785156 31.195312 2.785156 Z M 26.578125 10.457031 C 28.277344 10.457031 29.660156 13.027344 29.660156 15.152344 C 29.660156 15.277344 29.632812 15.484375 29.625 15.667969 C 29.511719 15.664062 29.394531 15.652344 29.273438 15.652344 C 28.835938 15.652344 28.429688 15.703125 28.039062 15.792969 C 27.851562 14.972656 27.289062 14.371094 26.578125 14.371094 C 25.726562 14.371094 25.039062 15.230469 25.039062 16.289062 C 25.039062 16.546875 25.078125 16.792969 25.15625 17.019531 C 24.738281 17.273438 24.421875 17.496094 24.234375 17.652344 L 24.089844 17.753906 C 23.976562 17.550781 23.875 17.34375 23.796875 17.125 C 23.621094 16.234375 23.496094 15.152344 23.496094 15.152344 C 23.496094 13.03125 24.875 10.457031 26.578125 10.457031 Z M 34.273438 10.457031 C 35.976562 10.457031 37.355469 13.027344 37.355469 15.152344 C 37.355469 15.9375 37.152344 16.867188 36.820312 17.597656 C 36.417969 17.457031 36.003906 17.34375 35.578125 17.253906 C 35.714844 16.964844 35.816406 16.648438 35.816406 16.289062 C 35.816406 15.230469 35.125 14.371094 34.273438 14.371094 C 33.429688 14.371094 32.734375 15.230469 32.734375 16.289062 L 32.734375 16.300781 C 32.253906 16.136719 31.753906 15.996094 31.242188 15.882812 C 31.21875 15.640625 31.203125 15.394531 31.195312 15.152344 C 31.195312 13.027344 32.574219 10.457031 34.273438 10.457031 Z M 29.273438 18.203125 C 29.902344 18.203125 30.8125 18.410156 31.640625 18.691406 C 32.472656 18.96875 33.175781 19.273438 33.765625 19.484375 L 33.882812 19.527344 L 34.007812 19.546875 C 34.792969 19.703125 35.496094 19.867188 35.789062 19.992188 C 35.710938 20.539062 35.632812 20.84375 35.597656 20.886719 C 35.550781 20.941406 35.332031 21.109375 34.546875 21.460938 C 33.574219 21.75 32.835938 22.222656 32.035156 22.617188 C 31.164062 23.050781 30.285156 23.320312 30.15625 23.320312 C 29.484375 23.320312 28.550781 23.277344 28.175781 23.210938 C 28.320312 23.246094 28.070312 23.140625 27.75 22.898438 C 27.40625 22.628906 26.980469 22.261719 26.546875 21.875 L 26.429688 21.78125 L 26.308594 21.707031 C 25.820312 21.417969 25.433594 21.160156 25.246094 20.972656 C 25.054688 20.785156 25.039062 20.730469 25.039062 20.605469 C 25.039062 20.414062 24.996094 20.535156 25.132812 20.402344 C 25.273438 20.265625 25.691406 19.992188 26.261719 19.574219 L 26.3125 19.535156 L 26.363281 19.492188 C 26.28125 19.566406 26.835938 19.113281 27.449219 18.78125 C 28.054688 18.453125 28.804688 18.203125 29.273438 18.203125 Z M 48.625 43.761719 C 47.1875 43.761719 46.191406 44.117188 45.917969 44.402344 C 46.546875 45.003906 46.929688 45.582031 47.324219 46.628906 C 47.75 47.410156 48.820312 47.605469 49.679688 47.605469 C 52.289062 47.605469 52.796875 46.296875 53.621094 45.566406 C 53.621094 45.566406 53.40625 45.363281 53.40625 45.171875 C 53.1875 44.78125 52.546875 44.390625 51.695312 44.195312 C 51.050781 44.003906 49.980469 43.808594 49.550781 43.808594 C 49.242188 43.777344 48.933594 43.761719 48.625 43.761719 Z M 12.40625 43.84375 C 11.332031 43.84375 10.808594 44.285156 10.089844 44.878906 C 9.375 45.46875 8.617188 46.386719 7.363281 47.128906 C 6.265625 48.316406 2.972656 47.171875 2.03125 48.960938 C 1.507812 49.941406 3.304688 51.226562 3.304688 53.4375 C 3.304688 54.328125 2.40625 54.917969 2.230469 55.511719 C 2.050781 56.242188 1.871094 56.6875 2.230469 57.277344 C 2.941406 58.160156 3.839844 58.464844 9.914062 59.484375 C 13.121094 60.082031 16.164062 61.5625 18.121094 61.707031 C 20.085938 61.851562 23.476562 61.707031 23.476562 57.722656 C 23.65625 55.359375 22.050781 54.773438 20.445312 52.40625 C 18.660156 50.042969 18.480469 49.605469 17.234375 48.125 C 16.164062 46.652344 13.839844 43.847656 12.40625 43.847656 Z M 43.878906 46.398438 C 43.515625 46.996094 43.515625 47.453125 43.515625 48.960938 C 43.515625 50.171875 43.515625 51.523438 43.335938 52.585938 C 42.96875 55.148438 41.980469 56.304688 41.980469 57.808594 C 41.980469 59.476562 42.527344 60.535156 43.253906 60.988281 C 43.796875 61.441406 44.710938 61.742188 46.714844 61.742188 C 48.714844 61.742188 49.984375 61.136719 51.257812 60.082031 C 52.167969 59.324219 52.898438 59.027344 55.453125 57.511719 C 57.445312 56.457031 60.542969 55.101562 61.085938 54.644531 C 61.453125 54.34375 62 54.1875 62 53.277344 C 62 52.527344 61.269531 52.226562 60.722656 52.078125 C 60 51.769531 58.730469 51.316406 57.632812 49.957031 C 57.15625 49.304688 57.230469 47.621094 56.65625 46.597656 L 55.867188 47.300781 C 55.78125 47.382812 55.699219 47.484375 55.613281 47.582031 C 54.867188 48.421875 53.308594 50.160156 49.679688 50.160156 C 47.296875 50.160156 45.371094 49.234375 44.523438 47.679688 L 44.441406 47.542969 L 44.382812 47.386719 C 44.191406 46.878906 44.035156 46.605469 43.878906 46.398438 Z M 39.675781 54.566406 C 38.207031 55.613281 35.964844 56.628906 32.734375 56.628906 C 29.457031 56.628906 27.242188 55.625 25.835938 54.597656 C 26.320312 55.445312 26.648438 56.457031 26.558594 57.800781 C 26.558594 58.285156 26.5 58.746094 26.417969 59.183594 L 39.023438 59.183594 C 38.945312 58.730469 38.902344 58.269531 38.894531 57.808594 C 38.894531 56.683594 39.234375 55.765625 39.5625 54.871094 C 39.597656 54.777344 39.632812 54.664062 39.675781 54.5625 Z M 39.675781 54.566406 "/>
<path style=" stroke:none;fill-rule:nonzero;fill:url(#linear1);fill-opacity:1;" d="M 22.53125 39.683594 L 22.53125 43.019531 L 24.453125 43.019531 C 25.097656 43.019531 25.574219 42.882812 25.886719 42.613281 C 26.195312 42.335938 26.351562 41.914062 26.351562 41.347656 C 26.351562 40.78125 26.195312 40.359375 25.886719 40.09375 C 25.574219 39.820312 25.097656 39.683594 24.453125 39.683594 Z M 22.53125 35.9375 L 22.53125 38.683594 L 24.304688 38.683594 C 24.890625 38.683594 25.328125 38.574219 25.613281 38.34375 C 25.898438 38.117188 26.042969 37.777344 26.042969 37.3125 C 26.042969 36.851562 25.898438 36.507812 25.613281 36.28125 C 25.328125 36.054688 24.890625 35.9375 24.304688 35.9375 Z M 21.335938 34.921875 L 24.394531 34.921875 C 25.308594 34.921875 26.007812 35.117188 26.503906 35.511719 C 26.996094 35.898438 27.246094 36.457031 27.246094 37.179688 C 27.246094 37.738281 27.117188 38.179688 26.867188 38.507812 C 26.613281 38.835938 26.242188 39.039062 25.753906 39.121094 C 26.339844 39.253906 26.796875 39.527344 27.125 39.941406 C 27.449219 40.355469 27.617188 40.867188 27.617188 41.484375 C 27.617188 42.296875 27.347656 42.925781 26.808594 43.367188 C 26.269531 43.8125 25.503906 44.035156 24.511719 44.035156 L 21.335938 44.035156 Z M 29.667969 34.921875 L 35.265625 34.921875 L 35.265625 35.96875 L 30.867188 35.96875 L 30.867188 38.664062 L 35.082031 38.664062 L 35.082031 39.699219 L 30.867188 39.699219 L 30.867188 43 L 35.371094 43 L 35.371094 44.035156 L 29.667969 44.035156 Z M 42.652344 35.226562 L 42.652344 36.425781 C 42.199219 36.199219 41.769531 36.039062 41.363281 35.925781 C 40.960938 35.816406 40.570312 35.761719 40.195312 35.761719 C 39.542969 35.761719 39.039062 35.890625 38.683594 36.152344 C 38.332031 36.414062 38.15625 36.785156 38.15625 37.261719 C 38.15625 37.664062 38.273438 37.972656 38.507812 38.175781 C 38.742188 38.382812 39.1875 38.546875 39.847656 38.667969 L 40.570312 38.824219 C 41.460938 39 42.121094 39.308594 42.542969 39.75 C 42.972656 40.1875 43.1875 40.777344 43.1875 41.519531 C 43.1875 42.402344 42.898438 43.070312 42.324219 43.527344 C 41.746094 43.984375 40.902344 44.210938 39.792969 44.210938 C 39.375 44.210938 38.925781 44.160156 38.453125 44.0625 C 37.980469 43.964844 37.492188 43.824219 36.984375 43.628906 L 36.984375 42.363281 C 37.472656 42.640625 37.949219 42.855469 38.414062 43 C 38.878906 43.140625 39.339844 43.210938 39.792969 43.210938 C 40.476562 43.210938 41.003906 43.074219 41.375 42.796875 C 41.746094 42.519531 41.933594 42.125 41.933594 41.613281 C 41.933594 41.167969 41.800781 40.816406 41.53125 40.566406 C 41.265625 40.3125 40.828125 40.125 40.21875 39.992188 L 39.488281 39.851562 C 38.59375 39.667969 37.945312 39.382812 37.546875 38.988281 C 37.148438 38.601562 36.949219 38.058594 36.949219 37.359375 C 36.949219 36.554688 37.226562 35.921875 37.777344 35.460938 C 38.328125 34.996094 39.089844 34.761719 40.058594 34.761719 C 40.476562 34.761719 40.898438 34.800781 41.328125 34.875 C 41.757812 34.957031 42.199219 35.070312 42.652344 35.226562 Z M 20.140625 32.4375 "/>
</g>
</svg>
