<svg xmlns="http://www.w3.org/2000/svg" xmlns:xlink="http://www.w3.org/1999/xlink" width="64" height="64" viewBox="0 0 64 64" version="1.1">
<defs> <linearGradient id="linear0" gradientUnits="userSpaceOnUse" x1="0" y1="0" x2="0" y2="1" gradientTransform="matrix(55.992188,0,0,56,4.003906,4)"> <stop offset="0" style="stop-color:#ff6666;stop-opacity:1;"/> <stop offset="1" style="stop-color:#d90000;stop-opacity:1;"/> </linearGradient> </defs>
<g id="surface1">
<path style=" stroke:none;fill-rule:evenodd;fill:url(#linear0);fill-opacity:1;" d="M 28.019531 7 C 15.722656 7 5.757812 17.515625 5.757812 30.480469 C 5.757812 43.425781 15.683594 53.929688 27.949219 53.96875 C 27.972656 53.96875 27.996094 53.96875 28.019531 53.96875 L 52.535156 53.96875 L 52.535156 53.863281 L 52.546875 53.863281 L 52.546875 25.1875 L 42.328125 25.1875 L 34.515625 35.957031 L 29.226562 35.957031 L 29.226562 7.035156 C 28.824219 7.011719 28.425781 7 28.019531 7 "/>
<path style=" stroke:none;fill-rule:evenodd;fill:url(#linear0);fill-opacity:1;" d="M 47.34375 15.902344 C 47.34375 19.707031 44.25 22.796875 40.421875 22.796875 C 36.597656 22.796875 33.503906 19.707031 33.503906 15.902344 C 33.503906 12.097656 36.597656 9.007812 40.421875 9.007812 C 44.242188 9.007812 47.34375 12.097656 47.34375 15.902344 "/>
</g>
</svg>
