<svg xmlns="http://www.w3.org/2000/svg" xmlns:xlink="http://www.w3.org/1999/xlink" width="64" height="64" viewBox="0 0 64 64" version="1.1">
<defs>
<linearGradient id="linear0" gradientUnits="userSpaceOnUse" x1="0" y1="0" x2="0" y2="1" gradientTransform="matrix(64,0,0,51.808594,0,6.097656)">
<stop offset="0" style="stop-color:#ff6666;stop-opacity:1;"/>
<stop offset="1" style="stop-color:#d90000;stop-opacity:1;"/>
</linearGradient>
</defs>
<g id="surface1">
<path style=" stroke:none;fill-rule:nonzero;fill:url(#linear0);" d="M 50.640625 46.890625 C 45.855469 44.84375 42.367188 41.769531 38.980469 40.4375 C 40.773438 39.617188 42.46875 38.488281 43.464844 37.460938 C 44.558594 36.335938 44.960938 35 44.859375 33.667969 C 48.449219 36.128906 52.636719 36.335938 54.828125 36.4375 C 57.019531 36.539062 59.214844 37.050781 59.613281 38.074219 C 59.613281 38.074219 60.3125 25.570312 35.289062 17.269531 C 35.289062 17.269531 42.769531 20.753906 45.058594 23.519531 C 45.058594 23.519531 42.367188 23.316406 41.273438 25.160156 C 40.671875 26.085938 40.570312 27.414062 41.070312 28.953125 C 40.671875 28.851562 40.175781 28.851562 39.675781 28.746094 L 0 6.097656 L 4.1875 15.320312 L 0.300781 13.882812 L 1.496094 16.140625 C 1.496094 16.140625 3.1875 19.421875 6.980469 26.289062 C 9.96875 31.71875 15.351562 34.386719 22.527344 34.078125 L 23.429688 34.078125 C 25.21875 33.976562 28.011719 33.667969 30.703125 33.464844 C 30.503906 34.488281 30.503906 35.71875 30.804688 37.15625 C 31.105469 38.796875 31.800781 39.921875 32.601562 40.535156 C 30.503906 41.558594 28.816406 43.613281 28.019531 45.96875 C 27.421875 47.507812 27.21875 49.246094 28.019531 51.402344 C 28.121094 51.8125 28.316406 52.222656 28.617188 52.734375 C 28.816406 53.144531 29.117188 53.554688 29.511719 53.964844 C 33.898438 59.398438 44.359375 58.476562 51.140625 55.605469 C 51.238281 55.605469 51.339844 55.503906 51.441406 55.503906 C 51.9375 55.296875 52.535156 54.988281 53.035156 54.785156 C 53.136719 54.683594 53.230469 54.683594 53.332031 54.578125 C 53.933594 54.273438 54.433594 53.964844 55.027344 53.65625 C 61.707031 49.660156 64 44.945312 64 44.945312 C 64 44.945312 57.121094 49.660156 50.640625 46.890625 Z M 51.726562 27.726562 C 53.621094 28.546875 56.511719 33.46875 56.511719 33.46875 C 54.121094 33.058594 49.230469 31.421875 48.734375 29.570312 C 48.234375 27.726562 49.832031 26.90625 51.726562 27.726562 Z M 46.054688 52.53125 C 46.054688 52.53125 46.554688 54.171875 45.957031 56.324219 C 45.261719 56.527344 44.558594 56.632812 43.863281 56.835938 C 45.058594 55.910156 46.054688 54.476562 46.054688 52.53125 Z M 13.261719 21.265625 L 30.503906 31.3125 C 27.316406 31.621094 24.023438 31.929688 22.332031 32.027344 C 19.738281 32.132812 17.445312 31.824219 15.453125 31.109375 C 12.460938 30.078125 10.269531 28.03125 8.671875 25.265625 C 6.679688 21.78125 5.382812 19.214844 4.488281 17.574219 L 8.074219 18.804688 L 4.488281 10.910156 L 35.886719 28.746094 C 34.992188 28.851562 34.191406 29.160156 33.394531 29.46875 Z M 31.601562 33.871094 C 32.796875 27.929688 40.277344 29.773438 40.277344 29.773438 C 37.585938 29.773438 35.988281 30.492188 35.1875 31.621094 C 33.992188 33.261719 35.488281 34.59375 35.488281 34.59375 C 35.09375 34.488281 34.691406 34.386719 34.492188 34.179688 L 34.492188 34.285156 C 35.09375 36.640625 36.984375 37.257812 36.984375 37.257812 C 36.289062 37.359375 35.6875 37.257812 35.1875 37.15625 C 35.589844 38.074219 36.1875 38.796875 36.488281 39 C 34.792969 39 33.992188 39.40625 33.394531 39.617188 C 32.101562 38.691406 31.003906 36.4375 31.601562 33.871094 Z M 36.992188 46.996094 C 36.992188 46.996094 34.300781 50.480469 28.414062 50.480469 C 28.121094 49.148438 28.214844 47.816406 28.515625 46.585938 C 30.410156 47.816406 33.203125 48.429688 36.992188 46.996094 Z M 32.105469 55.09375 C 34.597656 54.476562 37.789062 53.042969 40.78125 49.554688 C 40.78125 49.554688 40.378906 53.453125 37.589844 57.039062 C 36.292969 56.835938 34.996094 56.527344 33.800781 56.015625 C 33.203125 55.707031 32.605469 55.398438 32.105469 55.09375 Z M 55.328125 51.914062 C 55.027344 50.992188 54.828125 49.042969 54.828125 49.042969 C 56.925781 49.246094 59.414062 48.328125 59.414062 48.328125 C 57.71875 50.585938 55.328125 51.914062 55.328125 51.914062 Z M 55.328125 51.914062 "/>
</g>
</svg>
