<svg xmlns="http://www.w3.org/2000/svg" xmlns:xlink="http://www.w3.org/1999/xlink" width="64" height="64" viewBox="0 0 64 64" version="1.1">
<defs> <linearGradient id="linear0" gradientUnits="userSpaceOnUse" x1="0" y1="0" x2="0" y2="1" gradientTransform="matrix(55.992188,0,0,56,4.003906,4)"> <stop offset="0" style="stop-color:#ff6666;stop-opacity:1;"/> <stop offset="1" style="stop-color:#d90000;stop-opacity:1;"/> </linearGradient> </defs>
<g id="surface1">
<path style=" stroke:none;fill-rule:nonzero;fill:url(#linear0);fill-opacity:1;" d="M 20.515625 7.511719 C 14.015625 7.679688 8.75 12.832031 8.460938 19.300781 C 8.160156 26.105469 13.445312 31.867188 20.277344 32.183594 C 22.0625 32.257812 23.839844 31.953125 25.492188 31.28125 C 20.628906 29.324219 17.527344 24.527344 17.757812 19.300781 C 17.972656 14.484375 21 10.230469 25.492188 8.421875 C 24.179688 7.890625 22.789062 7.582031 21.375 7.515625 C 21.085938 7.503906 20.800781 7.5 20.515625 7.511719 Z M 20.515625 7.511719 "/>
<path style=" stroke:none;fill-rule:nonzero;fill:url(#linear0);fill-opacity:1;" d="M 39.433594 11.230469 L 37.585938 12.136719 L 37.292969 14.167969 L 35.855469 12.695312 L 33.828125 13.046875 L 34.78125 11.230469 L 33.828125 9.417969 L 35.855469 9.765625 L 37.292969 8.296875 L 37.585938 10.328125 Z M 39.433594 11.230469 "/>
<path style=" stroke:none;fill-rule:nonzero;fill:url(#linear0);fill-opacity:1;" d="M 49.019531 19.578125 L 47.171875 20.484375 L 46.878906 22.515625 L 45.441406 21.042969 L 43.414062 21.394531 L 44.375 19.578125 L 43.414062 17.761719 L 45.441406 18.113281 L 46.878906 16.644531 L 47.171875 18.675781 Z M 49.019531 19.578125 "/>
<path style=" stroke:none;fill-rule:nonzero;fill:url(#linear0);fill-opacity:1;" d="M 58.308594 10.328125 L 56.46875 11.230469 L 56.167969 13.257812 L 54.738281 11.792969 L 52.710938 12.136719 L 53.664062 10.328125 L 52.710938 8.511719 L 54.738281 8.855469 L 56.167969 7.390625 L 56.46875 9.417969 Z M 58.308594 10.328125 "/>
<path style=" stroke:none;fill-rule:nonzero;fill:url(#linear0);fill-opacity:1;" d="M 58.015625 23.570312 L 56.167969 24.476562 L 55.875 26.5 L 54.441406 25.035156 L 52.414062 25.382812 L 53.371094 23.570312 L 52.414062 21.757812 L 54.441406 22.101562 L 55.875 20.636719 L 56.167969 22.660156 Z M 58.015625 23.570312 "/>
<path style=" stroke:none;fill-rule:nonzero;fill:url(#linear0);fill-opacity:1;" d="M 39.195312 37.398438 C 35.765625 37.398438 33 40.210938 33 43.664062 L 33 46.652344 L 31.453125 46.652344 C 30.597656 46.652344 29.902344 47.339844 29.902344 48.195312 L 29.902344 57.445312 C 29.902344 58.300781 30.597656 58.992188 31.453125 58.992188 L 46.941406 58.992188 C 47.796875 58.992188 48.492188 58.300781 48.492188 57.445312 L 48.492188 48.195312 C 48.492188 47.339844 47.796875 46.652344 46.941406 46.652344 L 45.390625 46.652344 L 45.390625 43.664062 C 45.390625 40.210938 42.628906 37.398438 39.195312 37.398438 Z M 39.195312 40.480469 C 40.910156 40.480469 42.296875 41.859375 42.296875 43.570312 L 42.296875 46.652344 L 36.097656 46.652344 L 36.097656 43.570312 C 36.097656 41.859375 37.480469 40.480469 39.195312 40.480469 Z M 39.195312 40.480469 "/>
</g>
</svg>
