<svg xmlns="http://www.w3.org/2000/svg" xmlns:xlink="http://www.w3.org/1999/xlink" width="64" height="64" viewBox="0 0 64 64" version="1.1">
<defs> <linearGradient id="linear0" gradientUnits="userSpaceOnUse" x1="0" y1="0" x2="0" y2="1" gradientTransform="matrix(55.992188,0,0,56,4.003906,4)"> <stop offset="0" style="stop-color:#ff6666;stop-opacity:1;"/> <stop offset="1" style="stop-color:#d90000;stop-opacity:1;"/> </linearGradient> </defs>
<g id="surface1">
<path style=" stroke:none;fill-rule:nonzero;fill:url(#linear0);fill-opacity:1;" d="M 23.855469 34.1875 L 39.359375 34.203125 L 51.175781 34.214844 C 55.441406 34.214844 56.96875 36.195312 54.574219 38.601562 L 36.972656 56.304688 C 34.570312 58.714844 30.558594 58.765625 28.039062 56.40625 L 8.855469 38.445312 C 6.339844 36.09375 7.777344 34.167969 12.039062 34.175781 Z M 23.855469 34.1875 "/>
<path style=" stroke:none;fill-rule:nonzero;fill:url(#linear0);fill-opacity:1;" d="M 18.3125 7.769531 C 15.269531 10.128906 13.179688 13.222656 12.214844 16.921875 L 22.382812 16.933594 C 22.382812 16.933594 21.667969 18.019531 21.429688 19.363281 C 21.199219 20.714844 21.191406 23.621094 21.460938 24.878906 C 21.726562 26.128906 22.382812 26.796875 22.382812 26.796875 L 12.277344 26.796875 C 14.59375 35.164062 22.628906 41.339844 32.179688 41.339844 C 41.734375 41.339844 49.761719 35.171875 52.082031 26.8125 C 49.007812 26.828125 46.140625 26.800781 42.828125 26.800781 C 42.453125 26.734375 41.925781 26.527344 41.863281 25.800781 C 41.863281 23.34375 41.851562 20.300781 41.871094 17.847656 C 42.003906 17.164062 42.503906 16.945312 42.886719 16.890625 C 43.878906 16.898438 50.234375 16.871094 52.035156 16.863281 C 50.945312 13.226562 48.683594 10.105469 45.691406 7.78125 C 36.195312 7.78125 28.082031 7.777344 18.3125 7.769531 Z M 28.347656 15.777344 C 31.699219 15.777344 35.019531 15.804688 38.597656 15.785156 C 39.070312 15.804688 39.835938 16.167969 39.835938 16.875 L 39.8125 26.828125 C 39.8125 27.585938 39.109375 27.964844 38.597656 27.964844 C 35.265625 27.964844 31.6875 27.964844 28.347656 27.964844 C 26.285156 27.984375 24.605469 26.320312 24.597656 23.445312 L 24.597656 20.066406 C 24.695312 18.074219 26.535156 15.777344 28.347656 15.777344 Z M 28.347656 15.777344 "/>
<path style=" stroke:none;fill-rule:nonzero;fill:url(#linear0);fill-opacity:1;" d="M 51.882812 21.839844 C 51.882812 22.53125 51.257812 23.089844 50.488281 23.089844 C 49.722656 23.089844 49.105469 22.53125 49.105469 21.839844 C 49.105469 21.152344 49.722656 20.597656 50.488281 20.597656 C 51.257812 20.597656 51.882812 21.152344 51.882812 21.839844 Z M 51.882812 21.839844 "/>
<path style=" stroke:none;fill-rule:nonzero;fill:url(#linear0);fill-opacity:1;" d="M 28.75 19.90625 C 28.75 19.273438 29.308594 18.878906 29.738281 18.878906 C 31.800781 18.871094 33.957031 18.882812 36.042969 18.890625 C 36.464844 18.890625 37.03125 18.871094 37.03125 19.664062 L 37.03125 24.210938 C 37.03125 24.96875 36.242188 24.960938 36.242188 24.960938 C 35.46875 24.960938 31.679688 24.960938 29.738281 24.960938 C 29.289062 24.960938 28.75 24.5625 28.75 23.765625 C 28.757812 22.289062 28.757812 21.332031 28.75 19.90625 Z M 28.75 19.90625 "/>
</g>
</svg>
