<svg xmlns="http://www.w3.org/2000/svg" xmlns:xlink="http://www.w3.org/1999/xlink" width="64" height="64" viewBox="0 0 64 64" version="1.1">
<defs>
<linearGradient id="linear0" gradientUnits="userSpaceOnUse" x1="0" y1="0" x2="0" y2="1" gradientTransform="matrix(64,0,0,64,-0.125,-0.125)">
<stop offset="0" style="stop-color:#ff6666;stop-opacity:1;"/>
<stop offset="1" style="stop-color:#d90000;stop-opacity:1;"/>
</linearGradient>
<filter id="alpha" filterUnits="objectBoundingBox" x="0%" y="0%" width="100%" height="100%">
  <feColorMatrix type="matrix" in="SourceGraphic" values="0 0 0 0 1 0 0 0 0 1 0 0 0 0 1 0 0 0 1 0"/>
</filter>
<mask id="mask0">
  <g filter="url(#alpha)">
<rect x="0" y="0" width="64" height="64" style="fill:rgb(0%,0%,0%);fill-opacity:0.7;stroke:none;"/>
  </g>
</mask>
<linearGradient id="linear1" gradientUnits="userSpaceOnUse" x1="0" y1="0" x2="0" y2="1" gradientTransform="matrix(25,0,0,27.929688,38.6875,0)">
<stop offset="0" style="stop-color:#ff6666;stop-opacity:1;"/>
<stop offset="1" style="stop-color:#d90000;stop-opacity:1;"/>
</linearGradient>
<clipPath id="clip1">
  <rect x="0" y="0" width="64" height="64"/>
</clipPath>
<g id="surface5" clip-path="url(#clip1)">
<path style=" stroke:none;fill-rule:nonzero;fill:url(#linear1);" d="M 51.476562 0 C 49.492188 0.0390625 47.335938 0.0703125 44.851562 3.398438 C 42.800781 6.144531 40.769531 9.347656 38.757812 11.761719 L 38.6875 11.960938 C 42.839844 19.144531 54.265625 24.363281 63.6875 27.929688 C 63.441406 25.859375 63.074219 23.683594 62.507812 21.3125 C 58.605469 5.027344 55.351562 -0.0546875 51.476562 0 Z M 51.476562 0 "/>
</g>
<mask id="mask1">
  <g filter="url(#alpha)">
<rect x="0" y="0" width="64" height="64" style="fill:rgb(0%,0%,0%);fill-opacity:0.6;stroke:none;"/>
  </g>
</mask>
<linearGradient id="linear2" gradientUnits="userSpaceOnUse" x1="0" y1="0" x2="0" y2="1" gradientTransform="matrix(14,0,0,12,5.875,31.90625)">
<stop offset="0" style="stop-color:#ff6666;stop-opacity:1;"/>
<stop offset="1" style="stop-color:#d90000;stop-opacity:1;"/>
</linearGradient>
<clipPath id="clip2">
  <rect x="0" y="0" width="64" height="64"/>
</clipPath>
<g id="surface8" clip-path="url(#clip2)">
<path style=" stroke:none;fill-rule:nonzero;fill:url(#linear2);" d="M 13.246094 31.910156 C 17.433594 31.789062 19.875 34.203125 19.875 38.761719 C 19.875 43.890625 19.261719 44.488281 14.875 43.519531 C 10.738281 42.609375 8.207031 41.078125 7.035156 38.804688 C 5.167969 35.183594 5.484375 33.953125 8.511719 32.890625 C 10.269531 32.28125 11.851562 31.953125 13.246094 31.910156 Z M 13.246094 31.910156 "/>
</g>
<mask id="mask2">
  <g filter="url(#alpha)">
<rect x="0" y="0" width="64" height="64" style="fill:rgb(0%,0%,0%);fill-opacity:0.6;stroke:none;"/>
  </g>
</mask>
<linearGradient id="linear3" gradientUnits="userSpaceOnUse" x1="0" y1="0" x2="0" y2="1" gradientTransform="matrix(14,0,0,12,44,32)">
<stop offset="0" style="stop-color:#ff6666;stop-opacity:1;"/>
<stop offset="1" style="stop-color:#d90000;stop-opacity:1;"/>
</linearGradient>
<clipPath id="clip3">
  <rect x="0" y="0" width="64" height="64"/>
</clipPath>
<g id="surface11" clip-path="url(#clip3)">
<path style=" stroke:none;fill-rule:nonzero;fill:url(#linear3);" d="M 50.628906 32.003906 C 46.441406 31.878906 44 34.296875 44 38.851562 C 44 43.984375 44.617188 44.578125 49 43.617188 C 53.136719 42.703125 55.667969 41.171875 56.839844 38.894531 C 58.707031 35.28125 58.390625 34.042969 55.363281 32.988281 C 53.609375 32.371094 52.023438 32.042969 50.628906 32.003906 Z M 50.628906 32.003906 "/>
</g>
<mask id="mask3">
  <g filter="url(#alpha)">
<rect x="0" y="0" width="64" height="64" style="fill:rgb(0%,0%,0%);fill-opacity:0.6;stroke:none;"/>
  </g>
</mask>
<linearGradient id="linear4" gradientUnits="userSpaceOnUse" x1="0" y1="0" x2="0" y2="1" gradientTransform="matrix(16,0,0,12,24,48)">
<stop offset="0" style="stop-color:#ff6666;stop-opacity:1;"/>
<stop offset="1" style="stop-color:#d90000;stop-opacity:1;"/>
</linearGradient>
<clipPath id="clip4">
  <rect x="0" y="0" width="64" height="64"/>
</clipPath>
<g id="surface14" clip-path="url(#clip4)">
<path style=" stroke:none;fill-rule:nonzero;fill:url(#linear4);" d="M 32 48 C 36.410156 48.070312 40 48.265625 40 48.558594 C 40 48.886719 37.867188 52.253906 35.265625 55.238281 L 32 60 L 28.734375 55.238281 C 26.132812 52.253906 24 48.890625 24 48.558594 C 24 48.265625 27.589844 48.046875 32 48 Z M 32 48 "/>
</g>
</defs>
<g id="surface1">
<path style=" stroke:none;fill-rule:evenodd;fill:url(#linear0);" d="M 13.246094 31.878906 C 17.433594 31.757812 19.875 34.171875 19.875 38.726562 C 19.875 43.859375 19.261719 44.457031 14.875 43.492188 C 10.738281 42.574219 8.207031 41.046875 7.035156 38.773438 C 5.167969 35.15625 5.484375 33.921875 8.511719 32.859375 C 10.269531 32.246094 11.851562 31.921875 13.246094 31.878906 Z M 50.628906 32.003906 C 46.441406 31.878906 44 34.296875 44 38.851562 C 44 43.984375 44.617188 44.578125 49 43.617188 C 53.136719 42.703125 55.667969 41.171875 56.839844 38.894531 C 58.707031 35.28125 58.390625 34.042969 55.363281 32.988281 C 53.609375 32.371094 52.023438 32.042969 50.628906 32.003906 Z M 63.355469 26.292969 C 63.398438 26.359375 63.421875 26.4375 63.433594 26.515625 C 63.746094 28.65625 63.898438 30.652344 63.871094 32.53125 C 63.730469 42.332031 57.117188 50.554688 45.5 58.273438 C 39.839844 62.03125 35.835938 63.675781 31.875 63.875 C 27.910156 63.675781 23.90625 62.03125 18.253906 58.273438 C 6.636719 50.554688 0.0195312 42.332031 -0.121094 32.53125 C -0.171875 29.171875 0.351562 25.445312 1.371094 21.1875 C 5.273438 4.898438 8.523438 -0.179688 12.398438 -0.125 C 14.382812 -0.101562 16.539062 -0.0507812 19.023438 3.273438 C 21.890625 7.117188 24.722656 11.765625 27.515625 14.097656 C 31.511719 16.617188 32.898438 17.058594 36.96875 13.449219 C 37.515625 12.945312 38.0625 12.347656 38.613281 11.691406 L 38.5625 11.835938 C 42.710938 19.015625 54.140625 24.238281 63.5625 27.804688 C 63.503906 27.308594 63.4375 26.808594 63.355469 26.292969 Z M 32 48 C 36.410156 48.070312 40 48.265625 40 48.558594 C 40 48.886719 37.867188 52.253906 35.265625 55.238281 L 32 60 L 28.734375 55.238281 C 26.132812 52.253906 24 48.890625 24 48.558594 C 24 48.265625 27.589844 48.046875 32 48 Z M 32 48 "/>
<use xlink:href="#surface5" mask="url(#mask0)"/>
<use xlink:href="#surface8" mask="url(#mask1)"/>
<use xlink:href="#surface11" mask="url(#mask2)"/>
<use xlink:href="#surface14" mask="url(#mask3)"/>
</g>
</svg>
