<svg xmlns="http://www.w3.org/2000/svg" xmlns:xlink="http://www.w3.org/1999/xlink" width="64" height="64" viewBox="0 0 64 64" version="1.1">
<defs> <linearGradient id="linear0" gradientUnits="userSpaceOnUse" x1="0" y1="0" x2="0" y2="1" gradientTransform="matrix(55.992188,0,0,56,4.003906,4)"> <stop offset="0" style="stop-color:#ff6666;stop-opacity:1;"/> <stop offset="1" style="stop-color:#d90000;stop-opacity:1;"/> </linearGradient> </defs>
<g id="surface1">
<path style=" stroke:none;fill-rule:nonzero;fill:url(#linear0);fill-opacity:1;" d="M 27.558594 3.894531 L 27.558594 12.441406 L 27.800781 12.5 C 27.9375 12.53125 28.800781 12.550781 29.726562 12.527344 L 31.414062 12.5 L 31.472656 3.902344 L 36.570312 3.902344 L 36.570312 8.226562 C 36.570312 11.597656 36.597656 12.566406 36.707031 12.601562 C 36.78125 12.617188 37.441406 12.714844 38.171875 12.808594 C 41.445312 13.238281 44.34375 14.25 46.292969 15.632812 C 47.867188 16.75 49.128906 18.515625 49.546875 20.171875 C 49.804688 21.195312 49.808594 23.355469 49.558594 24.386719 C 49.058594 26.421875 47.597656 28.484375 45.769531 29.722656 C 45.488281 29.917969 45.253906 30.121094 45.253906 30.171875 C 45.253906 30.222656 45.507812 30.347656 45.820312 30.449219 C 46.71875 30.742188 48.054688 31.445312 48.886719 32.058594 C 50.496094 33.253906 51.652344 34.894531 52.152344 36.714844 C 52.398438 37.589844 52.484375 40.179688 52.320312 41.453125 C 51.859375 44.898438 50.597656 47.246094 48.257812 48.996094 C 45.945312 50.734375 43.136719 51.53125 38.847656 51.671875 L 36.621094 51.742188 L 36.566406 60.445312 L 31.464844 60.445312 L 31.410156 51.742188 L 27.609375 51.742188 L 27.582031 56.09375 L 27.550781 60.445312 L 22.453125 60.445312 L 22.453125 51.691406 L 12.140625 51.691406 L 12.140625 50.675781 C 12.140625 50.125 12.175781 48.929688 12.214844 48.03125 L 12.28125 46.390625 L 14.398438 46.390625 C 16.746094 46.390625 17.1875 46.3125 17.734375 45.796875 C 18.464844 45.113281 18.4375 45.683594 18.4375 31.800781 C 18.433594 19.652344 18.425781 19.296875 18.222656 18.84375 C 18.046875 18.460938 17.902344 18.328125 17.382812 18.089844 C 16.773438 17.808594 16.695312 17.804688 14.230469 17.757812 L 11.707031 17.710938 L 11.707031 12.554688 L 17.050781 12.527344 L 22.402344 12.5 L 22.453125 8.222656 L 22.507812 3.953125 L 25.03125 3.925781 Z M 27.558594 18.175781 L 27.558594 23.355469 C 27.558594 26.203125 27.585938 28.609375 27.625 28.707031 C 27.683594 28.859375 28.125 28.875 31.472656 28.875 C 35.164062 28.875 35.277344 28.871094 35.953125 28.628906 C 37.910156 27.914062 39.007812 26.742188 39.5 24.816406 C 40.03125 22.769531 39.53125 20.828125 38.230469 19.828125 C 36.582031 18.5625 34.738281 18.175781 30.339844 18.175781 Z M 27.613281 34.230469 L 27.585938 39.902344 C 27.570312 43.027344 27.582031 45.648438 27.613281 45.730469 C 27.695312 45.945312 35.542969 45.835938 36.621094 45.605469 C 38.859375 45.125 40.476562 44.175781 41.328125 42.851562 C 41.839844 42.054688 42.226562 40.765625 42.289062 39.636719 C 42.449219 36.957031 41 35.367188 37.597656 34.480469 C 36.648438 34.238281 36.496094 34.230469 32.117188 34.230469 Z M 27.613281 34.230469 "/>
</g>
</svg>
