<svg xmlns="http://www.w3.org/2000/svg" xmlns:xlink="http://www.w3.org/1999/xlink" width="64" height="64" viewBox="0 0 64 64" version="1.1">
<defs> <linearGradient id="linear0" gradientUnits="userSpaceOnUse" x1="0" y1="0" x2="0" y2="1" gradientTransform="matrix(55.992188,0,0,56,4.003906,4)"> <stop offset="0" style="stop-color:#ff6666;stop-opacity:1;"/> <stop offset="1" style="stop-color:#d90000;stop-opacity:1;"/> </linearGradient> </defs>
<g id="surface1">
<path style=" stroke:none;fill-rule:nonzero;fill:url(#linear0);fill-opacity:1;" d="M 32.074219 5.851562 L 20.523438 34.40625 L 57.605469 39.039062 C 57.628906 38.953125 57.632812 38.859375 57.664062 38.773438 L 29.199219 25.679688 L 32.175781 5.851562 C 32.140625 5.851562 32.105469 5.851562 32.066406 5.851562 Z M 40.851562 7.792969 C 40.664062 7.828125 40.484375 8.03125 40.421875 8.007812 L 32.503906 23.417969 L 55.941406 35.898438 C 56.554688 35.878906 56.53125 35.511719 56.304688 35.160156 L 40.3125 20.671875 L 41.289062 8.546875 C 41.246094 7.910156 41.039062 7.757812 40.851562 7.792969 Z M 22.09375 8.117188 C 12.996094 12.140625 6.648438 21.171875 6.648438 31.714844 C 6.648438 45.996094 18.296875 57.570312 32.667969 57.570312 C 43.339844 57.570312 52.507812 51.191406 56.519531 42.054688 L 15.859375 42.054688 Z M 45.679688 10.757812 L 42.804688 19.539062 L 55.730469 31.996094 C 56.101562 32.535156 58.152344 32.859375 58.582031 31.28125 C 58.582031 22.835938 54.628906 15.789062 48.332031 11.078125 C 46.867188 10.320312 45.917969 10.144531 45.679688 10.757812 Z M 45.679688 10.757812 "/>
</g>
</svg>
