<svg xmlns="http://www.w3.org/2000/svg" xmlns:xlink="http://www.w3.org/1999/xlink" width="64" height="64" viewBox="0 0 64 64" version="1.1">
<defs>
<linearGradient id="linear0" gradientUnits="userSpaceOnUse" x1="0" y1="0" x2="0" y2="1" gradientTransform="matrix(64,0,0,30.609375,0,16.695312)">
<stop offset="0" style="stop-color:#ff6666;stop-opacity:1;"/>
<stop offset="1" style="stop-color:#d90000;stop-opacity:1;"/>
</linearGradient>
</defs>
<g id="surface1">
<path style=" stroke:none;fill-rule:nonzero;fill:url(#linear0);" d="M 15.304688 16.695312 C 14.195312 16.695312 13.136719 17.136719 12.351562 17.921875 C 11.570312 18.699219 11.132812 19.765625 11.132812 20.871094 C 11.132812 23.175781 13 25.039062 15.304688 25.039062 C 17.609375 25.039062 19.476562 23.175781 19.480469 20.871094 C 19.480469 19.765625 19.039062 18.699219 18.257812 17.921875 C 17.472656 17.136719 16.410156 16.695312 15.304688 16.695312 Z M 26.4375 16.695312 C 25.328125 16.695312 24.269531 17.136719 23.484375 17.921875 C 22.699219 18.699219 22.261719 19.765625 22.261719 20.871094 C 22.265625 23.175781 24.132812 25.039062 26.4375 25.039062 C 28.738281 25.039062 30.609375 23.175781 30.609375 20.871094 C 30.613281 19.765625 30.171875 18.699219 29.386719 17.921875 C 28.605469 17.136719 27.542969 16.695312 26.4375 16.695312 Z M 37.566406 16.695312 C 36.460938 16.695312 35.398438 17.136719 34.617188 17.921875 C 33.832031 18.699219 33.390625 19.765625 33.390625 20.871094 C 33.394531 23.175781 35.265625 25.039062 37.566406 25.039062 C 39.871094 25.039062 41.738281 23.175781 41.738281 20.871094 C 41.738281 19.765625 41.300781 18.699219 40.519531 17.921875 C 39.734375 17.136719 38.671875 16.695312 37.566406 16.695312 Z M 48.695312 16.695312 C 47.589844 16.695312 46.527344 17.136719 45.742188 17.921875 C 44.960938 18.699219 44.519531 19.765625 44.519531 20.871094 C 44.523438 23.175781 46.390625 25.039062 48.695312 25.039062 C 51 25.039062 52.867188 23.175781 52.867188 20.871094 C 52.867188 19.765625 52.429688 18.699219 51.648438 17.921875 C 50.863281 17.136719 49.804688 16.695312 48.695312 16.695312 Z M 4.175781 27.824219 C 3.066406 27.824219 2.003906 28.265625 1.222656 29.046875 C 0.441406 29.828125 0 30.890625 0 32 C 0 33.105469 0.441406 34.167969 1.222656 34.953125 C 2.003906 35.730469 3.066406 36.171875 4.175781 36.171875 C 5.28125 36.171875 6.34375 35.730469 7.125 34.953125 C 7.90625 34.167969 8.347656 33.105469 8.347656 32 C 8.347656 30.890625 7.90625 29.828125 7.125 29.046875 C 6.34375 28.265625 5.28125 27.824219 4.175781 27.824219 Z M 15.304688 27.824219 C 14.195312 27.824219 13.136719 28.265625 12.351562 29.046875 C 11.570312 29.828125 11.132812 30.890625 11.132812 32 C 11.132812 33.105469 11.570312 34.167969 12.351562 34.953125 C 13.136719 35.730469 14.195312 36.171875 15.304688 36.171875 C 16.410156 36.171875 17.472656 35.730469 18.257812 34.953125 C 19.039062 34.167969 19.480469 33.105469 19.480469 32 C 19.480469 30.890625 19.039062 29.828125 18.257812 29.046875 C 17.472656 28.265625 16.410156 27.824219 15.304688 27.824219 Z M 26.4375 27.824219 C 25.328125 27.824219 24.269531 28.265625 23.484375 29.046875 C 22.699219 29.828125 22.261719 30.890625 22.261719 32 C 22.261719 33.105469 22.699219 34.167969 23.484375 34.953125 C 24.269531 35.730469 25.328125 36.171875 26.4375 36.171875 C 27.542969 36.171875 28.605469 35.730469 29.386719 34.953125 C 30.171875 34.167969 30.613281 33.105469 30.609375 32 C 30.613281 30.890625 30.171875 29.828125 29.386719 29.046875 C 28.605469 28.265625 27.542969 27.824219 26.4375 27.824219 Z M 37.566406 27.824219 C 36.460938 27.824219 35.398438 28.265625 34.617188 29.046875 C 33.832031 29.828125 33.390625 30.890625 33.390625 32 C 33.390625 33.105469 33.832031 34.167969 34.617188 34.953125 C 35.398438 35.730469 36.460938 36.171875 37.566406 36.171875 C 38.671875 36.171875 39.734375 35.730469 40.519531 34.953125 C 41.300781 34.167969 41.738281 33.105469 41.738281 32 C 41.738281 30.890625 41.300781 29.828125 40.519531 29.046875 C 39.734375 28.265625 38.671875 27.824219 37.566406 27.824219 Z M 48.695312 27.824219 C 47.589844 27.824219 46.527344 28.265625 45.742188 29.046875 C 44.960938 29.828125 44.519531 30.890625 44.519531 32 C 44.519531 33.105469 44.960938 34.167969 45.742188 34.953125 C 46.527344 35.730469 47.589844 36.171875 48.695312 36.171875 C 49.804688 36.171875 50.863281 35.730469 51.648438 34.953125 C 52.429688 34.167969 52.867188 33.105469 52.867188 32 C 52.867188 30.890625 52.429688 29.828125 51.648438 29.046875 C 50.863281 28.265625 49.804688 27.824219 48.695312 27.824219 Z M 59.824219 27.824219 C 58.71875 27.824219 57.65625 28.265625 56.875 29.046875 C 56.09375 29.828125 55.652344 30.890625 55.652344 32 C 55.652344 33.105469 56.09375 34.167969 56.875 34.953125 C 57.65625 35.730469 58.71875 36.171875 59.824219 36.171875 C 60.933594 36.171875 61.996094 35.730469 62.777344 34.953125 C 63.558594 34.167969 64 33.105469 64 32 C 64 30.890625 63.558594 29.828125 62.777344 29.046875 C 61.996094 28.265625 60.933594 27.824219 59.824219 27.824219 Z M 4.175781 38.957031 C 3.066406 38.957031 2.003906 39.394531 1.222656 40.175781 C 0.441406 40.960938 0 42.023438 0 43.128906 C 0 44.234375 0.441406 45.300781 1.222656 46.078125 C 2.003906 46.863281 3.066406 47.304688 4.175781 47.304688 C 5.28125 47.304688 6.34375 46.863281 7.125 46.078125 C 7.90625 45.300781 8.347656 44.234375 8.347656 43.128906 C 8.347656 42.023438 7.90625 40.960938 7.125 40.175781 C 6.34375 39.394531 5.28125 38.957031 4.175781 38.957031 Z M 15.304688 38.957031 C 14.195312 38.957031 13.136719 39.394531 12.351562 40.175781 C 11.570312 40.960938 11.132812 42.023438 11.132812 43.128906 C 11.132812 44.234375 11.570312 45.300781 12.351562 46.078125 C 13.136719 46.863281 14.195312 47.304688 15.304688 47.304688 C 16.410156 47.304688 17.472656 46.863281 18.257812 46.078125 C 19.039062 45.300781 19.480469 44.234375 19.480469 43.128906 C 19.480469 42.023438 19.039062 40.960938 18.257812 40.175781 C 17.472656 39.394531 16.410156 38.957031 15.304688 38.957031 Z M 48.695312 38.957031 C 47.589844 38.957031 46.527344 39.394531 45.742188 40.175781 C 44.960938 40.960938 44.519531 42.023438 44.519531 43.128906 C 44.519531 44.234375 44.960938 45.300781 45.742188 46.078125 C 46.527344 46.863281 47.589844 47.304688 48.695312 47.304688 C 49.804688 47.304688 50.863281 46.863281 51.648438 46.078125 C 52.429688 45.300781 52.867188 44.234375 52.867188 43.128906 C 52.867188 42.023438 52.429688 40.960938 51.648438 40.175781 C 50.863281 39.394531 49.804688 38.957031 48.695312 38.957031 Z M 59.824219 38.957031 C 58.71875 38.957031 57.65625 39.394531 56.875 40.175781 C 56.09375 40.960938 55.652344 42.023438 55.652344 43.128906 C 55.652344 44.234375 56.09375 45.300781 56.875 46.078125 C 57.65625 46.863281 58.71875 47.304688 59.824219 47.304688 C 60.933594 47.304688 61.996094 46.863281 62.777344 46.078125 C 63.558594 45.300781 64 44.234375 64 43.128906 C 64 42.023438 63.558594 40.960938 62.777344 40.175781 C 61.996094 39.394531 60.933594 38.957031 59.824219 38.957031 Z M 59.824219 38.957031 "/>
</g>
</svg>
