<svg xmlns="http://www.w3.org/2000/svg" xmlns:xlink="http://www.w3.org/1999/xlink" width="64" height="64" viewBox="0 0 64 64" version="1.1">
<defs>
<linearGradient id="linear0" gradientUnits="userSpaceOnUse" x1="0" y1="0" x2="0" y2="1" gradientTransform="matrix(56,0,0,51.695312,4,6.152344)">
<stop offset="0" style="stop-color:#ff6666;stop-opacity:1;"/>
<stop offset="1" style="stop-color:#d90000;stop-opacity:1;"/>
</linearGradient>
<linearGradient id="linear1" gradientUnits="userSpaceOnUse" x1="0" y1="0" x2="0" y2="1" gradientTransform="matrix(56,0,0,51.695312,4,6.152344)">
<stop offset="0" style="stop-color:#ff6666;stop-opacity:1;"/>
<stop offset="1" style="stop-color:#d90000;stop-opacity:1;"/>
</linearGradient>
<linearGradient id="linear2" gradientUnits="userSpaceOnUse" x1="0" y1="0" x2="0" y2="1" gradientTransform="matrix(56,0,0,51.695312,4,6.152344)">
<stop offset="0" style="stop-color:#ff6666;stop-opacity:1;"/>
<stop offset="1" style="stop-color:#d90000;stop-opacity:1;"/>
</linearGradient>
</defs>
<g id="surface1">
<path style=" stroke:none;fill-rule:nonzero;fill:url(#linear0);" d="M 26.769531 12 L 18.566406 19.628906 L 21.847656 47.089844 L 21.847656 48.613281 L 25.128906 48.613281 L 25.128906 44.039062 L 28.410156 44.039062 L 28.410156 48.613281 L 31.695312 48.613281 L 31.695312 44.039062 L 36.617188 42.511719 L 41.539062 44.039062 L 41.539062 48.613281 L 44.824219 48.613281 L 44.824219 44.039062 L 48.105469 44.039062 L 48.105469 48.613281 L 51.386719 48.613281 L 51.386719 39.460938 L 48.105469 34.882812 L 51.386719 30.308594 L 51.386719 21.152344 L 44.824219 16.578125 C 44.824219 14.042969 39.34375 12 36.617188 12 Z M 26.769531 12 "/>
<path style=" stroke:none;fill-rule:nonzero;fill:url(#linear1);" d="M 16.921875 12 L 16.921875 21.152344 L 31.695312 21.152344 L 31.695312 16.578125 C 31.695312 14.042969 29.496094 12 26.769531 12 Z M 31.695312 21.152344 L 31.695312 30.308594 L 41.539062 30.308594 L 41.539062 21.152344 Z M 41.539062 21.152344 L 51.386719 21.152344 L 51.386719 16.578125 C 51.386719 14.042969 49.1875 12 46.464844 12 L 36.617188 12 C 39.34375 12 41.539062 14.042969 41.539062 16.578125 Z M 41.539062 30.308594 L 41.539062 39.460938 L 51.386719 39.460938 L 51.386719 30.308594 Z M 41.539062 39.460938 L 31.695312 39.460938 L 31.695312 44.039062 L 34.976562 44.039062 L 34.976562 48.613281 L 38.257812 48.613281 L 38.257812 44.039062 L 41.539062 44.039062 Z M 31.695312 39.460938 L 31.695312 30.308594 L 16.921875 30.308594 L 16.921875 39.460938 Z M 31.695312 39.460938 "/>
<path style=" stroke:none;fill-rule:nonzero;fill:url(#linear2);" d="M 16.921875 12 C 14.199219 12 12 14.042969 12 16.578125 L 12 45.5625 L 15.28125 45.5625 L 15.28125 40.984375 L 18.566406 40.984375 L 18.566406 45.5625 L 21.847656 45.5625 L 21.847656 16.578125 C 21.847656 14.042969 19.648438 12 16.921875 12 Z M 16.921875 12 "/>
</g>
</svg>
