<svg xmlns="http://www.w3.org/2000/svg" xmlns:xlink="http://www.w3.org/1999/xlink" width="64" height="64" viewBox="0 0 64 64" version="1.1">
<defs>
<linearGradient id="linear0" gradientUnits="userSpaceOnUse" x1="0" y1="0" x2="0" y2="1" gradientTransform="matrix(52,0,0,64,6,0)">
<stop offset="0" style="stop-color:#ff6666;stop-opacity:1;"/>
<stop offset="1" style="stop-color:#d90000;stop-opacity:1;"/>
</linearGradient>
</defs>
<g id="surface1">
<path style=" stroke:none;fill-rule:nonzero;fill:url(#linear0);" d="M 32 0 C 27.601562 0 23.421875 1.28125 23.421875 1.28125 L 22 1.710938 L 22 8.445312 C 17.882812 9.171875 13.859375 10.367188 10.007812 12 L 10 16 L 6 16 L 6 20 L 10 20 L 10.015625 55.996094 C 10.015625 57.753906 10.175781 59.148438 10.617188 60.324219 C 11.058594 61.5 11.859375 62.4375 12.867188 62.996094 C 14.878906 64.117188 17.347656 63.996094 20.679688 63.996094 L 43.335938 63.996094 C 46.667969 63.996094 49.136719 64.117188 51.148438 62.996094 C 52.15625 62.4375 52.949219 61.5 53.386719 60.324219 C 53.828125 59.148438 54 57.753906 54 55.996094 L 53.992188 24 L 49.992188 24 L 50 55.996094 C 50 57.5 49.839844 58.410156 49.648438 58.914062 C 49.511719 59.273438 49.335938 59.429688 49.207031 59.496094 C 48.515625 59.882812 46.765625 59.996094 43.335938 59.996094 L 20.679688 59.996094 C 17.253906 59.996094 15.5 59.882812 14.804688 59.496094 C 14.589844 59.363281 14.429688 59.15625 14.351562 58.914062 L 14.351562 58.90625 C 14.167969 58.417969 14.015625 57.511719 14.015625 55.996094 L 14.015625 55.988281 L 14 20 L 58 20 L 58 16 L 53.992188 16 L 54 12 C 50.148438 10.363281 46.121094 9.171875 42 8.445312 L 42 1.800781 L 40.679688 1.324219 C 40.679688 1.324219 37.027344 0.00390625 32 0.00390625 Z M 32 4 C 35.558594 4 37.160156 4.621094 38 4.878906 L 38 7.835938 C 36.011719 7.617188 34.011719 7.503906 32.007812 7.5 C 30 7.5 27.996094 7.628906 26 7.84375 L 26 4.90625 C 27.0625 4.628906 29.089844 4 32 4 Z M 22 24 L 22 47.996094 L 26 47.996094 L 26 24 Z M 30 24 L 30 47.996094 L 34 47.996094 L 34 24 Z M 38 24 L 38 47.996094 L 42 47.996094 L 42 24 Z M 38 24 "/>
</g>
</svg>
