<svg xmlns="http://www.w3.org/2000/svg" xmlns:xlink="http://www.w3.org/1999/xlink" width="64" height="64" viewBox="0 0 64 64" version="1.1">
<defs>
<linearGradient id="linear0" gradientUnits="userSpaceOnUse" x1="0" y1="0" x2="0" y2="1" gradientTransform="matrix(57.949219,0,0,57.945312,2.050781,2.054688)">
<stop offset="0" style="stop-color:#ff6666;stop-opacity:1;"/>
<stop offset="1" style="stop-color:#d90000;stop-opacity:1;"/>
</linearGradient>
<filter id="alpha" filterUnits="objectBoundingBox" x="0%" y="0%" width="100%" height="100%">
  <feColorMatrix type="matrix" in="SourceGraphic" values="0 0 0 0 1 0 0 0 0 1 0 0 0 0 1 0 0 0 1 0"/>
</filter>
<mask id="mask0">
  <g filter="url(#alpha)">
<rect x="0" y="0" width="64" height="64" style="fill:rgb(0%,0%,0%);fill-opacity:0.6;stroke:none;"/>
  </g>
</mask>
<linearGradient id="linear1" gradientUnits="userSpaceOnUse" x1="0" y1="0" x2="0" y2="1" gradientTransform="matrix(16,0,0,16,32,32)">
<stop offset="0" style="stop-color:#ff6666;stop-opacity:1;"/>
<stop offset="1" style="stop-color:#d90000;stop-opacity:1;"/>
</linearGradient>
<clipPath id="clip1">
  <rect x="0" y="0" width="64" height="64"/>
</clipPath>
<g id="surface5" clip-path="url(#clip1)">
<path style=" stroke:none;fill-rule:nonzero;fill:url(#linear1);" d="M 48 40 C 48 44.417969 44.417969 48 40 48 C 35.582031 48 32 44.417969 32 40 C 32 35.582031 35.582031 32 40 32 C 44.417969 32 48 35.582031 48 40 Z M 48 40 "/>
</g>
</defs>
<g id="surface1">
<path style=" stroke:none;fill-rule:nonzero;fill:url(#linear0);" d="M 28.6875 2.054688 C 27.664062 2.054688 26.644531 2.449219 25.859375 3.234375 C 24.292969 4.800781 24.292969 7.324219 25.859375 8.890625 L 36.96875 20 L 8 20 C 5.785156 20 4 21.785156 4 24 C 4 26.214844 5.785156 28 8 28 C 13.101562 27.988281 17.089844 27.996094 23.71875 28 L 3.226562 48.484375 C 1.660156 50.050781 1.660156 52.574219 3.226562 54.140625 C 4.792969 55.707031 7.324219 55.707031 8.890625 54.140625 C 12.558594 50.453125 15.472656 47.550781 20.21875 42.8125 C 21.617188 52.664062 30.046875 59.988281 40 60 C 51.046875 60 60 51.046875 60 40 C 59.996094 34.699219 57.882812 29.613281 54.132812 25.867188 L 54.140625 25.859375 C 54.140625 25.859375 38.84375 10.601562 31.515625 3.234375 C 30.734375 2.449219 29.710938 2.054688 28.6875 2.054688 Z M 40 28 C 46.628906 28 52 33.371094 52 40 C 52 46.628906 46.628906 52 40 52 C 33.371094 52 28 46.628906 28 40 C 28 33.371094 33.371094 28 40 28 Z M 40 28 "/>
<use xlink:href="#surface5" mask="url(#mask0)"/>
</g>
</svg>
