<svg xmlns="http://www.w3.org/2000/svg" xmlns:xlink="http://www.w3.org/1999/xlink" width="64" height="64" viewBox="0 0 64 64" version="1.1">
<defs>
<linearGradient id="linear0" gradientUnits="userSpaceOnUse" x1="0" y1="0" x2="0" y2="1" gradientTransform="matrix(56,0,0,64,4,0)">
<stop offset="0" style="stop-color:#ff6666;stop-opacity:1;"/>
<stop offset="1" style="stop-color:#d90000;stop-opacity:1;"/>
</linearGradient>
</defs>
<g id="surface1">
<path style=" stroke:none;fill-rule:nonzero;fill:url(#linear0);" d="M 34.699219 50.929688 C 34.433594 50.695312 34.425781 50.632812 34.566406 50.046875 C 34.730469 49.382812 36.363281 44.257812 36.449219 44.148438 C 36.476562 44.113281 36.886719 44.191406 37.359375 44.324219 C 37.828125 44.457031 38.355469 44.566406 38.523438 44.566406 C 38.851562 44.566406 39.933594 43.945312 42.285156 42.410156 C 43.113281 41.871094 43.832031 41.46875 43.878906 41.519531 C 43.921875 41.574219 43.738281 42.722656 43.46875 44.082031 C 43.09375 45.964844 42.914062 46.617188 42.699219 46.839844 C 42.039062 47.542969 35.753906 51.171875 35.191406 51.175781 C 35.074219 51.179688 34.851562 51.066406 34.699219 50.929688 Z M 14.296875 43.320312 C 14.175781 43.179688 14.082031 42.976562 14.082031 42.863281 C 14.085938 42.679688 15.898438 38.320312 16.207031 37.753906 C 16.339844 37.515625 16.496094 37.542969 18.894531 38.238281 C 20.296875 38.644531 21.492188 39.019531 21.546875 39.074219 C 21.699219 39.222656 21.140625 40.742188 20.757812 41.210938 C 20.476562 41.558594 19.96875 41.78125 17.605469 42.597656 C 16.054688 43.132812 14.722656 43.574219 14.648438 43.578125 C 14.570312 43.578125 14.410156 43.464844 14.292969 43.320312 Z M 37.382812 42.796875 C 36.652344 42.539062 27.589844 39.671875 16.734375 36.257812 C 12.101562 34.804688 8.171875 33.511719 7.996094 33.382812 C 7.59375 33.09375 7.582031 32.539062 7.96875 32.265625 C 8.386719 31.972656 19.027344 30.3125 20.027344 30.382812 C 20.921875 30.449219 50.703125 35.261719 50.855469 35.363281 C 51.015625 35.472656 50.972656 36.070312 50.796875 36.230469 C 50.359375 36.625 38.566406 43.015625 38.285156 43.007812 C 38.105469 43.003906 37.703125 42.90625 37.382812 42.796875 Z M 42.890625 32.246094 C 38.066406 31.542969 33.246094 30.84375 28.421875 30.148438 C 21.042969 29.089844 21.125 29.109375 21.125 28.460938 C 21.125 28.292969 21.40625 26.796875 21.753906 25.136719 C 22.097656 23.476562 22.652344 20.722656 22.984375 19.019531 C 23.605469 15.847656 23.777344 15.253906 24.167969 15.03125 C 24.535156 14.816406 55.289062 12.535156 55.53125 12.703125 C 55.664062 12.800781 55.777344 12.925781 55.863281 13.066406 C 55.992188 13.285156 55.953125 13.519531 53.433594 27.808594 C 52.910156 30.789062 52.417969 33.304688 52.34375 33.40625 C 52.265625 33.503906 52.140625 33.582031 52.058594 33.574219 C 51.980469 33.566406 47.855469 32.96875 42.890625 32.246094 Z M 42.890625 32.246094 "/>
</g>
</svg>
