<svg xmlns="http://www.w3.org/2000/svg" xmlns:xlink="http://www.w3.org/1999/xlink" width="64" height="64" viewBox="0 0 64 64" version="1.1">
<defs> <linearGradient id="linear0" gradientUnits="userSpaceOnUse" x1="0" y1="0" x2="0" y2="1" gradientTransform="matrix(55.992188,0,0,56,4.003906,4)"> <stop offset="0" style="stop-color:#ff6666;stop-opacity:1;"/> <stop offset="1" style="stop-color:#d90000;stop-opacity:1;"/> </linearGradient> </defs>
<g id="surface1">
<path style=" stroke:none;fill-rule:nonzero;fill:url(#linear0);fill-opacity:1;" d="M 31.015625 7.527344 C 29.9375 7.515625 28.601562 7.527344 26.90625 7.539062 C 20.585938 7.59375 20.585938 7.59375 19.113281 7.992188 C 16.121094 8.792969 12.964844 10.871094 11.019531 13.136719 C 8.875 15.636719 7.300781 18.488281 7.300781 21.902344 L 7.300781 39.453125 C 7.640625 52.71875 15.386719 56.503906 21.738281 56.824219 L 42.367188 56.824219 C 50.257812 56.191406 56.605469 48.867188 56.804688 43.601562 L 56.804688 36.277344 C 56.828125 30.195312 56.820312 28.089844 56.136719 27.269531 C 55.40625 26.410156 54.855469 26.007812 52.675781 26.007812 C 50.542969 26.007812 49.78125 26.105469 49.074219 25.578125 C 48.191406 24.910156 47.957031 24.328125 47.820312 22.417969 C 47.332031 15.625 43.085938 10.167969 36.746094 8.1875 C 35.191406 7.707031 34.253906 7.550781 31.015625 7.523438 Z M 22.976562 19.84375 L 32.050781 19.84375 C 33.878906 19.84375 35.355469 21.308594 35.355469 23.136719 C 35.355469 24.957031 33.878906 26.007812 32.050781 26.007812 L 22.976562 26.007812 C 21.148438 26.007812 19.675781 24.957031 19.675781 23.136719 C 19.675781 21.316406 21.148438 19.84375 22.976562 19.84375 M 22.976562 38.335938 L 41.132812 38.335938 C 42.960938 38.335938 44.429688 39.394531 44.429688 41.214844 C 44.429688 43.039062 42.960938 44.503906 41.132812 44.503906 L 22.976562 44.503906 C 21.148438 44.503906 19.675781 43.039062 19.675781 41.214844 C 19.675781 39.394531 21.148438 38.335938 22.976562 38.335938 "/>
</g>
</svg>
