<svg xmlns="http://www.w3.org/2000/svg" xmlns:xlink="http://www.w3.org/1999/xlink" width="64" height="64" viewBox="0 0 64 64" version="1.1">
<defs> <linearGradient id="linear0" gradientUnits="userSpaceOnUse" x1="0" y1="0" x2="0" y2="1" gradientTransform="matrix(55.992188,0,0,56,4.003906,4)"> <stop offset="0" style="stop-color:#ff6666;stop-opacity:1;"/> <stop offset="1" style="stop-color:#d90000;stop-opacity:1;"/> </linearGradient> </defs>
<g id="surface1">
<path style=" stroke:none;fill-rule:nonzero;fill:url(#linear0);fill-opacity:1;" d="M 31.175781 3.824219 C 29.085938 3.914062 24.378906 21.574219 22.742188 22.871094 C 21.105469 24.164062 2.769531 24.746094 2.207031 26.753906 C 1.652344 28.757812 17.0625 38.675781 17.796875 40.628906 C 18.527344 42.578125 13.410156 60.128906 15.15625 61.277344 C 16.898438 62.425781 31.128906 50.894531 33.21875 50.800781 C 35.308594 50.710938 50.488281 60.976562 52.125 59.679688 C 53.761719 58.386719 47.152344 41.339844 47.707031 39.332031 C 48.265625 37.324219 62.761719 26.117188 62.03125 24.171875 C 61.296875 22.21875 42.972656 23.222656 41.226562 22.074219 C 39.484375 20.925781 33.265625 3.730469 31.175781 3.824219 M 31.441406 9.980469 C 33.117188 9.90625 38.117188 23.722656 39.519531 24.644531 C 40.921875 25.566406 55.636719 24.765625 56.226562 26.332031 C 56.816406 27.898438 45.167969 36.894531 44.71875 38.507812 C 44.273438 40.117188 49.59375 53.8125 48.273438 54.851562 C 46.964844 55.890625 34.769531 47.644531 33.089844 47.71875 C 31.414062 47.789062 19.984375 57.058594 18.578125 56.136719 C 17.183594 55.207031 21.289062 41.113281 20.699219 39.542969 C 20.113281 37.976562 7.726562 30.011719 8.175781 28.40625 C 8.628906 26.796875 23.363281 26.324219 24.671875 25.285156 C 25.992188 24.246094 29.765625 10.050781 31.441406 9.980469 "/>
</g>
</svg>
