<svg xmlns="http://www.w3.org/2000/svg" xmlns:xlink="http://www.w3.org/1999/xlink" width="64" height="64" viewBox="0 0 64 64" version="1.1">
<defs>
<linearGradient id="linear0" gradientUnits="userSpaceOnUse" x1="0" y1="0" x2="0" y2="1" gradientTransform="matrix(64,0,0,54.101562,0,5.160156)">
<stop offset="0" style="stop-color:#ff6666;stop-opacity:1;"/>
<stop offset="1" style="stop-color:#d90000;stop-opacity:1;"/>
</linearGradient>
</defs>
<g id="surface1">
<path style=" stroke:none;fill-rule:evenodd;fill:url(#linear0);" d="M 54.101562 17.101562 L 54.101562 11.527344 C 54.101562 8.011719 51.246094 5.160156 47.734375 5.160156 L 6.363281 5.160156 C 2.851562 5.160156 0 8.011719 0 11.527344 L 0 52.894531 C 0 56.40625 2.851562 59.261719 6.363281 59.261719 L 47.734375 59.261719 C 51.246094 59.261719 54.101562 56.40625 54.101562 52.894531 L 54.101562 47.320312 L 64 55.101562 L 64 9.324219 Z M 31.65625 28.902344 L 18.578125 28.902344 L 18.578125 20.644531 L 31.65625 20.644531 C 33.503906 20.644531 35.097656 22.945312 35.097656 24.777344 C 35.097656 26.605469 33.503906 28.925781 31.65625 28.902344 Z M 18.578125 35.097656 L 18.578125 43.355469 L 31.65625 43.355469 C 33.503906 43.375 35.097656 41.054688 35.097656 39.222656 C 35.097656 37.394531 33.503906 35.097656 31.65625 35.097656 Z M 38.226562 32 C 40.148438 33.859375 41.292969 36.515625 41.292969 39.222656 C 41.292969 44.488281 36.976562 49.546875 31.65625 49.546875 L 12.386719 49.546875 L 12.386719 14.453125 L 31.65625 14.453125 C 36.976562 14.453125 41.292969 19.511719 41.292969 24.777344 C 41.292969 27.484375 40.148438 30.140625 38.226562 32 Z M 38.226562 32 "/>
</g>
</svg>
