<svg xmlns="http://www.w3.org/2000/svg" xmlns:xlink="http://www.w3.org/1999/xlink" width="64" height="64" viewBox="0 0 64 64" version="1.1">
<defs>
<filter id="alpha" filterUnits="objectBoundingBox" x="0%" y="0%" width="100%" height="100%">
  <feColorMatrix type="matrix" in="SourceGraphic" values="0 0 0 0 1 0 0 0 0 1 0 0 0 0 1 0 0 0 1 0"/>
</filter>
<mask id="mask0">
  <g filter="url(#alpha)">
<rect x="0" y="0" width="64" height="64" style="fill:rgb(0%,0%,0%);fill-opacity:0.8;stroke:none;"/>
  </g>
</mask>
<linearGradient id="linear0" gradientUnits="userSpaceOnUse" x1="0" y1="0" x2="0" y2="1" gradientTransform="matrix(15.691406,0,0,11.78125,0,26.15625)">
<stop offset="0" style="stop-color:#ff6666;stop-opacity:1;"/>
<stop offset="1" style="stop-color:#d90000;stop-opacity:1;"/>
</linearGradient>
<clipPath id="clip1">
  <rect x="0" y="0" width="64" height="64"/>
</clipPath>
<g id="surface5" clip-path="url(#clip1)">
<path style=" stroke:none;fill-rule:nonzero;fill:url(#linear0);" d="M 14.375 26.15625 C 12.65625 27.875 11.085938 29.59375 7.777344 31.101562 C 5.566406 32.109375 3.152344 33.214844 1.160156 34.859375 C -0.765625 35.984375 -0.0585938 37.808594 1.578125 37.867188 L 15.691406 37.867188 C 14.558594 38.921875 13.9375 27.71875 14.375 26.15625 Z M 14.375 26.15625 "/>
</g>
<linearGradient id="linear1" gradientUnits="userSpaceOnUse" x1="0" y1="0" x2="0" y2="1" gradientTransform="matrix(46.203125,0,0,50.039062,17.800781,5.867187)">
<stop offset="0" style="stop-color:#ff6666;stop-opacity:1;"/>
<stop offset="1" style="stop-color:#d90000;stop-opacity:1;"/>
</linearGradient>
<mask id="mask1">
  <g filter="url(#alpha)">
<rect x="0" y="0" width="64" height="64" style="fill:rgb(0%,0%,0%);fill-opacity:0.6;stroke:none;"/>
  </g>
</mask>
<linearGradient id="linear2" gradientUnits="userSpaceOnUse" x1="0" y1="0" x2="0" y2="1" gradientTransform="matrix(24.0625,0,0,40.410156,13.859375,16.65625)">
<stop offset="0" style="stop-color:#ff6666;stop-opacity:1;"/>
<stop offset="1" style="stop-color:#d90000;stop-opacity:1;"/>
</linearGradient>
<clipPath id="clip2">
  <rect x="0" y="0" width="64" height="64"/>
</clipPath>
<g id="surface8" clip-path="url(#clip2)">
<path style=" stroke:none;fill-rule:nonzero;fill:url(#linear2);" d="M 18.09375 16.65625 C 16.894531 18.746094 15.1875 22.0625 14.808594 25.011719 C 14.609375 25.507812 14.394531 25.953125 14.171875 26.375 C 13.90625 29.542969 14.089844 34.214844 15.191406 37.867188 L 15.691406 37.867188 C 15.898438 38.738281 16.113281 39.921875 16.34375 40.859375 C 16.925781 43.273438 17.109375 45.273438 16.765625 47.132812 C 16.753906 47.28125 16.757812 47.4375 16.738281 47.585938 C 16.644531 48.511719 16.429688 49.402344 16.074219 50.277344 C 15.71875 51.148438 15.222656 51.996094 14.5625 52.839844 C 14.390625 53.054688 14.261719 53.316406 14.148438 53.59375 C 14.117188 53.671875 14.097656 53.757812 14.066406 53.839844 C 14.003906 54.042969 13.949219 54.253906 13.910156 54.46875 C 13.890625 54.578125 13.875 54.691406 13.863281 54.808594 C 13.859375 54.820312 13.859375 54.832031 13.859375 54.839844 C 13.992188 55.894531 14.484375 56.808594 15.382812 56.996094 C 15.382812 56.996094 22.523438 57.242188 25.976562 56.808594 C 27.675781 56.570312 29.296875 56.261719 31.265625 55.8125 C 32.609375 53.34375 36.085938 47.164062 37.015625 43.335938 C 37.449219 41.554688 37.710938 39.734375 37.921875 37.375 C 35.28125 40.203125 28.96875 44.59375 28.578125 44.8125 C 28.1875 45.03125 27.421875 45.171875 27.265625 45.171875 C 26.425781 45.171875 25.90625 44.722656 25.90625 43.890625 C 25.820312 43.195312 26.859375 42.171875 27.875 41.515625 C 35.234375 34.644531 33.851562 23.820312 37.6875 17.9375 C 36.246094 18.277344 31.265625 19.730469 27 19.730469 C 24.488281 19.730469 20.148438 17.363281 18.09375 16.65625 Z M 18.09375 16.65625 "/>
</g>
<mask id="mask2">
  <g filter="url(#alpha)">
<rect x="0" y="0" width="64" height="64" style="fill:rgb(0%,0%,0%);fill-opacity:0.8;stroke:none;"/>
  </g>
</mask>
<linearGradient id="linear3" gradientUnits="userSpaceOnUse" x1="0" y1="0" x2="0" y2="1" gradientTransform="matrix(6.398438,0,0,6.398438,23.46875,22.933594)">
<stop offset="0" style="stop-color:#ff6666;stop-opacity:1;"/>
<stop offset="1" style="stop-color:#d90000;stop-opacity:1;"/>
</linearGradient>
<clipPath id="clip3">
  <rect x="0" y="0" width="64" height="64"/>
</clipPath>
<g id="surface11" clip-path="url(#clip3)">
<path style=" stroke:none;fill-rule:nonzero;fill:url(#linear3);" d="M 29.867188 26.132812 C 29.867188 27.898438 28.433594 29.332031 26.667969 29.332031 C 24.902344 29.332031 23.46875 27.898438 23.46875 26.132812 C 23.46875 24.363281 24.902344 22.933594 26.667969 22.933594 C 28.433594 22.933594 29.867188 24.363281 29.867188 26.132812 Z M 29.867188 26.132812 "/>
</g>
</defs>
<g id="surface1">
<use xlink:href="#surface5" mask="url(#mask0)"/>
<path style=" stroke:none;fill-rule:nonzero;fill:url(#linear1);" d="M 48.535156 8.359375 C 48.546875 8.324219 48.554688 8.285156 48.5625 8.253906 C 52.0625 9.292969 53.625 10.707031 53.253906 12.5 C 52.6875 15.1875 50.960938 14.773438 48.9375 14.6875 C 46.96875 14.34375 46.78125 18.015625 47.78125 20.03125 C 48.78125 22.046875 49.5 23.023438 50.457031 24.113281 C 55.128906 29.394531 59.476562 36.039062 63.679688 42.203125 C 64.429688 43.558594 63.820312 45.277344 62.394531 45.828125 C 62.394531 45.828125 44.148438 53 30.863281 55.90625 C 30.863281 55.90625 35.839844 47.109375 37.015625 42.269531 C 37.328125 40.980469 37.566406 39.449219 37.753906 37.804688 C 35.125 40.613281 32.058594 43.015625 28.5625 45.0625 C 25.5625 46.3125 24.625 43.5 27.375 41.753906 C 33.625 36.753906 33.21875 25.765625 37.4375 18.253906 C 37.484375 18.160156 37.53125 18.070312 37.585938 18.003906 C 36.089844 18.359375 31.199219 19.730469 27 19.730469 C 23.730469 19.730469 17.800781 17.160156 17.800781 17.160156 C 19.734375 13.792969 22.394531 10.859375 26.65625 8.578125 C 29.90625 7.054688 33.585938 6.101562 37.160156 5.867188 C 40.191406 5.890625 43.449219 6.621094 46.324219 7.480469 C 47.007812 7.683594 47.753906 7.90625 48.496094 8.164062 C 48.515625 8.222656 48.527344 8.289062 48.535156 8.359375 Z M 48.535156 8.359375 "/>
<use xlink:href="#surface8" mask="url(#mask1)"/>
<use xlink:href="#surface11" mask="url(#mask2)"/>
</g>
</svg>
