<svg xmlns="http://www.w3.org/2000/svg" xmlns:xlink="http://www.w3.org/1999/xlink" width="64" height="64" viewBox="0 0 64 64" version="1.1">
<defs>
<linearGradient id="linear0" gradientUnits="userSpaceOnUse" x1="0" y1="0" x2="0" y2="1" gradientTransform="matrix(64.003906,0,0,55.273438,-0.00390625,4.363281)">
<stop offset="0" style="stop-color:#ff6666;stop-opacity:1;"/>
<stop offset="1" style="stop-color:#d90000;stop-opacity:1;"/>
</linearGradient>
</defs>
<g id="surface1">
<path style=" stroke:none;fill-rule:evenodd;fill:url(#linear0);" d="M 33.46875 16.964844 C 33.089844 16.96875 32.679688 17.003906 32.445312 17.042969 C 30.964844 17.296875 29.78125 17.839844 29.167969 18.585938 C 28.683594 19.164062 28.546875 19.890625 28.792969 20.597656 C 28.824219 20.6875 28.847656 20.78125 28.832031 20.792969 C 28.816406 20.808594 27.363281 20.964844 25.613281 21.148438 C 24.183594 21.300781 23.402344 21.40625 22.988281 21.464844 C 22.933594 21.472656 22.65625 21.5 22.632812 21.503906 C 22.617188 21.507812 22.394531 21.523438 22.394531 21.523438 C 22.390625 21.527344 22.414062 21.589844 22.414062 21.605469 C 22.414062 21.628906 22.410156 21.640625 22.414062 21.644531 C 22.433594 21.773438 22.492188 22.050781 22.652344 22.609375 C 22.933594 23.597656 22.992188 23.796875 22.949219 23.796875 C 22.941406 23.796875 22.792969 23.691406 22.632812 23.574219 C 21.976562 23.105469 21.378906 22.875 20.734375 22.847656 C 20.03125 22.8125 19.585938 23.007812 19.078125 23.5 C 19.066406 23.507812 19.050781 23.507812 19.039062 23.515625 C 18.789062 23.773438 18.691406 23.886719 18.527344 24.226562 C 18.285156 24.722656 18.164062 25.164062 18.132812 25.746094 C 18.09375 26.433594 18.242188 27.296875 18.488281 27.859375 L 18.566406 28.058594 L 18.898438 28.058594 C 19.777344 28.058594 20.464844 26.941406 21.191406 26.597656 C 21.699219 26.472656 22.632812 26.472656 23.265625 26.597656 C 25.535156 27.046875 27.238281 28.59375 27.152344 30.132812 C 27.132812 30.539062 26.984375 30.8125 26.621094 31.175781 C 26.316406 31.484375 25.921875 31.753906 25.238281 32.125 C 25 32.257812 24.601562 32.480469 24.347656 32.621094 C 24.101562 32.757812 23.742188 32.972656 23.558594 33.09375 C 23.199219 33.332031 22.753906 33.726562 22.753906 33.824219 C 22.753906 33.902344 22.976562 33.898438 23.9375 33.804688 C 24.347656 33.761719 24.683594 33.695312 25.039062 33.644531 C 26.765625 33.398438 27.910156 33.0625 28.8125 32.480469 C 29.664062 31.925781 30.308594 31.039062 30.546875 30.113281 C 30.589844 29.960938 30.625 29.855469 30.648438 29.855469 C 30.671875 29.855469 30.828125 29.9375 30.984375 30.03125 C 31.996094 30.664062 32.832031 30.890625 33.527344 30.742188 C 34.152344 30.613281 34.757812 30.234375 35.859375 29.285156 C 36.152344 29.027344 36.402344 28.808594 36.433594 28.808594 C 36.457031 28.808594 36.6875 29.3125 36.945312 29.910156 C 37.203125 30.515625 37.445312 31.039062 37.476562 31.078125 C 37.535156 31.148438 37.585938 31.15625 38.523438 31 C 39.054688 30.910156 39.507812 30.804688 39.53125 30.785156 C 39.585938 30.730469 39.378906 30.039062 39.195312 29.601562 C 38.894531 28.886719 38.375 28.242188 37.753906 27.839844 C 37.378906 27.601562 36.820312 27.335938 35.914062 26.992188 C 34.9375 26.617188 34.429688 26.375 33.964844 26.0625 C 33.503906 25.757812 33.058594 25.347656 33.117188 25.296875 C 33.136719 25.277344 33.296875 25.214844 33.46875 25.15625 C 34.855469 24.675781 35.808594 23.765625 36.433594 22.296875 C 36.6875 21.691406 36.894531 20.921875 37.238281 19.390625 C 37.394531 18.699219 37.601562 17.921875 37.675781 17.65625 C 37.753906 17.390625 37.804688 17.152344 37.792969 17.125 C 37.792969 17.121094 37.746094 17.140625 37.730469 17.140625 C 37.597656 17.171875 36.808594 17.535156 34.871094 18.503906 C 33.28125 19.300781 31.953125 19.953125 31.933594 19.945312 C 31.90625 19.941406 32.414062 19.476562 33.054688 18.921875 C 33.691406 18.359375 34.269531 17.859375 34.320312 17.8125 C 34.351562 17.785156 34.34375 17.753906 34.359375 17.714844 C 34.378906 17.65625 34.394531 17.574219 34.394531 17.398438 C 34.394531 17.066406 34.386719 17.046875 34.28125 17.003906 C 34.191406 16.96875 33.851562 16.960938 33.472656 16.964844 Z M 47.703125 4.367188 C 47.261719 4.398438 46.867188 4.621094 46.519531 5.039062 C 46.125 5.511719 45.929688 6.152344 45.984375 6.71875 C 46.070312 7.554688 46.316406 8.246094 47.328125 10.253906 C 47.882812 11.355469 48.0625 11.796875 48.257812 12.679688 C 48.523438 13.929688 48.632812 15.023438 48.632812 16.472656 C 48.628906 17.804688 48.546875 18.777344 48.335938 20.042969 C 48.148438 21.15625 47.828125 22.496094 47.765625 22.472656 C 47.660156 22.441406 47.539062 21.398438 47.449219 19.886719 C 47.335938 18.105469 47.246094 17.386719 47.09375 16.6875 C 46.675781 14.816406 45.757812 14.027344 44.226562 14.261719 C 43.800781 14.324219 43.109375 14.53125 43.042969 14.617188 C 43.015625 14.648438 43.171875 15.191406 43.597656 16.410156 C 43.933594 17.367188 44.207031 18.167969 44.207031 18.1875 C 44.207031 18.246094 43.964844 18.332031 43.910156 18.289062 C 43.882812 18.265625 43.644531 17.921875 43.378906 17.535156 C 42.820312 16.726562 42.535156 16.332031 42.15625 15.878906 C 41.128906 14.65625 40.015625 14.074219 38.859375 14.144531 C 38.441406 14.167969 37.804688 14.304688 37.695312 14.398438 C 37.621094 14.464844 37.636719 14.570312 39.074219 19.808594 L 40.554688 25.15625 L 40.21875 28.433594 C 40.039062 30.238281 39.863281 31.761719 39.847656 31.808594 C 39.816406 31.894531 39.808594 31.90625 39.214844 31.90625 C 38.878906 31.90625 38.203125 31.882812 37.714844 31.847656 C 36.636719 31.773438 35.289062 31.761719 34.832031 31.828125 C 34.363281 31.894531 33.6875 32.0625 33.054688 32.28125 C 31.078125 32.960938 29.347656 34.160156 27.902344 35.875 C 26.570312 37.457031 25.441406 39.472656 24.328125 42.253906 C 23.996094 43.085938 23.277344 45.085938 23.109375 45.628906 C 22.6875 46.96875 22.453125 48.390625 22.414062 49.933594 C 22.378906 51.304688 22.484375 52.433594 22.773438 53.578125 C 23.105469 54.933594 23.605469 55.976562 24.292969 56.859375 C 24.457031 57.070312 24.636719 57.257812 24.824219 57.453125 C 24.832031 57.460938 24.835938 57.464844 24.84375 57.472656 C 24.847656 57.476562 24.855469 57.484375 24.863281 57.492188 C 24.867188 57.496094 24.859375 57.503906 24.863281 57.507812 C 25.746094 58.398438 26.710938 58.914062 27.941406 59.167969 C 28.820312 59.347656 30.351562 59.375 30.351562 59.207031 C 30.351562 59.179688 30.085938 58.386719 29.761719 57.453125 C 29.433594 56.515625 29.167969 55.734375 29.167969 55.714844 C 29.167969 55.671875 29.332031 55.574219 29.402344 55.574219 C 29.425781 55.574219 29.628906 55.859375 29.855469 56.207031 C 30.777344 57.605469 31.484375 58.402344 32.289062 58.953125 C 32.765625 59.277344 33.386719 59.527344 33.882812 59.605469 C 34.191406 59.652344 34.925781 59.648438 35.226562 59.585938 C 35.601562 59.503906 35.972656 59.378906 36.015625 59.328125 L 33.648438 55.4375 C 35.199219 56.648438 37.238281 57.816406 38.679688 58.222656 C 40.488281 58.726562 42.1875 58.480469 43.480469 57.507812 C 43.886719 57.203125 44.308594 56.789062 44.289062 56.71875 C 44.28125 56.691406 42.777344 56.054688 40.953125 55.300781 C 39.125 54.542969 37.625 53.902344 37.617188 53.878906 C 37.59375 53.808594 39.03125 53.886719 40.597656 54.054688 C 41.097656 54.109375 41.910156 54.199219 42.410156 54.253906 C 44.023438 54.425781 44.382812 54.453125 45.492188 54.449219 C 46.667969 54.449219 47.183594 54.402344 48.078125 54.210938 C 49.472656 53.921875 50.960938 53.21875 52.183594 52.300781 C 52.679688 51.925781 52.925781 51.695312 52.894531 51.648438 C 52.878906 51.625 50.921875 51.628906 47.132812 51.648438 C 43.226562 51.667969 41.453125 51.65625 41.386719 51.628906 C 41.375 51.628906 41.351562 51.632812 41.347656 51.628906 C 41.324219 51.589844 41.734375 50.449219 41.800781 50.382812 C 41.820312 50.363281 41.964844 50.410156 42.117188 50.503906 C 44.742188 52.0625 50.402344 51.664062 54.511719 49.617188 C 55.691406 49.027344 56.46875 48.472656 57.234375 47.699219 C 58.160156 46.777344 58.699219 45.765625 58.777344 44.800781 C 58.800781 44.511719 58.789062 44.503906 58.714844 44.503906 C 58.628906 44.503906 57.195312 44.894531 56.429688 45.132812 C 56.144531 45.21875 55.421875 45.453125 54.808594 45.644531 C 50.828125 46.902344 49.175781 47.242188 47.011719 47.285156 C 45.777344 47.308594 44.667969 47.234375 44.703125 47.128906 C 44.742188 47.007812 46.425781 46.429688 47.5625 46.140625 C 48.539062 45.894531 49.050781 45.789062 51.316406 45.332031 C 54.664062 44.65625 55.875 44.339844 57.355469 43.753906 C 60.476562 42.507812 62.242188 40.484375 62.804688 37.53125 C 62.949219 36.769531 63.035156 35.421875 62.945312 35.421875 C 62.925781 35.421875 61.320312 36.324219 59.367188 37.414062 C 57.421875 38.503906 55.800781 39.382812 55.777344 39.371094 C 55.722656 39.335938 55.492188 38.824219 55.519531 38.796875 C 55.53125 38.789062 55.78125 38.648438 56.09375 38.480469 C 57.589844 37.675781 58.722656 36.828125 59.960938 35.601562 C 62.269531 33.300781 63.621094 30.644531 63.949219 27.800781 C 64.035156 27.035156 64.007812 25.640625 63.886719 24.941406 C 63.746094 24.109375 63.421875 22.878906 63.320312 22.847656 C 63.296875 22.839844 61.898438 24.851562 60.234375 27.308594 C 56.738281 32.480469 56.554688 32.742188 56.527344 32.714844 C 56.464844 32.65625 57.296875 31.179688 58.699219 28.847656 C 59.304688 27.839844 59.957031 26.746094 60.140625 26.421875 C 60.589844 25.617188 61.21875 24.285156 61.460938 23.65625 C 62.308594 21.453125 62.429688 19.578125 61.835938 17.792969 C 61.664062 17.277344 61.253906 16.429688 60.929688 15.9375 C 60.609375 15.453125 60.128906 14.835938 60.078125 14.851562 C 60.054688 14.859375 59.097656 17.125 57.949219 19.886719 L 55.855469 24.898438 L 52.957031 29.851562 C 50.050781 34.816406 49.925781 35.054688 49.894531 35.023438 C 49.871094 35 50.136719 34.261719 50.40625 33.585938 C 51.089844 31.898438 51.789062 30.558594 53.703125 27.269531 C 54.929688 25.167969 55.480469 24.183594 55.972656 23.203125 C 57.515625 20.148438 58.261719 17.679688 58.445312 14.988281 C 58.480469 14.445312 58.480469 14.183594 58.445312 13.828125 C 58.246094 11.96875 57.59375 9.652344 56.898438 8.355469 C 56.5 7.605469 55.980469 7.003906 55.519531 6.78125 C 55.3125 6.675781 55.242188 6.660156 54.90625 6.660156 C 54.5625 6.660156 54.5 6.671875 54.234375 6.796875 C 53.59375 7.101562 53.40625 7.570312 53.40625 8.792969 C 53.40625 9.445312 53.460938 9.957031 53.664062 11.414062 L 53.804688 12.445312 L 53.785156 13.609375 C 53.761719 14.765625 53.742188 15.136719 53.625 16.214844 C 53.363281 18.589844 52.71875 21.3125 51.769531 24.207031 C 51.40625 25.300781 50.878906 26.820312 50.824219 26.910156 C 50.683594 27.128906 51.023438 25.558594 51.710938 22.746094 C 52.835938 18.132812 53.105469 16.488281 53.152344 14.160156 C 53.183594 12.550781 53.074219 11.441406 52.777344 10.136719 C 52.597656 9.351562 52.527344 9.148438 52.265625 8.613281 C 51.523438 7.117188 50.234375 5.53125 49.183594 4.84375 C 48.640625 4.488281 48.148438 4.335938 47.703125 4.367188 Z M 26.601562 29.144531 C 24.96875 29.347656 23.351562 29.734375 21.800781 30.28125 C 20.1875 30.867188 18.578125 31.648438 17.386719 32.910156 C 17.300781 33.0625 16.851562 33.394531 17.023438 33.480469 C 18.777344 33.007812 21.234375 32.320312 22.894531 31.851562 C 23.34375 31.722656 23.6875 31.625 24.078125 31.515625 C 24.800781 31.320312 25.515625 31.113281 26.226562 30.898438 L 26.738281 30.742188 C 26.898438 30.554688 26.808594 29.992188 26.832031 29.664062 C 26.78125 29.492188 26.929688 29.035156 26.601562 29.144531 Z M 9.113281 29.816406 C 8.640625 29.84375 8.03125 29.988281 7.648438 30.171875 C 6.558594 30.6875 5.921875 31.628906 5.617188 33.113281 C 5.441406 33.980469 5.40625 34.457031 5.398438 36.765625 C 5.390625 37.96875 5.375 38.960938 5.359375 38.976562 C 5.34375 38.988281 5.289062 38.953125 5.21875 38.875 C 4.976562 38.59375 4.660156 38.078125 4.214844 37.195312 C 4.050781 36.871094 3.921875 36.65625 3.78125 36.40625 C 3.707031 36.277344 3.605469 36.03125 3.5625 35.976562 C 3.324219 35.609375 2.878906 35.148438 2.574219 34.949219 C 2.320312 34.777344 1.929688 34.632812 1.667969 34.632812 C 0.914062 34.632812 0.246094 35.324219 0.046875 36.308594 C -0.144531 37.261719 0.230469 38.042969 1.015625 38.34375 C 1.144531 38.390625 1.34375 38.414062 1.726562 38.421875 C 2.019531 38.429688 2.285156 38.445312 2.300781 38.460938 C 2.316406 38.480469 2.378906 38.644531 2.441406 38.816406 C 2.613281 39.328125 3.035156 40.164062 3.679688 41.242188 C 4.363281 42.386719 4.800781 43.21875 4.984375 43.730469 C 5.183594 44.28125 6.121094 47.894531 6.246094 48.609375 C 6.359375 49.226562 6.386719 49.792969 6.328125 50.089844 C 6.300781 50.21875 6.179688 50.59375 6.050781 50.894531 C 5.695312 51.742188 5.671875 52.0625 5.910156 52.730469 C 6.390625 54.0625 7.238281 54.972656 8.460938 55.476562 C 8.769531 55.605469 8.820312 55.613281 8.890625 55.4375 C 9.058594 55.042969 9.273438 54.191406 9.347656 53.605469 C 9.46875 52.636719 9.378906 51.949219 8.871094 49.710938 C 8.640625 48.679688 8.457031 47.425781 8.539062 47.425781 C 8.554688 47.425781 8.710938 47.527344 8.871094 47.660156 C 9.035156 47.792969 9.574219 48.222656 10.074219 48.609375 C 11.382812 49.605469 11.546875 49.738281 13.039062 51.210938 C 13.605469 51.773438 14.011719 52.148438 14.359375 52.457031 C 15.058594 53.074219 15.476562 53.34375 16.058594 53.542969 C 16.371094 53.652344 16.5 53.679688 16.769531 53.679688 C 17.425781 53.679688 17.722656 53.40625 17.757812 52.773438 C 17.78125 52.324219 17.644531 51.808594 17.285156 51.074219 C 16.929688 50.359375 16.648438 49.984375 16.101562 49.457031 C 15.460938 48.84375 14.867188 48.410156 12.960938 47.1875 C 11.335938 46.144531 10.609375 45.609375 9.980469 44.976562 C 9.148438 44.140625 8.796875 43.449219 8.757812 42.546875 C 8.722656 41.804688 8.90625 41.332031 9.386719 40.847656 C 9.878906 40.355469 10.421875 40.078125 12.011719 39.527344 C 13.691406 38.945312 14.320312 38.574219 14.601562 38.007812 C 14.695312 37.808594 14.695312 37.746094 14.695312 37.414062 C 14.695312 37.097656 14.695312 37.011719 14.621094 36.863281 C 14.253906 36.164062 13.148438 35.742188 11.359375 35.640625 L 10.90625 35.621094 L 9.386719 37.140625 C 8.550781 37.972656 7.859375 38.632812 7.847656 38.621094 C 7.835938 38.609375 8.199219 36.660156 8.65625 34.277344 C 9.117188 31.890625 9.503906 29.914062 9.503906 29.875 C 9.503906 29.808594 9.46875 29.792969 9.113281 29.816406 Z M 19.710938 45.40625 C 19.644531 45.40625 19.289062 45.773438 19.121094 46.019531 C 18.652344 46.707031 18.292969 47.726562 18.070312 48.984375 C 17.996094 49.429688 17.996094 49.636719 17.992188 50.601562 C 17.992188 51.824219 18.019531 52.101562 18.253906 52.792969 C 18.503906 53.554688 18.929688 54.066406 19.4375 54.253906 C 19.515625 54.285156 19.660156 54.3125 19.773438 54.3125 C 20.40625 54.320312 20.996094 53.613281 21.273438 52.535156 C 21.503906 51.621094 21.328125 50.851562 20.480469 49.058594 C 19.9375 47.914062 19.796875 47.464844 19.710938 46.773438 C 19.667969 46.4375 19.667969 46.105469 19.730469 45.609375 C 19.746094 45.46875 19.738281 45.40625 19.710938 45.40625 Z M 19.710938 45.40625 "/>
</g>
</svg>
