<svg xmlns="http://www.w3.org/2000/svg" xmlns:xlink="http://www.w3.org/1999/xlink" width="64" height="64" viewBox="0 0 64 64" version="1.1">
<defs> <linearGradient id="linear0" gradientUnits="userSpaceOnUse" x1="0" y1="0" x2="0" y2="1" gradientTransform="matrix(55.992188,0,0,56,4.003906,4)"> <stop offset="0" style="stop-color:#ff6666;stop-opacity:1;"/> <stop offset="1" style="stop-color:#d90000;stop-opacity:1;"/> </linearGradient> </defs>
<g id="surface1">
<path style="fill:none;stroke-width:13.11;stroke-linecap:round;stroke-linejoin:round;stroke:url(#linear0);stroke-opacity:1;stroke-miterlimit:4;" d="M 215.066053 285.433914 L 246.83576 258.215444 L 296.940759 215.347972 L 260.571107 181.632468 L 260.571107 330.416699 L 293.179122 298.276887 L 218.290313 231.946706 " transform="matrix(0.181728,0,0,0.180972,-14.466283,-14.155549)"/>
<path style=" stroke:none;fill-rule:nonzero;fill:url(#linear0);fill-opacity:1;" d="M 16.035156 16.183594 C 7.195312 25.007812 7.171875 39.351562 15.996094 48.160156 L 20.199219 43.964844 C 13.644531 37.425781 13.671875 26.929688 20.238281 20.382812 L 16.035156 16.183594 M 43.875 20.34375 C 50.433594 26.886719 50.480469 37.457031 43.914062 44.011719 L 48.117188 48.199219 C 56.957031 39.378906 56.90625 24.957031 48.078125 16.144531 L 43.875 20.34375 "/>
<path style=" stroke:none;fill-rule:nonzero;fill:url(#linear0);fill-opacity:1;" d="M 55.40625 8.816406 L 50.894531 13.316406 C 55.441406 18.089844 58.242188 24.542969 58.242188 31.640625 C 58.242188 39 55.242188 45.65625 50.398438 50.472656 L 55.460938 55.53125 C 68.339844 42.675781 68.269531 21.652344 55.40625 8.816406 M 8.703125 8.875 C -4.175781 21.726562 -4.210938 42.636719 8.652344 55.472656 L 13.15625 50.972656 C 8.011719 46.125 4.796875 39.253906 4.796875 31.640625 C 4.796875 24.285156 7.796875 17.621094 12.640625 12.804688 L 8.703125 8.875 "/>
</g>
</svg>
