<svg xmlns="http://www.w3.org/2000/svg" xmlns:xlink="http://www.w3.org/1999/xlink" width="64" height="64" viewBox="0 0 64 64" version="1.1">
<defs> <linearGradient id="linear0" gradientUnits="userSpaceOnUse" x1="0" y1="0" x2="0" y2="1" gradientTransform="matrix(55.992188,0,0,56,4.003906,4)"> <stop offset="0" style="stop-color:#ff6666;stop-opacity:1;"/> <stop offset="1" style="stop-color:#d90000;stop-opacity:1;"/> </linearGradient> </defs>
<g id="surface1">
<path style=" stroke:none;fill-rule:nonzero;fill:url(#linear0);fill-opacity:1;" d="M 62.570312 23.488281 C 63.300781 25.4375 48.804688 36.640625 48.246094 38.648438 C 47.683594 40.65625 54.304688 57.695312 52.671875 58.992188 C 51.035156 60.285156 35.847656 50.023438 33.757812 50.113281 C 31.675781 50.203125 17.4375 61.738281 15.699219 60.589844 C 13.957031 59.445312 19.066406 41.890625 18.335938 39.9375 C 17.601562 37.992188 2.191406 28.078125 2.746094 26.070312 C 3.308594 24.0625 21.652344 23.480469 23.289062 22.1875 C 24.921875 20.890625 29.625 3.230469 31.714844 3.136719 C 33.804688 3.046875 40.03125 20.242188 41.773438 21.386719 C 43.515625 22.535156 61.835938 21.535156 62.570312 23.488281 "/>
</g>
</svg>
