<svg xmlns="http://www.w3.org/2000/svg" xmlns:xlink="http://www.w3.org/1999/xlink" width="64" height="64" viewBox="0 0 64 64" version="1.1">
<defs>
<linearGradient id="linear0" gradientUnits="userSpaceOnUse" x1="0" y1="0" x2="0" y2="1" gradientTransform="matrix(64,0,0,60.953125,0,1.523438)">
<stop offset="0" style="stop-color:#ff6666;stop-opacity:1;"/>
<stop offset="1" style="stop-color:#d90000;stop-opacity:1;"/>
</linearGradient>
</defs>
<g id="surface1">
<path style=" stroke:none;fill-rule:evenodd;fill:url(#linear0);" d="M 21.660156 31.742188 C 21.660156 25.847656 26.449219 21.058594 32.34375 21.058594 C 38.238281 21.058594 43.023438 25.847656 43.023438 31.742188 C 43.023438 37.640625 38.238281 42.429688 32.34375 42.429688 C 26.449219 42.429688 21.660156 37.640625 21.660156 31.742188 Z M 54.4375 1.523438 L 49.011719 10.878906 L 44.929688 17.953125 C 48.8125 21.488281 51.027344 26.492188 51.035156 31.742188 C 51.035156 33.664062 50.738281 35.570312 50.15625 37.402344 L 57.207031 41.476562 C 58.425781 38.375 59.046875 35.074219 59.046875 31.742188 C 59.039062 26.542969 57.515625 21.460938 54.664062 17.117188 L 61.707031 5.046875 C 59.898438 2.988281 57.394531 2.070312 54.4375 1.523438 Z M 5.714844 2.480469 C 4.207031 3.199219 1.644531 4.296875 0 8.402344 L 11.476562 15.070312 L 18.550781 19.15625 C 22.085938 15.277344 27.09375 13.054688 32.34375 13.046875 C 34.265625 13.046875 36.171875 13.347656 38 13.933594 L 42.074219 6.875 C 38.976562 5.664062 35.671875 5.035156 32.34375 5.035156 C 27.144531 5.042969 22.058594 6.566406 17.714844 9.425781 Z M 7.476562 22.007812 C 6.261719 25.113281 5.636719 28.410156 5.636719 31.742188 C 5.644531 36.941406 7.167969 42.023438 10.023438 46.367188 L 4.230469 56.394531 L 2.464844 59.328125 C 4.585938 61.222656 7.109375 62.269531 10.027344 62.476562 L 15.671875 52.609375 L 19.757812 45.535156 C 15.871094 42 13.65625 36.996094 13.648438 31.742188 C 13.648438 29.824219 13.949219 27.910156 14.527344 26.085938 Z M 46.132812 44.328125 C 42.601562 48.210938 37.59375 50.429688 32.34375 50.441406 C 30.421875 50.4375 28.511719 50.140625 26.683594 49.554688 L 22.609375 56.609375 C 25.710938 57.824219 29.011719 58.449219 32.34375 58.453125 C 37.539062 58.445312 42.625 56.914062 46.96875 54.0625 L 58.9375 60.988281 C 61.191406 59.6875 62.785156 58.253906 64 54.640625 L 53.207031 48.414062 Z M 46.132812 44.328125 "/>
</g>
</svg>
