<svg xmlns="http://www.w3.org/2000/svg" xmlns:xlink="http://www.w3.org/1999/xlink" width="64" height="64" viewBox="0 0 64 64" version="1.1">
<defs>
<linearGradient id="linear0" gradientUnits="userSpaceOnUse" x1="0" y1="0" x2="0" y2="1" gradientTransform="matrix(56.003906,0,0,53.324219,4,5.339844)">
<stop offset="0" style="stop-color:#ff6666;stop-opacity:1;"/>
<stop offset="1" style="stop-color:#d90000;stop-opacity:1;"/>
</linearGradient>
</defs>
<g id="surface1">
<path style=" stroke:none;fill-rule:nonzero;fill:url(#linear0);" d="M 48.160156 58.660156 C 47.878906 58.660156 47.585938 58.578125 47.304688 58.464844 L 31.988281 50.429688 L 16.671875 58.464844 C 16.058594 58.769531 15.328125 58.71875 14.765625 58.332031 C 14.1875 57.921875 13.941406 57.226562 14.023438 56.570312 L 16.953125 39.507812 L 4.535156 27.421875 C 4.042969 26.929688 3.875 26.234375 4.09375 25.574219 C 4.289062 24.921875 4.863281 24.441406 5.554688 24.359375 L 22.699219 21.871094 L 30.375 6.359375 C 30.703125 5.753906 31.3125 5.339844 32.003906 5.339844 C 32.695312 5.339844 33.304688 5.699219 33.636719 6.359375 L 41.308594 21.871094 L 58.453125 24.359375 C 59.144531 24.441406 59.671875 24.9375 59.921875 25.574219 C 60.117188 26.234375 59.953125 26.960938 59.472656 27.421875 L 46.976562 39.460938 L 49.902344 56.519531 C 50.019531 57.210938 49.738281 57.871094 49.164062 58.285156 C 48.9375 58.527344 48.570312 58.660156 48.160156 58.660156 Z M 32.003906 46.523438 C 32.285156 46.523438 32.578125 46.609375 32.859375 46.722656 L 45.804688 53.492188 L 43.351562 39.117188 C 43.269531 38.535156 43.433594 37.929688 43.878906 37.515625 L 54.335938 27.308594 L 39.875 25.230469 C 39.300781 25.148438 38.773438 24.789062 38.527344 24.261719 L 32.070312 11.152344 L 25.617188 24.261719 C 25.367188 24.789062 24.839844 25.164062 24.265625 25.230469 L 9.808594 27.308594 L 20.265625 37.515625 C 20.675781 37.929688 20.871094 38.535156 20.792969 39.117188 L 18.335938 53.492188 L 31.28125 46.722656 C 31.429688 46.609375 31.707031 46.523438 32.003906 46.523438 Z M 27.375 25.792969 C 27.265625 25.792969 27.097656 25.761719 26.964844 25.707031 C 26.71875 25.59375 26.519531 25.429688 26.441406 25.183594 C 26.355469 24.9375 26.355469 24.65625 26.441406 24.40625 L 30.554688 14.886719 C 30.71875 14.527344 31.085938 14.28125 31.460938 14.28125 C 31.574219 14.28125 31.738281 14.3125 31.871094 14.363281 C 32.121094 14.480469 32.285156 14.644531 32.398438 14.886719 C 32.484375 15.136719 32.484375 15.414062 32.398438 15.664062 L 28.285156 25.183594 C 28.167969 25.542969 27.789062 25.792969 27.375 25.792969 Z M 22.816406 27.882812 C 22.320312 27.882812 21.910156 27.519531 21.84375 27.027344 C 21.8125 26.78125 21.875 26.5 22.039062 26.285156 C 22.207031 26.070312 22.453125 25.957031 22.699219 25.925781 L 24.085938 25.761719 L 24.199219 25.761719 C 24.691406 25.761719 25.105469 26.121094 25.171875 26.617188 C 25.203125 26.863281 25.136719 27.140625 24.972656 27.355469 C 24.808594 27.550781 24.558594 27.683594 24.316406 27.71875 L 22.933594 27.882812 Z M 13.347656 29.136719 C 12.851562 29.136719 12.441406 28.773438 12.375 28.28125 C 12.34375 28.03125 12.40625 27.753906 12.570312 27.535156 C 12.734375 27.339844 12.984375 27.207031 13.230469 27.175781 L 20.738281 26.203125 L 20.855469 26.203125 C 21.351562 26.203125 21.761719 26.5625 21.828125 27.058594 C 21.910156 27.589844 21.5 28.078125 20.972656 28.164062 L 13.464844 29.136719 Z M 13.347656 29.136719 "/>
</g>
</svg>
