<svg xmlns="http://www.w3.org/2000/svg" xmlns:xlink="http://www.w3.org/1999/xlink" width="64" height="64" viewBox="0 0 64 64" version="1.1">
<defs>
<linearGradient id="linear0" gradientUnits="userSpaceOnUse" x1="0" y1="0" x2="0" y2="1" gradientTransform="matrix(64,0,0,39.382812,0,12.308594)">
<stop offset="0" style="stop-color:#ff6666;stop-opacity:1;"/>
<stop offset="1" style="stop-color:#d90000;stop-opacity:1;"/>
</linearGradient>
</defs>
<g id="surface1">
<path style=" stroke:none;fill-rule:nonzero;fill:url(#linear0);" d="M 22.152344 12.308594 C 19.4375 12.308594 17.230469 14.511719 17.230469 17.230469 L 17.230469 24.617188 L 44.308594 24.617188 L 40.617188 15.382812 C 39.875 13.523438 38.074219 12.304688 36.074219 12.308594 Z M 59.074219 13.539062 L 59.074219 14.769531 L 42.84375 14.769531 L 44.847656 19.691406 L 59.074219 19.691406 L 59.074219 20.925781 L 64 20.925781 L 64 13.539062 Z M 7.535156 27.074219 C 5.894531 27.074219 4.375 27.933594 3.460938 29.308594 L 0 34.460938 L 0 36.925781 L 0.15625 36.925781 C 0.0390625 38.046875 0.226562 39.191406 0.925781 40.230469 L 5.617188 47.308594 C 7.425781 50.042969 10.488281 51.691406 13.769531 51.691406 L 50.230469 51.691406 C 53.519531 51.691406 56.554688 50.046875 58.382812 47.308594 L 63.074219 40.230469 C 63.71875 39.257812 63.992188 38.085938 63.847656 36.925781 L 64 36.925781 L 64 34.460938 L 60.539062 29.308594 C 59.640625 27.929688 58.109375 27.089844 56.460938 27.074219 Z M 5.308594 36.925781 L 58.691406 36.925781 C 59.128906 36.925781 59.238281 37.175781 59 37.539062 L 54.308594 44.539062 L 54.308594 44.617188 C 53.398438 45.976562 51.863281 46.789062 50.230469 46.769531 L 13.769531 46.769531 C 12.121094 46.761719 10.589844 45.921875 9.691406 44.539062 L 5 37.539062 C 4.765625 37.175781 4.867188 36.925781 5.308594 36.925781 Z M 48 36.925781 C 45.960938 36.925781 44.308594 38.574219 44.308594 40.617188 C 44.308594 42.65625 45.960938 44.308594 48 44.308594 C 50.039062 44.308594 51.691406 42.65625 51.691406 40.617188 C 51.691406 38.574219 50.039062 36.925781 48 36.925781 Z M 38.152344 36.925781 C 36.117188 36.925781 34.460938 38.574219 34.460938 40.617188 C 34.460938 42.65625 36.117188 44.308594 38.152344 44.308594 C 40.191406 44.308594 41.847656 42.65625 41.847656 40.617188 C 41.847656 38.574219 40.191406 36.925781 38.152344 36.925781 Z M 25.847656 36.925781 C 23.808594 36.925781 22.152344 38.574219 22.152344 40.617188 C 22.152344 42.65625 23.808594 44.308594 25.847656 44.308594 C 27.882812 44.308594 29.539062 42.65625 29.539062 40.617188 C 29.539062 38.574219 27.882812 36.925781 25.847656 36.925781 Z M 16 36.925781 C 13.960938 36.925781 12.308594 38.574219 12.308594 40.617188 C 12.308594 42.65625 13.960938 44.308594 16 44.308594 C 18.039062 44.308594 19.691406 42.65625 19.691406 40.617188 C 19.691406 38.574219 18.039062 36.925781 16 36.925781 Z M 16 36.925781 "/>
</g>
</svg>
