<svg xmlns="http://www.w3.org/2000/svg" xmlns:xlink="http://www.w3.org/1999/xlink" width="64" height="64" viewBox="0 0 64 64" version="1.1">
<defs> <linearGradient id="linear0" gradientUnits="userSpaceOnUse" x1="0" y1="0" x2="0" y2="1" gradientTransform="matrix(55.992188,0,0,56,4.003906,4)"> <stop offset="0" style="stop-color:#ff6666;stop-opacity:1;"/> <stop offset="1" style="stop-color:#d90000;stop-opacity:1;"/> </linearGradient> </defs>
<g id="surface1">
<path style=" stroke:none;fill-rule:nonzero;fill:url(#linear0);fill-opacity:1;" d="M 55.679688 17.527344 C 55.679688 20.347656 53.363281 22.636719 50.511719 22.636719 C 47.660156 22.636719 45.34375 20.347656 45.34375 17.527344 C 45.34375 14.699219 47.660156 12.414062 50.511719 12.414062 C 53.363281 12.414062 55.679688 14.699219 55.679688 17.527344 "/>
<path style=" stroke:none;fill-rule:nonzero;fill:url(#linear0);fill-opacity:1;" d="M 11.332031 19.707031 L 11.332031 50.382812 L 15.761719 50.382812 L 15.761719 19.707031 Z M 11.332031 19.707031 "/>
<path style=" stroke:none;fill-rule:nonzero;fill:url(#linear0);fill-opacity:1;" d="M 48.410156 51.867188 L 17.421875 51.867188 L 17.421875 53.324219 L 48.410156 53.324219 Z M 48.410156 51.867188 "/>
<path style=" stroke:none;fill-rule:nonzero;fill:url(#linear0);fill-opacity:1;" d="M 45.367188 30.707031 C 45.367188 32.726562 43.714844 34.363281 41.675781 34.363281 C 39.636719 34.363281 37.992188 32.726562 37.992188 30.707031 C 37.992188 28.691406 39.636719 27.054688 41.675781 27.054688 C 43.714844 27.054688 45.367188 28.691406 45.367188 30.707031 "/>
<path style=" stroke:none;fill-rule:nonzero;fill:url(#linear0);fill-opacity:1;" d="M 18.785156 17.566406 C 18.785156 20.386719 16.472656 22.679688 13.621094 22.679688 C 10.765625 22.679688 8.453125 20.386719 8.453125 17.566406 C 8.453125 14.738281 10.765625 12.453125 13.621094 12.453125 C 16.472656 12.453125 18.785156 14.738281 18.785156 17.566406 "/>
<path style=" stroke:none;fill-rule:nonzero;fill:url(#linear0);fill-opacity:1;" d="M 18.761719 52.625 C 18.761719 55.449219 16.449219 57.742188 13.59375 57.742188 C 10.742188 57.742188 8.429688 55.449219 8.429688 52.625 C 8.429688 49.800781 10.742188 47.511719 13.59375 47.511719 C 16.449219 47.511719 18.761719 49.800781 18.761719 52.625 "/>
<path style=" stroke:none;fill-rule:nonzero;fill:url(#linear0);fill-opacity:1;" d="M 55.679688 52.632812 C 55.679688 55.457031 53.363281 57.746094 50.511719 57.746094 C 47.660156 57.746094 45.34375 55.457031 45.34375 52.632812 C 45.34375 49.808594 47.660156 47.523438 50.511719 47.523438 C 53.363281 47.523438 55.679688 49.808594 55.679688 52.632812 "/>
<path style=" stroke:none;fill-rule:nonzero;fill:url(#linear0);fill-opacity:1;" d="M 48.316406 19.832031 L 48.316406 50.511719 L 52.746094 50.511719 L 52.746094 19.832031 Z M 48.316406 19.832031 "/>
<path style=" stroke:none;fill-rule:nonzero;fill:url(#linear0);fill-opacity:1;" d="M 48.148438 15.335938 L 17.160156 15.335938 L 17.160156 19.71875 L 48.148438 19.71875 Z M 48.148438 15.335938 "/>
<path style=" stroke:none;fill-rule:nonzero;fill:url(#linear0);fill-opacity:1;" d="M 49.585938 50.394531 L 15.207031 50.394531 L 15.207031 54.777344 L 49.585938 54.777344 Z M 49.585938 50.394531 "/>
<path style=" stroke:none;fill-rule:nonzero;fill:url(#linear0);fill-opacity:1;" d="M 26.183594 30.707031 C 26.183594 32.726562 24.53125 34.363281 22.492188 34.363281 C 20.453125 34.363281 18.800781 32.726562 18.800781 30.707031 C 18.800781 28.691406 20.453125 27.054688 22.492188 27.054688 C 24.53125 27.054688 26.183594 28.691406 26.183594 30.707031 "/>
<path style=" stroke:none;fill-rule:nonzero;fill:url(#linear0);fill-opacity:1;" d="M 26.183594 10.253906 C 26.183594 12.273438 24.53125 13.90625 22.492188 13.90625 C 20.453125 13.90625 18.800781 12.273438 18.800781 10.253906 C 18.800781 8.238281 20.453125 6.605469 22.492188 6.605469 C 24.53125 6.605469 26.183594 8.238281 26.183594 10.253906 "/>
<path style=" stroke:none;fill-rule:nonzero;fill:url(#linear0);fill-opacity:1;" d="M 45.367188 10.253906 C 45.367188 12.273438 43.714844 13.90625 41.675781 13.90625 C 39.636719 13.90625 37.992188 12.273438 37.992188 10.253906 C 37.992188 8.238281 39.636719 6.605469 41.675781 6.605469 C 43.714844 6.605469 45.367188 8.238281 45.367188 10.253906 "/>
<path style=" stroke:none;fill-rule:nonzero;fill:url(#linear0);fill-opacity:1;" d="M 20.710938 11.84375 L 20.710938 29.582031 L 23.664062 29.582031 L 23.664062 11.84375 Z M 20.710938 11.84375 "/>
<path style=" stroke:none;fill-rule:nonzero;fill:url(#linear0);fill-opacity:1;" d="M 40.410156 11.957031 L 40.410156 29.695312 L 43.363281 29.695312 L 43.363281 11.957031 Z M 40.410156 11.957031 "/>
<path style=" stroke:none;fill-rule:nonzero;fill:url(#linear0);fill-opacity:1;" d="M 41.0625 8.523438 L 23.144531 8.523438 L 23.144531 11.441406 L 41.0625 11.441406 Z M 41.0625 8.523438 "/>
<path style=" stroke:none;fill-rule:nonzero;fill:url(#linear0);fill-opacity:1;" d="M 41.0625 29.179688 L 23.144531 29.179688 L 23.144531 32.101562 L 41.0625 32.101562 Z M 41.0625 29.179688 "/>
<path style=" stroke:none;fill-rule:nonzero;fill:url(#linear0);fill-opacity:1;" d="M 22.238281 28.59375 L 11.164062 55.082031 L 13.542969 56.0625 L 24.617188 29.566406 Z M 22.238281 28.59375 "/>
<path style=" stroke:none;fill-rule:nonzero;fill:url(#linear0);fill-opacity:1;" d="M 41.976562 28.59375 L 53.050781 55.082031 L 50.671875 56.0625 L 39.597656 29.566406 Z M 41.976562 28.59375 "/>
<path style=" stroke:none;fill-rule:nonzero;fill:url(#linear0);fill-opacity:1;" d="M 42.421875 8.769531 L 51.921875 17.582031 L 50.546875 18.832031 L 41.046875 10.019531 Z M 42.421875 8.769531 "/>
<path style=" stroke:none;fill-rule:nonzero;fill:url(#linear0);fill-opacity:1;" d="M 21.039062 9.335938 L 11.539062 18.148438 L 12.914062 19.402344 L 22.414062 10.585938 Z M 21.039062 9.335938 "/>
</g>
</svg>
