<svg xmlns="http://www.w3.org/2000/svg" xmlns:xlink="http://www.w3.org/1999/xlink" width="64" height="64" viewBox="0 0 64 64" version="1.1">
<defs>
<linearGradient id="linear0" gradientUnits="userSpaceOnUse" x1="0" y1="0" x2="0" y2="1" gradientTransform="matrix(57.140625,0,0,64,3.429688,0)">
<stop offset="0" style="stop-color:#ff6666;stop-opacity:1;"/>
<stop offset="1" style="stop-color:#d90000;stop-opacity:1;"/>
</linearGradient>
</defs>
<g id="surface1">
<path style=" stroke:none;fill-rule:evenodd;fill:url(#linear0);" d="M 34.589844 22.855469 L 19.429688 22.855469 L 19.429688 34.285156 L 17.144531 34.285156 L 17.144531 11.429688 L 30.855469 11.429688 L 30.855469 9.046875 C 30.855469 4.035156 25.484375 0 18.46875 0 L 16.097656 0 C 9.074219 0 3.429688 4.035156 3.429688 9.046875 L 3.429688 41.144531 L 19.429688 41.144531 L 19.429688 54.953125 C 19.429688 59.964844 25.074219 64 32.097656 64 L 34.46875 64 C 41.484375 64 46.855469 59.964844 46.855469 54.953125 L 46.855469 52.570312 L 33.144531 52.570312 L 33.144531 41.144531 L 35.523438 41.144531 C 40.234375 41.144531 44.089844 36.148438 44.527344 29.714844 L 45.976562 29.714844 C 48.957031 29.714844 51.429688 32.246094 51.429688 34.921875 L 51.429688 38.601562 C 51.429688 41.277344 48.957031 43.429688 45.976562 43.429688 L 35.429688 43.429688 L 35.429688 50.285156 L 51.523438 50.285156 C 56.535156 50.285156 60.570312 45.015625 60.570312 38 L 60.570312 35.523438 C 60.570312 28.503906 56.535156 22.855469 51.523438 22.855469 L 44.289062 22.855469 C 43.289062 17.46875 39.757812 13.714844 35.523438 13.714844 L 19.429688 13.714844 L 19.429688 20.570312 L 29.976562 20.570312 C 31.910156 20.570312 33.640625 21.484375 34.609375 22.855469 Z M 35.355469 29.714844 L 33.144531 29.714844 L 33.144531 33.253906 C 34.339844 32.394531 35.179688 31.101562 35.382812 29.714844 Z M 23.429688 3.429688 C 22.480469 3.429688 21.714844 4.195312 21.714844 5.144531 C 21.714844 6.089844 22.480469 6.855469 23.429688 6.855469 C 24.375 6.855469 25.144531 6.089844 25.144531 5.144531 C 25.144531 4.195312 24.375 3.429688 23.429688 3.429688 Z M 39.429688 60.570312 C 38.480469 60.570312 37.714844 59.804688 37.714844 58.855469 C 37.714844 57.910156 38.480469 57.144531 39.429688 57.144531 C 40.375 57.144531 41.144531 57.910156 41.144531 58.855469 C 41.144531 59.804688 40.375 60.570312 39.429688 60.570312 Z M 39.429688 60.570312 "/>
</g>
</svg>
