<svg xmlns="http://www.w3.org/2000/svg" xmlns:xlink="http://www.w3.org/1999/xlink" width="64" height="64" viewBox="0 0 64 64" version="1.1">
<defs>
<linearGradient id="linear0" gradientUnits="userSpaceOnUse" x1="0" y1="0" x2="0" y2="1" gradientTransform="matrix(64,0,0,63.109375,0,0.445313)">
<stop offset="0" style="stop-color:#ff6666;stop-opacity:1;"/>
<stop offset="1" style="stop-color:#d90000;stop-opacity:1;"/>
</linearGradient>
</defs>
<g id="surface1">
<path style=" stroke:none;fill-rule:evenodd;fill:url(#linear0);" d="M 6.429688 0.445312 L 3.179688 3.695312 L 4.804688 5.304688 L 8.035156 8.535156 L 9.640625 10.160156 L 12.890625 6.914062 L 11.269531 5.304688 L 8.035156 2.070312 Z M 57.570312 0.445312 L 55.964844 2.070312 L 51.128906 6.90625 L 54.359375 10.160156 L 55.964844 8.535156 L 60.804688 3.695312 Z M 32 8.695312 C 39.609375 8.695312 45.714844 14.804688 45.714844 22.410156 C 45.714844 27.515625 43.90625 29.589844 41.570312 32.773438 C 39.550781 35.570312 37.546875 39.515625 37 45.269531 L 27 45.269531 C 26.453125 39.515625 24.449219 35.570312 22.429688 32.773438 C 20.09375 29.589844 18.285156 27.515625 18.285156 22.410156 C 18.285156 14.804688 24.390625 8.695312 32 8.695312 Z M 0 22.410156 L 0 26.984375 L 9.144531 26.984375 L 9.144531 22.410156 Z M 54.855469 22.410156 L 54.855469 26.984375 L 64 26.984375 L 64 22.410156 Z M 9.644531 39.234375 L 8.035156 40.855469 L 4.804688 44.089844 L 3.175781 45.699219 L 6.429688 48.933594 L 11.269531 44.089844 L 12.890625 42.484375 Z M 54.355469 39.234375 L 51.128906 42.480469 L 57.570312 48.925781 L 60.804688 45.699219 L 55.964844 40.855469 Z M 27.429688 49.839844 L 36.570312 49.839844 L 36.570312 52.125 C 36.570312 53.410156 35.570312 54.410156 34.285156 54.410156 L 29.714844 54.410156 C 29.105469 54.421875 28.519531 54.179688 28.089844 53.753906 C 27.660156 53.320312 27.421875 52.734375 27.429688 52.125 Z M 32 4.125 C 21.929688 4.125 13.714844 12.339844 13.714844 22.410156 C 13.714844 28.730469 16.480469 32.375 18.714844 35.484375 C 20.964844 38.570312 22.855469 41.199219 22.855469 47.554688 L 22.855469 52.125 C 22.878906 55.027344 24.722656 57.601562 27.464844 58.550781 C 27.445312 58.695312 27.433594 58.839844 27.429688 58.984375 C 27.429688 61.496094 29.484375 63.554688 32 63.554688 C 34.515625 63.554688 36.570312 61.496094 36.570312 58.984375 C 36.570312 58.839844 36.570312 58.695312 36.550781 58.550781 C 39.289062 57.597656 41.125 55.023438 41.144531 52.125 L 41.144531 47.554688 C 41.144531 41.199219 43.035156 38.570312 45.285156 35.484375 C 47.519531 32.375 50.285156 28.726562 50.285156 22.410156 C 50.285156 12.339844 42.070312 4.125 32 4.125 Z M 33.101562 13.625 L 25.109375 26.410156 L 29.898438 26.410156 L 29.898438 36 L 37.890625 23.214844 L 33.101562 23.214844 Z M 33.101562 13.625 "/>
</g>
</svg>
