<svg xmlns="http://www.w3.org/2000/svg" xmlns:xlink="http://www.w3.org/1999/xlink" width="64" height="64" viewBox="0 0 64 64" version="1.1">
<defs> <linearGradient id="linear0" gradientUnits="userSpaceOnUse" x1="0" y1="0" x2="0" y2="1" gradientTransform="matrix(55.992188,0,0,56,4.003906,4)"> <stop offset="0" style="stop-color:#ff6666;stop-opacity:1;"/> <stop offset="1" style="stop-color:#d90000;stop-opacity:1;"/> </linearGradient> </defs>
<g id="surface1">
<path style=" stroke:none;fill-rule:nonzero;fill:url(#linear0);fill-opacity:1;" d="M 30.234375 3.160156 C 29.226562 3.160156 28.410156 3.96875 28.410156 4.976562 L 28.410156 13.554688 C 29.585938 13.335938 30.8125 13.152344 32.050781 13.152344 C 33.324219 13.152344 34.488281 13.324219 35.691406 13.554688 L 35.691406 4.976562 C 35.691406 3.976562 34.878906 3.160156 33.867188 3.160156 M 14.046875 9.8125 C 13.582031 9.8125 13.089844 10.0625 12.730469 10.417969 L 10.203125 12.933594 C 9.492188 13.644531 9.492188 14.84375 10.203125 15.558594 L 16.292969 21.621094 C 17.675781 19.613281 19.425781 17.855469 21.453125 16.480469 C 19.527344 14.566406 17.285156 12.328125 15.367188 10.417969 C 15.007812 10.066406 14.511719 9.8125 14.046875 9.8125 M 50.058594 9.914062 C 49.574219 9.914062 49.097656 10.0625 48.742188 10.417969 L 42.652344 16.480469 C 44.675781 17.855469 46.429688 19.605469 47.816406 21.613281 C 49.734375 19.703125 51.984375 17.464844 53.902344 15.550781 C 54.253906 15.195312 54.511719 14.703125 54.511719 14.246094 C 54.511719 13.78125 54.261719 13.289062 53.902344 12.933594 L 51.375 10.417969 C 51.019531 10.066406 50.542969 9.914062 50.058594 9.914062 M 4.746094 28.546875 C 3.742188 28.546875 2.921875 29.355469 2.921875 30.363281 L 2.921875 33.988281 C 2.921875 34.988281 3.734375 35.804688 4.746094 35.804688 L 13.359375 35.804688 C 13.144531 34.644531 12.957031 33.402344 12.957031 32.179688 C 12.957031 30.921875 13.128906 29.746094 13.359375 28.554688 Z M 50.75 28.546875 C 50.984375 29.742188 51.15625 30.917969 51.15625 32.171875 C 51.15625 33.394531 50.972656 34.640625 50.75 35.796875 L 59.367188 35.796875 C 60.371094 35.796875 61.1875 34.988281 61.1875 33.988281 L 61.1875 30.359375 C 61.1875 29.355469 60.378906 28.546875 59.367188 28.546875 M 16.296875 42.726562 L 10.207031 48.789062 C 9.492188 49.5 9.492188 50.699219 10.207031 51.414062 L 12.734375 53.929688 C 13.445312 54.636719 14.554688 54.636719 15.261719 53.929688 C 17.222656 52.011719 19.511719 49.785156 21.453125 47.867188 C 19.425781 46.503906 17.675781 44.726562 16.292969 42.726562 M 47.707031 42.726562 C 46.332031 44.707031 44.65625 46.507812 42.652344 47.867188 L 48.742188 53.929688 C 49.449219 54.636719 50.65625 54.636719 51.371094 53.929688 L 53.898438 51.414062 C 54.613281 50.699219 54.613281 49.601562 53.898438 48.890625 C 51.957031 46.929688 49.660156 44.683594 47.707031 42.730469 Z M 28.410156 50.789062 L 28.410156 59.371094 C 28.410156 60.371094 29.222656 61.183594 30.234375 61.183594 L 33.875 61.183594 C 34.878906 61.183594 35.695312 60.375 35.695312 59.371094 L 35.695312 50.789062 C 34.488281 51.023438 33.328125 51.191406 32.054688 51.191406 C 30.816406 51.191406 29.585938 51.003906 28.414062 50.789062 Z M 28.410156 50.789062 "/>
<path style=" stroke:none;fill-rule:nonzero;fill:url(#linear0);fill-opacity:1;" d="M 32.011719 12.867188 C 21.28125 12.867188 12.59375 21.613281 12.59375 32.203125 C 12.59375 42.792969 21.28125 51.46875 32.011719 51.46875 C 42.742188 51.46875 51.496094 42.800781 51.496094 32.203125 C 51.496094 21.613281 42.726562 12.867188 32.011719 12.867188 Z M 32.011719 20.03125 C 38.710938 20.03125 44.117188 25.445312 44.117188 32.203125 C 44.117188 38.964844 38.710938 44.296875 32.011719 44.296875 C 25.316406 44.296875 19.902344 38.972656 19.902344 32.203125 C 19.902344 25.445312 25.316406 20.03125 32.011719 20.03125 Z M 32.011719 20.03125 "/>
</g>
</svg>
