<svg xmlns="http://www.w3.org/2000/svg" xmlns:xlink="http://www.w3.org/1999/xlink" width="64" height="64" viewBox="0 0 64 64" version="1.1">
<defs>
<linearGradient id="linear0" gradientUnits="userSpaceOnUse" x1="0" y1="0" x2="0" y2="1" gradientTransform="matrix(64,0,0,63.90625,0,0.046875)">
<stop offset="0" style="stop-color:#ff6666;stop-opacity:1;"/>
<stop offset="1" style="stop-color:#d90000;stop-opacity:1;"/>
</linearGradient>
</defs>
<g id="surface1">
<path style=" stroke:none;fill-rule:nonzero;fill:url(#linear0);" d="M 59.382812 0.046875 C 58.234375 0.0585938 57.15625 0.519531 56.546875 1.449219 L 46.835938 19.710938 C 47.554688 19.960938 49.175781 20.679688 54.546875 23.109375 L 54.628906 23.148438 C 55.554688 23.566406 56.269531 23.867188 56.546875 23.988281 C 56.644531 24.03125 56.730469 24.105469 56.828125 24.148438 L 63.902344 4.5625 C 64.34375 3.015625 63.234375 1.230469 61.464844 0.527344 C 60.820312 0.207031 60.109375 0.0429688 59.386719 0.046875 Z M 5.117188 10.238281 C 2.292969 10.238281 0 12.53125 0 15.355469 C 0 18.175781 2.292969 20.472656 5.117188 20.472656 C 7.9375 20.472656 10.230469 18.175781 10.230469 15.355469 C 10.230469 12.53125 7.9375 10.238281 5.117188 10.238281 Z M 16.625 14.074219 C 15.210938 14.074219 14.066406 15.21875 14.066406 16.632812 C 14.066406 18.046875 15.210938 19.191406 16.625 19.191406 C 18.035156 19.191406 19.183594 18.046875 19.183594 16.632812 C 19.183594 15.21875 18.035156 14.074219 16.625 14.074219 Z M 41.121094 21.269531 C 38.648438 21.457031 36.496094 22.683594 34.96875 24.824219 C 35.933594 26.453125 37.621094 28.433594 40.003906 28.382812 C 40.628906 28.367188 41.167969 28.808594 41.28125 29.421875 C 41.769531 30.175781 44.742188 31.515625 45.597656 31.179688 C 45.953125 31.039062 46.347656 31.070312 46.675781 31.261719 C 47.011719 31.453125 47.253906 31.761719 47.316406 32.140625 C 47.367188 32.347656 47.925781 33.085938 49.074219 33.617188 C 49.980469 34.035156 50.859375 34.144531 51.351562 33.894531 C 51.664062 33.742188 52.027344 33.726562 52.351562 33.859375 C 52.683594 33.984375 52.976562 34.246094 53.113281 34.574219 C 53.976562 36.683594 57.921875 36.839844 60.625 36.617188 C 61.019531 34.902344 60.90625 33.113281 60.304688 31.460938 C 59.460938 29.175781 57.789062 27.371094 55.507812 26.34375 C 55.269531 26.238281 54.492188 25.871094 53.511719 25.425781 C 48.957031 23.367188 46.382812 22.246094 45.875 22.109375 C 44.207031 21.449219 42.605469 21.160156 41.121094 21.269531 Z M 14.707031 23.027344 C 10.824219 23.03125 7.679688 26.179688 7.671875 30.058594 C 7.671875 33.9375 10.832031 37.097656 14.707031 37.097656 C 18.585938 37.097656 21.738281 33.9375 21.738281 30.058594 C 21.738281 26.183594 18.585938 23.027344 14.707031 23.027344 Z M 33.609375 27.382812 C 33.214844 28.300781 32.777344 29.191406 32.289062 30.058594 C 32.839844 31.398438 34.464844 34.503906 37.445312 33.820312 C 37.785156 33.730469 38.148438 33.789062 38.445312 33.980469 C 38.738281 34.171875 38.902344 34.472656 38.964844 34.816406 C 39.046875 35.296875 39.613281 35.863281 40.402344 36.296875 C 41.519531 36.898438 42.730469 37.035156 43.238281 36.816406 C 43.566406 36.664062 43.949219 36.664062 44.28125 36.816406 C 44.609375 36.972656 44.855469 37.265625 44.957031 37.617188 C 45.136719 38.222656 45.769531 38.847656 46.636719 39.292969 C 47.660156 39.8125 48.832031 40 49.59375 39.730469 C 50.179688 39.523438 50.828125 39.78125 51.113281 40.332031 C 52.238281 42.425781 55.949219 42.648438 58.824219 42.449219 C 59.1875 41.410156 59.527344 40.339844 59.863281 39.210938 C 59.519531 39.230469 59.160156 39.253906 58.785156 39.253906 C 56.109375 39.253906 52.902344 38.722656 51.3125 36.535156 C 50.230469 36.679688 48.992188 36.445312 47.757812 35.816406 C 46.855469 35.355469 45.867188 34.652344 45.277344 33.777344 C 43.648438 33.777344 41.777344 32.871094 40.84375 32.300781 C 40.117188 31.855469 39.550781 31.414062 39.203125 30.941406 C 36.667969 30.703125 34.851562 29.050781 33.609375 27.382812 Z M 30.691406 32.578125 C 22.765625 43.597656 9.226562 43.273438 9.070312 43.246094 C 8.558594 43.207031 8.070312 43.476562 7.832031 43.933594 C 7.589844 44.375 7.636719 44.929688 7.953125 45.328125 C 10.109375 47.984375 12.53125 50.40625 15.183594 52.5625 C 16.363281 52.796875 23.785156 53.84375 31.132812 45.328125 C 31.351562 45.070312 31.667969 44.921875 32.003906 44.894531 C 32.34375 44.871094 32.675781 44.988281 32.929688 45.207031 C 33.464844 45.667969 33.507812 46.472656 33.046875 47.007812 C 27.925781 52.949219 22.519531 54.804688 18.742188 55.199219 C 21.667969 57.164062 24.789062 58.824219 28.050781 60.15625 C 29.945312 59.761719 36.277344 57.867188 41.878906 49.324219 C 42.273438 48.734375 43.089844 48.535156 43.679688 48.925781 C 44.269531 49.316406 44.429688 50.132812 44.039062 50.722656 C 39.8125 57.160156 35.1875 60.183594 31.929688 61.59375 C 38.578125 63.746094 43.539062 63.9375 43.960938 63.953125 L 44 63.953125 C 44.238281 63.953125 44.476562 63.878906 44.679688 63.753906 C 45.035156 63.527344 52.441406 58.691406 57.867188 45.089844 C 57.65625 45.09375 57.441406 45.128906 57.226562 45.128906 C 54.429688 45.128906 51.195312 44.5625 49.433594 42.371094 C 48.195312 42.519531 46.777344 42.234375 45.480469 41.570312 C 44.421875 41.027344 43.578125 40.300781 43.039062 39.457031 C 41.679688 39.566406 40.210938 39.078125 39.203125 38.535156 C 38.164062 37.972656 37.351562 37.261719 36.882812 36.457031 C 33.945312 36.613281 31.898438 34.609375 30.691406 32.578125 Z M 30.691406 32.578125 "/>
</g>
</svg>
