<svg xmlns="http://www.w3.org/2000/svg" xmlns:xlink="http://www.w3.org/1999/xlink" width="64" height="64" viewBox="0 0 64 64" version="1.1">
<defs>
<linearGradient id="linear0" gradientUnits="userSpaceOnUse" x1="0" y1="0" x2="0" y2="1" gradientTransform="matrix(64,0,0,64,0,0)">
<stop offset="0" style="stop-color:#ff6666;stop-opacity:1;"/>
<stop offset="1" style="stop-color:#d90000;stop-opacity:1;"/>
</linearGradient>
</defs>
<g id="surface1">
<path style=" stroke:none;fill-rule:nonzero;fill:url(#linear0);" d="M 32 0 C 14.34375 0 0 14.34375 0 32 C 0 49.65625 14.34375 64 32 64 C 49.65625 64 64 49.65625 64 32 C 64 14.34375 49.65625 0 32 0 Z M 31.839844 4.007812 L 31.761719 6.476562 L 35.421875 7.023438 L 37.890625 4.632812 C 40.300781 5.152344 42.632812 5.996094 44.820312 7.132812 L 43.960938 8.515625 L 46.398438 10.675781 L 43.960938 12.714844 L 44.910156 15.15625 L 50.335938 12.578125 L 53.726562 15.15625 L 53.902344 14.601562 C 54.640625 15.527344 55.304688 16.507812 55.921875 17.519531 L 52.5 18.140625 L 50.46875 15.96875 L 44.234375 16.375 L 40.4375 22.34375 L 43.015625 28.710938 L 51.421875 31.289062 L 53.046875 41.1875 L 55.074219 46.335938 L 56.507812 45.523438 C 51.582031 54.449219 42.195312 59.996094 32 60 C 16.550781 60 4 47.449219 4 32 C 4 28.753906 4.578125 25.644531 5.601562 22.742188 L 5.734375 23.289062 L 10.070312 24.507812 L 15.765625 28.707031 L 15.898438 34.8125 L 19.5625 39.828125 L 21.722656 53.386719 L 25.65625 55.828125 L 24.574219 50.8125 L 31.214844 41.59375 L 34.0625 35.359375 L 27.425781 29.121094 L 20.234375 25.734375 L 17.257812 27.492188 L 13.726562 22.203125 L 11.695312 23.15625 L 9.9375 20.171875 L 13.054688 18.546875 L 16.03125 20.308594 L 21.1875 13.9375 L 28.640625 9.328125 L 26.609375 5.527344 L 20.507812 7.703125 L 19.746094 6.859375 C 23.511719 5.007812 27.648438 4.035156 31.84375 4.007812 Z M 31.839844 4.007812 "/>
</g>
</svg>
