<svg xmlns="http://www.w3.org/2000/svg" xmlns:xlink="http://www.w3.org/1999/xlink" width="64" height="64" viewBox="0 0 64 64" version="1.1">
<defs> <linearGradient id="linear0" gradientUnits="userSpaceOnUse" x1="0" y1="0" x2="0" y2="1" gradientTransform="matrix(55.992188,0,0,56,4.003906,4)"> <stop offset="0" style="stop-color:#ff6666;stop-opacity:1;"/> <stop offset="1" style="stop-color:#d90000;stop-opacity:1;"/> </linearGradient> </defs>
<g id="surface1">
<path style=" stroke:none;fill-rule:nonzero;fill:url(#linear0);fill-opacity:0.435294;" d="M 32.1875 -8.261719 C 10.550781 -8.261719 -7.140625 8.636719 -8.445312 29.972656 C -8.039062 30.96875 -7.101562 31.636719 -6.566406 32.613281 L -6.3125 34.984375 L -5.878906 32.789062 L -1.136719 34.792969 L 2.144531 37.851562 L 4.957031 38.265625 C 3.949219 40.554688 1.917969 44.246094 2.285156 46.808594 C 2.503906 48.296875 4.007812 50.417969 4.871094 51.628906 C 6.082031 53.320312 8.359375 54.320312 8.964844 56.445312 L 9.0625 59.953125 L 9.71875 62.582031 C 9.613281 63.503906 8.886719 64.980469 9.027344 66.050781 C 10.890625 67.34375 12.867188 68.480469 14.933594 69.453125 C 15.296875 69.109375 15.25 68.367188 14.921875 67.839844 L 16.523438 65.609375 L 18.5625 64.09375 L 19.992188 59.09375 L 23.078125 57.078125 C 24.339844 55.171875 23.425781 53.585938 23.894531 51.628906 L 25.972656 45.710938 C 23.621094 44.828125 20.261719 43.738281 18.601562 41.769531 L 18.171875 41.992188 L 17.734375 40.023438 L 15.136719 38.707031 L 14.707031 39.140625 L 14.054688 36.082031 L 10.589844 35.792969 L 7.984375 34.363281 C 6.863281 34.203125 5.375 36.054688 4.957031 36.953125 L 3.433594 36.738281 L 3.871094 36.296875 L 2.570312 35.414062 L 2.785156 36.296875 C 1.855469 35.316406 1.691406 34.085938 1.917969 32.785156 L 0.40625 32.128906 L 0.183594 32.785156 C -0.0859375 31.703125 0.0273438 30.300781 0.839844 29.503906 C -0.355469 28.683594 -1.148438 29.453125 -1.976562 30.378906 L -3.714844 26.875 C -4.191406 27.949219 -4.015625 29.023438 -3.925781 30.160156 L -4.367188 30.160156 C -4.460938 28.933594 -4.761719 27.59375 -4.140625 26.4375 C -2.996094 24.277344 0.453125 23.367188 2.570312 23.808594 L 2.347656 24.246094 L 4.304688 26.003906 C 4.308594 22.648438 5.613281 22.300781 7.449219 19.863281 L 8.726562 17.507812 C 10.144531 15.925781 12.355469 14.851562 14.257812 14.136719 L 16.648438 12.640625 C 15.875 11.289062 13.84375 11.671875 12.539062 11.761719 C 14.886719 10.410156 18.074219 11.140625 19.6875 8.699219 C 17.933594 7.410156 17.933594 4.039062 15.136719 5.410156 L 15.570312 4.101562 L 13.183594 2.996094 L 11.445312 6.660156 L 9.066406 9.570312 L 8.851562 8.042969 C 7.9375 7.613281 5.414062 6.855469 5.363281 5.625 C 5.308594 4.292969 9.386719 2.277344 10.375 1.46875 L 9.9375 2.5625 L 11.617188 2.402344 C 11.96875 2.175781 15.347656 -2.640625 15.78125 0.367188 C 18.132812 1.273438 18.398438 2.300781 20.765625 0.8125 L 19.253906 0.148438 C 19.015625 -2.011719 17.121094 -2.035156 15.347656 -2.035156 L 20.980469 -4.664062 C 21.613281 -3.109375 23.578125 -2.792969 24.214844 -1.359375 C 24.667969 -0.339844 23.328125 0.269531 23.363281 1.25 C 23.402344 2.453125 24.558594 3.925781 25.105469 4.972656 L 28.359375 1.375 C 30.160156 0.402344 33.054688 0.292969 34.488281 -1.265625 C 36.144531 -3.082031 35.230469 -5.964844 38.320312 -5.976562 C 37.695312 -6.25 36.683594 -6.449219 36.152344 -5.976562 L 35.496094 -6.640625 L 36.367188 -6.640625 C 35.917969 -7.265625 35.609375 -7.605469 34.855469 -7.738281 C 34.679688 -7.957031 34.445312 -8.105469 34.195312 -8.210938 C 33.53125 -8.246094 32.863281 -8.261719 32.1875 -8.261719 M 51.097656 -1.820312 C 50.335938 -1.195312 49.046875 -0.875 48.070312 -0.722656 L 46.300781 1.734375 L 44.238281 3.472656 C 43.902344 4.269531 44.4375 5.480469 44.59375 6.28125 L 46.765625 5.191406 C 47.078125 6.277344 47.921875 6.558594 48.71875 7.160156 C 50 4.695312 48.894531 2.339844 51.964844 1.023438 L 50.011719 3.4375 L 50.667969 2.996094 L 50.882812 4.308594 L 51.097656 2.5625 C 51.671875 4.535156 51.074219 7.25 48.933594 7.996094 L 46.765625 7.816406 L 46.765625 6.503906 C 45.53125 6.765625 45.578125 7.386719 45.902344 8.476562 C 45.066406 8.234375 44.566406 8.273438 43.953125 8.914062 C 43.289062 8.222656 42.75 7.703125 42.652344 6.722656 C 42.234375 6.300781 42.046875 6.011719 42 5.410156 L 40.484375 5.191406 L 41.132812 8.699219 C 40.550781 7.601562 39.957031 7.328125 38.75 7.59375 L 39.40625 10.226562 L 40.269531 10.011719 L 39.621094 9.789062 L 40.484375 8.25 L 40.914062 10.664062 L 42.867188 10.226562 C 42.324219 10.75 41.886719 10.878906 41.132812 10.878906 L 41.351562 11.535156 L 40.269531 11.535156 L 41.785156 14.167969 C 38.234375 14.195312 38.195312 16.03125 38.320312 18.984375 C 39.011719 19.035156 39.347656 19.144531 39.832031 19.648438 C 42.699219 18.113281 43.363281 15.28125 46.765625 14.386719 C 47.316406 16.125 49.023438 16.023438 48.503906 18.113281 C 50.171875 17.769531 50.644531 16.34375 49.582031 15.042969 C 51.007812 15.902344 51.414062 17.660156 52.398438 18.984375 C 53.085938 18.070312 52.824219 17.023438 53.921875 16.359375 L 53.921875 17.015625 C 55.753906 18.664062 57.019531 19.035156 59.339844 19.867188 C 58.539062 21.007812 57.578125 22.125 56.082031 22.027344 C 54.253906 21.914062 51.921875 20.105469 50.667969 22.269531 L 47.179688 19.476562 C 45.25 18.652344 43.347656 19.433594 41.351562 19.207031 L 40.484375 19.640625 L 40.914062 19.867188 C 36.945312 21.671875 34.742188 26.425781 34.332031 30.375 L 33.574219 33.003906 C 34 35.570312 36.152344 38.230469 37.957031 39.976562 C 39.230469 41.203125 40.144531 38.800781 41.351562 40.015625 C 42.953125 39.40625 45.375 38.335938 46.839844 40.046875 C 47.804688 41.171875 46.796875 42.105469 47.132812 43.304688 C 47.714844 45.382812 49.09375 47.820312 49.085938 50.09375 L 48.546875 55.570312 C 49.023438 58.902344 50.851562 61.710938 50.882812 65.210938 C 53.539062 64.933594 56.527344 63.582031 57.996094 61.265625 L 58.632812 59.3125 L 59.730469 57.960938 L 59.316406 55.808594 C 59.933594 54.304688 62.445312 54.140625 62.820312 52.5 C 63.335938 50.257812 61.988281 47.605469 62.789062 45.277344 C 64.027344 41.679688 67.46875 39.042969 67.566406 34.976562 L 64.964844 35.199219 C 67.304688 32.296875 72.257812 30.839844 69.730469 26.433594 L 68.652344 27.75 L 68.21875 27.75 C 67.378906 25.976562 66.050781 25.789062 66.050781 23.589844 C 68.078125 25.351562 70.179688 25.402344 72.117188 27.53125 C 72.292969 27.433594 72.4375 27.308594 72.558594 27.164062 C 71.078125 15.839844 64.960938 5.984375 56.175781 -0.441406 C 54.523438 -0.605469 52.570312 -0.84375 51.535156 -1.816406 L 51.097656 -1.816406 L 51.097656 -1.828125 "/>
<path style=" stroke:none;fill-rule:nonzero;fill:url(#linear0);fill-opacity:1;" d="M 31.714844 9.796875 C 31.625 9.851562 31.074219 11.910156 30.472656 14.484375 C 29.851562 17.140625 29.261719 19.421875 29.152344 19.542969 C 29.132812 19.574219 29.085938 19.605469 29.023438 19.640625 C 24.230469 20.714844 20.441406 24.441406 19.3125 29.199219 C 19.3125 29.203125 19.308594 29.214844 19.308594 29.222656 C 19.101562 29.714844 18.941406 29.796875 18.484375 29.917969 C 18.113281 30.011719 15.972656 30.511719 13.722656 31.023438 C 11.476562 31.539062 9.574219 32.015625 9.5 32.082031 C 9.425781 32.152344 11.429688 32.683594 13.953125 33.265625 C 16.472656 33.847656 18.703125 34.417969 18.910156 34.542969 C 19.023438 34.609375 19.160156 34.804688 19.289062 35.058594 C 20.402344 39.894531 24.253906 43.6875 29.136719 44.734375 C 29.746094 45.136719 29.828125 45.734375 30.308594 47.742188 C 30.675781 49.28125 31.199219 51.519531 31.472656 52.714844 C 31.839844 54.324219 32.015625 54.789062 32.125 54.523438 C 32.203125 54.324219 32.726562 52.203125 33.277344 49.816406 C 33.832031 47.425781 34.351562 45.320312 34.429688 45.136719 C 34.496094 44.976562 34.84375 44.773438 35.421875 44.523438 C 39.632812 43.324219 42.960938 40.050781 44.21875 35.882812 C 44.273438 35.71875 44.316406 35.550781 44.355469 35.386719 C 44.316406 35.554688 44.273438 35.71875 44.21875 35.882812 C 44.394531 35.339844 44.640625 34.855469 44.78125 34.804688 C 44.929688 34.746094 47.183594 34.210938 49.796875 33.605469 C 52.410156 33 54.574219 32.480469 54.605469 32.445312 C 54.691406 32.359375 53.984375 32.179688 49.273438 31.09375 C 47.078125 30.585938 45.125 30.109375 44.9375 30.035156 C 44.804688 29.984375 44.640625 29.734375 44.449219 29.335938 C 44.449219 29.328125 44.441406 29.328125 44.441406 29.328125 C 43.3125 24.335938 39.261719 20.449219 34.175781 19.535156 C 34.128906 19.484375 34.09375 19.425781 34.070312 19.371094 C 33.980469 19.15625 33.441406 16.945312 32.875 14.453125 C 32.304688 11.964844 31.789062 9.867188 31.722656 9.796875 C 31.722656 9.789062 31.722656 9.796875 31.714844 9.796875 M 31.863281 19.324219 C 32.085938 19.324219 32.3125 19.328125 32.527344 19.339844 C 32.304688 19.328125 32.085938 19.324219 31.863281 19.324219 C 31.6875 19.324219 31.503906 19.328125 31.328125 19.335938 C 31.503906 19.328125 31.6875 19.324219 31.863281 19.324219 M 31.085938 19.351562 C 30.902344 19.363281 30.726562 19.375 30.546875 19.390625 C 30.386719 19.410156 30.226562 19.425781 30.070312 19.449219 C 30.226562 19.425781 30.386719 19.410156 30.546875 19.390625 C 30.726562 19.375 30.902344 19.363281 31.085938 19.351562 M 31.863281 22.761719 C 37.082031 22.761719 41.3125 26.976562 41.3125 32.171875 C 41.3125 37.371094 37.082031 41.582031 31.863281 41.582031 C 26.644531 41.582031 22.414062 37.371094 22.414062 32.171875 C 22.414062 26.976562 26.644531 22.761719 31.863281 22.761719 M 19.023438 30.914062 C 19.003906 31.074219 18.996094 31.238281 18.984375 31.410156 C 18.996094 31.238281 19.003906 31.074219 19.023438 30.914062 M 44.703125 30.929688 C 44.71875 31.09375 44.730469 31.257812 44.742188 31.421875 C 44.730469 31.257812 44.71875 31.09375 44.703125 30.929688 M 18.976562 31.566406 C 18.964844 31.765625 18.960938 31.96875 18.960938 32.171875 C 18.960938 32.359375 18.972656 32.550781 18.976562 32.738281 C 18.972656 32.550781 18.960938 32.359375 18.960938 32.171875 C 18.960938 31.96875 18.964844 31.765625 18.976562 31.566406 M 44.753906 31.628906 C 44.761719 31.8125 44.765625 31.992188 44.765625 32.171875 C 44.765625 31.992188 44.761719 31.8125 44.753906 31.628906 M 18.984375 32.914062 C 18.996094 33.101562 19.011719 33.289062 19.027344 33.472656 C 19.011719 33.289062 18.996094 33.101562 18.984375 32.914062 M 44.742188 32.929688 C 44.730469 33.117188 44.714844 33.296875 44.699219 33.484375 C 44.679688 33.636719 44.664062 33.789062 44.640625 33.945312 C 44.664062 33.789062 44.679688 33.636719 44.699219 33.484375 C 44.714844 33.296875 44.730469 33.117188 44.742188 32.929688 M 44.582031 34.316406 C 44.566406 34.429688 44.542969 34.542969 44.519531 34.65625 C 44.542969 34.542969 44.566406 34.429688 44.582031 34.316406 M 30.546875 44.953125 C 30.75 44.976562 30.953125 44.992188 31.164062 45.003906 C 30.953125 44.992188 30.75 44.976562 30.546875 44.953125 M 31.199219 45.003906 C 31.421875 45.015625 31.640625 45.023438 31.863281 45.023438 C 32.074219 45.023438 32.28125 45.015625 32.492188 45.003906 C 32.28125 45.015625 32.074219 45.023438 31.863281 45.023438 C 31.640625 45.023438 31.421875 45.015625 31.199219 45.003906 "/>
<path style=" stroke:none;fill-rule:nonzero;fill:url(#linear0);fill-opacity:1;" d="M 28.65625 29.085938 C 35.457031 23.617188 28.636719 29.078125 35.441406 23.632812 C 53.574219 8.875 35.519531 23.652344 53.589844 8.820312 C 37.445312 31.566406 42.328125 24.820312 37.378906 31.710938 C 36.054688 33.554688 34.871094 35.058594 34.746094 35.058594 C 28.632812 29.128906 34.726562 35.039062 28.65625 29.085938 "/>
<path style=" stroke:none;fill-rule:nonzero;fill:url(#linear0);fill-opacity:1;" d="M 34.953125 34.933594 C 28.222656 40.492188 34.976562 34.9375 28.238281 40.476562 C 10.304688 55.472656 28.160156 40.457031 10.289062 55.523438 C 26.128906 32.570312 21.335938 39.378906 26.195312 32.421875 C 27.496094 30.566406 28.660156 29.046875 28.785156 29.039062 C 34.976562 34.886719 28.800781 29.0625 34.953125 34.933594 "/>
</g>
</svg>
