<svg xmlns="http://www.w3.org/2000/svg" xmlns:xlink="http://www.w3.org/1999/xlink" width="64" height="64" viewBox="0 0 64 64" version="1.1">
<defs>
<linearGradient id="linear0" gradientUnits="userSpaceOnUse" x1="0" y1="0" x2="0" y2="1" gradientTransform="matrix(64,0,0,64,0,0)">
<stop offset="0" style="stop-color:#ff6666;stop-opacity:1;"/>
<stop offset="1" style="stop-color:#d90000;stop-opacity:1;"/>
</linearGradient>
</defs>
<g id="surface1">
<path style=" stroke:none;fill-rule:nonzero;fill:url(#linear0);" d="M 31.679688 0 C 29.382812 0.0078125 27.089844 0.257812 24.835938 0.757812 C 16.738281 2.550781 9.738281 7.507812 4.726562 14.984375 C 2.605469 18.160156 0.675781 22.570312 0.675781 24.261719 C 0.675781 25.707031 2.351562 26.457031 3.472656 25.511719 C 3.730469 25.292969 3.992188 24.886719 4.054688 24.609375 C 4.625 21.992188 6.632812 18.058594 8.960938 15.007812 C 10.902344 12.457031 14.46875 9.238281 17.214844 7.550781 C 25.804688 2.277344 37.527344 2.171875 46.171875 7.289062 C 51.585938 10.492188 56.011719 15.8125 58.609375 22.230469 C 59.171875 23.625 60.097656 26.679688 60.097656 27.148438 C 60.097656 27.285156 59.269531 26.570312 58.253906 25.570312 C 56.046875 23.394531 55.828125 23.238281 54.96875 23.238281 C 54.015625 23.238281 53.351562 23.851562 53.238281 24.835938 C 53.195312 25.230469 53.21875 25.667969 53.296875 25.800781 C 53.460938 26.089844 60.460938 33.171875 61.015625 33.609375 C 61.574219 34.046875 62.617188 34.003906 63.199219 33.515625 C 63.96875 32.867188 64.070312 32.402344 63.964844 30.09375 C 63.5625 21.472656 58.167969 11.699219 50.730469 6.121094 C 45.398438 2.121094 38.558594 -0.0195312 31.679688 0 Z M 0 31.566406 L 0.0976562 33.796875 C 0.257812 37.59375 1.328125 41.5 3.328125 45.59375 C 7.359375 53.839844 13.976562 59.804688 22.003906 62.433594 C 24.332031 63.191406 26.035156 63.546875 29.132812 63.914062 C 30.460938 64.074219 34.714844 63.996094 36.371094 63.78125 C 45.777344 62.558594 54.089844 57.128906 59.597656 48.605469 C 61.378906 45.84375 63.125 41.84375 63.339844 40.011719 C 63.425781 39.296875 63.394531 39.214844 62.875 38.695312 C 62.40625 38.226562 62.210938 38.140625 61.640625 38.144531 C 60.566406 38.148438 60.308594 38.460938 59.605469 40.570312 C 57.195312 47.800781 51.363281 54.425781 44.480469 57.761719 C 38.898438 60.460938 32.53125 61.210938 26.152344 59.925781 C 18.90625 58.46875 12.636719 54.058594 8.316406 47.390625 C 6.691406 44.882812 4.996094 41.117188 4.363281 38.613281 C 4.21875 38.050781 4.066406 37.449219 4.019531 37.277344 C 3.972656 37.105469 4.886719 37.90625 6.058594 39.058594 L 8.1875 41.160156 L 8.992188 41.085938 C 10.085938 40.976562 10.566406 40.496094 10.671875 39.390625 L 10.746094 38.578125 L 2.628906 30.453125 C 2.628906 30.453125 1.855469 29.9375 0.902344 30.363281 C -0.0507812 30.789062 0 31.5625 0 31.5625 Z M 0 31.566406 "/>
</g>
</svg>
