<svg xmlns="http://www.w3.org/2000/svg" xmlns:xlink="http://www.w3.org/1999/xlink" width="64" height="64" viewBox="0 0 64 64" version="1.1">
<defs> <linearGradient id="linear0" gradientUnits="userSpaceOnUse" x1="0" y1="0" x2="0" y2="1" gradientTransform="matrix(55.992188,0,0,56,4.003906,4)"> <stop offset="0" style="stop-color:#ff6666;stop-opacity:1;"/> <stop offset="1" style="stop-color:#d90000;stop-opacity:1;"/> </linearGradient> </defs>
<g id="surface1">
<path style=" stroke:none;fill-rule:evenodd;fill:url(#linear0);fill-opacity:1;" d="M 14.53125 8.527344 C 8.800781 8.527344 4.15625 13.152344 4.15625 18.859375 C 4.15625 24.566406 8.800781 29.191406 14.53125 29.191406 C 20.261719 29.191406 24.90625 24.566406 24.90625 18.859375 C 24.90625 13.152344 20.261719 8.527344 14.53125 8.527344 M 49.582031 9.046875 C 43.851562 9.046875 39.207031 13.675781 39.207031 19.378906 C 39.207031 25.085938 43.851562 29.707031 49.582031 29.707031 C 55.3125 29.707031 59.957031 25.085938 59.957031 19.378906 C 59.957031 13.675781 55.3125 9.046875 49.582031 9.046875 M 31.289062 28.023438 C 27.738281 28.0625 25.878906 29.492188 23.488281 30.480469 C 19.539062 43.394531 31.410156 48.878906 32.574219 55.820312 C 34.277344 49.253906 43.949219 41.617188 41.660156 30.480469 C 36.933594 28.621094 33.71875 27.992188 31.289062 28.023438 "/>
<path style=" stroke:none;fill-rule:evenodd;fill:rgb(15.686275%,14.901961%,16.078432%);fill-opacity:1;" d="M 49.097656 16.535156 C 49.097656 18.695312 47.339844 20.449219 45.167969 20.449219 C 43 20.449219 41.238281 18.695312 41.238281 16.535156 C 41.238281 14.375 42.992188 12.621094 45.167969 12.621094 C 47.339844 12.621094 49.097656 14.375 49.097656 16.535156 "/>
<path style=" stroke:none;fill-rule:evenodd;fill:rgb(15.686275%,14.901961%,16.078432%);fill-opacity:1;" d="M 22.875 16.015625 C 22.875 18.175781 21.117188 19.929688 18.941406 19.929688 C 16.773438 19.929688 15.019531 18.175781 15.011719 16.015625 C 15.011719 13.855469 16.773438 12.101562 18.941406 12.101562 C 21.117188 12.101562 22.878906 13.855469 22.875 16.015625 "/>
</g>
</svg>
