<svg xmlns="http://www.w3.org/2000/svg" xmlns:xlink="http://www.w3.org/1999/xlink" width="64" height="64" viewBox="0 0 64 64" version="1.1">
<defs>
<linearGradient id="linear0" gradientUnits="userSpaceOnUse" x1="0" y1="0" x2="0" y2="1" gradientTransform="matrix(58.515625,0,0,64,2.742188,0)">
<stop offset="0" style="stop-color:#ff6666;stop-opacity:1;"/>
<stop offset="1" style="stop-color:#d90000;stop-opacity:1;"/>
</linearGradient>
</defs>
<g id="surface1">
<path style=" stroke:none;fill-rule:evenodd;fill:url(#linear0);" d="M 9.929688 5.484375 L 9.929688 11.199219 L 19.199219 11.199219 L 19.199219 16.457031 L 9.929688 16.457031 L 9.929688 29.257812 L 2.742188 29.257812 L 2.742188 0 L 21.027344 0 L 21.027344 5.484375 Z M 37.628906 3.949219 C 37.601562 4.09375 37.542969 4.34375 37.457031 4.707031 C 37.382812 5.066406 37.289062 5.480469 37.171875 5.945312 C 37.054688 6.402344 36.929688 6.910156 36.785156 7.460938 C 36.652344 7.996094 36.515625 8.523438 36.371094 9.042969 L 33.664062 18.285156 L 41.59375 18.285156 L 38.886719 9.042969 C 38.742188 8.523438 38.597656 7.996094 38.453125 7.460938 C 38.324219 6.910156 38.199219 6.402344 38.085938 5.945312 C 37.96875 5.480469 37.867188 5.066406 37.78125 4.707031 Z M 18.261719 49.144531 C 18.261719 47.453125 18.101562 46.011719 17.785156 44.828125 C 17.464844 43.628906 16.980469 42.652344 16.332031 41.898438 C 15.695312 41.132812 14.890625 40.574219 13.90625 40.226562 C 12.929688 39.867188 11.777344 39.6875 10.449219 39.6875 L 10.183594 39.6875 L 10.183594 59.054688 L 11.332031 59.054688 C 13.671875 59.054688 15.40625 58.230469 16.546875 56.585938 C 17.6875 54.921875 18.261719 52.441406 18.261719 49.144531 Z M 50.285156 59.683594 C 49.757812 60.132812 49.136719 60.613281 48.425781 61.117188 C 47.722656 61.621094 46.9375 62.09375 46.054688 62.527344 C 45.191406 62.949219 44.246094 63.300781 43.226562 63.578125 C 42.210938 63.859375 41.125 64 39.964844 64 C 37.996094 64 36.28125 63.636719 34.8125 62.902344 C 33.359375 62.160156 32.152344 61.136719 31.191406 59.832031 C 30.226562 58.527344 29.507812 56.976562 29.03125 55.179688 C 28.570312 53.371094 28.34375 51.390625 28.34375 49.242188 C 28.34375 46.898438 28.570312 44.832031 29.03125 43.035156 C 29.496094 41.222656 30.199219 39.710938 31.148438 38.488281 C 32.113281 37.257812 33.328125 36.320312 34.792969 35.6875 C 36.257812 35.058594 38.003906 34.742188 40.027344 34.742188 C 41.421875 34.742188 42.644531 34.933594 43.691406 35.3125 C 44.753906 35.6875 45.664062 36.230469 46.433594 36.933594 C 47.214844 37.621094 47.871094 38.449219 48.398438 39.414062 C 48.933594 40.382812 49.363281 41.457031 49.699219 42.636719 L 43.964844 43.773438 C 43.585938 42.367188 43.066406 41.332031 42.410156 40.65625 C 41.757812 39.96875 40.984375 39.628906 40.089844 39.628906 C 39.085938 39.628906 38.230469 39.835938 37.535156 40.257812 C 36.835938 40.664062 36.273438 41.277344 35.839844 42.089844 C 35.402344 42.886719 35.09375 43.890625 34.894531 45.101562 C 34.699219 46.292969 34.605469 47.671875 34.605469 49.242188 C 34.605469 52.375 35.070312 54.789062 36.007812 56.484375 C 36.941406 58.183594 38.363281 59.03125 40.277344 59.03125 C 40.808594 59.03125 41.304688 58.976562 41.765625 58.863281 C 42.238281 58.734375 42.65625 58.597656 43.019531 58.445312 C 43.394531 58.277344 43.71875 58.109375 43.984375 57.941406 C 44.265625 57.757812 44.480469 57.601562 44.632812 57.476562 L 44.632812 53.027344 L 39.316406 53.027344 L 39.316406 47.695312 L 50.285156 47.695312 Z M 50.945312 29.257812 L 44.566406 29.257812 L 42.941406 23.773438 L 32.320312 23.773438 L 30.6875 29.257812 L 24.292969 29.257812 L 33.898438 0 L 41.359375 0 Z M 24.683594 49.144531 C 24.683594 51.570312 24.394531 53.710938 23.820312 55.5625 C 23.242188 57.414062 22.40625 58.96875 21.3125 60.226562 C 20.210938 61.46875 18.863281 62.40625 17.265625 63.042969 C 15.675781 63.679688 13.871094 64 11.851562 64 L 2.742188 64 L 2.742188 34.742188 L 10.554688 34.742188 C 12.835938 34.742188 14.851562 35.023438 16.617188 35.589844 C 18.371094 36.152344 19.851562 37.019531 21.050781 38.191406 C 22.246094 39.363281 23.148438 40.859375 23.757812 42.679688 C 24.375 44.488281 24.683594 46.644531 24.683594 49.144531 Z M 53.945312 34.738281 L 61.257812 34.738281 L 61.257812 64 L 53.945312 64 Z M 53.945312 34.738281 "/>
</g>
</svg>
