<svg xmlns="http://www.w3.org/2000/svg" xmlns:xlink="http://www.w3.org/1999/xlink" width="64" height="64" viewBox="0 0 64 64" version="1.1">
<defs>
<linearGradient id="linear0" gradientUnits="userSpaceOnUse" x1="0" y1="0" x2="0" y2="1" gradientTransform="matrix(64,0,0,64,0,0)">
<stop offset="0" style="stop-color:#ff6666;stop-opacity:1;"/>
<stop offset="1" style="stop-color:#d90000;stop-opacity:1;"/>
</linearGradient>
</defs>
<g id="surface1">
<path style=" stroke:none;fill-rule:nonzero;fill:url(#linear0);" d="M 26.070312 0 C 11.710938 0 0 12.183594 0 27.078125 C 0 41.972656 11.710938 54.15625 26.070312 54.15625 C 32.121094 54.15625 37.691406 51.976562 42.125 48.359375 L 55.851562 62.617188 C 56.742188 63.542969 58 64 59.257812 64 L 64 64 L 64 59.078125 C 64 57.773438 63.554688 56.464844 62.664062 55.539062 L 48.492188 40.8125 C 50.800781 36.777344 52.148438 32.089844 52.148438 27.078125 C 52.148438 24.386719 51.675781 21.84375 50.960938 19.382812 L 31.109375 40 L 26.070312 45.234375 L 21.039062 40 L 6.8125 25.234375 L 16.890625 14.765625 L 26.070312 24.304688 L 43.109375 6.617188 C 38.523438 2.5 32.566406 0 26.070312 0 Z M 26.070312 0 "/>
</g>
</svg>
