<svg xmlns="http://www.w3.org/2000/svg" xmlns:xlink="http://www.w3.org/1999/xlink" width="64" height="64" viewBox="0 0 64 64" version="1.1">
<defs>
<linearGradient id="linear0" gradientUnits="userSpaceOnUse" x1="0" y1="0" x2="0" y2="1" gradientTransform="matrix(64,0,0,57.601563,0,3.199219)">
<stop offset="0" style="stop-color:#ff6666;stop-opacity:1;"/>
<stop offset="1" style="stop-color:#d90000;stop-opacity:1;"/>
</linearGradient>
</defs>
<g id="surface1">
<path style=" stroke:none;fill-rule:nonzero;fill:url(#linear0);" d="M 32 3.199219 C 28.785156 3.253906 25.265625 4.015625 23.992188 5.421875 C 22.636719 6.914062 22.34375 9.015625 22.722656 11.34375 C 23.449219 15.78125 28.109375 21.222656 31.691406 26.117188 C 31.667969 26.148438 31.644531 26.1875 31.621094 26.214844 C 29.8125 28.496094 26.824219 31.113281 25.0625 32.878906 C 25.347656 31.589844 25.554688 30.183594 25.605469 29.289062 C 25.644531 28.519531 25.621094 27.925781 25.382812 27.4375 C 25.265625 27.191406 25.054688 26.957031 24.765625 26.859375 C 24.476562 26.769531 24.171875 26.832031 23.914062 26.957031 C 23.394531 27.199219 22.902344 27.695312 22.277344 28.488281 C 21.652344 29.28125 20.921875 30.605469 20.050781 32.058594 C 19.1875 33.515625 18.570312 34.683594 18.175781 35.613281 C 17.972656 36.089844 17.820312 36.503906 17.726562 36.867188 C 17.636719 37.207031 17.59375 37.515625 17.609375 37.792969 C 18.105469 38.46875 18.90625 38.367188 19.558594 38.410156 C 19.839844 38.40625 20.132812 38.359375 20.460938 38.160156 C 21.222656 37.691406 22.160156 36.953125 23.160156 36.089844 C 22.445312 38.476562 22.613281 39.183594 21.476562 41.859375 C 21.460938 41.898438 21.4375 41.9375 21.421875 41.972656 C 15.410156 41.144531 9.144531 41.671875 4.902344 43.148438 C 2.679688 43.925781 0.972656 45.648438 0.304688 47.554688 C -0.363281 49.460938 0.046875 52.84375 1.722656 55.847656 C 3.398438 58.851562 5.246094 60.230469 7.214844 60.660156 C 9.1875 61.089844 11.15625 60.527344 12.980469 59.035156 C 16.457031 56.191406 19.601562 48.632812 22.035156 43.070312 C 22.074219 43.078125 22.117188 43.078125 22.15625 43.089844 C 25.027344 43.515625 27.785156 45.902344 30.191406 46.546875 C 28.933594 46.949219 27.8125 47.359375 27.011719 47.769531 C 26.328125 48.117188 25.828125 48.441406 25.523438 48.882812 C 25.371094 49.109375 25.273438 49.40625 25.335938 49.703125 C 25.398438 50.003906 25.601562 50.226562 25.835938 50.390625 C 26.308594 50.71875 26.984375 50.90625 27.980469 51.054688 C 28.980469 51.199219 30.296875 51.289062 31.988281 51.3125 C 31.992188 51.3125 31.996094 51.3125 32 51.3125 C 32.003906 51.3125 32.007812 51.3125 32.011719 51.3125 C 33.703125 51.289062 35.019531 51.199219 36.019531 51.054688 C 37.015625 50.90625 37.691406 50.71875 38.164062 50.390625 C 38.398438 50.226562 38.601562 50.003906 38.664062 49.703125 C 38.726562 49.40625 38.628906 49.109375 38.476562 48.882812 C 38.171875 48.441406 37.671875 48.117188 36.988281 47.769531 C 36.1875 47.359375 35.066406 46.949219 33.808594 46.546875 C 36.214844 45.902344 38.972656 43.515625 41.84375 43.089844 C 41.882812 43.078125 41.925781 43.078125 41.964844 43.070312 C 44.398438 48.632812 47.542969 56.191406 51.019531 59.035156 C 52.84375 60.527344 54.8125 61.089844 56.785156 60.660156 C 58.753906 60.230469 60.601562 58.851562 62.277344 55.847656 C 63.953125 52.84375 64.363281 49.460938 63.695312 47.554688 C 63.027344 45.648438 61.320312 43.925781 59.097656 43.148438 C 54.855469 41.671875 48.589844 41.144531 42.578125 41.972656 C 42.5625 41.9375 42.539062 41.898438 42.523438 41.859375 C 41.386719 39.183594 41.550781 38.476562 40.839844 36.089844 C 41.839844 36.953125 42.777344 37.691406 43.539062 38.160156 C 43.863281 38.359375 44.15625 38.40625 44.441406 38.410156 C 45.089844 38.367188 45.894531 38.46875 46.386719 37.792969 C 46.402344 37.515625 46.359375 37.207031 46.273438 36.867188 C 46.175781 36.503906 46.023438 36.089844 45.820312 35.613281 C 45.425781 34.683594 44.8125 33.515625 43.945312 32.058594 C 43.078125 30.605469 42.347656 29.28125 41.71875 28.488281 C 41.097656 27.695312 40.601562 27.199219 40.085938 26.957031 C 39.824219 26.832031 39.523438 26.769531 39.230469 26.859375 C 38.945312 26.957031 38.730469 27.191406 38.617188 27.4375 C 38.378906 27.925781 38.355469 28.519531 38.394531 29.289062 C 38.445312 30.183594 38.648438 31.589844 38.933594 32.878906 C 37.171875 31.113281 34.1875 28.496094 32.378906 26.214844 C 32.355469 26.1875 32.332031 26.148438 32.308594 26.117188 C 35.890625 21.222656 40.550781 15.78125 41.277344 11.34375 C 41.65625 9.015625 41.363281 6.914062 40.007812 5.421875 C 38.734375 4.015625 35.214844 3.253906 32 3.199219 Z M 32 3.199219 "/>
</g>
</svg>
