<svg xmlns="http://www.w3.org/2000/svg" xmlns:xlink="http://www.w3.org/1999/xlink" width="64" height="64" viewBox="0 0 64 64" version="1.1">
<defs> <linearGradient id="linear0" gradientUnits="userSpaceOnUse" x1="0" y1="0" x2="0" y2="1" gradientTransform="matrix(55.992188,0,0,56,4.003906,4)"> <stop offset="0" style="stop-color:#ff6666;stop-opacity:1;"/> <stop offset="1" style="stop-color:#d90000;stop-opacity:1;"/> </linearGradient> </defs>
<g id="surface1">
<path style=" stroke:none;fill-rule:nonzero;fill:url(#linear0);fill-opacity:1;" d="M 34.675781 56.304688 L 34.675781 21.054688 L 26.808594 21.054688 L 26.808594 56.304688 M 24.84375 19.09375 L 7.140625 9.304688 L 7.140625 42.597656 L 24.84375 54.347656 M 54.339844 42.597656 L 54.339844 9.304688 L 36.644531 19.09375 L 36.644531 54.347656 M 50.410156 9.304688 C 42.539062 9.304688 38.609375 10.320312 30.746094 17.136719 C 22.875 10.484375 18.941406 9.304688 11.078125 9.304688 L 26.808594 19.09375 L 34.675781 19.09375 "/>
<path style=" stroke:none;fill-rule:nonzero;fill:url(#linear0);fill-opacity:1;" d="M 60.246094 46.945312 L 59.957031 35.050781 C 58.03125 34.261719 56.652344 32.429688 56.601562 30.234375 C 56.550781 28.039062 57.839844 26.09375 59.710938 25.21875 L 59.828125 29.765625 C 59.871094 32.019531 64.1875 31.917969 64.136719 29.664062 L 64.015625 25.109375 C 64.628906 25.363281 65.175781 25.71875 65.640625 26.144531 C 66.6875 27.113281 67.363281 28.433594 67.402344 29.945312 C 67.449219 32.140625 66.148438 34.074219 64.273438 34.949219 L 64.566406 46.847656 C 64.214844 49.132812 60.644531 49.128906 60.257812 46.949219 "/>
</g>
</svg>
