<svg xmlns="http://www.w3.org/2000/svg" xmlns:xlink="http://www.w3.org/1999/xlink" width="64" height="64" viewBox="0 0 64 64" version="1.1">
<defs> <linearGradient id="linear0" gradientUnits="userSpaceOnUse" x1="0" y1="0" x2="0" y2="1" gradientTransform="matrix(55.992188,0,0,56,4.003906,4)"> <stop offset="0" style="stop-color:#ff6666;stop-opacity:1;"/> <stop offset="1" style="stop-color:#d90000;stop-opacity:1;"/> </linearGradient> </defs>
<g id="surface1">
<path style=" stroke:none;fill-rule:nonzero;fill:url(#linear0);fill-opacity:1;" d="M 4.320312 9.929688 L 6.457031 17.898438 L 6.457031 13.933594 L 38.460938 14.507812 L 38.460938 18.46875 L 40.589844 10.582031 Z M 19.253906 24.074219 L 21.390625 32.039062 L 21.390625 28.074219 L 53.398438 28.648438 L 53.398438 32.613281 L 55.527344 24.71875 Z M 21.390625 34.023438 C 20.210938 34.003906 19.253906 34.835938 19.253906 35.890625 L 19.253906 36.046875 C 19.253906 37.097656 20.210938 37.96875 21.390625 37.988281 L 36.328125 38.257812 C 37.507812 38.277344 38.457031 37.445312 38.457031 36.386719 L 38.457031 36.234375 C 38.457031 35.175781 37.507812 34.3125 36.328125 34.292969 Z M 53.398438 34.59375 C 52.214844 34.570312 51.257812 35.214844 51.257812 36.042969 L 51.257812 37.035156 C 51.257812 37.855469 52.214844 38.535156 53.398438 38.558594 L 57.664062 38.636719 C 58.84375 38.65625 59.792969 38.007812 59.792969 37.191406 L 59.792969 36.195312 C 59.792969 35.375 58.84375 34.691406 57.664062 34.671875 Z M 4.320312 45.609375 L 6.460938 53.578125 L 6.460938 49.613281 L 38.460938 50.1875 L 38.460938 54.148438 L 40.589844 46.261719 Z M 53.398438 46.488281 L 49.128906 50.378906 L 53.398438 54.414062 L 57.664062 50.53125 Z M 53.398438 46.488281 "/>
</g>
</svg>
