<svg xmlns="http://www.w3.org/2000/svg" xmlns:xlink="http://www.w3.org/1999/xlink" width="64" height="64" viewBox="0 0 64 64" version="1.1">
<defs> <linearGradient id="linear0" gradientUnits="userSpaceOnUse" x1="0" y1="0" x2="0" y2="1" gradientTransform="matrix(55.992188,0,0,56,4.003906,4)"> <stop offset="0" style="stop-color:#ff6666;stop-opacity:1;"/> <stop offset="1" style="stop-color:#d90000;stop-opacity:1;"/> </linearGradient> </defs>
<g id="surface1">
<path style=" stroke:none;fill-rule:nonzero;fill:url(#linear0);fill-opacity:1;" d="M 35.320312 6.644531 C 31.839844 6.558594 28.410156 7.53125 27.347656 12.4375 L 29.234375 12.46875 C 29.234375 9.234375 34.28125 9.121094 36.320312 10.492188 C 33.277344 19.882812 19.613281 52.539062 16.050781 52.476562 L 14.167969 52.441406 L 12.28125 55.902344 L 16.050781 55.972656 C 19.101562 56.027344 24.339844 45.898438 29.113281 35.210938 L 39.175781 35.390625 C 40.234375 44.378906 41.453125 52.847656 42.414062 54.691406 C 44.28125 58.308594 48.058594 58.296875 51.824219 56.609375 L 51.824219 49.613281 C 51.824219 51.363281 49.898438 52.617188 48.058594 51.292969 C 45.933594 49.765625 42.414062 9.207031 42.414062 7.460938 C 40.761719 7.425781 38.03125 6.71875 35.320312 6.644531 Z M 37.207031 16.113281 C 37.566406 20.144531 38.085938 25.832031 38.761719 31.886719 L 30.640625 31.738281 C 33.238281 25.765625 35.554688 20.109375 37.207031 16.113281 Z M 37.207031 16.113281 "/>
</g>
</svg>
