<svg xmlns="http://www.w3.org/2000/svg" xmlns:xlink="http://www.w3.org/1999/xlink" width="64" height="64" viewBox="0 0 64 64" version="1.1">
<defs> <linearGradient id="linear0" gradientUnits="userSpaceOnUse" x1="0" y1="0" x2="0" y2="1" gradientTransform="matrix(55.992188,0,0,56,4.003906,4)"> <stop offset="0" style="stop-color:#ff6666;stop-opacity:1;"/> <stop offset="1" style="stop-color:#d90000;stop-opacity:1;"/> </linearGradient> </defs>
<g id="surface1">
<path style=" stroke:none;fill-rule:nonzero;fill:url(#linear0);fill-opacity:1;" d="M 36.394531 52.441406 C 43.605469 44.777344 49.261719 35.71875 53.550781 26.144531 C 55.992188 20.148438 57.996094 13.527344 56.589844 7.035156 C 55.863281 3.621094 51.820312 1.339844 48.617188 3.070312 C 44.777344 5.078125 43.035156 9.550781 43.113281 13.691406 C 43.074219 15.726562 43.742188 18.808594 44.636719 15.296875 C 45.550781 13.234375 48.894531 13.441406 49.183594 15.8125 C 49.546875 18.335938 48.308594 20.792969 47.347656 23.066406 C 45.757812 25.957031 43.917969 29.328125 40.5625 30.378906 C 37.996094 30.914062 35.789062 28.707031 36.371094 26.09375 C 36.332031 23.355469 41.890625 22.609375 38.699219 20.09375 C 36.078125 17.566406 32.035156 19.691406 30.734375 22.566406 C 27.242188 29.464844 28.019531 37.550781 25.257812 44.675781 C 24.515625 47.792969 19.785156 50.972656 17.832031 47.085938 C 17.082031 45.140625 18.414062 43.054688 20.011719 41.816406 C 21.667969 40.089844 24.089844 39.636719 26.355469 39.289062 C 24.65625 36.882812 21.164062 36.535156 18.4375 37.015625 C 12.40625 38.308594 7.914062 44.039062 7.152344 49.992188 C 6.382812 55.34375 10.300781 61.003906 15.796875 61.660156 C 22.789062 62.820312 29.546875 59.035156 34.429688 54.355469 C 35.09375 53.726562 35.730469 53.070312 36.394531 52.441406 Z M 30.597656 50.53125 C 30.351562 50.769531 30.109375 51.011719 29.863281 51.25 C 27.011719 53.324219 23.78125 56.136719 19.964844 55.242188 C 18.777344 55.179688 15.773438 52.71875 18.539062 53.804688 C 23.203125 54.914062 27.457031 51.332031 29.546875 47.476562 C 31.765625 43.703125 32.78125 39.382812 33.738281 35.152344 C 35.582031 36.78125 38.429688 36.707031 40.457031 37.070312 C 39.585938 39.015625 38.1875 40.988281 36.996094 42.890625 C 35.152344 45.660156 32.9375 48.183594 30.597656 50.53125 Z M 30.597656 50.53125 "/>
</g>
</svg>
