<svg xmlns="http://www.w3.org/2000/svg" xmlns:xlink="http://www.w3.org/1999/xlink" width="64" height="64" viewBox="0 0 64 64" version="1.1">
<defs> <linearGradient id="linear0" gradientUnits="userSpaceOnUse" x1="0" y1="0" x2="0" y2="1" gradientTransform="matrix(55.992188,0,0,56,4.003906,4)"> <stop offset="0" style="stop-color:#ff6666;stop-opacity:1;"/> <stop offset="1" style="stop-color:#d90000;stop-opacity:1;"/> </linearGradient> </defs>
<g id="surface1">
<path style=" stroke:none;fill-rule:nonzero;fill:url(#linear0);fill-opacity:1;" d="M 21.753906 57.652344 C 21.5625 57.605469 21.261719 57.417969 21.078125 57.230469 C 20.878906 57.027344 18.375 52.503906 14.746094 45.78125 L 8.738281 34.667969 L 8.191406 34.363281 C 7.5 33.972656 6.714844 33.242188 6.394531 32.6875 C 6.148438 32.273438 6.144531 32.210938 6.207031 31.121094 C 6.488281 26.375 7.949219 21.949219 10.488281 18.148438 C 14.660156 11.894531 21.078125 7.890625 28.671875 6.796875 C 30.339844 6.554688 33.78125 6.554688 35.453125 6.796875 C 41.339844 7.644531 46.628906 10.292969 50.582031 14.382812 C 55.003906 18.949219 57.417969 24.386719 57.867188 30.789062 C 57.976562 32.296875 57.96875 32.375 57.777344 32.695312 C 57.492188 33.144531 56.625 33.953125 55.941406 34.390625 L 55.386719 34.746094 L 49.417969 45.820312 C 45.203125 53.628906 43.335938 57 43.078125 57.253906 C 42.441406 57.882812 41.597656 57.878906 40.953125 57.238281 C 40.484375 56.769531 40.363281 56.269531 40.574219 55.683594 C 40.652344 55.457031 43.078125 50.914062 45.953125 45.585938 C 48.832031 40.265625 51.210938 35.839844 51.238281 35.757812 C 51.285156 35.640625 51.164062 35.59375 50.675781 35.542969 C 50.335938 35.511719 49.746094 35.375 49.359375 35.238281 L 48.660156 34.996094 L 48.460938 35.324219 C 47.984375 36.09375 46.652344 37.132812 45.675781 37.5 L 45.265625 37.652344 L 42.378906 47.222656 C 40.386719 53.828125 39.414062 56.894531 39.25 57.121094 C 38.667969 57.90625 37.457031 57.910156 36.828125 57.125 C 36.285156 56.457031 36.246094 56.621094 39.144531 47.019531 C 40.589844 42.199219 41.800781 38.195312 41.824219 38.132812 C 41.851562 38.054688 41.652344 37.96875 41.289062 37.902344 C 40.136719 37.679688 38.667969 37.082031 38.105469 36.605469 C 37.941406 36.464844 37.886719 36.488281 37.496094 36.863281 C 35.539062 38.75 31.839844 39.441406 28.984375 38.445312 C 28.050781 38.121094 27.472656 37.773438 26.769531 37.109375 L 26.183594 36.550781 L 25.808594 36.78125 C 24.867188 37.347656 23.382812 37.898438 22.789062 37.902344 C 22.277344 37.90625 22.238281 37.738281 25.03125 47.019531 C 28.058594 57.0625 27.9375 56.515625 27.210938 57.242188 C 26.6875 57.757812 26.144531 57.855469 25.496094 57.53125 C 25.210938 57.390625 24.953125 57.164062 24.832031 56.957031 C 24.722656 56.761719 23.355469 52.363281 21.792969 47.183594 L 18.953125 37.753906 L 18.113281 37.332031 C 17.148438 36.84375 16.347656 36.199219 15.832031 35.5 L 15.472656 35.011719 L 14.78125 35.246094 C 14.398438 35.367188 13.808594 35.511719 13.46875 35.554688 L 12.851562 35.632812 L 18.222656 45.558594 C 23.371094 55.078125 23.601562 55.511719 23.632812 56.089844 C 23.679688 56.847656 23.445312 57.273438 22.820312 57.554688 C 22.363281 57.765625 22.265625 57.773438 21.75 57.652344 M 22.578125 33.910156 C 23.554688 33.722656 24.59375 33.34375 25.128906 32.976562 L 25.53125 32.699219 L 25.484375 31.597656 C 25.457031 30.984375 25.441406 29.109375 25.445312 27.417969 C 25.453125 24.941406 25.496094 24.011719 25.671875 22.632812 C 26.082031 19.363281 26.792969 16.457031 27.820312 13.855469 C 28.300781 12.621094 29.238281 10.683594 29.699219 9.957031 C 29.835938 9.738281 29.933594 9.539062 29.902344 9.519531 C 29.824219 9.433594 28.085938 10.390625 26.933594 11.152344 C 22.03125 14.386719 18.570312 19.484375 16.84375 26.007812 C 16.5 27.296875 16.082031 29.5 16.007812 30.386719 L 15.945312 31.109375 L 16.421875 31.710938 C 17.234375 32.714844 18.085938 33.355469 19.160156 33.761719 C 20.265625 34.179688 20.976562 34.210938 22.578125 33.910156 M 45.015625 33.785156 C 46.34375 33.359375 47.742188 32.117188 48.097656 31.054688 C 48.242188 30.625 48.234375 30.492188 48.007812 29.125 C 46.496094 20.121094 41.941406 13.359375 35.027344 9.855469 C 34.351562 9.511719 33.769531 9.257812 33.738281 9.292969 C 33.703125 9.324219 33.863281 9.753906 34.089844 10.246094 C 35.953125 14.269531 37.246094 19.324219 37.78125 24.695312 C 37.96875 26.574219 38.148438 30.125 38.121094 31.320312 C 38.097656 32.140625 38.121094 32.285156 38.3125 32.546875 C 38.734375 33.117188 40.183594 33.757812 41.523438 33.960938 C 42.511719 34.113281 44.261719 34.023438 45.015625 33.785156 "/>
</g>
</svg>
