<svg xmlns="http://www.w3.org/2000/svg" xmlns:xlink="http://www.w3.org/1999/xlink" width="64" height="64" viewBox="0 0 64 64" version="1.1">
<defs>
<linearGradient id="linear0" gradientUnits="userSpaceOnUse" x1="0" y1="0" x2="0" y2="1" gradientTransform="matrix(63.140625,0,0,64,0.429687,0)">
<stop offset="0" style="stop-color:#ff6666;stop-opacity:1;"/>
<stop offset="1" style="stop-color:#d90000;stop-opacity:1;"/>
</linearGradient>
</defs>
<g id="surface1">
<path style=" stroke:none;fill-rule:evenodd;fill:url(#linear0);" d="M 49.363281 32.355469 C 49.34375 32.351562 49.324219 32.347656 49.304688 32.34375 C 48.273438 32.128906 47.269531 31.816406 46.308594 31.414062 C 45.335938 31.007812 44.394531 30.53125 43.511719 29.984375 C 42.597656 29.429688 41.714844 28.8125 40.886719 28.15625 C 40.015625 27.472656 39.1875 26.757812 38.394531 26.007812 C 37.570312 25.234375 36.773438 24.445312 36 23.632812 C 35.210938 22.796875 34.4375 21.953125 33.679688 21.101562 C 32.910156 20.234375 32.148438 19.367188 31.390625 18.5 C 30.640625 17.632812 29.875 16.769531 29.117188 15.910156 C 28.359375 15.066406 27.601562 14.230469 26.820312 13.410156 C 26.066406 12.621094 25.289062 11.84375 24.484375 11.089844 C 23.71875 10.371094 22.925781 9.683594 22.089844 9.023438 C 21.304688 8.40625 20.476562 7.828125 19.613281 7.296875 C 18.792969 6.796875 17.9375 6.355469 17.03125 5.980469 C 16.261719 5.65625 15.460938 5.398438 14.636719 5.210938 L 14.636719 8.347656 L 5.203125 8.347656 L 0.429688 4.175781 L 5.128906 0.0742188 L 5.203125 0 L 14.636719 0 L 14.636719 3.816406 C 14.65625 3.820312 14.675781 3.824219 14.695312 3.828125 C 15.726562 4.042969 16.730469 4.355469 17.691406 4.757812 C 18.664062 5.164062 19.605469 5.640625 20.488281 6.1875 C 21.402344 6.746094 22.285156 7.359375 23.113281 8.019531 C 23.984375 8.699219 24.8125 9.414062 25.605469 10.164062 C 26.429688 10.9375 27.226562 11.726562 28 12.546875 C 28.789062 13.375 29.5625 14.21875 30.320312 15.074219 C 31.089844 15.9375 31.851562 16.804688 32.609375 17.671875 C 33.359375 18.542969 34.125 19.402344 34.882812 20.269531 C 35.640625 21.113281 36.398438 21.941406 37.179688 22.761719 C 37.933594 23.554688 38.710938 24.332031 39.515625 25.085938 C 40.28125 25.800781 41.074219 26.492188 41.910156 27.148438 C 42.695312 27.773438 43.523438 28.347656 44.386719 28.875 C 45.207031 29.375 46.0625 29.820312 46.96875 30.191406 C 47.738281 30.515625 48.539062 30.773438 49.363281 30.964844 L 49.363281 27.828125 L 58.886719 27.828125 L 63.570312 32 L 58.886719 36.171875 L 49.363281 36.171875 Z M 49.363281 58.789062 C 48.539062 58.597656 47.738281 58.339844 46.96875 58.015625 C 46.0625 57.644531 45.207031 57.199219 44.386719 56.699219 C 43.523438 56.171875 42.695312 55.597656 41.910156 54.972656 C 41.074219 54.316406 40.28125 53.628906 39.515625 52.90625 C 38.710938 52.15625 37.933594 51.378906 37.179688 50.585938 C 36.398438 49.765625 35.640625 48.9375 34.882812 48.09375 C 34.125 47.230469 33.359375 46.367188 32.609375 45.503906 C 31.851562 44.632812 31.089844 43.765625 30.320312 42.898438 C 29.5625 42.042969 28.789062 41.199219 28 40.371094 C 27.226562 39.558594 26.429688 38.765625 25.605469 37.992188 C 24.8125 37.242188 23.984375 36.527344 23.113281 35.84375 C 22.285156 35.183594 21.402344 34.574219 20.488281 34.011719 C 19.605469 33.472656 18.664062 32.992188 17.691406 32.585938 C 16.730469 32.1875 15.726562 31.871094 14.695312 31.652344 C 14.675781 31.648438 14.65625 31.644531 14.636719 31.640625 L 14.636719 27.828125 L 5.203125 27.828125 L 5.128906 27.902344 L 0.429688 32 L 5.203125 36.171875 L 14.636719 36.171875 L 14.636719 33.035156 C 15.460938 33.226562 16.261719 33.488281 17.03125 33.804688 C 17.9375 34.183594 18.792969 34.621094 19.613281 35.121094 C 20.476562 35.65625 21.304688 36.230469 22.089844 36.851562 C 22.925781 37.507812 23.71875 38.195312 24.484375 38.914062 C 25.289062 39.671875 26.066406 40.445312 26.820312 41.234375 C 27.601562 42.054688 28.359375 42.890625 29.117188 43.734375 C 29.875 44.597656 30.640625 45.460938 31.390625 46.324219 C 32.148438 47.195312 32.910156 48.058594 33.679688 48.929688 C 34.4375 49.78125 35.210938 50.621094 36 51.457031 C 36.773438 52.269531 37.570312 53.058594 38.394531 53.832031 C 39.1875 54.578125 40.015625 55.300781 40.886719 55.984375 C 41.714844 56.636719 42.597656 57.253906 43.511719 57.816406 C 44.394531 58.355469 45.335938 58.835938 46.308594 59.238281 C 47.269531 59.640625 48.273438 59.953125 49.304688 60.171875 C 49.324219 60.175781 49.34375 60.179688 49.363281 60.183594 L 49.363281 64 L 58.886719 64 L 63.570312 59.828125 L 58.886719 55.652344 L 49.363281 55.652344 Z M 49.363281 58.789062 "/>
</g>
</svg>
