<svg xmlns="http://www.w3.org/2000/svg" xmlns:xlink="http://www.w3.org/1999/xlink" width="64" height="64" viewBox="0 0 64 64" version="1.1">
<defs>
<linearGradient id="linear0" gradientUnits="userSpaceOnUse" x1="0" y1="0" x2="0" y2="1" gradientTransform="matrix(64,0,0,51.203125,0,6.398438)">
<stop offset="0" style="stop-color:#ff6666;stop-opacity:1;"/>
<stop offset="1" style="stop-color:#d90000;stop-opacity:1;"/>
</linearGradient>
</defs>
<g id="surface1">
<path style=" stroke:none;fill-rule:nonzero;fill:url(#linear0);" d="M 17.289062 6.398438 C 7.773438 6.398438 0 13.546875 0 22.398438 C 0 27.003906 2.085938 31.210938 5.429688 34.132812 L 31.570312 57.601562 L 58.570312 34.132812 C 61.917969 31.214844 64 27.007812 64 22.398438 C 64 13.546875 56.226562 6.40625 46.710938 6.40625 C 40.445312 6.40625 35.015625 9.480469 32 14.132812 C 28.984375 9.480469 23.554688 6.40625 17.289062 6.40625 Z M 19.390625 10.0625 C 24.757812 10.0625 29.417969 12.699219 32 16.6875 C 34.582031 12.699219 39.242188 10.0625 44.609375 10.0625 C 52.765625 10.0625 59.421875 16.1875 59.421875 23.773438 C 59.421875 27.722656 57.640625 31.328125 54.773438 33.828125 L 31.632812 53.9375 L 9.226562 33.828125 C 6.359375 31.324219 4.578125 27.722656 4.578125 23.773438 C 4.578125 16.1875 11.234375 10.0625 19.390625 10.0625 Z M 19.390625 10.0625 "/>
</g>
</svg>
