<svg xmlns="http://www.w3.org/2000/svg" xmlns:xlink="http://www.w3.org/1999/xlink" width="64" height="64" viewBox="0 0 64 64" version="1.1">
<defs> <linearGradient id="linear0" gradientUnits="userSpaceOnUse" x1="0" y1="0" x2="0" y2="1" gradientTransform="matrix(55.992188,0,0,56,4.003906,4)"> <stop offset="0" style="stop-color:#ff6666;stop-opacity:1;"/> <stop offset="1" style="stop-color:#d90000;stop-opacity:1;"/> </linearGradient> </defs>
<g id="surface1">
<path style="fill-rule:evenodd;fill:url(#linear0);fill-opacity:1;stroke-width:0.886;stroke-linecap:butt;stroke-linejoin:miter;stroke:url(#linear0);stroke-opacity:1;stroke-miterlimit:4;" d="M 198.342892 189.036065 C 150.43039 197.259885 114.039243 238.940191 114.039243 289.146504 C 114.039243 345.288646 159.501308 390.789467 215.624925 390.789467 C 265.837398 390.789467 307.537826 354.354275 315.748941 306.479123 C 302.37901 339.568666 269.964451 362.945037 232.06865 362.945037 C 182.243087 362.945037 141.853859 322.559821 141.853859 272.720449 C 141.853859 234.839073 165.218995 202.397074 198.342892 189.036065 Z M 198.342892 189.036065 " transform="matrix(0.181728,0,0,0.180972,-14.466283,-14.155549)"/>
<path style="fill-rule:evenodd;fill:url(#linear0);fill-opacity:1;stroke-width:1;stroke-linecap:butt;stroke-linejoin:miter;stroke:url(#linear0);stroke-opacity:1;stroke-miterlimit:4;" d="M 261.611494 150.367195 L 239.712695 155.943903 L 231.855318 177.203579 L 219.802491 158.062565 L 197.151905 157.185877 L 211.629849 139.749533 L 205.494305 117.978456 L 226.495811 126.355694 L 245.314713 113.765485 L 243.835392 136.364545 Z M 261.611494 150.367195 " transform="matrix(0.161075,0,0,0.160405,-16.193695,-10.502448)"/>
<path style="fill-rule:evenodd;fill:url(#linear0);fill-opacity:1;stroke-width:1;stroke-linecap:butt;stroke-linejoin:miter;stroke:url(#linear0);stroke-opacity:1;stroke-miterlimit:4;" d="M 261.640091 150.36739 L 239.692789 155.944098 L 231.883915 177.179421 L 219.782585 158.06276 L 197.180503 157.186072 L 211.634195 139.774081 L 205.4744 117.978652 L 226.475906 126.355889 L 245.319059 113.790033 L 243.863989 136.340388 Z M 261.640091 150.36739 " transform="matrix(0.161075,0,0,0.160405,11.629823,-4.830604)"/>
<path style="fill-rule:evenodd;fill:url(#linear0);fill-opacity:1;stroke-width:1;stroke-linecap:butt;stroke-linejoin:miter;stroke:url(#linear0);stroke-opacity:1;stroke-miterlimit:4;" d="M 261.638176 150.37398 L 239.690875 155.950688 L 231.85775 177.161659 L 219.780671 158.069349 L 197.178588 157.192662 L 211.632281 139.756318 L 205.496737 117.985241 L 226.522494 126.362479 L 245.292893 113.77227 L 243.862075 136.346977 Z M 261.638176 150.37398 " transform="matrix(0.161075,0,0,0.160405,-0.0847119,-15.038692)"/>
<path style="fill-rule:evenodd;fill:url(#linear0);fill-opacity:1;stroke-width:1;stroke-linecap:butt;stroke-linejoin:miter;stroke:url(#linear0);stroke-opacity:1;stroke-miterlimit:4;" d="M 261.640237 150.363158 L 239.692936 155.939866 L 231.884062 177.199541 L 219.782732 158.058528 L 197.180649 157.18184 L 211.634342 139.745496 L 205.474547 117.974419 L 226.476053 126.351657 L 245.319206 113.761448 L 243.864136 136.360508 Z M 261.640237 150.363158 " transform="matrix(0.161075,0,0,0.160405,16.672769,10.400543)"/>
<path style="fill-rule:evenodd;fill:url(#linear0);fill-opacity:1;stroke-width:1;stroke-linecap:butt;stroke-linejoin:miter;stroke:url(#linear0);stroke-opacity:1;stroke-miterlimit:4;" d="M 261.610599 150.367045 L 239.687549 155.968105 L 231.854423 177.179076 L 219.777345 158.038062 L 197.175262 157.161374 L 211.628954 139.773736 L 205.49341 117.978306 L 226.494916 126.355544 L 245.338069 113.789687 L 243.858748 136.364395 Z M 261.610599 150.367045 " transform="matrix(0.161075,0,0,0.160405,-4.478707,1.325701)"/>
</g>
</svg>
