<svg xmlns="http://www.w3.org/2000/svg" xmlns:xlink="http://www.w3.org/1999/xlink" width="64" height="64" viewBox="0 0 64 64" version="1.1">
<defs>
<linearGradient id="linear0" gradientUnits="userSpaceOnUse" x1="0" y1="0" x2="0" y2="1" gradientTransform="matrix(64,0,0,64,0,0)">
<stop offset="0" style="stop-color:#ff6666;stop-opacity:1;"/>
<stop offset="1" style="stop-color:#d90000;stop-opacity:1;"/>
</linearGradient>
</defs>
<g id="surface1">
<path style=" stroke:none;fill-rule:evenodd;fill:url(#linear0);" d="M 3.636719 0 L 25.457031 0 C 27.460938 0 29.09375 1.628906 29.09375 3.636719 L 29.09375 13.820312 C 29.09375 15.824219 27.460938 17.457031 25.457031 17.457031 L 3.636719 17.457031 C 1.628906 17.457031 0 15.824219 0 13.820312 L 0 3.636719 C 0 1.628906 1.628906 0 3.636719 0 Z M 38.542969 0 L 60.363281 0 C 62.371094 0 64 1.628906 64 3.636719 L 64 13.820312 C 64 15.824219 62.371094 17.457031 60.363281 17.457031 L 38.542969 17.457031 C 36.539062 17.457031 34.90625 15.824219 34.90625 13.820312 L 34.90625 3.636719 C 34.90625 1.628906 36.539062 0 38.542969 0 Z M 21.09375 23.273438 L 42.90625 23.273438 C 44.914062 23.273438 46.542969 24.902344 46.542969 26.90625 L 46.542969 37.09375 C 46.542969 39.097656 44.914062 40.726562 42.90625 40.726562 L 21.09375 40.726562 C 19.085938 40.726562 17.457031 39.097656 17.457031 37.09375 L 17.457031 26.90625 C 17.457031 24.902344 19.085938 23.273438 21.09375 23.273438 Z M 53.820312 23.273438 L 62.542969 23.273438 C 63.347656 23.273438 64 23.925781 64 24.726562 L 64 39.273438 C 64 40.074219 63.347656 40.726562 62.542969 40.726562 L 53.820312 40.726562 C 53.015625 40.726562 52.363281 40.074219 52.363281 39.273438 L 52.363281 24.726562 C 52.363281 23.925781 53.015625 23.273438 53.820312 23.273438 Z M 3.636719 46.542969 L 25.457031 46.542969 C 27.460938 46.542969 29.09375 48.175781 29.09375 50.179688 L 29.09375 60.363281 C 29.09375 62.371094 27.460938 64 25.457031 64 L 3.636719 64 C 1.628906 64 0 62.371094 0 60.363281 L 0 50.179688 C 0 48.175781 1.628906 46.542969 3.636719 46.542969 Z M 38.542969 46.542969 L 60.363281 46.542969 C 62.371094 46.542969 64 48.175781 64 50.179688 L 64 60.363281 C 64 62.371094 62.371094 64 60.363281 64 L 38.542969 64 C 36.539062 64 34.90625 62.371094 34.90625 60.363281 L 34.90625 50.179688 C 34.90625 48.175781 36.539062 46.542969 38.542969 46.542969 Z M 38.542969 46.542969 "/>
</g>
</svg>
