<svg xmlns="http://www.w3.org/2000/svg" xmlns:xlink="http://www.w3.org/1999/xlink" width="64" height="64" viewBox="0 0 64 64" version="1.1">
<defs>
<linearGradient id="linear0" gradientUnits="userSpaceOnUse" x1="0" y1="0" x2="0" y2="1" gradientTransform="matrix(64,0,0,64,0,0)">
<stop offset="0" style="stop-color:#ff6666;stop-opacity:1;"/>
<stop offset="1" style="stop-color:#d90000;stop-opacity:1;"/>
</linearGradient>
</defs>
<g id="surface1">
<path style=" stroke:none;fill-rule:nonzero;fill:url(#linear0);" d="M 9.144531 0 C 4.078125 0 0 4.078125 0 9.144531 L 0 54.855469 C 0 59.921875 4.078125 64 9.144531 64 L 54.855469 64 C 59.921875 64 64 59.921875 64 54.855469 L 64 9.144531 C 64 4.078125 59.921875 0 54.855469 0 Z M 9.144531 4.570312 L 54.855469 4.570312 C 57.390625 4.570312 59.429688 6.609375 59.429688 9.144531 L 59.429688 50.285156 C 59.429688 52.816406 57.390625 54.855469 54.855469 54.855469 L 9.144531 54.855469 C 6.609375 54.855469 4.570312 52.816406 4.570312 50.285156 L 4.570312 9.144531 C 4.570312 6.609375 6.609375 4.570312 9.144531 4.570312 Z M 39.570312 22.828125 C 35.957031 22.828125 32.488281 24.003906 29.144531 26.257812 L 30.855469 30.144531 C 32.285156 29.183594 33.671875 28.5 35 28 C 36.359375 27.46875 37.605469 27.285156 39 27.285156 C 41.054688 27.285156 42.621094 27.761719 43.714844 28.859375 C 44.808594 29.921875 45.714844 31.363281 45.714844 33.285156 L 45.714844 34.6875 C 44.753906 34.324219 43.335938 34.03125 42.144531 33.828125 C 40.964844 33.617188 39.769531 33.523438 38.574219 33.546875 C 36.945312 33.546875 35.5 33.71875 34.140625 34.117188 C 32.8125 34.515625 31.566406 35.097656 30.574219 35.832031 C 29.613281 36.5625 28.960938 37.40625 28.425781 38.398438 C 27.898438 39.394531 27.570312 40.914062 27.570312 42.144531 C 27.570312 43.304688 27.855469 44.433594 28.289062 45.429688 C 28.75 46.421875 29.238281 47.273438 30.003906 48 C 30.796875 48.730469 31.792969 49.28125 32.859375 49.714844 C 33.953125 50.113281 35.167969 50.285156 36.425781 50.285156 C 38.386719 50.285156 40.167969 49.9375 41.855469 49.144531 C 43.578125 48.316406 44.984375 47.09375 46.144531 45.574219 L 46.285156 47.144531 C 46.382812 47.90625 46.738281 48.609375 47.285156 49.144531 C 47.847656 49.640625 48.652344 49.933594 49.714844 50.003906 C 50.078125 50.003906 50.570312 50.035156 51 50.003906 C 51.464844 49.96875 51.898438 49.957031 52.429688 49.855469 L 52.429688 45.140625 C 51.863281 45.109375 51.042969 44.976562 50.8125 44.710938 C 50.476562 44.3125 50.292969 43.808594 50.285156 43.285156 L 50.285156 33.542969 C 50.285156 30.128906 49.847656 27.511719 47.859375 25.6875 C 45.871094 23.863281 43.148438 22.828125 39.570312 22.828125 Z M 39.160156 36.863281 C 40.15625 36.863281 41.9375 37.09375 42.96875 37.292969 C 44.027344 37.496094 44.785156 37.777344 45.714844 38.144531 L 45.714844 41.574219 C 45.714844 42.234375 45.125 42.976562 44.429688 43.570312 C 42.476562 45.308594 40.128906 45.535156 37.855469 45.714844 C 36.367188 45.714844 34.5 45.796875 33.539062 44.933594 C 32.582031 44.035156 32 43.007812 32 41.714844 C 32 40.320312 33.34375 39.113281 34.574219 38.285156 C 35.910156 37.332031 37.519531 36.835938 39.160156 36.867188 Z M 39.160156 36.863281 "/>
</g>
</svg>
