<svg xmlns="http://www.w3.org/2000/svg" xmlns:xlink="http://www.w3.org/1999/xlink" width="64" height="64" viewBox="0 0 64 64" version="1.1">
<defs>
<linearGradient id="linear0" gradientUnits="userSpaceOnUse" x1="0" y1="0" x2="0" y2="1" gradientTransform="matrix(31.085938,0,0,64,16.457031,0)">
<stop offset="0" style="stop-color:#ff6666;stop-opacity:1;"/>
<stop offset="1" style="stop-color:#d90000;stop-opacity:1;"/>
</linearGradient>
</defs>
<g id="surface1">
<path style=" stroke:none;fill-rule:nonzero;fill:url(#linear0);" d="M 18.285156 44.136719 L 16.457031 49.207031 C 21.195312 51.117188 25.601562 52.113281 29.671875 52.199219 L 29.671875 64 L 34.578125 64 L 34.578125 51.949219 C 39.730469 51.28125 43.386719 49.289062 45.464844 46.214844 C 46.960938 44.050781 47.542969 42.472656 47.542969 39.066406 C 47.542969 35.40625 44.21875 32.332031 41.476562 31.003906 C 38.234375 29.421875 33.910156 27.925781 30.335938 26.761719 C 27.84375 25.933594 24.351562 24.601562 24.351562 21.777344 C 24.351562 20.695312 24.6875 19.78125 25.351562 18.867188 C 27.179688 16.289062 30.171875 15.792969 34.910156 15.792969 C 37.070312 15.792969 39.980469 16.289062 43.636719 17.289062 L 45.296875 12.21875 C 44.46875 11.96875 43.886719 11.71875 43.46875 11.636719 L 42.554688 11.386719 C 41.808594 11.136719 40.394531 10.804688 39.398438 10.804688 C 38.566406 10.804688 37.570312 10.554688 36.738281 10.554688 L 34.578125 10.554688 L 34.578125 0 L 29.671875 0 L 29.671875 11.054688 C 26.847656 11.554688 24.601562 12.382812 22.855469 13.464844 C 20.28125 15.128906 17.453125 18.035156 17.453125 22.359375 C 17.453125 25.515625 18.617188 28.011719 21.027344 29.757812 C 22.109375 30.585938 23.355469 31.335938 24.6875 32 C 27.261719 33.328125 30.253906 33.910156 32.996094 34.910156 C 36.238281 36.15625 40.230469 36.570312 40.230469 40.976562 C 40.230469 42.304688 39.730469 43.46875 38.734375 44.46875 C 36.738281 46.460938 33.746094 46.960938 29.839844 46.960938 C 24.601562 46.960938 22.691406 45.964844 18.285156 44.136719 "/>
</g>
</svg>
