<svg xmlns="http://www.w3.org/2000/svg" xmlns:xlink="http://www.w3.org/1999/xlink" width="64" height="64" viewBox="0 0 64 64" version="1.1">
<defs>
<linearGradient id="linear0" gradientUnits="userSpaceOnUse" x1="0" y1="0" x2="0" y2="1" gradientTransform="matrix(64,0,0,41.808594,0,11.097656)">
<stop offset="0" style="stop-color:#ff6666;stop-opacity:1;"/>
<stop offset="1" style="stop-color:#d90000;stop-opacity:1;"/>
</linearGradient>
</defs>
<g id="surface1">
<path style=" stroke:none;fill-rule:nonzero;fill:url(#linear0);" d="M 36.121094 52.847656 C 36.128906 52.800781 36.496094 51.558594 36.945312 50.074219 C 37.394531 48.585938 37.703125 47.273438 37.628906 47.15625 C 37.558594 47.035156 36.964844 46.9375 36.308594 46.9375 C 35.652344 46.933594 34.222656 46.742188 33.128906 46.511719 C 27.140625 45.242188 21.058594 42.140625 15.402344 37.464844 C 14.25 36.511719 13.230469 35.867188 13.109375 36.011719 C 12.992188 36.148438 12.328125 37.023438 11.636719 37.941406 C 9.195312 41.1875 5.5 43.550781 1.964844 44.121094 C 0.988281 44.277344 0.152344 44.367188 0.109375 44.324219 C 0.0664062 44.277344 0.71875 42.832031 1.566406 41.109375 C 5.078125 33.941406 5.039062 29.738281 1.382812 22.398438 L 0 19.625 L 0.78125 19.625 C 2.046875 19.625 4.804688 20.441406 6.304688 21.257812 C 8.148438 22.257812 11.113281 25.003906 12.25 26.757812 C 12.75 27.53125 13.222656 28.160156 13.300781 28.160156 C 13.378906 28.160156 14.414062 27.410156 15.601562 26.492188 C 19.347656 23.59375 24.296875 20.625 27.796875 19.167969 C 27.839844 19.152344 27.75 18.796875 27.59375 18.386719 C 27.160156 17.253906 25.054688 15.105469 23.5 14.21875 L 22.117188 13.429688 L 23.496094 12.972656 C 28.597656 11.28125 36.542969 10.582031 40.097656 11.507812 C 43.117188 12.296875 45.679688 13.804688 48.140625 16.242188 C 49.480469 17.566406 50.828125 18.617188 51.554688 18.90625 C 55.308594 20.386719 59.515625 23.285156 61.65625 25.855469 C 62.816406 27.25 64 28.878906 64 29.085938 C 64 29.160156 62.785156 30.085938 61.296875 31.15625 C 59.808594 32.230469 58.59375 33.199219 58.59375 33.316406 C 58.59375 33.4375 59.746094 34.257812 61.15625 35.148438 C 62.5625 36.042969 63.714844 36.871094 63.714844 36.988281 C 63.714844 37.832031 58.640625 41.308594 54.792969 43.101562 C 52.261719 44.28125 47.210938 46.089844 46.449219 46.089844 C 46.242188 46.089844 46.074219 46.195312 46.074219 46.335938 C 46.074219 46.902344 43.65625 49.257812 42.015625 50.289062 C 40.105469 51.492188 36.070312 53.242188 36.121094 52.847656 Z M 52.398438 30.675781 C 54.386719 29.261719 54.554688 27.011719 52.816406 25.101562 C 52.09375 24.308594 51.769531 24.28125 51.964844 25.027344 C 52.21875 25.988281 51.320312 27.019531 50.226562 27.019531 C 49.132812 27.019531 48.644531 26.550781 48.363281 25.238281 L 48.167969 24.316406 L 47.300781 25.230469 C 45.851562 26.757812 45.851562 28.539062 47.300781 30.117188 C 48.695312 31.632812 50.734375 31.855469 52.398438 30.671875 Z M 52.398438 30.675781 "/>
</g>
</svg>
