<svg xmlns="http://www.w3.org/2000/svg" xmlns:xlink="http://www.w3.org/1999/xlink" width="64" height="64" viewBox="0 0 64 64" version="1.1">
<defs>
<linearGradient id="linear0" gradientUnits="userSpaceOnUse" x1="0" y1="0" x2="0" y2="1" gradientTransform="matrix(63.695313,0,0,64,0.152344,0)">
<stop offset="0" style="stop-color:#ff6666;stop-opacity:1;"/>
<stop offset="1" style="stop-color:#d90000;stop-opacity:1;"/>
</linearGradient>
</defs>
<g id="surface1">
<path style=" stroke:none;fill-rule:nonzero;fill:url(#linear0);" d="M 0.152344 0 L 2.644531 34.835938 L 4.4375 59.9375 C 4.554688 61.609375 5.617188 63.058594 7.171875 63.679688 C 7.171875 63.6875 7.171875 63.679688 7.175781 63.679688 C 7.429688 63.785156 7.6875 63.863281 7.964844 63.914062 C 7.964844 63.921875 7.964844 63.914062 7.964844 63.914062 C 8.097656 63.945312 8.238281 63.949219 8.378906 63.960938 C 8.515625 63.972656 8.65625 64 8.796875 64 L 29.546875 64 C 29.828125 64 30.109375 63.972656 30.375 63.914062 C 32.316406 63.542969 33.761719 61.910156 33.898438 59.945312 L 35.769531 33.796875 L 38.1875 0 Z M 3.28125 2.90625 L 35.058594 2.90625 L 34.125 16 L 4.210938 16 Z M 59.828125 13.09375 C 52.902344 13.09375 46.832031 17.59375 44.375 24.160156 L 43.460938 18.671875 C 43.355469 17.96875 42.761719 17.449219 42.050781 17.433594 C 41.617188 17.425781 41.203125 17.613281 40.921875 17.945312 C 40.636719 18.277344 40.519531 18.71875 40.597656 19.148438 L 41.839844 26.613281 C 40.914062 26.816406 40.011719 27.078125 39.144531 27.410156 L 36.800781 60.136719 C 36.800781 60.164062 36.789062 60.1875 36.785156 60.214844 C 39.496094 61.742188 42.554688 62.542969 45.664062 62.542969 C 55.695312 62.542969 63.847656 54.390625 63.847656 44.363281 C 63.847656 36.835938 59.253906 30.367188 52.714844 27.609375 C 57.621094 25.347656 61.335938 20.667969 62.367188 14.863281 L 62.542969 13.269531 L 60.941406 13.140625 C 60.574219 13.121094 60.203125 13.09375 59.828125 13.09375 Z M 49.300781 45.09375 C 50.101562 45.09375 50.757812 45.742188 50.757812 46.542969 C 50.757812 47.34375 50.101562 48 49.300781 48 C 48.5 48 47.847656 47.34375 47.847656 46.542969 C 47.847656 45.742188 48.5 45.09375 49.300781 45.09375 Z M 55.121094 45.09375 C 55.921875 45.09375 56.574219 45.742188 56.574219 46.542969 C 56.574219 47.34375 55.921875 48 55.121094 48 C 54.320312 48 53.664062 47.34375 53.664062 46.542969 C 53.664062 45.742188 54.320312 45.09375 55.121094 45.09375 Z M 52.210938 49.457031 C 53.011719 49.457031 53.664062 50.109375 53.664062 50.90625 C 53.664062 51.707031 53.011719 52.363281 52.210938 52.363281 C 51.410156 52.363281 50.757812 51.707031 50.757812 50.90625 C 50.757812 50.109375 51.410156 49.457031 52.210938 49.457031 Z M 52.210938 49.457031 "/>
</g>
</svg>
