<svg xmlns="http://www.w3.org/2000/svg" xmlns:xlink="http://www.w3.org/1999/xlink" width="64" height="64" viewBox="0 0 64 64" version="1.1">
<defs>
<linearGradient id="linear0" gradientUnits="userSpaceOnUse" x1="0" y1="0" x2="0" y2="1" gradientTransform="matrix(64,0,0,64,0,0)">
<stop offset="0" style="stop-color:#ff6666;stop-opacity:1;"/>
<stop offset="1" style="stop-color:#d90000;stop-opacity:1;"/>
</linearGradient>
</defs>
<g id="surface1">
<path style=" stroke:none;fill-rule:nonzero;fill:url(#linear0);" d="M 19.125 0 C 8.652344 0 0 9.476562 0 21.144531 C 0 27.199219 2.300781 32.753906 6.015625 36.632812 L 6.015625 36.640625 L 31.574219 64 L 57.976562 36.640625 C 61.824219 32.625 64.007812 27.015625 64 21.144531 C 64 9.476562 55.347656 0 44.875 0 C 39.714844 0 35.4375 2.769531 32 6.496094 C 28.558594 2.769531 24.28125 0 19.125 0 Z M 19.125 4.453125 C 24.613281 4.453125 29.363281 7.660156 32 12.523438 C 34.714844 7.496094 39.605469 4.429688 44.875 4.453125 C 53.203125 4.453125 60 11.90625 60 21.144531 C 60 25.953125 58.175781 30.335938 55.246094 33.386719 L 31.625 57.871094 L 8.746094 33.386719 C 5.710938 30.210938 3.992188 25.78125 4 21.144531 C 4 11.90625 10.800781 4.453125 19.125 4.453125 Z M 19.125 4.453125 "/>
</g>
</svg>
