<svg xmlns="http://www.w3.org/2000/svg" xmlns:xlink="http://www.w3.org/1999/xlink" width="64" height="64" viewBox="0 0 64 64" version="1.1">
<defs>
<linearGradient id="linear0" gradientUnits="userSpaceOnUse" x1="0" y1="0" x2="0" y2="1" gradientTransform="matrix(57.671875,0,0,64,3.164063,0)">
<stop offset="0" style="stop-color:#ff6666;stop-opacity:1;"/>
<stop offset="1" style="stop-color:#d90000;stop-opacity:1;"/>
</linearGradient>
</defs>
<g id="surface1">
<path style=" stroke:none;fill-rule:nonzero;fill:url(#linear0);" d="M 59.71875 16.011719 C 60.460938 17.5 60.835938 18.878906 60.835938 20.148438 C 60.835938 21.609375 60.460938 22.988281 59.71875 24.285156 C 58.972656 25.554688 57.964844 26.558594 56.699219 27.304688 C 55.402344 28.050781 54.023438 28.421875 52.5625 28.421875 C 51.070312 28.421875 49.691406 28.050781 48.425781 27.304688 C 47.898438 27 47.402344 26.640625 46.933594 26.230469 L 36.964844 31.980469 L 46.933594 37.769531 C 47.402344 37.355469 47.898438 37 48.425781 36.695312 C 49.691406 35.949219 51.070312 35.578125 52.5625 35.578125 C 54.023438 35.578125 55.402344 35.949219 56.699219 36.695312 C 57.964844 37.441406 58.972656 38.445312 59.71875 39.714844 C 60.460938 41.011719 60.835938 42.390625 60.835938 43.851562 C 60.835938 45.285156 60.460938 46.652344 59.71875 47.949219 C 58.945312 49.246094 57.9375 50.265625 56.699219 51.007812 C 55.402344 51.753906 54.023438 52.125 52.5625 52.125 C 51.15625 52.125 49.777344 51.753906 48.425781 51.007812 C 47.128906 50.292969 46.105469 49.285156 45.363281 47.988281 C 44.644531 46.722656 44.285156 45.34375 44.285156 43.851562 C 44.285156 43.246094 44.34375 42.652344 44.453125 42.074219 L 34.480469 36.28125 L 34.480469 47.824219 C 35.0625 48.015625 35.613281 48.265625 36.136719 48.570312 C 37.40625 49.3125 38.414062 50.320312 39.15625 51.589844 C 39.902344 52.859375 40.273438 54.238281 40.273438 55.726562 C 40.273438 57.214844 39.902344 58.59375 39.15625 59.863281 C 38.414062 61.132812 37.40625 62.136719 36.136719 62.882812 C 34.867188 63.628906 33.488281 64 32 64 C 30.511719 64 29.132812 63.628906 27.863281 62.882812 C 26.59375 62.136719 25.585938 61.132812 24.84375 59.863281 C 24.097656 58.59375 23.726562 57.214844 23.726562 55.726562 C 23.726562 54.238281 24.097656 52.859375 24.84375 51.589844 C 25.585938 50.320312 26.59375 49.3125 27.863281 48.570312 C 28.386719 48.265625 28.9375 48.015625 29.519531 47.824219 L 29.519531 36.28125 L 19.546875 42.074219 C 19.65625 42.652344 19.714844 43.246094 19.714844 43.851562 C 19.714844 45.34375 19.355469 46.722656 18.636719 47.988281 C 17.894531 49.285156 16.871094 50.292969 15.574219 51.007812 C 14.28125 51.753906 12.902344 52.125 11.4375 52.125 C 9.949219 52.125 8.570312 51.753906 7.300781 51.007812 C 6.035156 50.292969 5.027344 49.285156 4.28125 47.988281 C 3.539062 46.722656 3.164062 45.34375 3.164062 43.851562 C 3.164062 42.390625 3.539062 41.011719 4.28125 39.714844 C 5.027344 38.445312 6.035156 37.441406 7.300781 36.695312 C 8.597656 35.949219 9.976562 35.578125 11.4375 35.578125 C 12.902344 35.578125 14.28125 35.949219 15.574219 36.695312 C 16.101562 37 16.597656 37.359375 17.066406 37.769531 L 27.035156 31.980469 L 17.066406 26.230469 C 16.625 26.640625 16.128906 27 15.574219 27.304688 C 14.222656 28.050781 12.84375 28.421875 11.4375 28.421875 C 9.949219 28.421875 8.570312 28.050781 7.300781 27.304688 C 6.035156 26.558594 5.027344 25.554688 4.28125 24.285156 C 3.539062 23.015625 3.164062 21.636719 3.164062 20.148438 C 3.164062 18.65625 3.539062 17.277344 4.28125 16.011719 C 5.027344 14.714844 6.035156 13.707031 7.300781 12.988281 C 8.597656 12.246094 9.976562 11.875 11.4375 11.875 C 12.84375 11.875 14.222656 12.246094 15.574219 12.988281 C 16.871094 13.707031 17.894531 14.714844 18.636719 16.011719 C 19.355469 17.277344 19.714844 18.65625 19.714844 20.148438 C 19.714844 20.753906 19.65625 21.347656 19.546875 21.925781 L 29.519531 27.71875 L 29.519531 16.175781 C 28.9375 15.984375 28.386719 15.734375 27.863281 15.429688 C 26.59375 14.6875 25.585938 13.679688 24.84375 12.410156 C 24.097656 11.140625 23.726562 9.761719 23.726562 8.273438 C 23.726562 6.785156 24.097656 5.40625 24.84375 4.136719 C 25.585938 2.867188 26.59375 1.863281 27.863281 1.117188 C 29.160156 0.371094 30.539062 0 32 0 C 33.488281 0 34.867188 0.371094 36.136719 1.117188 C 37.40625 1.863281 38.414062 2.867188 39.15625 4.136719 C 39.902344 5.40625 40.273438 6.785156 40.273438 8.273438 C 40.273438 9.761719 39.902344 11.140625 39.15625 12.410156 C 38.414062 13.679688 37.40625 14.6875 36.136719 15.429688 C 35.613281 15.734375 35.0625 15.984375 34.480469 16.175781 L 34.480469 27.71875 L 44.453125 21.925781 C 44.34375 21.347656 44.285156 20.753906 44.285156 20.148438 C 44.285156 18.65625 44.644531 17.277344 45.363281 16.011719 C 46.078125 14.769531 47.101562 13.761719 48.425781 12.988281 C 49.691406 12.246094 51.070312 11.875 52.5625 11.875 C 54.023438 11.875 55.402344 12.246094 56.699219 12.988281 C 58.105469 13.816406 59.109375 14.824219 59.71875 16.011719 "/>
</g>
</svg>
