<svg xmlns="http://www.w3.org/2000/svg" xmlns:xlink="http://www.w3.org/1999/xlink" width="64" height="64" viewBox="0 0 64 64" version="1.1">
<defs>
<linearGradient id="linear0" gradientUnits="userSpaceOnUse" x1="0" y1="0" x2="0" y2="1" gradientTransform="matrix(64,0,0,64,0,0)">
<stop offset="0" style="stop-color:#ff6666;stop-opacity:1;"/>
<stop offset="1" style="stop-color:#d90000;stop-opacity:1;"/>
</linearGradient>
</defs>
<g id="surface1">
<path style=" stroke:none;fill-rule:nonzero;fill:url(#linear0);" d="M 15.984375 0 C 10.949219 0.0703125 7.265625 -0.136719 4.253906 1.757812 C 2.695312 2.773438 1.503906 4.390625 0.898438 6.320312 C 0.238281 8.324219 0 10.710938 0 13.714844 L 0 41.144531 C 0 44.152344 0.238281 46.535156 0.898438 48.535156 C 1.558594 50.542969 2.742188 52.148438 4.253906 53.097656 C 7.265625 55 10.949219 54.789062 15.984375 54.855469 L 16.804688 54.855469 L 28.015625 64 L 39.222656 54.855469 L 48.015625 54.855469 C 53.050781 54.789062 56.738281 54.996094 59.746094 53.097656 C 61.304688 52.082031 62.496094 50.464844 63.101562 48.535156 C 63.757812 46.535156 64 44.144531 64 41.144531 L 64 13.714844 C 64 10.707031 63.757812 8.324219 63.101562 6.320312 C 62.496094 4.390625 61.304688 2.773438 59.746094 1.757812 C 56.734375 -0.144531 53.050781 0.0703125 48.015625 0 Z M 16.007812 4.570312 L 48.039062 4.570312 C 53.078125 4.640625 56.398438 4.84375 57.863281 5.769531 C 58.597656 6.226562 59.015625 6.738281 59.402344 7.929688 C 59.792969 9.117188 60.046875 11.007812 60.046875 13.714844 L 60.046875 41.144531 C 60.046875 43.847656 59.792969 45.738281 59.402344 46.929688 C 59.011719 48.117188 58.59375 48.628906 57.855469 49.089844 C 56.390625 50.011719 53.078125 50.21875 48.039062 50.285156 L 16.007812 50.285156 C 10.972656 50.21875 7.648438 50.011719 6.183594 49.089844 C 5.449219 48.632812 5.035156 48.117188 4.644531 46.929688 C 4.25 45.738281 4.003906 43.847656 4.003906 41.144531 L 4.003906 13.714844 C 4.003906 11.007812 4.253906 9.117188 4.644531 7.929688 C 5.035156 6.738281 5.449219 6.230469 6.183594 5.769531 C 7.648438 4.84375 10.972656 4.640625 16.007812 4.570312 Z M 16.007812 4.570312 "/>
</g>
</svg>
