<svg xmlns="http://www.w3.org/2000/svg" xmlns:xlink="http://www.w3.org/1999/xlink" width="64" height="64" viewBox="0 0 64 64" version="1.1">
<defs>
<linearGradient id="linear0" gradientUnits="userSpaceOnUse" x1="0" y1="0" x2="0" y2="1" gradientTransform="matrix(36.429688,0,0,60,14,2)">
<stop offset="0" style="stop-color:#ff6666;stop-opacity:1;"/>
<stop offset="1" style="stop-color:#d90000;stop-opacity:1;"/>
</linearGradient>
</defs>
<g id="surface1">
<path style=" stroke:none;fill-rule:nonzero;fill:url(#linear0);" d="M 34.445312 2 C 34.109375 2.167969 33.722656 2.292969 33.421875 2.523438 C 32.835938 2.972656 32.265625 3.453125 31.742188 3.96875 C 31.167969 4.535156 30.574219 4.855469 29.734375 5.027344 C 27.714844 5.4375 26.523438 5.890625 24.640625 6.679688 C 20.449219 8.445312 17.671875 11.769531 15.695312 15.765625 C 13.941406 19.320312 13.910156 23.171875 14.054688 27.042969 C 14.351562 35.027344 19.105469 40.855469 21.652344 47 L 22.308594 47 C 21.316406 47 20.429688 47.667969 20.429688 48.496094 L 20.429688 51.503906 C 20.429688 52.332031 21.316406 53.429688 22.308594 53.429688 L 20.894531 53.429688 C 19.597656 53.429688 18.285156 54.429688 18.285156 55.675781 L 18.285156 59.753906 C 18.285156 60.996094 19.597656 62 20.894531 62 L 41.585938 62 C 42.886719 62 44 60.996094 44 59.753906 L 44 55.675781 C 44 54.429688 42.886719 53.429688 41.585938 53.429688 L 40.171875 53.429688 C 41.164062 53.429688 41.855469 52.332031 41.855469 51.503906 L 41.855469 48.496094 C 41.855469 47.667969 41.164062 47 40.171875 47 L 40.449219 47 C 41.09375 46.402344 41.066406 45.332031 41.636719 44.722656 C 44.238281 41.972656 44.703125 38.066406 42.878906 34.722656 C 41.984375 33.09375 40.730469 31.765625 39.28125 30.636719 C 37.652344 29.359375 35.964844 28.160156 34.324219 26.902344 C 33.851562 26.542969 33.910156 26.136719 33.285156 25.570312 C 34.835938 25.898438 35.597656 26.304688 36.84375 26.367188 C 39 26.472656 40.855469 27.402344 42.582031 28.65625 C 43.246094 29.140625 44.019531 29.527344 44.800781 29.796875 C 45.816406 30.144531 46.320312 29.898438 46.921875 28.980469 C 47.082031 28.738281 47.179688 28.460938 47.332031 28.140625 C 48.53125 28.167969 49.191406 27.25 49.519531 26.140625 C 49.632812 25.761719 49.824219 25.410156 49.960938 25.042969 C 50.894531 22.570312 50.417969 20.382812 48.628906 18.472656 C 48.230469 18.035156 47.753906 17.671875 47.335938 17.253906 C 45.941406 15.863281 44.542969 14.476562 43.183594 13.054688 C 42.195312 12.015625 41.308594 10.890625 40.3125 9.859375 C 39.820312 9.355469 39.402344 8.847656 39.175781 8.167969 C 38.828125 7.148438 38.179688 6.363281 37.234375 5.835938 C 36.898438 5.644531 35.722656 5.429688 35.480469 5.273438 C 35.089844 4.136719 36.011719 2.714844 34.445312 2 Z M 34.445312 2 "/>
</g>
</svg>
