<svg xmlns="http://www.w3.org/2000/svg" xmlns:xlink="http://www.w3.org/1999/xlink" width="64" height="64" viewBox="0 0 64 64" version="1.1">
<defs> <linearGradient id="linear0" gradientUnits="userSpaceOnUse" x1="0" y1="0" x2="0" y2="1" gradientTransform="matrix(55.992188,0,0,56,4.003906,4)"> <stop offset="0" style="stop-color:#ff6666;stop-opacity:1;"/> <stop offset="1" style="stop-color:#d90000;stop-opacity:1;"/> </linearGradient> </defs>
<g id="surface1">
<path style=" stroke:none;fill-rule:nonzero;fill:url(#linear0);fill-opacity:1;" d="M 19.710938 9.816406 C 20.089844 9.855469 20.464844 10.070312 20.753906 10.394531 C 21.523438 11.25 22.128906 12.878906 22.96875 15.609375 C 23.753906 18.152344 24.679688 20.601562 25.484375 22.390625 C 25.886719 23.28125 26.261719 24.011719 26.570312 24.5 C 26.722656 24.742188 26.867188 24.929688 26.960938 25.03125 C 26.96875 25.023438 26.96875 25.019531 26.972656 25.019531 C 27.082031 24.929688 27.242188 24.78125 27.40625 24.589844 C 27.746094 24.199219 28.148438 23.640625 28.53125 23.027344 C 30.796875 19.371094 34.742188 15.335938 37.65625 13.792969 C 41.203125 11.910156 44.179688 11.695312 47.253906 13.144531 C 50.285156 14.566406 52.914062 17.046875 54.566406 20.035156 C 55.15625 21.105469 55.511719 21.660156 55.777344 21.898438 C 56.039062 22.140625 56.226562 22.164062 56.820312 22.179688 C 57.804688 22.207031 58.640625 22.351562 59.257812 22.574219 C 59.570312 22.6875 59.835938 22.824219 60.046875 23.015625 C 60.261719 23.210938 60.417969 23.492188 60.417969 23.804688 C 60.417969 24.082031 60.316406 24.199219 60.210938 24.363281 C 60.105469 24.53125 59.96875 24.707031 59.804688 24.894531 C 59.46875 25.269531 59.027344 25.699219 58.53125 26.09375 L 57.007812 27.347656 L 57.167969 30.941406 C 57.390625 35.878906 56.59375 39.785156 54.492188 44.03125 C 51.710938 49.648438 47.589844 52.789062 41.261719 54.097656 C 39.59375 54.449219 37.203125 54.609375 35.242188 54.507812 C 27.398438 54.105469 21.09375 51.027344 16.785156 45.453125 L 15.183594 43.382812 L 12.292969 43.132812 C 10.464844 42.976562 8.589844 42.699219 7.078125 42.375 C 6.324219 42.210938 5.660156 42.03125 5.132812 41.859375 C 4.609375 41.6875 4.242188 41.574219 3.949219 41.285156 C 3.683594 41.019531 3.671875 40.679688 3.707031 40.375 C 3.734375 40.066406 3.832031 39.738281 3.960938 39.382812 C 4.234375 38.664062 4.675781 37.828125 5.183594 37.015625 C 5.695312 36.199219 6.269531 35.417969 6.824219 34.820312 C 7.097656 34.519531 7.371094 34.261719 7.636719 34.066406 C 7.902344 33.875 8.171875 33.726562 8.511719 33.726562 C 8.847656 33.726562 8.953125 33.859375 9.140625 33.984375 C 9.324219 34.113281 9.53125 34.277344 9.765625 34.488281 C 10.238281 34.90625 10.804688 35.464844 11.417969 36.105469 C 12.640625 37.386719 14.003906 38.960938 14.867188 40.179688 C 15.15625 40.589844 15.484375 40.960938 15.761719 41.222656 C 15.90625 41.351562 16.042969 41.460938 16.132812 41.515625 C 16.148438 41.527344 16.132812 41.523438 16.148438 41.527344 C 16.183594 41.492188 16.222656 41.476562 16.285156 41.417969 C 16.457031 41.25 16.683594 40.980469 16.949219 40.65625 C 17.484375 40.011719 18.148438 39.125 18.796875 38.21875 C 19.441406 37.308594 20.074219 36.371094 20.535156 35.617188 C 20.761719 35.238281 20.949219 34.898438 21.074219 34.644531 C 21.152344 34.492188 21.164062 34.492188 21.1875 34.425781 C 21.148438 34.414062 21.140625 34.402344 21.074219 34.390625 C 20.789062 34.324219 20.300781 34.269531 19.648438 34.265625 C 16.933594 34.253906 14.519531 33.195312 12.78125 31.222656 C 11.828125 30.144531 11.332031 29.085938 11.453125 28.074219 C 11.578125 27.054688 12.332031 26.21875 13.507812 25.597656 C 13.84375 25.414062 14.066406 25.085938 14.128906 24.78125 C 14.191406 24.480469 14.109375 24.285156 13.929688 24.171875 C 13.597656 23.96875 13.40625 23.660156 13.179688 23.277344 C 12.953125 22.886719 12.730469 22.421875 12.527344 21.925781 C 12.117188 20.9375 11.792969 19.871094 11.789062 19.082031 C 11.777344 17.671875 12.390625 16.542969 13.316406 16.015625 C 14.234375 15.484375 15.46875 15.648438 16.34375 16.617188 C 16.601562 16.902344 16.789062 17.039062 16.910156 17.117188 C 16.945312 17.027344 16.996094 16.910156 17.035156 16.574219 C 17.082031 16.15625 17.109375 15.574219 17.109375 14.8125 C 17.109375 13.644531 17.144531 12.859375 17.269531 12.234375 C 17.394531 11.609375 17.625 11.148438 17.972656 10.761719 C 18.402344 10.285156 18.816406 9.949219 19.324219 9.839844 C 19.453125 9.816406 19.578125 9.804688 19.703125 9.816406 M 45.179688 20.585938 C 43.410156 20.585938 41.964844 22.023438 41.964844 23.792969 C 41.964844 25.554688 43.410156 26.992188 45.179688 26.992188 C 46.957031 26.992188 48.382812 25.554688 48.382812 23.792969 C 48.382812 22.023438 46.957031 20.585938 45.179688 20.585938 "/>
</g>
</svg>
