<svg xmlns="http://www.w3.org/2000/svg" xmlns:xlink="http://www.w3.org/1999/xlink" width="64" height="64" viewBox="0 0 64 64" version="1.1">
<defs>
<linearGradient id="linear0" gradientUnits="userSpaceOnUse" x1="0" y1="0" x2="0" y2="1" gradientTransform="matrix(64,0,0,37.054688,0,13.472656)">
<stop offset="0" style="stop-color:#ff6666;stop-opacity:1;"/>
<stop offset="1" style="stop-color:#d90000;stop-opacity:1;"/>
</linearGradient>
</defs>
<g id="surface1">
<path style=" stroke:none;fill-rule:evenodd;fill:url(#linear0);" d="M 23.375 45.34375 C 25.785156 48.574219 29.597656 50.519531 33.683594 50.527344 C 37.773438 50.527344 41.585938 48.574219 43.992188 45.34375 L 45.371094 45.101562 C 47.105469 45.101562 47.753906 41.265625 46.523438 39.96875 L 35.0625 29.230469 C 34.699219 28.84375 34.199219 28.632812 33.683594 28.632812 C 33.167969 28.632812 32.671875 28.847656 32.304688 29.230469 L 20.84375 39.96875 C 19.617188 41.265625 20.265625 45.101562 21.996094 45.101562 Z M 10.105469 15.160156 C 4.523438 15.160156 0 19.683594 0 25.265625 C 0.00390625 26.121094 0.117188 26.972656 0.332031 27.800781 C 1.480469 23.339844 5.5 20.214844 10.105469 20.210938 C 14.707031 20.214844 18.722656 23.328125 19.878906 27.78125 C 20.097656 26.960938 20.203125 26.113281 20.210938 25.265625 C 20.210938 19.683594 15.6875 15.160156 10.105469 15.160156 Z M 50.527344 20.210938 C 50.527344 16.492188 53.542969 13.472656 57.265625 13.472656 C 60.980469 13.472656 64 16.492188 64 20.210938 C 64 23.929688 60.980469 26.949219 57.265625 26.949219 C 53.542969 26.949219 50.527344 23.929688 50.527344 20.210938 Z M 50.527344 20.210938 "/>
</g>
</svg>
