<svg xmlns="http://www.w3.org/2000/svg" xmlns:xlink="http://www.w3.org/1999/xlink" width="64" height="64" viewBox="0 0 64 64" version="1.1">
<defs>
<linearGradient id="linear0" gradientUnits="userSpaceOnUse" x1="0" y1="0" x2="0" y2="1" gradientTransform="matrix(49.851562,0,0,64,7.074219,0)">
<stop offset="0" style="stop-color:#ff6666;stop-opacity:1;"/>
<stop offset="1" style="stop-color:#d90000;stop-opacity:1;"/>
</linearGradient>
</defs>
<g id="surface1">
<path style=" stroke:none;fill-rule:nonzero;fill:url(#linear0);" d="M 31.902344 0 C 31.4375 0 30.957031 0.242188 30.738281 0.679688 L 29.140625 3.964844 L 25.5 4.484375 C 25.011719 4.554688 24.609375 4.894531 24.457031 5.363281 C 24.308594 5.828125 24.429688 6.34375 24.777344 6.683594 L 27.421875 9.246094 L 26.820312 12.847656 C 26.738281 13.328125 26.902344 13.804688 27.300781 14.089844 C 27.695312 14.375 28.230469 14.4375 28.660156 14.207031 L 31.902344 12.488281 L 35.144531 14.207031 C 35.332031 14.300781 35.535156 14.339844 35.742188 14.328125 C 36.007812 14.328125 36.28125 14.253906 36.503906 14.089844 C 36.898438 13.804688 37.0625 13.328125 36.984375 12.847656 L 36.382812 9.246094 L 39.027344 6.683594 C 39.375 6.34375 39.496094 5.828125 39.347656 5.363281 C 39.195312 4.894531 38.792969 4.550781 38.308594 4.480469 L 34.664062 3.960938 L 33.0625 0.679688 C 32.847656 0.242188 32.367188 0 31.902344 0 Z M 31.902344 15.367188 L 29.859375 16.453125 C 29.308594 16.738281 28.679688 16.890625 28.058594 16.890625 C 27.976562 16.890625 27.902344 16.894531 27.820312 16.890625 L 18.210938 29.179688 C 17.960938 29.507812 17.855469 29.941406 17.972656 30.339844 C 18.09375 30.738281 18.421875 31.046875 18.8125 31.179688 C 18.929688 31.214844 20.320312 31.648438 22.296875 32.101562 C 22.332031 32.113281 22.375 32.132812 22.414062 32.140625 C 23.019531 32.277344 23.617188 32.371094 24.335938 32.5 C 24.746094 32.574219 25.171875 32.632812 25.621094 32.699219 C 26.128906 32.78125 26.636719 32.875 27.179688 32.941406 C 27.878906 33.023438 28.597656 33.085938 29.339844 33.140625 C 30.257812 33.203125 31.214844 33.261719 32.183594 33.261719 C 33.066406 33.261719 33.90625 33.234375 34.742188 33.179688 C 35.300781 33.144531 35.820312 33.074219 36.34375 33.019531 C 36.695312 32.984375 37.046875 32.945312 37.382812 32.898438 L 37.429688 32.898438 C 38.175781 32.800781 38.925781 32.679688 39.667969 32.539062 C 39.691406 32.535156 39.71875 32.542969 39.746094 32.539062 C 40.285156 32.441406 40.753906 32.363281 41.226562 32.261719 C 41.429688 32.214844 41.523438 32.183594 41.707031 32.140625 C 42.894531 31.871094 44.070312 31.550781 45.226562 31.179688 C 45.617188 31.046875 45.914062 30.730469 46.03125 30.339844 C 46.144531 29.945312 46.042969 29.503906 45.792969 29.175781 L 36.183594 16.851562 C 36.039062 16.863281 35.894531 16.890625 35.742188 16.890625 C 35.125 16.890625 34.492188 16.738281 33.945312 16.453125 Z M 20.496094 34.300781 L 12.089844 44.507812 C 11.863281 44.777344 11.765625 45.125 11.808594 45.46875 C 11.855469 45.820312 12.042969 46.144531 12.332031 46.347656 C 12.441406 46.429688 14.085938 47.535156 18.132812 48.472656 C 18.539062 48.5625 18.878906 48.660156 19.335938 48.753906 C 19.363281 48.757812 19.382812 48.742188 19.414062 48.753906 C 20.175781 48.898438 21.023438 49.019531 21.9375 49.152344 C 22.714844 49.261719 23.484375 49.386719 24.375 49.472656 L 24.78125 49.511719 C 24.808594 49.515625 24.828125 49.507812 24.855469 49.511719 C 25.546875 49.570312 26.300781 49.628906 27.058594 49.671875 L 27.101562 49.671875 C 28.664062 49.761719 30.34375 49.832031 32.222656 49.832031 C 33.132812 49.832031 34.027344 49.816406 34.863281 49.792969 C 47.480469 49.445312 51.300781 46.644531 51.714844 46.308594 C 51.980469 46.097656 52.160156 45.769531 52.195312 45.429688 C 52.230469 45.097656 52.132812 44.765625 51.914062 44.507812 L 43.507812 34.339844 C 40.984375 34.992188 36.851562 35.824219 32.183594 35.824219 C 27.445312 35.824219 23.09375 34.953125 20.496094 34.300781 Z M 14.730469 50.191406 L 7.40625 58.234375 C 7.148438 58.515625 7.03125 58.898438 7.089844 59.277344 C 7.140625 59.65625 7.355469 60.003906 7.6875 60.195312 C 7.949219 60.351562 14.230469 64 32.300781 64 C 50.402344 64 56.121094 60.3125 56.355469 60.15625 C 56.667969 59.964844 56.871094 59.640625 56.914062 59.277344 C 56.964844 58.898438 56.847656 58.519531 56.597656 58.234375 L 49.3125 50.273438 C 46.136719 51.332031 40.8125 52.390625 32.222656 52.390625 C 23.484375 52.390625 17.980469 51.242188 14.730469 50.191406 Z M 14.730469 50.191406 "/>
</g>
</svg>
