<svg xmlns="http://www.w3.org/2000/svg" xmlns:xlink="http://www.w3.org/1999/xlink" width="64" height="64" viewBox="0 0 64 64" version="1.1">
<defs> <linearGradient id="linear0" gradientUnits="userSpaceOnUse" x1="0" y1="0" x2="0" y2="1" gradientTransform="matrix(55.992188,0,0,56,4.003906,4)"> <stop offset="0" style="stop-color:#ff6666;stop-opacity:1;"/> <stop offset="1" style="stop-color:#d90000;stop-opacity:1;"/> </linearGradient> </defs>
<g id="surface1">
<path style=" stroke:none;fill-rule:nonzero;fill:url(#linear0);fill-opacity:1;" d="M 33.03125 3.652344 C 28.40625 3.484375 23.695312 4.472656 19.261719 6.667969 C 15.699219 8.433594 12.570312 10.914062 10.03125 13.933594 L 19.398438 30.121094 C 20.1875 25.554688 23.476562 21.59375 28.210938 20.105469 C 29.398438 19.738281 30.613281 19.503906 31.863281 19.488281 L 57.746094 19.488281 C 52.898438 9.773438 43.210938 4.019531 33.03125 3.652344 Z M 8.242188 16.195312 C -0.585938 29.3125 2.984375 47.109375 16.160156 55.898438 C 19.453125 58.097656 23.164062 59.523438 27.042969 60.21875 L 36.40625 44.039062 C 32.261719 45.566406 27.457031 44.914062 23.804688 41.910156 C 21.949219 40.390625 20.574219 38.355469 19.8125 36.082031 Z M 32.066406 21.683594 C 26.261719 21.683594 21.53125 26.394531 21.53125 32.171875 C 21.53125 37.953125 26.261719 42.664062 32.066406 42.664062 C 37.871094 42.664062 42.601562 37.953125 42.601562 32.171875 C 42.601562 26.394531 37.871094 21.683594 32.066406 21.683594 Z M 39.296875 21.960938 C 42.527344 24.289062 44.617188 28.035156 44.601562 32.316406 C 44.582031 35.164062 43.617188 37.957031 41.847656 40.199219 L 29.796875 60.632812 C 45.613281 61.820312 59.445312 49.976562 60.644531 34.230469 C 60.960938 30.035156 60.28125 25.875 58.78125 21.960938 Z M 39.296875 21.960938 "/>
<path style=" stroke:none;fill-rule:nonzero;fill:url(#linear0);fill-opacity:1;" d="M 24.179688 56.464844 L 26.183594 59.925781 L 28.238281 58.742188 C 28.933594 58.339844 29.359375 57.90625 29.523438 57.429688 C 29.695312 56.957031 29.609375 56.421875 29.269531 55.835938 C 28.925781 55.246094 28.507812 54.90625 28.011719 54.824219 C 27.519531 54.734375 26.929688 54.886719 26.234375 55.28125 Z M 21.929688 52.582031 L 23.578125 55.429688 L 25.472656 54.335938 C 26.105469 53.976562 26.503906 53.589844 26.671875 53.175781 C 26.84375 52.769531 26.792969 52.324219 26.511719 51.84375 C 26.234375 51.367188 25.878906 51.101562 25.433594 51.039062 C 24.992188 50.984375 24.453125 51.128906 23.828125 51.492188 Z M 20.039062 52.265625 L 23.316406 50.382812 C 24.292969 49.824219 25.160156 49.59375 25.921875 49.695312 C 26.6875 49.796875 27.285156 50.21875 27.71875 50.964844 C 28.050781 51.542969 28.183594 52.082031 28.113281 52.578125 C 28.039062 53.074219 27.769531 53.515625 27.292969 53.902344 C 27.996094 53.675781 28.648438 53.675781 29.25 53.902344 C 29.847656 54.128906 30.328125 54.5625 30.699219 55.203125 C 31.1875 56.042969 31.277344 56.859375 30.972656 57.652344 C 30.660156 58.441406 29.972656 59.136719 28.910156 59.75 L 25.515625 61.707031 Z M 28.957031 47.144531 L 34.945312 43.699219 L 35.570312 44.773438 L 30.863281 47.476562 L 32.480469 50.277344 L 36.996094 47.679688 L 37.617188 48.753906 L 33.105469 51.351562 L 35.089844 54.765625 L 39.910156 51.996094 L 40.535156 53.070312 L 34.429688 56.578125 Z M 35.859375 43.171875 L 43.875 38.5625 L 44.492188 39.636719 L 41.132812 41.574219 L 45.980469 49.9375 L 44.691406 50.675781 L 39.84375 42.3125 L 36.480469 44.246094 Z M 48.003906 37.867188 L 48.984375 43.570312 L 52.464844 41.566406 Z M 46.542969 37.03125 L 48.003906 36.195312 L 57.082031 43.558594 L 55.75 44.320312 L 53.484375 42.398438 L 49.210938 44.851562 L 49.75 47.769531 L 48.398438 48.546875 Z M 17.269531 50.421875 "/>
</g>
</svg>
