<svg xmlns="http://www.w3.org/2000/svg" xmlns:xlink="http://www.w3.org/1999/xlink" width="64" height="64" viewBox="0 0 64 64" version="1.1">
<defs> <linearGradient id="linear0" gradientUnits="userSpaceOnUse" x1="0" y1="0" x2="0" y2="1" gradientTransform="matrix(55.992188,0,0,56,4.003906,4)"> <stop offset="0" style="stop-color:#ff6666;stop-opacity:1;"/> <stop offset="1" style="stop-color:#d90000;stop-opacity:1;"/> </linearGradient> </defs>
<g id="surface1">
<path style=" stroke:none;fill-rule:nonzero;fill:url(#linear0);fill-opacity:1;" d="M 32.449219 1.550781 L 4.855469 48.058594 L 60.046875 48.058594 M 32.449219 20.574219 C 35.972656 20.574219 38.820312 22.671875 38.820312 25.269531 L 38.820312 37.027344 C 38.820312 39.621094 35.972656 41.71875 32.449219 41.71875 C 28.925781 41.71875 26.082031 39.621094 26.082031 37.027344 L 26.082031 25.269531 C 26.082031 22.671875 28.925781 20.574219 32.449219 20.574219 M 32.449219 20.574219 "/>
<path style=" stroke:none;fill-rule:nonzero;fill:url(#linear0);fill-opacity:1;" d="M 19.714844 39.605469 L 19.722656 39.605469 C 22.0625 39.605469 23.96875 41.277344 23.96875 43.34375 L 23.96875 52.765625 C 23.96875 54.835938 22.0625 56.515625 19.722656 56.515625 L 19.714844 56.515625 C 17.371094 56.515625 15.46875 54.835938 15.46875 52.765625 L 15.46875 43.34375 C 15.46875 41.277344 17.371094 39.605469 19.714844 39.605469 M 19.714844 39.605469 "/>
<path style=" stroke:none;fill-rule:nonzero;fill:url(#linear0);fill-opacity:1;" d="M 45.179688 39.605469 L 45.1875 39.605469 C 47.53125 39.605469 49.433594 41.277344 49.433594 43.34375 L 49.433594 52.765625 C 49.433594 54.835938 47.53125 56.515625 45.1875 56.515625 L 45.179688 56.515625 C 42.839844 56.515625 40.945312 54.835938 40.945312 52.765625 L 40.945312 43.34375 C 40.945312 41.277344 42.839844 39.605469 45.179688 39.605469 M 45.179688 39.605469 "/>
<path style=" stroke:none;fill-rule:nonzero;fill:url(#linear0);fill-opacity:1;" d="M 32.449219 22.6875 L 32.460938 22.6875 C 34.800781 22.6875 36.695312 24.367188 36.695312 26.4375 L 36.695312 35.859375 C 36.695312 37.925781 34.792969 39.609375 32.460938 39.609375 L 32.449219 39.609375 C 30.101562 39.609375 28.207031 37.925781 28.207031 35.859375 L 28.207031 26.4375 C 28.207031 24.367188 30.101562 22.6875 32.449219 22.6875 M 32.449219 22.6875 "/>
<path style=" stroke:none;fill-rule:nonzero;fill:url(#linear0);fill-opacity:1;" d="M 14.40625 16.347656 L 14.417969 16.347656 C 16.167969 16.347656 17.589844 18.023438 17.589844 20.097656 L 17.589844 37.976562 C 17.589844 40.039062 16.167969 41.714844 14.417969 41.714844 L 14.40625 41.714844 C 12.652344 41.714844 11.226562 40.039062 11.226562 37.976562 L 11.226562 20.097656 C 11.226562 18.023438 12.652344 16.347656 14.40625 16.347656 M 14.40625 16.347656 "/>
<path style=" stroke:none;fill-rule:nonzero;fill:url(#linear0);fill-opacity:1;" d="M 50.496094 16.347656 L 50.5 16.347656 C 52.261719 16.347656 53.675781 18.023438 53.675781 20.097656 L 53.675781 37.976562 C 53.675781 40.039062 52.261719 41.714844 50.5 41.714844 L 50.496094 41.714844 C 48.734375 41.714844 47.308594 40.039062 47.308594 37.976562 L 47.308594 20.097656 C 47.308594 18.023438 48.734375 16.347656 50.496094 16.347656 M 50.496094 16.347656 "/>
</g>
</svg>
