<svg xmlns="http://www.w3.org/2000/svg" xmlns:xlink="http://www.w3.org/1999/xlink" width="64" height="64" viewBox="0 0 64 64" version="1.1">
<defs>
<linearGradient id="linear0" gradientUnits="userSpaceOnUse" x1="0" y1="0" x2="0" y2="1" gradientTransform="matrix(64,0,0,64,0.125,0)">
<stop offset="0" style="stop-color:#ff6666;stop-opacity:1;"/>
<stop offset="1" style="stop-color:#d90000;stop-opacity:1;"/>
</linearGradient>
</defs>
<g id="surface1">
<path style=" stroke:none;fill-rule:evenodd;fill:url(#linear0);" d="M 54.382812 59.074219 L 56.738281 59.074219 C 58.125 59.074219 59.199219 58 59.199219 56.617188 L 59.199219 14.769531 L 5.046875 14.769531 L 5.046875 56.617188 C 5.039062 57.273438 5.296875 57.898438 5.761719 58.363281 C 6.222656 58.828125 6.855469 59.085938 7.507812 59.074219 L 8.503906 59.074219 C 7.773438 56.773438 7.375 54.328125 7.375 51.8125 C 7.382812 46.453125 9.183594 41.253906 12.484375 37.03125 L 23.625 56.324219 L 23.636719 56.320312 C 24.269531 57.414062 25.113281 58.347656 26.101562 59.074219 L 37.664062 59.074219 L 39.253906 56.324219 L 39.242188 56.320312 C 40.039062 54.949219 40.457031 53.394531 40.460938 51.8125 C 40.457031 49.59375 39.632812 47.449219 38.144531 45.796875 L 54.714844 45.796875 C 55.230469 47.761719 55.496094 49.785156 55.5 51.8125 C 55.5 54.34375 55.109375 56.785156 54.382812 59.074219 Z M 27.199219 4.925781 L 37.046875 4.925781 C 38.433594 4.925781 39.507812 6 39.507812 7.382812 L 39.507812 9.847656 L 24.738281 9.847656 L 24.738281 7.382812 C 24.738281 6 25.820312 4.925781 27.199219 4.925781 Z M 27.199219 0 C 23.144531 0 19.816406 3.328125 19.816406 7.382812 L 19.816406 9.847656 L 0.125 9.847656 L 0.125 56.617188 C 0.125 60.671875 3.453125 64 7.507812 64 L 56.738281 64 C 60.796875 64 64.125 60.671875 64.125 56.617188 L 64.125 9.847656 L 44.433594 9.847656 L 44.433594 7.382812 C 44.433594 3.328125 41.105469 0 37.046875 0 Z M 31.4375 27.753906 C 25.132812 27.753906 19.078125 30.226562 14.585938 34.648438 L 22.871094 49.003906 C 24.085938 45.300781 27.539062 42.792969 31.4375 42.789062 L 53.730469 42.789062 C 50.054688 33.703125 41.238281 27.757812 31.4375 27.753906 Z M 31.4375 45.796875 C 28.117188 45.796875 25.425781 48.492188 25.421875 51.8125 C 25.421875 53.40625 26.054688 54.9375 27.183594 56.0625 C 28.3125 57.195312 29.839844 57.828125 31.4375 57.828125 C 33.03125 57.828125 34.5625 57.195312 35.691406 56.066406 C 36.820312 54.9375 37.453125 53.40625 37.453125 51.8125 C 37.453125 50.214844 36.820312 48.6875 35.691406 47.558594 C 34.5625 46.433594 33.03125 45.796875 31.4375 45.796875 Z M 31.4375 45.796875 "/>
</g>
</svg>
