<svg xmlns="http://www.w3.org/2000/svg" xmlns:xlink="http://www.w3.org/1999/xlink" width="64" height="64" viewBox="0 0 64 64" version="1.1">
<defs> <linearGradient id="linear0" gradientUnits="userSpaceOnUse" x1="0" y1="0" x2="0" y2="1" gradientTransform="matrix(55.992188,0,0,56,4.003906,4)"> <stop offset="0" style="stop-color:#ff6666;stop-opacity:1;"/> <stop offset="1" style="stop-color:#d90000;stop-opacity:1;"/> </linearGradient> </defs>
<g id="surface1">
<path style=" stroke:none;fill-rule:nonzero;fill:url(#linear0);fill-opacity:1;" d="M 37.734375 26.75 C 37.734375 26.75 28.585938 29.539062 26.832031 31.285156 C 25.082031 33.027344 25.082031 35.855469 26.832031 37.601562 C 28.585938 39.34375 31.425781 39.34375 33.175781 37.601562 C 34.929688 35.855469 37.734375 26.75 37.734375 26.75 "/>
<path style=" stroke:none;fill-rule:nonzero;fill:url(#linear0);fill-opacity:1;" d="M 49.917969 17.066406 L 54.613281 21.75 L 58.640625 17.730469 C 58.640625 17.730469 55.964844 11.09375 46.554688 5.699219 L 42.523438 9.710938 L 47.230469 14.394531 L 46.207031 15.410156 C 41.890625 11.722656 36.292969 9.484375 30.160156 9.484375 C 16.523438 9.484375 5.472656 20.488281 5.472656 34.066406 C 5.472656 47.640625 16.523438 58.644531 30.160156 58.644531 C 43.792969 58.644531 54.847656 47.640625 54.847656 34.066406 C 54.847656 27.953125 52.597656 22.378906 48.898438 18.082031 L 49.917969 17.066406 M 48.785156 34.480469 C 48.78125 34.503906 48.78125 34.519531 48.78125 34.546875 L 49.132812 34.546875 C 48.933594 38.914062 47.234375 43.007812 44.273438 46.238281 L 44.050781 46.011719 C 44.003906 46.070312 43.964844 46.125 43.917969 46.171875 L 40.550781 42.824219 L 39.496094 43.875 L 43.074219 47.429688 C 39.824219 50.382812 35.726562 52.082031 31.328125 52.273438 L 31.328125 52.183594 C 31.210938 52.191406 31.097656 52.203125 30.976562 52.210938 L 30.976562 47.238281 L 29.632812 47.238281 L 29.632812 52.273438 C 28.960938 52.246094 28.300781 52.164062 27.648438 52.070312 C 23.878906 51.578125 20.378906 49.960938 17.539062 47.371094 L 21.117188 43.804688 L 20.117188 42.824219 L 16.6875 46.238281 C 16.621094 46.164062 16.570312 46.085938 16.496094 46.011719 L 16.332031 46.175781 C 13.285156 42.855469 11.664062 38.699219 11.476562 34.488281 L 16.535156 34.488281 L 16.535156 32.851562 L 11.828125 32.851562 C 11.828125 32.835938 11.828125 32.8125 11.828125 32.789062 L 11.476562 32.789062 C 11.667969 28.570312 13.285156 24.417969 16.335938 21.101562 L 16.558594 21.320312 C 16.601562 21.265625 16.644531 21.214844 16.6875 21.164062 L 20.054688 24.523438 L 21.117188 23.464844 L 17.539062 19.90625 C 20.777344 16.953125 24.894531 15.257812 29.277344 15.066406 L 29.277344 15.160156 C 29.390625 15.152344 29.511719 15.132812 29.632812 15.128906 L 29.632812 20.097656 L 30.976562 20.097656 L 30.976562 15.066406 C 31.648438 15.09375 32.304688 15.179688 32.957031 15.273438 C 36.730469 15.765625 40.226562 17.390625 43.066406 19.96875 L 39.496094 23.527344 L 40.488281 24.523438 L 43.914062 21.101562 C 43.980469 21.171875 44.039062 21.253906 44.101562 21.328125 L 44.273438 21.164062 C 47.230469 24.390625 48.933594 28.480469 49.128906 32.851562 L 44.074219 32.851562 L 44.074219 34.480469 Z M 48.785156 34.480469 "/>
</g>
</svg>
