<svg xmlns="http://www.w3.org/2000/svg" xmlns:xlink="http://www.w3.org/1999/xlink" width="64" height="64" viewBox="0 0 64 64" version="1.1">
<defs> <linearGradient id="linear0" gradientUnits="userSpaceOnUse" x1="0" y1="0" x2="0" y2="1" gradientTransform="matrix(55.992188,0,0,56,4.003906,4)"> <stop offset="0" style="stop-color:#ff6666;stop-opacity:1;"/> <stop offset="1" style="stop-color:#d90000;stop-opacity:1;"/> </linearGradient> </defs>
<g id="surface1">
<path style=" stroke:none;fill-rule:nonzero;fill:url(#linear0);fill-opacity:1;" d="M 46.402344 7.769531 L 42.992188 14.414062 L 35.589844 15.550781 L 40.871094 20.835938 L 39.671875 28.199219 L 46.351562 24.828125 L 53.011719 28.238281 L 51.851562 20.867188 L 57.167969 15.621094 L 49.773438 14.4375 L 46.402344 7.777344 M 17.523438 8.320312 C 12.152344 8.320312 7.789062 12.652344 7.789062 18 C 7.789062 23.355469 12.152344 27.695312 17.523438 27.695312 C 22.902344 27.695312 27.257812 23.355469 27.257812 18 C 27.257812 12.652344 22.902344 8.320312 17.523438 8.320312 M 37.492188 36.011719 C 37.023438 36.011719 36.644531 36.390625 36.644531 36.855469 L 36.644531 54.550781 C 36.644531 55.019531 37.023438 55.394531 37.492188 55.394531 L 55.261719 55.394531 C 55.730469 55.394531 56.105469 55.019531 56.105469 54.550781 L 56.105469 36.855469 C 56.105469 36.390625 55.730469 36.011719 55.261719 36.011719 Z M 17.527344 37.261719 L 12.578125 45.605469 L 7.796875 54.046875 L 17.523438 54.144531 L 27.257812 54.046875 L 22.476562 45.605469 L 17.523438 37.261719 "/>
</g>
</svg>
