<svg xmlns="http://www.w3.org/2000/svg" xmlns:xlink="http://www.w3.org/1999/xlink" width="64" height="64" viewBox="0 0 64 64" version="1.1">
<defs>
<linearGradient id="linear0" gradientUnits="userSpaceOnUse" x1="0" y1="0" x2="0" y2="1" gradientTransform="matrix(64,0,0,64,0,0)">
<stop offset="0" style="stop-color:#ff6666;stop-opacity:1;"/>
<stop offset="1" style="stop-color:#d90000;stop-opacity:1;"/>
</linearGradient>
</defs>
<g id="surface1">
<path style=" stroke:none;fill-rule:nonzero;fill:url(#linear0);" d="M 32 0 C 21.839844 0.015625 12.289062 4.851562 6.269531 13.035156 L 16.132812 30.113281 C 16.148438 29.964844 16.167969 29.8125 16.1875 29.664062 C 16.265625 29.136719 16.367188 28.613281 16.5 28.097656 C 16.632812 27.578125 16.789062 27.066406 16.96875 26.566406 C 17.125 26.136719 17.300781 25.710938 17.492188 25.292969 C 17.535156 25.195312 17.578125 25.101562 17.625 25.007812 C 17.804688 24.644531 17.996094 24.292969 18.199219 23.945312 C 18.265625 23.832031 18.328125 23.722656 18.390625 23.613281 C 18.625 23.242188 18.871094 22.878906 19.132812 22.53125 C 19.179688 22.460938 19.230469 22.382812 19.28125 22.3125 C 19.53125 21.984375 19.800781 21.667969 20.074219 21.363281 C 20.160156 21.261719 20.246094 21.160156 20.335938 21.0625 C 20.574219 20.8125 20.820312 20.570312 21.074219 20.335938 C 21.226562 20.191406 21.378906 20.046875 21.535156 19.90625 C 21.753906 19.726562 21.972656 19.554688 22.191406 19.386719 C 22.398438 19.222656 22.609375 19.058594 22.820312 18.90625 C 23.039062 18.757812 23.265625 18.609375 23.492188 18.46875 C 23.660156 18.355469 23.828125 18.246094 24 18.144531 C 24.0625 18.113281 24.128906 18.074219 24.191406 18.042969 C 24.316406 17.976562 24.445312 17.90625 24.566406 17.84375 C 24.832031 17.707031 25.101562 17.578125 25.367188 17.457031 C 25.628906 17.335938 25.890625 17.222656 26.15625 17.121094 C 26.375 17.03125 26.597656 16.953125 26.820312 16.875 C 27.097656 16.78125 27.378906 16.691406 27.664062 16.613281 C 27.910156 16.542969 28.160156 16.480469 28.410156 16.425781 C 28.671875 16.363281 28.9375 16.3125 29.199219 16.265625 C 29.457031 16.214844 29.710938 16.175781 29.96875 16.144531 C 30.246094 16.109375 30.527344 16.085938 30.808594 16.0625 C 31.046875 16.042969 31.292969 16.03125 31.535156 16.023438 C 31.691406 16.015625 31.847656 16.003906 32 16 L 59.664062 16 C 53.957031 6.117188 43.414062 0.015625 32.003906 0 Z M 4.308594 16.023438 C 1.496094 20.878906 0.0117188 26.390625 0 32 C 0 49.671875 14.328125 64 32 64 C 36.40625 63.988281 40.769531 63.0625 44.800781 61.289062 L 44.800781 41.59375 C 44.738281 41.671875 44.679688 41.746094 44.621094 41.824219 C 44.484375 41.992188 44.347656 42.15625 44.207031 42.316406 C 44.007812 42.558594 43.800781 42.796875 43.589844 43.023438 C 43.429688 43.1875 43.265625 43.347656 43.097656 43.503906 C 42.875 43.71875 42.652344 43.929688 42.421875 44.132812 C 42.238281 44.28125 42.058594 44.421875 41.875 44.558594 C 41.648438 44.742188 41.414062 44.925781 41.179688 45.09375 C 40.960938 45.242188 40.734375 45.390625 40.507812 45.53125 C 40.339844 45.640625 40.171875 45.753906 40 45.855469 C 39.9375 45.886719 39.871094 45.925781 39.808594 45.957031 C 39.683594 46.023438 39.554688 46.09375 39.433594 46.15625 C 39.167969 46.292969 38.898438 46.421875 38.632812 46.542969 C 38.371094 46.664062 38.109375 46.777344 37.84375 46.878906 C 37.625 46.96875 37.402344 47.046875 37.179688 47.125 C 36.902344 47.21875 36.621094 47.308594 36.335938 47.386719 C 36.089844 47.457031 35.839844 47.515625 35.589844 47.574219 C 35.328125 47.636719 35.0625 47.6875 34.800781 47.734375 C 34.542969 47.785156 34.289062 47.824219 34.03125 47.855469 C 33.753906 47.886719 33.472656 47.914062 33.191406 47.9375 C 32.953125 47.957031 32.707031 47.96875 32.464844 47.976562 C 32.308594 47.984375 32.15625 47.992188 32 48 C 31.804688 47.996094 31.609375 47.992188 31.410156 47.980469 C 31.324219 47.976562 31.238281 47.972656 31.152344 47.96875 C 30.800781 47.949219 30.449219 47.910156 30.101562 47.867188 C 29.90625 47.847656 29.714844 47.824219 29.519531 47.800781 C 29.191406 47.742188 28.863281 47.675781 28.539062 47.601562 C 28.34375 47.558594 28.144531 47.515625 27.953125 47.46875 C 27.636719 47.382812 27.324219 47.292969 27.011719 47.1875 C 26.8125 47.125 26.613281 47.054688 26.414062 46.984375 C 26.148438 46.878906 25.882812 46.769531 25.621094 46.648438 C 25.378906 46.546875 25.140625 46.441406 24.898438 46.328125 C 24.6875 46.214844 24.480469 46.101562 24.273438 45.980469 C 24.015625 45.84375 23.765625 45.699219 23.515625 45.546875 C 23.3125 45.414062 23.113281 45.285156 22.910156 45.144531 C 22.664062 44.976562 22.421875 44.800781 22.175781 44.617188 C 22.007812 44.484375 21.84375 44.34375 21.679688 44.203125 C 21.441406 44.003906 21.207031 43.800781 20.976562 43.589844 C 20.8125 43.429688 20.652344 43.265625 20.496094 43.097656 C 20.28125 42.875 20.070312 42.652344 19.871094 42.421875 C 19.722656 42.238281 19.578125 42.058594 19.441406 41.875 C 19.257812 41.648438 19.078125 41.414062 18.90625 41.179688 C 18.757812 40.960938 18.609375 40.734375 18.46875 40.503906 C 18.359375 40.339844 18.253906 40.171875 18.144531 40 L 17.957031 39.667969 Z M 41.59375 19.199219 C 41.671875 19.261719 41.746094 19.320312 41.824219 19.378906 C 41.992188 19.515625 42.15625 19.652344 42.320312 19.792969 C 42.558594 19.992188 42.796875 20.199219 43.023438 20.410156 C 43.1875 20.570312 43.347656 20.738281 43.503906 20.90625 C 43.71875 21.125 43.929688 21.351562 44.132812 21.578125 C 44.28125 21.761719 44.421875 21.941406 44.558594 22.125 C 44.742188 22.351562 44.925781 22.585938 45.09375 22.820312 C 45.242188 23.039062 45.390625 23.265625 45.53125 23.492188 C 45.644531 23.660156 45.753906 23.828125 45.855469 24 C 45.886719 24.0625 45.925781 24.128906 45.957031 24.191406 C 46.023438 24.320312 46.09375 24.445312 46.15625 24.566406 C 46.292969 24.832031 46.421875 25.101562 46.542969 25.367188 C 46.664062 25.628906 46.777344 25.890625 46.878906 26.15625 C 46.96875 26.375 47.046875 26.597656 47.125 26.820312 C 47.21875 27.097656 47.308594 27.378906 47.386719 27.664062 C 47.457031 27.910156 47.515625 28.160156 47.574219 28.410156 C 47.636719 28.671875 47.6875 28.9375 47.734375 29.199219 C 47.785156 29.457031 47.824219 29.710938 47.855469 29.96875 C 47.878906 30.113281 47.898438 30.257812 47.914062 30.398438 C 47.925781 30.535156 47.933594 30.671875 47.9375 30.808594 C 47.957031 31.046875 47.96875 31.296875 47.976562 31.539062 C 47.984375 31.691406 47.992188 31.84375 48 32 L 48 59.660156 C 57.882812 53.957031 63.980469 43.414062 64 32 C 63.988281 27.59375 63.0625 23.234375 61.289062 19.199219 Z M 41.59375 19.199219 "/>
</g>
</svg>
