<svg xmlns="http://www.w3.org/2000/svg" xmlns:xlink="http://www.w3.org/1999/xlink" width="64" height="64" viewBox="0 0 64 64" version="1.1">
<defs>
<linearGradient id="linear0" gradientUnits="userSpaceOnUse" x1="0" y1="0" x2="0" y2="1" gradientTransform="matrix(64,0,0,64,0,0)">
<stop offset="0" style="stop-color:#ff6666;stop-opacity:1;"/>
<stop offset="1" style="stop-color:#d90000;stop-opacity:1;"/>
</linearGradient>
</defs>
<g id="surface1">
<path style=" stroke:none;fill-rule:nonzero;fill:url(#linear0);" d="M 32 0 C 31.898438 0 31.796875 0.0078125 31.695312 0.0195312 C 14.199219 0.1875 0 14.46875 0 32 C 0 49.636719 14.363281 64 32 64 C 49.527344 64 63.808594 49.804688 63.980469 32.320312 C 63.992188 32.210938 64 32.105469 64 32 C 64 30.234375 62.566406 28.800781 60.800781 28.800781 C 59.03125 28.800781 57.601562 30.234375 57.601562 32 C 57.601562 46.175781 46.175781 57.601562 32 57.601562 C 17.824219 57.601562 6.398438 46.175781 6.398438 32 C 6.398438 17.824219 17.824219 6.398438 32 6.398438 C 33.765625 6.398438 35.199219 4.96875 35.199219 3.199219 C 35.199219 1.433594 33.765625 0 32 0 Z M 32 12.800781 C 31.898438 12.800781 31.796875 12.804688 31.695312 12.8125 C 21.269531 12.976562 12.800781 21.535156 12.800781 32 C 12.800781 42.566406 21.433594 51.199219 32 51.199219 C 42.457031 51.199219 51.007812 42.738281 51.179688 32.316406 C 51.191406 32.210938 51.199219 32.105469 51.199219 32 C 51.199219 30.230469 49.765625 28.800781 48 28.800781 C 46.234375 28.800781 44.800781 30.230469 44.800781 32 C 44.800781 39.105469 39.105469 44.800781 32 44.800781 C 24.894531 44.800781 19.199219 39.105469 19.199219 32 C 19.199219 24.890625 24.894531 19.199219 32 19.199219 C 33.765625 19.199219 35.199219 17.765625 35.199219 16 C 35.199219 14.230469 33.765625 12.800781 32 12.800781 Z M 32 25.601562 C 28.464844 25.601562 25.601562 28.464844 25.601562 32 C 25.601562 35.535156 28.464844 38.402344 32 38.402344 C 35.535156 38.402344 38.398438 35.535156 38.398438 32 C 38.398438 28.464844 35.535156 25.601562 32 25.601562 Z M 32 25.601562 "/>
</g>
</svg>
