<svg xmlns="http://www.w3.org/2000/svg" xmlns:xlink="http://www.w3.org/1999/xlink" width="64" height="64" viewBox="0 0 64 64" version="1.1">
<defs>
<linearGradient id="linear0" gradientUnits="userSpaceOnUse" x1="0" y1="0" x2="0" y2="1" gradientTransform="matrix(64,0,0,51.996094,0,6.003906)">
<stop offset="0" style="stop-color:#ff6666;stop-opacity:1;"/>
<stop offset="1" style="stop-color:#d90000;stop-opacity:1;"/>
</linearGradient>
</defs>
<g id="surface1">
<path style=" stroke:none;fill-rule:nonzero;fill:url(#linear0);" d="M 32.316406 6.003906 C 31.609375 5.996094 30.898438 6.015625 30.195312 6.0625 C 21.746094 6.65625 13.890625 11.367188 9.484375 19.003906 L 12.949219 21.003906 C 17.925781 12.375 28.074219 8.167969 37.691406 10.753906 C 44.824219 12.660156 50.519531 18.015625 52.863281 25.015625 L 45.335938 27.914062 C 47.738281 30.191406 50.304688 32.464844 53.019531 34.734375 C 55.671875 36.933594 58.375 39.058594 61.136719 41.117188 C 61.835938 37.734375 62.433594 34.335938 62.925781 30.921875 C 63.414062 27.414062 63.777344 24.015625 64 20.730469 L 56.597656 23.578125 C 53.84375 15.558594 47.261719 9.175781 38.726562 6.886719 C 36.636719 6.328125 34.480469 6.027344 32.316406 6.003906 Z M 2.863281 22.882812 C 2.164062 26.265625 1.566406 29.664062 1.074219 33.078125 C 0.585938 36.589844 0.222656 39.984375 0 43.269531 L 7.398438 40.421875 C 10.152344 48.441406 16.738281 54.828125 25.273438 57.113281 C 28.046875 57.859375 30.933594 58.136719 33.804688 57.9375 C 42.246094 57.34375 50.109375 52.636719 54.515625 44.996094 L 51.050781 43 C 46.074219 51.628906 35.925781 55.832031 26.308594 53.246094 C 19.175781 51.34375 13.476562 45.984375 11.136719 38.984375 L 18.664062 36.085938 C 16.171875 33.730469 13.609375 31.460938 10.980469 29.265625 C 8.328125 27.066406 5.625 24.941406 2.863281 22.882812 Z M 2.863281 22.882812 "/>
</g>
</svg>
