<svg xmlns="http://www.w3.org/2000/svg" xmlns:xlink="http://www.w3.org/1999/xlink" width="64" height="64" viewBox="0 0 64 64" version="1.1">
<defs>
<linearGradient id="linear0" gradientUnits="userSpaceOnUse" x1="0" y1="0" x2="0" y2="1" gradientTransform="matrix(74.65625,0,0,74.666667,5.338541,5.333333)">
<stop offset="0" style="stop-color:#ff6666;stop-opacity:1;"/>
<stop offset="1" style="stop-color:#d90000;stop-opacity:1;"/>
</linearGradient>
</defs>
<g id="surface1">
<path style=" stroke:none;fill-rule:nonzero;fill:url(#linear0);" d="M 32.527344 2.699219 C 28.738281 2.632812 24.851562 3.308594 21.058594 4.839844 C 21.058594 4.839844 21.058594 4.839844 21.058594 4.84375 C 6.210938 10.867188 0.171875 24.671875 3.285156 39.179688 C 3.59375 40.621094 5.011719 41.539062 6.449219 41.230469 C 7.890625 40.921875 8.808594 39.503906 8.5 38.0625 C 5.800781 25.484375 10.269531 14.976562 23.058594 9.785156 L 23.0625 9.78125 C 35.546875 4.742188 49.175781 11.082031 54.117188 22.296875 C 54.121094 22.304688 54.121094 22.3125 54.125 22.320312 C 57.78125 30.433594 57.371094 43.238281 46.558594 51.445312 C 35.53125 58.988281 21.675781 56.691406 13.695312 47.886719 C 13.386719 47.503906 13.363281 47.320312 13.410156 46.945312 C 13.460938 46.5625 13.710938 45.992188 14.136719 45.484375 L 29.667969 26.953125 C 29.683594 26.933594 29.699219 26.914062 29.714844 26.898438 C 30.316406 26.140625 30.339844 26.167969 30.363281 26.097656 C 30.484375 26.226562 30.519531 26.226562 30.710938 26.496094 C 30.71875 26.507812 30.726562 26.515625 30.734375 26.527344 L 35.234375 32.644531 C 35.242188 32.65625 35.25 32.667969 35.261719 32.679688 C 35.859375 33.464844 36.382812 34.089844 37.128906 34.636719 C 37.871094 35.183594 39.214844 35.683594 40.457031 35.296875 C 41.695312 34.914062 42.273438 34.109375 42.679688 33.492188 C 43.058594 32.917969 43.324219 32.347656 43.613281 31.742188 L 50.070312 39.226562 C 51.03125 40.339844 52.714844 40.460938 53.832031 39.5 C 54.945312 38.539062 55.070312 36.855469 54.109375 35.742188 L 47.21875 27.753906 C 47.191406 27.722656 47.164062 27.691406 47.132812 27.660156 C 46.535156 27.03125 46.011719 26.507812 45.289062 26.054688 C 44.566406 25.597656 43.320312 25.171875 42.121094 25.546875 C 40.917969 25.921875 40.3125 26.722656 39.894531 27.359375 C 39.574219 27.839844 39.34375 28.359375 39.09375 28.890625 L 35.054688 23.398438 L 35.050781 23.398438 C 34.441406 22.539062 33.8125 21.824219 32.964844 21.257812 C 32.113281 20.695312 30.917969 20.351562 29.832031 20.515625 C 27.65625 20.835938 26.605469 22.238281 25.539062 23.578125 L 10.042969 42.0625 C 10.039062 42.066406 10.035156 42.070312 10.035156 42.074219 C 9.089844 43.207031 8.34375 44.601562 8.125 46.246094 C 7.90625 47.890625 8.355469 49.800781 9.578125 51.292969 C 9.605469 51.324219 9.628906 51.355469 9.65625 51.382812 C 19.402344 62.226562 36.417969 64.898438 49.636719 55.8125 C 49.671875 55.789062 49.703125 55.765625 49.734375 55.742188 C 62.671875 45.960938 63.585938 30.339844 58.988281 20.132812 C 54.414062 9.757812 43.898438 2.898438 32.527344 2.699219 Z M 32.527344 2.699219 "/>
</g>
</svg>
