<svg xmlns="http://www.w3.org/2000/svg" xmlns:xlink="http://www.w3.org/1999/xlink" width="64" height="64" viewBox="0 0 64 64" version="1.1">
<defs>
<linearGradient id="linear0" gradientUnits="userSpaceOnUse" x1="0" y1="0" x2="0" y2="1" gradientTransform="matrix(45.046875,0,0,64,9.476562,0)">
<stop offset="0" style="stop-color:#ff6666;stop-opacity:1;"/>
<stop offset="1" style="stop-color:#d90000;stop-opacity:1;"/>
</linearGradient>
</defs>
<g id="surface1">
<path style=" stroke:none;fill-rule:evenodd;fill:url(#linear0);" d="M 12.933594 29.132812 L 12.933594 19.066406 C 12.933594 8.503906 21.4375 0 32 0 C 42.5625 0 51.0625 8.503906 51.0625 19.066406 L 51.0625 29.132812 L 54.261719 29.132812 C 54.402344 29.132812 54.523438 29.246094 54.523438 29.394531 L 54.523438 63.734375 C 54.523438 63.882812 54.402344 64 54.261719 64 L 9.738281 64 C 9.597656 64 9.476562 63.882812 9.476562 63.734375 L 9.476562 29.394531 C 9.476562 29.246094 9.597656 29.132812 9.738281 29.132812 Z M 18.226562 29.132812 L 18.226562 19.066406 C 18.226562 11.4375 24.371094 5.296875 32 5.296875 C 39.628906 5.296875 45.769531 11.4375 45.769531 19.066406 L 45.769531 29.132812 Z M 34.066406 48.46875 C 36.566406 47.691406 38.386719 45.359375 38.386719 42.605469 C 38.386719 39.21875 35.636719 36.46875 32.246094 36.46875 C 28.863281 36.46875 26.113281 39.21875 26.113281 42.605469 C 26.113281 45.5625 28.207031 48.03125 30.992188 48.613281 L 29.984375 53.164062 L 35.113281 52.9375 Z M 34.066406 48.46875 "/>
</g>
</svg>
