<svg xmlns="http://www.w3.org/2000/svg" xmlns:xlink="http://www.w3.org/1999/xlink" width="64" height="64" viewBox="0 0 64 64" version="1.1">
<defs>
<linearGradient id="linear0" gradientUnits="userSpaceOnUse" x1="0" y1="0" x2="0" y2="1" gradientTransform="matrix(64,0,0,64,0,0)">
<stop offset="0" style="stop-color:#ff6666;stop-opacity:1;"/>
<stop offset="1" style="stop-color:#d90000;stop-opacity:1;"/>
</linearGradient>
</defs>
<g id="surface1">
<path style=" stroke:none;fill-rule:nonzero;fill:url(#linear0);" d="M 51.375 0 L 49.761719 1.644531 L 8.757812 43.222656 L 8.621094 43.429688 C 8.34375 43.882812 7.386719 45.484375 5.957031 48.402344 C 4.519531 51.320312 2.757812 55.304688 1.332031 59.792969 L 0 64 L 4.207031 62.667969 C 8.113281 61.410156 11.921875 59.863281 15.597656 58.042969 C 18.515625 56.609375 20.109375 55.667969 20.570312 55.375 L 20.777344 55.242188 L 64 12.625 Z M 50.285156 36.570312 L 50.285156 41.144531 L 64 41.144531 L 64 36.570312 Z M 13.210938 45.210938 L 18.789062 50.789062 L 17.976562 51.589844 C 18.007812 51.566406 16.242188 52.625 13.582031 53.9375 C 12.601562 54.417969 11.132812 54.953125 9.769531 55.484375 L 8.515625 54.230469 C 9.046875 52.867188 9.582031 51.398438 10.0625 50.417969 C 11.375 47.757812 12.429688 46.003906 12.410156 46.03125 Z M 41.144531 45.714844 L 41.144531 50.285156 L 64 50.285156 L 64 45.714844 Z M 32 54.855469 L 32 59.429688 L 64 59.429688 L 64 54.855469 Z M 32 54.855469 "/>
</g>
</svg>
