<svg xmlns="http://www.w3.org/2000/svg" xmlns:xlink="http://www.w3.org/1999/xlink" width="64" height="64" viewBox="0 0 64 64" version="1.1">
<defs>
<linearGradient id="linear0" gradientUnits="userSpaceOnUse" x1="0" y1="0" x2="0" y2="1" gradientTransform="matrix(56.554688,0,0,64,3.722656,0)">
<stop offset="0" style="stop-color:#ff6666;stop-opacity:1;"/>
<stop offset="1" style="stop-color:#d90000;stop-opacity:1;"/>
</linearGradient>
</defs>
<g id="surface1">
<path style=" stroke:none;fill-rule:evenodd;fill:url(#linear0);" d="M 3.722656 32 C 3.722656 14.328125 18.050781 0 35.722656 0 C 41.246094 0.015625 46.671875 1.457031 51.46875 4.1875 L 44.683594 10.972656 C 41.851562 9.765625 38.800781 9.144531 35.722656 9.144531 C 29.660156 9.144531 23.847656 11.550781 19.558594 15.835938 C 15.273438 20.125 12.867188 25.9375 12.867188 32 C 12.867188 38.0625 15.273438 43.875 19.558594 48.164062 C 23.847656 52.449219 29.660156 54.855469 35.722656 54.855469 C 38.089844 54.847656 40.4375 54.472656 42.691406 53.742188 C 43.285156 53.59375 43.875 53.417969 44.453125 53.175781 L 51.449219 59.851562 C 46.652344 62.566406 41.234375 63.996094 35.722656 64 C 18.050781 64 3.722656 49.671875 3.722656 32 Z M 41.816406 32 C 41.816406 35.367188 39.089844 38.09375 35.722656 38.09375 C 32.355469 38.09375 29.628906 35.367188 29.628906 32 C 29.628906 28.632812 32.355469 25.90625 35.722656 25.90625 C 39.089844 25.90625 41.816406 28.632812 41.816406 32 Z M 60.277344 11.753906 L 45.34375 26.6875 L 41.035156 22.378906 L 55.96875 7.445312 Z M 41.113281 42.765625 L 56.046875 56.632812 L 60.195312 52.167969 L 45.261719 38.300781 Z M 41.113281 42.765625 "/>
</g>
</svg>
