<svg xmlns="http://www.w3.org/2000/svg" xmlns:xlink="http://www.w3.org/1999/xlink" width="64" height="64" viewBox="0 0 64 64" version="1.1">
<defs>
<linearGradient id="linear0" gradientUnits="userSpaceOnUse" x1="0" y1="0" x2="0" y2="1" gradientTransform="matrix(43.207031,0,0,60,10,2)">
<stop offset="0" style="stop-color:#ff6666;stop-opacity:1;"/>
<stop offset="1" style="stop-color:#d90000;stop-opacity:1;"/>
</linearGradient>
</defs>
<g id="surface1">
<path style=" stroke:none;fill-rule:nonzero;fill:url(#linear0);" d="M 26.066406 61.941406 C 25.710938 61.882812 25.410156 61.742188 25.25 61.5625 C 25.078125 61.367188 24.992188 60.972656 24.917969 60.003906 C 24.796875 58.449219 24.988281 57.617188 25.53125 57.339844 C 26.144531 57.027344 27.8125 56.988281 28.371094 57.269531 C 28.738281 57.460938 28.933594 57.859375 28.902344 58.375 L 28.882812 58.726562 L 28.511719 58.75 C 28.097656 58.773438 27.96875 58.675781 27.96875 58.351562 C 27.96875 58.03125 27.753906 57.917969 27.09375 57.890625 C 26.398438 57.863281 26.042969 57.976562 25.9375 58.253906 C 25.828125 58.535156 25.851562 60.550781 25.964844 60.820312 C 26.082031 61.105469 26.339844 61.199219 26.988281 61.199219 C 27.78125 61.199219 28.035156 61.03125 28.035156 60.519531 C 28.035156 60.285156 28.191406 60.183594 28.558594 60.183594 C 28.972656 60.183594 29.011719 60.242188 28.964844 60.753906 C 28.886719 61.558594 28.679688 61.800781 27.941406 61.9375 C 27.492188 62.019531 26.539062 62.023438 26.066406 61.941406 Z M 31.964844 61.9375 C 31.167969 61.796875 31.046875 61.578125 31.046875 60.253906 C 31.046875 59.121094 31.125 58.894531 31.582031 58.667969 C 31.863281 58.53125 32.910156 58.480469 33.398438 58.582031 C 34.035156 58.710938 34.234375 59.183594 34.183594 60.429688 C 34.148438 61.316406 34.027344 61.617188 33.652344 61.808594 C 33.34375 61.96875 32.492188 62.03125 31.964844 61.9375 Z M 33.199219 61.140625 C 33.335938 61.007812 33.347656 60.925781 33.347656 60.253906 C 33.347656 59.570312 33.335938 59.5 33.195312 59.355469 C 33.066406 59.226562 32.96875 59.203125 32.605469 59.203125 C 32.242188 59.203125 32.144531 59.226562 32.015625 59.355469 C 31.871094 59.5 31.859375 59.570312 31.859375 60.242188 C 31.859375 61.011719 31.90625 61.148438 32.195312 61.273438 C 32.445312 61.382812 33.039062 61.300781 33.199219 61.140625 Z M 39.59375 61.945312 C 38.777344 61.800781 38.585938 61.449219 38.613281 60.152344 C 38.632812 59.148438 38.726562 58.910156 39.191406 58.6875 C 39.441406 58.566406 39.621094 58.535156 40.113281 58.535156 C 40.832031 58.53125 41.167969 58.628906 41.394531 58.902344 C 41.660156 59.214844 41.820312 60.238281 41.625 60.367188 C 41.578125 60.398438 41.066406 60.4375 40.492188 60.457031 L 39.441406 60.488281 L 39.449219 60.785156 C 39.457031 61.199219 39.632812 61.332031 40.164062 61.332031 C 40.640625 61.332031 40.800781 61.265625 40.859375 61.027344 C 40.902344 60.863281 40.921875 60.855469 41.289062 60.875 C 41.648438 60.894531 41.679688 60.90625 41.695312 61.066406 C 41.726562 61.296875 41.457031 61.679688 41.167969 61.820312 C 40.886719 61.960938 40.042969 62.023438 39.59375 61.945312 Z M 40.84375 59.644531 C 40.8125 59.273438 40.671875 59.167969 40.191406 59.167969 C 39.714844 59.167969 39.507812 59.277344 39.457031 59.550781 C 39.390625 59.898438 39.433594 59.917969 40.175781 59.898438 L 40.863281 59.878906 Z M 50.898438 61.941406 C 50.539062 61.851562 50.335938 61.703125 50.210938 61.4375 C 49.953125 60.902344 50.160156 60.234375 50.652344 60.011719 C 51.023438 59.84375 51.800781 59.84375 52.117188 60.007812 C 52.316406 60.113281 52.34375 60.113281 52.378906 60.015625 C 52.449219 59.84375 52.355469 59.375 52.230469 59.234375 C 52.140625 59.136719 52.023438 59.101562 51.742188 59.101562 C 51.40625 59.101562 51.355469 59.125 51.15625 59.339844 C 50.96875 59.546875 50.898438 59.578125 50.621094 59.578125 C 50.234375 59.578125 50.171875 59.476562 50.3125 59.074219 C 50.457031 58.652344 50.757812 58.53125 51.660156 58.535156 C 52.234375 58.535156 52.433594 58.5625 52.683594 58.675781 C 53.167969 58.894531 53.226562 59.109375 53.203125 60.660156 L 53.183594 61.914062 L 52.800781 61.933594 C 52.464844 61.949219 52.417969 61.9375 52.386719 61.8125 L 52.347656 61.671875 L 52.121094 61.808594 C 51.851562 61.964844 51.253906 62.03125 50.898438 61.945312 Z M 52.246094 61.230469 C 52.378906 61.097656 52.40625 61.015625 52.375 60.875 C 52.300781 60.578125 52.167969 60.496094 51.699219 60.46875 C 51.296875 60.445312 51.25 60.457031 51.082031 60.621094 C 50.933594 60.769531 50.910156 60.84375 50.941406 61.019531 C 51.003906 61.320312 51.148438 61.402344 51.640625 61.402344 C 52.011719 61.402344 52.097656 61.378906 52.246094 61.230469 Z M 23.203125 61.839844 C 20.265625 61.4375 17.390625 60.046875 15.25 57.988281 C 13.761719 56.554688 12.554688 54.800781 11.855469 53.042969 C 10.933594 50.726562 10.496094 49.035156 10.152344 46.476562 C 10.023438 45.480469 10 45.023438 10 43.09375 C 10 40.785156 10.035156 40.261719 10.375 37.84375 C 11.671875 28.566406 16.445312 18.691406 22.753906 12.230469 C 25.101562 9.824219 27.390625 8.058594 29.796875 6.789062 C 30.582031 6.371094 32.144531 5.710938 32.707031 5.550781 C 33.023438 5.460938 41.820312 2.261719 42.277344 2.070312 C 42.476562 1.984375 42.53125 1.980469 42.503906 2.050781 C 42.484375 2.097656 41.796875 3.816406 40.972656 5.871094 C 40.148438 7.921875 39.476562 9.640625 39.476562 9.695312 C 39.476562 9.746094 39.71875 10.097656 40.015625 10.472656 L 40.550781 11.15625 L 40.5625 34.164062 C 40.566406 47.671875 40.546875 57.171875 40.511719 57.171875 C 40.480469 57.171875 39.90625 56.5625 39.242188 55.820312 C 38.574219 55.074219 37.992188 54.464844 37.945312 54.464844 C 37.898438 54.464844 37.703125 54.722656 37.511719 55.039062 C 37.320312 55.351562 36.949219 55.902344 36.683594 56.257812 C 35.988281 57.1875 34.148438 59.007812 34.027344 58.886719 C 34.011719 58.871094 34.148438 58.648438 34.339844 58.398438 C 35.558594 56.785156 36.382812 54.527344 36.710938 51.894531 C 36.816406 51.03125 36.820312 48.476562 36.714844 47.460938 C 35.855469 39.246094 31.152344 30.789062 25.25 26.839844 C 24.363281 26.246094 22.988281 25.546875 22.195312 25.285156 C 21.890625 25.183594 20.273438 24.605469 18.601562 23.992188 C 16.925781 23.382812 15.535156 22.90625 15.503906 22.9375 C 15.472656 22.96875 15.890625 24.097656 16.429688 25.445312 C 16.96875 26.792969 17.410156 27.933594 17.410156 27.980469 C 17.410156 28.027344 17.257812 28.257812 17.070312 28.484375 L 16.734375 28.90625 L 16.734375 44.003906 C 16.734375 52.5625 16.757812 59.101562 16.792969 59.101562 C 16.824219 59.101562 17.214844 58.691406 17.65625 58.191406 C 18.097656 57.6875 18.480469 57.277344 18.507812 57.277344 C 18.535156 57.277344 18.730469 57.542969 18.949219 57.867188 C 19.441406 58.609375 20.546875 59.765625 21.257812 60.277344 C 22 60.808594 23.058594 61.347656 23.875 61.609375 C 24.246094 61.726562 24.613281 61.847656 24.6875 61.878906 C 24.898438 61.96875 23.972656 61.945312 23.207031 61.839844 Z M 29.554688 61.859375 C 29.539062 61.8125 29.53125 60.738281 29.539062 59.472656 L 29.554688 57.171875 L 30.300781 57.171875 L 30.332031 61.945312 L 29.957031 61.945312 C 29.71875 61.945312 29.570312 61.914062 29.550781 61.859375 Z M 34.902344 61.859375 C 34.882812 61.8125 34.878906 61.058594 34.886719 60.183594 L 34.90625 58.59375 L 35.277344 58.59375 C 35.613281 58.59375 35.652344 58.609375 35.671875 58.746094 C 35.703125 58.933594 35.714844 58.933594 35.949219 58.757812 C 36.433594 58.398438 37.28125 58.453125 37.640625 58.867188 C 37.90625 59.167969 37.929688 59.320312 37.90625 60.726562 L 37.886719 61.910156 L 37.5 61.929688 L 37.117188 61.949219 L 37.09375 60.6875 C 37.074219 59.519531 37.0625 59.421875 36.9375 59.328125 C 36.714844 59.167969 36.488281 59.140625 36.195312 59.242188 C 35.75 59.398438 35.683594 59.605469 35.683594 60.878906 L 35.683594 61.945312 L 35.308594 61.945312 C 35.070312 61.945312 34.921875 61.910156 34.902344 61.859375 Z M 42.160156 61.902344 C 42.136719 61.875 42.117188 61.714844 42.117188 61.542969 C 42.117188 61.242188 42.144531 61.199219 42.929688 60.292969 C 43.375 59.773438 43.738281 59.324219 43.738281 59.292969 C 43.738281 59.261719 43.441406 59.234375 43.082031 59.234375 C 42.71875 59.234375 42.378906 59.207031 42.332031 59.179688 C 42.273438 59.140625 42.25 59.023438 42.261719 58.859375 L 42.285156 58.59375 L 44.855469 58.59375 L 44.875 58.933594 L 44.894531 59.269531 L 44.046875 60.25 C 43.578125 60.785156 43.21875 61.25 43.25 61.277344 C 43.277344 61.304688 43.652344 61.339844 44.078125 61.351562 L 44.855469 61.371094 L 44.855469 61.910156 L 43.53125 61.929688 C 42.804688 61.941406 42.1875 61.929688 42.160156 61.902344 Z M 45.460938 61.859375 C 45.441406 61.8125 45.4375 61.058594 45.445312 60.183594 L 45.46875 58.59375 L 46.210938 58.59375 L 46.25 61.945312 L 45.875 61.945312 C 45.636719 61.945312 45.488281 61.914062 45.46875 61.859375 Z M 47.058594 59.542969 L 47.058594 57.132812 L 47.445312 57.152344 L 47.835938 57.171875 L 47.835938 61.910156 L 47.445312 61.929688 L 47.058594 61.949219 Z M 48.644531 61.859375 C 48.628906 61.8125 48.621094 60.738281 48.628906 59.472656 L 48.644531 57.171875 L 49.011719 57.152344 C 49.257812 57.136719 49.394531 57.160156 49.433594 57.21875 C 49.496094 57.320312 49.511719 61.675781 49.449219 61.839844 C 49.398438 61.972656 48.691406 61.992188 48.640625 61.863281 Z M 45.460938 57.722656 C 45.441406 57.667969 45.433594 57.523438 45.445312 57.398438 C 45.464844 57.171875 45.46875 57.171875 45.859375 57.152344 L 46.253906 57.132812 L 46.234375 57.457031 L 46.210938 57.78125 L 45.855469 57.800781 C 45.59375 57.816406 45.492188 57.796875 45.460938 57.722656 Z M 45.460938 57.722656 "/>
</g>
</svg>
