<svg xmlns="http://www.w3.org/2000/svg" xmlns:xlink="http://www.w3.org/1999/xlink" width="64" height="64" viewBox="0 0 64 64" version="1.1">
<defs>
<linearGradient id="linear0" gradientUnits="userSpaceOnUse" x1="0" y1="0" x2="0" y2="1" gradientTransform="matrix(74.65625,0,0,74.666667,5.338541,5.333333)">
<stop offset="0" style="stop-color:#ff6666;stop-opacity:1;"/>
<stop offset="1" style="stop-color:#d90000;stop-opacity:1;"/>
</linearGradient>
</defs>
<g id="surface1">
<path style=" stroke:none;fill-rule:nonzero;fill:url(#linear0);" d="M 30.429688 6.132812 C 28.386719 6.265625 26.980469 7.664062 26.097656 9.230469 C 26.09375 9.238281 26.085938 9.25 26.082031 9.261719 L 9.613281 39.5625 C 8.945312 40.792969 9.402344 42.332031 10.628906 42.996094 C 11.859375 43.664062 13.398438 43.210938 14.066406 41.980469 L 30.535156 11.679688 L 30.515625 11.707031 C 30.683594 11.414062 30.566406 11.523438 30.632812 11.464844 C 30.671875 11.535156 30.652344 11.496094 30.714844 11.621094 C 30.726562 11.640625 30.734375 11.660156 30.746094 11.679688 L 51.605469 49.824219 L 29.222656 41.234375 C 27.917969 40.734375 26.453125 41.386719 25.953125 42.691406 C 25.453125 44 26.101562 45.464844 27.410156 45.964844 L 52.457031 55.574219 C 53.230469 55.898438 54.042969 56.09375 54.957031 55.996094 C 55.871094 55.894531 56.925781 55.378906 57.53125 54.496094 C 58.742188 52.726562 58.089844 50.859375 57.160156 49.4375 L 57.261719 49.609375 L 35.191406 9.25 L 35.222656 9.3125 C 34.285156 7.476562 32.472656 6 30.429688 6.132812 Z M 32.503906 29.808594 C 30.914062 29.695312 29.65625 30.527344 28.652344 31.417969 C 28.648438 31.417969 28.644531 31.421875 28.640625 31.425781 L 7.503906 50.363281 C 7.484375 50.382812 7.464844 50.402344 7.441406 50.421875 C 6.269531 51.546875 5.46875 53.171875 5.949219 54.957031 C 6.425781 56.742188 8.402344 57.875 10.140625 57.875 L 40.953125 57.875 C 42.351562 57.875 43.488281 56.742188 43.488281 55.339844 C 43.488281 53.941406 42.351562 52.808594 40.953125 52.808594 L 12.371094 52.808594 L 31.59375 35.582031 L 32.058594 38.628906 C 32.269531 40.011719 33.5625 40.960938 34.945312 40.75 C 36.328125 40.539062 37.28125 39.246094 37.066406 37.863281 L 36.484375 34.050781 C 36.480469 34.027344 36.476562 34.007812 36.472656 33.984375 C 36.320312 33.117188 36.0625 32.308594 35.542969 31.558594 C 35.027344 30.8125 34.164062 30.148438 33.203125 29.917969 C 32.964844 29.863281 32.730469 29.828125 32.503906 29.808594 Z M 32.503906 29.808594 "/>
</g>
</svg>
