<svg xmlns="http://www.w3.org/2000/svg" xmlns:xlink="http://www.w3.org/1999/xlink" width="64" height="64" viewBox="0 0 64 64" version="1.1">
<defs> <linearGradient id="linear0" gradientUnits="userSpaceOnUse" x1="0" y1="0" x2="0" y2="1" gradientTransform="matrix(55.992188,0,0,56,4.003906,4)"> <stop offset="0" style="stop-color:#ff6666;stop-opacity:1;"/> <stop offset="1" style="stop-color:#d90000;stop-opacity:1;"/> </linearGradient> </defs>
<g id="surface1">
<path style=" stroke:none;fill-rule:nonzero;fill:url(#linear0);fill-opacity:1;" d="M 20.601562 17.660156 L 16.5 17.824219 C 10.867188 18.046875 8.5 18.910156 5.433594 21.875 C -0.496094 27.597656 0.203125 38.382812 6.820312 43.261719 C 10.238281 45.785156 13.867188 46.550781 21.589844 46.378906 C 26.785156 46.265625 27.722656 45.988281 29.085938 44.167969 C 29.671875 43.386719 29.75 42.8125 29.835938 38.386719 C 29.890625 35.683594 30.035156 33.480469 30.148438 33.480469 C 30.261719 33.480469 31.867188 35.980469 33.714844 39.035156 C 37.066406 44.582031 38.160156 45.871094 40.019531 46.425781 L 40.019531 46.417969 C 41.476562 46.855469 42.398438 46.765625 43.816406 46.039062 C 46.03125 44.910156 46.308594 44.054688 46.308594 38.332031 C 46.308594 35.65625 46.414062 33.472656 46.542969 33.484375 C 46.667969 33.492188 48.234375 35.933594 50.023438 38.910156 C 51.8125 41.890625 53.726562 44.722656 54.277344 45.207031 C 56.839844 47.460938 60.886719 46.933594 62.207031 44.179688 C 62.660156 43.21875 62.722656 41.617188 62.722656 30.421875 L 62.722656 17.742188 L 59.316406 17.742188 L 59.316406 29.632812 C 59.316406 37.246094 59.203125 41.746094 58.996094 42.125 C 58.589844 42.882812 57.105469 42.917969 56.457031 42.183594 C 56.199219 41.890625 53.378906 37.484375 50.199219 32.394531 C 47.019531 27.304688 44.226562 22.949219 44 22.71875 C 43.011719 21.714844 42.902344 22.628906 42.902344 32.203125 C 42.902344 42.003906 42.859375 42.386719 41.621094 42.8125 C 41.339844 42.90625 40.835938 42.792969 40.496094 42.554688 C 40.152344 42.320312 37.261719 37.925781 34.066406 32.789062 C 30.867188 27.648438 28.007812 23.191406 27.710938 22.875 C 26.582031 21.664062 26.492188 22.390625 26.492188 32.207031 C 26.492188 41.160156 26.457031 41.738281 25.898438 42.238281 C 25.367188 42.714844 24.621094 42.761719 18.851562 42.667969 C 12.519531 42.574219 12.359375 42.554688 10.652344 41.714844 C 8.609375 40.71875 6.578125 38.648438 5.636719 36.613281 C 5.09375 35.441406 4.96875 34.589844 4.96875 32.078125 C 4.960938 29.210938 5.035156 28.847656 5.984375 26.917969 C 7.125 24.625 8.726562 23.109375 11.179688 22.011719 C 12.421875 21.449219 13.441406 21.304688 16.65625 21.195312 L 20.601562 21.066406 Z M 54.980469 17.742188 L 54.980469 24.367188 C 54.980469 28.015625 54.855469 31.003906 54.710938 31.003906 C 54.5625 31.003906 53.128906 28.746094 51.535156 25.992188 C 47.453125 18.945312 46.246094 17.742188 43.300781 17.742188 C 41.476562 17.742188 40.152344 18.492188 39.167969 20.082031 C 38.507812 21.140625 38.429688 21.710938 38.269531 26.195312 L 38.097656 31.136719 L 35.058594 25.90625 C 31.628906 19.996094 31.367188 19.636719 29.738281 18.53125 C 28.859375 17.9375 28.175781 17.742188 26.984375 17.742188 C 25.054688 17.746094 23.765625 18.464844 22.738281 20.097656 C 22.011719 21.265625 21.992188 21.457031 21.890625 29.617188 C 21.816406 35.503906 21.679688 38.003906 21.429688 38.167969 C 21.230469 38.292969 19.804688 38.398438 18.261719 38.398438 C 14.558594 38.40625 12.433594 37.777344 10.964844 36.238281 C 7.976562 33.117188 9.152344 27.9375 13.234375 26.234375 C 14.019531 25.914062 15.394531 25.761719 17.496094 25.761719 L 20.601562 25.761719 L 20.601562 22.367188 L 17.050781 22.367188 C 14.234375 22.367188 13.15625 22.496094 11.816406 23 C 8.300781 24.308594 5.976562 27.769531 5.933594 31.75 C 5.875 36.636719 8.402344 40.109375 12.890625 41.308594 C 14.023438 41.605469 16.238281 41.757812 19.742188 41.777344 C 24.554688 41.792969 24.941406 41.753906 25.242188 41.199219 C 25.441406 40.824219 25.558594 37.195312 25.558594 31.539062 C 25.558594 22.238281 25.640625 21.601562 26.796875 21.398438 C 28.019531 21.183594 28.734375 22.117188 34.640625 31.613281 C 38.019531 37.042969 40.925781 41.566406 41.101562 41.679688 C 41.277344 41.789062 41.546875 41.6875 41.691406 41.449219 C 41.839844 41.214844 41.964844 36.78125 41.972656 31.601562 C 41.972656 24.691406 42.074219 22.085938 42.347656 21.8125 C 42.941406 21.214844 44.289062 21.382812 44.96875 22.136719 C 45.3125 22.519531 48.207031 27.027344 51.40625 32.15625 C 54.597656 37.292969 57.351562 41.574219 57.519531 41.679688 C 57.695312 41.789062 57.957031 41.679688 58.105469 41.449219 C 58.253906 41.214844 58.378906 35.78125 58.382812 29.378906 L 58.382812 17.742188 Z M 54.980469 17.742188 "/>
</g>
</svg>
