<svg xmlns="http://www.w3.org/2000/svg" xmlns:xlink="http://www.w3.org/1999/xlink" width="64" height="64" viewBox="0 0 64 64" version="1.1">
<defs>
<linearGradient id="linear0" gradientUnits="userSpaceOnUse" x1="0" y1="0" x2="0" y2="1" gradientTransform="matrix(74.65625,0,0,74.666667,5.338541,5.333333)">
<stop offset="0" style="stop-color:#ff6666;stop-opacity:1;"/>
<stop offset="1" style="stop-color:#d90000;stop-opacity:1;"/>
</linearGradient>
</defs>
<g id="surface1">
<path style=" stroke:none;fill-rule:nonzero;fill:url(#linear0);" d="M 12.132812 4.03125 C 10 4.03125 7.945312 4.726562 6.453125 6.167969 C 4.957031 7.609375 4.144531 9.71875 4.144531 12.015625 L 4.144531 20.921875 C 4.144531 23.175781 4.632812 25.347656 6.015625 27.054688 C 7.394531 28.761719 9.652344 29.722656 12.132812 29.722656 L 21.515625 29.722656 C 22.84375 29.722656 23.917969 28.648438 23.917969 27.320312 C 23.917969 25.996094 22.84375 24.921875 21.515625 24.921875 L 12.132812 24.921875 C 10.726562 24.921875 10.1875 24.582031 9.746094 24.035156 C 9.304688 23.488281 8.945312 22.457031 8.945312 20.921875 L 8.945312 12.015625 C 8.945312 10.773438 9.296875 10.089844 9.78125 9.625 C 10.269531 9.15625 11.003906 8.832031 12.132812 8.832031 L 23.003906 8.832031 C 24.429688 8.832031 25.074219 9.164062 25.457031 9.5625 C 25.839844 9.957031 26.164062 10.652344 26.164062 12.015625 L 26.164062 27.320312 C 26.164062 28.644531 27.238281 29.71875 28.5625 29.71875 C 29.886719 29.714844 30.960938 28.644531 30.960938 27.320312 L 30.960938 12.015625 C 30.960938 9.824219 30.367188 7.726562 28.898438 6.21875 C 27.433594 4.710938 25.300781 4.03125 23.003906 4.03125 Z M 11.867188 33.148438 C 9.671875 33.148438 7.574219 33.75 6.066406 35.214844 C 4.558594 36.679688 3.882812 38.8125 3.882812 41.109375 L 3.882812 51.980469 C 3.882812 54.113281 4.578125 56.167969 6.015625 57.664062 C 7.457031 59.15625 9.570312 59.96875 11.867188 59.96875 L 20.773438 59.96875 C 23.027344 59.96875 25.195312 59.476562 26.902344 58.097656 C 28.609375 56.71875 29.570312 54.460938 29.570312 51.980469 L 29.570312 42.59375 C 29.570312 41.269531 28.496094 40.199219 27.171875 40.195312 C 25.847656 40.195312 24.773438 41.269531 24.773438 42.59375 L 24.773438 51.980469 C 24.773438 53.386719 24.429688 53.925781 23.882812 54.367188 C 23.335938 54.808594 22.308594 55.167969 20.773438 55.167969 L 11.867188 55.167969 C 10.621094 55.167969 9.941406 54.816406 9.472656 54.332031 C 9.003906 53.847656 8.679688 53.109375 8.679688 51.980469 L 8.679688 41.109375 C 8.679688 39.6875 9.015625 39.039062 9.414062 38.65625 C 9.808594 38.269531 10.5 37.949219 11.867188 37.949219 L 27.167969 37.949219 C 28.492188 37.949219 29.566406 36.875 29.570312 35.550781 C 29.570312 34.222656 28.496094 33.148438 27.167969 33.148438 Z M 42.746094 34.101562 C 41.417969 34.101562 40.34375 35.175781 40.34375 36.5 C 40.347656 37.828125 41.421875 38.898438 42.746094 38.898438 L 52.132812 38.898438 C 53.539062 38.898438 54.074219 39.242188 54.515625 39.789062 C 54.957031 40.335938 55.320312 41.367188 55.320312 42.902344 L 55.320312 51.804688 C 55.320312 53.050781 54.964844 53.730469 54.480469 54.199219 C 53.996094 54.667969 53.257812 54.992188 52.132812 54.992188 L 41.257812 54.992188 C 39.835938 54.992188 39.191406 54.65625 38.804688 54.261719 C 38.421875 53.867188 38.101562 53.171875 38.101562 51.804688 L 38.101562 36.503906 C 38.097656 35.179688 37.023438 34.105469 35.699219 34.105469 C 34.375 34.105469 33.300781 35.179688 33.300781 36.503906 L 33.300781 51.804688 C 33.300781 54 33.898438 56.097656 35.363281 57.605469 C 36.828125 59.113281 38.960938 59.792969 41.257812 59.792969 L 52.132812 59.792969 C 54.261719 59.792969 56.316406 59.09375 57.8125 57.65625 C 59.304688 56.214844 60.117188 54.101562 60.117188 51.804688 L 60.117188 42.902344 C 60.117188 40.648438 59.628906 38.476562 58.25 36.769531 C 56.867188 35.0625 54.613281 34.101562 52.132812 34.101562 Z M 42.746094 34.101562 "/>
</g>
</svg>
