<svg xmlns="http://www.w3.org/2000/svg" xmlns:xlink="http://www.w3.org/1999/xlink" width="64" height="64" viewBox="0 0 64 64" version="1.1">
<defs> <linearGradient id="linear0" gradientUnits="userSpaceOnUse" x1="0" y1="0" x2="0" y2="1" gradientTransform="matrix(55.992188,0,0,56,4.003906,4)"> <stop offset="0" style="stop-color:#ff6666;stop-opacity:1;"/> <stop offset="1" style="stop-color:#d90000;stop-opacity:1;"/> </linearGradient> </defs>
<g id="surface1">
<path style=" stroke:none;fill-rule:nonzero;fill:url(#linear0);fill-opacity:1;" d="M 32.054688 -1.675781 C 22.539062 -1.675781 14.820312 5.984375 14.820312 15.433594 C 14.820312 15.960938 14.84375 16.480469 14.886719 16.996094 C 17.082031 15.988281 19.527344 15.433594 22.101562 15.433594 C 23.304688 15.433594 24.492188 15.558594 25.628906 15.789062 C 25.621094 15.671875 25.609375 15.550781 25.609375 15.433594 C 25.609375 11.898438 28.496094 9.03125 32.054688 9.03125 C 35.617188 9.03125 38.5 11.898438 38.5 15.433594 C 38.5 15.550781 38.492188 15.671875 38.484375 15.789062 C 39.621094 15.558594 40.800781 15.433594 42.003906 15.433594 C 44.578125 15.433594 47.03125 15.988281 49.222656 16.996094 C 49.269531 16.480469 49.292969 15.960938 49.292969 15.433594 C 49.292969 5.984375 41.574219 -1.675781 32.054688 -1.675781 Z M 31.175781 17.648438 C 22.21875 17.582031 14.835938 27.445312 17.582031 35.972656 C 19.6875 44.214844 29.902344 49.265625 37.671875 45.382812 C 39.050781 44.738281 40.625 43.804688 41.476562 42.652344 C 38.667969 40.066406 41.484375 42.667969 38.621094 40.078125 C 33.078125 45.15625 22.613281 41.960938 21.402344 34.402344 C 20.160156 28.847656 24.015625 22.582031 29.835938 21.863281 C 33.03125 21.296875 36.46875 22.242188 38.820312 24.480469 C 37.671875 25.628906 36.523438 26.761719 35.359375 27.898438 C 39.238281 28.695312 42.714844 29.34375 47.019531 30.144531 C 44.664062 18.730469 45.265625 21.914062 44.574219 18.65625 C 43.480469 19.597656 43.636719 19.347656 41.402344 21.570312 C 38.808594 18.78125 34.90625 17.558594 31.175781 17.648438 Z M 53.226562 26.292969 C 52.882812 30.050781 51.308594 33.460938 48.910156 36.125 C 51.011719 37.179688 52.453125 39.339844 52.453125 41.832031 C 52.453125 45.367188 49.574219 48.230469 46.015625 48.230469 C 44.714844 48.230469 43.492188 47.851562 42.484375 47.1875 C 41.320312 50.699219 39.046875 53.714844 36.066406 55.808594 C 38.875 57.78125 42.304688 58.941406 46.015625 58.941406 C 55.53125 58.941406 63.25 51.28125 63.25 41.832031 C 63.25 34.9375 59.144531 29 53.226562 26.292969 Z M 10.664062 27.621094 C 4.746094 30.328125 0.640625 36.269531 0.640625 43.160156 C 0.640625 52.613281 8.359375 60.269531 17.875 60.269531 C 21.582031 60.269531 25.015625 59.109375 27.824219 57.136719 C 24.84375 55.042969 22.570312 52.03125 21.40625 48.515625 C 20.398438 49.179688 19.175781 49.558594 17.875 49.558594 C 14.316406 49.558594 11.4375 46.695312 11.4375 43.160156 C 11.4375 40.667969 12.878906 38.507812 14.980469 37.457031 C 12.582031 34.796875 11.007812 31.382812 10.664062 27.621094 Z M 10.664062 27.621094 "/>
</g>
</svg>
