<svg xmlns="http://www.w3.org/2000/svg" xmlns:xlink="http://www.w3.org/1999/xlink" width="64" height="64" viewBox="0 0 64 64" version="1.1">
<defs>
<linearGradient id="linear0" gradientUnits="userSpaceOnUse" x1="0" y1="0" x2="0" y2="1" gradientTransform="matrix(64,0,0,45.710938,0,9.144531)">
<stop offset="0" style="stop-color:#ff6666;stop-opacity:1;"/>
<stop offset="1" style="stop-color:#d90000;stop-opacity:1;"/>
</linearGradient>
</defs>
<g id="surface1">
<path style=" stroke:none;fill-rule:evenodd;fill:url(#linear0);" d="M 57.902344 48.761719 L 57.902344 24.378906 L 45.714844 24.378906 L 45.714844 48.761719 L 51.808594 48.761719 L 51.808594 54.855469 L 64 54.855469 L 64 48.761719 Z M 24.378906 21.332031 L 21.332031 21.332031 L 21.332031 15.238281 L 12.191406 15.238281 L 12.191406 48.761719 L 21.332031 48.761719 L 21.332031 42.667969 L 24.378906 42.667969 Z M 30.476562 21.332031 L 30.476562 15.238281 L 27.429688 15.238281 L 27.429688 9.144531 L 0 9.144531 L 0 54.855469 L 27.429688 54.855469 L 27.429688 48.761719 L 30.476562 48.761719 L 30.476562 42.667969 L 36.570312 42.667969 L 36.570312 21.332031 Z M 45.714844 9.144531 L 57.902344 9.144531 L 57.902344 15.238281 L 45.714844 15.238281 Z M 45.714844 9.144531 "/>
</g>
</svg>
