<svg xmlns="http://www.w3.org/2000/svg" xmlns:xlink="http://www.w3.org/1999/xlink" width="64" height="64" viewBox="0 0 64 64" version="1.1">
<defs>
<linearGradient id="linear0" gradientUnits="userSpaceOnUse" x1="0" y1="0" x2="0" y2="1" gradientTransform="matrix(57.664062,0,0,64,3.167969,0)">
<stop offset="0" style="stop-color:#ff6666;stop-opacity:1;"/>
<stop offset="1" style="stop-color:#d90000;stop-opacity:1;"/>
</linearGradient>
</defs>
<g id="surface1">
<path style=" stroke:none;fill-rule:evenodd;fill:url(#linear0);" d="M 28.113281 49.890625 C 27.976562 48.078125 27.90625 46.265625 27.910156 44.449219 C 27.910156 42.304688 28.113281 40.398438 28.324219 38.398438 L 21.746094 38.398438 C 22.152344 39.898438 22.382812 41.78125 22.382812 44.148438 C 22.382812 46.511719 22.152344 48.390625 21.746094 49.890625 Z M 9.617188 44.148438 C 9.617188 41.78125 9.847656 39.898438 10.253906 38.398438 L 3.675781 38.398438 C 3.886719 40.398438 4.089844 42.304688 4.089844 44.449219 C 4.089844 46.59375 4.003906 48.332031 3.886719 49.890625 L 10.253906 49.890625 C 9.847656 48.390625 9.617188 46.511719 9.617188 44.148438 Z M 28.332031 52.445312 L 20.691406 52.445312 C 19.523438 54.3125 17.855469 54.996094 16 54.996094 C 14.144531 54.996094 12.476562 54.3125 11.308594 52.445312 L 3.667969 52.445312 L 3.597656 53.15625 C 3.375 55.386719 3.167969 57.496094 3.167969 60.300781 C 3.167969 62.375 4.769531 64 6.808594 64 L 25.191406 64 C 27.230469 64 28.832031 62.375 28.832031 60.300781 C 28.832031 57.496094 28.625 55.386719 28.402344 53.15625 Z M 21.109375 6.597656 L 10.890625 6.597656 C 10.132812 6.597656 9.511719 5.976562 9.511719 5.210938 L 9.511719 3.9375 C 9.511719 1.765625 11.277344 0 13.449219 0 L 18.550781 0 C 20.722656 0 22.488281 1.765625 22.488281 3.9375 L 22.488281 5.210938 C 22.488281 5.976562 21.871094 6.597656 21.109375 6.597656 Z M 22.339844 19.574219 L 21.304688 9.128906 C 21.234375 9.132812 21.171875 9.148438 21.109375 9.148438 L 10.890625 9.148438 C 10.828125 9.148438 10.765625 9.132812 10.699219 9.128906 L 9.660156 19.574219 C 8.148438 20.949219 3.167969 25.855469 3.167969 30.9375 C 3.167969 32.734375 3.28125 34.332031 3.421875 35.847656 L 11.308594 35.847656 C 12.476562 33.976562 14.144531 33.296875 16 33.296875 C 17.855469 33.296875 19.523438 33.976562 20.691406 35.847656 L 28.585938 35.847656 C 28.722656 34.332031 28.832031 32.734375 28.832031 30.9375 C 28.832031 25.859375 23.851562 20.953125 22.339844 19.574219 Z M 60.113281 49.890625 C 59.976562 48.078125 59.90625 46.265625 59.910156 44.449219 C 59.910156 42.304688 60.113281 40.398438 60.324219 38.398438 L 53.746094 38.398438 C 54.152344 39.898438 54.382812 41.78125 54.382812 44.148438 C 54.382812 46.511719 54.152344 48.390625 53.746094 49.890625 Z M 41.617188 44.148438 C 41.617188 41.78125 41.847656 39.898438 42.253906 38.398438 L 35.675781 38.398438 C 35.886719 40.398438 36.089844 42.304688 36.089844 44.449219 C 36.089844 46.59375 36.003906 48.332031 35.886719 49.890625 L 42.253906 49.890625 C 41.847656 48.390625 41.617188 46.511719 41.617188 44.148438 Z M 60.332031 52.445312 L 52.691406 52.445312 C 51.523438 54.3125 49.855469 54.996094 48 54.996094 C 46.144531 54.996094 44.476562 54.3125 43.308594 52.445312 L 35.667969 52.445312 L 35.597656 53.15625 C 35.375 55.386719 35.167969 57.496094 35.167969 60.300781 C 35.167969 62.375 36.769531 64 38.808594 64 L 57.191406 64 C 59.230469 64 60.832031 62.375 60.832031 60.300781 C 60.832031 57.496094 60.625 55.386719 60.402344 53.15625 Z M 53.109375 6.597656 L 42.890625 6.597656 C 42.132812 6.597656 41.511719 5.976562 41.511719 5.210938 L 41.511719 3.9375 C 41.511719 1.765625 43.277344 0 45.449219 0 L 50.550781 0 C 52.722656 0 54.488281 1.765625 54.488281 3.9375 L 54.488281 5.210938 C 54.488281 5.976562 53.871094 6.597656 53.109375 6.597656 Z M 54.339844 19.574219 L 53.304688 9.128906 C 53.234375 9.132812 53.171875 9.148438 53.109375 9.148438 L 42.890625 9.148438 C 42.828125 9.148438 42.765625 9.132812 42.699219 9.128906 L 41.660156 19.574219 C 40.148438 20.949219 35.167969 25.855469 35.167969 30.9375 C 35.167969 32.734375 35.28125 34.332031 35.421875 35.847656 L 43.308594 35.847656 C 44.476562 33.976562 46.144531 33.296875 48 33.296875 C 49.855469 33.296875 51.523438 33.976562 52.691406 35.847656 L 60.585938 35.847656 C 60.722656 34.332031 60.832031 32.734375 60.832031 30.9375 C 60.832031 25.859375 55.851562 20.953125 54.339844 19.574219 Z M 54.339844 19.574219 "/>
</g>
</svg>
