<svg xmlns="http://www.w3.org/2000/svg" xmlns:xlink="http://www.w3.org/1999/xlink" width="64" height="64" viewBox="0 0 64 64" version="1.1">
<defs>
<linearGradient id="linear0" gradientUnits="userSpaceOnUse" x1="0" y1="0" x2="0" y2="1" gradientTransform="matrix(41.601562,0,0,64,11.199219,0)">
<stop offset="0" style="stop-color:#ff6666;stop-opacity:1;"/>
<stop offset="1" style="stop-color:#d90000;stop-opacity:1;"/>
</linearGradient>
</defs>
<g id="surface1">
<path style=" stroke:none;fill-rule:nonzero;fill:url(#linear0);" d="M 11.199219 0 L 11.199219 63.976562 L 22.398438 64 L 22.398438 41.101562 C 23.121094 41.644531 24.257812 42.777344 25.03125 43.199219 L 41.847656 43.199219 C 48.519531 39.550781 52.792969 30.988281 52.800781 22.308594 C 52.800781 9.988281 44.339844 0 33.902344 0 C 30.292969 0.0078125 25.441406 1.238281 22.398438 3.546875 L 22.398438 0 Z M 21.960938 6.390625 C 23.160156 6.425781 24.253906 7.109375 25.53125 8.113281 C 27.71875 9.839844 30.449219 12.144531 32.839844 14.550781 C 34.261719 14.324219 36.085938 14.261719 38.546875 14.394531 C 41.183594 12.214844 43.535156 12.742188 45.792969 14.144531 C 46.496094 16.976562 45.40625 17.769531 45.53125 18.6875 L 45.859375 21.09375 C 44.140625 21.910156 42.609375 20.828125 41.074219 19.800781 L 41.140625 19.945312 L 40.191406 24.152344 C 39.957031 28.277344 40.59375 31.382812 42.441406 34.8125 L 40.925781 35.507812 C 39.902344 32.929688 38.632812 30.472656 38.492188 27.457031 C 36.285156 29.96875 37.980469 33.324219 38.839844 36.496094 L 36.679688 37.9375 C 35.425781 36.449219 35.011719 31.765625 34.667969 26.835938 C 33.925781 28.5 33.199219 30.171875 32.003906 31.609375 C 32.523438 33.921875 32.523438 36.230469 31.195312 38.542969 L 29.140625 39.929688 L 28.386719 31.191406 C 27.683594 33.136719 27.195312 36.996094 26.277344 36.980469 C 25.335938 32.128906 28.105469 28.589844 30.585938 24.949219 L 29.984375 25.234375 L 25.707031 29.0625 C 22.363281 30.820312 8.679688 37.949219 21.160156 20.808594 C 22.386719 19.125 24.207031 21.023438 26.414062 18.835938 C 26.578125 18.652344 26.722656 18.488281 26.878906 18.3125 C 23.335938 17.09375 18.003906 14.894531 17.597656 12.160156 C 17.597656 12.160156 17.472656 9.148438 18.347656 8.074219 C 19.765625 6.847656 20.898438 6.363281 21.960938 6.390625 Z M 21.960938 6.390625 "/>
</g>
</svg>
