<svg xmlns="http://www.w3.org/2000/svg" xmlns:xlink="http://www.w3.org/1999/xlink" width="64" height="64" viewBox="0 0 64 64" version="1.1">
<defs>
<linearGradient id="linear0" gradientUnits="userSpaceOnUse" x1="0" y1="0" x2="0" y2="1" gradientTransform="matrix(52.574219,0,0,55.65625,5.710938,4.171875)">
<stop offset="0" style="stop-color:#ff6666;stop-opacity:1;"/>
<stop offset="1" style="stop-color:#d90000;stop-opacity:1;"/>
</linearGradient>
<linearGradient id="linear1" gradientUnits="userSpaceOnUse" x1="0" y1="0" x2="0" y2="1" gradientTransform="matrix(61.710938,0,0,64,1.144531,0)">
<stop offset="0" style="stop-color:#ff6666;stop-opacity:1;"/>
<stop offset="1" style="stop-color:#d90000;stop-opacity:1;"/>
</linearGradient>
</defs>
<g id="surface1">
<path style=" stroke:none;fill-rule:evenodd;fill:url(#linear0);" d="M 12.570312 39.027344 L 24.882812 32.871094 L 12.570312 25.480469 Z M 16.800781 44.570312 L 31.84375 37.046875 L 32 37.144531 L 32.15625 37.046875 L 47.199219 44.570312 L 32 52.171875 Z M 51.429688 39.027344 L 39.117188 32.871094 L 51.429688 25.480469 Z M 47.742188 19.699219 L 32 29.144531 L 16.257812 19.699219 L 32 11.828125 Z M 5.710938 17.3125 L 32 4.171875 L 58.285156 17.3125 L 58.285156 46.683594 L 32 59.828125 L 5.710938 46.683594 Z M 5.710938 17.3125 "/>
<path style=" stroke:none;fill-rule:evenodd;fill:url(#linear1);" d="M 24 8 C 24 3.585938 27.585938 0 32 0 C 36.414062 0 40 3.585938 40 8 C 40 12.414062 36.414062 16 32 16 C 27.585938 16 24 12.414062 24 8 Z M 24 56 C 24 51.585938 27.585938 48 32 48 C 36.414062 48 40 51.585938 40 56 C 40 60.414062 36.414062 64 32 64 C 27.585938 64 24 60.414062 24 56 Z M 50.855469 12.5 C 54.679688 10.292969 59.574219 11.605469 61.785156 15.429688 C 63.992188 19.253906 62.679688 24.148438 58.855469 26.355469 C 55.03125 28.5625 50.136719 27.253906 47.929688 23.429688 C 45.71875 19.605469 47.03125 14.707031 50.855469 12.5 Z M 5.144531 37.644531 C 8.96875 35.4375 13.863281 36.746094 16.070312 40.570312 C 18.28125 44.394531 16.96875 49.292969 13.144531 51.5 C 9.320312 53.707031 4.425781 52.394531 2.214844 48.570312 C 0.0078125 44.746094 1.320312 39.851562 5.144531 37.644531 Z M 58.855469 37.644531 C 62.679688 39.851562 63.992188 44.746094 61.785156 48.570312 C 59.574219 52.394531 54.679688 53.707031 50.855469 51.5 C 47.03125 49.292969 45.71875 44.394531 47.929688 40.570312 C 50.136719 36.746094 55.03125 35.4375 58.855469 37.644531 Z M 13.144531 12.5 C 16.96875 14.707031 18.28125 19.605469 16.070312 23.429688 C 13.863281 27.253906 8.96875 28.5625 5.144531 26.355469 C 1.320312 24.148438 0.0078125 19.253906 2.214844 15.429688 C 4.425781 11.605469 9.320312 10.292969 13.144531 12.5 Z M 13.144531 12.5 "/>
</g>
</svg>
