<svg xmlns="http://www.w3.org/2000/svg" xmlns:xlink="http://www.w3.org/1999/xlink" width="64" height="64" viewBox="0 0 64 64" version="1.1">
<defs>
<linearGradient id="linear0" gradientUnits="userSpaceOnUse" x1="0" y1="0" x2="0" y2="1" gradientTransform="matrix(74.65625,0,0,74.666667,5.338541,5.333333)">
<stop offset="0" style="stop-color:#ff6666;stop-opacity:1;"/>
<stop offset="1" style="stop-color:#d90000;stop-opacity:1;"/>
</linearGradient>
</defs>
<g id="surface1">
<path style=" stroke:none;fill-rule:nonzero;fill:url(#linear0);" d="M 11.898438 5.445312 C 9.847656 5.445312 7.835938 6.117188 6.371094 7.53125 C 4.902344 8.945312 4.113281 11.019531 4.113281 13.222656 L 4.113281 50.027344 C 4.113281 52.164062 4.578125 54.261719 5.933594 55.9375 C 7.289062 57.613281 9.523438 58.554688 11.898438 58.554688 C 13.371094 58.554688 14.566406 57.359375 14.566406 55.886719 C 14.566406 54.414062 13.371094 53.222656 11.898438 53.222656 C 10.714844 53.222656 10.390625 52.96875 10.078125 52.582031 C 9.765625 52.195312 9.449219 51.363281 9.449219 50.027344 L 9.449219 13.222656 C 9.449219 12.1875 9.722656 11.707031 10.070312 11.371094 C 10.417969 11.039062 10.964844 10.777344 11.898438 10.777344 L 52.128906 10.777344 C 53.347656 10.777344 53.792969 11.050781 54.039062 11.304688 C 54.285156 11.558594 54.550781 12.054688 54.550781 13.222656 L 54.550781 50.027344 C 54.550781 51.222656 54.210938 52.046875 53.816406 52.511719 C 53.421875 52.980469 53.003906 53.222656 52.128906 53.222656 L 18.839844 53.222656 C 17.367188 53.222656 16.171875 54.414062 16.171875 55.886719 C 16.171875 57.359375 17.367188 58.554688 18.839844 58.554688 L 52.128906 58.554688 C 54.394531 58.554688 56.523438 57.570312 57.886719 55.957031 C 59.253906 54.347656 59.886719 52.242188 59.886719 50.027344 L 59.886719 13.222656 C 59.886719 11.136719 59.308594 9.078125 57.863281 7.589844 C 56.414062 6.097656 54.316406 5.445312 52.128906 5.445312 Z M 30.167969 16.449219 C 28.953125 16.449219 27.5625 16.617188 26.34375 17.628906 C 25.125 18.640625 24.628906 20.28125 24.628906 21.753906 L 24.628906 26.726562 C 24.628906 28.199219 25.820312 29.394531 27.292969 29.394531 C 28.765625 29.394531 29.960938 28.199219 29.960938 26.726562 L 29.960938 21.757812 C 30.019531 21.746094 29.867188 21.785156 30.167969 21.785156 L 41.066406 21.785156 C 42.757812 21.785156 43.667969 22.304688 44.3125 23.011719 C 44.957031 23.71875 45.324219 24.738281 45.316406 25.808594 C 45.308594 26.875 44.921875 27.917969 44.261719 28.636719 C 43.597656 29.359375 42.695312 29.871094 41.066406 29.871094 L 22.375 29.871094 C 22.371094 29.871094 22.371094 29.871094 22.367188 29.871094 C 16.457031 29.886719 12.710938 34.582031 12.683594 39.144531 C 12.667969 41.429688 13.464844 43.753906 15.144531 45.535156 C 16.824219 47.320312 19.386719 48.441406 22.371094 48.445312 C 22.371094 48.445312 22.375 48.445312 22.375 48.445312 L 24.457031 48.445312 C 25.976562 48.445312 27.605469 47.863281 28.578125 46.683594 C 29.550781 45.503906 29.769531 44.136719 29.769531 42.949219 L 29.769531 38.363281 C 29.769531 36.890625 28.574219 35.695312 27.101562 35.695312 C 25.628906 35.695312 24.433594 36.890625 24.433594 38.363281 L 24.433594 42.949219 C 24.433594 43.175781 24.460938 43.0625 24.449219 43.113281 L 22.375 43.113281 C 20.636719 43.109375 19.679688 42.574219 19.023438 41.878906 C 18.367188 41.179688 18.007812 40.203125 18.015625 39.179688 C 18.027344 37.136719 19 35.21875 22.375 35.207031 L 41.066406 35.207031 C 44 35.207031 46.539062 34.042969 48.1875 32.246094 C 49.835938 30.453125 50.632812 28.136719 50.648438 25.847656 C 50.664062 23.5625 49.902344 21.226562 48.25 19.417969 C 46.597656 17.605469 44.039062 16.449219 41.066406 16.449219 Z M 30.167969 16.449219 "/>
</g>
</svg>
