<svg xmlns="http://www.w3.org/2000/svg" xmlns:xlink="http://www.w3.org/1999/xlink" width="64" height="64" viewBox="0 0 64 64" version="1.1">
<defs>
<linearGradient id="linear0" gradientUnits="userSpaceOnUse" x1="0" y1="0" x2="0" y2="1" gradientTransform="matrix(64,0,0,52.210938,0,5.894531)">
<stop offset="0" style="stop-color:#ff6666;stop-opacity:1;"/>
<stop offset="1" style="stop-color:#d90000;stop-opacity:1;"/>
</linearGradient>
</defs>
<g id="surface1">
<path style=" stroke:none;fill-rule:evenodd;fill:url(#linear0);" d="M 28.933594 14.9375 C 26.339844 19.328125 23.742188 23.710938 21.152344 27.878906 C 19.816406 29.914062 17.808594 31.207031 15.804688 31.207031 C 8.777344 31.160156 8.933594 27.367188 5.945312 23.179688 C 6.449219 22.617188 6.734375 21.867188 6.734375 21.050781 C 6.734375 19.191406 5.226562 17.683594 3.367188 17.683594 C 1.507812 17.683594 0 19.191406 0 21.050781 C 0 22.832031 1.382812 24.292969 3.132812 24.410156 L 3.320312 24.941406 C 4.65625 30.144531 5.773438 35.804688 7.109375 41.6875 C 7.332031 42.597656 8 43.273438 8.890625 43.273438 C 16.472656 44.179688 24.273438 44.632812 32.074219 44.632812 C 39.875 44.632812 47.675781 44.179688 55.257812 43.273438 C 55.925781 43.273438 56.59375 42.597656 56.816406 41.6875 C 58.152344 35.804688 59.269531 30.144531 60.609375 24.941406 L 60.785156 24.414062 C 62.570312 24.335938 64 22.859375 64 21.050781 C 64 19.191406 62.492188 17.683594 60.632812 17.683594 C 58.773438 17.683594 57.265625 19.191406 57.265625 21.050781 C 57.265625 22.015625 57.667969 22.882812 58.34375 23.472656 C 54.914062 27.183594 53.535156 30.964844 47.898438 31.207031 C 45.671875 31.207031 43.886719 29.914062 42.550781 27.878906 C 39.992188 23.769531 37.4375 19.453125 34.878906 15.125 C 36.1875 14.195312 37.050781 12.671875 37.050781 10.949219 C 37.050781 8.160156 34.789062 5.894531 32 5.894531 C 29.210938 5.894531 26.949219 8.160156 26.949219 10.949219 C 26.949219 12.574219 27.71875 14.027344 28.933594 14.9375 Z M 55.578125 49.421875 C 55.578125 48.433594 54.9375 47.839844 53.863281 48.035156 C 46.714844 49.019531 39.40625 50.015625 32.101562 50.019531 C 24.726562 50.023438 17.347656 49.027344 10.136719 48.035156 C 9.28125 47.839844 8.421875 48.632812 8.421875 49.421875 L 8.421875 53.5625 C 8.421875 54.550781 9.0625 55.539062 10.136719 55.734375 C 24.496094 58.894531 39.503906 58.894531 53.863281 55.734375 C 54.71875 55.539062 55.578125 54.550781 55.578125 53.5625 Z M 55.578125 49.421875 "/>
</g>
</svg>
