<svg xmlns="http://www.w3.org/2000/svg" xmlns:xlink="http://www.w3.org/1999/xlink" width="64" height="64" viewBox="0 0 64 64" version="1.1">
<defs>
<linearGradient id="linear0" gradientUnits="userSpaceOnUse" x1="0" y1="0" x2="0" y2="1" gradientTransform="matrix(56,0,0,51.695312,4,6.152344)">
<stop offset="0" style="stop-color:#ff6666;stop-opacity:1;"/>
<stop offset="1" style="stop-color:#d90000;stop-opacity:1;"/>
</linearGradient>
</defs>
<g id="surface1">
<path style=" stroke:none;fill-rule:nonzero;fill:url(#linear0);" d="M 47.863281 20.167969 C 47.6875 20.167969 47.542969 20.324219 47.542969 20.515625 L 47.542969 22.582031 C 47.542969 22.777344 47.6875 22.925781 47.863281 22.925781 L 48.503906 22.925781 C 48.679688 22.925781 48.828125 22.769531 48.828125 22.582031 L 48.828125 20.515625 C 48.828125 20.324219 48.679688 20.167969 48.503906 20.167969 Z M 41.832031 22.851562 C 41.746094 22.851562 41.664062 22.890625 41.597656 22.953125 L 41.148438 23.4375 C 41.085938 23.503906 41.054688 23.59375 41.054688 23.6875 C 41.054688 23.777344 41.085938 23.863281 41.148438 23.929688 L 42.507812 25.390625 C 42.566406 25.457031 42.652344 25.492188 42.738281 25.492188 C 42.824219 25.492188 42.902344 25.457031 42.964844 25.390625 L 43.414062 24.902344 C 43.480469 24.839844 43.511719 24.753906 43.511719 24.660156 C 43.511719 24.570312 43.480469 24.480469 43.414062 24.414062 L 42.054688 22.953125 C 41.996094 22.890625 41.914062 22.851562 41.832031 22.851562 Z M 54.539062 22.851562 C 54.453125 22.851562 54.371094 22.890625 54.3125 22.953125 L 52.953125 24.414062 C 52.894531 24.480469 52.859375 24.570312 52.859375 24.660156 C 52.859375 24.753906 52.894531 24.839844 52.953125 24.902344 L 53.40625 25.390625 C 53.53125 25.523438 53.734375 25.523438 53.863281 25.390625 L 55.21875 23.929688 C 55.28125 23.863281 55.316406 23.777344 55.316406 23.6875 C 55.316406 23.59375 55.28125 23.503906 55.21875 23.4375 L 54.769531 22.953125 C 54.703125 22.890625 54.625 22.851562 54.539062 22.851562 Z M 48.183594 25.683594 C 45.703125 25.683594 43.691406 27.84375 43.691406 30.511719 C 43.691406 33.179688 45.703125 35.339844 48.183594 35.339844 C 50.667969 35.339844 52.679688 33.179688 52.679688 30.511719 C 52.679688 27.84375 50.667969 25.683594 48.183594 25.683594 Z M 38.875 29.824219 C 38.699219 29.824219 38.554688 29.980469 38.554688 30.167969 L 38.554688 30.855469 C 38.554688 31.050781 38.699219 31.203125 38.875 31.203125 L 40.800781 31.203125 C 40.976562 31.203125 41.121094 31.046875 41.121094 30.855469 L 41.121094 30.167969 C 41.121094 29.980469 40.976562 29.824219 40.800781 29.824219 Z M 55.566406 29.824219 C 55.390625 29.824219 55.246094 29.980469 55.246094 30.167969 L 55.246094 30.855469 C 55.246094 31.050781 55.390625 31.203125 55.566406 31.203125 L 57.492188 31.203125 C 57.667969 31.203125 57.8125 31.046875 57.8125 30.855469 L 57.8125 30.167969 C 57.8125 29.980469 57.667969 29.824219 57.492188 29.824219 Z M 42.738281 35.53125 C 42.652344 35.53125 42.574219 35.566406 42.507812 35.636719 L 41.148438 37.09375 C 41.085938 37.160156 41.054688 37.246094 41.054688 37.335938 C 41.054688 37.429688 41.085938 37.519531 41.148438 37.585938 L 41.597656 38.070312 C 41.660156 38.132812 41.746094 38.171875 41.832031 38.171875 C 41.914062 38.171875 41.996094 38.132812 42.054688 38.070312 L 43.414062 36.609375 C 43.480469 36.546875 43.511719 36.453125 43.511719 36.363281 C 43.511719 36.269531 43.480469 36.183594 43.414062 36.121094 L 42.964844 35.636719 C 42.902344 35.566406 42.824219 35.53125 42.738281 35.53125 Z M 53.628906 35.53125 C 53.546875 35.53125 53.464844 35.570312 53.40625 35.636719 L 52.953125 36.121094 C 52.886719 36.183594 52.859375 36.269531 52.859375 36.363281 C 52.859375 36.453125 52.886719 36.546875 52.953125 36.609375 L 54.3125 38.070312 C 54.371094 38.132812 54.453125 38.171875 54.539062 38.171875 C 54.625 38.171875 54.710938 38.132812 54.769531 38.070312 L 55.21875 37.585938 C 55.28125 37.519531 55.316406 37.429688 55.316406 37.335938 C 55.316406 37.246094 55.28125 37.160156 55.21875 37.09375 L 53.863281 35.636719 C 53.800781 35.566406 53.714844 35.53125 53.628906 35.53125 Z M 47.863281 38.097656 C 47.6875 38.097656 47.542969 38.253906 47.542969 38.441406 L 47.542969 40.511719 C 47.542969 40.703125 47.6875 40.855469 47.863281 40.855469 L 48.503906 40.855469 C 48.679688 40.855469 48.828125 40.699219 48.828125 40.511719 L 48.828125 38.441406 C 48.828125 38.253906 48.679688 38.097656 48.503906 38.097656 Z M 47.863281 38.097656 "/>
<path style=" stroke:none;fill-rule:nonzero;fill:url(#linear0);" d="M 17.96875 20.167969 C 12.667969 20.195312 8.382812 24.816406 8.382812 30.511719 C 8.382812 36.222656 12.695312 40.855469 18.011719 40.855469 C 19.75 40.855469 21.449219 40.355469 22.9375 39.398438 C 22.582031 39.449219 22.222656 39.476562 21.863281 39.476562 C 17.253906 39.476562 13.519531 35.460938 13.519531 30.511719 C 13.519531 25.5625 17.253906 21.546875 21.863281 21.546875 C 22.222656 21.546875 22.578125 21.574219 22.933594 21.625 C 21.445312 20.671875 19.742188 20.167969 18.011719 20.167969 C 17.996094 20.167969 17.984375 20.167969 17.96875 20.167969 Z M 17.96875 20.167969 "/>
</g>
</svg>
