<svg xmlns="http://www.w3.org/2000/svg" xmlns:xlink="http://www.w3.org/1999/xlink" width="64" height="64" viewBox="0 0 64 64" version="1.1">
<defs>
<linearGradient id="linear0" gradientUnits="userSpaceOnUse" x1="0" y1="0" x2="0" y2="1" gradientTransform="matrix(64,0,0,64,0,0)">
<stop offset="0" style="stop-color:#ff6666;stop-opacity:1;"/>
<stop offset="1" style="stop-color:#d90000;stop-opacity:1;"/>
</linearGradient>
</defs>
<g id="surface1">
<path style=" stroke:none;fill-rule:evenodd;fill:url(#linear0);" d="M 55.121094 37.035156 C 56.058594 35.550781 56.859375 33.980469 57.558594 32.359375 C 58.078125 31.238281 58.480469 30.078125 58.839844 28.878906 C 59.601562 26.320312 60 23.679688 60 21 C 60.039062 16.519531 58.480469 12.160156 55.558594 8.761719 C 53.039062 5.800781 49.359375 4.078125 45.519531 4 C 41.480469 4 37.640625 5.800781 35.078125 8.921875 C 34.320312 9.878906 33.199219 10.398438 32 10.398438 C 30.800781 10.398438 29.679688 9.878906 28.921875 8.921875 C 26.359375 5.800781 22.519531 4 18.480469 4 C 14.640625 4.078125 10.960938 5.800781 8.441406 8.761719 C 5.519531 12.160156 3.960938 16.519531 4 21 C 4 23.679688 4.398438 26.320312 5.160156 28.878906 C 5.519531 30.078125 5.921875 31.238281 6.441406 32.359375 C 8.238281 36.519531 10.679688 40.359375 13.640625 43.761719 C 16.441406 47 19.519531 50.039062 22.839844 52.71875 C 25.359375 54.800781 28 56.761719 30.71875 58.519531 C 31.160156 58.800781 31.558594 59.078125 32 59.359375 C 32.441406 59.078125 32.839844 58.800781 33.28125 58.519531 C 36 56.761719 38.640625 54.800781 41.160156 52.71875 C 43.183594 51.089844 45.121094 49.320312 46.933594 47.429688 C 45.984375 46.613281 45.011719 45.765625 44.003906 44.875 C 43.476562 45.480469 42.9375 46.066406 42.382812 46.636719 C 39.699219 49.292969 36.191406 52.625 32.390625 51.851562 C 29.390625 50.925781 27.714844 50.207031 26.886719 48.460938 C 25.5625 43.933594 29.542969 42.085938 31.855469 39.714844 C 32.8125 38.71875 33.777344 37.628906 34.714844 36.449219 C 33.457031 35.308594 32.226562 34.144531 31.007812 32.972656 C 30.140625 32.140625 29.269531 31.289062 28.378906 30.421875 C 26.414062 28.273438 26.375 27.300781 26.945312 24.894531 C 27.390625 23.480469 28.011719 22.195312 28.738281 21.128906 C 29.867188 19.460938 31.214844 18.675781 32.597656 18.496094 C 34.902344 18.195312 37.3125 19.566406 38.964844 21.3125 C 40.164062 22.609375 41.34375 23.925781 42.519531 25.242188 C 43.429688 23.746094 44.167969 22.367188 44.761719 21.132812 C 46.164062 18.40625 46.425781 17.351562 49.105469 16.695312 C 49.867188 16.65625 50.539062 16.808594 51.21875 17.117188 C 54.53125 18.664062 55.339844 23.445312 54.578125 26.242188 C 53.953125 28.351562 52.855469 31.015625 51.386719 33.851562 C 52.660156 34.945312 53.945312 36.042969 55.121094 37.035156 Z M 32 6.398438 C 35.371094 2.265625 40.1875 0 45.535156 0 C 55.730469 0 64 9.40625 64 21.011719 C 64 24.132812 63.515625 27.132812 62.667969 29.996094 C 62.667969 29.996094 61.898438 32.578125 61.21875 34.003906 C 53.4375 52.199219 32 64 32 64 C 32 64 10.5625 52.199219 2.78125 34.003906 C 2.101562 32.578125 1.332031 29.996094 1.332031 29.996094 C 0.484375 27.132812 0 24.132812 0 21.011719 C 0 9.40625 8.269531 0 18.464844 0 C 23.8125 0 28.628906 2.265625 32 6.398438 Z M 32 6.398438 "/>
</g>
</svg>
