<svg xmlns="http://www.w3.org/2000/svg" xmlns:xlink="http://www.w3.org/1999/xlink" width="64" height="64" viewBox="0 0 64 64" version="1.1">
<defs> <linearGradient id="linear0" gradientUnits="userSpaceOnUse" x1="0" y1="0" x2="0" y2="1" gradientTransform="matrix(55.992188,0,0,56,4.003906,4)"> <stop offset="0" style="stop-color:#ff6666;stop-opacity:1;"/> <stop offset="1" style="stop-color:#d90000;stop-opacity:1;"/> </linearGradient> </defs>
<g id="surface1">
<path style=" stroke:none;fill-rule:evenodd;fill:url(#linear0);fill-opacity:0.831373;" d="M 6.472656 9.089844 L 6.472656 29.441406 L 22.828125 29.441406 L 22.828125 23.332031 L 12.605469 23.332031 L 12.605469 15.191406 L 22.828125 15.191406 L 22.828125 9.089844 Z M 6.472656 9.089844 "/>
<path style=" stroke:none;fill-rule:evenodd;fill:url(#linear0);fill-opacity:0.831373;" d="M 24.871094 9.089844 L 24.871094 29.441406 L 31 29.441406 L 31 21.296875 L 33.042969 21.296875 L 37.132812 29.441406 L 43.265625 29.441406 L 38.15625 19.261719 L 41.222656 19.261719 L 41.222656 9.089844 Z M 31 13.160156 L 35.089844 13.160156 L 35.089844 17.226562 L 31 17.226562 Z M 31 13.160156 "/>
<path style=" stroke:none;fill-rule:evenodd;fill:url(#linear0);fill-opacity:0.831373;" d="M 43.265625 9.089844 L 43.265625 15.191406 L 49.398438 15.191406 L 49.398438 29.441406 L 55.527344 29.441406 L 55.527344 15.191406 L 61.660156 15.191406 L 61.660156 9.089844 Z M 43.265625 9.089844 "/>
<path style=" stroke:none;fill-rule:evenodd;fill:url(#linear0);fill-opacity:0.831373;" d="M 6.472656 33.511719 L 6.472656 53.867188 L 22.828125 53.867188 L 22.828125 33.511719 Z M 6.472656 33.511719 "/>
<path style=" stroke:none;fill-rule:nonzero;fill:url(#linear0);fill-opacity:1;" d="M 6.472656 9.089844 L 22.828125 9.089844 L 22.828125 11.125 L 6.472656 11.125 Z M 6.472656 9.089844 "/>
<path style=" stroke:none;fill-rule:nonzero;fill:url(#linear0);fill-opacity:1;" d="M 24.871094 9.089844 L 41.222656 9.089844 L 41.222656 11.125 L 24.871094 11.125 Z M 24.871094 9.089844 "/>
<path style=" stroke:none;fill-rule:nonzero;fill:url(#linear0);fill-opacity:1;" d="M 43.265625 9.089844 L 61.660156 9.089844 L 61.660156 11.125 L 43.265625 11.125 Z M 43.265625 9.089844 "/>
<path style=" stroke:none;fill-rule:nonzero;fill:url(#linear0);fill-opacity:1;" d="M 6.472656 15.191406 L 12.605469 15.191406 L 12.605469 17.226562 L 6.472656 17.226562 Z M 6.472656 15.191406 "/>
<path style=" stroke:none;fill-rule:nonzero;fill:url(#linear0);fill-opacity:1;" d="M 24.871094 15.191406 L 31 15.191406 L 31 17.226562 L 24.871094 17.226562 Z M 24.871094 15.191406 "/>
<path style=" stroke:none;fill-rule:nonzero;fill:url(#linear0);fill-opacity:1;" d="M 35.089844 15.191406 L 41.222656 15.191406 L 41.222656 17.226562 L 35.089844 17.226562 Z M 35.089844 15.191406 "/>
<path style=" stroke:none;fill-rule:nonzero;fill:url(#linear0);fill-opacity:1;" d="M 49.398438 15.191406 L 55.527344 15.191406 L 55.527344 17.226562 L 49.398438 17.226562 Z M 49.398438 15.191406 "/>
<path style=" stroke:none;fill-rule:nonzero;fill:url(#linear0);fill-opacity:1;" d="M 6.472656 21.296875 L 12.605469 21.296875 L 12.605469 23.332031 L 6.472656 23.332031 Z M 6.472656 21.296875 "/>
<path style=" stroke:none;fill-rule:nonzero;fill:url(#linear0);fill-opacity:1;" d="M 24.871094 21.296875 L 31 21.296875 L 31 23.332031 L 24.871094 23.332031 Z M 24.871094 21.296875 "/>
<path style=" stroke:none;fill-rule:nonzero;fill:url(#linear0);fill-opacity:1;" d="M 33.042969 21.296875 L 39.175781 21.296875 L 40.199219 23.332031 L 34.066406 23.332031 Z M 33.042969 21.296875 "/>
<path style=" stroke:none;fill-rule:nonzero;fill:url(#linear0);fill-opacity:1;" d="M 49.398438 21.296875 L 55.527344 21.296875 L 55.527344 23.332031 L 49.398438 23.332031 Z M 49.398438 21.296875 "/>
<path style=" stroke:none;fill-rule:nonzero;fill:url(#linear0);fill-opacity:1;" d="M 6.472656 27.40625 L 22.828125 27.40625 L 22.828125 29.441406 L 6.472656 29.441406 Z M 6.472656 27.40625 "/>
<path style=" stroke:none;fill-rule:nonzero;fill:url(#linear0);fill-opacity:1;" d="M 24.871094 27.40625 L 31 27.40625 L 31 29.441406 L 24.871094 29.441406 Z M 24.871094 27.40625 "/>
<path style=" stroke:none;fill-rule:nonzero;fill:url(#linear0);fill-opacity:1;" d="M 36.109375 27.40625 L 42.242188 27.40625 L 43.265625 29.441406 L 37.132812 29.441406 Z M 36.109375 27.40625 "/>
<path style=" stroke:none;fill-rule:nonzero;fill:url(#linear0);fill-opacity:1;" d="M 49.398438 27.40625 L 55.527344 27.40625 L 55.527344 29.441406 L 49.398438 29.441406 Z M 49.398438 27.40625 "/>
<path style=" stroke:none;fill-rule:nonzero;fill:url(#linear0);fill-opacity:1;" d="M 6.472656 33.511719 L 22.828125 33.511719 L 22.828125 35.550781 L 6.472656 35.550781 Z M 6.472656 33.511719 "/>
<path style=" stroke:none;fill-rule:nonzero;fill:url(#linear0);fill-opacity:1;" d="M 6.472656 39.617188 L 22.828125 39.617188 L 22.828125 41.652344 L 6.472656 41.652344 Z M 6.472656 39.617188 "/>
<path style=" stroke:none;fill-rule:nonzero;fill:url(#linear0);fill-opacity:1;" d="M 6.472656 45.722656 L 22.828125 45.722656 L 22.828125 47.757812 L 6.472656 47.757812 Z M 6.472656 45.722656 "/>
<path style=" stroke:none;fill-rule:nonzero;fill:url(#linear0);fill-opacity:1;" d="M 6.472656 51.832031 L 22.828125 51.832031 L 22.828125 53.867188 L 6.472656 53.867188 Z M 6.472656 51.832031 "/>
</g>
</svg>
