<svg xmlns="http://www.w3.org/2000/svg" xmlns:xlink="http://www.w3.org/1999/xlink" width="64" height="64" viewBox="0 0 64 64" version="1.1">
<defs>
<linearGradient id="linear0" gradientUnits="userSpaceOnUse" x1="0" y1="0" x2="0" y2="1" gradientTransform="matrix(60,0,0,64,2,0)">
<stop offset="0" style="stop-color:#ff6666;stop-opacity:1;"/>
<stop offset="1" style="stop-color:#d90000;stop-opacity:1;"/>
</linearGradient>
</defs>
<g id="surface1">
<path style=" stroke:none;fill-rule:evenodd;fill:url(#linear0);" d="M 32.871094 33.722656 C 32.375 31.613281 34.964844 30.390625 36.730469 30.617188 C 40.175781 31.058594 41.808594 34.835938 41.015625 37.863281 C 39.808594 42.46875 34.460938 44.542969 30.078125 43.164062 C 24.125 41.289062 21.511719 34.53125 23.554688 28.980469 C 26.152344 21.910156 34.625 18.863281 41.566406 21.488281 C 50.046875 24.699219 53.660156 34.554688 50.332031 42.605469 C 46.386719 52.152344 34.730469 56.1875 25.242188 52.289062 C 14.234375 47.769531 9.605469 34.785156 14.238281 24.238281 C 19.515625 12.214844 34.371094 7.183594 46.40625 12.359375 C 59.945312 18.1875 65.589844 34.308594 59.648438 47.347656 C 53.039062 61.851562 34.976562 67.878906 20.402344 61.417969 C 4.328125 54.292969 -2.332031 35.023438 4.917969 19.5 C 10.605469 7.324219 23.597656 -0.332031 37.199219 0.0117188 "/>
</g>
</svg>
