<svg xmlns="http://www.w3.org/2000/svg" xmlns:xlink="http://www.w3.org/1999/xlink" width="64" height="64" viewBox="0 0 64 64" version="1.1">
<defs>
<linearGradient id="linear0" gradientUnits="userSpaceOnUse" x1="0" y1="0" x2="0" y2="1" gradientTransform="matrix(60,0,0,64,2,0)">
<stop offset="0" style="stop-color:#ff6666;stop-opacity:1;"/>
<stop offset="1" style="stop-color:#d90000;stop-opacity:1;"/>
</linearGradient>
</defs>
<g id="surface1">
    <path d="m 64.734375,19.75 c -6.663766,0 -12.0625,5.429984 -12.0625,12.09375 0,2.27032 0.628409,4.373818 1.71875,6.1875 -5.566002,3.139409 -13.118008,10.269687 -13.4375,17.9375 -0.365631,8.775139 5.8e-5,20.481146 -3.65625,27.0625 -3.656308,6.581354 -12.0625,5.84375 -12.0625,5.84375 l 0,11.6875 31.125,0 c 0.274484,4.29524 3.822961,7.6875 8.1875,7.6875 4.364539,0 7.913016,-3.39226 8.1875,-7.6875 l 30.031255,0 0,-11.6875 c 0,0 -8.437447,0.737604 -12.093755,-5.84375 -3.656308,-6.581354 -3.290619,-18.287361 -3.65625,-27.0625 -0.299327,-7.183842 -6.957235,-13.88164 -12.375,-17.28125 1.354811,-1.950612 2.15625,-4.288865 2.15625,-6.84375 0,-6.663766 -5.398734,-12.09375 -12.0625,-12.09375 z m -0.5625,9.875 c 1.918357,0 3.46875,1.408575 3.46875,3.125 0,1.716425 -1.550393,3.09375 -3.46875,3.09375 -1.918357,0 -3.46875,-1.377325 -3.46875,-3.09375 0,-1.716425 1.550393,-3.125 3.46875,-3.125 z" style=" stroke:none;fill-rule:evenodd;fill:url(#linear0);" />
</g>
</svg>
