<svg xmlns="http://www.w3.org/2000/svg" xmlns:xlink="http://www.w3.org/1999/xlink" width="64" height="64" viewBox="0 0 64 64" version="1.1">
<defs>
<linearGradient id="linear0" gradientUnits="userSpaceOnUse" x1="0" y1="0" x2="0" y2="1" gradientTransform="matrix(64,0,0,30.820313,0,16.589844)">
<stop offset="0" style="stop-color:#ff6666;stop-opacity:1;"/>
<stop offset="1" style="stop-color:#d90000;stop-opacity:1;"/>
</linearGradient>
</defs>
<g id="surface1">
<path style=" stroke:none;fill-rule:evenodd;fill:url(#linear0);" d="M 30.414062 16.589844 C 30.414062 16.589844 29.757812 16.585938 29.472656 16.621094 C 22.996094 16.585938 19.367188 23.664062 16.179688 27.625 C 14.390625 30.558594 6.050781 38.214844 0.609375 39.890625 C -0.804688 40.171875 0.371094 43.007812 2.816406 41.578125 C 5.707031 40.511719 16.09375 33.480469 16.371094 33.253906 C 16.792969 32.984375 17.601562 33.003906 17.949219 34.207031 C 18.296875 35.414062 17.496094 36.847656 17.496094 36.847656 C 17.496094 36.847656 16.445312 38.648438 16.480469 39.636719 C 16.976562 43.195312 19.84375 46.765625 22.761719 47.253906 C 24.859375 47.539062 27.964844 47.351562 27.964844 47.351562 L 28.027344 46.824219 C 27.960938 46.023438 26.320312 45.679688 26.320312 45.679688 C 26.308594 45.691406 24.230469 46.085938 23.324219 45.664062 C 21.792969 44.964844 20 42.207031 20 41.855469 C 20 41.507812 20.515625 39.9375 20.515625 39.9375 C 20.515625 39.9375 22.203125 40.164062 22.765625 40.164062 C 23.324219 40.164062 24.773438 40.234375 24.773438 40.234375 L 25.855469 41.910156 C 26.199219 42.570312 26.625 42.238281 27.1875 42.390625 L 29.609375 42.421875 L 31.277344 42.382812 L 31.277344 41.53125 C 31.277344 42.382812 31.277344 40.722656 30.191406 40.699219 C 29.257812 40.65625 28.03125 40.535156 27.929688 40.195312 C 27.757812 39.644531 27.996094 38.195312 27.996094 38.195312 C 27.996094 38.195312 29.203125 37.613281 31.753906 38.117188 C 34.296875 38.621094 37.195312 40.726562 37.195312 40.726562 C 36.46875 42.070312 35.800781 42.359375 35.671875 43.738281 C 35.539062 44.984375 35.539062 44.984375 36.359375 44.984375 L 40.269531 44.984375 C 40.269531 44.984375 40.269531 43.332031 39.144531 43.414062 C 38.359375 43.386719 37.921875 43.34375 37.921875 43.277344 C 37.921875 42.960938 39.425781 41.644531 39.425781 41.644531 L 40.488281 40.875 C 40.488281 40.875 41.972656 41.875 43.882812 42.359375 C 45.796875 42.84375 48.175781 42.613281 48.175781 42.613281 C 48.925781 43.058594 49.066406 43.433594 49.441406 44.070312 C 49.730469 45.222656 49.730469 44.988281 50.375 45.011719 C 51.789062 45.046875 52.980469 44.988281 54.355469 44.886719 C 54.355469 44.886719 54.46875 43.332031 52.175781 43.332031 C 52.175781 43.332031 51.335938 42.804688 51.1875 42.015625 C 51.035156 41.226562 51.128906 39.164062 51.128906 39.164062 L 52.261719 39.0625 L 53.753906 40.339844 L 54.679688 40.429688 L 55.96875 42.503906 C 55.96875 42.503906 58.539062 42.691406 59.398438 42.363281 C 60.261719 42.039062 61.820312 41.167969 62.722656 40.191406 C 63.625 39.214844 64.222656 36.90625 63.921875 35.609375 C 63.617188 34.308594 61.933594 32.753906 61.933594 32.753906 C 58.367188 29.371094 52.8125 23.71875 49.363281 23.6875 C 48.816406 23.6875 47.449219 24.980469 46.65625 24.40625 C 41.722656 21.007812 36.328125 16.835938 30.414062 16.59375 Z M 55.652344 30.785156 C 56.632812 30.785156 57.425781 31.574219 57.425781 32.554688 C 57.425781 33.535156 56.632812 34.332031 55.652344 34.332031 C 54.671875 34.332031 53.875 33.535156 53.875 32.554688 C 53.875 31.574219 54.671875 30.785156 55.652344 30.785156 Z M 55.652344 30.785156 "/>
</g>
</svg>
