<svg xmlns="http://www.w3.org/2000/svg" xmlns:xlink="http://www.w3.org/1999/xlink" width="64" height="64" viewBox="0 0 64 64" version="1.1">
<defs> <linearGradient id="linear0" gradientUnits="userSpaceOnUse" x1="0" y1="0" x2="0" y2="1" gradientTransform="matrix(55.992188,0,0,56,4.003906,4)"> <stop offset="0" style="stop-color:#ff6666;stop-opacity:1;"/> <stop offset="1" style="stop-color:#d90000;stop-opacity:1;"/> </linearGradient> </defs>
<g id="surface1">
<path style=" stroke:none;fill-rule:nonzero;fill:url(#linear0);fill-opacity:1;" d="M 20.753906 0.527344 C 19.675781 0.527344 18.808594 1.390625 18.808594 2.464844 L 18.808594 10.941406 C 18.808594 12.015625 19.675781 12.871094 20.753906 12.871094 C 21.832031 12.871094 22.703125 12.015625 22.703125 10.941406 L 22.703125 2.464844 C 22.703125 1.390625 21.832031 0.527344 20.753906 0.527344 Z M 31.566406 0.527344 C 30.488281 0.527344 29.632812 1.390625 29.632812 2.464844 L 29.632812 10.941406 C 29.632812 12.015625 30.488281 12.871094 31.566406 12.871094 C 32.648438 12.871094 33.515625 12.015625 33.515625 10.941406 L 33.515625 2.464844 C 33.515625 1.390625 32.648438 0.527344 31.566406 0.527344 Z M 42.386719 0.527344 C 41.308594 0.527344 40.4375 1.390625 40.4375 2.464844 L 40.4375 10.941406 C 40.4375 12.015625 41.308594 12.871094 42.386719 12.871094 C 43.464844 12.871094 44.324219 12.015625 44.324219 10.941406 L 44.324219 2.464844 C 44.324219 1.390625 43.464844 0.527344 42.386719 0.527344 Z M 20.574219 15.660156 C 17.609375 15.660156 15.230469 18.039062 15.230469 20.992188 L 15.230469 43.015625 C 15.230469 45.964844 17.609375 48.34375 20.574219 48.34375 L 42.566406 48.34375 C 45.53125 48.34375 47.910156 45.964844 47.910156 43.015625 L 47.910156 20.992188 C 47.910156 18.039062 45.527344 15.660156 42.566406 15.660156 Z M 2.160156 19.289062 C 1.082031 19.289062 0.214844 20.144531 0.214844 21.21875 C 0.214844 22.292969 1.082031 23.160156 2.160156 23.160156 L 10.675781 23.160156 C 11.753906 23.160156 12.609375 22.292969 12.609375 21.21875 C 12.609375 20.144531 11.753906 19.289062 10.675781 19.289062 Z M 53.449219 19.289062 C 52.371094 19.289062 51.5 20.144531 51.5 21.21875 C 51.5 22.292969 52.371094 23.160156 53.449219 23.160156 L 61.960938 23.160156 C 63.039062 23.160156 63.898438 22.292969 63.898438 21.21875 C 63.898438 20.144531 63.039062 19.289062 61.960938 19.289062 Z M 2.160156 30.058594 C 1.082031 30.058594 0.214844 30.921875 0.214844 31.996094 C 0.214844 33.074219 1.082031 33.925781 2.160156 33.925781 L 10.675781 33.925781 C 11.753906 33.925781 12.609375 33.074219 12.609375 31.996094 C 12.609375 30.921875 11.753906 30.058594 10.675781 30.058594 Z M 53.449219 30.058594 C 52.371094 30.058594 51.5 30.921875 51.5 31.996094 C 51.5 33.074219 52.371094 33.925781 53.449219 33.925781 L 61.960938 33.925781 C 63.039062 33.925781 63.898438 33.074219 63.898438 31.996094 C 63.898438 30.921875 63.039062 30.058594 61.960938 30.058594 Z M 2.160156 40.824219 C 1.082031 40.824219 0.214844 41.691406 0.214844 42.765625 C 0.214844 43.839844 1.082031 44.707031 2.160156 44.707031 L 10.675781 44.707031 C 11.753906 44.707031 12.609375 43.839844 12.609375 42.765625 C 12.609375 41.691406 11.753906 40.824219 10.675781 40.824219 Z M 53.449219 40.824219 C 52.371094 40.824219 51.5 41.691406 51.5 42.765625 C 51.5 43.839844 52.371094 44.707031 53.449219 44.707031 L 61.960938 44.707031 C 63.039062 44.707031 63.898438 43.839844 63.898438 42.765625 C 63.898438 41.691406 63.039062 40.824219 61.960938 40.824219 Z M 20.753906 51.476562 C 19.675781 51.476562 18.808594 52.339844 18.808594 53.414062 L 18.808594 61.890625 C 18.808594 62.96875 19.675781 63.820312 20.753906 63.820312 C 21.832031 63.820312 22.703125 62.96875 22.703125 61.890625 L 22.703125 53.414062 C 22.703125 52.339844 21.832031 51.476562 20.753906 51.476562 Z M 31.566406 51.476562 C 30.488281 51.476562 29.632812 52.339844 29.632812 53.414062 L 29.632812 61.890625 C 29.632812 62.96875 30.488281 63.820312 31.566406 63.820312 C 32.648438 63.820312 33.515625 62.96875 33.515625 61.890625 L 33.515625 53.414062 C 33.515625 52.339844 32.648438 51.476562 31.566406 51.476562 Z M 42.386719 51.476562 C 41.308594 51.476562 40.4375 52.339844 40.4375 53.414062 L 40.4375 61.890625 C 40.4375 62.96875 41.308594 63.820312 42.386719 63.820312 C 43.464844 63.820312 44.324219 62.96875 44.324219 61.890625 L 44.324219 53.414062 C 44.324219 52.339844 43.464844 51.476562 42.386719 51.476562 Z M 42.386719 51.476562 "/>
</g>
</svg>
