<svg xmlns="http://www.w3.org/2000/svg" xmlns:xlink="http://www.w3.org/1999/xlink" width="64" height="64" viewBox="0 0 64 64" version="1.1">
<defs> <linearGradient id="linear0" gradientUnits="userSpaceOnUse" x1="0" y1="0" x2="0" y2="1" gradientTransform="matrix(55.992188,0,0,56,4.003906,4)"> <stop offset="0" style="stop-color:#ff6666;stop-opacity:1;"/> <stop offset="1" style="stop-color:#d90000;stop-opacity:1;"/> </linearGradient> </defs>
<g id="surface1">
<path style=" stroke:none;fill-rule:evenodd;fill:url(#linear0);fill-opacity:1;" d="M 32.589844 16.59375 L 14.269531 34.835938 L 12.015625 37.078125 L 11.441406 37.648438 L 6.875 51.917969 C 6.613281 52.703125 6.851562 53.523438 7.472656 53.96875 C 7.9375 54.304688 8.554688 54.386719 9.148438 54.195312 L 23.675781 49.632812 L 24.144531 49.15625 L 26.335938 46.980469 L 44.71875 28.671875 L 32.589844 16.59375 M 20.480469 40.875 C 20.601562 40.984375 20.667969 41.132812 20.664062 41.289062 L 20.460938 45.609375 L 21.253906 46.402344 C 21.386719 46.53125 21.4375 46.722656 21.386719 46.90625 C 21.339844 47.082031 21.199219 47.222656 21.023438 47.265625 L 14.167969 49.09375 C 13.992188 49.140625 13.796875 49.089844 13.660156 48.957031 L 12.332031 47.636719 C 12.203125 47.503906 12.152344 47.3125 12.203125 47.125 L 14.203125 40.117188 C 14.253906 39.9375 14.390625 39.800781 14.570312 39.757812 C 14.746094 39.707031 14.941406 39.757812 15.070312 39.886719 L 16.136719 40.957031 L 20.113281 40.753906 C 20.25 40.746094 20.378906 40.792969 20.480469 40.875 "/>
<path style=" stroke:none;fill-rule:evenodd;fill:url(#linear0);fill-opacity:1;" d="M 43.585938 6.765625 C 42.890625 6.746094 42.300781 6.933594 41.878906 7.335938 L 41.859375 7.359375 L 39.019531 10.191406 L 51.15625 22.269531 L 53.953125 19.476562 L 54 19.4375 C 54.003906 19.433594 54.003906 19.425781 54.011719 19.421875 C 55.335938 18.0625 54.324219 14.925781 51.738281 12.351562 L 48.984375 9.609375 C 47.203125 7.828125 45.132812 6.796875 43.585938 6.765625 "/>
<path style=" stroke:none;fill-rule:evenodd;fill:url(#linear0);fill-opacity:1;" d="M 37.445312 11.757812 L 49.582031 23.835938 L 46.578125 26.828125 L 34.441406 14.75 Z M 37.445312 11.757812 "/>
</g>
</svg>
