<svg xmlns="http://www.w3.org/2000/svg" xmlns:xlink="http://www.w3.org/1999/xlink" width="64" height="64" viewBox="0 0 64 64" version="1.1">
<defs>
<linearGradient id="linear0" gradientUnits="userSpaceOnUse" x1="0" y1="0" x2="0" y2="1" gradientTransform="matrix(52.367188,0,0,64,5.816406,0)">
<stop offset="0" style="stop-color:#ff6666;stop-opacity:1;"/>
<stop offset="1" style="stop-color:#d90000;stop-opacity:1;"/>
</linearGradient>
</defs>
<g id="surface1">
<path style=" stroke:none;fill-rule:nonzero;fill:url(#linear0);" d="M 58.058594 14.015625 C 58.253906 15.714844 57.921875 17.488281 58.113281 19.214844 C 58.3125 21.097656 58.050781 23.070312 57.710938 24.925781 C 57.671875 23.421875 57.632812 21.898438 57.550781 20.429688 C 57.46875 18.878906 56.847656 17.289062 56.429688 15.777344 C 56.878906 18.957031 57.078125 22.179688 57.160156 25.367188 C 57.21875 27.835938 57.226562 30.398438 56.816406 32.804688 C 56.414062 35.152344 55.183594 37.507812 54.410156 39.683594 C 53.269531 42.902344 53.628906 47.207031 53.355469 50.746094 C 53.355469 50.746094 53.089844 51.363281 52.625 48.363281 C 52.003906 44.308594 51.65625 39.863281 51.734375 35.734375 L 51.734375 35.640625 C 51.734375 35.589844 51.726562 35.5 51.726562 35.5 C 51.726562 35.5 51.597656 35.875 51.574219 35.988281 C 51.566406 36.027344 51.546875 36.136719 51.546875 36.164062 L 51.546875 36.175781 C 51.535156 36.222656 51.527344 36.285156 51.515625 36.351562 C 51.507812 36.390625 51.507812 36.425781 51.496094 36.464844 C 51.488281 36.53125 51.46875 36.625 51.457031 36.699219 C 51.449219 36.738281 51.4375 36.792969 51.4375 36.832031 C 51.375 37.160156 51.296875 37.566406 51.195312 38.050781 C 50.703125 40.386719 47.726562 41.445312 47.398438 43.800781 C 47.386719 43.851562 42.875 44.214844 47.378906 43.941406 C 47.109375 45.566406 46.960938 46.132812 45.949219 47.277344 C 44.875 48.488281 45.550781 46.53125 44.101562 47.386719 C 45.488281 47.746094 44.160156 47.347656 44.101562 47.386719 C 42.152344 48.699219 48.085938 46.199219 46.046875 47.296875 C 45.90625 47.371094 47.066406 46.171875 45.949219 47.277344 C 49.652344 45.664062 43.667969 50.625 43.734375 50.542969 C 44.261719 49.988281 43.394531 51.167969 43.734375 50.542969 C 46.554688 46.660156 43.726562 50.5625 43.734375 50.542969 C 44.859375 48.277344 43.089844 49.722656 44.101562 47.386719 C 44.101562 47.386719 43.820312 47.808594 43.46875 48.304688 C 43.027344 48.921875 42.445312 49.675781 42.203125 49.964844 C 40.296875 52.246094 38.953125 55.566406 36.957031 57.746094 C 36.234375 58.53125 35 58.832031 34.1875 59.597656 C 33.429688 60.3125 32.332031 60.78125 31.339844 60.949219 C 29.734375 61.214844 28.03125 62.191406 26.394531 62.789062 C 26.394531 62.789062 27.359375 61.644531 28.058594 60.738281 C 29.523438 58.832031 30.878906 56.824219 32.113281 54.742188 C 32.085938 54.765625 31.253906 55.441406 30.707031 56.605469 C 29.765625 58.660156 27.40625 60.203125 25.773438 61.792969 C 24.566406 62.96875 22.875 63.652344 21.238281 64 C 18.480469 63.890625 15.671875 63.59375 12.996094 62.9375 C 10.769531 62.378906 6.703125 61.097656 5.890625 59.574219 C 5.785156 59.355469 5.730469 58.484375 6.195312 57.648438 C 6.996094 56.195312 8.613281 54.992188 9.597656 53.578125 C 11.441406 50.90625 14.078125 46.851562 16.734375 45.273438 C 18.210938 44.394531 20.1875 43.867188 21.910156 43.171875 C 22.703125 42.902344 23.085938 42.769531 23.867188 42.476562 C 21.921875 42.902344 20.046875 43.632812 18.191406 44.328125 C 18.191406 44.328125 18.199219 44.347656 19.191406 43.035156 C 20.296875 41.585938 21.753906 40.378906 23.035156 39.109375 C 25.292969 36.871094 30.789062 33.253906 30.789062 33.253906 C 30.789062 33.253906 27.867188 34.984375 26.34375 35.003906 C 25.425781 35.011719 24.519531 35.546875 23.757812 36.027344 C 24.699219 34.972656 25.710938 33.949219 26.6875 32.9375 C 28.652344 30.867188 31.351562 29.382812 33.757812 27.835938 C 32.5625 28.085938 31.238281 27.964844 30.046875 27.785156 C 32.3125 26.371094 34.519531 24.773438 36.414062 22.933594 C 41.078125 18.390625 43.375 11.730469 46.988281 6.472656 C 48.644531 4.0625 50.933594 1.96875 53.128906 0 C 53.128906 0 54.59375 0.21875 54.8125 1.050781 C 55.351562 3.132812 56.277344 5.199219 56.988281 7.269531 C 57.730469 9.382812 57.8125 11.789062 58.058594 14.015625 Z M 58.058594 14.015625 "/>
</g>
</svg>
