<svg xmlns="http://www.w3.org/2000/svg" xmlns:xlink="http://www.w3.org/1999/xlink" width="64" height="64" viewBox="0 0 64 64" version="1.1">
<defs>
<linearGradient id="linear0" gradientUnits="userSpaceOnUse" x1="0" y1="0" x2="0" y2="1" gradientTransform="matrix(64,0,0,64,0,0)">
<stop offset="0" style="stop-color:#ff6666;stop-opacity:1;"/>
<stop offset="1" style="stop-color:#d90000;stop-opacity:1;"/>
</linearGradient>
</defs>
<g id="surface1">
<path style=" stroke:none;fill-rule:nonzero;fill:url(#linear0);" d="M 6.855469 0 C 3.199219 0 0 3.109375 0 6.855469 L 0 57.144531 C 0 60.890625 3.199219 64 6.855469 64 L 57.144531 64 C 60.800781 64 64 60.890625 64 57.144531 L 64 6.855469 C 64 3.109375 60.800781 0 57.144531 0 Z M 6.855469 4.570312 L 57.144531 4.570312 C 58.515625 4.570312 59.429688 5.53125 59.429688 6.855469 L 59.429688 57.144531 C 59.429688 58.46875 58.515625 59.429688 57.144531 59.429688 L 6.855469 59.429688 C 6.246094 59.445312 5.65625 59.207031 5.222656 58.777344 C 4.792969 58.34375 4.554688 57.753906 4.570312 57.144531 L 4.570312 6.855469 C 4.570312 5.53125 5.484375 4.570312 6.855469 4.570312 Z M 28.34375 13.714844 L 28.34375 19.152344 L 27.429688 19.429688 C 26.972656 19.566406 26.972656 19.792969 26.058594 20.023438 L 25.601562 20.386719 L 21.484375 16.59375 C 21.484375 16.546875 21.484375 16.546875 21.484375 16.546875 C 21.484375 16.546875 21.484375 16.546875 21.484375 16.59375 L 16.457031 21.621094 C 16.457031 21.53125 16.457031 21.714844 16.457031 21.714844 L 20.570312 25.507812 L 20.113281 26.285156 C 19.941406 26.691406 19.789062 27.101562 19.65625 27.519531 L 19.199219 28.34375 L 13.714844 28.34375 L 13.714844 35.65625 L 19.199219 35.65625 L 19.65625 36.480469 C 19.65625 36.847656 19.65625 37.257812 20.113281 37.714844 L 20.570312 38.492188 L 16.457031 42.332031 C 16.457031 42.285156 16.457031 42.46875 16.457031 42.421875 L 21.484375 47.453125 C 21.484375 47.40625 21.941406 47.40625 21.484375 47.453125 L 25.601562 43.613281 L 26.058594 44.023438 C 26.515625 44.207031 26.972656 44.433594 27.429688 44.570312 L 28.34375 44.847656 L 28.34375 50.285156 L 35.65625 50.285156 L 35.65625 44.847656 L 36.570312 44.570312 C 37.027344 44.433594 37.484375 44.207031 37.941406 44.023438 L 38.398438 43.613281 L 42.515625 47.453125 C 42.058594 47.40625 42.515625 47.40625 42.515625 47.453125 L 47.542969 42.421875 C 47.542969 42.46875 47.542969 42.285156 47.542969 42.332031 L 43.429688 38.492188 L 43.886719 37.714844 C 44.34375 37.257812 44.34375 36.847656 44.34375 36.480469 L 44.800781 35.65625 L 50.285156 35.65625 L 50.285156 28.34375 L 44.800781 28.34375 L 44.34375 27.519531 C 44.210938 27.101562 44.058594 26.6875 43.886719 26.285156 L 43.429688 25.507812 L 47.542969 21.667969 C 47.542969 21.714844 47.542969 21.53125 47.542969 21.578125 L 42.515625 16.59375 C 42.515625 16.59375 42.058594 16.59375 42.515625 16.59375 L 38.398438 20.386719 L 37.941406 20.023438 C 37.484375 19.792969 37.027344 19.566406 36.570312 19.429688 L 35.65625 19.152344 L 35.65625 13.714844 Z M 32 25.921875 C 35.199219 25.921875 37.941406 28.664062 37.941406 32 C 37.941406 35.335938 35.199219 38.078125 32 38.078125 C 28.800781 38.078125 26.058594 35.335938 26.058594 32 C 26.058594 28.664062 28.800781 25.921875 32 25.921875 Z M 32 25.921875 "/>
</g>
</svg>
