<svg xmlns="http://www.w3.org/2000/svg" xmlns:xlink="http://www.w3.org/1999/xlink" width="64" height="64" viewBox="0 0 64 64" version="1.1">
<defs> <linearGradient id="linear0" gradientUnits="userSpaceOnUse" x1="0" y1="0" x2="0" y2="1" gradientTransform="matrix(55.992188,0,0,56,4.003906,4)"> <stop offset="0" style="stop-color:#ff6666;stop-opacity:1;"/> <stop offset="1" style="stop-color:#d90000;stop-opacity:1;"/> </linearGradient> </defs>
<g id="surface1">
<path style="fill:none;stroke-width:18.084999;stroke-linecap:round;stroke-linejoin:round;stroke:url(#linear0);stroke-opacity:1;stroke-miterlimit:4;" d="M 315.834922 131.102382 L 316.8022 374.492921 C 316.84519 382.17712 310.633116 388.458305 302.937882 388.501475 L 204.211045 388.868417 C 196.494316 388.911587 190.260747 382.716741 190.217757 374.989372 L 189.250479 131.598833 C 189.228984 123.914634 195.441058 117.633448 203.114796 117.633448 L 301.884624 117.223336 C 309.558362 117.180167 315.813427 123.396598 315.834922 131.102382 Z M 315.834922 131.102382 " transform="matrix(0.181728,0,0,0.180972,-14.466283,-14.155549)"/>
<path style=" stroke:none;fill-rule:nonzero;fill:url(#linear0);fill-opacity:1;" d="M 39.875 32.40625 C 39.882812 31.953125 39.519531 31.578125 39.0625 31.578125 L 24.277344 31.398438 C 23.820312 31.394531 23.445312 31.753906 23.441406 32.207031 L 23.207031 51.933594 C 23.203125 52.386719 23.566406 52.753906 24.019531 52.757812 L 38.808594 52.933594 C 39.261719 52.941406 39.632812 52.582031 39.636719 52.125 Z M 28.300781 37.992188 L 34.878906 38.070312 L 34.855469 39.707031 L 28.285156 39.632812 Z M 28.261719 41.265625 L 34.839844 41.347656 L 34.816406 42.980469 L 28.246094 42.902344 Z M 28.222656 44.542969 L 34.800781 44.613281 L 34.777344 46.253906 L 28.207031 46.175781 Z M 28.222656 44.542969 "/>
</g>
</svg>
