<svg xmlns="http://www.w3.org/2000/svg" xmlns:xlink="http://www.w3.org/1999/xlink" width="64" height="64" viewBox="0 0 64 64" version="1.1">
<defs> <linearGradient id="linear0" gradientUnits="userSpaceOnUse" x1="0" y1="0" x2="0" y2="1" gradientTransform="matrix(55.992188,0,0,56,4.003906,4)"> <stop offset="0" style="stop-color:#ff6666;stop-opacity:1;"/> <stop offset="1" style="stop-color:#d90000;stop-opacity:1;"/> </linearGradient> </defs>
<g id="surface1">
<path style=" stroke:none;fill-rule:nonzero;fill:url(#linear0);fill-opacity:1;" d="M 21.238281 55.847656 C 18.785156 54.777344 18.078125 54.355469 18.015625 53.925781 C 17.976562 53.617188 18.300781 51.9375 18.738281 50.195312 C 19.804688 45.945312 19.796875 45.71875 18.386719 44.417969 L 17.238281 43.359375 L 13.21875 44.378906 C 9.441406 45.332031 9.175781 45.367188 8.777344 44.941406 C 8.203125 44.339844 5.871094 38.433594 5.976562 37.863281 C 6.027344 37.601562 7.4375 36.574219 9.203125 35.5 C 13.417969 32.9375 13.15625 33.230469 12.996094 31.234375 L 12.867188 29.550781 C 10.703125 27.898438 5.933594 24.703125 5.933594 24.703125 C 5.933594 24.703125 8.628906 17.785156 9.035156 17.628906 C 9.25 17.546875 11.195312 17.917969 13.355469 18.453125 L 17.285156 19.433594 L 18.535156 18.171875 L 19.777344 16.914062 L 18.859375 13.261719 C 18.351562 11.253906 17.976562 9.304688 18.015625 8.929688 C 18.089844 8.324219 18.464844 8.09375 21.367188 6.867188 C 23.167969 6.109375 24.859375 5.519531 25.132812 5.554688 C 25.457031 5.597656 26.34375 6.796875 27.683594 9.027344 C 28.820312 10.898438 29.890625 12.503906 30.070312 12.589844 C 30.25 12.679688 31 12.703125 31.730469 12.640625 L 33.074219 12.53125 L 33.238281 10.390625 C 33.328125 9.210938 33.402344 7.574219 33.40625 6.753906 C 33.40625 5.925781 33.519531 5.1875 33.65625 5.101562 C 33.890625 4.953125 53.027344 15.695312 53.777344 16.390625 C 54.066406 16.660156 54.027344 16.808594 53.558594 17.253906 C 52.785156 17.972656 34.378906 28.339844 33.867188 28.339844 C 33.25 28.339844 33.144531 27.773438 33.144531 24.347656 L 33.144531 21.179688 L 31.242188 21.308594 C 27.332031 21.585938 24.277344 23.59375 22.617188 26.976562 C 21.816406 28.617188 21.761719 28.898438 21.761719 31.488281 C 21.761719 33.984375 21.832031 34.394531 22.5 35.753906 C 23.507812 37.816406 25.21875 39.503906 27.332031 40.503906 C 28.945312 41.273438 29.308594 41.339844 31.703125 41.339844 C 34 41.339844 34.507812 41.253906 35.820312 40.640625 C 38.898438 39.1875 41.246094 36.0625 41.671875 32.847656 C 41.773438 32.078125 42.011719 31.386719 42.199219 31.3125 C 42.386719 31.238281 44.164062 31.5625 46.152344 32.027344 C 49.636719 32.839844 49.886719 32.941406 53.523438 35.125 C 55.589844 36.371094 57.332031 37.527344 57.402344 37.703125 C 57.46875 37.886719 56.894531 39.597656 56.128906 41.523438 C 54.875 44.660156 54.664062 45.027344 54.050781 45.097656 C 53.679688 45.140625 51.734375 44.761719 49.734375 44.253906 L 46.101562 43.332031 L 43.5625 45.859375 L 44.527344 49.847656 C 45.0625 52.035156 45.4375 53.984375 45.363281 54.179688 C 45.203125 54.597656 39.082031 57.230469 38.261719 57.230469 C 37.808594 57.230469 37.261719 56.515625 35.617188 53.75 L 33.539062 50.269531 L 31.8125 50.191406 C 29.777344 50.101562 30.058594 49.847656 27.542969 54.027344 C 26.03125 56.53125 25.566406 57.109375 25.03125 57.152344 C 24.671875 57.1875 22.964844 56.597656 21.238281 55.839844 Z M 21.238281 55.847656 "/>
</g>
</svg>
