<svg xmlns="http://www.w3.org/2000/svg" xmlns:xlink="http://www.w3.org/1999/xlink" width="64" height="64" viewBox="0 0 64 64" version="1.1">
<defs>
<linearGradient id="linear0" gradientUnits="userSpaceOnUse" x1="0" y1="0" x2="0" y2="1" gradientTransform="matrix(74.65625,0,0,74.666667,5.338541,5.333333)">
<stop offset="0" style="stop-color:#ff6666;stop-opacity:1;"/>
<stop offset="1" style="stop-color:#d90000;stop-opacity:1;"/>
</linearGradient>
</defs>
<g id="surface1">
<path style=" stroke:none;fill-rule:nonzero;fill:url(#linear0);" d="M 31.9375 5.363281 C 29.609375 5.417969 27.820312 7.167969 26.628906 9.496094 L 26.664062 9.429688 L 12.519531 34.847656 C 11.984375 35.816406 12.328125 37.03125 13.292969 37.570312 C 13.757812 37.828125 14.304688 37.890625 14.816406 37.746094 C 15.328125 37.601562 15.757812 37.257812 16.015625 36.792969 L 30.160156 11.375 C 30.171875 11.355469 30.183594 11.335938 30.191406 11.3125 C 31.019531 9.695312 31.777344 9.367188 32.027344 9.363281 C 32.28125 9.355469 32.996094 9.601562 33.886719 11.292969 C 33.894531 11.308594 33.902344 11.324219 33.910156 11.335938 L 39.40625 21.238281 L 44.902344 31.144531 L 55.894531 50.949219 C 55.902344 50.964844 55.910156 50.976562 55.917969 50.988281 C 56.664062 52.265625 56.554688 53.152344 56.269531 53.730469 C 55.984375 54.308594 55.496094 54.621094 54.859375 54.621094 C 53.449219 54.621094 53.445312 54.449219 52.664062 53.402344 L 49.179688 47.839844 C 48.8125 47.253906 48.171875 46.902344 47.484375 46.902344 L 15.84375 46.917969 C 15.132812 46.917969 14.472656 47.296875 14.113281 47.914062 L 12.769531 50.238281 C 12.503906 50.695312 12.429688 51.242188 12.566406 51.757812 C 12.703125 52.269531 13.039062 52.707031 13.496094 52.972656 C 14.453125 53.523438 15.675781 53.199219 16.230469 52.246094 L 17 50.917969 L 46.378906 50.902344 L 49.34375 55.632812 C 49.371094 55.679688 49.402344 55.726562 49.433594 55.769531 C 50.511719 57.207031 52.359375 58.621094 54.859375 58.621094 C 57 58.621094 58.929688 57.367188 59.855469 55.503906 C 60.777344 53.636719 60.675781 51.203125 59.371094 48.972656 L 53.894531 39.105469 L 48.398438 29.199219 L 42.902344 19.296875 L 37.429688 9.4375 C 36.167969 7.027344 34.269531 5.3125 31.9375 5.363281 Z M 31.964844 19.394531 C 30.199219 19.433594 28.960938 20.722656 28.203125 22.195312 L 28.242188 22.121094 L 20.898438 35.023438 C 20.351562 35.984375 20.6875 37.207031 21.644531 37.753906 C 22.109375 38.015625 22.65625 38.085938 23.167969 37.945312 C 23.679688 37.804688 24.113281 37.464844 24.375 37.003906 L 31.71875 24.097656 C 31.734375 24.074219 31.746094 24.050781 31.761719 24.027344 C 32.152344 23.265625 32.359375 23.386719 32.058594 23.394531 C 31.757812 23.402344 31.910156 23.222656 32.332031 24.019531 C 32.339844 24.035156 32.34375 24.046875 32.351562 24.058594 L 40.398438 38.542969 C 40.40625 38.554688 40.414062 38.570312 40.421875 38.582031 C 40.71875 39.085938 40.707031 39.242188 40.75 39.453125 L 11.257812 39.453125 C 10.539062 39.453125 9.875 39.84375 9.519531 40.46875 L 4.683594 49.035156 L 4.699219 49.011719 C 3.421875 51.195312 3.175781 53.574219 4.070312 55.488281 C 4.96875 57.40625 7.027344 58.636719 9.273438 58.636719 C 10.917969 58.636719 12.160156 57.820312 12.675781 57.425781 C 13.554688 56.753906 13.722656 55.5 13.050781 54.621094 C 12.382812 53.746094 11.128906 53.578125 10.25 54.246094 C 9.863281 54.542969 9.800781 54.636719 9.273438 54.636719 C 8.324219 54.636719 7.9375 54.308594 7.695312 53.792969 C 7.453125 53.28125 7.378906 52.351562 8.152344 51.027344 C 8.15625 51.019531 8.160156 51.007812 8.167969 51 L 12.425781 43.453125 L 41.035156 43.453125 C 41.878906 43.453125 42.730469 43.273438 43.457031 42.765625 C 44.1875 42.257812 44.671875 41.417969 44.824219 40.644531 C 45.136719 39.097656 44.597656 37.800781 43.871094 36.558594 L 35.871094 22.15625 C 35.070312 20.636719 33.734375 19.355469 31.964844 19.394531 Z M 31.964844 19.394531 "/>
</g>
</svg>
