<svg xmlns="http://www.w3.org/2000/svg" xmlns:xlink="http://www.w3.org/1999/xlink" width="64" height="64" viewBox="0 0 64 64" version="1.1">
<defs>
<linearGradient id="linear0" gradientUnits="userSpaceOnUse" x1="0" y1="0" x2="0" y2="1" gradientTransform="matrix(54.617188,0,0,64,4.691406,0)">
<stop offset="0" style="stop-color:#ff6666;stop-opacity:1;"/>
<stop offset="1" style="stop-color:#d90000;stop-opacity:1;"/>
</linearGradient>
</defs>
<g id="surface1">
<path style=" stroke:none;fill-rule:nonzero;fill:url(#linear0);" d="M 36.691406 0 C 19.019531 0 4.691406 14.328125 4.691406 32 C 4.691406 49.671875 19.019531 64 36.691406 64 C 45.175781 63.992188 53.3125 60.617188 59.308594 54.617188 L 55.316406 50.625 C 50.378906 55.566406 43.679688 58.347656 36.691406 58.355469 C 29.703125 58.355469 23 55.578125 18.054688 50.636719 C 13.117188 45.691406 10.339844 38.988281 10.339844 32 C 10.339844 25.011719 13.117188 18.308594 18.054688 13.363281 C 23 8.421875 29.703125 5.644531 36.691406 5.644531 C 43.679688 5.652344 50.378906 8.433594 55.316406 13.375 L 59.308594 9.382812 C 53.3125 3.382812 45.175781 0.0078125 36.691406 0 Z M 36.691406 9.332031 C 24.175781 9.332031 14.027344 19.480469 14.027344 32 C 14.027344 44.519531 24.175781 54.667969 36.691406 54.667969 C 42.703125 54.660156 48.464844 52.273438 52.710938 48.019531 L 48.703125 44.011719 C 45.519531 47.199219 41.199219 48.996094 36.691406 49 C 27.304688 49 19.691406 41.386719 19.691406 32 C 19.691406 22.613281 27.304688 15 36.691406 15 C 41.199219 15.003906 45.519531 16.800781 48.703125 19.988281 L 52.710938 15.980469 C 48.464844 11.726562 42.703125 9.339844 36.691406 9.332031 Z M 36.691406 18.667969 C 29.328125 18.667969 23.359375 24.636719 23.359375 32 C 23.359375 39.363281 29.328125 45.332031 36.691406 45.332031 C 40.226562 45.332031 43.617188 43.925781 46.117188 41.425781 L 42.074219 37.382812 C 40.648438 38.8125 38.710938 39.617188 36.691406 39.621094 C 34.671875 39.621094 32.730469 38.816406 31.304688 37.386719 C 29.875 35.960938 29.070312 34.019531 29.070312 32 C 29.070312 29.980469 29.875 28.039062 31.304688 26.613281 C 32.730469 25.183594 34.671875 24.378906 36.691406 24.378906 C 38.710938 24.382812 40.648438 25.1875 42.074219 26.617188 L 46.117188 22.574219 C 43.617188 20.074219 40.226562 18.667969 36.691406 18.667969 Z M 36.691406 18.667969 "/>
</g>
</svg>
