<svg xmlns="http://www.w3.org/2000/svg" xmlns:xlink="http://www.w3.org/1999/xlink" width="64" height="64" viewBox="0 0 64 64" version="1.1">
<defs>
<linearGradient id="linear0" gradientUnits="userSpaceOnUse" x1="0" y1="0" x2="0" y2="1" gradientTransform="matrix(64,0,0,63.738281,0,0.261719)">
<stop offset="0" style="stop-color:#ff6666;stop-opacity:1;"/>
<stop offset="1" style="stop-color:#d90000;stop-opacity:1;"/>
</linearGradient>
</defs>
<g id="surface1">
<path style=" stroke:none;fill-rule:evenodd;fill:url(#linear0);" d="M 34.28125 56.632812 C 34.960938 56.140625 35.898438 54.367188 36.507812 54.191406 C 40.03125 53.1875 43.957031 52.144531 47.152344 50.320312 C 47.855469 49.835938 52.933594 49.996094 54.398438 49.746094 C 55.238281 49.605469 54.886719 47.8125 55.265625 46.949219 C 56.289062 44.613281 58.144531 45.214844 59.886719 44.21875 C 60.511719 43.863281 62.652344 41.511719 64 40.839844 L 63.953125 45.300781 C 64.0625 52.210938 62.863281 57.105469 60.355469 59.988281 C 59.117188 60.933594 58.109375 61.875 56.527344 62.429688 C 55.464844 62.667969 53.972656 63.183594 52.863281 63.351562 C 44.742188 64.40625 36.28125 63.800781 31.6875 63.988281 C 28.65625 63.839844 19.609375 64.296875 12.496094 63.601562 C 7.613281 63 5.945312 62.058594 5.070312 61.539062 C 3.925781 60.84375 3.050781 60.039062 2.394531 59.144531 C 1.539062 57.984375 1.039062 56.699219 0.695312 55.613281 C 0.128906 53.820312 -0.0273438 52.371094 0.00390625 52.363281 C 2.601562 52.679688 4.472656 53.5 6.269531 56 C 10.710938 59.0625 18.539062 54.679688 22.972656 54.679688 C 24.140625 54.679688 25.433594 55.078125 26.761719 55.5625 C 25.78125 54.691406 25.703125 53.679688 26.34375 53.285156 C 27.363281 52.652344 26.78125 49 25.007812 44.886719 C 23.269531 40.84375 23.242188 40.71875 24.042969 39.828125 C 25.910156 37.738281 25.816406 37.625 22.488281 37.949219 C 13.238281 38.839844 12.914062 40.367188 9.722656 41.695312 C 5.523438 43.441406 1.734375 44.042969 1.734375 43.554688 C 1.734375 43.351562 2.292969 43.023438 2.972656 42.835938 L 4.207031 42.488281 L 2.894531 42.222656 C 1.59375 41.964844 1.597656 41.957031 4.242188 40.207031 C 12.039062 32.289062 19.167969 22.78125 29.367188 17.425781 C 30.648438 16.777344 32.109375 15.808594 32.421875 15.125 C 32.714844 14.476562 32.960938 11.128906 32.960938 8.828125 C 32.960938 3.949219 33.742188 1.347656 36.695312 0.464844 C 38.996094 0.164062 38.613281 0.0273438 40.664062 1.304688 C 42.03125 2.152344 43.777344 4.707031 45.273438 4.890625 C 51.222656 5.632812 56.78125 7.902344 57.714844 9.414062 C 57.882812 9.6875 57.433594 9.605469 56.714844 9.234375 C 52.832031 7.222656 44.660156 5.855469 41.78125 7.21875 C 39.425781 8.339844 40.820312 9.355469 41.65625 14.097656 C 42.785156 20.519531 41.988281 25.648438 39.316406 29.152344 C 38.675781 29.996094 36.929688 31.585938 35.433594 32.679688 C 33.941406 33.78125 30.875 35.1875 30.550781 35.808594 C 30.230469 36.429688 29.578125 37.433594 29.105469 38.035156 C 28.355469 38.984375 28.226562 39.933594 28.1875 44.816406 C 28.160156 48.394531 28.324219 50.714844 28.640625 51.097656 C 28.914062 51.429688 29.015625 52.199219 28.859375 52.808594 C 28.546875 54.054688 30.402344 55.90625 32.265625 55.90625 C 32.847656 55.90625 33.71875 56.203125 34.199219 56.566406 C 34.230469 56.59375 34.265625 56.617188 34.28125 56.632812 Z M 26.753906 43.515625 C 26.726562 42.710938 26.851562 41.195312 27.035156 40.148438 C 27.402344 38 26.835938 37.605469 25.902344 39.347656 C 25.199219 40.660156 25.191406 42.757812 25.878906 44.046875 C 26.574219 45.34375 26.800781 45.203125 26.753906 43.515625 Z M 26.753906 43.515625 "/>
</g>
</svg>
