<svg xmlns="http://www.w3.org/2000/svg" xmlns:xlink="http://www.w3.org/1999/xlink" width="64" height="64" viewBox="0 0 64 64" version="1.1">
<defs>
<linearGradient id="linear0" gradientUnits="userSpaceOnUse" x1="0" y1="0" x2="0" y2="1" gradientTransform="matrix(64,0,0,64.007812,0,-0.00390625)">
<stop offset="0" style="stop-color:#ff6666;stop-opacity:1;"/>
<stop offset="1" style="stop-color:#d90000;stop-opacity:1;"/>
</linearGradient>
</defs>
<g id="surface1">
<path style=" stroke:none;fill-rule:nonzero;fill:url(#linear0);" d="M 37.890625 63.4375 C 36.113281 62.359375 34.972656 60.484375 30.019531 50.476562 C 27.285156 44.933594 24.675781 40.007812 24.226562 39.535156 C 23.722656 39.003906 19.59375 36.808594 13.425781 33.796875 C 1.234375 27.847656 0 26.902344 0 23.53125 C 0 21.960938 0.769531 20.457031 1.972656 19.671875 C 2.382812 19.398438 15.128906 14.84375 30.289062 9.539062 C 56.929688 0.222656 57.921875 -0.0976562 59.738281 0.0117188 C 61.3125 0.109375 61.769531 0.269531 62.523438 0.992188 C 63.660156 2.070312 64.171875 3.570312 63.949219 5.175781 C 63.710938 6.898438 44.589844 60.925781 43.875 61.878906 C 42.359375 63.921875 39.785156 64.59375 37.890625 63.441406 Z M 37.890625 63.4375 "/>
</g>
</svg>
