<svg xmlns="http://www.w3.org/2000/svg" xmlns:xlink="http://www.w3.org/1999/xlink" width="64" height="64" viewBox="0 0 64 64" version="1.1">
<defs>
<linearGradient id="linear0" gradientUnits="userSpaceOnUse" x1="0" y1="0" x2="0" y2="1" gradientTransform="matrix(64,0,0,63.554688,0,0.222656)">
<stop offset="0" style="stop-color:#ff6666;stop-opacity:1;"/>
<stop offset="1" style="stop-color:#d90000;stop-opacity:1;"/>
</linearGradient>
</defs>
<g id="surface1">
<path style=" stroke:none;fill-rule:nonzero;fill:url(#linear0);" d="M 25.695312 0.222656 L 13.796875 5.082031 L 16.597656 11.742188 C 14.679688 13.175781 13.007812 14.851562 11.597656 16.707031 L 4.894531 13.929688 L 0 25.734375 L 6.597656 28.511719 C 6.28125 30.792969 6.363281 33.132812 6.691406 35.46875 L 0 38.246094 L 4.894531 50.070312 L 11.597656 47.289062 C 13.042969 49.191406 14.726562 50.851562 16.597656 52.253906 L 13.796875 58.898438 L 25.695312 63.769531 L 28.503906 57.21875 C 30.800781 57.535156 33.136719 57.441406 35.488281 57.125 L 38.292969 63.777344 L 50.195312 58.90625 L 47.398438 52.257812 C 49.3125 50.824219 50.988281 49.152344 52.394531 47.296875 L 59.105469 50.078125 L 64 38.253906 L 57.402344 35.472656 C 57.71875 33.195312 57.632812 30.855469 57.300781 28.519531 L 64 25.742188 L 59.105469 13.933594 L 52.394531 16.714844 C 50.953125 14.8125 49.265625 13.148438 47.398438 11.746094 L 50.195312 5.085938 L 38.292969 0.230469 L 35.488281 6.785156 C 33.191406 6.472656 30.855469 6.550781 28.503906 6.882812 Z M 32 16.109375 C 40.835938 16.109375 47.996094 23.222656 47.996094 31.996094 C 47.996094 40.769531 40.835938 47.882812 32 47.882812 C 23.164062 47.882812 15.996094 40.769531 15.996094 31.996094 C 15.996094 23.222656 23.164062 16.109375 32 16.109375 Z M 32 16.109375 "/>
</g>
</svg>
