<svg xmlns="http://www.w3.org/2000/svg" xmlns:xlink="http://www.w3.org/1999/xlink" width="64" height="64" viewBox="0 0 64 64" version="1.1">
<defs> <linearGradient id="linear0" gradientUnits="userSpaceOnUse" x1="0" y1="0" x2="0" y2="1" gradientTransform="matrix(55.992188,0,0,56,4.003906,4)"> <stop offset="0" style="stop-color:#ff6666;stop-opacity:1;"/> <stop offset="1" style="stop-color:#d90000;stop-opacity:1;"/> </linearGradient> </defs>
<g id="surface1">
<path style=" stroke:none;fill-rule:nonzero;fill:url(#linear0);fill-opacity:1;" d="M 34.933594 -0.722656 C 36.78125 2.730469 38.324219 6.011719 39.570312 9.121094 C 40.613281 9.179688 41.683594 9.246094 42.777344 9.332031 C 40.460938 6.148438 37.847656 2.804688 34.933594 -0.722656 M 33.816406 10.773438 C 33.351562 10.773438 32.886719 10.777344 32.429688 10.785156 C 32.074219 10.789062 31.714844 10.796875 31.367188 10.808594 C 31.316406 10.808594 31.265625 10.8125 31.222656 10.8125 C 30.441406 10.839844 29.683594 10.875 28.945312 10.921875 C 28.8125 10.933594 28.6875 10.941406 28.5625 10.949219 C 28.460938 10.953125 28.359375 10.964844 28.261719 10.972656 C 27.6875 11.015625 27.132812 11.0625 26.585938 11.117188 C 26.332031 11.148438 26.082031 11.175781 25.832031 11.203125 C 25.734375 11.214844 25.644531 11.226562 25.554688 11.238281 C 24.917969 11.316406 24.292969 11.40625 23.691406 11.503906 C 23.664062 11.507812 23.628906 11.507812 23.601562 11.515625 C 23.351562 11.558594 23.105469 11.597656 22.863281 11.644531 C 22.628906 11.691406 22.394531 11.730469 22.167969 11.773438 C 22.101562 11.792969 22.03125 11.800781 21.96875 11.8125 C 21.761719 11.859375 21.554688 11.90625 21.351562 11.949219 C 21.238281 11.976562 21.125 12.007812 21.011719 12.027344 C 20.890625 12.058594 20.773438 12.085938 20.652344 12.113281 C 20.492188 12.152344 20.347656 12.191406 20.191406 12.234375 C 20.066406 12.265625 19.941406 12.292969 19.824219 12.328125 C 19.777344 12.339844 19.734375 12.351562 19.691406 12.363281 C 19.484375 12.425781 19.277344 12.488281 19.078125 12.542969 C 18.816406 12.621094 18.5625 12.707031 18.3125 12.785156 C 18.296875 12.792969 18.277344 12.792969 18.265625 12.796875 C 18.027344 12.878906 17.789062 12.960938 17.5625 13.046875 C 17.457031 13.085938 17.351562 13.125 17.25 13.164062 C 17.097656 13.226562 16.949219 13.285156 16.800781 13.339844 C 16.78125 13.351562 16.757812 13.363281 16.734375 13.371094 C 16.574219 13.4375 16.417969 13.503906 16.261719 13.574219 C 16.105469 13.644531 15.949219 13.714844 15.796875 13.78125 C 15.695312 13.832031 15.59375 13.878906 15.496094 13.921875 C 15.386719 13.980469 15.28125 14.035156 15.179688 14.085938 C 15.136719 14.109375 15.09375 14.132812 15.054688 14.148438 C 14.921875 14.21875 14.792969 14.289062 14.667969 14.359375 C 14.484375 14.460938 14.304688 14.5625 14.132812 14.664062 C 14.082031 14.691406 14.035156 14.722656 13.992188 14.75 C 13.820312 14.855469 13.65625 14.964844 13.496094 15.070312 C 13.472656 15.089844 13.453125 15.101562 13.433594 15.109375 C 13.246094 15.234375 13.066406 15.367188 12.894531 15.488281 C 12.84375 15.523438 12.804688 15.5625 12.757812 15.597656 C 12.640625 15.6875 12.527344 15.773438 12.414062 15.863281 C 12.339844 15.925781 12.269531 15.980469 12.203125 16.039062 C 12.089844 16.132812 11.976562 16.230469 11.867188 16.328125 C 11.84375 16.34375 11.828125 16.359375 11.808594 16.378906 C 11.53125 16.625 11.277344 16.886719 11.03125 17.152344 C 10.953125 17.242188 10.875 17.328125 10.800781 17.414062 C 10.78125 17.429688 10.765625 17.445312 10.753906 17.464844 C 10.65625 17.578125 10.566406 17.691406 10.476562 17.804688 C 10.355469 17.949219 10.242188 18.097656 10.136719 18.25 C 10.128906 18.261719 10.117188 18.261719 10.117188 18.265625 C 10 18.4375 9.886719 18.605469 9.777344 18.777344 C 9.71875 18.859375 9.675781 18.945312 9.628906 19.023438 C 9.585938 19.097656 9.539062 19.171875 9.5 19.246094 C 9.453125 19.328125 9.40625 19.410156 9.367188 19.488281 C 9.300781 19.613281 9.230469 19.730469 9.175781 19.851562 C 9.160156 19.882812 9.148438 19.917969 9.136719 19.945312 C 9.0625 20.097656 8.988281 20.25 8.925781 20.40625 C 8.902344 20.457031 8.886719 20.5 8.867188 20.546875 C 8.816406 20.664062 8.765625 20.785156 8.726562 20.902344 C 8.691406 20.988281 8.664062 21.070312 8.636719 21.15625 C 8.625 21.183594 8.609375 21.214844 8.601562 21.242188 C 8.550781 21.386719 8.503906 21.53125 8.464844 21.671875 C 8.277344 22.292969 8.148438 22.9375 8.054688 23.605469 C 8.050781 23.617188 8.054688 23.628906 8.054688 23.632812 C 8.027344 23.808594 8.011719 23.988281 7.992188 24.164062 C 7.984375 24.285156 7.964844 24.402344 7.960938 24.515625 C 7.949219 24.628906 7.949219 24.738281 7.941406 24.84375 C 7.9375 24.921875 7.933594 25.003906 7.933594 25.082031 C 7.898438 25.996094 7.9375 26.953125 8.054688 27.949219 C 8.054688 27.976562 8.0625 28.003906 8.066406 28.035156 C 8.089844 28.261719 8.125 28.480469 8.160156 28.699219 C 8.164062 28.761719 8.175781 28.832031 8.1875 28.886719 C 8.214844 29.078125 8.242188 29.273438 8.285156 29.457031 C 8.296875 29.527344 8.304688 29.59375 8.324219 29.65625 C 8.363281 29.882812 8.410156 30.109375 8.460938 30.328125 C 8.464844 30.375 8.476562 30.414062 8.488281 30.460938 C 8.539062 30.695312 8.601562 30.945312 8.664062 31.195312 C 8.664062 31.199219 8.664062 31.210938 8.671875 31.222656 C 8.785156 31.675781 8.914062 32.132812 9.054688 32.609375 C 9.136719 32.875 9.222656 33.140625 9.3125 33.417969 C 9.351562 33.542969 9.390625 33.671875 9.4375 33.800781 C 9.4375 33.8125 9.449219 33.832031 9.453125 33.847656 C 9.542969 34.113281 9.636719 34.378906 9.738281 34.648438 C 9.800781 34.820312 9.863281 34.996094 9.929688 35.171875 C 9.964844 35.273438 10.003906 35.375 10.050781 35.480469 C 10.09375 35.605469 10.144531 35.730469 10.199219 35.859375 C 10.394531 36.371094 10.613281 36.890625 10.84375 37.414062 C 10.878906 37.496094 10.914062 37.578125 10.953125 37.664062 C 11.238281 38.316406 11.550781 38.976562 11.878906 39.65625 C 13.171875 42.3125 14.796875 45.15625 16.734375 48.1875 C 18.558594 47.890625 20.277344 47.539062 21.894531 47.136719 C 21.230469 44.460938 20.839844 41.953125 20.726562 39.59375 C 20.710938 39.339844 20.703125 39.089844 20.699219 38.839844 C 20.691406 38.660156 20.6875 38.472656 20.6875 38.296875 C 20.6875 38.21875 20.6875 38.144531 20.6875 38.070312 C 20.6875 37.828125 20.6875 37.597656 20.699219 37.359375 C 20.699219 37.355469 20.699219 37.347656 20.699219 37.347656 C 20.703125 37.097656 20.710938 36.855469 20.726562 36.617188 C 20.742188 36.289062 20.765625 35.960938 20.800781 35.644531 C 20.917969 34.3125 21.152344 33.039062 21.480469 31.828125 C 21.574219 31.488281 21.667969 31.148438 21.777344 30.820312 C 21.886719 30.488281 22 30.160156 22.128906 29.835938 C 22.136719 29.816406 22.140625 29.796875 22.152344 29.78125 C 22.199219 29.664062 22.242188 29.542969 22.292969 29.429688 C 22.320312 29.355469 22.351562 29.285156 22.382812 29.210938 C 22.46875 29.011719 22.5625 28.8125 22.652344 28.621094 C 22.800781 28.304688 22.953125 27.988281 23.121094 27.683594 C 23.265625 27.410156 23.425781 27.140625 23.582031 26.878906 C 23.613281 26.828125 23.640625 26.777344 23.675781 26.726562 C 23.871094 26.40625 24.082031 26.089844 24.304688 25.777344 C 24.519531 25.460938 24.753906 25.15625 24.996094 24.855469 C 25.003906 24.84375 25.015625 24.832031 25.027344 24.820312 C 25.121094 24.695312 25.222656 24.574219 25.328125 24.453125 C 25.824219 23.859375 26.367188 23.28125 26.949219 22.738281 C 26.949219 22.734375 26.957031 22.730469 26.960938 22.730469 C 27.105469 22.59375 27.25 22.464844 27.398438 22.332031 C 27.546875 22.195312 27.699219 22.074219 27.855469 21.941406 C 28.03125 21.789062 28.207031 21.644531 28.394531 21.5 C 28.496094 21.417969 28.601562 21.332031 28.710938 21.253906 C 28.785156 21.195312 28.859375 21.140625 28.933594 21.089844 C 29.035156 21.007812 29.132812 20.9375 29.238281 20.863281 C 29.390625 20.75 29.546875 20.640625 29.703125 20.535156 C 29.738281 20.507812 29.773438 20.484375 29.808594 20.460938 C 30.578125 19.933594 31.402344 19.4375 32.273438 18.972656 C 32.566406 18.808594 32.875 18.652344 33.1875 18.5 C 33.269531 18.453125 33.355469 18.414062 33.441406 18.375 C 33.5625 18.3125 33.679688 18.261719 33.800781 18.203125 C 34 18.109375 34.195312 18.011719 34.40625 17.921875 C 34.414062 17.917969 34.417969 17.917969 34.425781 17.917969 C 35.121094 17.597656 35.855469 17.300781 36.617188 17.015625 C 36.691406 16.988281 36.765625 16.953125 36.835938 16.933594 C 37.332031 16.746094 37.84375 16.574219 38.367188 16.40625 C 38.648438 16.308594 38.945312 16.214844 39.238281 16.128906 C 39.484375 16.050781 39.734375 15.976562 39.988281 15.910156 C 41.113281 15.582031 42.285156 15.285156 43.511719 15.019531 C 43.511719 15.019531 43.511719 15.019531 43.511719 15.027344 C 43.800781 14.957031 44.09375 14.894531 44.394531 14.839844 C 45.652344 14.578125 46.957031 14.347656 48.316406 14.15625 C 48.460938 14.132812 48.621094 14.109375 48.773438 14.09375 C 50.574219 13.839844 52.464844 13.628906 54.449219 13.480469 C 54.710938 13.460938 54.972656 13.441406 55.238281 13.425781 C 55.59375 13.398438 55.953125 13.375 56.324219 13.359375 C 56.867188 13.324219 57.425781 13.296875 57.984375 13.273438 C 58.394531 13.25 58.804688 13.234375 59.21875 13.222656 C 58.082031 13.03125 56.976562 12.855469 55.878906 12.691406 C 55.777344 12.671875 55.675781 12.65625 55.578125 12.644531 C 54.585938 12.492188 53.609375 12.355469 52.648438 12.226562 C 52.453125 12.199219 52.261719 12.171875 52.070312 12.140625 C 51.734375 12.101562 51.40625 12.058594 51.074219 12.011719 C 50.835938 11.984375 50.605469 11.957031 50.363281 11.921875 C 50.082031 11.886719 49.808594 11.855469 49.53125 11.820312 C 48.507812 11.699219 47.507812 11.585938 46.527344 11.484375 C 43.617188 11.191406 40.875 10.988281 38.296875 10.875 C 38.171875 10.875 38.054688 10.863281 37.929688 10.859375 C 36.890625 10.820312 35.882812 10.789062 34.902344 10.777344 C 34.539062 10.777344 34.175781 10.773438 33.816406 10.773438 M 47.433594 16.128906 C 45.589844 16.429688 43.851562 16.785156 42.222656 17.191406 C 42.976562 20.21875 43.378906 23.035156 43.429688 25.652344 C 43.4375 25.890625 43.4375 26.121094 43.4375 26.347656 L 43.4375 26.398438 C 43.4375 26.601562 43.429688 26.800781 43.425781 26.992188 C 43.417969 27.195312 43.414062 27.390625 43.402344 27.585938 C 43.402344 27.605469 43.402344 27.613281 43.402344 27.625 C 43.402344 27.636719 43.402344 27.648438 43.402344 27.65625 C 43.390625 27.859375 43.375 28.054688 43.363281 28.253906 C 43.351562 28.417969 43.339844 28.582031 43.324219 28.742188 C 43.3125 28.859375 43.300781 28.972656 43.289062 29.078125 C 43.285156 29.148438 43.273438 29.214844 43.265625 29.277344 C 43.253906 29.351562 43.242188 29.417969 43.238281 29.488281 C 43.214844 29.652344 43.199219 29.808594 43.175781 29.96875 C 43.167969 30.011719 43.164062 30.050781 43.160156 30.09375 C 43.148438 30.164062 43.136719 30.234375 43.125 30.300781 C 43.039062 30.828125 42.9375 31.34375 42.816406 31.84375 C 42.785156 31.992188 42.742188 32.132812 42.710938 32.269531 C 42.699219 32.320312 42.6875 32.371094 42.675781 32.417969 C 42.660156 32.488281 42.636719 32.558594 42.617188 32.625 C 42.585938 32.746094 42.550781 32.863281 42.515625 32.976562 C 42.488281 33.074219 42.460938 33.167969 42.429688 33.265625 C 42.402344 33.347656 42.375 33.441406 42.347656 33.53125 C 42.335938 33.554688 42.328125 33.574219 42.324219 33.605469 C 42.265625 33.757812 42.214844 33.914062 42.160156 34.074219 C 42.089844 34.25 42.023438 34.429688 41.953125 34.609375 C 41.8125 34.960938 41.664062 35.304688 41.507812 35.652344 C 41.425781 35.820312 41.347656 35.992188 41.261719 36.160156 C 41.175781 36.324219 41.085938 36.492188 41 36.664062 C 40.925781 36.800781 40.847656 36.933594 40.773438 37.078125 C 40.757812 37.097656 40.738281 37.128906 40.726562 37.15625 C 40.675781 37.234375 40.625 37.320312 40.582031 37.40625 C 40.527344 37.476562 40.484375 37.558594 40.4375 37.636719 C 40.421875 37.664062 40.398438 37.6875 40.382812 37.722656 C 40.296875 37.851562 40.214844 37.980469 40.132812 38.113281 C 40.046875 38.234375 39.960938 38.359375 39.875 38.492188 C 39.851562 38.519531 39.832031 38.546875 39.8125 38.582031 C 39.707031 38.722656 39.601562 38.871094 39.496094 39.015625 C 39.488281 39.023438 39.484375 39.027344 39.476562 39.039062 C 39.46875 39.042969 39.460938 39.054688 39.457031 39.066406 C 39.234375 39.355469 39 39.644531 38.761719 39.925781 C 38.636719 40.066406 38.507812 40.214844 38.382812 40.363281 C 38.25 40.503906 38.121094 40.644531 37.992188 40.785156 C 37.722656 41.0625 37.445312 41.335938 37.160156 41.605469 C 37.042969 41.714844 36.929688 41.828125 36.808594 41.933594 C 36.78125 41.957031 36.753906 41.980469 36.722656 42.007812 C 36.421875 42.269531 36.117188 42.523438 35.804688 42.777344 C 35.789062 42.789062 35.769531 42.800781 35.757812 42.816406 C 35.609375 42.929688 35.464844 43.039062 35.320312 43.148438 C 35.15625 43.269531 34.988281 43.394531 34.820312 43.519531 C 33.980469 44.117188 33.078125 44.683594 32.117188 45.214844 C 31.925781 45.316406 31.726562 45.417969 31.535156 45.527344 C 31.335938 45.628906 31.128906 45.734375 30.929688 45.835938 C 30.726562 45.933594 30.523438 46.027344 30.316406 46.128906 C 30.238281 46.164062 30.160156 46.203125 30.078125 46.242188 C 29.949219 46.300781 29.820312 46.355469 29.6875 46.417969 C 29.472656 46.507812 29.257812 46.605469 29.039062 46.703125 C 28.894531 46.757812 28.75 46.820312 28.609375 46.882812 C 28.53125 46.910156 28.457031 46.941406 28.382812 46.972656 C 27.710938 47.238281 27.023438 47.492188 26.316406 47.738281 C 26.292969 47.742188 26.269531 47.75 26.253906 47.757812 C 26.03125 47.832031 25.816406 47.902344 25.597656 47.972656 C 25.355469 48.046875 25.109375 48.121094 24.867188 48.199219 C 24.617188 48.273438 24.367188 48.347656 24.117188 48.421875 L 24.117188 48.425781 C 21.605469 49.144531 18.851562 49.722656 15.855469 50.164062 C 15.847656 50.15625 15.847656 50.15625 15.847656 50.15625 C 15.007812 50.277344 14.15625 50.390625 13.28125 50.492188 C 11.96875 50.636719 10.613281 50.769531 9.214844 50.871094 C 7.816406 50.964844 6.375 51.039062 4.894531 51.097656 C 4.898438 51.097656 4.910156 51.097656 4.921875 51.101562 C 4.910156 51.101562 4.898438 51.101562 4.894531 51.101562 C 6.027344 51.289062 7.136719 51.457031 8.238281 51.628906 C 8.765625 51.707031 9.285156 51.78125 9.804688 51.859375 C 9.839844 51.867188 9.878906 51.871094 9.917969 51.875 C 12.054688 52.183594 14.121094 52.449219 16.113281 52.675781 C 16.175781 52.679688 16.238281 52.683594 16.308594 52.695312 C 16.738281 52.742188 17.171875 52.789062 17.601562 52.832031 C 20.488281 53.125 23.207031 53.335938 25.773438 53.449219 C 25.816406 53.449219 25.855469 53.449219 25.894531 53.453125 C 26.824219 53.492188 27.738281 53.515625 28.632812 53.535156 C 28.976562 53.539062 29.320312 53.539062 29.664062 53.546875 C 29.851562 53.546875 30.046875 53.550781 30.238281 53.550781 C 30.609375 53.550781 30.976562 53.539062 31.347656 53.539062 C 31.613281 53.535156 31.878906 53.535156 32.148438 53.527344 C 32.214844 53.523438 32.289062 53.523438 32.363281 53.523438 C 32.5625 53.515625 32.761719 53.511719 32.957031 53.503906 C 33.28125 53.492188 33.601562 53.476562 33.925781 53.464844 C 34.339844 53.441406 34.746094 53.421875 35.15625 53.398438 C 35.558594 53.371094 35.957031 53.339844 36.355469 53.3125 C 36.695312 53.285156 37.03125 53.25 37.367188 53.222656 C 37.417969 53.21875 37.460938 53.210938 37.519531 53.207031 C 37.871094 53.167969 38.222656 53.125 38.570312 53.085938 C 38.59375 53.082031 38.621094 53.074219 38.648438 53.074219 C 38.800781 53.054688 38.949219 53.03125 39.105469 53.011719 C 39.683594 52.933594 40.25 52.847656 40.800781 52.757812 C 40.820312 52.753906 40.839844 52.746094 40.863281 52.746094 C 41.878906 52.566406 42.847656 52.363281 43.765625 52.132812 C 44.078125 52.046875 44.386719 51.96875 44.6875 51.882812 C 44.929688 51.808594 45.175781 51.730469 45.417969 51.65625 C 45.46875 51.640625 45.519531 51.621094 45.570312 51.609375 C 45.679688 51.570312 45.789062 51.539062 45.894531 51.503906 C 45.953125 51.480469 46.007812 51.457031 46.070312 51.441406 C 46.265625 51.375 46.453125 51.304688 46.644531 51.238281 C 46.691406 51.21875 46.734375 51.203125 46.78125 51.1875 C 46.929688 51.125 47.078125 51.066406 47.230469 51.011719 C 47.265625 50.996094 47.304688 50.976562 47.34375 50.964844 C 47.832031 50.761719 48.296875 50.546875 48.753906 50.328125 C 48.773438 50.308594 48.796875 50.304688 48.824219 50.292969 C 49.042969 50.179688 49.253906 50.074219 49.460938 49.960938 C 49.496094 49.9375 49.535156 49.914062 49.574219 49.898438 C 49.761719 49.789062 49.949219 49.675781 50.132812 49.5625 C 50.347656 49.433594 50.558594 49.292969 50.769531 49.152344 C 50.824219 49.109375 50.886719 49.070312 50.949219 49.027344 C 50.988281 48.996094 51.03125 48.96875 51.074219 48.9375 C 51.171875 48.867188 51.273438 48.792969 51.371094 48.722656 C 51.46875 48.648438 51.5625 48.574219 51.660156 48.496094 C 51.734375 48.4375 51.808594 48.382812 51.882812 48.320312 C 51.898438 48.308594 51.914062 48.285156 51.9375 48.269531 C 52.011719 48.207031 52.089844 48.136719 52.171875 48.070312 C 52.183594 48.058594 52.195312 48.054688 52.210938 48.035156 C 52.222656 48.023438 52.238281 48.015625 52.257812 47.996094 C 52.414062 47.855469 52.570312 47.703125 52.722656 47.550781 C 52.882812 47.390625 53.046875 47.222656 53.199219 47.050781 C 53.203125 47.046875 53.214844 47.035156 53.226562 47.023438 C 53.296875 46.949219 53.359375 46.871094 53.425781 46.792969 C 53.4375 46.78125 53.449219 46.765625 53.464844 46.746094 C 53.527344 46.671875 53.585938 46.605469 53.648438 46.527344 C 53.714844 46.441406 53.785156 46.351562 53.851562 46.261719 C 53.867188 46.238281 53.890625 46.210938 53.914062 46.183594 C 53.960938 46.121094 54.003906 46.050781 54.054688 45.984375 C 54.078125 45.957031 54.101562 45.921875 54.125 45.886719 C 54.164062 45.832031 54.203125 45.769531 54.242188 45.707031 C 54.265625 45.667969 54.296875 45.632812 54.324219 45.585938 C 54.359375 45.535156 54.390625 45.480469 54.425781 45.425781 C 54.453125 45.378906 54.488281 45.332031 54.515625 45.28125 C 54.542969 45.238281 54.574219 45.1875 54.601562 45.136719 C 54.628906 45.085938 54.660156 45.027344 54.691406 44.972656 C 54.714844 44.933594 54.742188 44.886719 54.765625 44.839844 C 54.800781 44.785156 54.828125 44.71875 54.863281 44.65625 C 54.878906 44.621094 54.898438 44.582031 54.917969 44.542969 C 54.953125 44.472656 54.988281 44.40625 55.023438 44.332031 C 55.035156 44.304688 55.050781 44.269531 55.066406 44.234375 C 55.113281 44.132812 55.164062 44.03125 55.210938 43.925781 C 55.242188 43.847656 55.28125 43.761719 55.316406 43.675781 C 55.324219 43.660156 55.328125 43.636719 55.339844 43.613281 C 55.351562 43.582031 55.363281 43.546875 55.378906 43.507812 C 55.40625 43.4375 55.429688 43.367188 55.460938 43.292969 C 55.492188 43.195312 55.53125 43.09375 55.566406 42.992188 C 55.566406 42.988281 55.566406 42.980469 55.574219 42.96875 C 55.605469 42.863281 55.640625 42.753906 55.675781 42.640625 C 55.738281 42.421875 55.800781 42.195312 55.855469 41.960938 C 55.855469 41.953125 55.863281 41.941406 55.867188 41.921875 C 55.890625 41.828125 55.90625 41.726562 55.929688 41.625 C 55.953125 41.511719 55.976562 41.390625 56 41.273438 C 56.003906 41.246094 56.011719 41.214844 56.015625 41.183594 C 56.027344 41.097656 56.042969 41.007812 56.0625 40.917969 C 56.066406 40.882812 56.074219 40.84375 56.078125 40.804688 C 56.105469 40.605469 56.128906 40.402344 56.152344 40.191406 C 56.167969 40.011719 56.1875 39.820312 56.199219 39.632812 C 56.207031 39.445312 56.21875 39.257812 56.226562 39.066406 C 56.226562 39.054688 56.226562 39.042969 56.226562 39.027344 C 56.230469 38.789062 56.230469 38.542969 56.226562 38.292969 C 56.21875 38.03125 56.214844 37.765625 56.199219 37.496094 C 56.167969 36.996094 56.113281 36.488281 56.042969 35.960938 C 56.039062 35.921875 56.039062 35.882812 56.03125 35.84375 C 56.027344 35.832031 56.027344 35.820312 56.027344 35.808594 C 55.988281 35.542969 55.941406 35.265625 55.894531 34.988281 C 55.890625 34.960938 55.886719 34.925781 55.878906 34.894531 C 55.832031 34.640625 55.78125 34.378906 55.726562 34.113281 C 55.714844 34.0625 55.703125 34.011719 55.691406 33.960938 C 55.636719 33.71875 55.578125 33.46875 55.515625 33.21875 C 55.453125 32.980469 55.390625 32.738281 55.328125 32.496094 C 55.3125 32.433594 55.292969 32.371094 55.277344 32.304688 C 55.265625 32.269531 55.253906 32.234375 55.25 32.203125 C 55.179688 31.96875 55.113281 31.730469 55.039062 31.496094 C 55.023438 31.453125 55.011719 31.410156 55 31.363281 C 54.992188 31.347656 54.988281 31.332031 54.980469 31.3125 C 54.910156 31.085938 54.828125 30.855469 54.753906 30.625 C 54.730469 30.554688 54.710938 30.480469 54.6875 30.410156 C 54.636719 30.273438 54.585938 30.132812 54.539062 29.992188 C 54.535156 29.980469 54.527344 29.96875 54.523438 29.949219 C 54.410156 29.632812 54.296875 29.3125 54.171875 28.984375 C 54.164062 28.972656 54.160156 28.957031 54.152344 28.9375 C 54.148438 28.925781 54.140625 28.914062 54.136719 28.898438 C 54.011719 28.578125 53.878906 28.25 53.742188 27.914062 C 53.738281 27.902344 53.734375 27.886719 53.726562 27.871094 C 53.714844 27.851562 53.710938 27.828125 53.703125 27.8125 C 53.5625 27.472656 53.414062 27.121094 53.261719 26.773438 C 53.097656 26.40625 52.933594 26.03125 52.757812 25.652344 C 51.386719 22.710938 49.609375 19.539062 47.433594 16.128906 M 21.367188 54.988281 C 23.675781 58.175781 26.257812 61.542969 29.175781 65.070312 C 27.324219 61.605469 25.757812 58.316406 24.507812 55.195312 C 23.480469 55.144531 22.4375 55.070312 21.367188 54.988281 "/>
</g>
</svg>
