<svg xmlns="http://www.w3.org/2000/svg" xmlns:xlink="http://www.w3.org/1999/xlink" width="64" height="64" viewBox="0 0 64 64" version="1.1">
<defs>
<linearGradient id="linear0" gradientUnits="userSpaceOnUse" x1="0" y1="0" x2="0" y2="1" gradientTransform="matrix(64,0,0,54.398438,0,4.800781)">
<stop offset="0" style="stop-color:#ff6666;stop-opacity:1;"/>
<stop offset="1" style="stop-color:#d90000;stop-opacity:1;"/>
</linearGradient>
</defs>
<g id="surface1">
<path style=" stroke:none;fill-rule:nonzero;fill:url(#linear0);" d="M 40.148438 58.746094 C 30.132812 56.609375 20.304688 48.175781 17.042969 38.371094 C 16.203125 35.84375 15.90625 31.703125 16.410156 29.46875 C 18.21875 21.382812 27.40625 18.480469 39.066406 22.300781 C 43.394531 23.714844 49.734375 27.101562 49.734375 27.992188 C 49.734375 28.445312 48.9375 28.867188 46.5625 29.671875 L 44.84375 30.257812 L 42.464844 29.089844 C 33.257812 24.570312 25.007812 25.753906 23.160156 31.851562 C 22.351562 34.511719 22.8125 37.378906 24.617188 41 C 28.277344 48.324219 37.023438 53.566406 44.40625 53.222656 C 46.496094 53.125 46.957031 53.003906 49.054688 51.988281 C 52.023438 50.546875 54.972656 47.785156 56.234375 45.238281 C 59.546875 38.589844 57.644531 31.28125 50.757812 24.1875 C 42.742188 15.9375 30.65625 10.472656 20.449219 10.492188 C 15.539062 10.5 12.703125 11.457031 10.140625 13.972656 C 7.625 16.441406 6.652344 19.472656 6.929688 23.988281 C 7.53125 33.847656 13.304688 44.191406 22.855469 52.527344 C 24.65625 54.105469 26.132812 55.554688 26.132812 55.757812 C 26.132812 56.441406 25.160156 56.128906 22.800781 54.679688 C 14.660156 49.683594 8.203125 42.738281 3.9375 34.386719 C 0.558594 27.789062 -0.695312 21.386719 0.367188 16.269531 C 1.183594 12.355469 3.140625 9.382812 6.199219 7.375 C 12.898438 3.21875 23.953125 4.941406 29.925781 6.664062 C 42.675781 10.449219 54.058594 18.210938 60.046875 27.0625 C 66.234375 35.738281 64.648438 47.144531 58.816406 53.152344 C 55.898438 56.007812 53.980469 57.273438 51 58.292969 C 48.039062 59.304688 43.632812 59.492188 40.148438 58.746094 Z M 40.148438 58.746094 "/>
</g>
</svg>
