<svg xmlns="http://www.w3.org/2000/svg" xmlns:xlink="http://www.w3.org/1999/xlink" width="64" height="64" viewBox="0 0 64 64" version="1.1">
<defs> <linearGradient id="linear0" gradientUnits="userSpaceOnUse" x1="0" y1="0" x2="0" y2="1" gradientTransform="matrix(55.992188,0,0,56,4.003906,4)"> <stop offset="0" style="stop-color:#ff6666;stop-opacity:1;"/> <stop offset="1" style="stop-color:#d90000;stop-opacity:1;"/> </linearGradient> </defs>
<g id="surface1">
<path style=" stroke:none;fill-rule:nonzero;fill:url(#linear0);fill-opacity:1;" d="M 32.054688 2.617188 C 23.101562 2.617188 15.070312 6.570312 9.628906 12.820312 L 23.816406 29.539062 L 33.269531 2.648438 C 32.867188 2.628906 32.464844 2.617188 32.054688 2.617188 M 38.117188 3.242188 L 30.972656 23.589844 L 58.601562 18.941406 C 54.597656 10.992188 47.101562 5.09375 38.117188 3.242188 M 7.101562 16.164062 C 4.117188 20.777344 2.378906 26.273438 2.378906 32.171875 C 2.378906 35.339844 2.878906 38.394531 3.804688 41.25 L 25.316406 37.636719 L 7.101562 16.167969 M 60.378906 23.304688 L 38.886719 26.917969 L 56.890625 48.371094 C 59.957031 43.714844 61.738281 38.15625 61.738281 32.171875 C 61.738281 29.085938 61.261719 26.105469 60.378906 23.304688 M 32.054688 27.609375 C 29.527344 27.609375 27.480469 29.652344 27.480469 32.171875 C 27.480469 34.695312 29.527344 36.738281 32.054688 36.738281 C 34.589844 36.738281 36.640625 34.695312 36.640625 32.171875 C 36.640625 29.652344 34.589844 27.609375 32.054688 27.609375 M 40.257812 34.660156 L 40.222656 34.753906 L 40.285156 34.78125 L 38.460938 39.585938 C 37.632812 41.871094 40.398438 34.617188 40.332031 34.792969 L 30.074219 61.667969 C 30.734375 61.707031 31.390625 61.726562 32.0625 61.726562 C 40.996094 61.726562 49.007812 57.796875 54.449219 51.578125 L 40.257812 34.660156 M 33.691406 40.765625 L 5.558594 45.492188 C 9.566406 53.386719 17.03125 59.25 25.96875 61.105469 L 33.691406 40.765625 "/>
</g>
</svg>
