<svg xmlns="http://www.w3.org/2000/svg" xmlns:xlink="http://www.w3.org/1999/xlink" width="64" height="64" viewBox="0 0 64 64" version="1.1">
<defs>
<linearGradient id="linear0" gradientUnits="userSpaceOnUse" x1="0" y1="0" x2="0" y2="1" gradientTransform="matrix(41.386719,0,0,8.257812,4.605469,55.742187)">
<stop offset="0" style="stop-color:#ff6666;stop-opacity:1;"/>
<stop offset="1" style="stop-color:#d90000;stop-opacity:1;"/>
</linearGradient>
<linearGradient id="linear1" gradientUnits="userSpaceOnUse" x1="0" y1="0" x2="0" y2="1" gradientTransform="matrix(58.078125,0,0,39.257812,2.960938,0)">
<stop offset="0" style="stop-color:#ff6666;stop-opacity:1;"/>
<stop offset="1" style="stop-color:#d90000;stop-opacity:1;"/>
</linearGradient>
</defs>
<g id="surface1">
<path style=" stroke:none;fill-rule:nonzero;fill:url(#linear0);" d="M 41.851562 55.742188 C 42.949219 55.738281 44.003906 56.171875 44.78125 56.945312 C 45.558594 57.722656 45.992188 58.773438 45.992188 59.871094 C 45.992188 60.964844 45.554688 62.015625 44.777344 62.789062 C 44 63.5625 42.949219 64 41.851562 64 L 8.746094 64 C 7.652344 63.996094 6.597656 63.5625 5.820312 62.789062 C 5.042969 62.015625 4.609375 60.964844 4.605469 59.871094 C 4.605469 58.773438 5.042969 57.722656 5.820312 56.945312 C 6.597656 56.175781 7.652344 55.742188 8.746094 55.742188 Z M 41.851562 55.742188 "/>
<path style=" stroke:none;fill-rule:evenodd;fill:url(#linear1);" d="M 12.179688 9.464844 L 14.296875 9.464844 C 14.910156 9.464844 15.515625 9.53125 16.113281 9.671875 C 16.582031 9.777344 17.027344 9.945312 17.445312 10.167969 C 17.851562 10.382812 18.21875 10.652344 18.550781 10.960938 C 18.929688 11.324219 19.273438 11.734375 19.558594 12.179688 C 19.867188 12.660156 20.140625 13.167969 20.375 13.691406 C 20.617188 14.238281 20.824219 14.808594 20.988281 15.386719 C 21.164062 16.027344 21.296875 16.671875 21.386719 17.328125 C 21.480469 18.09375 21.527344 18.863281 21.527344 19.628906 C 21.527344 20.289062 21.492188 20.945312 21.414062 21.601562 C 21.339844 22.214844 21.230469 22.828125 21.082031 23.429688 C 20.9375 24.015625 20.75 24.59375 20.519531 25.152344 C 20.292969 25.707031 20.027344 26.242188 19.726562 26.757812 C 19.464844 27.199219 19.140625 27.601562 18.769531 27.953125 C 18.355469 28.34375 17.898438 28.679688 17.402344 28.953125 C 16.910156 29.214844 16.382812 29.421875 15.835938 29.546875 C 15.152344 29.707031 14.453125 29.789062 13.75 29.789062 L 12.179688 29.789062 Z M 13.15625 38.660156 L 5.167969 38.660156 C 3.949219 38.660156 2.960938 37.671875 2.960938 36.453125 L 2.960938 2.800781 C 2.960938 1.585938 3.949219 0.597656 5.167969 0.597656 L 13.351562 0.597656 C 14.5625 0.597656 15.757812 0.695312 16.949219 0.886719 C 18 1.058594 19.03125 1.324219 20.027344 1.6875 C 21.023438 2.046875 21.976562 2.492188 22.890625 3.023438 C 23.6875 3.488281 24.429688 4.03125 25.113281 4.644531 C 25.789062 5.25 26.402344 5.917969 26.957031 6.632812 C 27.53125 7.371094 28.042969 8.160156 28.492188 8.988281 C 28.933594 9.804688 29.3125 10.648438 29.640625 11.511719 C 29.953125 12.367188 30.210938 13.238281 30.410156 14.128906 C 30.609375 15.003906 30.753906 15.894531 30.847656 16.789062 C 30.945312 17.730469 30.996094 18.679688 30.996094 19.628906 C 30.996094 20.511719 30.953125 21.386719 30.863281 22.265625 C 30.773438 23.125 30.644531 23.988281 30.464844 24.832031 C 30.285156 25.695312 30.046875 26.546875 29.742188 27.378906 C 29.429688 28.257812 29.058594 29.117188 28.628906 29.945312 C 28.195312 30.789062 27.691406 31.59375 27.125 32.355469 C 26.570312 33.09375 25.960938 33.777344 25.292969 34.414062 C 24.609375 35.058594 23.851562 35.628906 23.039062 36.105469 C 22.101562 36.667969 21.109375 37.136719 20.082031 37.519531 C 19.050781 37.894531 17.988281 38.175781 16.902344 38.359375 C 15.660156 38.5625 14.414062 38.660156 13.15625 38.660156 Z M 51.628906 26.445312 C 51.617188 26.570312 51.601562 26.691406 51.585938 26.804688 C 51.535156 27.132812 51.464844 27.453125 51.359375 27.765625 C 51.269531 28.035156 51.164062 28.296875 51.03125 28.542969 C 50.910156 28.765625 50.773438 28.980469 50.617188 29.179688 C 50.476562 29.355469 50.308594 29.519531 50.128906 29.664062 C 49.957031 29.796875 49.769531 29.910156 49.570312 30.003906 C 49.34375 30.109375 49.105469 30.1875 48.863281 30.230469 C 48.515625 30.304688 48.167969 30.335938 47.816406 30.335938 C 47.378906 30.335938 46.949219 30.28125 46.53125 30.164062 C 46.179688 30.070312 45.839844 29.921875 45.53125 29.730469 C 45.191406 29.519531 44.886719 29.261719 44.621094 28.960938 C 44.253906 28.542969 43.933594 28.082031 43.667969 27.589844 C 43.398438 27.085938 43.164062 26.5625 42.96875 26.027344 C 42.746094 25.441406 42.566406 24.839844 42.421875 24.230469 C 42.253906 23.535156 42.140625 22.832031 42.0625 22.132812 C 41.96875 21.300781 41.925781 20.460938 41.925781 19.628906 C 41.925781 18.691406 41.984375 17.753906 42.09375 16.824219 C 42.199219 15.992188 42.355469 15.171875 42.570312 14.359375 C 42.761719 13.617188 43.042969 12.890625 43.402344 12.207031 C 43.75 11.546875 44.175781 10.929688 44.667969 10.367188 C 44.886719 10.117188 45.128906 9.890625 45.390625 9.691406 C 45.609375 9.527344 45.847656 9.382812 46.101562 9.269531 C 46.347656 9.15625 46.609375 9.074219 46.875 9.019531 C 47.183594 8.953125 47.503906 8.921875 47.816406 8.921875 C 47.988281 8.921875 48.152344 8.9375 48.3125 8.964844 C 48.476562 8.992188 48.636719 9.035156 48.792969 9.097656 C 48.964844 9.15625 49.125 9.234375 49.285156 9.328125 C 49.476562 9.445312 49.664062 9.578125 49.835938 9.71875 C 50.171875 10 50.476562 10.316406 50.746094 10.664062 C 51.164062 11.214844 51.539062 11.800781 51.871094 12.414062 C 52.082031 12.808594 52.4375 13.101562 52.871094 13.222656 C 53.300781 13.351562 53.761719 13.296875 54.148438 13.070312 L 59.363281 10.089844 C 59.742188 9.875 60.019531 9.523438 60.136719 9.101562 C 60.25 8.683594 60.203125 8.238281 59.992188 7.855469 C 59.351562 6.703125 58.605469 5.609375 57.769531 4.59375 C 57.035156 3.71875 56.210938 2.925781 55.308594 2.230469 C 54.84375 1.875 54.359375 1.566406 53.839844 1.300781 C 53.300781 1.027344 52.738281 0.792969 52.152344 0.613281 C 51.507812 0.410156 50.839844 0.257812 50.167969 0.160156 C 49.390625 0.0546875 48.605469 0 47.816406 0 C 47 0 46.179688 0.0664062 45.367188 0.203125 C 44.609375 0.335938 43.859375 0.53125 43.136719 0.792969 C 42.425781 1.054688 41.738281 1.378906 41.085938 1.765625 C 40.40625 2.164062 39.765625 2.613281 39.171875 3.128906 C 38.59375 3.625 38.039062 4.160156 37.523438 4.722656 C 37.019531 5.28125 36.550781 5.863281 36.125 6.476562 C 35.695312 7.101562 35.308594 7.746094 34.960938 8.414062 C 34.605469 9.101562 34.296875 9.8125 34.023438 10.542969 C 33.507812 11.953125 33.121094 13.417969 32.867188 14.894531 C 32.597656 16.460938 32.457031 18.046875 32.457031 19.628906 C 32.457031 21.292969 32.597656 22.953125 32.859375 24.59375 C 33.097656 26.0625 33.472656 27.5 33.96875 28.902344 C 34.230469 29.625 34.539062 30.332031 34.886719 31.015625 C 35.226562 31.675781 35.609375 32.3125 36.03125 32.921875 C 36.457031 33.53125 36.921875 34.105469 37.417969 34.652344 C 37.929688 35.207031 38.480469 35.730469 39.0625 36.21875 C 39.644531 36.707031 40.28125 37.144531 40.941406 37.523438 C 41.597656 37.898438 42.289062 38.214844 43 38.46875 C 43.738281 38.734375 44.5 38.925781 45.277344 39.054688 C 46.117188 39.191406 46.96875 39.257812 47.816406 39.257812 C 48.777344 39.257812 49.734375 39.164062 50.679688 38.980469 C 51.539062 38.808594 52.378906 38.550781 53.183594 38.199219 C 53.96875 37.855469 54.710938 37.429688 55.402344 36.921875 C 56.125 36.398438 56.785156 35.796875 57.386719 35.136719 C 57.960938 34.5 58.46875 33.804688 58.898438 33.066406 C 59.355469 32.289062 59.738281 31.460938 60.035156 30.613281 C 60.371094 29.652344 60.613281 28.664062 60.769531 27.660156 C 60.953125 26.464844 61.039062 25.253906 61.039062 24.046875 L 61.039062 19.902344 C 61.039062 18.683594 60.050781 17.695312 58.832031 17.695312 L 47.820312 17.695312 C 46.605469 17.695312 45.617188 18.683594 45.617188 19.902344 L 45.617188 24.359375 C 45.617188 25.578125 46.605469 26.546875 47.820312 26.523438 Z M 51.628906 26.445312 "/>
</g>
</svg>
