<svg xmlns="http://www.w3.org/2000/svg" xmlns:xlink="http://www.w3.org/1999/xlink" width="64" height="64" viewBox="0 0 64 64" version="1.1">
<defs>
<linearGradient id="linear0" gradientUnits="userSpaceOnUse" x1="0" y1="0" x2="0" y2="1" gradientTransform="matrix(64,0,0,64,0,0)">
<stop offset="0" style="stop-color:#ff6666;stop-opacity:1;"/>
<stop offset="1" style="stop-color:#d90000;stop-opacity:1;"/>
</linearGradient>
</defs>
<g id="surface1">
<path style=" stroke:none;fill-rule:nonzero;fill:url(#linear0);" d="M 44.066406 5.519531 C 40.390625 3.84375 36.304688 2.90625 32 2.90625 C 30.789062 2.90625 29.597656 2.984375 28.425781 3.125 C 24.097656 9.113281 21.851562 18.835938 22.03125 24.792969 C 22.03125 24.792969 21.746094 33.644531 27.8125 36.785156 C 27.8125 36.785156 33.269531 39.171875 36.980469 31.445312 C 36.980469 31.445312 39.535156 27.078125 38.496094 17.21875 C 38.496094 17.21875 39.492188 17.394531 39.605469 17.550781 C 39.714844 17.707031 41.800781 25.144531 40.335938 31.402344 C 40.335938 31.402344 38.988281 38.765625 32.359375 40.445312 C 25.730469 42.128906 20.566406 38.054688 17.0625 34.222656 C 14.464844 31.375 10.605469 23.753906 8.6875 14.597656 C 5.058594 19.449219 2.90625 25.472656 2.90625 32 C 2.90625 36.53125 3.945312 40.816406 5.792969 44.640625 C 12.152344 46.53125 28.621094 50.316406 39.074219 42.652344 C 45.960938 37.609375 45.070312 29.523438 45.070312 29.523438 C 44.957031 23.378906 41.214844 17.273438 41.214844 17.273438 C 55.769531 30.4375 47.167969 45.0625 47.167969 45.0625 C 43.171875 53.21875 34.976562 58.445312 27.789062 60.789062 C 29.164062 60.988281 30.566406 61.09375 32 61.09375 C 48.066406 61.09375 61.09375 48.066406 61.09375 32 C 61.09375 25.105469 58.691406 18.769531 54.679688 13.78125 C 53.253906 13.878906 51.59375 13.9375 49.867188 13.878906 C 49.867188 13.878906 42.125 14.242188 37.785156 16.40625 C 37.785156 16.40625 34.546875 17.851562 31.3125 20.300781 C 31.3125 20.300781 30.625 20.644531 30.65625 21.902344 C 30.683594 23.164062 29.996094 26.515625 27.703125 28.480469 C 27.703125 28.480469 26.066406 29.320312 26.886719 30.527344 C 26.886719 30.527344 27.992188 32.132812 29.546875 30.445312 C 29.546875 30.445312 33.5625 26.316406 33.808594 19.660156 C 33.808594 19.660156 35.078125 18.570312 37.085938 18.257812 C 37.085938 18.257812 37.457031 28.238281 32.5 33.253906 C 32.5 33.253906 27.785156 38.386719 26.273438 30.769531 C 26.273438 30.769531 24.429688 23.507812 33.933594 14.882812 C 33.933594 14.882812 40.296875 8.53125 44.066406 5.519531 Z M 32 64 C 14.328125 64 0 49.671875 0 32 C 0 14.328125 14.328125 0 32 0 C 49.671875 0 64 14.328125 64 32 C 64 49.671875 49.671875 64 32 64 Z M 32 64 "/>
</g>
</svg>
