<svg xmlns="http://www.w3.org/2000/svg" xmlns:xlink="http://www.w3.org/1999/xlink" width="64" height="64" viewBox="0 0 64 64" version="1.1">
<defs>
<linearGradient id="linear0" gradientUnits="userSpaceOnUse" x1="0" y1="0" x2="0" y2="1" gradientTransform="matrix(42.015625,0,0,64,10.992187,0)">
<stop offset="0" style="stop-color:#ff6666;stop-opacity:1;"/>
<stop offset="1" style="stop-color:#d90000;stop-opacity:1;"/>
</linearGradient>
</defs>
<g id="surface1">
<path style=" stroke:none;fill-rule:evenodd;fill:url(#linear0);" d="M 49.441406 0 C 49.039062 1.195312 47.324219 6.261719 44.921875 12.101562 C 43.566406 15.378906 42.070312 18.695312 40.664062 21.203125 C 39.960938 22.457031 39.273438 23.507812 38.6875 24.214844 C 38.105469 24.929688 37.578125 25.21875 37.621094 25.207031 C 37.078125 25.359375 36.339844 25.207031 35.234375 24.539062 C 34.128906 23.871094 32.820312 22.757812 31.4375 21.539062 C 28.671875 19.113281 25.640625 16.074219 21.707031 16 C 18.140625 15.933594 15.308594 18.007812 13.632812 20.882812 C 11.960938 23.761719 11.183594 27.445312 11.027344 31.328125 C 10.871094 35.183594 11.230469 39.34375 12.660156 42.789062 C 14.089844 46.230469 16.949219 49.0625 21.085938 49.144531 C 25.488281 49.226562 28.722656 45.828125 31.492188 42.90625 C 32.875 41.445312 34.160156 40.035156 35.296875 39.070312 C 36.433594 38.113281 37.347656 37.703125 37.902344 37.714844 C 37.703125 37.710938 38.046875 37.746094 38.574219 38.363281 C 39.101562 38.980469 39.753906 40.003906 40.402344 41.273438 C 41.707031 43.804688 43.070312 47.308594 44.277344 50.816406 C 46.445312 57.132812 47.941406 62.800781 48.257812 64 L 51.804688 64 C 51.796875 63.964844 49.976562 56.867188 47.515625 49.703125 C 46.285156 46.113281 44.898438 42.507812 43.453125 39.699219 C 42.726562 38.296875 41.996094 37.089844 41.179688 36.136719 C 40.363281 35.179688 39.398438 34.3125 37.96875 34.285156 C 36.054688 34.246094 34.492188 35.265625 33.085938 36.457031 C 31.675781 37.648438 30.347656 39.125 29 40.546875 C 26.304688 43.394531 23.597656 45.761719 21.148438 45.714844 C 18.425781 45.664062 16.949219 44.171875 15.828125 41.472656 C 14.707031 38.777344 14.3125 34.988281 14.453125 31.464844 C 14.59375 27.96875 15.34375 24.757812 16.597656 22.609375 C 17.847656 20.460938 19.332031 19.382812 21.640625 19.429688 C 23.578125 19.464844 26.386719 21.667969 29.171875 24.117188 C 30.566406 25.339844 31.964844 26.566406 33.460938 27.472656 C 34.960938 28.375 36.714844 29.023438 38.546875 28.507812 C 39.769531 28.164062 40.546875 27.355469 41.335938 26.394531 C 42.128906 25.4375 42.886719 24.242188 43.652344 22.878906 C 45.179688 20.160156 46.710938 16.757812 48.09375 13.402344 C 50.851562 6.695312 53.007812 0.234375 53.007812 0.234375 Z M 49.441406 0 "/>
</g>
</svg>
