<svg xmlns="http://www.w3.org/2000/svg" xmlns:xlink="http://www.w3.org/1999/xlink" width="64" height="64" viewBox="0 0 64 64" version="1.1">
<defs> <linearGradient id="linear0" gradientUnits="userSpaceOnUse" x1="0" y1="0" x2="0" y2="1" gradientTransform="matrix(55.992188,0,0,56,4.003906,4)"> <stop offset="0" style="stop-color:#ff6666;stop-opacity:1;"/> <stop offset="1" style="stop-color:#d90000;stop-opacity:1;"/> </linearGradient> </defs>
<g id="surface1">
<path style=" stroke:none;fill-rule:nonzero;fill:url(#linear0);fill-opacity:1;" d="M 29.359375 2.769531 C 26.070312 2.863281 22.777344 4.964844 20.230469 7.71875 C 14.632812 13.96875 12.152344 23.894531 10.867188 29.027344 C 8.875 37.375 8.386719 45.199219 9.222656 50.902344 C 10.519531 59.023438 16.738281 62.074219 20.804688 61.511719 C 59.53125 49.375 67.828125 39.230469 34.425781 4.472656 C 32.804688 3.222656 31.085938 2.71875 29.359375 2.769531 Z M 28.839844 7.742188 C 28.9375 7.742188 29.035156 7.753906 29.132812 7.777344 C 29.863281 7.953125 30.476562 8.894531 30.777344 9.449219 C 31.503906 10.777344 32.050781 12.71875 32.351562 15.046875 C 33.03125 20.257812 32.515625 26.90625 30.875 33.761719 C 29.238281 40.621094 26.707031 46.792969 23.734375 51.140625 C 22.414062 53.085938 21.042969 54.578125 19.796875 55.441406 C 19.277344 55.796875 18.308594 56.367188 17.574219 56.191406 C 16.835938 56.023438 16.222656 55.070312 15.921875 54.523438 C 15.195312 53.1875 14.648438 51.25 14.34375 48.917969 C 13.660156 43.703125 14.183594 37.058594 15.820312 30.199219 C 17.457031 23.34375 19.992188 17.175781 22.957031 12.828125 C 24.28125 10.878906 25.644531 9.394531 26.898438 8.527344 C 27.347656 8.21875 28.15625 7.742188 28.839844 7.742188 Z M 25.46875 22.644531 C 25.203125 22.636719 24.890625 22.820312 24.71875 22.945312 C 24.230469 23.277344 23.707031 23.847656 23.195312 24.59375 C 22.050781 26.273438 21.074219 28.648438 20.441406 31.296875 C 19.8125 33.9375 19.613281 36.5 19.875 38.507812 C 19.992188 39.40625 20.203125 40.152344 20.480469 40.667969 C 20.601562 40.875 20.835938 41.246094 21.117188 41.3125 C 21.402344 41.378906 21.78125 41.160156 21.980469 41.023438 C 22.464844 40.691406 22.988281 40.113281 23.496094 39.367188 C 24.640625 37.691406 25.617188 35.3125 26.246094 32.671875 C 26.875 30.023438 27.085938 27.460938 26.820312 25.453125 C 26.707031 24.554688 26.492188 23.816406 26.210938 23.300781 C 26.097656 23.085938 25.855469 22.71875 25.570312 22.648438 C 25.535156 22.644531 25.503906 22.644531 25.46875 22.644531 Z M 25.46875 22.644531 "/>
</g>
</svg>
