<svg xmlns="http://www.w3.org/2000/svg" xmlns:xlink="http://www.w3.org/1999/xlink" width="64" height="64" viewBox="0 0 64 64" version="1.1">
<defs>
<linearGradient id="linear0" gradientUnits="userSpaceOnUse" x1="0" y1="0" x2="0" y2="1" gradientTransform="matrix(28.953125,0,0,26.148437,0,0)">
<stop offset="0" style="stop-color:#ff6666;stop-opacity:1;"/>
<stop offset="1" style="stop-color:#d90000;stop-opacity:1;"/>
</linearGradient>
<linearGradient id="linear1" gradientUnits="userSpaceOnUse" x1="0" y1="0" x2="0" y2="1" gradientTransform="matrix(29.101562,0,0,22.257812,34.898437,8.601562)">
<stop offset="0" style="stop-color:#ff6666;stop-opacity:1;"/>
<stop offset="1" style="stop-color:#d90000;stop-opacity:1;"/>
</linearGradient>
<linearGradient id="linear2" gradientUnits="userSpaceOnUse" x1="0" y1="0" x2="0" y2="1" gradientTransform="matrix(41.246094,0,0,26.183594,7.757812,37.816406)">
<stop offset="0" style="stop-color:#ff6666;stop-opacity:1;"/>
<stop offset="1" style="stop-color:#d90000;stop-opacity:1;"/>
</linearGradient>
</defs>
<g id="surface1">
<path style=" stroke:none;fill-rule:nonzero;fill:url(#linear0);" d="M 2.578125 0 C 1.164062 0 0 1.164062 0 2.578125 L 0 23.5625 C 0 24.976562 1.164062 26.148438 2.578125 26.148438 L 26.375 26.148438 C 27.789062 26.148438 28.953125 24.976562 28.953125 23.5625 L 28.953125 2.578125 C 28.953125 1.164062 27.789062 0 26.375 0 Z M 1.785156 5.632812 L 27.175781 5.632812 L 27.175781 23.5625 C 27.175781 24.019531 26.832031 24.363281 26.375 24.363281 L 2.578125 24.363281 C 2.121094 24.363281 1.785156 24.019531 1.785156 23.5625 Z M 1.785156 5.632812 "/>
<path style=" stroke:none;fill-rule:nonzero;fill:url(#linear1);" d="M 37.207031 8.601562 C 35.941406 8.601562 34.898438 9.65625 34.898438 10.917969 L 34.898438 28.542969 C 34.898438 29.808594 35.941406 30.859375 37.207031 30.859375 L 61.683594 30.859375 C 62.949219 30.859375 64 29.808594 64 28.542969 L 64 10.917969 C 64 9.65625 62.949219 8.601562 61.683594 8.601562 Z M 36.683594 14.324219 L 62.214844 14.324219 L 62.214844 28.542969 C 62.214844 28.851562 61.992188 29.074219 61.683594 29.074219 L 37.207031 29.074219 C 36.898438 29.074219 36.683594 28.851562 36.683594 28.542969 Z M 36.683594 14.324219 "/>
<path style=" stroke:none;fill-rule:nonzero;fill:url(#linear2);" d="M 10.335938 37.816406 C 8.921875 37.816406 7.757812 38.988281 7.757812 40.402344 L 7.757812 61.414062 C 7.757812 62.828125 8.921875 64 10.335938 64 L 46.417969 64 C 47.835938 64 49.003906 62.828125 49.003906 61.414062 L 49.003906 40.402344 C 49.003906 38.988281 47.835938 37.816406 46.417969 37.816406 Z M 9.542969 44.746094 L 47.21875 44.746094 L 47.21875 61.414062 C 47.21875 61.871094 46.878906 62.214844 46.417969 62.214844 L 10.335938 62.214844 C 9.878906 62.214844 9.542969 61.871094 9.542969 61.414062 Z M 9.542969 44.746094 "/>
</g>
</svg>
