<svg xmlns="http://www.w3.org/2000/svg" xmlns:xlink="http://www.w3.org/1999/xlink" width="64" height="64" viewBox="0 0 64 64" version="1.1">
<defs>
<linearGradient id="linear0" gradientUnits="userSpaceOnUse" x1="0" y1="0" x2="0" y2="1" gradientTransform="matrix(44.304688,0,0,64,9.847656,0)">
<stop offset="0" style="stop-color:#ff6666;stop-opacity:1;"/>
<stop offset="1" style="stop-color:#d90000;stop-opacity:1;"/>
</linearGradient>
</defs>
<g id="surface1">
<path style=" stroke:none;fill-rule:nonzero;fill:url(#linear0);" d="M 14.769531 0 L 14.769531 22.152344 L 49.230469 22.152344 L 49.230469 0 Z M 22.152344 7.382812 L 29.539062 7.382812 L 29.539062 14.769531 L 22.152344 14.769531 Z M 34.460938 7.382812 L 41.847656 7.382812 L 41.847656 14.769531 L 34.460938 14.769531 Z M 18.230469 24.617188 C 16.003906 24.601562 13.859375 25.480469 12.285156 27.054688 C 10.710938 28.632812 9.832031 30.773438 9.847656 33 L 9.847656 55.617188 C 9.832031 57.84375 10.710938 59.984375 12.285156 61.558594 C 13.859375 63.136719 16.003906 64.015625 18.230469 64 L 45.769531 64 C 47.996094 64.015625 50.140625 63.136719 51.714844 61.558594 C 53.289062 59.984375 54.167969 57.84375 54.152344 55.617188 L 54.152344 33 C 54.167969 30.773438 53.289062 28.632812 51.714844 27.054688 C 50.140625 25.480469 47.996094 24.601562 45.769531 24.617188 Z M 18.230469 24.617188 "/>
</g>
</svg>
