<svg xmlns="http://www.w3.org/2000/svg" xmlns:xlink="http://www.w3.org/1999/xlink" width="64" height="64" viewBox="0 0 64 64" version="1.1">
<defs> <linearGradient id="linear0" gradientUnits="userSpaceOnUse" x1="0" y1="0" x2="0" y2="1" gradientTransform="matrix(55.992188,0,0,56,4.003906,4)"> <stop offset="0" style="stop-color:#ff6666;stop-opacity:1;"/> <stop offset="1" style="stop-color:#d90000;stop-opacity:1;"/> </linearGradient> </defs>
<g id="surface1">
<path style=" stroke:none;fill-rule:nonzero;fill:url(#linear0);fill-opacity:1;" d="M 45.5625 6.0625 C 43.527344 6.078125 41.738281 6.367188 40.519531 6.644531 C 40.363281 6.679688 40.246094 6.710938 40.109375 6.746094 C 43.742188 8.046875 46.414062 10.328125 48.257812 12.601562 C 49.648438 14.300781 50.582031 16 51.144531 17.292969 C 51.421875 17.9375 51.609375 18.480469 51.710938 18.890625 C 51.761719 19.09375 51.796875 19.257812 51.808594 19.421875 C 51.8125 19.5 51.824219 19.574219 51.796875 19.691406 C 51.789062 19.703125 51.785156 19.71875 51.777344 19.730469 C 51.851562 21.902344 51.273438 23.363281 51.195312 25.503906 C 51.148438 27.054688 51.550781 28.824219 51.648438 30.71875 C 51.746094 32.550781 51.527344 34.53125 50.25 36.476562 C 50.261719 36.484375 50.269531 36.5 50.28125 36.511719 C 50.523438 36.804688 50.757812 37.066406 50.957031 37.335938 C 54.351562 32.304688 56.777344 26.6875 58.066406 21.914062 C 58.734375 19.414062 59.09375 17.148438 59.121094 15.335938 C 59.152344 13.523438 58.820312 12.179688 58.296875 11.542969 C 54.648438 7.070312 49.625 6.023438 45.5625 6.0625 M 33.269531 6.71875 C 30.300781 6.785156 28.113281 7.683594 26.449219 9.007812 C 24.679688 10.421875 23.507812 12.34375 22.742188 14.300781 C 21.71875 16.886719 21.417969 19.476562 21.335938 20.949219 C 21.515625 20.835938 21.714844 20.714844 21.9375 20.597656 C 22.832031 20.117188 24.019531 19.628906 25.273438 19.351562 C 25.90625 19.210938 26.554688 19.125 27.1875 19.125 C 27.824219 19.125 28.449219 19.21875 29.035156 19.433594 C 30.203125 19.867188 31.171875 20.863281 31.535156 22.472656 C 33.332031 30.476562 31.003906 33.316406 30.097656 35.652344 C 29.625 36.871094 29.214844 37.925781 29.089844 38.777344 C 29.382812 38.609375 29.664062 38.507812 29.9375 38.484375 C 30.460938 38.4375 30.886719 38.613281 31.171875 38.726562 C 31.175781 38.726562 31.175781 38.726562 31.179688 38.726562 C 31.9375 39.035156 32.503906 39.707031 32.804688 40.480469 C 32.976562 40.929688 33.0625 41.429688 32.992188 41.917969 C 32.957031 43.203125 32.941406 44.472656 32.941406 45.710938 C 33.144531 46.898438 33.253906 48.347656 33.214844 49.734375 C 33.179688 50.832031 33.144531 51.804688 33.15625 52.664062 C 33.199219 53.195312 33.25 53.691406 33.300781 54.128906 C 33.414062 55.066406 33.5625 55.777344 33.6875 56.078125 C 34.015625 56.875 34.507812 57.957031 35.457031 58.71875 C 36.40625 59.484375 37.804688 59.976562 40.171875 59.5 C 42.183594 59.085938 43.480469 58.492188 44.355469 57.617188 C 45.238281 56.742188 45.75 55.542969 46.058594 53.789062 C 46.527344 51.1875 47.445312 43.839844 47.582031 42.25 C 47.582031 42.25 47.582031 42.25 47.582031 42.246094 C 47.519531 41.164062 47.679688 40.367188 48.007812 39.785156 C 48.34375 39.195312 48.84375 38.851562 49.292969 38.660156 C 49.710938 38.480469 50.070312 38.40625 50.285156 38.34375 C 50.15625 38.089844 49.875 37.722656 49.445312 37.195312 C 48.921875 36.566406 48.285156 35.734375 47.777344 34.554688 C 47.703125 34.382812 47.441406 33.921875 47.09375 33.328125 C 46.746094 32.734375 46.320312 31.992188 45.867188 31.160156 C 44.964844 29.5 43.988281 27.480469 43.480469 25.546875 C 42.980469 23.609375 42.929688 21.671875 44.136719 20.347656 C 45.265625 19.109375 47.359375 18.632812 50.625 19.03125 C 50.535156 18.703125 50.394531 18.273438 50.15625 17.71875 C 49.625 16.511719 48.734375 14.894531 47.417969 13.277344 C 44.78125 10.050781 40.488281 6.820312 33.878906 6.722656 C 33.675781 6.71875 33.46875 6.71875 33.269531 6.722656 M 16.425781 6.824219 C 16.09375 6.824219 15.761719 6.832031 15.429688 6.855469 C 12.765625 7 10.203125 7.753906 8.367188 9.621094 C 6.535156 11.484375 5.359375 14.511719 5.621094 19.425781 C 5.671875 20.398438 6.089844 22.964844 6.8125 26.042969 C 7.527344 29.121094 8.546875 32.746094 9.773438 35.949219 C 11.003906 39.15625 12.46875 41.945312 13.953125 43.332031 C 14.695312 44.019531 15.398438 44.347656 16.082031 44.320312 C 16.769531 44.292969 17.527344 43.90625 18.386719 42.917969 C 20.589844 40.367188 22.542969 38.34375 23.207031 37.664062 C 20.976562 35.96875 19.617188 33.09375 20.078125 29.9375 C 20.078125 29.933594 20.078125 29.933594 20.078125 29.933594 C 20.351562 28.074219 20.386719 26.347656 20.351562 24.984375 C 20.324219 23.722656 20.242188 22.835938 20.230469 22.316406 C 20.226562 22.28125 20.222656 22.242188 20.222656 22.207031 L 20.222656 22.179688 C 20.222656 22.175781 20.222656 22.164062 20.222656 22.15625 C 20.214844 21.902344 20.160156 17.925781 21.738281 13.910156 C 22.515625 11.945312 23.691406 9.957031 25.484375 8.421875 C 23.894531 7.894531 20.203125 6.820312 16.425781 6.824219 M 48.429688 19.933594 C 46.609375 19.964844 45.527344 20.421875 44.9375 21.066406 C 44.101562 21.988281 44.0625 23.496094 44.519531 25.28125 C 44.988281 27.0625 45.925781 29.023438 46.808594 30.652344 C 47.253906 31.464844 47.683594 32.203125 48.03125 32.796875 C 48.378906 33.382812 48.621094 33.8125 48.757812 34.128906 C 49.003906 34.683594 49.269531 35.148438 49.546875 35.550781 C 50.488281 33.949219 50.65625 32.382812 50.574219 30.777344 C 50.480469 29.007812 50.0625 27.21875 50.113281 25.472656 C 50.199219 23.292969 50.695312 21.890625 50.695312 20.09375 C 50 19.996094 49.367188 19.945312 48.804688 19.933594 C 48.671875 19.933594 48.554688 19.933594 48.429688 19.933594 M 27.183594 20.199219 C 26.644531 20.199219 26.074219 20.273438 25.507812 20.398438 C 24.371094 20.652344 23.257812 21.113281 22.441406 21.546875 C 22.03125 21.765625 21.699219 21.976562 21.488281 22.144531 C 21.398438 22.214844 21.34375 22.269531 21.304688 22.308594 C 21.3125 22.679688 21.398438 23.628906 21.429688 24.960938 C 21.460938 26.363281 21.425781 28.148438 21.140625 30.085938 C 20.488281 34.578125 24.007812 38.320312 28.121094 38.144531 C 28.320312 37.230469 28.695312 36.285156 29.089844 35.265625 C 30.109375 32.636719 32.230469 30.488281 30.484375 22.710938 C 30.183594 21.382812 29.527344 20.753906 28.65625 20.433594 C 28.21875 20.273438 27.71875 20.199219 27.183594 20.199219 M 47.757812 20.863281 C 47.933594 20.863281 48.097656 20.890625 48.246094 20.925781 C 48.394531 20.957031 48.523438 21.003906 48.644531 21.078125 C 48.753906 21.152344 48.84375 21.273438 48.878906 21.421875 L 48.886719 21.421875 C 48.886719 21.429688 48.886719 21.433594 48.886719 21.4375 C 48.886719 21.4375 48.886719 21.4375 48.886719 21.445312 C 48.886719 21.445312 48.882812 21.445312 48.882812 21.445312 C 48.910156 21.609375 48.871094 21.75 48.796875 21.878906 C 48.730469 22.023438 48.628906 22.15625 48.496094 22.289062 C 48.234375 22.546875 47.859375 22.785156 47.417969 22.84375 L 47.40625 22.84375 C 46.964844 22.886719 46.570312 22.746094 46.277344 22.554688 C 46.132812 22.457031 46.015625 22.351562 45.917969 22.238281 C 45.828125 22.128906 45.753906 22.03125 45.71875 21.898438 L 45.71875 21.875 C 45.691406 21.710938 45.757812 21.558594 45.851562 21.449219 C 45.941406 21.34375 46.054688 21.269531 46.191406 21.195312 C 46.457031 21.054688 46.804688 20.949219 47.195312 20.894531 C 47.390625 20.867188 47.582031 20.855469 47.757812 20.863281 M 27.28125 21.15625 C 27.472656 21.152344 27.671875 21.164062 27.882812 21.191406 C 28.300781 21.246094 28.671875 21.355469 28.976562 21.519531 C 29.132812 21.601562 29.277344 21.6875 29.398438 21.835938 C 29.523438 21.976562 29.632812 22.214844 29.585938 22.472656 L 29.585938 22.492188 C 29.539062 22.71875 29.445312 22.84375 29.332031 22.972656 C 29.214844 23.109375 29.082031 23.230469 28.910156 23.34375 C 28.574219 23.566406 28.113281 23.734375 27.585938 23.667969 C 27.0625 23.59375 26.65625 23.324219 26.359375 23.027344 C 26.21875 22.882812 26.097656 22.722656 26.007812 22.554688 C 25.929688 22.394531 25.855469 22.226562 25.898438 21.964844 L 25.894531 21.964844 C 25.894531 21.960938 25.898438 21.953125 25.898438 21.941406 C 25.898438 21.9375 25.898438 21.929688 25.898438 21.925781 L 25.90625 21.925781 C 25.957031 21.6875 26.105469 21.511719 26.253906 21.417969 C 26.40625 21.308594 26.5625 21.257812 26.734375 21.21875 C 26.90625 21.179688 27.085938 21.164062 27.28125 21.15625 M 50.90625 39.257812 C 50.835938 39.292969 50.769531 39.316406 50.707031 39.339844 C 50.363281 39.453125 50.023438 39.515625 49.71875 39.644531 C 49.410156 39.78125 49.148438 39.957031 48.945312 40.3125 C 48.757812 40.644531 48.609375 41.171875 48.644531 42.011719 C 48.660156 42.082031 48.671875 42.148438 48.660156 42.21875 C 48.667969 42.238281 48.683594 42.261719 48.742188 42.308594 C 48.824219 42.382812 49.007812 42.472656 49.257812 42.550781 C 49.757812 42.699219 50.523438 42.78125 51.371094 42.777344 C 53.066406 42.761719 55.117188 42.402344 56.269531 41.890625 C 57.765625 41.222656 58.964844 40.277344 59.308594 39.773438 C 59.328125 39.75 59.316406 39.757812 59.328125 39.734375 C 59.171875 39.722656 58.917969 39.710938 58.484375 39.796875 C 58.484375 39.796875 58.484375 39.796875 58.480469 39.796875 C 54.929688 40.503906 52.964844 40.292969 51.820312 39.835938 C 51.398438 39.671875 51.121094 39.464844 50.90625 39.257812 M 30.027344 39.558594 C 29.796875 39.574219 29.507812 39.671875 29.085938 40.125 C 29.058594 40.160156 29.027344 40.1875 28.996094 40.210938 C 28.144531 41.144531 27.800781 41.738281 27.148438 42.234375 C 26.472656 42.75 25.578125 43.03125 23.664062 43.410156 C 22.75 43.589844 22.230469 43.824219 22.054688 43.960938 C 21.992188 44.015625 22 44.015625 22.003906 44.011719 C 22.042969 44.078125 22.265625 44.285156 22.570312 44.445312 C 22.882812 44.609375 23.269531 44.746094 23.589844 44.820312 C 23.589844 44.820312 23.59375 44.820312 23.59375 44.820312 C 24.453125 45.023438 25.847656 45.265625 27.335938 45.023438 C 28.824219 44.777344 30.398438 44.070312 31.703125 42.3125 C 31.8125 42.167969 31.878906 42.003906 31.917969 41.828125 C 31.917969 41.675781 31.917969 41.523438 31.925781 41.367188 C 31.925781 41.351562 31.925781 41.339844 31.925781 41.324219 C 31.902344 41.175781 31.867188 41.023438 31.804688 40.867188 C 31.605469 40.339844 31.175781 39.882812 30.777344 39.722656 C 30.777344 39.71875 30.777344 39.722656 30.773438 39.722656 C 30.496094 39.609375 30.261719 39.535156 30.027344 39.554688 "/>
</g>
</svg>
