<svg xmlns="http://www.w3.org/2000/svg" xmlns:xlink="http://www.w3.org/1999/xlink" width="64" height="64" viewBox="0 0 64 64" version="1.1">
<defs>
<linearGradient id="linear0" gradientUnits="userSpaceOnUse" x1="0" y1="0" x2="0" y2="1" gradientTransform="matrix(64.003906,0,0,33.167969,-0.00390625,15.414062)">
<stop offset="0" style="stop-color:#ff6666;stop-opacity:1;"/>
<stop offset="1" style="stop-color:#d90000;stop-opacity:1;"/>
</linearGradient>
</defs>
<g id="surface1">
<path style=" stroke:none;fill-rule:nonzero;fill:url(#linear0);" d="M 53.269531 35.5 C 52.921875 35.292969 55.640625 32.121094 56.308594 32.464844 C 57.285156 33.433594 53.222656 35.574219 53.269531 35.5 Z M 51.375 33.324219 C 51.3125 33.105469 55.277344 30.707031 55.847656 31.257812 C 56.878906 31.632812 51.410156 33.601562 51.375 33.324219 Z M 49.9375 26.214844 C 50.375 28.117188 51.0625 28.714844 53.125 28.65625 C 50.503906 31.058594 48.90625 26.945312 49.9375 26.214844 Z M 52.261719 25.5 C 52.832031 25.5 53.296875 26.027344 53.296875 26.679688 C 53.296875 27.328125 52.832031 27.855469 52.261719 27.855469 C 51.6875 27.855469 51.222656 27.328125 51.222656 26.679688 C 51.222656 26.027344 51.6875 25.5 52.261719 25.5 Z M 50.734375 23.160156 C 50.644531 22.949219 51.265625 15.453125 47.769531 16.835938 C 45.617188 17.636719 47.367188 22.410156 47.507812 23.03125 C 47.636719 23.601562 46.550781 23.535156 46.347656 23.289062 C 45.890625 22.730469 44.382812 17.757812 42.605469 18.644531 C 40.113281 20.019531 42.460938 24.3125 41.960938 24.453125 C 41.035156 24.96875 41.089844 26.226562 40.347656 27.257812 C 39.128906 29.003906 29.984375 26.4375 27.03125 26.257812 C 24.867188 26.128906 22.800781 27.898438 22.605469 27.675781 C 19.972656 25.039062 14.523438 20.449219 8.550781 18.921875 C 5.203125 18.011719 0.222656 15.382812 0.0234375 15.414062 C -0.316406 15.605469 2.742188 17.597656 8.457031 19.949219 C 14.171875 22.300781 22.0625 28.261719 21.445312 29.222656 C 19.589844 31.839844 18.496094 34.964844 19.253906 40.320312 C 19.386719 41.265625 16.457031 42.898438 16.671875 44.320312 C 16.847656 45.402344 19.945312 43.246094 20.285156 43.675781 C 20.492188 44.441406 18.628906 48.304688 19.378906 48.578125 C 19.933594 48.742188 24.777344 43.984375 25.054688 44.0625 C 33.042969 46.476562 43.4375 44.65625 43.636719 44.578125 C 43.621094 44.535156 51.117188 48.101562 51.769531 47.675781 C 53.410156 45.894531 48.652344 43.386719 49.445312 42.382812 C 49.792969 41.859375 55.238281 44.355469 55.507812 43.675781 C 55.898438 42.496094 52.980469 40.019531 52.539062 39.289062 C 52.160156 38.613281 52.074219 37.519531 53.054688 36.835938 C 54.035156 36.152344 64.054688 32.320312 63.636719 29.351562 C 62.910156 23.964844 50.929688 23.613281 50.734375 23.160156 Z M 63.992188 20.820312 C 63.660156 20.546875 61.066406 24.640625 61.640625 25.0625 C 61.988281 25.324219 64.140625 20.96875 63.992188 20.820312 Z M 63.992188 20.820312 "/>
</g>
</svg>
