<svg xmlns="http://www.w3.org/2000/svg" xmlns:xlink="http://www.w3.org/1999/xlink" width="64" height="64" viewBox="0 0 64 64" version="1.1">
<defs>
<linearGradient id="linear0" gradientUnits="userSpaceOnUse" x1="0" y1="0" x2="0" y2="1" gradientTransform="matrix(57.726562,0,0,64,3.136719,0)">
<stop offset="0" style="stop-color:#ff6666;stop-opacity:1;"/>
<stop offset="1" style="stop-color:#d90000;stop-opacity:1;"/>
</linearGradient>
</defs>
<g id="surface1">
<path style=" stroke:none;fill-rule:nonzero;fill:url(#linear0);" d="M 41.660156 54.125 L 41.660156 44.242188 L 42.277344 44.597656 C 42.617188 44.789062 43.808594 45.484375 44.925781 46.144531 C 45.769531 46.644531 46.617188 47.140625 47.464844 47.632812 C 48 47.941406 48.050781 47.96875 49.960938 49.113281 C 50.621094 49.507812 51.296875 49.902344 51.453125 49.996094 C 51.613281 50.089844 52.429688 50.570312 53.269531 51.070312 C 53.945312 51.476562 54.621094 51.875 55.300781 52.277344 C 55.578125 52.4375 56.003906 52.683594 56.238281 52.828125 C 56.480469 52.972656 57.046875 53.304688 57.503906 53.5625 C 58.371094 54.058594 58.410156 54.265625 57.699219 54.566406 C 57.535156 54.640625 57.101562 54.875 56.734375 55.097656 C 56.363281 55.320312 55.394531 55.890625 54.578125 56.371094 C 53.957031 56.734375 53.332031 57.105469 52.710938 57.476562 C 52.5 57.605469 52.097656 57.839844 51.816406 58 C 51.535156 58.160156 50.625 58.699219 49.785156 59.199219 C 49.113281 59.605469 48.433594 60.003906 47.753906 60.398438 C 47.476562 60.558594 47.050781 60.8125 46.8125 60.957031 C 46.570312 61.105469 46.148438 61.355469 45.867188 61.519531 C 45.589844 61.683594 45.101562 61.980469 44.78125 62.179688 C 44.460938 62.378906 44.101562 62.585938 43.980469 62.636719 C 43.859375 62.6875 43.601562 62.835938 43.398438 62.96875 C 43.199219 63.101562 42.726562 63.386719 42.347656 63.605469 L 41.660156 64 Z M 29.980469 58.28125 C 28.117188 57.953125 27.386719 57.765625 25.265625 57.066406 C 24.210938 56.71875 21.214844 55.328125 20.476562 54.84375 C 17.765625 53.054688 17.203125 52.613281 15.316406 50.71875 C 13.421875 48.824219 13.039062 48.351562 11.191406 45.558594 C 10.875 45.085938 9.578125 42.476562 9.636719 42.425781 C 9.65625 42.398438 10.320312 41.996094 11.109375 41.523438 L 12.539062 40.667969 L 13.195312 41.988281 C 16.601562 48.832031 22.625 53.347656 30.269531 54.789062 C 31.792969 55.074219 35.660156 55.171875 37.050781 54.960938 L 37.742188 54.851562 L 37.742188 56.574219 C 37.742188 58.074219 37.707031 58.3125 37.488281 58.40625 C 37.347656 58.46875 36.027344 58.535156 34.550781 58.5625 C 32.257812 58.605469 31.59375 58.5625 29.980469 58.28125 Z M 32.15625 49.339844 C 30.972656 49.230469 29.5 48.871094 27.960938 48.316406 C 27.050781 47.988281 25.054688 46.96875 24.671875 46.632812 C 24.546875 46.519531 24.394531 46.433594 24.335938 46.433594 C 24.113281 46.433594 22.078125 44.667969 21.230469 43.742188 C 19.863281 42.253906 18.425781 39.988281 17.855469 38.433594 C 17.703125 38.011719 17.597656 37.660156 17.613281 37.644531 C 17.632812 37.632812 18.332031 37.21875 19.171875 36.730469 L 20.691406 35.84375 L 20.78125 36.238281 C 20.828125 36.460938 21.132812 37.191406 21.453125 37.871094 C 23.253906 41.648438 26.625 44.425781 30.703125 45.484375 C 31.890625 45.792969 32.441406 45.851562 34.171875 45.851562 C 35.4375 45.851562 36.519531 45.777344 36.988281 45.652344 L 37.753906 45.457031 L 37.667969 49.097656 L 37.28125 49.199219 C 36.648438 49.367188 33.410156 49.457031 32.15625 49.339844 Z M 54.066406 47.074219 C 53.351562 46.648438 52.742188 46.234375 52.71875 46.164062 C 52.691406 46.089844 53.019531 45.515625 53.449219 44.886719 C 54.527344 43.292969 54.734375 42.910156 55.480469 41.195312 C 57.035156 37.609375 57.589844 34.511719 57.398438 30.472656 C 57.253906 27.3125 56.546875 24.59375 55.128906 21.691406 C 54.140625 19.683594 53.84375 19.171875 53.15625 18.3125 C 52.878906 17.96875 52.679688 17.667969 52.707031 17.648438 C 53.265625 17.246094 55.6875 15.96875 55.804688 16.011719 C 56.027344 16.097656 57.738281 18.964844 58.378906 20.3125 C 59.34375 22.359375 59.890625 24.011719 60.539062 26.84375 C 60.820312 28.050781 60.859375 28.652344 60.863281 31.703125 C 60.867188 34.945312 60.839844 35.3125 60.476562 37.019531 C 60.089844 38.839844 59.945312 39.339844 59.234375 41.28125 C 58.378906 43.628906 55.902344 47.941406 55.457031 47.867188 C 55.40625 47.859375 54.785156 47.503906 54.066406 47.074219 Z M 47.027344 42.910156 C 46.746094 42.746094 46.324219 42.5 46.085938 42.351562 C 45.765625 42.15625 45.4375 41.96875 45.105469 41.789062 C 44.808594 41.625 44.558594 41.464844 44.558594 41.429688 C 44.558594 41.394531 44.730469 41.183594 44.941406 40.960938 C 45.933594 39.898438 47.160156 37.671875 47.683594 35.984375 C 49.003906 31.71875 48.117188 26.6875 45.4375 23.28125 L 44.714844 22.359375 L 45.765625 21.765625 C 46.28125 21.472656 46.792969 21.175781 47.304688 20.875 L 47.800781 20.585938 L 48.136719 20.992188 C 48.488281 21.421875 49.511719 23.066406 49.96875 23.941406 C 51.832031 27.503906 52.324219 32.429688 51.214844 36.421875 C 50.613281 38.59375 48.773438 42.125 47.808594 42.96875 C 47.554688 43.183594 47.5 43.179688 47.027344 42.910156 Z M 3.175781 31.808594 L 3.210938 21.878906 L 3.5625 22.109375 C 3.757812 22.234375 4.164062 22.480469 4.46875 22.652344 C 4.773438 22.824219 5.195312 23.070312 5.40625 23.199219 C 5.621094 23.328125 6.207031 23.679688 6.710938 23.976562 C 7.21875 24.277344 7.894531 24.683594 8.214844 24.882812 C 8.546875 25.09375 8.882812 25.289062 9.230469 25.46875 C 9.472656 25.59375 10.15625 25.992188 10.757812 26.355469 C 11.351562 26.722656 12.039062 27.140625 12.277344 27.28125 C 12.515625 27.421875 13.628906 28.070312 14.742188 28.726562 C 17.15625 30.148438 17.695312 30.464844 18.078125 30.675781 C 18.238281 30.765625 18.550781 30.953125 18.773438 31.089844 C 18.992188 31.226562 19.339844 31.445312 19.546875 31.570312 L 19.929688 31.804688 L 19.441406 32.113281 C 19.171875 32.28125 18.820312 32.492188 18.660156 32.578125 C 17.820312 33.058594 14.390625 35.070312 12.777344 36.035156 C 12.492188 36.207031 11.589844 36.738281 10.769531 37.214844 C 9.269531 38.097656 8.824219 38.355469 7.960938 38.882812 C 7.699219 39.039062 7.261719 39.304688 6.980469 39.46875 C 6.703125 39.632812 6.277344 39.882812 6.039062 40.03125 C 5.800781 40.175781 5.375 40.429688 5.097656 40.589844 C 4.816406 40.742188 4.261719 41.070312 3.863281 41.308594 L 3.136719 41.734375 Z M 19.386719 26.980469 C 18.746094 26.59375 18.078125 26.203125 17.898438 26.125 C 17.71875 26.042969 17.574219 25.960938 17.574219 25.941406 C 17.585938 25.757812 18.039062 24.695312 18.484375 23.828125 C 19.585938 21.664062 21.207031 19.65625 23.171875 18.03125 C 25.324219 16.257812 28.570312 14.828125 31.515625 14.367188 C 32.785156 14.171875 35.484375 14.179688 36.734375 14.382812 L 37.742188 14.550781 L 37.742188 18.097656 L 36.542969 17.902344 C 34.300781 17.535156 31.671875 17.734375 29.625 18.425781 C 27.644531 19.09375 25.339844 20.597656 23.847656 22.191406 C 22.652344 23.472656 21.035156 26.183594 20.820312 27.273438 C 20.769531 27.515625 20.6875 27.707031 20.640625 27.699219 C 20.589844 27.691406 20.023438 27.367188 19.386719 26.980469 Z M 11.988281 22.632812 C 11.746094 22.480469 11.121094 22.113281 10.59375 21.816406 C 9.804688 21.367188 9.648438 21.21875 9.710938 20.976562 C 9.804688 20.621094 10.828125 18.660156 11.210938 18.117188 C 11.359375 17.902344 11.480469 17.6875 11.480469 17.636719 C 11.480469 17.492188 12.023438 16.753906 13.480469 14.914062 C 15.476562 12.394531 17.976562 10.242188 20.789062 8.621094 C 24.546875 6.453125 28.496094 5.289062 32.625 5.128906 C 33.882812 5.074219 35.546875 5.085938 36.328125 5.144531 L 37.742188 5.253906 L 37.742188 8.714844 L 35.457031 8.621094 C 29.78125 8.386719 25.574219 9.546875 20.988281 12.605469 C 19.628906 13.507812 16.796875 16.117188 16 17.191406 C 15.824219 17.433594 15.386719 18.019531 15.03125 18.5 C 14.675781 18.980469 14.382812 19.414062 14.382812 19.472656 C 14.382812 19.527344 14.214844 19.816406 14.015625 20.113281 C 13.816406 20.40625 13.410156 21.160156 13.121094 21.789062 C 12.828125 22.410156 12.550781 22.921875 12.503906 22.914062 C 12.460938 22.90625 12.226562 22.78125 11.988281 22.632812 Z M 41.660156 9.875 C 41.660156 4.445312 41.699219 0 41.746094 0 C 41.796875 0 42.464844 0.371094 43.234375 0.832031 C 43.796875 1.167969 44.359375 1.496094 44.925781 1.824219 C 45.085938 1.914062 45.898438 2.398438 46.738281 2.898438 C 47.410156 3.304688 48.09375 3.703125 48.769531 4.105469 C 49.046875 4.265625 49.472656 4.511719 49.710938 4.65625 C 50.195312 4.945312 50.679688 5.230469 51.164062 5.511719 C 51.722656 5.839844 52.390625 6.234375 52.652344 6.390625 L 53.542969 6.929688 C 54.179688 7.304688 54.820312 7.679688 55.460938 8.050781 C 56.277344 8.53125 57.179688 9.066406 57.464844 9.246094 C 57.753906 9.429688 58.097656 9.625 58.234375 9.6875 C 58.441406 9.78125 58.328125 9.890625 57.65625 10.277344 C 57.207031 10.53125 56.761719 10.792969 56.316406 11.054688 C 56.035156 11.222656 55.675781 11.4375 55.515625 11.527344 C 55.015625 11.816406 54.515625 12.113281 54.019531 12.410156 C 52.476562 13.339844 50.925781 14.257812 49.363281 15.164062 C 48.707031 15.542969 48.050781 15.933594 47.398438 16.324219 C 47.136719 16.484375 46.257812 17.003906 45.441406 17.484375 C 44.765625 17.878906 44.09375 18.28125 43.425781 18.683594 C 43.132812 18.863281 42.796875 19.054688 42.675781 19.109375 C 42.554688 19.160156 42.28125 19.324219 42.058594 19.476562 L 41.660156 19.753906 Z M 41.660156 9.875 "/>
</g>
</svg>
