<svg xmlns="http://www.w3.org/2000/svg" xmlns:xlink="http://www.w3.org/1999/xlink" width="64" height="64" viewBox="0 0 64 64" version="1.1">
<defs> <linearGradient id="linear0" gradientUnits="userSpaceOnUse" x1="0" y1="0" x2="0" y2="1" gradientTransform="matrix(55.992188,0,0,56,4.003906,4)"> <stop offset="0" style="stop-color:#ff6666;stop-opacity:1;"/> <stop offset="1" style="stop-color:#d90000;stop-opacity:1;"/> </linearGradient> </defs>
<g id="surface1">
<path style=" stroke:none;fill-rule:evenodd;fill:url(#linear0);fill-opacity:1;" d="M 40.332031 16.519531 C 38.375 16.519531 36.679688 17.609375 35.820312 19.21875 L 27.757812 19.21875 L 16.519531 30.414062 L 14.53125 30.414062 C 13.566406 27.824219 11.0625 25.980469 8.125 25.980469 C 4.355469 25.980469 1.292969 29.023438 1.292969 32.785156 C 1.292969 36.539062 4.355469 39.59375 8.125 39.59375 C 11.0625 39.59375 13.566406 37.75 14.53125 35.160156 L 25.179688 35.160156 L 36.128906 46.0625 L 44.675781 46.0625 L 44.675781 47.828125 L 52.5625 47.828125 L 52.5625 39.546875 L 44.675781 39.546875 L 44.675781 41.316406 L 38.109375 41.316406 L 31.917969 35.160156 L 53.398438 35.160156 L 53.421875 38.746094 L 62.820312 32.789062 L 53.359375 26.953125 L 53.375 30.414062 L 27.15625 30.414062 L 27.117188 30.375 L 27.074219 30.414062 L 23.253906 30.414062 L 29.726562 23.960938 L 35.820312 23.960938 C 36.679688 25.566406 38.375 26.660156 40.324219 26.660156 C 43.140625 26.660156 45.417969 24.398438 45.417969 21.59375 C 45.417969 18.792969 43.140625 16.519531 40.324219 16.519531 "/>
</g>
</svg>
