<svg xmlns="http://www.w3.org/2000/svg" xmlns:xlink="http://www.w3.org/1999/xlink" width="64" height="64" viewBox="0 0 64 64" version="1.1">
<defs> <linearGradient id="linear0" gradientUnits="userSpaceOnUse" x1="0" y1="0" x2="0" y2="1" gradientTransform="matrix(55.992188,0,0,56,4.003906,4)"> <stop offset="0" style="stop-color:#ff6666;stop-opacity:1;"/> <stop offset="1" style="stop-color:#d90000;stop-opacity:1;"/> </linearGradient> </defs>
<g id="surface1">
<path style=" stroke:none;fill-rule:nonzero;fill:url(#linear0);fill-opacity:1;" d="M 30.875 9.4375 C 17.722656 9.4375 7.058594 20.054688 7.058594 33.152344 C 7.058594 46.253906 17.722656 56.871094 30.875 56.871094 C 44.027344 56.871094 54.6875 46.25 54.6875 33.152344 C 54.6875 32.953125 54.664062 32.761719 54.660156 32.5625 C 54.664062 32.460938 54.6875 32.367188 54.6875 32.257812 L 54.6875 13.425781 C 54.6875 11.21875 52.902344 9.4375 50.683594 9.4375 L 31.773438 9.4375 C 31.667969 9.4375 31.566406 9.460938 31.472656 9.46875 C 31.265625 9.46875 31.074219 9.4375 30.875 9.4375 "/>
</g>
</svg>
