<svg xmlns="http://www.w3.org/2000/svg" xmlns:xlink="http://www.w3.org/1999/xlink" width="64" height="64" viewBox="0 0 64 64" version="1.1">
<defs>
<linearGradient id="linear0" gradientUnits="userSpaceOnUse" x1="0" y1="0" x2="0" y2="1" gradientTransform="matrix(53.046875,0,0,64,5.476562,0)">
<stop offset="0" style="stop-color:#ff6666;stop-opacity:1;"/>
<stop offset="1" style="stop-color:#d90000;stop-opacity:1;"/>
</linearGradient>
</defs>
<g id="surface1">
<path style=" stroke:none;fill-rule:nonzero;fill:url(#linear0);" d="M 16.453125 0 L 16.453125 5.484375 L 18.289062 5.484375 L 18.289062 9.140625 L 14.632812 9.140625 L 14.632812 14.65625 L 18.289062 14.65625 L 18.289062 31.078125 L 5.476562 31.078125 L 5.476562 32.90625 L 18.289062 32.90625 L 18.289062 47.515625 L 14.632812 47.515625 L 14.632812 53.03125 L 18.289062 53.03125 L 18.289062 56.671875 L 20.117188 56.671875 L 20.117188 53.03125 L 36.578125 53.03125 C 48.734375 53.03125 58.523438 43.242188 58.523438 31.085938 C 58.523438 18.929688 48.734375 9.140625 36.578125 9.140625 L 20.117188 9.140625 L 20.117188 5.484375 L 21.9375 5.484375 L 21.9375 0 Z M 20.117188 14.65625 L 36.578125 14.65625 C 45.777344 14.65625 53.007812 21.886719 53.007812 31.085938 C 53.007812 40.285156 45.777344 47.515625 36.578125 47.515625 L 20.117188 47.515625 L 20.117188 32.90625 L 25.609375 32.90625 L 21.945312 40.226562 L 40.234375 40.226562 L 36.578125 32.90625 L 42.054688 32.90625 L 42.054688 31.078125 L 35.65625 31.078125 L 31.09375 21.945312 L 26.523438 31.078125 L 20.117188 31.078125 Z M 42.0625 28.34375 L 42.0625 35.65625 L 49.375 32 Z M 15.546875 56.6875 L 19.203125 64 L 22.859375 56.6875 Z M 15.546875 56.6875 "/>
</g>
</svg>
