<svg xmlns="http://www.w3.org/2000/svg" xmlns:xlink="http://www.w3.org/1999/xlink" width="64" height="64" viewBox="0 0 64 64" version="1.1">
<defs> <linearGradient id="linear0" gradientUnits="userSpaceOnUse" x1="0" y1="0" x2="0" y2="1" gradientTransform="matrix(55.992188,0,0,56,4.003906,4)"> <stop offset="0" style="stop-color:#ff6666;stop-opacity:1;"/> <stop offset="1" style="stop-color:#d90000;stop-opacity:1;"/> </linearGradient> </defs>
<g id="surface1">
<path style=" stroke:none;fill-rule:evenodd;fill:url(#linear0);fill-opacity:1;" d="M 31.046875 6.125 C 30.574219 6.128906 30.101562 6.148438 29.632812 6.179688 C 28.621094 6.253906 27.75 6.339844 27.707031 6.367188 C 27.65625 6.402344 29.828125 10.101562 32.539062 14.589844 C 35.242188 19.085938 38.320312 24.25 39.375 26.058594 L 41.289062 29.355469 L 41.835938 28.476562 C 42.128906 27.984375 43.164062 26.304688 44.125 24.742188 C 45.082031 23.175781 46.679688 20.574219 47.671875 18.949219 C 48.667969 17.332031 49.660156 15.710938 49.898438 15.335938 L 50.332031 14.664062 L 49.75 14.054688 C 44.851562 8.882812 38.074219 6.027344 31.046875 6.125 M 25.355469 6.859375 C 25.230469 6.867188 25.042969 6.910156 24.722656 6.988281 C 22.582031 7.554688 19.441406 8.964844 17.574219 10.203125 C 13.746094 12.746094 10.742188 16.128906 8.773438 20.082031 C 8.359375 20.90625 8.023438 21.621094 8.023438 21.660156 C 8.023438 21.707031 13.972656 21.738281 21.253906 21.738281 C 28.53125 21.738281 34.488281 21.710938 34.488281 21.675781 C 34.488281 21.582031 25.757812 7.136719 25.59375 6.957031 C 25.53125 6.886719 25.472656 6.859375 25.355469 6.859375 M 51.636719 16.390625 C 51.601562 16.390625 51.570312 16.417969 51.539062 16.457031 C 51.394531 16.675781 49.074219 20.4375 46.367188 24.855469 C 45.375 26.472656 44.265625 28.277344 43.902344 28.871094 C 42.660156 30.882812 41.675781 32.507812 40.648438 34.277344 C 38.9375 37.21875 38.042969 38.796875 38.042969 38.835938 C 38.042969 38.851562 41.960938 38.875 46.753906 38.875 L 55.464844 38.871094 L 55.625 38.316406 C 57.066406 33.308594 56.957031 28.203125 55.300781 23.242188 C 54.699219 21.445312 53.472656 18.945312 52.414062 17.375 C 51.921875 16.636719 51.746094 16.394531 51.636719 16.394531 M 27.011719 23.679688 L 26.625 24.347656 C 26.417969 24.714844 25.765625 25.832031 25.183594 26.835938 C 24.605469 27.835938 23.792969 29.234375 23.382812 29.933594 C 22.71875 31.070312 22.652344 31.238281 22.757812 31.472656 C 22.925781 31.828125 26.617188 38.222656 26.871094 38.585938 L 27.070312 38.878906 L 31.402344 38.875 L 35.742188 38.871094 L 36.222656 37.992188 C 36.648438 37.21875 38.242188 34.476562 39.613281 32.140625 C 39.875 31.699219 40.074219 31.285156 40.058594 31.222656 C 40.039062 31.160156 39.058594 29.441406 37.878906 27.394531 L 35.726562 23.679688 L 27.011719 23.679688 M 15.960938 23.695312 L 7.222656 23.730469 L 6.882812 25.097656 C 5.6875 29.855469 5.875 34.632812 7.441406 39.320312 C 8.035156 41.085938 9.265625 43.597656 10.28125 45.117188 C 10.667969 45.695312 11.015625 46.164062 11.054688 46.164062 C 11.09375 46.164062 11.3125 45.84375 11.550781 45.441406 C 11.933594 44.777344 12.707031 43.527344 16.53125 37.382812 C 20.238281 31.410156 20.878906 30.363281 21.628906 29.023438 C 21.878906 28.582031 22.675781 27.21875 23.390625 25.992188 C 24.109375 24.765625 24.703125 23.742188 24.703125 23.710938 C 24.703125 23.695312 22.488281 23.691406 19.351562 23.691406 C 18.308594 23.695312 17.164062 23.691406 15.960938 23.691406 M 21.414062 33.226562 C 21.402344 33.242188 21.125 33.695312 20.800781 34.21875 C 20.480469 34.753906 18.484375 37.988281 16.363281 41.402344 C 14.246094 44.824219 12.496094 47.691406 12.46875 47.777344 C 12.417969 47.972656 14.484375 50.042969 15.660156 50.972656 C 19.390625 53.914062 24.339844 55.910156 28.957031 56.332031 C 30.316406 56.464844 32.316406 56.46875 33.574219 56.34375 C 34.15625 56.289062 34.652344 56.226562 34.667969 56.203125 C 34.691406 56.179688 32.667969 52.625 30.175781 48.296875 C 23.929688 37.457031 21.449219 33.191406 21.414062 33.226562 M 46.546875 40.832031 C 44.964844 40.835938 43.226562 40.835938 41.402344 40.835938 L 28.160156 40.867188 L 32.46875 48.335938 C 34.84375 52.449219 36.828125 55.8125 36.878906 55.8125 C 37.09375 55.8125 38.675781 55.378906 39.546875 55.078125 C 43.222656 53.816406 46.476562 51.792969 49.21875 49.054688 C 50.570312 47.707031 51.351562 46.746094 52.484375 45.039062 C 53.300781 43.8125 54.8125 40.980469 54.699219 40.867188 C 54.679688 40.847656 51.308594 40.832031 46.546875 40.832031 "/>
</g>
</svg>
