<svg xmlns="http://www.w3.org/2000/svg" xmlns:xlink="http://www.w3.org/1999/xlink" width="64" height="64" viewBox="0 0 64 64" version="1.1">
<defs>
<linearGradient id="linear0" gradientUnits="userSpaceOnUse" x1="0" y1="0" x2="0" y2="1" gradientTransform="matrix(64,0,0,45.679688,0,9.160156)">
<stop offset="0" style="stop-color:#ff6666;stop-opacity:1;"/>
<stop offset="1" style="stop-color:#d90000;stop-opacity:1;"/>
</linearGradient>
</defs>
<g id="surface1">
<path style=" stroke:none;fill-rule:nonzero;fill:url(#linear0);" d="M 11.660156 9.34375 C 11.660156 12.710938 12.175781 17.492188 14.898438 20.101562 C 16.359375 21.5 18.765625 21.878906 20.699219 22.5 C 24.921875 23.851562 29.597656 25.910156 34.101562 26.261719 L 28.179688 25.488281 L 14.777344 23.210938 C 14.804688 24.414062 15.078125 25.425781 15.589844 26.539062 C 18.9375 33.867188 27.027344 32.363281 34.414062 32.363281 C 31.628906 33.117188 28.5625 33.207031 25.6875 33.550781 C 24.726562 33.667969 22.878906 33.695312 22.28125 34.5 C 21.269531 35.855469 24.125 37.714844 25.0625 38.394531 C 29.152344 41.351562 33.238281 40.785156 37.84375 39.019531 L 36.285156 45.957031 L 41.269531 45.957031 L 38.777344 55.941406 L 44.625 49.285156 L 51.246094 41.242188 L 44.699219 41.242188 C 46.847656 37.648438 49.488281 34.300781 51.625 30.699219 C 52.5625 29.125 53.863281 27.296875 53.292969 25.429688 C 52.398438 22.523438 46.574219 21.25 43.765625 20.390625 C 36.046875 18.035156 28.574219 15.277344 21.011719 12.574219 C 18.058594 11.519531 14.875 9.492188 11.660156 9.34375 Z M 11.660156 9.34375 "/>
</g>
</svg>
