<svg xmlns="http://www.w3.org/2000/svg" xmlns:xlink="http://www.w3.org/1999/xlink" width="64" height="64" viewBox="0 0 64 64" version="1.1">
<defs>
<linearGradient id="linear0" gradientUnits="userSpaceOnUse" x1="0" y1="0" x2="0" y2="1" gradientTransform="matrix(64,0,0,39.078125,0,12.460938)">
<stop offset="0" style="stop-color:#ff6666;stop-opacity:1;"/>
<stop offset="1" style="stop-color:#d90000;stop-opacity:1;"/>
</linearGradient>
</defs>
<g id="surface1">
<path style=" stroke:none;fill-rule:evenodd;fill:url(#linear0);" d="M 55.988281 40.0625 L 55.8125 41.074219 L 55.8125 42.78125 L 56.332031 47.089844 L 57.21875 48.273438 L 57.59375 49.238281 L 57.070312 49.164062 L 57.070312 49.386719 L 56.183594 49.238281 L 56.183594 49.609375 L 55.515625 49.460938 L 55.144531 49.3125 L 55.144531 49.90625 L 54.546875 49.683594 C 54.546875 49.683594 53.007812 49.351562 52.769531 48.71875 C 52.59375 48.253906 53.285156 47.808594 53.289062 47.308594 C 53.289062 46.941406 52.980469 46.632812 52.914062 46.269531 C 52.8125 45.660156 52.992188 45.027344 52.914062 44.414062 C 52.867188 44.007812 52.621094 43.226562 52.621094 43.226562 L 51.804688 42.707031 C 51.804688 42.707031 50.757812 42.613281 50.242188 42.707031 C 49.777344 42.796875 49.378906 43.140625 48.90625 43.226562 C 48.640625 43.277344 48.363281 43.226562 48.09375 43.226562 C 47.796875 43.226562 47.496094 43.183594 47.203125 43.226562 C 46.867188 43.277344 46.570312 43.496094 46.234375 43.523438 C 45.886719 43.550781 45.199219 43.375 45.199219 43.375 C 45.199219 43.375 44.550781 43.890625 44.457031 44.265625 C 44.332031 44.757812 44.667969 45.253906 44.753906 45.753906 C 44.902344 46.660156 45.125 48.496094 45.125 48.496094 L 46.902344 49.832031 L 46.902344 50.5 L 46.460938 50.351562 L 46.089844 50.351562 L 46.089844 50.871094 L 45.421875 50.574219 L 45.273438 50.796875 L 45.273438 51.242188 L 44.605469 50.945312 L 44.378906 50.945312 L 44.308594 51.539062 L 43.492188 51.167969 C 43.492188 51.167969 42.605469 51.050781 42.378906 50.722656 C 42.195312 50.457031 42.378906 49.757812 42.378906 49.757812 C 42.378906 49.757812 41.101562 50.0625 40.449219 50.054688 C 39.769531 50.042969 38.445312 49.683594 38.445312 49.683594 C 38.445312 49.683594 38.300781 48.742188 38.21875 48.273438 C 38.152344 47.851562 38.140625 47.414062 38 47.011719 C 37.828125 46.53125 37.367188 46.171875 37.257812 45.675781 C 37.167969 45.289062 37.332031 44.488281 37.332031 44.488281 L 36.882812 43.449219 L 35.328125 43.300781 L 31.910156 42.632812 L 31.542969 43.152344 L 31.46875 44.265625 C 31.46875 44.265625 31.253906 45.867188 31.023438 46.640625 C 30.890625 47.074219 30.5625 47.453125 30.503906 47.902344 C 30.476562 48.101562 30.574219 48.496094 30.574219 48.496094 L 31.320312 49.015625 L 32.210938 49.609375 L 32.210938 50.203125 L 32.136719 50.203125 L 31.839844 49.980469 L 31.691406 50.648438 L 31.097656 50.277344 L 30.875 50.203125 L 30.949219 50.796875 L 30.355469 50.796875 L 29.984375 50.574219 L 29.6875 50.722656 L 29.835938 51.167969 L 29.238281 50.945312 L 28.796875 50.871094 L 27.757812 50.574219 L 26.792969 49.90625 L 26.792969 49.386719 L 27.386719 47.605469 C 27.460938 47.382812 27.625 47.171875 27.609375 46.9375 C 27.585938 46.609375 27.222656 46.371094 27.164062 46.046875 C 27.078125 45.585938 27.3125 44.636719 27.3125 44.636719 L 27.386719 43.449219 L 25.308594 43.746094 L 23.601562 45.007812 L 21.820312 46.421875 C 21.820312 46.421875 19.476562 48 18.257812 48.71875 C 17.578125 49.117188 16.910156 49.542969 16.179688 49.832031 C 14.84375 50.359375 13.445312 50.761719 12.023438 50.945312 C 11.289062 51.042969 10.535156 51.015625 9.796875 50.945312 C 8.492188 50.820312 7.222656 50.457031 5.9375 50.203125 C 4.453125 49.910156 2.855469 49.953125 1.484375 49.3125 C 0.910156 49.042969 0 48.125 0 48.125 L 0.148438 47.828125 C 0.148438 47.828125 0.941406 47.804688 1.335938 47.828125 C 1.734375 47.851562 2.128906 47.929688 2.523438 47.976562 C 2.96875 48.027344 3.410156 48.09375 3.859375 48.125 C 5.09375 48.21875 6.34375 48.449219 7.570312 48.273438 C 8.34375 48.164062 9.097656 47.878906 9.796875 47.53125 C 10.65625 47.105469 11.445312 46.523438 12.171875 45.898438 C 12.996094 45.191406 13.738281 44.386719 14.398438 43.523438 C 15.03125 42.691406 15.542969 41.777344 16.03125 40.851562 C 16.765625 39.460938 17.960938 36.546875 17.960938 36.546875 C 17.960938 36.546875 18.617188 35.238281 19 34.617188 C 19.769531 33.378906 20.597656 32.179688 21.523438 31.054688 C 22.480469 29.890625 23.507812 28.78125 24.640625 27.789062 C 25.652344 26.902344 26.796875 26.175781 27.902344 25.414062 C 28.730469 24.847656 29.488281 24.125 30.429688 23.785156 C 31.648438 23.339844 32.96875 23.175781 34.277344 23.167969 C 34.578125 23.167969 34.878906 23.175781 35.179688 23.1875 C 36.800781 23.261719 38.402344 23.675781 39.929688 24.226562 C 41.136719 24.664062 42.230469 25.363281 43.34375 26.007812 C 44.769531 26.835938 46.144531 27.746094 47.5 28.679688 C 48.460938 29.34375 49.390625 30.046875 50.320312 30.761719 C 50.820312 31.144531 51.203125 31.734375 51.804688 31.945312 C 52.121094 32.054688 52.722656 32 52.996094 31.964844 L 52.992188 31.945312 C 52.992188 31.945312 55.234375 31.816406 56.183594 31.277344 C 57.265625 30.664062 58.058594 29.597656 58.703125 28.53125 C 59.15625 27.789062 59.378906 26.925781 59.597656 26.085938 C 59.714844 25.621094 59.765625 25.144531 59.820312 24.671875 C 59.890625 24.054688 60.015625 23.4375 59.96875 22.816406 C 59.882812 21.753906 59.535156 20.71875 59.222656 19.699219 C 59.039062 19.09375 58.898438 18.453125 58.554688 17.921875 C 58.464844 17.773438 58.308594 17.671875 58.1875 17.546875 C 57.808594 17.15625 57.070312 16.359375 57.070312 16.359375 L 56.402344 15.839844 C 56.402344 15.839844 55.703125 16.074219 55.363281 15.988281 C 55.007812 15.894531 54.476562 15.320312 54.476562 15.320312 C 54.476562 15.320312 53.324219 15.429688 52.914062 15.101562 C 52.691406 14.914062 52.621094 14.285156 52.621094 14.285156 L 53.730469 14.355469 L 52.914062 13.984375 C 52.914062 13.984375 53.199219 13.433594 53.4375 13.242188 C 53.585938 13.125 53.789062 13.105469 53.957031 13.019531 C 54.285156 12.859375 54.566406 12.59375 54.921875 12.5 C 55.230469 12.425781 55.5625 12.480469 55.882812 12.5 C 56.261719 12.523438 56.640625 12.546875 57 12.648438 C 57.46875 12.78125 57.90625 13.007812 58.335938 13.242188 C 58.878906 13.542969 59.890625 14.285156 59.890625 14.285156 L 61.078125 15.691406 C 61.078125 15.691406 61.957031 17.308594 62.34375 18.140625 C 62.746094 19.015625 63.210938 19.878906 63.457031 20.8125 C 63.773438 22.019531 63.8125 23.28125 63.898438 24.523438 C 63.96875 25.464844 64.039062 26.40625 63.976562 27.34375 C 63.910156 28.269531 63.761719 29.191406 63.527344 30.09375 C 63.292969 31.03125 62.945312 31.945312 62.5625 32.835938 C 62.199219 33.703125 61.808594 34.566406 61.304688 35.359375 C 60.8125 36.132812 60.238281 36.863281 59.597656 37.511719 C 58.902344 38.210938 58.121094 38.828125 57.296875 39.367188 C 56.863281 39.648438 55.988281 40.0625 55.988281 40.0625 Z M 41.339844 45.601562 L 41.933594 48.644531 L 40.820312 46.492188 Z M 41.339844 45.601562 "/>
</g>
</svg>
