<svg xmlns="http://www.w3.org/2000/svg" xmlns:xlink="http://www.w3.org/1999/xlink" width="64" height="64" viewBox="0 0 64 64" version="1.1">
<defs>
<linearGradient id="linear0" gradientUnits="userSpaceOnUse" x1="0" y1="0" x2="0" y2="1" gradientTransform="matrix(64,0,0,61.230469,0,2.769531)">
<stop offset="0" style="stop-color:#ff6666;stop-opacity:1;"/>
<stop offset="1" style="stop-color:#d90000;stop-opacity:1;"/>
</linearGradient>
</defs>
<g id="surface1">
<path style=" stroke:none;fill-rule:evenodd;fill:url(#linear0);" d="M 24.484375 12.71875 L 31.199219 12.71875 C 33.179688 12.71875 35.078125 13.503906 36.476562 14.902344 C 37.875 16.304688 38.664062 18.203125 38.664062 20.183594 C 38.664062 22.160156 37.875 24.058594 36.476562 25.460938 C 35.078125 26.859375 33.179688 27.648438 31.199219 27.648438 L 24.484375 27.648438 C 24.070312 27.648438 23.734375 27.3125 23.734375 26.894531 L 23.734375 13.46875 C 23.734375 13.050781 24.070312 12.71875 24.484375 12.71875 Z M 15.523438 2.769531 C 14.558594 2.769531 13.785156 3.539062 13.785156 4.503906 L 13.785156 35.859375 C 13.785156 36.824219 14.558594 37.597656 15.523438 37.597656 L 31.199219 37.597656 C 40.820312 37.597656 48.617188 29.800781 48.617188 20.183594 C 48.617188 10.5625 40.820312 2.769531 31.199219 2.769531 Z M 1.546875 49.914062 L 1.546875 55.6875 L 5.722656 55.6875 C 6.84375 55.6875 7.667969 55.410156 8.191406 54.859375 C 8.714844 54.304688 8.976562 53.628906 8.976562 52.835938 C 8.976562 52.085938 8.722656 51.410156 8.210938 50.8125 C 7.707031 50.214844 6.875 49.914062 5.722656 49.914062 Z M 16.867188 58.628906 L 21.976562 58.628906 L 19.851562 52.4375 C 19.617188 51.773438 19.46875 51.3125 19.410156 51.042969 L 19.230469 51.621094 C 19.128906 52.015625 19.050781 52.289062 18.988281 52.4375 Z M 38.289062 64 L 29.070312 64 L 29.070312 48.523438 L 30.621094 48.523438 L 30.621094 62.519531 L 38.289062 62.519531 Z M 50.605469 64 L 41.382812 64 L 41.382812 48.523438 L 42.933594 48.523438 L 42.933594 62.519531 L 50.605469 62.519531 Z M 58.980469 64 L 57.4375 64 L 57.4375 57.921875 L 52.371094 48.523438 L 54.070312 48.523438 L 58.183594 56.484375 L 62.40625 48.523438 L 64 48.523438 L 58.980469 57.855469 Z M 1.546875 64 L 0 64 L 0 48.523438 L 5.679688 48.523438 C 7.359375 48.523438 8.574219 48.933594 9.328125 49.753906 C 10.078125 50.570312 10.457031 51.574219 10.457031 52.769531 C 10.457031 53.816406 10.148438 54.734375 9.527344 55.519531 C 8.910156 56.308594 7.945312 56.808594 6.632812 57.015625 L 10.058594 64 L 8.355469 64 L 5.039062 57.078125 L 1.546875 57.078125 Z M 25.425781 64 L 23.851562 64 L 22.441406 60 L 16.402344 60 L 15.054688 64 L 13.441406 64 L 18.8125 48.523438 L 20.007812 48.523438 Z M 25.425781 64 "/>
</g>
</svg>
