<svg xmlns="http://www.w3.org/2000/svg" xmlns:xlink="http://www.w3.org/1999/xlink" width="64" height="64" viewBox="0 0 64 64" version="1.1">
<defs>
<linearGradient id="linear0" gradientUnits="userSpaceOnUse" x1="0" y1="0" x2="0" y2="1" gradientTransform="matrix(45.925781,0,0,63.757812,10,0.242188)">
<stop offset="0" style="stop-color:#ff6666;stop-opacity:1;"/>
<stop offset="1" style="stop-color:#d90000;stop-opacity:1;"/>
</linearGradient>
</defs>
<g id="surface1">
<path style=" stroke:none;fill-rule:nonzero;fill:url(#linear0);" d="M 41.445312 0.242188 L 38.65625 1.4375 C 20.730469 9.109375 10 26.6875 10 39.976562 C 10 51.21875 17.488281 60.320312 27.421875 62.875 C 28.992188 63.277344 30.472656 63.941406 32.15625 63.976562 L 32.234375 59.976562 C 27.78125 59.882812 24.09375 56 24.09375 50.992188 C 24.09375 46.613281 28.230469 40.105469 34.476562 36.25 C 35.234375 40.867188 36.867188 44.445312 38.476562 46.835938 C 39.496094 48.351562 40.328125 49.578125 40.734375 50.648438 C 41.140625 51.71875 41.246094 52.601562 40.78125 54.046875 C 39.648438 57.574219 37.355469 59.960938 32.46875 59.992188 L 32.46875 63.992188 C 32.414062 63.992188 32.519531 63.992188 32.492188 63.992188 C 32.378906 63.992188 32.324219 64 32.585938 64 C 44.699219 64 52.203125 56.894531 55.078125 47.929688 C 56.375 43.882812 56.078125 40.304688 54.882812 37.164062 C 53.6875 34.023438 51.722656 31.289062 49.726562 28.328125 C 45.738281 22.402344 41.445312 15.640625 41.445312 3.273438 Z M 38.023438 6.492188 C 38.84375 17.585938 42.761719 25.140625 46.414062 30.5625 C 48.4375 33.570312 50.199219 36.113281 51.140625 38.585938 C 52.082031 41.058594 52.324219 43.4375 51.273438 46.710938 C 49.84375 51.171875 47.203125 54.734375 43.328125 57.101562 C 43.671875 56.4375 44.367188 55.984375 44.59375 55.273438 C 45.304688 53.058594 45.136719 50.964844 44.476562 49.226562 C 43.816406 47.488281 42.785156 46.070312 41.796875 44.601562 C 39.816406 41.660156 37.820312 38.585938 37.820312 32.640625 L 37.820312 29.609375 L 35.039062 30.796875 C 25.6875 34.796875 20.09375 43.78125 20.09375 50.992188 C 20.09375 52.933594 21.304688 54.347656 22.039062 56.015625 C 17.304688 52.410156 14 46.761719 14 39.976562 C 14 29.496094 23.09375 14.050781 38.023438 6.492188 Z M 38.023438 6.492188 "/>
</g>
</svg>
