<svg xmlns="http://www.w3.org/2000/svg" xmlns:xlink="http://www.w3.org/1999/xlink" width="64" height="64" viewBox="0 0 64 64" version="1.1">
<defs> <linearGradient id="linear0" gradientUnits="userSpaceOnUse" x1="0" y1="0" x2="0" y2="1" gradientTransform="matrix(55.992188,0,0,56,4.003906,4)"> <stop offset="0" style="stop-color:#ff6666;stop-opacity:1;"/> <stop offset="1" style="stop-color:#d90000;stop-opacity:1;"/> </linearGradient> </defs>
<g id="surface1">
<path style=" stroke:none;fill-rule:evenodd;fill:url(#linear0);fill-opacity:1;" d="M 48.496094 26.839844 C 46.570312 28.667969 45.902344 31.261719 46.492188 33.632812 C 46.792969 34.84375 47.421875 35.992188 48.382812 36.941406 C 51.226562 39.769531 55.886719 39.824219 58.792969 37.070312 C 61.699219 34.316406 61.75 29.792969 58.90625 26.96875 C 57.945312 26.015625 56.777344 25.375 55.539062 25.054688 C 53.113281 24.425781 50.421875 25.019531 48.496094 26.839844 "/>
<path style=" stroke:none;fill-rule:evenodd;fill:url(#linear0);fill-opacity:1;" d="M 26.222656 49.929688 C 24.617188 51.453125 24.054688 53.617188 24.546875 55.59375 C 24.796875 56.597656 25.328125 57.558594 26.128906 58.351562 C 28.496094 60.710938 32.386719 60.753906 34.804688 58.460938 C 37.230469 56.164062 37.273438 52.390625 34.902344 50.03125 C 34.101562 49.242188 33.128906 48.710938 32.097656 48.4375 C 30.074219 47.917969 27.824219 48.410156 26.222656 49.929688 "/>
<path style=" stroke:none;fill-rule:evenodd;fill:url(#linear0);fill-opacity:1;" d="M 37.820312 15.21875 C 36.09375 16.859375 35.492188 19.1875 36.027344 21.316406 C 36.292969 22.394531 36.855469 23.425781 37.71875 24.285156 C 40.269531 26.816406 44.449219 26.867188 47.054688 24.398438 C 49.660156 21.925781 49.707031 17.871094 47.15625 15.335938 C 46.292969 14.476562 45.25 13.90625 44.136719 13.625 C 41.960938 13.058594 39.546875 13.585938 37.820312 15.222656 "/>
<path style=" stroke:none;fill-rule:evenodd;fill:url(#linear0);fill-opacity:1;" d="M 14.296875 39.535156 C 12.832031 40.921875 12.320312 42.902344 12.769531 44.699219 C 12.996094 45.621094 13.480469 46.492188 14.207031 47.214844 C 16.371094 49.367188 19.914062 49.410156 22.125 47.3125 C 24.332031 45.21875 24.371094 41.78125 22.207031 39.632812 C 21.476562 38.910156 20.589844 38.421875 19.648438 38.179688 C 17.808594 37.703125 15.757812 38.152344 14.292969 39.535156 "/>
<path style=" stroke:none;fill-rule:evenodd;fill:url(#linear0);fill-opacity:1;" d="M 25.921875 5.886719 C 24.316406 7.410156 23.757812 9.574219 24.246094 11.546875 C 24.496094 12.554688 25.027344 13.515625 25.824219 14.308594 C 28.195312 16.667969 32.085938 16.710938 34.507812 14.414062 C 36.929688 12.121094 36.972656 8.347656 34.601562 5.988281 C 33.800781 5.191406 32.828125 4.660156 31.792969 4.394531 C 29.773438 3.875 27.523438 4.367188 25.921875 5.886719 "/>
<path style=" stroke:none;fill-rule:evenodd;fill:url(#linear0);fill-opacity:1;" d="M 4.730469 28.0625 C 3.320312 29.402344 2.828125 31.300781 3.257812 33.039062 C 3.480469 33.925781 3.9375 34.761719 4.644531 35.464844 C 6.726562 37.535156 10.140625 37.574219 12.269531 35.554688 C 14.398438 33.542969 14.433594 30.226562 12.355469 28.15625 C 11.652344 27.457031 10.792969 26.992188 9.886719 26.753906 C 8.113281 26.296875 6.136719 26.726562 4.730469 28.0625 "/>
<path style=" stroke:none;fill-rule:evenodd;fill:url(#linear0);fill-opacity:1;" d="M 37.554688 39.59375 C 35.84375 41.210938 35.246094 43.519531 35.777344 45.621094 C 36.042969 46.695312 36.597656 47.714844 37.449219 48.5625 C 39.976562 51.066406 44.113281 51.117188 46.691406 48.675781 C 49.273438 46.226562 49.320312 42.210938 46.792969 39.707031 C 45.941406 38.859375 44.902344 38.292969 43.804688 38.007812 C 41.652344 37.449219 39.261719 37.976562 37.554688 39.59375 "/>
<path style=" stroke:none;fill-rule:evenodd;fill:url(#linear0);fill-opacity:1;" d="M 26.019531 27.597656 C 24.34375 29.1875 23.757812 31.445312 24.277344 33.507812 C 24.535156 34.558594 25.082031 35.554688 25.917969 36.386719 C 28.394531 38.847656 32.449219 38.890625 34.976562 36.5 C 37.503906 34.101562 37.546875 30.164062 35.070312 27.710938 C 34.238281 26.878906 33.21875 26.324219 32.148438 26.042969 C 30.035156 25.5 27.6875 26.007812 26.019531 27.597656 "/>
<path style=" stroke:none;fill-rule:evenodd;fill:url(#linear0);fill-opacity:1;" d="M 14.433594 16.332031 C 12.953125 17.734375 12.433594 19.742188 12.890625 21.570312 C 13.121094 22.496094 13.605469 23.386719 14.347656 24.121094 C 16.539062 26.296875 20.136719 26.34375 22.375 24.214844 C 24.617188 22.09375 24.65625 18.605469 22.464844 16.429688 C 21.71875 15.695312 20.824219 15.203125 19.867188 14.953125 C 17.996094 14.464844 15.921875 14.925781 14.433594 16.332031 "/>
</g>
</svg>
