<svg xmlns="http://www.w3.org/2000/svg" xmlns:xlink="http://www.w3.org/1999/xlink" width="64" height="64" viewBox="0 0 64 64" version="1.1">
<defs> <linearGradient id="linear0" gradientUnits="userSpaceOnUse" x1="0" y1="0" x2="0" y2="1" gradientTransform="matrix(55.992188,0,0,56,4.003906,4)"> <stop offset="0" style="stop-color:#ff6666;stop-opacity:1;"/> <stop offset="1" style="stop-color:#d90000;stop-opacity:1;"/> </linearGradient> </defs>
<g id="surface1">
<path style=" stroke:none;fill-rule:evenodd;fill:url(#linear0);fill-opacity:1;" d="M 10.332031 11.515625 L 10.332031 41.261719 C 10.332031 44.421875 11.5 47.1875 13.753906 49.421875 C 15.683594 51.316406 17.996094 52.554688 20.601562 52.832031 L 41.910156 52.832031 C 45.179688 52.832031 48.03125 51.617188 50.355469 49.265625 L 50.375 49.265625 C 52.347656 47.25 53.496094 44.828125 53.777344 42.109375 L 53.777344 38.796875 L 53.761719 25.855469 C 53.761719 23.28125 52.800781 21 50.984375 19.171875 C 49.167969 17.34375 46.902344 16.402344 44.355469 16.402344 C 41.851562 16.402344 39.664062 17.328125 37.898438 19.023438 C 36.132812 17.328125 33.964844 16.402344 31.464844 16.402344 C 28.914062 16.402344 26.65625 17.34375 24.839844 19.171875 C 23.019531 21 22.066406 23.28125 22.066406 25.855469 L 22.066406 38.878906 L 27.988281 38.878906 L 27.988281 25.855469 C 27.988281 24.867188 28.320312 24.101562 29.027344 23.390625 C 29.738281 22.679688 30.488281 22.351562 31.464844 22.351562 C 32.460938 22.351562 33.203125 22.671875 33.917969 23.390625 C 34.621094 24.101562 34.945312 24.867188 34.945312 25.855469 L 34.945312 38.878906 L 40.871094 38.878906 L 40.871094 25.855469 C 40.871094 24.867188 41.199219 24.101562 41.910156 23.390625 C 42.617188 22.671875 43.355469 22.351562 44.355469 22.351562 C 45.332031 22.351562 46.089844 22.679688 46.796875 23.390625 C 47.507812 24.101562 47.820312 24.867188 47.820312 25.855469 L 47.855469 41.070312 C 47.855469 41.261719 47.84375 41.449219 47.820312 41.640625 C 47.820312 41.644531 47.828125 41.65625 47.820312 41.667969 C 47.816406 41.742188 47.804688 41.816406 47.792969 41.882812 C 47.769531 42.035156 47.734375 42.183594 47.695312 42.335938 C 47.015625 44.992188 44.230469 47.042969 40.777344 47.042969 L 27.972656 46.996094 L 27.972656 47 L 21.644531 46.972656 C 18.570312 46.972656 15.945312 44 15.945312 40.171875 L 15.945312 11.515625 L 10.332031 11.515625 "/>
</g>
</svg>
