<svg xmlns="http://www.w3.org/2000/svg" xmlns:xlink="http://www.w3.org/1999/xlink" width="64" height="64" viewBox="0 0 64 64" version="1.1">
<defs> <linearGradient id="linear0" gradientUnits="userSpaceOnUse" x1="0" y1="0" x2="0" y2="1" gradientTransform="matrix(55.992188,0,0,56,4.003906,4)"> <stop offset="0" style="stop-color:#ff6666;stop-opacity:1;"/> <stop offset="1" style="stop-color:#d90000;stop-opacity:1;"/> </linearGradient> </defs>
<g id="surface1">
<path style=" stroke:none;fill-rule:evenodd;fill:url(#linear0);fill-opacity:1;" d="M 26.992188 7.769531 C 16.460938 8.269531 8.222656 17.78125 8.636719 22.949219 C 9.042969 27.984375 21.851562 32.40625 21.703125 32.550781 C 19.078125 34.757812 17.351562 36.246094 15.171875 38.230469 C 9.914062 43.019531 6.277344 46.570312 8.117188 51.546875 C 10.242188 57.292969 14.894531 57.058594 20.351562 55.992188 C 34.433594 53.222656 57.613281 35.488281 56.4375 28.9375 C 55.480469 23.644531 42.527344 13.175781 34.867188 9.425781 C 32.476562 8.257812 29.757812 7.644531 26.992188 7.777344 M 29.164062 16.863281 C 30.484375 16.738281 32.015625 17.074219 33.726562 17.894531 C 37.460938 19.691406 41.328125 24.464844 33.726562 27.183594 C 31.660156 27.925781 25.027344 25.410156 25.222656 21.921875 C 25.410156 18.703125 26.972656 17.066406 29.164062 16.863281 "/>
</g>
</svg>
