<svg xmlns="http://www.w3.org/2000/svg" xmlns:xlink="http://www.w3.org/1999/xlink" width="64" height="64" viewBox="0 0 64 64" version="1.1">
<defs> <linearGradient id="linear0" gradientUnits="userSpaceOnUse" x1="0" y1="0" x2="0" y2="1" gradientTransform="matrix(55.992188,0,0,56,4.003906,4)"> <stop offset="0" style="stop-color:#ff6666;stop-opacity:1;"/> <stop offset="1" style="stop-color:#d90000;stop-opacity:1;"/> </linearGradient> </defs>
<g id="surface1">
<path style=" stroke:none;fill-rule:nonzero;fill:url(#linear0);fill-opacity:1;" d="M 32.265625 6.175781 C 18.632812 6.175781 7.574219 17.1875 7.574219 30.769531 C 7.574219 44.347656 18.632812 55.359375 32.265625 55.359375 C 45.90625 55.359375 56.964844 44.347656 56.964844 30.769531 C 56.964844 17.1875 45.90625 6.175781 32.265625 6.175781 Z M 32.265625 8.222656 C 42.636719 8.222656 51.382812 15.167969 54.0625 24.640625 C 51.75 29.386719 48.46875 33.65625 44.464844 37.105469 C 42.546875 38.761719 40.445312 40.238281 38.125 41.277344 C 35.808594 42.320312 33.261719 42.90625 30.722656 42.765625 C 28.8125 42.660156 26.929688 42.125 25.257812 41.203125 C 29.6875 38.816406 33.679688 35.632812 36.953125 31.816406 C 39.09375 29.316406 40.972656 26.472656 41.691406 23.261719 C 42.058594 21.652344 42.121094 19.976562 41.777344 18.363281 C 41.445312 16.75 40.695312 15.21875 39.5625 14.019531 C 38.457031 12.84375 37.007812 12.015625 35.445312 11.585938 C 33.890625 11.164062 32.238281 11.128906 30.648438 11.417969 C 27.472656 11.996094 24.640625 13.832031 22.363281 16.113281 C 18.351562 20.136719 15.875 25.8125 16.332031 31.460938 C 16.558594 34.289062 17.507812 37.058594 19.136719 39.382812 C 19.5 39.902344 19.898438 40.394531 20.328125 40.867188 C 17.957031 41.691406 15.496094 42.28125 13.007812 42.613281 C 10.867188 39.167969 9.628906 35.113281 9.628906 30.769531 C 9.628906 18.316406 19.765625 8.222656 32.265625 8.222656 Z M 32.414062 12.78125 C 34.003906 12.78125 35.605469 13.261719 36.878906 14.21875 C 38.019531 15.078125 38.863281 16.296875 39.347656 17.644531 C 39.832031 18.992188 39.949219 20.457031 39.789062 21.871094 C 39.460938 24.707031 38.023438 27.308594 36.285156 29.582031 C 33.214844 33.605469 29.125 36.828125 24.582031 39.078125 C 24.117188 39.308594 23.644531 39.53125 23.167969 39.738281 C 22.179688 38.878906 21.335938 37.855469 20.6875 36.71875 C 19.335938 34.339844 18.890625 31.511719 19.152344 28.792969 C 19.414062 26.070312 20.351562 23.445312 21.613281 21.015625 C 23.070312 18.203125 25.066406 15.535156 27.855469 14.003906 C 29.246094 13.238281 30.816406 12.773438 32.414062 12.78125 Z M 54.703125 27.75 C 54.835938 28.734375 54.910156 29.746094 54.910156 30.769531 C 54.910156 43.21875 44.769531 53.3125 32.265625 53.3125 C 25.246094 53.3125 18.972656 50.128906 14.820312 45.128906 C 17.382812 44.554688 19.886719 43.722656 22.289062 42.660156 C 23.339844 43.457031 24.503906 44.113281 25.734375 44.582031 C 29.285156 45.9375 33.316406 45.742188 36.910156 44.503906 C 40.511719 43.261719 43.699219 41.035156 46.476562 38.449219 C 49.785156 35.367188 52.578125 31.738281 54.703125 27.75 Z M 54.703125 27.75 "/>
</g>
</svg>
