<svg xmlns="http://www.w3.org/2000/svg" xmlns:xlink="http://www.w3.org/1999/xlink" width="64" height="64" viewBox="0 0 64 64" version="1.1">
<defs> <linearGradient id="linear0" gradientUnits="userSpaceOnUse" x1="0" y1="0" x2="0" y2="1" gradientTransform="matrix(55.992188,0,0,56,4.003906,4)"> <stop offset="0" style="stop-color:#ff6666;stop-opacity:1;"/> <stop offset="1" style="stop-color:#d90000;stop-opacity:1;"/> </linearGradient> </defs>
<g id="surface1">
<path style=" stroke:none;fill-rule:evenodd;fill:url(#linear0);fill-opacity:1;" d="M 32.050781 0.0859375 C 29.589844 6.085938 28.113281 10.003906 25.378906 15.824219 C 27.054688 17.59375 29.113281 19.65625 32.453125 21.988281 C 28.863281 20.511719 26.410156 19.035156 24.578125 17.496094 C 21.078125 24.777344 15.59375 35.136719 4.460938 55.050781 C 13.214844 50.015625 19.988281 46.917969 26.308594 45.734375 C 26.035156 44.574219 25.882812 43.3125 25.894531 42.003906 L 25.90625 41.726562 C 26.042969 36.144531 28.960938 31.851562 32.414062 32.144531 C 35.867188 32.4375 38.546875 37.199219 38.410156 42.777344 C 38.382812 43.828125 38.261719 44.839844 38.058594 45.773438 C 44.304688 46.996094 51.019531 50.082031 59.644531 55.050781 C 57.941406 51.925781 56.425781 49.117188 54.972656 46.4375 C 52.6875 44.675781 50.308594 42.382812 45.445312 39.898438 C 48.785156 40.765625 51.175781 41.757812 53.039062 42.875 C 38.296875 15.535156 37.105469 11.90625 32.042969 0.0859375 "/>
</g>
</svg>
