<svg xmlns="http://www.w3.org/2000/svg" xmlns:xlink="http://www.w3.org/1999/xlink" width="64" height="64" viewBox="0 0 64 64" version="1.1">
<defs> <linearGradient id="linear0" gradientUnits="userSpaceOnUse" x1="0" y1="0" x2="0" y2="1" gradientTransform="matrix(55.992188,0,0,56,4.003906,4)"> <stop offset="0" style="stop-color:#ff6666;stop-opacity:1;"/> <stop offset="1" style="stop-color:#d90000;stop-opacity:1;"/> </linearGradient> </defs>
<g id="surface1">
<path style=" stroke:none;fill-rule:nonzero;fill:url(#linear0);fill-opacity:1;" d="M 5.183594 51.554688 C 5.183594 51.375 31.453125 1.601562 32.335938 0.113281 L 32.941406 -0.917969 L 33.605469 0.242188 C 33.976562 0.882812 36.648438 5.960938 39.5625 11.53125 C 42.472656 17.097656 48.335938 28.289062 52.597656 36.402344 C 58.570312 47.789062 60.257812 51.210938 59.980469 51.382812 C 59.78125 51.507812 57.382812 51.609375 54.660156 51.617188 L 49.699219 51.621094 L 48.242188 50.144531 C 44.574219 46.441406 38.160156 43.082031 30.992188 41.109375 L 27.785156 40.226562 L 31.792969 40.027344 C 35.566406 39.84375 39.820312 39.964844 42.140625 40.339844 C 42.921875 40.457031 43.164062 40.40625 43.164062 40.125 C 43.164062 39.421875 33.328125 21.519531 32.941406 21.519531 C 32.664062 21.519531 30.675781 24.960938 22.96875 38.835938 C 19.183594 45.644531 16.0625 51.242188 16.035156 51.277344 C 15.921875 51.414062 5.183594 51.683594 5.183594 51.546875 Z M 5.183594 51.554688 "/>
</g>
</svg>
