<svg xmlns="http://www.w3.org/2000/svg" xmlns:xlink="http://www.w3.org/1999/xlink" width="64" height="64" viewBox="0 0 64 64" version="1.1">
<defs> <linearGradient id="linear0" gradientUnits="userSpaceOnUse" x1="0" y1="0" x2="0" y2="1" gradientTransform="matrix(55.992188,0,0,56,4.003906,4)"> <stop offset="0" style="stop-color:#ff6666;stop-opacity:1;"/> <stop offset="1" style="stop-color:#d90000;stop-opacity:1;"/> </linearGradient> </defs>
<g id="surface1">
<path style=" stroke:none;fill-rule:nonzero;fill:url(#linear0);fill-opacity:1;" d="M 32.050781 61.828125 C 20.929688 61.828125 11.890625 52.476562 11.890625 40.972656 C 11.890625 34.65625 14.621094 28.742188 19.378906 24.757812 C 20.464844 23.847656 22.054688 23.847656 23.140625 24.757812 C 25.695312 26.902344 28.777344 28.035156 32.050781 28.035156 C 35.328125 28.035156 38.410156 26.902344 40.964844 24.757812 C 42.050781 23.847656 43.640625 23.847656 44.726562 24.757812 C 49.484375 28.742188 52.210938 34.648438 52.210938 40.972656 C 52.210938 52.476562 43.164062 61.828125 32.050781 61.828125 M 21.554688 30.808594 C 19.125 33.566406 17.757812 37.167969 17.757812 40.984375 C 17.757812 49.253906 24.171875 55.980469 32.050781 55.980469 C 39.933594 55.980469 46.34375 49.253906 46.34375 40.984375 C 46.34375 37.167969 44.980469 33.566406 42.550781 30.808594 C 39.410156 32.796875 35.765625 33.871094 32.050781 33.871094 C 28.347656 33.871094 24.703125 32.796875 21.554688 30.808594 "/>
<path style=" stroke:none;fill-rule:nonzero;fill:url(#linear0);fill-opacity:1;" d="M 27.242188 24.972656 L 27.234375 24.972656 C 25.246094 24.972656 23.628906 23.363281 23.621094 21.382812 C 23.621094 19.398438 25.242188 17.785156 27.234375 17.78125 C 29.222656 17.78125 30.847656 19.390625 30.847656 21.371094 C 30.847656 23.363281 29.226562 24.972656 27.242188 24.972656 Z M 27.242188 24.972656 "/>
<path style=" stroke:none;fill-rule:nonzero;fill:url(#linear0);fill-opacity:1;" d="M 31.449219 16.886719 C 29.789062 16.886719 28.445312 15.539062 28.4375 13.890625 C 28.4375 13.085938 28.75 12.335938 29.320312 11.769531 C 29.886719 11.203125 30.640625 10.890625 31.449219 10.890625 C 33.105469 10.890625 34.457031 12.234375 34.457031 13.882812 C 34.457031 14.6875 34.144531 15.4375 33.578125 16.003906 C 33.011719 16.570312 32.253906 16.882812 31.453125 16.886719 "/>
<path style=" stroke:none;fill-rule:nonzero;fill:url(#linear0);fill-opacity:1;" d="M 38.070312 22.574219 C 36.246094 22.574219 34.757812 21.101562 34.757812 19.285156 C 34.753906 17.464844 36.242188 15.988281 38.0625 15.988281 C 39.894531 15.988281 41.375 17.464844 41.375 19.277344 C 41.382812 21.101562 39.898438 22.574219 38.070312 22.582031 "/>
<path style=" stroke:none;fill-rule:nonzero;fill:url(#linear0);fill-opacity:1;" d="M 29.945312 7.296875 C 28.613281 7.296875 27.535156 6.222656 27.535156 4.902344 C 27.535156 4.257812 27.785156 3.660156 28.238281 3.207031 C 28.695312 2.753906 29.296875 2.5 29.9375 2.5 C 31.265625 2.5 32.34375 3.574219 32.351562 4.898438 C 32.351562 6.222656 31.273438 7.296875 29.945312 7.296875 "/>
<path style=" stroke:none;fill-rule:nonzero;fill:url(#linear0);fill-opacity:1;" d="M 37.167969 11.492188 C 35.671875 11.492188 34.457031 10.28125 34.457031 8.800781 C 34.457031 7.304688 35.671875 6.097656 37.167969 6.097656 C 38.660156 6.097656 39.871094 7.304688 39.875 8.792969 C 39.875 9.511719 39.597656 10.191406 39.085938 10.699219 C 38.574219 11.207031 37.894531 11.492188 37.171875 11.492188 "/>
</g>
</svg>
