<svg xmlns="http://www.w3.org/2000/svg" xmlns:xlink="http://www.w3.org/1999/xlink" width="64" height="64" viewBox="0 0 64 64" version="1.1">
<defs> <linearGradient id="linear0" gradientUnits="userSpaceOnUse" x1="0" y1="0" x2="0" y2="1" gradientTransform="matrix(55.992188,0,0,56,4.003906,4)"> <stop offset="0" style="stop-color:#ff6666;stop-opacity:1;"/> <stop offset="1" style="stop-color:#d90000;stop-opacity:1;"/> </linearGradient> </defs>
<g id="surface1">
<path style=" stroke:none;fill-rule:nonzero;fill:url(#linear0);fill-opacity:1;" d="M 17.457031 10.226562 C 20.730469 10.226562 21.605469 11.191406 21.605469 14.351562 C 21.605469 18.488281 19.527344 22.621094 19.527344 28.820312 C 19.527344 35.019531 19.527344 45.351562 25.757812 55.683594 C 17.457031 47.421875 9.152344 35.019531 9.152344 22.621094 C 9.152344 16.421875 11.230469 10.226562 17.457031 10.226562 Z M 17.457031 10.226562 "/>
<path style=" stroke:none;fill-rule:nonzero;fill:url(#linear0);fill-opacity:1;" d="M 46.507812 6.089844 C 50.65625 6.089844 52.734375 8.160156 52.734375 10.226562 C 52.734375 16.429688 38.207031 18.492188 34.054688 20.558594 C 29.902344 22.628906 21.605469 26.761719 20.566406 39.15625 C 19.527344 22.628906 27.832031 6.097656 46.507812 6.097656 Z M 46.507812 6.089844 "/>
<path style=" stroke:none;fill-rule:nonzero;fill:url(#linear0);fill-opacity:1;" d="M 21.605469 37.914062 C 21.605469 33.78125 25.757812 28.820312 34.054688 28.820312 C 46.507812 28.820312 56.882812 37.085938 63.109375 45.355469 C 56.628906 42.070312 48.582031 39.152344 42.359375 39.152344 C 31.980469 39.152344 28.839844 41.222656 25.757812 41.222656 C 23.679688 41.222656 21.605469 41.222656 21.605469 37.914062 Z M 21.605469 37.914062 "/>
</g>
</svg>
