<svg xmlns="http://www.w3.org/2000/svg" xmlns:xlink="http://www.w3.org/1999/xlink" width="64" height="64" viewBox="0 0 64 64" version="1.1">
<defs> <linearGradient id="linear0" gradientUnits="userSpaceOnUse" x1="0" y1="0" x2="0" y2="1" gradientTransform="matrix(55.992188,0,0,56,4.003906,4)"> <stop offset="0" style="stop-color:#ff6666;stop-opacity:1;"/> <stop offset="1" style="stop-color:#d90000;stop-opacity:1;"/> </linearGradient> </defs>
<g id="surface1">
<path style=" stroke:none;fill-rule:nonzero;fill:url(#linear0);fill-opacity:1;" d="M 32.363281 0.925781 C 20.222656 0.925781 2.644531 26.941406 2.644531 41.398438 C 2.644531 58.742188 23.445312 58.742188 32.363281 58.742188 C 41.277344 58.742188 62.085938 58.742188 62.085938 41.398438 C 62.085938 26.941406 44.503906 0.925781 32.363281 0.925781 Z M 32.78125 15.246094 L 34.441406 15.246094 C 28.375 30.535156 19.238281 34.476562 15.085938 37.816406 C 13.960938 34.078125 14.484375 28.066406 16.1875 25.160156 C 21.914062 23.351562 27.757812 20.054688 32.78125 15.246094 Z M 37.757812 15.796875 C 41.621094 24.402344 42.097656 36.964844 36.097656 51.035156 C 30.703125 51.734375 26.019531 51.25 22.828125 48.285156 C 31.261719 40.550781 34.769531 28.40625 37.757812 15.796875 Z M 42.734375 17.996094 C 54.335938 27.671875 50.761719 35.980469 48.265625 43.875 C 47.945312 35.429688 47.226562 26.4375 42.734375 17.996094 Z M 42.734375 17.996094 "/>
</g>
</svg>
