<svg xmlns="http://www.w3.org/2000/svg" xmlns:xlink="http://www.w3.org/1999/xlink" width="64" height="64" viewBox="0 0 64 64" version="1.1">
<defs> <linearGradient id="linear0" gradientUnits="userSpaceOnUse" x1="0" y1="0" x2="0" y2="1" gradientTransform="matrix(55.992188,0,0,56,4.003906,4)"> <stop offset="0" style="stop-color:#ff6666;stop-opacity:1;"/> <stop offset="1" style="stop-color:#d90000;stop-opacity:1;"/> </linearGradient> </defs>
<g id="surface1">
<path style=" stroke:none;fill-rule:evenodd;fill:url(#linear0);fill-opacity:1;" d="M 33.332031 5.78125 C 27.25 5.972656 49.535156 35.703125 32.375 33.808594 C 46.683594 37.636719 49.960938 19.777344 47.042969 11.035156 C 44.148438 2.378906 42.640625 7.78125 34.007812 5.859375 C 33.753906 5.800781 33.527344 5.773438 33.332031 5.78125 M 16.28125 9.925781 C 6.871094 9.914062 11.71875 12.96875 7.160156 20.308594 C 2.808594 27.320312 41.546875 14.761719 34.140625 30.449219 C 42.335938 18.476562 25.773438 9.9375 16.28125 9.925781 M 22.902344 23.34375 C 15.371094 23.328125 7.796875 31.597656 5.675781 37.875 C 2.757812 46.519531 7.261719 43.007812 13.070312 49.46875 C 18.625 55.636719 18.246094 16.132812 31.386719 27.789062 C 28.785156 24.628906 25.84375 23.355469 22.902344 23.34375 M 55.511719 24.746094 C 50.835938 24.398438 31.6875 48.273438 28.53125 33.21875 C 29.183594 47.566406 47.765625 45.0625 55.453125 39.671875 C 63.074219 34.332031 57.300781 34.621094 56.519531 26.09375 C 56.441406 25.199219 56.082031 24.792969 55.511719 24.746094 M 27.917969 29.503906 C 14.007812 34.539062 22.214844 50.851562 29.890625 56.257812 C 37.496094 61.613281 35.429688 56.390625 43.578125 53.042969 C 51.363281 49.847656 12.394531 37.988281 27.917969 29.503906 "/>
</g>
</svg>
