<svg xmlns="http://www.w3.org/2000/svg" xmlns:xlink="http://www.w3.org/1999/xlink" width="64" height="64" viewBox="0 0 64 64" version="1.1">
<defs>
<linearGradient id="linear0" gradientUnits="userSpaceOnUse" x1="0" y1="0" x2="0" y2="1" gradientTransform="matrix(56,0,0,51.695312,4,6.152344)">
<stop offset="0" style="stop-color:#ff6666;stop-opacity:1;"/>
<stop offset="1" style="stop-color:#d90000;stop-opacity:1;"/>
</linearGradient>
</defs>
<g id="surface1">
<path style=" stroke:none;fill-rule:nonzero;fill:url(#linear0);" d="M 31.78125 9.085938 C 25.214844 9.082031 18.917969 11.742188 14.273438 16.476562 C 9.632812 21.210938 7.027344 27.632812 7.03125 34.328125 C 7.03125 37.070312 7.492188 39.800781 8.367188 42.402344 C 11.015625 42.367188 12.980469 41.996094 14.355469 41.3125 C 16.738281 40.125 17.203125 43.960938 19.398438 43.78125 C 21.871094 43.570312 19.484375 41.914062 18.566406 40.808594 C 17.371094 39.378906 16.933594 36.816406 19.5625 36.578125 C 21.558594 36.402344 22.75 40.042969 23.425781 39.558594 C 25.179688 38.296875 26.074219 40.984375 27.375 41.996094 C 29.089844 43.335938 31.375 43.660156 33.214844 42.84375 C 35.082031 42.015625 35.929688 43.636719 38.140625 42.683594 C 39.777344 41.984375 39.835938 43.722656 42.949219 42.441406 C 42.859375 43.941406 42.335938 45.390625 42.054688 46.796875 C 41.714844 48.476562 39.039062 52.128906 37.691406 53.757812 C 39.21875 53.382812 40.449219 52.835938 40.652344 52.449219 C 42.222656 49.464844 44.871094 50.710938 44.882812 48.957031 C 44.882812 47.785156 47.792969 47.785156 48.28125 47.785156 C 49.167969 47.785156 51.003906 47.796875 52.515625 48.058594 C 57.46875 40.304688 57.859375 30.40625 53.53125 22.273438 C 49.207031 14.140625 40.855469 9.082031 31.78125 9.09375 Z M 37.132812 45.703125 C 36.816406 46.386719 35.9375 46.992188 35.378906 46.410156 C 34.753906 45.757812 32.945312 45.6875 33.039062 46.730469 C 33.109375 47.527344 33.429688 46.738281 34.320312 47.394531 C 35.664062 48.378906 38.183594 47.75 37.128906 45.714844 Z M 55.707031 46.101562 C 55.25 46.101562 54.878906 46.480469 54.878906 46.945312 C 54.878906 47.410156 55.25 47.785156 55.707031 47.785156 C 56.164062 47.785156 56.53125 47.410156 56.53125 46.945312 C 56.53125 46.480469 56.164062 46.101562 55.707031 46.101562 Z M 55.707031 46.269531 C 56.070312 46.269531 56.367188 46.574219 56.367188 46.945312 C 56.367188 47.316406 56.070312 47.617188 55.707031 47.617188 C 55.339844 47.617188 55.046875 47.316406 55.046875 46.945312 C 55.046875 46.574219 55.339844 46.269531 55.707031 46.269531 Z M 55.378906 46.519531 L 55.378906 47.367188 L 55.527344 47.367188 L 55.527344 47.035156 L 55.664062 47.035156 L 55.863281 47.363281 L 56.03125 47.363281 L 55.824219 47.011719 C 55.949219 46.964844 56.011719 46.890625 56.011719 46.769531 C 56.011719 46.605469 55.894531 46.519531 55.660156 46.519531 Z M 55.527344 46.65625 L 55.636719 46.65625 C 55.753906 46.65625 55.855469 46.675781 55.855469 46.78125 C 55.855469 46.890625 55.738281 46.898438 55.601562 46.898438 L 55.527344 46.898438 Z M 55.527344 46.65625 "/>
<path style=" stroke:none;fill-rule:nonzero;fill:#aaaaaa;fill-opacity:1;" d="M 45.375 27.589844 C 45.285156 28.671875 43.847656 30.585938 43.15625 29.921875 C 44.589844 28.015625 43.988281 25.484375 43.21875 23.410156 C 42.160156 20.558594 41.347656 17.335938 39.082031 15.28125 C 36.992188 13.378906 33.941406 14.363281 31.449219 14.996094 C 28.789062 15.671875 25.753906 13.394531 23.304688 15.128906 C 21.277344 16.5625 21.585938 19.460938 20.898438 21.683594 C 20.1875 23.960938 22.671875 25.472656 24.511719 26.117188 C 26.847656 26.941406 29.636719 26.675781 31.597656 28.292969 C 32.679688 29.191406 33.429688 30.992188 33.429688 32.679688 C 28.480469 32.679688 23.429688 30.632812 20.300781 27.523438 C 19.253906 26.445312 20.582031 24.265625 18.242188 24.265625 C 16.269531 24.265625 14.308594 24.15625 12.855469 25.390625 C 11.367188 26.652344 11.957031 29.074219 13.285156 30.390625 C 17.621094 34.691406 23.097656 37.480469 28.71875 39.367188 C 34.5625 41.328125 41.191406 41.980469 46.953125 39.382812 C 49.589844 38.191406 52.121094 35.34375 51.480469 32.203125 C 50.910156 29.367188 47.84375 28.175781 45.375 27.589844 Z M 32.554688 16.28125 C 34.128906 15.207031 36.925781 14.671875 38.140625 16.152344 C 39.574219 17.898438 35.703125 18.800781 34.503906 17.914062 C 35.179688 17.746094 36.617188 16.394531 34.972656 16.234375 C 34.125 16.128906 33.265625 16.234375 32.554688 16.289062 Z M 29.566406 21.027344 C 27.578125 20.796875 25.835938 23.152344 23.976562 21.269531 C 22.910156 20.195312 23.054688 17.667969 24.796875 19.082031 C 26.527344 20.484375 29.535156 18.03125 30.824219 20.121094 C 31.304688 20.882812 30.191406 21.101562 29.566406 21.027344 Z M 29.566406 21.027344 "/>
</g>
</svg>
