<svg xmlns="http://www.w3.org/2000/svg" xmlns:xlink="http://www.w3.org/1999/xlink" width="64px" height="64px" viewBox="0 0 64 64" version="1.1">
<defs>
<linearGradient id="linear0" gradientUnits="userSpaceOnUse" x1="7.00001" y1="109.5" x2="92.412598" y2="7.43474" gradientTransform="matrix(0.432432,0,0,0.432432,4.324324,4.324324)">
<stop offset="0" style="stop-color:#ff6666;stop-opacity:1;"/>
<stop offset="1" style="stop-color:#d90000;stop-opacity:1;"/>
</linearGradient>
</defs>
<g id="surface1">
<path style=" stroke:none;fill-rule:evenodd;fill:url(#linear0);" d="M 11.675781 9.945312 L 52.417969 9.945312 C 56.242188 9.945312 59.335938 13.039062 59.335938 16.863281 L 59.335938 47.269531 C 59.335938 51.09375 56.242188 54.1875 52.417969 54.1875 L 11.675781 54.1875 C 7.851562 54.1875 4.757812 51.09375 4.757812 47.269531 L 4.757812 16.863281 C 4.757812 13.039062 7.851562 9.945312 11.675781 9.945312 Z M 11.675781 15.136719 C 10.714844 15.136719 9.945312 15.90625 9.945312 16.863281 L 9.945312 47.269531 C 9.945312 48.230469 10.714844 49 11.675781 49 L 19.40625 49 C 19.878906 49 20.269531 48.621094 20.269531 48.136719 L 20.269531 47.230469 C 20.269531 46.757812 19.878906 46.363281 19.40625 46.363281 L 16.40625 46.363281 C 15.230469 46.363281 14.269531 45.40625 14.269531 44.230469 C 14.269531 43.054688 15.230469 42.09375 16.40625 42.09375 L 46.835938 42.09375 C 48.011719 42.09375 48.972656 43.054688 48.972656 44.230469 C 48.972656 45.40625 48.011719 46.363281 46.835938 46.363281 L 45.121094 46.363281 C 44.648438 46.363281 44.257812 46.757812 44.257812 47.230469 L 44.257812 48.136719 C 44.257812 48.621094 44.648438 49 45.121094 49 L 52.417969 49 C 53.378906 49 54.148438 48.230469 54.148438 47.269531 L 54.148438 16.863281 C 54.148438 15.90625 53.378906 15.136719 52.417969 15.136719 Z M 39.121094 47.230469 C 39.121094 46.757812 38.730469 46.363281 38.257812 46.363281 L 35.703125 46.363281 C 35.214844 46.363281 34.835938 46.757812 34.835938 47.230469 L 34.835938 48.136719 C 34.835938 48.621094 35.214844 49 35.703125 49 L 38.257812 49 C 38.730469 49 39.121094 48.621094 39.121094 48.136719 Z M 29.6875 47.230469 C 29.6875 46.757812 29.296875 46.363281 28.824219 46.363281 L 26.269531 46.363281 C 25.796875 46.363281 25.40625 46.757812 25.40625 47.230469 L 25.40625 48.136719 C 25.40625 48.621094 25.796875 49 26.269531 49 L 28.824219 49 C 29.296875 49 29.6875 48.621094 29.6875 48.136719 Z M 29.6875 47.230469 "/>
</g>
</svg>
