<svg xmlns="http://www.w3.org/2000/svg" xmlns:xlink="http://www.w3.org/1999/xlink" width="64" height="64" viewBox="0 0 64 64" version="1.1">
<defs>
<linearGradient id="linear0" gradientUnits="userSpaceOnUse" x1="0" y1="0" x2="0" y2="1" gradientTransform="matrix(57.242187,0,0,64,3.378906,0)">
<stop offset="0" style="stop-color:#ff6666;stop-opacity:1;"/>
<stop offset="1" style="stop-color:#d90000;stop-opacity:1;"/>
</linearGradient>
</defs>
<g id="surface1">
<path style=" stroke:none;fill-rule:nonzero;fill:url(#linear0);" d="M 32 0 C 28.042969 0 24.84375 3.179688 24.84375 7.105469 C 24.84375 10.15625 27.59375 12.675781 30.316406 13.683594 C 30.320312 14.171875 30.3125 14.664062 30.316406 15.15625 L 17.632812 15.15625 C 17.195312 15.15625 16.84375 15.507812 16.84375 15.945312 L 16.84375 17.734375 C 16.84375 18.175781 17.195312 18.523438 17.632812 18.523438 L 30.316406 18.523438 C 30.375 29.996094 30.390625 41.46875 30.316406 52.941406 C 30.332031 53.222656 29.390625 53.511719 29.160156 53.679688 C 28.507812 54.164062 27.75 54.339844 26.949219 54.363281 C 25.671875 54.355469 24.851562 54.011719 23.632812 53.679688 C 20.878906 52.878906 18.265625 51.753906 15.738281 50.414062 C 14.675781 49.832031 13.632812 49.28125 12.6875 48.519531 C 12.277344 48.175781 11.800781 47.671875 11.84375 47.101562 C 11.898438 46.667969 12.101562 46.230469 12.582031 46.152344 C 13.011719 46.089844 13.410156 46.265625 13.792969 46.414062 C 14.121094 46.5625 14.371094 46.214844 14.316406 45.941406 C 14.265625 45.226562 14.007812 44.5625 13.632812 43.941406 C 12.855469 42.671875 11.664062 41.703125 10.421875 40.890625 C 9.097656 40.050781 7.683594 39.128906 6.84375 37.785156 C 6.675781 37.539062 6.480469 37.125 6.109375 37.261719 C 5.585938 37.425781 5.308594 37.925781 5.054688 38.363281 C 4.339844 39.71875 3.957031 41.191406 3.632812 42.679688 C 3.367188 43.863281 3.332031 45.105469 3.425781 46.3125 C 3.519531 47.515625 3.617188 48.710938 4.109375 49.835938 C 4.417969 50.578125 4.984375 51.203125 5.527344 51.785156 C 5.875 51.421875 6.175781 51.035156 6.527344 50.679688 C 6.988281 50.222656 7.59375 49.90625 8.265625 49.996094 C 9.179688 50.109375 10.019531 50.679688 10.738281 51.207031 C 11.753906 51.992188 12.707031 52.816406 13.738281 53.574219 C 15.371094 54.8125 17.152344 55.695312 19 56.574219 C 20.542969 57.285156 22.136719 57.996094 23.738281 58.574219 C 24.023438 58.703125 24.339844 58.671875 24.632812 58.785156 C 27.511719 59.976562 29.957031 61.359375 31.949219 63.839844 C 31.953125 63.871094 31.945312 63.96875 31.949219 64 C 31.972656 63.96875 31.980469 63.96875 32 63.933594 C 32.023438 63.96875 32.03125 63.96875 32.050781 64 C 32.066406 63.933594 32.039062 63.855469 32.050781 63.789062 C 34.039062 61.335938 36.503906 59.972656 39.367188 58.789062 C 39.660156 58.691406 39.976562 58.707031 40.261719 58.578125 C 41.863281 58 43.457031 57.289062 45 56.578125 C 46.847656 55.699219 48.628906 54.816406 50.261719 53.578125 C 51.292969 52.820312 52.25 51.992188 53.261719 51.210938 C 53.980469 50.683594 54.820312 50.117188 55.734375 50 C 56.40625 49.921875 57.011719 50.226562 57.472656 50.683594 C 57.824219 51.039062 58.125 51.425781 58.472656 51.789062 C 59.015625 51.207031 59.582031 50.582031 59.890625 49.839844 C 60.382812 48.714844 60.480469 47.523438 60.578125 46.316406 C 60.667969 45.109375 60.632812 43.867188 60.367188 42.683594 C 60.042969 41.199219 59.660156 39.726562 58.945312 38.367188 C 58.691406 37.933594 58.414062 37.433594 57.890625 37.265625 C 57.519531 37.136719 57.324219 37.542969 57.15625 37.789062 C 56.316406 39.136719 54.902344 40.054688 53.578125 40.894531 C 52.335938 41.707031 51.144531 42.675781 50.367188 43.949219 C 49.992188 44.566406 49.734375 45.230469 49.683594 45.945312 C 49.628906 46.21875 49.878906 46.5625 50.207031 46.417969 C 50.589844 46.273438 50.988281 46.085938 51.417969 46.15625 C 51.898438 46.222656 52.101562 46.671875 52.15625 47.105469 C 52.199219 47.675781 51.722656 48.179688 51.3125 48.527344 C 50.367188 49.285156 49.324219 49.835938 48.261719 50.421875 C 45.734375 51.761719 43.125 52.882812 40.367188 53.683594 C 39.148438 54.019531 38.328125 54.359375 37.050781 54.367188 C 36.25 54.335938 35.496094 54.167969 34.839844 53.683594 C 34.609375 53.515625 33.664062 53.226562 33.683594 52.945312 C 33.683594 30.839844 33.683594 26.3125 33.683594 18.527344 L 46.367188 18.527344 C 46.804688 18.527344 47.15625 18.175781 47.15625 17.738281 L 47.15625 15.949219 C 47.15625 15.507812 46.808594 15.160156 46.367188 15.160156 L 33.683594 15.160156 C 33.683594 14.804688 33.683594 14.058594 33.683594 13.6875 C 36.40625 12.679688 39.15625 10.160156 39.15625 7.109375 C 39.15625 3.183594 35.957031 0.00390625 32 0.00390625 Z M 31.84375 3.472656 C 33.765625 3.472656 35.371094 4.988281 35.367188 6.894531 C 35.371094 8.800781 33.765625 10.367188 31.84375 10.367188 C 29.921875 10.367188 28.367188 8.800781 28.371094 6.894531 C 28.367188 4.988281 29.921875 3.472656 31.84375 3.472656 Z M 31.84375 3.472656 "/>
</g>
</svg>
