<svg xmlns="http://www.w3.org/2000/svg" xmlns:xlink="http://www.w3.org/1999/xlink" width="64" height="64" viewBox="0 0 64 64" version="1.1">
<defs> <linearGradient id="linear0" gradientUnits="userSpaceOnUse" x1="0" y1="0" x2="0" y2="1" gradientTransform="matrix(55.992188,0,0,56,4.003906,4)"> <stop offset="0" style="stop-color:#ff6666;stop-opacity:1;"/> <stop offset="1" style="stop-color:#d90000;stop-opacity:1;"/> </linearGradient> </defs>
<g id="surface1">
<path style=" stroke:none;fill-rule:nonzero;fill:url(#linear0);fill-opacity:1;" d="M 27.792969 4.445312 C 26.335938 4.445312 26.585938 5.40625 26.585938 5.40625 L 26.585938 25.15625 L 20.230469 25.15625 C 18.375 25.15625 20.089844 26.765625 20.089844 26.765625 L 31.359375 40.328125 C 31.359375 40.328125 32.28125 41.410156 33.242188 40.441406 C 34.582031 39.113281 44.175781 26.433594 44.175781 26.433594 C 44.175781 26.433594 45.871094 24.746094 43.617188 24.746094 L 37.753906 24.746094 L 37.753906 5.257812 C 37.753906 5.257812 37.773438 4.445312 36.730469 4.445312 L 27.792969 4.445312 M 12.070312 43.097656 C 8.800781 43.097656 6.257812 45.742188 6.257812 48.992188 L 6.257812 49.867188 C 6.257812 53.125 8.800781 55.664062 12.070312 55.664062 L 52.085938 55.664062 C 55.355469 55.664062 57.90625 53.125 57.90625 49.867188 L 57.90625 48.992188 C 57.90625 45.742188 55.355469 43.097656 52.085938 43.097656 Z M 49.230469 45.34375 C 51.457031 45.34375 53.285156 47.164062 53.285156 49.382812 C 53.285156 51.597656 51.457031 53.414062 49.230469 53.414062 C 47.003906 53.414062 45.1875 51.597656 45.1875 49.382812 C 45.1875 47.164062 47.003906 45.34375 49.230469 45.34375 "/>
</g>
</svg>
