<svg xmlns="http://www.w3.org/2000/svg" xmlns:xlink="http://www.w3.org/1999/xlink" width="64" height="64" viewBox="0 0 64 64" version="1.1">
<defs> <linearGradient id="linear0" gradientUnits="userSpaceOnUse" x1="0" y1="0" x2="0" y2="1" gradientTransform="matrix(55.992188,0,0,56,4.003906,4)"> <stop offset="0" style="stop-color:#ff6666;stop-opacity:1;"/> <stop offset="1" style="stop-color:#d90000;stop-opacity:1;"/> </linearGradient> </defs>
<g id="surface1">
<path style=" stroke:none;fill-rule:nonzero;fill:url(#linear0);fill-opacity:1;" d="M 10.363281 8.207031 C 8.914062 8.207031 7.738281 9.375 7.738281 10.820312 L 7.738281 47.378906 C 7.738281 48.824219 8.914062 49.992188 10.363281 49.992188 L 39.292969 49.992188 C 40.214844 49.992188 41.039062 49.484375 41.507812 48.765625 L 39.949219 46.886719 L 39.535156 46.402344 C 37.65625 47.265625 35.601562 47.867188 33.390625 47.867188 C 29.277344 47.867188 25.519531 46.171875 22.820312 43.460938 L 11.675781 43.460938 L 11.675781 40.519531 L 20.527344 40.519531 C 19.613281 38.960938 19 37.160156 18.722656 35.300781 L 11.675781 35.300781 L 11.675781 32.28125 L 18.640625 32.28125 C 18.753906 30.425781 19.203125 28.667969 19.953125 27.054688 L 11.675781 27.054688 L 11.675781 24.121094 L 21.675781 24.121094 C 23.714844 21.519531 26.636719 19.613281 29.953125 18.816406 L 29.953125 8.207031 Z M 32.574219 8.207031 L 32.574219 17.589844 L 41.914062 17.589844 Z M 11.675781 15.960938 L 24.871094 15.960938 L 24.871094 18.898438 L 11.675781 18.898438 Z M 33.945312 21.039062 C 26.867188 21.039062 21.117188 26.753906 21.117188 33.808594 C 21.117188 40.859375 26.867188 46.578125 33.945312 46.578125 C 41.027344 46.578125 46.769531 40.859375 46.769531 33.808594 C 46.769531 26.753906 41.027344 21.039062 33.945312 21.039062 Z M 33.945312 24.234375 C 39.246094 24.234375 43.5625 28.527344 43.5625 33.808594 C 43.5625 39.089844 39.25 43.382812 33.945312 43.382812 C 28.644531 43.382812 24.328125 39.089844 24.328125 33.808594 C 24.328125 28.527344 28.644531 24.234375 33.945312 24.234375 Z M 46.433594 41.921875 C 45.289062 43.683594 43.789062 45.167969 42.027344 46.3125 L 48.773438 54.359375 C 49.523438 55.253906 50.875 55.316406 51.710938 54.488281 L 54.714844 51.496094 C 55.542969 50.671875 55.488281 49.386719 54.585938 48.640625 Z M 46.433594 41.921875 "/>
</g>
</svg>
