<svg xmlns="http://www.w3.org/2000/svg" xmlns:xlink="http://www.w3.org/1999/xlink" width="64" height="64" viewBox="0 0 64 64" version="1.1">
<defs> <linearGradient id="linear0" gradientUnits="userSpaceOnUse" x1="0" y1="0" x2="0" y2="1" gradientTransform="matrix(55.992188,0,0,56,4.003906,4)"> <stop offset="0" style="stop-color:#ff6666;stop-opacity:1;"/> <stop offset="1" style="stop-color:#d90000;stop-opacity:1;"/> </linearGradient> </defs>
<g id="surface1">
<path style=" stroke:none;fill-rule:nonzero;fill:url(#linear0);fill-opacity:1;" d="M 32.054688 1.757812 C 15.1875 1.757812 1.515625 15.375 1.515625 32.171875 C 1.515625 48.96875 15.1875 62.589844 32.054688 62.589844 C 48.921875 62.589844 62.597656 48.96875 62.597656 32.171875 C 62.597656 15.375 48.921875 1.757812 32.054688 1.757812 M 32.054688 8.410156 C 45.265625 8.410156 55.917969 19.019531 55.917969 32.171875 C 55.917969 45.328125 45.265625 55.9375 32.054688 55.9375 C 18.847656 55.9375 8.191406 45.332031 8.191406 32.171875 C 8.191406 19.019531 18.847656 8.410156 32.054688 8.410156 "/>
<path style=" stroke:none;fill-rule:nonzero;fill:url(#linear0);fill-opacity:1;" d="M 32.054688 12.222656 C 30.316406 12.222656 28.921875 13.613281 28.921875 15.34375 L 28.921875 27.675781 C 29.8125 27.0625 30.890625 26.699219 32.054688 26.699219 C 33.21875 26.699219 34.300781 27.0625 35.191406 27.675781 L 35.191406 15.34375 C 35.191406 13.613281 33.792969 12.222656 32.054688 12.222656 "/>
<path style=" stroke:none;fill-rule:nonzero;fill:url(#linear0);fill-opacity:1;" d="M 35.289062 32.171875 C 35.289062 33.949219 33.839844 35.390625 32.054688 35.390625 C 30.273438 35.390625 28.824219 33.949219 28.824219 32.171875 C 28.824219 30.398438 30.273438 28.957031 32.054688 28.957031 C 33.839844 28.957031 35.289062 30.398438 35.289062 32.171875 "/>
<path style=" stroke:none;fill-rule:nonzero;fill:url(#linear0);fill-opacity:1;" d="M 37.140625 30.09375 C 37.40625 30.730469 37.554688 31.4375 37.554688 32.171875 C 37.554688 32.910156 37.40625 33.617188 37.140625 34.253906 L 51.335938 34.253906 C 52.496094 34.253906 53.433594 33.328125 53.433594 32.171875 C 53.433594 31.019531 52.496094 30.09375 51.335938 30.09375 L 37.140625 30.09375 "/>
</g>
</svg>
