<svg xmlns="http://www.w3.org/2000/svg" xmlns:xlink="http://www.w3.org/1999/xlink" width="64" height="64" viewBox="0 0 64 64" version="1.1">
<defs>
<linearGradient id="linear0" gradientUnits="userSpaceOnUse" x1="0" y1="0" x2="0" y2="1" gradientTransform="matrix(56,0,0,64,4,0)">
<stop offset="0" style="stop-color:#ff6666;stop-opacity:1;"/>
<stop offset="1" style="stop-color:#d90000;stop-opacity:1;"/>
</linearGradient>
</defs>
<g id="surface1">
<path style=" stroke:none;fill-rule:nonzero;fill:url(#linear0);" d="M 4 0 L 4 64 L 43 64 L 60 47 L 60 0 Z M 8 4 L 56 4 L 56 44 L 40 44 L 40 60 L 8 60 Z M 16 12 L 16 16 L 48 16 L 48 12 Z M 16 20 L 16 24 L 48 24 L 48 20 Z M 16 28 L 16 32 L 48 32 L 48 28 Z M 16 36 L 16 40 L 28 40 L 28 36 Z M 16 36 "/>
</g>
</svg>
