<svg xmlns="http://www.w3.org/2000/svg" xmlns:xlink="http://www.w3.org/1999/xlink" width="64" height="64" viewBox="0 0 64 64" version="1.1">
<defs>
<linearGradient id="linear0" gradientUnits="userSpaceOnUse" x1="0" y1="0" x2="0" y2="1" gradientTransform="matrix(64,0,0,63.175781,0,0.410156)">
<stop offset="0" style="stop-color:#ff6666;stop-opacity:1;"/>
<stop offset="1" style="stop-color:#d90000;stop-opacity:1;"/>
</linearGradient>
</defs>
<g id="surface1">
<path style=" stroke:none;fill-rule:nonzero;fill:url(#linear0);" d="M 60.265625 63.585938 C 65 33.175781 52.285156 23.230469 54.652344 19.15625 C 56.378906 16.199219 64 17.523438 64 17.523438 C 58.050781 12.550781 52.742188 12.332031 47.636719 13.628906 C 41.417969 4.222656 15.976562 -8.1875 5.527344 8.953125 C 5.527344 8.953125 -0.460938 10.929688 0.0273438 13.132812 C 0.507812 15.285156 9.496094 12.113281 22.25 18.140625 C 21.496094 26.941406 25.398438 32.566406 32.582031 35.945312 C 30.617188 32.441406 27.828125 29.207031 30.660156 23.507812 C 39.714844 29.433594 44.339844 37.070312 48.246094 44.730469 C 47.371094 36.808594 39.519531 17.132812 14.621094 11.402344 C 34.414062 -4.761719 63.089844 31.152344 60.265625 63.585938 Z M 60.265625 63.585938 "/>
</g>
</svg>
