<svg xmlns="http://www.w3.org/2000/svg" xmlns:xlink="http://www.w3.org/1999/xlink" width="64" height="64" viewBox="0 0 64 64" version="1.1">
<defs>
<linearGradient id="linear0" gradientUnits="userSpaceOnUse" x1="0" y1="0" x2="0" y2="1" gradientTransform="matrix(64,0,0,30.589844,0,16.703125)">
<stop offset="0" style="stop-color:#ff6666;stop-opacity:1;"/>
<stop offset="1" style="stop-color:#d90000;stop-opacity:1;"/>
</linearGradient>
</defs>
<g id="surface1">
<path style=" stroke:none;fill-rule:nonzero;fill:url(#linear0);" d="M 64 16.703125 L 61.273438 16.792969 C 59.277344 16.777344 57.027344 16.769531 57.007812 16.777344 L 55.265625 21.941406 C 55.265625 21.941406 53.207031 16.703125 52.792969 16.804688 L 52.460938 16.785156 C 52.28125 16.773438 51.421875 16.765625 50.234375 16.765625 L 48.0625 16.765625 L 48.0625 35.769531 L 47.890625 35.898438 C 47.738281 36.007812 47.714844 36.042969 47.746094 36.078125 L 53.164062 39.96875 L 53.179688 36.183594 C 53.195312 32.703125 53.199219 32.421875 53.246094 32.574219 L 55.265625 37.878906 L 57.078125 32.367188 L 57.117188 42.382812 L 62.1875 45.980469 L 62.203125 32.019531 L 62.21875 18.597656 Z M 18.851562 16.707031 L 18.039062 17.320312 L 17.222656 17.933594 L 17.222656 26.808594 L 17.21875 35.6875 L 25.53125 41.894531 L 30.070312 38.488281 L 30.066406 28.210938 L 30.054688 17.933594 L 29.257812 17.320312 L 28.449219 16.707031 Z M 34.269531 16.707031 L 32.660156 17.933594 L 32.644531 38.488281 L 37.1875 41.894531 L 45.496094 35.6875 L 45.492188 26.808594 L 45.492188 17.933594 L 44.675781 17.320312 L 43.863281 16.707031 Z M 0 16.71875 L 1.84375 18.539062 L 1.84375 31.457031 C 1.84375 38.558594 1.855469 44.859375 1.867188 45.460938 L 1.867188 45.464844 C 1.882812 46.230469 1.898438 47.308594 1.929688 47.292969 C 2.015625 47.238281 15.125 36.617188 15.140625 36.59375 C 15.148438 36.574219 15.0625 36.496094 14.953125 36.414062 L 14.742188 36.269531 L 14.742188 17.933594 L 13.96875 17.335938 L 13.1875 16.730469 L 6.679688 16.71875 C 2.429688 16.714844 -0.0195312 16.699219 0 16.71875 Z M 25.296875 20.589844 C 25.519531 20.566406 25.558594 20.570312 25.875 20.726562 L 26.210938 20.894531 L 26.21875 28.746094 C 26.21875 32.320312 26.199219 36.859375 26.175781 36.855469 L 21.085938 33.03125 L 21.085938 27.554688 L 21.074219 20.890625 L 21.390625 20.746094 L 21.703125 20.605469 L 23.378906 20.605469 C 24.300781 20.605469 25.164062 20.597656 25.296875 20.589844 Z M 37.425781 20.589844 C 37.554688 20.597656 38.414062 20.605469 39.339844 20.605469 L 41.015625 20.605469 L 41.324219 20.746094 L 41.640625 20.890625 L 41.632812 27.554688 L 41.632812 33.03125 L 36.539062 36.855469 C 36.515625 36.859375 36.5 32.320312 36.5 28.746094 L 36.507812 20.894531 L 36.839844 20.726562 C 37.160156 20.570312 37.199219 20.566406 37.425781 20.589844 Z M 10.207031 20.652344 L 10.515625 20.792969 L 10.820312 20.929688 L 10.820312 34.5625 L 5.683594 38.464844 C 5.621094 38.484375 5.617188 31.847656 5.628906 26.59375 L 5.640625 20.667969 L 8.164062 20.660156 Z M 10.207031 20.652344 "/>
</g>
</svg>
