<svg xmlns="http://www.w3.org/2000/svg" xmlns:xlink="http://www.w3.org/1999/xlink" width="64" height="64" viewBox="0 0 64 64" version="1.1">
<defs>
<linearGradient id="linear0" gradientUnits="userSpaceOnUse" x1="0" y1="0" x2="0" y2="1" gradientTransform="matrix(64,0,0,8,-0.125,50)">
<stop offset="0" style="stop-color:#ff6666;stop-opacity:1;"/>
<stop offset="1" style="stop-color:#d90000;stop-opacity:1;"/>
</linearGradient>
<linearGradient id="linear1" gradientUnits="userSpaceOnUse" x1="0" y1="0" x2="0" y2="1" gradientTransform="matrix(59.746094,0,0,35.71875,3.640625,5.601562)">
<stop offset="0" style="stop-color:#ff6666;stop-opacity:1;"/>
<stop offset="1" style="stop-color:#d90000;stop-opacity:1;"/>
</linearGradient>
</defs>
<g id="surface1">
<path style=" stroke:none;fill-rule:evenodd;fill:url(#linear0);" d="M -0.125 50 L 63.875 50 L 63.875 58 L -0.125 58 Z M -0.125 50 "/>
<path style=" stroke:none;fill-rule:evenodd;fill:url(#linear1);" d="M 3.640625 40.726562 L 3.640625 6.191406 L 14.296875 6.191406 C 16.632812 6.191406 18.753906 6.519531 20.660156 7.179688 C 22.570312 7.835938 24.148438 8.707031 25.394531 9.792969 C 26.648438 10.878906 27.691406 12.167969 28.53125 13.667969 C 29.371094 15.164062 29.976562 16.726562 30.355469 18.351562 C 30.734375 19.980469 30.925781 21.683594 30.925781 23.460938 C 30.925781 25.105469 30.75 26.71875 30.402344 28.296875 C 30.058594 29.875 29.46875 31.429688 28.628906 32.957031 C 27.789062 34.488281 26.746094 35.820312 25.496094 36.953125 C 24.246094 38.089844 22.640625 39 20.683594 39.691406 C 18.730469 40.382812 16.535156 40.726562 14.101562 40.726562 Z M 9.558594 35.152344 L 14.941406 35.152344 C 16.679688 35.152344 18.21875 34.808594 19.550781 34.117188 C 20.882812 33.425781 21.917969 32.496094 22.660156 31.328125 C 23.398438 30.160156 23.941406 28.917969 24.289062 27.605469 C 24.632812 26.289062 24.804688 24.90625 24.804688 23.460938 C 24.804688 20.234375 24.015625 17.480469 22.4375 15.195312 C 20.855469 12.910156 18.539062 11.769531 15.480469 11.769531 L 9.558594 11.769531 Z M 51.300781 41.320312 C 49.226562 41.320312 47.351562 40.976562 45.675781 40.285156 C 44 39.59375 42.625 38.671875 41.554688 37.519531 C 40.488281 36.371094 39.589844 35.007812 38.867188 33.429688 C 38.144531 31.847656 37.625 30.234375 37.3125 28.59375 C 37 26.945312 36.84375 25.234375 36.84375 23.460938 C 36.84375 21.355469 37.105469 19.300781 37.632812 17.292969 C 38.160156 15.285156 38.964844 13.386719 40.050781 11.597656 C 41.136719 9.800781 42.648438 8.351562 44.589844 7.253906 C 46.53125 6.152344 48.765625 5.601562 51.300781 5.601562 C 54.359375 5.601562 56.925781 6.316406 58.996094 7.746094 C 61.066406 9.175781 62.515625 10.910156 63.335938 12.953125 L 58.007812 15.367188 C 57.089844 13.953125 56.125 12.917969 55.125 12.261719 C 54.121094 11.601562 52.847656 11.273438 51.300781 11.273438 C 49.789062 11.273438 48.464844 11.644531 47.328125 12.382812 C 46.191406 13.121094 45.320312 14.109375 44.710938 15.34375 C 44.105469 16.578125 43.660156 17.878906 43.378906 19.238281 C 43.101562 20.605469 42.960938 22.011719 42.960938 23.460938 C 42.960938 26.683594 43.675781 29.511719 45.109375 31.945312 C 46.539062 34.378906 48.601562 35.597656 51.300781 35.597656 C 53.933594 35.597656 56.136719 34.117188 57.910156 31.15625 L 63.386719 33.226562 C 60.984375 38.621094 56.957031 41.320312 51.300781 41.320312 Z M 51.300781 41.320312 "/>
</g>
</svg>
