<svg xmlns="http://www.w3.org/2000/svg" xmlns:xlink="http://www.w3.org/1999/xlink" width="64" height="64" viewBox="0 0 64 64" version="1.1">
<defs>
<linearGradient id="linear0" gradientUnits="userSpaceOnUse" x1="0" y1="0" x2="0" y2="1" gradientTransform="matrix(64,0,0,8,-0.125,50)">
<stop offset="0" style="stop-color:#ff6666;stop-opacity:1;"/>
<stop offset="1" style="stop-color:#d90000;stop-opacity:1;"/>
</linearGradient>
<linearGradient id="linear1" gradientUnits="userSpaceOnUse" x1="0" y1="0" x2="0" y2="1" gradientTransform="matrix(56.679687,0,0,33.886719,3.640625,6.398437)">
<stop offset="0" style="stop-color:#ff6666;stop-opacity:1;"/>
<stop offset="1" style="stop-color:#d90000;stop-opacity:1;"/>
</linearGradient>
</defs>
<g id="surface1">
<path style=" stroke:none;fill-rule:evenodd;fill:url(#linear0);" d="M -0.125 50 L 63.875 50 L 63.875 58 L -0.125 58 Z M -0.125 50 "/>
<path style=" stroke:none;fill-rule:evenodd;fill:url(#linear1);" d="M 3.640625 40.285156 L 3.640625 6.398438 L 14.097656 6.398438 C 16.386719 6.398438 18.46875 6.722656 20.339844 7.367188 C 22.210938 8.011719 23.761719 8.867188 24.984375 9.933594 C 26.210938 11 27.234375 12.265625 28.058594 13.730469 C 28.882812 15.203125 29.480469 16.734375 29.851562 18.332031 C 30.222656 19.929688 30.40625 21.597656 30.40625 23.339844 C 30.40625 24.953125 30.238281 26.535156 29.898438 28.085938 C 29.5625 29.632812 28.980469 31.160156 28.15625 32.660156 C 27.332031 34.160156 26.308594 35.464844 25.085938 36.578125 C 23.855469 37.691406 22.285156 38.585938 20.363281 39.265625 C 18.445312 39.945312 16.289062 40.285156 13.898438 40.285156 Z M 9.449219 34.8125 L 14.722656 34.8125 C 16.433594 34.8125 17.941406 34.472656 19.246094 33.796875 C 20.558594 33.117188 21.574219 32.207031 22.300781 31.058594 C 23.023438 29.914062 23.558594 28.699219 23.894531 27.40625 C 24.234375 26.117188 24.402344 24.761719 24.402344 23.339844 C 24.402344 20.175781 23.628906 17.476562 22.078125 15.230469 C 20.535156 12.988281 18.257812 11.867188 15.257812 11.867188 L 9.449219 11.867188 Z M 60.320312 11.96875 L 50.6875 11.96875 L 50.6875 40.285156 L 44.878906 40.285156 L 44.878906 11.96875 L 35.246094 11.96875 L 35.246094 6.398438 L 60.320312 6.398438 Z M 60.320312 11.96875 "/>
</g>
</svg>
