<svg xmlns="http://www.w3.org/2000/svg" xmlns:xlink="http://www.w3.org/1999/xlink" width="64" height="64" viewBox="0 0 64 64" version="1.1">
<defs>
<linearGradient id="linear0" gradientUnits="userSpaceOnUse" x1="0" y1="0" x2="0" y2="1" gradientTransform="matrix(64,0,0,54.859375,0,4.570312)">
<stop offset="0" style="stop-color:#ff6666;stop-opacity:1;"/>
<stop offset="1" style="stop-color:#d90000;stop-opacity:1;"/>
</linearGradient>
</defs>
<g id="surface1">
<path style=" stroke:none;fill-rule:nonzero;fill:url(#linear0);" d="M 15.785156 38.097656 L 23.039062 25.816406 C 21.191406 25.414062 19.808594 23.699219 19.808594 21.636719 L 19.808594 8.839844 C 19.808594 6.476562 21.621094 4.570312 23.871094 4.570312 L 40.128906 4.570312 C 42.378906 4.570312 44.191406 6.476562 44.191406 8.839844 L 44.191406 21.636719 C 44.191406 23.699219 42.808594 25.414062 40.960938 25.816406 L 48.214844 38.097656 L 59.9375 38.097656 C 62.1875 38.097656 64 40 64 42.363281 L 64 55.164062 C 64 57.527344 62.1875 59.429688 59.9375 59.429688 L 43.679688 59.429688 C 41.433594 59.429688 39.621094 57.527344 39.621094 55.164062 L 39.621094 42.363281 C 39.621094 40.300781 41 38.585938 42.847656 38.183594 L 35.59375 25.902344 L 28.40625 25.902344 L 21.152344 38.183594 C 23 38.585938 24.378906 40.300781 24.378906 42.363281 L 24.378906 55.160156 C 24.378906 57.523438 22.566406 59.429688 20.320312 59.429688 L 4.0625 59.429688 C 1.8125 59.429688 0 57.523438 0 55.160156 L 0 42.363281 C 0 40 1.8125 38.097656 4.0625 38.097656 Z M 15.785156 38.097656 "/>
</g>
</svg>
