<svg xmlns="http://www.w3.org/2000/svg" xmlns:xlink="http://www.w3.org/1999/xlink" width="64" height="64" viewBox="0 0 64 64" version="1.1">
<defs> <linearGradient id="linear0" gradientUnits="userSpaceOnUse" x1="0" y1="0" x2="0" y2="1" gradientTransform="matrix(55.992188,0,0,56,4.003906,4)"> <stop offset="0" style="stop-color:#ff6666;stop-opacity:1;"/> <stop offset="1" style="stop-color:#d90000;stop-opacity:1;"/> </linearGradient> </defs>
<g id="surface1">
<path style=" stroke:none;fill-rule:nonzero;fill:url(#linear0);fill-opacity:1;" d="M 31.816406 1.617188 C 28.644531 1.644531 25.453125 2.171875 22.355469 3.210938 C 15.808594 5.40625 10.050781 9.980469 6.226562 16.023438 C 5.476562 17.210938 4.011719 20.207031 3.492188 21.644531 C 2.667969 23.894531 2.128906 26.222656 1.859375 28.578125 C 1.859375 28.578125 1.859375 28.582031 1.859375 28.582031 C 1.84375 28.730469 1.828125 28.871094 1.816406 29.019531 C 1.683594 30.144531 1.617188 31.28125 1.617188 32.4375 C 1.617188 42.363281 6.410156 51.167969 13.816406 56.695312 C 13.832031 56.707031 13.847656 56.722656 13.867188 56.734375 C 16.324219 58.617188 19.066406 60.089844 22.054688 61.0625 C 25.183594 62.140625 28.539062 62.730469 32.035156 62.730469 C 47.339844 62.730469 60.003906 51.476562 62.136719 36.820312 C 62.148438 36.753906 62.160156 36.6875 62.171875 36.613281 C 62.183594 36.503906 62.195312 36.398438 62.210938 36.296875 C 62.746094 32.40625 62.53125 28.597656 61.550781 24.613281 C 59.808594 17.539062 55.191406 10.964844 49.070312 6.84375 C 43.878906 3.347656 37.878906 1.570312 31.816406 1.617188 M 32.492188 8.402344 C 33.46875 8.398438 34.355469 8.433594 34.882812 8.5 C 38.660156 8.996094 42.136719 10.292969 45.230469 12.363281 C 47.042969 13.574219 47.003906 13.453125 46.039062 14.515625 C 43.84375 16.949219 40.835938 19.15625 37.191406 21 C 36.242188 21.480469 35.40625 21.871094 35.328125 21.871094 C 35.253906 21.871094 34.78125 21.105469 34.277344 20.167969 C 32.429688 16.761719 30.125 13.097656 28.070312 10.316406 C 27.519531 9.570312 27.09375 8.933594 27.117188 8.90625 C 27.144531 8.878906 27.613281 8.769531 28.164062 8.664062 C 28.996094 8.503906 30.863281 8.410156 32.492188 8.402344 M 21.625 10.835938 L 21.914062 11.191406 C 22.582031 12 24.253906 14.257812 25.089844 15.484375 C 27.394531 18.859375 30.160156 23.652344 29.898438 23.796875 C 29.398438 24.074219 24.992188 25.082031 22.445312 25.496094 C 20.074219 25.878906 18.988281 26.003906 16.085938 26.222656 C 14.773438 26.320312 12.65625 26.398438 11.367188 26.398438 L 9.027344 26.398438 L 9.261719 25.550781 C 10.027344 22.792969 11.683594 19.613281 13.617188 17.214844 C 15.523438 14.84375 18.660156 12.277344 21.054688 11.113281 L 21.625 10.835938 M 50.761719 17.480469 L 51.289062 18.191406 C 53.703125 21.492188 55.425781 26.070312 55.699219 29.96875 C 55.742188 30.59375 55.726562 31.054688 55.664062 31.042969 C 55.605469 31.035156 54.917969 30.902344 54.136719 30.75 C 51.207031 30.183594 49.699219 30.050781 46.113281 30.046875 C 43.480469 30.046875 42.367188 30.09375 41.171875 30.261719 C 40.324219 30.378906 39.523438 30.480469 39.40625 30.5 C 39.21875 30.515625 39.042969 30.199219 38.429688 28.792969 C 38.019531 27.835938 37.679688 27.003906 37.671875 26.929688 C 37.667969 26.855469 38.210938 26.550781 38.871094 26.242188 C 42.625 24.511719 46.28125 21.953125 49.242188 19 L 50.761719 17.480469 M 32.453125 28.792969 C 32.523438 28.792969 33.667969 31.386719 33.765625 31.75 C 33.789062 31.84375 33.277344 32.105469 32.316406 32.472656 C 29.390625 33.605469 25.90625 35.539062 23.417969 37.410156 C 20.199219 39.832031 16.960938 43.179688 14.660156 46.453125 C 14.292969 46.980469 13.957031 47.402344 13.910156 47.402344 C 13.804688 47.398438 12.496094 45.640625 11.925781 44.726562 C 10.550781 42.527344 9.347656 39.507812 8.835938 36.96875 C 8.527344 35.46875 8.253906 32.917969 8.324219 32.257812 L 8.359375 31.878906 L 11.566406 31.832031 C 18.738281 31.742188 25.40625 30.828125 31.125 29.160156 C 31.8125 28.957031 32.40625 28.792969 32.453125 28.792969 M 45.695312 35.425781 C 47.589844 35.417969 49.585938 35.539062 51.285156 35.78125 C 52.949219 36.011719 55.175781 36.4375 55.300781 36.542969 C 55.550781 36.765625 54.425781 40.363281 53.476562 42.371094 C 51.914062 45.65625 49.496094 48.691406 46.683594 50.894531 C 46.121094 51.339844 45.628906 51.703125 45.59375 51.703125 C 45.507812 51.703125 45.457031 51.515625 45.09375 49.851562 C 44.273438 46.074219 43.101562 41.777344 41.796875 37.726562 L 41.152344 35.734375 L 41.699219 35.664062 C 42.828125 35.511719 44.230469 35.429688 45.703125 35.425781 M 35.753906 37.027344 C 35.871094 37.027344 37.308594 41.378906 38.03125 43.941406 C 38.699219 46.304688 39.472656 49.457031 39.984375 51.882812 C 40.214844 53.003906 40.433594 54.027344 40.460938 54.160156 C 40.507812 54.371094 40.425781 54.449219 40.019531 54.601562 C 38.382812 55.214844 36.382812 55.664062 34.433594 55.875 C 34.304688 55.890625 34.167969 55.902344 34.03125 55.914062 C 33.894531 55.925781 33.757812 55.9375 33.625 55.949219 C 31.675781 56.066406 29.398438 55.929688 27.632812 55.574219 C 24.441406 54.9375 20.964844 53.453125 18.5625 51.722656 L 17.945312 51.277344 L 18.664062 50.207031 C 19.914062 48.359375 21.113281 46.933594 23.089844 44.960938 C 25.84375 42.207031 28.34375 40.386719 31.605469 38.738281 C 32.914062 38.082031 35.464844 37.027344 35.753906 37.027344 "/>
</g>
</svg>
