<svg xmlns="http://www.w3.org/2000/svg" xmlns:xlink="http://www.w3.org/1999/xlink" width="64" height="64" viewBox="0 0 64 64" version="1.1">
<defs> <linearGradient id="linear0" gradientUnits="userSpaceOnUse" x1="0" y1="0" x2="0" y2="1" gradientTransform="matrix(55.992188,0,0,56,4.003906,4)"> <stop offset="0" style="stop-color:#ff6666;stop-opacity:1;"/> <stop offset="1" style="stop-color:#d90000;stop-opacity:1;"/> </linearGradient> </defs>
<g id="surface1">
<path style=" stroke:none;fill-rule:nonzero;fill:url(#linear0);fill-opacity:1;" d="M 0.300781 18.804688 L 0.300781 45.542969 L 11.757812 45.542969 C 16.480469 45.542969 19.773438 45.011719 21.652344 43.9375 C 23.527344 42.867188 24.464844 40.824219 24.464844 37.800781 L 24.464844 26.917969 C 24.464844 23.765625 23.476562 21.613281 21.488281 20.488281 C 19.527344 19.363281 16.273438 18.804688 11.71875 18.804688 L 0.300781 18.804688 M 29.714844 18.804688 L 29.714844 45.542969 L 36.171875 45.542969 L 36.171875 35.035156 L 39.15625 35.035156 L 46.183594 45.542969 L 53.636719 45.542969 L 45.855469 34.542969 C 47.59375 34.324219 49.042969 33.78125 50.199219 32.898438 C 51.386719 32.019531 51.976562 30.765625 51.976562 29.140625 L 51.976562 24.449219 C 51.976562 22.390625 51.164062 20.929688 49.535156 20.078125 C 47.90625 19.226562 45.332031 18.804688 41.800781 18.804688 L 29.714844 18.804688 M 57.355469 18.804688 L 57.355469 45.542969 L 63.8125 45.542969 L 63.8125 18.804688 Z M 6.757812 23.375 L 11.679688 23.375 C 13.804688 23.375 15.386719 23.628906 16.4375 24.121094 C 17.484375 24.617188 18.011719 25.503906 18.011719 26.796875 L 18.011719 37.800781 C 18.011719 39.175781 17.539062 40.050781 16.601562 40.4375 C 15.667969 40.796875 13.953125 40.972656 11.46875 40.972656 L 6.757812 40.972656 L 6.757812 23.375 M 36.171875 23.375 L 41.714844 23.375 C 43.148438 23.375 44.15625 23.566406 44.738281 23.949219 C 45.34375 24.3125 45.644531 24.984375 45.644531 25.96875 L 45.644531 27.871094 C 45.644531 29.023438 45.375 29.808594 44.824219 30.214844 C 44.273438 30.601562 43.230469 30.792969 41.714844 30.792969 L 36.171875 30.792969 L 36.171875 23.375 "/>
</g>
</svg>
