<svg xmlns="http://www.w3.org/2000/svg" xmlns:xlink="http://www.w3.org/1999/xlink" width="64" height="64" viewBox="0 0 64 64" version="1.1">
<defs>
<linearGradient id="linear0" gradientUnits="userSpaceOnUse" x1="0" y1="0" x2="0" y2="1" gradientTransform="matrix(64,0,0,49.773438,0,7.113281)">
<stop offset="0" style="stop-color:#ff6666;stop-opacity:1;"/>
<stop offset="1" style="stop-color:#d90000;stop-opacity:1;"/>
</linearGradient>
</defs>
<g id="surface1">
<path style=" stroke:none;fill-rule:nonzero;fill:url(#linear0);" d="M 12.445312 7.113281 L 19.554688 16 L 23.113281 14.222656 L 17.777344 8.886719 L 23.113281 7.113281 Z M 40.886719 7.113281 L 46.222656 8.886719 L 40.886719 14.222656 L 44.445312 16 L 51.554688 7.113281 Z M 32 10.667969 C 27.371094 10.679688 21.3125 13.207031 21.332031 22.039062 L 32 16 L 42.667969 22.039062 C 42.6875 13.207031 36.628906 10.679688 32 10.667969 Z M 5.332031 14.222656 L 8.886719 24.886719 L 8.886719 21.332031 L 16 21.332031 L 17.777344 17.777344 Z M 58.667969 14.222656 L 46.222656 17.777344 L 48 21.332031 L 55.113281 21.332031 L 55.113281 24.886719 Z M 32 19.554688 L 26.667969 22.757812 L 27.375 27.734375 L 29.152344 23.113281 L 34.847656 23.113281 L 36.625 27.734375 L 37.332031 22.761719 L 32 19.558594 Z M 14.222656 24.886719 L 0 30.222656 L 7.113281 33.777344 L 7.113281 32 L 12.445312 30.222656 Z M 23.113281 24.886719 L 16 27.734375 C 16.042969 33.542969 19.300781 39.03125 22.574219 41.699219 C 24.867188 43.523438 27.742188 45.617188 29.152344 46.21875 C 30.769531 46.824219 29.871094 43.226562 30.21875 42.664062 L 33.777344 42.664062 C 34.128906 43.226562 33.226562 46.828125 34.84375 46.21875 C 36.257812 45.617188 39.128906 43.527344 41.425781 41.699219 C 44.699219 39.027344 47.953125 33.546875 48 27.734375 L 40.886719 24.886719 L 39.113281 32 L 34.484375 32 L 32 24.886719 L 29.515625 32 L 24.886719 32 Z M 49.777344 24.886719 L 51.554688 30.222656 L 56.886719 32 L 56.886719 33.777344 L 64 30.222656 Z M 14.222656 35.554688 L 5.332031 39.113281 L 19.554688 56.886719 Z M 49.777344 35.554688 L 44.445312 56.886719 L 58.667969 39.113281 Z M 49.777344 35.554688 "/>
</g>
</svg>
