<svg xmlns="http://www.w3.org/2000/svg" xmlns:xlink="http://www.w3.org/1999/xlink" width="64" height="64" viewBox="0 0 64 64" version="1.1">
<defs> <linearGradient id="linear0" gradientUnits="userSpaceOnUse" x1="0" y1="0" x2="0" y2="1" gradientTransform="matrix(55.992188,0,0,56,4.003906,4)"> <stop offset="0" style="stop-color:#ff6666;stop-opacity:1;"/> <stop offset="1" style="stop-color:#d90000;stop-opacity:1;"/> </linearGradient> </defs>
<g id="surface1">
<path style=" stroke:none;fill-rule:nonzero;fill:url(#linear0);fill-opacity:1;" d="M 30.863281 2.183594 C 16.863281 2.691406 7.683594 10.789062 4.304688 15.777344 C 0.691406 21.101562 -4.027344 36.761719 4.054688 47.6875 C 12.140625 58.613281 22.925781 61.195312 25.949219 61.632812 C 28.984375 62.0625 32.9375 62.1875 32.9375 62.1875 C 35.859375 62.136719 52.390625 58.832031 58.839844 48.875 C 65.277344 38.914062 65.960938 27.582031 62.238281 21.054688 C 58.519531 14.527344 49.355469 2.777344 33.742188 2.183594 C 32.765625 2.148438 31.800781 2.148438 30.863281 2.183594 Z M 29.8125 5.367188 C 33.980469 5.238281 38.367188 5.886719 43.179688 7.285156 C 54.191406 10.484375 59.585938 22.472656 60.273438 25.421875 C 60.960938 28.371094 62.761719 36.527344 56.589844 45.730469 C 50.417969 54.929688 39.875 58.5 37.671875 57.996094 C 35.46875 57.492188 35.996094 50.699219 36.933594 46.640625 C 37.878906 42.574219 39.707031 41.164062 41.113281 40.660156 C 42.523438 40.160156 47.792969 40.007812 49.8125 39.648438 C 51.835938 39.289062 54.824219 37.488281 56.449219 34.71875 C 58.070312 31.953125 58.15625 29.671875 57.253906 28.882812 C 56.351562 28.097656 53.652344 29.667969 48.058594 30.316406 C 42.464844 30.964844 40.039062 29.894531 39.394531 28.671875 C 38.738281 27.449219 40.785156 25.90625 41.183594 23.679688 C 41.578125 21.449219 36.09375 16.910156 34.757812 16.441406 C 33.425781 15.976562 29.210938 15.675781 22.96875 18.085938 C 16.722656 20.496094 13.519531 27.535156 15.070312 32.027344 C 16.625 36.523438 23.964844 45.320312 26.128906 48.28125 C 28.289062 51.238281 28.933594 54.773438 29.039062 55.6875 C 29.148438 56.605469 28.671875 58.542969 28.09375 58.941406 C 28.09375 58.941406 27.269531 59.183594 26.65625 59.183594 C 26.042969 59.183594 21.335938 57.378906 19.460938 56.910156 C 17.582031 56.445312 6.5625 48.996094 3.316406 38.21875 C 0.0664062 27.433594 5.382812 15.015625 14.40625 9.875 C 19.476562 6.984375 24.453125 5.53125 29.8125 5.367188 Z M 37.042969 27.066406 L 32.9375 28.671875 C 32.9375 28.671875 34.195312 27.8125 34.933594 27.417969 C 35.679688 27.019531 37.042969 27.066406 37.042969 27.066406 Z M 37.042969 27.066406 "/>
</g>
</svg>
