<svg xmlns="http://www.w3.org/2000/svg" xmlns:xlink="http://www.w3.org/1999/xlink" width="64" height="64" viewBox="0 0 64 64" version="1.1">
<defs> <linearGradient id="linear0" gradientUnits="userSpaceOnUse" x1="0" y1="0" x2="0" y2="1" gradientTransform="matrix(55.992188,0,0,56,4.003906,4)"> <stop offset="0" style="stop-color:#ff6666;stop-opacity:1;"/> <stop offset="1" style="stop-color:#d90000;stop-opacity:1;"/> </linearGradient> </defs>
<g id="surface1">
<path style=" stroke:none;fill-rule:nonzero;fill:url(#linear0);fill-opacity:1;" d="M 24.605469 28.949219 C 24.605469 32.597656 21.753906 35.554688 18.234375 35.554688 C 14.71875 35.554688 11.863281 32.597656 11.863281 28.949219 C 11.863281 25.300781 14.71875 22.34375 18.234375 22.34375 C 21.753906 22.34375 24.605469 25.300781 24.605469 28.949219 Z M 24.605469 28.949219 "/>
<path style=" stroke:none;fill-rule:nonzero;fill:url(#linear0);fill-opacity:1;" d="M 51.925781 28.949219 C 51.925781 32.597656 49.070312 35.554688 45.554688 35.554688 C 42.035156 35.554688 39.183594 32.597656 39.183594 28.949219 C 39.183594 25.300781 42.035156 22.351562 45.554688 22.351562 C 49.070312 22.351562 51.925781 25.300781 51.925781 28.949219 Z M 51.925781 28.949219 "/>
</g>
</svg>
