<svg xmlns="http://www.w3.org/2000/svg" xmlns:xlink="http://www.w3.org/1999/xlink" width="64" height="64" viewBox="0 0 64 64" version="1.1">
<defs>
<linearGradient id="linear0" gradientUnits="userSpaceOnUse" x1="0" y1="0" x2="0" y2="1" gradientTransform="matrix(64,0,0,57.378906,0,3.3125)">
<stop offset="0" style="stop-color:#ff6666;stop-opacity:1;"/>
<stop offset="1" style="stop-color:#d90000;stop-opacity:1;"/>
</linearGradient>
</defs>
<g id="surface1">
<path style=" stroke:none;fill-rule:nonzero;fill:url(#linear0);" d="M 9.121094 60.640625 C 6.179688 60.40625 3.34375 59.828125 0.789062 58.933594 L 0 58.65625 L 0.0351562 58.433594 C 0.125 57.875 0.363281 56.757812 0.59375 55.847656 C 1.644531 51.691406 3.660156 47.585938 6.363281 44.105469 C 7.976562 42.023438 10.140625 39.871094 12.253906 38.246094 C 14.605469 36.445312 17.5 34.808594 20.167969 33.78125 C 20.605469 33.613281 20.609375 33.609375 20.574219 33.4375 C 20.554688 33.34375 20.496094 32.882812 20.4375 32.414062 C 19.921875 28.324219 20.164062 24.371094 21.179688 20.328125 C 21.492188 19.101562 22.171875 17.042969 22.652344 15.886719 C 24.347656 11.828125 26.847656 8.144531 29.96875 5.121094 C 30.753906 4.359375 31.941406 3.3125 32.019531 3.3125 C 32.105469 3.3125 33.292969 4.359375 34.097656 5.144531 C 35.800781 6.808594 37.1875 8.488281 38.511719 10.492188 C 39.351562 11.769531 39.816406 12.578125 40.527344 14.027344 C 43.394531 19.847656 44.460938 26.457031 43.550781 32.851562 C 43.492188 33.261719 43.453125 33.601562 43.457031 33.605469 C 43.464844 33.609375 43.804688 33.753906 44.210938 33.914062 C 50.261719 36.355469 55.449219 40.605469 59.117188 46.121094 C 61.449219 49.632812 63.074219 53.636719 63.890625 57.867188 C 64.007812 58.460938 64.023438 58.640625 63.972656 58.671875 C 63.933594 58.695312 63.492188 58.851562 62.992188 59.019531 C 60.671875 59.796875 58.378906 60.289062 55.816406 60.5625 C 54.6875 60.683594 51.898438 60.730469 50.628906 60.648438 C 44.019531 60.222656 37.585938 57.78125 32.570312 53.792969 L 32.015625 53.351562 L 31.621094 53.671875 C 28.152344 56.457031 23.894531 58.558594 19.488281 59.683594 C 17.761719 60.125 16.40625 60.363281 14.503906 60.566406 C 13.554688 60.667969 10.078125 60.714844 9.121094 60.640625 Z M 13.085938 54.667969 C 18.246094 54.3125 23.027344 52.558594 27.191406 49.496094 L 27.71875 49.105469 L 27.558594 48.910156 C 27.167969 48.457031 26.054688 46.941406 25.574219 46.21875 C 24.414062 44.464844 23.273438 42.296875 22.546875 40.472656 C 22.335938 39.945312 22.160156 39.503906 22.148438 39.492188 C 22.09375 39.402344 19.699219 40.550781 18.675781 41.160156 C 14.335938 43.722656 10.855469 47.371094 8.546875 51.777344 C 8.042969 52.742188 7.34375 54.34375 7.402344 54.394531 C 7.460938 54.449219 8.796875 54.613281 9.617188 54.667969 C 10.585938 54.730469 12.148438 54.730469 13.085938 54.667969 Z M 54.316406 54.667969 C 54.78125 54.632812 55.496094 54.566406 55.902344 54.515625 C 56.765625 54.40625 56.722656 54.484375 56.382812 53.683594 C 53.957031 47.925781 49.335938 43.03125 43.738281 40.285156 C 42.929688 39.882812 42.019531 39.484375 41.933594 39.488281 C 41.898438 39.488281 41.703125 39.925781 41.492188 40.453125 C 40.789062 42.238281 39.648438 44.410156 38.472656 46.199219 C 38.011719 46.898438 36.875 48.445312 36.476562 48.910156 L 36.3125 49.105469 L 36.894531 49.535156 C 41.863281 53.214844 48.222656 55.089844 54.316406 54.667969 Z M 32.570312 44.136719 C 33.851562 42.421875 34.960938 40.496094 35.785156 38.554688 L 36.074219 37.867188 L 35.898438 37.832031 C 35.804688 37.8125 35.351562 37.753906 34.898438 37.695312 C 34.234375 37.617188 33.675781 37.597656 32.015625 37.597656 C 30.03125 37.597656 29.390625 37.632812 28.167969 37.824219 L 27.96875 37.855469 L 28.191406 38.410156 C 28.550781 39.292969 29.550781 41.253906 30.066406 42.089844 C 30.800781 43.273438 31.898438 44.804688 32.023438 44.804688 C 32.050781 44.804688 32.296875 44.503906 32.570312 44.136719 Z M 27.101562 31.921875 C 29.023438 31.625 31.429688 31.496094 33.347656 31.589844 C 34.667969 31.648438 36.144531 31.792969 37.09375 31.949219 C 37.363281 31.992188 37.59375 32.019531 37.601562 32.015625 C 37.605469 32.007812 37.65625 31.632812 37.707031 31.179688 C 37.851562 29.996094 37.851562 26.65625 37.707031 25.484375 C 37.113281 20.578125 35.441406 16.347656 32.578125 12.503906 C 32.296875 12.121094 32.039062 11.808594 32.019531 11.808594 C 31.996094 11.808594 31.738281 12.121094 31.453125 12.503906 C 28.429688 16.558594 26.660156 21.277344 26.246094 26.410156 C 26.167969 27.441406 26.214844 30.246094 26.332031 31.210938 C 26.375 31.589844 26.414062 31.929688 26.414062 31.96875 C 26.414062 32.019531 26.464844 32.03125 26.566406 32.011719 C 26.652344 31.992188 26.890625 31.953125 27.101562 31.921875 Z M 27.101562 31.921875 "/>
</g>
</svg>
