<svg xmlns="http://www.w3.org/2000/svg" xmlns:xlink="http://www.w3.org/1999/xlink" width="64" height="64" viewBox="0 0 64 64" version="1.1">
<defs> <linearGradient id="linear0" gradientUnits="userSpaceOnUse" x1="0" y1="0" x2="0" y2="1" gradientTransform="matrix(55.992188,0,0,56,4.003906,4)"> <stop offset="0" style="stop-color:#ff6666;stop-opacity:1;"/> <stop offset="1" style="stop-color:#d90000;stop-opacity:1;"/> </linearGradient> </defs>
<g id="surface1">
<path style=" stroke:none;fill-rule:evenodd;fill:url(#linear0);fill-opacity:1;" d="M 22.039062 2.863281 C 19.648438 2.953125 17.609375 3.699219 16.113281 5.179688 L 6.734375 14.550781 C 3.382812 17.886719 3.730469 24.050781 7.015625 30.554688 C 8.949219 26.886719 11.5 23.355469 14.398438 19.914062 C 13.472656 17.933594 13.808594 15.519531 15.449219 13.882812 C 17.546875 11.800781 20.917969 11.800781 23.015625 13.882812 C 23.621094 14.488281 24.039062 15.195312 24.292969 15.953125 L 41.445312 11.972656 L 41.238281 11.769531 C 40.996094 11.527344 40.722656 11.300781 40.445312 11.128906 C 34.203125 5.636719 27.296875 2.648438 22.039062 2.855469 M 18.296875 17.457031 C 18.039062 17.480469 17.800781 17.597656 17.632812 17.792969 C 11.933594 24.046875 7.339844 30.589844 5.324219 37.472656 C 5.320312 37.484375 5.300781 37.496094 5.296875 37.5 C 5.296875 37.511719 5.300781 37.539062 5.296875 37.550781 C 3.65625 42.210938 3.691406 46.59375 4.785156 49.828125 C 4.792969 49.835938 4.808594 49.847656 4.8125 49.859375 C 4.8125 49.863281 4.808594 49.867188 4.8125 49.878906 C 5.671875 52.789062 7.558594 54.457031 9.679688 54.703125 C 11.820312 54.957031 13.972656 53.929688 15.707031 52.226562 L 15.734375 52.203125 C 18.113281 49.796875 18.414062 46.375 19.0625 42.914062 C 19.1875 42.535156 19.078125 42.125 18.789062 41.855469 C 18.5 41.582031 18.085938 41.503906 17.714844 41.644531 C 17.347656 41.792969 17.09375 42.132812 17.0625 42.527344 C 16.398438 46.070312 15.984375 49.019531 14.269531 50.773438 C 14.265625 50.78125 14.28125 50.789062 14.269531 50.796875 C 12.871094 52.164062 11.203125 52.816406 9.914062 52.664062 C 8.617188 52.511719 7.460938 51.691406 6.761719 49.269531 L 6.761719 49.242188 L 6.734375 49.21875 C 5.796875 46.5 5.710938 42.472656 7.25 38.164062 L 7.25 38.132812 L 7.273438 38.113281 C 9.140625 31.6875 13.570312 25.320312 19.164062 19.171875 C 19.460938 18.855469 19.523438 18.390625 19.328125 18.011719 C 19.136719 17.628906 18.722656 17.40625 18.296875 17.457031 M 40.1875 21.183594 L 29.601562 23.996094 C 29.507812 24.019531 29.425781 24.070312 29.371094 24.148438 C 29.363281 24.152344 29.351562 24.164062 29.347656 24.171875 C 29.335938 24.183594 29.332031 24.1875 29.320312 24.199219 C 29.296875 24.273438 29.296875 24.351562 29.320312 24.425781 L 30.246094 32.851562 C 30.253906 32.976562 30.324219 33.082031 30.425781 33.152344 C 30.535156 33.214844 30.664062 33.226562 30.777344 33.1875 L 40.371094 30.707031 C 40.546875 30.664062 40.675781 30.503906 40.675781 30.324219 L 40.675781 21.570312 C 40.675781 21.449219 40.621094 21.335938 40.523438 21.265625 C 40.425781 21.183594 40.308594 21.15625 40.1875 21.183594 M 17.550781 22.71875 C 14.183594 26.738281 11.414062 30.808594 9.628906 34.871094 C 10.5625 36.210938 11.59375 37.546875 12.757812 38.851562 C 12.808594 38.910156 12.859375 38.972656 12.914062 39.027344 C 13.042969 39.203125 13.160156 39.40625 13.320312 39.566406 L 16.011719 42.246094 C 16.238281 41.085938 17.285156 40.339844 18.472656 40.558594 C 18.902344 40.640625 19.265625 40.832031 19.550781 41.097656 L 18.523438 22.949219 C 18.195312 22.902344 17.871094 22.832031 17.550781 22.71875 M 52.496094 22.972656 L 52.699219 29.945312 C 52.746094 31.625 52.027344 33.105469 50.875 34.355469 C 49.722656 35.613281 48.132812 36.625 46.339844 37.472656 L 46.316406 37.5 L 46.265625 37.523438 L 32.957031 40.507812 L 33.1875 46.792969 L 53.925781 41.582031 L 54.414062 41.453125 L 54.441406 41.941406 L 54.699219 46.613281 L 62.363281 38.976562 C 64.078125 37.261719 64.078125 34.515625 62.363281 32.800781 L 52.496094 22.972656 M 19.785156 45.179688 C 19.742188 45.414062 19.699219 45.640625 19.652344 45.871094 L 19.835938 46.046875 Z M 47.519531 53.78125 L 31.296875 57.457031 L 34.445312 60.597656 C 36.167969 62.3125 38.957031 62.3125 40.675781 60.597656 L 47.519531 53.78125 "/>
</g>
</svg>
