<svg xmlns="http://www.w3.org/2000/svg" xmlns:xlink="http://www.w3.org/1999/xlink" width="64" height="64" viewBox="0 0 64 64" version="1.1">
<defs>
<linearGradient id="linear0" gradientUnits="userSpaceOnUse" x1="0" y1="0" x2="0" y2="1" gradientTransform="matrix(64,0,0,64,0,0)">
<stop offset="0" style="stop-color:#ff6666;stop-opacity:1;"/>
<stop offset="1" style="stop-color:#d90000;stop-opacity:1;"/>
</linearGradient>
</defs>
<g id="surface1">
<path style=" stroke:none;fill-rule:evenodd;fill:url(#linear0);" d="M 61.445312 44.53125 C 43.839844 52.738281 24.953125 55.4375 8.808594 54.023438 C 14.84375 60.386719 23.226562 63.996094 32 64 C 44.832031 64 56.421875 56.335938 61.445312 44.53125 Z M 25.144531 35.429688 L 38.855469 35.429688 L 38.855469 38.855469 L 25.144531 38.855469 Z M 39.28125 25.359375 L 37.519531 22.410156 L 46.398438 17.085938 L 55.28125 22.410156 L 53.519531 25.359375 L 46.398438 21.085938 Z M 32 0 C 14.328125 0 0 14.328125 0 32 C 0.0078125 37.210938 1.289062 42.34375 3.730469 46.949219 C 21.121094 49.675781 43.761719 46.972656 63.679688 36.257812 C 63.882812 34.847656 63.988281 33.425781 64 32 C 64 14.328125 49.671875 0 32 0 Z M 15.429688 17.144531 L 17.144531 17.144531 L 17.144531 20.570312 L 15.429688 20.570312 C 14.421875 20.570312 13.714844 19.867188 13.714844 18.855469 C 13.714844 17.847656 14.421875 17.144531 15.429688 17.144531 Z M 20.570312 24 L 22.285156 24 C 23.296875 24 24 24.703125 24 25.714844 C 24 26.722656 23.296875 27.429688 22.285156 27.429688 L 20.570312 27.429688 Z M 17.144531 10.285156 L 17.144531 13.714844 L 15.429688 13.714844 C 12.578125 13.714844 10.285156 16.007812 10.285156 18.855469 C 10.285156 21.707031 12.578125 24 15.429688 24 L 17.144531 24 L 17.144531 27.429688 L 10.601562 27.429688 C 11.308594 29.425781 13.183594 30.855469 15.429688 30.855469 L 17.144531 30.855469 L 17.144531 34.285156 L 20.570312 34.285156 L 20.570312 30.855469 L 22.285156 30.855469 C 25.136719 30.855469 27.429688 28.5625 27.429688 25.714844 C 27.429688 22.863281 25.136719 20.570312 22.285156 20.570312 L 20.570312 20.570312 L 20.570312 17.144531 L 27.113281 17.144531 C 26.40625 15.148438 24.527344 13.714844 22.285156 13.714844 L 20.570312 13.714844 L 20.570312 10.285156 Z M 17.144531 10.285156 "/>
</g>
</svg>
