<svg xmlns="http://www.w3.org/2000/svg" xmlns:xlink="http://www.w3.org/1999/xlink" width="64" height="64" viewBox="0 0 64 64" version="1.1">
<defs>
<linearGradient id="linear0" gradientUnits="userSpaceOnUse" x1="0" y1="0" x2="0" y2="1" gradientTransform="matrix(63.898438,0,0,64,0.0507812,0)">
<stop offset="0" style="stop-color:#ff6666;stop-opacity:1;"/>
<stop offset="1" style="stop-color:#d90000;stop-opacity:1;"/>
</linearGradient>
</defs>
<g id="surface1">
<path style=" stroke:none;fill-rule:nonzero;fill:url(#linear0);" d="M 31.949219 0 C 18.960938 0.0078125 7.269531 7.863281 2.351562 19.882812 L 23.589844 23.523438 L 22.875 27.734375 L 1.015625 23.984375 C 0.511719 25.910156 0.1875 27.878906 0.0507812 29.867188 L 23.417969 29.867188 L 23.417969 34.132812 L 0.0585938 34.132812 C 0.195312 36.117188 0.519531 38.085938 1.023438 40.007812 L 22.875 36.265625 L 23.589844 40.476562 L 2.398438 44.109375 C 7.308594 56.113281 18.980469 63.972656 31.949219 64 C 49.625 64 63.949219 49.671875 63.949219 32 C 63.949219 14.328125 49.625 0 31.949219 0 Z M 31.949219 0 "/>
</g>
</svg>
