<svg xmlns="http://www.w3.org/2000/svg" xmlns:xlink="http://www.w3.org/1999/xlink" width="64" height="64" viewBox="0 0 64 64" version="1.1">
<defs>
<linearGradient id="linear0" gradientUnits="userSpaceOnUse" x1="0" y1="0" x2="0" y2="1" gradientTransform="matrix(58.1875,0,0,37.820312,2.90625,14.542969)">
<stop offset="0" style="stop-color:#ff6666;stop-opacity:1;"/>
<stop offset="1" style="stop-color:#d90000;stop-opacity:1;"/>
</linearGradient>
<linearGradient id="linear1" gradientUnits="userSpaceOnUse" x1="0" y1="0" x2="0" y2="1" gradientTransform="matrix(64,0,0,46.546875,0,8.726562)">
<stop offset="0" style="stop-color:#ff6666;stop-opacity:1;"/>
<stop offset="1" style="stop-color:#d90000;stop-opacity:1;"/>
</linearGradient>
</defs>
<g id="surface1">
<path style=" stroke:none;fill-rule:nonzero;fill:url(#linear0);" d="M 29.09375 14.542969 L 29.09375 49.457031 L 2.90625 49.457031 L 2.90625 52.363281 L 32 52.363281 L 32 34.90625 L 61.09375 34.90625 L 61.09375 32 L 32 32 L 32 14.542969 Z M 29.09375 14.542969 "/>
<path style=" stroke:none;fill-rule:nonzero;fill:url(#linear1);" d="M 30.542969 8.726562 C 28.136719 8.726562 26.179688 10.679688 26.179688 13.09375 C 26.179688 15.5 28.136719 17.457031 30.542969 17.457031 C 32.957031 17.457031 34.90625 15.5 34.90625 13.09375 C 34.90625 10.679688 32.957031 8.726562 30.542969 8.726562 Z M 30.542969 29.09375 C 28.136719 29.09375 26.179688 31.042969 26.179688 33.457031 C 26.179688 35.863281 28.136719 37.820312 30.542969 37.820312 C 32.957031 37.820312 34.90625 35.863281 34.90625 33.457031 C 34.90625 31.042969 32.957031 29.09375 30.542969 29.09375 Z M 59.636719 29.09375 C 57.226562 29.09375 55.273438 31.042969 55.273438 33.457031 C 55.273438 35.863281 57.226562 37.820312 59.636719 37.820312 C 62.046875 37.820312 64 35.863281 64 33.457031 C 64 31.042969 62.046875 29.09375 59.636719 29.09375 Z M 4.363281 46.542969 C 1.953125 46.542969 0 48.5 0 50.90625 C 0 53.320312 1.953125 55.273438 4.363281 55.273438 C 6.773438 55.273438 8.726562 53.320312 8.726562 50.90625 C 8.726562 48.5 6.773438 46.542969 4.363281 46.542969 Z M 30.542969 46.542969 C 28.136719 46.542969 26.179688 48.5 26.179688 50.90625 C 26.179688 53.320312 28.136719 55.273438 30.542969 55.273438 C 32.957031 55.273438 34.90625 53.320312 34.90625 50.90625 C 34.90625 48.5 32.957031 46.542969 30.542969 46.542969 Z M 30.542969 46.542969 "/>
</g>
</svg>
