<svg xmlns="http://www.w3.org/2000/svg" xmlns:xlink="http://www.w3.org/1999/xlink" width="64" height="64" viewBox="0 0 64 64" version="1.1">
<defs>
<linearGradient id="linear0" gradientUnits="userSpaceOnUse" x1="0" y1="0" x2="0" y2="1" gradientTransform="matrix(64,0,0,58.867188,0,2.566406)">
<stop offset="0" style="stop-color:#ff6666;stop-opacity:1;"/>
<stop offset="1" style="stop-color:#d90000;stop-opacity:1;"/>
</linearGradient>
</defs>
<g id="surface1">
<path style=" stroke:none;fill-rule:nonzero;fill:url(#linear0);" d="M 23.054688 2.570312 C 20.542969 2.511719 18.144531 3.054688 16 4.296875 C 11.378906 6.960938 9.003906 12.265625 8.644531 18.523438 C 3.402344 21.96875 0 26.675781 0 32.007812 C 0 37.339844 3.402344 42.046875 8.644531 45.488281 C 9.003906 51.746094 11.382812 57.050781 16.003906 59.71875 C 20.621094 62.382812 26.398438 61.792969 32 58.976562 C 37.601562 61.792969 43.382812 62.382812 48 59.71875 C 52.617188 57.050781 54.996094 51.753906 55.355469 45.492188 C 60.597656 42.046875 64 37.339844 64 32.007812 C 64 26.675781 60.597656 21.964844 55.355469 18.523438 C 54.996094 12.265625 52.617188 6.960938 48 4.296875 C 43.378906 1.628906 37.597656 2.21875 31.996094 5.039062 C 28.996094 3.53125 25.953125 2.636719 23.054688 2.570312 Z M 40.945312 5.101562 C 43.058594 5.042969 45.019531 5.496094 46.734375 6.488281 C 50.039062 8.394531 52.054688 12.113281 52.675781 16.953125 C 49.746094 15.429688 46.382812 14.238281 42.710938 13.445312 C 40.1875 10.664062 37.480469 8.34375 34.699219 6.570312 C 36.867188 5.664062 38.976562 5.152344 40.945312 5.101562 Z M 23.054688 5.101562 C 25.023438 5.152344 27.128906 5.664062 29.296875 6.570312 C 26.515625 8.34375 23.804688 10.664062 21.285156 13.445312 C 17.613281 14.238281 14.246094 15.429688 11.324219 16.953125 C 11.941406 12.113281 13.964844 8.394531 17.269531 6.488281 C 18.980469 5.496094 20.941406 5.046875 23.054688 5.101562 Z M 31.996094 7.890625 C 34.160156 9.117188 36.332031 10.738281 38.425781 12.691406 C 36.347656 12.4375 34.199219 12.300781 32 12.300781 C 29.800781 12.300781 27.652344 12.4375 25.570312 12.691406 C 27.664062 10.738281 29.832031 9.117188 31.996094 7.890625 Z M 32 14.835938 C 35.285156 14.835938 38.4375 15.164062 41.382812 15.746094 C 43.363281 18.011719 45.226562 20.574219 46.871094 23.421875 C 48.515625 26.269531 49.804688 29.160156 50.773438 32.007812 C 49.804688 34.851562 48.515625 37.746094 46.871094 40.59375 C 45.226562 43.441406 43.367188 46.003906 41.382812 48.265625 C 38.4375 48.847656 35.289062 49.179688 32 49.179688 C 28.710938 49.179688 25.5625 48.847656 22.617188 48.265625 C 20.632812 46.003906 18.769531 43.441406 17.128906 40.597656 C 15.484375 37.746094 14.195312 34.851562 13.226562 32.007812 C 14.195312 29.160156 15.484375 26.269531 17.128906 23.421875 C 18.769531 20.574219 20.632812 18.011719 22.617188 15.746094 C 25.5625 15.164062 28.710938 14.835938 32 14.835938 Z M 18.484375 16.789062 C 17.222656 18.457031 16.035156 20.246094 14.933594 22.152344 C 13.832031 24.058594 12.878906 25.988281 12.0625 27.914062 C 11.414062 25.128906 11.09375 22.4375 11.117188 19.949219 C 13.257812 18.6875 15.746094 17.621094 18.484375 16.789062 Z M 45.511719 16.789062 C 48.253906 17.621094 50.738281 18.6875 52.882812 19.949219 C 52.902344 22.4375 52.585938 25.125 51.9375 27.914062 C 51.125 25.988281 50.167969 24.058594 49.066406 22.15625 C 47.964844 20.253906 46.773438 18.457031 45.511719 16.789062 Z M 27.203125 19.710938 L 24.828125 30.152344 L 20.691406 30.777344 L 19.707031 34.464844 L 23.992188 33.816406 L 22.164062 41.839844 L 39.992188 41.839844 L 41.710938 36.925781 L 30.660156 36.925781 L 31.632812 32.65625 L 35.933594 32.007812 L 36.914062 28.320312 L 32.46875 28.992188 L 34.578125 19.710938 Z M 55.375 21.628906 C 59.257812 24.578125 61.464844 28.1875 61.464844 32.007812 C 61.464844 35.824219 59.257812 39.433594 55.375 42.386719 C 55.230469 39.09375 54.578125 35.585938 53.433594 32.007812 C 54.578125 28.433594 55.230469 24.925781 55.375 21.628906 Z M 8.621094 21.628906 C 8.769531 24.925781 9.421875 28.433594 10.5625 32.007812 C 9.421875 35.585938 8.769531 39.089844 8.621094 42.382812 C 4.742188 39.433594 2.535156 35.824219 2.535156 32.007812 C 2.535156 28.191406 4.742188 24.585938 8.621094 21.628906 Z M 12.0625 36.097656 C 12.878906 38.023438 13.832031 39.953125 14.933594 41.859375 C 16.035156 43.765625 17.222656 45.554688 18.484375 47.226562 C 15.746094 46.390625 13.257812 45.328125 11.117188 44.0625 C 11.09375 41.578125 11.414062 38.886719 12.0625 36.097656 Z M 51.9375 36.097656 C 52.585938 38.886719 52.902344 41.574219 52.882812 44.0625 C 50.738281 45.328125 48.253906 46.390625 45.511719 47.226562 C 46.773438 45.554688 47.964844 43.765625 49.0625 41.859375 C 50.164062 39.957031 51.125 38.023438 51.9375 36.097656 Z M 11.324219 47.0625 C 14.246094 48.585938 17.613281 49.777344 21.285156 50.570312 C 23.804688 53.347656 26.515625 55.667969 29.296875 57.441406 C 24.796875 59.324219 20.570312 59.433594 17.269531 57.523438 C 13.964844 55.617188 11.941406 51.898438 11.324219 47.0625 Z M 52.675781 47.0625 C 52.054688 51.898438 50.035156 55.617188 46.730469 57.523438 C 43.429688 59.433594 39.199219 59.324219 34.699219 57.441406 C 37.480469 55.667969 40.1875 53.347656 42.710938 50.570312 C 46.382812 49.777344 49.746094 48.585938 52.675781 47.0625 Z M 25.574219 51.320312 C 27.652344 51.574219 29.800781 51.710938 32 51.710938 C 34.199219 51.710938 36.347656 51.574219 38.425781 51.320312 C 36.328125 53.277344 34.164062 54.898438 31.996094 56.121094 C 29.832031 54.898438 27.667969 53.277344 25.574219 51.320312 Z M 25.574219 51.320312 "/>
</g>
</svg>
