<svg xmlns="http://www.w3.org/2000/svg" xmlns:xlink="http://www.w3.org/1999/xlink" width="64" height="64" viewBox="0 0 64 64" version="1.1">
<defs> <linearGradient id="linear0" gradientUnits="userSpaceOnUse" x1="0" y1="0" x2="0" y2="1" gradientTransform="matrix(55.992188,0,0,56,4.003906,4)"> <stop offset="0" style="stop-color:#ff6666;stop-opacity:1;"/> <stop offset="1" style="stop-color:#d90000;stop-opacity:1;"/> </linearGradient> </defs>
<g id="surface1">
<path style=" stroke:none;fill-rule:nonzero;fill:url(#linear0);fill-opacity:1;" d="M 20.476562 40.59375 C 20.476562 40.59375 38.710938 33.71875 36.96875 24.703125 C 35.234375 15.6875 23.367188 12.476562 15.707031 17.671875 C 8.039062 22.863281 0.804688 33.71875 7.164062 44.253906 C 13.535156 54.804688 25.980469 52.816406 33.789062 46.390625 C 41.609375 39.976562 47.828125 42.414062 50.859375 41.351562 C 53.898438 40.28125 54.199219 36.765625 50.722656 35.390625 C 47.253906 34.015625 42.046875 35.390625 37.410156 40.136719 C 32.78125 44.882812 28.734375 49.910156 21.78125 47.164062 C 14.835938 44.410156 6.308594 30.664062 12.816406 23.785156 C 19.316406 16.910156 25.066406 19.816406 26.9375 23.855469 C 28.808594 27.886719 28.300781 30.664062 25.691406 34.324219 C 23.089844 37.980469 20.480469 40.582031 20.480469 40.582031 M 20.476562 40.582031 "/>
</g>
</svg>
