<svg xmlns="http://www.w3.org/2000/svg" xmlns:xlink="http://www.w3.org/1999/xlink" width="64" height="64" viewBox="0 0 64 64" version="1.1">
<defs> <linearGradient id="linear0" gradientUnits="userSpaceOnUse" x1="0" y1="0" x2="0" y2="1" gradientTransform="matrix(55.992188,0,0,56,4.003906,4)"> <stop offset="0" style="stop-color:#ff6666;stop-opacity:1;"/> <stop offset="1" style="stop-color:#d90000;stop-opacity:1;"/> </linearGradient> </defs>
<g id="surface1">
<path style=" stroke:none;fill-rule:nonzero;fill:url(#linear0);fill-opacity:1;" d="M 21.210938 43.960938 C 21.210938 47.972656 17.945312 51.226562 13.910156 51.226562 C 9.878906 51.226562 6.613281 47.972656 6.613281 43.960938 C 6.613281 39.945312 9.878906 36.691406 13.910156 36.691406 C 17.945312 36.691406 21.210938 39.945312 21.210938 43.960938 Z M 21.210938 43.960938 "/>
<path style=" stroke:none;fill-rule:nonzero;fill:url(#linear0);fill-opacity:1;" d="M 50.398438 38.507812 C 50.398438 42.523438 47.132812 45.773438 43.101562 45.773438 C 39.074219 45.773438 35.804688 42.523438 35.804688 38.507812 C 35.804688 34.496094 39.074219 31.238281 43.101562 31.238281 C 47.132812 31.238281 50.398438 34.496094 50.398438 38.507812 Z M 50.398438 38.507812 "/>
<path style=" stroke:none;fill-rule:nonzero;fill:url(#linear0);fill-opacity:1;" d="M 17.5625 7.625 L 17.5625 43.960938 L 21.210938 43.960938 L 21.210938 20.34375 L 46.753906 20.34375 L 46.753906 38.507812 L 50.398438 38.507812 L 50.398438 7.625 Z M 21.210938 11.253906 L 46.753906 11.253906 L 46.753906 16.707031 L 21.210938 16.707031 Z M 21.210938 11.253906 "/>
</g>
</svg>
