<svg xmlns="http://www.w3.org/2000/svg" xmlns:xlink="http://www.w3.org/1999/xlink" width="64" height="64" viewBox="0 0 64 64" version="1.1">
<defs>
<linearGradient id="linear0" gradientUnits="userSpaceOnUse" x1="0" y1="0" x2="0" y2="1" gradientTransform="matrix(64,0,0,62.875,0,0.5625)">
<stop offset="0" style="stop-color:#ff6666;stop-opacity:1;"/>
<stop offset="1" style="stop-color:#d90000;stop-opacity:1;"/>
</linearGradient>
</defs>
<g id="surface1">
<path style=" stroke:none;fill-rule:evenodd;fill:url(#linear0);" d="M 28.296875 1.203125 C 28.707031 0.800781 29.261719 0.570312 29.84375 0.5625 C 30.140625 0.558594 30.4375 0.613281 30.714844 0.722656 C 30.992188 0.832031 31.242188 0.996094 31.453125 1.203125 L 43.695312 13.230469 L 44.242188 12.695312 C 44.660156 12.28125 45.226562 12.050781 45.820312 12.050781 C 46.410156 12.050781 46.980469 12.28125 47.398438 12.695312 L 63.347656 28.363281 C 63.765625 28.773438 64 29.332031 64 29.914062 C 64 30.492188 63.765625 31.050781 63.347656 31.464844 L 51.105469 43.488281 L 51.652344 44.027344 C 52.070312 44.4375 52.304688 44.996094 52.304688 45.578125 C 52.304688 46.160156 52.070312 46.71875 51.652344 47.128906 L 35.703125 62.796875 C 35.285156 63.207031 34.71875 63.4375 34.125 63.4375 C 33.53125 63.4375 32.964844 63.207031 32.546875 62.796875 L 20.304688 50.769531 L 19.757812 51.308594 C 19.339844 51.71875 18.773438 51.949219 18.179688 51.949219 C 17.589844 51.949219 17.019531 51.71875 16.601562 51.308594 L 0.652344 35.640625 C 0.234375 35.226562 0 34.667969 0 34.089844 C 0 33.507812 0.234375 32.949219 0.652344 32.539062 L 12.894531 20.511719 L 12.347656 19.972656 C 11.929688 19.5625 11.695312 19.003906 11.695312 18.421875 C 11.695312 17.839844 11.929688 17.285156 12.347656 16.871094 Z M 25.144531 44.351562 L 46.855469 32 L 25.144531 19.648438 Z M 25.144531 44.351562 "/>
</g>
</svg>
