<svg xmlns="http://www.w3.org/2000/svg" xmlns:xlink="http://www.w3.org/1999/xlink" width="64" height="64" viewBox="0 0 64 64" version="1.1">
<defs> <linearGradient id="linear0" gradientUnits="userSpaceOnUse" x1="0" y1="0" x2="0" y2="1" gradientTransform="matrix(55.992188,0,0,56,4.003906,4)"> <stop offset="0" style="stop-color:#ff6666;stop-opacity:1;"/> <stop offset="1" style="stop-color:#d90000;stop-opacity:1;"/> </linearGradient> </defs>
<g id="surface1">
<path style=" stroke:none;fill-rule:evenodd;fill:url(#linear0);fill-opacity:1;" d="M 13.507812 15.246094 L 13.507812 28.949219 L 21.523438 28.949219 L 21.523438 15.246094 Z M 40.160156 15.246094 L 40.160156 28.949219 L 48.171875 28.949219 L 48.171875 15.246094 L 40.160156 15.246094 M 9.363281 34.59375 C 9.355469 34.597656 9.351562 34.597656 9.347656 34.597656 C 9.347656 34.597656 9.347656 34.597656 9.339844 34.597656 C 9.148438 34.621094 8.976562 34.722656 8.863281 34.882812 C 8.75 35.035156 8.710938 35.234375 8.753906 35.425781 C 9.664062 39.445312 12.519531 42.71875 16.355469 45.039062 C 20.1875 47.363281 25.015625 48.753906 30.011719 49.042969 C 40 49.621094 50.785156 45.707031 55.324219 35.542969 C 55.441406 35.265625 55.363281 34.945312 55.128906 34.753906 C 54.890625 34.566406 54.5625 34.554688 54.3125 34.730469 C 48.105469 39.117188 41.351562 42.222656 33.992188 42.679688 C 26.632812 43.144531 18.625 40.988281 9.804688 34.730469 C 9.699219 34.648438 9.566406 34.605469 9.425781 34.597656 C 9.40625 34.597656 9.386719 34.59375 9.363281 34.59375 "/>
</g>
</svg>
