<svg xmlns="http://www.w3.org/2000/svg" xmlns:xlink="http://www.w3.org/1999/xlink" width="64" height="64" viewBox="0 0 64 64" version="1.1">
<defs>
<linearGradient id="linear0" gradientUnits="userSpaceOnUse" x1="0" y1="0" x2="0" y2="1" gradientTransform="matrix(51.613281,0,0,56.003906,8,4)">
<stop offset="0" style="stop-color:#ff6666;stop-opacity:1;"/>
<stop offset="1" style="stop-color:#d90000;stop-opacity:1;"/>
</linearGradient>
</defs>
<g id="surface1">
<path style=" stroke:none;fill-rule:nonzero;fill:url(#linear0);" d="M 35.867188 4 C 33.46875 4 31.609375 6.101562 31.898438 8.484375 C 31.960938 8.992188 31.992188 9.5 32 10.007812 C 31.996094 16.046875 28.164062 21.34375 22.496094 23.257812 C 21.902344 23.5 20.839844 24.007812 20.355469 24.007812 L 12 24 C 9.785156 24 8 25.785156 8 28 L 8 52 C 8 54.214844 9.785156 56 12 56 L 20 56 L 44.0625 59.890625 C 47.941406 60.5625 51.691406 58.164062 52.710938 54.359375 L 59.351562 29.578125 C 60.644531 24.746094 57.003906 20 52 20 L 46.1875 20 C 46.375 18.742188 46.484375 17.421875 46.484375 16 C 46.484375 13.449219 46.199219 11.148438 45.578125 9.148438 C 45.269531 8.148438 44.898438 7.222656 44.1875 6.257812 C 43.476562 5.292969 42.074219 4 40 4 Z M 36.960938 8.414062 L 40 8.414062 C 40.164062 8.414062 40.378906 8.53125 40.632812 8.875 C 40.886719 9.21875 41.144531 9.765625 41.359375 10.460938 C 41.789062 11.847656 42.070312 13.820312 42.070312 16 C 42.070312 18.117188 41.800781 20.011719 41.390625 21.390625 C 41.308594 21.601562 41.320312 21.839844 41.289062 22.023438 C 41.289062 23.128906 42.183594 24 43.289062 24 L 52 24 C 54.375 24 56.101562 26.253906 55.484375 28.546875 L 48.84375 53.328125 C 48.359375 55.128906 46.582031 56.265625 44.742188 55.945312 L 24 52.367188 L 24 27.332031 C 31.355469 24.777344 36.414062 17.871094 36.414062 10 L 36.414062 9.992188 C 36.410156 9.484375 36.359375 8.988281 36.3125 8.484375 Z M 12 28 L 20 28 L 20 52 L 12 52 Z M 12 28 "/>
</g>
</svg>
