<svg xmlns="http://www.w3.org/2000/svg" xmlns:xlink="http://www.w3.org/1999/xlink" width="64" height="64" viewBox="0 0 64 64" version="1.1">
<defs>
<linearGradient id="linear0" gradientUnits="userSpaceOnUse" x1="0" y1="0" x2="0" y2="1" gradientTransform="matrix(56,0,0,56,4,4)">
<stop offset="0" style="stop-color:#ff6666;stop-opacity:1;"/>
<stop offset="1" style="stop-color:#d90000;stop-opacity:1;"/>
</linearGradient>
<linearGradient id="linear1" gradientUnits="userSpaceOnUse" x1="0" y1="0" x2="0" y2="1" gradientTransform="matrix(39.128906,0,0,34.269531,24.851562,0.0273438)">
<stop offset="0" style="stop-color:#ff6666;stop-opacity:1;"/>
<stop offset="1" style="stop-color:#d90000;stop-opacity:1;"/>
</linearGradient>
</defs>
<g id="surface1">
<path style=" stroke:none;fill-rule:nonzero;fill:url(#linear0);" d="M 44 4 C 21.910156 4 4 21.910156 4 44 C 4.011719 48.628906 4.832031 53.21875 6.414062 57.570312 C 10.769531 59.160156 15.363281 59.984375 20 60 C 27.84375 59.992188 35.515625 57.675781 42.054688 53.34375 C 40.734375 51.875 40.003906 49.972656 40 48 C 40 43.582031 43.582031 40 48 40 C 49.972656 40.003906 51.871094 40.734375 53.335938 42.054688 C 57.671875 35.515625 59.988281 27.847656 60 20 C 59.988281 15.371094 59.167969 10.78125 57.585938 6.429688 C 53.230469 4.839844 48.636719 4.015625 44 4 Z M 43.984375 7.992188 L 44 7.992188 C 47.46875 8.007812 50.871094 8.816406 54.195312 9.820312 C 55.191406 13.140625 55.996094 16.535156 56.007812 20 L 56.007812 20.007812 C 56.007812 25.785156 54.53125 31.53125 51.867188 36.65625 C 50.621094 36.226562 49.316406 36.003906 48 36 C 41.371094 36 36 41.371094 36 48 C 36.003906 49.320312 36.226562 50.628906 36.65625 51.875 C 31.535156 54.535156 25.789062 56.003906 20.015625 56.007812 C 16.539062 55.996094 13.132812 55.183594 9.804688 54.179688 C 8.808594 50.859375 8.003906 47.460938 7.992188 43.992188 C 7.996094 34.570312 11.875 25.203125 18.539062 18.539062 C 25.199219 11.878906 34.5625 7.996094 43.984375 7.992188 Z M 43.984375 7.992188 "/>
<path style=" stroke:none;fill-rule:nonzero;fill:url(#linear1);" d="M 61.910156 0.0273438 C 50.195312 11.300781 37.859375 21.75 24.851562 31.5 L 27.648438 34.296875 C 40.316406 24.6875 52.546875 14.164062 63.980469 3.117188 Z M 61.910156 0.0273438 "/>
</g>
</svg>
