<svg xmlns="http://www.w3.org/2000/svg" xmlns:xlink="http://www.w3.org/1999/xlink" width="64" height="64" viewBox="0 0 64 64" version="1.1">
<defs>
<linearGradient id="linear0" gradientUnits="userSpaceOnUse" x1="0" y1="0" x2="0" y2="1" gradientTransform="matrix(64,0,0,56,0,4)">
<stop offset="0" style="stop-color:#ff6666;stop-opacity:1;"/>
<stop offset="1" style="stop-color:#d90000;stop-opacity:1;"/>
</linearGradient>
</defs>
<g id="surface1">
<path style=" stroke:none;fill-rule:nonzero;fill:url(#linear0);" d="M 12 4 C 9.089844 4 6.679688 9.996094 6.125 18.007812 C 6.082031 18.003906 6.042969 18 6 18 C 3.789062 18 2 19.789062 2 22 C 2.003906 22.976562 2.363281 23.917969 3.015625 24.648438 C 1.128906 25.671875 0 26.796875 0 28 L 0 58 C 0 59.109375 0.890625 60 2 60 L 8.273438 60 C 9.382812 60 10.273438 59.109375 10.273438 58 L 10.273438 49.851562 C 15.976562 51.175781 23.566406 52 32 52 C 40.433594 52 48.023438 51.175781 53.726562 49.851562 L 53.726562 58 C 53.726562 59.109375 54.617188 60 55.726562 60 L 62 60 C 63.109375 60 64 59.109375 64 58 L 64 28 C 64 26.796875 62.875 25.667969 60.992188 24.648438 C 61.640625 23.917969 62 22.976562 62 22 C 62 19.789062 60.210938 18 58 18 C 57.957031 18 57.917969 18 57.875 18 C 57.316406 9.992188 54.910156 4 52 4 Z M 13.34375 8 L 50.65625 8 C 52.507812 8 54 14.242188 54 22 C 54 22.070312 53.992188 22.132812 53.992188 22.203125 C 48.261719 20.84375 40.558594 20 32 20 C 23.445312 20 15.738281 20.835938 10.007812 22.195312 C 10.007812 22.125 10 22.070312 10 22 C 10 14.242188 11.492188 8 13.34375 8 Z M 32 24 C 47.511719 24 60 26.574219 60 29.773438 L 60 42.226562 C 60 45.425781 47.511719 48 32 48 C 16.488281 48 4 45.425781 4 42.226562 L 4 29.773438 C 4 26.574219 16.488281 24 32 24 Z M 12 32 C 9.789062 32 8 33.789062 8 36 C 8 38.210938 9.789062 40 12 40 C 14.210938 40 16 38.210938 16 36 C 16 33.789062 14.210938 32 12 32 Z M 52 32 C 49.789062 32 48 33.789062 48 36 C 48 38.210938 49.789062 40 52 40 C 54.210938 40 56 38.210938 56 36 C 56 33.789062 54.210938 32 52 32 Z M 22 40 C 20.890625 40 20 40.890625 20 42 C 20 43.109375 20.890625 44 22 44 L 42 44 C 43.109375 44 44 43.109375 44 42 C 44 40.890625 43.109375 40 42 40 Z M 22 40 "/>
</g>
</svg>
