<svg xmlns="http://www.w3.org/2000/svg" xmlns:xlink="http://www.w3.org/1999/xlink" width="64" height="64" viewBox="0 0 64 64" version="1.1">
<defs>
<linearGradient id="linear0" gradientUnits="userSpaceOnUse" x1="0" y1="0" x2="0" y2="1" gradientTransform="matrix(64,0,0,64,0,0)">
<stop offset="0" style="stop-color:#ff6666;stop-opacity:1;"/>
<stop offset="1" style="stop-color:#d90000;stop-opacity:1;"/>
</linearGradient>
</defs>
<g id="surface1">
<path style=" stroke:none;fill-rule:nonzero;fill:url(#linear0);" d="M 32 0 C 14.351562 0 0 14.351562 0 32 C 0 49.648438 14.351562 64 32 64 C 49.648438 64 64 49.648438 64 32 C 64 14.351562 49.648438 0 32 0 Z M 32 4 C 32.09375 4 32.179688 4.015625 32.273438 4.015625 C 33.628906 4.027344 34.953125 4.160156 36.257812 4.359375 C 49.710938 6.410156 60 17.964844 60 32 C 60 33.238281 59.898438 34.445312 59.742188 35.640625 C 58.328125 35.425781 56.960938 35.082031 55.625 34.664062 L 57.0625 30.945312 L 53.335938 29.5 L 51.898438 33.203125 C 48.695312 31.667969 45.839844 29.542969 43.453125 26.96875 L 46.507812 24.507812 L 44 21.398438 L 40.945312 23.859375 C 38.972656 21 37.535156 17.757812 36.734375 14.257812 L 40.585938 13.664062 L 39.976562 9.710938 L 36.101562 10.3125 C 36.039062 9.550781 36 8.78125 36 8 C 36 6.761719 36.101562 5.554688 36.257812 4.359375 C 34.953125 4.160156 33.628906 4.027344 32.273438 4.015625 C 32.109375 5.324219 32 6.648438 32 8 C 32 8.984375 32.046875 9.960938 32.132812 10.921875 L 28.117188 11.546875 L 28.726562 15.5 L 32.773438 14.875 C 33.699219 19.074219 35.433594 22.964844 37.835938 26.367188 L 34.65625 28.921875 L 37.164062 32.03125 L 40.34375 29.46875 C 43.175781 32.578125 46.601562 35.132812 50.453125 36.9375 L 49 40.6875 L 52.726562 42.132812 L 54.179688 38.390625 C 55.722656 38.890625 57.304688 39.300781 58.9375 39.5625 C 59.289062 38.304688 59.558594 37.011719 59.734375 35.6875 C 59.558594 37.011719 59.289062 38.304688 58.9375 39.5625 C 55.640625 51.359375 44.863281 60 32 60 C 31.773438 60 31.554688 59.972656 31.328125 59.96875 C 31.605469 57.734375 31.589844 55.4375 31.382812 53.117188 L 35.476562 52.484375 L 34.859375 48.53125 L 30.828125 49.15625 C 29.894531 44.914062 28.128906 41.050781 25.75 37.679688 L 28.9375 35.117188 L 26.429688 32 L 23.210938 34.585938 C 20.363281 31.464844 16.941406 28.941406 13.117188 27.148438 L 14.59375 23.34375 L 10.859375 21.898438 L 9.414062 25.640625 C 7.988281 25.179688 6.535156 24.78125 5.039062 24.523438 C 4.6875 25.792969 4.417969 27.09375 4.25 28.429688 C 5.519531 28.644531 6.753906 28.980469 7.96875 29.359375 L 6.523438 33.085938 L 10.257812 34.53125 L 11.6875 30.835938 C 14.871094 32.363281 17.71875 34.488281 20.117188 37.078125 L 17.078125 39.523438 L 19.585938 42.640625 L 22.632812 40.1875 C 24.582031 43.019531 25.988281 46.253906 26.796875 49.78125 L 23 50.375 L 23.617188 54.328125 L 27.429688 53.734375 C 27.585938 55.714844 27.59375 57.679688 27.351562 59.585938 C 14.089844 57.375 4 45.898438 4 32 C 4 30.789062 4.101562 29.601562 4.25 28.429688 C 4.417969 27.09375 4.6875 25.792969 5.039062 24.523438 C 8.304688 12.683594 19.105469 4 32 4 Z M 27.382812 59.585938 C 28.660156 59.796875 29.960938 59.933594 31.289062 59.96875 C 29.960938 59.933594 28.660156 59.796875 27.382812 59.585938 Z M 27.382812 59.585938 "/>
</g>
</svg>
