<svg xmlns="http://www.w3.org/2000/svg" xmlns:xlink="http://www.w3.org/1999/xlink" width="64" height="64" viewBox="0 0 64 64" version="1.1">
<defs>
<linearGradient id="linear0" gradientUnits="userSpaceOnUse" x1="0" y1="0" x2="0" y2="1" gradientTransform="matrix(56,0,0,51.695312,4,6.152344)">
<stop offset="0" style="stop-color:#ff6666;stop-opacity:1;"/>
<stop offset="1" style="stop-color:#d90000;stop-opacity:1;"/>
</linearGradient>
</defs>
<g id="surface1">
<path style=" stroke:none;fill-rule:nonzero;fill:url(#linear0);" d="M 14.269531 12.125 L 9.074219 19.535156 L 9.074219 46.214844 L 14.269531 53.621094 L 31.9375 53.621094 L 25.703125 44.726562 L 14.269531 44.726562 L 14.269531 37.320312 L 25.703125 37.320312 L 25.703125 28.425781 L 14.269531 28.425781 L 14.269531 21.003906 L 25.703125 21.003906 L 31.9375 12.132812 Z M 37.132812 12.125 L 31.9375 19.535156 L 31.9375 29.90625 L 37.140625 37.320312 L 49.609375 37.320312 L 49.609375 44.726562 L 31.9375 44.726562 L 38.175781 53.621094 L 49.609375 53.621094 L 54.808594 46.214844 L 54.808594 35.835938 L 49.609375 28.425781 L 37.140625 28.425781 L 37.140625 21.003906 L 48.570312 21.003906 L 54.808594 12.117188 Z M 37.132812 12.125 "/>
</g>
</svg>
