<svg xmlns="http://www.w3.org/2000/svg" xmlns:xlink="http://www.w3.org/1999/xlink" width="64" height="64" viewBox="0 0 64 64" version="1.1">
<defs>
<linearGradient id="linear0" gradientUnits="userSpaceOnUse" x1="0" y1="0" x2="0" y2="1" gradientTransform="matrix(64,0,0,53.960938,0,5.019531)">
<stop offset="0" style="stop-color:#ff6666;stop-opacity:1;"/>
<stop offset="1" style="stop-color:#d90000;stop-opacity:1;"/>
</linearGradient>
</defs>
<g id="surface1">
<path style=" stroke:none;fill-rule:evenodd;fill:url(#linear0);" d="M 10.039062 45.933594 L 10.039062 18.066406 C 12.273438 16.929688 13.804688 14.601562 13.804688 11.921875 C 13.804688 8.113281 10.710938 5.019531 6.898438 5.019531 C 3.09375 5.019531 0 8.113281 0 11.921875 C 0 14.601562 1.53125 16.929688 3.765625 18.070312 L 3.765625 45.929688 C 1.53125 47.070312 0 49.398438 0 52.078125 C 0 55.886719 3.09375 58.980469 6.898438 58.980469 C 9.585938 58.980469 11.90625 57.449219 13.050781 55.214844 L 50.949219 55.214844 C 52.09375 57.449219 54.414062 58.980469 57.101562 58.980469 C 60.90625 58.980469 64 55.886719 64 52.078125 C 64 48.269531 60.90625 45.175781 57.101562 45.175781 C 54.421875 45.175781 52.09375 46.707031 50.953125 48.941406 L 13.046875 48.941406 C 12.386719 47.648438 11.332031 46.59375 10.039062 45.933594 Z M 25.671875 39.808594 C 26.445312 39.609375 27.214844 39.410156 27.984375 39.214844 C 30.03125 38.714844 32.054688 38.121094 34.042969 37.40625 C 35.191406 38.351562 36.667969 38.898438 38.277344 38.898438 C 41.851562 38.898438 44.796875 36.175781 45.128906 32.683594 C 46.3125 31.953125 47.421875 31.105469 48.429688 30.144531 C 49.46875 29.101562 50.40625 27.972656 51.234375 26.757812 C 51.640625 26.183594 52.03125 25.613281 52.425781 25.035156 C 52.71875 25.074219 53.023438 25.101562 53.332031 25.101562 C 57.144531 25.101562 60.234375 22.003906 60.234375 18.195312 C 60.234375 14.386719 57.144531 11.296875 53.332031 11.296875 C 49.523438 11.296875 46.433594 14.386719 46.433594 18.195312 C 46.433594 19.371094 46.722656 20.476562 47.296875 21.421875 C 46.898438 22.007812 46.5 22.597656 46.09375 23.179688 C 45.492188 24.054688 44.800781 24.882812 44.046875 25.652344 C 43.621094 26.054688 43.164062 26.425781 42.707031 26.796875 C 41.546875 25.71875 39.984375 25.101562 38.277344 25.101562 C 34.546875 25.101562 31.503906 28.058594 31.386719 31.761719 C 29.761719 32.257812 28.121094 32.726562 26.464844 33.128906 C 26.089844 33.226562 25.707031 33.324219 25.328125 33.421875 C 24.125 31.441406 21.941406 30.117188 19.453125 30.117188 C 15.640625 30.117188 12.546875 33.210938 12.546875 37.019531 C 12.546875 40.828125 15.640625 43.921875 19.453125 43.921875 C 22.253906 43.921875 24.667969 42.246094 25.671875 39.808594 Z M 25.671875 39.808594 "/>
</g>
</svg>
