<svg xmlns="http://www.w3.org/2000/svg" xmlns:xlink="http://www.w3.org/1999/xlink" width="64" height="64" viewBox="0 0 64 64" version="1.1">
<defs>
<linearGradient id="linear0" gradientUnits="userSpaceOnUse" x1="0" y1="0" x2="0" y2="1" gradientTransform="matrix(64,0,0,18.667969,0,45.332031)">
<stop offset="0" style="stop-color:#ff6666;stop-opacity:1;"/>
<stop offset="1" style="stop-color:#d90000;stop-opacity:1;"/>
</linearGradient>
</defs>
<g id="surface1">
<path style=" stroke:none;fill-rule:evenodd;fill:url(#linear0);" d="M 21.441406 54.667969 L 21.332031 54.667969 C 21.332031 59.820312 26.109375 64 32 64 C 37.890625 64 42.667969 59.820312 42.667969 54.667969 L 42.558594 54.667969 C 42.628906 54.230469 42.667969 53.789062 42.667969 53.332031 L 21.332031 53.332031 C 21.332031 53.789062 21.371094 54.230469 21.441406 54.667969 Z M 48.03125 54 C 48.007812 54.21875 48 54.441406 48 54.667969 C 48 59.078125 51.585938 62.667969 56 62.667969 C 60.414062 62.667969 64 59.078125 64 54.667969 C 64 54.441406 63.992188 54.21875 63.96875 54 C 63.992188 53.78125 64 53.558594 64 53.332031 C 64 48.921875 60.414062 45.332031 56 45.332031 C 51.585938 45.332031 48 48.921875 48 53.332031 C 48 53.558594 48.007812 53.78125 48.03125 54 Z M 0.03125 54 C 0.0078125 54.21875 0 54.441406 0 54.667969 C 0 59.078125 3.585938 62.667969 8 62.667969 C 12.414062 62.667969 16 59.078125 16 54.667969 C 16 54.441406 15.992188 54.21875 15.96875 54 C 15.992188 53.78125 16 53.558594 16 53.332031 C 16 48.921875 12.414062 45.332031 8 45.332031 C 3.585938 45.332031 0 48.921875 0 53.332031 C 0 53.558594 0.0078125 53.78125 0.03125 54 Z M 0.03125 54 "/>
</g>
</svg>
