<svg xmlns="http://www.w3.org/2000/svg" xmlns:xlink="http://www.w3.org/1999/xlink" width="64" height="64" viewBox="0 0 64 64" version="1.1">
<defs> <linearGradient id="linear0" gradientUnits="userSpaceOnUse" x1="0" y1="0" x2="0" y2="1" gradientTransform="matrix(55.992188,0,0,56,4.003906,4)"> <stop offset="0" style="stop-color:#ff6666;stop-opacity:1;"/> <stop offset="1" style="stop-color:#d90000;stop-opacity:1;"/> </linearGradient> </defs>
<g id="surface1">
<path style=" stroke:none;fill-rule:nonzero;fill:url(#linear0);fill-opacity:1;" d="M 28.496094 55.8125 C 28.398438 55.714844 27.894531 55.597656 27.363281 55.550781 C 25.378906 55.378906 22.925781 53.074219 16.707031 45.554688 C 10.515625 38.066406 7.671875 35.570312 4.03125 34.425781 C 3.609375 34.292969 4.074219 33.734375 6.898438 30.980469 C 10.714844 27.242188 13.296875 24.53125 19.628906 17.609375 C 24.660156 12.113281 25.347656 11.445312 25.648438 11.78125 C 25.765625 11.90625 26.523438 12.984375 27.335938 14.171875 C 29.386719 17.164062 30.976562 17.972656 32.929688 17 C 34.578125 16.183594 38.167969 11.632812 39.167969 9.089844 C 39.519531 8.199219 39.75 8.222656 40.351562 9.210938 C 41.195312 10.574219 45.613281 16.074219 48.503906 19.351562 C 50.011719 21.058594 53.265625 24.429688 55.738281 26.835938 C 58.203125 29.242188 60.21875 31.3125 60.21875 31.445312 C 60.21875 31.566406 59.546875 31.875 58.730469 32.121094 C 55.167969 33.207031 51.839844 36.03125 42.824219 45.605469 C 35.792969 53.070312 32.578125 55.625 29.910156 55.871094 C 29.226562 55.929688 28.597656 55.902344 28.5 55.8125 M 33.566406 41.960938 C 35.308594 41.460938 35.582031 41.277344 37.921875 39.039062 C 40.351562 36.714844 42.625 33.71875 44.652344 30.160156 C 45.613281 28.484375 45.566406 27.914062 44.457031 27.660156 C 44.0625 27.570312 42.460938 26.949219 40.910156 26.28125 C 35.132812 23.796875 33.277344 23.542969 30.566406 24.855469 C 28.5625 25.824219 23.878906 28.585938 22.363281 29.703125 C 21.730469 30.160156 20.824219 30.675781 20.347656 30.839844 C 19.867188 31.003906 19.421875 31.28125 19.351562 31.453125 C 19.183594 31.878906 22.242188 36.71875 23.757812 38.417969 C 25.222656 40.0625 27.296875 41.613281 28.695312 42.105469 C 30.140625 42.613281 31.4375 42.574219 33.566406 41.957031 "/>
</g>
</svg>
