<svg xmlns="http://www.w3.org/2000/svg" xmlns:xlink="http://www.w3.org/1999/xlink" width="64" height="64" viewBox="0 0 64 64" version="1.1">
<defs> <linearGradient id="linear0" gradientUnits="userSpaceOnUse" x1="0" y1="0" x2="0" y2="1" gradientTransform="matrix(55.992188,0,0,56,4.003906,4)"> <stop offset="0" style="stop-color:#ff6666;stop-opacity:1;"/> <stop offset="1" style="stop-color:#d90000;stop-opacity:1;"/> </linearGradient> </defs>
<g id="surface1">
<path style=" stroke:none;fill-rule:nonzero;fill:url(#linear0);fill-opacity:1;" d="M 41.898438 32.167969 C 41.898438 26.761719 37.484375 22.355469 32.050781 22.355469 C 26.617188 22.355469 22.199219 26.761719 22.199219 32.167969 C 22.199219 37.578125 26.617188 41.980469 32.050781 41.980469 C 34.917969 41.980469 37.484375 40.734375 39.28125 38.773438 L 37.617188 33.484375 L 41.4375 34.960938 C 41.710938 34.074219 41.898438 33.152344 41.898438 32.167969 Z M 32.050781 37.777344 C 28.9375 37.777344 26.417969 35.265625 26.417969 32.167969 C 26.417969 29.074219 28.9375 26.5625 32.050781 26.5625 C 35.15625 26.5625 37.679688 29.074219 37.679688 32.167969 C 37.679688 35.265625 35.15625 37.777344 32.050781 37.777344 Z M 32.050781 37.777344 "/>
<path style=" stroke:none;fill-rule:nonzero;fill:url(#linear0);fill-opacity:1;" d="M 38.210938 42.03125 C 38.605469 41.53125 38.863281 41.175781 39.074219 40.867188 C 37.144531 42.414062 34.71875 43.382812 32.054688 43.382812 C 25.84375 43.382812 20.792969 38.355469 20.792969 32.167969 C 20.792969 25.984375 25.84375 20.957031 32.054688 20.957031 C 38.261719 20.957031 43.3125 25.984375 43.3125 32.167969 C 43.3125 33.328125 43.085938 34.425781 42.753906 35.476562 L 43.078125 35.601562 C 43.949219 35.929688 44.761719 36.351562 45.503906 36.84375 C 45.378906 34.570312 45.851562 32.058594 48.019531 29.578125 L 52.082031 24.917969 L 52.933594 31.023438 C 53.210938 32.988281 55.34375 35.675781 57.238281 38.042969 C 57.828125 38.789062 58.417969 39.542969 58.992188 40.300781 C 59.773438 37.726562 60.207031 35 60.207031 32.171875 C 60.207031 16.695312 47.597656 4.140625 32.054688 4.140625 C 16.507812 4.140625 3.90625 16.695312 3.90625 32.171875 C 3.90625 47.652344 16.507812 60.203125 32.054688 60.203125 C 34.539062 60.203125 36.921875 59.851562 39.21875 59.25 C 36.695312 56.722656 35.152344 53.273438 35.152344 49.535156 C 35.144531 45.863281 36.910156 43.652344 38.210938 42.03125 Z M 38.210938 42.03125 "/>
<path style=" stroke:none;fill-rule:nonzero;fill:url(#linear0);fill-opacity:1;" d="M 48.015625 46.566406 C 47.816406 43.496094 46.351562 39.871094 42.050781 38.207031 C 43.566406 43.042969 37.957031 43.898438 37.957031 49.535156 C 37.957031 54.671875 41.484375 58.945312 46.246094 60.207031 C 44.679688 58.757812 46.816406 55.9375 45.1875 53.894531 C 47.230469 54.539062 49.074219 56.035156 49.074219 58.644531 C 51.125 57.261719 48.570312 53.460938 52.359375 50.949219 C 51.199219 54.371094 54.328125 56.027344 53.816406 58.285156 C 53.671875 58.945312 53.339844 59.453125 52.921875 59.890625 C 57.15625 58.324219 60.195312 54.296875 60.195312 49.535156 C 60.195312 43.421875 50.945312 37.207031 50.136719 31.414062 C 45.1875 37.105469 50.171875 40.695312 48.015625 46.566406 Z M 48.015625 46.566406 "/>
</g>
</svg>
