<svg xmlns="http://www.w3.org/2000/svg" xmlns:xlink="http://www.w3.org/1999/xlink" width="64" height="64" viewBox="0 0 64 64" version="1.1">
<defs>
<linearGradient id="linear0" gradientUnits="userSpaceOnUse" x1="0" y1="0" x2="0" y2="1" gradientTransform="matrix(51.429688,0,0,60,6,2)">
<stop offset="0" style="stop-color:#ff6666;stop-opacity:1;"/>
<stop offset="1" style="stop-color:#d90000;stop-opacity:1;"/>
</linearGradient>
</defs>
<g id="surface1">
<path style=" stroke:none;fill-rule:nonzero;fill:url(#linear0);" d="M 27.625 2.007812 C 25.628906 1.964844 23.898438 2.140625 23.191406 2.335938 C 22.074219 2.632812 20.398438 3.269531 19.714844 4.234375 C 19.25 4.878906 18.855469 5.710938 18.855469 6.863281 C 18.875 9.039062 18.828125 10.835938 18.855469 13.03125 C 18.855469 14.253906 18.433594 14.828125 17.175781 14.855469 L 11.402344 14.855469 C 10.167969 14.855469 9.230469 14.832031 8.519531 15.148438 C 7.800781 15.472656 7.285156 15.894531 6.902344 16.40625 C 6.128906 17.417969 6 19.304688 6 20.574219 C 6 20.574219 6.007812 21.589844 6.265625 23.609375 C 6.484375 25.179688 8.210938 36.046875 9.851562 39.339844 C 10.492188 40.625 10.914062 41.15625 12.164062 41.722656 C 15.761719 42.5625 28.417969 46.773438 29.792969 43.875 C 30.917969 40.929688 31.480469 36.070312 31.714844 34.144531 C 31.714844 35.445312 31.917969 40.703125 35.464844 41.9375 C 36.875 42.421875 39.773438 42.851562 42.730469 43.183594 C 45.40625 43.484375 46.714844 44.507812 46.714844 51.210938 C 46.714844 55.285156 46.464844 55.570312 41.894531 55.570312 C 37.761719 55.570312 36 55.570312 36 53.429688 C 36 51.285156 37.261719 51.285156 40.285156 51.285156 L 40.285156 47 C 34.234375 47 31.714844 47 31.714844 54.0625 C 31.714844 60.5 34.164062 62 42.734375 62 C 49.457031 62 51.828125 61.777344 54.601562 53.378906 C 55.152344 51.71875 56.492188 46.652344 57.292969 38.144531 C 57.796875 32.773438 56.804688 16.546875 56.019531 12.4375 L 56.019531 12.429688 C 55.5625 10.03125 54.113281 8.859375 52.785156 8.394531 C 51.363281 7.886719 48.476562 7.382812 44.859375 6.964844 C 41.9375 6.625 38.070312 6.21875 36 6.285156 C 36 4.785156 35 3.542969 33.667969 3.007812 C 31.886719 2.316406 29.621094 2.050781 27.625 2.007812 Z M 45.644531 27.714844 C 47.417969 27.714844 48.855469 29.632812 48.855469 32 L 42.429688 32 C 42.429688 29.632812 43.867188 27.714844 45.644531 27.714844 Z M 45.644531 27.714844 "/>
</g>
</svg>
