<svg xmlns="http://www.w3.org/2000/svg" xmlns:xlink="http://www.w3.org/1999/xlink" width="64" height="64" viewBox="0 0 64 64" version="1.1">
<defs>
<linearGradient id="linear0" gradientUnits="userSpaceOnUse" x1="0" y1="0" x2="0" y2="1" gradientTransform="matrix(64,0,0,41.042969,0,11.476562)">
<stop offset="0" style="stop-color:#ff6666;stop-opacity:1;"/>
<stop offset="1" style="stop-color:#d90000;stop-opacity:1;"/>
</linearGradient>
</defs>
<g id="surface1">
<path style=" stroke:none;fill-rule:nonzero;fill:url(#linear0);" d="M 0 51.851562 C 10.914062 48.738281 21.234375 43.558594 30.253906 36.664062 C 33.316406 34.324219 36.292969 31.710938 38.160156 28.339844 C 39.09375 26.652344 39.730469 24.789062 39.898438 22.867188 C 40.0625 20.945312 39.738281 18.96875 38.851562 17.253906 C 38.101562 15.808594 36.964844 14.570312 35.621094 13.648438 C 34.277344 12.722656 32.734375 12.105469 31.136719 11.777344 C 27.941406 11.117188 24.597656 11.613281 21.503906 12.648438 C 17.324219 14.046875 13.433594 16.46875 10.625 19.863281 C 7.8125 23.261719 6.140625 27.664062 6.363281 32.066406 C 6.605469 36.859375 9.074219 41.382812 12.585938 44.652344 C 16.097656 47.921875 20.582031 50.011719 25.226562 51.222656 C 32.011719 52.992188 39.257812 52.953125 46.023438 51.105469 C 52.789062 49.257812 59.054688 45.613281 64 40.640625 L 63.949219 27.742188 C 59.582031 34.492188 52.957031 39.75 45.390625 42.46875 C 39.691406 44.515625 33.34375 45.121094 27.5625 43.320312 C 24.671875 42.417969 21.953125 40.925781 19.722656 38.878906 C 17.492188 36.832031 15.757812 34.226562 14.835938 31.34375 C 13.769531 28.003906 13.839844 24.230469 15.441406 21.109375 C 16.242188 19.550781 17.410156 18.171875 18.855469 17.179688 C 20.300781 16.1875 22.023438 15.585938 23.773438 15.519531 C 24.945312 15.476562 26.132812 15.671875 27.210938 16.128906 C 28.292969 16.585938 29.261719 17.3125 29.976562 18.242188 C 30.796875 19.316406 31.257812 20.644531 31.375 21.992188 C 31.488281 23.335938 31.269531 24.699219 30.828125 25.976562 C 29.941406 28.53125 28.207031 30.695312 26.398438 32.703125 C 19.078125 40.851562 10.015625 47.425781 0 51.851562 "/>
</g>
</svg>
