<svg xmlns="http://www.w3.org/2000/svg" xmlns:xlink="http://www.w3.org/1999/xlink" width="64" height="64" viewBox="0 0 64 64" version="1.1">
<defs>
<linearGradient id="linear0" gradientUnits="userSpaceOnUse" x1="0" y1="0" x2="0" y2="1" gradientTransform="matrix(55.882812,0,0,64,4.058594,0)">
<stop offset="0" style="stop-color:#ff6666;stop-opacity:1;"/>
<stop offset="1" style="stop-color:#d90000;stop-opacity:1;"/>
</linearGradient>
</defs>
<g id="surface1">
<path style=" stroke:none;fill-rule:nonzero;fill:url(#linear0);" d="M 24.941406 42.042969 L 22.476562 42.042969 L 22.476562 39.683594 C 22.476562 39.535156 22.351562 39.410156 22.203125 39.410156 L 6.671875 39.410156 C 6.523438 39.410156 6.402344 39.535156 6.402344 39.683594 L 6.402344 42.042969 L 6.257812 42.042969 C 5.042969 42.042969 4.058594 43.023438 4.058594 44.234375 L 4.058594 61.808594 C 4.058594 63.015625 5.042969 64 6.257812 64 L 57.742188 64 C 58.957031 64 59.941406 63.015625 59.941406 61.808594 L 59.941406 44.234375 C 59.941406 43.023438 58.957031 42.042969 57.742188 42.042969 L 57.597656 42.042969 L 57.597656 39.683594 C 57.597656 39.535156 57.476562 39.410156 57.328125 39.410156 L 41.796875 39.410156 C 41.648438 39.410156 41.523438 39.535156 41.523438 39.683594 L 41.523438 42.042969 L 37.441406 42.042969 L 37.441406 35.929688 C 37.441406 35.664062 37.222656 35.449219 36.960938 35.449219 L 34.355469 35.449219 L 34.355469 21.800781 C 37.46875 21.007812 40.210938 18.867188 41.667969 15.726562 C 44.234375 10.179688 41.824219 3.601562 36.277344 1.027344 C 30.726562 -1.539062 24.148438 0.871094 21.574219 6.414062 C 19.007812 11.964844 21.414062 18.542969 26.964844 21.117188 L 26.96875 21.121094 C 27.316406 21.28125 27.671875 21.425781 28.027344 21.542969 L 28.027344 35.449219 L 25.425781 35.449219 C 25.15625 35.449219 24.941406 35.664062 24.941406 35.929688 Z M 24.941406 42.042969 "/>
</g>
</svg>
