<svg xmlns="http://www.w3.org/2000/svg" xmlns:xlink="http://www.w3.org/1999/xlink" width="64" height="64" viewBox="0 0 64 64" version="1.1">
<defs> <linearGradient id="linear0" gradientUnits="userSpaceOnUse" x1="0" y1="0" x2="0" y2="1" gradientTransform="matrix(55.992188,0,0,56,4.003906,4)"> <stop offset="0" style="stop-color:#ff6666;stop-opacity:1;"/> <stop offset="1" style="stop-color:#d90000;stop-opacity:1;"/> </linearGradient> </defs>
<g id="surface1">
<path style=" stroke:none;fill-rule:nonzero;fill:url(#linear0);fill-opacity:1;" d="M 32.054688 -10.292969 C 8.515625 -10.292969 -10.585938 8.730469 -10.585938 32.171875 C -10.585938 55.613281 8.515625 74.640625 32.054688 74.640625 C 55.59375 74.640625 74.699219 55.613281 74.699219 32.171875 C 74.699219 8.730469 55.59375 -10.292969 32.054688 -10.292969 Z M 17.121094 8.222656 C 22.242188 8.003906 60.070312 29.84375 60.070312 33.226562 C 60.070312 36.714844 19.714844 59.90625 16.683594 58.160156 C 13.652344 56.417969 13.652344 10.03125 16.683594 8.285156 C 16.78125 8.226562 16.949219 8.226562 17.121094 8.222656 Z M 17.121094 8.222656 "/>
</g>
</svg>
