<svg xmlns="http://www.w3.org/2000/svg" xmlns:xlink="http://www.w3.org/1999/xlink" width="64" height="64" viewBox="0 0 64 64" version="1.1">
<defs>
<linearGradient id="linear0" gradientUnits="userSpaceOnUse" x1="0" y1="0" x2="0" y2="1" gradientTransform="matrix(64,0,0,64,0,0)">
<stop offset="0" style="stop-color:#ff6666;stop-opacity:1;"/>
<stop offset="1" style="stop-color:#d90000;stop-opacity:1;"/>
</linearGradient>
</defs>
<g id="surface1">
<path style=" stroke:none;fill-rule:evenodd;fill:url(#linear0);" d="M 0 0 C 7.859375 8.277344 4.449219 13.574219 8.761719 23.328125 C 12.765625 32.375 21.476562 25.601562 27.441406 32 C 21.476562 38.398438 12.734375 31.59375 8.734375 40.644531 C 4.417969 50.394531 7.859375 55.722656 0 64 C 8.277344 56.140625 13.605469 59.582031 23.355469 55.265625 C 32.40625 51.265625 25.632812 42.554688 32.03125 36.589844 C 38.382812 42.554688 31.636719 51.300781 40.671875 55.296875 C 50.425781 59.609375 55.71875 56.136719 64 64 C 56.136719 55.71875 59.609375 50.425781 55.296875 40.671875 C 51.300781 31.636719 42.582031 38.351562 36.617188 32 C 42.582031 25.648438 51.300781 32.363281 55.296875 23.328125 C 59.609375 13.574219 56.136719 8.28125 64 0 C 55.71875 7.863281 50.425781 4.390625 40.671875 8.703125 C 31.636719 12.699219 38.382812 21.445312 32.03125 27.410156 C 25.632812 21.445312 32.40625 12.734375 23.355469 8.734375 C 13.605469 4.417969 8.277344 7.859375 0 0 Z M 0 0 "/>
</g>
</svg>
