<svg xmlns="http://www.w3.org/2000/svg" xmlns:xlink="http://www.w3.org/1999/xlink" width="64" height="64" viewBox="0 0 64 64" version="1.1">
<defs> <linearGradient id="linear0" gradientUnits="userSpaceOnUse" x1="0" y1="0" x2="0" y2="1" gradientTransform="matrix(55.992188,0,0,56,4.003906,4)"> <stop offset="0" style="stop-color:#ff6666;stop-opacity:1;"/> <stop offset="1" style="stop-color:#d90000;stop-opacity:1;"/> </linearGradient> </defs>
<g id="surface1">
<path style=" stroke:none;fill-rule:nonzero;fill:url(#linear0);fill-opacity:1;" d="M 19.679688 9.902344 C 15.292969 9.902344 11.65625 13.425781 11.65625 17.804688 C 11.65625 22.1875 15.285156 25.792969 19.679688 25.792969 C 24.082031 25.792969 27.699219 22.179688 27.699219 17.804688 C 27.699219 13.425781 24.078125 9.902344 19.679688 9.902344 Z M 43.191406 25.8125 C 39.5625 25.894531 36.765625 28.203125 34.316406 30.964844 C 31.792969 33.8125 29.640625 37.179688 27.117188 39.429688 C 24.929688 41.171875 23.933594 41.476562 22.4375 39.308594 C 20.003906 35.859375 17.695312 34 15.574219 33.429688 C 13.214844 32.789062 11.070312 33.851562 9.300781 35.78125 C 5.761719 39.636719 3.46875 47.136719 2.46875 53.914062 L 2.371094 54.445312 L 61.738281 54.445312 L 61.460938 53.800781 C 58.808594 47.523438 56.964844 40.652344 54.449219 35.246094 C 53.191406 32.546875 51.777344 30.164062 50.019531 28.492188 C 48.265625 26.816406 46.132812 25.84375 43.554688 25.8125 L 43.550781 25.8125 C 43.429688 25.8125 43.3125 25.8125 43.191406 25.8125 Z M 43.191406 25.8125 "/>
</g>
</svg>
