<svg xmlns="http://www.w3.org/2000/svg" xmlns:xlink="http://www.w3.org/1999/xlink" width="64" height="64" viewBox="0 0 64 64" version="1.1">
<defs>
<linearGradient id="linear0" gradientUnits="userSpaceOnUse" x1="0" y1="0" x2="0" y2="1" gradientTransform="matrix(40.957031,0,0,64,11.519531,0)">
<stop offset="0" style="stop-color:#ff6666;stop-opacity:1;"/>
<stop offset="1" style="stop-color:#d90000;stop-opacity:1;"/>
</linearGradient>
</defs>
<g id="surface1">
<path style=" stroke:none;fill-rule:nonzero;fill:url(#linear0);" d="M 32 0 C 37.121094 0 44.140625 3.839844 43.519531 14.078125 C 43.03125 23.039062 37.476562 28.160156 37.476562 28.160156 L 52.003906 28.160156 C 54.203125 28.160156 48.15625 33.796875 46.078125 35.839844 C 42.449219 33.132812 36.285156 33.28125 34.984375 33.28125 C 34.558594 33.28125 33.28125 48.640625 37.121094 52.480469 C 38.578125 53.941406 39.71875 54.984375 39.753906 55.847656 C 39.777344 56.5 39.484375 57.070312 38.910156 57.601562 L 32 64 L 25.214844 57.601562 C 24.6875 57.101562 24.390625 56.570312 24.375 55.972656 C 24.351562 55.085938 25.347656 54.011719 26.878906 52.480469 C 30.71875 48.640625 29.441406 33.28125 29.070312 33.28125 C 27.773438 33.28125 21.550781 33.183594 17.921875 35.839844 C 15.84375 33.796875 9.691406 28.160156 12.050781 28.160156 L 26.539062 28.160156 C 26.539062 28.160156 21.070312 23.039062 20.480469 14.078125 C 19.886719 3.839844 26.878906 0 32 0 Z M 25.601562 14.078125 C 25.601562 19.199219 28.472656 24.320312 32 24.320312 C 35.527344 24.320312 38.398438 19.199219 38.398438 14.078125 C 38.398438 7.898438 34.558594 5.121094 32 5.121094 C 29.441406 5.121094 25.601562 7.898438 25.601562 14.078125 Z M 25.601562 14.078125 "/>
</g>
</svg>
