<svg xmlns="http://www.w3.org/2000/svg" xmlns:xlink="http://www.w3.org/1999/xlink" width="64" height="64" viewBox="0 0 64 64" version="1.1">
<defs> <linearGradient id="linear0" gradientUnits="userSpaceOnUse" x1="0" y1="0" x2="0" y2="1" gradientTransform="matrix(55.992188,0,0,56,4.003906,4)"> <stop offset="0" style="stop-color:#ff6666;stop-opacity:1;"/> <stop offset="1" style="stop-color:#d90000;stop-opacity:1;"/> </linearGradient> </defs>
<g id="surface1">
<path style=" stroke:none;fill-rule:nonzero;fill:url(#linear0);fill-opacity:1;" d="M 6.339844 11.695312 L 6.339844 13.402344 C 11.605469 13.757812 11.726562 13.878906 11.726562 17.191406 L 11.726562 39.136719 C 13.707031 39.117188 15.679688 39.09375 17.660156 39.089844 L 17.660156 33.292969 L 26.035156 33.292969 C 31.125 33.292969 31.363281 34.710938 31.902344 38.5 L 33.695312 38.5 L 33.695312 25.828125 L 31.902344 25.828125 C 31.363281 29.617188 31.125 31.054688 26.035156 31.054688 L 17.660156 31.054688 L 17.660156 15.890625 C 17.660156 13.941406 17.898438 13.765625 19.875 13.765625 L 25.792969 13.765625 C 32.738281 13.765625 34.113281 15.121094 34.953125 21.164062 L 36.746094 21.164062 L 36.746094 11.695312 Z M 41.070312 11.695312 L 41.070312 13.402344 C 46.332031 13.757812 46.453125 13.878906 46.453125 17.191406 L 46.453125 39.101562 C 48.421875 39.09375 50.398438 39.101562 52.375 39.089844 L 52.375 17.191406 C 52.375 13.878906 52.550781 13.757812 57.757812 13.402344 L 57.757812 11.695312 Z M 11.726562 47.816406 C 11.683594 50.480469 11.226562 50.609375 6.339844 50.9375 L 6.339844 52.652344 L 23.996094 52.652344 L 23.996094 50.9375 C 18.324219 50.609375 17.726562 50.480469 17.671875 47.878906 C 16.046875 47.878906 14.429688 47.882812 12.808594 47.890625 C 12.453125 47.851562 12.089844 47.820312 11.726562 47.816406 Z M 52.382812 47.84375 C 50.40625 47.867188 48.421875 47.882812 46.445312 47.894531 C 46.394531 50.480469 45.90625 50.609375 41.070312 50.9375 L 41.070312 52.652344 L 57.757812 52.652344 L 57.757812 50.9375 C 52.941406 50.609375 52.433594 50.480469 52.382812 47.84375 Z M 52.382812 47.84375 "/>
</g>
</svg>
