<svg xmlns="http://www.w3.org/2000/svg" xmlns:xlink="http://www.w3.org/1999/xlink" width="64" height="64" viewBox="0 0 64 64" version="1.1">
<defs> <linearGradient id="linear0" gradientUnits="userSpaceOnUse" x1="0" y1="0" x2="0" y2="1" gradientTransform="matrix(55.992188,0,0,56,4.003906,4)"> <stop offset="0" style="stop-color:#ff6666;stop-opacity:1;"/> <stop offset="1" style="stop-color:#d90000;stop-opacity:1;"/> </linearGradient> </defs>
<g id="surface1">
<path style=" stroke:none;fill-rule:nonzero;fill:url(#linear0);fill-opacity:1;" d="M 42.273438 30.554688 C 42.273438 35.785156 38.011719 40.035156 32.761719 40.035156 C 27.507812 40.035156 23.246094 35.785156 23.246094 30.554688 C 23.246094 25.324219 27.507812 21.082031 32.761719 21.082031 C 38.011719 21.082031 42.273438 25.324219 42.273438 30.554688 Z M 42.273438 30.554688 "/>
<path style=" stroke:none;fill-rule:nonzero;fill:url(#linear0);fill-opacity:1;" d="M 37.523438 2.613281 C 34.894531 2.613281 32.761719 4.734375 32.761719 7.351562 L 32.761719 16.34375 C 37.097656 16.347656 41.203125 18.316406 43.90625 21.695312 C 47.660156 20.886719 50.832031 20.136719 54.039062 19.390625 C 58.292969 18.390625 56.570312 14.703125 54.867188 12.617188 C 50.71875 7.53125 44.925781 4.027344 38.472656 2.707031 C 38.160156 2.648438 37.84375 2.613281 37.523438 2.613281 Z M 37.523438 2.613281 "/>
<path style=" stroke:none;fill-rule:nonzero;fill:url(#linear0);fill-opacity:1;" d="M 60.8125 35.296875 C 60.820312 32.449219 58.683594 30.554688 56.054688 30.554688 L 47.027344 30.554688 C 46.964844 34.808594 44.992188 38.800781 41.652344 41.453125 C 42.464844 45.242188 43.210938 48.5625 43.96875 51.875 C 44.96875 56.140625 48.671875 54.246094 50.769531 52.351562 C 55.875 48.558594 59.394531 42.875 60.722656 36.246094 C 60.785156 35.769531 60.8125 35.769531 60.8125 35.296875 Z M 60.8125 35.296875 "/>
<path style=" stroke:none;fill-rule:nonzero;fill:url(#linear0);fill-opacity:1;" d="M 27.988281 58.511719 C 30.621094 58.511719 32.753906 56.617188 32.753906 53.769531 L 32.753906 44.769531 C 28.4375 44.800781 24.339844 42.882812 21.605469 39.558594 C 17.847656 40.035156 14.679688 40.980469 11.476562 41.929688 C 7.222656 42.875 8.941406 46.191406 10.640625 48.5625 C 14.796875 53.769531 20.589844 57.085938 27.042969 58.511719 Z M 27.988281 58.511719 "/>
<path style=" stroke:none;fill-rule:nonzero;fill:url(#linear0);fill-opacity:1;" d="M 4.699219 25.816406 C 4.695312 28.660156 6.824219 30.554688 9.460938 30.554688 L 18.488281 30.554688 C 18.550781 26.308594 20.523438 22.308594 23.859375 19.65625 C 23.050781 15.867188 22.300781 12.554688 21.542969 9.242188 C 20.542969 4.976562 16.835938 6.871094 14.746094 8.765625 C 9.636719 12.554688 6.121094 18.238281 4.792969 24.871094 C 4.734375 25.347656 4.699219 25.347656 4.699219 25.816406 Z M 4.699219 25.816406 "/>
</g>
</svg>
