<svg xmlns="http://www.w3.org/2000/svg" xmlns:xlink="http://www.w3.org/1999/xlink" width="64" height="64" viewBox="0 0 64 64" version="1.1">
<defs> <linearGradient id="linear0" gradientUnits="userSpaceOnUse" x1="0" y1="0" x2="0" y2="1" gradientTransform="matrix(55.992188,0,0,56,4.003906,4)"> <stop offset="0" style="stop-color:#ff6666;stop-opacity:1;"/> <stop offset="1" style="stop-color:#d90000;stop-opacity:1;"/> </linearGradient> </defs>
<g id="surface1">
<path style=" stroke:none;fill-rule:nonzero;fill:url(#linear0);fill-opacity:1;" d="M 33.4375 4.132812 C 18.085938 4.132812 5.65625 15.910156 5.65625 30.4375 C 5.65625 36.035156 7.5 41.226562 10.65625 45.496094 L 4.53125 57.378906 L 4.371094 57.683594 L 4.683594 57.519531 L 16.257812 51.101562 C 20.980469 54.625 26.945312 56.742188 33.4375 56.742188 C 48.78125 56.742188 61.230469 44.960938 61.230469 30.4375 C 61.230469 15.910156 48.78125 4.132812 33.4375 4.132812 Z M 54.835938 22.195312 C 54.941406 22.207031 54.761719 22.429688 54.410156 22.832031 C 52.722656 24.757812 37.324219 40.910156 37.179688 40.910156 C 37.09375 40.910156 35.117188 38.976562 32.792969 36.613281 L 28.5625 32.316406 L 23.066406 35.386719 C 20.039062 37.070312 16.359375 39.101562 14.894531 39.894531 L 12.226562 41.335938 L 13.589844 39.875 C 19.722656 33.296875 30.160156 22.316406 30.273438 22.316406 C 30.347656 22.316406 32.324219 24.253906 34.65625 26.625 L 38.90625 30.933594 L 44.527344 27.789062 C 47.621094 26.058594 51.300781 24.019531 52.699219 23.261719 C 54.074219 22.515625 54.691406 22.179688 54.835938 22.195312 Z M 54.835938 22.195312 "/>
</g>
</svg>
