<svg xmlns="http://www.w3.org/2000/svg" xmlns:xlink="http://www.w3.org/1999/xlink" width="64" height="64" viewBox="0 0 64 64" version="1.1">
<defs> <linearGradient id="linear0" gradientUnits="userSpaceOnUse" x1="0" y1="0" x2="0" y2="1" gradientTransform="matrix(55.992188,0,0,56,4.003906,4)"> <stop offset="0" style="stop-color:#ff6666;stop-opacity:1;"/> <stop offset="1" style="stop-color:#d90000;stop-opacity:1;"/> </linearGradient> </defs>
<g id="surface1">
<path style=" stroke:none;fill-rule:nonzero;fill:url(#linear0);fill-opacity:1;" d="M 37.628906 6.089844 C 23.828125 6.089844 12.632812 17.226562 12.628906 30.96875 L 12.628906 52.023438 C 12.628906 54.160156 14.355469 55.890625 16.507812 55.890625 L 37.644531 55.890625 C 51.449219 55.886719 62.636719 44.734375 62.636719 30.984375 C 62.636719 17.230469 51.4375 6.089844 37.628906 6.089844 M 45.164062 11.535156 C 46.167969 11.535156 46.890625 11.65625 47.816406 11.898438 C 49.171875 12.253906 50.273438 13.363281 50.273438 14.648438 C 50.273438 16.203125 49.144531 17.332031 47.445312 17.332031 C 46.640625 17.332031 46.351562 17.179688 45.164062 17.179688 C 41.675781 17.179688 38.84375 19.996094 38.835938 23.476562 L 38.835938 28.921875 C 38.835938 29.414062 39.238281 29.808594 39.734375 29.808594 L 43.890625 29.808594 C 45.4375 29.808594 46.691406 31.046875 46.691406 32.589844 C 46.691406 34.140625 45.4375 35.375 43.890625 35.375 L 38.835938 35.375 L 38.835938 41.726562 C 38.835938 48.320312 33.476562 53.667969 26.855469 53.667969 C 25.847656 53.667969 25.132812 53.550781 24.203125 53.308594 C 22.84375 52.957031 21.742188 51.847656 21.742188 50.558594 C 21.742188 49.003906 22.875 47.878906 24.570312 47.878906 C 25.378906 47.878906 25.671875 48.023438 26.855469 48.023438 C 30.347656 48.023438 33.175781 45.207031 33.179688 41.738281 L 33.179688 36.261719 C 33.179688 35.769531 32.777344 35.375 32.28125 35.375 L 28.125 35.375 C 26.582031 35.375 25.328125 34.136719 25.328125 32.589844 C 25.328125 31.035156 26.585938 29.808594 28.15625 29.808594 L 33.179688 29.808594 L 33.179688 23.480469 C 33.179688 16.886719 38.542969 11.535156 45.164062 11.535156 "/>
</g>
</svg>
