<svg xmlns="http://www.w3.org/2000/svg" xmlns:xlink="http://www.w3.org/1999/xlink" width="64" height="64" viewBox="0 0 64 64" version="1.1">
<defs> <linearGradient id="linear0" gradientUnits="userSpaceOnUse" x1="0" y1="0" x2="0" y2="1" gradientTransform="matrix(55.992188,0,0,56,4.003906,4)"> <stop offset="0" style="stop-color:#ff6666;stop-opacity:1;"/> <stop offset="1" style="stop-color:#d90000;stop-opacity:1;"/> </linearGradient> </defs>
<g id="surface1">
<path style=" stroke:none;fill-rule:nonzero;fill:url(#linear0);fill-opacity:1;" d="M 22.082031 16.207031 C 22.675781 12.820312 23.230469 9.425781 23.878906 6.050781 C 25.160156 6.457031 26.496094 6.695312 27.84375 6.742188 C 31.050781 6.84375 34.253906 6.773438 37.460938 6.792969 C 40.171875 6.773438 42.949219 6.90625 45.5625 6.0625 C 46.128906 9.449219 46.828125 12.832031 47.28125 16.238281 C 46.832031 16.28125 46.390625 16.339844 45.941406 16.394531 C 44.875 13.957031 43.636719 11.414062 41.402344 9.828125 C 40.125 8.941406 38.574219 8.589844 37.042969 8.515625 C 37.015625 18.355469 37.023438 28.191406 37.003906 38.03125 C 37.949219 38.15625 38.898438 38.246094 39.847656 38.367188 C 39.84375 38.949219 39.84375 39.535156 39.84375 40.125 C 36.410156 40.113281 32.980469 40.117188 29.550781 40.117188 C 29.558594 39.546875 29.550781 38.976562 29.527344 38.40625 C 30.472656 38.214844 31.4375 38.171875 32.386719 38.039062 C 32.390625 28.203125 32.386719 18.367188 32.378906 8.535156 C 30.453125 8.566406 28.488281 9.207031 27.105469 10.570312 C 25.410156 12.152344 24.417969 14.296875 23.496094 16.378906 C 23.027344 16.34375 22.554688 16.289062 22.082031 16.207031 Z M 22.082031 16.207031 "/>
<path style=" stroke:none;fill-rule:nonzero;fill:url(#linear0);fill-opacity:1;" d="M 19.992188 18.652344 C 21.605469 18.640625 23.21875 18.425781 24.765625 17.945312 C 25.542969 21.507812 26.359375 25.054688 27.09375 28.628906 C 26.542969 28.707031 25.984375 28.78125 25.429688 28.859375 C 23.984375 25.613281 21.707031 22.402344 18.214844 21.167969 C 15.859375 20.234375 13.292969 20.472656 10.8125 20.507812 C 10.726562 24.996094 10.789062 29.492188 10.765625 33.984375 C 12.601562 33.933594 14.71875 34.289062 16.257812 33.054688 C 17.402344 31.914062 17.746094 30.238281 18.113281 28.71875 C 18.664062 28.710938 19.222656 28.707031 19.773438 28.710938 C 19.777344 32.808594 19.765625 36.902344 19.761719 40.996094 C 19.222656 40.988281 18.683594 40.996094 18.140625 40.996094 C 17.695312 39.433594 17.421875 37.601562 16.082031 36.511719 C 14.484375 35.464844 12.464844 35.785156 10.65625 35.726562 C 10.652344 40.457031 10.644531 45.1875 10.652344 49.917969 C 11.601562 50.050781 12.554688 50.117188 13.496094 50.28125 C 13.492188 50.839844 13.484375 51.402344 13.492188 51.957031 C 10.054688 51.96875 6.625 51.945312 3.191406 51.96875 C 3.199219 51.390625 3.199219 50.820312 3.199219 50.246094 C 4.132812 50.082031 5.148438 50.152344 6.027344 49.839844 C 6.023438 40.148438 6.035156 30.449219 5.988281 20.753906 C 5.046875 20.675781 4.117188 20.558594 3.179688 20.4375 L 3.179688 18.652344 C 8.785156 18.652344 14.390625 18.652344 19.992188 18.652344 Z M 19.992188 18.652344 "/>
<path style=" stroke:none;fill-rule:nonzero;fill:url(#linear0);fill-opacity:1;" d="M 42.265625 18.65625 C 45.90625 18.652344 49.542969 18.652344 53.183594 18.652344 C 55.980469 18.644531 58.878906 18.675781 61.507812 19.75 C 63.386719 20.449219 65.015625 21.976562 65.535156 23.9375 C 66.078125 26.03125 66.015625 28.421875 64.824219 30.289062 C 63.433594 32.316406 61.011719 33.394531 58.65625 33.847656 C 61.28125 34.496094 63.910156 35.695312 65.597656 37.875 C 67 39.71875 67.375 42.144531 67.101562 44.394531 C 66.929688 46.464844 65.929688 48.476562 64.265625 49.753906 C 62.246094 51.324219 59.617188 51.84375 57.113281 51.945312 C 52.171875 51.96875 47.230469 51.933594 42.285156 51.960938 C 42.296875 51.390625 42.300781 50.820312 42.296875 50.246094 C 43.25 50.128906 44.210938 50.078125 45.152344 49.886719 C 45.082031 40.175781 45.144531 30.464844 45.078125 20.753906 C 44.140625 20.671875 43.203125 20.550781 42.265625 20.445312 C 42.265625 19.84375 42.265625 19.25 42.265625 18.65625 M 49.886719 20.511719 C 49.8125 24.675781 49.875 28.84375 49.847656 33.003906 C 52.632812 32.953125 55.566406 33.117188 58.15625 31.925781 C 59.792969 31.199219 60.9375 29.582031 61.144531 27.824219 C 61.324219 26.21875 61.222656 24.480469 60.34375 23.078125 C 59.703125 22.015625 58.53125 21.421875 57.378906 21.070312 C 54.953125 20.332031 52.390625 20.421875 49.886719 20.511719 M 49.742188 34.882812 C 49.746094 39.914062 49.734375 44.953125 49.746094 49.988281 C 52.1875 50.40625 54.726562 50.378906 57.140625 49.777344 C 58.769531 49.347656 60.398438 48.445312 61.183594 46.894531 C 62.097656 45.128906 62.21875 43.058594 61.996094 41.113281 C 61.761719 39.089844 60.574219 37.195312 58.792969 36.171875 C 56.09375 34.53125 52.777344 34.609375 49.742188 34.882812 Z M 49.742188 34.882812 "/>
</g>
</svg>
