<svg xmlns="http://www.w3.org/2000/svg" xmlns:xlink="http://www.w3.org/1999/xlink" width="64" height="64" viewBox="0 0 64 64" version="1.1">
<defs>
<linearGradient id="linear0" gradientUnits="userSpaceOnUse" x1="0" y1="0" x2="0" y2="1" gradientTransform="matrix(64,0,0,45.523438,0,9.238281)">
<stop offset="0" style="stop-color:#ff6666;stop-opacity:1;"/>
<stop offset="1" style="stop-color:#d90000;stop-opacity:1;"/>
</linearGradient>
</defs>
<g id="surface1">
<path style=" stroke:none;fill-rule:evenodd;fill:url(#linear0);" d="M 57.398438 34.324219 L 52.121094 34.324219 L 52.121094 54.125 L 45.519531 54.125 L 45.519531 9.238281 L 52.121094 9.238281 L 52.121094 27.722656 L 57.398438 27.722656 L 57.398438 9.238281 L 64 9.238281 L 64 54.125 L 57.398438 54.125 Z M 29.042969 48.160156 L 29.042969 34.324219 L 41.558594 34.324219 L 41.558594 27.722656 L 29.042969 27.722656 L 29.042969 15.839844 L 41.558594 15.839844 L 41.558594 9.238281 L 23.074219 9.238281 L 23.074219 9.875 L 22.441406 9.875 L 22.441406 54.761719 L 40.925781 54.761719 L 40.925781 48.160156 Z M 6.601562 34.957031 L 6.601562 54.761719 L 0 54.761719 L 0 9.875 L 18.480469 9.875 L 18.480469 16.476562 L 6.601562 16.476562 L 6.601562 28.355469 L 18.480469 28.355469 L 18.480469 34.957031 Z M 6.601562 34.957031 "/>
</g>
</svg>
