<svg xmlns="http://www.w3.org/2000/svg" xmlns:xlink="http://www.w3.org/1999/xlink" width="64" height="64" viewBox="0 0 64 64" version="1.1">
<defs>
<linearGradient id="linear0" gradientUnits="userSpaceOnUse" x1="0" y1="0" x2="0" y2="1" gradientTransform="matrix(58.929688,0,0,64,2.535156,0)">
<stop offset="0" style="stop-color:#ff6666;stop-opacity:1;"/>
<stop offset="1" style="stop-color:#d90000;stop-opacity:1;"/>
</linearGradient>
</defs>
<g id="surface1">
<path style=" stroke:none;fill-rule:evenodd;fill:url(#linear0);" d="M 29.191406 31.523438 L 29.191406 64 L 34.808594 64 L 34.808594 31.523438 C 37.285156 30.441406 39.015625 27.96875 39.015625 25.09375 C 39.015625 21.21875 35.871094 18.074219 32 18.074219 C 28.128906 18.074219 24.984375 21.21875 24.984375 25.09375 C 24.984375 27.96875 26.714844 30.441406 29.191406 31.523438 Z M 45.949219 0 L 43.433594 5.03125 C 51.035156 8.828125 55.84375 16.59375 55.851562 25.09375 C 55.847656 33.59375 51.042969 41.363281 43.441406 45.164062 L 45.941406 50.160156 C 55.441406 45.414062 61.453125 35.710938 61.464844 25.09375 C 61.460938 14.464844 55.457031 4.753906 45.949219 0 Z M 18.058594 0.0195312 C 8.558594 4.769531 2.546875 14.472656 2.535156 25.09375 C 2.539062 35.71875 8.542969 45.433594 18.050781 50.183594 L 20.566406 45.152344 C 12.964844 41.355469 8.15625 33.59375 8.148438 25.09375 C 8.152344 16.59375 12.957031 8.820312 20.558594 5.019531 Z M 40.929688 10.035156 L 38.421875 15.058594 C 42.21875 16.960938 44.625 20.84375 44.628906 25.09375 C 44.628906 29.339844 42.222656 33.226562 38.425781 35.128906 L 40.925781 40.132812 C 46.625 37.285156 50.230469 31.464844 50.238281 25.09375 C 50.238281 18.714844 46.632812 12.882812 40.929688 10.035156 Z M 23.074219 10.050781 C 17.375 12.898438 13.769531 18.71875 13.761719 25.09375 C 13.761719 31.46875 17.367188 37.296875 23.070312 40.148438 L 25.578125 35.125 C 21.78125 33.222656 19.375 29.339844 19.371094 25.09375 C 19.371094 20.839844 21.777344 16.957031 25.574219 15.054688 Z M 23.074219 10.050781 "/>
</g>
</svg>
