<svg xmlns="http://www.w3.org/2000/svg" xmlns:xlink="http://www.w3.org/1999/xlink" width="64px" height="64px" viewBox="0 0 64 64" version="1.1">
<defs>
<linearGradient id="linear0" gradientUnits="userSpaceOnUse" x1="0" y1="0" x2="0" y2="1" gradientTransform="matrix(64,0,0,56,0,4)">
<stop offset="0" style="stop-color:#ff6666;stop-opacity:1;"/>
<stop offset="1" style="stop-color:#d90000;stop-opacity:1;"/>
</linearGradient>
</defs>
<g id="surface1">
<path style=" stroke:none;fill-rule:nonzero;fill:url(#linear0);" d="M 15.976562 4 C 10.945312 4.058594 7.261719 3.882812 4.246094 5.546875 C 2.6875 6.433594 1.496094 7.84375 0.886719 9.53125 C 0.230469 11.285156 0 13.371094 0 16 L 0 48 C 0 50.632812 0.230469 52.714844 0.890625 54.46875 C 1.546875 56.222656 2.742188 57.628906 4.253906 58.460938 C 7.261719 60.125 10.945312 59.941406 15.976562 60 L 48.023438 60 C 53.054688 59.941406 56.738281 60.121094 59.753906 58.460938 C 61.257812 57.632812 62.453125 56.21875 63.113281 54.46875 C 63.769531 52.714844 64 50.628906 64 48 L 64 24 C 64 21.367188 63.769531 19.285156 63.109375 17.53125 C 63.027344 17.3125 62.914062 17.117188 62.8125 16.914062 L 62.703125 16.6875 C 62.054688 15.367188 61.027344 14.273438 59.753906 13.539062 C 56.738281 11.875 53.054688 12.058594 48.023438 12 L 35.867188 12 L 27.78125 4 Z M 15.976562 4 "/>
</g>
</svg>
