<svg xmlns="http://www.w3.org/2000/svg" xmlns:xlink="http://www.w3.org/1999/xlink" width="64" height="64" viewBox="0 0 64 64" version="1.1">
<defs>
<linearGradient id="linear0" gradientUnits="userSpaceOnUse" x1="0" y1="0" x2="0" y2="1" gradientTransform="matrix(64,0,0,62.4375,0,0.78125)">
<stop offset="0" style="stop-color:#ff6666;stop-opacity:1;"/>
<stop offset="1" style="stop-color:#d90000;stop-opacity:1;"/>
</linearGradient>
</defs>
<g id="surface1">
<path style=" stroke:none;fill-rule:evenodd;fill:url(#linear0);" d="M 34.339844 3.054688 C 34.339844 3.152344 34.328125 3.296875 34.308594 3.496094 C 34.285156 3.691406 34.257812 3.914062 34.222656 4.160156 C 34.1875 4.402344 34.136719 4.664062 34.066406 4.929688 C 34 5.199219 33.925781 5.449219 33.832031 5.683594 C 33.738281 5.914062 33.640625 6.105469 33.527344 6.242188 C 33.410156 6.378906 33.289062 6.453125 33.152344 6.453125 C 32.996094 6.453125 32.796875 6.402344 32.558594 6.3125 C 32.320312 6.21875 32.042969 6.121094 31.726562 6.015625 C 31.410156 5.910156 31.035156 5.8125 30.609375 5.714844 C 30.175781 5.625 29.703125 5.574219 29.183594 5.574219 C 28.207031 5.574219 27.375 5.726562 26.6875 6.03125 C 25.996094 6.335938 25.402344 6.808594 24.90625 7.449219 C 24.40625 8.09375 23.992188 8.898438 23.652344 9.878906 C 23.3125 10.859375 23.015625 12.015625 22.769531 13.34375 L 22.191406 16.496094 L 29.445312 16.496094 C 29.691406 16.496094 29.886719 16.585938 30.035156 16.757812 C 30.183594 16.933594 30.257812 17.21875 30.257812 17.617188 C 30.257812 17.871094 30.234375 18.140625 30.1875 18.421875 C 30.144531 18.699219 30.089844 18.976562 30.019531 19.238281 C 29.953125 19.511719 29.867188 19.769531 29.765625 20.011719 C 29.664062 20.257812 29.550781 20.253906 29.425781 20.4375 C 29.300781 20.625 29.160156 20.777344 29 20.890625 C 28.84375 21.007812 28.683594 21.0625 28.527344 21.066406 L 21.242188 21.066406 L 15.441406 51.777344 C 15.054688 53.734375 14.535156 55.433594 13.878906 56.867188 C 13.222656 58.304688 12.421875 59.492188 11.46875 60.4375 C 10.519531 61.378906 9.425781 62.078125 8.175781 62.535156 C 6.933594 62.992188 5.53125 63.21875 3.972656 63.21875 C 2.953125 63.21875 2.121094 63.136719 1.476562 62.976562 C 0.832031 62.8125 0.429688 62.660156 0.273438 62.519531 C 0.179688 62.398438 0.113281 62.273438 0.0664062 62.136719 C 0.0234375 61.996094 0 61.808594 0 61.574219 C 0 61.480469 0.015625 61.324219 0.0507812 61.101562 C 0.0859375 60.878906 0.125 60.648438 0.167969 60.402344 C 0.214844 60.15625 0.273438 59.898438 0.339844 59.632812 C 0.40625 59.363281 0.488281 59.113281 0.574219 58.878906 C 0.667969 58.648438 0.769531 58.460938 0.878906 58.320312 C 0.996094 58.179688 1.132812 58.109375 1.289062 58.109375 C 1.449219 58.109375 1.601562 58.128906 1.746094 58.160156 C 1.890625 58.195312 2.050781 58.230469 2.21875 58.269531 C 2.390625 58.300781 2.597656 58.335938 2.832031 58.371094 C 3.070312 58.40625 3.367188 58.425781 3.730469 58.425781 C 4.679688 58.425781 5.5 58.273438 6.191406 57.96875 C 6.878906 57.664062 7.46875 57.191406 7.957031 56.550781 C 8.445312 55.90625 8.847656 55.101562 9.179688 54.121094 C 9.503906 53.140625 9.804688 51.960938 10.074219 50.585938 L 15.644531 21.0625 L 11.300781 21.0625 C 11.070312 21.0625 10.894531 20.992188 10.773438 20.839844 C 10.648438 20.6875 10.589844 20.625 10.589844 20.203125 C 10.589844 20.015625 10.597656 19.789062 10.621094 19.519531 C 10.644531 19.253906 10.683594 18.980469 10.738281 18.699219 C 10.796875 18.421875 10.867188 18.152344 10.960938 17.890625 C 11.046875 17.636719 11.164062 17.402344 11.300781 17.191406 C 11.4375 16.984375 11.574219 16.816406 11.722656 16.683594 C 11.871094 16.554688 12.054688 16.492188 12.285156 16.492188 L 16.558594 16.492188 L 17.40625 12.121094 C 17.769531 10.207031 18.289062 8.53125 18.96875 7.097656 C 19.648438 5.664062 20.46875 4.480469 21.429688 3.542969 C 22.390625 2.613281 23.5 1.921875 24.753906 1.464844 C 26.007812 1.007812 27.394531 0.78125 28.910156 0.78125 C 29.40625 0.78125 29.929688 0.808594 30.472656 0.867188 C 31.015625 0.929688 31.519531 1.007812 31.984375 1.113281 C 32.445312 1.21875 32.851562 1.339844 33.203125 1.480469 C 33.554688 1.621094 33.800781 1.761719 33.933594 1.898438 C 34.066406 2.015625 34.171875 2.179688 34.238281 2.390625 C 34.308594 2.605469 34.339844 2.824219 34.339844 3.054688 Z M 58.074219 28.683594 C 58.074219 28.042969 58.019531 27.316406 57.90625 26.488281 C 57.792969 25.664062 57.566406 24.894531 57.238281 24.1875 C 56.90625 23.480469 56.429688 22.886719 55.800781 22.402344 C 55.171875 21.921875 54.332031 21.675781 53.285156 21.675781 C 52.050781 21.675781 50.796875 22.042969 49.515625 22.777344 C 48.238281 23.503906 47.050781 24.515625 45.957031 25.800781 C 44.859375 27.085938 43.882812 28.597656 43.03125 30.328125 C 42.171875 32.058594 41.550781 33.042969 41.164062 35.097656 L 40.035156 40.96875 C 41.109375 42.597656 42.261719 43.800781 43.492188 44.574219 C 44.722656 45.355469 46.117188 45.742188 47.667969 45.742188 C 48.855469 45.742188 49.929688 45.464844 50.886719 44.894531 C 51.84375 44.328125 52.710938 43.574219 53.488281 42.632812 C 54.265625 41.6875 54.941406 40.613281 55.507812 39.394531 C 56.078125 38.179688 56.550781 36.90625 56.929688 35.574219 C 57.308594 34.242188 57.59375 33.8125 57.785156 32.46875 C 57.980469 31.125 58.074219 29.863281 58.074219 28.683594 Z M 64 28.1875 C 64 29.601562 63.875 31.164062 63.625 32.871094 C 63.371094 34.585938 62.96875 35.394531 62.40625 37.128906 C 61.847656 38.863281 61.148438 40.546875 60.304688 42.1875 C 59.460938 43.828125 58.425781 45.28125 57.203125 46.539062 C 55.984375 47.800781 54.578125 48.816406 52.992188 49.585938 C 51.40625 50.347656 49.621094 50.730469 47.636719 50.730469 C 45.578125 50.730469 43.824219 50.332031 42.363281 49.527344 C 40.902344 48.726562 39.601562 47.570312 38.460938 46.0625 L 37.84375 49.398438 C 37.796875 49.804688 37.550781 50.089844 37.109375 50.253906 C 36.664062 50.414062 35.984375 50.5 35.070312 50.5 C 34.113281 50.5 33.472656 50.402344 33.152344 50.214844 C 32.835938 50.027344 32.71875 49.757812 32.8125 49.402344 L 41.921875 1.910156 C 41.964844 1.722656 42.035156 1.558594 42.140625 1.414062 C 42.242188 1.277344 42.414062 1.160156 42.65625 1.0625 C 42.890625 0.96875 43.203125 0.898438 43.578125 0.851562 C 43.957031 0.804688 44.429688 0.78125 45 0.78125 C 45.546875 0.78125 45.992188 0.804688 46.335938 0.851562 C 46.675781 0.898438 46.953125 0.96875 47.15625 1.0625 C 47.359375 1.15625 47.488281 1.277344 47.53125 1.414062 C 47.578125 1.558594 47.589844 1.722656 47.566406 1.910156 L 44.828125 17.042969 C 44.710938 17.65625 44.574219 18.292969 44.414062 18.953125 C 44.257812 19.613281 44.09375 20.269531 43.921875 20.914062 C 43.746094 21.5625 43.578125 22.179688 43.40625 22.757812 C 43.234375 23.335938 43.085938 23.835938 42.945312 24.261719 C 43.308594 23.4375 43.882812 22.578125 44.671875 21.695312 C 45.460938 20.8125 46.382812 19.996094 47.449219 19.253906 C 48.507812 18.511719 49.664062 17.890625 50.921875 17.394531 C 52.175781 16.898438 53.445312 16.652344 54.71875 16.652344 C 56.09375 16.652344 57.265625 16.84375 58.246094 17.21875 C 59.226562 17.597656 60.0625 18.101562 60.746094 18.722656 C 61.433594 19.347656 61.984375 20.0625 62.40625 20.863281 C 62.828125 21.664062 63.15625 22.492188 63.382812 23.339844 C 63.613281 24.1875 63.773438 25.03125 63.863281 25.867188 C 63.957031 26.707031 64 27.480469 64 28.1875 Z M 64 28.1875 "/>
</g>
</svg>
