<svg xmlns="http://www.w3.org/2000/svg" xmlns:xlink="http://www.w3.org/1999/xlink" width="64" height="64" viewBox="0 0 64 64" version="1.1">
<defs>
<linearGradient id="linear0" gradientUnits="userSpaceOnUse" x1="0" y1="0" x2="0" y2="1" gradientTransform="matrix(64,0,0,64,0,0)">
<stop offset="0" style="stop-color:#ff6666;stop-opacity:1;"/>
<stop offset="1" style="stop-color:#d90000;stop-opacity:1;"/>
</linearGradient>
</defs>
<g id="surface1">
<path style=" stroke:none;fill-rule:nonzero;fill:url(#linear0);" d="M 0 0 L 0 64 L 4.265625 64 L 4.265625 59.078125 L 8.535156 59.078125 L 8.535156 64 L 55.464844 64 L 55.464844 59.078125 L 59.734375 59.078125 L 59.734375 64 L 64 64 L 64 0 L 59.734375 0 L 59.734375 4.921875 L 55.464844 4.921875 L 55.464844 0 L 8.535156 0 L 8.535156 4.921875 L 4.265625 4.921875 L 4.265625 0 Z M 12.800781 4.921875 L 51.199219 4.921875 L 51.199219 29.539062 L 12.800781 29.539062 Z M 4.265625 9.847656 L 8.535156 9.847656 L 8.535156 14.769531 L 4.265625 14.769531 Z M 55.464844 9.847656 L 59.734375 9.847656 L 59.734375 14.769531 L 55.464844 14.769531 Z M 4.265625 19.691406 L 8.535156 19.691406 L 8.535156 24.617188 L 4.265625 24.617188 Z M 55.464844 19.691406 L 59.734375 19.691406 L 59.734375 24.617188 L 55.464844 24.617188 Z M 4.265625 29.539062 L 8.535156 29.539062 L 8.535156 34.460938 L 4.265625 34.460938 Z M 55.464844 29.539062 L 59.734375 29.539062 L 59.734375 34.460938 L 55.464844 34.460938 Z M 12.800781 34.460938 L 51.199219 34.460938 L 51.199219 59.078125 L 12.800781 59.078125 Z M 4.265625 39.382812 L 8.535156 39.382812 L 8.535156 44.308594 L 4.265625 44.308594 Z M 55.464844 39.382812 L 59.734375 39.382812 L 59.734375 44.308594 L 55.464844 44.308594 Z M 4.265625 49.230469 L 8.535156 49.230469 L 8.535156 54.152344 L 4.265625 54.152344 Z M 55.464844 49.230469 L 59.734375 49.230469 L 59.734375 54.152344 L 55.464844 54.152344 Z M 55.464844 49.230469 "/>
</g>
</svg>
