<svg xmlns="http://www.w3.org/2000/svg" xmlns:xlink="http://www.w3.org/1999/xlink" width="64" height="64" viewBox="0 0 64 64" version="1.1">
<defs>
<linearGradient id="linear0" gradientUnits="userSpaceOnUse" x1="0" y1="0" x2="0" y2="1" gradientTransform="matrix(64,0,0,28.859375,0,17.570312)">
<stop offset="0" style="stop-color:#ff6666;stop-opacity:1;"/>
<stop offset="1" style="stop-color:#d90000;stop-opacity:1;"/>
</linearGradient>
</defs>
<g id="surface1">
<path style=" stroke:none;fill-rule:evenodd;fill:url(#linear0);" d="M 32.359375 17.570312 L 25.675781 32.136719 L 32.566406 32.136719 L 29.824219 37.574219 L 26.976562 36.140625 L 27.566406 46.429688 L 28.375 45.894531 L 36.183594 40.78125 L 33.332031 39.34375 L 38.945312 28.207031 L 31.796875 28.207031 L 35.929688 19.207031 Z M 47.925781 22.972656 C 48.367188 22.980469 48.742188 23.347656 48.742188 23.796875 L 48.742188 26.898438 L 63.183594 26.898438 C 63.636719 26.898438 64 27.269531 64 27.722656 L 64 33.929688 C 64 34.382812 63.636719 34.753906 63.183594 34.753906 L 48.742188 34.753906 L 48.742188 37.851562 C 48.742188 38.589844 47.847656 38.957031 47.332031 38.4375 L 41.128906 31.40625 C 40.8125 31.085938 40.8125 30.5625 41.128906 30.238281 L 47.332031 23.210938 C 47.488281 23.054688 47.699219 22.96875 47.925781 22.972656 Z M 16.074219 22.972656 C 15.632812 22.980469 15.257812 23.347656 15.257812 23.796875 L 15.257812 26.898438 L 0.816406 26.898438 C 0.363281 26.898438 0 27.269531 0 27.722656 L 0 33.929688 C 0 34.382812 0.363281 34.753906 0.816406 34.753906 L 15.257812 34.753906 L 15.257812 37.851562 C 15.257812 38.589844 16.152344 38.957031 16.667969 38.4375 L 22.871094 31.40625 C 23.1875 31.085938 23.1875 30.5625 22.871094 30.238281 L 16.667969 23.210938 C 16.511719 23.054688 16.300781 22.96875 16.074219 22.972656 Z M 16.074219 22.972656 "/>
</g>
</svg>
