<svg xmlns="http://www.w3.org/2000/svg" xmlns:xlink="http://www.w3.org/1999/xlink" width="64" height="64" viewBox="0 0 64 64" version="1.1">
<defs>
<linearGradient id="linear0" gradientUnits="userSpaceOnUse" x1="0" y1="0" x2="0" y2="1" gradientTransform="matrix(53.679688,0,0,64,5.160156,0)">
<stop offset="0" style="stop-color:#ff6666;stop-opacity:1;"/>
<stop offset="1" style="stop-color:#d90000;stop-opacity:1;"/>
</linearGradient>
</defs>
<g id="surface1">
<path style=" stroke:none;fill-rule:nonzero;fill:url(#linear0);" d="M 32.738281 0.0078125 C 24.164062 -0.183594 15.8125 2.78125 9.277344 8.335938 C 8.710938 8.8125 8.445312 9.554688 8.578125 10.285156 C 8.710938 11.011719 9.222656 11.613281 9.917969 11.859375 C 10.617188 12.105469 11.390625 11.964844 11.953125 11.480469 C 23.890625 1.328125 41.53125 1.707031 53.023438 12.355469 C 53.5625 12.871094 54.335938 13.058594 55.046875 12.839844 C 55.761719 12.625 56.300781 12.042969 56.464844 11.3125 C 56.625 10.585938 56.382812 9.828125 55.832031 9.332031 C 49.539062 3.5 41.320312 0.183594 32.742188 0.0078125 Z M 31.996094 8.25 C 17.222656 8.25 5.230469 20.1875 5.160156 34.960938 C 5.160156 34.996094 5.160156 35.027344 5.160156 35.0625 C 5.160156 35.070312 5.160156 35.078125 5.160156 35.085938 C 5.160156 35.089844 5.160156 35.09375 5.160156 35.097656 C 5.160156 35.101562 5.160156 35.105469 5.160156 35.109375 L 5.160156 35.152344 C 5.160156 35.183594 5.160156 35.214844 5.160156 35.246094 C 5.160156 40.546875 6.140625 45.804688 8.046875 50.75 C 8.308594 51.449219 8.921875 51.949219 9.65625 52.066406 C 10.386719 52.183594 11.128906 51.898438 11.59375 51.320312 C 12.058594 50.742188 12.175781 49.957031 11.898438 49.265625 C 10.160156 44.753906 9.273438 39.957031 9.285156 35.121094 C 9.285156 35.109375 9.285156 35.097656 9.285156 35.085938 C 9.285156 22.542969 19.453125 12.378906 31.992188 12.378906 C 44.53125 12.378906 54.699219 22.542969 54.699219 35.085938 C 54.699219 38.503906 51.925781 41.277344 48.507812 41.277344 C 45.085938 41.277344 42.3125 38.503906 42.3125 35.085938 C 42.3125 29.382812 37.691406 24.761719 31.992188 24.761719 C 26.34375 24.765625 21.742188 29.308594 21.675781 34.960938 C 21.675781 35 21.675781 35.042969 21.675781 35.085938 C 21.675781 35.09375 21.675781 35.101562 21.675781 35.109375 C 21.636719 49.789062 33.507812 61.792969 48.195312 61.917969 C 48.9375 61.929688 49.625 61.542969 50 60.90625 C 50.375 60.269531 50.382812 59.480469 50.019531 58.839844 C 49.65625 58.195312 48.976562 57.796875 48.238281 57.789062 C 35.792969 57.703125 25.765625 47.566406 25.8125 35.121094 C 25.8125 35.109375 25.8125 35.097656 25.8125 35.085938 C 25.8125 31.664062 28.582031 28.890625 32.003906 28.890625 C 35.425781 28.890625 38.195312 31.664062 38.195312 35.085938 C 38.195312 40.785156 42.816406 45.40625 48.519531 45.40625 C 54.21875 45.40625 58.839844 40.785156 58.839844 35.085938 C 58.839844 20.261719 46.824219 8.25 32.003906 8.25 Z M 31.996094 16.507812 C 21.785156 16.503906 13.488281 24.746094 13.417969 34.957031 C 13.417969 34.972656 13.417969 34.992188 13.417969 35.011719 C 13.417969 35.035156 13.417969 35.058594 13.417969 35.085938 C 13.417969 35.09375 13.417969 35.101562 13.417969 35.109375 C 13.386719 46.402344 18.8125 57.011719 27.988281 63.59375 C 28.378906 63.886719 28.859375 64.027344 29.347656 63.996094 C 29.414062 63.992188 29.484375 63.984375 29.554688 63.972656 C 30.382812 63.832031 31.042969 63.207031 31.226562 62.390625 C 31.414062 61.570312 31.082031 60.722656 30.398438 60.242188 C 22.308594 54.4375 17.523438 45.078125 17.550781 35.121094 C 17.550781 35.109375 17.550781 35.09375 17.550781 35.082031 C 17.550781 27.101562 24.019531 20.628906 32 20.628906 C 39.980469 20.628906 46.449219 27.101562 46.449219 35.082031 C 46.449219 36.21875 47.371094 37.144531 48.511719 37.144531 C 49.652344 37.144531 50.578125 36.21875 50.578125 35.082031 C 50.578125 35.015625 50.578125 34.953125 50.578125 34.890625 C 50.46875 24.707031 42.1875 16.511719 32.007812 16.507812 Z M 31.957031 32.941406 C 31.410156 32.945312 30.886719 33.171875 30.5 33.5625 C 30.117188 33.953125 29.90625 34.480469 29.914062 35.03125 L 29.914062 35.058594 C 29.914062 35.066406 29.914062 35.074219 29.914062 35.085938 C 29.910156 35.15625 29.910156 35.230469 29.914062 35.304688 C 30.046875 45.402344 38.214844 53.554688 48.3125 53.664062 C 49.054688 53.671875 49.738281 53.285156 50.117188 52.648438 C 50.492188 52.011719 50.5 51.226562 50.136719 50.582031 C 49.773438 49.9375 49.09375 49.539062 48.355469 49.535156 C 40.417969 49.480469 34.015625 43.023438 34.03125 35.085938 C 34.03125 35.070312 34.03125 35.054688 34.03125 35.042969 C 34.042969 34.484375 33.824219 33.949219 33.433594 33.554688 C 33.039062 33.160156 32.503906 32.941406 31.949219 32.945312 Z M 31.957031 32.941406 "/>
</g>
</svg>
