<svg xmlns="http://www.w3.org/2000/svg" xmlns:xlink="http://www.w3.org/1999/xlink" width="64" height="64" viewBox="0 0 64 64" version="1.1">
<defs>
<linearGradient id="linear0" gradientUnits="userSpaceOnUse" x1="0" y1="0" x2="0" y2="1" gradientTransform="matrix(61.710938,0,0,64,1.144531,0)">
<stop offset="0" style="stop-color:#ff6666;stop-opacity:1;"/>
<stop offset="1" style="stop-color:#d90000;stop-opacity:1;"/>
</linearGradient>
</defs>
<g id="surface1">
<path style=" stroke:none;fill-rule:evenodd;fill:url(#linear0);" d="M 32 8.046875 C 25.5625 12.566406 17.753906 16.929688 9.0625 19.226562 C 9.535156 21.539062 9.816406 23.292969 10.449219 25.40625 C 11.914062 30.320312 13.476562 34.269531 15.578125 38.441406 C 20.03125 47.273438 25.234375 52.292969 32 56.542969 C 38.765625 52.292969 43.96875 47.273438 48.421875 38.441406 C 50.523438 34.269531 52.085938 30.320312 53.550781 25.40625 C 54.183594 23.292969 54.464844 21.539062 54.9375 19.226562 C 46.246094 16.929688 38.4375 12.566406 32 8.046875 Z M 32 0 C 31.816406 0 31.03125 0.519531 30.191406 1.15625 C 22.78125 6.644531 12.355469 12.359375 2.433594 13.773438 L 1.144531 13.972656 L 1.230469 15.269531 C 1.378906 17.460938 2.652344 23.285156 3.875 27.371094 C 5.445312 32.609375 7.179688 37.007812 9.460938 41.53125 C 14.625 51.773438 21.152344 58.117188 29.171875 62.984375 C 30.21875 63.621094 31.1875 63.960938 32 64 C 32.8125 63.960938 33.78125 63.621094 34.828125 62.984375 C 42.847656 58.117188 49.375 51.773438 54.539062 41.53125 C 56.820312 37.007812 58.554688 32.609375 60.125 27.371094 C 61.347656 23.285156 62.621094 17.460938 62.769531 15.269531 L 62.855469 13.972656 L 61.566406 13.773438 C 51.644531 12.359375 41.21875 6.644531 33.808594 1.15625 C 32.96875 0.519531 32.183594 0 32 0 Z M 31.945312 13.816406 C 27.34375 21.808594 23.566406 27.09375 20.601562 29.652344 L 24.308594 30.210938 C 23.742188 33.433594 22.085938 36.429688 19.308594 39.199219 C 24.304688 38.949219 27.847656 38.558594 29.023438 38.019531 L 28.6875 48.183594 C 30.890625 48.789062 33.160156 48.792969 35.480469 48.183594 L 35.03125 37.90625 C 38.476562 38.59375 41.867188 38.894531 44.410156 38.804688 C 41.777344 35.324219 40.285156 32.539062 39.921875 30.4375 L 43.230469 29.484375 C 40.578125 27.4375 36.824219 22.21875 31.945312 13.816406 Z M 31.945312 13.816406 "/>
</g>
</svg>
