<svg xmlns="http://www.w3.org/2000/svg" xmlns:xlink="http://www.w3.org/1999/xlink" width="64" height="64" viewBox="0 0 64 64" version="1.1">
<defs> <linearGradient id="linear0" gradientUnits="userSpaceOnUse" x1="0" y1="0" x2="0" y2="1" gradientTransform="matrix(55.992188,0,0,56,4.003906,4)"> <stop offset="0" style="stop-color:#ff6666;stop-opacity:1;"/> <stop offset="1" style="stop-color:#d90000;stop-opacity:1;"/> </linearGradient> </defs>
<g id="surface1">
<path style=" stroke:none;fill-rule:nonzero;fill:url(#linear0);fill-opacity:1;" d="M 18.195312 40.339844 C 18.195312 40.316406 18.050781 40.175781 17.875 40.023438 L 17.5625 39.75 L 17.839844 40.0625 C 18.097656 40.355469 18.195312 40.429688 18.195312 40.339844 "/>
<path style=" stroke:none;fill-rule:nonzero;fill:url(#linear0);fill-opacity:1;" d="M 31.613281 5.21875 C 24.953125 5.226562 18.347656 7.679688 13.285156 12.390625 L 11.808594 13.777344 C 11.238281 13.03125 10.78125 11.988281 10.699219 11.191406 C 10.65625 10.800781 10.589844 10.480469 10.539062 10.480469 C 10.488281 10.480469 10.214844 10.796875 9.925781 11.179688 C 8.863281 12.582031 8.171875 14.476562 7.863281 16.8125 C 7.777344 17.445312 7.539062 19.902344 7.484375 20.527344 C 6.640625 21.839844 5.957031 23.425781 5.28125 25.601562 C 4.886719 26.839844 4.261719 29.1875 4.269531 29.386719 C 4.269531 29.457031 4.457031 29.175781 4.683594 28.75 C 5.125 27.921875 5.246094 27.828125 5.058594 28.453125 C 4.792969 29.351562 4.605469 31.402344 4.550781 34.011719 L 4.496094 36.792969 L 4.710938 36.003906 C 4.832031 35.5625 4.984375 35.082031 5.042969 34.921875 C 5.183594 34.566406 5.226562 34.683594 5.40625 35.945312 C 5.839844 39.152344 7.175781 42.839844 8.972656 45.8125 C 11.882812 50.636719 17.4375 55.144531 23.363281 57.488281 C 25.230469 58.222656 28.644531 59.070312 27.230469 58.441406 C 26.683594 58.203125 26.03125 57.769531 26.105469 57.703125 C 26.128906 57.671875 26.480469 57.773438 26.886719 57.929688 C 27.847656 58.289062 29.550781 58.746094 30.691406 58.953125 C 31.199219 59.035156 32.066406 59.117188 32.625 59.121094 L 33.640625 59.132812 L 33.199219 58.738281 L 32.75 58.347656 L 34.03125 58.339844 C 37.824219 58.328125 43.480469 57.125 45.964844 55.808594 C 46.726562 55.40625 48.003906 54.117188 48.792969 52.957031 C 49.210938 52.339844 49.4375 52.136719 50.15625 51.742188 C 53.546875 49.839844 56.894531 45.847656 57.355469 43.179688 C 57.488281 42.382812 57.433594 41.289062 57.214844 40.425781 C 57.105469 39.976562 57.144531 39.859375 58.089844 37.703125 C 59.679688 34.078125 59.730469 33.902344 59.820312 31.558594 C 59.894531 29.707031 59.773438 28.351562 59.378906 26.507812 C 59.082031 25.15625 58.996094 24.984375 58.894531 25.550781 C 58.828125 25.90625 58.207031 27.304688 58.117188 27.304688 C 58.101562 27.304688 58.105469 26.476562 58.121094 25.464844 C 58.191406 21.75 57.46875 19.023438 55.714844 16.359375 C 55.074219 15.386719 54.050781 14.1875 53.335938 13.566406 C 52.847656 13.148438 52.785156 13.132812 52.785156 13.441406 C 52.785156 13.625 52.636719 13.523438 52.144531 12.992188 C 51.5625 12.367188 49.511719 10.707031 49.320312 10.707031 C 49.28125 10.707031 49.242188 10.941406 49.242188 11.238281 C 49.242188 11.253906 49.242188 11.269531 49.242188 11.289062 C 48.269531 10.660156 45.03125 8.765625 44.089844 8.273438 C 40.175781 6.210938 35.882812 5.214844 31.613281 5.21875 M 31.460938 6.414062 C 34.3125 6.394531 37.195312 6.855469 39.988281 7.804688 C 40.320312 7.917969 40.945312 8.148438 41.539062 8.371094 C 42.691406 8.800781 43.726562 9.324219 44.730469 9.980469 C 43.402344 9.449219 41.777344 8.890625 41.496094 8.890625 C 41.390625 8.890625 41.722656 9.148438 42.222656 9.472656 C 44.339844 10.820312 46.765625 13.09375 48.285156 15.140625 C 49.605469 16.921875 49.632812 16.976562 48.792969 16.296875 C 47.804688 15.507812 46.445312 14.824219 45.457031 14.617188 C 45.015625 14.527344 44.625 14.476562 44.589844 14.511719 C 44.554688 14.546875 44.867188 14.878906 45.277344 15.257812 C 46.601562 16.460938 48.679688 19.542969 49.171875 21.027344 C 49.585938 22.265625 49.910156 24.308594 49.992188 26.195312 L 50.0625 27.8125 L 49.730469 27.304688 C 49.546875 27.019531 49.230469 26.609375 49.035156 26.382812 C 48.667969 25.964844 47.785156 25.300781 47.707031 25.386719 C 47.679688 25.410156 47.792969 26.582031 47.945312 27.984375 C 48.273438 30.941406 48.253906 32.585938 47.871094 34.414062 C 47.554688 35.941406 47.535156 35.96875 47.359375 35.453125 C 47.203125 35.007812 46.890625 34.582031 46.714844 34.582031 C 46.664062 34.582031 46.617188 34.785156 46.617188 35.027344 C 46.617188 36.070312 45.753906 39.144531 45.074219 40.550781 C 44.800781 41.113281 44.335938 41.878906 44.027344 42.246094 C 43 43.511719 41.9375 44.070312 42.027344 43.304688 C 42.058594 43.039062 42.027344 42.992188 41.777344 42.992188 C 41.597656 42.992188 41.359375 43.128906 41.148438 43.359375 C 40.964844 43.5625 40.597656 43.980469 40.324219 44.285156 C 39.914062 44.738281 38.855469 45.59375 38.855469 45.46875 C 38.855469 45.445312 38.90625 45.265625 38.960938 45.0625 C 39.019531 44.859375 39.035156 44.699219 39 44.699219 C 38.96875 44.699219 38.59375 44.800781 38.179688 44.921875 C 36.734375 45.351562 34.332031 45.722656 33.050781 45.722656 C 31.710938 45.722656 30.847656 45.546875 29.960938 45.097656 C 29.039062 44.632812 29.097656 44.542969 30.25 44.613281 C 31.226562 44.675781 31.253906 44.664062 31.023438 44.480469 C 30.675781 44.203125 29.433594 43.835938 27.933594 43.570312 C 26.335938 43.285156 25.980469 43.140625 25.242188 42.445312 C 24.734375 41.957031 24.179688 41.617188 23.652344 41.085938 C 25.027344 41.441406 26.382812 41.410156 27.78125 41.375 C 29.453125 41.328125 29.902344 41.285156 30.523438 41.074219 C 31.4375 40.765625 33.066406 39.808594 34.382812 38.816406 C 35.539062 37.953125 35.769531 37.867188 36.742188 37.953125 C 37.421875 38.019531 37.46875 38.007812 37.65625 37.722656 C 37.90625 37.347656 37.832031 36.761719 37.460938 36.210938 C 36.71875 35.109375 34.378906 34.363281 32.636719 34.679688 C 32.25 34.746094 31.449219 35.050781 30.808594 35.375 C 30.183594 35.683594 29.386719 35.996094 29.046875 36.070312 C 28.332031 36.222656 27.125 36.136719 26.191406 35.871094 C 25.296875 35.617188 23.730469 34.792969 22.988281 34.1875 L 22.363281 33.667969 L 21.324219 33.011719 C 21.539062 31.609375 21.976562 30.359375 22.5625 29.78125 L 22.996094 29.339844 L 22.339844 29.035156 C 21.769531 28.773438 21.527344 28.730469 20.648438 28.730469 C 19.738281 28.730469 19.535156 28.761719 18.875 29.074219 C 17.425781 29.757812 16.335938 31.066406 15.84375 32.703125 C 15.511719 33.789062 15.5625 35.53125 15.957031 36.6875 C 16.296875 37.675781 16.773438 38.59375 17.320312 39.300781 C 17.585938 39.644531 17.609375 39.699219 17.402344 39.523438 C 16.695312 38.921875 15.699219 37.070312 15.398438 35.804688 C 15.179688 34.882812 15.179688 33.214844 15.398438 32.359375 C 15.988281 30.046875 17.851562 28.265625 20.113281 27.847656 C 21.582031 27.574219 23.207031 28.136719 24.535156 29.375 C 24.945312 29.753906 25.316406 30.03125 25.359375 29.984375 C 25.40625 29.9375 25.445312 29.253906 25.445312 28.464844 L 25.445312 27.019531 L 25.179688 26.625 L 25.980469 25.945312 L 26.507812 25.546875 C 26.804688 25.324219 27.582031 24.847656 28.238281 24.5 C 30.433594 23.324219 30.683594 23.160156 30.929688 22.71875 C 31.304688 22.054688 31.484375 21.132812 31.324219 20.652344 C 31.140625 20.105469 30.722656 20.019531 27.894531 19.929688 L 25.558594 19.855469 L 25.019531 19.488281 C 24.808594 19.339844 24.003906 18.652344 23.558594 18.285156 C 23.828125 17.367188 24.183594 16.484375 24.59375 15.796875 C 25.054688 15.027344 26.433594 13.300781 27.023438 12.765625 C 27.1875 12.613281 27.324219 12.449219 27.324219 12.394531 C 27.324219 12.242188 25.972656 12.289062 25.144531 12.464844 C 24.277344 12.644531 23.121094 13.144531 22.339844 13.675781 C 21.113281 14.5 19.160156 16.621094 18.761719 17.554688 C 18.613281 17.90625 18.75 16.636719 18.9375 15.902344 C 19.078125 15.367188 19.074219 15.347656 18.777344 15.222656 C 18.601562 15.144531 17.789062 15.101562 16.769531 15.101562 C 15.335938 15.101562 14.90625 15.140625 14.144531 15.355469 C 13.972656 15.398438 13.804688 15.449219 13.640625 15.507812 C 13.378906 15.273438 12.941406 14.890625 12.589844 14.574219 C 12.890625 14.382812 13.246094 14.007812 13.257812 14.007812 C 13.285156 14.007812 13.730469 13.613281 14.257812 13.132812 C 19.039062 8.777344 25.179688 6.453125 31.460938 6.417969 M 51.335938 13.929688 C 51.363281 13.957031 51.394531 13.992188 51.425781 14.023438 L 51.335938 14.023438 Z M 51.335938 13.929688 "/>
</g>
</svg>
