<svg xmlns="http://www.w3.org/2000/svg" xmlns:xlink="http://www.w3.org/1999/xlink" width="64" height="64" viewBox="0 0 64 64" version="1.1">
<defs> <linearGradient id="linear0" gradientUnits="userSpaceOnUse" x1="0" y1="0" x2="0" y2="1" gradientTransform="matrix(55.992188,0,0,56,4.003906,4)"> <stop offset="0" style="stop-color:#ff6666;stop-opacity:1;"/> <stop offset="1" style="stop-color:#d90000;stop-opacity:1;"/> </linearGradient> </defs>
<g id="surface1">
<path style=" stroke:none;fill-rule:nonzero;fill:url(#linear0);fill-opacity:1;" d="M 39.933594 51.394531 C 40.332031 50.277344 40.382812 48.300781 40.039062 47.183594 C 39.558594 45.585938 39.0625 44.800781 37.582031 43.246094 C 35.96875 41.550781 35.003906 40.273438 34.332031 38.921875 C 33.800781 37.855469 33.269531 36.273438 33.140625 35.351562 C 33.066406 34.859375 33.003906 34.742188 32.824219 34.742188 C 32.636719 34.742188 32.550781 34.933594 32.324219 35.847656 C 31.617188 38.707031 30.652344 40.328125 28.113281 42.953125 C 26.835938 44.277344 26.582031 44.609375 26.097656 45.582031 C 25.796875 46.199219 25.46875 47.023438 25.367188 47.414062 C 25.03125 48.738281 25.183594 50.671875 25.722656 51.933594 C 25.871094 52.277344 25.632812 52.183594 24.453125 51.414062 C 23.089844 50.523438 20.925781 48.410156 20.054688 47.121094 C 18.320312 44.53125 17.5 41.816406 17.5 38.644531 C 17.507812 34.796875 18.683594 31.675781 21.277344 28.640625 C 27.261719 21.648438 29.996094 13.472656 28.902344 5.820312 C 28.839844 5.355469 28.808594 4.960938 28.835938 4.929688 C 28.898438 4.867188 30.324219 7.347656 31.003906 8.699219 C 32.765625 12.214844 34.332031 17.242188 34.839844 20.988281 C 34.96875 21.925781 35.015625 22.0625 35.21875 22.0625 C 35.382812 22.0625 35.46875 21.964844 35.492188 21.761719 C 35.589844 20.988281 36.066406 19.386719 36.730469 17.695312 C 37.132812 16.675781 37.597656 15.46875 37.746094 15.003906 C 37.992188 14.257812 38.136719 12.90625 38.15625 12.992188 C 38.15625 12.992188 38.160156 12.972656 38.15625 12.992188 C 38.371094 16.648438 39.382812 20.398438 40.8125 23.390625 C 41.601562 25.007812 43.113281 27.34375 44.023438 28.34375 C 47.382812 32.316406 48.859375 37.675781 47.621094 42.363281 C 47.441406 43.003906 47.121094 43.96875 46.90625 44.507812 C 46.101562 46.539062 44.261719 48.96875 42.429688 50.421875 C 41.496094 51.167969 39.898438 52.238281 39.707031 52.253906 C 39.660156 52.261719 39.761719 51.871094 39.933594 51.394531 Z M 39.933594 51.394531 "/>
</g>
</svg>
