<svg xmlns="http://www.w3.org/2000/svg" xmlns:xlink="http://www.w3.org/1999/xlink" width="64" height="64" viewBox="0 0 64 64" version="1.1">
<defs>
<linearGradient id="linear0" gradientUnits="userSpaceOnUse" x1="0" y1="0" x2="0" y2="1" gradientTransform="matrix(64,0,0,64,0,0)">
<stop offset="0" style="stop-color:#ff6666;stop-opacity:1;"/>
<stop offset="1" style="stop-color:#d90000;stop-opacity:1;"/>
</linearGradient>
</defs>
<g id="surface1">
<path style=" stroke:none;fill-rule:nonzero;fill:url(#linear0);" d="M 64 3.34375 C 64 6.003906 61.726562 9.605469 57.175781 14.15625 L 46.179688 25.152344 L 52.730469 59.328125 L 52.777344 59.605469 C 52.777344 60.03125 52.636719 60.382812 52.363281 60.660156 L 49.433594 63.589844 C 49.15625 63.863281 48.808594 64 48.378906 64 C 47.738281 64 47.292969 63.726562 47.046875 63.175781 L 34.496094 36.832031 L 23.273438 48.054688 C 25.347656 55.328125 26.386719 59.175781 26.386719 59.605469 C 26.386719 60.03125 26.25 60.378906 25.976562 60.652344 L 23.042969 63.589844 C 22.769531 63.863281 22.417969 64 21.988281 64 C 21.4375 64 21.011719 63.753906 20.707031 63.265625 L 13.609375 50.4375 L 0.78125 43.335938 C 0.261719 43.0625 0 42.632812 0 42.050781 C 0 41.625 0.136719 41.273438 0.410156 41 L 3.34375 38.023438 C 3.617188 37.75 3.96875 37.613281 4.394531 37.613281 C 4.824219 37.613281 8.675781 38.652344 15.945312 40.726562 L 27.164062 29.503906 L 0.824219 16.949219 C 0.273438 16.707031 0 16.261719 0 15.621094 C 0 15.191406 0.136719 14.84375 0.410156 14.566406 L 3.34375 11.636719 C 3.617188 11.363281 3.96875 11.222656 4.394531 11.222656 C 4.519531 11.222656 4.609375 11.238281 4.671875 11.269531 L 38.847656 17.820312 L 49.84375 6.828125 C 54.394531 2.277344 58 0 60.652344 0 C 61.628906 0 62.433594 0.3125 63.0625 0.941406 C 63.6875 1.5625 64 2.367188 64 3.34375 Z M 64 3.34375 "/>
</g>
</svg>
