<svg xmlns="http://www.w3.org/2000/svg" xmlns:xlink="http://www.w3.org/1999/xlink" width="64" height="64" viewBox="0 0 64 64" version="1.1">
<defs>
<linearGradient id="linear0" gradientUnits="userSpaceOnUse" x1="0" y1="0" x2="0" y2="1" gradientTransform="matrix(64,0,0,38.957031,0,25.042969)">
<stop offset="0" style="stop-color:#ff6666;stop-opacity:1;"/>
<stop offset="1" style="stop-color:#d90000;stop-opacity:1;"/>
</linearGradient>
<linearGradient id="linear1" gradientUnits="userSpaceOnUse" x1="0" y1="0" x2="0" y2="1" gradientTransform="matrix(64,0,0,64,0,0)">
<stop offset="0" style="stop-color:#ff6666;stop-opacity:1;"/>
<stop offset="1" style="stop-color:#d90000;stop-opacity:1;"/>
</linearGradient>
</defs>
<g id="surface1">
<path style=" stroke:none;fill-rule:evenodd;fill:url(#linear0);" d="M 50.089844 32 C 50.089844 28.160156 53.203125 25.042969 57.042969 25.042969 C 60.882812 25.042969 64 28.160156 64 32 C 64 35.839844 60.882812 38.957031 57.042969 38.957031 C 53.203125 38.957031 50.089844 35.839844 50.089844 32 Z M 25.042969 57.042969 C 25.042969 53.203125 28.160156 50.089844 32 50.089844 C 35.839844 50.089844 38.957031 53.203125 38.957031 57.042969 C 38.957031 60.882812 35.839844 64 32 64 C 28.160156 64 25.042969 60.882812 25.042969 57.042969 Z M 0 57.042969 C 0 53.203125 3.117188 50.089844 6.957031 50.089844 C 10.796875 50.089844 13.910156 53.203125 13.910156 57.042969 C 13.910156 60.882812 10.796875 64 6.957031 64 C 3.117188 64 0 60.882812 0 57.042969 Z M 0 57.042969 "/>
<path style=" stroke:none;fill-rule:evenodd;fill:url(#linear1);" d="M 25.042969 32 C 25.042969 28.160156 28.160156 25.042969 32 25.042969 C 35.839844 25.042969 38.957031 28.160156 38.957031 32 C 38.957031 35.839844 35.839844 38.957031 32 38.957031 C 28.160156 38.957031 25.042969 35.839844 25.042969 32 Z M 0 32 C 0 28.160156 3.117188 25.042969 6.957031 25.042969 C 10.796875 25.042969 13.910156 28.160156 13.910156 32 C 13.910156 35.839844 10.796875 38.957031 6.957031 38.957031 C 3.117188 38.957031 0 35.839844 0 32 Z M 25.042969 6.957031 C 25.042969 3.117188 28.160156 0 32 0 C 35.839844 0 38.957031 3.117188 38.957031 6.957031 C 38.957031 10.796875 35.839844 13.910156 32 13.910156 C 28.160156 13.910156 25.042969 10.796875 25.042969 6.957031 Z M 0 7.148438 C 0 3.414062 3.03125 0.386719 6.765625 0.386719 C 10.496094 0.386719 13.527344 3.414062 13.527344 7.148438 C 13.527344 10.882812 10.496094 13.910156 6.765625 13.910156 C 3.03125 13.910156 0 10.882812 0 7.148438 Z M 50.089844 6.957031 C 50.089844 3.117188 53.203125 0 57.042969 0 C 60.882812 0 64 3.117188 64 6.957031 C 64 10.796875 60.882812 13.910156 57.042969 13.910156 C 53.203125 13.910156 50.089844 10.796875 50.089844 6.957031 Z M 50.089844 57.042969 C 50.089844 53.203125 53.203125 50.089844 57.042969 50.089844 C 60.882812 50.089844 64 53.203125 64 57.042969 C 64 60.882812 60.882812 64 57.042969 64 C 53.203125 64 50.089844 60.882812 50.089844 57.042969 Z M 50.089844 57.042969 "/>
</g>
</svg>
