<svg xmlns="http://www.w3.org/2000/svg" xmlns:xlink="http://www.w3.org/1999/xlink" width="64" height="64" viewBox="0 0 64 64" version="1.1">
<defs> <linearGradient id="linear0" gradientUnits="userSpaceOnUse" x1="0" y1="0" x2="0" y2="1" gradientTransform="matrix(55.992188,0,0,56,4.003906,4)"> <stop offset="0" style="stop-color:#ff6666;stop-opacity:1;"/> <stop offset="1" style="stop-color:#d90000;stop-opacity:1;"/> </linearGradient> </defs>
<g id="surface1">
<path style=" stroke:none;fill-rule:nonzero;fill:url(#linear0);fill-opacity:1;" d="M 22.652344 5.492188 C 25.046875 7.894531 25.035156 9.804688 25.035156 12.695312 L 25.035156 18.679688 C 16.648438 21.480469 10.644531 29.023438 10.644531 37.917969 C 10.644531 45.554688 15.09375 52.210938 21.65625 55.710938 L 42.847656 55.710938 C 49.410156 52.210938 53.859375 45.554688 53.859375 37.917969 C 53.859375 29.039062 47.839844 21.507812 39.457031 18.679688 L 39.457031 12.695312 C 39.457031 9.824219 39.445312 7.902344 41.839844 5.492188 Z M 34.957031 25.210938 C 36.445312 25.210938 37.65625 26.417969 37.65625 27.898438 C 37.65625 29.386719 36.445312 30.589844 34.957031 30.589844 C 33.464844 30.589844 32.253906 29.378906 32.253906 27.898438 C 32.253906 26.417969 33.464844 25.210938 34.957031 25.210938 Z M 30.910156 33.277344 C 32.152344 33.277344 33.15625 34.289062 33.15625 35.519531 C 33.15625 36.761719 32.152344 37.761719 30.910156 37.761719 C 29.664062 37.761719 28.65625 36.75 28.65625 35.519531 C 28.65625 34.277344 29.664062 33.277344 30.910156 33.277344 Z M 35.855469 39.554688 C 36.847656 39.554688 37.65625 40.355469 37.65625 41.347656 C 37.65625 42.332031 36.847656 43.140625 35.855469 43.140625 C 34.867188 43.140625 34.054688 42.332031 34.054688 41.347656 C 34.054688 40.351562 34.867188 39.554688 35.855469 39.554688 Z M 33.605469 45.824219 C 34.351562 45.824219 34.957031 46.429688 34.957031 47.171875 C 34.957031 47.914062 34.351562 48.515625 33.605469 48.515625 C 32.863281 48.515625 32.253906 47.914062 32.253906 47.171875 C 32.253906 46.429688 32.863281 45.824219 33.605469 45.824219 Z M 36.757812 50.308594 C 37.257812 50.308594 37.65625 50.707031 37.65625 51.203125 C 37.65625 51.703125 37.257812 52.097656 36.757812 52.097656 C 36.257812 52.097656 35.855469 51.695312 35.855469 51.203125 C 35.855469 50.707031 36.257812 50.308594 36.757812 50.308594 Z M 36.757812 50.308594 "/>
</g>
</svg>
