<svg xmlns="http://www.w3.org/2000/svg" xmlns:xlink="http://www.w3.org/1999/xlink" width="64" height="64" viewBox="0 0 64 64" version="1.1">
<defs>
<linearGradient id="linear0" gradientUnits="userSpaceOnUse" x1="0" y1="0" x2="0" y2="1" gradientTransform="matrix(48.28125,0,0,64,7.859375,0)">
<stop offset="0" style="stop-color:#ff6666;stop-opacity:1;"/>
<stop offset="1" style="stop-color:#d90000;stop-opacity:1;"/>
</linearGradient>
</defs>
<g id="surface1">
<path style=" stroke:none;fill-rule:nonzero;fill:url(#linear0);" d="M 16.5 0 C 15.609375 1.097656 15.066406 2.003906 14.042969 3.09375 C 10.628906 6.730469 11.179688 9.0625 13.886719 11.609375 C 14.355469 12.046875 12.835938 13.617188 12.316406 15.667969 C 13.332031 16.488281 13.59375 17.738281 14.519531 18.691406 C 15.527344 17.449219 17.839844 14.652344 18.542969 13.902344 C 18.542969 13.902344 20.027344 11.5625 18.175781 9.363281 C 16.835938 8.03125 16.5 4.925781 16.574219 1.84375 C 16.664062 1.640625 16.472656 0.519531 16.5 0 Z M 25.042969 2.515625 C 23.757812 2.515625 23.625 2.976562 24.070312 5.785156 C 24.722656 9.855469 23.308594 13.574219 20.136719 15.921875 C 18.8125 16.898438 16.125 20.199219 16.125 20.632812 C 16.125 21.011719 10.015625 22.597656 11.785156 24.867188 C 12.046875 25.203125 8.726562 27.464844 12.5 25.8125 C 15.648438 24.4375 17.40625 32.597656 18.613281 34.933594 L 20.800781 39.179688 L 18.855469 42.976562 C 16.019531 48.503906 16.84375 50.320312 11.503906 55.726562 C 10.671875 56.570312 10.808594 57.617188 10.152344 57.183594 C 5.472656 54.105469 9.742188 58.566406 9.453125 58.972656 C 7.324219 54.519531 7.945312 61.476562 7.945312 61.480469 C 9.972656 63.710938 13.757812 64.070312 16.730469 63.988281 C 21.691406 64.011719 23.867188 60.675781 25.328125 58.191406 C 29.59375 50.898438 35.097656 45.085938 36.832031 45.753906 C 37.59375 46.042969 40.332031 49.230469 42.925781 52.835938 C 45.519531 56.4375 48.011719 59.277344 48.464844 59.148438 C 49.925781 58.71875 51.648438 55.023438 51.648438 51.492188 C 51.648438 46.816406 50.828125 45.71875 49.410156 44.335938 C 48.355469 43.304688 49.003906 42.761719 48.007812 41.304688 C 46.265625 38.761719 45.414062 39.542969 46.710938 36.808594 C 47.457031 35.238281 47.488281 34.492188 49.433594 32.898438 C 54.230469 28.96875 56.976562 20.792969 55.910156 16.9375 C 55.472656 15.347656 54.734375 13.332031 54.070312 12.449219 C 52.933594 10.945312 52.855469 11.03125 52.832031 13.921875 C 52.8125 16.449219 46.425781 19.355469 45.058594 19.355469 C 44.925781 19.355469 44.78125 19.378906 44.625 19.429688 C 43.433594 21.3125 42.453125 22.496094 41.691406 23.894531 C 37.992188 29.097656 39.203125 29.027344 37.824219 29.027344 C 36.4375 29.027344 33.425781 25.429688 29.65625 19.765625 C 29.363281 19.324219 28.039062 18.914062 27.832031 18.535156 C 27.726562 18.34375 27.660156 18.175781 27.585938 18.003906 C 27.554688 17.941406 27.523438 17.875 27.496094 17.8125 C 27.445312 17.695312 27.371094 17.566406 27.332031 17.457031 C 27.21875 17.164062 27.15625 16.898438 27.117188 16.648438 C 27.113281 16.640625 27.109375 16.628906 27.109375 16.621094 C 27.105469 16.601562 27.097656 16.574219 27.09375 16.550781 C 27.089844 16.523438 27.097656 16.496094 27.09375 16.46875 C 27.066406 16.238281 27.066406 16.023438 27.105469 15.828125 C 27.109375 15.808594 27.105469 15.789062 27.109375 15.773438 C 27.152344 15.554688 27.238281 15.359375 27.351562 15.171875 C 27.355469 15.167969 27.359375 15.164062 27.359375 15.15625 C 27.371094 15.140625 27.375 15.121094 27.386719 15.105469 C 27.515625 14.910156 27.691406 14.734375 27.898438 14.570312 C 27.902344 14.566406 27.90625 14.5625 27.914062 14.554688 C 27.914062 14.554688 27.921875 14.554688 27.921875 14.554688 C 28.367188 14.210938 28.988281 13.929688 29.792969 13.683594 C 29.984375 13.753906 30.160156 13.804688 30.363281 13.878906 L 33.101562 13.878906 C 33.199219 13.5625 33.210938 13.179688 33.15625 12.683594 C 32.867188 10.242188 27.039062 2.515625 25.042969 2.515625 Z M 45.652344 2.515625 C 44.542969 2.515625 39.511719 10.203125 39.742188 12.945312 C 39.957031 15.464844 39.480469 15.503906 40.574219 15.371094 C 41.546875 15.253906 44.089844 15.265625 44.574219 14.351562 C 44.902344 13.734375 45.894531 7.6875 46.21875 6.40625 C 47.132812 2.792969 47.09375 2.515625 45.652344 2.515625 Z M 45.652344 2.515625 "/>
</g>
</svg>
