<svg xmlns="http://www.w3.org/2000/svg" xmlns:xlink="http://www.w3.org/1999/xlink" width="64" height="64" viewBox="0 0 64 64" version="1.1">
<defs>
<linearGradient id="linear0" gradientUnits="userSpaceOnUse" x1="0" y1="0" x2="0" y2="1" gradientTransform="matrix(64,0,0,62.757812,0,0.621094)">
<stop offset="0" style="stop-color:#ff6666;stop-opacity:1;"/>
<stop offset="1" style="stop-color:#d90000;stop-opacity:1;"/>
</linearGradient>
</defs>
<g id="surface1">
<path style=" stroke:none;fill-rule:nonzero;fill:url(#linear0);" d="M 39.558594 61.582031 C 42.875 61.582031 45.910156 60.480469 47.429688 58.582031 C 51.160156 62.34375 54.644531 63.378906 57.648438 63.378906 C 62.480469 63.378906 64 60.304688 64 58.269531 C 64 55.714844 62.378906 53.921875 59.925781 53.921875 C 57.269531 53.921875 58.582031 59.996094 54.816406 59.996094 C 51.746094 59.996094 49.191406 51.882812 47.914062 44.808594 L 54.542969 44.808594 C 55.300781 44.808594 55.4375 44.253906 55.4375 43.667969 C 55.4375 42.078125 54.714844 40.734375 53.402344 40.734375 L 46.878906 40.734375 C 46.878906 40.734375 43.878906 26.539062 41.664062 17.675781 C 38.6875 5.742188 29.550781 2.417969 23.820312 2.417969 C 21.089844 2.417969 18.191406 3.382812 16.257812 5.386719 C 13.667969 2.726562 9.734375 0.621094 5.523438 0.621094 C 3.453125 0.621094 0 2.003906 0 4.625 C 0 6.109375 1.484375 8.355469 3.074219 8.355469 C 5.867188 8.355469 6.214844 5.316406 9.355469 5.316406 C 10.875 5.316406 11.925781 5.734375 13.1875 10.285156 C 15.949219 20.261719 20.125 40.734375 20.125 40.734375 L 15.1875 40.734375 C 14.394531 40.734375 14.292969 41.21875 14.292969 41.734375 C 14.292969 43.117188 14.808594 44.808594 16.570312 44.808594 L 21.160156 44.808594 C 23.679688 53.472656 29.273438 61.582031 39.558594 61.582031 Z M 36.867188 58.132812 C 32 58.132812 29.789062 50.054688 28.71875 44.808594 L 40.25 44.808594 C 41.078125 47.984375 42.460938 51.226562 43.945312 53.886719 C 42.285156 56.507812 39.421875 58.132812 36.867188 58.132812 Z M 26.511719 6.628906 C 29.203125 6.628906 31.34375 7.523438 32.65625 12.21875 C 35.761719 23.40625 39.214844 40.734375 39.214844 40.734375 L 27.824219 40.734375 C 26.167969 33.09375 24.34375 24.863281 22.742188 18.675781 C 21.652344 14.464844 20.734375 12.101562 19.78125 10.113281 C 21.746094 7.800781 24.300781 6.628906 26.511719 6.628906 Z M 26.511719 6.628906 "/>
</g>
</svg>
