<svg xmlns="http://www.w3.org/2000/svg" xmlns:xlink="http://www.w3.org/1999/xlink" width="64" height="64" viewBox="0 0 64 64" version="1.1">
<defs>
<linearGradient id="linear0" gradientUnits="userSpaceOnUse" x1="0" y1="0" x2="0" y2="1" gradientTransform="matrix(64,0,0,40,0,12)">
<stop offset="0" style="stop-color:#ff6666;stop-opacity:1;"/>
<stop offset="1" style="stop-color:#d90000;stop-opacity:1;"/>
</linearGradient>
</defs>
<g id="surface1">
<path style=" stroke:none;fill-rule:nonzero;fill:url(#linear0);" d="M 29.816406 31.410156 L 32.234375 29.070312 L 51.296875 47.964844 C 52.695312 49.367188 54.597656 50.132812 56.574219 50.132812 C 58.554688 50.113281 60.457031 49.328125 61.835938 47.910156 C 63.234375 46.511719 64.019531 44.605469 64 42.625 C 63.980469 40.644531 63.199219 38.742188 61.78125 37.359375 L 38.972656 14.742188 C 35.316406 11.117188 29.339844 11.082031 25.640625 14.664062 L 2.277344 37.285156 C 0.839844 38.667969 0.0390625 40.554688 0 42.53125 C -0.0351562 44.511719 0.710938 46.433594 2.089844 47.855469 C 3.472656 49.273438 5.355469 50.09375 7.332031 50.132812 C 9.308594 50.152344 11.230469 49.40625 12.648438 48.023438 L 19.089844 41.789062 L 26.992188 49.777344 C 28.371094 51.195312 30.273438 51.980469 32.253906 52 C 34.230469 52 36.132812 51.234375 37.53125 49.832031 C 38.949219 48.433594 39.730469 46.546875 39.75 44.566406 C 39.769531 42.589844 38.984375 40.683594 37.585938 39.265625 Z M 29.816406 31.410156 "/>
</g>
</svg>
