<svg xmlns="http://www.w3.org/2000/svg" xmlns:xlink="http://www.w3.org/1999/xlink" width="64" height="64" viewBox="0 0 64 64" version="1.1">
<defs>
<filter id="alpha" filterUnits="objectBoundingBox" x="0%" y="0%" width="100%" height="100%">
  <feColorMatrix type="matrix" in="SourceGraphic" values="0 0 0 0 1 0 0 0 0 1 0 0 0 0 1 0 0 0 1 0"/>
</filter>
<mask id="mask0">
  <g filter="url(#alpha)">
<rect x="0" y="0" width="64" height="64" style="fill:rgb(0%,0%,0%);fill-opacity:0.6;stroke:none;"/>
  </g>
</mask>
<linearGradient id="linear0" gradientUnits="userSpaceOnUse" x1="0" y1="0" x2="0" y2="1" gradientTransform="matrix(60.804687,0,0,51.199219,0.570312,0)">
<stop offset="0" style="stop-color:#ff6666;stop-opacity:1;"/>
<stop offset="1" style="stop-color:#d90000;stop-opacity:1;"/>
</linearGradient>
<clipPath id="clip1">
  <rect x="0" y="0" width="64" height="64"/>
</clipPath>
<g id="surface5" clip-path="url(#clip1)">
<path style=" stroke:none;fill-rule:evenodd;fill:url(#linear0);" d="M 6.140625 47.304688 C 1.992188 41.457031 0.488281 36.242188 0.574219 31.960938 C 0.726562 24.269531 5.144531 19.574219 5.144531 19.574219 C 5.144531 19.574219 4.929688 23.605469 6.8125 23.988281 C 8.695312 24.371094 8.765625 21.882812 8.644531 17.6875 C 8.523438 13.488281 10.816406 11.421875 10.816406 11.421875 C 10.816406 11.421875 10.578125 19.339844 16.675781 16.554688 C 22.769531 13.773438 17.800781 6.855469 17.800781 6.855469 C 17.800781 6.855469 23.789062 6.832031 28.769531 13.667969 C 32.722656 19.105469 41.597656 22.070312 40.710938 16.136719 C 39.828125 10.203125 45.199219 10.285156 45.199219 10.285156 C 45.199219 10.285156 43.054688 13.601562 52.542969 19.78125 C 60.066406 24.683594 64.066406 35.164062 59.328125 46.898438 L 57.59375 51.199219 Z M 27.816406 0 C 27.816406 0 24.730469 4.53125 29.628906 6.816406 C 37.855469 10.652344 37.546875 12.570312 37.546875 12.570312 C 37.546875 12.570312 39.988281 6.957031 35.992188 3.683594 C 32 0.40625 27.816406 0 27.816406 0 Z M 27.816406 0 "/>
</g>
<linearGradient id="linear1" gradientUnits="userSpaceOnUse" x1="0" y1="0" x2="0" y2="1" gradientTransform="matrix(60.574219,0,0,40,2.855469,24)">
<stop offset="0" style="stop-color:#ff6666;stop-opacity:1;"/>
<stop offset="1" style="stop-color:#d90000;stop-opacity:1;"/>
</linearGradient>
</defs>
<g id="surface1">
<use xlink:href="#surface5" mask="url(#mask0)"/>
<path style=" stroke:none;fill-rule:nonzero;fill:url(#linear1);" d="M 31.285156 29.898438 C 28.335938 26.304688 23.863281 24 18.855469 24 C 10.027344 24 2.855469 31.167969 2.855469 40 C 2.855469 48.832031 10.027344 56 18.855469 56 C 21.785156 56 24.53125 55.210938 26.882812 53.824219 C 30.195312 59.875 36.621094 64 44 64 C 54.722656 64 63.429688 55.296875 63.429688 44.570312 C 63.429688 33.847656 54.722656 25.144531 44 25.144531 C 39.136719 25.144531 34.683594 26.9375 31.285156 29.898438 Z M 31.285156 29.898438 "/>
</g>
</svg>
