<svg xmlns="http://www.w3.org/2000/svg" xmlns:xlink="http://www.w3.org/1999/xlink" width="64" height="64" viewBox="0 0 64 64" version="1.1">
<defs>
<linearGradient id="linear0" gradientUnits="userSpaceOnUse" x1="0" y1="0" x2="0" y2="1" gradientTransform="matrix(56,0,0,51.695312,4,6.152344)">
<stop offset="0" style="stop-color:#ff6666;stop-opacity:1;"/>
<stop offset="1" style="stop-color:#d90000;stop-opacity:1;"/>
</linearGradient>
</defs>
<g id="surface1">
<path style=" stroke:none;fill-rule:nonzero;fill:url(#linear0);" d="M 15.34375 10.261719 C 14.667969 10.257812 14.019531 10.597656 13.542969 11.199219 C 13.066406 11.800781 12.796875 12.617188 12.800781 13.46875 C 12.800781 15.234375 13.941406 16.664062 15.34375 16.664062 C 16.75 16.664062 17.886719 15.234375 17.890625 13.46875 C 17.890625 12.617188 17.625 11.800781 17.144531 11.199219 C 16.667969 10.597656 16.019531 10.257812 15.34375 10.261719 Z M 20.152344 12.402344 C 19.257812 12.449219 18.554688 13.390625 18.554688 14.53125 C 18.554688 15.097656 18.730469 15.640625 19.046875 16.042969 C 19.359375 16.441406 19.785156 16.664062 20.230469 16.664062 C 21.152344 16.664062 21.902344 15.710938 21.90625 14.53125 C 21.902344 13.355469 21.152344 12.398438 20.230469 12.402344 C 20.203125 12.402344 20.179688 12.402344 20.152344 12.402344 Z M 23.863281 14.84375 C 23.140625 14.871094 22.566406 15.589844 22.566406 16.464844 C 22.566406 16.894531 22.707031 17.308594 22.957031 17.613281 C 23.210938 17.914062 23.550781 18.085938 23.90625 18.085938 C 24.261719 18.085938 24.601562 17.914062 24.851562 17.609375 C 25.101562 17.308594 25.242188 16.894531 25.242188 16.464844 C 25.242188 16.035156 25.101562 15.625 24.851562 15.320312 C 24.601562 15.015625 24.261719 14.84375 23.90625 14.84375 C 23.890625 14.84375 23.878906 14.84375 23.863281 14.84375 Z M 26.757812 17.367188 C 26.183594 17.414062 25.742188 17.972656 25.746094 18.644531 C 25.742188 19.34375 26.222656 19.910156 26.820312 19.914062 C 27.109375 19.917969 27.386719 19.785156 27.589844 19.542969 C 27.796875 19.304688 27.910156 18.980469 27.910156 18.644531 C 27.910156 18.304688 27.796875 17.980469 27.589844 17.742188 C 27.386719 17.5 27.109375 17.367188 26.820312 17.367188 C 26.800781 17.367188 26.777344 17.367188 26.757812 17.367188 Z M 15.050781 18.515625 C 13.421875 18.542969 12.347656 19.007812 11.308594 20.230469 C 9.414062 22.460938 9.796875 25.628906 12.289062 28.347656 C 17.6875 34.230469 18.332031 38.171875 13.167969 42.621094 C 11.042969 44.453125 9.503906 48.757812 10.167969 51.015625 C 11 53.855469 14.183594 54.945312 16.953125 53.34375 C 19.554688 51.839844 22.496094 46.691406 24.503906 40.546875 C 24.671875 40.035156 24.839844 39.519531 24.992188 38.996094 C 25.453125 37.421875 25.847656 35.796875 26.160156 34.167969 C 27.101562 29.25 26.871094 25.425781 25.492188 23.121094 C 24.636719 21.6875 21.453125 19.835938 18.695312 19.011719 C 18.101562 18.828125 17.492188 18.699219 16.878906 18.621094 C 16.273438 18.546875 15.660156 18.511719 15.050781 18.515625 Z M 28.324219 20.21875 C 27.84375 20.238281 27.464844 20.710938 27.464844 21.28125 C 27.464844 21.871094 27.863281 22.347656 28.355469 22.347656 C 28.847656 22.347656 29.246094 21.871094 29.246094 21.28125 C 29.246094 20.695312 28.847656 20.21875 28.355469 20.21875 C 28.34375 20.21875 28.332031 20.21875 28.324219 20.21875 Z M 32.292969 49.335938 L 32.292969 54.082031 L 54.570312 54.082031 L 54.570312 49.335938 Z M 32.292969 49.335938 "/>
</g>
</svg>
