<svg xmlns="http://www.w3.org/2000/svg" xmlns:xlink="http://www.w3.org/1999/xlink" width="64" height="64" viewBox="0 0 64 64" version="1.1">
<defs> <linearGradient id="linear0" gradientUnits="userSpaceOnUse" x1="0" y1="0" x2="0" y2="1" gradientTransform="matrix(55.992188,0,0,56,4.003906,4)"> <stop offset="0" style="stop-color:#ff6666;stop-opacity:1;"/> <stop offset="1" style="stop-color:#d90000;stop-opacity:1;"/> </linearGradient> </defs>
<g id="surface1">
<path style=" stroke:none;fill-rule:nonzero;fill:url(#linear0);fill-opacity:1;" d="M 53.464844 12.613281 C 52.933594 12.640625 52.464844 12.808594 52.132812 13.136719 L 52.109375 13.152344 L 49.597656 15.671875 L 49.542969 15.722656 L 49.597656 15.773438 L 60.347656 26.472656 L 60.40625 26.527344 L 60.457031 26.472656 L 62.972656 23.96875 C 62.984375 23.957031 62.988281 23.945312 62.996094 23.9375 C 63.597656 23.3125 63.660156 22.292969 63.296875 21.152344 C 62.925781 20.007812 62.125 18.730469 60.972656 17.582031 L 58.539062 15.152344 C 56.941406 13.566406 55.101562 12.644531 53.699219 12.613281 C 53.621094 12.613281 53.539062 12.613281 53.464844 12.613281 M 6.902344 14.539062 L 6.902344 18.804688 L 44.390625 18.804688 C 45.390625 17.796875 46.390625 16.789062 47.390625 15.777344 C 47.46875 15.320312 48.117188 15.375 48.191406 15.058594 C 48.378906 14.902344 48.554688 14.726562 48.734375 14.539062 L 6.902344 14.539062 M 48.257812 16.996094 L 48.203125 17.050781 L 45.542969 19.703125 L 45.492188 19.757812 L 45.542969 19.816406 L 56.292969 30.511719 L 56.351562 30.566406 L 56.40625 30.511719 L 59.066406 27.859375 L 59.117188 27.808594 L 59.066406 27.75 L 48.265625 16.996094 M 43.960938 21.28125 L 43.902344 21.332031 L 27.6875 37.496094 L 25.683594 39.480469 L 25.179688 39.988281 L 25.160156 39.996094 L 25.160156 40.015625 L 21.105469 52.652344 L 21.101562 52.65625 C 20.953125 53.339844 21.179688 54.09375 21.664062 54.546875 L 21.667969 54.550781 C 22.117188 54.886719 22.707031 54.96875 23.21875 54.765625 L 23.226562 54.765625 L 36.089844 50.722656 L 36.097656 50.71875 L 36.117188 50.699219 L 36.53125 50.28125 L 38.472656 48.359375 L 54.761719 32.144531 L 54.8125 32.089844 L 54.761719 32.03125 L 44.011719 21.335938 L 43.960938 21.285156 M 6.902344 23.078125 L 6.902344 27.34375 L 35.832031 27.34375 C 37.261719 25.917969 38.695312 24.5 40.125 23.078125 L 6.902344 23.078125 M 6.902344 31.617188 L 6.902344 35.890625 L 27.269531 35.890625 C 28.683594 34.464844 30.101562 33.039062 31.527344 31.617188 L 6.902344 31.617188 M 6.902344 40.164062 L 6.902344 44.429688 L 22.230469 44.429688 C 22.707031 43.015625 23.179688 41.59375 23.578125 40.164062 L 6.902344 40.164062 M 48.753906 40.164062 C 47.320312 41.582031 45.894531 43.003906 44.46875 44.429688 L 49.785156 44.429688 L 49.785156 40.164062 L 48.753906 40.164062 M 28.058594 41.816406 L 28.070312 41.816406 C 28.082031 41.816406 28.09375 41.816406 28.109375 41.816406 C 28.109375 41.816406 28.109375 41.816406 28.113281 41.816406 L 28.121094 41.816406 C 28.257812 41.816406 28.394531 41.878906 28.496094 41.980469 L 29.421875 42.894531 L 32.902344 42.714844 C 32.902344 42.714844 32.90625 42.714844 32.90625 42.714844 C 33.042969 42.710938 33.1875 42.761719 33.289062 42.851562 C 33.40625 42.957031 33.476562 43.117188 33.46875 43.28125 L 33.292969 47.070312 L 33.96875 47.742188 C 34.101562 47.871094 34.164062 48.070312 34.113281 48.257812 C 34.0625 48.4375 33.90625 48.585938 33.726562 48.636719 L 27.660156 50.253906 C 27.480469 50.304688 27.273438 50.253906 27.136719 50.125 L 25.960938 48.953125 C 25.824219 48.816406 25.765625 48.613281 25.820312 48.425781 L 27.597656 42.210938 C 27.65625 42.003906 27.84375 41.839844 28.058594 41.816406 M 6.902344 48.699219 L 6.902344 52.96875 L 19.710938 52.96875 C 19.988281 51.527344 20.378906 50.105469 20.816406 48.699219 L 6.902344 48.699219 "/>
</g>
</svg>
