<svg xmlns="http://www.w3.org/2000/svg" xmlns:xlink="http://www.w3.org/1999/xlink" width="64" height="64" viewBox="0 0 64 64" version="1.1">
<defs>
<linearGradient id="linear0" gradientUnits="userSpaceOnUse" x1="0" y1="0" x2="0" y2="1" gradientTransform="matrix(44.46875,0,0,60,10,2)">
<stop offset="0" style="stop-color:#ff6666;stop-opacity:1;"/>
<stop offset="1" style="stop-color:#d90000;stop-opacity:1;"/>
</linearGradient>
</defs>
<g id="surface1">
<path style=" stroke:none;fill-rule:nonzero;fill:url(#linear0);" d="M 27.238281 61.898438 C 24.601562 61.652344 19.464844 60.742188 19.195312 60.472656 C 19.019531 60.296875 19.449219 59.832031 19.992188 59.613281 C 20.316406 59.484375 21.210938 59.28125 21.988281 59.164062 C 27.144531 58.375 29.175781 57.167969 30.035156 54.386719 C 30.65625 52.382812 31.066406 45.4375 31.042969 37.304688 C 31.027344 30.929688 30.898438 28.402344 30.507812 26.898438 C 30.394531 26.472656 30.320312 26.105469 30.34375 26.082031 C 30.363281 26.0625 30.726562 26.136719 31.148438 26.25 C 31.957031 26.46875 33.183594 26.417969 33.6875 26.148438 C 33.839844 26.066406 33.996094 26.03125 34.035156 26.070312 C 34.074219 26.109375 34.003906 26.59375 33.878906 27.148438 C 33.535156 28.652344 33.390625 31.773438 33.386719 37.65625 C 33.382812 44.394531 33.785156 52.015625 34.246094 53.949219 C 34.429688 54.714844 34.925781 55.746094 35.421875 56.394531 C 36.378906 57.652344 38.664062 58.59375 42.027344 59.113281 C 44.027344 59.421875 44.996094 59.75 45.242188 60.210938 C 45.378906 60.46875 45.339844 60.511719 44.867188 60.644531 C 43.773438 60.949219 40.925781 61.488281 39.246094 61.710938 C 37.214844 61.976562 29.386719 62.101562 27.238281 61.902344 Z M 31.476562 25.738281 C 30.304688 25.503906 29.847656 25.140625 28.628906 23.476562 C 25.3125 18.957031 21.621094 14.78125 14.441406 7.417969 C 12.097656 5.015625 10.121094 2.945312 10.050781 2.8125 C 9.953125 2.632812 9.992188 2.535156 10.21875 2.414062 C 11.25 1.863281 53.136719 1.859375 54.167969 2.414062 C 54.332031 2.5 54.46875 2.644531 54.46875 2.734375 C 54.46875 2.824219 52.910156 4.472656 51.003906 6.394531 C 44.035156 13.4375 39.898438 18.082031 36.265625 22.949219 C 34.980469 24.675781 34.648438 25.03125 34.035156 25.347656 C 33.214844 25.773438 32.324219 25.90625 31.476562 25.738281 Z M 31.476562 25.738281 "/>
</g>
</svg>
