<svg xmlns="http://www.w3.org/2000/svg" xmlns:xlink="http://www.w3.org/1999/xlink" width="64" height="64" viewBox="0 0 64 64" version="1.1">
<defs>
<linearGradient id="linear0" gradientUnits="userSpaceOnUse" x1="0" y1="0" x2="0" y2="1" gradientTransform="matrix(48.015625,0,0,64,7.992187,0)">
<stop offset="0" style="stop-color:#ff6666;stop-opacity:1;"/>
<stop offset="1" style="stop-color:#d90000;stop-opacity:1;"/>
</linearGradient>
</defs>
<g id="surface1">
<path style=" stroke:none;fill-rule:nonzero;fill:url(#linear0);" d="M 34.882812 0 C 28.578125 -0.0117188 20.722656 0.386719 19.652344 0.972656 C 18.398438 1.660156 18.34375 1.839844 19.148438 2.640625 C 19.640625 3.132812 21.34375 3.675781 22.925781 3.84375 C 24.65625 4.023438 26.339844 4.632812 27.140625 5.363281 C 28.386719 6.5 28.476562 7.066406 28.476562 13.851562 C 28.476562 14.730469 28.488281 15.027344 28.300781 15.902344 C 28.03125 17.171875 26.609375 17.492188 25.808594 17.980469 C 24.617188 18.6875 23.675781 19.039062 22.957031 19.273438 C 20.042969 20.226562 18.230469 21.023438 16.601562 21.78125 C 15.28125 22.390625 14.117188 23.050781 12.675781 24.136719 C 10.03125 26.128906 8 28.015625 7.992188 30.597656 L 7.992188 30.601562 C 7.992188 30.605469 7.992188 30.605469 7.992188 30.605469 C 7.992188 30.609375 7.992188 30.609375 7.992188 30.613281 L 7.992188 30.617188 C 8 33.199219 10.03125 35.085938 12.675781 37.078125 C 14.117188 38.167969 15.28125 38.824219 16.601562 39.433594 C 18.230469 40.191406 20.042969 40.988281 22.957031 41.9375 C 23.675781 42.171875 24.617188 42.527344 25.808594 43.234375 C 26.851562 43.769531 28.160156 44.203125 28.304688 45.203125 C 28.382812 45.878906 28.40625 48.101562 28.40625 49.992188 C 28.40625 58.914062 28.167969 59.394531 23.421875 60.039062 C 17.820312 60.796875 16.941406 62.621094 21.699219 63.613281 C 25.335938 64.371094 42.722656 63.921875 44.355469 63.027344 C 45.609375 62.339844 45.660156 62.164062 44.859375 61.359375 C 44.367188 60.867188 42.664062 60.324219 41.082031 60.15625 C 39.351562 59.976562 37.667969 59.367188 36.863281 58.636719 C 35.617188 57.5 35.527344 56.929688 35.527344 50.148438 C 35.527344 47.902344 35.453125 46.394531 35.589844 45.277344 C 36.085938 44.097656 37.632812 43.566406 38.191406 43.234375 C 39.382812 42.527344 40.324219 42.175781 41.042969 41.941406 C 43.957031 40.988281 45.769531 40.191406 47.398438 39.433594 C 48.71875 38.824219 49.882812 38.167969 51.324219 37.082031 C 53.96875 35.089844 56 33.199219 56.007812 30.617188 L 56.007812 30.613281 C 56.007812 30.609375 56.007812 30.609375 56.007812 30.605469 L 56.007812 30.601562 C 56 28.019531 53.96875 26.132812 51.324219 24.140625 C 49.882812 23.054688 48.71875 22.394531 47.398438 21.785156 C 45.769531 21.027344 42.003906 19.058594 39.089844 18.105469 C 36.957031 17.058594 36.488281 16.757812 36.003906 15.621094 C 35.582031 14.640625 35.699219 14.011719 35.699219 13.226562 C 35.699219 4.308594 35.839844 4.605469 40.582031 3.964844 C 46.183594 3.203125 47.066406 1.378906 42.308594 0.386719 C 41.398438 0.207031 39.628906 0.0820312 37.464844 0.0351562 C 36.652344 0.015625 35.78125 0.015625 34.882812 0 Z M 32 19.621094 C 38.574219 19.621094 43.90625 24.539062 43.90625 30.609375 C 43.90625 36.679688 38.574219 41.597656 32 41.597656 C 25.425781 41.597656 20.09375 36.679688 20.09375 30.609375 C 20.09375 24.539062 25.425781 19.621094 32 19.621094 Z M 32 19.621094 "/>
</g>
</svg>
