<svg xmlns="http://www.w3.org/2000/svg" xmlns:xlink="http://www.w3.org/1999/xlink" width="64" height="64" viewBox="0 0 64 64" version="1.1">
<defs>
<linearGradient id="linear0" gradientUnits="userSpaceOnUse" x1="0" y1="0" x2="0" y2="1" gradientTransform="matrix(54.101562,0,0,64,4.949219,0)">
<stop offset="0" style="stop-color:#ff6666;stop-opacity:1;"/>
<stop offset="1" style="stop-color:#d90000;stop-opacity:1;"/>
</linearGradient>
</defs>
<g id="surface1">
<path style=" stroke:none;fill-rule:nonzero;fill:url(#linear0);" d="M 50.425781 0.015625 C 50.316406 0.0234375 50.210938 0.0507812 50.117188 0.09375 L 50.039062 0.167969 L 42.664062 2.625 C 42.335938 2.742188 42.074219 2.996094 41.945312 3.320312 C 41.8125 3.640625 41.820312 4.003906 41.976562 4.316406 L 43.890625 8.230469 C 42.460938 8.980469 41.304688 10.164062 40.59375 11.617188 C 39.5625 13.554688 39.214844 15.695312 39.59375 17.605469 C 35.601562 15.867188 31.535156 16.730469 29.300781 19.988281 C 27.484375 22.628906 27.011719 26.054688 28.300781 29.046875 C 24.816406 27.457031 21.148438 27.070312 18.46875 30.585938 C 20.4375 34.023438 25.871094 40.929688 38.902344 42.644531 C 39.207031 39.878906 38.714844 37.738281 37.132812 35.65625 C 40.878906 36.566406 44.671875 36.128906 46.277344 34.042969 C 47.996094 31.816406 48.203125 27.640625 46.121094 23.746094 C 50.730469 24.902344 57.117188 24.125 58.566406 21.214844 C 60.285156 17.777344 57.316406 11.660156 51.421875 8.464844 C 50.929688 8.214844 50.410156 8.011719 49.882812 7.847656 L 50.65625 7.464844 L 55.339844 7.464844 C 56.015625 7.464844 56.566406 6.914062 56.566406 6.234375 C 56.566406 5.554688 56.015625 5.007812 55.339844 5.007812 L 50.425781 5.007812 C 50.347656 4.996094 50.269531 4.996094 50.191406 5.007812 C 50.085938 5.042969 49.980469 5.097656 49.882812 5.164062 L 46.042969 7.078125 L 44.734375 4.46875 L 50.808594 2.472656 C 51.136719 2.425781 51.429688 2.242188 51.621094 1.976562 C 51.816406 1.710938 51.894531 1.378906 51.84375 1.050781 C 51.792969 0.726562 51.617188 0.433594 51.347656 0.238281 C 51.085938 0.0429688 50.746094 -0.0351562 50.425781 0.015625 Z M 10.863281 0.09375 C 6.441406 0.09375 4.949219 2.320312 4.949219 7.234375 C 4.949219 12.890625 8.867188 23.925781 23.617188 26.132812 C 23.617188 26.132812 23.414062 23.722656 24.15625 21.753906 C 10.878906 20.273438 9.863281 8.714844 9.863281 7.230469 C 9.863281 5.515625 10.34375 5.007812 11.324219 5.007812 C 17.21875 5.007812 27.070312 17.296875 27.070312 17.296875 C 28.792969 15.09375 31.21875 14.609375 31.21875 14.609375 C 26.050781 6.742188 15.035156 0.09375 10.859375 0.09375 Z M 24.613281 0.09375 C 23.136719 0.09375 21.925781 0.550781 20.695312 1.785156 C 21.925781 2.519531 25.125 4.519531 25.613281 5.007812 C 27.820312 5.007812 31.246094 6.449219 34.445312 14.070312 C 34.445312 14.070312 36.15625 14.578125 37.136719 15.070312 C 37.382812 13.839844 38.132812 12.152344 38.132812 12.152344 C 35.425781 5.027344 29.039062 0.09375 24.613281 0.09375 Z M 49.117188 10 C 50.625 9.808594 52.269531 10.308594 53.339844 11.382812 C 56.046875 13.839844 56.046875 17.277344 54.566406 18.757812 C 53.09375 20.234375 49.472656 19.726562 47.503906 17.757812 C 45.535156 16.039062 45.015625 12.871094 46.734375 11.152344 C 47.378906 10.515625 48.214844 10.109375 49.117188 10 Z M 16.472656 35.273438 C 16.222656 35.765625 16.261719 36.238281 16.011719 36.730469 C 15.519531 38.699219 15.261719 40.390625 15.011719 42.109375 C 17.71875 45.542969 23.890625 51.480469 35.445312 52.707031 C 36.726562 50.9375 37.644531 48.929688 38.132812 46.792969 C 33.46875 46.542969 22.367188 43.871094 16.472656 35.273438 Z M 15.011719 48.792969 C 15.578125 53.488281 17.355469 57.246094 19.773438 59.238281 C 21.058594 62.328125 24.613281 64 24.613281 64 L 24.613281 60.542969 C 26.726562 60.101562 29.472656 58.746094 31.988281 56.394531 C 27.324219 56.148438 20.175781 54.195312 15.011719 48.792969 Z M 15.011719 48.792969 "/>
</g>
</svg>
