<svg xmlns="http://www.w3.org/2000/svg" xmlns:xlink="http://www.w3.org/1999/xlink" width="64" height="64" viewBox="0 0 64 64" version="1.1">
<defs> <linearGradient id="linear0" gradientUnits="userSpaceOnUse" x1="0" y1="0" x2="0" y2="1" gradientTransform="matrix(55.992188,0,0,56,4.003906,4)"> <stop offset="0" style="stop-color:#ff6666;stop-opacity:1;"/> <stop offset="1" style="stop-color:#d90000;stop-opacity:1;"/> </linearGradient> </defs>
<g id="surface1">
<path style=" stroke:none;fill-rule:evenodd;fill:url(#linear0);fill-opacity:1;" d="M 34.800781 9.222656 C 33.6875 11.175781 33.140625 12.378906 32.867188 13.097656 C 32.75 13.425781 32.699219 13.789062 32.65625 13.789062 C 32.625 13.789062 32.574219 13.4375 32.453125 13.121094 C 32.179688 12.394531 31.636719 11.199219 30.523438 9.246094 L 29.871094 9.570312 C 30.972656 11.503906 31.5 12.664062 31.753906 13.335938 C 31.867188 13.640625 32.011719 13.851562 31.9375 13.941406 C 31.867188 14.023438 31.703125 13.957031 31.378906 14.21875 C 31.054688 14.476562 30.683594 15.089844 30.589844 15.851562 C 28.785156 15.828125 28.195312 15.789062 28.171875 15.789062 C 27.996094 15.621094 27.785156 15.433594 27.425781 15.167969 C 26.996094 14.84375 26.433594 14.484375 25.867188 14.132812 C 25.296875 13.777344 24.722656 13.4375 24.191406 13.207031 C 23.664062 12.972656 22.925781 12.871094 22.726562 12.929688 C 22.527344 12.980469 22.753906 12.921875 22.703125 12.929688 C 22.652344 12.929688 22.617188 12.921875 22.46875 12.929688 C 22.320312 12.929688 22 12.921875 21.65625 12.929688 C 20.976562 12.933594 20.035156 12.949219 18.910156 12.992188 C 16.664062 13.070312 13.71875 13.277344 10.742188 13.765625 C 7.773438 14.257812 4.78125 15.019531 2.441406 16.304688 C 0.105469 17.589844 -1.609375 19.433594 -1.863281 21.925781 C -1.863281 21.929688 -1.863281 21.941406 -1.863281 21.949219 C -1.863281 21.964844 -1.871094 22.003906 -1.863281 22.078125 C -1.851562 22.15625 -1.820312 22.269531 -1.769531 22.402344 C -1.671875 22.65625 -1.46875 23.011719 -1.046875 23.414062 C -0.210938 24.214844 1.457031 25.273438 4.882812 26.488281 C 4.882812 26.488281 5.496094 26.734375 6 27.09375 C 6.25 27.277344 6.460938 27.496094 6.558594 27.675781 C 6.660156 27.851562 6.675781 27.949219 6.558594 28.128906 L 6.558594 28.148438 C 6.558594 28.148438 6.476562 28.269531 6.445312 28.429688 C 6.410156 28.585938 6.402344 28.800781 6.464844 29.074219 C 6.589844 29.617188 7.007812 30.328125 8.066406 31.207031 C 8.066406 31.207031 8.140625 31.261719 8.164062 31.269531 C 8.179688 31.28125 8.199219 31.292969 8.210938 31.292969 C 8.234375 31.300781 8.242188 31.292969 8.253906 31.292969 C 8.277344 31.296875 8.289062 31.3125 8.300781 31.3125 C 8.328125 31.320312 8.339844 31.3125 8.375 31.3125 C 8.429688 31.320312 8.535156 31.324219 8.628906 31.335938 C 8.816406 31.359375 9.066406 31.382812 9.328125 31.445312 C 9.84375 31.566406 10.367188 31.824219 10.582031 32.195312 C 10.699219 32.398438 10.878906 32.445312 11.050781 32.496094 C 11.214844 32.550781 11.402344 32.582031 11.605469 32.601562 C 12.019531 32.652344 12.519531 32.683594 13.003906 32.695312 C 13.484375 32.699219 13.953125 32.695312 14.28125 32.714844 C 14.394531 32.722656 14.46875 32.726562 14.535156 32.734375 C 14.558594 32.863281 14.582031 33.101562 14.582031 33.507812 C 14.582031 33.761719 14.566406 34.027344 14.511719 34.21875 C 14.460938 34.414062 14.390625 34.519531 14.347656 34.542969 L 14.304688 34.566406 L 14.28125 34.589844 C 14.28125 34.589844 13.792969 35.050781 13.605469 35.839844 C 13.421875 36.617188 13.570312 37.75 14.699219 38.960938 C 15.8125 40.148438 17.851562 41.703125 19.628906 43.15625 C 20.523438 43.878906 21.34375 44.582031 21.9375 45.15625 C 22.226562 45.445312 22.457031 45.699219 22.613281 45.910156 C 22.757812 46.125 22.816406 46.289062 22.816406 46.324219 C 22.816406 46.363281 22.527344 48.640625 22.378906 50.996094 C 22.300781 52.183594 22.265625 53.371094 22.328125 54.3125 C 22.363281 54.785156 22.414062 55.191406 22.515625 55.519531 C 22.566406 55.683594 22.632812 55.820312 22.726562 55.949219 C 22.820312 56.078125 22.953125 56.203125 23.144531 56.25 C 23.984375 56.453125 24.882812 56.039062 25.585938 55.519531 C 26.292969 54.992188 26.855469 54.363281 26.886719 53.6875 C 26.945312 52.628906 26.183594 51.796875 26.097656 51.707031 C 26.074219 51.632812 25.960938 51.179688 25.886719 50.609375 C 25.847656 50.296875 25.816406 49.988281 25.84375 49.722656 C 25.871094 49.460938 25.96875 49.269531 26.03125 49.207031 C 26.117188 49.121094 26.242188 49.101562 26.472656 49.101562 C 26.699219 49.105469 27.007812 49.140625 27.332031 49.207031 C 27.65625 49.273438 28.011719 49.371094 28.351562 49.398438 C 28.699219 49.429688 29.058594 49.394531 29.382812 49.207031 C 30.070312 48.8125 30.761719 47.933594 31.425781 47.144531 C 31.761719 46.746094 31.886719 46.480469 32.335938 46.128906 C 32.777344 45.773438 33.25 46.355469 33.890625 47.097656 C 34.554688 47.890625 35.253906 48.789062 35.941406 49.183594 C 36.257812 49.371094 36.617188 49.386719 36.960938 49.359375 C 37.308594 49.332031 37.660156 49.253906 37.984375 49.183594 C 38.308594 49.117188 38.617188 49.058594 38.847656 49.054688 C 39.074219 49.054688 39.199219 49.105469 39.285156 49.183594 C 39.355469 49.246094 39.421875 49.417969 39.449219 49.683594 C 39.476562 49.941406 39.46875 50.277344 39.425781 50.585938 C 39.355469 51.179688 39.207031 51.667969 39.195312 51.707031 C 39.082031 51.824219 38.371094 52.628906 38.429688 53.664062 C 38.460938 54.34375 39.023438 54.96875 39.726562 55.496094 C 40.4375 56.015625 41.308594 56.429688 42.148438 56.226562 C 42.339844 56.179688 42.5 56.054688 42.589844 55.925781 C 42.6875 55.796875 42.75 55.636719 42.800781 55.472656 C 42.902344 55.144531 42.953125 54.761719 42.988281 54.292969 C 43.054688 53.347656 43.015625 52.136719 42.941406 50.953125 C 42.796875 48.601562 42.484375 46.34375 42.476562 46.300781 C 42.476562 46.265625 42.535156 46.101562 42.6875 45.894531 C 42.835938 45.679688 43.066406 45.425781 43.355469 45.136719 C 43.949219 44.558594 44.769531 43.863281 45.664062 43.132812 C 47.445312 41.6875 49.507812 40.101562 50.613281 38.914062 C 51.746094 37.703125 51.894531 36.597656 51.710938 35.816406 C 51.527344 35.027344 51.035156 34.566406 51.035156 34.566406 L 50.988281 34.542969 L 50.96875 34.519531 C 50.925781 34.496094 50.832031 34.390625 50.78125 34.199219 C 50.730469 34.003906 50.710938 33.738281 50.710938 33.492188 C 50.710938 33.089844 50.761719 32.847656 50.78125 32.714844 C 50.851562 32.703125 50.921875 32.699219 51.035156 32.695312 C 51.371094 32.675781 51.835938 32.683594 52.320312 32.671875 C 52.796875 32.660156 53.296875 32.632812 53.710938 32.585938 C 53.921875 32.558594 54.101562 32.53125 54.273438 32.480469 C 54.4375 32.421875 54.617188 32.355469 54.738281 32.15625 C 54.953125 31.777344 55.46875 31.546875 55.992188 31.421875 C 56.253906 31.359375 56.5 31.335938 56.691406 31.3125 C 56.78125 31.300781 56.863281 31.296875 56.925781 31.292969 C 56.953125 31.292969 56.988281 31.273438 57.015625 31.269531 C 57.027344 31.269531 57.039062 31.273438 57.0625 31.269531 C 57.070312 31.269531 57.082031 31.257812 57.105469 31.25 C 57.117188 31.246094 57.132812 31.234375 57.15625 31.230469 C 57.175781 31.21875 57.246094 31.183594 57.246094 31.183594 C 58.316406 30.308594 58.722656 29.59375 58.855469 29.050781 C 58.917969 28.78125 58.890625 28.542969 58.855469 28.382812 C 58.820312 28.226562 58.757812 28.105469 58.757812 28.105469 C 58.644531 27.925781 58.660156 27.8125 58.757812 27.632812 C 58.859375 27.449219 59.066406 27.253906 59.320312 27.070312 C 59.808594 26.714844 60.382812 26.476562 60.410156 26.46875 C 60.410156 26.46875 60.433594 26.449219 60.433594 26.449219 C 63.835938 25.234375 65.535156 24.171875 66.367188 23.367188 C 66.78125 22.964844 66.988281 22.632812 67.089844 22.378906 C 67.140625 22.25 67.152344 22.136719 67.15625 22.054688 C 67.164062 21.980469 67.15625 21.921875 67.15625 21.902344 L 67.15625 21.878906 C 66.90625 19.386719 65.210938 17.566406 62.875 16.28125 C 60.535156 14.996094 57.542969 14.210938 54.574219 13.71875 C 51.601562 13.234375 48.648438 13.046875 46.40625 12.96875 C 45.28125 12.929688 44.34375 12.910156 43.660156 12.90625 C 43.316406 12.898438 42.992188 12.90625 42.847656 12.90625 C 42.699219 12.898438 42.664062 12.882812 42.613281 12.882812 C 42.5625 12.878906 42.789062 12.933594 42.589844 12.882812 C 42.390625 12.832031 41.660156 12.949219 41.125 13.183594 C 40.589844 13.414062 39.996094 13.753906 39.425781 14.109375 C 38.859375 14.464844 38.320312 14.824219 37.886719 15.144531 C 37.542969 15.40625 37.34375 15.574219 37.167969 15.746094 C 37.148438 15.75 36.53125 15.785156 34.703125 15.8125 C 34.613281 15.046875 34.253906 14.449219 33.9375 14.195312 C 33.617188 13.941406 33.511719 14.035156 33.4375 13.945312 C 33.363281 13.859375 33.449219 13.625 33.5625 13.3125 C 33.816406 12.640625 34.34375 11.480469 35.445312 9.546875 "/>
</g>
</svg>
