<svg xmlns="http://www.w3.org/2000/svg" xmlns:xlink="http://www.w3.org/1999/xlink" width="64" height="64" viewBox="0 0 64 64" version="1.1">
<defs>
<linearGradient id="linear0" gradientUnits="userSpaceOnUse" x1="0" y1="0" x2="0" y2="1" gradientTransform="matrix(64.007812,0,0,64,-0.00390625,0)">
<stop offset="0" style="stop-color:#ff6666;stop-opacity:1;"/>
<stop offset="1" style="stop-color:#d90000;stop-opacity:1;"/>
</linearGradient>
</defs>
<g id="surface1">
<path style=" stroke:none;fill-rule:nonzero;fill:url(#linear0);" d="M 2.574219 0.0195312 C 1.535156 0.105469 0.824219 0.496094 0.378906 1.199219 C -0.253906 2.203125 -0.0859375 4.769531 0.78125 7.324219 C 1.640625 9.863281 3.695312 13.878906 5.621094 17.136719 C 8.796875 12.515625 13.160156 8.792969 18.257812 6.351562 C 13.71875 3.488281 8.84375 1.140625 5.621094 0.363281 C 4.914062 0.183594 4.289062 0.078125 3.722656 0.03125 C 3.304688 -0.0078125 2.921875 -0.0078125 2.574219 0.0195312 Z M 61.425781 0.0195312 C 61.078125 -0.0078125 60.695312 -0.0078125 60.277344 0.03125 C 59.710938 0.078125 59.085938 0.183594 58.378906 0.363281 C 54.804688 1.222656 49.175781 3.976562 44.265625 7.269531 C 41.761719 8.945312 41.601562 9.164062 41.601562 10.863281 C 41.601562 12.074219 41.699219 12.480469 42.3125 13.753906 C 44.007812 17.269531 47.800781 20.859375 51.042969 22.023438 C 52.484375 22.539062 54.324219 22.523438 55.007812 21.988281 C 56.71875 20.644531 61.746094 11.664062 63.21875 7.324219 C 64.085938 4.769531 64.253906 2.203125 63.621094 1.199219 C 63.175781 0.496094 62.464844 0.105469 61.425781 0.0195312 Z M 32 6.398438 C 24.359375 6.398438 17.035156 9.4375 11.636719 14.835938 C 6.234375 20.234375 3.199219 27.5625 3.199219 35.199219 C 3.199219 42.839844 6.234375 50.164062 11.636719 55.5625 C 17.035156 60.964844 24.359375 64 32 64 C 39.640625 64 46.964844 60.964844 52.363281 55.5625 C 57.765625 50.164062 60.800781 42.839844 60.800781 35.199219 C 60.789062 31.09375 59.894531 27.03125 58.1875 23.296875 C 57.851562 23.703125 57.5 24.097656 56.988281 24.5 C 55.554688 25.625 54.453125 25.59375 53.335938 25.601562 C 52.222656 25.613281 51.101562 25.449219 49.964844 25.035156 C 45.492188 23.4375 41.566406 19.566406 39.433594 15.136719 C 38.761719 13.746094 38.398438 12.246094 38.398438 10.863281 C 38.398438 9.96875 38.539062 8.546875 39.300781 7.375 C 36.921875 6.738281 34.464844 6.410156 32 6.398438 Z M 32 6.398438 "/>
</g>
</svg>
