<svg xmlns="http://www.w3.org/2000/svg" xmlns:xlink="http://www.w3.org/1999/xlink" width="64" height="64" viewBox="0 0 64 64" version="1.1">
<defs>
<linearGradient id="linear0" gradientUnits="userSpaceOnUse" x1="0" y1="0" x2="0" y2="1" gradientTransform="matrix(49.453125,0,0,64,7.273438,0)">
<stop offset="0" style="stop-color:#ff6666;stop-opacity:1;"/>
<stop offset="1" style="stop-color:#d90000;stop-opacity:1;"/>
</linearGradient>
</defs>
<g id="surface1">
<path style=" stroke:none;fill-rule:evenodd;fill:url(#linear0);" d="M 27.84375 13.570312 C 25.234375 14.167969 22.789062 15.308594 20.652344 16.921875 L 20.363281 17.457031 C 22.289062 16.203125 25.332031 16.332031 27.617188 16.09375 Z M 36.15625 13.578125 L 36.5625 18.089844 C 40.011719 20.15625 42.449219 23.558594 43.296875 27.492188 L 50.542969 28.34375 C 49.089844 21.011719 43.449219 15.222656 36.15625 13.578125 Z M 15.644531 22.585938 C 14.609375 24.371094 13.871094 26.316406 13.464844 28.339844 L 14.757812 28.191406 C 14.765625 26 15.644531 22.585938 15.644531 22.585938 Z M 13.453125 35.65625 C 14.90625 42.988281 20.550781 48.777344 27.84375 50.421875 L 27.347656 44.976562 C 22.058594 44.335938 17.542969 40.859375 15.574219 35.90625 Z M 50.535156 35.660156 L 42.289062 36.628906 C 41.113281 39.179688 39.21875 41.339844 36.84375 42.84375 L 36.15625 50.429688 C 43.449219 48.78125 49.085938 42.992188 50.535156 35.660156 Z M 32 0 L 28.882812 28.882812 L 7.273438 32 L 28.882812 35.117188 L 32 64 L 35.117188 35.117188 L 56.726562 32 L 35.117188 28.882812 Z M 32 0 "/>
</g>
</svg>
