<svg xmlns="http://www.w3.org/2000/svg" xmlns:xlink="http://www.w3.org/1999/xlink" width="64" height="64" viewBox="0 0 64 64" version="1.1">
<defs> <linearGradient id="linear0" gradientUnits="userSpaceOnUse" x1="0" y1="0" x2="0" y2="1" gradientTransform="matrix(55.992188,0,0,56,4.003906,4)"> <stop offset="0" style="stop-color:#ff6666;stop-opacity:1;"/> <stop offset="1" style="stop-color:#d90000;stop-opacity:1;"/> </linearGradient> </defs>
<g id="surface1">
<path style=" stroke:none;fill-rule:nonzero;fill:url(#linear0);fill-opacity:1;" d="M 11.09375 11.898438 C 10.5 11.898438 9.902344 12.125 9.441406 12.578125 L 9.191406 12.828125 C 8.285156 13.738281 8.285156 15.207031 9.191406 16.113281 L 14.449219 21.347656 C 13.746094 22.949219 12.140625 24.070312 10.28125 24.070312 C 7.773438 24.070312 5.726562 22.039062 5.726562 19.539062 C 5.726562 19.070312 5.445312 18.644531 5.011719 18.464844 C 4.574219 18.289062 4.070312 18.386719 3.742188 18.714844 C 1.605469 20.839844 0.566406 23.792969 0.808594 27.019531 C 1.054688 30.183594 2.515625 33.242188 4.917969 35.628906 C 7.546875 38.246094 11.03125 39.75 14.480469 39.75 C 17.359375 39.75 19.992188 38.707031 21.902344 36.800781 C 22.238281 36.472656 22.332031 35.96875 22.152344 35.53125 C 21.96875 35.097656 21.542969 34.820312 21.074219 34.820312 C 18.578125 34.820312 16.480469 32.714844 16.480469 30.238281 C 16.480469 28.382812 17.601562 26.789062 19.203125 26.089844 L 27.960938 34.820312 L 15.574219 47.160156 C 15.136719 47.59375 14.886719 48.1875 14.886719 48.804688 C 14.886719 49.421875 15.136719 50.011719 15.574219 50.453125 L 15.820312 50.699219 C 16.257812 51.136719 16.851562 51.378906 17.472656 51.378906 C 18.089844 51.378906 18.6875 51.136719 19.125 50.699219 L 31.523438 38.355469 L 43.914062 50.699219 C 44.351562 51.136719 44.941406 51.378906 45.5625 51.378906 C 46.179688 51.378906 46.777344 51.136719 47.214844 50.699219 L 47.464844 50.453125 C 47.902344 50.015625 48.144531 49.421875 48.144531 48.804688 C 48.144531 48.1875 47.902344 47.601562 47.464844 47.160156 L 35.070312 34.820312 L 43.828125 26.089844 C 45.4375 26.789062 46.558594 28.390625 46.558594 30.238281 C 46.558594 32.722656 44.449219 34.820312 41.960938 34.820312 C 41.496094 34.820312 41.070312 35.101562 40.886719 35.53125 C 40.707031 35.96875 40.808594 36.472656 41.136719 36.800781 C 43.050781 38.707031 45.6875 39.75 48.558594 39.75 C 52.011719 39.75 55.488281 38.246094 58.121094 35.628906 C 60.523438 33.242188 61.980469 30.183594 62.222656 27.019531 C 62.472656 23.792969 61.4375 20.839844 59.304688 18.714844 C 58.96875 18.386719 58.464844 18.285156 58.03125 18.464844 C 57.59375 18.644531 57.308594 19.070312 57.308594 19.539062 C 57.308594 22.039062 55.265625 24.070312 52.757812 24.070312 C 50.894531 24.070312 49.292969 22.949219 48.585938 21.347656 L 53.847656 16.113281 C 54.753906 15.207031 54.753906 13.738281 53.847656 12.828125 L 53.597656 12.578125 C 53.140625 12.125 52.539062 11.898438 51.945312 11.898438 C 51.347656 11.898438 50.75 12.125 50.296875 12.578125 L 44.914062 17.9375 L 38.933594 14.957031 C 38.484375 14.738281 37.941406 14.828125 37.585938 15.179688 C 37.230469 15.53125 37.144531 16.066406 37.367188 16.519531 L 40.359375 22.472656 L 31.527344 31.273438 L 22.695312 22.472656 L 25.683594 16.519531 C 25.90625 16.066406 25.824219 15.53125 25.46875 15.179688 C 25.117188 14.828125 24.570312 14.738281 24.121094 14.957031 L 18.136719 17.9375 L 12.757812 12.578125 C 12.304688 12.125 11.707031 11.898438 11.113281 11.898438 "/>
</g>
</svg>
