<svg xmlns="http://www.w3.org/2000/svg" xmlns:xlink="http://www.w3.org/1999/xlink" width="64" height="64" viewBox="0 0 64 64" version="1.1">
<defs>
<linearGradient id="linear0" gradientUnits="userSpaceOnUse" x1="0" y1="0" x2="0" y2="1" gradientTransform="matrix(64,0,0,49.289062,0,11.355469)">
<stop offset="0" style="stop-color:#ff6666;stop-opacity:1;"/>
<stop offset="1" style="stop-color:#d90000;stop-opacity:1;"/>
</linearGradient>
</defs>
<g id="surface1">
<path style=" stroke:none;fill-rule:evenodd;fill:url(#linear0);" d="M 56.636719 22.175781 L 52.8125 23.910156 L 53.492188 25.097656 C 53.875 25.757812 53.648438 26.601562 52.988281 26.984375 L 48.195312 29.746094 C 47.535156 30.132812 46.691406 29.902344 46.308594 29.242188 L 43.542969 24.453125 C 43.160156 23.792969 43.386719 22.945312 44.046875 22.5625 L 48.839844 19.800781 C 49.5 19.414062 50.347656 19.644531 50.726562 20.304688 L 51.820312 22.191406 L 55.8125 20.371094 C 55.765625 20.128906 55.738281 19.871094 55.738281 19.613281 C 55.738281 17.335938 57.59375 15.484375 59.871094 15.484375 C 62.148438 15.484375 64 17.335938 64 19.613281 C 64 21.890625 62.148438 23.738281 59.871094 23.738281 C 58.558594 23.738281 57.390625 23.128906 56.636719 22.175781 Z M 8.1875 20.371094 L 12.183594 22.195312 L 13.277344 20.308594 C 13.65625 19.644531 14.503906 19.421875 15.164062 19.800781 L 19.957031 22.566406 C 20.617188 22.949219 20.84375 23.796875 20.460938 24.457031 L 17.695312 29.242188 C 17.3125 29.90625 16.46875 30.132812 15.808594 29.753906 L 11.015625 26.984375 C 10.355469 26.605469 10.128906 25.761719 10.507812 25.097656 L 11.191406 23.914062 L 7.363281 22.175781 C 6.609375 23.128906 5.441406 23.738281 4.128906 23.738281 C 1.851562 23.738281 0 21.890625 0 19.613281 C 0 17.335938 1.851562 15.484375 4.128906 15.484375 C 6.40625 15.484375 8.261719 17.335938 8.261719 19.613281 C 8.261719 19.871094 8.234375 20.128906 8.1875 20.371094 Z M 29.246094 11.355469 L 34.753906 11.355469 C 35.511719 11.355469 36.128906 11.972656 36.128906 12.730469 L 36.128906 18.234375 C 36.128906 18.996094 35.511719 19.613281 34.753906 19.613281 L 29.246094 19.613281 C 28.488281 19.613281 27.871094 18.996094 27.871094 18.234375 L 27.871094 12.730469 C 27.871094 11.972656 28.488281 11.355469 29.246094 11.355469 Z M 31.933594 46.195312 C 31.671875 46.203125 31.421875 46.265625 31.1875 46.367188 L 22.683594 50.261719 C 22.066406 50.539062 21.675781 51.121094 21.675781 51.753906 L 21.675781 54.53125 C 21.675781 55.128906 22.027344 55.679688 22.597656 55.980469 L 31.097656 60.425781 C 31.65625 60.71875 32.34375 60.71875 32.902344 60.425781 L 41.402344 55.980469 C 41.972656 55.679688 42.324219 55.128906 42.324219 54.53125 L 42.324219 51.753906 C 42.324219 51.121094 41.933594 50.539062 41.316406 50.261719 L 32.8125 46.367188 C 32.539062 46.242188 32.238281 46.183594 31.933594 46.195312 Z M 18.578125 38.96875 C 18.578125 37.828125 19.503906 36.902344 20.644531 36.902344 C 21.785156 36.902344 22.707031 37.828125 22.707031 38.96875 C 22.707031 40.109375 21.785156 41.03125 20.644531 41.03125 C 19.503906 41.03125 18.578125 40.109375 18.578125 38.96875 Z M 21.675781 34.839844 C 23.957031 34.839844 25.808594 36.6875 25.808594 38.96875 L 25.808594 42.0625 C 25.808594 44.34375 23.957031 46.191406 21.675781 46.191406 C 19.398438 46.191406 17.546875 44.34375 17.546875 42.0625 L 17.546875 38.96875 C 17.546875 36.6875 19.398438 34.839844 21.675781 34.839844 Z M 39.222656 38.96875 C 39.222656 37.828125 40.152344 36.902344 41.292969 36.902344 C 42.429688 36.902344 43.355469 37.828125 43.355469 38.96875 C 43.355469 40.109375 42.429688 41.03125 41.292969 41.03125 C 40.152344 41.03125 39.222656 40.109375 39.222656 38.96875 Z M 42.324219 34.839844 C 44.601562 34.839844 46.453125 36.6875 46.453125 38.96875 L 46.453125 42.0625 C 46.453125 44.34375 44.601562 46.191406 42.324219 46.191406 C 40.042969 46.191406 38.191406 44.34375 38.191406 42.0625 L 38.191406 38.96875 C 38.191406 36.6875 40.042969 34.839844 42.324219 34.839844 Z M 42.324219 34.839844 "/>
</g>
</svg>
