<svg xmlns="http://www.w3.org/2000/svg" xmlns:xlink="http://www.w3.org/1999/xlink" width="64" height="64" viewBox="0 0 64 64" version="1.1">
<defs>
<linearGradient id="linear0" gradientUnits="userSpaceOnUse" x1="0" y1="0" x2="0" y2="1" gradientTransform="matrix(64,0,0,42.824219,0,10.589844)">
<stop offset="0" style="stop-color:#ff6666;stop-opacity:1;"/>
<stop offset="1" style="stop-color:#d90000;stop-opacity:1;"/>
</linearGradient>
</defs>
<g id="surface1">
<path style=" stroke:none;fill-rule:nonzero;fill:url(#linear0);" d="M 63.988281 40.300781 C 63.988281 40.101562 64 39.957031 64 39.753906 L 64 36.355469 C 60.699219 35.3125 55.878906 33.898438 52.828125 31.765625 C 55.15625 30.125 58.394531 28.539062 64 27.238281 L 64 24.246094 C 64 23.699219 63.96875 23.292969 63.964844 22.769531 C 58.535156 24.054688 54.15625 26.316406 49.242188 29.414062 C 47.796875 28.28125 46.886719 27.304688 45.726562 26.125 C 45.351562 26.816406 44.441406 28.773438 44.113281 29.289062 C 45.320312 30.46875 45.824219 31.160156 46.789062 31.859375 C 45.628906 32.691406 45.613281 32.925781 42.839844 35.371094 C 43.421875 36.46875 43.734375 37.539062 44.316406 38.609375 C 45.65625 37.164062 46.671875 36.007812 49.5625 34.089844 C 53.566406 36.191406 57.003906 38.371094 63.988281 40.300781 Z M 40.65625 36.054688 C 40.179688 37.140625 39.875 37.867188 39.167969 39.484375 C 41.894531 44.867188 42.285156 47.164062 44.808594 51.753906 C 45.882812 53.578125 48.300781 52.273438 47.375 50.53125 C 44.824219 45.378906 43.296875 41.714844 40.65625 36.054688 Z M 18.613281 52.335938 C 17.410156 54.375 14.625 53.429688 16.183594 50.261719 C 18.921875 44.1875 25.070312 29.046875 28.402344 21.578125 C 29.371094 19.320312 31.957031 20.777344 31.1875 22.671875 C 27.324219 31.609375 22.140625 45.019531 18.613281 52.335938 Z M 35.339844 43.261719 C 34.289062 45.007812 31.5 43.765625 33.058594 40.601562 C 35.796875 34.523438 41.949219 19.382812 45.277344 11.921875 C 46.246094 9.65625 48.832031 11.113281 48.0625 13.007812 C 44.199219 21.945312 38.867188 35.949219 35.339844 43.261719 Z M 28.910156 42.117188 C 27.855469 44.453125 25.21875 43.355469 26.777344 40.191406 C 29.511719 34.121094 30.664062 30.449219 33.996094 22.984375 C 34.964844 20.722656 37.546875 22.175781 36.78125 24.074219 C 32.914062 33.007812 32.441406 34.804688 28.910156 42.117188 Z M 0.0117188 23.761719 C 0.0117188 23.941406 0 24.066406 0 24.246094 L 0 27.542969 C 3.324219 28.597656 8.167969 30.042969 11.195312 32.164062 C 8.863281 33.808594 5.617188 35.386719 0 36.691406 L 0 39.753906 C 0 40.277344 0.0273438 40.664062 0.0351562 41.167969 C 5.476562 39.878906 9.859375 37.617188 14.777344 34.507812 C 16.222656 35.648438 17.136719 36.621094 18.292969 37.800781 C 18.671875 37.109375 19.578125 35.152344 19.910156 34.640625 C 18.699219 33.457031 18.195312 32.765625 17.230469 32.066406 C 18.390625 31.234375 18.40625 31 21.183594 28.550781 C 20.605469 27.460938 20.289062 26.382812 19.707031 25.320312 C 18.363281 26.761719 17.347656 27.921875 14.457031 29.835938 C 10.5 27.757812 6.84375 25.664062 0.0117188 23.761719 Z M 23.242188 27.164062 C 23.71875 26.085938 24.019531 25.351562 24.730469 23.738281 C 22.003906 18.351562 21.613281 16.058594 19.089844 11.472656 C 18.015625 9.644531 15.597656 10.949219 16.523438 12.691406 C 19.070312 17.84375 20.601562 21.503906 23.242188 27.164062 Z M 23.242188 27.164062 "/>
</g>
</svg>
