<svg xmlns="http://www.w3.org/2000/svg" xmlns:xlink="http://www.w3.org/1999/xlink" width="64" height="64" viewBox="0 0 64 64" version="1.1">
<defs>
<linearGradient id="linear0" gradientUnits="userSpaceOnUse" x1="0" y1="0" x2="0" y2="1" gradientTransform="matrix(64,0,0,59.773438,0,2.113281)">
<stop offset="0" style="stop-color:#ff6666;stop-opacity:1;"/>
<stop offset="1" style="stop-color:#d90000;stop-opacity:1;"/>
</linearGradient>
</defs>
<g id="surface1">
<path style=" stroke:none;fill-rule:nonzero;fill:url(#linear0);" d="M 40.886719 2.113281 C 32 2.113281 24.886719 9.21875 24.886719 18.113281 C 24.886719 38.027344 15.289062 44.0625 0 41.21875 C 0 41.21875 8.765625 53.777344 26.554688 55.332031 C 25.542969 56.5 25.113281 57.664062 25.113281 57.664062 L 31.777344 60.332031 C 31.777344 60.332031 31.636719 60.386719 32.113281 60 C 32.585938 59.609375 33.460938 59 35.554688 59 C 39.765625 59 44.113281 61.886719 44.113281 61.886719 L 48.335938 56.113281 C 48.335938 56.113281 45.390625 54 41.109375 52.777344 C 50.066406 47.933594 56.078125 36.71875 56.78125 21.113281 L 64 16.332031 L 55.777344 12.445312 C 53.488281 6.414062 47.753906 2.113281 40.886719 2.113281 Z M 46.222656 12.777344 C 48.363281 12.777344 49.777344 14.191406 49.777344 16.332031 C 49.777344 18.472656 48.363281 19.886719 46.222656 19.886719 C 44.078125 19.886719 42.667969 18.472656 42.667969 16.332031 C 42.667969 14.191406 44.078125 12.777344 46.222656 12.777344 Z M 46.222656 12.777344 "/>
</g>
</svg>
