<svg xmlns="http://www.w3.org/2000/svg" xmlns:xlink="http://www.w3.org/1999/xlink" width="64px" height="64px" viewBox="0 0 64 64" version="1.1">
<defs>
<linearGradient id="linear0" gradientUnits="userSpaceOnUse" x1="0" y1="128" x2="128" y2="0" gradientTransform="matrix(0.432432,0,0,0.432432,4.324324,4.324324)">
<stop offset="0" style="stop-color:#ff6666;stop-opacity:1;"/>
<stop offset="1" style="stop-color:#d90000;stop-opacity:1;"/>
</linearGradient>
</defs>
<g id="surface1">
<path style=" stroke:none;fill-rule:nonzero;fill:url(#linear0);" d="M 30.253906 6.710938 C 29.617188 6.710938 29.101562 7.226562 29.101562 7.863281 L 29.101562 13.6875 C 26.132812 14.136719 23.394531 15.304688 21.0625 16.996094 L 16.960938 12.898438 C 16.511719 12.449219 15.789062 12.449219 15.339844 12.898438 L 12.90625 15.324219 C 12.457031 15.773438 12.457031 16.492188 12.90625 16.945312 L 16.988281 21.03125 C 15.273438 23.363281 14.109375 26.113281 13.640625 29.09375 L 7.882812 29.09375 C 7.242188 29.09375 6.730469 29.597656 6.730469 30.234375 L 6.730469 33.675781 C 6.730469 34.3125 7.242188 34.828125 7.882812 34.828125 L 13.640625 34.828125 C 14.105469 37.808594 15.28125 40.550781 16.988281 42.882812 L 12.90625 46.964844 C 12.457031 47.414062 12.457031 48.152344 12.90625 48.601562 L 15.339844 51.027344 C 15.789062 51.476562 16.511719 51.476562 16.960938 51.027344 L 21.0625 46.925781 C 23.394531 48.617188 26.132812 49.785156 29.101562 50.238281 L 29.101562 56.0625 C 29.101562 56.699219 29.617188 57.203125 30.253906 57.203125 L 33.695312 57.203125 C 34.332031 57.203125 34.847656 56.699219 34.847656 56.0625 L 34.847656 50.210938 C 37.789062 49.734375 40.5 48.554688 42.808594 46.859375 L 46.988281 51.027344 C 47.4375 51.476562 48.160156 51.476562 48.609375 51.027344 L 51.042969 48.601562 C 51.492188 48.152344 51.492188 47.414062 51.042969 46.964844 L 46.851562 42.789062 C 48.53125 40.476562 49.6875 37.765625 50.148438 34.828125 L 56.066406 34.828125 C 56.707031 34.828125 57.21875 34.3125 57.21875 33.675781 L 57.21875 30.234375 C 57.21875 29.597656 56.707031 29.09375 56.066406 29.09375 L 50.148438 29.09375 C 49.6875 26.15625 48.53125 23.449219 46.851562 21.136719 L 51.042969 16.945312 C 51.492188 16.492188 51.492188 15.773438 51.042969 15.324219 L 48.609375 12.898438 C 48.160156 12.449219 47.4375 12.449219 46.988281 12.898438 L 42.808594 17.0625 C 40.5 15.367188 37.789062 14.191406 34.847656 13.714844 L 34.847656 7.863281 C 34.847656 7.226562 34.332031 6.710938 33.695312 6.710938 Z M 31.886719 17.335938 C 39.988281 17.335938 46.53125 23.863281 46.53125 31.960938 C 46.53125 40.0625 39.988281 46.589844 31.886719 46.589844 C 23.789062 46.589844 17.257812 40.0625 17.257812 31.960938 C 17.257812 23.863281 23.789062 17.335938 31.886719 17.335938 Z M 27.707031 25.4375 C 26.640625 25.4375 25.777344 26.300781 25.777344 27.367188 C 25.777344 28.433594 26.640625 29.296875 27.707031 29.296875 C 28.773438 29.296875 29.636719 28.433594 29.636719 27.367188 C 29.636719 26.300781 28.773438 25.4375 27.707031 25.4375 Z M 36.066406 25.4375 C 35.003906 25.4375 34.152344 26.304688 34.152344 27.367188 C 34.152344 28.433594 35.003906 29.296875 36.066406 29.296875 C 37.132812 29.296875 37.996094 28.433594 37.996094 27.367188 C 37.996094 26.304688 37.132812 25.4375 36.066406 25.4375 Z M 25.148438 34.789062 C 24.972656 34.800781 24.789062 34.847656 24.613281 34.949219 C 24.378906 35.085938 24.210938 35.289062 24.144531 35.511719 C 24.074219 35.738281 24.09375 35.980469 24.238281 36.183594 C 25.070312 37.363281 26.171875 38.359375 27.464844 39.039062 C 28.914062 39.785156 30.535156 40.136719 32.140625 40.082031 C 35.019531 39.992188 37.859375 38.574219 39.523438 36.183594 C 39.664062 35.976562 39.6875 35.722656 39.617188 35.5 C 39.542969 35.273438 39.375 35.078125 39.136719 34.949219 C 38.894531 34.824219 38.640625 34.789062 38.425781 34.8125 C 38.210938 34.839844 38.023438 34.925781 37.914062 35.085938 C 36.671875 36.910156 34.351562 38.039062 32.074219 38.125 C 30.789062 38.164062 29.5 37.894531 28.378906 37.308594 C 27.375 36.789062 26.492188 35.992188 25.832031 35.058594 C 25.71875 34.894531 25.542969 34.8125 25.324219 34.789062 C 25.265625 34.785156 25.207031 34.789062 25.148438 34.789062 Z M 25.148438 34.789062 "/>
</g>
</svg>
