<svg xmlns="http://www.w3.org/2000/svg" xmlns:xlink="http://www.w3.org/1999/xlink" width="64" height="64" viewBox="0 0 64 64" version="1.1">
<defs>
<linearGradient id="linear0" gradientUnits="userSpaceOnUse" x1="0" y1="0" x2="0" y2="1" gradientTransform="matrix(54.84375,0,0,63.992188,4.578125,0.0078125)">
<stop offset="0" style="stop-color:#ff6666;stop-opacity:1;"/>
<stop offset="1" style="stop-color:#d90000;stop-opacity:1;"/>
</linearGradient>
</defs>
<g id="surface1">
<path style=" stroke:none;fill-rule:evenodd;fill:url(#linear0);" d="M 48.625 0.0078125 C 41.679688 1.984375 37.347656 13.984375 38.09375 13.703125 L 38.203125 16.484375 C 38.246094 16.488281 38.277344 16.496094 38.320312 16.5 C 34.164062 16.242188 28.097656 17.511719 25.0625 21.179688 C 13.546875 22.328125 3.742188 32.929688 4.632812 41.046875 C 5.5625 49.507812 13.839844 54.6875 15.828125 55.203125 C 16.300781 55.347656 16.738281 55.429688 17.148438 55.453125 C 17.636719 58.757812 19.792969 62.320312 22.445312 63.742188 C 24.761719 64.984375 30.84375 61.335938 30.84375 61.335938 C 26.851562 58.976562 24.328125 56.660156 22.445312 54.304688 C 24.351562 54.179688 26.808594 54.605469 29.359375 55.125 C 36.4375 62.746094 48.378906 66.570312 52.148438 62.039062 C 51.207031 60.566406 49.550781 60.351562 47.398438 58.84375 C 46.9375 58.925781 46.539062 59.113281 46.242188 59.453125 L 45.078125 57.453125 C 44.628906 57.519531 44.253906 56.863281 43.8125 57.640625 C 42.976562 57.03125 43.027344 56.800781 43.1875 56.320312 C 43.328125 55.957031 43.507812 55.667969 43.6875 55.390625 C 44.945312 55.808594 46.289062 56.273438 47.164062 56.632812 C 47.664062 56.835938 47.25 55.167969 47.789062 55.125 C 48.535156 55.058594 48.707031 57.011719 49.453125 57.0625 C 50.097656 57.109375 50.371094 55.152344 50.9375 55.46875 C 51.792969 55.945312 55.0625 58.753906 54.835938 57.335938 C 54.34375 54.234375 50.476562 50.773438 48.15625 49.4375 C 46.984375 48.761719 44.738281 48.4375 42.929688 48.28125 C 40.894531 45.394531 37.535156 41.96875 34.90625 40.507812 C 34.757812 40.425781 34.621094 40.359375 34.476562 40.28125 C 34.726562 39.558594 34.996094 38.617188 35.257812 37.710938 C 45.75 35.453125 61.777344 21.03125 59.132812 8.554688 C 58.445312 10.960938 57.570312 12.542969 56.554688 13.554688 C 56.699219 12.941406 56.695312 12.261719 56.507812 11.515625 L 53.53125 14.734375 C 53.726562 14.1875 53.847656 13.605469 53.710938 12.921875 L 50.859375 15.359375 C 51.324219 14.761719 51.578125 14.054688 51.515625 13.125 C 51.53125 13.15625 50.546875 13.90625 49.28125 14.734375 C 49.328125 14.207031 49.351562 13.691406 49.34375 13.195312 C 50.527344 12.195312 51.828125 10.925781 52.1875 9.898438 C 52.898438 7.875 53.539062 3.882812 52.40625 2.296875 C 51.835938 1.5 51.007812 4.867188 50.984375 5.140625 C 50.9375 5.644531 49.722656 4.609375 49.34375 4.9375 C 48.640625 5.550781 49.308594 6.910156 49.03125 6.875 C 48.667969 6.808594 48.550781 6.183594 48.1875 6.242188 C 47.230469 7.046875 46.691406 8.023438 46.273438 8.976562 C 46.007812 8.910156 45.742188 8.832031 45.492188 8.71875 C 45.132812 8.558594 45.171875 7.605469 45.296875 7.226562 C 45.453125 6.753906 46.285156 7.085938 46.507812 6.640625 C 46.75 6.15625 46.285156 5.308594 46.625 4.890625 C 46.824219 4.644531 47.195312 4.992188 47.390625 4.734375 C 48.011719 3.9375 49.03125 -0.0820312 48.625 0.0078125 Z M 48.476562 15.25 C 48.148438 15.445312 47.882812 15.613281 47.523438 15.796875 C 47.867188 15.621094 48.160156 15.433594 48.476562 15.25 Z M 47.289062 15.90625 C 46.75 16.171875 46.195312 16.40625 45.617188 16.609375 C 46.191406 16.40625 46.753906 16.171875 47.289062 15.90625 Z M 45.109375 16.773438 C 44.570312 16.9375 44.039062 17.039062 43.5 17.101562 C 44.035156 17.039062 44.574219 16.9375 45.109375 16.773438 Z M 40.898438 16.914062 C 40.929688 16.925781 40.984375 16.917969 41.015625 16.929688 C 41.054688 16.945312 41.101562 16.941406 41.140625 16.953125 C 41.101562 16.941406 41.054688 16.949219 41.015625 16.9375 C 40.980469 16.925781 40.933594 16.925781 40.898438 16.914062 Z M 42.46875 17.164062 C 42.621094 17.167969 42.773438 17.175781 42.929688 17.171875 C 42.773438 17.175781 42.625 17.171875 42.46875 17.164062 Z M 37.617188 18.289062 C 37.648438 18.289062 37.679688 18.289062 37.710938 18.289062 C 38.621094 18.289062 39.492188 18.648438 40.136719 19.292969 C 40.78125 19.9375 41.140625 20.808594 41.140625 21.71875 C 41.140625 22.628906 40.78125 23.5 40.136719 24.144531 C 39.492188 24.789062 38.621094 25.148438 37.710938 25.148438 C 36.800781 25.148438 35.929688 24.789062 35.285156 24.144531 C 34.640625 23.5 34.28125 22.628906 34.28125 21.71875 C 34.28125 19.859375 35.757812 18.339844 37.617188 18.289062 Z M 28.601562 37.554688 C 28.171875 38.582031 27.6875 39.730469 27.46875 40.296875 C 25.449219 42.070312 24.832031 45.578125 25.289062 48.351562 C 22.882812 48.171875 20.183594 48.464844 18.539062 50.078125 C 17.636719 47.964844 16.886719 44.332031 18.726562 41.945312 C 20.464844 39.6875 25.585938 38.035156 28.601562 37.554688 Z M 28.601562 37.554688 "/>
</g>
</svg>
