<svg xmlns="http://www.w3.org/2000/svg" xmlns:xlink="http://www.w3.org/1999/xlink" width="64" height="64" viewBox="0 0 64 64" version="1.1">
<defs>
<linearGradient id="linear0" gradientUnits="userSpaceOnUse" x1="0" y1="0" x2="0" y2="1" gradientTransform="matrix(74.65625,0,0,74.666667,5.338541,5.333333)">
<stop offset="0" style="stop-color:#ff6666;stop-opacity:1;"/>
<stop offset="1" style="stop-color:#d90000;stop-opacity:1;"/>
</linearGradient>
</defs>
<g id="surface1">
<path style=" stroke:none;fill-rule:nonzero;fill:url(#linear0);" d="M 45.667969 3.042969 C 44.957031 3.03125 44.246094 3.03125 43.542969 3.046875 C 35.085938 3.21875 27.191406 5.175781 18.738281 9.695312 C 17.632812 10.285156 17.21875 11.660156 17.808594 12.761719 C 18.398438 13.867188 19.769531 14.28125 20.875 13.691406 C 31.417969 8.054688 40.402344 6.773438 51.722656 7.949219 C 52.289062 8.023438 52.539062 8.148438 52.640625 8.203125 C 52.617188 8.292969 52.558594 8.484375 52.371094 8.839844 C 49.25 14.4375 45.429688 18.851562 38.949219 22.566406 L 38.96875 22.558594 C 37.765625 23.230469 36.621094 24.210938 36.171875 25.738281 C 35.722656 27.269531 36.25 28.957031 37.242188 30.253906 C 37.269531 30.292969 37.300781 30.328125 37.332031 30.363281 C 39.40625 32.753906 42.550781 34.085938 45.355469 34.492188 C 46.59375 34.671875 47.746094 33.8125 47.925781 32.574219 C 48.105469 31.335938 47.246094 30.1875 46.007812 30.007812 C 44.429688 29.777344 41.691406 28.4375 40.78125 27.410156 C 40.578125 27.105469 40.539062 26.953125 40.519531 27.019531 C 40.496094 27.097656 40.585938 26.847656 41.183594 26.511719 C 41.1875 26.507812 41.195312 26.507812 41.203125 26.503906 C 48.382812 22.386719 52.925781 17.160156 56.332031 11.050781 C 56.335938 11.042969 56.335938 11.035156 56.339844 11.027344 C 57.207031 9.433594 57.535156 7.488281 56.605469 5.902344 C 55.671875 4.316406 53.984375 3.664062 52.277344 3.449219 C 52.261719 3.445312 52.246094 3.445312 52.230469 3.441406 C 49.988281 3.210938 47.808594 3.070312 45.667969 3.042969 Z M 40.082031 8.355469 C 38.472656 8.355469 37.167969 9.65625 37.167969 11.261719 C 37.167969 12.871094 38.472656 14.171875 40.082031 14.171875 C 41.691406 14.171875 42.996094 12.867188 42.996094 11.261719 C 42.996094 9.65625 41.691406 8.355469 40.082031 8.355469 Z M 14.808594 13.695312 C 14.523438 13.667969 14.226562 13.6875 13.9375 13.734375 C 13.363281 13.832031 12.824219 14.054688 12.496094 14.324219 C 11.835938 14.859375 11.464844 15.441406 11.027344 16.199219 C 11.015625 16.21875 11.007812 16.234375 10.996094 16.253906 C 8.851562 20.199219 6.984375 24.964844 6.835938 30.558594 C 6.804688 31.8125 7.792969 32.851562 9.042969 32.886719 C 10.296875 32.917969 11.335938 31.929688 11.371094 30.679688 C 11.476562 26.554688 12.78125 22.984375 14.410156 19.726562 C 16.578125 23.417969 19.25 26.230469 22.285156 27.992188 C 23.367188 28.621094 24.753906 28.25 25.378906 27.167969 C 26.007812 26.085938 25.640625 24.699219 24.558594 24.070312 C 21.90625 22.53125 19.523438 20.183594 17.621094 16.480469 C 17.472656 16.183594 17.320312 15.824219 17.082031 15.410156 C 16.839844 14.984375 16.570312 14.390625 15.609375 13.910156 C 15.367188 13.789062 15.097656 13.722656 14.808594 13.695312 Z M 30.070312 27.8125 C 29.699219 27.789062 29.324219 27.804688 28.949219 27.859375 C 28.203125 27.96875 27.457031 28.230469 26.765625 28.609375 C 26.75 28.617188 26.738281 28.625 26.722656 28.632812 C 22.636719 30.996094 19.300781 34.800781 19.257812 40.1875 C 19.257812 40.195312 19.257812 40.199219 19.257812 40.207031 C 19.257812 43.90625 20.289062 47.328125 22.480469 49.863281 C 24.675781 52.398438 28.027344 53.894531 31.960938 53.894531 C 37.015625 53.894531 41.203125 51.183594 44.246094 49.214844 C 45.390625 48.476562 46.136719 48.058594 46.832031 47.679688 C 46.503906 48.332031 45.84375 49.246094 45.144531 50.429688 C 45.144531 50.429688 45.144531 50.433594 45.144531 50.433594 C 44.445312 51.601562 44.777344 52.871094 45.054688 53.519531 C 45.332031 54.171875 45.621094 54.601562 45.800781 54.949219 C 45.949219 55.234375 45.976562 55.351562 45.992188 55.410156 C 45.941406 55.453125 45.515625 55.761719 44.621094 55.980469 C 43.679688 56.210938 42.371094 56.363281 40.890625 56.410156 C 37.945312 56.507812 34.320312 56.222656 31.097656 55.800781 C 27.136719 55.132812 21.402344 53.261719 18.128906 49.941406 C 18.382812 49.703125 18.632812 49.46875 18.882812 49.230469 C 19.796875 48.375 19.839844 46.941406 18.984375 46.027344 C 18.128906 45.117188 16.695312 45.070312 15.78125 45.925781 C 15.179688 46.488281 14.578125 47.050781 13.980469 47.613281 C 13.976562 47.617188 13.96875 47.625 13.964844 47.628906 C 13.527344 48.046875 13.136719 48.753906 13.070312 49.441406 C 13.003906 50.132812 13.179688 50.691406 13.378906 51.121094 C 13.777344 51.972656 14.289062 52.496094 14.894531 53.113281 C 19.34375 57.632812 25.828125 59.519531 30.378906 60.277344 C 30.402344 60.285156 30.429688 60.289062 30.457031 60.292969 C 33.855469 60.738281 37.671875 61.054688 41.039062 60.941406 C 42.722656 60.886719 44.289062 60.730469 45.699219 60.386719 C 47.109375 60.039062 48.433594 59.546875 49.464844 58.375 C 49.476562 58.363281 49.488281 58.351562 49.496094 58.339844 C 50.265625 57.425781 50.628906 56.1875 50.554688 55.179688 C 50.480469 54.171875 50.117188 53.425781 49.824219 52.859375 C 49.628906 52.484375 49.535156 52.320312 49.425781 52.113281 C 49.929688 51.332031 50.503906 50.554688 51.003906 49.503906 C 51.621094 48.203125 51.96875 46.253906 51.105469 44.53125 C 51.101562 44.523438 51.097656 44.519531 51.09375 44.511719 C 50.636719 43.625 49.613281 42.785156 48.582031 42.601562 C 47.546875 42.417969 46.730469 42.671875 46.011719 42.957031 C 44.570312 43.53125 43.273438 44.449219 41.785156 45.410156 C 38.808594 47.332031 35.3125 49.359375 31.960938 49.359375 C 29.105469 49.359375 27.238281 48.429688 25.910156 46.894531 C 24.585938 45.363281 23.796875 43.070312 23.792969 40.214844 C 23.828125 36.550781 25.660156 34.492188 28.972656 32.574219 C 29.554688 32.261719 29.699219 32.3125 29.773438 32.335938 C 29.847656 32.359375 30.113281 32.503906 30.472656 33.050781 L 30.460938 33.027344 C 33.332031 37.457031 38.054688 39.839844 42.835938 40.777344 C 44.0625 41.019531 45.253906 40.21875 45.496094 38.992188 C 45.738281 37.765625 44.9375 36.574219 43.710938 36.332031 C 39.789062 35.558594 36.296875 33.703125 34.261719 30.5625 C 34.257812 30.554688 34.253906 30.546875 34.25 30.542969 C 33.542969 29.476562 32.5625 28.46875 31.15625 28.019531 C 30.804688 27.90625 30.441406 27.835938 30.070312 27.8125 Z M 16.476562 33.523438 C 16.214844 33.523438 15.953125 33.566406 15.707031 33.652344 C 14.375 34.125 12.832031 34.332031 11.277344 34.175781 C 10.296875 34.074219 9.039062 34.296875 8.167969 35.257812 C 7.296875 36.222656 7.183594 37.539062 7.394531 38.597656 C 7.398438 38.609375 7.402344 38.625 7.40625 38.640625 C 7.878906 40.761719 8.4375 43.339844 9.828125 45.925781 C 10.421875 47.027344 11.792969 47.441406 12.894531 46.847656 C 14 46.257812 14.414062 44.882812 13.820312 43.777344 C 12.964844 42.1875 12.574219 40.429688 12.160156 38.671875 C 13.925781 38.6875 15.65625 38.480469 17.21875 37.925781 C 18.398438 37.511719 19.019531 36.214844 18.601562 35.035156 C 18.28125 34.132812 17.433594 33.527344 16.476562 33.523438 Z M 16.476562 33.523438 "/>
</g>
</svg>
