<svg xmlns="http://www.w3.org/2000/svg" xmlns:xlink="http://www.w3.org/1999/xlink" width="64" height="64" viewBox="0 0 64 64" version="1.1">
<defs>
<linearGradient id="linear0" gradientUnits="userSpaceOnUse" x1="0" y1="0" x2="0" y2="1" gradientTransform="matrix(64,0,0,42.664062,0,10.667969)">
<stop offset="0" style="stop-color:#ff6666;stop-opacity:1;"/>
<stop offset="1" style="stop-color:#d90000;stop-opacity:1;"/>
</linearGradient>
</defs>
<g id="surface1">
<path style=" stroke:none;fill-rule:nonzero;fill:url(#linear0);" d="M 17.003906 10.667969 C 13.261719 10.667969 9.339844 12.738281 7.148438 18.292969 C 2.519531 30.011719 0 39.078125 0 44.578125 C 0 48.808594 1.496094 51.484375 4.667969 53.054688 C 5.039062 53.238281 5.449219 53.335938 5.863281 53.332031 C 6.523438 53.335938 7.160156 53.089844 7.65625 52.652344 L 15.945312 45.332031 C 17.433594 44.015625 18.730469 42.65625 22.355469 42.65625 L 41.644531 42.65625 C 45.273438 42.65625 46.566406 44.015625 48.054688 45.332031 L 56.34375 52.652344 C 57.167969 53.382812 58.351562 53.539062 59.335938 53.054688 C 62.507812 51.484375 64 48.808594 64 44.574219 C 64 39.078125 61.480469 30.011719 56.855469 18.292969 C 54.660156 12.738281 50.738281 10.667969 46.996094 10.667969 C 45.246094 10.667969 43.539062 11.121094 42.0625 11.882812 C 35.730469 15.144531 28.410156 15.214844 21.945312 11.882812 C 20.464844 11.121094 18.753906 10.667969 17.003906 10.667969 Z M 32 16.761719 C 34.523438 16.761719 36.570312 18.808594 36.570312 21.332031 C 36.570312 23.859375 34.523438 25.90625 32 25.90625 C 29.476562 25.90625 27.429688 23.859375 27.429688 21.332031 C 27.429688 18.808594 29.476562 16.761719 32 16.761719 Z M 17.066406 21.332031 C 20.601562 21.332031 23.46875 24.195312 23.46875 27.730469 C 23.46875 31.265625 20.601562 34.132812 17.066406 34.132812 C 13.53125 34.132812 10.667969 31.265625 10.667969 27.730469 C 10.667969 24.195312 13.53125 21.332031 17.066406 21.332031 Z M 46.476562 21.332031 C 47.082031 21.332031 47.664062 21.574219 48.09375 22.003906 C 48.519531 22.429688 48.761719 23.011719 48.761719 23.617188 C 48.761719 24.226562 48.519531 24.804688 48.09375 25.234375 C 47.664062 25.664062 47.082031 25.90625 46.476562 25.90625 C 45.871094 25.90625 45.289062 25.664062 44.859375 25.234375 C 44.429688 24.804688 44.191406 24.226562 44.191406 23.617188 C 44.191406 23.011719 44.429688 22.429688 44.859375 22.003906 C 45.289062 21.574219 45.871094 21.332031 46.476562 21.332031 Z M 17.066406 23.46875 C 14.710938 23.46875 12.800781 25.375 12.800781 27.730469 C 12.800781 30.089844 14.710938 32 17.066406 32 C 19.421875 32 21.335938 30.089844 21.332031 27.730469 C 21.332031 25.375 19.421875 23.464844 17.066406 23.46875 Z M 41.90625 25.90625 C 42.511719 25.90625 43.09375 26.144531 43.519531 26.574219 C 43.949219 27.003906 44.191406 27.585938 44.191406 28.191406 C 44.191406 28.796875 43.949219 29.378906 43.519531 29.804688 C 43.09375 30.234375 42.511719 30.476562 41.90625 30.476562 C 41.296875 30.476562 40.71875 30.234375 40.289062 29.804688 C 39.859375 29.378906 39.617188 28.796875 39.617188 28.191406 C 39.617188 27.585938 39.859375 27.003906 40.289062 26.574219 C 40.71875 26.144531 41.296875 25.90625 41.90625 25.90625 Z M 51.046875 25.90625 C 51.652344 25.90625 52.234375 26.144531 52.664062 26.574219 C 53.09375 27.003906 53.332031 27.585938 53.332031 28.191406 C 53.332031 28.796875 53.09375 29.378906 52.664062 29.804688 C 52.234375 30.234375 51.652344 30.476562 51.046875 30.476562 C 50.441406 30.476562 49.859375 30.234375 49.429688 29.804688 C 49.003906 29.378906 48.761719 28.796875 48.761719 28.191406 C 48.761719 27.585938 49.003906 27.003906 49.429688 26.574219 C 49.859375 26.144531 50.441406 25.90625 51.046875 25.90625 Z M 46.476562 30.476562 C 47.082031 30.476562 47.664062 30.71875 48.09375 31.144531 C 48.519531 31.574219 48.761719 32.15625 48.761719 32.761719 C 48.761719 33.367188 48.519531 33.949219 48.09375 34.378906 C 47.664062 34.808594 47.082031 35.046875 46.476562 35.046875 C 45.871094 35.046875 45.289062 34.808594 44.859375 34.378906 C 44.429688 33.949219 44.191406 33.367188 44.191406 32.761719 C 44.191406 32.15625 44.429688 31.574219 44.859375 31.144531 C 45.289062 30.71875 45.871094 30.476562 46.476562 30.476562 Z M 46.476562 30.476562 "/>
</g>
</svg>
