<svg xmlns="http://www.w3.org/2000/svg" xmlns:xlink="http://www.w3.org/1999/xlink" width="64" height="64" viewBox="0 0 64 64" version="1.1">
<defs>
<linearGradient id="linear0" gradientUnits="userSpaceOnUse" x1="0" y1="0" x2="0" y2="1" gradientTransform="matrix(44.132812,0,0,64,9.933594,0)">
<stop offset="0" style="stop-color:#ff6666;stop-opacity:1;"/>
<stop offset="1" style="stop-color:#d90000;stop-opacity:1;"/>
</linearGradient>
</defs>
<g id="surface1">
<path style=" stroke:none;fill-rule:nonzero;fill:url(#linear0);" d="M 13.238281 0 C 11.421875 0 9.933594 1.488281 9.933594 3.3125 L 9.933594 60.6875 C 9.933594 62.511719 11.421875 64 13.238281 64 L 46.34375 64 C 50.605469 64 54.066406 60.535156 54.066406 56.277344 L 54.066406 3.3125 C 54.066406 1.488281 52.578125 0 50.761719 0 Z M 13.238281 2.207031 L 50.761719 2.207031 C 51.363281 2.207031 51.863281 2.703125 51.863281 3.3125 L 51.863281 56.277344 C 51.863281 59.320312 49.386719 61.792969 46.34375 61.792969 L 13.238281 61.792969 C 12.636719 61.792969 12.136719 61.296875 12.136719 60.6875 L 12.136719 3.3125 C 12.136719 2.703125 12.636719 2.207031 13.238281 2.207031 Z M 17.65625 6.621094 C 17.046875 6.621094 16.550781 7.117188 16.550781 7.722656 L 16.550781 32 C 16.550781 32.609375 17.046875 33.105469 17.65625 33.105469 L 41.933594 33.105469 C 44.976562 33.105469 47.449219 30.628906 47.449219 27.589844 L 47.449219 7.722656 C 47.449219 7.117188 46.953125 6.621094 46.34375 6.621094 Z M 18.761719 8.828125 L 45.238281 8.828125 L 45.238281 27.589844 C 45.238281 29.40625 43.753906 30.894531 41.933594 30.894531 L 18.761719 30.894531 Z M 23.171875 17.65625 C 22.5625 17.65625 22.066406 18.152344 22.066406 18.761719 L 22.066406 20.964844 C 22.066406 21.570312 22.5625 22.066406 23.171875 22.066406 C 23.78125 22.066406 24.277344 21.570312 24.277344 20.964844 L 24.277344 18.761719 C 24.277344 18.152344 23.78125 17.65625 23.171875 17.65625 Z M 28.6875 17.65625 C 28.085938 17.65625 27.589844 18.152344 27.589844 18.761719 L 27.589844 20.964844 C 27.589844 21.570312 28.085938 22.066406 28.6875 22.066406 C 29.296875 22.066406 29.792969 21.570312 29.792969 20.964844 L 29.792969 18.761719 C 29.792969 18.152344 29.296875 17.65625 28.6875 17.65625 Z M 34.207031 17.65625 C 33.601562 17.65625 33.105469 18.152344 33.105469 18.761719 L 33.105469 20.964844 C 33.105469 21.570312 33.601562 22.066406 34.207031 22.066406 C 34.8125 22.066406 35.3125 21.570312 35.3125 20.964844 L 35.3125 18.761719 C 35.3125 18.152344 34.8125 17.65625 34.207031 17.65625 Z M 39.722656 17.65625 C 39.117188 17.65625 38.621094 18.152344 38.621094 18.761719 L 38.621094 20.964844 C 38.621094 21.570312 39.117188 22.066406 39.722656 22.066406 C 40.332031 22.066406 40.828125 21.570312 40.828125 20.964844 L 40.828125 18.761719 C 40.828125 18.152344 40.332031 17.65625 39.722656 17.65625 Z M 23.171875 35.3125 C 21.957031 35.3125 20.964844 36.300781 20.964844 37.515625 L 20.964844 39.722656 L 18.761719 39.722656 C 17.542969 39.722656 16.550781 40.714844 16.550781 41.933594 L 16.550781 44.136719 C 16.550781 45.351562 17.542969 46.34375 18.761719 46.34375 L 20.964844 46.34375 L 20.964844 48.550781 C 20.964844 49.769531 21.957031 50.761719 23.171875 50.761719 L 25.378906 50.761719 C 26.597656 50.761719 27.589844 49.769531 27.589844 48.550781 L 27.589844 46.34375 L 29.792969 46.34375 C 31.007812 46.34375 32 45.351562 32 44.136719 L 32 41.933594 C 32 40.714844 31.007812 39.722656 29.792969 39.722656 L 27.589844 39.722656 L 27.589844 37.515625 C 27.589844 36.300781 26.597656 35.3125 25.378906 35.3125 Z M 43.589844 35.3125 C 40.847656 35.3125 38.621094 37.539062 38.621094 40.277344 C 38.621094 43.011719 40.847656 45.238281 43.589844 45.238281 C 46.324219 45.238281 48.550781 43.011719 48.550781 40.277344 C 48.550781 37.539062 46.324219 35.3125 43.589844 35.3125 Z M 23.171875 37.515625 L 25.378906 37.515625 L 25.378906 40.828125 C 25.378906 41.4375 25.875 41.933594 26.484375 41.933594 L 29.792969 41.933594 L 29.792969 44.136719 L 26.484375 44.136719 C 25.875 44.136719 25.378906 44.636719 25.378906 45.238281 L 25.378906 48.550781 L 23.171875 48.550781 L 23.171875 45.238281 C 23.171875 44.636719 22.675781 44.136719 22.066406 44.136719 L 18.761719 44.136719 L 18.761719 41.933594 L 22.066406 41.933594 C 22.675781 41.933594 23.171875 41.4375 23.171875 40.828125 Z M 43.589844 37.515625 C 45.109375 37.515625 46.34375 38.757812 46.34375 40.277344 C 46.34375 41.796875 45.109375 43.035156 43.589844 43.035156 C 42.0625 43.03125 40.828125 41.800781 40.828125 40.277344 C 40.828125 38.757812 42.0625 37.515625 43.589844 37.515625 Z M 37.515625 45.238281 C 35.695312 45.238281 34.207031 46.726562 34.207031 48.550781 C 34.207031 50.375 35.695312 51.863281 37.515625 51.863281 C 39.339844 51.863281 40.828125 50.375 40.828125 48.550781 C 40.828125 46.726562 39.339844 45.238281 37.515625 45.238281 Z M 37.515625 47.449219 C 38.125 47.449219 38.621094 47.945312 38.621094 48.550781 C 38.621094 49.160156 38.125 49.65625 37.515625 49.65625 C 36.910156 49.65625 36.410156 49.160156 36.410156 48.550781 C 36.410156 47.945312 36.910156 47.449219 37.515625 47.449219 Z M 15.449219 57.378906 C 14.839844 57.378906 14.34375 57.875 14.34375 58.484375 C 14.34375 59.089844 14.839844 59.589844 15.449219 59.589844 L 38.621094 59.589844 C 39.226562 59.589844 39.722656 59.089844 39.722656 58.484375 C 39.722656 57.875 39.226562 57.378906 38.621094 57.378906 Z M 43.035156 57.378906 C 42.429688 57.378906 41.933594 57.875 41.933594 58.484375 C 41.933594 59.089844 42.429688 59.589844 43.035156 59.589844 L 47.449219 59.589844 C 48.054688 59.589844 48.550781 59.089844 48.550781 58.484375 C 48.550781 57.875 48.054688 57.378906 47.449219 57.378906 Z M 43.035156 57.378906 "/>
</g>
</svg>
