<svg xmlns="http://www.w3.org/2000/svg" xmlns:xlink="http://www.w3.org/1999/xlink" width="64" height="64" viewBox="0 0 64 64" version="1.1">
<defs>
<linearGradient id="linear0" gradientUnits="userSpaceOnUse" x1="0" y1="0" x2="0" y2="1" gradientTransform="matrix(56,0,0,64,4,0)">
<stop offset="0" style="stop-color:#ff6666;stop-opacity:1;"/>
<stop offset="1" style="stop-color:#d90000;stop-opacity:1;"/>
</linearGradient>
</defs>
<g id="surface1">
<path style=" stroke:none;fill-rule:evenodd;fill:url(#linear0);" d="M 9.714844 29.472656 L 9.714844 26.285156 L 9.738281 26.285156 C 9.722656 25.90625 9.714844 25.523438 9.714844 25.144531 C 9.714844 11.269531 20.980469 0 34.855469 0 C 48.730469 0 60 11.269531 60 25.144531 C 60 32.945312 56.441406 39.921875 50.855469 44.53125 L 50.855469 59.746094 C 50.855469 62.097656 48.953125 64 46.609375 64 L 25.390625 64 C 23.046875 64 21.144531 62.097656 21.144531 59.746094 L 21.144531 54.855469 L 14.261719 54.855469 C 11.742188 54.855469 9.714844 52.828125 9.714844 50.308594 L 9.714844 43.429688 L 7.199219 43.429688 C 6.054688 43.429688 5 42.820312 4.429688 41.828125 C 3.855469 40.839844 3.855469 39.621094 4.429688 38.628906 L 8.667969 31.28125 Z M 35.210938 6.773438 C 34.703125 6.757812 34.191406 6.761719 33.679688 6.777344 C 30.777344 6.878906 27.84375 7.539062 25.265625 8.691406 C 22.605469 10.078125 20.308594 12.074219 18.558594 14.515625 C 16.699219 17.460938 15.972656 20.9375 17.125 23.144531 C 18.488281 25.753906 21.324219 27.335938 24.21875 27.335938 C 25.71875 27.335938 25.835938 27.414062 25.835938 28.496094 C 25.835938 30.855469 28.910156 31.972656 33.222656 31.972656 C 35.523438 31.972656 35.910156 32.070312 35.703125 32.613281 C 35.386719 33.441406 36.703125 36.242188 38.121094 37.5625 C 38.726562 38.128906 39.476562 38.964844 39.785156 39.699219 C 40.382812 41.132812 40.972656 41.308594 42.625 40.554688 C 43.882812 39.980469 43.929688 39.648438 42.851562 37.878906 C 42.398438 37.140625 42.027344 36.746094 42.027344 36.613281 C 42.027344 36.480469 41.710938 36.382812 43.464844 36.402344 C 48.546875 36.453125 50.847656 34.648438 50.851562 30.5 C 50.851562 29.828125 51.195312 29.339844 51.660156 28.941406 C 53.230469 28.175781 53.066406 27.355469 53.144531 25.78125 C 53.136719 17.597656 47.910156 10.171875 40.15625 7.554688 C 39.976562 7.503906 39.804688 7.441406 39.621094 7.390625 C 38.21875 7.023438 36.730469 6.820312 35.210938 6.773438 Z M 35.210938 6.773438 "/>
</g>
</svg>
