<svg xmlns="http://www.w3.org/2000/svg" xmlns:xlink="http://www.w3.org/1999/xlink" width="64px" height="64px" viewBox="0 0 64 64" version="1.1">
<defs>
<linearGradient id="linear0" gradientUnits="userSpaceOnUse" x1="0" y1="128" x2="128" y2="0" gradientTransform="matrix(0.432432,0,0,0.432432,4.324324,4.324324)">
<stop offset="0" style="stop-color:#ff6666;stop-opacity:1;"/>
<stop offset="1" style="stop-color:#d90000;stop-opacity:1;"/>
</linearGradient>
</defs>
<g id="surface1">
<path style=" stroke:none;fill-rule:nonzero;fill:url(#linear0);" d="M 31.984375 7.023438 C 29.328125 7.722656 27.511719 9.609375 27.039062 12.679688 C 27.039062 14.503906 27.894531 16.089844 29.222656 17.109375 L 29.425781 30.296875 C 26.519531 31.484375 24.460938 34.289062 24.351562 37.585938 L 16.136719 39.429688 C 15.164062 38.386719 13.753906 37.992188 12.425781 37.894531 C 9.335938 37.894531 6.800781 40.332031 6.800781 43.382812 C 6.800781 46.433594 9.328125 48.902344 12.425781 48.902344 C 14.523438 48.902344 16.394531 47.8125 17.363281 46.109375 C 17.414062 46.023438 17.386719 45.929688 17.398438 45.835938 L 26.667969 43.484375 C 27.546875 44.328125 28.402344 45.238281 29.53125 45.460938 C 27.679688 46.605469 26.539062 48.4375 26.257812 50.738281 L 26.257812 50.773438 C 26.257812 54.257812 29.132812 56.976562 32.527344 56.976562 C 35.925781 56.976562 38.761719 54.253906 38.761719 50.773438 C 38.761719 48.40625 37.378906 46.476562 35.460938 45.425781 C 36.5 45.023438 37.351562 44.335938 38.1875 43.617188 L 46.804688 45.867188 C 47.160156 46.972656 47.839844 47.789062 48.679688 48.355469 C 49.566406 48.957031 50.632812 49.304688 51.78125 49.445312 L 51.8125 49.445312 C 54.777344 49.445312 57.199219 47.054688 57.199219 44.132812 C 57.199219 41.21875 54.792969 38.867188 51.847656 38.847656 C 51.835938 38.847656 51.828125 38.847656 51.8125 38.847656 C 50.769531 38.789062 49.882812 39.179688 49.15625 39.699219 L 40.605469 37.722656 C 40.546875 34.382812 38.492188 31.539062 35.5625 30.332031 C 35.488281 26.601562 35.523438 18.417969 35.527344 17.484375 C 37.1875 16.515625 38.355469 14.765625 38.355469 12.679688 C 38.355469 9.527344 35.78125 7.023438 32.699219 7.023438 Z M 32.699219 8.761719 C 35.007812 8.761719 36.789062 10.570312 36.789062 12.679688 C 36.789062 14.789062 35.007812 16.5625 32.699219 16.5625 C 30.386719 16.5625 28.609375 14.789062 28.609375 12.679688 C 28.609375 10.570312 30.386719 8.761719 32.699219 8.761719 Z M 30.621094 17.789062 C 31.277344 18.050781 31.957031 18.300781 32.699219 18.300781 C 33.199219 18.300781 33.664062 18.183594 34.128906 18.0625 C 34.121094 19.703125 34.117188 27.4375 34.199219 30.808594 C 33.035156 31.296875 32.1875 31.273438 30.824219 30.773438 Z M 24.453125 38.953125 C 24.617188 40.171875 25.039062 41.304688 25.679688 42.289062 L 17.089844 44.539062 C 16.511719 43.941406 16.1875 43.433594 16.105469 42.867188 C 16.023438 42.339844 16.148438 41.609375 16.339844 40.789062 Z M 40.464844 39.15625 L 48.917969 41.0625 C 49.113281 41.882812 49.269531 42.613281 49.1875 43.140625 C 49.113281 43.683594 48.75 44.203125 48.203125 44.777344 L 39.136719 42.425781 C 39.808594 41.460938 40.269531 40.363281 40.464844 39.15625 Z M 12.425781 39.394531 C 13.28125 39.394531 14.226562 39.675781 14.878906 40.074219 C 14.59375 41.0625 14.542969 42.050781 14.539062 43.007812 L 14.539062 43.039062 C 14.675781 43.960938 15.214844 44.785156 15.933594 45.5625 C 15.179688 46.578125 13.804688 47.402344 12.425781 47.402344 C 10.132812 47.402344 8.300781 45.597656 8.300781 43.382812 C 8.300781 41.164062 10.128906 39.394531 12.425781 39.394531 Z M 32.867188 40.113281 C 33.9375 40.164062 34.882812 40.613281 35.320312 41.40625 L 35.320312 41.4375 L 35.390625 45.359375 C 33.605469 44.171875 31.675781 44.539062 29.765625 45.257812 L 29.765625 41.335938 L 29.800781 41.304688 C 30.636719 40.421875 31.796875 40.058594 32.867188 40.113281 Z M 51.8125 40.414062 C 53.933594 40.414062 55.597656 42.085938 55.597656 44.132812 C 55.597656 46.175781 53.933594 47.84375 51.8125 47.84375 C 50.632812 47.84375 49.394531 47.195312 48.679688 46.378906 C 49.144531 46.085938 49.601562 45.78125 49.871094 45.324219 C 50.851562 43.8125 50.761719 42.386719 50.453125 40.6875 C 50.867188 40.5625 51.414062 40.414062 51.8125 40.414062 Z M 32.527344 46.414062 C 35.109375 46.414062 37.09375 48.414062 37.09375 50.773438 C 37.09375 53.136719 35.109375 55.136719 32.527344 55.136719 C 29.949219 55.136719 27.960938 53.136719 27.960938 50.773438 C 27.960938 48.414062 29.945312 46.414062 32.527344 46.414062 Z M 32.527344 46.414062 "/>
</g>
</svg>
