<svg xmlns="http://www.w3.org/2000/svg" xmlns:xlink="http://www.w3.org/1999/xlink" width="64" height="64" viewBox="0 0 64 64" version="1.1">
<defs>
<linearGradient id="linear0" gradientUnits="userSpaceOnUse" x1="0" y1="0" x2="0" y2="1" gradientTransform="matrix(53.144531,0,0,60,5,2)">
<stop offset="0" style="stop-color:#ff6666;stop-opacity:1;"/>
<stop offset="1" style="stop-color:#d90000;stop-opacity:1;"/>
</linearGradient>
</defs>
<g id="surface1">
<path style=" stroke:none;fill-rule:nonzero;fill:url(#linear0);" d="M 15.097656 2 L 11.746094 5.351562 L 12.171875 5.773438 C 7.5625 11.195312 5.011719 18.074219 5 25.199219 C 5 41.15625 17.429688 54.207031 33.136719 55.207031 L 33.136719 56.207031 C 24.121094 56.449219 15.671875 58.378906 15.671875 62 L 54.476562 62 C 54.476562 58.378906 46.027344 56.449219 37.015625 56.207031 L 37.015625 55.199219 C 43.445312 54.777344 49.582031 52.300781 54.511719 48.113281 L 54.792969 48.398438 L 58.144531 45.046875 L 51.5625 38.464844 C 54.574219 34.699219 56.222656 30.023438 56.230469 25.199219 C 56.226562 13.445312 46.699219 3.917969 34.945312 3.914062 C 30.121094 3.917969 25.4375 5.558594 21.667969 8.570312 Z M 15.679688 9.28125 L 18.328125 11.933594 C 15.316406 15.699219 13.667969 20.375 13.664062 25.199219 C 13.660156 36.953125 23.191406 46.484375 34.945312 46.480469 C 39.773438 46.480469 44.453125 44.839844 48.222656 41.828125 L 50.976562 44.582031 C 46.5 48.265625 40.882812 50.292969 35.074219 50.300781 C 21.210938 50.300781 9.972656 39.0625 9.972656 25.199219 C 9.972656 19.386719 11.996094 13.765625 15.679688 9.28125 Z M 34.441406 12.898438 C 40.015625 12.902344 43.273438 16.0625 43.273438 16.0625 L 37.902344 20.996094 C 34.222656 19.414062 31.066406 22.25 31.480469 26.246094 C 31.898438 30.242188 34.734375 31.085938 37.890625 30.667969 C 41.046875 30.253906 38.945312 27.621094 38.945312 27.621094 L 37.683594 27.9375 L 35.691406 25.832031 L 46.316406 22.480469 C 47.773438 32.992188 43.773438 37.507812 35.148438 37.5 C 26.527344 37.488281 23.273438 30.96875 23.28125 25.289062 C 23.289062 19.613281 28.867188 12.890625 34.441406 12.898438 Z M 34.441406 12.898438 "/>
</g>
</svg>
