<svg xmlns="http://www.w3.org/2000/svg" xmlns:xlink="http://www.w3.org/1999/xlink" width="64" height="64" viewBox="0 0 64 64" version="1.1">
<defs> <linearGradient id="linear0" gradientUnits="userSpaceOnUse" x1="0" y1="0" x2="0" y2="1" gradientTransform="matrix(55.992188,0,0,56,4.003906,4)"> <stop offset="0" style="stop-color:#ff6666;stop-opacity:1;"/> <stop offset="1" style="stop-color:#d90000;stop-opacity:1;"/> </linearGradient> </defs>
<g id="surface1">
<path style=" stroke:none;fill-rule:nonzero;fill:url(#linear0);fill-opacity:1;" d="M 32.054688 6.046875 C 20.75 6.046875 11.589844 9.058594 11.589844 12.78125 C 11.589844 16.496094 20.75 19.515625 32.054688 19.515625 C 43.355469 19.515625 52.523438 16.496094 52.523438 12.78125 C 52.523438 9.058594 43.355469 6.046875 32.054688 6.046875 M 11.632812 15.046875 C 11.269531 15.699219 11.054688 16.382812 11.054688 17.085938 L 11.054688 23.445312 C 11.054688 28.363281 20.464844 32.359375 32.054688 32.359375 C 43.652344 32.359375 53.058594 28.363281 53.058594 23.445312 L 53.058594 17.085938 C 53.058594 16.382812 52.839844 15.699219 52.484375 15.046875 C 52.082031 18.644531 43.097656 21.53125 32.054688 21.53125 C 21.011719 21.53125 12.042969 18.644531 11.632812 15.046875 M 11.691406 27.769531 C 11.292969 28.453125 11.054688 29.175781 11.054688 29.90625 L 11.054688 36.269531 C 11.054688 41.1875 20.464844 45.164062 32.054688 45.164062 C 43.652344 45.164062 53.058594 41.183594 53.058594 36.269531 L 53.058594 29.90625 C 53.058594 29.175781 52.8125 28.453125 52.421875 27.769531 C 50.167969 31.660156 41.921875 34.542969 32.054688 34.542969 C 22.199219 34.542969 13.945312 31.660156 11.695312 27.769531 M 11.695312 40.917969 C 11.292969 41.59375 11.054688 42.308594 11.054688 43.042969 L 11.054688 49.417969 C 11.054688 54.332031 20.464844 58.308594 32.054688 58.308594 C 43.652344 58.308594 53.058594 54.324219 53.058594 49.417969 L 53.058594 43.042969 C 53.058594 42.308594 52.820312 41.59375 52.421875 40.917969 C 50.167969 44.800781 41.921875 47.679688 32.054688 47.679688 C 22.199219 47.679688 13.945312 44.800781 11.695312 40.917969 "/>
</g>
</svg>
