<svg xmlns="http://www.w3.org/2000/svg" xmlns:xlink="http://www.w3.org/1999/xlink" width="64" height="64" viewBox="0 0 64 64" version="1.1">
<defs> <linearGradient id="linear0" gradientUnits="userSpaceOnUse" x1="0" y1="0" x2="0" y2="1" gradientTransform="matrix(55.992188,0,0,56,4.003906,4)"> <stop offset="0" style="stop-color:#ff6666;stop-opacity:1;"/> <stop offset="1" style="stop-color:#d90000;stop-opacity:1;"/> </linearGradient> </defs>
<g id="surface1">
<path style=" stroke:none;fill-rule:nonzero;fill:url(#linear0);fill-opacity:1;" d="M 36.375 8.628906 C 23.65625 8.628906 20.023438 15.699219 20.023438 25.816406 C 20.023438 35.933594 23.65625 43.003906 36.375 43.003906 C 40.011719 43.003906 43.097656 41.929688 43.097656 41.929688 L 47.28125 25.816406 C 48.132812 22.527344 48.574219 21.519531 45.460938 21.519531 L 33.652344 21.519531 C 32.140625 21.519531 30.925781 22.957031 30.925781 24.742188 C 30.925781 26.527344 32.140625 27.964844 33.648438 27.964844 L 39.511719 27.964844 L 37.558594 36.449219 C 37.558594 36.449219 37.207031 36.558594 36.378906 36.558594 C 28.203125 36.558594 25.476562 33.082031 25.476562 25.816406 C 25.476562 18.550781 28.199219 15.074219 36.378906 15.074219 L 56.367188 15.074219 L 54.546875 8.632812 L 36.378906 8.632812 Z M 9.121094 21.519531 L 9.121094 27.964844 C 9.121094 43.390625 18.207031 55.894531 36.375 55.894531 C 47.277344 55.894531 52.730469 51.597656 56.363281 45.148438 L 48.914062 45.148438 C 46.191406 47.300781 43.644531 49.449219 36.375 49.449219 C 23.65625 49.449219 14.570312 39.832031 14.570312 27.964844 L 14.570312 21.519531 Z M 9.121094 21.519531 "/>
</g>
</svg>
