<svg xmlns="http://www.w3.org/2000/svg" xmlns:xlink="http://www.w3.org/1999/xlink" width="64" height="64" viewBox="0 0 64 64" version="1.1">
<defs>
<linearGradient id="linear0" gradientUnits="userSpaceOnUse" x1="0" y1="0" x2="0" y2="1" gradientTransform="matrix(64,0,0,48,0,8)">
<stop offset="0" style="stop-color:#ff6666;stop-opacity:1;"/>
<stop offset="1" style="stop-color:#d90000;stop-opacity:1;"/>
</linearGradient>
</defs>
<g id="surface1">
<path style=" stroke:none;fill-rule:nonzero;fill:url(#linear0);" d="M 8 8 C 6.246094 8 4.855469 8.15625 3.6875 8.59375 C 2.519531 9.03125 1.585938 9.832031 1.03125 10.835938 C -0.078125 12.84375 0.0390625 15.292969 0 18.648438 L 0 45.351562 C 0.0390625 48.707031 -0.078125 51.15625 1.03125 53.164062 C 1.585938 54.167969 2.519531 54.96875 3.6875 55.40625 C 4.855469 55.84375 6.246094 56 8 56 L 56 56 C 57.753906 56 59.144531 55.84375 60.3125 55.40625 C 61.480469 54.96875 62.421875 54.167969 62.976562 53.164062 C 64.085938 51.15625 63.960938 48.707031 64 45.351562 L 64 18.648438 C 63.960938 15.292969 64.085938 12.84375 62.976562 10.835938 C 62.421875 9.832031 61.480469 9.03125 60.3125 8.59375 C 59.144531 8.15625 57.753906 8 56 8 Z M 8 12 L 56 12 C 57.519531 12 58.421875 12.15625 58.90625 12.335938 C 59.242188 12.460938 59.414062 12.652344 59.476562 12.765625 C 59.855469 13.453125 59.957031 15.222656 60 18.65625 L 60 45.351562 C 59.960938 48.773438 59.855469 50.546875 59.476562 51.234375 C 59.414062 51.347656 59.242188 51.539062 58.90625 51.664062 C 58.421875 51.84375 57.519531 52 56 52 L 8 52 C 6.480469 52 5.578125 51.84375 5.09375 51.664062 C 4.765625 51.539062 4.601562 51.359375 4.53125 51.234375 C 4.148438 50.539062 4.039062 48.765625 4 45.351562 L 4 18.65625 C 4.039062 15.230469 4.148438 13.460938 4.53125 12.765625 C 4.601562 12.640625 4.765625 12.460938 5.09375 12.335938 C 5.578125 12.15625 6.480469 12 8 12 Z M 10.148438 18.3125 L 9.007812 20.0625 L 32.5 36.945312 L 56 20 L 54.859375 18.3125 L 32.5 31.804688 Z M 10.148438 18.3125 "/>
</g>
</svg>
