<svg xmlns="http://www.w3.org/2000/svg" xmlns:xlink="http://www.w3.org/1999/xlink" width="64" height="64" viewBox="0 0 64 64" version="1.1">
<defs>
<linearGradient id="linear0" gradientUnits="userSpaceOnUse" x1="0" y1="0" x2="0" y2="1" gradientTransform="matrix(60.03125,0,0,63.746094,1.984375,0)">
<stop offset="0" style="stop-color:#ff6666;stop-opacity:1;"/>
<stop offset="1" style="stop-color:#d90000;stop-opacity:1;"/>
</linearGradient>
</defs>
<g id="surface1">
<path style=" stroke:none;fill-rule:nonzero;fill:url(#linear0);" d="M 36.128906 35.820312 L 28.234375 35.902344 L 32.480469 23.171875 L 62.015625 23.003906 L 49.125 63.746094 L 29.5 63.746094 L 32.480469 54.746094 C 15.589844 58.3125 2.09375 52.867188 2.007812 40.996094 C 1.265625 21.269531 17.964844 1.1875 41.644531 0 C 52.765625 0.328125 59.421875 5.027344 61.59375 14.09375 L 42.496094 20.964844 C 41.492188 16.84375 38.785156 15.179688 34.347656 15.957031 C 25.605469 18.503906 20.101562 29.308594 22.039062 35.902344 C 23 39.140625 25.890625 39.984375 28.828125 39.890625 C 31.808594 40.0625 34.246094 38.710938 36.128906 35.820312 Z M 36.128906 35.820312 "/>
</g>
</svg>
