<svg xmlns="http://www.w3.org/2000/svg" xmlns:xlink="http://www.w3.org/1999/xlink" width="64" height="64" viewBox="0 0 64 64" version="1.1">
<defs> <linearGradient id="linear0" gradientUnits="userSpaceOnUse" x1="0" y1="0" x2="0" y2="1" gradientTransform="matrix(55.992188,0,0,56,4.003906,4)"> <stop offset="0" style="stop-color:#ff6666;stop-opacity:1;"/> <stop offset="1" style="stop-color:#d90000;stop-opacity:1;"/> </linearGradient> </defs>
<g id="surface1">
<path style=" stroke:none;fill-rule:evenodd;fill:url(#linear0);fill-opacity:1;" d="M 61.675781 22.988281 C 61.800781 23.367188 48.882812 37.875 48.757812 38.257812 C 48.632812 38.636719 50.53125 57.933594 50.207031 58.171875 C 49.875 58.402344 32.035156 50.648438 31.628906 50.648438 C 31.226562 50.648438 13.382812 58.410156 13.058594 58.171875 C 12.734375 57.9375 14.628906 38.636719 14.503906 38.257812 C 14.378906 37.878906 1.453125 23.378906 1.578125 22.996094 C 1.703125 22.617188 20.722656 18.441406 21.042969 18.210938 C 21.367188 17.972656 31.226562 1.25 31.625 1.25 C 32.027344 1.25 41.886719 17.972656 42.214844 18.203125 C 42.539062 18.4375 61.550781 22.609375 61.675781 22.988281 "/>
</g>
</svg>
