<svg xmlns="http://www.w3.org/2000/svg" xmlns:xlink="http://www.w3.org/1999/xlink" width="64" height="64" viewBox="0 0 64 64" version="1.1">
<defs>
<linearGradient id="linear0" gradientUnits="userSpaceOnUse" x1="0" y1="0" x2="0" y2="1" gradientTransform="matrix(64,0,0,59.796875,0,2.101562)">
<stop offset="0" style="stop-color:#ff6666;stop-opacity:1;"/>
<stop offset="1" style="stop-color:#d90000;stop-opacity:1;"/>
</linearGradient>
</defs>
<g id="surface1">
<path style=" stroke:none;fill-rule:nonzero;fill:url(#linear0);" d="M 12.542969 61.539062 C 10.378906 60.761719 6.414062 58.46875 4.589844 56.941406 C 1.355469 54.234375 -1.023438 50.597656 0.441406 50.597656 C 0.683594 50.597656 2.359375 51.773438 4.167969 53.210938 C 10.117188 57.9375 14.78125 59.605469 19.039062 58.519531 C 23.875 57.289062 31.09375 52.816406 32.859375 49.957031 C 33.992188 48.128906 33.960938 46.976562 32.753906 46.121094 C 31.828125 45.457031 31.910156 45.433594 34.59375 45.527344 L 37.402344 45.628906 L 37.527344 47.144531 C 37.613281 48.210938 37.136719 49.722656 35.90625 52.257812 C 34.945312 54.238281 34.160156 56.199219 34.160156 56.621094 C 34.160156 57.5625 31.035156 59.3125 27.460938 60.378906 C 24.71875 61.195312 17.339844 61.460938 14.953125 60.828125 C 13.835938 60.535156 13.753906 60.574219 14.25 61.167969 C 14.722656 61.742188 14.683594 61.839844 14 61.808594 C 13.554688 61.792969 12.898438 61.671875 12.542969 61.542969 Z M 30.15625 60.417969 C 35.53125 58.183594 38.96875 55.6875 41.289062 52.335938 C 42.4375 50.679688 42.527344 49.410156 41.417969 50.519531 C 40.257812 51.679688 39.78125 51.074219 39.78125 48.4375 C 39.78125 45.015625 38.882812 43.988281 36.210938 44.351562 L 34.378906 44.601562 L 36.539062 43.457031 C 37.730469 42.824219 38.992188 42.054688 39.351562 41.75 C 39.707031 41.441406 40.820312 40.773438 41.820312 40.269531 C 43.992188 39.179688 44.539062 38.292969 44.539062 35.867188 C 44.539062 32.785156 43.628906 30.648438 41.28125 28.222656 C 39.992188 26.890625 39.355469 25.953125 39.734375 25.953125 C 40.089844 25.953125 41.402344 27.003906 42.648438 28.289062 C 44.441406 30.140625 45.097656 31.230469 45.804688 33.523438 C 46.855469 36.921875 46.976562 41.804688 46.101562 45.519531 C 45.78125 46.886719 45.582031 48.003906 45.664062 48.003906 C 45.742188 48.003906 46.097656 47.46875 46.453125 46.816406 C 46.808594 46.164062 47.105469 45.859375 47.117188 46.144531 C 47.144531 46.9375 45.167969 50.460938 43.355469 52.851562 C 40.195312 57.019531 33.507812 61.101562 28.972656 61.625 L 26.59375 61.898438 Z M 25.511719 43.214844 C 21.316406 41.324219 17.105469 35.648438 16.625 31.242188 L 16.398438 29.195312 L 17.78125 31.976562 C 20.40625 37.261719 24.371094 40.027344 27.460938 38.734375 C 28.78125 38.183594 30.269531 36.601562 30.269531 35.75 C 30.269531 35.539062 29.789062 35.683594 29.203125 36.0625 C 27.492188 37.1875 25.214844 36.964844 23.785156 35.535156 C 20.710938 32.457031 21.367188 27.097656 25.308594 23.160156 C 27.558594 20.90625 29.234375 20.207031 32.882812 19.992188 C 35.578125 19.835938 36.53125 19.957031 38.375 20.757812 C 42.675781 22.605469 46.984375 28.542969 47.449219 33.257812 L 47.644531 35.25 L 46.160156 32.222656 C 44.253906 28.347656 42.832031 26.679688 40.425781 25.515625 C 38.035156 24.359375 36.34375 24.640625 34.820312 26.449219 C 33.429688 28.101562 33.417969 28.851562 34.792969 27.945312 C 36.507812 26.824219 38.78125 27.046875 40.210938 28.476562 C 44.503906 32.765625 41.148438 41.214844 34.203125 43.605469 C 31.886719 44.402344 27.734375 44.21875 25.511719 43.214844 Z M 35.175781 41.8125 C 36.042969 41.152344 37.046875 40.042969 37.40625 39.355469 C 38.738281 36.777344 37.847656 32.410156 35.863281 31.78125 C 34.660156 31.398438 33.601562 32.414062 31.566406 35.894531 C 29.394531 39.617188 28.566406 40.304688 25.945312 40.554688 C 24.054688 40.738281 23.84375 40.851562 24.316406 41.421875 C 25.382812 42.703125 27.394531 43.261719 30.527344 43.136719 C 33.113281 43.035156 33.839844 42.832031 35.175781 41.8125 Z M 30.144531 31.464844 C 30.636719 30.929688 31.640625 29.40625 32.378906 28.082031 C 34.304688 24.636719 35.445312 23.707031 38.054688 23.453125 C 40.148438 23.253906 40.214844 23.207031 39.53125 22.453125 C 38.425781 21.234375 36.078125 20.648438 33.042969 20.84375 C 29.980469 21.039062 28.542969 21.832031 26.917969 24.21875 C 24.316406 28.042969 27.246094 34.628906 30.144531 31.464844 Z M 21.839844 36.28125 C 18.003906 32.75 16.398438 26.886719 17.53125 20.546875 C 18.304688 16.199219 18.304688 16.09375 17.503906 17.113281 C 16.921875 17.847656 16.925781 17.734375 17.519531 16.222656 C 19.753906 10.5625 26.574219 4.644531 32.96875 2.820312 C 36.445312 1.828125 38.183594 2.136719 35.027344 3.1875 C 29.488281 5.027344 23.746094 9.285156 21.847656 12.957031 L 21.078125 14.449219 L 22.199219 13.714844 C 23.96875 12.554688 24.214844 12.78125 24.214844 15.574219 C 24.214844 19.003906 25.117188 20.03125 27.789062 19.640625 L 29.621094 19.371094 L 27.675781 20.425781 C 24.113281 22.355469 20.546875 24.664062 20 25.394531 C 19.308594 26.316406 19.304688 29.445312 19.992188 31.738281 C 20.316406 32.824219 21.378906 34.40625 22.71875 35.789062 C 25.308594 38.46875 24.625 38.851562 21.835938 36.285156 Z M 26.667969 18.3125 C 25.964844 17.613281 26.515625 15.082031 28.109375 11.683594 C 29.054688 9.660156 29.832031 7.695312 29.832031 7.320312 C 29.835938 6.453125 33.136719 4.644531 36.539062 3.640625 C 39.320312 2.820312 45.648438 2.585938 48.621094 3.191406 C 50.144531 3.5 50.265625 3.464844 49.757812 2.851562 C 47.84375 0.550781 55.730469 3.984375 59.390625 7.050781 C 62.640625 9.773438 65.023438 13.410156 63.558594 13.410156 C 63.316406 13.410156 61.613281 12.210938 59.773438 10.75 C 56.03125 7.769531 53.363281 5.292969 49.40625 4.558594 C 46.492188 4.019531 43.328125 4.824219 40.644531 6.082031 C 36.402344 8.070312 29.933594 12.554688 29.933594 15.1875 C 29.933594 15.601562 30.695312 17.234375 31.214844 17.71875 L 32.164062 18.601562 L 29.558594 18.601562 C 28.125 18.601562 26.824219 18.460938 26.667969 18.3125 Z M 26.667969 18.3125 "/>
</g>
</svg>
