<svg xmlns="http://www.w3.org/2000/svg" xmlns:xlink="http://www.w3.org/1999/xlink" width="64" height="64" viewBox="0 0 64 64" version="1.1">
<defs>
<linearGradient id="linear0" gradientUnits="userSpaceOnUse" x1="0" y1="0" x2="0" y2="1" gradientTransform="matrix(74.65625,0,0,74.666667,5.338541,5.333333)">
<stop offset="0" style="stop-color:#ff6666;stop-opacity:1;"/>
<stop offset="1" style="stop-color:#d90000;stop-opacity:1;"/>
</linearGradient>
</defs>
<g id="surface1">
<path style=" stroke:none;fill-rule:nonzero;fill:url(#linear0);" d="M 31.796875 1.808594 C 27.082031 1.6875 22.9375 3.378906 19.929688 6.734375 C 17.117188 9.871094 15.191406 14.351562 13.464844 20.019531 C 7.601562 22.875 3.230469 27.375 2.308594 34.664062 C 2.125 36.125 3.15625 37.457031 4.617188 37.644531 C 6.078125 37.828125 7.410156 36.792969 7.597656 35.335938 C 8.367188 29.246094 11.132812 26.722656 16.695312 24.304688 C 17.421875 23.984375 17.96875 23.363281 18.191406 22.601562 C 19.90625 16.683594 21.800781 12.632812 23.902344 10.292969 C 26 7.949219 28.144531 7.042969 31.679688 7.136719 C 31.699219 7.136719 31.722656 7.136719 31.742188 7.136719 C 35.339844 7.144531 37.789062 8.453125 40.007812 11.101562 C 42.226562 13.75 44.027344 17.863281 45.351562 23.023438 C 45.578125 23.898438 46.230469 24.601562 47.089844 24.890625 C 54.402344 27.328125 55.785156 30.789062 56.277344 33.941406 C 53.296875 34.257812 50.878906 35.757812 49.402344 37.695312 C 47.894531 39.675781 47.164062 41.941406 46.632812 44.03125 C 45.882812 46.796875 45.136719 47.175781 43.710938 47.921875 C 42.28125 48.664062 39.738281 49.421875 37.796875 52.003906 C 37.777344 52.027344 37.761719 52.054688 37.742188 52.078125 C 35.496094 55.300781 33.425781 56.742188 31.929688 56.859375 C 30.433594 56.972656 28.320312 56.042969 25.390625 52.03125 L 25.421875 52.078125 C 23.152344 48.824219 20.089844 47.648438 18.265625 46.832031 C 17.355469 46.421875 16.773438 46.089844 16.464844 45.792969 C 16.15625 45.496094 15.960938 45.25 15.8125 44.367188 L 15.808594 44.351562 C 15.429688 42.027344 14.496094 40.320312 13.597656 39.222656 C 12.695312 38.121094 11.621094 37.496094 11.621094 37.496094 C 10.328125 36.792969 8.707031 37.269531 8.003906 38.5625 C 7.296875 39.855469 7.777344 41.472656 9.070312 42.179688 C 9.070312 42.179688 9.109375 42.160156 9.476562 42.605469 C 9.839844 43.046875 10.320312 43.8125 10.546875 45.21875 C 10.546875 45.222656 10.546875 45.226562 10.546875 45.234375 C 10.851562 47.042969 11.683594 48.597656 12.773438 49.644531 C 13.863281 50.6875 15.054688 51.234375 16.085938 51.699219 C 18.152344 52.625 19.664062 53.144531 21.046875 55.128906 C 21.058594 55.144531 21.070312 55.160156 21.082031 55.179688 C 24.535156 59.898438 28.3125 62.484375 32.339844 62.171875 C 36.34375 61.863281 39.414062 58.976562 42.058594 55.207031 L 42.070312 55.195312 C 42.949219 54.035156 44.136719 53.714844 46.175781 52.648438 C 48.226562 51.574219 50.707031 49.390625 51.78125 45.425781 C 51.785156 45.410156 51.789062 45.394531 51.792969 45.378906 C 52.246094 43.578125 52.859375 41.960938 53.644531 40.929688 C 54.429688 39.898438 55.210938 39.328125 56.933594 39.1875 C 56.941406 39.1875 56.949219 39.1875 56.957031 39.1875 C 58.183594 39.074219 59.554688 38.828125 60.644531 37.617188 C 61.734375 36.410156 61.8125 34.816406 61.644531 33.585938 C 61.050781 29.265625 58.046875 23.65625 50.101562 20.46875 C 48.699219 15.429688 46.875 10.992188 44.09375 7.675781 C 41.082031 4.082031 36.832031 1.832031 31.796875 1.808594 Z M 25.820312 13.46875 C 23.242188 13.46875 21.15625 15.554688 21.15625 18.132812 C 21.15625 20.710938 23.242188 22.800781 25.820312 22.800781 C 28.398438 22.800781 30.488281 20.710938 30.488281 18.132812 C 30.488281 15.554688 28.398438 13.46875 25.820312 13.46875 Z M 37.296875 13.46875 C 34.71875 13.46875 32.632812 15.554688 32.632812 18.132812 C 32.632812 20.710938 34.71875 22.800781 37.296875 22.800781 C 39.875 22.800781 41.964844 20.710938 41.964844 18.132812 C 41.964844 15.554688 39.875 13.46875 37.296875 13.46875 Z M 37.296875 13.46875 "/>
</g>
</svg>
