<svg xmlns="http://www.w3.org/2000/svg" xmlns:xlink="http://www.w3.org/1999/xlink" width="64" height="64" viewBox="0 0 64 64" version="1.1">
<defs>
<linearGradient id="linear0" gradientUnits="userSpaceOnUse" x1="0" y1="0" x2="0" y2="1" gradientTransform="matrix(64,0,0,58.667969,0,2.667969)">
<stop offset="0" style="stop-color:#ff6666;stop-opacity:1;"/>
<stop offset="1" style="stop-color:#d90000;stop-opacity:1;"/>
</linearGradient>
</defs>
<g id="surface1">
<path style=" stroke:none;fill-rule:nonzero;fill:url(#linear0);" d="M 25.089844 42.648438 L 19.664062 48.546875 L 18.929688 53.851562 L 15.738281 57.519531 C 15.90625 57.867188 16 58.257812 16 58.667969 C 16 60.140625 14.804688 61.332031 13.332031 61.332031 C 11.859375 61.332031 10.667969 60.140625 10.667969 58.667969 C 10.667969 57.195312 11.859375 56 13.332031 56 C 13.613281 56 13.878906 56.042969 14.136719 56.125 L 16.902344 52.933594 L 17.648438 47.589844 L 23.671875 41.039062 C 23.644531 41.011719 23.621094 40.980469 23.59375 40.953125 C 23.339844 40.683594 23.089844 40.414062 22.828125 40.152344 L 5.214844 55.21875 C 5.292969 55.46875 5.332031 55.726562 5.332031 56 C 5.332031 57.472656 4.140625 58.667969 2.667969 58.667969 C 1.195312 58.667969 0 57.472656 0 56 C 0 54.527344 1.195312 53.332031 2.667969 53.332031 C 3.078125 53.332031 3.476562 53.429688 3.824219 53.601562 L 21.289062 38.660156 C 20.9375 38.332031 20.578125 38.015625 20.21875 37.703125 L 13.554688 42.53125 L 7.769531 42.53125 L 5.230469 44.613281 C 5.300781 44.839844 5.332031 45.085938 5.332031 45.332031 C 5.332031 46.804688 4.140625 48 2.667969 48 C 1.195312 48 0 46.804688 0 45.332031 C 0 43.859375 1.195312 42.667969 2.667969 42.667969 C 3.105469 42.667969 3.515625 42.773438 3.878906 42.960938 L 6.996094 40.398438 L 12.863281 40.398438 L 18.507812 36.304688 C 14.277344 33.023438 9.648438 30.769531 5.632812 30.351562 C 4.117188 30.191406 2.898438 29.035156 2.695312 27.546875 C 2.492188 26.058594 3.34375 24.628906 4.765625 24.074219 L 59.472656 2.890625 C 59.867188 2.738281 60.289062 2.664062 60.710938 2.667969 C 61.84375 2.675781 62.886719 3.253906 63.492188 4.1875 C 64.09375 5.128906 64.164062 6.304688 63.6875 7.3125 L 38.820312 59.460938 C 38.167969 60.828125 36.640625 61.574219 35.136719 61.265625 C 33.628906 60.953125 32.539062 59.664062 32.503906 58.148438 C 32.402344 54.121094 29.539062 47.988281 25.089844 42.648438 Z M 25.089844 42.648438 "/>
</g>
</svg>
