<svg xmlns="http://www.w3.org/2000/svg" xmlns:xlink="http://www.w3.org/1999/xlink" width="64" height="64" viewBox="0 0 64 64" version="1.1">
<defs> <linearGradient id="linear0" gradientUnits="userSpaceOnUse" x1="0" y1="0" x2="0" y2="1" gradientTransform="matrix(55.992188,0,0,56,4.003906,4)"> <stop offset="0" style="stop-color:#ff6666;stop-opacity:1;"/> <stop offset="1" style="stop-color:#d90000;stop-opacity:1;"/> </linearGradient> </defs>
<g id="surface1">
<path style=" stroke:none;fill-rule:nonzero;fill:url(#linear0);fill-opacity:1;" d="M 44.253906 5.789062 L 28.207031 9.964844 L 31.710938 11.3125 C 30.222656 13.703125 29.050781 16.054688 28.144531 18.375 L 5.171875 31.445312 L 31.605469 58.554688 L 58.941406 31.550781 L 39.0625 20.753906 L 42.003906 16.820312 L 47.195312 20.195312 Z M 27.195312 21.117188 C 24.433594 30.046875 25.265625 38.507812 26.183594 46.96875 L 9.578125 30.992188 Z M 38.257812 22.164062 C 54.148438 31.488281 43.273438 25.09375 54.164062 31.464844 L 31.960938 51.277344 C 31.9375 50.949219 31.929688 50.617188 31.914062 50.289062 C 34.101562 36.390625 34.214844 32.324219 38.261719 22.164062 Z M 38.257812 22.164062 "/>
</g>
</svg>
