<svg xmlns="http://www.w3.org/2000/svg" xmlns:xlink="http://www.w3.org/1999/xlink" width="64" height="64" viewBox="0 0 64 64" version="1.1">
<defs> <linearGradient id="linear0" gradientUnits="userSpaceOnUse" x1="0" y1="0" x2="0" y2="1" gradientTransform="matrix(55.992188,0,0,56,4.003906,4)"> <stop offset="0" style="stop-color:#ff6666;stop-opacity:1;"/> <stop offset="1" style="stop-color:#d90000;stop-opacity:1;"/> </linearGradient> </defs>
<g id="surface1">
<path style=" stroke:none;fill-rule:evenodd;fill:url(#linear0);fill-opacity:1;" d="M 32.75 33.558594 C 32.355469 31.863281 34.40625 30.878906 35.796875 31.058594 C 38.53125 31.414062 39.824219 34.457031 39.195312 36.902344 C 38.242188 40.609375 34.007812 42.285156 30.535156 41.171875 C 25.820312 39.660156 23.753906 34.214844 25.371094 29.734375 C 27.425781 24.035156 34.132812 21.582031 39.632812 23.695312 C 46.34375 26.285156 49.207031 34.230469 46.570312 40.722656 C 43.449219 48.421875 34.21875 51.671875 26.707031 48.527344 C 17.988281 44.886719 14.328125 34.414062 17.988281 25.914062 C 22.175781 16.214844 33.9375 12.160156 43.464844 16.332031 C 54.179688 21.03125 58.652344 34.035156 53.949219 44.546875 C 48.71875 56.242188 34.414062 61.101562 22.875 55.890625 C 10.144531 50.144531 4.875 34.609375 10.617188 22.089844 C 15.117188 12.277344 25.40625 6.101562 36.171875 6.378906 "/>
</g>
</svg>
