<svg xmlns="http://www.w3.org/2000/svg" xmlns:xlink="http://www.w3.org/1999/xlink" width="64" height="64" viewBox="0 0 64 64" version="1.1">
<defs>
<linearGradient id="linear0" gradientUnits="userSpaceOnUse" x1="0" y1="0" x2="0" y2="1" gradientTransform="matrix(56,0,0,51.695312,4,6.152344)">
<stop offset="0" style="stop-color:#ff6666;stop-opacity:1;"/>
<stop offset="1" style="stop-color:#d90000;stop-opacity:1;"/>
</linearGradient>
</defs>
<g id="surface1">
<path style=" stroke:none;fill-rule:nonzero;fill:url(#linear0);" d="M 13.689851 7.160146 C 14.672718 6.032588 14.640679 4.281825 13.618539 3.195608 C 12.5964 2.109391 10.947954 2.076318 9.887574 3.120162 C 8.994623 2.871086 8.056197 2.87212 7.163246 3.123262 C 6.101833 2.079419 4.454421 2.112491 3.432281 3.198708 C 2.410141 4.284926 2.378103 6.035689 3.360969 7.162213 C 2.790473 9.462802 3.631748 11.897748 5.468293 13.259912 C 7.303803 14.622076 9.74495 14.622076 11.581494 13.259912 C 13.417005 11.897748 14.258281 9.462802 13.687784 7.162213 Z M 13.689851 7.160146 " transform="matrix(3.779602,0,0,3.779602,0,0)"/>
</g>
</svg>
