<svg xmlns="http://www.w3.org/2000/svg" xmlns:xlink="http://www.w3.org/1999/xlink" width="64" height="64" viewBox="0 0 64 64" version="1.1">
<defs> <linearGradient id="linear0" gradientUnits="userSpaceOnUse" x1="0" y1="0" x2="0" y2="1" gradientTransform="matrix(55.992188,0,0,56,4.003906,4)"> <stop offset="0" style="stop-color:#ff6666;stop-opacity:1;"/> <stop offset="1" style="stop-color:#d90000;stop-opacity:1;"/> </linearGradient> </defs>
<g id="surface1">
<path style=" stroke:none;fill-rule:nonzero;fill:url(#linear0);fill-opacity:1;" d="M 13.371094 6.441406 C 13.058594 6.457031 12.808594 6.695312 12.734375 7.011719 C 12.632812 7.4375 12.929688 7.890625 13.371094 8.035156 L 44.039062 18.375 L 16.046875 18.375 C 11.714844 18.375 8.226562 22.039062 8.226562 26.535156 L 8.226562 49.789062 C 8.226562 54.285156 11.714844 57.910156 16.046875 57.910156 L 48.070312 57.910156 C 52.398438 57.910156 55.886719 54.285156 55.886719 49.789062 L 55.886719 26.535156 C 55.886719 23.640625 54.441406 21.082031 52.257812 19.648438 C 52.148438 19.523438 51.984375 19.414062 51.820312 19.359375 L 51.699219 19.320312 C 50.949219 18.917969 50.125 18.632812 49.261719 18.5 L 13.734375 6.480469 C 13.621094 6.441406 13.480469 6.4375 13.371094 6.441406 M 31.792969 25.308594 C 39.125 25.308594 45.039062 31.121094 45.039062 38.34375 C 45.039062 45.570312 39.125 51.382812 31.792969 51.382812 C 24.46875 51.382812 18.558594 45.570312 18.558594 38.34375 C 18.558594 31.121094 24.46875 25.308594 31.792969 25.308594 "/>
</g>
</svg>
