<svg xmlns="http://www.w3.org/2000/svg" xmlns:xlink="http://www.w3.org/1999/xlink" width="64" height="64" viewBox="0 0 64 64" version="1.1">
<defs> <linearGradient id="linear0" gradientUnits="userSpaceOnUse" x1="0" y1="0" x2="0" y2="1" gradientTransform="matrix(55.992188,0,0,56,4.003906,4)"> <stop offset="0" style="stop-color:#ff6666;stop-opacity:1;"/> <stop offset="1" style="stop-color:#d90000;stop-opacity:1;"/> </linearGradient> </defs>
<g id="surface1">
<path style=" stroke:none;fill-rule:nonzero;fill:url(#linear0);fill-opacity:1;" d="M 10.21875 15.488281 C 8.75 15.488281 7.574219 16.667969 7.574219 18.125 L 7.574219 47.96875 C 7.574219 49.429688 8.75 50.609375 10.21875 50.609375 C 11.683594 50.609375 12.867188 49.433594 12.867188 47.96875 L 12.867188 18.125 C 12.867188 16.667969 11.683594 15.488281 10.21875 15.488281 M 52.941406 15.488281 C 51.472656 15.488281 50.296875 16.667969 50.296875 18.125 L 50.296875 47.96875 C 50.296875 49.429688 51.472656 50.609375 52.941406 50.609375 C 54.410156 50.609375 55.59375 49.433594 55.59375 47.96875 L 55.59375 18.125 C 55.59375 16.667969 54.410156 15.488281 52.941406 15.488281 "/>
<path style=" stroke:none;fill-rule:nonzero;fill:url(#linear0);fill-opacity:1;" d="M 10.167969 15.222656 C 8.703125 15.222656 7.523438 16.402344 7.523438 17.859375 L 7.523438 20.472656 L 10.003906 22.253906 L 12.816406 24.277344 L 28.085938 35.25 C 29.996094 36.625 33.074219 36.625 34.988281 35.25 L 50.246094 24.289062 L 51.847656 23.136719 L 55.542969 20.476562 L 55.542969 17.863281 C 55.542969 16.402344 54.359375 15.230469 52.890625 15.230469 C 52.515625 15.230469 52.164062 15.304688 51.847656 15.4375 L 51.847656 15.367188 L 51.457031 15.648438 C 51.449219 15.648438 51.445312 15.648438 51.445312 15.652344 L 51.410156 15.675781 C 51.335938 15.722656 51.269531 15.773438 51.207031 15.828125 L 34.988281 27.484375 C 33.074219 28.855469 29.996094 28.855469 28.085938 27.484375 L 11.878906 15.839844 L 11.878906 15.851562 C 11.804688 15.789062 11.730469 15.726562 11.652344 15.675781 C 11.226562 15.394531 10.71875 15.230469 10.167969 15.230469 "/>
</g>
</svg>
