<svg xmlns="http://www.w3.org/2000/svg" xmlns:xlink="http://www.w3.org/1999/xlink" width="64" height="64" viewBox="0 0 64 64" version="1.1">
<defs> <linearGradient id="linear0" gradientUnits="userSpaceOnUse" x1="0" y1="0" x2="0" y2="1" gradientTransform="matrix(55.992188,0,0,56,4.003906,4)"> <stop offset="0" style="stop-color:#ff6666;stop-opacity:1;"/> <stop offset="1" style="stop-color:#d90000;stop-opacity:1;"/> </linearGradient> </defs>
<g id="surface1">
<path style=" stroke:none;fill-rule:evenodd;fill:url(#linear0);fill-opacity:1;" d="M 24.820312 9.261719 C 25.128906 9.273438 25.441406 9.28125 25.792969 9.304688 C 26.820312 9.519531 27.785156 9.992188 28.773438 10.34375 C 30.308594 10.9375 31.777344 11.960938 32.414062 13.515625 C 32.574219 13.859375 33.265625 14.980469 33.625 15.484375 C 34.300781 16.269531 35.152344 16.910156 36.015625 17.476562 C 37.082031 18.109375 37.949219 18.941406 38.996094 20.335938 C 40.058594 21.785156 40.148438 23.046875 40.675781 24.679688 C 41.488281 25.539062 42.128906 24.359375 41.925781 23.53125 C 41.425781 21.53125 40.535156 19.726562 40.660156 17.605469 C 40.964844 14.8125 42.121094 11.078125 45.453125 10.863281 C 46.195312 10.863281 46.40625 10.984375 47.242188 11.734375 C 47.796875 12.238281 48.171875 12.414062 49.085938 12.644531 C 50.183594 12.910156 51.347656 12.722656 52.371094 13.199219 C 52.863281 13.488281 53.453125 14.359375 53.585938 14.988281 C 53.691406 15.507812 53.433594 16.023438 52.914062 16.304688 C 51.863281 16.796875 50.082031 16.429688 49.855469 17.882812 C 50.210938 19.425781 51.175781 20.488281 51.121094 22.027344 C 51.195312 23.707031 50.976562 25.097656 50.859375 26.742188 C 50.710938 28.761719 49.246094 29.832031 48.230469 31.515625 C 46.703125 33.457031 43.992188 35.488281 41.386719 34.695312 C 40.476562 34.402344 40.121094 34.453125 39.78125 34.933594 C 39.550781 35.261719 39.519531 35.566406 39.648438 36.289062 C 39.8125 37.179688 39.808594 38.859375 39.648438 39.800781 C 39.535156 40.503906 39.445312 41.566406 39.445312 42.160156 C 39.445312 42.648438 39.347656 43.257812 39.222656 43.761719 C 39.136719 44.089844 39.125 44.429688 39.09375 45.542969 C 39.070312 46.292969 39.03125 47.03125 38.996094 47.175781 C 38.894531 47.6875 38.917969 48.097656 39.148438 49.683594 C 39.246094 50.355469 39.585938 51.582031 39.820312 52.097656 C 39.945312 52.378906 40.269531 53.035156 40.546875 53.566406 C 40.570312 53.613281 40.585938 53.640625 40.601562 53.679688 C 40.484375 53.667969 40.347656 53.667969 40.226562 53.65625 C 39.300781 53.601562 38.429688 53.527344 37.558594 53.453125 C 37.835938 53.472656 38.109375 53.488281 38.382812 53.511719 C 38.246094 52.84375 38.109375 52.132812 38.082031 51.632812 C 38.058594 51.167969 37.992188 50.632812 37.917969 50.257812 C 37.84375 49.925781 37.773438 49.367188 37.746094 49.015625 C 37.679688 48.195312 37.617188 47.957031 37.222656 47.121094 C 37.046875 46.742188 36.84375 46.242188 36.773438 46.007812 C 36.65625 45.597656 36.65625 45.515625 36.667969 44.316406 C 36.671875 43.222656 36.648438 43.003906 36.554688 42.421875 C 36.359375 41.273438 36.277344 40.929688 35.902344 40.175781 C 35.394531 39.144531 35.351562 38.988281 35.304688 38.054688 C 35.246094 36.96875 35.066406 36.402344 34.691406 36.011719 C 34.476562 35.792969 34.289062 35.679688 33.941406 35.640625 C 33.828125 35.628906 33.6875 35.640625 33.53125 35.640625 C 32.875 35.640625 32.578125 35.730469 32.375 35.996094 C 32.1875 36.246094 32.164062 36.550781 32.316406 37.21875 C 32.390625 37.523438 32.476562 38.066406 32.503906 38.429688 C 32.574219 39.21875 32.710938 39.671875 33.066406 40.304688 C 33.519531 41.101562 33.53125 41.175781 33.53125 42.515625 C 33.53125 43.589844 33.519531 43.699219 33.417969 44.019531 C 33.355469 44.207031 33.238281 44.46875 33.140625 44.59375 C 32.929688 44.882812 32.300781 45.417969 31.628906 45.894531 C 30.984375 46.355469 30.246094 47.070312 29.800781 47.65625 C 29.332031 48.28125 28.65625 48.894531 28.570312 49.703125 C 28.570312 50.292969 28.910156 51.035156 29.410156 51.527344 C 29.664062 51.773438 29.839844 51.894531 30.339844 52.136719 C 31.035156 52.476562 31.296875 52.691406 31.351562 52.972656 C 31.367188 53.082031 31.328125 53.160156 31.296875 53.25 C 30.058594 53.25 28.894531 53.269531 27.785156 53.308594 C 27.570312 53.148438 27.398438 52.945312 27.261719 52.65625 C 27.074219 52.261719 26.929688 52.0625 26.742188 52.082031 C 26.554688 52.097656 26.335938 52.335938 26.054688 52.769531 C 25.859375 53.058594 25.679688 53.269531 25.492188 53.421875 C 25.070312 53.441406 24.644531 53.464844 24.242188 53.492188 C 24.015625 53.277344 23.855469 52.910156 23.777344 52.355469 C 23.726562 52.03125 23.730469 51.882812 23.792969 51.503906 C 23.945312 50.644531 24.152344 50.304688 24.765625 49.796875 C 24.972656 49.625 25.195312 49.398438 25.269531 49.292969 C 25.453125 49.015625 25.515625 48.648438 25.433594 48.292969 C 25.34375 47.855469 24.917969 47.085938 24.429688 46.4375 C 23.992188 45.847656 23.757812 45.480469 23.402344 44.800781 C 23.269531 44.542969 23.070312 44.292969 22.769531 43.980469 C 22.527344 43.734375 22.257812 43.386719 22.167969 43.222656 L 22.019531 42.925781 L 22.019531 41.234375 C 22.027344 40.027344 21.957031 38.863281 21.800781 37.664062 C 21.664062 36.234375 21.15625 35.109375 20.453125 33.875 C 20.054688 33.054688 19.867188 32.816406 19.523438 32.816406 C 19.0625 32.816406 18.785156 33.328125 18.648438 34.394531 C 18.488281 35.449219 17.976562 36.347656 17.660156 37.355469 C 17.460938 38.066406 17.324219 38.386719 16.875 39.28125 C 16.449219 40.136719 16.085938 41.082031 15.980469 41.664062 C 15.921875 41.96875 15.90625 42.390625 15.90625 43.273438 C 15.90625 44.582031 15.859375 45.101562 15.699219 45.769531 C 15.574219 46.273438 15.519531 47.726562 15.570312 48.703125 C 15.597656 49.273438 15.609375 49.347656 15.921875 50.257812 C 16.382812 51.605469 16.484375 51.996094 16.574219 52.675781 C 16.660156 53.328125 16.71875 53.492188 17.023438 54.144531 C 17.070312 54.234375 17.085938 54.320312 17.113281 54.40625 C 16.011719 54.621094 15.023438 54.851562 14.09375 55.089844 C 14.070312 55.042969 14.035156 54.992188 14.019531 54.941406 C 13.90625 54.421875 14.070312 53.890625 14.035156 53.363281 C 13.960938 53.246094 14.140625 52.402344 14.429688 51.507812 C 14.894531 50.078125 14.929688 49.851562 14.691406 48.886719 C 14.648438 48.722656 14.585938 48.160156 14.558594 47.640625 C 14.511719 46.644531 14.46875 46.398438 14.207031 45.746094 C 13.972656 45.167969 13.90625 44.910156 13.871094 44.316406 C 13.832031 43.625 13.917969 43.222656 14.167969 42.625 C 14.421875 42.035156 14.449219 41.769531 14.335938 41.144531 C 14.210938 40.457031 14.210938 38.863281 14.335938 38.355469 C 14.460938 37.84375 14.523438 36.007812 14.507812 33.65625 L 14.246094 30.777344 C 13.84375 29.214844 13.597656 28.65625 13.277344 28.65625 C 12.980469 28.65625 12.703125 29.140625 12.507812 30.011719 C 12.390625 30.828125 12.453125 31.660156 12.304688 32.46875 C 12.113281 33.582031 12.417969 34.695312 12.992188 35.664062 C 13.339844 36.257812 13.453125 36.6875 13.367188 36.996094 C 13.296875 37.246094 13.042969 37.523438 12.84375 37.574219 C 12.757812 37.597656 12.652344 37.5625 12.527344 37.5 C 12.378906 37.421875 12.21875 37.234375 11.691406 36.441406 C 11.328125 35.90625 10.980469 35.335938 10.925781 35.175781 C 10.425781 33.011719 10.40625 31.410156 10.679688 29.273438 C 10.679688 27.878906 10.875 27.359375 11.839844 26.320312 C 13.640625 24.082031 14.683594 22.117188 15.71875 19.484375 C 16.074219 18.890625 16.597656 18.175781 16.984375 17.734375 C 17.597656 17.050781 17.960938 16.378906 18.289062 15.359375 C 18.773438 14.144531 19.183594 12.714844 19.898438 11.660156 C 20.566406 10.914062 21.191406 10.089844 22.175781 9.710938 C 23.101562 9.273438 23.894531 9.234375 24.820312 9.261719 M 25.824219 35.011719 C 25.753906 35.011719 25.683594 35.058594 25.605469 35.121094 C 25.378906 35.300781 25.320312 35.503906 25.195312 36.867188 C 25.128906 37.578125 25.042969 38.472656 24.992188 38.851562 C 24.753906 40.542969 24.714844 41.070312 24.78125 41.640625 C 24.820312 41.933594 24.855469 42.539062 24.878906 42.980469 C 24.941406 44.207031 25.117188 44.757812 25.792969 45.914062 C 25.996094 46.265625 26.246094 46.722656 26.347656 46.933594 C 26.554688 47.359375 26.769531 47.640625 26.984375 47.753906 C 27.195312 47.859375 27.472656 47.84375 27.75 47.699219 C 28.125 47.5 28.820312 46.96875 29.148438 46.617188 C 29.5 46.25 29.652344 46.050781 30.0625 45.316406 C 30.527344 44.492188 30.585938 44.316406 30.585938 43.941406 C 30.585938 43.460938 30.410156 43.097656 29.933594 42.640625 C 29.722656 42.445312 29.273438 42.003906 28.945312 41.65625 C 28.257812 40.949219 28.238281 40.917969 28.0625 39.914062 C 27.910156 39.003906 27.90625 38.988281 27.261719 38.054688 C 27.035156 37.722656 26.921875 37.421875 26.648438 36.386719 C 26.394531 35.429688 26.28125 35.191406 26.070312 35.085938 C 25.96875 35.035156 25.898438 35.007812 25.824219 35.011719 "/>
</g>
</svg>
