<svg xmlns="http://www.w3.org/2000/svg" xmlns:xlink="http://www.w3.org/1999/xlink" width="64" height="64" viewBox="0 0 64 64" version="1.1">
<defs>
<linearGradient id="linear0" gradientUnits="userSpaceOnUse" x1="0" y1="0" x2="0" y2="1" gradientTransform="matrix(56,0,0,64,4,0)">
<stop offset="0" style="stop-color:#ff6666;stop-opacity:1;"/>
<stop offset="1" style="stop-color:#d90000;stop-opacity:1;"/>
</linearGradient>
</defs>
<g id="surface1">
<path style=" stroke:none;fill-rule:nonzero;fill:url(#linear0);" d="M 31.875 0 C 29.628906 0 28.199219 1.671875 28.054688 3.875 L 28.054688 8.371094 C 28.257812 10.386719 29.960938 11.996094 32 11.996094 C 32.511719 11.996094 33.03125 11.925781 33.480469 11.746094 C 34.828125 11.199219 35.792969 9.882812 35.945312 8.371094 L 35.945312 3.996094 C 35.945312 1.792969 34.121094 0 31.878906 0 Z M 24.230469 9.371094 C 21.632812 10.304688 19.183594 11.769531 17.078125 13.492188 C 17.988281 14.160156 18.753906 14.96875 19.296875 15.992188 C 19.3125 16.019531 19.28125 16.089844 19.296875 16.117188 C 19.542969 16.597656 19.777344 17.082031 19.914062 17.617188 C 19.925781 17.65625 19.90625 17.703125 19.914062 17.742188 C 20.042969 18.28125 20.160156 18.910156 20.160156 19.492188 C 20.160156 20 20.132812 20.511719 20.039062 20.988281 C 19.941406 21.46875 19.726562 21.921875 19.542969 22.363281 C 18.457031 25.011719 15.96875 26.863281 13.007812 26.863281 C 11.589844 26.863281 10.417969 26.46875 9.308594 25.738281 C 9.148438 26.195312 8.914062 26.621094 8.8125 27.113281 C 8.804688 27.148438 8.820312 27.199219 8.8125 27.238281 C 8.667969 27.980469 8.519531 28.71875 8.445312 29.484375 C 8.441406 29.527344 8.449219 29.566406 8.445312 29.609375 C 8.371094 30.378906 8.320312 31.199219 8.320312 31.984375 C 8.320312 32.023438 8.320312 32.066406 8.320312 32.109375 C 8.320312 32.148438 8.320312 32.191406 8.320312 32.234375 C 8.328125 32.976562 8.371094 33.757812 8.445312 34.484375 C 8.453125 34.566406 8.4375 34.648438 8.445312 34.734375 C 8.523438 35.453125 8.671875 36.15625 8.8125 36.855469 C 8.945312 37.546875 9.113281 38.191406 9.308594 38.855469 C 10.769531 37.996094 12.441406 37.660156 13.5 37.605469 C 14.929688 37.53125 16.265625 37.957031 17.324219 38.730469 C 18.382812 39.507812 19.175781 40.53125 19.667969 41.855469 C 19.832031 42.289062 19.953125 42.753906 20.035156 43.230469 C 20.136719 43.742188 20.160156 44.183594 20.160156 44.726562 C 20.160156 46.753906 18.523438 49.417969 17.324219 50.726562 C 17.808594 51.109375 18.28125 51.496094 18.804688 51.847656 C 19.425781 52.269531 19.992188 52.738281 20.652344 53.097656 C 21.59375 53.617188 22.601562 54.085938 23.613281 54.472656 C 23.804688 54.546875 24.019531 54.5625 24.230469 54.597656 C 24.175781 54.324219 24.105469 54.011719 24.105469 53.722656 C 24.105469 50.546875 27.640625 47.976562 32 47.976562 C 36.359375 47.976562 39.894531 50.546875 39.894531 53.722656 C 39.894531 54.011719 39.824219 54.324219 39.769531 54.597656 C 40.957031 54.183594 42.132812 53.691406 43.222656 53.097656 C 44.066406 52.648438 44.789062 52.144531 45.566406 51.597656 C 45.808594 51.429688 46.074219 51.28125 46.304688 51.101562 C 46.492188 50.957031 46.621094 50.75 46.800781 50.601562 C 46.238281 50.15625 45.8125 49.703125 45.441406 49.226562 C 44.695312 48.277344 44.257812 47.246094 44.085938 46.226562 C 44 45.71875 43.964844 45.234375 43.964844 44.726562 C 43.964844 43.757812 44.183594 42.804688 44.457031 41.980469 C 44.46875 41.941406 44.445312 41.890625 44.457031 41.855469 C 44.605469 41.429688 44.734375 41.105469 44.949219 40.730469 C 45.167969 40.359375 45.410156 40.046875 45.691406 39.730469 C 45.984375 39.378906 46.320312 39.132812 46.675781 38.855469 C 47.339844 38.34375 48.042969 37.949219 48.898438 37.730469 C 49.324219 37.621094 49.789062 37.507812 50.253906 37.480469 C 51.363281 37.417969 53.230469 37.871094 54.695312 38.730469 C 54.871094 38.105469 55.0625 37.507812 55.1875 36.855469 C 55.328125 36.15625 55.476562 35.453125 55.554688 34.734375 C 55.5625 34.648438 55.546875 34.566406 55.554688 34.484375 C 55.628906 33.757812 55.671875 32.976562 55.679688 32.234375 C 55.679688 31.320312 55.660156 30.371094 55.554688 29.484375 C 55.480469 28.71875 55.332031 27.976562 55.1875 27.234375 C 55.179688 27.199219 55.195312 27.148438 55.1875 27.109375 C 55.078125 26.582031 54.867188 26.105469 54.695312 25.613281 C 53.582031 26.34375 52.410156 26.738281 50.992188 26.738281 C 49.019531 26.738281 47.230469 25.945312 45.9375 24.613281 C 45.613281 24.277344 45.332031 23.878906 45.074219 23.488281 C 44.300781 22.3125 43.839844 20.890625 43.839844 19.363281 C 43.839844 18.125 44.183594 16.980469 44.703125 15.992188 C 44.964844 15.492188 45.207031 15.042969 45.566406 14.617188 C 45.933594 14.199219 46.34375 13.828125 46.800781 13.492188 C 44.691406 11.765625 42.371094 10.289062 39.769531 9.371094 C 39.824219 9.644531 39.894531 9.957031 39.894531 10.246094 C 39.894531 13.421875 36.359375 15.992188 32 15.992188 C 29.277344 15.992188 26.882812 15.023438 25.464844 13.492188 C 25.179688 13.1875 24.921875 12.835938 24.722656 12.492188 C 24.324219 11.804688 24.109375 11.039062 24.109375 10.246094 C 24.109375 9.957031 24.175781 9.644531 24.230469 9.371094 Z M 7.085938 12.121094 C 6.109375 12.367188 5.210938 13.027344 4.621094 13.992188 C 3.4375 15.925781 4.003906 18.453125 5.851562 19.617188 L 9.058594 21.613281 L 10.292969 22.363281 C 10.792969 22.550781 11.332031 22.738281 11.898438 22.738281 C 12.5 22.738281 13.105469 22.574219 13.625 22.363281 C 14.140625 22.152344 14.589844 21.863281 14.980469 21.488281 C 15.757812 20.738281 16.214844 19.738281 16.214844 18.617188 C 16.214844 17.433594 15.707031 16.21875 14.855469 15.492188 L 13.375 14.617188 L 10.046875 12.617188 C 9.121094 12.039062 8.0625 11.871094 7.085938 12.121094 Z M 55.433594 12.121094 C 54.929688 12.195312 54.414062 12.328125 53.953125 12.617188 L 50.625 14.617188 L 49.144531 15.492188 C 49.097656 15.527344 49.0625 15.578125 49.019531 15.617188 C 48.167969 16.34375 47.785156 17.308594 47.785156 18.492188 C 47.785156 19.613281 48.242188 20.613281 49.019531 21.363281 C 49.410156 21.742188 49.859375 22.027344 50.375 22.238281 C 50.894531 22.449219 51.5 22.613281 52.101562 22.613281 C 52.667969 22.613281 53.207031 22.550781 53.707031 22.363281 L 54.941406 21.613281 L 58.148438 19.617188 C 59.996094 18.453125 60.5625 15.925781 59.378906 13.992188 C 58.492188 12.542969 56.941406 11.890625 55.433594 12.121094 Z M 31.988281 23.992188 C 36.351562 23.992188 39.882812 27.574219 39.882812 31.988281 C 39.882812 36.40625 36.347656 39.984375 31.988281 39.984375 C 29.808594 39.984375 27.867188 39.058594 26.441406 37.613281 C 26.082031 37.25 25.738281 36.914062 25.453125 36.488281 C 24.601562 35.210938 24.097656 33.644531 24.097656 31.988281 C 24.097656 31.4375 24.117188 30.886719 24.21875 30.367188 C 24.957031 26.722656 28.175781 23.992188 31.992188 23.992188 Z M 31.988281 27.992188 C 30.351562 27.992188 29.011719 29.054688 28.414062 30.492188 C 28.214844 30.96875 28.042969 31.4375 28.042969 31.988281 C 28.042969 34.199219 29.804688 35.988281 31.992188 35.988281 C 34.175781 35.988281 35.9375 34.199219 35.9375 31.988281 C 35.9375 29.78125 34.175781 27.992188 31.992188 27.992188 Z M 11.886719 41.359375 C 10.964844 41.460938 10.722656 41.699219 10.285156 41.859375 L 9.421875 42.359375 L 6.214844 44.359375 C 4.363281 45.523438 3.796875 48.046875 4.980469 49.980469 C 6.164062 51.914062 8.679688 52.519531 10.53125 51.355469 L 13.738281 49.355469 L 14.847656 48.605469 C 15.382812 48.035156 15.882812 47.394531 16.078125 46.609375 C 16.152344 46.355469 16.203125 46.132812 16.203125 45.859375 C 16.203125 45.242188 16.074219 44.691406 15.832031 44.109375 C 15.628906 43.59375 15.328125 43.152344 14.96875 42.734375 C 14.585938 42.300781 14.128906 41.839844 13.613281 41.609375 C 13.097656 41.382812 12.488281 41.292969 11.886719 41.359375 Z M 52.21875 41.609375 C 49.902344 41.609375 48.023438 43.535156 48.023438 45.859375 C 48.023438 46.953125 48.328125 47.753906 49.011719 48.480469 L 50.246094 49.355469 L 53.449219 51.355469 C 55.300781 52.519531 57.816406 51.914062 59 49.980469 C 60.183594 48.046875 59.617188 45.523438 57.765625 44.359375 L 54.5625 42.359375 C 54.277344 42.191406 54.011719 42.007812 53.699219 41.859375 C 53.257812 41.699219 52.710938 41.609375 52.21875 41.609375 Z M 31.972656 52.003906 C 31.460938 52.003906 30.964844 52.070312 30.492188 52.253906 C 30.015625 52.441406 29.519531 52.800781 29.132812 53.128906 C 28.363281 53.792969 27.878906 54.621094 27.777344 55.628906 L 27.777344 60.003906 C 27.777344 62.207031 29.601562 64 31.847656 64 C 34.09375 64 35.917969 62.207031 35.917969 60.003906 L 35.917969 55.628906 C 35.710938 53.613281 34.011719 52.007812 31.972656 52.007812 Z M 31.972656 52.003906 "/>
</g>
</svg>
