<svg xmlns="http://www.w3.org/2000/svg" xmlns:xlink="http://www.w3.org/1999/xlink" width="64" height="64" viewBox="0 0 64 64" version="1.1">
<defs> <linearGradient id="linear0" gradientUnits="userSpaceOnUse" x1="0" y1="0" x2="0" y2="1" gradientTransform="matrix(55.992188,0,0,56,4.003906,4)"> <stop offset="0" style="stop-color:#ff6666;stop-opacity:1;"/> <stop offset="1" style="stop-color:#d90000;stop-opacity:1;"/> </linearGradient> </defs>
<g id="surface1">
<path style=" stroke:none;fill-rule:nonzero;fill:url(#linear0);fill-opacity:1;" d="M 11.304688 8.210938 L 32.054688 28.875 L 52.808594 8.210938 L 11.300781 8.210938 M 33.613281 9.957031 C 33.730469 9.957031 33.867188 9.953125 34.007812 9.957031 C 34.15625 9.964844 34.316406 9.949219 34.464844 9.957031 C 34.613281 9.964844 34.777344 9.992188 34.914062 10.011719 C 35.054688 10.027344 35.15625 10.03125 35.265625 10.054688 L 35.265625 12.203125 C 35.042969 12.152344 34.808594 12.128906 34.558594 12.101562 C 34.320312 12.070312 34.0625 12.058594 33.8125 12.058594 C 33.03125 12.058594 32.40625 12.109375 31.910156 12.304688 C 31.402344 12.492188 31 12.757812 30.703125 13.101562 C 30.410156 13.449219 30.226562 13.867188 30.101562 14.351562 C 29.976562 14.832031 29.882812 15.359375 29.851562 15.949219 L 29.949219 15.949219 C 30.070312 15.738281 30.1875 15.574219 30.351562 15.398438 C 30.515625 15.210938 30.734375 15.078125 30.953125 14.953125 C 31.171875 14.816406 31.429688 14.675781 31.703125 14.601562 C 31.980469 14.527344 32.265625 14.5 32.605469 14.5 C 33.15625 14.5 33.675781 14.574219 34.113281 14.75 C 34.550781 14.929688 34.914062 15.210938 35.214844 15.546875 C 35.519531 15.886719 35.753906 16.304688 35.917969 16.796875 C 36.078125 17.289062 36.167969 17.855469 36.167969 18.492188 C 36.167969 19.175781 36.058594 19.800781 35.867188 20.34375 C 35.671875 20.878906 35.371094 21.308594 35.015625 21.6875 C 34.65625 22.0625 34.21875 22.390625 33.707031 22.585938 C 33.203125 22.785156 32.640625 22.835938 32.003906 22.835938 C 31.378906 22.835938 30.796875 22.757812 30.25 22.535156 C 29.710938 22.316406 29.25 21.992188 28.847656 21.542969 C 28.449219 21.082031 28.125 20.484375 27.894531 19.792969 C 27.671875 19.097656 27.546875 18.296875 27.546875 17.34375 C 27.546875 16.746094 27.582031 16.144531 27.644531 15.546875 C 27.710938 14.953125 27.832031 14.347656 27.996094 13.800781 C 28.164062 13.25 28.410156 12.773438 28.699219 12.304688 C 28.988281 11.832031 29.359375 11.402344 29.800781 11.054688 C 30.25 10.707031 30.785156 10.449219 31.402344 10.257812 C 32.035156 10.054688 32.773438 9.957031 33.613281 9.957031 M 56.117188 11.40625 L 35.265625 32.171875 L 56.117188 52.941406 L 56.117188 11.40625 M 7.992188 11.457031 L 7.992188 52.894531 L 28.796875 32.171875 Z M 32.003906 16.546875 C 31.738281 16.546875 31.472656 16.597656 31.253906 16.699219 C 31.035156 16.800781 30.859375 16.933594 30.703125 17.097656 C 30.546875 17.265625 30.4375 17.441406 30.351562 17.648438 C 30.273438 17.855469 30.199219 18.085938 30.199219 18.296875 C 30.199219 18.589844 30.285156 18.898438 30.351562 19.195312 C 30.425781 19.484375 30.503906 19.707031 30.652344 19.945312 C 30.800781 20.171875 30.988281 20.398438 31.203125 20.539062 C 31.421875 20.6875 31.667969 20.742188 31.953125 20.742188 C 32.191406 20.742188 32.417969 20.679688 32.605469 20.589844 C 32.804688 20.5 32.96875 20.371094 33.105469 20.195312 C 33.253906 20.007812 33.386719 19.769531 33.457031 19.492188 C 33.539062 19.21875 33.5625 18.921875 33.5625 18.542969 C 33.5625 17.933594 33.417969 17.445312 33.15625 17.097656 C 32.902344 16.738281 32.53125 16.546875 32.003906 16.546875 Z M 15.261719 25.488281 C 15.863281 25.488281 16.386719 25.566406 16.863281 25.738281 C 17.347656 25.902344 17.777344 26.121094 18.121094 26.433594 C 18.460938 26.738281 18.691406 27.144531 18.871094 27.582031 C 19.058594 28.015625 19.171875 28.484375 19.171875 29.027344 C 19.171875 29.527344 19.097656 30.023438 18.921875 30.476562 C 18.75 30.921875 18.515625 31.34375 18.214844 31.777344 C 17.921875 32.207031 17.5625 32.644531 17.164062 33.074219 C 16.773438 33.496094 16.3125 33.933594 15.863281 34.375 L 14.359375 35.917969 L 14.359375 36.019531 L 19.523438 36.019531 L 19.523438 38.265625 L 11.050781 38.265625 L 11.050781 36.421875 L 14.007812 33.226562 C 14.382812 32.824219 14.707031 32.460938 15.007812 32.121094 C 15.3125 31.789062 15.59375 31.449219 15.8125 31.128906 C 16.03125 30.804688 16.195312 30.460938 16.3125 30.125 C 16.433594 29.792969 16.511719 29.414062 16.511719 29.027344 C 16.511719 28.605469 16.371094 28.316406 16.113281 28.078125 C 15.859375 27.847656 15.542969 27.734375 15.109375 27.734375 C 14.65625 27.734375 14.179688 27.808594 13.757812 28.035156 C 13.339844 28.253906 12.917969 28.566406 12.453125 28.976562 L 11 27.28125 C 11.257812 27.050781 11.519531 26.847656 11.804688 26.632812 C 12.082031 26.417969 12.414062 26.203125 12.753906 26.039062 C 13.09375 25.867188 13.445312 25.730469 13.855469 25.636719 C 14.269531 25.535156 14.753906 25.484375 15.261719 25.484375 M 45.539062 25.484375 L 52.257812 25.484375 L 52.257812 27.734375 L 47.894531 27.734375 L 47.695312 30.226562 C 47.882812 30.1875 48.054688 30.121094 48.296875 30.082031 C 48.546875 30.035156 48.867188 30.03125 49.253906 30.03125 C 49.792969 30.03125 50.335938 30.109375 50.800781 30.277344 C 51.273438 30.441406 51.660156 30.703125 52.007812 31.023438 C 52.351562 31.347656 52.613281 31.742188 52.808594 32.222656 C 53.003906 32.703125 53.109375 33.253906 53.109375 33.875 C 53.109375 34.554688 53.023438 35.175781 52.808594 35.71875 C 52.597656 36.261719 52.273438 36.738281 51.859375 37.117188 C 51.445312 37.488281 50.921875 37.765625 50.300781 37.964844 C 49.6875 38.167969 48.996094 38.265625 48.195312 38.265625 C 47.878906 38.265625 47.554688 38.246094 47.246094 38.21875 C 46.933594 38.183594 46.632812 38.121094 46.34375 38.066406 C 46.058594 38.015625 45.800781 37.953125 45.539062 37.867188 C 45.289062 37.785156 45.042969 37.679688 44.839844 37.570312 L 44.839844 35.273438 C 45.039062 35.386719 45.277344 35.515625 45.539062 35.625 C 45.804688 35.71875 46.058594 35.796875 46.34375 35.871094 C 46.632812 35.941406 46.957031 35.972656 47.246094 36.019531 C 47.53125 36.058594 47.785156 36.121094 48.046875 36.121094 C 48.820312 36.121094 49.398438 35.933594 49.804688 35.625 C 50.207031 35.300781 50.40625 34.820312 50.40625 34.125 C 50.40625 33.503906 50.199219 33 49.804688 32.675781 C 49.410156 32.347656 48.820312 32.171875 47.996094 32.171875 C 47.847656 32.171875 47.667969 32.207031 47.496094 32.222656 C 47.328125 32.242188 47.164062 32.246094 46.992188 32.273438 C 46.832031 32.304688 46.691406 32.34375 46.542969 32.375 C 46.394531 32.40625 46.253906 32.4375 46.140625 32.472656 L 45.089844 31.925781 L 45.539062 25.488281 M 32.054688 35.417969 L 11.253906 56.140625 L 52.859375 56.140625 Z M 27.496094 41.808594 L 36.21875 41.808594 L 36.21875 43.457031 L 31.605469 54.394531 L 28.796875 54.394531 L 33.3125 44.003906 L 27.496094 44.003906 Z M 27.496094 41.808594 "/>
</g>
</svg>
