<svg xmlns="http://www.w3.org/2000/svg" xmlns:xlink="http://www.w3.org/1999/xlink" width="64" height="64" viewBox="0 0 64 64" version="1.1">
<defs>
<linearGradient id="linear0" gradientUnits="userSpaceOnUse" x1="0" y1="0" x2="0" y2="1" gradientTransform="matrix(64,0,0,63.75,0,0.125)">
<stop offset="0" style="stop-color:#ff6666;stop-opacity:1;"/>
<stop offset="1" style="stop-color:#d90000;stop-opacity:1;"/>
</linearGradient>
</defs>
<g id="surface1">
<path style=" stroke:none;fill-rule:nonzero;fill:url(#linear0);" d="M 7.875 0.125 C 3.519531 0.125 0 3.640625 0 8 L 0 56 C 0 60.359375 3.519531 63.875 7.875 63.875 L 56.125 63.875 C 60.480469 63.875 64 60.359375 64 56 L 64 8 C 64 3.640625 60.480469 0.125 56.125 0.125 Z M 7.875 4.125 L 56.125 4.125 C 58.335938 4.125 60 5.789062 60 8 L 60 52.125 C 60 54.335938 58.335938 56 56.125 56 L 7.875 56 C 5.664062 56 4 54.335938 4 52.125 L 4 8 C 4 5.589844 5.417969 4.125 7.875 4.125 Z M 8 8 L 8 12 L 12 12 L 12 8 Z M 16 8 L 16 12 L 20 12 L 20 8 Z M 28 8 L 28 12 L 32 12 L 32 8 Z M 36 8 L 36 12 L 40 12 L 40 8 Z M 44 8 L 44 12 L 48 12 L 48 8 Z M 52 8 L 52 12 L 56 12 L 56 8 Z M 8 16 L 8 20 L 12 20 L 12 16 Z M 16 16 L 16 20 L 20 20 L 20 16 Z M 28 16 L 28 20 L 32 20 L 32 16 Z M 36 16 L 36 20 L 40 20 L 40 16 Z M 44 16 L 44 20 L 48 20 L 48 16 Z M 52 16 L 52 20 L 56 20 L 56 16 Z M 44 24 L 44 28 L 40 28 C 37.820312 28 36 29.820312 36 32 L 36 36 C 36 38.179688 37.820312 40 40 40 L 52 40 C 54.183594 40 56 38.179688 56 36 L 56 32 C 56 29.820312 54.183594 28 52 28 L 48 28 L 48 24 Z M 20 28 C 13.398438 28 8 33.394531 8 40 C 8 46.601562 13.398438 52 20 52 C 26.605469 52 32 46.601562 32 40 C 32 33.394531 26.605469 28 20 28 Z M 20 32 C 24.441406 32 28 35.558594 28 40 C 28 44.441406 24.441406 48 20 48 C 15.558594 48 12 44.441406 12 40 C 12 35.558594 15.558594 32 20 32 Z M 40 32 L 52 32 L 52 36 L 40 36 Z M 44 44 L 44 52 L 48 52 L 48 44 Z M 44 44 "/>
</g>
</svg>
