<svg xmlns="http://www.w3.org/2000/svg" xmlns:xlink="http://www.w3.org/1999/xlink" width="64" height="64" viewBox="0 0 64 64" version="1.1">
<defs>
<linearGradient id="linear0" gradientUnits="userSpaceOnUse" x1="0" y1="0" x2="0" y2="1" gradientTransform="matrix(49.226562,0,0,64,7.386719,0)">
<stop offset="0" style="stop-color:#ff6666;stop-opacity:1;"/>
<stop offset="1" style="stop-color:#d90000;stop-opacity:1;"/>
</linearGradient>
</defs>
<g id="surface1">
<path style=" stroke:none;fill-rule:nonzero;fill:url(#linear0);" d="M 51.457031 0 C 38.957031 0 36.613281 18.992188 43.644531 18.992188 C 50.675781 18.992188 63.960938 0 51.457031 0 Z M 32.207031 2.917969 C 32.011719 2.917969 31.796875 2.917969 31.574219 2.964844 C 24.492188 3.859375 26.980469 15.847656 30.753906 16.070312 C 34.40625 16.289062 38.394531 2.949219 32.199219 2.929688 Z M 19.921875 7.347656 C 19.488281 7.300781 19.011719 7.40625 18.476562 7.625 C 12.78125 9.960938 17.609375 19.613281 20.796875 18.964844 C 23.691406 18.375 24.105469 7.621094 19.921875 7.347656 Z M 10.628906 15.242188 C 10.132812 15.242188 9.601562 15.394531 9.03125 15.820312 C 4.472656 19.222656 10.5625 27.445312 13.242188 26.167969 C 15.589844 25.054688 14.09375 15.367188 10.628906 15.242188 Z M 37.546875 23.082031 C 27.671875 22.910156 14.644531 27.921875 12.421875 37.992188 C 10.015625 48.882812 22.328125 64 35.171875 64 C 41.492188 64 48.78125 58.222656 50.144531 50.910156 C 51.1875 45.335938 37.882812 47.570312 38.359375 51.257812 C 38.933594 55.683594 35.160156 57.867188 31.457031 55.019531 C 19.675781 45.941406 50.96875 41.410156 48.90625 29.007812 C 48.261719 25.148438 43.472656 23.183594 37.546875 23.082031 Z M 37.546875 23.082031 "/>
</g>
</svg>
