<svg xmlns="http://www.w3.org/2000/svg" xmlns:xlink="http://www.w3.org/1999/xlink" width="64" height="64" viewBox="0 0 64 64" version="1.1">
<defs> <linearGradient id="linear0" gradientUnits="userSpaceOnUse" x1="0" y1="0" x2="0" y2="1" gradientTransform="matrix(55.992188,0,0,56,4.003906,4)"> <stop offset="0" style="stop-color:#ff6666;stop-opacity:1;"/> <stop offset="1" style="stop-color:#d90000;stop-opacity:1;"/> </linearGradient> </defs>
<g id="surface1">
<path style=" stroke:none;fill-rule:nonzero;fill:url(#linear0);fill-opacity:1;" d="M 6.144531 11.519531 L 6.144531 15.425781 L 59.941406 15.425781 L 59.941406 11.519531 Z M 21.355469 20.800781 L 21.355469 35.746094 L 36.367188 35.746094 C 36.367188 27.496094 29.652344 20.800781 21.355469 20.800781 M 41.515625 20.855469 L 41.515625 24.765625 L 59.941406 24.765625 L 59.941406 20.855469 L 41.523438 20.855469 M 19.183594 22.933594 C 10.894531 22.933594 4.179688 29.617188 4.179688 37.878906 C 4.179688 46.136719 10.890625 52.828125 19.183594 52.828125 C 27.472656 52.828125 34.203125 46.140625 34.203125 37.878906 L 19.1875 37.878906 L 19.1875 22.933594 M 41.523438 30.195312 L 41.523438 34.101562 L 59.945312 34.101562 L 59.945312 30.195312 L 41.523438 30.195312 M 41.523438 39.53125 L 41.523438 43.433594 L 59.945312 43.433594 L 59.945312 39.53125 L 41.527344 39.53125 M 41.527344 48.863281 L 41.527344 52.769531 L 59.953125 52.769531 L 59.953125 48.863281 L 41.527344 48.863281 "/>
</g>
</svg>
