<svg xmlns="http://www.w3.org/2000/svg" xmlns:xlink="http://www.w3.org/1999/xlink" width="64" height="64" viewBox="0 0 64 64" version="1.1">
<defs>
<linearGradient id="linear0" gradientUnits="userSpaceOnUse" x1="0" y1="0" x2="0" y2="1" gradientTransform="matrix(74.65625,0,0,74.666667,5.338541,5.333333)">
<stop offset="0" style="stop-color:#ff6666;stop-opacity:1;"/>
<stop offset="1" style="stop-color:#d90000;stop-opacity:1;"/>
</linearGradient>
</defs>
<g id="surface1">
<path style=" stroke:none;fill-rule:nonzero;fill:url(#linear0);" d="M 32 7.367188 C 23.414062 7.367188 16.390625 9.707031 10.433594 13.417969 C 10.398438 13.4375 10.367188 13.460938 10.332031 13.480469 C 6.839844 15.925781 4.6875 18.28125 3.902344 21.023438 C 3.113281 23.765625 3.964844 26.457031 5.363281 28.835938 C 5.953125 29.84375 7.003906 30.40625 7.902344 30.613281 C 8.804688 30.820312 9.65625 30.785156 10.519531 30.667969 C 12.242188 30.425781 14.035156 29.796875 15.761719 28.996094 C 17.488281 28.195312 19.109375 27.234375 20.394531 26.175781 C 21.039062 25.644531 21.601562 25.101562 22.066406 24.410156 C 22.527344 23.722656 23 22.71875 22.675781 21.480469 C 22.667969 21.449219 22.660156 21.421875 22.652344 21.394531 C 22.429688 20.675781 22.074219 20.082031 21.691406 19.496094 C 24.960938 17.886719 28.882812 16.8125 32 16.8125 C 35.117188 16.8125 39.039062 17.886719 42.308594 19.496094 C 41.925781 20.082031 41.570312 20.675781 41.351562 21.394531 C 41.34375 21.421875 41.332031 21.449219 41.324219 21.480469 C 41 22.71875 41.476562 23.722656 41.9375 24.410156 C 42.398438 25.101562 42.960938 25.644531 43.605469 26.175781 C 44.886719 27.234375 46.515625 28.195312 48.242188 28.996094 C 49.96875 29.796875 51.761719 30.425781 53.484375 30.667969 C 54.34375 30.785156 55.195312 30.820312 56.097656 30.613281 C 56.996094 30.40625 58.046875 29.84375 58.640625 28.835938 C 60.039062 26.457031 60.886719 23.765625 60.097656 21.023438 C 59.3125 18.28125 57.164062 15.925781 53.667969 13.480469 C 53.636719 13.460938 53.601562 13.4375 53.566406 13.417969 C 47.609375 9.707031 40.585938 7.367188 32 7.367188 Z M 32 11.898438 C 39.746094 11.898438 45.777344 13.925781 51.101562 17.226562 C 54.136719 19.359375 55.390625 21.050781 55.742188 22.273438 C 56.070312 23.410156 55.78125 24.566406 54.886719 26.191406 C 54.726562 26.207031 54.511719 26.234375 54.105469 26.175781 C 53.089844 26.035156 51.578125 25.546875 50.148438 24.886719 C 48.71875 24.222656 47.335938 23.375 46.488281 22.675781 C 46.25 22.480469 46.183594 22.382812 46.046875 22.234375 C 46.292969 21.667969 46.464844 21.316406 47.511719 20.265625 C 47.980469 19.789062 48.21875 19.132812 48.160156 18.464844 C 48.101562 17.800781 47.75 17.191406 47.199219 16.808594 C 42.695312 13.660156 36.78125 12.277344 32 12.277344 C 27.21875 12.277344 21.304688 13.660156 16.800781 16.808594 C 16.25 17.191406 15.898438 17.800781 15.839844 18.464844 C 15.78125 19.132812 16.019531 19.789062 16.488281 20.265625 C 17.53125 21.316406 17.707031 21.667969 17.953125 22.234375 C 17.816406 22.382812 17.75 22.480469 17.511719 22.675781 C 16.660156 23.375 15.285156 24.222656 13.855469 24.886719 C 12.425781 25.546875 10.90625 26.035156 9.894531 26.175781 C 9.488281 26.234375 9.277344 26.207031 9.117188 26.191406 C 8.21875 24.566406 7.933594 23.410156 8.261719 22.273438 C 8.609375 21.050781 9.859375 19.359375 12.894531 17.230469 C 18.21875 13.925781 24.25 11.898438 32 11.898438 Z M 32.355469 25.316406 C 28.164062 25.207031 24.03125 27.316406 21.78125 31.171875 C 18.621094 36.582031 20.367188 43.46875 25.519531 46.902344 C 25.652344 47.058594 25.804688 47.199219 25.976562 47.316406 C 25.984375 47.320312 25.992188 47.328125 26 47.332031 C 26.023438 47.347656 26.050781 47.363281 26.074219 47.378906 C 26.097656 47.390625 26.121094 47.40625 26.144531 47.417969 C 26.15625 47.425781 26.171875 47.421875 26.183594 47.429688 C 26.367188 47.519531 26.558594 47.582031 26.761719 47.621094 C 32.304688 50.378906 39.144531 48.460938 42.261719 43.027344 C 45.496094 37.398438 43.546875 30.148438 37.929688 26.894531 C 36.175781 25.878906 34.257812 25.367188 32.355469 25.316406 Z M 31.523438 30.105469 C 32.871094 30.019531 34.257812 30.320312 35.527344 31.050781 C 38.902344 33.007812 40.042969 37.257812 38.097656 40.640625 C 36.15625 44.023438 31.910156 45.179688 28.519531 43.246094 C 28.503906 43.238281 28.488281 43.230469 28.472656 43.222656 C 28.460938 43.214844 28.449219 43.207031 28.433594 43.199219 C 25.070312 41.21875 23.960938 36.960938 25.925781 33.589844 C 27.15625 31.484375 29.28125 30.253906 31.523438 30.105469 Z M 15.800781 31.507812 C 15.746094 31.507812 15.695312 31.507812 15.644531 31.511719 C 15.085938 31.535156 14.550781 31.742188 14.121094 32.101562 C 12.476562 33.480469 10.167969 35.757812 8.167969 38.582031 C 6.164062 41.402344 4.394531 44.773438 4.394531 48.511719 C 4.394531 51.023438 5.375 53.328125 7.113281 54.734375 C 8.851562 56.140625 11.054688 56.632812 13.328125 56.632812 L 51.488281 56.632812 C 53.816406 56.632812 55.96875 55.808594 57.433594 54.285156 C 58.902344 52.765625 59.605469 50.671875 59.605469 48.511719 C 59.605469 44.746094 57.933594 41.304688 55.976562 38.449219 C 54.019531 35.597656 51.765625 33.34375 49.933594 32 C 48.804688 31.171875 47.21875 31.414062 46.394531 32.542969 C 45.566406 33.671875 45.808594 35.253906 46.933594 36.082031 C 48.121094 36.957031 50.1875 38.972656 51.796875 41.316406 C 53.40625 43.664062 54.542969 46.347656 54.542969 48.511719 C 54.542969 49.613281 54.226562 50.3125 53.785156 50.769531 C 53.34375 51.226562 52.703125 51.566406 51.488281 51.566406 L 13.328125 51.566406 C 11.8125 51.566406 10.8125 51.210938 10.300781 50.792969 C 9.785156 50.378906 9.460938 49.890625 9.460938 48.511719 C 9.460938 46.496094 10.625 43.871094 12.296875 41.515625 C 13.96875 39.160156 16.074219 37.082031 17.382812 35.980469 C 18.453125 35.082031 18.589844 33.484375 17.691406 32.414062 C 17.222656 31.851562 16.53125 31.523438 15.800781 31.507812 Z M 15.800781 31.507812 "/>
</g>
</svg>
