<svg xmlns="http://www.w3.org/2000/svg" xmlns:xlink="http://www.w3.org/1999/xlink" width="64" height="64" viewBox="0 0 64 64" version="1.1">
<defs>
<linearGradient id="linear0" gradientUnits="userSpaceOnUse" x1="0" y1="0" x2="0" y2="1" gradientTransform="matrix(64,0,0,64,0,0)">
<stop offset="0" style="stop-color:#ff6666;stop-opacity:1;"/>
<stop offset="1" style="stop-color:#d90000;stop-opacity:1;"/>
</linearGradient>
</defs>
<g id="surface1">
<path style=" stroke:none;fill-rule:nonzero;fill:url(#linear0);" d="M 5.144531 63.785156 C 3.898438 63.4375 3.074219 62.9375 2.0625 61.929688 C 0.644531 60.507812 0 58.996094 0 57.085938 C 0 54.703125 1.523438 52.210938 3.65625 51.109375 L 4.570312 50.636719 L 4.570312 13.332031 L 3.820312 12.996094 C 2.824219 12.550781 1.175781 10.898438 0.691406 9.855469 C -1.160156 5.886719 0.988281 1.320312 5.222656 0.214844 C 8.171875 -0.550781 11.476562 0.929688 12.886719 3.652344 L 13.359375 4.566406 L 50.648438 4.566406 L 51.121094 3.652344 C 51.972656 2.007812 53.648438 0.703125 55.535156 0.210938 C 60.402344 -1.058594 65.058594 3.613281 63.789062 8.492188 C 63.300781 10.367188 61.761719 12.285156 60.152344 13.023438 L 59.433594 13.351562 L 59.4375 31.992188 L 59.4375 50.636719 L 60.351562 51.109375 C 60.886719 51.382812 61.589844 51.921875 62.046875 52.402344 C 64.742188 55.226562 64.628906 59.460938 61.789062 62.117188 C 59.632812 64.132812 56.824219 64.550781 54.078125 63.269531 C 53.128906 62.824219 51.441406 61.132812 50.996094 60.175781 L 50.648438 59.433594 L 13.359375 59.433594 L 13.011719 60.175781 C 12.578125 61.109375 10.886719 62.824219 9.964844 63.265625 C 8.476562 63.976562 6.558594 64.183594 5.144531 63.785156 Z M 51.078125 53.984375 L 51.492188 53.125 L 48.640625 50.277344 L 45.789062 47.433594 L 44.933594 47.730469 C 43.878906 48.089844 42.539062 48.035156 41.53125 47.589844 C 41.152344 47.425781 40.5 46.933594 40.074219 46.496094 L 39.300781 45.707031 L 24.703125 45.707031 L 23.933594 46.496094 C 23.507812 46.933594 22.851562 47.425781 22.476562 47.589844 C 21.46875 48.035156 20.128906 48.089844 19.074219 47.730469 L 18.214844 47.433594 L 15.367188 50.277344 L 12.515625 53.125 L 12.925781 53.984375 L 13.339844 54.847656 L 50.667969 54.847656 Z M 16.265625 44.921875 C 15.664062 43.167969 16.121094 41.410156 17.53125 40.046875 L 18.289062 39.316406 L 18.289062 24.671875 L 17.53125 23.941406 C 16.121094 22.582031 15.664062 20.820312 16.265625 19.066406 L 16.558594 18.210938 L 13.722656 15.367188 L 10.882812 12.519531 L 10.015625 12.9375 L 9.148438 13.351562 L 9.144531 31.996094 L 9.144531 50.636719 L 10.785156 51.511719 L 16.558594 45.777344 Z M 54.863281 31.988281 L 54.863281 13.34375 L 53.996094 12.929688 L 53.125 12.519531 L 50.285156 15.363281 L 47.445312 18.210938 L 47.742188 19.066406 C 48.34375 20.820312 47.886719 22.582031 46.476562 23.941406 L 45.71875 24.671875 L 45.71875 39.316406 L 46.476562 40.046875 C 47.886719 41.40625 48.34375 43.167969 47.742188 44.921875 L 47.449219 45.777344 L 50.308594 48.648438 L 53.171875 51.515625 L 54.015625 51.074219 L 54.859375 50.636719 Z M 39.761719 40.71875 C 39.898438 40.488281 40.265625 40.097656 40.578125 39.847656 L 41.148438 39.398438 L 41.148438 24.691406 L 40.214844 23.773438 L 39.28125 22.851562 L 24.726562 22.851562 L 23.792969 23.773438 L 22.859375 24.691406 L 22.859375 39.398438 L 23.429688 39.847656 C 23.742188 40.097656 24.109375 40.488281 24.246094 40.71875 L 24.492188 41.136719 L 39.515625 41.136719 Z M 39.820312 17.789062 C 40.457031 16.804688 42.089844 15.996094 43.441406 15.996094 C 43.832031 15.996094 44.523438 16.125 44.96875 16.28125 L 45.785156 16.570312 L 48.667969 13.691406 L 51.546875 10.816406 L 51.132812 10.164062 C 50.90625 9.804688 50.71875 9.429688 50.71875 9.328125 C 50.71875 9.171875 47.296875 9.140625 32.003906 9.140625 C 16.710938 9.140625 13.289062 9.175781 13.289062 9.328125 C 13.289062 9.429688 13.101562 9.804688 12.875 10.164062 L 12.460938 10.816406 L 15.339844 13.691406 L 18.222656 16.570312 L 19.035156 16.28125 C 19.484375 16.125 20.171875 15.996094 20.566406 15.996094 C 21.914062 15.996094 23.546875 16.804688 24.1875 17.789062 L 24.503906 18.277344 L 39.503906 18.277344 Z M 39.820312 17.789062 "/>
</g>
</svg>
