<svg xmlns="http://www.w3.org/2000/svg" xmlns:xlink="http://www.w3.org/1999/xlink" width="64px" height="64px" viewBox="0 0 64 64" version="1.1">
<defs>
<linearGradient id="linear0" gradientUnits="userSpaceOnUse" x1="0" y1="128" x2="128" y2="0" gradientTransform="matrix(0.432432,0,0,0.432432,4.324324,4.324324)">
<stop offset="0" style="stop-color:#ff6666;stop-opacity:1;"/>
<stop offset="1" style="stop-color:#d90000;stop-opacity:1;"/>
</linearGradient>
</defs>
<g id="surface1">
<path style=" stroke:none;fill-rule:nonzero;fill:url(#linear0);" d="M 33.554688 15.539062 L 14.664062 41.242188 C 12.917969 43.609375 11.601562 45.164062 10.714844 45.890625 C 9.84375 46.609375 8.839844 46.980469 7.6875 47.027344 L 7.433594 47.890625 L 16.785156 47.890625 L 17.039062 47.027344 C 16.109375 46.996094 15.433594 46.804688 15.027344 46.445312 C 14.621094 46.085938 14.417969 45.660156 14.417969 45.164062 C 14.417969 44.789062 14.515625 44.390625 14.703125 43.972656 C 14.886719 43.539062 15.351562 42.832031 16.082031 41.851562 L 19.296875 37.488281 L 28.351562 37.488281 L 27.972656 41.5 C 27.816406 43.289062 27.660156 44.421875 27.488281 44.90625 C 27.238281 45.589844 26.882812 46.085938 26.433594 46.378906 C 25.792969 46.8125 24.96875 47.027344 23.960938 47.027344 L 23.433594 47.027344 L 23.175781 47.890625 L 35.621094 47.890625 L 35.878906 47.027344 C 34.683594 47.027344 33.835938 46.917969 33.324219 46.703125 C 32.828125 46.488281 32.429688 46.152344 32.136719 45.703125 C 31.902344 45.375 31.785156 44.90625 31.785156 44.285156 C 31.785156 43.894531 31.835938 43.082031 31.960938 41.851562 L 34.363281 15.539062 Z M 29.742188 23.3125 L 28.539062 35.785156 L 20.582031 35.785156 Z M 48.214844 26.785156 C 46.632812 26.785156 44.949219 27.4375 43.164062 28.742188 C 40.875 30.390625 38.980469 32.597656 37.488281 35.351562 C 36.011719 38.085938 35.269531 40.6875 35.269531 43.164062 C 35.269531 44.8125 35.6875 46.105469 36.511719 47.054688 C 37.335938 47.988281 38.3125 48.460938 39.445312 48.460938 C 40.628906 48.460938 41.835938 48.074219 43.066406 47.3125 C 44.777344 46.253906 46.652344 44.402344 48.6875 41.742188 L 48.203125 43.488281 C 47.863281 44.730469 47.6875 45.738281 47.6875 46.5 C 47.6875 47.136719 47.847656 47.617188 48.175781 47.945312 C 48.515625 48.289062 49.019531 48.460938 49.6875 48.460938 C 50.652344 48.460938 51.703125 48.042969 52.835938 47.203125 C 53.972656 46.347656 55.074219 45.105469 56.148438 43.488281 L 55.363281 42.933594 C 54.355469 44.347656 53.539062 45.28125 52.933594 45.730469 C 52.605469 45.980469 52.335938 46.09375 52.136719 46.09375 C 51.949219 46.09375 51.800781 46.03125 51.675781 45.890625 C 51.519531 45.707031 51.445312 45.492188 51.445312 45.242188 C 51.445312 45.105469 51.464844 44.933594 51.511719 44.730469 L 52.027344 42.59375 L 56.566406 26.785156 L 52.863281 27.351562 L 52.027344 30 C 51.699219 28.847656 51.21875 28.023438 50.582031 27.527344 C 49.960938 27.03125 49.164062 26.785156 48.214844 26.785156 Z M 48.269531 28 C 49.15625 28 49.851562 28.300781 50.363281 28.890625 C 50.878906 29.484375 51.136719 30.4375 51.136719 31.757812 C 51.136719 35.257812 49.808594 38.671875 47.148438 42 C 45.160156 44.503906 43.316406 45.742188 41.621094 45.742188 C 40.9375 45.742188 40.324219 45.445312 39.796875 44.835938 C 39.269531 44.214844 39.011719 43.382812 39.011719 42.324219 C 39.011719 40.226562 39.621094 37.882812 40.851562 35.285156 C 42.09375 32.6875 43.511719 30.726562 45.09375 29.40625 C 46.210938 28.472656 47.273438 28 48.269531 28 Z M 48.269531 28 "/>
</g>
</svg>
