<svg xmlns="http://www.w3.org/2000/svg" xmlns:xlink="http://www.w3.org/1999/xlink" width="64" height="64" viewBox="0 0 64 64" version="1.1">
<defs>
<linearGradient id="linear0" gradientUnits="userSpaceOnUse" x1="0" y1="0" x2="0" y2="1" gradientTransform="matrix(74.65625,0,0,74.666667,5.338541,5.333333)">
<stop offset="0" style="stop-color:#ff6666;stop-opacity:1;"/>
<stop offset="1" style="stop-color:#d90000;stop-opacity:1;"/>
</linearGradient>
</defs>
<g id="surface1">
<path style=" stroke:none;fill-rule:nonzero;fill:url(#linear0);" d="M 32 2.597656 C 25.042969 2.597656 18.800781 8.003906 18.800781 15.589844 L 18.800781 27.921875 C 18.800781 35.636719 25.375 41.042969 32 41.042969 C 38.542969 41.042969 45.144531 35.832031 45.199219 27.941406 L 45.199219 15.589844 C 45.199219 7.617188 38.523438 2.597656 32 2.597656 Z M 32 7.667969 C 36.0625 7.667969 40.132812 10.371094 40.132812 15.589844 L 40.132812 27.902344 C 40.097656 33 35.894531 35.976562 32 35.976562 C 28.1875 35.976562 23.867188 32.6875 23.867188 27.921875 L 23.867188 15.589844 C 23.867188 10.683594 27.535156 7.667969 32 7.667969 Z M 12.679688 26.792969 C 11.28125 26.792969 10.144531 27.929688 10.144531 29.328125 C 10.144531 39.964844 18.566406 48.226562 29.457031 49.386719 L 29.457031 53.308594 C 29.457031 54.707031 29.132812 55.3125 28.769531 55.667969 C 28.402344 56.019531 27.75 56.332031 26.40625 56.332031 L 21.097656 56.332031 C 19.695312 56.332031 18.5625 57.46875 18.5625 58.867188 C 18.5625 60.265625 19.695312 61.402344 21.097656 61.402344 L 26.40625 61.402344 C 28.621094 61.402344 30.761719 60.796875 32.300781 59.300781 C 33.839844 57.804688 34.527344 55.628906 34.527344 53.308594 L 34.527344 47.085938 C 34.527344 45.6875 33.394531 44.554688 31.996094 44.550781 C 22.257812 44.539062 15.214844 37.964844 15.214844 29.328125 C 15.214844 27.929688 14.078125 26.792969 12.679688 26.792969 Z M 51.320312 26.792969 C 49.921875 26.792969 48.785156 27.929688 48.785156 29.328125 C 48.785156 33.460938 47.261719 37.359375 44.402344 40.019531 C 41.578125 42.644531 40.039062 43.140625 38.136719 43.941406 C 36.847656 44.488281 36.246094 45.972656 36.789062 47.261719 C 37.332031 48.546875 38.816406 49.152344 40.105469 48.609375 C 41.828125 47.882812 44.515625 46.835938 47.855469 43.730469 C 51.855469 40.007812 53.855469 34.710938 53.855469 29.328125 C 53.855469 27.929688 52.71875 26.792969 51.320312 26.792969 Z M 37.996094 56.3125 C 36.597656 56.3125 35.464844 57.449219 35.464844 58.847656 C 35.464844 60.246094 36.597656 61.378906 37.996094 61.378906 L 42.964844 61.378906 C 44.367188 61.378906 45.5 60.246094 45.5 58.847656 C 45.5 57.445312 44.367188 56.3125 42.964844 56.3125 Z M 37.996094 56.3125 "/>
</g>
</svg>
