<svg xmlns="http://www.w3.org/2000/svg" xmlns:xlink="http://www.w3.org/1999/xlink" width="64" height="64" viewBox="0 0 64 64" version="1.1">
<defs>
<linearGradient id="linear0" gradientUnits="userSpaceOnUse" x1="0" y1="0" x2="0" y2="1" gradientTransform="matrix(74.65625,0,0,74.666667,5.338541,5.333333)">
<stop offset="0" style="stop-color:#ff6666;stop-opacity:1;"/>
<stop offset="1" style="stop-color:#d90000;stop-opacity:1;"/>
</linearGradient>
</defs>
<g id="surface1">
<path style=" stroke:none;fill-rule:nonzero;fill:url(#linear0);" d="M 51.386719 1.046875 C 51.027344 1.058594 50.675781 1.089844 50.332031 1.132812 C 43.695312 1.40625 38.984375 7.421875 38.546875 13.617188 C 38.40625 14.984375 38.609375 16.222656 39.027344 17.113281 C 39.5625 18.246094 40.910156 18.730469 42.042969 18.199219 C 43.175781 17.664062 43.664062 16.3125 43.128906 15.179688 C 43.019531 14.953125 42.960938 14.890625 43.050781 14.070312 C 43.054688 14.035156 43.054688 14.003906 43.058594 13.972656 C 43.324219 9.917969 46.703125 5.78125 50.550781 5.644531 C 50.621094 5.640625 50.695312 5.636719 50.765625 5.625 C 51.546875 5.523438 52.589844 5.625 53.140625 5.863281 C 53.652344 6.085938 53.6875 6.125 53.71875 6.597656 C 53.394531 9.757812 51.085938 12.761719 48.378906 15.257812 C 46.707031 16.636719 46.585938 16.894531 44.320312 17.773438 C 43.152344 18.222656 42.570312 19.535156 43.023438 20.703125 C 43.476562 21.871094 44.785156 22.453125 45.953125 22 C 48.613281 20.972656 49.644531 20.085938 51.34375 18.691406 C 51.378906 18.664062 51.410156 18.636719 51.441406 18.605469 C 54.5625 15.730469 57.914062 11.832031 58.289062 6.71875 C 58.296875 6.628906 58.296875 6.535156 58.292969 6.445312 C 58.1875 4.1875 56.578125 2.410156 54.941406 1.703125 C 54.121094 1.347656 53.292969 1.15625 52.488281 1.078125 C 52.113281 1.042969 51.746094 1.035156 51.386719 1.046875 Z M 32.667969 4.207031 C 30.730469 4.183594 28.984375 5.132812 27.855469 6.421875 C 26.5625 7.894531 25.863281 9.804688 25.949219 11.804688 C 25.949219 11.808594 25.949219 11.8125 25.949219 11.816406 C 26.074219 14.398438 26.285156 15.742188 26.558594 17.109375 C 26.800781 18.335938 27.996094 19.132812 29.222656 18.890625 C 30.03125 18.726562 30.6875 18.140625 30.9375 17.355469 C 30.828125 18.210938 31.210938 19.050781 31.925781 19.53125 C 32.96875 20.222656 34.375 19.945312 35.070312 18.902344 C 36.253906 17.128906 36.960938 15.703125 37.582031 13.273438 C 37.589844 13.25 37.59375 13.230469 37.597656 13.210938 C 37.902344 11.875 38.089844 10.214844 37.699219 8.46875 C 37.304688 6.726562 35.835938 4.652344 33.507812 4.28125 C 33.507812 4.28125 33.507812 4.28125 33.503906 4.28125 C 33.222656 4.234375 32.945312 4.210938 32.667969 4.207031 Z M 20.269531 8.296875 C 19.679688 8.277344 19.097656 8.375 18.589844 8.566406 C 17.570312 8.953125 16.8125 9.625 16.230469 10.371094 C 15.070312 11.863281 14.449219 13.722656 14.785156 15.722656 C 14.785156 15.734375 14.789062 15.742188 14.789062 15.753906 C 15.273438 18.414062 16.425781 20.808594 18.742188 22.460938 C 19.761719 23.191406 21.175781 22.953125 21.902344 21.9375 C 22.441406 21.179688 22.46875 20.175781 21.964844 19.394531 C 22.324219 19.792969 22.808594 20.050781 23.335938 20.125 C 24.574219 20.300781 25.722656 19.4375 25.894531 18.195312 C 26.109375 16.679688 26.160156 14.96875 25.667969 13.25 C 25.179688 11.53125 24.019531 9.78125 22.125 8.757812 C 22.085938 8.738281 22.050781 8.71875 22.011719 8.703125 C 21.460938 8.445312 20.859375 8.3125 20.269531 8.296875 Z M 32.363281 8.738281 C 32.496094 8.726562 32.640625 8.730469 32.792969 8.757812 C 33.226562 8.824219 33.117188 8.765625 33.277344 9.46875 C 33.433594 10.164062 33.359375 11.359375 33.175781 12.183594 C 32.640625 14.277344 32.375 14.777344 31.300781 16.386719 C 31.183594 16.558594 31.09375 16.746094 31.027344 16.941406 C 31.058594 16.703125 31.050781 16.460938 31.003906 16.226562 C 30.75 14.953125 30.597656 14.023438 30.480469 11.609375 L 30.480469 11.605469 C 30.449219 10.871094 30.777344 9.960938 31.261719 9.410156 C 31.628906 8.996094 31.957031 8.777344 32.363281 8.738281 Z M 20.089844 12.898438 C 20.730469 13.296875 21.09375 13.734375 21.308594 14.492188 C 21.546875 15.320312 21.5625 16.457031 21.40625 17.566406 C 21.332031 18.101562 21.449219 18.644531 21.738281 19.097656 C 21.632812 18.976562 21.511719 18.867188 21.378906 18.773438 C 19.960938 17.757812 19.640625 17.054688 19.257812 14.964844 C 19.199219 14.605469 19.4375 13.636719 19.808594 13.15625 C 19.945312 12.980469 20.019531 12.945312 20.089844 12.898438 Z M 11.132812 15.695312 C 10.917969 15.683594 10.703125 15.683594 10.488281 15.703125 C 9.640625 15.769531 8.839844 16.074219 8.230469 16.476562 C 7.007812 17.285156 6.113281 18.441406 5.816406 19.992188 C 5.8125 20.027344 5.808594 20.0625 5.800781 20.097656 C 5.316406 23.507812 6.652344 27.160156 9.898438 28.828125 C 11.011719 29.398438 12.375 28.957031 12.949219 27.84375 C 13.519531 26.730469 13.082031 25.363281 11.964844 24.792969 C 10.59375 24.089844 10.039062 22.75 10.292969 20.8125 C 10.316406 20.761719 10.5 20.496094 10.675781 20.328125 C 11.628906 21.152344 11.929688 22.039062 11.980469 23.507812 C 12.023438 24.761719 13.070312 25.738281 14.324219 25.695312 C 15.574219 25.652344 16.554688 24.601562 16.507812 23.351562 C 16.425781 21.03125 15.628906 18.210938 13.113281 16.386719 C 13.089844 16.367188 13.0625 16.351562 13.035156 16.332031 C 12.4375 15.933594 11.78125 15.738281 11.132812 15.695312 Z M 35.292969 21.429688 C 31.414062 21.457031 27.574219 22.21875 23.976562 23.578125 C 23.964844 23.582031 23.949219 23.585938 23.9375 23.59375 C 18.976562 25.574219 13.753906 29.117188 11.753906 34.960938 C 11.753906 34.960938 11.753906 34.964844 11.753906 34.964844 C 10.082031 39.878906 11.320312 45.035156 13.53125 49.136719 C 13.535156 49.144531 13.539062 49.152344 13.542969 49.15625 C 17.277344 55.933594 23.789062 61.886719 31.972656 62.859375 C 38.699219 63.675781 44.695312 59.300781 47.6875 53.835938 C 47.726562 53.765625 47.761719 53.691406 47.792969 53.613281 C 48.097656 52.878906 48.773438 51.671875 49.160156 50.179688 C 49.550781 48.691406 49.472656 46.429688 47.894531 44.9375 C 47.769531 44.820312 47.632812 44.714844 47.484375 44.628906 C 43.992188 42.582031 40.03125 43.59375 37.183594 44.988281 C 36.058594 45.539062 35.59375 46.894531 36.144531 48.019531 C 36.695312 49.144531 38.050781 49.609375 39.175781 49.058594 C 41.09375 48.121094 43.273438 47.835938 44.777344 48.476562 C 44.828125 48.554688 44.90625 48.539062 44.777344 49.039062 C 44.601562 49.710938 44.109375 50.683594 43.675781 51.710938 C 41.425781 55.769531 36.886719 58.890625 32.523438 58.359375 C 32.519531 58.359375 32.519531 58.359375 32.515625 58.359375 C 26.25 57.617188 20.710938 52.769531 17.515625 46.976562 C 15.734375 43.667969 14.921875 39.726562 16.042969 36.421875 C 17.425781 32.398438 21.382812 29.503906 25.605469 27.8125 C 29.164062 26.472656 32.964844 25.816406 36.726562 25.992188 C 39.261719 26.175781 41.617188 26.675781 43.085938 28.015625 C 43.699219 28.644531 43.917969 29.425781 43.792969 30.445312 C 43.671875 31.480469 43.109375 32.640625 42.417969 33.359375 C 42.390625 33.386719 42.363281 33.414062 42.339844 33.445312 C 38.808594 37.507812 32.882812 39.523438 27.984375 44.1875 C 26.199219 45.738281 25.285156 48.304688 26.097656 50.722656 C 26.117188 50.78125 26.136719 50.835938 26.160156 50.890625 C 26.953125 52.75 28.363281 54.429688 30.414062 55.269531 C 32.464844 56.109375 35.160156 55.777344 37.324219 54.03125 C 38.296875 53.242188 38.445312 51.816406 37.660156 50.84375 C 36.871094 49.871094 35.445312 49.71875 34.472656 50.507812 C 33.332031 51.429688 32.792969 51.347656 32.136719 51.078125 C 31.511719 50.820312 30.820312 50.054688 30.417969 49.210938 C 30.253906 48.625 30.390625 48.09375 30.957031 47.605469 C 30.984375 47.578125 31.015625 47.550781 31.042969 47.523438 C 34.960938 43.761719 41.121094 41.714844 45.707031 36.472656 C 47.117188 34.992188 48.046875 33.070312 48.296875 30.984375 C 48.546875 28.886719 48.011719 26.507812 46.28125 24.78125 C 46.261719 24.761719 46.242188 24.742188 46.222656 24.722656 C 43.46875 22.15625 39.890625 21.667969 37.007812 21.464844 C 36.992188 21.464844 36.972656 21.460938 36.957031 21.460938 C 36.402344 21.4375 35.847656 21.425781 35.292969 21.429688 Z M 35.292969 21.429688 "/>
</g>
</svg>
