<svg xmlns="http://www.w3.org/2000/svg" xmlns:xlink="http://www.w3.org/1999/xlink" width="64" height="64" viewBox="0 0 64 64" version="1.1">
<defs> <linearGradient id="linear0" gradientUnits="userSpaceOnUse" x1="0" y1="0" x2="0" y2="1" gradientTransform="matrix(55.992188,0,0,56,4.003906,4)"> <stop offset="0" style="stop-color:#ff6666;stop-opacity:1;"/> <stop offset="1" style="stop-color:#d90000;stop-opacity:1;"/> </linearGradient> </defs>
<g id="surface1">
<path style=" stroke:none;fill-rule:evenodd;fill:url(#linear0);fill-opacity:1;" d="M 14.859375 8.398438 C 11.933594 8.398438 9.554688 10.769531 9.554688 13.679688 C 9.554688 16.554688 11.878906 18.898438 14.746094 18.960938 C 11.871094 22.695312 10.128906 27.34375 10.128906 32.421875 C 10.128906 37.28125 11.691406 41.777344 14.347656 45.429688 C 11.679688 45.695312 9.5625 47.917969 9.5625 50.648438 C 9.5625 53.566406 11.933594 55.929688 14.867188 55.929688 C 17.695312 55.929688 19.960938 53.714844 20.109375 50.9375 C 23.605469 53.226562 27.808594 54.570312 32.316406 54.570312 C 36.230469 54.570312 39.898438 53.554688 43.097656 51.785156 C 43.605469 54.167969 45.742188 55.929688 48.285156 55.929688 C 51.210938 55.929688 53.589844 53.566406 53.589844 50.65625 C 53.589844 48.359375 52.109375 46.441406 50.054688 45.710938 C 52.859375 42.003906 54.554688 37.414062 54.554688 32.421875 C 54.554688 27.246094 52.757812 22.503906 49.769531 18.734375 C 51.972656 18.089844 53.589844 16.078125 53.589844 13.679688 C 53.589844 10.761719 51.210938 8.398438 48.285156 8.398438 C 45.589844 8.398438 43.375 10.40625 43.039062 13 C 39.859375 11.253906 36.203125 10.277344 32.316406 10.277344 C 27.832031 10.277344 23.652344 11.632812 20.167969 13.90625 C 20.167969 13.832031 20.167969 13.757812 20.167969 13.679688 C 20.167969 10.769531 17.789062 8.402344 14.867188 8.402344 M 14.867188 11.582031 C 16.011719 11.582031 16.976562 12.542969 16.976562 13.679688 C 16.976562 14.824219 16.011719 15.726562 14.867188 15.726562 C 13.71875 15.726562 12.816406 14.824219 12.816406 13.679688 C 12.816406 12.542969 13.71875 11.582031 14.867188 11.582031 M 48.285156 11.582031 C 49.433594 11.582031 50.398438 12.542969 50.398438 13.679688 C 50.398438 14.824219 49.433594 15.726562 48.285156 15.726562 C 47.140625 15.726562 46.238281 14.824219 46.238281 13.679688 C 46.238281 12.542969 47.140625 11.582031 48.285156 11.582031 M 32.316406 13.742188 C 42.691406 13.742188 51.144531 22.09375 51.144531 32.429688 C 51.144531 42.753906 42.691406 51.113281 32.316406 51.113281 C 21.949219 51.113281 13.554688 42.753906 13.554688 32.429688 C 13.554688 22.09375 21.949219 13.742188 32.316406 13.742188 M 14.867188 48.5625 C 16.011719 48.5625 16.976562 49.523438 16.976562 50.667969 C 16.976562 51.804688 16.011719 52.707031 14.867188 52.707031 C 13.71875 52.707031 12.816406 51.804688 12.816406 50.667969 C 12.816406 49.523438 13.71875 48.5625 14.867188 48.5625 M 48.285156 48.5625 C 49.433594 48.5625 50.398438 49.523438 50.398438 50.667969 C 50.398438 51.804688 49.433594 52.707031 48.285156 52.707031 C 47.140625 52.707031 46.238281 51.804688 46.238281 50.667969 C 46.238281 49.523438 47.140625 48.5625 48.285156 48.5625 "/>
<path style=" stroke:none;fill-rule:evenodd;fill:url(#linear0);fill-opacity:1;" d="M 38.109375 32.4375 C 38.109375 35.605469 35.527344 38.179688 32.34375 38.179688 C 29.164062 38.179688 26.585938 35.605469 26.585938 32.4375 C 26.585938 29.273438 29.164062 26.703125 32.34375 26.703125 C 35.527344 26.703125 38.109375 29.273438 38.109375 32.4375 "/>
<path style=" stroke:none;fill-rule:evenodd;fill:url(#linear0);fill-opacity:1;" d="M 32.304688 16.8125 C 23.65625 16.8125 16.683594 23.816406 16.683594 32.433594 C 16.683594 41.050781 23.652344 48.054688 32.304688 48.054688 C 40.960938 48.054688 47.992188 41.050781 47.992188 32.433594 C 47.992188 23.816406 40.964844 16.8125 32.304688 16.8125 M 32.304688 23.742188 C 37.144531 23.742188 41.089844 27.613281 41.089844 32.433594 C 41.089844 37.246094 37.144531 41.183594 32.304688 41.183594 C 27.472656 41.183594 23.582031 37.25 23.582031 32.433594 C 23.582031 27.613281 27.472656 23.742188 32.304688 23.742188 "/>
</g>
</svg>
