<svg xmlns="http://www.w3.org/2000/svg" xmlns:xlink="http://www.w3.org/1999/xlink" width="64" height="64" viewBox="0 0 64 64" version="1.1">
<defs> <linearGradient id="linear0" gradientUnits="userSpaceOnUse" x1="0" y1="0" x2="0" y2="1" gradientTransform="matrix(55.992188,0,0,56,4.003906,4)"> <stop offset="0" style="stop-color:#ff6666;stop-opacity:1;"/> <stop offset="1" style="stop-color:#d90000;stop-opacity:1;"/> </linearGradient> </defs>
<g id="surface1">
<path style=" stroke:none;fill-rule:nonzero;fill:url(#linear0);fill-opacity:1;" d="M 14.847656 9.957031 C 14.722656 9.957031 14.609375 9.964844 14.484375 9.976562 C 14.46875 9.976562 14.445312 9.980469 14.421875 9.980469 C 14.273438 10 14.128906 10.011719 13.984375 10.03125 C 13.980469 10.03125 13.972656 10.039062 13.96875 10.039062 C 13.808594 10.066406 13.652344 10.101562 13.496094 10.140625 C 13.484375 10.144531 13.480469 10.144531 13.46875 10.152344 C 13.320312 10.191406 13.171875 10.234375 13.027344 10.292969 C 13.007812 10.296875 12.996094 10.304688 12.980469 10.316406 C 12.683594 10.429688 12.40625 10.570312 12.140625 10.734375 C 12.105469 10.757812 12.070312 10.777344 12.039062 10.808594 C 11.917969 10.886719 11.792969 10.964844 11.679688 11.054688 C 11.679688 11.0625 11.675781 11.0625 11.675781 11.066406 C 11.558594 11.15625 11.453125 11.253906 11.34375 11.351562 C 11.320312 11.371094 11.300781 11.394531 11.269531 11.417969 C 11.164062 11.527344 11.0625 11.636719 10.964844 11.75 C 10.953125 11.761719 10.945312 11.769531 10.941406 11.773438 C 10.839844 11.894531 10.75 12.015625 10.65625 12.148438 C 10.652344 12.160156 10.640625 12.175781 10.628906 12.1875 C 10.261719 12.730469 9.992188 13.351562 9.855469 14.015625 C 9.851562 14.042969 9.84375 14.070312 9.839844 14.097656 C 9.816406 14.238281 9.789062 14.375 9.777344 14.515625 C 9.777344 14.523438 9.777344 14.527344 9.777344 14.535156 C 9.761719 14.699219 9.75 14.867188 9.75 15.039062 C 9.753906 15.109375 9.753906 15.179688 9.753906 15.253906 C 9.761719 15.40625 9.777344 15.5625 9.792969 15.710938 C 9.800781 15.738281 9.800781 15.761719 9.804688 15.785156 C 9.878906 16.277344 10.023438 16.75 10.230469 17.1875 C 10.238281 17.199219 10.242188 17.210938 10.25 17.21875 C 10.316406 17.363281 10.386719 17.496094 10.464844 17.632812 C 10.46875 17.644531 10.480469 17.65625 10.488281 17.671875 C 10.574219 17.808594 10.664062 17.945312 10.765625 18.074219 C 10.78125 18.097656 10.792969 18.113281 10.8125 18.136719 C 10.894531 18.242188 10.980469 18.351562 11.070312 18.453125 C 11.078125 18.460938 11.082031 18.464844 11.089844 18.464844 C 11.195312 18.582031 11.304688 18.691406 11.417969 18.796875 C 11.445312 18.820312 11.476562 18.84375 11.503906 18.871094 C 11.742188 19.074219 11.996094 19.257812 12.265625 19.414062 C 12.269531 19.421875 12.269531 19.421875 12.277344 19.421875 C 12.417969 19.503906 12.566406 19.578125 12.71875 19.648438 C 12.71875 19.652344 12.726562 19.652344 12.726562 19.652344 C 12.859375 19.714844 13.003906 19.777344 13.144531 19.828125 C 13.171875 19.832031 13.207031 19.84375 13.234375 19.855469 C 13.691406 20.003906 14.167969 20.09375 14.660156 20.109375 C 14.695312 20.109375 14.734375 20.117188 14.773438 20.117188 C 14.796875 20.117188 14.820312 20.117188 14.847656 20.117188 C 14.96875 20.117188 15.085938 20.117188 15.207031 20.105469 C 15.222656 20.105469 15.242188 20.105469 15.257812 20.097656 C 15.410156 20.085938 15.5625 20.066406 15.71875 20.042969 C 15.730469 20.035156 15.742188 20.035156 15.75 20.03125 C 16.074219 19.976562 16.394531 19.890625 16.695312 19.769531 C 16.699219 19.765625 16.707031 19.765625 16.71875 19.757812 C 16.863281 19.703125 17.011719 19.636719 17.160156 19.5625 C 17.171875 19.554688 17.183594 19.550781 17.199219 19.539062 C 17.488281 19.390625 17.761719 19.21875 18.015625 19.011719 C 18.015625 19.011719 18.023438 19.007812 18.023438 19.007812 C 18.285156 18.796875 18.535156 18.566406 18.75 18.3125 C 18.761719 18.296875 18.773438 18.277344 18.785156 18.265625 C 18.878906 18.148438 18.972656 18.027344 19.058594 17.90625 C 19.0625 17.898438 19.066406 17.886719 19.074219 17.875 C 19.164062 17.746094 19.246094 17.609375 19.324219 17.476562 C 19.324219 17.46875 19.328125 17.464844 19.328125 17.457031 C 19.566406 17.023438 19.742188 16.546875 19.847656 16.050781 C 19.847656 16.03125 19.847656 16.023438 19.851562 16.011719 C 19.910156 15.695312 19.941406 15.371094 19.941406 15.039062 C 19.941406 14.953125 19.941406 14.867188 19.9375 14.777344 C 19.898438 13.921875 19.636719 13.113281 19.214844 12.425781 C 19.214844 12.417969 19.210938 12.40625 19.210938 12.402344 C 19.035156 12.121094 18.828125 11.855469 18.609375 11.605469 C 18.585938 11.585938 18.570312 11.570312 18.550781 11.554688 C 18.453125 11.445312 18.351562 11.351562 18.246094 11.253906 C 18.234375 11.242188 18.222656 11.230469 18.203125 11.21875 C 18.089844 11.117188 17.972656 11.023438 17.851562 10.933594 C 17.839844 10.925781 17.835938 10.921875 17.832031 10.921875 C 17.289062 10.53125 16.675781 10.246094 16.007812 10.09375 C 15.996094 10.089844 15.984375 10.089844 15.96875 10.089844 C 15.8125 10.054688 15.660156 10.019531 15.5 10.003906 C 15.496094 10.003906 15.492188 10.003906 15.484375 10.003906 C 15.324219 9.980469 15.160156 9.96875 14.996094 9.964844 C 14.992188 9.964844 14.992188 9.964844 14.984375 9.964844 C 14.941406 9.964844 14.894531 9.957031 14.847656 9.957031 Z M 14.847656 9.957031 "/>
<path style=" stroke:none;fill-rule:nonzero;fill:url(#linear0);fill-opacity:1;" d="M 26.320312 9.957031 C 26.199219 9.957031 26.082031 9.964844 25.960938 9.976562 C 25.941406 9.976562 25.921875 9.976562 25.898438 9.976562 C 25.757812 9.992188 25.621094 10.003906 25.480469 10.027344 C 25.457031 10.03125 25.441406 10.039062 25.417969 10.042969 C 25.265625 10.070312 25.117188 10.101562 24.972656 10.140625 C 24.964844 10.144531 24.953125 10.144531 24.941406 10.152344 C 24.785156 10.191406 24.640625 10.234375 24.496094 10.292969 C 24.484375 10.296875 24.46875 10.304688 24.453125 10.316406 C 24.164062 10.429688 23.878906 10.570312 23.617188 10.734375 C 23.578125 10.757812 23.542969 10.777344 23.507812 10.808594 C 23.390625 10.886719 23.269531 10.964844 23.15625 11.054688 C 23.152344 11.054688 23.144531 11.0625 23.144531 11.066406 C 23.03125 11.15625 22.925781 11.253906 22.820312 11.351562 C 22.792969 11.371094 22.769531 11.394531 22.742188 11.417969 C 22.632812 11.527344 22.53125 11.636719 22.4375 11.75 C 22.429688 11.761719 22.417969 11.769531 22.414062 11.773438 C 22.316406 11.894531 22.21875 12.015625 22.136719 12.148438 C 22.125 12.160156 22.113281 12.175781 22.101562 12.1875 C 21.730469 12.730469 21.464844 13.347656 21.328125 14.015625 C 21.324219 14.035156 21.324219 14.054688 21.316406 14.070312 C 21.289062 14.21875 21.265625 14.363281 21.25 14.515625 C 21.25 14.523438 21.25 14.527344 21.25 14.535156 C 21.230469 14.699219 21.226562 14.867188 21.226562 15.039062 C 21.226562 15.128906 21.226562 15.21875 21.230469 15.304688 C 21.273438 16.152344 21.527344 16.945312 21.9375 17.632812 C 21.941406 17.644531 21.953125 17.65625 21.957031 17.671875 C 22.042969 17.808594 22.140625 17.945312 22.238281 18.074219 C 22.253906 18.097656 22.269531 18.113281 22.289062 18.136719 C 22.367188 18.242188 22.457031 18.351562 22.550781 18.453125 C 22.554688 18.460938 22.554688 18.464844 22.5625 18.464844 C 22.667969 18.582031 22.777344 18.691406 22.894531 18.796875 C 22.925781 18.820312 22.953125 18.847656 22.980469 18.878906 C 23.214844 19.074219 23.46875 19.257812 23.734375 19.414062 C 23.742188 19.421875 23.742188 19.421875 23.746094 19.421875 C 24.019531 19.578125 24.308594 19.714844 24.617188 19.820312 C 24.652344 19.832031 24.679688 19.84375 24.714844 19.855469 C 25.160156 20.003906 25.640625 20.09375 26.132812 20.109375 C 26.171875 20.109375 26.207031 20.109375 26.246094 20.117188 C 26.269531 20.117188 26.296875 20.117188 26.320312 20.117188 C 26.445312 20.117188 26.558594 20.109375 26.683594 20.105469 C 26.699219 20.105469 26.71875 20.097656 26.734375 20.097656 C 26.886719 20.085938 27.035156 20.066406 27.183594 20.042969 C 27.1875 20.035156 27.195312 20.035156 27.199219 20.035156 C 27.535156 19.980469 27.859375 19.890625 28.164062 19.769531 C 28.171875 19.765625 28.183594 19.765625 28.1875 19.757812 C 28.335938 19.703125 28.488281 19.636719 28.632812 19.5625 C 28.644531 19.554688 28.660156 19.542969 28.671875 19.539062 C 28.960938 19.386719 29.238281 19.210938 29.488281 19.011719 C 29.496094 19.011719 29.496094 19.007812 29.496094 19.007812 C 29.761719 18.796875 30.007812 18.566406 30.222656 18.3125 C 30.234375 18.296875 30.246094 18.277344 30.253906 18.265625 C 30.351562 18.148438 30.441406 18.027344 30.527344 17.90625 C 30.535156 17.898438 30.539062 17.886719 30.546875 17.875 C 30.636719 17.746094 30.722656 17.609375 30.796875 17.476562 C 30.800781 17.46875 30.800781 17.464844 30.808594 17.457031 C 31.046875 17.023438 31.214844 16.546875 31.316406 16.050781 C 31.324219 16.023438 31.324219 15.992188 31.328125 15.96875 C 31.386719 15.664062 31.421875 15.359375 31.421875 15.039062 C 31.414062 14.96875 31.414062 14.894531 31.414062 14.828125 C 31.402344 14.660156 31.390625 14.488281 31.367188 14.320312 C 31.363281 14.300781 31.363281 14.28125 31.359375 14.261719 C 31.253906 13.59375 31.027344 12.980469 30.691406 12.425781 C 30.6875 12.417969 30.6875 12.40625 30.683594 12.402344 C 30.503906 12.121094 30.308594 11.855469 30.078125 11.605469 C 30.0625 11.585938 30.046875 11.570312 30.023438 11.554688 C 29.925781 11.445312 29.824219 11.351562 29.714844 11.253906 C 29.703125 11.242188 29.695312 11.230469 29.683594 11.21875 C 29.0625 10.683594 28.308594 10.28125 27.480469 10.089844 C 27.46875 10.089844 27.460938 10.089844 27.457031 10.089844 C 27.300781 10.050781 27.136719 10.027344 26.980469 10.003906 C 26.96875 10.003906 26.957031 10.003906 26.949219 10.003906 C 26.792969 9.980469 26.632812 9.96875 26.46875 9.964844 C 26.46875 9.964844 26.460938 9.964844 26.457031 9.964844 C 26.410156 9.964844 26.367188 9.957031 26.320312 9.957031 "/>
<path style=" stroke:none;fill-rule:nonzero;fill:url(#linear0);fill-opacity:1;" d="M 49.261719 9.957031 C 49.144531 9.957031 49.019531 9.964844 48.90625 9.976562 C 48.882812 9.976562 48.867188 9.976562 48.84375 9.976562 C 48.691406 9.992188 48.542969 10.011719 48.394531 10.03125 C 48.390625 10.03125 48.378906 10.039062 48.371094 10.039062 C 48.21875 10.066406 48.078125 10.09375 47.929688 10.132812 C 47.902344 10.144531 47.871094 10.152344 47.847656 10.164062 C 47.707031 10.203125 47.570312 10.242188 47.441406 10.292969 C 47.429688 10.296875 47.410156 10.304688 47.394531 10.316406 C 47.089844 10.433594 46.792969 10.585938 46.519531 10.761719 C 46.507812 10.761719 46.503906 10.769531 46.496094 10.769531 C 46.363281 10.859375 46.226562 10.953125 46.101562 11.054688 C 46.09375 11.0625 46.09375 11.0625 46.089844 11.066406 C 45.980469 11.152344 45.871094 11.25 45.769531 11.339844 C 45.730469 11.378906 45.691406 11.421875 45.652344 11.464844 C 45.4375 11.679688 45.238281 11.914062 45.0625 12.164062 C 45.0625 12.171875 45.054688 12.175781 45.050781 12.175781 C 44.777344 12.578125 44.554688 13.023438 44.402344 13.492188 C 44.394531 13.527344 44.386719 13.5625 44.375 13.601562 C 44.292969 13.878906 44.230469 14.160156 44.199219 14.453125 C 44.191406 14.527344 44.1875 14.601562 44.179688 14.675781 C 44.175781 14.792969 44.164062 14.917969 44.164062 15.039062 C 44.164062 15.128906 44.167969 15.21875 44.175781 15.304688 C 44.1875 15.621094 44.238281 15.925781 44.304688 16.21875 C 44.3125 16.242188 44.316406 16.257812 44.324219 16.28125 C 44.402344 16.597656 44.511719 16.898438 44.644531 17.1875 C 44.652344 17.199219 44.65625 17.210938 44.664062 17.21875 C 44.726562 17.363281 44.800781 17.492188 44.878906 17.621094 C 44.886719 17.640625 44.894531 17.65625 44.902344 17.667969 C 44.988281 17.808594 45.078125 17.945312 45.175781 18.074219 C 45.175781 18.074219 45.179688 18.074219 45.179688 18.074219 C 45.277344 18.203125 45.378906 18.335938 45.488281 18.453125 C 45.492188 18.453125 45.5 18.460938 45.503906 18.464844 C 45.617188 18.589844 45.738281 18.707031 45.863281 18.820312 C 45.867188 18.828125 45.871094 18.832031 45.878906 18.832031 C 46.121094 19.054688 46.390625 19.246094 46.671875 19.410156 C 46.695312 19.421875 46.71875 19.433594 46.742188 19.441406 C 47.003906 19.589844 47.277344 19.71875 47.558594 19.820312 C 47.59375 19.832031 47.621094 19.84375 47.65625 19.851562 C 48.105469 20.003906 48.578125 20.085938 49.070312 20.109375 C 49.109375 20.109375 49.148438 20.109375 49.183594 20.109375 C 49.210938 20.117188 49.242188 20.109375 49.261719 20.109375 C 49.386719 20.109375 49.507812 20.109375 49.625 20.105469 C 49.644531 20.097656 49.660156 20.097656 49.679688 20.097656 C 49.832031 20.085938 49.980469 20.066406 50.125 20.035156 C 50.132812 20.035156 50.136719 20.035156 50.144531 20.035156 C 50.480469 19.976562 50.800781 19.890625 51.109375 19.769531 C 51.125 19.757812 51.136719 19.753906 51.148438 19.75 C 51.296875 19.691406 51.4375 19.628906 51.574219 19.5625 C 51.589844 19.550781 51.609375 19.542969 51.625 19.535156 C 51.910156 19.378906 52.175781 19.210938 52.433594 19.011719 C 52.433594 19.007812 52.433594 19.007812 52.433594 19.007812 C 52.699219 18.796875 52.941406 18.566406 53.160156 18.304688 C 53.171875 18.296875 53.183594 18.277344 53.191406 18.265625 C 53.289062 18.148438 53.386719 18.027344 53.472656 17.90625 C 53.476562 17.894531 53.484375 17.886719 53.496094 17.875 C 53.578125 17.746094 53.664062 17.609375 53.738281 17.476562 C 53.738281 17.46875 53.742188 17.464844 53.742188 17.457031 C 54.136719 16.738281 54.363281 15.914062 54.363281 15.039062 C 54.363281 14.96875 54.359375 14.894531 54.359375 14.828125 C 54.351562 14.660156 54.335938 14.484375 54.3125 14.320312 C 54.304688 14.300781 54.304688 14.28125 54.300781 14.261719 C 54.277344 14.109375 54.25 13.96875 54.214844 13.820312 C 54.210938 13.804688 54.203125 13.789062 54.199219 13.769531 C 54.160156 13.625 54.113281 13.476562 54.0625 13.335938 C 54.0625 13.324219 54.054688 13.308594 54.050781 13.289062 C 53.992188 13.148438 53.9375 13 53.875 12.867188 C 53.867188 12.855469 53.863281 12.84375 53.859375 12.835938 C 53.636719 12.386719 53.359375 11.972656 53.023438 11.605469 C 53.003906 11.59375 52.988281 11.578125 52.972656 11.558594 C 52.296875 10.847656 51.414062 10.320312 50.421875 10.089844 C 50.417969 10.089844 50.40625 10.089844 50.398438 10.082031 C 50.246094 10.050781 50.082031 10.019531 49.921875 10.003906 C 49.910156 10.003906 49.898438 10.003906 49.894531 10.003906 C 49.734375 9.980469 49.574219 9.96875 49.410156 9.964844 C 49.410156 9.964844 49.40625 9.964844 49.40625 9.964844 C 49.355469 9.957031 49.308594 9.957031 49.261719 9.957031 Z M 49.261719 9.957031 "/>
<path style=" stroke:none;fill-rule:nonzero;fill:url(#linear0);fill-opacity:1;" d="M 26.320312 21.382812 C 26.199219 21.382812 26.082031 21.386719 25.960938 21.398438 C 25.941406 21.398438 25.921875 21.398438 25.898438 21.40625 C 25.757812 21.417969 25.621094 21.429688 25.480469 21.449219 C 25.457031 21.457031 25.441406 21.460938 25.417969 21.46875 C 25.265625 21.496094 25.117188 21.523438 24.972656 21.5625 C 24.964844 21.570312 24.953125 21.570312 24.941406 21.574219 C 24.785156 21.613281 24.640625 21.664062 24.496094 21.714844 C 24.484375 21.722656 24.46875 21.734375 24.453125 21.738281 C 24.316406 21.796875 24.171875 21.851562 24.039062 21.921875 C 24.015625 21.929688 23.992188 21.949219 23.96875 21.960938 C 23.839844 22.027344 23.71875 22.101562 23.59375 22.175781 C 23.582031 22.1875 23.566406 22.191406 23.554688 22.203125 C 23.417969 22.289062 23.28125 22.382812 23.15625 22.480469 C 23.152344 22.484375 23.144531 22.484375 23.144531 22.492188 C 23.019531 22.59375 22.902344 22.695312 22.78125 22.808594 C 22.769531 22.820312 22.757812 22.832031 22.75 22.84375 C 22.652344 22.9375 22.5625 23.035156 22.46875 23.140625 C 22.441406 23.171875 22.417969 23.199219 22.394531 23.226562 C 21.976562 23.730469 21.652344 24.316406 21.453125 24.957031 C 21.402344 25.117188 21.363281 25.273438 21.328125 25.4375 C 21.324219 25.453125 21.324219 25.472656 21.316406 25.488281 C 21.289062 25.640625 21.265625 25.789062 21.25 25.941406 C 21.25 25.945312 21.25 25.953125 21.25 25.953125 C 21.230469 26.121094 21.226562 26.292969 21.226562 26.46875 C 21.226562 26.550781 21.226562 26.636719 21.230469 26.722656 C 21.273438 27.570312 21.523438 28.367188 21.9375 29.058594 C 21.941406 29.070312 21.953125 29.085938 21.957031 29.097656 C 22.128906 29.375 22.328125 29.640625 22.550781 29.878906 C 22.554688 29.882812 22.554688 29.886719 22.5625 29.894531 C 22.667969 30.007812 22.777344 30.113281 22.894531 30.222656 C 22.902344 30.226562 22.914062 30.238281 22.925781 30.246094 C 23.15625 30.460938 23.417969 30.640625 23.691406 30.804688 C 23.730469 30.832031 23.769531 30.855469 23.808594 30.878906 C 24.214844 31.109375 24.652344 31.28125 25.117188 31.394531 C 25.144531 31.398438 25.171875 31.402344 25.203125 31.410156 C 25.558594 31.496094 25.933594 31.539062 26.320312 31.539062 C 26.617188 31.539062 26.90625 31.511719 27.183594 31.464844 C 27.1875 31.464844 27.195312 31.460938 27.199219 31.460938 C 27.535156 31.402344 27.859375 31.3125 28.164062 31.195312 C 28.171875 31.195312 28.183594 31.1875 28.1875 31.183594 C 28.335938 31.128906 28.488281 31.066406 28.632812 30.992188 C 28.644531 30.980469 28.660156 30.972656 28.671875 30.964844 C 28.8125 30.894531 28.945312 30.816406 29.074219 30.730469 C 29.082031 30.730469 29.082031 30.726562 29.085938 30.726562 C 29.222656 30.636719 29.363281 30.539062 29.488281 30.4375 C 29.496094 30.4375 29.496094 30.4375 29.496094 30.429688 C 29.761719 30.222656 30.007812 29.992188 30.222656 29.734375 C 30.234375 29.71875 30.246094 29.707031 30.253906 29.691406 C 30.460938 29.449219 30.640625 29.179688 30.796875 28.898438 C 30.796875 28.894531 30.800781 28.886719 30.808594 28.882812 C 30.878906 28.742188 30.953125 28.59375 31.015625 28.441406 C 31.015625 28.441406 31.015625 28.441406 31.015625 28.433594 C 31.148438 28.128906 31.25 27.808594 31.316406 27.472656 C 31.324219 27.445312 31.324219 27.421875 31.328125 27.394531 C 31.386719 27.09375 31.414062 26.785156 31.414062 26.46875 C 31.414062 26.394531 31.414062 26.324219 31.414062 26.253906 C 31.402344 26.082031 31.390625 25.914062 31.367188 25.75 C 31.363281 25.726562 31.363281 25.710938 31.359375 25.6875 C 31.253906 25.019531 31.027344 24.398438 30.691406 23.84375 C 30.6875 23.835938 30.683594 23.832031 30.683594 23.832031 C 30.25 23.125 29.652344 22.535156 28.949219 22.113281 C 28.910156 22.089844 28.871094 22.066406 28.832031 22.042969 C 28.410156 21.808594 27.957031 21.625 27.480469 21.519531 C 27.46875 21.519531 27.460938 21.511719 27.457031 21.511719 C 27.300781 21.480469 27.136719 21.449219 26.980469 21.429688 C 26.96875 21.429688 26.957031 21.429688 26.949219 21.429688 C 26.792969 21.410156 26.632812 21.394531 26.46875 21.386719 C 26.46875 21.386719 26.460938 21.386719 26.457031 21.386719 C 26.410156 21.386719 26.367188 21.382812 26.320312 21.382812 "/>
<path style=" stroke:none;fill-rule:nonzero;fill:url(#linear0);fill-opacity:1;" d="M 37.792969 21.382812 C 37.671875 21.382812 37.546875 21.386719 37.429688 21.398438 C 37.410156 21.398438 37.386719 21.398438 37.371094 21.40625 C 37.230469 21.417969 37.09375 21.429688 36.953125 21.449219 C 36.929688 21.457031 36.910156 21.460938 36.890625 21.46875 C 36.734375 21.496094 36.585938 21.523438 36.445312 21.5625 C 36.433594 21.570312 36.421875 21.570312 36.410156 21.574219 C 36.265625 21.621094 36.117188 21.664062 35.96875 21.714844 C 35.953125 21.722656 35.933594 21.734375 35.917969 21.738281 C 35.789062 21.789062 35.664062 21.847656 35.53125 21.910156 C 35.484375 21.929688 35.441406 21.953125 35.394531 21.976562 C 35.121094 22.125 34.867188 22.292969 34.621094 22.480469 C 34.621094 22.484375 34.617188 22.484375 34.617188 22.492188 C 34.492188 22.585938 34.375 22.695312 34.253906 22.800781 C 34.242188 22.8125 34.230469 22.832031 34.21875 22.84375 C 34.125 22.9375 34.03125 23.035156 33.941406 23.140625 C 33.914062 23.164062 33.890625 23.191406 33.867188 23.222656 C 33.449219 23.722656 33.125 24.3125 32.917969 24.953125 C 32.917969 24.957031 32.917969 24.957031 32.917969 24.957031 C 32.824219 25.273438 32.753906 25.601562 32.71875 25.941406 C 32.71875 25.945312 32.71875 25.945312 32.71875 25.953125 C 32.703125 26.121094 32.691406 26.292969 32.691406 26.460938 C 32.691406 26.550781 32.691406 26.636719 32.699219 26.722656 C 32.714844 27.039062 32.761719 27.34375 32.835938 27.644531 C 32.839844 27.664062 32.84375 27.683594 32.84375 27.707031 C 32.925781 28 33.019531 28.289062 33.152344 28.566406 C 33.164062 28.59375 33.175781 28.621094 33.1875 28.648438 C 33.253906 28.785156 33.328125 28.921875 33.40625 29.050781 C 33.414062 29.0625 33.425781 29.078125 33.429688 29.097656 C 33.601562 29.375 33.800781 29.632812 34.019531 29.878906 C 34.019531 29.882812 34.027344 29.886719 34.03125 29.894531 C 34.140625 30.007812 34.25 30.113281 34.363281 30.222656 C 34.375 30.226562 34.382812 30.238281 34.394531 30.246094 C 34.640625 30.464844 34.90625 30.65625 35.195312 30.828125 C 35.21875 30.839844 35.242188 30.855469 35.265625 30.871094 C 35.671875 31.105469 36.117188 31.28125 36.585938 31.394531 C 36.617188 31.398438 36.644531 31.402344 36.671875 31.410156 C 37.03125 31.496094 37.40625 31.539062 37.792969 31.539062 C 38.085938 31.539062 38.375 31.511719 38.65625 31.464844 C 38.660156 31.464844 38.667969 31.460938 38.671875 31.460938 C 39.007812 31.402344 39.332031 31.3125 39.636719 31.195312 C 39.644531 31.1875 39.648438 31.1875 39.660156 31.183594 C 39.808594 31.128906 39.957031 31.058594 40.101562 30.984375 C 40.121094 30.980469 40.136719 30.96875 40.152344 30.957031 C 40.289062 30.890625 40.421875 30.816406 40.546875 30.730469 C 40.550781 30.730469 40.558594 30.726562 40.5625 30.726562 C 40.699219 30.636719 40.835938 30.539062 40.960938 30.4375 C 40.984375 30.421875 41.007812 30.398438 41.027344 30.378906 C 41.265625 30.183594 41.488281 29.96875 41.6875 29.734375 C 41.699219 29.71875 41.710938 29.707031 41.722656 29.691406 C 41.925781 29.441406 42.109375 29.179688 42.265625 28.898438 C 42.265625 28.894531 42.273438 28.886719 42.277344 28.882812 C 42.351562 28.742188 42.425781 28.59375 42.488281 28.441406 C 42.488281 28.441406 42.488281 28.433594 42.488281 28.433594 C 42.617188 28.128906 42.722656 27.808594 42.789062 27.472656 C 42.796875 27.445312 42.796875 27.417969 42.800781 27.394531 C 42.859375 27.089844 42.886719 26.785156 42.886719 26.460938 C 42.886719 26.394531 42.886719 26.324219 42.878906 26.253906 C 42.875 26.082031 42.863281 25.914062 42.839844 25.742188 C 42.835938 25.726562 42.835938 25.710938 42.828125 25.6875 C 42.753906 25.195312 42.609375 24.726562 42.398438 24.289062 C 42.390625 24.277344 42.390625 24.273438 42.386719 24.261719 C 41.953125 23.367188 41.265625 22.621094 40.421875 22.113281 C 40.382812 22.089844 40.339844 22.066406 40.308594 22.050781 C 39.886719 21.8125 39.433594 21.625 38.945312 21.519531 C 38.9375 21.511719 38.933594 21.511719 38.925781 21.511719 C 38.769531 21.480469 38.609375 21.449219 38.449219 21.429688 C 38.4375 21.429688 38.429688 21.429688 38.417969 21.429688 C 38.261719 21.410156 38.105469 21.394531 37.941406 21.386719 C 37.933594 21.386719 37.933594 21.386719 37.929688 21.386719 C 37.882812 21.386719 37.835938 21.382812 37.792969 21.382812 Z M 37.792969 21.382812 "/>
<path style=" stroke:none;fill-rule:nonzero;fill:url(#linear0);fill-opacity:1;" d="M 26.320312 32.808594 C 26.035156 32.808594 25.753906 32.835938 25.480469 32.875 C 25.457031 32.878906 25.441406 32.886719 25.417969 32.890625 C 25.097656 32.949219 24.792969 33.03125 24.496094 33.140625 C 24.484375 33.152344 24.46875 33.15625 24.457031 33.164062 C 24.316406 33.21875 24.171875 33.277344 24.039062 33.34375 C 24.015625 33.359375 23.992188 33.371094 23.96875 33.382812 C 23.683594 33.535156 23.40625 33.707031 23.15625 33.902344 C 23.152344 33.910156 23.152344 33.914062 23.144531 33.914062 C 22.902344 34.113281 22.675781 34.328125 22.46875 34.566406 C 22.441406 34.59375 22.417969 34.621094 22.394531 34.648438 C 22.3125 34.753906 22.238281 34.855469 22.15625 34.960938 C 22.140625 34.984375 22.125 35.007812 22.105469 35.027344 C 21.925781 35.289062 21.769531 35.570312 21.644531 35.859375 C 21.640625 35.878906 21.628906 35.894531 21.625 35.90625 L 21.625 35.910156 C 21.617188 35.921875 21.613281 35.933594 21.613281 35.945312 C 21.488281 36.238281 21.398438 36.542969 21.328125 36.863281 C 21.324219 36.878906 21.324219 36.894531 21.316406 36.914062 C 21.289062 37.066406 21.265625 37.210938 21.25 37.363281 C 21.25 37.371094 21.25 37.375 21.25 37.375 C 21.230469 37.546875 21.226562 37.710938 21.226562 37.886719 C 21.226562 37.96875 21.226562 38.054688 21.230469 38.144531 C 21.273438 38.992188 21.523438 39.78125 21.929688 40.46875 C 21.941406 40.488281 21.953125 40.503906 21.957031 40.519531 C 22.128906 40.796875 22.328125 41.058594 22.550781 41.300781 C 22.554688 41.308594 22.5625 41.3125 22.5625 41.316406 C 22.667969 41.429688 22.777344 41.539062 22.894531 41.644531 C 22.902344 41.652344 22.914062 41.664062 22.925781 41.667969 C 23.050781 41.78125 23.179688 41.882812 23.316406 41.984375 C 23.328125 41.992188 23.339844 42.003906 23.351562 42.007812 C 23.457031 42.085938 23.570312 42.160156 23.691406 42.230469 C 23.730469 42.257812 23.769531 42.28125 23.808594 42.300781 C 24.214844 42.535156 24.65625 42.703125 25.117188 42.816406 C 25.144531 42.824219 25.171875 42.828125 25.203125 42.832031 C 25.347656 42.867188 25.496094 42.894531 25.648438 42.914062 C 25.65625 42.917969 25.660156 42.917969 25.667969 42.917969 C 25.878906 42.945312 26.097656 42.964844 26.320312 42.964844 C 26.445312 42.964844 26.5625 42.957031 26.683594 42.945312 C 26.699219 42.945312 26.722656 42.941406 26.746094 42.941406 C 26.894531 42.925781 27.042969 42.914062 27.183594 42.890625 C 27.1875 42.890625 27.195312 42.882812 27.199219 42.882812 C 27.363281 42.855469 27.523438 42.824219 27.683594 42.777344 C 27.6875 42.777344 27.699219 42.769531 27.707031 42.769531 C 27.859375 42.726562 28.019531 42.675781 28.164062 42.617188 C 28.175781 42.617188 28.183594 42.613281 28.1875 42.609375 C 28.5 42.488281 28.796875 42.335938 29.074219 42.15625 C 29.109375 42.136719 29.136719 42.117188 29.171875 42.09375 C 29.277344 42.019531 29.386719 41.945312 29.488281 41.859375 C 29.496094 41.859375 29.496094 41.859375 29.496094 41.855469 C 29.625 41.753906 29.75 41.644531 29.871094 41.527344 C 29.890625 41.511719 29.910156 41.492188 29.925781 41.472656 C 30.265625 41.132812 30.5625 40.746094 30.796875 40.316406 C 30.800781 40.3125 30.800781 40.304688 30.808594 40.304688 C 31.039062 39.871094 31.210938 39.402344 31.3125 38.910156 C 31.324219 38.871094 31.328125 38.835938 31.335938 38.800781 C 31.386719 38.507812 31.421875 38.195312 31.421875 37.886719 C 31.421875 37.8125 31.414062 37.742188 31.414062 37.671875 C 31.402344 37.5 31.390625 37.335938 31.367188 37.171875 C 31.363281 37.148438 31.363281 37.132812 31.359375 37.109375 C 31.253906 36.441406 31.027344 35.820312 30.691406 35.265625 C 30.6875 35.261719 30.6875 35.253906 30.683594 35.25 C 30.246094 34.53125 29.625 33.925781 28.894531 33.503906 C 28.886719 33.496094 28.882812 33.496094 28.875 33.492188 C 28.585938 33.328125 28.285156 33.1875 27.972656 33.078125 C 27.957031 33.078125 27.945312 33.074219 27.933594 33.066406 C 27.78125 33.023438 27.632812 32.976562 27.480469 32.941406 C 27.46875 32.9375 27.460938 32.9375 27.457031 32.9375 C 27.148438 32.867188 26.832031 32.824219 26.507812 32.8125 C 26.472656 32.8125 26.445312 32.8125 26.410156 32.808594 C 26.382812 32.808594 26.347656 32.808594 26.320312 32.808594 "/>
<path style=" stroke:none;fill-rule:nonzero;fill:url(#linear0);fill-opacity:1;" d="M 49.261719 32.808594 C 48.96875 32.808594 48.679688 32.835938 48.394531 32.878906 C 48.390625 32.886719 48.378906 32.886719 48.371094 32.886719 C 48.046875 32.941406 47.742188 33.027344 47.441406 33.140625 C 47.421875 33.152344 47.40625 33.15625 47.390625 33.164062 C 47.257812 33.214844 47.132812 33.269531 47.007812 33.332031 C 46.957031 33.355469 46.914062 33.378906 46.867188 33.40625 C 46.59375 33.546875 46.339844 33.71875 46.101562 33.902344 C 46.09375 33.910156 46.09375 33.910156 46.089844 33.914062 C 45.964844 34.015625 45.839844 34.117188 45.726562 34.230469 C 45.714844 34.238281 45.703125 34.25 45.691406 34.261719 C 45.589844 34.363281 45.488281 34.476562 45.390625 34.582031 C 45.375 34.605469 45.355469 34.628906 45.339844 34.648438 C 45.242188 34.757812 45.15625 34.875 45.074219 34.996094 C 45.066406 35.007812 45.0625 35.019531 45.050781 35.023438 C 44.769531 35.4375 44.542969 35.890625 44.394531 36.375 C 44.390625 36.398438 44.378906 36.421875 44.375 36.441406 C 44.292969 36.714844 44.238281 36.996094 44.203125 37.285156 C 44.191406 37.363281 44.1875 37.445312 44.179688 37.523438 C 44.175781 37.640625 44.164062 37.761719 44.164062 37.886719 C 44.164062 37.96875 44.167969 38.054688 44.175781 38.144531 C 44.1875 38.460938 44.230469 38.765625 44.304688 39.0625 C 44.3125 39.085938 44.316406 39.105469 44.324219 39.128906 C 44.402344 39.441406 44.503906 39.746094 44.640625 40.035156 C 44.644531 40.046875 44.65625 40.058594 44.664062 40.074219 C 44.726562 40.203125 44.792969 40.328125 44.867188 40.457031 C 44.878906 40.476562 44.890625 40.496094 44.902344 40.519531 C 45.074219 40.796875 45.265625 41.0625 45.488281 41.300781 C 45.492188 41.308594 45.5 41.3125 45.5 41.316406 C 45.832031 41.675781 46.214844 41.984375 46.632812 42.234375 C 46.679688 42.261719 46.726562 42.289062 46.777344 42.3125 C 47.171875 42.539062 47.605469 42.710938 48.058594 42.816406 C 48.085938 42.824219 48.117188 42.828125 48.144531 42.832031 C 48.503906 42.917969 48.878906 42.964844 49.261719 42.964844 C 49.386719 42.964844 49.507812 42.957031 49.625 42.945312 C 49.644531 42.945312 49.667969 42.941406 49.6875 42.941406 C 49.835938 42.929688 49.984375 42.914062 50.125 42.890625 C 50.132812 42.890625 50.136719 42.882812 50.144531 42.882812 C 50.308594 42.855469 50.46875 42.824219 50.625 42.777344 C 50.632812 42.777344 50.644531 42.769531 50.648438 42.769531 C 50.808594 42.726562 50.960938 42.679688 51.109375 42.617188 C 51.121094 42.613281 51.136719 42.609375 51.148438 42.609375 C 51.449219 42.484375 51.746094 42.332031 52.019531 42.15625 C 52.019531 42.15625 52.023438 42.15625 52.023438 42.15625 C 52.164062 42.066406 52.300781 41.96875 52.433594 41.859375 C 52.433594 41.859375 52.433594 41.859375 52.433594 41.855469 C 52.5625 41.753906 52.695312 41.644531 52.8125 41.527344 C 52.835938 41.511719 52.851562 41.492188 52.871094 41.476562 C 52.972656 41.367188 53.066406 41.265625 53.160156 41.152344 C 53.171875 41.144531 53.183594 41.125 53.191406 41.113281 C 53.398438 40.867188 53.585938 40.601562 53.738281 40.316406 C 53.738281 40.3125 53.742188 40.304688 53.742188 40.304688 C 54.136719 39.582031 54.363281 38.761719 54.363281 37.886719 C 54.363281 37.8125 54.359375 37.742188 54.359375 37.671875 C 54.351562 37.5 54.335938 37.335938 54.3125 37.171875 C 54.304688 37.148438 54.304688 37.132812 54.300781 37.109375 C 54.277344 36.964844 54.25 36.816406 54.214844 36.667969 C 54.210938 36.652344 54.203125 36.636719 54.199219 36.613281 C 54.117188 36.300781 54.011719 36.003906 53.875 35.714844 C 53.867188 35.707031 53.863281 35.695312 53.859375 35.683594 C 53.414062 34.773438 52.710938 34.011719 51.835938 33.503906 C 51.832031 33.496094 51.824219 33.496094 51.820312 33.492188 C 51.527344 33.328125 51.226562 33.1875 50.910156 33.078125 C 50.90625 33.078125 50.898438 33.074219 50.894531 33.074219 C 50.738281 33.023438 50.582031 32.976562 50.421875 32.941406 C 50.417969 32.9375 50.40625 32.9375 50.398438 32.9375 C 50.09375 32.867188 49.78125 32.824219 49.449219 32.8125 C 49.421875 32.8125 49.386719 32.808594 49.355469 32.808594 C 49.324219 32.808594 49.296875 32.808594 49.261719 32.808594 "/>
<path style=" stroke:none;fill-rule:nonzero;fill:url(#linear0);fill-opacity:1;" d="M 14.847656 44.230469 C 14.722656 44.230469 14.609375 44.230469 14.484375 44.242188 C 14.46875 44.242188 14.449219 44.242188 14.433594 44.246094 C 14.28125 44.257812 14.132812 44.28125 13.984375 44.304688 C 13.980469 44.304688 13.96875 44.308594 13.960938 44.308594 C 13.804688 44.339844 13.640625 44.371094 13.484375 44.410156 C 13.480469 44.417969 13.472656 44.417969 13.46875 44.417969 C 13.320312 44.460938 13.171875 44.511719 13.03125 44.5625 C 13.015625 44.570312 12.996094 44.582031 12.980469 44.585938 C 12.839844 44.644531 12.703125 44.699219 12.566406 44.769531 C 12.554688 44.777344 12.539062 44.785156 12.519531 44.789062 C 12.226562 44.941406 11.941406 45.125 11.679688 45.328125 C 11.679688 45.332031 11.675781 45.332031 11.675781 45.339844 C 11.425781 45.53125 11.203125 45.75 11 45.988281 C 10.96875 46.019531 10.945312 46.046875 10.925781 46.074219 C 10.839844 46.171875 10.761719 46.277344 10.6875 46.386719 C 10.667969 46.40625 10.644531 46.429688 10.628906 46.453125 C 10.261719 46.996094 9.992188 47.617188 9.855469 48.285156 C 9.851562 48.3125 9.84375 48.347656 9.839844 48.375 C 9.816406 48.511719 9.789062 48.652344 9.777344 48.789062 C 9.777344 48.792969 9.777344 48.800781 9.777344 48.800781 C 9.761719 48.96875 9.75 49.132812 9.75 49.308594 C 9.753906 49.375 9.753906 49.449219 9.753906 49.519531 C 9.761719 49.671875 9.777344 49.824219 9.792969 49.976562 C 9.800781 50.003906 9.804688 50.03125 9.8125 50.066406 C 9.964844 51.078125 10.414062 51.996094 11.078125 52.71875 C 11.101562 52.746094 11.125 52.769531 11.144531 52.792969 C 11.230469 52.890625 11.328125 52.980469 11.417969 53.0625 C 11.441406 53.085938 11.464844 53.105469 11.488281 53.125 C 11.84375 53.441406 12.257812 53.703125 12.703125 53.914062 C 12.726562 53.925781 12.746094 53.933594 12.769531 53.945312 C 13.054688 54.070312 13.355469 54.179688 13.667969 54.25 C 13.683594 54.25 13.695312 54.257812 13.710938 54.257812 C 13.859375 54.292969 14.019531 54.320312 14.171875 54.335938 C 14.179688 54.34375 14.183594 54.34375 14.191406 54.34375 C 14.40625 54.371094 14.628906 54.386719 14.847656 54.386719 C 14.96875 54.386719 15.085938 54.382812 15.207031 54.371094 C 15.230469 54.371094 15.246094 54.371094 15.269531 54.371094 C 15.421875 54.355469 15.570312 54.335938 15.71875 54.3125 C 15.730469 54.308594 15.742188 54.308594 15.75 54.304688 C 15.90625 54.273438 16.0625 54.242188 16.210938 54.199219 C 16.21875 54.199219 16.222656 54.195312 16.230469 54.195312 C 16.71875 54.058594 17.183594 53.851562 17.601562 53.578125 C 17.636719 53.5625 17.664062 53.539062 17.699219 53.515625 C 17.808594 53.441406 17.914062 53.371094 18.015625 53.285156 C 18.015625 53.285156 18.023438 53.285156 18.023438 53.277344 C 18.152344 53.175781 18.277344 53.070312 18.398438 52.949219 C 18.414062 52.933594 18.4375 52.917969 18.453125 52.898438 C 18.558594 52.792969 18.652344 52.691406 18.75 52.578125 C 18.75 52.578125 18.75 52.570312 18.753906 52.570312 C 18.863281 52.449219 18.960938 52.3125 19.058594 52.175781 C 19.0625 52.164062 19.066406 52.152344 19.074219 52.140625 C 19.164062 52.011719 19.246094 51.882812 19.324219 51.742188 C 19.324219 51.734375 19.328125 51.730469 19.328125 51.730469 C 19.566406 51.292969 19.742188 50.820312 19.847656 50.316406 C 19.847656 50.304688 19.847656 50.289062 19.851562 50.277344 C 19.910156 49.964844 19.941406 49.636719 19.941406 49.308594 C 19.941406 49.21875 19.941406 49.132812 19.9375 49.050781 C 19.898438 48.1875 19.636719 47.386719 19.214844 46.691406 C 19.214844 46.683594 19.210938 46.679688 19.210938 46.671875 C 19.125 46.539062 19.027344 46.398438 18.933594 46.265625 C 18.914062 46.25 18.898438 46.226562 18.878906 46.210938 C 18.691406 45.960938 18.476562 45.730469 18.246094 45.519531 C 18.222656 45.503906 18.203125 45.484375 18.183594 45.46875 C 17.714844 45.074219 17.1875 44.757812 16.601562 44.542969 C 16.585938 44.535156 16.570312 44.53125 16.550781 44.523438 C 16.535156 44.511719 16.519531 44.507812 16.496094 44.503906 C 16.484375 44.503906 16.472656 44.496094 16.457031 44.492188 C 16.171875 44.398438 15.875 44.328125 15.574219 44.285156 C 15.53125 44.28125 15.492188 44.269531 15.445312 44.265625 C 15.3125 44.253906 15.179688 44.242188 15.046875 44.234375 C 15.003906 44.234375 14.960938 44.230469 14.921875 44.230469 C 14.898438 44.230469 14.871094 44.230469 14.847656 44.230469 "/>
<path style=" stroke:none;fill-rule:nonzero;fill:url(#linear0);fill-opacity:1;" d="M 37.792969 44.230469 C 37.671875 44.230469 37.546875 44.230469 37.429688 44.242188 C 37.417969 44.242188 37.398438 44.242188 37.382812 44.246094 C 37.234375 44.257812 37.097656 44.277344 36.957031 44.296875 C 36.933594 44.304688 36.90625 44.308594 36.882812 44.316406 C 36.730469 44.34375 36.578125 44.371094 36.429688 44.410156 C 36.421875 44.417969 36.417969 44.417969 36.410156 44.417969 C 36.265625 44.460938 36.117188 44.511719 35.972656 44.5625 C 35.957031 44.570312 35.941406 44.582031 35.917969 44.585938 C 35.78125 44.636719 35.652344 44.699219 35.519531 44.761719 C 35.496094 44.773438 35.46875 44.785156 35.445312 44.796875 C 35.15625 44.949219 34.878906 45.128906 34.628906 45.328125 C 34.621094 45.332031 34.617188 45.332031 34.617188 45.339844 C 34.375 45.53125 34.144531 45.75 33.941406 45.988281 C 33.914062 46.011719 33.890625 46.039062 33.867188 46.070312 C 33.769531 46.183594 33.6875 46.300781 33.601562 46.417969 C 33.59375 46.429688 33.582031 46.441406 33.578125 46.449219 C 33.113281 47.125 32.804688 47.929688 32.71875 48.789062 C 32.71875 48.792969 32.71875 48.792969 32.71875 48.800781 C 32.703125 48.96875 32.691406 49.132812 32.691406 49.308594 C 32.691406 49.394531 32.691406 49.484375 32.699219 49.570312 C 32.714844 49.886719 32.761719 50.191406 32.835938 50.484375 C 32.839844 50.507812 32.84375 50.53125 32.851562 50.546875 C 33.054688 51.367188 33.464844 52.113281 34.019531 52.71875 C 34.042969 52.742188 34.066406 52.769531 34.089844 52.792969 C 34.175781 52.882812 34.269531 52.972656 34.363281 53.0625 C 34.382812 53.085938 34.414062 53.105469 34.433594 53.125 C 34.542969 53.222656 34.664062 53.320312 34.78125 53.410156 C 34.792969 53.414062 34.800781 53.421875 34.808594 53.425781 C 35.070312 53.617188 35.355469 53.78125 35.65625 53.917969 C 35.667969 53.925781 35.679688 53.929688 35.691406 53.933594 C 35.972656 54.058594 36.277344 54.160156 36.585938 54.242188 C 36.617188 54.246094 36.644531 54.25 36.671875 54.257812 C 36.820312 54.292969 36.96875 54.3125 37.121094 54.335938 C 37.128906 54.335938 37.128906 54.34375 37.132812 54.34375 C 37.347656 54.371094 37.570312 54.386719 37.792969 54.386719 C 37.910156 54.386719 38.03125 54.382812 38.148438 54.371094 C 38.171875 54.363281 38.195312 54.363281 38.21875 54.359375 C 38.367188 54.347656 38.511719 54.335938 38.65625 54.3125 C 38.660156 54.308594 38.667969 54.308594 38.671875 54.308594 C 38.835938 54.28125 38.996094 54.242188 39.15625 54.199219 C 39.160156 54.195312 39.167969 54.195312 39.171875 54.195312 C 39.664062 54.054688 40.125 53.851562 40.546875 53.578125 C 40.582031 53.554688 40.609375 53.539062 40.644531 53.515625 C 40.75 53.441406 40.859375 53.363281 40.960938 53.285156 C 40.984375 53.261719 41.007812 53.246094 41.027344 53.222656 C 41.136719 53.136719 41.246094 53.046875 41.339844 52.949219 C 41.359375 52.933594 41.382812 52.910156 41.398438 52.894531 C 41.5 52.792969 41.597656 52.683594 41.6875 52.578125 C 41.699219 52.5625 41.710938 52.550781 41.722656 52.539062 C 41.816406 52.417969 41.914062 52.296875 42 52.171875 C 42.003906 52.164062 42.011719 52.152344 42.015625 52.140625 C 42.109375 52.011719 42.1875 51.875 42.265625 51.742188 C 42.265625 51.734375 42.273438 51.730469 42.277344 51.722656 C 42.511719 51.289062 42.6875 50.8125 42.789062 50.316406 C 42.796875 50.289062 42.796875 50.257812 42.800781 50.238281 C 42.859375 49.929688 42.886719 49.625 42.886719 49.304688 C 42.886719 49.234375 42.886719 49.160156 42.886719 49.09375 C 42.875 48.925781 42.863281 48.761719 42.839844 48.589844 C 42.835938 48.574219 42.835938 48.550781 42.828125 48.535156 C 42.753906 48.042969 42.609375 47.574219 42.398438 47.136719 C 42.390625 47.125 42.390625 47.113281 42.386719 47.109375 C 42.238281 46.808594 42.074219 46.527344 41.875 46.265625 C 41.824219 46.203125 41.773438 46.140625 41.722656 46.078125 C 41.566406 45.894531 41.398438 45.710938 41.214844 45.546875 C 41.160156 45.496094 41.097656 45.441406 41.027344 45.390625 C 40.589844 45.027344 40.089844 44.738281 39.546875 44.542969 C 39.53125 44.535156 39.507812 44.523438 39.488281 44.519531 C 39.472656 44.511719 39.457031 44.507812 39.4375 44.503906 C 39.425781 44.496094 39.414062 44.496094 39.398438 44.492188 C 39.113281 44.394531 38.820312 44.328125 38.519531 44.285156 C 38.472656 44.277344 38.429688 44.269531 38.375 44.265625 C 38.25 44.246094 38.121094 44.242188 37.992188 44.234375 C 37.949219 44.234375 37.90625 44.230469 37.867188 44.230469 C 37.84375 44.230469 37.816406 44.230469 37.792969 44.230469 Z M 37.792969 44.230469 "/>
<path style=" stroke:none;fill-rule:nonzero;fill:url(#linear0);fill-opacity:1;" d="M 49.261719 44.230469 C 49.144531 44.230469 49.019531 44.230469 48.90625 44.242188 C 48.886719 44.242188 48.871094 44.242188 48.859375 44.246094 C 48.707031 44.257812 48.558594 44.277344 48.410156 44.296875 C 48.398438 44.304688 48.382812 44.304688 48.367188 44.308594 C 48.210938 44.339844 48.070312 44.371094 47.921875 44.40625 C 47.902344 44.417969 47.878906 44.421875 47.855469 44.429688 C 47.71875 44.46875 47.582031 44.511719 47.445312 44.5625 C 47.429688 44.570312 47.410156 44.582031 47.394531 44.585938 C 47.257812 44.636719 47.121094 44.699219 46.992188 44.761719 C 46.96875 44.773438 46.941406 44.785156 46.917969 44.796875 C 46.628906 44.949219 46.351562 45.128906 46.101562 45.328125 C 46.09375 45.332031 46.09375 45.332031 46.089844 45.339844 C 45.964844 45.441406 45.839844 45.542969 45.726562 45.65625 C 45.714844 45.667969 45.703125 45.671875 45.691406 45.683594 C 45.589844 45.785156 45.488281 45.894531 45.390625 46.007812 C 45.375 46.027344 45.355469 46.050781 45.339844 46.070312 C 45.242188 46.183594 45.15625 46.300781 45.074219 46.417969 C 45.066406 46.429688 45.0625 46.441406 45.050781 46.449219 C 44.769531 46.859375 44.542969 47.3125 44.394531 47.800781 C 44.390625 47.820312 44.378906 47.84375 44.375 47.867188 C 44.292969 48.136719 44.238281 48.421875 44.203125 48.703125 C 44.191406 48.789062 44.1875 48.867188 44.179688 48.945312 C 44.175781 49.066406 44.164062 49.183594 44.164062 49.308594 C 44.164062 49.394531 44.167969 49.484375 44.175781 49.570312 C 44.1875 49.886719 44.238281 50.191406 44.304688 50.484375 C 44.3125 50.507812 44.316406 50.53125 44.324219 50.546875 C 44.527344 51.367188 44.929688 52.113281 45.488281 52.71875 C 45.515625 52.753906 45.550781 52.789062 45.578125 52.816406 C 45.664062 52.898438 45.742188 52.984375 45.832031 53.0625 C 45.84375 53.070312 45.855469 53.082031 45.867188 53.09375 C 46.117188 53.320312 46.394531 53.515625 46.683594 53.6875 C 46.691406 53.6875 46.691406 53.691406 46.691406 53.691406 C 46.832031 53.777344 46.980469 53.851562 47.132812 53.917969 C 47.140625 53.925781 47.152344 53.929688 47.164062 53.933594 C 47.445312 54.058594 47.746094 54.160156 48.058594 54.242188 C 48.085938 54.246094 48.117188 54.25 48.144531 54.257812 C 48.503906 54.335938 48.878906 54.386719 49.261719 54.386719 C 49.386719 54.386719 49.507812 54.382812 49.625 54.371094 C 49.644531 54.363281 49.667969 54.363281 49.6875 54.359375 C 49.835938 54.347656 49.984375 54.335938 50.125 54.3125 C 50.132812 54.308594 50.136719 54.308594 50.144531 54.308594 C 50.308594 54.28125 50.46875 54.242188 50.625 54.199219 C 50.632812 54.195312 50.636719 54.195312 50.644531 54.195312 C 51.132812 54.054688 51.597656 53.851562 52.019531 53.578125 C 52.019531 53.578125 52.023438 53.574219 52.023438 53.574219 C 52.164062 53.484375 52.300781 53.386719 52.433594 53.285156 C 52.433594 53.285156 52.433594 53.277344 52.433594 53.277344 C 52.5625 53.175781 52.695312 53.0625 52.8125 52.949219 C 52.835938 52.933594 52.851562 52.910156 52.871094 52.894531 C 52.972656 52.792969 53.066406 52.683594 53.160156 52.578125 C 53.171875 52.5625 53.183594 52.550781 53.191406 52.539062 C 53.289062 52.417969 53.386719 52.296875 53.472656 52.171875 C 53.476562 52.164062 53.484375 52.152344 53.496094 52.140625 C 53.578125 52.011719 53.664062 51.875 53.738281 51.742188 C 53.738281 51.734375 53.742188 51.730469 53.742188 51.722656 C 54.136719 51.003906 54.363281 50.179688 54.363281 49.304688 C 54.363281 49.234375 54.359375 49.160156 54.359375 49.09375 C 54.347656 48.925781 54.335938 48.761719 54.3125 48.589844 C 54.304688 48.574219 54.304688 48.550781 54.300781 48.535156 C 54.277344 48.382812 54.25 48.234375 54.210938 48.09375 C 54.210938 48.070312 54.203125 48.054688 54.199219 48.035156 C 54.160156 47.890625 54.113281 47.75 54.0625 47.605469 C 54.0625 47.589844 54.054688 47.574219 54.050781 47.5625 C 53.992188 47.414062 53.9375 47.273438 53.867188 47.136719 C 53.867188 47.125 53.863281 47.113281 53.859375 47.109375 C 53.714844 46.808594 53.546875 46.527344 53.347656 46.265625 C 53.300781 46.203125 53.25 46.140625 53.191406 46.078125 C 53.027344 45.882812 52.851562 45.691406 52.660156 45.519531 C 52.652344 45.515625 52.648438 45.515625 52.640625 45.507812 C 52.144531 45.066406 51.558594 44.722656 50.910156 44.503906 C 50.90625 44.503906 50.898438 44.496094 50.894531 44.496094 C 50.605469 44.398438 50.300781 44.328125 49.992188 44.285156 C 49.945312 44.277344 49.898438 44.269531 49.855469 44.265625 C 49.722656 44.246094 49.59375 44.242188 49.460938 44.234375 C 49.421875 44.234375 49.375 44.230469 49.335938 44.230469 C 49.316406 44.230469 49.292969 44.230469 49.261719 44.230469 "/>
</g>
</svg>
