<svg xmlns="http://www.w3.org/2000/svg" xmlns:xlink="http://www.w3.org/1999/xlink" width="64" height="64" viewBox="0 0 64 64" version="1.1">
<defs>
<linearGradient id="linear0" gradientUnits="userSpaceOnUse" x1="0" y1="0" x2="0" y2="1" gradientTransform="matrix(74.65625,0,0,74.666667,5.338541,5.333333)">
<stop offset="0" style="stop-color:#ff6666;stop-opacity:1;"/>
<stop offset="1" style="stop-color:#d90000;stop-opacity:1;"/>
</linearGradient>
</defs>
<g id="surface1">
<path style=" stroke:none;fill-rule:nonzero;fill:url(#linear0);" d="M 38.59375 2.589844 C 30.964844 3.050781 24.148438 7.414062 21.203125 15.296875 C 21.191406 15.328125 21.179688 15.355469 21.171875 15.386719 C 19.160156 21.464844 19.703125 26.167969 20.0625 29.511719 C 20.246094 31.179688 20.347656 32.492188 20.210938 33.503906 C 20.070312 34.515625 19.789062 35.269531 18.898438 36.285156 C 18.894531 36.285156 18.898438 36.285156 18.894531 36.289062 L 6.121094 49.566406 L 6.234375 49.457031 C 3.007812 52.417969 2.835938 56.90625 5.109375 59.472656 C 7.386719 62.039062 11.960938 62.269531 15.140625 59.214844 C 15.152344 59.203125 15.164062 59.195312 15.175781 59.183594 L 28.890625 45.5 C 29.882812 44.511719 29.882812 42.90625 28.894531 41.917969 C 27.90625 40.925781 26.300781 40.925781 25.3125 41.914062 L 11.632812 55.558594 C 9.949219 57.175781 9.351562 56.621094 8.898438 56.113281 C 8.449219 55.601562 7.988281 54.726562 9.660156 53.191406 C 9.699219 53.152344 9.738281 53.117188 9.773438 53.078125 L 22.625 39.71875 C 22.652344 39.691406 22.675781 39.660156 22.703125 39.632812 C 24.1875 37.941406 24.976562 36.019531 25.226562 34.191406 C 25.476562 32.359375 25.285156 30.664062 25.101562 28.964844 C 24.734375 25.585938 24.300781 22.121094 25.96875 17.035156 C 29.039062 8.890625 36.539062 5.976562 44.992188 8.320312 C 53.417969 10.894531 57.09375 19.144531 54.65625 27.511719 C 53.035156 32.558594 50.164062 35.304688 46.339844 36.714844 C 42.503906 38.125 37.550781 38.050781 32.222656 36.546875 C 30.875 36.164062 29.476562 36.949219 29.09375 38.296875 C 28.714844 39.644531 29.5 41.042969 30.847656 41.421875 C 36.90625 43.128906 42.90625 43.375 48.089844 41.464844 C 53.273438 39.554688 57.480469 35.335938 59.5 29.019531 C 59.507812 29 59.515625 28.976562 59.519531 28.957031 C 62.644531 18.28125 57.476562 6.808594 46.429688 3.457031 C 46.414062 3.453125 46.394531 3.445312 46.375 3.441406 C 43.765625 2.714844 41.136719 2.433594 38.59375 2.589844 Z M 38.59375 2.589844 "/>
</g>
</svg>
