<svg xmlns="http://www.w3.org/2000/svg" xmlns:xlink="http://www.w3.org/1999/xlink" width="64" height="64" viewBox="0 0 64 64" version="1.1">
<defs> <linearGradient id="linear0" gradientUnits="userSpaceOnUse" x1="0" y1="0" x2="0" y2="1" gradientTransform="matrix(55.992188,0,0,56,4.003906,4)"> <stop offset="0" style="stop-color:#ff6666;stop-opacity:1;"/> <stop offset="1" style="stop-color:#d90000;stop-opacity:1;"/> </linearGradient> </defs>
<g id="surface1">
<path style=" stroke:none;fill-rule:nonzero;fill:url(#linear0);fill-opacity:1;" d="M 25.765625 5.246094 L -2.863281 33.761719 C -4.421875 35.3125 -4.421875 37.828125 -2.863281 39.382812 L 8.425781 50.621094 C 9.988281 52.175781 12.515625 52.171875 14.066406 50.621094 L 42.699219 22.113281 Z M 25.765625 5.246094 "/>
<path style=" stroke:none;fill-rule:nonzero;fill:url(#linear0);fill-opacity:1;" d="M 50.796875 7.703125 L 39.910156 -3.144531 L 31.089844 5.644531 L 41.976562 16.492188 Z M 46.082031 7.074219 L 44.265625 8.878906 L 42.050781 6.671875 L 43.867188 4.863281 Z M 38.675781 3.308594 L 40.496094 1.503906 L 42.703125 3.710938 L 40.886719 5.515625 Z M 38.675781 3.308594 "/>
<path style=" stroke:none;fill-rule:nonzero;fill:url(#linear0);fill-opacity:1;" d="M 45.476562 24.089844 L 16.847656 52.605469 C 15.292969 54.15625 15.292969 56.671875 16.847656 58.226562 L 28.136719 69.46875 C 29.699219 71.019531 32.226562 71.015625 33.777344 69.46875 L 62.410156 40.957031 Z M 45.476562 24.089844 "/>
<path style=" stroke:none;fill-rule:nonzero;fill:url(#linear0);fill-opacity:1;" d="M 70.507812 26.550781 L 59.621094 15.703125 L 50.800781 24.492188 L 61.6875 35.339844 Z M 65.792969 25.917969 L 63.976562 27.722656 L 61.761719 25.515625 L 63.582031 23.707031 Z M 58.390625 22.152344 L 60.207031 20.347656 L 62.421875 22.554688 L 60.605469 24.359375 Z M 58.390625 22.152344 "/>
</g>
</svg>
