<svg xmlns="http://www.w3.org/2000/svg" xmlns:xlink="http://www.w3.org/1999/xlink" width="64" height="64" viewBox="0 0 64 64" version="1.1">
<defs>
<linearGradient id="linear0" gradientUnits="userSpaceOnUse" x1="0" y1="0" x2="0" y2="1" gradientTransform="matrix(56,0,0,64,4,0)">
<stop offset="0" style="stop-color:#ff6666;stop-opacity:1;"/>
<stop offset="1" style="stop-color:#d90000;stop-opacity:1;"/>
</linearGradient>
</defs>
<g id="surface1">
<path style=" stroke:none;fill-rule:nonzero;fill:url(#linear0);" d="M 48.953125 0 L 47.539062 1.585938 L 11.664062 41.734375 L 11.546875 41.929688 C 11.304688 42.367188 10.464844 43.917969 9.210938 46.734375 C 7.953125 49.550781 6.410156 53.398438 5.164062 57.734375 L 4 61.796875 L 7.679688 60.507812 C 11.097656 59.292969 14.429688 57.796875 17.648438 56.039062 C 20.199219 54.652344 21.597656 53.742188 22 53.460938 L 22.179688 53.335938 L 60 12.1875 Z M 56 33.101562 L 56 64 L 60 64 L 60 33.101562 Z M 48 41.929688 L 48 64 L 52 64 L 52 41.929688 Z M 15.5625 43.65625 L 20.4375 49.039062 L 19.726562 49.8125 C 19.753906 49.789062 18.210938 50.8125 15.882812 52.078125 C 15.027344 52.542969 13.738281 53.058594 12.546875 53.570312 L 11.453125 52.359375 C 11.917969 51.042969 12.382812 49.625 12.804688 48.679688 C 13.953125 46.109375 14.875 44.417969 14.859375 44.445312 Z M 40 50.757812 L 40 64 L 44 64 L 44 50.757812 Z M 40 50.757812 "/>
</g>
</svg>
