<svg xmlns="http://www.w3.org/2000/svg" xmlns:xlink="http://www.w3.org/1999/xlink" width="64" height="64" viewBox="0 0 64 64" version="1.1">
<defs>
<linearGradient id="linear0" gradientUnits="userSpaceOnUse" x1="0" y1="0" x2="0" y2="1" gradientTransform="matrix(43.902344,0,0,59.996094,10,2.003906)">
<stop offset="0" style="stop-color:#ff6666;stop-opacity:1;"/>
<stop offset="1" style="stop-color:#d90000;stop-opacity:1;"/>
</linearGradient>
</defs>
<g id="surface1">
<path style=" stroke:none;fill-rule:nonzero;fill:url(#linear0);" d="M 31.953125 2.003906 C 21.140625 2.003906 12.4375 10.703125 12.4375 21.515625 L 12.4375 31.269531 L 10 31.269531 L 10 45.144531 L 10.992188 43.847656 C 12.410156 41.945312 16.1875 39.222656 19.148438 38.054688 C 20.707031 37.4375 24.449219 36.765625 28.675781 36.300781 C 35.042969 35.585938 47.074219 36.148438 51.464844 31.269531 L 51.464844 21.515625 C 51.464844 10.703125 42.761719 2.003906 31.953125 2.003906 Z M 33.550781 4.363281 C 34.476562 4.425781 35.382812 4.527344 36.296875 4.746094 C 39.574219 5.535156 39.945312 6.292969 36.753906 5.660156 C 31.730469 4.664062 25.0625 6.898438 20.976562 10.996094 C 19.753906 12.222656 18.214844 14.25 17.546875 15.492188 C 16.171875 18.058594 16.386719 16.40625 17.851562 13.28125 C 20.527344 7.574219 27.078125 3.988281 33.550781 4.363281 Z M 31.953125 11.757812 C 37.355469 11.757812 41.707031 16.109375 41.707031 21.515625 L 41.707031 31.269531 L 22.195312 31.269531 L 22.195312 21.515625 C 22.195312 16.109375 26.546875 11.757812 31.953125 11.757812 Z M 53.902344 35.554688 L 51.3125 37.6875 C 49.902344 38.886719 47.699219 40.527344 46.359375 41.347656 C 43.613281 43.023438 37.101562 45.386719 35.152344 45.386719 C 34.417969 45.386719 33.988281 45.5625 34.160156 45.84375 C 34.488281 46.371094 38.382812 46.132812 42.46875 45.3125 C 43.8125 45.039062 46.925781 43.824219 49.40625 42.566406 L 53.902344 40.28125 Z M 53.902344 40.8125 L 52.53125 42.71875 C 47.980469 48.992188 40.570312 52.46875 30.273438 53.085938 C 23.398438 53.5 25.914062 54.28125 34.160156 54.304688 C 39.75 54.3125 41.007812 54.140625 44.375 53.007812 C 46.484375 52.300781 48.234375 51.757812 48.339844 51.863281 C 48.722656 52.246094 44.601562 55.660156 42.316406 56.816406 C 37.945312 59.039062 34.964844 59.660156 27.074219 60.019531 C 21.464844 60.273438 19.164062 60.5625 18.078125 61.164062 C 16.699219 61.921875 17.609375 61.976562 35.230469 62 L 53.902344 62 Z M 53.902344 40.8125 "/>
</g>
</svg>
