<svg xmlns="http://www.w3.org/2000/svg" xmlns:xlink="http://www.w3.org/1999/xlink" width="64" height="64" viewBox="0 0 64 64" version="1.1">
<defs> <linearGradient id="linear0" gradientUnits="userSpaceOnUse" x1="0" y1="0" x2="0" y2="1" gradientTransform="matrix(55.992188,0,0,56,4.003906,4)"> <stop offset="0" style="stop-color:#ff6666;stop-opacity:1;"/> <stop offset="1" style="stop-color:#d90000;stop-opacity:1;"/> </linearGradient> </defs>
<g id="surface1">
<path style=" stroke:none;fill-rule:evenodd;fill:url(#linear0);fill-opacity:1;" d="M 60.96875 38.929688 C 60.96875 45.21875 55.886719 50.320312 49.617188 50.320312 L 14.496094 50.320312 C 8.226562 50.320312 3.144531 45.21875 3.144531 38.929688 C 3.144531 33.253906 7.289062 28.546875 12.714844 27.683594 C 12.644531 27.285156 12.605469 26.875 12.605469 26.457031 C 12.605469 22.46875 15.824219 19.238281 19.796875 19.238281 C 21.566406 19.238281 23.191406 19.882812 24.445312 20.953125 C 26.679688 15.902344 29.539062 11.292969 37.570312 11.292969 C 47.308594 11.292969 51.925781 18.832031 51.925781 26.785156 C 51.925781 27.117188 51.914062 27.445312 51.894531 27.773438 C 57.066406 28.832031 60.960938 33.421875 60.960938 38.929688 "/>
</g>
</svg>
