<svg xmlns="http://www.w3.org/2000/svg" xmlns:xlink="http://www.w3.org/1999/xlink" width="64" height="64" viewBox="0 0 64 64" version="1.1">
<defs>
<linearGradient id="linear0" gradientUnits="userSpaceOnUse" x1="0" y1="0" x2="0" y2="1" gradientTransform="matrix(64,0,0,59.429688,0,2.285156)">
<stop offset="0" style="stop-color:#ff6666;stop-opacity:1;"/>
<stop offset="1" style="stop-color:#d90000;stop-opacity:1;"/>
</linearGradient>
</defs>
<g id="surface1">
<path style=" stroke:none;fill-rule:evenodd;fill:url(#linear0);" d="M 16 25.144531 C 19.789062 25.144531 22.855469 28.210938 22.855469 32 C 22.855469 35.789062 19.789062 38.855469 16 38.855469 C 12.210938 38.855469 9.144531 35.789062 9.144531 32 C 9.144531 28.210938 12.210938 25.144531 16 25.144531 Z M 48 25.144531 C 51.789062 25.144531 54.855469 28.210938 54.855469 32 C 54.855469 35.789062 51.789062 38.855469 48 38.855469 C 44.210938 38.855469 41.144531 35.789062 41.144531 32 C 41.144531 28.210938 44.210938 25.144531 48 25.144531 Z M 4.570312 43.429688 L 4.570312 41.976562 L 4.570312 43.253906 L 4.570312 26.667969 L 0 21.714844 L 8 13.714844 L 11.835938 17.085938 L 19.199219 13.714844 L 17.601562 5.714844 L 25.335938 2.441406 L 25.601562 2.285156 L 28.332031 6.855469 L 35.664062 6.855469 L 38.398438 2.285156 L 46.398438 5.714844 L 44.800781 13.714844 L 52.164062 17.085938 L 56 13.714844 L 64 21.714844 L 59.429688 26.667969 L 59.429688 43.253906 L 59.429688 41.976562 L 59.429688 43.429688 L 48 43.429688 L 48 48 L 38.855469 48 L 38.855469 43.429688 L 32 43.429688 L 32 45.710938 L 36.570312 45.710938 L 36.570312 50.285156 L 50.285156 50.285156 L 50.285156 45.710938 L 59.429688 45.710938 L 59.429688 47.308594 C 59.429688 47.308594 54.855469 61.714844 32 61.714844 C 9.144531 61.714844 4.570312 47.308594 4.570312 47.308594 L 4.570312 45.710938 L 13.714844 45.710938 L 13.714844 50.285156 L 27.429688 50.285156 L 27.429688 45.710938 L 32 45.710938 L 32 43.429688 L 25.144531 43.429688 L 25.144531 48 L 16 48 L 16 43.429688 Z M 32 29.714844 C 33.269531 29.714844 34.285156 30.734375 34.285156 32 L 34.285156 36.570312 C 34.285156 37.839844 33.269531 38.855469 32 38.855469 C 30.730469 38.855469 29.714844 37.839844 29.714844 36.570312 L 29.714844 32 C 29.714844 30.734375 30.730469 29.714844 32 29.714844 Z M 32 29.714844 "/>
</g>
</svg>
