<svg xmlns="http://www.w3.org/2000/svg" xmlns:xlink="http://www.w3.org/1999/xlink" width="64" height="64" viewBox="0 0 64 64" version="1.1">
<defs> <linearGradient id="linear0" gradientUnits="userSpaceOnUse" x1="0" y1="0" x2="0" y2="1" gradientTransform="matrix(55.992188,0,0,56,4.003906,4)"> <stop offset="0" style="stop-color:#ff6666;stop-opacity:1;"/> <stop offset="1" style="stop-color:#d90000;stop-opacity:1;"/> </linearGradient> </defs>
<g id="surface1">
<path style=" stroke:none;fill-rule:evenodd;fill:url(#linear0);fill-opacity:1;" d="M 72.554688 31.640625 C 72.554688 54.207031 54.179688 72.507812 31.515625 72.507812 C 8.855469 72.507812 -9.519531 54.207031 -9.519531 31.640625 C -9.519531 9.070312 8.855469 -9.222656 31.515625 -9.222656 C 54.179688 -9.222656 72.554688 9.070312 72.554688 31.640625 "/>
<path style=" stroke:none;fill-rule:nonzero;fill:url(#linear0);fill-opacity:1;" d="M 6.046875 13.585938 C 4.648438 14.96875 4.65625 17.210938 6.046875 18.59375 L 17.882812 30.378906 C 17.738281 31.5625 17.746094 32.761719 17.898438 33.949219 L 6.046875 45.75 C 4.648438 47.136719 4.65625 49.375 6.046875 50.761719 L 13.390625 58.074219 C 14.785156 59.460938 17.023438 59.460938 18.421875 58.074219 L 30.171875 46.375 C 31.4375 46.554688 32.71875 46.570312 33.988281 46.417969 L 45.691406 58.074219 C 47.082031 59.460938 49.324219 59.460938 50.71875 58.074219 L 58.058594 50.761719 C 59.457031 49.371094 59.457031 47.136719 58.066406 45.75 L 46.566406 34.300781 C 46.789062 32.886719 46.789062 31.445312 46.582031 30.023438 L 58.058594 18.59375 C 59.457031 17.203125 59.457031 14.96875 58.066406 13.585938 L 50.722656 6.273438 C 49.324219 4.886719 47.082031 4.886719 45.6875 6.273438 L 34.105469 17.804688 C 32.761719 17.632812 31.390625 17.648438 30.050781 17.855469 L 18.421875 6.273438 C 17.03125 4.886719 14.78125 4.886719 13.390625 6.273438 L 6.046875 13.585938 M 21.238281 22.75 C 21.191406 22.808594 21.140625 22.863281 21.089844 22.921875 C 21.140625 22.863281 21.191406 22.808594 21.238281 22.75 M 20.515625 23.667969 C 20.464844 23.734375 20.414062 23.804688 20.367188 23.875 C 20.414062 23.804688 20.464844 23.734375 20.515625 23.667969 M 19.785156 24.777344 C 19.75 24.828125 19.722656 24.882812 19.6875 24.933594 C 19.722656 24.882812 19.75 24.828125 19.785156 24.777344 M 23.632812 23.519531 C 28.394531 18.777344 36.117188 18.777344 40.875 23.519531 C 45.632812 28.261719 45.632812 35.949219 40.875 40.691406 C 36.117188 45.429688 28.394531 45.429688 23.632812 40.691406 C 18.875 35.945312 18.875 28.261719 23.632812 23.519531 M 37.820312 18.792969 C 37.996094 18.867188 38.179688 18.945312 38.347656 19.023438 C 38.171875 18.945312 37.996094 18.867188 37.820312 18.792969 M 40.519531 20.261719 C 40.589844 20.3125 40.660156 20.363281 40.734375 20.421875 C 40.660156 20.363281 40.589844 20.3125 40.519531 20.261719 M 20.375 40.351562 C 20.417969 40.417969 20.472656 40.480469 20.523438 40.550781 C 20.472656 40.480469 20.417969 40.417969 20.375 40.351562 M 39.457031 44.613281 C 39.507812 44.585938 39.558594 44.554688 39.613281 44.523438 C 39.558594 44.554688 39.507812 44.585938 39.457031 44.613281 M 40.519531 43.941406 C 40.585938 43.898438 40.660156 43.847656 40.726562 43.796875 C 40.652344 43.847656 40.585938 43.898438 40.519531 43.941406 M 41.472656 43.222656 C 41.535156 43.171875 41.589844 43.121094 41.648438 43.078125 C 41.589844 43.121094 41.535156 43.171875 41.472656 43.222656 "/>
</g>
</svg>
