<svg xmlns="http://www.w3.org/2000/svg" xmlns:xlink="http://www.w3.org/1999/xlink" width="64" height="64" viewBox="0 0 64 64" version="1.1">
<defs> <linearGradient id="linear0" gradientUnits="userSpaceOnUse" x1="0" y1="0" x2="0" y2="1" gradientTransform="matrix(55.992188,0,0,56,4.003906,4)"> <stop offset="0" style="stop-color:#ff6666;stop-opacity:1;"/> <stop offset="1" style="stop-color:#d90000;stop-opacity:1;"/> </linearGradient> </defs>
<g id="surface1">
<path style=" stroke:none;fill-rule:nonzero;fill:url(#linear0);fill-opacity:1;" d="M 24.777344 5.027344 C 24.128906 5.027344 22.617188 5.0625 20.8125 5.390625 C 16.546875 6.160156 10.644531 8.964844 8.976562 14.804688 C 6.398438 23.84375 13.042969 27.429688 13.042969 27.429688 C 13.042969 27.429688 15.371094 28.792969 16.332031 29.058594 C 19.222656 29.859375 22.292969 29.488281 22.292969 29.488281 C 22.292969 29.488281 21.066406 33.53125 23.527344 36.386719 C 24.109375 37.070312 23.683594 37.085938 23.683594 37.085938 C 23.683594 37.085938 12.953125 36.816406 7.863281 42.1875 C 2.78125 47.566406 5.535156 52.511719 5.535156 52.511719 C 5.535156 52.511719 8.199219 58.980469 19.699219 59.308594 C 31.25 59.636719 38.386719 52.820312 39.011719 47.679688 C 39.324219 45.097656 38.972656 42.679688 37.671875 40.558594 C 36.40625 38.5 34.238281 36.730469 32.113281 35 C 30.796875 33.925781 29.875 33.371094 29.285156 32.753906 C 28.726562 32.171875 28.636719 31.421875 28.65625 30.855469 C 28.683594 30.070312 29.097656 29.109375 30.484375 27.507812 C 33.011719 24.589844 33.65625 24.953125 35.183594 22.769531 C 35.644531 22.113281 35.972656 21.164062 36.445312 19.738281 C 36.730469 18.882812 36.683594 17.988281 36.683594 17.164062 C 36.683594 15.375 36.253906 13.679688 35.539062 12.242188 C 34.207031 9.578125 31.917969 7.84375 31.875 7.714844 L 35.882812 7.714844 L 40.421875 5.066406 L 25.109375 5.027344 L 24.777344 5.027344 M 21.488281 7.503906 C 23.820312 7.523438 27.332031 8.730469 29.433594 15.007812 C 33.039062 25.789062 25.484375 27.429688 25.484375 27.429688 C 25.484375 27.429688 16.824219 28.757812 15.234375 19.171875 C 13.609375 9.410156 17.5625 8.882812 19.109375 7.917969 C 19.109375 7.917969 20.085938 7.5 21.488281 7.503906 M 48.773438 18.90625 L 48.773438 29.191406 L 38.5 29.191406 L 38.5 35.296875 L 48.773438 35.296875 L 48.773438 45.441406 L 54.902344 45.441406 L 54.902344 35.296875 L 65.148438 35.296875 L 65.148438 29.191406 L 54.902344 29.191406 L 54.902344 18.90625 L 48.773438 18.90625 M 26.269531 39.257812 C 26.269531 39.257812 33.164062 43.46875 33.8125 46.550781 C 34.539062 50.003906 34.582031 52.519531 29.320312 55.277344 C 27.769531 56.089844 25.042969 56.1875 23.320312 56.191406 C 19.101562 56.207031 15.921875 54.597656 14.34375 53.78125 C 13.527344 53.363281 8.976562 48.28125 12.34375 43.726562 C 13.191406 42.585938 14.128906 42.074219 14.996094 41.492188 C 16.851562 40.253906 18.675781 39.671875 22.105469 39.371094 C 23.246094 39.277344 24.777344 39.359375 26.269531 39.257812 "/>
</g>
</svg>
