<svg xmlns="http://www.w3.org/2000/svg" xmlns:xlink="http://www.w3.org/1999/xlink" width="64" height="64" viewBox="0 0 64 64" version="1.1">
<defs>
<linearGradient id="linear0" gradientUnits="userSpaceOnUse" x1="0" y1="0" x2="0" y2="1" gradientTransform="matrix(53.707031,0,0,60,5.601562,2)">
<stop offset="0" style="stop-color:#ff6666;stop-opacity:1;"/>
<stop offset="1" style="stop-color:#d90000;stop-opacity:1;"/>
</linearGradient>
</defs>
<g id="surface1">
<path style=" stroke:none;fill-rule:nonzero;fill:url(#linear0);" d="M 8.675781 61.871094 C 8.320312 61.769531 7.914062 61.628906 7.773438 61.550781 C 7.289062 61.292969 6.433594 60.414062 6.179688 59.921875 C 5.574219 58.738281 5.601562 59.953125 5.601562 31.988281 C 5.601562 4 5.574219 5.242188 6.183594 4.050781 C 6.542969 3.347656 7.554688 2.476562 8.320312 2.210938 C 9.121094 1.929688 10.648438 1.929688 11.597656 2.207031 C 12.011719 2.332031 14.9375 3.933594 19.023438 6.273438 L 25.765625 10.132812 L 27.199219 9.875 C 36.9375 8.101562 46.792969 12.859375 51.609375 21.664062 C 52.117188 22.589844 53.132812 24.972656 53.300781 25.632812 C 53.359375 25.875 53.8125 26.1875 55.398438 27.09375 C 56.945312 27.972656 57.582031 28.414062 58.097656 28.953125 C 59.078125 29.984375 59.308594 30.5625 59.308594 31.988281 C 59.308594 33.007812 59.269531 33.234375 58.972656 33.835938 C 58.285156 35.238281 58.195312 35.296875 45.5625 42.519531 C 39.140625 46.191406 29.042969 51.96875 23.121094 55.359375 C 17.148438 58.777344 12.0625 61.613281 11.695312 61.726562 C 10.722656 62.027344 9.449219 62.085938 8.675781 61.871094 Z M 28.386719 49.472656 C 30.722656 48.132812 32.648438 47.019531 32.667969 47 C 32.691406 46.980469 31.984375 46.957031 31.097656 46.953125 C 28.730469 46.941406 26.800781 46.476562 24.722656 45.417969 C 20.769531 43.402344 17.949219 39.628906 17.074219 35.167969 C 16.835938 33.957031 16.867188 31.039062 17.136719 29.789062 C 17.878906 26.300781 19.804688 23.25 22.574219 21.167969 C 25.453125 18.996094 29 17.972656 32.484375 18.300781 C 36.410156 18.671875 39.78125 20.425781 42.25 23.386719 C 44.496094 26.085938 45.585938 29.089844 45.589844 32.601562 C 45.59375 35.601562 44.78125 38.242188 43.058594 40.835938 L 42.824219 41.1875 L 43.253906 40.957031 C 43.488281 40.832031 45.449219 39.714844 47.605469 38.476562 C 50.359375 36.898438 51.554688 36.148438 51.601562 35.972656 C 51.640625 35.832031 51.738281 35.015625 51.820312 34.160156 C 52.0625 31.550781 51.726562 28.851562 50.820312 26.109375 C 46.71875 13.761719 32.414062 8.289062 21 14.707031 C 17.738281 16.542969 14.5 19.941406 12.816406 23.300781 C 8.164062 32.574219 11.085938 43.890625 19.617188 49.671875 C 21.285156 50.800781 23.398438 51.894531 23.945312 51.90625 C 24.054688 51.90625 26.054688 50.8125 28.386719 49.472656 Z M 31.8125 39.113281 C 32.480469 38.765625 33.203125 38.039062 33.472656 37.4375 C 33.679688 36.980469 33.699219 36.558594 33.703125 32.507812 L 33.707031 28.078125 L 36.882812 28.078125 L 36.882812 24.535156 L 31.875 24.535156 L 31.875 28.875 C 31.875 31.257812 31.851562 33.210938 31.828125 33.210938 C 31.800781 33.210938 31.546875 33.128906 31.261719 33.027344 C 30.410156 32.726562 29.578125 32.789062 28.714844 33.222656 C 26.257812 34.449219 26.28125 37.980469 28.75 39.160156 C 29.28125 39.414062 29.503906 39.449219 30.34375 39.410156 C 31.023438 39.378906 31.472656 39.285156 31.8125 39.109375 Z M 31.8125 39.113281 "/>
</g>
</svg>
