<svg xmlns="http://www.w3.org/2000/svg" xmlns:xlink="http://www.w3.org/1999/xlink" width="64" height="64" viewBox="0 0 64 64" version="1.1">
<defs> <linearGradient id="linear0" gradientUnits="userSpaceOnUse" x1="0" y1="0" x2="0" y2="1" gradientTransform="matrix(55.992188,0,0,56,4.003906,4)"> <stop offset="0" style="stop-color:#ff6666;stop-opacity:1;"/> <stop offset="1" style="stop-color:#d90000;stop-opacity:1;"/> </linearGradient> </defs>
<g id="surface1">
<path style=" stroke:none;fill-rule:nonzero;fill:url(#linear0);fill-opacity:1;" d="M 13.304688 10.195312 C 9.761719 10.195312 6.914062 13.035156 6.914062 16.558594 L 6.914062 47.78125 C 6.914062 51.3125 9.761719 54.148438 13.304688 54.148438 L 50.800781 54.148438 C 54.347656 54.148438 57.195312 51.3125 57.195312 47.78125 L 57.195312 16.5625 C 57.195312 13.035156 54.347656 10.195312 50.800781 10.195312 L 13.304688 10.195312 M 12.671875 14.5 L 19.300781 14.5 L 19.300781 19.769531 L 12.679688 19.769531 L 12.679688 14.5 M 44.816406 14.5 L 51.445312 14.5 L 51.445312 19.769531 L 44.824219 19.769531 L 44.824219 14.5 M 12.679688 22.015625 L 19.308594 22.015625 L 19.308594 27.292969 L 12.679688 27.292969 L 12.679688 22.015625 M 44.824219 22.015625 L 51.449219 22.015625 L 51.449219 27.292969 L 44.828125 27.292969 L 44.828125 22.015625 M 12.683594 29.53125 L 19.308594 29.53125 L 19.308594 34.808594 L 12.683594 34.808594 L 12.683594 29.53125 M 44.828125 29.53125 L 51.457031 29.53125 L 51.457031 34.808594 L 44.828125 34.808594 L 44.828125 29.53125 M 12.691406 37.046875 L 19.3125 37.046875 L 19.3125 42.332031 L 12.691406 42.332031 L 12.691406 37.046875 M 44.832031 37.046875 L 51.457031 37.046875 L 51.457031 42.332031 L 44.832031 42.332031 L 44.832031 37.046875 M 12.695312 44.570312 L 19.316406 44.570312 L 19.316406 49.847656 L 12.695312 49.847656 L 12.695312 44.570312 M 44.839844 44.570312 L 51.460938 44.570312 L 51.460938 49.847656 L 44.839844 49.847656 L 44.839844 44.570312 "/>
</g>
</svg>
