<svg xmlns="http://www.w3.org/2000/svg" xmlns:xlink="http://www.w3.org/1999/xlink" width="64" height="64" viewBox="0 0 64 64" version="1.1">
<defs> <linearGradient id="linear0" gradientUnits="userSpaceOnUse" x1="0" y1="0" x2="0" y2="1" gradientTransform="matrix(55.992188,0,0,56,4.003906,4)"> <stop offset="0" style="stop-color:#ff6666;stop-opacity:1;"/> <stop offset="1" style="stop-color:#d90000;stop-opacity:1;"/> </linearGradient> </defs>
<g id="surface1">
<path style=" stroke:none;fill-rule:nonzero;fill:url(#linear0);fill-opacity:1;" d="M 9.761719 7.234375 C 7.011719 7.234375 4.796875 9.445312 4.796875 12.175781 L 4.796875 37.222656 C 4.796875 39.960938 7.011719 42.160156 9.761719 42.160156 L 18.910156 42.160156 L 18.910156 52.175781 C 18.910156 54.914062 21.128906 57.113281 23.871094 57.113281 L 54.351562 57.113281 C 57.101562 57.113281 59.316406 54.914062 59.316406 52.175781 L 59.316406 27.128906 C 59.316406 24.390625 57.101562 22.1875 54.351562 22.1875 L 45.195312 22.1875 L 45.195312 12.175781 C 45.195312 9.4375 42.980469 7.234375 40.234375 7.234375 L 9.761719 7.234375 M 7.953125 12.339844 L 42.046875 12.339844 L 42.046875 37.070312 L 7.953125 37.070312 Z M 45.195312 27.28125 L 56.15625 27.28125 L 56.15625 52.011719 L 22.066406 52.011719 L 22.066406 42.160156 L 40.238281 42.160156 C 42.988281 42.160156 45.203125 39.960938 45.203125 37.222656 L 45.203125 27.28125 "/>
</g>
</svg>
