<svg xmlns="http://www.w3.org/2000/svg" xmlns:xlink="http://www.w3.org/1999/xlink" width="64" height="64" viewBox="0 0 64 64" version="1.1">
<defs> <linearGradient id="linear0" gradientUnits="userSpaceOnUse" x1="0" y1="0" x2="0" y2="1" gradientTransform="matrix(55.992188,0,0,56,4.003906,4)"> <stop offset="0" style="stop-color:#ff6666;stop-opacity:1;"/> <stop offset="1" style="stop-color:#d90000;stop-opacity:1;"/> </linearGradient> </defs>
<g id="surface1">
<path style=" stroke:none;fill-rule:nonzero;fill:url(#linear0);fill-opacity:1;" d="M 12.464844 12.515625 C 10 12.515625 8.003906 14.507812 8.003906 16.960938 C 8.003906 19.410156 10 21.398438 12.464844 21.398438 C 14.929688 21.398438 16.925781 19.410156 16.925781 16.960938 C 16.925781 14.507812 14.929688 12.515625 12.464844 12.515625 M 20.660156 13.90625 L 20.660156 20.015625 L 56.105469 20.015625 L 56.105469 13.90625 Z M 12.464844 27.734375 C 10 27.734375 8.003906 29.722656 8.003906 32.179688 C 8.003906 34.628906 10 36.617188 12.464844 36.617188 C 14.929688 36.617188 16.925781 34.628906 16.925781 32.179688 C 16.925781 29.722656 14.929688 27.734375 12.464844 27.734375 M 20.660156 29.125 L 20.660156 35.234375 L 56.105469 35.234375 L 56.105469 29.125 Z M 12.464844 42.953125 C 10 42.953125 8.003906 44.941406 8.003906 47.398438 C 8.003906 49.851562 10 51.835938 12.464844 51.835938 C 14.929688 51.835938 16.925781 49.851562 16.925781 47.398438 C 16.925781 44.941406 14.929688 42.953125 12.464844 42.953125 M 20.660156 44.34375 L 20.660156 50.453125 L 56.105469 50.453125 L 56.105469 44.34375 Z M 20.660156 44.34375 "/>
</g>
</svg>
