<svg xmlns="http://www.w3.org/2000/svg" xmlns:xlink="http://www.w3.org/1999/xlink" width="64" height="64" viewBox="0 0 64 64" version="1.1">
<defs> <linearGradient id="linear0" gradientUnits="userSpaceOnUse" x1="0" y1="0" x2="0" y2="1" gradientTransform="matrix(55.992188,0,0,56,4.003906,4)"> <stop offset="0" style="stop-color:#ff6666;stop-opacity:1;"/> <stop offset="1" style="stop-color:#d90000;stop-opacity:1;"/> </linearGradient> </defs>
<g id="surface1">
<path style=" stroke:none;fill-rule:nonzero;fill:url(#linear0);fill-opacity:1;" d="M 20.789062 13.308594 L 20.789062 19.441406 L 6.332031 19.441406 L 6.332031 26.40625 L 27.8125 26.40625 L 27.8125 22.523438 L 36.304688 22.523438 L 36.304688 26.40625 L 57.789062 26.40625 L 57.789062 19.441406 L 43.328125 19.441406 L 43.328125 13.308594 L 20.792969 13.308594 M 23.027344 15.535156 L 41.089844 15.535156 L 41.089844 19.441406 L 23.027344 19.441406 Z M 6.335938 28.214844 L 6.335938 51.039062 L 57.789062 51.039062 L 57.789062 28.214844 L 36.304688 28.214844 L 36.304688 32.953125 L 27.8125 32.953125 L 27.8125 28.214844 L 6.332031 28.214844 M 11.664062 37.84375 L 52.421875 37.84375 L 52.421875 41.09375 L 11.664062 41.09375 Z M 11.664062 43.21875 L 52.421875 43.21875 L 52.421875 46.464844 L 11.664062 46.464844 Z M 11.664062 43.21875 "/>
</g>
</svg>
