<svg xmlns="http://www.w3.org/2000/svg" xmlns:xlink="http://www.w3.org/1999/xlink" width="64" height="64" viewBox="0 0 64 64" version="1.1">
<defs> <linearGradient id="linear0" gradientUnits="userSpaceOnUse" x1="0" y1="0" x2="0" y2="1" gradientTransform="matrix(55.992188,0,0,56,4.003906,4)"> <stop offset="0" style="stop-color:#ff6666;stop-opacity:1;"/> <stop offset="1" style="stop-color:#d90000;stop-opacity:1;"/> </linearGradient> </defs>
<g id="surface1">
<path style=" stroke:none;fill-rule:nonzero;fill:url(#linear0);fill-opacity:1;" d="M 32.027344 5.0625 C 27.859375 5.0625 26.082031 5.34375 22.855469 6.503906 C 13.792969 9.773438 7.308594 17.253906 5.199219 26.867188 C 4.722656 29.050781 4.71875 35.121094 5.1875 37.457031 C 5.371094 38.355469 5.675781 39.898438 5.871094 40.894531 C 6.0625 41.890625 6.457031 43.925781 6.746094 45.417969 C 7.035156 46.910156 7.464844 49.132812 7.699219 50.351562 L 8.125 52.566406 L 9.792969 52.566406 C 11.230469 52.566406 11.480469 52.613281 11.558594 52.882812 C 11.613281 53.058594 11.828125 54.140625 12.039062 55.28125 C 12.246094 56.429688 12.464844 57.578125 12.515625 57.84375 C 12.566406 58.109375 12.804688 58.542969 13.046875 58.804688 L 13.492188 59.28125 L 18.277344 59.222656 C 19.101562 59.21875 19.628906 59.207031 20.199219 59.195312 L 15.796875 36.386719 C 13.253906 37.171875 9.976562 38.5 9.304688 39.445312 C 9.175781 39.769531 9.152344 39.75 9.140625 39.320312 C 9.136719 39.054688 8.976562 38.039062 8.789062 37.058594 C 8.601562 36.082031 8.386719 34.570312 8.316406 33.699219 L 8.191406 32.117188 L 8.289062 32.117188 C 8.351562 19.097656 18.964844 8.5625 32.054688 8.5625 C 45.144531 8.5625 55.761719 19.097656 55.824219 32.117188 L 55.867188 32.117188 L 55.8125 32.851562 C 55.792969 33.472656 55.753906 34.089844 55.691406 34.695312 L 55.640625 34.695312 C 55.542969 35.488281 55.402344 36.398438 55.273438 37.058594 C 55.085938 38.039062 54.917969 39.054688 54.914062 39.320312 C 54.902344 39.75 54.886719 39.769531 54.753906 39.445312 C 54.171875 38.105469 50.433594 37.097656 48.242188 36.503906 L 43.855469 59.195312 C 44.425781 59.207031 44.957031 59.21875 45.78125 59.222656 L 50.570312 59.28125 L 51.011719 58.804688 C 51.257812 58.542969 51.496094 58.109375 51.546875 57.84375 C 51.597656 57.578125 51.8125 56.429688 52.023438 55.28125 C 52.234375 54.140625 52.449219 53.058594 52.5 52.882812 C 52.578125 52.613281 52.828125 52.566406 54.273438 52.566406 L 55.949219 52.566406 L 56.828125 47.996094 C 57.308594 45.484375 57.816406 42.863281 57.945312 42.160156 C 58.078125 41.464844 58.355469 40.039062 58.554688 38.992188 C 59.242188 35.441406 59.34375 34.300781 59.234375 31.121094 C 59.09375 26.785156 58.292969 23.601562 56.40625 19.863281 C 53.316406 13.742188 47.777344 8.875 41.199219 6.496094 C 37.980469 5.339844 36.195312 5.0625 32.027344 5.0625 M 43.855469 59.199219 C 41.515625 59.160156 40.988281 59.105469 40.550781 58.859375 C 40.960938 59.105469 41.523438 59.160156 43.855469 59.199219 M 20.199219 59.199219 C 22.53125 59.160156 23.101562 59.105469 23.507812 58.859375 C 23.070312 59.105469 22.542969 59.160156 20.199219 59.199219 M 23.257812 16.34375 C 23.015625 16.484375 22.765625 16.632812 22.527344 16.789062 C 22.765625 16.632812 23.015625 16.484375 23.257812 16.34375 M 22.527344 16.789062 C 22.28125 16.945312 22.050781 17.105469 21.8125 17.28125 C 22.050781 17.105469 22.28125 16.945312 22.527344 16.789062 M 21.453125 17.542969 C 21.214844 17.71875 20.988281 17.90625 20.753906 18.101562 C 20.988281 17.910156 21.21875 17.71875 21.453125 17.542969 M 20.410156 18.398438 C 20.175781 18.59375 19.949219 18.804688 19.722656 19.023438 C 19.949219 18.804688 20.175781 18.59375 20.410156 18.398438 M 19.378906 19.351562 C 19 19.726562 18.640625 20.109375 18.300781 20.507812 C 18.640625 20.109375 19 19.726562 19.378906 19.351562 M 46.707031 21.671875 C 46.894531 21.925781 47.070312 22.191406 47.246094 22.457031 C 47.078125 22.191406 46.894531 21.925781 46.707031 21.671875 M 47.496094 22.84375 C 47.628906 23.050781 47.753906 23.265625 47.871094 23.488281 C 47.753906 23.273438 47.628906 23.050781 47.496094 22.84375 M 48.972656 25.792969 C 49.183594 26.335938 49.371094 26.878906 49.519531 27.441406 C 49.371094 26.878906 49.183594 26.335938 48.972656 25.792969 M 49.519531 27.441406 C 49.671875 27.992188 49.792969 28.554688 49.875 29.121094 C 49.792969 28.554688 49.671875 27.992188 49.519531 27.441406 M 49.949219 29.683594 C 49.984375 29.992188 50.03125 30.265625 50.085938 30.515625 C 50.03125 30.265625 49.984375 29.992188 49.949219 29.683594 M 50.425781 31.425781 C 50.472656 31.507812 50.523438 31.574219 50.574219 31.640625 C 50.523438 31.574219 50.472656 31.507812 50.425781 31.425781 M 55.742188 33.707031 C 55.726562 33.921875 55.703125 34.175781 55.667969 34.457031 C 55.703125 34.179688 55.726562 33.914062 55.742188 33.707031 M 18.023438 35.816406 C 17.863281 35.84375 17.683594 35.882812 17.488281 35.929688 C 17.683594 35.882812 17.863281 35.84375 18.023438 35.816406 M 45.152344 35.859375 C 45.054688 35.859375 44.964844 35.867188 44.875 35.878906 C 44.964844 35.867188 45.054688 35.859375 45.152344 35.859375 M 44.875 35.878906 C 44.699219 35.894531 44.527344 35.929688 44.355469 35.984375 C 44.527344 35.929688 44.691406 35.894531 44.875 35.878906 M 44.355469 35.984375 C 44.273438 36.007812 44.191406 36.042969 44.105469 36.082031 C 44.191406 36.042969 44.273438 36.007812 44.355469 35.984375 M 44.105469 36.082031 C 44.03125 36.109375 43.960938 36.148438 43.886719 36.195312 C 43.960938 36.148438 44.03125 36.109375 44.105469 36.082031 M 45.617188 35.882812 C 45.695312 35.890625 45.777344 35.898438 45.863281 35.917969 C 45.777344 35.898438 45.695312 35.890625 45.617188 35.882812 M 17.335938 35.96875 C 17.125 36.019531 16.898438 36.074219 16.65625 36.144531 C 16.898438 36.074219 17.121094 36.019531 17.335938 35.96875 M 16.65625 36.144531 C 16.40625 36.210938 16.144531 36.285156 15.863281 36.371094 C 16.136719 36.285156 16.40625 36.210938 16.65625 36.144531 M 43.839844 36.21875 C 43.765625 36.257812 43.691406 36.308594 43.613281 36.363281 C 43.691406 36.308594 43.765625 36.257812 43.839844 36.21875 M 43.613281 36.363281 C 43.535156 36.421875 43.453125 36.484375 43.367188 36.550781 C 43.453125 36.484375 43.535156 36.421875 43.613281 36.363281 "/>
<path style=" stroke:none;fill-rule:nonzero;fill:url(#linear0);fill-opacity:1;" d="M 32.054688 8.566406 C 18.972656 8.566406 8.351562 19.105469 8.289062 32.121094 L 10.5 32.121094 C 11.757812 32.121094 12.953125 32.039062 13.144531 31.9375 C 13.652344 31.664062 13.972656 30.914062 14.117188 29.683594 C 14.542969 25.894531 16.347656 22.355469 19.386719 19.351562 C 22.996094 15.773438 26.9375 14.15625 32.027344 14.15625 C 34.757812 14.15625 36.558594 14.488281 38.886719 15.4375 C 44.726562 17.808594 49.269531 23.667969 49.949219 29.683594 C 50.09375 30.914062 50.417969 31.664062 50.921875 31.9375 C 51.113281 32.039062 52.308594 32.121094 53.566406 32.121094 L 55.824219 32.121094 C 55.765625 19.105469 45.144531 8.566406 32.054688 8.566406 M 55.8125 32.859375 L 55.742188 33.707031 C 55.726562 33.984375 55.691406 34.332031 55.640625 34.703125 L 55.691406 34.703125 C 55.761719 34.089844 55.792969 33.480469 55.8125 32.859375 Z M 18.546875 35.742188 C 18.015625 35.777344 16.988281 36.023438 15.804688 36.390625 L 20.203125 59.199219 C 22.878906 59.15625 23.191406 59.09375 23.703125 58.742188 C 24.472656 58.210938 25.066406 57.339844 25.222656 56.503906 C 25.292969 56.117188 25.195312 55.128906 24.972656 53.996094 C 24.769531 52.960938 24.558594 51.875 24.515625 51.578125 C 24.464844 51.277344 24.054688 49.117188 23.613281 46.78125 C 23.164062 44.441406 22.753906 42.285156 22.703125 41.984375 C 22.207031 39.179688 21.980469 38.140625 21.765625 37.726562 C 21.226562 36.6875 19.691406 35.742188 18.546875 35.742188 M 45.15625 35.859375 C 44.394531 35.867188 43.8125 36.136719 43.105469 36.769531 C 42.726562 37.109375 42.328125 37.652344 42.226562 37.96875 C 42.125 38.285156 41.597656 40.867188 41.058594 43.703125 C 40.511719 46.539062 40.019531 49.105469 39.957031 49.40625 C 39.894531 49.703125 39.808594 50.191406 39.761719 50.492188 C 39.71875 50.789062 39.460938 52.085938 39.199219 53.382812 C 38.898438 54.863281 38.769531 55.988281 38.835938 56.421875 C 38.980469 57.300781 39.570312 58.195312 40.371094 58.742188 C 40.882812 59.09375 41.1875 59.15625 43.863281 59.199219 L 48.246094 36.511719 C 47.957031 36.433594 47.597656 36.335938 47.378906 36.273438 C 46.441406 36.003906 45.75 35.855469 45.15625 35.859375 "/>
</g>
</svg>
