<svg xmlns="http://www.w3.org/2000/svg" xmlns:xlink="http://www.w3.org/1999/xlink" width="64" height="64" viewBox="0 0 64 64" version="1.1">
<defs> <linearGradient id="linear0" gradientUnits="userSpaceOnUse" x1="0" y1="0" x2="0" y2="1" gradientTransform="matrix(55.992188,0,0,56,4.003906,4)"> <stop offset="0" style="stop-color:#ff6666;stop-opacity:1;"/> <stop offset="1" style="stop-color:#d90000;stop-opacity:1;"/> </linearGradient> </defs>
<g id="surface1">
<path style=" stroke:none;fill-rule:nonzero;fill:url(#linear0);fill-opacity:1;" d="M 8.261719 8.382812 L 8.261719 17.269531 L 55.851562 17.269531 L 55.851562 8.382812 L 8.261719 8.382812 M 20.289062 10.535156 C 21.5625 10.535156 22.589844 11.554688 22.589844 12.816406 C 22.589844 14.082031 21.5625 15.105469 20.289062 15.105469 C 19.023438 15.105469 17.988281 14.082031 17.988281 12.816406 C 17.988281 11.554688 19.023438 10.535156 20.289062 10.535156 M 43.816406 10.535156 C 45.089844 10.535156 46.113281 11.554688 46.113281 12.816406 C 46.113281 14.082031 45.089844 15.105469 43.816406 15.105469 C 42.550781 15.105469 41.523438 14.082031 41.523438 12.816406 C 41.523438 11.554688 42.550781 10.535156 43.816406 10.535156 M 10.136719 19.652344 L 10.136719 55.972656 L 17.914062 55.972656 C 23.242188 53.007812 28.570312 50.042969 33.902344 47.082031 L 33.902344 43.207031 C 34.867188 43.6875 35.816406 44.050781 36.769531 44.296875 C 37.308594 44.433594 37.855469 44.523438 38.386719 44.585938 C 40.195312 43.582031 42.011719 42.578125 43.824219 41.578125 C 43.730469 40.835938 43.355469 40.265625 42.710938 39.863281 C 41.964844 39.390625 40.859375 39.15625 39.398438 39.15625 L 37.332031 39.15625 L 37.332031 35.839844 L 39.507812 35.839844 C 40.808594 35.839844 41.777344 35.640625 42.410156 35.238281 C 43.042969 34.824219 43.355469 34.210938 43.355469 33.382812 C 43.355469 32.613281 43.0625 32.027344 42.449219 31.609375 C 41.828125 31.1875 40.949219 30.972656 39.820312 30.972656 C 38.988281 30.972656 38.144531 31.066406 37.292969 31.25 C 36.445312 31.4375 35.59375 31.714844 34.746094 32.082031 L 34.746094 28.304688 C 35.769531 28.015625 36.785156 27.8125 37.792969 27.671875 C 38.792969 27.523438 39.785156 27.457031 40.757812 27.457031 C 43.355469 27.457031 45.300781 27.878906 46.582031 28.742188 C 47.882812 29.582031 48.535156 30.867188 48.535156 32.582031 C 48.535156 33.746094 48.230469 34.703125 47.609375 35.453125 C 46.996094 36.195312 46.070312 36.707031 44.867188 37.015625 C 46.21875 37.359375 47.253906 37.976562 47.953125 38.839844 C 48.308594 39.277344 48.578125 39.773438 48.753906 40.335938 C 50.1875 42.894531 51.625 45.464844 53.066406 48.03125 L 53.988281 47.78125 L 53.988281 19.652344 L 10.136719 19.652344 M 21.964844 27.449219 C 24.359375 27.449219 26.21875 27.972656 27.546875 29.023438 C 28.875 30.074219 29.546875 31.550781 29.546875 33.429688 C 29.546875 34.519531 29.261719 35.539062 28.695312 36.484375 C 28.132812 37.421875 26.949219 38.664062 25.140625 40.242188 L 20.855469 43.992188 L 29.683594 43.992188 L 29.683594 47.777344 L 15.117188 47.777344 L 15.117188 43.992188 L 22.429688 37.5625 C 23.082031 36.976562 23.566406 36.398438 23.878906 35.832031 C 24.195312 35.273438 24.351562 34.703125 24.351562 34.089844 C 24.351562 33.15625 24.03125 32.394531 23.394531 31.824219 C 22.769531 31.25 21.9375 30.96875 20.886719 30.96875 C 20.078125 30.96875 19.199219 31.144531 18.238281 31.488281 C 17.285156 31.828125 16.261719 32.34375 15.167969 33.015625 L 15.167969 28.632812 C 16.332031 28.253906 17.484375 27.953125 18.621094 27.757812 C 19.761719 27.554688 20.867188 27.449219 21.957031 27.449219 M 47.703125 40.617188 L 20.085938 55.964844 L 23.28125 55.964844 L 52.011719 48.300781 L 47.703125 40.617188 "/>
</g>
</svg>
