<svg xmlns="http://www.w3.org/2000/svg" xmlns:xlink="http://www.w3.org/1999/xlink" width="64" height="64" viewBox="0 0 64 64" version="1.1">
<defs> <linearGradient id="linear0" gradientUnits="userSpaceOnUse" x1="0" y1="0" x2="0" y2="1" gradientTransform="matrix(55.992188,0,0,56,4.003906,4)"> <stop offset="0" style="stop-color:#ff6666;stop-opacity:1;"/> <stop offset="1" style="stop-color:#d90000;stop-opacity:1;"/> </linearGradient> </defs>
<g id="surface1">
<path style=" stroke:none;fill-rule:nonzero;fill:url(#linear0);fill-opacity:1;" d="M 49.898438 32.171875 C 49.898438 41.984375 41.910156 49.941406 32.054688 49.941406 C 22.203125 49.941406 14.210938 41.984375 14.210938 32.171875 C 14.210938 22.359375 22.203125 14.402344 32.054688 14.402344 C 41.910156 14.402344 49.898438 22.359375 49.898438 32.171875 "/>
<path style=" stroke:none;fill-rule:nonzero;fill:url(#linear0);fill-opacity:1;" d="M 25.089844 58.175781 L 27.09375 61.636719 L 29.148438 60.449219 C 29.839844 60.054688 30.265625 59.625 30.433594 59.148438 C 30.601562 58.667969 30.515625 58.136719 30.175781 57.554688 C 29.835938 56.960938 29.414062 56.628906 28.921875 56.535156 C 28.425781 56.445312 27.835938 56.597656 27.144531 56.996094 Z M 22.839844 54.296875 L 24.484375 57.140625 L 26.382812 56.050781 C 27.011719 55.6875 27.410156 55.304688 27.582031 54.898438 C 27.75 54.484375 27.699219 54.035156 27.421875 53.554688 C 27.144531 53.082031 26.785156 52.816406 26.335938 52.757812 C 25.894531 52.695312 25.359375 52.84375 24.734375 53.207031 Z M 20.949219 53.984375 L 24.226562 52.101562 C 25.203125 51.539062 26.070312 51.3125 26.835938 51.40625 C 27.597656 51.507812 28.195312 51.933594 28.625 52.679688 C 28.960938 53.257812 29.089844 53.792969 29.023438 54.292969 C 28.949219 54.789062 28.671875 55.230469 28.199219 55.613281 C 28.902344 55.386719 29.558594 55.386719 30.152344 55.621094 C 30.753906 55.839844 31.238281 56.277344 31.605469 56.914062 C 32.097656 57.757812 32.1875 58.574219 31.878906 59.363281 C 31.566406 60.15625 30.886719 60.855469 29.824219 61.46875 L 26.417969 63.417969 Z M 20.949219 53.984375 "/>
<path style=" stroke:none;fill-rule:nonzero;fill:url(#linear0);fill-opacity:1;" d="M 29.859375 48.863281 L 35.847656 45.414062 L 36.472656 46.488281 L 31.765625 49.195312 L 33.386719 51.988281 L 37.898438 49.398438 L 38.519531 50.472656 L 34.007812 53.0625 L 35.992188 56.484375 L 40.8125 53.714844 L 41.4375 54.789062 L 35.332031 58.296875 Z M 29.859375 48.863281 "/>
<path style=" stroke:none;fill-rule:nonzero;fill:url(#linear0);fill-opacity:1;" d="M 36.769531 44.886719 L 44.789062 40.277344 L 45.414062 41.351562 L 42.046875 43.285156 L 46.894531 51.652344 L 45.605469 52.390625 L 40.761719 44.027344 L 37.394531 45.960938 Z M 36.769531 44.886719 "/>
<path style=" stroke:none;fill-rule:nonzero;fill:url(#linear0);fill-opacity:1;" d="M 48.917969 39.582031 L 49.898438 45.277344 L 53.378906 43.273438 Z M 47.464844 38.738281 L 48.917969 37.902344 L 57.996094 45.265625 L 56.664062 46.035156 L 54.398438 44.105469 L 50.125 46.5625 L 50.667969 49.480469 L 49.316406 50.257812 Z M 47.464844 38.738281 "/>
</g>
</svg>
