<svg xmlns="http://www.w3.org/2000/svg" xmlns:xlink="http://www.w3.org/1999/xlink" width="64" height="64" viewBox="0 0 64 64" version="1.1">
<defs> <linearGradient id="linear0" gradientUnits="userSpaceOnUse" x1="0" y1="0" x2="0" y2="1" gradientTransform="matrix(55.992188,0,0,56,4.003906,4)"> <stop offset="0" style="stop-color:#ff6666;stop-opacity:1;"/> <stop offset="1" style="stop-color:#d90000;stop-opacity:1;"/> </linearGradient> </defs>
<g id="surface1">
<path style=" stroke:none;fill-rule:nonzero;fill:url(#linear0);fill-opacity:1;" d="M 8.710938 51.503906 C 6.6875 50.964844 5.289062 49.519531 4.738281 47.375 C 4.449219 46.25 4.332031 44.304688 4.449219 42.613281 C 4.707031 39.039062 6.207031 23.53125 6.359375 22.886719 C 6.953125 20.332031 8.1875 18.175781 10.085938 16.359375 C 12.089844 14.445312 14.304688 13.371094 17.226562 12.894531 C 18.539062 12.679688 19.035156 12.671875 32.054688 12.671875 C 45.078125 12.671875 45.578125 12.679688 46.890625 12.894531 C 49.808594 13.371094 51.972656 14.414062 53.976562 16.308594 C 56.101562 18.328125 57.53125 21.015625 57.90625 23.703125 C 58.046875 24.738281 59.496094 40.339844 59.660156 42.578125 C 59.78125 44.304688 59.667969 46.242188 59.371094 47.375 C 58.816406 49.539062 57.414062 50.984375 55.351562 51.507812 C 54.046875 51.84375 52.839844 51.667969 51.296875 50.914062 C 49.34375 49.964844 48.171875 48.890625 43.3125 43.613281 L 39.332031 39.292969 L 24.78125 39.292969 L 20.800781 43.613281 C 15.9375 48.894531 14.769531 49.964844 12.816406 50.914062 C 11.277344 51.667969 10.011719 51.847656 8.710938 51.503906 M 20.925781 32.828125 C 23.476562 32.152344 25.578125 30.019531 26.234375 27.449219 C 26.480469 26.507812 26.472656 24.789062 26.222656 23.867188 C 25.523438 21.230469 23.445312 19.183594 20.765625 18.492188 C 19.921875 18.273438 18.113281 18.273438 17.269531 18.492188 C 14.585938 19.183594 12.507812 21.230469 11.808594 23.867188 C 11.558594 24.804688 11.554688 26.519531 11.792969 27.449219 C 12.34375 29.550781 13.816406 31.359375 15.695312 32.265625 C 16.261719 32.535156 16.996094 32.808594 17.324219 32.867188 C 17.652344 32.9375 18.023438 33.011719 18.140625 33.039062 C 18.535156 33.128906 20.3125 32.992188 20.925781 32.828125 M 17.488281 30.902344 C 17.460938 30.820312 17.425781 29.980469 17.410156 29.023438 L 17.382812 27.285156 L 15.523438 27.230469 L 13.671875 27.175781 L 13.640625 25.71875 C 13.617188 24.625 13.644531 24.238281 13.753906 24.171875 C 13.828125 24.125 14.691406 24.082031 15.660156 24.082031 L 17.4375 24.082031 L 17.4375 22.308594 C 17.4375 21.078125 17.476562 20.5 17.570312 20.410156 C 17.746094 20.230469 20.289062 20.230469 20.472656 20.410156 C 20.5625 20.5 20.601562 21.078125 20.601562 22.308594 L 20.601562 24.082031 L 22.375 24.082031 C 23.34375 24.082031 24.207031 24.125 24.289062 24.171875 C 24.390625 24.238281 24.417969 24.625 24.394531 25.71875 L 24.359375 27.175781 L 22.507812 27.230469 L 20.652344 27.285156 L 20.601562 29.128906 L 20.542969 30.980469 L 19.039062 31.007812 C 17.898438 31.03125 17.527344 31.007812 17.488281 30.902344 M 46.105469 32.105469 C 47.558594 31.402344 47.617188 29.203125 46.195312 28.371094 C 45.539062 27.992188 44.640625 27.992188 43.980469 28.371094 C 42.566406 29.199219 42.617188 31.386719 44.066406 32.101562 C 44.691406 32.410156 45.46875 32.410156 46.105469 32.105469 M 41.078125 27.757812 C 42.152344 27.484375 42.925781 26.230469 42.648438 25.207031 C 42.367188 24.195312 41.535156 23.539062 40.523438 23.539062 C 38.933594 23.539062 37.90625 25.210938 38.609375 26.652344 C 38.855469 27.164062 39.273438 27.511719 39.894531 27.734375 C 40.394531 27.910156 40.460938 27.910156 41.078125 27.757812 M 50.808594 27.472656 C 51.507812 27.042969 51.832031 26.398438 51.773438 25.523438 C 51.738281 24.96875 51.675781 24.777344 51.398438 24.4375 C 50.925781 23.855469 50.332031 23.542969 49.679688 23.539062 C 47.71875 23.53125 46.757812 25.804688 48.140625 27.179688 C 48.898438 27.9375 49.871094 28.042969 50.808594 27.472656 M 46.289062 22.910156 C 46.890625 22.492188 47.214844 21.886719 47.214844 21.179688 C 47.21875 20.210938 46.816406 19.574219 45.964844 19.175781 C 45.074219 18.769531 44.015625 19.054688 43.355469 19.871094 C 42.910156 20.433594 42.824219 21.433594 43.167969 22.101562 C 43.414062 22.582031 43.964844 23.058594 44.453125 23.214844 C 44.980469 23.386719 45.808594 23.242188 46.289062 22.910156 "/>
</g>
</svg>
