<svg xmlns="http://www.w3.org/2000/svg" xmlns:xlink="http://www.w3.org/1999/xlink" width="64" height="64" viewBox="0 0 64 64" version="1.1">
<defs> <linearGradient id="linear0" gradientUnits="userSpaceOnUse" x1="0" y1="0" x2="0" y2="1" gradientTransform="matrix(55.992188,0,0,56,4.003906,4)"> <stop offset="0" style="stop-color:#ff6666;stop-opacity:1;"/> <stop offset="1" style="stop-color:#d90000;stop-opacity:1;"/> </linearGradient> </defs>
<g id="surface1">
<path style=" stroke:none;fill-rule:evenodd;fill:url(#linear0);fill-opacity:1;" d="M 71.457031 31.722656 C 71.457031 53.601562 53.640625 71.335938 31.675781 71.335938 C 9.703125 71.335938 -8.113281 53.601562 -8.113281 31.722656 C -8.113281 9.839844 9.703125 -7.894531 31.675781 -7.894531 C 53.640625 -7.894531 71.457031 9.839844 71.457031 31.722656 "/>
<path style=" stroke:none;fill-rule:nonzero;fill:url(#linear0);fill-opacity:1;" d="M 11.964844 55.902344 C 11.765625 55.75 11.476562 55.382812 11.316406 55.082031 L 11.027344 54.546875 L 11.027344 8.226562 L 11.355469 7.582031 C 11.558594 7.195312 11.867188 6.832031 12.132812 6.679688 L 12.578125 6.425781 L 13.109375 7.007812 C 13.40625 7.328125 18.421875 12.816406 24.253906 19.1875 C 30.089844 25.566406 34.96875 30.914062 35.09375 31.070312 C 35.316406 31.351562 35.207031 31.476562 23.996094 43.734375 C 17.769531 50.535156 12.59375 56.125 12.492188 56.144531 C 12.394531 56.167969 12.15625 56.054688 11.957031 55.902344 M 19.214844 52.125 C 20.699219 50.511719 25.257812 45.535156 29.351562 41.0625 C 33.449219 36.589844 36.84375 32.976562 36.898438 33.039062 C 37.417969 33.566406 43.554688 40.316406 43.539062 40.335938 C 43.523438 40.34375 38.472656 43.097656 32.3125 46.453125 C 26.148438 49.8125 20.667969 52.804688 20.128906 53.105469 C 19.585938 53.402344 18.558594 53.96875 17.835938 54.355469 L 16.523438 55.050781 L 19.214844 52.125 M 41.824219 35.289062 L 38.210938 31.351562 L 39.484375 29.96875 C 40.183594 29.203125 41.816406 27.421875 43.105469 26.007812 L 45.457031 23.441406 L 45.863281 23.679688 C 46.078125 23.816406 48.328125 25.046875 50.847656 26.425781 C 57.703125 30.175781 57.855469 30.277344 57.855469 31.382812 C 57.855469 32.039062 57.628906 32.394531 56.902344 32.914062 C 56.40625 33.269531 46.089844 38.980469 45.628906 39.15625 C 45.503906 39.203125 44.210938 37.886719 41.824219 35.289062 M 27.257812 19.363281 C 22.074219 13.679688 17.570312 8.742188 17.25 8.386719 L 16.664062 7.742188 L 17.1875 8.007812 C 18.246094 8.546875 43.25 22.277344 43.351562 22.367188 C 43.441406 22.464844 37.046875 29.570312 36.796875 29.65625 C 36.734375 29.679688 32.441406 25.046875 27.257812 19.363281 "/>
</g>
</svg>
