<svg xmlns="http://www.w3.org/2000/svg" xmlns:xlink="http://www.w3.org/1999/xlink" width="64" height="64" viewBox="0 0 64 64" version="1.1">
<defs> <linearGradient id="linear0" gradientUnits="userSpaceOnUse" x1="0" y1="0" x2="0" y2="1" gradientTransform="matrix(55.992188,0,0,56,4.003906,4)"> <stop offset="0" style="stop-color:#ff6666;stop-opacity:1;"/> <stop offset="1" style="stop-color:#d90000;stop-opacity:1;"/> </linearGradient> </defs>
<g id="surface1">
<path style=" stroke:none;fill-rule:evenodd;fill:url(#linear0);fill-opacity:1;" d="M 4.257812 11.832031 L 4.257812 44.824219 L 30.347656 44.824219 L 30.347656 11.832031 Z M 36.097656 11.875 L 36.097656 15.105469 L 59.859375 15.105469 L 59.859375 11.875 Z M 18.320312 15.625 L 18.476562 15.625 L 25.640625 15.644531 L 23.515625 16.882812 L 21.640625 16.882812 C 21.65625 16.945312 22.730469 17.753906 23.355469 19 C 23.691406 19.675781 23.890625 20.464844 23.890625 21.304688 C 23.890625 21.6875 23.914062 22.105469 23.78125 22.507812 C 23.558594 23.175781 23.40625 23.621094 23.191406 23.929688 C 22.476562 24.953125 22.167969 24.78125 20.988281 26.144531 C 20.339844 26.890625 20.148438 27.34375 20.136719 27.710938 C 20.125 27.976562 20.167969 28.328125 20.429688 28.597656 C 20.710938 28.886719 21.136719 29.148438 21.753906 29.652344 C 22.75 30.460938 23.765625 31.292969 24.355469 32.253906 C 24.964844 33.242188 25.128906 34.375 24.980469 35.582031 C 24.691406 37.988281 21.34375 41.175781 15.9375 41.023438 C 10.5625 40.871094 9.3125 37.84375 9.3125 37.84375 C 9.3125 37.84375 8.023438 35.53125 10.402344 33.015625 C 12.78125 30.5 17.808594 30.628906 17.808594 30.628906 C 17.808594 30.628906 18.007812 30.617188 17.734375 30.300781 C 16.585938 28.960938 17.15625 27.070312 17.15625 27.070312 C 17.15625 27.070312 15.71875 27.242188 14.367188 26.867188 C 13.917969 26.742188 12.828125 26.109375 12.828125 26.109375 C 12.828125 26.109375 9.714844 24.425781 10.925781 20.199219 C 11.707031 17.464844 14.460938 16.152344 16.460938 15.796875 C 17.308594 15.644531 18.015625 15.625 18.320312 15.625 M 16.78125 16.785156 C 16.125 16.78125 15.667969 16.976562 15.667969 16.976562 C 14.945312 17.429688 13.097656 17.671875 13.855469 22.242188 C 14.597656 26.726562 18.648438 26.109375 18.648438 26.109375 C 18.648438 26.109375 22.179688 25.335938 20.492188 20.296875 C 19.511719 17.355469 17.871094 16.789062 16.78125 16.785156 M 36.097656 19.359375 L 36.097656 22.585938 L 59.859375 22.585938 L 59.859375 19.359375 Z M 36.097656 26.847656 L 36.097656 30.070312 L 59.859375 30.070312 L 59.859375 26.847656 Z M 19.015625 31.640625 C 18.320312 31.6875 17.601562 31.652344 17.070312 31.699219 C 15.460938 31.839844 14.609375 32.105469 13.742188 32.6875 C 13.332031 32.960938 12.894531 33.195312 12.496094 33.734375 C 10.917969 35.859375 13.046875 38.242188 13.433594 38.4375 C 14.171875 38.816406 15.660156 39.574219 17.636719 39.570312 C 18.445312 39.566406 19.714844 39.519531 20.441406 39.140625 C 22.90625 37.851562 22.882812 36.675781 22.542969 35.058594 C 22.242188 33.617188 19.015625 31.640625 19.015625 31.640625 M 36.097656 34.328125 L 36.097656 37.550781 L 59.859375 37.550781 L 59.859375 34.328125 Z M 36.097656 41.808594 L 36.097656 45.035156 L 59.859375 45.035156 L 59.859375 41.808594 Z M 5.539062 49.292969 L 5.539062 52.515625 L 59.859375 52.515625 L 59.859375 49.292969 Z M 5.539062 49.292969 "/>
</g>
</svg>
