<svg xmlns="http://www.w3.org/2000/svg" xmlns:xlink="http://www.w3.org/1999/xlink" width="64" height="64" viewBox="0 0 64 64" version="1.1">
<defs>
<linearGradient id="linear0" gradientUnits="userSpaceOnUse" x1="0" y1="0" x2="0" y2="1" gradientTransform="matrix(41.140625,0,0,64,11.429688,0)">
<stop offset="0" style="stop-color:#ff6666;stop-opacity:1;"/>
<stop offset="1" style="stop-color:#d90000;stop-opacity:1;"/>
</linearGradient>
</defs>
<g id="surface1">
<path style=" stroke:none;fill-rule:nonzero;fill:url(#linear0);" d="M 32 0 C 20.636719 0 11.429688 9.238281 11.429688 20.621094 C 11.429688 27.375 14.605469 33.269531 19.59375 37.027344 C 21.886719 38.765625 23.785156 41 23.785156 44.085938 L 24 48 L 40 48 L 40.226562 44.085938 C 40.410156 41.007812 42.117188 38.765625 44.40625 37.027344 C 49.398438 33.269531 52.570312 27.375 52.570312 20.621094 C 52.570312 9.238281 43.363281 0 32 0 Z M 32 8.242188 C 38.8125 8.242188 44.34375 13.800781 44.34375 20.621094 C 44.34375 24.519531 42.566406 28.109375 39.457031 30.445312 C 34.816406 33.957031 33.058594 37.878906 32.410156 41.144531 L 31.589844 41.144531 C 30.945312 37.878906 29.1875 33.957031 24.542969 30.445312 C 21.441406 28.105469 19.65625 24.519531 19.65625 20.621094 C 19.65625 13.800781 25.1875 8.242188 32 8.242188 Z M 24 52 L 24 56 L 40 56 L 40 52 Z M 28 60 L 28 64 L 36 64 L 36 60 Z M 28 60 "/>
</g>
</svg>
