<svg xmlns="http://www.w3.org/2000/svg" xmlns:xlink="http://www.w3.org/1999/xlink" width="64" height="64" viewBox="0 0 64 64" version="1.1">
<defs>
<linearGradient id="linear0" gradientUnits="userSpaceOnUse" x1="0" y1="0" x2="0" y2="1" gradientTransform="matrix(60,0,0,60,2,2)">
<stop offset="0" style="stop-color:#ff6666;stop-opacity:1;"/>
<stop offset="1" style="stop-color:#d90000;stop-opacity:1;"/>
</linearGradient>
</defs>
<g id="surface1">
<path style=" stroke:none;fill-rule:nonzero;fill:url(#linear0);" d="M 27.398438 61.757812 C 21.515625 60.839844 15.941406 58.074219 11.417969 53.828125 C 7.539062 50.1875 5.074219 46.359375 3.316406 41.242188 C 2.085938 37.664062 2 37.066406 2 31.980469 C 2 26.898438 2.085938 26.300781 3.316406 22.722656 C 5.085938 17.574219 7.535156 13.777344 11.480469 10.074219 C 15.085938 6.695312 20.035156 3.945312 24.761719 2.707031 C 28.667969 1.683594 35.757812 1.785156 39.816406 2.921875 C 50.570312 5.941406 58.75 14.339844 61.351562 25.042969 C 62.214844 28.601562 62.214844 35.363281 61.351562 38.917969 C 58.777344 49.503906 50.5 58.070312 40.046875 60.957031 C 36.570312 61.917969 30.777344 62.285156 27.398438 61.757812 Z M 19.613281 55.539062 C 19.234375 52.183594 20.476562 51.855469 26.988281 53.582031 C 30.535156 54.523438 31.8125 54.65625 37.675781 54.679688 C 43.355469 54.707031 44.882812 54.574219 48.074219 53.78125 C 51.695312 52.878906 51.875 52.777344 53.722656 50.644531 C 56.664062 47.242188 56.660156 47.234375 52.707031 48.390625 C 49.636719 49.285156 48.386719 49.421875 43.121094 49.441406 C 34.394531 49.46875 30.273438 48.515625 17.996094 43.617188 C 10.15625 40.492188 8.402344 40.210938 6.785156 41.828125 C 6.238281 42.371094 5.796875 43.050781 5.796875 43.335938 C 5.8125 45.644531 13 53.746094 17.09375 56.078125 C 18.3125 56.773438 19.425781 57.34375 19.566406 57.34375 C 19.707031 57.347656 19.726562 56.535156 19.613281 55.539062 Z M 59.847656 40.539062 C 60.484375 38.261719 60.390625 37.214844 59.554688 37.214844 C 58.4375 37.214844 53.359375 34.65625 50.035156 32.417969 C 46.03125 29.722656 42.890625 27.09375 37.117188 21.605469 C 26.300781 11.328125 22.191406 9.578125 13.378906 11.503906 C 11.828125 11.84375 11.152344 12.300781 9.703125 14 C 8.726562 15.140625 7.367188 16.984375 6.6875 18.089844 C 5.472656 20.074219 3.625 24.316406 3.875 24.5625 C 3.941406 24.632812 5.230469 23.707031 6.734375 22.503906 C 12.546875 17.851562 16.140625 18.222656 25.367188 24.421875 C 27.140625 25.617188 31.683594 28.671875 35.453125 31.210938 C 44.667969 37.410156 48.75 39.507812 55.027344 41.265625 C 58.96875 42.367188 59.355469 42.308594 59.847656 40.539062 Z M 58.5 26.136719 C 59.675781 24.964844 59.632812 24.699219 57.632812 20.480469 C 54.011719 12.859375 46.824219 6.941406 38.480469 4.710938 C 34.6875 3.695312 27.027344 3.800781 23.75 4.910156 L 21.332031 5.730469 L 25.585938 5.769531 C 35.585938 5.863281 41.863281 9.433594 48.597656 18.859375 C 52.242188 23.960938 52.707031 24.519531 54.554688 26.042969 C 56.21875 27.417969 57.195312 27.441406 58.5 26.136719 Z M 58.5 26.136719 "/>
</g>
</svg>
