<svg xmlns="http://www.w3.org/2000/svg" xmlns:xlink="http://www.w3.org/1999/xlink" width="64" height="64" viewBox="0 0 64 64" version="1.1">
<defs> <linearGradient id="linear0" gradientUnits="userSpaceOnUse" x1="0" y1="0" x2="0" y2="1" gradientTransform="matrix(55.992188,0,0,56,4.003906,4)"> <stop offset="0" style="stop-color:#ff6666;stop-opacity:1;"/> <stop offset="1" style="stop-color:#d90000;stop-opacity:1;"/> </linearGradient> </defs>
<g id="surface1">
<path style=" stroke:none;fill-rule:evenodd;fill:url(#linear0);fill-opacity:1;" d="M 31.402344 1.835938 C 40.988281 2.03125 48.296875 6.90625 51.585938 11.265625 L 30.863281 26.445312 L 24.421875 2.515625 C 26.855469 1.996094 29.1875 1.792969 31.402344 1.835938 M 22.941406 7.839844 L 29.082031 31.511719 L 52.132812 44.734375 C 47.867188 53.320312 38.980469 59.222656 28.707031 59.222656 C 14.28125 59.222656 2.582031 47.578125 2.582031 33.207031 C 2.582031 20.816406 11.289062 10.449219 22.941406 7.839844 M 53.414062 14.839844 C 62.472656 25.769531 60.109375 37.929688 55.992188 44.292969 L 32.679688 30 L 53.414062 14.84375 "/>
</g>
</svg>
