<svg xmlns="http://www.w3.org/2000/svg" xmlns:xlink="http://www.w3.org/1999/xlink" width="64" height="64" viewBox="0 0 64 64" version="1.1">
<defs>
<linearGradient id="linear0" gradientUnits="userSpaceOnUse" x1="0" y1="0" x2="0" y2="1" gradientTransform="matrix(74.65625,0,0,74.666667,5.338541,5.333333)">
<stop offset="0" style="stop-color:#ff6666;stop-opacity:1;"/>
<stop offset="1" style="stop-color:#d90000;stop-opacity:1;"/>
</linearGradient>
</defs>
<g id="surface1">
<path style=" stroke:none;fill-rule:nonzero;fill:url(#linear0);" d="M 32.972656 10.382812 C 32.042969 10.359375 31.109375 10.363281 30.175781 10.398438 C 22.707031 10.683594 15.300781 12.910156 9.550781 17.238281 C 9.546875 17.238281 9.546875 17.242188 9.542969 17.242188 C 3.808594 21.574219 1.367188 27.085938 1.449219 32.167969 C 1.527344 37.25 3.9375 41.785156 7.316406 44.761719 C 8.363281 45.683594 9.964844 45.582031 10.890625 44.535156 C 11.816406 43.484375 11.714844 41.882812 10.664062 40.957031 C 8.332031 38.902344 6.570312 35.574219 6.515625 32.085938 C 6.460938 28.597656 7.910156 24.828125 12.597656 21.285156 C 21.976562 14.222656 38.730469 13.921875 48.632812 19.601562 C 49.847656 20.296875 51.394531 19.878906 52.089844 18.664062 C 52.789062 17.449219 52.367188 15.902344 51.152344 15.207031 C 45.914062 12.199219 39.5 10.554688 32.972656 10.382812 Z M 54.859375 18.484375 C 54.195312 18.503906 53.566406 18.78125 53.105469 19.261719 C 52.132812 20.269531 52.167969 21.875 53.175781 22.84375 C 55.800781 25.359375 57.492188 28.707031 57.488281 32.09375 C 57.484375 35.480469 55.945312 39.117188 51.214844 42.695312 C 41.8125 49.773438 25.324219 50.15625 15.171875 44.375 C 13.957031 43.683594 12.410156 44.109375 11.71875 45.324219 C 11.027344 46.539062 11.449219 48.082031 12.664062 48.777344 C 24.835938 55.707031 42.785156 55.386719 54.265625 46.738281 C 54.265625 46.738281 54.265625 46.738281 54.269531 46.738281 C 59.957031 42.4375 62.550781 37.136719 62.554688 32.097656 C 62.558594 27.058594 60.136719 22.496094 56.683594 19.1875 C 56.195312 18.71875 55.539062 18.464844 54.859375 18.484375 Z M 32.246094 18.777344 C 31.417969 18.796875 30.703125 19.363281 30.492188 20.167969 L 26.210938 36.410156 C 25.949219 37.40625 26.542969 38.425781 27.542969 38.691406 C 28.539062 38.953125 29.558594 38.359375 29.824219 37.363281 L 32.042969 28.941406 L 34.210938 28.941406 C 34.480469 28.941406 34.472656 28.957031 34.582031 28.976562 C 34.5625 29.109375 34.578125 29.820312 34.191406 31.238281 L 32.933594 35.890625 C 32.664062 36.882812 33.25 37.910156 34.246094 38.179688 C 35.238281 38.449219 36.265625 37.863281 36.535156 36.867188 L 37.792969 32.214844 C 38.265625 30.476562 38.679688 29.160156 38.1875 27.597656 C 37.941406 26.8125 37.285156 26.035156 36.53125 25.660156 C 35.777344 25.289062 35.015625 25.207031 34.210938 25.207031 L 33.023438 25.207031 L 34.101562 21.117188 C 34.363281 20.121094 33.769531 19.097656 32.773438 18.835938 C 32.601562 18.789062 32.425781 18.769531 32.246094 18.777344 Z M 19.1875 25.207031 C 18.34375 25.207031 17.609375 25.773438 17.386719 26.585938 L 13.496094 40.953125 C 13.222656 41.949219 13.8125 42.972656 14.808594 43.246094 C 15.285156 43.375 15.796875 43.308594 16.226562 43.0625 C 16.65625 42.816406 16.96875 42.40625 17.097656 41.929688 L 18.097656 38.246094 L 21.011719 38.246094 C 22.777344 38.246094 24.265625 37.269531 25.199219 36.085938 C 26.132812 34.898438 26.667969 33.492188 26.933594 32.089844 C 27.203125 30.691406 27.222656 29.300781 26.839844 28.011719 C 26.648438 27.367188 26.351562 26.726562 25.808594 26.175781 C 25.261719 25.621094 24.40625 25.21875 23.550781 25.207031 C 23.542969 25.207031 23.535156 25.207031 23.527344 25.207031 Z M 41.984375 25.207031 C 41.140625 25.207031 40.402344 25.773438 40.183594 26.585938 L 36.292969 40.953125 C 36.019531 41.949219 36.609375 42.972656 37.605469 43.246094 C 38.082031 43.375 38.59375 43.308594 39.023438 43.0625 C 39.453125 42.816406 39.765625 42.40625 39.894531 41.929688 L 40.894531 38.246094 L 43.808594 38.246094 C 45.574219 38.246094 47.0625 37.269531 47.996094 36.085938 C 48.929688 34.898438 49.464844 33.492188 49.730469 32.089844 C 50 30.691406 50.019531 29.300781 49.636719 28.011719 C 49.445312 27.367188 49.148438 26.726562 48.605469 26.175781 C 48.058594 25.621094 47.203125 25.21875 46.347656 25.207031 C 46.339844 25.207031 46.332031 25.207031 46.324219 25.207031 Z M 20.617188 28.941406 L 23.207031 28.941406 C 23.234375 28.988281 23.226562 28.964844 23.261719 29.074219 C 23.394531 29.53125 23.445312 30.464844 23.269531 31.386719 C 23.089844 32.308594 22.703125 33.21875 22.269531 33.773438 C 21.832031 34.328125 21.5 34.511719 21.011719 34.511719 L 19.109375 34.511719 Z M 43.414062 28.941406 L 46.003906 28.941406 C 46.03125 28.988281 46.023438 28.964844 46.058594 29.074219 C 46.191406 29.53125 46.242188 30.464844 46.066406 31.386719 C 45.886719 32.308594 45.5 33.21875 45.066406 33.773438 C 44.628906 34.328125 44.296875 34.511719 43.808594 34.511719 L 41.90625 34.511719 Z M 43.414062 28.941406 "/>
</g>
</svg>
