<svg xmlns="http://www.w3.org/2000/svg" xmlns:xlink="http://www.w3.org/1999/xlink" width="64" height="64" viewBox="0 0 64 64" version="1.1">
<defs>
<linearGradient id="linear0" gradientUnits="userSpaceOnUse" x1="0" y1="0" x2="0" y2="1" gradientTransform="matrix(44,0,0,43.726562,9.796875,10.476562)">
<stop offset="0" style="stop-color:#ff6666;stop-opacity:1;"/>
<stop offset="1" style="stop-color:#d90000;stop-opacity:1;"/>
</linearGradient>
</defs>
<g id="surface1">
<path style=" stroke:none;fill-rule:nonzero;fill:url(#linear0);" d="M 31.625 53.832031 C 30.671875 53.289062 30.4375 52.859375 30.429688 51.636719 C 30.421875 50.113281 31.378906 49.429688 33.972656 49.105469 C 36.367188 48.808594 36.695312 48.683594 37.878906 47.617188 L 38.652344 46.925781 L 38.652344 32.496094 C 38.652344 19.710938 38.585938 17.976562 38.089844 17.269531 C 37.347656 16.207031 35.601562 15.515625 33.667969 15.515625 C 32.367188 15.515625 31.902344 15.332031 31.0625 14.492188 C 30.28125 13.710938 30.089844 13.28125 30.269531 12.691406 C 30.605469 11.597656 31.367188 10.816406 32.335938 10.570312 C 33.675781 10.234375 37.632812 11.023438 39.378906 11.976562 L 40.992188 12.855469 L 42.839844 11.949219 C 44.898438 10.941406 48.527344 10.234375 49.984375 10.554688 C 51.007812 10.777344 52.015625 12.011719 52.015625 13.042969 C 52.015625 13.390625 51.714844 14 51.34375 14.394531 C 50.667969 15.117188 50.085938 15.296875 47.15625 15.683594 C 46.273438 15.800781 45.15625 16.207031 44.671875 16.585938 C 43.867188 17.21875 43.789062 17.5 43.789062 19.824219 L 43.789062 22.371094 L 48.222656 22.371094 C 51.792969 22.371094 52.757812 22.46875 53.191406 22.910156 C 54 23.71875 54 40.902344 53.191406 41.707031 C 52.757812 42.144531 51.789062 42.246094 48.207031 42.246094 L 43.761719 42.246094 L 43.863281 44.867188 C 43.953125 47.207031 44.054688 47.554688 44.824219 48.128906 C 45.296875 48.484375 46.53125 48.859375 47.566406 48.964844 C 50.195312 49.234375 51.207031 49.691406 51.675781 50.820312 C 52.226562 52.148438 51.523438 53.582031 50.128906 53.964844 C 48.652344 54.371094 44.71875 53.691406 42.738281 52.6875 L 41.050781 51.832031 L 39.375 52.679688 C 38.453125 53.148438 36.71875 53.6875 35.519531 53.882812 C 32.816406 54.320312 32.480469 54.316406 31.625 53.828125 Z M 50.300781 32.308594 L 50.300781 25.453125 L 43.789062 25.453125 L 43.789062 39.164062 L 50.300781 39.164062 Z M 10.402344 41.707031 C 9.59375 40.898438 9.59375 23.71875 10.402344 22.910156 C 10.871094 22.441406 12.5 22.371094 23.082031 22.371094 L 35.222656 22.371094 L 35.222656 25.453125 L 13.292969 25.453125 L 13.292969 39.160156 L 35.222656 39.160156 L 35.222656 42.246094 L 23.082031 42.246094 C 12.5 42.246094 10.871094 42.179688 10.402344 41.707031 Z M 16.71875 32.308594 L 16.71875 28.882812 L 31.796875 28.882812 L 31.796875 35.734375 L 16.71875 35.734375 Z M 16.71875 32.308594 "/>
</g>
</svg>
