<svg xmlns="http://www.w3.org/2000/svg" xmlns:xlink="http://www.w3.org/1999/xlink" width="64" height="64" viewBox="0 0 64 64" version="1.1">
<defs> <linearGradient id="linear0" gradientUnits="userSpaceOnUse" x1="0" y1="0" x2="0" y2="1" gradientTransform="matrix(55.992188,0,0,56,4.003906,4)"> <stop offset="0" style="stop-color:#ff6666;stop-opacity:1;"/> <stop offset="1" style="stop-color:#d90000;stop-opacity:1;"/> </linearGradient> </defs>
<g id="surface1">
<path style=" stroke:none;fill-rule:nonzero;fill:url(#linear0);fill-opacity:1;" d="M 24.691406 -0.921875 C 10.140625 2.730469 -0.0625 15.75 -0.09375 30.691406 C -0.0585938 45.628906 10.144531 58.640625 24.691406 62.292969 L 24.691406 57.265625 C 12.851562 53.667969 4.746094 42.800781 4.71875 30.472656 C 4.738281 18.136719 12.84375 7.265625 24.691406 3.664062 Z M 41.175781 -0.808594 L 41.175781 3.671875 C 53.011719 7.277344 61.105469 18.148438 61.125 30.472656 C 61.097656 42.792969 53.011719 53.65625 41.175781 57.265625 L 41.175781 62.179688 C 55.5 58.363281 65.472656 45.453125 65.5 30.691406 C 65.476562 15.925781 55.503906 3.007812 41.175781 -0.808594 Z M 41.175781 -0.808594 "/>
<path style=" stroke:none;fill-rule:nonzero;fill:url(#linear0);fill-opacity:1;" d="M 24.691406 6.4375 C 14.15625 9.875 7.027344 19.652344 7 30.691406 C 7.015625 41.738281 14.148438 51.527344 24.691406 54.96875 L 24.691406 50.949219 C 16.292969 47.613281 10.777344 39.523438 10.769531 30.523438 C 10.78125 21.523438 16.296875 13.4375 24.691406 10.105469 Z M 41.175781 6.566406 L 41.175781 10.140625 C 49.511719 13.503906 54.972656 21.5625 54.976562 30.523438 C 54.964844 39.472656 49.511719 47.527344 41.175781 50.894531 L 41.175781 54.800781 C 51.476562 51.214844 58.382812 41.550781 58.40625 30.691406 C 58.390625 19.820312 51.484375 10.152344 41.175781 6.566406 Z M 41.175781 6.566406 "/>
<path style=" stroke:none;fill-rule:nonzero;fill:url(#linear0);fill-opacity:1;" d="M 24.691406 13.550781 C 18.046875 16.597656 13.78125 23.210938 13.765625 30.492188 C 13.773438 37.785156 18.039062 44.398438 24.691406 47.441406 L 24.691406 44.332031 C 19.640625 41.480469 16.519531 36.148438 16.511719 30.371094 C 16.53125 24.59375 19.648438 19.273438 24.691406 16.421875 Z M 41.175781 13.910156 L 41.175781 16.746094 C 45.90625 19.667969 48.792969 24.820312 48.796875 30.371094 C 48.792969 35.917969 45.914062 41.070312 41.175781 44 L 41.175781 47.046875 C 47.390625 43.839844 51.289062 37.457031 51.300781 30.492188 C 51.296875 23.519531 47.394531 17.128906 41.175781 13.910156 Z M 41.175781 13.910156 "/>
<path style=" stroke:none;fill-rule:nonzero;fill:url(#linear0);fill-opacity:1;" d="M 28.9375 24.226562 C 26.867188 26.167969 26.859375 29.335938 28.933594 31.273438 L 29.914062 30.347656 C 28.382812 28.910156 28.382812 26.597656 29.925781 25.148438 M 35.480469 25.136719 C 37.019531 26.582031 37.03125 28.910156 35.484375 30.351562 L 36.46875 31.28125 C 38.546875 29.339844 38.535156 26.160156 36.46875 24.214844 M 35.480469 25.144531 "/>
<path style=" stroke:none;fill-rule:nonzero;fill:url(#linear0);fill-opacity:1;" d="M 26.011719 21.273438 C 22.320312 24.839844 22.316406 30.640625 25.996094 34.203125 L 27.757812 32.507812 C 25.019531 29.859375 25.03125 25.617188 27.769531 22.972656 M 37.636719 22.960938 C 40.371094 25.601562 40.394531 29.871094 37.65625 32.523438 L 39.410156 34.21875 C 43.097656 30.652344 43.074219 24.820312 39.394531 21.265625 L 37.636719 22.960938 M 37.636719 22.960938 "/>
<path style=" stroke:none;fill-rule:nonzero;fill:url(#linear0);fill-opacity:1;" d="M 32.703125 27.152344 C 33.355469 27.152344 33.882812 27.675781 33.882812 28.328125 L 33.882812 38.929688 C 33.882812 39.582031 33.355469 40.109375 32.703125 40.109375 C 32.050781 40.109375 31.523438 39.582031 31.523438 38.929688 L 31.523438 28.328125 C 31.523438 27.675781 32.050781 27.152344 32.703125 27.152344 "/>
</g>
</svg>
