<svg xmlns="http://www.w3.org/2000/svg" xmlns:xlink="http://www.w3.org/1999/xlink" width="64" height="64" viewBox="0 0 64 64" version="1.1">
<defs>
<linearGradient id="linear0" gradientUnits="userSpaceOnUse" x1="0" y1="0" x2="0" y2="1" gradientTransform="matrix(64,0,0,64,0,0)">
<stop offset="0" style="stop-color:#ff6666;stop-opacity:1;"/>
<stop offset="1" style="stop-color:#d90000;stop-opacity:1;"/>
</linearGradient>
</defs>
<g id="surface1">
<path style=" stroke:none;fill-rule:nonzero;fill:url(#linear0);" d="M 9.703125 32.003906 L 0.851562 40.851562 C 0.308594 41.394531 0 42.136719 0 42.90625 L 0 61.09375 C 0 62.695312 1.304688 64 2.90625 64 L 21.09375 64 C 21.863281 64 22.601562 63.695312 23.148438 63.152344 L 32 54.300781 L 40.851562 63.152344 C 41.398438 63.695312 42.136719 64 42.90625 64 L 61.09375 64 C 62.695312 64 64 62.695312 64 61.09375 L 64 42.90625 C 64 42.136719 63.691406 41.394531 63.148438 40.851562 L 54.296875 32.003906 L 63.148438 23.152344 C 63.691406 22.605469 64 21.863281 64 21.09375 L 64 2.90625 C 64 1.304688 62.695312 0 61.09375 0 L 42.90625 0 C 42.136719 0 41.394531 0.308594 40.851562 0.851562 L 32 9.703125 L 23.148438 0.851562 C 22.605469 0.308594 21.863281 0 21.09375 0 L 2.90625 0 C 1.304688 0 0 1.304688 0 2.90625 L 0 21.09375 C 0 21.863281 0.308594 22.605469 0.851562 23.152344 Z M 9.703125 32.003906 "/>
</g>
</svg>
