<svg xmlns="http://www.w3.org/2000/svg" xmlns:xlink="http://www.w3.org/1999/xlink" width="64" height="64" viewBox="0 0 64 64" version="1.1">
<defs>
<filter id="alpha" filterUnits="objectBoundingBox" x="0%" y="0%" width="100%" height="100%">
  <feColorMatrix type="matrix" in="SourceGraphic" values="0 0 0 0 1 0 0 0 0 1 0 0 0 0 1 0 0 0 1 0"/>
</filter>
<mask id="mask0">
  <g filter="url(#alpha)">
<rect x="0" y="0" width="64" height="64" style="fill:rgb(0%,0%,0%);fill-opacity:0.7;stroke:none;"/>
  </g>
</mask>
<linearGradient id="linear0" gradientUnits="userSpaceOnUse" x1="0" y1="0" x2="0" y2="1" gradientTransform="matrix(15.601562,0,0,53.226562,24.183594,5.285156)">
<stop offset="0" style="stop-color:#ff6666;stop-opacity:1;"/>
<stop offset="1" style="stop-color:#d90000;stop-opacity:1;"/>
</linearGradient>
<clipPath id="clip1">
  <rect x="0" y="0" width="64" height="64"/>
</clipPath>
<g id="surface5" clip-path="url(#clip1)">
<path style=" stroke:none;fill-rule:nonzero;fill:url(#linear0);" d="M 39.769531 5.285156 L 29.742188 5.320312 L 29.777344 30.132812 L 24.226562 30.054688 L 24.226562 30.269531 L 24.183594 30.269531 L 24.199219 31.894531 L 24.183594 33.527344 L 24.226562 33.527344 L 24.226562 33.742188 L 29.777344 33.664062 L 29.742188 58.46875 L 39.769531 58.511719 L 39.785156 55.039062 L 33.222656 55.011719 L 33.25 33.613281 L 33.257812 33.613281 L 33.257812 30.175781 L 33.25 30.175781 L 33.222656 8.785156 L 39.785156 8.757812 Z M 39.769531 5.285156 "/>
</g>
<linearGradient id="linear1" gradientUnits="userSpaceOnUse" x1="0" y1="0" x2="0" y2="1" gradientTransform="matrix(21.441406,0,0,13.648438,3.621094,25)">
<stop offset="0" style="stop-color:#ff6666;stop-opacity:1;"/>
<stop offset="1" style="stop-color:#d90000;stop-opacity:1;"/>
</linearGradient>
<linearGradient id="linear2" gradientUnits="userSpaceOnUse" x1="0" y1="0" x2="0" y2="1" gradientTransform="matrix(21.441406,0,0,13.648438,38.9375,0)">
<stop offset="0" style="stop-color:#ff6666;stop-opacity:1;"/>
<stop offset="1" style="stop-color:#d90000;stop-opacity:1;"/>
</linearGradient>
<linearGradient id="linear3" gradientUnits="userSpaceOnUse" x1="0" y1="0" x2="0" y2="1" gradientTransform="matrix(21.441406,0,0,13.648438,38.554688,50.351563)">
<stop offset="0" style="stop-color:#ff6666;stop-opacity:1;"/>
<stop offset="1" style="stop-color:#d90000;stop-opacity:1;"/>
</linearGradient>
</defs>
<g id="surface1">
<use xlink:href="#surface5" mask="url(#mask0)"/>
<path style=" stroke:none;fill-rule:nonzero;fill:url(#linear1);" d="M 3.621094 25 L 25.0625 25 L 25.0625 38.648438 L 3.621094 38.648438 Z M 3.621094 25 "/>
<path style=" stroke:none;fill-rule:nonzero;fill:url(#linear2);" d="M 38.9375 0 L 60.378906 0 L 60.378906 13.648438 L 38.9375 13.648438 Z M 38.9375 0 "/>
<path style=" stroke:none;fill-rule:nonzero;fill:url(#linear3);" d="M 38.554688 50.351562 L 59.996094 50.351562 L 59.996094 64 L 38.554688 64 Z M 38.554688 50.351562 "/>
</g>
</svg>
