<svg xmlns="http://www.w3.org/2000/svg" xmlns:xlink="http://www.w3.org/1999/xlink" width="64" height="64" viewBox="0 0 64 64" version="1.1">
<defs>
<linearGradient id="linear0" gradientUnits="userSpaceOnUse" x1="0" y1="0" x2="0" y2="1" gradientTransform="matrix(55.566406,0,0,29.101563,4.042969,17.253906)">
<stop offset="0" style="stop-color:#ff6666;stop-opacity:1;"/>
<stop offset="1" style="stop-color:#d90000;stop-opacity:1;"/>
</linearGradient>
<linearGradient id="linear1" gradientUnits="userSpaceOnUse" x1="0" y1="0" x2="0" y2="1" gradientTransform="matrix(64,0,0,37.8125,0,13.09375)">
<stop offset="0" style="stop-color:#ff6666;stop-opacity:1;"/>
<stop offset="1" style="stop-color:#d90000;stop-opacity:1;"/>
</linearGradient>
</defs>
<g id="surface1">
<path style=" stroke:none;fill-rule:nonzero;fill:url(#linear0);" d="M 7.59375 46.355469 L 4.042969 43.824219 L 19.8125 21.742188 L 37.660156 33.628906 L 56.757812 17.253906 L 59.609375 20.566406 L 37.980469 39.101562 L 20.914062 27.707031 Z M 7.59375 46.355469 "/>
<path style=" stroke:none;fill-rule:evenodd;fill:url(#linear1);" d="M 0 45.09375 C 0 41.878906 2.609375 39.273438 5.820312 39.273438 C 9.027344 39.273438 11.636719 41.878906 11.636719 45.09375 C 11.636719 48.304688 9.027344 50.90625 5.820312 50.90625 C 2.609375 50.90625 0 48.304688 0 45.09375 Z M 14.542969 24.726562 C 14.542969 21.515625 17.152344 18.90625 20.363281 18.90625 C 23.574219 18.90625 26.179688 21.515625 26.179688 24.726562 C 26.179688 27.941406 23.574219 30.542969 20.363281 30.542969 C 17.152344 30.542969 14.542969 27.941406 14.542969 24.726562 Z M 32 36.363281 C 32 33.152344 34.609375 30.542969 37.820312 30.542969 C 41.027344 30.542969 43.636719 33.152344 43.636719 36.363281 C 43.636719 39.574219 41.027344 42.179688 37.820312 42.179688 C 34.609375 42.179688 32 39.574219 32 36.363281 Z M 52.363281 18.90625 C 52.363281 15.695312 54.972656 13.09375 58.179688 13.09375 C 61.390625 13.09375 64 15.695312 64 18.90625 C 64 22.121094 61.390625 24.726562 58.179688 24.726562 C 54.972656 24.726562 52.363281 22.121094 52.363281 18.90625 Z M 52.363281 18.90625 "/>
</g>
</svg>
