<svg xmlns="http://www.w3.org/2000/svg" xmlns:xlink="http://www.w3.org/1999/xlink" width="64" height="64" viewBox="0 0 64 64" version="1.1">
<defs>
<linearGradient id="linear0" gradientUnits="userSpaceOnUse" x1="0" y1="0" x2="0" y2="1" gradientTransform="matrix(34.132812,0,0,64,14.933594,0)">
<stop offset="0" style="stop-color:#ff6666;stop-opacity:1;"/>
<stop offset="1" style="stop-color:#d90000;stop-opacity:1;"/>
</linearGradient>
</defs>
<g id="surface1">
<path style=" stroke:none;fill-rule:nonzero;fill:url(#linear0);" d="M 29.15625 0 L 30.574219 7.113281 L 32 14.222656 L 33.425781 7.113281 L 34.84375 0 Z M 23.703125 2.84375 L 22.164062 4.097656 L 20.625 5.347656 L 23.46875 9.789062 L 26.3125 14.222656 L 25.007812 8.53125 Z M 40.296875 2.84375 L 38.992188 8.53125 L 37.6875 14.222656 L 40.53125 9.789062 L 43.375 5.347656 L 41.835938 4.097656 Z M 22.042969 15.644531 C 18.117188 15.644531 14.933594 20.421875 14.933594 26.3125 C 14.933594 32.203125 18.117188 36.976562 22.042969 36.976562 C 25.972656 36.976562 29.15625 32.203125 29.15625 26.3125 C 29.15625 20.421875 25.972656 15.644531 22.042969 15.644531 Z M 41.957031 15.644531 C 38.027344 15.644531 34.84375 20.421875 34.84375 26.3125 C 34.84375 32.203125 38.027344 36.976562 41.957031 36.976562 C 45.882812 36.976562 49.066406 32.203125 49.066406 26.3125 C 49.066406 20.421875 45.882812 15.644531 41.957031 15.644531 Z M 31.902344 31.292969 C 31.125 31.324219 30.449219 31.753906 30.199219 32.375 L 28.304688 37.179688 L 26.410156 41.976562 C 25.859375 43.382812 27.679688 44.621094 29.1875 43.855469 C 31.773438 42.203125 32.21875 42.542969 34.8125 43.855469 C 36.320312 44.621094 38.140625 43.382812 37.589844 41.976562 L 35.695312 37.179688 L 33.800781 32.375 C 33.53125 31.695312 32.753906 31.257812 31.902344 31.292969 Z M 22.042969 46.933594 C 18.890625 46.933594 16.355469 49.472656 16.355469 52.625 L 16.355469 58.3125 C 16.355469 61.464844 18.890625 64 22.042969 64 L 41.957031 64 C 45.109375 64 47.644531 61.464844 47.644531 58.3125 L 47.644531 52.625 C 47.644531 49.472656 45.109375 46.933594 41.957031 46.933594 Z M 22.042969 49.777344 L 23.46875 49.777344 L 23.46875 54.042969 L 19.199219 54.042969 L 19.199219 52.625 C 19.199219 50.996094 20.421875 49.777344 22.042969 49.777344 Z M 26.3125 49.777344 L 30.574219 49.777344 L 30.574219 54.042969 L 26.3125 54.042969 Z M 33.425781 49.777344 L 37.6875 49.777344 L 37.6875 54.042969 L 33.425781 54.042969 Z M 40.53125 49.777344 L 41.957031 49.777344 C 43.578125 49.777344 44.800781 50.996094 44.800781 52.625 L 44.800781 54.042969 L 40.53125 54.042969 Z M 19.199219 56.886719 L 23.46875 56.886719 L 23.46875 61.15625 L 22.042969 61.15625 C 20.421875 61.15625 19.199219 59.9375 19.199219 58.3125 Z M 26.3125 56.886719 L 30.574219 56.886719 L 30.574219 61.15625 L 26.3125 61.15625 Z M 33.425781 56.886719 L 37.6875 56.886719 L 37.6875 61.15625 L 33.425781 61.15625 Z M 40.53125 56.886719 L 44.800781 56.886719 L 44.800781 58.3125 C 44.800781 59.9375 43.578125 61.15625 41.957031 61.15625 L 40.53125 61.15625 Z M 40.53125 56.886719 "/>
</g>
</svg>
