<svg xmlns="http://www.w3.org/2000/svg" xmlns:xlink="http://www.w3.org/1999/xlink" width="64" height="64" viewBox="0 0 64 64" version="1.1">
<defs>
<linearGradient id="linear0" gradientUnits="userSpaceOnUse" x1="0" y1="0" x2="0" y2="1" gradientTransform="matrix(60.398438,0,0,64,1.800781,0)">
<stop offset="0" style="stop-color:#ff6666;stop-opacity:1;"/>
<stop offset="1" style="stop-color:#d90000;stop-opacity:1;"/>
</linearGradient>
</defs>
<g id="surface1">
<path style=" stroke:none;fill-rule:nonzero;fill:url(#linear0);" d="M 61.488281 3.871094 C 60.277344 2.683594 58.996094 1.570312 57.652344 0.535156 C 57.183594 0.183594 56.59375 0.046875 56.019531 0.152344 C 48.089844 1.460938 40.074219 2.171875 32.039062 2.28125 C 23.988281 2.136719 15.957031 1.386719 8.019531 0.0351562 C 7.445312 -0.0703125 6.851562 0.0664062 6.386719 0.417969 C 5.027344 1.492188 3.734375 2.644531 2.511719 3.871094 C 2.121094 4.203125 1.867188 4.667969 1.800781 5.175781 C 1.800781 6.960938 1.800781 8.4375 1.800781 9.859375 C 1.800781 11.277344 1.800781 13.160156 1.917969 15.078125 C 2.441406 28.179688 4.992188 41.125 9.476562 53.449219 C 9.59375 53.773438 9.792969 54.0625 10.050781 54.292969 C 16.152344 59.605469 25.628906 64 32.039062 64 C 38.445312 64 47.847656 59.625 53.988281 54.292969 C 54.246094 54.0625 54.445312 53.773438 54.5625 53.449219 C 59.03125 41.121094 61.570312 28.179688 62.082031 15.078125 C 62.082031 13.160156 62.199219 11.46875 62.199219 9.878906 C 62.199219 8.285156 62.199219 6.960938 62.199219 5.195312 C 62.140625 4.679688 61.886719 4.207031 61.488281 3.871094 Z M 27.472656 40.019531 L 27.359375 40.210938 C 24.960938 44.46875 21.082031 45.007812 16.730469 43.28125 C 12.375 41.554688 8.746094 37.984375 10.261719 32.996094 C 11.703125 28.507812 18.703125 30.328125 21.945312 31.078125 C 26.511719 32.210938 29.984375 34.914062 27.550781 39.789062 C 27.644531 39.671875 27.683594 39.632812 27.472656 40.019531 Z M 53.796875 36.910156 C 52.683594 41.457031 48.136719 43.835938 43.644531 44.316406 C 39.519531 44.738281 35.875 40.746094 35.722656 36.640625 C 35.722656 36.910156 35.722656 37.160156 35.722656 36.46875 C 35.722656 36.277344 35.722656 36.277344 35.722656 36.335938 C 35.855469 31.480469 43.011719 30.578125 46.621094 30.253906 C 51.378906 29.792969 55.117188 31.421875 53.796875 36.910156 Z M 53.796875 36.910156 "/>
</g>
</svg>
