<svg xmlns="http://www.w3.org/2000/svg" xmlns:xlink="http://www.w3.org/1999/xlink" width="64" height="64" viewBox="0 0 64 64" version="1.1">
<defs>
<linearGradient id="linear0" gradientUnits="userSpaceOnUse" x1="0" y1="0" x2="0" y2="1" gradientTransform="matrix(64,0,0,55.46875,0,4.265625)">
<stop offset="0" style="stop-color:#ff6666;stop-opacity:1;"/>
<stop offset="1" style="stop-color:#d90000;stop-opacity:1;"/>
</linearGradient>
</defs>
<g id="surface1">
<path style=" stroke:none;fill-rule:nonzero;fill:url(#linear0);" d="M 30.84375 4.625 L 13.75 17.425781 C 12.96875 17.945312 12.621094 18.917969 12.894531 19.816406 C 13.164062 20.71875 13.992188 21.332031 14.933594 21.332031 L 17.066406 21.332031 L 17.066406 29.867188 L 2.132812 29.867188 C 0.953125 29.867188 0 30.816406 0 32 L 0 57.601562 C 0 58.78125 0.953125 59.734375 2.132812 59.734375 L 23.464844 59.734375 C 24.648438 59.734375 25.601562 58.78125 25.601562 57.601562 L 25.601562 46.933594 C 25.601562 46.933594 25.601562 42.667969 29.867188 42.667969 L 34.132812 42.667969 C 38.398438 42.667969 38.398438 46.933594 38.398438 46.933594 L 38.398438 57.601562 C 38.398438 58.78125 39.351562 59.734375 40.535156 59.734375 L 61.867188 59.734375 C 63.046875 59.734375 64 58.78125 64 57.601562 L 64 32 C 64 30.816406 63.046875 29.867188 61.867188 29.867188 L 46.933594 29.867188 L 46.933594 21.332031 L 49.066406 21.332031 C 50.007812 21.332031 50.835938 20.71875 51.105469 19.816406 C 51.378906 18.917969 51.03125 17.945312 50.25 17.425781 L 33.207031 4.625 C 32.492188 4.148438 31.554688 4.148438 30.839844 4.625 Z M 22.398438 21.332031 L 24.535156 21.332031 C 25.121094 21.332031 25.601562 21.8125 25.601562 22.398438 L 25.601562 28.800781 C 25.601562 29.390625 25.121094 29.867188 24.535156 29.867188 L 22.398438 29.867188 C 21.8125 29.867188 21.332031 29.390625 21.332031 28.800781 L 21.332031 22.398438 C 21.332031 21.8125 21.8125 21.332031 22.398438 21.332031 Z M 30.933594 21.332031 L 33.066406 21.332031 C 33.65625 21.332031 34.132812 21.8125 34.132812 22.398438 L 34.132812 28.800781 C 34.132812 29.390625 33.65625 29.867188 33.066406 29.867188 L 30.933594 29.867188 C 30.34375 29.867188 29.867188 29.390625 29.867188 28.800781 L 29.867188 22.398438 C 29.867188 21.8125 30.34375 21.332031 30.933594 21.332031 Z M 39.464844 21.332031 L 41.601562 21.332031 C 42.1875 21.332031 42.667969 21.8125 42.667969 22.398438 L 42.667969 28.800781 C 42.667969 29.390625 42.1875 29.867188 41.601562 29.867188 L 39.464844 29.867188 C 38.878906 29.867188 38.398438 29.390625 38.398438 28.800781 L 38.398438 22.398438 C 38.398438 21.8125 38.878906 21.332031 39.464844 21.332031 Z M 5.332031 34.132812 L 7.464844 34.132812 C 8.054688 34.132812 8.535156 34.609375 8.535156 35.199219 L 8.535156 41.601562 C 8.535156 42.1875 8.054688 42.667969 7.464844 42.667969 L 5.332031 42.667969 C 4.746094 42.667969 4.265625 42.1875 4.265625 41.601562 L 4.265625 35.199219 C 4.265625 34.609375 4.746094 34.132812 5.332031 34.132812 Z M 13.867188 34.132812 L 16 34.132812 C 16.589844 34.132812 17.066406 34.609375 17.066406 35.199219 L 17.066406 41.601562 C 17.066406 42.1875 16.589844 42.667969 16 42.667969 L 13.867188 42.667969 C 13.277344 42.667969 12.800781 42.1875 12.800781 41.601562 L 12.800781 35.199219 C 12.800781 34.609375 13.277344 34.132812 13.867188 34.132812 Z M 48 34.132812 L 50.132812 34.132812 C 50.722656 34.132812 51.199219 34.609375 51.199219 35.199219 L 51.199219 41.601562 C 51.199219 42.1875 50.722656 42.667969 50.132812 42.667969 L 48 42.667969 C 47.410156 42.667969 46.933594 42.1875 46.933594 41.601562 L 46.933594 35.199219 C 46.933594 34.609375 47.410156 34.132812 48 34.132812 Z M 56.535156 34.132812 L 58.667969 34.132812 C 59.253906 34.132812 59.734375 34.609375 59.734375 35.199219 L 59.734375 41.601562 C 59.734375 42.1875 59.253906 42.667969 58.667969 42.667969 L 56.535156 42.667969 C 55.945312 42.667969 55.464844 42.1875 55.464844 41.601562 L 55.464844 35.199219 C 55.464844 34.609375 55.945312 34.132812 56.535156 34.132812 Z M 5.332031 46.933594 L 7.464844 46.933594 C 8.054688 46.933594 8.535156 47.410156 8.535156 48 L 8.535156 54.398438 C 8.535156 54.988281 8.054688 55.46875 7.464844 55.46875 L 5.332031 55.46875 C 4.746094 55.46875 4.265625 54.988281 4.265625 54.398438 L 4.265625 48 C 4.265625 47.410156 4.746094 46.933594 5.332031 46.933594 Z M 13.867188 46.933594 L 16 46.933594 C 16.589844 46.933594 17.066406 47.410156 17.066406 48 L 17.066406 54.398438 C 17.066406 54.988281 16.589844 55.46875 16 55.46875 L 13.867188 55.46875 C 13.277344 55.46875 12.800781 54.988281 12.800781 54.398438 L 12.800781 48 C 12.800781 47.410156 13.277344 46.933594 13.867188 46.933594 Z M 48 46.933594 L 50.132812 46.933594 C 50.722656 46.933594 51.199219 47.410156 51.199219 48 L 51.199219 54.398438 C 51.199219 54.988281 50.722656 55.46875 50.132812 55.46875 L 48 55.46875 C 47.410156 55.46875 46.933594 54.988281 46.933594 54.398438 L 46.933594 48 C 46.933594 47.410156 47.410156 46.933594 48 46.933594 Z M 56.535156 46.933594 L 58.667969 46.933594 C 59.253906 46.933594 59.734375 47.410156 59.734375 48 L 59.734375 54.398438 C 59.734375 54.988281 59.253906 55.46875 58.667969 55.46875 L 56.535156 55.46875 C 55.945312 55.46875 55.464844 54.988281 55.464844 54.398438 L 55.464844 48 C 55.464844 47.410156 55.945312 46.933594 56.535156 46.933594 Z M 56.535156 46.933594 "/>
</g>
</svg>
