<svg xmlns="http://www.w3.org/2000/svg" xmlns:xlink="http://www.w3.org/1999/xlink" width="64" height="64" viewBox="0 0 64 64" version="1.1">
<defs> <linearGradient id="linear0" gradientUnits="userSpaceOnUse" x1="0" y1="0" x2="0" y2="1" gradientTransform="matrix(55.992188,0,0,56,4.003906,4)"> <stop offset="0" style="stop-color:#ff6666;stop-opacity:1;"/> <stop offset="1" style="stop-color:#d90000;stop-opacity:1;"/> </linearGradient> </defs>
<g id="surface1">
<path style=" stroke:none;fill-rule:nonzero;fill:url(#linear0);fill-opacity:1;" d="M 18.222656 6.769531 C 17.910156 6.792969 17.945312 7.023438 18.089844 7.582031 C 19.421875 15.253906 19.164062 23.792969 14.710938 30.398438 C 11.3125 34.886719 5.898438 37.066406 3.28125 35.007812 C 2.929688 34.730469 2.628906 34.300781 2.378906 33.757812 C 2.519531 36.460938 3.023438 39.074219 3.847656 41.53125 C 3.847656 41.539062 3.855469 41.539062 3.855469 41.542969 C 8.550781 52.417969 19.402344 60.03125 32.042969 60.03125 C 44.761719 60.03125 55.667969 52.328125 60.320312 41.351562 C 60.320312 41.351562 60.324219 41.347656 60.324219 41.339844 C 60.984375 39.320312 61.433594 37.207031 61.644531 35.019531 C 60.917969 35.960938 59.890625 37.300781 59.027344 37.585938 C 55.191406 39.066406 49.109375 33.191406 45.601562 27.972656 C 38.511719 19.125 30.640625 9.925781 19.214844 6.917969 C 18.726562 6.816406 18.410156 6.757812 18.222656 6.769531 "/>
</g>
</svg>
