<svg xmlns="http://www.w3.org/2000/svg" xmlns:xlink="http://www.w3.org/1999/xlink" width="64" height="64" viewBox="0 0 64 64" version="1.1">
<defs>
<linearGradient id="linear0" gradientUnits="userSpaceOnUse" x1="0" y1="0" x2="0" y2="1" gradientTransform="matrix(52.941406,0,0,60,6,2)">
<stop offset="0" style="stop-color:#ff6666;stop-opacity:1;"/>
<stop offset="1" style="stop-color:#d90000;stop-opacity:1;"/>
</linearGradient>
</defs>
<g id="surface1">
<path style=" stroke:none;fill-rule:nonzero;fill:url(#linear0);" d="M 58.941406 36.875 C 58.941406 45.144531 56.855469 51.402344 52.6875 55.65625 C 48.519531 59.882812 42.28125 62 33.972656 62 C 28.125 62 23.078125 60.726562 18.828125 58.183594 C 14.605469 55.617188 11.414062 52.058594 9.246094 47.511719 C 7.082031 42.933594 6 37.625 6 31.574219 C 6 25.851562 7.136719 20.753906 9.410156 16.285156 C 11.683594 11.816406 14.957031 8.324219 19.234375 5.808594 C 23.511719 3.269531 28.464844 2 34.09375 2 C 40.292969 2 45.367188 3.5625 49.320312 6.695312 C 53.296875 9.824219 56.519531 14.347656 58.058594 19.648438 L 47.472656 19.648438 C 46.472656 17.183594 44.449219 14.839844 42.09375 13.234375 C 39.738281 11.628906 37.019531 10.824219 33.933594 10.824219 C 28.953125 10.824219 24.675781 12.792969 21.105469 16.726562 C 17.53125 20.632812 15.746094 25.570312 15.746094 31.535156 L 15.746094 31.539062 C 15.746094 35.550781 16.460938 39.191406 17.898438 42.453125 C 19.359375 45.691406 21.46875 48.289062 24.230469 50.238281 C 27.019531 52.195312 30.226562 53.175781 33.851562 53.175781 C 36.695312 53.175781 39.210938 52.820312 41.402344 52.125 C 43.625 51.402344 45.4375 50.253906 46.84375 48.675781 C 48.277344 47.070312 49.15625 44.863281 49.238281 42.589844 L 39.53125 42.589844 L 39.53125 33.765625 L 58.941406 33.765625 "/>
</g>
</svg>
