<svg xmlns="http://www.w3.org/2000/svg" xmlns:xlink="http://www.w3.org/1999/xlink" width="64" height="64" viewBox="0 0 64 64" version="1.1">
<defs> <linearGradient id="linear0" gradientUnits="userSpaceOnUse" x1="0" y1="0" x2="0" y2="1" gradientTransform="matrix(55.992188,0,0,56,4.003906,4)"> <stop offset="0" style="stop-color:#ff6666;stop-opacity:1;"/> <stop offset="1" style="stop-color:#d90000;stop-opacity:1;"/> </linearGradient> </defs>
<g id="surface1">
<path style=" stroke:none;fill-rule:nonzero;fill:url(#linear0);fill-opacity:1;" d="M 32.542969 58.550781 C 24.746094 58.550781 18.101562 55.714844 12.804688 50.132812 C 7.789062 44.847656 5.25 38.230469 5.25 30.464844 C 5.25 23.128906 8.039062 16.511719 13.320312 11.328125 C 18.609375 6.140625 25.128906 3.507812 32.699219 3.507812 C 44.152344 3.507812 53.898438 10.398438 58.183594 21.523438 L 43.535156 21.523438 C 40.238281 18.011719 36.707031 16.355469 32.542969 16.355469 C 24.730469 16.355469 18.371094 22.71875 18.371094 30.539062 C 18.371094 38.757812 24.859375 45.707031 32.542969 45.707031 C 37.671875 45.707031 42.121094 43.046875 44.742188 38.421875 L 44.890625 38.164062 L 29.484375 38.164062 L 29.484375 27.863281 L 59.628906 27.863281 C 59.703125 29.027344 59.769531 30.164062 59.769531 31.21875 C 59.769531 37.167969 58.277344 42.234375 55.210938 46.707031 C 50.09375 54.121094 41.625 58.550781 32.542969 58.550781 "/>
</g>
</svg>
