<svg xmlns="http://www.w3.org/2000/svg" xmlns:xlink="http://www.w3.org/1999/xlink" width="64px" height="64px" viewBox="0 0 64 64" version="1.1">
<defs>
<linearGradient id="linear0" gradientUnits="userSpaceOnUse" x1="0" y1="128" x2="128" y2="0" gradientTransform="matrix(0.432432,0,0,0.432432,4.324324,4.324324)">
<stop offset="0" style="stop-color:#ff6666;stop-opacity:1;"/>
<stop offset="1" style="stop-color:#d90000;stop-opacity:1;"/>
</linearGradient>
</defs>
<g id="surface1">
<path style=" stroke:none;fill-rule:nonzero;fill:url(#linear0);" d="M 13.328125 8.222656 L 15.625 14.492188 C 3.3125 21.9375 10.039062 31.796875 14.261719 35.859375 L 15.679688 34.953125 C 13.617188 30.632812 13.085938 26.363281 18.761719 22.316406 L 21.636719 29.585938 L 29.261719 13.886719 Z M 34.988281 20.046875 L 33.570312 20.953125 C 34.667969 23.25 35.324219 25.539062 34.855469 27.777344 C 36.316406 27.085938 37.90625 26.625 39.570312 26.425781 C 38.414062 23.792969 36.535156 21.53125 34.988281 20.046875 Z M 27.613281 26.316406 L 19.988281 42.019531 L 26.136719 44.210938 C 26.011719 43.417969 25.949219 42.613281 25.949219 41.789062 C 25.949219 37.925781 27.386719 34.394531 29.734375 31.683594 Z M 41.421875 27.804688 C 33.699219 27.804688 27.4375 34.0625 27.4375 41.789062 C 27.4375 49.515625 33.699219 55.777344 41.421875 55.777344 C 49.148438 55.777344 55.410156 49.515625 55.410156 41.789062 C 55.410156 34.0625 49.148438 27.804688 41.421875 27.804688 Z M 41.421875 29.886719 C 42.308594 29.886719 43.015625 30.613281 43.015625 31.519531 C 43.015625 32.425781 42.308594 33.15625 41.421875 33.15625 C 40.539062 33.15625 39.8125 32.425781 39.8125 31.519531 C 39.8125 30.613281 40.539062 29.886719 41.421875 29.886719 Z M 41.773438 38.277344 C 41.84375 38.269531 41.910156 38.273438 41.976562 38.277344 C 42.234375 38.285156 42.5 38.359375 42.734375 38.492188 C 43.488281 38.929688 43.738281 39.886719 43.300781 40.640625 C 43.277344 40.6875 43.210938 40.796875 43.164062 40.871094 C 46.152344 42.710938 49.835938 44.988281 50.597656 45.386719 C 51.824219 46.019531 52.617188 46.957031 52.355469 47.464844 C 52.089844 47.976562 50.878906 47.859375 49.652344 47.222656 C 48.863281 46.8125 44.613281 45.023438 41.339844 43.628906 C 40.230469 45.289062 39.039062 47.0625 38.800781 47.480469 C 38.363281 48.234375 37.59375 48.605469 37.070312 48.304688 C 36.550781 48.003906 36.472656 47.136719 36.910156 46.386719 C 37.136719 45.992188 37.992188 44.25 38.828125 42.546875 C 38.238281 42.289062 37.761719 42.074219 37.597656 41.992188 C 36.65625 41.507812 36.289062 40.339844 36.773438 39.398438 C 37.261719 38.457031 38.425781 38.085938 39.367188 38.574219 C 39.523438 38.65625 39.953125 38.90625 40.476562 39.222656 C 40.503906 39.175781 40.554688 39.089844 40.570312 39.0625 C 40.835938 38.609375 41.289062 38.328125 41.773438 38.277344 Z M 41.773438 38.277344 "/>
</g>
</svg>
