<svg xmlns="http://www.w3.org/2000/svg" xmlns:xlink="http://www.w3.org/1999/xlink" width="64" height="64" viewBox="0 0 64 64" version="1.1">
<defs> <linearGradient id="linear0" gradientUnits="userSpaceOnUse" x1="0" y1="0" x2="0" y2="1" gradientTransform="matrix(55.992188,0,0,56,4.003906,4)"> <stop offset="0" style="stop-color:#ff6666;stop-opacity:1;"/> <stop offset="1" style="stop-color:#d90000;stop-opacity:1;"/> </linearGradient> </defs>
<g id="surface1">
<path style=" stroke:none;fill-rule:nonzero;fill:url(#linear0);fill-opacity:1;" d="M 34.738281 6.292969 C 25.46875 6.292969 17.339844 11.238281 12.777344 18.59375 L 9.136719 14.230469 C 9.101562 14.207031 9.054688 14.199219 9.015625 14.1875 C 8.492188 13.636719 7.378906 13.96875 7.234375 14.714844 L 3.511719 36.324219 C 3.382812 36.929688 3.945312 37.585938 4.5625 37.578125 L 9.214844 36.402344 C 11.238281 48.664062 21.925781 58.058594 34.738281 58.058594 C 48.980469 58.058594 60.617188 46.453125 60.617188 32.195312 C 60.617188 17.9375 48.980469 6.292969 34.738281 6.292969 Z M 37.886719 14.144531 C 39.246094 14.160156 40.675781 14.421875 42.175781 14.867188 C 50.03125 17.863281 55.601562 23.265625 55.601562 32.195312 C 55.601562 43.753906 46.28125 53.074219 34.738281 53.074219 C 24.191406 53.074219 15.542969 45.300781 14.109375 35.148438 L 25.679688 32.191406 C 26.429688 32.167969 26.933594 31.136719 26.484375 30.535156 L 21.792969 27.011719 C 21.894531 26.621094 20.335938 25.539062 26.605469 18.867188 C 29.558594 15.722656 33.519531 14.09375 37.886719 14.136719 "/>
</g>
</svg>
