<svg xmlns="http://www.w3.org/2000/svg" xmlns:xlink="http://www.w3.org/1999/xlink" width="64" height="64" viewBox="0 0 64 64" version="1.1">
<defs>
<linearGradient id="linear0" gradientUnits="userSpaceOnUse" x1="0" y1="0" x2="0" y2="1" gradientTransform="matrix(64,0,0,64,0,0)">
<stop offset="0" style="stop-color:#ff6666;stop-opacity:1;"/>
<stop offset="1" style="stop-color:#d90000;stop-opacity:1;"/>
</linearGradient>
</defs>
<g id="surface1">
<path style=" stroke:none;fill-rule:evenodd;fill:url(#linear0);" d="M 23.734375 11.832031 C 15.007812 15.230469 9.261719 23.632812 9.246094 33 C 9.246094 45.5625 19.4375 55.753906 32 55.753906 C 44.5625 55.753906 54.753906 45.5625 54.753906 33 C 54.738281 23.902344 49.3125 15.6875 40.953125 12.109375 L 38.5 18.117188 C 44.421875 20.699219 48.246094 26.539062 48.246094 33 C 48.246094 41.976562 40.976562 49.246094 32 49.246094 C 23.023438 49.246094 15.746094 41.976562 15.746094 33 C 15.757812 26.464844 19.679688 20.5625 25.707031 18.03125 Z M 0 32 C 0 14.339844 14.339844 0 32 0 C 49.660156 0 64 14.339844 64 32 C 64 49.660156 49.660156 64 32 64 C 14.339844 64 0 49.660156 0 32 Z M 28.746094 3.753906 L 28.746094 23.253906 L 35.253906 23.253906 L 35.253906 3.753906 Z M 28.746094 3.753906 "/>
</g>
</svg>
