<svg xmlns="http://www.w3.org/2000/svg" xmlns:xlink="http://www.w3.org/1999/xlink" width="64" height="64" viewBox="0 0 64 64" version="1.1">
<defs> <linearGradient id="linear0" gradientUnits="userSpaceOnUse" x1="0" y1="0" x2="0" y2="1" gradientTransform="matrix(55.992188,0,0,56,4.003906,4)"> <stop offset="0" style="stop-color:#ff6666;stop-opacity:1;"/> <stop offset="1" style="stop-color:#d90000;stop-opacity:1;"/> </linearGradient> </defs>
<g id="surface1">
<path style=" stroke:none;fill-rule:nonzero;fill:url(#linear0);fill-opacity:1;" d="M 52.132812 7.871094 C 51.757812 7.871094 51.40625 8.007812 51.144531 8.273438 L 41.234375 18.140625 L 36.71875 18.140625 C 36.347656 18.140625 35.96875 18.285156 35.707031 18.542969 L 29.144531 25.082031 C 28.609375 25.601562 28.609375 26.582031 29.144531 27.101562 L 37.179688 35.101562 C 37.445312 35.367188 37.808594 35.515625 38.1875 35.503906 C 38.554688 35.503906 38.921875 35.355469 39.175781 35.101562 L 45.769531 28.542969 C 46.03125 28.28125 46.179688 27.925781 46.175781 27.558594 L 46.175781 23.039062 L 56.0625 13.195312 C 56.59375 12.671875 56.59375 11.695312 56.0625 11.175781 L 53.148438 8.273438 C 52.886719 8.007812 52.507812 7.867188 52.132812 7.867188 "/>
<path style=" stroke:none;fill-rule:nonzero;fill:url(#linear0);fill-opacity:1;" d="M 25.921875 28.847656 C 25.558594 28.847656 25.191406 29.019531 24.933594 29.273438 L 18.339844 35.808594 C 18.078125 36.074219 17.933594 36.449219 17.9375 36.820312 L 17.9375 41.3125 L 8.050781 51.179688 C 7.515625 51.703125 7.515625 52.65625 8.050781 53.175781 L 10.964844 56.078125 C 11.488281 56.609375 12.445312 56.609375 12.96875 56.078125 L 22.878906 46.234375 L 27.394531 46.234375 C 27.761719 46.238281 28.144531 46.089844 28.40625 45.832031 L 34.96875 39.269531 C 35.503906 38.75 35.503906 37.792969 34.96875 37.273438 L 26.933594 29.277344 C 26.667969 29.007812 26.304688 28.835938 25.921875 28.847656 Z M 25.921875 28.847656 "/>
</g>
</svg>
