<svg xmlns="http://www.w3.org/2000/svg" xmlns:xlink="http://www.w3.org/1999/xlink" width="64" height="64" viewBox="0 0 64 64" version="1.1">
<defs>
<linearGradient id="linear0" gradientUnits="userSpaceOnUse" x1="0" y1="0" x2="0" y2="1" gradientTransform="matrix(56.007812,0,0,56,3.996094,4)">
<stop offset="0" style="stop-color:#ff6666;stop-opacity:1;"/>
<stop offset="1" style="stop-color:#d90000;stop-opacity:1;"/>
</linearGradient>
</defs>
<g id="surface1">
<path style=" stroke:none;fill-rule:nonzero;fill:url(#linear0);" d="M 27.691406 59.28125 C 27.015625 58.90625 23.414062 56.648438 19.714844 54.277344 C 10.914062 48.652344 8.269531 47.019531 6.40625 46.121094 C 3.890625 44.894531 4.128906 46.320312 4.042969 31.925781 C 3.972656 18.480469 3.800781 16.136719 5.121094 16.484375 C 4.085938 15.546875 8.953125 14.078125 16.566406 10.832031 C 24.007812 7.652344 32.226562 4.453125 34.042969 4.015625 C 34.523438 3.902344 35.699219 4.367188 40.105469 6.476562 C 49.804688 11.09375 57.796875 15.335938 58.820312 16.410156 C 59.054688 16.65625 59.375 16.859375 59.539062 16.859375 C 60.003906 16.859375 60.132812 17.742188 59.867188 19.363281 C 59.753906 20.1875 58.839844 25.515625 57.855469 31.214844 C 56.871094 36.90625 55.996094 42.152344 55.914062 42.863281 C 55.625 45.386719 55.703125 45.296875 51.683594 47.660156 C 49.6875 48.84375 44.601562 51.6875 40.398438 53.976562 C 36.195312 56.261719 32.011719 58.558594 31.101562 59.089844 C 30.1875 59.601562 29.332031 60.007812 29.1875 60 C 29.050781 59.992188 28.375 59.671875 27.703125 59.289062 M 28.675781 53.699219 C 28.746094 51.777344 28.894531 46.261719 28.988281 41.457031 C 29.214844 30.785156 29.269531 31.113281 26.90625 29.601562 C 24.011719 27.738281 20.882812 26 15.550781 23.320312 C 12.644531 21.859375 9.464844 20.203125 8.46875 19.628906 C 7.246094 18.914062 6.601562 18.671875 6.449219 18.816406 C 6.15625 19.089844 6.136719 30.257812 6.40625 38.066406 L 6.601562 43.628906 L 8.203125 44.519531 C 9.585938 45.296875 17.632812 50.484375 25.433594 55.632812 C 26.757812 56.5 27.96875 57.199219 28.167969 57.210938 C 28.507812 57.21875 28.550781 56.773438 28.671875 53.710938 M 14.871094 44.140625 L 15.214844 33.363281 L 10.941406 31.203125 L 11.496094 26.757812 L 25.023438 32.929688 L 24.769531 37.105469 L 19.855469 35.152344 C 19.21875 37.558594 19.121094 42.398438 18.753906 46.09375 L 14.871094 44.140625 M 40.398438 51.695312 C 50.214844 46.300781 53.535156 44.324219 53.65625 43.761719 C 53.71875 43.503906 53.921875 42.21875 54.128906 40.914062 C 54.328125 39.601562 55.195312 34.460938 56.050781 29.484375 C 57.472656 21.136719 57.773438 19.011719 57.5 19.011719 C 57.207031 19.011719 51.949219 21.285156 45.238281 24.300781 C 41.09375 26.167969 36.492188 28.226562 35.011719 28.882812 C 33.527344 29.539062 32.195312 30.207031 32.03125 30.324219 C 31.574219 30.726562 30.519531 55.449219 30.929688 56.441406 C 31.054688 56.769531 31.21875 56.730469 32.359375 56.101562 C 33.078125 55.714844 36.6875 53.726562 40.386719 51.695312 M 35.476562 47.988281 C 35.402344 42.273438 34.949219 36.621094 36.28125 30.632812 L 39.058594 30.585938 L 39.304688 38.796875 L 49 27.453125 L 53.578125 26.3125 L 45.046875 37.53125 L 52.953125 41.160156 L 49.695312 43.175781 L 41.636719 39.738281 L 38.710938 41.125 L 38.613281 46.648438 M 32.457031 27.769531 C 33.113281 27.496094 37.890625 25.316406 43.097656 22.957031 C 48.292969 20.574219 53.195312 18.359375 54 18.035156 C 56.132812 17.148438 56.21875 17.03125 55.191406 16.375 C 53.625 15.390625 45.632812 11.308594 40.023438 8.636719 L 34.464844 5.984375 L 32.597656 6.589844 C 29.972656 7.445312 22.476562 10.441406 16.058594 13.222656 C 9.304688 16.132812 8.402344 16.566406 8.402344 16.914062 C 8.402344 17.066406 9.890625 17.980469 11.722656 18.957031 C 17.574219 22.0625 30.308594 28.292969 30.820312 28.292969 C 31.09375 28.292969 31.847656 28.058594 32.507812 27.78125 M 28.945312 24.316406 C 25.6875 23.550781 21.988281 21.734375 21.019531 20.460938 C 20.265625 19.441406 19.617188 17.800781 19.617188 16.886719 C 19.617188 15.785156 20.335938 14.226562 21.277344 13.289062 C 22.472656 12.105469 24.128906 11.601562 28.441406 11.121094 C 32.722656 10.636719 36.414062 10.78125 38.621094 11.519531 C 40.707031 12.210938 41.546875 12.640625 41.976562 13.238281 C 43.097656 14.78125 43.886719 16.074219 43.886719 16.339844 C 43.886719 16.730469 42.851562 17.117188 42.113281 16.988281 C 41.792969 16.925781 41.164062 16.824219 40.699219 16.746094 C 40.015625 16.648438 39.777344 16.457031 39.359375 15.757812 C 38.777344 14.78125 37.273438 13.769531 35.8125 13.390625 C 33.570312 12.820312 27.40625 13.304688 25.523438 14.1875 C 24.457031 14.6875 23.882812 15.792969 23.722656 17.625 C 23.609375 18.878906 23.652344 19.070312 24.144531 19.574219 C 24.800781 20.246094 26.628906 21.152344 28.667969 21.808594 C 29.796875 22.171875 30.457031 22.265625 31.238281 22.164062 C 33.058594 21.914062 33.273438 21.460938 32.195312 20.167969 C 31.261719 19.046875 31.039062 18.4375 31.339844 17.886719 C 31.558594 17.496094 31.738281 17.449219 32.753906 17.546875 C 34.199219 17.695312 37.265625 18.808594 37.972656 19.464844 C 38.613281 20.027344 38.710938 21.367188 38.148438 21.894531 C 37.527344 22.507812 34.734375 23.992188 33.644531 24.304688 C 32.375 24.667969 30.488281 24.667969 28.953125 24.304688 "/>
</g>
</svg>
