<svg xmlns="http://www.w3.org/2000/svg" xmlns:xlink="http://www.w3.org/1999/xlink" width="64" height="64" viewBox="0 0 64 64" version="1.1">
<defs>
<linearGradient id="linear0" gradientUnits="userSpaceOnUse" x1="0" y1="0" x2="0" y2="1" gradientTransform="matrix(42.679688,0,0,64,10.660156,0)">
<stop offset="0" style="stop-color:#ff6666;stop-opacity:1;"/>
<stop offset="1" style="stop-color:#d90000;stop-opacity:1;"/>
</linearGradient>
<linearGradient id="linear1" gradientUnits="userSpaceOnUse" x1="0" y1="0" x2="0" y2="1" gradientTransform="matrix(25.601562,0,0,17.066406,19.199219,8.535156)">
<stop offset="0" style="stop-color:#ff6666;stop-opacity:1;"/>
<stop offset="1" style="stop-color:#d90000;stop-opacity:1;"/>
</linearGradient>
</defs>
<g id="surface1">
<path style=" stroke:none;fill-rule:nonzero;fill:url(#linear0);" d="M 21.335938 0 C 19.023438 0 17.132812 0.273438 15.53125 0.984375 C 13.929688 1.695312 12.683594 2.933594 11.960938 4.382812 C 10.511719 7.28125 10.664062 10.664062 10.664062 14.929688 L 10.664062 49.070312 C 10.664062 53.335938 10.511719 56.71875 11.960938 59.617188 C 12.683594 61.066406 13.929688 62.304688 15.53125 63.015625 C 17.132812 63.726562 19.023438 64 21.335938 64 L 42.664062 64 C 44.976562 64 46.867188 63.726562 48.46875 63.015625 C 50.070312 62.304688 51.316406 61.066406 52.039062 59.617188 C 53.488281 56.71875 53.335938 53.335938 53.335938 49.070312 L 53.335938 14.929688 C 53.335938 10.664062 53.488281 7.28125 52.039062 4.382812 C 51.316406 2.933594 50.070312 1.695312 48.46875 0.984375 C 46.867188 0.273438 44.976562 0 42.664062 0 Z M 21.335938 4.265625 L 42.664062 4.265625 C 44.621094 4.265625 45.9375 4.527344 46.734375 4.882812 C 47.53125 5.238281 47.882812 5.597656 48.226562 6.28125 C 48.910156 7.652344 49.070312 10.664062 49.070312 14.929688 L 49.070312 49.070312 C 49.070312 53.335938 48.910156 56.347656 48.226562 57.71875 C 47.882812 58.402344 47.53125 58.761719 46.734375 59.117188 C 45.9375 59.472656 44.621094 59.734375 42.664062 59.734375 L 21.335938 59.734375 C 19.378906 59.734375 18.0625 59.472656 17.265625 59.117188 C 16.46875 58.761719 16.117188 58.402344 15.773438 57.71875 C 15.089844 56.347656 14.929688 53.335938 14.929688 49.070312 L 14.929688 14.929688 C 14.929688 10.664062 15.089844 7.652344 15.773438 6.28125 C 16.117188 5.597656 16.46875 5.238281 17.265625 4.882812 C 18.0625 4.527344 19.378906 4.265625 21.335938 4.265625 Z M 32 29.867188 C 24.957031 29.867188 19.203125 35.621094 19.203125 42.664062 C 19.203125 49.707031 24.957031 55.46875 32 55.46875 C 39.042969 55.46875 44.796875 49.707031 44.796875 42.664062 C 44.796875 35.621094 39.042969 29.867188 32 29.867188 Z M 32 34.132812 C 36.738281 34.132812 40.53125 37.925781 40.53125 42.664062 C 40.53125 47.402344 36.738281 51.203125 32 51.203125 C 27.261719 51.203125 23.46875 47.402344 23.46875 42.664062 C 23.46875 37.925781 27.261719 34.132812 32 34.132812 Z M 32 34.132812 "/>
<path style=" stroke:none;fill-rule:evenodd;fill:url(#linear1);" d="M 19.199219 8.535156 L 19.199219 25.601562 L 44.800781 25.601562 L 44.800781 8.535156 Z M 19.199219 8.535156 "/>
</g>
</svg>
