<svg xmlns="http://www.w3.org/2000/svg" xmlns:xlink="http://www.w3.org/1999/xlink" width="64" height="64" viewBox="0 0 64 64" version="1.1">
<defs> <linearGradient id="linear0" gradientUnits="userSpaceOnUse" x1="0" y1="0" x2="0" y2="1" gradientTransform="matrix(55.992188,0,0,56,4.003906,4)"> <stop offset="0" style="stop-color:#ff6666;stop-opacity:1;"/> <stop offset="1" style="stop-color:#d90000;stop-opacity:1;"/> </linearGradient> </defs>
<g id="surface1">
<path style=" stroke:none;fill-rule:nonzero;fill:url(#linear0);fill-opacity:1;" d="M 15.171875 6.765625 C 13.941406 6.773438 12.628906 7.417969 12.496094 8.953125 C 12.03125 15.75 11.96875 22.910156 12.929688 29.019531 C 13.429688 32.042969 14.15625 34.960938 15.125 37.523438 C 16.0625 39.964844 17.175781 42.285156 18.359375 44.269531 C 20.011719 47.023438 21.953125 49.53125 24.128906 51.496094 C 26.136719 53.300781 28.394531 54.800781 31.472656 56.832031 C 34.550781 54.800781 36.804688 53.300781 38.8125 51.496094 C 40.988281 49.53125 42.9375 47.023438 44.589844 44.269531 C 45.769531 42.285156 46.882812 39.972656 47.816406 37.523438 C 48.785156 34.960938 49.511719 32.042969 50.019531 29.019531 C 50.972656 22.910156 50.898438 15.75 50.433594 8.953125 C 50.300781 7.417969 48.992188 6.773438 47.757812 6.765625 L 15.167969 6.765625 "/>
</g>
</svg>
