<svg xmlns="http://www.w3.org/2000/svg" xmlns:xlink="http://www.w3.org/1999/xlink" width="64" height="64" viewBox="0 0 64 64" version="1.1">
<defs>
<linearGradient id="linear0" gradientUnits="userSpaceOnUse" x1="0" y1="0" x2="0" y2="1" gradientTransform="matrix(60.003906,0,0,60,2,2)">
<stop offset="0" style="stop-color:#ff6666;stop-opacity:1;"/>
<stop offset="1" style="stop-color:#d90000;stop-opacity:1;"/>
</linearGradient>
</defs>
<g id="surface1">
<path style=" stroke:none;fill-rule:nonzero;fill:url(#linear0);" d="M 28.886719 61.84375 C 24.441406 61.382812 19.183594 59.515625 15.613281 57.132812 C 12.785156 55.246094 10.023438 52.671875 8.082031 50.125 C 4.769531 45.769531 2.691406 40.476562 2.105469 34.878906 C 1.898438 32.878906 2.007812 29.148438 2.332031 27.179688 C 3.363281 20.941406 6.320312 15.183594 10.769531 10.730469 C 15.269531 6.234375 20.90625 3.351562 27.308594 2.273438 C 29.5 1.90625 34.804688 1.910156 36.796875 2.277344 C 45.550781 3.902344 52.503906 8.433594 57.191406 15.574219 C 58.113281 16.976562 58.507812 17.707031 58.402344 17.808594 C 58.367188 17.835938 53.96875 19.050781 48.621094 20.5 C 43.273438 21.949219 34.363281 24.371094 28.816406 25.878906 C 16.707031 29.171875 13.957031 29.902344 13.902344 29.859375 C 13.785156 29.773438 14.25 27.664062 14.683594 26.304688 C 15.203125 24.679688 16.425781 22.132812 16.777344 21.9375 C 17.015625 21.808594 43.277344 14.648438 45.613281 14.078125 C 45.957031 13.996094 46.210938 13.859375 46.183594 13.773438 C 46.09375 13.484375 43.992188 12.113281 42.527344 11.382812 C 40.753906 10.5 38.558594 9.730469 36.601562 9.304688 C 35.335938 9.027344 34.6875 8.984375 32.007812 8.984375 C 28.488281 8.984375 27.234375 9.175781 24.441406 10.148438 C 20.988281 11.347656 18.277344 13.050781 15.683594 15.652344 C 12.992188 18.351562 11.304688 21.074219 10.105469 24.664062 C 9.171875 27.453125 8.890625 29.46875 8.980469 32.695312 C 9.066406 35.574219 9.335938 37.148438 10.175781 39.59375 C 12.640625 46.769531 18.683594 52.371094 26.046875 54.304688 C 28.425781 54.929688 30.042969 55.089844 32.925781 54.996094 C 36.539062 54.882812 39.230469 54.207031 42.382812 52.632812 C 45.839844 50.902344 49.136719 47.992188 51.25 44.792969 C 52.335938 43.152344 53.621094 40.621094 53.453125 40.453125 C 53.371094 40.367188 49.574219 41.375 38.390625 44.429688 C 34.601562 45.464844 29.75 46.777344 27.613281 47.347656 L 23.722656 48.378906 L 22.9375 47.929688 C 21.875 47.320312 20.492188 46.289062 19.546875 45.402344 C 18.6875 44.597656 17.304688 42.996094 17.394531 42.910156 C 17.421875 42.882812 20.347656 42.074219 23.894531 41.125 C 27.4375 40.171875 33.082031 38.640625 36.433594 37.722656 C 39.785156 36.804688 44.84375 35.433594 47.679688 34.671875 C 50.511719 33.914062 54.753906 32.765625 57.105469 32.121094 C 59.460938 31.476562 61.484375 30.933594 61.605469 30.917969 C 62.195312 30.816406 62.113281 34.761719 61.453125 37.992188 C 61.046875 39.984375 60.007812 43.042969 59.085938 44.957031 C 56.1875 50.984375 51.226562 55.988281 45.285156 58.882812 C 40.140625 61.386719 34.421875 62.421875 28.886719 61.84375 Z M 15.210938 39.117188 C 14.519531 37.492188 14.164062 36.046875 13.8125 33.460938 C 13.777344 33.210938 13.871094 33.105469 14.21875 32.996094 C 14.671875 32.851562 22.359375 30.773438 33.53125 27.777344 C 36.804688 26.898438 42.125 25.464844 45.355469 24.589844 C 53.851562 22.296875 59.617188 20.765625 59.859375 20.742188 C 60.234375 20.714844 61.503906 24.59375 61.824219 26.753906 L 61.921875 27.414062 L 56.285156 28.90625 C 53.1875 29.730469 47.78125 31.183594 44.269531 32.136719 C 40.757812 33.089844 36.152344 34.328125 34.039062 34.890625 C 31.925781 35.449219 26.960938 36.785156 23.003906 37.855469 C 19.050781 38.925781 15.746094 39.804688 15.660156 39.804688 C 15.574219 39.804688 15.371094 39.496094 15.210938 39.117188 Z M 15.210938 39.117188 "/>
</g>
</svg>
