<svg xmlns="http://www.w3.org/2000/svg" xmlns:xlink="http://www.w3.org/1999/xlink" width="64" height="64" viewBox="0 0 64 64" version="1.1">
<defs>
<linearGradient id="linear0" gradientUnits="userSpaceOnUse" x1="0" y1="0" x2="0" y2="1" gradientTransform="matrix(64,0,0,64,0,0)">
<stop offset="0" style="stop-color:#ff6666;stop-opacity:1;"/>
<stop offset="1" style="stop-color:#d90000;stop-opacity:1;"/>
</linearGradient>
</defs>
<g id="surface1">
<path style=" stroke:none;fill-rule:nonzero;fill:url(#linear0);" d="M 56.886719 17.777344 C 54.171875 9.164062 44.878906 7.175781 37.390625 7.113281 C 30.796875 7.113281 25.953125 9.574219 22.855469 13.929688 C 19.785156 18.253906 17.777344 22.683594 17.777344 32.019531 C 17.777344 41.277344 19.726562 45.960938 22.683594 50.339844 C 25.640625 54.691406 31.660156 56.84375 36.496094 56.867188 C 40.765625 56.886719 45.53125 55.046875 49.777344 53.332031 L 49.777344 39.382812 L 42.667969 39.382812 L 42.667969 35.554688 L 64 35.554688 L 64 56.886719 C 54.660156 61.867188 44.851562 63.960938 35.09375 64 C 24.175781 64 15.59375 61.148438 9.335938 55.449219 C 3.113281 49.742188 0 41.9375 0 32.019531 C 0 22.074219 3.113281 14.253906 9.335938 8.550781 C 15.59375 2.851562 24.175781 0 35.09375 0 C 44.40625 0.304688 52.488281 2.199219 60.445312 5.335938 L 60.445312 17.78125 Z M 56.886719 17.777344 "/>
</g>
</svg>
