<svg xmlns="http://www.w3.org/2000/svg" xmlns:xlink="http://www.w3.org/1999/xlink" width="64" height="64" viewBox="0 0 64 64" version="1.1">
<defs>
<linearGradient id="linear0" gradientUnits="userSpaceOnUse" x1="0" y1="0" x2="0" y2="1" gradientTransform="matrix(-4,0.00000000000000049,-0.000000000000006858,-56,36,60)">
<stop offset="0" style="stop-color:#ff6666;stop-opacity:1;"/>
<stop offset="1" style="stop-color:#d90000;stop-opacity:1;"/>
</linearGradient>
<linearGradient id="linear1" gradientUnits="userSpaceOnUse" x1="0" y1="0" x2="0" y2="1" gradientTransform="matrix(-4,0.00000000000000049,-0.000000000000004899,-40,28,52)">
<stop offset="0" style="stop-color:#ff6666;stop-opacity:1;"/>
<stop offset="1" style="stop-color:#d90000;stop-opacity:1;"/>
</linearGradient>
<linearGradient id="linear2" gradientUnits="userSpaceOnUse" x1="0" y1="0" x2="0" y2="1" gradientTransform="matrix(-4,0.00000000000000049,-0.000000000000003919,-32,20,48)">
<stop offset="0" style="stop-color:#ff6666;stop-opacity:1;"/>
<stop offset="1" style="stop-color:#d90000;stop-opacity:1;"/>
</linearGradient>
<linearGradient id="linear3" gradientUnits="userSpaceOnUse" x1="0" y1="0" x2="0" y2="1" gradientTransform="matrix(-4,0.00000000000000049,-0.00000000000000147,-12,12,36)">
<stop offset="0" style="stop-color:#ff6666;stop-opacity:1;"/>
<stop offset="1" style="stop-color:#d90000;stop-opacity:1;"/>
</linearGradient>
<linearGradient id="linear4" gradientUnits="userSpaceOnUse" x1="0" y1="0" x2="0" y2="1" gradientTransform="matrix(4,0,0,40,40,12)">
<stop offset="0" style="stop-color:#ff6666;stop-opacity:1;"/>
<stop offset="1" style="stop-color:#d90000;stop-opacity:1;"/>
</linearGradient>
<linearGradient id="linear5" gradientUnits="userSpaceOnUse" x1="0" y1="0" x2="0" y2="1" gradientTransform="matrix(4,0,0,32,48,16)">
<stop offset="0" style="stop-color:#ff6666;stop-opacity:1;"/>
<stop offset="1" style="stop-color:#d90000;stop-opacity:1;"/>
</linearGradient>
<linearGradient id="linear6" gradientUnits="userSpaceOnUse" x1="0" y1="0" x2="0" y2="1" gradientTransform="matrix(4,0,0,12,56,24)">
<stop offset="0" style="stop-color:#ff6666;stop-opacity:1;"/>
<stop offset="1" style="stop-color:#d90000;stop-opacity:1;"/>
</linearGradient>
</defs>
<g id="surface1">
<path style=" stroke:none;fill-rule:nonzero;fill:url(#linear0);" d="M 36 60 L 36 4 L 32 4 L 32 60 Z M 36 60 "/>
<path style=" stroke:none;fill-rule:nonzero;fill:url(#linear1);" d="M 28 52 L 28 12 L 24 12 L 24 52 Z M 28 52 "/>
<path style=" stroke:none;fill-rule:nonzero;fill:url(#linear2);" d="M 20 48 L 20 16 L 16 16 L 16 48 Z M 20 48 "/>
<path style=" stroke:none;fill-rule:nonzero;fill:url(#linear3);" d="M 12 36 L 12 24 L 8 24 L 8 36 Z M 12 36 "/>
<path style=" stroke:none;fill-rule:nonzero;fill:url(#linear4);" d="M 40 12 L 40 52 L 44 52 L 44 12 Z M 40 12 "/>
<path style=" stroke:none;fill-rule:nonzero;fill:url(#linear5);" d="M 48 16 L 48 48 L 52 48 L 52 16 Z M 48 16 "/>
<path style=" stroke:none;fill-rule:nonzero;fill:url(#linear6);" d="M 56 24 L 56 36 L 60 36 L 60 24 Z M 56 24 "/>
</g>
</svg>
