<svg xmlns="http://www.w3.org/2000/svg" xmlns:xlink="http://www.w3.org/1999/xlink" width="64" height="64" viewBox="0 0 64 64" version="1.1">
<defs>
<linearGradient id="linear0" gradientUnits="userSpaceOnUse" x1="0" y1="0" x2="0" y2="1" gradientTransform="matrix(32.875,0,0,40,15.5625,12)">
<stop offset="0" style="stop-color:#ff6666;stop-opacity:1;"/>
<stop offset="1" style="stop-color:#d90000;stop-opacity:1;"/>
</linearGradient>
<linearGradient id="linear1" gradientUnits="userSpaceOnUse" x1="0" y1="0" x2="0" y2="1" gradientTransform="matrix(64,0,0,64,0,0)">
<stop offset="0" style="stop-color:#ff6666;stop-opacity:1;"/>
<stop offset="1" style="stop-color:#d90000;stop-opacity:1;"/>
</linearGradient>
</defs>
<g id="surface1">
<path style=" stroke:none;fill-rule:evenodd;fill:url(#linear0);" d="M 47.132812 12.007812 C 46.824219 11.984375 46.460938 12.011719 46.035156 12.050781 L 26.765625 15.058594 C 24.59375 15.277344 24.355469 16.292969 24.375 17.558594 L 24.375 43.003906 C 23.269531 42.277344 22.089844 41.761719 20.511719 41.761719 C 18.484375 41.761719 17.273438 42.539062 16.539062 43.5625 C 15.808594 44.585938 15.5625 45.875 15.5625 46.875 C 15.5625 48.074219 15.980469 49.355469 16.867188 50.335938 C 17.757812 51.3125 19.128906 52 21.097656 52 C 23.320312 52 24.878906 51.378906 25.765625 50.167969 C 26.460938 49.214844 26.847656 47.933594 26.984375 46.363281 C 27.007812 46.171875 27.019531 45.972656 27.027344 45.773438 C 27.039062 45.609375 27.039062 45.5 27.039062 45.3125 L 27.050781 45.3125 L 27.050781 24.722656 C 27.109375 23.066406 28.609375 22.820312 28.609375 22.820312 L 44.257812 20.378906 C 45.757812 19.917969 45.761719 21.777344 45.761719 21.777344 L 45.761719 40.332031 C 44.65625 39.605469 43.472656 39.089844 41.898438 39.089844 C 39.867188 39.089844 38.65625 39.867188 37.925781 40.890625 C 37.191406 41.914062 36.949219 43.203125 36.949219 44.199219 C 36.949219 45.402344 37.363281 46.683594 38.253906 47.660156 C 39.144531 48.640625 40.511719 49.328125 42.480469 49.328125 C 44.703125 49.328125 46.265625 48.707031 47.148438 47.496094 C 47.84375 46.539062 48.234375 45.261719 48.371094 43.6875 C 48.390625 43.496094 48.402344 43.300781 48.414062 43.097656 C 48.421875 42.9375 48.421875 42.828125 48.421875 42.640625 L 48.433594 42.640625 L 48.433594 14.390625 C 48.46875 12.558594 48.058594 12.074219 47.132812 12.007812 Z M 47.132812 12.007812 "/>
<path style=" stroke:none;fill-rule:nonzero;fill:url(#linear1);" d="M 18.261719 0 C 12.507812 0.0664062 8.300781 -0.136719 4.859375 1.761719 C 3.136719 2.710938 1.777344 4.316406 1.023438 6.320312 C 0.273438 8.328125 0 10.707031 0 13.710938 L 0 50.285156 C 0 53.292969 0.273438 55.671875 1.023438 57.679688 C 1.777344 59.683594 3.136719 61.289062 4.859375 62.238281 C 8.300781 64.136719 12.507812 63.933594 18.261719 64 L 45.738281 64 C 51.492188 63.933594 55.699219 64.136719 59.140625 62.238281 C 60.863281 61.289062 62.222656 59.683594 62.976562 57.679688 C 63.726562 55.671875 64 53.292969 64 50.285156 L 64 13.710938 C 64 10.707031 63.726562 8.328125 62.976562 6.320312 C 62.222656 4.316406 60.863281 2.710938 59.140625 1.761719 C 55.699219 -0.136719 51.492188 0.0664062 45.738281 0 Z M 18.3125 4.570312 L 45.710938 4.570312 C 51.46875 4.636719 55.257812 4.839844 56.929688 5.761719 C 57.769531 6.226562 58.246094 6.738281 58.695312 7.925781 C 59.140625 9.113281 59.425781 11.003906 59.425781 13.710938 L 59.425781 50.285156 C 59.425781 52.992188 59.140625 54.882812 58.695312 56.070312 C 58.246094 57.257812 57.769531 57.773438 56.929688 58.234375 C 55.257812 59.15625 51.46875 59.359375 45.710938 59.429688 L 18.289062 59.429688 C 12.527344 59.359375 8.742188 59.15625 7.070312 58.234375 C 6.230469 57.773438 5.753906 57.257812 5.304688 56.070312 C 4.859375 54.882812 4.574219 52.992188 4.574219 50.285156 L 4.574219 13.710938 C 4.574219 11.003906 4.859375 9.113281 5.304688 7.925781 C 5.753906 6.738281 6.230469 6.226562 7.070312 5.761719 C 8.746094 4.839844 12.535156 4.636719 18.3125 4.570312 Z M 18.3125 4.570312 "/>
</g>
</svg>
