<svg xmlns="http://www.w3.org/2000/svg" xmlns:xlink="http://www.w3.org/1999/xlink" width="64" height="64" viewBox="0 0 64 64" version="1.1">
<defs>
<linearGradient id="linear0" gradientUnits="userSpaceOnUse" x1="0" y1="0" x2="0" y2="1" gradientTransform="matrix(63.996094,0,0,29.625,0.00390625,17.1875)">
<stop offset="0" style="stop-color:#ff6666;stop-opacity:1;"/>
<stop offset="1" style="stop-color:#d90000;stop-opacity:1;"/>
</linearGradient>
</defs>
<g id="surface1">
<path style=" stroke:none;fill-rule:evenodd;fill:url(#linear0);" d="M 22.535156 26.074219 L 22.71875 17.1875 L 8.601562 17.1875 C 7.816406 17.496094 7.011719 17.378906 6.332031 17.835938 C 2.863281 20.164062 0.847656 24.78125 0.132812 30.9375 C -0.222656 32.945312 0.132812 34.359375 1.429688 36.71875 C 2.210938 39.175781 3.023438 40.945312 3.601562 42.324219 C 5.261719 46.277344 6.703125 46.996094 9.804688 46.769531 L 24.707031 46.769531 L 26.746094 36.121094 L 26.746094 32 L 17.8125 32 L 17.769531 37.925781 L 11.425781 37.925781 L 8.925781 31.722656 C 9.15625 29.515625 9.804688 27.738281 10.824219 26.074219 Z M 32.382812 26.074219 L 32.382812 17.1875 L 59.398438 17.1875 C 64.304688 17.1875 65.472656 20.003906 62.003906 23.472656 L 47.550781 37.925781 L 62.007812 37.925781 L 62.007812 46.8125 L 34.976562 46.8125 C 30.066406 46.8125 28.902344 43.996094 32.371094 40.527344 L 46.824219 26.074219 Z M 32.382812 26.074219 "/>
</g>
</svg>
