<svg xmlns="http://www.w3.org/2000/svg" xmlns:xlink="http://www.w3.org/1999/xlink" width="64" height="64" viewBox="0 0 64 64" version="1.1">
<defs>
<linearGradient id="linear0" gradientUnits="userSpaceOnUse" x1="0" y1="0" x2="0" y2="1" gradientTransform="matrix(60,0,0,40,2,12)">
<stop offset="0" style="stop-color:#ff6666;stop-opacity:1;"/>
<stop offset="1" style="stop-color:#d90000;stop-opacity:1;"/>
</linearGradient>
</defs>
<g id="surface1">
<path style=" stroke:none;fill-rule:nonzero;fill:url(#linear0);" d="M 23.378906 12 C 17.128906 12.007812 10.886719 12.003906 4.640625 12.007812 C 4.167969 12.007812 3.71875 12.105469 3.304688 12.359375 C 2.242188 13.003906 1.898438 13.949219 2.023438 15.105469 C 2.027344 15.167969 2.03125 15.226562 2.03125 15.285156 C 2.027344 21.480469 2.019531 25.015625 2.015625 31.203125 C 2.015625 32.777344 3.121094 35.960938 4.734375 35.984375 C 5.164062 35.992188 5.59375 35.992188 6.023438 35.992188 C 9.976562 36 14.054688 36.007812 18.003906 36.015625 C 17.6875 37.753906 16.871094 39.832031 15.503906 41.066406 C 14.363281 42.089844 13.566406 42.546875 12.101562 42.871094 C 10.945312 43.125 10.050781 43.511719 10.046875 44.410156 C 10.046875 44.664062 10.058594 44.921875 10.0625 45.183594 L 10.03125 48.699219 C 10.039062 49.351562 10.039062 50.007812 10.046875 50.660156 C 10.058594 51.589844 10.347656 52.113281 11.304688 51.980469 C 12.5625 51.804688 14.183594 51.523438 15.402344 51.191406 C 15.445312 51.167969 15.5 51.148438 15.542969 51.117188 C 15.621094 51.097656 15.699219 51.078125 15.773438 51.058594 C 15.917969 50.988281 16.058594 50.90625 16.207031 50.847656 C 22.03125 48.5 25.984375 42.777344 25.988281 36.664062 C 25.996094 29.824219 25.988281 22.988281 25.988281 16.148438 L 25.996094 14.328125 C 25.894531 13.070312 24.734375 11.996094 23.378906 12 Z M 59.382812 12 C 53.132812 12.007812 46.890625 12.003906 40.644531 12.007812 C 40.171875 12.007812 39.71875 12.105469 39.308594 12.359375 C 38.25 13.003906 37.90625 13.949219 38.027344 15.105469 C 38.03125 15.167969 38.035156 15.226562 38.035156 15.285156 C 38.03125 21.480469 38.019531 25.015625 38.019531 31.203125 C 38.019531 32.777344 39.125 35.960938 40.742188 35.984375 C 41.167969 35.992188 41.597656 35.992188 42.027344 35.992188 C 45.980469 36 50.058594 36.007812 54.007812 36.015625 C 53.691406 37.753906 52.875 39.832031 51.507812 41.066406 C 50.367188 42.089844 49.570312 42.546875 48.105469 42.871094 C 46.949219 43.125 46.054688 43.511719 46.050781 44.410156 C 46.050781 44.664062 46.0625 44.921875 46.066406 45.183594 L 46.035156 48.699219 C 46.042969 49.351562 46.042969 50.007812 46.050781 50.660156 C 46.0625 51.589844 46.347656 52.113281 47.308594 51.980469 C 48.566406 51.804688 50.1875 51.523438 51.40625 51.191406 C 51.449219 51.167969 51.5 51.148438 51.546875 51.117188 C 51.625 51.097656 51.703125 51.078125 51.777344 51.058594 C 51.921875 50.988281 52.0625 50.90625 52.210938 50.847656 C 58.035156 48.5 61.988281 42.777344 61.992188 36.664062 C 62 29.824219 61.992188 22.988281 61.992188 16.148438 C 62.011719 16 61.992188 14.25 61.992188 14.25 C 61.851562 13.027344 60.707031 11.996094 59.382812 12 Z M 59.382812 12 "/>
</g>
</svg>
