<svg xmlns="http://www.w3.org/2000/svg" xmlns:xlink="http://www.w3.org/1999/xlink" width="64" height="64" viewBox="0 0 64 64" version="1.1">
<defs> <linearGradient id="linear0" gradientUnits="userSpaceOnUse" x1="0" y1="0" x2="0" y2="1" gradientTransform="matrix(55.992188,0,0,56,4.003906,4)"> <stop offset="0" style="stop-color:#ff6666;stop-opacity:1;"/> <stop offset="1" style="stop-color:#d90000;stop-opacity:1;"/> </linearGradient> </defs>
<g id="surface1">
<path style=" stroke:none;fill-rule:evenodd;fill:url(#linear0);fill-opacity:1;" d="M 21.6875 3.132812 C 20.699219 3.132812 19.898438 3.929688 19.898438 4.914062 L 19.898438 12.695312 C 19.898438 13.679688 20.699219 14.464844 21.6875 14.464844 C 22.675781 14.464844 23.476562 13.679688 23.476562 12.695312 L 23.476562 4.914062 C 23.476562 3.929688 22.675781 3.132812 21.6875 3.132812 M 31.605469 3.132812 C 30.621094 3.132812 29.828125 3.929688 29.828125 4.914062 L 29.828125 12.695312 C 29.828125 13.679688 30.621094 14.464844 31.605469 14.464844 C 32.59375 14.464844 33.394531 13.679688 33.394531 12.695312 L 33.394531 4.914062 C 33.394531 3.929688 32.59375 3.132812 31.605469 3.132812 M 41.535156 3.132812 C 40.546875 3.132812 39.746094 3.929688 39.746094 4.914062 L 39.746094 12.695312 C 39.746094 13.679688 40.546875 14.464844 41.535156 14.464844 C 42.523438 14.464844 43.3125 13.679688 43.3125 12.695312 L 43.3125 4.914062 C 43.3125 3.929688 42.523438 3.132812 41.535156 3.132812 M 21.523438 17.023438 C 18.800781 17.023438 16.613281 19.210938 16.613281 21.914062 L 16.613281 42.121094 C 16.613281 44.828125 18.800781 47.007812 21.523438 47.007812 L 41.699219 47.007812 C 44.417969 47.007812 46.605469 44.828125 46.605469 42.121094 L 46.605469 21.914062 C 46.605469 19.210938 44.417969 17.023438 41.699219 17.023438 Z M 34.945312 19.945312 C 35.128906 19.941406 35.296875 20.054688 35.367188 20.222656 C 35.429688 20.394531 35.503906 20.527344 35.578125 20.679688 C 35.582031 20.6875 35.582031 20.699219 35.589844 20.703125 C 35.882812 21.410156 35.910156 21.417969 36.140625 21.875 C 36.234375 22.015625 36.40625 22.292969 36.628906 22.738281 C 36.722656 22.925781 36.667969 23.160156 36.503906 23.28125 C 35.246094 24.238281 35.164062 24.324219 34.128906 25.246094 C 34.101562 25.285156 34.066406 25.3125 34.027344 25.339844 C 34.019531 25.339844 34.015625 25.347656 34.007812 25.351562 C 34 25.351562 33.992188 25.359375 33.980469 25.359375 C 33.976562 25.363281 33.976562 25.371094 33.96875 25.371094 C 33.957031 25.375 33.953125 25.375 33.945312 25.375 C 33.929688 25.382812 33.917969 25.386719 33.902344 25.390625 C 33.855469 25.402344 33.816406 25.410156 33.769531 25.410156 C 33.765625 25.410156 33.757812 25.410156 33.753906 25.410156 C 33.742188 25.402344 33.730469 25.402344 33.726562 25.402344 C 33.703125 25.398438 33.6875 25.398438 33.667969 25.390625 C 33.667969 25.390625 33.667969 25.390625 33.664062 25.390625 C 33.65625 25.386719 33.644531 25.386719 33.640625 25.382812 C 33.636719 25.382812 33.628906 25.375 33.625 25.375 C 33.59375 25.363281 33.574219 25.351562 33.542969 25.339844 C 33.539062 25.335938 33.53125 25.332031 33.527344 25.324219 C 33.519531 25.320312 33.515625 25.3125 33.511719 25.308594 C 33.5 25.300781 33.488281 25.289062 33.46875 25.285156 C 33.46875 25.28125 33.464844 25.273438 33.457031 25.269531 C 33.453125 25.261719 33.449219 25.25 33.449219 25.246094 C 33.417969 25.21875 33.394531 25.1875 33.378906 25.15625 C 33.378906 25.148438 33.375 25.144531 33.375 25.136719 C 33.367188 25.125 33.367188 25.125 33.363281 25.117188 C 32.585938 23.980469 32.203125 23.316406 31.9375 22.472656 C 31.867188 22.269531 31.960938 22.039062 32.152344 21.941406 C 32.25 21.890625 32.390625 21.796875 32.539062 21.683594 C 32.542969 21.675781 32.554688 21.675781 32.5625 21.671875 C 32.890625 21.449219 33.144531 21.265625 33.316406 21.128906 C 33.695312 20.824219 34.015625 20.578125 34.113281 20.484375 C 34.300781 20.300781 34.507812 20.171875 34.675781 20.042969 C 34.742188 19.992188 34.820312 19.957031 34.90625 19.945312 C 34.917969 19.945312 34.933594 19.945312 34.945312 19.941406 M 4.625 20.355469 C 3.636719 20.355469 2.84375 21.140625 2.84375 22.125 C 2.84375 23.109375 3.636719 23.90625 4.625 23.90625 L 12.441406 23.90625 C 13.429688 23.90625 14.21875 23.109375 14.21875 22.125 C 14.21875 21.140625 13.429688 20.355469 12.441406 20.355469 Z M 51.683594 20.355469 C 50.695312 20.355469 49.898438 21.140625 49.898438 22.125 C 49.898438 23.109375 50.695312 23.90625 51.683594 23.90625 L 59.496094 23.90625 C 60.484375 23.90625 61.273438 23.109375 61.273438 22.125 C 61.273438 21.140625 60.484375 20.355469 59.496094 20.355469 Z M 33.75 27.621094 C 33.964844 27.621094 34.1875 27.6875 34.363281 27.828125 C 34.53125 27.972656 34.652344 28.207031 34.652344 28.441406 C 34.652344 28.609375 34.613281 28.75 34.550781 29.0625 C 34.480469 29.378906 34.375 29.84375 34.203125 30.542969 C 33.867188 31.941406 33.300781 34.28125 32.339844 38.21875 C 32.335938 38.21875 32.335938 38.222656 32.335938 38.230469 C 32.113281 39.027344 32.011719 39.738281 32.011719 40.023438 C 32.011719 40.28125 32.074219 40.464844 32.125 40.550781 C 32.175781 40.632812 32.1875 40.632812 32.242188 40.632812 C 32.476562 40.632812 32.464844 40.65625 32.96875 40.417969 C 33.457031 40.1875 34.390625 39.6875 36.105469 38.773438 C 36.117188 38.761719 36.132812 38.75 36.144531 38.746094 C 36.183594 38.722656 36.21875 38.707031 36.257812 38.695312 C 36.269531 38.695312 36.277344 38.695312 36.28125 38.6875 C 36.292969 38.6875 36.296875 38.6875 36.308594 38.683594 C 36.339844 38.675781 36.367188 38.675781 36.394531 38.675781 C 36.40625 38.675781 36.410156 38.675781 36.417969 38.675781 C 36.421875 38.675781 36.429688 38.675781 36.441406 38.675781 C 36.453125 38.675781 36.46875 38.683594 36.484375 38.6875 C 36.496094 38.695312 36.515625 38.695312 36.523438 38.699219 C 36.53125 38.699219 36.53125 38.699219 36.53125 38.699219 C 36.542969 38.707031 36.554688 38.710938 36.570312 38.714844 C 36.585938 38.726562 36.609375 38.734375 36.632812 38.746094 C 36.734375 38.816406 36.804688 38.929688 36.828125 39.054688 C 36.828125 39.0625 36.828125 39.066406 36.828125 39.074219 C 36.828125 39.085938 36.828125 39.089844 36.828125 39.101562 C 36.832031 39.136719 36.832031 39.175781 36.828125 39.207031 C 36.820312 39.21875 36.820312 39.230469 36.820312 39.25 L 36.816406 39.257812 L 36.671875 40.230469 C 36.65625 40.363281 36.578125 40.480469 36.464844 40.554688 C 36.109375 40.765625 35.78125 40.984375 35.433594 41.175781 C 35.417969 41.183594 35.40625 41.1875 35.394531 41.199219 C 34.683594 41.679688 33.976562 42.132812 33.277344 42.574219 C 31.265625 43.855469 30.253906 44.398438 29.386719 44.398438 C 28.957031 44.398438 28.574219 44.132812 28.359375 43.777344 C 28.136719 43.417969 28.035156 42.976562 28.035156 42.460938 C 28.035156 41.996094 28.039062 41.675781 28.269531 40.71875 C 28.488281 39.769531 28.9375 38.128906 29.820312 34.855469 C 29.820312 34.855469 29.820312 34.855469 29.820312 34.847656 C 30.378906 32.722656 30.484375 32.242188 30.484375 31.824219 C 30.484375 31.671875 30.453125 31.617188 30.441406 31.597656 C 30.328125 31.597656 30.3125 31.585938 29.996094 31.730469 C 29.648438 31.890625 29.046875 32.207031 27.9375 32.808594 C 27.796875 32.886719 27.621094 32.878906 27.484375 32.789062 C 27.347656 32.703125 27.269531 32.546875 27.28125 32.386719 L 27.359375 31.335938 C 27.371094 31.199219 27.4375 31.074219 27.550781 31.003906 C 29.101562 29.96875 30.4375 29.136719 31.476562 28.558594 C 31.992188 28.277344 32.4375 28.042969 32.804688 27.886719 C 33.175781 27.726562 33.449219 27.621094 33.75 27.621094 M 4.625 30.234375 C 3.636719 30.234375 2.835938 31.03125 2.835938 32.015625 C 2.835938 33 3.636719 33.785156 4.625 33.785156 L 12.433594 33.785156 C 13.421875 33.785156 14.210938 33 14.210938 32.015625 C 14.210938 31.03125 13.429688 30.234375 12.433594 30.234375 Z M 51.683594 30.234375 C 50.695312 30.234375 49.894531 31.03125 49.894531 32.015625 C 49.894531 33 50.695312 33.785156 51.683594 33.785156 L 59.492188 33.785156 C 60.480469 33.785156 61.269531 33 61.269531 32.015625 C 61.269531 31.03125 60.480469 30.234375 59.492188 30.234375 Z M 4.625 40.113281 C 3.636719 40.113281 2.835938 40.910156 2.835938 41.894531 C 2.835938 42.878906 3.636719 43.671875 4.625 43.671875 L 12.433594 43.671875 C 13.421875 43.671875 14.210938 42.878906 14.210938 41.894531 C 14.210938 40.910156 13.429688 40.113281 12.433594 40.113281 Z M 51.683594 40.113281 C 50.695312 40.113281 49.894531 40.910156 49.894531 41.894531 C 49.894531 42.878906 50.695312 43.671875 51.683594 43.671875 L 59.492188 43.671875 C 60.480469 43.671875 61.269531 42.878906 61.269531 41.894531 C 61.269531 40.910156 60.480469 40.113281 59.492188 40.113281 Z M 21.6875 49.878906 C 20.699219 49.878906 19.898438 50.675781 19.898438 51.660156 L 19.898438 59.445312 C 19.898438 60.425781 20.699219 61.214844 21.6875 61.214844 C 22.675781 61.214844 23.476562 60.425781 23.476562 59.445312 L 23.476562 51.660156 C 23.476562 50.675781 22.675781 49.878906 21.6875 49.878906 M 31.605469 49.878906 C 30.621094 49.878906 29.828125 50.675781 29.828125 51.660156 L 29.828125 59.445312 C 29.828125 60.425781 30.621094 61.214844 31.605469 61.214844 C 32.59375 61.214844 33.394531 60.425781 33.394531 59.445312 L 33.394531 51.660156 C 33.394531 50.675781 32.59375 49.878906 31.605469 49.878906 M 41.535156 49.878906 C 40.546875 49.878906 39.746094 50.675781 39.746094 51.660156 L 39.746094 59.445312 C 39.746094 60.425781 40.546875 61.214844 41.535156 61.214844 C 42.523438 61.214844 43.3125 60.425781 43.3125 59.445312 L 43.3125 51.660156 C 43.3125 50.675781 42.523438 49.878906 41.535156 49.878906 "/>
</g>
</svg>
