<svg xmlns="http://www.w3.org/2000/svg" xmlns:xlink="http://www.w3.org/1999/xlink" width="64" height="64" viewBox="0 0 64 64" version="1.1">
<defs>
<linearGradient id="linear0" gradientUnits="userSpaceOnUse" x1="0" y1="0" x2="0" y2="1" gradientTransform="matrix(49.777344,0,0,64,7.109375,0)">
<stop offset="0" style="stop-color:#ff6666;stop-opacity:1;"/>
<stop offset="1" style="stop-color:#d90000;stop-opacity:1;"/>
</linearGradient>
</defs>
<g id="surface1">
<path style=" stroke:none;fill-rule:nonzero;fill:url(#linear0);" d="M 7.136719 60.949219 C 7.328125 59.089844 8.4375 55.074219 11.1875 46.277344 C 15.84375 31.386719 18.765625 14.464844 17.523438 9.542969 C 17.214844 8.324219 17.183594 7.695312 17.40625 7.410156 C 18.113281 6.535156 20.941406 5.578125 23.269531 5.433594 C 28.074219 5.332031 27.835938 7.113281 27.679688 10.984375 C 27.535156 14.457031 26.621094 20.980469 25.769531 25.355469 C 25.503906 26.710938 25.363281 28.023438 25.457031 28.277344 C 25.59375 28.648438 26.882812 28.722656 33.027344 28.71875 C 37.101562 28.71875 40.597656 28.609375 40.796875 28.476562 C 41.421875 28.066406 41.785156 26.6875 44.421875 14.710938 C 45.832031 8.308594 47.226562 2.640625 47.523438 2.121094 C 48.195312 0.9375 49.851562 0 51.28125 0 C 52.734375 0 55.300781 0.808594 56.179688 1.546875 L 56.886719 2.140625 L 56.210938 4.148438 C 54.664062 8.742188 50.363281 29.253906 48.675781 40.089844 C 48.230469 42.953125 47.601562 46.671875 47.277344 48.355469 C 46.570312 52.003906 46.554688 53.394531 47.1875 55.085938 C 48.1875 57.753906 48.140625 58.011719 46.511719 58.757812 C 45.707031 59.125 43.863281 59.632812 42.410156 59.882812 C 37.511719 60.738281 36.015625 59.648438 36.011719 55.21875 C 36.011719 52.238281 36.289062 50.648438 38.167969 42.820312 C 38.996094 39.371094 39.671875 36.277344 39.671875 35.9375 C 39.671875 35.355469 39.523438 35.328125 37.554688 35.53125 C 36.390625 35.648438 32.835938 35.765625 29.652344 35.789062 C 26.46875 35.808594 23.769531 35.925781 23.65625 36.039062 C 23.539062 36.160156 22.910156 38.644531 22.257812 41.5625 C 21.601562 44.484375 20.421875 49.289062 19.636719 52.238281 C 18.847656 55.191406 18.148438 58.488281 18.074219 59.5625 C 17.992188 60.839844 17.773438 61.679688 17.449219 61.980469 C 16.703125 62.660156 13.039062 63.738281 10.730469 63.957031 C 7.921875 64.253906 6.929688 63.015625 7.136719 60.949219 Z M 7.136719 60.949219 "/>
</g>
</svg>
