<svg xmlns="http://www.w3.org/2000/svg" xmlns:xlink="http://www.w3.org/1999/xlink" width="64" height="64" viewBox="0 0 64 64" version="1.1">
<defs> <linearGradient id="linear0" gradientUnits="userSpaceOnUse" x1="0" y1="0" x2="0" y2="1" gradientTransform="matrix(55.992188,0,0,56,4.003906,4)"> <stop offset="0" style="stop-color:#ff6666;stop-opacity:1;"/> <stop offset="1" style="stop-color:#d90000;stop-opacity:1;"/> </linearGradient> </defs>
<g id="surface1">
<path style=" stroke:none;fill-rule:nonzero;fill:url(#linear0);fill-opacity:1;" d="M 7.722656 44.695312 C 13.433594 44.695312 24.867188 37.105469 24.867188 12.4375 L 24.867188 6.746094 L 28.675781 6.746094 L 28.675781 21.925781 C 28.675781 42.792969 17.246094 52.285156 7.722656 52.285156 Z M 7.722656 44.695312 "/>
<path style=" stroke:none;fill-rule:nonzero;fill:url(#linear0);fill-opacity:1;" d="M 57.257812 44.695312 C 51.539062 44.695312 40.109375 37.105469 40.109375 12.4375 L 40.109375 6.746094 L 36.296875 6.746094 L 36.296875 21.925781 C 36.296875 42.792969 47.730469 52.285156 57.257812 52.285156 Z M 57.257812 44.695312 "/>
<path style=" stroke:none;fill-rule:nonzero;fill:url(#linear0);fill-opacity:1;" d="M 26.773438 23.820312 L 38.207031 23.820312 L 38.207031 31.410156 L 26.773438 31.410156 Z M 26.773438 23.820312 "/>
</g>
</svg>
