<svg xmlns="http://www.w3.org/2000/svg" xmlns:xlink="http://www.w3.org/1999/xlink" width="64" height="64" viewBox="0 0 64 64" version="1.1">
<defs> <linearGradient id="linear0" gradientUnits="userSpaceOnUse" x1="0" y1="0" x2="0" y2="1" gradientTransform="matrix(55.992188,0,0,56,4.003906,4)"> <stop offset="0" style="stop-color:#ff6666;stop-opacity:1;"/> <stop offset="1" style="stop-color:#d90000;stop-opacity:1;"/> </linearGradient> </defs>
<g id="surface1">
<path style=" stroke:none;fill-rule:nonzero;fill:url(#linear0);fill-opacity:1;" d="M 39.050781 31.199219 C 38.910156 31.207031 35.503906 31.507812 31.804688 32.058594 C 28.769531 32.511719 27.117188 32.433594 26.011719 32.292969 C 23.695312 31.894531 22.128906 30.984375 21.582031 29.519531 C 19.703125 24.480469 30.589844 14.855469 45.914062 8.023438 C 47.519531 7.304688 49.109375 6.652344 50.671875 6.050781 C 47.945312 6.921875 45.125 7.933594 42.25 9.097656 C 25.042969 16.078125 12.695312 25.660156 14.679688 30.511719 C 15.679688 32.960938 20.128906 33.726562 26.507812 33.003906 C 26.519531 33 26.53125 33 26.542969 33 C 30.25 32.652344 34.691406 31.738281 37.441406 31.957031 C 40.121094 32.285156 41.933594 33.230469 42.527344 34.824219 C 44.40625 39.863281 33.515625 49.488281 18.195312 56.320312 C 16.59375 57.039062 15.003906 57.695312 13.433594 58.289062 C 16.167969 57.429688 18.988281 56.40625 21.863281 55.246094 C 39.070312 48.273438 51.410156 38.6875 49.429688 33.835938 C 48.507812 31.578125 44.644531 30.75 39.050781 31.199219 "/>
</g>
</svg>
