<svg xmlns="http://www.w3.org/2000/svg" xmlns:xlink="http://www.w3.org/1999/xlink" width="64" height="64" viewBox="0 0 64 64" version="1.1">
<defs>
<linearGradient id="linear0" gradientUnits="userSpaceOnUse" x1="0" y1="0" x2="0" y2="1" gradientTransform="matrix(74.65625,0,0,74.666667,5.338541,5.333333)">
<stop offset="0" style="stop-color:#ff6666;stop-opacity:1;"/>
<stop offset="1" style="stop-color:#d90000;stop-opacity:1;"/>
</linearGradient>
</defs>
<g id="surface1">
<path style=" stroke:none;fill-rule:nonzero;fill:url(#linear0);" d="M 31.539062 5.046875 C 29.246094 5.09375 27.179688 6.234375 26.039062 7.753906 C 24.898438 9.273438 24.449219 10.917969 24.042969 12.457031 C 23.238281 15.53125 22.632812 18.085938 21.039062 19.296875 C 19.445312 20.507812 16.824219 20.402344 13.644531 20.351562 C 12.054688 20.328125 10.347656 20.308594 8.578125 21 C 6.808594 21.691406 5.148438 23.375 4.488281 25.570312 C 3.824219 27.765625 4.273438 30.089844 5.363281 31.644531 C 6.457031 33.199219 7.878906 34.128906 9.21875 34.988281 C 11.011719 36.140625 11.863281 36.691406 12.921875 37.789062 C 15.863281 39.933594 18.644531 36.589844 17.070312 34.234375 C 15.386719 32.039062 14.070312 31.769531 12.101562 30.503906 C 10.902344 29.734375 10.046875 29.03125 9.726562 28.574219 C 9.40625 28.121094 9.308594 28.050781 9.59375 27.113281 C 9.878906 26.171875 9.996094 26.171875 10.511719 25.96875 C 11.03125 25.765625 12.136719 25.660156 13.558594 25.683594 C 16.40625 25.726562 20.640625 26.292969 24.261719 23.546875 C 27.882812 20.800781 28.480469 16.566406 29.203125 13.8125 C 29.566406 12.433594 29.964844 11.402344 30.300781 10.957031 C 30.632812 10.511719 30.667969 10.398438 31.648438 10.378906 C 32.628906 10.355469 32.667969 10.46875 33.019531 10.902344 C 33.375 11.332031 33.820312 12.34375 34.238281 13.707031 C 35.074219 16.429688 35.84375 20.632812 39.574219 23.230469 C 43.308594 25.824219 47.515625 25.082031 50.359375 24.917969 C 51.78125 24.835938 52.886719 24.902344 53.414062 25.082031 C 53.941406 25.265625 54.058594 25.257812 54.378906 26.183594 C 54.703125 27.109375 54.609375 27.183594 54.308594 27.652344 C 54.007812 28.121094 53.179688 28.851562 52.011719 29.671875 C 49.683594 31.308594 45.925781 33.34375 44.609375 37.695312 C 43.292969 42.046875 45.300781 45.820312 46.332031 48.472656 C 46.851562 49.800781 47.132812 50.875 47.125 51.429688 C 47.117188 51.984375 47.15625 52.097656 46.375 52.691406 C 45.59375 53.28125 45.492188 53.21875 44.957031 53.074219 C 44.417969 52.933594 43.460938 52.375 42.324219 51.519531 C 40.046875 49.808594 36.953125 46.855469 32.410156 46.949219 C 27.863281 47.042969 24.894531 50.121094 22.691406 51.925781 C 21.589844 52.828125 20.65625 53.425781 20.121094 53.589844 C 19.589844 53.753906 19.496094 53.824219 18.691406 53.261719 C 17.886719 52.703125 17.921875 52.59375 17.890625 52.035156 C 17.859375 51.480469 18.097656 50.398438 18.558594 49.050781 C 19.382812 46.636719 20.164062 46.398438 19.996094 43.316406 C 20.003906 39.785156 14.988281 39.75 14.859375 43.042969 C 14.796875 44.648438 14.265625 45.121094 13.511719 47.324219 C 12.996094 48.828125 12.457031 50.445312 12.566406 52.339844 C 12.675781 54.238281 13.765625 56.332031 15.648438 57.644531 C 17.53125 58.953125 19.875 59.242188 21.691406 58.683594 C 23.507812 58.125 24.835938 57.058594 26.066406 56.050781 C 28.53125 54.039062 30.519531 52.328125 32.519531 52.285156 C 34.523438 52.246094 36.578125 53.871094 39.121094 55.78125 C 40.394531 56.738281 41.765625 57.75 43.605469 58.230469 C 45.441406 58.714844 47.769531 58.324219 49.597656 56.9375 C 51.421875 55.550781 52.425781 53.414062 52.457031 51.511719 C 52.484375 49.613281 51.878906 48.019531 51.300781 46.539062 C 50.148438 43.574219 49.132812 41.15625 49.714844 39.238281 C 50.292969 37.324219 52.476562 35.863281 55.082031 34.035156 C 56.382812 33.121094 57.765625 32.132812 58.792969 30.535156 C 59.820312 28.933594 60.171875 26.597656 59.417969 24.433594 C 58.664062 22.265625 56.9375 20.652344 55.140625 20.035156 C 53.34375 19.421875 51.640625 19.503906 50.050781 19.59375 C 46.875 19.777344 44.265625 19.996094 42.621094 18.851562 C 40.976562 17.707031 40.269531 15.179688 39.335938 12.136719 C 38.867188 10.617188 38.351562 8.996094 37.148438 7.523438 C 35.945312 6.050781 33.832031 5 31.539062 5.046875 Z M 31.539062 5.046875 "/>
</g>
</svg>
