<svg xmlns="http://www.w3.org/2000/svg" xmlns:xlink="http://www.w3.org/1999/xlink" width="64" height="64" viewBox="0 0 64 64" version="1.1">
<defs> <linearGradient id="linear0" gradientUnits="userSpaceOnUse" x1="0" y1="0" x2="0" y2="1" gradientTransform="matrix(55.992188,0,0,56,4.003906,4)"> <stop offset="0" style="stop-color:#ff6666;stop-opacity:1;"/> <stop offset="1" style="stop-color:#d90000;stop-opacity:1;"/> </linearGradient> </defs>
<g id="surface1">
<path style=" stroke:none;fill-rule:nonzero;fill:url(#linear0);fill-opacity:1;" d="M 32.378906 1.941406 C 27.625 1.941406 23.179688 3.597656 20.050781 6.710938 C 16.921875 9.835938 15.25 14.257812 15.25 18.996094 L 25.042969 18.996094 C 25.042969 16.421875 25.820312 14.753906 26.972656 13.605469 C 28.125 12.457031 29.800781 11.683594 32.378906 11.683594 C 34.964844 11.683594 36.640625 12.464844 37.792969 13.605469 C 38.945312 14.753906 39.722656 16.421875 39.722656 18.996094 C 39.722656 21.230469 39.28125 22.1875 38.6875 23.027344 C 38.097656 23.867188 37.128906 24.652344 35.691406 25.660156 C 34.25 26.660156 32.351562 27.8125 30.585938 29.867188 C 28.820312 31.917969 27.488281 35.035156 27.488281 38.484375 L 27.488281 40.921875 L 37.273438 40.921875 L 37.273438 38.484375 C 37.273438 37.066406 37.472656 36.816406 38 36.207031 C 38.53125 35.589844 39.6875 34.78125 41.308594 33.648438 C 42.925781 32.523438 45.015625 31.019531 46.71875 28.585938 C 48.421875 26.15625 49.507812 22.851562 49.507812 18.996094 C 49.507812 14.257812 47.84375 9.835938 44.714844 6.710938 C 41.578125 3.597656 37.140625 1.941406 32.378906 1.941406 Z M 27.488281 50.671875 L 27.488281 60.417969 L 37.273438 60.417969 L 37.273438 50.671875 Z M 27.488281 50.671875 "/>
</g>
</svg>
