<svg xmlns="http://www.w3.org/2000/svg" xmlns:xlink="http://www.w3.org/1999/xlink" width="64" height="64" viewBox="0 0 64 64" version="1.1">
<defs>
<linearGradient id="linear0" gradientUnits="userSpaceOnUse" x1="0" y1="0" x2="0" y2="1" gradientTransform="matrix(74.65625,0,0,74.666667,5.338541,5.333333)">
<stop offset="0" style="stop-color:#ff6666;stop-opacity:1;"/>
<stop offset="1" style="stop-color:#d90000;stop-opacity:1;"/>
</linearGradient>
</defs>
<g id="surface1">
<path style=" stroke:none;fill-rule:nonzero;fill:url(#linear0);" d="M 32.445312 2.644531 C 30.933594 2.609375 29.425781 2.695312 27.9375 2.898438 C 26.550781 3.085938 25.582031 4.363281 25.769531 5.75 C 25.957031 7.136719 27.234375 8.105469 28.621094 7.917969 C 37.917969 6.652344 48.171875 11.199219 53.023438 20.253906 C 51.28125 22.199219 48.601562 22.9375 46.464844 22.816406 C 43.019531 17.742188 37.871094 14.652344 31.320312 14.703125 C 29.921875 14.714844 28.796875 15.859375 28.804688 17.257812 C 28.816406 18.65625 29.960938 19.78125 31.359375 19.769531 C 36.976562 19.726562 40.316406 21.882812 43.054688 26.667969 C 43.429688 27.324219 44.078125 27.78125 44.824219 27.90625 C 49.371094 28.6875 55.292969 27.011719 58.277344 21.792969 C 58.679688 21.089844 58.722656 20.230469 58.386719 19.492188 C 53.578125 8.851562 43.003906 2.882812 32.445312 2.644531 Z M 20.378906 5.429688 C 20.042969 5.4375 19.714844 5.515625 19.410156 5.652344 C 7.25 11.148438 1.191406 24.175781 2.816406 36.101562 C 3.003906 37.488281 4.28125 38.460938 5.667969 38.273438 C 6.335938 38.183594 6.9375 37.832031 7.34375 37.296875 C 7.75 36.757812 7.929688 36.085938 7.835938 35.417969 C 6.570312 26.121094 11.117188 15.867188 20.171875 11.015625 C 22.117188 12.757812 22.855469 15.4375 22.734375 17.578125 C 17.660156 21.023438 14.570312 26.167969 14.621094 32.71875 C 14.632812 34.121094 15.777344 35.246094 17.175781 35.234375 C 18.574219 35.222656 19.699219 34.078125 19.6875 32.679688 C 19.644531 27.0625 21.804688 23.722656 26.585938 20.988281 C 27.246094 20.613281 27.699219 19.960938 27.828125 19.214844 C 28.605469 14.667969 26.929688 8.746094 21.710938 5.761719 C 21.304688 5.53125 20.84375 5.414062 20.378906 5.429688 Z M 58.601562 25.652344 C 58.511719 25.65625 58.421875 25.660156 58.332031 25.671875 C 56.945312 25.863281 55.976562 27.140625 56.164062 28.523438 C 57.429688 37.820312 52.886719 48.078125 43.828125 52.929688 C 41.886719 51.1875 41.148438 48.507812 41.265625 46.367188 C 46.34375 42.921875 49.429688 37.777344 49.378906 31.222656 C 49.367188 29.824219 48.222656 28.699219 46.824219 28.710938 C 45.425781 28.722656 44.300781 29.863281 44.3125 31.265625 C 44.355469 36.886719 42.199219 40.222656 37.414062 42.957031 C 36.757812 43.332031 36.304688 43.984375 36.175781 44.730469 C 35.398438 49.28125 37.070312 55.199219 42.289062 58.183594 C 42.996094 58.585938 43.851562 58.628906 44.59375 58.292969 C 56.753906 52.800781 62.808594 39.769531 61.183594 27.84375 C 61.007812 26.5625 59.894531 25.617188 58.601562 25.652344 Z M 17.636719 35.917969 C 17.035156 35.898438 16.417969 35.921875 15.796875 35.984375 C 12.074219 36.375 8.1875 38.292969 5.945312 42.207031 C 5.542969 42.914062 5.503906 43.769531 5.835938 44.507812 C 11.332031 56.671875 24.359375 62.726562 36.285156 61.101562 C 37.671875 60.914062 38.644531 59.636719 38.453125 58.25 C 38.265625 56.863281 36.988281 55.894531 35.601562 56.082031 C 26.304688 57.347656 16.050781 52.804688 11.199219 43.746094 C 12.941406 41.804688 15.621094 41.066406 17.757812 41.183594 C 21.207031 46.261719 26.351562 49.347656 32.90625 49.296875 C 34.304688 49.285156 35.429688 48.140625 35.417969 46.742188 C 35.40625 45.34375 34.265625 44.21875 32.867188 44.230469 C 27.246094 44.277344 23.90625 42.117188 21.171875 37.332031 C 20.796875 36.675781 20.144531 36.222656 19.398438 36.09375 C 18.832031 35.996094 18.238281 35.9375 17.636719 35.917969 Z M 17.636719 35.917969 "/>
</g>
</svg>
