<svg xmlns="http://www.w3.org/2000/svg" xmlns:xlink="http://www.w3.org/1999/xlink" width="64" height="64" viewBox="0 0 64 64" version="1.1">
<defs>
<linearGradient id="linear0" gradientUnits="userSpaceOnUse" x1="0" y1="0" x2="0" y2="1" gradientTransform="matrix(61.109375,0,0,64,1.445312,0)">
<stop offset="0" style="stop-color:#ff6666;stop-opacity:1;"/>
<stop offset="1" style="stop-color:#d90000;stop-opacity:1;"/>
</linearGradient>
</defs>
<g id="surface1">
<path style=" stroke:none;fill-rule:evenodd;fill:url(#linear0);" d="M 32 0 C 29.628906 0.0117188 27.269531 0.292969 24.960938 0.824219 L 32 30.398438 L 39.042969 0.8125 C 36.730469 0.28125 34.371094 0.0078125 32 0 Z M 55.484375 10.308594 L 33.382812 31.199219 L 62.523438 22.507812 C 61.113281 17.972656 58.707031 13.804688 55.484375 10.308594 Z M 8.519531 10.316406 C 5.289062 13.800781 2.867188 17.964844 1.445312 22.5 L 30.617188 31.199219 Z M 30.617188 32.800781 L 1.476562 41.492188 C 2.886719 46.027344 5.292969 50.195312 8.515625 53.691406 Z M 33.382812 32.800781 L 55.480469 53.683594 C 58.710938 50.199219 61.132812 46.035156 62.554688 41.5 Z M 32 33.601562 L 24.957031 63.1875 C 27.269531 63.71875 29.628906 63.992188 32 64 C 34.371094 63.988281 36.730469 63.707031 39.039062 63.175781 Z M 32 33.601562 "/>
</g>
</svg>
