<svg xmlns="http://www.w3.org/2000/svg" xmlns:xlink="http://www.w3.org/1999/xlink" width="64" height="64" viewBox="0 0 64 64" version="1.1">
<defs> <linearGradient id="linear0" gradientUnits="userSpaceOnUse" x1="0" y1="0" x2="0" y2="1" gradientTransform="matrix(55.992188,0,0,56,4.003906,4)"> <stop offset="0" style="stop-color:#ff6666;stop-opacity:1;"/> <stop offset="1" style="stop-color:#d90000;stop-opacity:1;"/> </linearGradient> </defs>
<g id="surface1">
<path style=" stroke:none;fill-rule:nonzero;fill:url(#linear0);fill-opacity:1;" d="M 6.464844 52.515625 C 6.464844 52.5 6.910156 52.261719 7.449219 51.988281 C 12.476562 49.484375 16.632812 46.078125 19.277344 42.320312 C 22.289062 38.027344 23.945312 32.929688 24.609375 25.917969 C 24.796875 23.945312 24.804688 16.738281 24.621094 15.117188 C 24.320312 12.480469 23.90625 10.644531 23.175781 8.710938 C 22.707031 7.488281 22.644531 6.773438 22.945312 6.261719 C 23.417969 5.472656 24.03125 5.503906 27.160156 6.441406 C 31.023438 7.605469 31.566406 7.796875 31.789062 8.082031 C 32.039062 8.390625 32.003906 8.601562 31.335938 10.875 C 30.183594 14.792969 29.625 19 29.488281 24.867188 L 29.414062 28.035156 L 29.933594 28.667969 C 31.316406 30.375 32.097656 31.363281 33.5 33.207031 C 36.917969 37.703125 38.882812 39.976562 40.828125 41.65625 C 43.515625 43.992188 45.40625 45.253906 48.570312 46.835938 C 50.558594 47.828125 51.699219 48.300781 54.386719 49.257812 C 55.585938 49.683594 56.726562 50.101562 56.9375 50.191406 C 57.390625 50.382812 57.746094 50.757812 57.613281 50.894531 C 56.957031 51.542969 47.003906 52.140625 44.386719 51.683594 C 39.96875 50.921875 36.046875 47.460938 28.785156 37.929688 L 27.3125 35.996094 L 27.023438 37.242188 C 26.40625 39.921875 25.335938 42.484375 24.054688 44.367188 C 23.183594 45.648438 21.042969 47.789062 19.773438 48.640625 C 17.011719 50.503906 13.605469 51.652344 9.054688 52.253906 C 7.246094 52.492188 6.472656 52.570312 6.472656 52.519531 M 16.75 26.363281 C 14.808594 25.566406 12.632812 23.035156 11.015625 19.703125 C 10.230469 18.074219 10.03125 17.128906 10.332031 16.410156 C 10.75 15.425781 12.332031 15.523438 14.683594 16.675781 C 16.976562 17.796875 18.835938 19.1875 19.5625 20.324219 C 20.136719 21.214844 20.289062 21.851562 20.222656 23.011719 C 20.125 24.707031 19.535156 25.953125 18.621094 26.394531 C 18.039062 26.671875 17.476562 26.664062 16.75 26.363281 M 32.824219 25.964844 C 34.878906 23.707031 37.285156 21.144531 38.78125 19.625 C 40.839844 17.519531 40.871094 17.476562 41.414062 15.375 C 41.613281 14.625 41.851562 13.921875 41.949219 13.816406 C 42.222656 13.515625 42.738281 13.574219 43.335938 13.972656 C 44.15625 14.523438 48.234375 17.734375 48.796875 18.273438 C 49.15625 18.617188 49.296875 18.839844 49.296875 19.042969 C 49.296875 19.371094 48.996094 19.535156 47.605469 19.953125 C 46.320312 20.335938 45.265625 20.8125 41.265625 22.792969 C 36.605469 25.105469 35.683594 25.472656 32.710938 26.261719 C 32.53125 26.308594 32.550781 26.253906 32.824219 25.964844 "/>
</g>
</svg>
