<svg xmlns="http://www.w3.org/2000/svg" xmlns:xlink="http://www.w3.org/1999/xlink" width="64" height="64" viewBox="0 0 64 64" version="1.1">
<defs>
<linearGradient id="linear0" gradientUnits="userSpaceOnUse" x1="0" y1="0" x2="0" y2="1" gradientTransform="matrix(64,0,0,52.246094,0,5.875)">
<stop offset="0" style="stop-color:#ff6666;stop-opacity:1;"/>
<stop offset="1" style="stop-color:#d90000;stop-opacity:1;"/>
</linearGradient>
</defs>
<g id="surface1">
<path style=" stroke:none;fill-rule:nonzero;fill:url(#linear0);" d="M 32.632812 5.914062 C 26.300781 6.570312 21.785156 6.957031 15.3125 7.007812 C 10.304688 6.984375 5.675781 6.355469 0.707031 5.996094 C -0.492188 6 -0.00390625 6.4375 0.960938 7.472656 C 1.734375 8.304688 3.078125 8.484375 3.078125 8.929688 C 3.078125 9.367188 3.308594 11.730469 3.933594 12.378906 C 4.660156 13.152344 5.773438 13.453125 7.535156 13.1875 C 8.648438 13.226562 8.660156 13.808594 8.664062 14.824219 C 8.664062 15.527344 9.050781 16.445312 9.523438 17.246094 C 10.691406 19.246094 12.429688 20.683594 14.347656 20.792969 C 15.390625 20.847656 16.8125 20.613281 17.90625 20.058594 C 18.96875 19.523438 19.949219 19.089844 20.085938 19.089844 C 20.214844 19.089844 20.457031 19.933594 20.617188 20.964844 C 21.238281 25.03125 23.640625 26.207031 27.210938 27.097656 C 28.859375 27.410156 30.664062 27.46875 31.9375 26.679688 C 31.476562 29.21875 30.996094 31.902344 30.253906 36.375 C 29.628906 40.105469 29.011719 45.660156 28.882812 48.191406 C 28.679688 52.171875 28.765625 53.011719 29.507812 54.40625 C 30.609375 56.46875 33.359375 58.070312 35.71875 58.085938 L 37.539062 58.089844 L 37.332031 54.679688 C 36.960938 48.679688 39.621094 41.8125 43.777344 38.902344 C 47.515625 36.292969 48.320312 38.085938 46.9375 45.925781 C 45.695312 52.933594 45.859375 55.0625 47.789062 56.847656 C 49.429688 58.367188 51.808594 58.523438 55.34375 57.339844 C 58.992188 56.117188 64.636719 50.96875 63.941406 49.09375 C 63.574219 48.105469 63.144531 48.449219 60.960938 50.203125 C 58.398438 52.265625 56.660156 52.203125 55.660156 51.054688 C 54.933594 50.222656 54.957031 49.710938 56.101562 44.949219 C 56.933594 41.496094 57.683594 39.003906 57.695312 36.261719 C 57.714844 31.90625 57.144531 30.117188 53.011719 29.492188 C 49.851562 29.042969 45.167969 29.941406 41.40625 32.625 C 40.257812 33.449219 39.210938 34.019531 39.09375 33.894531 C 38.976562 33.773438 39.589844 29.613281 40.457031 25.039062 C 41.324219 20.46875 42.035156 16.167969 42.035156 15.480469 C 42.035156 14.214844 40.285156 12.203125 35.136719 7.554688 C 34.308594 6.8125 33.785156 6.320312 33.132812 6.035156 C 33.042969 5.945312 32.976562 5.90625 32.921875 5.886719 C 32.847656 5.894531 32.78125 5.902344 32.71875 5.90625 C 32.6875 5.894531 32.652344 5.882812 32.621094 5.875 C 32.621094 5.875 32.621094 5.878906 32.632812 5.914062 Z M 32.632812 5.914062 "/>
</g>
</svg>
