<svg xmlns="http://www.w3.org/2000/svg" xmlns:xlink="http://www.w3.org/1999/xlink" width="64" height="64" viewBox="0 0 64 64" version="1.1">
<defs> <linearGradient id="linear0" gradientUnits="userSpaceOnUse" x1="0" y1="0" x2="0" y2="1" gradientTransform="matrix(55.992188,0,0,56,4.003906,4)"> <stop offset="0" style="stop-color:#ff6666;stop-opacity:1;"/> <stop offset="1" style="stop-color:#d90000;stop-opacity:1;"/> </linearGradient> </defs>
<g id="surface1">
<path style=" stroke:none;fill-rule:nonzero;fill:url(#linear0);fill-opacity:1;" d="M 32.863281 -2.730469 C 31.863281 -2.730469 29.722656 -0.0585938 29.414062 1.578125 C 29.238281 2.5 28.835938 3.257812 28.511719 3.257812 C 27.542969 3.257812 26.761719 1.957031 27 0.730469 C 27.242188 -0.53125 26.921875 -0.734375 26.054688 0.125 C 25.042969 1.132812 25.429688 3.078125 26.929688 4.535156 L 28.351562 5.925781 L 25.96875 6.4375 C 24.65625 6.71875 22.480469 7.464844 21.140625 8.097656 L 18.691406 9.253906 L 15.980469 8.011719 C 13.21875 6.753906 10.261719 6.414062 7.816406 7.074219 C 6.136719 7.527344 6.210938 8.402344 8.136719 10.914062 C 9.054688 12.113281 9.953125 13.996094 10.265625 15.375 C 10.730469 17.476562 10.679688 18.109375 9.804688 20.6875 C 6.972656 29.039062 8.792969 37.210938 14.90625 43.546875 L 17.738281 46.488281 L 16.949219 48.539062 C 16.046875 50.886719 16.292969 52.175781 17.769531 52.882812 C 19.992188 53.871094 21.050781 51.9375 22.515625 50.023438 C 22.964844 49.230469 23.191406 49.207031 25.460938 49.75 C 27.859375 50.320312 34.714844 50.179688 37.59375 49.5 C 38.671875 49.246094 38.921875 49.417969 39.632812 50.902344 C 40.546875 52.820312 42.199219 53.691406 43.550781 52.972656 C 45.15625 52.121094 45.441406 50.953125 44.589844 48.675781 L 43.8125 46.582031 L 46.363281 43.914062 C 51.046875 39.011719 52.964844 34.40625 52.941406 28.117188 C 52.933594 25.273438 52.640625 23.390625 51.882812 21.214844 C 50.523438 17.332031 50.773438 14.085938 52.636719 11.441406 C 55.253906 7.71875 55.363281 7.480469 54.714844 6.84375 C 54.351562 6.480469 52.914062 6.253906 50.976562 6.25 C 48.460938 6.25 47.269531 6.515625 45.050781 7.574219 L 42.265625 8.894531 L 39.3125 7.726562 C 37.695312 7.082031 35.589844 6.414062 34.632812 6.238281 C 33.679688 6.0625 32.898438 5.847656 32.898438 5.757812 C 32.898438 5.671875 33.417969 4.835938 34.054688 3.902344 C 35.46875 1.828125 35.566406 -0.53125 34.289062 -1.808594 C 33.777344 -2.3125 33.136719 -2.730469 32.863281 -2.730469 Z M 22.957031 19.148438 C 24.527344 19.148438 25.535156 21.019531 24.742188 22.433594 C 23.957031 23.832031 21.90625 23.816406 21.148438 22.40625 C 20.367188 20.957031 21.378906 19.148438 22.957031 19.148438 Z M 38.660156 19.515625 C 40.070312 19.515625 40.976562 21.191406 40.261719 22.464844 C 39.558594 23.71875 37.71875 23.703125 37.035156 22.433594 C 36.339844 21.140625 37.242188 19.515625 38.660156 19.515625 Z M 30.734375 27.472656 C 34.050781 27.484375 37.160156 29.007812 37.632812 31.121094 C 38.097656 33.238281 35.726562 36.917969 33.09375 38.15625 C 30.75 39.265625 28.597656 38.8125 26.441406 36.753906 C 24.902344 35.289062 23.703125 33.082031 23.703125 31.714844 C 23.703125 30.085938 25.808594 28.304688 28.433594 27.722656 C 29.1875 27.554688 29.964844 27.472656 30.734375 27.472656 Z M 30.734375 27.472656 "/>
</g>
</svg>
