<svg xmlns="http://www.w3.org/2000/svg" xmlns:xlink="http://www.w3.org/1999/xlink" width="64" height="64" viewBox="0 0 64 64" version="1.1">
<defs>
<linearGradient id="linear0" gradientUnits="userSpaceOnUse" x1="0" y1="0" x2="0" y2="1" gradientTransform="matrix(64,0,0,19.179688,0,22.410156)">
<stop offset="0" style="stop-color:#ff6666;stop-opacity:1;"/>
<stop offset="1" style="stop-color:#d90000;stop-opacity:1;"/>
</linearGradient>
</defs>
<g id="surface1">
<path style=" stroke:none;fill-rule:nonzero;fill:url(#linear0);" d="M 5.640625 22.410156 L 5.640625 30.308594 L 0 30.308594 C -0.00390625 30.816406 0.0078125 33.078125 0 33.691406 L 5.640625 33.691406 L 5.640625 41.589844 L 9.023438 41.589844 L 9.023438 22.410156 Z M 20.867188 22.410156 C 15.570312 22.410156 11.28125 26.703125 11.28125 32 C 11.28125 37.296875 15.570312 41.589844 20.867188 41.589844 C 26.164062 41.589844 30.457031 37.296875 30.457031 32 C 30.457031 26.703125 26.164062 22.410156 20.867188 22.410156 Z M 42.300781 22.410156 C 37.003906 22.410156 32.710938 26.703125 32.710938 32 C 32.710938 37.296875 37.003906 41.589844 42.300781 41.589844 C 47.597656 41.589844 51.886719 37.296875 51.886719 32 C 51.886719 26.703125 47.597656 22.410156 42.300781 22.410156 Z M 54.144531 22.410156 L 54.144531 41.589844 L 57.527344 41.589844 L 57.527344 34.941406 L 63.996094 40.511719 C 63.996094 39.039062 63.996094 37.371094 64 36.117188 L 59 32.035156 L 63.996094 27.183594 C 63.996094 25.875 63.996094 24.058594 63.996094 22.71875 L 57.527344 29.148438 L 57.527344 22.410156 Z M 42.488281 25.421875 C 46.015625 25.421875 48.878906 28.285156 48.878906 31.8125 C 48.878906 35.34375 46.015625 38.203125 42.488281 38.203125 C 38.957031 38.203125 36.097656 35.34375 36.097656 31.8125 C 36.097656 28.285156 38.957031 25.421875 42.488281 25.421875 Z M 20.867188 25.796875 C 24.292969 25.796875 27.070312 28.570312 27.070312 32 C 27.070312 35.429688 24.292969 38.203125 20.867188 38.203125 C 17.441406 38.203125 14.664062 35.429688 14.664062 32 C 14.664062 28.570312 17.441406 25.796875 20.867188 25.796875 Z M 20.867188 25.796875 "/>
</g>
</svg>
