<svg xmlns="http://www.w3.org/2000/svg" xmlns:xlink="http://www.w3.org/1999/xlink" width="64" height="64" viewBox="0 0 64 64" version="1.1">
<defs>
<linearGradient id="linear0" gradientUnits="userSpaceOnUse" x1="0" y1="0" x2="0" y2="1" gradientTransform="matrix(32.347656,0,0,64,15.828125,0)">
<stop offset="0" style="stop-color:#ff6666;stop-opacity:1;"/>
<stop offset="1" style="stop-color:#d90000;stop-opacity:1;"/>
</linearGradient>
</defs>
<g id="surface1">
<path style=" stroke:none;fill-rule:nonzero;fill:url(#linear0);" d="M 36.5625 0 C 36.5625 0 36.609375 1.503906 36.367188 2.195312 C 36.25 2.523438 35.914062 2.738281 35.789062 3.0625 C 35.589844 3.574219 35.476562 4.136719 35.539062 4.679688 C 35.574219 4.988281 35.765625 5.265625 35.882812 5.554688 C 35.976562 5.789062 36.070312 6.039062 36.164062 6.25 L 36.351562 6.71875 L 36.757812 5.273438 C 36.820312 5.058594 36.886719 4.839844 36.945312 4.617188 C 36.945312 4.617188 37.429688 3.390625 37.476562 2.742188 C 37.515625 2.179688 37.4375 1.597656 37.242188 1.070312 C 37.097656 0.671875 36.5625 0 36.5625 0 Z M 32.773438 6.921875 C 32.089844 7.390625 31.453125 7.878906 30.859375 8.390625 L 30.859375 8.398438 C 30.859375 8.398438 29.226562 9.898438 28.554688 10.773438 C 27.582031 12.035156 26.753906 13.421875 26.085938 14.867188 C 25.421875 16.300781 24.925781 17.824219 24.585938 19.367188 C 24.226562 20.984375 24.035156 22.640625 24.023438 24.296875 C 24.007812 26.722656 24.207031 29.242188 24.742188 31.539062 L 24.75 31.570312 C 25.261719 33.757812 25.359375 34.792969 26.335938 36.539062 C 37.417969 34.597656 44.765625 43.160156 42.289062 52.40625 C 40.980469 57.285156 36.953125 59.632812 33.09375 60.515625 C 27.652344 61.460938 23.074219 58.527344 21.96875 54.40625 C 21.753906 53.046875 22.089844 51.21875 22.867188 50.757812 C 22.417969 50.914062 21.875 51.09375 21.21875 51.710938 C 20.117188 52.75 20.089844 53.121094 18.648438 53.523438 C 19.351562 51.535156 15.480469 49.917969 16.179688 45.65625 C 16.195312 45.558594 16.007812 46.476562 16.023438 46.375 C 14.320312 55.792969 23.960938 66.390625 34.664062 63.523438 C 41.914062 61.714844 46.234375 56.386719 47.664062 50.375 C 48.488281 46.90625 48.234375 43.332031 47.484375 40.328125 C 46.875 37.882812 45.625 35.300781 43.75 32.929688 C 43.148438 32.171875 42.523438 31.472656 41.882812 30.828125 L 41.8125 30.757812 C 40.375 29.3125 38.882812 28.121094 37.453125 26.992188 C 37.453125 26.992188 34.5625 24.625 33.21875 23.328125 C 33.136719 23.25 33.058594 23.167969 32.984375 23.078125 C 32.515625 22.519531 32.074219 21.941406 31.671875 21.335938 C 31.5625 21.167969 31.449219 21 31.367188 20.820312 C 30.941406 19.890625 30.574219 18.925781 30.359375 17.929688 C 30.078125 16.628906 29.964844 15.277344 30 13.945312 C 30.03125 12.8125 30.1875 11.679688 30.492188 10.585938 C 31.046875 9.289062 31.949219 8.09375 32.773438 6.921875 Z M 35.976562 11.71875 C 35.613281 12.300781 35.34375 12.957031 35.023438 13.578125 C 34.738281 14.128906 34.40625 14.65625 34.171875 15.226562 C 33.65625 16.476562 33.355469 17.8125 32.945312 19.101562 C 32.894531 19.257812 32.777344 19.402344 32.796875 19.5625 C 32.945312 20.78125 33.96875 21.734375 34.71875 22.710938 C 35.007812 23.085938 35.703125 23.734375 35.703125 23.734375 C 35.820312 23.863281 35.933594 23.992188 36.0625 24.117188 C 36.0625 24.117188 35.824219 22.640625 35.71875 21.898438 C 35.710938 21.832031 35.699219 21.769531 35.695312 21.703125 C 35.511719 19.074219 35.390625 16.417969 35.609375 13.789062 C 35.667969 13.089844 35.976562 11.71875 35.976562 11.71875 Z M 17.070312 32.671875 C 17.070312 32.671875 17.507812 35.574219 17.195312 36.976562 C 17.046875 37.640625 16.449219 38.136719 16.28125 38.796875 C 16.015625 39.835938 15.933594 40.964844 16.179688 42.007812 C 16.320312 42.601562 16.769531 43.074219 17.054688 43.617188 C 17.121094 43.742188 17.183594 43.875 17.25 44 C 17.601562 42.429688 18.742188 41.148438 19.195312 39.617188 C 19.371094 39.023438 19.515625 38.40625 19.484375 37.789062 C 19.429688 36.6875 19.148438 35.574219 18.648438 34.59375 C 18.269531 33.855469 17.070312 32.671875 17.070312 32.671875 Z M 29.835938 38.226562 C 23.675781 38.226562 18.679688 43.222656 18.679688 49.382812 C 18.683594 49.957031 18.730469 50.527344 18.820312 51.09375 C 18.945312 51.289062 19.082031 51.488281 19.1875 51.695312 C 19.28125 51.878906 19.320312 52.085938 19.382812 52.296875 C 19.417969 52.273438 19.503906 52.253906 19.539062 52.226562 C 19.777344 52.027344 20.089844 51.675781 20.671875 51.125 C 21.429688 50.410156 22.128906 50.085938 22.59375 49.992188 C 23.621094 49.78125 23.898438 49.964844 24.789062 50.101562 C 24.0625 50.402344 23.839844 50.738281 23.28125 51.453125 C 23.261719 51.476562 22.949219 51.84375 22.820312 52.421875 C 22.691406 52.988281 22.683594 53.6875 22.765625 54.242188 C 23.773438 57.886719 27.890625 60.589844 32.953125 59.710938 C 34.023438 59.464844 35.089844 59.089844 36.101562 58.59375 C 39.152344 56.519531 40.980469 53.070312 40.984375 49.382812 C 40.984375 43.222656 35.996094 38.226562 29.835938 38.226562 Z M 29.835938 38.226562 "/>
</g>
</svg>
