<svg xmlns="http://www.w3.org/2000/svg" xmlns:xlink="http://www.w3.org/1999/xlink" width="64" height="64" viewBox="0 0 64 64" version="1.1">
<defs>
<linearGradient id="linear0" gradientUnits="userSpaceOnUse" x1="0" y1="0" x2="0" y2="1" gradientTransform="matrix(58.234375,0,0,64,2.882812,0)">
<stop offset="0" style="stop-color:#ff6666;stop-opacity:1;"/>
<stop offset="1" style="stop-color:#d90000;stop-opacity:1;"/>
</linearGradient>
</defs>
<g id="surface1">
<path style=" stroke:none;fill-rule:nonzero;fill:url(#linear0);" d="M 10.617188 0 L 9.25 1.894531 C 9.25 1.894531 5.308594 7.0625 5.308594 13.496094 C 5.308594 17.59375 6.675781 21.410156 7.355469 23.050781 C 4.40625 28.511719 2.882812 35.0625 2.882812 42.617188 L 2.882812 44.816406 L 5.15625 45.042969 C 10.285156 45.429688 16.398438 46.949219 17.742188 49.441406 C 18.398438 50.664062 18.949219 52.207031 19.488281 53.6875 C 20.113281 55.394531 20.75 57.128906 21.613281 58.617188 C 23.667969 62.171875 27.1875 64 32 64 C 36.8125 64 40.332031 62.171875 42.386719 58.617188 C 43.25 57.128906 43.886719 55.394531 44.511719 53.6875 C 45.050781 52.207031 45.59375 50.664062 46.257812 49.441406 C 47.601562 46.949219 53.714844 45.433594 58.84375 45.042969 L 61.117188 44.816406 L 61.117188 42.613281 C 61.117188 35.0625 59.59375 28.511719 56.644531 23.050781 C 57.328125 21.410156 58.691406 17.59375 58.691406 13.496094 C 58.691406 7.0625 54.75 1.898438 54.75 1.898438 L 53.382812 0 L 51.488281 1.289062 L 41.632812 7.8125 C 41.117188 7.527344 41.097656 7.441406 40.265625 7.125 C 38.394531 6.429688 35.648438 5.761719 32 5.761719 C 28.351562 5.761719 25.601562 6.425781 23.734375 7.128906 C 22.902344 7.441406 22.882812 7.527344 22.367188 7.808594 L 12.515625 1.289062 Z M 12.054688 6.824219 L 20.851562 12.664062 L 22.292969 13.574219 L 23.734375 12.511719 C 23.734375 12.511719 24.125 12.1875 25.480469 11.679688 C 26.832031 11.164062 28.9375 10.617188 32 10.617188 C 35.0625 10.617188 37.242188 11.167969 38.597656 11.679688 C 39.953125 12.1875 40.339844 12.511719 40.339844 12.511719 L 41.707031 13.578125 L 43.148438 12.667969 L 51.945312 6.824219 C 52.824219 8.484375 53.839844 10.769531 53.839844 13.5 C 53.839844 15.042969 53.527344 16.582031 53.15625 17.972656 C 52.058594 16.640625 50.917969 15.347656 49.59375 14.183594 L 45.421875 16.988281 C 52.152344 22.371094 55.742188 30.21875 56.191406 40.417969 C 51.59375 41.007812 44.457031 42.644531 42.007812 47.167969 C 41.183594 48.695312 40.558594 50.382812 39.960938 52.023438 C 39.382812 53.605469 38.796875 55.0625 38.140625 56.191406 C 37.816406 56.800781 37.378906 57.339844 36.851562 57.785156 L 36.851562 55.054688 C 35.285156 54.546875 33.648438 54.292969 32 54.292969 C 29.972656 54.292969 28.359375 54.664062 27.148438 55.054688 L 27.148438 57.785156 C 26.621094 57.339844 26.183594 56.796875 25.859375 56.1875 C 25.203125 55.0625 24.617188 53.601562 24.039062 52.019531 C 23.441406 50.378906 22.816406 48.691406 21.992188 47.167969 C 19.542969 42.644531 12.40625 41.003906 7.808594 40.417969 C 8.257812 30.21875 11.847656 22.371094 18.578125 16.984375 L 14.40625 14.179688 C 13.082031 15.34375 11.941406 16.632812 10.84375 17.972656 C 10.476562 16.578125 10.160156 15.042969 10.160156 13.496094 C 10.160156 10.769531 11.175781 8.484375 12.054688 6.824219 Z M 21.082031 32.453125 C 19.414062 34.132812 19.414062 36.84375 21.082031 38.519531 C 22.757812 40.191406 25.46875 40.191406 27.148438 38.519531 Z M 42.917969 32.453125 L 36.851562 38.519531 C 38.53125 40.191406 41.242188 40.191406 42.917969 38.519531 C 44.585938 36.84375 44.585938 34.132812 42.917969 32.453125 Z M 42.917969 32.453125 "/>
</g>
</svg>
