<svg xmlns="http://www.w3.org/2000/svg" xmlns:xlink="http://www.w3.org/1999/xlink" width="64" height="64" viewBox="0 0 64 64" version="1.1">
<defs> <linearGradient id="linear0" gradientUnits="userSpaceOnUse" x1="0" y1="0" x2="0" y2="1" gradientTransform="matrix(55.992188,0,0,56,4.003906,4)"> <stop offset="0" style="stop-color:#ff6666;stop-opacity:1;"/> <stop offset="1" style="stop-color:#d90000;stop-opacity:1;"/> </linearGradient> </defs>
<g id="surface1">
<path style=" stroke:none;fill-rule:nonzero;fill:url(#linear0);fill-opacity:1;" d="M 24.742188 0.394531 C 19.429688 15.039062 14.269531 29.707031 8.960938 44.355469 C 9.300781 44.457031 9.636719 44.421875 9.980469 44.421875 C 11.917969 44.417969 13.855469 44.433594 15.792969 44.421875 C 16.058594 44.421875 16.023438 44.050781 16.132812 43.878906 C 18.464844 37.335938 20.835938 30.820312 23.175781 24.277344 C 23.316406 23.875 23.464844 23.441406 23.652344 23.058594 C 24.867188 23.078125 26.066406 23.039062 27.273438 23.058594 C 24.730469 30.148438 22.199219 37.28125 19.617188 44.355469 C 19.890625 44.460938 20.160156 44.417969 20.4375 44.421875 C 22.46875 44.40625 24.484375 44.449219 26.519531 44.421875 C 28.820312 37.980469 31.191406 31.539062 33.492188 25.097656 C 33.988281 23.78125 34.003906 22.230469 33.21875 21.015625 C 32.539062 19.941406 31.242188 19.363281 30.007812 19.3125 C 28.320312 19.269531 26.648438 19.347656 24.953125 19.3125 C 27.28125 12.746094 29.683594 6.222656 31.988281 -0.355469 C 24.753906 0.402344 26.160156 0.238281 24.742188 0.394531 M 39.851562 19.175781 C 39.796875 19.285156 39.769531 19.550781 39.71875 19.652344 C 34.445312 34.363281 29.144531 49.050781 23.859375 63.746094 C 30.535156 64.714844 25.71875 64.050781 30.558594 64.703125 C 32.863281 58.25 35.203125 51.824219 37.53125 45.371094 C 40.0625 45.328125 42.578125 45.355469 45.113281 45.304688 C 46.726562 45.253906 48.335938 44.285156 48.871094 42.726562 C 51.011719 36.726562 53.148438 30.78125 55.226562 24.757812 C 55.566406 23.847656 55.773438 22.851562 55.5 21.902344 C 55.128906 20.691406 54.027344 19.769531 52.835938 19.453125 C 51.796875 19.132812 50.761719 19.269531 49.695312 19.25 C 46.441406 19.238281 43.101562 19.210938 39.851562 19.183594 M 45.808594 22.972656 C 45.964844 22.964844 46.121094 23.007812 46.277344 22.988281 C 47.214844 23.007812 48.132812 22.964844 49.074219 22.988281 C 46.882812 29.199219 44.667969 35.414062 42.515625 41.640625 C 41.300781 41.726562 40.039062 41.644531 38.824219 41.640625 C 41.046875 35.46875 43.230469 29.292969 45.453125 23.128906 C 45.503906 23.066406 45.59375 23.007812 45.664062 22.988281 C 45.714844 22.972656 45.757812 22.972656 45.808594 22.972656 "/>
</g>
</svg>
