<svg xmlns="http://www.w3.org/2000/svg" xmlns:xlink="http://www.w3.org/1999/xlink" width="64" height="64" viewBox="0 0 64 64" version="1.1">
<defs>
<linearGradient id="linear0" gradientUnits="userSpaceOnUse" x1="0" y1="0" x2="0" y2="1" gradientTransform="matrix(74.65625,0,0,74.666667,5.338541,5.333333)">
<stop offset="0" style="stop-color:#ff6666;stop-opacity:1;"/>
<stop offset="1" style="stop-color:#d90000;stop-opacity:1;"/>
</linearGradient>
</defs>
<g id="surface1">
<path style=" stroke:none;fill-rule:nonzero;fill:url(#linear0);" d="M 13.636719 5.734375 C 12.234375 5.734375 11.101562 6.867188 11.101562 8.269531 C 11.101562 9.667969 12.234375 10.800781 13.636719 10.800781 L 53.433594 10.800781 L 49.429688 46.5625 C 49.320312 47.34375 49.097656 47.65625 48.382812 47.972656 L 33.011719 52.996094 C 32.148438 53.265625 31.570312 53.289062 30.949219 53.066406 C 30.929688 53.058594 30.90625 53.050781 30.886719 53.042969 L 15.378906 47.894531 C 14.703125 47.589844 14.5625 47.550781 14.464844 46.636719 C 14.460938 46.628906 14.460938 46.621094 14.460938 46.613281 L 10.519531 13.902344 C 10.441406 13.234375 10.097656 12.625 9.570312 12.210938 C 9.039062 11.792969 8.367188 11.605469 7.699219 11.6875 C 6.3125 11.855469 5.320312 13.117188 5.488281 14.503906 L 9.429688 47.195312 C 9.714844 49.757812 11.523438 51.707031 13.332031 52.535156 C 13.417969 52.574219 13.5 52.609375 13.589844 52.636719 L 29.230469 57.832031 C 31.097656 58.503906 32.984375 58.3125 34.519531 57.832031 C 34.53125 57.828125 34.542969 57.824219 34.550781 57.820312 L 50.160156 52.71875 C 50.234375 52.695312 50.304688 52.667969 50.378906 52.636719 C 52.617188 51.675781 54.128906 49.539062 54.449219 47.269531 C 54.449219 47.246094 54.453125 47.222656 54.457031 47.199219 L 58.496094 11.128906 C 58.496094 11.125 58.496094 11.121094 58.496094 11.117188 C 58.625 9.894531 58.394531 8.511719 57.488281 7.410156 C 56.585938 6.304688 55.105469 5.734375 53.699219 5.734375 Z M 19.074219 15.378906 C 18.355469 15.378906 17.671875 15.683594 17.191406 16.21875 C 16.710938 16.753906 16.480469 17.46875 16.558594 18.183594 L 17.660156 28.425781 C 17.800781 29.714844 18.886719 30.6875 20.179688 30.691406 L 40.820312 30.691406 L 39.789062 39.796875 C 39.789062 39.800781 39.785156 39.804688 39.785156 39.808594 C 39.679688 40.769531 39.601562 41.066406 38.640625 41.410156 L 33.636719 43.089844 C 32.46875 43.441406 31.140625 43.472656 30.089844 43.152344 L 25.238281 41.578125 C 24.765625 41.421875 24.234375 40.609375 24.160156 39.980469 L 23.808594 37.074219 C 23.644531 35.683594 22.382812 34.691406 20.992188 34.859375 C 19.601562 35.027344 18.609375 36.289062 18.777344 37.675781 L 19.128906 40.582031 C 19.40625 42.929688 20.820312 45.457031 23.65625 46.390625 C 23.660156 46.390625 23.660156 46.390625 23.664062 46.394531 L 28.574219 47.988281 C 28.589844 47.996094 28.605469 48 28.625 48.003906 C 30.796875 48.660156 33.058594 48.558594 35.105469 47.941406 C 35.128906 47.933594 35.15625 47.925781 35.179688 47.917969 L 40.300781 46.195312 C 40.316406 46.191406 40.332031 46.183594 40.347656 46.179688 C 43.070312 45.203125 44.574219 42.625 44.824219 40.355469 L 44.824219 40.371094 L 45.871094 31.125 C 46.042969 29.726562 45.636719 28.226562 44.675781 27.183594 C 43.710938 26.136719 42.308594 25.621094 40.933594 25.621094 L 22.457031 25.621094 L 21.894531 20.445312 L 44.808594 20.445312 C 46.210938 20.445312 47.34375 19.308594 47.34375 17.910156 C 47.34375 16.511719 46.210938 15.375 44.808594 15.378906 Z M 19.074219 15.378906 "/>
</g>
</svg>
