<svg xmlns="http://www.w3.org/2000/svg" xmlns:xlink="http://www.w3.org/1999/xlink" width="64" height="64" viewBox="0 0 64 64" version="1.1">
<defs>
<filter id="alpha" filterUnits="objectBoundingBox" x="0%" y="0%" width="100%" height="100%">
  <feColorMatrix type="matrix" in="SourceGraphic" values="0 0 0 0 1 0 0 0 0 1 0 0 0 0 1 0 0 0 1 0"/>
</filter>
<mask id="mask0">
  <g filter="url(#alpha)">
<rect x="0" y="0" width="64" height="64" style="fill:rgb(0%,0%,0%);fill-opacity:0.4;stroke:none;"/>
  </g>
</mask>
<linearGradient id="linear0" gradientUnits="userSpaceOnUse" x1="0" y1="0" x2="0" y2="1" gradientTransform="matrix(64,0,0,59.304688,0,2.347656)">
<stop offset="0" style="stop-color:#ff6666;stop-opacity:1;"/>
<stop offset="1" style="stop-color:#d90000;stop-opacity:1;"/>
</linearGradient>
<clipPath id="clip1">
  <rect x="0" y="0" width="64" height="64"/>
</clipPath>
<g id="surface5" clip-path="url(#clip1)">
<path style=" stroke:none;fill-rule:evenodd;fill:url(#linear0);" d="M 15.214844 61.609375 C 15.359375 61.621094 15.484375 61.636719 15.628906 61.644531 C 15.738281 61.652344 15.894531 61.648438 16.011719 61.652344 L 16 59.675781 L 22.933594 53.308594 L 22.933594 51.183594 L 26.132812 47.996094 L 26.132812 46.402344 L 27.730469 44.8125 L 27.730469 40.566406 L 25.601562 38.445312 L 21.332031 38.445312 L 19.199219 36.320312 L 13.867188 36.320312 L 11.730469 38.445312 L 11.730469 43.753906 L 16.015625 47.484375 L 16 52.242188 L 14.398438 53.835938 L 14.398438 60.734375 Z M 24.53125 20.394531 L 22.933594 21.988281 L 24.53125 21.988281 L 25.066406 22.519531 L 25.601562 22.519531 L 26.132812 21.988281 Z M 44.800781 27.828125 L 38.398438 27.828125 L 34.667969 31.542969 L 34.667969 36.851562 L 37.332031 39.503906 L 41.066406 39.503906 L 42.667969 41.097656 L 42.667969 42.6875 L 43.730469 43.753906 L 43.730469 50.121094 L 47.785156 54.382812 L 54.472656 47.722656 L 54.398438 41.628906 L 59.730469 36.320312 L 57.601562 36.320312 L 52.269531 31.011719 L 52.269531 28.886719 L 45.867188 28.886719 Z M 64 29.949219 L 64 24.359375 C 64 21.953125 63.957031 19.800781 63.84375 17.882812 C 63.789062 16.925781 63.710938 16.023438 63.617188 15.175781 C 63.519531 14.328125 63.402344 13.535156 63.265625 12.792969 C 63.125 12.050781 62.960938 11.359375 62.769531 10.71875 C 62.570312 10.074219 62.351562 9.480469 62.105469 8.929688 C 61.945312 8.578125 61.746094 8.277344 61.558594 7.960938 L 60.800781 8.714844 L 57.601562 8.714844 L 54.398438 11.902344 L 52.269531 9.78125 L 45.867188 9.78125 L 42.667969 12.964844 L 42.667969 15.617188 L 45.867188 15.617188 L 45.867188 14.023438 L 48 14.023438 L 48 16.148438 L 46.933594 17.207031 L 42.667969 17.28125 L 41.066406 18.804688 L 38.933594 18.804688 L 38.933594 20.925781 L 37.332031 22.519531 L 37.332031 25.703125 L 40.53125 25.703125 L 42.667969 23.578125 L 44.800781 23.578125 L 44.800781 24.640625 L 46.933594 26.765625 L 48 26.765625 L 48 25.703125 L 45.867188 23.578125 L 48 23.578125 L 50.132812 25.703125 L 52.800781 25.703125 L 51.199219 24.113281 L 52.800781 22.519531 L 54.398438 22.519531 L 56 24.113281 L 54.398438 24.113281 L 52.800781 25.703125 L 54.371094 27.269531 L 54.398438 28.886719 L 52.269531 28.886719 L 58.667969 35.261719 L 59.730469 35.261719 L 60.800781 34.195312 L 62.933594 32.070312 L 60.800781 29.949219 Z M 39.46875 17.738281 L 39.46875 16.148438 L 41.066406 14.554688 L 41.066406 17.738281 Z M 56 49.058594 L 56 45.730469 L 58.132812 43.753906 L 58.132812 49.058594 Z M 34.132812 2.347656 L 22.140625 2.347656 C 21.9375 2.347656 21.792969 2.359375 21.589844 2.359375 L 19.730469 4.472656 L 22.933594 7.65625 L 22.933594 10.984375 L 26.667969 15.089844 L 28.800781 15.089844 L 28.800781 12.964844 L 32 9.78125 L 32 7.65625 L 34.132812 5.53125 Z M 31.46875 14.023438 L 33.066406 14.023438 L 34.667969 15.617188 L 31.46875 15.617188 Z M 17.066406 31.542969 L 15.46875 31.542969 L 13.867188 33.136719 L 17.066406 33.136719 Z M 2.839844 7.296875 C 2.8125 7.335938 2.777344 7.367188 2.746094 7.40625 C 2.433594 7.871094 2.148438 8.378906 1.894531 8.929688 C 1.648438 9.480469 1.429688 10.074219 1.230469 10.71875 C 1.039062 11.359375 0.875 12.050781 0.734375 12.792969 C 0.597656 13.535156 0.480469 14.328125 0.382812 15.175781 C 0.289062 16.023438 0.210938 16.925781 0.15625 17.882812 C 0.0429688 19.800781 0 21.953125 0 24.359375 L 0 29.949219 L 2.132812 32.070312 L 5.332031 32.070312 L 10.667969 37.378906 L 10.667969 31.011719 L 13.867188 27.828125 L 16 27.828125 L 19.199219 24.640625 L 22.398438 24.640625 L 20.800781 23.046875 L 24 19.332031 L 20.800781 16.148438 L 16 16.148438 L 16 20.394531 L 13.867188 20.394531 L 11.730469 18.273438 L 11.730469 16.148438 L 14.933594 12.964844 L 17.601562 12.964844 L 17.601562 10.839844 L 14.398438 7.65625 L 9.066406 7.65625 L 9.066406 10.839844 L 6.398438 10.839844 Z M 16 2.496094 C 15.886719 2.5 15.738281 2.496094 15.628906 2.503906 C 14.664062 2.558594 13.757812 2.632812 12.902344 2.726562 C 12.050781 2.824219 11.257812 2.9375 10.507812 3.074219 C 9.84375 3.203125 9.230469 3.355469 8.644531 3.519531 L 10.667969 5.53125 L 16 5.53125 Z M 16 2.496094 "/>
</g>
<linearGradient id="linear1" gradientUnits="userSpaceOnUse" x1="0" y1="0" x2="0" y2="1" gradientTransform="matrix(35.882812,0,0,52,14.058594,6)">
<stop offset="0" style="stop-color:#ff6666;stop-opacity:1;"/>
<stop offset="1" style="stop-color:#d90000;stop-opacity:1;"/>
</linearGradient>
</defs>
<g id="surface1">
<use xlink:href="#surface5" mask="url(#mask0)"/>
<path style=" stroke:none;fill-rule:nonzero;fill:url(#linear1);" d="M 49.941406 30.089844 L 40.03125 30.089844 L 40.03125 6 L 23.972656 6 L 23.972656 30.089844 L 14.058594 30.089844 L 32 58 Z M 49.941406 30.089844 "/>
</g>
</svg>
