<svg xmlns="http://www.w3.org/2000/svg" xmlns:xlink="http://www.w3.org/1999/xlink" width="64" height="64" viewBox="0 0 64 64" version="1.1">
<defs>
<linearGradient id="linear0" gradientUnits="userSpaceOnUse" x1="0" y1="0" x2="0" y2="1" gradientTransform="matrix(56,0,0,51.695312,4,6.152344)">
<stop offset="0" style="stop-color:#ff6666;stop-opacity:1;"/>
<stop offset="1" style="stop-color:#d90000;stop-opacity:1;"/>
</linearGradient>
<linearGradient id="linear1" gradientUnits="userSpaceOnUse" x1="0" y1="0" x2="0" y2="1" gradientTransform="matrix(56,0,0,51.695312,4,6.152344)">
<stop offset="0" style="stop-color:#ff6666;stop-opacity:1;"/>
<stop offset="1" style="stop-color:#d90000;stop-opacity:1;"/>
</linearGradient>
<linearGradient id="linear2" gradientUnits="userSpaceOnUse" x1="0" y1="0" x2="0" y2="1" gradientTransform="matrix(56,0,0,51.695312,4,6.152344)">
<stop offset="0" style="stop-color:#ff6666;stop-opacity:1;"/>
<stop offset="1" style="stop-color:#d90000;stop-opacity:1;"/>
</linearGradient>
<linearGradient id="linear3" gradientUnits="userSpaceOnUse" x1="0" y1="0" x2="0" y2="1" gradientTransform="matrix(56,0,0,51.695312,4,6.152344)">
<stop offset="0" style="stop-color:#ff6666;stop-opacity:1;"/>
<stop offset="1" style="stop-color:#d90000;stop-opacity:1;"/>
</linearGradient>
<linearGradient id="linear4" gradientUnits="userSpaceOnUse" x1="0" y1="0" x2="0" y2="1" gradientTransform="matrix(56,0,0,51.695312,4,6.152344)">
<stop offset="0" style="stop-color:#ff6666;stop-opacity:1;"/>
<stop offset="1" style="stop-color:#d90000;stop-opacity:1;"/>
</linearGradient>
<linearGradient id="linear5" gradientUnits="userSpaceOnUse" x1="0" y1="0" x2="0" y2="1" gradientTransform="matrix(56,0,0,51.695312,4,6.152344)">
<stop offset="0" style="stop-color:#ff6666;stop-opacity:1;"/>
<stop offset="1" style="stop-color:#d90000;stop-opacity:1;"/>
</linearGradient>
<linearGradient id="linear6" gradientUnits="userSpaceOnUse" x1="0" y1="0" x2="0" y2="1" gradientTransform="matrix(56,0,0,51.695312,4,6.152344)">
<stop offset="0" style="stop-color:#ff6666;stop-opacity:1;"/>
<stop offset="1" style="stop-color:#d90000;stop-opacity:1;"/>
</linearGradient>
<linearGradient id="linear7" gradientUnits="userSpaceOnUse" x1="0" y1="0" x2="0" y2="1" gradientTransform="matrix(56,0,0,51.695312,4,6.152344)">
<stop offset="0" style="stop-color:#ff6666;stop-opacity:1;"/>
<stop offset="1" style="stop-color:#d90000;stop-opacity:1;"/>
</linearGradient>
<linearGradient id="linear8" gradientUnits="userSpaceOnUse" x1="0" y1="0" x2="0" y2="1" gradientTransform="matrix(56,0,0,51.695312,4,6.152344)">
<stop offset="0" style="stop-color:#ff6666;stop-opacity:1;"/>
<stop offset="1" style="stop-color:#d90000;stop-opacity:1;"/>
</linearGradient>
</defs>
<g id="surface1">
<path style=" stroke:none;fill-rule:nonzero;fill:url(#linear0);" d="M 35.871094 51.652344 C 35.871094 50.910156 36.40625 50.308594 37.0625 50.308594 C 37.71875 50.308594 38.253906 50.910156 38.253906 51.652344 C 38.253906 52.394531 37.71875 53 37.0625 53 C 36.40625 53 35.871094 52.394531 35.871094 51.652344 Z M 35.871094 51.652344 "/>
<path style=" stroke:none;fill-rule:nonzero;fill:url(#linear1);" d="M 32.890625 50.308594 L 26.9375 50.308594 C 26.28125 50.308594 25.746094 50.910156 25.746094 51.652344 C 25.746094 52.394531 26.28125 53 26.9375 53 L 32.890625 53 C 33.546875 53 34.082031 52.394531 34.082031 51.652344 C 34.082031 50.910156 33.546875 50.308594 32.890625 50.308594 Z M 32.890625 50.308594 "/>
<path style=" stroke:none;fill-rule:nonzero;fill:url(#linear2);" d="M 41.378906 11.257812 L 21.527344 11.257812 C 20.433594 11.257812 19.542969 12.261719 19.542969 13.503906 L 19.542969 35.941406 C 19.542969 37.183594 20.433594 38.1875 21.527344 38.1875 L 41.378906 38.1875 C 42.476562 38.1875 43.367188 37.183594 43.367188 35.941406 L 43.367188 13.503906 C 43.367188 12.261719 42.476562 11.257812 41.378906 11.257812 Z M 41.378906 11.257812 "/>
<path style=" stroke:none;fill-rule:nonzero;fill:url(#linear3);" d="M 39.890625 15.742188 L 23.015625 15.742188 C 22.464844 15.742188 22.023438 16.246094 22.023438 16.867188 L 22.023438 32.574219 C 22.023438 33.195312 22.464844 33.699219 23.015625 33.699219 L 39.890625 33.699219 C 40.4375 33.699219 40.882812 33.195312 40.882812 32.574219 L 40.882812 16.867188 C 40.882812 16.246094 40.4375 15.742188 39.890625 15.742188 Z M 39.890625 15.742188 "/>
<path style=" stroke:none;fill-rule:nonzero;fill:url(#linear4);" d="M 47.832031 23.601562 C 49.199219 23.601562 50.3125 22.46875 50.3125 21.078125 C 50.3125 19.683594 49.199219 18.550781 47.832031 18.550781 C 46.460938 18.550781 45.347656 19.683594 45.347656 21.078125 C 45.347656 22.46875 46.460938 23.601562 47.832031 23.601562 Z M 53.789062 20.234375 C 55.15625 20.234375 56.269531 19.105469 56.269531 17.710938 C 56.269531 16.316406 55.15625 15.183594 53.789062 15.183594 C 52.414062 15.183594 51.304688 16.316406 51.304688 17.710938 C 51.304688 19.105469 52.414062 20.234375 53.789062 20.234375 Z M 53.789062 20.234375 "/>
<path style=" stroke:none;fill-rule:nonzero;fill:url(#linear5);" d="M 14.082031 18.269531 C 14.082031 17.183594 13.304688 16.304688 12.347656 16.304688 C 11.386719 16.304688 10.609375 17.183594 10.609375 18.269531 L 10.609375 25.5625 C 10.609375 26.648438 11.386719 27.523438 12.347656 27.523438 C 13.304688 27.523438 14.082031 26.648438 14.082031 25.5625 Z M 14.082031 18.269531 "/>
<path style=" stroke:none;fill-rule:nonzero;fill:url(#linear6);" d="M 16.066406 20.234375 L 8.625 20.234375 C 7.800781 20.234375 7.132812 20.988281 7.132812 21.917969 C 7.132812 22.84375 7.800781 23.601562 8.625 23.601562 L 16.066406 23.601562 C 16.890625 23.601562 17.558594 22.84375 17.558594 21.917969 C 17.558594 20.988281 16.890625 20.234375 16.066406 20.234375 Z M 16.066406 20.234375 "/>
<path style=" stroke:none;fill-rule:nonzero;fill:url(#linear7);" d="M 54.28125 29.207031 L 47.335938 29.207031 C 47.058594 29.207031 46.835938 29.460938 46.835938 29.769531 C 46.835938 30.082031 47.058594 30.335938 47.335938 30.335938 L 54.28125 30.335938 C 54.554688 30.335938 54.777344 30.082031 54.777344 29.769531 C 54.777344 29.460938 54.554688 29.207031 54.28125 29.207031 Z M 54.28125 32.015625 L 47.335938 32.015625 C 47.058594 32.015625 46.835938 32.265625 46.835938 32.574219 C 46.835938 32.886719 47.058594 33.136719 47.335938 33.136719 L 54.28125 33.136719 C 54.554688 33.136719 54.777344 32.886719 54.777344 32.574219 C 54.777344 32.265625 54.554688 32.015625 54.28125 32.015625 Z M 54.28125 34.820312 L 47.335938 34.820312 C 47.058594 34.820312 46.835938 35.074219 46.835938 35.382812 C 46.835938 35.695312 47.058594 35.941406 47.335938 35.941406 L 54.28125 35.941406 C 54.554688 35.941406 54.777344 35.695312 54.777344 35.382812 C 54.777344 35.074219 54.554688 34.820312 54.28125 34.820312 Z M 54.28125 34.820312 "/>
<path style=" stroke:none;fill-rule:nonzero;fill:url(#linear8);" d="M 10.609375 32.015625 L 8.625 32.015625 C 8.074219 32.015625 7.632812 32.515625 7.632812 33.136719 C 7.632812 33.757812 8.074219 34.257812 8.625 34.257812 L 10.609375 34.257812 C 11.15625 34.257812 11.601562 33.757812 11.601562 33.136719 C 11.601562 32.515625 11.15625 32.015625 10.609375 32.015625 Z M 16.066406 32.015625 L 14.082031 32.015625 C 13.535156 32.015625 13.089844 32.515625 13.089844 33.136719 C 13.089844 33.757812 13.535156 34.257812 14.082031 34.257812 L 16.066406 34.257812 C 16.617188 34.257812 17.058594 33.757812 17.058594 33.136719 C 17.058594 32.515625 16.617188 32.015625 16.066406 32.015625 Z M 16.066406 32.015625 "/>
</g>
</svg>
