<svg xmlns="http://www.w3.org/2000/svg" xmlns:xlink="http://www.w3.org/1999/xlink" width="64" height="64" viewBox="0 0 64 64" version="1.1">
<defs> <linearGradient id="linear0" gradientUnits="userSpaceOnUse" x1="0" y1="0" x2="0" y2="1" gradientTransform="matrix(55.992188,0,0,56,4.003906,4)"> <stop offset="0" style="stop-color:#ff6666;stop-opacity:1;"/> <stop offset="1" style="stop-color:#d90000;stop-opacity:1;"/> </linearGradient> </defs>
<g id="surface1">
<path style=" stroke:none;fill-rule:evenodd;fill:url(#linear0);fill-opacity:1;" d="M 47.902344 4.910156 L 47.902344 12.449219 L 40.324219 12.449219 L 40.324219 19.96875 L 47.902344 19.96875 L 47.902344 27.519531 L 55.453125 27.519531 L 55.453125 19.96875 L 63.035156 19.96875 L 63.035156 12.449219 L 55.453125 12.449219 L 55.453125 4.910156 Z M 10.101562 10.621094 L 10.101562 57.507812 C 10.101562 57.765625 10.117188 58.019531 10.136719 58.265625 L 21.351562 58.265625 L 21.351562 53.863281 L 21.441406 53.863281 L 21.441406 38.621094 C 21.789062 37.222656 23.066406 36.195312 24.582031 36.195312 L 31.367188 36.195312 C 33.152344 36.195312 34.601562 37.621094 34.601562 39.394531 L 34.601562 58.265625 L 45.816406 58.265625 C 45.832031 58.019531 45.851562 57.765625 45.851562 57.507812 L 45.851562 37.042969 C 45.851562 30.730469 40.738281 25.660156 34.402344 25.660156 L 21.550781 25.660156 C 21.515625 25.660156 21.476562 25.660156 21.441406 25.660156 L 21.441406 10.621094 L 10.101562 10.621094 "/>
</g>
</svg>
