<svg xmlns="http://www.w3.org/2000/svg" xmlns:xlink="http://www.w3.org/1999/xlink" width="64" height="64" viewBox="0 0 64 64" version="1.1">
<defs>
<linearGradient id="linear0" gradientUnits="userSpaceOnUse" x1="0" y1="0" x2="0" y2="1" gradientTransform="matrix(64,0,0,21.171875,0,21.414062)">
<stop offset="0" style="stop-color:#ff6666;stop-opacity:1;"/>
<stop offset="1" style="stop-color:#d90000;stop-opacity:1;"/>
</linearGradient>
</defs>
<g id="surface1">
<path style=" stroke:none;fill-rule:nonzero;fill:url(#linear0);" d="M 0 21.414062 L 0 42.585938 L 5.085938 42.585938 L 5.085938 34 C 5.097656 33.652344 5.246094 33.324219 5.5 33.085938 C 5.769531 32.824219 6.125 32.675781 6.5 32.667969 L 9.414062 32.667969 C 9.773438 32.667969 10.058594 32.84375 10.332031 33.085938 C 10.605469 33.324219 10.71875 33.648438 10.746094 34 L 10.746094 42.585938 L 15.835938 42.585938 L 15.835938 33.335938 C 15.835938 32.0625 15.585938 31.054688 15.085938 30.253906 C 14.570312 29.5 13.84375 28.921875 13 28.585938 C 12.085938 28.175781 11.089844 27.976562 10.085938 28 L 6.746094 28 L 5.5 28.167969 C 5.207031 28.246094 5.085938 28.335938 5.085938 28.335938 L 5.085938 21.414062 Z M 39.167969 21.414062 L 39.167969 42.585938 L 44.253906 42.585938 L 44.253906 21.414062 Z M 19.496094 28 L 19.496094 37 C 19.496094 38.1875 19.683594 39.167969 20.164062 40 C 20.644531 40.835938 21.382812 41.503906 22.246094 41.921875 C 23.136719 42.335938 24.0625 42.585938 25.246094 42.585938 L 30.246094 42.585938 L 30.246094 42.503906 C 31.3125 42.503906 32.261719 42.28125 33 41.835938 C 33.734375 41.355469 34.332031 40.667969 34.746094 39.835938 C 35.136719 39 35.300781 38.0625 35.332031 37 L 35.332031 28 L 30.246094 28 L 30.246094 36.503906 C 30.222656 36.871094 30.074219 37.21875 29.832031 37.5 C 29.589844 37.742188 29.261719 37.890625 28.914062 37.921875 L 25.921875 37.921875 C 25.570312 37.898438 25.242188 37.753906 25 37.503906 C 24.742188 37.230469 24.597656 36.875 24.585938 36.5 L 24.585938 28 Z M 48.164062 28 L 48.164062 37 C 48.195312 38.1875 48.414062 39.167969 48.914062 40 C 49.414062 40.835938 50.0625 41.503906 50.914062 41.921875 C 51.804688 42.335938 52.761719 42.585938 53.914062 42.585938 L 58.914062 42.585938 L 58.914062 42.503906 C 59.980469 42.503906 60.894531 42.28125 61.667969 41.835938 C 62.402344 41.355469 63.03125 40.667969 63.414062 39.835938 C 63.824219 39.007812 64 38.0625 64 37 L 64 28 L 58.914062 28 L 58.914062 36.503906 C 58.902344 36.875 58.757812 37.230469 58.5 37.5 C 58.257812 37.746094 57.929688 37.894531 57.585938 37.921875 L 54.585938 37.921875 C 54.234375 37.902344 53.902344 37.757812 53.667969 37.503906 C 53.40625 37.230469 53.261719 36.875 53.253906 36.5 L 53.253906 28 Z M 48.164062 28 "/>
</g>
</svg>
