<svg xmlns="http://www.w3.org/2000/svg" xmlns:xlink="http://www.w3.org/1999/xlink" width="64px" height="64px" viewBox="0 0 64 64" version="1.1">
<defs>
<linearGradient id="linear0" gradientUnits="userSpaceOnUse" x1="0" y1="128" x2="128" y2="0" gradientTransform="matrix(0.432432,0,0,0.432432,4.324324,4.324324)">
<stop offset="0" style="stop-color:#ff6666;stop-opacity:1;"/>
<stop offset="1" style="stop-color:#d90000;stop-opacity:1;"/>
</linearGradient>
</defs>
<g id="surface1">
<path style=" stroke:none;fill-rule:nonzero;fill:url(#linear0);" d="M 41.492188 6.511719 C 41.492188 6.511719 39.671875 9.75 37.453125 11.164062 C 35.234375 12.574219 28.46875 15.601562 26.453125 17.214844 C 24.539062 18.746094 22.984375 20.605469 22.414062 22.109375 L 22.414062 27.203125 C 22.503906 27.371094 22.621094 27.527344 22.722656 27.703125 C 24.035156 29.921875 27.5625 31.648438 27.5625 31.648438 C 27.5625 31.648438 23.382812 34.015625 22.414062 36.285156 L 22.414062 41.785156 C 22.910156 42.53125 23.953125 44.027344 24.84375 44.769531 C 25.828125 45.589844 26.644531 46.109375 26.980469 46.3125 C 25.929688 46.902344 24.910156 47.511719 24.222656 48 C 22.8125 49.011719 22.414062 50.121094 22.414062 50.121094 L 22.507812 57.488281 C 22.507812 57.488281 24.328125 54.25 26.546875 52.835938 C 28.765625 51.425781 35.53125 48.398438 37.546875 46.785156 C 39.460938 45.253906 41.015625 43.394531 41.585938 41.890625 L 41.585938 36.796875 C 41.496094 36.628906 41.378906 36.472656 41.277344 36.296875 C 39.964844 34.078125 36.4375 32.351562 36.4375 32.351562 C 36.4375 32.351562 40.617188 29.996094 41.585938 27.730469 L 41.585938 22.214844 C 41.089844 21.46875 40.046875 19.972656 39.15625 19.230469 C 38.171875 18.410156 37.355469 17.890625 37.019531 17.6875 C 38.070312 17.097656 39.089844 16.488281 39.777344 16 C 41.1875 14.988281 41.585938 13.878906 41.585938 13.878906 Z M 31.859375 20.40625 C 32.785156 20.796875 33.785156 21.261719 34.414062 21.664062 C 35.824219 22.570312 37.144531 23.679688 37.546875 24.082031 C 37.949219 24.484375 37.949219 24.691406 37.546875 25.09375 C 37.207031 25.4375 34.035156 27.632812 32.222656 28.824219 C 32.148438 28.789062 32.085938 28.75 32.007812 28.714844 C 30.695312 28.113281 28.773438 26.792969 27.761719 25.988281 C 26.753906 25.179688 26.148438 24.777344 26.046875 24.472656 C 25.945312 24.167969 26.550781 23.363281 27.15625 22.960938 C 27.582031 22.675781 29.925781 21.414062 31.859375 20.40625 Z M 31.777344 35.175781 C 31.851562 35.210938 31.914062 35.246094 31.992188 35.285156 C 33.304688 35.886719 35.226562 37.207031 36.238281 38.011719 C 37.246094 38.820312 37.851562 39.222656 37.953125 39.527344 C 38.054688 39.832031 37.449219 40.636719 36.84375 41.039062 C 36.417969 41.324219 34.074219 42.585938 32.140625 43.59375 C 31.21875 43.203125 30.214844 42.738281 29.585938 42.335938 C 28.175781 41.429688 26.855469 40.320312 26.453125 39.917969 C 26.050781 39.515625 26.050781 39.308594 26.453125 38.90625 C 26.792969 38.5625 29.96875 36.363281 31.777344 35.175781 Z M 31.777344 35.175781 "/>
</g>
</svg>
