<svg xmlns="http://www.w3.org/2000/svg" xmlns:xlink="http://www.w3.org/1999/xlink" width="64" height="64" viewBox="0 0 64 64" version="1.1">
<defs>
<linearGradient id="linear0" gradientUnits="userSpaceOnUse" x1="0" y1="0" x2="0" y2="1" gradientTransform="matrix(64,0,0,62.71875,0,0.640625)">
<stop offset="0" style="stop-color:#ff6666;stop-opacity:1;"/>
<stop offset="1" style="stop-color:#d90000;stop-opacity:1;"/>
</linearGradient>
</defs>
<g id="surface1">
<path style=" stroke:none;fill-rule:nonzero;fill:url(#linear0);" d="M 54.238281 0.648438 C 53.804688 0.6875 53.382812 0.828125 53.011719 1.054688 L 37.253906 10.550781 C 38.457031 10.785156 39.578125 11.070312 40.648438 11.371094 L 54.609375 3.839844 C 55.671875 3.261719 56.203125 2.140625 55.757812 1.34375 C 55.464844 0.839844 54.898438 0.597656 54.238281 0.648438 Z M 40.648438 11.371094 L 24.5625 20.046875 C 24.316406 20.179688 23.953125 20.003906 23.742188 19.640625 C 23.539062 19.273438 23.546875 18.839844 23.785156 18.695312 L 37.253906 10.550781 C 34.992188 10.121094 32.5 9.839844 29.761719 9.730469 C 30.371094 8.632812 30.113281 7.253906 29.140625 6.449219 C 28.171875 5.644531 26.769531 5.644531 25.796875 6.449219 C 24.828125 7.253906 24.566406 8.632812 25.175781 9.730469 C 20.589844 9.90625 16.703125 10.613281 13.429688 11.617188 C 12.957031 11.21875 12.363281 11.003906 11.746094 11.003906 C 10.4375 11.003906 9.359375 11.992188 9.171875 13.257812 C 2.90625 16.1875 0 20.257812 0 22.875 C 0 29.957031 12.550781 35.964844 27.429688 35.976562 C 42.304688 35.964844 54.894531 29.957031 54.894531 22.875 C 54.894531 21.964844 54.507812 20.878906 53.792969 19.722656 L 29.109375 27.132812 C 28.875 27.207031 28.597656 26.953125 28.492188 26.601562 C 28.371094 26.238281 28.457031 25.898438 28.695312 25.824219 L 51.949219 17.429688 C 49.644531 15.125 45.945312 12.859375 40.648438 11.371094 Z M 51.949219 17.429688 C 52.648438 18.121094 53.269531 18.886719 53.792969 19.71875 L 62.019531 17.265625 C 63.363281 16.867188 64.238281 15.824219 63.945312 14.933594 C 63.660156 14.050781 62.3125 13.71875 60.996094 14.195312 Z M 54.9375 29.378906 C 52.675781 32.039062 49.046875 34.285156 44.496094 35.890625 L 44.496094 57.21875 C 45.28125 57.675781 45.808594 58.503906 45.808594 59.472656 C 45.808594 59.753906 45.769531 60.03125 45.683594 60.289062 C 52.363281 57.441406 54.9375 53.300781 54.9375 50.914062 Z M 0 29.425781 L 0 51.203125 C 0 53.207031 2.472656 57.339844 9.253906 60.246094 C 9.171875 59.996094 9.132812 59.734375 9.132812 59.472656 C 9.132812 58.539062 9.632812 57.679688 10.441406 57.21875 L 10.441406 35.890625 C 5.894531 34.296875 2.277344 32.0625 0 29.425781 Z M 13.058594 36.710938 L 13.058594 57.21875 C 13.839844 57.667969 14.335938 58.484375 14.367188 59.382812 C 14.398438 60.285156 13.96875 61.136719 13.222656 61.640625 C 16.472656 62.558594 20.410156 63.207031 25.175781 63.359375 C 24.488281 62.117188 24.925781 60.546875 26.160156 59.835938 L 26.160156 38.550781 C 21.398438 38.457031 16.964844 37.792969 13.058594 36.707031 Z M 41.878906 36.710938 C 37.980469 37.796875 33.535156 38.453125 28.78125 38.550781 L 28.78125 59.839844 C 30.011719 60.546875 30.449219 62.117188 29.761719 63.359375 C 34.515625 63.207031 38.492188 62.558594 41.757812 61.640625 C 41.019531 61.160156 40.574219 60.347656 40.566406 59.472656 C 40.566406 58.503906 41.097656 57.675781 41.878906 57.21875 Z M 41.878906 36.710938 "/>
</g>
</svg>
