<svg xmlns="http://www.w3.org/2000/svg" xmlns:xlink="http://www.w3.org/1999/xlink" width="64" height="64" viewBox="0 0 64 64" version="1.1">
<defs> <linearGradient id="linear0" gradientUnits="userSpaceOnUse" x1="0" y1="0" x2="0" y2="1" gradientTransform="matrix(55.992188,0,0,56,4.003906,4)"> <stop offset="0" style="stop-color:#ff6666;stop-opacity:1;"/> <stop offset="1" style="stop-color:#d90000;stop-opacity:1;"/> </linearGradient> </defs>
<g id="surface1">
<path style="fill-rule:nonzero;fill:url(#linear0);fill-opacity:1;stroke-width:0.69422;stroke-linecap:butt;stroke-linejoin:miter;stroke:rgb(23.921569%,74.117649%,100%);stroke-opacity:1;stroke-miterlimit:4;" d="M 222.847267 96.027034 C 218.741709 96.782503 214.722132 97.689066 210.72405 98.746722 C 205.629719 100.149736 200.621369 101.833353 195.677503 103.754403 C 190.776628 105.653868 185.961734 107.812351 181.254314 110.208267 C 176.5254 112.604183 171.968446 115.259117 167.540462 118.08673 C 163.069489 120.935927 158.79197 124.022558 154.664918 127.303452 C 150.494875 130.584346 146.539783 134.059504 142.756651 137.750509 C 142.24077 138.24696 141.789373 138.786581 141.316482 139.304617 C 144.755692 162.96159 163.62836 192.381713 182.221592 213.211074 C 175.902043 224.931636 172.591803 238.033628 172.570308 251.373053 C 172.591803 255.193567 172.914229 258.970913 173.4731 262.748258 C 146.604268 250.552829 116.339215 227.564985 103.463671 199.936404 C 102.883304 201.468926 102.302937 203.001449 101.787056 204.555557 C 100.217916 209.584822 98.906717 214.722012 97.874954 219.902371 C 96.821696 225.061145 96.026378 230.284674 95.510497 235.572957 C 94.97312 240.818071 94.715179 246.084769 94.715179 251.373053 C 94.715179 255.085643 94.84415 258.841404 95.10209 262.553994 C 95.467506 267.842278 96.133853 273.065806 97.036646 278.289335 C 97.853459 282.930073 98.885222 287.570812 100.131936 292.146796 C 122.379329 300.996576 157.287316 299.377714 184.650535 293.657734 C 193.678462 308.270663 207.155869 319.624284 223.126703 326.034978 C 199.159704 343.194918 164.122747 357.872602 133.771714 355.239253 C 135.620289 357.440905 137.53335 359.599388 139.467906 361.714702 C 143.165058 365.492047 147.034169 369.096713 151.053747 372.507116 C 155.094819 375.895935 159.307852 379.090489 163.649855 382.069196 C 168.034849 385.069487 172.527318 387.810761 177.148757 390.336186 C 181.791691 392.883196 186.563596 395.192772 191.399985 397.243331 C 196.279365 399.272305 201.244726 401.085431 206.274571 402.661123 C 208.187632 403.179159 210.122188 403.697195 212.035249 404.128892 C 230.778946 389.321699 246.771275 358.282714 255.498272 331.776543 C 272.694324 331.280092 289.245525 325.322679 302.787417 314.681358 C 305.624765 344.036726 300.852861 381.723839 283.334382 406.697486 C 287.43994 405.942017 291.459517 405.035455 295.479094 403.977798 C 300.55193 402.553199 305.56028 400.869582 310.504145 398.970117 C 315.40502 397.070652 320.219915 394.91217 324.927335 392.494669 C 329.656249 390.120337 334.213203 387.508573 338.662682 384.616206 C 343.133655 381.788593 347.411173 378.723547 351.559721 375.399484 C 355.686774 372.118589 359.663361 368.665017 363.446493 364.974011 C 363.940879 364.47756 364.413771 363.937939 364.908157 363.398318 C 361.447451 339.741345 342.553289 310.342807 323.960057 289.535031 C 330.279606 277.771299 333.589846 264.690892 333.632836 251.373053 C 333.589846 247.552538 333.288915 243.753608 332.708548 239.976262 C 359.598876 252.150106 389.842433 275.159535 402.717978 302.788117 C 403.31984 301.255594 403.878711 299.723071 404.416088 298.147378 C 405.963733 293.118113 407.274932 288.002508 408.306695 282.822149 C 409.381448 277.663375 410.155271 272.439846 410.692647 267.194733 C 411.208529 261.906449 411.46647 256.661336 411.46647 251.373053 C 411.46647 247.617292 411.337499 243.883117 411.101054 240.148941 C 410.714142 234.882243 410.06929 229.658714 409.166498 224.435185 C 408.349685 219.751277 407.274932 215.132124 406.028218 210.534555 C 378.772475 200.821382 345.197182 204.16703 321.531114 209.023617 C 312.503186 194.432272 299.004285 183.100236 283.054946 176.689542 C 307.021945 159.529602 342.058902 144.851918 372.409935 147.506852 C 370.561359 145.283615 368.648298 143.125132 366.713743 141.031403 C 363.038086 137.210889 359.147479 133.627807 355.127902 130.217404 C 351.08683 126.807001 346.873797 123.634031 342.531793 120.655324 C 338.1468 117.655033 333.654331 114.91376 329.032892 112.36675 C 324.411453 109.841325 319.618053 107.531748 314.781663 105.459604 C 309.902283 103.43063 304.936923 101.617505 299.907078 100.063397 C 297.994017 99.523776 296.102451 99.070495 294.18939 98.595628 C 275.445693 113.445991 259.410374 144.441807 250.683377 170.947977 C 233.508819 171.444428 216.936124 177.445011 203.415727 188.021578 C 200.556883 158.687794 205.350283 121.000682 222.847267 96.027034 Z M 222.847267 96.027034 " transform="matrix(0.181728,0,0,0.180972,-14.466283,-14.155549)"/>
</g>
</svg>
