<svg xmlns="http://www.w3.org/2000/svg" xmlns:xlink="http://www.w3.org/1999/xlink" width="64" height="64" viewBox="0 0 64 64" version="1.1">
<defs> <linearGradient id="linear0" gradientUnits="userSpaceOnUse" x1="0" y1="0" x2="0" y2="1" gradientTransform="matrix(55.992188,0,0,56,4.003906,4)"> <stop offset="0" style="stop-color:#ff6666;stop-opacity:1;"/> <stop offset="1" style="stop-color:#d90000;stop-opacity:1;"/> </linearGradient> </defs>
<g id="surface1">
<path style=" stroke:none;fill-rule:nonzero;fill:url(#linear0);fill-opacity:1;" d="M 29.597656 5.0625 C 27.074219 5.0625 24.910156 7.132812 24.910156 9.675781 L 24.910156 12.695312 C 24.253906 12.929688 23.613281 13.1875 22.980469 13.476562 L 20.738281 11.292969 C 18.925781 9.527344 15.96875 9.527344 14.15625 11.292969 L 10.679688 14.675781 C 8.867188 16.441406 8.867188 19.476562 10.679688 21.242188 L 10.6875 21.246094 L 12.871094 23.375 C 12.589844 23.960938 12.296875 24.542969 12.070312 25.160156 L 8.9375 25.160156 C 6.421875 25.160156 4.25 27.234375 4.25 29.78125 L 4.25 34.566406 C 4.25 37.109375 6.421875 39.1875 8.9375 39.1875 L 12.070312 39.1875 C 12.296875 39.800781 12.589844 40.386719 12.871094 40.972656 L 10.679688 43.105469 C 8.867188 44.871094 8.867188 47.90625 10.6875 49.671875 L 14.15625 53.054688 C 15.972656 54.816406 18.925781 54.816406 20.738281 53.054688 L 22.980469 50.871094 C 23.613281 51.160156 24.253906 51.417969 24.910156 51.652344 L 24.910156 54.671875 C 24.910156 57.214844 27.074219 59.285156 29.597656 59.285156 L 34.515625 59.285156 C 37.035156 59.285156 39.199219 57.214844 39.199219 54.671875 L 39.199219 51.652344 C 39.859375 51.417969 40.5 51.160156 41.132812 50.871094 L 43.375 53.054688 C 45.1875 54.816406 48.144531 54.816406 49.957031 53.054688 L 53.433594 49.671875 C 55.242188 47.90625 55.242188 44.863281 53.425781 43.097656 L 51.238281 40.972656 C 51.523438 40.386719 51.8125 39.800781 52.039062 39.1875 L 55.175781 39.1875 C 57.691406 39.1875 59.859375 37.109375 59.859375 34.566406 L 59.859375 29.78125 C 59.859375 27.234375 57.691406 25.160156 55.175781 25.160156 L 52.039062 25.160156 C 51.8125 24.542969 51.523438 23.960938 51.238281 23.375 L 53.425781 21.242188 C 55.242188 19.476562 55.242188 16.441406 53.433594 14.675781 L 53.425781 14.675781 L 49.957031 11.292969 C 48.140625 9.527344 45.1875 9.527344 43.375 11.292969 L 41.132812 13.476562 C 40.5 13.1875 39.859375 12.929688 39.199219 12.695312 L 39.199219 9.675781 C 39.199219 7.132812 37.035156 5.0625 34.515625 5.0625 Z M 32.1875 11.503906 C 32.679688 11.484375 33.167969 11.542969 33.628906 11.671875 C 34.113281 11.808594 34.042969 11.925781 32.476562 13.640625 C 31.554688 14.640625 30.808594 15.625 30.808594 15.835938 C 30.808594 16.554688 32.664062 18.402344 33.386719 18.402344 C 33.542969 18.402344 34.417969 17.703125 35.332031 16.839844 C 36.246094 15.980469 37.078125 15.28125 37.171875 15.28125 C 37.457031 15.28125 37.671875 16.796875 37.503906 17.589844 C 36.972656 20.082031 35.128906 21.722656 32.441406 22.085938 C 31.339844 22.230469 31.265625 22.300781 25.515625 27.933594 C 22.316406 31.066406 19.402344 33.769531 19.039062 33.9375 C 17.652344 34.582031 16.105469 34.117188 15.210938 32.789062 C 14.78125 32.15625 14.710938 31.832031 14.808594 30.855469 L 14.917969 29.683594 L 20.886719 23.722656 L 26.847656 17.761719 L 26.847656 16.738281 C 26.847656 15.460938 27.242188 14.488281 28.195312 13.386719 C 29.183594 12.242188 30.710938 11.554688 32.1875 11.503906 Z M 32.054688 26.335938 C 35.464844 26.335938 38.117188 28.949219 38.117188 32.171875 C 38.117188 35.398438 35.46875 38.007812 32.054688 38.007812 C 28.648438 38.007812 25.996094 35.398438 25.996094 32.171875 C 25.996094 28.949219 28.644531 26.335938 32.054688 26.335938 Z M 17.820312 29.671875 C 17.621094 29.671875 17.414062 29.742188 17.085938 29.882812 C 15.796875 30.425781 15.796875 32.210938 17.09375 32.710938 C 17.394531 32.824219 17.707031 32.914062 17.789062 32.910156 C 19.363281 32.761719 19.847656 30.617188 18.464844 29.894531 C 18.195312 29.753906 18.011719 29.679688 17.820312 29.671875 Z M 17.820312 29.671875 "/>
</g>
</svg>
