<svg xmlns="http://www.w3.org/2000/svg" xmlns:xlink="http://www.w3.org/1999/xlink" width="64" height="64" viewBox="0 0 64 64" version="1.1">
<defs>
<linearGradient id="linear0" gradientUnits="userSpaceOnUse" x1="0" y1="0" x2="0" y2="1" gradientTransform="matrix(57.375,0,0,64,3.3125,0)">
<stop offset="0" style="stop-color:#ff6666;stop-opacity:1;"/>
<stop offset="1" style="stop-color:#d90000;stop-opacity:1;"/>
</linearGradient>
</defs>
<g id="surface1">
<path style=" stroke:none;fill-rule:evenodd;fill:url(#linear0);" d="M 37.507812 64 L 34.320312 58 C 47.457031 56.285156 54.023438 51.144531 54.023438 42.570312 C 54.023438 35.523438 49.871094 31.144531 41.5625 29.429688 C 39.050781 37.621094 34.996094 44.667969 29.390625 50.570312 C 29.96875 52.667969 30.9375 54.761719 32.289062 56.855469 L 26.203125 59.429688 L 24.464844 55.144531 C 20.019531 58.191406 16.449219 59.714844 13.742188 59.714844 C 6.789062 59.714844 3.3125 56.570312 3.3125 50.285156 C 3.3125 40.761719 9.011719 33.238281 20.40625 27.714844 L 20.988281 15.714844 L 8.816406 15.714844 L 8.816406 9.714844 L 21.566406 9.714844 L 22.726562 0 L 29.105469 0.855469 C 28.523438 3.714844 28.039062 6.667969 27.652344 9.714844 L 47.066406 9.714844 L 47.066406 15.714844 L 27.070312 15.714844 C 26.683594 19.144531 26.492188 22.378906 26.492188 25.429688 C 29.972656 24.476562 33.351562 24 36.636719 24 C 36.832031 22.476562 37.121094 20.859375 37.507812 19.144531 L 43.878906 20.570312 C 43.878906 20.953125 43.589844 22.285156 43.011719 24.570312 C 54.796875 26.667969 60.6875 32.476562 60.6875 42 C 60.6875 53.8125 52.960938 61.144531 37.507812 64 Z M 26.492188 31.144531 C 26.492188 35.332031 26.878906 39.523438 27.652344 43.714844 C 30.9375 40.476562 33.546875 35.714844 35.476562 29.429688 C 32.386719 29.621094 29.390625 30.191406 26.492188 31.144531 Z M 22.4375 48.855469 C 21.46875 43.902344 20.792969 38.855469 20.40625 33.714844 C 12.875 38.285156 9.109375 43.523438 9.109375 49.429688 C 9.109375 52.285156 10.265625 53.714844 12.585938 53.714844 C 15.484375 53.714844 18.765625 52.097656 22.4375 48.855469 Z M 22.4375 48.855469 "/>
</g>
</svg>
