<svg xmlns="http://www.w3.org/2000/svg" xmlns:xlink="http://www.w3.org/1999/xlink" width="64" height="64" viewBox="0 0 64 64" version="1.1">
<defs>
<linearGradient id="linear0" gradientUnits="userSpaceOnUse" x1="0" y1="0" x2="0" y2="1" gradientTransform="matrix(64,0,0,61.882813,0,1.058594)">
<stop offset="0" style="stop-color:#ff6666;stop-opacity:1;"/>
<stop offset="1" style="stop-color:#d90000;stop-opacity:1;"/>
</linearGradient>
</defs>
<g id="surface1">
<path style=" stroke:none;fill-rule:evenodd;fill:url(#linear0);" d="M 22.980469 1.058594 L 9.296875 19.523438 L 13.164062 27.199219 L 22.148438 27.199219 C 21.925781 28.285156 21.640625 29.527344 21.289062 30.867188 C 20.226562 34.871094 18.300781 39.492188 16.886719 41.097656 L 16.832031 41.160156 L 16.777344 41.226562 C 13.371094 45.34375 7.832031 49.585938 0 54.050781 L 5.066406 62.941406 C 13.449219 58.160156 19.960938 53.386719 24.59375 47.8125 C 28.296875 43.582031 29.957031 38.121094 31.179688 33.492188 C 31.84375 30.988281 32.289062 28.773438 32.574219 27.203125 L 54.171875 27.203125 C 53.78125 37.03125 53.703125 39.410156 51.609375 44.492188 C 50.371094 47.492188 48.8125 49.371094 45.667969 50.839844 C 42.527344 52.308594 37.5 53.199219 29.863281 52.707031 L 29.242188 62.304688 C 37.855469 62.859375 44.488281 62.011719 49.742188 59.558594 C 54.996094 57.105469 58.5625 52.875 60.503906 48.164062 C 64.390625 38.742188 63.347656 34.042969 64 22.667969 L 63.792969 17.578125 L 22.710938 17.578125 L 30.707031 6.796875 Z M 22.980469 1.058594 "/>
</g>
</svg>
