<svg xmlns="http://www.w3.org/2000/svg" xmlns:xlink="http://www.w3.org/1999/xlink" width="64" height="64" viewBox="0 0 64 64" version="1.1">
<defs>
<linearGradient id="linear0" gradientUnits="userSpaceOnUse" x1="0" y1="0" x2="0" y2="1" gradientTransform="matrix(64,0,0,62.125,0,0.9375)">
<stop offset="0" style="stop-color:#ff6666;stop-opacity:1;"/>
<stop offset="1" style="stop-color:#d90000;stop-opacity:1;"/>
</linearGradient>
</defs>
<g id="surface1">
<path style=" stroke:none;fill-rule:nonzero;fill:url(#linear0);" d="M 51.203125 0.9375 C 49.667969 5.03125 47.882812 8.960938 45.835938 12.542969 L 27.15625 12.542969 L 27.15625 19.28125 L 33.808594 19.28125 L 33.808594 28.800781 C 33.808594 30.335938 33.722656 31.390625 33.550781 32.753906 L 26.949219 32.753906 L 26.949219 39.488281 L 33.039062 39.488281 C 32.015625 48.53125 28.523438 54.792969 22.550781 59.226562 L 27.824219 63.0625 C 34.816406 57.945312 38.90625 50.40625 40.097656 39.488281 L 50.527344 39.488281 L 50.527344 62.804688 L 57.261719 62.804688 L 57.261719 39.488281 L 64 39.488281 L 64 32.753906 L 57.261719 32.753906 L 57.261719 19.28125 L 64 19.28125 L 64 12.542969 L 51.203125 12.542969 C 53.078125 9.644531 54.960938 6.222656 56.835938 2.46875 Z M 35.855469 1.699219 L 30.738281 3.242188 C 32.613281 5.628906 34.0625 8.355469 35.085938 11.425781 L 40.460938 9.636719 C 39.4375 6.734375 37.902344 4.09375 35.855469 1.707031 Z M 10.105469 2.4375 L 10.105469 12.542969 L 0 12.542969 L 0 19.28125 L 10.105469 19.28125 L 10.105469 32.621094 C 6.863281 33.984375 3.753906 35.347656 0 36.714844 L 1.789062 42.089844 C 4.859375 40.894531 7.375 39.703125 10.105469 38.507812 L 10.105469 54.628906 C 10.105469 56.675781 9.726562 57.695312 8.875 57.695312 C 6.488281 57.695312 4.519531 57.355469 2.300781 56.675781 L 3.324219 62.042969 C 5.371094 62.554688 7.585938 62.8125 9.972656 62.8125 C 12.019531 62.8125 14.640625 62.304688 15.492188 61.28125 C 16.347656 60.257812 16.84375 58.464844 16.84375 55.90625 L 16.84375 35.953125 L 24.03125 32.367188 L 23.261719 27.761719 L 23.261719 27.753906 C 21.046875 28.777344 19.058594 29.382812 16.84375 30.574219 L 16.84375 19.277344 L 23.578125 19.277344 L 23.578125 12.542969 L 16.84375 12.542969 L 16.84375 2.4375 Z M 40.613281 19.28125 L 50.527344 19.28125 L 50.527344 32.753906 L 40.355469 32.753906 C 40.527344 31.558594 40.613281 30.757812 40.613281 29.5625 Z M 40.613281 19.28125 "/>
</g>
</svg>
