<svg xmlns="http://www.w3.org/2000/svg" xmlns:xlink="http://www.w3.org/1999/xlink" width="64" height="64" viewBox="0 0 64 64" version="1.1">
<defs> <linearGradient id="linear0" gradientUnits="userSpaceOnUse" x1="0" y1="0" x2="0" y2="1" gradientTransform="matrix(55.992188,0,0,56,4.003906,4)"> <stop offset="0" style="stop-color:#ff6666;stop-opacity:1;"/> <stop offset="1" style="stop-color:#d90000;stop-opacity:1;"/> </linearGradient> </defs>
<g id="surface1">
<path style=" stroke:none;fill-rule:nonzero;fill:url(#linear0);fill-opacity:1;" d="M 46.042969 7.882812 C 43.363281 10.34375 46.042969 13.679688 51.40625 23.027344 C 62.132812 39.050781 46.042969 59.070312 32.636719 47.058594 C 30.484375 44.195312 30.625 44.394531 28.613281 43.054688 C 25.941406 40.378906 30.539062 38.140625 31.300781 36.375 C 32.273438 34.292969 33.457031 32.480469 35.644531 33.175781 C 37.347656 33.746094 39.601562 31.855469 38.996094 30.511719 C 38.472656 29.390625 37.160156 28.964844 35.542969 28.976562 C 34.195312 28.988281 32.636719 29.292969 31.117188 29.753906 C 29.199219 30.386719 26.605469 35.039062 24.089844 34.292969 C 21.242188 33.039062 17.738281 34.894531 17.738281 31.292969 C 17.738281 25.90625 20.914062 27.367188 22.25 27.367188 C 23.871094 27.050781 24.753906 25.167969 24.972656 24.453125 C 25.210938 23.667969 24.59375 22.359375 22.582031 21.699219 C 22.363281 19.980469 21.242188 19.023438 19.910156 18.355469 C 21.242188 15.695312 20.914062 15.019531 20.574219 14.019531 C 18.902344 14.347656 16.9375 15.421875 16.710938 16.511719 C 16.570312 17.210938 15.886719 17.023438 15.886719 17.023438 C 15.210938 16.6875 14.042969 16.6875 13.203125 17.1875 C 12.859375 17.355469 12.402344 17.390625 12.570312 16.675781 C 12.804688 15.675781 12.53125 15.019531 11.855469 13.679688 C 9.84375 14.347656 9.179688 16.347656 9.84375 19.023438 C 7.585938 22.949219 5.824219 26.167969 5.824219 31.035156 C 5.824219 45.824219 17.785156 57.734375 32.636719 57.734375 C 47.496094 57.734375 59.445312 45.824219 59.445312 31.035156 C 59.445312 21.117188 54.074219 12.488281 46.042969 7.882812 Z M 46.042969 7.882812 "/>
</g>
</svg>
