<svg xmlns="http://www.w3.org/2000/svg" xmlns:xlink="http://www.w3.org/1999/xlink" width="64" height="64" viewBox="0 0 64 64" version="1.1">
<defs>
<linearGradient id="linear0" gradientUnits="userSpaceOnUse" x1="0" y1="0" x2="0" y2="1" gradientTransform="matrix(60,0,0,60,2,2)">
<stop offset="0" style="stop-color:#ff6666;stop-opacity:1;"/>
<stop offset="1" style="stop-color:#d90000;stop-opacity:1;"/>
</linearGradient>
</defs>
<g id="surface1">
<path style=" stroke:none;fill-rule:nonzero;fill:url(#linear0);" d="M 30.660156 61.863281 C 28.753906 61.492188 26.6875 59.890625 25.488281 57.859375 C 24.796875 56.6875 23.984375 54.296875 23.832031 52.992188 C 23.773438 52.503906 23.703125 52.109375 23.675781 52.109375 C 23.648438 52.109375 23.171875 52.421875 22.617188 52.808594 C 17.886719 56.097656 12.777344 55.941406 10.136719 52.429688 C 8.054688 49.660156 8.457031 45.265625 11.144531 41.363281 L 11.871094 40.3125 L 10.75 40.121094 C 3.136719 38.816406 -0.339844 32.585938 3.703125 27.5 C 4.992188 25.882812 8.054688 24.296875 10.691406 23.890625 L 11.882812 23.703125 L 11.09375 22.546875 C 9.535156 20.257812 8.820312 18.148438 8.828125 15.828125 C 8.832031 12.613281 10.617188 10.0625 13.480469 9.179688 C 14.746094 8.789062 16.886719 8.753906 18.25 9.105469 C 19.511719 9.433594 21.5 10.371094 22.710938 11.214844 L 23.683594 11.890625 L 23.871094 10.789062 C 24.496094 7.082031 26.429688 4.015625 28.917969 2.792969 C 31.824219 1.363281 34.597656 1.875 36.996094 4.285156 C 38.628906 5.921875 39.625 7.984375 40.117188 10.738281 L 40.324219 11.894531 L 41.0625 11.359375 C 42.171875 10.550781 43.457031 9.867188 44.777344 9.386719 C 45.835938 9 46.191406 8.953125 48.046875 8.945312 C 50.0625 8.941406 50.164062 8.957031 51.207031 9.449219 C 52.691406 10.152344 53.769531 11.207031 54.484375 12.648438 C 55.003906 13.699219 55.074219 13.992188 55.136719 15.386719 C 55.1875 16.492188 55.132812 17.277344 54.949219 18.070312 C 54.640625 19.390625 53.523438 21.765625 52.707031 22.828125 C 52.390625 23.238281 52.132812 23.617188 52.132812 23.667969 C 52.132812 23.714844 52.304688 23.757812 52.511719 23.757812 C 53.363281 23.757812 56.050781 24.578125 57.296875 25.21875 C 58.921875 26.058594 60.664062 27.722656 61.300781 29.050781 C 63.574219 33.796875 60.121094 38.738281 53.613281 40.054688 L 52.144531 40.351562 L 52.800781 41.304688 C 56.507812 46.6875 55.8125 52.386719 51.183594 54.5625 C 50.308594 54.972656 49.917969 55.054688 48.539062 55.117188 C 46.082031 55.222656 44.125 54.625 41.640625 53.003906 C 40.527344 52.277344 40.273438 52.167969 40.273438 52.410156 C 40.273438 53.164062 39.414062 56.003906 38.816406 57.214844 C 38.324219 58.214844 37.863281 58.851562 37.011719 59.703125 C 35.089844 61.625 33.03125 62.324219 30.660156 61.863281 Z M 33.511719 58.261719 C 35.769531 57.136719 37.074219 53.925781 37.058594 49.542969 C 37.054688 48.445312 36.992188 46.675781 36.917969 45.621094 C 36.84375 44.5625 36.800781 43.679688 36.820312 43.660156 C 36.835938 43.640625 37.785156 44.675781 38.925781 45.960938 C 40.0625 47.246094 41.574219 48.761719 42.277344 49.332031 C 44.636719 51.230469 47.101562 52.132812 48.960938 51.78125 C 50.992188 51.394531 51.921875 50.03125 51.777344 47.640625 C 51.691406 46.238281 51.238281 44.988281 50.292969 43.535156 C 49.65625 42.566406 47.195312 40.007812 44.839844 37.867188 C 44.136719 37.226562 43.691406 36.746094 43.851562 36.796875 C 44.011719 36.847656 45.777344 36.9375 47.777344 36.992188 C 51.773438 37.109375 53.082031 36.957031 55.078125 36.160156 C 58.105469 34.945312 59.4375 32.433594 58.179688 30.292969 C 57.390625 28.949219 55.84375 27.953125 53.574219 27.328125 C 52.679688 27.082031 51.914062 27.042969 48.128906 27.0625 L 43.726562 27.082031 L 45.003906 25.945312 C 50.148438 21.363281 51.800781 18.929688 51.808594 15.917969 C 51.8125 14.453125 51.414062 13.523438 50.496094 12.859375 C 49.09375 11.84375 47.109375 11.898438 44.792969 13.019531 C 43.019531 13.878906 41.414062 15.25 38.980469 17.980469 C 37.804688 19.300781 36.832031 20.367188 36.820312 20.347656 C 36.808594 20.328125 36.863281 19.269531 36.945312 17.992188 C 37.136719 15.046875 37.011719 11.640625 36.664062 10.382812 C 36.042969 8.101562 34.914062 6.449219 33.511719 5.75 C 32.007812 5 30.71875 5.269531 29.367188 6.613281 C 27.367188 8.601562 26.691406 11.515625 27 16.828125 C 27.085938 18.347656 27.132812 19.742188 27.105469 19.929688 C 27.066406 20.207031 26.742188 19.921875 25.398438 18.414062 C 22.238281 14.871094 20.320312 13.328125 18.066406 12.519531 C 16.820312 12.070312 14.949219 12.039062 14.15625 12.449219 C 11.917969 13.613281 11.5 16.109375 13.023438 19.191406 C 14.085938 21.339844 15.945312 23.382812 19.824219 26.660156 L 20.320312 27.082031 L 15.835938 27.0625 C 11.921875 27.042969 11.21875 27.078125 10.308594 27.335938 C 6.46875 28.425781 4.523438 30.988281 5.675781 33.441406 C 6.328125 34.828125 8.085938 36.027344 10.390625 36.664062 C 11.59375 36.996094 15.382812 37.121094 18.242188 36.929688 C 19.386719 36.851562 20.34375 36.796875 20.363281 36.8125 C 20.386719 36.824219 19.363281 37.753906 18.089844 38.878906 C 15.050781 41.5625 13.917969 42.898438 12.949219 44.9375 C 12.296875 46.308594 12.003906 47.71875 12.15625 48.730469 C 12.691406 52.300781 16.644531 52.890625 20.800781 50.019531 C 21.921875 49.246094 22.691406 48.484375 26.480469 44.417969 L 27.152344 43.699219 L 27.03125 46.101562 C 26.777344 51.074219 27.011719 53.285156 28.007812 55.410156 C 28.679688 56.839844 29.546875 57.816406 30.582031 58.296875 C 31.628906 58.789062 32.476562 58.777344 33.511719 58.261719 Z M 30.421875 39.585938 C 26.964844 38.925781 24.25 35.597656 24.25 32.019531 C 24.25 29.101562 25.976562 26.339844 28.609375 25.046875 C 35.160156 21.835938 42.144531 28.863281 38.90625 35.414062 C 37.351562 38.558594 33.910156 40.25 30.421875 39.585938 Z M 33.304688 37.929688 C 35.53125 37.566406 37.625 35.308594 38.027344 32.828125 C 38.660156 28.949219 34.957031 25.300781 31.082031 25.984375 C 28.410156 26.453125 26.484375 28.386719 25.980469 31.105469 C 25.636719 32.9375 26.207031 34.667969 27.65625 36.199219 C 28.578125 37.175781 29.796875 37.832031 31.015625 38.011719 C 31.859375 38.136719 32.09375 38.125 33.304688 37.929688 Z M 33.304688 37.929688 "/>
</g>
</svg>
