<svg xmlns="http://www.w3.org/2000/svg" xmlns:xlink="http://www.w3.org/1999/xlink" width="64" height="64" viewBox="0 0 64 64" version="1.1">
<defs>
<linearGradient id="linear0" gradientUnits="userSpaceOnUse" x1="0" y1="0" x2="0" y2="1" gradientTransform="matrix(63.976562,0,0,64,0.0117188,0)">
<stop offset="0" style="stop-color:#ff6666;stop-opacity:1;"/>
<stop offset="1" style="stop-color:#d90000;stop-opacity:1;"/>
</linearGradient>
</defs>
<g id="surface1">
<path style=" stroke:none;fill-rule:nonzero;fill:url(#linear0);" d="M 63.902344 0 C 30.265625 11.335938 0.0117188 27.425781 0.0117188 27.425781 L 24.378906 39.597656 L 36.558594 63.957031 L 36.601562 64 C 36.601562 64 53.480469 32.136719 63.988281 0.0195312 C 63.984375 0.015625 63.980469 0.0117188 63.972656 0.0117188 C 63.96875 0.0078125 63.957031 0.0117188 63.945312 0.0117188 C 63.941406 0.0078125 63.929688 0.0117188 63.925781 0.0117188 C 63.925781 0.0078125 63.914062 0.00390625 63.910156 0.00390625 Z M 56.160156 7.824219 C 48.179688 29.660156 40.519531 46.34375 36.550781 54.179688 L 29.042969 39.15625 C 35.289062 32.421875 47.777344 16.222656 53.09375 10.910156 C 47.78125 16.222656 31.59375 28.699219 24.855469 34.953125 L 9.855469 27.460938 C 17.554688 23.558594 33.808594 16.105469 56.160156 7.824219 Z M 56.160156 7.824219 "/>
</g>
</svg>
