<svg xmlns="http://www.w3.org/2000/svg" xmlns:xlink="http://www.w3.org/1999/xlink" width="64" height="64" viewBox="0 0 64 64" version="1.1">
<defs> <linearGradient id="linear0" gradientUnits="userSpaceOnUse" x1="0" y1="0" x2="0" y2="1" gradientTransform="matrix(55.992188,0,0,56,4.003906,4)"> <stop offset="0" style="stop-color:#ff6666;stop-opacity:1;"/> <stop offset="1" style="stop-color:#d90000;stop-opacity:1;"/> </linearGradient> </defs>
<g id="surface1">
<path style=" stroke:none;fill-rule:nonzero;fill:url(#linear0);fill-opacity:1;" d="M 15.644531 12.335938 C 15.761719 13.410156 15.621094 14.507812 15.554688 15.449219 C 13.871094 15.609375 12.71875 15.582031 11.253906 15.648438 C 11.214844 16.660156 11.351562 17.339844 11.414062 18.304688 C 12.921875 18.273438 14.144531 18.121094 15.46875 18.035156 C 15.410156 19.195312 15.367188 20.414062 15.375 21.863281 C 11.988281 23.746094 10.429688 26.234375 10.425781 29.527344 C 10.425781 32.960938 13.582031 34.253906 16.097656 33.265625 C 16.75 33.011719 17.148438 32.734375 17.535156 32.46875 C 17.683594 32.714844 17.714844 33.003906 17.808594 33.265625 C 18.625 32.613281 19.671875 32.308594 20.503906 31.929688 L 20.597656 31.664062 C 20.613281 31.082031 20.167969 30.589844 19.964844 30.058594 C 21.601562 27.953125 22.695312 25.527344 23.464844 23.199219 C 25.765625 23.507812 27.945312 24.796875 27.597656 27.472656 C 27.21875 30.480469 23.753906 31.476562 21.304688 32.019531 C 21.390625 33.167969 22.011719 34.089844 22.476562 35.046875 C 26.65625 34.167969 30.453125 31.03125 30.5625 27.390625 C 30.660156 24.410156 29.308594 22.769531 26.609375 21.507812 C 25.632812 21.050781 24.828125 20.949219 24.179688 20.792969 C 24.230469 20.320312 24.558594 19.984375 24.722656 19.636719 C 25.058594 19.171875 24.769531 19.105469 24.542969 18.746094 L 22.300781 18.300781 C 22.050781 18.226562 21.816406 18.355469 21.667969 18.480469 C 21.4375 19.085938 21.488281 19.777344 21.398438 20.445312 C 20.066406 20.523438 18.949219 20.722656 17.984375 20.976562 C 17.988281 20.121094 17.996094 19.164062 18.070312 17.949219 C 19.679688 17.832031 23.214844 16.964844 25.355469 16.523438 C 25.128906 15.621094 24.984375 14.804688 24.753906 13.902344 C 22.457031 14.636719 20.199219 15.082031 18.273438 15.320312 C 18.25 14.28125 18.636719 13.617188 18.878906 12.78125 C 18.8125 12.570312 18.597656 12.46875 18.433594 12.425781 L 16.183594 12.160156 C 15.957031 12.039062 15.773438 12.222656 15.644531 12.339844 Z M 20.585938 23.023438 C 20.203125 24.574219 19.449219 25.882812 18.785156 27.207031 C 18.339844 26.015625 18.226562 24.679688 18.070312 23.554688 C 19.046875 23.277344 19.863281 23.097656 20.585938 23.023438 Z M 15.554688 24.714844 C 15.773438 26.472656 16.167969 28.277344 16.632812 29.785156 C 15.5625 30.789062 13.984375 31.617188 13.304688 30.589844 C 11.742188 28.230469 14.109375 26.058594 15.554688 24.707031 Z M 15.554688 24.714844 "/>
<path style=" stroke:none;fill-rule:nonzero;fill:url(#linear0);fill-opacity:1;" d="M 28.023438 36.726562 C 29.152344 36.726562 30.113281 37.144531 30.898438 37.980469 C 31.679688 38.816406 32.066406 39.851562 32.066406 41.082031 C 32.066406 42.058594 31.753906 42.929688 31.117188 43.699219 C 31.554688 43.898438 31.917969 44.101562 32.339844 44.316406 C 33.519531 44.882812 34.039062 44.632812 34.703125 44.480469 L 34.703125 39.308594 L 32.105469 39.308594 L 32.105469 36.730469 L 45.078125 36.730469 L 45.078125 39.308594 L 42.484375 39.308594 L 42.484375 52.226562 L 39.894531 52.226562 L 39.894531 39.308594 L 37.296875 39.308594 L 37.296875 52.226562 L 34.707031 52.226562 L 34.707031 47.324219 C 34.375 47.410156 34.304688 47.464844 33.890625 47.464844 C 33.726562 47.464844 33.542969 47.441406 33.34375 47.410156 C 33.363281 47.550781 33.34375 47.75 33.34375 47.996094 C 33.34375 49.472656 32.964844 50.355469 32.199219 51.152344 C 31.449219 51.957031 30.375 52.226562 28.976562 52.226562 C 28.125 52.226562 27.261719 52.089844 26.382812 51.554688 C 25.496094 51.023438 24.742188 50.382812 24.105469 49.660156 C 23.070312 48.476562 22.414062 47.335938 21.886719 45.859375 L 21.886719 45.535156 L 24.03125 44.152344 L 24.28125 44.632812 C 26.074219 47.941406 27.675781 49.597656 29.074219 49.597656 C 29.621094 49.597656 30.007812 49.480469 30.222656 49.246094 C 30.453125 48.996094 30.574219 48.578125 30.574219 47.992188 C 30.574219 47.261719 30.363281 46.683594 29.949219 46.261719 C 29.550781 45.832031 29 45.621094 28.300781 45.621094 C 27.671875 45.621094 27.25 45.679688 27.054688 45.808594 L 26.554688 46.074219 L 25.40625 43.191406 C 25.871094 43.191406 26.34375 43.195312 26.804688 43.195312 C 27.585938 43.171875 28.183594 42.980469 28.601562 42.609375 C 29.035156 42.21875 29.257812 41.691406 29.273438 41.03125 C 29.273438 40.566406 29.171875 40.238281 28.972656 40.046875 C 28.789062 39.847656 28.46875 39.738281 28 39.722656 C 26.96875 39.722656 26.074219 40.292969 25.328125 41.429688 L 25.03125 41.910156 L 22.929688 40.230469 L 22.929688 39.960938 C 22.929688 39.378906 23.503906 38.695312 24.652344 37.90625 C 25.816406 37.105469 26.9375 36.703125 28.023438 36.703125 "/>
<path style=" stroke:none;fill-rule:nonzero;fill:url(#linear0);fill-opacity:1;" d="M 47.246094 28.519531 L 40.089844 28.519531 L 38.332031 33.367188 L 33.644531 33.367188 L 41.195312 13.402344 L 46.226562 13.402344 L 53.6875 33.367188 L 49.132812 33.367188 M 43.6875 18.113281 L 41.195312 24.808594 L 46.191406 24.808594 "/>
</g>
</svg>
