<svg xmlns="http://www.w3.org/2000/svg" xmlns:xlink="http://www.w3.org/1999/xlink" width="64" height="64" viewBox="0 0 64 64" version="1.1">
<defs>
<linearGradient id="linear0" gradientUnits="userSpaceOnUse" x1="0" y1="0" x2="0" y2="1" gradientTransform="matrix(64,0,0,64,0,0)">
<stop offset="0" style="stop-color:#ff6666;stop-opacity:1;"/>
<stop offset="1" style="stop-color:#d90000;stop-opacity:1;"/>
</linearGradient>
</defs>
<g id="surface1">
<path style=" stroke:none;fill-rule:evenodd;fill:url(#linear0);" d="M 58.21875 44.570312 C 58.265625 44.570312 58.308594 44.570312 58.351562 44.570312 C 58.851562 44.570312 59.332031 44.761719 59.683594 45.089844 C 60.035156 45.421875 60.234375 45.867188 60.234375 46.339844 C 60.234375 46.808594 60.035156 47.257812 59.683594 47.589844 C 59.332031 47.914062 58.851562 48.105469 58.351562 48.105469 C 57.3125 48.105469 56.472656 47.3125 56.472656 46.339844 C 56.46875 45.40625 57.230469 44.636719 58.21875 44.570312 Z M 5.515625 44.570312 C 5.558594 44.570312 5.605469 44.570312 5.648438 44.570312 C 6.148438 44.570312 6.625 44.761719 6.980469 45.089844 C 7.332031 45.421875 7.527344 45.867188 7.527344 46.339844 C 7.527344 46.808594 7.332031 47.257812 6.980469 47.589844 C 6.625 47.914062 6.148438 48.105469 5.648438 48.105469 C 5.148438 48.105469 4.667969 47.914062 4.316406 47.589844 C 3.964844 47.257812 3.765625 46.808594 3.765625 46.339844 C 3.765625 45.40625 4.527344 44.636719 5.515625 44.570312 Z M 7.910156 25.386719 C 7.164062 25.601562 6.382812 25.707031 5.597656 25.710938 C 5.125 25.710938 4.652344 25.671875 4.183594 25.59375 L 4.183594 39.140625 C 4.652344 39.054688 5.125 39.015625 5.597656 39.015625 C 6.382812 39.015625 7.164062 39.125 7.910156 39.339844 Z M 56.113281 25.421875 L 56.113281 39.304688 C 56.824219 39.113281 57.5625 39.011719 58.304688 39.011719 C 58.933594 39.015625 59.558594 39.09375 60.171875 39.230469 L 60.171875 25.496094 C 59.558594 25.636719 58.933594 25.707031 58.304688 25.707031 C 57.5625 25.707031 56.824219 25.613281 56.113281 25.421875 Z M 13.421875 48.019531 C 13.167969 49.15625 12.636719 50.21875 11.867188 51.132812 L 24.105469 57.761719 C 24.230469 56.589844 24.65625 55.464844 25.332031 54.476562 Z M 50.5 48.078125 L 38.769531 54.4375 C 39.480469 55.472656 39.90625 56.65625 40.015625 57.886719 L 52.179688 51.300781 C 51.351562 50.371094 50.777344 49.269531 50.5 48.085938 Z M 24.058594 5.886719 L 11.179688 12.867188 C 12.140625 13.753906 12.847656 14.847656 13.234375 16.054688 L 25.222656 9.558594 C 24.503906 8.453125 24.105469 7.1875 24.058594 5.886719 Z M 40.085938 5.773438 C 40.054688 7.128906 39.644531 8.449219 38.882812 9.601562 L 50.679688 15.992188 C 51.101562 14.734375 51.863281 13.609375 52.898438 12.714844 Z M 31.769531 3.53125 C 31.8125 3.527344 31.855469 3.527344 31.898438 3.53125 C 32.398438 3.53125 32.875 3.714844 33.226562 4.046875 C 33.585938 4.378906 33.78125 4.828125 33.78125 5.296875 C 33.78125 5.765625 33.585938 6.210938 33.226562 6.542969 C 32.875 6.875 32.398438 7.0625 31.898438 7.0625 C 31.398438 7.0625 30.921875 6.875 30.566406 6.542969 C 30.214844 6.210938 30.015625 5.765625 30.015625 5.296875 C 30.015625 4.367188 30.78125 3.597656 31.769531 3.53125 Z M 58.21875 16.289062 C 58.265625 16.285156 58.308594 16.285156 58.351562 16.289062 C 58.851562 16.289062 59.332031 16.472656 59.683594 16.804688 C 60.035156 17.136719 60.234375 17.585938 60.234375 18.050781 C 60.234375 18.519531 60.035156 18.96875 59.683594 19.300781 C 59.332031 19.632812 58.851562 19.820312 58.351562 19.820312 C 57.3125 19.820312 56.472656 19.027344 56.472656 18.050781 C 56.46875 17.125 57.230469 16.351562 58.21875 16.289062 Z M 5.515625 16.289062 C 5.558594 16.285156 5.605469 16.285156 5.648438 16.289062 C 6.148438 16.289062 6.625 16.472656 6.980469 16.804688 C 7.332031 17.136719 7.527344 17.585938 7.527344 18.050781 C 7.527344 18.519531 7.332031 18.96875 6.980469 19.300781 C 6.625 19.632812 6.148438 19.820312 5.648438 19.820312 C 5.148438 19.820312 4.667969 19.632812 4.316406 19.300781 C 3.964844 18.96875 3.765625 18.519531 3.765625 18.050781 C 3.765625 17.125 4.527344 16.351562 5.515625 16.289062 Z M 31.769531 56.9375 C 31.8125 56.9375 31.855469 56.9375 31.898438 56.9375 C 32.398438 56.9375 32.875 57.125 33.226562 57.457031 C 33.585938 57.789062 33.78125 58.234375 33.78125 58.703125 C 33.78125 59.171875 33.585938 59.621094 33.226562 59.953125 C 32.875 60.285156 32.398438 60.46875 31.898438 60.46875 C 31.398438 60.46875 30.921875 60.285156 30.566406 59.953125 C 30.214844 59.621094 30.015625 59.171875 30.015625 58.703125 C 30.015625 57.777344 30.78125 57.003906 31.769531 56.9375 Z M 11.714844 23.039062 C 10.886719 23.957031 9.839844 24.675781 8.65625 25.132812 L 26.121094 53.503906 C 26.972656 52.613281 28.035156 51.929688 29.226562 51.503906 Z M 58.351562 41.039062 C 55.234375 41.039062 52.703125 43.410156 52.703125 46.339844 C 52.703125 49.265625 55.234375 51.636719 58.351562 51.636719 C 59.851562 51.636719 61.289062 51.074219 62.347656 50.085938 C 63.402344 49.09375 64 47.742188 64 46.339844 C 64 44.933594 63.402344 43.589844 62.347656 42.59375 C 61.289062 41.601562 59.851562 41.039062 58.351562 41.039062 Z M 5.648438 41.039062 C 2.527344 41.039062 0 43.410156 0 46.339844 C 0 49.265625 2.527344 51.636719 5.648438 51.636719 C 7.144531 51.636719 8.578125 51.074219 9.640625 50.085938 C 10.699219 49.09375 11.296875 47.742188 11.296875 46.339844 C 11.296875 44.933594 10.699219 43.589844 9.640625 42.59375 C 8.578125 41.601562 7.144531 41.039062 5.648438 41.039062 Z M 31.898438 0 C 28.78125 0 26.253906 2.371094 26.253906 5.296875 C 26.253906 8.21875 28.78125 10.59375 31.898438 10.59375 C 33.394531 10.59375 34.832031 10.035156 35.890625 9.039062 C 36.953125 8.046875 37.542969 6.699219 37.542969 5.296875 C 37.542969 3.890625 36.953125 2.542969 35.890625 1.550781 C 34.832031 0.558594 33.394531 0 31.898438 0 Z M 5.648438 12.757812 C 2.527344 12.757812 0 15.128906 0 18.050781 C 0 19.457031 0.597656 20.804688 1.652344 21.796875 C 2.710938 22.792969 4.148438 23.347656 5.648438 23.347656 C 7.144531 23.347656 8.578125 22.792969 9.640625 21.796875 C 10.699219 20.804688 11.296875 19.457031 11.296875 18.050781 C 11.296875 16.648438 10.699219 15.300781 9.640625 14.308594 C 8.578125 13.316406 7.144531 12.757812 5.648438 12.757812 Z M 58.351562 12.757812 C 55.234375 12.757812 52.703125 15.128906 52.703125 18.050781 C 52.703125 19.457031 53.300781 20.804688 54.359375 21.796875 C 55.421875 22.792969 56.855469 23.347656 58.351562 23.347656 C 59.851562 23.347656 61.289062 22.792969 62.347656 21.796875 C 63.402344 20.804688 64 19.457031 64 18.050781 C 64 16.648438 63.402344 15.300781 62.347656 14.308594 C 61.289062 13.316406 59.851562 12.757812 58.351562 12.757812 Z M 31.898438 53.40625 C 30.398438 53.40625 28.964844 53.964844 27.902344 54.960938 C 26.847656 55.953125 26.253906 57.300781 26.253906 58.703125 C 26.253906 61.628906 28.78125 64 31.898438 64 C 33.394531 64 34.832031 63.441406 35.890625 62.449219 C 36.953125 61.457031 37.542969 60.109375 37.542969 58.703125 C 37.542969 57.300781 36.953125 55.953125 35.890625 54.960938 C 34.832031 53.964844 33.394531 53.40625 31.898438 53.40625 Z M 52.316406 23.171875 L 34.875 51.511719 C 36.070312 51.933594 37.140625 52.621094 37.996094 53.511719 L 55.421875 25.191406 C 54.226562 24.761719 53.164062 24.066406 52.316406 23.171875 Z M 52.316406 23.171875 "/>
</g>
</svg>
