<svg xmlns="http://www.w3.org/2000/svg" xmlns:xlink="http://www.w3.org/1999/xlink" width="64" height="64" viewBox="0 0 64 64" version="1.1">
<defs>
<linearGradient id="linear0" gradientUnits="userSpaceOnUse" x1="0" y1="0" x2="0" y2="1" gradientTransform="matrix(64,0,0,54.847656,0,4.574219)">
<stop offset="0" style="stop-color:#ff6666;stop-opacity:1;"/>
<stop offset="1" style="stop-color:#d90000;stop-opacity:1;"/>
</linearGradient>
<filter id="alpha" filterUnits="objectBoundingBox" x="0%" y="0%" width="100%" height="100%">
  <feColorMatrix type="matrix" in="SourceGraphic" values="0 0 0 0 1 0 0 0 0 1 0 0 0 0 1 0 0 0 1 0"/>
</filter>
<mask id="mask0">
  <g filter="url(#alpha)">
<rect x="0" y="0" width="64" height="64" style="fill:rgb(0%,0%,0%);fill-opacity:0.7;stroke:none;"/>
  </g>
</mask>
<linearGradient id="linear1" gradientUnits="userSpaceOnUse" x1="0" y1="0" x2="0" y2="1" gradientTransform="matrix(11.832031,0,0,16.476562,28.457031,8.316406)">
<stop offset="0" style="stop-color:#ff6666;stop-opacity:1;"/>
<stop offset="1" style="stop-color:#d90000;stop-opacity:1;"/>
</linearGradient>
<clipPath id="clip1">
  <rect x="0" y="0" width="64" height="64"/>
</clipPath>
<g id="surface5" clip-path="url(#clip1)">
<path style=" stroke:none;fill-rule:nonzero;fill:url(#linear1);" d="M 36.726562 16.585938 C 35.734375 21.042969 39.386719 25.648438 34.929688 24.65625 C 30.472656 23.664062 27.664062 19.246094 28.65625 14.789062 C 29.648438 10.332031 34.066406 7.523438 38.523438 8.515625 C 42.980469 9.507812 37.71875 12.128906 36.726562 16.585938 Z M 36.726562 16.585938 "/>
</g>
</defs>
<g id="surface1">
<path style=" stroke:none;fill-rule:nonzero;fill:url(#linear0);" d="M 35.820312 4.601562 C 34.175781 4.707031 32.5 5.125 30.859375 5.882812 C 29.523438 6.5 28.277344 7.851562 26.742188 7.304688 C 18.449219 4.34375 11.113281 9.457031 3.242188 9.992188 C 1.132812 10.136719 -0.25 11.445312 0.078125 13.867188 C -0.476562 18.457031 2.09375 21.910156 4.445312 25.351562 C 9.144531 32.230469 15.570312 37.617188 20.859375 43.945312 C 25.179688 49.113281 32.910156 51.886719 34.101562 59.421875 L 37.101562 59.421875 C 40.042969 59.421875 42.671875 59.371094 45.015625 59.234375 C 46.1875 59.164062 47.285156 59.078125 48.320312 58.960938 C 49.355469 58.84375 50.328125 58.703125 51.234375 58.53125 C 52.140625 58.359375 52.980469 58.164062 53.765625 57.929688 C 54.550781 57.695312 55.28125 57.429688 55.953125 57.125 C 56.625 56.820312 57.242188 56.476562 57.8125 56.09375 C 58.382812 55.710938 58.902344 55.277344 59.375 54.804688 C 59.847656 54.332031 60.269531 53.816406 60.65625 53.25 C 61.042969 52.683594 61.390625 52.0625 61.695312 51.390625 C 62 50.71875 62.265625 49.996094 62.5 49.210938 C 62.734375 48.425781 62.929688 47.578125 63.101562 46.671875 C 63.273438 45.765625 63.414062 44.800781 63.53125 43.765625 C 63.648438 42.730469 63.734375 41.632812 63.804688 40.460938 C 63.9375 38.207031 63.988281 35.664062 63.992188 32.859375 C 63.992188 32.816406 63.992188 32.78125 63.992188 32.742188 C 63.996094 32.683594 64 32.632812 64 32.5625 L 64 19.640625 C 61.691406 18.601562 59.367188 17.621094 56.890625 17.015625 C 52.480469 15.933594 49.164062 13.570312 46.476562 9.71875 C 44.304688 6.609375 41.03125 4.835938 37.453125 4.601562 C 36.917969 4.566406 36.367188 4.566406 35.820312 4.601562 Z M 36.726562 6.460938 C 42.316406 6.460938 46.851562 10.996094 46.851562 16.585938 C 46.855469 22.179688 42.320312 26.71875 36.726562 26.71875 C 31.132812 26.71875 26.597656 22.179688 26.601562 16.585938 C 26.601562 10.996094 31.136719 6.460938 36.726562 6.460938 Z M 3.710938 16.078125 C 6.164062 17.460938 8.699219 18.585938 11.484375 19.007812 C 8.699219 18.585938 6.164062 17.460938 3.710938 16.078125 Z M 27.304688 27.210938 C 30.269531 28.710938 33.503906 29.710938 36.851562 30.492188 C 39.054688 31.003906 41.152344 31.730469 43.179688 32.625 C 41.152344 31.734375 39.054688 31.003906 36.851562 30.492188 C 33.503906 29.710938 30.269531 28.710938 27.304688 27.210938 Z M 27.304688 27.210938 "/>
<use xlink:href="#surface5" mask="url(#mask0)"/>
</g>
</svg>
