<svg xmlns="http://www.w3.org/2000/svg" xmlns:xlink="http://www.w3.org/1999/xlink" width="64" height="64" viewBox="0 0 64 64" version="1.1">
<defs>
<linearGradient id="linear0" gradientUnits="userSpaceOnUse" x1="0" y1="0" x2="0" y2="1" gradientTransform="matrix(60.328125,0,0,64,1.835938,0)">
<stop offset="0" style="stop-color:#ff6666;stop-opacity:1;"/>
<stop offset="1" style="stop-color:#d90000;stop-opacity:1;"/>
</linearGradient>
</defs>
<g id="surface1">
<path style=" stroke:none;fill-rule:nonzero;fill:url(#linear0);" d="M 1.835938 0 L 1.835938 60.320312 L 22.257812 60.320312 C 17.550781 57.230469 13.972656 52.695312 12.0625 47.398438 L 6.148438 47.398438 L 6.148438 4.3125 L 57.851562 4.3125 L 57.851562 24.726562 C 60.515625 28.777344 62.070312 33.605469 62.070312 38.78125 C 62.15625 38.78125 62.164062 33.375 62.164062 0 Z M 47.078125 8.617188 C 44.078125 8.617188 41.578125 10.671875 40.851562 13.445312 C 45.160156 14.222656 49.121094 16.074219 52.414062 18.726562 C 53.765625 16.746094 53.914062 14.183594 52.792969 12.0625 C 51.675781 9.945312 49.476562 8.617188 47.078125 8.617188 Z M 36.304688 17.234375 C 24.433594 17.234375 14.765625 26.910156 14.765625 38.78125 C 14.765625 50.652344 24.433594 60.320312 36.304688 60.320312 C 41.464844 60.320312 46.144531 58.414062 49.859375 55.375 L 58.484375 64 L 61.53125 60.953125 L 52.90625 52.328125 C 55.945312 48.613281 57.851562 43.9375 57.851562 38.78125 C 57.851562 26.910156 48.175781 17.234375 36.304688 17.234375 Z M 35.875 21.71875 C 36.019531 21.71875 36.160156 21.71875 36.304688 21.71875 C 40.832031 21.710938 45.175781 23.507812 48.378906 26.707031 C 51.578125 29.910156 53.375 34.253906 53.367188 38.78125 C 53.371094 43.308594 51.574219 47.648438 48.375 50.847656 C 45.171875 54.046875 40.832031 55.84375 36.304688 55.835938 C 31.78125 55.839844 27.4375 54.046875 24.238281 50.847656 C 21.039062 47.648438 19.246094 43.304688 19.25 38.78125 C 19.234375 29.519531 26.617188 21.941406 35.875 21.71875 Z M 35.445312 26.023438 C 34.332031 26.09375 33.234375 26.3125 32.179688 26.664062 L 29.84375 30.164062 L 28.773438 28.375 C 25.425781 30.78125 23.449219 34.660156 23.46875 38.78125 C 23.46875 40.304688 23.777344 41.738281 24.25 43.085938 L 44.929688 43.085938 Z M 10.828125 42.40625 L 10.453125 43.085938 L 10.9375 43.085938 C 10.898438 42.859375 10.863281 42.632812 10.828125 42.40625 Z M 26.796875 47.398438 C 29.136719 49.984375 32.492188 51.617188 36.304688 51.617188 C 40.117188 51.617188 43.480469 49.984375 45.820312 47.398438 Z M 26.796875 47.398438 "/>
</g>
</svg>
