<svg xmlns="http://www.w3.org/2000/svg" xmlns:xlink="http://www.w3.org/1999/xlink" width="64" height="64" viewBox="0 0 64 64" version="1.1">
<defs> <linearGradient id="linear0" gradientUnits="userSpaceOnUse" x1="0" y1="0" x2="0" y2="1" gradientTransform="matrix(55.992188,0,0,56,4.003906,4)"> <stop offset="0" style="stop-color:#ff6666;stop-opacity:1;"/> <stop offset="1" style="stop-color:#d90000;stop-opacity:1;"/> </linearGradient> </defs>
<g id="surface1">
<path style=" stroke:none;fill-rule:nonzero;fill:url(#linear0);fill-opacity:1;" d="M 1.859375 20.25 L 1.859375 44.09375 L 7.738281 44.09375 L 7.738281 20.25 Z M 10.65625 20.25 L 10.65625 44.09375 L 15.949219 44.09375 L 15.949219 30.707031 L 18.425781 44.09375 L 22.066406 44.09375 L 24.484375 30.707031 L 24.484375 44.09375 L 29.496094 44.09375 L 29.496094 20.25 L 21.542969 20.25 L 20.175781 31.496094 L 18.203125 20.25 L 10.65625 20.25 M 32.59375 20.25 L 32.59375 44.09375 L 39.1875 44.09375 C 42.9375 44.09375 44.199219 43.6875 45.25 42.863281 C 46.292969 42.035156 46.816406 40.871094 46.816406 39.390625 L 46.816406 24.957031 C 46.816406 23.363281 46.253906 22.175781 45.132812 21.410156 C 44.023438 20.636719 43.074219 20.25 39.167969 20.25 L 32.59375 20.25 M 48.691406 20.25 L 48.691406 44.09375 L 53.535156 44.09375 C 53.535156 44.09375 53.910156 42.679688 54.316406 42.863281 C 54.726562 43.039062 56.8125 43.902344 58.242188 43.902344 C 59.679688 43.902344 60.257812 43.8125 60.957031 43.519531 C 61.8125 42.953125 62.246094 42.183594 62.246094 41.203125 L 62.246094 27.339844 C 62.394531 25.339844 60.253906 24.132812 58.621094 24.058594 C 56.980469 23.984375 55.300781 25.035156 54.691406 25.714844 L 54.691406 20.25 L 48.691406 20.25 M 38.636719 24.050781 C 39.550781 24.046875 40.519531 24.097656 40.519531 25.117188 L 40.519531 39.09375 C 40.519531 40.226562 39.25 40.074219 38.25 40.074219 L 38.25 24.058594 C 38.375 24.058594 38.507812 24.050781 38.636719 24.050781 M 55.523438 27.09375 C 56.066406 27.09375 56.339844 27.390625 56.339844 27.972656 L 56.339844 39.988281 C 56.339844 40.570312 56.0625 40.980469 55.523438 40.980469 C 54.964844 40.980469 54.6875 40.570312 54.6875 39.984375 L 54.6875 27.941406 C 54.6875 27.378906 54.960938 27.09375 55.523438 27.09375 "/>
</g>
</svg>
