<svg xmlns="http://www.w3.org/2000/svg" xmlns:xlink="http://www.w3.org/1999/xlink" width="64px" height="64px" viewBox="0 0 64 64" version="1.1">
<defs>
<linearGradient id="linear0" gradientUnits="userSpaceOnUse" x1="0" y1="128" x2="128" y2="0" gradientTransform="matrix(0.432432,0,0,0.432432,4.324324,4.324324)">
<stop offset="0" style="stop-color:#ff6666;stop-opacity:1;"/>
<stop offset="1" style="stop-color:#d90000;stop-opacity:1;"/>
</linearGradient>
</defs>
<g id="surface1">
<path style=" stroke:none;fill-rule:nonzero;fill:url(#linear0);" d="M 32.042969 9.371094 C 32.058594 9.371094 32.074219 9.371094 32.085938 9.371094 C 32.335938 9.351562 32.582031 9.53125 32.636719 9.765625 L 35.085938 18.722656 C 35.167969 19.035156 34.902344 19.382812 34.582031 19.386719 L 33.367188 19.386719 L 33.367188 31.605469 C 35.398438 31.578125 36.519531 31.023438 37.25 30.015625 C 37.917969 29.089844 38.257812 27.511719 38.308594 25.492188 L 37.40625 25.492188 C 37.125 25.496094 36.875 25.242188 36.875 24.964844 L 36.875 20.640625 C 36.875 20.363281 37.125 20.113281 37.40625 20.113281 L 41.726562 20.113281 C 42.003906 20.113281 42.257812 20.363281 42.257812 20.640625 L 42.257812 24.964844 C 42.257812 25.242188 42.003906 25.496094 41.726562 25.492188 L 40.820312 25.492188 C 40.785156 27.855469 40.386719 29.925781 39.257812 31.492188 C 38.039062 33.183594 35.988281 34.015625 33.367188 34.074219 L 33.367188 48.277344 C 34.566406 48.777344 35.4375 49.917969 35.4375 51.300781 C 35.4375 53.125 33.960938 54.632812 32.132812 54.632812 C 30.300781 54.632812 28.78125 53.136719 28.78125 51.300781 C 28.78125 49.914062 29.664062 48.773438 30.875 48.277344 L 30.875 39.941406 C 28.253906 39.882812 26.207031 39.027344 24.988281 37.335938 C 24 35.972656 23.5625 34.222656 23.441406 32.242188 C 22.453125 31.78125 21.742188 30.8125 21.742188 29.640625 C 21.742188 28.027344 23.0625 26.707031 24.675781 26.707031 C 26.289062 26.707031 27.613281 28.027344 27.613281 29.640625 C 27.613281 30.777344 26.921875 31.703125 25.980469 32.175781 C 26.097656 33.804688 26.421875 35.089844 26.992188 35.882812 C 27.71875 36.886719 28.839844 37.425781 30.875 37.449219 L 30.875 19.386719 L 29.664062 19.386719 C 29.339844 19.382812 29.074219 19.035156 29.15625 18.722656 L 31.625 9.765625 C 31.671875 9.570312 31.84375 9.410156 32.042969 9.371094 Z M 32.042969 9.371094 "/>
</g>
</svg>
