<svg xmlns="http://www.w3.org/2000/svg" xmlns:xlink="http://www.w3.org/1999/xlink" width="64" height="64" viewBox="0 0 64 64" version="1.1">
<defs>
<linearGradient id="linear0" gradientUnits="userSpaceOnUse" x1="0" y1="0" x2="0" y2="1" gradientTransform="matrix(30.3125,0,0,60,16.84375,2)">
<stop offset="0" style="stop-color:#ff6666;stop-opacity:1;"/>
<stop offset="1" style="stop-color:#d90000;stop-opacity:1;"/>
</linearGradient>
</defs>
<g id="surface1">
<path style=" stroke:none;fill-rule:evenodd;fill:url(#linear0);" d="M 33.328125 9.328125 C 33.328125 5.296875 36.808594 2 40.835938 2 C 44.5 2 47.15625 4.472656 47.15625 8.226562 C 47.15625 12.445312 43.675781 15.558594 39.554688 15.558594 C 35.800781 15.554688 33.328125 13.085938 33.328125 9.328125 Z M 28.378906 27.371094 C 29.023438 25.722656 28.199219 24.898438 27.464844 24.898438 C 24.074219 24.898438 19.679688 32.871094 18.035156 32.871094 C 17.390625 32.871094 16.84375 32.226562 16.84375 31.679688 C 16.84375 30.027344 20.871094 26.183594 22.0625 24.992188 C 25.726562 21.511719 30.488281 18.855469 35.800781 18.855469 C 39.738281 18.855469 43.953125 21.234375 40.65625 30.125 L 34.058594 47.984375 C 33.511719 49.359375 32.503906 51.652344 32.503906 53.117188 C 32.503906 53.757812 32.867188 54.394531 33.601562 54.394531 C 36.347656 54.394531 41.386719 46.613281 42.671875 46.613281 C 43.128906 46.613281 43.769531 47.160156 43.769531 47.984375 C 43.769531 50.640625 33.050781 62 23.804688 62 C 20.503906 62 18.214844 60.445312 18.214844 56.964844 C 18.214844 52.566406 21.328125 45.054688 21.972656 43.496094 C 21.972656 43.496094 28.378906 27.371094 28.378906 27.371094 Z M 28.378906 27.371094 "/>
</g>
</svg>
