<svg xmlns="http://www.w3.org/2000/svg" xmlns:xlink="http://www.w3.org/1999/xlink" width="64" height="64" viewBox="0 0 64 64" version="1.1">
<defs> <linearGradient id="linear0" gradientUnits="userSpaceOnUse" x1="0" y1="0" x2="0" y2="1" gradientTransform="matrix(55.992188,0,0,56,4.003906,4)"> <stop offset="0" style="stop-color:#ff6666;stop-opacity:1;"/> <stop offset="1" style="stop-color:#d90000;stop-opacity:1;"/> </linearGradient> </defs>
<g id="surface1">
<path style=" stroke:none;fill-rule:nonzero;fill:url(#linear0);fill-opacity:1;" d="M 32.636719 1.742188 C 30.753906 1.742188 28.902344 2.421875 27.570312 3.777344 L 5.125 26.675781 C -3.375 35.132812 10.628906 34.429688 15.695312 37.636719 C 18.039062 39.152344 8.175781 41.101562 10.191406 43.109375 C 12.152344 45.117188 22.011719 46.96875 23.976562 48.917969 C 25.933594 50.925781 20 53.042969 21.957031 55.050781 C 23.867188 57.050781 28.445312 55.15625 29.261719 59.710938 C 29.859375 63.074219 37.644531 61.398438 41.132812 58.523438 C 43.3125 56.679688 37.382812 56.671875 39.34375 54.664062 C 44.25 49.726562 48.605469 52.441406 50.40625 47.882812 C 51.382812 45.441406 42.988281 43.710938 45.21875 42.136719 C 50.558594 38.394531 70.171875 36.488281 61.125 27.484375 L 37.859375 3.777344 C 36.417969 2.421875 34.515625 1.742188 32.636719 1.742188 M 32.71875 4.613281 C 33.953125 4.621094 35.183594 5.085938 36.082031 5.976562 L 44.230469 14.238281 C 44.980469 14.988281 44.980469 16.535156 44.53125 16.984375 L 40.484375 13.695312 L 39.683594 18.527344 L 36.339844 16.738281 L 30.886719 20.167969 L 29.082031 12.949219 L 26.183594 19.222656 L 18.9375 19.171875 C 17.539062 19.171875 17.734375 17.730469 19.1875 16.28125 C 22.03125 13.148438 27.585938 7.820312 29.335938 5.976562 C 30.183594 5.117188 31.324219 4.664062 32.480469 4.621094 C 32.5625 4.613281 32.640625 4.613281 32.71875 4.613281 M 22.175781 38.878906 C 22.664062 38.878906 38.949219 41.046875 32.6875 42.730469 C 30.289062 43.375 19.285156 38.878906 22.175781 38.878906 M 58.34375 47.148438 C 56.363281 47.15625 54.3125 48.167969 52.972656 51.046875 C 56.777344 53.15625 61.699219 53.453125 64.035156 50.65625 C 63.625 49.050781 61.054688 47.148438 58.34375 47.148438 M 15.3125 51.988281 C 14.046875 52.035156 11.492188 52.515625 11.117188 53.765625 C 10.511719 56.226562 15.222656 56.957031 16.75 53.933594 C 17.25 53.023438 17.199219 53.246094 17.308594 52.859375 C 16.9375 52.464844 16.488281 52.074219 15.769531 52 C 15.648438 51.988281 15.496094 51.984375 15.3125 51.988281 M 45.863281 56.332031 C 45.675781 56.332031 45.457031 56.351562 45.214844 56.382812 C 44.367188 56.378906 43.890625 57.519531 43.890625 57.519531 C 43.726562 58.238281 43.589844 59.105469 44.0625 59.957031 C 44.691406 61.070312 46.132812 61.585938 48.054688 60.964844 C 49.183594 59.640625 49.054688 59.132812 48.042969 57.859375 C 47.378906 57.027344 47.203125 56.320312 45.863281 56.332031 "/>
</g>
</svg>
