<svg xmlns="http://www.w3.org/2000/svg" xmlns:xlink="http://www.w3.org/1999/xlink" width="64" height="64" viewBox="0 0 64 64" version="1.1">
<defs>
<linearGradient id="linear0" gradientUnits="userSpaceOnUse" x1="0" y1="0" x2="0" y2="1" gradientTransform="matrix(64,0,0,63.785156,-0.0195312,0.109375)">
<stop offset="0" style="stop-color:#ff6666;stop-opacity:1;"/>
<stop offset="1" style="stop-color:#d90000;stop-opacity:1;"/>
</linearGradient>
</defs>
<g id="surface1">
<path style=" stroke:none;fill-rule:evenodd;fill:url(#linear0);" d="M 31.980469 0.109375 C 30.15625 0.109375 28.378906 0.792969 26.980469 2.234375 L 2.105469 27.875 C 0.738281 29.289062 0.0078125 31.15625 -0.0195312 33 C -0.0195312 33.03125 -0.0195312 33.097656 -0.0195312 33.125 C -0.0195312 38.621094 14.65625 33.289062 15.980469 40.003906 C 16.699219 43.640625 7.980469 41.976562 7.980469 45.632812 C 7.980469 49.925781 20.320312 46.972656 23.855469 50.511719 C 25.308594 54.046875 19.132812 53.476562 20.230469 56.765625 C 22.304688 58.902344 26.960938 57.691406 27.855469 61.140625 C 28.878906 65.085938 35.574219 64.40625 39.480469 61.515625 C 41.550781 59.378906 36.285156 58.402344 38.355469 56.261719 C 40.425781 54.125 50.65625 54.558594 50.730469 49.886719 C 49.753906 46.949219 45.914062 46.476562 45.855469 43.007812 C 45.648438 40.066406 49 40.925781 59.605469 38.003906 C 63.847656 36.015625 63.996094 34.957031 63.980469 33.125 C 63.980469 33.089844 63.980469 33.039062 63.980469 33 C 63.957031 31.152344 63.101562 29.289062 61.730469 27.875 L 36.980469 2.234375 C 35.582031 0.789062 33.804688 0.109375 31.980469 0.109375 Z M 32.480469 5.488281 C 34.359375 5.503906 39.511719 11.859375 44.105469 16.617188 C 45.398438 18.347656 43.605469 20.121094 43.605469 20.121094 L 33.980469 14.867188 L 29.730469 20.621094 L 25.980469 14.992188 L 23.730469 23.746094 L 17.105469 19.746094 L 18.855469 17.492188 L 29.230469 6.863281 C 30.027344 6.054688 30.636719 5.472656 32.480469 5.488281 Z M 60.980469 44.007812 C 60.476562 43.992188 59.964844 44.03125 59.605469 44.132812 C 58.929688 44.328125 55.714844 44.441406 55.980469 46.882812 C 58.890625 48.105469 63.328125 49.074219 63.855469 46.632812 C 64.253906 44.804688 62.496094 44.0625 60.980469 44.007812 Z M 11.355469 52.136719 C 11.074219 52.167969 10.882812 52.28125 10.605469 52.386719 C 8.398438 53.226562 6.921875 54.992188 8.980469 55.765625 C 11.042969 56.535156 12.425781 55.71875 14.230469 54.761719 C 16.039062 53.804688 15.988281 53.632812 15.855469 53.261719 C 15.605469 53.3125 13.960938 52.289062 12.230469 52.136719 C 11.945312 52.113281 11.640625 52.105469 11.355469 52.136719 Z M 11.355469 52.136719 "/>
</g>
</svg>
