<svg xmlns="http://www.w3.org/2000/svg" xmlns:xlink="http://www.w3.org/1999/xlink" width="64" height="64" viewBox="0 0 64 64" version="1.1">
<defs>
<linearGradient id="linear0" gradientUnits="userSpaceOnUse" x1="0" y1="0" x2="0" y2="1" gradientTransform="matrix(64,0,0,60,0,2)">
<stop offset="0" style="stop-color:#ff6666;stop-opacity:1;"/>
<stop offset="1" style="stop-color:#d90000;stop-opacity:1;"/>
</linearGradient>
</defs>
<g id="surface1">
<path style=" stroke:none;fill-rule:nonzero;fill:url(#linear0);" d="M 17.039062 2 C 11.671875 2.0625 7.742188 1.867188 4.53125 3.648438 C 2.925781 4.539062 1.664062 6.050781 0.960938 7.929688 C 0.257812 9.808594 0 12.042969 0 14.859375 L 0 49.140625 C 0 51.957031 0.257812 54.191406 0.960938 56.070312 C 1.664062 57.949219 2.925781 59.460938 4.53125 60.351562 C 7.742188 62.132812 11.671875 61.9375 17.039062 62 L 46.960938 62 C 52.328125 61.9375 56.257812 62.132812 59.46875 60.351562 C 61.074219 59.460938 62.335938 57.949219 63.039062 56.070312 C 63.742188 54.191406 64 51.957031 64 49.140625 L 64 14.859375 C 64 12.042969 63.742188 9.808594 63.039062 7.929688 C 62.335938 6.050781 61.074219 4.539062 59.46875 3.648438 C 56.257812 1.867188 52.328125 2.0625 46.960938 2 Z M 17.070312 6.289062 L 46.9375 6.289062 C 52.308594 6.351562 55.835938 6.539062 57.398438 7.40625 C 58.179688 7.839844 58.628906 8.316406 59.046875 9.429688 C 59.460938 10.542969 59.734375 12.320312 59.734375 14.859375 L 59.734375 44.859375 L 4.265625 44.859375 L 4.265625 14.859375 C 4.265625 12.320312 4.535156 10.542969 4.953125 9.429688 C 5.371094 8.316406 5.8125 7.839844 6.59375 7.40625 C 8.15625 6.539062 11.699219 6.351562 17.070312 6.289062 Z M 4.265625 49.140625 L 29.867188 49.140625 L 29.867188 57.710938 L 17.070312 57.710938 C 11.699219 57.648438 8.15625 57.460938 6.59375 56.59375 C 5.8125 56.160156 5.371094 55.683594 4.953125 54.570312 C 4.535156 53.457031 4.265625 51.679688 4.265625 49.140625 Z M 34.132812 49.140625 L 59.734375 49.140625 C 59.734375 51.679688 59.464844 53.457031 59.046875 54.570312 C 58.628906 55.683594 58.179688 56.160156 57.398438 56.59375 C 55.835938 57.460938 52.300781 57.648438 46.929688 57.710938 L 34.132812 57.710938 Z M 34.132812 49.140625 "/>
</g>
</svg>
