<svg xmlns="http://www.w3.org/2000/svg" xmlns:xlink="http://www.w3.org/1999/xlink" width="64" height="64" viewBox="0 0 64 64" version="1.1">
<defs>
<linearGradient id="linear0" gradientUnits="userSpaceOnUse" x1="0" y1="0" x2="0" y2="1" gradientTransform="matrix(64,0,0,63.335938,0,0.332031)">
<stop offset="0" style="stop-color:#ff6666;stop-opacity:1;"/>
<stop offset="1" style="stop-color:#d90000;stop-opacity:1;"/>
</linearGradient>
</defs>
<g id="surface1">
<path style=" stroke:none;fill-rule:nonzero;fill:url(#linear0);" d="M 16.953125 63.460938 C 8.148438 62.546875 2.703125 57.984375 0.613281 49.773438 C 0.078125 47.671875 0 45.414062 0 31.980469 C 0 15.164062 0.0976562 14.171875 2.171875 9.761719 C 3.382812 7.1875 6.785156 3.796875 9.425781 2.527344 C 13.796875 0.425781 14.761719 0.332031 32 0.332031 C 49.238281 0.332031 50.203125 0.429688 54.570312 2.527344 C 57.214844 3.800781 60.617188 7.1875 61.828125 9.761719 C 63.902344 14.171875 64 15.164062 64 31.980469 C 64 48.792969 63.902344 49.785156 61.828125 54.195312 C 60.617188 56.765625 57.214844 60.160156 54.578125 61.429688 C 50.460938 63.410156 49.320312 63.53125 33.945312 63.648438 C 26.164062 63.710938 18.519531 63.617188 16.953125 63.460938 Z M 45.929688 57.796875 C 51.429688 57.261719 54.734375 55.394531 56.574219 51.789062 C 58.179688 48.632812 58.335938 46.875 58.335938 31.980469 C 58.335938 17.082031 58.179688 15.324219 56.574219 12.171875 C 54.734375 8.5625 51.429688 6.695312 45.929688 6.160156 C 41.410156 5.722656 22.589844 5.722656 18.070312 6.160156 C 11.039062 6.84375 7.523438 9.707031 6.136719 15.882812 C 5.457031 18.914062 5.457031 45.042969 6.136719 48.074219 C 7.480469 54.058594 11.128906 57.152344 17.578125 57.773438 C 21.789062 58.179688 41.808594 58.199219 45.929688 57.792969 Z M 27.722656 47.738281 C 23.226562 46.5 19.011719 42.984375 17.101562 38.875 C 12.070312 28.074219 20.019531 15.714844 32 15.714844 C 40.109375 15.714844 47.007812 21.601562 48.261719 29.589844 C 49.535156 37.671875 44.234375 45.597656 36.113281 47.757812 C 33.890625 48.351562 29.90625 48.34375 27.722656 47.742188 Z M 36.820312 41.425781 C 40.410156 39.59375 42.613281 36.007812 42.613281 31.980469 C 42.613281 27.960938 40.4375 24.402344 36.820312 22.503906 C 35.265625 21.6875 34.578125 21.554688 32 21.554688 C 29.421875 21.554688 28.734375 21.683594 27.179688 22.503906 C 24.925781 23.6875 22.679688 26.195312 21.945312 28.347656 C 19.949219 34.210938 23.097656 40.28125 29.171875 42.28125 C 30.910156 42.851562 34.886719 42.410156 36.820312 41.425781 Z M 47.699219 18.386719 C 45.25 17.3125 44.664062 14.46875 46.472656 12.441406 C 47.972656 10.765625 50.339844 10.765625 51.835938 12.441406 C 54.542969 15.472656 51.386719 20.007812 47.699219 18.386719 Z M 47.699219 18.386719 "/>
</g>
</svg>
