<svg xmlns="http://www.w3.org/2000/svg" xmlns:xlink="http://www.w3.org/1999/xlink" width="64" height="64" viewBox="0 0 64 64" version="1.1">
<defs>
<linearGradient id="linear0" gradientUnits="userSpaceOnUse" x1="0" y1="0" x2="0" y2="1" gradientTransform="matrix(97.407029,0,0,90.635879,-16.832449,-13.558959)">
<stop offset="0" style="stop-color:#ff6666;stop-opacity:1;"/>
<stop offset="1" style="stop-color:#d90000;stop-opacity:1;"/>
</linearGradient>
<linearGradient id="linear1" gradientUnits="userSpaceOnUse" x1="0" y1="0" x2="0" y2="1" gradientTransform="matrix(97.407029,0,0,90.635879,-16.832449,-13.558959)">
<stop offset="0" style="stop-color:#ff6666;stop-opacity:1;"/>
<stop offset="1" style="stop-color:#d90000;stop-opacity:1;"/>
</linearGradient>
</defs>
<g id="surface1">
<path style=" stroke:none;fill-rule:nonzero;fill:url(#linear0);" d="M 7.519531 7.214844 L 7.519531 16.855469 C 7.519531 17.34375 7.90625 17.734375 8.390625 17.734375 C 8.871094 17.734375 9.257812 17.34375 9.257812 16.855469 L 9.257812 8.964844 L 17.085938 8.964844 C 17.570312 8.964844 17.957031 8.574219 17.957031 8.089844 C 17.957031 7.605469 17.570312 7.214844 17.085938 7.214844 Z M 46.65625 7.214844 C 46.171875 7.214844 45.785156 7.605469 45.785156 8.089844 C 45.785156 8.574219 46.171875 8.964844 46.65625 8.964844 L 54.484375 8.964844 L 54.484375 16.855469 C 54.484375 17.34375 54.871094 17.734375 55.351562 17.734375 C 55.835938 17.734375 56.222656 17.34375 56.222656 16.855469 L 56.222656 7.214844 Z M 55.351562 45.785156 C 54.871094 45.785156 54.484375 46.175781 54.484375 46.660156 L 54.484375 54.550781 L 46.65625 54.550781 C 46.171875 54.550781 45.785156 54.941406 45.785156 55.429688 C 45.785156 55.914062 46.171875 56.304688 46.65625 56.304688 L 56.222656 56.304688 L 56.222656 46.660156 C 56.222656 46.175781 55.835938 45.785156 55.351562 45.785156 Z M 8.390625 45.785156 C 7.90625 45.785156 7.519531 46.175781 7.519531 46.660156 L 7.519531 56.304688 L 17.085938 56.304688 C 17.570312 56.304688 17.957031 55.914062 17.957031 55.429688 C 17.957031 54.941406 17.570312 54.550781 17.085938 54.550781 L 9.257812 54.550781 L 9.257812 46.660156 C 9.257812 46.175781 8.871094 45.785156 8.390625 45.785156 Z M 8.390625 45.785156 "/>
<path style=" stroke:none;fill-rule:nonzero;fill:url(#linear1);" d="M 28.390625 22.992188 C 26.460938 22.992188 24.914062 24.554688 24.914062 26.5 L 24.914062 37.019531 C 24.914062 38.964844 26.460938 40.523438 28.390625 40.523438 L 42.308594 40.523438 C 44.238281 40.523438 45.785156 38.964844 45.785156 37.019531 L 45.785156 26.5 C 45.785156 24.554688 44.238281 22.992188 42.308594 22.992188 Z M 24.914062 31.757812 L 19.695312 24.746094 L 17.957031 24.746094 L 17.957031 38.773438 L 19.695312 38.773438 Z M 35.246094 24.746094 C 35.28125 24.746094 35.316406 24.746094 35.351562 24.746094 C 39.195312 24.746094 42.308594 27.882812 42.308594 31.757812 C 42.308594 35.636719 39.195312 38.773438 35.351562 38.773438 C 31.503906 38.773438 28.390625 35.636719 28.390625 31.757812 C 28.390625 27.921875 31.441406 24.800781 35.246094 24.746094 Z M 35.261719 28.253906 C 33.378906 28.300781 31.871094 29.855469 31.871094 31.757812 C 31.871094 33.695312 33.425781 35.265625 35.351562 35.265625 C 37.273438 35.265625 38.828125 33.695312 38.828125 31.757812 C 38.828125 29.820312 37.273438 28.253906 35.351562 28.253906 C 35.324219 28.253906 35.296875 28.253906 35.261719 28.253906 Z M 35.261719 28.253906 "/>
</g>
</svg>
