<svg xmlns="http://www.w3.org/2000/svg" xmlns:xlink="http://www.w3.org/1999/xlink" width="64" height="64" viewBox="0 0 64 64" version="1.1">
<defs>
<linearGradient id="linear0" gradientUnits="userSpaceOnUse" x1="0" y1="0" x2="0" y2="1" gradientTransform="matrix(56,0,0,51.695312,4,6.152344)">
<stop offset="0" style="stop-color:#ff6666;stop-opacity:1;"/>
<stop offset="1" style="stop-color:#d90000;stop-opacity:1;"/>
</linearGradient>
</defs>
<g id="surface1">
<path style=" stroke:none;fill-rule:nonzero;fill:url(#linear0);" d="M 11 14.996094 C 7.246094 19.632812 5 25.542969 5 32 C 5 38.457031 7.246094 44.367188 11 49.003906 Z M 11 14.996094 "/>
<path style=" stroke:none;fill-rule:nonzero;fill:url(#linear0);" d="M 9.550781 37.316406 L 11.800781 37.316406 L 11.800781 42.566406 L 9.550781 42.566406 Z M 9.550781 22.558594 L 11.800781 22.558594 L 11.800781 27.808594 L 9.550781 27.808594 Z M 9.550781 22.558594 "/>
<path style=" stroke:none;fill-rule:nonzero;fill:url(#linear0);" d="M 32 24.863281 C 28.058594 24.863281 24.863281 28.058594 24.863281 32 C 24.863281 35.941406 28.058594 39.136719 32 39.136719 C 35.941406 39.136719 39.136719 35.941406 39.136719 32 C 39.136719 28.058594 35.941406 24.863281 32 24.863281 Z M 32 24.863281 "/>
<path style=" stroke:none;fill-rule:nonzero;fill:url(#linear0);" d="M 45.515625 18.503906 L 18.484375 45.496094 M 43.835938 16.820312 L 16.804688 43.8125 C 15.875 44.738281 15.875 46.246094 16.804688 47.171875 C 17.730469 48.101562 19.234375 48.105469 20.164062 47.175781 L 47.195312 20.1875 C 48.125 19.257812 48.125 17.753906 47.195312 16.824219 C 46.269531 15.898438 44.765625 15.894531 43.835938 16.820312 Z M 18.484375 18.503906 L 45.515625 45.496094 "/>
<path style=" stroke:none;fill-rule:nonzero;fill:url(#linear0);" d="M 18.480469 16.128906 C 17.851562 16.128906 17.246094 16.378906 16.800781 16.824219 C 15.875 17.753906 15.875 19.261719 16.804688 20.1875 L 43.835938 47.179688 C 44.765625 48.105469 46.269531 48.105469 47.195312 47.175781 C 48.125 46.246094 48.125 44.738281 47.195312 43.8125 L 20.164062 16.820312 C 19.71875 16.378906 19.113281 16.128906 18.480469 16.128906 Z M 18.480469 16.128906 "/>
<path style=" stroke:none;fill-rule:nonzero;fill:url(#linear0);" d="M 32 26.847656 C 29.152344 26.847656 26.847656 29.152344 26.847656 32 C 26.847656 34.847656 29.152344 37.152344 32 37.152344 C 34.847656 37.152344 37.152344 34.847656 37.152344 32 C 37.152344 29.152344 34.847656 26.847656 32 26.847656 Z M 32 26.847656 "/>
<path style=" stroke:none;fill-rule:nonzero;fill:url(#linear0);" d="M 10.675781 36.191406 C 10.054688 36.191406 9.550781 36.359375 9.550781 36.566406 L 9.550781 41.816406 L 11.800781 41.816406 L 11.800781 36.566406 C 11.800781 36.359375 11.296875 36.191406 10.675781 36.191406 Z M 10.675781 36.191406 "/>
<path style=" stroke:none;fill-rule:nonzero;fill:url(#linear0);" d="M 10.675781 41.441406 C 10.054688 41.441406 9.550781 41.609375 9.550781 41.816406 C 9.550781 42.023438 10.054688 42.191406 10.675781 42.191406 C 10.804688 42.191406 10.929688 42.183594 11.050781 42.167969 L 11.050781 41.816406 L 11.800781 41.816406 C 11.800781 41.609375 11.296875 41.441406 10.675781 41.441406 Z M 10.675781 38.441406 C 10.054688 38.441406 9.550781 38.609375 9.550781 38.816406 L 9.550781 39.566406 C 9.550781 39.359375 10.054688 39.191406 10.675781 39.191406 C 11.296875 39.191406 11.800781 39.359375 11.800781 39.566406 L 11.800781 38.816406 C 11.800781 38.609375 11.296875 38.441406 10.675781 38.441406 Z M 11.125 39.53125 Z M 11.125 39.53125 "/>
<path style=" stroke:none;fill-rule:nonzero;fill:url(#linear0);" d="M 10.675781 21.433594 C 10.054688 21.433594 9.550781 21.601562 9.550781 21.808594 L 9.550781 27.058594 L 11.800781 27.058594 L 11.800781 21.808594 C 11.800781 21.601562 11.296875 21.433594 10.675781 21.433594 Z M 10.675781 21.433594 "/>
<path style=" stroke:none;fill-rule:nonzero;fill:url(#linear0);" d="M 10.675781 26.683594 C 10.054688 26.683594 9.550781 26.855469 9.550781 27.058594 C 9.550781 27.265625 10.054688 27.433594 10.675781 27.433594 C 10.804688 27.433594 10.929688 27.429688 11.050781 27.414062 L 11.050781 27.058594 L 11.800781 27.058594 C 11.800781 26.851562 11.296875 26.683594 10.675781 26.683594 Z M 10.675781 23.683594 C 10.054688 23.683594 9.550781 23.851562 9.550781 24.058594 L 9.550781 24.808594 C 9.550781 24.601562 10.054688 24.433594 10.675781 24.433594 C 11.296875 24.433594 11.800781 24.601562 11.800781 24.808594 L 11.800781 24.058594 C 11.800781 23.851562 11.296875 23.683594 10.675781 23.683594 Z M 11.125 24.777344 Z M 11.125 24.777344 "/>
</g>
</svg>
