<svg xmlns="http://www.w3.org/2000/svg" xmlns:xlink="http://www.w3.org/1999/xlink" width="64" height="64" viewBox="0 0 64 64" version="1.1">
<defs>
<linearGradient id="linear0" gradientUnits="userSpaceOnUse" x1="0" y1="0" x2="0" y2="1" gradientTransform="matrix(64,0,0,42.664062,0,10.667969)">
<stop offset="0" style="stop-color:#ff6666;stop-opacity:1;"/>
<stop offset="1" style="stop-color:#d90000;stop-opacity:1;"/>
</linearGradient>
</defs>
<g id="surface1">
<path style=" stroke:none;fill-rule:evenodd;fill:url(#linear0);" d="M 37.144531 26.667969 L 46.667969 26.667969 L 46.667969 53.332031 L 52 53.332031 L 52 26.667969 L 64 26.667969 L 64 21.332031 L 35.535156 21.332031 C 32.539062 15.027344 26.113281 10.667969 18.667969 10.667969 C 8.355469 10.667969 0 19.023438 0 29.332031 C 0 39.644531 8.355469 48 18.667969 48 C 28.976562 48 37.332031 39.644531 37.332031 29.332031 C 37.332031 28.429688 37.269531 27.535156 37.144531 26.667969 Z M 18.667969 16.269531 C 25.882812 16.269531 31.730469 22.117188 31.730469 29.332031 C 31.730469 36.546875 25.882812 42.398438 18.667969 42.398438 C 11.453125 42.398438 5.601562 36.546875 5.601562 29.332031 C 5.601562 22.117188 11.453125 16.269531 18.667969 16.269531 Z M 18.667969 16.269531 "/>
</g>
</svg>
