<svg xmlns="http://www.w3.org/2000/svg" xmlns:xlink="http://www.w3.org/1999/xlink" width="64px" height="64px" viewBox="0 0 64 64" version="1.1">
<defs>
<linearGradient id="linear0" gradientUnits="userSpaceOnUse" x1="0" y1="128" x2="128" y2="0" gradientTransform="matrix(0.432432,0,0,0.432432,4.324324,4.324324)">
<stop offset="0" style="stop-color:#ff6666;stop-opacity:1;"/>
<stop offset="1" style="stop-color:#d90000;stop-opacity:1;"/>
</linearGradient>
</defs>
<g id="surface1">
<path style=" stroke:none;fill-rule:nonzero;fill:url(#linear0);" d="M 22.664062 8.699219 C 20.753906 8.699219 19.207031 10.25 19.207031 12.160156 C 19.207031 14.066406 20.753906 15.605469 22.664062 15.605469 C 22.710938 15.605469 22.75 15.609375 22.792969 15.605469 L 25.3125 20.660156 L 21.09375 20.660156 C 20.164062 20.660156 19.410156 21.414062 19.410156 22.34375 L 19.410156 44.683594 C 19.410156 45.613281 20.164062 46.355469 21.09375 46.355469 L 23.242188 46.355469 L 23.242188 54.378906 C 23.242188 54.710938 23.335938 55.011719 23.484375 55.175781 C 23.632812 55.339844 23.8125 55.339844 23.960938 55.175781 L 31.886719 46.355469 L 43.113281 46.355469 C 44.039062 46.355469 44.792969 45.613281 44.792969 44.683594 L 44.792969 22.34375 C 44.792969 21.414062 44.039062 20.660156 43.113281 20.660156 L 38.3125 20.660156 L 39.921875 18.527344 C 40.140625 18.574219 40.378906 18.601562 40.613281 18.601562 C 42.355469 18.601562 43.753906 17.1875 43.753906 15.453125 C 43.753906 13.710938 42.355469 12.3125 40.613281 12.3125 C 38.878906 12.3125 37.464844 13.710938 37.464844 15.453125 C 37.464844 16.199219 37.722656 16.890625 38.160156 17.433594 L 35.742188 20.660156 L 27.628906 20.660156 L 24.761719 14.898438 C 25.585938 14.265625 26.121094 13.28125 26.121094 12.160156 C 26.121094 10.25 24.574219 8.699219 22.664062 8.699219 Z M 26.753906 26.28125 C 26.773438 26.277344 26.796875 26.277344 26.816406 26.28125 C 26.941406 26.265625 27.066406 26.304688 27.179688 26.382812 L 36.386719 32.902344 C 36.574219 33.039062 36.6875 33.289062 36.6875 33.558594 C 36.6875 33.828125 36.574219 34.078125 36.386719 34.210938 L 27.179688 40.734375 C 26.988281 40.875 26.746094 40.875 26.554688 40.738281 C 26.359375 40.605469 26.238281 40.351562 26.238281 40.078125 L 26.238281 27.039062 C 26.238281 26.664062 26.453125 26.34375 26.753906 26.28125 Z M 26.753906 26.28125 "/>
</g>
</svg>
