<svg xmlns="http://www.w3.org/2000/svg" xmlns:xlink="http://www.w3.org/1999/xlink" width="64" height="64" viewBox="0 0 64 64" version="1.1">
<defs> <linearGradient id="linear0" gradientUnits="userSpaceOnUse" x1="0" y1="0" x2="0" y2="1" gradientTransform="matrix(55.992188,0,0,56,4.003906,4)"> <stop offset="0" style="stop-color:#ff6666;stop-opacity:1;"/> <stop offset="1" style="stop-color:#d90000;stop-opacity:1;"/> </linearGradient> </defs>
<g id="surface1">
<path style=" stroke:none;fill-rule:nonzero;fill:url(#linear0);fill-opacity:1;" d="M 29.308594 4.152344 L 29.25 4.296875 L 17.359375 33.246094 L 17.238281 33.542969 L 17.546875 33.570312 L 28.160156 35.050781 L 20.390625 63.128906 L 20.785156 63.335938 L 51.648438 26.066406 L 51.972656 25.6875 L 34.507812 25.6875 L 52.539062 4.53125 L 52.859375 4.152344 L 29.308594 4.152344 M 23.871094 10.0625 C 15.523438 13.085938 9.230469 20.359375 7.628906 29.261719 L 1.140625 29.261719 L 1.140625 39.085938 L 7.800781 39.085938 C 9.304688 46.019531 13.679688 51.894531 19.617188 55.410156 C 19.929688 54.269531 20.238281 53.125 20.550781 51.984375 C 16.023438 49.03125 12.667969 44.457031 11.304688 39.085938 L 24.132812 39.085938 C 24.292969 38.507812 24.457031 37.9375 24.617188 37.359375 C 20.824219 36.820312 17.070312 36.269531 13.246094 35.960938 C 14.160156 33.726562 15.085938 31.496094 16 29.261719 L 11.101562 29.261719 C 12.421875 22.949219 16.484375 17.644531 21.992188 14.628906 C 22.617188 13.109375 23.246094 11.585938 23.871094 10.0625 M 48.167969 13.945312 C 47.429688 14.816406 46.695312 15.6875 45.953125 16.558594 C 49.96875 19.667969 52.859375 24.132812 53.9375 29.261719 L 52.652344 29.261719 C 51.050781 31.1875 49.449219 33.113281 47.84375 35.035156 C 46.746094 36.390625 45.652344 37.738281 44.539062 39.085938 L 53.738281 39.085938 C 51.347656 48.535156 42.75 55.53125 32.515625 55.53125 C 31.964844 55.53125 31.425781 55.496094 30.878906 55.457031 C 30.023438 56.496094 29.183594 57.542969 28.332031 58.589844 C 29.695312 58.816406 31.089844 58.941406 32.515625 58.941406 C 44.644531 58.941406 54.785156 50.433594 57.242188 39.085938 L 62.972656 39.085938 L 62.972656 29.261719 L 57.414062 29.261719 C 56.300781 23.085938 52.921875 17.683594 48.167969 13.953125 "/>
</g>
</svg>
