<svg xmlns="http://www.w3.org/2000/svg" xmlns:xlink="http://www.w3.org/1999/xlink" width="64" height="64" viewBox="0 0 64 64" version="1.1">
<defs>
<linearGradient id="linear0" gradientUnits="userSpaceOnUse" x1="0" y1="0" x2="0" y2="1" gradientTransform="matrix(56,0,0,19.101562,4,22.449219)">
<stop offset="0" style="stop-color:#ff6666;stop-opacity:1;"/>
<stop offset="1" style="stop-color:#d90000;stop-opacity:1;"/>
</linearGradient>
</defs>
<g id="surface1">
<path style=" stroke:none;fill-rule:evenodd;fill:url(#linear0);" d="M 4 39.375 L 8.019531 39.375 L 8.019531 24.625 L 4 24.625 L 4 22.449219 L 14.648438 22.449219 L 14.648438 24.625 L 10.628906 24.625 L 10.628906 39.375 L 14.648438 39.375 L 14.648438 41.550781 L 4 41.550781 Z M 19.453125 22.449219 L 25.050781 22.449219 C 27.175781 22.449219 28.796875 22.929688 29.914062 23.890625 C 30.492188 24.394531 30.910156 25.011719 31.175781 25.734375 C 31.441406 26.453125 31.574219 27.265625 31.574219 28.167969 C 31.574219 30.046875 31.027344 31.464844 29.933594 32.429688 C 28.84375 33.394531 27.21875 33.875 25.050781 33.875 L 22.042969 33.875 L 22.042969 41.550781 L 19.453125 41.550781 Z M 25.050781 31.753906 C 25.691406 31.753906 26.242188 31.667969 26.707031 31.496094 C 27.167969 31.324219 27.554688 31.09375 27.863281 30.804688 C 28.53125 30.171875 28.863281 29.289062 28.863281 28.15625 C 28.863281 27.019531 28.53125 26.136719 27.863281 25.503906 C 27.214844 24.882812 26.277344 24.570312 25.050781 24.570312 L 22.042969 24.570312 L 22.042969 31.753906 Z M 35.421875 24.757812 L 38.796875 24.757812 L 38.796875 25.890625 L 36.882812 25.890625 L 36.882812 38.109375 L 38.796875 38.109375 L 38.796875 39.242188 L 35.421875 39.242188 Z M 45.636719 36.230469 C 45.222656 37.289062 44.820312 37.976562 44.425781 38.300781 C 44.03125 38.621094 43.507812 38.785156 42.847656 38.785156 L 41.679688 38.785156 L 41.679688 37.5625 L 42.535156 37.5625 C 42.941406 37.5625 43.253906 37.46875 43.476562 37.277344 C 43.699219 37.085938 43.949219 36.636719 44.21875 35.929688 L 44.480469 35.265625 L 40.871094 26.519531 L 42.429688 26.519531 L 45.210938 33.46875 L 48 26.519531 L 49.550781 26.519531 Z M 55 24.757812 L 55 39.242188 L 51.625 39.242188 L 51.625 38.109375 L 53.527344 38.109375 L 53.527344 25.890625 L 51.625 25.890625 L 51.625 24.757812 Z M 58.320312 34.183594 L 60 34.183594 L 60 36.199219 L 58.320312 36.199219 Z M 58.320312 27.800781 L 60 27.800781 L 60 29.816406 L 58.320312 29.816406 Z M 58.320312 27.800781 "/>
</g>
</svg>
