<svg xmlns="http://www.w3.org/2000/svg" xmlns:xlink="http://www.w3.org/1999/xlink" width="64" height="64" viewBox="0 0 64 64" version="1.1">
<defs>
<linearGradient id="linear0" gradientUnits="userSpaceOnUse" x1="0" y1="0" x2="0" y2="1" gradientTransform="matrix(17.234375,0,0,34.628906,23.007812,0.199219)">
<stop offset="0" style="stop-color:#ff6666;stop-opacity:1;"/>
<stop offset="1" style="stop-color:#d90000;stop-opacity:1;"/>
</linearGradient>
<linearGradient id="linear1" gradientUnits="userSpaceOnUse" x1="0" y1="0" x2="0" y2="1" gradientTransform="matrix(12.929688,0,0,23.785156,31.34375,13.375)">
<stop offset="0" style="stop-color:#ff6666;stop-opacity:1;"/>
<stop offset="1" style="stop-color:#d90000;stop-opacity:1;"/>
</linearGradient>
<linearGradient id="linear2" gradientUnits="userSpaceOnUse" x1="0" y1="0" x2="0" y2="1" gradientTransform="matrix(31.476562,0,0,7.152344,13.441406,34.558594)">
<stop offset="0" style="stop-color:#ff6666;stop-opacity:1;"/>
<stop offset="1" style="stop-color:#d90000;stop-opacity:1;"/>
</linearGradient>
<linearGradient id="linear3" gradientUnits="userSpaceOnUse" x1="0" y1="0" x2="0" y2="1" gradientTransform="matrix(10.804688,0,0,13.40625,44.78125,33.703125)">
<stop offset="0" style="stop-color:#ff6666;stop-opacity:1;"/>
<stop offset="1" style="stop-color:#d90000;stop-opacity:1;"/>
</linearGradient>
<linearGradient id="linear4" gradientUnits="userSpaceOnUse" x1="0" y1="0" x2="0" y2="1" gradientTransform="matrix(25.214844,0,0,5.886719,17.890625,41.921875)">
<stop offset="0" style="stop-color:#ff6666;stop-opacity:1;"/>
<stop offset="1" style="stop-color:#d90000;stop-opacity:1;"/>
</linearGradient>
<linearGradient id="linear5" gradientUnits="userSpaceOnUse" x1="0" y1="0" x2="0" y2="1" gradientTransform="matrix(22.40625,0,0,6.078125,19.703125,48.609375)">
<stop offset="0" style="stop-color:#ff6666;stop-opacity:1;"/>
<stop offset="1" style="stop-color:#d90000;stop-opacity:1;"/>
</linearGradient>
<linearGradient id="linear6" gradientUnits="userSpaceOnUse" x1="0" y1="0" x2="0" y2="1" gradientTransform="matrix(44.023438,0,0,7.59375,8.414062,53.082031)">
<stop offset="0" style="stop-color:#ff6666;stop-opacity:1;"/>
<stop offset="1" style="stop-color:#d90000;stop-opacity:1;"/>
</linearGradient>
<linearGradient id="linear7" gradientUnits="userSpaceOnUse" x1="0" y1="0" x2="0" y2="1" gradientTransform="matrix(37.566406,0,0,6.933594,17.472656,56.867188)">
<stop offset="0" style="stop-color:#ff6666;stop-opacity:1;"/>
<stop offset="1" style="stop-color:#d90000;stop-opacity:1;"/>
</linearGradient>
</defs>
<g id="surface1">
<path style=" stroke:none;fill-rule:nonzero;fill:url(#linear0);" d="M 31.683594 11.984375 C 28.746094 14.050781 25.414062 16.394531 23.628906 20.269531 C 20.53125 27.03125 29.972656 34.40625 30.378906 34.71875 C 30.472656 34.789062 30.582031 34.828125 30.695312 34.828125 C 30.816406 34.828125 30.933594 34.785156 31.03125 34.703125 C 31.21875 34.546875 31.269531 34.28125 31.15625 34.066406 C 31.125 34 27.734375 27.414062 27.859375 22.691406 C 27.90625 21.046875 30.207031 19.179688 32.644531 17.203125 C 34.875 15.394531 37.40625 13.34375 38.886719 10.945312 C 42.136719 5.664062 38.527344 0.46875 38.488281 0.417969 C 38.34375 0.214844 38.082031 0.144531 37.855469 0.242188 C 37.628906 0.34375 37.503906 0.585938 37.554688 0.828125 C 37.5625 0.863281 38.265625 4.296875 36.308594 7.835938 C 35.503906 9.296875 33.734375 10.542969 31.683594 11.984375 Z M 31.683594 11.984375 "/>
<path style=" stroke:none;fill-rule:nonzero;fill:url(#linear1);" d="M 44.066406 14.3125 C 44.273438 14.15625 44.335938 13.871094 44.210938 13.644531 C 44.085938 13.417969 43.8125 13.316406 43.566406 13.410156 C 43.070312 13.597656 31.34375 18.117188 31.34375 23.582031 C 31.34375 27.34375 32.949219 29.332031 34.125 30.785156 C 34.585938 31.355469 34.984375 31.847656 35.113281 32.269531 C 35.484375 33.476562 34.609375 35.664062 34.242188 36.40625 C 34.136719 36.621094 34.1875 36.878906 34.367188 37.035156 C 34.464844 37.117188 34.585938 37.160156 34.707031 37.160156 C 34.8125 37.160156 34.917969 37.128906 35.007812 37.066406 C 35.207031 36.925781 39.933594 33.585938 39.085938 29.558594 C 38.769531 28.027344 38.019531 26.910156 37.355469 25.925781 C 36.328125 24.394531 35.585938 23.292969 36.710938 21.253906 C 38.03125 18.875 44.007812 14.359375 44.066406 14.3125 Z M 44.066406 14.3125 "/>
<path style=" stroke:none;fill-rule:nonzero;fill:url(#linear2);" d="M 13.542969 37.246094 C 13.34375 37.847656 13.4375 38.445312 13.816406 38.972656 C 15.089844 40.738281 19.589844 41.710938 26.496094 41.710938 C 27.433594 41.710938 28.421875 41.691406 29.433594 41.65625 C 40.472656 41.261719 44.566406 37.820312 44.738281 37.675781 C 44.921875 37.515625 44.96875 37.25 44.855469 37.035156 C 44.742188 36.820312 44.496094 36.714844 44.257812 36.777344 C 40.371094 37.839844 33.109375 38.214844 28.074219 38.214844 C 22.4375 38.214844 19.570312 37.808594 18.867188 37.511719 C 19.226562 37.015625 21.449219 36.132812 24.207031 35.589844 C 24.46875 35.539062 24.648438 35.292969 24.625 35.027344 C 24.597656 34.761719 24.375 34.558594 24.105469 34.558594 C 22.488281 34.558594 14.390625 34.6875 13.542969 37.246094 Z M 13.542969 37.246094 "/>
<path style=" stroke:none;fill-rule:nonzero;fill:url(#linear3);" d="M 50.488281 33.703125 C 48.210938 33.703125 46.050781 34.84375 45.957031 34.894531 C 45.75 35.007812 45.640625 35.246094 45.699219 35.480469 C 45.757812 35.710938 45.964844 35.875 46.203125 35.875 C 46.253906 35.875 51.0625 35.914062 51.496094 38.660156 C 51.882812 41.03125 46.945312 44.875 45.011719 46.152344 C 44.804688 46.292969 44.722656 46.558594 44.820312 46.789062 C 44.902344 46.984375 45.09375 47.109375 45.300781 47.109375 C 45.335938 47.109375 45.371094 47.105469 45.410156 47.097656 C 45.867188 47 56.640625 44.625 55.5 38.355469 C 54.804688 34.511719 52.390625 33.703125 50.488281 33.703125 Z M 50.488281 33.703125 "/>
<path style=" stroke:none;fill-rule:nonzero;fill:url(#linear4);" d="M 43.097656 45.386719 C 43.136719 45.183594 43.054688 44.980469 42.886719 44.863281 L 40.304688 43.054688 C 40.175781 42.964844 40.019531 42.9375 39.871094 42.976562 C 39.84375 42.984375 37.144531 43.695312 33.222656 44.128906 C 31.664062 44.304688 29.921875 44.394531 28.179688 44.394531 C 24.261719 44.394531 21.695312 43.9375 21.324219 43.597656 C 21.273438 43.503906 21.289062 43.460938 21.296875 43.4375 C 21.367188 43.246094 21.730469 43.023438 21.964844 42.933594 C 22.222656 42.839844 22.363281 42.558594 22.28125 42.292969 C 22.203125 42.03125 21.929688 41.875 21.660156 41.9375 C 19.070312 42.5625 17.804688 43.4375 17.894531 44.539062 C 18.058594 46.484375 22.570312 47.484375 26.386719 47.75 C 26.9375 47.789062 27.53125 47.808594 28.152344 47.808594 C 34.496094 47.808594 42.628906 45.816406 42.710938 45.796875 C 42.910156 45.746094 43.0625 45.585938 43.097656 45.386719 Z M 43.097656 45.386719 "/>
<path style=" stroke:none;fill-rule:nonzero;fill:url(#linear5);" d="M 23.628906 49.566406 C 23.824219 49.441406 23.910156 49.199219 23.839844 48.976562 C 23.773438 48.753906 23.5625 48.605469 23.328125 48.609375 C 22.980469 48.617188 19.933594 48.757812 19.71875 50.699219 C 19.652344 51.277344 19.820312 51.808594 20.210938 52.273438 C 21.308594 53.574219 24.265625 54.34375 29.25 54.632812 C 29.839844 54.667969 30.4375 54.6875 31.03125 54.6875 C 37.367188 54.6875 41.636719 52.703125 41.8125 52.617188 C 41.988281 52.535156 42.101562 52.363281 42.109375 52.171875 C 42.121094 51.980469 42.027344 51.800781 41.863281 51.699219 L 38.597656 49.707031 C 38.484375 49.640625 38.351562 49.617188 38.21875 49.644531 C 38.199219 49.648438 36.128906 50.078125 33 50.5 C 32.40625 50.582031 31.667969 50.621094 30.796875 50.621094 C 27.671875 50.621094 24.199219 50.113281 23.53125 49.777344 C 23.523438 49.714844 23.535156 49.636719 23.628906 49.566406 Z M 23.628906 49.566406 "/>
<path style=" stroke:none;fill-rule:nonzero;fill:url(#linear6);" d="M 28.074219 60.675781 C 42.59375 60.664062 50.382812 58.082031 51.882812 56.457031 C 52.414062 55.882812 52.472656 55.339844 52.425781 54.984375 C 52.316406 54.109375 51.519531 53.574219 51.429688 53.515625 C 51.210938 53.375 50.917969 53.414062 50.75 53.609375 C 50.578125 53.804688 50.574219 54.089844 50.746094 54.289062 C 50.835938 54.40625 50.890625 54.601562 50.621094 54.871094 C 50.023438 55.429688 43.96875 57.132812 33.894531 57.644531 C 32.515625 57.714844 31.066406 57.75 29.59375 57.75 C 20.570312 57.75 13.96875 56.515625 13.101562 55.796875 C 13.433594 55.316406 15.769531 54.546875 18.253906 54.113281 C 18.535156 54.066406 18.722656 53.800781 18.679688 53.523438 C 18.636719 53.242188 18.378906 53.046875 18.09375 53.085938 C 18.023438 53.09375 17.785156 53.109375 17.511719 53.125 C 13.414062 53.375 8.679688 53.933594 8.429688 56.042969 C 8.355469 56.6875 8.546875 57.273438 9 57.78125 C 10.105469 59.023438 13.289062 60.675781 28.074219 60.675781 Z M 28.074219 60.675781 "/>
<path style=" stroke:none;fill-rule:nonzero;fill:url(#linear7);" d="M 54.734375 56.917969 C 54.53125 56.820312 54.289062 56.871094 54.132812 57.035156 C 54.113281 57.058594 51.929688 59.339844 45.367188 60.679688 C 42.855469 61.183594 38.140625 61.4375 31.351562 61.4375 C 24.550781 61.4375 18.082031 61.171875 18.015625 61.167969 C 17.746094 61.15625 17.515625 61.351562 17.476562 61.617188 C 17.441406 61.882812 17.613281 62.132812 17.875 62.195312 C 17.941406 62.210938 24.722656 63.800781 33.996094 63.800781 C 38.441406 63.800781 42.769531 63.441406 46.859375 62.726562 C 54.480469 61.390625 55.015625 57.613281 55.035156 57.449219 C 55.058594 57.226562 54.941406 57.011719 54.734375 56.917969 Z M 54.734375 56.917969 "/>
</g>
</svg>
