<svg xmlns="http://www.w3.org/2000/svg" xmlns:xlink="http://www.w3.org/1999/xlink" width="64" height="64" viewBox="0 0 64 64" version="1.1">
<defs> <linearGradient id="linear0" gradientUnits="userSpaceOnUse" x1="0" y1="0" x2="0" y2="1" gradientTransform="matrix(55.992188,0,0,56,4.003906,4)"> <stop offset="0" style="stop-color:#ff6666;stop-opacity:1;"/> <stop offset="1" style="stop-color:#d90000;stop-opacity:1;"/> </linearGradient> </defs>
<g id="surface1">
<path style=" stroke:none;fill-rule:nonzero;fill:url(#linear0);fill-opacity:1;" d="M 33.867188 0.832031 C 43.316406 8.410156 23.140625 7.820312 23.230469 13.515625 C 23.265625 15.355469 23.796875 16.226562 24.457031 16.902344 C 15.042969 17.855469 8.027344 21.601562 8.027344 23.605469 L 8.027344 51.28125 C 8.027344 53.589844 19.609375 58.203125 28.875 58.203125 L 31.1875 58.203125 C 40.074219 58.203125 51.082031 53.964844 51.972656 51.578125 L 51.972656 23.273438 C 51.195312 20.964844 42.796875 17.027344 32.277344 16.757812 C 31.636719 12.175781 41.535156 11.683594 41.175781 8.613281 C 41.035156 6.160156 40.386719 3.660156 33.867188 0.832031 Z M 29.839844 18.59375 C 39.445312 18.59375 47.226562 20.34375 47.226562 22.496094 C 47.226562 24.652344 39.4375 26.398438 29.839844 26.398438 C 20.242188 26.398438 12.457031 24.652344 12.457031 22.496094 C 12.457031 20.34375 20.242188 18.59375 29.839844 18.59375 Z M 29.839844 18.59375 "/>
<path style=" stroke:none;fill-rule:nonzero;fill:url(#linear0);fill-opacity:1;" d="M 52.949219 25.539062 C 52.589844 25.539062 52.226562 25.566406 51.871094 25.625 L 51.871094 29.503906 C 52.226562 29.425781 52.589844 29.378906 52.949219 29.375 C 56.164062 29.375 58.769531 32.367188 58.769531 36.054688 C 58.769531 39.738281 56.164062 42.730469 52.949219 42.730469 C 52.589844 42.726562 52.226562 42.6875 51.871094 42.609375 L 51.871094 46.476562 C 52.226562 46.53125 52.589844 46.5625 52.949219 46.566406 C 58.015625 46.566406 62.113281 41.859375 62.113281 36.054688 C 62.113281 30.246094 58.015625 25.539062 52.949219 25.539062 Z M 52.949219 25.539062 "/>
</g>
</svg>
