<svg xmlns="http://www.w3.org/2000/svg" xmlns:xlink="http://www.w3.org/1999/xlink" width="64" height="64" viewBox="0 0 64 64" version="1.1">
<defs> <linearGradient id="linear0" gradientUnits="userSpaceOnUse" x1="0" y1="0" x2="0" y2="1" gradientTransform="matrix(55.992188,0,0,56,4.003906,4)"> <stop offset="0" style="stop-color:#ff6666;stop-opacity:1;"/> <stop offset="1" style="stop-color:#d90000;stop-opacity:1;"/> </linearGradient> </defs>
<g id="surface1">
<path style=" stroke:none;fill-rule:nonzero;fill:url(#linear0);fill-opacity:1;" d="M 12.007812 41.617188 L 35.867188 41.617188 L 35.867188 46.375 L 12.007812 46.375 Z M 12.007812 41.617188 "/>
<path style=" stroke:none;fill-rule:nonzero;fill:url(#linear0);fill-opacity:1;" d="M 12.292969 11.792969 L 12.292969 37.925781 L 17.070312 37.925781 L 17.070312 28.417969 L 20.886719 28.417969 L 26.609375 37.925781 L 31.378906 37.925781 L 25.417969 28.023438 C 29.097656 27.152344 31.378906 24.746094 31.378906 20.222656 L 31.378906 20.105469 C 31.378906 14.816406 28.789062 11.792969 22.617188 11.792969 Z M 33.765625 11.792969 L 33.765625 37.925781 L 40.925781 37.925781 L 44.636719 37.878906 C 49.253906 37.828125 55.238281 33.214844 55.238281 24.917969 L 55.238281 24.796875 C 55.238281 16.582031 50.257812 11.792969 44.089844 11.792969 Z M 17.070312 16.542969 L 21.839844 16.542969 C 24.707031 16.542969 26.609375 17.46875 26.609375 20.042969 L 26.609375 20.167969 C 26.609375 22.308594 24.707031 23.671875 21.839844 23.667969 L 17.070312 23.667969 Z M 38.535156 16.542969 L 43.3125 16.542969 C 46.179688 16.542969 50.46875 18.957031 50.46875 24.796875 L 50.46875 24.917969 C 50.46875 30.839844 46.179688 33.175781 43.3125 33.175781 L 38.535156 33.175781 Z M 38.535156 16.542969 "/>
</g>
</svg>
