<svg xmlns="http://www.w3.org/2000/svg" xmlns:xlink="http://www.w3.org/1999/xlink" width="64" height="64" viewBox="0 0 64 64" version="1.1">
<defs>
<linearGradient id="linear0" gradientUnits="userSpaceOnUse" x1="0" y1="0" x2="0" y2="1" gradientTransform="matrix(64,0,0,63.882812,0,0.0585938)">
<stop offset="0" style="stop-color:#ff6666;stop-opacity:1;"/>
<stop offset="1" style="stop-color:#d90000;stop-opacity:1;"/>
</linearGradient>
</defs>
<g id="surface1">
<path style=" stroke:none;fill-rule:nonzero;fill:url(#linear0);" d="M 22.355469 0.0585938 L 0 10.640625 L 0 62.34375 C 0 62.644531 0.0898438 62.914062 0.199219 63.140625 C 0.324219 63.402344 0.535156 63.617188 0.800781 63.738281 C 1.023438 63.851562 1.296875 63.941406 1.597656 63.941406 C 1.925781 63.941406 2.195312 63.964844 2.195312 63.640625 L 22.355469 54.355469 L 41.519531 63.941406 L 63.878906 53.355469 L 63.878906 15.433594 L 41.519531 37.792969 L 41.519531 56.957031 L 25.253906 48.570312 L 22.355469 47.371094 L 22.355469 7.152344 L 22.660156 7.046875 L 36.730469 11.839844 L 42.125 6.449219 L 42.519531 6.148438 L 41.519531 6.449219 Z M 56.59375 0.261719 C 56.070312 0.261719 55.621094 0.335938 55.296875 0.65625 L 51.699219 4.253906 L 59.683594 12.238281 L 63.28125 8.644531 C 64.238281 7.683594 64.238281 6.488281 63.28125 5.851562 L 58.089844 0.65625 C 57.644531 0.371094 57.121094 0.230469 56.59375 0.261719 Z M 49.808594 6.148438 L 28.742188 27.207031 L 28.742188 35.191406 L 36.730469 35.191406 L 57.792969 14.132812 Z M 49.808594 6.148438 "/>
</g>
</svg>
