<svg xmlns="http://www.w3.org/2000/svg" xmlns:xlink="http://www.w3.org/1999/xlink" width="64" height="64" viewBox="0 0 64 64" version="1.1">
<defs> <linearGradient id="linear0" gradientUnits="userSpaceOnUse" x1="0" y1="0" x2="0" y2="1" gradientTransform="matrix(55.992188,0,0,56,4.003906,4)"> <stop offset="0" style="stop-color:#ff6666;stop-opacity:1;"/> <stop offset="1" style="stop-color:#d90000;stop-opacity:1;"/> </linearGradient> </defs>
<g id="surface1">
<path style=" stroke:none;fill-rule:nonzero;fill:url(#linear0);fill-opacity:1;" d="M 48.117188 33.011719 C 46.578125 31.136719 44.613281 29.722656 42.4375 28.710938 C 41.339844 28.207031 40.1875 27.796875 38.882812 27.535156 C 38.371094 27.441406 37.886719 27.382812 37.417969 27.355469 L 37.28125 21.777344 L 37.28125 21.34375 C 37.46875 21.234375 37.65625 21.128906 37.84375 21.027344 C 39.71875 19.945312 41.5 18.828125 43.253906 17.480469 C 44.988281 16.140625 46.730469 14.613281 48.035156 12.453125 C 49.324219 10.265625 49.871094 7.667969 49.042969 4.964844 C 48.253906 2.300781 45.417969 -0.179688 41.902344 -0.261719 C 40.175781 -0.324219 38.445312 0.253906 37.191406 1.171875 C 36.554688 1.621094 36.03125 2.136719 35.601562 2.691406 C 35.289062 3.109375 35.019531 3.382812 34.675781 3.917969 C 33.242188 6.007812 32.578125 8.109375 32.253906 10.230469 C 31.941406 12.316406 31.9375 14.3125 32.035156 16.230469 L 32.078125 17.316406 C 29.324219 18.714844 26.410156 20.160156 23.621094 21.925781 C 21.800781 23.066406 19.992188 24.351562 18.335938 25.945312 C 16.6875 27.519531 15.179688 29.46875 14.316406 31.765625 C 13.453125 34.066406 13.269531 36.527344 13.785156 38.875 C 14.207031 41.007812 15.148438 43.21875 16.53125 45.136719 C 19.300781 49.066406 23.921875 51.589844 28.609375 52.554688 C 30.171875 52.859375 31.75 53.042969 33.339844 53.070312 L 33.425781 55.585938 C 33.429688 55.671875 33.4375 55.765625 33.449219 55.859375 C 33.480469 56.066406 33.511719 56.46875 33.511719 56.769531 C 33.511719 57.101562 33.5 57.425781 33.464844 57.742188 C 33.394531 58.367188 33.238281 58.945312 33.015625 59.371094 C 32.789062 59.792969 32.550781 60.007812 32.265625 60.160156 C 32.117188 60.230469 31.929688 60.285156 31.710938 60.324219 C 31.589844 60.335938 31.476562 60.359375 31.335938 60.359375 C 31.324219 60.359375 31.199219 60.367188 31.191406 60.367188 L 30.910156 60.355469 L 30.585938 60.332031 L 30.425781 60.296875 C 30.335938 60.285156 30.210938 60.257812 30.058594 60.222656 C 29.777344 60.160156 29.5 60.058594 29.257812 59.945312 C 28.761719 59.726562 28.359375 59.410156 28.132812 59.109375 C 27.90625 58.796875 27.820312 58.515625 27.835938 58.164062 C 27.847656 57.988281 27.871094 57.792969 27.96875 57.578125 C 28.023438 57.367188 28.1875 57.128906 28.300781 56.898438 L 28.46875 56.578125 C 28.988281 55.507812 28.496094 54.242188 27.320312 53.726562 C 26.121094 53.1875 24.671875 53.636719 24.082031 54.722656 C 23.816406 55.214844 23.53125 55.675781 23.355469 56.25 C 23.152344 56.785156 23.03125 57.402344 23.015625 58.023438 C 22.957031 59.273438 23.425781 60.613281 24.230469 61.605469 C 25.03125 62.609375 26.082031 63.316406 27.183594 63.796875 C 27.730469 64.042969 28.300781 64.222656 28.882812 64.347656 C 29.351562 64.484375 30.339844 64.589844 30.664062 64.589844 L 31 64.605469 C 31.351562 64.613281 31.363281 64.601562 31.5625 64.601562 C 31.867188 64.59375 32.199219 64.550781 32.523438 64.511719 C 33.167969 64.398438 33.84375 64.214844 34.480469 63.910156 C 35.78125 63.292969 36.746094 62.230469 37.273438 61.203125 C 37.816406 60.167969 38.046875 59.15625 38.167969 58.183594 C 38.222656 57.703125 38.246094 57.222656 38.246094 56.75 C 38.234375 56.300781 38.222656 55.921875 38.160156 55.421875 L 38.085938 52.703125 C 39.710938 52.402344 41.320312 51.925781 42.875 51.25 C 44.011719 50.738281 45.125 50.101562 46.121094 49.273438 C 47.101562 48.511719 48.15625 47.277344 48.679688 46.339844 C 49.785156 44.40625 50.644531 42.15625 50.613281 39.722656 C 50.625 37.296875 49.660156 34.867188 48.117188 33.011719 M 37.492188 10.925781 C 37.753906 9.335938 38.375 7.789062 39.167969 6.703125 C 39.332031 6.425781 39.757812 5.984375 40.035156 5.632812 C 40.199219 5.421875 40.402344 5.246094 40.589844 5.136719 C 40.964844 4.898438 41.3125 4.816406 41.671875 4.847656 C 42.378906 4.898438 43.167969 5.46875 43.414062 6.429688 C 43.679688 7.359375 43.441406 8.738281 42.722656 9.8125 C 41.625 11.484375 39.519531 13.09375 37.183594 14.527344 C 37.207031 13.265625 37.292969 12.058594 37.496094 10.925781 M 30.152344 46.832031 C 26.796875 46.0625 23.84375 44.34375 22.167969 41.871094 C 21.324219 40.632812 20.726562 39.28125 20.441406 37.714844 C 20.191406 36.382812 20.25 34.96875 20.722656 33.722656 C 21.617188 31.179688 24.304688 28.835938 27.449219 26.847656 C 29.007812 25.84375 30.652344 24.933594 32.355469 24.011719 L 32.5 27.875 C 30.929688 28.28125 29.445312 28.910156 28.046875 29.765625 C 27.007812 30.425781 26.019531 31.25 25.230469 32.320312 C 24.839844 32.867188 24.515625 33.378906 24.242188 34.175781 C 24.179688 34.355469 24.105469 34.570312 24.070312 34.710938 L 24.003906 35.058594 L 23.914062 35.578125 L 23.882812 36.082031 C 23.792969 37.433594 24.316406 38.921875 25.21875 40.039062 C 26.171875 41.152344 27.195312 41.917969 28.636719 42.527344 C 28.722656 42.566406 28.820312 42.597656 28.910156 42.628906 C 30.183594 43.007812 31.5625 42.386719 31.988281 41.226562 C 32.40625 40.074219 31.714844 38.828125 30.4375 38.445312 L 30.414062 38.445312 C 27.769531 37.648438 27.925781 34.972656 30.765625 33.382812 C 31.347656 33.054688 31.992188 32.773438 32.667969 32.539062 L 32.691406 33.101562 L 33.15625 47.289062 C 32.136719 47.214844 31.125 47.070312 30.152344 46.832031 M 44.953125 39.6875 C 44.925781 41.03125 44.375 42.4375 43.527344 43.789062 C 43.050781 44.492188 42.773438 44.726562 42.183594 45.199219 C 41.640625 45.621094 40.960938 45.984375 40.234375 46.277344 C 39.511719 46.570312 38.738281 46.804688 37.933594 46.972656 L 37.554688 33.023438 L 37.53125 32.039062 C 37.59375 32.054688 37.667969 32.066406 37.730469 32.082031 C 38.445312 32.246094 39.234375 32.546875 39.972656 32.917969 C 42.992188 34.417969 45.125 37.046875 44.949219 39.6875 "/>
</g>
</svg>
