<svg xmlns="http://www.w3.org/2000/svg" xmlns:xlink="http://www.w3.org/1999/xlink" width="64" height="64" viewBox="0 0 64 64" version="1.1">
<defs>
<linearGradient id="linear0" gradientUnits="userSpaceOnUse" x1="0" y1="0" x2="0" y2="1" gradientTransform="matrix(64,0,0,64,0,0)">
<stop offset="0" style="stop-color:#ff6666;stop-opacity:1;"/>
<stop offset="1" style="stop-color:#d90000;stop-opacity:1;"/>
</linearGradient>
</defs>
<g id="surface1">
<path style=" stroke:none;fill-rule:nonzero;fill:url(#linear0);" d="M 29.539062 0 L 29.539062 15.015625 C 26.71875 15.441406 24.050781 16.558594 21.769531 18.265625 L 11.117188 7.632812 L 7.636719 11.117188 L 18.269531 21.769531 C 16.539062 24.039062 15.410156 26.710938 15 29.539062 L 0 29.539062 L 0 34.460938 L 15 34.460938 C 15.425781 37.367188 16.574219 40 18.269531 42.230469 L 7.636719 52.882812 L 11.117188 56.363281 L 21.769531 45.710938 C 24 47.382812 26.652344 48.554688 29.539062 48.980469 L 29.539062 64 L 34.460938 64 L 34.460938 48.984375 C 37.285156 48.558594 39.957031 47.433594 42.230469 45.710938 L 52.882812 56.363281 L 56.363281 52.882812 L 45.710938 42.230469 C 47.457031 39.96875 48.589844 37.292969 49 34.460938 L 64 34.460938 L 64 29.539062 L 49 29.539062 C 48.589844 26.707031 47.457031 24.03125 45.710938 21.769531 L 56.363281 11.117188 L 52.882812 7.636719 L 42.230469 18.269531 C 39.949219 16.558594 37.28125 15.445312 34.460938 15.015625 L 34.460938 0 Z M 32 19.691406 C 38.828125 19.691406 44.308594 25.171875 44.308594 32 C 44.308594 38.828125 38.828125 44.308594 32 44.308594 C 28.730469 44.320312 25.597656 43.023438 23.285156 40.714844 C 20.976562 38.402344 19.679688 35.269531 19.691406 32 C 19.691406 25.171875 25.171875 19.691406 32 19.691406 Z M 32 19.691406 "/>
</g>
</svg>
