<svg xmlns="http://www.w3.org/2000/svg" xmlns:xlink="http://www.w3.org/1999/xlink" width="64" height="64" viewBox="0 0 64 64" version="1.1">
<defs>
<linearGradient id="linear0" gradientUnits="userSpaceOnUse" x1="0" y1="0" x2="0" y2="1" gradientTransform="matrix(64,0,0,38,0,13)">
<stop offset="0" style="stop-color:#ff6666;stop-opacity:1;"/>
<stop offset="1" style="stop-color:#d90000;stop-opacity:1;"/>
</linearGradient>
</defs>
<g id="surface1">
<path style=" stroke:none;fill-rule:nonzero;fill:url(#linear0);" d="M 48.070312 13 C 32.707031 13.242188 23.96875 22.414062 19.453125 31.261719 C 15.699219 38.613281 14.839844 44.746094 14.578125 46.992188 L 0 46.992188 L 0 51 L 16.265625 51 C 17.3125 51.003906 18.183594 50.199219 18.265625 49.152344 C 18.265625 49.152344 18.914062 41.117188 23.015625 33.085938 C 26.78125 25.703125 33.402344 18.78125 45.140625 17.488281 C 38.207031 32.6875 45.695312 49.832031 45.695312 49.832031 C 46.019531 50.542969 46.726562 51 47.507812 51 L 64 51 L 64 46.992188 L 49.007812 46.992188 C 48.242188 45.191406 41.554688 28.992188 49.78125 16.085938 C 50.179688 15.464844 50.203125 14.675781 49.84375 14.03125 C 49.488281 13.386719 48.804688 12.992188 48.070312 13 Z M 48.070312 13 "/>
</g>
</svg>
