<svg xmlns="http://www.w3.org/2000/svg" xmlns:xlink="http://www.w3.org/1999/xlink" width="64" height="64" viewBox="0 0 64 64" version="1.1">
<defs>
<linearGradient id="linear0" gradientUnits="userSpaceOnUse" x1="0" y1="0" x2="0" y2="1" gradientTransform="matrix(50.523437,0,0,32.109375,6.738281,15.945312)">
<stop offset="0" style="stop-color:#ff6666;stop-opacity:1;"/>
<stop offset="1" style="stop-color:#d90000;stop-opacity:1;"/>
</linearGradient>
<linearGradient id="linear1" gradientUnits="userSpaceOnUse" x1="0" y1="0" x2="0" y2="1" gradientTransform="matrix(64,0,0,44.085938,0,9.957031)">
<stop offset="0" style="stop-color:#ff6666;stop-opacity:1;"/>
<stop offset="1" style="stop-color:#d90000;stop-opacity:1;"/>
</linearGradient>
</defs>
<g id="surface1">
<path style=" stroke:none;fill-rule:evenodd;fill:url(#linear0);" d="M 55.097656 15.945312 L 57.261719 19.613281 L 8.902344 48.054688 L 6.738281 44.386719 Z M 6.738281 19.613281 L 8.902344 15.945312 L 57.261719 44.386719 L 55.097656 48.054688 Z M 6.738281 19.613281 "/>
<path style=" stroke:none;fill-rule:nonzero;fill:url(#linear1);" d="M 7.824219 9.957031 C 3.503906 9.957031 0 13.457031 0 17.777344 C 0 22.097656 3.503906 25.601562 7.824219 25.601562 C 12.144531 25.601562 15.644531 22.097656 15.644531 17.777344 C 15.644531 13.457031 12.144531 9.957031 7.824219 9.957031 Z M 56.175781 9.957031 C 54.105469 9.957031 52.113281 10.78125 50.648438 12.246094 C 49.179688 13.710938 48.355469 15.703125 48.355469 17.777344 C 48.355469 19.851562 49.179688 21.84375 50.648438 23.308594 C 52.113281 24.777344 54.105469 25.601562 56.175781 25.601562 C 58.253906 25.601562 60.242188 24.777344 61.707031 23.308594 C 63.175781 21.84375 64 19.851562 64 17.777344 C 64 15.703125 63.175781 13.710938 61.707031 12.246094 C 60.242188 10.78125 58.253906 9.957031 56.175781 9.957031 Z M 32 19.910156 C 25.324219 19.910156 19.910156 25.324219 19.910156 32 C 19.910156 38.675781 25.324219 44.089844 32 44.089844 C 38.675781 44.089844 44.089844 38.675781 44.089844 32 C 44.089844 25.324219 38.675781 19.910156 32 19.910156 Z M 7.824219 38.398438 C 3.503906 38.398438 0 41.902344 0 46.222656 C 0 50.542969 3.503906 54.042969 7.824219 54.042969 C 12.144531 54.042969 15.644531 50.542969 15.644531 46.222656 C 15.644531 41.902344 12.144531 38.398438 7.824219 38.398438 Z M 56.175781 38.398438 C 54.105469 38.398438 52.113281 39.222656 50.648438 40.691406 C 49.179688 42.15625 48.355469 44.148438 48.355469 46.222656 C 48.355469 48.296875 49.179688 50.289062 50.648438 51.753906 C 52.113281 53.21875 54.105469 54.042969 56.175781 54.042969 C 58.253906 54.042969 60.242188 53.21875 61.707031 51.753906 C 63.175781 50.289062 64 48.296875 64 46.222656 C 64 44.148438 63.175781 42.15625 61.707031 40.691406 C 60.242188 39.222656 58.253906 38.398438 56.175781 38.398438 Z M 56.175781 38.398438 "/>
</g>
</svg>
