<svg xmlns="http://www.w3.org/2000/svg" xmlns:xlink="http://www.w3.org/1999/xlink" width="64" height="64" viewBox="0 0 64 64" version="1.1">
<defs> <linearGradient id="linear0" gradientUnits="userSpaceOnUse" x1="0" y1="0" x2="0" y2="1" gradientTransform="matrix(55.992188,0,0,56,4.003906,4)"> <stop offset="0" style="stop-color:#ff6666;stop-opacity:1;"/> <stop offset="1" style="stop-color:#d90000;stop-opacity:1;"/> </linearGradient> </defs>
<g id="surface1">
<path style=" stroke:none;fill-rule:nonzero;fill:url(#linear0);fill-opacity:1;" d="M 5.324219 10.707031 L 5.324219 51.894531 L 62.195312 51.894531 L 62.195312 10.707031 Z M 29.914062 13.277344 L 29.914062 13.285156 C 31.828125 13.375 33.757812 13.441406 35.601562 13.777344 C 37.855469 14.269531 38.863281 15.082031 39.03125 17.628906 C 39.03125 18.613281 38.542969 19.527344 37.570312 20.371094 C 38.542969 20.824219 39.183594 21.191406 39.488281 21.449219 C 40.699219 22.769531 40.800781 24.261719 40.050781 26.261719 C 39.695312 26.988281 38.871094 27.59375 37.570312 28.097656 C 35.054688 28.832031 32.65625 28.628906 30.152344 28.46875 C 29.785156 28.453125 29.558594 28.433594 29.476562 28.417969 C 29.398438 28.402344 29.308594 28.378906 29.210938 28.351562 C 28.984375 28.269531 28.863281 28.1875 28.863281 28.089844 L 28.863281 26.027344 C 28.636719 22.507812 28.539062 18.945312 28.359375 15.253906 C 28.359375 14.109375 28.65625 13.476562 29.257812 13.351562 C 29.449219 13.300781 29.671875 13.277344 29.914062 13.277344 Z M 54.816406 13.375 L 54.789062 13.378906 L 57.292969 13.449219 C 58.589844 13.449219 59.304688 13.753906 59.433594 14.363281 C 59.457031 15.152344 59.359375 15.886719 59.53125 16.683594 C 59.53125 16.886719 59.433594 16.988281 59.242188 16.988281 C 58.996094 16.773438 58.671875 16.582031 58.464844 16.304688 C 58.140625 16.117188 57.78125 16.011719 57.394531 15.976562 C 55.050781 16.074219 53.066406 16.164062 51.386719 18.0625 C 50.996094 18.957031 50.730469 19.78125 50.582031 20.535156 C 50.457031 21.285156 50.394531 21.777344 50.394531 22.011719 C 50.5 22.730469 50.835938 23.351562 51.074219 23.984375 C 51.269531 24.296875 51.496094 24.59375 51.652344 24.828125 C 51.851562 24.953125 52.082031 25.070312 52.335938 25.183594 C 52.875 25.386719 53.316406 25.488281 53.675781 25.488281 C 55.441406 25.351562 57.125 25.4375 58.804688 24.757812 C 58.984375 24.679688 59.105469 24.640625 59.167969 24.640625 C 59.253906 24.640625 59.308594 24.679688 59.34375 24.757812 C 59.34375 24.882812 59.339844 25.007812 59.339844 25.132812 L 59.339844 25.648438 C 59.359375 26.457031 59.503906 27.34375 59.605469 28.136719 C 59.605469 28.464844 59.585938 28.660156 59.535156 28.722656 C 59.28125 28.660156 59.003906 28.628906 58.707031 28.628906 C 57.804688 28.730469 56.800781 28.570312 56.011719 28.515625 C 52.652344 28.480469 50.023438 27.710938 48.421875 24.378906 L 47.382812 21.777344 C 47.253906 21.496094 47.183594 21.128906 47.183594 20.675781 C 47.183594 19.753906 47.566406 18.632812 48.332031 17.316406 C 49.234375 15.785156 50.484375 14.648438 52.070312 13.910156 C 52.882812 13.554688 53.796875 13.375 54.816406 13.375 Z M 13.410156 13.453125 C 13.703125 13.472656 14.054688 13.585938 14.28125 13.488281 C 15.546875 13.523438 16.21875 13.613281 16.296875 13.769531 C 17.722656 18.539062 19.816406 23.980469 21.542969 27.992188 C 21.464844 28.136719 21.199219 28.226562 20.742188 28.253906 C 20.289062 28.269531 19.847656 28.277344 19.410156 28.277344 C 18.988281 28.277344 18.660156 28.261719 18.433594 28.226562 C 18.222656 28.199219 18.074219 28.105469 17.996094 27.949219 C 17.734375 27.445312 17.484375 27.003906 17.246094 26.632812 C 17 26.253906 16.773438 25.832031 16.558594 25.363281 L 13.765625 25.175781 C 12.941406 25.175781 12.414062 25.332031 12.183594 25.648438 C 12.070312 25.804688 11.992188 26.003906 11.941406 26.234375 C 11.765625 27.234375 11.214844 27.984375 10.503906 28.679688 C 9.925781 28.507812 9.164062 28.417969 8.222656 28.417969 C 8.140625 28.417969 8.066406 28.394531 8 28.34375 C 7.9375 28.28125 7.902344 28.199219 7.902344 28.089844 C 7.902344 27.976562 7.949219 27.828125 8.027344 27.644531 C 8.636719 26.398438 9.113281 25.082031 9.488281 23.9375 C 10.574219 20.597656 11.746094 17.367188 12.941406 14.054688 C 12.902344 13.53125 13.121094 13.441406 13.40625 13.453125 Z M 33.589844 16.582031 C 33.078125 16.582031 32.59375 16.617188 32.023438 16.660156 C 31.941406 16.660156 31.867188 16.898438 31.804688 17.367188 C 31.738281 17.835938 31.710938 18.121094 31.710938 18.210938 C 31.710938 18.300781 31.75 18.375 31.828125 18.417969 C 32.804688 19.054688 34.265625 18.601562 35.183594 18.261719 C 35.421875 18.070312 35.546875 17.804688 35.546875 17.457031 C 35.546875 17.289062 35.070312 16.996094 34.113281 16.585938 L 34.113281 16.59375 C 33.9375 16.585938 33.757812 16.582031 33.589844 16.582031 Z M 14.542969 18.632812 C 14.066406 19.890625 13.746094 20.636719 13.078125 21.847656 L 15.683594 21.847656 C 15.371094 20.855469 14.917969 19.5 14.546875 18.632812 Z M 34.289062 22.242188 L 34.265625 22.269531 L 32.953125 22.269531 C 32.59375 22.34375 32.453125 22.457031 32.027344 22.457031 C 31.914062 22.457031 31.847656 22.503906 31.8125 22.574219 C 31.816406 22.636719 31.8125 22.808594 31.8125 23.089844 C 31.753906 23.640625 31.855469 24.253906 31.878906 24.757812 C 31.976562 25.382812 32.148438 25.75 32.390625 25.839844 C 33.765625 26.160156 35.007812 26.601562 36.347656 25.769531 C 36.917969 25.363281 37.203125 24.777344 37.203125 24.007812 C 36.941406 23.304688 36.570312 22.832031 36.082031 22.597656 C 35.609375 22.359375 35.015625 22.242188 34.289062 22.242188 Z M 30.328125 33.898438 C 31.9375 33.914062 33.582031 34.085938 35.082031 34.191406 C 36.347656 34.367188 37.132812 34.949219 37.546875 35.605469 C 38.222656 36.390625 38.472656 37.320312 38.417969 38.21875 C 38.417969 39.203125 37.933594 40.117188 36.972656 40.960938 C 37.933594 41.414062 38.5625 41.777344 38.871094 42.042969 C 39.511719 42.589844 39.835938 43.191406 39.835938 43.847656 C 39.96875 44.921875 39.789062 45.9375 39.425781 46.855469 C 39.074219 47.574219 38.257812 48.183594 36.972656 48.6875 C 33.980469 49.410156 31.386719 49.167969 28.695312 48.941406 C 28.472656 48.863281 28.351562 48.777344 28.351562 48.6875 L 28.351562 46.617188 C 28.3125 42.878906 27.859375 38.816406 27.855469 35.84375 C 27.855469 34.703125 28.15625 34.066406 28.746094 33.945312 C 29.269531 33.902344 29.796875 33.890625 30.328125 33.898438 Z M 15.917969 33.976562 C 16.550781 33.984375 17.210938 34.015625 17.9375 34.039062 C 19.222656 34.039062 19.925781 34.339844 20.054688 34.949219 C 19.941406 35.746094 20.109375 36.488281 20.152344 37.273438 C 20.152344 37.476562 20.054688 37.578125 19.863281 37.578125 C 19.5625 37.421875 19.375 37.144531 19.089844 36.894531 C 17.347656 36.199219 15.734375 36.652344 14.066406 37.132812 C 11.578125 38.15625 11.132812 40.554688 11.105469 42.601562 C 12.101562 46.917969 16.144531 46.023438 19.429688 45.34375 C 19.609375 45.269531 19.726562 45.230469 19.789062 45.230469 C 19.867188 45.230469 19.929688 45.269531 19.960938 45.34375 C 19.859375 46.476562 20.054688 47.625 20.199219 48.726562 C 20.199219 49.054688 20.175781 49.253906 20.128906 49.316406 C 17.796875 49.246094 15.160156 48.875 13.097656 48.496094 C 11.617188 48.1875 10.792969 47.257812 9.828125 46.265625 C 8.847656 44.738281 7.976562 43.261719 7.902344 41.265625 C 7.902344 40.34375 8.285156 39.226562 9.039062 37.90625 C 9.9375 36.375 11.175781 35.246094 12.742188 34.507812 C 13.640625 34.164062 14.457031 34.035156 15.285156 33.996094 C 15.496094 33.984375 15.707031 33.976562 15.917969 33.976562 Z M 52.410156 34.050781 C 53.660156 34.078125 54.324219 34.175781 54.402344 34.332031 C 55.511719 38.785156 57.320312 43.019531 58.953125 46.980469 C 59.269531 47.636719 59.492188 48.160156 59.597656 48.550781 C 59.519531 48.691406 59.257812 48.78125 58.808594 48.816406 C 58.003906 48.902344 57.304688 48.828125 56.519531 48.8125 C 56.3125 48.78125 56.164062 48.6875 56.082031 48.535156 C 55.585938 47.675781 55.101562 46.757812 54.664062 45.960938 L 51.898438 45.773438 C 51.085938 45.773438 50.5625 45.925781 50.335938 46.242188 C 50.046875 47.097656 49.585938 47.945312 49.207031 48.6875 C 48.960938 49.078125 48.785156 49.273438 48.671875 49.273438 C 48.097656 49.101562 47.34375 49.007812 46.414062 49.007812 C 46.332031 49.007812 46.257812 48.988281 46.195312 48.941406 C 46.128906 48.878906 46.101562 48.792969 46.101562 48.6875 C 47.527344 44.902344 48.847656 40.792969 50.21875 37.09375 C 50.710938 35.667969 51 34.855469 51.085938 34.648438 C 51.195312 33.789062 51.957031 34.277344 52.410156 34.085938 Z M 32.566406 37.21875 C 32.199219 37.222656 31.828125 37.242188 31.488281 37.25 C 31.175781 37.726562 31.296875 38.203125 31.171875 38.800781 C 31.171875 38.890625 31.214844 38.964844 31.296875 39.011719 C 32.84375 39.773438 35.082031 39.332031 34.976562 38.050781 C 34.71875 37.332031 33.65625 37.210938 32.566406 37.21875 Z M 52.671875 39.230469 C 52.148438 40.253906 51.894531 41.347656 51.589844 42.4375 L 53.800781 42.4375 C 53.351562 41.398438 52.996094 40.300781 52.671875 39.230469 Z M 33.46875 42.832031 L 33.46875 42.839844 C 32.792969 42.863281 32.128906 42.980469 31.511719 43.046875 C 31.398438 43.046875 31.324219 43.09375 31.289062 43.171875 C 31.199219 43.847656 31.335938 44.660156 31.339844 45.355469 C 31.429688 45.976562 31.601562 46.339844 31.839844 46.4375 C 32.136719 46.578125 32.386719 46.621094 32.710938 46.734375 C 33.917969 46.921875 34.695312 46.695312 35.765625 46.363281 C 36.328125 45.957031 36.609375 45.367188 36.609375 44.605469 C 36.347656 43.898438 35.984375 43.421875 35.503906 43.191406 C 34.832031 42.875 34.140625 42.832031 33.46875 42.832031 Z M 33.46875 42.832031 "/>
</g>
</svg>
