<svg xmlns="http://www.w3.org/2000/svg" xmlns:xlink="http://www.w3.org/1999/xlink" width="64" height="64" viewBox="0 0 64 64" version="1.1">
<defs> <linearGradient id="linear0" gradientUnits="userSpaceOnUse" x1="0" y1="0" x2="0" y2="1" gradientTransform="matrix(55.992188,0,0,56,4.003906,4)"> <stop offset="0" style="stop-color:#ff6666;stop-opacity:1;"/> <stop offset="1" style="stop-color:#d90000;stop-opacity:1;"/> </linearGradient> </defs>
<g id="surface1">
<path style="fill-rule:nonzero;fill:url(#linear0);fill-opacity:1;stroke-width:3.258;stroke-linecap:butt;stroke-linejoin:miter;stroke:url(#linear0);stroke-opacity:1;stroke-miterlimit:4;" d="M 246.814265 111.093245 L 239.785379 132.634905 L 239.785379 134.53437 L 242.278806 153.183663 L 216.463232 160.133978 L 209.28388 142.650266 L 208.381087 141.009819 L 191.528956 125.900438 L 175.558122 135.095575 L 180.222551 157.241611 L 181.189829 158.903642 L 192.711184 173.840345 L 173.838517 192.72707 L 158.899446 181.179187 L 157.287316 180.229454 L 135.104408 175.567131 L 125.90452 191.539905 L 140.994056 208.376072 L 142.649176 209.282635 L 160.124665 216.470383 L 153.181758 242.285839 L 134.524041 239.781999 L 132.632475 239.781999 L 111.094419 246.775484 L 111.094419 265.187343 L 132.632475 272.223998 L 134.524041 272.223998 L 153.181758 269.720158 L 160.124665 295.535614 L 142.649176 302.723362 L 140.994056 303.629925 L 125.90452 320.466092 L 135.104408 336.438866 L 157.287316 331.776543 L 158.899446 330.783641 L 173.838517 319.278927 L 192.711184 338.165652 L 181.189829 353.102355 L 180.222551 354.721217 L 175.558122 376.910422 L 191.528956 386.083974 L 208.381087 370.996178 L 209.28388 369.312562 L 216.463232 351.872019 L 242.278806 358.822334 L 239.785379 377.471627 L 239.785379 379.371092 L 246.814265 400.912752 L 265.192546 400.912752 L 272.221433 379.371092 L 272.221433 377.471627 L 269.728005 358.822334 L 295.522084 351.872019 L 302.722931 369.312562 L 303.625724 370.996178 L 320.477856 386.083974 L 336.427195 376.910422 L 331.784261 354.721217 L 330.816983 353.102355 L 319.274132 338.165652 L 338.1468 319.278927 L 353.085871 330.783641 L 354.740991 331.776543 L 376.902404 336.438866 L 386.102292 320.466092 L 370.991261 303.629925 L 369.336141 302.723362 L 351.882147 295.535614 L 358.803558 269.720158 L 377.461275 272.223998 L 379.374336 272.223998 L 400.912392 265.187343 L 400.912392 246.775484 L 379.374336 239.781999 L 377.461275 239.781999 L 358.803558 242.285839 L 351.882147 216.470383 L 369.336141 209.282635 L 370.991261 208.376072 L 386.102292 191.539905 L 376.902404 175.567131 L 354.740991 180.229454 L 353.085871 181.179187 L 338.1468 192.72707 L 319.274132 173.840345 L 330.816983 158.903642 L 331.784261 157.241611 L 336.427195 135.095575 L 320.477856 125.900438 L 303.625724 141.009819 L 302.722931 142.650266 L 295.522084 160.133978 L 269.728005 153.183663 L 272.221433 134.53437 L 272.221433 132.634905 L 265.192546 111.093245 Z M 255.992658 204.318124 C 284.538106 204.318124 307.688292 227.435476 307.688292 255.992206 C 307.688292 284.527351 284.538106 307.666288 255.992658 307.666288 C 227.468706 307.666288 204.31852 284.527351 204.31852 255.992206 C 204.31852 227.435476 227.468706 204.318124 255.992658 204.318124 Z M 255.992658 204.318124 " transform="matrix(0.181728,0,0,0.180972,-14.466283,-14.155549)"/>
</g>
</svg>
