<svg xmlns="http://www.w3.org/2000/svg" xmlns:xlink="http://www.w3.org/1999/xlink" width="64" height="64" viewBox="0 0 64 64" version="1.1">
<defs>
<linearGradient id="linear0" gradientUnits="userSpaceOnUse" x1="0" y1="0" x2="0" y2="1" gradientTransform="matrix(58.984375,0,0,64,2.507812,0)">
<stop offset="0" style="stop-color:#ff6666;stop-opacity:1;"/>
<stop offset="1" style="stop-color:#d90000;stop-opacity:1;"/>
</linearGradient>
</defs>
<g id="surface1">
<path style=" stroke:none;fill-rule:evenodd;fill:url(#linear0);" d="M 19.3125 8.21875 L 19.433594 28.480469 L 14.679688 28.480469 C 14.679688 28.480469 18.574219 37.996094 24.195312 45.773438 C 24.195312 45.773438 24.199219 45.773438 24.199219 45.769531 C 24.203125 45.769531 24.203125 45.769531 24.207031 45.769531 C 24.207031 45.765625 24.210938 45.765625 24.210938 45.765625 C 24.214844 45.761719 24.214844 45.761719 24.21875 45.761719 C 30.015625 37.554688 33.699219 28.480469 33.699219 28.480469 L 28.945312 28.480469 L 28.875 13.09375 C 25.480469 11.34375 22.265625 9.652344 19.3125 8.21875 Z M 2.507812 0 L 2.507812 64 C 2.507812 64 34.96875 50.878906 61.492188 31.980469 C 61.492188 31.972656 61.488281 31.96875 61.484375 31.964844 C 61.484375 31.957031 61.480469 31.949219 61.472656 31.941406 C 61.46875 31.933594 61.464844 31.929688 61.460938 31.921875 C 61.457031 31.910156 61.453125 31.90625 61.453125 31.898438 C 33.476562 12.394531 2.507812 0 2.507812 0 Z M 2.507812 0 "/>
</g>
</svg>
