<svg xmlns="http://www.w3.org/2000/svg" xmlns:xlink="http://www.w3.org/1999/xlink" width="64" height="64" viewBox="0 0 64 64" version="1.1">
<defs>
<linearGradient id="linear0" gradientUnits="userSpaceOnUse" x1="0" y1="0" x2="0" y2="1" gradientTransform="matrix(64,0,0,64,0,0)">
<stop offset="0" style="stop-color:#ff6666;stop-opacity:1;"/>
<stop offset="1" style="stop-color:#d90000;stop-opacity:1;"/>
</linearGradient>
</defs>
<g id="surface1">
<path style=" stroke:none;fill-rule:evenodd;fill:url(#linear0);" d="M 19.957031 52 L 59.957031 52 L 59.957031 64 L 19.957031 64 Z M 22 35.210938 C 22 29.691406 26.480469 25.210938 32 25.210938 C 37.519531 25.210938 42 29.691406 42 35.210938 C 42 40.730469 37.519531 45.210938 32 45.210938 C 26.480469 45.210938 22 40.730469 22 35.210938 Z M 0 0 L 15.207031 0 L 15.207031 15.207031 L 0 15.207031 Z M 29.789062 0 L 44.992188 0 L 44.992188 15.207031 L 29.789062 15.207031 Z M 48.792969 0 L 64 0 L 64 15.207031 L 48.792969 15.207031 Z M 48.792969 0 "/>
</g>
</svg>
