<svg xmlns="http://www.w3.org/2000/svg" xmlns:xlink="http://www.w3.org/1999/xlink" width="64" height="64" viewBox="0 0 64 64" version="1.1">
<defs>
<linearGradient id="linear0" gradientUnits="userSpaceOnUse" x1="0" y1="0" x2="0" y2="1" gradientTransform="matrix(10.59375,0,0,15.6875,0,8)">
<stop offset="0" style="stop-color:#ff6666;stop-opacity:1;"/>
<stop offset="1" style="stop-color:#d90000;stop-opacity:1;"/>
</linearGradient>
<linearGradient id="linear1" gradientUnits="userSpaceOnUse" x1="0" y1="0" x2="0" y2="1" gradientTransform="matrix(10.226562,0,0,11.070312,13.523438,12.355469)">
<stop offset="0" style="stop-color:#ff6666;stop-opacity:1;"/>
<stop offset="1" style="stop-color:#d90000;stop-opacity:1;"/>
</linearGradient>
<linearGradient id="linear2" gradientUnits="userSpaceOnUse" x1="0" y1="0" x2="0" y2="1" gradientTransform="matrix(10.59375,0,0,15.6875,26.703125,8)">
<stop offset="0" style="stop-color:#ff6666;stop-opacity:1;"/>
<stop offset="1" style="stop-color:#d90000;stop-opacity:1;"/>
</linearGradient>
<linearGradient id="linear3" gradientUnits="userSpaceOnUse" x1="0" y1="0" x2="0" y2="1" gradientTransform="matrix(10.59375,0,0,15.6875,40.054688,8)">
<stop offset="0" style="stop-color:#ff6666;stop-opacity:1;"/>
<stop offset="1" style="stop-color:#d90000;stop-opacity:1;"/>
</linearGradient>
<linearGradient id="linear4" gradientUnits="userSpaceOnUse" x1="0" y1="0" x2="0" y2="1" gradientTransform="matrix(10.59375,0,0,15.6875,53.40625,8)">
<stop offset="0" style="stop-color:#ff6666;stop-opacity:1;"/>
<stop offset="1" style="stop-color:#d90000;stop-opacity:1;"/>
</linearGradient>
<linearGradient id="linear5" gradientUnits="userSpaceOnUse" x1="0" y1="0" x2="0" y2="1" gradientTransform="matrix(48,0,0,24,8,32)">
<stop offset="0" style="stop-color:#ff6666;stop-opacity:1;"/>
<stop offset="1" style="stop-color:#d90000;stop-opacity:1;"/>
</linearGradient>
</defs>
<g id="surface1">
<path style=" stroke:none;fill-rule:nonzero;fill:url(#linear0);" d="M 5.285156 23.6875 C 4.320312 23.6875 3.472656 23.460938 2.75 23.015625 C 2.042969 22.554688 1.496094 21.9375 1.105469 21.171875 C 0.730469 20.394531 0.449219 19.5625 0.261719 18.683594 C 0.0859375 17.800781 0 16.855469 0 15.84375 C 0 15.121094 0.0429688 14.421875 0.128906 13.742188 C 0.230469 13.0625 0.40625 12.371094 0.648438 11.660156 C 0.894531 10.9375 1.207031 10.316406 1.582031 9.796875 C 1.972656 9.277344 2.484375 8.851562 3.121094 8.519531 C 3.753906 8.171875 4.476562 8 5.285156 8 C 6.253906 8 7.097656 8.230469 7.820312 8.691406 C 8.542969 9.140625 9.09375 9.753906 9.46875 10.535156 C 9.859375 11.316406 10.140625 12.144531 10.3125 13.027344 C 10.5 13.90625 10.59375 14.847656 10.59375 15.84375 C 10.59375 16.769531 10.507812 17.65625 10.335938 18.507812 C 10.175781 19.347656 9.910156 20.175781 9.535156 21 C 9.15625 21.808594 8.601562 22.457031 7.863281 22.949219 C 7.144531 23.441406 6.285156 23.6875 5.285156 23.6875 Z M 5.285156 21.976562 C 5.949219 21.976562 6.515625 21.792969 6.976562 21.433594 C 7.453125 21.058594 7.800781 20.550781 8.015625 19.917969 C 8.246094 19.28125 8.40625 18.636719 8.492188 17.988281 C 8.59375 17.324219 8.644531 16.609375 8.644531 15.84375 C 8.644531 15.035156 8.585938 14.289062 8.472656 13.613281 C 8.371094 12.933594 8.195312 12.289062 7.953125 11.683594 C 7.71875 11.0625 7.375 10.578125 6.910156 10.230469 C 6.464844 9.886719 5.921875 9.710938 5.285156 9.710938 C 4.621094 9.710938 4.050781 9.898438 3.574219 10.273438 C 3.113281 10.636719 2.765625 11.140625 2.535156 11.792969 C 2.304688 12.425781 2.136719 13.070312 2.035156 13.71875 C 1.949219 14.371094 1.90625 15.078125 1.90625 15.84375 C 1.90625 16.652344 1.957031 17.402344 2.058594 18.097656 C 2.175781 18.777344 2.347656 19.417969 2.578125 20.023438 C 2.824219 20.632812 3.171875 21.109375 3.617188 21.453125 C 4.082031 21.800781 4.636719 21.976562 5.285156 21.976562 Z M 6.285156 16.863281 C 6.007812 17.136719 5.675781 17.273438 5.285156 17.273438 C 4.898438 17.273438 4.5625 17.136719 4.289062 16.863281 C 4.015625 16.574219 3.878906 16.242188 3.878906 15.863281 C 3.878906 15.476562 4.015625 15.144531 4.289062 14.867188 C 4.5625 14.578125 4.898438 14.433594 5.285156 14.433594 C 5.675781 14.433594 6.007812 14.578125 6.285156 14.867188 C 6.570312 15.144531 6.714844 15.476562 6.714844 15.863281 C 6.714844 16.242188 6.570312 16.574219 6.285156 16.863281 Z M 6.285156 16.863281 "/>
<path style=" stroke:none;fill-rule:nonzero;fill:url(#linear1);" d="M 13.523438 23.425781 L 17.621094 17.707031 L 13.785156 12.355469 L 15.84375 12.355469 L 18.097656 15.496094 C 18.429688 15.988281 18.609375 16.261719 18.636719 16.320312 C 18.652344 16.292969 18.722656 16.175781 18.855469 15.972656 C 19 15.757812 19.105469 15.597656 19.179688 15.496094 L 21.433594 12.355469 L 23.492188 12.355469 L 19.65625 17.707031 L 23.75 23.425781 L 21.691406 23.425781 L 19.179688 19.917969 C 19.105469 19.816406 19 19.664062 18.855469 19.460938 C 18.722656 19.246094 18.652344 19.121094 18.636719 19.09375 C 18.582031 19.179688 18.484375 19.316406 18.355469 19.503906 C 18.242188 19.691406 18.152344 19.828125 18.097656 19.917969 L 15.582031 23.425781 Z M 13.523438 23.425781 "/>
<path style=" stroke:none;fill-rule:nonzero;fill:url(#linear2);" d="M 31.988281 23.6875 C 31.019531 23.6875 30.175781 23.460938 29.453125 23.015625 C 28.746094 22.554688 28.199219 21.9375 27.808594 21.171875 C 27.433594 20.394531 27.148438 19.5625 26.960938 18.683594 C 26.789062 17.800781 26.703125 16.855469 26.703125 15.84375 C 26.703125 15.121094 26.746094 14.421875 26.832031 13.742188 C 26.933594 13.0625 27.105469 12.371094 27.351562 11.660156 C 27.597656 10.9375 27.910156 10.316406 28.285156 9.796875 C 28.675781 9.277344 29.1875 8.851562 29.824219 8.519531 C 30.457031 8.171875 31.179688 8 31.988281 8 C 32.957031 8 33.800781 8.230469 34.523438 8.691406 C 35.246094 9.140625 35.796875 9.753906 36.171875 10.535156 C 36.5625 11.316406 36.84375 12.144531 37.015625 13.027344 C 37.203125 13.90625 37.296875 14.847656 37.296875 15.84375 C 37.296875 16.769531 37.210938 17.65625 37.039062 18.507812 C 36.878906 19.347656 36.613281 20.175781 36.234375 21 C 35.859375 21.808594 35.304688 22.457031 34.566406 22.949219 C 33.84375 23.441406 32.984375 23.6875 31.988281 23.6875 Z M 31.988281 21.976562 C 32.652344 21.976562 33.21875 21.792969 33.679688 21.433594 C 34.15625 21.058594 34.503906 20.550781 34.71875 19.917969 C 34.949219 19.28125 35.109375 18.636719 35.195312 17.988281 C 35.296875 17.324219 35.347656 16.609375 35.347656 15.84375 C 35.347656 15.035156 35.289062 14.289062 35.175781 13.613281 C 35.074219 12.933594 34.898438 12.289062 34.652344 11.683594 C 34.421875 11.0625 34.078125 10.578125 33.613281 10.230469 C 33.167969 9.886719 32.625 9.710938 31.988281 9.710938 C 31.324219 9.710938 30.753906 9.898438 30.277344 10.273438 C 29.816406 10.636719 29.46875 11.140625 29.238281 11.792969 C 29.007812 12.425781 28.839844 13.070312 28.738281 13.71875 C 28.652344 14.371094 28.609375 15.078125 28.609375 15.84375 C 28.609375 16.652344 28.660156 17.402344 28.761719 18.097656 C 28.875 18.777344 29.050781 19.417969 29.28125 20.023438 C 29.527344 20.632812 29.871094 21.109375 30.320312 21.453125 C 30.78125 21.800781 31.339844 21.976562 31.988281 21.976562 Z M 32.984375 16.863281 C 32.710938 17.136719 32.378906 17.273438 31.988281 17.273438 C 31.597656 17.273438 31.265625 17.136719 30.992188 16.863281 C 30.71875 16.574219 30.582031 16.242188 30.582031 15.863281 C 30.582031 15.476562 30.71875 15.144531 30.992188 14.867188 C 31.265625 14.578125 31.597656 14.433594 31.988281 14.433594 C 32.378906 14.433594 32.710938 14.578125 32.984375 14.867188 C 33.273438 15.144531 33.417969 15.476562 33.417969 15.863281 C 33.417969 16.242188 33.273438 16.574219 32.984375 16.863281 Z M 32.984375 16.863281 "/>
<path style=" stroke:none;fill-rule:nonzero;fill:url(#linear3);" d="M 45.339844 23.6875 C 44.371094 23.6875 43.527344 23.460938 42.804688 23.015625 C 42.097656 22.554688 41.546875 21.9375 41.160156 21.171875 C 40.78125 20.394531 40.5 19.5625 40.3125 18.683594 C 40.140625 17.800781 40.054688 16.855469 40.054688 15.84375 C 40.054688 15.121094 40.097656 14.421875 40.183594 13.742188 C 40.285156 13.0625 40.457031 12.371094 40.703125 11.660156 C 40.949219 10.9375 41.261719 10.316406 41.636719 9.796875 C 42.027344 9.277344 42.539062 8.851562 43.171875 8.519531 C 43.808594 8.171875 44.53125 8 45.339844 8 C 46.308594 8 47.152344 8.230469 47.875 8.691406 C 48.597656 9.140625 49.144531 9.753906 49.523438 10.535156 C 49.910156 11.316406 50.195312 12.144531 50.367188 13.027344 C 50.554688 13.90625 50.648438 14.847656 50.648438 15.84375 C 50.648438 16.769531 50.5625 17.65625 50.390625 18.507812 C 50.230469 19.347656 49.960938 20.175781 49.585938 21 C 49.210938 21.808594 48.65625 22.457031 47.917969 22.949219 C 47.195312 23.441406 46.335938 23.6875 45.339844 23.6875 Z M 45.339844 21.976562 C 46.003906 21.976562 46.566406 21.792969 47.03125 21.433594 C 47.507812 21.058594 47.855469 20.550781 48.070312 19.917969 C 48.300781 19.28125 48.460938 18.636719 48.546875 17.988281 C 48.648438 17.324219 48.699219 16.609375 48.699219 15.84375 C 48.699219 15.035156 48.640625 14.289062 48.527344 13.613281 C 48.425781 12.933594 48.25 12.289062 48.003906 11.683594 C 47.773438 11.0625 47.425781 10.578125 46.964844 10.230469 C 46.519531 9.886719 45.976562 9.710938 45.339844 9.710938 C 44.675781 9.710938 44.105469 9.898438 43.628906 10.273438 C 43.167969 10.636719 42.820312 11.140625 42.589844 11.792969 C 42.359375 12.425781 42.191406 13.070312 42.089844 13.71875 C 42.003906 14.371094 41.960938 15.078125 41.960938 15.84375 C 41.960938 16.652344 42.011719 17.402344 42.113281 18.097656 C 42.226562 18.777344 42.402344 19.417969 42.632812 20.023438 C 42.878906 20.632812 43.222656 21.109375 43.671875 21.453125 C 44.132812 21.800781 44.691406 21.976562 45.339844 21.976562 Z M 46.335938 16.863281 C 46.0625 17.136719 45.730469 17.273438 45.339844 17.273438 C 44.949219 17.273438 44.617188 17.136719 44.34375 16.863281 C 44.070312 16.574219 43.933594 16.242188 43.933594 15.863281 C 43.933594 15.476562 44.070312 15.144531 44.34375 14.867188 C 44.617188 14.578125 44.949219 14.433594 45.339844 14.433594 C 45.730469 14.433594 46.0625 14.578125 46.335938 14.867188 C 46.625 15.144531 46.769531 15.476562 46.769531 15.863281 C 46.769531 16.242188 46.625 16.574219 46.335938 16.863281 Z M 46.335938 16.863281 "/>
<path style=" stroke:none;fill-rule:nonzero;fill:url(#linear4);" d="M 58.691406 23.6875 C 57.722656 23.6875 56.878906 23.460938 56.15625 23.015625 C 55.449219 22.554688 54.898438 21.9375 54.511719 21.171875 C 54.132812 20.394531 53.851562 19.5625 53.664062 18.683594 C 53.492188 17.800781 53.40625 16.855469 53.40625 15.84375 C 53.40625 15.121094 53.449219 14.421875 53.535156 13.742188 C 53.636719 13.0625 53.808594 12.371094 54.054688 11.660156 C 54.300781 10.9375 54.609375 10.316406 54.988281 9.796875 C 55.375 9.277344 55.890625 8.851562 56.523438 8.519531 C 57.160156 8.171875 57.882812 8 58.691406 8 C 59.660156 8 60.503906 8.230469 61.226562 8.691406 C 61.949219 9.140625 62.496094 9.753906 62.875 10.535156 C 63.261719 11.316406 63.542969 12.144531 63.71875 13.027344 C 63.90625 13.90625 64 14.847656 64 15.84375 C 64 16.769531 63.914062 17.65625 63.738281 18.507812 C 63.582031 19.347656 63.3125 20.175781 62.9375 21 C 62.5625 21.808594 62.007812 22.457031 61.269531 22.949219 C 60.546875 23.441406 59.6875 23.6875 58.691406 23.6875 Z M 58.691406 21.976562 C 59.355469 21.976562 59.917969 21.792969 60.382812 21.433594 C 60.859375 21.058594 61.203125 20.550781 61.421875 19.917969 C 61.652344 19.28125 61.8125 18.636719 61.898438 17.988281 C 62 17.324219 62.050781 16.609375 62.050781 15.84375 C 62.050781 15.035156 61.992188 14.289062 61.875 13.613281 C 61.777344 12.933594 61.601562 12.289062 61.355469 11.683594 C 61.125 11.0625 60.777344 10.578125 60.316406 10.230469 C 59.867188 9.886719 59.328125 9.710938 58.691406 9.710938 C 58.027344 9.710938 57.457031 9.898438 56.980469 10.273438 C 56.519531 10.636719 56.171875 11.140625 55.941406 11.792969 C 55.707031 12.425781 55.542969 13.070312 55.441406 13.71875 C 55.355469 14.371094 55.3125 15.078125 55.3125 15.84375 C 55.3125 16.652344 55.363281 17.402344 55.464844 18.097656 C 55.578125 18.777344 55.753906 19.417969 55.984375 20.023438 C 56.230469 20.632812 56.574219 21.109375 57.023438 21.453125 C 57.484375 21.800781 58.042969 21.976562 58.691406 21.976562 Z M 59.6875 16.863281 C 59.414062 17.136719 59.082031 17.273438 58.691406 17.273438 C 58.300781 17.273438 57.96875 17.136719 57.695312 16.863281 C 57.421875 16.574219 57.28125 16.242188 57.28125 15.863281 C 57.28125 15.476562 57.421875 15.144531 57.695312 14.867188 C 57.96875 14.578125 58.300781 14.433594 58.691406 14.433594 C 59.082031 14.433594 59.414062 14.578125 59.6875 14.867188 C 59.976562 15.144531 60.121094 15.476562 60.121094 15.863281 C 60.121094 16.242188 59.976562 16.574219 59.6875 16.863281 Z M 59.6875 16.863281 "/>
<path style=" stroke:none;fill-rule:nonzero;fill:url(#linear5);" d="M 12 32 L 52 32 C 54.210938 32 56 33.789062 56 36 L 56 52 C 56 54.210938 54.210938 56 52 56 L 12 56 C 9.789062 56 8 54.210938 8 52 L 8 36 C 8 33.789062 9.789062 32 12 32 Z M 12 32 "/>
</g>
</svg>
