<svg xmlns="http://www.w3.org/2000/svg" xmlns:xlink="http://www.w3.org/1999/xlink" width="64" height="64" viewBox="0 0 64 64" version="1.1">
<defs> <linearGradient id="linear0" gradientUnits="userSpaceOnUse" x1="0" y1="0" x2="0" y2="1" gradientTransform="matrix(55.992188,0,0,56,4.003906,4)"> <stop offset="0" style="stop-color:#ff6666;stop-opacity:1;"/> <stop offset="1" style="stop-color:#d90000;stop-opacity:1;"/> </linearGradient> </defs>
<g id="surface1">
<path style=" stroke:none;fill-rule:nonzero;fill:url(#linear0);fill-opacity:1;" d="M 31.890625 1.238281 C 22.5 6.640625 28.460938 20.96875 33.742188 17.933594 C 39.023438 14.894531 41.277344 -4.164062 31.890625 1.238281 "/>
<path style=" stroke:none;fill-rule:nonzero;fill:url(#linear0);fill-opacity:1;" d="M 23.058594 21.875 C 25.972656 20.425781 22.765625 7.792969 17.875 11.515625 C 12.984375 15.234375 20.148438 23.324219 23.058594 21.875 "/>
<path style=" stroke:none;fill-rule:nonzero;fill:url(#linear0);fill-opacity:1;" d="M 14.082031 36.035156 C 15.574219 34.003906 8.855469 26.433594 6.8125 30.726562 C 4.769531 35.019531 12.589844 38.058594 14.082031 36.035156 "/>
<path style=" stroke:none;fill-rule:nonzero;fill:url(#linear0);fill-opacity:1;" d="M 17.113281 28.304688 C 19.214844 26.449219 13.707031 16.648438 10.46875 20.835938 C 7.238281 25.023438 15.019531 30.15625 17.113281 28.304688 "/>
<path style=" stroke:none;fill-rule:nonzero;fill:url(#linear0);fill-opacity:1;" d="M 42.175781 42.925781 C 44.457031 45.894531 42.589844 49.082031 38.65625 48.585938 C 26.132812 46.992188 47.328125 30.421875 40.582031 22.28125 C 34.980469 15.535156 13.269531 31.082031 17.433594 44.292969 C 20.25 53.226562 35.703125 58.984375 45.179688 53.535156 C 49.847656 50.851562 52.796875 43.570312 50.722656 37.675781 C 49.136719 33.179688 40.269531 40.445312 42.175781 42.925781 "/>
</g>
</svg>
