<svg xmlns="http://www.w3.org/2000/svg" xmlns:xlink="http://www.w3.org/1999/xlink" width="64" height="64" viewBox="0 0 64 64" version="1.1">
<defs>
<linearGradient id="linear0" gradientUnits="userSpaceOnUse" x1="0" y1="0" x2="0" y2="1" gradientTransform="matrix(53.449219,0,0,53.449219,1.136719,10.550781)">
<stop offset="0" style="stop-color:#ff6666;stop-opacity:1;"/>
<stop offset="1" style="stop-color:#d90000;stop-opacity:1;"/>
</linearGradient>
<linearGradient id="linear1" gradientUnits="userSpaceOnUse" x1="0" y1="0" x2="0" y2="1" gradientTransform="matrix(36.582031,0,0,45.714844,26.28125,0)">
<stop offset="0" style="stop-color:#ff6666;stop-opacity:1;"/>
<stop offset="1" style="stop-color:#d90000;stop-opacity:1;"/>
</linearGradient>
</defs>
<g id="surface1">
<path style=" stroke:none;fill-rule:nonzero;fill:url(#linear0);" d="M 13.042969 10.554688 C 12.761719 10.535156 12.492188 10.621094 12.269531 10.847656 L 7.414062 15.699219 C 6.96875 16.148438 6.96875 16.871094 7.414062 17.316406 L 12.429688 25.191406 C 12.027344 26 11.679688 26.835938 11.386719 27.691406 L 2.28125 29.714844 C 1.648438 29.714844 1.136719 30.222656 1.136719 30.855469 L 1.136719 37.714844 C 1.136719 38.347656 1.664062 38.71875 2.28125 38.855469 L 11.394531 40.882812 C 11.675781 41.730469 12.011719 42.558594 12.402344 43.363281 L 7.378906 51.253906 C 7.039062 51.789062 6.933594 52.421875 7.378906 52.871094 L 12.226562 57.722656 C 12.675781 58.171875 13.394531 58.171875 13.84375 57.722656 L 21.738281 52.695312 C 22.554688 53.101562 23.394531 53.453125 24.257812 53.75 L 26.28125 62.855469 C 26.28125 63.492188 26.789062 64 27.425781 64 L 34.28125 64 C 34.914062 64 35.285156 63.476562 35.425781 62.855469 L 37.449219 53.746094 C 38.308594 53.457031 39.148438 53.117188 39.964844 52.71875 L 47.820312 57.722656 C 48.269531 58.171875 48.988281 58.171875 49.4375 57.722656 L 54.289062 52.871094 C 54.738281 52.421875 54.628906 51.789062 54.289062 51.253906 L 52.148438 47.886719 L 50.550781 48.527344 L 45.429688 40.847656 C 42.847656 46.585938 37.144531 50.28125 30.851562 50.285156 C 22.015625 50.285156 14.851562 43.121094 14.851562 34.285156 C 14.859375 28.113281 18.417969 22.492188 23.996094 19.847656 L 23.996094 14.929688 C 23.226562 15.191406 22.472656 15.5 21.742188 15.851562 L 13.882812 10.847656 C 13.617188 10.679688 13.324219 10.566406 13.042969 10.554688 Z M 13.042969 10.554688 "/>
<path style=" stroke:none;fill-rule:nonzero;fill:url(#linear1);" d="M 37.710938 0 L 26.28125 1.058594 L 26.28125 45.714844 L 37.710938 43.429688 L 37.710938 25.144531 L 51.425781 45.714844 L 62.851562 41.144531 L 47.996094 21.910156 L 62.863281 2.285156 L 50.894531 0 L 37.710938 19.429688 Z M 37.710938 0 "/>
</g>
</svg>
