<svg xmlns="http://www.w3.org/2000/svg" xmlns:xlink="http://www.w3.org/1999/xlink" width="64" height="64" viewBox="0 0 64 64" version="1.1">
<defs>
<filter id="alpha" filterUnits="objectBoundingBox" x="0%" y="0%" width="100%" height="100%">
  <feColorMatrix type="matrix" in="SourceGraphic" values="0 0 0 0 1 0 0 0 0 1 0 0 0 0 1 0 0 0 1 0"/>
</filter>
<mask id="mask0">
  <g filter="url(#alpha)">
<rect x="0" y="0" width="64" height="64" style="fill:rgb(0%,0%,0%);fill-opacity:0.6;stroke:none;"/>
  </g>
</mask>
<linearGradient id="linear0" gradientUnits="userSpaceOnUse" x1="0" y1="0" x2="0" y2="1" gradientTransform="matrix(52.675781,0,0,30.089844,5.785156,19.515625)">
<stop offset="0" style="stop-color:#ff6666;stop-opacity:1;"/>
<stop offset="1" style="stop-color:#d90000;stop-opacity:1;"/>
</linearGradient>
<clipPath id="clip1">
  <rect x="0" y="0" width="64" height="64"/>
</clipPath>
<g id="surface5" clip-path="url(#clip1)">
<path style=" stroke:none;fill-rule:evenodd;fill:url(#linear0);" d="M 33.796875 44.9375 L 8.039062 19.515625 L 5.785156 21.796875 L 33.960938 49.605469 L 58.460938 21.714844 L 56.050781 19.601562 Z M 33.796875 44.9375 "/>
</g>
<mask id="mask1">
  <g filter="url(#alpha)">
<rect x="0" y="0" width="64" height="64" style="fill:rgb(0%,0%,0%);fill-opacity:0.7;stroke:none;"/>
  </g>
</mask>
<linearGradient id="linear1" gradientUnits="userSpaceOnUse" x1="0" y1="0" x2="0" y2="1" gradientTransform="matrix(13.480469,0,0,13.476562,26.957031,12.464844)">
<stop offset="0" style="stop-color:#ff6666;stop-opacity:1;"/>
<stop offset="1" style="stop-color:#d90000;stop-opacity:1;"/>
</linearGradient>
<clipPath id="clip2">
  <rect x="0" y="0" width="64" height="64"/>
</clipPath>
<g id="surface8" clip-path="url(#clip2)">
<path style=" stroke:none;fill-rule:nonzero;fill:url(#linear1);" d="M 33.699219 25.941406 C 37.421875 25.941406 40.4375 22.925781 40.4375 19.203125 C 40.4375 15.480469 37.421875 12.464844 33.699219 12.464844 C 29.976562 12.464844 26.957031 15.480469 26.957031 19.203125 C 26.957031 22.925781 29.976562 25.941406 33.699219 25.941406 Z M 33.699219 25.941406 "/>
</g>
<mask id="mask2">
  <g filter="url(#alpha)">
<rect x="0" y="0" width="64" height="64" style="fill:rgb(0%,0%,0%);fill-opacity:0.7;stroke:none;"/>
  </g>
</mask>
<linearGradient id="linear2" gradientUnits="userSpaceOnUse" x1="0" y1="0" x2="0" y2="1" gradientTransform="matrix(13.480469,0,0,13.480469,0,39.421875)">
<stop offset="0" style="stop-color:#ff6666;stop-opacity:1;"/>
<stop offset="1" style="stop-color:#d90000;stop-opacity:1;"/>
</linearGradient>
<clipPath id="clip3">
  <rect x="0" y="0" width="64" height="64"/>
</clipPath>
<g id="surface11" clip-path="url(#clip3)">
<path style=" stroke:none;fill-rule:nonzero;fill:url(#linear2);" d="M 6.738281 52.902344 C 10.460938 52.902344 13.480469 49.882812 13.480469 46.160156 C 13.480469 42.4375 10.460938 39.421875 6.738281 39.421875 C 3.015625 39.421875 0 42.4375 0 46.160156 C 0 49.882812 3.015625 52.902344 6.738281 52.902344 Z M 6.738281 52.902344 "/>
</g>
<linearGradient id="linear3" gradientUnits="userSpaceOnUse" x1="0" y1="0" x2="0" y2="1" gradientTransform="matrix(13.480469,0,0,13.476562,0,12.464844)">
<stop offset="0" style="stop-color:#ff6666;stop-opacity:1;"/>
<stop offset="1" style="stop-color:#d90000;stop-opacity:1;"/>
</linearGradient>
<linearGradient id="linear4" gradientUnits="userSpaceOnUse" x1="0" y1="0" x2="0" y2="1" gradientTransform="matrix(13.480469,0,0,13.480469,26.957031,39.421875)">
<stop offset="0" style="stop-color:#ff6666;stop-opacity:1;"/>
<stop offset="1" style="stop-color:#d90000;stop-opacity:1;"/>
</linearGradient>
<linearGradient id="linear5" gradientUnits="userSpaceOnUse" x1="0" y1="0" x2="0" y2="1" gradientTransform="matrix(13.480469,0,0,13.480469,50.519531,12)">
<stop offset="0" style="stop-color:#ff6666;stop-opacity:1;"/>
<stop offset="1" style="stop-color:#d90000;stop-opacity:1;"/>
</linearGradient>
</defs>
<g id="surface1">
<use xlink:href="#surface5" mask="url(#mask0)"/>
<use xlink:href="#surface8" mask="url(#mask1)"/>
<use xlink:href="#surface11" mask="url(#mask2)"/>
<path style=" stroke:none;fill-rule:nonzero;fill:url(#linear3);" d="M 6.738281 25.941406 C 10.460938 25.941406 13.480469 22.925781 13.480469 19.203125 C 13.480469 15.480469 10.460938 12.464844 6.738281 12.464844 C 3.015625 12.464844 0 15.480469 0 19.203125 C 0 22.925781 3.015625 25.941406 6.738281 25.941406 Z M 6.738281 25.941406 "/>
<path style=" stroke:none;fill-rule:nonzero;fill:url(#linear4);" d="M 33.699219 52.902344 C 37.421875 52.902344 40.4375 49.882812 40.4375 46.160156 C 40.4375 42.4375 37.421875 39.421875 33.699219 39.421875 C 29.976562 39.421875 26.957031 42.4375 26.957031 46.160156 C 26.957031 49.882812 29.976562 52.902344 33.699219 52.902344 Z M 33.699219 52.902344 "/>
<path style=" stroke:none;fill-rule:nonzero;fill:url(#linear5);" d="M 57.261719 25.480469 C 60.984375 25.480469 64 22.460938 64 18.738281 C 64 15.015625 60.984375 12 57.261719 12 C 53.539062 12 50.519531 15.015625 50.519531 18.738281 C 50.519531 22.460938 53.539062 25.480469 57.261719 25.480469 Z M 57.261719 25.480469 "/>
</g>
</svg>
