<svg xmlns="http://www.w3.org/2000/svg" xmlns:xlink="http://www.w3.org/1999/xlink" width="64" height="64" viewBox="0 0 64 64" version="1.1">
<defs> <linearGradient id="linear0" gradientUnits="userSpaceOnUse" x1="0" y1="0" x2="0" y2="1" gradientTransform="matrix(55.992188,0,0,56,4.003906,4)"> <stop offset="0" style="stop-color:#ff6666;stop-opacity:1;"/> <stop offset="1" style="stop-color:#d90000;stop-opacity:1;"/> </linearGradient> </defs>
<g id="surface1">
<path style=" stroke:none;fill-rule:nonzero;fill:url(#linear0);fill-opacity:1;" d="M 58.945312 19.667969 C 53.8125 14.289062 45.277344 14.070312 39.875 19.175781 C 38.183594 20.773438 37.003906 22.707031 36.328125 24.765625 C 36.328125 24.769531 36.308594 24.777344 36.308594 24.789062 L 0.953125 23.871094 L -2.964844 27.570312 L 0.753906 31.464844 L 3.292969 31.535156 L 5.902344 29.070312 L 8.378906 31.664062 L 10.925781 31.730469 L 13.402344 34.328125 L 15.9375 34.394531 L 18.550781 31.929688 L 21.089844 31.992188 L 23.570312 34.59375 L 26.179688 32.121094 L 36.109375 32.382812 C 36.109375 32.386719 36.128906 32.394531 36.128906 32.398438 C 36.691406 34.492188 37.773438 36.484375 39.382812 38.167969 C 44.511719 43.546875 53.046875 43.765625 58.445312 38.660156 L 58.484375 38.621094 C 63.863281 33.507812 64.0625 25.035156 58.945312 19.667969 Z M 55.585938 26.550781 C 56.945312 27.984375 56.882812 30.25 55.453125 31.613281 C 54.011719 32.976562 51.734375 32.917969 50.363281 31.484375 C 48.996094 30.046875 49.054688 27.777344 50.496094 26.417969 C 51.9375 25.054688 54.214844 25.117188 55.585938 26.550781 Z M 55.585938 26.550781 "/>
</g>
</svg>
