<svg xmlns="http://www.w3.org/2000/svg" xmlns:xlink="http://www.w3.org/1999/xlink" width="64px" height="64px" viewBox="0 0 64 64" version="1.1">
<defs>
<linearGradient id="linear0" gradientUnits="userSpaceOnUse" x1="0" y1="128" x2="128" y2="0" gradientTransform="matrix(0.432432,0,0,0.432432,4.324324,4.324324)">
<stop offset="0" style="stop-color:#ff6666;stop-opacity:1;"/>
<stop offset="1" style="stop-color:#d90000;stop-opacity:1;"/>
</linearGradient>
</defs>
<g id="surface1">
<path style=" stroke:none;fill-rule:nonzero;fill:url(#linear0);" d="M 11.832031 12.242188 C 10.4375 12.242188 9.289062 13.390625 9.289062 14.785156 L 9.289062 28.933594 C 9.289062 30.324219 10.4375 31.472656 11.832031 31.472656 L 28.683594 31.472656 C 30.074219 31.472656 31.222656 30.324219 31.222656 28.933594 L 31.222656 14.785156 C 31.222656 13.390625 30.074219 12.242188 28.683594 12.242188 Z M 36.75 12.242188 C 35.695312 12.242188 34.84375 13.09375 34.84375 14.148438 L 34.84375 29.566406 C 34.84375 30.621094 35.695312 31.472656 36.75 31.472656 L 52.804688 31.472656 C 53.859375 31.472656 54.710938 30.621094 54.710938 29.566406 L 54.710938 14.148438 C 54.710938 13.09375 53.859375 12.242188 52.804688 12.242188 Z M 11.832031 13.824219 L 28.683594 13.824219 C 29.222656 13.824219 29.640625 14.242188 29.640625 14.785156 L 29.640625 28.933594 C 29.640625 29.472656 29.222656 29.878906 28.683594 29.878906 L 11.832031 29.878906 C 11.289062 29.878906 10.871094 29.472656 10.871094 28.933594 L 10.871094 14.785156 C 10.871094 14.242188 11.289062 13.824219 11.832031 13.824219 Z M 11.183594 32.527344 C 10.128906 32.527344 9.289062 33.378906 9.289062 34.433594 L 9.289062 49.851562 C 9.289062 50.90625 10.128906 51.757812 11.183594 51.757812 L 39.925781 51.757812 C 40.980469 51.757812 41.816406 50.90625 41.816406 49.851562 L 41.816406 34.433594 C 41.816406 33.378906 40.980469 32.527344 39.925781 32.527344 Z M 11.183594 32.527344 "/>
</g>
</svg>
