<svg xmlns="http://www.w3.org/2000/svg" xmlns:xlink="http://www.w3.org/1999/xlink" width="64" height="64" viewBox="0 0 64 64" version="1.1">
<defs> <linearGradient id="linear0" gradientUnits="userSpaceOnUse" x1="0" y1="0" x2="0" y2="1" gradientTransform="matrix(55.992188,0,0,56,4.003906,4)"> <stop offset="0" style="stop-color:#ff6666;stop-opacity:1;"/> <stop offset="1" style="stop-color:#d90000;stop-opacity:1;"/> </linearGradient> </defs>
<g id="surface1">
<path style=" stroke:none;fill-rule:nonzero;fill:url(#linear0);fill-opacity:1;" d="M 11.914062 8.460938 C 10.140625 8.460938 8.726562 9.917969 8.726562 11.679688 L 8.726562 28.078125 C 8.726562 29.835938 10.140625 31.234375 11.914062 31.234375 L 31.628906 31.234375 C 33.402344 31.234375 34.867188 29.835938 34.867188 28.078125 L 34.867188 11.679688 C 34.867188 9.917969 33.402344 8.460938 31.628906 8.460938 Z M 27.007812 13.808594 C 28.445312 13.808594 29.550781 14.109375 30.347656 14.730469 C 31.140625 15.359375 31.574219 16.265625 31.574219 17.382812 C 31.574219 18.027344 31.402344 18.601562 31.066406 19.160156 C 30.726562 19.71875 29.988281 20.511719 28.910156 21.457031 L 26.386719 23.644531 L 31.628906 23.644531 L 31.628906 25.941406 L 22.953125 25.941406 L 22.953125 23.644531 L 27.3125 19.828125 C 27.707031 19.476562 28 19.136719 28.1875 18.804688 C 28.375 18.46875 28.445312 18.152344 28.445312 17.792969 C 28.445312 17.230469 28.257812 16.757812 27.875 16.410156 C 27.5 16.074219 27.011719 15.898438 26.386719 15.898438 C 25.90625 15.898438 25.371094 16.003906 24.796875 16.207031 C 24.226562 16.410156 23.605469 16.722656 22.953125 17.125 L 22.953125 14.535156 C 23.644531 14.300781 24.328125 14.132812 25.003906 14.019531 C 25.683594 13.894531 26.355469 13.816406 27.007812 13.816406 M 11.914062 14.019531 L 20.226562 14.019531 L 20.226562 16.359375 L 14.992188 16.359375 L 14.992188 18.554688 L 19.921875 18.554688 L 19.921875 20.894531 L 14.992188 20.894531 L 14.992188 25.941406 L 11.914062 25.941406 L 11.914062 14.019531 M 11.871094 34.984375 C 10.101562 34.984375 8.691406 36.386719 8.691406 38.144531 L 8.691406 53.730469 C 8.691406 55.492188 10.101562 56.886719 11.871094 56.886719 L 53.160156 56.886719 C 54.929688 56.886719 56.34375 55.492188 56.34375 53.730469 L 56.34375 38.144531 C 56.34375 36.386719 54.929688 34.984375 53.160156 34.984375 Z M 33.753906 39.105469 L 36.941406 39.105469 L 36.941406 52.765625 L 33.753906 52.765625 Z M 23.226562 39.671875 L 27.28125 39.671875 L 32.160156 52.765625 L 28.773438 52.765625 L 27.898438 50.371094 L 22.613281 50.371094 L 21.789062 52.765625 L 18.347656 52.765625 Z M 40.273438 40.179688 L 43.402344 40.179688 L 43.402344 42.929688 L 46.695312 42.929688 L 46.695312 45.175781 L 43.402344 45.175781 L 43.402344 49.347656 C 43.402344 49.808594 43.535156 50.101562 43.714844 50.265625 C 43.898438 50.421875 44.253906 50.523438 44.792969 50.523438 L 46.433594 50.523438 L 46.433594 52.765625 L 43.714844 52.765625 C 42.472656 52.765625 41.566406 52.515625 41.039062 52 C 40.523438 51.480469 40.273438 50.585938 40.273438 49.347656 L 40.273438 45.175781 L 38.675781 45.175781 L 38.675781 42.929688 L 40.273438 42.929688 L 40.273438 40.179688 M 25.273438 42.730469 L 23.480469 47.972656 L 27.074219 47.972656 Z M 25.273438 42.730469 "/>
</g>
</svg>
