<svg xmlns="http://www.w3.org/2000/svg" xmlns:xlink="http://www.w3.org/1999/xlink" width="64" height="64" viewBox="0 0 64 64" version="1.1">
<defs> <linearGradient id="linear0" gradientUnits="userSpaceOnUse" x1="0" y1="0" x2="0" y2="1" gradientTransform="matrix(55.992188,0,0,56,4.003906,4)"> <stop offset="0" style="stop-color:#ff6666;stop-opacity:1;"/> <stop offset="1" style="stop-color:#d90000;stop-opacity:1;"/> </linearGradient> </defs>
<g id="surface1">
<path style=" stroke:none;fill-rule:nonzero;fill:url(#linear0);fill-opacity:1;" d="M 24.605469 9.699219 C 23.730469 9.691406 21.964844 10.164062 21.105469 10.625 C 18.996094 11.761719 17.652344 13.84375 17.320312 16.507812 C 17.238281 17.105469 17.199219 17.167969 16.722656 17.316406 C 15.042969 17.855469 12.964844 19.308594 10.730469 21.5 C 6.835938 25.347656 4.007812 29.917969 2.917969 34.136719 C 2.472656 35.84375 2.460938 38.316406 2.898438 40.0625 C 3.945312 44.28125 7.097656 47.699219 11.230469 49.101562 C 11.980469 49.355469 12.996094 49.621094 13.492188 49.6875 C 17.539062 50.257812 21.550781 48.96875 24.410156 46.183594 C 25.566406 45.054688 26.382812 43.96875 27.011719 42.71875 C 27.523438 41.714844 28.097656 39.808594 28.195312 38.808594 C 28.234375 38.332031 28.320312 37.941406 28.375 37.941406 C 28.433594 37.941406 28.808594 38.09375 29.222656 38.28125 C 30.875 39.039062 33.230469 39.035156 34.882812 38.28125 C 35.296875 38.09375 35.679688 37.941406 35.734375 37.941406 C 35.792969 37.941406 35.878906 38.332031 35.921875 38.808594 C 36.015625 39.808594 36.585938 41.714844 37.09375 42.71875 C 38.117188 44.734375 40.058594 46.828125 41.972656 47.964844 C 44.386719 49.398438 47.371094 50.054688 50.09375 49.738281 C 55.511719 49.105469 59.921875 45.265625 61.210938 40.0625 C 61.644531 38.320312 61.636719 35.84375 61.199219 34.136719 C 60.109375 29.917969 57.277344 25.347656 53.375 21.5 C 51.148438 19.308594 49.070312 17.855469 47.394531 17.316406 C 46.917969 17.167969 46.871094 17.105469 46.796875 16.507812 C 46.367188 13.097656 44.386719 10.773438 41.222656 9.964844 C 39.945312 9.640625 39.207031 9.625 37.894531 9.902344 C 35.066406 10.496094 32.800781 12.773438 32.226562 15.609375 L 32.042969 16.46875 L 31.886719 15.613281 C 31.25 12.265625 28.097656 9.710938 24.605469 9.699219 M 32.011719 27.964844 C 32.539062 27.953125 33.074219 28.0625 33.582031 28.304688 C 36.371094 29.617188 36.46875 33.496094 33.75 34.820312 C 31.175781 36.074219 28.363281 34.34375 28.375 31.523438 C 28.386719 29.527344 30.128906 28.011719 32.011719 27.964844 M 15.4375 27.972656 C 18.046875 27.972656 20.101562 28.84375 21.980469 30.730469 C 23.28125 32.039062 23.984375 33.246094 24.410156 34.898438 C 24.707031 36.046875 24.707031 38.152344 24.410156 39.257812 C 23.539062 42.515625 20.980469 45.085938 17.8125 45.90625 C 16.90625 46.136719 14.980469 46.277344 14.257812 46.160156 C 10.453125 45.554688 7.402344 42.878906 6.464844 39.328125 C 6.152344 38.144531 6.148438 36.074219 6.449219 34.894531 C 6.871094 33.269531 7.589844 32.042969 8.898438 30.730469 C 9.855469 29.769531 10.3125 29.425781 11.265625 28.960938 C 12.820312 28.207031 13.820312 27.972656 15.4375 27.972656 M 48.671875 27.972656 C 51.273438 27.972656 53.328125 28.835938 55.214844 30.726562 C 57.09375 32.613281 57.894531 34.53125 57.890625 37.109375 C 57.882812 38.726562 57.601562 39.859375 56.832031 41.335938 C 55.71875 43.476562 53.433594 45.289062 51.058594 45.898438 C 50.136719 46.136719 48.21875 46.277344 47.492188 46.160156 C 42.785156 45.414062 39.488281 41.695312 39.472656 37.109375 C 39.460938 34.539062 40.269531 32.601562 42.128906 30.730469 C 43.089844 29.765625 43.539062 29.425781 44.5 28.960938 C 46.054688 28.207031 47.054688 27.972656 48.671875 27.972656 "/>
</g>
</svg>
