<svg xmlns="http://www.w3.org/2000/svg" xmlns:xlink="http://www.w3.org/1999/xlink" width="64" height="64" viewBox="0 0 64 64" version="1.1">
<defs> <linearGradient id="linear0" gradientUnits="userSpaceOnUse" x1="0" y1="0" x2="0" y2="1" gradientTransform="matrix(55.992188,0,0,56,4.003906,4)"> <stop offset="0" style="stop-color:#ff6666;stop-opacity:1;"/> <stop offset="1" style="stop-color:#d90000;stop-opacity:1;"/> </linearGradient> </defs>
<g id="surface1">
<path style=" stroke:none;fill-rule:nonzero;fill:url(#linear0);fill-opacity:1;" d="M 32.054688 3.132812 C 28.035156 3.132812 24.753906 6.402344 24.753906 10.40625 C 24.753906 14.402344 28.035156 17.605469 32.054688 17.605469 C 36.078125 17.605469 39.359375 14.402344 39.359375 10.40625 C 39.359375 6.402344 36.078125 3.132812 32.054688 3.132812 M 32.054688 22.402344 C 28.035156 22.402344 24.753906 25.675781 24.753906 29.671875 C 24.753906 33.675781 28.035156 36.871094 32.054688 36.871094 C 36.078125 36.871094 39.359375 33.675781 39.359375 29.671875 C 39.359375 25.675781 36.078125 22.402344 32.054688 22.402344 M 12.707031 41.667969 C 8.6875 41.667969 5.40625 44.941406 5.40625 48.941406 C 5.40625 52.945312 8.6875 56.21875 12.707031 56.21875 C 16.722656 56.21875 19.929688 52.945312 19.929688 48.941406 C 19.929688 44.941406 16.722656 41.667969 12.707031 41.667969 M 32.054688 41.667969 C 28.035156 41.667969 24.753906 44.941406 24.753906 48.941406 C 24.753906 52.945312 28.035156 56.21875 32.054688 56.21875 C 36.078125 56.21875 39.359375 52.945312 39.359375 48.941406 C 39.359375 44.941406 36.078125 41.667969 32.054688 41.667969 M 51.40625 41.667969 C 47.390625 41.667969 44.179688 44.941406 44.179688 48.941406 C 44.179688 52.945312 47.390625 56.21875 51.40625 56.21875 C 55.425781 56.21875 58.707031 52.945312 58.707031 48.941406 C 58.707031 44.941406 55.425781 41.667969 51.40625 41.667969 "/>
</g>
</svg>
