<svg xmlns="http://www.w3.org/2000/svg" xmlns:xlink="http://www.w3.org/1999/xlink" width="64" height="64" viewBox="0 0 64 64" version="1.1">
<defs> <linearGradient id="linear0" gradientUnits="userSpaceOnUse" x1="0" y1="0" x2="0" y2="1" gradientTransform="matrix(55.992188,0,0,56,4.003906,4)"> <stop offset="0" style="stop-color:#ff6666;stop-opacity:1;"/> <stop offset="1" style="stop-color:#d90000;stop-opacity:1;"/> </linearGradient> </defs>
<g id="surface1">
<path style=" stroke:none;fill-rule:nonzero;fill:url(#linear0);fill-opacity:1;" d="M 25.082031 2.980469 C 24.945312 2.980469 24.820312 3.007812 24.703125 3.058594 C 24.589844 3.109375 24.480469 3.179688 24.394531 3.269531 C 24.304688 3.359375 24.226562 3.460938 24.179688 3.578125 C 24.128906 3.691406 24.101562 3.824219 24.101562 3.957031 L 24.101562 4.9375 L 40.011719 4.9375 L 40.011719 3.957031 C 40.011719 3.824219 39.988281 3.691406 39.9375 3.578125 C 39.886719 3.460938 39.820312 3.359375 39.726562 3.269531 C 39.636719 3.179688 39.53125 3.109375 39.410156 3.058594 C 39.296875 3.007812 39.171875 2.980469 39.035156 2.980469 L 25.078125 2.980469 M 24.101562 7.375 L 24.101562 9.332031 L 40.011719 9.332031 L 40.011719 7.375 Z M 24.101562 11.773438 L 24.101562 13.726562 L 40.011719 13.726562 L 40.011719 11.773438 Z M 24.101562 16.175781 L 24.101562 17.703125 C 24.101562 17.722656 24.09375 17.746094 24.09375 17.769531 L 24.09375 40.039062 C 21.230469 39.710938 18.652344 39.269531 15.898438 38.886719 C 15.824219 38.875 15.757812 38.875 15.683594 38.878906 C 15.28125 38.902344 14.898438 39.167969 14.734375 39.535156 C 14.570312 39.910156 14.628906 40.367188 14.878906 40.683594 L 31.179688 60.914062 C 31.414062 61.207031 31.667969 61.46875 32.125 61.332031 C 32.511719 61.207031 34.589844 58.84375 35.46875 57.757812 C 36.996094 55.859375 39.03125 53.324219 41.074219 50.796875 C 45.152344 45.742188 49.234375 40.683594 49.234375 40.683594 C 49.511719 40.34375 49.554688 39.832031 49.335938 39.445312 C 49.128906 39.0625 48.667969 38.828125 48.230469 38.886719 C 45.09375 39.257812 42.625 39.683594 40.011719 40 L 40.011719 16.175781 L 24.105469 16.175781 "/>
</g>
</svg>
