<svg xmlns="http://www.w3.org/2000/svg" xmlns:xlink="http://www.w3.org/1999/xlink" width="64" height="64" viewBox="0 0 64 64" version="1.1">
<defs> <linearGradient id="linear0" gradientUnits="userSpaceOnUse" x1="0" y1="0" x2="0" y2="1" gradientTransform="matrix(55.992188,0,0,56,4.003906,4)"> <stop offset="0" style="stop-color:#ff6666;stop-opacity:1;"/> <stop offset="1" style="stop-color:#d90000;stop-opacity:1;"/> </linearGradient> </defs>
<g id="surface1">
<path style=" stroke:none;fill-rule:nonzero;fill:url(#linear0);fill-opacity:1;" d="M 10.09375 33.898438 C 13.304688 30.695312 18.511719 30.695312 21.714844 33.898438 C 22.128906 34.304688 22.480469 34.753906 22.789062 35.222656 L 48.667969 9.449219 C 49.582031 8.535156 51.070312 8.535156 51.988281 9.449219 L 54.015625 11.46875 C 54.9375 12.378906 54.9375 13.859375 54.015625 14.777344 L 51.625 17.160156 L 55.742188 21.257812 C 56.632812 22.144531 56.632812 23.59375 55.742188 24.480469 C 54.851562 25.371094 53.398438 25.371094 52.507812 24.480469 L 48.390625 20.382812 L 47.480469 21.285156 L 51.597656 25.386719 C 52.488281 26.28125 52.488281 27.722656 51.597656 28.609375 C 50.699219 29.503906 49.253906 29.503906 48.359375 28.609375 L 44.242188 24.511719 L 28.136719 40.550781 C 28.609375 40.847656 29.058594 41.203125 29.464844 41.613281 C 32.675781 44.808594 32.675781 49.992188 29.464844 53.1875 C 26.84375 55.800781 22.890625 56.269531 19.785156 54.621094 C 16.671875 56.269531 12.71875 55.796875 10.09375 53.1875 C 7.464844 50.570312 6.996094 46.632812 8.660156 43.539062 C 6.996094 40.441406 7.472656 36.503906 10.09375 33.890625 M 13.621094 49.675781 C 15.097656 51.148438 17.496094 51.148438 18.972656 49.675781 C 19.296875 49.355469 19.535156 48.988281 19.714844 48.597656 C 21.300781 50.0625 23.777344 50.039062 25.316406 48.5 C 26.894531 46.929688 26.894531 44.378906 25.316406 42.804688 C 24.308594 41.796875 22.902344 41.441406 21.605469 41.71875 C 21.886719 40.429688 21.527344 39.027344 20.515625 38.027344 C 18.9375 36.453125 16.375 36.453125 14.796875 38.027344 C 13.257812 39.566406 13.230469 42.023438 14.699219 43.609375 C 14.316406 43.789062 13.941406 44.027344 13.617188 44.34375 C 12.140625 45.820312 12.140625 48.207031 13.621094 49.675781 "/>
</g>
</svg>
