<svg xmlns="http://www.w3.org/2000/svg" xmlns:xlink="http://www.w3.org/1999/xlink" width="64" height="64" viewBox="0 0 64 64" version="1.1">
<defs>
<linearGradient id="linear0" gradientUnits="userSpaceOnUse" x1="0" y1="0" x2="0" y2="1" gradientTransform="matrix(64,0,0,52.140625,0,5.929688)">
<stop offset="0" style="stop-color:#ff6666;stop-opacity:1;"/>
<stop offset="1" style="stop-color:#d90000;stop-opacity:1;"/>
</linearGradient>
</defs>
<g id="surface1">
<path style=" stroke:none;fill-rule:nonzero;fill:url(#linear0);" d="M 63.996094 5.929688 L 31.90625 5.945312 L 14.097656 36.792969 L 7.855469 25.980469 L 0.00390625 26.371094 L 0.00390625 30.382812 L 5.730469 30.382812 L 14.289062 45.195312 L 16.414062 40.804688 L 34.234375 9.941406 L 64 9.953125 Z M 43.941406 17.960938 C 37.277344 17.960938 31.90625 23.328125 31.90625 29.996094 C 31.90625 36.660156 37.277344 42.027344 43.941406 42.027344 C 47.039062 42.027344 49.832031 40.832031 51.964844 38.921875 L 51.964844 42.027344 L 55.972656 42.027344 L 55.972656 17.960938 L 51.964844 17.960938 L 51.964844 21.066406 C 49.832031 19.15625 47.039062 17.960938 43.941406 17.960938 M 43.941406 21.972656 C 48.382812 21.972656 51.964844 25.550781 51.964844 29.996094 C 51.964844 34.441406 48.382812 38.015625 43.941406 38.015625 C 39.496094 38.015625 35.921875 34.441406 35.921875 29.996094 C 35.921875 25.550781 39.496094 21.972656 43.941406 21.972656 M 0.0390625 46.386719 C 0.015625 46.386719 0 47.285156 0 48.390625 C 0 49.503906 0.015625 50.398438 0.0390625 50.398438 L 63.957031 50.007812 C 63.980469 50.007812 63.996094 49.117188 63.996094 48.003906 C 63.996094 46.890625 63.980469 45.996094 63.957031 45.996094 Z M 23.882812 54.058594 L 23.882812 58.070312 L 39.929688 58.070312 L 39.929688 54.058594 Z M 23.882812 54.058594 "/>
</g>
</svg>
