<svg xmlns="http://www.w3.org/2000/svg" xmlns:xlink="http://www.w3.org/1999/xlink" width="64" height="64" viewBox="0 0 64 64" version="1.1">
<defs>
<linearGradient id="linear0" gradientUnits="userSpaceOnUse" x1="0" y1="0" x2="0" y2="1" gradientTransform="matrix(64,0,0,56.886719,0,4)">
<stop offset="0" style="stop-color:#ff6666;stop-opacity:1;"/>
<stop offset="1" style="stop-color:#d90000;stop-opacity:1;"/>
</linearGradient>
</defs>
<g id="surface1">
<path style=" stroke:none;fill-rule:nonzero;fill:url(#linear0);" d="M 26.589844 4 C 21.253906 4 21.253906 7.554688 21.242188 11.109375 C 21.203125 13.308594 21.214844 17.894531 21.253906 24.660156 C 21.320312 35.472656 21.300781 38.867188 21.171875 39.332031 C 17.484375 38.945312 11.910156 37.457031 9.414062 35.480469 C 7.785156 34.1875 6.167969 33 5.824219 32.847656 C 4.390625 32.214844 2.359375 32.613281 1.195312 33.765625 C 0.390625 34.5625 0.09375 35.273438 0.0234375 36.550781 C -0.03125 37.527344 0 37.757812 0.300781 38.40625 C 0.488281 38.8125 0.828125 39.359375 1.054688 39.621094 C 1.285156 39.882812 4.386719 43.90625 7.957031 48.570312 C 14.5625 57.210938 21.136719 60.414062 22.269531 60.734375 C 22.960938 60.933594 58.671875 60.941406 59.390625 60.742188 C 59.714844 60.652344 60.1875 60.355469 60.523438 60.019531 C 60.992188 59.554688 61.171875 59.210938 61.535156 58.082031 C 62.585938 54.851562 63.628906 49.933594 63.925781 47.203125 C 64.054688 44.027344 63.988281 43.90625 63.925781 41.332031 C 63.925781 41.285156 63.914062 41.242188 63.914062 41.195312 C 63.917969 38.90625 63.933594 36.976562 63.914062 36 C 63.925781 32.445312 63.929688 28.890625 58.605469 28.890625 C 53.800781 28.890625 53.351562 31.800781 53.296875 34.980469 C 53.289062 35.066406 53.261719 35.152344 53.261719 35.238281 C 53.265625 34.378906 53.273438 32.96875 53.261719 32.445312 C 53.273438 28.890625 53.273438 25.332031 47.949219 25.332031 C 43.171875 25.332031 42.699219 28.207031 42.640625 31.359375 C 42.625 31.367188 42.613281 31.375 42.597656 31.382812 C 42.597656 31.363281 42.59375 31.191406 42.589844 31.152344 C 42.589844 30.515625 42.597656 29.316406 42.589844 28.890625 C 42.601562 25.332031 42.601562 21.777344 37.277344 21.777344 C 33.226562 21.777344 32.253906 23.835938 32.015625 26.382812 C 32.011719 26.382812 31.925781 26.402344 31.925781 26.402344 C 31.851562 26.429688 31.914062 22.082031 31.914062 17.402344 C 31.914062 14.199219 31.933594 12.292969 31.914062 11.113281 C 31.921875 7.554688 31.925781 4 26.589844 4 Z M 26.589844 4 "/>
</g>
</svg>
