<svg xmlns="http://www.w3.org/2000/svg" xmlns:xlink="http://www.w3.org/1999/xlink" width="64" height="64" viewBox="0 0 64 64" version="1.1">
<defs>
<linearGradient id="linear0" gradientUnits="userSpaceOnUse" x1="0" y1="0" x2="0" y2="1" gradientTransform="matrix(56,0,0,51.695312,4,6.152344)">
<stop offset="0" style="stop-color:#ff6666;stop-opacity:1;"/>
<stop offset="1" style="stop-color:#d90000;stop-opacity:1;"/>
</linearGradient>
<linearGradient id="linear1" gradientUnits="userSpaceOnUse" x1="0" y1="0" x2="0" y2="1" gradientTransform="matrix(56,0,0,51.695312,4,6.152344)">
<stop offset="0" style="stop-color:#ff6666;stop-opacity:1;"/>
<stop offset="1" style="stop-color:#d90000;stop-opacity:1;"/>
</linearGradient>
<linearGradient id="linear2" gradientUnits="userSpaceOnUse" x1="0" y1="0" x2="0" y2="1" gradientTransform="matrix(56,0,0,51.695312,4,6.152344)">
<stop offset="0" style="stop-color:#ff6666;stop-opacity:1;"/>
<stop offset="1" style="stop-color:#d90000;stop-opacity:1;"/>
</linearGradient>
<linearGradient id="linear3" gradientUnits="userSpaceOnUse" x1="0" y1="0" x2="0" y2="1" gradientTransform="matrix(56,0,0,51.695312,4,6.152344)">
<stop offset="0" style="stop-color:#ff6666;stop-opacity:1;"/>
<stop offset="1" style="stop-color:#d90000;stop-opacity:1;"/>
</linearGradient>
<linearGradient id="linear4" gradientUnits="userSpaceOnUse" x1="0" y1="0" x2="0" y2="1" gradientTransform="matrix(56,0,0,51.695312,4,6.152344)">
<stop offset="0" style="stop-color:#ff6666;stop-opacity:1;"/>
<stop offset="1" style="stop-color:#d90000;stop-opacity:1;"/>
</linearGradient>
<linearGradient id="linear5" gradientUnits="userSpaceOnUse" x1="0" y1="0" x2="0" y2="1" gradientTransform="matrix(56,0,0,51.695312,4,6.152344)">
<stop offset="0" style="stop-color:#ff6666;stop-opacity:1;"/>
<stop offset="1" style="stop-color:#d90000;stop-opacity:1;"/>
</linearGradient>
</defs>
<g id="surface1">
<path style=" stroke:none;fill-rule:nonzero;fill:url(#linear0);" d="M 52.269531 15.988281 C 53.320312 18.691406 51.984375 21.738281 49.28125 22.792969 C 48.230469 20.089844 49.566406 17.042969 52.269531 15.988281 Z M 42.84375 7 C 45.035156 8.902344 45.269531 12.222656 43.363281 14.410156 C 42.214844 13.414062 41.554688 11.964844 41.554688 10.441406 C 41.554688 9.21875 41.980469 7.996094 42.84375 7 Z M 46.042969 18.308594 C 43.847656 20.207031 40.53125 19.964844 38.632812 17.773438 C 39.585938 16.945312 40.804688 16.492188 42.066406 16.492188 C 43.539062 16.492188 45.003906 17.109375 46.042969 18.3125 Z M 46.042969 18.308594 "/>
<path style=" stroke:none;fill-rule:nonzero;fill:url(#linear1);" d="M 50.808594 33.511719 L 50.765625 33.511719 C 50.410156 33.488281 50.144531 33.183594 50.167969 32.828125 C 50.765625 23.761719 45.566406 15.238281 37.230469 11.625 C 37.015625 11.539062 36.863281 11.339844 36.835938 11.109375 C 36.808594 10.878906 36.90625 10.648438 37.09375 10.511719 C 37.28125 10.375 37.53125 10.347656 37.742188 10.445312 C 46.574219 14.277344 52.082031 23.304688 51.449219 32.914062 C 51.425781 33.25 51.144531 33.511719 50.808594 33.515625 Z M 50.808594 33.511719 "/>
<path style=" stroke:none;fill-rule:nonzero;fill:url(#linear2);" d="M 51.609375 27.058594 L 51.480469 27.113281 C 49.003906 28.1875 47.542969 30.777344 47.898438 33.453125 C 48.507812 38.054688 46.804688 42.367188 43.742188 45.308594 C 41.140625 47.8125 37.660156 49.195312 34.050781 49.164062 C 33.675781 49.164062 33.308594 49.238281 32.964844 49.386719 C 32.75 49.480469 32.546875 49.601562 32.363281 49.753906 C 30.398438 51.355469 28.992188 53.542969 28.355469 55.996094 C 28.191406 56.625 27.601562 57.046875 26.953125 56.996094 C 22.441406 56.667969 20.195312 53.964844 19.195312 52.195312 C 19 51.847656 18.96875 51.429688 19.109375 51.058594 C 19.25 50.6875 19.550781 50.394531 19.929688 50.269531 C 23.492188 49.0625 26.109375 46.292969 26.976562 45.289062 C 27.03125 45.21875 27.085938 45.15625 27.125 45.105469 L 27.257812 44.949219 L 27.28125 44.914062 C 26.820312 44.851562 26.355469 44.78125 25.894531 44.695312 C 25.066406 44.546875 24.28125 44.363281 23.542969 44.148438 C 22.578125 43.878906 21.632812 43.535156 20.71875 43.125 C 20.070312 42.832031 19.4375 42.5 18.832031 42.128906 C 17.753906 41.472656 16.761719 40.6875 15.878906 39.785156 C 15.410156 39.304688 14.972656 38.792969 14.570312 38.25 C 13.976562 37.4375 13.464844 36.570312 13.039062 35.660156 L 13.039062 35.65625 C 12.742188 35.015625 12.484375 34.351562 12.269531 33.675781 C 11.96875 32.726562 11.746094 31.75 11.597656 30.765625 C 11.511719 30.179688 11.449219 29.59375 11.414062 29.003906 C 11.285156 26.949219 11.503906 25.546875 11.503906 25.546875 C 13.71875 26.929688 16.066406 27.40625 18.371094 27.4375 C 22.617188 27.496094 26.707031 26.0625 29.507812 26.078125 C 33.820312 26.105469 37.90625 29.710938 37.90625 29.710938 L 37.917969 29.6875 C 39.71875 25.824219 41.738281 24.601562 43.40625 24.417969 C 43.851562 24.367188 44.300781 24.390625 44.738281 24.476562 C 45.519531 24.628906 46.253906 24.964844 46.882812 25.449219 C 49.027344 27.621094 51.609375 27.058594 51.609375 27.058594 Z M 51.609375 27.058594 "/>
<path style=" stroke:none;fill-rule:nonzero;fill:url(#linear3);" d="M 44.738281 24.476562 C 44.652344 24.496094 40.246094 25.644531 40.734375 32.046875 L 37.917969 29.683594 C 39.71875 25.824219 41.738281 24.601562 43.40625 24.414062 C 43.851562 24.367188 44.300781 24.386719 44.738281 24.476562 Z M 28.84375 45.003906 C 34.964844 43.964844 39.921875 42.035156 38.289062 38.4375 C 34.722656 30.585938 14.289062 33.378906 12.269531 33.675781 C 13.769531 38.390625 17.640625 43.640625 27.28125 44.914062 L 27.253906 44.949219 C 27.230469 44.980469 27.1875 45.035156 27.125 45.105469 C 26.460938 45.910156 23.730469 48.984375 19.921875 50.269531 C 19.542969 50.402344 19.246094 50.691406 19.105469 51.0625 C 18.964844 51.4375 19 51.851562 19.195312 52.195312 C 20.195312 53.964844 22.441406 56.664062 26.953125 56.996094 C 27.601562 57.046875 28.191406 56.625 28.355469 56 C 28.992188 53.542969 30.394531 51.355469 32.363281 49.753906 C 32.839844 49.367188 33.4375 49.160156 34.050781 49.164062 C 37.660156 49.195312 41.140625 47.8125 43.742188 45.308594 C 36.855469 47.859375 29.832031 45.378906 28.84375 45.003906 Z M 28.84375 45.003906 "/>
<path style=" stroke:none;fill-rule:nonzero;fill:url(#linear4);" d="M 18.371094 31.089844 C 18.367188 31.523438 18.015625 31.875 17.582031 31.871094 C 15.15625 31.855469 13.015625 31.273438 11.597656 30.765625 C 11.511719 30.179688 11.449219 29.59375 11.414062 29.003906 C 11.746094 29.140625 12.164062 29.296875 12.652344 29.457031 C 13.925781 29.871094 15.675781 30.289062 17.589844 30.300781 C 18.023438 30.304688 18.375 30.65625 18.371094 31.089844 Z M 18.78125 34.304688 C 18.917969 34.714844 18.691406 35.160156 18.28125 35.296875 C 16.90625 35.742188 14.746094 35.746094 13.039062 35.65625 C 12.792969 35.128906 12.578125 34.589844 12.390625 34.039062 C 14.152344 34.167969 16.519531 34.21875 17.789062 33.800781 C 18.203125 33.664062 18.648438 33.890625 18.78125 34.304688 Z M 19.71875 38.953125 C 19.625 39.003906 19.527344 39.050781 19.429688 39.09375 C 18.40625 39.539062 17.042969 39.71875 15.878906 39.785156 C 15.40625 39.304688 14.972656 38.789062 14.570312 38.25 C 15.835938 38.253906 17.675781 38.140625 18.789062 37.65625 C 18.859375 37.625 18.925781 37.59375 18.992188 37.5625 C 19.175781 37.464844 19.390625 37.445312 19.589844 37.507812 C 19.789062 37.570312 19.953125 37.707031 20.050781 37.894531 C 20.148438 38.078125 20.167969 38.292969 20.105469 38.492188 C 20.042969 38.691406 19.902344 38.859375 19.71875 38.953125 Z M 22.964844 41.984375 C 22.558594 42.292969 21.980469 42.589844 21.367188 42.859375 C 21.152344 42.949219 20.9375 43.039062 20.71875 43.125 C 20.070312 42.832031 19.4375 42.5 18.832031 42.128906 C 19.96875 41.75 21.367188 41.21875 22.023438 40.730469 C 22.246094 40.550781 22.550781 40.507812 22.8125 40.617188 C 23.078125 40.730469 23.261719 40.972656 23.292969 41.257812 C 23.324219 41.542969 23.199219 41.820312 22.964844 41.984375 Z M 27.386719 43.671875 C 27.070312 43.984375 26.492188 44.355469 25.894531 44.695312 C 25.101562 44.550781 24.316406 44.371094 23.542969 44.148438 C 24.507812 43.679688 25.882812 42.949219 26.28125 42.554688 C 26.480469 42.355469 26.773438 42.277344 27.046875 42.351562 C 27.316406 42.425781 27.53125 42.640625 27.601562 42.914062 C 27.671875 43.1875 27.589844 43.476562 27.386719 43.671875 Z M 27.386719 43.671875 "/>
<path style=" stroke:none;fill-rule:nonzero;fill:url(#linear5);" d="M 44.804688 28.484375 C 44.804688 28.917969 44.453125 29.269531 44.019531 29.269531 C 43.585938 29.269531 43.234375 28.917969 43.234375 28.484375 C 43.234375 28.050781 43.585938 27.699219 44.019531 27.699219 C 44.453125 27.699219 44.804688 28.050781 44.804688 28.484375 Z M 44.804688 28.484375 "/>
</g>
</svg>
