<svg xmlns="http://www.w3.org/2000/svg" xmlns:xlink="http://www.w3.org/1999/xlink" width="64" height="64" viewBox="0 0 64 64" version="1.1">
<defs>
<linearGradient id="linear0" gradientUnits="userSpaceOnUse" x1="0" y1="0" x2="0" y2="1" gradientTransform="matrix(64,0,0,57.960938,0,3.019531)">
<stop offset="0" style="stop-color:#ff6666;stop-opacity:1;"/>
<stop offset="1" style="stop-color:#d90000;stop-opacity:1;"/>
</linearGradient>
</defs>
<g id="surface1">
<path style=" stroke:none;fill-rule:evenodd;fill:url(#linear0);" d="M 12.949219 7.457031 L 13.210938 8.425781 L 29.394531 8.425781 C 29.863281 8.425781 30.164062 8.261719 30.265625 7.890625 C 29.230469 6.925781 27.5625 5.554688 27.5625 5.554688 L 26.058594 7.457031 L 22.386719 7.457031 L 22.386719 4.289062 C 23.125 4.15625 23.425781 3.855469 23.492188 3.421875 L 20.21875 3.089844 L 20.21875 7.457031 Z M 15.683594 9.09375 C 16.382812 10.695312 17.253906 13.132812 17.382812 15.0625 C 19.386719 16.9375 21.65625 12.765625 16.117188 8.960938 Z M 3.4375 29.410156 L 3.4375 21.203125 L 10.242188 21.203125 L 10.242188 29.410156 Z M 11.144531 18.902344 L 9.910156 20.234375 L 7.976562 20.234375 L 7.976562 14.03125 L 13.816406 14.03125 C 14.246094 14.03125 14.578125 13.863281 14.679688 13.496094 C 13.617188 12.496094 11.878906 11.097656 11.878906 11.097656 L 10.375 13.03125 L 7.976562 13.03125 L 7.976562 6.722656 C 9.613281 6.257812 11.113281 5.757812 12.28125 5.257812 C 13.078125 5.488281 13.648438 5.457031 13.914062 5.15625 L 11.113281 3.019531 C 8.777344 4.6875 4.105469 6.722656 0 7.722656 L 0.199219 8.261719 C 2.066406 8.058594 3.972656 7.722656 5.808594 7.292969 L 5.808594 13.03125 L 0.03125 13.03125 L 0.269531 14.03125 L 5.808594 14.03125 L 5.808594 20.234375 L 3.605469 20.234375 L 1.335938 19.203125 L 1.335938 33.085938 L 1.667969 33.085938 C 2.566406 33.085938 3.4375 32.585938 3.4375 32.382812 L 3.4375 30.378906 L 10.242188 30.378906 L 10.242188 32.183594 L 10.574219 32.183594 C 11.28125 32.183594 12.347656 31.683594 12.378906 31.449219 L 12.378906 21.640625 C 13.078125 21.472656 13.617188 21.203125 13.847656 20.972656 Z M 30.132812 17.234375 C 30.5625 17.234375 30.898438 17.066406 31 16.699219 C 29.964844 15.730469 28.265625 14.398438 28.265625 14.398438 L 26.796875 16.269531 L 22.925781 16.269531 C 24.492188 14.53125 25.992188 12.226562 26.894531 10.496094 C 27.597656 10.527344 27.964844 10.261719 28.097656 9.929688 L 24.625 8.859375 C 24.125 11.097656 23.15625 14.132812 22.1875 16.269531 L 12.578125 16.269531 L 12.847656 17.234375 L 20.21875 17.234375 L 20.21875 22.871094 L 13.746094 22.871094 L 13.980469 23.875 L 20.21875 23.875 L 20.21875 33.550781 L 20.589844 33.550781 C 21.6875 33.550781 22.386719 33.015625 22.386719 32.851562 L 22.386719 23.875 L 29.332031 23.875 C 29.832031 23.875 30.132812 23.707031 30.230469 23.339844 C 29.195312 22.339844 27.496094 21.003906 27.496094 21.003906 L 25.992188 22.871094 L 22.386719 22.871094 L 22.386719 17.234375 Z M 41.007812 58.210938 L 41.007812 55.441406 L 56.222656 55.441406 L 56.222656 58.210938 Z M 56.222656 51.835938 L 56.222656 54.472656 L 41.007812 54.472656 L 41.007812 51.835938 Z M 55.890625 50.902344 L 41.207031 50.902344 L 38.871094 49.835938 L 38.871094 60.980469 L 39.140625 60.980469 C 40.074219 60.980469 41.007812 60.480469 41.007812 60.28125 L 41.007812 59.210938 L 56.222656 59.210938 L 56.222656 60.910156 L 56.558594 60.910156 C 57.261719 60.910156 58.359375 60.410156 58.394531 60.210938 L 58.394531 52.273438 C 59.058594 52.136719 59.597656 51.871094 59.828125 51.605469 L 57.09375 49.535156 Z M 49.484375 40.425781 L 49.484375 37.757812 L 55.992188 37.757812 L 55.992188 40.425781 Z M 49.484375 34.21875 L 55.992188 34.21875 L 55.992188 36.820312 L 49.484375 36.820312 Z M 56.292969 42.695312 C 57.027344 42.695312 58.09375 42.191406 58.128906 41.960938 L 58.128906 37.757812 L 63.164062 37.757812 C 63.632812 37.757812 63.898438 37.625 64 37.257812 C 63.03125 36.320312 61.363281 34.988281 61.363281 34.988281 L 59.964844 36.820312 L 58.128906 36.820312 L 58.128906 34.589844 C 58.761719 34.453125 59.261719 34.183594 59.496094 33.953125 L 56.859375 31.914062 L 55.65625 33.214844 L 49.484375 33.214844 L 49.484375 31.746094 C 50.285156 31.617188 50.589844 31.285156 50.6875 30.816406 L 47.316406 30.449219 L 47.316406 33.214844 L 37.539062 33.214844 L 37.839844 34.21875 L 47.316406 34.21875 L 47.316406 36.820312 L 33.4375 36.820312 L 33.699219 37.757812 L 47.316406 37.757812 L 47.316406 40.425781 L 37.339844 40.425781 L 37.640625 41.429688 L 47.316406 41.429688 L 47.316406 43.964844 L 36.335938 43.964844 L 36.570312 44.964844 L 47.316406 44.964844 L 47.316406 47.601562 L 33.667969 47.601562 L 33.96875 48.566406 L 62.832031 48.566406 C 63.300781 48.566406 63.632812 48.398438 63.730469 48.03125 C 62.601562 47.03125 60.933594 45.765625 60.933594 45.765625 L 59.394531 47.601562 L 49.484375 47.601562 L 49.484375 44.964844 L 60.796875 44.964844 C 61.195312 44.964844 61.53125 44.796875 61.632812 44.429688 C 60.597656 43.460938 58.929688 42.226562 58.929688 42.226562 L 57.492188 43.964844 L 49.484375 43.964844 L 49.484375 41.429688 L 55.992188 41.429688 L 55.992188 42.695312 Z M 56.292969 42.695312 "/>
</g>
</svg>
