<svg xmlns="http://www.w3.org/2000/svg" xmlns:xlink="http://www.w3.org/1999/xlink" width="64" height="64" viewBox="0 0 64 64" version="1.1">
<defs>
<linearGradient id="linear0" gradientUnits="userSpaceOnUse" x1="0" y1="0" x2="0" y2="1" gradientTransform="matrix(64,0,0,49.839844,0,8)">
<stop offset="0" style="stop-color:#ff6666;stop-opacity:1;"/>
<stop offset="1" style="stop-color:#d90000;stop-opacity:1;"/>
</linearGradient>
</defs>
<g id="surface1">
<path style=" stroke:none;fill-rule:evenodd;fill:url(#linear0);" d="M 14.222656 41.765625 L 14.222656 55.300781 C 14.222656 56.675781 13.160156 57.789062 11.851562 57.789062 L 2.371094 57.789062 C 1.0625 57.789062 0 56.675781 0 55.300781 L 0 10.5 C 0 9.128906 1.0625 8.011719 2.371094 8.011719 L 11.851562 8.011719 C 13.160156 8.011719 14.222656 9.128906 14.222656 10.5 L 14.222656 19.550781 L 23.125 9.746094 C 23.203125 9.660156 23.277344 9.578125 23.347656 9.5 C 24.582031 8.132812 24.6875 8.011719 27.394531 8.011719 L 41.691406 8.011719 C 41.691406 8.011719 44.519531 7.75 42.695312 9.601562 L 31.585938 22.25 L 41.792969 55.28125 C 41.832031 55.414062 41.871094 55.539062 41.910156 55.660156 C 42.25 56.75 42.425781 57.3125 42.21875 57.59375 C 41.992188 57.894531 41.320312 57.863281 39.921875 57.792969 L 39.828125 57.789062 L 29.609375 57.789062 C 27.242188 57.789062 27.070312 57.773438 26.527344 55.308594 L 20.28125 35.09375 Z M 49.066406 8.011719 L 61.511719 8.011719 C 62.890625 8.011719 64 9.121094 64 10.5 L 64 55.300781 C 64 56.679688 62.890625 57.789062 61.511719 57.789062 L 49.066406 57.789062 C 47.6875 57.789062 46.578125 56.679688 46.578125 55.300781 L 56.535156 22.25 L 46.578125 10.5 C 45.6875 9.449219 47.6875 8.011719 49.066406 8.011719 Z M 49.066406 8.011719 "/>
</g>
</svg>
