<svg xmlns="http://www.w3.org/2000/svg" xmlns:xlink="http://www.w3.org/1999/xlink" width="64" height="64" viewBox="0 0 64 64" version="1.1">
<defs>
<linearGradient id="linear0" gradientUnits="userSpaceOnUse" x1="0" y1="0" x2="0" y2="1" gradientTransform="matrix(64,0,0,50.90625,0,6.546875)">
<stop offset="0" style="stop-color:#ff6666;stop-opacity:1;"/>
<stop offset="1" style="stop-color:#d90000;stop-opacity:1;"/>
</linearGradient>
</defs>
<g id="surface1">
<path style=" stroke:none;fill-rule:nonzero;fill:url(#linear0);" d="M 55.25 55.503906 C 56.820312 52.5625 60.09375 52.246094 60.089844 48.769531 C 60.089844 46.085938 59.34375 44.636719 57.527344 43.773438 C 54.191406 42.191406 50.941406 44.070312 50.941406 47.585938 C 50.941406 51.035156 54.230469 52.949219 56.414062 50.765625 C 57.324219 49.855469 57.542969 48.332031 56.894531 47.410156 C 56.609375 47 56.578125 47.0625 56.757812 47.699219 C 57.375 49.886719 55.691406 51.398438 53.753906 50.398438 C 51.730469 49.351562 52.113281 45.988281 54.320312 45.433594 C 55.410156 45.160156 56.867188 46.117188 57.582031 47.574219 C 57.96875 48.359375 57.980469 48.832031 57.652344 49.933594 C 56.566406 53.550781 51.699219 53.574219 44.371094 50 C 42.59375 49.136719 40.214844 47.828125 39.082031 47.09375 C 37.125 45.832031 34.746094 44.773438 31.335938 41.773438 C 29.53125 40.1875 29.261719 40.402344 33.976562 39.632812 C 35.332031 39.414062 39.289062 38.265625 42.773438 37.082031 C 48.960938 34.976562 49.195312 34.925781 52.976562 34.898438 C 55.105469 34.882812 51.574219 34.75 55.105469 34.902344 L 61.527344 35.183594 L 61.527344 28.214844 L 54.050781 28.019531 C 43.359375 27.738281 48.566406 27.367188 37.535156 23.105469 C 35.425781 22.289062 32.496094 21.308594 31.023438 20.921875 C 27.539062 20.011719 22.265625 19.703125 19.621094 20.253906 C 16.574219 20.890625 12.261719 23.199219 9.757812 25.542969 C 5.878906 29.171875 1.492188 35.960938 1.921875 37.671875 C 2.113281 38.445312 2.316406 38.496094 5.734375 38.640625 C 7.722656 38.722656 11.839844 39.175781 14.886719 39.644531 L 20.429688 40.5 L 20.429688 42.886719 C 19.472656 47.269531 20.15625 49.632812 20.324219 51.226562 C 20.960938 57.003906 21.199219 57.628906 22.675781 57.417969 C 24.953125 53.671875 24.988281 46.492188 25.003906 42.351562 L 27.554688 44.628906 C 33.921875 50.3125 35.796875 50.230469 41.261719 52.886719 C 46.417969 55.394531 52.085938 56.453125 55.25 55.503906 Z M 6.78125 35.238281 C 6.429688 34.886719 8.601562 32.199219 11.453125 29.464844 C 15.695312 25.390625 15.675781 25.394531 15.6875 28.660156 C 15.695312 31.875 16.46875 33.625 18.6875 35.46875 L 20.140625 36.675781 L 13.550781 36.046875 C 9.925781 35.703125 6.878906 35.339844 6.78125 35.238281 Z M 30.546875 35.546875 C 31.175781 35.050781 32.125 33.90625 32.65625 33 C 33.5 31.5625 33.625 30.984375 33.625 28.449219 C 33.625 26.855469 33.730469 25.546875 33.855469 25.546875 C 33.984375 25.546875 36.496094 26.578125 39.4375 27.835938 C 42.375 29.097656 45.160156 30.222656 45.625 30.339844 C 46.085938 30.457031 46.464844 30.671875 46.464844 30.820312 C 46.464844 30.972656 44.683594 31.976562 42.507812 33.058594 C 38.066406 35.261719 34.746094 36.183594 30.457031 36.394531 L 29.402344 36.449219 Z M 64 18.613281 C 64 16.652344 63.765625 16.464844 61.289062 16.464844 C 55.773438 16.464844 54.398438 15.574219 46.09375 11.898438 C 37.199219 7.957031 31.808594 6.546875 25.636719 6.546875 C 19.589844 6.546875 13.222656 8.195312 6.683594 11.457031 C 1.355469 14.113281 -0.921875 16.304688 0.339844 17.5625 C 0.785156 18.007812 0.480469 18.101562 7.9375 15.195312 C 13.035156 13.207031 19.300781 11.53125 22.691406 11.242188 C 27.925781 10.800781 34.160156 12.175781 45.195312 16.203125 C 49.15625 17.652344 53.710938 19.171875 55.316406 19.582031 C 58.753906 20.457031 59.113281 20.320312 61.976562 20.328125 L 64 20.335938 Z M 64 18.613281 "/>
</g>
</svg>
