<svg xmlns="http://www.w3.org/2000/svg" xmlns:xlink="http://www.w3.org/1999/xlink" width="64" height="64" viewBox="0 0 64 64" version="1.1">
<defs> <linearGradient id="linear0" gradientUnits="userSpaceOnUse" x1="0" y1="0" x2="0" y2="1" gradientTransform="matrix(55.992188,0,0,56,4.003906,4)"> <stop offset="0" style="stop-color:#ff6666;stop-opacity:1;"/> <stop offset="1" style="stop-color:#d90000;stop-opacity:1;"/> </linearGradient> </defs>
<g id="surface1">
<path style=" stroke:none;fill-rule:nonzero;fill:url(#linear0);fill-opacity:1;" d="M 52.433594 5.078125 C 52.363281 5.078125 52.289062 5.105469 52.238281 5.15625 L 49.46875 7.921875 L 48.480469 6.945312 C 48.304688 6.765625 48.019531 6.742188 47.808594 6.875 L 39.925781 12.023438 C 39.914062 12.027344 39.90625 12.039062 39.886719 12.050781 C 38.9375 11.527344 37.949219 11.074219 36.90625 10.699219 C 36.835938 10.671875 36.753906 10.683594 36.683594 10.714844 C 36.617188 10.75 36.570312 10.820312 36.554688 10.890625 L 35.992188 13.425781 C 42.597656 16.003906 47.339844 22.445312 47.339844 29.921875 C 47.339844 39.707031 39.335938 47.679688 29.613281 47.679688 C 22.054688 47.679688 15.597656 42.925781 13.046875 36.246094 L 10.550781 36.933594 C 10.476562 36.957031 10.417969 36.996094 10.386719 37.066406 C 10.351562 37.132812 10.351562 37.210938 10.375 37.28125 C 10.761719 38.320312 11.226562 39.320312 11.757812 40.265625 L 6.9375 48.179688 C 6.8125 48.386719 6.839844 48.664062 7.011719 48.835938 L 7.691406 49.511719 L 5 52.199219 C 4.898438 52.304688 4.898438 52.476562 5 52.578125 L 7 54.5625 C 7.109375 54.671875 7.273438 54.671875 7.375 54.5625 L 10.074219 51.882812 L 11.140625 52.945312 C 11.320312 53.125 11.601562 53.15625 11.808594 53.011719 L 19.472656 48.015625 C 21.074219 48.9375 22.792969 49.644531 24.59375 50.117188 L 26.734375 58.859375 C 26.796875 59.097656 27.011719 59.269531 27.257812 59.269531 L 33.101562 59.269531 C 33.351562 59.269531 33.574219 59.085938 33.625 58.839844 L 35.453125 50.03125 C 37.15625 49.558594 38.773438 48.875 40.269531 48.003906 L 48.195312 52.792969 C 48.410156 52.921875 48.671875 52.890625 48.847656 52.714844 L 52.976562 48.601562 C 53.152344 48.425781 53.1875 48.144531 53.050781 47.933594 L 47.96875 40.214844 C 48.867188 38.621094 49.554688 36.902344 50.007812 35.082031 L 58.78125 32.9375 C 59.027344 32.878906 59.191406 32.664062 59.191406 32.421875 L 59.191406 26.609375 C 59.191406 26.359375 59.015625 26.140625 58.765625 26.089844 L 49.730469 24.214844 C 49.257812 22.65625 48.605469 21.164062 47.78125 19.757812 L 52.6875 11.710938 C 52.820312 11.503906 52.789062 11.230469 52.613281 11.054688 L 51.839844 10.292969 L 54.617188 7.523438 C 54.726562 7.417969 54.726562 7.253906 54.617188 7.148438 L 52.621094 5.15625 C 52.574219 5.105469 52.507812 5.078125 52.433594 5.078125 M 29.613281 14.664062 C 21.175781 14.664062 14.332031 21.546875 14.332031 29.929688 C 14.332031 38.367188 21.175781 45.25 29.621094 45.25 C 38 45.25 44.90625 38.371094 44.90625 29.929688 C 44.90625 21.546875 38 14.664062 29.621094 14.664062 M 23.28125 22.484375 L 36.820312 22.484375 L 36.820312 35.867188 C 35.917969 34.925781 36.820312 35.878906 31.402344 30.554688 C 27.65625 32.195312 26.558594 34.875 28.046875 40.757812 C 22.582031 35.035156 20.550781 30.832031 26.9375 26.089844 L 23.382812 22.574219 L 23.28125 22.492188 "/>
</g>
</svg>
