<svg xmlns="http://www.w3.org/2000/svg" xmlns:xlink="http://www.w3.org/1999/xlink" width="64" height="64" viewBox="0 0 64 64" version="1.1">
<defs> <linearGradient id="linear0" gradientUnits="userSpaceOnUse" x1="0" y1="0" x2="0" y2="1" gradientTransform="matrix(55.992188,0,0,56,4.003906,4)"> <stop offset="0" style="stop-color:#ff6666;stop-opacity:1;"/> <stop offset="1" style="stop-color:#d90000;stop-opacity:1;"/> </linearGradient> </defs>
<g id="surface1">
<path style=" stroke:none;fill-rule:nonzero;fill:url(#linear0);fill-opacity:1;" d="M 15.269531 57.492188 C 12.289062 56.882812 10.074219 54.890625 9.0625 51.921875 L 8.828125 51.226562 L 8.800781 35.324219 C 8.773438 19.816406 8.777344 19.402344 8.972656 18.601562 C 9.667969 15.660156 11.894531 13.421875 14.855469 12.664062 C 15.921875 12.390625 15.871094 12.367188 15.871094 13.144531 C 15.871094 14.03125 16.332031 17.46875 16.53125 18.0625 C 16.972656 19.398438 18.121094 20.539062 19.617188 21.140625 L 20.214844 21.378906 L 27.507812 21.40625 C 33.875 21.429688 34.894531 21.417969 35.515625 21.273438 C 37.171875 20.914062 38.738281 19.453125 39.175781 17.875 C 39.414062 17.027344 39.871094 13.296875 39.789062 12.835938 L 39.726562 12.453125 L 40.160156 12.519531 C 43.066406 13.007812 45.566406 15.117188 46.488281 17.859375 C 46.816406 18.847656 46.933594 19.71875 46.941406 21.152344 L 46.941406 22.316406 L 47.21875 22.464844 C 47.367188 22.542969 49.097656 24.210938 51.058594 26.167969 C 54.339844 29.449219 54.652344 29.785156 54.953125 30.429688 L 55.28125 31.128906 L 55.3125 42.019531 C 55.339844 52.855469 55.335938 52.917969 55.128906 53.613281 C 54.6875 55.070312 53.699219 56.277344 52.375 56.964844 C 51.007812 57.683594 52.289062 57.640625 33.152344 57.632812 C 19.203125 57.621094 15.796875 57.601562 15.273438 57.492188 M 50.910156 54.578125 C 51.539062 54.246094 51.960938 53.839844 52.238281 53.296875 L 52.488281 52.816406 L 52.488281 31.824219 L 50.386719 31.765625 C 48.535156 31.714844 48.222656 31.679688 47.71875 31.484375 C 46.621094 31.058594 45.765625 30.199219 45.328125 29.101562 C 45.128906 28.597656 45.101562 28.320312 45.066406 26.523438 L 45.027344 24.503906 L 30.703125 24.5625 L 30.222656 24.796875 C 29.636719 25.085938 29.136719 25.5625 28.835938 26.128906 L 28.609375 26.550781 L 28.609375 52.816406 L 28.921875 53.359375 C 29.296875 54.027344 29.773438 54.425781 30.476562 54.671875 C 30.976562 54.839844 31.511719 54.851562 40.746094 54.828125 L 50.488281 54.804688 M 32.390625 49.496094 C 31.765625 49.214844 31.5 48.773438 31.5 48.023438 C 31.5 47.359375 31.660156 47.050781 32.191406 46.65625 C 32.464844 46.453125 32.539062 46.449219 40.546875 46.449219 C 48.582031 46.449219 48.621094 46.453125 48.90625 46.65625 C 49.058594 46.769531 49.292969 47.019531 49.417969 47.207031 C 49.617188 47.488281 49.644531 47.640625 49.609375 48.117188 C 49.5625 48.8125 49.34375 49.152344 48.734375 49.460938 L 48.292969 49.683594 L 40.546875 49.683594 C 33.207031 49.675781 32.777344 49.671875 32.390625 49.496094 M 32.351562 42.296875 C 31.699219 41.960938 31.5 41.632812 31.5 40.875 C 31.5 40.140625 31.6875 39.820312 32.3125 39.464844 L 32.699219 39.238281 L 40.660156 39.257812 C 48.566406 39.289062 48.621094 39.289062 48.90625 39.492188 C 49.398438 39.859375 49.636719 40.304688 49.636719 40.875 C 49.636719 41.511719 49.359375 41.96875 48.785156 42.289062 L 48.390625 42.515625 L 32.792969 42.515625 M 32.398438 35.214844 C 31.152344 34.671875 31.152344 32.824219 32.390625 32.265625 C 32.773438 32.089844 33.136719 32.078125 37.398438 32.078125 C 41.976562 32.070312 42.003906 32.070312 42.441406 32.296875 C 43.097656 32.632812 43.292969 32.953125 43.292969 33.710938 C 43.292969 34.394531 43.140625 34.703125 42.609375 35.101562 C 42.335938 35.300781 42.203125 35.304688 37.519531 35.328125 C 33.664062 35.347656 32.640625 35.324219 32.398438 35.214844 M 20.714844 19.046875 C 19.800781 18.820312 19 18.113281 18.738281 17.289062 C 18.652344 17.023438 18.484375 15.96875 18.363281 14.957031 C 18.113281 12.90625 18.152344 12.542969 18.636719 11.964844 C 19.140625 11.371094 19.503906 11.28125 21.488281 11.28125 L 23.257812 11.277344 L 23.257812 10.949219 C 23.257812 10.070312 23.855469 8.78125 24.605469 8.035156 C 26.355469 6.292969 29.109375 6.261719 30.949219 7.957031 C 31.777344 8.71875 32.1875 9.546875 32.402344 10.902344 L 32.464844 11.277344 L 34.179688 11.28125 C 36.078125 11.28125 36.433594 11.367188 36.96875 11.9375 C 37.519531 12.527344 37.554688 12.949219 37.242188 15.449219 C 36.957031 17.742188 36.648438 18.324219 35.453125 18.882812 C 35.007812 19.085938 34.878906 19.085938 28.007812 19.105469 C 24.164062 19.113281 20.878906 19.085938 20.714844 19.046875 M 28.34375 13.5625 C 28.988281 13.414062 29.574219 12.96875 29.898438 12.375 C 30.148438 11.914062 30.171875 11.78125 30.140625 11.128906 C 30.109375 10.507812 30.058594 10.328125 29.800781 9.96875 C 28.757812 8.488281 26.523438 8.605469 25.707031 10.191406 C 25.078125 11.40625 25.742188 13.019531 27.058594 13.472656 C 27.699219 13.691406 27.761719 13.695312 28.347656 13.5625 "/>
</g>
</svg>
