<svg xmlns="http://www.w3.org/2000/svg" xmlns:xlink="http://www.w3.org/1999/xlink" width="64" height="64" viewBox="0 0 64 64" version="1.1">
<defs>
<linearGradient id="linear0" gradientUnits="userSpaceOnUse" x1="0" y1="0" x2="0" y2="1" gradientTransform="matrix(64,0,0,56,0,4)">
<stop offset="0" style="stop-color:#ff6666;stop-opacity:1;"/>
<stop offset="1" style="stop-color:#d90000;stop-opacity:1;"/>
</linearGradient>
</defs>
<g id="surface1">
<path style=" stroke:none;fill-rule:nonzero;fill:url(#linear0);" d="M 41.140625 4 L 41.140625 8.664062 L 0 8.664062 L 0 18 L 41.140625 18 L 41.140625 22.664062 L 50.289062 22.664062 L 50.289062 4 Z M 54.859375 8.664062 L 54.859375 18 L 64 18 L 64 8.664062 Z M 13.710938 22.664062 L 13.710938 27.335938 L 0 27.335938 L 0 36.664062 L 13.710938 36.664062 L 13.710938 41.335938 L 22.859375 41.335938 L 22.859375 22.664062 Z M 27.429688 27.335938 L 27.429688 36.664062 L 64 36.664062 L 64 27.335938 Z M 32 41.335938 L 32 46 L 0 46 L 0 55.335938 L 32 55.335938 L 32 60 L 41.140625 60 L 41.140625 41.335938 Z M 45.710938 46 L 45.710938 55.335938 L 64 55.335938 L 64 46 Z M 45.710938 46 "/>
</g>
</svg>
