<svg xmlns="http://www.w3.org/2000/svg" xmlns:xlink="http://www.w3.org/1999/xlink" width="64" height="64" viewBox="0 0 64 64" version="1.1">
<defs> <linearGradient id="linear0" gradientUnits="userSpaceOnUse" x1="0" y1="0" x2="0" y2="1" gradientTransform="matrix(55.992188,0,0,56,4.003906,4)"> <stop offset="0" style="stop-color:#ff6666;stop-opacity:1;"/> <stop offset="1" style="stop-color:#d90000;stop-opacity:1;"/> </linearGradient> </defs>
<g id="surface1">
<path style=" stroke:none;fill-rule:nonzero;fill:url(#linear0);fill-opacity:1;" d="M 29.097656 48.109375 C 22.652344 47.652344 16.222656 44.65625 10.550781 39.46875 C 6.703125 35.957031 3.632812 32.203125 0.789062 27.542969 L 0.308594 26.753906 L 1.101562 26.691406 C 2.835938 26.550781 4.78125 26.003906 6.527344 25.15625 C 8.035156 24.417969 8.277344 24.253906 12.140625 21.320312 C 16.03125 18.375 16.746094 17.863281 17.902344 17.253906 C 19.574219 16.367188 20.726562 16.078125 22.226562 16.164062 C 24.582031 16.304688 26.132812 16.675781 28.949219 17.804688 L 31.074219 18.652344 L 32.066406 18.253906 C 34.101562 17.441406 35.746094 16.953125 37.796875 16.570312 C 38.617188 16.410156 39.183594 16.371094 40.511719 16.367188 C 42.199219 16.359375 42.199219 16.359375 43.0625 16.667969 C 45.34375 17.464844 47.921875 18.972656 51.332031 21.496094 C 56.230469 25.125 59.683594 26.835938 62.90625 27.21875 L 63.800781 27.320312 L 63.144531 28.367188 C 60.449219 32.625 57.503906 36.148438 54.253906 38.992188 C 47.742188 44.695312 40.949219 47.636719 33.144531 48.117188 C 31.460938 48.222656 30.675781 48.21875 29.097656 48.109375 M 33.617188 36.289062 C 38.761719 35.601562 44.324219 33.445312 51.6875 29.292969 C 52.351562 28.921875 52.914062 28.578125 52.941406 28.535156 C 53.027344 28.402344 52.007812 28.421875 42.742188 28.773438 C 36.910156 28.996094 36.417969 29.046875 33.878906 29.644531 C 31.421875 30.222656 30.714844 30.210938 28.632812 29.550781 C 27.0625 29.050781 26.019531 28.84375 24.257812 28.683594 C 21.3125 28.417969 13.910156 28.28125 11.363281 28.445312 L 10.457031 28.503906 L 14.910156 30.921875 C 17.539062 32.355469 19.953125 33.597656 20.816406 33.964844 C 23.507812 35.132812 26.066406 35.90625 28.351562 36.25 C 29.773438 36.460938 32.210938 36.484375 33.617188 36.289062 "/>
</g>
</svg>
