<svg xmlns="http://www.w3.org/2000/svg" xmlns:xlink="http://www.w3.org/1999/xlink" width="64" height="64" viewBox="0 0 64 64" version="1.1">
<defs>
<linearGradient id="linear0" gradientUnits="userSpaceOnUse" x1="0" y1="0" x2="0" y2="1" gradientTransform="matrix(64,0,0,64,0,0)">
<stop offset="0" style="stop-color:#ff6666;stop-opacity:1;"/>
<stop offset="1" style="stop-color:#d90000;stop-opacity:1;"/>
</linearGradient>
</defs>
<g id="surface1">
<path style=" stroke:none;fill-rule:evenodd;fill:url(#linear0);" d="M 5.820312 31.234375 L 5.820312 5.820312 L 32.148438 5.820312 L 32.199219 30.882812 C 31.851562 30.980469 31.503906 31.078125 31.160156 31.183594 Z M 5.820312 32.324219 L 5.820312 50.203125 C 6.355469 48.972656 7.003906 47.785156 7.742188 46.65625 C 10.070312 43.234375 13.019531 40.328125 16.4375 38.070312 C 20.03125 35.726562 23.882812 33.777344 27.898438 32.285156 Z M 58.179688 32.222656 L 58.179688 58.179688 L 33.34375 58.179688 L 33.292969 32.433594 C 33.453125 32.371094 33.613281 32.320312 33.769531 32.273438 Z M 58.179688 31.132812 L 58.179688 14.042969 C 57.78125 14.964844 57.320312 15.859375 56.800781 16.726562 C 54.835938 19.929688 52.21875 22.726562 49.164062 24.90625 C 46.472656 26.871094 43.5625 28.507812 40.507812 29.820312 C 39.351562 30.300781 38.191406 30.753906 37.03125 31.171875 Z M 33.238281 5.820312 L 58.179688 5.820312 L 58.179688 7.28125 C 57.796875 10.273438 56.800781 13.175781 55.273438 15.78125 C 53.378906 18.765625 50.980469 21.378906 48.109375 23.421875 C 45.527344 25.308594 42.726562 26.871094 39.78125 28.144531 C 37.671875 29.019531 35.5625 29.820312 33.378906 30.507812 C 33.351562 30.519531 33.320312 30.527344 33.289062 30.539062 Z M 32.253906 58.179688 L 5.820312 58.179688 L 5.820312 56.910156 C 6.246094 53.625 7.429688 50.464844 9.273438 47.671875 C 11.457031 44.472656 14.21875 41.742188 17.457031 39.601562 C 22.011719 36.609375 26.972656 34.3125 32.203125 32.785156 Z M 0 0 L 64 0 L 64 64 L 0 64 Z M 0 0 "/>
</g>
</svg>
