<svg xmlns="http://www.w3.org/2000/svg" xmlns:xlink="http://www.w3.org/1999/xlink" width="64" height="64" viewBox="0 0 64 64" version="1.1">
<defs> <linearGradient id="linear0" gradientUnits="userSpaceOnUse" x1="0" y1="0" x2="0" y2="1" gradientTransform="matrix(55.992188,0,0,56,4.003906,4)"> <stop offset="0" style="stop-color:#ff6666;stop-opacity:1;"/> <stop offset="1" style="stop-color:#d90000;stop-opacity:1;"/> </linearGradient> </defs>
<g id="surface1">
<path style=" stroke:none;fill-rule:nonzero;fill:url(#linear0);fill-opacity:1;" d="M 31.515625 0.320312 C 25.960938 0.320312 15.960938 16.582031 15.960938 25.777344 L 15.960938 46.804688 C 15.960938 56 22.28125 57.871094 31.515625 57.871094 C 40.75 57.871094 47.078125 56 47.078125 46.804688 L 47.078125 25.777344 C 47.078125 16.582031 37.078125 0.320312 31.515625 0.320312 Z M 31.515625 37.949219 C 33.976562 37.949219 35.964844 39.933594 35.964844 42.375 C 35.964844 44.824219 33.976562 46.804688 31.515625 46.804688 C 29.0625 46.804688 27.074219 44.824219 27.074219 42.375 C 27.074219 39.933594 29.0625 37.949219 31.515625 37.949219 Z M 31.515625 37.949219 "/>
</g>
</svg>
