<svg xmlns="http://www.w3.org/2000/svg" xmlns:xlink="http://www.w3.org/1999/xlink" width="64" height="64" viewBox="0 0 64 64" version="1.1">
<defs> <linearGradient id="linear0" gradientUnits="userSpaceOnUse" x1="0" y1="0" x2="0" y2="1" gradientTransform="matrix(55.992188,0,0,56,4.003906,4)"> <stop offset="0" style="stop-color:#ff6666;stop-opacity:1;"/> <stop offset="1" style="stop-color:#d90000;stop-opacity:1;"/> </linearGradient> </defs>
<g id="surface1">
<path style=" stroke:none;fill-rule:nonzero;fill:url(#linear0);fill-opacity:1;" d="M 29.007812 1.664062 C 28.300781 1.664062 27.257812 2.792969 25.894531 5.042969 C 23.84375 3.824219 20.699219 2.65625 17.964844 2.667969 C 18.203125 4.585938 18.320312 5.882812 18.320312 6.554688 C 18.320312 7.367188 18.296875 7.996094 18.25 8.425781 C 15.863281 16.964844 10.988281 21.707031 9.402344 30.222656 C 9.261719 31.003906 10.042969 31.515625 10.328125 31.945312 C 11.175781 33.242188 12.609375 34.152344 14.636719 34.683594 C 15.585938 34.921875 16.058594 35.039062 16.058594 35.039062 C 16.671875 35.039062 17.21875 34.730469 17.6875 34.109375 C 17.6875 35.59375 18.277344 36.339844 19.453125 36.339844 C 19.929688 36.339844 20.277344 36.148438 20.515625 35.765625 C 22.941406 31.980469 25.027344 28.484375 29.859375 26.484375 C 28.636719 32.597656 22.445312 36.433594 22.175781 44.03125 L 18.960938 44.03125 C 18.375 44.03125 17.898438 44.507812 17.898438 45.097656 L 17.898438 46.152344 L 13.644531 56.746094 L 60.445312 56.746094 L 56.191406 46.152344 L 56.191406 45.097656 C 56.191406 44.507812 55.714844 44.03125 55.128906 44.03125 L 51.957031 44.03125 C 51.957031 27.089844 47.707031 10.140625 33.042969 7.492188 C 32.328125 5.292969 31.601562 3.058594 29.011719 1.667969 M 32.261719 10.65625 C 42.980469 11.152344 48.332031 25.675781 48.46875 36.328125 L 48.46875 38.992188 C 48.371094 40.242188 47.953125 40.867188 47.195312 40.867188 C 46.300781 40.867188 45.851562 39.808594 45.851562 37.699219 C 45.800781 26.8125 42.835938 15.789062 32.398438 12.628906 C 31.410156 12.417969 31.347656 11.632812 31.347656 11.441406 C 31.347656 10.914062 31.648438 10.648438 32.261719 10.648438 Z M 22.289062 13.53125 C 23.417969 13.53125 23.984375 13.851562 23.984375 14.472656 C 23.984375 14.996094 23.632812 15.621094 22.925781 16.339844 C 21.601562 17.730469 20.351562 18.425781 19.171875 18.425781 C 18.558594 18.425781 18.25 17.996094 18.25 17.128906 C 18.265625 15.621094 19.828125 13.730469 22.289062 13.53125 Z M 13.710938 27.921875 L 13.703125 27.925781 C 14.070312 29.0625 13.109375 30.601562 11.519531 30.851562 C 11.191406 29.554688 11.667969 28.304688 13.710938 27.902344 Z M 13.710938 27.921875 "/>
</g>
</svg>
