<svg xmlns="http://www.w3.org/2000/svg" xmlns:xlink="http://www.w3.org/1999/xlink" width="64" height="64" viewBox="0 0 64 64" version="1.1">
<defs>
<linearGradient id="linear0" gradientUnits="userSpaceOnUse" x1="0" y1="0" x2="0" y2="1" gradientTransform="matrix(64,0,0,64,0,0)">
<stop offset="0" style="stop-color:#ff6666;stop-opacity:1;"/>
<stop offset="1" style="stop-color:#d90000;stop-opacity:1;"/>
</linearGradient>
</defs>
<g id="surface1">
<path style=" stroke:none;fill-rule:nonzero;fill:url(#linear0);" d="M 15.5625 63.703125 C 15.402344 63.542969 15.277344 62.957031 15.277344 62.394531 C 15.277344 61.152344 14.597656 61.074219 13.964844 62.253906 C 13.21875 63.644531 12.609375 63.265625 12.746094 61.492188 C 12.84375 60.214844 12.730469 59.894531 12.21875 60.027344 C 9.304688 60.777344 9.285156 60.753906 11.234375 58.628906 C 13.324219 56.359375 13.703125 54.992188 12.113281 55.492188 C 11.570312 55.660156 10 55.902344 8.621094 56.03125 C 4.375 56.421875 0 53.664062 0 50.601562 C 0 49.304688 2.257812 47.496094 5.503906 46.179688 C 7.160156 45.515625 8.558594 44.691406 8.621094 44.355469 C 8.683594 44.019531 8.039062 43.300781 7.1875 42.753906 C 5.242188 41.5 4.152344 39.742188 3 36.003906 C 1.675781 31.699219 1.96875 24.261719 3.660156 19.359375 C 9.515625 2.367188 26.550781 -4.675781 42.625 3.238281 C 52.910156 8.304688 60.34375 16.328125 61.964844 24.113281 C 62.402344 26.21875 62.359375 26.671875 61.574219 28.203125 C 60.546875 30.21875 58.242188 32.640625 57.359375 32.640625 C 57.019531 32.640625 56.203125 32.003906 55.546875 31.226562 C 53.828125 29.1875 46.066406 21.519531 42.832031 18.664062 L 40.070312 16.222656 L 40.378906 13.777344 C 40.671875 11.4375 40.636719 11.308594 39.554688 10.816406 C 37.90625 10.066406 35.617188 10.800781 35.425781 12.136719 C 35.316406 12.894531 35.875 13.769531 37.589844 15.496094 L 39.902344 17.835938 L 37.300781 17.84375 C 32.570312 17.851562 31.660156 18.601562 33.988281 20.550781 C 35.707031 22 36.308594 23.273438 36.15625 25.160156 L 36.027344 26.765625 L 38.09375 26.65625 C 39.675781 26.574219 40.152344 26.703125 40.152344 27.199219 C 40.152344 27.558594 39.957031 27.851562 39.714844 27.851562 C 38.992188 27.851562 39.226562 29.085938 40.042969 29.5625 C 40.636719 29.910156 40.679688 30.097656 40.246094 30.382812 C 39.941406 30.585938 39.8125 31.078125 39.964844 31.480469 C 40.386719 32.578125 39.519531 32.378906 36.140625 30.609375 C 33.351562 29.144531 33.003906 28.804688 32.023438 26.597656 C 30.289062 22.679688 28.804688 21.632812 28.804688 24.324219 C 28.804688 24.988281 28.390625 27.085938 27.886719 28.980469 C 26.277344 35.011719 26.089844 34.382812 29.519531 34.382812 C 32.957031 34.386719 35.441406 34.96875 36.265625 35.953125 C 36.863281 36.675781 36.9375 38.660156 36.457031 41.21875 C 36.175781 42.707031 36.203125 42.757812 37.277344 42.488281 C 38.320312 42.226562 38.371094 42.292969 38.125 43.523438 C 37.871094 44.789062 37.914062 44.835938 39.445312 44.835938 C 40.3125 44.835938 41.023438 45.03125 41.023438 45.273438 C 41.023438 45.507812 40.867188 45.703125 40.671875 45.703125 C 40.476562 45.703125 39.941406 45.984375 39.476562 46.320312 C 38.652344 46.921875 38.652344 46.953125 39.460938 47.84375 C 40.402344 48.882812 40.296875 48.925781 36.878906 48.769531 C 34.300781 48.648438 33.761719 48.289062 33.371094 46.4375 C 32.925781 44.28125 31.925781 42.933594 31.210938 43.519531 C 29.863281 44.640625 32.476562 49.242188 35.722656 51.472656 C 40.3125 54.625 45.546875 55.359375 50.363281 53.535156 C 53.640625 52.296875 58.390625 47.695312 61.015625 43.222656 C 63.945312 38.238281 64.578125 38.328125 63.519531 43.5625 C 61.753906 52.273438 55.753906 58.824219 46.953125 61.65625 C 44.128906 62.5625 42.554688 62.792969 39.058594 62.800781 C 31.773438 62.8125 27.605469 60.769531 20.855469 53.875 C 16.613281 49.546875 15.347656 49.210938 17.519531 53 L 18.910156 55.429688 L 17.503906 59.714844 C 16.730469 62.070312 16.042969 64 15.980469 64 C 15.914062 64 15.730469 63.871094 15.570312 63.710938 Z M 17.5 40.214844 C 13.714844 32.660156 12.875 29.621094 12.875 23.496094 C 12.875 18.902344 12.972656 18.304688 14.042969 16.273438 C 17.296875 10.128906 24.242188 6.535156 32.910156 6.519531 C 36.980469 6.511719 41.578125 7.226562 43.425781 8.152344 C 45.691406 9.292969 48.925781 12.253906 52.230469 16.214844 C 56.097656 20.851562 56.410156 21.734375 53.578125 20.011719 C 52.792969 19.535156 51.722656 19.144531 51.203125 19.144531 C 49.527344 19.140625 48.90625 18.65625 48.621094 17.121094 C 48.410156 16.019531 47.804688 15.210938 46.339844 14.097656 C 43.035156 11.578125 41.78125 12.710938 44.058594 16.152344 C 45.988281 19.050781 56.597656 29.246094 57.511719 29.074219 C 58.84375 28.828125 59.863281 26.160156 59.648438 23.492188 C 59.28125 18.96875 56.09375 14.273438 51.105469 10.902344 C 46.546875 7.828125 37.921875 3.902344 34.027344 3.140625 C 21.632812 0.703125 9.535156 8.410156 7.757812 19.878906 C 6.691406 26.746094 10.496094 35.828125 17.625 43.425781 C 18.808594 44.683594 19.847656 45.640625 19.9375 45.550781 C 20.023438 45.464844 18.929688 43.058594 17.5 40.210938 Z M 17.5 40.214844 "/>
</g>
</svg>
