<svg xmlns="http://www.w3.org/2000/svg" xmlns:xlink="http://www.w3.org/1999/xlink" width="64" height="64" viewBox="0 0 64 64" version="1.1">
<defs> <linearGradient id="linear0" gradientUnits="userSpaceOnUse" x1="0" y1="0" x2="0" y2="1" gradientTransform="matrix(55.992188,0,0,56,4.003906,4)"> <stop offset="0" style="stop-color:#ff6666;stop-opacity:1;"/> <stop offset="1" style="stop-color:#d90000;stop-opacity:1;"/> </linearGradient> </defs>
<g id="surface1">
<path style=" stroke:none;fill-rule:nonzero;fill:url(#linear0);fill-opacity:1;" d="M 32.003906 10.015625 C 28.574219 10.015625 25.621094 12.039062 24.289062 14.957031 L 9.453125 14.957031 C 8.3125 14.957031 7.386719 15.765625 7.386719 16.773438 L 7.386719 20.148438 C 7.386719 21.15625 8.3125 21.972656 9.453125 21.972656 L 24.289062 21.972656 C 25.628906 24.882812 28.582031 26.90625 32.003906 26.90625 C 35.433594 26.90625 38.386719 24.882812 39.726562 21.972656 L 54.5625 21.972656 C 55.710938 21.972656 56.628906 21.15625 56.628906 20.148438 L 56.628906 16.773438 C 56.628906 15.761719 55.710938 14.957031 54.5625 14.957031 L 39.726562 14.957031 C 38.394531 12.039062 35.433594 10.015625 32.003906 10.015625 M 32.003906 15.335938 C 32.0625 15.335938 32.113281 15.335938 32.167969 15.34375 C 32.175781 15.34375 32.179688 15.34375 32.191406 15.34375 C 33.839844 15.4375 35.144531 16.796875 35.144531 18.460938 C 35.144531 20.191406 33.738281 21.585938 32.003906 21.585938 C 31.953125 21.585938 31.902344 21.585938 31.847656 21.585938 C 30.1875 21.5 28.871094 20.132812 28.871094 18.460938 C 28.871094 16.796875 30.175781 15.4375 31.824219 15.34375 C 31.886719 15.335938 31.941406 15.335938 32.003906 15.335938 M 15.835938 22.835938 C 15.398438 22.824219 14.992188 23.050781 14.761719 23.417969 L 3.734375 41.132812 L 3.695312 41.132812 C 3.667969 41.453125 3.65625 41.78125 3.65625 42.117188 C 3.65625 48.816406 9.105469 54.246094 15.835938 54.246094 C 22.566406 54.246094 28.019531 48.816406 28.019531 42.117188 C 28.019531 41.839844 28 41.5625 27.984375 41.289062 L 27.996094 41.285156 L 27.984375 41.265625 C 27.984375 41.222656 27.976562 41.175781 27.976562 41.132812 L 27.898438 41.132812 L 16.871094 23.417969 C 16.648438 23.0625 16.257812 22.84375 15.835938 22.835938 M 48.273438 22.914062 C 47.839844 22.910156 47.433594 23.136719 47.203125 23.503906 L 36.179688 41.210938 L 36.132812 41.210938 C 36.105469 41.539062 36.09375 41.867188 36.09375 42.199219 C 36.09375 48.902344 41.550781 54.332031 48.273438 54.332031 C 55.003906 54.332031 60.457031 48.902344 60.457031 42.199219 C 60.457031 41.921875 60.445312 41.644531 60.429688 41.367188 L 60.433594 41.367188 L 60.429688 41.351562 C 60.421875 41.308594 60.421875 41.261719 60.417969 41.210938 L 60.335938 41.210938 L 49.320312 23.503906 C 49.09375 23.148438 48.699219 22.921875 48.28125 22.914062 M 15.820312 26.417969 L 24.972656 41.132812 L 6.664062 41.132812 Z M 48.265625 26.507812 L 57.414062 41.210938 L 39.105469 41.210938 Z M 48.265625 26.507812 "/>
</g>
</svg>
