<svg xmlns="http://www.w3.org/2000/svg" xmlns:xlink="http://www.w3.org/1999/xlink" width="64" height="64" viewBox="0 0 64 64" version="1.1">
<defs> <linearGradient id="linear0" gradientUnits="userSpaceOnUse" x1="0" y1="0" x2="0" y2="1" gradientTransform="matrix(55.992188,0,0,56,4.003906,4)"> <stop offset="0" style="stop-color:#ff6666;stop-opacity:1;"/> <stop offset="1" style="stop-color:#d90000;stop-opacity:1;"/> </linearGradient> </defs>
<g id="surface1">
<path style=" stroke:none;fill-rule:evenodd;fill:url(#linear0);fill-opacity:1;" d="M 48.859375 28.644531 C 48.859375 38.382812 40.933594 46.277344 31.152344 46.277344 C 21.375 46.277344 13.445312 38.382812 13.445312 28.644531 C 13.445312 18.898438 21.375 11.003906 31.152344 11.003906 C 40.933594 11.003906 48.859375 18.898438 48.859375 28.644531 Z M 48.859375 28.644531 "/>
<path style=" stroke:none;fill-rule:nonzero;fill:url(#linear0);fill-opacity:1;" d="M 24.691406 17.34375 C 9.203125 26.355469 -0.449219 38.710938 3.128906 44.953125 C 6.699219 51.191406 22.152344 48.945312 37.636719 39.945312 C 53.125 30.933594 62.78125 18.570312 59.207031 12.335938 C 55.628906 6.089844 40.175781 8.335938 24.691406 17.34375 Z M 27.074219 21.507812 C 37.078125 15.6875 46.78125 13.769531 48.757812 17.21875 C 50.722656 20.671875 44.226562 28.179688 34.230469 33.996094 C 24.234375 39.808594 14.53125 41.726562 12.554688 38.28125 C 10.578125 34.832031 17.082031 27.320312 27.074219 21.507812 Z M 27.074219 21.507812 "/>
<path style=" stroke:none;fill-rule:evenodd;fill:url(#linear0);fill-opacity:1;" d="M 46.492188 19.820312 C 15.660156 37.460938 46.492188 19.820312 15.820312 37.460938 C 13.371094 33.242188 12.878906 28.433594 14.054688 24.074219 C 22.992188 15.335938 26.933594 13.429688 35.742188 11.605469 C 37.929688 12.191406 40.007812 13.1875 41.839844 14.566406 C 43.675781 15.949219 45.269531 17.710938 46.492188 19.820312 Z M 46.492188 19.820312 "/>
</g>
</svg>
