<svg xmlns="http://www.w3.org/2000/svg" xmlns:xlink="http://www.w3.org/1999/xlink" width="64" height="64" viewBox="0 0 64 64" version="1.1">
<defs> <linearGradient id="linear0" gradientUnits="userSpaceOnUse" x1="0" y1="0" x2="0" y2="1" gradientTransform="matrix(55.992188,0,0,56,4.003906,4)"> <stop offset="0" style="stop-color:#ff6666;stop-opacity:1;"/> <stop offset="1" style="stop-color:#d90000;stop-opacity:1;"/> </linearGradient> </defs>
<g id="surface1">
<path style=" stroke:none;fill-rule:nonzero;fill:url(#linear0);fill-opacity:1;" d="M 12.679688 12.753906 L 12.679688 20.476562 L 4.40625 20.476562 L 4.40625 27.492188 L 12.679688 27.492188 L 12.679688 37.867188 L 4.40625 37.867188 L 4.40625 44.886719 L 19.886719 44.886719 L 19.886719 51.769531 L 27.46875 51.769531 L 27.46875 44.886719 L 36.515625 44.886719 L 36.515625 51.769531 L 44.101562 51.769531 L 44.101562 44.886719 L 60.132812 44.886719 L 60.132812 37.867188 L 51.769531 37.867188 L 51.769531 27.492188 L 60.132812 27.492188 L 60.132812 20.476562 L 51.769531 20.476562 L 51.769531 12.753906 L 44.726562 12.753906 L 44.726562 20.476562 L 35.867188 20.476562 L 35.867188 12.753906 L 28.832031 12.753906 L 28.832031 20.476562 L 19.726562 20.476562 L 19.726562 12.753906 Z M 19.726562 27.492188 L 28.832031 27.492188 L 28.832031 37.867188 L 19.726562 37.867188 Z M 35.867188 27.492188 L 44.726562 27.492188 L 44.726562 37.867188 L 35.867188 37.867188 Z M 35.867188 27.492188 "/>
</g>
</svg>
