<svg xmlns="http://www.w3.org/2000/svg" xmlns:xlink="http://www.w3.org/1999/xlink" width="64" height="64" viewBox="0 0 64 64" version="1.1">
<defs> <linearGradient id="linear0" gradientUnits="userSpaceOnUse" x1="0" y1="0" x2="0" y2="1" gradientTransform="matrix(55.992188,0,0,56,4.003906,4)"> <stop offset="0" style="stop-color:#ff6666;stop-opacity:1;"/> <stop offset="1" style="stop-color:#d90000;stop-opacity:1;"/> </linearGradient> </defs>
<g id="surface1">
<path style=" stroke:none;fill-rule:nonzero;fill:url(#linear0);fill-opacity:1;" d="M 27.695312 1.53125 L 27.695312 14.558594 L 23.339844 14.558594 L 32.054688 23.230469 L 40.773438 14.558594 L 36.410156 14.558594 L 36.410156 1.53125 L 27.695312 1.53125 M 20.074219 15.8125 L 14.621094 26.664062 L 14.621094 34.527344 L 14.628906 34.527344 L 14.628906 62.8125 L 49.492188 62.8125 L 49.492188 26.664062 L 44.039062 15.8125 L 41.601562 15.8125 L 47.046875 26.664062 L 40.773438 26.664062 L 40.773438 26.699219 L 23.339844 26.699219 L 23.339844 26.664062 L 17.0625 26.664062 L 22.507812 15.8125 L 20.066406 15.8125 M 32.949219 32.058594 L 32.949219 32.066406 C 35.054688 32.066406 36.933594 32.496094 38.585938 33.355469 C 40.246094 34.210938 41.523438 35.425781 42.425781 37.007812 C 43.324219 38.59375 43.773438 40.417969 43.773438 42.484375 C 43.773438 43.855469 43.550781 45.113281 43.105469 46.253906 C 42.671875 47.398438 42.046875 48.285156 41.246094 48.925781 C 40.4375 49.5625 39.507812 49.878906 38.445312 49.878906 C 37.734375 49.878906 37.105469 49.714844 36.554688 49.382812 C 36.007812 49.039062 35.621094 48.589844 35.390625 48.042969 L 35.15625 48.042969 C 34.691406 48.613281 34.125 49.058594 33.453125 49.394531 C 32.78125 49.714844 32.039062 49.878906 31.214844 49.878906 C 29.523438 49.878906 28.1875 49.375 27.210938 48.371094 C 26.234375 47.347656 25.746094 45.960938 25.746094 44.207031 C 25.746094 42.21875 26.378906 40.605469 27.644531 39.367188 C 28.914062 38.128906 30.597656 37.511719 32.691406 37.511719 C 33.464844 37.511719 34.363281 37.585938 35.371094 37.738281 C 36.390625 37.878906 37.210938 38.066406 37.855469 38.292969 L 37.523438 45.28125 C 37.523438 46.617188 37.886719 47.285156 38.617188 47.285156 C 39.230469 47.285156 39.71875 46.835938 40.082031 45.957031 C 40.445312 45.054688 40.625 43.890625 40.625 42.453125 C 40.625 40.921875 40.300781 39.570312 39.660156 38.398438 C 39.03125 37.21875 38.132812 36.3125 36.96875 35.695312 C 35.808594 35.070312 34.480469 34.753906 32.980469 34.753906 C 31.054688 34.753906 29.375 35.148438 27.945312 35.949219 C 26.507812 36.75 25.410156 37.898438 24.65625 39.382812 C 23.902344 40.867188 23.527344 42.585938 23.527344 44.523438 C 23.527344 47.164062 24.226562 49.183594 25.632812 50.59375 C 27.046875 51.996094 29.089844 52.695312 31.773438 52.695312 C 32.84375 52.695312 33.992188 52.578125 35.21875 52.339844 C 36.441406 52.101562 37.605469 51.773438 38.699219 51.367188 L 38.699219 54.128906 C 36.671875 54.980469 34.402344 55.410156 31.886719 55.410156 C 28.25 55.410156 25.417969 54.457031 23.378906 52.550781 C 21.351562 50.644531 20.335938 48.003906 20.335938 44.609375 C 20.335938 42.257812 20.863281 40.117188 21.902344 38.195312 C 22.957031 36.273438 24.441406 34.769531 26.367188 33.695312 C 28.285156 32.609375 30.476562 32.058594 32.949219 32.058594 M 32.863281 40.109375 C 31.667969 40.109375 30.734375 40.480469 30.0625 41.222656 C 29.402344 41.960938 29.074219 42.980469 29.074219 44.265625 C 29.074219 46.277344 29.898438 47.277344 31.542969 47.277344 C 32.398438 47.277344 33.042969 46.984375 33.492188 46.386719 C 33.953125 45.773438 34.230469 44.777344 34.328125 43.410156 L 34.515625 40.25 C 34.078125 40.152344 33.519531 40.113281 32.863281 40.113281 L 32.863281 40.109375 "/>
</g>
</svg>
