<svg xmlns="http://www.w3.org/2000/svg" xmlns:xlink="http://www.w3.org/1999/xlink" width="64" height="64" viewBox="0 0 64 64" version="1.1">
<defs> <linearGradient id="linear0" gradientUnits="userSpaceOnUse" x1="0" y1="0" x2="0" y2="1" gradientTransform="matrix(55.992188,0,0,56,4.003906,4)"> <stop offset="0" style="stop-color:#ff6666;stop-opacity:1;"/> <stop offset="1" style="stop-color:#d90000;stop-opacity:1;"/> </linearGradient> </defs>
<g id="surface1">
<path style=" stroke:none;fill-rule:nonzero;fill:url(#linear0);fill-opacity:1;" d="M 32.390625 5.304688 C 22.429688 5.304688 13.71875 10.695312 9.035156 18.695312 L 11.695312 20.222656 C 15.835938 13.136719 23.550781 8.390625 32.390625 8.390625 C 41.265625 8.390625 48.992188 13.175781 53.121094 20.308594 L 55.792969 18.777344 C 51.121094 10.726562 42.378906 5.304688 32.390625 5.304688 M 32.390625 12.414062 C 25.066406 12.414062 18.660156 16.367188 15.210938 22.25 L 16.988281 23.273438 C 20.078125 18 25.816406 14.464844 32.390625 14.464844 C 39.007812 14.464844 44.765625 18.039062 47.839844 23.355469 L 49.609375 22.328125 C 46.175781 16.402344 39.746094 12.414062 32.390625 12.414062 Z M 32.390625 20.476562 C 28.0625 20.476562 24.277344 22.808594 22.226562 26.28125 L 23.46875 27 C 25.265625 23.949219 28.585938 21.914062 32.390625 21.914062 C 36.230469 21.914062 39.570312 23.988281 41.351562 27.078125 L 42.597656 26.363281 C 40.558594 22.847656 36.753906 20.476562 32.390625 20.476562 M 32.390625 26.867188 C 30.375 26.867188 28.746094 28.492188 28.746094 30.5 C 28.746094 31.84375 29.472656 33.027344 30.5625 33.65625 L 30.597656 52.074219 L 23.894531 52.074219 C 22.304688 52.074219 21.03125 53.351562 21.03125 54.9375 C 21.03125 56.515625 22.304688 57.785156 23.894531 57.785156 L 40.882812 57.785156 C 42.472656 57.785156 43.742188 56.515625 43.742188 54.9375 C 43.742188 53.351562 42.472656 52.074219 40.882812 52.074219 L 34.207031 52.074219 L 34.179688 33.675781 C 35.289062 33.050781 36.035156 31.863281 36.035156 30.503906 C 36.035156 28.492188 34.40625 26.875 32.390625 26.875 Z M 32.390625 26.867188 "/>
</g>
</svg>
