<svg xmlns="http://www.w3.org/2000/svg" xmlns:xlink="http://www.w3.org/1999/xlink" width="64" height="64" viewBox="0 0 64 64" version="1.1">
<defs> <linearGradient id="linear0" gradientUnits="userSpaceOnUse" x1="0" y1="0" x2="0" y2="1" gradientTransform="matrix(55.992188,0,0,56,4.003906,4)"> <stop offset="0" style="stop-color:#ff6666;stop-opacity:1;"/> <stop offset="1" style="stop-color:#d90000;stop-opacity:1;"/> </linearGradient> </defs>
<g id="surface1">
<path style=" stroke:none;fill-rule:nonzero;fill:url(#linear0);fill-opacity:1;" d="M 24.847656 32.183594 C 24.847656 36.792969 21.09375 40.53125 16.46875 40.53125 C 11.839844 40.53125 8.085938 36.792969 8.085938 32.183594 C 8.085938 27.574219 11.839844 23.835938 16.46875 23.835938 C 21.09375 23.835938 24.847656 27.574219 24.847656 32.183594 "/>
<path style=" stroke:none;fill-rule:nonzero;fill:url(#linear0);fill-opacity:1;" d="M 56.03125 16.734375 C 56.03125 21.34375 52.277344 25.082031 47.652344 25.082031 C 43.023438 25.082031 39.273438 21.34375 39.273438 16.734375 C 39.273438 12.125 43.023438 8.386719 47.652344 8.386719 C 52.277344 8.386719 56.03125 12.125 56.03125 16.734375 "/>
<path style=" stroke:none;fill-rule:nonzero;fill:url(#linear0);fill-opacity:1;" d="M 56.03125 47.613281 C 56.03125 52.222656 52.277344 55.960938 47.652344 55.960938 C 43.023438 55.960938 39.273438 52.226562 39.273438 47.613281 C 39.273438 43.003906 43.023438 39.269531 47.652344 39.269531 C 52.277344 39.269531 56.03125 43.003906 56.03125 47.613281 "/>
<path style=" stroke:none;fill-rule:nonzero;fill:url(#linear0);fill-opacity:1;" d="M 21.125 38.078125 C 22.277344 38.335938 40.085938 47.515625 40.085938 47.515625 L 42.679688 41.414062 L 24.480469 32.292969 Z M 21.125 38.078125 "/>
<path style=" stroke:none;fill-rule:nonzero;fill:url(#linear0);fill-opacity:1;" d="M 43.226562 22.660156 C 42.078125 22.921875 24.269531 32.105469 24.269531 32.105469 L 21.675781 26.003906 L 39.875 16.882812 Z M 43.226562 22.660156 "/>
</g>
</svg>
