<svg xmlns="http://www.w3.org/2000/svg" xmlns:xlink="http://www.w3.org/1999/xlink" width="64" height="64" viewBox="0 0 64 64" version="1.1">
<defs> <linearGradient id="linear0" gradientUnits="userSpaceOnUse" x1="0" y1="0" x2="0" y2="1" gradientTransform="matrix(55.992188,0,0,56,4.003906,4)"> <stop offset="0" style="stop-color:#ff6666;stop-opacity:1;"/> <stop offset="1" style="stop-color:#d90000;stop-opacity:1;"/> </linearGradient> </defs>
<g id="surface1">
<path style=" stroke:none;fill-rule:nonzero;fill:url(#linear0);fill-opacity:1;" d="M 43.5625 0.640625 C 43.398438 0.644531 43.300781 0.824219 43.300781 1.164062 C 43.300781 1.453125 43.222656 1.734375 43.117188 1.796875 C 43.023438 1.867188 42.941406 2.195312 42.941406 2.539062 C 42.941406 3.167969 42.890625 3.210938 42.011719 3.410156 C 41.539062 3.511719 41.515625 3.570312 41.527344 4.546875 C 41.535156 5.480469 41.597656 5.636719 42.148438 6.199219 C 42.527344 6.582031 42.703125 6.882812 42.601562 7.007812 C 42.523438 7.109375 42.351562 7.683594 42.234375 8.273438 C 41.824219 9.816406 41.1875 11.507812 40.8125 13.148438 C 40.8125 13.300781 40.5625 13.769531 40.261719 14.183594 C 39.308594 15.550781 38.273438 17.140625 37.070312 18.5 C 37.066406 14.945312 37.085938 10.398438 36.984375 5.949219 C 32.335938 5.492188 26.6875 4.890625 21.242188 4.378906 C 21.949219 9.773438 23.734375 15.613281 24.878906 21.886719 C 23.34375 23.78125 21.113281 25.664062 19.214844 27.496094 L 17.996094 28.71875 C 17.808594 31.179688 17.769531 33.597656 17.257812 35.882812 C 16.355469 36.136719 15.617188 36.359375 14.746094 36.636719 C 13.84375 36.941406 13.105469 37.222656 12.203125 37.449219 C 11.894531 37.546875 12.058594 37.8125 13.242188 39.105469 C 14.097656 40.039062 14.273438 40.160156 14.542969 39.960938 C 14.707031 39.832031 15.046875 39.582031 15.296875 39.390625 C 15.835938 38.953125 16.296875 38.511719 16.910156 38.242188 C 17.101562 38.242188 17.863281 39.671875 17.863281 40.039062 C 17.863281 40.355469 18.214844 40.238281 18.671875 39.785156 C 19.050781 39.402344 19.109375 39.175781 19.109375 38.117188 C 19.109375 37.445312 19.191406 36.613281 19.300781 36.261719 C 19.914062 33.835938 20.0625 32.738281 20.75 30.421875 C 20.964844 29.878906 21.304688 29.429688 21.511719 29.429688 C 22.714844 28.59375 24.203125 27.445312 25.59375 26.550781 C 26.472656 28.503906 26.960938 31.109375 27.519531 33.34375 C 27.636719 33.496094 27.625 33.648438 27.511719 33.800781 C 26.917969 35.570312 26.398438 37.144531 25.785156 39.113281 C 25.648438 39.46875 25.429688 39.84375 25.332031 40.265625 C 24.089844 41.644531 22.863281 42.71875 21.804688 44.003906 C 20.929688 45 19.910156 46.109375 18.824219 47.019531 L 16.675781 49.132812 L 16.546875 50.253906 C 16.480469 50.863281 16.3125 51.796875 16.183594 52.324219 C 16.042969 52.878906 16 53.339844 16.09375 53.4375 C 16.183594 53.527344 16.796875 53.800781 17.460938 54.03125 C 19.363281 54.703125 19.640625 54.789062 19.664062 54.660156 C 19.722656 54.261719 19.589844 53.136719 19.386719 52.285156 C 19.222656 51.453125 19.027344 50.558594 18.953125 49.671875 L 21.800781 47.691406 C 23.195312 46.71875 25.03125 45.367188 26.707031 44.285156 C 27.347656 43.734375 27.46875 43.648438 27.609375 43.648438 C 28.035156 43.648438 29.132812 42.386719 29.589844 41.359375 C 30.050781 40.578125 30.441406 39.902344 30.886719 39.144531 C 30.953125 39 31.011719 39.738281 31.015625 40.796875 C 31.027344 42.636719 31.011719 42.742188 30.539062 43.3125 C 30.265625 43.648438 29.972656 44.019531 29.875 44.15625 C 29.039062 45.164062 28.285156 46.085938 27.511719 47.074219 C 26.121094 48.777344 24.566406 50.734375 23.15625 52.511719 C 22.945312 52.765625 22.84375 53.1875 22.84375 53.851562 C 22.84375 54.386719 22.765625 55.394531 22.65625 56.078125 C 22.4375 57.492188 22.542969 57.765625 23.339844 57.917969 C 23.605469 57.960938 24.230469 58.164062 24.714844 58.367188 L 24.707031 58.367188 C 25.703125 58.777344 26.167969 58.789062 26.074219 58.390625 C 26.035156 58.25 25.941406 57.605469 25.847656 56.964844 C 25.753906 56.320312 25.605469 55.511719 25.503906 55.167969 C 25.410156 54.816406 25.332031 54.207031 25.332031 53.804688 C 25.332031 53.1875 25.429688 52.996094 25.996094 52.515625 C 28.574219 50.257812 31.164062 47.917969 33.84375 45.480469 C 34.816406 44.609375 34.933594 44.421875 35.121094 43.5 C 35.746094 40.609375 36.121094 38.132812 36.859375 35.097656 C 37.304688 31.210938 37.117188 28.339844 37.53125 24.792969 C 39.949219 21.15625 41.738281 18.296875 43.316406 14.496094 C 43.71875 12.621094 44.253906 10.734375 44.605469 8.820312 C 44.941406 6.898438 44.964844 6.867188 46.070312 6.125 L 47.03125 5.472656 L 47.03125 2.640625 L 46.503906 2.527344 C 46.207031 2.460938 45.964844 2.335938 45.964844 2.261719 C 45.964844 2.175781 45.792969 2.0625 45.570312 2.011719 C 45.140625 1.898438 44.511719 1.457031 44.039062 0.945312 C 43.851562 0.734375 43.6875 0.640625 43.5625 0.640625 Z M 35.246094 8.183594 L 35.253906 8.183594 C 35.371094 9.019531 35.464844 9.632812 35.554688 10.433594 C 33.976562 11.429688 32.488281 12.210938 30.714844 12.980469 L 27.324219 14.636719 C 26.761719 14.648438 26.542969 10.976562 26.253906 9.179688 C 26.335938 8.496094 26.609375 8.441406 31.402344 8.296875 Z M 35.246094 8.183594 "/>
</g>
</svg>
