<svg xmlns="http://www.w3.org/2000/svg" xmlns:xlink="http://www.w3.org/1999/xlink" width="64" height="64" viewBox="0 0 64 64" version="1.1">
<defs>
<linearGradient id="linear0" gradientUnits="userSpaceOnUse" x1="0" y1="0" x2="0" y2="1" gradientTransform="matrix(39.953125,0,0,64,12.023438,0)">
<stop offset="0" style="stop-color:#ff6666;stop-opacity:1;"/>
<stop offset="1" style="stop-color:#d90000;stop-opacity:1;"/>
</linearGradient>
</defs>
<g id="surface1">
<path style=" stroke:none;fill-rule:nonzero;fill:url(#linear0);" d="M 35.945312 63.5625 C 35.722656 63.5625 35.507812 63.5625 35.054688 63.34375 C 34.613281 63.117188 34.171875 62.679688 33.734375 62.238281 L 25.535156 43.1875 L 15.570312 52.488281 C 15.347656 52.925781 14.90625 53.152344 14.238281 53.152344 C 14.011719 53.152344 13.574219 53.152344 13.359375 52.925781 C 12.691406 52.710938 12.023438 51.820312 12.023438 50.9375 L 12.023438 2.214844 C 12.023438 1.332031 12.46875 0.441406 13.359375 0.226562 C 13.574219 0 14.015625 0 14.242188 0 C 14.683594 0 15.347656 0.226562 15.792969 0.664062 L 51.226562 33.882812 C 51.890625 34.554688 52.117188 35.433594 51.890625 36.316406 C 51.664062 37.207031 50.785156 37.648438 49.902344 37.875 L 35.949219 39.199219 L 44.582031 58.023438 C 44.804688 58.464844 44.804688 59.128906 44.582031 59.796875 C 44.367188 60.238281 43.914062 60.902344 43.472656 61.128906 L 37.054688 64 C 36.613281 63.558594 36.164062 63.558594 35.949219 63.558594 Z M 35.945312 63.5625 "/>
</g>
</svg>
