<svg xmlns="http://www.w3.org/2000/svg" xmlns:xlink="http://www.w3.org/1999/xlink" width="64" height="64" viewBox="0 0 64 64" version="1.1">
<defs> <linearGradient id="linear0" gradientUnits="userSpaceOnUse" x1="0" y1="0" x2="0" y2="1" gradientTransform="matrix(55.992188,0,0,56,4.003906,4)"> <stop offset="0" style="stop-color:#ff6666;stop-opacity:1;"/> <stop offset="1" style="stop-color:#d90000;stop-opacity:1;"/> </linearGradient> </defs>
<g id="surface1">
<path style=" stroke:none;fill-rule:nonzero;fill:url(#linear0);fill-opacity:1;" d="M 4.769531 11.292969 L 4.769531 17.8125 L 12.414062 17.8125 C 12.929688 17.011719 13.753906 16.484375 14.691406 16.484375 L 18.449219 16.484375 C 19.386719 16.484375 20.210938 17.011719 20.726562 17.8125 L 28.371094 17.8125 L 28.371094 11.292969 Z M 4.769531 21.550781 L 4.769531 53.046875 L 28.371094 53.046875 L 28.371094 21.550781 L 20.867188 21.550781 C 20.367188 22.496094 19.476562 23.117188 18.449219 23.117188 L 14.691406 23.117188 C 13.667969 23.117188 12.769531 22.496094 12.269531 21.550781 L 4.769531 21.550781 "/>
<path style=" stroke:none;fill-rule:nonzero;fill:url(#linear0);fill-opacity:1;" d="M 35.746094 11.292969 L 35.746094 17.8125 L 43.390625 17.8125 C 43.90625 17.011719 44.730469 16.484375 45.667969 16.484375 L 49.421875 16.484375 C 50.359375 16.484375 51.183594 17.011719 51.699219 17.8125 L 59.34375 17.8125 L 59.34375 11.292969 L 35.746094 11.292969 M 35.746094 21.550781 L 35.746094 53.046875 L 59.34375 53.046875 L 59.34375 21.550781 L 51.839844 21.550781 C 51.34375 22.496094 50.445312 23.117188 49.421875 23.117188 L 45.667969 23.117188 C 44.640625 23.117188 43.75 22.496094 43.25 21.550781 L 35.746094 21.550781 "/>
</g>
</svg>
