<svg xmlns="http://www.w3.org/2000/svg" xmlns:xlink="http://www.w3.org/1999/xlink" width="64" height="64" viewBox="0 0 64 64" version="1.1">
<defs> <linearGradient id="linear0" gradientUnits="userSpaceOnUse" x1="0" y1="0" x2="0" y2="1" gradientTransform="matrix(55.992188,0,0,56,4.003906,4)"> <stop offset="0" style="stop-color:#ff6666;stop-opacity:1;"/> <stop offset="1" style="stop-color:#d90000;stop-opacity:1;"/> </linearGradient> </defs>
<g id="surface1">
<path style=" stroke:none;fill-rule:evenodd;fill:url(#linear0);fill-opacity:1;" d="M 32.054688 5.390625 C 21.28125 5.390625 12.554688 14.082031 12.554688 24.808594 C 12.554688 35.539062 21.28125 44.234375 32.054688 44.234375 C 42.828125 44.234375 51.558594 35.539062 51.558594 24.808594 C 51.558594 14.082031 42.828125 5.390625 32.054688 5.390625 M 38.78125 7.703125 C 41.085938 8.601562 43.238281 9.96875 45.101562 11.824219 C 46.667969 13.386719 47.902344 15.160156 48.785156 17.050781 L 37.386719 23.601562 C 37.167969 22.636719 36.679688 21.722656 35.921875 20.96875 C 35.140625 20.191406 34.167969 19.691406 33.15625 19.484375 L 38.78125 7.703125 M 32.054688 20.269531 C 34.578125 20.269531 36.617188 22.304688 36.617188 24.808594 C 36.617188 27.320312 34.578125 29.355469 32.054688 29.355469 C 29.535156 29.355469 27.496094 27.320312 27.496094 24.808594 C 27.496094 22.304688 29.539062 20.273438 32.054688 20.273438 Z M 32.054688 21.273438 C 30.097656 21.273438 28.5 22.859375 28.5 24.808594 C 28.5 26.765625 30.097656 28.351562 32.054688 28.351562 C 34.019531 28.351562 35.609375 26.765625 35.609375 24.808594 C 35.609375 22.859375 34.019531 21.273438 32.054688 21.273438 M 32.054688 22.316406 C 33.441406 22.316406 34.566406 23.429688 34.566406 24.808594 C 34.566406 26.191406 33.441406 27.308594 32.054688 27.308594 C 30.671875 27.308594 29.546875 26.191406 29.546875 24.808594 C 29.546875 23.429688 30.671875 22.316406 32.054688 22.316406 M 26.671875 26.015625 C 26.710938 26.195312 26.761719 26.375 26.824219 26.550781 C 26.847656 26.613281 26.867188 26.671875 26.886719 26.726562 C 27.0625 27.195312 27.308594 27.644531 27.621094 28.054688 C 27.660156 28.105469 27.699219 28.15625 27.738281 28.207031 C 27.863281 28.363281 27.996094 28.507812 28.136719 28.648438 C 28.382812 28.898438 28.644531 29.109375 28.921875 29.292969 C 28.976562 29.335938 29.035156 29.375 29.089844 29.40625 C 29.320312 29.550781 29.550781 29.679688 29.789062 29.78125 C 29.910156 29.835938 30.035156 29.882812 30.152344 29.921875 C 30.335938 29.992188 30.523438 30.046875 30.710938 30.09375 C 30.773438 30.109375 30.835938 30.121094 30.898438 30.132812 L 25.28125 41.910156 C 25.140625 41.855469 24.992188 41.804688 24.847656 41.742188 C 24.707031 41.6875 24.566406 41.617188 24.421875 41.554688 C 24.140625 41.429688 23.859375 41.300781 23.582031 41.152344 C 23.445312 41.085938 23.304688 41.007812 23.167969 40.933594 C 23.03125 40.859375 22.894531 40.78125 22.757812 40.703125 C 22.488281 40.542969 22.21875 40.386719 21.953125 40.210938 C 21.824219 40.125 21.691406 40.039062 21.5625 39.949219 C 21.039062 39.59375 20.527344 39.203125 20.035156 38.785156 C 19.914062 38.683594 19.789062 38.570312 19.671875 38.460938 C 19.550781 38.355469 19.425781 38.246094 19.308594 38.132812 C 19.1875 38.019531 19.074219 37.90625 18.953125 37.789062 C 18.371094 37.207031 17.832031 36.589844 17.335938 35.949219 C 17.257812 35.84375 17.175781 35.734375 17.097656 35.628906 C 16.382812 34.65625 15.78125 33.632812 15.28125 32.570312 L 26.671875 26.015625 M 7.796875 48.070312 L 7.796875 58.957031 L 12.527344 56.230469 L 17.257812 53.511719 Z M 33.417969 50.125 C 31.542969 50.125 30.015625 51.644531 30.015625 53.511719 C 30.015625 55.382812 31.542969 56.898438 33.417969 56.898438 C 35.296875 56.898438 36.820312 55.382812 36.820312 53.511719 C 36.820312 51.644531 35.296875 50.125 33.417969 50.125 Z M 22.875 52.109375 C 22.09375 52.109375 21.464844 52.734375 21.464844 53.511719 C 21.464844 54.292969 22.09375 54.917969 22.875 54.917969 L 28.824219 54.917969 C 28.550781 54.007812 28.609375 53.019531 28.914062 52.109375 Z M 37.933594 52.109375 C 38.207031 53.019531 38.230469 54.015625 37.960938 54.917969 L 54.910156 54.917969 C 55.691406 54.917969 56.316406 54.292969 56.316406 53.511719 C 56.316406 52.734375 55.691406 52.109375 54.910156 52.109375 L 37.933594 52.109375 "/>
</g>
</svg>
