<svg xmlns="http://www.w3.org/2000/svg" xmlns:xlink="http://www.w3.org/1999/xlink" width="64" height="64" viewBox="0 0 64 64" version="1.1">
<defs>
<linearGradient id="linear0" gradientUnits="userSpaceOnUse" x1="0" y1="0" x2="0" y2="1" gradientTransform="matrix(56,0,0,51.695312,4,6.152344)">
<stop offset="0" style="stop-color:#ff6666;stop-opacity:1;"/>
<stop offset="1" style="stop-color:#d90000;stop-opacity:1;"/>
</linearGradient>
</defs>
<g id="surface1">
<path style=" stroke:none;fill-rule:nonzero;fill:url(#linear0);" d="M 28.926881 25.538575 C 29.523736 25.882185 30.286023 25.679873 30.629863 25.08257 C 30.944509 24.488478 30.733663 23.749878 30.153028 23.41269 C 29.569148 23.078714 28.82308 23.26497 28.469509 23.836583 C 28.125669 24.433886 28.33327 25.194966 28.926881 25.538575 Z M 35.300897 20.098622 C 37.50342 21.360665 38.787955 23.765934 38.612791 26.296444 C 38.606303 26.453798 38.68091 26.604729 38.813905 26.694646 L 52.168523 34.411416 C 52.197717 34.430684 52.226911 34.456374 52.249617 34.485276 C 52.580482 34.93807 52.749159 35.378019 52.833497 35.673459 C 52.852959 35.740897 52.843228 35.817968 52.807547 35.878983 L 52.726452 36.02028 L 52.223667 36.890545 L 52.074454 37.153872 C 52.038772 37.211675 52.012822 37.247 51.944703 37.266267 L 51.23756 37.46858 L 51.234316 37.471791 L 50.244965 37.593821 L 49.401584 37.609877 L 48.824192 37.519961 C 48.717147 37.503904 48.636053 37.426833 48.610103 37.324071 L 48.577665 37.202041 L 48.402501 37.253422 C 48.331138 37.27269 48.263019 37.263056 48.198143 37.227732 C 48.136512 37.192407 48.094343 37.131393 48.07488 37.063955 L 48.026223 36.887333 L 47.808891 36.948348 C 47.737528 36.964405 47.669408 36.957982 47.604533 36.922658 L 46.903878 36.514822 C 46.842246 36.479497 46.796833 36.421694 46.780614 36.351045 L 46.5795 35.602811 L 45.823701 35.801912 C 45.758825 35.821179 45.684218 35.811545 45.622587 35.776221 L 45.395523 35.644558 C 45.307941 35.593177 45.259284 35.500049 45.262528 35.40371 L 45.28199 34.851365 L 44.098013 34.170568 L 43.21895 34.315077 C 43.157318 34.327922 43.092443 34.315077 43.040543 34.286175 L 40.88992 33.04661 C 40.805582 32.995229 40.753682 32.902102 40.756926 32.805762 L 40.776388 32.311221 L 40.166559 32.519956 C 40.095196 32.542435 40.014101 32.536013 39.945982 32.497477 L 39.71243 32.362602 L 38.586841 32.580971 C 38.521965 32.593816 38.45709 32.580971 38.401945 32.552069 L 36.264298 31.315716 C 36.105353 31.209743 35.897752 31.219377 35.745294 31.334984 C 33.633597 32.780072 30.850439 32.895679 28.647917 31.62079 C 25.469018 29.780712 24.37911 25.715197 26.215086 22.532792 C 28.054306 19.350387 32.118755 18.261754 35.300897 20.098622 " transform="matrix(1.20423,0,0,1.216405,-7.651023,-5.748848)"/>
<path style=" stroke:none;fill-rule:nonzero;fill:url(#linear0);" d="M 28.154863 24.755017 C 28.391658 25.397278 29.105289 25.731254 29.754044 25.496828 C 30.373604 25.246346 30.688251 24.546282 30.457943 23.913654 C 30.227635 23.284238 29.539954 22.94384 28.897687 23.152575 C 28.25542 23.390211 27.921311 24.106333 28.154863 24.755017 Z M 36.540019 24.684368 C 37.412594 27.063946 36.851421 29.729331 35.093296 31.553353 L 35.090052 31.562987 C 34.983008 31.675382 34.940838 31.839159 34.983008 31.993302 L 40.257384 46.492351 C 40.270359 46.527676 40.273603 46.563 40.273603 46.598325 C 40.247653 47.041485 40.137365 47.475011 39.955713 47.882847 C 39.926519 47.950285 39.871375 47.998454 39.803256 48.024145 L 39.650799 48.078737 L 38.70686 48.422347 L 38.421408 48.52832 C 38.359776 48.550799 38.317607 48.557222 38.252732 48.531531 L 37.578027 48.23288 L 36.737889 47.690169 L 36.082647 47.163515 L 35.696638 46.717143 C 35.628519 46.640072 35.6123 46.527676 35.657713 46.434548 L 35.709613 46.318941 L 35.547424 46.245081 C 35.479305 46.216179 35.430648 46.161587 35.404698 46.094149 C 35.381992 46.026712 35.385236 45.952852 35.414429 45.891837 L 35.49228 45.72806 L 35.284679 45.62851 C 35.223047 45.596397 35.171146 45.548227 35.14844 45.48079 L 34.869475 44.71971 C 34.846769 44.652273 34.850013 44.578413 34.882451 44.510975 L 35.210072 43.807699 L 34.502929 43.476935 C 34.441297 43.444821 34.389397 43.393441 34.36669 43.329214 L 34.275865 43.081944 C 34.243427 42.988816 34.26289 42.882843 34.327765 42.812194 C 34.327765 42.812194 34.571048 42.545656 34.700799 42.401147 L 34.230452 41.116624 L 33.461677 40.66383 C 33.409777 40.631717 33.367608 40.583547 33.348145 40.522532 L 32.495033 38.194335 C 32.465839 38.101207 32.485301 37.995234 32.550177 37.924585 C 32.550177 37.924585 32.738316 37.71585 32.884286 37.558496 L 32.2777 37.324071 C 32.206337 37.29838 32.151193 37.243788 32.125242 37.166717 L 32.031173 36.909812 L 31.028847 36.354256 C 30.973703 36.325355 30.92829 36.273974 30.905583 36.21617 L 30.062202 33.894395 C 30.007058 33.714562 29.844869 33.58611 29.65673 33.579687 C 27.10388 33.329205 24.901357 31.624002 24.032026 29.234789 C 22.779929 25.782635 24.557517 21.964391 28.012137 20.702348 C 31.463513 19.453149 35.278191 21.229002 36.540019 24.684368 " transform="matrix(1.20423,0,0,1.216405,-7.651023,-5.748848)"/>
<path style=" stroke:none;fill-rule:nonzero;fill:url(#linear0);" d="M 24.304503 39.321504 L 22.111712 39.321504 L 22.111712 41.514826 L 24.304503 41.514826 Z M 24.304503 39.321504 " transform="matrix(1.20423,0,0,1.216405,-7.651023,-5.748848)"/>
<path style=" stroke:none;fill-rule:nonzero;fill:url(#linear0);" d="M 25.426849 39.575197 L 24.015807 38.171856 L 22.851292 39.340772 L 24.262334 40.740901 Z M 25.426849 39.575197 " transform="matrix(1.20423,0,0,1.216405,-7.651023,-5.748848)"/>
<path style=" stroke:none;fill-rule:nonzero;fill:url(#linear0);" d="M 23.91525 37.523172 L 23.380027 38.065883 L 25.540381 40.207824 L 26.075604 39.668325 Z M 23.91525 37.523172 " transform="matrix(1.20423,0,0,1.216405,-7.651023,-5.748848)"/>
<path style=" stroke:none;fill-rule:nonzero;fill:url(#linear0);" d="M 21.875 45.007812 L 18.789062 41.832031 L 10.8125 49.753906 L 13.898438 52.921875 Z M 10.816406 49.765625 C 10.121094 50.472656 10.367188 51.636719 11.226562 52.511719 C 12.082031 53.378906 13.195312 53.589844 13.902344 52.917969 C 14.613281 52.21875 14.609375 50.808594 13.753906 49.941406 C 12.890625 49.066406 11.511719 49.050781 10.816406 49.765625 Z M 10.816406 49.765625 "/>
<path style=" stroke:none;fill-rule:nonzero;fill:url(#linear0);" d="M 28.390625 27.527344 C 24.152344 27.527344 20.71875 30.996094 20.71875 35.277344 C 20.71875 39.558594 24.152344 43.027344 28.390625 43.027344 C 32.625 43.027344 36.058594 39.558594 36.058594 35.277344 C 36.0625 30.996094 32.628906 27.527344 28.390625 27.527344 Z M 28.390625 27.527344 "/>
<path style=" stroke:none;fill-rule:nonzero;fill:url(#linear0);" d="M 29.857844 26.489122 C 33.565478 26.489122 37.162824 29.404989 37.162824 33.605378 C 37.162824 37.799344 33.364364 40.927157 29.929207 40.936791 C 26.529732 40.949636 22.715054 37.924585 22.715054 33.727407 C 22.679372 29.562343 26.328618 26.550137 29.857844 26.485911 Z M 29.929207 27.356175 C 26.412956 27.356175 23.558435 30.207815 23.558435 33.727407 C 23.600604 37.214886 26.44215 40.015146 29.929207 40.015146 C 33.413021 40.015146 36.254567 37.214886 36.296736 33.727407 C 36.29998 30.207815 33.448702 27.356175 29.929207 27.356175 Z M 29.929207 27.356175 " transform="matrix(1.20423,0,0,1.216405,-7.651023,-5.748848)"/>
<path style=" stroke:none;fill-rule:nonzero;fill:url(#linear0);" d="M 24.675781 8.1875 C 20.078125 8.1875 16.347656 11.949219 16.347656 16.59375 C 16.347656 21.238281 20.078125 25.003906 24.675781 25.003906 C 29.277344 25.003906 33 21.238281 33 16.59375 C 33 11.949219 29.277344 8.1875 24.675781 8.1875 Z M 24.675781 9.871094 C 28.355469 9.871094 31.335938 12.878906 31.335938 16.59375 C 31.335938 20.308594 28.355469 23.320312 24.675781 23.320312 C 20.996094 23.320312 18.015625 20.308594 18.015625 16.59375 C 18.015625 12.878906 20.996094 9.871094 24.675781 9.871094 Z M 24.675781 9.871094 "/>
<path style=" stroke:none;fill-rule:nonzero;fill:url(#linear0);" d="M 234.356972 211.941006 C 167.411115 211.941006 113.092259 266.166648 113.092259 333.118141 C 113.092259 400.069635 167.411115 454.351586 234.356972 454.351586 C 301.359707 454.351586 355.564805 400.069635 355.564805 333.118141 C 355.564805 266.166648 301.359707 211.941006 234.356972 211.941006 Z M 234.356972 236.210219 C 287.936408 236.210219 331.334614 279.568209 331.334614 333.118141 C 331.334614 386.668074 287.936408 430.082373 234.356972 430.082373 C 180.777535 430.082373 137.379329 386.668074 137.379329 333.118141 C 137.379329 279.568209 180.777535 236.210219 234.356972 236.210219 Z M 234.356972 236.210219 " transform="matrix(0.0686772,0,0,0.0693716,8.580793,-6.515184)"/>
</g>
</svg>
