<svg xmlns="http://www.w3.org/2000/svg" xmlns:xlink="http://www.w3.org/1999/xlink" width="64" height="64" viewBox="0 0 64 64" version="1.1">
<defs>
<linearGradient id="linear0" gradientUnits="userSpaceOnUse" x1="0" y1="0" x2="0" y2="1" gradientTransform="matrix(64,0,0,49.472656,0,7.265625)">
<stop offset="0" style="stop-color:#ff6666;stop-opacity:1;"/>
<stop offset="1" style="stop-color:#d90000;stop-opacity:1;"/>
</linearGradient>
</defs>
<g id="surface1">
<path style=" stroke:none;fill-rule:nonzero;fill:url(#linear0);" d="M 55.347656 7.265625 C 55.105469 7.253906 54.863281 7.304688 54.648438 7.421875 C 52.859375 8.222656 54.933594 10.128906 48.765625 12.914062 C 42.707031 15.644531 29.847656 14.03125 18.261719 19.265625 C 16.722656 19.960938 15.375 20.714844 14.160156 21.433594 C 13.875 20.824219 13.484375 20.273438 12.996094 19.808594 C 11.878906 18.703125 10.21875 18.105469 8.351562 18.105469 C 7.789062 18.105469 7.773438 17.988281 7.65625 17.871094 C 7.425781 17.636719 7.265625 17.339844 7.1875 17.019531 C 6.957031 16.101562 7.113281 14.929688 7.113281 14.929688 C 7.226562 14.132812 6.953125 13.328125 6.367188 12.773438 C 5.78125 12.21875 4.960938 11.984375 4.167969 12.144531 C 3.09375 12.34375 2.277344 13.222656 2.15625 14.3125 C 2.15625 14.3125 1.875 16.128906 2.390625 18.183594 C 2.652344 19.207031 3.171875 20.355469 4.167969 21.351562 C 5.289062 22.445312 6.789062 23.054688 8.351562 23.058594 C 9.253906 23.058594 9.40625 23.261719 9.511719 23.367188 C 9.621094 23.476562 9.753906 23.675781 9.824219 24.144531 C 9.832031 24.21875 9.8125 24.296875 9.824219 24.375 C 3.589844 29.667969 4.179688 34.691406 3.785156 36.300781 C 3.289062 35.53125 2.128906 35.3125 1.152344 35.757812 C 0.0976562 36.230469 -0.832031 38.386719 1.226562 42.957031 C 3.289062 47.523438 5.59375 48.308594 6.648438 47.832031 C 7.625 47.386719 8.128906 46.378906 7.886719 45.511719 C 8.855469 46.015625 10.722656 47.789062 14.15625 48.609375 C 13.761719 47.222656 13.550781 45.792969 13.539062 44.351562 C 13.550781 35.59375 20.648438 28.492188 29.410156 28.480469 C 35.351562 28.480469 40.558594 31.769531 43.269531 36.609375 C 47.296875 32.757812 51.796875 28.3125 55.035156 26.851562 C 61.199219 24.066406 61.382812 27.191406 63.167969 26.386719 C 64.269531 25.890625 64.117188 24.976562 63.632812 23.910156 L 56.820312 8.734375 C 56.460938 7.945312 56.011719 7.332031 55.347656 7.265625 Z M 29.410156 31.964844 C 22.566406 31.964844 17.023438 37.507812 17.023438 44.351562 C 17.023438 51.191406 22.566406 56.738281 29.410156 56.738281 C 36.253906 56.738281 41.796875 51.191406 41.796875 44.351562 C 41.796875 37.507812 36.253906 31.964844 29.410156 31.964844 Z M 29.410156 36.683594 C 33.644531 36.6875 37.070312 40.117188 37.074219 44.351562 C 37.070312 48.585938 33.644531 52.011719 29.410156 52.015625 C 25.175781 52.011719 21.746094 48.585938 21.742188 44.351562 C 21.746094 40.117188 25.175781 36.6875 29.410156 36.683594 Z M 29.410156 41.71875 C 27.980469 41.71875 26.777344 42.921875 26.777344 44.351562 C 26.777344 45.785156 27.980469 46.984375 29.410156 46.984375 C 30.84375 46.984375 32.042969 45.785156 32.042969 44.351562 C 32.042969 42.921875 30.84375 41.714844 29.410156 41.714844 Z M 29.410156 41.71875 "/>
</g>
</svg>
