<svg xmlns="http://www.w3.org/2000/svg" xmlns:xlink="http://www.w3.org/1999/xlink" width="64" height="64" viewBox="0 0 64 64" version="1.1">
<defs>
<linearGradient id="linear0" gradientUnits="userSpaceOnUse" x1="0" y1="0" x2="0" y2="1" gradientTransform="matrix(53.335938,0,0,24,5.332031,20)">
<stop offset="0" style="stop-color:#ff6666;stop-opacity:1;"/>
<stop offset="1" style="stop-color:#d90000;stop-opacity:1;"/>
</linearGradient>
<linearGradient id="linear1" gradientUnits="userSpaceOnUse" x1="0" y1="0" x2="0" y2="1" gradientTransform="matrix(64,0,0,29.335938,0,17.332031)">
<stop offset="0" style="stop-color:#ff6666;stop-opacity:1;"/>
<stop offset="1" style="stop-color:#d90000;stop-opacity:1;"/>
</linearGradient>
</defs>
<g id="surface1">
<path style=" stroke:none;fill-rule:nonzero;fill:url(#linear0);" d="M 5.332031 44 L 5.332031 38.667969 L 29.332031 38.667969 L 29.332031 20 L 58.667969 20 L 58.667969 25.332031 L 34.667969 25.332031 L 34.667969 44 Z M 5.332031 44 "/>
<path style=" stroke:none;fill-rule:nonzero;fill:url(#linear1);" d="M 32 17.332031 C 29.054688 17.332031 26.667969 19.71875 26.667969 22.667969 C 26.667969 25.613281 29.054688 28 32 28 C 34.945312 28 37.332031 25.613281 37.332031 22.667969 C 37.332031 19.71875 34.945312 17.332031 32 17.332031 Z M 58.667969 17.332031 C 55.71875 17.332031 53.332031 19.71875 53.332031 22.667969 C 53.332031 25.613281 55.71875 28 58.667969 28 C 61.613281 28 64 25.613281 64 22.667969 C 64 19.71875 61.613281 17.332031 58.667969 17.332031 Z M 5.332031 36 C 2.386719 36 0 38.386719 0 41.332031 C 0 44.28125 2.386719 46.667969 5.332031 46.667969 C 8.28125 46.667969 10.667969 44.28125 10.667969 41.332031 C 10.667969 38.386719 8.28125 36 5.332031 36 Z M 32 36 C 29.054688 36 26.667969 38.386719 26.667969 41.332031 C 26.667969 44.28125 29.054688 46.667969 32 46.667969 C 34.945312 46.667969 37.332031 44.28125 37.332031 41.332031 C 37.332031 38.386719 34.945312 36 32 36 Z M 32 36 "/>
</g>
</svg>
