<svg xmlns="http://www.w3.org/2000/svg" xmlns:xlink="http://www.w3.org/1999/xlink" width="64" height="64" viewBox="0 0 64 64" version="1.1">
<defs>
<linearGradient id="linear0" gradientUnits="userSpaceOnUse" x1="0" y1="0" x2="0" y2="1" gradientTransform="matrix(64,0,0,64,0,0)">
<stop offset="0" style="stop-color:#ff6666;stop-opacity:1;"/>
<stop offset="1" style="stop-color:#d90000;stop-opacity:1;"/>
</linearGradient>
</defs>
<g id="surface1">
<path style=" stroke:none;fill-rule:nonzero;fill:url(#linear0);" d="M 7.984375 0 C 3.628906 0 0 3.636719 0 7.996094 L 0 51.972656 C 0 56.335938 3.628906 59.96875 7.984375 59.96875 L 15.96875 59.96875 L 15.96875 53.722656 L 17.714844 51.972656 L 7.984375 51.972656 L 7.984375 39.980469 L 19.960938 39.980469 L 19.960938 49.726562 L 23.953125 45.726562 L 23.953125 39.980469 L 29.691406 39.980469 L 33.683594 35.980469 L 23.953125 35.980469 L 23.953125 23.988281 L 35.929688 23.988281 L 35.929688 33.734375 L 39.921875 29.859375 L 39.921875 23.988281 L 45.785156 23.988281 L 49.777344 19.988281 L 39.921875 19.988281 L 39.921875 7.996094 L 51.898438 7.996094 L 51.898438 17.867188 L 59.382812 10.371094 L 59.882812 10.871094 L 59.882812 7.996094 C 59.882812 3.636719 56.253906 0 51.898438 0 Z M 7.984375 7.996094 L 19.960938 7.996094 L 19.960938 19.988281 L 7.984375 19.988281 Z M 23.953125 7.996094 L 35.929688 7.996094 L 35.929688 19.988281 L 23.953125 19.988281 Z M 59.382812 15.992188 L 53.019531 22.363281 C 53.019531 22.363281 56.546875 23.1875 58.222656 25.136719 C 59.898438 27.085938 61.503906 30.859375 61.503906 30.859375 L 64 28.359375 L 64 20.613281 Z M 7.984375 23.988281 L 19.960938 23.988281 L 19.960938 35.980469 L 7.984375 35.980469 Z M 50.277344 25.113281 L 19.960938 55.722656 L 19.960938 63.96875 L 28.289062 64 L 58.761719 33.609375 C 58.761719 33.609375 58.074219 30.320312 55.90625 28.019531 C 53.738281 25.714844 50.277344 25.113281 50.277344 25.113281 Z M 59.882812 38.105469 L 51.898438 45.976562 L 51.898438 51.972656 L 45.910156 51.972656 L 37.925781 59.96875 L 51.898438 59.96875 C 56.253906 59.96875 59.882812 56.335938 59.882812 51.972656 Z M 59.882812 38.105469 "/>
</g>
</svg>
