<svg xmlns="http://www.w3.org/2000/svg" xmlns:xlink="http://www.w3.org/1999/xlink" width="64" height="64" viewBox="0 0 64 64" version="1.1">
<defs>
<linearGradient id="linear0" gradientUnits="userSpaceOnUse" x1="0" y1="0" x2="0" y2="1" gradientTransform="matrix(64,0,0,64,0,0)">
<stop offset="0" style="stop-color:#ff6666;stop-opacity:1;"/>
<stop offset="1" style="stop-color:#d90000;stop-opacity:1;"/>
</linearGradient>
</defs>
<g id="surface1">
<path style=" stroke:none;fill-rule:evenodd;fill:url(#linear0);" d="M 54.855469 57.144531 L 54.855469 60.445312 C 54.855469 62.410156 53.394531 64 51.59375 64 L 12.40625 64 C 10.605469 64 9.144531 62.410156 9.144531 60.445312 L 9.144531 36.570312 L 1.714844 36.570312 C 0.765625 36.570312 0 35.890625 0 35.046875 L 0 28.953125 C 0 28.109375 0.765625 27.429688 1.714844 27.429688 L 9.144531 27.429688 L 9.144531 16 L 1.714844 16 C 0.765625 16 0 15.316406 0 14.476562 L 0 8.378906 C 0 7.539062 0.765625 6.855469 1.714844 6.855469 L 9.144531 6.855469 L 9.144531 3.554688 C 9.144531 1.59375 10.605469 0 12.40625 0 L 51.59375 0 C 53.394531 0 54.855469 1.59375 54.855469 3.554688 L 54.855469 6.855469 L 62.285156 6.855469 C 63.234375 6.855469 64 7.539062 64 8.378906 L 64 14.476562 C 64 15.316406 63.234375 16 62.285156 16 L 54.855469 16 L 54.855469 27.429688 L 62.285156 27.429688 C 63.234375 27.429688 64 28.109375 64 28.953125 L 64 35.046875 C 64 35.890625 63.234375 36.570312 62.285156 36.570312 L 54.855469 36.570312 L 54.855469 48 L 62.285156 48 C 63.234375 48 64 48.683594 64 49.523438 L 64 55.621094 C 64 56.460938 63.234375 57.144531 62.285156 57.144531 Z M 18.285156 11.429688 L 45.714844 11.429688 L 45.714844 52.570312 L 32 52.570312 L 32 38.855469 L 18.285156 38.855469 Z M 18.285156 11.429688 "/>
</g>
</svg>
