<svg xmlns="http://www.w3.org/2000/svg" xmlns:xlink="http://www.w3.org/1999/xlink" width="64" height="64" viewBox="0 0 64 64" version="1.1">
<defs> <linearGradient id="linear0" gradientUnits="userSpaceOnUse" x1="0" y1="0" x2="0" y2="1" gradientTransform="matrix(55.992188,0,0,56,4.003906,4)"> <stop offset="0" style="stop-color:#ff6666;stop-opacity:1;"/> <stop offset="1" style="stop-color:#d90000;stop-opacity:1;"/> </linearGradient> </defs>
<g id="surface1">
<path style=" stroke:none;fill-rule:nonzero;fill:url(#linear0);fill-opacity:1;" d="M 20.585938 39.617188 L 20.585938 41.035156 L 12.59375 41.035156 L 12.59375 39.617188 L 14.554688 39.085938 L 23.894531 14.675781 L 29.570312 14.675781 L 38.871094 39.085938 L 40.871094 39.617188 L 40.871094 41.035156 L 29.175781 41.035156 L 29.175781 39.617188 L 32.214844 39.085938 L 29.710938 32.320312 L 19.625 32.320312 L 17.21875 39.085938 Z M 24.753906 18.613281 L 20.425781 30.175781 L 28.964844 30.175781 Z M 51.851562 22.300781 C 52.859375 22.300781 53.785156 22.382812 54.636719 22.554688 C 55.480469 22.722656 56.214844 23.007812 56.828125 23.402344 C 57.441406 23.796875 57.914062 24.316406 58.253906 24.96875 C 58.59375 25.617188 58.765625 26.417969 58.765625 27.367188 L 58.765625 39.28125 L 60.605469 39.75 L 60.605469 41.035156 L 53.828125 41.035156 L 53.398438 39.632812 C 53.152344 39.800781 52.863281 39.988281 52.527344 40.199219 C 52.195312 40.40625 51.8125 40.601562 51.382812 40.785156 C 50.949219 40.96875 50.46875 41.113281 49.933594 41.238281 C 49.398438 41.363281 48.804688 41.425781 48.148438 41.425781 C 47.082031 41.425781 46.183594 41.289062 45.457031 41.019531 C 44.738281 40.742188 44.152344 40.363281 43.710938 39.875 C 43.265625 39.390625 42.941406 38.8125 42.742188 38.140625 C 42.550781 37.472656 42.453125 36.75 42.453125 35.96875 C 42.453125 34.707031 42.675781 33.699219 43.117188 32.941406 C 43.5625 32.191406 44.164062 31.609375 44.914062 31.199219 C 45.664062 30.789062 46.539062 30.523438 47.535156 30.390625 C 48.535156 30.261719 49.59375 30.183594 50.71875 30.15625 L 53.101562 30.097656 L 53.101562 27.429688 C 53.101562 26.347656 52.882812 25.527344 52.4375 24.960938 C 51.996094 24.398438 51.308594 24.113281 50.386719 24.113281 C 49.667969 24.113281 49.011719 24.210938 48.417969 24.414062 C 47.820312 24.617188 47.253906 24.847656 46.703125 25.125 L 45.957031 27.40625 L 44.664062 27.40625 L 44.664062 22.984375 C 45.265625 22.886719 45.839844 22.800781 46.378906 22.730469 C 46.921875 22.648438 47.472656 22.582031 48.035156 22.515625 C 48.59375 22.445312 49.183594 22.394531 49.808594 22.355469 C 50.425781 22.316406 51.109375 22.300781 51.851562 22.300781 Z M 53.101562 31.832031 L 51.460938 31.890625 C 50.886719 31.917969 50.394531 31.996094 49.972656 32.128906 C 49.554688 32.257812 49.207031 32.472656 48.921875 32.777344 C 48.644531 33.082031 48.433594 33.484375 48.296875 33.976562 C 48.160156 34.46875 48.09375 35.097656 48.09375 35.847656 C 48.09375 36.957031 48.285156 37.765625 48.683594 38.285156 C 49.070312 38.808594 49.582031 39.066406 50.207031 39.066406 C 50.835938 39.066406 51.371094 39 51.8125 38.863281 C 52.257812 38.726562 52.6875 38.5625 53.101562 38.382812 Z M 12.203125 5.453125 "/>
</g>
</svg>
