<svg xmlns="http://www.w3.org/2000/svg" xmlns:xlink="http://www.w3.org/1999/xlink" width="64" height="64" viewBox="0 0 64 64" version="1.1">
<defs> <linearGradient id="linear0" gradientUnits="userSpaceOnUse" x1="0" y1="0" x2="0" y2="1" gradientTransform="matrix(55.992188,0,0,56,4.003906,4)"> <stop offset="0" style="stop-color:#ff6666;stop-opacity:1;"/> <stop offset="1" style="stop-color:#d90000;stop-opacity:1;"/> </linearGradient> </defs>
<g id="surface1">
<path style=" stroke:none;fill-rule:nonzero;fill:url(#linear0);fill-opacity:1;" d="M 32.050781 1.878906 C 21.027344 1.878906 12.101562 10.398438 12.101562 20.929688 C 12.101562 26.355469 14.46875 31.246094 18.273438 34.71875 L 18.277344 34.730469 C 19.109375 35.449219 19.964844 36.664062 20.648438 38.203125 C 21.363281 39.796875 21.742188 41.417969 21.78125 42.730469 L 21.78125 42.738281 C 21.964844 45.59375 24.332031 47.839844 27.246094 47.839844 L 36.90625 47.839844 C 39.9375 47.839844 42.378906 45.40625 42.378906 42.386719 L 42.378906 41.957031 C 42.515625 40.808594 42.875 39.496094 43.453125 38.195312 C 44.140625 36.664062 44.988281 35.449219 45.820312 34.730469 C 49.632812 31.257812 52.011719 26.359375 52.011719 20.929688 C 52.011719 10.398438 43.066406 1.878906 32.050781 1.878906 M 31.335938 6.917969 C 32.140625 6.886719 32.835938 7.5 32.902344 8.300781 C 32.976562 9.105469 32.402344 9.824219 31.597656 9.929688 C 28.808594 10.28125 26.371094 11.128906 24.546875 12.722656 C 22.71875 14.3125 21.390625 16.6875 20.941406 20.507812 C 20.898438 21.058594 20.554688 21.546875 20.046875 21.777344 C 19.535156 22.003906 18.9375 21.9375 18.488281 21.59375 C 18.046875 21.253906 17.824219 20.699219 17.914062 20.148438 C 18.433594 15.765625 20.113281 12.558594 22.542969 10.441406 C 24.972656 8.320312 28.039062 7.324219 31.222656 6.925781 C 31.253906 6.921875 31.296875 6.921875 31.335938 6.917969 M 41.246094 48.246094 C 41.210938 48.25 41.175781 48.25 41.148438 48.257812 L 23.230469 50.359375 C 22.738281 50.40625 22.300781 50.710938 22.101562 51.164062 C 21.902344 51.617188 21.964844 52.140625 22.265625 52.539062 C 22.566406 52.933594 23.054688 53.132812 23.550781 53.058594 L 41.464844 50.953125 C 42.210938 50.886719 42.761719 50.238281 42.703125 49.488281 C 42.640625 48.75 41.988281 48.195312 41.246094 48.246094 M 41.246094 53.296875 C 41.210938 53.296875 41.175781 53.300781 41.148438 53.308594 L 23.226562 55.410156 C 22.71875 55.449219 22.28125 55.765625 22.078125 56.226562 C 21.875 56.683594 21.9375 57.222656 22.242188 57.617188 C 22.550781 58.019531 23.050781 58.222656 23.550781 58.144531 L 41.472656 56.039062 C 42.222656 55.964844 42.773438 55.304688 42.710938 54.558594 C 42.648438 53.8125 41.996094 53.25 41.246094 53.296875 M 37.859375 58.523438 C 37.835938 58.523438 37.820312 58.527344 37.796875 58.527344 C 37.769531 58.53125 37.734375 58.53125 37.699219 58.539062 L 26.695312 59.71875 C 25.933594 59.800781 25.390625 60.484375 25.46875 61.234375 C 25.554688 61.992188 26.234375 62.542969 26.996094 62.457031 L 38 61.277344 C 38.761719 61.234375 39.347656 60.589844 39.308594 59.828125 C 39.269531 59.070312 38.621094 58.488281 37.859375 58.523438 "/>
</g>
</svg>
