<svg xmlns="http://www.w3.org/2000/svg" xmlns:xlink="http://www.w3.org/1999/xlink" width="64" height="64" viewBox="0 0 64 64" version="1.1">
<defs> <linearGradient id="linear0" gradientUnits="userSpaceOnUse" x1="0" y1="0" x2="0" y2="1" gradientTransform="matrix(55.992188,0,0,56,4.003906,4)"> <stop offset="0" style="stop-color:#ff6666;stop-opacity:1;"/> <stop offset="1" style="stop-color:#d90000;stop-opacity:1;"/> </linearGradient> </defs>
<g id="surface1">
<path style=" stroke:none;fill-rule:nonzero;fill:url(#linear0);fill-opacity:1;" d="M 9.554688 38.027344 C 6.945312 40.609375 5.671875 44.039062 5.847656 47.515625 C 6.023438 51 7.515625 54.019531 10.375 56.339844 C 13.222656 58.667969 16.925781 59.839844 20.804688 59.648438 L 20.8125 59.660156 C 24.679688 59.460938 28.257812 57.488281 30.867188 54.898438 L 57.695312 28.203125 L 54.722656 25.226562 L 27.605469 52.199219 C 25.746094 54.046875 23.371094 55.765625 20.617188 55.902344 C 17.863281 56.035156 15.070312 55.378906 13.195312 53.546875 C 11.265625 51.667969 10.140625 49.789062 10.015625 47.3125 C 9.890625 44.835938 10.890625 42.488281 12.753906 40.640625 L 43.515625 10.03125 C 44.578125 8.976562 45.902344 8.386719 47.382812 8.433594 C 48.898438 8.464844 50.296875 8.914062 51.648438 10.011719 C 54.242188 12.121094 54.824219 15.574219 52.820312 17.578125 L 27.292969 42.957031 C 26.40625 43.847656 24.941406 43.445312 24.328125 42.792969 C 23.289062 41.691406 23.65625 40.570312 24.101562 40.125 L 44.539062 19.800781 L 41.566406 16.882812 L 20.453125 37.898438 C 18.390625 39.957031 19.152344 43.253906 21.53125 45.578125 C 24.042969 48.003906 28.097656 48.117188 30.265625 45.957031 L 56.0625 20.257812 C 59.628906 16.710938 58.753906 10.707031 54.464844 7.214844 C 52.375 5.523438 50.03125 4.738281 47.527344 4.675781 C 44.8125 4.609375 42.203125 5.542969 40.324219 7.425781 L 9.554688 38.027344 "/>
</g>
</svg>
