<svg xmlns="http://www.w3.org/2000/svg" xmlns:xlink="http://www.w3.org/1999/xlink" width="64" height="64" viewBox="0 0 64 64" version="1.1">
<defs>
<linearGradient id="linear0" gradientUnits="userSpaceOnUse" x1="0" y1="0" x2="0" y2="1" gradientTransform="matrix(64,0,0,64,0,0)">
<stop offset="0" style="stop-color:#ff6666;stop-opacity:1;"/>
<stop offset="1" style="stop-color:#d90000;stop-opacity:1;"/>
</linearGradient>
</defs>
<g id="surface1">
<path style=" stroke:none;fill-rule:evenodd;fill:url(#linear0);" d="M 0 9.144531 C 0 4.097656 4.097656 0 9.144531 0 C 14.1875 0 18.285156 4.097656 18.285156 9.144531 C 18.285156 14.1875 14.1875 18.285156 9.144531 18.285156 C 4.097656 18.285156 0 14.1875 0 9.144531 Z M 45.714844 9.144531 C 45.714844 4.097656 49.8125 0 54.855469 0 C 59.902344 0 64 4.097656 64 9.144531 C 64 14.1875 59.902344 18.285156 54.855469 18.285156 C 49.8125 18.285156 45.714844 14.1875 45.714844 9.144531 Z M 7.652344 47.113281 C 12.675781 57.554688 21.957031 63.992188 32 64 C 42.039062 63.980469 51.3125 57.546875 56.328125 47.113281 L 52.910156 47.113281 C 47.589844 54.257812 39.988281 58.347656 32 58.371094 C 24.011719 58.351562 16.40625 54.261719 11.078125 47.113281 Z M 22.855469 32 C 24.066406 32 25.230469 32.480469 26.089844 33.339844 C 26.949219 34.195312 27.429688 35.359375 27.429688 36.570312 C 27.429688 37.785156 26.949219 38.949219 26.089844 39.804688 C 25.230469 40.660156 24.066406 41.144531 22.855469 41.144531 C 21.644531 41.144531 20.480469 40.660156 19.625 39.804688 C 18.769531 38.949219 18.285156 37.785156 18.285156 36.570312 C 18.285156 35.359375 18.769531 34.195312 19.625 33.339844 C 20.480469 32.480469 21.644531 32 22.855469 32 Z M 41.144531 32 C 42.355469 32 43.515625 32.480469 44.375 33.339844 C 45.230469 34.195312 45.710938 35.359375 45.710938 36.570312 C 45.710938 37.785156 45.230469 38.949219 44.375 39.804688 C 43.515625 40.660156 42.355469 41.144531 41.144531 41.144531 C 39.929688 41.144531 38.769531 40.660156 37.90625 39.804688 C 37.050781 38.949219 36.570312 37.785156 36.570312 36.570312 C 36.570312 35.359375 37.050781 34.195312 37.90625 33.339844 C 38.769531 32.480469 39.929688 32 41.144531 32 Z M 32 22.855469 C 21.898438 22.855469 13.710938 28.996094 13.710938 36.570312 C 13.710938 40.207031 15.640625 43.695312 19.066406 46.269531 C 22.5 48.839844 27.148438 50.285156 32 50.285156 C 36.847656 50.285156 41.5 48.839844 44.929688 46.269531 C 48.359375 43.695312 50.285156 40.207031 50.285156 36.570312 C 50.285156 28.996094 42.101562 22.855469 32 22.855469 Z M 32 22.855469 "/>
</g>
</svg>
