<svg xmlns="http://www.w3.org/2000/svg" xmlns:xlink="http://www.w3.org/1999/xlink" width="64" height="64" viewBox="0 0 64 64" version="1.1">
<defs>
<linearGradient id="linear0" gradientUnits="userSpaceOnUse" x1="0" y1="0" x2="0" y2="1" gradientTransform="matrix(60,0,0,38.597656,2,12.601562)">
<stop offset="0" style="stop-color:#ff6666;stop-opacity:1;"/>
<stop offset="1" style="stop-color:#d90000;stop-opacity:1;"/>
</linearGradient>
</defs>
<g id="surface1">
<path style=" stroke:none;fill-rule:nonzero;fill:url(#linear0);" d="M 8 51.054688 C 7.703125 50.960938 7.1875 50.570312 6.582031 49.953125 C 5.816406 49.175781 5.496094 48.707031 4.949219 47.585938 C 0.976562 39.421875 1.023438 24.5625 5.046875 16.421875 C 6.191406 14.101562 7.507812 12.789062 8.839844 12.636719 C 10.25 12.480469 13.292969 13.695312 15.972656 15.492188 C 19.671875 17.964844 23.621094 21.773438 25.496094 24.667969 C 25.980469 25.410156 26.085938 25.703125 26.210938 26.664062 C 26.296875 27.285156 26.363281 28.265625 26.363281 28.839844 L 26.363281 29.882812 L 25.457031 29.5 C 24.199219 28.964844 22.125 28.34375 20.519531 28.023438 C 18.863281 27.691406 16.023438 27.433594 15.453125 27.5625 C 15.046875 27.65625 15.054688 27.667969 15.773438 27.84375 C 18.085938 28.425781 26.070312 31.035156 26.328125 31.289062 C 26.449219 31.410156 26.0625 34.523438 25.914062 34.617188 C 25.582031 34.832031 23.214844 35.554688 20.539062 36.265625 C 18.992188 36.675781 17.695312 37.042969 17.65625 37.085938 C 17.617188 37.128906 17.855469 37.128906 18.1875 37.082031 C 18.519531 37.035156 19.664062 36.910156 20.734375 36.796875 C 21.800781 36.675781 23.351562 36.472656 24.179688 36.328125 C 25.003906 36.175781 25.707031 36.0625 25.734375 36.0625 C 25.835938 36.0625 25.425781 37.703125 25 39.011719 C 24.519531 40.5 24.398438 40.644531 21.65625 43.046875 C 16.695312 47.394531 12.886719 50.035156 10.386719 50.867188 C 9.300781 51.230469 8.761719 51.273438 8 51.054688 Z M 53.710938 50.992188 C 51.90625 50.515625 48.847656 48.679688 46.148438 46.453125 C 44.414062 45.019531 42.027344 42.808594 40.96875 41.648438 L 40.140625 40.742188 L 40.367188 39.839844 C 40.492188 39.34375 40.628906 38.40625 40.671875 37.753906 C 40.746094 36.632812 40.765625 36.574219 41.03125 36.652344 C 42.816406 37.175781 45.152344 37.617188 47.8125 37.929688 C 48.515625 38.003906 49.269531 38.105469 49.488281 38.140625 C 49.882812 38.203125 49.882812 38.203125 49.554688 38.050781 C 49.371094 37.976562 48.042969 37.578125 46.605469 37.179688 C 45.167969 36.777344 43.265625 36.207031 42.375 35.90625 L 40.761719 35.359375 L 40.519531 33.460938 C 40.382812 32.414062 40.265625 31.410156 40.257812 31.226562 C 40.238281 30.925781 40.441406 30.789062 42.25 29.855469 C 43.355469 29.289062 45.390625 28.296875 46.769531 27.652344 C 48.152344 27.007812 49.265625 26.464844 49.242188 26.445312 C 49.136719 26.339844 45.769531 27.332031 43.003906 28.289062 C 41.28125 28.882812 39.828125 29.320312 39.769531 29.261719 C 39.714844 29.199219 39.5625 28.816406 39.433594 28.410156 C 39.304688 28.003906 38.996094 27.253906 38.746094 26.742188 C 38.496094 26.230469 38.292969 25.757812 38.292969 25.691406 C 38.292969 25.632812 38.574219 25.140625 38.914062 24.613281 C 41.109375 21.191406 45.789062 16.765625 49.5625 14.539062 C 51.785156 13.222656 54.210938 12.425781 55.328125 12.636719 C 56.589844 12.875 57.832031 14.175781 58.941406 16.410156 C 61.019531 20.609375 62.175781 27.023438 61.976562 33.304688 C 61.800781 38.976562 60.757812 44.039062 59.039062 47.574219 C 58.492188 48.695312 58.167969 49.164062 57.410156 49.9375 C 56.144531 51.222656 55.398438 51.433594 53.710938 50.988281 Z M 30.726562 41.402344 C 29.09375 41.164062 27.527344 40.542969 26.910156 39.890625 C 26.644531 39.605469 26.644531 39.597656 26.902344 38.601562 C 27.617188 35.839844 28.027344 31.214844 27.839844 28.011719 C 27.738281 26.277344 27.746094 26.050781 27.945312 25.898438 C 28.679688 25.328125 32.625 24.5625 34.050781 24.710938 C 35 24.816406 35.824219 25.164062 36.308594 25.683594 C 37.140625 26.570312 38.167969 29.507812 38.652344 32.390625 C 39 34.449219 38.996094 38.589844 38.644531 39.765625 C 38.410156 40.558594 38.371094 40.605469 37.730469 40.878906 C 37.363281 41.039062 36.613281 41.253906 36.058594 41.359375 C 34.957031 41.570312 32.035156 41.59375 30.726562 41.40625 Z M 30.726562 41.402344 "/>
</g>
</svg>
