<svg xmlns="http://www.w3.org/2000/svg" xmlns:xlink="http://www.w3.org/1999/xlink" width="64" height="64" viewBox="0 0 64 64" version="1.1">
<defs>
<linearGradient id="linear0" gradientUnits="userSpaceOnUse" x1="0" y1="0" x2="0" y2="1" gradientTransform="matrix(60,0,0,38.597656,2,12.601562)">
<stop offset="0" style="stop-color:#ff6666;stop-opacity:1;"/>
<stop offset="1" style="stop-color:#d90000;stop-opacity:1;"/>
</linearGradient>
<linearGradient id="linear1" gradientUnits="userSpaceOnUse" x1="0" y1="0" x2="0" y2="1" gradientTransform="matrix(60,0,0,38.597656,2,12.601562)">
<stop offset="0" style="stop-color:#ff6666;stop-opacity:1;"/>
<stop offset="1" style="stop-color:#d90000;stop-opacity:1;"/>
</linearGradient>
</defs>
<g id="surface1">
<path style=" stroke:none;fill-rule:nonzero;fill:url(#linear0);" d="M 28.535156 7.042969 L 26.882812 12.171875 C 25.210938 12.640625 23.605469 13.328125 22.109375 14.226562 L 17.414062 11.800781 L 12.566406 16.816406 L 14.910156 21.664062 C 14.046875 23.207031 13.386719 24.867188 12.941406 26.59375 L 7.960938 28.308594 L 7.960938 35.398438 L 12.925781 37.109375 C 13.375 38.835938 14.042969 40.496094 14.910156 42.039062 L 12.566406 46.894531 L 17.421875 51.90625 L 22.109375 49.488281 C 23.605469 50.378906 25.210938 51.0625 26.875 51.523438 L 28.535156 56.667969 L 35.398438 56.667969 L 37.054688 51.535156 C 38.71875 51.070312 40.324219 50.378906 41.820312 49.484375 L 46.515625 51.90625 L 51.371094 46.894531 L 49.027344 42.046875 C 49.886719 40.5 50.550781 38.84375 50.992188 37.117188 L 55.976562 35.398438 L 55.976562 28.304688 L 51.003906 26.59375 C 50.554688 24.871094 49.886719 23.214844 49.019531 21.667969 L 51.363281 16.816406 L 46.515625 11.796875 L 41.824219 14.21875 C 40.328125 13.328125 38.726562 12.644531 37.054688 12.183594 L 35.394531 7.035156 Z M 31.964844 17.675781 C 39.542969 17.675781 45.683594 24.023438 45.683594 31.855469 C 45.683594 39.6875 39.542969 46.03125 31.964844 46.03125 C 24.386719 46.03125 18.25 39.6875 18.25 31.855469 C 18.25 24.023438 24.386719 17.675781 31.964844 17.675781 Z M 31.964844 17.675781 "/>
<path style=" stroke:none;fill-rule:nonzero;fill:url(#linear1);" d="M 14.820312 15.902344 L 23.394531 15.902344 L 31.964844 37.175781 L 40.535156 15.902344 L 49.109375 15.902344 L 37.105469 44.261719 L 26.816406 44.261719 Z M 14.820312 15.902344 "/>
</g>
</svg>
