<svg xmlns="http://www.w3.org/2000/svg" xmlns:xlink="http://www.w3.org/1999/xlink" width="64" height="64" viewBox="0 0 64 64" version="1.1">
<defs>
<linearGradient id="linear0" gradientUnits="userSpaceOnUse" x1="0" y1="0" x2="0" y2="1" gradientTransform="matrix(64,0,0,64,0,0)">
<stop offset="0" style="stop-color:#ff6666;stop-opacity:1;"/>
<stop offset="1" style="stop-color:#d90000;stop-opacity:1;"/>
</linearGradient>
</defs>
<g id="surface1">
<path style=" stroke:none;fill-rule:nonzero;fill:url(#linear0);" d="M 56.617188 14.769531 L 6.519531 14.769531 C 4.355469 14.769531 2.433594 14.335938 2.433594 12.308594 L 56.617188 9.847656 L 56.617188 4.925781 C 56.617188 0.847656 53.308594 0 49.230469 0 L 4.972656 7.382812 C 1.027344 8.261719 0 9.933594 0 12.308594 L 0 56.617188 C 0 60.691406 3.308594 64 7.382812 64 L 56.617188 64 C 60.691406 64 64 60.691406 64 56.617188 L 64 22.152344 C 64 18.074219 60.691406 14.769531 56.617188 14.769531 Z M 54.152344 44.308594 C 51.4375 44.308594 49.230469 42.105469 49.230469 39.382812 C 49.230469 36.664062 51.4375 34.460938 54.152344 34.460938 C 56.871094 34.460938 59.074219 36.664062 59.074219 39.382812 C 59.074219 42.105469 56.871094 44.308594 54.152344 44.308594 Z M 54.152344 44.308594 "/>
</g>
</svg>
