<svg xmlns="http://www.w3.org/2000/svg" xmlns:xlink="http://www.w3.org/1999/xlink" width="64" height="64" viewBox="0 0 64 64" version="1.1">
<defs>
<linearGradient id="linear0" gradientUnits="userSpaceOnUse" x1="0" y1="0" x2="0" y2="1" gradientTransform="matrix(38.835938,0,0,64,12.582031,0)">
<stop offset="0" style="stop-color:#ff6666;stop-opacity:1;"/>
<stop offset="1" style="stop-color:#d90000;stop-opacity:1;"/>
</linearGradient>
</defs>
<g id="surface1">
<path style=" stroke:none;fill-rule:nonzero;fill:url(#linear0);" d="M 14.84375 36.222656 C 14.789062 36.523438 14.617188 36.785156 14.363281 36.945312 C 14.113281 37.117188 13.804688 37.171875 13.507812 37.117188 C 13.210938 37.058594 12.949219 36.886719 12.777344 36.625 C 12.605469 36.375 12.546875 36.0625 12.605469 35.769531 L 18.863281 4.5 L 20.625 30.835938 L 22.828125 0 L 25.246094 31.476562 L 27.175781 10.164062 L 29.964844 29.636719 L 35.425781 5.035156 L 35.425781 27.910156 L 38.929688 5.117188 L 43.199219 37.164062 L 44.992188 17.453125 L 51.332031 33.292969 C 51.449219 33.574219 51.449219 33.882812 51.320312 34.160156 C 51.207031 34.445312 50.976562 34.660156 50.691406 34.777344 C 50.421875 34.886719 50.101562 34.875 49.824219 34.765625 C 49.539062 34.640625 49.320312 34.421875 49.207031 34.136719 L 46.40625 27.136719 L 43.636719 57.671875 L 38.769531 21.195312 L 33.140625 57.789062 L 33.140625 25.84375 L 29.472656 42.359375 L 27.679688 29.851562 L 25.050781 58.792969 L 22.90625 30.878906 L 20.542969 64 L 17.730469 21.8125 Z M 14.84375 36.222656 "/>
</g>
</svg>
