<svg xmlns="http://www.w3.org/2000/svg" xmlns:xlink="http://www.w3.org/1999/xlink" width="64" height="64" viewBox="0 0 64 64" version="1.1">
<defs>
<linearGradient id="linear0" gradientUnits="userSpaceOnUse" x1="0" y1="0" x2="0" y2="1" gradientTransform="matrix(64,0,0,53.34375,0,5.328125)">
<stop offset="0" style="stop-color:#ff6666;stop-opacity:1;"/>
<stop offset="1" style="stop-color:#d90000;stop-opacity:1;"/>
</linearGradient>
</defs>
<g id="surface1">
<path style=" stroke:none;fill-rule:nonzero;fill:url(#linear0);" d="M 32.101562 5.332031 C 31.808594 5.359375 31.578125 5.554688 31.507812 5.902344 C 31.464844 6.125 31.484375 6.488281 31.554688 6.738281 C 31.628906 6.988281 31.683594 7.285156 31.683594 7.40625 C 31.683594 7.527344 31.796875 7.785156 31.925781 7.980469 C 32.148438 8.3125 32.148438 8.347656 31.976562 8.589844 C 31.730469 8.9375 31.300781 9.179688 30.804688 9.257812 C 30.398438 9.316406 30.390625 9.328125 30.390625 9.777344 C 30.390625 10.191406 30.34375 10.265625 29.914062 10.566406 C 29.65625 10.753906 29.238281 10.933594 28.988281 10.972656 C 28.636719 11.027344 28.449219 11.140625 28.167969 11.464844 C 27.738281 11.960938 26.816406 12.398438 26.386719 12.308594 C 26.226562 12.273438 25.964844 12.113281 25.796875 11.949219 C 25.433594 11.59375 24.980469 11.550781 24.800781 11.859375 C 24.605469 12.199219 24.777344 12.617188 25.316406 13.105469 C 25.597656 13.355469 25.816406 13.636719 25.816406 13.730469 C 25.816406 14.007812 25.382812 14.445312 24.941406 14.617188 C 24.09375 14.941406 23.929688 15.34375 24.339844 16.09375 C 24.460938 16.304688 24.613281 16.679688 24.683594 16.925781 C 24.863281 17.539062 24.601562 18.292969 24.058594 18.683594 C 23.613281 19.011719 23.550781 19.402344 23.898438 19.695312 C 24.34375 20.0625 24.199219 20.332031 23.359375 20.6875 C 22.144531 21.207031 21.824219 21.863281 22.257812 22.957031 C 22.507812 23.601562 22.484375 23.734375 22.0625 24.03125 C 21.660156 24.316406 21.441406 24.683594 21.140625 25.5625 C 20.882812 26.320312 20.707031 26.546875 20.167969 26.863281 C 19.605469 27.195312 18.820312 28.273438 18.820312 28.722656 C 18.820312 29.042969 19.710938 30.394531 20.40625 31.136719 C 20.792969 31.542969 20.933594 32.203125 20.730469 32.65625 C 20.492188 33.203125 19.925781 33.785156 19.445312 33.976562 C 18.996094 34.15625 18.984375 34.15625 18.472656 33.902344 C 18.1875 33.765625 17.6875 33.371094 17.363281 33.03125 C 16.625 32.261719 16.355469 32.226562 15.949219 32.867188 C 15.730469 33.207031 15.660156 33.464844 15.660156 33.910156 C 15.660156 34.601562 15.617188 34.628906 14.421875 34.753906 C 13.671875 34.828125 13.316406 34.980469 12.558594 35.53125 C 12.039062 35.910156 11.9375 35.914062 11.503906 35.578125 C 11.316406 35.4375 10.664062 35.164062 10.054688 34.976562 C 9.066406 34.671875 8.914062 34.59375 8.644531 34.226562 C 8.476562 34 8.308594 33.703125 8.273438 33.558594 C 8.148438 33.078125 6.476562 30.828125 6.074219 30.605469 C 5.980469 30.546875 5.519531 30.347656 5.050781 30.15625 C 4.261719 29.828125 4.152344 29.808594 3.320312 29.863281 C 2.253906 29.933594 1.695312 30.191406 1.039062 30.929688 C 0.519531 31.511719 0.351562 31.894531 0.195312 32.882812 C -0.167969 35.167969 -0.078125 35.476562 0.9375 35.550781 C 1.65625 35.609375 1.875 35.765625 2.332031 36.527344 C 2.496094 36.800781 2.703125 37.054688 2.796875 37.105469 C 2.972656 37.1875 4.050781 37.597656 4.988281 37.925781 C 5.628906 38.152344 5.933594 38.394531 6.496094 39.117188 C 6.71875 39.402344 7.097656 39.832031 7.335938 40.074219 C 7.570312 40.316406 7.761719 40.597656 7.761719 40.699219 C 7.761719 40.804688 7.507812 41.128906 7.199219 41.425781 C 6.5625 42.023438 6.507812 42.273438 6.800781 43.171875 C 6.933594 43.585938 7.058594 43.738281 7.449219 43.972656 C 7.714844 44.128906 8.152344 44.441406 8.414062 44.664062 C 8.898438 45.070312 8.902344 45.074219 8.726562 45.382812 C 8.632812 45.554688 8.496094 45.726562 8.429688 45.769531 C 8.359375 45.804688 8.230469 45.996094 8.144531 46.1875 C 8 46.507812 8.003906 46.578125 8.214844 46.960938 C 8.398438 47.289062 8.433594 47.480469 8.371094 47.882812 C 8.3125 48.296875 8.34375 48.453125 8.519531 48.6875 C 8.644531 48.847656 8.828125 49.195312 8.941406 49.453125 C 9.242188 50.171875 9.292969 50.199219 11.15625 50.933594 C 11.496094 51.066406 11.597656 51.183594 11.796875 51.695312 C 11.929688 52.03125 12.089844 52.496094 12.152344 52.726562 C 12.34375 53.398438 12.96875 53.8125 13.800781 53.8125 C 14.273438 53.8125 14.757812 53.976562 14.757812 54.132812 C 14.757812 54.328125 15.523438 55.21875 15.949219 55.519531 C 16.175781 55.679688 16.527344 55.832031 16.761719 55.832031 C 17.101562 55.855469 17.296875 55.988281 17.96875 56.640625 C 18.40625 57.0625 18.933594 57.625 19.136719 57.882812 C 19.339844 58.144531 19.667969 58.4375 19.867188 58.53125 L 19.867188 58.546875 C 20.246094 58.722656 20.457031 58.71875 22.945312 58.511719 C 24.199219 58.40625 24.421875 58.304688 24.585938 57.746094 C 24.785156 57.070312 24.625 56.722656 23.980469 56.433594 C 23.453125 56.191406 23.433594 56.1875 22.9375 56.363281 C 22.46875 56.511719 22.382812 56.511719 21.890625 56.363281 C 21.601562 56.277344 21.171875 56.179688 20.941406 56.144531 C 20.386719 56.066406 20.402344 55.921875 20.996094 55.675781 C 21.605469 55.425781 21.773438 55.425781 22.128906 55.679688 C 22.722656 56.113281 23.0625 55.84375 22.929688 55.054688 C 22.867188 54.714844 22.914062 54.644531 23.550781 54.066406 C 23.929688 53.726562 24.453125 53.335938 24.714844 53.203125 C 25.136719 52.992188 25.296875 52.972656 25.988281 53.027344 C 26.660156 53.078125 26.832031 53.058594 27.144531 52.878906 C 27.546875 52.648438 27.578125 52.496094 27.371094 51.785156 C 27.253906 51.363281 27.265625 51.269531 27.460938 50.933594 C 27.753906 50.433594 28.269531 49.96875 28.527344 49.96875 C 28.8125 49.96875 29.539062 50.367188 29.839844 50.691406 C 30.058594 50.925781 30.183594 50.945312 30.972656 50.980469 C 31.457031 51.011719 31.90625 51.011719 31.972656 51.011719 C 32.03125 51.011719 32.472656 50.984375 32.945312 50.953125 C 33.703125 50.886719 33.882812 50.910156 34.535156 51.152344 C 34.941406 51.300781 35.589844 51.492188 35.976562 51.574219 C 36.785156 51.746094 37.03125 51.921875 37.386719 52.566406 C 37.691406 53.125 37.828125 53.242188 38.84375 53.855469 C 39.988281 54.550781 40.820312 54.609375 41.976562 54.066406 C 42.273438 53.929688 42.613281 53.816406 42.734375 53.816406 C 43.09375 53.816406 43.527344 53.386719 43.6875 52.878906 C 43.824219 52.449219 43.851562 52.410156 44.234375 52.410156 C 44.464844 52.410156 44.734375 52.335938 44.859375 52.230469 C 44.980469 52.132812 45.226562 52.050781 45.410156 52.050781 C 45.855469 52.050781 46.019531 51.878906 46.019531 51.414062 C 46.019531 51.109375 46.097656 50.972656 46.421875 50.710938 C 47.230469 50.050781 47.292969 50.035156 47.886719 50.277344 C 48.707031 50.609375 49.070312 50.554688 50.546875 49.859375 C 51.019531 49.636719 51.535156 49.453125 51.695312 49.453125 C 51.871094 49.453125 52.289062 49.664062 52.734375 49.976562 C 53.808594 50.71875 54.210938 50.652344 54.558594 49.667969 C 54.785156 49.023438 54.746094 48.941406 53.976562 48.398438 C 53.242188 47.882812 53.183594 47.769531 53.433594 47.300781 C 53.6875 46.824219 54.136719 46.578125 55.246094 46.320312 C 56.175781 46.105469 56.449219 45.980469 58.027344 45.054688 C 58.804688 44.605469 59.132812 44.472656 59.472656 44.472656 C 61.113281 44.472656 61.921875 42.902344 62.101562 39.363281 C 62.128906 38.835938 62.234375 38.460938 62.550781 37.804688 C 63.347656 36.15625 63.511719 35.617188 63.679688 34.058594 C 63.789062 33.09375 63.804688 32.4375 63.738281 32.167969 C 63.671875 31.898438 63.699219 31.085938 63.824219 29.78125 C 64.140625 26.398438 64.070312 25.742188 63.300781 24.699219 C 63.074219 24.402344 62.957031 24.078125 62.902344 23.640625 C 62.8125 22.890625 62.550781 22.226562 61.921875 21.136719 C 61.398438 20.242188 61.136719 19.886719 60.285156 18.972656 C 59.46875 18.101562 59.441406 18.015625 59.460938 16.925781 C 59.476562 16.230469 59.429688 15.847656 59.296875 15.558594 C 59.191406 15.339844 59.113281 15 59.113281 14.808594 C 59.113281 14.566406 59.042969 14.429688 58.878906 14.351562 C 58.558594 14.191406 57.125 14.164062 56.960938 14.3125 C 56.886719 14.378906 56.804688 14.65625 56.773438 14.921875 C 56.722656 15.300781 56.652344 15.429688 56.453125 15.515625 C 56.070312 15.671875 55.234375 15.199219 54.9375 14.660156 C 54.8125 14.4375 54.523438 14.128906 54.296875 13.96875 C 53.597656 13.472656 53.492188 13.347656 53.410156 12.910156 C 53.347656 12.550781 53.386719 12.398438 53.667969 11.941406 C 54.066406 11.289062 54.21875 10.234375 53.96875 9.90625 C 53.714844 9.574219 53.128906 9.371094 52.621094 9.453125 C 52.207031 9.515625 52.148438 9.566406 51.867188 10.109375 C 51.679688 10.472656 51.394531 10.804688 51.132812 10.988281 C 50.894531 11.148438 50.535156 11.40625 50.332031 11.566406 C 49.914062 11.890625 49.453125 11.941406 48.960938 11.703125 C 48.675781 11.570312 48.632812 11.484375 48.5625 10.890625 C 48.503906 10.371094 48.40625 10.125 48.101562 9.726562 C 47.882812 9.449219 47.675781 9.039062 47.636719 8.820312 C 47.589844 8.527344 47.464844 8.347656 47.183594 8.148438 C 46.972656 8 46.71875 7.742188 46.628906 7.578125 C 46.40625 7.1875 45.835938 6.875 45.34375 6.875 C 45 6.875 44.847656 6.96875 44.214844 7.585938 C 43.8125 7.976562 43.386719 8.328125 43.269531 8.363281 C 43.144531 8.402344 42.765625 8.328125 42.34375 8.175781 C 41.546875 7.878906 41.234375 7.855469 40.835938 8.058594 C 40.605469 8.1875 40.488281 8.183594 40.105469 8.058594 C 39.5 7.863281 39.207031 7.945312 38.90625 8.386719 C 38.429688 9.101562 37.960938 9.074219 37.792969 8.320312 C 37.699219 7.90625 37.359375 7.710938 36.710938 7.707031 C 36.457031 7.707031 36.015625 7.597656 35.703125 7.453125 C 35.054688 7.148438 34.597656 7.128906 33.816406 7.359375 C 33.28125 7.515625 33.253906 7.511719 33.105469 7.328125 C 32.96875 7.15625 32.972656 7.089844 33.160156 6.808594 C 33.460938 6.363281 33.4375 6.121094 33.054688 5.746094 C 32.742188 5.4375 32.390625 5.300781 32.101562 5.332031 Z M 41.976562 12.460938 C 42.71875 12.410156 43.640625 12.5 44.933594 12.738281 C 45.425781 12.828125 46.175781 12.960938 46.609375 13.023438 C 47.035156 13.089844 47.613281 13.175781 47.886719 13.21875 C 48.601562 13.328125 49.046875 13.574219 49.332031 14.023438 C 49.550781 14.371094 49.554688 14.421875 49.398438 14.53125 C 49.164062 14.691406 49.179688 14.8125 49.449219 14.96875 C 49.574219 15.042969 49.667969 15.210938 49.667969 15.363281 C 49.667969 15.765625 49.867188 16.03125 50.164062 16.03125 C 50.5625 16.03125 50.726562 16.28125 50.566406 16.640625 C 50.496094 16.800781 50.453125 17 50.46875 17.078125 C 50.492188 17.1875 50.429688 17.222656 50.28125 17.1875 C 49.386719 17.027344 48.894531 17.214844 49.132812 17.628906 C 49.226562 17.800781 49.195312 17.875 48.898438 18.101562 C 48.5 18.410156 48.457031 18.628906 48.792969 18.628906 C 48.933594 18.628906 49.046875 18.707031 49.085938 18.835938 C 49.15625 19.105469 49.207031 19.101562 49.558594 18.785156 C 49.816406 18.550781 49.871094 18.539062 50.070312 18.671875 C 50.269531 18.800781 50.292969 18.914062 50.265625 19.578125 C 50.222656 20.609375 50.4375 22.144531 50.667969 22.523438 C 51.03125 23.121094 51.132812 23.902344 51.003906 25.128906 C 50.941406 25.753906 50.855469 26.640625 50.820312 27.097656 C 50.765625 27.757812 50.691406 27.984375 50.484375 28.21875 C 50.195312 28.542969 50.171875 28.769531 50.21875 30.730469 C 50.246094 31.8125 50.273438 31.894531 50.585938 32.308594 C 50.769531 32.542969 51.015625 32.757812 51.140625 32.792969 C 51.363281 32.847656 51.367188 32.847656 51.132812 33.128906 C 51 33.28125 50.894531 33.496094 50.894531 33.601562 C 50.894531 33.765625 50.957031 33.777344 51.226562 33.726562 C 51.511719 33.675781 51.574219 33.699219 51.667969 33.9375 C 51.808594 34.289062 52.089844 34.300781 52.246094 33.972656 C 52.351562 33.761719 52.449219 33.722656 52.910156 33.71875 C 53.390625 33.714844 53.464844 33.746094 53.523438 33.964844 C 53.605469 34.269531 53.847656 34.363281 54.148438 34.210938 C 54.457031 34.058594 54.625 34.230469 54.902344 34.976562 C 55.179688 35.707031 55.183594 36.128906 54.921875 36.664062 C 54.589844 37.335938 53.695312 37.929688 52.113281 38.53125 C 51.390625 38.808594 51.097656 38.988281 50.761719 39.351562 C 50.054688 40.121094 49.859375 40.414062 49.882812 42.84375 C 49.921875 46.765625 49.925781 46.703125 49.675781 47.160156 C 49.550781 47.386719 49.476562 47.660156 49.347656 47.769531 L 49.347656 47.753906 C 49.164062 47.90625 48.890625 47.957031 48.03125 47.996094 C 47.433594 48.015625 46.902344 48.003906 46.859375 47.960938 C 46.738281 47.832031 45.179688 47.757812 44.601562 47.832031 C 44.410156 47.855469 44.375 47.800781 44.375 47.476562 C 44.375 47.089844 44.015625 46.589844 43.914062 46.835938 C 43.710938 47.335938 43.210938 47.390625 43.210938 46.914062 C 43.210938 46.546875 42.84375 46.597656 42.6875 46.980469 C 42.519531 47.40625 42.148438 47.429688 42.246094 47.015625 C 42.457031 46.171875 42.460938 46.054688 42.292969 46.054688 C 41.992188 46.054688 41.851562 45.796875 41.984375 45.476562 C 42.152344 45.0625 42.023438 44.621094 41.722656 44.578125 C 41.5 44.550781 41.480469 44.480469 41.453125 43.769531 C 41.4375 43.339844 41.425781 42.796875 41.425781 42.554688 C 41.429688 42.035156 41.136719 42.074219 40.59375 41.675781 C 40.347656 41.496094 40.199219 41.292969 40.199219 41.148438 C 40.199219 41.019531 40.128906 40.824219 40.039062 40.710938 C 39.882812 40.515625 39.875 40.515625 39.601562 40.761719 C 39.347656 40.980469 39.257812 40.996094 38.726562 40.933594 C 37.972656 40.835938 36.921875 40.777344 35.238281 40.71875 C 34.015625 40.679688 33.265625 40.585938 32.992188 40.425781 C 32.933594 40.390625 32.3125 40.308594 31.613281 40.242188 C 30.910156 40.179688 30.171875 40.066406 29.964844 39.984375 C 29.757812 39.90625 29.332031 39.835938 29.019531 39.835938 C 28.703125 39.835938 27.980469 39.773438 27.40625 39.695312 C 26.257812 39.542969 25.894531 38.800781 25.667969 38.144531 C 25.605469 37.957031 25.394531 37.707031 25.207031 37.597656 C 24.882812 37.394531 24.867188 37.359375 24.902344 36.765625 C 24.929688 36.378906 25.011719 36.074219 25.128906 35.960938 C 25.28125 35.800781 25.292969 35.695312 25.183594 35.28125 C 25.066406 34.8125 25.070312 34.777344 25.332031 34.597656 C 25.480469 34.488281 25.605469 34.339844 25.605469 34.265625 C 25.605469 34.183594 25.710938 34.0625 25.839844 34 C 26.023438 33.910156 26.0625 33.820312 26.015625 33.601562 C 25.972656 33.398438 26.03125 33.203125 26.21875 32.949219 C 26.480469 32.589844 26.480469 32.574219 26.28125 32.402344 C 26.074219 32.230469 26.078125 32.203125 26.457031 31.554688 C 26.8125 30.949219 26.832031 30.859375 26.707031 30.546875 C 26.488281 29.976562 26.988281 29.1875 28.277344 28.070312 C 29.203125 27.265625 29.371094 27.074219 29.597656 26.503906 C 29.734375 26.148438 29.953125 25.621094 30.078125 25.335938 C 30.203125 25.046875 30.347656 24.675781 30.394531 24.503906 C 30.449219 24.332031 30.664062 23.851562 30.886719 23.4375 C 31.210938 22.828125 31.605469 22.367188 32.90625 21.101562 C 33.800781 20.230469 34.714844 19.269531 34.945312 18.960938 C 35.816406 17.777344 35.96875 17.527344 36.085938 17.136719 C 36.152344 16.910156 36.414062 16.472656 36.671875 16.152344 C 37.140625 15.566406 37.5 15.015625 37.804688 14.40625 C 38.203125 13.609375 39.480469 12.921875 41.277344 12.546875 C 41.496094 12.503906 41.722656 12.476562 41.976562 12.460938 Z M 40.152344 25.046875 C 40.054688 25.078125 39.941406 25.136719 39.800781 25.226562 C 39.574219 25.375 39.269531 25.574219 39.113281 25.675781 C 38.011719 26.378906 37.109375 27.386719 37.109375 27.914062 C 37.105469 28.128906 36.65625 28.984375 36.238281 29.574219 C 36.078125 29.796875 35.914062 30.171875 35.867188 30.410156 C 35.824219 30.652344 35.71875 31.039062 35.644531 31.285156 C 35.515625 31.675781 35.519531 32.808594 35.714844 33.015625 C 35.992188 33.304688 36.761719 33.632812 37.425781 33.734375 C 37.707031 33.78125 38.996094 33.828125 40.289062 33.828125 C 43.050781 33.84375 43.507812 33.757812 43.925781 33.132812 C 44.339844 32.503906 44.457031 31.046875 44.34375 30.683594 C 44.222656 30.292969 43.933594 29.964844 43.703125 29.964844 C 43.367188 29.964844 42.667969 29.507812 42.605469 29.242188 C 42.566406 29.101562 42.441406 28.742188 42.320312 28.460938 C 41.972656 27.640625 41.820312 27.242188 41.660156 26.757812 C 41.515625 26.300781 40.703125 25.214844 40.378906 25.046875 C 40.324219 25.019531 40.246094 25.019531 40.152344 25.046875 Z M 40.152344 25.046875 "/>
</g>
</svg>
