<svg xmlns="http://www.w3.org/2000/svg" xmlns:xlink="http://www.w3.org/1999/xlink" width="64" height="64" viewBox="0 0 64 64" version="1.1">
<defs>
<linearGradient id="linear0" gradientUnits="userSpaceOnUse" x1="0" y1="0" x2="0" y2="1" gradientTransform="matrix(64,0,0,51.265625,0,6.367187)">
<stop offset="0" style="stop-color:#ff6666;stop-opacity:1;"/>
<stop offset="1" style="stop-color:#d90000;stop-opacity:1;"/>
</linearGradient>
</defs>
<g id="surface1">
<path style=" stroke:none;fill-rule:nonzero;fill:url(#linear0);" d="M 34.402344 6.367188 C 31.75 6.386719 29.5625 8.105469 27.476562 10.425781 C 25.386719 12.746094 23.335938 15.746094 20.933594 18.714844 C 16.128906 24.648438 10.089844 30.398438 0 30.398438 L 0 33.609375 C 3.980469 33.609375 7.316406 34.523438 10.210938 35.972656 L 10.210938 36.011719 L 10.28125 36.011719 C 14.683594 38.234375 18.042969 41.710938 20.933594 45.285156 C 23.335938 48.253906 25.386719 51.253906 27.476562 53.574219 C 29.5625 55.894531 31.75 57.613281 34.402344 57.632812 C 37.054688 57.652344 39.011719 55.894531 40.648438 53.558594 C 42.289062 51.222656 43.742188 48.21875 45.542969 45.253906 C 47.855469 41.433594 50.679688 37.734375 55.070312 35.5625 L 55.070312 36.011719 L 58.539062 36.011719 L 58.539062 34.3125 C 60.179688 33.890625 61.949219 33.609375 63.992188 33.609375 L 63.992188 33.601562 L 64 33.601562 L 64 32 L 63.992188 32 L 63.992188 30.398438 C 61.949219 30.398438 60.179688 30.117188 58.539062 29.695312 L 58.539062 29.589844 L 58.105469 29.589844 C 51.90625 27.835938 48.347656 23.382812 45.542969 18.753906 C 43.742188 15.789062 42.289062 12.777344 40.648438 10.441406 C 39.011719 8.105469 37.054688 6.347656 34.402344 6.367188 Z M 34.417969 8.007812 C 36.355469 7.992188 37.792969 9.222656 39.3125 11.386719 C 40.828125 13.550781 42.292969 16.554688 44.140625 19.605469 C 45.339844 21.585938 46.757812 23.570312 48.449219 25.378906 C 47.328125 24.433594 46.351562 23.417969 45.453125 22.398438 C 43.664062 20.371094 42.210938 18.304688 40.550781 16.679688 C 38.894531 15.058594 36.945312 13.875 34.402344 13.894531 C 31.863281 13.914062 29.683594 15.074219 27.585938 16.671875 C 25.492188 18.273438 23.433594 20.335938 21.035156 22.367188 C 19.632812 23.554688 18.101562 24.726562 16.410156 25.800781 C 18.601562 23.933594 20.515625 21.839844 22.207031 19.746094 C 24.660156 16.71875 26.726562 13.714844 28.699219 11.523438 C 30.675781 9.332031 32.480469 8.023438 34.417969 8.007812 Z M 34.417969 15.535156 C 36.46875 15.519531 37.910156 16.382812 39.40625 17.851562 C 40.90625 19.316406 42.371094 21.378906 44.226562 23.488281 C 46.714844 26.308594 50.011719 29.148438 55.070312 30.742188 L 55.070312 32 L 35.988281 32 L 35.988281 29.589844 L 32.519531 29.589844 L 32.519531 32 L 13.796875 32 L 13.796875 29.589844 L 12.667969 29.589844 C 16.484375 27.984375 19.523438 25.796875 22.09375 23.617188 C 24.550781 21.53125 26.625 19.476562 28.589844 17.976562 C 30.554688 16.476562 32.367188 15.550781 34.417969 15.535156 Z M 10.210938 30.511719 L 10.210938 32 L 0.792969 32 C 4.363281 31.925781 7.484375 31.382812 10.210938 30.511719 Z M 58.539062 31.558594 C 59.976562 31.800781 61.519531 31.964844 63.214844 32 L 58.539062 32 Z M 8.761719 33.601562 L 10.210938 33.601562 L 10.210938 34.171875 C 9.746094 33.957031 9.246094 33.789062 8.761719 33.601562 Z M 13.796875 33.601562 L 32.519531 33.601562 L 32.519531 36.011719 L 35.988281 36.011719 L 35.988281 33.601562 L 55.070312 33.601562 L 55.070312 33.832031 C 49.941406 36.152344 46.625 40.308594 44.140625 44.40625 C 42.292969 47.453125 40.828125 50.457031 39.3125 52.621094 C 37.792969 54.785156 36.355469 56.007812 34.417969 55.992188 C 32.480469 55.976562 30.675781 54.667969 28.699219 52.476562 C 26.726562 50.285156 24.660156 47.28125 22.207031 44.253906 C 19.8125 41.292969 17.007812 38.304688 13.527344 36.011719 L 13.796875 36.011719 Z M 13.796875 33.601562 "/>
</g>
</svg>
