<svg xmlns="http://www.w3.org/2000/svg" xmlns:xlink="http://www.w3.org/1999/xlink" width="64" height="64" viewBox="0 0 64 64" version="1.1">
<defs> <linearGradient id="linear0" gradientUnits="userSpaceOnUse" x1="0" y1="0" x2="0" y2="1" gradientTransform="matrix(55.992188,0,0,56,4.003906,4)"> <stop offset="0" style="stop-color:#ff6666;stop-opacity:1;"/> <stop offset="1" style="stop-color:#d90000;stop-opacity:1;"/> </linearGradient> </defs>
<g id="surface1">
<path style=" stroke:none;fill-rule:nonzero;fill:url(#linear0);fill-opacity:1;" d="M 46.78125 32.171875 C 46.78125 40.273438 40.1875 46.835938 32.054688 46.835938 C 23.921875 46.835938 17.332031 40.273438 17.332031 32.171875 C 17.332031 24.074219 23.921875 17.507812 32.054688 17.507812 C 40.1875 17.507812 46.78125 24.074219 46.78125 32.171875 "/>
<path style=" stroke:none;fill-rule:nonzero;fill:url(#linear0);fill-opacity:1;" d="M 32.054688 6.109375 C 17.597656 6.109375 5.882812 17.773438 5.882812 32.171875 C 5.882812 46.570312 17.597656 58.238281 32.054688 58.238281 C 46.515625 58.238281 58.230469 46.570312 58.230469 32.171875 C 58.230469 17.773438 46.515625 6.109375 32.054688 6.109375 M 32.054688 12.621094 C 42.898438 12.621094 51.6875 21.378906 51.6875 32.171875 C 51.6875 42.96875 42.898438 51.722656 32.054688 51.722656 C 21.214844 51.722656 12.421875 42.976562 12.421875 32.171875 C 12.421875 21.378906 21.214844 12.621094 32.054688 12.621094 "/>
</g>
</svg>
