<svg xmlns="http://www.w3.org/2000/svg" xmlns:xlink="http://www.w3.org/1999/xlink" width="64" height="64" viewBox="0 0 64 64" version="1.1">
<defs>
<linearGradient id="linear0" gradientUnits="userSpaceOnUse" x1="0" y1="0" x2="0" y2="1" gradientTransform="matrix(64,0,0,64,0,0)">
<stop offset="0" style="stop-color:#ff6666;stop-opacity:1;"/>
<stop offset="1" style="stop-color:#d90000;stop-opacity:1;"/>
</linearGradient>
</defs>
<g id="surface1">
<path style=" stroke:none;fill-rule:nonzero;fill:url(#linear0);" d="M 32 0 C 14.351562 0 0 14.351562 0 32 C 0 49.648438 14.351562 64 32 64 C 49.648438 64 64 49.648438 64 32 C 64 14.351562 49.648438 0 32 0 Z M 26.75 4.773438 C 20.273438 12.648438 16.6875 21.445312 16.203125 29.867188 L 4.375 29.867188 C 5.328125 17.289062 14.609375 7.09375 26.75 4.773438 Z M 37.25 4.773438 C 49.390625 7.09375 58.671875 17.289062 59.625 29.867188 L 47.804688 29.867188 C 47.320312 21.445312 43.726562 12.644531 37.25 4.773438 Z M 32 5.28125 C 39.136719 13.03125 43.003906 21.800781 43.539062 29.867188 L 20.460938 29.867188 C 20.996094 21.796875 24.867188 13.03125 32 5.28125 Z M 4.351562 34.132812 L 16.210938 34.132812 C 16.757812 42.636719 20.234375 51.332031 26.757812 59.242188 C 14.476562 56.890625 5.296875 46.601562 4.351562 34.132812 Z M 20.484375 34.132812 L 43.515625 34.132812 C 42.921875 42.347656 39.210938 50.90625 32 58.71875 C 24.785156 50.90625 21.074219 42.34375 20.484375 34.132812 Z M 47.789062 34.132812 L 59.625 34.132812 C 58.671875 46.707031 49.394531 56.90625 37.257812 59.226562 C 43.769531 51.320312 47.242188 42.628906 47.789062 34.132812 Z M 47.789062 34.132812 "/>
</g>
</svg>
