<svg xmlns="http://www.w3.org/2000/svg" xmlns:xlink="http://www.w3.org/1999/xlink" width="64" height="64" viewBox="0 0 64 64" version="1.1">
<defs>
<linearGradient id="linear0" gradientUnits="userSpaceOnUse" x1="0" y1="0" x2="0" y2="1" gradientTransform="matrix(64,0,0,60.445312,0,1.777344)">
<stop offset="0" style="stop-color:#ff6666;stop-opacity:1;"/>
<stop offset="1" style="stop-color:#d90000;stop-opacity:1;"/>
</linearGradient>
</defs>
<g id="surface1">
<path style=" stroke:none;fill-rule:nonzero;fill:url(#linear0);" d="M 34.421875 1.777344 C 34.039062 1.777344 34.113281 3.273438 34.511719 3.613281 C 34.964844 3.992188 35.628906 5.328125 35.824219 6.246094 L 35.976562 6.972656 L 34.734375 7.234375 C 31.773438 7.863281 31.195312 9.902344 33.109375 13 C 33.78125 14.085938 33.78125 14.117188 33.652344 16.472656 C 33.550781 18.234375 33.605469 19.132812 33.851562 19.980469 C 34.234375 21.292969 35.304688 22.5 36.421875 22.878906 C 37.660156 23.304688 41.015625 23.105469 42.265625 22.535156 C 43.628906 21.910156 45.40625 20.054688 45.898438 18.734375 C 46.484375 17.179688 46.265625 15.03125 45.332031 13.160156 C 44.4375 11.355469 42.105469 8.902344 40.484375 8.066406 C 39.628906 7.628906 39.222656 7.246094 38.9375 6.617188 C 38.527344 5.714844 34.855469 1.777344 34.421875 1.777344 Z M 13.179688 8.886719 C 13.128906 8.882812 13.085938 8.898438 13.039062 8.945312 C 12.597656 9.386719 12.234375 11.726562 12.277344 13.90625 C 12.3125 15.976562 12.261719 16.398438 11.851562 17.089844 C 10.492188 19.375 10.265625 23.566406 11.363281 25.945312 C 12.339844 28.046875 13.953125 29.332031 16.414062 29.945312 C 18.132812 30.371094 19.292969 30.3125 20.90625 29.722656 C 25.359375 28.09375 26.128906 24.921875 22.9375 21.339844 C 21.640625 19.886719 21.039062 18.703125 21.039062 17.632812 C 21.039062 16.324219 20.558594 15.046875 19.757812 14.1875 C 19.027344 13.410156 18.988281 13.402344 17.601562 13.527344 C 16.824219 13.597656 15.90625 13.71875 15.566406 13.804688 C 15 13.949219 14.910156 13.871094 14.503906 12.964844 C 14.261719 12.421875 14.054688 11.503906 14.050781 10.925781 C 14.046875 10.027344 13.535156 8.921875 13.179688 8.886719 Z M 58.359375 12.453125 C 57.800781 12.339844 57.628906 13.640625 58.074219 14.585938 C 58.285156 15.015625 58.421875 15.757812 58.378906 16.21875 L 58.3125 17.066406 L 57.117188 17.089844 C 56.191406 17.109375 55.742188 17.257812 55.097656 17.746094 C 54.335938 18.328125 53.175781 20.285156 53.171875 21 C 53.171875 21.15625 52.464844 22.695312 51.605469 24.414062 C 50.738281 26.136719 49.964844 27.886719 49.871094 28.304688 C 49.386719 30.539062 50.738281 32.210938 53.972656 33.375 C 55.335938 33.867188 56.765625 33.902344 58.3125 33.492188 C 60.828125 32.824219 62.445312 31.554688 63.425781 29.480469 C 63.941406 28.382812 64.007812 27.941406 64 25.953125 C 63.984375 23.371094 63.5 21.742188 62.179688 19.886719 C 61.769531 19.308594 61.265625 18.179688 61.058594 17.378906 C 60.648438 15.746094 58.894531 12.554688 58.359375 12.453125 Z M 0.28125 30.226562 C 0.222656 30.214844 0.179688 30.222656 0.152344 30.257812 C -0.316406 30.757812 0.382812 35.597656 1.089844 36.753906 C 1.261719 37.03125 1.503906 38 1.636719 38.894531 C 2.234375 42.957031 5.066406 46.742188 8.285156 47.800781 C 9.378906 48.160156 11.765625 48.023438 13.304688 47.519531 C 14.574219 47.105469 15.003906 46.816406 15.964844 45.734375 C 17.957031 43.492188 18.320312 41.277344 16.984375 39.480469 C 16.628906 39.003906 15.546875 38.117188 14.578125 37.507812 C 13.617188 36.894531 11.933594 35.773438 10.84375 35.007812 C 7.660156 32.769531 7.328125 32.558594 6.449219 32.300781 C 5.335938 31.96875 4.199219 32.320312 3.277344 33.285156 L 2.542969 34.035156 L 2.097656 33.234375 C 1.84375 32.792969 1.636719 32.207031 1.636719 31.9375 C 1.636719 31.453125 0.6875 30.324219 0.28125 30.226562 Z M 40.898438 33.777344 C 39.503906 33.785156 37.886719 34.007812 36.027344 34.460938 C 30.765625 35.726562 28.277344 37.238281 27.144531 39.855469 C 26.652344 40.984375 26.617188 41.375 26.746094 43.539062 C 26.882812 45.742188 26.847656 46.058594 26.332031 47.160156 C 25.808594 48.277344 25.199219 48.90625 22.421875 51.242188 C 21.539062 51.984375 21.460938 52.160156 21.359375 53.519531 C 21.269531 54.789062 21.359375 55.207031 21.996094 56.5625 C 23.363281 59.460938 25.824219 61.402344 28.90625 62.007812 C 30.367188 62.292969 31.332031 62.292969 33.839844 62.015625 C 43.578125 60.929688 54.78125 57.421875 57.980469 54.445312 C 59.652344 52.890625 60.316406 51.457031 60.429688 49.179688 C 60.644531 44.835938 58.683594 42.230469 55.191406 42.214844 C 52.460938 42.203125 49.707031 40.617188 48.578125 38.394531 C 47.746094 36.753906 46.050781 35.113281 44.472656 34.414062 C 43.480469 33.980469 42.300781 33.773438 40.898438 33.777344 Z M 40.898438 33.777344 "/>
</g>
</svg>
