<svg xmlns="http://www.w3.org/2000/svg" xmlns:xlink="http://www.w3.org/1999/xlink" width="64" height="64" viewBox="0 0 64 64" version="1.1">
<defs>
<linearGradient id="linear0" gradientUnits="userSpaceOnUse" x1="0" y1="0" x2="0" y2="1" gradientTransform="matrix(61.554688,0,0,64,1.222656,0)">
<stop offset="0" style="stop-color:#ff6666;stop-opacity:1;"/>
<stop offset="1" style="stop-color:#d90000;stop-opacity:1;"/>
</linearGradient>
</defs>
<g id="surface1">
<path style=" stroke:none;fill-rule:nonzero;fill:url(#linear0);" d="M 32.058594 8.894531 C 29.359375 8.894531 27.324219 9.921875 27.324219 11.277344 L 27.324219 13 C 27.28125 13.003906 27.238281 13.015625 27.199219 13.03125 L 24.140625 14.40625 C 24.011719 14.464844 23.902344 14.546875 23.8125 14.636719 C 23.035156 14.359375 22.082031 14.191406 21.011719 14.191406 C 18.316406 14.191406 16.28125 15.214844 16.28125 16.570312 L 16.28125 18.039062 C 16.109375 18.042969 15.9375 18.070312 15.78125 18.148438 L 9.9375 20.910156 C 9.738281 21.003906 9.601562 21.152344 9.5 21.320312 C 9.472656 21.355469 9.457031 21.390625 9.433594 21.429688 C 9.414062 21.476562 9.402344 21.523438 9.390625 21.570312 C 9.359375 21.664062 9.308594 21.746094 9.308594 21.84375 L 9.308594 44.246094 C 9.308594 44.59375 9.523438 44.917969 9.878906 45.09375 L 31.121094 55.507812 C 31.136719 55.515625 31.15625 55.511719 31.167969 55.519531 C 31.3125 55.585938 31.46875 55.621094 31.625 55.625 C 31.625 55.625 31.65625 55.636719 31.671875 55.636719 C 31.8125 55.636719 31.941406 55.585938 32.070312 55.542969 C 32.117188 55.527344 32.175781 55.53125 32.21875 55.511719 L 32.226562 55.507812 C 32.230469 55.507812 32.230469 55.507812 32.234375 55.503906 C 32.242188 55.503906 32.242188 55.496094 32.242188 55.496094 L 53.679688 45.015625 C 54.035156 44.84375 54.25 44.515625 54.25 44.167969 L 54.273438 21.890625 C 54.273438 21.542969 54.0625 21.222656 53.71875 21.050781 C 53.683594 21.03125 53.636719 21.035156 53.597656 21.019531 C 53.550781 20.984375 53.511719 20.945312 53.453125 20.917969 L 47.609375 18.152344 C 47.582031 18.140625 47.558594 18.140625 47.53125 18.132812 L 47.53125 16.558594 C 47.53125 15.203125 45.496094 14.179688 42.800781 14.179688 C 41.652344 14.179688 40.640625 14.371094 39.839844 14.6875 C 39.785156 14.648438 39.738281 14.601562 39.671875 14.570312 L 36.890625 13.320312 C 36.859375 13.316406 36.824219 13.304688 36.792969 13.292969 L 36.792969 11.28125 C 36.792969 9.921875 34.757812 8.898438 32.058594 8.898438 M 29 13.109375 C 29.816406 13.449219 30.863281 13.65625 32.058594 13.65625 C 33.253906 13.65625 34.300781 13.449219 35.117188 13.109375 L 35.117188 15.808594 C 35.117188 16.089844 33.960938 16.730469 32.058594 16.730469 C 30.15625 16.730469 29 16.089844 29 15.808594 L 29 13.109375 M 27.324219 15.167969 L 27.324219 15.808594 C 27.324219 17.164062 29.359375 18.1875 32.058594 18.1875 C 34.757812 18.1875 36.792969 17.164062 36.792969 15.808594 L 36.792969 15.464844 L 38.148438 16.078125 C 38.09375 16.230469 38.058594 16.394531 38.058594 16.558594 L 38.058594 21.085938 C 38.058594 22.445312 40.097656 23.464844 42.796875 23.464844 C 45.496094 23.464844 47.53125 22.445312 47.527344 21.085938 L 47.527344 20.328125 L 50.84375 21.902344 L 31.675781 31.25 L 12.667969 21.84375 L 16.285156 20.128906 L 16.285156 21.105469 C 16.285156 22.460938 18.320312 23.484375 21.019531 23.484375 C 23.714844 23.484375 25.75 22.460938 25.75 21.105469 L 25.75 16.578125 C 25.75 16.359375 25.679688 16.152344 25.582031 15.953125 L 27.328125 15.171875 M 39.746094 18.390625 C 40.558594 18.730469 41.609375 18.941406 42.804688 18.941406 C 43.996094 18.941406 45.042969 18.730469 45.859375 18.390625 L 45.859375 21.089844 C 45.859375 21.355469 44.789062 22.007812 42.804688 22.007812 C 40.902344 22.007812 39.746094 21.371094 39.746094 21.089844 L 39.746094 18.390625 M 17.957031 18.40625 C 18.773438 18.746094 19.824219 18.957031 21.019531 18.957031 C 22.210938 18.957031 23.257812 18.75 24.074219 18.410156 L 24.074219 21.105469 C 24.074219 21.371094 23.003906 22.027344 21.019531 22.027344 C 19.03125 22.027344 17.957031 21.371094 17.957031 21.105469 L 17.957031 18.40625 M 31.992188 19.398438 C 29.296875 19.398438 27.257812 20.421875 27.257812 21.777344 L 27.257812 26.304688 C 27.257812 27.664062 29.296875 28.6875 31.992188 28.6875 C 34.691406 28.6875 36.722656 27.664062 36.722656 26.304688 L 36.722656 21.777344 C 36.722656 20.421875 34.691406 19.398438 31.992188 19.398438 M 28.933594 23.605469 C 29.75 23.949219 30.800781 24.15625 31.992188 24.15625 C 33.1875 24.15625 34.230469 23.949219 35.046875 23.609375 L 35.046875 26.304688 C 35.046875 26.574219 33.980469 27.226562 31.992188 27.226562 C 30.089844 27.226562 28.933594 26.585938 28.933594 26.304688 L 28.933594 23.605469 "/>
</g>
</svg>
