<svg xmlns="http://www.w3.org/2000/svg" xmlns:xlink="http://www.w3.org/1999/xlink" width="64" height="64" viewBox="0 0 64 64" version="1.1">
<defs>
<linearGradient id="linear0" gradientUnits="userSpaceOnUse" x1="0" y1="0" x2="0" y2="1" gradientTransform="matrix(74.65625,0,0,74.666667,5.338541,5.333333)">
<stop offset="0" style="stop-color:#ff6666;stop-opacity:1;"/>
<stop offset="1" style="stop-color:#d90000;stop-opacity:1;"/>
</linearGradient>
</defs>
<g id="surface1">
<path style=" stroke:none;fill-rule:nonzero;fill:url(#linear0);" d="M 41.730469 2.5625 C 40.332031 2.5625 39.195312 3.699219 39.195312 5.097656 C 39.195312 6.496094 40.332031 7.632812 41.730469 7.632812 L 47.253906 7.632812 C 48.65625 7.632812 49.257812 7.957031 49.613281 8.320312 C 49.96875 8.6875 50.28125 9.339844 50.28125 10.683594 L 50.28125 17.640625 C 50.28125 19.042969 51.417969 20.175781 52.816406 20.175781 C 54.214844 20.175781 55.347656 19.039062 55.347656 17.640625 L 55.347656 10.683594 C 55.347656 8.46875 54.742188 6.328125 53.246094 4.789062 C 51.75 3.25 49.574219 2.5625 47.253906 2.5625 Z M 16.734375 2.574219 C 14.578125 2.574219 12.484375 3.28125 10.960938 4.75 C 9.441406 6.214844 8.617188 8.367188 8.617188 10.695312 L 8.617188 52.5 C 8.617188 54.773438 9.109375 56.976562 10.515625 58.71875 C 11.921875 60.457031 14.226562 61.4375 16.734375 61.4375 C 18.136719 61.4375 19.269531 60.300781 19.269531 58.902344 C 19.269531 57.503906 18.132812 56.371094 16.734375 56.371094 C 15.359375 56.371094 14.871094 56.042969 14.453125 55.53125 C 14.039062 55.015625 13.679688 54.015625 13.679688 52.5 L 13.679688 10.695312 C 13.679688 9.480469 14.019531 8.839844 14.476562 8.398438 C 14.933594 7.957031 15.636719 7.640625 16.734375 7.640625 L 28.453125 7.640625 C 29.976562 7.707031 30.75 8.132812 31.835938 9.140625 L 49.003906 27.394531 C 49.03125 27.421875 49.058594 27.449219 49.085938 27.476562 C 49.980469 28.34375 50.316406 29.359375 50.316406 30.625 L 50.316406 52.5 C 50.316406 53.878906 49.921875 54.871094 49.421875 55.460938 C 48.921875 56.054688 48.347656 56.371094 47.289062 56.371094 L 24.3125 56.371094 C 22.917969 56.371094 21.785156 57.503906 21.78125 58.902344 C 21.78125 60.300781 22.914062 61.433594 24.3125 61.4375 L 47.289062 61.4375 C 49.664062 61.4375 51.867188 60.414062 53.289062 58.734375 C 54.710938 57.054688 55.382812 54.84375 55.382812 52.5 L 55.382812 30.625 C 55.382812 28.289062 54.578125 25.746094 52.613281 23.839844 L 35.441406 5.578125 C 35.402344 5.535156 35.363281 5.496094 35.324219 5.460938 C 33.644531 3.890625 31.378906 2.6875 28.648438 2.578125 C 28.613281 2.574219 28.578125 2.574219 28.542969 2.574219 Z M 16.734375 2.574219 "/>
</g>
</svg>
