<svg xmlns="http://www.w3.org/2000/svg" xmlns:xlink="http://www.w3.org/1999/xlink" width="64" height="64" viewBox="0 0 64 64" version="1.1">
<defs> <linearGradient id="linear0" gradientUnits="userSpaceOnUse" x1="0" y1="0" x2="0" y2="1" gradientTransform="matrix(55.992188,0,0,56,4.003906,4)"> <stop offset="0" style="stop-color:#ff6666;stop-opacity:1;"/> <stop offset="1" style="stop-color:#d90000;stop-opacity:1;"/> </linearGradient> </defs>
<g id="surface1">
<path style=" stroke:none;fill-rule:nonzero;fill:url(#linear0);fill-opacity:1;" d="M 14.753906 52.011719 C 14.078125 51.792969 13.855469 51.640625 13.035156 50.859375 C 11.207031 49.105469 9.414062 46.605469 8.117188 44.019531 C 6.789062 41.363281 5.957031 38.683594 5.535156 35.746094 C 5.269531 33.875 5.269531 30.429688 5.535156 28.558594 C 6.332031 22.988281 8.804688 17.84375 12.589844 13.910156 C 13.957031 12.488281 14.46875 12.210938 15.695312 12.210938 C 16.359375 12.214844 16.632812 12.265625 17.050781 12.46875 C 18.652344 13.246094 19.386719 15.046875 18.765625 16.695312 C 18.609375 17.117188 18.328125 17.507812 17.746094 18.132812 C 16.042969 19.933594 14.960938 21.480469 13.96875 23.53125 C 11.320312 28.988281 11.320312 35.316406 13.96875 40.773438 C 14.960938 42.828125 16.042969 44.371094 17.746094 46.175781 C 18.328125 46.796875 18.609375 47.1875 18.765625 47.613281 C 19.371094 49.214844 18.660156 51.054688 17.164062 51.785156 C 16.488281 52.113281 15.375 52.214844 14.753906 52.011719 M 47.691406 52.050781 C 46.753906 51.824219 45.882812 51.117188 45.445312 50.21875 C 45.230469 49.796875 45.1875 49.546875 45.1875 48.816406 C 45.1875 47.691406 45.414062 47.210938 46.433594 46.121094 C 50.183594 42.117188 52.136719 37.332031 52.136719 32.152344 C 52.136719 26.988281 50.207031 22.242188 46.464844 18.214844 C 45.425781 17.097656 45.1875 16.59375 45.1875 15.488281 C 45.179688 14.449219 45.425781 13.839844 46.117188 13.148438 C 46.78125 12.488281 47.429688 12.226562 48.421875 12.214844 C 49.621094 12.210938 50.175781 12.492188 51.335938 13.6875 C 53.300781 15.714844 54.785156 17.832031 56.066406 20.4375 C 57.371094 23.101562 58.078125 25.324219 58.539062 28.25 C 58.839844 30.183594 58.859375 33.859375 58.589844 35.746094 C 57.917969 40.316406 56.125 44.636719 53.410156 48.210938 C 52.460938 49.460938 50.871094 51.179688 50.332031 51.546875 C 49.574219 52.0625 48.546875 52.253906 47.691406 52.050781 M 22.257812 45.339844 C 21.65625 45.140625 21.164062 44.824219 20.730469 44.347656 C 20.535156 44.128906 20.324219 43.929688 20.261719 43.90625 C 20.203125 43.886719 19.890625 43.574219 19.574219 43.21875 C 16.183594 39.421875 14.722656 34.28125 15.59375 29.238281 C 15.949219 27.167969 16.9375 24.71875 18.125 22.953125 C 18.753906 22.023438 20.113281 20.382812 20.253906 20.382812 C 20.300781 20.382812 20.535156 20.171875 20.773438 19.917969 C 21.011719 19.664062 21.46875 19.324219 21.792969 19.160156 C 22.300781 18.917969 22.507812 18.878906 23.21875 18.882812 C 24.265625 18.894531 24.855469 19.136719 25.558594 19.839844 C 26.480469 20.753906 26.761719 22.117188 26.292969 23.363281 C 26.121094 23.820312 25.871094 24.160156 25.191406 24.847656 C 23.679688 26.382812 22.742188 28.011719 22.257812 29.9375 C 22.015625 30.914062 22.015625 33.394531 22.257812 34.363281 C 22.742188 36.296875 23.679688 37.925781 25.191406 39.457031 C 25.871094 40.152344 26.128906 40.492188 26.296875 40.945312 C 27.09375 43.078125 25.644531 45.328125 23.402344 45.445312 C 22.988281 45.464844 22.519531 45.425781 22.257812 45.339844 M 40.164062 45.390625 C 39.199219 45.140625 38.355469 44.449219 37.917969 43.558594 C 37.707031 43.128906 37.660156 42.878906 37.65625 42.148438 C 37.65625 41.378906 37.695312 41.195312 37.949219 40.707031 C 38.109375 40.402344 38.597656 39.792969 39.03125 39.355469 C 40.433594 37.929688 41.386719 36.25 41.859375 34.363281 C 41.984375 33.871094 42.035156 33.21875 42.035156 32.152344 C 42.035156 31.082031 41.984375 30.4375 41.859375 29.9375 C 41.386719 28.050781 40.4375 26.382812 39.023438 24.941406 C 38.074219 23.96875 37.695312 23.289062 37.628906 22.40625 C 37.519531 21.082031 38.171875 19.90625 39.382812 19.25 C 39.996094 18.910156 40.136719 18.878906 40.898438 18.878906 C 42.074219 18.871094 42.625 19.148438 43.835938 20.355469 C 50.4375 26.925781 50.433594 37.433594 43.824219 43.960938 C 42.726562 45.039062 42.097656 45.390625 41.121094 45.441406 C 40.769531 45.457031 40.335938 45.433594 40.164062 45.394531 M 30.859375 38.722656 C 30.140625 38.570312 29.222656 38.214844 28.621094 37.855469 C 27.875 37.414062 26.769531 36.3125 26.324219 35.566406 C 24.117188 31.84375 25.984375 27.0625 30.152344 25.765625 C 31.140625 25.460938 32.976562 25.460938 33.964844 25.765625 C 36.941406 26.691406 38.894531 29.464844 38.71875 32.523438 C 38.625 34.203125 37.96875 35.644531 36.757812 36.839844 C 35.480469 38.101562 34.089844 38.707031 32.316406 38.765625 C 31.742188 38.789062 31.085938 38.765625 30.859375 38.714844 "/>
</g>
</svg>
