<svg xmlns="http://www.w3.org/2000/svg" xmlns:xlink="http://www.w3.org/1999/xlink" width="64" height="64" viewBox="0 0 64 64" version="1.1">
<defs>
<linearGradient id="linear0" gradientUnits="userSpaceOnUse" x1="0" y1="0" x2="0" y2="1" gradientTransform="matrix(56,0,0,63.996094,4,0.00390625)">
<stop offset="0" style="stop-color:#ff6666;stop-opacity:1;"/>
<stop offset="1" style="stop-color:#d90000;stop-opacity:1;"/>
</linearGradient>
<linearGradient id="linear1" gradientUnits="userSpaceOnUse" x1="0" y1="0" x2="0" y2="1" gradientTransform="matrix(32,0,0,20,16,32)">
<stop offset="0" style="stop-color:#ff6666;stop-opacity:1;"/>
<stop offset="1" style="stop-color:#d90000;stop-opacity:1;"/>
</linearGradient>
</defs>
<g id="surface1">
<path style=" stroke:none;fill-rule:nonzero;fill:url(#linear0);" d="M 7.375 0.0234375 C 5.449219 0.371094 3.964844 2.15625 4 4.023438 L 4 60 C 4 62.09375 6.050781 64 8.25 64 L 55.75 64 C 57.949219 64 60 62.09375 60 60 L 60 30 C 60.023438 28.945312 59.519531 27.523438 58.75 26.765625 L 33.125 1.148438 C 32.328125 0.414062 31.234375 0 30.125 0.0234375 L 8.25 0.0234375 C 7.988281 0 7.636719 0 7.375 0.0234375 Z M 45.125 0.0234375 C 44.011719 0.324219 43.625 2.023438 44.5 2.773438 L 57.25 15.515625 C 58.128906 16.4375 60.019531 15.664062 60 14.390625 L 60 1.523438 C 59.953125 0.710938 59.1875 0.0078125 58.375 0.0234375 L 45.625 0.0234375 C 45.460938 -0.00390625 45.289062 -0.00390625 45.125 0.0234375 Z M 9 5 L 30 5 L 55 30 L 55 59 L 9 59 Z M 9 5 "/>
<path style=" stroke:none;fill-rule:nonzero;fill:url(#linear1);" d="M 18 32 C 16.890625 32 16 32.890625 16 34 L 16 50 C 16 51.109375 16.890625 52 18 52 L 46 52 C 47.109375 52 48 51.109375 48 50 L 48 34 C 48 32.890625 47.109375 32 46 32 Z M 22 36 C 23.105469 36 24 36.894531 24 38 C 24 39.105469 23.105469 40 22 40 C 20.894531 40 20 39.105469 20 38 C 20 36.894531 20.894531 36 22 36 Z M 30 36 L 42 36 C 43.109375 36 44 36.890625 44 38 C 44 39.109375 43.109375 40 42 40 L 30 40 C 28.890625 40 28 39.109375 28 38 C 28 36.890625 28.890625 36 30 36 Z M 22 44 C 23.105469 44 24 44.894531 24 46 C 24 47.105469 23.105469 48 22 48 C 20.894531 48 20 47.105469 20 46 C 20 44.894531 20.894531 44 22 44 Z M 30 44 L 42 44 C 43.109375 44 44 44.890625 44 46 C 44 47.109375 43.109375 48 42 48 L 30 48 C 28.890625 48 28 47.109375 28 46 C 28 44.890625 28.890625 44 30 44 Z M 30 44 "/>
</g>
</svg>
