<svg xmlns="http://www.w3.org/2000/svg" xmlns:xlink="http://www.w3.org/1999/xlink" width="64" height="64" viewBox="0 0 64 64" version="1.1">
<defs>
<linearGradient id="linear0" gradientUnits="userSpaceOnUse" x1="0" y1="0" x2="0" y2="1" gradientTransform="matrix(56,0,0,63.996094,4,0.00390625)">
<stop offset="0" style="stop-color:#ff6666;stop-opacity:1;"/>
<stop offset="1" style="stop-color:#d90000;stop-opacity:1;"/>
</linearGradient>
<linearGradient id="linear1" gradientUnits="userSpaceOnUse" x1="0" y1="0" x2="0" y2="1" gradientTransform="matrix(16,0,0,24.617188,22.558594,25.605469)">
<stop offset="0" style="stop-color:#ff6666;stop-opacity:1;"/>
<stop offset="1" style="stop-color:#d90000;stop-opacity:1;"/>
</linearGradient>
</defs>
<g id="surface1">
<path style=" stroke:none;fill-rule:nonzero;fill:url(#linear0);" d="M 7.375 0.0234375 C 5.449219 0.371094 3.964844 2.15625 4 4.023438 L 4 60 C 4 62.09375 6.050781 64 8.25 64 L 55.75 64 C 57.949219 64 60 62.09375 60 60 L 60 30 C 60.023438 28.945312 59.519531 27.523438 58.75 26.765625 L 33.125 1.148438 C 32.328125 0.414062 31.234375 0 30.125 0.0234375 L 8.25 0.0234375 C 7.988281 0 7.636719 0 7.375 0.0234375 Z M 45.125 0.0234375 C 44.011719 0.324219 43.625 2.023438 44.5 2.773438 L 57.25 15.515625 C 58.128906 16.4375 60.019531 15.664062 60 14.390625 L 60 1.523438 C 59.953125 0.710938 59.1875 0.0078125 58.375 0.0234375 L 45.625 0.0234375 C 45.460938 -0.00390625 45.289062 -0.00390625 45.125 0.0234375 Z M 9 5 L 30 5 L 55 30 L 55 59 L 9 59 Z M 9 5 "/>
<path style=" stroke:none;fill-rule:nonzero;fill:url(#linear1);" d="M 30.300781 25.605469 C 25.984375 25.675781 22.554688 27.445312 22.558594 29.605469 C 22.558594 31.816406 26.140625 33.605469 30.558594 33.605469 C 34.976562 33.605469 38.558594 31.816406 38.558594 29.605469 C 38.558594 27.398438 34.976562 25.605469 30.558594 25.605469 C 30.472656 25.605469 30.386719 25.605469 30.300781 25.605469 Z M 22.558594 36.472656 L 22.558594 40.277344 C 30.96875 44.65625 38.558594 40.277344 38.558594 40.277344 L 38.558594 36.472656 C 38.558594 36.472656 30.320312 40.703125 22.558594 36.472656 Z M 22.558594 44.472656 L 22.558594 48.277344 C 30.96875 52.65625 38.558594 48.277344 38.558594 48.277344 L 38.558594 44.472656 C 38.558594 44.472656 30.320312 48.703125 22.558594 44.472656 Z M 22.558594 44.472656 "/>
</g>
</svg>
