<svg xmlns="http://www.w3.org/2000/svg" xmlns:xlink="http://www.w3.org/1999/xlink" width="64" height="64" viewBox="0 0 64 64" version="1.1">
<defs> <linearGradient id="linear0" gradientUnits="userSpaceOnUse" x1="0" y1="0" x2="0" y2="1" gradientTransform="matrix(55.992188,0,0,56,4.003906,4)"> <stop offset="0" style="stop-color:#ff6666;stop-opacity:1;"/> <stop offset="1" style="stop-color:#d90000;stop-opacity:1;"/> </linearGradient> </defs>
<g id="surface1">
<path style=" stroke:none;fill-rule:nonzero;fill:url(#linear0);fill-opacity:1;" d="M 31.515625 3.964844 C 16.167969 3.964844 3.722656 16.355469 3.722656 31.640625 C 3.722656 46.921875 16.167969 59.320312 31.515625 59.320312 C 46.867188 59.320312 59.308594 46.921875 59.308594 31.640625 C 59.308594 16.355469 46.867188 3.964844 31.515625 3.964844 Z M 31.515625 7.652344 C 44.824219 7.652344 55.605469 18.390625 55.605469 31.640625 C 55.59375 42.730469 47.945312 52.367188 37.109375 54.941406 C 37.078125 48.246094 40.785156 44.558594 40.785156 42.710938 L 40.785156 37.179688 C 40.785156 37.179688 46.34375 27.949219 50.046875 24.261719 C 50.046875 20.570312 48.195312 21.6875 48.195312 21.6875 L 48.195312 20.570312 L 46.34375 22.410156 C 46.34375 22.410156 48.195312 16.875 44.488281 15.03125 C 40.785156 16.875 37.078125 20.570312 37.078125 20.570312 L 33.375 20.570312 L 27.8125 24.261719 C 24.105469 24.261719 20.402344 24.261719 18.546875 26.105469 C 16.695312 27.949219 22.253906 31.640625 22.253906 31.640625 L 14.84375 44.558594 L 12.175781 45.886719 C 9.101562 41.765625 7.4375 36.769531 7.433594 31.640625 C 7.433594 18.390625 18.214844 7.652344 31.515625 7.652344 Z M 33.375 22.410156 L 37.078125 22.410156 L 33.375 24.261719 L 31.515625 24.261719 Z M 33.375 22.410156 "/>
</g>
</svg>
