<svg xmlns="http://www.w3.org/2000/svg" xmlns:xlink="http://www.w3.org/1999/xlink" width="64" height="64" viewBox="0 0 64 64" version="1.1">
<defs> <linearGradient id="linear0" gradientUnits="userSpaceOnUse" x1="0" y1="0" x2="0" y2="1" gradientTransform="matrix(55.992188,0,0,56,4.003906,4)"> <stop offset="0" style="stop-color:#ff6666;stop-opacity:1;"/> <stop offset="1" style="stop-color:#d90000;stop-opacity:1;"/> </linearGradient> </defs>
<g id="surface1">
<path style=" stroke:none;fill-rule:nonzero;fill:url(#linear0);fill-opacity:1;" d="M 20.085938 7.0625 C 25.742188 7.0625 31.304688 12.074219 34.367188 19.871094 C 31.578125 21.347656 28.996094 23.222656 26.882812 25.332031 C 19.101562 33.128906 17.210938 44.066406 22.21875 51.253906 C 21.511719 51.375 20.792969 51.453125 20.085938 51.453125 C 11.039062 51.453125 3.671875 42.175781 3.671875 30.769531 C 3.671875 19.8125 10.839844 7.058594 20.085938 7.058594 M 24.402344 52.070312 C 19.039062 45.40625 20.90625 34.621094 28.539062 26.96875 C 30.683594 24.828125 33.332031 22.921875 36.207031 21.46875 L 36.464844 21.332031 L 36.40625 21.214844 C 40.199219 19.335938 44.292969 18.296875 47.957031 18.296875 C 51.75 18.296875 54.902344 19.433594 57.066406 21.574219 C 60.085938 24.566406 61.125 29.375 59.992188 35.101562 C 58.902344 40.601562 55.964844 46.074219 51.925781 50.117188 C 47.382812 54.671875 41.515625 57.28125 35.84375 57.28125 C 31.691406 57.28125 28.097656 55.890625 25.441406 53.261719 C 25.167969 52.996094 24.90625 52.683594 24.640625 52.367188 L 24.402344 52.070312 "/>
</g>
</svg>
