<svg xmlns="http://www.w3.org/2000/svg" xmlns:xlink="http://www.w3.org/1999/xlink" width="64" height="64" viewBox="0 0 64 64" version="1.1">
<defs>
<linearGradient id="linear0" gradientUnits="userSpaceOnUse" x1="0" y1="0" x2="0" y2="1" gradientTransform="matrix(64,0,0,64,0,0)">
<stop offset="0" style="stop-color:#ff6666;stop-opacity:1;"/>
<stop offset="1" style="stop-color:#d90000;stop-opacity:1;"/>
</linearGradient>
</defs>
<g id="surface1">
<path style=" stroke:none;fill-rule:evenodd;fill:url(#linear0);" d="M 0 12 C 0 5.375 5.375 0 12 0 C 18.625 0 24 5.375 24 12 C 24 18.625 18.625 24 12 24 C 5.375 24 0 18.625 0 12 Z M 40 32 C 40 25.375 45.375 20 52 20 C 58.625 20 64 25.375 64 32 C 64 38.625 58.625 44 52 44 C 45.375 44 40 38.625 40 32 Z M 0 52 C 0 45.375 5.375 40 12 40 C 18.625 40 24 45.375 24 52 C 24 58.625 18.625 64 12 64 C 5.375 64 0 58.625 0 52 Z M 0 52 "/>
</g>
</svg>
