<svg xmlns="http://www.w3.org/2000/svg" xmlns:xlink="http://www.w3.org/1999/xlink" width="64" height="64" viewBox="0 0 64 64" version="1.1">
<defs>
<linearGradient id="linear0" gradientUnits="userSpaceOnUse" x1="0" y1="0" x2="0" y2="1" gradientTransform="matrix(56,0,0,51.695312,4,6.152344)">
<stop offset="0" style="stop-color:#ff6666;stop-opacity:1;"/>
<stop offset="1" style="stop-color:#d90000;stop-opacity:1;"/>
</linearGradient>
</defs>
<g id="surface1">
<path style=" stroke:none;fill-rule:nonzero;fill:url(#linear0);" d="M 26.539062 42.253906 C 26.496094 42.207031 26.5 42.179688 26.5625 42.085938 C 26.597656 42.027344 26.628906 42.003906 26.679688 41.988281 C 26.792969 41.945312 26.890625 41.875 26.972656 41.785156 C 27.050781 41.699219 27.144531 41.625 27.25 41.574219 C 27.324219 41.53125 27.390625 41.476562 27.445312 41.410156 C 27.496094 41.351562 27.558594 41.300781 27.628906 41.257812 C 27.671875 41.234375 27.710938 41.210938 27.710938 41.203125 C 27.710938 41.195312 27.753906 41.15625 27.804688 41.121094 C 27.839844 41.097656 27.871094 41.074219 27.898438 41.042969 C 27.898438 41.015625 28.058594 40.847656 28.101562 40.824219 C 28.128906 40.8125 28.152344 40.789062 28.167969 40.765625 C 28.222656 40.671875 28.292969 40.59375 28.375 40.53125 C 28.425781 40.484375 28.464844 40.425781 28.488281 40.363281 C 28.511719 40.308594 28.546875 40.257812 28.585938 40.214844 C 28.625 40.199219 28.679688 40.101562 28.699219 40.019531 C 28.71875 39.964844 28.746094 39.914062 28.777344 39.867188 C 28.859375 39.730469 28.910156 39.570312 28.917969 39.40625 C 28.917969 39.324219 28.917969 39.320312 29.046875 39.183594 L 29.199219 39.027344 C 29.242188 38.984375 29.285156 38.941406 29.328125 38.902344 C 29.367188 38.867188 29.398438 38.828125 29.429688 38.789062 C 29.429688 38.78125 29.414062 38.761719 29.390625 38.75 C 29.355469 38.722656 29.351562 38.710938 29.359375 38.648438 L 29.371094 38.574219 L 29.316406 38.585938 C 29.289062 38.59375 29.261719 38.609375 29.242188 38.625 C 29.203125 38.65625 29.191406 38.65625 29.109375 38.613281 C 29.050781 38.585938 29.03125 38.570312 29.03125 38.539062 C 29.03125 38.484375 29.101562 38.414062 29.160156 38.398438 C 29.199219 38.382812 29.226562 38.355469 29.25 38.324219 C 29.273438 38.285156 29.304688 38.253906 29.320312 38.253906 C 29.335938 38.253906 29.359375 38.230469 29.382812 38.203125 C 29.402344 38.171875 29.433594 38.148438 29.46875 38.128906 C 29.578125 38.089844 29.609375 37.972656 29.515625 37.941406 C 29.453125 37.917969 29.445312 37.851562 29.503906 37.820312 C 29.582031 37.757812 29.652344 37.695312 29.71875 37.625 C 29.777344 37.550781 29.851562 37.488281 29.933594 37.441406 C 29.957031 37.4375 29.976562 37.417969 29.976562 37.40625 C 29.988281 37.367188 29.941406 37.367188 29.902344 37.410156 C 29.886719 37.425781 29.863281 37.445312 29.851562 37.445312 C 29.84375 37.445312 29.816406 37.464844 29.796875 37.484375 C 29.777344 37.511719 29.746094 37.527344 29.730469 37.527344 C 29.691406 37.539062 29.660156 37.558594 29.628906 37.582031 C 29.429688 37.730469 29.410156 37.738281 29.371094 37.726562 C 29.339844 37.71875 29.304688 37.730469 29.246094 37.769531 C 29.15625 37.828125 29.105469 37.828125 29.105469 37.769531 C 29.105469 37.742188 29.1875 37.671875 29.363281 37.554688 C 29.410156 37.523438 29.457031 37.484375 29.5 37.441406 C 29.546875 37.398438 29.597656 37.355469 29.648438 37.3125 C 29.703125 37.273438 29.753906 37.226562 29.800781 37.179688 C 29.84375 37.128906 29.90625 37.089844 29.96875 37.074219 C 30.035156 37.058594 30.078125 37.035156 30.09375 37 C 30.195312 36.859375 30.320312 36.738281 30.464844 36.644531 C 30.621094 36.53125 30.765625 36.40625 30.894531 36.265625 C 30.941406 36.226562 30.992188 36.191406 31.046875 36.160156 C 31.105469 36.128906 31.160156 36.082031 31.199219 36.027344 C 31.226562 35.988281 31.261719 35.957031 31.304688 35.929688 C 31.464844 35.8125 31.613281 35.675781 31.746094 35.527344 C 31.746094 35.503906 32.011719 35.253906 32.03125 35.253906 C 32.140625 35.167969 32.238281 35.070312 32.320312 34.960938 C 32.382812 34.871094 32.40625 34.847656 32.472656 34.820312 C 32.546875 34.769531 32.609375 34.699219 32.648438 34.617188 C 32.65625 34.597656 32.6875 34.566406 32.722656 34.550781 C 32.753906 34.535156 32.78125 34.511719 32.796875 34.480469 C 32.824219 34.4375 32.855469 34.40625 32.894531 34.378906 C 32.933594 34.347656 32.972656 34.3125 33 34.269531 C 33.054688 34.191406 33.121094 34.125 33.199219 34.070312 C 33.246094 34.03125 33.289062 33.984375 33.324219 33.929688 C 33.351562 33.875 33.394531 33.828125 33.449219 33.792969 C 33.492188 33.761719 33.527344 33.726562 33.558594 33.683594 C 33.582031 33.644531 33.609375 33.605469 33.640625 33.570312 C 33.738281 33.496094 33.828125 33.40625 33.910156 33.308594 C 33.972656 33.210938 34.050781 33.128906 34.148438 33.066406 C 34.1875 33.039062 34.222656 33.007812 34.25 32.96875 C 34.261719 32.9375 34.28125 32.914062 34.304688 32.890625 C 34.476562 32.726562 34.664062 32.582031 34.863281 32.460938 C 34.90625 32.441406 34.941406 32.414062 34.96875 32.382812 C 34.996094 32.351562 35.03125 32.324219 35.046875 32.324219 C 35.0625 32.324219 35.082031 32.296875 35.105469 32.269531 C 35.136719 32.214844 35.257812 32.136719 35.3125 32.136719 C 35.34375 32.121094 35.371094 32.101562 35.394531 32.078125 C 35.429688 32.046875 35.472656 32.015625 35.515625 31.992188 C 35.542969 31.980469 35.566406 31.957031 35.578125 31.933594 C 35.589844 31.90625 35.609375 31.882812 35.632812 31.863281 C 35.71875 31.792969 35.691406 31.675781 35.59375 31.71875 C 35.492188 31.738281 35.390625 31.746094 35.289062 31.738281 C 35.175781 31.730469 35.0625 31.738281 34.957031 31.769531 C 34.832031 31.8125 34.707031 31.839844 34.578125 31.851562 C 34.496094 31.859375 34.457031 31.875 34.425781 31.902344 C 34.386719 31.945312 34.292969 31.964844 34.011719 32 C 33.898438 32.015625 33.785156 32.035156 33.675781 32.058594 C 33.46875 32.105469 33.261719 32.136719 33.054688 32.15625 C 32.640625 32.195312 32.472656 32.230469 32.410156 32.277344 C 32.269531 32.320312 32.121094 32.339844 31.96875 32.332031 C 31.738281 32.332031 31.601562 32.308594 31.554688 32.257812 C 31.476562 32.199219 31.390625 32.15625 31.296875 32.128906 C 31.265625 32.121094 31.238281 32.097656 31.222656 32.066406 C 31.082031 31.929688 30.976562 31.765625 30.902344 31.585938 C 30.902344 31.570312 30.890625 31.542969 30.871094 31.527344 C 30.777344 31.339844 30.722656 31.132812 30.707031 30.921875 C 30.695312 30.855469 30.671875 30.792969 30.644531 30.730469 C 30.621094 30.683594 30.605469 30.632812 30.59375 30.578125 C 30.59375 30.519531 30.644531 30.398438 30.691406 30.339844 C 30.710938 30.320312 30.722656 30.296875 30.730469 30.273438 C 30.730469 30.226562 30.839844 30.089844 30.894531 30.066406 C 30.925781 30.050781 30.957031 30.027344 30.957031 30.019531 C 31.070312 29.882812 31.199219 29.757812 31.339844 29.644531 C 31.367188 29.632812 31.386719 29.609375 31.402344 29.582031 C 31.417969 29.539062 31.535156 29.449219 31.582031 29.449219 C 31.625 29.433594 31.660156 29.40625 31.695312 29.375 C 31.726562 29.339844 31.765625 29.316406 31.808594 29.296875 C 31.824219 29.296875 31.84375 29.269531 31.863281 29.246094 C 31.953125 29.148438 32.0625 29.074219 32.183594 29.027344 C 32.246094 28.996094 32.304688 28.957031 32.359375 28.914062 C 32.449219 28.832031 32.550781 28.769531 32.660156 28.722656 C 32.738281 28.6875 32.808594 28.632812 32.867188 28.570312 C 32.917969 28.519531 32.972656 28.46875 33.035156 28.429688 C 33.070312 28.40625 33.101562 28.382812 33.125 28.347656 C 33.152344 28.320312 33.183594 28.296875 33.222656 28.28125 C 33.261719 28.261719 33.296875 28.238281 33.296875 28.226562 C 33.296875 28.199219 33.371094 28.089844 33.402344 28.082031 C 33.476562 28.027344 33.546875 27.964844 33.609375 27.898438 C 33.6875 27.824219 33.765625 27.75 33.851562 27.683594 C 33.910156 27.636719 33.964844 27.582031 34.011719 27.519531 C 34.042969 27.472656 34.085938 27.433594 34.132812 27.402344 C 34.175781 27.378906 34.21875 27.347656 34.253906 27.3125 C 34.285156 27.28125 34.324219 27.25 34.367188 27.226562 C 34.375 27.226562 34.390625 27.203125 34.402344 27.171875 C 34.429688 27.117188 34.507812 27.042969 34.65625 26.945312 C 34.699219 26.917969 34.734375 26.878906 34.757812 26.832031 C 34.773438 26.800781 34.796875 26.78125 34.820312 26.78125 C 34.839844 26.78125 34.886719 26.742188 34.933594 26.699219 C 34.964844 26.660156 35 26.628906 35.042969 26.601562 C 35.058594 26.59375 35.074219 26.578125 35.082031 26.5625 C 35.136719 26.472656 35.214844 26.398438 35.308594 26.351562 C 35.394531 26.308594 35.414062 26.289062 35.492188 26.1875 C 35.578125 26.082031 35.683594 25.992188 35.796875 25.921875 C 35.84375 25.894531 35.882812 25.855469 35.914062 25.808594 C 35.929688 25.777344 35.957031 25.75 35.992188 25.734375 C 36.023438 25.71875 36.050781 25.695312 36.070312 25.664062 C 36.089844 25.636719 36.117188 25.613281 36.144531 25.597656 C 36.199219 25.5625 36.25 25.519531 36.296875 25.472656 C 36.347656 25.417969 36.402344 25.371094 36.464844 25.324219 C 36.539062 25.273438 36.605469 25.214844 36.671875 25.152344 C 36.734375 25.082031 36.808594 25.023438 36.890625 24.976562 C 36.945312 24.957031 36.980469 24.933594 36.980469 24.925781 C 36.980469 24.898438 37.167969 24.71875 37.214844 24.691406 C 37.246094 24.675781 37.277344 24.65625 37.300781 24.628906 C 37.328125 24.605469 37.355469 24.585938 37.390625 24.570312 C 37.464844 24.535156 37.519531 24.492188 37.519531 24.457031 C 37.519531 24.4375 37.53125 24.417969 37.554688 24.410156 C 37.589844 24.398438 37.621094 24.378906 37.644531 24.355469 C 37.683594 24.320312 37.726562 24.289062 37.769531 24.261719 C 37.808594 24.238281 37.839844 24.207031 37.867188 24.171875 C 37.875 24.148438 37.910156 24.121094 37.945312 24.105469 C 37.996094 24.082031 38.042969 24.054688 38.085938 24.019531 C 38.128906 23.984375 38.179688 23.957031 38.230469 23.9375 C 38.289062 23.921875 38.339844 23.890625 38.382812 23.851562 C 38.410156 23.824219 38.4375 23.804688 38.464844 23.785156 C 38.5 23.769531 38.535156 23.75 38.566406 23.730469 C 38.597656 23.707031 38.636719 23.691406 38.679688 23.679688 C 38.742188 23.664062 38.800781 23.640625 38.859375 23.609375 C 38.9375 23.570312 39.019531 23.535156 39.101562 23.503906 C 39.160156 23.480469 39.214844 23.449219 39.265625 23.414062 L 39.425781 23.277344 C 39.46875 23.242188 39.511719 23.210938 39.5625 23.191406 C 39.609375 23.167969 39.652344 23.140625 39.691406 23.101562 C 39.722656 23.074219 39.753906 23.050781 39.789062 23.027344 C 39.796875 23.027344 39.808594 23.007812 39.820312 22.988281 C 39.832031 22.964844 39.867188 22.9375 39.921875 22.917969 C 39.976562 22.898438 40.011719 22.875 40.027344 22.847656 C 40.050781 22.796875 40.113281 22.769531 40.132812 22.800781 C 40.152344 22.835938 40.132812 22.886719 40.09375 22.910156 C 40.074219 22.921875 40.050781 22.9375 40.035156 22.957031 C 40.003906 22.992188 40.007812 23.0625 40.039062 23.0625 C 40.085938 23.0625 40.152344 23.007812 40.152344 22.976562 C 40.152344 22.957031 40.171875 22.925781 40.199219 22.910156 C 40.230469 22.890625 40.257812 22.867188 40.285156 22.84375 C 40.332031 22.792969 40.375 22.789062 40.375 22.84375 C 40.375 22.863281 40.390625 22.902344 40.414062 22.933594 L 40.449219 22.992188 L 40.523438 22.949219 C 40.574219 22.917969 40.636719 22.902344 40.699219 22.90625 C 40.828125 22.90625 40.863281 22.933594 40.839844 23.011719 C 40.808594 23.121094 40.824219 23.136719 40.902344 23.078125 C 40.941406 23.050781 40.964844 23.046875 41.054688 23.058594 C 41.148438 23.070312 41.15625 23.074219 41.164062 23.113281 C 41.164062 23.152344 41.152344 23.171875 41.105469 23.210938 C 41.019531 23.277344 40.9375 23.355469 40.867188 23.441406 C 40.84375 23.464844 40.820312 23.488281 40.792969 23.507812 C 40.644531 23.621094 40.617188 23.652344 40.617188 23.679688 C 40.617188 23.691406 40.640625 23.726562 40.667969 23.753906 C 40.746094 23.808594 40.730469 23.867188 40.632812 23.917969 C 40.585938 23.949219 40.546875 23.984375 40.511719 24.027344 C 40.488281 24.054688 40.457031 24.082031 40.425781 24.101562 C 40.378906 24.121094 40.339844 24.160156 40.339844 24.199219 C 40.339844 24.246094 40.390625 24.238281 40.414062 24.191406 C 40.429688 24.15625 40.519531 24.109375 40.675781 24.039062 C 40.707031 24.03125 40.734375 24.011719 40.753906 23.988281 C 40.765625 23.96875 40.789062 23.957031 40.828125 23.957031 C 40.867188 23.957031 40.902344 23.941406 40.941406 23.90625 C 41 23.851562 41.0625 23.839844 41.078125 23.882812 C 41.085938 23.90625 41.003906 23.988281 40.820312 24.144531 C 40.679688 24.265625 40.667969 24.28125 40.667969 24.296875 C 40.636719 24.332031 40.59375 24.359375 40.550781 24.378906 C 40.480469 24.417969 40.421875 24.460938 40.417969 24.480469 C 40.394531 24.546875 40.277344 24.644531 40.191406 24.671875 C 40.089844 24.703125 40.066406 24.726562 40.023438 24.859375 C 39.988281 24.960938 39.949219 24.996094 39.820312 25.042969 C 39.785156 25.054688 39.753906 25.078125 39.730469 25.105469 C 39.707031 25.132812 39.679688 25.152344 39.644531 25.167969 C 39.589844 25.203125 39.539062 25.246094 39.496094 25.296875 C 39.457031 25.339844 39.410156 25.378906 39.363281 25.410156 C 39.324219 25.429688 39.292969 25.460938 39.269531 25.496094 C 39.230469 25.539062 39.183594 25.574219 39.132812 25.597656 C 39.082031 25.613281 39.046875 25.648438 39.03125 25.695312 C 39.007812 25.75 38.992188 25.765625 38.953125 25.765625 C 38.917969 25.765625 38.824219 25.835938 38.824219 25.871094 C 38.765625 25.976562 38.683594 26.070312 38.582031 26.144531 C 38.539062 26.167969 38.515625 26.191406 38.515625 26.214844 C 38.515625 26.25 38.40625 26.363281 38.371094 26.363281 C 38.328125 26.363281 38.222656 26.402344 38.222656 26.421875 C 38.171875 26.503906 38.109375 26.574219 38.03125 26.625 C 38.003906 26.640625 37.976562 26.664062 37.964844 26.695312 C 37.945312 26.730469 37.917969 26.753906 37.878906 26.769531 C 37.832031 26.792969 37.785156 26.832031 37.753906 26.875 C 37.679688 26.964844 37.679688 26.964844 37.707031 27.03125 C 37.730469 27.085938 37.667969 27.21875 37.578125 27.292969 C 37.554688 27.3125 37.535156 27.335938 37.519531 27.363281 C 37.519531 27.375 37.503906 27.386719 37.488281 27.394531 C 37.46875 27.398438 37.4375 27.429688 37.410156 27.46875 C 37.359375 27.542969 37.296875 27.609375 37.230469 27.667969 C 37.164062 27.722656 37.109375 27.789062 37.0625 27.859375 C 37.011719 27.945312 36.941406 28.019531 36.855469 28.078125 C 36.8125 28.109375 36.777344 28.152344 36.75 28.203125 C 36.734375 28.238281 36.707031 28.265625 36.675781 28.285156 C 36.632812 28.316406 36.597656 28.355469 36.574219 28.398438 C 36.503906 28.492188 36.429688 28.578125 36.347656 28.664062 C 36.226562 28.78125 36.117188 28.90625 36.019531 29.042969 C 35.980469 29.085938 35.945312 29.128906 35.90625 29.171875 C 35.855469 29.238281 35.847656 29.324219 35.894531 29.339844 C 35.929688 29.351562 35.96875 29.367188 36.007812 29.382812 C 36.074219 29.414062 36.085938 29.414062 36.132812 29.390625 C 36.265625 29.347656 36.40625 29.320312 36.546875 29.3125 C 36.703125 29.304688 36.863281 29.273438 37.011719 29.222656 C 37.105469 29.179688 37.445312 29.15625 38.023438 29.15625 C 38.535156 29.15625 38.640625 29.167969 38.695312 29.230469 C 38.734375 29.261719 38.777344 29.289062 38.820312 29.304688 C 38.945312 29.351562 39.15625 29.515625 39.15625 29.570312 C 39.273438 29.785156 39.359375 30.019531 39.410156 30.257812 C 39.410156 30.277344 39.429688 30.328125 39.457031 30.375 C 39.496094 30.449219 39.496094 30.46875 39.484375 30.53125 C 39.472656 30.574219 39.449219 30.617188 39.421875 30.65625 C 39.398438 30.679688 39.378906 30.710938 39.367188 30.746094 C 39.359375 30.773438 39.34375 30.796875 39.328125 30.820312 C 39.304688 30.855469 39.285156 30.894531 39.273438 30.9375 C 39.261719 30.992188 39.234375 31.046875 39.199219 31.089844 C 39.164062 31.128906 39.132812 31.175781 39.105469 31.226562 C 39.070312 31.300781 39.050781 31.324219 38.898438 31.476562 C 38.863281 31.503906 38.835938 31.542969 38.8125 31.585938 C 38.78125 31.640625 38.742188 31.691406 38.691406 31.734375 C 38.636719 31.789062 38.585938 31.851562 38.542969 31.914062 C 38.515625 31.949219 38.484375 31.980469 38.472656 31.980469 C 38.457031 31.980469 38.421875 32.011719 38.390625 32.050781 C 38.359375 32.085938 38.320312 32.117188 38.277344 32.136719 C 38.238281 32.152344 38.214844 32.175781 38.1875 32.230469 C 38.152344 32.296875 38.097656 32.351562 38.035156 32.394531 C 37.988281 32.425781 37.941406 32.464844 37.894531 32.503906 C 37.871094 32.523438 37.847656 32.542969 37.820312 32.554688 C 37.777344 32.582031 37.738281 32.621094 37.707031 32.660156 C 37.671875 32.707031 37.628906 32.742188 37.582031 32.765625 C 37.542969 32.785156 37.519531 32.808594 37.519531 32.828125 C 37.519531 32.847656 37.507812 32.859375 37.496094 32.859375 C 37.464844 32.859375 37.410156 32.910156 37.382812 32.960938 C 37.359375 32.988281 37.328125 33.011719 37.292969 33.023438 C 37.238281 33.050781 37.1875 33.085938 37.136719 33.121094 C 37.089844 33.15625 37.042969 33.191406 36.996094 33.222656 C 36.972656 33.238281 36.953125 33.261719 36.941406 33.289062 C 36.9375 33.308594 36.910156 33.328125 36.882812 33.339844 C 36.847656 33.359375 36.816406 33.378906 36.785156 33.40625 C 36.742188 33.441406 36.695312 33.46875 36.644531 33.492188 C 36.585938 33.519531 36.550781 33.550781 36.535156 33.582031 C 36.519531 33.613281 36.492188 33.640625 36.460938 33.652344 C 36.417969 33.671875 36.378906 33.695312 36.347656 33.726562 C 36.308594 33.761719 36.269531 33.785156 36.222656 33.800781 C 36.199219 33.800781 36.175781 33.808594 36.15625 33.820312 C 36.03125 33.941406 35.890625 34.050781 35.742188 34.144531 C 35.648438 34.199219 35.59375 34.246094 35.585938 34.269531 C 35.558594 34.3125 35.519531 34.347656 35.476562 34.375 C 35.429688 34.402344 35.386719 34.433594 35.34375 34.472656 C 35.3125 34.503906 35.273438 34.527344 35.230469 34.546875 C 35.195312 34.566406 35.15625 34.59375 35.15625 34.609375 C 35.15625 34.617188 35.128906 34.652344 35.09375 34.683594 C 35.054688 34.71875 35.011719 34.753906 34.972656 34.792969 C 34.9375 34.828125 34.898438 34.859375 34.851562 34.882812 C 34.820312 34.898438 34.785156 34.929688 34.777344 34.949219 C 34.726562 35.027344 34.652344 35.09375 34.570312 35.136719 C 34.527344 35.164062 34.488281 35.199219 34.457031 35.238281 C 34.351562 35.371094 34.226562 35.488281 34.082031 35.578125 C 34.050781 35.59375 34.023438 35.617188 34.007812 35.648438 C 33.984375 35.699219 33.53125 36.136719 33.449219 36.195312 C 33.40625 36.226562 33.371094 36.261719 33.34375 36.308594 C 33.257812 36.425781 33.164062 36.535156 33.058594 36.632812 L 32.660156 37.035156 C 32.613281 37.089844 32.558594 37.140625 32.5 37.183594 C 32.460938 37.183594 32.316406 37.316406 32.273438 37.402344 C 32.246094 37.4375 32.21875 37.476562 32.210938 37.476562 C 32.167969 37.5 32.128906 37.53125 32.09375 37.566406 C 31.992188 37.664062 31.882812 37.753906 31.765625 37.835938 C 31.71875 37.90625 31.660156 37.96875 31.59375 38.023438 C 31.542969 38.078125 31.488281 38.128906 31.4375 38.183594 C 31.402344 38.21875 31.363281 38.25 31.324219 38.273438 C 31.28125 38.300781 31.25 38.335938 31.230469 38.378906 C 31.199219 38.4375 31.15625 38.488281 31.105469 38.527344 C 31.070312 38.550781 31.035156 38.578125 31.003906 38.605469 C 30.914062 38.695312 30.824219 38.78125 30.738281 38.871094 C 30.6875 38.921875 30.636719 38.976562 30.59375 39.035156 C 30.554688 39.085938 30.507812 39.132812 30.453125 39.171875 C 30.316406 39.289062 30.191406 39.414062 30.078125 39.550781 C 30.050781 39.582031 30.023438 39.605469 29.988281 39.625 C 29.953125 39.652344 29.921875 39.679688 29.921875 39.691406 C 29.851562 39.789062 29.765625 39.871094 29.667969 39.941406 C 29.632812 39.960938 29.605469 39.996094 29.59375 40.035156 C 29.570312 40.109375 29.515625 40.175781 29.46875 40.1875 C 29.371094 40.261719 29.28125 40.347656 29.195312 40.4375 C 29.117188 40.523438 29.03125 40.605469 28.941406 40.675781 C 28.929688 40.675781 28.914062 40.699219 28.898438 40.730469 C 28.875 40.769531 28.839844 40.796875 28.800781 40.8125 C 28.757812 40.832031 28.722656 40.855469 28.6875 40.886719 C 28.660156 40.914062 28.621094 40.941406 28.582031 40.957031 C 28.53125 40.976562 28.507812 40.996094 28.507812 41.019531 C 28.507812 41.058594 28.410156 41.140625 28.367188 41.140625 C 28.347656 41.140625 28.324219 41.15625 28.304688 41.175781 C 28.253906 41.21875 28.199219 41.261719 28.140625 41.296875 C 28.082031 41.335938 28.027344 41.378906 27.984375 41.433594 C 27.945312 41.480469 27.894531 41.515625 27.839844 41.539062 C 27.78125 41.566406 27.730469 41.597656 27.679688 41.632812 C 27.648438 41.660156 27.613281 41.683594 27.574219 41.703125 C 27.542969 41.71875 27.515625 41.742188 27.5 41.773438 C 27.476562 41.804688 27.449219 41.832031 27.410156 41.84375 C 27.367188 41.863281 27.328125 41.890625 27.289062 41.921875 C 27.25 41.953125 27.203125 41.976562 27.15625 41.988281 C 27.097656 42.003906 27.066406 42.027344 27.050781 42.058594 C 27.011719 42.097656 26.96875 42.132812 26.917969 42.152344 C 26.867188 42.175781 26.816406 42.203125 26.769531 42.230469 C 26.730469 42.25 26.691406 42.261719 26.648438 42.269531 C 26.585938 42.28125 26.566406 42.277344 26.542969 42.25 Z M 40.292969 24.308594 C 40.300781 24.292969 40.300781 24.277344 40.292969 24.269531 C 40.28125 24.261719 40.214844 24.289062 40.214844 24.3125 C 40.214844 24.351562 40.277344 24.34375 40.292969 24.3125 Z M 11.226562 39.34375 C 11.175781 39.328125 11.132812 39.296875 11.097656 39.261719 C 11.03125 39.195312 11.019531 39.175781 11.019531 39.109375 C 11.019531 39.042969 11.011719 39.035156 10.957031 39.003906 C 10.894531 38.972656 10.890625 38.972656 10.863281 39 C 10.839844 39.035156 10.820312 39.070312 10.8125 39.113281 C 10.792969 39.1875 10.785156 39.1875 10.730469 39.191406 C 10.691406 39.195312 10.65625 39.207031 10.625 39.230469 C 10.570312 39.269531 10.546875 39.269531 10.511719 39.214844 C 10.484375 39.175781 10.414062 39.171875 10.371094 39.210938 C 10.351562 39.226562 10.328125 39.242188 10.300781 39.25 C 10.28125 39.25 10.242188 39.261719 10.21875 39.265625 C 10.191406 39.273438 10.183594 39.265625 10.167969 39.226562 C 10.152344 39.195312 10.125 39.171875 10.09375 39.160156 C 10.042969 39.140625 10.039062 39.125 10.042969 39.039062 C 10.050781 38.96875 10.078125 38.910156 10.191406 38.761719 C 10.253906 38.6875 10.285156 38.621094 10.285156 38.589844 C 10.285156 38.5625 10.308594 38.519531 10.355469 38.472656 C 10.394531 38.4375 10.421875 38.382812 10.421875 38.359375 C 10.421875 38.34375 10.449219 38.285156 10.484375 38.242188 C 10.511719 38.203125 10.539062 38.160156 10.558594 38.113281 C 10.589844 38.046875 10.625 37.980469 10.660156 37.917969 L 10.753906 37.753906 C 10.792969 37.679688 10.839844 37.613281 10.890625 37.550781 C 10.9375 37.503906 10.976562 37.449219 10.976562 37.429688 C 10.976562 37.410156 10.980469 37.394531 10.988281 37.382812 C 11.007812 37.34375 11.027344 37.304688 11.042969 37.265625 C 11.070312 37.199219 11.109375 37.136719 11.15625 37.078125 C 11.230469 36.996094 11.289062 36.894531 11.328125 36.789062 C 11.347656 36.746094 11.375 36.707031 11.40625 36.675781 C 11.4375 36.648438 11.457031 36.613281 11.472656 36.578125 C 11.480469 36.546875 11.492188 36.523438 11.511719 36.5 C 11.542969 36.457031 11.574219 36.410156 11.59375 36.359375 C 11.628906 36.292969 11.667969 36.230469 11.714844 36.175781 C 11.765625 36.121094 11.804688 36.058594 11.820312 35.988281 C 11.839844 35.921875 11.871094 35.859375 11.910156 35.804688 C 11.941406 35.761719 11.96875 35.714844 11.988281 35.664062 C 12.023438 35.574219 12.078125 35.488281 12.144531 35.414062 C 12.167969 35.386719 12.183594 35.359375 12.195312 35.324219 C 12.226562 35.253906 12.261719 35.183594 12.300781 35.117188 C 12.335938 35.0625 12.363281 35.003906 12.386719 34.941406 C 12.386719 34.921875 12.40625 34.875 12.4375 34.839844 C 12.46875 34.789062 12.496094 34.734375 12.511719 34.675781 C 12.527344 34.632812 12.550781 34.59375 12.582031 34.5625 C 12.617188 34.539062 12.652344 34.472656 12.757812 34.253906 C 12.78125 34.207031 12.8125 34.164062 12.847656 34.125 C 12.875 34.09375 12.898438 34.054688 12.910156 34.015625 L 12.929688 33.914062 C 12.945312 33.867188 12.96875 33.828125 13 33.792969 C 13.0625 33.714844 13.109375 33.621094 13.109375 33.570312 C 13.113281 33.550781 13.121094 33.53125 13.132812 33.519531 C 13.183594 33.445312 13.226562 33.367188 13.253906 33.28125 C 13.269531 33.246094 13.292969 33.214844 13.320312 33.1875 C 13.386719 33.109375 13.429688 33.019531 13.445312 32.917969 C 13.457031 32.867188 13.480469 32.816406 13.515625 32.773438 C 13.539062 32.75 13.558594 32.71875 13.574219 32.6875 C 13.574219 32.648438 13.691406 32.421875 13.738281 32.375 C 13.765625 32.339844 13.785156 32.300781 13.796875 32.261719 C 13.808594 32.222656 13.820312 32.1875 13.828125 32.183594 C 13.890625 32.054688 13.953125 31.921875 14.019531 31.789062 C 14.03125 31.761719 14.046875 31.734375 14.0625 31.710938 C 14.09375 31.667969 14.113281 31.621094 14.128906 31.570312 C 14.136719 31.527344 14.15625 31.488281 14.183594 31.457031 C 14.25 31.386719 14.296875 31.308594 14.324219 31.21875 C 14.351562 31.128906 14.402344 31.050781 14.464844 30.984375 C 14.488281 30.953125 14.507812 30.921875 14.519531 30.886719 C 14.519531 30.847656 14.558594 30.804688 14.691406 30.691406 C 14.75 30.644531 14.796875 30.582031 14.832031 30.515625 C 14.851562 30.460938 14.890625 30.414062 14.9375 30.378906 C 14.984375 30.347656 15.003906 30.316406 15.035156 30.214844 C 15.066406 30.128906 15.085938 30.085938 15.121094 30.074219 C 15.179688 30.015625 15.222656 29.945312 15.246094 29.863281 C 15.246094 29.839844 15.367188 29.65625 15.394531 29.648438 C 15.410156 29.644531 15.417969 29.628906 15.417969 29.613281 C 15.417969 29.589844 15.441406 29.535156 15.535156 29.363281 C 15.5625 29.3125 15.582031 29.261719 15.601562 29.207031 C 15.621094 29.140625 15.648438 29.078125 15.675781 29.015625 C 15.707031 28.953125 15.730469 28.890625 15.753906 28.824219 C 15.765625 28.785156 15.785156 28.746094 15.8125 28.710938 C 15.855469 28.640625 15.890625 28.5625 15.914062 28.480469 C 15.941406 28.394531 15.972656 28.3125 16.007812 28.230469 C 16.019531 28.167969 16.039062 28.125 16.054688 28.125 C 16.0625 28.125 16.078125 28.101562 16.09375 28.066406 C 16.101562 28.027344 16.117188 27.992188 16.128906 27.957031 C 16.148438 27.914062 16.15625 27.871094 16.15625 27.828125 C 16.160156 27.773438 16.171875 27.71875 16.191406 27.667969 C 16.207031 27.632812 16.230469 27.554688 16.234375 27.503906 C 16.238281 27.449219 16.253906 27.402344 16.261719 27.402344 C 16.28125 27.402344 16.363281 27.234375 16.363281 27.191406 C 16.363281 27.125 16.472656 26.824219 16.507812 26.796875 C 16.609375 26.710938 16.679688 26.632812 16.695312 26.578125 C 16.703125 26.542969 16.722656 26.511719 16.75 26.492188 C 16.777344 26.476562 16.800781 26.453125 16.816406 26.421875 C 16.828125 26.390625 16.84375 26.367188 16.867188 26.34375 C 16.898438 26.308594 16.921875 26.273438 16.941406 26.234375 C 16.988281 26.15625 17.039062 26.078125 17.089844 26.007812 C 17.132812 25.949219 17.167969 25.890625 17.191406 25.824219 C 17.191406 25.804688 17.210938 25.765625 17.234375 25.738281 C 17.253906 25.71875 17.269531 25.695312 17.28125 25.667969 C 17.28125 25.65625 17.292969 25.632812 17.308594 25.609375 C 17.335938 25.574219 17.355469 25.535156 17.371094 25.496094 C 17.382812 25.457031 17.402344 25.421875 17.429688 25.394531 C 17.503906 25.292969 17.5625 25.183594 17.605469 25.070312 C 17.605469 25.0625 17.632812 25.011719 17.671875 24.960938 C 17.710938 24.914062 17.738281 24.855469 17.746094 24.796875 C 17.753906 24.753906 17.769531 24.714844 17.777344 24.710938 C 17.824219 24.648438 17.859375 24.578125 17.878906 24.5 C 17.878906 24.488281 17.898438 24.457031 17.917969 24.433594 C 17.988281 24.34375 18.046875 24.246094 18.089844 24.140625 C 18.09375 24.125 18.117188 24.097656 18.144531 24.082031 C 18.179688 24.0625 18.21875 24.007812 18.265625 23.914062 C 18.316406 23.820312 18.382812 23.730469 18.464844 23.660156 C 18.597656 23.535156 18.722656 23.402344 18.839844 23.261719 C 18.863281 23.230469 18.890625 23.207031 18.925781 23.195312 C 18.992188 23.179688 19.019531 23.15625 19.019531 23.105469 C 19.019531 23.070312 19.027344 23.066406 19.09375 23.054688 C 19.15625 23.046875 19.191406 23.027344 19.246094 22.972656 C 19.335938 22.875 19.332031 22.832031 19.226562 22.761719 C 19.125 22.691406 19.109375 22.632812 19.1875 22.601562 C 19.257812 22.578125 19.355469 22.578125 19.394531 22.601562 C 19.449219 22.628906 19.496094 22.589844 19.546875 22.488281 C 19.570312 22.433594 19.597656 22.382812 19.628906 22.332031 C 19.65625 22.296875 19.675781 22.257812 19.691406 22.21875 C 19.710938 22.167969 19.742188 22.121094 19.78125 22.078125 C 19.828125 22.03125 19.863281 21.972656 19.894531 21.914062 C 19.9375 21.816406 20.027344 21.722656 20.070312 21.722656 C 20.113281 21.722656 20.125 21.785156 20.097656 21.863281 C 20.023438 22.066406 20.023438 22.117188 20.074219 22.117188 C 20.109375 22.117188 20.21875 22.003906 20.230469 21.953125 C 20.246094 21.898438 20.28125 21.878906 20.316406 21.910156 C 20.355469 21.945312 20.347656 21.984375 20.289062 22.015625 C 20.238281 22.039062 20.230469 22.050781 20.226562 22.121094 C 20.222656 22.183594 20.226562 22.203125 20.246094 22.203125 C 20.28125 22.203125 20.359375 22.105469 20.359375 22.0625 C 20.359375 22.046875 20.375 22.019531 20.394531 22 C 20.414062 21.976562 20.429688 21.953125 20.4375 21.925781 C 20.449219 21.898438 20.460938 21.875 20.476562 21.855469 C 20.503906 21.820312 20.550781 21.816406 20.550781 21.835938 C 20.550781 21.84375 20.578125 21.867188 20.613281 21.894531 L 20.671875 21.933594 L 20.707031 21.894531 C 20.738281 21.867188 20.769531 21.847656 20.808594 21.832031 C 20.847656 21.820312 20.882812 21.804688 20.914062 21.78125 C 20.953125 21.742188 20.976562 21.757812 20.992188 21.839844 C 21.003906 21.921875 21.015625 21.925781 21.085938 21.867188 C 21.109375 21.847656 21.140625 21.832031 21.171875 21.824219 C 21.207031 21.820312 21.242188 21.816406 21.273438 21.804688 C 21.375 21.773438 21.390625 21.804688 21.34375 21.914062 C 21.324219 21.953125 21.300781 21.988281 21.269531 22.019531 C 21.238281 22.054688 21.207031 22.097656 21.1875 22.144531 C 21.164062 22.1875 21.136719 22.230469 21.105469 22.273438 C 21.050781 22.320312 21.011719 22.378906 20.984375 22.445312 C 20.933594 22.566406 20.933594 22.558594 21.027344 22.632812 C 21.074219 22.664062 21.078125 22.652344 20.972656 22.832031 C 20.941406 22.882812 20.914062 22.933594 20.886719 22.984375 C 20.871094 23.027344 20.84375 23.066406 20.8125 23.097656 C 20.773438 23.132812 20.761719 23.183594 20.78125 23.207031 C 20.804688 23.226562 20.859375 23.1875 20.867188 23.136719 C 20.875 23.105469 20.894531 23.078125 20.917969 23.054688 C 20.945312 23.027344 20.96875 23 20.988281 22.96875 C 21 22.941406 21.015625 22.917969 21.035156 22.894531 C 21.0625 22.875 21.085938 22.847656 21.109375 22.820312 C 21.132812 22.78125 21.167969 22.753906 21.1875 22.753906 C 21.207031 22.753906 21.253906 22.71875 21.296875 22.679688 C 21.335938 22.632812 21.382812 22.601562 21.398438 22.601562 C 21.445312 22.601562 21.4375 22.660156 21.378906 22.722656 C 21.3125 22.796875 21.253906 22.882812 21.203125 22.972656 C 21.191406 23 21.171875 23.023438 21.152344 23.046875 C 21.121094 23.082031 21.101562 23.117188 21.101562 23.132812 C 21.101562 23.148438 21.074219 23.183594 21.039062 23.214844 C 21.007812 23.242188 20.980469 23.28125 20.96875 23.324219 C 20.964844 23.347656 20.953125 23.375 20.945312 23.375 C 20.914062 23.375 20.914062 23.433594 20.945312 23.472656 C 20.964844 23.496094 20.984375 23.535156 20.984375 23.554688 C 20.984375 23.601562 21 23.628906 21.054688 23.648438 C 21.136719 23.679688 21.101562 23.765625 20.984375 23.804688 C 20.945312 23.816406 20.925781 23.835938 20.925781 23.863281 C 20.925781 23.925781 20.835938 24.070312 20.800781 24.066406 C 20.78125 24.066406 20.765625 24.0625 20.746094 24.058594 C 20.71875 24.054688 20.710938 24.070312 20.707031 24.136719 C 20.699219 24.183594 20.679688 24.234375 20.648438 24.269531 C 20.539062 24.402344 20.4375 24.542969 20.34375 24.6875 C 20.3125 24.738281 20.289062 24.792969 20.277344 24.847656 C 20.261719 24.902344 20.238281 24.953125 20.203125 25 C 20.179688 25.03125 20.164062 25.066406 20.15625 25.101562 C 20.136719 25.167969 20.117188 25.230469 20.089844 25.292969 C 20.066406 25.359375 20.046875 25.425781 20.027344 25.492188 C 20.015625 25.53125 19.996094 25.566406 19.96875 25.59375 C 19.941406 25.621094 19.910156 25.695312 19.882812 25.835938 C 19.875 25.875 19.863281 25.910156 19.839844 25.941406 C 19.828125 25.960938 19.816406 25.980469 19.808594 26.003906 L 19.757812 26.070312 C 19.730469 26.101562 19.707031 26.136719 19.695312 26.175781 C 19.65625 26.292969 19.597656 26.40625 19.523438 26.503906 C 19.5 26.527344 19.484375 26.5625 19.484375 26.582031 C 19.484375 26.59375 19.476562 26.613281 19.46875 26.617188 C 19.417969 26.6875 19.382812 26.765625 19.363281 26.847656 C 19.363281 26.867188 19.324219 26.933594 19.273438 27 C 19.234375 27.050781 19.199219 27.109375 19.175781 27.171875 C 19.171875 27.207031 19.160156 27.230469 19.152344 27.230469 C 19.144531 27.230469 19.132812 27.261719 19.117188 27.289062 C 19.101562 27.328125 19.074219 27.363281 19.039062 27.386719 C 19.003906 27.40625 18.984375 27.4375 18.964844 27.492188 C 18.949219 27.542969 18.925781 27.597656 18.898438 27.640625 C 18.875 27.667969 18.859375 27.699219 18.84375 27.730469 C 18.84375 27.738281 18.824219 27.765625 18.800781 27.792969 C 18.78125 27.8125 18.765625 27.839844 18.757812 27.867188 C 18.757812 27.90625 18.605469 28.125 18.574219 28.136719 C 18.5625 28.140625 18.542969 28.175781 18.53125 28.214844 C 18.519531 28.242188 18.5 28.273438 18.476562 28.296875 C 18.449219 28.332031 18.429688 28.375 18.414062 28.417969 C 18.390625 28.46875 18.367188 28.519531 18.339844 28.566406 C 18.316406 28.628906 18.300781 28.691406 18.296875 28.757812 C 18.273438 28.914062 18.214844 29.0625 18.132812 29.195312 C 18.09375 29.261719 18.0625 29.335938 18.035156 29.40625 C 18.035156 29.414062 18.015625 29.445312 17.992188 29.472656 C 17.96875 29.496094 17.953125 29.527344 17.949219 29.5625 C 17.949219 29.585938 17.921875 29.625 17.886719 29.660156 C 17.863281 29.679688 17.84375 29.707031 17.828125 29.734375 C 17.828125 29.746094 17.8125 29.773438 17.792969 29.792969 C 17.769531 29.828125 17.75 29.871094 17.746094 29.914062 C 17.738281 29.957031 17.71875 29.996094 17.6875 30.027344 C 17.617188 30.101562 17.558594 30.1875 17.515625 30.28125 C 17.492188 30.324219 17.460938 30.363281 17.421875 30.394531 C 17.378906 30.429688 17.34375 30.476562 17.316406 30.53125 C 17.304688 30.578125 17.28125 30.621094 17.128906 30.792969 C 17.097656 30.824219 17.070312 30.859375 17.050781 30.898438 C 17.046875 30.921875 17.023438 30.953125 16.992188 30.96875 C 16.960938 30.984375 16.9375 31.007812 16.921875 31.035156 C 16.910156 31.058594 16.894531 31.078125 16.875 31.09375 C 16.820312 31.148438 16.769531 31.207031 16.722656 31.269531 C 16.679688 31.339844 16.625 31.398438 16.5625 31.445312 C 16.519531 31.457031 16.433594 31.566406 16.433594 31.605469 C 16.433594 31.640625 16.394531 31.679688 16.320312 31.714844 C 16.265625 31.742188 16.15625 31.90625 16.15625 31.957031 C 16.15625 32.011719 16.09375 32.117188 16.027344 32.164062 C 15.988281 32.191406 15.960938 32.234375 15.953125 32.285156 C 15.925781 32.351562 15.886719 32.417969 15.835938 32.46875 C 15.78125 32.527344 15.738281 32.59375 15.699219 32.664062 C 15.671875 32.722656 15.640625 32.777344 15.609375 32.832031 C 15.582031 32.871094 15.5625 32.910156 15.542969 32.953125 C 15.535156 32.980469 15.523438 33.003906 15.507812 33.027344 C 15.484375 33.050781 15.464844 33.078125 15.449219 33.105469 C 15.433594 33.132812 15.414062 33.15625 15.390625 33.179688 C 15.34375 33.230469 15.304688 33.285156 15.277344 33.34375 C 15.246094 33.410156 15.203125 33.472656 15.152344 33.523438 C 15.113281 33.554688 15.085938 33.601562 15.074219 33.652344 C 15.046875 33.757812 14.992188 33.851562 14.914062 33.925781 C 14.886719 33.949219 14.863281 33.976562 14.863281 33.988281 C 14.847656 34.035156 14.820312 34.078125 14.792969 34.121094 C 14.722656 34.21875 14.65625 34.320312 14.589844 34.421875 C 14.542969 34.488281 14.511719 34.558594 14.488281 34.632812 C 14.488281 34.648438 14.410156 34.753906 14.355469 34.820312 C 14.308594 34.867188 14.277344 34.921875 14.277344 34.960938 C 14.277344 34.972656 14.242188 35.035156 14.1875 35.085938 C 14.140625 35.132812 14.101562 35.1875 14.066406 35.242188 C 14.027344 35.34375 13.976562 35.4375 13.910156 35.523438 C 13.878906 35.5625 13.851562 35.609375 13.835938 35.660156 C 13.835938 35.675781 13.800781 35.71875 13.765625 35.753906 C 13.707031 35.804688 13.660156 35.871094 13.628906 35.941406 C 13.613281 35.972656 13.597656 36.007812 13.582031 36.039062 C 13.566406 36.078125 13.542969 36.113281 13.507812 36.136719 C 13.476562 36.160156 13.453125 36.195312 13.441406 36.234375 C 13.394531 36.367188 13.34375 36.460938 13.308594 36.476562 C 13.265625 36.507812 13.234375 36.554688 13.210938 36.601562 C 13.167969 36.710938 13.105469 36.8125 13.027344 36.898438 C 12.953125 36.960938 12.992188 37.0625 13.101562 37.0625 C 13.144531 37.0625 13.167969 37.054688 13.199219 37.011719 C 13.234375 36.957031 13.234375 36.957031 13.347656 36.96875 C 13.398438 36.976562 13.449219 36.980469 13.5 36.980469 L 13.765625 36.96875 L 14.003906 36.957031 L 14.050781 37.011719 C 14.074219 37.042969 14.105469 37.0625 14.113281 37.0625 C 14.121094 37.0625 14.136719 37.039062 14.152344 37.007812 C 14.179688 36.949219 14.1875 36.945312 14.273438 36.945312 C 14.351562 36.945312 14.371094 36.953125 14.390625 36.988281 C 14.421875 37.035156 14.460938 37.042969 14.484375 37.003906 C 14.511719 36.976562 14.542969 36.953125 14.582031 36.9375 C 14.65625 36.898438 14.695312 36.894531 14.828125 36.894531 C 14.882812 36.898438 14.9375 36.894531 14.992188 36.878906 C 15.003906 36.859375 15.128906 36.839844 15.207031 36.839844 C 15.246094 36.839844 15.285156 36.835938 15.320312 36.824219 C 15.367188 36.804688 15.382812 36.808594 15.433594 36.835938 C 15.511719 36.882812 15.539062 36.882812 15.636719 36.835938 C 15.710938 36.800781 15.765625 36.8125 15.785156 36.867188 C 15.800781 36.90625 16.050781 36.90625 16.089844 36.863281 C 16.121094 36.835938 16.125 36.835938 16.152344 36.863281 C 16.179688 36.886719 16.21875 36.894531 16.3125 36.894531 C 16.378906 36.894531 16.464844 36.902344 16.492188 36.917969 C 16.53125 36.933594 16.558594 36.9375 16.582031 36.925781 C 16.609375 36.914062 16.640625 36.910156 16.671875 36.917969 L 16.820312 36.941406 L 17.070312 36.976562 C 17.152344 36.996094 17.230469 37.007812 17.3125 37.015625 C 17.371094 37.015625 17.433594 37.019531 17.492188 37.03125 C 17.660156 37.0625 18.511719 37.066406 20.589844 37.0625 L 21.933594 37.058594 L 22.011719 37.011719 C 22.074219 36.972656 22.125 36.960938 22.253906 36.953125 C 22.554688 36.933594 22.980469 36.925781 23.042969 36.945312 C 23.113281 36.96875 23.113281 37.011719 23.042969 37.0625 C 23.015625 37.082031 22.996094 37.109375 23.003906 37.117188 C 23.007812 37.125 23.050781 37.15625 23.097656 37.175781 C 23.171875 37.210938 23.1875 37.210938 23.296875 37.199219 C 23.417969 37.183594 23.542969 37.199219 23.59375 37.238281 C 23.628906 37.269531 23.617188 37.3125 23.574219 37.332031 C 23.410156 37.410156 23.375 37.429688 23.375 37.46875 C 23.375 37.496094 23.390625 37.519531 23.421875 37.53125 C 23.457031 37.550781 23.464844 37.5625 23.460938 37.621094 C 23.457031 37.679688 23.460938 37.683594 23.523438 37.695312 C 23.636719 37.710938 23.636719 37.710938 23.621094 37.820312 L 23.609375 37.921875 L 23.683594 37.957031 C 23.777344 37.992188 23.863281 38.082031 23.851562 38.125 C 23.847656 38.152344 23.824219 38.160156 23.707031 38.164062 C 23.554688 38.175781 23.511719 38.199219 23.511719 38.273438 C 23.511719 38.304688 23.503906 38.324219 23.484375 38.324219 C 23.46875 38.324219 23.457031 38.304688 23.457031 38.269531 C 23.457031 38.203125 23.421875 38.183594 23.273438 38.183594 C 23.164062 38.183594 23.152344 38.1875 23.121094 38.234375 C 23.089844 38.273438 23.066406 38.285156 23 38.289062 C 22.925781 38.296875 22.914062 38.304688 22.878906 38.351562 C 22.863281 38.378906 22.851562 38.402344 22.84375 38.433594 C 22.851562 38.445312 22.894531 38.453125 22.949219 38.453125 C 23.011719 38.453125 23.054688 38.457031 23.078125 38.480469 C 23.128906 38.53125 23.160156 38.519531 23.191406 38.445312 C 23.21875 38.367188 23.25 38.347656 23.316406 38.363281 C 23.386719 38.382812 23.429688 38.4375 23.429688 38.511719 C 23.429688 38.570312 23.433594 38.585938 23.464844 38.601562 C 23.492188 38.613281 23.511719 38.632812 23.507812 38.648438 C 23.503906 38.671875 23.480469 38.675781 23.40625 38.675781 C 23.332031 38.675781 23.300781 38.683594 23.285156 38.703125 C 23.265625 38.726562 23.226562 38.738281 23.027344 38.761719 C 22.972656 38.769531 22.945312 38.761719 22.851562 38.691406 C 22.804688 38.664062 22.804688 38.664062 22.738281 38.710938 C 22.675781 38.75 22.644531 38.761719 22.546875 38.761719 C 22.410156 38.765625 22.359375 38.75 22.347656 38.691406 C 22.335938 38.652344 22.285156 38.617188 22.230469 38.617188 C 22.203125 38.625 22.175781 38.636719 22.15625 38.65625 C 22.121094 38.683594 22.082031 38.691406 22.003906 38.691406 L 21.753906 38.703125 C 21.691406 38.710938 21.628906 38.707031 21.566406 38.695312 C 21.46875 38.660156 21.359375 38.652344 21.257812 38.679688 C 21.199219 38.699219 21.132812 38.699219 21.074219 38.683594 C 20.988281 38.664062 20.941406 38.664062 20.65625 38.699219 C 20.472656 38.714844 20.289062 38.726562 20.101562 38.726562 C 19.898438 38.730469 19.695312 38.738281 19.492188 38.753906 C 19.425781 38.761719 19.351562 38.765625 19.28125 38.761719 C 19.242188 38.757812 19.207031 38.761719 19.167969 38.777344 C 19.121094 38.792969 19.074219 38.804688 19.027344 38.808594 C 18.984375 38.816406 18.941406 38.828125 18.902344 38.839844 C 18.855469 38.855469 18.832031 38.855469 18.792969 38.839844 C 18.746094 38.824219 18.691406 38.820312 18.640625 38.828125 C 18.480469 38.847656 18.363281 38.804688 18.363281 38.714844 C 18.363281 38.660156 18.386719 38.640625 18.476562 38.625 C 18.511719 38.621094 18.546875 38.609375 18.574219 38.589844 C 18.644531 38.542969 18.527344 38.453125 18.425781 38.46875 C 18.378906 38.476562 18.351562 38.46875 18.3125 38.445312 C 18.269531 38.410156 18.242188 38.40625 18.152344 38.40625 C 18.101562 38.40625 18.050781 38.414062 18 38.4375 C 17.972656 38.457031 17.953125 38.457031 17.917969 38.445312 C 17.882812 38.429688 17.835938 38.429688 17.746094 38.445312 C 17.699219 38.453125 17.648438 38.457031 17.597656 38.453125 C 17.550781 38.449219 17.507812 38.457031 17.464844 38.472656 C 17.347656 38.511719 17.269531 38.511719 17.179688 38.460938 C 17.136719 38.441406 17.117188 38.441406 17.078125 38.457031 C 17.019531 38.484375 16.976562 38.480469 16.929688 38.445312 C 16.894531 38.417969 16.855469 38.414062 16.519531 38.417969 C 16.34375 38.417969 16.171875 38.425781 16 38.441406 C 15.886719 38.457031 15.839844 38.457031 15.824219 38.445312 C 15.8125 38.433594 15.796875 38.425781 15.777344 38.425781 C 15.710938 38.4375 15.652344 38.46875 15.601562 38.515625 C 15.570312 38.546875 15.566406 38.546875 15.515625 38.515625 C 15.457031 38.476562 15.457031 38.476562 15.414062 38.511719 C 15.382812 38.535156 15.335938 38.550781 15.21875 38.550781 C 15.136719 38.554688 15.050781 38.566406 14.96875 38.578125 C 14.917969 38.59375 14.863281 38.601562 14.8125 38.605469 C 14.773438 38.605469 14.734375 38.621094 14.707031 38.644531 C 14.671875 38.683594 14.644531 38.683594 14.527344 38.683594 C 14.367188 38.683594 14.316406 38.695312 14.316406 38.734375 C 14.3125 38.757812 14.304688 38.78125 14.289062 38.800781 C 14.265625 38.835938 14.253906 38.835938 14.191406 38.828125 C 14.128906 38.816406 14.070312 38.792969 14.019531 38.761719 C 13.917969 38.699219 13.917969 38.699219 13.859375 38.730469 C 13.808594 38.753906 13.789062 38.753906 13.757812 38.738281 C 13.722656 38.726562 13.6875 38.71875 13.652344 38.71875 C 13.617188 38.71875 13.582031 38.710938 13.550781 38.695312 C 13.511719 38.683594 13.5 38.683594 13.472656 38.707031 C 13.4375 38.738281 13.4375 38.738281 13.402344 38.707031 C 13.371094 38.679688 13.363281 38.683594 13.304688 38.722656 C 13.214844 38.78125 13.0625 38.777344 12.996094 38.714844 L 12.957031 38.679688 L 12.917969 38.714844 C 12.890625 38.734375 12.863281 38.753906 12.855469 38.753906 C 12.828125 38.761719 12.808594 38.773438 12.789062 38.789062 C 12.738281 38.824219 12.664062 38.832031 12.648438 38.796875 C 12.632812 38.75 12.582031 38.769531 12.535156 38.839844 C 12.484375 38.917969 12.460938 38.921875 12.449219 38.875 C 12.4375 38.820312 12.394531 38.8125 12.324219 38.84375 C 12.273438 38.871094 12.269531 38.875 12.285156 38.925781 C 12.324219 39.042969 12.324219 39.050781 12.269531 39.082031 C 12.222656 39.109375 12.214844 39.121094 12.214844 39.1875 C 12.214844 39.269531 12.183594 39.320312 12.140625 39.320312 C 12.113281 39.320312 12.105469 39.300781 12.109375 39.21875 C 12.113281 39.15625 12.023438 39.0625 11.957031 39.0625 C 11.921875 39.0625 11.898438 39.046875 11.867188 39.003906 C 11.84375 38.96875 11.8125 38.941406 11.800781 38.941406 C 11.761719 38.941406 11.730469 39.015625 11.722656 39.117188 C 11.710938 39.199219 11.707031 39.199219 11.652344 39.199219 C 11.605469 39.199219 11.589844 39.210938 11.570312 39.253906 C 11.53125 39.320312 11.519531 39.328125 11.449219 39.300781 C 11.394531 39.28125 11.382812 39.28125 11.335938 39.316406 C 11.320312 39.332031 11.300781 39.34375 11.28125 39.355469 Z M 11.042969 38.648438 C 11.042969 38.644531 11.042969 38.636719 11.039062 38.636719 C 11.035156 38.632812 11.027344 38.632812 11.023438 38.632812 C 11.015625 38.632812 11.007812 38.644531 11.007812 38.660156 C 11.007812 38.675781 11.015625 38.683594 11.023438 38.675781 C 11.035156 38.667969 11.042969 38.65625 11.042969 38.648438 Z M 18.792969 38.578125 C 18.816406 38.566406 18.816406 38.5625 18.792969 38.546875 C 18.78125 38.539062 18.765625 38.535156 18.753906 38.53125 C 18.738281 38.53125 18.722656 38.539062 18.707031 38.546875 C 18.683594 38.5625 18.683594 38.566406 18.707031 38.578125 C 18.71875 38.585938 18.734375 38.59375 18.75 38.59375 C 18.765625 38.59375 18.777344 38.589844 18.792969 38.578125 Z M 23.296875 37.457031 C 23.296875 37.417969 23.207031 37.417969 23.191406 37.453125 C 23.183594 37.46875 23.191406 37.488281 23.203125 37.496094 C 23.230469 37.515625 23.296875 37.488281 23.296875 37.457031 Z M 20.289062 24.527344 C 20.308594 24.503906 20.3125 24.410156 20.292969 24.410156 C 20.261719 24.410156 20.222656 24.464844 20.222656 24.503906 C 20.222656 24.550781 20.253906 24.5625 20.289062 24.527344 Z M 20.421875 24.265625 C 20.414062 24.253906 20.402344 24.238281 20.394531 24.238281 C 20.375 24.238281 20.355469 24.304688 20.371094 24.328125 C 20.386719 24.355469 20.429688 24.300781 20.421875 24.265625 Z M 20.722656 23.828125 C 20.773438 23.746094 20.785156 23.695312 20.757812 23.679688 C 20.71875 23.65625 20.671875 23.691406 20.636719 23.773438 C 20.566406 23.921875 20.636719 23.96875 20.722656 23.828125 Z M 20.757812 23.292969 C 20.769531 23.269531 20.769531 23.253906 20.757812 23.246094 C 20.734375 23.234375 20.703125 23.269531 20.703125 23.304688 C 20.703125 23.335938 20.734375 23.332031 20.757812 23.292969 Z M 20.015625 22.183594 C 20.015625 22.132812 19.972656 22.160156 19.964844 22.214844 C 19.960938 22.261719 19.964844 22.261719 19.988281 22.242188 C 20.003906 22.226562 20.015625 22.207031 20.015625 22.183594 Z M 23.277344 38.78125 C 23.269531 38.765625 23.269531 38.75 23.277344 38.742188 C 23.289062 38.730469 23.355469 38.773438 23.355469 38.792969 C 23.355469 38.816406 23.289062 38.808594 23.277344 38.78125 Z M 46.898438 38.28125 C 46.882812 38.265625 46.878906 38.234375 46.886719 38.203125 C 46.894531 38.152344 46.902344 38.105469 46.910156 38.054688 C 46.917969 37.980469 46.914062 37.964844 46.894531 37.964844 C 46.835938 37.964844 46.8125 37.988281 46.796875 38.046875 C 46.773438 38.121094 46.703125 38.214844 46.679688 38.199219 C 46.667969 38.195312 46.65625 38.160156 46.648438 38.117188 C 46.640625 38.054688 46.636719 38.050781 46.609375 38.074219 C 46.578125 38.109375 46.535156 38.089844 46.535156 38.035156 C 46.535156 37.917969 46.429688 37.902344 46.375 38.015625 C 46.359375 38.054688 46.308594 38.085938 46.160156 38.164062 C 46.148438 38.171875 46.132812 38.164062 46.121094 38.15625 C 46.105469 38.140625 46.109375 38.109375 46.136719 38.042969 C 46.191406 37.902344 46.238281 37.761719 46.277344 37.617188 C 46.277344 37.605469 46.261719 37.585938 46.242188 37.570312 C 46.195312 37.53125 46.210938 37.492188 46.257812 37.523438 C 46.308594 37.546875 46.355469 37.503906 46.390625 37.390625 C 46.402344 37.351562 46.417969 37.316406 46.4375 37.28125 C 46.449219 37.242188 46.453125 37.199219 46.449219 37.160156 C 46.445312 37.101562 46.449219 37.046875 46.460938 37.03125 C 46.511719 36.96875 46.53125 36.675781 46.484375 36.644531 C 46.453125 36.625 46.402344 36.675781 46.375 36.757812 C 46.359375 36.808594 46.332031 36.855469 46.296875 36.894531 C 46.242188 36.945312 46.222656 37.046875 46.257812 37.082031 C 46.277344 37.117188 46.289062 37.15625 46.289062 37.195312 C 46.296875 37.273438 46.292969 37.296875 46.269531 37.328125 C 46.234375 37.367188 46.105469 37.375 46.070312 37.335938 C 46.042969 37.296875 46.023438 37.300781 45.984375 37.335938 C 45.910156 37.402344 45.902344 37.308594 45.957031 37.164062 C 45.980469 37.101562 45.980469 37.085938 45.957031 37.066406 C 45.917969 37.027344 45.925781 36.992188 45.976562 36.96875 C 46.003906 36.957031 46.023438 36.929688 46.027344 36.902344 C 46.035156 36.867188 46.042969 36.832031 46.054688 36.800781 C 46.09375 36.703125 46.09375 36.679688 46.046875 36.613281 C 46 36.546875 46.003906 36.5 46.054688 36.5 C 46.078125 36.5 46.101562 36.492188 46.125 36.480469 C 46.144531 36.472656 46.167969 36.472656 46.1875 36.480469 C 46.214844 36.5 46.226562 36.5 46.25 36.480469 C 46.273438 36.464844 46.296875 36.320312 46.28125 36.28125 C 46.261719 36.230469 46.175781 36.265625 46.0625 36.375 C 46.027344 36.402344 45.992188 36.421875 45.949219 36.4375 C 45.890625 36.460938 45.878906 36.460938 45.871094 36.4375 C 45.859375 36.40625 45.9375 36.316406 45.996094 36.304688 C 46.023438 36.296875 46.046875 36.265625 46.070312 36.21875 C 46.09375 36.171875 46.125 36.132812 46.140625 36.132812 C 46.164062 36.121094 46.171875 36.101562 46.171875 36.054688 C 46.171875 36.015625 46.1875 35.980469 46.199219 35.957031 C 46.214844 35.933594 46.222656 35.910156 46.226562 35.882812 C 46.226562 35.851562 46.242188 35.8125 46.257812 35.789062 C 46.304688 35.742188 46.347656 35.691406 46.378906 35.632812 C 46.378906 35.625 46.398438 35.59375 46.425781 35.5625 C 46.488281 35.492188 46.480469 35.425781 46.40625 35.425781 C 46.347656 35.421875 46.289062 35.40625 46.234375 35.378906 C 46.207031 35.367188 46.179688 35.359375 46.148438 35.355469 C 46.101562 35.347656 46.058594 35.332031 46.015625 35.316406 C 45.953125 35.292969 45.886719 35.273438 45.820312 35.261719 C 45.761719 35.25 45.703125 35.234375 45.648438 35.207031 C 45.59375 35.183594 45.535156 35.164062 45.476562 35.148438 C 45.332031 35.117188 45.195312 35.050781 45.085938 34.953125 C 45.0625 34.921875 45.035156 34.898438 45 34.886719 C 44.910156 34.859375 44.824219 34.824219 44.742188 34.78125 C 44.699219 34.753906 44.65625 34.714844 44.625 34.667969 C 44.589844 34.613281 44.550781 34.574219 44.511719 34.5625 C 44.46875 34.542969 44.425781 34.515625 44.394531 34.480469 C 44.363281 34.441406 44.324219 34.414062 44.308594 34.414062 C 44.273438 34.414062 44.179688 34.339844 44.152344 34.277344 C 44.113281 34.226562 44.070312 34.175781 44.023438 34.128906 C 43.980469 34.085938 43.941406 34.035156 43.910156 33.984375 C 43.902344 33.964844 43.890625 33.949219 43.882812 33.949219 C 43.863281 33.949219 43.796875 33.882812 43.734375 33.804688 C 43.699219 33.757812 43.664062 33.714844 43.628906 33.675781 C 43.597656 33.636719 43.574219 33.597656 43.574219 33.574219 C 43.570312 33.554688 43.5625 33.535156 43.550781 33.519531 C 43.496094 33.453125 43.449219 33.378906 43.417969 33.300781 C 43.417969 33.285156 43.390625 33.246094 43.359375 33.222656 C 43.285156 33.140625 43.230469 33.050781 43.191406 32.949219 C 43.171875 32.902344 43.144531 32.855469 43.113281 32.816406 C 43.039062 32.726562 43.019531 32.675781 43.019531 32.605469 C 43.019531 32.546875 42.984375 32.460938 42.910156 32.367188 C 42.890625 32.34375 42.875 32.3125 42.867188 32.285156 C 42.847656 32.21875 42.824219 32.15625 42.796875 32.097656 C 42.769531 32.035156 42.742188 31.96875 42.722656 31.902344 C 42.710938 31.863281 42.691406 31.824219 42.667969 31.789062 C 42.601562 31.695312 42.566406 31.46875 42.539062 30.972656 C 42.519531 30.777344 42.535156 30.578125 42.585938 30.386719 C 42.601562 30.339844 42.609375 30.292969 42.617188 30.242188 C 42.625 30.171875 42.648438 30.105469 42.675781 30.042969 C 42.707031 29.980469 42.730469 29.914062 42.75 29.847656 C 42.753906 29.800781 42.765625 29.757812 42.78125 29.714844 C 42.796875 29.675781 42.808594 29.632812 42.8125 29.59375 C 42.832031 29.480469 42.886719 29.328125 42.925781 29.285156 C 42.941406 29.269531 42.949219 29.25 42.953125 29.226562 C 42.953125 29.210938 42.96875 29.148438 42.988281 29.097656 C 43.007812 29.035156 43.023438 28.972656 43.03125 28.910156 C 43.042969 28.808594 43.082031 28.71875 43.136719 28.636719 C 43.15625 28.605469 43.171875 28.574219 43.183594 28.539062 C 43.203125 28.480469 43.230469 28.421875 43.257812 28.367188 C 43.285156 28.320312 43.304688 28.269531 43.316406 28.21875 C 43.316406 28.199219 43.339844 28.15625 43.363281 28.125 C 43.425781 28.050781 43.476562 27.960938 43.503906 27.867188 C 43.503906 27.835938 43.589844 27.660156 43.609375 27.644531 C 43.636719 27.609375 43.660156 27.570312 43.679688 27.527344 C 43.722656 27.429688 43.78125 27.335938 43.855469 27.253906 C 43.890625 27.210938 43.921875 27.164062 43.949219 27.113281 C 43.984375 27.058594 44.019531 27.007812 44.058594 26.960938 C 44.089844 26.929688 44.113281 26.894531 44.132812 26.855469 C 44.183594 26.761719 44.257812 26.683594 44.347656 26.621094 C 44.367188 26.617188 44.386719 26.589844 44.394531 26.566406 C 44.417969 26.523438 44.449219 26.488281 44.484375 26.457031 C 44.757812 26.191406 44.894531 26.066406 44.9375 26.046875 C 45.046875 25.980469 45.144531 25.90625 45.238281 25.820312 C 45.277344 25.785156 45.351562 25.746094 45.402344 25.71875 C 45.449219 25.699219 45.496094 25.675781 45.542969 25.652344 C 45.578125 25.628906 45.613281 25.609375 45.65625 25.597656 C 45.703125 25.582031 45.746094 25.554688 45.78125 25.523438 C 45.808594 25.488281 45.847656 25.464844 45.890625 25.453125 C 46.011719 25.425781 46.132812 25.386719 46.25 25.339844 C 46.328125 25.3125 46.414062 25.292969 46.496094 25.28125 C 46.585938 25.265625 46.671875 25.246094 46.753906 25.21875 C 47.226562 25.097656 47.714844 25.054688 48.203125 25.097656 C 48.40625 25.117188 48.609375 25.160156 48.804688 25.222656 C 48.820312 25.234375 48.929688 25.261719 49.035156 25.292969 C 49.113281 25.308594 49.1875 25.332031 49.261719 25.367188 C 49.292969 25.386719 49.328125 25.402344 49.363281 25.410156 C 49.421875 25.425781 49.472656 25.457031 49.511719 25.503906 C 49.542969 25.539062 49.582031 25.570312 49.628906 25.589844 C 49.675781 25.609375 49.71875 25.636719 49.753906 25.667969 C 49.789062 25.703125 49.828125 25.726562 49.867188 25.746094 C 49.898438 25.753906 49.933594 25.792969 49.976562 25.867188 C 50.011719 25.925781 50.070312 26 50.105469 26.027344 C 50.15625 26.074219 50.199219 26.128906 50.222656 26.191406 C 50.25 26.246094 50.28125 26.296875 50.328125 26.34375 C 50.371094 26.382812 50.402344 26.4375 50.421875 26.492188 C 50.464844 26.617188 50.5 26.636719 50.523438 26.546875 L 50.566406 26.382812 C 50.589844 26.316406 50.605469 26.246094 50.613281 26.175781 C 50.617188 26.132812 50.625 26.085938 50.640625 26.042969 C 50.65625 25.996094 50.667969 25.945312 50.675781 25.890625 C 50.6875 25.773438 50.695312 25.757812 50.777344 25.664062 C 50.808594 25.632812 50.839844 25.59375 50.863281 25.550781 C 50.863281 25.519531 50.953125 25.332031 50.996094 25.277344 C 51.03125 25.226562 51.035156 25.207031 51.027344 25.140625 C 51.015625 25.042969 51.035156 24.988281 51.09375 25.003906 C 51.144531 25.019531 51.207031 24.964844 51.300781 24.828125 C 51.359375 24.722656 51.441406 24.632812 51.539062 24.566406 C 51.574219 24.542969 51.601562 24.507812 51.617188 24.46875 C 51.636719 24.421875 51.667969 24.386719 51.714844 24.367188 C 51.789062 24.328125 51.835938 24.265625 51.828125 24.199219 C 51.828125 24.171875 51.832031 24.148438 51.84375 24.125 C 51.871094 24.09375 51.9375 24.09375 51.960938 24.125 C 51.992188 24.160156 51.992188 24.40625 51.960938 24.476562 C 51.945312 24.523438 51.945312 24.535156 51.96875 24.5625 C 51.992188 24.585938 52.007812 24.585938 52.03125 24.574219 C 52.085938 24.511719 52.125 24.4375 52.136719 24.355469 C 52.136719 24.328125 52.152344 24.289062 52.175781 24.265625 C 52.242188 24.199219 52.300781 24.121094 52.347656 24.039062 C 52.394531 23.96875 52.449219 23.90625 52.511719 23.851562 C 52.539062 23.835938 52.585938 23.890625 52.585938 23.933594 C 52.585938 23.957031 52.566406 24.011719 52.546875 24.046875 C 52.519531 24.125 52.5 24.277344 52.519531 24.300781 C 52.527344 24.304688 52.550781 24.292969 52.578125 24.273438 C 52.644531 24.226562 52.675781 24.230469 52.699219 24.289062 C 52.722656 24.355469 52.75 24.355469 52.78125 24.296875 C 52.808594 24.261719 52.808594 24.246094 52.792969 24.210938 C 52.78125 24.1875 52.765625 24.171875 52.757812 24.171875 C 52.707031 24.175781 52.6875 24.167969 52.6875 24.136719 C 52.6875 24.082031 52.726562 24.058594 52.769531 24.101562 C 52.824219 24.148438 52.847656 24.144531 52.90625 24.046875 C 52.976562 23.945312 53.019531 23.9375 53.066406 24.023438 C 53.113281 24.101562 53.179688 24.101562 53.222656 24.027344 C 53.242188 23.992188 53.269531 23.964844 53.304688 23.949219 C 53.46875 23.894531 53.46875 23.894531 53.492188 23.921875 C 53.507812 23.949219 53.515625 23.980469 53.515625 24.011719 C 53.515625 24.085938 53.546875 24.085938 53.605469 24.007812 C 53.632812 23.972656 53.667969 23.945312 53.683594 23.945312 C 53.710938 23.941406 53.738281 23.933594 53.761719 23.917969 C 53.816406 23.890625 53.851562 23.886719 53.867188 23.914062 C 53.882812 23.9375 53.84375 24.054688 53.808594 24.101562 C 53.792969 24.117188 53.78125 24.136719 53.773438 24.15625 C 53.773438 24.195312 53.621094 24.464844 53.558594 24.546875 C 53.503906 24.609375 53.464844 24.679688 53.445312 24.753906 C 53.445312 24.777344 53.46875 24.792969 53.511719 24.800781 C 53.601562 24.824219 53.605469 24.882812 53.527344 24.972656 C 53.460938 25.050781 53.410156 25.136719 53.375 25.230469 C 53.375 25.242188 53.351562 25.269531 53.324219 25.292969 C 53.285156 25.316406 53.273438 25.335938 53.277344 25.375 C 53.285156 25.449219 53.347656 25.433594 53.363281 25.351562 C 53.375 25.304688 53.421875 25.246094 53.535156 25.125 C 53.589844 25.066406 53.648438 25.011719 53.710938 24.960938 C 53.722656 24.960938 53.761719 24.925781 53.800781 24.871094 C 53.890625 24.75 53.929688 24.722656 53.945312 24.726562 C 53.957031 24.742188 53.960938 24.757812 53.960938 24.773438 C 53.929688 24.859375 53.882812 24.9375 53.820312 25.003906 C 53.800781 25.035156 53.78125 25.074219 53.769531 25.109375 C 53.75 25.15625 53.726562 25.203125 53.699219 25.246094 C 53.675781 25.273438 53.660156 25.304688 53.652344 25.339844 C 53.652344 25.359375 53.628906 25.390625 53.601562 25.410156 C 53.527344 25.476562 53.464844 25.554688 53.414062 25.644531 C 53.414062 25.652344 53.4375 25.6875 53.464844 25.71875 C 53.488281 25.742188 53.503906 25.769531 53.515625 25.800781 C 53.515625 25.8125 53.535156 25.839844 53.558594 25.863281 C 53.632812 25.925781 53.59375 26.046875 53.496094 26.046875 C 53.460938 26.046875 53.433594 26.066406 53.363281 26.148438 C 53.261719 26.273438 53.222656 26.351562 53.222656 26.410156 C 53.21875 26.457031 53.207031 26.5 53.195312 26.542969 C 53.179688 26.59375 53.171875 26.652344 53.179688 26.707031 C 53.191406 26.777344 53.1875 26.78125 53.085938 26.894531 C 53.027344 26.957031 52.96875 27.019531 52.914062 27.082031 C 52.878906 27.128906 52.835938 27.171875 52.789062 27.210938 C 52.753906 27.238281 52.71875 27.273438 52.695312 27.3125 C 52.683594 27.34375 52.664062 27.371094 52.640625 27.390625 C 52.59375 27.433594 52.554688 27.484375 52.527344 27.539062 C 52.488281 27.601562 52.445312 27.660156 52.398438 27.710938 C 52.355469 27.75 52.324219 27.796875 52.300781 27.851562 C 52.265625 27.917969 52.230469 27.980469 52.191406 28.042969 C 52.164062 28.089844 52.136719 28.140625 52.113281 28.191406 C 52.074219 28.28125 52.019531 28.359375 51.945312 28.425781 C 51.902344 28.46875 51.867188 28.515625 51.839844 28.566406 C 51.808594 28.621094 51.769531 28.671875 51.722656 28.710938 C 51.667969 28.769531 51.636719 28.808594 51.636719 28.839844 C 51.636719 28.894531 51.558594 29.019531 51.507812 29.039062 C 51.441406 29.097656 51.386719 29.171875 51.359375 29.257812 C 51.351562 29.28125 51.332031 29.304688 51.308594 29.320312 C 51.234375 29.394531 51.175781 29.480469 51.140625 29.582031 C 51.136719 29.605469 51.128906 29.628906 51.117188 29.648438 C 51.097656 29.683594 51.085938 29.71875 51.078125 29.757812 C 51.070312 29.800781 51.050781 29.84375 51.027344 29.878906 C 50.945312 30.003906 50.878906 30.140625 50.828125 30.28125 C 50.828125 30.300781 50.808594 30.328125 50.792969 30.347656 C 50.726562 30.40625 50.683594 30.480469 50.65625 30.5625 C 50.65625 30.597656 50.582031 30.753906 50.535156 30.820312 C 50.507812 30.863281 50.488281 30.910156 50.472656 30.957031 C 50.460938 31.007812 50.4375 31.054688 50.414062 31.097656 C 50.398438 31.117188 50.386719 31.140625 50.382812 31.164062 C 50.371094 31.195312 50.355469 31.222656 50.332031 31.246094 C 50.257812 31.351562 50.199219 31.464844 50.15625 31.589844 C 50.140625 31.636719 50.113281 31.683594 50.082031 31.71875 C 50.042969 31.757812 50.019531 31.808594 50.011719 31.859375 C 49.992188 31.972656 49.941406 32.082031 49.871094 32.175781 C 49.839844 32.21875 49.816406 32.265625 49.796875 32.3125 C 49.75 32.445312 49.683594 32.566406 49.609375 32.683594 C 49.558594 32.761719 49.519531 32.847656 49.488281 32.933594 C 49.441406 33.058594 49.386719 33.179688 49.324219 33.296875 L 49.054688 33.8125 C 49.011719 33.890625 48.976562 33.972656 48.949219 34.058594 C 48.9375 34.101562 48.921875 34.140625 48.902344 34.175781 C 48.824219 34.332031 48.761719 34.492188 48.710938 34.65625 C 48.683594 34.746094 48.648438 34.835938 48.605469 34.921875 C 48.597656 34.953125 48.585938 34.984375 48.574219 35.011719 C 48.542969 35.113281 48.507812 35.210938 48.464844 35.308594 C 48.433594 35.382812 48.414062 35.457031 48.398438 35.539062 C 48.386719 35.640625 48.359375 35.742188 48.324219 35.839844 C 48.308594 35.890625 48.285156 35.941406 48.261719 35.992188 C 48.238281 36.039062 48.21875 36.085938 48.210938 36.136719 C 48.210938 36.15625 48.1875 36.195312 48.160156 36.21875 C 48.121094 36.246094 48.109375 36.277344 48.109375 36.316406 C 48.109375 36.375 48.070312 36.5 48.054688 36.5 C 48.046875 36.5 48.03125 36.523438 48.019531 36.558594 C 47.988281 36.652344 47.949219 36.746094 47.90625 36.835938 C 47.871094 36.917969 47.847656 37.007812 47.839844 37.09375 C 47.824219 37.164062 47.800781 37.234375 47.765625 37.292969 C 47.730469 37.351562 47.707031 37.40625 47.6875 37.46875 C 47.648438 37.601562 47.582031 37.726562 47.492188 37.832031 C 47.472656 37.839844 47.453125 37.855469 47.453125 37.863281 C 47.453125 37.875 47.4375 37.875 47.417969 37.875 C 47.390625 37.875 47.386719 37.867188 47.386719 37.78125 C 47.386719 37.734375 47.394531 37.683594 47.402344 37.679688 C 47.414062 37.671875 47.417969 37.644531 47.417969 37.621094 C 47.417969 37.582031 47.414062 37.566406 47.390625 37.566406 C 47.347656 37.566406 47.3125 37.601562 47.3125 37.644531 C 47.304688 37.6875 47.292969 37.726562 47.277344 37.765625 C 47.257812 37.800781 47.242188 37.835938 47.230469 37.875 C 47.222656 37.902344 47.210938 37.933594 47.191406 37.960938 C 47.179688 37.988281 47.167969 38.019531 47.164062 38.050781 C 47.164062 38.070312 47.140625 38.105469 47.117188 38.132812 C 47.09375 38.160156 47.074219 38.195312 47.074219 38.210938 C 47.074219 38.246094 47.007812 38.308594 46.960938 38.308594 C 46.941406 38.308594 46.917969 38.296875 46.902344 38.28125 Z M 46.738281 37.960938 C 46.738281 37.9375 46.71875 37.921875 46.710938 37.921875 C 46.695312 37.921875 46.679688 37.9375 46.675781 37.960938 C 46.675781 37.992188 46.679688 37.996094 46.710938 37.996094 C 46.734375 37.996094 46.746094 37.992188 46.738281 37.960938 Z M 46.996094 37.789062 C 47.027344 37.761719 47.023438 37.707031 46.996094 37.707031 C 46.96875 37.707031 46.953125 37.746094 46.953125 37.78125 C 46.953125 37.8125 46.96875 37.816406 46.996094 37.789062 Z M 47.5 37.292969 C 47.5 37.28125 47.492188 37.28125 47.484375 37.285156 C 47.472656 37.292969 47.464844 37.300781 47.464844 37.308594 C 47.464844 37.320312 47.472656 37.324219 47.484375 37.316406 C 47.492188 37.3125 47.5 37.296875 47.5 37.292969 Z M 46.6875 36.269531 C 46.71875 36.246094 46.714844 36.226562 46.675781 36.226562 C 46.65625 36.226562 46.636719 36.226562 46.636719 36.234375 C 46.636719 36.246094 46.632812 36.257812 46.628906 36.265625 C 46.613281 36.296875 46.65625 36.304688 46.6875 36.273438 Z M 47.453125 33.203125 C 47.480469 33.144531 47.511719 33.089844 47.546875 33.039062 C 47.570312 33.015625 47.585938 32.988281 47.585938 32.972656 C 47.605469 32.890625 47.632812 32.8125 47.671875 32.738281 C 47.6875 32.707031 47.699219 32.671875 47.707031 32.640625 C 47.726562 32.582031 47.753906 32.527344 47.785156 32.476562 C 47.832031 32.410156 47.84375 32.378906 47.84375 32.316406 C 47.84375 32.265625 47.859375 32.21875 47.882812 32.175781 C 47.898438 32.144531 47.910156 32.113281 47.914062 32.082031 C 47.914062 32.070312 47.933594 32.039062 47.953125 32.011719 C 47.988281 31.960938 48.015625 31.90625 48.035156 31.847656 C 48.054688 31.800781 48.074219 31.75 48.097656 31.707031 C 48.109375 31.675781 48.121094 31.648438 48.125 31.617188 C 48.152344 31.519531 48.191406 31.421875 48.242188 31.332031 C 48.316406 31.207031 48.367188 31.070312 48.394531 30.925781 C 48.402344 30.855469 48.429688 30.789062 48.46875 30.734375 C 48.503906 30.6875 48.53125 30.636719 48.546875 30.582031 C 48.558594 30.523438 48.578125 30.46875 48.601562 30.414062 C 48.625 30.363281 48.648438 30.3125 48.664062 30.257812 C 48.675781 30.210938 48.699219 30.167969 48.722656 30.125 C 48.761719 30.058594 48.792969 29.988281 48.816406 29.917969 C 48.839844 29.847656 48.867188 29.777344 48.894531 29.707031 C 48.910156 29.671875 48.921875 29.636719 48.929688 29.601562 C 48.929688 29.585938 48.953125 29.519531 48.980469 29.449219 L 49.046875 29.292969 C 49.0625 29.253906 49.078125 29.214844 49.085938 29.171875 C 49.097656 29.121094 49.121094 29.074219 49.15625 29.03125 C 49.1875 28.996094 49.210938 28.953125 49.222656 28.90625 C 49.25 28.804688 49.285156 28.707031 49.324219 28.613281 C 49.335938 28.585938 49.34375 28.558594 49.351562 28.53125 C 49.363281 28.492188 49.378906 28.457031 49.402344 28.429688 C 49.425781 28.402344 49.445312 28.367188 49.445312 28.351562 C 49.445312 28.335938 49.453125 28.316406 49.460938 28.316406 C 49.472656 28.308594 49.488281 28.277344 49.5 28.238281 C 49.527344 28.179688 49.570312 28.125 49.621094 28.078125 C 49.679688 28.023438 49.726562 27.957031 49.761719 27.886719 C 49.796875 27.816406 49.84375 27.753906 49.898438 27.699219 C 49.976562 27.625 49.996094 27.585938 50.011719 27.511719 C 50.027344 27.453125 50.050781 27.402344 50.074219 27.390625 C 50.125 27.324219 50.167969 27.253906 50.203125 27.175781 C 50.304688 26.976562 50.304688 26.96875 50.203125 26.914062 C 50.167969 26.894531 50.132812 26.867188 50.105469 26.835938 C 50.082031 26.8125 50.058594 26.789062 50.046875 26.789062 C 50.007812 26.769531 49.96875 26.746094 49.933594 26.71875 C 49.769531 26.617188 49.730469 26.605469 49.640625 26.628906 C 49.519531 26.664062 49.363281 26.65625 49.292969 26.613281 C 49.265625 26.59375 49.242188 26.574219 49.242188 26.5625 C 49.242188 26.527344 49.183594 26.476562 49.15625 26.476562 C 49.136719 26.476562 49.109375 26.460938 49.09375 26.433594 C 49.0625 26.386719 49.019531 26.378906 48.984375 26.410156 C 48.953125 26.445312 48.957031 26.742188 48.988281 26.769531 C 49.003906 26.78125 49.011719 26.800781 49.015625 26.820312 C 49.027344 26.859375 49.042969 26.898438 49.066406 26.9375 C 49.121094 27.027344 49.121094 27.03125 49.101562 27.125 C 49.0625 27.28125 49.0625 27.277344 48.859375 27.253906 C 48.769531 27.242188 48.683594 27.226562 48.59375 27.207031 C 48.484375 27.175781 48.386719 27.175781 48.355469 27.207031 C 48.3125 27.234375 48.265625 27.25 48.214844 27.261719 C 48.167969 27.269531 48.121094 27.28125 48.078125 27.300781 C 47.972656 27.347656 47.863281 27.382812 47.753906 27.40625 C 47.71875 27.414062 47.6875 27.421875 47.65625 27.4375 C 47.5 27.523438 47.335938 27.597656 47.167969 27.65625 C 47.03125 27.675781 46.894531 27.714844 46.769531 27.769531 C 46.730469 27.792969 46.6875 27.808594 46.644531 27.816406 C 46.589844 27.824219 46.554688 27.84375 46.480469 27.914062 C 46.433594 27.957031 46.386719 27.996094 46.339844 28.03125 C 46.296875 28.066406 46.265625 28.113281 46.242188 28.160156 C 46.214844 28.203125 46.179688 28.242188 46.136719 28.273438 C 46.109375 28.289062 46.085938 28.3125 46.066406 28.339844 C 46.035156 28.382812 46.003906 28.417969 45.96875 28.453125 C 45.851562 28.582031 45.75 28.722656 45.667969 28.871094 C 45.609375 28.980469 45.539062 29.082031 45.457031 29.171875 C 45.4375 29.195312 45.425781 29.21875 45.417969 29.25 C 45.417969 29.265625 45.410156 29.285156 45.402344 29.292969 C 45.367188 29.347656 45.335938 29.402344 45.308594 29.457031 C 45.269531 29.527344 45.234375 29.597656 45.195312 29.664062 C 45.171875 29.695312 45.160156 29.734375 45.15625 29.769531 C 45.144531 29.839844 45.128906 29.90625 45.101562 29.96875 C 45.074219 30.054688 45.050781 30.136719 45.027344 30.222656 C 45.015625 30.269531 45 30.308594 44.972656 30.347656 C 44.945312 30.378906 44.921875 30.460938 44.878906 30.691406 C 44.847656 30.828125 44.847656 30.96875 44.871094 31.109375 C 44.898438 31.328125 44.933594 31.449219 44.984375 31.523438 C 45.003906 31.542969 45.019531 31.570312 45.023438 31.597656 C 45.023438 31.613281 45.046875 31.675781 45.082031 31.730469 C 45.113281 31.785156 45.136719 31.84375 45.152344 31.90625 C 45.160156 31.960938 45.1875 32 45.273438 32.089844 C 45.324219 32.140625 45.371094 32.191406 45.414062 32.25 C 45.453125 32.296875 45.496094 32.34375 45.546875 32.386719 L 45.789062 32.613281 C 45.867188 32.695312 45.964844 32.765625 46.070312 32.8125 C 46.105469 32.839844 46.144531 32.863281 46.183594 32.882812 C 46.214844 32.902344 46.242188 32.929688 46.257812 32.960938 C 46.28125 32.996094 46.316406 33.019531 46.390625 33.046875 C 46.453125 33.070312 46.507812 33.09375 46.566406 33.121094 C 46.671875 33.175781 46.78125 33.214844 46.898438 33.234375 C 46.957031 33.246094 47.011719 33.265625 47.066406 33.289062 C 47.179688 33.34375 47.292969 33.363281 47.351562 33.339844 C 47.390625 33.328125 47.414062 33.296875 47.453125 33.203125 Z M 53.226562 26.125 C 53.261719 26.089844 53.269531 26.066406 53.269531 26.007812 C 53.269531 25.917969 53.246094 25.902344 53.1875 25.960938 C 53.132812 26.007812 53.117188 26.167969 53.164062 26.167969 C 53.1875 26.160156 53.207031 26.144531 53.226562 26.125 Z M 53.25 25.511719 C 53.25 25.503906 53.242188 25.5 53.238281 25.503906 C 53.226562 25.511719 53.21875 25.523438 53.21875 25.535156 C 53.21875 25.542969 53.226562 25.542969 53.238281 25.539062 C 53.246094 25.53125 53.25 25.523438 53.25 25.511719 Z M 52.445312 24.425781 C 52.5 24.3125 52.4375 24.339844 52.375 24.460938 C 52.355469 24.496094 52.355469 24.496094 52.386719 24.496094 C 52.40625 24.496094 52.429688 24.460938 52.445312 24.425781 Z M 23.539062 37.566406 C 23.535156 37.5625 23.535156 37.558594 23.535156 37.550781 C 23.539062 37.546875 23.539062 37.542969 23.546875 37.539062 C 23.5625 37.527344 23.613281 37.542969 23.613281 37.566406 C 23.613281 37.585938 23.550781 37.585938 23.539062 37.566406 Z M 45.761719 36.847656 C 45.761719 36.820312 45.796875 36.824219 45.808594 36.855469 C 45.808594 36.867188 45.800781 36.875 45.789062 36.875 C 45.773438 36.875 45.761719 36.863281 45.761719 36.847656 Z M 45.730469 36.519531 C 45.738281 36.480469 45.761719 36.476562 45.792969 36.492188 C 45.824219 36.515625 45.800781 36.546875 45.757812 36.546875 C 45.734375 36.546875 45.726562 36.539062 45.730469 36.519531 Z M 45.8125 36.152344 C 45.765625 36.105469 45.761719 36.023438 45.804688 35.941406 C 45.824219 35.902344 45.84375 35.894531 45.878906 35.898438 C 45.914062 35.898438 45.921875 35.914062 45.933594 35.96875 C 45.945312 36.007812 45.941406 36.046875 45.921875 36.082031 C 45.910156 36.105469 45.902344 36.128906 45.898438 36.15625 C 45.898438 36.195312 45.851562 36.195312 45.8125 36.152344 Z M 25.066406 35.683594 C 25.050781 35.613281 25.042969 35.539062 25.042969 35.464844 C 25.042969 35.347656 25.019531 35.234375 24.976562 35.125 C 24.953125 35.0625 24.929688 35 24.914062 34.933594 C 24.90625 34.894531 24.886719 34.863281 24.859375 34.835938 C 24.800781 34.769531 24.765625 34.6875 24.75 34.601562 C 24.742188 34.511719 24.710938 34.425781 24.65625 34.355469 C 24.640625 34.332031 24.625 34.3125 24.613281 34.285156 C 24.5625 34.171875 24.511719 34.054688 24.460938 33.933594 C 24.441406 33.890625 24.414062 33.847656 24.382812 33.804688 C 24.347656 33.761719 24.347656 33.722656 24.386719 33.667969 C 24.40625 33.648438 24.421875 33.621094 24.425781 33.59375 C 24.429688 33.5625 24.441406 33.527344 24.457031 33.496094 C 24.480469 33.441406 24.496094 33.386719 24.507812 33.328125 C 24.542969 33.164062 24.589844 33.007812 24.648438 32.855469 C 24.6875 32.777344 24.726562 32.589844 24.742188 32.371094 C 24.75 32.210938 24.789062 32.050781 24.855469 31.90625 L 24.894531 31.726562 C 24.933594 31.578125 24.964844 31.425781 24.988281 31.269531 C 25.011719 31.082031 25.058594 30.894531 25.132812 30.71875 C 25.140625 30.605469 25.171875 30.496094 25.222656 30.398438 C 25.25 30.355469 25.269531 30.308594 25.285156 30.261719 C 25.296875 30.214844 25.320312 30.171875 25.347656 30.132812 C 25.386719 30.070312 25.421875 30.003906 25.453125 29.9375 C 25.492188 29.863281 25.535156 29.789062 25.585938 29.726562 C 25.617188 29.6875 25.644531 29.644531 25.660156 29.601562 C 25.691406 29.53125 25.730469 29.460938 25.773438 29.398438 C 25.8125 29.347656 25.84375 29.289062 25.871094 29.230469 C 25.871094 29.191406 25.957031 29.050781 26.003906 29.019531 C 26.039062 28.976562 26.070312 28.929688 26.09375 28.878906 C 26.132812 28.804688 26.183594 28.734375 26.242188 28.679688 C 26.289062 28.636719 26.324219 28.585938 26.347656 28.527344 C 26.355469 28.488281 26.375 28.449219 26.398438 28.417969 C 26.417969 28.390625 26.429688 28.363281 26.4375 28.335938 C 26.4375 28.304688 26.472656 28.203125 26.503906 28.148438 C 26.519531 28.121094 26.550781 28.109375 26.601562 28.101562 C 26.707031 28.085938 26.71875 28.054688 26.679688 27.917969 C 26.640625 27.792969 26.640625 27.714844 26.6875 27.691406 L 26.746094 27.664062 C 26.761719 27.65625 26.78125 27.628906 26.785156 27.605469 C 26.792969 27.574219 26.804688 27.546875 26.820312 27.523438 C 26.839844 27.496094 26.851562 27.464844 26.851562 27.429688 C 26.851562 27.363281 26.878906 27.335938 26.902344 27.382812 C 26.933594 27.429688 26.960938 27.382812 26.949219 27.304688 C 26.929688 27.148438 26.90625 27.085938 26.859375 27.050781 L 26.8125 27.011719 L 26.847656 26.941406 C 26.867188 26.902344 26.882812 26.863281 26.894531 26.820312 C 26.910156 26.765625 26.9375 26.714844 26.96875 26.667969 C 26.992188 26.632812 27.011719 26.59375 27.027344 26.554688 C 27.027344 26.515625 27.070312 26.40625 27.152344 26.273438 C 27.179688 26.226562 27.207031 26.175781 27.230469 26.125 C 27.230469 26.113281 27.324219 25.894531 27.351562 25.851562 C 27.363281 25.832031 27.367188 25.8125 27.371094 25.792969 C 27.382812 25.75 27.398438 25.703125 27.417969 25.660156 L 27.515625 25.433594 C 27.542969 25.363281 27.578125 25.296875 27.621094 25.230469 C 27.644531 25.195312 27.664062 25.15625 27.679688 25.117188 L 27.738281 24.980469 C 27.769531 24.921875 27.792969 24.859375 27.8125 24.796875 C 27.8125 24.757812 27.835938 24.722656 27.859375 24.710938 C 27.902344 24.679688 27.960938 24.542969 27.988281 24.402344 C 28 24.351562 28.019531 24.300781 28.046875 24.257812 C 28.140625 24.089844 28.21875 23.914062 28.28125 23.730469 C 28.28125 23.714844 28.3125 23.671875 28.347656 23.625 C 28.382812 23.585938 28.410156 23.539062 28.425781 23.488281 C 28.453125 23.386719 28.496094 23.289062 28.554688 23.199219 C 28.605469 23.132812 28.746094 23.1875 28.746094 23.265625 C 28.746094 23.304688 28.867188 23.492188 28.886719 23.492188 C 28.894531 23.492188 28.910156 23.476562 28.917969 23.457031 C 28.929688 23.4375 28.953125 23.425781 28.976562 23.429688 C 29.015625 23.433594 29.015625 23.449219 29.023438 23.59375 C 29.035156 23.820312 29.078125 23.851562 29.136719 23.671875 C 29.171875 23.542969 29.203125 23.507812 29.242188 23.558594 C 29.277344 23.605469 29.265625 23.648438 29.222656 23.671875 C 29.175781 23.683594 29.160156 23.738281 29.191406 23.785156 C 29.21875 23.820312 29.261719 23.796875 29.28125 23.722656 C 29.289062 23.695312 29.300781 23.667969 29.320312 23.648438 C 29.328125 23.640625 29.363281 23.664062 29.394531 23.691406 C 29.417969 23.71875 29.441406 23.738281 29.472656 23.753906 C 29.480469 23.753906 29.507812 23.722656 29.527344 23.683594 C 29.617188 23.542969 29.78125 23.457031 29.78125 23.558594 C 29.78125 23.582031 29.773438 23.605469 29.761719 23.628906 C 29.710938 23.722656 29.671875 23.824219 29.648438 23.929688 C 29.640625 23.992188 29.648438 24.023438 29.667969 24.050781 C 29.707031 24.109375 29.703125 24.121094 29.660156 24.105469 C 29.632812 24.097656 29.621094 24.105469 29.601562 24.15625 C 29.585938 24.195312 29.574219 24.230469 29.574219 24.269531 C 29.570312 24.300781 29.5625 24.328125 29.546875 24.355469 C 29.507812 24.402344 29.523438 24.496094 29.574219 24.535156 C 29.601562 24.5625 29.613281 24.589844 29.613281 24.675781 C 29.613281 24.78125 29.628906 24.820312 29.648438 24.75 C 29.660156 24.726562 29.675781 24.707031 29.695312 24.691406 C 29.742188 24.648438 29.738281 24.570312 29.6875 24.535156 C 29.621094 24.496094 29.613281 24.421875 29.664062 24.335938 C 29.710938 24.25 29.757812 24.234375 29.847656 24.277344 C 29.898438 24.308594 29.902344 24.308594 29.933594 24.277344 C 29.945312 24.265625 29.964844 24.253906 29.984375 24.253906 C 30.007812 24.253906 30.007812 24.3125 29.984375 24.363281 C 29.953125 24.421875 29.9375 24.53125 29.957031 24.570312 C 29.964844 24.601562 29.964844 24.621094 29.945312 24.660156 C 29.929688 24.691406 29.917969 24.722656 29.917969 24.757812 C 29.917969 24.785156 29.910156 24.8125 29.894531 24.839844 C 29.878906 24.867188 29.882812 24.886719 29.921875 24.960938 L 29.96875 25.042969 L 29.910156 25.070312 C 29.875 25.082031 29.835938 25.089844 29.796875 25.082031 C 29.710938 25.070312 29.667969 25.160156 29.710938 25.273438 C 29.726562 25.308594 29.738281 25.316406 29.785156 25.316406 C 29.84375 25.316406 29.917969 25.265625 29.917969 25.222656 C 29.917969 25.214844 29.9375 25.1875 29.960938 25.160156 C 30.011719 25.09375 30.066406 25.101562 30.0625 25.171875 C 30.058594 25.234375 30.027344 25.269531 29.972656 25.269531 C 29.945312 25.269531 29.929688 25.28125 29.914062 25.316406 C 29.90625 25.351562 29.886719 25.371094 29.863281 25.371094 C 29.828125 25.371094 29.78125 25.429688 29.78125 25.480469 C 29.78125 25.523438 29.832031 25.539062 29.855469 25.503906 C 29.886719 25.464844 29.921875 25.464844 29.914062 25.515625 C 29.914062 25.539062 29.894531 25.550781 29.867188 25.558594 C 29.824219 25.570312 29.804688 25.597656 29.792969 25.671875 C 29.78125 25.710938 29.773438 25.714844 29.75 25.707031 C 29.683594 25.679688 29.644531 25.679688 29.617188 25.707031 C 29.59375 25.738281 29.589844 25.769531 29.597656 25.964844 C 29.601562 26.085938 29.609375 26.203125 29.625 26.324219 C 29.644531 26.453125 29.644531 26.457031 29.59375 26.566406 C 29.5625 26.632812 29.539062 26.699219 29.515625 26.769531 C 29.492188 26.847656 29.464844 26.929688 29.4375 27.007812 C 29.414062 27.066406 29.398438 27.125 29.382812 27.183594 C 29.339844 27.359375 29.269531 27.523438 29.171875 27.675781 C 29.136719 27.734375 29.101562 27.796875 29.074219 27.859375 C 29.054688 27.90625 29.03125 27.949219 29.007812 27.992188 C 28.945312 28.058594 28.890625 28.132812 28.847656 28.210938 C 28.835938 28.234375 28.8125 28.253906 28.789062 28.269531 C 28.734375 28.304688 28.683594 28.34375 28.640625 28.386719 C 28.578125 28.4375 28.535156 28.507812 28.511719 28.582031 C 28.476562 28.679688 28.441406 28.773438 28.40625 28.867188 C 28.363281 28.984375 28.324219 29.101562 28.292969 29.222656 C 28.269531 29.3125 28.242188 29.40625 28.214844 29.496094 C 28.183594 29.574219 28.179688 29.609375 28.195312 29.644531 C 28.210938 29.691406 28.207031 29.730469 28.15625 29.863281 C 28.136719 29.9375 28.105469 30.007812 28.066406 30.074219 C 28.03125 30.121094 28.007812 30.179688 27.996094 30.238281 C 27.964844 30.421875 27.890625 30.597656 27.78125 30.753906 C 27.78125 30.765625 27.769531 30.78125 27.757812 30.792969 C 27.734375 30.828125 27.714844 30.867188 27.703125 30.90625 C 27.683594 30.96875 27.652344 31.027344 27.617188 31.078125 C 27.582031 31.125 27.554688 31.175781 27.53125 31.234375 C 27.507812 31.296875 27.476562 31.359375 27.441406 31.421875 C 27.414062 31.472656 27.390625 31.523438 27.375 31.582031 C 27.359375 31.625 27.34375 31.667969 27.316406 31.710938 C 27.289062 31.761719 27.261719 31.816406 27.242188 31.871094 C 27.222656 31.921875 27.195312 31.96875 27.160156 32.007812 C 27.132812 32.035156 27.109375 32.0625 27.109375 32.078125 C 27.105469 32.101562 27.09375 32.125 27.078125 32.144531 C 27.054688 32.179688 27.039062 32.214844 27.027344 32.257812 C 27.007812 32.308594 26.984375 32.355469 26.953125 32.398438 C 26.933594 32.421875 26.917969 32.453125 26.90625 32.484375 C 26.847656 32.65625 26.765625 32.820312 26.664062 32.96875 L 26.585938 33.117188 C 26.546875 33.179688 26.511719 33.242188 26.484375 33.308594 C 26.476562 33.339844 26.46875 33.363281 26.457031 33.363281 C 26.429688 33.363281 26.355469 33.507812 26.347656 33.582031 C 26.335938 33.660156 26.261719 33.789062 26.226562 33.804688 C 26.214844 33.804688 26.1875 33.851562 26.164062 33.902344 C 26.128906 34.003906 26.078125 34.101562 26.007812 34.1875 C 25.984375 34.214844 25.96875 34.242188 25.957031 34.273438 C 25.945312 34.316406 25.925781 34.351562 25.902344 34.386719 C 25.882812 34.417969 25.867188 34.453125 25.855469 34.492188 C 25.855469 34.503906 25.847656 34.515625 25.835938 34.523438 C 25.816406 34.558594 25.804688 34.59375 25.796875 34.632812 C 25.785156 34.695312 25.765625 34.757812 25.738281 34.816406 C 25.710938 34.871094 25.6875 34.925781 25.667969 34.980469 C 25.644531 35.050781 25.609375 35.121094 25.566406 35.183594 C 25.53125 35.234375 25.503906 35.289062 25.480469 35.34375 C 25.4375 35.46875 25.375 35.582031 25.292969 35.679688 C 25.261719 35.710938 25.085938 35.714844 25.066406 35.679688 Z M 27.03125 28.359375 C 27.042969 28.335938 27.03125 28.316406 27.003906 28.316406 C 26.996094 28.316406 26.988281 28.332031 26.988281 28.351562 C 26.988281 28.390625 27.015625 28.398438 27.03125 28.359375 Z M 27.125 28.101562 C 27.183594 27.964844 27.167969 27.929688 27.085938 28.027344 C 27.058594 28.058594 27.042969 28.097656 27.042969 28.136719 C 27.042969 28.222656 27.078125 28.214844 27.125 28.101562 Z M 27.152344 27.84375 C 27.195312 27.824219 27.210938 27.804688 27.222656 27.753906 C 27.234375 27.679688 27.222656 27.660156 27.171875 27.660156 C 27.117188 27.660156 27.097656 27.683594 27.066406 27.761719 C 27.03125 27.871094 27.046875 27.886719 27.152344 27.84375 Z M 26.980469 27.675781 C 27 27.644531 26.96875 27.558594 26.941406 27.558594 C 26.921875 27.558594 26.902344 27.640625 26.914062 27.679688 C 26.925781 27.71875 26.949219 27.71875 26.980469 27.675781 Z M 30.078125 25.558594 C 30.050781 25.535156 30.050781 25.480469 30.078125 25.410156 C 30.097656 25.34375 30.105469 25.339844 30.15625 25.394531 C 30.1875 25.425781 30.195312 25.453125 30.195312 25.503906 C 30.1875 25.558594 30.179688 25.570312 30.140625 25.574219 C 30.117188 25.574219 30.085938 25.570312 30.078125 25.558594 Z M 19.421875 22.054688 C 19.382812 21.976562 19.414062 21.902344 19.484375 21.902344 C 19.515625 21.902344 19.523438 21.914062 19.539062 21.96875 C 19.570312 22.105469 19.472656 22.175781 19.417969 22.054688 Z M 19.421875 22.054688 "/>
</g>
</svg>
