<svg xmlns="http://www.w3.org/2000/svg" xmlns:xlink="http://www.w3.org/1999/xlink" width="64" height="64" viewBox="0 0 64 64" version="1.1">
<defs>
<linearGradient id="linear0" gradientUnits="userSpaceOnUse" x1="0" y1="0" x2="0" y2="1" gradientTransform="matrix(64,0,0,64,0,0)">
<stop offset="0" style="stop-color:#ff6666;stop-opacity:1;"/>
<stop offset="1" style="stop-color:#d90000;stop-opacity:1;"/>
</linearGradient>
<linearGradient id="linear1" gradientUnits="userSpaceOnUse" x1="0" y1="0" x2="0" y2="1" gradientTransform="matrix(43.671875,0,0,32.265625,10.164062,15.882812)">
<stop offset="0" style="stop-color:#ff6666;stop-opacity:1;"/>
<stop offset="1" style="stop-color:#d90000;stop-opacity:1;"/>
</linearGradient>
</defs>
<g id="surface1">
<path style=" stroke:none;fill-rule:nonzero;fill:url(#linear0);" d="M 32.578125 0 C 31.433594 0 30.3125 0.0625 29.210938 0.171875 C 12.847656 1.585938 0 15.292969 0 32.015625 C 0 49.679688 14.328125 64 32 64 C 49.671875 64 64 49.679688 64 32.015625 C 64 14.605469 50.082031 0.449219 32.757812 0.046875 C 48.5625 0.445312 61.25 13.375 61.25 29.265625 C 61.25 30.175781 61.207031 31.078125 61.125 31.96875 C 59.761719 46.847656 47.242188 58.5 32 58.5 C 16.757812 58.5 2.875 46.910156 2.875 31.96875 C 2.875 17.027344 17.335938 5.8125 32.578125 5.8125 Z M 29.148438 0.179688 C 28.351562 0.261719 27.574219 0.378906 26.804688 0.515625 C 27.578125 0.378906 28.355469 0.257812 29.148438 0.179688 Z M 26.257812 0.601562 C 25.8125 0.6875 25.386719 0.816406 24.953125 0.921875 C 25.386719 0.8125 25.816406 0.691406 26.257812 0.601562 Z M 26.257812 0.601562 "/>
<path style=" stroke:none;fill-rule:nonzero;fill:url(#linear1);" d="M 24.125 15.882812 C 23.664062 15.882812 23.289062 16.363281 23.289062 16.953125 L 23.289062 47.078125 C 23.289062 47.667969 23.664062 48.148438 24.125 48.148438 C 24.585938 48.148438 24.960938 47.667969 24.960938 47.078125 L 24.960938 16.953125 C 24.960938 16.363281 24.585938 15.882812 24.125 15.882812 Z M 45.125 16.445312 C 44.664062 16.445312 44.289062 16.925781 44.289062 17.515625 L 44.289062 46.523438 C 44.289062 47.113281 44.664062 47.59375 45.125 47.59375 C 45.585938 47.59375 45.960938 47.113281 45.960938 46.523438 L 45.960938 17.507812 C 45.960938 16.917969 45.585938 16.445312 45.125 16.445312 Z M 18.875 18.375 C 18.414062 18.375 18.039062 18.855469 18.039062 19.445312 L 18.039062 44.59375 C 18.039062 45.183594 18.414062 45.65625 18.875 45.65625 C 19.335938 45.65625 19.710938 45.183594 19.710938 44.59375 L 19.710938 19.445312 C 19.710938 18.855469 19.335938 18.375 18.875 18.375 Z M 42.5 20.140625 C 42.039062 20.140625 41.664062 20.621094 41.664062 21.210938 L 41.664062 42.820312 C 41.664062 43.410156 42.039062 43.890625 42.5 43.890625 C 42.960938 43.890625 43.335938 43.410156 43.335938 42.820312 L 43.335938 21.210938 C 43.335938 20.621094 42.960938 20.140625 42.5 20.140625 Z M 21.5 20.796875 C 21.039062 20.796875 20.664062 21.277344 20.664062 21.867188 L 20.664062 42.171875 C 20.664062 42.761719 21.039062 43.234375 21.5 43.234375 C 21.960938 43.234375 22.335938 42.761719 22.335938 42.171875 L 22.335938 21.867188 C 22.335938 21.277344 21.960938 20.796875 21.5 20.796875 Z M 16.25 21.890625 C 15.789062 21.890625 15.414062 22.363281 15.414062 22.953125 L 15.414062 41.078125 C 15.414062 41.667969 15.789062 42.148438 16.25 42.148438 C 16.710938 42.148438 17.085938 41.667969 17.085938 41.078125 L 17.085938 22.953125 C 17.085938 22.363281 16.710938 21.890625 16.25 21.890625 Z M 47.75 23.804688 C 47.289062 23.804688 46.914062 24.285156 46.914062 24.875 L 46.914062 39.15625 C 46.914062 39.746094 47.289062 40.226562 47.75 40.226562 C 48.210938 40.226562 48.585938 39.746094 48.585938 39.15625 L 48.585938 24.875 C 48.585938 24.285156 48.210938 23.804688 47.75 23.804688 Z M 39.875 24.109375 C 39.414062 24.109375 39.039062 24.589844 39.039062 25.179688 L 39.039062 38.851562 C 39.039062 39.441406 39.414062 39.921875 39.875 39.921875 C 40.335938 39.921875 40.710938 39.441406 40.710938 38.851562 L 40.710938 25.179688 C 40.710938 24.589844 40.335938 24.109375 39.875 24.109375 Z M 26.75 24.765625 C 26.289062 24.765625 25.914062 25.246094 25.914062 25.835938 L 25.914062 38.195312 C 25.914062 38.785156 26.289062 39.265625 26.75 39.265625 C 27.210938 39.265625 27.585938 38.785156 27.585938 38.195312 L 27.585938 25.835938 C 27.585938 25.246094 27.210938 24.765625 26.75 24.765625 Z M 11 26.53125 C 10.539062 26.53125 10.164062 27.011719 10.164062 27.601562 L 10.164062 36.429688 C 10.164062 37.019531 10.539062 37.5 11 37.5 C 11.460938 37.5 11.835938 37.019531 11.835938 36.429688 L 11.835938 27.601562 C 11.835938 27.011719 11.460938 26.53125 11 26.53125 Z M 34.625 27.273438 C 34.164062 27.273438 33.789062 27.753906 33.789062 28.34375 L 33.789062 35.6875 C 33.789062 36.277344 34.164062 36.757812 34.625 36.757812 C 35.085938 36.757812 35.460938 36.277344 35.460938 35.6875 L 35.460938 28.34375 C 35.460938 27.753906 35.085938 27.273438 34.625 27.273438 Z M 29.375 27.429688 C 28.914062 27.429688 28.539062 27.910156 28.539062 28.5 L 28.539062 35.53125 C 28.539062 36.121094 28.914062 36.601562 29.375 36.601562 C 29.835938 36.601562 30.210938 36.128906 30.210938 35.539062 L 30.210938 28.5 C 30.210938 27.910156 29.835938 27.429688 29.375 27.429688 Z M 13.625 29.078125 C 13.164062 29.078125 12.789062 29.558594 12.789062 30.148438 L 12.789062 33.890625 C 12.789062 34.480469 13.164062 34.953125 13.625 34.953125 C 14.085938 34.953125 14.460938 34.480469 14.460938 33.890625 L 14.460938 30.148438 C 14.460938 29.558594 14.085938 29.078125 13.625 29.078125 Z M 50.375 29.078125 C 49.914062 29.078125 49.539062 29.558594 49.539062 30.148438 L 49.539062 33.890625 C 49.539062 34.480469 49.914062 34.953125 50.375 34.953125 C 50.835938 34.953125 51.210938 34.480469 51.210938 33.890625 L 51.210938 30.148438 C 51.210938 29.558594 50.835938 29.078125 50.375 29.078125 Z M 32 29.960938 C 31.539062 29.960938 31.164062 30.441406 31.164062 31.03125 L 31.164062 33.007812 C 31.164062 33.597656 31.539062 34.070312 32 34.070312 C 32.460938 34.070312 32.835938 33.597656 32.835938 33.007812 L 32.835938 31.03125 C 32.835938 30.441406 32.460938 29.960938 32 29.960938 Z M 37.25 29.960938 C 36.789062 29.960938 36.414062 30.441406 36.414062 31.03125 L 36.414062 33.007812 C 36.414062 33.597656 36.789062 34.070312 37.25 34.070312 C 37.710938 34.070312 38.085938 33.597656 38.085938 33.007812 L 38.085938 31.03125 C 38.085938 30.441406 37.710938 29.960938 37.25 29.960938 Z M 53 30.328125 C 52.539062 30.328125 52.164062 30.808594 52.164062 31.398438 L 52.164062 32.632812 C 52.164062 33.222656 52.539062 33.703125 53 33.703125 C 53.460938 33.703125 53.835938 33.222656 53.835938 32.632812 L 53.835938 31.398438 C 53.835938 30.808594 53.460938 30.328125 53 30.328125 Z M 53 30.328125 "/>
</g>
</svg>
