<svg xmlns="http://www.w3.org/2000/svg" xmlns:xlink="http://www.w3.org/1999/xlink" width="64" height="64" viewBox="0 0 64 64" version="1.1">
<defs> <linearGradient id="linear0" gradientUnits="userSpaceOnUse" x1="0" y1="0" x2="0" y2="1" gradientTransform="matrix(55.992188,0,0,56,4.003906,4)"> <stop offset="0" style="stop-color:#ff6666;stop-opacity:1;"/> <stop offset="1" style="stop-color:#d90000;stop-opacity:1;"/> </linearGradient> </defs>
<g id="surface1">
<path style=" stroke:none;fill-rule:nonzero;fill:url(#linear0);fill-opacity:1;" d="M 29.699219 3.597656 C 27.425781 3.941406 25.171875 4.496094 22.992188 5.265625 C 20.777344 6.167969 18.671875 7.410156 16.789062 8.953125 C 15.097656 10.359375 13.480469 11.910156 12.269531 13.820312 C 10.953125 15.613281 9.949219 17.65625 9.175781 19.777344 C 8.3125 21.980469 8.101562 24.410156 7.984375 26.773438 C 7.761719 29.3125 8.050781 31.914062 8.761719 34.34375 C 9.453125 36.800781 10.527344 39.140625 11.929688 41.222656 C 12.605469 42.1875 13.054688 43.355469 13.082031 44.570312 C 15.035156 44.625 16.472656 46.300781 17.925781 47.480469 C 19.804688 48.75 21.84375 49.789062 23.964844 50.523438 C 26.71875 51.609375 29.648438 51.988281 32.550781 52.324219 C 34.683594 52.570312 36.855469 52.917969 38.996094 52.53125 C 41.046875 52.25 43.125 51.910156 45.054688 51.097656 C 47.070312 50.195312 48.882812 48.839844 50.519531 47.308594 C 52.101562 45.859375 53.308594 44.03125 54.351562 42.121094 C 55.578125 40.160156 56.253906 37.890625 56.578125 35.570312 C 56.988281 33.394531 56.976562 31.097656 56.777344 28.894531 C 56.414062 26.488281 55.742188 24.164062 54.960938 21.890625 C 54.140625 19.65625 53 17.578125 51.570312 15.722656 C 50.136719 13.628906 48.453125 11.761719 46.804688 9.863281 C 45.316406 8.160156 43.425781 6.859375 41.472656 5.851562 C 39.625 4.867188 37.605469 4.394531 35.578125 4.105469 C 33.636719 3.800781 31.664062 3.425781 29.699219 3.597656 Z M 32.335938 5.902344 C 34.578125 6.039062 36.890625 6.28125 38.980469 7.222656 C 40.925781 8.160156 42.859375 9.253906 44.449219 10.789062 C 46.546875 12.667969 48.367188 14.867188 49.957031 17.242188 C 51.28125 19 52.121094 21.117188 52.933594 23.1875 C 53.566406 25.574219 54.429688 27.9375 54.503906 30.449219 C 54.679688 32.929688 54.3125 35.425781 53.578125 37.777344 C 52.886719 39.898438 51.777344 41.878906 50.484375 43.648438 C 49.660156 44.820312 48.582031 45.75 47.464844 46.589844 C 47.558594 44.429688 47.195312 42.269531 47.429688 40.117188 C 47.683594 37.785156 48.972656 35.742188 49.285156 33.410156 C 49.757812 31.257812 49.460938 28.972656 48.929688 26.855469 C 48.378906 25.472656 48.496094 23.65625 49.824219 22.824219 C 49.554688 20.917969 47.507812 20.398438 46.566406 18.941406 C 44.792969 17.230469 43.035156 15.507812 41.375 13.675781 C 40.902344 13.265625 40.339844 12.375 39.898438 12.238281 C 40.097656 13.136719 38.472656 13.070312 38.410156 12.238281 C 36.707031 11.09375 34.65625 10.835938 32.691406 10.695312 C 30.191406 10.554688 27.675781 10.949219 25.308594 11.808594 C 23.144531 12.722656 21.335938 14.285156 19.5 15.765625 C 17.769531 17.546875 16.195312 19.597656 15.445312 22.066406 C 14.621094 24.132812 14.367188 26.359375 14.367188 28.578125 C 14.292969 31.035156 15.367188 33.242188 16.160156 35.46875 C 16.957031 37.5625 15.5625 39.542969 14.503906 41.1875 C 13.328125 39.164062 11.917969 37.230469 11.257812 34.921875 C 10.375 32.550781 10.175781 29.96875 10.042969 27.445312 C 10.105469 25.183594 10.480469 22.910156 11.179688 20.773438 C 11.871094 18.71875 12.859375 16.78125 14.132812 15.070312 C 15.4375 13.113281 17.144531 11.492188 18.960938 10.078125 C 20.929688 8.855469 22.914062 7.503906 25.171875 6.984375 C 27.246094 6.253906 29.4375 5.964844 31.613281 5.902344 C 31.851562 5.894531 32.097656 5.910156 32.335938 5.902344 Z M 7.007812 10.441406 C 4.894531 11.585938 4.195312 14.171875 3.371094 16.347656 C 2.597656 18.714844 1.902344 21.132812 1.660156 23.632812 C 1.316406 26.132812 1.402344 28.660156 1.644531 31.167969 C 1.859375 33.890625 2.621094 36.515625 3.429688 39.101562 C 4.25 41.308594 5.335938 43.394531 6.488281 45.425781 C 7.941406 47.878906 9.980469 49.847656 11.933594 51.84375 C 13.667969 53.5 15.742188 54.660156 17.761719 55.847656 C 19.714844 56.960938 21.863281 57.601562 24.007812 58.160156 C 25.492188 58.265625 26.898438 59.539062 28.347656 58.542969 C 30.273438 57.476562 29.035156 54.589844 27.269531 54.222656 C 25.144531 53.675781 22.996094 53.125 20.964844 52.253906 C 19.046875 51.441406 17.25 50.332031 15.582031 49.039062 C 13.945312 47.523438 12.316406 45.988281 10.988281 44.144531 C 9.726562 42.445312 8.738281 40.550781 7.972656 38.546875 C 6.765625 35.730469 6.160156 32.664062 5.824219 29.605469 C 5.582031 27.308594 6.007812 25.011719 6.300781 22.746094 C 6.683594 20.4375 7.148438 18.085938 8.289062 16.054688 C 9.101562 14.453125 9.835938 12.335938 8.476562 10.808594 C 8.101562 10.441406 7.503906 10.28125 7.007812 10.441406 Z M 56.105469 11.949219 C 53.988281 13.222656 55.078125 16.242188 56.003906 18.023438 C 57.066406 20.308594 57.84375 22.71875 58.605469 25.132812 C 58.855469 27.191406 59.523438 29.226562 59.28125 31.324219 C 59.03125 33.503906 59.03125 35.71875 58.457031 37.855469 C 58.121094 40.097656 56.90625 42.03125 56.039062 44.066406 C 55.023438 46.273438 53.628906 48.296875 51.785156 49.789062 C 50.144531 51.304688 48.34375 52.652344 46.332031 53.550781 C 44.386719 54.550781 42.289062 55.222656 40.125 55.371094 C 38.171875 55.777344 35.78125 54.652344 34.226562 56.382812 C 33.152344 58.542969 35.957031 60.535156 37.792969 59.878906 C 40.058594 59.667969 42.359375 59.640625 44.5625 58.972656 C 46.621094 58.652344 48.523438 57.578125 50.308594 56.457031 C 52.8125 54.800781 55.179688 52.832031 57.039062 50.367188 C 58.34375 48.730469 59.535156 46.972656 60.367188 45.003906 C 61.597656 42.375 62.183594 39.480469 62.863281 36.652344 C 63.160156 34.261719 63.445312 31.863281 63.472656 29.449219 C 63.261719 26.964844 62.871094 24.515625 62.257812 22.105469 C 61.605469 19.675781 60.511719 17.414062 59.691406 15.046875 C 58.839844 13.753906 57.871094 11.617188 56.105469 11.949219 Z M 31.863281 12.886719 C 33.851562 12.835938 35.871094 13.363281 37.609375 14.386719 C 39.222656 15.210938 41.300781 16.417969 41.113281 18.652344 C 39.460938 19.488281 38.675781 17.089844 37.332031 16.558594 C 35.578125 15.507812 33.527344 15.28125 31.542969 15.230469 C 29.625 15.144531 27.699219 15.671875 25.957031 16.507812 C 24.058594 17.433594 22.453125 18.960938 21.054688 20.589844 C 19.867188 21.992188 19.628906 24.5 17.570312 24.882812 C 17.300781 24.957031 16.695312 25.058594 17.0625 24.5 C 17.246094 22.457031 18.511719 20.8125 19.589844 19.21875 C 20.878906 17.445312 22.613281 16.105469 24.367188 14.914062 C 26.292969 13.695312 28.535156 13.082031 30.746094 12.84375 C 31.113281 12.769531 31.488281 12.882812 31.863281 12.886719 Z M 32.0625 17.351562 C 34.089844 17.734375 36.117188 18.375 37.773438 19.703125 C 38.820312 20.476562 38.75 21.964844 38.074219 22.972656 C 36.917969 24.902344 39.40625 26.160156 40.035156 27.722656 C 40.582031 29.011719 41.453125 30.109375 42.125 31.324219 C 41.425781 33.453125 39.71875 34.949219 38.070312 36.257812 C 36.660156 37.472656 34.878906 38.101562 33.078125 38.164062 C 31.074219 38.117188 29 37.902344 27.144531 37.046875 C 25.304688 36.335938 23.871094 34.769531 22.71875 33.132812 C 22.191406 32.09375 20.875 31.046875 21.460938 29.734375 C 23.480469 29.832031 25.054688 32.066406 27.199219 31.828125 C 28.074219 30.097656 27.710938 28.0625 27.472656 26.210938 L 23.554688 26.210938 C 24.929688 23.765625 26.296875 21.316406 27.671875 18.867188 C 26.210938 19.753906 24.746094 20.640625 23.28125 21.53125 C 24.667969 20.105469 26.234375 18.808594 28.050781 18.089844 C 29.363281 17.703125 30.683594 17.269531 32.0625 17.351562 Z M 46.246094 26.066406 C 46.667969 26.421875 46.601562 27.445312 46.84375 28.035156 C 47.078125 28.921875 47.039062 29.871094 46.789062 30.75 C 45.207031 30.042969 44.324219 27.332031 46.042969 26.28125 L 46.179688 26.066406 Z M 16.726562 26.855469 C 18.507812 27.773438 19.277344 29.96875 19.164062 31.96875 C 19.277344 32.675781 18.863281 33.8125 18.011719 33.410156 C 16.609375 32.824219 17.277344 30.859375 16.757812 29.65625 C 16.5625 28.707031 16.484375 27.75 16.53125 26.785156 Z M 25.984375 39.101562 C 28.375 39.710938 30.753906 40.679688 33.25 40.609375 C 34.953125 40.53125 36.882812 40.335938 38.273438 41.617188 C 38.324219 42.855469 36.742188 42.460938 35.992188 42.730469 C 33.855469 42.894531 31.652344 43.148438 29.5625 42.484375 C 27.449219 41.945312 25.148438 41.492188 23.488281 39.894531 C 23.058594 39.507812 24.078125 39.496094 24.230469 39.242188 C 24.796875 39.0625 25.394531 38.972656 25.984375 39.101562 Z M 20.851562 41.328125 C 22.832031 42.054688 24.527344 43.550781 26.617188 43.980469 C 28.839844 44.839844 31.164062 45.320312 33.527344 45.445312 C 35.828125 45.742188 38.109375 45.230469 40.285156 44.492188 C 42.601562 43.875 44.65625 45.484375 46.371094 46.933594 L 46.652344 47.164062 C 44.957031 48.792969 42.566406 49.183594 40.4375 49.828125 C 38.308594 50.402344 36.078125 50.378906 33.894531 50.226562 C 31.625 50.074219 29.390625 49.511719 27.148438 49.089844 C 24.980469 48.613281 22.867188 47.777344 20.898438 46.703125 C 19.390625 45.746094 17.457031 44.902344 16.796875 43.058594 C 18.058594 42.464844 19.328125 41.195312 20.851562 41.328125 Z M 20.851562 41.328125 "/>
</g>
</svg>
