<svg xmlns="http://www.w3.org/2000/svg" xmlns:xlink="http://www.w3.org/1999/xlink" width="64" height="64" viewBox="0 0 64 64" version="1.1">
<defs> <linearGradient id="linear0" gradientUnits="userSpaceOnUse" x1="0" y1="0" x2="0" y2="1" gradientTransform="matrix(55.992188,0,0,56,4.003906,4)"> <stop offset="0" style="stop-color:#ff6666;stop-opacity:1;"/> <stop offset="1" style="stop-color:#d90000;stop-opacity:1;"/> </linearGradient> </defs>
<g id="surface1">
<path style=" stroke:none;fill-rule:nonzero;fill:url(#linear0);fill-opacity:1;" d="M 32.148438 7.714844 C 25.246094 7.714844 18.964844 10.660156 14.558594 15.117188 C 10.179688 19.550781 7.488281 25.636719 7.488281 32.265625 C 7.488281 38.890625 10.167969 44.972656 14.558594 49.417969 C 18.964844 53.871094 25.246094 56.636719 32.148438 56.636719 C 39.042969 56.636719 45.164062 53.863281 49.546875 49.417969 C 53.9375 44.972656 56.625 38.890625 56.625 32.265625 C 56.625 25.628906 53.925781 19.550781 49.546875 15.117188 C 45.164062 10.671875 39.042969 7.714844 32.148438 7.714844 M 32.148438 16.738281 C 36.117188 16.738281 39.710938 18.453125 42.476562 21.253906 C 45.226562 24.035156 47.007812 27.910156 47.007812 32.265625 C 47.007812 33.011719 46.957031 33.738281 46.859375 34.453125 C 45.238281 32.09375 42.511719 30.542969 39.421875 30.542969 C 34.445312 30.542969 30.414062 34.554688 30.414062 39.507812 C 30.414062 42.867188 32.273438 45.792969 35.015625 47.328125 C 34.089844 47.511719 33.128906 47.605469 32.148438 47.605469 C 28.148438 47.605469 24.546875 46.046875 21.8125 43.273438 C 19.089844 40.519531 17.285156 36.652344 17.285156 32.265625 C 17.285156 27.875 19.078125 24.019531 21.8125 21.253906 C 24.558594 18.46875 28.175781 16.738281 32.148438 16.738281 "/>
</g>
</svg>
