<svg xmlns="http://www.w3.org/2000/svg" xmlns:xlink="http://www.w3.org/1999/xlink" width="64" height="64" viewBox="0 0 64 64" version="1.1">
<defs> <linearGradient id="linear0" gradientUnits="userSpaceOnUse" x1="0" y1="0" x2="0" y2="1" gradientTransform="matrix(55.992188,0,0,56,4.003906,4)"> <stop offset="0" style="stop-color:#ff6666;stop-opacity:1;"/> <stop offset="1" style="stop-color:#d90000;stop-opacity:1;"/> </linearGradient> </defs>
<g id="surface1">
<path style=" stroke:none;fill-rule:nonzero;fill:url(#linear0);fill-opacity:1;" d="M 26.179688 60.191406 C 15.367188 59.398438 7.488281 56.605469 5.761719 52.941406 C 3.910156 49.003906 8.359375 45.417969 17.449219 43.507812 C 18.734375 43.234375 19.8125 43.046875 19.851562 43.082031 C 19.890625 43.121094 19.214844 43.34375 18.359375 43.570312 C 12.980469 45.003906 10.503906 48.003906 12.417969 50.757812 C 14.171875 53.277344 20.242188 55.152344 28.144531 55.609375 L 30.390625 55.738281 L 30.253906 54.90625 C 30.035156 53.605469 29.125 50.566406 28.257812 48.25 C 27.0625 45.066406 25.148438 41.3125 22.375 36.699219 C 19.371094 31.703125 17.03125 27.050781 16.480469 24.992188 C 15.871094 22.71875 15.90625 18.847656 16.558594 16.382812 C 17.347656 13.410156 18.683594 11.039062 20.855469 8.769531 C 24.894531 4.5625 30.75 2.972656 36.285156 4.585938 C 39.167969 5.417969 41.226562 6.660156 43.261719 8.769531 C 46.066406 11.699219 47.53125 14.828125 48.015625 18.921875 C 48.28125 21.207031 48.066406 23.621094 47.40625 25.75 C 46.765625 27.824219 44.804688 31.699219 42.238281 35.992188 C 38.574219 42.109375 37.132812 44.949219 35.632812 48.976562 C 35.132812 50.332031 33.765625 55.140625 33.765625 55.5625 C 33.765625 55.800781 37.519531 55.546875 40.589844 55.105469 C 46.617188 54.234375 50.574219 52.566406 51.714844 50.40625 C 53.175781 47.652344 50.976562 45.179688 45.617188 43.5625 C 43.460938 42.914062 43.761719 42.894531 46.683594 43.511719 C 52.953125 44.828125 57.164062 47 58.351562 49.535156 C 60.457031 54.042969 54.402344 58.011719 42.960938 59.628906 C 37.734375 60.367188 31.472656 60.574219 26.179688 60.191406 M 34.019531 19.035156 C 35.996094 18.296875 37.320312 16.683594 37.761719 14.464844 C 37.933594 13.636719 37.917969 13.214844 37.671875 12.261719 C 36.921875 9.363281 34.445312 7.527344 31.589844 7.753906 C 29.363281 7.933594 27.730469 9.015625 26.75 10.960938 C 26.257812 11.945312 26.179688 12.324219 26.179688 13.5625 C 26.179688 14.804688 26.257812 15.179688 26.757812 16.175781 C 28.113281 18.878906 31.1875 20.085938 34.019531 19.035156 "/>
</g>
</svg>
