<svg xmlns="http://www.w3.org/2000/svg" xmlns:xlink="http://www.w3.org/1999/xlink" width="64" height="64" viewBox="0 0 64 64" version="1.1">
<defs> <linearGradient id="linear0" gradientUnits="userSpaceOnUse" x1="0" y1="0" x2="0" y2="1" gradientTransform="matrix(55.992188,0,0,56,4.003906,4)"> <stop offset="0" style="stop-color:#ff6666;stop-opacity:1;"/> <stop offset="1" style="stop-color:#d90000;stop-opacity:1;"/> </linearGradient> </defs>
<g id="surface1">
<path style=" stroke:none;fill-rule:nonzero;fill:url(#linear0);fill-opacity:1;" d="M 24.847656 2.664062 C 22.605469 2.664062 20.789062 4.472656 20.789062 6.707031 C 20.789062 8.941406 22.605469 10.757812 24.847656 10.757812 C 27.09375 10.757812 28.914062 8.941406 28.914062 6.707031 C 28.914062 4.472656 27.09375 2.664062 24.847656 2.664062 Z M 37.042969 2.664062 C 34.800781 2.664062 32.980469 4.472656 32.980469 6.707031 C 32.980469 8.941406 34.800781 10.757812 37.042969 10.757812 C 39.285156 10.757812 41.109375 8.941406 41.109375 6.707031 C 41.109375 4.472656 39.285156 2.664062 37.042969 2.664062 Z M 30.949219 14.804688 C 18.601562 14.804688 8.589844 24.769531 8.589844 37.066406 C 8.589844 49.359375 18.601562 59.324219 30.949219 59.324219 C 43.292969 59.324219 53.300781 49.359375 53.300781 37.066406 C 53.300781 24.769531 43.292969 14.804688 30.949219 14.804688 Z M 30.949219 22.898438 C 38.800781 22.898438 45.175781 29.238281 45.175781 37.066406 C 45.175781 44.886719 38.800781 51.230469 30.949219 51.230469 C 23.089844 51.230469 16.722656 44.886719 16.722656 37.066406 C 16.722656 29.238281 23.089844 22.898438 30.949219 22.898438 Z M 30.949219 22.898438 "/>
</g>
</svg>
