<svg xmlns="http://www.w3.org/2000/svg" xmlns:xlink="http://www.w3.org/1999/xlink" width="64" height="64" viewBox="0 0 64 64" version="1.1">
<defs>
<linearGradient id="linear0" gradientUnits="userSpaceOnUse" x1="0" y1="0" x2="0" y2="1" gradientTransform="matrix(64,0,0,48.757812,0,7.621094)">
<stop offset="0" style="stop-color:#ff6666;stop-opacity:1;"/>
<stop offset="1" style="stop-color:#d90000;stop-opacity:1;"/>
</linearGradient>
</defs>
<g id="surface1">
<path style=" stroke:none;fill-rule:nonzero;fill:url(#linear0);" d="M 33.523438 7.621094 C 28.476562 7.621094 24.378906 11.710938 24.378906 16.761719 C 24.378906 17.46875 24.515625 18.105469 24.667969 18.761719 L 14.855469 24.855469 C 13.292969 23.605469 11.304688 22.855469 9.144531 22.855469 C 4.09375 22.855469 0 26.953125 0 32 C 0 37.050781 4.09375 41.144531 9.144531 41.144531 C 11.304688 41.144531 13.292969 40.394531 14.855469 39.144531 L 24.667969 45.238281 C 24.515625 45.894531 24.378906 46.535156 24.378906 47.238281 C 24.378906 52.289062 28.472656 56.378906 33.523438 56.378906 C 38.570312 56.378906 42.664062 52.289062 42.664062 47.238281 C 42.664062 42.1875 38.570312 38.097656 33.523438 38.097656 C 31.363281 38.097656 29.371094 38.839844 27.808594 40.097656 L 18 34 C 18.152344 33.339844 18.285156 32.703125 18.285156 32 C 18.285156 31.296875 18.152344 30.660156 18 30 L 27.808594 23.90625 C 29.371094 25.160156 31.363281 25.902344 33.523438 25.902344 C 38.570312 25.902344 42.664062 21.8125 42.664062 16.765625 C 42.664062 11.710938 38.570312 7.621094 33.523438 7.621094 Z M 54.855469 7.621094 C 49.808594 7.621094 45.714844 11.710938 45.714844 16.761719 C 45.714844 21.8125 49.808594 25.902344 54.855469 25.902344 C 59.90625 25.902344 64 21.8125 64 16.761719 C 64 11.710938 59.90625 7.621094 54.855469 7.621094 Z M 54.855469 38.097656 C 49.808594 38.097656 45.714844 42.1875 45.714844 47.238281 C 45.714844 52.289062 49.808594 56.378906 54.855469 56.378906 C 59.90625 56.378906 64 52.289062 64 47.238281 C 64 42.1875 59.90625 38.097656 54.855469 38.097656 Z M 54.855469 38.097656 "/>
</g>
</svg>
