<svg xmlns="http://www.w3.org/2000/svg" xmlns:xlink="http://www.w3.org/1999/xlink" width="64" height="64" viewBox="0 0 64 64" version="1.1">
<defs>
<linearGradient id="linear0" gradientUnits="userSpaceOnUse" x1="0" y1="0" x2="0" y2="1" gradientTransform="matrix(64,0,0,61.21875,0,1.390625)">
<stop offset="0" style="stop-color:#ff6666;stop-opacity:1;"/>
<stop offset="1" style="stop-color:#d90000;stop-opacity:1;"/>
</linearGradient>
</defs>
<g id="surface1">
<path style=" stroke:none;fill-rule:evenodd;fill:url(#linear0);" d="M 32 1.390625 C 34.304688 1.390625 36.171875 3.261719 36.171875 5.5625 L 36.171875 58.4375 C 36.171875 60.738281 34.304688 62.609375 32 62.609375 C 29.695312 62.609375 27.828125 60.738281 27.828125 58.4375 L 27.828125 5.5625 C 27.828125 3.261719 29.695312 1.390625 32 1.390625 Z M 18.089844 12.519531 C 20.390625 12.519531 22.261719 14.390625 22.261719 16.695312 L 22.261719 47.304688 C 22.261719 49.609375 20.390625 51.480469 18.089844 51.480469 C 15.785156 51.480469 13.910156 49.609375 13.910156 47.304688 L 13.910156 16.695312 C 13.910156 14.390625 15.785156 12.519531 18.089844 12.519531 Z M 45.910156 4.171875 C 48.214844 4.171875 50.089844 6.042969 50.089844 8.347656 L 50.089844 55.652344 C 50.089844 57.957031 48.214844 59.828125 45.910156 59.828125 C 43.609375 59.828125 41.738281 57.957031 41.738281 55.652344 L 41.738281 8.347656 C 41.738281 6.042969 43.609375 4.171875 45.910156 4.171875 Z M 4.171875 9.738281 C 6.476562 9.738281 8.347656 11.609375 8.347656 13.910156 L 8.347656 50.089844 C 8.347656 52.390625 6.476562 54.261719 4.171875 54.261719 C 1.871094 54.261719 0 52.390625 0 50.089844 L 0 13.910156 C 0 11.609375 1.871094 9.738281 4.171875 9.738281 Z M 59.828125 9.738281 C 62.128906 9.738281 64 11.609375 64 13.910156 L 64 50.089844 C 64 52.390625 62.128906 54.261719 59.828125 54.261719 C 57.523438 54.261719 55.652344 52.390625 55.652344 50.089844 L 55.652344 13.910156 C 55.652344 11.609375 57.523438 9.738281 59.828125 9.738281 Z M 59.828125 9.738281 "/>
</g>
</svg>
