<svg xmlns="http://www.w3.org/2000/svg" xmlns:xlink="http://www.w3.org/1999/xlink" width="64" height="64" viewBox="0 0 64 64" version="1.1">
<defs> <linearGradient id="linear0" gradientUnits="userSpaceOnUse" x1="0" y1="0" x2="0" y2="1" gradientTransform="matrix(55.992188,0,0,56,4.003906,4)"> <stop offset="0" style="stop-color:#ff6666;stop-opacity:1;"/> <stop offset="1" style="stop-color:#d90000;stop-opacity:1;"/> </linearGradient> </defs>
<g id="surface1">
<path style=" stroke:none;fill-rule:nonzero;fill:url(#linear0);fill-opacity:1;" d="M 25.753906 25.4375 L 25.746094 25.4375 C 23.90625 25.4375 22.40625 23.945312 22.40625 22.113281 C 22.402344 20.273438 23.902344 18.78125 25.746094 18.78125 C 27.59375 18.78125 29.089844 20.269531 29.089844 22.101562 C 29.089844 23.9375 27.59375 25.433594 25.753906 25.4375 Z M 25.753906 25.4375 "/>
<path style=" stroke:none;fill-rule:nonzero;fill:url(#linear0);fill-opacity:1;" d="M 34.777344 22.996094 C 33.0625 22.996094 31.660156 21.601562 31.660156 19.894531 C 31.660156 18.175781 33.054688 16.785156 34.777344 16.785156 C 36.496094 16.785156 37.894531 18.175781 37.898438 19.882812 C 37.898438 21.597656 36.503906 22.996094 34.78125 22.996094 Z M 34.777344 22.996094 "/>
<path style=" stroke:none;fill-rule:nonzero;fill:url(#linear0);fill-opacity:1;" d="M 32.210938 14.128906 C 32.210938 15.652344 30.964844 16.898438 29.425781 16.898438 C 27.886719 16.898438 26.636719 15.652344 26.636719 14.128906 C 26.636719 12.59375 27.886719 11.351562 29.425781 11.351562 C 30.964844 11.351562 32.210938 12.59375 32.210938 14.128906 Z M 32.210938 14.128906 "/>
<path style=" stroke:none;fill-rule:nonzero;fill:url(#linear0);fill-opacity:1;" d="M 36.445312 9.46875 C 36.445312 10.875 35.296875 12.015625 33.882812 12.015625 C 32.464844 12.015625 31.316406 10.875 31.316406 9.46875 C 31.316406 8.058594 32.464844 6.910156 33.882812 6.910156 C 35.296875 6.910156 36.445312 8.058594 36.445312 9.46875 Z M 36.445312 9.46875 "/>
<path style=" stroke:none;fill-rule:nonzero;fill:url(#linear0);fill-opacity:1;" d="M 30.652344 4.914062 C 30.652344 6.140625 29.652344 7.136719 28.421875 7.136719 C 27.195312 7.136719 26.195312 6.140625 26.195312 4.914062 C 26.195312 3.691406 27.195312 2.699219 28.421875 2.699219 C 29.652344 2.699219 30.652344 3.691406 30.652344 4.914062 Z M 30.652344 4.914062 "/>
<path style=" stroke:none;fill-rule:nonzero;fill:url(#linear0);fill-opacity:1;" d="M 16.4375 28.433594 C 13.554688 32.15625 11.214844 36.339844 11.214844 41.414062 C 11.214844 52.402344 19.589844 61.46875 29.976562 61.46875 C 40.363281 61.46875 48.742188 52.402344 48.742188 41.414062 C 48.742188 36.339844 46.394531 32.285156 43.351562 28.433594 C 42.210938 27.242188 40.558594 27.417969 39.359375 28.179688 C 35.84375 29.992188 33.945312 30.714844 29.976562 30.695312 C 26.136719 30.679688 24.117188 30.058594 20.605469 28.148438 C 19.402344 27.417969 17.582031 27.242188 16.4375 28.433594 Z M 18.941406 31.523438 C 22.582031 33.523438 25.832031 34.542969 29.976562 34.542969 C 34.128906 34.542969 37.371094 33.523438 41.011719 31.523438 C 43 34.3125 44.878906 37.773438 44.878906 41.414062 C 44.878906 50.421875 38.207031 57.621094 29.976562 57.621094 C 21.75 57.621094 14.804688 50.421875 14.804688 41.414062 C 14.804688 37.777344 16.949219 34.316406 18.941406 31.523438 Z M 18.941406 31.523438 "/>
</g>
</svg>
