<svg xmlns="http://www.w3.org/2000/svg" xmlns:xlink="http://www.w3.org/1999/xlink" width="64" height="64" viewBox="0 0 64 64" version="1.1">
<defs>
<linearGradient id="linear0" gradientUnits="userSpaceOnUse" x1="0" y1="0" x2="0" y2="1" gradientTransform="matrix(64,0,0,64,0,0)">
<stop offset="0" style="stop-color:#ff6666;stop-opacity:1;"/>
<stop offset="1" style="stop-color:#d90000;stop-opacity:1;"/>
</linearGradient>
</defs>
<g id="surface1">
<path style=" stroke:none;fill-rule:nonzero;fill:url(#linear0);" d="M 32 0 C 14.328125 0 0 14.328125 0 32 C 0 40.488281 3.371094 48.628906 9.371094 54.628906 C 15.371094 60.628906 23.511719 64 32 64 C 49.671875 64 64 49.671875 64 32 C 64 14.328125 49.671875 0 32 0 Z M 32 9.601562 C 35.542969 9.601562 38.398438 12.171875 38.398438 15.363281 L 38.398438 42.234375 C 38.398438 45.429688 35.542969 48 32 48 C 28.457031 48 25.601562 45.429688 25.601562 42.234375 L 25.601562 15.363281 C 25.601562 12.171875 28.457031 9.601562 32 9.601562 Z M 12.800781 22.398438 C 16.34375 22.398438 19.199219 25.257812 19.199219 28.800781 L 19.199219 41.601562 C 19.199219 45.144531 16.34375 48 12.800781 48 C 9.257812 48 6.398438 45.144531 6.398438 41.601562 L 6.398438 28.800781 C 6.398438 25.257812 9.257812 22.398438 12.800781 22.398438 Z M 51.199219 22.398438 C 54.742188 22.398438 57.601562 25.257812 57.601562 28.800781 L 57.601562 41.601562 C 57.601562 45.144531 54.742188 48 51.199219 48 C 47.65625 48 44.800781 45.144531 44.800781 41.601562 L 44.800781 28.800781 C 44.800781 25.257812 47.65625 22.398438 51.199219 22.398438 Z M 51.199219 22.398438 "/>
</g>
</svg>
