<svg xmlns="http://www.w3.org/2000/svg" xmlns:xlink="http://www.w3.org/1999/xlink" width="64" height="64" viewBox="0 0 64 64" version="1.1">
<defs> <linearGradient id="linear0" gradientUnits="userSpaceOnUse" x1="0" y1="0" x2="0" y2="1" gradientTransform="matrix(55.992188,0,0,56,4.003906,4)"> <stop offset="0" style="stop-color:#ff6666;stop-opacity:1;"/> <stop offset="1" style="stop-color:#d90000;stop-opacity:1;"/> </linearGradient> </defs>
<g id="surface1">
<path style=" stroke:none;fill-rule:nonzero;fill:url(#linear0);fill-opacity:1;" d="M 32.367188 1.097656 C 31.9375 1.132812 31.253906 1.550781 30.023438 2.453125 C 28.664062 3.449219 27.535156 4.445312 27.523438 4.664062 C 27.511719 4.886719 28.132812 5.484375 28.902344 5.988281 C 29.996094 6.703125 30.300781 7.375 30.300781 9.039062 L 30.300781 11.164062 L 27.085938 11.332031 C 24.257812 11.480469 23.84375 11.65625 23.691406 12.730469 C 23.515625 13.972656 24.117188 14.210938 28.625 14.699219 C 29.5625 14.800781 30.085938 15.242188 30.199219 16.039062 C 30.347656 17.089844 29.949219 17.292969 26.699219 17.898438 C 23.488281 18.503906 22.789062 18.476562 21.050781 17.65625 C 18.015625 16.226562 17.125 16.667969 17.257812 19.523438 C 17.457031 23.882812 19.046875 27.398438 22.238281 30.578125 L 25.210938 33.542969 L 22.941406 35.703125 C 21.691406 36.894531 18.050781 39.21875 14.859375 40.855469 C 11.667969 42.496094 9.039062 43.992188 9.035156 44.183594 C 9.027344 44.625 12.007812 45.226562 14.195312 45.226562 C 16.382812 45.226562 20.046875 43.34375 25.546875 39.414062 L 30.023438 36.222656 L 30.199219 40.300781 C 30.4375 46.136719 30.160156 46.898438 27.769531 46.898438 L 25.792969 46.898438 L 26.699219 48.640625 C 27.199219 49.601562 28.1875 51.921875 28.902344 53.800781 C 29.613281 55.671875 30.476562 57.917969 30.8125 58.78125 C 31.585938 60.773438 32.191406 60.375 33.414062 57.074219 C 34.167969 55.042969 34.453125 52.121094 34.640625 44.570312 C 34.84375 36.339844 35.027344 34.769531 35.691406 35.023438 C 36.128906 35.191406 38.375 37.90625 40.695312 41.070312 C 45.53125 47.679688 48.433594 50.507812 49.804688 49.914062 C 51.207031 49.308594 57.265625 48.03125 58.808594 48.015625 C 60.648438 48.003906 59.753906 47.300781 56.328125 46.078125 C 50.835938 44.128906 45.027344 39.894531 41.964844 35.617188 L 40.847656 34.066406 L 43.472656 31.414062 C 46.71875 28.152344 48.210938 25.320312 48.210938 22.445312 C 48.210938 21.183594 48.507812 20.132812 48.910156 19.992188 C 50.1875 19.550781 47.742188 17.539062 44.957031 16.734375 C 43.511719 16.316406 40.511719 15.976562 38.28125 15.988281 C 35.480469 16 34.21875 15.800781 34.21875 15.34375 C 34.21875 14.941406 35.855469 14.402344 38.28125 14.019531 C 40.511719 13.664062 42.9375 13.195312 43.664062 12.972656 C 44.988281 12.570312 44.992188 12.570312 43 10.828125 L 40.988281 9.089844 L 37.753906 9.855469 C 33.664062 10.828125 33.664062 10.828125 33.664062 9.875 C 33.664062 9.019531 34.839844 7.664062 36.28125 6.859375 C 37.046875 6.4375 36.910156 6.058594 35.289062 4.28125 C 34.242188 3.144531 33.167969 1.859375 32.925781 1.425781 C 32.792969 1.191406 32.625 1.074219 32.367188 1.097656 M 38.695312 19.597656 L 43.175781 19.597656 L 43.175781 22.292969 C 43.175781 24.402344 42.8125 25.488281 41.511719 27.277344 C 40.597656 28.53125 39.355469 29.828125 38.75 30.148438 C 38.144531 30.472656 37.570312 30.703125 37.472656 30.667969 C 34.613281 29.707031 34.21875 29.324219 34.21875 27.5 L 34.21875 25.601562 L 37.574219 26.003906 C 40.476562 26.335938 40.976562 26.257812 41.300781 25.410156 C 41.898438 23.871094 39.113281 21.824219 36.421875 21.824219 C 34.589844 21.824219 34.21875 21.632812 34.21875 20.710938 C 34.21875 19.6875 34.589844 19.597656 38.695312 19.597656 M 29.089844 20.234375 C 29.585938 20.207031 29.738281 20.457031 29.738281 21.105469 C 29.738281 21.863281 29.183594 22.367188 27.972656 22.710938 C 27.007812 22.988281 25.949219 23.628906 25.632812 24.136719 C 24.753906 25.527344 26.195312 26.988281 28.164062 26.699219 C 29.574219 26.496094 29.738281 26.632812 29.738281 28.039062 C 29.738281 29.878906 28.707031 30.082031 26.105469 28.757812 C 23.726562 27.542969 23.027344 26.40625 23.027344 23.742188 C 23.027344 21.480469 23.089844 21.394531 25.121094 21.054688 C 26.28125 20.863281 27.792969 20.550781 28.484375 20.359375 C 28.726562 20.292969 28.925781 20.246094 29.089844 20.242188 M 4.417969 63.0625 C 4.398438 63.128906 4.382812 63.191406 4.367188 63.253906 C 4.894531 63.191406 5.414062 63.128906 5.957031 63.0625 Z M 4.417969 63.0625 "/>
</g>
</svg>
