<svg xmlns="http://www.w3.org/2000/svg" xmlns:xlink="http://www.w3.org/1999/xlink" width="64" height="64" viewBox="0 0 64 64" version="1.1">
<defs>
<filter id="alpha" filterUnits="objectBoundingBox" x="0%" y="0%" width="100%" height="100%">
  <feColorMatrix type="matrix" in="SourceGraphic" values="0 0 0 0 1 0 0 0 0 1 0 0 0 0 1 0 0 0 1 0"/>
</filter>
<mask id="mask0">
  <g filter="url(#alpha)">
<rect x="0" y="0" width="64" height="64" style="fill:rgb(0%,0%,0%);fill-opacity:0.3;stroke:none;"/>
  </g>
</mask>
<linearGradient id="linear0" gradientUnits="userSpaceOnUse" x1="0" y1="0" x2="0" y2="1" gradientTransform="matrix(43.996094,0,0,12.125,10.003906,51.875)">
<stop offset="0" style="stop-color:#ff6666;stop-opacity:1;"/>
<stop offset="1" style="stop-color:#d90000;stop-opacity:1;"/>
</linearGradient>
<clipPath id="clip1">
  <rect x="0" y="0" width="64" height="64"/>
</clipPath>
<g id="surface5" clip-path="url(#clip1)">
<path style=" stroke:none;fill-rule:nonzero;fill:url(#linear0);" d="M 10.003906 51.875 L 10.003906 59.875 C 10.003906 62.160156 11.84375 64 14.128906 64 L 49.875 64 C 52.160156 64 54 62.160156 54 59.875 L 54 51.875 C 54 54.160156 52.160156 56 49.875 56 L 14.128906 56 C 11.84375 56 10.003906 54.160156 10.003906 51.875 Z M 10.003906 51.875 "/>
</g>
<linearGradient id="linear1" gradientUnits="userSpaceOnUse" x1="0" y1="0" x2="0" y2="1" gradientTransform="matrix(43.996094,0,0,55.996094,10,0)">
<stop offset="0" style="stop-color:#ff6666;stop-opacity:1;"/>
<stop offset="1" style="stop-color:#d90000;stop-opacity:1;"/>
</linearGradient>
</defs>
<g id="surface1">
<use xlink:href="#surface5" mask="url(#mask0)"/>
<path style=" stroke:none;fill-rule:nonzero;fill:url(#linear1);" d="M 14.125 0 C 11.839844 0 10 1.839844 10 4.125 L 10 51.871094 C 10 54.15625 11.839844 55.996094 14.125 55.996094 L 49.871094 55.996094 C 52.15625 55.996094 53.996094 54.15625 53.996094 51.871094 L 53.996094 4.125 C 53.996094 1.839844 52.15625 0 49.871094 0 Z M 26 8 L 37.996094 8 L 33.996094 12.25 L 33.996094 16 L 45.996094 16 L 45.996094 24.621094 L 38.621094 31.996094 L 33.996094 31.996094 L 33.996094 47.996094 L 29.996094 51.996094 L 29.996094 31.996094 L 27.375 31.996094 L 16.25 20.375 L 30 16.5 L 30 12.25 Z M 33.996094 20 L 33.996094 27.996094 L 36.996094 27.996094 L 41.996094 23 L 41.996094 20 Z M 29.996094 20.5 L 23.75 22.375 L 29 27.996094 L 29.996094 27.996094 Z M 29.996094 20.5 "/>
</g>
</svg>
