<svg xmlns="http://www.w3.org/2000/svg" xmlns:xlink="http://www.w3.org/1999/xlink" width="64" height="64" viewBox="0 0 64 64" version="1.1">
<defs>
<linearGradient id="linear0" gradientUnits="userSpaceOnUse" x1="0" y1="0" x2="0" y2="1" gradientTransform="matrix(64,0,0,48,0,8)">
<stop offset="0" style="stop-color:#ff6666;stop-opacity:1;"/>
<stop offset="1" style="stop-color:#d90000;stop-opacity:1;"/>
</linearGradient>
</defs>
<g id="surface1">
<path style=" stroke:none;fill-rule:evenodd;fill:url(#linear0);" d="M 54.398438 24 C 53.765625 24 53.28125 24 52.800781 24.164062 L 52.800781 23.199219 C 52.800781 17.4375 48.164062 12.800781 42.398438 12.800781 C 39.679688 12.800781 37.28125 13.921875 35.363281 15.519531 C 33.054688 10.914062 28.351562 8.003906 23.199219 8 C 15.679688 8 9.601562 14.078125 9.601562 21.601562 C 9.601562 22.398438 9.765625 23.363281 9.765625 24.164062 C 4.179688 24.832031 -0.015625 29.574219 0 35.199219 C 0 41.4375 4.964844 46.398438 11.199219 46.398438 C 11.835938 46.398438 12.320312 46.398438 12.964844 46.234375 C 13.601562 51.679688 18.398438 56 24 56 C 28.964844 56 33.28125 52.800781 34.71875 48.164062 C 36.480469 49.921875 38.878906 51.199219 41.601562 51.199219 C 46.5625 51.199219 50.5625 47.519531 51.199219 42.5625 C 52.164062 42.878906 53.28125 43.199219 54.398438 43.199219 C 59.679688 43.199219 64 38.878906 64 33.601562 C 64 28.320312 59.679688 24 54.398438 24 Z M 41.28125 22.398438 L 28.636719 35.035156 L 22.71875 28.964844 L 19.199219 32.480469 L 28.636719 41.914062 L 44.800781 25.921875 Z M 41.28125 22.398438 "/>
</g>
</svg>
