<svg xmlns="http://www.w3.org/2000/svg" xmlns:xlink="http://www.w3.org/1999/xlink" width="64" height="64" viewBox="0 0 64 64" version="1.1">
<defs> <linearGradient id="linear0" gradientUnits="userSpaceOnUse" x1="0" y1="0" x2="0" y2="1" gradientTransform="matrix(55.992188,0,0,56,4.003906,4)"> <stop offset="0" style="stop-color:#ff6666;stop-opacity:1;"/> <stop offset="1" style="stop-color:#d90000;stop-opacity:1;"/> </linearGradient> </defs>
<g id="surface1">
<path style=" stroke:none;fill-rule:nonzero;fill:url(#linear0);fill-opacity:1;" d="M 8.472656 8.6875 L 8.472656 12.539062 C 10.113281 12.539062 11.417969 13.839844 11.417969 15.480469 C 11.417969 17.117188 10.113281 18.503906 8.472656 18.503906 L 8.472656 19.238281 C 10.113281 19.238281 11.417969 20.625 11.417969 22.265625 C 11.417969 23.90625 10.113281 25.109375 8.472656 25.109375 L 8.472656 25.84375 C 10.113281 25.84375 11.417969 27.230469 11.417969 28.871094 C 11.417969 30.511719 10.113281 31.714844 8.472656 31.714844 L 8.472656 32.632812 C 10.113281 32.632812 11.417969 33.835938 11.417969 35.476562 C 11.417969 37.117188 10.113281 38.5 8.472656 38.5 L 8.472656 39.144531 C 10.113281 39.144531 11.417969 40.445312 11.417969 42.082031 C 11.417969 43.722656 10.113281 45.105469 8.472656 45.105469 L 8.472656 45.84375 C 10.113281 45.84375 11.417969 47.234375 11.417969 48.867188 C 11.417969 50.507812 10.113281 51.808594 8.472656 51.808594 L 8.472656 55.660156 L 11.976562 55.660156 C 11.976562 54.027344 13.277344 52.628906 14.921875 52.628906 C 16.570312 52.628906 17.960938 54.027344 17.960938 55.660156 L 18.699219 55.660156 C 18.699219 54.027344 20.101562 52.628906 21.742188 52.628906 C 23.390625 52.628906 24.683594 54.027344 24.683594 55.660156 L 25.332031 55.660156 C 25.332031 54.027344 26.636719 52.628906 28.28125 52.628906 C 29.925781 52.628906 31.316406 54.027344 31.316406 55.660156 L 32.054688 55.660156 C 32.054688 54.027344 33.355469 52.628906 35.003906 52.628906 C 36.644531 52.628906 38.046875 54.027344 38.046875 55.660156 L 38.6875 55.660156 C 38.6875 54.027344 39.996094 52.628906 41.636719 52.628906 C 43.277344 52.628906 44.675781 54.027344 44.675781 55.660156 L 45.417969 55.660156 C 45.417969 54.027344 46.816406 52.628906 48.457031 52.628906 C 50.105469 52.628906 51.398438 54.027344 51.398438 55.660156 L 55.640625 55.660156 L 55.640625 52.261719 C 54.003906 52.261719 52.695312 50.972656 52.695312 49.332031 C 52.695312 47.703125 54 46.398438 55.640625 46.398438 L 55.640625 45.660156 C 54.003906 45.660156 52.695312 44.277344 52.695312 42.636719 C 52.695312 41 54 39.605469 55.640625 39.605469 L 55.640625 38.964844 C 54.003906 38.964844 52.695312 37.664062 52.695312 36.023438 C 52.695312 34.390625 54 33.089844 55.640625 33.089844 L 55.640625 32.265625 C 54.003906 32.265625 52.695312 31.058594 52.695312 29.417969 C 52.695312 27.785156 54 26.394531 55.640625 26.394531 L 55.640625 25.660156 C 54.003906 25.660156 52.695312 24.359375 52.695312 22.722656 C 52.695312 21.082031 54 19.789062 55.640625 19.789062 L 55.640625 18.960938 C 54.003906 18.960938 52.695312 17.660156 52.695312 16.027344 C 52.699219 14.386719 54 13 55.640625 13 L 55.640625 8.6875 L 51.769531 8.6875 C 51.769531 10.328125 50.472656 11.621094 48.824219 11.621094 C 47.183594 11.621094 45.78125 10.328125 45.78125 8.6875 L 45.050781 8.6875 C 45.050781 10.328125 43.652344 11.621094 42.003906 11.621094 C 40.363281 11.621094 39.058594 10.328125 39.058594 8.6875 L 38.410156 8.6875 C 38.410156 10.328125 37.109375 11.621094 35.464844 11.621094 C 33.820312 11.621094 32.425781 10.328125 32.425781 8.6875 L 31.6875 8.6875 C 31.6875 10.328125 30.386719 11.621094 28.738281 11.621094 C 27.097656 11.621094 25.703125 10.328125 25.703125 8.6875 L 25.054688 8.6875 C 25.054688 10.328125 23.746094 11.621094 22.105469 11.621094 C 20.460938 11.621094 19.066406 10.328125 19.066406 8.6875 L 18.328125 8.6875 C 18.328125 10.328125 16.933594 11.621094 15.285156 11.621094 C 13.640625 11.621094 12.34375 10.328125 12.34375 8.6875 L 8.472656 8.6875 M 37.28125 18.734375 C 37.433594 18.730469 37.59375 18.746094 37.753906 18.785156 C 38.59375 19.011719 39.085938 19.867188 38.859375 20.699219 C 38.8125 20.863281 38.746094 21.015625 38.65625 21.152344 C 41.683594 22.421875 43.261719 25.035156 42.484375 27.746094 C 41.839844 30.675781 41.476562 34.066406 42.171875 37.992188 C 42.1875 38.058594 42.214844 38.121094 42.234375 38.183594 C 42.628906 39.9375 43.480469 41.425781 44.539062 43.019531 C 44.03125 44.445312 43.226562 44.441406 42.492188 44.535156 L 35.320312 42.640625 C 35.308594 42.679688 35.304688 42.71875 35.292969 42.761719 C 34.742188 44.8125 32.617188 46.027344 30.558594 45.480469 C 28.496094 44.933594 27.273438 42.824219 27.824219 40.769531 C 27.835938 40.734375 27.84375 40.707031 27.855469 40.671875 L 20.726562 38.789062 C 20.277344 38.394531 19.234375 37.703125 19.691406 36.398438 C 22.054688 35.277344 23.117188 34.148438 24.34375 33.015625 C 27.207031 30.046875 27.957031 27.03125 29.136719 24.183594 C 30.113281 21.253906 32.402344 19.855469 35.777344 20.363281 C 35.769531 20.210938 35.789062 20.046875 35.828125 19.890625 C 36.007812 19.210938 36.609375 18.765625 37.28125 18.734375 "/>
</g>
</svg>
