<svg xmlns="http://www.w3.org/2000/svg" xmlns:xlink="http://www.w3.org/1999/xlink" width="64px" height="64px" viewBox="0 0 64 64" version="1.1">
<defs>
<linearGradient id="linear0" gradientUnits="userSpaceOnUse" x1="0" y1="128" x2="128" y2="0" gradientTransform="matrix(0.432432,0,0,0.432432,4.324324,4.324324)">
<stop offset="0" style="stop-color:#ff6666;stop-opacity:1;"/>
<stop offset="1" style="stop-color:#d90000;stop-opacity:1;"/>
</linearGradient>
</defs>
<g id="surface1">
<path style=" stroke:none;fill-rule:nonzero;fill:url(#linear0);" d="M 15.203125 7.714844 C 13.8125 7.714844 12.664062 8.878906 12.664062 10.269531 L 12.664062 53.742188 C 12.664062 55.136719 13.804688 56.285156 15.203125 56.285156 L 48.785156 56.285156 C 50.183594 56.285156 51.335938 55.140625 51.335938 53.742188 L 51.335938 25.5 L 51.082031 25.242188 L 33.835938 7.972656 L 33.582031 7.714844 Z M 49.460938 7.90625 C 48.65625 7.90625 41.59375 7.972656 40.203125 7.972656 C 38.8125 7.972656 38.378906 8.996094 39.214844 10.027344 C 40.054688 11.058594 48.65625 19.476562 49.136719 20.027344 C 49.773438 20.761719 51.164062 20.671875 51.164062 18.972656 L 51.164062 9.609375 C 51.164062 8.792969 50.527344 7.90625 49.460938 7.90625 Z M 15.203125 9.445312 L 32.851562 9.445312 L 49.609375 26.203125 L 49.609375 53.742188 C 49.609375 54.203125 49.242188 54.554688 48.785156 54.554688 L 15.203125 54.554688 C 14.742188 54.554688 14.390625 54.210938 14.390625 53.742188 L 14.390625 10.269531 C 14.390625 9.804688 14.738281 9.445312 15.203125 9.445312 Z M 15.203125 9.445312 "/>
</g>
</svg>
