<svg xmlns="http://www.w3.org/2000/svg" xmlns:xlink="http://www.w3.org/1999/xlink" width="64" height="64" viewBox="0 0 64 64" version="1.1">
<defs> <linearGradient id="linear0" gradientUnits="userSpaceOnUse" x1="0" y1="0" x2="0" y2="1" gradientTransform="matrix(55.992188,0,0,56,4.003906,4)"> <stop offset="0" style="stop-color:#ff6666;stop-opacity:1;"/> <stop offset="1" style="stop-color:#d90000;stop-opacity:1;"/> </linearGradient> </defs>
<g id="surface1">
<path style=" stroke:none;fill-rule:nonzero;fill:url(#linear0);fill-opacity:1;" d="M 32.054688 5.59375 C 17.320312 5.59375 5.363281 17.496094 5.363281 32.171875 C 5.363281 46.847656 17.320312 58.753906 32.054688 58.753906 C 46.792969 58.753906 58.746094 46.847656 58.746094 32.171875 C 58.746094 17.496094 46.792969 5.59375 32.054688 5.59375 M 32.054688 9.132812 C 35.003906 9.132812 37.394531 11.519531 37.394531 14.453125 C 37.394531 17.382812 35.003906 19.769531 32.054688 19.769531 C 29.109375 19.769531 26.71875 17.382812 26.71875 14.453125 C 26.71875 11.519531 29.109375 9.132812 32.054688 9.132812 M 32.054688 22.203125 C 37.582031 22.203125 42.066406 26.671875 42.066406 32.171875 C 42.066406 37.675781 37.582031 42.144531 32.054688 42.144531 C 26.53125 42.144531 22.042969 37.675781 22.042969 32.171875 C 22.042969 26.671875 26.53125 22.203125 32.054688 22.203125 M 14.265625 26.855469 C 17.207031 26.855469 19.601562 29.238281 19.601562 32.171875 C 19.601562 35.109375 17.207031 37.488281 14.265625 37.488281 C 11.316406 37.488281 8.917969 35.109375 8.917969 32.171875 C 8.917969 29.238281 11.316406 26.855469 14.265625 26.855469 M 49.847656 26.855469 C 52.796875 26.855469 55.191406 29.238281 55.191406 32.171875 C 55.191406 35.109375 52.796875 37.488281 49.847656 37.488281 C 46.90625 37.488281 44.511719 35.109375 44.511719 32.171875 C 44.511719 29.238281 46.90625 26.855469 49.847656 26.855469 M 32.054688 44.574219 C 35.003906 44.574219 37.394531 46.960938 37.394531 49.890625 C 37.394531 52.828125 35.003906 55.214844 32.054688 55.214844 C 29.109375 55.214844 26.71875 52.828125 26.71875 49.890625 C 26.71875 46.960938 29.109375 44.574219 32.054688 44.574219 M 32.054688 44.574219 "/>
<path style=" stroke:none;fill-rule:nonzero;fill:url(#linear0);fill-opacity:1;" d="M 32.054688 25.527344 C 28.363281 25.527344 25.382812 28.496094 25.382812 32.171875 C 25.382812 35.84375 28.363281 38.8125 32.054688 38.8125 C 35.742188 38.8125 38.722656 35.84375 38.722656 32.171875 C 38.722656 28.496094 35.742188 25.527344 32.054688 25.527344 M 32.054688 28.847656 C 33.894531 28.847656 35.394531 30.339844 35.394531 32.171875 C 35.394531 34.003906 33.894531 35.5 32.054688 35.5 C 30.214844 35.5 28.714844 34.003906 28.714844 32.171875 C 28.714844 30.339844 30.214844 28.847656 32.054688 28.847656 M 32.054688 28.847656 "/>
</g>
</svg>
