<svg xmlns="http://www.w3.org/2000/svg" xmlns:xlink="http://www.w3.org/1999/xlink" width="64" height="64" viewBox="0 0 64 64" version="1.1">
<defs>
<linearGradient id="linear0" gradientUnits="userSpaceOnUse" x1="0" y1="0" x2="0" y2="1" gradientTransform="matrix(64,0,0,40.914062,0,11.542969)">
<stop offset="0" style="stop-color:#ff6666;stop-opacity:1;"/>
<stop offset="1" style="stop-color:#d90000;stop-opacity:1;"/>
</linearGradient>
</defs>
<g id="surface1">
<path style=" stroke:none;fill-rule:evenodd;fill:url(#linear0);" d="M 28.9375 28.960938 C 31.425781 28.960938 33.34375 29.703125 34.695312 31.191406 C 36.046875 32.683594 36.722656 35.195312 36.722656 38.726562 L 36.722656 48.679688 C 36.722656 49.9375 36.332031 50.882812 35.546875 51.511719 C 34.765625 52.140625 33.789062 52.457031 32.625 52.457031 C 31.457031 52.457031 30.480469 52.140625 29.695312 51.511719 C 28.910156 50.882812 28.519531 49.9375 28.519531 48.679688 L 28.519531 38.542969 C 28.519531 37.316406 28.304688 36.453125 27.875 35.964844 C 27.445312 35.46875 26.816406 35.222656 25.988281 35.222656 C 24.914062 35.222656 24.054688 35.609375 23.40625 36.375 C 22.761719 37.144531 22.441406 38.203125 22.441406 39.554688 L 22.441406 48.679688 C 22.441406 49.9375 22.054688 50.882812 21.289062 51.511719 C 20.519531 52.140625 19.539062 52.457031 18.339844 52.457031 C 17.171875 52.457031 16.195312 52.140625 15.410156 51.511719 C 14.628906 50.882812 14.234375 49.9375 14.234375 48.679688 L 14.234375 38.542969 C 14.234375 37.316406 14.019531 36.453125 13.59375 35.964844 C 13.164062 35.46875 12.535156 35.222656 11.703125 35.222656 C 10.628906 35.222656 9.777344 35.609375 9.148438 36.375 C 8.515625 37.144531 8.199219 38.203125 8.199219 39.554688 L 8.199219 48.679688 C 8.199219 49.9375 7.808594 50.882812 7.027344 51.511719 C 6.242188 52.140625 5.269531 52.457031 4.101562 52.457031 C 2.933594 52.457031 1.957031 52.140625 1.175781 51.511719 C 0.390625 50.882812 0 49.9375 0 48.679688 L 0 32.734375 C 0 31.539062 0.40625 30.625 1.21875 29.996094 C 2.035156 29.367188 3.011719 29.050781 4.148438 29.050781 C 5.222656 29.050781 6.121094 29.335938 6.84375 29.902344 C 7.5625 30.472656 7.941406 31.292969 7.972656 32.367188 C 9.476562 30.097656 11.78125 28.960938 14.882812 28.960938 C 18.167969 28.960938 20.367188 30.296875 21.472656 32.96875 C 22.238281 31.738281 23.269531 30.761719 24.558594 30.039062 C 25.847656 29.320312 27.308594 28.960938 28.9375 28.960938 Z M 61.28125 20.066406 C 62.046875 20.066406 62.691406 20.328125 63.214844 20.847656 C 63.738281 21.371094 64 22.015625 64 22.785156 C 64 23.550781 63.738281 24.207031 63.214844 24.742188 C 62.691406 25.28125 62.046875 25.546875 61.28125 25.546875 L 55.476562 25.546875 L 55.476562 31.308594 C 55.476562 32.074219 55.222656 32.722656 54.714844 33.242188 C 54.210938 33.765625 53.554688 34.027344 52.757812 34.027344 C 51.988281 34.027344 51.34375 33.765625 50.824219 33.242188 C 50.300781 32.722656 50.039062 32.074219 50.039062 31.308594 L 50.039062 25.546875 L 44.230469 25.546875 C 43.464844 25.546875 42.820312 25.28125 42.300781 24.742188 C 41.777344 24.207031 41.515625 23.550781 41.515625 22.785156 C 41.515625 22.015625 41.777344 21.371094 42.300781 20.847656 C 42.820312 20.328125 43.464844 20.066406 44.230469 20.066406 L 50.039062 20.066406 L 50.039062 14.261719 C 50.039062 13.492188 50.300781 12.847656 50.824219 12.324219 C 51.34375 11.804688 51.988281 11.542969 52.757812 11.542969 C 53.523438 11.542969 54.167969 11.804688 54.691406 12.324219 C 55.214844 12.847656 55.476562 13.492188 55.476562 14.261719 L 55.476562 20.066406 Z M 61.28125 20.066406 "/>
</g>
</svg>
