<svg xmlns="http://www.w3.org/2000/svg" xmlns:xlink="http://www.w3.org/1999/xlink" width="64" height="64" viewBox="0 0 64 64" version="1.1">
<defs>
<linearGradient id="linear0" gradientUnits="userSpaceOnUse" x1="0" y1="0" x2="0" y2="1" gradientTransform="matrix(64,0,0,53.359375,0,5.320312)">
<stop offset="0" style="stop-color:#ff6666;stop-opacity:1;"/>
<stop offset="1" style="stop-color:#d90000;stop-opacity:1;"/>
</linearGradient>
</defs>
<g id="surface1">
<path style=" stroke:none;fill-rule:evenodd;fill:url(#linear0);" d="M 32 23.796875 L 0 5.320312 L 0 43.308594 L 10.667969 49.710938 L 10.667969 35.113281 L 7.113281 33.101562 L 7.113281 21.96875 L 31.96875 36.320312 L 32 36.300781 L 32.03125 36.320312 L 56.921875 21.953125 L 64 17.863281 L 64 5.320312 Z M 32 46.996094 L 49.777344 36.730469 L 49.777344 48.410156 L 42.121094 52.835938 L 40.46875 53.789062 L 32 58.679688 L 21.878906 52.835938 L 21.882812 52.835938 L 14.222656 48.410156 L 14.222656 36.730469 Z M 64 17.875 L 56.875 22 L 56.886719 33.101562 L 53.332031 35.113281 L 53.332031 49.710938 L 64 43.308594 Z M 64 17.875 "/>
</g>
</svg>
