<svg xmlns="http://www.w3.org/2000/svg" xmlns:xlink="http://www.w3.org/1999/xlink" width="64" height="64" viewBox="0 0 64 64" version="1.1">
<defs>
<linearGradient id="linear0" gradientUnits="userSpaceOnUse" x1="0" y1="0" x2="0" y2="1" gradientTransform="matrix(64,0,0,59.078125,0,2.460938)">
<stop offset="0" style="stop-color:#ff6666;stop-opacity:1;"/>
<stop offset="1" style="stop-color:#d90000;stop-opacity:1;"/>
</linearGradient>
</defs>
<g id="surface1">
<path style=" stroke:none;fill-rule:evenodd;fill:url(#linear0);" d="M 46.769531 54.152344 L 59.074219 54.152344 L 59.074219 56.617188 L 46.769531 56.617188 Z M 7.015625 46.402344 L 15.136719 54.519531 C 15.90625 55.292969 15.359375 56.617188 14.269531 56.617188 L 7.382812 56.617188 C 6.023438 56.617188 4.925781 55.511719 4.925781 54.152344 L 4.925781 47.273438 C 4.925781 46.175781 6.242188 45.628906 7.015625 46.402344 Z M 11.074219 4.925781 L 52.925781 4.925781 L 52.925781 6.152344 L 11.074219 6.152344 Z M 3.691406 19.691406 L 4.925781 19.691406 L 4.925781 22.28125 C 4.027344 22.46875 3.1875 22.855469 2.460938 23.414062 L 2.460938 20.925781 C 2.460938 20.242188 3.011719 19.691406 3.691406 19.691406 Z M 18.460938 13.539062 L 48 13.539062 L 48 16 L 18.460938 16 Z M 60.308594 19.691406 C 60.988281 19.691406 61.539062 20.242188 61.539062 20.925781 L 61.539062 23.414062 C 60.8125 22.855469 59.972656 22.46875 59.074219 22.28125 L 59.074219 19.691406 Z M 46.769531 49.230469 L 59.074219 49.230469 L 59.074219 51.691406 L 46.769531 51.691406 Z M 25.847656 18.460938 L 38.152344 18.460938 L 38.152344 20.925781 L 25.847656 20.925781 Z M 8.617188 8.617188 L 55.382812 8.617188 C 56.0625 8.617188 56.617188 9.167969 56.617188 9.847656 L 56.617188 22.152344 L 44.394531 22.152344 C 43.15625 22.152344 42.007812 22.769531 41.320312 23.800781 L 37.859375 28.992188 C 37.632812 29.332031 37.246094 29.539062 36.835938 29.539062 L 27.164062 29.539062 C 26.753906 29.539062 26.367188 29.332031 26.140625 28.988281 L 22.679688 23.800781 C 21.996094 22.773438 20.839844 22.152344 19.605469 22.152344 L 7.382812 22.152344 L 7.382812 9.847656 C 7.382812 9.167969 7.9375 8.617188 8.617188 8.617188 Z M 61.539062 55.382812 C 61.539062 57.421875 59.878906 59.074219 57.847656 59.074219 L 6.152344 59.074219 C 4.121094 59.074219 2.460938 57.421875 2.460938 55.382812 L 2.460938 28.308594 C 2.460938 26.273438 4.121094 24.617188 6.152344 24.617188 L 19.605469 24.617188 C 20.015625 24.617188 20.398438 24.820312 20.632812 25.164062 L 24.09375 30.351562 C 24.777344 31.382812 25.929688 32.003906 27.164062 32 L 36.835938 32 C 38.070312 32 39.222656 31.382812 39.90625 30.355469 L 43.367188 25.164062 C 43.601562 24.820312 43.980469 24.617188 44.394531 24.617188 L 57.847656 24.617188 C 59.878906 24.617188 61.539062 26.273438 61.539062 28.308594 Z M 60.308594 17.230469 L 59.074219 17.230469 L 59.074219 9.847656 C 59.074219 7.8125 57.421875 6.152344 55.382812 6.152344 L 55.382812 4.925781 C 55.382812 3.5625 54.28125 2.460938 52.925781 2.460938 L 11.074219 2.460938 C 9.71875 2.460938 8.617188 3.5625 8.617188 4.925781 L 8.617188 6.152344 C 6.578125 6.152344 4.925781 7.8125 4.925781 9.847656 L 4.925781 17.230469 L 3.691406 17.230469 C 1.65625 17.230469 0 18.886719 0 20.925781 L 0 55.382812 C 0 58.777344 2.761719 61.539062 6.152344 61.539062 L 57.847656 61.539062 C 61.238281 61.539062 64 58.777344 64 55.382812 L 64 20.925781 C 64 18.886719 62.34375 17.230469 60.308594 17.230469 Z M 28.308594 23.382812 L 35.691406 23.382812 L 35.691406 25.847656 L 28.308594 25.847656 Z M 28.308594 23.382812 "/>
</g>
</svg>
