<svg xmlns="http://www.w3.org/2000/svg" xmlns:xlink="http://www.w3.org/1999/xlink" width="64px" height="64px" viewBox="0 0 64 64" version="1.1">
<defs>
<linearGradient id="linear0" gradientUnits="userSpaceOnUse" x1="0" y1="128" x2="128" y2="0" gradientTransform="matrix(0.432432,0,0,0.432432,4.324324,4.324324)">
<stop offset="0" style="stop-color:#ff6666;stop-opacity:1;"/>
<stop offset="1" style="stop-color:#d90000;stop-opacity:1;"/>
</linearGradient>
</defs>
<g id="surface1">
<path style=" stroke:none;fill-rule:nonzero;fill:url(#linear0);" d="M 15.203125 7.714844 C 13.8125 7.714844 12.664062 8.878906 12.664062 10.269531 L 12.664062 53.742188 C 12.664062 55.136719 13.804688 56.285156 15.203125 56.285156 L 48.785156 56.285156 C 50.183594 56.285156 51.335938 55.140625 51.335938 53.742188 L 51.335938 25.5 L 51.082031 25.242188 L 33.835938 7.972656 L 33.582031 7.714844 Z M 49.460938 7.90625 C 48.65625 7.90625 41.59375 7.972656 40.203125 7.972656 C 38.8125 7.972656 38.378906 8.996094 39.214844 10.027344 C 40.054688 11.058594 48.65625 19.476562 49.136719 20.027344 C 49.773438 20.761719 51.164062 20.671875 51.164062 18.972656 L 51.164062 9.609375 C 51.164062 8.792969 50.527344 7.90625 49.460938 7.90625 Z M 15.203125 9.445312 L 32.851562 9.445312 L 49.609375 26.203125 L 49.609375 53.742188 C 49.609375 54.203125 49.242188 54.554688 48.785156 54.554688 L 15.203125 54.554688 C 14.742188 54.554688 14.390625 54.210938 14.390625 53.742188 L 14.390625 10.269531 C 14.390625 9.804688 14.738281 9.445312 15.203125 9.445312 Z M 28.675781 26.757812 C 28.382812 26.757812 28.132812 26.964844 28.082031 27.257812 L 25.121094 44.066406 L 23.664062 38.539062 C 23.613281 38.351562 23.484375 38.203125 23.296875 38.136719 C 23.113281 38.066406 22.890625 38.078125 22.730469 38.1875 L 20.109375 39.988281 C 19.839844 40.167969 19.761719 40.519531 19.933594 40.796875 L 20.082031 41.039062 C 20.246094 41.3125 20.585938 41.414062 20.863281 41.269531 L 22.148438 40.621094 L 24.648438 49.488281 C 24.726562 49.761719 24.988281 49.933594 25.269531 49.917969 C 25.554688 49.90625 25.789062 49.695312 25.835938 49.417969 L 29.390625 29.527344 L 43.554688 29.527344 C 43.886719 29.527344 44.164062 29.253906 44.164062 28.917969 L 44.164062 27.363281 C 44.164062 27.03125 43.886719 26.757812 43.554688 26.757812 Z M 35.730469 33.742188 L 32.082031 34.363281 L 31.988281 34.769531 C 32.261719 34.714844 32.5 34.6875 32.6875 34.6875 C 33.058594 34.6875 33.355469 34.851562 33.59375 35.164062 C 33.972656 35.648438 34.503906 37.113281 35.175781 39.582031 C 34.652344 40.292969 34.289062 40.765625 34.09375 40.988281 C 33.773438 41.339844 33.507812 41.570312 33.296875 41.675781 C 33.136719 41.761719 32.960938 41.796875 32.757812 41.796875 C 32.605469 41.796875 32.351562 41.710938 32 41.539062 C 31.761719 41.425781 31.539062 41.363281 31.351562 41.363281 C 30.992188 41.363281 30.707031 41.472656 30.472656 41.703125 C 30.242188 41.933594 30.121094 42.226562 30.121094 42.582031 C 30.121094 42.914062 30.234375 43.183594 30.445312 43.390625 C 30.660156 43.601562 30.945312 43.703125 31.3125 43.703125 C 31.664062 43.703125 31.988281 43.632812 32.296875 43.488281 C 32.605469 43.335938 32.992188 43.035156 33.460938 42.554688 C 33.925781 42.074219 34.5625 41.3125 35.378906 40.269531 C 35.6875 41.261719 35.972656 41.980469 36.203125 42.433594 C 36.433594 42.882812 36.691406 43.207031 36.988281 43.40625 C 37.28125 43.605469 37.652344 43.703125 38.09375 43.703125 C 38.523438 43.703125 38.960938 43.539062 39.40625 43.214844 C 39.988281 42.796875 40.578125 42.070312 41.1875 41.039062 L 40.796875 40.8125 C 40.382812 41.445312 40.078125 41.839844 39.878906 42 C 39.746094 42.097656 39.585938 42.148438 39.40625 42.148438 C 39.1875 42.148438 38.992188 42.011719 38.785156 41.742188 C 38.429688 41.289062 37.953125 40.03125 37.363281 37.945312 C 37.894531 37.011719 38.339844 36.390625 38.703125 36.109375 C 38.964844 35.898438 39.238281 35.796875 39.527344 35.796875 C 39.636719 35.796875 39.84375 35.84375 40.136719 35.933594 C 40.421875 36.019531 40.683594 36.066406 40.90625 36.066406 C 41.210938 36.066406 41.46875 35.957031 41.675781 35.742188 C 41.882812 35.53125 41.972656 35.242188 41.972656 34.90625 C 41.972656 34.546875 41.882812 34.261719 41.675781 34.054688 C 41.46875 33.84375 41.164062 33.742188 40.785156 33.742188 C 40.441406 33.742188 40.128906 33.824219 39.824219 33.988281 C 39.523438 34.148438 39.128906 34.511719 38.664062 35.054688 C 38.3125 35.457031 37.804688 36.152344 37.121094 37.164062 C 36.851562 35.917969 36.390625 34.78125 35.730469 33.742188 Z M 35.730469 33.742188 "/>
</g>
</svg>
