<svg xmlns="http://www.w3.org/2000/svg" xmlns:xlink="http://www.w3.org/1999/xlink" width="64" height="64" viewBox="0 0 64 64" version="1.1">
<defs>
<linearGradient id="linear0" gradientUnits="userSpaceOnUse" x1="0" y1="0" x2="0" y2="1" gradientTransform="matrix(61.710938,0,0,64,1.144531,0)">
<stop offset="0" style="stop-color:#ff6666;stop-opacity:1;"/>
<stop offset="1" style="stop-color:#d90000;stop-opacity:1;"/>
</linearGradient>
</defs>
<g id="surface1">
<path style=" stroke:none;fill-rule:evenodd;fill:url(#linear0);" d="M 32.070312 0 C 31.386719 -0.0273438 30.742188 0.320312 30.398438 0.90625 L 24.863281 10.285156 L 14.8125 5.914062 C 14.210938 5.65625 13.515625 5.730469 12.984375 6.113281 C 12.453125 6.496094 12.164062 7.128906 12.230469 7.777344 L 13.324219 18.578125 L 2.597656 20.890625 C 1.957031 21.03125 1.4375 21.496094 1.230469 22.117188 C 1.03125 22.730469 1.175781 23.410156 1.613281 23.894531 L 8.914062 32.003906 L 1.613281 40.113281 C 1.175781 40.597656 1.03125 41.277344 1.234375 41.890625 C 1.441406 42.511719 1.957031 42.976562 2.601562 43.113281 L 13.324219 45.425781 L 12.234375 56.226562 C 12.171875 56.875 12.457031 57.507812 12.988281 57.890625 C 13.519531 58.273438 14.214844 58.347656 14.816406 58.085938 L 24.867188 53.71875 L 30.40625 63.097656 C 30.738281 63.65625 31.347656 64 32.003906 64 C 32.660156 64 33.269531 63.65625 33.601562 63.09375 L 39.136719 53.714844 L 49.1875 58.078125 C 49.789062 58.34375 50.484375 58.269531 51.015625 57.886719 C 51.546875 57.503906 51.835938 56.871094 51.769531 56.222656 L 50.675781 45.421875 L 61.402344 43.109375 C 62.042969 42.96875 62.5625 42.503906 62.769531 41.882812 C 62.96875 41.269531 62.824219 40.589844 62.386719 40.105469 L 55.085938 31.996094 L 62.386719 23.886719 C 62.824219 23.402344 62.96875 22.722656 62.765625 22.109375 C 62.558594 21.488281 62.042969 21.023438 61.398438 20.886719 L 50.671875 18.574219 L 51.765625 7.773438 C 51.828125 7.125 51.542969 6.492188 51.011719 6.109375 C 50.480469 5.726562 49.785156 5.652344 49.179688 5.914062 L 39.132812 10.28125 L 33.59375 0.902344 C 33.277344 0.367188 32.703125 0.0273438 32.070312 0 Z M 41.628906 20.101562 C 41.433594 21.535156 41.238281 23.007812 41.144531 24.355469 C 41.035156 25.941406 40.824219 27.074219 41.410156 28.894531 C 42.035156 30.816406 42.898438 31.574219 43.984375 32.855469 C 45.050781 34.125 46.324219 35.480469 47.566406 36.761719 C 45.777344 37.066406 43.902344 37.425781 42.246094 37.824219 C 40.597656 38.226562 39.375 38.402344 37.796875 39.492188 C 36.210938 40.578125 35.625 41.664062 34.707031 43.035156 C 33.824219 44.363281 32.933594 45.886719 32.105469 47.355469 C 30.539062 44.503906 28.742188 41.382812 25.679688 39.429688 C 23.03125 37.734375 19.878906 37.113281 16.914062 36.644531 C 19.027344 34.457031 21.203125 31.890625 22.179688 28.585938 C 23.023438 25.734375 22.886719 22.90625 22.589844 20.316406 C 25.273438 21.617188 28.339844 22.855469 31.757812 22.855469 C 35.390625 22.855469 38.746094 21.484375 41.628906 20.101562 Z M 17.871094 13.714844 C 17.871094 13.714844 20.496094 22.183594 18.890625 27.613281 C 17.289062 33.039062 9.144531 39.152344 9.144531 39.152344 C 9.144531 39.152344 19.792969 39.730469 23.835938 42.316406 C 27.878906 44.898438 31.992188 54.855469 31.992188 54.855469 C 31.992188 54.855469 37.453125 43.886719 39.734375 42.316406 C 42.019531 40.746094 54.855469 39.140625 54.855469 39.140625 C 54.855469 39.140625 45.472656 30.304688 44.675781 27.839844 C 43.875 25.375 46.132812 13.71875 46.132812 13.71875 C 46.132812 13.71875 37.6875 19.429688 31.757812 19.429688 C 25.820312 19.429688 17.871094 13.714844 17.871094 13.714844 Z M 17.871094 13.714844 "/>
</g>
</svg>
