<svg xmlns="http://www.w3.org/2000/svg" xmlns:xlink="http://www.w3.org/1999/xlink" width="64" height="64" viewBox="0 0 64 64" version="1.1">
<defs>
<linearGradient id="linear0" gradientUnits="userSpaceOnUse" x1="0" y1="128" x2="128" y2="0" gradientTransform="matrix(0.5,0,0,0.5,0,0)">
<stop offset="0" style="stop-color:#ff6666;stop-opacity:1;"/>
<stop offset="1" style="stop-color:#d90000;stop-opacity:1;"/>
</linearGradient>
</defs>
<g id="surface1">
<path style=" stroke:none;fill-rule:nonzero;fill:url(#linear0);" d="M 38.753906 11.277344 L 38.125 11.289062 L 38.125 12.109375 C 39.34375 12.355469 40.226562 12.789062 40.757812 13.390625 C 41.292969 13.996094 41.550781 14.722656 41.550781 15.574219 C 41.550781 16.4375 41.410156 17.460938 41.113281 18.644531 C 40.828125 19.828125 40.675781 20.769531 40.675781 21.480469 C 40.675781 22.214844 40.90625 22.996094 41.34375 23.8125 C 41.785156 24.632812 42.4375 25.339844 43.324219 25.941406 C 43.988281 26.390625 45.046875 26.84375 46.515625 27.308594 C 45.144531 27.6875 44.15625 28.078125 43.527344 28.480469 C 42.617188 29.070312 41.914062 29.78125 41.441406 30.621094 C 40.96875 31.449219 40.730469 32.273438 40.730469 33.089844 C 40.730469 33.96875 40.882812 34.988281 41.167969 36.160156 C 41.453125 37.34375 41.589844 38.328125 41.589844 39.109375 C 41.589844 39.890625 41.300781 40.59375 40.730469 41.195312 C 40.164062 41.8125 39.296875 42.226562 38.125 42.449219 L 38.125 43.269531 C 39.214844 43.222656 40.078125 43.105469 40.71875 42.929688 C 41.546875 42.703125 42.3125 42.347656 43.011719 41.851562 C 43.707031 41.351562 44.277344 40.707031 44.730469 39.914062 C 45.191406 39.132812 45.425781 38.347656 45.425781 37.566406 C 45.425781 36.832031 45.246094 35.769531 44.894531 34.359375 C 44.835938 34.140625 44.785156 33.929688 44.742188 33.71875 C 50.332031 35.234375 53.992188 37.707031 53.992188 40.511719 C 53.992188 45.125 44.144531 48.863281 32 48.863281 C 19.855469 48.863281 10.007812 45.125 10.007812 40.511719 C 10.007812 37.714844 13.636719 35.246094 19.203125 33.734375 C 19.164062 33.914062 19.128906 34.089844 19.082031 34.277344 C 18.714844 35.699219 18.535156 36.816406 18.535156 37.632812 C 18.535156 38.476562 18.792969 39.339844 19.339844 40.226562 C 19.894531 41.125 20.71875 41.867188 21.796875 42.4375 C 22.882812 43.003906 24.027344 43.28125 25.234375 43.269531 L 25.859375 43.269531 L 25.859375 42.4375 C 24.640625 42.199219 23.757812 41.769531 23.214844 41.15625 C 22.679688 40.550781 22.410156 39.824219 22.410156 38.984375 C 22.410156 38.109375 22.5625 37.085938 22.84375 35.902344 C 23.140625 34.71875 23.28125 33.773438 23.28125 33.0625 C 23.28125 32.332031 23.066406 31.546875 22.628906 30.730469 C 22.1875 29.914062 21.539062 29.207031 20.664062 28.601562 C 20 28.152344 18.925781 27.699219 17.457031 27.238281 C 18.828125 26.871094 19.832031 26.480469 20.457031 26.066406 C 21.359375 25.472656 22.042969 24.765625 22.519531 23.9375 C 23.003906 23.097656 23.253906 22.273438 23.253906 21.46875 C 23.253906 20.59375 23.101562 19.570312 22.816406 18.398438 C 22.535156 17.214844 22.394531 16.230469 22.394531 15.4375 C 22.394531 14.65625 22.671875 13.953125 23.226562 13.351562 C 23.796875 12.734375 24.675781 12.320312 25.859375 12.09375 L 25.859375 11.289062 C 24.773438 11.324219 23.90625 11.441406 23.269531 11.617188 C 22.441406 11.84375 21.675781 12.199219 20.976562 12.695312 C 20.277344 13.191406 19.707031 13.839844 19.242188 14.632812 C 18.78125 15.425781 18.546875 16.210938 18.546875 16.980469 C 18.546875 17.714844 18.726562 18.777344 19.09375 20.183594 C 19.355469 21.191406 19.488281 22.09375 19.488281 22.898438 C 19.488281 23.882812 19.195312 24.722656 18.601562 25.410156 C 18.011719 26.097656 17.148438 26.53125 16.011719 26.71875 L 16.011719 27.8125 C 17.148438 28 18.011719 28.417969 18.601562 29.082031 C 19.195312 29.730469 19.488281 30.53125 19.488281 31.46875 C 19.488281 31.90625 19.441406 32.371094 19.367188 32.875 C 10.4375 34.617188 4.320312 38.128906 4.320312 42.207031 C 4.320312 48.011719 16.710938 52.722656 32 52.722656 C 47.289062 52.722656 59.679688 48.011719 59.679688 42.207031 C 59.679688 38.121094 53.535156 34.585938 44.578125 32.847656 C 44.523438 32.425781 44.496094 32.023438 44.496094 31.644531 C 44.496094 30.664062 44.789062 29.820312 45.371094 29.136719 C 45.960938 28.449219 46.828125 28.015625 47.976562 27.824219 L 47.976562 26.734375 C 46.828125 26.554688 45.960938 26.140625 45.371094 25.480469 C 44.789062 24.816406 44.496094 24.011719 44.496094 23.078125 C 44.496094 22.25 44.632812 21.320312 44.90625 20.265625 C 45.273438 18.847656 45.453125 17.730469 45.453125 16.925781 C 45.453125 16.074219 45.175781 15.207031 44.621094 14.320312 C 44.074219 13.417969 43.265625 12.675781 42.175781 12.109375 C 41.089844 11.539062 39.949219 11.265625 38.753906 11.277344 Z M 38.753906 11.277344 "/>
</g>
</svg>
