<svg xmlns="http://www.w3.org/2000/svg" xmlns:xlink="http://www.w3.org/1999/xlink" width="64" height="64" viewBox="0 0 64 64" version="1.1">
<defs>
<linearGradient id="linear0" gradientUnits="userSpaceOnUse" x1="0" y1="0" x2="0" y2="1" gradientTransform="matrix(44.292969,0,0,62,10.027344,1)">
<stop offset="0" style="stop-color:#ff6666;stop-opacity:1;"/>
<stop offset="1" style="stop-color:#d90000;stop-opacity:1;"/>
</linearGradient>
</defs>
<g id="surface1">
<path style=" stroke:none;fill-rule:nonzero;fill:url(#linear0);" d="M 21.851562 1 C 21.0625 0.996094 20.308594 1.308594 19.75 1.867188 L 10.898438 10.71875 C 10.34375 11.273438 10.03125 12.023438 10.03125 12.808594 C 10.03125 13.59375 10.34375 14.34375 10.898438 14.898438 C 12.050781 16.050781 13.917969 16.050781 15.070312 14.898438 L 18.890625 11.078125 L 18.890625 40.96875 C 18.890625 40.972656 18.890625 40.980469 18.890625 40.984375 C 18.894531 41.371094 18.972656 41.753906 19.125 42.109375 C 19.128906 42.113281 19.128906 42.113281 19.132812 42.117188 C 19.769531 48.742188 25.457031 54.148438 32.171875 54.148438 C 39.285156 54.148438 45.460938 48.144531 45.460938 40.984375 C 45.460938 37.40625 43.816406 34.144531 41.421875 31.710938 C 39.027344 29.277344 35.777344 27.570312 32.171875 27.570312 C 29.371094 27.570312 26.925781 28.78125 24.789062 30.382812 L 24.789062 3.953125 C 24.789062 2.328125 23.476562 1.007812 21.851562 1 Z M 30.414062 18.78125 C 29.632812 18.84375 28.90625 19.210938 28.398438 19.808594 C 27.890625 20.40625 27.640625 21.179688 27.703125 21.960938 C 27.765625 22.742188 28.132812 23.46875 28.730469 23.976562 C 29.328125 24.484375 30.101562 24.734375 30.882812 24.671875 C 37.882812 24.113281 44.429688 28.09375 47.148438 34.570312 C 49.867188 41.046875 48.128906 48.507812 42.828125 53.117188 C 37.527344 57.726562 29.902344 58.40625 23.867188 54.8125 C 17.832031 51.21875 14.796875 44.191406 16.320312 37.335938 C 16.675781 35.742188 15.671875 34.167969 14.078125 33.8125 C 12.484375 33.457031 10.910156 34.460938 10.554688 36.054688 C 8.480469 45.378906 12.636719 55.003906 20.84375 59.890625 C 29.050781 64.777344 39.496094 63.835938 46.703125 57.570312 C 53.910156 51.304688 56.292969 41.085938 52.59375 32.28125 C 48.894531 23.476562 39.933594 18.023438 30.414062 18.78125 Z M 32.171875 33.476562 C 33.832031 33.476562 35.753906 34.371094 37.210938 35.851562 C 38.667969 37.332031 39.554688 39.300781 39.554688 40.984375 C 39.554688 44.351562 35.585938 48.242188 32.171875 48.242188 C 28.757812 48.242188 24.789062 44.347656 24.789062 40.984375 C 24.789062 39.300781 25.683594 37.332031 27.140625 35.851562 C 28.597656 34.371094 30.511719 33.476562 32.171875 33.476562 Z M 32.171875 33.476562 "/>
</g>
</svg>
