<svg xmlns="http://www.w3.org/2000/svg" xmlns:xlink="http://www.w3.org/1999/xlink" width="64" height="64" viewBox="0 0 64 64" version="1.1">
<defs>
<linearGradient id="linear0" gradientUnits="userSpaceOnUse" x1="0" y1="0" x2="0" y2="1" gradientTransform="matrix(63.96875,0,0,64,0.015625,0)">
<stop offset="0" style="stop-color:#ff6666;stop-opacity:1;"/>
<stop offset="1" style="stop-color:#d90000;stop-opacity:1;"/>
</linearGradient>
</defs>
<g id="surface1">
<path style=" stroke:none;fill-rule:nonzero;fill:url(#linear0);" d="M 41.589844 0.03125 C 41.589844 0.03125 39.644531 0.132812 37.15625 1.199219 C 34.667969 2.273438 31.285156 4.273438 27.355469 8.195312 C 19.503906 16.050781 16.859375 24.136719 16.859375 24.136719 C 16.410156 25.007812 16.519531 26.0625 17.132812 26.828125 C 17.742188 27.59375 18.746094 27.929688 19.699219 27.683594 C 20.648438 27.441406 21.363281 26.660156 21.527344 25.695312 C 21.527344 25.695312 23.859375 18.851562 30.933594 11.777344 C 34.472656 8.234375 37.308594 6.507812 39.175781 5.707031 C 40.382812 5.195312 40.40625 5.292969 40.730469 5.242188 L 43.609375 8.121094 C 38.554688 12.011719 33.746094 16.21875 29.222656 20.714844 C 18.667969 31.273438 8.851562 44.589844 8.851562 44.589844 L 19.429688 55.160156 C 19.429688 55.160156 32.738281 45.347656 43.300781 34.792969 C 53.851562 24.234375 60.636719 13.953125 60.636719 13.953125 L 50.058594 3.375 C 50.058594 3.375 49.128906 4.089844 47.730469 5.089844 L 43.375 0.730469 C 42.898438 0.269531 42.253906 0.015625 41.589844 0.03125 Z M 58.148438 0.03125 C 56.5625 0.207031 54.699219 0.996094 52.320312 2.132812 L 61.878906 11.699219 C 64.15625 6.933594 64.980469 4.300781 62.347656 1.664062 C 61.035156 0.355469 59.730469 -0.140625 58.148438 0.03125 Z M 7.140625 46.300781 C 3.84375 51.796875 2.871094 56.359375 2.632812 58.972656 L 0.53125 60.996094 C 0.199219 61.324219 0.015625 61.773438 0.015625 62.238281 C 0.015625 62.703125 0.199219 63.152344 0.53125 63.484375 C 0.859375 63.8125 1.308594 64 1.777344 64 C 2.242188 64 2.691406 63.8125 3.019531 63.484375 L 5.121094 61.382812 C 7.742188 61.132812 12.261719 60.140625 17.714844 56.871094 Z M 7.140625 46.300781 "/>
</g>
</svg>
