<svg xmlns="http://www.w3.org/2000/svg" xmlns:xlink="http://www.w3.org/1999/xlink" width="64" height="64" viewBox="0 0 64 64" version="1.1">
<defs> <linearGradient id="linear0" gradientUnits="userSpaceOnUse" x1="0" y1="0" x2="0" y2="1" gradientTransform="matrix(55.992188,0,0,56,4.003906,4)"> <stop offset="0" style="stop-color:#ff6666;stop-opacity:1;"/> <stop offset="1" style="stop-color:#d90000;stop-opacity:1;"/> </linearGradient> </defs>
<g id="surface1">
<path style=" stroke:none;fill-rule:evenodd;fill:url(#linear0);fill-opacity:1;" d="M 31.1875 2.035156 C 29.898438 2.046875 28.574219 2.121094 27.222656 2.261719 C 68.304688 9.8125 63.402344 58.839844 26.734375 62.3125 C 80.554688 60.203125 71.160156 1.621094 31.1875 2.035156 M 30.402344 14.839844 C 29.859375 14.84375 29.296875 14.878906 28.726562 14.925781 C 49.335938 19.023438 46.871094 47.792969 28.460938 50.117188 C 58.765625 49.5 53.277344 14.574219 30.402344 14.839844 M 28.296875 22.808594 C 23.105469 22.808594 18.890625 27 18.890625 32.171875 C 18.890625 37.347656 23.105469 41.539062 28.296875 41.539062 C 33.492188 41.539062 37.699219 37.347656 37.699219 32.171875 C 37.699219 27 33.492188 22.808594 28.296875 22.808594 M 28.289062 25.285156 C 31.660156 25.285156 33.644531 26.671875 33.644531 28.964844 C 33.644531 30.585938 32.75 31.8125 31.027344 32.550781 C 29.660156 33.15625 29.421875 33.429688 29.421875 34.425781 L 29.421875 34.578125 L 27.46875 34.578125 C 27.425781 34.34375 27.425781 34.230469 27.425781 33.9375 C 27.425781 32.519531 27.683594 32.050781 29.132812 30.917969 C 29.777344 30.390625 30.085938 29.808594 30.085938 29.027344 C 30.085938 27.785156 29.269531 26.980469 27.972656 26.980469 C 26.917969 26.980469 25.980469 27.472656 25.980469 28.015625 C 25.980469 28.152344 25.984375 28.152344 26.136719 28.519531 C 26.199219 28.679688 26.273438 29.027344 26.273438 29.222656 C 26.273438 30.082031 25.59375 30.703125 24.652344 30.703125 C 23.59375 30.703125 22.945312 30.023438 22.945312 28.894531 C 22.945312 26.847656 25.257812 25.285156 28.289062 25.285156 M 28.523438 35.453125 C 29.539062 35.453125 30.339844 36.25 30.339844 37.246094 C 30.339844 38.242188 29.523438 39.054688 28.523438 39.054688 C 27.53125 39.054688 26.722656 38.242188 26.722656 37.207031 C 26.722656 36.25 27.546875 35.453125 28.523438 35.453125 "/>
</g>
</svg>
