<svg xmlns="http://www.w3.org/2000/svg" xmlns:xlink="http://www.w3.org/1999/xlink" width="64" height="64" viewBox="0 0 64 64" version="1.1">
<defs>
<linearGradient id="linear0" gradientUnits="userSpaceOnUse" x1="0" y1="0" x2="0" y2="1" gradientTransform="matrix(64,0,0,64,0,0)">
<stop offset="0" style="stop-color:#ff6666;stop-opacity:1;"/>
<stop offset="1" style="stop-color:#d90000;stop-opacity:1;"/>
</linearGradient>
</defs>
<g id="surface1">
<path style=" stroke:none;fill-rule:evenodd;fill:url(#linear0);" d="M 19.28125 9.140625 C 17.867188 9.140625 15.460938 9.988281 13.234375 13.414062 C 11.011719 16.839844 9.226562 22.472656 9.226562 28.863281 C 9.226562 35.261719 11.011719 40.886719 13.234375 44.316406 C 14.527344 46.308594 16.179688 47.40625 17.234375 48 C 20.21875 47.589844 23.761719 47.242188 27.429688 47.074219 L 27.429688 18.652344 C 26.757812 16.609375 25.777344 14.820312 24.863281 13.414062 C 22.640625 9.988281 20.691406 9.140625 19.28125 9.140625 Z M 8.207031 51.796875 C 3.226562 46.679688 0 38.175781 0 28.570312 C 0 12.800781 8.703125 0 19.429688 0 C 24.21875 0 28.609375 2.554688 32 6.785156 C 35.390625 2.554688 39.78125 0 44.570312 0 C 55.296875 0 64 12.800781 64 28.570312 C 64 38.175781 60.773438 46.679688 55.792969 51.796875 C 56.367188 51.921875 56.941406 52.050781 57.507812 52.1875 C 58.285156 52.367188 59.0625 52.5625 59.828125 52.78125 C 61.292969 53.191406 62.523438 54.164062 63.269531 55.488281 C 64.011719 56.816406 64.195312 58.367188 63.785156 59.832031 C 63.371094 61.296875 62.398438 62.527344 61.085938 63.273438 C 59.761719 64.015625 58.195312 64.195312 56.742188 63.789062 C 56.125 63.617188 55.507812 63.457031 54.890625 63.308594 C 53.121094 62.882812 51.324219 62.515625 49.53125 62.195312 C 43.746094 61.136719 37.875 60.597656 32 60.574219 C 26.125 60.597656 20.253906 61.136719 14.46875 62.195312 C 12.675781 62.515625 10.878906 62.882812 9.109375 63.308594 C 8.492188 63.457031 7.875 63.617188 7.257812 63.789062 C 5.804688 64.195312 4.238281 64.015625 2.914062 63.273438 C 1.601562 62.527344 0.628906 61.296875 0.214844 59.832031 C -0.195312 58.367188 -0.0117188 56.816406 0.730469 55.488281 C 1.476562 54.164062 2.707031 53.191406 4.171875 52.78125 C 4.9375 52.5625 5.714844 52.367188 6.492188 52.1875 C 7.058594 52.050781 7.632812 51.921875 8.207031 51.796875 Z M 44.867188 9.140625 C 43.460938 9.140625 41.507812 9.988281 39.285156 13.414062 C 38.371094 14.820312 37.242188 16.609375 36.570312 18.652344 L 36.570312 47.074219 C 40.238281 47.242188 43.929688 47.589844 46.910156 48 C 47.96875 47.40625 49.621094 46.308594 50.910156 44.316406 C 53.136719 40.886719 54.925781 35.261719 54.925781 28.863281 C 54.925781 22.472656 53.136719 16.839844 50.910156 13.414062 C 48.6875 9.988281 46.28125 9.140625 44.867188 9.140625 Z M 44.867188 9.140625 "/>
</g>
</svg>
