<svg xmlns="http://www.w3.org/2000/svg" xmlns:xlink="http://www.w3.org/1999/xlink" width="64" height="64" viewBox="0 0 64 64" version="1.1">
<defs>
<linearGradient id="linear0" gradientUnits="userSpaceOnUse" x1="0" y1="0" x2="0" y2="1" gradientTransform="matrix(54.785156,0,0,60,4.800781,2)">
<stop offset="0" style="stop-color:#ff6666;stop-opacity:1;"/>
<stop offset="1" style="stop-color:#d90000;stop-opacity:1;"/>
</linearGradient>
</defs>
<g id="surface1">
<path style=" stroke:none;fill-rule:nonzero;fill:url(#linear0);" d="M 17.179688 2 C 14.726562 2 12.535156 2.042969 10.582031 2.160156 C 9.605469 2.214844 8.683594 2.292969 7.824219 2.386719 C 7.523438 2.421875 7.265625 2.472656 6.980469 2.511719 C 6.578125 4.765625 6.082031 7.84375 5.8125 9.910156 C 5.589844 11.648438 5.402344 13.335938 5.253906 14.964844 C 5.105469 16.597656 4.992188 18.171875 4.917969 19.691406 C 4.839844 21.210938 4.800781 22.671875 4.800781 24.070312 C 4.796875 25.472656 4.832031 26.8125 4.90625 28.085938 C 4.976562 29.363281 5.085938 30.578125 5.230469 31.726562 C 5.375 32.875 5.558594 33.957031 5.777344 34.972656 C 5.992188 35.984375 6.246094 36.933594 6.539062 37.808594 C 6.828125 38.683594 7.15625 39.488281 7.519531 40.21875 C 7.761719 40.703125 8.019531 41.175781 8.300781 41.636719 C 8.578125 42.09375 8.875 42.539062 9.1875 42.972656 C 9.5 43.402344 9.832031 43.820312 10.179688 44.21875 C 10.527344 44.621094 10.894531 45.007812 11.273438 45.378906 C 11.65625 45.75 12.054688 46.109375 12.46875 46.449219 C 12.886719 46.789062 13.316406 47.113281 13.761719 47.421875 C 14.65625 48.039062 15.613281 48.59375 16.628906 49.078125 C 17.179688 49.339844 17.699219 49.5625 18.207031 49.75 C 18.710938 49.9375 19.207031 50.089844 19.703125 50.207031 C 20.199219 50.324219 20.695312 50.410156 21.210938 50.46875 C 21.726562 50.527344 22.261719 50.554688 22.828125 50.558594 C 23.574219 50.5625 24.269531 50.535156 24.949219 50.457031 C 25.625 50.382812 26.285156 50.261719 26.957031 50.085938 C 27.632812 49.910156 28.324219 49.683594 29.066406 49.394531 C 29.804688 49.105469 30.597656 48.75 31.472656 48.328125 C 32.5 47.828125 33.261719 47.402344 33.980469 46.890625 C 34.699219 46.378906 35.378906 45.777344 36.238281 44.929688 C 36.863281 44.3125 37.414062 43.675781 37.890625 43.027344 C 38.367188 42.378906 38.765625 41.71875 39.089844 41.046875 C 39.410156 40.378906 39.652344 39.699219 39.816406 39.019531 C 39.980469 38.335938 40.0625 37.652344 40.0625 36.96875 C 40.0625 36.394531 40 35.808594 39.882812 35.222656 C 39.769531 34.632812 39.597656 34.042969 39.378906 33.464844 C 39.164062 32.882812 38.898438 32.308594 38.597656 31.753906 C 38.292969 31.199219 37.949219 30.660156 37.574219 30.152344 C 37.199219 29.644531 36.792969 29.164062 36.359375 28.722656 C 35.929688 28.28125 35.472656 27.878906 35 27.523438 C 34.527344 27.167969 34.035156 26.859375 33.535156 26.613281 C 33.035156 26.363281 32.527344 26.175781 32.015625 26.054688 C 31.707031 25.980469 31.328125 25.925781 30.917969 25.890625 C 30.507812 25.855469 30.066406 25.839844 29.625 25.839844 C 29.183594 25.839844 28.746094 25.855469 28.351562 25.894531 C 27.953125 25.929688 27.59375 25.988281 27.3125 26.058594 C 26.835938 26.183594 26.421875 26.332031 26.066406 26.503906 C 25.710938 26.671875 25.417969 26.867188 25.183594 27.078125 C 24.949219 27.289062 24.773438 27.519531 24.660156 27.765625 C 24.542969 28.011719 24.488281 28.269531 24.496094 28.542969 C 24.5 28.816406 24.566406 29.101562 24.691406 29.398438 C 24.816406 29.691406 25 29.992188 25.246094 30.300781 C 25.488281 30.609375 25.792969 30.921875 26.15625 31.238281 C 26.519531 31.554688 26.945312 31.871094 27.425781 32.1875 C 27.753906 32.402344 28.085938 32.648438 28.398438 32.910156 C 28.710938 33.167969 29.003906 33.445312 29.265625 33.714844 C 29.527344 33.984375 29.753906 34.253906 29.929688 34.5 C 30.105469 34.742188 30.230469 34.96875 30.285156 35.148438 C 30.371094 35.4375 30.410156 35.601562 30.378906 35.792969 C 30.34375 35.988281 30.242188 36.207031 30.039062 36.597656 C 29.917969 36.839844 29.757812 37.074219 29.574219 37.292969 C 29.386719 37.511719 29.175781 37.722656 28.9375 37.917969 C 28.703125 38.109375 28.441406 38.289062 28.164062 38.453125 C 27.886719 38.617188 27.589844 38.765625 27.28125 38.894531 C 26.972656 39.023438 26.648438 39.132812 26.316406 39.222656 C 25.988281 39.3125 25.648438 39.382812 25.308594 39.429688 C 24.964844 39.476562 24.621094 39.5 24.277344 39.5 C 23.9375 39.5 23.59375 39.476562 23.261719 39.421875 C 22.644531 39.328125 22.042969 39.167969 21.464844 38.949219 C 20.882812 38.730469 20.324219 38.453125 19.792969 38.125 C 19.257812 37.796875 18.753906 37.417969 18.277344 36.992188 C 17.804688 36.570312 17.363281 36.101562 16.960938 35.597656 C 16.554688 35.09375 16.191406 34.554688 15.867188 33.984375 C 15.546875 33.414062 15.269531 32.8125 15.039062 32.191406 C 14.8125 31.570312 14.632812 30.921875 14.507812 30.261719 C 14.382812 29.601562 14.3125 28.925781 14.304688 28.238281 C 14.296875 27.4375 14.34375 26.800781 14.488281 26.167969 C 14.632812 25.535156 14.871094 24.910156 15.242188 24.132812 C 15.46875 23.652344 15.734375 23.175781 16.03125 22.703125 C 16.332031 22.234375 16.660156 21.769531 17.019531 21.320312 C 17.375 20.867188 17.761719 20.425781 18.171875 20 C 18.578125 19.574219 19.011719 19.164062 19.464844 18.769531 C 19.914062 18.378906 20.386719 18.003906 20.871094 17.65625 C 21.355469 17.304688 21.859375 16.972656 22.371094 16.671875 C 22.878906 16.371094 23.402344 16.09375 23.929688 15.847656 C 24.457031 15.601562 24.992188 15.382812 25.527344 15.199219 C 26.125 14.996094 26.742188 14.835938 27.382812 14.710938 C 28.019531 14.585938 28.675781 14.503906 29.34375 14.457031 C 30.011719 14.410156 30.695312 14.402344 31.378906 14.429688 C 32.066406 14.460938 32.757812 14.527344 33.449219 14.628906 C 34.140625 14.730469 34.828125 14.871094 35.511719 15.046875 C 36.191406 15.21875 36.867188 15.429688 37.527344 15.675781 C 38.1875 15.917969 38.832031 16.195312 39.460938 16.507812 C 40.085938 16.820312 40.691406 17.164062 41.265625 17.542969 C 41.957031 17.992188 42.59375 18.464844 43.183594 18.972656 C 43.773438 19.476562 44.316406 20.011719 44.8125 20.589844 C 45.308594 21.164062 45.761719 21.777344 46.171875 22.433594 C 46.578125 23.09375 46.949219 23.800781 47.277344 24.554688 C 47.605469 25.3125 47.894531 26.125 48.152344 26.996094 C 48.40625 27.863281 48.625 28.792969 48.808594 29.792969 C 48.996094 30.789062 49.152344 31.851562 49.273438 32.992188 C 49.398438 34.128906 49.496094 35.34375 49.5625 36.636719 C 49.652344 38.3125 49.664062 40.199219 49.601562 42.222656 C 49.542969 44.242188 49.410156 46.398438 49.21875 48.617188 C 49.023438 50.832031 48.769531 53.105469 48.457031 55.359375 C 48.144531 57.617188 47.777344 59.855469 47.363281 62 C 47.898438 61.925781 48.449219 61.859375 48.9375 61.769531 C 51.960938 61.199219 54.152344 60.238281 55.730469 58.664062 C 58.882812 55.511719 59.585938 49.910156 59.585938 40.105469 L 59.585938 24.40625 C 59.585938 10.925781 58.257812 5.390625 51.050781 3.246094 C 50.398438 3.054688 49.695312 2.886719 48.9375 2.742188 C 48.183594 2.601562 47.375 2.484375 46.511719 2.386719 C 45.648438 2.292969 44.730469 2.214844 43.753906 2.160156 C 41.796875 2.042969 39.605469 2 37.152344 2 Z M 17.179688 2 "/>
</g>
</svg>
