<svg xmlns="http://www.w3.org/2000/svg" xmlns:xlink="http://www.w3.org/1999/xlink" width="64" height="64" viewBox="0 0 64 64" version="1.1">
<defs>
<linearGradient id="linear0" gradientUnits="userSpaceOnUse" x1="0" y1="0" x2="0" y2="1" gradientTransform="matrix(75.423328,0,0,69.240242,-5.153697,-2.297954)">
<stop offset="0" style="stop-color:#ff6666;stop-opacity:1;"/>
<stop offset="1" style="stop-color:#d90000;stop-opacity:1;"/>
</linearGradient>
</defs>
<g id="surface1">
<path style=" stroke:none;fill-rule:nonzero;fill:url(#linear0);" d="M 32.90625 54.75 L 23.507812 45.40625 C 22.839844 44.742188 23.675781 41.207031 24.324219 40.5625 L 42.089844 22.894531 C 42.890625 22.105469 45.980469 22.105469 46.257812 22.386719 L 55.675781 31.746094 C 56.785156 32.851562 55.996094 35.734375 55.507812 36.226562 L 37.675781 53.953125 C 36.554688 55.070312 33.550781 55.394531 32.90625 54.75 Z M 18.695312 40.621094 L 9.304688 31.28125 C 8.628906 30.609375 9.472656 27.078125 10.113281 26.4375 L 27.886719 8.761719 C 28.679688 7.972656 31.769531 7.972656 32.046875 8.253906 L 41.464844 17.621094 C 42.574219 18.71875 41.792969 21.605469 41.296875 22.09375 L 23.464844 39.824219 C 22.347656 40.9375 19.34375 41.261719 18.695312 40.621094 Z M 18.695312 40.621094 "/>
<path style=" stroke:none;fill-rule:nonzero;fill:#d90000;fill-opacity:1;" d="M 21.527344 33.875 L 16.0625 28.445312 C 15.675781 28.058594 16.164062 26.007812 16.539062 25.628906 L 26.867188 15.359375 C 27.328125 14.898438 29.121094 14.898438 29.285156 15.0625 L 34.761719 20.507812 C 35.402344 21.148438 34.945312 22.824219 34.664062 23.109375 L 24.296875 33.414062 C 23.644531 34.0625 21.898438 34.253906 21.527344 33.882812 Z M 21.527344 33.875 "/>
<path style=" stroke:none;fill-rule:nonzero;fill:#d90000;fill-opacity:1;" d="M 29.25 45.851562 L 31.199219 43.910156 C 31.664062 43.449219 32.414062 43.449219 32.878906 43.910156 L 34.90625 45.925781 C 35.367188 46.386719 35.367188 47.132812 34.90625 47.59375 L 32.953125 49.535156 C 32.488281 49.996094 31.738281 49.996094 31.273438 49.535156 L 29.25 47.519531 C 28.785156 47.0625 28.785156 46.3125 29.25 45.851562 Z M 29.25 45.851562 "/>
<path style=" stroke:none;fill-rule:nonzero;fill:#d90000;fill-opacity:1;" d="M 44.910156 30.269531 L 46.863281 28.332031 C 47.324219 27.871094 48.078125 27.871094 48.542969 28.332031 L 50.570312 30.351562 C 51.035156 30.808594 51.035156 31.558594 50.570312 32.019531 L 48.621094 33.960938 C 48.15625 34.421875 47.40625 34.421875 46.941406 33.960938 L 44.910156 31.941406 C 44.449219 31.480469 44.449219 30.730469 44.910156 30.269531 Z M 44.910156 30.269531 "/>
</g>
</svg>
