<svg xmlns="http://www.w3.org/2000/svg" xmlns:xlink="http://www.w3.org/1999/xlink" width="64" height="64" viewBox="0 0 64 64" version="1.1">
<defs> <linearGradient id="linear0" gradientUnits="userSpaceOnUse" x1="0" y1="0" x2="0" y2="1" gradientTransform="matrix(55.992188,0,0,56,4.003906,4)"> <stop offset="0" style="stop-color:#ff6666;stop-opacity:1;"/> <stop offset="1" style="stop-color:#d90000;stop-opacity:1;"/> </linearGradient> </defs>
<g id="surface1">
<path style=" stroke:none;fill-rule:nonzero;fill:url(#linear0);fill-opacity:1;" d="M 20.667969 16.902344 C 19.460938 16.921875 18.222656 17.226562 17.023438 17.820312 C 13.453125 19.578125 11.980469 23.363281 13.09375 27.871094 C 13.621094 30.023438 13.804688 32.9375 13.484375 34.109375 C 13.03125 35.769531 11.640625 36.640625 9.398438 36.640625 C 7.183594 36.648438 5 38.335938 4.570312 40.402344 C 4.132812 42.511719 4.632812 44.421875 6.011719 45.808594 C 7.636719 47.429688 9.886719 47.890625 11.832031 46.980469 C 14.65625 45.667969 15.582031 42.917969 14.378906 39.484375 C 13.796875 37.835938 13.769531 37.609375 14.066406 36.5625 C 15.296875 32.128906 25.457031 31.804688 27.121094 36.144531 C 27.511719 37.171875 27.449219 37.875 26.730469 39.671875 C 26.285156 40.769531 26.230469 41.152344 26.308594 42.335938 C 26.445312 44.492188 27.484375 46 29.527344 46.929688 C 30.777344 47.492188 33.367188 47.492188 34.589844 46.929688 C 37.597656 45.546875 38.722656 42.546875 37.394531 39.515625 C 36.257812 36.90625 36.832031 35.175781 39.234375 33.976562 C 42.25 32.472656 46.609375 32.8125 48.804688 34.734375 C 50.371094 36.109375 50.605469 37.296875 49.773438 39.671875 C 48.667969 42.816406 49.554688 45.535156 52.101562 46.90625 C 53.203125 47.492188 55.648438 47.492188 56.75 46.90625 C 57.742188 46.367188 58.867188 45.199219 59.234375 44.316406 C 60.308594 41.753906 59.433594 38.523438 57.320312 37.296875 C 56.59375 36.867188 56.042969 36.738281 54.566406 36.617188 C 53.371094 36.515625 52.535156 36.324219 52.132812 36.09375 C 51.332031 35.628906 50.695312 34.476562 50.53125 33.195312 C 50.386719 32.03125 50.710938 29.125 51.160156 27.582031 C 51.625 25.984375 51.4375 22.988281 50.796875 21.574219 C 48.816406 17.25 43.222656 15.550781 39.257812 18.101562 C 38.636719 18.503906 37.835938 19.21875 37.472656 19.667969 C 36.203125 21.269531 34.144531 23.316406 33.515625 23.617188 C 31.925781 24.363281 30.296875 23.746094 28.507812 21.734375 C 25.808594 18.683594 25.410156 18.300781 24.207031 17.710938 C 23.078125 17.160156 21.878906 16.886719 20.667969 16.902344 M 32.101562 25.78125 C 35.757812 25.777344 38.246094 29.109375 37.210938 32.648438 C 36.765625 34.191406 35.28125 35.683594 33.804688 36.121094 C 32.539062 36.488281 31.492188 36.503906 30.316406 36.144531 C 28.269531 35.515625 26.734375 33.34375 26.75 31.054688 C 26.761719 29.527344 27.105469 28.648438 28.164062 27.5 C 29.277344 26.304688 30.476562 25.78125 32.101562 25.78125 "/>
</g>
</svg>
