<svg xmlns="http://www.w3.org/2000/svg" xmlns:xlink="http://www.w3.org/1999/xlink" width="64" height="64" viewBox="0 0 64 64" version="1.1">
<defs> <linearGradient id="linear0" gradientUnits="userSpaceOnUse" x1="0" y1="0" x2="0" y2="1" gradientTransform="matrix(55.992188,0,0,56,4.003906,4)"> <stop offset="0" style="stop-color:#ff6666;stop-opacity:1;"/> <stop offset="1" style="stop-color:#d90000;stop-opacity:1;"/> </linearGradient> </defs>
<g id="surface1">
<path style=" stroke:none;fill-rule:nonzero;fill:url(#linear0);fill-opacity:1;" d="M 60.082031 53.726562 C 60.03125 53.71875 59.890625 53.597656 59.757812 53.441406 C 58.394531 51.832031 56.238281 50.40625 53.441406 49.273438 C 51.183594 48.359375 51.183594 48.359375 48.371094 44.535156 C 47.957031 43.976562 47.582031 43.550781 47.535156 43.589844 C 47.484375 43.632812 47.941406 44.492188 48.546875 45.496094 C 49.148438 46.507812 49.605469 47.371094 49.546875 47.414062 C 49.496094 47.453125 47.957031 47.070312 46.121094 46.554688 C 44.292969 46.039062 42.222656 45.496094 41.523438 45.351562 L 40.246094 45.085938 L 39.222656 43.457031 C 38.105469 41.6875 37.605469 41.082031 36.257812 39.875 C 34.890625 38.660156 34.707031 38.890625 35.871094 40.375 C 36.859375 41.632812 38.324219 44.15625 38.28125 44.53125 C 38.257812 44.777344 37.898438 44.710938 35.308594 43.980469 C 32.351562 43.148438 29.859375 42.230469 27.609375 41.136719 L 25.824219 40.273438 L 25.242188 38.746094 C 24.605469 37.09375 23.078125 34.40625 22.667969 34.226562 C 22.53125 34.167969 22.703125 34.796875 23.050781 35.632812 C 23.792969 37.433594 24.308594 39.238281 24.140625 39.457031 C 23.921875 39.730469 20.730469 37.40625 18.859375 35.605469 C 18.085938 34.871094 17.9375 34.589844 17.675781 33.320312 C 17.132812 30.71875 15.898438 28.585938 16.207031 30.78125 C 16.292969 31.363281 16.371094 32.242188 16.394531 32.726562 L 16.425781 33.617188 L 15.84375 32.867188 C 14.242188 30.800781 13.265625 28.785156 12.65625 26.308594 C 12.265625 24.703125 11.125 22.984375 6.457031 16.9375 C 3.9375 13.6875 3.53125 12.886719 4.421875 12.984375 C 4.984375 13.042969 6.449219 14.640625 10.28125 19.371094 C 12.195312 21.726562 13.898438 23.652344 14.148438 23.730469 C 14.394531 23.808594 16.035156 24.074219 17.796875 24.316406 C 20.476562 24.695312 21.386719 24.90625 23.332031 25.613281 C 24.609375 26.082031 25.835938 26.476562 26.058594 26.5 C 27.15625 26.621094 25.535156 27.863281 22.640625 29.128906 C 21.804688 29.5 21.21875 29.835938 21.335938 29.886719 C 21.582031 30.007812 24.421875 29.019531 26.9375 27.941406 L 28.785156 27.152344 L 31.035156 27.523438 C 34.996094 28.175781 40.988281 30.007812 40.476562 30.414062 C 40.03125 30.769531 36.546875 32.171875 33.957031 33.03125 C 32.414062 33.554688 31.140625 34.011719 31.136719 34.0625 C 31.097656 34.40625 37.835938 33.113281 40.523438 32.253906 C 42.3125 31.679688 43.175781 31.496094 43.476562 31.625 C 44.5 32.050781 46.964844 33.585938 47.957031 34.425781 C 49.429688 35.65625 51.800781 38.699219 51.246094 38.636719 C 50.996094 38.609375 47.378906 37.609375 47.082031 37.484375 C 46.902344 37.40625 46.746094 37.414062 46.734375 37.5 C 46.726562 37.589844 47.535156 37.992188 48.535156 38.398438 C 51.421875 39.574219 52.910156 40.84375 54.648438 43.621094 C 54.925781 44.0625 55.3125 44.664062 55.503906 44.964844 C 55.691406 45.269531 56.066406 45.882812 56.332031 46.328125 L 56.816406 47.144531 L 56.253906 46.960938 C 55.941406 46.867188 55.339844 46.703125 54.917969 46.601562 C 54.277344 46.441406 54.359375 46.507812 55.398438 47.019531 C 56.082031 47.351562 56.894531 47.851562 57.195312 48.132812 C 57.882812 48.761719 60.460938 53.765625 60.082031 53.726562 Z M 60.082031 53.726562 "/>
</g>
</svg>
