<svg xmlns="http://www.w3.org/2000/svg" xmlns:xlink="http://www.w3.org/1999/xlink" width="64" height="64" viewBox="0 0 64 64" version="1.1">
<defs>
<linearGradient id="linear0" gradientUnits="userSpaceOnUse" x1="0" y1="0" x2="0" y2="1" gradientTransform="matrix(64,0,0,44.765625,0,9.617188)">
<stop offset="0" style="stop-color:#ff6666;stop-opacity:1;"/>
<stop offset="1" style="stop-color:#d90000;stop-opacity:1;"/>
</linearGradient>
</defs>
<g id="surface1">
<path style=" stroke:none;fill-rule:nonzero;fill:url(#linear0);" d="M 29.355469 54.289062 C 27.578125 54.121094 24.035156 53.472656 22.507812 53.027344 C 19.238281 52.085938 16.34375 50.542969 13.972656 48.496094 C 13.5 48.089844 12.929688 47.761719 12.683594 47.761719 C 12.445312 47.761719 10.167969 48.46875 7.628906 49.332031 C 5.085938 50.195312 2.878906 50.902344 2.726562 50.902344 C 2.242188 50.902344 1.890625 50.300781 1.304688 48.453125 C 0.65625 46.429688 0.613281 46.050781 0.988281 45.738281 C 1.132812 45.621094 2.941406 44.960938 5.007812 44.273438 C 7.074219 43.585938 8.792969 42.933594 8.828125 42.828125 C 8.902344 42.609375 5.992188 42.394531 2.910156 42.394531 C 0.988281 42.394531 0.871094 42.375 0.414062 41.921875 C -0.0273438 41.476562 -0.0546875 41.355469 0.0507812 40.320312 C 0.121094 39.703125 0.171875 38.761719 0.171875 38.21875 C 0.171875 36.632812 0.183594 36.628906 4.308594 36.695312 L 7.835938 36.757812 L 8.066406 35.175781 C 8.335938 33.347656 8.9375 31.65625 9.863281 30.132812 C 10.355469 29.324219 10.5 28.90625 10.441406 28.46875 C 9.5625 22.1875 9.4375 18.972656 9.886719 14.332031 C 10.257812 10.574219 10.832031 9.617188 12.714844 9.617188 C 14.6875 9.617188 18.171875 12.117188 23.539062 17.386719 L 26.246094 20.042969 L 28.027344 19.84375 C 30.265625 19.597656 33.171875 19.597656 36 19.84375 L 38.191406 20.035156 L 41.28125 17.101562 C 45.378906 13.207031 47.066406 11.785156 48.902344 10.683594 C 50.210938 9.898438 50.605469 9.757812 51.585938 9.691406 C 52.660156 9.625 52.769531 9.65625 53.292969 10.179688 C 54.363281 11.253906 54.824219 13.722656 54.828125 18.445312 C 54.832031 21.285156 54.785156 21.992188 54.261719 26.609375 L 54.027344 28.667969 L 54.828125 29.894531 C 55.835938 31.445312 56.472656 33.171875 56.765625 35.183594 L 56.992188 36.757812 L 60.035156 36.691406 C 62.488281 36.640625 63.15625 36.679688 63.441406 36.894531 C 63.734375 37.121094 63.820312 37.519531 63.941406 39.34375 C 64.027344 40.628906 64.015625 41.65625 63.914062 41.84375 C 63.71875 42.210938 62.824219 42.390625 61.140625 42.394531 C 60.476562 42.394531 58.992188 42.453125 57.839844 42.515625 C 54.839844 42.691406 55.03125 42.921875 59.371094 44.367188 C 61.304688 45.011719 63.011719 45.664062 63.164062 45.820312 C 63.414062 46.070312 63.414062 46.222656 63.132812 47.296875 C 62.679688 49.019531 62.023438 50.558594 61.644531 50.792969 C 61.378906 50.957031 60.398438 50.683594 56.824219 49.46875 C 54.355469 48.628906 52.175781 47.941406 51.980469 47.941406 C 51.785156 47.945312 50.867188 48.519531 49.941406 49.222656 C 46.375 51.933594 41.875 53.640625 36.765625 54.222656 C 35.199219 54.402344 30.992188 54.441406 29.355469 54.289062 Z M 22.851562 38.175781 C 23.667969 37.703125 24.121094 36.972656 24.214844 35.964844 C 24.371094 34.347656 23.558594 33.238281 21.894531 32.792969 C 21.21875 32.609375 20.992188 32.628906 20.316406 32.929688 C 18.234375 33.847656 17.722656 36.214844 19.277344 37.761719 C 20.230469 38.714844 21.632812 38.878906 22.851562 38.175781 Z M 44.140625 38.5 C 45.457031 38.136719 46.5 36.789062 46.5 35.453125 C 46.5 34.742188 45.757812 33.589844 45.0625 33.207031 C 43.941406 32.597656 43.339844 32.5625 42.273438 33.054688 C 41.085938 33.609375 40.570312 34.375 40.566406 35.609375 C 40.566406 36.925781 41.285156 38.035156 42.425781 38.488281 C 43.03125 38.730469 43.304688 38.734375 44.140625 38.503906 Z M 44.140625 38.5 "/>
</g>
</svg>
