<svg xmlns="http://www.w3.org/2000/svg" xmlns:xlink="http://www.w3.org/1999/xlink" width="64" height="64" viewBox="0 0 64 64" version="1.1">
<defs>
<linearGradient id="linear0" gradientUnits="userSpaceOnUse" x1="0" y1="0" x2="0" y2="1" gradientTransform="matrix(42.277344,0,0,64.003906,10.863281,-0.00390625)">
<stop offset="0" style="stop-color:#ff6666;stop-opacity:1;"/>
<stop offset="1" style="stop-color:#d90000;stop-opacity:1;"/>
</linearGradient>
</defs>
<g id="surface1">
<path style=" stroke:none;fill-rule:nonzero;fill:url(#linear0);" d="M 25.320312 0.0429688 L 15.769531 4.050781 C 15.441406 4.183594 15.257812 4.503906 15.378906 4.820312 L 16.460938 7.363281 C 16.597656 7.683594 16.910156 7.808594 17.230469 7.671875 L 19.386719 6.824219 L 20.003906 8.445312 L 19.078125 8.828125 C 17.574219 9.425781 17.554688 9.484375 18.15625 10.984375 L 20.542969 16.765625 L 18.539062 17.535156 C 12.261719 20.089844 9.214844 27.292969 11.761719 33.5625 L 14.222656 39.570312 C 16.007812 37.847656 18.339844 36.738281 21.007812 36.71875 L 18.617188 30.789062 C 17.613281 28.277344 18.816406 25.425781 21.316406 24.390625 L 23.316406 23.625 L 24.394531 26.164062 L 35.261719 21.773438 L 29.097656 6.515625 C 28.5 5.003906 28.519531 4.984375 27.015625 5.59375 L 25.859375 6.050781 L 25.242188 4.4375 L 26.863281 3.738281 C 27.191406 3.609375 27.308594 3.222656 27.171875 2.894531 L 26.171875 0.429688 C 26.035156 0.109375 25.648438 -0.09375 25.320312 0.0390625 Z M 36.804688 25.625 L 25.859375 30.019531 L 27.171875 33.257812 L 31.023438 34.871094 L 36.421875 32.640625 L 38.113281 28.863281 Z M 47.207031 34.023438 C 46.964844 34.0625 46.726562 34.144531 46.511719 34.257812 L 26.863281 42.191406 C 25.503906 40.480469 23.445312 39.339844 21.085938 39.339844 C 16.996094 39.339844 13.683594 42.652344 13.683594 46.738281 C 13.695312 50.402344 16.378906 53.515625 20.003906 54.058594 C 20.0625 54.183594 20.109375 54.320312 20.160156 54.445312 C 20.921875 56.316406 22.125 57.835938 23.546875 59.066406 L 16.152344 59.066406 C 14.789062 59.066406 13.683594 60.171875 13.683594 61.535156 L 13.683594 64 L 53.140625 64 L 53.140625 61.535156 C 53.140625 60.164062 52.039062 59.066406 50.671875 59.066406 L 41.65625 59.066406 L 49.207031 56.140625 C 51.117188 55.40625 52.109375 53.269531 51.363281 51.363281 C 51.011719 50.453125 50.308594 49.714844 49.410156 49.328125 C 48.515625 48.9375 47.5 48.921875 46.589844 49.28125 L 33.410156 54.367188 C 30.898438 55.382812 28.042969 54.175781 27.015625 51.671875 C 26.980469 51.570312 26.898438 51.398438 26.863281 51.289062 C 27.882812 50.015625 28.453125 48.445312 28.480469 46.8125 L 48.363281 38.800781 C 49.488281 38.375 50.152344 37.199219 49.921875 36.015625 C 49.691406 34.832031 48.640625 33.988281 47.4375 34.023438 Z M 21.085938 44.273438 C 22.441406 44.273438 23.546875 45.382812 23.546875 46.738281 C 23.546875 48.097656 22.441406 49.203125 21.085938 49.203125 C 19.726562 49.203125 18.617188 48.097656 18.617188 46.738281 C 18.617188 45.382812 19.726562 44.273438 21.085938 44.273438 Z M 21.085938 44.273438 "/>
</g>
</svg>
