<svg xmlns="http://www.w3.org/2000/svg" xmlns:xlink="http://www.w3.org/1999/xlink" width="64" height="64" viewBox="0 0 64 64" version="1.1">
<defs>
<linearGradient id="linear0" gradientUnits="userSpaceOnUse" x1="0" y1="0" x2="0" y2="1" gradientTransform="matrix(60.003906,0,0,64,2,0)">
<stop offset="0" style="stop-color:#ff6666;stop-opacity:1;"/>
<stop offset="1" style="stop-color:#d90000;stop-opacity:1;"/>
</linearGradient>
</defs>
<g id="surface1">
<path style=" stroke:none;fill-rule:nonzero;fill:url(#linear0);" d="M 32.003906 0 C 25.824219 -0.00390625 20.847656 1.179688 16.800781 3.082031 C 15.972656 3.457031 15.167969 3.863281 14.390625 4.3125 C 14.179688 4.4375 13.988281 4.578125 13.785156 4.707031 C 13.273438 5.027344 12.757812 5.34375 12.273438 5.699219 C 11.875 5.992188 11.515625 6.316406 11.140625 6.628906 C 8.507812 8.824219 6.582031 11.488281 5.148438 14.386719 C 5.078125 14.53125 4.980469 14.667969 4.914062 14.816406 C 4.84375 14.964844 4.796875 15.121094 4.726562 15.273438 C 3.851562 17.226562 3.125 19.25 2.695312 21.351562 C 2.617188 21.742188 2.601562 22.148438 2.535156 22.546875 C 2.34375 23.628906 2.195312 24.695312 2.101562 25.75 C 2.09375 25.84375 2.085938 25.9375 2.074219 26.035156 C 1.96875 27.300781 2 28.453125 2.015625 29.640625 C 2.023438 30.082031 2.011719 30.519531 2.03125 30.957031 C 2.085938 32.226562 2.179688 33.359375 2.332031 34.460938 C 2.421875 35.234375 2.542969 35.992188 2.667969 36.753906 C 2.691406 36.855469 2.699219 36.996094 2.71875 37.097656 L 2.71875 37.105469 L 2.8125 37.535156 C 2.945312 38.285156 3.042969 39.046875 3.207031 39.78125 L 3.675781 41.933594 L 3.710938 41.925781 L 8.246094 64 L 13.289062 63.085938 C 16.128906 62.570312 18.152344 62.117188 19.089844 61.347656 C 19.5625 60.960938 19.832031 60.542969 19.972656 59.796875 C 20.113281 59.054688 20.074219 57.96875 19.769531 56.484375 L 16.371094 39.996094 C 16.066406 38.515625 15.671875 37.492188 15.238281 36.839844 C 14.804688 36.183594 14.367188 35.875 13.757812 35.675781 C 12.546875 35.277344 10.496094 35.570312 7.640625 36.089844 L 6.941406 36.21875 C 6.160156 31.507812 6.007812 26.644531 6.898438 22.246094 C 7.960938 17.035156 10.351562 12.523438 14.765625 9.289062 C 19.113281 6.105469 25.578125 4.496094 32 4.511719 C 38.425781 4.5 44.886719 6.105469 49.234375 9.289062 C 53.648438 12.523438 56.039062 17.035156 57.101562 22.246094 C 57.996094 26.644531 57.839844 31.507812 57.058594 36.21875 L 56.359375 36.089844 C 53.503906 35.570312 51.453125 35.277344 50.242188 35.675781 C 49.632812 35.875 49.195312 36.183594 48.765625 36.839844 C 48.332031 37.492188 47.9375 38.515625 47.628906 39.996094 L 44.230469 56.484375 C 43.925781 57.96875 43.890625 59.054688 44.027344 59.796875 C 44.167969 60.542969 44.4375 60.960938 44.910156 61.347656 C 45.851562 62.117188 47.871094 62.570312 50.710938 63.085938 L 55.757812 64 L 60.289062 41.925781 L 60.324219 41.933594 L 60.796875 39.78125 C 60.957031 39.046875 61.058594 38.285156 61.191406 37.535156 L 61.28125 37.105469 L 61.28125 37.097656 C 61.304688 36.996094 61.3125 36.855469 61.332031 36.753906 C 61.457031 35.992188 61.578125 35.234375 61.667969 34.460938 C 61.820312 33.359375 61.914062 32.226562 61.972656 30.957031 C 61.996094 30.519531 61.980469 30.082031 61.988281 29.640625 C 62 28.453125 62.03125 27.300781 61.929688 26.035156 C 61.921875 25.9375 61.914062 25.84375 61.898438 25.75 C 61.804688 24.695312 61.65625 23.628906 61.464844 22.546875 C 61.398438 22.148438 61.382812 21.742188 61.304688 21.351562 C 60.875 19.25 60.152344 17.226562 59.273438 15.273438 C 59.203125 15.121094 59.160156 14.964844 59.085938 14.816406 C 59.019531 14.667969 58.925781 14.53125 58.851562 14.386719 C 57.417969 11.488281 55.492188 8.824219 52.859375 6.628906 C 52.484375 6.316406 52.125 5.992188 51.726562 5.699219 C 51.242188 5.34375 50.726562 5.027344 50.214844 4.707031 C 50.011719 4.578125 49.820312 4.4375 49.609375 4.3125 C 48.835938 3.863281 48.027344 3.457031 47.199219 3.082031 C 43.15625 1.179688 38.175781 -0.00390625 32 0 Z M 32.003906 0 "/>
</g>
</svg>
