<svg xmlns="http://www.w3.org/2000/svg" xmlns:xlink="http://www.w3.org/1999/xlink" width="64" height="64" viewBox="0 0 64 64" version="1.1">
<defs> <linearGradient id="linear0" gradientUnits="userSpaceOnUse" x1="0" y1="0" x2="0" y2="1" gradientTransform="matrix(55.992188,0,0,56,4.003906,4)"> <stop offset="0" style="stop-color:#ff6666;stop-opacity:1;"/> <stop offset="1" style="stop-color:#d90000;stop-opacity:1;"/> </linearGradient> </defs>
<g id="surface1">
<path style=" stroke:none;fill-rule:nonzero;fill:url(#linear0);fill-opacity:1;" d="M 31.714844 9.796875 C 31.625 9.851562 31.074219 11.910156 30.472656 14.484375 C 29.851562 17.140625 29.261719 19.421875 29.152344 19.542969 C 29.132812 19.574219 29.085938 19.605469 29.023438 19.640625 C 24.230469 20.714844 20.441406 24.441406 19.3125 29.199219 C 19.3125 29.210938 19.308594 29.214844 19.308594 29.222656 C 19.101562 29.714844 18.941406 29.796875 18.484375 29.917969 C 18.113281 30.011719 15.972656 30.511719 13.722656 31.023438 C 11.476562 31.539062 9.574219 32.015625 9.5 32.082031 C 9.425781 32.152344 11.429688 32.6875 13.953125 33.265625 C 16.472656 33.847656 18.703125 34.417969 18.910156 34.542969 C 19.023438 34.609375 19.160156 34.808594 19.289062 35.058594 C 20.402344 39.894531 24.253906 43.6875 29.136719 44.734375 C 29.746094 45.136719 29.828125 45.734375 30.308594 47.742188 C 30.675781 49.28125 31.199219 51.519531 31.472656 52.714844 C 31.839844 54.324219 32.015625 54.789062 32.125 54.523438 C 32.203125 54.324219 32.726562 52.210938 33.277344 49.816406 C 33.832031 47.429688 34.351562 45.320312 34.429688 45.136719 C 34.496094 44.984375 34.84375 44.773438 35.421875 44.523438 C 39.632812 43.324219 42.960938 40.050781 44.21875 35.882812 C 44.273438 35.71875 44.316406 35.554688 44.355469 35.386719 C 44.316406 35.554688 44.273438 35.71875 44.21875 35.882812 C 44.394531 35.339844 44.640625 34.859375 44.78125 34.804688 C 44.929688 34.746094 47.183594 34.210938 49.796875 33.605469 C 52.410156 33 54.574219 32.480469 54.605469 32.445312 C 54.691406 32.359375 53.984375 32.179688 49.273438 31.09375 C 47.078125 30.589844 45.125 30.113281 44.9375 30.035156 C 44.804688 29.984375 44.640625 29.742188 44.449219 29.335938 C 44.449219 29.335938 44.441406 29.335938 44.441406 29.328125 C 43.3125 24.339844 39.261719 20.449219 34.175781 19.535156 C 34.128906 19.484375 34.09375 19.425781 34.070312 19.371094 C 33.980469 19.15625 33.441406 16.945312 32.875 14.453125 C 32.304688 11.964844 31.789062 9.875 31.722656 9.796875 C 31.722656 9.796875 31.722656 9.796875 31.714844 9.796875 M 31.863281 19.324219 C 32.085938 19.324219 32.3125 19.328125 32.527344 19.339844 C 32.304688 19.328125 32.085938 19.324219 31.863281 19.324219 C 31.6875 19.324219 31.503906 19.328125 31.328125 19.335938 C 31.503906 19.328125 31.6875 19.324219 31.863281 19.324219 M 31.085938 19.351562 C 30.902344 19.363281 30.726562 19.375 30.546875 19.390625 C 30.386719 19.410156 30.226562 19.425781 30.070312 19.449219 C 30.226562 19.425781 30.386719 19.410156 30.546875 19.390625 C 30.726562 19.375 30.902344 19.363281 31.085938 19.351562 M 31.863281 22.761719 C 37.082031 22.761719 41.3125 26.976562 41.3125 32.171875 C 41.3125 37.371094 37.082031 41.582031 31.863281 41.582031 C 26.644531 41.582031 22.414062 37.371094 22.414062 32.171875 C 22.414062 26.976562 26.644531 22.761719 31.863281 22.761719 M 19.023438 30.914062 C 19.003906 31.074219 18.996094 31.246094 18.984375 31.410156 C 18.996094 31.246094 19.003906 31.074219 19.023438 30.914062 M 44.703125 30.929688 C 44.71875 31.09375 44.730469 31.257812 44.742188 31.421875 C 44.730469 31.257812 44.71875 31.09375 44.703125 30.929688 M 18.976562 31.566406 C 18.964844 31.773438 18.960938 31.96875 18.960938 32.171875 C 18.960938 32.367188 18.972656 32.550781 18.976562 32.738281 C 18.972656 32.550781 18.960938 32.367188 18.960938 32.171875 C 18.960938 31.96875 18.964844 31.773438 18.976562 31.566406 M 44.753906 31.628906 C 44.761719 31.8125 44.765625 31.992188 44.765625 32.171875 C 44.765625 31.992188 44.761719 31.8125 44.753906 31.628906 M 18.984375 32.914062 C 18.996094 33.101562 19.011719 33.289062 19.027344 33.472656 C 19.011719 33.289062 18.996094 33.105469 18.984375 32.914062 M 44.742188 32.929688 C 44.730469 33.117188 44.714844 33.304688 44.699219 33.484375 C 44.679688 33.636719 44.664062 33.789062 44.640625 33.945312 C 44.664062 33.789062 44.679688 33.636719 44.699219 33.484375 C 44.714844 33.304688 44.730469 33.117188 44.742188 32.929688 M 44.582031 34.316406 C 44.566406 34.429688 44.542969 34.542969 44.519531 34.65625 C 44.542969 34.542969 44.566406 34.429688 44.582031 34.316406 M 30.546875 44.953125 C 30.75 44.976562 30.953125 44.992188 31.164062 45.003906 C 30.953125 44.992188 30.75 44.976562 30.546875 44.953125 M 31.199219 45.003906 C 31.421875 45.015625 31.640625 45.023438 31.863281 45.023438 C 32.074219 45.023438 32.28125 45.015625 32.492188 45.003906 C 32.28125 45.015625 32.074219 45.023438 31.863281 45.023438 C 31.640625 45.023438 31.421875 45.015625 31.199219 45.003906 "/>
<path style=" stroke:none;fill-rule:nonzero;fill:url(#linear0);fill-opacity:1;" d="M 28.65625 29.085938 C 35.457031 23.617188 28.636719 29.078125 35.441406 23.632812 C 53.574219 8.875 35.519531 23.652344 53.589844 8.820312 C 37.445312 31.566406 42.328125 24.820312 37.378906 31.710938 C 36.054688 33.554688 34.871094 35.058594 34.746094 35.058594 C 28.632812 29.128906 34.726562 35.039062 28.65625 29.085938 "/>
<path style=" stroke:none;fill-rule:nonzero;fill:url(#linear0);fill-opacity:1;" d="M 34.953125 34.933594 C 28.222656 40.492188 34.976562 34.9375 28.238281 40.476562 C 10.304688 55.472656 28.160156 40.457031 10.289062 55.523438 C 26.128906 32.570312 21.335938 39.378906 26.195312 32.421875 C 27.496094 30.566406 28.660156 29.046875 28.785156 29.039062 C 34.976562 34.886719 28.800781 29.0625 34.953125 34.933594 "/>
</g>
</svg>
