<svg xmlns="http://www.w3.org/2000/svg" xmlns:xlink="http://www.w3.org/1999/xlink" width="64" height="64" viewBox="0 0 64 64" version="1.1">
<defs>
<linearGradient id="linear0" gradientUnits="userSpaceOnUse" x1="0" y1="0" x2="0" y2="1" gradientTransform="matrix(63.851562,0,0,61.652344,0.148438,0.625)">
<stop offset="0" style="stop-color:#ff6666;stop-opacity:1;"/>
<stop offset="1" style="stop-color:#d90000;stop-opacity:1;"/>
</linearGradient>
</defs>
<g id="surface1">
<path style=" stroke:none;fill-rule:evenodd;fill:url(#linear0);" d="M 16.453125 40.113281 C 15.804688 40.207031 15.136719 40.257812 14.460938 40.257812 C 6.558594 40.257812 0.148438 33.84375 0.148438 25.945312 C 0.148438 19.40625 4.539062 13.886719 10.535156 12.1875 C 12.253906 5.539062 18.289062 0.625 25.46875 0.625 C 30.84375 0.625 35.578125 3.382812 38.332031 7.566406 C 40.003906 5.992188 42.257812 5.027344 44.730469 5.027344 C 48.535156 5.027344 51.816406 7.300781 53.273438 10.566406 C 59.265625 10.988281 64 15.992188 64 22.09375 C 64 26.253906 61.796875 29.902344 58.496094 31.941406 C 58.496094 31.960938 58.496094 31.980469 58.496094 32 C 58.496094 38.378906 53.316406 43.558594 46.9375 43.558594 C 45.074219 43.558594 43.316406 43.121094 41.761719 42.335938 C 38.945312 45.777344 34.660156 47.964844 29.871094 47.964844 C 24.117188 47.964844 19.09375 44.800781 16.453125 40.113281 Z M 35.375 53.46875 C 35.375 50.429688 37.84375 47.964844 40.878906 47.964844 C 43.921875 47.964844 46.382812 50.429688 46.382812 53.46875 C 46.382812 56.503906 43.921875 58.972656 40.878906 58.972656 C 37.84375 58.972656 35.375 56.503906 35.375 53.46875 Z M 19.964844 57.871094 C 19.964844 55.441406 21.9375 53.46875 24.367188 53.46875 C 26.796875 53.46875 28.773438 55.441406 28.773438 57.871094 C 28.773438 60.304688 26.796875 62.277344 24.367188 62.277344 C 21.9375 62.277344 19.964844 60.304688 19.964844 57.871094 Z M 28.160156 21.539062 L 35.226562 15.6875 C 35.226562 14.855469 35.226562 14.109375 35.226562 13.597656 C 35.226562 13.121094 35.558594 12.730469 35.96875 12.730469 C 38.683594 12.730469 46.089844 12.730469 48.804688 12.730469 C 49.210938 12.730469 49.539062 13.121094 49.539062 13.597656 C 49.539062 15.1875 49.539062 19.089844 49.539062 20.675781 C 49.539062 21.15625 49.210938 21.539062 48.804688 21.539062 C 46.089844 21.539062 38.683594 21.539062 35.96875 21.539062 C 35.558594 21.539062 35.226562 21.15625 35.226562 20.675781 C 35.226562 20.042969 35.226562 19.046875 35.226562 17.972656 L 29.945312 22.351562 C 29.980469 22.464844 29.996094 22.578125 29.996094 22.703125 C 29.996094 24.234375 29.996094 27.65625 29.996094 29.183594 C 29.996094 29.308594 29.980469 29.429688 29.945312 29.539062 L 35.226562 33.914062 C 35.226562 32.84375 35.226562 31.84375 35.226562 31.210938 C 35.226562 30.734375 35.558594 30.347656 35.96875 30.347656 C 38.683594 30.347656 46.089844 30.347656 48.804688 30.347656 C 49.210938 30.347656 49.539062 30.734375 49.539062 31.210938 C 49.539062 32.800781 49.539062 36.703125 49.539062 38.292969 C 49.539062 38.769531 49.210938 39.15625 48.804688 39.15625 C 46.089844 39.15625 38.683594 39.15625 35.96875 39.15625 C 35.558594 39.15625 35.226562 38.769531 35.226562 38.292969 C 35.226562 37.785156 35.226562 37.035156 35.226562 36.203125 L 28.160156 30.347656 C 23.71875 30.347656 13.894531 30.347656 10.15625 30.347656 C 9.5625 30.347656 9.078125 29.828125 9.078125 29.183594 C 9.078125 27.65625 9.078125 24.234375 9.078125 22.703125 C 9.078125 22.0625 9.5625 21.539062 10.15625 21.539062 C 13.894531 21.539062 23.71875 21.539062 28.160156 21.539062 Z M 28.160156 21.539062 "/>
</g>
</svg>
