<svg xmlns="http://www.w3.org/2000/svg" xmlns:xlink="http://www.w3.org/1999/xlink" width="64" height="64" viewBox="0 0 64 64" version="1.1">
<defs> <linearGradient id="linear0" gradientUnits="userSpaceOnUse" x1="0" y1="0" x2="0" y2="1" gradientTransform="matrix(55.992188,0,0,56,4.003906,4)"> <stop offset="0" style="stop-color:#ff6666;stop-opacity:1;"/> <stop offset="1" style="stop-color:#d90000;stop-opacity:1;"/> </linearGradient> </defs>
<g id="surface1">
<path style=" stroke:none;fill-rule:nonzero;fill:url(#linear0);fill-opacity:1;" d="M 32.054688 4.550781 C 31.089844 4.550781 30.308594 5.320312 30.308594 6.277344 L 30.308594 8.058594 C 22.613281 8.597656 15.945312 12.683594 11.84375 18.621094 L 10.207031 17.667969 C 9.367188 17.191406 8.347656 17.492188 7.859375 18.316406 C 7.371094 19.144531 7.621094 20.210938 8.460938 20.6875 L 10.039062 21.601562 C 8.476562 24.78125 7.578125 28.339844 7.578125 32.109375 C 7.578125 35.882812 8.476562 39.441406 10.039062 42.617188 L 8.460938 43.535156 C 7.621094 44.011719 7.371094 45.078125 7.859375 45.90625 C 8.347656 46.730469 9.367188 47.03125 10.207031 46.554688 L 11.84375 45.660156 C 15.945312 51.597656 22.613281 55.6875 30.308594 56.21875 L 30.308594 58 C 30.308594 58.960938 31.089844 59.726562 32.054688 59.726562 C 33.019531 59.726562 33.800781 58.960938 33.800781 58 L 33.800781 56.21875 C 41.496094 55.6875 48.167969 51.597656 52.261719 45.660156 L 53.898438 46.578125 C 54.738281 47.050781 55.765625 46.753906 56.25 45.925781 C 56.738281 45.101562 56.492188 44.039062 55.652344 43.558594 L 54.066406 42.640625 C 55.636719 39.46875 56.527344 35.90625 56.527344 32.132812 C 56.527344 28.363281 55.636719 24.804688 54.066406 21.625 L 55.652344 20.710938 C 56.492188 20.234375 56.738281 19.164062 56.25 18.339844 C 55.765625 17.515625 54.738281 17.214844 53.898438 17.695312 L 52.261719 18.613281 C 48.167969 12.671875 41.496094 8.585938 33.800781 8.046875 L 33.800781 6.265625 C 33.800781 5.308594 33.019531 4.542969 32.054688 4.542969 M 23.09375 15.425781 C 23.769531 15.34375 24.480469 15.671875 24.839844 16.289062 L 26.582031 19.308594 C 27.070312 20.132812 26.769531 21.144531 25.929688 21.621094 C 25.089844 22.09375 24.007812 21.851562 23.527344 21.027344 L 21.777344 17.988281 C 21.292969 17.164062 21.59375 16.101562 22.4375 15.621094 C 22.640625 15.5 22.867188 15.433594 23.089844 15.410156 M 40.5625 15.460938 C 40.734375 15.433594 40.886719 15.445312 41.058594 15.460938 C 41.285156 15.484375 41.5 15.558594 41.710938 15.675781 C 42.550781 16.152344 42.851562 17.214844 42.363281 18.046875 L 40.621094 21.019531 C 40.132812 21.851562 39.050781 22.152344 38.210938 21.671875 C 37.371094 21.195312 37.078125 20.128906 37.558594 19.296875 L 39.308594 16.332031 C 39.574219 15.867188 40.0625 15.550781 40.558594 15.46875 M 14.667969 30.335938 L 18.160156 30.335938 C 19.128906 30.335938 19.910156 31.105469 19.910156 32.066406 C 19.910156 33.023438 19.128906 33.789062 18.160156 33.789062 L 14.667969 33.789062 C 13.703125 33.789062 12.917969 33.023438 12.917969 32.066406 C 12.917969 31.105469 13.703125 30.335938 14.667969 30.335938 M 46.027344 30.335938 L 49.519531 30.335938 C 50.484375 30.335938 51.269531 31.105469 51.269531 32.066406 C 51.269531 33.023438 50.484375 33.789062 49.519531 33.789062 L 46.027344 33.789062 C 45.054688 33.789062 44.277344 33.023438 44.277344 32.066406 C 44.277344 31.105469 45.054688 30.335938 46.027344 30.335938 M 32.042969 30.390625 C 33.011719 30.390625 33.789062 31.167969 33.789062 32.117188 C 33.789062 33.066406 33.011719 33.839844 32.042969 33.839844 C 31.074219 33.839844 30.296875 33.066406 30.296875 32.117188 C 30.296875 31.167969 31.074219 30.390625 32.042969 30.390625 M 24.832031 42.460938 C 24.992188 42.433594 25.15625 42.445312 25.328125 42.460938 C 25.554688 42.484375 25.769531 42.609375 25.980469 42.726562 C 26.820312 43.203125 27.117188 44.214844 26.632812 45.039062 L 24.882812 48.058594 C 24.402344 48.886719 23.320312 49.128906 22.480469 48.652344 C 21.640625 48.179688 21.398438 47.164062 21.878906 46.339844 L 23.628906 43.320312 C 23.894531 42.855469 24.339844 42.546875 24.828125 42.460938 M 38.808594 42.511719 C 39.484375 42.433594 40.195312 42.703125 40.550781 43.320312 L 42.300781 46.339844 C 42.785156 47.164062 42.484375 48.230469 41.640625 48.710938 C 40.808594 49.183594 39.726562 48.886719 39.238281 48.058594 L 37.496094 45.023438 C 37.007812 44.195312 37.308594 43.183594 38.148438 42.710938 C 38.359375 42.589844 38.582031 42.515625 38.800781 42.496094 "/>
</g>
</svg>
