<svg xmlns="http://www.w3.org/2000/svg" xmlns:xlink="http://www.w3.org/1999/xlink" width="64" height="64" viewBox="0 0 64 64" version="1.1">
<defs> <linearGradient id="linear0" gradientUnits="userSpaceOnUse" x1="0" y1="0" x2="0" y2="1" gradientTransform="matrix(55.992188,0,0,56,4.003906,4)"> <stop offset="0" style="stop-color:#ff6666;stop-opacity:1;"/> <stop offset="1" style="stop-color:#d90000;stop-opacity:1;"/> </linearGradient> </defs>
<g id="surface1">
<path style=" stroke:none;fill-rule:nonzero;fill:url(#linear0);fill-opacity:1;" d="M 9.425781 9.433594 C 8.300781 9.433594 7.390625 10.335938 7.390625 11.457031 L 7.390625 44.246094 C 7.390625 45.367188 8.300781 46.273438 9.425781 46.273438 L 54.6875 46.273438 C 55.8125 46.273438 56.71875 45.367188 56.71875 44.246094 L 56.71875 11.457031 C 56.71875 10.335938 55.8125 9.433594 54.6875 9.433594 Z M 24.65625 18.027344 L 40.6875 27.851562 L 24.65625 37.675781 Z M 32.875 50.078125 C 31.378906 50.078125 30.136719 51.128906 29.851562 52.53125 L 11.59375 52.53125 C 7.671875 52.53125 5.082031 52.554688 3.34375 52.601562 L 3.34375 53.761719 L 29.851562 53.761719 C 30.136719 55.164062 31.378906 56.21875 32.875 56.21875 C 34.367188 56.21875 35.609375 55.164062 35.894531 53.761719 L 60.769531 53.761719 L 60.769531 52.53125 L 35.894531 52.53125 C 35.609375 51.128906 34.367188 50.078125 32.875 50.078125 "/>
</g>
</svg>
