<svg xmlns="http://www.w3.org/2000/svg" xmlns:xlink="http://www.w3.org/1999/xlink" width="64" height="64" viewBox="0 0 64 64" version="1.1">
<defs>
<linearGradient id="linear0" gradientUnits="userSpaceOnUse" x1="0" y1="0" x2="0" y2="1" gradientTransform="matrix(64,0,0,55.742188,0,4.128906)">
<stop offset="0" style="stop-color:#ff6666;stop-opacity:1;"/>
<stop offset="1" style="stop-color:#d90000;stop-opacity:1;"/>
</linearGradient>
<linearGradient id="linear1" gradientUnits="userSpaceOnUse" x1="0" y1="0" x2="0" y2="1" gradientTransform="matrix(35.097656,0,0,37.160156,18.578125,12.386719)">
<stop offset="0" style="stop-color:#ff6666;stop-opacity:1;"/>
<stop offset="1" style="stop-color:#d90000;stop-opacity:1;"/>
</linearGradient>
</defs>
<g id="surface1">
<path style=" stroke:none;fill-rule:evenodd;fill:url(#linear0);" d="M 0 4.128906 L 0 20.644531 L 8.261719 20.644531 L 8.261719 39.421875 C 8.261719 50.742188 17.386719 59.871094 28.707031 59.871094 L 64 59.871094 L 64 24.578125 C 64 13.257812 54.871094 4.128906 43.546875 4.128906 Z M 4.128906 8.261719 L 4.128906 16.515625 L 8.261719 16.515625 C 10.421875 16.515625 12.386719 18.484375 12.386719 20.644531 L 12.386719 39.421875 C 12.386719 48.523438 19.605469 55.738281 28.707031 55.738281 L 59.871094 55.738281 L 59.871094 24.578125 C 59.871094 15.476562 52.65625 8.261719 43.546875 8.261719 Z M 4.128906 8.261719 "/>
<path style=" stroke:none;fill-rule:nonzero;fill:url(#linear1);" d="M 18.578125 12.386719 L 18.578125 41.292969 C 18.578125 45.863281 22.265625 49.546875 26.839844 49.546875 L 45.421875 49.546875 C 49.996094 49.546875 53.675781 45.863281 53.675781 41.292969 L 53.675781 25.808594 C 53.675781 21.816406 50.445312 18.578125 46.453125 18.578125 C 44.425781 18.578125 42.605469 19.429688 41.292969 20.777344 C 39.980469 19.429688 38.15625 18.578125 36.128906 18.578125 C 32.140625 18.578125 28.902344 21.816406 28.902344 25.808594 L 28.902344 38.191406 L 33.03125 38.191406 L 33.03125 25.808594 C 33.03125 24.097656 34.421875 22.707031 36.128906 22.707031 C 37.839844 22.707031 39.222656 24.097656 39.222656 25.808594 L 39.222656 38.191406 L 43.355469 38.191406 L 43.355469 25.808594 C 43.355469 24.097656 44.738281 22.707031 46.453125 22.707031 C 48.160156 22.707031 49.546875 24.097656 49.546875 25.808594 L 49.546875 41.292969 C 49.546875 43.574219 47.707031 45.421875 45.421875 45.421875 L 26.839844 45.421875 C 24.550781 45.421875 22.707031 43.574219 22.707031 41.292969 L 22.707031 12.386719 Z M 18.578125 12.386719 "/>
</g>
</svg>
