<svg xmlns="http://www.w3.org/2000/svg" xmlns:xlink="http://www.w3.org/1999/xlink" width="64" height="64" viewBox="0 0 64 64" version="1.1">
<defs>
<linearGradient id="linear0" gradientUnits="userSpaceOnUse" x1="0" y1="0" x2="0" y2="1" gradientTransform="matrix(64,0,0,64,0,0)">
<stop offset="0" style="stop-color:#ff6666;stop-opacity:1;"/>
<stop offset="1" style="stop-color:#d90000;stop-opacity:1;"/>
</linearGradient>
</defs>
<g id="surface1">
<path style=" stroke:none;fill-rule:nonzero;fill:url(#linear0);" d="M 27.007812 0.00390625 C 12.089844 0.00390625 0 5.375 0 12.019531 C 0 18.664062 12.089844 24.039062 27.007812 24.039062 C 32.546875 24.039062 37.699219 23.289062 41.992188 22.011719 L 44.023438 20.527344 C 45.132812 19.675781 46.546875 19.335938 47.925781 19.59375 C 51.707031 17.523438 54.011719 14.894531 54.011719 12.019531 C 54.011719 5.375 41.925781 0 27.007812 0 Z M 0 15.300781 L 0 24.507812 C 0 31.152344 12.089844 36.527344 27.007812 36.527344 C 27.289062 36.527344 27.578125 36.535156 27.863281 36.527344 C 29.019531 35.234375 30.769531 34.644531 32.472656 34.964844 L 33.097656 35.042969 C 32.402344 34.179688 32.015625 33.109375 32 32 C 32 30.429688 32.773438 28.96875 34.03125 28.019531 L 35.746094 26.691406 C 32.996094 27.113281 30.078125 27.320312 27.007812 27.320312 C 12.089844 27.320312 0 21.945312 0 15.296875 Z M 54.011719 15.300781 C 54.011719 17.414062 52.800781 19.425781 50.65625 21.152344 C 51.496094 22.058594 51.984375 23.226562 51.984375 24.507812 L 51.984375 25.523438 C 52.589844 25.660156 53.191406 25.882812 53.777344 26.066406 C 53.933594 25.542969 54.011719 25.054688 54.011719 24.507812 L 54.011719 15.296875 Z M 46.988281 24.507812 L 36.996094 32 L 46.988281 39.492188 L 46.988281 34.339844 C 53.179688 34.363281 58.453125 38.847656 59.476562 44.957031 C 60.617188 51.84375 55.902344 58.332031 49.015625 59.472656 C 45.710938 60.027344 42.328125 59.242188 39.605469 57.296875 C 36.878906 55.347656 35.042969 52.394531 34.5 49.097656 C 34 46.097656 34.65625 43.1875 36.058594 40.742188 L 31.53125 39.882812 C 30.101562 42.976562 29.640625 46.433594 30.207031 49.796875 C 31.738281 59.058594 40.527344 65.304688 49.796875 63.769531 C 59.0625 62.226562 65.300781 53.445312 63.769531 44.175781 C 62.402344 35.972656 55.304688 29.964844 46.988281 29.972656 Z M 0 27.789062 L 0 36.996094 C 0 43.355469 11.097656 48.507812 25.132812 48.9375 C 24.839844 45.847656 25.210938 42.734375 26.226562 39.804688 C 11.667969 39.621094 0.00390625 34.3125 0.00390625 27.785156 Z M 0 40.277344 L 0 49.484375 C 0 56.128906 12.089844 61.503906 27.007812 61.503906 C 28.140625 61.503906 29.269531 61.484375 30.363281 61.425781 C 28.078125 58.800781 26.449219 55.671875 25.605469 52.292969 C 11.328125 51.972656 0.00390625 46.703125 0.00390625 40.273438 Z M 0 40.277344 "/>
</g>
</svg>
