<svg xmlns="http://www.w3.org/2000/svg" xmlns:xlink="http://www.w3.org/1999/xlink" width="64" height="64" viewBox="0 0 64 64" version="1.1">
<defs>
<linearGradient id="linear0" gradientUnits="userSpaceOnUse" x1="0" y1="0" x2="0" y2="1" gradientTransform="matrix(64,0,0,44,0,10)">
<stop offset="0" style="stop-color:#ff6666;stop-opacity:1;"/>
<stop offset="1" style="stop-color:#d90000;stop-opacity:1;"/>
</linearGradient>
</defs>
<g id="surface1">
<path style=" stroke:none;fill-rule:evenodd;fill:url(#linear0);" d="M 33.527344 25.460938 C 32.851562 25.039062 32.371094 24.367188 32.1875 23.589844 C 32.019531 22.820312 32.152344 22 32.570312 21.332031 C 33 20.652344 33.671875 20.167969 34.441406 20 C 35.21875 19.820312 36.027344 19.953125 36.710938 20.367188 C 37.160156 20.660156 37.589844 20.980469 37.988281 21.332031 C 38.898438 22.113281 39.710938 22.988281 40.421875 23.953125 C 41.441406 25.351562 42.253906 26.886719 42.820312 28.53125 C 43.539062 30.640625 43.898438 32.851562 43.878906 35.078125 C 43.898438 37.3125 43.527344 39.527344 42.789062 41.628906 C 42.210938 43.261719 41.371094 44.78125 40.3125 46.152344 C 39.578125 47.089844 38.738281 47.953125 37.8125 48.699219 C 37.386719 49.039062 36.953125 49.339844 36.488281 49.613281 C 35.800781 50 34.980469 50.101562 34.210938 49.886719 C 33.441406 49.679688 32.789062 49.179688 32.386719 48.488281 C 32 47.800781 31.898438 46.980469 32.113281 46.210938 C 32.320312 45.441406 32.820312 44.789062 33.511719 44.386719 C 33.6875 44.289062 33.871094 44.171875 34.027344 44.039062 C 34.601562 43.578125 35.121094 43.058594 35.570312 42.480469 C 36.238281 41.613281 36.773438 40.652344 37.140625 39.621094 C 37.652344 38.160156 37.898438 36.628906 37.878906 35.078125 C 37.898438 33.519531 37.652344 31.960938 37.140625 30.46875 C 36.773438 29.410156 36.253906 28.410156 35.578125 27.5 C 35.140625 26.886719 34.621094 26.339844 34.050781 25.851562 C 33.886719 25.710938 33.710938 25.578125 33.527344 25.460938 Z M 32 10 C 23.714844 10 16.660156 15.070312 13.625 22.246094 C 5.910156 23.394531 0 29.972656 0 38 C 0 46.835938 7.164062 54 16 54 L 50 54 C 57.730469 54 64 47.730469 64 40 C 64 32.816406 58.597656 26.925781 51.625 26.125 C 49.808594 16.953125 41.707031 10 32 10 Z M 24 45.828125 C 23.253906 46.089844 22.433594 46.050781 21.710938 45.710938 C 20.992188 45.371094 20.441406 44.753906 20.167969 44 C 19.910156 43.253906 19.953125 42.429688 20.292969 41.710938 C 20.632812 40.988281 21.253906 40.441406 22 40.171875 C 22.199219 40.101562 22.390625 40.019531 22.578125 39.921875 C 23.132812 39.652344 23.640625 39.320312 24.113281 38.929688 C 24.652344 38.5 25.101562 37.972656 25.453125 37.371094 C 25.8125 36.699219 26 35.953125 26 35.179688 C 26 35.171875 26 35.171875 26 35.160156 C 26 34.359375 25.8125 33.570312 25.433594 32.871094 C 25.066406 32.226562 24.601562 31.652344 24.039062 31.167969 C 23.546875 30.753906 23.03125 30.378906 22.46875 30.066406 C 22.269531 29.960938 22.066406 29.859375 21.867188 29.78125 C 21.132812 29.480469 20.539062 28.886719 20.230469 28.160156 C 19.933594 27.433594 19.921875 26.601562 20.21875 25.867188 C 20.519531 25.132812 21.113281 24.539062 21.839844 24.230469 C 22.566406 23.933594 23.398438 23.921875 24.132812 24.21875 C 24.566406 24.398438 25 24.613281 25.410156 24.839844 C 26.320312 25.351562 27.179688 25.953125 27.960938 26.632812 C 29.066406 27.578125 29.992188 28.71875 30.6875 29.988281 C 31.546875 31.578125 32 33.359375 32 35.160156 C 32.011719 36.960938 31.546875 38.738281 30.679688 40.3125 C 29.960938 41.570312 29.019531 42.679688 27.890625 43.589844 C 27.09375 44.253906 26.21875 44.8125 25.292969 45.273438 C 24.878906 45.488281 24.441406 45.671875 24 45.828125 Z M 24 45.828125 "/>
</g>
</svg>
