<svg xmlns="http://www.w3.org/2000/svg" xmlns:xlink="http://www.w3.org/1999/xlink" width="64" height="64" viewBox="0 0 64 64" version="1.1">
<defs> <linearGradient id="linear0" gradientUnits="userSpaceOnUse" x1="0" y1="0" x2="0" y2="1" gradientTransform="matrix(55.992188,0,0,56,4.003906,4)"> <stop offset="0" style="stop-color:#ff6666;stop-opacity:1;"/> <stop offset="1" style="stop-color:#d90000;stop-opacity:1;"/> </linearGradient> </defs>
<g id="surface1">
<path style=" stroke:none;fill-rule:nonzero;fill:url(#linear0);fill-opacity:1;" d="M 54.472656 19.320312 L 36.941406 45.035156 L 44.699219 45.035156 L 62.183594 19.320312 M 54.472656 19.320312 "/>
<path style=" stroke:none;fill-rule:nonzero;fill:url(#linear0);fill-opacity:1;" d="M 19.414062 19.320312 L 1.929688 45.035156 L 9.679688 45.027344 L 27.171875 19.3125 M 19.414062 19.320312 "/>
<path style=" stroke:none;fill-rule:nonzero;fill:url(#linear0);fill-opacity:1;" d="M 27.183594 45.035156 L 19.449219 45.035156 L 36.933594 19.320312 L 44.664062 19.320312 M 27.179688 45.035156 "/>
<path style=" stroke:none;fill-rule:nonzero;fill:url(#linear0);fill-opacity:1;" d="M 1.929688 19.320312 L 19.414062 45.027344 L 27.171875 45.027344 L 9.679688 19.3125 M 1.929688 19.320312 "/>
<path style=" stroke:none;fill-rule:nonzero;fill:url(#linear0);fill-opacity:1;" d="M 44.667969 45.035156 L 27.183594 19.320312 L 19.449219 19.320312 L 36.933594 45.035156 M 44.667969 45.035156 "/>
<path style=" stroke:none;fill-rule:nonzero;fill:url(#linear0);fill-opacity:1;" d="M 36.941406 19.320312 L 54.472656 45.035156 L 62.183594 45.035156 L 44.699219 19.320312 M 36.941406 19.320312 "/>
</g>
</svg>
