<svg xmlns="http://www.w3.org/2000/svg" xmlns:xlink="http://www.w3.org/1999/xlink" width="64" height="64" viewBox="0 0 64 64" version="1.1">
<defs>
<linearGradient id="linear0" gradientUnits="userSpaceOnUse" x1="0" y1="0" x2="0" y2="1" gradientTransform="matrix(64.003906,0,0,37.8125,-0.00390625,13.09375)">
<stop offset="0" style="stop-color:#ff6666;stop-opacity:1;"/>
<stop offset="1" style="stop-color:#d90000;stop-opacity:1;"/>
</linearGradient>
</defs>
<g id="surface1">
<path style=" stroke:none;fill-rule:evenodd;fill:url(#linear0);" d="M 24.8125 46.910156 C 19.171875 48.558594 14.367188 49.445312 11.453125 49.480469 C 6.691406 49.535156 0.65625 48.769531 0.0234375 43.960938 C -0.433594 40.476562 5.410156 34.894531 5.410156 34.894531 C 5.410156 34.894531 1.117188 40.277344 2.257812 42.90625 C 3.53125 45.847656 7.988281 46.539062 11.191406 46.457031 C 14.40625 46.375 18.46875 45.683594 22.898438 44.5 C 21.285156 42.199219 20.363281 39.386719 20.363281 36.363281 C 20.363281 28.328125 26.871094 21.820312 34.90625 21.820312 C 35.996094 21.820312 37.050781 21.9375 38.0625 22.1875 C 37.898438 21.613281 37.816406 20.996094 37.816406 20.363281 C 37.816406 16.347656 41.070312 13.09375 45.09375 13.09375 C 49.109375 13.09375 52.363281 16.347656 52.363281 20.363281 C 52.363281 23.921875 49.8125 26.875 46.453125 27.542969 C 47.742188 29.230469 48.664062 31.21875 49.101562 33.382812 C 56.167969 29.066406 61.160156 24.125 61.371094 19.398438 C 61.523438 16.027344 54.542969 14.277344 54.542969 14.277344 C 54.542969 13.964844 63.957031 14.429688 64 19.660156 C 64.050781 25.984375 57.816406 31.890625 49.441406 36.730469 C 49.253906 44.601562 42.824219 50.90625 34.90625 50.90625 C 31.308594 50.90625 28.015625 49.605469 25.5 47.414062 C 25.234375 47.296875 25 47.128906 24.8125 46.910156 Z M 23.289062 43.398438 C 22.734375 42.171875 22.433594 40.808594 22.433594 39.378906 C 22.433594 33.914062 26.84375 29.503906 32.308594 29.503906 C 37.058594 29.503906 41.0625 32.84375 41.992188 37.324219 C 38.632812 39.011719 35.0625 40.53125 31.511719 41.738281 C 30.84375 40.273438 29.355469 39.277344 27.636719 39.277344 C 25.308594 39.277344 23.402344 41.101562 23.289062 43.398438 Z M 27.496094 47.992188 C 28.894531 48.847656 30.546875 49.3125 32.308594 49.3125 C 37.402344 49.3125 41.632812 45.425781 42.1875 40.472656 C 38.8125 42.09375 35.289062 43.515625 31.878906 44.664062 C 31.414062 46.578125 29.691406 48.003906 27.636719 48.003906 C 27.589844 48.003906 27.539062 48 27.496094 47.992188 Z M 27.496094 47.992188 "/>
</g>
</svg>
