<svg xmlns="http://www.w3.org/2000/svg" xmlns:xlink="http://www.w3.org/1999/xlink" width="64" height="64" viewBox="0 0 64 64" version="1.1">
<defs> <linearGradient id="linear0" gradientUnits="userSpaceOnUse" x1="0" y1="0" x2="0" y2="1" gradientTransform="matrix(55.992188,0,0,56,4.003906,4)"> <stop offset="0" style="stop-color:#ff6666;stop-opacity:1;"/> <stop offset="1" style="stop-color:#d90000;stop-opacity:1;"/> </linearGradient> </defs>
<g id="surface1">
<path style="fill:none;stroke-width:10.677;stroke-linecap:butt;stroke-linejoin:miter;stroke:url(#linear0);stroke-opacity:1;stroke-miterlimit:4;" d="M 368.375338 161.680265 C 404.852465 222.398391 397.909559 293.541989 352.877396 320.587781 C 307.802243 347.655157 241.747905 320.415102 205.270779 259.696977 C 168.772157 199.000436 175.758053 127.835252 220.790216 100.789461 C 265.822379 73.722085 331.898212 100.96214 368.375338 161.680265 Z M 368.375338 161.680265 " transform="matrix(0.181728,0,0,0.180972,-16.822928,-8.896321)"/>
<path style=" stroke:none;fill-rule:nonzero;fill:url(#linear0);fill-opacity:1;" d="M 31.414062 39.105469 C 31.414062 41.5 29.464844 43.4375 27.0625 43.4375 C 24.660156 43.4375 22.714844 41.5 22.714844 39.105469 C 22.714844 36.714844 24.660156 34.773438 27.0625 34.773438 C 29.464844 34.773438 31.414062 36.714844 31.414062 39.105469 Z M 31.414062 39.105469 "/>
</g>
</svg>
