<svg xmlns="http://www.w3.org/2000/svg" xmlns:xlink="http://www.w3.org/1999/xlink" width="64" height="64" viewBox="0 0 64 64" version="1.1">
<defs>
<linearGradient id="linear0" gradientUnits="userSpaceOnUse" x1="0" y1="0" x2="0" y2="1" gradientTransform="matrix(64,0,0,44.617188,0,9.691406)">
<stop offset="0" style="stop-color:#ff6666;stop-opacity:1;"/>
<stop offset="1" style="stop-color:#d90000;stop-opacity:1;"/>
</linearGradient>
</defs>
<g id="surface1">
<path style=" stroke:none;fill-rule:evenodd;fill:url(#linear0);" d="M 32 47.625 C 31.835938 47.914062 31.652344 48.191406 31.460938 48.457031 C 31.5 48.480469 31.535156 48.507812 31.566406 48.542969 C 31.730469 48.710938 31.824219 48.9375 31.820312 49.167969 C 31.820312 49.253906 31.820312 49.332031 31.820312 49.410156 C 31.816406 49.777344 31.832031 50.132812 31.867188 50.488281 C 31.902344 50.871094 31.976562 51.246094 32.097656 51.621094 C 32.144531 51.769531 32.210938 51.914062 32.292969 52.050781 C 32.347656 52.15625 32.425781 52.257812 32.507812 52.339844 C 32.570312 52.398438 32.648438 52.449219 32.730469 52.484375 C 32.839844 52.523438 32.949219 52.546875 33.058594 52.539062 C 33.292969 52.539062 33.519531 52.628906 33.6875 52.792969 C 33.851562 52.960938 33.953125 53.179688 33.953125 53.414062 C 33.957031 53.648438 33.863281 53.875 33.699219 54.042969 C 33.535156 54.210938 33.3125 54.308594 33.074219 54.308594 C 32.734375 54.3125 32.394531 54.246094 32.078125 54.128906 C 31.789062 54.007812 31.515625 53.832031 31.285156 53.617188 C 31.074219 53.410156 30.894531 53.175781 30.753906 52.921875 C 30.617188 52.683594 30.503906 52.429688 30.414062 52.164062 C 30.261719 51.671875 30.15625 51.164062 30.113281 50.652344 C 30.074219 50.300781 30.054688 49.945312 30.054688 49.59375 C 27.9375 50.8125 24.398438 50.421875 18.421875 46.875 C 10.136719 41.964844 0.769531 32.03125 0 28.65625 C 2.375 27.921875 10.078125 29.542969 17.246094 32.480469 C 14.386719 25.121094 12.804688 17.214844 13.523438 14.777344 C 15.945312 15.355469 21.820312 20.714844 26.601562 26.9375 C 27.707031 19.097656 30.1875 11.4375 32 9.691406 C 33.742188 11.371094 36.105469 18.519531 37.273438 26.035156 C 42.070312 19.742188 48.03125 14.292969 50.476562 13.707031 C 51.234375 16.289062 49.425781 24.976562 46.269531 32.675781 C 53.570312 29.621094 61.566406 27.898438 64 28.65625 C 63.230469 32.03125 53.863281 41.964844 45.578125 46.875 C 37.296875 51.785156 33.699219 50.648438 32 47.625 Z M 32 47.625 "/>
</g>
</svg>
