<svg xmlns="http://www.w3.org/2000/svg" xmlns:xlink="http://www.w3.org/1999/xlink" width="64px" height="64px" viewBox="0 0 64 64" version="1.1">
<defs>
<linearGradient id="linear0" gradientUnits="userSpaceOnUse" x1="0" y1="128" x2="128" y2="0" gradientTransform="matrix(0.432432,0,0,0.432432,4.324324,4.324324)">
<stop offset="0" style="stop-color:#ff6666;stop-opacity:1;"/>
<stop offset="1" style="stop-color:#d90000;stop-opacity:1;"/>
</linearGradient>
</defs>
<g id="surface1">
<path style=" stroke:none;fill-rule:nonzero;fill:url(#linear0);" d="M 32.007812 7.945312 C 25.644531 7.945312 20.523438 10.011719 20.523438 12.589844 L 20.523438 15.265625 C 20.523438 16.019531 20.96875 16.71875 21.742188 17.347656 C 21.34375 17.589844 20.960938 17.847656 20.597656 18.121094 C 17.820312 20.1875 16.089844 23.070312 16.089844 26.261719 L 16.089844 44.570312 C 16.089844 47.765625 17.820312 50.652344 20.597656 52.714844 C 23.375 54.785156 27.210938 56.054688 31.445312 56.054688 L 32.566406 56.054688 C 36.800781 56.054688 40.636719 54.785156 43.414062 52.714844 C 46.1875 50.652344 47.910156 47.765625 47.910156 44.570312 L 47.910156 26.261719 C 47.910156 23.070312 46.1875 20.1875 43.414062 18.121094 C 43.050781 17.851562 42.664062 17.589844 42.265625 17.347656 C 43.039062 16.71875 43.488281 16.015625 43.488281 15.265625 L 43.488281 12.589844 C 43.488281 10.011719 38.367188 7.945312 32.007812 7.945312 Z M 22.09375 17.609375 C 24.082031 18.988281 27.761719 19.925781 32.007812 19.925781 C 36.238281 19.925781 39.914062 19 41.90625 17.621094 C 42.339844 17.882812 42.773438 18.152344 43.164062 18.441406 C 45.863281 20.453125 47.511719 23.214844 47.511719 26.261719 L 47.511719 44.570312 C 47.511719 47.621094 45.863281 50.386719 43.164062 52.390625 C 40.464844 54.402344 36.722656 55.65625 32.566406 55.65625 L 31.445312 55.65625 C 27.289062 55.65625 23.535156 54.402344 20.835938 52.390625 C 18.136719 50.386719 16.488281 47.621094 16.488281 44.570312 L 16.488281 26.261719 C 16.488281 23.214844 18.136719 20.453125 20.835938 18.441406 C 21.234375 18.148438 21.652344 17.871094 22.09375 17.609375 Z M 30.910156 25.816406 C 19.1875 25.78125 18.132812 31.335938 18.132812 31.335938 L 18.40625 47.113281 C 18.40625 47.113281 21.089844 54.015625 32.082031 53.875 C 43.070312 53.734375 46.03125 46.550781 46.03125 46.550781 L 45.878906 30.773438 C 45.878906 30.773438 44.902344 26.261719 32.082031 25.839844 C 31.679688 25.828125 31.289062 25.816406 30.910156 25.816406 Z M 44.609375 31.046875 L 44.609375 45.566406 C 44.609375 45.566406 41.804688 49.226562 32.082031 49.367188 C 22.359375 49.507812 19.539062 45.707031 19.539062 45.707031 L 19.8125 31.335938 C 20.09375 31.613281 22.78125 34.007812 32.082031 34.148438 C 41.382812 34.289062 44.609375 31.046875 44.609375 31.046875 Z M 20.722656 36.4375 L 20.722656 43.003906 L 22.378906 43.003906 L 22.378906 37.996094 L 23.664062 43.003906 L 25.15625 43.003906 L 26.4375 37.996094 L 26.4375 43.003906 L 28.09375 43.003906 L 28.09375 36.4375 L 25.441406 36.4375 L 24.410156 40.4375 L 23.386719 36.4375 Z M 35.457031 36.4375 L 35.457031 37.6875 L 37.273438 37.6875 L 37.273438 36.4375 Z M 31.757812 38.144531 C 30.925781 38.144531 30.265625 38.386719 29.777344 38.855469 C 29.289062 39.324219 29.039062 39.914062 29.039062 40.636719 C 29.039062 41.414062 29.335938 42.050781 29.914062 42.53125 C 30.386719 42.917969 31.007812 43.113281 31.769531 43.113281 C 32.625 43.113281 33.289062 42.882812 33.773438 42.417969 C 34.261719 41.949219 34.511719 41.339844 34.511719 40.613281 C 34.511719 39.960938 34.304688 39.414062 33.914062 38.96875 C 33.425781 38.414062 32.710938 38.144531 31.757812 38.144531 Z M 40.949219 38.144531 C 40.113281 38.144531 39.445312 38.386719 38.957031 38.855469 C 38.464844 39.324219 38.234375 39.914062 38.234375 40.636719 C 38.234375 41.414062 38.511719 42.050781 39.089844 42.53125 C 39.5625 42.917969 40.1875 43.113281 40.949219 43.113281 C 41.804688 43.113281 42.46875 42.882812 42.953125 42.417969 C 43.4375 41.949219 43.6875 41.339844 43.6875 40.613281 C 43.6875 39.960938 43.492188 39.414062 43.101562 38.96875 C 42.613281 38.414062 41.898438 38.144531 40.949219 38.144531 Z M 35.457031 38.246094 L 35.457031 43.003906 L 37.273438 43.003906 L 37.273438 38.246094 Z M 31.78125 39.390625 C 32.035156 39.390625 32.246094 39.5 32.414062 39.703125 C 32.585938 39.902344 32.679688 40.199219 32.679688 40.613281 C 32.679688 41.054688 32.585938 41.382812 32.414062 41.585938 C 32.25 41.785156 32.035156 41.882812 31.769531 41.882812 C 31.511719 41.882812 31.292969 41.773438 31.121094 41.570312 C 30.953125 41.367188 30.871094 41.0625 30.871094 40.636719 C 30.871094 40.21875 30.960938 39.90625 31.136719 39.703125 C 31.308594 39.496094 31.515625 39.390625 31.78125 39.390625 Z M 40.972656 39.390625 C 41.222656 39.390625 41.425781 39.5 41.59375 39.703125 C 41.765625 39.902344 41.859375 40.199219 41.859375 40.613281 C 41.859375 41.054688 41.765625 41.382812 41.59375 41.585938 C 41.429688 41.785156 41.222656 41.882812 40.960938 41.882812 C 40.699219 41.882812 40.488281 41.773438 40.3125 41.570312 C 40.140625 41.367188 40.050781 41.0625 40.050781 40.636719 C 40.050781 40.21875 40.136719 39.90625 40.3125 39.703125 C 40.488281 39.496094 40.707031 39.390625 40.972656 39.390625 Z M 40.972656 39.390625 "/>
</g>
</svg>
