<svg xmlns="http://www.w3.org/2000/svg" xmlns:xlink="http://www.w3.org/1999/xlink" width="64" height="64" viewBox="0 0 64 64" version="1.1">
<defs> <linearGradient id="linear0" gradientUnits="userSpaceOnUse" x1="0" y1="0" x2="0" y2="1" gradientTransform="matrix(55.992188,0,0,56,4.003906,4)"> <stop offset="0" style="stop-color:#ff6666;stop-opacity:1;"/> <stop offset="1" style="stop-color:#d90000;stop-opacity:1;"/> </linearGradient> </defs>
<g id="surface1">
<path style=" stroke:none;fill-rule:nonzero;fill:url(#linear0);fill-opacity:1;" d="M 32.125 44.019531 C 31.988281 44.472656 32.015625 44.953125 31.945312 45.421875 C 31.828125 46.535156 31.742188 47.65625 31.457031 48.746094 C 31.351562 49.207031 31.1875 49.65625 31.058594 50.109375 C 31.371094 50.714844 31.476562 51.382812 31.542969 52.046875 C 31.6875 52.824219 31.722656 53.613281 31.785156 54.394531 C 31.835938 54.785156 31.628906 55.28125 31.972656 55.578125 C 32.371094 55.707031 32.765625 55.847656 33.152344 56 C 33.101562 55.242188 33.023438 54.488281 33.046875 53.730469 C 33.015625 53.015625 33.132812 52.304688 33.1875 51.589844 C 33.226562 51.246094 33.226562 50.890625 33.363281 50.566406 C 33.46875 50.257812 33.683594 49.996094 33.835938 49.707031 C 33.605469 49.550781 33.390625 49.375 33.1875 49.183594 C 33.015625 48.789062 32.796875 48.40625 32.652344 48 C 32.3125 46.703125 32.109375 45.359375 32.125 44.019531 Z M 32.125 44.019531 "/>
<path style=" stroke:none;fill-rule:nonzero;fill:url(#linear0);fill-opacity:1;" d="M 32 8 C 31.863281 9.691406 30.023438 10.660156 28.992188 11.859375 C 27.296875 13.558594 25.621094 15.335938 24.558594 17.480469 C 23.816406 18.722656 23.144531 19.996094 22.714844 21.378906 C 21.363281 24.566406 20.828125 28.054688 20.800781 31.488281 C 20.835938 38.503906 24.730469 45.097656 30.277344 49.472656 C 31.128906 50.726562 31.257812 49.503906 31.457031 48.746094 C 31.738281 47.515625 31.875 46.261719 32 45.007812 Z M 32 8 "/>
<path style=" stroke:none;fill-rule:nonzero;fill:url(#linear0);fill-opacity:1;" d="M 31.917969 8.894531 C 31.988281 11.03125 31.925781 13.171875 31.917969 15.316406 C 31.976562 22.445312 31.96875 29.570312 31.917969 36.699219 C 31.910156 39.457031 32.058594 42.214844 31.917969 44.972656 C 32.035156 46.59375 32.277344 48.34375 33.183594 49.746094 C 33.996094 50.789062 34.929688 49.058594 35.667969 48.632812 C 39.117188 45.570312 41.492188 41.460938 42.523438 37.058594 C 43.566406 32.648438 43.222656 27.9375 41.597656 23.691406 C 40.101562 19.277344 37.402344 15.289062 33.929688 12.082031 C 33.011719 11.183594 32.53125 9.988281 31.917969 8.894531 Z M 31.917969 8.894531 "/>
</g>
</svg>
