<svg xmlns="http://www.w3.org/2000/svg" xmlns:xlink="http://www.w3.org/1999/xlink" width="64" height="64" viewBox="0 0 64 64" version="1.1">
<defs>
<linearGradient id="linear0" gradientUnits="userSpaceOnUse" x1="0" y1="0" x2="0" y2="1" gradientTransform="matrix(56,0,0,56,4,4)">
<stop offset="0" style="stop-color:#ff6666;stop-opacity:1;"/>
<stop offset="1" style="stop-color:#d90000;stop-opacity:1;"/>
</linearGradient>
</defs>
<g id="surface1">
<path style=" stroke:none;fill-rule:nonzero;fill:url(#linear0);" d="M 11.5 4 C 7.363281 4 4 7.363281 4 11.5 L 4 52.5 C 4 56.636719 7.363281 60 11.5 60 L 52.5 60 C 56.636719 60 60 56.636719 60 52.5 L 60 11.5 C 60 7.363281 56.636719 4 52.5 4 Z M 56 8 L 56 56 L 12.75 55.800781 C 12.75 55.800781 15.390625 51.894531 15.390625 51.882812 C 15.390625 51.632812 23.738281 41.59375 23.914062 41.632812 C 24.015625 41.65625 27.753906 43.242188 32.210938 45.15625 C 39.824219 48.425781 40.324219 48.621094 40.53125 48.34375 C 40.84375 47.925781 41.917969 45.679688 42.484375 44.257812 L 42.96875 43.054688 L 42.15625 42.609375 C 41.007812 41.980469 39.320312 40.585938 38.265625 39.382812 C 37.300781 38.285156 35.5625 35.636719 35.5625 35.265625 C 35.5625 35.144531 36.113281 35.703125 36.789062 36.507812 C 38.683594 38.765625 43.054688 42.300781 43.328125 41.796875 C 43.652344 41.199219 43.863281 39.441406 43.851562 37.398438 C 43.839844 34.90625 43.515625 32.96875 42.65625 30.289062 L 42.171875 28.78125 L 39.796875 28.039062 C 38.488281 27.628906 37.175781 27.21875 36.882812 27.125 C 35.855469 26.800781 36.503906 26.8125 38.007812 27.148438 C 39.804688 27.550781 41.628906 27.890625 42.757812 28.03125 C 43.753906 28.15625 43.972656 27.96875 44.078125 26.859375 C 44.214844 25.445312 43.300781 21.542969 42.382812 19.601562 C 42.015625 18.828125 41.851562 18.65625 41.117188 18.320312 C 38.671875 17.199219 31.015625 16.152344 27.765625 16.492188 C 26.359375 16.640625 24.910156 16.980469 24.460938 17.273438 C 24.335938 17.355469 25.242188 17.589844 26.804688 17.875 C 28.207031 18.132812 29.222656 18.367188 29.070312 18.398438 C 28.917969 18.429688 26.71875 18.183594 24.179688 17.859375 C 19.726562 17.289062 19.550781 17.28125 19.242188 17.5625 C 18.59375 18.148438 17.667969 19.746094 17.476562 20.601562 C 17.292969 21.429688 17.304688 21.53125 17.71875 22.375 C 18.421875 23.8125 19.726562 24.855469 22.703125 26.359375 C 24.109375 27.070312 25.230469 27.691406 25.1875 27.734375 C 25.144531 27.777344 23.941406 27.324219 22.515625 26.734375 L 19.921875 25.664062 L 16.117188 26.726562 C 14.023438 27.3125 8.285156 27.867188 8.199219 27.867188 L 8 8 Z M 56 8 "/>
</g>
</svg>
