<svg xmlns="http://www.w3.org/2000/svg" xmlns:xlink="http://www.w3.org/1999/xlink" width="64" height="64" viewBox="0 0 64 64" version="1.1">
<defs>
<linearGradient id="linear0" gradientUnits="userSpaceOnUse" x1="0" y1="0" x2="0" y2="1" gradientTransform="matrix(40.660156,0,0,52,0,6)">
<stop offset="0" style="stop-color:#ff6666;stop-opacity:1;"/>
<stop offset="1" style="stop-color:#d90000;stop-opacity:1;"/>
</linearGradient>
<linearGradient id="linear1" gradientUnits="userSpaceOnUse" x1="0" y1="0" x2="0" y2="1" gradientTransform="matrix(40.660156,0,0,52,23.339844,6)">
<stop offset="0" style="stop-color:#ff6666;stop-opacity:1;"/>
<stop offset="1" style="stop-color:#d90000;stop-opacity:1;"/>
</linearGradient>
</defs>
<g id="surface1">
<path style=" stroke:none;fill-rule:evenodd;fill:url(#linear0);" d="M 7.53125 58 C 4.332031 49.738281 0.09375 42.457031 0 28.964844 C -0.0976562 15.027344 11.105469 6 19.960938 6 C 30.679688 6 40.113281 15.660156 40.609375 23.664062 C 41.058594 30.886719 38.648438 41.390625 26.222656 41.3125 C 20.285156 41.277344 14.121094 35.765625 14.085938 27.566406 C 14.050781 18.722656 24.433594 17.859375 27.054688 20.109375 C 28.070312 20.984375 28.039062 22.714844 27.140625 22.402344 C 21.550781 20.460938 18.09375 24.289062 18.351562 28.101562 C 18.699219 33.269531 21.574219 36.34375 26.722656 36.605469 C 34.152344 36.984375 36.234375 29.269531 36.042969 26.140625 C 35.8125 22.335938 32.703125 14.507812 23.035156 13.078125 C 18.46875 12.402344 14.683594 13.863281 11.917969 16.722656 C 9.15625 19.585938 7.601562 22.542969 7.375 27.394531 C 7.140625 32.414062 8.164062 35.359375 10.976562 41.945312 C 11.984375 44.296875 14.789062 49.039062 16.960938 53.792969 Z M 7.53125 58 "/>
<path style=" stroke:none;fill-rule:evenodd;fill:url(#linear1);" d="M 56.46875 6 C 59.667969 14.261719 63.90625 21.542969 64 35.035156 C 64.097656 48.972656 52.894531 58 44.039062 58 C 33.320312 58 23.886719 48.339844 23.390625 40.335938 C 22.941406 33.113281 25.351562 22.609375 37.777344 22.6875 C 43.714844 22.722656 49.878906 28.234375 49.914062 36.433594 C 49.949219 45.277344 39.566406 46.140625 36.945312 43.890625 C 35.929688 43.015625 35.960938 41.285156 36.859375 41.597656 C 42.449219 43.539062 45.90625 39.710938 45.648438 35.898438 C 45.300781 30.730469 42.425781 27.65625 37.277344 27.394531 C 29.847656 27.019531 27.765625 34.730469 27.957031 37.859375 C 28.1875 41.664062 31.296875 49.492188 40.964844 50.921875 C 45.53125 51.597656 49.316406 50.136719 52.082031 47.277344 C 54.84375 44.417969 56.398438 41.457031 56.625 36.605469 C 56.859375 31.585938 55.835938 28.640625 53.023438 22.058594 C 52.015625 19.703125 49.210938 14.960938 47.039062 10.207031 Z M 56.46875 6 "/>
</g>
</svg>
