<svg xmlns="http://www.w3.org/2000/svg" xmlns:xlink="http://www.w3.org/1999/xlink" width="64" height="64" viewBox="0 0 64 64" version="1.1">
<defs>
<linearGradient id="linear0" gradientUnits="userSpaceOnUse" x1="0" y1="0" x2="0" y2="1" gradientTransform="matrix(64,0,0,64,0,0)">
<stop offset="0" style="stop-color:#ff6666;stop-opacity:1;"/>
<stop offset="1" style="stop-color:#d90000;stop-opacity:1;"/>
</linearGradient>
</defs>
<g id="surface1">
<path style=" stroke:none;fill-rule:evenodd;fill:url(#linear0);" d="M 40.910156 39.503906 L 42.609375 37.808594 L 46 41.199219 L 44.304688 42.894531 C 41.039062 46.160156 36.609375 48 32 48 C 27.390625 48 22.960938 46.160156 19.695312 42.894531 L 18 41.199219 L 21.390625 37.808594 L 23.089844 39.503906 C 25.457031 41.871094 28.65625 43.199219 32 43.199219 C 35.34375 43.199219 38.542969 41.871094 40.910156 39.503906 Z M 17.601562 19.199219 L 22.398438 19.199219 L 22.398438 30.398438 L 17.601562 30.398438 Z M 32 4.800781 C 47.042969 4.800781 59.199219 16.957031 59.199219 32 C 59.199219 47.042969 47.042969 59.199219 32 59.199219 C 16.957031 59.199219 4.800781 47.042969 4.800781 32 C 4.800781 16.957031 16.957031 4.800781 32 4.800781 Z M 32 0 C 14.351562 0 0 14.351562 0 32 C 0 49.648438 14.351562 64 32 64 C 49.648438 64 64 49.648438 64 32 C 64 14.351562 49.648438 0 32 0 Z M 41.601562 19.199219 L 46.398438 19.199219 L 46.398438 30.398438 L 41.601562 30.398438 Z M 41.601562 19.199219 "/>
</g>
</svg>
