<svg xmlns="http://www.w3.org/2000/svg" xmlns:xlink="http://www.w3.org/1999/xlink" width="64" height="64" viewBox="0 0 64 64" version="1.1">
<defs>
<linearGradient id="linear0" gradientUnits="userSpaceOnUse" x1="0" y1="0" x2="0" y2="1" gradientTransform="matrix(54.167969,0,0,56,4.917969,4)">
<stop offset="0" style="stop-color:#ff6666;stop-opacity:1;"/>
<stop offset="1" style="stop-color:#d90000;stop-opacity:1;"/>
</linearGradient>
</defs>
<g id="surface1">
<path style=" stroke:none;fill-rule:evenodd;fill:url(#linear0);" d="M 38.753906 11.910156 L 59.085938 11.910156 L 59.085938 53.824219 L 38.753906 53.824219 Z M 38.753906 15.824219 L 54.585938 15.824219 L 54.585938 18.824219 L 38.753906 32.824219 Z M 54.585938 22.824219 L 43.585938 32.324219 L 54.585938 41.324219 Z M 38.753906 36.410156 L 41.253906 34.410156 L 54.585938 45.824219 L 54.585938 49.824219 L 38.753906 49.824219 Z M 34.183594 4 C 24.433594 5.734375 14.671875 8.039062 4.921875 9.742188 C 4.921875 24.578125 4.910156 39.425781 4.921875 54.269531 C 14.621094 55.964844 24.328125 58.230469 34.011719 60 L 36.914062 60 L 36.914062 4 Z M 31.382812 32.738281 C 31.382812 36.285156 30.503906 39.007812 28.746094 40.914062 C 26.992188 42.820312 24.46875 43.773438 21.1875 43.773438 C 17.90625 43.773438 15.390625 42.820312 13.632812 40.914062 C 11.871094 39.007812 10.992188 36.273438 10.992188 32.710938 C 10.992188 29.148438 11.875 26.425781 13.636719 24.542969 C 15.402344 22.664062 17.929688 21.722656 21.21875 21.722656 C 24.511719 21.722656 27.027344 22.671875 28.769531 24.566406 C 30.511719 26.460938 31.382812 29.183594 31.382812 32.738281 Z M 15.757812 32.738281 C 15.757812 35.132812 16.210938 36.933594 17.117188 38.144531 C 18.023438 39.355469 19.382812 39.964844 21.1875 39.964844 C 24.8125 39.964844 26.625 37.554688 26.625 32.738281 C 26.625 27.914062 24.824219 25.503906 21.21875 25.503906 C 19.410156 25.503906 18.050781 26.113281 17.132812 27.328125 C 16.214844 28.542969 15.757812 30.347656 15.757812 32.738281 Z M 15.757812 32.738281 "/>
</g>
</svg>
