<svg xmlns="http://www.w3.org/2000/svg" xmlns:xlink="http://www.w3.org/1999/xlink" width="64" height="64" viewBox="0 0 64 64" version="1.1">
<defs>
<linearGradient id="linear0" gradientUnits="userSpaceOnUse" x1="0" y1="0" x2="0" y2="1" gradientTransform="matrix(35.554688,0,0,62.222656,2,0.578125)">
<stop offset="0" style="stop-color:#ff6666;stop-opacity:1;"/>
<stop offset="1" style="stop-color:#d90000;stop-opacity:1;"/>
</linearGradient>
<linearGradient id="linear1" gradientUnits="userSpaceOnUse" x1="0" y1="0" x2="0" y2="1" gradientTransform="matrix(22.222656,0,0,46.664062,39.777344,9.46875)">
<stop offset="0" style="stop-color:#ff6666;stop-opacity:1;"/>
<stop offset="1" style="stop-color:#d90000;stop-opacity:1;"/>
</linearGradient>
</defs>
<g id="surface1">
<path style=" stroke:none;fill-rule:nonzero;fill:url(#linear0);" d="M 34.519531 0.578125 C 23.679688 2.507812 12.839844 5.070312 2.003906 6.964844 C 2.003906 23.449219 1.996094 39.9375 2.003906 56.429688 C 12.78125 58.316406 23.566406 60.835938 34.328125 62.800781 L 37.554688 62.800781 L 37.554688 0.578125 Z M 18.210938 20.171875 C 20.351562 20.125 22.402344 20.433594 24.070312 21.941406 C 27.261719 25.816406 26.417969 32.941406 21.683594 35.257812 C 20.003906 36.117188 18.078125 36 16.246094 35.941406 C 16.238281 38.835938 16.230469 41.734375 16.238281 44.628906 C 14.773438 44.503906 13.300781 44.378906 11.832031 44.257812 C 11.765625 36.347656 11.75 28.796875 11.839844 20.882812 C 13.925781 20.625 16.074219 20.214844 18.214844 20.171875 Z M 17.964844 24.464844 C 17.382812 24.449219 16.785156 24.496094 16.238281 24.527344 C 16.21875 27.015625 16.203125 29.496094 16.359375 31.976562 C 17.832031 31.800781 19.742188 31.945312 20.585938 30.421875 C 21.292969 28.925781 21.335938 27.015625 20.492188 25.5625 C 19.875 24.707031 18.9375 24.488281 17.964844 24.464844 Z M 17.964844 24.464844 "/>
<path style=" stroke:none;fill-rule:nonzero;fill:url(#linear1);" d="M 39.777344 9.46875 L 39.777344 16.851562 C 40.820312 16.628906 41.953125 16.210938 43.113281 16.140625 L 43.113281 26.132812 L 53.046875 26.132812 C 52.691406 29.167969 51.339844 32.28125 48.667969 33.867188 C 46.042969 35.628906 42.710938 35.652344 39.777344 34.742188 C 39.785156 36.195312 39.773438 39.128906 39.777344 40.578125 L 57.554688 40.578125 L 57.554688 42.800781 L 39.777344 42.800781 L 39.777344 47.246094 L 57.554688 47.246094 L 57.554688 49.46875 L 39.777344 49.46875 L 39.777344 56.132812 L 62 56.132812 L 62 9.46875 Z M 45.332031 14.792969 C 50.058594 15.28125 53.964844 19.199219 54.480469 23.910156 L 45.332031 23.910156 Z M 45.332031 14.792969 "/>
</g>
</svg>
