<svg xmlns="http://www.w3.org/2000/svg" xmlns:xlink="http://www.w3.org/1999/xlink" width="64" height="64" viewBox="0 0 64 64" version="1.1">
<defs>
<linearGradient id="linear0" gradientUnits="userSpaceOnUse" x1="0" y1="0" x2="0" y2="1" gradientTransform="matrix(60.898437,0,0,64,1.550781,0)">
<stop offset="0" style="stop-color:#ff6666;stop-opacity:1;"/>
<stop offset="1" style="stop-color:#d90000;stop-opacity:1;"/>
</linearGradient>
</defs>
<g id="surface1">
<path style=" stroke:none;fill-rule:evenodd;fill:url(#linear0);" d="M 19.65625 62.523438 C 20.503906 61.683594 20.980469 60.535156 20.96875 59.339844 L 20.894531 56.515625 L 2.523438 56.664062 L 2.597656 59.488281 C 2.609375 60.695312 3.101562 61.851562 3.964844 62.699219 C 4.828125 63.542969 5.996094 64.011719 7.203125 64 L 16.410156 63.902344 C 17.632812 63.886719 18.796875 63.390625 19.65625 62.523438 Z M 21.167969 53.691406 L 21.210938 49.433594 L 2.101562 49.632812 L 1.972656 53.890625 Z M 16.730469 15.816406 L 15.257812 15.832031 L 11.382812 19.171875 L 7.65625 15.867188 L 5.832031 15.886719 L 9.925781 8.285156 L 12.527344 8.261719 Z M 40.273438 62.523438 C 41.125 61.683594 41.597656 60.535156 41.589844 59.339844 L 41.511719 56.515625 L 23.144531 56.664062 L 23.214844 59.488281 C 23.226562 60.695312 23.71875 61.851562 24.585938 62.699219 C 25.449219 63.542969 26.613281 64.011719 27.824219 64 L 37.03125 63.902344 C 38.253906 63.886719 39.414062 63.390625 40.273438 62.523438 Z M 41.789062 53.691406 L 41.828125 49.433594 L 22.71875 49.632812 L 22.59375 53.890625 Z M 37.351562 15.816406 L 35.875 15.832031 L 32 19.171875 L 28.277344 15.867188 L 26.449219 15.886719 L 30.539062 8.285156 L 33.148438 8.261719 Z M 21.050781 46.523438 L 20.867188 16.605469 C 21.027344 16.078125 20.960938 15.511719 20.675781 15.039062 L 12.839844 1.003906 C 12.5 0.378906 11.847656 -0.00390625 11.136719 0 C 10.429688 0.0078125 9.78125 0.40625 9.453125 1.039062 L 1.914062 15.234375 C 1.492188 15.820312 1.433594 16.59375 1.761719 17.234375 L 1.941406 46.722656 L 9.324219 46.648438 L 9.367188 46.605469 L 14.363281 46.59375 Z M 41.667969 46.523438 L 41.484375 16.605469 C 41.648438 16.078125 41.574219 15.511719 41.296875 15.039062 L 33.460938 1.003906 C 33.121094 0.378906 32.464844 -0.00390625 31.757812 0 C 31.042969 0.0078125 30.398438 0.40625 30.070312 1.039062 L 22.53125 15.234375 C 22.113281 15.820312 22.050781 16.59375 22.378906 17.234375 L 22.558594 46.722656 L 29.945312 46.648438 L 29.984375 46.605469 L 34.980469 46.59375 Z M 60.890625 62.523438 C 61.742188 61.683594 62.214844 60.535156 62.203125 59.339844 L 62.132812 56.515625 L 43.761719 56.664062 L 43.832031 59.488281 C 43.84375 60.695312 44.339844 61.851562 45.203125 62.699219 C 46.066406 63.542969 47.230469 64.011719 48.445312 64 L 57.648438 63.902344 C 58.867188 63.886719 60.035156 63.390625 60.890625 62.523438 Z M 62.402344 53.691406 L 62.449219 49.433594 L 43.339844 49.632812 L 43.210938 53.890625 Z M 57.972656 15.816406 L 56.496094 15.832031 L 52.621094 19.171875 L 48.894531 15.867188 L 47.066406 15.886719 L 51.160156 8.285156 L 53.765625 8.261719 Z M 62.289062 46.523438 L 62.105469 16.605469 C 62.265625 16.078125 62.195312 15.511719 61.910156 15.039062 L 54.078125 1.003906 C 53.738281 0.378906 53.085938 -0.00390625 52.371094 0 C 51.664062 0.0078125 51.015625 0.40625 50.691406 1.039062 L 43.152344 15.234375 C 42.730469 15.820312 42.671875 16.59375 43 17.234375 L 43.179688 46.722656 L 50.558594 46.648438 L 50.605469 46.605469 L 55.601562 46.59375 Z M 62.289062 46.523438 "/>
</g>
</svg>
