<svg xmlns="http://www.w3.org/2000/svg" xmlns:xlink="http://www.w3.org/1999/xlink" width="64" height="64" viewBox="0 0 64 64" version="1.1">
<defs>
<linearGradient id="linear0" gradientUnits="userSpaceOnUse" x1="0" y1="0" x2="0" y2="1" gradientTransform="matrix(64,0,0,52.363281,0,5.636719)">
<stop offset="0" style="stop-color:#ff6666;stop-opacity:1;"/>
<stop offset="1" style="stop-color:#d90000;stop-opacity:1;"/>
</linearGradient>
</defs>
<g id="surface1">
<path style=" stroke:none;fill-rule:nonzero;fill:url(#linear0);" d="M 49.457031 5.636719 C 56.007812 5.636719 64 12.371094 64 20.726562 C 64 24.320312 62.742188 28.949219 60.648438 31.542969 C 60.1875 32.726562 60.65625 33.703125 60.671875 33.964844 C 60.714844 34.855469 58.777344 35.234375 53.566406 33.554688 C 44.140625 29.847656 37.988281 24.535156 34.90625 17.273438 L 29.09375 17.320312 L 29.09375 11.457031 L 34.90625 11.457031 C 34.90625 7.1875 42.902344 5.636719 49.457031 5.636719 Z M 5.820312 11.457031 C 9.03125 11.457031 11.636719 14.058594 11.636719 17.273438 C 11.636719 20.488281 9.03125 23.09375 5.820312 23.09375 C 2.605469 23.09375 0 20.488281 0 17.273438 C 0 14.058594 2.605469 11.457031 5.820312 11.457031 Z M 23.273438 17.273438 L 23.273438 17.320312 C 23.273438 20.546875 25.902344 23.160156 29.136719 23.136719 L 32.179688 23.113281 C 36.375 29.988281 42.667969 35.523438 51.445312 38.976562 C 51.554688 39.023438 51.667969 39.0625 51.785156 39.105469 C 54.226562 39.890625 56.101562 40.285156 57.957031 40.421875 C 59.078125 46.476562 60.878906 53.933594 64 58 C 64 58 48.476562 57.953125 40.726562 58 L 23.273438 58 C 24.742188 51.648438 35.457031 40.40625 23.273438 40.542969 L 23.339844 37.636719 C 19.894531 34.179688 15.574219 30.78125 11.894531 27.171875 C 15.34375 25.058594 17.449219 21.3125 17.457031 17.273438 C 18.164062 17.277344 18.453125 17.265625 19.160156 17.273438 C 22.160156 17.308594 21.703125 17.277344 23.273438 17.273438 Z M 40.726562 34.726562 C 32.539062 34.910156 29.09375 40.542969 29.09375 40.542969 L 40.726562 40.542969 Z M 40.726562 34.726562 "/>
</g>
</svg>
