<svg xmlns="http://www.w3.org/2000/svg" xmlns:xlink="http://www.w3.org/1999/xlink" width="64" height="64" viewBox="0 0 64 64" version="1.1">
<defs> <linearGradient id="linear0" gradientUnits="userSpaceOnUse" x1="0" y1="0" x2="0" y2="1" gradientTransform="matrix(55.992188,0,0,56,4.003906,4)"> <stop offset="0" style="stop-color:#ff6666;stop-opacity:1;"/> <stop offset="1" style="stop-color:#d90000;stop-opacity:1;"/> </linearGradient> </defs>
<g id="surface1">
<path style=" stroke:none;fill-rule:nonzero;fill:url(#linear0);fill-opacity:1;" d="M 33.042969 4.816406 C 34.582031 4.816406 35.140625 5.371094 35.140625 6.90625 L 35.140625 8.984375 C 33.042969 11.066406 7.933594 11.066406 5.839844 8.984375 L 5.839844 6.90625 C 5.839844 5.371094 6.402344 4.816406 7.933594 4.816406 "/>
<path style=" stroke:none;fill-rule:nonzero;fill:url(#linear0);fill-opacity:1;" d="M 58.15625 8.984375 C 59.679688 8.984375 60.246094 9.539062 60.246094 11.066406 L 60.246094 13.152344 C 58.15625 15.234375 41.414062 15.234375 39.324219 13.152344 L 39.324219 11.066406 C 39.324219 9.539062 39.90625 8.984375 41.414062 8.984375 "/>
<path style=" stroke:none;fill-rule:nonzero;fill:url(#linear0);fill-opacity:1;" d="M 35.140625 8.984375 L 35.140625 25.660156 C 35.140625 27.183594 34.582031 27.738281 33.042969 27.738281 L 7.933594 27.738281 C 6.402344 27.738281 5.839844 27.183594 5.839844 25.660156 L 5.839844 8.984375 "/>
<path style=" stroke:none;fill-rule:nonzero;fill:url(#linear0);fill-opacity:1;" d="M 60.246094 13.152344 L 60.246094 31.90625 C 60.246094 33.441406 59.671875 33.996094 58.15625 33.996094 L 41.414062 33.996094 C 39.894531 33.996094 39.324219 33.441406 39.324219 31.90625 L 39.324219 13.152344 "/>
<path style=" stroke:none;fill-rule:nonzero;fill:url(#linear0);fill-opacity:1;" d="M 56.078125 40.242188 C 58.066406 40.242188 58.785156 40.796875 58.785156 42.332031 L 58.785156 44.410156 C 56.078125 46.5 12.734375 46.5 10.027344 44.410156 L 10.027344 42.332031 C 10.027344 40.796875 10.761719 40.242188 12.734375 40.242188 "/>
<path style=" stroke:none;fill-rule:nonzero;fill:url(#linear0);fill-opacity:1;" d="M 58.785156 44.410156 L 58.785156 56.914062 C 58.785156 58.441406 58.066406 58.996094 56.078125 58.996094 L 12.734375 58.996094 C 10.761719 58.996094 10.027344 58.441406 10.027344 56.914062 L 10.027344 44.410156 "/>
</g>
</svg>
