<svg xmlns="http://www.w3.org/2000/svg" xmlns:xlink="http://www.w3.org/1999/xlink" width="64" height="64" viewBox="0 0 64 64" version="1.1">
<defs>
<linearGradient id="linear0" gradientUnits="userSpaceOnUse" x1="0" y1="0" x2="0" y2="1" gradientTransform="matrix(64,0,0,56,0,4)">
<stop offset="0" style="stop-color:#ff6666;stop-opacity:1;"/>
<stop offset="1" style="stop-color:#d90000;stop-opacity:1;"/>
</linearGradient>
<linearGradient id="linear1" gradientUnits="userSpaceOnUse" x1="0" y1="0" x2="0" y2="1" gradientTransform="matrix(52,0,0,40,4,8)">
<stop offset="0" style="stop-color:#ff6666;stop-opacity:1;"/>
<stop offset="1" style="stop-color:#d90000;stop-opacity:1;"/>
</linearGradient>
<linearGradient id="linear2" gradientUnits="userSpaceOnUse" x1="0" y1="0" x2="0" y2="1" gradientTransform="matrix(40,0,0,40,16,20)">
<stop offset="0" style="stop-color:#ff6666;stop-opacity:1;"/>
<stop offset="1" style="stop-color:#d90000;stop-opacity:1;"/>
</linearGradient>
<linearGradient id="linear3" gradientUnits="userSpaceOnUse" x1="0" y1="0" x2="0" y2="1" gradientTransform="matrix(12.828125,0,0,12.828125,46.585938,50.585938)">
<stop offset="0" style="stop-color:#ff6666;stop-opacity:1;"/>
<stop offset="1" style="stop-color:#d90000;stop-opacity:1;"/>
</linearGradient>
</defs>
<g id="surface1">
<path style=" stroke:none;fill-rule:nonzero;fill:url(#linear0);" d="M 15.976562 4 C 10.945312 4.054688 7.261719 3.875 4.253906 5.539062 C 2.742188 6.367188 1.554688 7.777344 0.898438 9.53125 C 0.238281 11.285156 0 13.367188 0 16 L 0 48 C 0 50.632812 0.238281 52.714844 0.898438 54.46875 C 1.554688 56.222656 2.742188 57.632812 4.253906 58.460938 C 7.261719 60.125 10.945312 59.941406 15.976562 60 L 21.984375 60 C 17.910156 57.046875 14.792969 52.867188 13.195312 48 L 4 48 L 4 16 C 4 13.632812 4.253906 11.976562 4.640625 10.9375 C 5.03125 9.894531 5.449219 9.453125 6.179688 9.046875 C 7.644531 8.238281 10.964844 8.058594 16 8 L 48 8 C 53.035156 8.058594 56.347656 8.238281 57.8125 9.046875 C 58.546875 9.453125 58.96875 9.894531 59.359375 10.9375 C 59.746094 11.976562 60 13.632812 60 16 L 60 48 L 58.523438 48 C 57.929688 49.554688 57.214844 51.058594 56.375 52.476562 L 61.226562 57.328125 C 62.023438 56.550781 62.679688 55.59375 63.101562 54.46875 C 63.761719 52.714844 64 50.632812 64 48 L 64 16 C 64 13.367188 63.761719 11.285156 63.101562 9.53125 C 62.445312 7.777344 61.257812 6.367188 59.753906 5.539062 C 56.738281 3.875 53.054688 4.058594 48.023438 4 Z M 26.78125 48 C 28.9375 50.6875 32.21875 52.421875 36 52.421875 C 39.785156 52.421875 43.0625 50.691406 45.21875 48 Z M 26.78125 48 "/>
<path style=" stroke:none;fill-rule:nonzero;fill:url(#linear1);" d="M 24 8 L 4 48 L 13.195312 48 C 12.429688 45.660156 12 43.171875 12 40.585938 C 12 30.992188 17.726562 22.683594 25.921875 18.851562 C 27.386719 17.121094 29.550781 16 32 16 C 33.109375 16 34.164062 16.222656 35.125 16.632812 C 35.414062 16.621094 35.703125 16.589844 36 16.589844 C 41.03125 16.589844 45.707031 18.167969 49.578125 20.84375 L 56 8 Z M 38.234375 28.960938 C 36.769531 30.800781 34.535156 32 32 32 C 30.820312 32 29.703125 31.730469 28.695312 31.273438 C 25.941406 33.429688 24.15625 36.753906 24.15625 40.585938 C 24.15625 43.429688 25.160156 45.976562 26.78125 48 L 36 48 L 44.054688 31.890625 C 42.46875 30.421875 40.476562 29.375 38.234375 28.960938 Z M 38.234375 28.960938 "/>
<path style=" stroke:none;fill-rule:nonzero;fill:url(#linear2);" d="M 36 20 C 24.980469 20 16 28.980469 16 40 C 16 51.019531 24.980469 60 36 60 C 47.019531 60 56 51.019531 56 40 C 56 28.980469 47.019531 20 36 20 Z M 36 24.15625 C 44.773438 24.15625 51.84375 31.226562 51.84375 40 C 51.84375 48.773438 44.773438 55.84375 36 55.84375 C 27.226562 55.84375 20.15625 48.773438 20.15625 40 C 20.15625 31.226562 27.226562 24.15625 36 24.15625 Z M 36 24.15625 "/>
<path style=" stroke:none;fill-rule:evenodd;fill:url(#linear3);" d="M 49.414062 50.585938 L 46.585938 53.414062 L 56.585938 63.414062 L 59.414062 60.585938 Z M 49.414062 50.585938 "/>
</g>
</svg>
