<svg xmlns="http://www.w3.org/2000/svg" xmlns:xlink="http://www.w3.org/1999/xlink" width="64" height="64" viewBox="0 0 64 64" version="1.1">
<defs> <linearGradient id="linear0" gradientUnits="userSpaceOnUse" x1="0" y1="0" x2="0" y2="1" gradientTransform="matrix(55.992188,0,0,56,4.003906,4)"> <stop offset="0" style="stop-color:#ff6666;stop-opacity:1;"/> <stop offset="1" style="stop-color:#d90000;stop-opacity:1;"/> </linearGradient> </defs>
<g id="surface1">
<path style=" stroke:none;fill-rule:nonzero;fill:url(#linear0);fill-opacity:1;" d="M 20.480469 20.679688 L 12.765625 20.679688 C 11.707031 20.679688 10.839844 21.542969 10.839844 22.59375 L 10.839844 26.425781 C 10.839844 27.480469 11.707031 28.339844 12.765625 28.339844 L 20.480469 28.339844 C 21.542969 28.339844 22.414062 27.480469 22.414062 26.425781 L 22.414062 22.59375 C 22.414062 21.542969 21.542969 20.679688 20.480469 20.679688 "/>
<path style=" stroke:none;fill-rule:nonzero;fill:url(#linear0);fill-opacity:1;" d="M 14.695312 9.183594 L 18.550781 9.183594 L 18.550781 18.765625 L 14.695312 18.765625 Z M 14.695312 9.183594 "/>
<path style=" stroke:none;fill-rule:nonzero;fill:url(#linear0);fill-opacity:1;" d="M 14.695312 30.257812 L 18.550781 30.257812 L 18.550781 55.15625 L 14.695312 55.15625 Z M 14.695312 30.257812 "/>
<path style=" stroke:none;fill-rule:nonzero;fill:url(#linear0);fill-opacity:1;" d="M 35.910156 36.003906 L 28.199219 36.003906 C 27.136719 36.003906 26.269531 36.867188 26.269531 37.917969 L 26.269531 41.746094 C 26.269531 42.804688 27.136719 43.664062 28.199219 43.664062 L 35.910156 43.664062 C 36.972656 43.664062 37.84375 42.804688 37.84375 41.746094 L 37.84375 37.917969 C 37.84375 36.867188 36.972656 36.003906 35.910156 36.003906 "/>
<path style=" stroke:none;fill-rule:nonzero;fill:url(#linear0);fill-opacity:1;" d="M 30.125 9.183594 L 33.988281 9.183594 L 33.988281 34.089844 L 30.128906 34.089844 Z M 30.125 9.183594 "/>
<path style=" stroke:none;fill-rule:nonzero;fill:url(#linear0);fill-opacity:1;" d="M 30.125 45.582031 L 33.988281 45.582031 L 33.988281 55.15625 L 30.128906 55.15625 Z M 30.125 45.582031 "/>
<path style=" stroke:none;fill-rule:nonzero;fill:url(#linear0);fill-opacity:1;" d="M 51.34375 24.511719 L 43.625 24.511719 C 42.566406 24.511719 41.699219 25.371094 41.699219 26.425781 L 41.699219 30.257812 C 41.699219 31.308594 42.5625 32.171875 43.625 32.171875 L 51.34375 32.171875 C 52.402344 32.171875 53.265625 31.308594 53.265625 30.257812 L 53.265625 26.425781 C 53.265625 25.371094 52.402344 24.511719 51.34375 24.511719 "/>
<path style=" stroke:none;fill-rule:nonzero;fill:url(#linear0);fill-opacity:1;" d="M 45.554688 9.183594 L 49.410156 9.183594 L 49.410156 22.59375 L 45.554688 22.59375 Z M 45.554688 9.183594 "/>
<path style=" stroke:none;fill-rule:nonzero;fill:url(#linear0);fill-opacity:1;" d="M 45.554688 34.089844 L 49.410156 34.089844 L 49.410156 55.15625 L 45.554688 55.15625 Z M 45.554688 34.089844 "/>
</g>
</svg>
