<svg xmlns="http://www.w3.org/2000/svg" xmlns:xlink="http://www.w3.org/1999/xlink" width="64" height="64" viewBox="0 0 64 64" version="1.1">
<defs> <linearGradient id="linear0" gradientUnits="userSpaceOnUse" x1="0" y1="0" x2="0" y2="1" gradientTransform="matrix(55.992188,0,0,56,4.003906,4)"> <stop offset="0" style="stop-color:#ff6666;stop-opacity:1;"/> <stop offset="1" style="stop-color:#d90000;stop-opacity:1;"/> </linearGradient> </defs>
<g id="surface1">
<path style=" stroke:none;fill-rule:nonzero;fill:url(#linear0);fill-opacity:1;" d="M 46.542969 11.074219 C 41.890625 11.152344 36.882812 14.003906 35.972656 18.820312 C 35.792969 19.628906 35.777344 20.460938 35.757812 21.285156 C 37.417969 21.644531 37.90625 20.992188 37.796875 19.421875 C 38.625 14.496094 44.304688 12.265625 48.820312 13.023438 C 52.335938 13.414062 55.710938 16.15625 55.878906 19.882812 C 55.460938 21.34375 57.019531 21.714844 57.828125 21.042969 C 58.070312 16.964844 55.390625 13.101562 51.527344 11.832031 C 49.945312 11.25 48.234375 11.011719 46.542969 11.074219 M 46.964844 18.808594 C 45.277344 18.816406 45 21.457031 46.671875 21.773438 C 48.144531 22.289062 49.449219 20.234375 48.207031 19.210938 C 47.871094 18.917969 47.417969 18.769531 46.964844 18.808594 M 15.796875 25.902344 C 12.734375 25.878906 9.742188 27.648438 8.277344 30.328125 C 7.921875 29.140625 9.066406 26.457031 7.546875 26.433594 C 5.457031 25.890625 6.636719 28.605469 6.332031 29.84375 L 6.332031 50.410156 C 8.515625 51.050781 8.4375 49.429688 8.277344 47.738281 C 8.410156 43.382812 8.011719 38.972656 8.476562 34.65625 C 9.027344 30.726562 12.59375 27.183594 16.769531 27.8125 C 19.328125 27.789062 21.582031 29.898438 21.753906 32.449219 C 22.300781 37.140625 21.84375 41.890625 22 46.605469 C 22.34375 47.769531 21.210938 50.417969 22.726562 50.421875 C 24.820312 50.964844 23.632812 48.25 23.941406 47.011719 C 24.054688 42.566406 23.726562 38.089844 24.09375 33.660156 C 24.640625 30.121094 28.121094 27.421875 31.714844 27.773438 C 34.226562 27.636719 36.933594 29.222656 37.324219 31.804688 C 38.1875 36.226562 37.167969 40.867188 37.949219 45.304688 C 39.011719 49.089844 43.085938 51.109375 46.839844 50.914062 C 50.207031 51.039062 53.699219 49.507812 55.378906 46.503906 C 55.664062 47.6875 54.777344 50.03125 55.867188 50.417969 C 57.964844 51.050781 57.207031 48.839844 57.328125 47.5 L 57.328125 26.433594 C 55.136719 25.792969 55.21875 27.417969 55.378906 29.113281 C 55.242188 33.460938 55.65625 37.855469 55.15625 42.1875 C 54.578125 46.058594 51.0625 49.234375 47.070312 49.089844 C 43.9375 49.308594 40.277344 47.605469 39.734375 44.230469 C 39.234375 39.796875 40.175781 35.214844 39.082031 30.859375 C 38.230469 27.59375 34.753906 25.753906 31.503906 25.902344 C 28.199219 25.738281 24.769531 27.410156 23.320312 30.449219 C 22.167969 27.457031 18.949219 25.679688 15.796875 25.902344 "/>
</g>
</svg>
