<svg xmlns="http://www.w3.org/2000/svg" xmlns:xlink="http://www.w3.org/1999/xlink" width="64" height="64" viewBox="0 0 64 64" version="1.1">
<defs> <linearGradient id="linear0" gradientUnits="userSpaceOnUse" x1="0" y1="0" x2="0" y2="1" gradientTransform="matrix(55.992188,0,0,56,4.003906,4)"> <stop offset="0" style="stop-color:#ff6666;stop-opacity:1;"/> <stop offset="1" style="stop-color:#d90000;stop-opacity:1;"/> </linearGradient> </defs>
<g id="surface1">
<path style=" stroke:none;fill-rule:nonzero;fill:url(#linear0);fill-opacity:1;" d="M 46.855469 8.246094 C 38.074219 9.523438 29.238281 10.460938 20.472656 11.8125 C 19.125 12.503906 19.160156 14.238281 19.308594 15.535156 C 19.253906 24.566406 19.296875 33.59375 19.285156 42.625 C 14.945312 42.257812 10.207031 44.496094 8.5 48.625 C 7.421875 51.316406 9.003906 54.714844 11.808594 55.558594 C 15.285156 56.894531 19.371094 55.6875 22.019531 53.210938 C 23.882812 51.382812 24.730469 48.722656 24.535156 46.148438 C 24.566406 39.457031 24.53125 32.773438 24.554688 26.089844 L 24.554688 22.253906 L 43.878906 19.378906 C 43.863281 25.449219 43.902344 31.523438 43.851562 37.597656 C 39.496094 37.242188 34.726562 39.507812 33.0625 43.683594 C 32.042969 46.363281 33.640625 49.710938 36.417969 50.542969 C 39.96875 51.875 44.101562 50.621094 46.742188 48.054688 C 48.523438 46.242188 49.292969 43.648438 49.128906 41.152344 C 49.183594 35.121094 49.085938 29.085938 49.15625 23.050781 C 49.160156 18.511719 49.222656 13.953125 48.992188 9.410156 C 48.632812 8.613281 47.707031 8.183594 46.855469 8.246094 "/>
<path style=" stroke:none;fill-rule:nonzero;fill:url(#linear0);fill-opacity:1;" d="M 46.855469 8.246094 C 38.074219 9.523438 29.238281 10.460938 20.472656 11.8125 C 19.125 12.503906 19.160156 14.238281 19.308594 15.535156 C 19.253906 24.566406 19.296875 33.59375 19.285156 42.625 C 14.945312 42.257812 10.207031 44.496094 8.5 48.625 C 7.421875 51.316406 9.003906 54.714844 11.808594 55.558594 C 15.285156 56.894531 19.371094 55.6875 22.019531 53.210938 C 23.882812 51.382812 24.730469 48.722656 24.535156 46.148438 C 24.566406 39.457031 24.53125 32.773438 24.554688 26.089844 L 24.554688 22.253906 L 43.878906 19.378906 C 43.863281 25.449219 43.902344 31.523438 43.851562 37.597656 C 39.496094 37.242188 34.726562 39.507812 33.0625 43.683594 C 32.042969 46.363281 33.640625 49.710938 36.417969 50.542969 C 39.96875 51.875 44.101562 50.621094 46.742188 48.054688 C 48.523438 46.242188 49.292969 43.648438 49.128906 41.152344 C 49.183594 35.121094 49.085938 29.085938 49.15625 23.050781 C 49.160156 18.511719 49.222656 13.953125 48.992188 9.410156 C 48.632812 8.613281 47.707031 8.183594 46.855469 8.246094 "/>
</g>
</svg>
