<svg xmlns="http://www.w3.org/2000/svg" xmlns:xlink="http://www.w3.org/1999/xlink" width="64" height="64" viewBox="0 0 64 64" version="1.1">
<defs> <linearGradient id="linear0" gradientUnits="userSpaceOnUse" x1="0" y1="0" x2="0" y2="1" gradientTransform="matrix(55.992188,0,0,56,4.003906,4)"> <stop offset="0" style="stop-color:#ff6666;stop-opacity:1;"/> <stop offset="1" style="stop-color:#d90000;stop-opacity:1;"/> </linearGradient> </defs>
<g id="surface1">
<path style=" stroke:none;fill-rule:nonzero;fill:url(#linear0);fill-opacity:1;" d="M 13.859375 7.84375 L 4.371094 17.292969 L 7.535156 20.445312 L 13.859375 14.144531 L 20.1875 20.445312 L 23.351562 17.292969 Z M 49.710938 7.84375 L 40.222656 17.292969 L 43.386719 20.445312 L 49.710938 14.144531 L 56.039062 20.445312 L 59.203125 17.292969 Z M 19.128906 24.640625 C 16.800781 24.640625 14.910156 26.523438 14.910156 28.84375 C 14.910156 31.160156 16.800781 33.042969 19.128906 33.042969 C 21.460938 33.042969 23.351562 31.160156 23.351562 28.84375 C 23.351562 26.523438 21.460938 24.640625 19.128906 24.640625 Z M 44.4375 24.640625 C 42.109375 24.640625 40.222656 26.523438 40.222656 28.84375 C 40.222656 31.160156 42.109375 33.042969 44.4375 33.042969 C 46.765625 33.042969 48.65625 31.160156 48.65625 28.84375 C 48.65625 26.523438 46.765625 24.640625 44.4375 24.640625 Z M 19.128906 37.246094 C 19.128906 37.246094 14.910156 41.441406 14.910156 47.742188 C 14.910156 54.042969 19.128906 58.246094 19.128906 58.246094 L 23.351562 58.246094 C 23.351562 58.246094 19.128906 54.042969 19.128906 47.742188 C 19.128906 41.441406 23.351562 37.246094 23.351562 37.246094 Z M 27.570312 37.246094 L 27.570312 41.441406 L 31.785156 41.441406 L 31.785156 51.945312 C 31.785156 53.105469 30.839844 54.042969 29.675781 54.042969 C 28.511719 54.042969 27.570312 53.105469 27.570312 51.945312 L 23.351562 51.945312 C 23.351562 55.421875 26.183594 58.246094 29.675781 58.246094 C 33.167969 58.246094 36.003906 55.421875 36.003906 51.945312 L 36.003906 41.441406 L 38.109375 41.441406 L 38.109375 37.246094 Z M 40.222656 37.246094 C 40.222656 37.246094 44.4375 41.441406 44.4375 47.742188 C 44.4375 54.042969 40.222656 58.246094 40.222656 58.246094 L 44.4375 58.246094 C 44.4375 58.246094 48.65625 54.042969 48.65625 47.742188 C 48.65625 41.441406 44.4375 37.246094 44.4375 37.246094 Z M 40.222656 37.246094 "/>
</g>
</svg>
