<svg xmlns="http://www.w3.org/2000/svg" xmlns:xlink="http://www.w3.org/1999/xlink" width="64" height="64" viewBox="0 0 64 64" version="1.1">
<defs> <linearGradient id="linear0" gradientUnits="userSpaceOnUse" x1="0" y1="0" x2="0" y2="1" gradientTransform="matrix(55.992188,0,0,56,4.003906,4)"> <stop offset="0" style="stop-color:#ff6666;stop-opacity:1;"/> <stop offset="1" style="stop-color:#d90000;stop-opacity:1;"/> </linearGradient> </defs>
<g id="surface1">
<path style=" stroke:none;fill-rule:nonzero;fill:url(#linear0);fill-opacity:1;" d="M 9.488281 7.933594 C 8.011719 7.90625 7.175781 8.503906 6.890625 9.800781 C 6.507812 11.554688 7 12.773438 9.285156 15.675781 C 11.042969 17.910156 11.652344 18.960938 12.28125 20.851562 C 13.222656 23.679688 13.890625 25.042969 14.90625 26.242188 L 15.667969 27.144531 L 15.074219 29.617188 C 13.558594 35.910156 15.410156 43.460938 18.476562 43.460938 C 19.511719 43.460938 20.664062 42.167969 20.890625 40.757812 C 20.988281 40.136719 21.238281 39.402344 21.4375 39.128906 C 21.761719 38.695312 21.886719 38.808594 22.492188 40.015625 C 22.875 40.773438 23.816406 42.097656 24.582031 42.953125 C 26.121094 44.671875 29.269531 47.441406 29.460938 47.25 C 29.527344 47.183594 28.820312 46.101562 27.875 44.847656 C 26.933594 43.597656 25.179688 40.757812 23.980469 38.546875 C 22.777344 36.339844 21.605469 34.464844 21.390625 34.382812 C 20.441406 34.023438 19.152344 36.21875 18.785156 38.824219 C 18.410156 41.464844 17.183594 40.960938 16.382812 37.84375 C 15.734375 35.335938 15.9375 32.472656 16.972656 29.429688 C 17.882812 26.777344 17.898438 26.90625 15.957031 23.65625 C 15.320312 22.597656 14.417969 20.671875 13.941406 19.363281 C 13.058594 16.949219 12.316406 15.648438 10.464844 13.359375 C 9.148438 11.730469 9.066406 10.648438 10.265625 10.648438 C 11.554688 10.648438 13.054688 11.074219 14.84375 12.464844 C 16.410156 13.679688 16.65625 13.828125 18.699219 13.605469 C 20.660156 13.398438 21.039062 13.707031 22.800781 14.730469 C 26.945312 17.148438 30.816406 20.308594 32.78125 22.882812 C 33.539062 23.875 35.144531 26.753906 36.355469 29.273438 C 37.566406 31.792969 39.03125 34.832031 39.621094 36.019531 C 40.984375 38.761719 42.863281 40.496094 45.25 41.238281 C 47.457031 41.917969 49.054688 42.714844 50.511719 43.855469 C 51.660156 44.761719 51.664062 44.761719 50.9375 44.960938 C 50.535156 45.066406 49.316406 45.25 48.230469 45.367188 C 46.015625 45.597656 44.75 46.351562 44.75 47.425781 C 44.75 47.859375 45.351562 48.664062 46.457031 49.703125 C 48.605469 51.734375 49.46875 52.339844 53.503906 54.625 C 57.238281 56.734375 57.640625 56.84375 57.191406 55.660156 C 56.726562 54.433594 55.914062 53.664062 52.058594 50.808594 C 50.042969 49.308594 48.710938 48.136719 48.945312 48.066406 C 49.167969 47.992188 50.359375 47.855469 51.597656 47.75 C 54.023438 47.542969 55.230469 47.109375 55.375 46.390625 C 55.417969 46.128906 54.1875 44.699219 52.515625 43.082031 C 50 40.65625 49.15625 40.046875 46.746094 38.898438 C 43.164062 37.199219 42.078125 36.019531 41.050781 32.695312 C 39.570312 27.910156 36.847656 23.542969 32.636719 19.171875 C 27.46875 13.804688 22.492188 10.5 18.425781 10.949219 C 17.433594 11.054688 16.800781 10.761719 15.898438 10.050781 C 14.503906 8.953125 11.3125 7.972656 9.492188 7.933594 M 17.839844 15.867188 C 17.683594 15.890625 17.527344 15.9375 17.363281 16.023438 C 16.683594 16.367188 16.699219 17.0625 17.394531 17.28125 C 17.699219 17.378906 18.160156 17.984375 18.414062 18.632812 C 18.671875 19.277344 18.941406 19.816406 19.027344 19.816406 C 20.289062 19.816406 20.566406 17.667969 19.441406 16.648438 C 18.796875 16.054688 18.3125 15.816406 17.839844 15.867188 "/>
</g>
</svg>
