<svg xmlns="http://www.w3.org/2000/svg" xmlns:xlink="http://www.w3.org/1999/xlink" width="64" height="64" viewBox="0 0 64 64" version="1.1">
<defs>
<linearGradient id="linear0" gradientUnits="userSpaceOnUse" x1="0" y1="0" x2="0" y2="1" gradientTransform="matrix(64,0,0,64,0,0)">
<stop offset="0" style="stop-color:#ff6666;stop-opacity:1;"/>
<stop offset="1" style="stop-color:#d90000;stop-opacity:1;"/>
</linearGradient>
</defs>
<g id="surface1">
<path style=" stroke:none;fill-rule:nonzero;fill:url(#linear0);" d="M 5.007812 0 C 3.199219 -0.03125 1.199219 0.910156 0.351562 3.019531 C -0.410156 4.914062 0.191406 6.78125 0.976562 8.160156 C 1.757812 9.539062 2.777344 10.652344 3.171875 11.207031 C 3.90625 12.246094 4.746094 13.308594 5.132812 14.171875 C 5.347656 14.644531 5.402344 15.335938 5.757812 16.3125 C 6.429688 18.148438 7.035156 20.265625 8.011719 22.183594 C 8.472656 23.085938 8.996094 24.078125 9.644531 24.976562 C 9.917969 25.359375 10.125 25.496094 10.269531 25.621094 C 9.769531 26.71875 9.746094 27.789062 9.550781 28.421875 C 7.9375 33.597656 8.464844 39.769531 10.925781 43.792969 C 11.28125 44.371094 11.882812 45.347656 12.847656 46.132812 C 13.8125 46.917969 15.371094 47.488281 16.921875 46.847656 C 18.335938 46.257812 18.992188 44.863281 19.226562 43.714844 C 19.253906 43.585938 19.257812 43.492188 19.277344 43.367188 C 19.285156 43.378906 19.289062 43.390625 19.296875 43.402344 C 20.714844 45.730469 23.035156 47.9375 25.042969 49.480469 C 25.714844 49.996094 26.582031 51.550781 28.460938 52.203125 C 28.867188 52.347656 29.316406 52.28125 29.664062 52.027344 C 30.015625 51.773438 30.222656 51.363281 30.21875 50.925781 L 30.21875 50.832031 C 30.222656 50.320312 29.941406 49.851562 29.492188 49.621094 C 29.152344 49.269531 28.832031 49.058594 28.769531 48.996094 C 28.066406 48.292969 27.277344 47.398438 26.726562 46.636719 C 25.046875 44.3125 23.539062 41.746094 22.164062 39.058594 C 21.539062 37.832031 20.964844 36.417969 20.398438 35.074219 C 20.386719 35.050781 20.324219 34.769531 20.210938 34.371094 C 20.097656 33.972656 19.894531 33.308594 19.183594 32.890625 C 18.574219 32.53125 17.792969 32.722656 17.40625 33.328125 C 16.9375 34.070312 15.925781 34.929688 15.296875 36.441406 C 14.75 37.761719 14.523438 39.152344 14.359375 40.546875 C 14.28125 40.359375 14.214844 40.242188 14.128906 40.035156 C 13.058594 37.441406 12.816406 32.699219 13.785156 29.628906 C 13.875 29.351562 14.289062 28.332031 14.605469 27.324219 C 14.765625 26.820312 14.914062 26.308594 14.980469 25.777344 C 15.050781 25.253906 15.121094 24.664062 14.699219 23.96875 C 14.742188 24.074219 14.800781 24.148438 14.835938 24.261719 L 14.691406 23.933594 C 14.195312 22.714844 13.292969 22.175781 13.113281 21.921875 C 12.625 21.25 12.089844 20.273438 11.738281 19.460938 C 10.804688 17.308594 10.324219 14.660156 9.15625 12.074219 C 8.550781 10.726562 7.628906 9.542969 6.9375 8.5625 C 6.054688 7.308594 5.277344 6.582031 4.785156 5.488281 C 4.703125 5.304688 4.628906 5.109375 4.597656 4.976562 C 4.664062 4.96875 4.804688 4.941406 4.988281 4.984375 C 5.386719 5.078125 5.871094 5.257812 6.117188 5.359375 C 7.609375 5.992188 8.789062 6.5625 9.984375 7.367188 C 10.292969 7.578125 10.957031 8.582031 12.34375 8.996094 C 12.460938 9.03125 12.585938 9.046875 12.710938 9.046875 L 13.554688 9.046875 C 15.109375 9.351562 16.492188 9.230469 17.28125 9.472656 C 19.335938 10.109375 21.210938 11.113281 22.953125 12.230469 C 28.230469 15.628906 32.550781 20.46875 35.515625 26.253906 C 35.921875 27.046875 36.128906 27.929688 36.617188 29.074219 C 37.523438 31.207031 38.632812 33.332031 39.476562 35.285156 C 40.34375 37.285156 41.214844 39.414062 42.578125 41.269531 C 43.324219 42.285156 44.265625 42.5 45.175781 42.808594 C 46.082031 43.121094 47.015625 43.375 47.40625 43.539062 C 48.375 43.957031 49.660156 44.351562 50.09375 44.617188 C 51.460938 45.457031 52.832031 46.488281 54.203125 47.472656 C 54.257812 47.511719 54.332031 47.554688 54.390625 47.59375 C 52.503906 47.753906 50.75 48.050781 49.214844 48.707031 C 49.132812 48.742188 48.726562 48.820312 48.199219 49.03125 C 47.933594 49.132812 47.613281 49.292969 47.3125 49.59375 C 47.007812 49.898438 46.765625 50.371094 46.703125 50.847656 C 46.652344 51.25 46.78125 51.65625 47.054688 51.953125 C 46.988281 51.882812 47.074219 52.285156 47.558594 53.082031 C 47.558594 53.085938 47.558594 53.089844 47.558594 53.09375 C 48.152344 54.070312 49.015625 55.265625 50.070312 56.074219 C 50.914062 56.726562 51.832031 57.457031 52.84375 58.085938 C 54.664062 59.214844 56.488281 59.804688 57.867188 60.695312 C 58.707031 61.238281 59.617188 61.96875 60.558594 62.671875 C 60.707031 62.78125 61.136719 63.527344 62.230469 63.921875 C 62.636719 64.070312 63.085938 64.003906 63.4375 63.753906 C 63.789062 63.5 64 63.089844 64 62.652344 L 64 62.558594 C 64 62.253906 63.894531 61.957031 63.710938 61.722656 C 63.699219 61.707031 63.617188 61.207031 63.09375 60.433594 C 63.050781 60.367188 62.996094 60.300781 62.941406 60.242188 L 61.703125 58.980469 L 61.820312 59.128906 C 60.511719 57.359375 58.886719 55.835938 57.167969 54.578125 C 56.367188 53.992188 55.335938 53.460938 54.449219 52.875 C 54.300781 52.777344 54.207031 52.679688 54.074219 52.578125 C 54.277344 52.519531 54.558594 52.46875 54.734375 52.421875 C 55.917969 52.097656 57.199219 52.195312 58.910156 51.742188 C 58.921875 51.742188 58.933594 51.738281 58.945312 51.734375 C 59.609375 51.539062 60.277344 51.355469 60.941406 51.160156 C 61.515625 50.996094 61.910156 50.460938 61.90625 49.855469 L 61.90625 49.472656 C 61.90625 49.117188 61.769531 48.777344 61.523438 48.523438 C 60.964844 47.941406 60.429688 46.863281 59.34375 45.921875 C 57.183594 44.050781 54.8125 42.164062 52.339844 40.574219 C 50.816406 39.59375 49.128906 39.039062 47.847656 38.382812 C 47.417969 38.160156 47.082031 38.078125 46.839844 37.988281 C 46.730469 37.949219 46.660156 37.90625 46.628906 37.886719 C 46.109375 37.171875 45.710938 36.09375 45.097656 34.894531 C 43.921875 32.585938 42.765625 30.054688 41.714844 27.613281 C 41.714844 27.609375 41.714844 27.605469 41.714844 27.601562 C 41.039062 26.023438 40.554688 24.304688 39.539062 22.601562 C 35.121094 15.203125 30.226562 10.605469 22.898438 6.238281 C 21.097656 5.164062 19.117188 4.8125 17.203125 4.351562 C 17.128906 4.332031 17.054688 4.320312 16.980469 4.316406 C 16.042969 4.257812 15.101562 4.199219 14.164062 4.140625 C 14.066406 4.082031 13.90625 3.972656 13.660156 3.757812 C 13.359375 3.496094 13.027344 3.167969 12.566406 2.871094 C 10.992188 1.859375 8.015625 0.0507812 5.007812 0 Z M 4.742188 4.8125 C 4.613281 4.910156 4.566406 4.957031 4.597656 4.960938 C 4.59375 4.949219 4.582031 4.933594 4.578125 4.925781 C 4.554688 4.796875 4.613281 4.875 4.492188 5.054688 C 4.523438 5.011719 4.546875 4.96875 4.570312 4.925781 C 4.574219 4.925781 4.578125 4.925781 4.578125 4.925781 C 4.636719 4.890625 4.691406 4.851562 4.742188 4.8125 Z M 18.585938 14.300781 C 17.503906 14.28125 16.746094 14.417969 15.9375 14.597656 L 15.9375 14.746094 L 16.085938 14.746094 C 16.601562 15.824219 17.503906 16.523438 18.140625 17.453125 C 18.632812 18.503906 19.128906 19.550781 19.621094 20.601562 C 19.667969 20.550781 19.71875 20.503906 19.765625 20.453125 C 20.679688 19.796875 21.101562 18.746094 21.097656 17.148438 C 20.730469 16.753906 20.671875 16.265625 20.355469 15.796875 C 19.933594 15.175781 19.117188 14.824219 18.585938 14.300781 Z M 18.585938 14.300781 "/>
</g>
</svg>
