<svg xmlns="http://www.w3.org/2000/svg" xmlns:xlink="http://www.w3.org/1999/xlink" width="64" height="64" viewBox="0 0 64 64" version="1.1">
<defs>
<linearGradient id="linear0" gradientUnits="userSpaceOnUse" x1="0" y1="0" x2="0" y2="1" gradientTransform="matrix(74.65625,0,0,74.666667,5.338541,5.333333)">
<stop offset="0" style="stop-color:#ff6666;stop-opacity:1;"/>
<stop offset="1" style="stop-color:#d90000;stop-opacity:1;"/>
</linearGradient>
</defs>
<g id="surface1">
<path style=" stroke:none;fill-rule:nonzero;fill:url(#linear0);" d="M 6.65625 3.84375 C 5.574219 3.867188 4.402344 4.164062 3.445312 5.007812 C 3.390625 5.054688 3.335938 5.105469 3.285156 5.160156 C 2.285156 6.21875 1.851562 7.828125 2.058594 9.09375 C 2.261719 10.355469 2.835938 11.308594 3.429688 12.164062 C 4.613281 13.882812 6.070312 15.386719 6.679688 16.40625 C 6.734375 16.496094 6.792969 16.578125 6.855469 16.660156 C 8.363281 18.570312 9.222656 22.234375 11.140625 25.457031 C 11.171875 25.507812 11.203125 25.558594 11.234375 25.605469 C 11.871094 26.511719 12.035156 27.167969 12.007812 27.4375 C 12.007812 27.4375 12.007812 27.441406 12.007812 27.441406 C 11.292969 31.011719 10.882812 34.40625 11.15625 37.476562 C 11.429688 40.605469 12.46875 43.5625 14.867188 45.496094 C 15.648438 46.125 16.738281 46.203125 17.601562 45.691406 C 18.769531 44.996094 19.164062 44.21875 19.628906 43.527344 C 19.996094 42.984375 20.289062 42.5625 20.5625 42.1875 C 21.9375 44.324219 23.117188 45.898438 24.582031 47.519531 C 25.46875 48.503906 26.988281 48.582031 27.972656 47.691406 C 28.957031 46.804688 29.035156 45.285156 28.144531 44.300781 C 26.707031 42.710938 25.738281 41.46875 24.347656 39.265625 C 24.328125 39.234375 24.304688 39.203125 24.285156 39.171875 C 23.386719 37.886719 22.015625 36.785156 20.363281 36.882812 C 18.707031 36.976562 17.777344 37.976562 17.136719 38.738281 C 16.867188 39.058594 16.722656 39.316406 16.507812 39.625 C 16.242188 38.90625 16.027344 38.097656 15.9375 37.054688 C 15.726562 34.683594 16.054688 31.582031 16.742188 28.1875 C 16.757812 28.121094 16.765625 28.050781 16.773438 27.980469 C 17.003906 25.945312 16.136719 24.238281 15.167969 22.851562 L 15.265625 23 C 13.996094 20.871094 13.160156 16.972656 10.671875 13.769531 C 9.578125 12.019531 8.148438 10.554688 7.382812 9.4375 C 7.101562 9.03125 7.050781 8.851562 6.96875 8.65625 C 7.027344 8.660156 6.953125 8.652344 7.039062 8.664062 C 7.558594 8.734375 8.398438 9.015625 9.265625 9.425781 C 10.996094 10.246094 12.5625 11.382812 13.890625 12.046875 C 13.90625 12.054688 13.921875 12.058594 13.9375 12.066406 C 15.859375 12.976562 17.410156 12.679688 18.703125 12.796875 C 20 12.917969 21.289062 13.175781 23.34375 14.695312 C 23.34375 14.695312 23.347656 14.699219 23.347656 14.699219 C 26.722656 17.347656 29.707031 19.136719 32.929688 23.386719 C 35.679688 27.214844 37.625 30.917969 42.074219 38.808594 C 42.101562 38.859375 42.132812 38.910156 42.164062 38.957031 C 43.15625 40.445312 44.664062 41.671875 46.546875 42.363281 C 48.367188 43.03125 50.394531 44.347656 52.511719 46.316406 C 52.429688 46.3125 52.382812 46.320312 52.296875 46.316406 C 52.285156 46.316406 52.269531 46.316406 52.253906 46.316406 C 51.273438 46.300781 50.464844 46.347656 49.625 46.59375 C 48.789062 46.84375 47.585938 47.546875 47.246094 48.882812 C 46.90625 50.21875 47.472656 51.167969 47.929688 51.804688 C 48.382812 52.429688 48.910156 52.925781 49.53125 53.445312 C 52.523438 56.050781 55.742188 58.09375 58.269531 59.757812 C 59.375 60.488281 60.863281 60.183594 61.59375 59.078125 C 62.324219 57.96875 62.019531 56.480469 60.914062 55.75 C 58.890625 54.417969 56.621094 52.785156 54.453125 51.105469 C 55.097656 51.109375 55.75 51.160156 56.355469 51.097656 C 57.027344 51.027344 57.648438 51.070312 58.640625 50.347656 C 59.136719 49.984375 59.753906 49.152344 59.796875 48.242188 C 59.839844 47.332031 59.464844 46.703125 59.15625 46.292969 C 55.394531 41.171875 51.300781 38.992188 48.199219 37.855469 C 48.199219 37.855469 48.195312 37.855469 48.195312 37.855469 C 47.21875 37.496094 46.632812 36.984375 46.179688 36.3125 C 41.8125 28.5625 39.777344 24.679688 36.8125 20.554688 C 36.800781 20.539062 36.785156 20.523438 36.773438 20.507812 C 33.042969 15.582031 29.375 13.335938 26.257812 10.882812 C 26.242188 10.871094 26.222656 10.855469 26.203125 10.84375 C 23.488281 8.832031 21 8.1875 19.140625 8.015625 C 17.289062 7.847656 16.320312 7.878906 15.992188 7.726562 C 15.671875 7.5625 13.523438 6.132812 11.316406 5.085938 C 10.203125 4.5625 9.015625 4.089844 7.699219 3.90625 C 7.371094 3.863281 7.019531 3.839844 6.65625 3.84375 Z M 18.113281 14.855469 C 17.128906 14.84375 16.234375 15.429688 15.859375 16.34375 C 15.355469 17.570312 15.941406 18.972656 17.167969 19.476562 C 18.128906 19.871094 18.171875 19.789062 18.328125 20.550781 C 18.589844 21.847656 19.855469 22.6875 21.15625 22.421875 C 22.453125 22.160156 23.292969 20.890625 23.03125 19.59375 C 22.539062 17.179688 20.550781 15.675781 18.992188 15.035156 C 18.714844 14.921875 18.414062 14.859375 18.113281 14.855469 Z M 18.113281 14.855469 "/>
</g>
</svg>
