<svg xmlns="http://www.w3.org/2000/svg" xmlns:xlink="http://www.w3.org/1999/xlink" width="64" height="64" viewBox="0 0 64 64" version="1.1">
<defs>
<linearGradient id="linear0" gradientUnits="userSpaceOnUse" x1="0" y1="0" x2="0" y2="1" gradientTransform="matrix(64,0,0,57.164062,0,3.417969)">
<stop offset="0" style="stop-color:#ff6666;stop-opacity:1;"/>
<stop offset="1" style="stop-color:#d90000;stop-opacity:1;"/>
</linearGradient>
</defs>
<g id="surface1">
<path style=" stroke:none;fill-rule:nonzero;fill:url(#linear0);" d="M 15.667969 60.582031 L 0.5625 34.351562 C -0.1875 33.046875 -0.1875 30.929688 0.566406 29.625 L 14.230469 5.925781 C 14.984375 4.621094 16.816406 3.558594 18.324219 3.554688 L 29.234375 3.523438 C 30.738281 3.519531 32.574219 4.570312 33.328125 5.875 L 46.988281 29.457031 C 47.742188 30.757812 48.355469 30.59375 48.355469 29.089844 L 48.355469 3.417969 L 63.4375 29.695312 C 64.1875 31 64.1875 33.121094 63.4375 34.425781 L 50.03125 57.757812 C 49.171875 59.25 47.078125 60.460938 45.359375 60.460938 L 34.738281 60.460938 C 33.234375 60.460938 31.40625 59.398438 30.660156 58.089844 L 17.164062 34.40625 C 16.308594 32.910156 15.621094 33.09375 15.625 34.8125 Z M 15.667969 60.582031 "/>
</g>
</svg>
