<svg xmlns="http://www.w3.org/2000/svg" xmlns:xlink="http://www.w3.org/1999/xlink" width="64" height="64" viewBox="0 0 64 64" version="1.1">
<defs>
<linearGradient id="linear0" gradientUnits="userSpaceOnUse" x1="0" y1="0" x2="0" y2="1" gradientTransform="matrix(64,0,0,62.632812,0,0.683594)">
<stop offset="0" style="stop-color:#ff6666;stop-opacity:1;"/>
<stop offset="1" style="stop-color:#d90000;stop-opacity:1;"/>
</linearGradient>
</defs>
<g id="surface1">
<path style=" stroke:none;fill-rule:nonzero;fill:url(#linear0);" d="M 4.632812 33.070312 L 4.960938 35.253906 L 0.597656 35.910156 L 0.269531 33.722656 C 0.0898438 32.542969 0 31.34375 0 30.140625 C 0.00390625 28.285156 0.203125 26.433594 0.59375 24.617188 C 0.972656 22.8125 1.515625 21.039062 2.207031 19.328125 C 3.566406 15.964844 5.425781 12.828125 7.722656 10.027344 C 8.8125 8.691406 9.992188 7.445312 11.269531 6.292969 C 12.46875 5.203125 13.769531 4.222656 15.144531 3.367188 C 16.425781 2.558594 17.796875 1.902344 19.226562 1.414062 C 20.589844 0.945312 22.007812 0.695312 23.449219 0.683594 C 24.257812 0.679688 25.058594 0.769531 25.84375 0.949219 C 26.636719 1.132812 27.394531 1.421875 28.113281 1.796875 C 29.242188 2.375 30.273438 3.128906 31.175781 4.019531 C 32.015625 4.859375 32.710938 5.824219 33.246094 6.886719 C 33.761719 7.914062 34.128906 9.007812 34.34375 10.136719 C 34.558594 11.269531 34.667969 12.414062 34.660156 13.566406 C 34.660156 14.402344 34.617188 15.242188 34.527344 16.074219 C 34.441406 16.9375 34.320312 17.789062 34.164062 18.640625 C 33.742188 20.945312 33.1875 23.222656 32.496094 25.464844 C 30.371094 25.390625 28.238281 25.546875 26.148438 25.929688 C 24.78125 26.171875 23.4375 26.542969 22.132812 27.027344 C 20.976562 27.464844 19.863281 28 18.8125 28.648438 C 17.855469 29.234375 16.964844 29.914062 16.148438 30.683594 C 14.652344 32.09375 13.464844 33.796875 12.664062 35.683594 C 11.898438 37.503906 11.507812 39.460938 11.511719 41.433594 C 11.511719 43.367188 11.871094 45.277344 12.574219 47.078125 C 13.316406 48.976562 14.402344 50.71875 15.777344 52.21875 C 17.304688 53.882812 19.121094 55.253906 21.144531 56.269531 C 22.277344 56.835938 23.457031 57.316406 24.675781 57.683594 C 26.019531 58.09375 27.394531 58.390625 28.789062 58.578125 C 30.34375 58.792969 31.902344 58.898438 33.472656 58.902344 C 34.984375 58.902344 36.496094 58.796875 37.992188 58.578125 C 39.386719 58.378906 40.765625 58.070312 42.117188 57.667969 C 43.363281 57.289062 44.578125 56.808594 45.761719 56.230469 C 46.839844 55.703125 47.878906 55.078125 48.855469 54.371094 C 49.753906 53.714844 50.578125 52.980469 51.332031 52.164062 C 52.023438 51.410156 52.628906 50.589844 53.136719 49.699219 C 53.613281 48.871094 53.984375 47.984375 54.238281 47.058594 C 54.488281 46.152344 54.617188 45.214844 54.617188 44.277344 C 54.601562 42.816406 54.320312 41.371094 53.777344 40.011719 C 53.46875 39.222656 53.089844 38.472656 52.652344 37.746094 C 52.15625 36.9375 51.605469 36.160156 50.996094 35.425781 C 50.300781 34.59375 49.546875 33.800781 48.753906 33.0625 C 47.839844 32.222656 46.878906 31.4375 45.882812 30.703125 C 44.742188 29.867188 43.566406 29.09375 42.351562 28.375 C 40.578125 27.324219 38.742188 26.375 36.859375 25.527344 C 36.835938 24 36.949219 22.480469 37.203125 20.972656 C 37.378906 19.925781 37.609375 18.878906 37.890625 17.851562 C 38.441406 15.792969 39.203125 13.792969 40.160156 11.882812 C 40.609375 10.988281 41.113281 10.125 41.675781 9.296875 C 42.199219 8.511719 42.796875 7.789062 43.453125 7.121094 C 44.078125 6.472656 44.800781 5.929688 45.589844 5.5 C 46.421875 5.042969 47.34375 4.800781 48.285156 4.789062 C 48.667969 4.785156 49.050781 4.828125 49.425781 4.90625 C 50.539062 5.160156 51.617188 5.566406 52.621094 6.117188 C 53.632812 6.671875 54.578125 7.34375 55.445312 8.113281 C 56.339844 8.898438 57.160156 9.773438 57.898438 10.710938 C 58.667969 11.6875 59.363281 12.71875 59.980469 13.796875 C 61.269531 16.054688 62.257812 18.472656 62.929688 20.984375 C 63.628906 23.554688 63.992188 26.207031 64 28.871094 C 64.015625 31.097656 63.722656 33.3125 63.140625 35.453125 L 62.554688 37.585938 L 58.296875 36.421875 L 58.878906 34.289062 C 59.359375 32.527344 59.601562 30.714844 59.585938 28.890625 C 59.578125 26.613281 59.269531 24.335938 58.667969 22.136719 C 58.09375 19.984375 57.242188 17.914062 56.144531 15.980469 C 55.636719 15.097656 55.0625 14.246094 54.429688 13.445312 C 53.855469 12.710938 53.210938 12.03125 52.511719 11.410156 C 51.894531 10.859375 51.21875 10.382812 50.496094 9.988281 C 49.855469 9.640625 49.171875 9.378906 48.46875 9.214844 C 48.425781 9.203125 48.371094 9.199219 48.328125 9.199219 C 48.109375 9.210938 47.890625 9.269531 47.703125 9.371094 C 47.296875 9.597656 46.925781 9.871094 46.609375 10.207031 C 46.136719 10.683594 45.710938 11.199219 45.335938 11.761719 C 44.882812 12.433594 44.472656 13.136719 44.105469 13.863281 C 43.28125 15.507812 42.628906 17.230469 42.148438 19.007812 C 41.90625 19.894531 41.707031 20.792969 41.558594 21.703125 C 41.496094 22.070312 41.445312 22.445312 41.398438 22.816406 C 42.484375 23.371094 43.546875 23.957031 44.601562 24.574219 C 45.9375 25.363281 47.234375 26.222656 48.488281 27.140625 C 49.625 27.972656 50.710938 28.867188 51.742188 29.820312 C 52.6875 30.6875 53.566406 31.617188 54.382812 32.601562 C 55.136719 33.5 55.820312 34.460938 56.429688 35.460938 C 56.988281 36.390625 57.476562 37.367188 57.875 38.378906 C 58.628906 40.246094 59.015625 42.246094 59.027344 44.265625 C 59.027344 45.605469 58.847656 46.941406 58.496094 48.234375 C 58.136719 49.515625 57.625 50.746094 56.964844 51.898438 C 56.292969 53.066406 55.492188 54.164062 54.574219 55.15625 C 53.632812 56.183594 52.585938 57.117188 51.457031 57.9375 C 50.269531 58.804688 49.011719 59.554688 47.691406 60.199219 C 46.308594 60.875 44.867188 61.441406 43.390625 61.890625 C 41.832031 62.363281 40.238281 62.714844 38.625 62.953125 C 36.914062 63.195312 35.191406 63.316406 33.46875 63.316406 C 31.699219 63.3125 29.941406 63.195312 28.195312 62.953125 C 26.566406 62.734375 24.960938 62.386719 23.390625 61.902344 C 21.933594 61.464844 20.515625 60.894531 19.15625 60.210938 C 16.664062 58.957031 14.410156 57.261719 12.523438 55.203125 C 10.78125 53.296875 9.398438 51.09375 8.460938 48.683594 C 7.558594 46.375 7.097656 43.921875 7.097656 41.4375 C 7.09375 38.871094 7.601562 36.335938 8.597656 33.972656 C 9.636719 31.515625 11.179688 29.304688 13.125 27.472656 C 14.15625 26.5 15.292969 25.632812 16.5 24.886719 C 17.796875 24.09375 19.164062 23.425781 20.59375 22.890625 C 22.140625 22.316406 23.738281 21.878906 25.363281 21.585938 C 26.609375 21.355469 27.859375 21.203125 29.125 21.117188 C 29.386719 20.03125 29.625 18.949219 29.820312 17.851562 C 29.953125 17.113281 30.058594 16.367188 30.136719 15.625 C 30.203125 14.933594 30.242188 14.234375 30.242188 13.542969 C 30.253906 12.679688 30.175781 11.820312 30.011719 10.972656 C 29.867188 10.238281 29.632812 9.527344 29.300781 8.859375 C 28.980469 8.230469 28.5625 7.652344 28.058594 7.148438 C 27.476562 6.570312 26.808594 6.085938 26.070312 5.710938 C 25.683594 5.503906 25.273438 5.347656 24.84375 5.246094 C 24.394531 5.144531 23.941406 5.09375 23.484375 5.097656 C 22.519531 5.105469 21.570312 5.273438 20.667969 5.589844 C 19.546875 5.972656 18.480469 6.480469 17.488281 7.105469 C 16.332031 7.828125 15.238281 8.648438 14.230469 9.566406 C 13.121094 10.566406 12.085938 11.65625 11.140625 12.816406 C 9.125 15.28125 7.492188 18.027344 6.300781 20.984375 C 5.703125 22.457031 5.238281 23.980469 4.90625 25.53125 C 4.589844 27.050781 4.421875 28.597656 4.414062 30.152344 C 4.414062 31.132812 4.484375 32.109375 4.632812 33.070312 Z M 4.632812 33.070312 "/>
</g>
</svg>
