<svg xmlns="http://www.w3.org/2000/svg" xmlns:xlink="http://www.w3.org/1999/xlink" width="64" height="64" viewBox="0 0 64 64" version="1.1">
<defs>
<linearGradient id="linear0" gradientUnits="userSpaceOnUse" x1="0" y1="0" x2="0" y2="1" gradientTransform="matrix(43.496094,0,0,56,10.253906,4)">
<stop offset="0" style="stop-color:#ff6666;stop-opacity:1;"/>
<stop offset="1" style="stop-color:#d90000;stop-opacity:1;"/>
</linearGradient>
</defs>
<g id="surface1">
<path style=" stroke:none;fill-rule:nonzero;fill:url(#linear0);" d="M 34.804688 9.3125 C 33.695312 11.648438 31.617188 12.570312 29.007812 12.46875 C 25.292969 12.320312 21.730469 14.433594 19.515625 17.445312 C 18.109375 19.359375 16.332031 21.789062 13.703125 21.378906 C 11.460938 21.027344 8.875 22.636719 11.109375 24.777344 C 12.667969 26.277344 15.035156 26.152344 16.460938 27.679688 C 19.15625 30.574219 23.164062 31.683594 27 32.039062 C 27.597656 36.011719 29.792969 40.886719 34.035156 41.464844 C 37.875 41.984375 34.679688 37.5625 35.019531 35.429688 C 35.546875 32.160156 38.117188 34.667969 39.65625 35.355469 C 41.644531 36.242188 43.710938 37.546875 44.667969 39.511719 C 46.355469 42.984375 41.175781 41.117188 39.769531 42.546875 C 38.054688 44.289062 39.851562 47.316406 41.675781 48.453125 C 43.679688 49.695312 45.351562 51.273438 46.035156 53.652344 C 46.636719 55.730469 47.035156 61.367188 49.863281 59.695312 C 52.558594 58.101562 52.867188 54.179688 53.210938 51.164062 C 53.550781 48.214844 53.304688 45.167969 52.054688 42.421875 C 55.300781 35.578125 53.667969 27.160156 48.984375 21.386719 C 47.363281 19.386719 45.484375 17.570312 43.285156 16.230469 C 44.785156 14.496094 45.136719 11.9375 44.144531 9.976562 C 42.96875 7.640625 47.667969 4.347656 43.789062 4.023438 C 40.210938 3.722656 36.988281 6.226562 34.972656 9.109375 C 33.023438 11.882812 34.910156 9.179688 34.882812 9.214844 C 34.855469 9.246094 35.746094 7.328125 34.804688 9.3125 Z M 34.804688 9.3125 "/>
</g>
</svg>
