<svg xmlns="http://www.w3.org/2000/svg" xmlns:xlink="http://www.w3.org/1999/xlink" width="64" height="64" viewBox="0 0 64 64" version="1.1">
<defs>
<linearGradient id="linear0" gradientUnits="userSpaceOnUse" x1="0" y1="0" x2="0" y2="1" gradientTransform="matrix(29.867188,0,0,64,16,0)">
<stop offset="0" style="stop-color:#ff6666;stop-opacity:1;"/>
<stop offset="1" style="stop-color:#d90000;stop-opacity:1;"/>
</linearGradient>
</defs>
<g id="surface1">
<path style=" stroke:none;fill-rule:nonzero;fill:url(#linear0);" d="M 27.757812 0 C 25.972656 0 24.53125 1.703125 24.53125 3.816406 L 24.53125 8.984375 C 24.53125 9.179688 24.554688 9.367188 24.578125 9.554688 C 19.527344 11.207031 16.019531 14.800781 16.003906 19.199219 L 16 19.199219 L 16 60.953125 C 16 62.640625 17.332031 64 18.988281 64 L 42.878906 64 C 44.53125 64 45.867188 62.640625 45.867188 60.953125 L 45.867188 19.199219 L 45.863281 19.199219 C 45.847656 14.800781 42.339844 11.207031 37.285156 9.554688 C 37.308594 9.367188 37.332031 9.179688 37.332031 8.984375 L 37.332031 3.816406 C 37.332031 1.703125 35.894531 0 34.113281 0 Z M 30.933594 29.867188 C 31.785156 29.867188 32.597656 30.371094 33.195312 31.273438 C 33.796875 32.171875 34.132812 33.390625 34.132812 34.667969 C 34.132812 34.808594 34.128906 34.949219 34.121094 35.085938 L 38.992188 30.113281 L 40.125 31.21875 L 33.058594 38.429688 L 39.46875 38.429688 L 39.46875 40 L 34.277344 40 C 34.734375 40.765625 35.035156 41.671875 35.148438 42.636719 L 40.125 47.710938 L 38.992188 48.820312 L 35.066406 44.820312 C 34.597656 47.3125 32.890625 49.0625 30.933594 49.066406 C 28.976562 49.0625 27.273438 47.3125 26.796875 44.820312 L 22.875 48.820312 L 21.742188 47.710938 L 26.71875 42.636719 C 26.828125 41.671875 27.128906 40.765625 27.589844 40 L 22.398438 40 L 22.398438 38.429688 L 28.808594 38.429688 L 21.742188 31.21875 L 22.875 30.113281 L 27.746094 35.085938 C 27.738281 34.949219 27.734375 34.808594 27.730469 34.667969 C 27.730469 32.015625 29.167969 29.867188 30.933594 29.867188 Z M 30.933594 29.867188 "/>
</g>
</svg>
