<svg xmlns="http://www.w3.org/2000/svg" xmlns:xlink="http://www.w3.org/1999/xlink" width="64" height="64" viewBox="0 0 64 64" version="1.1">
<defs> <linearGradient id="linear0" gradientUnits="userSpaceOnUse" x1="0" y1="0" x2="0" y2="1" gradientTransform="matrix(55.992188,0,0,56,4.003906,4)"> <stop offset="0" style="stop-color:#ff6666;stop-opacity:1;"/> <stop offset="1" style="stop-color:#d90000;stop-opacity:1;"/> </linearGradient> </defs>
<g id="surface1">
<path style=" stroke:none;fill-rule:nonzero;fill:url(#linear0);fill-opacity:1;" d="M 3.394531 -0.703125 C 3.054688 -0.703125 2.742188 -0.402344 2.742188 -0.0507812 L 2.742188 4.472656 L -1.8125 4.472656 C -2.171875 4.472656 -2.460938 4.761719 -2.460938 5.125 L -2.460938 11.585938 C -2.460938 11.949219 -2.171875 12.238281 -1.8125 12.238281 L 68.476562 12.238281 C 68.839844 12.238281 69.128906 11.949219 69.128906 11.585938 L 69.128906 5.125 C 69.128906 4.761719 68.839844 4.472656 68.476562 4.472656 L 27.472656 4.472656 L 27.472656 -0.0507812 C 27.480469 -0.40625 27.15625 -0.703125 26.824219 -0.703125 Z M 3.394531 -0.703125 "/>
</g>
</svg>
