<svg xmlns="http://www.w3.org/2000/svg" xmlns:xlink="http://www.w3.org/1999/xlink" width="64" height="64" viewBox="0 0 64 64" version="1.1">
<defs>
<linearGradient id="linear0" gradientUnits="userSpaceOnUse" x1="0" y1="0" x2="0" y2="1" gradientTransform="matrix(61.042969,0,0,64,1.476562,0)">
<stop offset="0" style="stop-color:#ff6666;stop-opacity:1;"/>
<stop offset="1" style="stop-color:#d90000;stop-opacity:1;"/>
</linearGradient>
</defs>
<g id="surface1">
<path style=" stroke:none;fill-rule:evenodd;fill:url(#linear0);" d="M 37.359375 64 C 42.527344 63.847656 47.300781 60.535156 49.042969 55.351562 C 51.273438 48.710938 47.695312 41.511719 41.058594 39.28125 C 40.289062 39.019531 39.511719 38.835938 38.738281 38.730469 C 38.34375 38.699219 37.960938 38.609375 37.570312 38.503906 C 35.996094 37.976562 34.855469 36.726562 34.386719 35.253906 C 33.90625 34.152344 33.8125 32.882812 34.226562 31.652344 C 34.433594 31.027344 34.746094 30.46875 35.148438 30 C 35.179688 29.964844 35.21875 29.921875 35.25 29.878906 C 35.285156 29.847656 35.324219 29.800781 35.363281 29.773438 C 38.128906 27.253906 40.035156 23.816406 40.585938 19.9375 C 40.628906 19.710938 40.695312 19.492188 40.765625 19.269531 C 41.632812 16.644531 44.46875 15.222656 47.09375 16.089844 C 47.546875 16.242188 47.953125 16.46875 48.328125 16.707031 L 48.34375 16.707031 C 49.011719 17.152344 49.742188 17.515625 50.535156 17.78125 C 55.3125 19.359375 60.480469 16.765625 62.058594 11.988281 C 63.636719 7.207031 61.042969 2.042969 56.265625 0.464844 C 51.800781 -1.011719 47 1.144531 45.097656 5.332031 C 44.121094 7.765625 41.390625 9.058594 38.867188 8.21875 C 37.957031 7.917969 37.203125 7.390625 36.628906 6.710938 C 33.609375 3.292969 29.203125 1.144531 24.292969 1.144531 C 15.210938 1.144531 7.851562 8.519531 7.851562 17.601562 C 7.851562 21 8.894531 24.148438 10.660156 26.769531 C 11.195312 27.699219 11.4375 28.789062 11.277344 29.933594 C 11.171875 30.699219 10.898438 31.40625 10.5 32.011719 L 9.476562 33.394531 C 8.742188 34.28125 7.71875 34.90625 6.570312 35.128906 L 6.554688 35.144531 C 3.996094 35.671875 1.921875 37.769531 1.539062 40.5 C 1.054688 43.972656 3.476562 47.175781 6.945312 47.660156 C 10.414062 48.140625 13.632812 45.726562 14.117188 42.253906 C 14.214844 41.542969 14.199219 40.828125 14.070312 40.160156 C 14.011719 39.726562 14.003906 39.289062 14.070312 38.828125 C 14.179688 38.039062 14.472656 37.304688 14.898438 36.6875 L 15.886719 35.339844 C 16.957031 34.058594 18.636719 33.339844 20.414062 33.589844 C 20.5 33.597656 20.589844 33.621094 20.675781 33.621094 C 21.648438 33.847656 22.648438 33.960938 23.679688 34.011719 C 23.742188 34.011719 23.808594 34.019531 23.875 34.027344 C 23.941406 34.027344 24.003906 34.023438 24.070312 34.027344 C 24.460938 34.058594 24.851562 34.132812 25.242188 34.253906 C 26.808594 34.777344 27.933594 36 28.40625 37.464844 C 28.894531 38.570312 29 39.851562 28.582031 41.085938 C 28.402344 41.625 28.117188 42.132812 27.789062 42.558594 C 26.5625 43.855469 25.601562 45.433594 24.996094 47.234375 C 22.765625 53.871094 26.34375 61.070312 32.980469 63.300781 C 34.433594 63.789062 35.914062 63.988281 37.363281 63.953125 Z M 36.886719 59.863281 C 36.046875 59.84375 35.207031 59.710938 34.371094 59.421875 C 29.910156 57.925781 27.5 53.089844 29 48.628906 C 30.496094 44.171875 35.332031 41.761719 39.792969 43.257812 C 44.253906 44.757812 46.660156 49.589844 45.164062 54.050781 C 43.945312 57.675781 40.519531 59.941406 36.886719 59.863281 Z M 8.03125 45.09375 C 7.785156 45.109375 7.554688 45.09375 7.300781 45.0625 C 5.285156 44.796875 3.871094 42.921875 4.152344 40.90625 C 4.433594 38.894531 6.292969 37.492188 8.308594 37.773438 C 10.320312 38.035156 11.738281 39.910156 11.457031 41.925781 C 11.210938 43.691406 9.742188 44.980469 8.03125 45.089844 Z M 24.292969 29.238281 C 17.875 29.238281 12.671875 24.039062 12.671875 17.617188 C 12.671875 11.199219 17.875 5.980469 24.292969 5.980469 C 30.714844 5.980469 35.929688 11.199219 35.929688 17.617188 C 35.929688 24.039062 30.714844 29.238281 24.292969 29.238281 Z M 53.621094 14.746094 C 53.429688 14.753906 53.246094 14.742188 53.050781 14.730469 C 49.957031 14.539062 47.582031 11.902344 47.761719 8.804688 C 47.9375 5.710938 50.589844 3.351562 53.683594 3.53125 C 56.777344 3.71875 59.152344 6.359375 58.976562 9.453125 C 58.808594 12.359375 56.460938 14.621094 53.617188 14.746094 Z M 53.621094 14.746094 "/>
</g>
</svg>
