<svg xmlns="http://www.w3.org/2000/svg" xmlns:xlink="http://www.w3.org/1999/xlink" width="64" height="64" viewBox="0 0 64 64" version="1.1">
<defs> <linearGradient id="linear0" gradientUnits="userSpaceOnUse" x1="0" y1="0" x2="0" y2="1" gradientTransform="matrix(55.992188,0,0,56,4.003906,4)"> <stop offset="0" style="stop-color:#ff6666;stop-opacity:1;"/> <stop offset="1" style="stop-color:#d90000;stop-opacity:1;"/> </linearGradient> </defs>
<g id="surface1">
<path style=" stroke:none;fill-rule:nonzero;fill:url(#linear0);fill-opacity:1;" d="M 25.148438 40.230469 C 22.925781 40.085938 21.113281 39.457031 19.640625 38.320312 C 18.996094 37.816406 18.277344 37.007812 17.859375 36.300781 C 17.761719 36.132812 17.632812 35.972656 17.609375 35.945312 L 17.609375 39.894531 L 11.34375 39.894531 L 11.332031 35.339844 C 11.316406 30.617188 11.3125 30.390625 11.167969 29.820312 C 10.914062 28.785156 9.988281 28.382812 9.015625 28.382812 C 7.878906 28.355469 7.027344 28.8125 6.527344 29.867188 C 6.320312 30.429688 6.332031 30.121094 6.320312 35.214844 L 6.308594 39.894531 L 0.015625 39.894531 C -0.0742188 35.601562 0.113281 31.300781 -0.0625 27.011719 C -0.132812 26.3125 -0.273438 25.742188 -0.574219 24.921875 L -0.738281 24.46875 L 5.382812 24.492188 L 5.539062 24.816406 C 5.632812 25.003906 5.71875 25.246094 5.75 25.410156 C 5.785156 25.5625 5.820312 25.6875 5.835938 25.6875 C 5.847656 25.6875 6.058594 25.554688 6.300781 25.390625 C 7.25 24.757812 8.203125 24.402344 9.429688 24.222656 C 10.078125 24.125 11.703125 24.136719 12.371094 24.246094 C 13.894531 24.476562 15.105469 24.996094 16.042969 25.8125 C 16.734375 26.410156 17.226562 27.339844 17.445312 28.421875 L 17.519531 28.808594 L 17.683594 28.507812 C 17.996094 27.914062 18.363281 27.410156 18.871094 26.890625 C 20.378906 25.335938 22.441406 24.425781 25.121094 24.136719 C 25.757812 24.070312 27.382812 24.082031 28.035156 24.152344 C 29.390625 24.3125 30.503906 24.632812 31.515625 25.15625 C 32.324219 25.574219 32.917969 26.015625 33.550781 26.652344 C 34.132812 27.253906 34.65625 28 34.992188 28.71875 L 35.109375 28.964844 L 35.109375 28.242188 C 35.109375 26.734375 35.03125 25.894531 34.800781 25.019531 L 34.65625 24.453125 L 40.847656 24.503906 L 40.925781 24.757812 C 41.050781 25.167969 41.140625 25.667969 41.171875 26.109375 L 41.195312 26.511719 L 41.414062 26.210938 C 42.160156 25.21875 43.054688 24.601562 44.191406 24.3125 C 44.742188 24.175781 45.238281 24.132812 45.992188 24.152344 C 46.617188 24.171875 47.027344 24.226562 47.757812 24.390625 L 47.945312 24.4375 C 47.945312 25.046875 47.945312 25.664062 47.945312 26.269531 C 47.957031 26.269531 48.117188 26.183594 48.257812 26.082031 C 50.609375 24.402344 53.972656 23.71875 57.164062 24.261719 C 58.921875 24.566406 60.574219 25.246094 61.832031 26.183594 C 64.007812 27.8125 65.078125 30.273438 64.8125 33.015625 C 64.625 34.898438 63.746094 36.574219 62.285156 37.824219 C 60.355469 39.46875 57.59375 40.339844 54.578125 40.253906 C 52.609375 40.203125 50.945312 39.796875 49.410156 38.992188 C 48.15625 38.347656 47.09375 37.40625 46.289062 36.246094 C 44.886719 34.136719 44.699219 31.296875 45.804688 28.933594 C 45.894531 28.746094 45.964844 28.585938 45.964844 28.582031 C 45.339844 28.371094 44.667969 28.378906 44.027344 28.515625 C 43.636719 28.632812 43.386719 28.757812 43.042969 29.011719 C 42.222656 29.628906 41.746094 30.527344 41.539062 31.84375 C 41.4375 32.53125 41.421875 33.203125 41.421875 36.539062 L 41.421875 39.894531 L 35.128906 39.894531 L 35.128906 36.144531 L 34.945312 36.449219 C 34.667969 36.921875 34.34375 37.332031 33.925781 37.75 C 32.4375 39.226562 30.3125 40.046875 27.484375 40.230469 C 26.894531 40.273438 25.742188 40.273438 25.148438 40.230469 Z M 29.777344 35.0625 L 35.144531 35.160156 L 35.144531 33.40625 L 22.976562 33.40625 L 23.003906 33.636719 C 23.015625 33.769531 23.058594 34.011719 23.105469 34.179688 C 23.40625 35.355469 24.296875 36.085938 25.722656 36.308594 C 27.332031 36.460938 28.671875 36.386719 29.777344 35.0625 M 56.644531 35.960938 C 57.683594 35.324219 58.316406 34.113281 58.433594 32.546875 C 58.519531 31.414062 58.230469 30.210938 57.667969 29.378906 C 57.488281 29.109375 57.089844 28.699219 56.851562 28.535156 C 56.015625 27.960938 54.988281 27.890625 54.015625 28.101562 C 52.515625 28.558594 51.601562 29.960938 51.523438 31.917969 C 51.46875 33.347656 51.863281 34.566406 52.660156 35.390625 C 53.160156 35.90625 53.609375 36.15625 54.304688 36.308594 C 55.105469 36.433594 55.925781 36.335938 56.644531 35.960938 M 29.273438 30.007812 C 29.332031 29.949219 29.132812 29.273438 28.972656 28.972656 C 28.808594 28.667969 28.40625 28.300781 28.007812 28.113281 C 26.859375 27.558594 25.132812 27.664062 24.179688 28.34375 C 23.683594 28.695312 23.304688 29.242188 23.101562 29.898438 L 23.054688 30.050781 L 26.148438 30.042969 C 27.855469 30.035156 29.261719 30.019531 29.273438 30.007812 Z M 29.273438 30.007812 "/>
</g>
</svg>
