<svg xmlns="http://www.w3.org/2000/svg" xmlns:xlink="http://www.w3.org/1999/xlink" width="64" height="64" viewBox="0 0 64 64" version="1.1">
<defs>
<linearGradient id="linear0" gradientUnits="userSpaceOnUse" x1="0" y1="0" x2="0" y2="1" gradientTransform="matrix(64,0,0,59.734375,0,2.132812)">
<stop offset="0" style="stop-color:#ff6666;stop-opacity:1;"/>
<stop offset="1" style="stop-color:#d90000;stop-opacity:1;"/>
</linearGradient>
</defs>
<g id="surface1">
<path style=" stroke:none;fill-rule:evenodd;fill:url(#linear0);" d="M 6.238281 51.78125 C 6.539062 50.515625 7.203125 49.421875 8.46875 49.066406 C 11.699219 48.160156 9.058594 43.570312 9.183594 43.449219 C 9.308594 43.324219 10.703125 45.171875 11.3125 45.703125 C 12.863281 47.0625 13.789062 46.027344 15.414062 45.539062 C 18.382812 44.652344 19.636719 41.621094 17.234375 36.078125 C 16.453125 34.269531 15.578125 31.640625 15.308594 30.703125 C 14.453125 27.777344 14.820312 26.074219 15.871094 28.089844 C 16.929688 30.113281 19.816406 33.089844 22.207031 32.738281 C 24.933594 32.339844 26.78125 29.089844 27.203125 25.722656 C 27.214844 24.292969 27.234375 22.789062 26.34375 20.855469 C 25.019531 17.992188 24.914062 16.488281 25.902344 14.449219 L 26.59375 13.023438 L 27.023438 14.742188 C 27.570312 16.925781 29.117188 17.957031 31.515625 18.851562 C 32.664062 19.285156 33.960938 20.078125 34.78125 20.863281 C 36.152344 22.1875 36.457031 24.699219 35.53125 27.234375 C 35.246094 28.054688 34.835938 29.097656 34.253906 30.519531 C 31.816406 36.4375 31.820312 38.480469 34.257812 39.90625 C 35.863281 40.851562 39.410156 40.78125 41.734375 39.777344 C 44.566406 38.542969 45.574219 36.214844 45.578125 32.355469 C 45.578125 30.386719 45.59375 30.355469 46.183594 30.886719 C 46.515625 31.191406 47.324219 32.519531 47.984375 33.84375 C 49.449219 36.792969 49.59375 39.085938 48.464844 41.566406 C 47.628906 43.421875 48.71875 44.265625 49.914062 44.265625 C 50.527344 44.265625 51.214844 43.816406 52.320312 42.695312 C 53.171875 41.832031 53.996094 41.125 54.15625 41.125 C 54.449219 41.125 54.28125 44.125 53.847656 46.621094 C 53.808594 46.773438 56.632812 49.160156 58 50.8125 C 58.03125 50.679688 58.054688 50.546875 58.085938 50.410156 C 58.203125 49.746094 58.304688 49.074219 58.375 48.402344 C 58.464844 47.59375 58.535156 46.777344 58.578125 45.957031 C 58.636719 44.996094 58.671875 44.035156 58.691406 43.070312 C 58.71875 41.96875 58.726562 40.859375 58.726562 39.757812 C 58.726562 39.757812 58.726562 39.753906 58.726562 39.753906 L 58.726562 24.246094 C 58.726562 24.246094 58.726562 24.242188 58.726562 24.242188 C 58.726562 23.140625 58.71875 22.03125 58.691406 20.929688 C 58.671875 19.964844 58.636719 19.003906 58.578125 18.042969 C 58.535156 17.222656 58.464844 16.40625 58.375 15.597656 C 58.304688 14.925781 58.203125 14.253906 58.085938 13.589844 C 57.984375 13.0625 57.859375 12.542969 57.710938 12.03125 C 57.597656 11.648438 57.460938 11.273438 57.296875 10.90625 C 57.179688 10.648438 57.039062 10.394531 56.878906 10.164062 C 56.761719 9.984375 56.621094 9.816406 56.46875 9.664062 C 56.316406 9.507812 56.148438 9.371094 55.96875 9.253906 C 55.730469 9.097656 55.484375 8.953125 55.222656 8.835938 C 54.855469 8.671875 54.480469 8.535156 54.097656 8.425781 C 53.578125 8.273438 53.058594 8.148438 52.535156 8.050781 C 51.867188 7.929688 51.195312 7.828125 50.523438 7.757812 C 49.707031 7.667969 48.890625 7.597656 48.070312 7.550781 C 47.113281 7.496094 46.148438 7.460938 45.1875 7.441406 C 44.078125 7.414062 42.96875 7.402344 41.863281 7.402344 C 41.863281 7.402344 41.859375 7.402344 41.859375 7.402344 L 22.140625 7.402344 C 22.140625 7.402344 22.136719 7.402344 22.136719 7.402344 C 21.03125 7.402344 19.921875 7.414062 18.8125 7.441406 C 17.851562 7.460938 16.886719 7.496094 15.929688 7.550781 C 15.109375 7.597656 14.292969 7.667969 13.476562 7.757812 C 12.804688 7.828125 12.132812 7.929688 11.464844 8.050781 C 10.941406 8.148438 10.421875 8.273438 9.902344 8.425781 C 9.519531 8.535156 9.144531 8.671875 8.777344 8.835938 C 8.515625 8.953125 8.269531 9.097656 8.03125 9.253906 C 7.851562 9.371094 7.683594 9.507812 7.53125 9.664062 C 7.378906 9.816406 7.238281 9.984375 7.121094 10.164062 C 6.960938 10.394531 6.820312 10.648438 6.703125 10.90625 C 6.539062 11.273438 6.402344 11.648438 6.289062 12.03125 C 6.140625 12.542969 6.015625 13.0625 5.914062 13.589844 C 5.796875 14.253906 5.695312 14.925781 5.625 15.597656 C 5.535156 16.40625 5.464844 17.222656 5.421875 18.042969 C 5.363281 19.003906 5.328125 19.964844 5.308594 20.929688 C 5.28125 22.03125 5.273438 23.140625 5.273438 24.242188 C 5.273438 24.242188 5.273438 24.246094 5.273438 24.246094 L 5.273438 39.753906 C 5.273438 39.753906 5.273438 39.757812 5.273438 39.757812 C 5.273438 40.859375 5.28125 41.96875 5.308594 43.070312 C 5.328125 44.035156 5.363281 44.996094 5.421875 45.957031 C 5.464844 46.777344 5.535156 47.59375 5.625 48.402344 C 5.695312 49.074219 5.796875 49.746094 5.914062 50.410156 C 6.003906 50.871094 6.109375 51.328125 6.238281 51.78125 Z M 41.859375 2.132812 C 61.230469 2.132812 64 4.894531 64 24.246094 L 64 39.753906 C 64 59.105469 61.230469 61.867188 41.859375 61.867188 L 22.140625 61.867188 C 2.769531 61.867188 0 59.105469 0 39.753906 L 0 24.246094 C 0 4.894531 2.769531 2.132812 22.140625 2.132812 Z M 41.859375 2.132812 "/>
</g>
</svg>
