<svg xmlns="http://www.w3.org/2000/svg" xmlns:xlink="http://www.w3.org/1999/xlink" width="64" height="64" viewBox="0 0 64 64" version="1.1">
<defs>
<linearGradient id="linear0" gradientUnits="userSpaceOnUse" x1="0" y1="0" x2="0" y2="1" gradientTransform="matrix(64,0,0,53.726562,0,5.136719)">
<stop offset="0" style="stop-color:#ff6666;stop-opacity:1;"/>
<stop offset="1" style="stop-color:#d90000;stop-opacity:1;"/>
</linearGradient>
</defs>
<g id="surface1">
<path style=" stroke:none;fill-rule:evenodd;fill:url(#linear0);" d="M 29.671875 5.136719 C 14.546875 5.136719 0 17.164062 0 32 C 0 46.835938 14.546875 58.863281 29.671875 58.863281 C 33.617188 58.855469 37.507812 58.011719 41.089844 56.386719 L 41.089844 42.945312 C 38.085938 45.960938 33.972656 47.664062 29.671875 47.671875 C 20.847656 47.671875 11.410156 40.65625 11.410156 32 C 11.410156 23.34375 20.847656 16.328125 29.671875 16.328125 C 33.96875 16.332031 38.085938 18.027344 41.089844 21.039062 L 41.089844 7.617188 C 37.507812 5.992188 33.617188 5.148438 29.671875 5.136719 Z M 41.089844 21.039062 L 64 21.039062 L 54.835938 30.519531 L 41.089844 30.519531 Z M 41.089844 43.058594 L 64 43.058594 L 54.835938 33.578125 L 41.089844 33.578125 Z M 41.089844 43.058594 "/>
</g>
</svg>
