<svg xmlns="http://www.w3.org/2000/svg" xmlns:xlink="http://www.w3.org/1999/xlink" width="64" height="64" viewBox="0 0 64 64" version="1.1">
<defs>
<linearGradient id="linear0" gradientUnits="userSpaceOnUse" x1="0" y1="0" x2="0" y2="1" gradientTransform="matrix(64,0,0,64,0,0)">
<stop offset="0" style="stop-color:#ff6666;stop-opacity:1;"/>
<stop offset="1" style="stop-color:#d90000;stop-opacity:1;"/>
</linearGradient>
</defs>
<g id="surface1">
<path style=" stroke:none;fill-rule:nonzero;fill:url(#linear0);" d="M 31.304688 0 C 29.960938 -0.00390625 28.613281 0.246094 27.335938 0.746094 L 2.03125 10.621094 C 0.796875 11.105469 0.0742188 12.316406 0.03125 13.492188 C 0.0273438 13.640625 0.0625 13.785156 0.078125 13.9375 L 0 13.9375 L 0.0546875 46.253906 C 0.0585938 48.484375 1.332031 50.507812 3.320312 51.457031 L 27.648438 63.027344 C 30.375 64.324219 33.53125 64.320312 36.257812 63.027344 L 60.578125 51.496094 C 62.664062 50.503906 64 48.378906 64 46.039062 L 63.976562 14.023438 L 63.90625 14.023438 C 63.910156 13.945312 63.96875 13.871094 63.96875 13.792969 C 63.949219 12.855469 63.355469 11.871094 62.382812 11.488281 L 35.257812 0.761719 C 33.984375 0.257812 32.648438 0.00390625 31.304688 0 Z M 31.296875 2.972656 C 32.285156 2.972656 33.273438 3.15625 34.210938 3.527344 L 60.367188 13.871094 L 34.234375 25.644531 C 32.152344 26.582031 29.773438 26.550781 27.710938 25.566406 L 3.0625 13.800781 C 2.921875 13.734375 2.933594 13.703125 2.9375 13.601562 C 2.941406 13.503906 2.925781 13.453125 3.070312 13.398438 L 28.375 3.519531 C 29.3125 3.152344 30.308594 2.972656 31.296875 2.972656 Z M 61.054688 16.8125 L 61.078125 46.039062 C 61.078125 47.234375 60.402344 48.3125 59.335938 48.816406 L 35.015625 60.339844 C 34.40625 60.628906 33.765625 60.796875 33.117188 60.90625 L 32.953125 29.101562 C 33.792969 28.949219 34.621094 28.722656 35.414062 28.363281 Z M 2.929688 17.019531 L 26.476562 28.261719 C 27.605469 28.800781 28.816406 29.070312 30.03125 29.1875 L 30.203125 60.800781 C 29.753906 60.6875 29.308594 60.542969 28.882812 60.339844 L 4.5625 48.777344 C 3.59375 48.316406 2.976562 47.332031 2.976562 46.246094 Z M 2.929688 17.019531 "/>
</g>
</svg>
