<svg xmlns="http://www.w3.org/2000/svg" xmlns:xlink="http://www.w3.org/1999/xlink" width="64" height="64" viewBox="0 0 64 64" version="1.1">
<defs>
<linearGradient id="linear0" gradientUnits="userSpaceOnUse" x1="0" y1="0" x2="0" y2="1" gradientTransform="matrix(57.1875,0,0,64,3.40625,0)">
<stop offset="0" style="stop-color:#ff6666;stop-opacity:1;"/>
<stop offset="1" style="stop-color:#d90000;stop-opacity:1;"/>
</linearGradient>
</defs>
<g id="surface1">
<path style=" stroke:none;fill-rule:evenodd;fill:url(#linear0);" d="M 31.121094 15.289062 C 30.949219 14.226562 30.859375 13.167969 30.84375 12.109375 C 30.859375 10.589844 31.03125 9.070312 31.359375 7.578125 C 31.691406 6.402344 32.21875 5.289062 32.894531 4.273438 C 33.539062 3.3125 34.339844 2.496094 35.261719 1.820312 C 36.992188 0.605469 39.054688 -0.0273438 41.160156 0 C 42.867188 0.0273438 44.554688 0.386719 46.132812 1.046875 C 47.679688 1.691406 49.128906 2.550781 50.414062 3.613281 C 51.304688 4.328125 51.863281 5.371094 51.980469 6.503906 C 52.078125 7.652344 51.734375 8.785156 51.019531 9.65625 C 50.300781 10.542969 49.257812 11.105469 48.125 11.21875 C 46.980469 11.320312 45.847656 10.976562 44.972656 10.261719 C 44.328125 9.726562 43.597656 9.300781 42.824219 8.984375 C 42.253906 8.738281 41.636719 8.613281 41.015625 8.597656 C 40.746094 8.597656 40.488281 8.667969 40.261719 8.8125 C 40.171875 8.882812 40.101562 8.96875 40.027344 9.054688 C 39.886719 9.285156 39.773438 9.511719 39.683594 9.757812 C 39.527344 10.53125 39.457031 11.304688 39.445312 12.09375 C 39.457031 12.824219 39.527344 13.554688 39.671875 14.257812 C 41.230469 14.371094 42.78125 14.617188 44.3125 14.960938 C 46.121094 15.371094 47.851562 16.019531 49.484375 16.878906 C 51.449219 17.90625 53.222656 19.242188 54.773438 20.820312 C 56.574219 22.667969 57.996094 24.84375 58.96875 27.222656 C 60.070312 30.03125 60.632812 33.011719 60.589844 36.019531 C 60.589844 37.667969 60.445312 39.300781 60.1875 40.921875 C 59.65625 44.445312 58.554688 47.839844 56.90625 50.992188 C 55.515625 53.601562 53.683594 55.933594 51.476562 57.878906 C 48.097656 60.875 43.910156 62.824219 39.445312 63.484375 C 37.179688 63.8125 34.898438 63.984375 32.625 64 C 29.914062 64.015625 27.234375 63.738281 24.601562 63.15625 C 21.460938 62.480469 18.46875 61.246094 15.761719 59.515625 C 12.621094 57.480469 10 54.761719 8.078125 51.546875 C 6.976562 49.714844 6.089844 47.753906 5.414062 45.71875 C 4.65625 43.410156 4.113281 41.046875 3.796875 38.640625 C 3.539062 36.847656 3.40625 35.03125 3.40625 33.210938 C 3.394531 30.558594 3.710938 27.894531 4.367188 25.316406 C 5.070312 22.652344 6.175781 20.117188 7.664062 17.78125 C 9.269531 15.289062 11.261719 13.050781 13.566406 11.175781 C 16.1875 9.039062 19.066406 7.265625 22.148438 5.875 C 23.179688 5.414062 24.371094 5.371094 25.433594 5.777344 C 26.503906 6.191406 27.363281 6.992188 27.835938 8.039062 C 28.296875 9.070312 28.339844 10.261719 27.9375 11.320312 C 27.523438 12.390625 26.71875 13.253906 25.671875 13.726562 C 23.28125 14.800781 21.03125 16.175781 18.996094 17.835938 C 17.40625 19.140625 16.015625 20.6875 14.898438 22.425781 C 13.910156 23.984375 13.167969 25.6875 12.691406 27.480469 C 12.21875 29.34375 11.992188 31.246094 12.007812 33.183594 C 12.007812 34.617188 12.109375 36.058594 12.308594 37.480469 C 12.550781 39.371094 12.980469 41.21875 13.566406 43.023438 C 14.054688 44.457031 14.683594 45.847656 15.460938 47.136719 C 16.691406 49.214844 18.378906 50.976562 20.398438 52.296875 C 22.246094 53.457031 24.300781 54.300781 26.433594 54.761719 C 28.441406 55.203125 30.503906 55.414062 32.5625 55.402344 C 34.441406 55.402344 36.320312 55.242188 38.179688 54.972656 C 41.003906 54.558594 43.640625 53.339844 45.777344 51.449219 C 47.207031 50.1875 48.394531 48.667969 49.300781 46.980469 C 50.503906 44.671875 51.320312 42.179688 51.691406 39.589844 C 51.890625 38.394531 51.992188 37.179688 51.992188 35.960938 C 52.019531 34.070312 51.675781 32.191406 50.988281 30.433594 C 50.433594 29.085938 49.628906 27.851562 48.625 26.820312 C 47.707031 25.875 46.648438 25.101562 45.472656 24.484375 C 44.789062 24.128906 44.066406 23.828125 43.324219 23.585938 C 43.441406 23.882812 43.539062 24.183594 43.65625 24.484375 C 44.445312 26.664062 45.070312 28.898438 45.53125 31.160156 C 45.777344 32.378906 45.886719 33.613281 45.902344 34.859375 C 45.914062 36.335938 45.703125 37.796875 45.273438 39.199219 C 44.757812 40.777344 43.894531 42.222656 42.734375 43.429688 C 41.464844 44.699219 39.886719 45.660156 38.167969 46.203125 C 36.289062 46.808594 34.328125 47.09375 32.363281 47.050781 L 31.902344 47.050781 C 30.789062 47.035156 29.671875 46.835938 28.625 46.4375 C 27.5625 46.03125 26.59375 45.433594 25.742188 44.671875 C 24.972656 43.957031 24.285156 43.152344 23.695312 42.265625 C 23.109375 41.375 22.59375 40.445312 22.136719 39.488281 C 21.03125 37.164062 20.488281 34.628906 20.515625 32.078125 C 20.53125 28.222656 21.648438 24.457031 23.738281 21.21875 C 25.242188 18.855469 27.390625 16.964844 29.914062 15.777344 C 30.316406 15.605469 30.714844 15.433594 31.121094 15.289062 Z M 33.941406 23.410156 C 33.796875 23.46875 33.65625 23.523438 33.523438 23.585938 C 32.480469 24.085938 31.59375 24.886719 30.976562 25.859375 C 29.757812 27.734375 29.113281 29.914062 29.113281 32.152344 C 29.101562 33.410156 29.355469 34.65625 29.898438 35.804688 C 30.1875 36.402344 30.515625 36.992188 30.886719 37.550781 C 31.058594 37.824219 31.277344 38.066406 31.519531 38.296875 C 31.5625 38.339844 31.621094 38.367188 31.675781 38.394531 C 31.792969 38.441406 31.890625 38.457031 32.007812 38.457031 L 32.480469 38.457031 C 32.492188 38.457031 32.507812 38.457031 32.523438 38.457031 C 33.550781 38.484375 34.570312 38.339844 35.53125 38.023438 C 35.949219 37.894531 36.304688 37.679688 36.621094 37.378906 C 36.820312 37.164062 36.976562 36.890625 37.078125 36.609375 C 37.234375 36.058594 37.320312 35.503906 37.308594 34.945312 C 37.308594 34.242188 37.234375 33.539062 37.109375 32.839844 C 36.734375 31.003906 36.21875 29.199219 35.589844 27.4375 C 35.070312 26.074219 34.527344 24.726562 33.941406 23.410156 Z M 33.941406 23.410156 "/>
</g>
</svg>
