<svg xmlns="http://www.w3.org/2000/svg" xmlns:xlink="http://www.w3.org/1999/xlink" width="64" height="64" viewBox="0 0 64 64" version="1.1">
<defs>
<filter id="alpha" filterUnits="objectBoundingBox" x="0%" y="0%" width="100%" height="100%">
  <feColorMatrix type="matrix" in="SourceGraphic" values="0 0 0 0 1 0 0 0 0 1 0 0 0 0 1 0 0 0 1 0"/>
</filter>
<mask id="mask0">
  <g filter="url(#alpha)">
<rect x="0" y="0" width="64" height="64" style="fill:rgb(0%,0%,0%);fill-opacity:0.6;stroke:none;"/>
  </g>
</mask>
<linearGradient id="linear0" gradientUnits="userSpaceOnUse" x1="0" y1="0" x2="0" y2="1" gradientTransform="matrix(64,0,0,19.46875,0,22.265625)">
<stop offset="0" style="stop-color:#ff6666;stop-opacity:1;"/>
<stop offset="1" style="stop-color:#d90000;stop-opacity:1;"/>
</linearGradient>
<clipPath id="clip1">
  <rect x="0" y="0" width="64" height="64"/>
</clipPath>
<g id="surface5" clip-path="url(#clip1)">
<path style=" stroke:none;fill-rule:nonzero;fill:url(#linear0);" d="M 16.40625 22.265625 L 12.03125 22.273438 L 12.03125 38.554688 L 14.007812 40.109375 L 18.414062 39.835938 L 18.414062 38.03125 C 18.414062 38.03125 16.601562 36.03125 16.445312 35.859375 L 16.445312 32.953125 L 18.4375 32.953125 L 18.4375 31.132812 C 18.4375 31.132812 16.621094 29.316406 16.445312 29.140625 L 16.445312 25.742188 L 18.414062 25.742188 L 18.414062 24.0625 L 16.539062 22.265625 Z M 20.078125 22.265625 L 20.078125 24.59375 C 20.078125 24.59375 21.664062 25.84375 21.882812 26.015625 L 21.882812 38 L 23.875 39.59375 L 26.28125 39.53125 L 26.28125 26.015625 C 26.714844 26.011719 28.054688 26 28.054688 26 L 28.054688 24.304688 L 26.234375 22.265625 Z M 34.75 22.265625 L 30.375 22.273438 L 30.375 37.820312 L 32.382812 39.484375 L 34.789062 39.5 L 34.789062 32.945312 C 35.25 32.945312 36.78125 32.953125 36.78125 32.953125 L 36.78125 31.132812 C 36.78125 31.132812 34.964844 29.316406 34.789062 29.140625 L 34.789062 25.742188 L 36.757812 25.742188 L 36.757812 24.0625 L 34.882812 22.265625 Z M 0 22.273438 L 0 39.726562 L 2.023438 41.328125 L 4.140625 41.0625 C 4.140625 41.0625 4.148438 40.140625 4.15625 39.515625 C 4.851562 40.085938 5.796875 40.867188 5.796875 40.867188 L 9.257812 40.515625 L 9.257812 24.0625 L 7.375 22.273438 L 4.796875 22.273438 L 4.796875 22.601562 C 4.796875 22.601562 4.789062 23.183594 4.789062 23.6875 C 4.285156 23.128906 3.515625 22.273438 3.515625 22.273438 Z M 39.476562 22.273438 L 39.476562 37.921875 L 41.484375 39.679688 L 46.0625 39.90625 L 45.960938 37.882812 C 45.960938 37.882812 44.351562 36.070312 43.890625 35.554688 L 43.890625 24.054688 L 42.007812 22.273438 Z M 48.015625 22.273438 L 48.015625 38.320312 L 50.03125 40.1875 L 52.421875 40.382812 L 52.421875 24.109375 L 50.515625 22.273438 Z M 55.140625 22.273438 C 55.140625 22.273438 56.609375 29.980469 56.632812 30.09375 C 56.613281 30.207031 55.21875 38.867188 55.21875 38.867188 L 57.953125 40.953125 L 59.59375 41.140625 L 59.59375 39.679688 C 60.28125 40.214844 61.84375 41.4375 61.84375 41.4375 L 64 41.734375 C 64 41.734375 62.164062 32.199219 62.140625 32.078125 C 62.164062 31.960938 63.570312 24.234375 63.570312 24.234375 L 61.648438 22.273438 L 59.140625 22.273438 C 59.140625 22.273438 59.011719 23.078125 58.929688 23.585938 C 58.433594 23.046875 57.71875 22.273438 57.71875 22.273438 Z M 55.140625 22.273438 "/>
</g>
<linearGradient id="linear1" gradientUnits="userSpaceOnUse" x1="0" y1="0" x2="0" y2="1" gradientTransform="matrix(60.890625,0,0,16.617188,0.539063,22.734375)">
<stop offset="0" style="stop-color:#ff6666;stop-opacity:1;"/>
<stop offset="1" style="stop-color:#d90000;stop-opacity:1;"/>
</linearGradient>
</defs>
<g id="surface1">
<use xlink:href="#surface5" mask="url(#mask0)"/>
<path style=" stroke:none;fill-rule:nonzero;fill:url(#linear1);" d="M 0.539062 22.734375 L 0.539062 39.351562 C 0.539062 39.351562 1.074219 39.277344 2.210938 39.148438 L 2.09375 26.515625 L 2.210938 26.507812 L 4.132812 38.953125 C 4.132812 38.953125 4.789062 38.871094 7.023438 38.648438 L 7.023438 22.734375 L 5.3125 22.734375 L 5.367188 35.960938 L 5.25 35.976562 L 3.234375 22.742188 Z M 12.554688 22.734375 L 12.554688 38.203125 C 12.554688 38.203125 13.539062 38.136719 16.382812 37.953125 L 16.382812 36.429688 L 14.234375 36.578125 L 14.234375 31.257812 L 16.382812 31.25 L 16.382812 29.703125 L 14.226562 29.703125 L 14.226562 24.273438 L 16.390625 24.273438 L 16.390625 22.734375 Z M 20.601562 22.734375 L 20.601562 24.273438 L 22.40625 24.273438 L 22.40625 37.65625 C 22.40625 37.65625 22.796875 37.628906 24.0625 37.601562 L 24.070312 24.273438 L 25.898438 24.273438 L 25.898438 22.742188 Z M 30.898438 22.734375 L 30.898438 37.484375 L 32.578125 37.484375 L 32.578125 31.257812 L 34.726562 31.25 L 34.726562 29.703125 L 32.570312 29.703125 L 32.570312 24.273438 L 34.734375 24.273438 L 34.734375 22.734375 Z M 40.007812 22.734375 L 40.007812 37.601562 C 40.007812 37.601562 41.136719 37.636719 43.859375 37.757812 L 43.859375 36.25 C 43.859375 36.25 43.550781 36.222656 41.671875 36.15625 L 41.671875 22.734375 Z M 48.539062 22.734375 L 48.539062 38.015625 C 48.539062 38.015625 49.148438 38.046875 50.195312 38.125 L 50.195312 22.734375 Z M 55.703125 22.734375 L 57.132812 30.078125 L 55.75 38.664062 L 57.53125 38.828125 L 58.453125 31.757812 L 58.5625 31.757812 L 59.453125 39.03125 L 61.40625 39.25 L 60.007812 30.289062 L 61.429688 22.734375 L 59.5625 22.734375 L 58.625 28.671875 L 58.507812 28.671875 L 57.539062 22.734375 Z M 55.703125 22.734375 "/>
</g>
</svg>
