<svg xmlns="http://www.w3.org/2000/svg" xmlns:xlink="http://www.w3.org/1999/xlink" width="64" height="64" viewBox="0 0 64 64" version="1.1">
<defs> <linearGradient id="linear0" gradientUnits="userSpaceOnUse" x1="0" y1="0" x2="0" y2="1" gradientTransform="matrix(55.992188,0,0,56,4.003906,4)"> <stop offset="0" style="stop-color:#ff6666;stop-opacity:1;"/> <stop offset="1" style="stop-color:#d90000;stop-opacity:1;"/> </linearGradient> </defs>
<g id="surface1">
<path style=" stroke:none;fill-rule:nonzero;fill:url(#linear0);fill-opacity:1;" d="M 33.574219 5.191406 C 29.472656 5.078125 25.398438 5.910156 21.679688 7.628906 C 21.601562 7.378906 21.480469 7.011719 21.402344 6.769531 L 11.203125 6.566406 C 11.203125 6.566406 12.203125 9.363281 13.652344 13.398438 C 8.964844 18.296875 6.347656 24.796875 6.339844 31.5625 C 6.347656 36.234375 7.597656 40.820312 9.960938 44.851562 C 8.914062 47.542969 10.429688 53.652344 13.996094 54.949219 C 18.789062 56.683594 22.925781 57.566406 28.332031 57.554688 C 28.382812 57.554688 28.421875 57.554688 28.472656 57.554688 C 33.050781 58.308594 37.742188 57.84375 42.085938 56.214844 C 44.742188 55.800781 47.578125 55.347656 50.875 54.738281 C 52.714844 54.398438 54.3125 50.597656 53.597656 47.804688 C 57.257812 43.171875 59.265625 37.457031 59.285156 31.5625 C 59.292969 17.289062 47.894531 5.605469 33.574219 5.191406 Z M 30.8125 7.527344 C 28.238281 9.941406 28.625 18.898438 28.125 25.035156 C 27.882812 25.046875 27.605469 25.054688 27.332031 25.070312 C 25.640625 19.914062 24.019531 14.917969 22.578125 10.445312 C 25.167969 8.917969 27.972656 7.882812 30.8125 7.527344 Z M 14.132812 8.933594 L 19.921875 8.96875 C 23.132812 18.398438 32.152344 46.78125 33.640625 47.148438 C 35.78125 47.679688 44.242188 45.671875 49.769531 46.5 C 54.035156 47.136719 51.425781 52.847656 49.285156 53.226562 C 33.769531 55.976562 22.777344 56.355469 15.371094 53.777344 C 11.542969 52.441406 10.929688 43.949219 14.371094 45.433594 C 17.285156 46.691406 24.46875 47.757812 26.746094 47.183594 C 28.019531 46.859375 14.132812 8.933594 14.132812 8.933594 Z M 14.960938 17.039062 C 16.070312 20.160156 17.273438 23.558594 18.476562 27.0625 C 13.28125 28.949219 8.453125 32.210938 8.824219 37.085938 C 7.234375 30.628906 10.015625 22.960938 14.960938 17.039062 Z M 34.816406 25.105469 C 44.691406 24.984375 57.613281 27.320312 55.941406 35.40625 C 56.128906 38.4375 54.636719 42.132812 51.976562 45.503906 C 51.527344 45.214844 51.011719 44.984375 50.359375 44.882812 C 43.136719 43.753906 38.023438 45.984375 35.226562 45.261719 C 34.167969 44.988281 31.4375 37.394531 28.472656 28.503906 C 28.519531 27.519531 28.582031 26.519531 28.675781 25.515625 C 30.414062 25.269531 32.53125 25.132812 34.808594 25.105469 Z M 34.816406 25.105469 "/>
</g>
</svg>
