<svg xmlns="http://www.w3.org/2000/svg" xmlns:xlink="http://www.w3.org/1999/xlink" width="64" height="64" viewBox="0 0 64 64" version="1.1">
<defs>
<linearGradient id="linear0" gradientUnits="userSpaceOnUse" x1="0" y1="0" x2="0" y2="1" gradientTransform="matrix(64,0,0,25.601562,0,19.199219)">
<stop offset="0" style="stop-color:#ff6666;stop-opacity:1;"/>
<stop offset="1" style="stop-color:#d90000;stop-opacity:1;"/>
</linearGradient>
</defs>
<g id="surface1">
<path style=" stroke:none;fill-rule:evenodd;fill:url(#linear0);" d="M 32 25.601562 C 35.535156 25.601562 38.398438 28.464844 38.398438 32 C 38.398438 35.535156 35.535156 38.398438 32 38.398438 C 28.464844 38.398438 25.601562 35.535156 25.601562 32 C 25.601562 28.464844 28.464844 25.601562 32 25.601562 Z M 9.601562 28.800781 C 11.367188 28.800781 12.800781 30.234375 12.800781 32 C 12.800781 33.765625 11.367188 35.199219 9.601562 35.199219 C 7.832031 35.199219 6.398438 33.765625 6.398438 32 C 6.398438 30.234375 7.832031 28.800781 9.601562 28.800781 Z M 32 19.199219 C 24.929688 19.199219 19.199219 24.929688 19.199219 32 C 19.199219 39.070312 24.929688 44.800781 32 44.800781 C 39.070312 44.800781 44.800781 39.070312 44.800781 32 C 44.800781 24.929688 39.070312 19.199219 32 19.199219 Z M 9.601562 22.398438 C 4.296875 22.398438 0 26.699219 0 32 C 0 37.300781 4.296875 41.601562 9.601562 41.601562 C 14.902344 41.601562 19.199219 37.300781 19.199219 32 C 19.199219 26.699219 14.902344 22.398438 9.601562 22.398438 Z M 54.398438 28.800781 C 56.167969 28.800781 57.601562 30.234375 57.601562 32 C 57.601562 33.765625 56.167969 35.199219 54.398438 35.199219 C 52.632812 35.199219 51.199219 33.765625 51.199219 32 C 51.199219 30.234375 52.632812 28.800781 54.398438 28.800781 Z M 54.398438 22.398438 C 49.097656 22.398438 44.800781 26.699219 44.800781 32 C 44.800781 37.300781 49.097656 41.601562 54.398438 41.601562 C 59.703125 41.601562 64 37.300781 64 32 C 64 26.699219 59.703125 22.398438 54.398438 22.398438 Z M 54.398438 22.398438 "/>
</g>
</svg>
