<svg xmlns="http://www.w3.org/2000/svg" xmlns:xlink="http://www.w3.org/1999/xlink" width="64" height="64" viewBox="0 0 64 64" version="1.1">
<defs>
<linearGradient id="linear0" gradientUnits="userSpaceOnUse" x1="0" y1="0" x2="0" y2="1" gradientTransform="matrix(43.871094,0,0,60.007812,10,1.992187)">
<stop offset="0" style="stop-color:#ff6666;stop-opacity:1;"/>
<stop offset="1" style="stop-color:#d90000;stop-opacity:1;"/>
</linearGradient>
</defs>
<g id="surface1">
<path style=" stroke:none;fill-rule:nonzero;fill:url(#linear0);" d="M 10 61.777344 C 10.296875 61.789062 10.5625 61.835938 10.871094 61.851562 C 12.550781 61.957031 14.574219 61.957031 16.542969 61.988281 L 16.636719 41.09375 C 16.667969 33.257812 16.226562 22.214844 18.027344 16.96875 C 21.035156 10.890625 27.402344 7.617188 34.183594 8.667969 C 40.9375 9.714844 46.0625 15.03125 46.914062 21.875 C 47.101562 23.382812 47.148438 32.414062 47.027344 43.527344 L 46.824219 62 C 48.996094 61.96875 51.175781 61.953125 53.007812 61.847656 C 53.316406 61.832031 53.574219 61.804688 53.871094 61.773438 L 53.734375 41.402344 C 53.578125 18.917969 53.589844 19.109375 51.570312 14.703125 C 49.578125 10.351562 45.789062 6.324219 41.757812 4.269531 C 37.121094 1.902344 30.453125 1.3125 25.53125 2.828125 C 19.292969 4.753906 14.453125 9.050781 11.738281 15.074219 C 10.046875 18.832031 10.003906 19.488281 10.003906 41.53125 Z M 10 61.777344 "/>
</g>
</svg>
