<svg xmlns="http://www.w3.org/2000/svg" xmlns:xlink="http://www.w3.org/1999/xlink" width="64" height="64" viewBox="0 0 64 64" version="1.1">
<defs>
<filter id="alpha" filterUnits="objectBoundingBox" x="0%" y="0%" width="100%" height="100%">
  <feColorMatrix type="matrix" in="SourceGraphic" values="0 0 0 0 1 0 0 0 0 1 0 0 0 0 1 0 0 0 1 0"/>
</filter>
<mask id="mask0">
  <g filter="url(#alpha)">
<rect x="0" y="0" width="64" height="64" style="fill:rgb(0%,0%,0%);fill-opacity:0.6;stroke:none;"/>
  </g>
</mask>
<linearGradient id="linear0" gradientUnits="userSpaceOnUse" x1="0" y1="0" x2="0" y2="1" gradientTransform="matrix(64,0,0,59.300781,0,2.261719)">
<stop offset="0" style="stop-color:#ff6666;stop-opacity:1;"/>
<stop offset="1" style="stop-color:#d90000;stop-opacity:1;"/>
</linearGradient>
<clipPath id="clip1">
  <rect x="0" y="0" width="64" height="64"/>
</clipPath>
<g id="surface5" clip-path="url(#clip1)">
<path style=" stroke:none;fill-rule:evenodd;fill:url(#linear0);" d="M 15.214844 61.519531 C 15.359375 61.53125 15.484375 61.546875 15.628906 61.554688 C 15.738281 61.558594 15.894531 61.554688 16.011719 61.5625 L 16 59.589844 L 22.933594 53.214844 L 22.933594 51.09375 L 26.132812 47.90625 L 26.132812 46.316406 L 27.730469 44.722656 L 27.730469 40.476562 L 25.601562 38.351562 L 21.332031 38.351562 L 19.199219 36.230469 L 13.867188 36.230469 L 11.730469 38.351562 L 11.730469 43.664062 L 16.015625 47.394531 L 16 52.15625 L 14.398438 53.746094 L 14.398438 60.648438 Z M 24.53125 20.308594 L 22.933594 21.898438 L 24.53125 21.898438 L 25.066406 22.429688 L 25.601562 22.429688 L 26.132812 21.898438 Z M 44.800781 27.734375 L 38.398438 27.734375 L 34.667969 31.453125 L 34.667969 36.761719 L 37.332031 39.414062 L 41.066406 39.414062 L 42.667969 41.007812 L 42.667969 42.601562 L 43.730469 43.664062 L 43.730469 50.03125 L 47.785156 54.292969 L 54.472656 47.636719 L 54.398438 41.539062 L 59.730469 36.230469 L 57.601562 36.230469 L 52.269531 30.925781 L 52.269531 28.800781 L 45.867188 28.800781 Z M 64 29.859375 L 64 24.273438 C 64 21.863281 63.957031 19.710938 63.84375 17.792969 C 63.789062 16.835938 63.710938 15.933594 63.617188 15.085938 C 63.519531 14.238281 63.402344 13.449219 63.265625 12.703125 C 63.125 11.964844 62.960938 11.273438 62.769531 10.628906 C 62.570312 9.988281 62.351562 9.390625 62.105469 8.839844 C 61.945312 8.488281 61.746094 8.1875 61.558594 7.871094 L 60.800781 8.628906 L 57.601562 8.628906 L 54.398438 11.8125 L 52.269531 9.6875 L 45.867188 9.6875 L 42.667969 12.875 L 42.667969 15.527344 L 45.867188 15.527344 L 45.867188 13.9375 L 48 13.9375 L 48 16.058594 L 46.933594 17.121094 L 42.667969 17.191406 L 41.066406 18.710938 L 38.933594 18.710938 L 38.933594 20.835938 L 37.332031 22.429688 L 37.332031 25.613281 L 40.53125 25.613281 L 42.667969 23.492188 L 44.800781 23.492188 L 44.800781 24.550781 L 46.933594 26.675781 L 48 26.675781 L 48 25.613281 L 45.867188 23.492188 L 48 23.492188 L 50.132812 25.613281 L 52.800781 25.613281 L 51.199219 24.019531 L 52.800781 22.429688 L 54.398438 22.429688 L 56 24.019531 L 54.398438 24.019531 L 52.800781 25.613281 L 54.371094 27.175781 L 54.398438 28.800781 L 52.269531 28.800781 L 58.667969 35.167969 L 59.730469 35.167969 L 60.800781 34.109375 L 62.933594 31.984375 L 60.800781 29.859375 Z M 39.46875 17.652344 L 39.46875 16.058594 L 41.066406 14.46875 L 41.066406 17.652344 Z M 56 48.972656 L 56 45.644531 L 58.132812 43.664062 L 58.132812 48.972656 Z M 34.132812 2.261719 L 22.140625 2.261719 C 21.9375 2.261719 21.792969 2.273438 21.589844 2.273438 L 19.730469 4.378906 L 22.933594 7.566406 L 22.933594 10.894531 L 26.667969 14.996094 L 28.800781 14.996094 L 28.800781 12.875 L 32 9.6875 L 32 7.566406 L 34.132812 5.445312 Z M 31.46875 13.9375 L 33.066406 13.9375 L 34.667969 15.527344 L 31.46875 15.527344 Z M 17.066406 31.453125 L 15.46875 31.453125 L 13.867188 33.046875 L 17.066406 33.046875 Z M 2.839844 7.207031 C 2.8125 7.246094 2.777344 7.277344 2.746094 7.316406 C 2.433594 7.785156 2.148438 8.289062 1.894531 8.839844 C 1.648438 9.390625 1.429688 9.988281 1.230469 10.628906 C 1.039062 11.273438 0.875 11.964844 0.734375 12.703125 C 0.597656 13.449219 0.480469 14.238281 0.382812 15.085938 C 0.289062 15.933594 0.210938 16.835938 0.15625 17.792969 C 0.0429688 19.710938 0 21.863281 0 24.273438 L 0 29.859375 L 2.132812 31.984375 L 5.332031 31.984375 L 10.667969 37.292969 L 10.667969 30.925781 L 13.867188 27.734375 L 16 27.734375 L 19.199219 24.550781 L 22.398438 24.550781 L 20.800781 22.960938 L 24 19.242188 L 20.800781 16.058594 L 16 16.058594 L 16 20.308594 L 13.867188 20.308594 L 11.730469 18.183594 L 11.730469 16.058594 L 14.933594 12.875 L 17.601562 12.875 L 17.601562 10.753906 L 14.398438 7.566406 L 9.066406 7.566406 L 9.066406 10.753906 L 6.398438 10.753906 Z M 16 2.402344 C 15.886719 2.410156 15.738281 2.40625 15.628906 2.410156 C 14.664062 2.472656 13.757812 2.542969 12.902344 2.640625 C 12.050781 2.730469 11.257812 2.847656 10.507812 2.988281 C 9.84375 3.113281 9.230469 3.265625 8.644531 3.433594 L 10.667969 5.445312 L 16 5.445312 Z M 16 2.402344 "/>
</g>
<linearGradient id="linear1" gradientUnits="userSpaceOnUse" x1="0" y1="0" x2="0" y2="1" gradientTransform="matrix(36.402344,0,0,37.75,13.800781,13.628906)">
<stop offset="0" style="stop-color:#ff6666;stop-opacity:1;"/>
<stop offset="1" style="stop-color:#d90000;stop-opacity:1;"/>
</linearGradient>
</defs>
<g id="surface1">
<use xlink:href="#surface5" mask="url(#mask0)"/>
<path style=" stroke:none;fill-rule:evenodd;fill:url(#linear1);" d="M 35.371094 28.460938 L 35.371094 41.363281 C 35.371094 42.429688 36.230469 43.292969 37.296875 43.292969 L 44.230469 43.292969 C 45.296875 43.292969 46.15625 42.429688 46.15625 41.363281 L 46.15625 28.460938 L 48.273438 28.460938 C 48.960938 28.460938 49.601562 28.136719 49.945312 27.613281 C 50.289062 27.085938 50.289062 26.4375 49.945312 25.910156 L 46.1875 20.195312 L 42.4375 14.476562 C 42.09375 13.953125 41.453125 13.628906 40.765625 13.628906 C 40.070312 13.628906 39.4375 13.953125 39.09375 14.476562 L 35.335938 20.195312 L 31.585938 25.910156 C 31.425781 26.15625 31.335938 26.433594 31.328125 26.710938 C 31.3125 27.171875 31.507812 27.617188 31.871094 27.945312 C 32.234375 28.277344 32.734375 28.460938 33.257812 28.460938 Z M 17.84375 36.550781 L 17.84375 23.644531 C 17.84375 22.578125 18.703125 21.71875 19.769531 21.71875 L 26.703125 21.71875 C 27.765625 21.71875 28.628906 22.578125 28.628906 23.644531 L 28.628906 36.550781 L 30.742188 36.550781 C 31.433594 36.550781 32.070312 36.871094 32.414062 37.398438 C 32.761719 37.925781 32.761719 38.570312 32.414062 39.097656 L 28.660156 44.816406 L 24.90625 50.53125 C 24.5625 51.054688 23.925781 51.378906 23.234375 51.378906 C 22.542969 51.378906 21.90625 51.054688 21.5625 50.53125 L 17.808594 44.816406 L 14.054688 39.097656 C 13.894531 38.855469 13.808594 38.578125 13.800781 38.300781 C 13.785156 37.839844 13.980469 37.394531 14.34375 37.0625 C 14.707031 36.734375 15.207031 36.546875 15.726562 36.550781 Z M 17.84375 36.550781 "/>
</g>
</svg>
