<svg xmlns="http://www.w3.org/2000/svg" xmlns:xlink="http://www.w3.org/1999/xlink" width="64" height="64" viewBox="0 0 64 64" version="1.1">
<defs>
<linearGradient id="linear0" gradientUnits="userSpaceOnUse" x1="0" y1="0" x2="0" y2="1" gradientTransform="matrix(64,0,0,64,0,0)">
<stop offset="0" style="stop-color:#ff6666;stop-opacity:1;"/>
<stop offset="1" style="stop-color:#d90000;stop-opacity:1;"/>
</linearGradient>
</defs>
<g id="surface1">
<path style=" stroke:none;fill-rule:evenodd;fill:url(#linear0);" d="M 39.074219 49.210938 C 41.019531 49.941406 43.132812 50.324219 45.332031 50.324219 C 45.480469 50.324219 45.628906 50.320312 45.773438 50.308594 C 45.070312 52.332031 43.902344 54.175781 42.359375 55.71875 C 39.640625 58.441406 35.878906 60 32 60 C 28.121094 60 24.359375 58.441406 21.640625 55.71875 C 20.1875 54.269531 19.066406 52.546875 18.371094 50.65625 C 18.46875 50.664062 18.566406 50.667969 18.667969 50.667969 C 21.023438 50.667969 23.28125 50.226562 25.335938 49.386719 C 27.386719 50.226562 29.644531 50.667969 32 50.667969 C 34.515625 50.667969 36.910156 50.167969 39.074219 49.210938 Z M 20.351562 46.589844 C 19.800781 46.648438 19.238281 46.679688 18.679688 46.679688 C 18.238281 46.679688 17.800781 46.660156 17.363281 46.636719 C 17.339844 46.199219 17.320312 45.761719 17.320312 45.320312 C 17.320312 44.761719 17.351562 44.199219 17.410156 43.648438 C 18.285156 44.730469 19.269531 45.714844 20.351562 46.589844 Z M 14.613281 25.332031 C 13.773438 23.28125 13.332031 21.023438 13.332031 18.667969 C 13.332031 18.566406 13.335938 18.46875 13.34375 18.371094 C 11.453125 19.066406 9.730469 20.1875 8.28125 21.640625 C 5.558594 24.359375 4 28.121094 4 32 C 4 35.878906 5.558594 39.640625 8.28125 42.359375 C 9.730469 43.8125 11.453125 44.933594 13.34375 45.628906 C 13.335938 45.53125 13.332031 45.433594 13.332031 45.332031 C 13.332031 42.976562 13.773438 40.71875 14.617188 38.671875 C 13.773438 36.617188 13.332031 34.359375 13.332031 32 C 13.332031 29.644531 13.773438 27.386719 14.613281 25.332031 Z M 46.589844 20.351562 C 46.648438 19.800781 46.679688 19.238281 46.679688 18.679688 C 46.679688 18.128906 46.648438 17.585938 46.597656 17.039062 C 46.171875 17.019531 45.746094 17 45.320312 17 C 44.632812 17 43.949219 17.046875 43.28125 17.164062 C 44.519531 18.070312 45.625 19.152344 46.589844 20.351562 Z M 44.035156 46.277344 C 44.464844 46.300781 44.890625 46.320312 45.320312 46.320312 C 45.765625 46.320312 46.207031 46.300781 46.648438 46.277344 C 46.667969 45.960938 46.679688 45.640625 46.679688 45.320312 C 46.679688 44.761719 46.648438 44.199219 46.589844 43.648438 C 45.820312 44.601562 44.964844 45.480469 44.035156 46.277344 Z M 20.351562 17.410156 C 19.800781 17.351562 19.238281 17.320312 18.679688 17.320312 C 18.238281 17.320312 17.800781 17.339844 17.363281 17.363281 C 17.339844 17.800781 17.320312 18.238281 17.320312 18.679688 C 17.320312 19.238281 17.351562 19.800781 17.410156 20.351562 C 18.285156 19.269531 19.269531 18.285156 20.351562 17.410156 Z M 49.386719 25.332031 C 50.226562 23.28125 50.667969 21.023438 50.667969 18.667969 C 50.667969 18.453125 50.664062 18.238281 50.644531 18.027344 C 52.539062 18.710938 54.265625 19.824219 55.71875 21.28125 C 58.441406 24.039062 60 27.761719 60 31.640625 C 60 35.558594 58.441406 39.28125 55.71875 42.039062 C 54.269531 43.46875 52.550781 44.578125 50.664062 45.273438 C 50.65625 42.9375 50.21875 40.699219 49.382812 38.667969 C 50.226562 36.613281 50.667969 34.355469 50.667969 32 C 50.667969 29.644531 50.226562 27.386719 49.386719 25.332031 Z M 38.269531 14.445312 C 40.425781 13.488281 42.820312 12.992188 45.332031 12.992188 C 45.382812 12.992188 45.4375 12.992188 45.484375 12.996094 C 44.792969 11.238281 43.722656 9.644531 42.359375 8.28125 C 39.640625 5.558594 35.878906 4 32 4 C 28.121094 4 24.359375 5.558594 21.640625 8.28125 C 20.1875 9.730469 19.066406 11.453125 18.371094 13.34375 C 18.46875 13.335938 18.566406 13.332031 18.667969 13.332031 C 21.023438 13.332031 23.277344 13.773438 25.328125 14.617188 C 27.382812 13.773438 29.640625 13.332031 32 13.332031 C 34.203125 13.332031 36.320312 13.714844 38.269531 14.445312 Z M 50.105469 49.671875 C 58.105469 47.589844 64 40.308594 64 31.65625 C 64 22.957031 58.03125 15.636719 49.960938 13.613281 C 47.765625 5.761719 40.546875 0 32 0 C 23.324219 0 16.023438 5.933594 13.96875 13.96875 C 5.933594 16.023438 0 23.324219 0 32 C 0 40.675781 5.933594 47.976562 13.96875 50.03125 C 16.023438 58.066406 23.324219 64 32 64 C 40.804688 64 48.1875 57.894531 50.105469 49.671875 Z M 17.125 32.125 C 17.125 23.847656 23.847656 17.125 32.125 17.125 C 40.402344 17.125 47.125 23.847656 47.125 32.125 C 47.125 40.402344 40.402344 47.125 32.125 47.125 C 23.847656 47.125 17.125 40.402344 17.125 32.125 Z M 17.125 32.125 "/>
</g>
</svg>
