<svg xmlns="http://www.w3.org/2000/svg" xmlns:xlink="http://www.w3.org/1999/xlink" width="64" height="64" viewBox="0 0 64 64" version="1.1">
<defs>
<linearGradient id="linear0" gradientUnits="userSpaceOnUse" x1="0" y1="0" x2="0" y2="1" gradientTransform="matrix(64,0,0,64,0,0)">
<stop offset="0" style="stop-color:#ff6666;stop-opacity:1;"/>
<stop offset="1" style="stop-color:#d90000;stop-opacity:1;"/>
</linearGradient>
</defs>
<g id="surface1">
<path style=" stroke:none;fill-rule:nonzero;fill:url(#linear0);" d="M 32.011719 0 C 32.011719 0 32.003906 0.0117188 32.003906 0.0117188 C 32.003906 0.0117188 31.996094 0.0195312 31.996094 0.0195312 C 28.144531 8.707031 25.167969 17.5625 23.476562 22.988281 C 17.910156 22.996094 8.738281 23.214844 0 24.40625 C 0 24.40625 0.0078125 24.414062 0.0078125 24.414062 C 0.0078125 24.414062 0.0078125 24.425781 0.0078125 24.425781 C 0.0078125 24.425781 0.015625 24.433594 0.015625 24.433594 C 0.015625 24.433594 0.015625 24.445312 0.015625 24.445312 C 6.6875 30.980469 13.78125 36.6875 18.167969 40.054688 C 16.449219 45.621094 13.8125 54.859375 12.191406 63.960938 C 12.191406 63.960938 12.199219 63.960938 12.199219 63.960938 C 12.199219 63.960938 12.207031 63.960938 12.207031 63.960938 C 12.207031 63.960938 12.214844 63.960938 12.214844 63.960938 C 12.214844 63.960938 12.222656 63.960938 12.222656 63.960938 C 20.199219 59.3125 27.558594 53.984375 31.960938 50.640625 C 36.46875 54.074219 44.019531 59.566406 51.753906 64 C 51.753906 64 51.753906 63.992188 51.753906 63.992188 C 51.753906 63.992188 51.753906 63.980469 51.753906 63.980469 C 51.753906 63.980469 51.753906 63.972656 51.753906 63.972656 C 51.753906 63.972656 51.761719 63.960938 51.761719 63.960938 C 50.019531 54.550781 47.46875 45.546875 45.804688 40.109375 C 50.304688 36.667969 57.597656 30.824219 64 24.460938 C 64 24.460938 63.992188 24.453125 63.992188 24.453125 C 63.992188 24.453125 63.984375 24.453125 63.984375 24.453125 C 63.984375 24.453125 63.976562 24.441406 63.976562 24.441406 C 63.976562 24.441406 63.976562 24.433594 63.976562 24.433594 C 54.925781 23.265625 45.996094 23.03125 40.5625 23.015625 C 38.839844 17.453125 35.792969 8.363281 32.015625 0 C 32.015625 0 32.007812 0 32.007812 0 Z M 32.019531 13.164062 C 33.453125 17.136719 35.367188 21.753906 36.21875 24.507812 L 37.246094 27.808594 L 40.546875 27.816406 C 43.230469 27.828125 48.089844 28.3125 52.097656 28.519531 C 48.941406 31.183594 45.351562 34.523438 43.125 36.226562 L 40.445312 38.273438 L 41.464844 41.582031 C 42.285156 44.265625 43.347656 49.273438 44.398438 53.339844 C 41.015625 51.007812 36.878906 48.457031 34.648438 46.757812 L 31.972656 44.710938 L 29.296875 46.746094 C 27.125 48.398438 22.921875 51.007812 19.566406 53.308594 C 20.628906 49.207031 21.660156 44.289062 22.511719 41.535156 L 23.527344 38.234375 L 20.859375 36.179688 C 18.691406 34.515625 15.035156 31.125 11.914062 28.484375 C 15.953125 28.277344 20.726562 27.792969 23.480469 27.789062 L 26.78125 27.78125 L 27.816406 24.480469 C 28.652344 21.800781 30.59375 17.097656 32.019531 13.164062 Z M 32.019531 13.164062 "/>
</g>
</svg>
