<svg xmlns="http://www.w3.org/2000/svg" xmlns:xlink="http://www.w3.org/1999/xlink" width="64" height="64" viewBox="0 0 64 64" version="1.1">
<defs>
<linearGradient id="linear0" gradientUnits="userSpaceOnUse" x1="0" y1="0" x2="0" y2="1" gradientTransform="matrix(23.476562,0,0,64,20.261719,0)">
<stop offset="0" style="stop-color:#ff6666;stop-opacity:1;"/>
<stop offset="1" style="stop-color:#d90000;stop-opacity:1;"/>
</linearGradient>
</defs>
<g id="surface1">
<path style=" stroke:none;fill-rule:nonzero;fill:url(#linear0);" d="M 41.378906 33.242188 C 39.640625 31.253906 37.160156 30.015625 34.183594 30.261719 C 33.9375 29.765625 32.945312 24.804688 32.945312 24.804688 C 32.945312 24.804688 36.417969 19.597656 37.160156 18.605469 C 40.882812 12.652344 41.128906 7.9375 38.898438 3.226562 C 38.152344 1.488281 36.167969 0 34.183594 0 C 32.695312 0 31.457031 1.242188 30.710938 2.730469 C 28.230469 6.945312 28.230469 14.882812 29.472656 20.339844 C 29.472656 20.339844 28.230469 21.582031 26.992188 23.070312 C 24.511719 25.796875 21.78125 28.773438 20.789062 32.746094 C 19.550781 37.210938 20.542969 41.425781 23.269531 44.652344 C 26.246094 48.371094 30.710938 50.109375 36.167969 49.613281 C 37.160156 54.324219 37.90625 57.300781 36.417969 60.03125 C 35.921875 61.023438 34.929688 62.015625 33.191406 62.015625 C 32.695312 62.015625 32.449219 62.015625 31.953125 61.765625 C 33.441406 61.023438 34.679688 59.535156 34.679688 57.796875 C 34.679688 55.316406 32.695312 53.332031 30.214844 53.332031 C 26 53.582031 25.75 57.796875 25.75 57.796875 C 25.75 59.285156 26.246094 60.773438 27.238281 61.765625 C 28.480469 63.007812 30.464844 64 32.695312 64 C 35.425781 64 38.152344 63.007812 39.144531 59.039062 C 40.136719 55.8125 38.402344 50.605469 38.152344 48.867188 C 40.882812 47.628906 43.363281 43.90625 43.609375 41.425781 C 44.105469 38.699219 43.113281 35.472656 41.378906 33.242188 Z M 33.441406 5.707031 C 33.6875 5.210938 34.183594 4.960938 34.679688 4.960938 C 34.929688 4.960938 35.425781 5.210938 35.671875 5.457031 C 36.664062 5.953125 36.914062 6.945312 36.914062 8.433594 C 36.664062 12.15625 33.441406 16.621094 31.703125 18.109375 C 30.960938 14.636719 31.457031 8.1875 33.441406 5.707031 Z M 26.246094 44.652344 C 24.511719 42.914062 23.765625 40.433594 24.015625 37.953125 C 24.511719 33.984375 27.238281 30.757812 29.472656 28.277344 C 29.96875 27.78125 30.464844 27.285156 30.710938 26.789062 C 30.960938 28.03125 31.703125 30.015625 31.953125 31.007812 C 28.976562 32.25 27.238281 36.21875 27.488281 39.441406 C 27.488281 40.929688 27.984375 41.921875 28.726562 42.914062 C 28.976562 43.164062 29.222656 43.410156 29.472656 43.410156 C 29.71875 43.410156 30.214844 43.164062 30.214844 42.914062 C 30.464844 42.667969 30.464844 42.171875 30.214844 41.921875 C 29.96875 41.675781 29.96875 41.425781 29.96875 40.929688 C 29.71875 38.699219 31.207031 36.960938 32.945312 36.21875 C 33.191406 37.707031 34.929688 45.394531 35.175781 47.132812 C 31.953125 48.125 28.480469 47.132812 26.246094 44.652344 Z M 37.410156 46.140625 C 36.914062 44.402344 36.664062 42.417969 36.167969 40.1875 C 35.921875 38.699219 35.671875 36.960938 35.175781 35.472656 C 38.402344 35.472656 39.394531 38.203125 39.640625 39.195312 C 40.386719 41.921875 39.640625 44.652344 37.410156 46.140625 Z M 37.410156 46.140625 "/>
</g>
</svg>
