<svg xmlns="http://www.w3.org/2000/svg" xmlns:xlink="http://www.w3.org/1999/xlink" width="64" height="64" viewBox="0 0 64 64" version="1.1">
<defs>
<linearGradient id="linear0" gradientUnits="userSpaceOnUse" x1="0" y1="0" x2="0" y2="1" gradientTransform="matrix(64,0,0,64,0,0)">
<stop offset="0" style="stop-color:#ff6666;stop-opacity:1;"/>
<stop offset="1" style="stop-color:#d90000;stop-opacity:1;"/>
</linearGradient>
</defs>
<g id="surface1">
<path style=" stroke:none;fill-rule:nonzero;fill:url(#linear0);" d="M 0 0 L 0 64 L 39 64 L 56 47 L 56 25.117188 L 52 29.0625 L 52 44 L 36 44 L 36 60 L 4 60 L 4 4 L 49.015625 4 L 41.125 12 L 12 12 L 12 16 L 37.179688 16 L 33.234375 20 L 12 20 L 12 24 L 29.289062 24 L 25.34375 28 L 12 28 L 12 32 L 21.40625 32 L 17.460938 36 L 12 36 L 12 40 L 14.476562 40 C 14.070312 40.730469 13.890625 40.972656 13.210938 42.351562 C 11.957031 44.902344 10.410156 48.390625 9.164062 52.320312 L 8 56 L 11.679688 54.835938 C 15.613281 53.589844 19.097656 52.042969 21.648438 50.789062 C 24.199219 49.535156 25.597656 48.707031 26 48.453125 L 26.179688 48.335938 L 64 11.046875 L 56 3.046875 L 56 0 Z M 19.5625 39.5625 L 24.4375 44.4375 L 23.726562 45.140625 C 23.753906 45.121094 22.210938 46.050781 19.882812 47.195312 C 19.027344 47.617188 17.742188 48.085938 16.546875 48.546875 L 15.453125 47.453125 C 15.914062 46.257812 16.382812 44.972656 16.804688 44.117188 C 17.949219 41.789062 18.875 40.253906 18.859375 40.273438 Z M 19.5625 39.5625 "/>
</g>
</svg>
