<svg xmlns="http://www.w3.org/2000/svg" xmlns:xlink="http://www.w3.org/1999/xlink" width="64" height="64" viewBox="0 0 64 64" version="1.1">
<defs>
<linearGradient id="linear0" gradientUnits="userSpaceOnUse" x1="0" y1="0" x2="0" y2="1" gradientTransform="matrix(64,0,0,57.539062,0,3.230469)">
<stop offset="0" style="stop-color:#ff6666;stop-opacity:1;"/>
<stop offset="1" style="stop-color:#d90000;stop-opacity:1;"/>
</linearGradient>
</defs>
<g id="surface1">
<path style=" stroke:none;fill-rule:evenodd;fill:url(#linear0);" d="M 12.800781 9.632812 L 28.800781 9.632812 L 28.800781 19.230469 L 6.398438 19.230469 Z M 35.199219 9.632812 L 51.199219 9.632812 L 57.601562 19.230469 L 35.199219 19.230469 Z M 30.507812 52.914062 L 30.507812 56.835938 C 27.945312 56.785156 25.9375 56.019531 24.480469 54.539062 C 23.023438 53.058594 22.296875 50.914062 22.296875 48.105469 L 22.296875 45.789062 C 22.296875 44.941406 22.132812 44.277344 21.8125 43.792969 C 21.488281 43.308594 21.03125 43.0625 20.433594 43.0625 L 19.570312 43.0625 L 19.570312 39.144531 L 20.433594 39.144531 C 21.03125 39.144531 21.488281 38.894531 21.8125 38.398438 C 22.132812 37.902344 22.296875 37.242188 22.296875 36.421875 L 22.296875 34.144531 C 22.296875 31.332031 23.023438 29.191406 24.480469 27.722656 C 25.9375 26.257812 27.945312 25.488281 30.507812 25.410156 L 30.507812 29.332031 C 27.945312 29.480469 26.664062 30.863281 26.664062 33.472656 L 26.664062 36.046875 C 26.664062 37.617188 26.410156 38.792969 25.898438 39.574219 C 25.386719 40.359375 24.621094 40.875 23.605469 41.125 C 25.644531 41.648438 26.664062 43.339844 26.664062 46.199219 L 26.664062 48.773438 C 26.664062 51.4375 27.945312 52.816406 30.507812 52.914062 Z M 13.101562 3.230469 C 10.859375 3.230469 8.988281 4.519531 7.699219 6.433594 L 0.601562 17.921875 C 0.289062 18.554688 0 19.855469 0 20.816406 L 0 54.378906 C 0 57.894531 2.871094 60.769531 6.398438 60.769531 L 57.601562 60.769531 C 61.128906 60.769531 64 57.894531 64 54.382812 L 64 20.820312 C 64 19.855469 63.722656 18.558594 63.398438 17.921875 L 56.300781 6.433594 C 55.011719 4.519531 53.136719 3.230469 50.898438 3.230469 Z M 33.492188 56.835938 L 33.492188 52.914062 C 36.082031 52.789062 37.375 51.410156 37.375 48.773438 L 37.375 46.199219 C 37.375 43.339844 38.394531 41.648438 40.4375 41.125 C 39.414062 40.875 38.648438 40.359375 38.140625 39.574219 C 37.628906 38.792969 37.375 37.617188 37.375 36.046875 L 37.375 33.472656 C 37.375 30.863281 36.082031 29.480469 33.492188 29.332031 L 33.492188 25.410156 C 36.054688 25.488281 38.070312 26.265625 39.539062 27.742188 C 41.007812 29.222656 41.738281 31.355469 41.738281 34.144531 L 41.738281 36.421875 C 41.738281 37.242188 41.902344 37.902344 42.222656 38.398438 C 42.550781 38.894531 43.011719 39.144531 43.609375 39.144531 L 44.429688 39.144531 L 44.429688 43.0625 L 43.609375 43.0625 C 43.011719 43.0625 42.550781 43.308594 42.222656 43.792969 C 41.902344 44.277344 41.738281 44.941406 41.738281 45.789062 L 41.738281 48.105469 C 41.738281 50.914062 41.007812 53.058594 39.539062 54.539062 C 38.070312 56.019531 36.054688 56.785156 33.492188 56.835938 Z M 33.492188 56.835938 "/>
</g>
</svg>
