<svg xmlns="http://www.w3.org/2000/svg" xmlns:xlink="http://www.w3.org/1999/xlink" width="64" height="64" viewBox="0 0 64 64" version="1.1">
<defs>
<linearGradient id="linear0" gradientUnits="userSpaceOnUse" x1="0" y1="0" x2="0" y2="1" gradientTransform="matrix(64,0,0,42.667969,0,11.332031)">
<stop offset="0" style="stop-color:#ff6666;stop-opacity:1;"/>
<stop offset="1" style="stop-color:#d90000;stop-opacity:1;"/>
</linearGradient>
</defs>
<g id="surface1">
<path style=" stroke:none;fill-rule:nonzero;fill:url(#linear0);" d="M 6.539062 29.703125 C 6.539062 29.703125 12.324219 21.101562 23.878906 20.210938 L 23.878906 17.089844 C 11.082031 18.125 0 29.042969 0 29.042969 C 0 29.042969 6.277344 47.324219 23.878906 49 L 23.878906 45.683594 C 10.960938 44.046875 6.539062 29.703125 6.539062 29.703125 Z M 23.878906 39.085938 L 23.878906 42.125 C 14.117188 40.367188 11.40625 30.144531 11.40625 30.144531 C 11.40625 30.144531 16.09375 24.914062 23.878906 24.0625 L 23.878906 27.398438 C 23.875 27.398438 23.871094 27.394531 23.867188 27.394531 C 19.78125 26.902344 16.589844 30.746094 16.589844 30.746094 C 16.589844 30.746094 18.378906 37.222656 23.882812 39.085938 M 23.882812 11.332031 L 23.882812 17.089844 C 24.257812 17.058594 24.632812 17.035156 25.011719 17.023438 C 39.558594 16.527344 49.039062 29.042969 49.039062 29.042969 C 49.039062 29.042969 38.152344 42.382812 26.808594 42.382812 C 25.769531 42.382812 24.796875 42.285156 23.882812 42.121094 L 23.882812 45.679688 C 24.664062 45.78125 25.472656 45.839844 26.320312 45.839844 C 36.875 45.839844 44.507812 40.410156 51.898438 33.980469 C 53.125 34.96875 58.140625 37.375 59.171875 38.429688 C 52.144531 44.355469 35.765625 49.136719 26.480469 49.136719 C 25.585938 49.136719 24.726562 49.082031 23.882812 49 L 23.882812 54 L 64 54 L 64 11.332031 Z M 23.882812 24.0625 L 23.882812 20.210938 C 24.253906 20.1875 24.628906 20.164062 25.011719 20.152344 C 35.472656 19.820312 42.335938 29.210938 42.335938 29.210938 C 42.335938 29.210938 34.921875 39.582031 26.972656 39.582031 C 25.828125 39.582031 24.804688 39.398438 23.878906 39.085938 L 23.878906 27.398438 C 27.953125 27.894531 28.773438 29.707031 31.222656 33.820312 L 36.667969 29.191406 C 36.667969 29.191406 32.691406 23.9375 25.992188 23.9375 C 25.261719 23.9375 24.566406 23.992188 23.878906 24.0625 "/>
</g>
</svg>
