<svg xmlns="http://www.w3.org/2000/svg" xmlns:xlink="http://www.w3.org/1999/xlink" width="64" height="64" viewBox="0 0 64 64" version="1.1">
<defs> <linearGradient id="linear0" gradientUnits="userSpaceOnUse" x1="0" y1="0" x2="0" y2="1" gradientTransform="matrix(55.992188,0,0,56,4.003906,4)"> <stop offset="0" style="stop-color:#ff6666;stop-opacity:1;"/> <stop offset="1" style="stop-color:#d90000;stop-opacity:1;"/> </linearGradient> </defs>
<g id="surface1">
<path style=" stroke:none;fill-rule:nonzero;fill:url(#linear0);fill-opacity:1;" d="M 13.496094 7.605469 C 9.800781 7.605469 6.824219 10.5625 6.824219 14.246094 L 6.824219 49.195312 C 6.824219 52.871094 9.800781 55.835938 13.496094 55.835938 L 23.300781 55.835938 C 23.28125 55.75 23.265625 55.664062 23.257812 55.585938 C 23.96875 51.015625 26.03125 46.742188 27.15625 42.269531 C 33.902344 35.351562 40.890625 28.585938 47.703125 21.714844 L 47.703125 14.246094 C 47.703125 10.5625 44.726562 7.605469 41.027344 7.605469 Z M 13.945312 13.550781 C 15.785156 13.550781 17.277344 15.039062 17.277344 16.875 C 17.277344 18.707031 15.785156 20.195312 13.945312 20.195312 C 12.105469 20.195312 10.613281 18.707031 10.613281 16.875 C 10.613281 15.039062 12.105469 13.550781 13.945312 13.550781 Z M 22.832031 14.386719 L 41.414062 14.386719 C 42.800781 14.386719 43.914062 15.496094 43.914062 16.875 C 43.914062 18.25 42.800781 19.359375 41.414062 19.359375 L 22.832031 19.359375 C 21.449219 19.359375 20.335938 18.25 20.335938 16.875 C 20.335938 15.496094 21.449219 14.386719 22.832031 14.386719 Z M 54.992188 17.25 C 54.5 17.269531 54.0625 17.429688 53.742188 17.742188 L 53.726562 17.757812 L 51.382812 20.105469 L 51.332031 20.15625 L 61.421875 30.207031 L 61.480469 30.25 L 63.847656 27.890625 L 63.875 27.859375 C 63.886719 27.847656 63.890625 27.835938 63.890625 27.835938 C 64.453125 27.246094 64.515625 26.292969 64.175781 25.226562 C 63.828125 24.160156 63.082031 22.960938 62.007812 21.890625 L 59.730469 19.617188 C 58.242188 18.136719 56.527344 17.277344 55.214844 17.25 C 55.140625 17.242188 55.066406 17.242188 54.992188 17.25 Z M 50.132812 21.347656 L 50.082031 21.398438 L 47.597656 23.875 L 47.546875 23.929688 L 57.640625 33.976562 L 57.683594 34.027344 L 57.742188 33.976562 L 60.222656 31.5 L 60.273438 31.449219 Z M 13.945312 23.453125 C 15.785156 23.453125 17.277344 24.933594 17.277344 26.773438 C 17.277344 28.605469 15.785156 30.09375 13.945312 30.09375 C 12.105469 30.09375 10.613281 28.605469 10.613281 26.773438 C 10.613281 24.933594 12.105469 23.453125 13.945312 23.453125 Z M 22.832031 24.285156 L 41.414062 24.285156 C 41.902344 24.285156 42.351562 24.425781 42.734375 24.664062 C 41.1875 26.195312 39.636719 27.726562 38.09375 29.261719 L 22.832031 29.261719 C 21.449219 29.261719 20.335938 28.148438 20.335938 26.773438 C 20.335938 25.390625 21.449219 24.285156 22.832031 24.285156 Z M 46.113281 25.351562 L 46.054688 25.398438 L 30.910156 40.496094 L 29.035156 42.359375 L 28.5625 42.828125 L 28.546875 42.839844 L 28.546875 42.855469 L 24.757812 54.664062 L 24.753906 54.671875 C 24.617188 55.304688 24.820312 56.003906 25.273438 56.433594 L 25.28125 56.441406 C 25.703125 56.75 26.257812 56.832031 26.734375 56.644531 L 26.742188 56.644531 L 38.757812 52.859375 L 38.769531 52.855469 L 38.78125 52.84375 L 39.171875 52.449219 L 40.984375 50.648438 L 56.199219 35.503906 L 56.25 35.449219 L 56.199219 35.398438 L 46.15625 25.402344 Z M 13.945312 33.347656 C 15.785156 33.347656 17.277344 34.832031 17.277344 36.667969 C 17.277344 38.5 15.785156 39.988281 13.945312 39.988281 C 12.105469 39.988281 10.613281 38.5 10.613281 36.667969 C 10.613281 34.832031 12.105469 33.347656 13.945312 33.347656 Z M 22.832031 34.179688 L 33.140625 34.179688 C 31.484375 35.832031 29.828125 37.496094 28.1875 39.15625 L 22.832031 39.15625 C 21.449219 39.15625 20.335938 38.042969 20.335938 36.667969 C 20.335938 35.289062 21.449219 34.179688 22.832031 34.179688 Z M 13.945312 43.246094 C 15.785156 43.246094 17.277344 44.726562 17.277344 46.566406 C 17.277344 48.398438 15.785156 49.890625 13.945312 49.890625 C 12.105469 49.890625 10.613281 48.398438 10.613281 46.566406 C 10.613281 44.726562 12.105469 43.246094 13.945312 43.246094 Z M 22.832031 44.082031 L 25.15625 44.082031 C 24.632812 45.75 24.003906 47.398438 23.441406 49.054688 L 22.832031 49.054688 C 21.449219 49.054688 20.335938 47.941406 20.335938 46.566406 C 20.335938 45.1875 21.449219 44.082031 22.832031 44.082031 Z M 31.25 44.535156 L 31.261719 44.535156 C 31.273438 44.535156 31.285156 44.535156 31.300781 44.535156 C 31.300781 44.535156 31.304688 44.535156 31.304688 44.535156 L 31.3125 44.535156 C 31.441406 44.535156 31.566406 44.59375 31.660156 44.6875 L 32.523438 45.542969 L 35.777344 45.371094 C 35.777344 45.371094 35.78125 45.371094 35.78125 45.371094 C 35.910156 45.367188 36.042969 45.417969 36.140625 45.503906 C 36.253906 45.597656 36.316406 45.75 36.308594 45.90625 L 36.144531 49.4375 L 36.773438 50.074219 C 36.898438 50.195312 36.953125 50.382812 36.90625 50.554688 C 36.859375 50.722656 36.71875 50.859375 36.546875 50.902344 L 30.886719 52.417969 L 30.878906 52.417969 C 30.710938 52.464844 30.523438 52.414062 30.398438 52.296875 L 30.390625 52.296875 L 29.289062 51.199219 C 29.160156 51.066406 29.113281 50.882812 29.164062 50.710938 L 30.824219 44.910156 C 30.875 44.710938 31.046875 44.558594 31.25 44.535156 Z M 47.703125 45.996094 C 45.066406 48.613281 42.429688 51.238281 39.808594 53.863281 C 37.984375 54.628906 36.097656 55.246094 34.195312 55.835938 L 41.027344 55.835938 C 44.726562 55.835938 47.703125 52.871094 47.703125 49.195312 Z M 47.703125 45.996094 "/>
</g>
</svg>
