<svg xmlns="http://www.w3.org/2000/svg" xmlns:xlink="http://www.w3.org/1999/xlink" width="64" height="64" viewBox="0 0 64 64" version="1.1">
<defs>
<linearGradient id="linear0" gradientUnits="userSpaceOnUse" x1="0" y1="0" x2="0" y2="1" gradientTransform="matrix(64,0,0,64,0,0)">
<stop offset="0" style="stop-color:#ff6666;stop-opacity:1;"/>
<stop offset="1" style="stop-color:#d90000;stop-opacity:1;"/>
</linearGradient>
</defs>
<g id="surface1">
<path style=" stroke:none;fill-rule:evenodd;fill:url(#linear0);" d="M 25.152344 52.929688 C 28.195312 51.996094 31.847656 49.433594 33.558594 47.027344 L 34.125 46.234375 L 33.414062 44.097656 C 30.832031 36.28125 35.523438 28.398438 43.5625 27.039062 C 49.40625 26.054688 55.539062 29.632812 57.65625 35.257812 C 58.160156 36.597656 58.175781 36.613281 58.011719 35.585938 C 57.527344 32.539062 56.019531 29.734375 53.570312 27.316406 C 51.019531 24.792969 48.050781 23.359375 44.34375 22.863281 C 43.207031 22.710938 43.089844 22.757812 42.660156 23.480469 C 42.003906 24.597656 40.085938 26.464844 38.664062 27.371094 C 34.84375 29.8125 28.957031 29.8125 25.128906 27.371094 C 20.804688 24.617188 18.355469 19.339844 19.152344 14.480469 C 19.585938 11.828125 20.753906 9.472656 22.617188 7.5 C 23.964844 6.066406 24.054688 5.910156 23.277344 6.359375 C 21.964844 7.113281 18.886719 10.453125 18.015625 12.070312 C 17.011719 13.945312 16.191406 17.257812 16.199219 19.441406 C 16.199219 21.324219 16.695312 23.820312 17.421875 25.628906 C 17.839844 26.679688 17.890625 26.714844 19.457031 26.890625 C 20.335938 26.992188 21.730469 27.304688 22.550781 27.585938 C 29.816406 30.085938 33.242188 38.464844 29.839844 45.402344 C 27.523438 50.140625 22.15625 53.1875 17.144531 52.617188 C 15.101562 52.386719 15.316406 52.664062 17.578125 53.179688 C 19.589844 53.636719 23.242188 53.511719 25.152344 52.929688 Z M 32 3.4375 C 47.796875 3.4375 60.5625 16.203125 60.5625 32 C 60.5625 47.796875 47.796875 60.5625 32 60.5625 C 16.203125 60.5625 3.4375 47.796875 3.4375 32 C 3.4375 16.203125 16.203125 3.4375 32 3.4375 Z M 32 0 C 14.347656 0 0 14.347656 0 32 C 0 49.652344 14.347656 64 32 64 C 49.652344 64 64 49.652344 64 32 C 64 14.347656 49.652344 0 32 0 Z M 32 0 "/>
</g>
</svg>
