<svg xmlns="http://www.w3.org/2000/svg" xmlns:xlink="http://www.w3.org/1999/xlink" width="64" height="64" viewBox="0 0 64 64" version="1.1">
<defs> <linearGradient id="linear0" gradientUnits="userSpaceOnUse" x1="0" y1="0" x2="0" y2="1" gradientTransform="matrix(55.992188,0,0,56,4.003906,4)"> <stop offset="0" style="stop-color:#ff6666;stop-opacity:1;"/> <stop offset="1" style="stop-color:#d90000;stop-opacity:1;"/> </linearGradient> </defs>
<g id="surface1">
<path style=" stroke:none;fill-rule:nonzero;fill:url(#linear0);fill-opacity:1;" d="M 29.125 11.101562 L 35.746094 11.101562 C 45.65625 11.101562 45.457031 20.886719 45.457031 20.886719 L 45.457031 29.261719 C 45.457031 32.449219 39.675781 39.042969 39.675781 39.042969 L 39.675781 43.230469 L 52.6875 50.21875 L 52.6875 55.808594 L 12.226562 55.808594 L 12.226562 50.21875 L 25.242188 43.230469 L 25.242188 39.042969 C 25.242188 39.042969 19.4375 32.449219 19.464844 29.261719 L 19.464844 20.886719 C 19.464844 20.886719 19.253906 11.101562 29.175781 11.101562 M 29.132812 11.101562 "/>
<path style=" stroke:none;fill-rule:nonzero;fill:url(#linear0);fill-opacity:1;" d="M 21.46875 17.375 L 23.476562 17.375 C 24.359375 17.375 25.078125 18.148438 25.078125 19.121094 L 25.078125 32.5 C 25.078125 33.460938 24.359375 34.25 23.476562 34.25 L 21.46875 34.25 C 20.585938 34.25 19.859375 33.457031 19.859375 32.5 L 19.859375 19.121094 C 19.859375 18.148438 20.585938 17.375 21.46875 17.375 M 21.46875 17.375 "/>
<path style=" stroke:none;fill-rule:nonzero;fill:url(#linear0);fill-opacity:1;" d="M 22.851562 25.800781 C 22.851562 29.605469 21.539062 32.683594 19.925781 32.683594 C 18.3125 32.683594 17.007812 29.605469 17.007812 25.800781 C 17.007812 22 18.3125 18.917969 19.925781 18.917969 C 21.539062 18.917969 22.851562 22 22.851562 25.800781 M 22.851562 25.800781 "/>
<path style=" stroke:none;fill-rule:nonzero;fill:url(#linear0);fill-opacity:1;" d="M 17.761719 25.433594 C 17.761719 26.144531 17.171875 26.722656 16.445312 26.722656 C 15.71875 26.722656 15.121094 26.144531 15.121094 25.433594 C 15.121094 24.726562 15.71875 24.148438 16.445312 24.148438 C 17.171875 24.148438 17.761719 24.726562 17.761719 25.433594 M 17.761719 25.433594 "/>
<path style=" stroke:none;fill-rule:nonzero;fill:url(#linear0);fill-opacity:1;" d="M 32.425781 3.363281 C 22.75 3.363281 14.898438 11.886719 14.898438 22.402344 C 14.898438 23.453125 14.992188 24.492188 15.136719 25.503906 L 17.789062 25.503906 C 17.613281 24.503906 17.511719 23.464844 17.511719 22.402344 C 17.511719 13.453125 24.183594 6.191406 32.425781 6.191406 C 40.652344 6.191406 47.332031 13.441406 47.332031 22.402344 C 47.332031 23.464844 47.234375 24.503906 47.054688 25.503906 L 49.707031 25.503906 C 49.859375 24.492188 49.9375 23.453125 49.9375 22.402344 C 49.9375 11.886719 42.097656 3.363281 32.425781 3.363281 M 32.425781 3.363281 "/>
<path style=" stroke:none;fill-rule:nonzero;fill:url(#linear0);fill-opacity:1;" d="M 49.71875 25.300781 C 49.71875 26.007812 49.144531 26.585938 48.417969 26.585938 C 47.695312 26.585938 47.109375 26.007812 47.109375 25.300781 C 47.109375 24.589844 47.695312 24.011719 48.417969 24.011719 C 49.136719 24.011719 49.71875 24.589844 49.71875 25.300781 M 49.71875 25.300781 "/>
<path style=" stroke:none;fill-rule:nonzero;fill:url(#linear0);fill-opacity:1;" d="M 43.378906 17.375 L 41.375 17.375 C 40.484375 17.375 39.761719 18.148438 39.761719 19.121094 L 39.761719 32.5 C 39.761719 33.460938 40.484375 34.25 41.375 34.25 L 43.378906 34.25 C 44.265625 34.25 44.980469 33.457031 44.980469 32.5 L 44.980469 19.121094 C 44.980469 18.148438 44.265625 17.375 43.378906 17.375 M 43.378906 17.375 "/>
<path style=" stroke:none;fill-rule:nonzero;fill:url(#linear0);fill-opacity:1;" d="M 42.003906 25.800781 C 42.003906 29.605469 43.304688 32.683594 44.917969 32.683594 C 46.53125 32.683594 47.839844 29.605469 47.839844 25.800781 C 47.839844 22 46.53125 18.917969 44.917969 18.917969 C 43.304688 18.917969 42.003906 22 42.003906 25.800781 M 42.003906 25.800781 "/>
</g>
</svg>
