<svg xmlns="http://www.w3.org/2000/svg" xmlns:xlink="http://www.w3.org/1999/xlink" width="64" height="64" viewBox="0 0 64 64" version="1.1">
<defs> <linearGradient id="linear0" gradientUnits="userSpaceOnUse" x1="0" y1="0" x2="0" y2="1" gradientTransform="matrix(55.992188,0,0,56,4.003906,4)"> <stop offset="0" style="stop-color:#ff6666;stop-opacity:1;"/> <stop offset="1" style="stop-color:#d90000;stop-opacity:1;"/> </linearGradient> </defs>
<g id="surface1">
<path style=" stroke:none;fill-rule:nonzero;fill:url(#linear0);fill-opacity:1;" d="M 11.96875 6.546875 C 9.210938 6.578125 6.996094 8.800781 6.996094 11.558594 L 6.996094 51.695312 C 6.996094 54.464844 9.238281 56.707031 12.027344 56.707031 L 18.550781 56.707031 C 19.410156 53.148438 20.992188 49.75 21.890625 46.222656 C 26.207031 41.1875 31.113281 36.613281 35.816406 31.941406 C 38.972656 28.972656 41.902344 25.726562 45.054688 22.769531 C 46.917969 21.042969 48.507812 18.324219 51.359375 18.210938 C 51.457031 18.203125 51.546875 18.203125 51.636719 18.203125 C 52.445312 18.203125 53.238281 18.355469 53.992188 18.617188 L 53.992188 11.558594 C 53.992188 8.800781 51.785156 6.578125 49.019531 6.546875 L 11.96875 6.546875 M 23.28125 10.554688 C 23.820312 10.554688 24.292969 10.65625 24.691406 10.875 C 25.09375 11.089844 25.421875 11.40625 25.691406 11.820312 C 25.960938 12.226562 26.160156 12.722656 26.292969 13.324219 C 26.429688 13.917969 26.492188 14.589844 26.492188 15.347656 C 26.492188 16.09375 26.429688 16.769531 26.308594 17.363281 C 26.195312 17.949219 26.007812 18.449219 25.746094 18.859375 C 25.492188 19.269531 25.160156 19.585938 24.753906 19.804688 C 24.351562 20.019531 23.859375 20.128906 23.28125 20.128906 C 22.742188 20.128906 22.269531 20.019531 21.867188 19.804688 C 21.46875 19.585938 21.140625 19.269531 20.875 18.859375 C 20.613281 18.449219 20.414062 17.949219 20.277344 17.363281 C 20.152344 16.769531 20.089844 16.09375 20.089844 15.347656 C 20.089844 14.597656 20.148438 13.929688 20.261719 13.335938 C 20.378906 12.742188 20.566406 12.234375 20.824219 11.824219 C 21.078125 11.414062 21.40625 11.09375 21.8125 10.878906 C 22.21875 10.660156 22.707031 10.554688 23.28125 10.554688 M 37.695312 10.554688 C 38.234375 10.554688 38.707031 10.65625 39.105469 10.875 C 39.507812 11.089844 39.835938 11.40625 40.101562 11.820312 C 40.375 12.226562 40.574219 12.722656 40.707031 13.324219 C 40.839844 13.917969 40.902344 14.589844 40.902344 15.347656 C 40.902344 16.09375 40.839844 16.769531 40.722656 17.363281 C 40.609375 17.949219 40.421875 18.449219 40.160156 18.859375 C 39.90625 19.269531 39.574219 19.585938 39.167969 19.804688 C 38.761719 20.019531 38.273438 20.128906 37.695312 20.128906 C 37.15625 20.128906 36.683594 20.019531 36.28125 19.804688 C 35.882812 19.585938 35.554688 19.269531 35.289062 18.859375 C 35.027344 18.449219 34.828125 17.949219 34.691406 17.363281 C 34.566406 16.769531 34.503906 16.09375 34.503906 15.347656 C 34.503906 14.597656 34.558594 13.929688 34.675781 13.335938 C 34.792969 12.742188 34.980469 12.234375 35.234375 11.824219 C 35.492188 11.414062 35.820312 11.09375 36.222656 10.878906 C 36.632812 10.660156 37.121094 10.554688 37.695312 10.554688 M 44.902344 10.554688 C 45.441406 10.554688 45.914062 10.65625 46.308594 10.875 C 46.714844 11.089844 47.042969 11.40625 47.308594 11.820312 C 47.582031 12.226562 47.78125 12.722656 47.910156 13.324219 C 48.046875 13.917969 48.109375 14.589844 48.109375 15.347656 C 48.109375 15.644531 48.105469 15.925781 48.082031 16.195312 C 47.277344 16.625 46.53125 17.1875 45.828125 17.808594 C 45.839844 17.785156 45.851562 17.769531 45.855469 17.746094 C 46.054688 17.214844 46.144531 16.417969 46.144531 15.347656 C 46.144531 14.28125 46.054688 13.480469 45.855469 12.949219 C 45.667969 12.40625 45.34375 12.140625 44.902344 12.140625 C 44.679688 12.140625 44.488281 12.210938 44.328125 12.34375 C 44.175781 12.480469 44.050781 12.679688 43.949219 12.949219 C 43.851562 13.214844 43.78125 13.550781 43.738281 13.957031 C 43.699219 14.351562 43.675781 14.816406 43.675781 15.347656 C 43.675781 16.40625 43.765625 17.203125 43.949219 17.742188 C 44.136719 18.273438 44.453125 18.542969 44.902344 18.542969 C 44.957031 18.542969 45.003906 18.539062 45.050781 18.53125 C 44.589844 18.980469 44.148438 19.449219 43.714844 19.914062 C 43.640625 19.878906 43.5625 19.84375 43.488281 19.804688 C 43.089844 19.585938 42.761719 19.269531 42.492188 18.859375 C 42.234375 18.449219 42.035156 17.949219 41.898438 17.363281 C 41.773438 16.769531 41.710938 16.09375 41.710938 15.347656 C 41.710938 14.597656 41.765625 13.929688 41.878906 13.335938 C 42 12.742188 42.191406 12.234375 42.449219 11.824219 C 42.699219 11.414062 43.027344 11.09375 43.4375 10.878906 C 43.839844 10.660156 44.328125 10.554688 44.90625 10.554688 M 16.082031 10.699219 L 17.707031 10.699219 L 17.707031 20.003906 L 15.730469 20.003906 L 15.730469 14.222656 C 15.730469 14.066406 15.734375 13.90625 15.742188 13.742188 C 15.746094 13.574219 15.757812 13.402344 15.761719 13.234375 C 15.769531 13.0625 15.773438 12.898438 15.78125 12.765625 C 15.757812 12.785156 15.722656 12.832031 15.671875 12.882812 L 15.5 13.050781 C 15.433594 13.109375 15.371094 13.171875 15.304688 13.238281 C 15.234375 13.300781 15.167969 13.359375 15.105469 13.410156 L 14.03125 14.269531 L 13.070312 13.085938 L 16.082031 10.699219 M 30.496094 10.699219 L 32.117188 10.699219 L 32.117188 20.003906 L 30.140625 20.003906 L 30.140625 14.222656 C 30.140625 14.066406 30.148438 13.90625 30.152344 13.742188 C 30.160156 13.574219 30.171875 13.402344 30.175781 13.234375 C 30.183594 13.0625 30.1875 12.90625 30.191406 12.765625 C 30.171875 12.785156 30.136719 12.832031 30.085938 12.882812 L 29.914062 13.050781 C 29.847656 13.109375 29.785156 13.175781 29.714844 13.238281 C 29.648438 13.300781 29.578125 13.359375 29.515625 13.410156 L 28.445312 14.269531 L 27.484375 13.085938 L 30.496094 10.699219 M 23.289062 12.140625 C 23.058594 12.140625 22.867188 12.210938 22.714844 12.34375 C 22.5625 12.480469 22.429688 12.683594 22.332031 12.949219 C 22.230469 13.214844 22.164062 13.554688 22.125 13.957031 C 22.078125 14.351562 22.0625 14.816406 22.0625 15.347656 C 22.0625 16.40625 22.144531 17.203125 22.332031 17.742188 C 22.515625 18.273438 22.832031 18.542969 23.289062 18.542969 C 23.730469 18.542969 24.046875 18.277344 24.242188 17.746094 C 24.433594 17.214844 24.53125 16.417969 24.53125 15.347656 C 24.53125 14.285156 24.433594 13.480469 24.242188 12.949219 C 24.046875 12.414062 23.730469 12.140625 23.289062 12.140625 M 37.699219 12.140625 C 37.472656 12.140625 37.28125 12.210938 37.128906 12.34375 C 36.972656 12.480469 36.84375 12.683594 36.746094 12.949219 C 36.644531 13.214844 36.578125 13.554688 36.535156 13.957031 C 36.492188 14.351562 36.472656 14.816406 36.472656 15.347656 C 36.472656 16.40625 36.558594 17.203125 36.746094 17.742188 C 36.929688 18.273438 37.246094 18.542969 37.699219 18.542969 C 38.144531 18.542969 38.460938 18.277344 38.65625 17.746094 C 38.847656 17.214844 38.945312 16.417969 38.945312 15.347656 C 38.945312 14.285156 38.847656 13.480469 38.65625 12.949219 C 38.460938 12.414062 38.144531 12.140625 37.699219 12.140625 M 16.082031 26.839844 C 16.613281 26.839844 17.085938 26.949219 17.488281 27.164062 C 17.886719 27.378906 18.214844 27.695312 18.488281 28.105469 C 18.753906 28.519531 18.953125 29.019531 19.089844 29.613281 C 19.222656 30.207031 19.289062 30.882812 19.289062 31.636719 C 19.289062 32.386719 19.226562 33.0625 19.109375 33.648438 C 18.988281 34.238281 18.800781 34.734375 18.546875 35.148438 C 18.289062 35.5625 17.960938 35.878906 17.550781 36.09375 C 17.144531 36.308594 16.65625 36.414062 16.082031 36.414062 C 15.535156 36.414062 15.066406 36.308594 14.667969 36.09375 C 14.265625 35.878906 13.933594 35.5625 13.671875 35.148438 C 13.40625 34.734375 13.207031 34.238281 13.078125 33.648438 C 12.945312 33.0625 12.890625 32.386719 12.890625 31.636719 C 12.890625 30.882812 12.941406 30.214844 13.058594 29.621094 C 13.179688 29.027344 13.367188 28.527344 13.621094 28.113281 C 13.878906 27.699219 14.203125 27.382812 14.609375 27.167969 C 15.011719 26.949219 15.5 26.839844 16.082031 26.839844 M 30.496094 26.839844 C 31.027344 26.839844 31.5 26.949219 31.902344 27.164062 C 32.300781 27.378906 32.628906 27.695312 32.902344 28.105469 C 33.167969 28.519531 33.367188 29.019531 33.503906 29.613281 C 33.53125 29.753906 33.554688 29.898438 33.582031 30.050781 C 32.964844 30.652344 32.34375 31.25 31.730469 31.851562 C 31.730469 31.777344 31.738281 31.710938 31.738281 31.636719 C 31.738281 30.574219 31.640625 29.769531 31.449219 29.238281 C 31.253906 28.699219 30.9375 28.429688 30.496094 28.429688 C 30.265625 28.429688 30.074219 28.496094 29.921875 28.632812 C 29.765625 28.769531 29.636719 28.972656 29.539062 29.238281 C 29.4375 29.503906 29.371094 29.84375 29.332031 30.246094 C 29.285156 30.640625 29.269531 31.105469 29.269531 31.636719 C 29.269531 32.6875 29.351562 33.480469 29.535156 34.011719 C 29.089844 34.445312 28.648438 34.882812 28.210938 35.324219 C 28.164062 35.265625 28.125 35.210938 28.085938 35.148438 C 27.820312 34.734375 27.621094 34.242188 27.488281 33.648438 C 27.359375 33.0625 27.300781 32.386719 27.300781 31.636719 C 27.300781 30.882812 27.355469 30.214844 27.472656 29.621094 C 27.59375 29.027344 27.78125 28.527344 28.035156 28.113281 C 28.289062 27.699219 28.613281 27.390625 29.023438 27.167969 C 29.425781 26.949219 29.914062 26.839844 30.496094 26.839844 M 23.289062 26.988281 L 24.910156 26.988281 L 24.910156 36.289062 L 22.9375 36.289062 L 22.9375 30.511719 C 22.9375 30.351562 22.941406 30.195312 22.945312 30.03125 C 22.953125 29.859375 22.964844 29.691406 22.96875 29.519531 C 22.976562 29.351562 22.980469 29.191406 22.988281 29.050781 C 22.964844 29.078125 22.929688 29.121094 22.878906 29.171875 L 22.707031 29.339844 C 22.640625 29.402344 22.578125 29.464844 22.507812 29.527344 C 22.441406 29.589844 22.375 29.644531 22.3125 29.695312 L 21.238281 30.554688 L 20.277344 29.375 L 23.289062 26.988281 M 16.082031 28.429688 C 15.855469 28.429688 15.660156 28.496094 15.507812 28.632812 C 15.355469 28.769531 15.222656 28.972656 15.125 29.238281 C 15.023438 29.507812 14.957031 29.84375 14.917969 30.246094 C 14.871094 30.644531 14.855469 31.109375 14.855469 31.636719 C 14.855469 32.699219 14.941406 33.496094 15.125 34.027344 C 15.308594 34.566406 15.625 34.832031 16.082031 34.832031 C 16.523438 34.832031 16.84375 34.566406 17.035156 34.035156 C 17.226562 33.507812 17.324219 32.703125 17.324219 31.636719 C 17.324219 30.574219 17.226562 29.777344 17.035156 29.238281 C 16.84375 28.699219 16.523438 28.429688 16.082031 28.429688 M 16.082031 43.273438 L 17.707031 43.273438 L 17.707031 49.878906 C 17.421875 50.789062 17.136719 51.695312 16.808594 52.578125 L 15.730469 52.578125 L 15.730469 46.796875 C 15.730469 46.640625 15.734375 46.480469 15.742188 46.316406 C 15.746094 46.148438 15.757812 45.976562 15.761719 45.808594 C 15.769531 45.640625 15.773438 45.480469 15.78125 45.339844 C 15.757812 45.367188 15.722656 45.40625 15.671875 45.457031 L 15.5 45.628906 C 15.433594 45.691406 15.371094 45.75 15.304688 45.8125 C 15.234375 45.875 15.167969 45.933594 15.105469 45.984375 L 14.03125 46.84375 L 13.070312 45.660156 L 16.082031 43.273438 "/>
<path style=" stroke:none;fill-rule:nonzero;fill:url(#linear0);fill-opacity:1;" d="M 51.511719 21.09375 C 51.019531 21.117188 50.597656 21.273438 50.292969 21.574219 L 50.273438 21.59375 L 47.882812 23.980469 L 58.105469 34.152344 L 60.460938 31.800781 L 60.503906 31.765625 C 60.507812 31.761719 60.507812 31.753906 60.511719 31.75 C 61.621094 30.613281 60.773438 27.964844 58.601562 25.800781 L 56.28125 23.488281 C 54.777344 21.988281 53.039062 21.121094 51.734375 21.09375 C 51.660156 21.09375 51.585938 21.089844 51.519531 21.09375 L 51.511719 21.09375 M 46.566406 25.296875 L 44.039062 27.820312 L 54.253906 38 L 56.78125 35.46875 L 46.566406 25.296875 M 42.472656 29.375 L 27.046875 44.738281 L 25.144531 46.628906 L 24.660156 47.109375 L 20.8125 59.121094 C 20.675781 59.761719 20.875 60.425781 21.324219 60.851562 C 21.738281 61.164062 22.257812 61.234375 22.730469 61.042969 L 34.964844 57.199219 L 35.359375 56.796875 L 37.203125 54.964844 L 52.6875 39.546875 L 42.472656 29.375 M 27.359375 48.863281 C 27.375 48.863281 27.386719 48.863281 27.40625 48.863281 L 27.40625 48.867188 C 27.40625 48.867188 27.410156 48.867188 27.410156 48.867188 C 27.523438 48.867188 27.636719 48.917969 27.71875 48.996094 L 28.613281 49.890625 L 31.964844 49.722656 C 32.078125 49.714844 32.191406 49.753906 32.277344 49.828125 C 32.378906 49.917969 32.429688 50.050781 32.425781 50.179688 L 32.261719 53.8125 L 32.925781 54.472656 C 33.03125 54.585938 33.078125 54.742188 33.039062 54.898438 C 33 55.042969 32.878906 55.164062 32.726562 55.203125 L 26.957031 56.742188 C 26.804688 56.785156 26.644531 56.742188 26.53125 56.632812 L 25.410156 55.519531 C 25.296875 55.40625 25.253906 55.242188 25.296875 55.089844 L 26.984375 49.183594 C 27.03125 49.007812 27.179688 48.886719 27.359375 48.863281 M 36.753906 56.59375 L 36.640625 56.707031 L 36.753906 56.707031 Z M 36.753906 56.59375 "/>
<path style=" stroke:none;fill-rule:nonzero;fill:url(#linear0);fill-opacity:1;" d="M 53.992188 42.335938 C 49.246094 47.050781 44.480469 51.753906 39.757812 56.484375 C 39.757812 56.558594 39.75 56.632812 39.746094 56.707031 L 48.96875 56.707031 C 51.757812 56.707031 53.992188 54.472656 53.992188 51.695312 L 53.992188 42.335938 "/>
</g>
</svg>
