<svg xmlns="http://www.w3.org/2000/svg" xmlns:xlink="http://www.w3.org/1999/xlink" width="64" height="64" viewBox="0 0 64 64" version="1.1">
<defs> <linearGradient id="linear0" gradientUnits="userSpaceOnUse" x1="0" y1="0" x2="0" y2="1" gradientTransform="matrix(55.992188,0,0,56,4.003906,4)"> <stop offset="0" style="stop-color:#ff6666;stop-opacity:1;"/> <stop offset="1" style="stop-color:#d90000;stop-opacity:1;"/> </linearGradient> </defs>
<g id="surface1">
<path style=" stroke:none;fill-rule:nonzero;fill:url(#linear0);fill-opacity:1;" d="M 55.328125 10.710938 C 54.917969 10.707031 54.550781 10.785156 54.300781 10.875 C 49.972656 12.304688 45.195312 14.75 40.5 17.917969 L 40.257812 18.082031 C 37.386719 20.007812 35.804688 21.078125 34.351562 23.078125 C 34.007812 23.542969 33.675781 24.039062 33.386719 24.492188 C 32.863281 25.296875 32.039062 26.320312 31.539062 26.773438 C 31.335938 26.960938 31.136719 27.144531 30.953125 27.304688 C 30.691406 27.535156 30.113281 27.863281 29.777344 27.976562 C 29.546875 28.054688 29.285156 28.140625 29.023438 28.21875 C 28.382812 28.421875 27.082031 28.628906 26.121094 28.671875 C 25.582031 28.699219 24.980469 28.742188 24.40625 28.796875 C 21.9375 29.050781 20.222656 29.882812 17.109375 31.386719 L 16.847656 31.515625 C 11.742188 33.988281 7.222656 36.894531 3.835938 39.886719 C 3.269531 40.351562 2.394531 41.589844 3.097656 42.988281 C 3.242188 43.273438 3.554688 43.777344 3.824219 44.226562 C 4 44.523438 4.167969 44.789062 4.25 44.941406 C 4.757812 45.871094 5.300781 46.039062 5.738281 46.171875 C 5.882812 46.214844 5.996094 46.25 6.109375 46.3125 C 6.359375 46.453125 6.597656 46.667969 6.828125 46.945312 C 11.816406 52.996094 12.59375 53.761719 16.261719 53.617188 C 18.015625 53.550781 21.054688 52.4375 23.828125 50.839844 C 25.984375 49.601562 28.945312 47.523438 30.761719 44.675781 C 33.402344 40.539062 30.878906 32.941406 30.75 32.5625 C 30.734375 32.53125 30.378906 31.660156 32.105469 30.664062 L 32.105469 30.65625 L 32.210938 30.601562 C 33.851562 29.664062 34.433594 30.402344 34.496094 30.480469 C 34.726562 30.738281 40.0625 36.707031 44.988281 36.5 C 48.367188 36.359375 51.648438 34.847656 53.8125 33.605469 C 56.582031 32.015625 59.078125 29.945312 60.015625 28.464844 C 61.972656 25.375 61.6875 24.324219 58.917969 17 C 58.792969 16.660156 58.734375 16.34375 58.734375 16.0625 C 58.734375 15.929688 58.769531 15.8125 58.796875 15.671875 C 58.902344 15.222656 59.027344 14.667969 58.476562 13.769531 C 58.382812 13.617188 58.226562 13.347656 58.058594 13.046875 C 57.808594 12.582031 57.519531 12.0625 57.34375 11.796875 C 56.804688 10.976562 56.011719 10.726562 55.328125 10.714844 "/>
</g>
</svg>
