<svg xmlns="http://www.w3.org/2000/svg" xmlns:xlink="http://www.w3.org/1999/xlink" width="64" height="64" viewBox="0 0 64 64" version="1.1">
<defs>
<linearGradient id="linear0" gradientUnits="userSpaceOnUse" x1="0" y1="0" x2="0" y2="1" gradientTransform="matrix(74.65625,0,0,74.666667,5.338541,5.333333)">
<stop offset="0" style="stop-color:#ff6666;stop-opacity:1;"/>
<stop offset="1" style="stop-color:#d90000;stop-opacity:1;"/>
</linearGradient>
</defs>
<g id="surface1">
<path style=" stroke:none;fill-rule:nonzero;fill:url(#linear0);" d="M 22.972656 1.285156 C 22.429688 1.269531 21.882812 1.304688 21.328125 1.410156 C 19.140625 1.816406 17.164062 3.339844 15.722656 5.660156 C 15.707031 5.679688 15.726562 5.671875 15.710938 5.683594 C 15.710938 5.683594 15.710938 5.683594 15.707031 5.683594 C 15.707031 5.679688 15.703125 5.679688 15.703125 5.679688 C 15.6875 5.699219 15.671875 5.710938 15.65625 5.730469 L 15.695312 5.675781 C 13.183594 4.257812 10.375 4.0625 8.105469 5.152344 C 5.832031 6.242188 4.234375 8.40625 3.390625 11.039062 C 3.007812 12.230469 3.660156 13.507812 4.851562 13.890625 C 6.042969 14.277344 7.324219 13.621094 7.707031 12.429688 C 8.269531 10.679688 9.179688 9.664062 10.066406 9.238281 C 10.953125 8.8125 11.953125 8.765625 13.46875 9.625 L 13.386719 9.574219 C 14.339844 10.171875 15.625 10.582031 16.867188 10.230469 C 18.109375 9.878906 18.859375 9.035156 19.433594 8.234375 C 19.46875 8.1875 19.5 8.140625 19.527344 8.089844 C 20.507812 6.480469 21.328125 6.023438 22.15625 5.867188 C 22.988281 5.710938 24.105469 5.933594 25.476562 6.660156 C 26.585938 7.25 27.957031 6.828125 28.542969 5.722656 C 29.128906 4.617188 28.710938 3.242188 27.601562 2.65625 C 26.164062 1.894531 24.601562 1.339844 22.972656 1.285156 Z M 50.035156 8.050781 C 47.378906 8.042969 44.769531 8.917969 42.367188 10.4375 C 42.355469 10.445312 42.34375 10.453125 42.332031 10.457031 C 41.921875 10.730469 41.738281 10.730469 41.09375 10.253906 C 41.074219 10.238281 41.050781 10.222656 41.03125 10.207031 C 38.695312 8.59375 35.878906 7.886719 32.949219 8.179688 C 30.019531 8.472656 26.988281 9.667969 23.734375 11.644531 C 22.601562 12.332031 22.242188 13.808594 22.929688 14.941406 C 23.617188 16.074219 25.09375 16.433594 26.226562 15.746094 C 29.070312 14.019531 31.484375 13.148438 33.425781 12.957031 C 35.371094 12.761719 36.847656 13.152344 38.304688 14.15625 L 38.234375 14.105469 C 40.074219 15.46875 42.835938 15.871094 44.96875 14.472656 L 44.933594 14.492188 C 47 13.1875 48.851562 12.703125 50.695312 12.886719 C 52.542969 13.074219 54.519531 13.960938 56.710938 15.9375 C 57.699219 16.824219 59.214844 16.746094 60.101562 15.761719 C 60.988281 14.777344 60.910156 13.257812 59.925781 12.371094 C 57.179688 9.898438 54.226562 8.417969 51.175781 8.113281 C 50.792969 8.074219 50.414062 8.054688 50.035156 8.050781 Z M 13.914062 16.855469 C 13.183594 16.859375 12.488281 17.183594 12.011719 17.738281 C 2.839844 28.433594 3.347656 44.429688 13.183594 54.515625 C 23.019531 64.601562 38.988281 65.5 49.890625 56.574219 C 56.703125 51 60.152344 42.71875 59.851562 34.449219 C 59.667969 29.488281 58.136719 24.53125 55.164062 20.160156 C 54.378906 19.003906 52.804688 18.703125 51.648438 19.488281 C 50.488281 20.277344 50.1875 21.851562 50.972656 23.007812 C 57.445312 32.527344 55.585938 45.367188 46.679688 52.652344 C 37.777344 59.941406 24.847656 59.21875 16.8125 50.976562 C 8.777344 42.738281 8.363281 29.773438 15.855469 21.035156 C 16.765625 19.972656 16.644531 18.375 15.582031 17.464844 C 15.117188 17.066406 14.523438 16.847656 13.914062 16.855469 Z M 27.414062 22.746094 C 26.160156 22.746094 24.921875 23.125 23.976562 23.964844 C 23.027344 24.800781 22.46875 26.09375 22.46875 27.417969 L 22.46875 48.035156 C 22.46875 49.398438 23 50.765625 24 51.605469 C 24.996094 52.449219 26.230469 52.722656 27.414062 52.722656 L 39.070312 52.722656 C 40.34375 52.722656 41.605469 52.222656 42.4375 51.320312 C 43.273438 50.417969 43.640625 49.21875 43.640625 48.035156 L 43.640625 31.839844 C 43.640625 30.597656 43.285156 29.332031 42.394531 28.425781 C 41.503906 27.523438 40.25 27.167969 39.070312 27.167969 L 35.640625 27.167969 C 34.535156 27.167969 33.640625 28.0625 33.640625 29.167969 C 33.640625 30.269531 34.535156 31.167969 35.640625 31.167969 L 39.070312 31.167969 C 39.53125 31.167969 39.5625 31.25 39.546875 31.234375 C 39.53125 31.21875 39.640625 31.292969 39.640625 31.839844 L 39.640625 48.035156 C 39.640625 48.417969 39.542969 48.5625 39.5 48.609375 C 39.453125 48.65625 39.429688 48.722656 39.070312 48.722656 L 27.414062 48.722656 C 26.855469 48.722656 26.621094 48.582031 26.578125 48.550781 C 26.539062 48.515625 26.46875 48.539062 26.46875 48.035156 L 26.46875 27.417969 C 26.46875 27.089844 26.527344 27.046875 26.625 26.960938 C 26.722656 26.875 26.957031 26.746094 27.414062 26.746094 L 38.921875 26.746094 C 40.027344 26.746094 40.921875 25.847656 40.921875 24.746094 C 40.921875 23.640625 40.027344 22.746094 38.921875 22.746094 Z M 27.414062 22.746094 "/>
</g>
</svg>
