<svg xmlns="http://www.w3.org/2000/svg" xmlns:xlink="http://www.w3.org/1999/xlink" width="64" height="64" viewBox="0 0 64 64" version="1.1">
<defs> <linearGradient id="linear0" gradientUnits="userSpaceOnUse" x1="0" y1="0" x2="0" y2="1" gradientTransform="matrix(55.992188,0,0,56,4.003906,4)"> <stop offset="0" style="stop-color:#ff6666;stop-opacity:1;"/> <stop offset="1" style="stop-color:#d90000;stop-opacity:1;"/> </linearGradient> </defs>
<g id="surface1">
<path style=" stroke:none;fill-rule:nonzero;fill:url(#linear0);fill-opacity:1;" d="M 12.914062 12.101562 C 11.476562 12.101562 10.304688 13.265625 10.3125 14.703125 L 10.3125 49.644531 C 10.304688 51.078125 11.476562 52.246094 12.914062 52.246094 L 51.199219 52.246094 C 51.886719 52.246094 52.550781 51.96875 53.039062 51.480469 C 53.527344 50.996094 53.804688 50.332031 53.800781 49.644531 L 53.800781 14.703125 C 53.804688 13.265625 52.636719 12.101562 51.199219 12.101562 L 12.914062 12.101562 M 15.523438 17.292969 L 29.453125 17.292969 L 29.453125 29.351562 L 15.523438 29.351562 Z M 34.664062 17.292969 L 48.59375 17.292969 L 48.59375 29.351562 L 34.664062 29.351562 Z M 15.523438 34.539062 L 29.453125 34.539062 L 29.453125 47.050781 L 15.523438 47.050781 Z M 34.664062 34.539062 L 48.59375 34.539062 L 48.59375 47.050781 L 34.664062 47.050781 Z M 34.664062 34.539062 "/>
</g>
</svg>
