<svg xmlns="http://www.w3.org/2000/svg" xmlns:xlink="http://www.w3.org/1999/xlink" width="64" height="64" viewBox="0 0 64 64" version="1.1">
<defs> <linearGradient id="linear0" gradientUnits="userSpaceOnUse" x1="0" y1="0" x2="0" y2="1" gradientTransform="matrix(55.992188,0,0,56,4.003906,4)"> <stop offset="0" style="stop-color:#ff6666;stop-opacity:1;"/> <stop offset="1" style="stop-color:#d90000;stop-opacity:1;"/> </linearGradient> </defs>
<g id="surface1">
<path style=" stroke:none;fill-rule:nonzero;fill:url(#linear0);fill-opacity:1;" d="M 31.949219 8.464844 C 29.757812 9.324219 30.085938 12.402344 29.890625 14.386719 C 29.789062 15.960938 30.472656 19.277344 32.703125 18.046875 C 34.363281 16.558594 33.863281 13.996094 33.8125 12.011719 C 33.578125 10.785156 33.539062 8.703125 31.949219 8.464844 M 35.664062 18.996094 C 30.601562 18.898438 25.441406 20.609375 21.855469 24.253906 C 17.25 28.566406 15.449219 36.054688 18.902344 41.582031 C 21.460938 45.761719 26.320312 48.222656 31.128906 48.617188 C 35.378906 48.597656 39.519531 46.621094 42.625 43.804688 C 45.613281 41.136719 46.730469 36.800781 45.542969 33 C 44.390625 28.21875 39.636719 24.652344 34.683594 25.023438 C 30.410156 25.15625 25.941406 27.757812 24.894531 32.105469 C 23.996094 35.363281 26.273438 39.015625 29.351562 40.179688 C 31.492188 41.25 34.628906 38.253906 31.460938 37.207031 C 29.050781 36.503906 27.511719 33.507812 29.539062 31.535156 C 31.753906 28.742188 36.296875 27.558594 39.15625 30.09375 C 41.664062 32.308594 43.273438 36.511719 41.070312 39.46875 C 39.046875 42.132812 36.152344 44.710938 32.566406 44.546875 C 29.949219 44.636719 26.933594 44.726562 25.042969 42.566406 C 23.054688 40.785156 20.960938 38.585938 21.226562 35.695312 C 20.824219 29.121094 26.519531 23.324219 32.917969 22.644531 C 35.402344 22.191406 37.804688 23.015625 40.210938 23.441406 C 44.21875 24.125 42.714844 19.585938 39.78125 19.492188 C 38.445312 19.109375 37.046875 19 35.664062 18.996094 M 10.464844 20.804688 C 6.960938 21.144531 9.96875 24.714844 11.851562 25.289062 C 13.410156 26.320312 17.308594 28.164062 17.507812 25.097656 C 16.230469 23.140625 13.910156 22.113281 11.851562 21.132812 C 11.40625 20.957031 10.945312 20.804688 10.464844 20.804688 M 53.738281 20.804688 C 51.34375 21.316406 49.324219 22.949219 47.445312 24.460938 C 45.066406 25.640625 47.054688 28.988281 49.15625 27.234375 C 51.359375 25.941406 54.011719 24.796875 55.199219 22.40625 C 55.511719 21.496094 54.617188 20.710938 53.738281 20.804688 M 20 45.722656 C 17.671875 46.304688 15.96875 48.28125 14.34375 49.941406 C 12.15625 51.332031 14.015625 54.792969 16.15625 52.691406 C 18.074219 51.113281 20.199219 49.355469 20.976562 46.917969 C 21.09375 46.324219 20.617188 45.710938 20.003906 45.722656 M 42.089844 47.488281 C 39.746094 48.660156 42.484375 51.660156 43.324219 53.15625 C 44.054688 55.179688 48.054688 57.707031 47.777344 53.933594 C 47.082031 51.59375 45.304688 49.683594 43.511719 48.085938 C 43.101562 47.78125 42.625 47.460938 42.089844 47.488281 "/>
</g>
</svg>
