<svg xmlns="http://www.w3.org/2000/svg" xmlns:xlink="http://www.w3.org/1999/xlink" width="64" height="64" viewBox="0 0 64 64" version="1.1">
<defs> <linearGradient id="linear0" gradientUnits="userSpaceOnUse" x1="0" y1="0" x2="0" y2="1" gradientTransform="matrix(55.992188,0,0,56,4.003906,4)"> <stop offset="0" style="stop-color:#ff6666;stop-opacity:1;"/> <stop offset="1" style="stop-color:#d90000;stop-opacity:1;"/> </linearGradient> </defs>
<g id="surface1">
<path style=" stroke:none;fill-rule:nonzero;fill:url(#linear0);fill-opacity:1;" d="M 30.992188 10.683594 C 25.035156 10.902344 18.671875 12.3125 14.273438 16.5625 C 12.257812 18.582031 11.339844 21.871094 12.867188 24.425781 C 14.886719 28.097656 19.039062 29.960938 22.914062 31.074219 C 30.222656 33.066406 38.308594 32.722656 45.230469 29.582031 C 48.28125 28.164062 51.359375 25.765625 51.945312 22.292969 C 52.410156 18.847656 49.71875 15.898438 46.90625 14.300781 C 42.164062 11.429688 36.46875 10.59375 30.992188 10.683594 M 51.925781 26.703125 C 49.929688 30.628906 45.628906 32.652344 41.566406 33.863281 C 34.027344 35.96875 25.644531 35.625 18.488281 32.34375 C 15.863281 31.082031 13.347656 29.253906 12.101562 26.550781 C 12.214844 28.832031 11.863281 31.148438 12.28125 33.40625 C 13.214844 36.917969 16.519531 39.074219 19.636719 40.492188 C 25.886719 43.082031 33.03125 43.398438 39.636719 42.035156 C 43.699219 41.035156 47.960938 39.414062 50.570312 35.996094 C 52.019531 34.199219 52.132812 31.851562 51.984375 29.640625 C 52.011719 28.609375 51.988281 27.582031 51.996094 26.546875 L 51.925781 26.691406 L 51.925781 26.703125 M 12.09375 42.867188 C 12.203125 46.339844 15.105469 48.96875 17.964844 50.519531 C 23.640625 53.453125 30.289062 54.128906 36.597656 53.410156 C 41.285156 52.734375 46.179688 51.300781 49.644531 47.929688 C 51.496094 46.183594 52.285156 43.582031 51.984375 41.070312 C 52.007812 39.835938 51.988281 38.609375 51.996094 37.375 C 50.121094 41.300781 45.871094 43.371094 41.898438 44.597656 C 34.304688 46.804688 25.84375 46.5 18.613281 43.234375 C 15.949219 41.960938 13.34375 40.125 12.09375 37.371094 L 12.09375 42.867188 "/>
</g>
</svg>
