<svg xmlns="http://www.w3.org/2000/svg" xmlns:xlink="http://www.w3.org/1999/xlink" width="64" height="64" viewBox="0 0 64 64" version="1.1">
<defs>
<linearGradient id="linear0" gradientUnits="userSpaceOnUse" x1="0" y1="0" x2="0" y2="1" gradientTransform="matrix(74.65625,0,0,74.666667,5.338541,5.333333)">
<stop offset="0" style="stop-color:#ff6666;stop-opacity:1;"/>
<stop offset="1" style="stop-color:#d90000;stop-opacity:1;"/>
</linearGradient>
</defs>
<g id="surface1">
<path style=" stroke:none;fill-rule:nonzero;fill:url(#linear0);" d="M 22.96875 1.289062 C 22.429688 1.269531 21.878906 1.308594 21.324219 1.410156 C 19.136719 1.820312 17.160156 3.339844 15.71875 5.65625 C 15.699219 5.679688 15.722656 5.671875 15.710938 5.6875 C 15.710938 5.683594 15.707031 5.683594 15.707031 5.683594 C 15.703125 5.683594 15.703125 5.683594 15.699219 5.679688 C 15.6875 5.703125 15.667969 5.710938 15.65625 5.734375 L 15.691406 5.679688 C 13.183594 4.261719 10.371094 4.0625 8.101562 5.148438 C 5.828125 6.242188 4.238281 8.410156 3.390625 11.039062 C 3.007812 12.230469 3.660156 13.507812 4.851562 13.890625 C 6.042969 14.273438 7.320312 13.621094 7.703125 12.429688 C 8.269531 10.679688 9.179688 9.664062 10.0625 9.238281 C 10.949219 8.8125 11.953125 8.765625 13.46875 9.625 L 13.386719 9.578125 C 14.339844 10.171875 15.625 10.582031 16.867188 10.230469 C 18.109375 9.878906 18.855469 9.035156 19.429688 8.234375 C 19.464844 8.1875 19.496094 8.140625 19.523438 8.09375 C 20.507812 6.484375 21.328125 6.019531 22.15625 5.867188 C 22.984375 5.710938 24.105469 5.933594 25.476562 6.664062 C 26.585938 7.25 27.957031 6.828125 28.542969 5.722656 C 29.128906 4.617188 28.707031 3.242188 27.601562 2.65625 C 26.160156 1.894531 24.597656 1.34375 22.96875 1.289062 Z M 50.035156 8.054688 C 47.378906 8.042969 44.769531 8.917969 42.367188 10.4375 C 42.355469 10.445312 42.34375 10.453125 42.328125 10.460938 C 41.917969 10.730469 41.738281 10.730469 41.09375 10.253906 C 41.074219 10.238281 41.050781 10.222656 41.027344 10.203125 C 38.691406 8.59375 35.875 7.890625 32.945312 8.179688 C 30.019531 8.472656 26.984375 9.667969 23.734375 11.644531 C 22.601562 12.332031 22.242188 13.808594 22.929688 14.941406 C 23.617188 16.074219 25.09375 16.433594 26.226562 15.746094 C 29.070312 14.019531 31.480469 13.152344 33.421875 12.957031 C 35.367188 12.761719 36.847656 13.152344 38.300781 14.15625 L 38.234375 14.109375 C 40.058594 15.464844 42.804688 15.867188 44.929688 14.492188 L 44.96875 14.472656 C 47.019531 13.183594 48.859375 12.703125 50.695312 12.890625 C 52.542969 13.074219 54.519531 13.960938 56.710938 15.9375 C 57.699219 16.824219 59.214844 16.746094 60.101562 15.761719 C 60.988281 14.777344 60.910156 13.257812 59.925781 12.371094 C 57.179688 9.898438 54.226562 8.421875 51.175781 8.113281 C 50.792969 8.074219 50.414062 8.054688 50.035156 8.054688 Z M 13.914062 16.855469 C 13.183594 16.859375 12.488281 17.183594 12.011719 17.738281 C 2.839844 28.433594 3.34375 44.425781 13.179688 54.515625 C 23.019531 64.601562 38.984375 65.496094 49.886719 56.574219 C 56.703125 50.996094 60.152344 42.722656 59.851562 34.453125 C 59.667969 29.492188 58.132812 24.535156 55.164062 20.164062 C 54.378906 19.007812 52.800781 18.707031 51.644531 19.492188 C 50.488281 20.277344 50.1875 21.851562 50.972656 23.007812 C 57.445312 32.53125 55.585938 45.367188 46.679688 52.65625 C 37.777344 59.941406 24.84375 59.21875 16.808594 50.976562 C 8.773438 42.738281 8.363281 29.773438 15.855469 21.039062 C 16.765625 19.976562 16.644531 18.375 15.582031 17.464844 C 15.117188 17.066406 14.527344 16.851562 13.914062 16.855469 Z M 31.1875 23.0625 C 30.753906 23.074219 30.34375 23.257812 30.046875 23.578125 C 28.714844 25.035156 27.4375 27.460938 26.6875 30.835938 C 25.535156 30.554688 24.5625 30.199219 23.757812 29.808594 C 24.917969 28.433594 26.273438 27.40625 27.519531 26.773438 C 28.308594 26.375 28.625 25.414062 28.226562 24.625 C 27.960938 24.101562 27.429688 23.761719 26.84375 23.746094 C 26.578125 23.738281 26.3125 23.796875 26.074219 23.917969 C 22.265625 25.84375 17.824219 30.375 17.824219 37.273438 C 17.824219 41.09375 19.207031 44.171875 20.949219 46.398438 C 22.695312 48.625 24.757812 50.03125 26.367188 50.765625 C 27.171875 51.132812 28.121094 50.78125 28.488281 49.976562 C 28.652344 49.617188 28.675781 49.210938 28.558594 48.835938 C 29.109375 49.816406 29.683594 50.589844 30.21875 51.117188 C 30.851562 51.738281 31.863281 51.734375 32.484375 51.101562 C 32.609375 50.972656 32.714844 50.824219 32.789062 50.660156 C 32.867188 50.824219 32.972656 50.972656 33.097656 51.101562 C 33.71875 51.734375 34.730469 51.738281 35.359375 51.117188 C 36.605469 49.890625 38.066406 47.449219 38.898438 43.671875 C 40.085938 43.953125 41.082031 44.316406 41.902344 44.726562 C 40.574219 46.292969 39.003906 47.359375 37.964844 47.835938 C 37.160156 48.203125 36.808594 49.152344 37.171875 49.953125 C 37.539062 50.757812 38.488281 51.113281 39.292969 50.746094 C 40.902344 50.011719 42.96875 48.601562 44.710938 46.375 C 46.457031 44.148438 47.835938 41.074219 47.835938 37.25 C 47.835938 30.355469 43.394531 25.820312 39.585938 23.898438 C 39.367188 23.785156 39.125 23.726562 38.875 23.726562 C 38.269531 23.722656 37.710938 24.0625 37.4375 24.601562 C 37.035156 25.390625 37.351562 26.355469 38.140625 26.753906 C 39.394531 27.386719 40.761719 28.421875 41.921875 29.808594 C 41.101562 30.222656 40.101562 30.589844 38.902344 30.875 C 38.15625 27.480469 36.871094 25.039062 35.535156 23.578125 C 35.226562 23.242188 34.789062 23.054688 34.328125 23.0625 C 33.9375 23.066406 33.5625 23.214844 33.273438 23.480469 C 33.027344 23.703125 32.859375 23.996094 32.789062 24.320312 C 32.71875 23.996094 32.550781 23.703125 32.308594 23.480469 C 32.003906 23.199219 31.601562 23.050781 31.1875 23.0625 Z M 32.792969 25 C 32.851562 25.277344 32.984375 25.53125 33.175781 25.742188 C 33.953125 26.585938 35.023438 28.5 35.703125 31.375 C 34.800781 31.460938 33.847656 31.515625 32.8125 31.515625 C 31.773438 31.515625 30.800781 31.457031 29.882812 31.363281 C 30.5625 28.496094 31.632812 26.585938 32.40625 25.742188 C 32.601562 25.53125 32.734375 25.277344 32.792969 25 Z M 43.648438 32.527344 C 44.257812 33.890625 44.636719 35.464844 44.636719 37.25 C 44.636719 39.097656 44.246094 40.667969 43.640625 42.015625 C 42.433594 41.359375 41.015625 40.851562 39.394531 40.488281 C 39.492188 39.476562 39.5625 38.417969 39.5625 37.261719 C 39.5625 36.125 39.492188 35.074219 39.390625 34.0625 C 41.019531 33.699219 42.441406 33.1875 43.648438 32.527344 Z M 22.023438 32.53125 C 23.207031 33.160156 24.605469 33.664062 26.195312 34.027344 C 26.09375 35.050781 26.023438 36.109375 26.023438 37.261719 C 26.023438 38.429688 26.089844 39.5 26.191406 40.519531 C 24.601562 40.886719 23.203125 41.390625 22.015625 42.019531 C 21.414062 40.675781 21.023438 39.109375 21.023438 37.273438 C 21.023438 35.476562 21.410156 33.898438 22.023438 32.53125 Z M 29.367188 34.539062 C 30.453125 34.652344 31.597656 34.714844 32.8125 34.714844 C 34.019531 34.714844 35.148438 34.65625 36.21875 34.554688 C 36.300781 35.40625 36.359375 36.296875 36.359375 37.261719 C 36.359375 38.238281 36.304688 39.140625 36.21875 39.992188 C 35.148438 39.890625 34.019531 39.832031 32.8125 39.832031 C 31.601562 39.832031 30.457031 39.894531 29.367188 40.003906 C 29.28125 39.144531 29.222656 38.242188 29.222656 37.261719 C 29.222656 36.292969 29.28125 35.398438 29.367188 34.539062 Z M 32.8125 43.03125 C 33.839844 43.03125 34.789062 43.082031 35.683594 43.164062 C 34.902344 46.394531 33.660156 48.304688 33.117188 48.839844 C 32.984375 48.972656 32.875 49.128906 32.792969 49.296875 C 32.710938 49.128906 32.601562 48.972656 32.46875 48.839844 C 31.921875 48.304688 30.683594 46.402344 29.902344 43.179688 C 30.816406 43.085938 31.78125 43.03125 32.8125 43.03125 Z M 26.695312 43.710938 C 27.101562 45.5625 27.65625 47.089844 28.273438 48.300781 C 28.117188 48.109375 27.921875 47.957031 27.695312 47.855469 C 26.65625 47.378906 25.082031 46.3125 23.753906 44.742188 C 24.558594 44.347656 25.539062 43.992188 26.695312 43.710938 Z M 26.695312 43.710938 "/>
</g>
</svg>
