<svg xmlns="http://www.w3.org/2000/svg" xmlns:xlink="http://www.w3.org/1999/xlink" width="64" height="64" viewBox="0 0 64 64" version="1.1">
<defs>
<linearGradient id="linear0" gradientUnits="userSpaceOnUse" x1="0" y1="0" x2="0" y2="1" gradientTransform="matrix(74.65625,0,0,74.666667,5.338541,5.333333)">
<stop offset="0" style="stop-color:#ff6666;stop-opacity:1;"/>
<stop offset="1" style="stop-color:#d90000;stop-opacity:1;"/>
</linearGradient>
</defs>
<g id="surface1">
<path style=" stroke:none;fill-rule:nonzero;fill:url(#linear0);" d="M 22.972656 1.289062 C 22.429688 1.269531 21.878906 1.304688 21.324219 1.410156 C 19.140625 1.816406 17.167969 3.339844 15.726562 5.65625 C 15.703125 5.679688 15.730469 5.667969 15.714844 5.6875 C 15.710938 5.683594 15.710938 5.683594 15.707031 5.683594 C 15.707031 5.683594 15.703125 5.683594 15.699219 5.679688 C 15.6875 5.703125 15.667969 5.710938 15.65625 5.734375 L 15.691406 5.679688 C 13.183594 4.261719 10.375 4.0625 8.105469 5.152344 C 5.832031 6.242188 4.238281 8.410156 3.390625 11.039062 C 3.003906 12.230469 3.660156 13.511719 4.855469 13.894531 C 6.046875 14.277344 7.320312 13.621094 7.707031 12.429688 C 8.269531 10.679688 9.179688 9.664062 10.066406 9.238281 C 10.953125 8.8125 11.953125 8.765625 13.472656 9.625 L 13.386719 9.578125 C 14.339844 10.171875 15.628906 10.582031 16.871094 10.234375 C 18.109375 9.882812 18.855469 9.035156 19.433594 8.234375 C 19.464844 8.1875 19.496094 8.140625 19.527344 8.09375 C 20.507812 6.484375 21.328125 6.023438 22.160156 5.867188 C 22.988281 5.714844 24.105469 5.933594 25.480469 6.664062 C 26.585938 7.25 27.957031 6.828125 28.542969 5.722656 C 29.128906 4.617188 28.710938 3.242188 27.605469 2.65625 C 26.164062 1.894531 24.597656 1.339844 22.972656 1.289062 Z M 50.035156 8.054688 C 47.378906 8.042969 44.769531 8.917969 42.367188 10.4375 C 42.355469 10.445312 42.34375 10.453125 42.332031 10.460938 C 41.921875 10.730469 41.738281 10.730469 41.097656 10.253906 C 41.074219 10.238281 41.050781 10.222656 41.027344 10.207031 C 38.691406 8.59375 35.878906 7.890625 32.949219 8.179688 C 30.023438 8.472656 26.984375 9.667969 23.734375 11.644531 C 22.601562 12.332031 22.242188 13.808594 22.929688 14.941406 C 23.617188 16.074219 25.09375 16.433594 26.226562 15.746094 C 29.070312 14.019531 31.484375 13.148438 33.425781 12.957031 C 35.371094 12.761719 36.847656 13.152344 38.300781 14.15625 L 38.238281 14.109375 C 40.074219 15.472656 42.835938 15.871094 44.96875 14.472656 L 44.933594 14.496094 C 46.996094 13.191406 48.847656 12.703125 50.695312 12.890625 C 52.542969 13.074219 54.519531 13.960938 56.714844 15.9375 C 57.699219 16.828125 59.214844 16.746094 60.105469 15.761719 C 60.988281 14.777344 60.910156 13.261719 59.925781 12.375 C 57.179688 9.898438 54.226562 8.417969 51.175781 8.113281 C 50.796875 8.074219 50.414062 8.054688 50.035156 8.054688 Z M 13.914062 16.855469 C 13.179688 16.859375 12.488281 17.183594 12.011719 17.738281 C 2.835938 28.433594 3.347656 44.429688 13.183594 54.515625 C 23.019531 64.605469 38.988281 65.496094 49.890625 56.574219 C 56.703125 50.996094 60.15625 42.722656 59.851562 34.453125 C 59.667969 29.488281 58.136719 24.53125 55.167969 20.164062 C 54.378906 19.003906 52.804688 18.703125 51.644531 19.492188 C 50.488281 20.277344 50.191406 21.851562 50.976562 23.007812 C 57.445312 32.53125 55.582031 45.367188 46.679688 52.65625 C 37.773438 59.941406 24.847656 59.21875 16.8125 50.976562 C 8.777344 42.738281 8.363281 29.773438 15.855469 21.039062 C 16.765625 19.976562 16.644531 18.375 15.582031 17.464844 C 15.117188 17.066406 14.523438 16.851562 13.914062 16.855469 Z M 13.914062 16.855469 "/>
</g>
</svg>
