<svg xmlns="http://www.w3.org/2000/svg" xmlns:xlink="http://www.w3.org/1999/xlink" width="64" height="64" viewBox="0 0 64 64" version="1.1">
<defs> <linearGradient id="linear0" gradientUnits="userSpaceOnUse" x1="0" y1="0" x2="0" y2="1" gradientTransform="matrix(55.992188,0,0,56,4.003906,4)"> <stop offset="0" style="stop-color:#ff6666;stop-opacity:1;"/> <stop offset="1" style="stop-color:#d90000;stop-opacity:1;"/> </linearGradient> </defs>
<g id="surface1">
<path style=" stroke:none;fill-rule:nonzero;fill:url(#linear0);fill-opacity:1;" d="M 9.40625 9.347656 L 55.152344 9.347656 C 55.417969 9.347656 55.636719 9.664062 55.636719 10.050781 L 55.636719 16.355469 C 55.636719 16.746094 55.417969 17.0625 55.152344 17.0625 L 9.40625 17.0625 C 9.140625 17.0625 8.925781 16.746094 8.925781 16.355469 L 8.925781 10.050781 C 8.925781 9.664062 9.140625 9.347656 9.40625 9.347656 Z M 9.40625 9.347656 "/>
<path style=" stroke:none;fill-rule:nonzero;fill:url(#linear0);fill-opacity:1;" d="M 9.527344 18.84375 L 55.039062 18.84375 C 55.300781 18.84375 55.515625 19.15625 55.515625 19.542969 L 55.515625 46.617188 C 55.515625 47 55.300781 47.320312 55.039062 47.320312 L 9.527344 47.320312 C 9.261719 47.320312 9.042969 47 9.042969 46.617188 L 9.042969 19.542969 C 9.042969 19.15625 9.261719 18.84375 9.527344 18.84375 Z M 9.527344 18.84375 "/>
<path style=" stroke:none;fill-rule:nonzero;fill:url(#linear0);fill-opacity:1;" d="M 9.527344 48.625 L 55.15625 48.625 C 55.417969 48.625 55.636719 48.941406 55.636719 49.324219 L 55.636719 49.460938 C 55.636719 49.851562 55.417969 50.167969 55.15625 50.167969 L 9.527344 50.167969 C 9.261719 50.167969 9.042969 49.851562 9.042969 49.460938 L 9.042969 49.324219 C 9.042969 48.941406 9.261719 48.625 9.527344 48.625 Z M 9.527344 48.625 "/>
</g>
</svg>
