<svg xmlns="http://www.w3.org/2000/svg" xmlns:xlink="http://www.w3.org/1999/xlink" width="64" height="64" viewBox="0 0 64 64" version="1.1">
<defs> <linearGradient id="linear0" gradientUnits="userSpaceOnUse" x1="0" y1="0" x2="0" y2="1" gradientTransform="matrix(55.992188,0,0,56,4.003906,4)"> <stop offset="0" style="stop-color:#ff6666;stop-opacity:1;"/> <stop offset="1" style="stop-color:#d90000;stop-opacity:1;"/> </linearGradient> </defs>
<g id="surface1">
<path style=" stroke:none;fill-rule:evenodd;fill:url(#linear0);fill-opacity:1;" d="M 40.109375 6.746094 C 38.511719 6.707031 36.890625 6.832031 35.277344 7.152344 C 30.359375 8.132812 19.703125 13.695312 14.628906 20.003906 C 14.066406 20.699219 14.054688 20.753906 13.730469 21.171875 C 9.503906 21.429688 6.746094 20.488281 5.59375 21.292969 C 4.097656 22.339844 6.402344 28.265625 8.386719 31.804688 C 8.214844 32.53125 8.117188 33.296875 8.171875 34.152344 C 8.351562 37.171875 8.773438 39.730469 9.339844 41.960938 C 7.121094 42.273438 5.585938 43.285156 5.59375 44.433594 C 5.59375 45.429688 6.746094 46.335938 8.554688 46.757812 C 8.515625 47.289062 8.785156 47.804688 9.464844 48.285156 C 12.539062 50.457031 14.445312 51.695312 15.785156 52.402344 C 19.492188 54.878906 23.953125 54.878906 27.808594 54.078125 C 32.964844 53.003906 37.972656 51.304688 41.574219 48.703125 C 42.898438 48.136719 44.03125 47.449219 44.925781 46.628906 C 45.851562 46.226562 46.265625 46.035156 47.054688 45.695312 C 49.785156 44.507812 53.816406 42.589844 57.167969 40.960938 C 60.519531 39.332031 63.925781 39.484375 63.925781 39.484375 C 63.925781 39.484375 59.347656 34.480469 56.265625 33.40625 C 54.089844 32.648438 49.347656 33.40625 49.347656 33.40625 C 49.347656 33.40625 53.125 30.316406 55.273438 29.1875 C 57.832031 27.847656 63.414062 26.210938 63.414062 26.210938 C 63.414062 26.210938 59.070312 22.648438 56.15625 21.746094 C 51.125 20.179688 49.066406 20.980469 48.332031 21.5 C 48.847656 21.007812 51.164062 18.796875 52.789062 17.898438 C 55.46875 16.417969 61.511719 14.976562 61.511719 14.976562 C 61.511719 14.976562 51.308594 7.011719 40.109375 6.746094 Z M 25.042969 26.867188 C 29.652344 26.867188 29.585938 36.046875 27.28125 40.640625 C 24.972656 45.230469 15.824219 40.640625 15.824219 40.640625 L 11.207031 41.640625 C 11.207031 41.640625 10.363281 40.65625 10.226562 40.039062 C 9.601562 37.230469 8.398438 32.140625 11.207031 31.460938 C 13.90625 30.816406 15.824219 38.34375 15.824219 38.34375 C 15.824219 38.34375 17.109375 32.359375 19.058594 30.160156 C 20.566406 28.453125 22.742188 26.867188 25.042969 26.867188 Z M 23.855469 31.613281 C 22.582031 31.613281 21.550781 33.667969 21.550781 36.207031 C 21.550781 38.738281 22.582031 40.796875 23.855469 40.792969 C 25.128906 40.792969 26.160156 38.738281 26.160156 36.207031 C 26.160156 33.671875 25.128906 31.617188 23.855469 31.613281 Z M 12.941406 34.164062 C 11.988281 34.164062 11.214844 35.703125 11.214844 37.601562 C 11.214844 39.507812 11.988281 41.046875 12.941406 41.050781 C 13.894531 41.046875 14.671875 39.507812 14.671875 37.601562 C 14.667969 35.703125 13.894531 34.164062 12.941406 34.164062 Z M 12.941406 34.164062 "/>
</g>
</svg>
