<svg xmlns="http://www.w3.org/2000/svg" xmlns:xlink="http://www.w3.org/1999/xlink" width="64" height="64" viewBox="0 0 64 64" version="1.1">
<defs> <linearGradient id="linear0" gradientUnits="userSpaceOnUse" x1="0" y1="0" x2="0" y2="1" gradientTransform="matrix(55.992188,0,0,56,4.003906,4)"> <stop offset="0" style="stop-color:#ff6666;stop-opacity:1;"/> <stop offset="1" style="stop-color:#d90000;stop-opacity:1;"/> </linearGradient> </defs>
<g id="surface1">
<path style=" stroke:none;fill-rule:nonzero;fill:url(#linear0);fill-opacity:1;" d="M 14.609375 50.011719 L 11.027344 48.257812 L 12.519531 45.484375 C 13.34375 43.960938 13.929688 42.640625 13.835938 42.554688 C 13.722656 42.472656 12.84375 41.820312 11.867188 41.132812 C 1.257812 33.457031 2.058594 20.964844 13.597656 13.738281 C 23.191406 7.753906 38.183594 7.097656 48.808594 12.210938 C 54.039062 14.726562 57.566406 17.972656 59.515625 22.09375 C 60.503906 24.199219 60.871094 25.730469 60.894531 27.890625 C 60.921875 33.410156 57.71875 38.558594 51.882812 42.351562 L 51.3125 42.71875 L 52.6875 45.304688 C 53.449219 46.722656 54.097656 47.964844 54.125 48.058594 C 54.199219 48.230469 47.070312 51.773438 46.65625 51.773438 C 46.554688 51.773438 43.386719 46.039062 39.644531 39.015625 C 35.882812 31.992188 32.753906 26.257812 32.667969 26.257812 C 32.589844 26.257812 29.453125 31.96875 25.703125 38.964844 C 21.71875 46.398438 18.734375 51.695312 18.539062 51.722656 C 18.351562 51.769531 16.585938 50.984375 14.597656 50.023438 M 24.253906 24.136719 C 27.761719 17.742188 30.578125 12.464844 30.535156 12.414062 C 30.496094 12.375 29.5 12.464844 28.320312 12.59375 C 12.921875 14.484375 5.144531 24.449219 12.921875 32.382812 C 14.460938 33.949219 17.519531 36.09375 17.8125 35.820312 C 17.847656 35.78125 20.75 30.523438 24.253906 24.136719 M 50.480469 34.039062 C 53.0625 32.210938 54.867188 29.582031 55.273438 27.082031 C 56.351562 20.363281 48.832031 14.238281 37.597656 12.671875 C 36.152344 12.480469 34.925781 12.363281 34.855469 12.425781 C 34.753906 12.515625 44.0625 29.777344 46.792969 34.554688 L 47.582031 35.941406 L 48.316406 35.511719 C 48.710938 35.285156 49.6875 34.605469 50.480469 34.039062 "/>
</g>
</svg>
