<svg xmlns="http://www.w3.org/2000/svg" xmlns:xlink="http://www.w3.org/1999/xlink" width="64" height="64" viewBox="0 0 64 64" version="1.1">
<defs>
<linearGradient id="linear0" gradientUnits="userSpaceOnUse" x1="0" y1="0" x2="0" y2="1" gradientTransform="matrix(61.398438,0,0,64,0,0)">
<stop offset="0" style="stop-color:#ff6666;stop-opacity:1;"/>
<stop offset="1" style="stop-color:#d90000;stop-opacity:1;"/>
</linearGradient>
</defs>
<g id="surface1">
<path style=" stroke:none;fill-rule:evenodd;fill:url(#linear0);" d="M 58.765625 1.261719 C 57.59375 0.269531 55.304688 0.0117188 53.3125 0 C 51.320312 -0.00390625 49.179688 0.144531 47.183594 1.425781 C 41.585938 4.28125 36.839844 7.566406 32.597656 11.101562 C 34.414062 14.5 36.675781 17.554688 39.351562 20.292969 L 34.09375 26.011719 L 4.957031 3.828125 C 4.78125 3.335938 4.53125 2.914062 4.222656 2.605469 C 3.96875 2.445312 3.695312 2.363281 3.417969 2.359375 C 2.863281 1.996094 2.234375 1.996094 1.675781 2.359375 C 1.121094 2.722656 0.675781 3.417969 0.453125 4.289062 C -0.140625 5.515625 -0.152344 7.191406 0.429688 8.417969 C 0.863281 8.707031 1.347656 8.769531 1.8125 8.601562 L 7.945312 13.273438 C 7.851562 13.425781 7.835938 13.691406 7.9375 14.097656 C 8.539062 15.117188 10.441406 16.90625 13.882812 19.53125 C 14.023438 19.636719 14.203125 19.769531 14.402344 19.917969 C 15.214844 20.523438 16.378906 21.386719 16.796875 21.890625 C 17.71875 22.996094 18.464844 24.035156 18.90625 24.953125 L 28.179688 32.4375 L 2.503906 60.351562 C 2.125 60.769531 1.921875 61.316406 1.949219 61.882812 C 1.96875 62.445312 2.214844 62.976562 2.632812 63.359375 C 3.046875 63.742188 3.597656 63.941406 4.160156 63.917969 C 4.726562 63.894531 5.257812 63.648438 5.636719 63.230469 L 30.554688 36.140625 C 30.621094 36.828125 30.839844 37.503906 31.183594 38.101562 C 31.703125 38.960938 32.398438 39.714844 33.214844 40.296875 C 33.898438 40.839844 34.648438 41.269531 35.464844 41.578125 C 36.128906 41.820312 36.832031 41.953125 37.550781 41.953125 C 38.148438 41.941406 38.75 41.859375 39.328125 41.710938 L 41.882812 44.324219 L 42.734375 48.085938 L 51.425781 62.636719 C 51.96875 63.542969 52.242188 63.902344 53.335938 63.980469 C 54.003906 64.042969 54.640625 63.953125 55.230469 63.839844 C 57.058594 63.492188 58.664062 62.226562 60.203125 60.953125 L 60.425781 60.78125 C 61.46875 60 61.542969 59.941406 61.222656 58.507812 C 61.011719 57.410156 60.6875 56.453125 59.515625 55.851562 L 48.589844 47.882812 L 46.402344 40.855469 L 45.820312 38.402344 C 46.304688 34.515625 45.539062 34.109375 43.003906 32.765625 L 42.921875 32.722656 L 42.917969 32.730469 L 37.492188 28.597656 L 42.464844 23.191406 C 44.910156 25.261719 47.625 27.128906 50.589844 28.800781 C 54.246094 23.667969 57.742188 18.449219 60.421875 12.828125 C 61.273438 10.972656 61.746094 9.335938 61.085938 7.070312 C 60.738281 4.917969 60.070312 2.367188 58.765625 1.261719 Z M 31.636719 35.695312 C 31.640625 35.546875 31.648438 35.398438 31.664062 35.25 L 38.039062 40.398438 L 38.410156 40.777344 C 38.128906 40.820312 37.839844 40.84375 37.550781 40.847656 C 36.964844 40.847656 36.390625 40.738281 35.851562 40.539062 C 35.144531 40.265625 34.472656 39.890625 33.875 39.414062 C 33.171875 38.917969 32.585938 38.277344 32.132812 37.539062 C 31.8125 36.976562 31.636719 36.347656 31.636719 35.695312 Z M 31.636719 35.695312 "/>
</g>
</svg>
