<svg xmlns="http://www.w3.org/2000/svg" xmlns:xlink="http://www.w3.org/1999/xlink" width="64" height="64" viewBox="0 0 64 64" version="1.1">
<defs>
<linearGradient id="linear0" gradientUnits="userSpaceOnUse" x1="0" y1="0" x2="0" y2="1" gradientTransform="matrix(20.0625,0,0,25.539062,43.9375,7.460937)">
<stop offset="0" style="stop-color:#ff6666;stop-opacity:1;"/>
<stop offset="1" style="stop-color:#d90000;stop-opacity:1;"/>
</linearGradient>
<linearGradient id="linear1" gradientUnits="userSpaceOnUse" x1="0" y1="0" x2="0" y2="1" gradientTransform="matrix(48.953125,0,0,49.042969,6.488281,7.5)">
<stop offset="0" style="stop-color:#ff6666;stop-opacity:1;"/>
<stop offset="1" style="stop-color:#d90000;stop-opacity:1;"/>
</linearGradient>
<linearGradient id="linear2" gradientUnits="userSpaceOnUse" x1="0" y1="0" x2="0" y2="1" gradientTransform="matrix(23.886719,0,0,26.910156,-0.00390625,27.5)">
<stop offset="0" style="stop-color:#ff6666;stop-opacity:1;"/>
<stop offset="1" style="stop-color:#d90000;stop-opacity:1;"/>
</linearGradient>
</defs>
<g id="surface1">
<path style=" stroke:none;fill-rule:nonzero;fill:url(#linear0);" d="M 51.730469 7.464844 C 51.386719 7.492188 51.058594 7.5625 50.742188 7.667969 L 50.726562 7.640625 L 50.515625 7.738281 C 50.335938 7.8125 50.171875 7.894531 50.003906 7.996094 L 43.9375 11.261719 C 51.558594 16.476562 55.707031 23.8125 55.375 33 C 57.28125 32.003906 58.808594 31.085938 60.710938 30.324219 C 60.765625 30.308594 60.828125 30.285156 60.882812 30.269531 C 61.011719 30.214844 61.132812 30.167969 61.257812 30.109375 C 61.320312 30.070312 61.386719 30.035156 61.453125 29.996094 C 61.566406 29.9375 61.675781 29.867188 61.785156 29.796875 C 61.945312 29.683594 62.101562 29.554688 62.242188 29.421875 C 62.386719 29.273438 62.523438 29.121094 62.648438 28.953125 C 62.730469 28.847656 62.8125 28.730469 62.878906 28.621094 C 62.949219 28.523438 63.007812 28.433594 63.0625 28.328125 C 63.148438 28.183594 63.21875 28.027344 63.292969 27.875 C 63.324219 27.796875 63.363281 27.71875 63.398438 27.636719 C 63.46875 27.460938 63.53125 27.277344 63.585938 27.09375 C 63.617188 27.003906 63.644531 26.910156 63.667969 26.824219 C 63.71875 26.652344 63.761719 26.46875 63.792969 26.28125 C 63.820312 26.171875 63.839844 26.050781 63.863281 25.933594 C 63.890625 25.746094 63.914062 25.558594 63.9375 25.363281 C 63.949219 25.246094 63.960938 25.125 63.96875 25.003906 C 63.988281 24.808594 63.992188 24.609375 63.992188 24.410156 C 64 24.265625 64.003906 24.128906 64 23.984375 C 64 23.8125 63.988281 23.632812 63.976562 23.457031 C 63.96875 23.289062 63.964844 23.117188 63.949219 22.945312 C 63.941406 22.882812 63.9375 22.820312 63.933594 22.761719 C 63.863281 22.105469 63.761719 21.429688 63.609375 20.742188 C 63.605469 20.714844 63.597656 20.683594 63.585938 20.65625 C 63.433594 19.953125 63.226562 19.234375 62.980469 18.523438 L 62.972656 18.488281 C 62.972656 18.480469 62.960938 18.46875 62.960938 18.457031 C 62.703125 17.746094 62.414062 17.035156 62.085938 16.34375 C 62.0625 16.296875 62.046875 16.261719 62.03125 16.21875 C 61.671875 15.46875 61.273438 14.742188 60.839844 14.046875 C 60.53125 13.5625 60.207031 13.09375 59.875 12.648438 C 59.84375 12.605469 59.816406 12.558594 59.785156 12.515625 C 59.457031 12.085938 59.117188 11.667969 58.769531 11.277344 C 58.714844 11.21875 58.667969 11.175781 58.617188 11.125 C 58.3125 10.789062 58 10.472656 57.679688 10.179688 C 57.625 10.128906 57.570312 10.070312 57.511719 10.019531 C 57.152344 9.699219 56.785156 9.398438 56.410156 9.128906 C 56.382812 9.109375 56.355469 9.089844 56.324219 9.066406 C 56.007812 8.84375 55.691406 8.640625 55.367188 8.464844 C 55.277344 8.40625 55.171875 8.351562 55.070312 8.296875 C 54.722656 8.113281 54.375 7.957031 54.03125 7.828125 C 53.996094 7.820312 53.96875 7.8125 53.9375 7.800781 C 53.617188 7.691406 53.292969 7.609375 52.980469 7.550781 C 52.894531 7.535156 52.808594 7.523438 52.722656 7.511719 C 52.386719 7.464844 52.050781 7.449219 51.730469 7.464844 Z M 51.730469 7.464844 "/>
<path style=" stroke:none;fill-rule:evenodd;fill:url(#linear1);" d="M 6.488281 29.90625 C 7.558594 17.355469 18.089844 7.5 30.921875 7.5 C 44.464844 7.5 55.441406 18.480469 55.441406 32.023438 C 55.441406 34.980469 54.914062 37.8125 53.914062 40.410156 C 55.273438 35.785156 54.519531 31.609375 51.988281 29.773438 C 51.191406 29.203125 50.257812 28.878906 49.21875 28.828125 C 45.785156 28.664062 41.730469 31.484375 39.019531 35.933594 C 37.28125 38.792969 36.285156 42.015625 36.253906 44.902344 C 36.214844 47.800781 37.15625 50.109375 38.855469 51.335938 C 40.945312 52.839844 43.953125 52.535156 46.910156 50.507812 C 47.46875 50.023438 48.003906 49.515625 48.519531 48.992188 C 48.746094 48.746094 48.976562 48.503906 49.230469 48.285156 C 50.511719 46.785156 51.648438 45.164062 52.628906 43.457031 C 52.996094 42.664062 53.359375 41.871094 53.683594 41.058594 C 53.390625 41.890625 53.027344 42.683594 52.628906 43.457031 C 51.691406 45.207031 50.558594 46.835938 49.230469 48.285156 C 49.03125 48.554688 48.804688 48.804688 48.519531 48.992188 C 44.113281 53.667969 37.851562 56.542969 30.921875 56.542969 C 25.757812 56.542969 20.964844 54.949219 17.011719 52.21875 L 21.292969 50.113281 L 21.289062 50.105469 C 21.609375 49.9375 21.902344 49.71875 22.167969 49.460938 C 23.484375 48.148438 24.078125 45.789062 23.824219 42.902344 C 23.566406 40.023438 22.480469 36.851562 20.804688 34.089844 C 18.429688 30.167969 15.199219 27.621094 12.457031 27.503906 C 11.921875 27.480469 11.410156 27.550781 10.949219 27.710938 Z M 30.921875 7.5 C 26.796875 7.511719 22.734375 8.5625 19.125 10.554688 C 17.785156 11.558594 17.0625 12.714844 17.058594 13.898438 C 17.058594 15.597656 18.519531 17.222656 21.121094 18.425781 C 23.71875 19.625 27.242188 20.296875 30.921875 20.296875 C 34.597656 20.296875 38.121094 19.625 40.71875 18.425781 C 43.320312 17.222656 44.78125 15.597656 44.78125 13.898438 C 44.78125 12.6875 44.035156 11.503906 42.636719 10.484375 C 39.042969 8.527344 35.011719 7.5 30.921875 7.5 Z M 30.921875 7.5 "/>
<path style=" stroke:none;fill-rule:nonzero;fill:url(#linear2);" d="M 12.457031 27.503906 C 11.921875 27.480469 11.410156 27.550781 10.949219 27.710938 L 3.054688 31.601562 C 2.824219 31.683594 2.609375 31.796875 2.394531 31.925781 L 2.335938 31.957031 C 2.117188 32.101562 1.90625 32.269531 1.71875 32.457031 C 0.398438 33.769531 -0.199219 36.121094 0.0546875 39 C 0.320312 41.882812 1.398438 45.058594 3.078125 47.824219 C 6.136719 52.867188 10.480469 55.472656 13.378906 54.003906 L 21.292969 50.113281 L 21.289062 50.105469 C 21.609375 49.9375 21.902344 49.71875 22.167969 49.460938 C 23.484375 48.148438 24.078125 45.789062 23.824219 42.902344 C 23.566406 40.023438 22.480469 36.851562 20.804688 34.089844 C 18.429688 30.167969 15.199219 27.621094 12.457031 27.503906 Z M 12.457031 27.503906 "/>
</g>
</svg>
