<svg xmlns="http://www.w3.org/2000/svg" xmlns:xlink="http://www.w3.org/1999/xlink" width="64" height="64" viewBox="0 0 64 64" version="1.1">
<defs>
<linearGradient id="linear0" gradientUnits="userSpaceOnUse" x1="0" y1="0" x2="0" y2="1" gradientTransform="matrix(64,0,0,53.335938,0,5.332031)">
<stop offset="0" style="stop-color:#ff6666;stop-opacity:1;"/>
<stop offset="1" style="stop-color:#d90000;stop-opacity:1;"/>
</linearGradient>
</defs>
<g id="surface1">
<path style=" stroke:none;fill-rule:nonzero;fill:url(#linear0);" d="M 0 58.667969 L 64 58.667969 L 64 5.332031 L 0 5.332031 Z M 5.332031 10.667969 L 29.332031 10.667969 L 29.332031 21.332031 L 5.332031 21.332031 Z M 34.667969 10.667969 L 58.667969 10.667969 L 58.667969 21.332031 L 34.667969 21.332031 Z M 5.332031 26.667969 L 29.332031 26.667969 L 29.332031 37.332031 L 5.332031 37.332031 Z M 34.667969 26.667969 L 58.667969 26.667969 L 58.667969 37.332031 L 34.667969 37.332031 Z M 5.332031 42.667969 L 29.332031 42.667969 L 29.332031 53.332031 L 5.332031 53.332031 Z M 34.667969 42.667969 L 58.667969 42.667969 L 58.667969 53.332031 L 34.667969 53.332031 Z M 34.667969 42.667969 "/>
</g>
</svg>
