<svg xmlns="http://www.w3.org/2000/svg" xmlns:xlink="http://www.w3.org/1999/xlink" width="64px" height="64px" viewBox="0 0 64 64" version="1.1">
<defs>
<linearGradient id="linear0" gradientUnits="userSpaceOnUse" x1="0" y1="128" x2="128" y2="0" gradientTransform="matrix(0.432432,0,0,0.432432,4.324324,4.324324)">
<stop offset="0" style="stop-color:#ff6666;stop-opacity:1;"/>
<stop offset="1" style="stop-color:#d90000;stop-opacity:1;"/>
</linearGradient>
</defs>
<g id="surface1">
<path style=" stroke:none;fill-rule:nonzero;fill:url(#linear0);" d="M 34.59375 9.527344 C 32.222656 9.597656 29.632812 10.53125 26.8125 13.214844 C 18.488281 10.394531 15.449219 14.488281 11.960938 17.988281 C 16.9375 15.820312 21.929688 13.863281 27.664062 16.972656 C 30.515625 13.9375 33.988281 11.273438 42.527344 11.648438 C 40.402344 10.816406 37.898438 9.578125 35.066406 9.527344 C 34.914062 9.523438 34.753906 9.523438 34.59375 9.527344 Z M 49.066406 19.257812 C 42.808594 19.261719 35.75 20.535156 29.960938 29.824219 C 24.820312 29.796875 21.035156 30.753906 18.121094 32.335938 C 12.5625 35.363281 10.175781 40.664062 7.636719 45.757812 C 14.5625 39.414062 21.667969 33.40625 32.796875 35.269531 C 35.761719 28.695312 40.800781 23.609375 54.988281 19.417969 C 53.15625 19.386719 51.15625 19.257812 49.066406 19.257812 Z M 37.445312 37.714844 C 35.535156 37.714844 33.972656 39.289062 33.972656 41.203125 L 33.972656 51.40625 C 33.972656 53.316406 35.535156 54.890625 37.445312 54.890625 L 52.109375 54.890625 C 54.019531 54.890625 55.59375 53.316406 55.59375 51.40625 L 55.59375 41.203125 C 55.59375 39.289062 54.019531 37.714844 52.109375 37.714844 Z M 37.445312 39.878906 L 43.378906 39.878906 L 43.378906 44.878906 L 36.136719 44.878906 L 36.136719 41.203125 C 36.136719 40.453125 36.695312 39.878906 37.445312 39.878906 Z M 46.230469 39.878906 L 52.109375 39.878906 C 52.859375 39.878906 53.433594 40.453125 53.433594 41.203125 L 53.433594 44.878906 L 46.230469 44.878906 Z M 36.136719 47.730469 L 43.378906 47.730469 L 43.378906 52.730469 L 37.445312 52.730469 C 36.695312 52.730469 36.136719 52.15625 36.136719 51.40625 Z M 46.230469 47.730469 L 53.433594 47.730469 L 53.433594 51.40625 C 53.433594 52.15625 52.859375 52.730469 52.109375 52.730469 L 46.230469 52.730469 Z M 46.230469 47.730469 "/>
</g>
</svg>
