<svg xmlns="http://www.w3.org/2000/svg" xmlns:xlink="http://www.w3.org/1999/xlink" width="64px" height="64px" viewBox="0 0 64 64" version="1.1">
<defs>
<linearGradient id="linear0" gradientUnits="userSpaceOnUse" x1="0" y1="128" x2="128" y2="0" gradientTransform="matrix(0.432432,0,0,0.432432,4.324324,4.324324)">
<stop offset="0" style="stop-color:#ff6666;stop-opacity:1;"/>
<stop offset="1" style="stop-color:#d90000;stop-opacity:1;"/>
</linearGradient>
</defs>
<g id="surface1">
<path style=" stroke:none;fill-rule:nonzero;fill:url(#linear0);" d="M 34.59375 9.527344 C 32.222656 9.597656 29.632812 10.53125 26.8125 13.214844 C 18.488281 10.394531 15.449219 14.488281 11.960938 17.988281 C 16.9375 15.820312 21.929688 13.863281 27.664062 16.972656 C 30.515625 13.9375 33.988281 11.273438 42.527344 11.648438 C 40.402344 10.816406 37.898438 9.578125 35.066406 9.527344 C 34.914062 9.523438 34.753906 9.523438 34.59375 9.527344 Z M 49.066406 19.257812 C 42.808594 19.261719 35.75 20.535156 29.960938 29.824219 C 24.820312 29.796875 21.035156 30.753906 18.121094 32.335938 C 12.5625 35.363281 10.175781 40.664062 7.636719 45.757812 C 14.5625 39.414062 21.667969 33.40625 32.796875 35.269531 C 35.761719 28.695312 40.800781 23.609375 54.988281 19.417969 C 53.15625 19.386719 51.15625 19.257812 49.066406 19.257812 Z M 39.933594 35.703125 L 39.933594 36.203125 L 47.3125 45.664062 L 39.933594 54.378906 L 39.933594 54.890625 L 54.769531 54.890625 L 55.59375 49.09375 L 55.054688 48.960938 C 54.707031 50.308594 54.1875 51.195312 53.488281 51.621094 C 52.789062 52.046875 51.78125 52.257812 50.460938 52.257812 L 43.164062 52.257812 L 49.824219 44.40625 L 43.972656 36.90625 L 50.527344 36.90625 C 51.488281 36.90625 52.191406 37.015625 52.636719 37.242188 C 53.078125 37.46875 53.4375 37.839844 53.6875 38.351562 C 53.941406 38.851562 54.09375 39.574219 54.164062 40.527344 L 54.703125 40.527344 L 54.324219 35.703125 Z M 39.933594 35.703125 "/>
</g>
</svg>
