<svg xmlns="http://www.w3.org/2000/svg" xmlns:xlink="http://www.w3.org/1999/xlink" width="64px" height="64px" viewBox="0 0 64 64" version="1.1">
<defs>
<linearGradient id="linear0" gradientUnits="userSpaceOnUse" x1="0" y1="128" x2="128" y2="0" gradientTransform="matrix(0.432432,0,0,0.432432,4.324324,4.324324)">
<stop offset="0" style="stop-color:#ff6666;stop-opacity:1;"/>
<stop offset="1" style="stop-color:#d90000;stop-opacity:1;"/>
</linearGradient>
</defs>
<g id="surface1">
<path style=" stroke:none;fill-rule:nonzero;fill:url(#linear0);" d="M 34.59375 9.527344 C 32.222656 9.597656 29.632812 10.53125 26.8125 13.214844 C 18.488281 10.394531 15.449219 14.488281 11.960938 17.988281 C 16.9375 15.820312 21.929688 13.863281 27.664062 16.972656 C 30.515625 13.9375 33.988281 11.273438 42.527344 11.648438 C 40.402344 10.816406 37.898438 9.578125 35.066406 9.527344 C 34.914062 9.523438 34.753906 9.523438 34.59375 9.527344 Z M 49.066406 19.257812 C 42.808594 19.261719 35.75 20.535156 29.960938 29.824219 C 24.820312 29.796875 21.035156 30.753906 18.121094 32.335938 C 12.5625 35.363281 10.175781 40.664062 7.636719 45.757812 C 14.5625 39.414062 21.667969 33.40625 32.796875 35.269531 C 35.761719 28.695312 40.800781 23.609375 54.988281 19.417969 C 53.15625 19.386719 51.15625 19.257812 49.066406 19.257812 Z M 46.066406 28.296875 L 46.066406 32.390625 L 40.214844 38.242188 C 39.902344 38.0625 39.539062 37.945312 39.148438 37.945312 C 37.957031 37.945312 36.988281 38.929688 36.988281 40.121094 C 36.988281 40.511719 37.105469 40.863281 37.285156 41.175781 L 31.433594 47.027344 L 27.335938 47.027344 L 27.335938 51.933594 L 32.242188 51.933594 L 32.242188 47.835938 L 37.636719 42.445312 C 35.539062 46.488281 35.699219 51.515625 38.472656 55.511719 L 39.378906 54.863281 C 36.683594 50.980469 36.703125 46.039062 39.011719 42.257812 C 39.0625 42.261719 39.101562 42.285156 39.148438 42.285156 C 40.339844 42.285156 41.324219 41.3125 41.324219 40.121094 C 41.324219 39.953125 41.28125 39.765625 41.242188 39.609375 C 41.574219 39.316406 41.925781 39.039062 42.296875 38.785156 C 46.027344 36.195312 50.925781 36.027344 54.824219 38.351562 L 55.390625 37.378906 C 53.257812 36.105469 50.863281 35.511719 48.472656 35.59375 C 46.589844 35.660156 44.734375 36.160156 43.027344 37.054688 L 46.878906 33.203125 L 50.972656 33.203125 L 50.972656 28.296875 Z M 47.203125 29.433594 L 49.835938 29.433594 L 49.835938 32.066406 L 47.203125 32.066406 Z M 28.472656 48.164062 L 31.109375 48.164062 L 31.109375 50.796875 L 28.472656 50.796875 Z M 28.472656 48.164062 "/>
</g>
</svg>
