<svg xmlns="http://www.w3.org/2000/svg" xmlns:xlink="http://www.w3.org/1999/xlink" width="64" height="64" viewBox="0 0 64 64" version="1.1">
<defs> <linearGradient id="linear0" gradientUnits="userSpaceOnUse" x1="0" y1="0" x2="0" y2="1" gradientTransform="matrix(55.992188,0,0,56,4.003906,4)"> <stop offset="0" style="stop-color:#ff6666;stop-opacity:1;"/> <stop offset="1" style="stop-color:#d90000;stop-opacity:1;"/> </linearGradient> </defs>
<g id="surface1">
<path style=" stroke:none;fill-rule:evenodd;fill:url(#linear0);fill-opacity:1;" d="M 31.714844 6.238281 L 30.5 9.15625 C 28.285156 14.472656 26.886719 14.824219 21.726562 11.363281 L 18.875 9.449219 L 16.796875 10.875 C 13.433594 13.199219 13.371094 13.371094 14.644531 17.027344 C 16.671875 22.851562 16.347656 23.457031 10.625 24.59375 C 8.835938 24.953125 7.070312 25.628906 6.695312 26.105469 C 6.320312 26.585938 6.011719 28.203125 6.019531 29.707031 C 6.019531 32.4375 6.023438 32.445312 8.449219 33.441406 C 11.789062 34.804688 13.609375 36.347656 13.609375 37.800781 C 13.609375 38.472656 12.628906 40.414062 11.429688 42.121094 L 9.238281 45.226562 L 11.203125 47.882812 C 12.28125 49.34375 13.328125 50.535156 13.519531 50.53125 C 13.71875 50.519531 15.222656 50.039062 16.863281 49.460938 C 21.367188 47.882812 22.742188 48.019531 23.613281 50.132812 C 24.003906 51.101562 24.492188 53.046875 24.695312 54.449219 C 24.917969 55.980469 25.441406 57.222656 25.984375 57.542969 C 26.492188 57.835938 28.136719 58.082031 29.652344 58.09375 L 32.402344 58.109375 L 33.617188 55.195312 C 35.828125 49.878906 37.222656 49.53125 42.386719 52.992188 L 45.242188 54.902344 L 47.316406 53.464844 C 50.683594 51.148438 50.738281 50.976562 49.46875 47.320312 C 47.445312 41.492188 47.765625 40.886719 53.488281 39.75 C 55.277344 39.394531 57.050781 38.714844 57.425781 38.234375 C 57.792969 37.761719 58.101562 36.113281 58.101562 34.578125 L 58.101562 31.777344 L 55.691406 30.859375 C 52.425781 29.621094 50.507812 28.023438 50.507812 26.550781 C 50.507812 25.878906 51.488281 23.933594 52.6875 22.226562 L 54.875 19.113281 L 52.886719 16.421875 C 51.257812 14.21875 50.683594 13.789062 49.746094 14.085938 C 49.121094 14.289062 47.179688 14.851562 45.4375 15.34375 C 42.289062 16.230469 42.265625 16.230469 41.273438 15.003906 C 40.714844 14.324219 39.988281 12.378906 39.644531 10.683594 C 39.300781 8.980469 38.625 7.285156 38.144531 6.910156 C 37.667969 6.542969 36.027344 6.238281 34.492188 6.238281 L 31.714844 6.238281 M 32.1875 21.523438 C 39.613281 21.585938 45.242188 29.921875 41.535156 37.078125 C 39.898438 40.226562 35.265625 43.019531 31.789062 42.953125 C 31.191406 42.941406 29.722656 42.589844 28.53125 42.167969 C 24.039062 40.589844 20.652344 35.027344 21.480469 30.617188 C 22.265625 26.460938 25.460938 22.953125 29.425781 21.890625 C 30.246094 21.671875 31.046875 21.550781 31.835938 21.53125 C 31.953125 21.53125 32.066406 21.523438 32.1875 21.523438 "/>
</g>
</svg>
