<svg xmlns="http://www.w3.org/2000/svg" xmlns:xlink="http://www.w3.org/1999/xlink" width="64" height="64" viewBox="0 0 64 64" version="1.1">
<defs> <linearGradient id="linear0" gradientUnits="userSpaceOnUse" x1="0" y1="0" x2="0" y2="1" gradientTransform="matrix(55.992188,0,0,56,4.003906,4)"> <stop offset="0" style="stop-color:#ff6666;stop-opacity:1;"/> <stop offset="1" style="stop-color:#d90000;stop-opacity:1;"/> </linearGradient> </defs>
<g id="surface1">
<path style=" stroke:none;fill-rule:evenodd;fill:url(#linear0);fill-opacity:1;" d="M 32.097656 4.179688 C 28.722656 4.179688 25.570312 4.851562 22.640625 6.199219 C 19.714844 7.550781 17.085938 9.550781 14.734375 12.175781 C 12.191406 14.964844 10.300781 17.996094 9.105469 21.246094 C 7.902344 24.5 7.324219 28.152344 7.324219 32.207031 C 7.324219 36.261719 7.902344 39.925781 9.105469 43.171875 C 10.304688 46.4375 12.191406 49.457031 14.734375 52.246094 C 17.0625 54.84375 19.679688 56.832031 22.601562 58.171875 C 25.523438 59.503906 28.699219 60.167969 32.097656 60.167969 C 35.492188 60.167969 38.65625 59.503906 41.578125 58.171875 C 44.511719 56.832031 47.128906 54.84375 49.457031 52.246094 C 51.976562 49.472656 53.839844 46.46875 55.027344 43.222656 C 56.214844 39.988281 56.789062 36.308594 56.789062 32.207031 C 56.789062 28.101562 56.214844 24.425781 55.027344 21.191406 C 53.847656 17.949219 51.972656 14.941406 49.449219 12.175781 C 47.105469 9.550781 44.46875 7.550781 41.546875 6.199219 C 38.625 4.847656 35.464844 4.179688 32.097656 4.179688 M 32.097656 7.867188 C 35.910156 7.867188 38.335938 9.320312 39.707031 12.128906 C 41.175781 15.140625 42.003906 21.726562 42.003906 32.207031 C 42.003906 42.691406 41.175781 49.28125 39.707031 52.285156 C 38.335938 55.101562 35.910156 56.554688 32.097656 56.554688 C 28.257812 56.554688 25.804688 55.089844 24.417969 52.25 C 22.9375 49.21875 22.101562 42.640625 22.101562 32.207031 C 22.101562 21.773438 22.9375 15.207031 24.417969 12.171875 C 25.804688 9.335938 28.257812 7.867188 32.097656 7.867188 "/>
<path style=" stroke:none;fill-rule:nonzero;fill:url(#linear0);fill-opacity:1;" d="M 51.285156 36.488281 L 49.832031 37.324219 L 51.683594 48.84375 L 53.035156 48.066406 L 52.496094 45.148438 L 56.765625 42.691406 L 59.03125 44.613281 L 60.367188 43.851562 Z M 51.285156 38.167969 L 55.75 41.859375 L 52.265625 43.863281 Z M 47.15625 38.863281 L 39.144531 43.472656 L 39.761719 44.546875 L 43.128906 42.613281 L 47.972656 50.976562 L 49.261719 50.238281 L 44.417969 41.871094 L 47.78125 39.9375 Z M 38.21875 44 L 32.226562 47.449219 L 37.699219 56.882812 L 43.804688 53.375 L 43.179688 52.300781 L 38.359375 55.070312 L 36.378906 51.652344 L 40.886719 49.058594 L 40.269531 47.984375 L 35.753906 50.574219 L 34.132812 47.78125 L 38.84375 45.074219 Z M 28.910156 49.972656 C 28.222656 49.960938 27.445312 50.195312 26.59375 50.6875 L 23.316406 52.570312 L 28.789062 62.003906 L 32.191406 60.054688 C 33.253906 59.445312 33.9375 58.742188 34.25 57.949219 C 34.554688 57.160156 34.464844 56.34375 33.976562 55.5 C 33.605469 54.855469 33.125 54.425781 32.523438 54.207031 C 31.925781 53.976562 31.277344 53.976562 30.566406 54.199219 C 31.046875 53.816406 31.316406 53.375 31.390625 52.878906 C 31.464844 52.378906 31.335938 51.84375 31 51.265625 C 30.5625 50.519531 29.964844 50.09375 29.207031 49.992188 C 29.109375 49.980469 29.011719 49.976562 28.910156 49.972656 Z M 28.535156 51.328125 C 28.59375 51.328125 28.648438 51.332031 28.707031 51.34375 C 29.152344 51.402344 29.511719 51.667969 29.789062 52.140625 C 30.070312 52.625 30.121094 53.070312 29.949219 53.484375 C 29.777344 53.890625 29.382812 54.273438 28.757812 54.636719 L 26.855469 55.726562 L 25.207031 52.882812 L 27.105469 51.792969 C 27.65625 51.476562 28.132812 51.324219 28.535156 51.328125 Z M 30.902344 55.101562 C 31.035156 55.09375 31.164062 55.101562 31.289062 55.121094 C 31.785156 55.214844 32.203125 55.546875 32.542969 56.140625 C 32.886719 56.722656 32.96875 57.253906 32.800781 57.734375 C 32.636719 58.203125 32.210938 58.640625 31.515625 59.035156 L 29.460938 60.222656 L 27.457031 56.761719 L 29.511719 55.582031 C 30.027344 55.28125 30.496094 55.121094 30.902344 55.101562 Z M 30.902344 55.101562 "/>
</g>
</svg>
