<svg xmlns="http://www.w3.org/2000/svg" xmlns:xlink="http://www.w3.org/1999/xlink" width="64" height="64" viewBox="0 0 64 64" version="1.1">
<defs>
<linearGradient id="linear0" gradientUnits="userSpaceOnUse" x1="0" y1="0" x2="0" y2="1" gradientTransform="matrix(64,0,0,64,0,0)">
<stop offset="0" style="stop-color:#ff6666;stop-opacity:1;"/>
<stop offset="1" style="stop-color:#d90000;stop-opacity:1;"/>
</linearGradient>
<filter id="alpha" filterUnits="objectBoundingBox" x="0%" y="0%" width="100%" height="100%">
  <feColorMatrix type="matrix" in="SourceGraphic" values="0 0 0 0 1 0 0 0 0 1 0 0 0 0 1 0 0 0 1 0"/>
</filter>
<mask id="mask0">
  <g filter="url(#alpha)">
<rect x="0" y="0" width="64" height="64" style="fill:rgb(0%,0%,0%);fill-opacity:0.7;stroke:none;"/>
  </g>
</mask>
<linearGradient id="linear1" gradientUnits="userSpaceOnUse" x1="0" y1="0" x2="0" y2="1" gradientTransform="matrix(48,0,0,8,8,28)">
<stop offset="0" style="stop-color:#ff6666;stop-opacity:1;"/>
<stop offset="1" style="stop-color:#d90000;stop-opacity:1;"/>
</linearGradient>
<clipPath id="clip1">
  <rect x="0" y="0" width="64" height="64"/>
</clipPath>
<g id="surface5" clip-path="url(#clip1)">
<path style=" stroke:none;fill-rule:evenodd;fill:url(#linear1);" d="M 13.769531 28 L 13.769531 36 L 14.796875 36 L 14.796875 28 Z M 15.828125 28 L 15.828125 36 L 17.886719 36 L 17.886719 28 Z M 18.917969 36 L 18.917969 28 L 19.949219 28 L 19.949219 36 Z M 20.980469 28 L 20.980469 36 L 22.007812 36 L 22.007812 28 Z M 23.039062 36 L 23.039062 28 L 25.097656 28 L 25.097656 36 Z M 28.1875 28 L 28.1875 36 L 30.25 36 L 30.25 28 Z M 26.128906 36 L 26.128906 28 L 27.160156 28 L 27.160156 36 Z M 31.277344 28 L 31.277344 36 L 34.367188 36 L 34.367188 28 Z M 35.398438 36 L 35.398438 28 L 36.429688 28 L 36.429688 36 Z M 37.460938 28 L 37.460938 36 L 38.488281 36 L 38.488281 28 Z M 39.519531 36 L 39.519531 28 L 40.550781 28 L 40.550781 36 Z M 41.578125 28 L 41.578125 36 L 43.640625 36 L 43.640625 28 Z M 44.667969 36 L 44.667969 28 L 45.699219 28 L 45.699219 36 Z M 50.847656 28 L 50.847656 36 L 51.878906 36 L 51.878906 28 Z M 46.730469 36 L 46.730469 28 L 49.820312 28 L 49.820312 36 Z M 52.910156 28 L 52.910156 36 L 53.941406 36 L 53.941406 28 Z M 54.96875 36 L 54.96875 28 L 56 28 L 56 36 Z M 8 32 L 11.707031 29 L 11.707031 35 Z M 8 32 "/>
</g>
<mask id="mask1">
  <g filter="url(#alpha)">
<rect x="0" y="0" width="64" height="64" style="fill:rgb(0%,0%,0%);fill-opacity:0.6;stroke:none;"/>
  </g>
</mask>
<linearGradient id="linear2" gradientUnits="userSpaceOnUse" x1="0" y1="0" x2="0" y2="1" gradientTransform="matrix(45.972656,0,0,6,8,44)">
<stop offset="0" style="stop-color:#ff6666;stop-opacity:1;"/>
<stop offset="1" style="stop-color:#d90000;stop-opacity:1;"/>
</linearGradient>
<clipPath id="clip2">
  <rect x="0" y="0" width="64" height="64"/>
</clipPath>
<g id="surface8" clip-path="url(#clip2)">
<path style=" stroke:none;fill-rule:evenodd;fill:url(#linear2);" d="M 10.695312 46.535156 L 10.09375 44 L 11.800781 44 L 11.230469 46.542969 L 13.246094 45.003906 L 13.972656 46.3125 L 11.414062 47.023438 L 13.902344 47.867188 L 13.164062 49.175781 L 11.25 47.519531 L 11.800781 50 L 10.09375 50 L 10.695312 47.480469 L 8.71875 49.136719 L 8 47.8125 L 10.519531 47.019531 L 8.015625 46.191406 L 8.742188 44.894531 Z M 18.695312 46.535156 L 18.09375 44 L 19.800781 44 L 19.230469 46.542969 L 21.246094 45.003906 L 21.972656 46.3125 L 19.414062 47.023438 L 21.902344 47.867188 L 21.164062 49.175781 L 19.25 47.519531 L 19.800781 50 L 18.09375 50 L 18.695312 47.480469 L 16.71875 49.136719 L 16 47.8125 L 18.519531 47.019531 L 16.015625 46.191406 L 16.742188 44.894531 Z M 26.09375 44 L 26.695312 46.535156 L 24.742188 44.894531 L 24.015625 46.191406 L 26.519531 47.019531 L 24 47.8125 L 24.71875 49.136719 L 26.695312 47.480469 L 26.09375 50 L 27.800781 50 L 27.25 47.519531 L 29.164062 49.175781 L 29.902344 47.867188 L 27.414062 47.023438 L 29.972656 46.3125 L 29.246094 45.003906 L 27.230469 46.542969 L 27.796875 44 Z M 34.695312 46.535156 L 34.09375 44 L 35.796875 44 L 35.230469 46.542969 L 37.246094 45.003906 L 37.972656 46.3125 L 35.414062 47.023438 L 37.902344 47.867188 L 37.164062 49.175781 L 35.25 47.519531 L 35.800781 50 L 34.09375 50 L 34.695312 47.480469 L 32.71875 49.136719 L 32 47.8125 L 34.519531 47.019531 L 32.015625 46.191406 L 32.742188 44.894531 Z M 42.09375 44 L 42.691406 46.535156 L 40.742188 44.894531 L 40.015625 46.191406 L 42.523438 47.019531 L 40 47.8125 L 40.71875 49.136719 L 42.695312 47.480469 L 42.09375 50 L 43.800781 50 L 43.25 47.519531 L 45.164062 49.175781 L 45.90625 47.867188 L 43.414062 47.023438 L 45.972656 46.3125 L 45.246094 45.003906 L 43.230469 46.542969 L 43.796875 44 Z M 50.691406 46.535156 L 50.09375 44 L 51.796875 44 L 51.230469 46.542969 L 53.246094 45.003906 L 53.972656 46.3125 L 51.414062 47.023438 L 53.90625 47.867188 L 53.164062 49.175781 L 51.25 47.519531 L 51.800781 50 L 50.09375 50 L 50.695312 47.480469 L 48.71875 49.136719 L 48 47.8125 L 50.523438 47.019531 L 48.015625 46.191406 L 48.742188 44.894531 Z M 50.691406 46.535156 "/>
</g>
</defs>
<g id="surface1">
<path style=" stroke:none;fill-rule:evenodd;fill:url(#linear0);" d="M 14.355469 0.0117188 C 14.878906 0.0117188 15.417969 0.0078125 15.976562 0 L 48.023438 0 C 48.582031 0.0078125 49.121094 0.0117188 49.644531 0.0117188 C 53.863281 0.0390625 57.070312 0.0625 59.75 1.539062 C 61.253906 2.371094 62.441406 3.777344 63.101562 5.53125 C 63.761719 7.285156 64 9.371094 64 12 L 64 52 C 64 54.628906 63.757812 56.714844 63.101562 58.46875 C 62.441406 60.222656 61.253906 61.628906 59.75 62.460938 C 57.070312 63.9375 53.863281 63.960938 49.644531 63.988281 C 49.121094 63.988281 48.582031 63.992188 48.023438 64 L 15.976562 64 C 15.417969 63.992188 14.878906 63.988281 14.351562 63.988281 C 10.136719 63.960938 6.925781 63.9375 4.25 62.460938 C 2.746094 61.628906 1.558594 60.222656 0.898438 58.46875 C 0.238281 56.714844 0 54.628906 0 52 L 0 12 C 0 9.371094 0.238281 7.285156 0.898438 5.53125 C 1.558594 3.777344 2.746094 2.371094 4.25 1.539062 C 6.929688 0.0625 10.136719 0.0390625 14.355469 0.0117188 Z M 48 4 L 16 4 C 10.964844 4.058594 7.644531 4.238281 6.179688 5.046875 C 5.445312 5.453125 5.03125 5.898438 4.640625 6.9375 C 4.25 7.976562 4 9.628906 4 12 L 60 12 C 60 9.628906 59.75 7.976562 59.359375 6.9375 C 58.96875 5.898438 58.546875 5.453125 57.8125 5.046875 C 56.347656 4.238281 53.035156 4.058594 48 4 Z M 60 22.289062 L 4 22.289062 L 4 52 C 4 54.371094 4.25 56.023438 4.640625 57.0625 C 5.03125 58.101562 5.445312 58.546875 6.179688 58.953125 C 7.644531 59.761719 10.964844 59.941406 16 60 L 48 60 C 53.035156 59.941406 56.347656 59.761719 57.8125 58.953125 C 58.546875 58.546875 58.96875 58.101562 59.359375 57.0625 C 59.75 56.023438 60 54.371094 60 52 Z M 60 22.289062 "/>
<use xlink:href="#surface5" mask="url(#mask0)"/>
<use xlink:href="#surface8" mask="url(#mask1)"/>
</g>
</svg>
