<svg xmlns="http://www.w3.org/2000/svg" xmlns:xlink="http://www.w3.org/1999/xlink" width="64px" height="64px" viewBox="0 0 64 64" version="1.1">
<defs>
<linearGradient id="linear0" gradientUnits="userSpaceOnUse" x1="61" y1="512" x2="565.388" y2="344.542999" gradientTransform="matrix(0.108108,0,0,0.108108,4.324324,4.324324)">
<stop offset="0" style="stop-color:#ff6666;stop-opacity:1;"/>
<stop offset="1" style="stop-color:#d90000;stop-opacity:1;"/>
</linearGradient>
<linearGradient id="linear1" gradientUnits="userSpaceOnUse" x1="116" y1="466" x2="486.743011" y2="358.270996" gradientTransform="matrix(0.108108,0,0,0.108108,4.324324,4.324324)">
<stop offset="0" style="stop-color:#ff6666;stop-opacity:1;"/>
<stop offset="1" style="stop-color:#d90000;stop-opacity:1;"/>
</linearGradient>
</defs>
<g id="surface1">
<path style=" stroke:none;fill-rule:nonzero;fill:url(#linear0);" d="M 15.785156 4.324219 C 13.097656 4.324219 10.917969 6.503906 10.917969 9.1875 L 10.917969 46.984375 C 10.917969 48.28125 11.421875 49.5 12.339844 50.417969 L 20.175781 58.253906 C 21.09375 59.171875 22.3125 59.675781 23.613281 59.675781 L 48.214844 59.675781 C 50.894531 59.675781 53.082031 57.488281 53.082031 54.8125 L 53.082031 9.1875 C 53.082031 6.503906 50.894531 4.324219 48.214844 4.324219 Z M 49.835938 9.1875 L 49.835938 54.8125 C 49.835938 55.703125 49.109375 56.433594 48.214844 56.433594 L 23.613281 56.433594 C 23.179688 56.433594 22.773438 56.265625 22.46875 55.960938 L 14.636719 48.125 C 14.335938 47.820312 14.164062 47.414062 14.164062 46.984375 L 14.164062 9.1875 C 14.164062 8.296875 14.890625 7.566406 15.785156 7.566406 L 48.214844 7.566406 C 49.109375 7.566406 49.835938 8.296875 49.835938 9.1875 Z M 49.835938 9.1875 "/>
<path style=" stroke:none;fill-rule:nonzero;fill:url(#linear1);" d="M 31.910156 9.296875 C 31.339844 9.328125 30.828125 9.636719 30.542969 10.109375 L 28.355469 13.78125 L 26.171875 17.445312 C 25.523438 18.539062 26.335938 19.890625 27.632812 19.890625 L 30.488281 19.890625 L 30.488281 38.144531 L 22.988281 33.027344 L 22.945312 31.730469 C 24.742188 31.078125 25.945312 29.375 25.945312 27.460938 C 25.945312 24.949219 23.914062 22.917969 21.40625 22.917969 C 18.894531 22.917969 16.863281 24.949219 16.863281 27.460938 C 16.867188 29.390625 18.089844 31.109375 19.914062 31.742188 L 19.984375 33.820312 C 20 34.257812 20.203125 34.671875 20.550781 34.945312 L 30.179688 41.476562 L 30.488281 41.726562 L 30.488281 42.792969 C 27.8125 43.484375 25.949219 45.890625 25.945312 48.648438 C 25.945312 51.988281 28.660156 54.703125 32 54.703125 C 35.339844 54.703125 38.054688 51.988281 38.054688 48.648438 C 38.050781 45.890625 36.1875 43.488281 33.511719 42.796875 L 33.511719 38.914062 L 43.441406 34.730469 C 43.863281 34.445312 44.109375 33.976562 44.109375 33.472656 L 44.109375 30.488281 L 45.621094 30.488281 C 45.621094 30.488281 47.136719 29.8125 47.136719 28.972656 L 47.136719 22.917969 C 47.136719 22.082031 46.460938 21.40625 45.621094 21.40625 L 39.566406 21.40625 C 38.730469 21.40625 38.054688 22.082031 38.054688 22.917969 L 38.054688 28.972656 C 38.054688 29.8125 39.566406 30.488281 39.566406 30.488281 L 41.082031 30.488281 L 41.082031 32.671875 L 33.511719 35.863281 L 33.511719 19.890625 L 36.367188 19.890625 C 37.664062 19.890625 38.476562 18.539062 37.828125 17.445312 L 35.644531 13.78125 L 33.457031 10.109375 C 33.136719 9.582031 32.539062 9.265625 31.910156 9.296875 Z M 31.910156 9.296875 "/>
</g>
</svg>
