<svg xmlns="http://www.w3.org/2000/svg" xmlns:xlink="http://www.w3.org/1999/xlink" width="64" height="64" viewBox="0 0 64 64" version="1.1">
<defs>
<linearGradient id="linear0" gradientUnits="userSpaceOnUse" x1="0" y1="0" x2="0" y2="1" gradientTransform="matrix(64,0,0,62.820313,0,0.589844)">
<stop offset="0" style="stop-color:#ff6666;stop-opacity:1;"/>
<stop offset="1" style="stop-color:#d90000;stop-opacity:1;"/>
</linearGradient>
</defs>
<g id="surface1">
<path style=" stroke:none;fill-rule:nonzero;fill:url(#linear0);" d="M 2.117188 0.589844 L 4.289062 2.21875 C -2.605469 5.394531 15.101562 19.90625 15.101562 19.90625 C 15.101562 19.90625 18.542969 16.804688 23.59375 16.480469 C 28.601562 11.347656 49.4375 15.253906 48.65625 19.464844 C 41.652344 19.570312 39.433594 18.679688 39.433594 18.679688 C 39.433594 18.679688 39.78125 19.074219 39.925781 20.445312 C 39.410156 20.867188 32.167969 19.242188 30.652344 19.359375 C 26.34375 19.6875 23.4375 19.796875 20.34375 20.140625 C 22.472656 20.839844 39.414062 23.859375 44.835938 29.097656 C 43.390625 29.65625 42.761719 29.429688 42.277344 29.605469 C 41.851562 29.761719 41.425781 30.625 40.492188 30.628906 C 39.824219 30.632812 40.050781 30.035156 38.671875 29.386719 C 30.101562 29.726562 27.316406 24.496094 26.472656 23.855469 C 22.6875 22.953125 16.308594 20.90625 16.308594 20.90625 C 16.308594 20.90625 21.707031 25.214844 24.667969 27.609375 C 24.914062 27.808594 28.976562 28.558594 34.132812 31.074219 C 36.90625 28.808594 44.382812 32.660156 42.996094 36.1875 C 41.757812 39.332031 33.457031 36.09375 33.761719 31.816406 C 31.863281 31.226562 28.363281 29.535156 26.125 28.726562 C 28.273438 30.398438 36.707031 37.433594 38.402344 39.421875 C 45.832031 38.507812 57.042969 40.363281 64 44.820312 C 62.410156 45.238281 54.863281 46.671875 53.351562 46.269531 C 50.542969 45.207031 46.355469 41.765625 45.910156 41.378906 C 44.296875 41.109375 40.675781 40.589844 39.285156 40.429688 C 40.695312 41.859375 45.355469 47.242188 46.820312 49.507812 C 47.425781 49.378906 50.515625 50.125 51.371094 50.707031 C 54.546875 47.46875 59.691406 53.148438 62.855469 55.894531 C 62.023438 57.578125 48.972656 54.984375 50.714844 51.203125 C 49.785156 51.078125 47.914062 50.054688 47.226562 50 C 47.933594 50.921875 49.46875 52.171875 51.492188 54.296875 C 53.4375 53.738281 60.769531 61.675781 60.964844 63.410156 C 55.476562 62.074219 52.769531 60.910156 51.914062 59.921875 C 50.238281 57.960938 50.875 55.148438 51.035156 54.640625 C 48.875 52.710938 48.476562 52.136719 47.773438 51.753906 C 47.753906 51.777344 47.773438 52.347656 47.804688 52.628906 C 51.351562 55.238281 49.636719 62.472656 47.601562 62.726562 C 46.710938 62.839844 44.667969 52.523438 47.21875 52.140625 C 47.28125 51.9375 47.3125 51.328125 47.316406 51.304688 C 45.96875 49.835938 38.5 41.890625 38.011719 41.558594 C 38.257812 42.183594 38.652344 43.214844 39.015625 44.488281 C 43.429688 47.371094 44.15625 51.984375 43.824219 57.402344 C 42.769531 55.550781 32.398438 47.117188 36.9375 43.375 C 36.96875 42.796875 36.796875 41.488281 37.175781 40.753906 C 35.738281 39.316406 31.265625 34.894531 30.859375 34.898438 C 31.359375 35.925781 31.671875 36.511719 31.921875 37.621094 C 35.332031 39.320312 34.339844 43.71875 32.789062 43.8125 C 31.148438 43.910156 27.519531 38.863281 30.933594 37.792969 C 30.65625 36.523438 30.15625 34.796875 29.957031 34.042969 C 28.476562 32.914062 23.589844 29.003906 22.460938 28.097656 C 23.847656 30.402344 25.199219 34 25.878906 36.058594 C 29.96875 40.691406 28.835938 47.855469 28.425781 55.242188 C 23.628906 51.683594 20.648438 39.53125 23.699219 36.503906 C 22.679688 32.992188 21.144531 27.042969 21.144531 27.042969 C 14.546875 21.925781 10.898438 18.089844 10.898438 18.089844 C 10.898438 18.089844 15.292969 23.789062 15.792969 26.839844 C 19.640625 27.589844 22.855469 34.292969 19.796875 35.4375 C 15.324219 37.109375 10.523438 30.011719 14.339844 27.367188 C 14.339844 27.367188 10.960938 21.144531 8.34375 15.6875 C -1.972656 4.363281 -0.980469 0.96875 2.117188 0.589844 Z M 2.117188 0.589844 "/>
</g>
</svg>
