<svg xmlns="http://www.w3.org/2000/svg" xmlns:xlink="http://www.w3.org/1999/xlink" width="64" height="64" viewBox="0 0 64 64" version="1.1">
<defs>
<linearGradient id="linear0" gradientUnits="userSpaceOnUse" x1="0" y1="0" x2="0" y2="1" gradientTransform="matrix(56,0,0,51.695312,4,6.152344)">
<stop offset="0" style="stop-color:#ff6666;stop-opacity:1;"/>
<stop offset="1" style="stop-color:#d90000;stop-opacity:1;"/>
</linearGradient>
</defs>
<g id="surface1">
<path style=" stroke:none;fill-rule:nonzero;fill:url(#linear0);" d="M 9.496094 19.671875 L 20.847656 19.671875 C 21.746094 19.671875 22.472656 20.398438 22.472656 21.296875 L 22.472656 28.898438 C 22.472656 29.796875 21.746094 30.523438 20.847656 30.523438 L 9.496094 30.523438 C 8.601562 30.523438 7.871094 29.796875 7.871094 28.898438 L 7.871094 21.296875 C 7.871094 20.398438 8.601562 19.671875 9.496094 19.671875 Z M 9.496094 19.671875 "/>
<path style=" stroke:none;fill-rule:nonzero;fill:url(#linear0);" d="M 26.222656 19.671875 L 37.578125 19.671875 C 38.472656 19.671875 39.199219 20.398438 39.199219 21.296875 L 39.199219 28.898438 C 39.199219 29.796875 38.472656 30.523438 37.578125 30.523438 L 26.222656 30.523438 C 25.328125 30.523438 24.601562 29.796875 24.601562 28.898438 L 24.601562 21.296875 C 24.601562 20.398438 25.328125 19.671875 26.222656 19.671875 Z M 26.222656 19.671875 "/>
<path style=" stroke:none;fill-rule:nonzero;fill:url(#linear0);" d="M 9.496094 32.820312 L 20.847656 32.820312 C 21.746094 32.820312 22.472656 33.546875 22.472656 34.445312 L 22.472656 42.046875 C 22.472656 42.945312 21.746094 43.671875 20.847656 43.671875 L 9.496094 43.671875 C 8.601562 43.671875 7.871094 42.945312 7.871094 42.046875 L 7.871094 34.445312 C 7.871094 33.546875 8.601562 32.820312 9.496094 32.820312 Z M 9.496094 32.820312 "/>
<path style=" stroke:none;fill-rule:nonzero;fill:url(#linear0);" d="M 26.222656 32.820312 L 37.578125 32.820312 C 38.472656 32.820312 39.199219 33.546875 39.199219 34.445312 L 39.199219 42.046875 C 39.199219 42.945312 38.472656 43.671875 37.578125 43.671875 L 26.222656 43.671875 C 25.328125 43.671875 24.601562 42.945312 24.601562 42.046875 L 24.601562 34.445312 C 24.601562 33.546875 25.328125 32.820312 26.222656 32.820312 Z M 26.222656 32.820312 "/>
<path style=" stroke:none;fill-rule:nonzero;fill:url(#linear0);" d="M 31.683594 8.808594 C 26.066406 8.832031 20.65625 10.945312 16.5 14.746094 L 23.851562 14.746094 C 26.300781 13.585938 28.976562 12.972656 31.6875 12.960938 C 41.953125 12.953125 50.28125 21.320312 50.292969 31.648438 L 50.292969 31.671875 C 50.292969 42.003906 41.972656 50.378906 31.707031 50.382812 C 28.984375 50.375 26.292969 49.765625 23.828125 48.59375 L 16.46875 48.59375 C 20.640625 52.410156 26.070312 54.527344 31.707031 54.535156 C 44.25 54.53125 54.417969 44.296875 54.417969 31.671875 L 54.417969 31.644531 C 54.402344 19.023438 44.226562 8.796875 31.683594 8.808594 Z M 31.683594 8.808594 "/>
</g>
</svg>
