<svg xmlns="http://www.w3.org/2000/svg" xmlns:xlink="http://www.w3.org/1999/xlink" width="64" height="64" viewBox="0 0 64 64" version="1.1">
<defs>
<linearGradient id="linear0" gradientUnits="userSpaceOnUse" x1="0" y1="0" x2="0" y2="1" gradientTransform="matrix(60,0,0,56.390625,2,3.609375)">
<stop offset="0" style="stop-color:#ff6666;stop-opacity:1;"/>
<stop offset="1" style="stop-color:#d90000;stop-opacity:1;"/>
</linearGradient>
</defs>
<g id="surface1">
<path style=" stroke:none;fill-rule:nonzero;fill:url(#linear0);" d="M 59.671875 3.628906 C 59.394531 3.765625 59.144531 3.96875 58.964844 4.222656 L 57.066406 6.117188 L 56.476562 5.523438 L 33.738281 28.261719 L 34.332031 28.855469 L 32.433594 30.75 L 32.316406 33.472656 L 35.042969 33.355469 L 36.9375 31.460938 L 37.527344 32.050781 L 60.265625 9.3125 L 59.671875 8.722656 L 61.570312 6.828125 C 62.679688 5.695312 61.472656 3.375 59.910156 3.628906 C 59.832031 3.625 59.753906 3.625 59.671875 3.628906 Z M 5.789062 10.734375 C 3.691406 10.734375 2 12.425781 2 14.523438 L 2 48.632812 C 2 50.730469 3.691406 52.421875 5.789062 52.421875 L 51.265625 52.421875 C 53.363281 52.421875 55.054688 50.730469 55.054688 48.632812 L 55.054688 19.972656 L 40.25 34.773438 L 37.527344 37.378906 L 36.9375 36.789062 L 36.699219 37.023438 L 35.160156 37.144531 L 32.433594 37.261719 L 28.410156 37.378906 L 28.527344 33.355469 L 28.644531 30.628906 L 28.765625 29.089844 L 29 28.851562 L 28.410156 28.261719 L 31.015625 25.539062 L 45.816406 10.734375 Z M 2 52.421875 L 2 56.210938 C 2 58.308594 3.691406 60 5.789062 60 L 51.265625 60 C 53.363281 60 55.054688 58.308594 55.054688 56.210938 L 55.054688 52.421875 C 55.054688 54.519531 53.363281 56.210938 51.265625 56.210938 L 5.789062 56.210938 C 3.691406 56.210938 2 54.519531 2 52.421875 Z M 2 52.421875 "/>
</g>
</svg>
