<svg xmlns="http://www.w3.org/2000/svg" xmlns:xlink="http://www.w3.org/1999/xlink" width="64" height="64" viewBox="0 0 64 64" version="1.1">
<defs>
<linearGradient id="linear0" gradientUnits="userSpaceOnUse" x1="0" y1="0" x2="0" y2="1" gradientTransform="matrix(64,0,0,64,0,0)">
<stop offset="0" style="stop-color:#ff6666;stop-opacity:1;"/>
<stop offset="1" style="stop-color:#d90000;stop-opacity:1;"/>
</linearGradient>
</defs>
<g id="surface1">
<path style=" stroke:none;fill-rule:nonzero;fill:url(#linear0);" d="M 4.375 0 C 1.960938 0 0 1.960938 0 4.375 L 0 59.625 C 0 62.039062 1.960938 64 4.375 64 L 59.625 64 C 62.039062 64 64 62.039062 64 59.625 L 64 4.375 C 64 1.960938 62.039062 0 59.625 0 Z M 4.375 4 L 59.625 4 C 59.890625 4 60 4.109375 60 4.375 L 60 24 L 55.625 24 C 54.820312 21.679688 52.601562 20 50 20 C 46.707031 20 44 22.710938 44 26 C 44 26.980469 44.320312 27.800781 44.75 28.625 L 32.75 40.625 C 31.945312 40.222656 30.964844 40 30 40 C 28.929688 40 28 40.261719 27.125 40.75 L 23.125 37 C 23.667969 36.089844 24 35.132812 24 34 C 24 30.710938 21.289062 28 18 28 C 14.710938 28 12 30.710938 12 34 C 12 35.292969 12.535156 36.386719 13.25 37.375 L 4 46.875 L 4 4.375 C 4 4.109375 4.105469 4 4.375 4 Z M 50 24 C 51.128906 24 52 24.871094 52 26 C 52 27.128906 51.128906 28 50 28 C 48.871094 28 48 27.128906 48 26 C 48 24.871094 48.871094 24 50 24 Z M 55.625 28 L 60 28 L 60 59.625 C 60 59.894531 59.894531 60 59.625 60 L 4.378906 60 C 4.109375 60 4.003906 59.894531 4.003906 59.625 L 4.003906 52.625 L 16.628906 39.75 C 17.101562 39.871094 17.496094 40 18.003906 40 C 18.6875 40 19.390625 39.84375 20.003906 39.625 L 24.503906 43.75 C 24.222656 44.429688 24.003906 45.21875 24.003906 46 C 24.003906 49.289062 26.710938 52 30.003906 52 C 33.292969 52 36.003906 49.289062 36.003906 46 C 36.003906 45.136719 35.828125 44.238281 35.503906 43.5 L 47.503906 31.375 C 48.289062 31.753906 49.082031 32 50.003906 32 C 52.566406 32 54.796875 30.289062 55.628906 28 Z M 18 32 C 19.128906 32 20 32.871094 20 34 C 20 35.128906 19.128906 36 18 36 C 16.871094 36 16 35.128906 16 34 C 16 32.871094 16.871094 32 18 32 Z M 30 44 C 31.128906 44 32 44.871094 32 46 C 32 47.128906 31.128906 48 30 48 C 28.871094 48 28 47.128906 28 46 C 28 44.871094 28.871094 44 30 44 Z M 30 44 "/>
</g>
</svg>
