<svg xmlns="http://www.w3.org/2000/svg" xmlns:xlink="http://www.w3.org/1999/xlink" width="64" height="64" viewBox="0 0 64 64" version="1.1">
<defs>
<linearGradient id="linear0" gradientUnits="userSpaceOnUse" x1="0" y1="0" x2="0" y2="1" gradientTransform="matrix(56,0,0,51.695312,4,6.152344)">
<stop offset="0" style="stop-color:#ff6666;stop-opacity:1;"/>
<stop offset="1" style="stop-color:#d90000;stop-opacity:1;"/>
</linearGradient>
</defs>
<g id="surface1">
<path style=" stroke:none;fill-rule:nonzero;fill:url(#linear0);" d="M 49.625 45.742188 L 52.085938 45.742188 C 52.765625 45.742188 53.3125 46.398438 53.3125 47.210938 L 53.3125 50.144531 C 53.3125 50.957031 52.765625 51.613281 52.085938 51.613281 L 49.625 51.613281 C 48.945312 51.613281 48.394531 50.957031 48.394531 50.144531 L 48.394531 47.210938 C 48.394531 46.398438 48.945312 45.742188 49.625 45.742188 Z M 32.414062 45.742188 L 46.347656 45.742188 C 47.027344 45.742188 47.578125 46.398438 47.578125 47.210938 L 47.578125 50.144531 C 47.578125 50.957031 47.027344 51.613281 46.347656 51.613281 L 32.414062 51.613281 C 31.730469 51.613281 31.183594 50.957031 31.183594 50.144531 L 31.183594 47.210938 C 31.183594 46.398438 31.730469 45.742188 32.414062 45.742188 Z M 26.675781 45.742188 L 29.136719 45.742188 C 29.816406 45.742188 30.363281 46.398438 30.363281 47.210938 L 30.363281 50.144531 C 30.363281 50.957031 29.816406 51.613281 29.136719 51.613281 L 26.675781 51.613281 C 25.996094 51.613281 25.449219 50.957031 25.449219 50.144531 L 25.449219 47.210938 C 25.449219 46.398438 25.996094 45.742188 26.675781 45.742188 Z M 20.941406 45.742188 L 23.398438 45.742188 C 24.078125 45.742188 24.628906 46.398438 24.628906 47.210938 L 24.628906 50.144531 C 24.628906 50.957031 24.078125 51.613281 23.398438 51.613281 L 20.941406 51.613281 C 20.257812 51.613281 19.710938 50.957031 19.710938 50.144531 L 19.710938 47.210938 C 19.710938 46.398438 20.257812 45.742188 20.941406 45.742188 Z M 11.925781 45.742188 L 17.660156 45.742188 C 18.34375 45.742188 18.890625 46.398438 18.890625 47.210938 L 18.890625 50.144531 C 18.890625 50.957031 18.34375 51.613281 17.660156 51.613281 L 11.925781 51.613281 C 11.242188 51.613281 10.695312 50.957031 10.695312 50.144531 L 10.695312 47.210938 C 10.695312 46.398438 11.242188 45.742188 11.925781 45.742188 Z M 52.070312 34.535156 L 52.085938 34.535156 C 52.765625 34.535156 53.3125 35.1875 53.3125 36 L 53.3125 43.75 C 53.3125 44.5625 52.765625 45.214844 52.085938 45.214844 L 52.070312 45.214844 C 51.386719 45.214844 50.839844 44.5625 50.839844 43.75 L 50.839844 36 C 50.839844 35.1875 51.386719 34.535156 52.070312 34.535156 Z M 49.625 32.050781 L 52.085938 32.050781 C 52.765625 32.050781 53.3125 32.707031 53.3125 33.515625 L 53.3125 36.453125 C 53.3125 37.265625 52.765625 37.917969 52.085938 37.917969 L 49.625 37.917969 C 48.945312 37.917969 48.398438 37.265625 48.398438 36.453125 L 48.398438 33.515625 C 48.398438 32.707031 48.945312 32.050781 49.625 32.050781 Z M 46.347656 38.898438 L 48.804688 38.898438 C 49.488281 38.898438 50.035156 39.550781 50.035156 40.363281 L 50.035156 43.296875 C 50.035156 44.109375 49.488281 44.765625 48.804688 44.765625 L 46.347656 44.765625 C 45.667969 44.765625 45.117188 44.109375 45.117188 43.296875 L 45.117188 40.363281 C 45.117188 39.550781 45.667969 38.898438 46.347656 38.898438 Z M 40.609375 38.898438 L 43.070312 38.898438 C 43.75 38.898438 44.296875 39.550781 44.296875 40.363281 L 44.296875 43.296875 C 44.296875 44.109375 43.75 44.765625 43.070312 44.765625 L 40.609375 44.765625 C 39.929688 44.765625 39.382812 44.109375 39.382812 43.296875 L 39.382812 40.363281 C 39.382812 39.550781 39.929688 38.898438 40.609375 38.898438 Z M 11.925781 38.898438 L 14.382812 38.898438 C 15.0625 38.898438 15.613281 39.550781 15.613281 40.363281 L 15.613281 43.296875 C 15.613281 44.109375 15.0625 44.765625 14.382812 44.765625 L 11.925781 44.765625 C 11.246094 44.765625 10.695312 44.109375 10.695312 43.296875 L 10.695312 40.363281 C 10.695312 39.550781 11.246094 38.898438 11.925781 38.898438 Z M 34.875 38.898438 L 37.332031 38.898438 C 38.011719 38.898438 38.5625 39.550781 38.5625 40.363281 L 38.5625 43.296875 C 38.5625 44.109375 38.011719 44.765625 37.332031 44.765625 L 34.875 44.765625 C 34.191406 44.765625 33.644531 44.109375 33.644531 43.296875 L 33.644531 40.363281 C 33.644531 39.550781 34.191406 38.898438 34.875 38.898438 Z M 29.136719 38.898438 L 31.59375 38.898438 C 32.273438 38.898438 32.824219 39.550781 32.824219 40.363281 L 32.824219 43.296875 C 32.824219 44.109375 32.273438 44.765625 31.59375 44.765625 L 29.136719 44.765625 C 28.457031 44.765625 27.90625 44.109375 27.90625 43.296875 L 27.90625 40.363281 C 27.90625 39.550781 28.457031 38.898438 29.136719 38.898438 Z M 23.398438 38.898438 L 25.859375 38.898438 C 26.539062 38.898438 27.085938 39.550781 27.085938 40.363281 L 27.085938 43.296875 C 27.085938 44.109375 26.539062 44.765625 25.859375 44.765625 L 23.398438 44.765625 C 22.71875 44.765625 22.167969 44.109375 22.167969 43.296875 L 22.167969 40.363281 C 22.167969 39.550781 22.71875 38.898438 23.398438 38.898438 Z M 17.660156 38.898438 L 20.121094 38.898438 C 20.800781 38.898438 21.351562 39.550781 21.351562 40.363281 L 21.351562 43.296875 C 21.351562 44.109375 20.800781 44.765625 20.121094 44.765625 L 17.660156 44.765625 C 16.980469 44.765625 16.433594 44.109375 16.433594 43.296875 L 16.433594 40.363281 C 16.433594 39.550781 16.980469 38.898438 17.660156 38.898438 Z M 43.886719 32.050781 L 46.347656 32.050781 C 47.027344 32.050781 47.578125 32.707031 47.578125 33.515625 L 47.578125 36.453125 C 47.578125 37.265625 47.027344 37.917969 46.347656 37.917969 L 43.886719 37.917969 C 43.207031 37.917969 42.660156 37.265625 42.660156 36.453125 L 42.660156 33.515625 C 42.660156 32.707031 43.207031 32.050781 43.886719 32.050781 Z M 38.152344 32.050781 L 40.609375 32.050781 C 41.289062 32.050781 41.839844 32.707031 41.839844 33.515625 L 41.839844 36.453125 C 41.839844 37.265625 41.289062 37.917969 40.609375 37.917969 L 38.152344 37.917969 C 37.472656 37.917969 36.921875 37.265625 36.921875 36.453125 L 36.921875 33.515625 C 36.921875 32.707031 37.472656 32.050781 38.152344 32.050781 Z M 32.414062 32.050781 L 34.875 32.050781 C 35.554688 32.050781 36.101562 32.707031 36.101562 33.515625 L 36.101562 36.453125 C 36.101562 37.265625 35.554688 37.917969 34.875 37.917969 L 32.414062 37.917969 C 31.734375 37.917969 31.183594 37.265625 31.183594 36.453125 L 31.183594 33.515625 C 31.183594 32.707031 31.734375 32.050781 32.414062 32.050781 Z M 26.675781 32.050781 L 29.136719 32.050781 C 29.816406 32.050781 30.367188 32.707031 30.367188 33.515625 L 30.367188 36.453125 C 30.367188 37.265625 29.816406 37.917969 29.136719 37.917969 L 26.675781 37.917969 C 25.996094 37.917969 25.449219 37.265625 25.449219 36.453125 L 25.449219 33.515625 C 25.449219 32.707031 25.996094 32.050781 26.675781 32.050781 Z M 20.941406 32.050781 L 23.398438 32.050781 C 24.078125 32.050781 24.628906 32.707031 24.628906 33.515625 L 24.628906 36.453125 C 24.628906 37.265625 24.078125 37.917969 23.398438 37.917969 L 20.941406 37.917969 C 20.257812 37.917969 19.710938 37.265625 19.710938 36.453125 L 19.710938 33.515625 C 19.710938 32.707031 20.257812 32.050781 20.941406 32.050781 Z M 11.925781 32.050781 L 17.660156 32.050781 C 18.34375 32.050781 18.890625 32.707031 18.890625 33.515625 L 18.890625 36.453125 C 18.890625 37.265625 18.34375 37.917969 17.660156 37.917969 L 11.925781 37.917969 C 11.242188 37.917969 10.695312 37.265625 10.695312 36.453125 L 10.695312 33.515625 C 10.695312 32.707031 11.242188 32.050781 11.925781 32.050781 Z M 46.347656 25.175781 L 52.085938 25.175781 C 52.765625 25.175781 53.3125 25.832031 53.3125 26.640625 L 53.3125 29.578125 C 53.3125 30.386719 52.765625 31.042969 52.085938 31.042969 L 46.347656 31.042969 C 45.667969 31.042969 45.117188 30.386719 45.117188 29.578125 L 45.117188 26.640625 C 45.117188 25.832031 45.667969 25.175781 46.347656 25.175781 Z M 40.609375 25.175781 L 43.070312 25.175781 C 43.75 25.175781 44.296875 25.832031 44.296875 26.640625 L 44.296875 29.578125 C 44.296875 30.386719 43.75 31.042969 43.070312 31.042969 L 40.609375 31.042969 C 39.929688 31.042969 39.382812 30.386719 39.382812 29.578125 L 39.382812 26.640625 C 39.382812 25.832031 39.929688 25.175781 40.609375 25.175781 Z M 11.925781 25.175781 L 14.382812 25.175781 C 15.0625 25.175781 15.613281 25.832031 15.613281 26.640625 L 15.613281 29.578125 C 15.613281 30.386719 15.0625 31.042969 14.382812 31.042969 L 11.925781 31.042969 C 11.246094 31.042969 10.695312 30.386719 10.695312 29.578125 L 10.695312 26.640625 C 10.695312 25.832031 11.246094 25.175781 11.925781 25.175781 Z M 34.875 25.175781 L 37.332031 25.175781 C 38.011719 25.175781 38.5625 25.832031 38.5625 26.640625 L 38.5625 29.578125 C 38.5625 30.386719 38.011719 31.042969 37.332031 31.042969 L 34.875 31.042969 C 34.191406 31.042969 33.644531 30.386719 33.644531 29.578125 L 33.644531 26.640625 C 33.644531 25.832031 34.191406 25.175781 34.875 25.175781 Z M 29.136719 25.175781 L 31.59375 25.175781 C 32.273438 25.175781 32.824219 25.832031 32.824219 26.640625 L 32.824219 29.578125 C 32.824219 30.386719 32.273438 31.042969 31.59375 31.042969 L 29.136719 31.042969 C 28.457031 31.042969 27.90625 30.386719 27.90625 29.578125 L 27.90625 26.640625 C 27.90625 25.832031 28.457031 25.175781 29.136719 25.175781 Z M 23.398438 25.175781 L 25.859375 25.175781 C 26.539062 25.175781 27.085938 25.832031 27.085938 26.640625 L 27.085938 29.578125 C 27.085938 30.386719 26.539062 31.042969 25.859375 31.042969 L 23.398438 31.042969 C 22.71875 31.042969 22.167969 30.386719 22.167969 29.578125 L 22.167969 26.640625 C 22.167969 25.832031 22.71875 25.175781 23.398438 25.175781 Z M 17.660156 25.175781 L 20.121094 25.175781 C 20.800781 25.175781 21.351562 25.832031 21.351562 26.640625 L 21.351562 29.578125 C 21.351562 30.386719 20.800781 31.042969 20.121094 31.042969 L 17.660156 31.042969 C 16.980469 31.042969 16.433594 30.386719 16.433594 29.578125 L 16.433594 26.640625 C 16.433594 25.832031 16.980469 25.175781 17.660156 25.175781 Z M 49.625 20.3125 L 52.085938 20.3125 C 52.765625 20.3125 53.3125 20.96875 53.3125 21.78125 C 53.3125 22.59375 52.765625 23.246094 52.085938 23.246094 L 49.625 23.246094 C 48.945312 23.246094 48.394531 22.59375 48.394531 21.78125 C 48.394531 20.96875 48.945312 20.3125 49.625 20.3125 Z M 43.886719 20.3125 L 46.347656 20.3125 C 47.027344 20.3125 47.578125 20.96875 47.578125 21.78125 C 47.578125 22.59375 47.027344 23.246094 46.347656 23.246094 L 43.886719 23.246094 C 43.207031 23.246094 42.660156 22.59375 42.660156 21.78125 C 42.660156 20.96875 43.207031 20.3125 43.886719 20.3125 Z M 34.875 20.3125 L 37.332031 20.3125 C 38.011719 20.3125 38.5625 20.96875 38.5625 21.78125 C 38.5625 22.59375 38.011719 23.246094 37.332031 23.246094 L 34.875 23.246094 C 34.191406 23.246094 33.644531 22.59375 33.644531 21.78125 C 33.644531 20.96875 34.191406 20.3125 34.875 20.3125 Z M 29.136719 20.3125 L 31.59375 20.3125 C 32.273438 20.3125 32.824219 20.96875 32.824219 21.78125 C 32.824219 22.59375 32.273438 23.246094 31.59375 23.246094 L 29.136719 23.246094 C 28.457031 23.246094 27.90625 22.59375 27.90625 21.78125 C 27.90625 20.96875 28.457031 20.3125 29.136719 20.3125 Z M 23.398438 20.3125 L 25.859375 20.3125 C 26.539062 20.3125 27.085938 20.96875 27.085938 21.78125 C 27.085938 22.59375 26.539062 23.246094 25.859375 23.246094 L 23.398438 23.246094 C 22.71875 23.246094 22.167969 22.59375 22.167969 21.78125 C 22.167969 20.96875 22.71875 20.3125 23.398438 20.3125 Z M 17.660156 20.3125 L 20.121094 20.3125 C 20.800781 20.3125 21.351562 20.96875 21.351562 21.78125 C 21.351562 22.59375 20.800781 23.246094 20.121094 23.246094 L 17.660156 23.246094 C 16.980469 23.246094 16.433594 22.59375 16.433594 21.78125 C 16.433594 20.96875 16.980469 20.3125 17.660156 20.3125 Z M 11.972656 20.3125 L 14.332031 20.3125 C 15.042969 20.3125 15.613281 20.96875 15.613281 21.78125 C 15.613281 22.59375 15.042969 23.246094 14.332031 23.246094 L 11.972656 23.246094 C 11.265625 23.246094 10.695312 22.59375 10.695312 21.78125 C 10.695312 20.96875 11.265625 20.3125 11.972656 20.3125 Z M 11.972656 20.3125 "/>
<path style=" stroke:none;fill-rule:nonzero;fill:url(#linear0);" d="M 49.625 45.742188 L 52.085938 45.742188 C 52.765625 45.742188 53.3125 46.398438 53.3125 47.210938 L 53.3125 49.65625 C 53.3125 50.46875 52.765625 51.125 52.085938 51.125 L 49.625 51.125 C 48.945312 51.125 48.394531 50.46875 48.394531 49.65625 L 48.394531 47.210938 C 48.394531 46.398438 48.945312 45.742188 49.625 45.742188 Z M 32.414062 45.742188 L 46.347656 45.742188 C 47.027344 45.742188 47.578125 46.398438 47.578125 47.210938 L 47.578125 49.65625 C 47.578125 50.46875 47.027344 51.125 46.347656 51.125 L 32.414062 51.125 C 31.730469 51.125 31.183594 50.46875 31.183594 49.65625 L 31.183594 47.210938 C 31.183594 46.398438 31.730469 45.742188 32.414062 45.742188 Z M 26.675781 45.742188 L 29.136719 45.742188 C 29.816406 45.742188 30.363281 46.398438 30.363281 47.210938 L 30.363281 49.65625 C 30.363281 50.46875 29.816406 51.125 29.136719 51.125 L 26.675781 51.125 C 25.996094 51.125 25.449219 50.46875 25.449219 49.65625 L 25.449219 47.210938 C 25.449219 46.398438 25.996094 45.742188 26.675781 45.742188 Z M 20.941406 45.742188 L 23.398438 45.742188 C 24.078125 45.742188 24.628906 46.398438 24.628906 47.210938 L 24.628906 49.65625 C 24.628906 50.46875 24.078125 51.125 23.398438 51.125 L 20.941406 51.125 C 20.257812 51.125 19.710938 50.46875 19.710938 49.65625 L 19.710938 47.210938 C 19.710938 46.398438 20.257812 45.742188 20.941406 45.742188 Z M 11.925781 45.742188 L 17.660156 45.742188 C 18.34375 45.742188 18.890625 46.398438 18.890625 47.210938 L 18.890625 49.65625 C 18.890625 50.46875 18.34375 51.125 17.660156 51.125 L 11.925781 51.125 C 11.242188 51.125 10.695312 50.46875 10.695312 49.65625 L 10.695312 47.210938 C 10.695312 46.398438 11.242188 45.742188 11.925781 45.742188 Z M 52.070312 34.082031 L 52.085938 34.082031 C 52.765625 34.082031 53.3125 34.738281 53.3125 35.550781 L 53.3125 43.296875 C 53.3125 44.109375 52.765625 44.765625 52.085938 44.765625 L 52.070312 44.765625 C 51.386719 44.765625 50.839844 44.109375 50.839844 43.296875 L 50.839844 35.550781 C 50.839844 34.738281 51.386719 34.082031 52.070312 34.082031 Z M 49.625 32.050781 L 52.085938 32.050781 C 52.765625 32.050781 53.3125 32.707031 53.3125 33.515625 L 53.3125 35.960938 C 53.3125 36.773438 52.765625 37.429688 52.085938 37.429688 L 49.625 37.429688 C 48.945312 37.429688 48.398438 36.773438 48.398438 35.960938 L 48.398438 33.515625 C 48.398438 32.707031 48.945312 32.050781 49.625 32.050781 Z M 46.347656 38.898438 L 48.804688 38.898438 C 49.488281 38.898438 50.035156 39.550781 50.035156 40.363281 L 50.035156 42.808594 C 50.035156 43.621094 49.488281 44.277344 48.804688 44.277344 L 46.347656 44.277344 C 45.667969 44.277344 45.117188 43.621094 45.117188 42.808594 L 45.117188 40.363281 C 45.117188 39.550781 45.667969 38.898438 46.347656 38.898438 Z M 40.609375 38.898438 L 43.070312 38.898438 C 43.75 38.898438 44.296875 39.550781 44.296875 40.363281 L 44.296875 42.808594 C 44.296875 43.621094 43.75 44.277344 43.070312 44.277344 L 40.609375 44.277344 C 39.929688 44.277344 39.382812 43.621094 39.382812 42.808594 L 39.382812 40.363281 C 39.382812 39.550781 39.929688 38.898438 40.609375 38.898438 Z M 11.925781 38.898438 L 14.382812 38.898438 C 15.0625 38.898438 15.613281 39.550781 15.613281 40.363281 L 15.613281 42.808594 C 15.613281 43.621094 15.0625 44.277344 14.382812 44.277344 L 11.925781 44.277344 C 11.246094 44.277344 10.695312 43.621094 10.695312 42.808594 L 10.695312 40.363281 C 10.695312 39.550781 11.246094 38.898438 11.925781 38.898438 Z M 34.875 38.898438 L 37.332031 38.898438 C 38.011719 38.898438 38.5625 39.550781 38.5625 40.363281 L 38.5625 42.808594 C 38.5625 43.621094 38.011719 44.277344 37.332031 44.277344 L 34.875 44.277344 C 34.191406 44.277344 33.644531 43.621094 33.644531 42.808594 L 33.644531 40.363281 C 33.644531 39.550781 34.191406 38.898438 34.875 38.898438 Z M 29.136719 38.898438 L 31.59375 38.898438 C 32.273438 38.898438 32.824219 39.550781 32.824219 40.363281 L 32.824219 42.808594 C 32.824219 43.621094 32.273438 44.277344 31.59375 44.277344 L 29.136719 44.277344 C 28.457031 44.277344 27.90625 43.621094 27.90625 42.808594 L 27.90625 40.363281 C 27.90625 39.550781 28.457031 38.898438 29.136719 38.898438 Z M 23.398438 38.898438 L 25.859375 38.898438 C 26.539062 38.898438 27.085938 39.550781 27.085938 40.363281 L 27.085938 42.808594 C 27.085938 43.621094 26.539062 44.277344 25.859375 44.277344 L 23.398438 44.277344 C 22.71875 44.277344 22.167969 43.621094 22.167969 42.808594 L 22.167969 40.363281 C 22.167969 39.550781 22.71875 38.898438 23.398438 38.898438 Z M 17.660156 38.898438 L 20.121094 38.898438 C 20.800781 38.898438 21.351562 39.550781 21.351562 40.363281 L 21.351562 42.808594 C 21.351562 43.621094 20.800781 44.277344 20.121094 44.277344 L 17.660156 44.277344 C 16.980469 44.277344 16.433594 43.621094 16.433594 42.808594 L 16.433594 40.363281 C 16.433594 39.550781 16.980469 38.898438 17.660156 38.898438 Z M 43.886719 32.050781 L 46.347656 32.050781 C 47.027344 32.050781 47.578125 32.707031 47.578125 33.515625 L 47.578125 35.960938 C 47.578125 36.773438 47.027344 37.429688 46.347656 37.429688 L 43.886719 37.429688 C 43.207031 37.429688 42.660156 36.773438 42.660156 35.960938 L 42.660156 33.515625 C 42.660156 32.707031 43.207031 32.050781 43.886719 32.050781 Z M 38.152344 32.050781 L 40.609375 32.050781 C 41.289062 32.050781 41.839844 32.707031 41.839844 33.515625 L 41.839844 35.960938 C 41.839844 36.773438 41.289062 37.429688 40.609375 37.429688 L 38.152344 37.429688 C 37.472656 37.429688 36.921875 36.773438 36.921875 35.960938 L 36.921875 33.515625 C 36.921875 32.707031 37.472656 32.050781 38.152344 32.050781 Z M 32.414062 32.050781 L 34.875 32.050781 C 35.554688 32.050781 36.101562 32.707031 36.101562 33.515625 L 36.101562 35.960938 C 36.101562 36.773438 35.554688 37.429688 34.875 37.429688 L 32.414062 37.429688 C 31.734375 37.429688 31.183594 36.773438 31.183594 35.960938 L 31.183594 33.515625 C 31.183594 32.707031 31.734375 32.050781 32.414062 32.050781 Z M 26.675781 32.050781 L 29.136719 32.050781 C 29.816406 32.050781 30.367188 32.707031 30.367188 33.515625 L 30.367188 35.960938 C 30.367188 36.773438 29.816406 37.429688 29.136719 37.429688 L 26.675781 37.429688 C 25.996094 37.429688 25.449219 36.773438 25.449219 35.960938 L 25.449219 33.515625 C 25.449219 32.707031 25.996094 32.050781 26.675781 32.050781 Z M 20.941406 32.050781 L 23.398438 32.050781 C 24.078125 32.050781 24.628906 32.707031 24.628906 33.515625 L 24.628906 35.960938 C 24.628906 36.773438 24.078125 37.429688 23.398438 37.429688 L 20.941406 37.429688 C 20.257812 37.429688 19.710938 36.773438 19.710938 35.960938 L 19.710938 33.515625 C 19.710938 32.707031 20.257812 32.050781 20.941406 32.050781 Z M 11.925781 32.050781 L 17.660156 32.050781 C 18.34375 32.050781 18.890625 32.707031 18.890625 33.515625 L 18.890625 35.960938 C 18.890625 36.773438 18.34375 37.429688 17.660156 37.429688 L 11.925781 37.429688 C 11.242188 37.429688 10.695312 36.773438 10.695312 35.960938 L 10.695312 33.515625 C 10.695312 32.707031 11.242188 32.050781 11.925781 32.050781 Z M 46.347656 25.175781 L 52.085938 25.175781 C 52.765625 25.175781 53.3125 25.828125 53.3125 26.640625 L 53.3125 29.085938 C 53.3125 29.898438 52.765625 30.554688 52.085938 30.554688 L 46.347656 30.554688 C 45.667969 30.554688 45.117188 29.898438 45.117188 29.085938 L 45.117188 26.640625 C 45.117188 25.832031 45.667969 25.175781 46.347656 25.175781 Z M 40.609375 25.175781 L 43.070312 25.175781 C 43.75 25.175781 44.296875 25.828125 44.296875 26.640625 L 44.296875 29.085938 C 44.296875 29.898438 43.75 30.554688 43.070312 30.554688 L 40.609375 30.554688 C 39.929688 30.554688 39.382812 29.898438 39.382812 29.085938 L 39.382812 26.640625 C 39.382812 25.832031 39.929688 25.175781 40.609375 25.175781 Z M 11.925781 25.175781 L 14.382812 25.175781 C 15.0625 25.175781 15.613281 25.828125 15.613281 26.640625 L 15.613281 29.085938 C 15.613281 29.898438 15.0625 30.554688 14.382812 30.554688 L 11.925781 30.554688 C 11.246094 30.554688 10.695312 29.898438 10.695312 29.085938 L 10.695312 26.640625 C 10.695312 25.832031 11.246094 25.175781 11.925781 25.175781 Z M 34.875 25.175781 L 37.332031 25.175781 C 38.011719 25.175781 38.5625 25.828125 38.5625 26.640625 L 38.5625 29.085938 C 38.5625 29.898438 38.011719 30.554688 37.332031 30.554688 L 34.875 30.554688 C 34.191406 30.554688 33.644531 29.898438 33.644531 29.085938 L 33.644531 26.640625 C 33.644531 25.832031 34.191406 25.175781 34.875 25.175781 Z M 29.136719 25.175781 L 31.59375 25.175781 C 32.273438 25.175781 32.824219 25.828125 32.824219 26.640625 L 32.824219 29.085938 C 32.824219 29.898438 32.273438 30.554688 31.59375 30.554688 L 29.136719 30.554688 C 28.457031 30.554688 27.90625 29.898438 27.90625 29.085938 L 27.90625 26.640625 C 27.90625 25.832031 28.457031 25.175781 29.136719 25.175781 Z M 23.398438 25.175781 L 25.859375 25.175781 C 26.539062 25.175781 27.085938 25.828125 27.085938 26.640625 L 27.085938 29.085938 C 27.085938 29.898438 26.539062 30.554688 25.859375 30.554688 L 23.398438 30.554688 C 22.71875 30.554688 22.167969 29.898438 22.167969 29.085938 L 22.167969 26.640625 C 22.167969 25.832031 22.71875 25.175781 23.398438 25.175781 Z M 17.660156 25.175781 L 20.121094 25.175781 C 20.800781 25.175781 21.351562 25.828125 21.351562 26.640625 L 21.351562 29.085938 C 21.351562 29.898438 20.800781 30.554688 20.121094 30.554688 L 17.660156 30.554688 C 16.980469 30.554688 16.433594 29.898438 16.433594 29.085938 L 16.433594 26.640625 C 16.433594 25.832031 16.980469 25.175781 17.660156 25.175781 Z M 49.625 20.3125 L 52.085938 20.3125 C 52.765625 20.3125 53.3125 20.855469 53.3125 21.535156 C 53.3125 22.214844 52.765625 22.757812 52.085938 22.757812 L 49.625 22.757812 C 48.945312 22.757812 48.394531 22.214844 48.394531 21.535156 C 48.394531 20.859375 48.945312 20.3125 49.625 20.3125 Z M 43.886719 20.3125 L 46.347656 20.3125 C 47.027344 20.3125 47.578125 20.855469 47.578125 21.535156 C 47.578125 22.214844 47.027344 22.757812 46.347656 22.757812 L 43.886719 22.757812 C 43.207031 22.757812 42.660156 22.214844 42.660156 21.535156 C 42.660156 20.859375 43.207031 20.3125 43.886719 20.3125 Z M 34.875 20.3125 L 37.332031 20.3125 C 38.011719 20.3125 38.5625 20.855469 38.5625 21.535156 C 38.5625 22.214844 38.011719 22.757812 37.332031 22.757812 L 34.875 22.757812 C 34.191406 22.757812 33.644531 22.214844 33.644531 21.535156 C 33.644531 20.859375 34.191406 20.3125 34.875 20.3125 Z M 29.136719 20.3125 L 31.59375 20.3125 C 32.273438 20.3125 32.824219 20.855469 32.824219 21.535156 C 32.824219 22.214844 32.273438 22.757812 31.59375 22.757812 L 29.136719 22.757812 C 28.457031 22.757812 27.90625 22.214844 27.90625 21.535156 C 27.90625 20.859375 28.457031 20.3125 29.136719 20.3125 Z M 23.398438 20.3125 L 25.859375 20.3125 C 26.539062 20.3125 27.085938 20.855469 27.085938 21.535156 C 27.085938 22.214844 26.539062 22.757812 25.859375 22.757812 L 23.398438 22.757812 C 22.71875 22.757812 22.167969 22.214844 22.167969 21.535156 C 22.167969 20.859375 22.71875 20.3125 23.398438 20.3125 Z M 17.660156 20.3125 L 20.121094 20.3125 C 20.800781 20.3125 21.351562 20.855469 21.351562 21.535156 C 21.351562 22.214844 20.800781 22.757812 20.121094 22.757812 L 17.660156 22.757812 C 16.980469 22.757812 16.433594 22.214844 16.433594 21.535156 C 16.433594 20.859375 16.980469 20.3125 17.660156 20.3125 Z M 11.925781 20.3125 L 14.382812 20.3125 C 15.0625 20.3125 15.613281 20.855469 15.613281 21.535156 C 15.613281 22.214844 15.0625 22.757812 14.382812 22.757812 L 11.925781 22.757812 C 11.246094 22.757812 10.695312 22.214844 10.695312 21.535156 C 10.695312 20.859375 11.246094 20.3125 11.925781 20.3125 Z M 11.925781 20.3125 "/>
<path style=" stroke:none;fill-rule:nonzero;fill:url(#linear0);" d="M 47.5625 14.40625 C 48.023438 14.40625 48.394531 14.851562 48.394531 15.402344 C 48.394531 15.953125 48.023438 16.402344 47.5625 16.402344 C 47.097656 16.402344 46.722656 15.953125 46.722656 15.402344 C 46.722656 14.851562 47.097656 14.40625 47.5625 14.40625 Z M 47.5625 14.40625 "/>
<path style=" stroke:none;fill-rule:nonzero;fill:url(#linear0);" d="M 50.855469 14.445312 C 51.308594 14.445312 51.675781 14.882812 51.675781 15.421875 C 51.675781 15.964844 51.308594 16.402344 50.855469 16.402344 C 50.402344 16.402344 50.035156 15.964844 50.035156 15.421875 C 50.035156 14.882812 50.402344 14.445312 50.855469 14.445312 Z M 50.855469 14.445312 "/>
<path style=" stroke:none;fill-rule:nonzero;fill:url(#linear0);" d="M 96.960501 77.026468 L 96.960501 47.017908 C 96.960501 42.600891 93.385954 39.01456 88.963047 39.01456 L 68.983712 38.998585 C 66.86758 38.998585 64.837237 39.83726 63.331161 41.338886 C 61.834617 42.840512 60.99579 44.877292 60.99579 46.993946 L 61.014854 58.99098 " transform="matrix(0.409798,0,0,0.489053,5.77746,-1.205194)"/>
<path style=" stroke:none;fill-rule:nonzero;fill:url(#linear0);" d="M 78.12502 65.261067 L 111.925939 65.261067 C 115.83411 65.261067 118.998776 68.048661 118.998776 71.483231 L 118.998776 100.76494 C 118.998776 104.19951 115.83411 106.987103 111.925939 106.987103 L 78.12502 106.987103 C 74.216849 106.987103 71.042651 104.19951 71.042651 100.76494 L 71.042651 71.483231 C 71.042651 68.048661 74.216849 65.261067 78.12502 65.261067 Z M 78.12502 65.261067 " transform="matrix(0.409798,0,0,0.489053,5.77746,-1.205194)"/>
<path style=" stroke:none;fill-rule:nonzero;fill:url(#linear0);" d="M 56.801655 53.351895 L 63.207243 53.351895 C 64.522677 53.351895 65.590275 54.414215 65.590275 55.732132 L 65.590275 61.115621 C 65.590275 62.433537 64.522677 63.503845 63.207243 63.503845 L 56.801655 63.503845 C 55.476689 63.503845 54.409091 62.433537 54.409091 61.115621 L 54.409091 55.732132 C 54.409091 54.414215 55.476689 53.351895 56.801655 53.351895 Z M 56.801655 53.351895 " transform="matrix(0.409798,0,0,0.489053,5.77746,-1.205194)"/>
<path style=" stroke:none;fill-rule:nonzero;fill:url(#linear0);" d="M 44.710938 46.722656 C 46.761719 46.722656 48.035156 45.292969 48.097656 43.136719 L 45.925781 43.136719 C 45.839844 44.0625 45.375 44.570312 44.738281 44.570312 C 43.921875 44.570312 43.386719 43.742188 43.386719 42.191406 C 43.386719 40.652344 43.925781 39.828125 44.738281 39.828125 C 45.402344 39.828125 45.835938 40.367188 45.925781 41.261719 L 48.097656 41.261719 C 48.046875 39.113281 46.734375 37.714844 44.707031 37.714844 C 42.410156 37.714844 41.019531 39.542969 41.019531 42.222656 C 41.019531 44.886719 42.398438 46.722656 44.710938 46.722656 Z M 43.773438 34.164062 L 41.824219 34.164062 L 41.824219 34.238281 L 43.882812 36.78125 L 45.550781 36.78125 L 47.605469 34.238281 L 47.605469 34.164062 L 45.660156 34.164062 L 44.714844 35.480469 Z M 43.773438 34.164062 "/>
</g>
</svg>
