<svg xmlns="http://www.w3.org/2000/svg" xmlns:xlink="http://www.w3.org/1999/xlink" width="64" height="64" viewBox="0 0 64 64" version="1.1">
<defs>
<linearGradient id="linear0" gradientUnits="userSpaceOnUse" x1="0" y1="0" x2="0" y2="1" gradientTransform="matrix(56,0,0,51.695312,4,6.152344)">
<stop offset="0" style="stop-color:#ff6666;stop-opacity:1;"/>
<stop offset="1" style="stop-color:#d90000;stop-opacity:1;"/>
</linearGradient>
</defs>
<g id="surface1">
<path style=" stroke:none;fill-rule:nonzero;fill:url(#linear0);" d="M 16.53125 10.875 C 11.496094 10.875 7.445312 14.464844 7.445312 18.921875 L 7.445312 26.972656 L 13.503906 26.972656 L 13.503906 18.921875 C 13.503906 17.4375 14.855469 16.238281 16.53125 16.238281 L 25.617188 16.238281 L 25.617188 10.875 Z M 37.730469 10.875 L 37.730469 16.238281 L 46.816406 16.238281 C 48.496094 16.238281 49.847656 17.4375 49.847656 18.921875 L 49.847656 26.972656 L 55.902344 26.972656 L 55.902344 18.921875 C 55.902344 14.464844 51.851562 10.875 46.816406 10.875 Z M 7.445312 37.703125 L 7.445312 45.753906 C 7.445312 50.210938 11.496094 53.800781 16.53125 53.800781 L 25.617188 53.800781 L 25.617188 48.433594 L 16.53125 48.433594 C 14.855469 48.433594 13.503906 47.238281 13.503906 45.753906 L 13.503906 37.703125 Z M 49.847656 37.703125 L 49.847656 45.753906 C 49.847656 47.238281 48.496094 48.433594 46.816406 48.433594 L 37.730469 48.433594 L 37.730469 53.800781 L 46.816406 53.800781 C 51.851562 53.800781 55.902344 50.210938 55.902344 45.753906 L 55.902344 37.703125 Z M 49.847656 37.703125 "/>
</g>
</svg>
