<svg xmlns="http://www.w3.org/2000/svg" xmlns:xlink="http://www.w3.org/1999/xlink" width="64" height="64" viewBox="0 0 64 64" version="1.1">
<defs>
<linearGradient id="linear0" gradientUnits="userSpaceOnUse" x1="0" y1="0" x2="0" y2="1" gradientTransform="matrix(56,0,0,51.695312,4,6.152344)">
<stop offset="0" style="stop-color:#ff6666;stop-opacity:1;"/>
<stop offset="1" style="stop-color:#d90000;stop-opacity:1;"/>
</linearGradient>
</defs>
<g id="surface1">
<path style=" stroke:none;fill-rule:nonzero;fill:url(#linear0);" d="M 31.949219 13 C 25.472656 13 21.898438 18.492188 21.898438 23.855469 L 42 23.855469 C 42 18.492188 37.964844 13 31.949219 13 Z M 31.949219 13 "/>
<path style=" stroke:none;fill-rule:nonzero;fill:url(#linear0);" d="M 31.949219 15.039062 C 26.6875 15.039062 23.785156 19.5 23.785156 23.855469 L 31.949219 24.78125 L 40.113281 23.855469 C 40.113281 19.5 36.835938 15.039062 31.949219 15.039062 Z M 31.949219 15.039062 "/>
<path style=" stroke:none;fill-rule:nonzero;fill:url(#linear0);" d="M 14.222656 41.320312 C 13.816406 41.320312 13.480469 41.003906 13.457031 40.597656 C 13.433594 40.191406 13.734375 39.835938 14.136719 39.792969 C 14.855469 39.710938 15.4375 39.171875 15.566406 38.460938 C 15.699219 37.75 15.347656 37.039062 14.707031 36.707031 C 14.066406 36.375 13.285156 36.503906 12.78125 37.019531 C 12.277344 37.539062 12.171875 38.324219 12.519531 38.957031 C 12.707031 39.324219 12.566406 39.773438 12.207031 39.972656 C 11.847656 40.171875 11.394531 40.050781 11.179688 39.695312 C 10.503906 38.472656 10.710938 36.953125 11.683594 35.953125 C 12.65625 34.953125 14.171875 34.707031 15.410156 35.347656 C 16.652344 35.988281 17.328125 37.367188 17.074219 38.738281 C 16.820312 40.113281 15.699219 41.15625 14.3125 41.316406 C 14.28125 41.316406 14.253906 41.320312 14.222656 41.320312 Z M 14.222656 41.320312 "/>
<path style=" stroke:none;fill-rule:nonzero;fill:url(#linear0);" d="M 17.402344 31.171875 L 17.601562 31.273438 C 18.53125 31.75 18.902344 32.890625 18.425781 33.820312 L 17.632812 35.367188 C 17.15625 36.296875 16.015625 36.667969 15.085938 36.191406 L 14.886719 36.089844 C 13.957031 35.613281 13.589844 34.472656 14.066406 33.542969 L 14.855469 31.996094 C 15.332031 31.066406 16.472656 30.695312 17.402344 31.171875 Z M 17.402344 31.171875 "/>
<path style=" stroke:none;fill-rule:nonzero;fill:url(#linear0);" d="M 17.738281 28.082031 L 19.878906 29.179688 L 18.230469 32.402344 C 17.925781 32.992188 17.203125 33.226562 16.613281 32.925781 C 16.019531 32.621094 15.785156 31.898438 16.089844 31.308594 Z M 17.738281 28.082031 "/>
<path style=" stroke:none;fill-rule:nonzero;fill:url(#linear0);" d="M 22.183594 27.839844 C 22.183594 29.425781 20.894531 30.714844 19.308594 30.714844 C 17.722656 30.714844 16.433594 29.425781 16.433594 27.839844 C 16.433594 26.253906 17.722656 24.964844 19.308594 24.964844 C 20.894531 24.964844 22.183594 26.253906 22.183594 27.839844 Z M 22.183594 27.839844 "/>
<path style=" stroke:none;fill-rule:nonzero;fill:url(#linear0);" d="M 20.667969 25.324219 C 19.511719 24.6875 18.070312 24.917969 17.175781 25.882812 C 18.292969 25.933594 19.28125 26.628906 19.703125 27.667969 C 20.128906 28.703125 19.910156 29.890625 19.148438 30.710938 C 20.484375 30.769531 21.683594 29.90625 22.046875 28.621094 C 22.40625 27.335938 21.835938 25.96875 20.667969 25.324219 Z M 20.667969 25.324219 "/>
<path style=" stroke:none;fill-rule:nonzero;fill:url(#linear0);" d="M 49.78125 41.320312 C 49.75 41.320312 49.722656 41.316406 49.691406 41.316406 C 48.304688 41.15625 47.183594 40.113281 46.929688 38.738281 C 46.675781 37.367188 47.351562 35.988281 48.59375 35.347656 C 49.832031 34.707031 51.347656 34.953125 52.320312 35.953125 C 53.292969 36.953125 53.5 38.472656 52.824219 39.695312 C 52.699219 39.945312 52.445312 40.109375 52.164062 40.117188 C 51.882812 40.125 51.621094 39.980469 51.480469 39.738281 C 51.335938 39.496094 51.339844 39.195312 51.484375 38.957031 C 51.832031 38.324219 51.726562 37.539062 51.222656 37.019531 C 50.722656 36.503906 49.9375 36.375 49.296875 36.707031 C 48.65625 37.039062 48.304688 37.75 48.4375 38.460938 C 48.566406 39.171875 49.148438 39.710938 49.867188 39.792969 C 50.269531 39.835938 50.570312 40.191406 50.546875 40.597656 C 50.523438 41.003906 50.1875 41.320312 49.78125 41.320312 Z M 49.78125 41.320312 "/>
<path style=" stroke:none;fill-rule:nonzero;fill:url(#linear0);" d="M 49.113281 36.089844 L 48.914062 36.191406 C 47.984375 36.667969 46.84375 36.300781 46.367188 35.371094 L 45.578125 33.824219 C 45.101562 32.894531 45.472656 31.753906 46.402344 31.277344 L 46.601562 31.175781 C 47.53125 30.699219 48.671875 31.066406 49.148438 32 L 49.9375 33.542969 C 50.414062 34.476562 50.046875 35.613281 49.113281 36.089844 Z M 49.113281 36.089844 "/>
<path style=" stroke:none;fill-rule:nonzero;fill:url(#linear0);" d="M 47.390625 32.925781 C 46.800781 33.230469 46.074219 32.996094 45.773438 32.402344 L 44.125 29.179688 L 46.265625 28.085938 L 47.914062 31.308594 C 48.214844 31.898438 47.980469 32.625 47.390625 32.925781 Z M 47.390625 32.925781 "/>
<path style=" stroke:none;fill-rule:nonzero;fill:url(#linear0);" d="M 47.570312 27.839844 C 47.570312 29.425781 46.28125 30.714844 44.695312 30.714844 C 43.109375 30.714844 41.820312 29.425781 41.820312 27.839844 C 41.820312 26.253906 43.109375 24.964844 44.695312 24.964844 C 46.28125 24.964844 47.570312 26.253906 47.570312 27.839844 Z M 47.570312 27.839844 "/>
<path style=" stroke:none;fill-rule:nonzero;fill:url(#linear0);" d="M 43.335938 25.324219 C 44.488281 24.6875 45.929688 24.917969 46.828125 25.882812 C 45.710938 25.933594 44.722656 26.632812 44.300781 27.667969 C 43.875 28.703125 44.09375 29.890625 44.855469 30.710938 C 43.519531 30.773438 42.316406 29.90625 41.957031 28.621094 C 41.59375 27.335938 42.164062 25.96875 43.335938 25.324219 Z M 43.335938 25.324219 "/>
<path style=" stroke:none;fill-rule:nonzero;fill:url(#linear0);" d="M 20.3125 49.003906 C 18.90625 49.003906 17.746094 47.476562 17.417969 45.207031 C 17.246094 43.988281 17.332031 42.710938 17.667969 41.609375 C 18.027344 40.421875 18.644531 39.554688 19.402344 39.167969 C 19.683594 39.023438 19.996094 38.945312 20.308594 38.945312 L 24.273438 38.945312 L 24.273438 49.003906 Z M 20.3125 49.003906 "/>
<path style=" stroke:none;fill-rule:nonzero;fill:url(#linear0);" d="M 24.242188 49.003906 C 23.429688 49.003906 22.753906 47.476562 22.566406 45.207031 C 22.464844 43.988281 22.515625 42.710938 22.710938 41.609375 C 22.917969 40.421875 23.277344 39.554688 23.714844 39.167969 C 23.882812 39.019531 24.058594 38.945312 24.242188 38.945312 C 24.421875 38.945312 24.597656 39.019531 24.769531 39.167969 L 26.671875 40.84375 C 27.335938 41.429688 27.566406 43.296875 27.445312 44.75 C 27.351562 45.871094 27.0625 46.75 26.671875 47.097656 L 24.769531 48.777344 C 24.601562 48.929688 24.421875 49.003906 24.242188 49.003906 Z M 24.242188 49.003906 "/>
<path style=" stroke:none;fill-rule:nonzero;fill:url(#linear0);" d="M 24.59375 39.769531 L 26.492188 41.445312 C 26.921875 41.824219 27.175781 43.261719 27.058594 44.65625 C 26.984375 45.585938 26.757812 46.265625 26.492188 46.5 L 24.59375 48.179688 C 23.882812 48.804688 23.144531 47.433594 22.953125 45.113281 C 22.757812 42.789062 23.183594 40.398438 23.894531 39.769531 C 24.128906 39.5625 24.371094 39.578125 24.59375 39.769531 Z M 24.59375 39.769531 "/>
<path style=" stroke:none;fill-rule:nonzero;fill:url(#linear0);" d="M 43.363281 49.003906 C 44.765625 49.003906 45.929688 47.476562 46.253906 45.207031 C 46.429688 43.988281 46.339844 42.710938 46.007812 41.609375 C 45.644531 40.421875 45.027344 39.554688 44.269531 39.167969 C 43.992188 39.023438 43.679688 38.945312 43.363281 38.945312 L 39.398438 38.945312 L 39.398438 49.003906 Z M 43.363281 49.003906 "/>
<path style=" stroke:none;fill-rule:nonzero;fill:url(#linear0);" d="M 39.429688 49.003906 C 40.246094 49.003906 40.917969 47.476562 41.109375 45.207031 C 41.210938 43.988281 41.160156 42.710938 40.964844 41.609375 C 40.753906 40.421875 40.398438 39.554688 39.957031 39.167969 C 39.789062 39.019531 39.613281 38.945312 39.433594 38.945312 C 39.25 38.945312 39.074219 39.019531 38.90625 39.167969 L 37.003906 40.84375 C 36.335938 41.429688 36.105469 43.296875 36.226562 44.75 C 36.320312 45.871094 36.609375 46.75 37 47.097656 L 38.902344 48.777344 C 39.074219 48.929688 39.25 49.003906 39.429688 49.003906 Z M 39.429688 49.003906 "/>
<path style=" stroke:none;fill-rule:nonzero;fill:url(#linear0);" d="M 39.082031 39.769531 L 37.179688 41.445312 C 36.75 41.824219 36.5 43.261719 36.613281 44.65625 C 36.691406 45.585938 36.914062 46.261719 37.179688 46.5 L 39.082031 48.175781 C 39.792969 48.804688 40.527344 47.433594 40.722656 45.109375 C 40.914062 42.789062 40.492188 40.394531 39.78125 39.769531 C 39.542969 39.5625 39.300781 39.578125 39.082031 39.769531 Z M 39.082031 39.769531 "/>
<path style=" stroke:none;fill-rule:nonzero;fill:url(#linear0);" d="M 43.28125 30.285156 C 43.113281 29.714844 43.105469 29.113281 43.261719 28.539062 C 43.824219 26.503906 43.453125 24.257812 43.453125 24.257812 C 36.367188 22.046875 31.960938 24.238281 31.960938 24.238281 C 31.960938 24.238281 27.566406 22.03125 20.472656 24.222656 C 20.472656 24.222656 20.09375 26.46875 20.652344 28.503906 C 20.804688 29.078125 20.796875 29.683594 20.628906 30.25 C 20.429688 30.925781 20.214844 31.957031 20.214844 33.269531 C 20.199219 42.804688 31.933594 45.757812 31.933594 45.757812 C 31.933594 45.757812 43.671875 42.839844 43.6875 33.304688 C 43.6875 31.992188 43.476562 30.960938 43.28125 30.285156 Z M 43.28125 30.285156 "/>
<path style=" stroke:none;fill-rule:nonzero;fill:url(#linear0);" d="M 31.9375 43.976562 C 29.992188 43.367188 21.914062 40.40625 21.925781 33.273438 C 21.925781 32.136719 22.113281 31.265625 22.269531 30.730469 C 22.53125 29.859375 22.542969 28.929688 22.304688 28.050781 C 22.066406 27.1875 22.039062 26.246094 22.066406 25.550781 C 23.617188 25.160156 25.140625 24.960938 26.601562 24.964844 C 29.5 24.96875 31.191406 25.769531 31.210938 25.777344 L 31.988281 26.167969 L 32.726562 25.773438 C 32.730469 25.773438 34.425781 24.976562 37.324219 24.980469 C 38.785156 24.984375 40.304688 25.183594 41.855469 25.582031 C 41.882812 26.277344 41.851562 27.21875 41.613281 28.082031 C 41.371094 28.960938 41.378906 29.886719 41.636719 30.761719 C 41.789062 31.292969 41.976562 32.167969 41.972656 33.304688 C 41.964844 40.464844 33.882812 43.378906 31.9375 43.976562 Z M 31.9375 43.976562 "/>
<path style=" stroke:none;fill-rule:nonzero;fill:url(#linear0);" d="M 34.148438 31.332031 C 34.152344 30.179688 33.265625 29.222656 32.117188 29.136719 C 30.964844 29.046875 29.945312 29.863281 29.773438 31.003906 C 29.601562 32.140625 30.339844 33.222656 31.464844 33.476562 L 30.226562 38.664062 L 31.9375 39.15625 L 33.648438 38.667969 L 32.429688 33.476562 C 33.433594 33.253906 34.148438 32.363281 34.148438 31.332031 Z M 34.148438 31.332031 "/>
<path style=" stroke:none;fill-rule:nonzero;fill:url(#linear0);" d="M 28.207031 18.019531 C 26.921875 18.019531 25.882812 19.058594 25.882812 20.339844 L 30.527344 20.339844 C 30.527344 19.058594 29.488281 18.019531 28.207031 18.019531 Z M 35.382812 18.019531 C 34.101562 18.019531 33.0625 19.058594 33.0625 20.339844 L 37.707031 20.339844 C 37.707031 19.058594 36.667969 18.019531 35.382812 18.019531 Z M 35.382812 18.019531 "/>
<path style=" stroke:none;fill-rule:nonzero;fill:url(#linear0);" d="M 29.730469 21.785156 C 29.730469 22.03125 29.53125 22.226562 29.289062 22.226562 C 29.046875 22.226562 28.847656 22.03125 28.847656 21.785156 C 28.847656 21.542969 29.046875 21.34375 29.289062 21.34375 C 29.53125 21.34375 29.730469 21.542969 29.730469 21.785156 Z M 29.730469 21.785156 "/>
<path style=" stroke:none;fill-rule:nonzero;fill:url(#linear0);" d="M 31.464844 21.785156 C 31.464844 22.03125 31.265625 22.226562 31.023438 22.226562 C 30.78125 22.226562 30.582031 22.03125 30.582031 21.785156 C 30.582031 21.542969 30.78125 21.34375 31.023438 21.34375 C 31.265625 21.34375 31.464844 21.542969 31.464844 21.785156 Z M 31.464844 21.785156 "/>
<path style=" stroke:none;fill-rule:nonzero;fill:url(#linear0);" d="M 33.199219 21.785156 C 33.199219 22.03125 33 22.226562 32.757812 22.226562 C 32.515625 22.226562 32.316406 22.03125 32.316406 21.785156 C 32.316406 21.542969 32.515625 21.34375 32.757812 21.34375 C 33 21.34375 33.199219 21.542969 33.199219 21.785156 Z M 33.199219 21.785156 "/>
<path style=" stroke:none;fill-rule:nonzero;fill:url(#linear0);" d="M 34.933594 21.785156 C 34.933594 22.03125 34.734375 22.226562 34.492188 22.226562 C 34.25 22.226562 34.050781 22.03125 34.050781 21.785156 C 34.050781 21.542969 34.25 21.34375 34.492188 21.34375 C 34.734375 21.34375 34.933594 21.542969 34.933594 21.785156 Z M 34.933594 21.785156 "/>
</g>
</svg>
