<svg xmlns="http://www.w3.org/2000/svg" xmlns:xlink="http://www.w3.org/1999/xlink" width="64" height="64" viewBox="0 0 64 64" version="1.1">
<defs>
<linearGradient id="linear0" gradientUnits="userSpaceOnUse" x1="0" y1="0" x2="0" y2="1" gradientTransform="matrix(64,0,0,44,0,10)">
<stop offset="0" style="stop-color:#ff6666;stop-opacity:1;"/>
<stop offset="1" style="stop-color:#d90000;stop-opacity:1;"/>
</linearGradient>
</defs>
<g id="surface1">
<path style=" stroke:none;fill-rule:nonzero;fill:url(#linear0);" d="M 0 53.285156 C 10.914062 49.945312 21.234375 44.390625 30.253906 37 C 33.316406 34.492188 36.292969 31.691406 38.160156 28.074219 C 39.09375 26.265625 39.730469 24.265625 39.898438 22.207031 C 40.0625 20.148438 39.738281 18.027344 38.851562 16.191406 C 38.101562 14.640625 36.964844 13.316406 35.621094 12.324219 C 34.277344 11.335938 32.734375 10.671875 31.136719 10.320312 C 27.941406 9.613281 24.597656 10.144531 21.503906 11.253906 C 17.324219 12.753906 13.433594 15.347656 10.625 18.988281 C 7.8125 22.628906 6.140625 27.351562 6.363281 32.070312 C 6.605469 37.207031 9.074219 42.058594 12.585938 45.5625 C 16.097656 49.070312 20.582031 51.3125 25.226562 52.609375 C 32.011719 54.503906 39.257812 54.460938 46.023438 52.484375 C 52.789062 50.503906 59.054688 46.59375 64 41.265625 L 63.949219 27.433594 C 59.582031 34.671875 52.957031 40.308594 45.390625 43.222656 C 39.691406 45.417969 33.34375 46.066406 27.5625 44.136719 C 24.671875 43.171875 21.953125 41.566406 19.722656 39.371094 C 17.492188 37.179688 15.757812 34.386719 14.835938 31.296875 C 13.769531 27.714844 13.839844 23.667969 15.441406 20.324219 C 16.242188 18.652344 17.410156 17.175781 18.855469 16.113281 C 20.300781 15.046875 22.023438 14.402344 23.773438 14.332031 C 24.945312 14.285156 26.132812 14.492188 27.210938 14.984375 C 28.292969 15.476562 29.261719 16.253906 29.976562 17.25 C 30.796875 18.402344 31.257812 19.824219 31.375 21.269531 C 31.488281 22.710938 31.269531 24.175781 30.828125 25.542969 C 29.941406 28.28125 28.207031 30.601562 26.398438 32.753906 C 19.078125 41.488281 10.015625 48.535156 0 53.285156 "/>
</g>
</svg>
