<svg xmlns="http://www.w3.org/2000/svg" xmlns:xlink="http://www.w3.org/1999/xlink" width="64" height="64" viewBox="0 0 64 64" version="1.1">
<defs> <linearGradient id="linear0" gradientUnits="userSpaceOnUse" x1="0" y1="0" x2="0" y2="1" gradientTransform="matrix(55.992188,0,0,56,4.003906,4)"> <stop offset="0" style="stop-color:#ff6666;stop-opacity:1;"/> <stop offset="1" style="stop-color:#d90000;stop-opacity:1;"/> </linearGradient> </defs>
<g id="surface1">
<path style=" stroke:none;fill-rule:nonzero;fill:url(#linear0);fill-opacity:1;" d="M 18.976562 27.949219 C 18.976562 29.539062 18.789062 30.980469 18.410156 32.285156 C 18.046875 33.59375 17.476562 34.707031 16.71875 35.640625 C 15.949219 36.566406 14.984375 37.285156 13.816406 37.792969 C 12.65625 38.296875 11.28125 38.550781 9.699219 38.550781 C 8.117188 38.550781 6.738281 38.296875 5.570312 37.792969 C 4.410156 37.285156 3.449219 36.566406 2.683594 35.640625 C 1.933594 34.707031 1.367188 33.59375 0.992188 32.285156 C 0.621094 30.972656 0.433594 29.515625 0.433594 27.921875 C 0.433594 26.324219 0.621094 24.878906 0.992188 23.582031 C 1.367188 22.277344 1.933594 21.167969 2.703125 20.246094 C 3.460938 19.324219 4.425781 18.617188 5.585938 18.121094 C 6.757812 17.609375 8.136719 17.363281 9.726562 17.363281 C 11.3125 17.363281 12.683594 17.609375 13.84375 18.121094 C 15.003906 18.617188 15.960938 19.328125 16.71875 20.261719 C 17.476562 21.179688 18.046875 22.292969 18.410156 23.601562 C 18.789062 24.894531 18.976562 26.34375 18.976562 27.949219 Z M 4.949219 27.949219 C 4.949219 29.027344 5.042969 30 5.234375 30.867188 C 5.421875 31.722656 5.707031 32.445312 6.089844 33.050781 C 6.488281 33.636719 6.984375 34.097656 7.578125 34.414062 C 8.171875 34.734375 8.878906 34.894531 9.699219 34.894531 C 10.539062 34.894531 11.253906 34.734375 11.851562 34.414062 C 12.453125 34.097656 12.941406 33.636719 13.320312 33.050781 C 13.707031 32.445312 13.992188 31.722656 14.167969 30.867188 C 14.355469 30 14.449219 29.027344 14.449219 27.949219 C 14.449219 26.867188 14.355469 25.902344 14.167969 25.046875 C 13.992188 24.183594 13.707031 23.453125 13.320312 22.851562 C 12.941406 22.25 12.457031 21.789062 11.863281 21.472656 C 11.269531 21.152344 10.554688 20.992188 9.726562 20.992188 C 8.910156 20.992188 8.199219 21.152344 7.589844 21.472656 C 6.988281 21.789062 6.488281 22.25 6.089844 22.851562 C 5.707031 23.453125 5.421875 24.183594 5.234375 25.046875 C 5.042969 25.902344 4.949219 26.867188 4.949219 27.949219 Z M 4.949219 27.949219 "/>
<path style=" stroke:none;fill-rule:nonzero;fill:url(#linear0);fill-opacity:1;" d="M 34.578125 32.558594 C 34.578125 33.472656 34.414062 34.304688 34.09375 35.046875 C 33.78125 35.78125 33.324219 36.410156 32.710938 36.933594 C 32.105469 37.449219 31.359375 37.851562 30.472656 38.132812 C 29.597656 38.410156 28.585938 38.550781 27.445312 38.550781 C 26.449219 38.550781 25.480469 38.449219 24.546875 38.246094 C 23.621094 38.039062 22.765625 37.726562 21.976562 37.3125 L 21.976562 33.257812 C 22.425781 33.472656 22.882812 33.6875 23.34375 33.890625 C 23.808594 34.089844 24.277344 34.265625 24.746094 34.429688 C 25.230469 34.589844 25.703125 34.710938 26.171875 34.808594 C 26.65625 34.90625 27.132812 34.949219 27.605469 34.949219 C 28.085938 34.949219 28.496094 34.898438 28.835938 34.792969 C 29.183594 34.683594 29.460938 34.53125 29.664062 34.34375 C 29.886719 34.148438 30.039062 33.914062 30.136719 33.65625 C 30.238281 33.382812 30.289062 33.082031 30.289062 32.765625 C 30.289062 32.382812 30.203125 32.042969 30.035156 31.753906 C 29.875 31.449219 29.640625 31.171875 29.339844 30.921875 C 29.050781 30.65625 28.695312 30.402344 28.269531 30.160156 C 27.855469 29.917969 27.386719 29.65625 26.867188 29.386719 C 26.433594 29.160156 25.949219 28.886719 25.410156 28.570312 C 24.871094 28.25 24.367188 27.859375 23.882812 27.390625 C 23.414062 26.90625 23.015625 26.335938 22.695312 25.667969 C 22.375 24.992188 22.214844 24.1875 22.214844 23.25 C 22.214844 22.328125 22.367188 21.507812 22.667969 20.785156 C 22.980469 20.046875 23.417969 19.4375 23.980469 18.941406 C 24.546875 18.429688 25.230469 18.046875 26.03125 17.78125 C 26.84375 17.519531 27.75 17.390625 28.75 17.390625 C 29.25 17.390625 29.734375 17.417969 30.203125 17.484375 C 30.6875 17.554688 31.160156 17.644531 31.617188 17.769531 C 32.089844 17.886719 32.5625 18.039062 33.03125 18.222656 C 33.503906 18.398438 33.992188 18.605469 34.492188 18.839844 L 33.078125 22.230469 C 32.652344 22.03125 32.253906 21.863281 31.886719 21.710938 C 31.523438 21.5625 31.164062 21.433594 30.8125 21.332031 C 30.464844 21.230469 30.121094 21.152344 29.777344 21.105469 C 29.449219 21.050781 29.113281 21.019531 28.777344 21.019531 C 28.039062 21.019531 27.472656 21.21875 27.082031 21.613281 C 26.695312 22 26.503906 22.515625 26.503906 23.164062 C 26.503906 23.507812 26.558594 23.820312 26.671875 24.089844 C 26.792969 24.351562 26.980469 24.601562 27.234375 24.839844 C 27.5 25.070312 27.835938 25.3125 28.238281 25.554688 C 28.65625 25.800781 29.152344 26.078125 29.738281 26.386719 C 30.441406 26.761719 31.097656 27.144531 31.691406 27.542969 C 32.28125 27.925781 32.792969 28.355469 33.214844 28.835938 C 33.652344 29.304688 33.988281 29.84375 34.21875 30.441406 C 34.457031 31.042969 34.578125 31.75 34.578125 32.558594 Z M 34.578125 32.558594 "/>
<path style=" stroke:none;fill-rule:nonzero;fill:url(#linear0);fill-opacity:1;" d="M 54.089844 17.683594 L 54.089844 31.007812 C 54.089844 32.078125 53.925781 33.074219 53.597656 33.996094 C 53.273438 34.910156 52.777344 35.707031 52.109375 36.386719 C 51.449219 37.058594 50.621094 37.589844 49.621094 37.976562 C 48.621094 38.359375 47.445312 38.550781 46.101562 38.550781 C 44.828125 38.550781 43.703125 38.378906 42.722656 38.019531 C 41.75 37.652344 40.933594 37.140625 40.273438 36.472656 C 39.625 35.804688 39.125 35.007812 38.792969 34.078125 C 38.449219 33.140625 38.28125 32.09375 38.28125 30.953125 L 38.28125 17.683594 L 42.648438 17.683594 L 42.648438 30.625 C 42.648438 31.386719 42.726562 32.039062 42.875 32.585938 C 43.027344 33.117188 43.25 33.558594 43.539062 33.910156 C 43.839844 34.242188 44.214844 34.492188 44.65625 34.65625 C 45.101562 34.8125 45.617188 34.894531 46.214844 34.894531 C 47.445312 34.894531 48.335938 34.539062 48.886719 33.824219 C 49.445312 33.113281 49.722656 32.03125 49.722656 30.59375 L 49.722656 17.683594 Z M 54.089844 17.683594 "/>
<path style=" stroke:none;fill-rule:nonzero;fill:url(#linear0);fill-opacity:1;" d="M 62.433594 31.445312 L 58.984375 31.445312 L 58.265625 17.683594 L 63.152344 17.683594 Z M 58.207031 36.257812 C 58.207031 35.816406 58.265625 35.449219 58.390625 35.148438 C 58.519531 34.835938 58.703125 34.589844 58.929688 34.402344 C 59.152344 34.210938 59.417969 34.074219 59.71875 33.988281 C 60.019531 33.902344 60.34375 33.863281 60.695312 33.863281 C 61.023438 33.863281 61.335938 33.902344 61.625 33.988281 C 61.925781 34.074219 62.195312 34.210938 62.421875 34.402344 C 62.644531 34.589844 62.824219 34.835938 62.957031 35.148438 C 63.085938 35.449219 63.152344 35.816406 63.152344 36.257812 C 63.152344 36.679688 63.085938 37.042969 62.957031 37.34375 C 62.824219 37.640625 62.644531 37.890625 62.421875 38.089844 C 62.195312 38.285156 61.925781 38.429688 61.625 38.511719 C 61.335938 38.601562 61.023438 38.65625 60.695312 38.65625 C 60.34375 38.65625 60.019531 38.601562 59.71875 38.511719 C 59.417969 38.429688 59.152344 38.285156 58.929688 38.089844 C 58.703125 37.890625 58.519531 37.640625 58.390625 37.34375 C 58.265625 37.042969 58.207031 36.679688 58.207031 36.257812 Z M 58.207031 36.257812 "/>
</g>
</svg>
