<svg xmlns="http://www.w3.org/2000/svg" xmlns:xlink="http://www.w3.org/1999/xlink" width="64" height="64" viewBox="0 0 64 64" version="1.1">
<defs>
<linearGradient id="linear0" gradientUnits="userSpaceOnUse" x1="0" y1="0" x2="0" y2="1" gradientTransform="matrix(64,0,0,64,0,0)">
<stop offset="0" style="stop-color:#ff6666;stop-opacity:1;"/>
<stop offset="1" style="stop-color:#d90000;stop-opacity:1;"/>
</linearGradient>
</defs>
<g id="surface1">
<path style=" stroke:none;fill-rule:nonzero;fill:url(#linear0);" d="M 29.566406 62.949219 C 28.453125 61.992188 28.382812 61.765625 28.382812 59.058594 L 28.382812 56.1875 L 26.472656 57.152344 C 25.425781 57.683594 23.214844 58.460938 21.566406 58.882812 C 18.234375 59.734375 15.367188 59.492188 13.101562 58.167969 C 10.921875 56.890625 10.277344 55.585938 10.269531 52.441406 C 10.265625 50.886719 10.402344 48.902344 10.574219 48.039062 C 10.746094 47.164062 10.734375 46.683594 10.550781 46.957031 C 9.78125 48.089844 7.480469 49.414062 6.28125 49.414062 C 4.21875 49.414062 2.976562 47.601562 2.976562 44.59375 C 2.976562 43.171875 3.304688 41.265625 3.785156 39.917969 L 4.59375 37.644531 L 3.6875 36.417969 C 2.976562 35.457031 2.78125 34.6875 2.792969 32.890625 C 2.804688 30.953125 3.082031 30.046875 4.550781 27.199219 C 6.304688 23.796875 7.3125 22.445312 7.304688 23.511719 C 7.300781 23.808594 6.882812 24.777344 6.375 25.664062 C 4.695312 28.597656 3.613281 32.171875 3.917969 33.789062 C 4.15625 35.058594 4.339844 35.257812 5.257812 35.257812 C 6.84375 35.253906 8.300781 34.210938 13.125 29.609375 L 17.496094 25.445312 L 14.570312 23.308594 C 12.960938 22.136719 10.855469 20.679688 9.894531 20.070312 C 7.46875 18.539062 6.773438 16.8125 7.730469 14.710938 C 8.203125 13.679688 8.855469 13.214844 12.132812 11.589844 C 13.378906 10.96875 14.398438 10.394531 14.398438 10.308594 C 14.398438 10.21875 14.109375 9.859375 13.753906 9.503906 C 12.71875 8.472656 13.625 6.015625 15.285156 5.351562 C 15.988281 5.074219 17.683594 4.339844 19.050781 3.726562 C 21.742188 2.519531 29.8125 -0.210938 30.035156 0.0117188 C 30.515625 0.492188 29.441406 1.398438 27.679688 2.003906 C 21.75 4.035156 14.398438 7.113281 14.398438 7.5625 C 14.398438 7.679688 14.667969 8.292969 14.996094 8.925781 L 15.59375 10.078125 L 17.65625 9.25 C 24.234375 6.617188 33.953125 3.800781 36.460938 3.800781 C 36.910156 3.800781 37.726562 4.246094 38.265625 4.785156 C 39.097656 5.617188 39.210938 5.996094 38.988281 7.242188 C 38.605469 9.390625 37.597656 10.835938 34.671875 13.433594 C 33.242188 14.699219 31.511719 16.515625 30.828125 17.46875 C 29.316406 19.570312 28.96875 19.039062 30.21875 16.542969 C 31.042969 14.890625 33.511719 12.222656 36.652344 9.585938 C 37.816406 8.605469 37.820312 8.585938 37.082031 7.769531 C 36.539062 7.171875 35.863281 6.949219 34.585938 6.949219 C 32.785156 6.949219 27.039062 8.328125 22.867188 9.761719 C 18.191406 11.375 8.882812 15.523438 8.882812 15.996094 C 8.882812 16.128906 9.460938 16.535156 10.164062 16.898438 C 11.507812 17.589844 14.707031 19.507812 18.632812 21.976562 L 20.960938 23.4375 L 22.78125 22.746094 C 23.785156 22.367188 24.699219 21.964844 24.8125 21.847656 C 24.925781 21.734375 24.644531 19.503906 24.1875 16.890625 C 23.390625 12.359375 23.414062 10.09375 24.253906 10.09375 C 24.46875 10.09375 24.640625 10.257812 24.640625 10.460938 C 24.640625 10.664062 25.199219 11.726562 25.882812 12.824219 C 27.117188 14.800781 27.1875 15.777344 26.03125 14.820312 C 25.28125 14.199219 25.246094 14.714844 25.851562 17.527344 C 26.359375 19.894531 27.464844 21.398438 29.238281 22.140625 C 30.414062 22.628906 30.550781 22.847656 30.550781 24.253906 C 30.550781 25.988281 30.363281 26.089844 28.722656 25.234375 C 27.40625 24.550781 25.3125 24.464844 24.210938 25.054688 C 23.527344 25.421875 23.914062 25.800781 27.683594 28.496094 C 30.019531 30.164062 32.59375 32.035156 33.40625 32.65625 L 34.882812 33.777344 L 34.882812 32.714844 C 34.882812 32.132812 34.691406 28.230469 34.460938 24.050781 C 34.09375 17.5 34.117188 16.296875 34.625 15.335938 L 35.210938 14.222656 L 36.066406 16.1875 C 38.050781 20.773438 38.414062 23.144531 36.804688 21.058594 L 36.082031 20.121094 L 36.109375 22.28125 C 36.121094 23.472656 36.339844 26.90625 36.59375 29.914062 L 37.050781 35.378906 L 38.582031 36.171875 C 39.988281 36.902344 40.246094 36.921875 41.734375 36.40625 L 43.351562 35.847656 L 43.425781 33.488281 C 43.464844 32.191406 43.332031 29.714844 43.132812 27.984375 C 42.933594 26.253906 42.597656 22.449219 42.390625 19.53125 C 42.179688 16.609375 41.8125 11.785156 41.574219 8.804688 C 41.167969 3.742188 41.257812 1.824219 41.902344 1.84375 C 42.273438 1.855469 44.730469 7.496094 44.730469 8.34375 C 44.730469 8.996094 44.6875 8.996094 43.941406 8.324219 C 42.980469 7.453125 42.992188 7.089844 43.71875 14.617188 C 45.316406 31.105469 45.414062 33.515625 44.59375 36.234375 C 43.792969 38.875 40.941406 40.21875 38.28125 39.210938 L 37.292969 38.835938 L 37.367188 45.402344 C 37.441406 51.746094 36.929688 55.707031 36.035156 55.707031 C 35.859375 55.707031 35.746094 53.980469 35.789062 51.871094 C 35.832031 49.761719 35.71875 45.628906 35.535156 42.679688 L 35.203125 37.320312 L 32.582031 35.332031 C 31.140625 34.238281 29.605469 33.019531 29.171875 32.628906 C 28.738281 32.238281 27.34375 31.144531 26.074219 30.199219 L 23.765625 28.484375 L 24.765625 30.199219 C 26.070312 32.445312 26.414062 34.441406 25.8125 36.316406 C 25.066406 38.640625 24.015625 39.484375 20.539062 40.558594 C 16.828125 41.703125 13.496094 43.515625 12.601562 44.875 C 12.253906 45.402344 11.789062 46.949219 11.566406 48.3125 C 11.046875 51.496094 11.652344 53.394531 13.734375 55.066406 C 15.015625 56.097656 15.628906 56.292969 17.96875 56.425781 C 21.914062 56.648438 27.144531 54.746094 31.078125 51.660156 C 32.875 50.246094 32.867188 49.871094 30.949219 44.550781 C 29.992188 41.894531 29.753906 40.726562 29.957031 39.648438 L 30.222656 38.234375 L 31.949219 40.1875 C 33.859375 42.355469 34.085938 42.921875 32.914062 42.617188 C 31.941406 42.363281 31.941406 42.441406 32.914062 44.996094 C 33.789062 47.292969 33.9375 50.191406 33.253906 51.503906 C 33.003906 51.976562 32.058594 53.167969 31.148438 54.148438 C 29.792969 55.609375 29.441406 56.3125 29.214844 58.023438 C 29.003906 59.617188 29.082031 60.335938 29.554688 61.054688 C 30.820312 62.980469 32.058594 62.15625 37.953125 55.453125 C 40.035156 53.089844 40.894531 52.519531 45.269531 50.617188 L 47.585938 49.609375 L 47.667969 46.859375 C 47.777344 43.1875 48.898438 41.15625 50.820312 41.15625 C 51.519531 41.15625 51.882812 41.527344 52.371094 42.738281 C 52.71875 43.609375 53.003906 44.648438 53.003906 45.046875 C 53.003906 46.273438 51.839844 49.144531 50.96875 50.070312 C 49.773438 51.339844 50.269531 52.167969 52.222656 52.167969 C 53.402344 52.167969 54.082031 51.910156 54.792969 51.203125 C 55.96875 50.03125 55.984375 49.488281 55.179688 38.601562 C 53.359375 13.871094 53.207031 9.683594 54.117188 9.707031 C 54.417969 9.714844 56.941406 15.292969 56.941406 15.949219 C 56.941406 16.621094 56.238281 16.464844 55.792969 15.695312 C 55.222656 14.722656 55.246094 16.246094 55.9375 24.816406 C 57.777344 47.625 57.671875 50.960938 55.03125 53.488281 C 52.769531 55.648438 50 55.597656 49.011719 53.375 C 48.71875 52.710938 48.277344 52.167969 48.03125 52.167969 C 47.046875 52.167969 41.378906 55.027344 39.957031 56.246094 C 39.121094 56.960938 37.566406 58.691406 36.503906 60.089844 C 33.4375 64.136719 31.753906 64.828125 29.566406 62.949219 Z M 50.550781 48.015625 C 51.570312 47.304688 51.714844 45.625 50.859375 44.476562 C 49.667969 42.875 48.214844 45.195312 48.84375 47.691406 C 49.121094 48.792969 49.375 48.839844 50.550781 48.015625 Z M 7.753906 46.363281 C 8.320312 45.988281 9.746094 44.691406 10.914062 43.480469 C 13.890625 40.410156 15.714844 39.3125 20.59375 37.671875 C 24.109375 36.488281 24.859375 36.09375 24.960938 35.386719 C 25.140625 34.121094 23.726562 31.648438 21.425781 29.207031 C 18.996094 26.628906 19.648438 26.359375 13.328125 32.523438 C 10.625 35.15625 8.171875 37.191406 7.148438 37.644531 C 5.777344 38.246094 5.328125 38.714844 4.816406 40.070312 C 3.292969 44.105469 3.632812 47.058594 5.625 47.054688 C 6.226562 47.050781 7.183594 46.742188 7.753906 46.363281 Z M 9.148438 42.074219 C 8.65625 41.582031 8.882812 38.722656 9.519531 37.382812 C 10.160156 36.035156 11.179688 35.453125 10.660156 36.734375 C 9.816406 38.808594 9.617188 39.65625 9.832031 40.222656 C 10.03125 40.734375 10.1875 40.761719 10.660156 40.367188 C 11.347656 39.796875 11.382812 39.960938 10.863281 41.328125 C 10.496094 42.292969 9.707031 42.636719 9.148438 42.074219 Z M 15.109375 35.539062 C 14.078125 34.691406 14.066406 34.640625 14.710938 33.585938 C 15.453125 32.371094 16.042969 32.230469 16.761719 33.097656 C 17.445312 33.914062 18.191406 33.832031 18.871094 32.863281 L 19.449219 32.039062 L 20.667969 32.9375 C 22.082031 33.980469 22.136719 34.335938 21.070312 35.613281 L 20.285156 36.554688 L 19.277344 35.613281 L 18.269531 34.667969 L 17.550781 35.554688 C 16.671875 36.640625 16.449219 36.636719 15.109375 35.539062 Z M 38.046875 63.667969 C 38.054688 63.507812 38.320312 63.03125 38.636719 62.609375 C 39.390625 61.617188 39.382812 60.777344 38.625 61.070312 C 37.769531 61.394531 37.898438 60.667969 38.84375 59.8125 C 39.539062 59.1875 39.710938 59.164062 40.023438 59.652344 C 40.542969 60.476562 40.496094 60.730469 39.539062 62.433594 C 38.761719 63.816406 38.015625 64.433594 38.046875 63.667969 Z M 44.558594 61.011719 C 44.222656 60.210938 43.558594 59.472656 42.976562 59.253906 C 41.828125 58.816406 41.503906 56.886719 42.582031 56.886719 C 43.21875 56.886719 44.636719 58.191406 45.332031 59.414062 C 45.710938 60.078125 45.742188 60.070312 45.800781 59.300781 C 45.882812 58.179688 46.789062 56.390625 47.363281 56.203125 C 47.96875 56.007812 49.214844 57.894531 48.863281 58.46875 C 48.675781 58.765625 48.359375 58.691406 47.851562 58.234375 C 47.023438 57.488281 47.113281 57.359375 46.292969 60.523438 C 46.027344 61.550781 45.65625 62.390625 45.472656 62.390625 C 45.285156 62.390625 44.875 61.769531 44.558594 61.011719 Z M 6.929688 54.625 C 6.9375 54.460938 7.195312 53.886719 7.503906 53.347656 C 8.230469 52.078125 8.230469 51.773438 7.503906 51.773438 C 6.792969 51.773438 6.746094 51.316406 7.386719 50.671875 C 8.035156 50.027344 8.753906 50.082031 9.03125 50.800781 C 9.277344 51.441406 7.757812 54.917969 7.230469 54.917969 C 7.058594 54.917969 6.921875 54.785156 6.929688 54.625 Z M 16.371094 53.359375 C 15.726562 52.949219 15.558594 49.992188 16.078125 48.148438 L 16.378906 47.078125 L 14.976562 47.902344 C 13.507812 48.765625 12.773438 48.652344 13.578125 47.6875 C 14.085938 47.074219 18.84375 44.128906 20.066406 43.671875 C 21.277344 43.214844 20.628906 44.375 19.097656 45.410156 C 17.15625 46.71875 16.582031 48.050781 16.71875 50.914062 C 16.753906 51.640625 16.921875 51.777344 17.550781 51.578125 C 18.523438 51.269531 18.5625 51.8125 17.648438 52.90625 C 17.148438 53.507812 16.796875 53.632812 16.371094 53.359375 Z M 22.148438 49.789062 C 20.917969 48.824219 20.839844 48.234375 21.785156 47.113281 L 22.472656 46.296875 L 23.640625 47.25 C 24.660156 48.078125 24.757812 48.332031 24.429688 49.265625 C 23.929688 50.671875 23.417969 50.789062 22.148438 49.789062 Z M 27.238281 49.457031 C 26.449219 48.582031 26.449219 47.671875 27.238281 45.355469 C 27.964844 43.230469 28.707031 43.214844 28.121094 45.335938 C 27.671875 46.972656 28.019531 49.144531 28.585938 48.226562 C 29.058594 47.460938 29.386719 47.886719 29.117188 48.914062 C 28.816406 50.054688 27.996094 50.292969 27.238281 49.457031 Z M 40.003906 48.300781 C 40.003906 48.074219 40.175781 47.78125 40.386719 47.652344 C 40.59375 47.523438 40.667969 46.925781 40.546875 46.324219 C 40.382812 45.503906 40.59375 44.914062 41.398438 43.960938 C 42.613281 42.519531 44.140625 42.382812 44.140625 43.710938 C 44.140625 44.320312 43.875 44.5 42.992188 44.5 C 42.363281 44.5 41.777344 44.707031 41.691406 44.957031 C 41.46875 45.613281 42.988281 45.996094 44.601562 45.691406 C 45.757812 45.476562 45.957031 45.539062 45.847656 46.09375 C 45.765625 46.5 44.886719 47.019531 43.546875 47.445312 C 42.355469 47.824219 41.070312 48.265625 40.691406 48.421875 C 40.292969 48.59375 40.003906 48.539062 40.003906 48.300781 Z M 59.503906 42.828125 C 59.503906 39.636719 59.1875 32.578125 58.804688 27.140625 C 58.285156 19.714844 58.21875 16.976562 58.546875 16.132812 C 58.976562 15.023438 59 15.050781 60.3125 18.15625 C 61.042969 19.882812 61.648438 21.519531 61.65625 21.792969 C 61.675781 22.511719 60.984375 22.390625 60.519531 21.59375 C 59.949219 20.621094 59.988281 22.65625 60.6875 30.34375 C 61.4375 38.636719 61.433594 44.019531 60.667969 46.589844 C 60.335938 47.710938 59.9375 48.628906 59.78125 48.628906 C 59.628906 48.628906 59.503906 46.019531 59.503906 42.828125 Z M 21.5 44.09375 C 21.773438 43.765625 23.378906 42.332031 25.066406 40.910156 C 26.75 39.492188 28.226562 38.078125 28.34375 37.773438 C 28.460938 37.464844 28.359375 36.78125 28.121094 36.253906 C 27.765625 35.480469 27.8125 35.089844 28.355469 34.265625 C 28.898438 33.4375 29.136719 33.332031 29.589844 33.707031 C 29.902344 33.964844 30.15625 34.648438 30.15625 35.226562 C 30.15625 35.808594 30.351562 36.476562 30.59375 36.71875 C 31.109375 37.234375 30.703125 38.082031 30.015625 37.921875 C 29.757812 37.863281 28.847656 38.585938 27.996094 39.527344 C 26.21875 41.488281 22.171875 44.695312 21.472656 44.695312 C 21.117188 44.695312 21.125 44.546875 21.5 44.09375 Z M 43.941406 41.59375 C 43.941406 41.351562 44.296875 41.15625 44.730469 41.15625 C 45.164062 41.15625 45.519531 40.964844 45.519531 40.734375 C 45.519531 40.460938 45.058594 40.40625 44.238281 40.574219 L 42.957031 40.839844 L 43.808594 39.964844 C 44.503906 39.25 44.914062 39.136719 46.074219 39.355469 C 47.65625 39.652344 47.804688 39.964844 46.796875 40.871094 C 45.898438 41.679688 43.941406 42.175781 43.941406 41.59375 Z M 0.0820312 40.859375 C -0.0429688 40.664062 0.292969 39.863281 0.828125 39.082031 C 1.726562 37.757812 1.746094 37.628906 1.105469 37.265625 C 0.464844 36.902344 0.460938 36.832031 1.066406 36.21875 C 1.972656 35.300781 2.714844 35.878906 2.433594 37.28125 C 2.15625 38.671875 0.386719 41.355469 0.0820312 40.859375 Z M 47.695312 38.414062 C 47.035156 37.6875 47.03125 37.574219 47.640625 36.644531 C 48.390625 35.503906 48.585938 35.464844 49.628906 36.253906 C 50.316406 36.773438 50.488281 36.742188 51.316406 35.964844 L 52.234375 35.101562 L 53.300781 36.164062 L 54.363281 37.226562 L 53.304688 38.28125 C 52.269531 39.316406 52.226562 39.324219 51.441406 38.613281 C 50.695312 37.9375 50.589844 37.933594 49.917969 38.539062 C 48.984375 39.386719 48.550781 39.359375 47.695312 38.414062 Z M 49.0625 34.019531 C 49.0625 33.25 48.949219 31.53125 48.808594 30.199219 L 48.554688 27.777344 L 47.183594 28.585938 C 45.683594 29.46875 44.84375 29.257812 46.109375 28.316406 C 48.804688 26.316406 48.625 26.816406 48.25 22.28125 C 47.085938 8.289062 47.007812 4.589844 47.875 4.589844 C 48.246094 4.589844 50.640625 10.25 50.640625 11.128906 C 50.640625 11.726562 50.570312 11.722656 49.851562 11.078125 C 49.070312 10.371094 49.066406 10.386719 49.234375 12.292969 C 49.328125 13.355469 49.539062 16.078125 49.703125 18.351562 C 49.867188 20.621094 50.03125 22.613281 50.074219 22.773438 C 50.113281 22.9375 50.167969 23.535156 50.195312 24.101562 C 50.238281 24.984375 50.332031 25.058594 50.851562 24.628906 C 51.273438 24.277344 51.335938 24 51.050781 23.714844 C 50.472656 23.140625 50.539062 21.78125 51.1875 20.898438 C 51.636719 20.28125 51.839844 20.238281 52.332031 20.644531 C 53.085938 21.269531 53.121094 24.640625 52.378906 24.640625 C 51.386719 24.640625 50.21875 26.652344 50.460938 27.949219 C 50.722656 29.359375 49.984375 34.492188 49.4375 35.042969 C 49.203125 35.277344 49.0625 34.898438 49.0625 34.019531 Z M 61.828125 33.488281 C 61.527344 32.285156 61.929688 29.96875 62.695312 28.488281 C 63.636719 26.679688 63.957031 27.253906 63.222656 29.425781 C 62.492188 31.574219 62.597656 32.6875 63.492188 32.34375 C 64.136719 32.097656 64.144531 32.160156 63.648438 33.464844 C 63.15625 34.753906 62.152344 34.765625 61.828125 33.488281 Z M 39.375 31.902344 C 38.980469 30.339844 40.078125 26.214844 40.886719 26.214844 C 41.316406 26.214844 41.261719 26.578125 40.546875 28.449219 C 39.808594 30.382812 40.046875 31.714844 40.992188 30.929688 C 41.707031 30.339844 41.796875 30.96875 41.171875 32.140625 C 40.597656 33.207031 39.671875 33.085938 39.375 31.902344 Z M 9.644531 29.308594 C 9.121094 28.332031 9.332031 26.613281 10.230469 24.460938 C 11.019531 22.578125 11.449219 22.867188 10.882812 24.902344 C 10.652344 25.730469 10.464844 26.820312 10.460938 27.324219 C 10.460938 28.066406 10.609375 28.1875 11.277344 27.976562 C 12.070312 27.722656 12.074219 27.75 11.464844 28.933594 C 10.722656 30.363281 10.261719 30.457031 9.644531 29.308594 Z M 31.398438 29.628906 C 30.917969 29.054688 31.378906 26.867188 32.394531 24.902344 C 33.277344 23.1875 33.46875 23.957031 32.714844 26.214844 C 32 28.363281 32.125 28.996094 33.101562 28.1875 C 33.824219 27.589844 33.925781 28.210938 33.292969 29.386719 C 32.820312 30.269531 32.015625 30.371094 31.398438 29.628906 Z M 0.0742188 26.804688 C 0.199219 26.480469 0.429688 26.214844 0.585938 26.214844 C 0.992188 26.214844 5.507812 22.679688 5.671875 22.234375 C 5.746094 22.03125 5.589844 21.605469 5.328125 21.285156 C 4.65625 20.476562 5.554688 18.351562 6.570312 18.351562 C 7.171875 18.351562 7.308594 18.648438 7.308594 19.964844 C 7.308594 21.964844 5.746094 24.082031 2.828125 26.042969 C 0.675781 27.492188 -0.289062 27.757812 0.0742188 26.804688 Z M 2.203125 21.917969 C 1.851562 21.265625 1.921875 20.734375 2.519531 19.378906 C 2.9375 18.4375 3.476562 17.542969 3.71875 17.394531 C 4.289062 17.042969 4.273438 17.191406 3.566406 18.878906 C 3.242188 19.65625 2.976562 20.496094 2.976562 20.746094 C 2.976562 21.074219 3.140625 21.0625 3.566406 20.710938 C 4.492188 19.945312 4.335938 21.214844 3.402344 22.058594 C 2.679688 22.710938 2.625 22.703125 2.203125 21.917969 Z M 18.382812 19.226562 C 17.847656 18.175781 17.253906 17.578125 16.671875 17.496094 C 15.542969 17.335938 15.203125 15.71875 16.210938 15.332031 C 16.695312 15.144531 17.210938 15.441406 17.960938 16.335938 L 19.023438 17.605469 L 19.460938 15.871094 C 20.015625 13.664062 20.863281 12.859375 21.460938 13.972656 C 22.25 15.441406 21.675781 16.855469 20.839844 15.503906 C 20.46875 14.90625 20.011719 16.359375 19.945312 18.351562 C 19.867188 20.726562 19.308594 21.039062 18.382812 19.226562 Z M 38.824219 17.367188 C 38.28125 16.71875 38.445312 14.582031 39.1875 12.691406 C 39.859375 10.980469 40.179688 11.792969 39.621094 13.785156 C 39.136719 15.519531 39.324219 16.609375 40.03125 16.171875 C 40.609375 15.8125 40.457031 17.027344 39.859375 17.519531 C 39.449219 17.859375 39.203125 17.824219 38.824219 17.367188 Z M 44.71875 16.753906 C 44.234375 15.851562 44.523438 13.964844 45.378906 12.453125 C 45.898438 11.539062 45.917969 11.613281 45.691406 13.535156 C 45.476562 15.324219 45.527344 15.570312 46.070312 15.363281 C 46.792969 15.085938 46.886719 15.691406 46.292969 16.804688 C 45.765625 17.785156 45.261719 17.769531 44.71875 16.753906 Z M 29.464844 13.964844 C 29.195312 13.695312 28.972656 13.144531 28.972656 12.742188 C 28.972656 11.769531 30.902344 7.734375 31.367188 7.734375 C 31.933594 7.734375 31.800781 8.386719 30.945312 9.789062 C 29.972656 11.378906 29.847656 12.804688 30.746094 12.058594 C 31.613281 11.34375 31.539062 12.511719 30.648438 13.609375 C 30.097656 14.289062 29.859375 14.359375 29.464844 13.964844 Z M 7.9375 12.949219 C 7.480469 12.492188 7.710938 10.039062 8.324219 8.859375 C 9.105469 7.347656 9.511719 7.675781 8.929688 9.34375 C 8.359375 10.984375 8.375 11.273438 9.042969 11.273438 C 9.398438 11.273438 9.527344 11.546875 9.398438 12.03125 C 9.191406 12.824219 8.34375 13.355469 7.9375 12.949219 Z M 34.882812 2.699219 C 34.882812 2.523438 35.371094 2.171875 35.964844 1.917969 C 37.019531 1.46875 37.011719 1.460938 35.570312 1.621094 C 34.039062 1.792969 33.757812 1.542969 34.566406 0.734375 C 35.058594 0.246094 38.109375 0.0742188 38.546875 0.511719 C 39.023438 0.988281 38.042969 2.148438 36.800781 2.582031 C 35.316406 3.097656 34.882812 3.125 34.882812 2.699219 Z M 34.882812 2.699219 "/>
</g>
</svg>
