<svg xmlns="http://www.w3.org/2000/svg" xmlns:xlink="http://www.w3.org/1999/xlink" width="64" height="64" viewBox="0 0 64 64" version="1.1">
<defs> <linearGradient id="linear0" gradientUnits="userSpaceOnUse" x1="0" y1="0" x2="0" y2="1" gradientTransform="matrix(55.992188,0,0,56,4.003906,4)"> <stop offset="0" style="stop-color:#ff6666;stop-opacity:1;"/> <stop offset="1" style="stop-color:#d90000;stop-opacity:1;"/> </linearGradient> </defs>
<g id="surface1">
<path style=" stroke:none;fill-rule:nonzero;fill:url(#linear0);fill-opacity:1;" d="M 36.742188 7.414062 L 7.421875 13.007812 L 7.421875 50.964844 L 36.742188 57.015625 L 36.742188 7.414062 M 38.59375 17.933594 L 38.59375 27.636719 L 42.035156 29.769531 C 42.125 29.796875 42.324219 29.796875 42.414062 29.769531 L 57.230469 19.933594 C 57.230469 18.769531 56.128906 17.933594 55.503906 17.933594 L 38.59375 17.933594 M 22.414062 23.542969 C 24.34375 23.542969 25.910156 24.324219 27.105469 25.882812 C 28.300781 27.445312 28.898438 29.503906 28.898438 32.058594 C 28.898438 34.683594 28.28125 36.800781 27.042969 38.40625 C 25.804688 40.011719 24.183594 40.816406 22.191406 40.816406 C 20.25 40.816406 18.671875 40.039062 17.445312 38.484375 C 16.222656 36.921875 15.609375 34.898438 15.609375 32.398438 C 15.609375 29.757812 16.230469 27.621094 17.472656 25.992188 C 18.714844 24.363281 20.363281 23.542969 22.414062 23.542969 M 57.230469 23.855469 C 57.230469 23.855469 42.183594 33.707031 42.710938 33.382812 C 43.242188 33.0625 42.175781 33.707031 41.734375 33.382812 L 38.59375 31.261719 L 38.59375 44.445312 L 54.550781 44.445312 C 55.96875 44.445312 57.230469 43.632812 57.230469 41.6875 L 57.230469 23.855469 M 22.320312 26.789062 C 21.253906 26.789062 20.402344 27.28125 19.773438 28.269531 C 19.140625 29.261719 18.828125 30.574219 18.828125 32.203125 C 18.828125 33.851562 19.140625 35.164062 19.773438 36.125 C 20.402344 37.085938 21.230469 37.5625 22.253906 37.5625 C 23.304688 37.5625 24.140625 37.097656 24.757812 36.164062 C 25.371094 35.226562 25.683594 33.933594 25.683594 32.269531 C 25.683594 30.539062 25.390625 29.191406 24.785156 28.226562 C 24.183594 27.265625 23.367188 26.789062 22.328125 26.789062 "/>
</g>
</svg>
