<svg xmlns="http://www.w3.org/2000/svg" xmlns:xlink="http://www.w3.org/1999/xlink" width="64" height="64" viewBox="0 0 64 64" version="1.1">
<defs>
<linearGradient id="linear0" gradientUnits="userSpaceOnUse" x1="0" y1="0" x2="0" y2="1" gradientTransform="matrix(56,0,0,30.296875,4,16.851562)">
<stop offset="0" style="stop-color:#ff6666;stop-opacity:1;"/>
<stop offset="1" style="stop-color:#d90000;stop-opacity:1;"/>
</linearGradient>
</defs>
<g id="surface1">
<path style=" stroke:none;fill-rule:nonzero;fill:url(#linear0);" d="M 45.296875 47.070312 C 43.632812 46.894531 41.9375 46.113281 40.613281 44.90625 L 40.121094 44.460938 L 40.640625 43.851562 C 43.109375 40.960938 43.984375 37.195312 43.042969 33.53125 C 42.921875 33.046875 42.726562 32.4375 42.617188 32.175781 L 42.414062 31.699219 L 42.949219 31.449219 C 43.234375 31.3125 43.796875 31.117188 44.1875 31.015625 C 44.804688 30.855469 45.078125 30.832031 46.285156 30.835938 C 47.789062 30.84375 48.371094 30.949219 49.390625 31.398438 C 51.894531 32.507812 53.546875 34.492188 54.207031 37.191406 C 54.414062 38.042969 54.433594 39.710938 54.242188 40.5625 C 53.441406 44.167969 50.617188 46.703125 46.988281 47.074219 C 46.546875 47.121094 46.128906 47.152344 46.054688 47.148438 C 45.984375 47.144531 45.644531 47.109375 45.296875 47.070312 Z M 18.886719 46.851562 C 16.898438 46.28125 15.664062 44.410156 15.925781 42.363281 C 16.183594 40.320312 17.933594 38.78125 19.996094 38.78125 C 20.710938 38.78125 20.8125 38.824219 20.90625 39.199219 C 21.351562 40.886719 22.324219 42.71875 23.402344 43.90625 L 23.859375 44.410156 L 23.628906 44.851562 C 23.136719 45.78125 22.074219 46.605469 21.019531 46.878906 C 20.414062 47.035156 19.484375 47.023438 18.886719 46.851562 Z M 10.386719 46.828125 C 9.628906 46.71875 8.421875 46.285156 7.679688 45.84375 C 6.78125 45.3125 5.496094 44.023438 5.015625 43.175781 C 3.808594 41.023438 3.671875 38.570312 4.640625 36.332031 C 5.550781 34.21875 7.660156 32.492188 9.890625 32.023438 C 10.453125 31.902344 11.730469 31.769531 11.730469 31.828125 C 11.726562 31.84375 11.675781 32.144531 11.617188 32.492188 C 11.46875 33.316406 11.464844 34.789062 11.613281 35.625 C 11.984375 37.738281 13.101562 39.652344 14.804688 41.078125 L 15.226562 41.433594 L 15.132812 41.785156 C 15.003906 42.257812 15.003906 43.460938 15.128906 43.996094 C 15.183594 44.234375 15.351562 44.695312 15.5 45.019531 C 15.707031 45.472656 15.742188 45.621094 15.667969 45.671875 C 14.191406 46.660156 12.234375 47.089844 10.386719 46.828125 Z M 30.191406 46.792969 C 26.367188 46.109375 23.203125 43.382812 21.980469 39.71875 C 21.597656 38.566406 21.496094 37.890625 21.496094 36.402344 C 21.496094 34.867188 21.570312 34.359375 21.980469 33.097656 C 23.15625 29.476562 26.210938 26.796875 30.03125 26.03125 C 31.066406 25.828125 32.738281 25.8125 33.792969 26 C 38.171875 26.785156 41.511719 30.085938 42.378906 34.488281 C 42.585938 35.507812 42.566406 37.464844 42.347656 38.46875 C 41.882812 40.589844 40.953125 42.320312 39.46875 43.820312 C 37.855469 45.449219 35.949219 46.433594 33.671875 46.804688 C 32.785156 46.949219 31.035156 46.945312 30.191406 46.792969 Z M 55.242188 46.519531 C 54.589844 46.40625 53.976562 46.140625 53.457031 45.746094 C 52.777344 45.226562 52.757812 45.179688 53.097656 44.804688 C 54.390625 43.371094 55.210938 41.199219 55.242188 39.132812 L 55.257812 38.390625 L 55.613281 38.34375 C 56.191406 38.265625 57.007812 38.433594 57.707031 38.777344 C 58.699219 39.265625 59.441406 40.085938 59.8125 41.113281 C 60.058594 41.800781 60.0625 43.046875 59.816406 43.761719 C 59.503906 44.652344 58.820312 45.511719 58.070312 45.953125 C 57.238281 46.445312 56.113281 46.671875 55.242188 46.519531 Z M 14.980469 40.070312 C 13.785156 38.964844 12.960938 37.554688 12.550781 35.933594 C 12.324219 35.015625 12.34375 32.96875 12.589844 32.054688 C 13.214844 29.734375 14.695312 27.882812 16.777344 26.8125 C 17.992188 26.1875 19.382812 25.851562 20.539062 25.902344 L 21.089844 25.933594 L 21.257812 26.5625 C 21.527344 27.5625 22.019531 28.589844 22.59375 29.355469 L 22.789062 29.621094 L 22.320312 30.339844 C 21.492188 31.625 20.875 33.328125 20.660156 34.949219 C 20.613281 35.324219 20.585938 36.144531 20.601562 36.773438 L 20.628906 37.90625 L 20.0625 37.90625 C 18.316406 37.90625 16.691406 38.789062 15.777344 40.234375 L 15.546875 40.597656 Z M 41.496094 30.0625 C 40.777344 28.976562 39.40625 27.609375 38.324219 26.886719 L 37.519531 26.359375 L 37.613281 26.0625 C 37.660156 25.894531 37.699219 25.183594 37.699219 24.394531 L 37.703125 23.023438 L 38.535156 23.066406 C 41.339844 23.222656 43.738281 24.855469 44.945312 27.425781 C 45.226562 28.027344 45.507812 28.972656 45.597656 29.617188 L 45.636719 29.902344 L 45.148438 29.957031 C 44.253906 30.054688 43.53125 30.269531 42.125 30.84375 C 42.074219 30.863281 41.792969 30.511719 41.496094 30.0625 Z M 23.023438 28.441406 C 22.636719 27.835938 22.289062 27.0625 22.070312 26.308594 C 21.914062 25.777344 21.890625 25.511719 21.894531 24.347656 C 21.898438 23.117188 21.921875 22.949219 22.113281 22.3125 C 22.664062 20.515625 23.707031 19.105469 25.230469 18.089844 C 26.273438 17.390625 27.390625 17.003906 28.660156 16.882812 C 31.804688 16.597656 34.710938 18.21875 36.113281 21.042969 C 36.664062 22.15625 36.875 23.105469 36.867188 24.425781 C 36.863281 25.488281 36.792969 25.9375 36.632812 25.910156 C 36.570312 25.902344 36.109375 25.757812 35.609375 25.585938 C 34.382812 25.164062 33.375 25 32.011719 25.003906 C 29.175781 25.003906 26.765625 25.890625 24.550781 27.746094 C 24.152344 28.085938 23.730469 28.480469 23.621094 28.628906 C 23.507812 28.777344 23.390625 28.894531 23.363281 28.894531 C 23.335938 28.890625 23.183594 28.6875 23.023438 28.441406 Z M 15.96875 25.898438 C 15.765625 25.503906 15.609375 24.78125 15.609375 24.230469 C 15.613281 22.515625 16.738281 21.003906 18.394531 20.503906 C 19.339844 20.214844 20.851562 20.390625 21.5 20.859375 C 21.644531 20.96875 21.644531 20.988281 21.429688 21.601562 C 21.136719 22.441406 20.988281 23.320312 20.984375 24.234375 L 20.984375 24.996094 L 20.050781 25.042969 C 18.964844 25.101562 17.878906 25.355469 16.925781 25.773438 C 16.566406 25.933594 16.234375 26.074219 16.183594 26.101562 C 16.132812 26.125 16.035156 26.03125 15.96875 25.898438 Z M 15.96875 25.898438 "/>
</g>
</svg>
