<svg xmlns="http://www.w3.org/2000/svg" xmlns:xlink="http://www.w3.org/1999/xlink" width="64" height="64" viewBox="0 0 64 64" version="1.1">
<defs> <linearGradient id="linear0" gradientUnits="userSpaceOnUse" x1="0" y1="0" x2="0" y2="1" gradientTransform="matrix(55.992188,0,0,56,4.003906,4)"> <stop offset="0" style="stop-color:#ff6666;stop-opacity:1;"/> <stop offset="1" style="stop-color:#d90000;stop-opacity:1;"/> </linearGradient> </defs>
<g id="surface1">
<path style=" stroke:none;fill-rule:nonzero;fill:url(#linear0);fill-opacity:1;" d="M 17.183594 16.9375 C 12.617188 16.9375 9.105469 18.238281 6.652344 20.84375 C 4.210938 23.4375 2.992188 27.195312 2.992188 32.121094 C 2.992188 37.046875 4.210938 40.824219 6.652344 43.460938 C 9.097656 46.089844 12.589844 47.410156 17.144531 47.410156 C 21.699219 47.410156 25.191406 46.089844 27.632812 43.460938 C 30.074219 40.832031 31.296875 37.058594 31.296875 32.160156 C 31.296875 27.246094 30.078125 23.480469 27.65625 20.863281 C 25.242188 18.242188 21.753906 16.9375 17.183594 16.9375 M 33.980469 17.402344 L 43.214844 31.738281 L 33.351562 47 L 40.101562 47 L 47.015625 35.808594 L 53.925781 47 L 61.125 47 L 51.082031 32.082031 L 60.417969 17.402344 L 53.625 17.402344 L 47.34375 28.050781 L 40.9375 17.402344 L 33.980469 17.402344 M 17.1875 22.164062 C 22.191406 22.164062 24.691406 25.496094 24.691406 32.160156 C 24.691406 38.816406 22.175781 42.144531 17.148438 42.144531 C 14.636719 42.144531 12.757812 41.308594 11.5 39.632812 C 10.238281 37.957031 9.605469 35.46875 9.605469 32.160156 C 9.605469 28.855469 10.242188 26.363281 11.515625 24.691406 C 12.789062 23.007812 14.679688 22.164062 17.1875 22.164062 "/>
</g>
</svg>
