<svg xmlns="http://www.w3.org/2000/svg" xmlns:xlink="http://www.w3.org/1999/xlink" width="64" height="64" viewBox="0 0 64 64" version="1.1">
<defs>
<linearGradient id="linear0" gradientUnits="userSpaceOnUse" x1="0" y1="0" x2="0" y2="1" gradientTransform="matrix(64,0,0,54.859375,0,4.570312)">
<stop offset="0" style="stop-color:#ff6666;stop-opacity:1;"/>
<stop offset="1" style="stop-color:#d90000;stop-opacity:1;"/>
</linearGradient>
</defs>
<g id="surface1">
<path style=" stroke:none;fill-rule:evenodd;fill:url(#linear0);" d="M 16 13.714844 L 9.144531 13.714844 L 9.144531 45.714844 L 18.285156 45.714844 L 22.855469 50.285156 L 41.144531 50.285156 L 45.714844 45.714844 L 54.855469 45.714844 L 54.855469 13.714844 L 48 13.714844 L 48 18.285156 L 43.429688 18.285156 L 43.429688 13.714844 L 41.144531 13.714844 L 41.144531 18.285156 L 36.570312 18.285156 L 36.570312 13.714844 L 34.285156 13.714844 L 34.285156 18.285156 L 29.714844 18.285156 L 29.714844 13.714844 L 27.429688 13.714844 L 27.429688 18.285156 L 22.855469 18.285156 L 22.855469 13.714844 L 20.570312 13.714844 L 20.570312 18.285156 L 16 18.285156 Z M 18.285156 59.429688 L 13.714844 54.855469 L 4.570312 54.855469 C 2.039062 54.855469 0 52.820312 0 50.285156 L 0 9.144531 C 0 6.613281 2.039062 4.570312 4.570312 4.570312 L 59.429688 4.570312 C 61.960938 4.570312 64 6.613281 64 9.144531 L 64 50.285156 C 64 52.820312 61.960938 54.855469 59.429688 54.855469 L 50.285156 54.855469 L 45.714844 59.429688 Z M 18.285156 59.429688 "/>
</g>
</svg>
