<svg xmlns="http://www.w3.org/2000/svg" xmlns:xlink="http://www.w3.org/1999/xlink" width="64px" height="64px" viewBox="0 0 64 64" version="1.1">
<defs>
<linearGradient id="linear0" gradientUnits="userSpaceOnUse" x1="0" y1="128" x2="128" y2="0" gradientTransform="matrix(0.432432,0,0,0.432432,4.324324,4.324324)">
<stop offset="0" style="stop-color:#ff6666;stop-opacity:1;"/>
<stop offset="1" style="stop-color:#d90000;stop-opacity:1;"/>
</linearGradient>
</defs>
<g id="surface1">
<path style=" stroke:none;fill-rule:nonzero;fill:url(#linear0);" d="M 24.65625 10.597656 C 24.585938 10.601562 24.519531 10.605469 24.457031 10.617188 C 23.769531 10.726562 23.421875 11.429688 22.921875 12.089844 C 22.359375 19.8125 21.5625 26.882812 20.996094 34.613281 C 23.363281 34.433594 26.617188 34.46875 29.960938 34.425781 C 33.59375 34.375 37.136719 34.125 38.871094 33.496094 C 42.445312 32.203125 45.207031 28.921875 47.511719 24.050781 C 40.429688 19.738281 32.808594 14.613281 26.265625 11.117188 C 25.699219 10.882812 25.132812 10.585938 24.65625 10.597656 Z M 21.574219 13.757812 C 17.335938 21.761719 13.59375 28.3125 9.320312 36.460938 C 9.238281 38.652344 9.671875 39.914062 10.222656 40.710938 C 10.777344 41.515625 11.277344 41.726562 12.019531 41.675781 C 13.089844 41.320312 14.4375 40.367188 15.828125 39.164062 C 16.355469 38.691406 19.734375 35.761719 20.023438 35.113281 C 20.554688 27.867188 21.039062 21.042969 21.574219 13.757812 Z M 33.664062 14.136719 C 38.820312 17.335938 43.746094 20.554688 48.234375 23.210938 C 49.574219 24.003906 52.117188 24.941406 54.039062 25.515625 C 52.210938 23.664062 50.121094 22.070312 47.796875 20.921875 Z M 30.382812 17.125 C 30.902344 17.113281 31.417969 17.257812 31.929688 17.558594 C 32.949219 18.152344 33.898438 19.34375 34.773438 21.136719 C 35.589844 22.8125 35.898438 24.363281 35.699219 25.792969 C 35.503906 27.210938 34.820312 28.28125 33.660156 28.996094 C 33.347656 29.1875 33.015625 29.347656 32.664062 29.472656 L 31.511719 29.765625 L 30.871094 28.457031 C 31.265625 28.4375 31.644531 28.371094 32.011719 28.265625 C 32.371094 28.160156 32.710938 28.007812 33.015625 27.816406 C 33.835938 27.3125 34.308594 26.609375 34.425781 25.707031 C 34.546875 24.796875 34.324219 23.675781 33.75 22.335938 C 33.710938 22.890625 33.5625 23.386719 33.304688 23.835938 C 33.042969 24.277344 32.691406 24.632812 32.25 24.90625 C 31.332031 25.472656 30.445312 25.605469 29.597656 25.292969 C 28.746094 24.976562 28.050781 24.261719 27.507812 23.144531 C 26.972656 22.050781 26.820312 21.003906 27.058594 20 C 27.292969 18.996094 27.878906 18.210938 28.808594 17.636719 C 29.335938 17.3125 29.863281 17.136719 30.382812 17.125 Z M 30.265625 18.480469 C 29.964844 18.488281 29.664062 18.585938 29.359375 18.777344 C 28.800781 19.121094 28.464844 19.617188 28.359375 20.265625 C 28.25 20.910156 28.382812 21.609375 28.757812 22.371094 C 29.132812 23.140625 29.589844 23.648438 30.132812 23.886719 L 31.78125 23.734375 C 32.339844 23.386719 32.671875 22.898438 32.78125 22.257812 C 32.890625 21.613281 32.761719 20.90625 32.386719 20.136719 C 32.011719 19.371094 31.554688 18.871094 31.011719 18.632812 C 30.808594 18.539062 30.601562 18.488281 30.398438 18.480469 C 30.355469 18.480469 30.308594 18.480469 30.265625 18.480469 Z M 19.261719 22.511719 C 19.367188 22.507812 19.457031 22.539062 19.523438 22.605469 C 19.738281 22.8125 19.726562 23.34375 19.472656 24.214844 C 19.296875 24.824219 19.046875 25.417969 18.734375 26 C 18.417969 26.574219 18.0625 27.097656 17.664062 27.554688 C 18.011719 27.378906 18.230469 27.4375 18.3125 27.730469 C 18.394531 28.023438 18.335938 28.523438 18.128906 29.226562 C 17.816406 30.308594 17.363281 31.316406 16.78125 32.253906 C 16.195312 33.1875 15.527344 33.976562 14.765625 34.613281 C 14.511719 34.824219 14.261719 35 14.011719 35.136719 C 13.769531 35.269531 13.53125 35.367188 13.292969 35.425781 L 13.710938 33.996094 C 13.871094 34.042969 14.066406 34.019531 14.300781 33.914062 C 14.539062 33.8125 14.808594 33.636719 15.101562 33.386719 C 15.617188 32.957031 16.0625 32.441406 16.4375 31.851562 C 16.8125 31.257812 17.105469 30.613281 17.308594 29.914062 C 17.496094 29.265625 17.515625 28.867188 17.367188 28.71875 C 17.226562 28.5625 16.933594 28.664062 16.484375 29.039062 L 15.773438 29.636719 L 16.125 28.414062 L 16.863281 27.796875 C 17.269531 27.460938 17.625 27.058594 17.921875 26.585938 C 18.222656 26.113281 18.449219 25.605469 18.609375 25.058594 C 18.769531 24.492188 18.785156 24.160156 18.648438 24.042969 C 18.515625 23.925781 18.246094 24.039062 17.832031 24.382812 C 17.609375 24.570312 17.351562 24.8125 17.066406 25.117188 C 16.785156 25.421875 16.460938 25.796875 16.101562 26.238281 L 16.484375 24.921875 C 16.839844 24.503906 17.164062 24.144531 17.460938 23.835938 C 17.757812 23.53125 18.023438 23.273438 18.265625 23.074219 C 18.695312 22.710938 19.027344 22.527344 19.261719 22.511719 Z M 48.636719 24.617188 C 46.363281 29.433594 43.460938 33.09375 39.742188 34.621094 L 40.308594 52.957031 C 41.28125 52.414062 41.460938 52.085938 41.886719 51.0625 L 54.5625 27.8125 C 54.738281 27.359375 54.753906 27.066406 54.472656 26.875 C 52.386719 26.289062 50.589844 25.578125 48.636719 24.617188 Z M 39.074219 27.828125 L 39.515625 28.730469 L 32.167969 32.335938 L 31.722656 31.4375 Z M 49.851562 31.210938 L 49.347656 32.53125 C 48.789062 33.277344 48.03125 34.285156 47.078125 35.546875 C 46.117188 36.8125 45.507812 37.625 45.246094 37.984375 C 44.761719 38.660156 44.386719 39.214844 44.132812 39.644531 C 43.867188 40.085938 43.664062 40.492188 43.519531 40.871094 C 43.285156 41.488281 43.210938 41.941406 43.292969 42.238281 C 43.378906 42.527344 43.609375 42.59375 43.984375 42.441406 C 44.25 42.332031 44.5625 42.136719 44.925781 41.839844 C 45.289062 41.550781 45.707031 41.164062 46.175781 40.679688 L 45.5625 42.261719 C 45.121094 42.652344 44.730469 42.976562 44.382812 43.226562 C 44.035156 43.476562 43.738281 43.65625 43.488281 43.757812 C 42.839844 44.019531 42.4375 43.933594 42.28125 43.488281 C 42.125 43.046875 42.242188 42.324219 42.628906 41.316406 C 42.8125 40.839844 43.039062 40.371094 43.300781 39.902344 C 43.558594 39.4375 43.929688 38.863281 44.410156 38.183594 C 44.535156 38.003906 44.921875 37.476562 45.574219 36.605469 L 48.324219 32.949219 L 45.359375 34.160156 L 45.867188 32.835938 Z M 38.742188 34.984375 C 36.691406 35.597656 33.398438 35.726562 29.96875 35.773438 C 27.0625 35.800781 23.078125 35.570312 20.730469 35.996094 C 19.359375 37.316406 17.882812 38.730469 16.4375 39.980469 C 15.152344 41.054688 13.835938 42.171875 12.210938 42.6875 C 12.011719 42.703125 11.980469 42.683594 11.78125 42.660156 C 12.382812 43.199219 13.011719 43.527344 13.699219 43.914062 L 36.8125 53.171875 C 36.9375 53.195312 38.214844 53.671875 39.261719 53.179688 Z M 27.636719 40.09375 C 27.738281 40.089844 27.84375 40.089844 27.945312 40.09375 C 28.0625 40.097656 28.171875 40.109375 28.289062 40.117188 C 29.199219 40.214844 29.921875 40.5625 30.460938 41.164062 C 30.847656 41.589844 31.007812 42.027344 30.933594 42.472656 C 30.863281 42.914062 30.5625 43.316406 30.054688 43.679688 C 30.84375 43.503906 31.582031 43.503906 32.261719 43.675781 C 32.945312 43.84375 33.5 44.167969 33.933594 44.648438 C 34.585938 45.375 34.773438 46.0625 34.496094 46.714844 C 34.222656 47.367188 33.511719 47.941406 32.34375 48.4375 C 31.183594 48.925781 30.113281 49.109375 29.136719 48.984375 C 28.164062 48.859375 27.355469 48.433594 26.699219 47.703125 C 26.269531 47.222656 26.097656 46.738281 26.1875 46.242188 C 26.273438 45.75 26.609375 45.296875 27.195312 44.894531 L 27.195312 44.886719 C 26.488281 45.039062 25.828125 45.039062 25.214844 44.886719 C 24.609375 44.734375 24.113281 44.441406 23.722656 44.011719 C 23.1875 43.414062 23.058594 42.8125 23.339844 42.210938 C 23.632812 41.605469 24.300781 41.085938 25.34375 40.640625 C 26.148438 40.304688 26.914062 40.117188 27.636719 40.09375 Z M 27.386719 41.140625 C 26.964844 41.148438 26.527344 41.257812 26.066406 41.449219 C 25.449219 41.710938 25.070312 42.015625 24.921875 42.382812 C 24.78125 42.742188 24.882812 43.121094 25.230469 43.511719 C 25.582031 43.898438 26.019531 44.128906 26.554688 44.203125 C 27.09375 44.277344 27.675781 44.183594 28.289062 43.921875 C 28.90625 43.664062 29.285156 43.355469 29.429688 42.988281 C 29.585938 42.625 29.488281 42.246094 29.136719 41.859375 C 28.789062 41.46875 28.335938 41.238281 27.792969 41.167969 C 27.660156 41.148438 27.523438 41.136719 27.386719 41.140625 Z M 30.492188 44.394531 C 30.015625 44.394531 29.523438 44.507812 29.011719 44.722656 C 28.335938 45.011719 27.914062 45.363281 27.753906 45.785156 C 27.597656 46.207031 27.722656 46.640625 28.132812 47.09375 C 28.539062 47.546875 29.054688 47.824219 29.671875 47.917969 C 30.292969 48.011719 30.941406 47.914062 31.621094 47.628906 C 32.300781 47.339844 32.71875 46.984375 32.878906 46.5625 C 33.039062 46.136719 32.914062 45.695312 32.507812 45.246094 C 32.101562 44.792969 31.585938 44.523438 30.960938 44.429688 C 30.808594 44.40625 30.652344 44.394531 30.492188 44.394531 Z M 30.492188 44.394531 "/>
</g>
</svg>
