<svg xmlns="http://www.w3.org/2000/svg" xmlns:xlink="http://www.w3.org/1999/xlink" width="64" height="64" viewBox="0 0 64 64" version="1.1">
<defs>
<linearGradient id="linear0" gradientUnits="userSpaceOnUse" x1="0" y1="0" x2="0" y2="1" gradientTransform="matrix(64,0,0,64,0,0)">
<stop offset="0" style="stop-color:#ff6666;stop-opacity:1;"/>
<stop offset="1" style="stop-color:#d90000;stop-opacity:1;"/>
</linearGradient>
</defs>
<g id="surface1">
<path style=" stroke:none;fill-rule:nonzero;fill:url(#linear0);" d="M 32 0 C 14.339844 0.0273438 0.0273438 14.339844 0 32 C 0.0273438 49.660156 14.339844 63.972656 32 64 C 49.660156 63.972656 63.972656 49.660156 64 32 C 63.972656 14.339844 49.660156 0.0273438 32 0 Z M 23.382812 6.351562 C 30.113281 7.90625 35.988281 11.980469 39.808594 17.730469 C 40.585938 15.9375 42.351562 14.773438 44.308594 14.769531 C 47.015625 14.769531 49.230469 16.984375 49.230469 19.691406 C 49.230469 22.398438 47.015625 24.617188 44.308594 24.617188 C 43.804688 24.617188 43.347656 24.464844 42.878906 24.324219 C 43.753906 26.945312 44.308594 29.710938 44.308594 32.617188 C 44.308594 44.617188 36.480469 54.769531 25.648438 58.308594 C 13.484375 55.390625 4.910156 44.507812 4.925781 32 C 4.925781 20.035156 12.652344 9.925781 23.382812 6.351562 Z M 17.230469 19.691406 C 15.871094 19.691406 14.769531 20.796875 14.769531 22.152344 C 14.769531 23.511719 15.871094 24.617188 17.230469 24.617188 C 18.59375 24.617188 19.691406 23.511719 19.691406 22.152344 C 19.691406 20.796875 18.59375 19.691406 17.230469 19.691406 Z M 19.691406 34.460938 C 16.984375 34.460938 14.769531 36.675781 14.769531 39.382812 C 14.769531 42.09375 16.984375 44.308594 19.691406 44.308594 C 22.398438 44.308594 24.617188 42.09375 24.617188 39.382812 C 24.617188 36.675781 22.398438 34.460938 19.691406 34.460938 Z M 51.691406 34.460938 C 53.050781 34.460938 54.152344 35.5625 54.152344 36.925781 C 54.152344 38.285156 53.050781 39.382812 51.691406 39.382812 C 51.039062 39.386719 50.410156 39.128906 49.949219 38.667969 C 49.488281 38.203125 49.226562 37.574219 49.230469 36.925781 C 49.230469 35.558594 50.328125 34.460938 51.691406 34.460938 Z M 51.691406 34.460938 "/>
</g>
</svg>
