<svg xmlns="http://www.w3.org/2000/svg" xmlns:xlink="http://www.w3.org/1999/xlink" width="64px" height="64px" viewBox="0 0 64 64" version="1.1">
<defs>
<linearGradient id="linear0" gradientUnits="userSpaceOnUse" x1="0" y1="128" x2="128" y2="0" gradientTransform="matrix(0.432432,0,0,0.432432,4.324324,4.324324)">
<stop offset="0" style="stop-color:#ff6666;stop-opacity:1;"/>
<stop offset="1" style="stop-color:#d90000;stop-opacity:1;"/>
</linearGradient>
</defs>
<g id="surface1">
<path style=" stroke:none;fill-rule:nonzero;fill:url(#linear0);" d="M 20.324219 8.644531 C 18.121094 8.644531 16.433594 10.476562 16.433594 12.753906 L 16.433594 41.546875 C 16.433594 53.800781 24.214844 55.355469 32 55.355469 C 39.785156 55.355469 47.566406 53.800781 47.566406 41.546875 L 47.566406 12.753906 C 47.566406 10.476562 45.878906 8.644531 43.675781 8.644531 Z M 23.972656 14.488281 L 40.027344 14.488281 C 41.5625 14.488281 42.703125 15.988281 42.703125 17.164062 L 42.703125 33.214844 C 42.703125 34.621094 41.265625 35.890625 40.027344 35.890625 L 23.972656 35.890625 C 22.152344 35.890625 21.296875 34.390625 21.296875 33.214844 L 21.296875 17.164062 C 21.296875 15.988281 22.492188 14.488281 23.972656 14.488281 Z M 29.082031 40.757812 L 34.917969 40.757812 L 34.917969 52.433594 L 29.082031 52.433594 Z M 20.71875 42.703125 L 24.613281 42.703125 L 24.613281 50.488281 C 24.613281 53.828125 18.773438 42.703125 20.71875 42.703125 Z M 39.785156 42.703125 L 43.675781 42.703125 C 45.621094 42.703125 39.785156 53.828125 39.785156 50.488281 Z M 39.785156 42.703125 "/>
</g>
</svg>
