<svg xmlns="http://www.w3.org/2000/svg" xmlns:xlink="http://www.w3.org/1999/xlink" width="64" height="64" viewBox="0 0 64 64" version="1.1">
<defs> <linearGradient id="linear0" gradientUnits="userSpaceOnUse" x1="0" y1="0" x2="0" y2="1" gradientTransform="matrix(55.992188,0,0,56,4.003906,4)"> <stop offset="0" style="stop-color:#ff6666;stop-opacity:1;"/> <stop offset="1" style="stop-color:#d90000;stop-opacity:1;"/> </linearGradient> </defs>
<g id="surface1">
<path style=" stroke:none;fill-rule:nonzero;fill:url(#linear0);fill-opacity:1;" d="M 50.851562 19.792969 C 50.851562 22.34375 50.347656 24.605469 49.34375 26.582031 C 48.355469 28.53125 46.980469 30.148438 45.214844 31.433594 C 43.472656 32.722656 41.558594 33.660156 39.46875 34.261719 C 37.382812 34.855469 35.167969 35.152344 32.828125 35.152344 L 27.359375 35.152344 L 27.359375 49.960938 C 27.359375 50.761719 27.484375 51.476562 27.738281 52.097656 C 28.011719 52.691406 28.5625 53.148438 29.386719 53.472656 C 29.800781 53.636719 30.523438 53.78125 31.554688 53.917969 C 32.613281 54.058594 33.574219 54.140625 34.445312 54.160156 L 34.445312 56.605469 L 13.496094 56.605469 L 13.496094 54.160156 C 14.046875 54.117188 14.835938 54.035156 15.871094 53.917969 C 16.925781 53.804688 17.660156 53.65625 18.074219 53.472656 C 18.761719 53.171875 19.253906 52.734375 19.550781 52.164062 C 19.875 51.589844 20.035156 50.851562 20.035156 49.960938 L 20.035156 14.699219 C 20.035156 13.894531 19.921875 13.171875 19.6875 12.53125 C 19.460938 11.886719 18.921875 11.40625 18.074219 11.085938 C 17.199219 10.785156 16.332031 10.582031 15.457031 10.460938 C 14.609375 10.328125 13.878906 10.234375 13.257812 10.191406 L 13.257812 7.742188 L 35.546875 7.742188 C 40.085938 7.742188 43.765625 8.84375 46.589844 11.050781 C 49.433594 13.226562 50.851562 16.144531 50.851562 19.792969 M 40.398438 28.128906 C 41.175781 27.027344 41.691406 25.890625 41.941406 24.71875 C 42.199219 23.527344 42.324219 22.457031 42.324219 21.519531 C 42.324219 20.210938 42.164062 18.878906 41.839844 17.527344 C 41.546875 16.167969 41.015625 14.988281 40.257812 13.980469 C 39.457031 12.898438 38.398438 12.0625 37.09375 11.464844 C 35.789062 10.863281 34.15625 10.570312 32.210938 10.570312 L 27.359375 10.570312 L 27.359375 32.15625 L 30.867188 32.15625 C 33.34375 32.15625 35.351562 31.777344 36.890625 31.019531 C 38.445312 30.238281 39.613281 29.277344 40.398438 28.128906 "/>
</g>
</svg>
