<svg xmlns="http://www.w3.org/2000/svg" xmlns:xlink="http://www.w3.org/1999/xlink" width="64" height="64" viewBox="0 0 64 64" version="1.1">
<defs>
<linearGradient id="linear0" gradientUnits="userSpaceOnUse" x1="0" y1="0" x2="0" y2="1" gradientTransform="matrix(64,0,0,52,0,6)">
<stop offset="0" style="stop-color:#ff6666;stop-opacity:1;"/>
<stop offset="1" style="stop-color:#d90000;stop-opacity:1;"/>
</linearGradient>
</defs>
<g id="surface1">
<path style=" stroke:none;fill-rule:nonzero;fill:url(#linear0);" d="M 15.976562 6 C 10.945312 6.058594 7.261719 5.875 4.253906 7.539062 C 2.742188 8.367188 1.546875 9.777344 0.890625 11.53125 C 0.230469 13.285156 0 15.367188 0 18 L 0 46 C 0 48.632812 0.230469 50.714844 0.890625 52.46875 C 1.546875 54.222656 2.742188 55.632812 4.253906 56.460938 C 7.261719 58.125 10.945312 57.941406 15.976562 58 L 48.023438 58 C 53.054688 57.945312 56.738281 58.125 59.753906 56.460938 C 61.257812 55.632812 62.445312 54.222656 63.101562 52.46875 C 63.761719 50.714844 64 48.632812 64 46 L 64 18 C 64 15.367188 63.761719 13.285156 63.101562 11.53125 C 62.445312 9.777344 61.257812 8.367188 59.753906 7.539062 C 56.738281 5.875 53.054688 6.058594 48.023438 6 Z M 7.335938 10 L 8.664062 10 C 11.332031 10 12 10.800781 12 14 C 12 17.199219 11.332031 18 8.664062 18 L 7.335938 18 C 4.667969 18 4 17.199219 4 14 C 4 10.800781 4.667969 10 7.335938 10 Z M 16 10 L 48 10 C 53.039062 10.058594 56.347656 10.230469 57.8125 11.039062 C 58.546875 11.445312 58.96875 11.894531 59.359375 12.9375 C 59.746094 13.976562 60 15.632812 60 18 L 60 46 C 60 48.367188 59.746094 50.023438 59.359375 51.0625 C 58.96875 52.105469 58.546875 52.554688 57.8125 52.960938 C 56.347656 53.769531 53.039062 53.941406 48 54 L 16 54 Z M 40 16 L 20 32 L 40 48 Z M 7.335938 22 L 8.664062 22 C 11.332031 22 12 22.800781 12 26 C 12 29.199219 11.332031 30 8.664062 30 L 7.335938 30 C 4.667969 30 4 29.199219 4 26 C 4 22.800781 4.667969 22 7.335938 22 Z M 7.335938 34 L 8.664062 34 C 11.332031 34 12 34.800781 12 38 C 12 41.199219 11.332031 42 8.664062 42 L 7.335938 42 C 4.667969 42 4 41.199219 4 38 C 4 34.800781 4.667969 34 7.335938 34 Z M 7.335938 46 L 8.664062 46 C 11.332031 46 12 46.800781 12 50 C 12 53.199219 11.332031 54 8.664062 54 L 7.335938 54 C 4.667969 54 4 53.199219 4 50 C 4 46.800781 4.667969 46 7.335938 46 Z M 7.335938 46 "/>
</g>
</svg>
