<svg xmlns="http://www.w3.org/2000/svg" xmlns:xlink="http://www.w3.org/1999/xlink" width="64" height="64" viewBox="0 0 64 64" version="1.1">
<defs> <linearGradient id="linear0" gradientUnits="userSpaceOnUse" x1="0" y1="0" x2="0" y2="1" gradientTransform="matrix(55.992188,0,0,56,4.003906,4)"> <stop offset="0" style="stop-color:#ff6666;stop-opacity:1;"/> <stop offset="1" style="stop-color:#d90000;stop-opacity:1;"/> </linearGradient> </defs>
<g id="surface1">
<path style=" stroke:none;fill-rule:nonzero;fill:url(#linear0);fill-opacity:1;" d="M 11.816406 -10.269531 C 9.402344 -9.804688 7.699219 -7.714844 7.699219 -5.265625 L 7.699219 -2.308594 L -4.589844 -2.308594 C -7.402344 -2.308594 -9.433594 -0.34375 -9.433594 2.453125 L -9.433594 64.992188 C -9.433594 67.789062 -7.402344 69.816406 -4.589844 69.816406 L 15.210938 69.816406 C 15.46875 72.625 17.683594 74.640625 20.601562 74.640625 L 68.625 74.640625 C 71.722656 74.640625 74.074219 72.359375 74.074219 69.273438 L 74.074219 25.613281 C 74.074219 22.523438 71.722656 20.246094 68.625 20.246094 L 63.414062 20.246094 L 63.414062 2.453125 C 63.414062 -0.34375 61.375 -2.308594 58.570312 -2.308594 L 47.792969 -2.308594 L 47.792969 -5.265625 C 47.742188 -8.066406 45.457031 -10.292969 42.640625 -10.269531 L 12.851562 -10.269531 C 12.515625 -10.304688 12.214844 -10.304688 11.878906 -10.269531 Z M 13.03125 -5.085938 L 42.460938 -5.085938 L 42.460938 4.445312 L 42.523438 4.507812 L 46.882812 8.84375 L 8.609375 8.84375 L 12.96875 4.507812 L 13.03125 4.445312 Z M 20.601562 23.683594 L 68.625 23.683594 C 69.789062 23.683594 70.558594 24.453125 70.558594 25.613281 L 70.558594 68.855469 L 70.984375 68.855469 C 70.984375 70.007812 70.207031 70.78125 69.050781 70.78125 L 20.601562 70.78125 C 19.4375 70.78125 18.660156 70.007812 18.660156 68.855469 L 18.660156 25.613281 C 18.660156 24.453125 19.4375 23.683594 20.601562 23.683594 Z M 28.714844 32.96875 L 28.714844 38.761719 L 61.660156 38.761719 L 61.660156 32.96875 Z M 28.714844 44.546875 L 28.714844 49.976562 L 61.660156 49.976562 L 61.660156 44.546875 Z M 28.714844 55.765625 L 28.714844 61.554688 L 61.660156 61.554688 L 61.660156 55.765625 Z M 28.714844 55.765625 "/>
</g>
</svg>
