<svg xmlns="http://www.w3.org/2000/svg" xmlns:xlink="http://www.w3.org/1999/xlink" width="64" height="64" viewBox="0 0 64 64" version="1.1">
<defs>
<linearGradient id="linear0" gradientUnits="userSpaceOnUse" x1="0" y1="0" x2="0" y2="1" gradientTransform="matrix(64,0,0,64,0,0)">
<stop offset="0" style="stop-color:#ff6666;stop-opacity:1;"/>
<stop offset="1" style="stop-color:#d90000;stop-opacity:1;"/>
</linearGradient>
</defs>
<g id="surface1">
<path style=" stroke:none;fill-rule:nonzero;fill:url(#linear0);" d="M 32 0 C 14.304688 0 0 14.304688 0 32 C 0 49.695312 14.304688 64 32 64 C 49.695312 64 64 49.695312 64 32 C 64 14.304688 49.695312 0 32 0 Z M 32 4 L 32 32 L 60.09375 32.183594 C 60.300781 32.1875 60 31.769531 60 32 C 60 47.480469 47.480469 60 32 60 C 16.519531 60 4 47.480469 4 32 C 4 16.851562 15.992188 4.535156 31.011719 4.015625 C 31.339844 4.003906 32 3.667969 32 4 Z M 32 4 "/>
</g>
</svg>
