<svg xmlns="http://www.w3.org/2000/svg" xmlns:xlink="http://www.w3.org/1999/xlink" width="64" height="64" viewBox="0 0 64 64" version="1.1">
<defs>
<linearGradient id="linear0" gradientUnits="userSpaceOnUse" x1="0" y1="0" x2="0" y2="1" gradientTransform="matrix(64,0,0,40,0,12)">
<stop offset="0" style="stop-color:#ff6666;stop-opacity:1;"/>
<stop offset="1" style="stop-color:#d90000;stop-opacity:1;"/>
</linearGradient>
</defs>
<g id="surface1">
<path style=" stroke:none;fill-rule:nonzero;fill:url(#linear0);" d="M 9.78125 12 C 7.699219 12 6.019531 12.191406 4.5625 12.765625 C 3.105469 13.339844 1.914062 14.40625 1.234375 15.703125 C -0.125 18.292969 0.046875 21.3125 0 25.429688 L 0 38.570312 C 0.046875 42.6875 -0.125 45.707031 1.234375 48.296875 C 1.914062 49.59375 3.105469 50.660156 4.5625 51.234375 C 6.019531 51.808594 7.699219 52 9.78125 52 L 22.226562 52 C 24.308594 52 25.988281 51.808594 27.445312 51.234375 C 28.902344 50.660156 30.085938 49.59375 30.765625 48.296875 C 31.945312 46.042969 31.953125 43.332031 31.96875 39.992188 L 39.75 39.976562 L 42 38 L 44 40 L 46 38 L 48 40 L 50 38 L 54 42 L 64 32 L 56 24 L 31.96875 24.007812 C 31.96875 20.667969 31.929688 17.957031 30.765625 15.703125 C 30.085938 14.40625 28.894531 13.339844 27.4375 12.765625 C 25.980469 12.191406 24.308594 12 22.226562 12 Z M 9.78125 16 L 22.226562 16 C 24.035156 16 25.25 16.207031 25.96875 16.492188 C 26.6875 16.777344 26.945312 17.027344 27.226562 17.5625 C 27.789062 18.636719 27.953125 21.339844 28 25.476562 L 28 28.007812 L 54.34375 28 L 58.34375 32 L 54 36.34375 L 50 32.34375 L 48 34.34375 L 46 32.34375 L 44 34.34375 L 42.179688 32.523438 L 38.242188 35.976562 L 28 36 L 28 38.523438 C 27.957031 42.660156 27.789062 45.363281 27.226562 46.4375 C 26.945312 46.972656 26.6875 47.222656 25.96875 47.507812 C 25.25 47.789062 24.035156 48 22.226562 48 L 9.78125 48 C 7.972656 48 6.75 47.789062 6.03125 47.507812 C 5.3125 47.222656 5.0625 46.972656 4.78125 46.4375 C 4.21875 45.367188 4.046875 42.664062 4 38.546875 L 4 25.453125 C 4.046875 21.335938 4.21875 18.628906 4.78125 17.5625 C 5.0625 17.023438 5.3125 16.773438 6.03125 16.492188 C 6.75 16.207031 7.972656 16 9.78125 16 Z M 12 28 C 9.789062 28 8 29.789062 8 32 C 8 34.207031 9.789062 36 12 36 C 14.210938 36 16 34.207031 16 32 C 16 29.789062 14.210938 28 12 28 Z M 12 28 "/>
</g>
</svg>
