<svg xmlns="http://www.w3.org/2000/svg" xmlns:xlink="http://www.w3.org/1999/xlink" width="64" height="64" viewBox="0 0 64 64" version="1.1">
<defs> <linearGradient id="linear0" gradientUnits="userSpaceOnUse" x1="0" y1="0" x2="0" y2="1" gradientTransform="matrix(55.992188,0,0,56,4.003906,4)"> <stop offset="0" style="stop-color:#ff6666;stop-opacity:1;"/> <stop offset="1" style="stop-color:#d90000;stop-opacity:1;"/> </linearGradient> </defs>
<g id="surface1">
<path style=" stroke:none;fill-rule:nonzero;fill:url(#linear0);fill-opacity:1;" d="M 39.835938 32.171875 C 39.835938 36.449219 36.347656 39.921875 32.054688 39.921875 C 27.761719 39.921875 24.277344 36.449219 24.277344 32.171875 C 24.277344 27.898438 27.761719 24.425781 32.054688 24.425781 C 36.347656 24.425781 39.835938 27.898438 39.835938 32.171875 Z M 39.835938 32.171875 "/>
<path style=" stroke:none;fill-rule:nonzero;fill:url(#linear0);fill-opacity:1;" d="M 28.007812 16.996094 C 21.265625 18.78125 16.292969 24.902344 16.292969 32.167969 C 16.292969 39.441406 21.265625 45.566406 28.007812 47.351562 C 23.140625 45.175781 19.648438 39.195312 19.648438 32.167969 C 19.648438 25.144531 23.140625 19.171875 28.007812 16.996094 Z M 36.105469 16.996094 C 40.972656 19.171875 44.464844 25.144531 44.464844 32.167969 C 44.464844 39.195312 40.972656 45.175781 36.105469 47.351562 C 42.847656 45.566406 47.820312 39.441406 47.820312 32.167969 C 47.820312 24.902344 42.847656 18.78125 36.105469 16.996094 Z M 36.105469 16.996094 "/>
<path style=" stroke:none;fill-rule:nonzero;fill:url(#linear0);fill-opacity:1;" d="M 25.730469 8.472656 C 15.207031 11.257812 7.441406 20.8125 7.441406 32.167969 C 7.441406 43.523438 15.207031 53.085938 25.730469 55.875 C 18.136719 52.476562 12.679688 43.140625 12.679688 32.167969 C 12.679688 21.195312 18.136719 11.871094 25.730469 8.472656 Z M 38.382812 8.472656 C 45.976562 11.871094 51.433594 21.195312 51.433594 32.167969 C 51.433594 43.140625 45.976562 52.476562 38.382812 55.875 C 48.90625 53.085938 56.667969 43.523438 56.667969 32.167969 C 56.667969 20.8125 48.90625 11.257812 38.382812 8.472656 Z M 38.382812 8.472656 "/>
</g>
</svg>
