<svg xmlns="http://www.w3.org/2000/svg" xmlns:xlink="http://www.w3.org/1999/xlink" width="64" height="64" viewBox="0 0 64 64" version="1.1">
<defs>
<linearGradient id="linear0" gradientUnits="userSpaceOnUse" x1="0" y1="0" x2="0" y2="1" gradientTransform="matrix(59.257812,0,0,64,2.371094,0)">
<stop offset="0" style="stop-color:#ff6666;stop-opacity:1;"/>
<stop offset="1" style="stop-color:#d90000;stop-opacity:1;"/>
</linearGradient>
</defs>
<g id="surface1">
<path style=" stroke:none;fill-rule:nonzero;fill:url(#linear0);" d="M 40.296875 0 L 23.703125 2.371094 L 23.703125 7.113281 L 15.644531 7.113281 C 2.371094 7.113281 2.371094 15.40625 2.371094 15.40625 L 2.371094 23.703125 L 23.703125 23.703125 C 23.703125 20.957031 25.21875 18.964844 27.96875 18.964844 C 30.71875 18.964844 31.914062 20.957031 31.914062 23.703125 L 32.085938 23.703125 L 2.671875 42.667969 L 2.371094 42.667969 L 2.371094 56.886719 L 23.703125 56.886719 L 23.703125 64 L 40.296875 61.628906 L 40.296875 56.886719 L 61.628906 56.886719 L 61.628906 42.667969 L 32 42.667969 L 55.527344 27.699219 C 58.78125 25.363281 61.628906 23.703125 61.628906 17.0625 C 61.628906 17.0625 62.105469 7.113281 43.851562 7.113281 L 40.296875 7.113281 Z M 40.296875 0 "/>
</g>
</svg>
