<svg xmlns="http://www.w3.org/2000/svg" xmlns:xlink="http://www.w3.org/1999/xlink" width="64" height="64" viewBox="0 0 64 64" version="1.1">
<defs> <linearGradient id="linear0" gradientUnits="userSpaceOnUse" x1="0" y1="0" x2="0" y2="1" gradientTransform="matrix(55.992188,0,0,56,4.003906,4)"> <stop offset="0" style="stop-color:#ff6666;stop-opacity:1;"/> <stop offset="1" style="stop-color:#d90000;stop-opacity:1;"/> </linearGradient> </defs>
<g id="surface1">
<path style=" stroke:none;fill-rule:nonzero;fill:url(#linear0);fill-opacity:1;" d="M 18.527344 6.816406 C 17.160156 6.816406 15.792969 7.882812 15.480469 9.195312 L 6.523438 47.390625 C 6.210938 48.710938 7.074219 49.777344 8.4375 49.777344 L 14.804688 49.777344 C 16.171875 49.777344 17.535156 48.710938 17.835938 47.398438 L 20.023438 38.132812 C 20.328125 36.828125 21.691406 35.765625 23.058594 35.765625 L 24.878906 35.765625 C 32.636719 35.765625 38.683594 34.203125 43 31.070312 C 47.328125 27.9375 49.492188 23.816406 49.492188 18.703125 C 49.492188 16.453125 49.085938 14.574219 48.28125 13.058594 C 47.472656 11.558594 46.308594 10.328125 44.789062 9.394531 C 43.222656 8.441406 41.386719 7.789062 39.269531 7.398438 C 37.132812 7.011719 34.644531 6.820312 31.777344 6.820312 L 18.527344 6.820312 M 28.609375 14.335938 L 30.691406 14.335938 C 33.125 14.335938 34.96875 14.738281 36.203125 15.546875 C 37.441406 16.347656 38.046875 17.59375 38.046875 19.269531 C 38.046875 21.800781 37.09375 23.765625 35.179688 25.136719 C 33.265625 26.507812 30.609375 27.203125 27.171875 27.203125 L 25.59375 27.203125 C 24.226562 27.203125 23.355469 26.121094 23.65625 24.820312 L 25.570312 16.707031 C 25.882812 15.398438 27.246094 14.335938 28.609375 14.335938 M 52.863281 16.542969 C 53.675781 18.058594 54.074219 19.933594 54.074219 22.179688 C 54.074219 27.296875 51.902344 31.414062 47.589844 34.546875 C 43.261719 37.679688 37.222656 39.25 29.460938 39.25 L 27.644531 39.25 C 26.28125 39.25 24.917969 40.316406 24.609375 41.617188 L 22.425781 50.882812 C 22.125 52.183594 20.753906 53.261719 19.390625 53.261719 L 15.410156 53.261719 L 15.058594 54.773438 C 14.746094 56.085938 15.617188 57.152344 16.984375 57.152344 L 23.351562 57.152344 C 24.714844 57.152344 26.082031 56.078125 26.386719 54.773438 L 28.570312 45.515625 C 28.875 44.214844 30.238281 43.140625 31.605469 43.140625 L 33.429688 43.140625 C 41.1875 43.140625 47.230469 41.578125 51.546875 38.445312 C 55.875 35.3125 58.03125 31.183594 58.03125 26.078125 C 58.03125 23.824219 57.632812 21.953125 56.828125 20.4375 C 56.019531 18.941406 54.851562 17.703125 53.328125 16.769531 C 53.164062 16.667969 53.035156 16.636719 52.871094 16.542969 "/>
</g>
</svg>
