<svg xmlns="http://www.w3.org/2000/svg" xmlns:xlink="http://www.w3.org/1999/xlink" width="64" height="64" viewBox="0 0 64 64" version="1.1">
<defs>
<linearGradient id="linear0" gradientUnits="userSpaceOnUse" x1="0" y1="0" x2="0" y2="1" gradientTransform="matrix(64,0,0,64,0,0)">
<stop offset="0" style="stop-color:#ff6666;stop-opacity:1;"/>
<stop offset="1" style="stop-color:#d90000;stop-opacity:1;"/>
</linearGradient>
</defs>
<g id="surface1">
<path style=" stroke:none;fill-rule:evenodd;fill:url(#linear0);" d="M 32 6.855469 C 45.882812 6.855469 57.144531 18.117188 57.144531 32 C 57.144531 45.882812 45.882812 57.144531 32 57.144531 C 18.113281 57.144531 6.855469 45.882812 6.855469 32 C 6.855469 18.117188 18.113281 6.855469 32 6.855469 Z M 32 0 C 14.328125 0 0 14.328125 0 32 C 0 49.671875 14.328125 64 32 64 C 49.671875 64 64 49.671875 64 32 C 64 14.328125 49.671875 0 32 0 Z M 27.429688 25.253906 L 37.828125 25.253906 C 39.777344 25.253906 41.144531 27.03125 41.144531 28.910156 C 41.144531 30.789062 39.777344 32.152344 37.828125 32.109375 L 27.429688 32.109375 Z M 23.085938 16 C 20.425781 16 18.285156 18.085938 18.285156 20.671875 L 18.285156 45.609375 C 18.285156 48.195312 20.425781 50.285156 23.085938 50.285156 C 25.742188 50.285156 27.304688 48.191406 27.429688 45.609375 L 27.429688 41.386719 L 37.484375 41.386719 C 44.554688 41.386719 50.285156 35.808594 50.285156 28.925781 C 50.285156 22.039062 44.554688 16 37.484375 16 Z M 23.085938 16 "/>
</g>
</svg>
