<svg xmlns="http://www.w3.org/2000/svg" xmlns:xlink="http://www.w3.org/1999/xlink" width="64" height="64" viewBox="0 0 64 64" version="1.1">
<defs>
<linearGradient id="linear0" gradientUnits="userSpaceOnUse" x1="0" y1="0" x2="0" y2="1" gradientTransform="matrix(64,0,0,49.328125,0,7.335938)">
<stop offset="0" style="stop-color:#ff6666;stop-opacity:1;"/>
<stop offset="1" style="stop-color:#d90000;stop-opacity:1;"/>
</linearGradient>
</defs>
<g id="surface1">
<path style=" stroke:none;fill-rule:nonzero;fill:url(#linear0);" d="M 24.433594 7.335938 L 24.433594 53.59375 L 34.441406 56.664062 L 34.441406 18.050781 C 34.441406 17.03125 34.5625 16.28125 34.992188 15.847656 C 35.410156 15.257812 35.808594 15.195312 36.40625 15.457031 C 37.855469 15.875 38.535156 17.1875 38.535156 19.316406 L 38.535156 34.835938 C 41.777344 36.375 44.679688 36.53125 46.808594 34.914062 C 49.023438 33.378906 50.199219 30.652344 50.199219 26.5625 C 50.199219 22.300781 49.398438 19.007812 47.515625 16.871094 C 45.8125 14.574219 42.8125 12.734375 38.375 11.195312 C 32.84375 9.40625 28.183594 8.128906 24.433594 7.335938 Z M 21.355469 35.3125 L 19.386719 35.941406 L 7.015625 40.351562 L 4.886719 41.21875 C 1.648438 42.578125 -0.0859375 44.035156 0.00390625 45.316406 C 0.171875 47.1875 2.3125 48.546875 6.152344 49.570312 C 11.136719 50.910156 16.183594 51.214844 21.355469 50.441406 L 21.355469 45.160156 L 19.386719 45.867188 L 17.179688 46.734375 L 13.636719 47.445312 L 10.246094 47.050781 C 9.566406 46.617188 9.339844 46.136719 9.773438 45.710938 C 10.324219 45.371094 10.902344 45.078125 11.507812 44.84375 L 13.792969 44.054688 L 21.355469 41.375 Z M 50.039062 37.753906 C 49.113281 37.710938 48.179688 37.792969 47.285156 37.828125 C 43.972656 37.898438 40.574219 38.445312 37.039062 39.5625 L 37.039062 45.789062 L 44.050781 43.347656 L 47.675781 42.085938 L 50.039062 41.457031 C 51.566406 41.050781 53.191406 41.617188 53.191406 41.617188 C 54.128906 41.691406 54.601562 42.046875 54.769531 42.480469 C 54.9375 42.992188 54.3125 43.386719 53.035156 43.820312 L 49.882812 45.078125 L 37.039062 49.648438 L 37.039062 55.714844 L 43.027344 53.589844 L 57.449219 48.464844 L 59.179688 47.679688 C 62.601562 46.394531 64.15625 45.046875 63.988281 43.34375 C 63.894531 41.71875 61.960938 40.441406 58.546875 39.328125 C 55.800781 38.398438 52.9375 37.867188 50.039062 37.753906 Z M 50.039062 37.753906 "/>
</g>
</svg>
