<svg xmlns="http://www.w3.org/2000/svg" xmlns:xlink="http://www.w3.org/1999/xlink" width="64" height="64" viewBox="0 0 64 64" version="1.1">
<defs>
<linearGradient id="linear0" gradientUnits="userSpaceOnUse" x1="0" y1="0" x2="0" y2="1" gradientTransform="matrix(51.757813,0,0,56,7,4)">
<stop offset="0" style="stop-color:#ff6666;stop-opacity:1;"/>
<stop offset="1" style="stop-color:#d90000;stop-opacity:1;"/>
</linearGradient>
</defs>
<g id="surface1">
<path style=" stroke:none;fill-rule:nonzero;fill:url(#linear0);" d="M 23.851562 4.007812 C 23.015625 4.007812 22.359375 4.046875 21.609375 4.0625 C 20.632812 4.089844 19.585938 4.089844 18.6875 4.128906 C 18.621094 4.152344 18.546875 4.179688 18.484375 4.207031 L 17.449219 4.683594 L 17.203125 5.898438 L 12.285156 30.492188 L 10.421875 39.785156 L 7 56.859375 C 7.265625 57.097656 7.527344 57.335938 7.832031 57.542969 C 8.269531 57.839844 8.75 58.105469 9.269531 58.339844 C 9.789062 58.578125 10.351562 58.78125 10.960938 58.964844 C 11.566406 59.144531 12.21875 59.300781 12.921875 59.429688 C 13.621094 59.5625 14.371094 59.671875 15.171875 59.761719 C 15.972656 59.855469 16.824219 59.921875 17.730469 59.972656 C 18.078125 60 18.542969 59.984375 18.910156 60 C 19.347656 57.882812 19.625 56.570312 20.4375 52.496094 L 22.328125 43.007812 L 22.75 40.886719 L 25.082031 40.886719 C 28.28125 40.882812 32.730469 40.671875 34.769531 40.425781 C 42.171875 39.53125 47.464844 37.105469 51.867188 32.589844 C 54.257812 30.136719 55.929688 27.511719 57.273438 24.09375 C 57.957031 22.359375 58.511719 20.042969 58.757812 18.058594 C 58.757812 17.679688 58.742188 17.304688 58.710938 16.933594 C 58.636719 16.265625 58.511719 15.605469 58.339844 14.960938 C 58.21875 14.503906 58.074219 14.050781 57.910156 13.609375 C 57.671875 12.980469 57.386719 12.367188 57.058594 11.773438 C 56.730469 11.179688 56.359375 10.601562 55.941406 10.046875 C 55.527344 9.488281 55.066406 8.953125 54.566406 8.441406 C 54.066406 7.925781 53.527344 7.4375 52.949219 6.972656 C 52.769531 6.84375 52.589844 6.714844 52.402344 6.585938 C 50.203125 5.105469 46.957031 3.789062 45.125 4.066406 C 44.199219 4.050781 43.394531 4 42.371094 4 Z M 28.675781 11.148438 L 33.023438 11.148438 C 37.308594 11.148438 39.804688 11.3125 41.121094 11.675781 C 42.039062 11.933594 43.121094 12.597656 43.769531 13.304688 C 44.832031 14.46875 45.269531 16.039062 45.152344 18.261719 C 45.027344 20.535156 44.292969 22.785156 42.921875 25.082031 C 40.347656 29.398438 36.972656 31.476562 31.207031 32.292969 C 30.375 32.414062 28.835938 32.484375 27.136719 32.488281 L 24.410156 32.488281 L 26.542969 21.820312 Z M 28.675781 11.148438 "/>
</g>
</svg>
