<svg xmlns="http://www.w3.org/2000/svg" xmlns:xlink="http://www.w3.org/1999/xlink" width="64" height="64" viewBox="0 0 64 64" version="1.1">
<defs>
<linearGradient id="linear0" gradientUnits="userSpaceOnUse" x1="0" y1="0" x2="0" y2="1" gradientTransform="matrix(64,0,0,64,0,0)">
<stop offset="0" style="stop-color:#ff6666;stop-opacity:1;"/>
<stop offset="1" style="stop-color:#d90000;stop-opacity:1;"/>
</linearGradient>
</defs>
<g id="surface1">
<path style=" stroke:none;fill-rule:evenodd;fill:url(#linear0);" d="M 54.855469 48.175781 C 58.175781 43.484375 60 37.839844 60 32 C 60 24.558594 57.039062 17.441406 51.800781 12.199219 C 46.558594 6.960938 39.441406 4 32 4 C 24.558594 4 17.441406 6.960938 12.199219 12.199219 C 6.960938 17.441406 4 24.558594 4 32 C 4 39.441406 6.960938 46.558594 12.199219 51.800781 C 15.222656 54.824219 18.878906 57.09375 22.855469 58.464844 L 22.855469 28.800781 L 38.855469 20.570312 L 54.855469 28.800781 Z M 0 32 C 0 14.339844 14.339844 0 32 0 C 49.660156 0 64 14.339844 64 32 C 64 49.660156 49.660156 64 32 64 C 14.339844 64 0 49.660156 0 32 Z M 43.429688 29.714844 C 43.429688 30.53125 42.554688 31.285156 41.144531 31.691406 C 39.726562 32.105469 37.984375 32.105469 36.570312 31.691406 C 35.15625 31.285156 34.285156 30.53125 34.285156 29.714844 Z M 43.429688 29.714844 "/>
</g>
</svg>
