<svg xmlns="http://www.w3.org/2000/svg" xmlns:xlink="http://www.w3.org/1999/xlink" width="64" height="64" viewBox="0 0 64 64" version="1.1">
<defs>
<linearGradient id="linear0" gradientUnits="userSpaceOnUse" x1="0" y1="0" x2="0" y2="1" gradientTransform="matrix(64,0,0,63.992188,0,0.00390625)">
<stop offset="0" style="stop-color:#ff6666;stop-opacity:1;"/>
<stop offset="1" style="stop-color:#d90000;stop-opacity:1;"/>
</linearGradient>
</defs>
<g id="surface1">
<path style=" stroke:none;fill-rule:nonzero;fill:url(#linear0);" d="M 47.046875 0.00390625 C 46.699219 0.00390625 46.324219 0.160156 46.042969 0.441406 L 9.875 36.609375 C 9.734375 36.746094 9.617188 36.851562 9.617188 37.132812 L 0.136719 62.171875 C -0.140625 62.589844 0.0234375 63.144531 0.445312 63.5625 C 0.71875 63.839844 0.980469 63.996094 1.398438 63.996094 C 1.539062 63.996094 1.6875 64.007812 1.964844 63.863281 L 27.003906 54.386719 C 27.144531 54.246094 27.429688 54.269531 27.566406 54.128906 L 29.785156 51.910156 L 63.5625 18.089844 C 63.84375 17.671875 64 17.375 64 16.957031 C 64 16.539062 63.84375 16.28125 63.5625 16 L 48 0.4375 C 47.722656 0.160156 47.390625 0.00390625 47.042969 0.00390625 Z M 12.65625 37.828125 C 13.351562 39.214844 13.078125 40.746094 12.527344 42 C 12.246094 42.550781 12.539062 43.289062 13.09375 43.5625 C 13.648438 43.980469 14.328125 43.839844 14.742188 43.5625 C 15.714844 42.867188 19.335938 41.1875 21.003906 43 C 22.671875 44.667969 21.308594 48.144531 20.613281 49.261719 C 20.195312 49.675781 20.195312 50.355469 20.613281 50.910156 C 21.03125 51.328125 21.578125 51.617188 22.136719 51.476562 C 23.945312 50.925781 25.335938 51.195312 26.308594 51.476562 L 25.742188 52.039062 L 10.269531 57.824219 L 6.269531 53.691406 L 12.09375 38.386719 Z M 12.65625 37.828125 "/>
</g>
</svg>
