<svg xmlns="http://www.w3.org/2000/svg" xmlns:xlink="http://www.w3.org/1999/xlink" width="64" height="64" viewBox="0 0 64 64" version="1.1">
<defs>
<linearGradient id="linear0" gradientUnits="userSpaceOnUse" x1="0" y1="0" x2="0" y2="1" gradientTransform="matrix(74.65625,0,0,74.666667,5.338541,5.333333)">
<stop offset="0" style="stop-color:#ff6666;stop-opacity:1;"/>
<stop offset="1" style="stop-color:#d90000;stop-opacity:1;"/>
</linearGradient>
</defs>
<g id="surface1">
<path style=" stroke:none;fill-rule:nonzero;fill:url(#linear0);" d="M 40.363281 1.78125 C 38.550781 1.726562 36.597656 2.167969 34.691406 2.957031 C 32.777344 3.75 30.921875 4.878906 29.632812 6.617188 C 29.617188 6.636719 29.601562 6.65625 29.585938 6.679688 C 28.25 8.601562 27.546875 10.128906 27.015625 11.484375 C 26.488281 12.832031 26.117188 13.96875 25.292969 15.582031 C 24.726562 16.632812 24.046875 17.425781 23.394531 18.296875 C 23.488281 16.59375 23.535156 14.90625 23.484375 13.472656 C 23.480469 13.441406 23.480469 13.410156 23.476562 13.378906 C 23.46875 13.265625 23.460938 11.203125 22.527344 9.242188 C 21.59375 7.277344 19.402344 5.203125 16.023438 4.796875 C 15.9375 4.789062 15.847656 4.78125 15.757812 4.78125 C 14.453125 4.78125 13.195312 5.390625 12.460938 6.140625 C 12.085938 6.523438 11.992188 6.828125 11.78125 7.183594 C 10.582031 7.367188 9.460938 7.585938 7.875 7.957031 C 7.824219 7.96875 7.777344 7.980469 7.730469 7.996094 C 6.578125 8.34375 5.703125 9.03125 4.945312 10.023438 C 4.183594 11.019531 3.613281 12.425781 3.765625 14.011719 C 3.769531 14.039062 3.773438 14.070312 3.777344 14.097656 C 3.882812 14.867188 4.304688 15.671875 4.84375 16.175781 C 5.386719 16.675781 5.949219 16.914062 6.425781 17.066406 C 7.261719 17.335938 7.867188 17.394531 8.371094 17.492188 C 8.355469 17.523438 8.339844 17.488281 8.328125 17.613281 C 8.324219 17.632812 8.320312 17.65625 8.320312 17.679688 C 7.953125 21.621094 6.636719 26.765625 10.621094 32.953125 C 10.628906 32.96875 10.636719 32.980469 10.648438 32.992188 C 11.742188 34.617188 13.128906 36.074219 14.859375 37.070312 C 16.585938 38.0625 18.726562 38.554688 20.898438 38.054688 C 20.90625 38.054688 20.914062 38.050781 20.925781 38.050781 C 21.121094 38.003906 20.980469 38.007812 21.054688 38.003906 C 21.746094 45.183594 22.59375 51.96875 20.09375 56.582031 L 17.9375 58.109375 C 16.917969 58.835938 16.679688 60.25 17.402344 61.269531 C 18.125 62.289062 19.542969 62.53125 20.5625 61.804688 L 23.242188 59.90625 C 23.503906 59.71875 23.722656 59.480469 23.882812 59.203125 C 27.75 52.605469 26.246094 44.597656 25.554688 37.402344 C 25.550781 37.394531 25.550781 37.386719 25.550781 37.378906 C 25.414062 36.117188 24.773438 34.726562 23.5625 34.015625 C 22.347656 33.300781 21.027344 33.359375 19.851562 33.644531 C 18.902344 33.855469 18.058594 33.683594 17.121094 33.140625 C 16.175781 32.597656 15.203125 31.636719 14.417969 30.46875 C 11.273438 25.566406 12.398438 22.660156 12.828125 18.164062 C 13.082031 16.058594 11.863281 13.742188 9.769531 13.160156 C 9.742188 13.152344 9.714844 13.144531 9.6875 13.140625 C 9.113281 13.003906 8.855469 12.960938 8.507812 12.894531 C 8.53125 12.851562 8.515625 12.8125 8.546875 12.773438 C 8.75 12.503906 9.109375 12.324219 9.03125 12.34375 C 11.144531 11.851562 12.558594 11.484375 13.242188 11.460938 C 14.078125 11.425781 14.828125 10.9375 15.195312 10.1875 C 15.425781 9.710938 15.601562 9.445312 15.671875 9.359375 C 17.460938 9.632812 18.019531 10.320312 18.433594 11.191406 C 18.859375 12.085938 18.890625 12.929688 18.949219 13.679688 C 19.054688 16.648438 18.832031 20.871094 18.140625 24.136719 C 17.949219 25.027344 18.3125 25.945312 19.0625 26.46875 C 19.808594 26.988281 20.796875 27.007812 21.570312 26.523438 C 24.265625 24.8125 27.105469 21.785156 29.292969 17.714844 C 29.300781 17.703125 29.304688 17.6875 29.3125 17.675781 C 30.292969 15.761719 30.765625 14.339844 31.234375 13.140625 C 31.699219 11.949219 32.179688 10.914062 33.289062 9.308594 C 33.832031 8.585938 35.046875 7.714844 36.429688 7.144531 C 37.816406 6.570312 39.367188 6.28125 40.238281 6.308594 C 40.246094 6.308594 40.253906 6.308594 40.261719 6.308594 C 41.285156 6.328125 41.574219 6.644531 42.191406 7.675781 C 42.804688 8.707031 43.316406 10.339844 43.984375 11.941406 C 45.636719 15.933594 47.964844 19.65625 50.417969 23.265625 C 50.4375 23.296875 50.453125 23.324219 50.476562 23.351562 C 53.214844 27.023438 54.769531 29.847656 55.390625 32.007812 C 56.011719 34.167969 55.851562 35.613281 55.039062 37.3125 C 54.496094 38.441406 54.972656 39.796875 56.101562 40.335938 C 57.230469 40.878906 58.585938 40.402344 59.125 39.273438 C 60.355469 36.707031 60.617188 33.785156 59.746094 30.753906 C 58.878906 27.746094 57.035156 24.574219 54.167969 20.71875 C 51.78125 17.203125 49.625 13.722656 48.171875 10.203125 C 48.171875 10.199219 48.171875 10.199219 48.167969 10.195312 C 47.648438 8.941406 47.128906 7.101562 46.085938 5.351562 C 45.039062 3.605469 43.042969 1.839844 40.363281 1.78125 Z M 15.671875 9.289062 C 15.648438 9.300781 15.644531 9.316406 15.75 9.316406 L 15.699219 9.3125 C 15.699219 9.3125 15.699219 9.308594 15.703125 9.308594 C 15.730469 9.277344 15.691406 9.28125 15.671875 9.289062 Z M 16.328125 10.253906 C 15.324219 10.253906 14.511719 11.066406 14.515625 12.066406 C 14.511719 13.066406 15.324219 13.878906 16.328125 13.878906 C 17.328125 13.878906 18.140625 13.066406 18.140625 12.066406 C 18.140625 11.066406 17.328125 10.253906 16.328125 10.253906 Z M 51.832031 28.023438 C 50.800781 28.046875 49.917969 28.761719 49.679688 29.761719 C 48.707031 33.835938 48.355469 36.496094 49.351562 40.453125 C 49.375 40.558594 49.410156 40.664062 49.453125 40.765625 C 49.921875 41.894531 49.875 42.953125 49.765625 44.582031 C 49.765625 44.589844 49.765625 44.597656 49.765625 44.601562 C 49.515625 48.933594 49.609375 53.285156 50.304688 57.632812 C 50.398438 58.226562 50.722656 58.757812 51.210938 59.109375 C 51.699219 59.464844 52.304688 59.609375 52.898438 59.515625 C 54.136719 59.316406 54.976562 58.152344 54.78125 56.917969 C 54.152344 52.976562 54.054688 48.957031 54.292969 44.867188 L 54.289062 44.886719 C 54.394531 43.300781 54.527344 41.359375 53.726562 39.265625 C 52.90625 35.964844 53.152344 34.742188 54.089844 30.8125 C 54.378906 29.597656 53.625 28.375 52.410156 28.085938 C 52.21875 28.039062 52.027344 28.019531 51.832031 28.023438 Z M 43.921875 30.007812 C 43.515625 29.996094 43.152344 30.066406 42.835938 30.140625 C 42.207031 30.289062 41.664062 30.523438 41.117188 30.804688 C 38.664062 32.042969 36.378906 33.089844 34.003906 33.441406 C 32.894531 33.566406 31.765625 33.75 30.726562 34.558594 C 29.664062 35.386719 29.152344 36.589844 28.8125 37.851562 C 28.808594 37.863281 28.804688 37.871094 28.800781 37.878906 C 28.214844 40.160156 27.675781 42.691406 28.003906 45.332031 C 28.011719 45.371094 28.015625 45.410156 28.023438 45.453125 C 28.363281 47.335938 29.746094 48.695312 30.667969 49.273438 C 31.589844 49.851562 32 50.011719 32.5 50.714844 C 33.226562 51.734375 34.640625 51.972656 35.664062 51.246094 C 36.683594 50.519531 36.917969 49.105469 36.195312 48.085938 C 35.078125 46.519531 33.675781 45.808594 33.074219 45.429688 C 32.5 45.070312 32.613281 45.285156 32.515625 44.6875 C 32.328125 43.078125 32.660156 41.082031 33.195312 39.011719 C 33.195312 39.011719 33.195312 39.007812 33.195312 39.007812 C 33.417969 38.199219 33.558594 38.097656 33.511719 38.136719 C 33.460938 38.175781 33.683594 38.035156 34.585938 37.9375 C 34.613281 37.933594 34.640625 37.929688 34.667969 37.925781 C 37.285156 37.539062 39.539062 36.566406 41.664062 35.539062 C 41.214844 37.355469 40.855469 39.28125 40.933594 41.476562 C 40.933594 41.507812 40.9375 41.535156 40.9375 41.566406 C 41.058594 43.164062 41.296875 42.921875 40.429688 44.230469 C 40.417969 44.242188 40.410156 44.253906 40.40625 44.265625 C 38.160156 47.78125 35.960938 51.359375 35.234375 55.167969 C 35 56.398438 35.808594 57.585938 37.039062 57.820312 C 38.265625 58.054688 39.453125 57.246094 39.6875 56.015625 C 40.175781 53.449219 42.027344 50.15625 44.203125 46.738281 L 44.226562 46.703125 C 45.546875 44.691406 45.570312 42.734375 45.460938 41.230469 L 45.464844 41.320312 C 45.386719 39.136719 45.796875 37.210938 46.398438 35.210938 L 46.347656 35.351562 C 46.648438 34.546875 46.851562 33.847656 46.828125 32.992188 C 46.800781 32.140625 46.253906 30.886719 45.273438 30.367188 C 44.78125 30.109375 44.328125 30.015625 43.921875 30.007812 Z M 43.921875 30.007812 "/>
</g>
</svg>
