<svg xmlns="http://www.w3.org/2000/svg" xmlns:xlink="http://www.w3.org/1999/xlink" width="64" height="64" viewBox="0 0 64 64" version="1.1">
<defs>
<linearGradient id="linear0" gradientUnits="userSpaceOnUse" x1="0" y1="0" x2="0" y2="1" gradientTransform="matrix(36.570312,0,0,64,13.714844,0)">
<stop offset="0" style="stop-color:#ff6666;stop-opacity:1;"/>
<stop offset="1" style="stop-color:#d90000;stop-opacity:1;"/>
</linearGradient>
</defs>
<g id="surface1">
<path style=" stroke:none;fill-rule:evenodd;fill:url(#linear0);" d="M 20.09375 24.488281 C 17.644531 23.671875 15.460938 22.644531 13.714844 21.332031 L 15.238281 28.953125 L 13.714844 36.570312 C 22.246094 30.171875 40.664062 31.089844 50.285156 28.953125 C 43.367188 27.738281 30.699219 27.667969 21.296875 24.855469 C 29.09375 19.605469 35.140625 20.296875 44.191406 18.285156 C 35.671875 16.792969 29.175781 17.027344 21.347656 11.753906 C 30.609375 9.105469 42.984375 9.238281 50.285156 7.621094 C 41.210938 6.027344 22.246094 6.398438 13.714844 0 L 15.238281 7.621094 L 13.714844 15.238281 C 15.476562 13.914062 17.660156 12.90625 20.101562 12.121094 L 21.332031 18.285156 Z M 28.953125 39.621094 C 22.550781 48.152344 22.925781 54.929688 21.332031 64 C 19.199219 54.378906 20.117188 48.152344 13.714844 39.621094 L 21.332031 41.144531 Z M 50.285156 39.621094 C 43.882812 48.152344 44.257812 54.929688 42.667969 64 C 40.53125 54.378906 41.449219 48.152344 35.046875 39.621094 L 42.667969 41.144531 Z M 50.285156 39.621094 "/>
</g>
</svg>
