<svg xmlns="http://www.w3.org/2000/svg" xmlns:xlink="http://www.w3.org/1999/xlink" width="64" height="64" viewBox="0 0 64 64" version="1.1">
<defs>
<linearGradient id="linear0" gradientUnits="userSpaceOnUse" x1="0" y1="0" x2="0" y2="1" gradientTransform="matrix(60,0,0,60,2,2)">
<stop offset="0" style="stop-color:#ff6666;stop-opacity:1;"/>
<stop offset="1" style="stop-color:#d90000;stop-opacity:1;"/>
</linearGradient>
</defs>
<g id="surface1">
<path style=" stroke:none;fill-rule:evenodd;fill:url(#linear0);" d="M 58 31.253906 L 58 13.320312 C 57.960938 11.359375 57.160156 9.480469 55.761719 8.121094 C 54.320312 6.71875 52.441406 5.960938 50.441406 6 C 50.441406 6 50.441406 6 50.398438 6 L 43.585938 6 L 33.265625 31.253906 Z M 58 35.0625 L 58 50.679688 C 57.960938 52.640625 57.160156 54.519531 55.761719 55.878906 C 54.320312 57.28125 52.441406 58.039062 50.441406 58 C 50.441406 58 50.441406 58 50.398438 58 L 22.351562 58 L 31.707031 35.0625 Z M 18.238281 58 L 13.601562 58 C 13.558594 58 13.558594 58 13.558594 58 C 11.558594 58.039062 9.679688 57.28125 8.238281 55.878906 C 6.839844 54.519531 6.039062 52.640625 6 50.679688 L 6 13.320312 C 6.039062 11.359375 6.839844 9.480469 8.238281 8.121094 C 9.679688 6.71875 11.558594 5.960938 13.558594 6 C 13.558594 6 13.558594 6 13.601562 6 L 39.1875 6 Z M 50.402344 2 C 56.828125 2 62 7.042969 62 13.300781 L 62 50.699219 C 62 56.957031 56.828125 62 50.402344 62 L 13.597656 62 C 7.171875 62 2 56.957031 2 50.699219 L 2 13.300781 C 2 7.042969 7.171875 2 13.597656 2 Z M 50.402344 2 "/>
</g>
</svg>
