<svg xmlns="http://www.w3.org/2000/svg" xmlns:xlink="http://www.w3.org/1999/xlink" width="64" height="64" viewBox="0 0 64 64" version="1.1">
<defs>
<linearGradient id="linear0" gradientUnits="userSpaceOnUse" x1="0" y1="0" x2="0" y2="1" gradientTransform="matrix(64,0,0,59.996094,0,2)">
<stop offset="0" style="stop-color:#ff6666;stop-opacity:1;"/>
<stop offset="1" style="stop-color:#d90000;stop-opacity:1;"/>
</linearGradient>
</defs>
<g id="surface1">
<path style=" stroke:none;fill-rule:nonzero;fill:url(#linear0);" d="M 12.070312 2 C 7.132812 1.945312 1.242188 7.109375 0.179688 21.78125 C -0.957031 37.433594 3.492188 38.976562 8.320312 38.976562 C 12.339844 38.976562 15.566406 36.964844 19.109375 32.828125 C 19.644531 32.203125 20.242188 31.875 20.476562 32.109375 C 20.710938 32.34375 20.886719 32.523438 20.867188 32.507812 C 20.847656 32.492188 20.589844 33.109375 20.335938 33.898438 C 19.640625 36.070312 18.578125 40.296875 19.648438 43.265625 C 19.929688 44.042969 20.511719 43.933594 20.753906 43.140625 C 21.316406 41.253906 22.40625 38.003906 23.59375 36.367188 C 24.074219 35.699219 24.636719 36.078125 24.609375 36.90625 C 24.457031 41.945312 26.078125 51.121094 33.492188 56.953125 C 41.242188 63.054688 52.539062 62.894531 58.664062 60.289062 C 59.410156 59.96875 60.585938 59.988281 61.382812 60.132812 C 61.875 60.222656 62.5 60.277344 63.28125 60.234375 C 65.546875 60.105469 61.761719 58.179688 61.507812 57.148438 C 61.257812 56.117188 63.28125 55.914062 63.6875 52.632812 C 64.101562 49.34375 61.515625 52.507812 61.515625 52.507812 C 61.515625 52.507812 59.617188 54.734375 52.046875 54.246094 C 45.070312 53.808594 36.761719 50.210938 37.039062 37.570312 C 37.058594 36.738281 37.316406 36 37.5625 35.898438 C 37.808594 35.800781 38.496094 36.171875 38.921875 36.875 C 39.976562 38.613281 40.914062 41.433594 41.429688 43.140625 C 41.667969 43.933594 42.246094 44.046875 42.53125 43.273438 C 43.460938 40.691406 42.78125 37.15625 42.125 34.851562 C 41.902344 34.054688 42.140625 33.050781 42.664062 32.554688 C 43.1875 32.054688 43.992188 32.140625 44.523438 32.765625 C 48.085938 36.941406 51.328125 38.984375 55.367188 38.984375 C 60.191406 38.984375 64.644531 37.441406 63.507812 21.789062 C 62.371094 6.136719 55.738281 1.304688 50.632812 2.078125 C 47.339844 2.574219 45.058594 4.273438 43.859375 5.421875 C 43.265625 5.988281 42.859375 6.566406 42.859375 6.632812 C 42.859375 6.695312 42.386719 6.277344 41.757812 5.753906 C 39.003906 3.453125 35.546875 2.078125 31.789062 2.078125 C 28.078125 2.078125 24.660156 3.414062 21.921875 5.65625 C 21.289062 6.175781 20.824219 6.617188 20.820312 6.585938 C 20.820312 6.550781 20.410156 5.996094 19.820312 5.429688 C 18.617188 4.285156 16.339844 2.574219 13.046875 2.078125 C 12.726562 2.027344 12.398438 2.003906 12.070312 2 Z M 26 14 C 27.105469 14 28 14.894531 28 16 C 28 17.105469 27.105469 18 26 18 C 24.894531 18 24 17.105469 24 16 C 24 14.894531 24.894531 14 26 14 Z M 38 14 C 39.105469 14 40 14.894531 40 16 C 40 17.105469 39.105469 18 38 18 C 36.894531 18 36 17.105469 36 16 C 36 14.894531 36.894531 14 38 14 Z M 38 14 "/>
</g>
</svg>
