<svg xmlns="http://www.w3.org/2000/svg" xmlns:xlink="http://www.w3.org/1999/xlink" width="64" height="64" viewBox="0 0 64 64" version="1.1">
<defs>
<linearGradient id="linear0" gradientUnits="userSpaceOnUse" x1="0" y1="0" x2="0" y2="1" gradientTransform="matrix(43.519531,0,0,64,10.800781,0)">
<stop offset="0" style="stop-color:#ff6666;stop-opacity:1;"/>
<stop offset="1" style="stop-color:#d90000;stop-opacity:1;"/>
</linearGradient>
</defs>
<g id="surface1">
<path style=" stroke:none;fill-rule:nonzero;fill:url(#linear0);" d="M 26.914062 0 C 24.484375 -0.00390625 22.117188 0.191406 19.960938 0.597656 C 17.160156 1.519531 14.824219 2.730469 13.214844 5.679688 C 11.492188 8.476562 10.878906 12.277344 10.828125 15.035156 C 10.785156 17.1875 10.40625 22.398438 14.488281 27.976562 C 15.984375 29.769531 18.191406 31.671875 20.832031 32.753906 C 26.984375 34.652344 28.894531 30.449219 32.011719 24.242188 C 31.265625 27.546875 30.90625 30.949219 28.339844 33.785156 C 30.421875 37.078125 33.839844 38.753906 37.070312 41.65625 C 37.714844 42.238281 38.730469 42.570312 37.792969 44.0625 C 36.421875 46.371094 34.984375 47.851562 33.519531 49.683594 C 32.5625 50.992188 31.941406 51.882812 31.625 52.914062 C 31.332031 55.203125 31.535156 57.21875 32.734375 59.410156 C 33.292969 60.59375 33.976562 61.710938 34.914062 62.800781 C 35.894531 64.003906 36.535156 64.300781 38.160156 63.699219 C 39.523438 63.207031 40.765625 62.609375 41.84375 61.496094 C 42.324219 60.6875 42.441406 58.921875 41.0625 58.183594 C 40.558594 57.855469 40.023438 57.519531 39.683594 57.144531 C 39.089844 56.484375 38.492188 55.84375 38.414062 54.828125 C 38.363281 54.148438 39.320312 53.007812 39.320312 53.007812 C 42.90625 49.6875 46.882812 46.441406 48.722656 44.351562 C 52.773438 39.652344 54.746094 31.863281 54.242188 24.355469 C 54.34375 18.699219 51.976562 12.445312 48.046875 7.59375 C 45.609375 4.8125 42.902344 2.746094 38.996094 1.753906 C 35.214844 0.59375 30.972656 0.0117188 26.914062 0 Z M 44.078125 20.480469 C 44.761719 20.480469 45.40625 20.746094 45.886719 21.226562 C 46.367188 21.707031 46.640625 22.359375 46.640625 23.039062 C 46.640625 23.71875 46.367188 24.371094 45.886719 24.851562 C 45.40625 25.332031 44.761719 25.601562 44.078125 25.601562 C 43.398438 25.601562 42.746094 25.332031 42.269531 24.851562 C 41.789062 24.371094 41.519531 23.71875 41.519531 23.039062 C 41.519531 22.359375 41.789062 21.707031 42.269531 21.226562 C 42.746094 20.746094 43.398438 20.480469 44.078125 20.480469 Z M 41.886719 33.28125 C 42.214844 33.257812 42.5 33.519531 43.070312 34.019531 L 51.144531 40.699219 C 50.042969 40.667969 48.597656 41.070312 46.992188 40.929688 C 43.507812 40.625 39.34375 39.648438 39.003906 38.390625 C 38.816406 36.644531 39.183594 35.28125 40.890625 33.894531 C 41.351562 33.496094 41.632812 33.300781 41.886719 33.28125 Z M 41.886719 33.28125 "/>
</g>
</svg>
