<svg xmlns="http://www.w3.org/2000/svg" xmlns:xlink="http://www.w3.org/1999/xlink" width="64" height="64" viewBox="0 0 64 64" version="1.1">
<defs>
<linearGradient id="linear0" gradientUnits="userSpaceOnUse" x1="0" y1="0" x2="0" y2="1" gradientTransform="matrix(64,0,0,50.289063,0,6.855469)">
<stop offset="0" style="stop-color:#ff6666;stop-opacity:1;"/>
<stop offset="1" style="stop-color:#d90000;stop-opacity:1;"/>
</linearGradient>
</defs>
<g id="surface1">
<path style=" stroke:none;fill-rule:evenodd;fill:url(#linear0);" d="M 32 6.855469 C 14.273438 6.855469 0 22.570312 0 32 C 0 41.429688 14.273438 57.144531 32 57.144531 C 49.726562 57.144531 64 41.429688 64 32 C 64 22.570312 49.726562 6.855469 32 6.855469 Z M 31.78125 25.511719 C 35.191406 25.511719 37.960938 28.277344 37.960938 31.6875 C 37.960938 35.105469 35.191406 37.867188 31.78125 37.867188 C 28.367188 37.867188 25.601562 35.105469 25.601562 31.6875 C 25.601562 28.277344 28.367188 25.511719 31.78125 25.511719 Z M 30.054688 16.238281 C 29.300781 16.238281 28.6875 17.089844 28.6875 18.140625 L 28.6875 19.730469 C 27.570312 20.023438 26.503906 20.46875 25.511719 21.050781 L 24.378906 19.925781 C 23.640625 19.179688 22.609375 19.011719 22.070312 19.546875 L 19.636719 21.984375 C 19.105469 22.519531 19.269531 23.546875 20.011719 24.292969 L 21.144531 25.425781 C 20.558594 26.414062 20.121094 27.484375 19.832031 28.601562 L 18.226562 28.601562 C 17.175781 28.601562 16.332031 29.207031 16.332031 29.96875 L 16.332031 33.410156 C 16.332031 34.167969 17.175781 34.78125 18.226562 34.78125 L 19.820312 34.78125 C 20.113281 35.894531 20.554688 36.964844 21.144531 37.957031 L 20.011719 39.089844 C 19.269531 39.832031 19.105469 40.859375 19.636719 41.394531 L 22.070312 43.832031 C 22.609375 44.363281 23.636719 44.199219 24.378906 43.457031 L 25.511719 42.324219 C 26.503906 42.90625 27.574219 43.347656 28.691406 43.636719 L 28.691406 45.238281 C 28.691406 46.292969 29.300781 47.136719 30.054688 47.136719 L 33.503906 47.136719 C 34.261719 47.136719 34.867188 46.292969 34.867188 45.238281 L 34.867188 43.644531 C 35.984375 43.355469 37.050781 42.910156 38.042969 42.324219 L 39.175781 43.457031 C 39.921875 44.199219 40.949219 44.363281 41.484375 43.828125 L 43.921875 41.394531 C 44.457031 40.859375 44.289062 39.828125 43.546875 39.089844 L 42.414062 37.957031 C 43 36.964844 43.441406 35.890625 43.726562 34.777344 L 45.328125 34.777344 C 46.378906 34.777344 47.226562 34.167969 47.226562 33.410156 L 47.226562 29.964844 C 47.226562 29.207031 46.378906 28.601562 45.328125 28.601562 L 43.734375 28.601562 C 43.445312 27.484375 43 26.414062 42.414062 25.421875 L 43.546875 24.292969 C 44.289062 23.546875 44.457031 22.519531 43.921875 21.984375 L 41.484375 19.546875 C 40.949219 19.011719 39.921875 19.175781 39.175781 19.921875 L 38.046875 21.050781 C 37.050781 20.46875 35.984375 20.027344 34.867188 19.738281 L 34.867188 18.140625 C 34.867188 17.089844 34.261719 16.238281 33.5 16.238281 Z M 30.054688 16.238281 "/>
</g>
</svg>
