<svg xmlns="http://www.w3.org/2000/svg" xmlns:xlink="http://www.w3.org/1999/xlink" width="64" height="64" viewBox="0 0 64 64" version="1.1">
<defs>
<linearGradient id="linear0" gradientUnits="userSpaceOnUse" x1="0" y1="0" x2="0" y2="1" gradientTransform="matrix(64,0,0,30.9375,0,16.53125)">
<stop offset="0" style="stop-color:#ff6666;stop-opacity:1;"/>
<stop offset="1" style="stop-color:#d90000;stop-opacity:1;"/>
</linearGradient>
</defs>
<g id="surface1">
<path style=" stroke:none;fill-rule:evenodd;fill:url(#linear0);" d="M 16.074219 22.898438 L 4.851562 22.898438 L 0 47.46875 L 5.765625 47.46875 L 6.976562 41.101562 L 12.4375 41.101562 C 17.59375 41.402344 23.355469 37.15625 23.355469 29.875 C 23.355469 25.632812 20.929688 23.203125 16.074219 22.898438 Z M 11.828125 36.550781 L 8.1875 36.550781 L 9.707031 27.453125 L 13.648438 27.453125 C 15.773438 27.453125 17.289062 28.359375 17.289062 30.179688 C 16.984375 35.335938 14.558594 36.246094 11.828125 36.550781 Z M 21.535156 41.101562 L 26.386719 16.53125 L 32.152344 16.53125 L 30.9375 22.898438 L 36.394531 22.898438 C 41.253906 23.203125 43.070312 25.632812 42.464844 28.664062 L 40.339844 41.101562 L 34.273438 41.101562 L 36.394531 29.875 C 36.699219 28.359375 36.699219 27.453125 34.574219 27.453125 L 30.027344 27.453125 L 27.296875 41.101562 Z M 56.71875 22.898438 L 45.496094 22.898438 L 40.644531 47.46875 L 46.40625 47.46875 L 47.621094 41.101562 L 53.078125 41.101562 C 58.234375 41.402344 64 37.15625 64 29.875 C 64 25.632812 61.570312 23.203125 56.71875 22.898438 Z M 52.472656 36.550781 L 48.832031 36.550781 L 50.351562 27.453125 L 54.292969 27.453125 C 56.414062 27.453125 57.933594 28.359375 57.933594 30.179688 C 57.632812 35.335938 55.203125 36.246094 52.472656 36.550781 Z M 52.472656 36.550781 "/>
</g>
</svg>
