<svg xmlns="http://www.w3.org/2000/svg" xmlns:xlink="http://www.w3.org/1999/xlink" width="64" height="64" viewBox="0 0 64 64" version="1.1">
<defs>
<linearGradient id="linear0" gradientUnits="userSpaceOnUse" x1="0" y1="0" x2="0" y2="1" gradientTransform="matrix(64,0,0,64,0,0)">
<stop offset="0" style="stop-color:#ff6666;stop-opacity:1;"/>
<stop offset="1" style="stop-color:#d90000;stop-opacity:1;"/>
</linearGradient>
</defs>
<g id="surface1">
<path style=" stroke:none;fill-rule:nonzero;fill:url(#linear0);" d="M 24.640625 0 L 24.640625 4.941406 C 34.972656 4.941406 33.246094 1.488281 39.398438 0 C 30.296875 0 31.527344 3.210938 24.640625 0 Z M 36.941406 4.941406 L 18.027344 10.65625 C 25.40625 18.066406 22.949219 32.867188 22.949219 33.121094 L 44.320312 30.878906 C 44.320312 30.878906 48.988281 13.839844 36.941406 4.941406 Z M 44.320312 7.410156 C 44.320312 7.410156 50.71875 16.539062 50.46875 28.644531 C 56.367188 28.390625 64 27.175781 64 27.175781 C 64 27.175781 52.4375 13.335938 44.320312 7.410156 Z M 2.5 27.175781 C 0.777344 27.175781 -0.210938 28.625 0.0390625 30.113281 L 1.5 37.828125 C 1.746094 38.8125 2.746094 39.527344 3.726562 39.527344 C 4.960938 39.527344 5.933594 40.300781 6.421875 41.535156 C 6.421875 41.535156 7.820312 46.4375 9.878906 49.871094 C 7.667969 51.601562 4.46875 52.113281 2.5 52.113281 C 1.519531 52.113281 0.777344 52.132812 0.0390625 51.878906 L 0.0390625 56.359375 C 0.777344 56.359375 1.519531 56.589844 2.5 56.589844 C 6.679688 56.589844 8.394531 55.585938 9.878906 54.351562 C 12.089844 56.078125 15.292969 56.589844 17.261719 56.589844 C 19.226562 56.589844 22.429688 56.074219 24.640625 54.351562 C 26.847656 56.078125 30.050781 56.589844 32.019531 56.589844 C 33.988281 56.589844 37.191406 56.074219 39.398438 54.351562 C 41.609375 56.078125 44.8125 56.589844 46.78125 56.589844 C 48.746094 56.589844 51.953125 56.074219 54.160156 54.351562 C 56.367188 56.078125 59.570312 56.589844 61.539062 56.589844 C 62.519531 56.589844 63.265625 56.300781 64 56.046875 L 64 51.648438 C 63.265625 51.898438 62.519531 52.113281 61.539062 52.113281 C 59.570312 52.113281 56.367188 51.601562 54.160156 49.871094 C 53.714844 50.21875 53.199219 50.472656 52.699219 50.71875 C 59.992188 45.246094 63.769531 32.117188 63.769531 32.117188 C 64.261719 31.132812 63.539062 29.875 62.308594 29.875 L 53.390625 31.34375 C 50.191406 32.328125 46.761719 32.886719 45.78125 35.355469 C 45.289062 36.34375 44.320312 37.054688 43.089844 37.054688 L 23.175781 37.054688 C 21.207031 37.054688 20.460938 35.792969 19.71875 33.8125 L 18.71875 30.878906 C 17.980469 28.664062 16.007812 27.175781 13.800781 27.175781 Z M 9.878906 57.285156 C 7.667969 59.011719 4.46875 59.523438 2.5 59.523438 C 1.519531 59.523438 0.777344 59.542969 0.0390625 59.292969 L 0.0390625 63.773438 C 0.777344 63.773438 1.519531 64 2.5 64 C 6.679688 64 8.394531 62.996094 9.878906 61.761719 C 12.089844 63.492188 15.292969 64 17.261719 64 C 19.226562 64 22.429688 63.488281 24.640625 61.761719 C 26.847656 63.492188 30.050781 64 32.019531 64 C 33.988281 64 37.191406 63.488281 39.398438 61.761719 C 41.609375 63.492188 44.8125 64 46.78125 64 C 48.746094 64 51.953125 63.488281 54.160156 61.761719 C 56.367188 63.492188 59.570312 64 61.539062 64 C 62.519531 64 63.265625 63.710938 64 63.460938 L 64 59.058594 C 63.265625 59.3125 62.519531 59.523438 61.539062 59.523438 C 59.570312 59.523438 56.367188 59.011719 54.160156 57.285156 C 51.953125 59.011719 48.746094 59.523438 46.78125 59.523438 C 44.8125 59.523438 41.609375 59.011719 39.398438 57.285156 C 37.191406 59.011719 33.988281 59.523438 32.019531 59.523438 C 30.050781 59.523438 26.847656 59.011719 24.640625 57.285156 C 22.429688 59.011719 19.226562 59.523438 17.261719 59.523438 C 15.292969 59.523438 12.089844 59.011719 9.878906 57.285156 Z M 9.878906 57.285156 "/>
</g>
</svg>
