<svg xmlns="http://www.w3.org/2000/svg" xmlns:xlink="http://www.w3.org/1999/xlink" width="64" height="64" viewBox="0 0 64 64" version="1.1">
<defs> <linearGradient id="linear0" gradientUnits="userSpaceOnUse" x1="0" y1="0" x2="0" y2="1" gradientTransform="matrix(55.992188,0,0,56,4.003906,4)"> <stop offset="0" style="stop-color:#ff6666;stop-opacity:1;"/> <stop offset="1" style="stop-color:#d90000;stop-opacity:1;"/> </linearGradient> </defs>
<g id="surface1">
<path style=" stroke:none;fill-rule:evenodd;fill:url(#linear0);fill-opacity:1;" d="M 46.03125 16.890625 L 42.097656 20.292969 C 44.023438 22.351562 46.570312 27.269531 46.617188 28.882812 C 40.789062 28.882812 37.261719 32.613281 37.269531 38.058594 C 37.273438 43.5 41.523438 47.449219 47.347656 47.449219 C 53.175781 47.449219 58.230469 43.058594 58.230469 37.621094 C 58.171875 28.054688 51.976562 20.625 46.03125 16.890625 M 16.761719 16.898438 C 10.9375 16.898438 5.882812 21.285156 5.882812 26.726562 C 5.9375 36.289062 12.132812 43.722656 18.078125 47.453125 L 22.015625 44.0625 C 20.089844 42.003906 17.539062 37.078125 17.496094 35.46875 C 23.328125 35.464844 26.847656 31.730469 26.847656 26.292969 C 26.84375 20.851562 22.589844 16.890625 16.769531 16.898438 M 31.300781 29.152344 C 29.625 29.152344 28.269531 30.503906 28.269531 32.171875 C 28.269531 33.847656 29.625 35.199219 31.300781 35.199219 C 32.976562 35.199219 34.339844 33.847656 34.339844 32.171875 L 34.339844 32.167969 C 34.332031 30.5 32.976562 29.152344 31.300781 29.152344 "/>
</g>
</svg>
