<svg xmlns="http://www.w3.org/2000/svg" xmlns:xlink="http://www.w3.org/1999/xlink" width="64" height="64" viewBox="0 0 64 64" version="1.1">
<defs> <linearGradient id="linear0" gradientUnits="userSpaceOnUse" x1="0" y1="0" x2="0" y2="1" gradientTransform="matrix(55.992188,0,0,56,4.003906,4)"> <stop offset="0" style="stop-color:#ff6666;stop-opacity:1;"/> <stop offset="1" style="stop-color:#d90000;stop-opacity:1;"/> </linearGradient> </defs>
<g id="surface1">
<path style=" stroke:none;fill-rule:nonzero;fill:url(#linear0);fill-opacity:1;" d="M 15.375 26.222656 C 8.179688 26.230469 1.878906 30.878906 -0.0078125 37.570312 C -0.371094 38.378906 -0.585938 39.328125 -0.585938 40.464844 C -0.585938 40.640625 -0.558594 40.804688 -0.554688 40.980469 C -0.570312 41.1875 -0.582031 41.390625 -0.585938 41.601562 C -0.585938 43.527344 -0.207031 45.441406 0.527344 47.234375 C 4.160156 58.429688 16.5625 66.6875 31.347656 66.6875 C 46.207031 66.6875 58.660156 58.335938 62.222656 47.042969 C 62.910156 45.304688 63.269531 43.460938 63.273438 41.601562 C 63.269531 41.363281 63.261719 41.125 63.246094 40.882812 C 63.25 40.742188 63.273438 40.605469 63.273438 40.464844 C 63.273438 39.359375 63.070312 38.4375 62.726562 37.640625 C 60.867188 30.914062 54.539062 26.222656 47.308594 26.222656 C 39.371094 26.230469 32.648438 31.851562 31.523438 39.417969 C 31.503906 39.429688 31.339844 39.492188 31.339844 39.492188 C 31.339844 39.492188 31.179688 39.429688 31.164062 39.417969 C 30.039062 31.851562 23.316406 26.230469 15.375 26.222656 Z M 18.277344 37.785156 C 20.6875 37.785156 22.632812 39.730469 22.632812 42.121094 C 22.632812 44.511719 20.6875 46.457031 18.277344 46.457031 C 15.875 46.457031 13.929688 44.511719 13.929688 42.121094 C 13.929688 39.730469 15.875 37.785156 18.277344 37.785156 Z M 44.40625 37.785156 C 46.808594 37.785156 48.757812 39.730469 48.757812 42.121094 C 48.757812 44.511719 46.808594 46.457031 44.40625 46.457031 C 42 46.457031 40.050781 44.511719 40.050781 42.121094 C 40.050781 39.730469 42 37.785156 44.40625 37.785156 Z M 22.632812 49.347656 L 40.050781 49.347656 L 35.695312 56.578125 L 31.347656 63.796875 L 26.992188 56.578125 Z M 22.632812 49.347656 "/>
</g>
</svg>
