<svg xmlns="http://www.w3.org/2000/svg" xmlns:xlink="http://www.w3.org/1999/xlink" width="64" height="64" viewBox="0 0 64 64" version="1.1">
<defs>
<linearGradient id="linear0" gradientUnits="userSpaceOnUse" x1="0" y1="0" x2="0" y2="1" gradientTransform="matrix(64,0,0,64,0,0)">
<stop offset="0" style="stop-color:#ff6666;stop-opacity:1;"/>
<stop offset="1" style="stop-color:#d90000;stop-opacity:1;"/>
</linearGradient>
</defs>
<g id="surface1">
<path style=" stroke:none;fill-rule:evenodd;fill:url(#linear0);" d="M 19.429688 28.570312 C 13.761719 28.574219 8.796875 32.253906 7.3125 37.542969 C 7.023438 38.183594 6.855469 38.933594 6.855469 39.832031 C 6.855469 39.96875 6.878906 40.105469 6.878906 40.238281 C 6.871094 40.402344 6.859375 40.566406 6.855469 40.730469 C 6.855469 42.257812 7.15625 43.769531 7.730469 45.183594 C 10.597656 54.039062 20.363281 60.570312 32 60.570312 C 43.703125 60.570312 53.511719 53.964844 56.316406 45.03125 C 56.855469 43.660156 57.136719 42.203125 57.144531 40.730469 C 57.140625 40.542969 57.132812 40.355469 57.121094 40.164062 C 57.125 40.050781 57.144531 39.945312 57.144531 39.832031 C 57.144531 38.960938 56.984375 38.230469 56.710938 37.605469 C 55.246094 32.28125 50.269531 28.574219 44.570312 28.570312 C 38.324219 28.578125 33.027344 33.023438 32.140625 39.007812 C 32.128906 39.011719 32 39.0625 32 39.0625 C 32 39.0625 31.871094 39.011719 31.859375 39.007812 C 30.972656 33.023438 25.675781 28.578125 19.429688 28.570312 Z M 0 32 C 0 14.339844 14.339844 0 32 0 C 49.660156 0 64 14.339844 64 32 C 64 49.660156 49.660156 64 32 64 C 14.339844 64 0 49.660156 0 32 Z M 19.429688 42.285156 C 19.429688 40.390625 20.964844 38.855469 22.855469 38.855469 C 24.746094 38.855469 26.285156 40.390625 26.285156 42.285156 C 26.285156 44.175781 24.746094 45.714844 22.855469 45.714844 C 20.964844 45.714844 19.429688 44.175781 19.429688 42.285156 Z M 37.714844 42.285156 C 37.714844 40.390625 39.253906 38.855469 41.144531 38.855469 C 43.035156 38.855469 44.570312 40.390625 44.570312 42.285156 C 44.570312 44.175781 43.035156 45.714844 41.144531 45.714844 C 39.253906 45.714844 37.714844 44.175781 37.714844 42.285156 Z M 25.117188 46.882812 C 29.761719 45.894531 34.335938 45.898438 38.828125 46.882812 C 37.214844 51.117188 34.933594 54.546875 31.972656 57.171875 C 28.738281 54.246094 26.460938 50.824219 25.117188 46.882812 Z M 25.117188 46.882812 "/>
</g>
</svg>
