<svg xmlns="http://www.w3.org/2000/svg" xmlns:xlink="http://www.w3.org/1999/xlink" width="64" height="64" viewBox="0 0 64 64" version="1.1">
<defs> <linearGradient id="linear0" gradientUnits="userSpaceOnUse" x1="0" y1="0" x2="0" y2="1" gradientTransform="matrix(55.992188,0,0,56,4.003906,4)"> <stop offset="0" style="stop-color:#ff6666;stop-opacity:1;"/> <stop offset="1" style="stop-color:#d90000;stop-opacity:1;"/> </linearGradient> </defs>
<g id="surface1">
<path style=" stroke:none;fill-rule:nonzero;fill:url(#linear0);fill-opacity:1;" d="M 27.847656 34.554688 C 27.675781 34.53125 26.429688 35.539062 25.898438 36.425781 C 23.054688 35.539062 20.492188 36.105469 19.4375 37.03125 C 15.980469 40.4375 14.433594 44.242188 11.953125 45.859375 C 8.460938 46.628906 6.058594 43.121094 4.433594 43.917969 C 4.796875 49.511719 14.269531 53.433594 14.269531 53.433594 C 28.050781 57.476562 31.914062 49.867188 31.914062 49.867188 C 33.863281 46.628906 32.648438 43.15625 32.648438 43.15625 C 33.519531 43.039062 35.019531 41.582031 34.753906 41.417969 C 33.429688 38.789062 30.097656 35.328125 27.847656 34.558594 "/>
<path style=" stroke:none;fill-rule:nonzero;fill:url(#linear0);fill-opacity:1;" d="M 28.921875 33.566406 C 28.921875 33.566406 55.4375 8.484375 57.03125 9.765625 C 57.628906 9.433594 59.910156 11.835938 59.621094 12.390625 C 60.867188 14.003906 35.757812 40.328125 35.757812 40.328125 C 33.363281 36.996094 31.777344 35.398438 28.914062 33.570312 "/>
</g>
</svg>
