<svg xmlns="http://www.w3.org/2000/svg" xmlns:xlink="http://www.w3.org/1999/xlink" width="64" height="64" viewBox="0 0 64 64" version="1.1">
<defs> <linearGradient id="linear0" gradientUnits="userSpaceOnUse" x1="0" y1="0" x2="0" y2="1" gradientTransform="matrix(55.992188,0,0,56,4.003906,4)"> <stop offset="0" style="stop-color:#ff6666;stop-opacity:1;"/> <stop offset="1" style="stop-color:#d90000;stop-opacity:1;"/> </linearGradient> </defs>
<g id="surface1">
<path style=" stroke:none;fill-rule:evenodd;fill:url(#linear0);fill-opacity:1;" d="M 16.5 26.382812 L 10.96875 31.445312 L 11.804688 53.511719 L 54.023438 52.335938 L 53 25.363281 L 16.496094 26.382812 M 19.214844 36.539062 L 45.339844 35.808594 L 45.394531 37.34375 L 19.273438 38.070312 Z M 19.421875 42.007812 L 45.542969 41.277344 L 45.605469 42.8125 L 19.484375 43.539062 Z M 19.421875 42.007812 "/>
<path style=" stroke:none;fill-rule:evenodd;fill:url(#linear0);fill-opacity:1;" d="M 10.207031 20.332031 L 10.457031 25.515625 L 10.699219 30.414062 L 16.171875 25.296875 L 16.332031 25.148438 L 10.207031 20.332031 "/>
<path style=" stroke:none;fill-rule:evenodd;fill:url(#linear0);fill-opacity:1;" d="M 10.085938 18.460938 L 10.363281 19.476562 L 17.445312 23.351562 L 17.324219 23.519531 L 52.828125 16.921875 L 51.15625 10.824219 L 10.085938 18.460938 M 18.789062 17.519531 L 23.339844 16.675781 L 26.257812 21.371094 L 21.714844 22.21875 L 18.789062 17.519531 M 29.859375 15.460938 L 34.40625 14.617188 L 37.324219 19.320312 L 32.78125 20.160156 Z M 40.5 13.488281 L 45.050781 12.640625 L 47.96875 17.339844 L 43.425781 18.183594 L 40.5 13.488281 "/>
</g>
</svg>
