<svg xmlns="http://www.w3.org/2000/svg" xmlns:xlink="http://www.w3.org/1999/xlink" width="64" height="64" viewBox="0 0 64 64" version="1.1">
<defs> <linearGradient id="linear0" gradientUnits="userSpaceOnUse" x1="0" y1="0" x2="0" y2="1" gradientTransform="matrix(55.992188,0,0,56,4.003906,4)"> <stop offset="0" style="stop-color:#ff6666;stop-opacity:1;"/> <stop offset="1" style="stop-color:#d90000;stop-opacity:1;"/> </linearGradient> </defs>
<g id="surface1">
<path style=" stroke:none;fill-rule:nonzero;fill:url(#linear0);fill-opacity:1;" d="M 59.265625 53.144531 L 57.644531 54.878906 L 57.214844 54.496094 C 56.976562 54.285156 52.578125 50.257812 47.453125 45.546875 C 39.070312 37.851562 38.132812 36.933594 38.171875 36.449219 C 38.210938 35.984375 37.929688 35.632812 36.191406 34.035156 C 35.070312 33 34.050781 32.203125 33.914062 32.253906 C 33.777344 32.304688 33.019531 32.789062 32.230469 33.332031 C 29.746094 35.046875 26.382812 36.0625 23.257812 36.058594 C 15.742188 36.046875 9.238281 30.871094 7.496094 23.515625 C 7.011719 21.496094 7.058594 18.136719 7.585938 16.082031 C 8.753906 11.53125 11.84375 7.714844 16.03125 5.648438 C 18.609375 4.378906 20.367188 3.96875 23.300781 3.96875 C 26.148438 3.96875 27.910156 4.359375 30.378906 5.554688 C 38.820312 9.625 41.925781 20.019531 37.144531 28.214844 L 36.257812 29.730469 L 37.773438 31.128906 C 40.371094 33.53125 40.539062 33.648438 40.953125 33.394531 C 41.277344 33.191406 42.390625 34.152344 51.113281 42.160156 C 56.5 47.101562 60.898438 51.210938 60.894531 51.277344 C 60.894531 51.351562 60.160156 52.1875 59.265625 53.144531 Z M 35.289062 16.40625 C 34.644531 14.3125 33.792969 12.921875 32.117188 11.238281 C 29.472656 8.566406 26.316406 7.351562 22.550781 7.539062 C 17.386719 7.792969 12.929688 11.191406 11.355469 16.066406 C 8.296875 25.539062 16.738281 34.476562 26.480469 32.070312 C 32.074219 30.691406 36.152344 25.09375 35.78125 19.300781 C 35.726562 18.414062 35.503906 17.113281 35.289062 16.40625 Z M 35.289062 16.40625 "/>
</g>
</svg>
