<svg xmlns="http://www.w3.org/2000/svg" xmlns:xlink="http://www.w3.org/1999/xlink" width="64" height="64" viewBox="0 0 64 64" version="1.1">
<defs> <linearGradient id="linear0" gradientUnits="userSpaceOnUse" x1="0" y1="0" x2="0" y2="1" gradientTransform="matrix(55.992188,0,0,56,4.003906,4)"> <stop offset="0" style="stop-color:#ff6666;stop-opacity:1;"/> <stop offset="1" style="stop-color:#d90000;stop-opacity:1;"/> </linearGradient> </defs>
<g id="surface1">
<path style=" stroke:none;fill-rule:nonzero;fill:url(#linear0);fill-opacity:1;" d="M 22.101562 7.171875 C 21.828125 7.199219 21.578125 7.335938 21.40625 7.550781 L 8.199219 24.0625 C 8.011719 24.308594 7.9375 24.625 8.011719 24.921875 L 12.726562 45.53125 C 12.789062 45.832031 12.992188 46.085938 13.265625 46.222656 L 32.355469 55.386719 C 32.636719 55.523438 32.957031 55.523438 33.238281 55.386719 L 52.328125 46.222656 C 52.609375 46.085938 52.808594 45.832031 52.875 45.53125 L 57.582031 24.921875 C 57.65625 24.625 57.582031 24.308594 57.394531 24.0625 L 44.1875 7.550781 C 43.992188 7.304688 43.699219 7.171875 43.390625 7.171875 Z M 22.6875 9.179688 L 42.902344 9.179688 L 55.511719 24.945312 L 51.007812 44.613281 L 32.789062 53.363281 L 14.574219 44.613281 L 10.074219 24.945312 Z M 22.6875 9.179688 "/>
<path style=" stroke:none;fill-rule:nonzero;fill:url(#linear0);fill-opacity:1;" d="M 26.597656 17.238281 C 26.40625 17.261719 26.234375 17.351562 26.117188 17.503906 L 18.464844 27.0625 C 18.328125 27.230469 18.277344 27.449219 18.324219 27.660156 L 21.054688 39.574219 C 21.101562 39.785156 21.25 39.960938 21.441406 40.050781 L 32.492188 45.355469 C 32.6875 45.445312 32.917969 45.445312 33.113281 45.355469 L 44.164062 40.050781 C 44.363281 39.960938 44.503906 39.785156 44.550781 39.574219 L 47.28125 27.660156 C 47.328125 27.449219 47.277344 27.230469 47.140625 27.0625 L 39.488281 17.503906 C 39.355469 17.332031 39.15625 17.238281 38.9375 17.238281 Z M 27.007812 18.644531 L 38.597656 18.644531 L 45.820312 27.671875 L 43.242188 38.925781 L 32.800781 43.941406 L 22.363281 38.925781 L 19.777344 27.671875 "/>
<path style=" stroke:none;fill-rule:evenodd;fill:url(#linear0);fill-opacity:1;" d="M 23.332031 8.894531 L 22.050781 9.472656 L 26.359375 18.933594 L 27.648438 18.351562 Z M 23.332031 8.894531 "/>
<path style=" stroke:none;fill-rule:evenodd;fill:url(#linear0);fill-opacity:1;" d="M 10.269531 24.265625 L 9.890625 25.625 L 19.589844 28.351562 L 19.972656 26.992188 Z M 10.269531 24.265625 "/>
<path style=" stroke:none;fill-rule:evenodd;fill:url(#linear0);fill-opacity:1;" d="M 21.941406 38.359375 L 14.160156 44.050781 L 15.003906 45.1875 L 22.78125 39.496094 Z M 21.941406 38.359375 "/>
<path style=" stroke:none;fill-rule:evenodd;fill:url(#linear0);fill-opacity:1;" d="M 32.097656 43.9375 L 32.097656 53.359375 L 33.511719 53.359375 L 33.511719 43.9375 Z M 32.097656 43.9375 "/>
<path style=" stroke:none;fill-rule:evenodd;fill:url(#linear0);fill-opacity:1;" d="M 43.660156 38.359375 L 42.824219 39.496094 L 50.59375 45.1875 L 51.433594 44.050781 Z M 43.660156 38.359375 "/>
<path style=" stroke:none;fill-rule:evenodd;fill:url(#linear0);fill-opacity:1;" d="M 42.265625 8.894531 L 37.949219 18.351562 L 39.246094 18.933594 L 43.554688 9.472656 Z M 42.265625 8.894531 "/>
<path style=" stroke:none;fill-rule:evenodd;fill:url(#linear0);fill-opacity:1;" d="M 55.324219 24.265625 L 45.632812 26.992188 L 46.015625 28.351562 L 55.703125 25.625 Z M 55.324219 24.265625 "/>
</g>
</svg>
