<svg xmlns="http://www.w3.org/2000/svg" xmlns:xlink="http://www.w3.org/1999/xlink" width="64" height="64" viewBox="0 0 64 64" version="1.1">
<defs> <linearGradient id="linear0" gradientUnits="userSpaceOnUse" x1="0" y1="0" x2="0" y2="1" gradientTransform="matrix(55.992188,0,0,56,4.003906,4)"> <stop offset="0" style="stop-color:#ff6666;stop-opacity:1;"/> <stop offset="1" style="stop-color:#d90000;stop-opacity:1;"/> </linearGradient> </defs>
<g id="surface1">
<path style=" stroke:none;fill-rule:nonzero;fill:url(#linear0);fill-opacity:1;" d="M 85.191406 55.191406 C 86.449219 59.851562 86.703125 79.136719 68.960938 88.703125 C 55.734375 95.839844 16.675781 101.695312 -10.152344 72.203125 C -37.925781 41.59375 -19.539062 5.984375 1.15625 -11.890625 C 11.933594 -21.195312 24.429688 -24.953125 28.992188 -22.25 C 33.828125 -19.394531 33.960938 -13.632812 30.105469 -10.917969 C 20.851562 -4.410156 12.59375 14.070312 21.742188 26.882812 C 32.542969 42.023438 50.921875 35.761719 60.4375 34.589844 C 68.300781 33.628906 80.617188 38.347656 85.140625 55.203125 "/>
<path style=" stroke:none;fill-rule:nonzero;fill:url(#linear0);fill-opacity:1;" d="M 33.53125 -2.007812 C 33.390625 -2.007812 33.25 -1.992188 33.113281 -1.972656 C 33.082031 -1.96875 33.054688 -1.96875 33.03125 -1.960938 C 32.953125 -1.953125 32.878906 -1.933594 32.800781 -1.917969 C 32.78125 -1.910156 32.765625 -1.90625 32.742188 -1.898438 C 32.726562 -1.894531 32.710938 -1.890625 32.699219 -1.890625 C 32.664062 -1.878906 32.628906 -1.867188 32.59375 -1.855469 C 32.59375 -1.855469 32.589844 -1.855469 32.585938 -1.855469 C 32.539062 -1.839844 32.488281 -1.820312 32.4375 -1.804688 C 32.4375 -1.796875 32.4375 -1.796875 32.429688 -1.796875 C 32.398438 -1.789062 32.367188 -1.777344 32.335938 -1.757812 C 32.3125 -1.746094 32.28125 -1.738281 32.261719 -1.726562 C 32.242188 -1.71875 32.226562 -1.714844 32.210938 -1.703125 C 32.1875 -1.691406 32.160156 -1.679688 32.128906 -1.667969 C 32.101562 -1.652344 32.066406 -1.632812 32.039062 -1.617188 C 32.023438 -1.613281 32.011719 -1.605469 32 -1.601562 C 31.964844 -1.578125 31.929688 -1.5625 31.902344 -1.539062 C 31.890625 -1.53125 31.878906 -1.527344 31.867188 -1.519531 C 31.863281 -1.515625 31.855469 -1.511719 31.851562 -1.511719 C 31.8125 -1.488281 31.777344 -1.460938 31.742188 -1.4375 C 31.726562 -1.425781 31.714844 -1.414062 31.699219 -1.402344 C 31.628906 -1.351562 31.566406 -1.300781 31.5 -1.25 C 31.492188 -1.246094 31.492188 -1.238281 31.488281 -1.238281 C 31.453125 -1.203125 31.421875 -1.175781 31.386719 -1.148438 C 31.367188 -1.125 31.347656 -1.109375 31.324219 -1.085938 C 31.3125 -1.070312 31.296875 -1.058594 31.277344 -1.039062 C 31.273438 -1.035156 31.273438 -1.03125 31.265625 -1.023438 C 31.238281 -0.996094 31.203125 -0.960938 31.175781 -0.925781 C 31.175781 -0.921875 31.171875 -0.917969 31.164062 -0.910156 C 31.136719 -0.882812 31.109375 -0.84375 31.078125 -0.808594 C 31.027344 -0.742188 30.976562 -0.671875 30.929688 -0.601562 C 30.914062 -0.582031 30.902344 -0.566406 30.890625 -0.546875 C 30.886719 -0.539062 30.878906 -0.527344 30.875 -0.515625 C 30.851562 -0.480469 30.835938 -0.453125 30.816406 -0.417969 C 30.8125 -0.417969 30.8125 -0.414062 30.8125 -0.414062 C 30.789062 -0.375 30.773438 -0.339844 30.753906 -0.304688 C 30.734375 -0.265625 30.714844 -0.226562 30.691406 -0.1875 C 30.691406 -0.175781 30.6875 -0.167969 30.683594 -0.160156 C 30.671875 -0.136719 30.660156 -0.109375 30.648438 -0.0859375 C 30.636719 -0.0507812 30.625 -0.015625 30.613281 0.0117188 C 30.613281 0.015625 30.609375 0.015625 30.609375 0.0234375 C 30.589844 0.0664062 30.574219 0.117188 30.558594 0.164062 C 30.558594 0.175781 30.550781 0.179688 30.550781 0.191406 C 30.539062 0.214844 30.535156 0.238281 30.527344 0.265625 C 30.523438 0.28125 30.515625 0.300781 30.511719 0.320312 C 30.503906 0.339844 30.5 0.363281 30.496094 0.382812 C 30.496094 0.390625 30.488281 0.394531 30.488281 0.402344 C 30.484375 0.429688 30.476562 0.453125 30.472656 0.480469 C 30.464844 0.515625 30.453125 0.558594 30.449219 0.59375 C 30.4375 0.660156 30.433594 0.730469 30.421875 0.792969 C 30.414062 0.84375 30.410156 0.886719 30.410156 0.933594 C 30.410156 0.949219 30.410156 0.960938 30.410156 0.972656 C 30.410156 0.996094 30.402344 1.023438 30.402344 1.046875 C 30.402344 1.074219 30.402344 1.109375 30.402344 1.136719 C 30.402344 1.164062 30.402344 1.191406 30.402344 1.226562 C 30.402344 1.25 30.410156 1.273438 30.410156 1.300781 C 30.410156 1.304688 30.410156 1.316406 30.410156 1.328125 C 30.414062 1.40625 30.421875 1.488281 30.433594 1.566406 C 30.4375 1.601562 30.441406 1.632812 30.449219 1.667969 C 30.460938 1.742188 30.476562 1.816406 30.496094 1.890625 C 30.5 1.90625 30.503906 1.929688 30.511719 1.949219 C 30.515625 1.96875 30.523438 1.984375 30.527344 2.007812 C 30.527344 2.007812 30.527344 2.011719 30.527344 2.011719 C 30.539062 2.042969 30.546875 2.074219 30.558594 2.105469 C 30.574219 2.148438 30.589844 2.195312 30.609375 2.238281 C 30.613281 2.257812 30.621094 2.277344 30.628906 2.300781 C 31.035156 3.511719 32.179688 4.382812 33.53125 4.382812 C 34.578125 4.382812 35.496094 3.863281 36.046875 3.070312 C 36.058594 3.058594 36.066406 3.046875 36.078125 3.035156 C 36.121094 2.96875 36.171875 2.902344 36.21875 2.832031 C 36.234375 2.804688 36.257812 2.769531 36.277344 2.738281 C 36.285156 2.71875 36.296875 2.707031 36.304688 2.691406 C 36.34375 2.617188 36.382812 2.550781 36.417969 2.472656 C 36.421875 2.460938 36.433594 2.441406 36.441406 2.425781 C 36.453125 2.398438 36.464844 2.371094 36.472656 2.339844 C 36.484375 2.3125 36.496094 2.285156 36.507812 2.257812 C 36.570312 2.09375 36.617188 1.921875 36.648438 1.753906 C 36.65625 1.742188 36.660156 1.730469 36.660156 1.71875 C 36.671875 1.667969 36.679688 1.617188 36.683594 1.566406 C 36.691406 1.550781 36.691406 1.53125 36.691406 1.515625 C 36.695312 1.488281 36.703125 1.453125 36.703125 1.417969 L 36.703125 1.414062 C 36.707031 1.367188 36.710938 1.324219 36.710938 1.285156 C 36.71875 1.261719 36.710938 1.242188 36.710938 1.226562 C 36.71875 1.191406 36.71875 1.164062 36.71875 1.136719 C 36.71875 1.109375 36.710938 1.074219 36.710938 1.046875 C 36.710938 0.984375 36.707031 0.921875 36.703125 0.859375 C 36.703125 0.820312 36.695312 0.785156 36.691406 0.753906 C 36.691406 0.710938 36.679688 0.679688 36.671875 0.644531 C 36.671875 0.640625 36.671875 0.640625 36.671875 0.632812 C 36.671875 0.609375 36.667969 0.582031 36.660156 0.554688 C 36.628906 0.367188 36.578125 0.1875 36.507812 0.0117188 C 36.496094 -0.015625 36.484375 -0.0507812 36.46875 -0.0859375 C 36.457031 -0.109375 36.445312 -0.136719 36.433594 -0.160156 C 36.433594 -0.167969 36.429688 -0.175781 36.421875 -0.1875 C 36.390625 -0.265625 36.347656 -0.34375 36.304688 -0.417969 C 36.285156 -0.453125 36.269531 -0.480469 36.246094 -0.515625 C 36.242188 -0.527344 36.234375 -0.539062 36.230469 -0.546875 C 36.21875 -0.566406 36.203125 -0.582031 36.191406 -0.601562 C 36.171875 -0.632812 36.152344 -0.660156 36.128906 -0.691406 C 36.097656 -0.730469 36.070312 -0.769531 36.035156 -0.808594 C 36.015625 -0.84375 35.984375 -0.875 35.957031 -0.910156 C 35.933594 -0.933594 35.910156 -0.957031 35.890625 -0.984375 C 35.871094 -1 35.855469 -1.023438 35.839844 -1.039062 C 35.808594 -1.070312 35.777344 -1.101562 35.742188 -1.136719 C 35.742188 -1.136719 35.734375 -1.140625 35.730469 -1.148438 C 35.71875 -1.160156 35.707031 -1.171875 35.695312 -1.183594 C 35.667969 -1.203125 35.640625 -1.226562 35.609375 -1.253906 C 35.582031 -1.277344 35.546875 -1.304688 35.515625 -1.328125 C 35.46875 -1.367188 35.421875 -1.402344 35.378906 -1.4375 C 35.339844 -1.460938 35.304688 -1.488281 35.265625 -1.511719 C 35.257812 -1.511719 35.253906 -1.515625 35.246094 -1.519531 C 35.226562 -1.539062 35.203125 -1.550781 35.179688 -1.566406 C 35.164062 -1.578125 35.140625 -1.589844 35.121094 -1.601562 C 35.109375 -1.605469 35.09375 -1.613281 35.082031 -1.617188 C 35.054688 -1.632812 35.019531 -1.652344 34.988281 -1.667969 C 34.964844 -1.679688 34.933594 -1.691406 34.90625 -1.703125 C 34.894531 -1.714844 34.878906 -1.71875 34.863281 -1.726562 C 34.832031 -1.742188 34.800781 -1.753906 34.769531 -1.765625 C 34.742188 -1.777344 34.714844 -1.789062 34.683594 -1.796875 C 34.632812 -1.820312 34.589844 -1.839844 34.539062 -1.855469 C 34.539062 -1.855469 34.539062 -1.855469 34.53125 -1.855469 C 34.53125 -1.855469 34.527344 -1.855469 34.519531 -1.855469 C 34.476562 -1.871094 34.425781 -1.890625 34.378906 -1.898438 C 34.320312 -1.917969 34.269531 -1.929688 34.21875 -1.941406 C 34.144531 -1.953125 34.066406 -1.96875 33.992188 -1.980469 C 33.964844 -1.980469 33.9375 -1.984375 33.902344 -1.992188 C 33.851562 -1.996094 33.800781 -1.996094 33.742188 -2.003906 C 33.726562 -2.003906 33.707031 -2.003906 33.6875 -2.007812 C 33.636719 -2.007812 33.582031 -2.007812 33.53125 -2.007812 "/>
<path style=" stroke:none;fill-rule:nonzero;fill:url(#linear0);fill-opacity:1;" d="M 47.445312 4.53125 C 47.382812 4.53125 47.320312 4.535156 47.257812 4.542969 C 47.234375 4.546875 47.214844 4.546875 47.191406 4.550781 C 47.171875 4.550781 47.15625 4.550781 47.140625 4.558594 C 47.117188 4.558594 47.09375 4.5625 47.070312 4.570312 C 46.921875 4.59375 46.777344 4.625 46.632812 4.664062 C 46.605469 4.675781 46.570312 4.6875 46.542969 4.699219 C 46.453125 4.734375 46.371094 4.761719 46.289062 4.800781 C 46.269531 4.808594 46.246094 4.816406 46.230469 4.824219 C 46.195312 4.839844 46.164062 4.859375 46.128906 4.875 C 46.101562 4.890625 46.070312 4.910156 46.050781 4.921875 C 46.039062 4.925781 46.027344 4.929688 46.019531 4.9375 C 46.003906 4.941406 45.980469 4.953125 45.964844 4.964844 C 45.941406 4.980469 45.914062 5 45.882812 5.015625 C 45.878906 5.015625 45.871094 5.023438 45.863281 5.027344 C 45.78125 5.078125 45.707031 5.136719 45.632812 5.191406 C 45.605469 5.207031 45.582031 5.230469 45.5625 5.246094 C 45.550781 5.257812 45.53125 5.269531 45.515625 5.289062 C 45.507812 5.289062 45.503906 5.292969 45.5 5.300781 C 45.46875 5.328125 45.429688 5.359375 45.402344 5.390625 C 45.394531 5.394531 45.390625 5.394531 45.390625 5.402344 C 45.355469 5.433594 45.320312 5.464844 45.292969 5.496094 C 45.289062 5.503906 45.28125 5.503906 45.28125 5.507812 C 45.25 5.542969 45.21875 5.574219 45.191406 5.609375 C 45.175781 5.625 45.15625 5.648438 45.140625 5.671875 C 45.125 5.6875 45.105469 5.707031 45.089844 5.722656 C 45.089844 5.730469 45.082031 5.734375 45.082031 5.738281 C 45.054688 5.773438 45.027344 5.8125 45.003906 5.847656 C 44.949219 5.921875 44.902344 5.996094 44.855469 6.074219 C 44.84375 6.089844 44.832031 6.101562 44.824219 6.117188 C 44.816406 6.128906 44.816406 6.140625 44.8125 6.152344 C 44.792969 6.179688 44.777344 6.203125 44.765625 6.230469 C 44.738281 6.289062 44.707031 6.34375 44.6875 6.40625 C 44.667969 6.441406 44.652344 6.46875 44.640625 6.503906 C 44.625 6.546875 44.605469 6.601562 44.589844 6.644531 C 44.589844 6.644531 44.589844 6.644531 44.589844 6.652344 C 44.578125 6.679688 44.566406 6.707031 44.554688 6.742188 C 44.5 6.917969 44.457031 7.101562 44.4375 7.289062 C 44.4375 7.3125 44.429688 7.335938 44.429688 7.359375 C 44.429688 7.367188 44.429688 7.378906 44.425781 7.390625 C 44.425781 7.417969 44.425781 7.453125 44.417969 7.488281 C 44.417969 7.554688 44.414062 7.628906 44.414062 7.695312 C 44.417969 7.792969 44.417969 7.890625 44.429688 7.980469 C 44.429688 8.007812 44.4375 8.03125 44.4375 8.054688 C 44.441406 8.070312 44.441406 8.085938 44.441406 8.105469 C 44.449219 8.125 44.453125 8.148438 44.453125 8.171875 C 44.480469 8.320312 44.511719 8.460938 44.554688 8.601562 C 44.566406 8.628906 44.578125 8.664062 44.589844 8.691406 C 44.589844 8.691406 44.589844 8.699219 44.589844 8.699219 C 44.605469 8.742188 44.625 8.78125 44.640625 8.828125 C 44.640625 8.828125 44.640625 8.832031 44.640625 8.832031 C 45.050781 10.042969 46.195312 10.914062 47.546875 10.914062 C 48.605469 10.914062 49.535156 10.382812 50.085938 9.570312 L 50.097656 9.550781 C 50.113281 9.527344 50.132812 9.511719 50.148438 9.488281 C 50.195312 9.417969 50.246094 9.34375 50.285156 9.269531 C 50.296875 9.253906 50.308594 9.234375 50.320312 9.21875 C 50.324219 9.210938 50.324219 9.199219 50.332031 9.191406 C 50.347656 9.160156 50.363281 9.132812 50.375 9.105469 C 50.394531 9.070312 50.410156 9.042969 50.425781 9.007812 C 50.4375 8.984375 50.445312 8.96875 50.457031 8.945312 C 50.472656 8.914062 50.484375 8.875 50.5 8.832031 C 50.519531 8.789062 50.542969 8.738281 50.558594 8.691406 C 50.613281 8.523438 50.660156 8.347656 50.6875 8.171875 C 50.695312 8.132812 50.699219 8.09375 50.707031 8.054688 C 50.707031 8.03125 50.710938 8.007812 50.710938 7.980469 C 50.71875 7.941406 50.71875 7.902344 50.722656 7.855469 C 50.730469 7.789062 50.730469 7.714844 50.730469 7.640625 C 50.730469 7.589844 50.722656 7.539062 50.722656 7.488281 C 50.71875 7.441406 50.71875 7.402344 50.710938 7.359375 C 50.710938 7.335938 50.707031 7.3125 50.707031 7.289062 C 50.699219 7.25 50.695312 7.210938 50.6875 7.171875 C 50.660156 6.996094 50.613281 6.820312 50.558594 6.652344 C 50.542969 6.601562 50.519531 6.554688 50.5 6.503906 C 50.484375 6.457031 50.460938 6.414062 50.445312 6.367188 C 50.410156 6.292969 50.371094 6.222656 50.332031 6.152344 C 50.324219 6.140625 50.324219 6.128906 50.320312 6.125 C 50.308594 6.101562 50.296875 6.089844 50.285156 6.074219 C 50.269531 6.039062 50.246094 6.007812 50.222656 5.972656 C 50.199219 5.925781 50.171875 5.886719 50.144531 5.847656 C 50.125 5.824219 50.109375 5.808594 50.097656 5.785156 C 50.0625 5.746094 50.035156 5.707031 50 5.671875 C 49.957031 5.609375 49.90625 5.554688 49.847656 5.496094 C 49.761719 5.40625 49.679688 5.328125 49.582031 5.246094 C 49.542969 5.21875 49.5 5.1875 49.46875 5.15625 C 49.445312 5.140625 49.421875 5.125 49.40625 5.113281 C 49.359375 5.085938 49.320312 5.054688 49.28125 5.027344 C 49.246094 5.003906 49.210938 4.988281 49.179688 4.964844 C 49.160156 4.953125 49.144531 4.941406 49.121094 4.9375 C 49.117188 4.929688 49.105469 4.925781 49.097656 4.921875 C 49.070312 4.910156 49.042969 4.890625 49.019531 4.875 C 48.984375 4.859375 48.945312 4.839844 48.910156 4.824219 C 48.894531 4.816406 48.871094 4.808594 48.855469 4.800781 C 48.816406 4.785156 48.78125 4.765625 48.742188 4.75 C 48.695312 4.734375 48.648438 4.714844 48.597656 4.699219 C 48.429688 4.644531 48.253906 4.597656 48.070312 4.570312 C 48.03125 4.558594 47.992188 4.550781 47.957031 4.550781 C 47.929688 4.546875 47.90625 4.546875 47.882812 4.542969 C 47.84375 4.535156 47.796875 4.535156 47.757812 4.535156 C 47.707031 4.53125 47.652344 4.53125 47.597656 4.53125 C 47.546875 4.53125 47.496094 4.523438 47.445312 4.53125 "/>
<path style=" stroke:none;fill-rule:nonzero;fill:url(#linear0);fill-opacity:1;" d="M 60.324219 9.964844 C 60.296875 9.964844 60.261719 9.964844 60.230469 9.964844 C 60.207031 9.96875 60.191406 9.96875 60.167969 9.96875 C 60.160156 9.96875 60.148438 9.96875 60.144531 9.96875 C 60.109375 9.976562 60.074219 9.976562 60.042969 9.976562 C 60.019531 9.980469 59.996094 9.980469 59.972656 9.988281 C 59.957031 9.988281 59.941406 9.988281 59.921875 9.992188 C 59.898438 9.992188 59.878906 10 59.855469 10.003906 C 59.757812 10.019531 59.667969 10.039062 59.578125 10.0625 C 59.566406 10.066406 59.554688 10.066406 59.535156 10.070312 C 59.53125 10.070312 59.523438 10.070312 59.519531 10.078125 C 59.484375 10.082031 59.453125 10.09375 59.417969 10.105469 C 59.292969 10.144531 59.171875 10.191406 59.054688 10.246094 C 59.054688 10.246094 59.046875 10.246094 59.046875 10.246094 C 59.015625 10.265625 58.972656 10.28125 58.941406 10.296875 C 58.878906 10.332031 58.808594 10.367188 58.746094 10.398438 C 58.722656 10.417969 58.695312 10.433594 58.667969 10.449219 C 58.660156 10.457031 58.65625 10.457031 58.652344 10.460938 C 58.566406 10.511719 58.492188 10.570312 58.417969 10.625 C 58.355469 10.675781 58.292969 10.726562 58.234375 10.777344 C 58.21875 10.796875 58.203125 10.8125 58.183594 10.824219 C 58.179688 10.828125 58.171875 10.835938 58.171875 10.835938 C 58.140625 10.871094 58.105469 10.898438 58.078125 10.933594 C 58.070312 10.9375 58.070312 10.9375 58.066406 10.941406 C 58.03125 10.976562 58.003906 11.011719 57.976562 11.042969 C 57.941406 11.078125 57.914062 11.117188 57.882812 11.15625 C 57.878906 11.15625 57.878906 11.164062 57.871094 11.164062 C 57.871094 11.167969 57.867188 11.175781 57.867188 11.175781 C 57.839844 11.207031 57.808594 11.25 57.789062 11.28125 C 57.738281 11.355469 57.683594 11.429688 57.640625 11.507812 C 57.628906 11.527344 57.617188 11.542969 57.605469 11.558594 C 57.601562 11.566406 57.601562 11.578125 57.59375 11.585938 C 57.578125 11.617188 57.566406 11.644531 57.550781 11.671875 C 57.519531 11.730469 57.492188 11.785156 57.46875 11.84375 C 57.453125 11.875 57.441406 11.910156 57.425781 11.945312 C 57.394531 12.023438 57.363281 12.101562 57.339844 12.179688 C 57.28125 12.355469 57.242188 12.539062 57.21875 12.722656 C 57.21875 12.746094 57.214844 12.769531 57.214844 12.796875 C 57.214844 12.804688 57.214844 12.816406 57.207031 12.828125 C 57.207031 12.859375 57.207031 12.886719 57.203125 12.921875 C 57.203125 12.992188 57.195312 13.0625 57.203125 13.136719 C 57.203125 13.226562 57.203125 13.324219 57.214844 13.421875 C 57.214844 13.441406 57.21875 13.464844 57.21875 13.488281 C 57.226562 13.503906 57.226562 13.523438 57.226562 13.539062 C 57.230469 13.5625 57.238281 13.585938 57.238281 13.605469 C 57.265625 13.753906 57.300781 13.894531 57.339844 14.035156 C 57.351562 14.070312 57.363281 14.097656 57.371094 14.128906 C 57.371094 14.128906 57.371094 14.132812 57.371094 14.132812 C 57.382812 14.179688 57.40625 14.21875 57.425781 14.261719 C 57.425781 14.269531 57.425781 14.269531 57.425781 14.273438 C 57.832031 15.480469 58.980469 16.355469 60.332031 16.355469 C 61.386719 16.355469 62.320312 15.816406 62.871094 15.007812 L 62.882812 14.992188 C 62.898438 14.96875 62.914062 14.945312 62.933594 14.925781 C 62.984375 14.855469 63.027344 14.78125 63.074219 14.703125 C 63.082031 14.6875 63.089844 14.675781 63.101562 14.660156 C 63.109375 14.648438 63.113281 14.636719 63.113281 14.625 C 63.132812 14.597656 63.148438 14.574219 63.160156 14.546875 C 63.175781 14.511719 63.195312 14.476562 63.210938 14.445312 C 63.222656 14.421875 63.226562 14.402344 63.238281 14.382812 C 63.257812 14.347656 63.273438 14.308594 63.285156 14.273438 C 63.308594 14.222656 63.324219 14.179688 63.339844 14.128906 C 63.398438 13.957031 63.445312 13.78125 63.472656 13.605469 C 63.476562 13.566406 63.484375 13.527344 63.488281 13.488281 C 63.488281 13.464844 63.496094 13.441406 63.496094 13.421875 C 63.5 13.375 63.5 13.335938 63.507812 13.289062 C 63.511719 13.222656 63.511719 13.148438 63.511719 13.082031 C 63.511719 13.023438 63.507812 12.972656 63.507812 12.921875 C 63.5 12.882812 63.5 12.835938 63.496094 12.796875 C 63.496094 12.769531 63.488281 12.746094 63.488281 12.722656 C 63.484375 12.683594 63.476562 12.644531 63.472656 12.605469 C 63.445312 12.429688 63.398438 12.253906 63.339844 12.085938 C 63.324219 12.039062 63.308594 11.988281 63.285156 11.945312 C 63.269531 11.894531 63.246094 11.855469 63.226562 11.800781 C 63.195312 11.730469 63.152344 11.660156 63.113281 11.585938 C 63.109375 11.582031 63.109375 11.570312 63.101562 11.558594 C 63.089844 11.542969 63.082031 11.527344 63.074219 11.507812 C 63.050781 11.476562 63.027344 11.441406 63.011719 11.40625 C 62.984375 11.363281 62.957031 11.320312 62.925781 11.28125 C 62.898438 11.242188 62.871094 11.203125 62.835938 11.164062 C 62.835938 11.164062 62.832031 11.15625 62.832031 11.15625 C 62.769531 11.078125 62.707031 11.003906 62.636719 10.933594 C 62.585938 10.878906 62.53125 10.828125 62.476562 10.777344 C 62.457031 10.761719 62.433594 10.746094 62.410156 10.722656 C 62.375 10.695312 62.335938 10.660156 62.296875 10.625 C 62.28125 10.613281 62.261719 10.605469 62.25 10.59375 C 62.226562 10.574219 62.207031 10.5625 62.1875 10.546875 C 62.144531 10.519531 62.105469 10.492188 62.0625 10.460938 C 62.03125 10.441406 61.996094 10.421875 61.960938 10.398438 C 61.945312 10.394531 61.925781 10.382812 61.910156 10.371094 C 61.90625 10.371094 61.90625 10.371094 61.90625 10.371094 C 61.859375 10.34375 61.8125 10.320312 61.769531 10.296875 C 61.722656 10.277344 61.675781 10.253906 61.632812 10.234375 C 61.597656 10.21875 61.558594 10.203125 61.523438 10.191406 C 61.480469 10.167969 61.433594 10.152344 61.382812 10.132812 C 61.304688 10.105469 61.21875 10.082031 61.132812 10.0625 C 61.09375 10.054688 61.054688 10.042969 61.011719 10.03125 C 60.960938 10.019531 60.910156 10.011719 60.859375 10.003906 C 60.820312 10 60.78125 9.992188 60.742188 9.988281 C 60.71875 9.980469 60.695312 9.980469 60.667969 9.976562 C 60.632812 9.976562 60.597656 9.976562 60.570312 9.96875 C 60.558594 9.96875 60.554688 9.96875 60.542969 9.96875 C 60.523438 9.96875 60.503906 9.96875 60.484375 9.964844 C 60.433594 9.964844 60.382812 9.964844 60.324219 9.964844 "/>
<path style=" stroke:none;fill-rule:nonzero;fill:url(#linear0);fill-opacity:1;" d="M 38.757812 7.347656 C 38.757812 2.640625 42.589844 -1.175781 47.316406 -1.175781 C 52.046875 -1.175781 55.875 2.640625 55.875 7.347656 C 55.875 12.050781 52.046875 15.867188 47.316406 15.867188 C 42.589844 15.867188 38.757812 12.050781 38.757812 7.347656 M 47.316406 13.738281 C 50.859375 13.738281 53.738281 10.871094 53.738281 7.347656 C 53.738281 3.824219 50.859375 0.957031 47.316406 0.957031 C 43.777344 0.957031 40.898438 3.824219 40.898438 7.347656 C 40.898438 10.871094 43.777344 13.738281 47.316406 13.738281 "/>
<path style=" stroke:none;fill-rule:nonzero;fill:url(#linear0);fill-opacity:1;" d="M 51.296875 23.722656 L 49.195312 17.027344 C 50.574219 16.769531 51.894531 16.226562 53.050781 15.433594 L 56.328125 21.644531 C 56.695312 22.332031 56.402344 23.148438 55.675781 23.445312 L 53.039062 24.539062 C 52.320312 24.839844 51.535156 24.46875 51.296875 23.722656 "/>
</g>
</svg>
