<svg xmlns="http://www.w3.org/2000/svg" xmlns:xlink="http://www.w3.org/1999/xlink" width="64" height="64" viewBox="0 0 64 64" version="1.1">
<defs> <linearGradient id="linear0" gradientUnits="userSpaceOnUse" x1="0" y1="0" x2="0" y2="1" gradientTransform="matrix(55.992188,0,0,56,4.003906,4)"> <stop offset="0" style="stop-color:#ff6666;stop-opacity:1;"/> <stop offset="1" style="stop-color:#d90000;stop-opacity:1;"/> </linearGradient> </defs>
<g id="surface1">
<path style=" stroke:none;fill-rule:nonzero;fill:url(#linear0);fill-opacity:1;" d="M 21.988281 6.9375 C 20.316406 6.9375 18.976562 8.28125 18.976562 9.941406 C 18.976562 11.597656 20.316406 12.9375 21.988281 12.9375 C 23.65625 12.9375 25.003906 11.597656 25.003906 9.941406 C 25.003906 8.28125 23.65625 6.9375 21.988281 6.9375 Z M 40.921875 6.9375 L 34.039062 13.792969 L 44.363281 24.082031 L 34.039062 34.363281 L 40.921875 41.214844 L 58.132812 24.082031 L 51.246094 17.226562 Z M 14.457031 24.933594 C 11.957031 24.933594 9.941406 26.941406 9.941406 29.4375 C 9.941406 31.929688 11.957031 33.933594 14.457031 33.933594 C 16.960938 33.933594 18.976562 31.929688 18.976562 29.4375 C 18.976562 26.941406 16.960938 24.933594 14.457031 24.933594 Z M 28.011719 42.933594 C 24.671875 42.933594 21.988281 45.609375 21.988281 48.929688 C 21.988281 52.253906 24.671875 54.929688 28.011719 54.929688 C 31.351562 54.929688 34.039062 52.253906 34.039062 48.929688 C 34.039062 45.609375 31.351562 42.933594 28.011719 42.933594 Z M 28.011719 42.933594 "/>
</g>
</svg>
