<svg xmlns="http://www.w3.org/2000/svg" xmlns:xlink="http://www.w3.org/1999/xlink" width="64" height="64" viewBox="0 0 64 64" version="1.1">
<defs>
<linearGradient id="linear0" gradientUnits="userSpaceOnUse" x1="0" y1="0" x2="0" y2="1" gradientTransform="matrix(58.34375,0,0,56,2.828125,4)">
<stop offset="0" style="stop-color:#ff6666;stop-opacity:1;"/>
<stop offset="1" style="stop-color:#d90000;stop-opacity:1;"/>
</linearGradient>
</defs>
<g id="surface1">
<path style=" stroke:none;fill-rule:nonzero;fill:url(#linear0);" d="M 46.371094 4.921875 C 45.363281 4.4375 44.402344 4.140625 43.492188 4.042969 C 42.566406 3.949219 41.722656 4.011719 40.960938 4.226562 C 40.195312 4.449219 39.523438 4.808594 38.941406 5.308594 C 38.355469 5.808594 37.890625 6.421875 37.542969 7.140625 C 37.324219 7.597656 37.164062 8.019531 37.058594 8.410156 C 36.953125 8.816406 36.878906 9.171875 36.84375 9.480469 C 36.804688 9.800781 36.792969 10.066406 36.804688 10.28125 C 36.8125 10.496094 36.808594 10.683594 36.824219 10.773438 L 36.921875 11.726562 C 36.96875 12.171875 36.921875 12.515625 36.78125 12.757812 C 36.648438 13.007812 36.394531 13.152344 36.023438 13.1875 C 35.9375 13.195312 35.84375 13.195312 35.738281 13.191406 C 35.640625 13.1875 35.546875 13.175781 35.46875 13.160156 L 20.40625 5.910156 L 15.503906 16.101562 C 15.488281 16.179688 15.476562 16.273438 15.472656 16.375 C 15.464844 16.476562 15.46875 16.570312 15.476562 16.65625 C 15.511719 17.027344 15.65625 17.28125 15.90625 17.410156 C 16.148438 17.550781 16.492188 17.601562 16.9375 17.554688 L 17.890625 17.457031 C 17.980469 17.445312 18.167969 17.449219 18.382812 17.4375 C 18.597656 17.425781 18.863281 17.441406 19.183594 17.480469 C 19.492188 17.511719 19.847656 17.585938 20.253906 17.691406 C 20.644531 17.796875 21.066406 17.960938 21.523438 18.175781 C 22.242188 18.523438 22.855469 18.988281 23.355469 19.570312 C 23.855469 20.15625 24.214844 20.832031 24.4375 21.59375 C 24.652344 22.355469 24.714844 23.199219 24.621094 24.125 C 24.519531 25.035156 24.226562 25.996094 23.742188 27.003906 C 23.257812 28.011719 22.703125 28.855469 22.078125 29.523438 C 21.453125 30.179688 20.785156 30.667969 20.070312 30.980469 C 19.359375 31.296875 18.621094 31.441406 17.847656 31.410156 C 17.078125 31.382812 16.3125 31.183594 15.539062 30.8125 C 15.09375 30.601562 14.695312 30.371094 14.339844 30.128906 C 13.988281 29.886719 13.691406 29.660156 13.445312 29.441406 C 13.195312 29.21875 12.996094 29.023438 12.84375 28.851562 C 12.699219 28.667969 12.644531 28.546875 12.601562 28.457031 L 12.074219 27.644531 C 11.835938 27.269531 11.585938 27.027344 11.324219 26.929688 C 11.066406 26.816406 10.78125 26.859375 10.464844 27.0625 C 10.390625 27.109375 10.316406 27.167969 10.238281 27.234375 C 10.164062 27.304688 10.101562 27.367188 10.046875 27.433594 L 2.828125 42.421875 L 17.882812 49.667969 C 17.964844 49.683594 18.054688 49.695312 18.160156 49.699219 C 18.265625 49.707031 18.355469 49.703125 18.445312 49.695312 C 18.816406 49.660156 19.066406 49.515625 19.199219 49.269531 C 19.339844 49.023438 19.386719 48.679688 19.339844 48.238281 L 19.242188 47.28125 C 19.226562 47.191406 19.230469 47.003906 19.21875 46.789062 C 19.210938 46.574219 19.222656 46.308594 19.265625 45.988281 C 19.300781 45.679688 19.371094 45.324219 19.480469 44.921875 C 19.585938 44.527344 19.742188 44.105469 19.964844 43.648438 C 20.308594 42.929688 20.777344 42.320312 21.359375 41.816406 C 21.945312 41.316406 22.617188 40.957031 23.378906 40.738281 C 24.140625 40.519531 24.984375 40.457031 25.910156 40.550781 C 26.820312 40.652344 27.78125 40.945312 28.792969 41.429688 C 29.800781 41.914062 30.640625 42.46875 31.3125 43.09375 C 31.96875 43.71875 32.453125 44.390625 32.769531 45.105469 C 33.078125 45.8125 33.222656 46.554688 33.199219 47.324219 C 33.171875 48.09375 32.972656 48.863281 32.601562 49.636719 C 32.382812 50.078125 32.15625 50.480469 31.914062 50.832031 C 31.675781 51.183594 31.445312 51.480469 31.222656 51.726562 C 31.007812 51.976562 30.8125 52.175781 30.636719 52.328125 C 30.453125 52.472656 30.332031 52.527344 30.238281 52.574219 L 29.429688 53.097656 C 29.054688 53.335938 28.816406 53.589844 28.710938 53.847656 C 28.601562 54.105469 28.648438 54.390625 28.847656 54.707031 C 28.894531 54.78125 28.953125 54.855469 29.019531 54.933594 C 29.089844 55.007812 29.15625 55.070312 29.214844 55.128906 L 39.335938 60 L 46.554688 45.011719 C 46.609375 44.949219 46.671875 44.882812 46.746094 44.816406 C 46.828125 44.746094 46.898438 44.691406 46.972656 44.644531 C 47.289062 44.445312 47.574219 44.394531 47.832031 44.507812 C 48.09375 44.613281 48.34375 44.847656 48.585938 45.222656 L 49.109375 46.035156 C 49.152344 46.128906 49.207031 46.246094 49.355469 46.433594 C 49.503906 46.605469 49.707031 46.804688 49.953125 47.019531 C 50.199219 47.238281 50.496094 47.46875 50.851562 47.710938 C 51.203125 47.953125 51.605469 48.179688 52.046875 48.394531 C 52.820312 48.765625 53.589844 48.96875 54.359375 48.992188 C 55.128906 49.019531 55.867188 48.875 56.578125 48.5625 C 57.292969 48.246094 57.960938 47.761719 58.589844 47.109375 C 59.210938 46.4375 59.765625 45.597656 60.253906 44.585938 C 60.734375 43.574219 61.027344 42.617188 61.128906 41.707031 C 61.222656 40.78125 61.164062 39.9375 60.945312 39.175781 C 60.722656 38.410156 60.363281 37.734375 59.863281 37.152344 C 59.363281 36.566406 58.753906 36.105469 58.03125 35.761719 C 57.578125 35.539062 57.15625 35.378906 56.761719 35.277344 C 56.355469 35.167969 56 35.097656 55.691406 35.058594 C 55.371094 35.019531 55.105469 35.003906 54.890625 35.015625 C 54.675781 35.027344 54.488281 35.023438 54.402344 35.039062 L 53.445312 35.136719 C 53 35.179688 52.65625 35.132812 52.414062 34.996094 C 52.167969 34.863281 52.023438 34.613281 51.984375 34.234375 C 51.976562 34.152344 51.976562 34.058594 51.980469 33.957031 C 51.984375 33.851562 51.996094 33.761719 52.011719 33.679688 L 56.914062 23.492188 L 46.796875 18.617188 C 46.734375 18.5625 46.671875 18.5 46.605469 18.425781 C 46.535156 18.347656 46.476562 18.273438 46.433594 18.199219 C 46.226562 17.882812 46.179688 17.597656 46.296875 17.339844 C 46.394531 17.078125 46.636719 16.828125 47.007812 16.589844 L 47.820312 16.0625 C 47.914062 16.019531 48.03125 15.964844 48.21875 15.820312 C 48.390625 15.667969 48.589844 15.46875 48.808594 15.21875 C 49.023438 14.972656 49.257812 14.675781 49.496094 14.324219 C 49.734375 13.96875 49.964844 13.570312 50.179688 13.125 C 50.550781 12.351562 50.753906 11.585938 50.78125 10.816406 C 50.804688 10.042969 50.660156 9.304688 50.347656 8.59375 C 50.03125 7.878906 49.546875 7.210938 48.890625 6.585938 C 48.21875 5.960938 47.378906 5.40625 46.371094 4.921875 Z M 46.371094 4.921875 "/>
</g>
</svg>
