<svg xmlns="http://www.w3.org/2000/svg" xmlns:xlink="http://www.w3.org/1999/xlink" width="64" height="64" viewBox="0 0 64 64" version="1.1">
<defs> <linearGradient id="linear0" gradientUnits="userSpaceOnUse" x1="0" y1="0" x2="0" y2="1" gradientTransform="matrix(55.992188,0,0,56,4.003906,4)"> <stop offset="0" style="stop-color:#ff6666;stop-opacity:1;"/> <stop offset="1" style="stop-color:#d90000;stop-opacity:1;"/> </linearGradient> </defs>
<g id="surface1">
<path style=" stroke:none;fill-rule:nonzero;fill:url(#linear0);fill-opacity:1;" d="M 28.996094 55.859375 C 28.761719 55.941406 28.523438 56.023438 28.289062 56.09375 C 28.523438 56.023438 28.769531 55.941406 28.996094 55.859375 "/>
<path style=" stroke:none;fill-rule:nonzero;fill:url(#linear0);fill-opacity:1;" d="M 32.050781 22.570312 C 30.375 22.570312 28.863281 23.242188 27.769531 24.335938 C 26.671875 25.425781 25.996094 26.9375 25.996094 28.597656 C 25.996094 30.261719 26.671875 31.773438 27.769531 32.863281 C 28.863281 33.953125 30.375 34.628906 32.050781 34.628906 C 33.71875 34.628906 35.234375 33.953125 36.332031 32.863281 C 37.429688 31.773438 38.105469 30.261719 38.105469 28.597656 C 38.105469 26.9375 37.429688 25.425781 36.332031 24.335938 C 35.234375 23.242188 33.71875 22.570312 32.050781 22.570312 M 32 36.667969 C 31.554688 36.691406 25.753906 36.726562 25.246094 40.265625 C 25.210938 40.507812 25.195312 40.804688 25.195312 41.144531 C 25.195312 45.957031 28.398438 59.917969 28.398438 59.917969 C 28.398438 59.917969 28.558594 61.03125 29.890625 61.03125 L 34.164062 61.03125 C 35.503906 61.03125 35.652344 59.925781 35.652344 59.917969 C 35.652344 59.917969 38.855469 45.957031 38.855469 41.144531 C 38.855469 40.804688 38.84375 40.507812 38.808594 40.265625 C 38.304688 36.726562 32.5 36.667969 32.054688 36.667969 L 32 36.667969 "/>
</g>
</svg>
