<svg xmlns="http://www.w3.org/2000/svg" xmlns:xlink="http://www.w3.org/1999/xlink" width="64" height="64" viewBox="0 0 64 64" version="1.1">
<defs> <linearGradient id="linear0" gradientUnits="userSpaceOnUse" x1="0" y1="0" x2="0" y2="1" gradientTransform="matrix(55.992188,0,0,56,4.003906,4)"> <stop offset="0" style="stop-color:#ff6666;stop-opacity:1;"/> <stop offset="1" style="stop-color:#d90000;stop-opacity:1;"/> </linearGradient> </defs>
<g id="surface1">
<path style=" stroke:none;fill-rule:nonzero;fill:url(#linear0);fill-opacity:1;" d="M 32.054688 8.070312 C 18.6875 8.070312 7.851562 18.503906 7.851562 31.359375 C 7.851562 39.105469 11.816406 45.898438 17.871094 50.128906 C 17.648438 51.015625 17.371094 51.976562 16.925781 52.949219 C 15.417969 56.277344 13.898438 56.28125 13.898438 56.28125 C 13.898438 56.28125 18.4375 56.25 21.464844 54.585938 C 22.105469 54.234375 22.664062 53.703125 23.167969 53.011719 C 25.921875 54.066406 28.910156 54.585938 32.054688 54.585938 C 45.425781 54.585938 56.261719 44.214844 56.261719 31.359375 C 56.261719 18.503906 45.425781 8.070312 32.054688 8.070312 M 45.925781 28.847656 C 47.203125 28.847656 48.183594 29.179688 48.886719 29.785156 C 49.617188 30.375 49.957031 31.207031 49.957031 32.359375 C 49.957031 33.484375 49.609375 34.394531 48.886719 35 C 48.160156 35.605469 47.179688 35.878906 45.925781 35.878906 C 44.800781 35.878906 43.835938 35.601562 43.085938 35.0625 C 42.359375 34.507812 42.015625 33.609375 42.015625 32.359375 C 42.015625 31.199219 42.363281 30.375 43.023438 29.785156 C 43.703125 29.179688 44.667969 28.847656 45.925781 28.847656 M 18.125 28.910156 C 19.398438 28.910156 20.378906 29.179688 21.085938 29.785156 C 21.8125 30.375 22.15625 31.269531 22.15625 32.421875 C 22.15625 33.546875 21.8125 34.394531 21.085938 35 C 20.355469 35.605469 19.375 35.941406 18.125 35.941406 C 17 35.941406 16.035156 35.664062 15.285156 35.125 C 14.558594 34.570312 14.210938 33.671875 14.210938 32.421875 C 14.210938 31.269531 14.566406 30.375 15.222656 29.785156 C 15.90625 29.179688 16.871094 28.910156 18.125 28.910156 M 31.988281 28.910156 C 33.265625 28.910156 34.25 29.179688 34.953125 29.785156 C 35.679688 30.375 36.027344 31.269531 36.027344 32.421875 C 36.027344 33.546875 35.679688 34.394531 34.953125 35 C 34.226562 35.605469 33.242188 35.941406 31.988281 35.941406 C 30.867188 35.941406 29.964844 35.664062 29.214844 35.125 C 28.488281 34.570312 28.082031 33.671875 28.082031 32.421875 C 28.082031 31.261719 28.433594 30.375 29.089844 29.785156 C 29.773438 29.179688 30.734375 28.910156 31.988281 28.910156 "/>
</g>
</svg>
