<svg xmlns="http://www.w3.org/2000/svg" xmlns:xlink="http://www.w3.org/1999/xlink" width="64" height="64" viewBox="0 0 64 64" version="1.1">
<defs> <linearGradient id="linear0" gradientUnits="userSpaceOnUse" x1="0" y1="0" x2="0" y2="1" gradientTransform="matrix(55.992188,0,0,56,4.003906,4)"> <stop offset="0" style="stop-color:#ff6666;stop-opacity:1;"/> <stop offset="1" style="stop-color:#d90000;stop-opacity:1;"/> </linearGradient> </defs>
<g id="surface1">
<path style=" stroke:none;fill-rule:nonzero;fill:url(#linear0);fill-opacity:1;" d="M 40.410156 8.285156 C 37.246094 8.3125 34.28125 9.207031 31.492188 10.546875 C 31.027344 10.699219 30.5625 10.933594 29.972656 11.28125 C 26.472656 13.371094 24.605469 15.394531 22.488281 19.398438 L 21.398438 21.457031 L 21.191406 20.515625 C 20.101562 18.035156 18.660156 16.503906 16.261719 16.175781 C 14.996094 16.003906 13.65625 16.117188 12.742188 16.292969 C 11.101562 16.621094 8.925781 17.984375 7.613281 19.714844 C 4.792969 23.429688 5.144531 27.042969 8.503906 28.863281 C 9.304688 29.300781 10.214844 29.667969 10.519531 29.683594 C 10.828125 29.703125 10.53125 29.882812 9.863281 30.09375 C 5.902344 31.335938 4.246094 33.863281 5.40625 36.890625 C 5.757812 37.804688 6.871094 39.152344 7.746094 39.851562 C 7.574219 40.109375 7.421875 40.367188 7.273438 40.640625 C 7.097656 40.679688 6.960938 40.972656 6.875 41.472656 C 6.320312 42.75 6.007812 44.164062 6.007812 45.648438 C 6.007812 51.40625 10.640625 56.066406 16.363281 56.066406 C 19.015625 56.066406 21.398438 55.042969 23.230469 53.398438 C 28.625 55.800781 34.964844 55.519531 40.132812 52.550781 C 41.664062 53.449219 43.472656 53.984375 45.375 53.984375 C 50.851562 53.984375 55.34375 49.695312 55.710938 44.269531 C 55.714844 42.996094 55.773438 43.058594 55.667969 42.460938 C 55.640625 42.210938 55.613281 41.96875 55.566406 41.730469 C 56.394531 41.390625 58.164062 39.730469 58.679688 38.734375 C 60.054688 36.09375 57.617188 31.589844 54.175781 30.414062 L 53.136719 30.058594 L 53.878906 29.058594 C 55.878906 26.355469 56.503906 22.078125 55.386719 18.613281 C 55.238281 18.140625 55.089844 17.769531 54.9375 17.46875 C 54.109375 15.652344 52.777344 13.5 51.398438 12.292969 C 49.257812 10.660156 47.371094 9.632812 45.652344 9.03125 C 43.84375 8.496094 42.097656 8.269531 40.410156 8.285156 M 32.253906 34.394531 C 37.753906 34.394531 37.847656 34.433594 37.660156 37.007812 C 37.511719 39.078125 36.972656 39.996094 35.164062 41.273438 C 33.691406 42.308594 31.472656 42.589844 29.988281 41.929688 C 27.75 40.921875 26.722656 39.355469 26.722656 36.964844 C 26.722656 34.488281 26.929688 34.394531 32.253906 34.394531 "/>
<path style=" stroke:none;fill-rule:nonzero;fill:url(#linear0);fill-opacity:1;" d="M 22.0625 30 C 22.0625 30.738281 21.460938 31.332031 20.722656 31.332031 C 19.984375 31.332031 19.386719 30.738281 19.386719 30 C 19.386719 29.265625 19.988281 28.671875 20.722656 28.671875 C 21.460938 28.671875 22.0625 29.265625 22.0625 30 "/>
<path style=" stroke:none;fill-rule:nonzero;fill:url(#linear0);fill-opacity:1;" d="M 46.140625 29.917969 C 46.140625 30.652344 45.539062 31.246094 44.800781 31.246094 C 44.0625 31.246094 43.464844 30.652344 43.464844 29.917969 C 43.464844 29.179688 44.066406 28.582031 44.800781 28.582031 C 45.539062 28.582031 46.140625 29.179688 46.140625 29.917969 "/>
</g>
</svg>
