<svg xmlns="http://www.w3.org/2000/svg" xmlns:xlink="http://www.w3.org/1999/xlink" width="64" height="64" viewBox="0 0 64 64" version="1.1">
<defs>
<linearGradient id="linear0" gradientUnits="userSpaceOnUse" x1="0" y1="0" x2="0" y2="1" gradientTransform="matrix(60,0,0,52.507812,2,5.492188)">
<stop offset="0" style="stop-color:#ff6666;stop-opacity:1;"/>
<stop offset="1" style="stop-color:#d90000;stop-opacity:1;"/>
</linearGradient>
</defs>
<g id="surface1">
<path style=" stroke:none;fill-rule:nonzero;fill:url(#linear0);" d="M 39.5 5.492188 C 31.386719 5.496094 24.082031 10.398438 21.003906 17.902344 C 19.191406 16.351562 16.886719 15.492188 14.5 15.492188 C 8.976562 15.492188 4.5 19.96875 4.5 25.492188 C 4.503906 27.6875 5.230469 29.824219 6.566406 31.566406 C 3.753906 33.097656 2.003906 36.039062 2 39.242188 C 2 44.074219 5.917969 47.992188 10.75 47.992188 C 11.167969 47.992188 11.585938 47.960938 12 47.902344 L 12 50.5 C 12 54.65625 15.34375 58 19.5 58 L 44.5 58 C 48.65625 58 52 54.65625 52 50.5 L 52 50.394531 C 52.414062 50.460938 52.832031 50.496094 53.25 50.5 C 58.082031 50.5 62 46.582031 62 41.75 C 62 38.582031 60.285156 35.664062 57.523438 34.117188 C 58.816406 31.429688 59.492188 28.484375 59.5 25.5 C 59.5 14.453125 50.546875 5.5 39.5 5.5 Z M 18.25 27.992188 C 21.011719 27.992188 23.25 30.230469 23.25 32.992188 C 23.25 35.753906 21.011719 37.992188 18.25 37.992188 C 15.488281 37.992188 13.25 35.753906 13.25 32.992188 C 13.25 30.230469 15.488281 27.992188 18.25 27.992188 Z M 45.75 27.992188 C 48.511719 27.992188 50.75 30.230469 50.75 32.992188 C 50.75 35.753906 48.511719 37.992188 45.75 37.992188 C 42.988281 37.992188 40.75 35.753906 40.75 32.992188 C 40.75 30.230469 42.988281 27.992188 45.75 27.992188 Z M 24.5 37.992188 L 39.5 37.992188 C 39.5 42.132812 36.140625 45.492188 32 45.492188 C 27.859375 45.492188 24.5 42.132812 24.5 37.992188 Z M 24.5 37.992188 "/>
</g>
</svg>
