<svg xmlns="http://www.w3.org/2000/svg" xmlns:xlink="http://www.w3.org/1999/xlink" width="64" height="64" viewBox="0 0 64 64" version="1.1">
<defs>
<linearGradient id="linear0" gradientUnits="userSpaceOnUse" x1="0" y1="0" x2="0" y2="1" gradientTransform="matrix(64,0,0,64,0,0)">
<stop offset="0" style="stop-color:#ff6666;stop-opacity:1;"/>
<stop offset="1" style="stop-color:#d90000;stop-opacity:1;"/>
</linearGradient>
</defs>
<g id="surface1">
<path style=" stroke:none;fill-rule:nonzero;fill:url(#linear0);" d="M 32 0 C 23.457031 0 15.414062 3.332031 9.371094 9.371094 C 3.332031 15.414062 0 23.457031 0 32 C 0 40.542969 3.332031 48.585938 9.371094 54.628906 C 15.414062 60.667969 23.457031 64 32 64 C 40.542969 64 48.585938 60.667969 54.628906 54.628906 C 60.667969 48.585938 64 40.542969 64 32 C 64 23.457031 60.667969 15.414062 54.628906 9.371094 C 48.585938 3.316406 40.558594 0 32 0 Z M 54.550781 14.660156 L 29.851562 14.660156 L 39.863281 4.648438 C 45.773438 6.351562 50.894531 9.921875 54.550781 14.660156 Z M 18.226562 7.109375 C 22.441406 4.769531 27.179688 3.535156 32 3.539062 C 33.261719 3.539062 34.488281 3.628906 35.699219 3.777344 L 24.300781 15.179688 L 18.226562 21.246094 Z M 14.675781 9.449219 L 14.675781 34.132812 L 4.664062 24.136719 C 6.367188 18.226562 9.9375 13.105469 14.675781 9.449219 Z M 7.125 45.773438 C 4.78125 41.558594 3.550781 36.820312 3.550781 32 C 3.550781 30.738281 3.644531 29.511719 3.792969 28.300781 L 21.265625 45.773438 Z M 9.464844 49.324219 L 34.148438 49.324219 L 24.136719 59.335938 C 18.308594 57.640625 13.167969 54.132812 9.464844 49.324219 Z M 45.789062 56.863281 C 41.574219 59.203125 36.835938 60.433594 32.015625 60.433594 C 30.757812 60.433594 29.527344 60.34375 28.3125 60.195312 L 45.789062 42.71875 Z M 45.789062 37.699219 L 37.714844 45.773438 L 26.300781 45.773438 L 26.015625 45.492188 L 18.242188 37.714844 L 18.242188 26.300781 L 26.3125 18.226562 L 37.730469 18.242188 L 45.800781 26.300781 L 45.800781 37.699219 Z M 49.339844 54.535156 L 49.339844 29.824219 L 59.351562 39.832031 C 57.65625 45.671875 54.148438 50.820312 49.339844 54.535156 Z M 60.449219 31.984375 C 60.449219 33.226562 60.355469 34.460938 60.207031 35.671875 L 42.734375 18.210938 L 56.890625 18.210938 C 59.15625 22.300781 60.449219 26.996094 60.449219 31.984375 Z M 60.449219 31.984375 "/>
</g>
</svg>
