<svg xmlns="http://www.w3.org/2000/svg" xmlns:xlink="http://www.w3.org/1999/xlink" width="64" height="64" viewBox="0 0 64 64" version="1.1">
<defs>
<linearGradient id="linear0" gradientUnits="userSpaceOnUse" x1="0" y1="0" x2="0" y2="1" gradientTransform="matrix(74.65625,0,0,74.666667,5.338541,5.333333)">
<stop offset="0" style="stop-color:#ff6666;stop-opacity:1;"/>
<stop offset="1" style="stop-color:#d90000;stop-opacity:1;"/>
</linearGradient>
</defs>
<g id="surface1">
<path style=" stroke:none;fill-rule:nonzero;fill:url(#linear0);" d="M 44.445312 1.300781 C 43.375 1.316406 42.484375 2.125 42.359375 3.1875 C 42.226562 4.359375 43.066406 5.417969 44.234375 5.550781 C 48.15625 6.007812 50.832031 6.933594 52.507812 8.070312 C 54.1875 9.207031 54.96875 10.472656 55.328125 12.230469 C 56.050781 15.742188 54.40625 21.464844 51.351562 28.339844 C 50.871094 29.417969 51.359375 30.679688 52.433594 31.15625 C 53.511719 31.632812 54.769531 31.148438 55.25 30.074219 C 58.402344 22.972656 60.617188 16.773438 59.507812 11.371094 C 58.957031 8.671875 57.402344 6.230469 54.90625 4.539062 C 52.410156 2.847656 49.074219 1.820312 44.726562 1.316406 C 44.632812 1.304688 44.539062 1.296875 44.445312 1.300781 Z M 32.097656 1.335938 C 27.742188 1.335938 24.164062 3.695312 21.949219 7.027344 C 19.734375 10.359375 18.6875 14.640625 18.757812 19.066406 C 18.824219 22.96875 18.308594 26.191406 18.398438 29.261719 C 18.488281 32.332031 19.496094 35.472656 22.421875 37.714844 C 23.355469 38.433594 24.695312 38.257812 25.414062 37.320312 C 26.128906 36.386719 25.953125 35.046875 25.015625 34.332031 C 23.074219 32.839844 22.734375 31.582031 22.664062 29.136719 C 22.589844 26.695312 23.097656 23.289062 23.023438 18.996094 C 22.964844 15.308594 23.890625 11.808594 25.5 9.386719 C 27.109375 6.96875 29.203125 5.601562 32.097656 5.601562 C 35.847656 5.601562 38.773438 7.101562 41.167969 9.347656 C 43.566406 11.589844 45.347656 14.601562 46.425781 17.289062 C 47.449219 19.839844 47.183594 20.675781 46.851562 22.585938 C 46.519531 24.496094 46.121094 27.253906 47.25 31.535156 C 47.554688 32.671875 48.71875 33.351562 49.859375 33.050781 C 50.996094 32.75 51.675781 31.582031 51.375 30.441406 C 50.40625 26.765625 50.726562 25.203125 51.054688 23.316406 C 51.382812 21.429688 51.710938 18.996094 50.386719 15.699219 C 49.121094 12.546875 47.085938 9.039062 44.085938 6.230469 C 41.085938 3.421875 37.027344 1.335938 32.097656 1.335938 Z M 15.410156 2.179688 C 14.886719 2.1875 14.382812 2.214844 13.890625 2.269531 C 11.933594 2.492188 10.230469 3.101562 8.8125 4.121094 C 5.96875 6.160156 4.667969 9.558594 4.296875 13.402344 C 3.890625 17.582031 4.832031 25.863281 6.355469 33.226562 C 7.117188 36.910156 8.015625 40.265625 9.117188 42.722656 C 9.671875 43.953125 10.214844 44.984375 11.203125 45.816406 C 11.695312 46.234375 12.375 46.617188 13.207031 46.675781 C 14.035156 46.738281 14.871094 46.410156 15.445312 45.96875 C 18.882812 43.507812 20.261719 41.761719 21.109375 40.386719 C 21.40625 39.90625 21.5 39.328125 21.371094 38.773438 C 21.238281 38.222656 20.894531 37.746094 20.414062 37.449219 C 19.410156 36.832031 18.097656 37.144531 17.476562 38.144531 C 16.851562 39.160156 16 40.175781 13.609375 41.972656 C 13.421875 41.707031 13.28125 41.574219 13.011719 40.976562 C 12.164062 39.085938 11.261719 35.882812 10.535156 32.363281 C 9.078125 25.324219 8.269531 16.632812 8.542969 13.816406 C 8.851562 10.65625 9.78125 8.675781 11.300781 7.582031 C 12.820312 6.492188 15.363281 6 19.640625 6.921875 C 20.792969 7.171875 21.925781 6.4375 22.175781 5.285156 C 22.421875 4.136719 21.691406 3 20.539062 2.753906 C 18.691406 2.351562 16.976562 2.160156 15.410156 2.179688 Z M 42.695312 15.769531 C 41.960938 15.808594 41.242188 16.027344 40.574219 16.394531 C 39.242188 17.136719 38.164062 18.800781 38.289062 20.640625 C 38.292969 20.65625 38.292969 20.675781 38.292969 20.691406 C 38.894531 27.117188 41.457031 31.972656 43.980469 36.417969 C 45.484375 39.164062 47.824219 40.390625 50.066406 41.019531 C 48.960938 41.179688 48.164062 42.160156 48.238281 43.277344 C 48.316406 44.453125 49.335938 45.339844 50.511719 45.261719 C 52.789062 45.105469 55.738281 43.847656 57.828125 40.636719 C 58.265625 39.96875 58.292969 39.117188 57.902344 38.421875 C 57.507812 37.730469 56.765625 37.3125 55.96875 37.339844 C 53.726562 37.414062 49.714844 38.019531 47.722656 34.367188 C 47.71875 34.355469 47.710938 34.347656 47.703125 34.335938 C 45.230469 29.980469 43.078125 25.839844 42.554688 20.332031 C 42.535156 20.113281 42.523438 20.195312 42.644531 20.128906 C 42.777344 20.054688 43.085938 20.070312 43.09375 20.074219 C 44.160156 20.570312 45.429688 20.109375 45.929688 19.042969 C 46.425781 17.972656 45.964844 16.703125 44.898438 16.207031 C 44.179688 15.871094 43.429688 15.730469 42.695312 15.769531 Z M 27.003906 16.054688 C 26.195312 16.078125 25.457031 16.257812 24.824219 16.5 C 23.726562 16.921875 23.175781 18.15625 23.597656 19.253906 C 24.019531 20.355469 25.253906 20.902344 26.351562 20.480469 C 26.621094 20.378906 27.480469 20.285156 27.949219 20.484375 C 28.414062 20.679688 28.871094 20.921875 29.0625 22.609375 C 29.363281 26.808594 28.753906 28.976562 28.003906 30.980469 C 27.25 32.992188 26.160156 35.046875 26.046875 38.136719 L 26.054688 38.042969 C 25.949219 39.304688 25.628906 39.839844 24.960938 40.390625 C 24.296875 40.941406 23.09375 41.457031 21.339844 41.839844 C 20.59375 42.003906 19.988281 42.554688 19.761719 43.285156 C 19.53125 44.015625 19.710938 44.8125 20.230469 45.371094 C 22.828125 48.175781 26.410156 48.335938 28.53125 46.574219 C 29.441406 45.824219 29.566406 44.476562 28.8125 43.570312 C 28.632812 43.359375 28.417969 43.183594 28.171875 43.050781 C 29.335938 41.832031 30.15625 40.246094 30.304688 38.386719 C 30.308594 38.351562 30.3125 38.320312 30.3125 38.289062 C 30.390625 36.121094 31.132812 34.792969 32 32.476562 C 32.871094 30.160156 33.667969 27.050781 33.320312 22.253906 C 33.316406 22.230469 33.316406 22.203125 33.3125 22.179688 C 33.003906 19.351562 31.429688 17.320312 29.605469 16.550781 C 28.695312 16.167969 27.8125 16.03125 27.003906 16.054688 Z M 45.921875 39.871094 C 44.957031 39.878906 44.121094 40.535156 43.878906 41.464844 C 42.359375 47.316406 42.570312 52.226562 42.117188 55.089844 C 41.894531 56.519531 41.550781 57.273438 41.132812 57.667969 C 40.71875 58.066406 39.960938 58.433594 38.074219 58.433594 C 36.273438 58.433594 35.546875 58.128906 35.390625 58.003906 C 35.234375 57.878906 35.054688 57.632812 34.925781 56.449219 C 34.667969 54.089844 35.011719 49.246094 33.65625 42.222656 C 33.546875 41.664062 33.226562 41.175781 32.757812 40.855469 C 32.289062 40.539062 31.710938 40.421875 31.15625 40.527344 C 30 40.753906 29.242188 41.871094 29.464844 43.027344 C 30.726562 49.566406 30.332031 53.691406 30.683594 56.910156 C 30.859375 58.519531 31.324219 60.21875 32.726562 61.339844 C 34.132812 62.457031 35.882812 62.699219 38.074219 62.699219 C 40.574219 62.699219 42.636719 62.125 44.070312 60.761719 C 45.503906 59.402344 46.042969 57.585938 46.332031 55.753906 C 46.910156 52.089844 46.664062 47.71875 48.007812 42.539062 C 48.304688 41.398438 47.621094 40.234375 46.480469 39.9375 C 46.296875 39.890625 46.109375 39.867188 45.921875 39.871094 Z M 45.921875 39.871094 "/>
</g>
</svg>
