<svg xmlns="http://www.w3.org/2000/svg" xmlns:xlink="http://www.w3.org/1999/xlink" width="64" height="64" viewBox="0 0 64 64" version="1.1">
<defs> <linearGradient id="linear0" gradientUnits="userSpaceOnUse" x1="0" y1="0" x2="0" y2="1" gradientTransform="matrix(55.992188,0,0,56,4.003906,4)"> <stop offset="0" style="stop-color:#ff6666;stop-opacity:1;"/> <stop offset="1" style="stop-color:#d90000;stop-opacity:1;"/> </linearGradient> </defs>
<g id="surface1">
<path style=" stroke:none;fill-rule:nonzero;fill:url(#linear0);fill-opacity:1;" d="M 9.988281 51.261719 C 8.234375 49.203125 6.808594 47.359375 6.820312 47.164062 C 6.828125 46.972656 8.949219 45.214844 11.527344 43.257812 C 14.105469 41.300781 19.378906 37.195312 23.257812 34.136719 L 30.308594 28.578125 L 29.675781 26.804688 C 27.84375 21.707031 28.6875 16.027344 31.75 12.832031 C 34.332031 10.128906 37.355469 9.179688 42.550781 9.425781 C 45.253906 9.550781 47.015625 9.855469 47.996094 10.359375 L 49.4375 11.105469 L 48.417969 11.632812 C 47.847656 11.914062 44.789062 13.0625 41.601562 14.171875 L 35.820312 16.191406 L 35.820312 17.808594 C 35.820312 20.578125 37.082031 25.097656 38.410156 27.09375 C 39.882812 29.3125 43 32.179688 44.953125 33.113281 L 46.300781 33.761719 L 50.347656 30.0625 C 52.574219 28.027344 54.875 25.738281 55.460938 24.96875 C 56.914062 23.066406 57.425781 23.578125 57.175781 26.671875 C 56.8125 31.136719 53.765625 35.714844 49.898438 37.609375 C 48.691406 38.203125 47.359375 38.429688 45.078125 38.421875 C 42.347656 38.421875 41.566406 38.234375 39.300781 37.070312 L 36.683594 35.71875 L 31.5 40.011719 C 23.757812 46.425781 15.230469 53.425781 14.144531 54.261719 C 13.179688 55.003906 13.171875 55 9.988281 51.261719 Z M 42.503906 27.972656 L 38.886719 26.132812 L 38.617188 24.164062 C 38.46875 23.085938 38.34375 21.21875 38.34375 20.027344 L 38.34375 17.859375 L 46.054688 13.652344 L 53.699219 17.667969 L 53.8125 21.773438 L 53.925781 25.875 L 50.34375 27.863281 C 48.371094 28.960938 46.617188 29.84375 46.441406 29.832031 C 46.269531 29.820312 44.5 28.984375 42.503906 27.972656 Z M 48.234375 23.566406 C 49.207031 22.492188 48.871094 20.675781 47.507812 19.664062 C 46.542969 18.949219 46.191406 18.894531 45.292969 19.300781 C 43.800781 19.980469 43.117188 21.585938 43.742188 22.953125 C 44.589844 24.804688 46.832031 25.109375 48.234375 23.566406 Z M 48.234375 23.566406 "/>
<path style=" stroke:none;fill-rule:nonzero;fill:url(#linear0);fill-opacity:1;" d="M 10.003906 51.199219 C 8.238281 49.09375 6.890625 47.210938 7.015625 47.019531 C 7.136719 46.820312 12.238281 42.769531 18.351562 38.015625 C 24.46875 33.253906 29.660156 29.136719 29.890625 28.855469 C 30.175781 28.515625 30.113281 27.761719 29.683594 26.519531 C 27.273438 19.5625 29.472656 13.058594 35.089844 10.53125 C 38.019531 9.210938 45.152344 9.097656 47.808594 10.328125 L 49.492188 11.101562 L 48.230469 11.65625 C 47.535156 11.960938 44.4375 13.121094 41.339844 14.222656 L 35.714844 16.238281 L 35.941406 19.171875 C 36.066406 20.785156 36.578125 23.191406 37.082031 24.527344 C 38.171875 27.417969 41.640625 31.351562 44.378906 32.800781 L 46.242188 33.785156 L 49.472656 30.90625 C 51.25 29.324219 53.613281 27.03125 54.726562 25.824219 C 55.839844 24.605469 56.875 23.730469 57.015625 23.871094 C 57.578125 24.429688 57.226562 27.851562 56.375 30.132812 C 55.328125 32.902344 52.453125 36.195312 49.921875 37.523438 C 47.179688 38.960938 43.078125 38.789062 39.488281 37.097656 L 36.640625 35.753906 L 28.132812 42.714844 C 23.453125 46.542969 18.488281 50.621094 17.101562 51.78125 C 15.71875 52.933594 14.269531 54.140625 13.894531 54.457031 C 13.285156 54.957031 12.839844 54.578125 10.003906 51.199219 Z M 42.5 27.972656 L 38.871094 26.128906 L 38.5625 22.09375 C 38.398438 19.882812 38.324219 18.011719 38.410156 17.945312 C 38.984375 17.445312 45.554688 13.933594 45.914062 13.933594 C 46.15625 13.933594 48.054688 14.789062 50.132812 15.824219 L 53.910156 17.710938 L 53.898438 21.796875 L 53.886719 25.875 L 50.324219 27.863281 C 48.367188 28.960938 46.617188 29.84375 46.441406 29.832031 C 46.269531 29.820312 44.492188 28.984375 42.5 27.972656 Z M 47.753906 23.960938 C 50.417969 21.871094 47.679688 17.71875 44.851562 19.5625 C 42.9375 20.8125 43.136719 23.578125 45.207031 24.410156 C 46.503906 24.929688 46.519531 24.921875 47.753906 23.960938 Z M 47.753906 23.960938 "/>
<path style=" stroke:none;fill-rule:nonzero;fill:url(#linear0);fill-opacity:1;" d="M 10.3125 51.53125 C 8.699219 49.632812 7.246094 47.855469 7.078125 47.585938 C 6.890625 47.273438 10.929688 43.855469 18.125 38.230469 C 24.359375 33.355469 29.664062 29.128906 29.910156 28.832031 C 30.234375 28.445312 30.164062 27.777344 29.675781 26.457031 C 28.8125 24.132812 28.695312 18.464844 29.460938 16.292969 C 30.273438 13.980469 32.523438 11.683594 35.089844 10.542969 C 36.953125 9.710938 37.980469 9.558594 41.710938 9.5625 C 45.027344 9.5625 46.546875 9.75 47.808594 10.308594 C 49.859375 11.214844 50.097656 11.066406 41.972656 13.972656 L 35.714844 16.214844 L 35.933594 19.449219 C 36.089844 21.652344 36.503906 23.429688 37.230469 25.011719 C 38.519531 27.820312 41.890625 31.484375 44.414062 32.816406 L 46.253906 33.785156 L 49.132812 31.238281 C 50.71875 29.835938 53.097656 27.5625 54.414062 26.183594 C 55.738281 24.804688 56.917969 23.773438 57.042969 23.898438 C 57.570312 24.425781 57.214844 27.890625 56.40625 30.03125 C 55.386719 32.75 52.382812 36.234375 49.960938 37.507812 C 47.183594 38.964844 43.113281 38.800781 39.472656 37.085938 L 36.597656 35.730469 L 30.875 40.4375 C 17.351562 51.554688 14.542969 53.871094 13.917969 54.410156 C 13.332031 54.914062 12.890625 54.558594 10.3125 51.53125 Z M 42.449219 27.949219 L 38.769531 26.078125 L 38.761719 23.046875 C 38.757812 21.378906 38.644531 19.601562 38.507812 19.097656 C 38.246094 18.121094 39.03125 17.503906 43.738281 14.976562 L 45.96875 13.777344 L 53.910156 17.703125 L 53.902344 21.789062 L 53.898438 25.875 L 50.433594 27.761719 C 48.523438 28.796875 46.78125 29.683594 46.546875 29.734375 C 46.316406 29.78125 44.46875 28.976562 42.449219 27.949219 Z M 47.378906 24.335938 C 49.480469 23.386719 49.246094 19.996094 47.03125 19.261719 C 44.242188 18.339844 42.175781 22.136719 44.476562 23.9375 C 45.792969 24.96875 45.941406 24.992188 47.378906 24.335938 Z M 47.378906 24.335938 "/>
<path style=" stroke:none;fill-rule:nonzero;fill:url(#linear0);fill-opacity:1;" d="M 10.53125 51.722656 C 9.054688 49.949219 7.601562 48.183594 7.300781 47.800781 C 6.824219 47.1875 7.535156 46.503906 13.402344 41.953125 C 27.550781 30.984375 30.425781 28.554688 30.128906 27.824219 C 29.976562 27.445312 29.558594 25.675781 29.195312 23.898438 C 28.597656 20.941406 28.601562 20.425781 29.238281 17.863281 C 30.558594 12.539062 33.449219 10.253906 39.851562 9.484375 C 42.261719 9.195312 47.578125 9.957031 48.65625 10.75 C 49.261719 11.191406 48.367188 11.628906 42.539062 13.71875 L 35.714844 16.167969 L 35.933594 19.449219 C 36.316406 24.972656 38.996094 29.414062 43.761719 32.429688 C 44.804688 33.082031 45.878906 33.625 46.140625 33.625 C 46.40625 33.625 48.921875 31.4375 51.734375 28.769531 C 57.246094 23.539062 57.640625 23.425781 57.125 27.191406 C 56.214844 33.761719 50.207031 39.09375 44.363281 38.511719 C 43.164062 38.394531 40.945312 37.710938 39.425781 36.992188 L 36.679688 35.683594 L 26.46875 44.050781 C 20.855469 48.652344 15.574219 52.992188 14.742188 53.6875 L 13.21875 54.957031 Z M 42.449219 27.941406 L 38.769531 26.078125 L 38.769531 17.753906 L 42.390625 15.785156 L 46.019531 13.816406 L 49.722656 15.621094 C 52.214844 16.835938 53.503906 17.71875 53.664062 18.300781 C 53.789062 18.78125 53.898438 20.679688 53.898438 22.523438 L 53.890625 25.875 L 50.136719 27.863281 C 48.070312 28.960938 46.328125 29.84375 46.253906 29.832031 C 46.183594 29.820312 44.46875 28.972656 42.449219 27.941406 Z M 48.335938 23.679688 C 49.585938 22.042969 48.320312 18.960938 46.394531 18.960938 C 45.042969 18.960938 43.390625 20.578125 43.390625 21.898438 C 43.390625 24.351562 46.855469 25.601562 48.335938 23.679688 Z M 48.335938 23.679688 "/>
<path style=" stroke:none;fill-rule:nonzero;fill:url(#linear0);fill-opacity:1;" d="M 10.5625 51.703125 C 9.097656 49.9375 7.648438 48.195312 7.339844 47.828125 C 6.851562 47.238281 8.175781 46.074219 18.234375 38.191406 C 24.527344 33.257812 29.839844 29.113281 30.046875 28.972656 C 30.246094 28.835938 30.089844 27.625 29.703125 26.292969 C 28.609375 22.53125 28.726562 18.355469 30.023438 15.539062 C 31.886719 11.492188 35.339844 9.671875 41.289062 9.597656 C 44.539062 9.550781 48.621094 10.28125 49.054688 10.976562 C 49.148438 11.128906 46.207031 12.351562 42.523438 13.695312 L 35.820312 16.140625 L 35.820312 18.5625 C 35.820312 21.765625 37.054688 25.574219 38.90625 28.085938 C 40.433594 30.15625 44.902344 33.625 46.042969 33.625 C 46.382812 33.625 48.957031 31.4375 51.757812 28.769531 C 57.253906 23.527344 57.644531 23.414062 57.070312 27.242188 C 56.339844 32.140625 52.472656 36.8125 48.117188 38.070312 C 45.164062 38.929688 42.910156 38.636719 39.582031 36.964844 C 38.167969 36.25 36.855469 35.730469 36.660156 35.796875 C 36.316406 35.929688 31.703125 39.667969 19.398438 49.8125 L 13.21875 54.902344 Z M 42.449219 27.941406 L 38.769531 26.078125 L 38.769531 17.855469 L 42.425781 15.8125 L 46.082031 13.765625 L 49.671875 15.664062 C 53.734375 17.820312 53.804688 17.945312 53.859375 22.734375 L 53.890625 25.875 L 50.136719 27.863281 C 48.070312 28.960938 46.328125 29.84375 46.253906 29.832031 C 46.183594 29.820312 44.46875 28.972656 42.449219 27.941406 Z M 48.042969 23.96875 C 49.296875 22.71875 49.03125 20.246094 47.554688 19.425781 C 46.113281 18.621094 43.925781 19.433594 43.550781 20.902344 C 42.796875 23.898438 45.953125 26.046875 48.042969 23.96875 Z M 48.042969 23.96875 "/>
<path style=" stroke:none;fill-rule:nonzero;fill:url(#linear0);fill-opacity:1;" d="M 10.792969 51.957031 C 9.402344 50.308594 7.941406 48.550781 7.539062 48.046875 C 6.820312 47.132812 6.851562 47.09375 12.167969 42.992188 C 15.117188 40.722656 20.363281 36.617188 23.832031 33.875 C 27.300781 31.132812 30.199219 28.847656 30.273438 28.792969 C 30.339844 28.734375 30.109375 27.558594 29.746094 26.171875 C 28.949219 23.125 28.925781 18.480469 29.695312 16.34375 C 31.066406 12.507812 34 10.417969 38.988281 9.714844 C 41.839844 9.3125 45.992188 9.722656 48.328125 10.636719 C 49.4375 11.074219 49.320312 11.15625 45.5 12.53125 C 43.300781 13.324219 40.222656 14.449219 38.660156 15.039062 L 35.820312 16.105469 L 35.828125 18.476562 C 35.832031 21.863281 36.804688 25.042969 38.644531 27.707031 C 40.324219 30.132812 44.628906 33.625 45.941406 33.625 C 46.367188 33.625 48.992188 31.445312 51.769531 28.773438 C 56.625 24.113281 56.832031 23.96875 57.09375 25.011719 C 57.683594 27.359375 55.488281 32.8125 53 35.160156 C 49.109375 38.824219 44.71875 39.433594 39.671875 37.003906 C 36.941406 35.691406 36.621094 35.625 35.941406 36.21875 C 35.527344 36.574219 30.835938 40.402344 25.515625 44.722656 C 20.191406 49.042969 15.273438 53.109375 14.582031 53.761719 L 13.316406 54.941406 Z M 42.449219 27.859375 L 38.769531 25.914062 L 38.769531 17.917969 L 45.96875 13.808594 L 49.625 15.710938 L 53.277344 17.617188 L 53.609375 19.863281 C 53.789062 21.09375 53.886719 22.949219 53.816406 23.980469 L 53.699219 25.851562 L 50.121094 27.835938 C 48.15625 28.925781 46.453125 29.816406 46.339844 29.808594 C 46.21875 29.804688 44.46875 28.925781 42.449219 27.859375 Z M 48.246094 23.796875 C 48.816406 23.230469 49.28125 22.378906 49.28125 21.898438 C 49.28125 20.6875 47.441406 18.960938 46.144531 18.960938 C 44.703125 18.960938 43.390625 20.359375 43.390625 21.898438 C 43.390625 24.574219 46.320312 25.71875 48.246094 23.796875 Z M 48.246094 23.796875 "/>
<path style=" stroke:none;fill-rule:nonzero;fill:url(#linear0);fill-opacity:1;" d="M 13.527344 54.410156 C 13.527344 54.324219 13.859375 53.992188 14.265625 53.675781 C 14.929688 53.15625 14.945312 53.171875 14.421875 53.832031 C 13.871094 54.535156 13.527344 54.753906 13.527344 54.410156 Z M 7.023438 47.476562 C 6.890625 47.261719 6.945312 46.992188 7.140625 46.867188 C 7.335938 46.746094 7.5 46.921875 7.5 47.257812 C 7.5 47.964844 7.363281 48.023438 7.023438 47.476562 Z M 23.621094 46.035156 C 23.621094 45.945312 23.953125 45.617188 24.359375 45.300781 C 25.027344 44.777344 25.042969 44.796875 24.519531 45.457031 C 23.96875 46.152344 23.621094 46.378906 23.621094 46.035156 Z M 27.832031 42.679688 C 27.832031 42.597656 28.160156 42.261719 28.5625 41.953125 C 29.234375 41.425781 29.246094 41.441406 28.722656 42.105469 C 28.175781 42.804688 27.832031 43.027344 27.832031 42.679688 Z M 32.453125 38.914062 C 32.453125 38.824219 32.789062 38.496094 33.191406 38.179688 C 33.863281 37.660156 33.875 37.671875 33.351562 38.335938 C 32.800781 39.035156 32.453125 39.253906 32.453125 38.914062 Z M 44.554688 38.355469 C 45.078125 38.253906 45.832031 38.257812 46.238281 38.367188 C 46.640625 38.46875 46.214844 38.550781 45.289062 38.546875 C 44.363281 38.542969 44.03125 38.457031 44.554688 38.355469 Z M 36.128906 35.667969 C 36.417969 35.378906 36.753906 35.25 36.882812 35.378906 C 37.015625 35.511719 36.78125 35.742188 36.367188 35.898438 C 35.765625 36.125 35.71875 36.082031 36.128906 35.667969 Z M 46.339844 33.886719 C 46.339844 33.796875 46.667969 33.46875 47.070312 33.152344 C 47.742188 32.632812 47.753906 32.648438 47.230469 33.308594 C 46.683594 34.003906 46.339844 34.230469 46.339844 33.886719 Z M 52.019531 28.597656 C 53.152344 27.445312 54.179688 26.5 54.300781 26.5 C 54.414062 26.5 53.574219 27.445312 52.4375 28.597656 C 51.296875 29.746094 50.269531 30.691406 50.15625 30.691406 C 50.042969 30.691406 50.875 29.746094 52.019531 28.597656 Z M 56.882812 25.839844 C 56.90625 25.351562 57.003906 25.25 57.140625 25.585938 C 57.265625 25.890625 57.246094 26.253906 57.105469 26.386719 C 56.96875 26.527344 56.867188 26.28125 56.882812 25.839844 Z M 55.167969 25.503906 C 55.167969 25.421875 55.503906 25.09375 55.90625 24.777344 C 56.570312 24.253906 56.589844 24.265625 56.066406 24.933594 C 55.515625 25.628906 55.167969 25.851562 55.167969 25.503906 Z M 53.597656 23.78125 C 53.597656 22.859375 53.6875 22.53125 53.785156 23.050781 C 53.886719 23.570312 53.878906 24.328125 53.777344 24.726562 C 53.671875 25.125 53.589844 24.703125 53.597656 23.78125 Z M 35.496094 17.707031 C 35.496094 16.898438 35.582031 16.570312 35.691406 16.972656 C 35.796875 17.378906 35.796875 18.035156 35.691406 18.441406 C 35.582031 18.84375 35.496094 18.515625 35.496094 17.707031 Z M 45.839844 18.679688 C 46.140625 18.554688 46.503906 18.570312 46.644531 18.707031 C 46.78125 18.847656 46.539062 18.949219 46.09375 18.929688 C 45.601562 18.910156 45.503906 18.808594 45.839844 18.679688 Z M 31.191406 13.359375 C 31.191406 13.273438 31.527344 12.945312 31.929688 12.628906 C 32.59375 12.109375 32.613281 12.121094 32.089844 12.785156 C 31.539062 13.480469 31.191406 13.703125 31.191406 13.359375 Z M 31.191406 13.359375 "/>
</g>
</svg>
