<svg xmlns="http://www.w3.org/2000/svg" xmlns:xlink="http://www.w3.org/1999/xlink" width="64" height="64" viewBox="0 0 64 64" version="1.1">
<defs>
<linearGradient id="linear0" gradientUnits="userSpaceOnUse" x1="0" y1="0" x2="0" y2="1" gradientTransform="matrix(74.65625,0,0,74.666667,5.338541,5.333333)">
<stop offset="0" style="stop-color:#ff6666;stop-opacity:1;"/>
<stop offset="1" style="stop-color:#d90000;stop-opacity:1;"/>
</linearGradient>
</defs>
<g id="surface1">
<path style=" stroke:none;fill-rule:nonzero;fill:url(#linear0);" d="M 39.269531 6.660156 C 38.609375 6.675781 37.984375 6.976562 37.566406 7.488281 L 20.09375 28.757812 C 19.660156 29.285156 19.488281 29.980469 19.625 30.648438 C 19.761719 31.320312 20.195312 31.890625 20.800781 32.207031 C 24.296875 34.019531 26.632812 36.503906 27.675781 40.507812 C 27.992188 41.722656 29.230469 42.449219 30.441406 42.132812 C 31.652344 41.816406 32.378906 40.578125 32.0625 39.367188 C 30.957031 35.113281 28.433594 31.9375 25.214844 29.664062 L 41.070312 10.367188 C 41.863281 9.398438 41.722656 7.96875 40.757812 7.175781 C 40.339844 6.832031 39.8125 6.648438 39.269531 6.660156 Z M 30.269531 7.945312 C 29.609375 7.953125 28.984375 8.246094 28.554688 8.75 L 8.964844 31.976562 C 8.433594 32.605469 8.285156 33.476562 8.578125 34.246094 C 8.875 35.015625 9.5625 35.566406 10.378906 35.679688 C 17.988281 36.757812 20.621094 41.121094 20.71875 45.148438 C 20.820312 49.179688 18.398438 52.746094 13.71875 52.804688 L 10.347656 52.804688 C 8.960938 52.804688 8.226562 52.476562 7.800781 52.0625 C 7.375 51.648438 7.03125 50.964844 7.03125 49.515625 L 7.03125 23.722656 C 7.03125 22.566406 7.367188 21.792969 7.859375 21.28125 C 8.355469 20.765625 9.074219 20.402344 10.347656 20.402344 L 16.15625 20.402344 C 17.410156 20.402344 18.425781 19.390625 18.425781 18.136719 C 18.425781 17.535156 18.1875 16.957031 17.761719 16.53125 C 17.335938 16.105469 16.757812 15.867188 16.15625 15.867188 L 10.347656 15.867188 C 8.078125 15.867188 6.007812 16.667969 4.59375 18.132812 C 3.183594 19.601562 2.496094 21.621094 2.496094 23.722656 L 2.496094 49.515625 C 2.496094 51.785156 3.164062 53.878906 4.640625 55.3125 C 6.117188 56.75 8.179688 57.339844 10.347656 57.339844 L 13.75 57.339844 C 13.757812 57.339844 13.769531 57.339844 13.777344 57.339844 C 20.898438 57.246094 25.402344 51.191406 25.25 45.039062 C 25.121094 39.792969 21.414062 34.585938 14.632812 32.289062 L 32.023438 11.671875 C 32.828125 10.714844 32.707031 9.285156 31.75 8.480469 C 31.335938 8.132812 30.808594 7.941406 30.269531 7.945312 Z M 46.109375 15.839844 C 46.0625 15.839844 46.011719 15.839844 45.960938 15.84375 C 45.09375 15.882812 44.328125 16.417969 43.984375 17.214844 L 32.242188 44.585938 C 32.242188 44.589844 32.242188 44.59375 32.242188 44.59375 C 30.925781 47.699219 29.867188 49.597656 28.734375 50.953125 C 28.714844 50.976562 28.695312 51 28.679688 51.023438 C 28.273438 51.546875 27.910156 51.980469 27.578125 52.433594 C 27.246094 52.886719 26.652344 53.253906 26.753906 54.734375 C 26.804688 55.472656 27.359375 56.328125 27.875 56.6875 C 28.390625 57.042969 28.792969 57.125 29.152344 57.195312 C 29.867188 57.335938 30.519531 57.339844 31.421875 57.339844 L 52.835938 57.339844 C 55.128906 57.339844 57.273438 56.683594 58.898438 55.3125 C 60.519531 53.9375 61.503906 51.820312 61.503906 49.515625 L 61.503906 23.710938 C 61.503906 21.261719 60.558594 19.054688 58.882812 17.699219 C 57.210938 16.34375 55.070312 15.859375 52.835938 15.859375 C 51.585938 15.859375 50.570312 16.871094 50.570312 18.125 C 50.570312 19.375 51.585938 20.390625 52.835938 20.390625 C 54.394531 20.390625 55.453125 20.753906 56.03125 21.222656 C 56.609375 21.691406 56.972656 22.277344 56.972656 23.710938 L 56.972656 49.515625 C 56.972656 50.640625 56.617188 51.300781 55.96875 51.851562 C 55.320312 52.398438 54.265625 52.804688 52.835938 52.804688 L 32.921875 52.808594 C 34.152344 51.105469 35.246094 49.121094 36.410156 46.375 L 36.414062 46.363281 L 48.152344 19 C 48.644531 17.851562 48.113281 16.519531 46.960938 16.023438 C 46.691406 15.910156 46.402344 15.847656 46.109375 15.839844 Z M 46.109375 15.839844 "/>
</g>
</svg>
