<svg xmlns="http://www.w3.org/2000/svg" xmlns:xlink="http://www.w3.org/1999/xlink" width="64" height="64" viewBox="0 0 64 64" version="1.1">
<defs> <linearGradient id="linear0" gradientUnits="userSpaceOnUse" x1="0" y1="0" x2="0" y2="1" gradientTransform="matrix(55.992188,0,0,56,4.003906,4)"> <stop offset="0" style="stop-color:#ff6666;stop-opacity:1;"/> <stop offset="1" style="stop-color:#d90000;stop-opacity:1;"/> </linearGradient> </defs>
<g id="surface1">
<path style=" stroke:none;fill-rule:nonzero;fill:url(#linear0);fill-opacity:0.560784;" d="M 23.453125 6.214844 C 32.339844 16.65625 49.097656 16.078125 62.914062 19.964844 C 48.445312 27.6875 34.054688 30.371094 18.414062 29.097656 Z M 23.453125 6.214844 "/>
<path style=" stroke:none;fill-rule:nonzero;fill:url(#linear0);fill-opacity:1;" d="M 21.792969 3.5625 C 32.941406 11.554688 48.304688 9.671875 62.648438 10.121094 C 50.480469 21.09375 36.457031 27.207031 20.96875 29.730469 Z M 21.792969 3.5625 "/>
<path style=" stroke:none;fill-rule:evenodd;fill:url(#linear0);fill-opacity:1;" d="M 20.148438 -3.597656 C 21.375 -3.597656 22.363281 -2.75 22.363281 -1.703125 L 22.363281 64.378906 C 22.363281 65.425781 21.375 66.273438 20.148438 66.273438 C 18.925781 66.273438 17.9375 65.425781 17.9375 64.378906 L 17.9375 -1.703125 C 17.9375 -2.75 18.925781 -3.597656 20.148438 -3.597656 Z M 20.148438 -3.597656 "/>
</g>
</svg>
