<svg xmlns="http://www.w3.org/2000/svg" xmlns:xlink="http://www.w3.org/1999/xlink" width="64" height="64" viewBox="0 0 64 64" version="1.1">
<defs> <linearGradient id="linear0" gradientUnits="userSpaceOnUse" x1="0" y1="0" x2="0" y2="1" gradientTransform="matrix(55.992188,0,0,56,4.003906,4)"> <stop offset="0" style="stop-color:#ff6666;stop-opacity:1;"/> <stop offset="1" style="stop-color:#d90000;stop-opacity:1;"/> </linearGradient> </defs>
<g id="surface1">
<path style=" stroke:none;fill-rule:nonzero;fill:url(#linear0);fill-opacity:1;" d="M 8.359375 8.574219 L 8.359375 21.050781 L 13.195312 21.050781 L 13.195312 13.390625 L 20.886719 13.390625 L 20.886719 8.574219 L 8.359375 8.574219 M 43.226562 8.574219 L 43.226562 13.390625 L 50.914062 13.390625 L 50.914062 21.050781 L 55.753906 21.050781 L 55.753906 8.574219 L 43.226562 8.574219 M 8.359375 43.296875 L 8.359375 55.773438 L 20.886719 55.773438 L 20.886719 50.953125 L 13.195312 50.953125 L 13.195312 43.296875 L 8.359375 43.296875 M 50.914062 43.296875 L 50.914062 50.953125 L 43.226562 50.953125 L 43.226562 55.773438 L 55.753906 55.773438 L 55.753906 43.296875 L 50.914062 43.296875 "/>
</g>
</svg>
