<svg xmlns="http://www.w3.org/2000/svg" xmlns:xlink="http://www.w3.org/1999/xlink" width="64" height="64" viewBox="0 0 64 64" version="1.1">
<defs> <linearGradient id="linear0" gradientUnits="userSpaceOnUse" x1="0" y1="0" x2="0" y2="1" gradientTransform="matrix(55.992188,0,0,56,4.003906,4)"> <stop offset="0" style="stop-color:#ff6666;stop-opacity:1;"/> <stop offset="1" style="stop-color:#d90000;stop-opacity:1;"/> </linearGradient> </defs>
<g id="surface1">
<path style=" stroke:none;fill-rule:nonzero;fill:url(#linear0);fill-opacity:0.435294;" d="M 32.1875 -8.261719 C 10.550781 -8.261719 -7.140625 8.636719 -8.445312 29.972656 C -8.039062 30.96875 -7.101562 31.636719 -6.566406 32.613281 L -6.3125 34.984375 L -5.878906 32.789062 L -1.136719 34.792969 L 2.144531 37.851562 L 4.957031 38.265625 C 3.949219 40.554688 1.917969 44.246094 2.285156 46.808594 C 2.503906 48.296875 4.007812 50.417969 4.871094 51.628906 C 6.082031 53.320312 8.359375 54.320312 8.964844 56.445312 L 9.0625 59.953125 L 9.71875 62.582031 C 9.613281 63.503906 8.886719 64.980469 9.027344 66.050781 C 10.890625 67.34375 12.867188 68.480469 14.933594 69.453125 C 15.296875 69.109375 15.25 68.367188 14.921875 67.839844 L 16.523438 65.609375 L 18.5625 64.09375 L 19.992188 59.09375 L 23.078125 57.078125 C 24.339844 55.171875 23.425781 53.585938 23.894531 51.628906 L 25.972656 45.710938 C 23.621094 44.828125 20.261719 43.738281 18.601562 41.769531 L 18.171875 41.992188 L 17.734375 40.023438 L 15.136719 38.707031 L 14.707031 39.140625 L 14.054688 36.082031 L 10.589844 35.792969 L 7.984375 34.363281 C 6.863281 34.203125 5.375 36.054688 4.957031 36.953125 L 3.433594 36.738281 L 3.871094 36.296875 L 2.570312 35.414062 L 2.785156 36.296875 C 1.855469 35.316406 1.691406 34.085938 1.917969 32.785156 L 0.40625 32.128906 L 0.183594 32.785156 C -0.0859375 31.703125 0.0273438 30.300781 0.839844 29.503906 C -0.355469 28.683594 -1.148438 29.453125 -1.976562 30.378906 L -3.714844 26.875 C -4.191406 27.949219 -4.015625 29.023438 -3.925781 30.160156 L -4.367188 30.160156 C -4.460938 28.933594 -4.761719 27.59375 -4.140625 26.4375 C -2.996094 24.277344 0.453125 23.367188 2.570312 23.808594 L 2.347656 24.246094 L 4.304688 26.003906 C 4.308594 22.648438 5.613281 22.300781 7.449219 19.863281 L 8.726562 17.507812 C 10.144531 15.925781 12.355469 14.851562 14.257812 14.136719 L 16.648438 12.640625 C 15.875 11.289062 13.84375 11.671875 12.539062 11.761719 C 14.886719 10.410156 18.074219 11.140625 19.6875 8.699219 C 17.933594 7.410156 17.933594 4.039062 15.136719 5.410156 L 15.570312 4.101562 L 13.183594 2.996094 L 11.445312 6.660156 L 9.066406 9.570312 L 8.851562 8.042969 C 7.9375 7.613281 5.414062 6.855469 5.363281 5.625 C 5.308594 4.292969 9.386719 2.277344 10.375 1.46875 L 9.9375 2.5625 L 11.617188 2.402344 C 11.96875 2.175781 15.347656 -2.640625 15.78125 0.367188 C 18.132812 1.273438 18.398438 2.300781 20.765625 0.8125 L 19.253906 0.148438 C 19.015625 -2.011719 17.121094 -2.035156 15.347656 -2.035156 L 20.980469 -4.664062 C 21.613281 -3.109375 23.578125 -2.792969 24.214844 -1.359375 C 24.667969 -0.339844 23.328125 0.269531 23.363281 1.25 C 23.402344 2.453125 24.558594 3.925781 25.105469 4.972656 L 28.359375 1.375 C 30.160156 0.402344 33.054688 0.292969 34.488281 -1.265625 C 36.144531 -3.082031 35.230469 -5.964844 38.320312 -5.976562 C 37.695312 -6.25 36.683594 -6.449219 36.152344 -5.976562 L 35.496094 -6.640625 L 36.367188 -6.640625 C 35.917969 -7.265625 35.609375 -7.605469 34.855469 -7.738281 C 34.679688 -7.957031 34.445312 -8.105469 34.195312 -8.210938 C 33.53125 -8.246094 32.863281 -8.261719 32.1875 -8.261719 M 51.097656 -1.820312 C 50.335938 -1.195312 49.046875 -0.875 48.070312 -0.722656 L 46.300781 1.734375 L 44.238281 3.472656 C 43.902344 4.269531 44.4375 5.480469 44.59375 6.28125 L 46.765625 5.191406 C 47.078125 6.277344 47.921875 6.558594 48.71875 7.160156 C 50 4.695312 48.894531 2.339844 51.964844 1.023438 L 50.011719 3.4375 L 50.667969 2.996094 L 50.882812 4.308594 L 51.097656 2.5625 C 51.671875 4.535156 51.074219 7.25 48.933594 7.996094 L 46.765625 7.816406 L 46.765625 6.503906 C 45.53125 6.765625 45.578125 7.386719 45.902344 8.476562 C 45.066406 8.234375 44.566406 8.273438 43.953125 8.914062 C 43.289062 8.222656 42.75 7.703125 42.652344 6.722656 C 42.234375 6.300781 42.046875 6.011719 42 5.410156 L 40.484375 5.191406 L 41.132812 8.699219 C 40.550781 7.601562 39.957031 7.328125 38.75 7.59375 L 39.40625 10.226562 L 40.269531 10.011719 L 39.621094 9.789062 L 40.484375 8.25 L 40.914062 10.664062 L 42.867188 10.226562 C 42.324219 10.75 41.886719 10.878906 41.132812 10.878906 L 41.351562 11.535156 L 40.269531 11.535156 L 41.785156 14.167969 C 38.234375 14.195312 38.195312 16.03125 38.320312 18.984375 C 39.011719 19.035156 39.347656 19.144531 39.832031 19.648438 C 42.699219 18.113281 43.363281 15.28125 46.765625 14.386719 C 47.316406 16.125 49.023438 16.023438 48.503906 18.113281 C 50.171875 17.769531 50.644531 16.34375 49.582031 15.042969 C 51.007812 15.902344 51.414062 17.660156 52.398438 18.984375 C 53.085938 18.070312 52.824219 17.023438 53.921875 16.359375 L 53.921875 17.015625 C 55.753906 18.664062 57.019531 19.035156 59.339844 19.867188 C 58.539062 21.007812 57.578125 22.125 56.082031 22.027344 C 54.253906 21.914062 51.921875 20.105469 50.667969 22.269531 L 47.179688 19.476562 C 45.25 18.652344 43.347656 19.433594 41.351562 19.207031 L 40.484375 19.640625 L 40.914062 19.867188 C 36.945312 21.671875 34.742188 26.425781 34.332031 30.375 L 33.574219 33.003906 C 34 35.570312 36.152344 38.230469 37.957031 39.976562 C 39.230469 41.203125 40.144531 38.800781 41.351562 40.015625 C 42.953125 39.40625 45.375 38.335938 46.839844 40.046875 C 47.804688 41.171875 46.796875 42.105469 47.132812 43.304688 C 47.714844 45.382812 49.09375 47.820312 49.085938 50.09375 L 48.546875 55.570312 C 49.023438 58.902344 50.851562 61.710938 50.882812 65.210938 C 53.539062 64.933594 56.527344 63.582031 57.996094 61.265625 L 58.632812 59.3125 L 59.730469 57.960938 L 59.316406 55.808594 C 59.933594 54.304688 62.445312 54.140625 62.820312 52.5 C 63.335938 50.257812 61.988281 47.605469 62.789062 45.277344 C 64.027344 41.679688 67.46875 39.042969 67.566406 34.976562 L 64.964844 35.199219 C 67.304688 32.296875 72.257812 30.839844 69.730469 26.433594 L 68.652344 27.75 L 68.21875 27.75 C 67.378906 25.976562 66.050781 25.789062 66.050781 23.589844 C 68.078125 25.351562 70.179688 25.402344 72.117188 27.53125 C 72.292969 27.433594 72.4375 27.308594 72.558594 27.164062 C 71.078125 15.839844 64.960938 5.984375 56.175781 -0.441406 C 54.523438 -0.605469 52.570312 -0.84375 51.535156 -1.816406 L 51.097656 -1.816406 L 51.097656 -1.828125 "/>
<path style=" stroke:none;fill-rule:nonzero;fill:url(#linear0);fill-opacity:1;" d="M 37.433594 17.875 C 39.835938 19.375 41.515625 21.914062 41.824219 24.859375 C 42.804688 25.3125 43.890625 25.578125 45.042969 25.578125 C 49.253906 25.578125 52.664062 22.179688 52.664062 17.988281 C 52.664062 13.800781 49.253906 10.398438 45.042969 10.398438 C 40.875 10.398438 37.496094 13.738281 37.433594 17.875 M 32.4375 33.410156 C 36.648438 33.410156 40.058594 30.011719 40.058594 25.824219 C 40.058594 21.632812 36.644531 18.234375 32.4375 18.234375 C 28.226562 18.234375 24.816406 21.632812 24.816406 25.824219 C 24.816406 30.011719 28.226562 33.410156 32.4375 33.410156 M 35.671875 33.925781 L 29.207031 33.925781 C 23.828125 33.925781 19.449219 38.285156 19.449219 43.648438 L 19.449219 51.519531 L 19.472656 51.644531 L 20.011719 51.8125 C 25.144531 53.410156 29.609375 53.945312 33.277344 53.945312 C 40.449219 53.945312 44.605469 51.910156 44.863281 51.78125 L 45.375 51.519531 L 45.425781 51.519531 L 45.425781 43.648438 C 45.429688 38.285156 41.050781 33.925781 35.671875 33.925781 M 48.28125 26.09375 L 41.863281 26.09375 C 41.796875 28.648438 40.699219 30.953125 38.96875 32.609375 C 43.75 34.023438 47.246094 38.4375 47.246094 43.660156 L 47.246094 46.085938 C 53.578125 45.855469 57.230469 44.066406 57.46875 43.941406 L 57.980469 43.6875 L 58.03125 43.6875 L 58.03125 35.808594 C 58.03125 30.453125 53.660156 26.09375 48.28125 26.09375 M 19.066406 25.578125 C 20.554688 25.578125 21.949219 25.144531 23.117188 24.410156 C 23.492188 21.980469 24.796875 19.863281 26.667969 18.414062 C 26.671875 18.273438 26.683594 18.132812 26.683594 17.988281 C 26.683594 13.800781 23.277344 10.398438 19.066406 10.398438 C 14.859375 10.398438 11.445312 13.800781 11.445312 17.988281 C 11.445312 22.179688 14.859375 25.578125 19.066406 25.578125 M 25.910156 32.609375 C 24.183594 30.964844 23.09375 28.671875 23.015625 26.132812 C 22.777344 26.109375 22.539062 26.09375 22.300781 26.09375 L 15.832031 26.09375 C 10.453125 26.09375 6.074219 30.453125 6.074219 35.808594 L 6.074219 43.6875 L 6.097656 43.804688 L 6.640625 43.976562 C 10.761719 45.261719 14.433594 45.847656 17.625 46.035156 L 17.625 43.660156 C 17.632812 38.4375 21.128906 34.027344 25.910156 32.609375 "/>
</g>
</svg>
