<svg xmlns="http://www.w3.org/2000/svg" xmlns:xlink="http://www.w3.org/1999/xlink" width="64" height="64" viewBox="0 0 64 64" version="1.1">
<defs> <linearGradient id="linear0" gradientUnits="userSpaceOnUse" x1="0" y1="0" x2="0" y2="1" gradientTransform="matrix(55.992188,0,0,56,4.003906,4)"> <stop offset="0" style="stop-color:#ff6666;stop-opacity:1;"/> <stop offset="1" style="stop-color:#d90000;stop-opacity:1;"/> </linearGradient> </defs>
<g id="surface1">
<path style=" stroke:none;fill-rule:nonzero;fill:url(#linear0);fill-opacity:1;" d="M 45.980469 8.359375 L 42.566406 15.003906 L 35.164062 16.140625 L 40.445312 21.429688 L 39.246094 28.792969 L 45.925781 25.414062 L 52.585938 28.824219 L 51.425781 21.457031 L 56.742188 16.207031 L 49.347656 15.027344 L 45.976562 8.363281 M 17.097656 8.90625 C 11.726562 8.90625 7.363281 13.238281 7.363281 18.59375 C 7.363281 23.945312 11.726562 28.28125 17.097656 28.28125 C 22.476562 28.28125 26.832031 23.945312 26.832031 18.59375 C 26.832031 13.238281 22.476562 8.90625 17.097656 8.90625 M 37.066406 36.601562 C 36.597656 36.601562 36.21875 36.980469 36.21875 37.445312 L 36.21875 55.140625 C 36.21875 55.609375 36.597656 55.980469 37.066406 55.980469 L 54.835938 55.980469 C 55.304688 55.980469 55.679688 55.609375 55.679688 55.140625 L 55.679688 37.445312 C 55.679688 36.980469 55.304688 36.601562 54.835938 36.601562 Z M 17.101562 37.851562 L 12.152344 46.191406 L 7.371094 54.636719 L 17.097656 54.734375 L 26.832031 54.636719 L 22.050781 46.191406 L 17.097656 37.851562 "/>
</g>
</svg>
