<svg xmlns="http://www.w3.org/2000/svg" xmlns:xlink="http://www.w3.org/1999/xlink" width="64" height="64" viewBox="0 0 64 64" version="1.1">
<defs>
<linearGradient id="linear0" gradientUnits="userSpaceOnUse" x1="0" y1="0" x2="0" y2="1" gradientTransform="matrix(39.832031,0,0,32,0,26)">
<stop offset="0" style="stop-color:#ff6666;stop-opacity:1;"/>
<stop offset="1" style="stop-color:#d90000;stop-opacity:1;"/>
</linearGradient>
<linearGradient id="linear1" gradientUnits="userSpaceOnUse" x1="0" y1="0" x2="0" y2="1" gradientTransform="matrix(52,0,0,39.332031,12,6)">
<stop offset="0" style="stop-color:#ff6666;stop-opacity:1;"/>
<stop offset="1" style="stop-color:#d90000;stop-opacity:1;"/>
</linearGradient>
<linearGradient id="linear2" gradientUnits="userSpaceOnUse" x1="0" y1="0" x2="0" y2="1" gradientTransform="matrix(23.378906,0,0,25.359375,33.375,34.144531)">
<stop offset="0" style="stop-color:#ff6666;stop-opacity:1;"/>
<stop offset="1" style="stop-color:#d90000;stop-opacity:1;"/>
</linearGradient>
</defs>
<g id="surface1">
<path style=" stroke:none;fill-rule:nonzero;fill:url(#linear0);" d="M 31.144531 57.785156 C 29.097656 58.007812 26.761719 57.96875 24.023438 58 L 15.976562 58 C 10.945312 57.941406 7.261719 58.125 4.253906 56.460938 C 2.742188 55.632812 1.554688 54.222656 0.898438 52.46875 C 0.238281 50.714844 0 48.632812 0 46 L 0 38 C 0 35.367188 0.238281 33.285156 0.898438 31.53125 C 1.554688 29.777344 2.742188 28.367188 4.253906 27.539062 C 7.261719 25.875 10.945312 26.058594 15.976562 26 L 24.023438 26 C 29.054688 26.058594 32.738281 25.875 35.753906 27.539062 C 37.257812 28.367188 38.445312 29.777344 39.101562 31.53125 C 39.472656 32.597656 39.695312 33.707031 39.832031 34.929688 C 38.375 34.375 36.8125 33.753906 35.359375 32.9375 C 34.96875 31.894531 34.546875 31.453125 33.8125 31.046875 C 32.347656 30.238281 29.035156 30.058594 24 30 L 16 30 C 10.964844 30.058594 7.644531 30.238281 6.179688 31.046875 C 5.449219 31.453125 5.03125 31.894531 4.640625 32.9375 C 4.253906 33.976562 4 35.632812 4 38 L 4 46 C 4 48.367188 4.253906 50.023438 4.640625 51.0625 C 5.03125 52.105469 5.449219 52.546875 6.179688 52.953125 C 7.644531 53.761719 10.964844 53.941406 16 54 L 24 54 C 26.964844 53.964844 29.335938 53.886719 31.085938 53.667969 C 31.253906 55.253906 31.3125 56.253906 31.144531 57.785156 Z M 31.144531 57.785156 "/>
<path style=" stroke:none;fill-rule:nonzero;fill:url(#linear1);" d="M 27.976562 6 C 22.945312 6.058594 19.261719 5.875 16.253906 7.539062 C 14.742188 8.367188 13.554688 9.777344 12.898438 11.53125 C 12.238281 13.285156 12 15.367188 12 18 L 12 22 L 16 22 L 16 18 C 16 15.632812 16.253906 13.976562 16.640625 12.9375 C 17.03125 11.894531 17.449219 11.453125 18.179688 11.046875 C 19.644531 10.238281 22.964844 10.058594 28 10 L 48 10 C 53.035156 10.058594 56.347656 10.238281 57.8125 11.046875 C 58.546875 11.453125 58.96875 11.894531 59.359375 12.9375 C 59.746094 13.976562 60 15.632812 60 18 L 60 34 C 60 36.367188 59.746094 38.023438 59.359375 39.0625 C 58.96875 40.105469 58.550781 40.546875 57.820312 40.953125 C 57.007812 41.402344 55.621094 41.65625 53.6875 41.804688 C 55.0625 43.5 56.125 44.3125 57.585938 45.332031 C 58.347656 45.121094 59.066406 44.839844 59.753906 44.460938 C 61.257812 43.632812 62.445312 42.222656 63.101562 40.46875 C 63.761719 38.714844 64 36.632812 64 34 L 64 18 C 64 15.367188 63.761719 13.285156 63.101562 11.53125 C 62.445312 9.777344 61.257812 8.367188 59.753906 7.539062 C 56.738281 5.875 53.054688 6.058594 48.023438 6 Z M 27.976562 6 "/>
<path style=" stroke:none;fill-rule:nonzero;fill:url(#linear2);" d="M 33.375 34.144531 L 33.375 59.503906 C 33.375 59.503906 46.234375 54.304688 56.753906 46.816406 C 56.753906 46.816406 56.746094 46.8125 56.746094 46.808594 C 56.746094 46.804688 56.742188 46.804688 56.742188 46.800781 C 56.738281 46.796875 56.738281 46.796875 56.734375 46.792969 C 56.734375 46.789062 56.734375 46.789062 56.734375 46.785156 C 45.648438 39.054688 33.375 34.144531 33.375 34.144531 Z M 33.375 34.144531 "/>
</g>
</svg>
