<svg xmlns="http://www.w3.org/2000/svg" xmlns:xlink="http://www.w3.org/1999/xlink" width="64" height="64" viewBox="0 0 64 64" version="1.1">
<defs> <linearGradient id="linear0" gradientUnits="userSpaceOnUse" x1="0" y1="0" x2="0" y2="1" gradientTransform="matrix(55.992188,0,0,56,4.003906,4)"> <stop offset="0" style="stop-color:#ff6666;stop-opacity:1;"/> <stop offset="1" style="stop-color:#d90000;stop-opacity:1;"/> </linearGradient> </defs>
<g id="surface1">
<path style=" stroke:none;fill-rule:nonzero;fill:url(#linear0);fill-opacity:1;" d="M 12.730469 7.738281 L 51.394531 7.738281 C 56.96875 7.738281 61.492188 12.238281 61.492188 17.796875 L 61.492188 46.539062 C 61.492188 52.097656 56.96875 56.597656 51.394531 56.597656 L 12.730469 56.597656 C 7.152344 56.597656 2.628906 52.097656 2.628906 46.539062 L 2.628906 17.796875 C 2.628906 12.238281 7.152344 7.738281 12.730469 7.738281 Z M 12.730469 7.738281 "/>
<path style=" stroke:none;fill-rule:nonzero;fill:url(#linear0);fill-opacity:1;" d="M 41.164062 14.601562 L 41.164062 40.730469 C 41.164062 43.425781 38.988281 45.605469 36.277344 45.605469 L 10.027344 45.605469 L 10.027344 45.695312 C 10.027344 47.933594 11.839844 49.746094 14.085938 49.746094 L 50.023438 49.746094 C 52.273438 49.746094 54.085938 47.933594 54.085938 45.695312 L 54.085938 18.652344 C 54.085938 16.40625 52.273438 14.601562 50.023438 14.601562 L 41.164062 14.601562 "/>
<path style=" stroke:none;fill-rule:nonzero;fill:url(#linear0);fill-opacity:1;" d="M 34.214844 42.71875 C 36.464844 42.71875 38.273438 40.917969 38.273438 38.671875 L 38.273438 14.601562 L 10.027344 42.726562 L 34.207031 42.726562 "/>
</g>
</svg>
