<svg xmlns="http://www.w3.org/2000/svg" xmlns:xlink="http://www.w3.org/1999/xlink" width="64" height="64" viewBox="0 0 64 64" version="1.1">
<defs>
<linearGradient id="linear0" gradientUnits="userSpaceOnUse" x1="0" y1="0" x2="0" y2="1" gradientTransform="matrix(44.203125,0,0,60,12,2)">
<stop offset="0" style="stop-color:#ff6666;stop-opacity:1;"/>
<stop offset="1" style="stop-color:#d90000;stop-opacity:1;"/>
</linearGradient>
</defs>
<g id="surface1">
<path style=" stroke:none;fill-rule:nonzero;fill:url(#linear0);" d="M 34.085938 2 C 31.835938 2 29.949219 3.28125 29.082031 5.082031 C 27.371094 3.925781 24.980469 3.699219 23.046875 4.769531 C 21.105469 5.820312 20.085938 7.835938 20.277344 9.792969 C 18.199219 9.777344 16.027344 10.589844 14.921875 12.390625 C 13.796875 14.214844 14.027344 16.449219 15.273438 18.058594 C 13.355469 18.863281 12 20.648438 12 22.753906 C 12 24.855469 13.355469 26.648438 15.273438 27.453125 C 14.042969 29.066406 13.796875 31.28125 14.921875 33.121094 C 16.027344 34.921875 18.199219 35.890625 20.277344 35.71875 C 20.085938 37.683594 21.105469 39.695312 23.046875 40.742188 C 23.550781 41.015625 24.085938 41.167969 24.628906 41.269531 L 24.628906 62 L 34.101562 52.527344 L 43.574219 62 L 43.574219 41.320312 C 44.125 41.253906 44.65625 41.113281 45.160156 40.742188 C 47.101562 39.691406 48.117188 37.675781 47.929688 35.71875 C 50.003906 35.734375 52.175781 34.921875 53.285156 33.121094 C 54.40625 31.296875 54.179688 29.066406 52.929688 27.453125 C 54.851562 26.648438 56.203125 24.859375 56.203125 22.753906 C 56.203125 20.648438 54.851562 18.863281 52.929688 18.058594 C 54.160156 16.449219 54.40625 14.230469 53.285156 12.390625 C 52.175781 10.589844 50.003906 9.621094 47.929688 9.792969 C 48.117188 7.832031 47.101562 5.816406 45.160156 4.769531 C 43.21875 3.71875 40.832031 3.929688 39.121094 5.082031 C 38.253906 3.28125 36.367188 2 34.117188 2 L 34.078125 2 Z M 34.085938 9.6875 C 41.699219 9.6875 47.902344 15.496094 47.902344 22.660156 C 47.902344 29.824219 41.71875 35.617188 34.085938 35.617188 C 26.46875 35.617188 20.277344 29.820312 20.277344 22.660156 C 20.277344 15.492188 26.453125 9.6875 34.085938 9.6875 Z M 34.085938 12.285156 C 27.992188 12.285156 23.046875 16.929688 23.046875 22.660156 C 23.046875 28.386719 27.992188 33.027344 34.085938 33.027344 C 40.179688 33.027344 45.128906 28.386719 45.128906 22.660156 C 45.128906 16.929688 40.179688 12.285156 34.085938 12.285156 Z M 34.085938 12.285156 "/>
</g>
</svg>
