<svg xmlns="http://www.w3.org/2000/svg" xmlns:xlink="http://www.w3.org/1999/xlink" width="64" height="64" viewBox="0 0 64 64" version="1.1">
<defs> <linearGradient id="linear0" gradientUnits="userSpaceOnUse" x1="0" y1="0" x2="0" y2="1" gradientTransform="matrix(55.992188,0,0,56,4.003906,4)"> <stop offset="0" style="stop-color:#ff6666;stop-opacity:1;"/> <stop offset="1" style="stop-color:#d90000;stop-opacity:1;"/> </linearGradient> </defs>
<g id="surface1">
<path style=" stroke:none;fill-rule:nonzero;fill:url(#linear0);fill-opacity:1;" d="M 9.5 22.394531 C 12.601562 17.527344 14.203125 16.496094 18.710938 16.496094 L 23.03125 16.496094 L 20.589844 37.273438 C 20.214844 39.898438 18.996094 41.957031 15.796875 44.859375 C 12.882812 47.476562 12.039062 48.976562 12.039062 51.035156 C 12.039062 53.84375 14.292969 56.179688 17.207031 56.179688 C 20.117188 56.179688 22.375 54.03125 23.59375 50.003906 C 24.441406 47.574219 25.757812 38.027344 26.605469 28.570312 L 27.734375 16.496094 L 37.980469 16.496094 C 36.847656 23.894531 36.003906 34 36.003906 39.339844 C 36.003906 49.816406 39.574219 56.1875 45.3125 56.1875 C 48.972656 56.1875 52.261719 53.65625 54.515625 49.257812 C 55.832031 46.640625 56.207031 44.859375 56.492188 40.179688 L 54.238281 40.179688 C 53.765625 44.671875 51.984375 47.011719 48.878906 47.011719 C 46.996094 47.011719 45.027344 45.699219 43.992188 43.734375 C 43.148438 42.054688 42.863281 40.554688 42.863281 37.464844 C 42.863281 30.351562 43.335938 21.648438 43.992188 16.496094 L 55.832031 16.496094 L 55.832031 8.171875 L 22.941406 8.171875 C 17.863281 8.171875 16.074219 8.820312 13.355469 11.445312 C 10.71875 14.066406 9.214844 16.78125 7.621094 22.394531 L 9.5 22.394531 "/>
</g>
</svg>
