<svg xmlns="http://www.w3.org/2000/svg" xmlns:xlink="http://www.w3.org/1999/xlink" width="64" height="64" viewBox="0 0 64 64" version="1.1">
<defs>
<filter id="alpha" filterUnits="objectBoundingBox" x="0%" y="0%" width="100%" height="100%">
  <feColorMatrix type="matrix" in="SourceGraphic" values="0 0 0 0 1 0 0 0 0 1 0 0 0 0 1 0 0 0 1 0"/>
</filter>
<mask id="mask0">
  <g filter="url(#alpha)">
<rect x="0" y="0" width="64" height="64" style="fill:rgb(0%,0%,0%);fill-opacity:0.6;stroke:none;"/>
  </g>
</mask>
<linearGradient id="linear0" gradientUnits="userSpaceOnUse" x1="0" y1="0" x2="0" y2="1" gradientTransform="matrix(61.734375,0,0,53.335938,2,5.1875)">
<stop offset="0" style="stop-color:#ff6666;stop-opacity:1;"/>
<stop offset="1" style="stop-color:#d90000;stop-opacity:1;"/>
</linearGradient>
<clipPath id="clip1">
  <rect x="0" y="0" width="64" height="64"/>
</clipPath>
<g id="surface5" clip-path="url(#clip1)">
<path style=" stroke:none;fill-rule:evenodd;fill:url(#linear0);" d="M 49.265625 5.1875 L 45.265625 5.273438 C 45.34375 9.015625 44.964844 12.671875 44.382812 16.273438 C 44.902344 16.125 45.4375 16.015625 46 16.015625 C 46.855469 16.015625 47.664062 16.207031 48.40625 16.535156 C 48.980469 12.824219 49.34375 9.050781 49.265625 5.1875 Z M 17.53125 6.234375 C 17.074219 11.730469 16.960938 17.246094 17.1875 22.757812 C 18.03125 22.300781 18.980469 22.015625 20 22.015625 C 20.402344 22.015625 20.800781 22.0625 21.1875 22.140625 C 20.988281 17.105469 21.066406 11.914062 21.515625 6.570312 Z M 2.0625 13.625 L 2 13.710938 L 2 18.476562 C 5.800781 21.195312 9.667969 23.828125 13.59375 26.367188 C 9.542969 28.039062 5.664062 30.089844 2 32.488281 L 2 37.164062 L 2.0625 37.253906 C 5.949219 34.507812 10.128906 32.210938 14.523438 30.398438 C 14.179688 29.644531 14.003906 28.828125 14 28 C 14 26.09375 14.933594 24.394531 16.34375 23.296875 C 11.496094 20.203125 6.730469 16.980469 2.0625 13.625 Z M 63.648438 18.515625 C 59.488281 18.609375 55.328125 18.78125 51.171875 19.03125 C 51.683594 19.910156 52 20.914062 52 22 C 52 22.339844 51.953125 22.667969 51.898438 22.992188 C 55.84375 22.761719 59.789062 22.601562 63.734375 22.511719 Z M 40.390625 19.945312 C 34.523438 20.613281 28.84375 21.605469 23.390625 23.078125 C 24.585938 23.902344 25.457031 25.152344 25.8125 26.59375 C 30.476562 25.414062 35.339844 24.59375 40.371094 24 C 40.132812 23.359375 40.007812 22.683594 40 22 C 40 21.28125 40.152344 20.589844 40.390625 19.945312 Z M 46 20.015625 C 45.46875 20.003906 44.957031 20.210938 44.578125 20.585938 C 44.203125 20.960938 43.992188 21.46875 44 22 C 43.988281 22.714844 44.367188 23.378906 44.988281 23.734375 C 45.609375 24.089844 46.375 24.074219 46.984375 23.703125 C 47.023438 23.558594 47.070312 23.425781 47.109375 23.28125 C 47.242188 23.269531 47.386719 23.269531 47.523438 23.257812 C 48.027344 22.671875 48.144531 21.84375 47.816406 21.144531 C 47.488281 20.445312 46.777344 20 46.003906 20.015625 Z M 20 26.015625 C 19.46875 26.003906 18.957031 26.210938 18.578125 26.585938 C 18.203125 26.960938 17.992188 27.46875 18 28 C 17.992188 28.53125 18.203125 29.039062 18.578125 29.414062 C 18.957031 29.789062 19.46875 29.996094 20 29.984375 C 20.53125 29.996094 21.042969 29.789062 21.421875 29.414062 C 21.796875 29.039062 22.007812 28.53125 22 28 C 22.007812 27.46875 21.796875 26.960938 21.421875 26.585938 C 21.042969 26.210938 20.53125 26.003906 20 26.015625 Z M 41.992188 26.414062 C 41.382812 28.308594 40.699219 30.175781 39.945312 32.007812 L 40 32 C 41.402344 32 42.691406 32.507812 43.71875 33.328125 C 44.441406 31.5625 45.097656 29.777344 45.6875 27.953125 C 44.316406 27.878906 43.007812 27.335938 41.992188 26.410156 Z M 25.90625 28.921875 C 25.6875 30.289062 25 31.535156 23.960938 32.453125 C 27.238281 34.230469 30.605469 35.882812 34.0625 37.367188 C 34.210938 35.957031 34.832031 34.683594 35.796875 33.734375 C 32.429688 32.285156 29.128906 30.675781 25.90625 28.921875 Z M 22.34375 33.492188 C 21.621094 33.804688 20.832031 33.984375 20 33.984375 C 19.371094 33.984375 18.78125 33.851562 18.210938 33.671875 C 18.746094 36.964844 19.511719 40.136719 20.476562 43.1875 C 21.472656 42.460938 22.683594 42.015625 24 42.015625 C 24.109375 42.015625 24.207031 42.039062 24.3125 42.046875 C 23.464844 39.242188 22.804688 36.382812 22.34375 33.492188 Z M 40 36 C 39.46875 35.988281 38.957031 36.195312 38.578125 36.566406 C 38.203125 36.945312 37.992188 37.453125 38 37.984375 C 38 38.8125 38.480469 39.503906 39.195312 39.804688 C 39.273438 39.722656 39.359375 39.65625 39.4375 39.570312 C 39.757812 39.6875 40.09375 39.777344 40.414062 39.890625 C 41.335938 39.722656 42.003906 38.921875 42 37.984375 C 42.007812 37.453125 41.796875 36.945312 41.421875 36.566406 C 41.042969 36.195312 40.53125 35.988281 40 36 Z M 45.945312 37.460938 C 45.960938 37.636719 46 37.804688 46 37.984375 C 46 39.234375 45.605469 40.394531 44.9375 41.359375 C 50.945312 43.109375 57.175781 44.210938 63.648438 44.351562 L 63.734375 40.351562 C 57.628906 40.21875 51.695312 39.148438 45.945312 37.460938 Z M 34.125 39.1875 C 32.203125 40.863281 30.089844 42.289062 27.84375 43.453125 C 28.882812 44.332031 29.625 45.527344 29.882812 46.90625 C 32.160156 45.710938 34.296875 44.273438 36.265625 42.617188 C 35.175781 41.757812 34.421875 40.542969 34.125 39.1875 Z M 24 46.015625 C 23.46875 46.003906 22.957031 46.210938 22.578125 46.585938 C 22.203125 46.960938 21.992188 47.46875 22 48 C 21.992188 48.53125 22.203125 49.039062 22.578125 49.414062 C 22.957031 49.789062 23.46875 49.996094 24 49.984375 C 24.53125 49.996094 25.042969 49.789062 25.421875 49.414062 C 25.796875 49.039062 26.007812 48.53125 26 48 C 26.007812 47.46875 25.796875 46.960938 25.421875 46.585938 C 25.042969 46.210938 24.53125 46.003906 24 46.015625 Z M 18.109375 46.976562 C 17.527344 47.125 16.9375 47.328125 16.367188 47.445312 C 12.65625 48.207031 9.191406 48.492188 6.539062 48.476562 C 5.445312 48.476562 4.347656 48.402344 3.265625 48.257812 C 2.449219 48.136719 1.875 47.878906 2.046875 47.984375 L 2 48.0625 L 2 52.09375 C 2.222656 52.132812 2.429688 52.179688 2.679688 52.21875 C 3.753906 52.378906 5.039062 52.46875 6.515625 52.476562 C 9.46875 52.492188 13.171875 52.1875 17.171875 51.367188 C 17.703125 51.257812 18.269531 51.058594 18.8125 50.929688 C 18.289062 50.039062 18.007812 49.03125 18 48 C 18 47.648438 18.050781 47.308594 18.109375 46.976562 Z M 28.578125 51.804688 C 27.691406 52.878906 26.457031 53.613281 25.085938 53.875 C 26.027344 55.484375 27.042969 57.042969 28.1875 58.523438 L 31.347656 56.070312 C 30.324219 54.71875 29.398438 53.292969 28.578125 51.804688 Z M 28.578125 51.804688 "/>
</g>
<linearGradient id="linear1" gradientUnits="userSpaceOnUse" x1="0" y1="0" x2="0" y2="1" gradientTransform="matrix(64,0,0,56,0,4)">
<stop offset="0" style="stop-color:#ff6666;stop-opacity:1;"/>
<stop offset="1" style="stop-color:#d90000;stop-opacity:1;"/>
</linearGradient>
</defs>
<g id="surface1">
<use xlink:href="#surface5" mask="url(#mask0)"/>
<path style=" stroke:none;fill-rule:nonzero;fill:url(#linear1);" d="M 15.976562 4 C 10.945312 4.058594 7.261719 3.878906 4.246094 5.539062 C 2.691406 6.429688 1.503906 7.84375 0.898438 9.53125 C 0.238281 11.285156 0 13.371094 0 16 L 0 48 C 0 50.632812 0.238281 52.714844 0.898438 54.46875 C 1.554688 56.222656 2.742188 57.628906 4.246094 58.460938 C 7.261719 60.125 10.945312 59.941406 15.976562 60 L 48.023438 60 C 53.054688 59.941406 56.738281 60.121094 59.753906 58.460938 C 61.308594 57.570312 62.5 56.15625 63.105469 54.46875 C 63.761719 52.714844 64 50.628906 64 48 L 64 16 C 64 13.367188 63.761719 11.285156 63.101562 9.53125 C 62.496094 7.84375 61.308594 6.429688 59.753906 5.539062 C 56.738281 3.875 53.054688 4.058594 48.023438 4 Z M 16 8 L 48 8 C 53.035156 8.058594 56.347656 8.238281 57.8125 9.046875 C 58.546875 9.449219 58.972656 9.894531 59.359375 10.9375 C 59.746094 11.976562 60 13.632812 60 16 L 60 48 C 60 50.367188 59.746094 52.023438 59.359375 53.0625 C 58.96875 54.105469 58.546875 54.546875 57.8125 54.953125 C 56.347656 55.761719 53.035156 55.941406 48 56 L 16 56 C 10.964844 55.941406 7.640625 55.761719 6.179688 54.953125 C 5.449219 54.550781 5.03125 54.105469 4.640625 53.0625 C 4.253906 52.023438 4 50.367188 4 48 L 4 16 C 4 13.632812 4.253906 11.976562 4.640625 10.9375 C 5.03125 9.894531 5.449219 9.453125 6.179688 9.046875 C 7.644531 8.238281 10.964844 8.058594 16 8 Z M 16 8 "/>
<path style=" stroke:none;fill-rule:nonzero;fill:rgb(95.294118%,30.980393%,9.019608%);fill-opacity:1;" d="M 36.167969 12 C 29.796875 11.988281 24.035156 15.78125 21.53125 21.636719 C 15.933594 24.074219 12 29.683594 12 36.167969 C 12 44.890625 19.109375 52 27.832031 52 C 34.316406 52 39.925781 48.066406 42.363281 42.46875 C 48.21875 39.964844 52.011719 34.203125 52 27.832031 C 52 19.105469 44.894531 12 36.167969 12 Z M 36.167969 15.332031 C 43.101562 15.332031 48.667969 20.898438 48.667969 27.832031 C 48.683594 31.851562 46.765625 35.632812 43.507812 37.992188 C 43.578125 37.390625 43.667969 36.785156 43.667969 36.167969 C 43.667969 31.285156 41.429688 26.941406 37.9375 24.03125 C 38.402344 23.457031 38.660156 22.738281 38.667969 22 C 39.085938 20.742188 38.71875 19.359375 37.738281 18.472656 C 36.761719 17.585938 35.347656 17.359375 34.140625 17.894531 C 32.929688 18.4375 32.152344 19.636719 32.15625 20.960938 C 30.753906 20.546875 29.296875 20.335938 27.832031 20.332031 C 27.214844 20.332031 26.609375 20.414062 26.007812 20.492188 C 28.367188 17.234375 32.148438 15.316406 36.167969 15.332031 Z M 43.667969 20.332031 C 42.746094 20.332031 42 21.085938 42 22 C 42 22.914062 42.746094 23.667969 43.667969 23.667969 C 44.585938 23.667969 45.332031 22.914062 45.332031 22 C 45.332031 21.085938 44.585938 20.332031 43.667969 20.332031 Z M 27.832031 23.667969 C 34.753906 23.667969 40.332031 29.246094 40.332031 36.167969 C 40.335938 37.621094 40.09375 39.066406 39.605469 40.441406 C 37.816406 45.390625 33.101562 48.6875 27.832031 48.667969 C 24.515625 48.671875 21.332031 47.355469 18.988281 45.011719 C 16.644531 42.667969 15.328125 39.484375 15.332031 36.167969 C 15.3125 31.058594 18.40625 26.457031 23.148438 24.550781 C 23.246094 24.527344 23.359375 24.492188 23.460938 24.449219 C 24.859375 23.933594 26.339844 23.667969 27.832031 23.667969 Z M 44.5 25.332031 C 43.121094 25.332031 42 26.453125 42 27.832031 C 42 29.214844 43.121094 30.332031 44.5 30.332031 C 45.878906 30.332031 47 29.214844 47 27.832031 C 47 26.453125 45.878906 25.332031 44.5 25.332031 Z M 23.667969 28.667969 C 21.824219 28.667969 20.332031 30.160156 20.332031 32 C 20.332031 33.839844 21.824219 35.332031 23.667969 35.332031 C 25.507812 35.332031 27 33.839844 27 32 C 27 30.160156 25.507812 28.667969 23.667969 28.667969 Z M 32 28.667969 C 31.085938 28.667969 30.332031 29.414062 30.332031 30.332031 C 30.332031 31.253906 31.085938 32 32 32 C 32.914062 32 33.667969 31.253906 33.667969 30.332031 C 33.667969 29.414062 32.914062 28.667969 32 28.667969 Z M 34.5 33.667969 C 33.121094 33.667969 32 34.785156 32 36.167969 C 32 37.546875 33.121094 38.667969 34.5 38.667969 C 35.878906 38.667969 37 37.546875 37 36.167969 C 37 34.785156 35.878906 33.667969 34.5 33.667969 Z M 22 38.667969 C 21.085938 38.667969 20.332031 39.414062 20.332031 40.332031 C 20.332031 41.253906 21.085938 42 22 42 C 22.914062 42 23.667969 41.253906 23.667969 40.332031 C 23.667969 39.414062 22.914062 38.667969 22 38.667969 Z M 28.667969 42 C 27.746094 42 27 42.753906 27 43.667969 C 27 44.585938 27.746094 45.332031 28.667969 45.332031 C 29.585938 45.332031 30.332031 44.585938 30.332031 43.667969 C 30.332031 42.753906 29.585938 42 28.667969 42 Z M 28.667969 42 "/>
</g>
</svg>
