<svg xmlns="http://www.w3.org/2000/svg" xmlns:xlink="http://www.w3.org/1999/xlink" width="64" height="64" viewBox="0 0 64 64" version="1.1">
<defs> <linearGradient id="linear0" gradientUnits="userSpaceOnUse" x1="0" y1="0" x2="0" y2="1" gradientTransform="matrix(55.992188,0,0,56,4.003906,4)"> <stop offset="0" style="stop-color:#ff6666;stop-opacity:1;"/> <stop offset="1" style="stop-color:#d90000;stop-opacity:1;"/> </linearGradient> </defs>
<g id="surface1">
<path style=" stroke:none;fill-rule:nonzero;fill:url(#linear0);fill-opacity:1;" d="M 32.054688 3.273438 C 21.289062 3.273438 12.554688 11.964844 12.554688 22.695312 C 12.554688 33.417969 21.289062 42.105469 32.054688 42.105469 C 42.824219 42.105469 51.558594 33.417969 51.558594 22.695312 C 51.558594 11.964844 42.824219 3.273438 32.054688 3.273438 M 32.054688 6.214844 C 41.195312 6.214844 48.597656 13.589844 48.597656 22.695312 C 48.597656 31.789062 41.195312 39.164062 32.054688 39.164062 C 22.917969 39.164062 15.511719 31.789062 15.511719 22.695312 C 15.511719 13.59375 22.917969 6.214844 32.054688 6.214844 M 32.054688 11.304688 C 28.976562 11.304688 26.472656 13.78125 26.445312 16.839844 C 26.445312 16.859375 26.445312 16.871094 26.445312 16.886719 L 26.445312 19.121094 L 28.550781 19.121094 L 28.550781 16.972656 C 28.570312 15.054688 30.128906 13.511719 32.054688 13.511719 C 33.980469 13.511719 35.542969 15.054688 35.558594 16.972656 L 35.558594 19.121094 L 37.667969 19.121094 L 37.667969 16.886719 C 37.667969 16.871094 37.667969 16.859375 37.667969 16.839844 C 37.644531 13.78125 35.140625 11.304688 32.054688 11.304688 M 26.710938 20.5 C 25.109375 20.5 23.816406 21.777344 23.816406 23.375 L 23.816406 31.195312 C 23.816406 32.789062 25.109375 34.074219 26.710938 34.074219 L 37.398438 34.074219 C 39 34.074219 40.296875 32.789062 40.296875 31.195312 L 40.296875 23.375 C 40.296875 21.777344 39 20.5 37.398438 20.5 Z M 32.054688 23.621094 C 33.191406 23.621094 34.113281 24.53125 34.113281 25.664062 C 34.113281 26.320312 33.804688 26.90625 33.324219 27.28125 L 33.324219 29.695312 C 33.324219 30.398438 32.761719 30.957031 32.054688 30.957031 C 31.351562 30.957031 30.796875 30.398438 30.796875 29.695312 L 30.796875 27.28125 C 30.308594 26.90625 30 26.320312 30 25.664062 C 30 24.53125 30.921875 23.621094 32.054688 23.621094 M 13.847656 47.511719 L 14.492188 53.296875 L 8.738281 51.660156 L 8.304688 54.445312 L 13.820312 54.886719 L 10.269531 59.660156 L 12.96875 61.070312 L 15.304688 55.796875 L 17.871094 61.070312 L 20.476562 59.660156 L 16.882812 54.886719 L 22.445312 54.445312 L 22.027344 51.660156 L 16.207031 53.296875 L 16.8125 47.511719 L 13.847656 47.511719 M 30.535156 47.511719 L 31.171875 53.296875 L 25.417969 51.660156 L 24.984375 54.445312 L 30.503906 54.886719 L 26.949219 59.660156 L 29.640625 61.070312 L 31.980469 55.796875 L 34.554688 61.070312 L 37.160156 59.660156 L 33.566406 54.886719 L 39.125 54.445312 L 38.710938 51.660156 L 32.886719 53.296875 L 33.488281 47.511719 L 30.535156 47.511719 M 47.214844 47.511719 L 47.847656 53.296875 L 42.089844 51.660156 L 41.664062 54.445312 L 47.183594 54.886719 L 43.636719 59.660156 L 46.320312 61.070312 L 48.667969 55.796875 L 51.234375 61.070312 L 53.839844 59.660156 L 50.238281 54.886719 L 55.800781 54.445312 L 55.390625 51.660156 L 49.5625 53.296875 L 50.171875 47.511719 L 47.214844 47.511719 "/>
</g>
</svg>
