<svg xmlns="http://www.w3.org/2000/svg" xmlns:xlink="http://www.w3.org/1999/xlink" width="64" height="64" viewBox="0 0 64 64" version="1.1">
<defs>
<linearGradient id="linear0" gradientUnits="userSpaceOnUse" x1="0" y1="0" x2="0" y2="1" gradientTransform="matrix(64,0,0,64,0,0)">
<stop offset="0" style="stop-color:#ff6666;stop-opacity:1;"/>
<stop offset="1" style="stop-color:#d90000;stop-opacity:1;"/>
</linearGradient>
</defs>
<g id="surface1">
<path style=" stroke:none;fill-rule:evenodd;fill:url(#linear0);" d="M 32 0 C 28.757812 3.199219 25.65625 6.84375 22.371094 10.027344 L 10.023438 10.027344 L 10.023438 22.371094 C 6.839844 25.65625 3.199219 28.757812 0 32 C 3.199219 35.242188 6.84375 38.46875 10.023438 41.761719 L 10.023438 53.976562 L 22.371094 53.976562 C 25.652344 57.15625 28.757812 60.800781 32 64 C 35.242188 60.800781 38.46875 57.15625 41.761719 53.976562 L 53.976562 53.976562 L 53.976562 41.757812 C 57.15625 38.464844 60.800781 35.242188 64 32 C 60.800781 28.757812 57.15625 25.65625 53.976562 22.371094 L 53.976562 10.027344 L 41.761719 10.027344 C 38.472656 6.84375 35.242188 3.199219 32 0 Z M 31.933594 13.460938 C 22.222656 13.460938 14.351562 21.328125 14.351562 31.039062 C 14.351562 40.746094 22.222656 48.621094 31.933594 48.621094 Z M 31.933594 13.460938 "/>
</g>
</svg>
