<svg xmlns="http://www.w3.org/2000/svg" xmlns:xlink="http://www.w3.org/1999/xlink" width="64" height="64" viewBox="0 0 64 64" version="1.1">
<defs> <linearGradient id="linear0" gradientUnits="userSpaceOnUse" x1="0" y1="0" x2="0" y2="1" gradientTransform="matrix(55.992188,0,0,56,4.003906,4)"> <stop offset="0" style="stop-color:#ff6666;stop-opacity:1;"/> <stop offset="1" style="stop-color:#d90000;stop-opacity:1;"/> </linearGradient> </defs>
<g id="surface1">
<path style=" stroke:none;fill-rule:nonzero;fill:url(#linear0);fill-opacity:1;" d="M 31.515625 -1.550781 C 22.851562 -1.550781 15.875 5.394531 15.875 14.023438 L 15.875 20.128906 C 15.875 21.066406 15.960938 21.988281 16.113281 22.882812 C 16.121094 22.882812 16.113281 22.882812 16.113281 22.882812 C 15.96875 23.015625 15.824219 23.148438 15.679688 23.28125 C 15.535156 23.417969 15.394531 23.554688 15.25 23.695312 C 15.117188 23.832031 14.972656 23.972656 14.835938 24.113281 C 14.824219 24.125 14.816406 24.136719 14.804688 24.152344 C 14.128906 24.855469 13.503906 25.601562 12.921875 26.382812 C 12.804688 26.539062 12.691406 26.699219 12.578125 26.863281 C 12.46875 27.019531 12.355469 27.179688 12.246094 27.339844 C 12.242188 27.355469 12.230469 27.371094 12.21875 27.390625 C 12.128906 27.53125 12.03125 27.671875 11.945312 27.8125 C 11.929688 27.828125 11.917969 27.851562 11.90625 27.871094 C 11.59375 28.367188 11.304688 28.882812 11.03125 29.402344 C 10.9375 29.578125 10.84375 29.753906 10.761719 29.933594 C 10.582031 30.289062 10.417969 30.652344 10.261719 31.023438 C 10.226562 31.109375 10.1875 31.1875 10.152344 31.273438 C 10.113281 31.375 10.066406 31.476562 10.027344 31.578125 C 10.027344 31.578125 10.027344 31.585938 10.027344 31.585938 C 10.011719 31.628906 9.988281 31.679688 9.96875 31.726562 C 9.84375 32.054688 9.726562 32.382812 9.617188 32.714844 C 9.5625 32.875 9.511719 33.03125 9.460938 33.191406 C 9.429688 33.28125 9.40625 33.367188 9.378906 33.453125 C 9.339844 33.59375 9.300781 33.734375 9.261719 33.875 C 9.203125 34.066406 9.152344 34.265625 9.105469 34.464844 C 9.054688 34.65625 9.011719 34.84375 8.972656 35.035156 C 8.964844 35.050781 8.964844 35.070312 8.960938 35.085938 C 8.917969 35.273438 8.878906 35.453125 8.847656 35.632812 C 8.839844 35.65625 8.839844 35.675781 8.835938 35.691406 C 8.800781 35.871094 8.773438 36.046875 8.742188 36.226562 C 8.738281 36.257812 8.730469 36.285156 8.726562 36.3125 C 8.714844 36.382812 8.703125 36.449219 8.691406 36.515625 C 8.675781 36.636719 8.660156 36.761719 8.640625 36.882812 C 8.589844 37.257812 8.546875 37.636719 8.511719 38.019531 C 8.503906 38.078125 8.503906 38.140625 8.5 38.195312 C 8.492188 38.214844 8.492188 38.230469 8.492188 38.246094 C 8.449219 38.828125 8.425781 39.421875 8.425781 40.015625 C 8.425781 40.609375 8.449219 41.203125 8.492188 41.789062 C 8.539062 42.371094 8.609375 42.945312 8.691406 43.519531 C 8.722656 43.710938 8.753906 43.902344 8.785156 44.089844 C 8.851562 44.46875 8.929688 44.839844 9.015625 45.207031 C 9.101562 45.582031 9.199219 45.949219 9.300781 46.3125 C 9.402344 46.671875 9.515625 47.035156 9.636719 47.390625 C 9.761719 47.75 9.890625 48.097656 10.027344 48.449219 C 10.09375 48.625 10.167969 48.800781 10.242188 48.96875 C 10.386719 49.316406 10.539062 49.648438 10.703125 49.988281 C 10.863281 50.320312 11.03125 50.65625 11.214844 50.976562 C 11.480469 51.46875 11.765625 51.945312 12.066406 52.414062 C 12.464844 53.035156 12.894531 53.640625 13.347656 54.21875 C 13.527344 54.445312 13.707031 54.660156 13.890625 54.875 C 13.945312 54.941406 14.003906 55.003906 14.054688 55.066406 C 15.023438 56.179688 16.097656 57.199219 17.261719 58.109375 C 17.550781 58.335938 17.847656 58.554688 18.148438 58.769531 C 18.601562 59.09375 19.0625 59.398438 19.539062 59.6875 C 19.699219 59.78125 19.859375 59.875 20.023438 59.96875 C 20.023438 59.96875 20.023438 59.96875 20.027344 59.96875 C 20.347656 60.152344 20.675781 60.332031 21.003906 60.5 C 21.339844 60.664062 21.667969 60.828125 22.011719 60.980469 C 22.015625 60.988281 22.015625 60.980469 22.015625 60.980469 C 22.1875 61.0625 22.355469 61.140625 22.527344 61.207031 C 22.527344 61.207031 22.53125 61.207031 22.53125 61.207031 C 23.566406 61.644531 24.640625 62.011719 25.746094 62.292969 C 26.117188 62.382812 26.492188 62.46875 26.867188 62.546875 C 27.242188 62.628906 27.621094 62.695312 28 62.75 C 28.574219 62.835938 29.152344 62.90625 29.738281 62.949219 C 29.738281 62.949219 29.738281 62.949219 29.746094 62.949219 C 30.328125 62.996094 30.921875 63.019531 31.515625 63.019531 C 32.515625 63.019531 33.492188 62.957031 34.457031 62.832031 C 34.652344 62.808594 34.84375 62.78125 35.039062 62.75 C 35.382812 62.695312 35.734375 62.632812 36.082031 62.566406 C 36.144531 62.554688 36.207031 62.535156 36.269531 62.527344 C 36.578125 62.464844 36.882812 62.394531 37.179688 62.316406 C 38.136719 62.078125 39.074219 61.777344 39.984375 61.421875 C 40.507812 61.21875 41.023438 60.992188 41.527344 60.75 C 41.527344 60.75 41.527344 60.746094 41.535156 60.746094 C 41.613281 60.703125 41.699219 60.664062 41.777344 60.621094 C 41.921875 60.550781 42.0625 60.484375 42.203125 60.410156 C 42.476562 60.269531 42.75 60.121094 43.011719 59.96875 C 43.335938 59.78125 43.652344 59.589844 43.964844 59.394531 C 44.277344 59.1875 44.582031 58.984375 44.886719 58.769531 C 45.03125 58.667969 45.1875 58.554688 45.332031 58.449219 C 45.332031 58.449219 45.332031 58.449219 45.339844 58.441406 C 45.488281 58.335938 45.628906 58.222656 45.777344 58.109375 C 46.503906 57.539062 47.195312 56.933594 47.847656 56.28125 C 48.371094 55.761719 48.867188 55.214844 49.335938 54.648438 C 49.574219 54.363281 49.804688 54.070312 50.023438 53.777344 C 51.574219 51.710938 52.785156 49.375 53.574219 46.855469 C 53.6875 46.492188 53.789062 46.128906 53.886719 45.761719 C 54.359375 43.925781 54.613281 42.003906 54.613281 40.015625 C 54.613281 39.683594 54.601562 39.355469 54.589844 39.027344 C 54.585938 38.964844 54.585938 38.898438 54.578125 38.835938 C 54.574219 38.738281 54.566406 38.648438 54.5625 38.550781 C 54.554688 38.4375 54.550781 38.328125 54.539062 38.214844 C 54.527344 38.070312 54.515625 37.9375 54.503906 37.800781 C 54.5 37.753906 54.492188 37.710938 54.492188 37.664062 C 54.476562 37.535156 54.460938 37.40625 54.449219 37.273438 C 54.4375 37.210938 54.429688 37.148438 54.425781 37.085938 C 54.410156 36.957031 54.390625 36.832031 54.367188 36.703125 C 54.351562 36.574219 54.335938 36.441406 54.3125 36.3125 C 54.304688 36.285156 54.300781 36.257812 54.296875 36.226562 C 54.273438 36.082031 54.25 35.933594 54.222656 35.785156 C 54.191406 35.652344 54.171875 35.515625 54.140625 35.386719 C 54.109375 35.234375 54.078125 35.082031 54.046875 34.933594 C 54.011719 34.792969 53.976562 34.648438 53.941406 34.507812 C 53.9375 34.488281 53.929688 34.457031 53.925781 34.433594 C 53.910156 34.378906 53.898438 34.324219 53.886719 34.269531 C 53.847656 34.136719 53.8125 34.003906 53.777344 33.875 C 53.738281 33.734375 53.699219 33.59375 53.660156 33.453125 C 53.628906 33.359375 53.601562 33.277344 53.574219 33.1875 C 53.574219 33.179688 53.566406 33.175781 53.566406 33.167969 C 53.511719 32.992188 53.453125 32.816406 53.398438 32.644531 C 53.339844 32.472656 53.285156 32.308594 53.222656 32.140625 C 53.214844 32.132812 53.210938 32.121094 53.210938 32.109375 C 53.1875 32.054688 53.164062 31.996094 53.140625 31.9375 C 53.097656 31.816406 53.050781 31.699219 53.003906 31.578125 C 52.9375 31.410156 52.871094 31.234375 52.796875 31.066406 C 52.722656 30.890625 52.648438 30.71875 52.570312 30.550781 C 52.558594 30.523438 52.546875 30.5 52.535156 30.472656 C 52.472656 30.328125 52.402344 30.1875 52.335938 30.046875 C 52.226562 29.832031 52.121094 29.613281 52.007812 29.398438 C 51.984375 29.351562 51.960938 29.3125 51.9375 29.265625 C 51.871094 29.140625 51.800781 29.011719 51.734375 28.894531 C 51.726562 28.882812 51.726562 28.875 51.722656 28.871094 C 51.664062 28.769531 51.609375 28.667969 51.550781 28.566406 C 51.507812 28.496094 51.46875 28.421875 51.425781 28.355469 C 51.371094 28.265625 51.320312 28.179688 51.269531 28.089844 C 51.21875 28.011719 51.164062 27.933594 51.113281 27.847656 C 51.101562 27.835938 51.09375 27.820312 51.085938 27.800781 C 50.988281 27.648438 50.894531 27.5 50.792969 27.347656 C 50.707031 27.21875 50.613281 27.089844 50.523438 26.960938 C 50.5 26.925781 50.484375 26.890625 50.460938 26.855469 C 50.421875 26.804688 50.382812 26.753906 50.347656 26.703125 C 50.269531 26.589844 50.1875 26.484375 50.109375 26.375 C 49.882812 26.070312 49.648438 25.769531 49.410156 25.484375 C 49.398438 25.464844 49.394531 25.453125 49.382812 25.445312 C 49.367188 25.421875 49.347656 25.402344 49.335938 25.386719 C 49.222656 25.25 49.109375 25.117188 48.996094 24.984375 C 48.992188 24.980469 48.984375 24.96875 48.980469 24.960938 C 48.855469 24.820312 48.730469 24.6875 48.597656 24.542969 C 48.570312 24.511719 48.535156 24.46875 48.503906 24.4375 C 48.398438 24.328125 48.296875 24.214844 48.195312 24.109375 C 48.148438 24.0625 48.109375 24.019531 48.066406 23.972656 C 47.96875 23.875 47.871094 23.785156 47.78125 23.691406 C 47.640625 23.554688 47.496094 23.417969 47.355469 23.28125 C 47.253906 23.1875 47.144531 23.085938 47.042969 22.996094 C 47.003906 22.953125 46.957031 22.914062 46.914062 22.882812 C 47.070312 21.988281 47.15625 21.066406 47.15625 20.128906 L 47.15625 14.023438 C 47.15625 5.394531 40.183594 -1.550781 31.515625 -1.550781 M 31.515625 5.835938 C 36.742188 5.835938 40.953125 10.027344 40.953125 15.234375 L 40.953125 18.917969 C 40.953125 18.949219 40.949219 18.984375 40.949219 19.019531 C 38.070312 17.734375 34.878906 17.015625 31.515625 17.015625 C 28.15625 17.015625 24.96875 17.730469 22.082031 19.019531 C 22.082031 18.984375 22.082031 18.949219 22.082031 18.917969 L 22.082031 15.234375 C 22.082031 10.027344 26.285156 5.835938 31.515625 5.835938 M 31.515625 24.007812 C 40.394531 24.007812 47.589844 31.179688 47.589844 40.015625 C 47.589844 48.855469 40.394531 56.023438 31.515625 56.023438 C 22.640625 56.023438 15.4375 48.855469 15.4375 40.015625 C 15.4375 31.179688 22.640625 24.007812 31.515625 24.007812 M 31.515625 28.667969 C 25.222656 28.667969 20.125 33.75 20.125 40.015625 C 20.125 46.285156 25.222656 51.363281 31.515625 51.363281 C 37.808594 51.363281 42.910156 46.285156 42.910156 40.015625 C 42.910156 33.75 37.808594 28.667969 31.515625 28.667969 M 31.515625 33.707031 C 33.292969 33.707031 34.742188 35.140625 34.742188 36.917969 C 34.742188 37.917969 34.277344 38.824219 33.550781 39.414062 C 33.554688 39.433594 33.554688 39.457031 33.554688 39.480469 L 33.554688 44.925781 C 33.554688 46.050781 32.648438 46.957031 31.515625 46.957031 C 30.386719 46.957031 29.476562 46.050781 29.476562 44.925781 L 29.476562 39.480469 C 29.476562 39.457031 29.484375 39.433594 29.484375 39.414062 C 28.757812 38.824219 28.289062 37.917969 28.289062 36.917969 C 28.289062 35.140625 29.734375 33.707031 31.515625 33.707031 "/>
</g>
</svg>
