<svg xmlns="http://www.w3.org/2000/svg" xmlns:xlink="http://www.w3.org/1999/xlink" width="64" height="64" viewBox="0 0 64 64" version="1.1">
<defs>
<linearGradient id="linear0" gradientUnits="userSpaceOnUse" x1="0" y1="0" x2="0" y2="1" gradientTransform="matrix(64,0,0,64,0,0)">
<stop offset="0" style="stop-color:#ff6666;stop-opacity:1;"/>
<stop offset="1" style="stop-color:#d90000;stop-opacity:1;"/>
</linearGradient>
</defs>
<g id="surface1">
<path style=" stroke:none;fill-rule:nonzero;fill:url(#linear0);" d="M 32 0 C 14.351562 0 0 14.351562 0 32 C 0 49.648438 14.351562 64 32 64 C 49.648438 64 64 49.648438 64 32 C 64 14.351562 49.648438 0 32 0 Z M 32 4 C 47.488281 4 60 16.511719 60 32 C 60 47.488281 47.488281 60 32 60 C 16.511719 60 4 47.488281 4 32 C 4 16.511719 16.511719 4 32 4 Z M 23.910156 17.984375 C 22.289062 18.109375 20.996094 21.660156 21 25.992188 C 21 36.671875 27 36.671875 27 25.992188 C 27 21.480469 25.605469 17.855469 23.914062 17.984375 Z M 39.910156 17.984375 C 38.289062 18.109375 36.996094 21.660156 37 25.992188 C 37 36.671875 43 36.671875 43 25.992188 C 43 21.480469 41.605469 17.855469 39.914062 17.984375 Z M 20.695312 39.320312 L 17.867188 42.148438 C 21.613281 45.898438 26.699219 48.011719 32 48.015625 C 37.300781 48.011719 42.386719 45.898438 46.132812 42.148438 L 43.304688 39.320312 C 40.308594 42.320312 36.242188 44.011719 32 44.015625 C 27.757812 44.011719 23.691406 42.320312 20.695312 39.320312 Z M 20.695312 39.320312 "/>
</g>
</svg>
