<svg xmlns="http://www.w3.org/2000/svg" xmlns:xlink="http://www.w3.org/1999/xlink" width="64" height="64" viewBox="0 0 64 64" version="1.1">
<defs>
<linearGradient id="linear0" gradientUnits="userSpaceOnUse" x1="0" y1="0" x2="0" y2="1" gradientTransform="matrix(56,0,0,51.695312,4,6.152344)">
<stop offset="0" style="stop-color:#ff6666;stop-opacity:1;"/>
<stop offset="1" style="stop-color:#d90000;stop-opacity:1;"/>
</linearGradient>
</defs>
<g id="surface1">
<path style=" stroke:none;fill-rule:nonzero;fill:url(#linear0);" d="M 48.65625 29.738281 L 52.617188 29.738281 L 52.617188 40.675781 L 48.65625 40.675781 Z M 48.65625 29.738281 "/>
<path style=" stroke:none;fill-rule:nonzero;fill:url(#linear0);" d="M 48.65625 40.675781 L 52.617188 40.675781 L 52.617188 43.203125 L 48.65625 43.203125 Z M 48.65625 40.675781 "/>
<path style=" stroke:none;fill-rule:nonzero;fill:url(#linear0);" d="M 18.945312 17.527344 L 18.269531 16.699219 C 17.027344 18.371094 15.527344 20.382812 14.25 22.273438 C 13.152344 23.894531 12.117188 25.574219 11.140625 27.3125 C 10.53125 28.402344 9.988281 29.546875 9.507812 30.738281 C 9.292969 31.265625 9.054688 31.882812 8.84375 32.464844 C 8.746094 32.734375 8.648438 33.011719 8.554688 33.296875 C 8.472656 33.546875 8.394531 33.804688 8.335938 34.023438 C 8.21875 34.492188 8.15625 35.003906 8.152344 35.4375 C 8.148438 35.664062 8.164062 35.882812 8.199219 36.105469 C 8.21875 36.246094 8.253906 36.382812 8.304688 36.515625 C 8.40625 36.761719 8.558594 36.960938 8.75 37.078125 C 8.820312 37.125 8.90625 37.164062 8.980469 37.199219 C 9.269531 37.316406 9.5625 37.402344 9.863281 37.441406 C 10.09375 37.46875 10.351562 37.480469 10.671875 37.460938 C 10.980469 37.4375 11.351562 37.382812 11.8125 37.277344 C 12.265625 37.171875 12.816406 37.019531 13.382812 36.855469 C 13.945312 36.6875 14.523438 36.503906 15.039062 36.332031 C 15.847656 36.058594 16.652344 35.75 17.445312 35.414062 C 17.765625 35.273438 18.054688 35.148438 18.460938 34.949219 C 18.855469 34.757812 19.367188 34.5 20.125 34.109375 C 20.878906 33.71875 21.882812 33.191406 22.953125 32.628906 L 26.144531 30.957031 C 28.109375 29.925781 29.625 29.136719 31.046875 28.308594 C 32.402344 27.515625 33.746094 26.675781 35.070312 25.796875 C 36.238281 25.03125 37.390625 24.242188 38.535156 23.425781 C 39.390625 22.800781 40.234375 22.15625 41.070312 21.488281 C 41.070312 21.488281 41.046875 21.507812 41.015625 21.519531 C 40.921875 21.574219 40.816406 21.59375 40.71875 21.578125 C 40.5 21.554688 40.304688 21.378906 40.203125 21.128906 C 40.105469 20.871094 40.117188 20.574219 40.234375 20.335938 C 40.242188 20.324219 40.242188 20.324219 40.242188 20.328125 C 40.121094 20.515625 39.992188 20.6875 39.855469 20.859375 C 39.667969 21.089844 39.476562 21.320312 39.28125 21.546875 C 38.535156 22.433594 37.804688 23.332031 37.085938 24.25 C 36.472656 25.03125 35.667969 26.070312 34.632812 27.351562 C 33.597656 28.628906 32.335938 30.136719 30.800781 32 C 29.269531 33.851562 27.472656 36.035156 26.066406 37.726562 C 24.664062 39.414062 23.625 40.636719 22.492188 42.03125 C 21.351562 43.433594 20.109375 45.019531 19.21875 46.152344 C 18.773438 46.71875 18.410156 47.183594 18.113281 47.558594 C 17.824219 47.929688 17.605469 48.21875 17.441406 48.453125 C 17.355469 48.5625 17.273438 48.691406 17.203125 48.816406 C 17.128906 48.929688 17.070312 49.046875 17.015625 49.160156 C 16.992188 49.210938 16.964844 49.273438 16.949219 49.332031 C 16.925781 49.410156 16.902344 49.488281 16.898438 49.570312 C 16.894531 49.648438 16.898438 49.722656 16.914062 49.792969 C 16.964844 50.019531 17.128906 50.171875 17.3125 50.171875 C 17.355469 50.171875 17.402344 50.164062 17.449219 50.144531 C 17.554688 50.105469 17.667969 50.050781 17.898438 49.953125 C 18.113281 49.851562 18.414062 49.707031 18.839844 49.496094 C 19.984375 48.914062 21.121094 48.320312 22.253906 47.703125 C 23.492188 47.035156 24.597656 46.421875 26.125 45.667969 C 27.921875 44.796875 29.742188 43.960938 31.570312 43.1875 C 33.554688 42.34375 35.546875 41.542969 37.25 40.902344 C 38.960938 40.253906 40.421875 39.75 41.28125 39.4375 C 41.71875 39.285156 42.085938 39.148438 42.332031 39.054688 C 42.457031 39.007812 42.550781 38.976562 42.621094 38.957031 L 42.683594 38.929688 C 42.695312 38.929688 42.695312 38.929688 42.6875 38.929688 L 42.664062 38.929688 C 42.628906 38.921875 42.597656 38.910156 42.570312 38.882812 C 42.519531 38.84375 42.488281 38.769531 42.476562 38.699219 C 42.476562 38.664062 42.476562 38.640625 42.484375 38.605469 C 42.488281 38.59375 42.492188 38.578125 42.5 38.566406 L 42.484375 38.605469 C 42.457031 38.652344 42.421875 38.726562 42.371094 38.804688 C 42.265625 38.976562 42.128906 39.199219 41.988281 39.417969 C 41.808594 39.695312 41.617188 39.96875 41.417969 40.226562 C 41.148438 40.5625 40.792969 40.972656 40.296875 41.476562 C 39.28125 42.492188 37.660156 43.941406 35.664062 45.621094 C 34.648438 46.472656 33.511719 47.414062 32.484375 48.253906 L 29.921875 50.355469 C 29.625 50.601562 29.386719 50.800781 29.207031 50.949219 C 29.070312 51.0625 28.945312 51.1875 28.820312 51.316406 C 28.785156 51.347656 28.753906 51.386719 28.722656 51.425781 C 28.710938 51.445312 28.699219 51.46875 28.691406 51.488281 C 28.675781 51.519531 28.671875 51.554688 28.675781 51.585938 C 28.679688 51.640625 28.707031 51.679688 28.742188 51.699219 C 28.757812 51.710938 28.777344 51.710938 28.800781 51.710938 C 28.828125 51.710938 28.867188 51.703125 28.898438 51.699219 C 29.160156 51.625 29.695312 51.488281 30.792969 51.214844 C 31.925781 50.9375 33.628906 50.519531 34.949219 50.191406 C 36.34375 49.839844 37.320312 49.589844 38.863281 49.304688 C 40.734375 48.972656 42.613281 48.695312 44.492188 48.476562 C 45.460938 48.367188 46.390625 48.273438 47.152344 48.199219 C 47.960938 48.121094 48.605469 48.054688 49.054688 48.003906 C 49.238281 47.976562 49.425781 47.949219 49.609375 47.910156 C 49.71875 47.890625 49.828125 47.855469 49.9375 47.816406 C 49.964844 47.804688 49.996094 47.789062 50.027344 47.769531 C 50.042969 47.757812 50.058594 47.746094 50.074219 47.722656 C 50.082031 47.710938 50.082031 47.703125 50.085938 47.699219 L 50.085938 47.671875 C 50.082031 47.652344 50.070312 47.636719 50.058594 47.625 C 49.867188 47.425781 49.6875 47.234375 49.523438 47.054688 C 49.6875 47.234375 49.863281 47.425781 50.054688 47.632812 C 50.066406 47.644531 50.070312 47.660156 50.074219 47.679688 L 50.074219 47.691406 C 50.074219 47.699219 50.070312 47.710938 50.066406 47.710938 C 50.054688 47.730469 50.039062 47.746094 50.019531 47.757812 C 49.992188 47.777344 49.960938 47.789062 49.929688 47.796875 C 49.828125 47.835938 49.714844 47.871094 49.605469 47.890625 C 49.421875 47.921875 49.238281 47.949219 49.054688 47.96875 C 48.605469 48.023438 47.960938 48.074219 47.152344 48.152344 C 46.382812 48.21875 45.457031 48.304688 44.488281 48.417969 C 42.605469 48.625 40.726562 48.886719 38.855469 49.207031 C 37.304688 49.476562 36.324219 49.714844 34.925781 50.046875 C 33.609375 50.363281 31.90625 50.765625 30.761719 51.03125 C 30.117188 51.183594 29.472656 51.328125 28.824219 51.46875 L 28.808594 51.46875 C 28.800781 51.460938 28.820312 51.46875 28.824219 51.46875 C 28.835938 51.472656 28.84375 51.488281 28.851562 51.5 C 28.871094 51.527344 28.875 51.574219 28.867188 51.613281 C 28.867188 51.617188 28.867188 51.613281 28.871094 51.605469 C 28.898438 51.574219 28.921875 51.546875 28.949219 51.527344 C 29.027344 51.445312 29.144531 51.339844 29.328125 51.1875 C 29.511719 51.039062 29.742188 50.84375 30.046875 50.601562 C 30.640625 50.125 31.582031 49.363281 32.617188 48.53125 C 33.691406 47.664062 34.753906 46.792969 35.8125 45.917969 C 37.820312 44.253906 39.457031 42.816406 40.492188 41.792969 C 41.003906 41.289062 41.375 40.878906 41.652344 40.542969 C 41.929688 40.199219 42.117188 39.933594 42.265625 39.722656 C 42.410156 39.511719 42.566406 39.292969 42.671875 39.121094 C 42.730469 39.035156 42.78125 38.957031 42.8125 38.898438 C 42.828125 38.871094 42.84375 38.84375 42.859375 38.8125 C 42.902344 38.726562 42.902344 38.621094 42.863281 38.53125 C 42.832031 38.453125 42.773438 38.402344 42.699219 38.394531 L 42.660156 38.394531 C 42.613281 38.402344 42.566406 38.40625 42.519531 38.421875 C 42.445312 38.441406 42.34375 38.472656 42.214844 38.511719 L 41.160156 38.863281 C 40.292969 39.15625 38.835938 39.636719 37.109375 40.265625 C 35.394531 40.886719 33.390625 41.675781 31.398438 42.5 C 29.421875 43.320312 27.460938 44.191406 25.902344 44.933594 C 24.363281 45.667969 23.238281 46.269531 22 46.917969 C 21.386719 47.234375 20.742188 47.566406 20.152344 47.863281 C 19.550781 48.167969 19.011719 48.433594 18.589844 48.628906 C 18.167969 48.835938 17.867188 48.960938 17.660156 49.046875 C 17.523438 49.101562 17.378906 49.152344 17.238281 49.191406 C 17.265625 49.1875 17.296875 49.179688 17.320312 49.179688 C 17.425781 49.179688 17.515625 49.238281 17.582031 49.332031 C 17.652344 49.421875 17.683594 49.550781 17.675781 49.675781 C 17.671875 49.746094 17.667969 49.753906 17.671875 49.746094 L 17.699219 49.695312 C 17.800781 49.507812 17.914062 49.335938 18.03125 49.179688 C 18.191406 48.972656 18.410156 48.703125 18.710938 48.332031 C 19.007812 47.976562 19.378906 47.519531 19.832031 46.957031 C 20.738281 45.839844 21.984375 44.273438 23.128906 42.898438 C 24.273438 41.523438 25.316406 40.332031 26.738281 38.652344 C 28.160156 36.964844 29.964844 34.796875 31.503906 32.964844 C 33.046875 31.128906 34.328125 29.625 35.378906 28.363281 C 36.433594 27.09375 37.265625 26.054688 37.878906 25.300781 C 38.503906 24.542969 38.921875 24.046875 39.390625 23.511719 C 39.621094 23.246094 39.875 22.960938 40.101562 22.703125 C 40.328125 22.453125 40.546875 22.207031 40.699219 22.027344 C 40.863281 21.84375 41.039062 21.625 41.152344 21.464844 C 41.199219 21.40625 41.246094 21.339844 41.289062 21.269531 C 41.328125 21.195312 41.359375 21.117188 41.386719 21.03125 C 41.460938 20.746094 41.410156 20.429688 41.257812 20.203125 C 41.097656 19.972656 40.84375 19.875 40.605469 19.953125 C 40.535156 19.980469 40.460938 20.011719 40.402344 20.066406 C 40.292969 20.144531 40.183594 20.222656 40.074219 20.304688 L 39.453125 20.773438 C 38.96875 21.136719 38.378906 21.566406 37.886719 21.917969 C 36.746094 22.703125 35.597656 23.464844 34.441406 24.199219 C 33.167969 25.011719 31.84375 25.835938 30.457031 26.617188 C 29.0625 27.40625 27.5625 28.164062 25.582031 29.183594 C 24.847656 29.558594 23.125 30.445312 22.386719 30.828125 C 21.308594 31.378906 20.308594 31.894531 19.558594 32.269531 C 19.015625 32.550781 18.46875 32.8125 17.917969 33.070312 C 17.539062 33.242188 17.265625 33.355469 16.960938 33.476562 C 16.339844 33.71875 15.609375 33.992188 14.628906 34.308594 C 14.128906 34.464844 13.5625 34.636719 13.023438 34.789062 C 12.464844 34.941406 11.949219 35.074219 11.53125 35.160156 C 11.121094 35.246094 10.820312 35.285156 10.59375 35.292969 C 10.414062 35.304688 10.238281 35.292969 10.0625 35.261719 C 9.898438 35.226562 9.730469 35.175781 9.570312 35.101562 C 9.699219 35.195312 9.800781 35.332031 9.867188 35.5 C 9.890625 35.542969 9.90625 35.589844 9.914062 35.644531 C 9.917969 35.671875 9.914062 35.589844 9.914062 35.5 C 9.925781 35.273438 9.960938 34.988281 10.027344 34.75 C 10.0625 34.605469 10.125 34.421875 10.203125 34.195312 C 10.277344 33.964844 10.367188 33.710938 10.464844 33.441406 C 10.671875 32.898438 10.902344 32.316406 11.105469 31.820312 C 11.539062 30.785156 11.941406 29.925781 12.636719 28.679688 C 13.585938 27.007812 14.585938 25.386719 15.644531 23.835938 C 16.894531 21.996094 18.363281 20.023438 19.613281 18.347656 Z M 18.945312 17.527344 "/>
</g>
</svg>
