<svg xmlns="http://www.w3.org/2000/svg" xmlns:xlink="http://www.w3.org/1999/xlink" width="64" height="64" viewBox="0 0 64 64" version="1.1">
<defs> <linearGradient id="linear0" gradientUnits="userSpaceOnUse" x1="0" y1="0" x2="0" y2="1" gradientTransform="matrix(55.992188,0,0,56,4.003906,4)"> <stop offset="0" style="stop-color:#ff6666;stop-opacity:1;"/> <stop offset="1" style="stop-color:#d90000;stop-opacity:1;"/> </linearGradient> </defs>
<g id="surface1">
<path style=" stroke:none;fill-rule:nonzero;fill:url(#linear0);fill-opacity:1;" d="M 31.324219 9.261719 L 24.46875 12.84375 C 20.703125 14.804688 15.058594 17.25 11.914062 18.265625 C 5.398438 20.371094 5.351562 20.511719 7.488281 28.875 C 10.417969 40.367188 18.238281 52.039062 26.492188 57.253906 C 31.191406 60.222656 32.253906 60.21875 36.367188 57.230469 C 45.519531 50.570312 52.339844 39.8125 55.324219 27.382812 C 56.230469 23.589844 56.902344 20.40625 56.800781 20.300781 C 56.691406 20.199219 52.652344 18.566406 47.832031 16.65625 C 43.003906 14.742188 37.324219 12.285156 35.203125 11.207031 L 31.324219 9.261719 M 30.015625 22.738281 L 32.988281 22.738281 C 36.503906 22.738281 39.34375 25.539062 39.34375 29.039062 L 39.34375 33.496094 L 41.289062 33.496094 L 41.289062 46 L 21.738281 46 L 21.738281 33.496094 L 23.664062 33.496094 L 23.664062 29.039062 C 23.664062 25.539062 26.496094 22.738281 30.015625 22.738281 M 29.5625 25.917969 C 27.8125 25.917969 26.421875 27.304688 26.421875 29.039062 L 26.421875 33.496094 L 36.582031 33.496094 L 36.582031 29.039062 C 36.582031 27.304688 35.183594 25.917969 33.441406 25.917969 Z M 29.5625 25.917969 "/>
</g>
</svg>
