<svg xmlns="http://www.w3.org/2000/svg" xmlns:xlink="http://www.w3.org/1999/xlink" width="64" height="64" viewBox="0 0 64 64" version="1.1">
<defs>
<linearGradient id="linear0" gradientUnits="userSpaceOnUse" x1="0" y1="0" x2="0" y2="1" gradientTransform="matrix(43.046875,0,0,56,10.476562,4)">
<stop offset="0" style="stop-color:#ff6666;stop-opacity:1;"/>
<stop offset="1" style="stop-color:#d90000;stop-opacity:1;"/>
</linearGradient>
</defs>
<g id="surface1">
<path style=" stroke:none;fill-rule:nonzero;fill:url(#linear0);" d="M 32.46875 7.4375 L 10.882812 14.039062 C 10.882812 27.933594 10.816406 35.550781 13.429688 41.0625 C 16.046875 46.582031 21.410156 50.210938 32.46875 56.199219 C 43.523438 50.210938 48.890625 46.582031 51.503906 41.0625 C 54.117188 35.554688 54.050781 27.933594 54.050781 14.039062 Z M 32.917969 22.574219 C 35.648438 22.574219 37.863281 24.644531 37.863281 27.195312 C 37.871094 29.050781 36.6875 30.726562 34.859375 31.449219 L 37.863281 41.070312 L 27.96875 41.070312 L 30.976562 31.449219 C 29.148438 30.726562 27.960938 29.050781 27.96875 27.195312 C 27.96875 24.640625 30.183594 22.570312 32.917969 22.570312 Z M 32.917969 22.574219 "/>
<path style=" stroke:none;fill-rule:nonzero;fill:url(#linear0);" d="M 32.46875 11.640625 L 14.484375 17.527344 C 14.484375 40.175781 13.785156 41.914062 32.46875 51.996094 C 50.992188 41.988281 50.449219 40.183594 50.449219 17.527344 Z M 32.917969 22.570312 C 35.648438 22.570312 37.863281 24.640625 37.863281 27.195312 C 37.871094 29.050781 36.6875 30.726562 34.859375 31.449219 L 37.863281 41.070312 L 27.96875 41.070312 L 30.976562 31.449219 C 29.148438 30.726562 27.960938 29.050781 27.96875 27.195312 C 27.96875 24.640625 30.183594 22.570312 32.917969 22.570312 Z M 32.917969 22.570312 "/>
</g>
</svg>
