<svg xmlns="http://www.w3.org/2000/svg" xmlns:xlink="http://www.w3.org/1999/xlink" width="64" height="64" viewBox="0 0 64 64" version="1.1">
<defs> <linearGradient id="linear0" gradientUnits="userSpaceOnUse" x1="0" y1="0" x2="0" y2="1" gradientTransform="matrix(55.992188,0,0,56,4.003906,4)"> <stop offset="0" style="stop-color:#ff6666;stop-opacity:1;"/> <stop offset="1" style="stop-color:#d90000;stop-opacity:1;"/> </linearGradient> </defs>
<g id="surface1">
<path style=" stroke:none;fill-rule:evenodd;fill:url(#linear0);fill-opacity:1;" d="M 32.023438 4.132812 C 24.070312 4.132812 17.609375 10.808594 17.609375 19.121094 C 17.609375 27.421875 24.078125 34.179688 32.023438 34.179688 C 39.972656 34.179688 46.433594 27.421875 46.433594 19.121094 C 46.433594 10.8125 39.972656 4.132812 32.023438 4.132812 M 18.585938 38.027344 C 12.777344 39.46875 7.960938 46.84375 8.179688 55.890625 L 55.929688 55.890625 C 56.140625 46.84375 51.285156 39.464844 45.464844 38.027344 C 41.703125 40.945312 37.054688 42.675781 32.023438 42.675781 C 26.992188 42.675781 22.339844 40.945312 18.585938 38.027344 "/>
</g>
</svg>
