<svg xmlns="http://www.w3.org/2000/svg" xmlns:xlink="http://www.w3.org/1999/xlink" width="64" height="64" viewBox="0 0 64 64" version="1.1">
<defs>
<linearGradient id="linear0" gradientUnits="userSpaceOnUse" x1="0" y1="0" x2="0" y2="1" gradientTransform="matrix(54.855469,0,0,64,4.574219,0)">
<stop offset="0" style="stop-color:#ff6666;stop-opacity:1;"/>
<stop offset="1" style="stop-color:#d90000;stop-opacity:1;"/>
</linearGradient>
</defs>
<g id="surface1">
<path style=" stroke:none;fill-rule:nonzero;fill:url(#linear0);" d="M 18.921875 0 C 16.289062 0 14.167969 2.039062 14.167969 4.570312 L 14.167969 9.144531 C 14.167969 11.675781 16.289062 13.714844 18.921875 13.714844 L 23.679688 13.714844 C 26.3125 13.714844 28.433594 11.675781 28.433594 9.144531 L 28.433594 4.570312 C 28.433594 2.039062 26.3125 0 23.679688 0 Z M 16.679688 18.285156 L 14.167969 20.035156 L 4.910156 37.835938 C 3.316406 40.625 7.808594 42.773438 9.160156 39.875 L 14.167969 30.25 L 15.976562 25.105469 L 14.167969 41.144531 L 14.167969 64 L 18.921875 64 L 18.921875 45.714844 L 23.679688 45.714844 L 23.679688 64 L 28.433594 64 L 28.433594 41.144531 L 25.925781 25.089844 L 28.433594 30.253906 L 33.441406 39.875 C 33.671875 40.320312 34.046875 40.679688 34.507812 40.902344 L 42.703125 44.839844 L 42.703125 64 L 52.214844 64 L 52.214844 48.945312 L 55.285156 51.902344 C 57.53125 54.144531 60.984375 50.824219 58.652344 48.667969 L 52.214844 42.480469 L 52.214844 41.144531 L 45.636719 41.144531 L 37.34375 37.152344 L 28.433594 20.035156 L 25.140625 18.285156 Z M 42.703125 27.429688 L 42.703125 36.570312 L 52.214844 36.570312 L 52.214844 27.429688 Z M 42.703125 27.429688 "/>
</g>
</svg>
