<svg xmlns="http://www.w3.org/2000/svg" xmlns:xlink="http://www.w3.org/1999/xlink" width="64" height="64" viewBox="0 0 64 64" version="1.1">
<defs> <linearGradient id="linear0" gradientUnits="userSpaceOnUse" x1="0" y1="0" x2="0" y2="1" gradientTransform="matrix(55.992188,0,0,56,4.003906,4)"> <stop offset="0" style="stop-color:#ff6666;stop-opacity:1;"/> <stop offset="1" style="stop-color:#d90000;stop-opacity:1;"/> </linearGradient> </defs>
<g id="surface1">
<path style=" stroke:none;fill-rule:nonzero;fill:url(#linear0);fill-opacity:1;" d="M 29.351562 8.210938 C 26.359375 8.210938 23.945312 10.605469 23.945312 13.589844 L 23.945312 26.867188 C 23.945312 29.714844 26.148438 32.027344 28.957031 32.230469 L 28.957031 38.09375 C 28.960938 38.496094 29.226562 38.878906 29.609375 39.023438 C 29.984375 39.15625 30.441406 39.039062 30.703125 38.738281 L 36.308594 32.246094 L 48.835938 32.246094 C 51.835938 32.246094 54.242188 29.84375 54.242188 26.863281 L 54.242188 13.59375 C 54.242188 10.613281 51.835938 8.210938 48.835938 8.210938 L 29.351562 8.210938 M 37.242188 13.097656 L 37.242188 28.054688 L 32.105469 23.917969 L 28.359375 23.917969 C 27.9375 23.917969 27.605469 23.578125 27.605469 23.164062 L 27.605469 17.894531 C 27.605469 17.480469 27.9375 17.148438 28.359375 17.148438 L 32.027344 17.148438 L 37.242188 13.097656 M 41.488281 15.160156 L 50.4375 15.160156 C 50.996094 15.160156 51.449219 15.613281 51.449219 16.175781 C 51.449219 16.734375 50.996094 17.179688 50.4375 17.179688 L 41.488281 17.179688 C 40.925781 17.179688 40.476562 16.734375 40.476562 16.175781 C 40.476562 15.613281 40.925781 15.160156 41.488281 15.160156 M 14.445312 16.484375 C 11.90625 16.484375 9.867188 18.515625 9.867188 21.039062 L 9.867188 51.582031 C 9.867188 54.105469 11.90625 56.136719 14.445312 56.136719 L 37.230469 56.136719 C 39.761719 56.136719 41.808594 54.109375 41.808594 51.582031 L 41.808594 33.695312 C 40.199219 33.667969 38.597656 33.632812 37.003906 33.6875 L 32.46875 38.941406 C 31.726562 40.488281 29.375 41.101562 28.15625 39.761719 C 26.992188 37.902344 27.648438 35.53125 27.542969 33.457031 C 25.332031 32.867188 23.476562 31.085938 22.800781 28.90625 C 22.230469 24.796875 22.542969 20.625 22.527344 16.484375 L 14.445312 16.484375 M 41.488281 19.566406 L 50.4375 19.566406 C 51 19.566406 51.449219 20.019531 51.449219 20.578125 C 51.449219 21.140625 51 21.585938 50.4375 21.585938 L 41.488281 21.585938 C 40.925781 21.585938 40.476562 21.140625 40.476562 20.578125 C 40.476562 20.019531 40.925781 19.566406 41.488281 19.566406 M 15.910156 20.980469 L 21.042969 20.980469 C 21.015625 21.816406 20.988281 22.660156 20.980469 23.492188 L 15.910156 23.492188 C 15.210938 23.492188 14.648438 22.933594 14.648438 22.238281 C 14.648438 21.542969 15.210938 20.980469 15.910156 20.980469 M 41.488281 23.972656 L 50.4375 23.972656 C 51 23.972656 51.449219 24.425781 51.449219 24.984375 C 51.449219 25.546875 51 25.992188 50.4375 25.992188 L 41.488281 25.992188 C 40.925781 25.992188 40.476562 25.546875 40.476562 24.984375 C 40.476562 24.425781 40.925781 23.972656 41.488281 23.972656 M 15.910156 26.609375 L 21.09375 26.609375 C 21.167969 27.457031 21.289062 28.292969 21.480469 29.125 L 15.910156 29.125 C 15.210938 29.125 14.648438 28.558594 14.648438 27.863281 C 14.648438 27.167969 15.210938 26.609375 15.910156 26.609375 M 15.910156 32.234375 L 23.03125 32.234375 C 23.867188 33.203125 24.910156 33.984375 26.085938 34.480469 C 26.082031 34.570312 26.074219 34.660156 26.070312 34.753906 L 15.910156 34.753906 C 15.210938 34.753906 14.648438 34.1875 14.648438 33.492188 C 14.648438 32.796875 15.210938 32.234375 15.910156 32.234375 M 15.910156 37.863281 L 26.054688 37.863281 C 26.15625 38.773438 26.382812 39.644531 26.875 40.378906 L 15.910156 40.378906 C 15.210938 40.378906 14.648438 39.820312 14.648438 39.125 C 14.648438 38.429688 15.210938 37.863281 15.910156 37.863281 M 35.339844 37.863281 L 35.765625 37.863281 C 36.46875 37.863281 37.023438 38.429688 37.023438 39.125 C 37.023438 39.820312 36.46875 40.378906 35.765625 40.378906 L 33.316406 40.378906 C 33.640625 40.046875 33.914062 39.671875 34.125 39.269531 L 35.339844 37.863281 M 15.910156 43.488281 L 35.765625 43.488281 C 36.464844 43.488281 37.023438 44.054688 37.023438 44.75 C 37.023438 45.445312 36.464844 46.007812 35.765625 46.007812 L 15.910156 46.007812 C 15.210938 46.007812 14.648438 45.445312 14.648438 44.75 C 14.648438 44.054688 15.210938 43.488281 15.910156 43.488281 M 15.910156 49.117188 L 35.765625 49.117188 C 36.464844 49.117188 37.023438 49.675781 37.023438 50.378906 C 37.023438 51.074219 36.464844 51.632812 35.765625 51.632812 L 15.910156 51.632812 C 15.210938 51.632812 14.648438 51.074219 14.648438 50.378906 C 14.648438 49.675781 15.210938 49.117188 15.910156 49.117188 "/>
</g>
</svg>
