<svg xmlns="http://www.w3.org/2000/svg" xmlns:xlink="http://www.w3.org/1999/xlink" width="64" height="64" viewBox="0 0 64 64" version="1.1">
<defs> <linearGradient id="linear0" gradientUnits="userSpaceOnUse" x1="0" y1="0" x2="0" y2="1" gradientTransform="matrix(55.992188,0,0,56,4.003906,4)"> <stop offset="0" style="stop-color:#ff6666;stop-opacity:1;"/> <stop offset="1" style="stop-color:#d90000;stop-opacity:1;"/> </linearGradient> </defs>
<g id="surface1">
<path style=" stroke:none;fill-rule:nonzero;fill:url(#linear0);fill-opacity:1;" d="M 12.40625 7.742188 C 7.035156 7.742188 2.621094 12.996094 2.621094 19.398438 L 2.621094 44.949219 C 2.621094 51.34375 7.035156 56.605469 12.40625 56.605469 L 51.707031 56.605469 C 57.078125 56.605469 61.492188 51.34375 61.492188 44.949219 L 61.492188 19.398438 C 61.492188 12.996094 57.078125 7.742188 51.707031 7.742188 Z M 12.40625 7.742188 "/>
<path style=" stroke:none;fill-rule:nonzero;fill:url(#linear0);fill-opacity:1;" d="M 31.742188 22.332031 C 26.355469 30.097656 18.910156 36.453125 10.363281 40.53125 C 10.378906 42.03125 10.394531 43.527344 10.4375 45.027344 C 10.742188 47.375 12.71875 49.777344 15.269531 49.507812 C 26.871094 49.460938 38.484375 49.601562 50.085938 49.433594 C 52.722656 48.835938 54.003906 45.855469 53.824219 43.355469 C 53.816406 42.609375 53.8125 41.855469 53.8125 41.109375 C 44.957031 36.941406 37.210938 30.421875 31.742188 22.332031 "/>
<path style=" stroke:none;fill-rule:nonzero;fill:url(#linear0);fill-opacity:1;" d="M 37.421875 14.914062 C 41.300781 21.734375 46.984375 27.394531 53.835938 31.257812 C 53.847656 27.285156 53.828125 23.324219 53.734375 19.359375 C 53.402344 17.167969 51.675781 14.8125 49.234375 14.914062 C 45.300781 14.925781 41.359375 14.917969 37.421875 14.914062 "/>
<path style=" stroke:none;fill-rule:nonzero;fill:url(#linear0);fill-opacity:1;" d="M 22.964844 14.914062 C 20.046875 14.917969 17.125 14.9375 14.207031 14.957031 C 11.550781 15.46875 10.175781 18.417969 10.351562 20.894531 C 10.367188 24.136719 10.355469 27.371094 10.34375 30.613281 C 16.886719 26.855469 22.34375 21.429688 26.117188 14.914062 C 25.066406 14.914062 24.015625 14.914062 22.964844 14.914062 "/>
<path style=" stroke:none;fill-rule:nonzero;fill:url(#linear0);fill-opacity:1;" d="M 29.488281 14.90625 C 25.15625 22.953125 18.398438 29.65625 10.332031 33.988281 C 10.332031 35.085938 10.332031 36.183594 10.339844 37.28125 C 19.941406 32.433594 27.957031 24.492188 32.777344 14.914062 C 31.679688 14.914062 30.585938 14.90625 29.488281 14.90625 "/>
<path style=" stroke:none;fill-rule:nonzero;fill:url(#linear0);fill-opacity:1;" d="M 35.117188 16.78125 C 34.601562 17.761719 34.054688 18.730469 33.476562 19.675781 C 38.445312 27.410156 45.550781 33.785156 53.816406 37.855469 C 53.816406 36.765625 53.816406 35.675781 53.824219 34.582031 C 46.089844 30.527344 39.546875 24.285156 35.117188 16.78125 "/>
</g>
</svg>
