<svg xmlns="http://www.w3.org/2000/svg" xmlns:xlink="http://www.w3.org/1999/xlink" width="64" height="64" viewBox="0 0 64 64" version="1.1">
<defs>
<linearGradient id="linear0" gradientUnits="userSpaceOnUse" x1="0" y1="0" x2="0" y2="1" gradientTransform="matrix(56,0,0,51.695312,4,6.152344)">
<stop offset="0" style="stop-color:#ff6666;stop-opacity:1;"/>
<stop offset="1" style="stop-color:#d90000;stop-opacity:1;"/>
</linearGradient>
</defs>
<g id="surface1">
<path style=" stroke:none;fill-rule:nonzero;fill:url(#linear0);" d="M 31.375 15.21875 L 21.375 23.21875 L 21 24 L 21 35.519531 L 11.375 43.21875 L 12.625 44.78125 L 22 37.28125 L 31.375 44.78125 L 32.625 43.21875 L 23 35.519531 L 23 24.480469 L 32 17.28125 L 41 24.480469 L 41 36 L 41.375 36.78125 L 51.375 44.78125 L 52.625 43.21875 L 43 35.519531 L 43 24 L 42.625 23.21875 L 32.625 15.21875 Z M 31.375 15.21875 "/>
<path style=" stroke:none;fill-rule:nonzero;fill:url(#linear0);" d="M 20 43 C 20 45.761719 17.761719 48 15 48 C 12.238281 48 10 45.761719 10 43 C 10 40.238281 12.238281 38 15 38 C 17.761719 38 20 40.238281 20 43 Z M 20 43 "/>
<path style=" stroke:none;fill-rule:nonzero;fill:url(#linear0);" d="M 34 43 C 34 45.761719 31.761719 48 29 48 C 26.238281 48 24 45.761719 24 43 C 24 40.238281 26.238281 38 29 38 C 31.761719 38 34 40.238281 34 43 Z M 34 43 "/>
<path style=" stroke:none;fill-rule:nonzero;fill:url(#linear0);" d="M 54 43 C 54 45.761719 51.761719 48 49 48 C 46.238281 48 44 45.761719 44 43 C 44 40.238281 46.238281 38 49 38 C 51.761719 38 54 40.238281 54 43 Z M 54 43 "/>
<path style=" stroke:none;fill-rule:nonzero;fill:url(#linear0);" d="M 27 27 C 27 29.761719 24.761719 32 22 32 C 19.238281 32 17 29.761719 17 27 C 17 24.238281 19.238281 22 22 22 C 24.761719 22 27 24.238281 27 27 Z M 27 27 "/>
<path style=" stroke:none;fill-rule:nonzero;fill:url(#linear0);" d="M 47 27 C 47 29.761719 44.761719 32 42 32 C 39.238281 32 37 29.761719 37 27 C 37 24.238281 39.238281 22 42 22 C 44.761719 22 47 24.238281 47 27 Z M 47 27 "/>
<path style=" stroke:none;fill-rule:nonzero;fill:url(#linear0);" d="M 37 14 C 37 16.761719 34.761719 19 32 19 C 29.238281 19 27 16.761719 27 14 C 27 11.238281 29.238281 9 32 9 C 34.761719 9 37 11.238281 37 14 Z M 37 14 "/>
</g>
</svg>
