<svg xmlns="http://www.w3.org/2000/svg" xmlns:xlink="http://www.w3.org/1999/xlink" width="64" height="64" viewBox="0 0 64 64" version="1.1">
<defs> <linearGradient id="linear0" gradientUnits="userSpaceOnUse" x1="0" y1="0" x2="0" y2="1" gradientTransform="matrix(55.992188,0,0,56,4.003906,4)"> <stop offset="0" style="stop-color:#ff6666;stop-opacity:1;"/> <stop offset="1" style="stop-color:#d90000;stop-opacity:1;"/> </linearGradient> </defs>
<g id="surface1">
<path style="fill-rule:evenodd;fill:url(#linear0);fill-opacity:1;stroke-width:1;stroke-linecap:butt;stroke-linejoin:miter;stroke:url(#linear0);stroke-opacity:1;stroke-miterlimit:4;" d="M 1106.184006 720.758864 C 1052.176668 730.037141 1011.070949 777.086046 1011.070949 833.754162 C 1011.070949 897.046141 1062.386408 948.381074 1125.730442 948.381074 C 1182.381156 948.381074 1229.404159 907.274164 1238.692354 853.260463 C 1223.58388 890.592746 1187.037379 916.966433 1144.25833 916.966433 C 1088.068388 916.966433 1042.476204 871.403027 1042.476204 815.173254 C 1042.476204 772.434731 1068.861468 735.833021 1106.232508 720.783216 Z M 1106.184006 720.758864 " transform="matrix(0.161075,0,0,0.160405,-156.611914,-95.558568)"/>
<path style="fill-rule:evenodd;fill:url(#linear0);fill-opacity:1;stroke-width:1;stroke-linecap:butt;stroke-linejoin:miter;stroke:url(#linear0);stroke-opacity:1;stroke-miterlimit:4;" d="M 261.611539 150.367251 L 239.71274 155.943959 L 231.855363 177.203635 L 219.802536 158.062621 L 197.151951 157.185933 L 211.629894 139.749589 L 205.49435 117.978512 L 226.495857 126.35575 L 245.314758 113.765541 L 243.835437 136.364601 Z M 261.611539 150.367251 " transform="matrix(0.161075,0,0,0.160405,-16.193703,-10.502457)"/>
<path style="fill-rule:evenodd;fill:url(#linear0);fill-opacity:1;stroke-width:1;stroke-linecap:butt;stroke-linejoin:miter;stroke:url(#linear0);stroke-opacity:1;stroke-miterlimit:4;" d="M 261.637233 150.367085 L 239.689932 155.943792 L 231.881057 177.179116 L 219.779728 158.062454 L 197.177645 157.185767 L 211.631337 139.773775 L 205.471542 117.978346 L 226.521551 126.355584 L 245.316201 113.789727 L 243.861131 136.340082 Z M 261.637233 150.367085 " transform="matrix(0.161075,0,0,0.160405,11.630284,-4.830555)"/>
<path style="fill-rule:evenodd;fill:url(#linear0);fill-opacity:1;stroke-width:1;stroke-linecap:butt;stroke-linejoin:miter;stroke:url(#linear0);stroke-opacity:1;stroke-miterlimit:4;" d="M 261.637806 150.374007 L 239.690505 155.950715 L 231.857379 177.161685 L 219.780301 158.069376 L 197.178218 157.192689 L 211.63191 139.756345 L 205.496366 117.985268 L 226.522124 126.362506 L 245.292523 113.772297 L 243.861704 136.347004 Z M 261.637806 150.374007 " transform="matrix(0.161075,0,0,0.160405,-0.0846523,-15.038697)"/>
<path style="fill-rule:evenodd;fill:url(#linear0);fill-opacity:1;stroke-width:1;stroke-linecap:butt;stroke-linejoin:miter;stroke:url(#linear0);stroke-opacity:1;stroke-miterlimit:4;" d="M 261.645505 150.367427 L 239.698204 155.944135 L 231.88933 177.203811 L 219.788 158.062797 L 197.161666 157.186109 L 211.615358 139.749766 L 205.479814 117.978689 L 226.481321 126.355926 L 245.324473 113.765717 L 243.845153 136.364777 Z M 261.645505 150.367427 " transform="matrix(0.161075,0,0,0.160405,16.67192,10.399859)"/>
<path style="fill-rule:evenodd;fill:url(#linear0);fill-opacity:1;stroke-width:1;stroke-linecap:butt;stroke-linejoin:miter;stroke:url(#linear0);stroke-opacity:1;stroke-miterlimit:4;" d="M 261.61096 150.366606 L 239.68791 155.967666 L 231.854785 177.178637 L 219.777706 158.037623 L 197.175623 157.160935 L 211.629316 139.773297 L 205.493772 117.977867 L 226.495278 126.355105 L 245.338431 113.789248 L 243.85911 136.363956 Z M 261.61096 150.366606 " transform="matrix(0.161075,0,0,0.160405,-4.478766,1.325772)"/>
</g>
</svg>
