<svg xmlns="http://www.w3.org/2000/svg" xmlns:xlink="http://www.w3.org/1999/xlink" width="64" height="64" viewBox="0 0 64 64" version="1.1">
<defs>
<linearGradient id="linear0" gradientUnits="userSpaceOnUse" x1="0" y1="0" x2="0" y2="1" gradientTransform="matrix(62.289062,0,0,64,0.855469,0)">
<stop offset="0" style="stop-color:#ff6666;stop-opacity:1;"/>
<stop offset="1" style="stop-color:#d90000;stop-opacity:1;"/>
</linearGradient>
</defs>
<g id="surface1">
<path style=" stroke:none;fill-rule:evenodd;fill:url(#linear0);" d="M 24.929688 63.8125 C 24.996094 63.847656 25.066406 63.878906 25.144531 63.902344 L 25.144531 43.859375 C 27.164062 45.03125 29.5 45.714844 32 45.714844 C 39.574219 45.714844 45.714844 39.574219 45.714844 32 C 45.714844 24.425781 39.574219 18.285156 32 18.285156 C 24.429688 18.285156 18.289062 24.425781 18.289062 32 L 18.289062 53.605469 C 19.679688 54.480469 21.15625 55.246094 22.699219 55.851562 L 23.210938 58.4375 L 24.046875 62.699219 C 24.078125 62.851562 24.132812 62.992188 24.191406 63.132812 C 24.265625 63.238281 24.34375 63.347656 24.460938 63.421875 C 24.570312 63.597656 24.738281 63.71875 24.929688 63.8125 Z M 22.699219 55.851562 C 20.277344 54.902344 18 53.601562 16 52 L 9.351562 54.253906 C 8.660156 54.488281 7.824219 54.179688 7.453125 53.550781 L 1.050781 42.453125 C 0.691406 41.8125 0.84375 40.929688 1.398438 40.453125 L 6.699219 35.800781 C 6.515625 34.550781 6.398438 33.300781 6.398438 32 C 6.398438 30.703125 6.515625 29.449219 6.699219 28.199219 L 1.398438 23.550781 C 0.84375 23.070312 0.691406 22.1875 1.050781 21.550781 L 7.453125 10.453125 C 7.824219 9.824219 8.660156 9.511719 9.351562 9.753906 L 16 12 C 18 10.398438 20.277344 9.101562 22.699219 8.152344 L 24.046875 1.304688 C 24.171875 0.632812 24.773438 0.0742188 25.449219 0.00390625 L 25.453125 0 C 25.5 0 25.550781 0 25.601562 0 L 38.398438 0 C 39.128906 0.0117188 39.8125 0.585938 39.953125 1.300781 L 41.300781 8.152344 C 43.722656 9.101562 46 10.398438 48 12 L 54.648438 9.753906 C 55.339844 9.511719 56.175781 9.824219 56.546875 10.453125 L 62.949219 21.550781 C 63.308594 22.1875 63.15625 23.070312 62.601562 23.550781 L 57.300781 28.199219 C 57.484375 29.449219 57.601562 30.703125 57.601562 32 C 57.601562 33.300781 57.484375 34.554688 57.300781 35.800781 L 62.601562 40.453125 C 63.15625 40.929688 63.308594 41.8125 62.949219 42.453125 L 56.546875 53.550781 C 56.175781 54.179688 55.339844 54.488281 54.648438 54.253906 L 48 52 C 46 53.601562 43.722656 54.902344 41.300781 55.851562 L 39.949219 62.699219 C 39.8125 63.414062 39.128906 63.992188 38.398438 64 L 25.601562 64 C 25.359375 63.996094 25.125 63.933594 24.929688 63.8125 C 24.730469 63.726562 24.566406 63.601562 24.460938 63.421875 C 24.34375 63.351562 24.265625 63.238281 24.191406 63.132812 C 24.132812 62.992188 24.078125 62.847656 24.050781 62.699219 L 23.210938 58.4375 Z M 32 25.144531 C 35.789062 25.144531 38.855469 28.210938 38.855469 32 C 38.855469 35.789062 35.789062 38.855469 32 38.855469 C 30.179688 38.855469 28.4375 38.136719 27.152344 36.847656 C 25.863281 35.5625 25.144531 33.820312 25.144531 32 C 25.144531 28.210938 28.210938 25.144531 32 25.144531 Z M 32 25.144531 "/>
</g>
</svg>
