<svg xmlns="http://www.w3.org/2000/svg" xmlns:xlink="http://www.w3.org/1999/xlink" width="64" height="64" viewBox="0 0 64 64" version="1.1">
<defs>
<linearGradient id="linear0" gradientUnits="userSpaceOnUse" x1="0" y1="0" x2="0" y2="1" gradientTransform="matrix(64,0,0,61.859375,0,1.070312)">
<stop offset="0" style="stop-color:#ff6666;stop-opacity:1;"/>
<stop offset="1" style="stop-color:#d90000;stop-opacity:1;"/>
</linearGradient>
</defs>
<g id="surface1">
<path style=" stroke:none;fill-rule:evenodd;fill:url(#linear0);" d="M 23.53125 5.808594 C 27.660156 2.710938 32.503906 1.070312 37.492188 1.070312 C 44.519531 1.070312 51.265625 4.332031 56.234375 10.132812 C 61.207031 15.933594 64 23.796875 64 32 C 64 40.203125 61.207031 48.066406 56.234375 53.867188 C 51.265625 59.667969 44.519531 62.929688 37.492188 62.929688 C 32.628906 62.929688 27.902344 61.367188 23.835938 58.429688 C 23.578125 59.363281 23.054688 60.195312 22.367188 60.886719 C 21.121094 62.136719 19.429688 62.832031 17.671875 62.832031 C 15.914062 62.832031 14.238281 62.136719 12.992188 60.886719 C 11.753906 59.648438 11.042969 57.960938 11.042969 56.203125 L 11.042969 34.132812 C 11.003906 33.425781 10.984375 32.714844 10.984375 32 C 10.984375 31.285156 11.003906 30.570312 11.042969 29.863281 L 11.042969 23.589844 C 9.765625 24.742188 8.074219 25.34375 6.351562 25.277344 C 4.628906 25.199219 3.003906 24.460938 1.8125 23.210938 C 0.632812 21.953125 -0.0195312 20.285156 0 18.558594 C 0.03125 16.835938 0.726562 15.179688 1.945312 13.964844 L 10.238281 5.667969 C 16.398438 -0.492188 21.640625 -0.117188 23.53125 5.808594 Z M 24.300781 33.789062 C 25.011719 43.667969 31.554688 49.671875 37.492188 49.671875 C 43.777344 49.671875 50.742188 42.941406 50.742188 32 C 50.742188 21.058594 43.777344 14.328125 37.492188 14.328125 C 31.554688 14.328125 25.011719 20.332031 24.300781 30.210938 Z M 24.300781 33.789062 "/>
</g>
</svg>
