<svg xmlns="http://www.w3.org/2000/svg" xmlns:xlink="http://www.w3.org/1999/xlink" width="64" height="64" viewBox="0 0 64 64" version="1.1">
<defs>
<linearGradient id="linear0" gradientUnits="userSpaceOnUse" x1="0" y1="0" x2="0" y2="1" gradientTransform="matrix(64,0,0,64,0,0)">
<stop offset="0" style="stop-color:#ff6666;stop-opacity:1;"/>
<stop offset="1" style="stop-color:#d90000;stop-opacity:1;"/>
</linearGradient>
</defs>
<g id="surface1">
<path style=" stroke:none;fill-rule:nonzero;fill:url(#linear0);" d="M 32 0 L 35.121094 16.308594 L 44.246094 2.4375 L 40.886719 18.695312 L 54.628906 9.371094 L 45.304688 23.113281 L 61.5625 19.753906 L 47.691406 28.878906 L 64 32 L 47.691406 35.121094 L 61.5625 44.242188 L 45.304688 40.886719 L 54.628906 54.628906 L 40.886719 45.304688 L 44.246094 61.5625 L 35.121094 47.691406 L 32 64 L 28.878906 47.691406 L 19.753906 61.5625 L 23.113281 45.304688 L 9.371094 54.628906 L 18.695312 40.886719 L 2.4375 44.242188 L 16.308594 35.121094 L 0 32 L 16.308594 28.878906 L 2.4375 19.753906 L 18.695312 23.113281 L 9.371094 9.371094 L 23.113281 18.695312 L 19.753906 2.4375 L 28.878906 16.308594 Z M 32 0 "/>
</g>
</svg>
