<svg xmlns="http://www.w3.org/2000/svg" xmlns:xlink="http://www.w3.org/1999/xlink" width="64" height="64" viewBox="0 0 64 64" version="1.1">
<defs>
<linearGradient id="linear0" gradientUnits="userSpaceOnUse" x1="0" y1="0" x2="0" y2="1" gradientTransform="matrix(55.957031,0,0,58.691406,3.628906,1.308594)">
<stop offset="0" style="stop-color:#ff6666;stop-opacity:1;"/>
<stop offset="1" style="stop-color:#d90000;stop-opacity:1;"/>
</linearGradient>
</defs>
<g id="surface1">
<path style=" stroke:none;fill-rule:nonzero;fill:url(#linear0);" d="M 4 12 C 2.59375 9.539062 5.476562 6.167969 7.554688 4.214844 C 9.488281 2.394531 12.335938 1.546875 14.984375 1.347656 C 18.042969 1.121094 21.28125 1.867188 23.972656 3.34375 C 26.996094 5.007812 29.382812 7.792969 31.292969 10.667969 C 33.59375 14.125 35.003906 18.164062 36.007812 22.1875 C 36.773438 25.261719 36.585938 28.496094 36.953125 31.640625 C 37.34375 34.972656 37.175781 38.453125 38.285156 41.625 C 39.140625 44.066406 40.523438 46.378906 42.277344 48.28125 C 43.574219 49.683594 45.167969 50.898438 46.9375 51.609375 C 49.125 52.484375 51.605469 52.238281 53.929688 52.609375 C 55.820312 52.910156 59.585938 53.605469 59.585938 53.605469 C 59.585938 53.605469 54.5625 56.4375 51.933594 57.601562 C 49.878906 58.511719 47.847656 59.765625 45.605469 59.933594 C 42.894531 60.132812 40.035156 59.519531 37.617188 58.265625 C 35.597656 57.21875 33.917969 55.480469 32.625 53.605469 C 31.128906 51.4375 30.246094 48.847656 29.628906 46.285156 C 28.320312 40.847656 28.222656 29.5625 28.222656 29.5625 C 28.222656 29.5625 25.285156 32.863281 23.972656 34.632812 C 22.15625 37.082031 20.109375 39.460938 18.980469 42.289062 C 17.847656 45.117188 17.605469 48.246094 17.3125 51.277344 C 17.035156 54.171875 17.238281 60 17.238281 60 L 10.222656 60 C 10.222656 60 10.078125 53.730469 10.324219 50.613281 C 10.582031 47.34375 10.621094 43.957031 11.765625 40.882812 C 13.042969 37.460938 15.363281 34.488281 17.648438 31.640625 C 19.511719 29.3125 21.984375 27.535156 23.972656 25.3125 C 24.917969 24.253906 26.574219 23.40625 26.632812 21.984375 C 26.722656 19.988281 24.628906 18.492188 23.304688 16.992188 C 21.851562 15.339844 20.332031 13.546875 18.3125 12.664062 C 16.472656 11.859375 14.328125 12.109375 12.320312 12 C 9.550781 11.847656 5.375 14.410156 4 12 Z M 4 12 "/>
</g>
</svg>
