<svg xmlns="http://www.w3.org/2000/svg" xmlns:xlink="http://www.w3.org/1999/xlink" width="64" height="64" viewBox="0 0 64 64" version="1.1">
<defs>
<linearGradient id="linear0" gradientUnits="userSpaceOnUse" x1="0" y1="0" x2="0" y2="1" gradientTransform="matrix(48.945313,0,0,64,7.527344,0)">
<stop offset="0" style="stop-color:#ff6666;stop-opacity:1;"/>
<stop offset="1" style="stop-color:#d90000;stop-opacity:1;"/>
</linearGradient>
</defs>
<g id="surface1">
<path style=" stroke:none;fill-rule:nonzero;fill:url(#linear0);" d="M 32 0 C 30.464844 0 28.929688 0.0664062 27.949219 0.207031 C 16.148438 1.894531 9.175781 7.609375 7.78125 16.726562 C 7.625 17.734375 7.578125 19.523438 7.554688 26.378906 L 7.527344 34.523438 L 7.867188 35.0625 C 8.710938 36.402344 9.882812 37.347656 15.441406 41.171875 C 24.726562 47.566406 28.542969 49.902344 30.894531 50.613281 C 31.269531 50.726562 31.777344 50.820312 32.03125 50.824219 C 33.59375 50.84375 38.15625 48.304688 45.0625 43.5625 C 53.675781 37.65625 55.277344 36.433594 56.113281 35.09375 L 56.472656 34.523438 L 56.472656 27.804688 C 56.472656 19.042969 56.40625 17.496094 55.996094 15.617188 C 55.261719 12.269531 53.921875 9.625 51.789062 7.320312 C 48.359375 3.621094 43.003906 1.203125 36.046875 0.207031 C 35.070312 0.0664062 33.535156 0 32 0 Z M 32 11.296875 C 39.527344 11.296875 43.171875 15.730469 44.871094 21.167969 C 45.171875 22.128906 45.175781 22.164062 45.175781 26.058594 C 45.175781 28.214844 45.144531 30.023438 45.101562 30.0625 C 45.054688 30.109375 39.1875 30.128906 32 30.113281 C 24.8125 30.128906 18.945312 30.109375 18.898438 30.0625 C 18.855469 30.023438 18.824219 28.214844 18.824219 26.058594 C 18.824219 22.164062 18.828125 22.128906 19.128906 21.167969 C 20.828125 15.730469 24.472656 11.296875 32 11.296875 Z M 56.472656 40.167969 L 56.113281 40.738281 C 55.277344 42.078125 53.675781 43.304688 45.0625 49.210938 C 38.15625 53.953125 33.59375 56.492188 32.03125 56.472656 C 31.777344 56.46875 31.269531 56.371094 30.894531 56.261719 C 28.542969 55.546875 24.726562 53.214844 15.441406 46.820312 C 9.882812 42.992188 8.710938 42.050781 7.867188 40.707031 L 7.535156 40.179688 C 7.535156 40.449219 7.535156 41.585938 7.535156 41.695312 C 7.535156 41.726562 7.527344 41.757812 7.527344 41.792969 L 7.527344 54.214844 C 7.527344 54.332031 7.558594 54.433594 7.5625 54.542969 L 7.589844 61.847656 L 7.957031 62.523438 C 8.238281 63.039062 8.46875 63.277344 8.929688 63.539062 L 9.523438 63.886719 L 19.277344 63.949219 C 24.640625 63.980469 34.675781 64.003906 41.585938 64 L 54.144531 63.992188 L 54.753906 63.738281 C 55.53125 63.40625 55.761719 63.210938 56.121094 62.546875 L 56.410156 62.003906 L 56.425781 54.714844 C 56.433594 54.542969 56.472656 54.390625 56.472656 54.214844 L 56.472656 41.792969 C 56.472656 41.769531 56.464844 41.746094 56.464844 41.722656 Z M 56.472656 40.167969 "/>
</g>
</svg>
