<svg xmlns="http://www.w3.org/2000/svg" xmlns:xlink="http://www.w3.org/1999/xlink" width="64" height="64" viewBox="0 0 64 64" version="1.1">
<defs> <linearGradient id="linear0" gradientUnits="userSpaceOnUse" x1="0" y1="0" x2="0" y2="1" gradientTransform="matrix(55.992188,0,0,56,4.003906,4)"> <stop offset="0" style="stop-color:#ff6666;stop-opacity:1;"/> <stop offset="1" style="stop-color:#d90000;stop-opacity:1;"/> </linearGradient> </defs>
<g id="surface1">
<path style=" stroke:none;fill-rule:nonzero;fill:url(#linear0);fill-opacity:1;" d="M 31.339844 21.214844 C 26.023438 21.214844 21.714844 25.503906 21.714844 30.800781 C 21.714844 36.09375 26.023438 40.390625 31.339844 40.390625 C 36.65625 40.390625 40.964844 36.09375 40.964844 30.800781 C 40.964844 25.503906 36.65625 21.214844 31.339844 21.214844 Z M 29.414062 25.046875 L 33.265625 25.046875 L 33.265625 28.882812 L 37.117188 28.882812 L 37.117188 32.714844 L 33.265625 32.714844 L 33.265625 36.550781 L 29.414062 36.550781 L 29.414062 32.714844 L 25.566406 32.714844 L 25.566406 28.882812 L 29.414062 28.882812 Z M 29.414062 25.046875 "/>
<path style=" stroke:none;fill-rule:nonzero;fill:url(#linear0);fill-opacity:1;" d="M 17.859375 11.621094 C 14.816406 11.621094 11.542969 12.363281 8.941406 13.917969 C 6.339844 15.472656 4.382812 17.960938 4.382812 21.214844 C 4.382812 28.484375 10.617188 35.578125 18.671875 40.945312 C 26.71875 46.3125 36.691406 49.976562 44.824219 49.976562 C 47.871094 49.976562 51.136719 49.242188 53.742188 47.6875 C 56.34375 46.128906 58.296875 43.636719 58.296875 40.390625 C 58.296875 33.113281 52.0625 26.019531 44.011719 20.652344 C 35.964844 15.285156 25.992188 11.621094 17.859375 11.621094 Z M 17.859375 13.539062 C 25.398438 13.539062 35.167969 17.066406 42.9375 22.25 C 50.707031 27.429688 56.375 34.242188 56.375 40.390625 C 56.375 42.890625 54.960938 44.710938 52.746094 46.035156 C 50.535156 47.359375 47.546875 48.058594 44.816406 48.058594 C 37.28125 48.058594 27.511719 44.53125 19.742188 39.351562 C 11.96875 34.167969 6.308594 27.359375 6.308594 21.214844 C 6.308594 18.707031 7.722656 16.886719 9.929688 15.5625 C 12.144531 14.238281 15.132812 13.539062 17.863281 13.539062 Z M 17.859375 13.539062 "/>
<path style=" stroke:none;fill-rule:nonzero;fill:url(#linear0);fill-opacity:1;" d="M 17.859375 49.976562 C 14.816406 49.976562 11.542969 49.234375 8.941406 47.6875 C 6.339844 46.128906 4.382812 43.636719 4.382812 40.386719 C 4.382812 33.113281 10.617188 26.019531 18.671875 20.652344 C 26.71875 15.285156 36.691406 11.621094 44.824219 11.621094 C 47.871094 11.621094 51.136719 12.363281 53.742188 13.910156 C 56.34375 15.46875 58.296875 17.960938 58.296875 21.214844 C 58.296875 28.484375 52.0625 35.578125 44.011719 40.945312 C 35.964844 46.3125 25.992188 49.976562 17.859375 49.976562 Z M 17.859375 48.058594 C 25.398438 48.058594 35.167969 44.53125 42.9375 39.351562 C 50.707031 34.167969 56.375 27.359375 56.375 21.214844 C 56.375 18.707031 54.960938 16.886719 52.746094 15.5625 C 50.535156 14.238281 47.546875 13.539062 44.816406 13.539062 C 37.28125 13.539062 27.511719 17.066406 19.742188 22.25 C 11.96875 27.429688 6.308594 34.238281 6.308594 40.386719 C 6.308594 42.890625 7.722656 44.710938 9.929688 46.035156 C 12.144531 47.359375 15.132812 48.058594 17.863281 48.058594 Z M 17.859375 48.058594 "/>
<path style=" stroke:none;fill-rule:nonzero;fill:url(#linear0);fill-opacity:1;" d="M 31.339844 2.035156 C 22.832031 2.035156 15.933594 14.914062 15.933594 30.800781 C 15.933594 46.683594 22.832031 59.5625 31.339844 59.5625 C 39.847656 59.5625 46.746094 46.683594 46.746094 30.800781 C 46.746094 14.914062 39.847656 2.035156 31.339844 2.035156 Z M 31.339844 3.953125 C 38.785156 3.953125 44.816406 15.96875 44.816406 30.800781 C 44.816406 45.628906 38.785156 57.644531 31.339844 57.644531 C 23.894531 57.644531 17.859375 45.628906 17.859375 30.800781 C 17.859375 15.96875 23.894531 3.953125 31.339844 3.953125 Z M 31.339844 3.953125 "/>
</g>
</svg>
