<svg xmlns="http://www.w3.org/2000/svg" xmlns:xlink="http://www.w3.org/1999/xlink" width="64" height="64" viewBox="0 0 64 64" version="1.1">
<defs> <linearGradient id="linear0" gradientUnits="userSpaceOnUse" x1="0" y1="0" x2="0" y2="1" gradientTransform="matrix(55.992188,0,0,56,4.003906,4)"> <stop offset="0" style="stop-color:#ff6666;stop-opacity:1;"/> <stop offset="1" style="stop-color:#d90000;stop-opacity:1;"/> </linearGradient> </defs>
<g id="surface1">
<path style=" stroke:none;fill-rule:nonzero;fill:url(#linear0);fill-opacity:1;" d="M 31.140625 2.90625 C 28.925781 2.90625 27.171875 4.761719 27.171875 7.085938 L 27.171875 47.375 C 27.171875 49.699219 28.925781 51.554688 31.140625 51.554688 L 32.976562 51.554688 C 35.183594 51.554688 36.941406 49.699219 36.941406 47.375 L 36.941406 36.957031 L 32.054688 36.957031 L 32.054688 34.527344 L 36.941406 34.527344 L 36.941406 29.664062 L 32.054688 29.664062 L 32.054688 27.230469 L 36.941406 27.230469 L 36.941406 22.367188 L 32.054688 22.367188 L 32.054688 19.933594 L 36.941406 19.933594 L 36.941406 15.070312 L 32.054688 15.070312 L 32.054688 12.640625 L 36.941406 12.640625 L 36.941406 7.089844 C 36.941406 4.761719 35.183594 2.90625 32.976562 2.90625 M 31.140625 2.90625 "/>
<path style=" stroke:none;fill-rule:nonzero;fill:url(#linear0);fill-opacity:1;" d="M 41.828125 51.546875 C 41.886719 55.066406 40.046875 58.335938 36.992188 60.109375 C 33.945312 61.886719 30.171875 61.886719 27.125 60.109375 C 24.070312 58.335938 22.238281 55.066406 22.289062 51.546875 C 22.230469 48.035156 24.070312 44.757812 27.125 42.980469 C 30.164062 41.203125 33.945312 41.203125 36.992188 42.980469 C 40.046875 44.757812 41.875 48.035156 41.828125 51.546875 "/>
</g>
</svg>
