<svg xmlns="http://www.w3.org/2000/svg" xmlns:xlink="http://www.w3.org/1999/xlink" width="64" height="64" viewBox="0 0 64 64" version="1.1">
<defs> <linearGradient id="linear0" gradientUnits="userSpaceOnUse" x1="0" y1="0" x2="0" y2="1" gradientTransform="matrix(55.992188,0,0,56,4.003906,4)"> <stop offset="0" style="stop-color:#ff6666;stop-opacity:1;"/> <stop offset="1" style="stop-color:#d90000;stop-opacity:1;"/> </linearGradient> </defs>
<g id="surface1">
<path style=" stroke:none;fill-rule:nonzero;fill:url(#linear0);fill-opacity:1;" d="M 1.84375 13.65625 L 62.269531 18.285156 L 29.734375 18.285156 Z M 1.84375 13.65625 "/>
<path style=" stroke:none;fill-rule:nonzero;fill:url(#linear0);fill-opacity:1;" d="M 29.734375 25.226562 L 25.082031 36.804688 L 18.109375 50.6875 L 25.082031 55.320312 L 22.757812 50.6875 L 29.734375 36.804688 L 27.40625 53.003906 L 34.378906 57.632812 L 32.054688 53.003906 L 32.054688 43.746094 L 36.707031 25.226562 L 39.03125 20.601562 L 29.734375 20.601562 Z M 29.734375 25.226562 "/>
<path style=" stroke:none;fill-rule:nonzero;fill:url(#linear0);fill-opacity:1;" d="M 39.03125 11.34375 C 39.03125 13.902344 36.945312 15.96875 34.378906 15.96875 C 31.8125 15.96875 29.734375 13.902344 29.734375 11.34375 C 29.734375 8.789062 31.8125 6.710938 34.378906 6.710938 C 36.945312 6.710938 39.03125 8.789062 39.03125 11.34375 Z M 39.03125 11.34375 "/>
<path style=" stroke:none;fill-rule:nonzero;fill:url(#linear0);fill-opacity:1;" d="M 27.675781 24.691406 L 62.472656 27.359375 L 43.738281 27.359375 Z M 27.675781 24.691406 "/>
<path style=" stroke:none;fill-rule:nonzero;fill:url(#linear0);fill-opacity:1;" d="M 43.738281 31.359375 L 41.058594 38.019531 L 37.042969 46.019531 L 41.058594 48.679688 L 39.722656 46.019531 L 43.738281 38.019531 L 42.398438 47.347656 L 46.414062 50.015625 L 45.074219 47.347656 L 45.074219 42.019531 L 47.753906 31.359375 L 49.085938 28.691406 L 43.738281 28.691406 Z M 43.738281 31.359375 "/>
<path style=" stroke:none;fill-rule:nonzero;fill:url(#linear0);fill-opacity:1;" d="M 49.085938 23.363281 C 49.085938 24.832031 47.890625 26.027344 46.414062 26.027344 C 44.9375 26.027344 43.738281 24.832031 43.738281 23.363281 C 43.738281 21.886719 44.9375 20.691406 46.414062 20.691406 C 47.890625 20.691406 49.085938 21.886719 49.085938 23.363281 Z M 49.085938 23.363281 "/>
</g>
</svg>
