<svg xmlns="http://www.w3.org/2000/svg" xmlns:xlink="http://www.w3.org/1999/xlink" width="64" height="64" viewBox="0 0 64 64" version="1.1">
<defs>
<linearGradient id="linear0" gradientUnits="userSpaceOnUse" x1="0" y1="0" x2="0" y2="1" gradientTransform="matrix(55.273438,0,0,52.359375,4.363281,5.820312)">
<stop offset="0" style="stop-color:#ff6666;stop-opacity:1;"/>
<stop offset="1" style="stop-color:#d90000;stop-opacity:1;"/>
</linearGradient>
<linearGradient id="linear1" gradientUnits="userSpaceOnUse" x1="0" y1="0" x2="0" y2="1" gradientTransform="matrix(17.457031,0,0,17.457031,46.542969,20.363281)">
<stop offset="0" style="stop-color:#ff6666;stop-opacity:1;"/>
<stop offset="1" style="stop-color:#d90000;stop-opacity:1;"/>
</linearGradient>
<linearGradient id="linear2" gradientUnits="userSpaceOnUse" x1="0" y1="0" x2="0" y2="1" gradientTransform="matrix(59.511719,0,0,46.417969,0.125,11.761719)">
<stop offset="0" style="stop-color:#ff6666;stop-opacity:1;"/>
<stop offset="1" style="stop-color:#d90000;stop-opacity:1;"/>
</linearGradient>
</defs>
<g id="surface1">
<path style=" stroke:none;fill-rule:evenodd;fill:url(#linear0);" d="M 8.726562 5.820312 C 6.308594 5.820312 4.363281 7.765625 4.363281 10.179688 L 4.363281 53.820312 C 4.363281 56.234375 6.308594 58.179688 8.726562 58.179688 C 11.144531 58.179688 13.09375 56.234375 13.09375 53.820312 L 13.09375 10.179688 C 13.09375 7.765625 11.144531 5.820312 8.726562 5.820312 Z M 55.273438 5.820312 C 52.855469 5.820312 50.90625 7.765625 50.90625 10.179688 L 50.90625 53.820312 C 50.90625 56.234375 52.855469 58.179688 55.273438 58.179688 C 57.691406 58.179688 59.636719 56.234375 59.636719 53.820312 L 59.636719 10.179688 C 59.636719 7.765625 57.691406 5.820312 55.273438 5.820312 Z M 32 5.820312 C 29.585938 5.820312 27.636719 7.765625 27.636719 10.179688 L 27.636719 53.820312 C 27.636719 56.234375 29.585938 58.179688 32 58.179688 C 34.414062 58.179688 36.363281 56.234375 36.363281 53.820312 L 36.363281 10.179688 C 36.363281 7.765625 34.414062 5.820312 32 5.820312 Z M 32 5.820312 "/>
<path style=" stroke:none;fill-rule:nonzero;fill:url(#linear1);" d="M 64 29.09375 C 64 33.910156 60.09375 37.820312 55.273438 37.820312 C 50.453125 37.820312 46.542969 33.910156 46.542969 29.09375 C 46.542969 24.273438 50.453125 20.363281 55.273438 20.363281 C 60.09375 20.363281 64 24.273438 64 29.09375 Z M 64 29.09375 "/>
<path style=" stroke:none;fill-rule:evenodd;fill:url(#linear2);" d="M 55.273438 32.285156 C 52.855469 32.285156 50.90625 34.230469 50.90625 36.648438 L 50.90625 53.820312 C 50.90625 56.234375 52.855469 58.179688 55.273438 58.179688 C 57.691406 58.179688 59.636719 56.234375 59.636719 53.820312 L 59.636719 36.648438 C 59.636719 34.230469 57.691406 32.285156 55.273438 32.285156 Z M 4.363281 27.976562 L 4.363281 53.820312 C 4.363281 56.234375 6.308594 58.179688 8.726562 58.179688 C 11.144531 58.179688 13.09375 56.234375 13.09375 53.820312 L 13.09375 28.121094 C 15.769531 26.628906 17.578125 23.773438 17.578125 20.488281 C 17.578125 15.667969 13.671875 11.761719 8.851562 11.761719 C 4.03125 11.761719 0.125 15.667969 0.125 20.488281 C 0.125 23.667969 1.824219 26.449219 4.363281 27.976562 Z M 27.636719 48.289062 L 27.636719 53.820312 C 27.636719 56.234375 29.585938 58.179688 32 58.179688 C 34.414062 58.179688 36.363281 56.234375 36.363281 53.820312 L 36.363281 48.289062 C 38.972656 46.78125 40.726562 43.957031 40.726562 40.726562 C 40.726562 35.90625 36.820312 32 32 32 C 27.179688 32 23.273438 35.90625 23.273438 40.726562 C 23.273438 43.957031 25.027344 46.78125 27.636719 48.289062 Z M 27.636719 48.289062 "/>
</g>
</svg>
