<svg xmlns="http://www.w3.org/2000/svg" xmlns:xlink="http://www.w3.org/1999/xlink" width="64" height="64" viewBox="0 0 64 64" version="1.1">
<defs>
<linearGradient id="linear0" gradientUnits="userSpaceOnUse" x1="0" y1="0" x2="0" y2="1" gradientTransform="matrix(64,0,0,64,0,0)">
<stop offset="0" style="stop-color:#ff6666;stop-opacity:1;"/>
<stop offset="1" style="stop-color:#d90000;stop-opacity:1;"/>
</linearGradient>
</defs>
<g id="surface1">
<path style=" stroke:none;fill-rule:nonzero;fill:url(#linear0);" d="M 25.601562 0 L 25.601562 3.199219 C 25.601562 5.753906 23.601562 8.277344 22.800781 9.199219 C 22.601562 9.4375 22.601562 9.558594 22.699219 9.5 C 23.585938 8.988281 28.152344 6.398438 32 6.398438 C 36.8125 6.398438 39.640625 8.359375 41.398438 9.5 C 41.476562 9.546875 41.1875 9.1875 41.101562 9.101562 C 39.722656 7.722656 38.398438 4.972656 38.398438 3.199219 C 38.398438 0.0507812 35.199219 0 35.199219 0 Z M 32 9.601562 C 27.574219 9.601562 23.601562 12.671875 20.699219 17.601562 C 18.074219 22.0625 16.300781 28.023438 16 34.699219 C 15.976562 35.128906 15.898438 35.253906 15.898438 34.898438 C 15.886719 26.277344 16.039062 22.625 19.199219 16 C 19.328125 15.488281 19.136719 14.441406 18.300781 13.601562 C 17.777344 13.074219 17.238281 12.800781 16 12.800781 C 7.160156 12.800781 0 21.789062 0 36.800781 C 0 51.8125 7.160156 60.800781 16 60.800781 C 18.734375 60.800781 19.898438 60 22 58 C 24.699219 61.648438 28.273438 64 32 64 C 35.722656 64 39.300781 61.652344 42 58 C 44.101562 60 45.265625 60.800781 48 60.800781 C 56.839844 60.800781 64 51.8125 64 36.800781 C 64 21.789062 56.839844 12.800781 48 12.800781 C 46.613281 12.800781 45.976562 13.324219 45.699219 13.601562 C 44.863281 14.441406 44.675781 15.488281 44.800781 16 C 47.9375 22.589844 48.011719 26.300781 48 34.800781 C 47.710938 28.136719 46.011719 22.070312 43.398438 17.601562 C 40.5 12.640625 36.441406 9.601562 32 9.601562 Z M 32 9.601562 "/>
</g>
</svg>
