<svg xmlns="http://www.w3.org/2000/svg" xmlns:xlink="http://www.w3.org/1999/xlink" width="64" height="64" viewBox="0 0 64 64" version="1.1">
<defs> <linearGradient id="linear0" gradientUnits="userSpaceOnUse" x1="0" y1="0" x2="0" y2="1" gradientTransform="matrix(55.992188,0,0,56,4.003906,4)"> <stop offset="0" style="stop-color:#ff6666;stop-opacity:1;"/> <stop offset="1" style="stop-color:#d90000;stop-opacity:1;"/> </linearGradient> </defs>
<g id="surface1">
<path style=" stroke:none;fill-rule:nonzero;fill:url(#linear0);fill-opacity:1;" d="M 8.234375 7.46875 C 7.628906 7.53125 7.136719 8.082031 7.140625 8.679688 L 7.140625 30.703125 C 7.140625 31.347656 7.722656 31.914062 8.359375 31.914062 L 19.414062 31.914062 L 19.414062 35.984375 L 11.238281 35.984375 L 11.238281 40.0625 L 26.128906 40.0625 L 26.128906 31.976562 L 21.398438 27.839844 L 12.128906 27.839844 C 11.695312 27.839844 11.300781 27.441406 11.300781 27.011719 L 11.300781 12.375 C 11.289062 11.988281 11.558594 11.617188 11.941406 11.542969 C 11.988281 11.535156 12.082031 11.535156 12.128906 11.542969 L 34.882812 11.542969 C 35.316406 11.542969 35.714844 11.949219 35.714844 12.375 L 35.714844 18.226562 L 39.871094 18.226562 L 39.871094 8.679688 C 39.871094 8.042969 39.296875 7.46875 38.65625 7.46875 "/>
<path style=" stroke:none;fill-rule:nonzero;fill:url(#linear0);fill-opacity:1;" d="M 36.042969 19.691406 L 41.097656 23.765625 L 55.351562 23.765625 C 55.78125 23.765625 56.179688 24.160156 56.179688 24.589844 L 56.179688 39.230469 C 56.179688 39.660156 55.78125 40.058594 55.351562 40.058594 L 32.59375 40.058594 C 32.167969 40.058594 31.765625 39.660156 31.765625 39.230469 L 31.765625 36.941406 L 27.632812 33.308594 L 27.632812 42.925781 C 27.632812 43.570312 28.183594 44.132812 28.847656 44.132812 L 39.90625 44.132812 L 39.90625 48.207031 L 31.722656 48.207031 L 31.722656 52.285156 L 56.265625 52.285156 L 56.265625 48.207031 L 48.085938 48.207031 L 48.085938 44.132812 L 59.121094 44.132812 C 59.769531 44.132812 60.359375 43.570312 60.359375 42.925781 L 60.359375 20.902344 C 60.359375 20.261719 59.78125 19.691406 59.121094 19.691406 "/>
<path style=" stroke:none;fill-rule:evenodd;fill:url(#linear0);fill-opacity:1;" d="M 15.324219 19.691406 L 33.730469 35.984375 L 33.730469 25.800781 L 48.054688 31.914062 L 27.597656 15.613281 L 27.597656 23.253906 L 15.332031 19.691406 "/>
</g>
</svg>
