<svg xmlns="http://www.w3.org/2000/svg" xmlns:xlink="http://www.w3.org/1999/xlink" width="64" height="64" viewBox="0 0 64 64" version="1.1">
<defs>
<linearGradient id="linear0" gradientUnits="userSpaceOnUse" x1="0" y1="0" x2="0" y2="1" gradientTransform="matrix(51.203125,0,0,64,6.398438,0)">
<stop offset="0" style="stop-color:#ff6666;stop-opacity:1;"/>
<stop offset="1" style="stop-color:#d90000;stop-opacity:1;"/>
</linearGradient>
</defs>
<g id="surface1">
<path style=" stroke:none;fill-rule:evenodd;fill:url(#linear0);" d="M 48 0 L 48 48 L 57.601562 48 L 57.601562 0 Z M 48 54.398438 L 48 64 L 57.601562 64 L 57.601562 54.398438 Z M 33.601562 0 C 18.574219 0 6.398438 10.742188 6.398438 24 C 6.398438 37.257812 18.574219 48 33.601562 48 C 36.3125 47.996094 39.007812 47.636719 41.601562 46.933594 L 41.601562 39.675781 C 39.125 40.941406 36.378906 41.601562 33.601562 41.601562 C 23.878906 41.601562 16 33.71875 16 24 C 16 14.28125 23.878906 6.398438 33.601562 6.398438 C 36.382812 6.40625 39.125 7.070312 41.601562 8.34375 L 41.601562 1.089844 C 39.007812 0.375 36.3125 0.0078125 33.601562 0 Z M 33.601562 0 "/>
</g>
</svg>
