<svg xmlns="http://www.w3.org/2000/svg" xmlns:xlink="http://www.w3.org/1999/xlink" width="64" height="64" viewBox="0 0 64 64" version="1.1">
<defs>
<linearGradient id="linear0" gradientUnits="userSpaceOnUse" x1="0" y1="0" x2="0" y2="1" gradientTransform="matrix(44.046875,0,0,64,9.976562,0)">
<stop offset="0" style="stop-color:#ff6666;stop-opacity:1;"/>
<stop offset="1" style="stop-color:#d90000;stop-opacity:1;"/>
</linearGradient>
</defs>
<g id="surface1">
<path style=" stroke:none;fill-rule:nonzero;fill:url(#linear0);" d="M 20.445312 0 C 20.402344 1.46875 17.84375 0.195312 17.730469 1.875 C 14.894531 0.613281 17.949219 3.800781 17.664062 4.097656 L 17.652344 4.097656 L 17.4375 4.070312 C 17.300781 4.023438 17.101562 3.945312 16.808594 3.761719 C 16.207031 4.238281 15.785156 4.867188 15.433594 5.566406 C 13.0625 9.253906 11.910156 12.324219 11.132812 16.199219 C 10.140625 21.15625 9.894531 26.945312 9.996094 31.824219 C 10.105469 33.203125 10.449219 34.503906 11.574219 35.371094 C 14.753906 37.984375 17.394531 41.28125 20.0625 44.425781 C 25.316406 51.542969 29.914062 57.617188 32.914062 64 C 32.585938 61.855469 32.15625 58.445312 31.953125 55.804688 C 30.128906 46.511719 26.40625 41.597656 25.980469 31.214844 C 25.878906 28.648438 28.648438 23.457031 31.746094 20.734375 C 36.425781 16.625 39.800781 17.660156 45.769531 18.539062 C 45.800781 18.546875 45.84375 18.554688 45.875 18.558594 C 46.070312 18.597656 46.289062 18.632812 46.484375 18.671875 C 48.078125 18.8125 51.28125 19.433594 51.855469 18.332031 C 49.65625 16.460938 46.496094 16.21875 43.816406 15.484375 C 43.394531 15.402344 42.863281 15.316406 42.34375 15.269531 L 39.722656 14.6875 L 39.066406 14.511719 L 39.066406 14.535156 L 29.683594 12.707031 C 29.535156 12.570312 29.371094 12.4375 29.21875 12.332031 L 38.375 13.46875 L 38.375 13.421875 C 38.695312 13.492188 39.019531 13.550781 39.34375 13.59375 L 39.34375 13.613281 L 45.8125 14.804688 C 46.929688 15.21875 48.121094 15.539062 49.234375 15.609375 C 51.078125 15.875 53.421875 18.628906 54.023438 18.761719 C 53.726562 15.863281 50.839844 14.566406 48.441406 13.714844 C 45.636719 12.351562 41.445312 12.398438 41 8.632812 C 40.878906 8.367188 40.769531 8.109375 40.625 7.855469 L 39.53125 6.40625 L 39.570312 6.386719 C 38.078125 4.628906 35.988281 3.34375 33.761719 2.855469 C 31.546875 2.09375 29.058594 1.335938 26.71875 1.03125 C 25.929688 3.367188 25.039062 -0.820312 23.132812 0.421875 C 21.457031 0.621094 21.6875 1.058594 20.445312 0 Z M 32.003906 5.269531 C 32.597656 5.253906 33.273438 5.382812 33.953125 5.675781 C 35.761719 6.457031 36.9375 8.101562 36.589844 9.351562 C 36.242188 10.605469 34.488281 10.976562 32.679688 10.195312 C 30.871094 9.414062 29.691406 7.796875 30.039062 6.542969 C 30.261719 5.761719 31.019531 5.300781 32.003906 5.269531 Z M 32.003906 5.269531 "/>
</g>
</svg>
