<svg xmlns="http://www.w3.org/2000/svg" xmlns:xlink="http://www.w3.org/1999/xlink" width="64" height="64" viewBox="0 0 64 64" version="1.1">
<defs>
<linearGradient id="linear0" gradientUnits="userSpaceOnUse" x1="0" y1="0" x2="0" y2="1" gradientTransform="matrix(64,0,0,61.25,0,1.375)">
<stop offset="0" style="stop-color:#ff6666;stop-opacity:1;"/>
<stop offset="1" style="stop-color:#d90000;stop-opacity:1;"/>
</linearGradient>
</defs>
<g id="surface1">
<path style=" stroke:none;fill-rule:evenodd;fill:url(#linear0);" d="M 27.402344 26.839844 C 27.402344 29.765625 27.402344 32.6875 27.402344 35.617188 C 29.558594 37.738281 31.714844 39.863281 33.871094 41.988281 C 33.871094 41.992188 33.871094 41.992188 33.871094 41.992188 C 35.722656 43.816406 37.574219 45.644531 39.429688 47.472656 C 44.425781 52.429688 49.425781 57.382812 54.347656 62.410156 L 64 62.625 L 63.402344 53.359375 L 50.652344 40.585938 C 50.664062 40.585938 50.675781 40.585938 50.6875 40.585938 L 43.128906 33.128906 L 36.660156 26.753906 C 33.574219 26.777344 30.488281 26.808594 27.402344 26.839844 Z M 27.3125 61.144531 C 23.105469 60.605469 20.105469 59.6875 16.1875 57.746094 C 14.285156 56.804688 14.109375 56.707031 13.742188 56.375 C 13.570312 56.222656 13.382812 56.097656 13.320312 56.097656 C 12.988281 56.097656 9.734375 53.488281 8.511719 52.238281 C 7.867188 51.578125 6.792969 50.351562 6.296875 49.710938 C 5.21875 48.316406 4.648438 47.523438 4.648438 47.433594 C 4.648438 47.378906 4.503906 47.136719 4.332031 46.886719 C 3.820312 46.164062 2.980469 44.523438 2.375 43.074219 C 0.367188 38.261719 -0.394531 32.964844 0.195312 27.964844 C 0.675781 23.910156 1.832031 20.070312 3.421875 17.261719 C 3.726562 16.71875 3.976562 16.242188 3.976562 16.199219 C 3.976562 16.03125 5.894531 13.339844 6.632812 12.472656 C 8.042969 10.804688 10.734375 8.234375 11.640625 7.691406 C 12.65625 7.085938 13.039062 6.8125 13.039062 6.699219 C 13.039062 6.632812 13.117188 6.574219 13.203125 6.574219 C 13.296875 6.574219 13.769531 6.328125 14.257812 6.023438 C 15.976562 4.957031 20.609375 2.878906 21.273438 2.878906 C 21.40625 2.882812 21.859375 2.777344 22.273438 2.648438 C 24.722656 1.882812 28.445312 1.382812 31.761719 1.375 C 35.667969 1.363281 40.265625 2.109375 43.429688 3.261719 C 45.09375 3.867188 47.472656 4.910156 48.316406 5.410156 C 48.777344 5.683594 49.179688 5.902344 49.21875 5.902344 C 49.390625 5.902344 51.398438 7.285156 52.679688 8.285156 C 53.804688 9.164062 56.078125 11.402344 57.597656 13.121094 C 59.019531 14.734375 61.558594 19.605469 62.285156 22.105469 C 63.699219 27.003906 64.019531 30.800781 63.398438 35.363281 C 63.085938 37.6875 62.511719 39.847656 61.445312 42.753906 C 61.015625 43.921875 59.992188 45.855469 59.804688 45.855469 C 59.703125 45.855469 57.519531 43.746094 54.949219 41.171875 L 50.273438 36.492188 L 50.542969 35.308594 C 50.734375 34.464844 50.8125 33.289062 50.8125 31.21875 C 50.808594 28.253906 50.589844 26.808594 49.757812 24.359375 C 49.097656 22.414062 47.296875 19.277344 46.285156 18.300781 C 46.125 18.148438 45.851562 17.847656 45.675781 17.628906 C 45.152344 16.980469 43.578125 15.640625 42.507812 14.929688 C 39.3125 12.804688 35.890625 11.78125 32.011719 11.78125 C 27.535156 11.78125 23.484375 13.191406 19.859375 16.019531 C 18.554688 17.035156 15.894531 20.03125 15.894531 20.484375 C 15.894531 20.589844 15.835938 20.675781 15.765625 20.675781 C 15.578125 20.675781 14.132812 23.609375 13.8125 24.621094 C 13.667969 25.085938 13.433594 25.835938 13.289062 26.300781 C 12.589844 28.515625 12.597656 34.035156 13.296875 36.289062 C 13.980469 38.476562 14.222656 39.125 14.804688 40.277344 C 16.335938 43.324219 18.613281 45.910156 21.390625 47.765625 C 22.554688 48.539062 24.484375 49.5 25.632812 49.875 C 28.347656 50.769531 28.621094 50.808594 31.84375 50.808594 C 33.550781 50.808594 35.222656 50.753906 35.5625 50.679688 L 36.175781 50.546875 L 40.476562 54.78125 L 44.773438 59.015625 L 43.976562 59.328125 C 39.492188 61.089844 32.671875 61.832031 27.3125 61.144531 Z M 27.3125 61.144531 "/>
</g>
</svg>
