<svg xmlns="http://www.w3.org/2000/svg" xmlns:xlink="http://www.w3.org/1999/xlink" width="64" height="64" viewBox="0 0 64 64" version="1.1">
<defs> <linearGradient id="linear0" gradientUnits="userSpaceOnUse" x1="0" y1="0" x2="0" y2="1" gradientTransform="matrix(55.992188,0,0,56,4.003906,4)"> <stop offset="0" style="stop-color:#ff6666;stop-opacity:1;"/> <stop offset="1" style="stop-color:#d90000;stop-opacity:1;"/> </linearGradient> </defs>
<g id="surface1">
<path style=" stroke:none;fill-rule:nonzero;fill:url(#linear0);fill-opacity:1;" d="M 14.832031 9.320312 C 14.332031 9.347656 13.859375 9.578125 13.542969 9.96875 C 13.222656 10.359375 13.089844 10.863281 13.160156 11.363281 L 16.335938 32.207031 L 13.984375 53.058594 C 13.917969 53.71875 14.21875 54.363281 14.769531 54.734375 C 15.320312 55.101562 16.035156 55.128906 16.621094 54.8125 L 36.816406 43.703125 C 36.847656 43.6875 36.878906 43.671875 36.910156 43.648438 L 54.605469 32.417969 C 55.136719 32.082031 55.449219 31.488281 55.429688 30.859375 C 55.40625 30.234375 55.054688 29.667969 54.503906 29.363281 L 35.859375 19.195312 C 35.832031 19.175781 35.804688 19.164062 35.777344 19.15625 L 15.699219 9.5 C 15.433594 9.371094 15.132812 9.308594 14.832031 9.320312 "/>
</g>
</svg>
