<svg xmlns="http://www.w3.org/2000/svg" xmlns:xlink="http://www.w3.org/1999/xlink" width="64" height="64" viewBox="0 0 64 64" version="1.1">
<defs>
<linearGradient id="linear0" gradientUnits="userSpaceOnUse" x1="0" y1="0" x2="0" y2="1" gradientTransform="matrix(56,0,0,51.695312,4,6.152344)">
<stop offset="0" style="stop-color:#ff6666;stop-opacity:1;"/>
<stop offset="1" style="stop-color:#d90000;stop-opacity:1;"/>
</linearGradient>
</defs>
<g id="surface1">
<path style=" stroke:none;fill-rule:nonzero;fill:url(#linear0);" d="M 32.941406 8.425781 C 20.328125 8.425781 10.105469 18.730469 10.105469 31.441406 C 10.109375 40.136719 14.976562 48.089844 22.683594 51.996094 L 24.136719 39.914062 C 21.972656 37.632812 20.765625 34.597656 20.761719 31.441406 C 20.761719 24.664062 26.214844 19.164062 32.941406 19.164062 C 39.667969 19.164062 45.121094 24.664062 45.121094 31.441406 C 45.113281 34.59375 43.902344 37.625 41.742188 39.910156 L 43.191406 51.980469 C 50.902344 48.082031 55.769531 40.132812 55.777344 31.441406 C 55.777344 18.730469 45.554688 8.425781 32.941406 8.425781 "/>
<path style=" stroke:none;fill-rule:nonzero;fill:url(#linear0);" d="M 32.941406 23.769531 C 28.738281 23.769531 25.328125 27.203125 25.328125 31.441406 C 25.335938 34.109375 26.710938 36.585938 28.972656 37.976562 L 27.078125 53.660156 C 28.992188 54.179688 30.964844 54.449219 32.941406 54.453125 C 34.917969 54.453125 36.886719 54.191406 38.800781 53.675781 L 36.910156 37.976562 C 39.171875 36.585938 40.546875 34.109375 40.554688 31.441406 C 40.554688 27.203125 37.144531 23.769531 32.941406 23.769531 "/>
</g>
</svg>
