<svg xmlns="http://www.w3.org/2000/svg" xmlns:xlink="http://www.w3.org/1999/xlink" width="64" height="64" viewBox="0 0 64 64" version="1.1">
<defs>
<linearGradient id="linear0" gradientUnits="userSpaceOnUse" x1="0" y1="0" x2="0" y2="1" gradientTransform="matrix(64,0,0,55.273438,0,4.363281)">
<stop offset="0" style="stop-color:#ff6666;stop-opacity:1;"/>
<stop offset="1" style="stop-color:#d90000;stop-opacity:1;"/>
</linearGradient>
</defs>
<g id="surface1">
<path style=" stroke:none;fill-rule:nonzero;fill:url(#linear0);" d="M 33.78125 4.363281 C 32.730469 4.363281 31.660156 4.40625 30.554688 4.5 C 20.785156 5.320312 13.773438 10.261719 8.113281 16.117188 C 4.121094 20.246094 1.152344 26.042969 0.316406 31.847656 C -0.894531 40.277344 1.378906 47.796875 7.128906 53.214844 C 12.003906 57.8125 19.714844 59.4375 27.808594 59.617188 C 33.484375 59.742188 38.816406 59.277344 43.589844 58.175781 C 45.972656 57.628906 48.308594 56.925781 49.8125 56.023438 C 51.316406 55.121094 52.335938 53.960938 52.367188 52.535156 L 52.367188 52.527344 C 52.367188 50.210938 51.027344 48.308594 49.085938 46.761719 C 43.457031 42.789062 38.84375 40.496094 32.601562 37.34375 C 30.878906 36.527344 29.324219 35.460938 29.097656 33.757812 C 28.800781 31.574219 32.121094 30.914062 33.742188 30.734375 C 36 30.53125 37.898438 30.625 40.199219 30.851562 C 42.496094 31.085938 45.0625 33.140625 45.851562 33.449219 L 45.910156 33.472656 L 45.976562 33.480469 C 46.136719 33.5 46.363281 33.414062 46.46875 33.300781 C 46.570312 33.1875 46.59375 33.097656 46.605469 33.035156 C 46.632812 32.910156 46.625 32.855469 46.617188 32.796875 C 46.609375 32.671875 46.585938 32.550781 46.550781 32.402344 C 46.484375 32.105469 46.371094 31.703125 46.222656 31.222656 C 45.703125 28.234375 43.9375 23.953125 42.703125 21.386719 C 42.410156 20.863281 42.121094 20.40625 41.820312 20.042969 C 41.515625 19.683594 41.222656 19.386719 40.789062 19.277344 C 40.210938 19.121094 39.386719 19.078125 38.277344 19.097656 C 37.164062 19.109375 35.597656 19.191406 34.066406 19.339844 C 31.007812 19.640625 27.710938 20.210938 24.207031 21.050781 C 20.703125 21.890625 17.394531 22.992188 15.089844 24.40625 C 13.933594 25.121094 12.722656 25.90625 12.179688 26.835938 C 11.632812 27.761719 11.5 30.015625 11.921875 31.097656 C 12.816406 33.445312 15.367188 35.207031 18.160156 36.71875 C 24 39.894531 29.15625 41.921875 34.667969 45.324219 C 36.699219 46.429688 38.054688 48.066406 37.753906 49.726562 C 37.433594 51.472656 35.332031 52.347656 33.519531 52.949219 C 30.257812 54.027344 26.96875 53.914062 24.074219 53.816406 C 17.371094 53.527344 11.105469 52.121094 6.5 46.90625 C 3.640625 43.671875 3.246094 40.34375 2.941406 35.574219 C 2.632812 30.902344 4.457031 25.695312 7.070312 21.820312 C 12.886719 13.199219 20.460938 8.210938 30.5 6.878906 C 42.34375 5.363281 50.4375 9.613281 55.617188 14.191406 C 58.203125 16.480469 60.054688 19.246094 61.253906 21.019531 C 61.851562 21.902344 62.289062 22.640625 62.566406 23.140625 C 62.710938 23.390625 62.8125 23.578125 62.882812 23.707031 C 62.914062 23.773438 62.941406 23.816406 62.96875 23.859375 C 62.980469 23.882812 62.960938 23.878906 63.058594 23.984375 C 63.085938 24.011719 63.246094 24.113281 63.246094 24.113281 C 63.246094 24.113281 63.925781 23.882812 63.925781 23.882812 C 63.925781 23.882812 64 23.628906 64 23.585938 C 64 23.535156 63.996094 23.515625 63.992188 23.496094 C 63.960938 23.347656 63.949219 23.351562 63.921875 23.292969 C 63.894531 23.230469 63.859375 23.15625 63.820312 23.066406 C 63.730469 22.886719 63.613281 22.648438 63.453125 22.351562 C 63.128906 21.761719 62.648438 20.949219 62.003906 19.996094 C 60.714844 18.089844 58.765625 15.21875 56.074219 12.820312 C 51.367188 8.621094 44.378906 4.648438 34.8125 4.378906 C 34.472656 4.371094 34.128906 4.363281 33.78125 4.363281 Z M 33.78125 4.363281 "/>
</g>
</svg>
