<svg xmlns="http://www.w3.org/2000/svg" xmlns:xlink="http://www.w3.org/1999/xlink" width="64" height="64" viewBox="0 0 64 64" version="1.1">
<defs> <linearGradient id="linear0" gradientUnits="userSpaceOnUse" x1="0" y1="0" x2="0" y2="1" gradientTransform="matrix(55.992188,0,0,56,4.003906,4)"> <stop offset="0" style="stop-color:#ff6666;stop-opacity:1;"/> <stop offset="1" style="stop-color:#d90000;stop-opacity:1;"/> </linearGradient> </defs>
<g id="surface1">
<path style=" stroke:none;fill-rule:evenodd;fill:url(#linear0);fill-opacity:1;" d="M 10.925781 10.40625 C -0.242188 10.40625 -0.292969 22.378906 -0.292969 22.378906 L -0.292969 35.992188 C -0.292969 38.550781 1.476562 41.960938 3.195312 43.671875 C 6.226562 46.683594 8.328125 46.253906 8.328125 46.253906 C 8.328125 46.253906 8.359375 47.097656 9.214844 49.652344 C 10.074219 52.214844 12.601562 53.941406 15.179688 53.941406 C 17.75 53.941406 18.660156 53.058594 18.660156 53.058594 L 18.660156 49.652344 C 18.660156 49.652344 17.777344 49.6875 16.0625 48.835938 C 14.34375 47.980469 14.347656 46.253906 14.347656 46.253906 C 14.347656 46.253906 16.910156 45.414062 19.484375 42.851562 C 22.0625 40.292969 22.082031 35.992188 22.082031 35.992188 L 22.082031 23.191406 C 22.082031 23.191406 22.089844 10.40625 10.925781 10.40625 M 27.933594 12.164062 L 25.332031 18.96875 L 23.617188 18.96875 L 23.617188 22.378906 L 25.332031 22.378906 L 25.332031 40.328125 C 25.332031 40.328125 25.34375 44.554688 29.636719 44.554688 C 33.929688 44.554688 34.78125 42.851562 34.78125 42.851562 L 34.78125 39.566406 C 34.695312 39.808594 34.355469 40.328125 33.066406 40.328125 C 31.347656 40.328125 30.527344 38.625 30.527344 38.625 L 30.527344 22.378906 L 34.78125 22.378906 L 34.78125 18.972656 L 30.527344 18.972656 L 30.527344 12.171875 L 27.933594 12.171875 M 11.457031 14.691406 C 15.75 14.691406 15.769531 18.917969 15.769531 18.917969 L 15.769531 35.992188 C 15.769531 35.992188 15.75 41.972656 11.457031 41.972656 C 7.164062 41.972656 7.148438 35.992188 7.148438 35.992188 L 7.148438 19.792969 C 7.148438 19.792969 7.164062 14.691406 11.457031 14.691406 "/>
<path style=" stroke:none;fill-rule:nonzero;fill:url(#linear0);fill-opacity:0.968627;" d="M 62.699219 35.019531 C 62.226562 34.949219 61.882812 34.785156 61.675781 34.53125 C 61.398438 34.191406 60.84375 34.175781 59.871094 34.476562 C 58.777344 34.808594 58.652344 34.910156 58.328125 35.714844 C 57.929688 36.699219 57.730469 36.800781 56.464844 36.667969 C 55.199219 36.535156 55.035156 36.398438 54.816406 35.328125 C 54.648438 34.457031 54.6875 34.507812 53.5625 33.902344 C 52.535156 33.355469 52.289062 33.332031 51.457031 33.71875 C 50.65625 34.085938 50.40625 33.996094 49.648438 33.074219 C 48.894531 32.144531 48.84375 31.839844 49.34375 31.066406 C 49.78125 30.386719 49.8125 30.144531 49.582031 29.261719 C 49.273438 28.101562 49.070312 27.828125 48.246094 27.480469 C 47.332031 27.089844 47.203125 26.839844 47.308594 25.675781 C 47.40625 24.640625 47.890625 24.050781 48.640625 24.039062 C 49.261719 24.03125 49.484375 23.847656 50.011719 22.925781 C 50.597656 21.910156 50.636719 21.597656 50.296875 20.734375 C 49.929688 19.789062 49.980469 19.640625 50.957031 18.84375 C 52.011719 17.988281 52.160156 17.996094 53.476562 18.941406 C 53.679688 19.09375 54.066406 19.03125 55.375 18.644531 C 56.003906 18.460938 56.179688 18.285156 56.5 17.527344 C 56.929688 16.511719 57.238281 16.371094 58.582031 16.558594 C 59.496094 16.683594 59.945312 17.140625 59.984375 17.988281 C 60.015625 18.554688 60.246094 18.804688 61.21875 19.328125 C 62.25 19.882812 62.414062 19.902344 63.296875 19.539062 C 64.273438 19.132812 64.511719 19.226562 65.378906 20.375 C 66.105469 21.332031 66.152344 21.601562 65.679688 22.136719 C 65.046875 22.84375 64.988281 23.160156 65.3125 24.234375 C 65.640625 25.335938 65.8125 25.515625 66.804688 25.832031 C 67.488281 26.042969 67.667969 26.539062 67.519531 27.761719 C 67.390625 28.800781 67.042969 29.148438 66.042969 29.234375 C 65.398438 29.289062 65.328125 29.351562 64.714844 30.476562 C 64.152344 31.507812 64.148438 31.699219 64.621094 32.636719 C 64.972656 33.34375 64.875 33.582031 63.882812 34.382812 C 63.113281 35.007812 63 35.070312 62.699219 35.019531 M 60.332031 28.035156 C 61.320312 25.964844 60.019531 23.640625 57.71875 23.378906 C 55.351562 23.109375 53.539062 25.386719 54.3125 27.660156 C 55.25 30.402344 59.089844 30.644531 60.332031 28.035156 "/>
<path style=" stroke:none;fill-rule:nonzero;fill:url(#linear0);fill-opacity:0.968627;" d="M 47.171875 45.152344 C 46.867188 45.035156 46.667969 44.871094 46.566406 44.660156 C 46.433594 44.394531 46.066406 44.292969 45.367188 44.332031 C 44.582031 44.382812 44.480469 44.429688 44.128906 44.914062 C 43.710938 45.507812 43.5625 45.546875 42.734375 45.253906 C 41.910156 44.964844 41.816406 44.847656 41.847656 44.09375 C 41.875 43.484375 41.890625 43.523438 41.238281 42.941406 C 40.644531 42.402344 40.484375 42.351562 39.859375 42.472656 C 39.261719 42.589844 39.109375 42.488281 38.75 41.746094 C 38.398438 41.011719 38.417969 40.796875 38.875 40.355469 C 39.28125 39.972656 39.34375 39.8125 39.332031 39.191406 C 39.3125 38.367188 39.21875 38.152344 38.722656 37.785156 C 38.171875 37.371094 38.125 37.183594 38.386719 36.421875 C 38.621094 35.746094 39.042969 35.429688 39.546875 35.542969 C 39.960938 35.640625 40.144531 35.554688 40.648438 35.019531 C 41.199219 34.429688 41.277344 34.230469 41.195312 33.597656 C 41.097656 32.902344 41.152344 32.8125 41.9375 32.4375 C 42.785156 32.039062 42.878906 32.066406 43.605469 32.910156 C 43.726562 33.042969 43.988281 33.066406 44.925781 33.015625 C 45.378906 32.992188 45.527344 32.902344 45.863281 32.449219 C 46.316406 31.84375 46.542969 31.792969 47.410156 32.140625 C 48.003906 32.371094 48.230469 32.746094 48.121094 33.320312 C 48.046875 33.699219 48.160156 33.910156 48.730469 34.414062 C 49.332031 34.957031 49.433594 34.988281 50.085938 34.886719 C 50.808594 34.773438 50.949219 34.875 51.34375 35.785156 C 51.675781 36.542969 51.660156 36.730469 51.261719 37.007812 C 50.71875 37.382812 50.632812 37.585938 50.671875 38.355469 C 50.710938 39.144531 50.796875 39.300781 51.414062 39.667969 C 51.832031 39.921875 51.875 40.28125 51.574219 41.074219 C 51.320312 41.746094 51.03125 41.921875 50.347656 41.820312 C 49.90625 41.753906 49.855469 41.78125 49.257812 42.4375 C 48.71875 43.039062 48.679688 43.160156 48.84375 43.867188 C 48.96875 44.398438 48.859375 44.542969 48.066406 44.921875 C 47.453125 45.214844 47.367188 45.238281 47.171875 45.152344 M 46.726562 40.097656 C 47.71875 38.871094 47.226562 37.109375 45.730469 36.5625 C 44.191406 36.003906 42.609375 37.234375 42.753906 38.878906 C 42.9375 40.867188 45.464844 41.644531 46.726562 40.097656 "/>
</g>
</svg>
