<svg xmlns="http://www.w3.org/2000/svg" xmlns:xlink="http://www.w3.org/1999/xlink" width="64" height="64" viewBox="0 0 64 64" version="1.1">
<defs> <linearGradient id="linear0" gradientUnits="userSpaceOnUse" x1="0" y1="0" x2="0" y2="1" gradientTransform="matrix(55.992188,0,0,56,4.003906,4)"> <stop offset="0" style="stop-color:#ff6666;stop-opacity:1;"/> <stop offset="1" style="stop-color:#d90000;stop-opacity:1;"/> </linearGradient> </defs>
<g id="surface1">
<path style=" stroke:none;fill-rule:nonzero;fill:url(#linear0);fill-opacity:1;" d="M 31.324219 6.464844 C 25.773438 6.464844 20.226562 10.144531 20.226562 15.671875 L 20.226562 23.035156 L 16.53125 23.035156 C 14.679688 23.035156 12.832031 24.878906 12.832031 26.722656 L 12.832031 50.660156 C 12.832031 52.503906 14.679688 54.34375 16.53125 54.34375 L 46.117188 54.34375 C 47.96875 54.34375 49.8125 52.503906 49.8125 50.660156 L 49.8125 26.722656 C 49.8125 24.878906 47.96875 23.035156 46.117188 23.035156 L 42.421875 23.035156 L 42.421875 15.671875 C 42.421875 10.144531 36.871094 6.464844 31.324219 6.464844 Z M 31.324219 11.066406 C 35.152344 11.066406 38.257812 13.75 38.257812 17.050781 C 38.292969 21.195312 36.464844 24.550781 31.324219 26.722656 C 32.316406 25.628906 33.027344 24.308594 33.175781 22.808594 C 32.59375 22.9375 31.949219 23.035156 31.324219 23.035156 C 27.28125 23.035156 24.421875 21.195312 24.390625 17.050781 C 24.390625 13.75 27.496094 11.066406 31.324219 11.066406 Z M 31.324219 28.558594 C 34.390625 28.558594 36.871094 30.953125 36.871094 33.902344 C 36.871094 36.070312 35.53125 37.9375 33.601562 38.773438 C 35.78125 39.636719 38.71875 41.523438 38.71875 45.136719 L 38.71875 46.980469 C 38.71875 48.105469 37.886719 48.816406 36.871094 48.816406 L 25.773438 48.816406 C 24.742188 48.816406 23.921875 48.324219 23.921875 46.980469 L 23.921875 45.136719 C 23.921875 41.523438 26.867188 39.636719 29.046875 38.773438 C 27.117188 37.9375 25.773438 36.070312 25.773438 33.902344 C 25.773438 30.953125 28.257812 28.558594 31.324219 28.558594 Z M 31.324219 28.558594 "/>
</g>
</svg>
