<svg xmlns="http://www.w3.org/2000/svg" xmlns:xlink="http://www.w3.org/1999/xlink" width="64" height="64" viewBox="0 0 64 64" version="1.1">
<defs> <linearGradient id="linear0" gradientUnits="userSpaceOnUse" x1="0" y1="0" x2="0" y2="1" gradientTransform="matrix(55.992188,0,0,56,4.003906,4)"> <stop offset="0" style="stop-color:#ff6666;stop-opacity:1;"/> <stop offset="1" style="stop-color:#d90000;stop-opacity:1;"/> </linearGradient> </defs>
<g id="surface1">
<path style=" stroke:none;fill-rule:evenodd;fill:url(#linear0);fill-opacity:1;" d="M 10.925781 10.40625 C -0.242188 10.40625 -0.292969 22.378906 -0.292969 22.378906 L -0.292969 35.992188 C -0.292969 38.550781 1.476562 41.960938 3.195312 43.671875 C 6.226562 46.683594 8.328125 46.253906 8.328125 46.253906 C 8.328125 46.253906 8.359375 47.097656 9.214844 49.652344 C 10.074219 52.214844 12.601562 53.941406 15.179688 53.941406 C 17.75 53.941406 18.660156 53.058594 18.660156 53.058594 L 18.660156 49.652344 C 18.660156 49.652344 17.777344 49.6875 16.0625 48.835938 C 14.34375 47.980469 14.347656 46.253906 14.347656 46.253906 C 14.347656 46.253906 16.910156 45.414062 19.484375 42.851562 C 22.0625 40.292969 22.082031 35.992188 22.082031 35.992188 L 22.082031 23.191406 C 22.082031 23.191406 22.089844 10.40625 10.925781 10.40625 M 27.933594 12.164062 L 25.332031 18.96875 L 23.617188 18.96875 L 23.617188 22.378906 L 25.332031 22.378906 L 25.332031 40.328125 C 25.332031 40.328125 25.34375 44.554688 29.636719 44.554688 C 33.929688 44.554688 34.78125 42.851562 34.78125 42.851562 L 34.78125 39.566406 C 34.695312 39.808594 34.355469 40.328125 33.066406 40.328125 C 31.347656 40.328125 30.527344 38.625 30.527344 38.625 L 30.527344 22.378906 L 34.78125 22.378906 L 34.78125 18.972656 L 30.527344 18.972656 L 30.527344 12.171875 L 27.933594 12.171875 M 11.457031 14.691406 C 15.75 14.691406 15.769531 18.917969 15.769531 18.917969 L 15.769531 35.992188 C 15.769531 35.992188 15.75 41.972656 11.457031 41.972656 C 7.164062 41.972656 7.148438 35.992188 7.148438 35.992188 L 7.148438 19.792969 C 7.148438 19.792969 7.164062 14.691406 11.457031 14.691406 "/>
<path style=" stroke:none;fill-rule:nonzero;fill:url(#linear0);fill-opacity:1;" d="M 56.75 14.511719 C 51.488281 33.707031 32.4375 32.851562 46.066406 49.835938 C 56.992188 45.542969 59.371094 40.164062 57.925781 27.082031 Z M 56.75 14.511719 "/>
</g>
</svg>
