<svg xmlns="http://www.w3.org/2000/svg" xmlns:xlink="http://www.w3.org/1999/xlink" width="64" height="64" viewBox="0 0 64 64" version="1.1">
<defs>
<linearGradient id="linear0" gradientUnits="userSpaceOnUse" x1="0" y1="0" x2="0" y2="1" gradientTransform="matrix(48.242188,0,0,64,7.878906,0)">
<stop offset="0" style="stop-color:#ff6666;stop-opacity:1;"/>
<stop offset="1" style="stop-color:#d90000;stop-opacity:1;"/>
</linearGradient>
</defs>
<g id="surface1">
<path style=" stroke:none;fill-rule:evenodd;fill:url(#linear0);" d="M 27.832031 0 L 29.0625 0 C 29.976562 0.273438 30.902344 0.59375 31.640625 1.214844 C 33.753906 2.929688 35.304688 5.246094 36.472656 7.679688 C 37.398438 9.808594 37.769531 12.113281 38.054688 14.398438 C 38.167969 16.160156 38.585938 17.902344 38.503906 19.679688 C 38.503906 21.023438 38.40625 22.398438 37.976562 23.679688 C 37.289062 25.617188 36.886719 27.632812 36.183594 29.566406 C 35.464844 31.742188 34.585938 33.886719 33.542969 35.9375 C 33.097656 36.910156 32.199219 37.566406 31.625 38.449219 C 31.0625 39.246094 30.503906 40.097656 29.769531 40.753906 C 29.128906 41.328125 28.503906 41.953125 27.832031 42.496094 C 26.632812 43.390625 25.480469 44.382812 24.121094 45.023438 C 23.078125 45.488281 22.023438 46.097656 20.839844 46.046875 C 20.425781 46.0625 19.992188 46.015625 19.574219 46 C 19.832031 45.296875 20.136719 44.625 20.519531 44 C 20.792969 43.519531 21.257812 43.230469 21.65625 42.910156 C 22.9375 41.9375 24.121094 40.878906 25.351562 39.871094 C 25.769531 39.519531 26.28125 39.28125 26.617188 38.847656 C 26.761719 38.496094 26.535156 37.902344 26.105469 37.96875 C 25.609375 37.953125 25.222656 38.289062 24.855469 38.574219 C 23.449219 39.726562 22.089844 40.945312 20.632812 42.03125 C 20.167969 42.398438 19.65625 42.769531 19.367188 43.3125 C 19.03125 43.953125 18.742188 44.609375 18.375 45.230469 C 17.0625 45.007812 15.6875 45.105469 14.40625 44.6875 C 13.175781 44.351562 12.054688 43.503906 11.433594 42.398438 C 10.9375 41.183594 10.808594 39.855469 10.871094 38.558594 C 11.734375 38.078125 12.679688 37.761719 13.574219 37.359375 C 16.808594 35.871094 20.246094 34.929688 23.671875 34 C 24.121094 33.9375 24.425781 33.425781 24.167969 33.023438 C 23.945312 32.65625 23.433594 32.703125 23.078125 32.785156 C 20.472656 33.488281 17.894531 34.289062 15.351562 35.167969 C 13.769531 35.808594 12.199219 36.527344 10.617188 37.183594 C 9.945312 36.414062 9.320312 35.617188 8.808594 34.734375 C 8.296875 33.921875 8.167969 32.945312 7.878906 32.046875 L 7.878906 28.414062 C 8.3125 26.910156 9.03125 25.519531 9.832031 24.175781 C 10.726562 24.207031 11.625 24.398438 12.519531 24.511719 C 14.742188 24.769531 16.96875 24.960938 19.191406 25.214844 C 20.921875 25.441406 22.648438 25.710938 24.375 25.9375 C 24.742188 26.03125 25.238281 25.824219 25.257812 25.40625 C 25.367188 24.863281 24.742188 24.640625 24.328125 24.59375 C 22.425781 24.382812 20.550781 24.078125 18.648438 23.824219 C 15.769531 23.566406 12.886719 23.265625 10.023438 22.800781 C 9.6875 21.742188 9.609375 20.625 9.574219 19.519531 C 9.511719 16.878906 10.488281 14.289062 12.121094 12.238281 C 12.808594 11.265625 13.769531 10.542969 14.726562 9.839844 C 15.832031 10.863281 16.921875 11.886719 18.023438 12.894531 C 19.097656 13.921875 20.328125 14.753906 21.480469 15.679688 C 22.488281 16.511719 23.703125 16.992188 24.839844 17.617188 C 25.527344 17.953125 26.183594 18.398438 26.9375 18.59375 C 27.527344 18.71875 27.863281 17.808594 27.335938 17.503906 C 25.960938 16.574219 24.375 16.015625 22.984375 15.136719 C 22.089844 14.496094 21.238281 13.792969 20.359375 13.136719 C 19.191406 12.273438 18.199219 11.230469 17.128906 10.273438 C 16.632812 9.808594 16.105469 9.40625 15.65625 8.894531 C 15.671875 8.59375 15.785156 8.304688 15.878906 8.015625 C 16.359375 6.769531 16.617188 5.390625 17.480469 4.320312 C 18.089844 3.34375 19.046875 2.6875 19.960938 2 C 21.304688 1.152344 22.953125 1.328125 24.472656 1.34375 C 25.257812 3.503906 25.800781 5.761719 26.503906 7.9375 C 26.695312 8.464844 27.03125 8.894531 27.335938 9.34375 C 28.550781 11.121094 29.769531 12.894531 30.953125 14.6875 C 31.558594 15.617188 32.519531 16.222656 33.382812 16.894531 C 33.703125 17.183594 34.136719 17.070312 34.519531 17.023438 C 34.503906 16.703125 34.664062 16.304688 34.390625 16.046875 C 33.671875 15.3125 32.679688 14.894531 32.105469 14.015625 C 30.984375 12.367188 29.863281 10.703125 28.726562 9.054688 C 28.296875 8.414062 27.785156 7.808594 27.574219 7.039062 C 27.097656 5.28125 26.550781 3.535156 26.054688 1.792969 C 26.007812 1.566406 25.878906 1.296875 26.105469 1.105469 C 26.601562 0.640625 27.304688 0.433594 27.832031 0 Z M 39.703125 21.921875 C 41.449219 23.710938 43.414062 25.28125 45.625 26.433594 C 46.246094 26.785156 46.953125 27.105469 47.382812 27.679688 C 47.863281 28.351562 48.472656 29.039062 48.390625 29.921875 C 48.441406 30.929688 47.542969 31.519531 46.855469 32.097656 C 46.390625 32.175781 45.910156 32.238281 45.449219 32.382812 C 44.023438 32.496094 42.566406 32.273438 41.144531 32.558594 C 39.511719 32.574219 37.929688 33.023438 36.3125 33.152344 C 36.726562 31.902344 37.238281 30.6875 37.640625 29.425781 C 38.28125 27.648438 38.550781 25.777344 39.273438 24.03125 C 39.542969 23.359375 39.574219 22.625 39.703125 21.921875 Z M 49.511719 28.527344 C 50.457031 28.71875 51.433594 29.199219 51.769531 30.160156 C 51.910156 30.910156 51.816406 31.695312 51.753906 32.464844 C 51.734375 32.863281 52.136719 33.039062 52.441406 33.199219 C 52.457031 33.566406 52.441406 33.953125 52.441406 34.320312 C 51.6875 34.734375 51.671875 35.679688 51.625 36.449219 C 51.320312 37.441406 50.921875 38.496094 51.160156 39.535156 C 51.289062 40.574219 50.824219 41.617188 51.191406 42.625 C 51.367188 42.976562 51.59375 43.3125 51.734375 43.679688 C 51.238281 43.328125 50.808594 42.847656 50.265625 42.574219 C 49.59375 42.222656 48.886719 41.921875 48.328125 41.425781 C 48.246094 40.816406 48.726562 40.351562 49.046875 39.902344 C 49.335938 38.832031 48.632812 37.871094 48.585938 36.816406 C 48.488281 36.113281 48.617188 35.40625 48.601562 34.71875 C 48.648438 34.289062 48.089844 34.238281 47.945312 33.902344 C 47.753906 33.566406 47.785156 33.089844 48.070312 32.816406 C 48.585938 32.273438 49.320312 31.839844 49.511719 31.070312 C 49.832031 30.257812 49.671875 29.375 49.511719 28.527344 Z M 41.015625 43.839844 C 41.273438 43.839844 41.527344 43.839844 41.785156 43.855469 C 41.753906 43.953125 41.703125 44.128906 41.671875 44.207031 C 41.464844 44.222656 41.257812 44.238281 41.0625 44.273438 C 41.046875 44.175781 41.015625 43.953125 41.015625 43.839844 Z M 28.054688 45.742188 C 28.839844 45.265625 29.625 44.816406 30.457031 44.433594 C 31.03125 45.28125 31.703125 46.175781 32.726562 46.511719 C 34.136719 47.265625 35.6875 47.601562 37.191406 48.113281 C 38.214844 48.398438 39.304688 48.351562 40.359375 48.511719 C 41.640625 48.703125 42.921875 48.734375 44.199219 48.847656 C 46.199219 48.703125 48.265625 48.703125 50.121094 47.839844 C 50.777344 47.40625 51.527344 47.023438 51.992188 46.382812 C 52.3125 45.761719 52.359375 45.054688 52.472656 44.382812 C 53.113281 44.480469 53.6875 44.753906 54.328125 44.863281 C 54.550781 44.929688 54.839844 44.894531 54.984375 45.105469 C 52.136719 47.246094 49.222656 49.328125 46.359375 51.441406 C 46.121094 51.617188 45.894531 51.792969 45.640625 51.921875 C 45.078125 51.902344 44.550781 51.664062 44.023438 51.519531 C 39.414062 50.144531 34.824219 48.753906 30.199219 47.40625 C 29.113281 47.023438 27.992188 46.71875 26.886719 46.382812 C 27.191406 46.046875 27.6875 45.984375 28.054688 45.742188 Z M 53.769531 47.648438 C 53.992188 47.488281 54.214844 47.34375 54.441406 47.199219 C 54.472656 48.304688 54.632812 49.457031 54.230469 50.511719 C 53.992188 50.976562 54.390625 51.519531 54.121094 51.96875 C 53.847656 52.351562 53.449219 52.609375 53.113281 52.910156 C 51 54.734375 48.871094 56.558594 46.742188 58.382812 C 46.214844 58.832031 45.71875 59.34375 45.144531 59.726562 C 44.726562 59.792969 44.34375 59.550781 43.945312 59.457031 C 38.199219 57.617188 32.488281 55.710938 26.726562 53.9375 C 26.710938 53.519531 26.632812 53.089844 26.792969 52.6875 C 27.015625 52.03125 26.632812 51.375 26.648438 50.71875 C 26.617188 50.0625 27.046875 49.472656 27.03125 48.816406 C 27.078125 48.398438 26.808594 48.046875 26.648438 47.679688 C 32.710938 49.535156 38.777344 51.328125 44.824219 53.152344 C 45.144531 53.230469 45.464844 53.359375 45.800781 53.328125 C 46.183594 53.199219 46.503906 52.960938 46.839844 52.71875 C 49.144531 51.023438 51.464844 49.34375 53.769531 47.648438 Z M 39.769531 42.398438 C 38.886719 42.464844 37.960938 42.574219 37.257812 43.136719 C 36.839844 43.566406 37.0625 44.289062 37.527344 44.59375 C 38.390625 45.230469 39.496094 45.230469 40.488281 45.488281 C 41.175781 45.664062 41.894531 45.695312 42.601562 45.648438 C 43.449219 45.550781 44.34375 45.519531 45.0625 45.023438 C 45.511719 44.785156 45.769531 44.128906 45.449219 43.695312 C 44.984375 42.945312 44.007812 42.785156 43.207031 42.59375 C 42.070312 42.433594 40.921875 42.207031 39.769531 42.398438 Z M 37.734375 40.304688 C 40.070312 40.078125 42.441406 40.289062 44.761719 40.609375 C 45.351562 40.703125 45.910156 40.894531 46.488281 41.039062 C 47.65625 41.34375 48.601562 42.160156 49.671875 42.671875 C 50.566406 43.089844 51.351562 43.761719 51.960938 44.558594 C 52.121094 45.390625 51.800781 46.382812 51.015625 46.816406 C 49.816406 47.761719 48.296875 48.160156 46.808594 48.289062 C 43.960938 48.703125 41.097656 48.238281 38.28125 47.96875 C 37.335938 47.886719 36.472656 47.457031 35.574219 47.214844 C 34.40625 46.929688 33.304688 46.433594 32.246094 45.871094 C 31.382812 45.265625 30.566406 44.304688 30.726562 43.183594 C 30.921875 42.640625 31.382812 42.257812 31.832031 41.886719 C 33.59375 40.800781 35.703125 40.496094 37.734375 40.304688 Z M 45.878906 60.863281 C 48.9375 58.273438 51.945312 55.601562 55.015625 53.039062 C 55.414062 53.457031 55.910156 53.839844 56.121094 54.414062 C 56.121094 54.800781 55.945312 55.183594 55.640625 55.457031 C 54.390625 56.640625 53.222656 57.9375 51.863281 59.039062 C 50.390625 60.496094 48.886719 61.9375 47.335938 63.3125 C 47.03125 63.632812 46.632812 63.855469 46.199219 64 L 44.152344 64 C 42.855469 63.503906 41.542969 63.054688 40.214844 62.6875 C 36.152344 61.167969 32.054688 59.742188 27.976562 58.289062 C 26.886719 57.96875 25.816406 57.550781 24.839844 56.960938 C 23.960938 56.304688 24.855469 54.65625 25.878906 54.992188 C 32.039062 56.992188 38.199219 58.992188 44.359375 60.976562 C 44.855469 61.152344 45.449219 61.296875 45.878906 60.863281 Z M 45.878906 60.863281 "/>
</g>
</svg>
