<svg xmlns="http://www.w3.org/2000/svg" xmlns:xlink="http://www.w3.org/1999/xlink" width="64" height="64" viewBox="0 0 64 64" version="1.1">
<defs> <linearGradient id="linear0" gradientUnits="userSpaceOnUse" x1="0" y1="0" x2="0" y2="1" gradientTransform="matrix(55.992188,0,0,56,4.003906,4)"> <stop offset="0" style="stop-color:#ff6666;stop-opacity:1;"/> <stop offset="1" style="stop-color:#d90000;stop-opacity:1;"/> </linearGradient> </defs>
<g id="surface1">
<path style=" stroke:none;fill-rule:nonzero;fill:url(#linear0);fill-opacity:0.913725;" d="M 52.625 12.804688 L 14.546875 51.542969 L 23.496094 51.542969 L 57.34375 17.503906 L 52.625 12.804688 M 14.121094 18.367188 C 10.054688 18.367188 6.765625 21.648438 6.765625 25.699219 C 6.765625 29.746094 10.054688 33.023438 14.121094 33.023438 C 14.292969 33.023438 14.445312 32.964844 14.609375 32.960938 L 14.546875 33.023438 C 14.769531 33.09375 15.167969 33 15.582031 32.898438 C 16.410156 32.695312 17.394531 32.421875 17.894531 32.960938 L 22.996094 37.738281 L 26.644531 34.109375 L 21.601562 29.386719 C 21.078125 28.914062 21.21875 28.066406 21.355469 27.144531 C 21.425781 26.691406 21.476562 26.210938 21.480469 25.753906 L 21.480469 25.691406 C 21.480469 21.644531 18.195312 18.367188 14.128906 18.367188 L 14.121094 18.367188 M 14.246094 22.847656 C 15.859375 22.847656 17.164062 24.152344 17.164062 25.753906 C 17.164062 27.359375 15.859375 28.660156 14.246094 28.660156 C 12.632812 28.660156 11.328125 27.359375 11.328125 25.753906 C 11.328125 24.152344 12.640625 22.847656 14.246094 22.847656 M 50.746094 28.300781 L 28.164062 51.542969 L 36.753906 51.542969 L 55.398438 33.308594 L 50.746094 28.300781 M 52.4375 41.1875 L 41.785156 51.546875 L 50.898438 51.546875 L 56.582031 45.742188 L 52.4375 41.1875 "/>
</g>
</svg>
