<svg xmlns="http://www.w3.org/2000/svg" xmlns:xlink="http://www.w3.org/1999/xlink" width="64px" height="64px" viewBox="0 0 64 64" version="1.1">
<defs>
<linearGradient id="linear0" gradientUnits="userSpaceOnUse" x1="0" y1="128" x2="128" y2="0" gradientTransform="matrix(0.432432,0,0,0.432432,4.324324,4.324324)">
<stop offset="0" style="stop-color:#ff6666;stop-opacity:1;"/>
<stop offset="1" style="stop-color:#d90000;stop-opacity:1;"/>
</linearGradient>
</defs>
<g id="surface1">
<path style=" stroke:none;fill-rule:nonzero;fill:url(#linear0);" d="M 31.988281 8.164062 C 18.953125 8.164062 8.390625 18.847656 8.390625 32.011719 C 8.390625 45.179688 18.953125 55.835938 31.988281 55.835938 C 45.019531 55.835938 55.609375 45.179688 55.609375 32.011719 C 55.609375 18.847656 45.019531 8.164062 31.988281 8.164062 Z M 32.863281 14.242188 C 35.234375 14.242188 37.253906 14.863281 38.945312 16.121094 C 40.832031 17.507812 41.785156 19.359375 41.785156 21.664062 C 41.785156 23.757812 41.027344 25.566406 39.511719 27.082031 C 38.09375 28.175781 36.675781 29.269531 35.257812 30.363281 C 33.726562 31.574219 32.960938 32.863281 32.960938 34.214844 C 32.960938 34.605469 33.039062 35.164062 33.214844 35.90625 C 33.390625 36.644531 33.488281 37.210938 33.488281 37.59375 C 33.488281 39.511719 32.566406 40.472656 30.730469 40.472656 C 29.84375 40.472656 29.066406 40.09375 28.40625 39.335938 C 27.742188 38.582031 27.417969 37.753906 27.417969 36.851562 C 27.417969 35.433594 28.15625 33.835938 29.621094 32.082031 C 30.976562 30.550781 32.320312 29.019531 33.675781 27.472656 C 35.140625 25.539062 35.878906 23.628906 35.878906 21.742188 C 35.878906 20.503906 35.488281 19.429688 34.714844 18.527344 C 33.894531 17.578125 32.875 17.09375 31.648438 17.09375 C 29.78125 17.09375 28.382812 17.878906 27.445312 19.460938 C 28.6875 20.621094 29.3125 21.652344 29.3125 22.554688 C 29.3125 23.539062 28.960938 24.335938 28.269531 24.933594 C 27.59375 25.53125 26.757812 25.824219 25.757812 25.824219 C 24.808594 25.824219 23.957031 25.375 23.230469 24.472656 C 22.554688 23.617188 22.214844 22.710938 22.214844 21.742188 C 22.214844 19.324219 23.441406 17.414062 25.890625 16.011719 C 27.921875 14.835938 30.253906 14.242188 32.863281 14.242188 Z M 30.675781 42.714844 C 31.691406 42.714844 32.5625 43.023438 33.269531 43.621094 C 34.042969 44.25 34.433594 45.054688 34.433594 46.054688 C 34.433594 47.136719 34.085938 48.023438 33.390625 48.714844 C 32.714844 49.410156 31.847656 49.757812 30.785156 49.757812 C 29.882812 49.757812 29.085938 49.417969 28.390625 48.742188 C 27.699219 48.066406 27.351562 47.28125 27.351562 46.378906 C 27.351562 45.414062 27.65625 44.5625 28.285156 43.835938 C 28.929688 43.097656 29.726562 42.714844 30.675781 42.714844 Z M 30.675781 42.714844 "/>
</g>
</svg>
