<svg xmlns="http://www.w3.org/2000/svg" xmlns:xlink="http://www.w3.org/1999/xlink" width="64" height="64" viewBox="0 0 64 64" version="1.1">
<defs>
<linearGradient id="linear0" gradientUnits="userSpaceOnUse" x1="0" y1="0" x2="0" y2="1" gradientTransform="matrix(36.09375,0,0,63.996094,13.953125,0)">
<stop offset="0" style="stop-color:#ff6666;stop-opacity:1;"/>
<stop offset="1" style="stop-color:#d90000;stop-opacity:1;"/>
</linearGradient>
</defs>
<g id="surface1">
<path style=" stroke:none;fill-rule:nonzero;fill:url(#linear0);" d="M 20.367188 0.0078125 C 15.257812 -0.242188 12.015625 5.589844 15.246094 9.390625 C 18.453125 14.152344 26.125 17.066406 31.320312 13.503906 C 31.320312 29.636719 31.390625 47.785156 31.390625 63.914062 C 34.488281 64.71875 33.058594 59.429688 33.789062 57.574219 C 35.234375 50.570312 42.335938 46.929688 46.90625 41.921875 C 50.648438 37.832031 51.144531 31.585938 47.863281 27.058594 C 46.9375 25.777344 43.933594 20.515625 44.382812 21.511719 C 46.40625 25.617188 49.003906 30.222656 47.78125 34.875 C 46.222656 40.457031 40.570312 44.019531 34.773438 44.882812 C 33.292969 45.097656 33.386719 44.671875 33.238281 42.347656 C 33.238281 30.816406 33.238281 19.285156 33.238281 7.753906 C 31.300781 3.042969 25.644531 -0.144531 20.367188 0.0078125 Z M 20.980469 1.5 C 25.886719 1.277344 31.808594 5.011719 31.1875 10.074219 C 29.914062 14.558594 23.433594 14.222656 20.136719 12.027344 C 16.476562 10.351562 13.773438 4.546875 18.203125 2.21875 C 19.050781 1.777344 20.015625 1.554688 20.980469 1.5 Z M 20.980469 1.5 "/>
</g>
</svg>
