<svg xmlns="http://www.w3.org/2000/svg" xmlns:xlink="http://www.w3.org/1999/xlink" width="64" height="64" viewBox="0 0 64 64" version="1.1">
<defs>
<linearGradient id="linear0" gradientUnits="userSpaceOnUse" x1="0" y1="0" x2="0" y2="1" gradientTransform="matrix(64,0,0,33.78125,0,15.109375)">
<stop offset="0" style="stop-color:#ff6666;stop-opacity:1;"/>
<stop offset="1" style="stop-color:#d90000;stop-opacity:1;"/>
</linearGradient>
</defs>
<g id="surface1">
<path style=" stroke:none;fill-rule:evenodd;fill:url(#linear0);" d="M 12.292969 26 C 10.964844 26 9.996094 25.546875 9.382812 24.640625 C 9.113281 24.273438 8.894531 23.78125 8.722656 23.167969 C 8.550781 22.554688 8.464844 21.878906 8.464844 21.144531 C 8.464844 19.867188 8.796875 18.6875 9.460938 17.609375 C 10.121094 16.53125 11.089844 15.699219 12.363281 15.109375 L 12.695312 15.769531 C 12.058594 16.0625 11.488281 16.488281 10.984375 17.039062 C 10.484375 17.59375 10.132812 18.175781 9.9375 18.789062 C 9.8125 19.132812 9.753906 19.539062 9.753906 20.003906 C 9.753906 20.371094 9.777344 20.640625 9.828125 20.8125 C 10.464844 20.050781 11.359375 19.671875 12.511719 19.671875 C 13.492188 19.671875 14.277344 19.949219 14.867188 20.5 C 15.457031 21.050781 15.753906 21.832031 15.753906 22.835938 C 15.753906 23.792969 15.433594 24.558594 14.796875 25.136719 C 14.15625 25.710938 13.320312 26 12.292969 26 Z M 3.828125 26 C 2.503906 26 1.535156 25.546875 0.921875 24.640625 C 0.652344 24.273438 0.429688 23.78125 0.257812 23.167969 C 0.0859375 22.554688 0 21.878906 0 21.144531 C 0 19.867188 0.332031 18.6875 0.992188 17.609375 C 1.65625 16.53125 2.625 15.699219 3.898438 15.109375 L 4.230469 15.769531 C 3.59375 16.0625 3.023438 16.488281 2.519531 17.039062 C 2.019531 17.59375 1.667969 18.175781 1.472656 18.789062 C 1.347656 19.132812 1.289062 19.539062 1.289062 20.003906 C 1.289062 20.371094 1.3125 20.640625 1.359375 20.8125 C 2 20.050781 2.894531 19.671875 4.046875 19.671875 C 5.03125 19.671875 5.816406 19.949219 6.402344 20.5 C 6.992188 21.050781 7.289062 21.832031 7.289062 22.835938 C 7.289062 23.792969 6.96875 24.558594 6.332031 25.136719 C 5.691406 25.710938 4.855469 26 3.828125 26 Z M 45.375 40.648438 L 46.074219 40.832031 C 45.953125 42.449219 45.664062 43.835938 45.210938 44.992188 C 44.757812 46.144531 44.152344 47.015625 43.390625 47.605469 C 42.851562 48.019531 42.167969 48.339844 41.347656 48.558594 C 40.527344 48.78125 39.675781 48.890625 38.792969 48.890625 C 37.292969 48.890625 35.832031 48.660156 34.410156 48.191406 C 32.988281 47.726562 31.183594 47 29 46.019531 L 26.570312 44.992188 C 26.105469 44.820312 25.8125 44.730469 25.6875 44.730469 C 25.199219 45.003906 24.675781 45.226562 24.125 45.394531 C 23.570312 45.566406 23.0625 45.652344 22.597656 45.652344 C 22.082031 45.652344 21.664062 45.558594 21.34375 45.375 C 21.027344 45.191406 20.867188 44.914062 20.867188 44.546875 C 20.867188 44.179688 21.039062 43.898438 21.382812 43.703125 C 21.726562 43.507812 22.226562 43.40625 22.890625 43.40625 C 23.75 43.40625 24.683594 43.628906 25.6875 44.070312 C 26.621094 43.828125 27.542969 43.496094 28.449219 43.074219 C 28.667969 43.003906 28.921875 42.90625 29.203125 42.785156 C 29.488281 42.660156 29.8125 42.539062 30.179688 42.414062 C 27.75 42.171875 25.632812 41.496094 23.832031 40.390625 C 22.027344 39.289062 20.632812 37.777344 19.652344 35.863281 C 18.671875 33.949219 18.179688 31.714844 18.179688 29.164062 C 18.179688 26.464844 18.769531 24.074219 19.949219 21.988281 C 21.125 19.902344 22.769531 18.285156 24.878906 17.132812 C 26.988281 15.976562 29.394531 15.398438 32.09375 15.398438 C 34.867188 15.398438 37.292969 15.929688 39.378906 16.984375 C 41.464844 18.039062 43.085938 19.566406 44.234375 21.566406 C 45.390625 23.566406 45.96875 25.949219 45.96875 28.722656 C 45.96875 31.375 45.402344 33.730469 44.273438 35.792969 C 43.144531 37.851562 41.5625 39.464844 39.527344 40.632812 C 37.492188 41.796875 35.160156 42.414062 32.53125 42.488281 C 31.96875 42.5625 31.425781 42.683594 30.894531 42.855469 C 30.367188 43.03125 29.871094 43.214844 29.402344 43.40625 C 28.421875 43.800781 27.613281 44.082031 26.976562 44.257812 L 28.410156 44.292969 C 30.519531 44.367188 32.3125 44.402344 33.785156 44.402344 C 36.335938 44.402344 38.421875 44.230469 40.039062 43.886719 C 41.414062 43.59375 42.496094 43.210938 43.28125 42.746094 C 44.0625 42.28125 44.761719 41.582031 45.375 40.648438 Z M 25.90625 29.019531 C 25.90625 31.570312 26.191406 33.816406 26.757812 35.753906 C 27.320312 37.691406 28.082031 39.1875 29.035156 40.242188 C 29.992188 41.300781 31.050781 41.828125 32.203125 41.828125 C 33.402344 41.828125 34.464844 41.28125 35.386719 40.1875 C 36.304688 39.097656 37.011719 37.570312 37.503906 35.609375 C 37.996094 33.644531 38.238281 31.398438 38.238281 28.871094 C 38.238281 26.320312 37.957031 24.074219 37.390625 22.136719 C 36.828125 20.199219 36.066406 18.703125 35.109375 17.648438 C 34.152344 16.59375 33.097656 16.0625 31.945312 16.0625 C 30.742188 16.0625 29.679688 16.609375 28.761719 17.703125 C 27.839844 18.792969 27.132812 20.320312 26.644531 22.285156 C 26.152344 24.246094 25.90625 26.492188 25.90625 29.019531 Z M 51.707031 15.398438 C 53.035156 15.398438 54.003906 15.855469 54.617188 16.765625 C 54.886719 17.132812 55.105469 17.621094 55.277344 18.234375 C 55.449219 18.847656 55.535156 19.523438 55.535156 20.261719 C 55.535156 21.535156 55.203125 22.710938 54.539062 23.792969 C 53.878906 24.871094 52.910156 25.707031 51.636719 26.296875 L 51.304688 25.632812 C 51.941406 25.339844 52.511719 24.914062 53.015625 24.363281 C 53.515625 23.8125 53.867188 23.230469 54.0625 22.617188 C 54.1875 22.273438 54.246094 21.867188 54.246094 21.398438 C 54.246094 21.03125 54.222656 20.761719 54.171875 20.59375 C 53.535156 21.351562 52.640625 21.730469 51.488281 21.730469 C 50.507812 21.730469 49.722656 21.457031 49.132812 20.902344 C 48.542969 20.351562 48.246094 19.574219 48.246094 18.566406 C 48.246094 17.609375 48.566406 16.84375 49.203125 16.269531 C 49.84375 15.6875 50.679688 15.398438 51.707031 15.398438 Z M 60.171875 15.398438 C 61.496094 15.398438 62.464844 15.855469 63.078125 16.765625 C 63.347656 17.132812 63.570312 17.621094 63.742188 18.234375 C 63.914062 18.847656 64 19.523438 64 20.261719 C 64 21.535156 63.667969 22.710938 63.007812 23.792969 C 62.34375 24.871094 61.375 25.707031 60.101562 26.296875 L 59.769531 25.632812 C 60.40625 25.339844 60.976562 24.914062 61.480469 24.363281 C 61.980469 23.8125 62.332031 23.230469 62.527344 22.617188 C 62.652344 22.273438 62.710938 21.867188 62.710938 21.398438 C 62.710938 21.03125 62.6875 20.761719 62.640625 20.59375 C 62 21.351562 61.105469 21.730469 59.953125 21.730469 C 58.96875 21.730469 58.183594 21.457031 57.597656 20.902344 C 57.007812 20.351562 56.710938 19.574219 56.710938 18.566406 C 56.710938 17.609375 57.03125 16.84375 57.667969 16.269531 C 58.308594 15.6875 59.144531 15.398438 60.171875 15.398438 Z M 60.171875 15.398438 "/>
</g>
</svg>
