<svg xmlns="http://www.w3.org/2000/svg" xmlns:xlink="http://www.w3.org/1999/xlink" width="64" height="64" viewBox="0 0 64 64" version="1.1">
<defs> <linearGradient id="linear0" gradientUnits="userSpaceOnUse" x1="0" y1="0" x2="0" y2="1" gradientTransform="matrix(55.992188,0,0,56,4.003906,4)"> <stop offset="0" style="stop-color:#ff6666;stop-opacity:1;"/> <stop offset="1" style="stop-color:#d90000;stop-opacity:1;"/> </linearGradient> </defs>
<g id="surface1">
<path style=" stroke:none;fill-rule:nonzero;fill:url(#linear0);fill-opacity:1;" d="M 17.449219 44.378906 L 25.355469 44.378906 L 25.355469 55.246094 L 17.449219 55.246094 M 17.449219 44.378906 "/>
<path style=" stroke:none;fill-rule:nonzero;fill:url(#linear0);fill-opacity:1;" d="M 39.011719 43.425781 L 46.917969 43.425781 L 46.917969 55.203125 L 39.011719 55.203125 M 39.011719 43.425781 "/>
<path style=" stroke:none;fill-rule:nonzero;fill:url(#linear0);fill-opacity:1;" d="M 13.390625 10.734375 C 11.605469 10.734375 10.15625 12.160156 10.15625 13.902344 L 10.15625 43.3125 C 10.15625 45.066406 11.605469 46.480469 13.390625 46.480469 L 50.722656 46.480469 C 52.507812 46.480469 53.953125 45.066406 53.953125 43.3125 L 53.953125 13.902344 C 53.953125 12.160156 52.507812 10.734375 50.722656 10.734375 Z M 17.222656 14.410156 L 46.890625 14.410156 C 48.304688 14.410156 49.457031 15.535156 49.457031 16.921875 L 49.457031 40.292969 C 49.457031 41.6875 48.304688 42.8125 46.890625 42.8125 L 17.222656 42.8125 C 15.808594 42.8125 14.65625 41.6875 14.65625 40.292969 L 14.65625 16.921875 C 14.65625 15.535156 15.808594 14.410156 17.222656 14.410156 Z M 17.222656 14.410156 "/>
</g>
</svg>
