<svg xmlns="http://www.w3.org/2000/svg" xmlns:xlink="http://www.w3.org/1999/xlink" width="64px" height="64px" viewBox="0 0 64 64" version="1.1">
<defs>
<linearGradient id="linear0" gradientUnits="userSpaceOnUse" x1="0" y1="0" x2="0" y2="1" gradientTransform="matrix(56,0,0,56,4.125,4)">
<stop offset="0" style="stop-color:#ff6666;stop-opacity:1;"/>
<stop offset="1" style="stop-color:#d90000;stop-opacity:1;"/>
</linearGradient>
<linearGradient id="linear1" gradientUnits="userSpaceOnUse" x1="0" y1="0" x2="0" y2="1" gradientTransform="matrix(46.5,0,0,46.5,8.625,8.753906)">
<stop offset="0" style="stop-color:#ff6666;stop-opacity:1;"/>
<stop offset="1" style="stop-color:#d90000;stop-opacity:1;"/>
</linearGradient>
</defs>
<g id="surface1">
<path style=" stroke:none;fill-rule:evenodd;fill:url(#linear0);fill-opacity:1;" d="M 37.835938 12.1875 C 24.855469 8.132812 11.71875 13.210938 8.496094 23.527344 C 5.277344 33.84375 13.1875 45.496094 26.164062 49.550781 C 39.148438 53.605469 52.28125 48.527344 55.503906 38.210938 C 58.726562 27.886719 50.8125 16.238281 37.835938 12.1875 M 39.015625 19.761719 C 48.699219 22.785156 54.597656 31.46875 52.195312 39.164062 C 49.792969 46.855469 39.996094 50.636719 30.3125 47.613281 C 20.636719 44.589844 14.738281 35.90625 17.136719 28.210938 C 19.539062 20.519531 29.332031 16.738281 39.011719 19.761719 "/>
<path style=" stroke:none;fill-rule:evenodd;fill:url(#linear1);fill-opacity:1;" d="M 52.398438 53.199219 L 44.503906 53.207031 L 39.121094 45.25 C 39.121094 45.25 38.253906 43.761719 37.71875 43.328125 C 37.277344 42.964844 37.085938 42.835938 36.648438 42.835938 L 35.648438 42.835938 L 35.652344 53.195312 L 28.796875 53.199219 L 28.796875 26.734375 L 43.722656 26.734375 C 43.722656 26.734375 49.769531 27.851562 49.890625 33.839844 C 50.03125 40.519531 44.046875 42.488281 44.046875 42.488281 C 44.867188 42.820312 51.464844 51.652344 52.398438 53.195312 M 40.5625 32.472656 L 35.71875 32.46875 L 35.714844 36.96875 L 40.5625 36.96875 C 40.5625 36.96875 42.8125 36.960938 42.8125 34.679688 C 42.8125 32.351562 40.5625 32.472656 40.5625 32.472656 "/>
</g>
</svg>
