<svg xmlns="http://www.w3.org/2000/svg" xmlns:xlink="http://www.w3.org/1999/xlink" width="64" height="64" viewBox="0 0 64 64" version="1.1">
<defs>
<linearGradient id="linear0" gradientUnits="userSpaceOnUse" x1="0" y1="0" x2="0" y2="1" gradientTransform="matrix(59.226563,0,0,64,2.386719,0)">
<stop offset="0" style="stop-color:#ff6666;stop-opacity:1;"/>
<stop offset="1" style="stop-color:#d90000;stop-opacity:1;"/>
</linearGradient>
</defs>
<g id="surface1">
<path style=" stroke:none;fill-rule:nonzero;fill:url(#linear0);" d="M 19.394531 0 C 6.007812 0 5.253906 0.0625 3.851562 1.335938 C 1.074219 3.855469 2.617188 9.011719 6.152344 9.03125 C 6.996094 9.035156 8.257812 9.214844 8.945312 9.429688 L 10.203125 9.816406 L 10.203125 54.140625 L 8.609375 54.140625 C 6.285156 54.140625 3.554688 55.386719 2.929688 56.742188 C 1.683594 59.425781 2.652344 62.28125 5.171875 63.347656 C 5.636719 63.542969 10.484375 63.726562 15.949219 63.757812 C 23.394531 63.792969 26.363281 63.574219 27.804688 62.878906 L 27.804688 62.882812 C 29.984375 61.832031 30.820312 59.457031 29.859375 57.03125 C 29.125 55.171875 26.265625 54.148438 21.800781 54.144531 L 18.585938 54.140625 L 18.585938 36.734375 L 30.761719 36.734375 L 33.753906 40.472656 C 37.011719 44.535156 41.910156 52.734375 45.179688 59.597656 L 47.253906 63.945312 C 47.253906 63.945312 49.730469 63.988281 54.449219 64 C 59.164062 64.011719 61.613281 62.605469 61.613281 58.886719 C 61.613281 56.066406 59.878906 54.773438 55.511719 54.316406 L 52.164062 53.964844 L 49.050781 48.304688 C 47.339844 45.191406 44.785156 41.15625 43.367188 39.34375 C 41.953125 37.527344 40.886719 35.96875 41.003906 35.878906 C 43.683594 33.816406 46.671875 30.820312 47.601562 29.261719 C 52.214844 21.515625 49.613281 9.421875 42.152344 3.960938 C 37.3125 0.414062 34.921875 0 19.394531 0 Z M 18.585938 9.667969 L 26.546875 9.679688 C 29.867188 9.6875 31.957031 9.742188 33.464844 9.925781 C 34.214844 10.015625 34.820312 10.140625 35.363281 10.304688 C 35.902344 10.46875 36.378906 10.675781 36.875 10.933594 C 37.636719 11.332031 38.304688 11.8125 38.875 12.375 C 39.453125 12.9375 39.9375 13.578125 40.324219 14.300781 C 40.710938 15.019531 41.003906 15.820312 41.199219 16.691406 C 41.394531 17.5625 41.492188 18.507812 41.496094 19.523438 C 41.496094 20.28125 41.449219 20.96875 41.34375 21.589844 C 41.242188 22.203125 41.078125 22.761719 40.847656 23.257812 C 40.617188 23.746094 40.316406 24.183594 39.933594 24.566406 C 39.546875 24.949219 39.085938 25.28125 38.523438 25.558594 C 37.964844 25.84375 37.3125 26.078125 36.550781 26.273438 C 35.792969 26.46875 34.929688 26.621094 33.949219 26.734375 C 31.984375 26.972656 29.546875 27.0625 26.546875 27.0625 L 18.585938 27.066406 Z M 18.585938 9.667969 "/>
</g>
</svg>
