<svg xmlns="http://www.w3.org/2000/svg" xmlns:xlink="http://www.w3.org/1999/xlink" width="64" height="64" viewBox="0 0 64 64" version="1.1">
<defs>
<linearGradient id="linear0" gradientUnits="userSpaceOnUse" x1="0" y1="0" x2="0" y2="1" gradientTransform="matrix(54.855469,0,0,64,4.574219,0)">
<stop offset="0" style="stop-color:#ff6666;stop-opacity:1;"/>
<stop offset="1" style="stop-color:#d90000;stop-opacity:1;"/>
</linearGradient>
</defs>
<g id="surface1">
<path style=" stroke:none;fill-rule:nonzero;fill:url(#linear0);" d="M 47.683594 0 C 40.699219 -0.0078125 26.441406 2.921875 24.914062 4.789062 C 24.460938 5.351562 24.445312 5.925781 24.855469 7.136719 C 25.789062 9.855469 26.382812 14.410156 24.34375 27.691406 C 21.980469 43.089844 20.984375 48.421875 20.449219 48.964844 C 20.226562 49.1875 19.0625 48.914062 17.859375 48.359375 C 14.890625 46.988281 10.296875 46.976562 8.113281 48.332031 C 1.605469 52.375 4.472656 60.714844 13.441406 63.695312 L 13.441406 63.699219 C 14.125 63.929688 16.046875 64.050781 17.71875 63.980469 C 20.074219 63.878906 21.308594 63.515625 23.167969 62.355469 C 26.714844 60.15625 28.398438 56.40625 30.3125 46.484375 C 31.140625 42.183594 31.859375 38.238281 32 38.097656 C 32.140625 37.953125 33.144531 39.167969 34.144531 40.410156 C 40.628906 48.511719 44.777344 51.808594 49.472656 51.808594 C 50.933594 51.808594 51.867188 51.648438 51.867188 51.296875 C 51.867188 50.984375 50.71875 49.71875 49.3125 48.308594 C 45.300781 44.132812 43.535156 37.992188 39.621094 33.523438 L 41.542969 32.519531 C 54.496094 24.507812 62.050781 12.625 58.59375 5.703125 C 56.554688 1.640625 53.433594 0.00390625 47.683594 0 Z M 45.367188 10.667969 C 47.785156 10.660156 49.957031 10.894531 50.914062 11.441406 C 51.953125 12.023438 52.078125 12.195312 51.332031 12.003906 C 50.457031 11.785156 49.9375 12.160156 48.625 13.988281 C 46.578125 16.84375 43.289062 19.894531 39.453125 22.511719 C 34.898438 25.613281 33.832031 26.203125 33.5625 25.785156 C 33.222656 25.253906 35.242188 13.09375 35.785156 12.433594 C 36.65625 11.363281 41.347656 10.679688 45.367188 10.667969 Z M 45.367188 10.667969 "/>
</g>
</svg>
