<svg xmlns="http://www.w3.org/2000/svg" xmlns:xlink="http://www.w3.org/1999/xlink" width="64" height="64" viewBox="0 0 64 64" version="1.1">
<defs>
<linearGradient id="linear0" gradientUnits="userSpaceOnUse" x1="0" y1="0" x2="0" y2="1" gradientTransform="matrix(60.558594,0,0,64,1.71875,0)">
<stop offset="0" style="stop-color:#ff6666;stop-opacity:1;"/>
<stop offset="1" style="stop-color:#d90000;stop-opacity:1;"/>
</linearGradient>
</defs>
<g id="surface1">
<path style=" stroke:none;fill-rule:nonzero;fill:url(#linear0);" d="M 1.71875 38.515625 C 2.058594 45.351562 1.675781 53.519531 6.691406 58.566406 C 11.382812 62.9375 18.261719 63.433594 24.195312 63.785156 C 27.039062 63.953125 30.152344 64 33.71875 64 L 43.308594 64 C 43.40625 63.566406 43.472656 63.066406 43.578125 62.714844 C 44.011719 61.296875 44.414062 58.367188 44.414062 56.628906 C 44.414062 54.503906 43.890625 50.617188 43.195312 47.578125 C 43.113281 47.214844 43.203125 47.203125 46.363281 47.203125 C 49.308594 47.203125 49.761719 47.160156 51.039062 46.738281 C 52.035156 46.414062 52.941406 46.269531 54.070312 46.242188 C 57.457031 46.183594 60.109375 44.304688 60.984375 41.347656 C 61.15625 40.777344 61.472656 40.234375 61.78125 39.992188 C 62.226562 39.636719 62.289062 39.453125 62.277344 38.5625 C 62.253906 36.882812 61.390625 35.453125 58.964844 33.066406 L 56.90625 31.046875 L 56.90625 29.648438 C 56.90625 28.367188 56.863281 28.210938 56.386719 27.769531 C 55.632812 27.0625 54.96875 26.964844 53.960938 27.40625 C 53.496094 27.617188 52.992188 27.738281 52.847656 27.683594 C 52.507812 27.554688 51.988281 26.253906 51.988281 25.53125 C 51.988281 25.074219 52.175781 24.835938 53.039062 24.199219 C 54.191406 23.347656 54.449219 22.882812 54.449219 21.667969 C 54.449219 20.367188 53.023438 18.714844 51.902344 18.714844 C 51.644531 18.714844 50.957031 18.152344 49.984375 17.144531 C 49.109375 16.234375 48.097656 15.390625 47.597656 15.148438 C 46.699219 14.710938 44.53125 14.273438 44.222656 14.460938 C 44.132812 14.515625 43.90625 14.285156 43.722656 13.945312 C 43.21875 12.988281 43.273438 10.910156 43.828125 9.761719 C 45.058594 7.226562 48.664062 5.125 52.980469 4.429688 C 53.921875 4.277344 54.726562 4.113281 54.777344 4.0625 C 54.824219 4.019531 54.300781 3.804688 53.609375 3.59375 C 48.453125 2 43.023438 3 40.140625 6.070312 C 39.679688 6.5625 39.300781 6.949219 39.292969 6.925781 C 38.839844 5.671875 39.898438 2.425781 41.304688 0.757812 C 41.585938 0.425781 41.769531 0.105469 41.707031 0.0429688 C 41.667969 0.0078125 41.59375 -0.0078125 41.484375 0.00390625 C 40.734375 0.0625 38.484375 1.207031 37.246094 2.207031 C 35.519531 3.609375 33.859375 6.402344 33.359375 8.746094 L 33.113281 9.914062 L 32.625 8.871094 C 32.105469 7.769531 31.738281 5.957031 31.734375 4.472656 C 31.734375 3.980469 31.671875 3.574219 31.59375 3.574219 C 31.359375 3.585938 29.542969 6.738281 28.546875 8.871094 C 27.242188 11.664062 26.4375 13.785156 25.304688 17.390625 C 22.386719 26.695312 21.214844 29.199219 18.414062 32.117188 C 15.675781 34.96875 10.03125 36.945312 7.085938 37.585938 C 4.132812 38.21875 3.578125 38.339844 1.71875 38.515625 Z M 1.71875 38.515625 "/>
</g>
</svg>
