<svg xmlns="http://www.w3.org/2000/svg" xmlns:xlink="http://www.w3.org/1999/xlink" width="64" height="64" viewBox="0 0 64 64" version="1.1">
<defs>
<linearGradient id="linear0" gradientUnits="userSpaceOnUse" x1="0" y1="0" x2="0" y2="1" gradientTransform="matrix(49.234375,0,0,64,7.382812,0)">
<stop offset="0" style="stop-color:#ff6666;stop-opacity:1;"/>
<stop offset="1" style="stop-color:#d90000;stop-opacity:1;"/>
</linearGradient>
</defs>
<g id="surface1">
<path style=" stroke:none;fill-rule:nonzero;fill:url(#linear0);" d="M 22.15625 0 C 18.917969 0 16.355469 0.296875 14.195312 1.109375 C 12.035156 1.921875 10.304688 3.382812 9.28125 5.234375 C 7.238281 8.941406 7.453125 13.46875 7.382812 19.664062 L 7.382812 44.335938 C 7.453125 50.53125 7.238281 55.066406 9.28125 58.773438 C 10.304688 60.625 12.035156 62.085938 14.195312 62.898438 C 16.355469 63.707031 18.917969 64 22.15625 64 L 41.84375 64 C 45.082031 64 47.644531 63.703125 49.804688 62.890625 C 51.964844 62.078125 53.6875 60.617188 54.710938 58.765625 C 56.753906 55.058594 56.546875 50.53125 56.617188 44.335938 L 56.617188 26.328125 L 51.578125 18.765625 C 51.535156 13.144531 51.714844 8.703125 49.796875 5.226562 C 48.773438 3.375 47.042969 1.914062 44.882812 1.101562 C 42.722656 0.292969 40.160156 0 36.921875 0 Z M 22.15625 4.921875 L 36.921875 4.921875 C 39.839844 4.921875 41.875 5.230469 43.15625 5.710938 C 44.4375 6.191406 44.984375 6.714844 45.484375 7.617188 C 46.480469 9.421875 46.695312 13.5 46.765625 19.71875 L 46.78125 20.453125 L 51.695312 27.828125 L 51.695312 44.28125 C 51.625 50.5 51.402344 54.578125 50.40625 56.382812 C 49.90625 57.285156 49.359375 57.808594 48.078125 58.289062 C 46.796875 58.769531 44.761719 59.078125 41.84375 59.078125 L 22.15625 59.078125 C 19.238281 59.078125 17.203125 58.769531 15.921875 58.289062 C 14.640625 57.808594 14.09375 57.285156 13.59375 56.382812 C 12.601562 54.582031 12.378906 50.5 12.304688 44.304688 L 12.304688 19.695312 C 12.378906 13.5 12.601562 9.417969 13.59375 7.617188 C 14.09375 6.714844 14.640625 6.191406 15.921875 5.710938 C 17.203125 5.230469 19.238281 4.921875 22.15625 4.921875 Z M 17.234375 9.84375 L 17.234375 19.695312 L 22.15625 19.695312 L 22.15625 9.84375 Z M 27.078125 9.84375 L 27.078125 19.695312 L 32 19.695312 L 32 9.84375 Z M 36.921875 9.84375 L 36.921875 19.695312 L 41.84375 19.695312 L 41.84375 9.84375 Z M 36.921875 9.84375 "/>
</g>
</svg>
