<svg xmlns="http://www.w3.org/2000/svg" xmlns:xlink="http://www.w3.org/1999/xlink" width="64" height="64" viewBox="0 0 64 64" version="1.1">
<defs>
<linearGradient id="linear0" gradientUnits="userSpaceOnUse" x1="0" y1="0" x2="0" y2="1" gradientTransform="matrix(64,0,0,63.410156,0,0.296875)">
<stop offset="0" style="stop-color:#ff6666;stop-opacity:1;"/>
<stop offset="1" style="stop-color:#d90000;stop-opacity:1;"/>
</linearGradient>
</defs>
<g id="surface1">
<path style=" stroke:none;fill-rule:evenodd;fill:url(#linear0);" d="M 52.261719 21.355469 C 40.03125 0.0390625 30.363281 -1.714844 23.308594 1.613281 C 19.859375 3.238281 21.300781 4.734375 16.386719 3.660156 C 12.015625 2.703125 9.246094 2.378906 5.402344 4.171875 C 1.558594 5.960938 0 7.746094 0 8.777344 C 0 9.804688 1.027344 7.234375 3.84375 6.972656 C 6.660156 6.707031 11.238281 6.972656 14.316406 9.28125 C 17.390625 11.585938 17.644531 13.613281 17.644531 14.636719 C 17.644531 15.664062 14.3125 14.179688 10.382812 15.148438 C 6.910156 16 4.230469 17.011719 3.976562 18.039062 C 3.714844 19.066406 10.148438 18.4375 13.15625 18.429688 C 14.589844 18.476562 15.632812 18.027344 16.628906 19.96875 C 17.664062 22.007812 17.90625 23.566406 19.195312 24.0625 C 20.480469 24.554688 20.730469 23.039062 22.269531 26.117188 C 23.808594 29.191406 24.316406 30.300781 22.519531 34.910156 C 20.722656 39.523438 19.425781 43.042969 20.191406 42.269531 C 20.792969 41.667969 22.726562 41.105469 23.421875 40.207031 C 23.226562 41.855469 23.421875 44.878906 25.613281 48.257812 C 29.457031 54.148438 35.074219 53.660156 43.027344 55.695312 C 55.402344 58.8125 60.832031 58.628906 63.429688 62.855469 C 63.941406 63.691406 64.265625 64.425781 63.714844 62.425781 C 61.167969 53.109375 59.761719 34.433594 52.261719 21.355469 Z M 23.59375 6.183594 C 23.59375 5.101562 24.472656 4.222656 25.550781 4.222656 C 26.636719 4.222656 27.515625 5.101562 27.515625 6.183594 C 27.515625 7.265625 26.636719 8.144531 25.550781 8.144531 C 24.472656 8.144531 23.59375 7.265625 23.59375 6.183594 Z M 23.59375 6.183594 "/>
</g>
</svg>
