<svg xmlns="http://www.w3.org/2000/svg" xmlns:xlink="http://www.w3.org/1999/xlink" width="64" height="64" viewBox="0 0 64 64" version="1.1">
<defs> <linearGradient id="linear0" gradientUnits="userSpaceOnUse" x1="0" y1="0" x2="0" y2="1" gradientTransform="matrix(55.992188,0,0,56,4.003906,4)"> <stop offset="0" style="stop-color:#ff6666;stop-opacity:1;"/> <stop offset="1" style="stop-color:#d90000;stop-opacity:1;"/> </linearGradient> </defs>
<g id="surface1">
<path style=" stroke:none;fill-rule:nonzero;fill:url(#linear0);fill-opacity:1;" d="M 26.324219 17.597656 L 26.324219 25.339844 C 25.148438 23.921875 23.527344 22.699219 20.878906 22.699219 C 16.734375 22.699219 12.914062 25.945312 12.914062 31.863281 L 12.914062 31.925781 C 12.914062 37.839844 16.800781 41.074219 20.878906 41.074219 C 23.457031 41.074219 25.117188 39.851562 26.324219 38.203125 L 26.324219 40.773438 L 31.316406 40.773438 L 31.316406 17.597656 L 26.324219 17.597656 M 33.390625 17.597656 L 33.390625 21.445312 L 38.496094 21.445312 L 38.496094 17.597656 Z M 49.785156 22.699219 C 44.335938 22.699219 40.285156 26.839844 40.285156 31.929688 L 40.285156 31.992188 C 40.285156 37.082031 44.300781 41.144531 49.71875 41.144531 C 55.167969 41.144531 59.21875 37.015625 59.21875 31.929688 L 59.21875 31.863281 C 59.21875 31.464844 59.191406 31.074219 59.144531 30.691406 C 61.984375 29.945312 63.160156 26.96875 61.808594 26.863281 C 59.253906 26.9375 56.175781 24.910156 54.976562 24.148438 C 54.867188 24.074219 54.847656 24.007812 54.730469 23.949219 C 54.605469 23.875 54.472656 23.816406 54.339844 23.753906 L 54.339844 31.210938 C 54.347656 31.878906 54.054688 32.582031 53.640625 33.257812 L 53.613281 33.316406 C 52.421875 35.265625 49.90625 36.402344 47.546875 35.59375 C 45.265625 34.8125 44.652344 32.582031 45.867188 30.601562 L 45.902344 30.535156 C 47.09375 28.582031 49.597656 27.445312 51.957031 28.25 C 52.136719 28.3125 52.308594 28.382812 52.464844 28.46875 L 52.464844 23.074219 C 51.625 22.84375 50.730469 22.707031 49.785156 22.707031 M 11.746094 22.738281 C 9.148438 22.8125 7.660156 24.351562 6.710938 26.648438 L 6.710938 23.078125 L 1.746094 23.078125 L 1.746094 40.785156 L 6.710938 40.785156 L 6.710938 34.25 C 6.710938 30.222656 8.539062 28.207031 11.558594 28.023438 C 12.152344 25.929688 13.230469 24.265625 14.597656 23.074219 C 13.933594 22.824219 13.171875 22.710938 12.289062 22.75 C 12.105469 22.738281 11.917969 22.734375 11.746094 22.738281 M 33.503906 23.035156 L 33.503906 40.773438 L 38.480469 40.773438 L 38.480469 23.035156 Z M 22.566406 27.960938 C 23.152344 27.933594 23.746094 28.011719 24.339844 28.214844 C 26.621094 28.996094 27.234375 31.238281 26.019531 33.21875 L 25.992188 33.277344 C 24.796875 35.234375 22.289062 36.375 19.929688 35.570312 C 17.644531 34.785156 17.035156 32.546875 18.246094 30.5625 L 18.285156 30.503906 C 19.175781 29.039062 20.804688 28.027344 22.566406 27.960938 "/>
</g>
</svg>
