<svg xmlns="http://www.w3.org/2000/svg" xmlns:xlink="http://www.w3.org/1999/xlink" width="64" height="64" viewBox="0 0 64 64" version="1.1">
<defs>
<linearGradient id="linear0" gradientUnits="userSpaceOnUse" x1="0" y1="0" x2="0" y2="1" gradientTransform="matrix(74.65625,0,0,74.666667,5.338541,5.333333)">
<stop offset="0" style="stop-color:#ff6666;stop-opacity:1;"/>
<stop offset="1" style="stop-color:#d90000;stop-opacity:1;"/>
</linearGradient>
</defs>
<g id="surface1">
<path style=" stroke:none;fill-rule:nonzero;fill:url(#linear0);" d="M 31.160156 3.191406 C 24.644531 3.371094 18.230469 5.09375 12.996094 8.242188 C 12.984375 8.25 12.972656 8.257812 12.960938 8.265625 C 5.816406 12.722656 1.832031 18.53125 1.425781 24.609375 C 1.023438 30.691406 4.230469 36.566406 9.890625 41.054688 C 9.890625 41.054688 9.894531 41.058594 9.894531 41.058594 C 15.539062 45.519531 20.949219 46.601562 24.042969 47.28125 C 24.042969 47.28125 24.046875 47.28125 24.046875 47.28125 C 24.046875 47.28125 24.050781 47.28125 24.050781 47.28125 C 27.15625 47.976562 28.195312 49.238281 28.722656 50.890625 C 29.253906 52.546875 28.996094 54.914062 28.058594 57.117188 C 27.632812 58.125 27.867188 59.296875 28.648438 60.0625 C 29.433594 60.832031 30.609375 61.039062 31.609375 60.589844 C 36.351562 58.457031 39.152344 55.800781 41.597656 53.15625 C 44.039062 50.515625 46.1875 47.910156 50.277344 44.976562 C 51.472656 44.121094 51.75 42.453125 50.890625 41.257812 C 50.03125 40.058594 48.367188 39.785156 47.167969 40.644531 C 42.574219 43.941406 39.984375 47.042969 37.679688 49.535156 C 36.515625 50.792969 35.4375 51.894531 34.144531 52.914062 C 34.148438 51.695312 34.1875 50.46875 33.800781 49.265625 C 32.730469 45.917969 29.707031 43.078125 25.203125 42.074219 C 25.199219 42.074219 25.199219 42.070312 25.195312 42.070312 C 21.984375 41.367188 17.914062 40.597656 13.203125 36.875 L 13.199219 36.875 C 8.519531 33.160156 6.484375 28.976562 6.75 24.964844 C 7.015625 20.957031 9.617188 16.644531 15.769531 12.800781 C 25.527344 6.945312 42.003906 7.25 51.246094 14.554688 C 55.871094 18.222656 57.328125 22.152344 57.269531 25.816406 C 57.214844 29.480469 55.449219 32.957031 53.15625 35.078125 C 52.074219 36.074219 52.007812 37.761719 53.007812 38.84375 C 53.488281 39.363281 54.15625 39.671875 54.863281 39.699219 C 55.570312 39.726562 56.261719 39.472656 56.777344 38.992188 C 60.152344 35.871094 62.523438 31.160156 62.605469 25.898438 C 62.683594 20.636719 60.277344 14.90625 54.558594 10.375 C 54.554688 10.371094 54.554688 10.371094 54.550781 10.371094 C 48.816406 5.839844 41.417969 3.507812 33.957031 3.210938 C 33.027344 3.171875 32.09375 3.164062 31.160156 3.191406 Z M 32.675781 14.761719 C 31.503906 14.800781 30.496094 15.601562 30.191406 16.734375 L 27.507812 26.757812 C 27.464844 26.878906 27.429688 27.003906 27.40625 27.132812 C 27.40625 27.132812 27.40625 27.136719 27.402344 27.140625 L 25.234375 35.242188 C 24.855469 36.664062 25.699219 38.128906 27.121094 38.507812 C 28.542969 38.890625 30.003906 38.046875 30.386719 36.625 L 32.519531 28.652344 C 33.320312 27.222656 34.933594 25.152344 36.78125 23.476562 C 38.714844 21.722656 40.945312 20.46875 42.261719 20.277344 C 43.722656 20.0625 44.730469 18.707031 44.515625 17.25 C 44.324219 15.941406 43.199219 14.96875 41.875 14.96875 C 41.746094 14.96875 41.621094 14.980469 41.492188 15 C 39.253906 15.324219 37.246094 16.371094 35.417969 17.710938 C 35.558594 16.402344 34.726562 15.191406 33.457031 14.851562 C 33.203125 14.78125 32.9375 14.75 32.675781 14.761719 Z M 32.675781 14.761719 "/>
</g>
</svg>
