<svg xmlns="http://www.w3.org/2000/svg" xmlns:xlink="http://www.w3.org/1999/xlink" width="64" height="64" viewBox="0 0 64 64" version="1.1">
<defs> <linearGradient id="linear0" gradientUnits="userSpaceOnUse" x1="0" y1="0" x2="0" y2="1" gradientTransform="matrix(55.992188,0,0,56,4.003906,4)"> <stop offset="0" style="stop-color:#ff6666;stop-opacity:1;"/> <stop offset="1" style="stop-color:#d90000;stop-opacity:1;"/> </linearGradient> </defs>
<g id="surface1">
<path style=" stroke:none;fill-rule:nonzero;fill:url(#linear0);fill-opacity:1;" d="M 16.335938 5.339844 L 1.464844 30.992188 L 16.335938 56.648438 L 46.082031 56.648438 L 60.957031 30.992188 L 46.082031 5.339844 Z M 44.9375 7.324219 L 51.148438 18.039062 L 45.003906 21.570312 L 40.839844 14.394531 L 32.511719 14.394531 L 32.511719 7.328125 Z M 29.914062 7.324219 L 29.914062 14.386719 L 21.582031 14.386719 L 17.421875 21.570312 L 11.277344 18.039062 L 17.488281 7.328125 Z M 29.910156 16.542969 L 29.910156 22.636719 L 26.367188 22.636719 L 24.59375 25.699219 L 19.289062 22.648438 L 22.839844 16.542969 Z M 32.511719 16.542969 L 39.585938 16.542969 L 43.128906 22.648438 L 37.832031 25.699219 L 36.054688 22.636719 L 32.511719 22.636719 Z M 9.980469 20.285156 L 16.121094 23.808594 L 11.957031 30.992188 L 16.125 38.179688 L 9.980469 41.707031 L 3.769531 30.992188 Z M 52.445312 20.285156 L 58.65625 30.996094 L 52.445312 41.714844 L 46.300781 38.183594 L 50.46875 30.996094 L 46.304688 23.816406 Z M 17.996094 24.890625 L 23.304688 27.9375 L 21.53125 30.992188 L 23.308594 34.050781 L 18.007812 37.097656 L 14.460938 30.992188 Z M 44.425781 24.890625 L 47.96875 30.992188 L 44.425781 37.097656 L 39.121094 34.050781 L 40.898438 30.992188 L 39.125 27.9375 Z M 27.695312 24.921875 L 34.730469 24.921875 L 38.246094 30.992188 L 34.730469 37.058594 L 27.695312 37.058594 L 24.179688 30.992188 Z M 24.597656 36.289062 L 26.367188 39.34375 L 29.914062 39.34375 L 29.914062 45.441406 L 22.832031 45.441406 L 19.296875 39.339844 Z M 37.824219 36.289062 L 43.125 39.339844 L 39.585938 45.441406 L 32.511719 45.441406 L 32.511719 39.34375 L 36.054688 39.34375 Z M 17.414062 40.417969 L 21.582031 47.59375 L 29.910156 47.59375 L 29.910156 54.660156 L 17.488281 54.660156 L 11.277344 43.949219 Z M 45 40.417969 L 51.144531 43.949219 L 44.9375 54.660156 L 32.511719 54.660156 L 32.511719 47.59375 L 40.835938 47.59375 Z M 45 40.417969 "/>
</g>
</svg>
