<svg xmlns="http://www.w3.org/2000/svg" xmlns:xlink="http://www.w3.org/1999/xlink" width="64" height="64" viewBox="0 0 64 64" version="1.1">
<defs>
<linearGradient id="linear0" gradientUnits="userSpaceOnUse" x1="0" y1="0" x2="0" y2="1" gradientTransform="matrix(64,0,0,60.445312,0,1.777344)">
<stop offset="0" style="stop-color:#ff6666;stop-opacity:1;"/>
<stop offset="1" style="stop-color:#d90000;stop-opacity:1;"/>
</linearGradient>
</defs>
<g id="surface1">
<path style=" stroke:none;fill-rule:nonzero;fill:url(#linear0);" d="M 35.585938 1.777344 C 34.691406 1.761719 33.929688 2.410156 33.800781 3.296875 L 30.753906 23.15625 C 23.746094 23.363281 17.105469 25.34375 12.09375 28.710938 C 10.765625 27.402344 8.976562 26.671875 7.113281 26.671875 C 3.183594 26.671875 0 29.855469 0 33.78125 C 0 36.433594 1.480469 38.863281 3.832031 40.089844 C 3.65625 40.945312 3.5625 41.808594 3.554688 42.671875 C 3.554688 53.472656 16.292969 62.222656 32 62.222656 C 47.707031 62.222656 60.445312 53.472656 60.445312 42.671875 C 60.433594 41.808594 60.335938 40.949219 60.160156 40.09375 C 62.519531 38.871094 64 36.4375 64 33.78125 C 64 29.855469 60.816406 26.671875 56.886719 26.671875 C 55.019531 26.671875 53.226562 27.40625 51.894531 28.71875 C 47.160156 25.519531 40.945312 23.5625 34.328125 23.183594 L 37.027344 5.710938 L 46.273438 7.769531 C 46.601562 10.4375 48.863281 12.445312 51.554688 12.449219 C 54.5 12.449219 56.886719 10.058594 56.886719 7.117188 C 56.886719 4.167969 54.5 1.78125 51.554688 1.78125 C 49.71875 1.785156 48.015625 2.726562 47.039062 4.28125 L 35.953125 1.824219 C 35.832031 1.796875 35.707031 1.777344 35.585938 1.777344 Z M 23.113281 33.78125 C 26.054688 33.78125 28.445312 36.167969 28.445312 39.117188 C 28.445312 42.058594 26.054688 44.449219 23.113281 44.449219 C 20.164062 44.449219 17.777344 42.058594 17.777344 39.117188 C 17.777344 36.167969 20.164062 33.78125 23.113281 33.78125 Z M 40.886719 33.78125 C 43.835938 33.78125 46.222656 36.167969 46.222656 39.117188 C 46.222656 42.058594 43.835938 44.449219 40.886719 44.449219 C 37.945312 44.449219 35.554688 42.058594 35.554688 39.117188 C 35.554688 36.167969 37.945312 33.78125 40.886719 33.78125 Z M 44.347656 49.71875 C 46 49.578125 46.933594 51.574219 45.765625 52.753906 C 45.765625 52.753906 44.601562 53.988281 42.382812 55.011719 C 40.164062 56.03125 36.761719 56.980469 31.960938 56.898438 C 27.183594 56.816406 23.839844 55.871094 21.644531 54.902344 C 19.453125 53.941406 18.285156 52.800781 18.285156 52.800781 C 17.195312 51.730469 17.867188 49.878906 19.386719 49.761719 C 19.449219 49.757812 19.503906 49.753906 19.5625 49.753906 C 20.042969 49.761719 20.503906 49.960938 20.832031 50.308594 C 20.832031 50.308594 21.339844 50.878906 23.09375 51.648438 C 24.839844 52.421875 27.703125 53.246094 32.039062 53.328125 C 36.351562 53.402344 39.15625 52.574219 40.878906 51.78125 C 42.609375 50.988281 43.117188 50.363281 43.117188 50.363281 C 43.425781 49.992188 43.867188 49.761719 44.347656 49.71875 Z M 44.347656 49.71875 "/>
</g>
</svg>
