<svg xmlns="http://www.w3.org/2000/svg" xmlns:xlink="http://www.w3.org/1999/xlink" width="64" height="64" viewBox="0 0 64 64" version="1.1">
<defs> <linearGradient id="linear0" gradientUnits="userSpaceOnUse" x1="0" y1="0" x2="0" y2="1" gradientTransform="matrix(55.992188,0,0,56,4.003906,4)"> <stop offset="0" style="stop-color:#ff6666;stop-opacity:1;"/> <stop offset="1" style="stop-color:#d90000;stop-opacity:1;"/> </linearGradient> </defs>
<g id="surface1">
<path style=" stroke:none;fill-rule:nonzero;fill:url(#linear0);fill-opacity:1;" d="M 32.054688 4.652344 C 23.46875 4.652344 16.511719 11.585938 16.511719 20.136719 C 16.511719 24.742188 18.527344 28.871094 21.550781 32.054688 C 24.578125 35.234375 24.703125 39.308594 24.679688 42.710938 C 24.632812 42.882812 24.660156 43.082031 24.753906 43.246094 L 26.246094 45.820312 L 24.671875 47.90625 C 24.480469 48.167969 24.496094 48.558594 24.707031 48.800781 L 25.871094 50.175781 L 24.839844 51.507812 C 24.644531 51.757812 24.644531 52.140625 24.84375 52.390625 L 25.910156 53.742188 L 25.910156 53.753906 L 24.984375 54.988281 C 24.734375 55.320312 24.859375 55.863281 25.230469 56.050781 C 27.484375 57.316406 29.925781 58.511719 32.066406 59.609375 C 32.277344 59.71875 32.550781 59.714844 32.761719 59.597656 L 38.847656 56.136719 C 39.21875 55.925781 39.3125 55.367188 39.042969 55.042969 L 38.03125 53.878906 L 39.582031 52.378906 C 39.871094 52.101562 39.847656 51.570312 39.539062 51.316406 L 38.144531 50.132812 L 39.359375 48.828125 C 39.585938 48.578125 39.601562 48.167969 39.398438 47.902344 L 38.058594 46.175781 L 39.34375 43.03125 C 39.382812 42.941406 39.398438 42.839844 39.394531 42.738281 C 39.375 39.441406 39.199219 35.253906 41.613281 32.34375 C 45.253906 29.507812 47.597656 25.097656 47.597656 20.136719 C 47.597656 11.585938 40.644531 4.652344 32.054688 4.652344 M 32.054688 8.132812 C 38.71875 8.132812 44.113281 13.503906 44.113281 20.136719 C 44.113281 24.070312 42.214844 27.5625 39.171875 29.828125 C 36.378906 32.621094 35.53125 38.492188 35.683594 42.042969 C 34.957031 42.042969 34.230469 42.042969 33.503906 42.035156 L 33.5 28.148438 C 34.617188 25.628906 35.164062 25.339844 35.957031 24.296875 C 36.316406 23.507812 36.019531 22.8125 35.050781 22.621094 C 34.507812 22.546875 33.917969 22.46875 33.3125 22.40625 C 32.925781 22.367188 32.460938 22.351562 31.960938 22.355469 C 30.476562 22.359375 28.757812 22.542969 28.375 22.832031 C 28.171875 22.972656 27.976562 23.117188 27.863281 23.453125 C 27.769531 23.753906 27.855469 24.085938 28.050781 24.441406 C 29.226562 25.753906 30.011719 26.535156 30.414062 28.191406 L 30.414062 42.046875 C 29.746094 42.054688 29.070312 42.058594 28.394531 42.074219 C 28.558594 38.519531 27.730469 32.621094 25.230469 30.023438 C 25.230469 30.023438 25.230469 30.019531 25.230469 30.019531 L 23.464844 28.617188 C 21.707031 27.207031 19.992188 23.871094 19.992188 20.136719 C 19.992188 13.503906 25.394531 8.125 32.054688 8.125 M 28.238281 16.914062 C 27.972656 16.933594 27.71875 17.097656 27.609375 17.339844 C 26.929688 18.84375 25.921875 19.980469 23.816406 20.613281 L 24.234375 22.003906 C 26.335938 21.371094 27.65625 20.136719 28.507812 18.695312 C 29.699219 19.550781 30.664062 20.070312 31.761719 20.097656 C 32.875 20.128906 33.964844 19.652344 35.429688 18.84375 C 36.222656 20.4375 37.554688 21.433594 39.023438 22.066406 L 39.601562 20.738281 C 38.125 20.105469 37.035156 19.238281 36.46875 17.582031 C 36.332031 17.179688 35.792969 16.976562 35.417969 17.1875 C 33.59375 18.234375 32.578125 18.667969 31.792969 18.652344 C 31.015625 18.628906 30.199219 18.183594 28.714844 17.0625 C 28.582031 16.960938 28.410156 16.910156 28.238281 16.914062 M 39.0625 29.886719 C 39.136719 29.847656 38.988281 29.933594 38.84375 30.023438 L 38.84375 30.03125 Z M 32.027344 43.46875 C 33.882812 43.460938 35.746094 43.472656 37.609375 43.472656 L 37.441406 43.890625 L 27.78125 45.617188 C 27.761719 45.582031 27.75 45.546875 27.730469 45.515625 L 26.597656 43.5625 C 28.40625 43.5 30.210938 43.46875 32.027344 43.46875 M 36.792969 45.480469 L 36.570312 46.019531 C 36.480469 46.25 36.519531 46.527344 36.671875 46.71875 L 37.285156 47.511719 L 27.058594 49.34375 L 26.171875 48.300781 L 26.980469 47.234375 Z M 37.878906 48.273438 L 37.894531 48.296875 L 37.882812 48.308594 L 37.878906 48.273438 M 37.253906 48.988281 L 36.578125 49.714844 C 36.316406 50 36.34375 50.503906 36.640625 50.75 L 37.246094 51.261719 L 27.210938 53.0625 L 26.320312 51.945312 L 27.210938 50.785156 Z M 37.832031 51.753906 L 38.007812 51.898438 L 37.878906 52.023438 Z M 37.128906 52.753906 L 36.542969 53.320312 C 36.28125 53.574219 36.265625 54.027344 36.496094 54.304688 L 36.945312 54.8125 L 28.351562 56.0625 L 26.644531 55.171875 L 27.109375 54.558594 Z M 35.265625 56.523438 L 32.386719 58.160156 L 30.550781 57.203125 Z M 35.265625 56.523438 "/>
</g>
</svg>
