<svg xmlns="http://www.w3.org/2000/svg" xmlns:xlink="http://www.w3.org/1999/xlink" width="64" height="64" viewBox="0 0 64 64" version="1.1">
<defs>
<linearGradient id="linear0" gradientUnits="userSpaceOnUse" x1="0" y1="0" x2="0" y2="1" gradientTransform="matrix(64,0,0,36.101562,0,13.949219)">
<stop offset="0" style="stop-color:#ff6666;stop-opacity:1;"/>
<stop offset="1" style="stop-color:#d90000;stop-opacity:1;"/>
</linearGradient>
</defs>
<g id="surface1">
<path style=" stroke:none;fill-rule:evenodd;fill:url(#linear0);" d="M 8.179688 13.949219 L 0 41.847656 L 3.382812 41.847656 L 11.488281 13.949219 Z M 26.257812 41.847656 L 26.257812 36.925781 L 31.179688 36.925781 L 31.179688 41.847656 Z M 42.644531 13.949219 L 34.460938 41.847656 L 37.84375 41.847656 L 45.949219 13.949219 Z M 53.960938 23.796875 C 54.949219 23.796875 55.832031 24.089844 56.605469 24.675781 C 57.390625 25.253906 58.003906 26.097656 58.433594 27.199219 C 58.863281 28.296875 59.074219 30.46875 59.074219 31.992188 C 59.074219 33.476562 58.863281 34.144531 58.433594 35.226562 C 58.003906 36.300781 57.390625 37.125 56.605469 37.699219 C 55.820312 38.277344 54.921875 38.5625 53.902344 38.5625 C 52.195312 38.5625 50.992188 38.007812 50.289062 36.886719 C 49.585938 35.769531 49.230469 34.550781 49.230469 31.992188 C 49.230469 29.40625 49.609375 26.679688 50.359375 25.523438 C 51.113281 24.371094 52.3125 23.796875 53.960938 23.796875 Z M 60.652344 20.511719 C 60.601562 20.601562 60.542969 21.511719 60.492188 22.453125 C 60.441406 23.390625 60.410156 24.050781 60.410156 24.433594 L 60.371094 24.433594 C 59.773438 23.199219 58.921875 22.257812 57.808594 21.597656 C 56.707031 20.925781 55.40625 20.589844 53.90625 20.589844 C 51.226562 20.589844 49.230469 21.460938 47.910156 23.199219 C 46.605469 24.925781 45.949219 28.589844 45.949219 32.230469 C 45.949219 35.824219 46.554688 37.773438 47.773438 39.449219 C 49 41.125 50.914062 41.960938 53.515625 41.960938 C 55.070312 41.960938 56.433594 41.632812 57.59375 40.972656 C 58.757812 40.300781 59.667969 39.304688 60.332031 37.984375 L 60.371094 37.984375 L 60.371094 41.296875 C 60.371094 45.292969 58.617188 46.789062 55.105469 46.789062 C 53.796875 46.789062 52.734375 46.53125 51.929688 46.011719 C 51.128906 45.503906 50.613281 44.773438 50.378906 43.820312 L 46.832031 44.316406 C 47.222656 45.941406 48.105469 47.84375 49.476562 48.71875 C 50.847656 49.609375 52.691406 50.050781 55.007812 50.050781 C 60.925781 50.050781 64 47.003906 64 41.214844 L 64 20.511719 Z M 14.792969 13.949219 L 22.976562 41.847656 L 19.59375 41.847656 L 11.488281 13.949219 Z M 14.792969 13.949219 "/>
</g>
</svg>
