<svg xmlns="http://www.w3.org/2000/svg" xmlns:xlink="http://www.w3.org/1999/xlink" width="64" height="64" viewBox="0 0 64 64" version="1.1">
<defs> <linearGradient id="linear0" gradientUnits="userSpaceOnUse" x1="0" y1="0" x2="0" y2="1" gradientTransform="matrix(55.992188,0,0,56,4.003906,4)"> <stop offset="0" style="stop-color:#ff6666;stop-opacity:1;"/> <stop offset="1" style="stop-color:#d90000;stop-opacity:1;"/> </linearGradient> </defs>
<g id="surface1">
<path style=" stroke:none;fill-rule:nonzero;fill:url(#linear0);fill-opacity:1;" d="M 61.195312 20.308594 C 56.21875 9.578125 45.105469 2.691406 32.578125 2.691406 C 19.761719 2.691406 8.054688 10.230469 3.441406 21.445312 L 13.152344 24.96875 C 16.222656 17.484375 24.03125 12.464844 32.574219 12.464844 C 40.820312 12.464844 48.109375 16.953125 51.488281 23.9375 L 44.402344 26.597656 L 62.523438 36.414062 L 67.824219 17.824219 Z M 61.195312 20.308594 "/>
<path style=" stroke:none;fill-rule:nonzero;fill:url(#linear0);fill-opacity:1;" d="M 32.578125 51.542969 C 24.40625 51.542969 16.960938 46.917969 13.628906 39.972656 L 20.613281 37.4375 L 2.683594 27.839844 L -2.800781 45.933594 L 3.882812 43.507812 C 8.753906 54.195312 20.136719 61.308594 32.578125 61.308594 C 45.4375 61.308594 56.828125 54.066406 61.585938 42.863281 L 51.921875 39.238281 C 48.742188 46.714844 41.152344 51.542969 32.578125 51.542969 Z M 32.578125 51.542969 "/>
</g>
</svg>
