<svg xmlns="http://www.w3.org/2000/svg" xmlns:xlink="http://www.w3.org/1999/xlink" width="64" height="64" viewBox="0 0 64 64" version="1.1">
<defs>
<linearGradient id="linear0" gradientUnits="userSpaceOnUse" x1="0" y1="0" x2="0" y2="1" gradientTransform="matrix(57.933594,0,0,60,3.03125,2)">
<stop offset="0" style="stop-color:#ff6666;stop-opacity:1;"/>
<stop offset="1" style="stop-color:#d90000;stop-opacity:1;"/>
</linearGradient>
</defs>
<g id="surface1">
<path style=" stroke:none;fill-rule:nonzero;fill:url(#linear0);" d="M 8.558594 56.324219 C 7.242188 56.148438 6.324219 55.707031 5.09375 55.238281 C 4.519531 55.023438 4.273438 51.320312 4.125 49.085938 C 3.980469 46.851562 3.941406 45.035156 4.035156 42.84375 C 4.132812 40.652344 4.507812 38.574219 4.738281 36.261719 C 4.96875 33.945312 5.132812 31.871094 5.351562 29.5 C 5.574219 27.125 6.117188 26.300781 6.496094 24.6875 C 6.75 23.613281 7.070312 22.210938 7.464844 20.484375 C 7.933594 19.433594 7.902344 18.699219 7.375 18.277344 C 6.453125 17.539062 5.878906 18.878906 4.386719 18.878906 C 3.742188 18.878906 3.300781 18.230469 3.066406 16.933594 C 2.972656 15.351562 3.074219 14.167969 3.375 13.378906 C 3.625 12.722656 4.183594 11.898438 5.046875 10.90625 L 8.429688 7.65625 C 9.492188 6.882812 10.339844 6.335938 10.976562 6.011719 C 12.507812 5.226562 13.972656 4.972656 15.632812 4.535156 C 18.691406 3.734375 21.375 3.515625 24.503906 3.0625 C 27.632812 2.613281 29.953125 2.140625 32.9375 2.023438 C 35.925781 1.910156 38.640625 2.21875 41.722656 2.457031 C 44.804688 2.695312 44.796875 2.855469 45.191406 2.890625 C 45.589844 2.929688 45.875 3.628906 46.46875 3.757812 C 47.871094 3.496094 50.148438 4.113281 51.472656 5.015625 C 52.800781 5.921875 54.222656 7.085938 55.691406 8.351562 C 57.15625 9.617188 57.691406 9.996094 58.5 11.125 C 59.3125 12.257812 59.378906 13.125 59.820312 14.375 C 60.261719 15.625 60.898438 16.71875 60.960938 17.972656 C 61.023438 19.222656 60.46875 20.65625 59.953125 22.089844 C 59.4375 23.519531 59.0625 24.074219 58.457031 25.035156 C 57.851562 25.996094 56.667969 27.773438 54.988281 28.847656 C 53.308594 29.925781 52.753906 30.058594 51.558594 30.710938 C 50.367188 31.363281 49.183594 32.875 47.476562 33.789062 C 45.769531 34.699219 42.0625 35.511719 40.359375 36.214844 C 38.65625 36.921875 38.570312 37.394531 36.628906 38.121094 C 35.332031 38.605469 32.710938 39.097656 28.765625 39.597656 L 25.03125 40.460938 C 24.140625 41.011719 23.660156 41.503906 23.585938 41.9375 C 23.496094 42.425781 23.980469 43.074219 25.03125 43.882812 L 30.304688 47.523438 C 33.074219 48.910156 35.210938 49.980469 36.714844 50.730469 C 38.96875 51.859375 41.019531 52.925781 43.480469 53.941406 C 45.941406 54.957031 46.984375 55.339844 48.925781 55.933594 C 50.867188 56.523438 49.765625 56.578125 51.824219 57.058594 C 53.886719 57.535156 55.492188 59.570312 55.382812 60.828125 C 55.304688 61.71875 53.808594 62.019531 53.492188 62 C 53.179688 61.980469 52.050781 61.71875 51.472656 61.652344 C 49.617188 61.433594 48.625 61.316406 47.828125 61.21875 C 46.785156 61.09375 44.863281 60.859375 43.128906 60.265625 C 41.390625 59.671875 36.691406 57.792969 33.464844 55.933594 C 30.238281 54.070312 29.660156 53.601562 27.757812 52.121094 C 25.851562 50.636719 26.496094 50.695312 25.558594 50.300781 C 24.621094 49.898438 24.734375 50.140625 24.328125 49.953125 C 23.921875 49.765625 23.121094 48.667969 22.394531 48.042969 C 21.914062 47.628906 20.566406 46.734375 18.355469 45.359375 C 16.6875 44.230469 15.425781 43.21875 14.574219 42.324219 C 13.304688 40.980469 14.738281 37.433594 15.234375 37.515625 C 15.730469 37.601562 17.007812 37.316406 19.847656 36.648438 L 25.691406 35.21875 L 32.5 33.742188 L 36.714844 32.445312 C 36.863281 32.386719 37.300781 32.332031 38.03125 32.273438 C 38.765625 32.214844 41.488281 30.738281 46.203125 27.851562 C 48.679688 26.359375 50.464844 25.058594 51.558594 23.953125 C 53.203125 22.292969 53.886719 21.578125 54.636719 19.964844 C 55.382812 18.351562 55.339844 18.496094 55.429688 17.625 C 55.511719 16.757812 54.78125 14.496094 53.757812 13.121094 C 52.734375 11.738281 52.300781 11.488281 51.296875 10.863281 C 50.292969 10.238281 47.5625 8.929688 47.078125 8.738281 C 46.597656 8.554688 45.867188 8.753906 45.234375 8.613281 C 44.605469 8.472656 44.0625 8 43.214844 7.832031 C 42.367188 7.664062 40.160156 7.992188 38.121094 7.914062 C 36.085938 7.84375 32.488281 7.648438 32.191406 7.875 C 31.222656 8.613281 29.292969 8.039062 27.757812 8.351562 C 26.5 8.609375 24.773438 9.171875 22.570312 10.039062 L 18.269531 11.644531 C 16.492188 12.0625 15.246094 12.597656 14.53125 13.246094 C 13.675781 14.03125 13.015625 15.492188 12.554688 17.625 C 12.261719 19.214844 12.054688 20.441406 11.945312 21.308594 C 11.691406 23.203125 11.847656 24.84375 11.503906 26.722656 C 11.351562 27.539062 11.070312 28.195312 10.976562 29.019531 C 10.871094 29.925781 10.960938 31.214844 11.238281 32.878906 L 11.0625 36.261719 L 10.710938 38.425781 C 10.164062 39.839844 9.828125 40.953125 9.703125 41.761719 C 9.585938 42.535156 9.570312 43.648438 9.660156 45.101562 L 10.007812 48.042969 C 10.15625 48.867188 10.242188 49.5 10.273438 49.953125 C 10.339844 50.953125 10.222656 52.367188 9.921875 54.199219 C 9.566406 55.324219 9.113281 56.035156 8.558594 56.324219 Z M 8.558594 56.324219 "/>
</g>
</svg>
