<svg xmlns="http://www.w3.org/2000/svg" xmlns:xlink="http://www.w3.org/1999/xlink" width="64" height="64" viewBox="0 0 64 64" version="1.1">
<defs>
<linearGradient id="linear0" gradientUnits="userSpaceOnUse" x1="0" y1="0" x2="0" y2="1" gradientTransform="matrix(64,0,0,64,0,0)">
<stop offset="0" style="stop-color:#ff6666;stop-opacity:1;"/>
<stop offset="1" style="stop-color:#d90000;stop-opacity:1;"/>
</linearGradient>
</defs>
<g id="surface1">
<path style=" stroke:none;fill-rule:nonzero;fill:url(#linear0);" d="M 24.351562 0.847656 C 9.765625 4.285156 -0.6875 17.78125 0.0351562 32.910156 C 0.175781 35.871094 1.363281 41.015625 2.527344 43.71875 C 4.136719 47.453125 8.3125 53.417969 8.917969 52.847656 C 9.21875 52.566406 12.832031 48.796875 12.945312 48.648438 C 12.988281 48.597656 12.445312 47.792969 11.742188 46.871094 C 9.394531 43.8125 7.773438 40.480469 7 37.125 C 3.550781 22.179688 14.171875 7.726562 29.613281 6.351562 C 35.179688 5.859375 42.011719 7.734375 46.390625 10.964844 L 47.851562 12.039062 L 50.003906 9.765625 C 51.914062 7.75 52.109375 7.460938 51.742188 7.164062 C 44.816406 1.550781 36.105469 -0.898438 27.320312 0.296875 C 26.3125 0.441406 25.320312 0.617188 24.351562 0.847656 Z M 14.585938 19.585938 C 14.375 19.601562 14.507812 20.429688 15.113281 23.039062 L 15.941406 26.59375 L 20.113281 28.144531 C 22.410156 29 24.292969 29.722656 24.296875 29.75 C 24.304688 29.78125 22.925781 31.238281 21.234375 33 L 18.15625 36.203125 L 18.972656 39.757812 C 19.613281 42.542969 19.847656 43.265625 20.050781 43.070312 C 21.101562 42.074219 34.96875 27.417969 34.945312 27.328125 C 34.925781 27.230469 16.027344 20.042969 14.628906 19.59375 C 14.613281 19.589844 14.597656 19.585938 14.585938 19.585938 Z M 55.148438 11.117188 C 55.125 11.121094 55.101562 11.136719 55.082031 11.152344 C 54.785156 11.433594 51.171875 15.199219 51.054688 15.351562 C 51.011719 15.398438 51.554688 16.207031 52.257812 17.125 C 54.605469 20.1875 56.226562 23.519531 57 26.875 C 60.449219 41.820312 49.832031 56.273438 34.386719 57.644531 C 28.820312 58.140625 21.992188 56.261719 17.609375 53.035156 L 16.152344 51.960938 L 14 54.230469 C 12.085938 56.25 11.894531 56.539062 12.257812 56.835938 C 19.183594 62.449219 27.894531 64.898438 36.683594 63.703125 C 52.789062 61.507812 64.734375 47.226562 63.964844 31.089844 C 63.824219 28.125 62.636719 22.984375 61.472656 20.28125 C 59.914062 16.660156 55.949219 10.953125 55.148438 11.117188 Z M 43.988281 20.90625 C 43.976562 20.910156 43.964844 20.917969 43.949219 20.9375 C 42.902344 21.933594 29.035156 36.585938 29.054688 36.679688 C 29.074219 36.773438 47.972656 43.964844 49.371094 44.414062 C 49.640625 44.496094 49.535156 43.75 48.886719 40.96875 L 48.0625 37.414062 L 43.890625 35.863281 C 41.59375 35.007812 39.710938 34.289062 39.703125 34.257812 C 39.699219 34.226562 41.074219 32.769531 42.769531 31.007812 L 45.84375 27.804688 L 45.027344 24.25 C 44.429688 21.640625 44.183594 20.84375 43.988281 20.914062 Z M 43.988281 20.90625 "/>
</g>
</svg>
