<svg xmlns="http://www.w3.org/2000/svg" xmlns:xlink="http://www.w3.org/1999/xlink" width="64" height="64" viewBox="0 0 64 64" version="1.1">
<defs>
<linearGradient id="linear0" gradientUnits="userSpaceOnUse" x1="0" y1="0" x2="0" y2="1" gradientTransform="matrix(74.65625,0,0,74.666667,5.338541,5.333333)">
<stop offset="0" style="stop-color:#ff6666;stop-opacity:1;"/>
<stop offset="1" style="stop-color:#d90000;stop-opacity:1;"/>
</linearGradient>
</defs>
<g id="surface1">
<path style=" stroke:none;fill-rule:nonzero;fill:url(#linear0);" d="M 32.761719 2.730469 C 31.859375 2.707031 30.953125 2.722656 30.046875 2.777344 C 22.785156 3.21875 15.445312 6.238281 9.925781 12.371094 C 9.921875 12.375 9.921875 12.375 9.917969 12.375 C 4.4375 18.480469 2.355469 25.773438 2.425781 32.410156 C 2.5 39.046875 4.609375 45.070312 7.792969 49.210938 C 8.738281 50.4375 10.496094 50.664062 11.722656 49.722656 C 12.945312 48.777344 13.171875 47.023438 12.230469 45.796875 C 9.960938 42.84375 8.085938 37.789062 8.027344 32.347656 C 7.964844 26.90625 9.605469 21.113281 14.085938 16.121094 L 14.089844 16.117188 C 23 6.222656 38.335938 6.703125 46.179688 13.015625 C 47.382812 13.984375 49.148438 13.796875 50.117188 12.589844 C 51.085938 11.386719 50.894531 9.625 49.691406 8.652344 C 45.140625 4.992188 39.074219 2.898438 32.761719 2.730469 Z M 53.839844 13.917969 C 53.289062 13.933594 52.757812 14.113281 52.308594 14.429688 C 51.042969 15.324219 50.746094 17.070312 51.636719 18.332031 C 56.75 25.566406 58.792969 38.171875 49.746094 48.25 C 45.316406 53.167969 39.335938 55.40625 33.359375 55.65625 C 27.382812 55.90625 21.496094 54.054688 17.75 51.128906 C 16.53125 50.175781 14.773438 50.390625 13.820312 51.609375 C 12.867188 52.828125 13.082031 54.589844 14.300781 55.542969 C 19.328125 59.46875 26.355469 61.554688 33.589844 61.253906 C 40.828125 60.949219 48.359375 58.152344 53.910156 51.992188 C 53.910156 51.992188 53.910156 51.992188 53.910156 51.988281 C 64.789062 39.871094 62.703125 24.289062 56.207031 15.101562 C 55.699219 14.382812 54.882812 13.941406 54 13.917969 C 53.945312 13.914062 53.890625 13.914062 53.839844 13.917969 Z M 20.351562 14.628906 C 19.410156 14.636719 18.539062 15.136719 18.066406 15.949219 C 17.320312 17.222656 17.75 18.855469 19.023438 19.597656 L 28.808594 25.320312 L 19.046875 30.882812 C 17.765625 31.613281 17.320312 33.242188 18.050781 34.519531 C 18.78125 35.800781 20.410156 36.246094 21.691406 35.515625 L 31.894531 29.699219 L 31.839844 29.730469 C 32.6875 29.273438 33.390625 28.835938 34.042969 28.199219 C 34.691406 27.5625 35.378906 26.5 35.332031 25.222656 C 35.285156 23.945312 34.59375 23.035156 33.988281 22.445312 C 33.378906 21.859375 32.730469 21.441406 31.996094 21.007812 C 31.992188 21.007812 31.992188 21.007812 31.992188 21.003906 L 21.714844 14.996094 C 21.300781 14.753906 20.828125 14.628906 20.351562 14.628906 Z M 43.585938 28.535156 C 43.136719 28.542969 42.699219 28.660156 42.3125 28.882812 L 32.105469 34.699219 L 32.160156 34.667969 C 31.316406 35.125 30.609375 35.5625 29.957031 36.199219 C 29.308594 36.835938 28.621094 37.898438 28.667969 39.175781 C 28.714844 40.453125 29.40625 41.367188 30.015625 41.957031 C 30.625 42.542969 31.265625 42.960938 32.003906 43.394531 C 32.003906 43.394531 32.007812 43.394531 32.007812 43.394531 L 42.285156 49.402344 C 43.558594 50.148438 45.191406 49.71875 45.933594 48.449219 C 46.679688 47.175781 46.25 45.542969 44.980469 44.800781 L 35.195312 39.078125 L 44.953125 33.515625 C 46.234375 32.785156 46.679688 31.15625 45.949219 29.878906 C 45.46875 29.03125 44.558594 28.515625 43.585938 28.535156 Z M 43.585938 28.535156 "/>
</g>
</svg>
