<svg xmlns="http://www.w3.org/2000/svg" xmlns:xlink="http://www.w3.org/1999/xlink" width="64" height="64" viewBox="0 0 64 64" version="1.1">
<defs>
<linearGradient id="linear0" gradientUnits="userSpaceOnUse" x1="0" y1="0" x2="0" y2="1" gradientTransform="matrix(64,0,0,8,-0.125,50)">
<stop offset="0" style="stop-color:#ff6666;stop-opacity:1;"/>
<stop offset="1" style="stop-color:#d90000;stop-opacity:1;"/>
</linearGradient>
<linearGradient id="linear1" gradientUnits="userSpaceOnUse" x1="0" y1="0" x2="0" y2="1" gradientTransform="matrix(47.664062,0,0,35.71875,8.167969,5.601562)">
<stop offset="0" style="stop-color:#ff6666;stop-opacity:1;"/>
<stop offset="1" style="stop-color:#d90000;stop-opacity:1;"/>
</linearGradient>
</defs>
<g id="surface1">
<path style=" stroke:none;fill-rule:evenodd;fill:url(#linear0);" d="M -0.125 50 L 63.875 50 L 63.875 58 L -0.125 58 Z M -0.125 50 "/>
<path style=" stroke:none;fill-rule:evenodd;fill:url(#linear1);" d="M 14.292969 11.414062 L 14.292969 21.519531 L 24.09375 21.519531 C 25.929688 21.519531 27.273438 21.042969 28.121094 20.09375 C 28.96875 19.140625 29.394531 17.933594 29.394531 16.46875 C 29.394531 15.039062 28.988281 13.839844 28.171875 12.871094 C 27.355469 11.902344 25.996094 11.414062 24.09375 11.414062 Z M 14.292969 41.320312 L 8.167969 41.320312 L 8.167969 5.601562 L 23.988281 5.601562 C 28.105469 5.601562 31.089844 6.621094 32.945312 8.660156 C 34.796875 10.703125 35.722656 13.304688 35.722656 16.46875 C 35.722656 18.679688 35.09375 20.753906 33.835938 22.695312 C 32.578125 24.632812 30.757812 25.960938 28.375 26.675781 L 35.519531 41.320312 L 28.632812 41.320312 L 21.742188 27.339844 L 14.292969 27.339844 Z M 49.273438 24.101562 L 49.273438 30.546875 L 55.832031 30.546875 L 55.832031 34.835938 L 49.273438 34.835938 L 49.273438 41.320312 L 45.132812 41.320312 L 45.132812 34.835938 L 38.613281 34.835938 L 38.613281 30.546875 L 45.132812 30.546875 L 45.132812 24.101562 Z M 49.273438 5.601562 L 49.273438 12.046875 L 55.832031 12.046875 L 55.832031 16.335938 L 49.273438 16.335938 L 49.273438 22.820312 L 45.132812 22.820312 L 45.132812 16.335938 L 38.613281 16.335938 L 38.613281 12.046875 L 45.132812 12.046875 L 45.132812 5.601562 Z M 49.273438 5.601562 "/>
</g>
</svg>
