<svg xmlns="http://www.w3.org/2000/svg" xmlns:xlink="http://www.w3.org/1999/xlink" width="64" height="64" viewBox="0 0 64 64" version="1.1">
<defs>
<linearGradient id="linear0" gradientUnits="userSpaceOnUse" x1="0" y1="0" x2="0" y2="1" gradientTransform="matrix(64,0,0,63.984375,0,0.0078125)">
<stop offset="0" style="stop-color:#ff6666;stop-opacity:1;"/>
<stop offset="1" style="stop-color:#d90000;stop-opacity:1;"/>
</linearGradient>
</defs>
<g id="surface1">
<path style=" stroke:none;fill-rule:nonzero;fill:url(#linear0);" d="M 2.015625 0.0078125 C 0.839844 0.230469 -0.0078125 1.273438 0.015625 2.46875 L 0.015625 4.929688 C 0.00390625 5.816406 0.46875 6.640625 1.234375 7.09375 C 2.003906 7.535156 2.945312 7.535156 3.714844 7.09375 C 4.484375 6.640625 4.949219 5.8125 4.9375 4.929688 C 5.824219 4.941406 6.648438 4.476562 7.101562 3.707031 C 7.539062 2.941406 7.539062 1.996094 7.101562 1.226562 C 6.648438 0.460938 5.820312 0 4.9375 0.0078125 L 2.011719 0.0078125 Z M 14.703125 0.0078125 L 12.78125 1.007812 L 12.394531 3.160156 L 13.855469 4.777344 L 14.703125 4.929688 L 19.855469 4.929688 L 21.855469 3.933594 L 22.238281 1.777344 L 20.699219 0.164062 L 19.855469 0.0078125 Z M 29.542969 0.0078125 L 27.542969 1.007812 L 27.160156 3.160156 L 28.699219 4.777344 L 29.542969 4.929688 L 34.699219 4.929688 L 36.621094 3.933594 L 37.003906 1.777344 L 35.542969 0.164062 L 34.699219 0.0078125 Z M 44.386719 0.0078125 L 42.386719 1.007812 L 42.003906 3.160156 L 43.539062 4.777344 L 44.386719 4.929688 L 49.464844 4.929688 L 51.464844 3.933594 L 51.847656 1.777344 L 50.3125 0.164062 L 49.460938 0.0078125 Z M 58.617188 0.0078125 C 57.261719 0.132812 56.261719 1.34375 56.382812 2.699219 C 56.507812 4.050781 57.71875 5.054688 59.074219 4.929688 C 59.066406 5.816406 59.527344 6.640625 60.296875 7.09375 C 61.066406 7.535156 62.007812 7.535156 62.777344 7.09375 C 63.542969 6.640625 64.007812 5.8125 64 4.929688 L 64 2.46875 C 64 1.117188 62.890625 0.0078125 61.535156 0.0078125 Z M 52.925781 10.085938 L 37.695312 12.078125 C 36.957031 12.078125 36.898438 12.59375 37.390625 13.085938 L 42.539062 18.230469 L 26.234375 34.460938 L 4.9375 34.460938 L 4.9375 29.308594 L 3.9375 27.382812 L 1.785156 27 L 0.167969 28.464844 L 0.015625 29.308594 L 0.015625 34.460938 L 0.476562 35.460938 C 0.171875 35.886719 0.0117188 36.398438 0.015625 36.921875 L 0.015625 58.613281 C -0.00390625 58.765625 -0.00390625 58.914062 0.015625 59.070312 L 0.015625 61.53125 C 0.0234375 61.789062 0.0703125 62.046875 0.167969 62.300781 C 0.203125 62.4375 0.257812 62.5625 0.320312 62.683594 C 0.40625 62.847656 0.511719 63.003906 0.628906 63.144531 C 0.667969 63.183594 0.667969 63.261719 0.703125 63.300781 C 0.851562 63.414062 1.003906 63.523438 1.167969 63.609375 C 1.195312 63.628906 1.214844 63.664062 1.242188 63.683594 L 1.320312 63.761719 C 1.371094 63.792969 1.421875 63.820312 1.476562 63.839844 L 1.550781 63.839844 C 1.570312 63.847656 1.609375 63.828125 1.628906 63.839844 C 1.851562 63.925781 2.085938 63.976562 2.320312 63.992188 L 27.085938 63.992188 C 27.5625 63.992188 27.960938 63.875 28.316406 63.683594 L 28.472656 63.839844 L 29.316406 63.992188 L 34.46875 63.992188 L 36.46875 62.992188 L 36.851562 60.839844 L 35.3125 59.222656 L 34.46875 59.070312 L 29.542969 59.070312 L 29.542969 37.769531 L 45.773438 21.464844 L 50.925781 26.617188 C 51.414062 27.109375 51.925781 26.800781 51.925781 26.308594 L 53.925781 11.085938 C 53.925781 10.34375 53.410156 9.832031 52.925781 10.085938 Z M 1.785156 12.15625 L 0.167969 13.695312 L 0.015625 14.542969 L 0.015625 19.621094 L 1.011719 21.621094 L 3.167969 22.003906 L 4.785156 20.46875 L 4.9375 19.617188 L 4.9375 14.542969 L 3.9375 12.542969 Z M 60.84375 12.386719 L 59.226562 13.851562 L 59.074219 14.695312 L 59.074219 19.847656 L 60.074219 21.847656 L 62.226562 22.230469 L 63.84375 20.695312 L 64 19.847656 L 64 14.699219 L 63 12.777344 Z M 60.84375 27.15625 L 59.226562 28.691406 L 59.074219 29.539062 L 59.074219 34.691406 L 60.074219 36.617188 L 62.226562 37 L 63.84375 35.535156 L 64 34.691406 L 64 29.539062 L 63 27.539062 Z M 60.84375 41.996094 L 59.226562 43.535156 L 59.074219 44.378906 L 59.074219 49.457031 L 60.074219 51.457031 L 62.226562 51.84375 L 63.84375 50.304688 L 64 49.457031 L 64 44.378906 L 63 42.378906 Z M 61.308594 56.53125 C 61.199219 56.550781 61.097656 56.585938 61 56.609375 C 59.851562 56.867188 59.050781 57.894531 59.074219 59.070312 C 58.1875 59.058594 57.363281 59.523438 56.910156 60.292969 C 56.472656 61.058594 56.472656 62.003906 56.910156 62.773438 C 57.367188 63.539062 58.191406 64 59.074219 63.992188 L 61.535156 63.992188 C 62.890625 63.992188 64 62.882812 64 61.53125 L 64 59.070312 C 64.023438 58.363281 63.742188 57.675781 63.226562 57.191406 C 62.710938 56.707031 62.011719 56.464844 61.308594 56.53125 Z M 44.160156 59.070312 L 42.15625 60.066406 L 41.773438 62.222656 L 43.3125 63.839844 L 44.15625 63.992188 L 49.308594 63.992188 L 51.230469 62.992188 L 51.617188 60.839844 L 50.15625 59.222656 L 49.308594 59.070312 Z M 44.160156 59.070312 "/>
</g>
</svg>
