<svg xmlns="http://www.w3.org/2000/svg" xmlns:xlink="http://www.w3.org/1999/xlink" width="64" height="64" viewBox="0 0 64 64" version="1.1">
<defs>
<linearGradient id="linear0" gradientUnits="userSpaceOnUse" x1="0" y1="0" x2="0" y2="1" gradientTransform="matrix(52.355469,0,0,64,5.820312,0)">
<stop offset="0" style="stop-color:#ff6666;stop-opacity:1;"/>
<stop offset="1" style="stop-color:#d90000;stop-opacity:1;"/>
</linearGradient>
</defs>
<g id="surface1">
<path style=" stroke:none;fill-rule:nonzero;fill:url(#linear0);" d="M 18.589844 0.0195312 C 16.035156 0.0898438 13.515625 0.363281 11.195312 1.03125 C 5.753906 2.855469 5.820312 5.667969 5.820312 9.921875 L 5.820312 55.847656 C 5.820312 59.996094 5.824219 61.992188 8.894531 63.070312 C 9.828125 63.390625 10.96875 63.640625 12.316406 63.824219 C 14.515625 64.125 17.574219 64.019531 19.589844 63.613281 C 20.363281 63.457031 21.117188 63.238281 21.734375 62.988281 C 23.59375 62.359375 23.578125 61.222656 23.507812 59.738281 C 23.378906 56.679688 23.027344 53.066406 25.964844 50.664062 C 27.316406 49.554688 28.980469 49.503906 30.570312 50.242188 C 31.929688 50.878906 33.449219 52.375 34.148438 53.78125 C 34.820312 55.113281 34.980469 56.011719 35.34375 58.5 C 35.886719 62.261719 36.851562 63 40.871094 63.703125 C 41.851562 63.875 45.121094 63.972656 47.019531 63.996094 C 49.464844 64.023438 52.035156 63.933594 53.128906 63.703125 C 55.03125 63.324219 56.429688 62.652344 57.070312 61.820312 C 57.664062 61.046875 58.128906 60.171875 58.171875 59.164062 C 58.257812 57.449219 57.390625 55.359375 55.859375 52.8125 C 54.480469 50.515625 53.371094 50.019531 51.164062 47.519531 C 48.476562 44.472656 47.183594 42.5 46.6875 40.769531 C 46.0625 38.589844 48.023438 36.347656 51.3125 33.414062 C 54.378906 30.679688 56.851562 28.355469 57.773438 25.707031 C 58.066406 24.851562 58.1875 23.667969 58.167969 22.320312 C 58.125 19.53125 57.441406 16.042969 56.289062 13.351562 C 54.191406 8.449219 50.195312 5.644531 41.152344 2.707031 C 38.882812 1.972656 37.207031 1.546875 35 1.160156 C 32.433594 0.707031 28.363281 0.363281 24.523438 0.171875 C 23.40625 0.101562 22.28125 0.046875 21.144531 0.0195312 C 20.292969 -0.0078125 19.4375 -0.0078125 18.589844 0.0195312 Z M 28.945312 17.460938 C 31.605469 17.496094 33.9375 19.511719 34.699219 22.511719 C 34.976562 23.601562 34.980469 25.9375 34.703125 27.253906 C 33.992188 30.6875 31.53125 32.414062 28.074219 31.898438 C 26.886719 31.722656 26.078125 31.292969 25.265625 30.394531 C 23.992188 29.003906 23.28125 26.832031 23.273438 24.367188 C 23.269531 20.363281 25.210938 17.746094 28.402344 17.476562 C 28.585938 17.449219 28.769531 17.449219 28.945312 17.449219 Z M 28.945312 17.460938 "/>
</g>
</svg>
