<svg xmlns="http://www.w3.org/2000/svg" xmlns:xlink="http://www.w3.org/1999/xlink" width="64" height="64" viewBox="0 0 64 64" version="1.1">
<defs>
<linearGradient id="linear0" gradientUnits="userSpaceOnUse" x1="0" y1="0" x2="0" y2="1" gradientTransform="matrix(64,0,0,8,-0.125,50)">
<stop offset="0" style="stop-color:#ff6666;stop-opacity:1;"/>
<stop offset="1" style="stop-color:#d90000;stop-opacity:1;"/>
</linearGradient>
<linearGradient id="linear1" gradientUnits="userSpaceOnUse" x1="0" y1="0" x2="0" y2="1" gradientTransform="matrix(63.179688,0,0,35.71875,0.410156,5.601562)">
<stop offset="0" style="stop-color:#ff6666;stop-opacity:1;"/>
<stop offset="1" style="stop-color:#d90000;stop-opacity:1;"/>
</linearGradient>
</defs>
<g id="surface1">
<path style=" stroke:none;fill-rule:evenodd;fill:url(#linear0);" d="M -0.125 50 L 63.875 50 L 63.875 58 L -0.125 58 Z M -0.125 50 "/>
<path style=" stroke:none;fill-rule:evenodd;fill:url(#linear1);" d="M 6.535156 41.320312 L 0.410156 41.320312 L 0.410156 5.601562 L 16.230469 5.601562 C 20.347656 5.601562 23.335938 6.621094 25.1875 8.660156 C 27.042969 10.703125 27.96875 13.304688 27.96875 16.46875 C 27.96875 18.679688 27.339844 20.753906 26.078125 22.695312 C 24.820312 24.632812 23 25.960938 20.621094 26.675781 L 27.765625 41.320312 L 20.875 41.320312 L 13.988281 27.339844 L 6.535156 27.339844 Z M 6.535156 11.414062 L 6.535156 21.519531 L 16.335938 21.519531 C 18.171875 21.519531 19.511719 21.042969 20.363281 20.09375 C 21.214844 19.140625 21.640625 17.933594 21.640625 16.46875 C 21.640625 15.039062 21.230469 13.839844 20.414062 12.871094 C 19.601562 11.902344 18.238281 11.414062 16.335938 11.414062 Z M 35.367188 41.320312 L 35.367188 5.601562 L 46.390625 5.601562 C 48.804688 5.601562 51 5.941406 52.972656 6.621094 C 54.945312 7.300781 56.578125 8.203125 57.871094 9.324219 C 59.164062 10.445312 60.246094 11.78125 61.113281 13.332031 C 61.980469 14.878906 62.609375 16.496094 63 18.179688 C 63.390625 19.863281 63.589844 21.621094 63.589844 23.460938 C 63.589844 25.160156 63.410156 26.828125 63.050781 28.460938 C 62.695312 30.09375 62.082031 31.703125 61.210938 33.285156 C 60.34375 34.867188 59.265625 36.242188 57.972656 37.414062 C 56.679688 38.589844 55.023438 39.535156 53 40.246094 C 50.976562 40.960938 48.703125 41.320312 46.183594 41.320312 Z M 41.492188 35.550781 L 47.050781 35.550781 C 48.855469 35.550781 50.445312 35.195312 51.824219 34.484375 C 53.203125 33.769531 54.273438 32.808594 55.039062 31.601562 C 55.804688 30.390625 56.367188 29.109375 56.722656 27.746094 C 57.082031 26.386719 57.261719 24.957031 57.261719 23.460938 C 57.261719 20.125 56.441406 17.277344 54.808594 14.910156 C 53.175781 12.550781 50.777344 11.367188 47.617188 11.367188 L 41.492188 11.367188 Z M 41.492188 35.550781 "/>
</g>
</svg>
