<svg xmlns="http://www.w3.org/2000/svg" xmlns:xlink="http://www.w3.org/1999/xlink" width="64" height="64" viewBox="0 0 64 64" version="1.1">
<defs> <linearGradient id="linear0" gradientUnits="userSpaceOnUse" x1="0" y1="0" x2="0" y2="1" gradientTransform="matrix(55.992188,0,0,56,4.003906,4)"> <stop offset="0" style="stop-color:#ff6666;stop-opacity:1;"/> <stop offset="1" style="stop-color:#d90000;stop-opacity:1;"/> </linearGradient> </defs>
<g id="surface1">
<path style=" stroke:none;fill-rule:nonzero;fill:url(#linear0);fill-opacity:1;" d="M 20.738281 3.332031 C 16.886719 3.332031 13.769531 6.4375 13.769531 10.269531 C 13.769531 14.097656 16.886719 17.203125 20.738281 17.203125 C 24.589844 17.203125 27.707031 14.097656 27.707031 10.269531 C 27.707031 6.4375 24.589844 3.332031 20.738281 3.332031 Z M 28.445312 3.332031 C 30.128906 5.179688 31.1875 7.601562 31.1875 10.269531 C 31.1875 15.976562 26.46875 20.675781 20.738281 20.675781 C 18.0625 20.675781 15.625 19.617188 13.769531 17.945312 L 13.769531 51.898438 C 13.769531 55.765625 16.851562 58.832031 20.738281 58.832031 C 24.621094 58.832031 27.707031 55.765625 27.707031 51.898438 C 27.707031 51.898438 28.226562 44.921875 27.707031 41.488281 C 27.496094 40.101562 27.46875 38.953125 26.445312 37.472656 C 26.445312 37.472656 26.429688 37.445312 26.417969 37.433594 C 25.410156 35.429688 24.226562 33.796875 24.21875 31.085938 L 24.21875 31.082031 C 24.21875 25.375 28.945312 20.675781 34.675781 20.675781 L 34.679688 20.675781 C 38.035156 20.675781 41.1875 22.292969 43.148438 25.003906 L 43.214844 25.105469 L 50.21875 35.566406 C 53.515625 32.144531 55.574219 27.519531 55.574219 22.40625 C 55.574219 11.871094 46.867188 3.332031 36.410156 3.332031 Z M 34.675781 24.144531 C 30.824219 24.144531 27.707031 27.253906 27.707031 31.082031 C 27.707031 32.722656 28.46875 34.1875 29.351562 35.554688 L 42.75 55.660156 C 44.050781 57.632812 46.238281 58.839844 48.605469 58.839844 C 52.453125 58.839844 55.574219 55.726562 55.574219 51.898438 C 55.574219 50.46875 55.125 49.078125 54.296875 47.90625 L 40.320312 27.03125 C 39.011719 25.222656 36.910156 24.148438 34.675781 24.148438 Z M 34.675781 24.144531 "/>
</g>
</svg>
