<svg xmlns="http://www.w3.org/2000/svg" xmlns:xlink="http://www.w3.org/1999/xlink" width="64" height="64" viewBox="0 0 64 64" version="1.1">
<defs>
<linearGradient id="linear0" gradientUnits="userSpaceOnUse" x1="0" y1="0" x2="0" y2="1" gradientTransform="matrix(56,0,0,51.695312,4,6.152344)">
<stop offset="0" style="stop-color:#ff6666;stop-opacity:1;"/>
<stop offset="1" style="stop-color:#d90000;stop-opacity:1;"/>
</linearGradient>
</defs>
<g id="surface1">
<path style=" stroke:none;fill-rule:nonzero;fill:url(#linear0);" d="M 32.339844 18.472656 C 31.617188 18.484375 30.925781 18.6875 30.414062 19.046875 L 7.082031 35.503906 C 5.992188 36.273438 5.992188 37.519531 7.082031 38.285156 L 30.414062 54.753906 C 31.503906 55.523438 33.265625 55.523438 34.359375 54.753906 L 57.691406 38.285156 C 58.777344 37.519531 58.777344 36.273438 57.691406 35.503906 L 34.359375 19.046875 C 33.824219 18.671875 33.09375 18.464844 32.339844 18.472656 Z M 32.386719 25.175781 L 49.011719 36.902344 L 32.386719 48.628906 L 15.757812 36.902344 Z M 32.386719 25.175781 "/>
<path style=" stroke:none;fill-rule:nonzero;fill:#ff6666;fill-opacity:1;" d="M 32.339844 12.347656 C 31.617188 12.351562 30.925781 12.558594 30.414062 12.917969 L 7.082031 29.378906 C 5.992188 30.144531 5.992188 31.390625 7.082031 32.160156 L 30.414062 48.628906 C 31.503906 49.390625 33.265625 49.390625 34.359375 48.628906 L 57.691406 32.160156 C 58.777344 31.390625 58.777344 30.144531 57.691406 29.378906 L 34.359375 12.917969 C 33.824219 12.546875 33.09375 12.335938 32.339844 12.347656 Z M 32.386719 19.046875 L 49.011719 30.773438 L 32.386719 42.5 L 15.757812 30.773438 Z M 32.386719 19.046875 "/>
<path style=" stroke:none;fill-rule:nonzero;fill:#d90000;fill-opacity:1;" d="M 32.339844 6.347656 C 31.617188 6.359375 30.925781 6.5625 30.414062 6.925781 L 7.082031 23.378906 C 5.992188 24.152344 5.992188 25.394531 7.082031 26.167969 L 30.414062 42.628906 C 31.503906 43.398438 33.265625 43.398438 34.359375 42.628906 L 57.691406 26.167969 C 58.777344 25.394531 58.777344 24.152344 57.691406 23.378906 L 34.359375 6.925781 C 33.824219 6.546875 33.09375 6.339844 32.339844 6.347656 Z M 32.386719 13.050781 L 49.011719 24.777344 L 32.386719 36.503906 L 15.757812 24.777344 Z M 32.386719 13.050781 "/>
</g>
</svg>
