<svg xmlns="http://www.w3.org/2000/svg" xmlns:xlink="http://www.w3.org/1999/xlink" width="64" height="64" viewBox="0 0 64 64" version="1.1">
<defs> <linearGradient id="linear0" gradientUnits="userSpaceOnUse" x1="0" y1="0" x2="0" y2="1" gradientTransform="matrix(55.992188,0,0,56,4.003906,4)"> <stop offset="0" style="stop-color:#ff6666;stop-opacity:1;"/> <stop offset="1" style="stop-color:#d90000;stop-opacity:1;"/> </linearGradient> </defs>
<g id="surface1">
<path style=" stroke:none;fill-rule:nonzero;fill:url(#linear0);fill-opacity:1;" d="M 33.601562 3.015625 C 29.746094 3.015625 26.058594 3.761719 22.6875 5.105469 C 24.46875 4.714844 26.320312 4.511719 28.21875 4.511719 C 39.109375 4.511719 48.433594 11.300781 52.320312 20.929688 C 52.863281 21.152344 53.410156 21.371094 53.960938 21.5625 C 54.375 21.710938 54.792969 21.851562 55.210938 21.988281 C 54.792969 21.851562 54.375 21.710938 53.960938 21.5625 C 53.128906 21.269531 52.300781 20.953125 51.472656 20.609375 C 47.871094 19.074219 45.277344 18.25 41.160156 17.464844 C 40.757812 19.144531 40.464844 20.539062 39.332031 21.835938 C 39.851562 20.207031 40.074219 19.226562 40.097656 17.527344 C 39.984375 16.128906 40.085938 15.320312 39.40625 14.1875 C 37.730469 14.601562 36.339844 15.105469 34.804688 15.421875 C 33.125 15.765625 32.167969 15.8125 30.234375 16.390625 C 27.324219 17.292969 25.871094 17.949219 23.195312 19.578125 L 22.632812 19.90625 C 22.425781 19.855469 22.902344 18.890625 23.316406 18.214844 C 20.851562 18.933594 18.671875 22.371094 18.660156 21.824219 C 18.789062 21.203125 18.964844 20.589844 18.988281 19.953125 C 17.898438 21.410156 17.109375 22.515625 16.375 24.171875 C 15.804688 25.703125 15.570312 27.132812 14.632812 28.078125 C 13.566406 29.214844 12.328125 30.386719 11.453125 31.96875 C 11.339844 32.457031 11.101562 32.925781 11.601562 33.09375 L 13.34375 33.09375 C 13.832031 33.09375 14.332031 33.03125 14.296875 33.328125 C 14.28125 33.484375 14.234375 33.566406 13.597656 33.566406 C 12.167969 33.53125 11.820312 33.535156 11.695312 34.921875 C 11.84375 36.25 12.070312 37.539062 13.035156 38.484375 C 13.285156 38.707031 14.085938 38.941406 14.429688 38.910156 C 15.3125 40.507812 15.933594 41.300781 17.625 41.972656 C 17.15625 40.652344 16.1875 39.128906 18.410156 37.386719 C 19.078125 38.773438 19.527344 39.382812 21.21875 39.960938 L 20.824219 39.023438 C 19.925781 37.003906 18.816406 35.804688 20.679688 34.128906 C 23.53125 32.015625 25.273438 32.917969 26.75 34.640625 C 28.472656 36.320312 29.496094 37.691406 27.8125 38.910156 C 26.785156 39.773438 25.804688 40.164062 24.515625 40.78125 C 23.339844 40.074219 22.71875 39.402344 21.78125 38.15625 C 21.738281 38.972656 21.777344 39.421875 22.042969 40.238281 L 22.363281 41.417969 C 21.039062 41.144531 19.679688 40.515625 18.234375 39.359375 C 18.847656 42.476562 18.976562 44.46875 21.363281 46.652344 C 22.71875 47.25 24.535156 46.238281 26.222656 44.726562 C 36.742188 38.765625 36.84375 43.867188 40.394531 52.085938 L 41.015625 53.964844 C 37.234375 56.136719 32.867188 57.378906 28.210938 57.378906 C 22.175781 57.378906 16.613281 55.292969 12.195312 51.796875 C 13.578125 53.382812 15.125 54.804688 16.808594 56.0625 C 21.5625 59.382812 27.355469 61.332031 33.601562 61.332031 C 36.871094 61.332031 40.011719 60.789062 42.949219 59.804688 L 42.953125 59.816406 C 50.109375 57.414062 56.027344 52.328125 59.507812 45.761719 C 55.949219 43.816406 52.144531 42.359375 47.242188 40.855469 C 52.714844 41.132812 56.726562 41.957031 60.65625 43.347656 C 60.9375 42.664062 61.199219 41.96875 61.433594 41.253906 C 56.269531 38.484375 51.386719 37.019531 44.417969 35.695312 C 51.796875 35.253906 56.628906 36.097656 62.3125 37.898438 C 62.484375 37.046875 62.621094 36.1875 62.710938 35.316406 L 62.011719 34.898438 C 54.9375 31.992188 49.34375 31.128906 40.796875 30.964844 C 49.5 28.933594 54.851562 29.390625 62.671875 30.730469 L 62.847656 30.753906 C 62.726562 28.289062 62.300781 25.902344 61.605469 23.632812 C 61.605469 23.632812 61.605469 23.632812 61.597656 23.632812 C 57.933594 11.695312 46.789062 3.015625 33.601562 3.015625 M 20.726562 24.84375 L 19.453125 26.699219 L 17.300781 27.070312 C 17.675781 26.015625 18.773438 25.144531 20.726562 24.84375 Z M 20.726562 24.84375 "/>
</g>
</svg>
