<svg xmlns="http://www.w3.org/2000/svg" xmlns:xlink="http://www.w3.org/1999/xlink" width="64" height="64" viewBox="0 0 64 64" version="1.1">
<defs>
<linearGradient id="linear0" gradientUnits="userSpaceOnUse" x1="0" y1="0" x2="0" y2="1" gradientTransform="matrix(64,0,0,58.664063,0,2.667969)">
<stop offset="0" style="stop-color:#ff6666;stop-opacity:1;"/>
<stop offset="1" style="stop-color:#d90000;stop-opacity:1;"/>
</linearGradient>
</defs>
<g id="surface1">
<path style=" stroke:none;fill-rule:evenodd;fill:url(#linear0);" d="M 21.277344 9.238281 C 22.492188 9.011719 23.734375 8.804688 25.015625 8.632812 C 28.101562 8.214844 31.625 8.003906 35.113281 8 C 35.40625 8 35.703125 8 35.996094 8.003906 C 39.773438 7.96875 43.640625 8.179688 46.984375 8.632812 C 51.648438 9.265625 55.847656 10.359375 59.296875 11.84375 C 61.246094 12.679688 63.734375 14.078125 63.859375 14.40625 C 63.898438 14.515625 63.964844 15.445312 64 16.472656 C 62.183594 31.253906 57.949219 43.492188 48.863281 52.789062 C 47.121094 54.5625 46.484375 55.125 46.429688 54.941406 C 46.40625 54.871094 46.363281 54.515625 46.332031 54.148438 C 45.890625 48.730469 36.996094 41.425781 26.886719 38.175781 C 25.296875 37.664062 23.382812 37.207031 21.371094 36.855469 C 18.109375 36.289062 16.3125 35.789062 14.777344 35.03125 C 13.714844 34.503906 13.179688 34.132812 12.476562 33.4375 C 11.3125 32.28125 10.851562 31.316406 10.144531 28.53125 C 9.761719 27.027344 9.371094 25.195312 9.160156 23.960938 C 15.976562 23.363281 21.332031 17.636719 21.332031 10.667969 C 21.332031 10.1875 21.308594 9.710938 21.277344 9.238281 Z M 18.132812 40.300781 C 17.515625 40.296875 17.035156 40.332031 16.773438 40.40625 C 16.539062 40.476562 16.207031 40.675781 16.03125 40.851562 C 15.535156 41.34375 15.617188 41.78125 16.4375 43.148438 C 17.941406 45.652344 19.785156 48.269531 21.5625 50.40625 C 22.660156 51.726562 25.925781 54.949219 27.117188 55.878906 C 29.753906 57.953125 31.578125 59.070312 34.953125 60.699219 C 35.671875 61.046875 36.292969 61.332031 36.320312 61.332031 C 36.472656 61.332031 40.261719 59.386719 41.214844 58.820312 C 42.886719 57.824219 44.171875 56.949219 44.503906 56.570312 C 44.667969 56.382812 44.910156 55.996094 45.042969 55.710938 C 45.507812 54.695312 45.3125 53.335938 44.496094 51.960938 C 41.683594 47.210938 32.695312 42.464844 23.457031 40.847656 C 21.527344 40.511719 19.492188 40.3125 18.132812 40.300781 Z M 0 10.667969 C 0 6.253906 3.585938 2.667969 8 2.667969 C 12.414062 2.667969 16 6.253906 16 10.667969 C 16 15.085938 12.414062 18.667969 8 18.667969 C 3.585938 18.667969 0 15.085938 0 10.667969 Z M 0 10.667969 "/>
</g>
</svg>
