<svg xmlns="http://www.w3.org/2000/svg" xmlns:xlink="http://www.w3.org/1999/xlink" width="64" height="64" viewBox="0 0 64 64" version="1.1">
<defs>
<linearGradient id="linear0" gradientUnits="userSpaceOnUse" x1="0" y1="0" x2="0" y2="1" gradientTransform="matrix(64,0,0,59.734375,0,1.550781)">
<stop offset="0" style="stop-color:#ff6666;stop-opacity:1;"/>
<stop offset="1" style="stop-color:#d90000;stop-opacity:1;"/>
</linearGradient>
</defs>
<g id="surface1">
<path style=" stroke:none;fill-rule:evenodd;fill:url(#linear0);" d="M 32 14.351562 C 23.933594 14.351562 16.695312 16.578125 11.734375 19.882812 C 6.78125 23.1875 4.269531 27.253906 4.269531 31.410156 C 4.277344 34.421875 5.605469 37.492188 8.589844 40.386719 C 9.53125 41.304688 10 42.605469 9.859375 43.90625 C 9.394531 48.179688 8.707031 52.171875 7.574219 55.734375 C 11.898438 54.378906 15.777344 52.019531 18.792969 48.757812 C 19.824219 47.636719 21.371094 47.152344 22.859375 47.484375 C 25.792969 48.140625 28.886719 48.480469 32.007812 48.484375 C 40.070312 48.484375 47.308594 46.257812 52.265625 42.953125 C 57.21875 39.648438 59.730469 35.578125 59.730469 31.421875 C 59.730469 27.257812 57.21875 23.1875 52.265625 19.882812 C 47.304688 16.578125 40.066406 14.351562 32 14.351562 Z M 21.941406 51.671875 C 16.488281 57.585938 8.675781 61.285156 0 61.285156 C 2.984375 57.804688 4.808594 51.179688 5.636719 43.5 C 2.078125 40.066406 0 35.902344 0 31.421875 C 0 27.058594 1.964844 23.003906 5.339844 19.628906 C 4.355469 11.824219 2.515625 5.074219 0 1.550781 C 8.675781 1.550781 16.488281 5.253906 21.941406 11.164062 C 25.105469 10.464844 28.488281 10.085938 32 10.085938 C 49.660156 10.085938 64 19.644531 64 31.421875 C 64 43.191406 49.660156 52.753906 32 52.753906 C 28.488281 52.753906 25.105469 52.371094 21.941406 51.671875 Z M 19.199219 27.152344 C 16.84375 27.152344 14.933594 29.058594 14.933594 31.421875 C 14.933594 33.777344 16.84375 35.683594 19.199219 35.683594 C 21.554688 35.683594 23.46875 33.777344 23.46875 31.421875 C 23.46875 29.058594 21.554688 27.152344 19.199219 27.152344 Z M 32 27.152344 C 29.644531 27.152344 27.730469 29.058594 27.730469 31.421875 C 27.730469 33.777344 29.644531 35.683594 32 35.683594 C 34.355469 35.683594 36.269531 33.777344 36.269531 31.421875 C 36.269531 29.058594 34.355469 27.152344 32 27.152344 Z M 44.800781 27.152344 C 42.445312 27.152344 40.53125 29.058594 40.53125 31.421875 C 40.53125 33.777344 42.445312 35.683594 44.800781 35.683594 C 47.15625 35.683594 49.066406 33.777344 49.066406 31.421875 C 49.066406 29.058594 47.15625 27.152344 44.800781 27.152344 Z M 44.800781 27.152344 "/>
</g>
</svg>
