<svg xmlns="http://www.w3.org/2000/svg" xmlns:xlink="http://www.w3.org/1999/xlink" width="64" height="64" viewBox="0 0 64 64" version="1.1">
<defs>
<linearGradient id="linear0" gradientUnits="userSpaceOnUse" x1="0" y1="0" x2="0" y2="1" gradientTransform="matrix(64,0,0,56,0,4)">
<stop offset="0" style="stop-color:#ff6666;stop-opacity:1;"/>
<stop offset="1" style="stop-color:#d90000;stop-opacity:1;"/>
</linearGradient>
</defs>
<g id="surface1">
<path style=" stroke:none;fill-rule:evenodd;fill:url(#linear0);" d="M 16 8 L 48 8 C 53.035156 8.058594 56.347656 8.238281 57.8125 9.046875 C 58.546875 9.453125 58.96875 9.898438 59.359375 10.9375 C 59.746094 11.976562 60 13.632812 60 16 L 60 48 C 60 50.367188 59.746094 52.023438 59.359375 53.0625 C 58.96875 54.105469 58.546875 54.546875 57.8125 54.953125 C 56.347656 55.761719 53.035156 55.941406 48 56 L 16 56 C 10.964844 55.941406 7.644531 55.761719 6.179688 54.953125 C 5.449219 54.546875 5.03125 54.105469 4.640625 53.0625 C 4.253906 52.023438 4 50.367188 4 48 L 4 16 C 4 13.632812 4.253906 11.976562 4.640625 10.9375 C 5.03125 9.898438 5.449219 9.453125 6.179688 9.046875 C 7.644531 8.238281 10.964844 8.058594 16 8 Z M 15.976562 4 C 10.945312 4.058594 7.261719 3.875 4.253906 5.539062 C 2.742188 6.367188 1.554688 7.777344 0.898438 9.53125 C 0.238281 11.289062 0 13.367188 0 16 L 0 48 C 0 50.632812 0.238281 52.714844 0.898438 54.46875 C 1.554688 56.222656 2.742188 57.632812 4.253906 58.460938 C 7.261719 60.125 10.945312 59.945312 15.976562 60 L 48.023438 60 C 53.054688 59.945312 56.738281 60.125 59.753906 58.460938 C 61.257812 57.632812 62.445312 56.222656 63.105469 54.46875 C 63.761719 52.714844 64 50.632812 64 48 L 64 16 C 64 13.367188 63.761719 11.289062 63.101562 9.53125 C 62.445312 7.777344 61.257812 6.367188 59.753906 5.539062 C 56.738281 3.875 53.054688 4.058594 48.023438 4 Z M 18.898438 23.703125 L 18.257812 27.921875 L 21.824219 27.921875 L 22.445312 23.703125 Z M 44.53125 35.875 L 29.472656 35.875 L 29.472656 33.230469 L 44.53125 33.230469 Z M 17.046875 35.875 L 14.179688 35.875 L 14.96875 30.730469 L 11.875 30.730469 L 12.296875 27.921875 L 15.386719 27.921875 L 16.007812 23.703125 L 12.972656 23.703125 L 13.390625 20.925781 L 16.457031 20.925781 L 17.160156 16.199219 L 20.023438 16.199219 L 19.324219 20.925781 L 22.863281 20.925781 L 23.625 16.199219 L 26.460938 16.199219 L 25.761719 20.925781 L 28.851562 20.925781 L 28.457031 23.703125 L 25.335938 23.703125 L 24.691406 27.921875 L 27.757812 27.921875 L 27.332031 30.730469 L 24.269531 30.730469 L 23.484375 35.875 L 20.617188 35.875 L 21.402344 30.730469 L 17.832031 30.730469 Z M 17.046875 35.875 "/>
</g>
</svg>
