<svg xmlns="http://www.w3.org/2000/svg" xmlns:xlink="http://www.w3.org/1999/xlink" width="64" height="64" viewBox="0 0 64 64" version="1.1">
<defs>
<linearGradient id="linear0" gradientUnits="userSpaceOnUse" x1="0" y1="0" x2="0" y2="1" gradientTransform="matrix(64,0,0,57.941406,0,3.03125)">
<stop offset="0" style="stop-color:#ff6666;stop-opacity:1;"/>
<stop offset="1" style="stop-color:#d90000;stop-opacity:1;"/>
</linearGradient>
</defs>
<g id="surface1">
<path style=" stroke:none;fill-rule:nonzero;fill:url(#linear0);" d="M 32.707031 60.855469 C 29.738281 60.355469 27.179688 58.417969 25.625 55.5 C 24.90625 54.15625 24.242188 51.976562 24.410156 51.535156 C 24.5 51.300781 25.289062 51.222656 28.515625 51.132812 C 34.242188 50.96875 36.730469 50.488281 40.15625 48.886719 C 45.355469 46.449219 49.300781 43.109375 51.683594 39.121094 C 52.867188 37.140625 53.472656 35.195312 53.859375 32.144531 C 54.121094 30.066406 54.359375 29.105469 55.054688 27.316406 C 56.210938 24.351562 56.613281 22.917969 56.476562 22.25 C 56.414062 21.949219 56.273438 20.773438 56.160156 19.640625 C 55.996094 17.949219 55.851562 17.382812 55.351562 16.503906 C 54.667969 15.292969 54.613281 14.917969 55.054688 14.550781 C 55.304688 14.34375 55.59375 14.390625 56.675781 14.855469 C 58.769531 15.746094 60.238281 16.816406 61.695312 18.511719 C 63.679688 20.824219 64.003906 21.621094 64 24.21875 C 63.996094 28.179688 63.621094 34.152344 63.3125 35.1875 C 62.914062 36.511719 62.09375 37.472656 60.371094 38.617188 L 58.957031 39.558594 L 59.300781 40.089844 C 59.492188 40.382812 59.988281 41.03125 60.402344 41.527344 C 61.675781 43.050781 61.890625 44.171875 61.195312 45.699219 C 60.742188 46.699219 59.222656 48.378906 58.046875 49.191406 C 56.703125 50.113281 53.84375 51.476562 50.023438 53.007812 C 44.992188 55.027344 44.726562 55.1875 41.363281 58.234375 C 39.167969 60.21875 37.800781 60.851562 35.488281 60.953125 C 34.511719 61 33.261719 60.953125 32.707031 60.855469 Z M 17.613281 48.164062 C 16.617188 47.953125 15.390625 47.628906 14.894531 47.445312 C 13.285156 46.851562 9.839844 44.785156 6.601562 42.472656 C 2.734375 39.714844 1.328125 38.511719 0.578125 37.328125 C 0.0585938 36.507812 0 36.242188 0 34.726562 C 0 33.230469 0.0820312 32.839844 0.710938 31.394531 C 1.183594 30.308594 1.5625 28.9375 1.839844 27.335938 C 2.277344 24.800781 2.992188 22.710938 4.121094 20.695312 C 5.617188 18.023438 7.304688 16.777344 9.417969 16.773438 C 10.796875 16.769531 11.382812 17.296875 11.570312 18.707031 C 11.640625 19.246094 11.96875 20.730469 12.292969 22.003906 C 13.828125 27.984375 13.824219 27.886719 12.488281 30.617188 C 11.378906 32.890625 11.152344 33.738281 11.445312 34.511719 C 11.558594 34.800781 12.34375 35.839844 13.195312 36.816406 C 14.042969 37.789062 15.546875 39.792969 16.53125 41.265625 C 18.664062 44.449219 20.421875 46.367188 22.21875 47.464844 C 22.941406 47.90625 23.539062 48.335938 23.542969 48.421875 C 23.554688 48.722656 19.410156 48.535156 17.613281 48.164062 Z M 29.6875 48.082031 C 28.117188 47.722656 26.152344 46.917969 24.929688 46.132812 C 23.496094 45.210938 22.371094 43.855469 21.140625 41.550781 C 19.425781 38.34375 18.882812 37.730469 16.921875 36.761719 C 14.574219 35.597656 14.230469 34.878906 15.261719 33.257812 C 16.839844 30.777344 19.546875 29.585938 22.53125 30.0625 C 23.246094 30.175781 25.96875 30.984375 28.574219 31.855469 C 34.117188 33.707031 35.199219 33.996094 37.261719 34.179688 C 38.433594 34.277344 39.078125 34.230469 39.980469 33.976562 C 41.933594 33.410156 43.867188 32.273438 45.285156 30.851562 C 47.273438 28.867188 48.042969 27.359375 49.21875 23.152344 C 49.398438 22.515625 49.621094 21.996094 49.71875 21.996094 C 50.402344 21.996094 50.746094 27.921875 50.234375 30.851562 C 49.339844 35.980469 46.632812 40.523438 42.234375 44.285156 C 38.585938 47.402344 33.472656 48.949219 29.6875 48.082031 Z M 38.058594 30.707031 C 37.246094 30.046875 37.605469 29.4375 40.648438 26.328125 C 44.21875 22.679688 44.535156 22.105469 44.644531 19.070312 L 44.722656 16.847656 L 43.925781 16.125 C 42.683594 15.003906 41.136719 14.5 38.621094 14.394531 C 37.03125 14.328125 36.191406 14.390625 35.363281 14.632812 C 32.738281 15.394531 30.496094 18.226562 30.882812 20.285156 C 31.066406 21.265625 32.261719 22.503906 33.707031 23.21875 C 34.835938 23.773438 35.121094 23.832031 36.007812 23.710938 C 37.796875 23.464844 39.828125 21.769531 40.261719 20.160156 C 40.9375 17.65625 38.054688 15.609375 35.328125 16.652344 C 34.351562 17.023438 33.210938 18.167969 33.210938 18.773438 C 33.210938 18.984375 33.109375 19.21875 32.988281 19.292969 C 32.707031 19.46875 32.925781 18.347656 33.351562 17.421875 C 34.597656 14.742188 40.78125 14.789062 41.671875 17.488281 C 42.320312 19.453125 41.300781 21.902344 38.496094 25.132812 C 37.527344 26.25 36.304688 27.667969 35.785156 28.28125 C 34.523438 29.769531 33.507812 30.25 31.621094 30.25 C 29.128906 30.25 25.921875 28.945312 24.800781 27.472656 C 24.355469 26.890625 24.253906 26.546875 24.253906 25.613281 C 24.253906 24.59375 24.414062 24.152344 25.71875 21.558594 C 26.925781 19.152344 27.472656 18.316406 28.871094 16.726562 C 32.28125 12.859375 34.042969 12.09375 38.296875 12.632812 C 41.984375 13.097656 44.296875 14.007812 45.917969 15.628906 C 46.898438 16.613281 47.363281 17.484375 47.800781 19.175781 C 48.167969 20.585938 48.089844 21.773438 47.515625 23.515625 C 46.742188 25.863281 43.714844 29.507812 41.75 30.457031 C 40.402344 31.109375 38.699219 31.226562 38.058594 30.707031 Z M 52.410156 25.460938 C 51.773438 25.054688 51.371094 23.570312 50.628906 18.882812 C 50.257812 16.566406 49.675781 15.152344 48.589844 13.953125 C 46.960938 12.148438 43.792969 10.332031 41.058594 9.636719 C 35.820312 8.304688 31.085938 9.851562 27.484375 14.074219 C 25.878906 15.953125 24.777344 18.050781 23.839844 21.007812 C 22.984375 23.714844 22.578125 24.210938 21.230469 24.210938 C 19.96875 24.210938 19.859375 23.914062 19.96875 20.808594 C 20.042969 18.734375 20.160156 17.984375 20.605469 16.683594 C 21.859375 13.035156 23.953125 10.519531 27.273438 8.675781 C 29.296875 7.550781 33.132812 5.449219 34.820312 4.539062 C 36.246094 3.773438 38.375 3.960938 43.074219 5.277344 C 45.121094 5.847656 47.25 6.523438 47.804688 6.78125 C 49.214844 7.429688 50.742188 8.878906 51.488281 10.285156 C 52.640625 12.441406 53.347656 16.609375 53.328125 21.132812 C 53.316406 24.402344 53.007812 25.847656 52.410156 25.460938 Z M 15.1875 24.351562 C 14.914062 23.753906 14.332031 21.460938 13.867188 19.167969 C 13.160156 15.664062 13.035156 14.652344 13.011719 12.335938 C 12.984375 9.730469 13.007812 9.566406 13.566406 8.351562 C 14.246094 6.882812 14.695312 6.476562 16.269531 5.890625 C 16.898438 5.660156 18.234375 4.972656 19.238281 4.367188 C 20.5 3.609375 21.398438 3.214844 22.136719 3.097656 C 23.113281 2.933594 25.359375 3.082031 26.574219 3.367188 C 26.847656 3.429688 27.925781 3.570312 28.96875 3.675781 C 30.242188 3.804688 30.96875 3.972656 31.183594 4.1875 C 31.472656 4.484375 31.453125 4.550781 30.957031 4.984375 C 30.28125 5.570312 28.601562 6.210938 26.367188 6.738281 C 21.242188 7.945312 19.683594 9.082031 17.710938 13.050781 C 16.542969 15.394531 16.28125 16.820312 16.160156 21.441406 C 16.097656 23.710938 15.972656 25.417969 15.867188 25.417969 C 15.761719 25.417969 15.457031 24.9375 15.1875 24.347656 Z M 35.679688 20.796875 C 34.878906 20.304688 34.683594 19.625 35.109375 18.804688 C 35.546875 17.953125 36.175781 17.628906 36.589844 18.042969 C 36.847656 18.300781 36.863281 18.453125 36.667969 18.878906 C 36.109375 20.101562 36.738281 20.667969 38.164062 20.230469 C 39.035156 19.964844 39.050781 20.261719 38.191406 20.792969 C 37.363281 21.296875 36.507812 21.300781 35.683594 20.792969 Z M 35.679688 20.796875 "/>
</g>
</svg>
