<svg xmlns="http://www.w3.org/2000/svg" xmlns:xlink="http://www.w3.org/1999/xlink" width="64" height="64" viewBox="0 0 64 64" version="1.1">
<defs>
<linearGradient id="linear0" gradientUnits="userSpaceOnUse" x1="0" y1="0" x2="0" y2="1" gradientTransform="matrix(64,0,0,46.34375,0,8.828125)">
<stop offset="0" style="stop-color:#ff6666;stop-opacity:1;"/>
<stop offset="1" style="stop-color:#d90000;stop-opacity:1;"/>
</linearGradient>
</defs>
<g id="surface1">
<path style=" stroke:none;fill-rule:evenodd;fill:url(#linear0);" d="M 8.617188 23.648438 L 8.617188 20.410156 L 0 20.410156 L 0 55.171875 L 8.617188 55.171875 L 8.617188 29.105469 L 21.539062 29.105469 L 21.539062 20.410156 C 16.992188 20.390625 12.488281 21.507812 8.617188 23.648438 Z M 34.464844 17.515625 L 34.464844 29.105469 L 42.660156 29.105469 C 46.117188 29.105469 48.824219 26.835938 48.824219 23.3125 C 48.824219 19.785156 46.117188 17.515625 42.660156 17.515625 Z M 40.078125 37.792969 L 53.171875 55.171875 L 64 55.171875 L 50.398438 37.125 C 56.148438 35.273438 60.316406 29.789062 60.316406 23.3125 C 60.316406 15.3125 53.960938 8.828125 46.125 8.828125 L 25.847656 8.828125 L 25.847656 55.171875 L 34.464844 55.171875 L 34.464844 37.792969 Z M 40.078125 37.792969 "/>
</g>
</svg>
