<svg xmlns="http://www.w3.org/2000/svg" xmlns:xlink="http://www.w3.org/1999/xlink" width="64" height="64" viewBox="0 0 64 64" version="1.1">
<defs>
<linearGradient id="linear0" gradientUnits="userSpaceOnUse" x1="0" y1="0" x2="0" y2="1" gradientTransform="matrix(64,0,0,8,-0.125,50)">
<stop offset="0" style="stop-color:#ff6666;stop-opacity:1;"/>
<stop offset="1" style="stop-color:#d90000;stop-opacity:1;"/>
</linearGradient>
<linearGradient id="linear1" gradientUnits="userSpaceOnUse" x1="0" y1="0" x2="0" y2="1" gradientTransform="matrix(64,0,0,34.464844,0,5.601562)">
<stop offset="0" style="stop-color:#ff6666;stop-opacity:1;"/>
<stop offset="1" style="stop-color:#d90000;stop-opacity:1;"/>
</linearGradient>
</defs>
<g id="surface1">
<path style=" stroke:none;fill-rule:evenodd;fill:url(#linear0);" d="M -0.125 50 L 63.875 50 L 63.875 58 L -0.125 58 Z M -0.125 50 "/>
<path style=" stroke:none;fill-rule:evenodd;fill:url(#linear1);" d="M 5.808594 39.488281 L 0 39.488281 L 0 5.601562 L 15.007812 5.601562 C 18.910156 5.601562 21.742188 6.566406 23.503906 8.503906 C 25.265625 10.441406 26.144531 12.910156 26.144531 15.910156 C 26.144531 18.011719 25.546875 19.980469 24.351562 21.816406 C 23.15625 23.65625 21.429688 24.914062 19.171875 25.59375 L 25.949219 39.488281 L 19.410156 39.488281 L 12.875 26.222656 L 5.808594 26.222656 Z M 5.808594 11.121094 L 5.808594 20.703125 L 15.105469 20.703125 C 16.847656 20.703125 18.121094 20.253906 18.929688 19.347656 C 19.734375 18.445312 20.140625 17.296875 20.140625 15.910156 C 20.140625 14.558594 19.753906 13.421875 18.976562 12.5 C 18.203125 11.578125 16.910156 11.121094 15.105469 11.121094 Z M 64 5.601562 L 64 39.488281 L 58.191406 39.488281 L 58.191406 21.480469 C 58.191406 19.996094 58.257812 18.636719 58.382812 17.410156 C 57.996094 18.574219 57.480469 19.960938 56.835938 21.574219 L 48.605469 40.066406 L 40.375 21.480469 C 39.792969 20.1875 39.261719 18.832031 38.777344 17.410156 C 38.90625 18.636719 38.972656 19.996094 38.972656 21.480469 L 38.972656 39.488281 L 33.160156 39.488281 L 33.160156 5.601562 L 39.019531 5.601562 L 47.730469 25.496094 C 48.089844 26.398438 48.394531 27.238281 48.652344 28.015625 C 48.910156 27.238281 49.21875 26.398438 49.570312 25.496094 L 58.335938 5.601562 Z M 64 5.601562 "/>
</g>
</svg>
