<svg xmlns="http://www.w3.org/2000/svg" xmlns:xlink="http://www.w3.org/1999/xlink" width="64" height="64" viewBox="0 0 64 64" version="1.1">
<defs>
<linearGradient id="linear0" gradientUnits="userSpaceOnUse" x1="0" y1="0" x2="0" y2="1" gradientTransform="matrix(60,0,0,48.449219,2,9.550781)">
<stop offset="0" style="stop-color:#ff6666;stop-opacity:1;"/>
<stop offset="1" style="stop-color:#d90000;stop-opacity:1;"/>
</linearGradient>
</defs>
<g id="surface1">
<path style=" stroke:none;fill-rule:evenodd;fill:url(#linear0);" d="M 46.09375 9.550781 L 46.601562 10.226562 L 44.132812 19.738281 L 43.195312 19.894531 L 37.207031 10.382812 L 37.640625 9.550781 Z M 26.359375 9.550781 L 26.777344 10.40625 L 19.734375 20.445312 L 18.792969 20.203125 L 17.382812 10.160156 L 17.90625 9.550781 Z M 51.429688 9.742188 L 62 23.480469 L 61.59375 24.347656 L 46.796875 24.347656 L 46.296875 23.652344 L 50.523438 9.910156 Z M 32.40625 9.742188 L 42.976562 23.480469 L 42.570312 24.347656 L 21.429688 24.347656 L 21.023438 23.480469 L 31.59375 9.742188 Z M 12.570312 9.742188 L 13.476562 9.910156 L 17.703125 23.652344 L 17.203125 24.347656 L 2.40625 24.347656 L 2 23.480469 Z M 61.59375 26.460938 L 61.980469 27.347656 L 34.5 58 L 33.628906 57.433594 L 46.3125 26.78125 L 46.796875 26.460938 Z M 42.570312 26.460938 L 43.058594 27.191406 L 32.488281 53.617188 L 31.511719 53.617188 L 20.941406 27.191406 L 21.429688 26.460938 Z M 17.203125 26.460938 L 17.6875 26.78125 L 30.371094 57.433594 L 29.5 58 L 2.019531 27.347656 L 2.40625 26.460938 Z M 17.203125 26.460938 "/>
</g>
</svg>
