<svg xmlns="http://www.w3.org/2000/svg" xmlns:xlink="http://www.w3.org/1999/xlink" width="64" height="64" viewBox="0 0 64 64" version="1.1">
<defs>
<linearGradient id="linear0" gradientUnits="userSpaceOnUse" x1="0" y1="0" x2="0" y2="1" gradientTransform="matrix(56,0,0,51.695312,4,6.152344)">
<stop offset="0" style="stop-color:#ff6666;stop-opacity:1;"/>
<stop offset="1" style="stop-color:#d90000;stop-opacity:1;"/>
</linearGradient>
</defs>
<g id="surface1">
<path style=" stroke:none;fill-rule:nonzero;fill:url(#linear0);" d="M 48.605469 14.835938 C 45.125 11.339844 40.640625 9.039062 35.789062 8.269531 L 35.792969 15.730469 C 38.695312 16.410156 41.355469 17.898438 43.464844 20.023438 C 49.710938 26.328125 49.710938 36.550781 43.464844 42.855469 C 41.351562 44.976562 38.695312 46.460938 35.792969 47.136719 L 35.789062 54.601562 C 40.640625 53.835938 45.125 51.539062 48.605469 48.042969 C 57.6875 38.875 57.6875 24.007812 48.605469 14.835938 Z M 28.523438 8.277344 C 23.671875 9.046875 19.1875 11.339844 15.707031 14.835938 C 6.625 24.007812 6.625 38.875 15.707031 48.042969 C 19.1875 51.542969 23.671875 53.839844 28.519531 54.609375 L 28.519531 47.152344 C 25.617188 46.46875 22.960938 44.980469 20.847656 42.855469 C 14.601562 36.550781 14.601562 26.328125 20.847656 20.023438 C 22.960938 17.902344 25.617188 16.417969 28.519531 15.742188 Z M 28.523438 8.277344 "/>
</g>
</svg>
