<svg xmlns="http://www.w3.org/2000/svg" xmlns:xlink="http://www.w3.org/1999/xlink" width="64" height="64" viewBox="0 0 64 64" version="1.1">
<defs>
<linearGradient id="linear0" gradientUnits="userSpaceOnUse" x1="0" y1="0" x2="0" y2="1" gradientTransform="matrix(64,0,0,64,0,0)">
<stop offset="0" style="stop-color:#ff6666;stop-opacity:1;"/>
<stop offset="1" style="stop-color:#d90000;stop-opacity:1;"/>
</linearGradient>
</defs>
<g id="surface1">
<path style=" stroke:none;fill-rule:nonzero;fill:url(#linear0);" d="M 28.445312 49.777344 C 28.445312 51.730469 30.042969 53.332031 32 53.332031 C 33.957031 53.332031 35.554688 51.730469 35.554688 49.777344 C 35.554688 47.824219 33.957031 46.222656 32 46.222656 C 30.042969 46.222656 28.445312 47.824219 28.445312 49.777344 Z M 28.445312 0 L 28.445312 14.222656 L 35.554688 14.222656 L 35.554688 7.394531 C 47.609375 9.136719 56.886719 19.449219 56.886719 32 C 56.886719 45.761719 45.761719 56.886719 32 56.886719 C 18.238281 56.886719 7.113281 45.761719 7.113281 32 C 7.113281 26.027344 9.207031 20.550781 12.726562 16.285156 L 32 35.554688 L 37.011719 30.542969 L 12.835938 6.363281 L 12.835938 6.4375 C 5.046875 12.269531 0 21.511719 0 32 C 0 49.671875 14.292969 64 32 64 C 49.671875 64 64 49.671875 64 32 C 64 14.328125 49.671875 0 32 0 Z M 53.332031 32 C 53.332031 30.042969 51.730469 28.445312 49.777344 28.445312 C 47.824219 28.445312 46.222656 30.042969 46.222656 32 C 46.222656 33.957031 47.824219 35.554688 49.777344 35.554688 C 51.730469 35.554688 53.332031 33.957031 53.332031 32 Z M 10.667969 32 C 10.667969 33.957031 12.269531 35.554688 14.222656 35.554688 C 16.175781 35.554688 17.777344 33.957031 17.777344 32 C 17.777344 30.042969 16.175781 28.445312 14.222656 28.445312 C 12.269531 28.445312 10.667969 30.042969 10.667969 32 Z M 10.667969 32 "/>
</g>
</svg>
