<svg xmlns="http://www.w3.org/2000/svg" xmlns:xlink="http://www.w3.org/1999/xlink" width="64" height="64" viewBox="0 0 64 64" version="1.1">
<defs>
<linearGradient id="linear0" gradientUnits="userSpaceOnUse" x1="0" y1="0" x2="0" y2="1" gradientTransform="matrix(64,0,0,64,0,0)">
<stop offset="0" style="stop-color:#ff6666;stop-opacity:1;"/>
<stop offset="1" style="stop-color:#d90000;stop-opacity:1;"/>
</linearGradient>
</defs>
<g id="surface1">
<path style=" stroke:none;fill-rule:nonzero;fill:url(#linear0);" d="M 21.546875 0 C 20.214844 0 19.136719 1.070312 19.136719 2.394531 C 19.136719 2.914062 19.332031 3.394531 19.617188 3.785156 L 13.585938 10.664062 C 13.347656 10.601562 13.125 10.503906 12.863281 10.503906 C 11.242188 10.503906 9.890625 11.832031 9.890625 13.441406 C 9.890625 13.507812 9.964844 13.539062 9.96875 13.601562 L 4.664062 17.082031 C 4.273438 16.8125 3.808594 16.617188 3.296875 16.617188 C 1.960938 16.617188 0.882812 17.691406 0.882812 19.015625 C 0.882812 19.820312 1.3125 20.511719 1.929688 20.945312 L 0.964844 38.878906 C 0.378906 39.195312 0 39.867188 0 40.578125 C 0 41.617188 0.882812 42.433594 1.929688 42.433594 C 1.984375 42.433594 2.035156 42.441406 2.089844 42.433594 L 15.277344 55.804688 C 15.277344 55.839844 15.277344 55.855469 15.277344 55.886719 C 15.277344 56.925781 16.082031 57.820312 17.125 57.820312 C 17.496094 57.820312 17.878906 57.691406 18.171875 57.507812 L 25.40625 61.296875 C 25.394531 61.410156 25.328125 61.492188 25.328125 61.605469 C 25.328125 62.929688 26.40625 64 27.738281 64 C 28.988281 64 29.945312 63.042969 30.070312 61.835938 L 49.367188 56.195312 C 49.804688 56.804688 50.566406 57.203125 51.375 57.203125 C 52.710938 57.203125 53.789062 56.128906 53.789062 54.804688 C 53.789062 54.246094 53.550781 53.746094 53.226562 53.335938 L 61.589844 35.019531 C 62.921875 35.019531 64 33.945312 64 32.621094 C 64 31.460938 63.175781 30.523438 62.070312 30.304688 L 59.417969 21.570312 C 59.832031 21.226562 60.140625 20.757812 60.140625 20.175781 C 60.140625 19.140625 59.257812 18.320312 58.210938 18.320312 C 58.121094 18.320312 58.054688 18.386719 57.96875 18.402344 L 45.828125 3.714844 C 45.847656 3.621094 45.910156 3.511719 45.910156 3.40625 C 45.910156 2.367188 45.027344 1.550781 43.980469 1.550781 C 43.359375 1.550781 42.878906 1.863281 42.53125 2.324219 L 23.800781 1.628906 C 23.46875 0.695312 22.601562 0.0078125 21.546875 0.0078125 Z M 23.796875 3.246094 L 42.210938 3.941406 C 42.332031 4.359375 42.582031 4.703125 42.933594 4.945312 L 42.453125 7.03125 C 41.589844 7.230469 40.90625 7.808594 40.523438 8.578125 L 19.941406 11.050781 L 21.304688 4.714844 C 21.398438 4.722656 21.453125 4.792969 21.546875 4.792969 C 22.574219 4.792969 23.449219 4.144531 23.800781 3.25 Z M 44.785156 5.101562 L 56.601562 19.398438 C 56.476562 19.648438 56.363281 19.875 56.363281 20.171875 C 56.363281 20.691406 56.582031 21.148438 56.925781 21.488281 L 55.960938 24.195312 L 45.667969 11.207031 C 45.894531 10.796875 46.070312 10.320312 46.070312 9.816406 C 46.070312 8.558594 45.269531 7.519531 44.140625 7.109375 L 44.542969 5.179688 C 44.625 5.148438 44.707031 5.148438 44.785156 5.097656 Z M 20.339844 5.484375 L 19.054688 11.128906 L 15.117188 11.589844 C 15.09375 11.558594 15.058594 11.542969 15.035156 11.511719 L 20.339844 5.480469 Z M 40.601562 11.902344 L 34.652344 34.933594 C 34.464844 34.984375 34.265625 35.015625 34.089844 35.097656 L 18.8125 17.859375 L 25.96875 17.085938 C 26.292969 17.671875 26.941406 18.09375 27.65625 18.09375 C 28.703125 18.09375 29.507812 17.199219 29.507812 16.160156 C 29.507812 16.015625 29.457031 15.90625 29.425781 15.773438 L 39.71875 11.988281 L 40.601562 11.90625 Z M 36.179688 12.363281 L 29.023438 14.992188 C 28.675781 14.578125 28.242188 14.296875 27.65625 14.296875 C 26.613281 14.296875 25.726562 15.113281 25.726562 16.152344 C 25.726562 16.183594 25.726562 16.199219 25.726562 16.230469 L 18.652344 17.082031 L 19.214844 14.296875 L 36.179688 12.367188 Z M 43.820312 12.75 L 54.996094 26.972656 L 52.664062 33.464844 L 38.671875 36.710938 C 38.464844 36.332031 38.191406 36.066406 37.867188 35.785156 Z M 18.25 14.449219 L 17.769531 16.691406 L 16 14.683594 Z M 10.613281 15.222656 C 10.757812 15.394531 10.917969 15.550781 11.09375 15.6875 L 10.695312 17.925781 L 5.628906 18.546875 C 5.625 18.515625 5.632812 18.496094 5.628906 18.464844 Z M 12.703125 16.304688 C 12.757812 16.308594 12.808594 16.304688 12.863281 16.304688 C 12.917969 16.304688 12.972656 16.308594 13.027344 16.304688 L 14.152344 17.542969 L 12.464844 17.773438 Z M 14.875 18.316406 L 16.964844 20.632812 L 16 24.882812 C 14.992188 24.933594 14.230469 25.730469 14.230469 26.738281 C 14.230469 27.324219 14.53125 27.785156 14.953125 28.132812 L 8.601562 37.714844 L 12.300781 18.625 Z M 10.53125 18.777344 L 6.511719 39.570312 C 5.800781 39.714844 5.238281 40.191406 4.90625 40.804688 L 3.777344 40.574219 C 3.777344 39.796875 3.332031 39.082031 2.652344 38.796875 L 3.617188 21.328125 C 4.6875 21.183594 5.480469 20.378906 5.628906 19.320312 Z M 17.609375 21.484375 L 31.917969 37.484375 C 31.890625 37.578125 31.859375 37.6875 31.839844 37.789062 L 8.683594 40.265625 C 8.53125 40.117188 8.386719 39.984375 8.199219 39.878906 L 15.597656 28.515625 C 15.753906 28.5625 15.90625 28.59375 16.078125 28.59375 C 17.125 28.59375 18.007812 27.777344 18.007812 26.742188 C 18.007812 26 17.511719 25.34375 16.882812 25.039062 Z M 57.648438 21.945312 C 57.699219 21.960938 57.757812 21.9375 57.808594 21.945312 L 59.980469 29.367188 L 56.601562 24.960938 Z M 55.558594 27.742188 L 58.933594 31.992188 L 53.628906 33.230469 Z M 59.175781 34.390625 L 51.539062 51.007812 L 51.699219 40.652344 C 52.503906 40.488281 53.144531 39.800781 53.144531 38.949219 C 53.144531 38.261719 52.683594 37.691406 52.101562 37.402344 L 52.664062 35.933594 L 59.175781 34.386719 Z M 51.777344 36.167969 L 51.375 37.171875 C 50.398438 37.171875 49.609375 37.980469 49.609375 38.949219 C 49.609375 39.761719 50.140625 40.449219 50.894531 40.652344 L 50.652344 52.476562 C 50.0625 52.65625 49.585938 53.113281 49.285156 53.636719 L 38.753906 51.316406 C 38.753906 50.28125 37.871094 49.460938 36.824219 49.460938 C 35.804688 49.460938 34.9375 50.238281 34.894531 51.238281 L 32.320312 51.859375 L 35.539062 42.121094 C 37.296875 42.085938 38.769531 40.773438 39.074219 39.105469 Z M 32.242188 40.1875 C 32.460938 40.589844 32.773438 40.976562 33.125 41.269531 L 29.425781 52.554688 L 21.707031 54.488281 L 9.246094 42.816406 C 9.261719 42.765625 9.308594 42.703125 9.328125 42.652344 L 32.242188 40.179688 Z M 4.339844 42.195312 L 4.664062 42.277344 C 4.679688 42.375 4.636719 42.496094 4.664062 42.585938 L 4.339844 42.203125 Z M 6.269531 44.128906 C 6.5 44.210938 6.742188 44.289062 6.996094 44.289062 C 7.046875 44.289062 7.101562 44.292969 7.15625 44.289062 L 17.6875 54.105469 C 17.523438 54.058594 17.308594 54.027344 17.125 54.027344 C 16.753906 54.027344 16.453125 54.15625 16.160156 54.335938 L 6.273438 44.132812 Z M 35.054688 52.011719 C 35.324219 52.722656 36.015625 53.171875 36.824219 53.171875 C 37.609375 53.171875 38.304688 52.765625 38.59375 52.089844 L 47.757812 54.101562 L 29.910156 59.277344 L 32.082031 52.707031 Z M 29.1875 53.480469 L 27.257812 59.277344 C 27.148438 59.296875 27.035156 59.328125 26.933594 59.359375 L 22.351562 55.109375 Z M 19.539062 55.800781 L 20.742188 56.960938 L 19.054688 56.03125 C 19.058594 55.984375 19.054688 55.9375 19.054688 55.871094 Z M 19.539062 55.800781 "/>
</g>
</svg>
