<svg xmlns="http://www.w3.org/2000/svg" xmlns:xlink="http://www.w3.org/1999/xlink" width="64" height="64" viewBox="0 0 64 64" version="1.1">
<defs>
<linearGradient id="linear0" gradientUnits="userSpaceOnUse" x1="0" y1="0" x2="0" y2="1" gradientTransform="matrix(64,0,0,31.710938,0,16.144531)">
<stop offset="0" style="stop-color:#ff6666;stop-opacity:1;"/>
<stop offset="1" style="stop-color:#d90000;stop-opacity:1;"/>
</linearGradient>
</defs>
<g id="surface1">
<path style=" stroke:none;fill-rule:nonzero;fill:url(#linear0);" d="M 59.933594 16.308594 C 59.535156 15.8125 58.554688 16.492188 56.359375 17.601562 C 53.382812 19.105469 51.90625 20.414062 50.402344 22.710938 C 48.636719 25.402344 47.839844 25.734375 46.640625 24.292969 C 45.53125 22.957031 45.125 22.867188 45.699219 24.085938 C 45.964844 24.636719 45.976562 25.328125 45.753906 26.660156 C 45.507812 28.097656 45.339844 28.597656 44.457031 29.53125 C 43.835938 30.1875 43.058594 30.8125 42.722656 30.925781 C 41.96875 31.179688 41.289062 30.355469 41.269531 29.164062 L 41.257812 28.308594 L 39.296875 28.523438 C 36.742188 28.804688 35.414062 28.371094 33.675781 26.6875 C 32.910156 25.949219 32.085938 23.609375 31.90625 23.613281 C 31.726562 23.617188 31.035156 25.980469 30.296875 26.742188 C 28.609375 28.484375 27.292969 28.964844 24.734375 28.769531 L 22.773438 28.617188 L 22.785156 29.476562 C 22.804688 30.667969 22.148438 31.511719 21.382812 31.28125 C 21.042969 31.179688 20.742188 31.058594 20.105469 30.429688 C 19.199219 29.515625 18.515625 28.546875 18.226562 27.121094 C 17.964844 25.796875 17.953125 25.105469 18.195312 24.542969 C 18.734375 23.3125 18.332031 23.410156 17.269531 24.785156 C 16.113281 26.269531 15.308594 25.960938 13.460938 23.324219 C 11.882812 21.085938 10.363281 19.820312 7.34375 18.421875 C 5.753906 17.679688 4.832031 17.09375 4.210938 17.09375 C 3.839844 17.097656 3.652344 17.21875 3.65625 17.484375 C 3.660156 17.707031 4.230469 18.804688 4.929688 19.925781 C 6.183594 21.933594 7.152344 23.289062 6.667969 23.296875 C 6.53125 23.296875 6.054688 23.480469 4.964844 23.070312 C 3.871094 22.667969 2.800781 22.339844 2.574219 22.34375 C 1.429688 22.363281 2.570312 24.628906 4.953125 26.65625 C 5.730469 27.320312 6.367188 27.964844 6.371094 28.089844 C 6.375 28.402344 3.695312 28.167969 1.964844 27.691406 C -0.117188 27.128906 -0.511719 27.597656 0.628906 29.261719 C 1.925781 31.152344 3.636719 32.210938 6.121094 32.605469 C 9.832031 33.199219 9.851562 33.753906 6.183594 34.609375 C 4.183594 35.074219 3.558594 35.367188 2.753906 36.230469 C 2.207031 36.8125 1.832031 37.355469 1.914062 37.4375 C 2.324219 37.832031 9.332031 38.449219 11.089844 38.242188 C 13.542969 37.957031 13.664062 38.457031 11.457031 39.777344 C 10.59375 40.292969 9.402344 41.316406 8.824219 42.046875 L 7.765625 43.378906 L 9.644531 43.347656 C 11.988281 43.308594 14.3125 42.785156 16.394531 41.824219 C 17.28125 41.414062 18.074219 41.195312 18.164062 41.335938 C 18.257812 41.472656 18.074219 42.199219 17.765625 42.949219 C 17.457031 43.691406 17.121094 44.964844 17.019531 45.777344 C 16.847656 47.128906 16.886719 47.246094 17.480469 47.238281 C 18.546875 47.21875 19.988281 46.453125 22.171875 44.742188 L 24.238281 43.125 L 24.933594 44.542969 C 25.53125 45.773438 25.871094 46.058594 27.464844 46.714844 C 28.746094 47.242188 29.128906 47.4375 29.195312 47.855469 C 29.332031 47.832031 29.472656 47.816406 29.613281 47.8125 L 35.441406 47.714844 C 35.441406 47.71875 35.441406 47.71875 35.445312 47.71875 C 35.511719 47.320312 35.886719 47.109375 37.125 46.550781 C 38.691406 45.84375 39.023438 45.539062 39.589844 44.296875 L 40.234375 42.851562 L 42.347656 44.402344 C 44.585938 46.039062 46.050781 46.761719 47.117188 46.738281 C 47.710938 46.730469 47.742188 46.609375 47.53125 45.265625 C 47.402344 44.457031 47.03125 43.195312 46.699219 42.460938 C 46.367188 41.722656 46.164062 41.007812 46.253906 40.863281 C 46.335938 40.722656 47.140625 40.914062 48.035156 41.292969 C 50.152344 42.183594 52.488281 42.628906 54.828125 42.589844 L 56.710938 42.558594 L 55.613281 41.265625 C 55.003906 40.550781 53.789062 39.566406 52.90625 39.078125 C 50.664062 37.835938 50.769531 37.332031 53.230469 37.535156 C 54.992188 37.679688 61.976562 36.828125 62.371094 36.421875 C 62.457031 36.335938 62.058594 35.808594 61.5 35.242188 C 60.667969 34.40625 60.03125 34.136719 58.023438 33.734375 C 54.332031 33 54.332031 32.457031 58.023438 31.730469 C 60.484375 31.246094 62.175781 30.140625 63.414062 28.207031 C 64.503906 26.503906 64.09375 26.046875 62.03125 26.683594 C 60.3125 27.214844 57.636719 27.542969 57.632812 27.222656 C 57.628906 27.101562 58.253906 26.441406 59.007812 25.746094 C 61.328125 23.640625 62.398438 21.335938 61.253906 21.355469 C 61.027344 21.359375 59.964844 21.722656 58.886719 22.167969 C 57.808594 22.613281 57.332031 22.445312 57.191406 22.449219 C 56.707031 22.457031 57.628906 21.070312 58.820312 19.019531 C 59.484375 17.878906 60.023438 16.765625 60.019531 16.542969 C 60.019531 16.453125 59.992188 16.371094 59.933594 16.304688 Z M 59.933594 16.308594 "/>
</g>
</svg>
