<svg xmlns="http://www.w3.org/2000/svg" xmlns:xlink="http://www.w3.org/1999/xlink" width="64" height="64" viewBox="0 0 64 64" version="1.1">
<defs> <linearGradient id="linear0" gradientUnits="userSpaceOnUse" x1="0" y1="0" x2="0" y2="1" gradientTransform="matrix(55.992188,0,0,56,4.003906,4)"> <stop offset="0" style="stop-color:#ff6666;stop-opacity:1;"/> <stop offset="1" style="stop-color:#d90000;stop-opacity:1;"/> </linearGradient> </defs>
<g id="surface1">
<path style=" stroke:none;fill-rule:nonzero;fill:url(#linear0);fill-opacity:1;" d="M 29.375 6.292969 C 38.636719 6.292969 48.082031 16.824219 52.648438 24.183594 L 54.976562 14.230469 C 55.011719 14.207031 55.054688 14.199219 55.09375 14.1875 C 55.617188 13.636719 56.730469 13.96875 56.875 14.714844 L 60.597656 36.324219 C 60.730469 36.929688 60.167969 37.585938 59.546875 37.578125 L 53.703125 36.164062 C 51.683594 48.425781 42.1875 58.058594 29.375 58.058594 C 15.132812 58.058594 3.496094 46.453125 3.496094 32.195312 C 3.496094 17.9375 15.132812 6.292969 29.375 6.292969 Z M 26.222656 14.144531 C 24.867188 14.160156 23.40625 14.332031 21.9375 14.867188 C 14.046875 17.773438 8.511719 23.265625 8.511719 32.195312 C 8.511719 43.753906 18.070312 53.074219 29.621094 53.074219 C 40.164062 53.074219 52.261719 46.3125 53.6875 36.160156 L 38.675781 32.191406 C 37.921875 32.167969 37.417969 31.136719 37.867188 30.535156 L 46.617188 29.148438 C 46.515625 28.757812 40.664062 21.777344 37.507812 18.867188 C 33.992188 15.625 30.710938 14.449219 26.222656 14.136719 "/>
</g>
</svg>
