<svg xmlns="http://www.w3.org/2000/svg" xmlns:xlink="http://www.w3.org/1999/xlink" width="64" height="64" viewBox="0 0 64 64" version="1.1">
<defs> <linearGradient id="linear0" gradientUnits="userSpaceOnUse" x1="0" y1="0" x2="0" y2="1" gradientTransform="matrix(55.992188,0,0,56,4.003906,4)"> <stop offset="0" style="stop-color:#ff6666;stop-opacity:1;"/> <stop offset="1" style="stop-color:#d90000;stop-opacity:1;"/> </linearGradient> </defs>
<g id="surface1">
<path style=" stroke:none;fill-rule:nonzero;fill:url(#linear0);fill-opacity:1;" d="M 29.375 6.292969 C 38.636719 6.292969 48.082031 16.824219 52.648438 24.183594 L 54.976562 14.230469 C 55.011719 14.207031 55.054688 14.199219 55.09375 14.1875 C 55.617188 13.636719 56.730469 13.96875 56.875 14.714844 L 60.597656 36.324219 C 60.730469 36.929688 60.167969 37.585938 59.546875 37.578125 L 53.703125 36.164062 C 51.683594 48.425781 42.1875 58.058594 29.375 58.058594 C 15.132812 58.058594 3.496094 46.453125 3.496094 32.195312 C 3.496094 17.9375 15.132812 6.292969 29.375 6.292969 Z M 26.222656 14.144531 C 24.867188 14.160156 23.40625 14.332031 21.9375 14.867188 C 14.046875 17.773438 8.511719 23.265625 8.511719 32.195312 C 8.511719 43.753906 18.070312 53.074219 29.621094 53.074219 C 40.164062 53.074219 52.261719 46.3125 53.6875 36.160156 L 38.675781 32.191406 C 37.921875 32.167969 37.417969 31.136719 37.867188 30.535156 L 46.617188 29.148438 C 46.515625 28.757812 40.664062 21.777344 37.507812 18.867188 C 33.992188 15.625 30.710938 14.449219 26.222656 14.136719 "/>
<path style=" stroke:none;fill-rule:nonzero;fill:url(#linear0);fill-opacity:1;" d="M 25.433594 20.128906 C 24.894531 20.128906 24.464844 20.546875 24.464844 21.070312 L 24.464844 23.3125 C 23.644531 23.515625 22.875 23.824219 22.164062 24.238281 L 20.539062 22.65625 C 20.160156 22.28125 19.546875 22.28125 19.164062 22.65625 L 17.5625 24.210938 C 17.183594 24.578125 17.183594 25.175781 17.5625 25.546875 L 19.191406 27.128906 C 18.773438 27.820312 18.449219 28.570312 18.238281 29.367188 L 15.9375 29.367188 C 15.398438 29.367188 14.96875 29.785156 14.96875 30.3125 L 14.96875 32.511719 C 14.96875 33.039062 15.398438 33.457031 15.9375 33.457031 L 18.238281 33.457031 C 18.449219 34.253906 18.773438 35.007812 19.191406 35.695312 L 17.5625 37.28125 C 17.183594 37.648438 17.183594 38.246094 17.5625 38.613281 L 19.164062 40.171875 C 19.546875 40.542969 20.160156 40.542969 20.539062 40.171875 L 22.164062 38.585938 C 22.875 39 23.644531 39.308594 24.464844 39.515625 L 24.464844 41.753906 C 24.464844 42.28125 24.894531 42.699219 25.433594 42.699219 L 27.695312 42.699219 C 28.234375 42.699219 28.671875 42.28125 28.671875 41.753906 L 28.671875 39.515625 C 29.488281 39.308594 30.261719 39 30.964844 38.585938 L 32.59375 40.171875 C 32.976562 40.542969 33.589844 40.542969 33.96875 40.171875 L 35.566406 38.613281 C 35.945312 38.246094 35.945312 37.648438 35.566406 37.28125 L 33.9375 35.695312 C 34.363281 35.007812 34.683594 34.253906 34.890625 33.457031 L 37.191406 33.457031 C 37.730469 33.457031 38.167969 33.039062 38.167969 32.511719 L 38.167969 30.3125 C 38.167969 29.785156 37.730469 29.367188 37.191406 29.367188 L 34.890625 29.367188 C 34.683594 28.570312 34.363281 27.820312 33.9375 27.128906 L 35.566406 25.546875 C 35.945312 25.175781 35.945312 24.578125 35.566406 24.210938 L 33.96875 22.65625 C 33.582031 22.28125 32.976562 22.28125 32.59375 22.65625 L 30.964844 24.238281 C 30.261719 23.824219 29.488281 23.515625 28.671875 23.3125 L 28.671875 21.070312 C 28.671875 20.546875 28.234375 20.128906 27.695312 20.128906 Z M 26.5625 27.554688 C 28.757812 27.554688 30.527344 29.285156 30.527344 31.414062 C 30.527344 33.542969 28.757812 35.273438 26.5625 35.273438 C 24.371094 35.273438 22.601562 33.546875 22.601562 31.414062 C 22.601562 29.285156 24.371094 27.554688 26.5625 27.554688 Z M 26.5625 27.554688 "/>
</g>
</svg>
