<svg xmlns="http://www.w3.org/2000/svg" xmlns:xlink="http://www.w3.org/1999/xlink" width="64" height="64" viewBox="0 0 64 64" version="1.1">
<defs>
<linearGradient id="linear0" gradientUnits="userSpaceOnUse" x1="0" y1="0" x2="0" y2="1" gradientTransform="matrix(60,0,0,50,2,7.199219)">
<stop offset="0" style="stop-color:#ff6666;stop-opacity:1;"/>
<stop offset="1" style="stop-color:#d90000;stop-opacity:1;"/>
</linearGradient>
</defs>
<g id="surface1">
<path style=" stroke:none;fill-rule:nonzero;fill:url(#linear0);" d="M 2 33.117188 C 2 17.957031 9.839844 9.695312 14.425781 9.695312 C 19.011719 9.695312 19.503906 12.03125 19.503906 15.753906 C 19.503906 22.972656 10.753906 20.382812 10.753906 33.9375 C 10.753906 38.425781 13.226562 43.445312 18.347656 43.445312 C 22.453125 43.445312 23.964844 39.078125 26.046875 30.316406 C 29.503906 17.144531 33 7.199219 44.800781 7.199219 C 56.269531 7.199219 62 16.847656 62 32.007812 C 62 47.164062 53.121094 57.1875 48.535156 57.1875 C 43.949219 57.1875 42.003906 55.359375 42.003906 51.636719 C 42.003906 44.417969 52.410156 45.578125 52.410156 32.023438 C 52.410156 27.535156 50.441406 20.925781 45.324219 20.925781 C 41.214844 20.925781 39.765625 21.210938 37.246094 30.816406 C 35.875 41.082031 32.613281 57.199219 20.140625 57.199219 C 8.675781 57.199219 2 48.273438 2 33.117188 Z M 2 33.117188 "/>
</g>
</svg>
