<svg xmlns="http://www.w3.org/2000/svg" xmlns:xlink="http://www.w3.org/1999/xlink" width="64px" height="64px" viewBox="0 0 64 64" version="1.1">
<defs>
<linearGradient id="linear0" gradientUnits="userSpaceOnUse" x1="0" y1="128" x2="128" y2="0" gradientTransform="matrix(0.432432,0,0,0.432432,4.324324,4.324324)">
<stop offset="0" style="stop-color:#ff6666;stop-opacity:1;"/>
<stop offset="1" style="stop-color:#d90000;stop-opacity:1;"/>
</linearGradient>
</defs>
<g id="surface1">
<path style=" stroke:none;fill-rule:nonzero;fill:url(#linear0);" d="M 11.195312 14.625 C 9.207031 14.625 7.585938 16.230469 7.585938 18.21875 L 7.585938 37.921875 C 7.71875 38.898438 7.714844 39.261719 8.382812 40.785156 L 10.960938 46.699219 C 11.714844 48.421875 12.113281 49.375 14.402344 49.375 L 53.074219 49.375 C 56.375 49.375 58.160156 46.136719 53.945312 43.632812 L 45.917969 38.855469 C 44.761719 38.3125 44.207031 37.6875 44.207031 36.519531 L 44.207031 18.21875 C 44.207031 16.230469 42.601562 14.625 40.613281 14.625 Z M 12.113281 19.167969 L 39.550781 19.167969 L 39.550781 36.753906 L 12.113281 36.753906 Z M 16.488281 20.789062 L 16.488281 22.164062 C 15.765625 22.210938 15.210938 22.433594 14.8125 22.820312 C 14.414062 23.207031 14.214844 23.722656 14.214844 24.375 C 14.214844 24.988281 14.398438 25.472656 14.773438 25.847656 C 15.148438 26.21875 15.71875 26.472656 16.488281 26.625 L 16.488281 28.558594 C 16.15625 28.554688 15.8125 28.488281 15.433594 28.359375 C 15.058594 28.230469 14.679688 28.039062 14.277344 27.800781 L 14.277344 29.335938 C 14.679688 29.503906 15.0625 29.644531 15.433594 29.734375 C 15.804688 29.824219 16.148438 29.863281 16.488281 29.871094 L 16.488281 31.644531 L 17.324219 31.644531 L 17.324219 29.871094 C 18.027344 29.835938 18.597656 29.625 19.019531 29.214844 C 19.441406 28.808594 19.65625 28.28125 19.65625 27.640625 C 19.65625 26.96875 19.453125 26.429688 19.058594 26.027344 C 18.667969 25.621094 18.09375 25.351562 17.324219 25.230469 L 17.324219 23.4375 C 17.679688 23.460938 18.007812 23.523438 18.300781 23.617188 C 18.597656 23.710938 18.859375 23.835938 19.097656 23.996094 L 19.097656 22.5 C 18.789062 22.402344 18.484375 22.316406 18.183594 22.261719 C 17.886719 22.207031 17.601562 22.179688 17.324219 22.164062 L 17.324219 20.789062 Z M 16.488281 23.4375 L 16.488281 25.089844 C 16.246094 25.023438 16.074219 24.917969 15.949219 24.773438 C 15.828125 24.625 15.769531 24.4375 15.769531 24.210938 C 15.769531 23.988281 15.828125 23.824219 15.949219 23.695312 C 16.074219 23.5625 16.246094 23.46875 16.488281 23.4375 Z M 27.167969 25.132812 C 26.886719 25.382812 26.601562 25.566406 26.332031 25.6875 C 26.0625 25.808594 25.789062 25.867188 25.511719 25.867188 C 25.152344 25.867188 24.75 25.761719 24.296875 25.550781 L 24.101562 25.449219 C 23.8125 25.328125 23.578125 25.253906 23.382812 25.210938 C 23.1875 25.167969 22.988281 25.152344 22.785156 25.152344 C 22.460938 25.152344 22.152344 25.207031 21.867188 25.3125 C 21.585938 25.414062 21.292969 25.589844 20.988281 25.828125 L 20.988281 27.164062 C 21.28125 26.917969 21.554688 26.738281 21.828125 26.625 C 22.105469 26.511719 22.402344 26.445312 22.707031 26.445312 C 22.90625 26.445312 23.105469 26.480469 23.304688 26.527344 C 23.507812 26.570312 23.738281 26.652344 24.039062 26.785156 C 24.085938 26.800781 24.152344 26.824219 24.238281 26.863281 C 24.679688 27.0625 25.085938 27.164062 25.4375 27.164062 C 25.742188 27.164062 26.035156 27.109375 26.3125 27.003906 C 26.589844 26.894531 26.875 26.738281 27.167969 26.507812 Z M 17.324219 26.785156 C 17.574219 26.832031 17.769531 26.929688 17.902344 27.085938 C 18.039062 27.238281 18.101562 27.4375 18.101562 27.683594 C 18.101562 27.917969 18.039062 28.121094 17.902344 28.28125 C 17.765625 28.433594 17.570312 28.523438 17.324219 28.558594 Z M 17.324219 26.785156 "/>
</g>
</svg>
