<svg xmlns="http://www.w3.org/2000/svg" xmlns:xlink="http://www.w3.org/1999/xlink" width="64" height="64" viewBox="0 0 64 64" version="1.1">
<defs>
<linearGradient id="linear0" gradientUnits="userSpaceOnUse" x1="0" y1="0" x2="0" y2="1" gradientTransform="matrix(64,0,0,62.671875,0,0.664062)">
<stop offset="0" style="stop-color:#ff6666;stop-opacity:1;"/>
<stop offset="1" style="stop-color:#d90000;stop-opacity:1;"/>
</linearGradient>
</defs>
<g id="surface1">
<path style=" stroke:none;fill-rule:evenodd;fill:url(#linear0);" d="M 10.046875 36.824219 C 4.015625 36.824219 4.015625 33.800781 4.015625 32.808594 C 4.015625 31.8125 4.015625 28.789062 10.046875 28.789062 C 16.074219 28.789062 16.074219 31.8125 16.074219 32.808594 C 16.074219 33.800781 16.074219 36.824219 10.046875 36.824219 Z M 39.738281 28.300781 C 38.769531 31.152344 37.394531 33.847656 35.660156 36.308594 C 35.105469 37.117188 34.597656 37.882812 34.109375 38.792969 C 43.191406 37.695312 49.9375 36.824219 49.9375 36.824219 C 60.339844 34.867188 64 24.773438 64 24.773438 Z M 20.09375 32.808594 C 20.09375 27.777344 16.332031 24.773438 10.046875 24.773438 C 3.753906 24.773438 0 27.777344 0 32.808594 C 0 39.3125 5.34375 41.878906 16.191406 40.84375 C 17.410156 40.726562 18.453125 40.507812 20.003906 40.339844 C 20.441406 38.460938 20.925781 36.425781 21.429688 34.328125 C 20 34.480469 20.09375 33.480469 20.09375 32.808594 Z M 26.828125 34.863281 C 27.539062 34.863281 28.195312 35.242188 28.550781 35.863281 C 28.90625 36.480469 28.90625 37.238281 28.546875 37.855469 C 28.191406 38.472656 27.535156 38.851562 26.824219 38.851562 C 25.71875 38.847656 24.832031 37.957031 24.832031 36.855469 C 24.832031 35.757812 25.726562 34.863281 26.828125 34.863281 Z M 32.78125 53.773438 C 32.070312 59.757812 29.070312 59.394531 28.085938 59.285156 C 27.097656 59.167969 24.09375 58.8125 24.804688 52.824219 C 25.511719 46.839844 28.515625 47.199219 29.503906 47.3125 C 30.488281 47.429688 33.492188 47.785156 32.78125 53.773438 Z M 29.976562 43.320312 C 29.265625 43.234375 28.117188 42.78125 28.667969 41.132812 C 30.820312 34.695312 33.933594 35.1875 36.703125 26.03125 L 43.132812 0.664062 C 43.132812 0.664062 32.675781 3.109375 29.503906 13.207031 C 29.503906 13.207031 23.683594 36.371094 21.539062 46.238281 C 19.226562 56.886719 21.148438 62.503906 27.609375 63.269531 C 32.605469 63.863281 36.03125 60.488281 36.777344 54.242188 C 37.511719 47.996094 34.972656 43.910156 29.976562 43.320312 Z M 29.976562 43.320312 "/>
</g>
</svg>
