<svg xmlns="http://www.w3.org/2000/svg" xmlns:xlink="http://www.w3.org/1999/xlink" width="64" height="64" viewBox="0 0 64 64" version="1.1">
<defs>
<linearGradient id="linear0" gradientUnits="userSpaceOnUse" x1="0" y1="0" x2="0" y2="1" gradientTransform="matrix(64,0,0,49.3125,0,7.34375)">
<stop offset="0" style="stop-color:#ff6666;stop-opacity:1;"/>
<stop offset="1" style="stop-color:#d90000;stop-opacity:1;"/>
</linearGradient>
</defs>
<g id="surface1">
<path style=" stroke:none;fill-rule:nonzero;fill:url(#linear0);" d="M 33.230469 7.347656 C 30.289062 7.347656 27.828125 8.867188 26.074219 11.039062 C 24.808594 10.511719 23.574219 9.808594 22.152344 9.808594 C 17.960938 9.808594 14.277344 12.210938 13 15.808594 C 11 16.675781 9.136719 17.617188 7.769531 18.882812 C 6.117188 20.425781 4.847656 22.382812 4.847656 24.65625 C 4.847656 25.125 4.972656 25.597656 5.078125 26.039062 L 0 41.882812 C 0 50.246094 13.789062 56.65625 32 56.65625 C 50.210938 56.65625 64 50.246094 64 41.882812 L 58.921875 26.269531 C 58.933594 26.246094 58.914062 26.21875 58.921875 26.191406 C 59.046875 25.699219 59.152344 25.183594 59.152344 24.65625 C 59.152344 22.382812 57.871094 20.453125 56.230469 18.960938 C 54.84375 17.710938 52.925781 16.738281 50.921875 15.8125 C 49.636719 12.226562 46.03125 9.808594 41.847656 9.808594 C 41.019531 9.808594 40.433594 10.039062 39.769531 10.191406 C 38.027344 8.554688 35.855469 7.34375 33.230469 7.34375 Z M 33.230469 12.425781 C 34.855469 12.425781 36.347656 13.238281 37.078125 14.269531 C 37.71875 15.171875 38.875 15.546875 39.925781 15.191406 C 40.546875 14.996094 41.191406 14.890625 41.847656 14.882812 C 44.539062 14.882812 46.277344 16.410156 46.535156 17.960938 C 46.691406 18.78125 47.238281 19.472656 48 19.808594 C 50.164062 20.71875 51.847656 21.738281 52.847656 22.652344 C 53.847656 23.566406 54.074219 24.210938 54.074219 24.65625 C 54.074219 25.15625 53.847656 25.789062 52.925781 26.65625 C 52 27.519531 50.492188 28.464844 48.460938 29.273438 C 44.402344 30.894531 38.5 31.964844 32 31.964844 C 25.5 31.964844 19.59375 30.894531 15.535156 29.273438 C 13.507812 28.464844 12 27.523438 11.074219 26.652344 C 10.152344 25.789062 9.925781 25.15625 9.925781 24.65625 C 9.925781 24.210938 10.164062 23.5 11.152344 22.574219 C 12.144531 21.65625 13.753906 20.65625 15.847656 19.882812 C 16.691406 19.578125 17.308594 18.847656 17.464844 17.964844 C 17.71875 16.410156 19.460938 14.886719 22.152344 14.886719 C 23.402344 14.886719 24.308594 15.117188 25.464844 15.882812 C 26.089844 16.296875 26.863281 16.40625 27.578125 16.183594 C 28.296875 15.960938 28.875 15.429688 29.15625 14.730469 C 29.730469 13.289062 31.117188 12.425781 33.230469 12.425781 Z M 21.847656 19.65625 C 20.871094 19.765625 20.046875 20.414062 19.738281 21.339844 C 19.421875 22.277344 19.671875 23.292969 20.382812 23.964844 C 20.382812 23.964844 21.320312 24.886719 22.84375 25.65625 C 24.929688 26.683594 27.21875 27.210938 29.539062 27.195312 C 30.941406 27.195312 32.074219 26.058594 32.074219 24.65625 C 32.074219 23.257812 30.941406 22.121094 29.539062 22.121094 C 27.492188 22.121094 26.089844 21.65625 25.15625 21.195312 C 24.21875 20.730469 23.925781 20.425781 23.925781 20.425781 C 23.386719 19.859375 22.621094 19.574219 21.847656 19.65625 Z M 41.539062 19.65625 C 40.28125 19.796875 39.320312 20.851562 39.308594 22.121094 L 39.308594 22.191406 C 37.996094 22.304688 36.992188 23.410156 37.011719 24.726562 C 37.03125 26.042969 38.066406 27.125 39.382812 27.191406 C 39.382812 27.191406 40.558594 27.183594 41.769531 26.574219 C 42.980469 25.972656 44.378906 24.261719 44.378906 22.191406 C 44.394531 21.460938 44.089844 20.757812 43.542969 20.269531 C 42.996094 19.78125 42.265625 19.554688 41.535156 19.65625 Z M 23.84375 36.964844 C 26.054688 36.964844 28.078125 38.90625 28.078125 41.117188 L 28.078125 41.882812 L 37.15625 41.882812 C 36.902344 41.390625 36.925781 41.148438 36.925781 40.65625 C 36.925781 38.683594 38.648438 36.964844 40.617188 36.964844 C 42.585938 36.964844 44.308594 38.683594 44.308594 40.65625 C 44.308594 42.136719 43.535156 43.394531 42.308594 43.886719 C 43.535156 44.625 44.308594 46.097656 44.308594 47.578125 C 44.308594 49.789062 42.363281 51.730469 40.152344 51.730469 C 37.945312 51.730469 35.925781 49.789062 35.925781 47.574219 L 35.925781 46.808594 L 26.84375 46.808594 C 27.097656 47.300781 27.074219 47.546875 27.074219 48.039062 C 27.074219 50.007812 25.351562 51.730469 23.382812 51.730469 C 21.414062 51.730469 19.691406 50.007812 19.691406 48.039062 C 19.691406 46.554688 20.464844 45.300781 21.691406 44.808594 C 20.464844 44.066406 19.691406 42.597656 19.691406 41.117188 C 19.691406 38.90625 21.636719 36.964844 23.847656 36.964844 Z M 23.84375 36.964844 "/>
</g>
</svg>
