<svg xmlns="http://www.w3.org/2000/svg" xmlns:xlink="http://www.w3.org/1999/xlink" width="64" height="64" viewBox="0 0 64 64" version="1.1">
<defs>
<linearGradient id="linear0" gradientUnits="userSpaceOnUse" x1="0" y1="0" x2="0" y2="1" gradientTransform="matrix(64,0,0,51.203125,0,6.398438)">
<stop offset="0" style="stop-color:#ff6666;stop-opacity:1;"/>
<stop offset="1" style="stop-color:#d90000;stop-opacity:1;"/>
</linearGradient>
</defs>
<g id="surface1">
<path style=" stroke:none;fill-rule:evenodd;fill:url(#linear0);" d="M 32 25.601562 C 29.734375 25.601562 27.566406 26.5 25.964844 28.101562 C 24.363281 29.699219 23.46875 31.867188 23.46875 34.132812 C 23.46875 36.394531 24.363281 38.566406 25.964844 40.167969 C 27.566406 41.769531 29.734375 42.667969 32 42.667969 C 34.265625 42.667969 36.433594 41.769531 38.035156 40.167969 C 39.636719 38.566406 40.53125 36.394531 40.53125 34.132812 C 40.53125 31.867188 39.636719 29.699219 38.035156 28.101562 C 36.433594 26.5 34.265625 25.601562 32 25.601562 Z M 32 21.332031 C 39.066406 21.332031 44.800781 27.0625 44.800781 34.132812 C 44.800781 41.203125 39.066406 46.933594 32 46.933594 C 24.933594 46.933594 19.199219 41.203125 19.199219 34.132812 C 19.199219 27.0625 24.933594 21.332031 32 21.332031 Z M 32 17.066406 C 22.574219 17.066406 14.933594 24.707031 14.933594 34.132812 C 14.933594 43.558594 22.574219 51.199219 32 51.199219 C 41.425781 51.199219 49.066406 43.558594 49.066406 34.132812 C 49.066406 24.707031 41.425781 17.066406 32 17.066406 Z M 27.636719 6.398438 C 21.851562 6.398438 16.300781 8.648438 12.207031 12.648438 C 8.117188 16.648438 5.816406 22.074219 5.816406 27.730469 C 5.820312 29.5625 6.066406 31.386719 6.546875 33.160156 C 2.667969 35.023438 0 38.949219 0 43.523438 L 0 46.074219 C 0 52.460938 5.183594 57.601562 11.625 57.601562 L 52.375 57.601562 C 58.8125 57.601562 64 52.460938 64 46.074219 L 64 43.523438 C 64 38.683594 61.019531 34.566406 56.777344 32.855469 C 58.625 30.59375 59.632812 27.785156 59.636719 24.886719 C 59.636719 21.496094 58.257812 18.238281 55.800781 15.839844 C 53.347656 13.441406 50.015625 12.089844 46.542969 12.089844 C 45.335938 12.09375 44.132812 12.257812 42.96875 12.578125 C 38.886719 8.628906 33.378906 6.40625 27.636719 6.398438 Z M 14.933594 16 C 14.933594 14.230469 16.367188 12.800781 18.132812 12.800781 C 19.898438 12.800781 21.332031 14.230469 21.332031 16 C 21.332031 17.765625 19.898438 19.199219 18.132812 19.199219 C 16.367188 19.199219 14.933594 17.765625 14.933594 16 Z M 14.933594 16 "/>
</g>
</svg>
