<svg xmlns="http://www.w3.org/2000/svg" xmlns:xlink="http://www.w3.org/1999/xlink" width="64px" height="64px" viewBox="0 0 64 64" version="1.1">
<defs>
<linearGradient id="linear0" gradientUnits="userSpaceOnUse" x1="0" y1="0" x2="0" y2="1" gradientTransform="matrix(55.351351,0,0,45.855855,4.324324,9.072073)">
<stop offset="0" style="stop-color:#ff6666;stop-opacity:1;"/>
<stop offset="1" style="stop-color:#d90000;stop-opacity:1;"/>
</linearGradient>
</defs>
<g id="surface1">
<path style=" stroke:none;fill-rule:evenodd;fill:url(#linear0);" d="M 15.976562 54.164062 L 9.515625 54.164062 L 11.292969 42.578125 L 4.324219 42.578125 L 5.273438 36.308594 L 12.238281 36.308594 L 13.699219 26.617188 L 6.730469 26.617188 L 7.679688 20.347656 L 14.710938 20.347656 L 16.292969 9.835938 L 22.6875 9.835938 L 21.109375 20.347656 L 29.339844 20.347656 L 30.988281 9.835938 L 37.382812 9.835938 L 35.738281 20.347656 L 42.703125 20.347656 L 41.8125 26.617188 L 34.789062 26.617188 L 33.328125 36.308594 L 40.296875 36.308594 L 39.347656 42.578125 L 32.378906 42.578125 L 30.609375 54.164062 L 24.210938 54.164062 L 25.984375 42.578125 L 17.753906 42.578125 Z M 20.160156 26.617188 L 18.703125 36.308594 L 26.933594 36.308594 L 28.390625 26.617188 Z M 56.382812 41.941406 L 52.582031 41.941406 L 50.746094 23.261719 L 50.746094 9.070312 L 58.160156 9.070312 L 58.160156 23.261719 Z M 54.484375 54.929688 C 53.003906 54.929688 51.78125 54.441406 50.8125 53.46875 C 49.835938 52.5 49.351562 51.3125 49.351562 49.921875 C 49.351562 48.53125 49.835938 47.335938 50.8125 46.339844 C 51.78125 45.351562 53.003906 44.855469 54.484375 44.855469 C 55.917969 44.855469 57.144531 45.351562 58.160156 46.339844 C 59.171875 47.335938 59.675781 48.53125 59.675781 49.921875 C 59.675781 51.273438 59.171875 52.445312 58.160156 53.4375 C 57.144531 54.429688 55.917969 54.929688 54.484375 54.929688 Z M 54.484375 54.929688 "/>
</g>
</svg>
