<svg xmlns="http://www.w3.org/2000/svg" xmlns:xlink="http://www.w3.org/1999/xlink" width="64" height="64" viewBox="0 0 64 64" version="1.1">
<defs> <linearGradient id="linear0" gradientUnits="userSpaceOnUse" x1="0" y1="0" x2="0" y2="1" gradientTransform="matrix(55.992188,0,0,56,4.003906,4)"> <stop offset="0" style="stop-color:#ff6666;stop-opacity:1;"/> <stop offset="1" style="stop-color:#d90000;stop-opacity:1;"/> </linearGradient> </defs>
<g id="surface1">
<path style=" stroke:none;fill-rule:nonzero;fill:url(#linear0);fill-opacity:1;" d="M 41.371094 47.816406 C 41.371094 44.152344 39.25 40.894531 35.007812 38.050781 L 24.28125 31.5625 C 19.429688 28.253906 16.824219 24.464844 16.46875 20.191406 C 16.417969 19.730469 16.386719 19.300781 16.386719 18.894531 C 16.386719 14.058594 18.308594 10.34375 22.136719 7.746094 C 24.484375 6.273438 27.09375 5.535156 29.953125 5.535156 C 32.253906 5.535156 35.214844 6.167969 38.84375 7.441406 C 40.121094 7.953125 41.0625 8.207031 41.675781 8.207031 C 43.054688 8.207031 43.902344 7.316406 44.210938 5.535156 L 45.894531 5.535156 L 47.582031 22.175781 L 45.664062 22.175781 C 43.773438 15.253906 40.273438 10.984375 35.164062 9.355469 C 33.941406 8.945312 32.636719 8.742188 31.253906 8.742188 C 27.730469 8.742188 25.28125 10.039062 23.902344 12.632812 C 23.390625 13.601562 23.132812 14.722656 23.132812 15.992188 C 23.132812 19.097656 25.304688 22.144531 29.648438 25.148438 C 30.976562 26.066406 32.636719 27.082031 34.628906 28.203125 C 42.441406 32.375 47.121094 36.675781 48.648438 41.097656 C 49.109375 42.371094 49.34375 43.746094 49.34375 45.21875 C 49.34375 49.800781 47.402344 53.464844 43.515625 56.207031 C 40.660156 58.347656 37.257812 59.414062 33.328125 59.414062 C 30.621094 59.414062 27.398438 58.78125 23.667969 57.507812 C 22.1875 57.050781 21.089844 56.820312 20.375 56.820312 C 19.25 56.820312 18.535156 57.457031 18.226562 58.730469 C 18.175781 58.933594 18.152344 59.136719 18.152344 59.339844 L 16.46875 59.339844 L 14.085938 42.777344 L 15.925781 42.777344 C 19.148438 50.667969 23.363281 55.167969 28.574219 56.289062 C 29.597656 56.492188 30.640625 56.59375 31.714844 56.59375 C 35.753906 56.59375 38.617188 55.140625 40.300781 52.246094 C 41.011719 50.972656 41.371094 49.496094 41.371094 47.816406 Z M 41.371094 47.816406 "/>
<path style=" stroke:none;fill-rule:nonzero;fill:url(#linear0);fill-opacity:1;" d="M 32.175781 21.003906 C 32.835938 21.003906 33.703125 20.4375 34.78125 19.300781 C 35.828125 18.191406 36.382812 17.230469 36.453125 16.417969 C 36.453125 15.4375 35.910156 14.816406 34.828125 14.550781 C 34.152344 14.550781 33.539062 14.792969 32.992188 15.285156 C 32.488281 15.753906 32.214844 16.339844 32.175781 17.023438 C 32.164062 17.304688 32.28125 17.558594 32.542969 17.792969 C 32.777344 18.007812 33.082031 18.113281 33.46875 18.125 C 33.816406 18.136719 34.1875 17.9375 34.570312 17.519531 C 34.464844 18.148438 33.664062 18.972656 32.175781 19.992188 C 31.726562 20.179688 31.503906 20.382812 31.503906 20.609375 C 31.503906 20.675781 31.578125 20.761719 31.726562 20.875 C 31.761719 20.90625 31.914062 20.953125 32.175781 21.003906 Z M 32.175781 21.003906 "/>
<path style=" stroke:none;fill-rule:nonzero;fill:url(#linear0);fill-opacity:1;" d="M 30.753906 42.667969 C 30.113281 42.800781 29.375 43.527344 28.550781 44.863281 C 27.75 46.160156 27.40625 47.210938 27.507812 48.019531 C 27.707031 48.980469 28.363281 49.484375 29.476562 49.523438 C 30.136719 49.386719 30.6875 49.019531 31.117188 48.433594 C 31.523438 47.867188 31.667969 47.246094 31.566406 46.566406 C 31.523438 46.289062 31.351562 46.0625 31.050781 45.882812 C 30.777344 45.722656 30.453125 45.679688 30.074219 45.75 C 29.734375 45.804688 29.414062 46.074219 29.121094 46.566406 C 29.097656 45.925781 29.710938 44.953125 30.960938 43.660156 C 31.363281 43.386719 31.539062 43.140625 31.492188 42.917969 C 31.484375 42.855469 31.390625 42.78125 31.222656 42.703125 C 31.179688 42.675781 31.023438 42.664062 30.753906 42.667969 Z M 30.753906 42.667969 "/>
</g>
</svg>
