<svg xmlns="http://www.w3.org/2000/svg" xmlns:xlink="http://www.w3.org/1999/xlink" width="64" height="64" viewBox="0 0 64 64" version="1.1">
<defs> <linearGradient id="linear0" gradientUnits="userSpaceOnUse" x1="0" y1="0" x2="0" y2="1" gradientTransform="matrix(55.992188,0,0,56,4.003906,4)"> <stop offset="0" style="stop-color:#ff6666;stop-opacity:1;"/> <stop offset="1" style="stop-color:#d90000;stop-opacity:1;"/> </linearGradient> </defs>
<g id="surface1">
<path style=" stroke:none;fill-rule:nonzero;fill:url(#linear0);fill-opacity:1;" d="M 46.132812 6.261719 C 45.625 6.261719 45.125 6.289062 44.636719 6.34375 C 44.550781 6.355469 44.464844 6.378906 44.386719 6.390625 C 44.339844 6.394531 44.292969 6.394531 44.25 6.40625 C 44.136719 6.425781 44.015625 6.441406 43.898438 6.464844 C 43.730469 6.492188 43.574219 6.53125 43.414062 6.566406 C 43.089844 6.640625 42.765625 6.71875 42.453125 6.816406 C 42.261719 6.875 42.066406 6.9375 41.878906 7.007812 C 41.8125 7.03125 41.746094 7.050781 41.675781 7.082031 C 41.265625 7.238281 40.871094 7.425781 40.484375 7.625 C 40.460938 7.628906 40.445312 7.640625 40.421875 7.652344 C 40.335938 7.695312 40.246094 7.738281 40.160156 7.78125 C 40.023438 7.855469 39.894531 7.941406 39.761719 8.019531 C 39.609375 8.105469 39.46875 8.199219 39.320312 8.296875 C 39.292969 8.3125 39.261719 8.335938 39.234375 8.351562 C 39.058594 8.472656 38.882812 8.578125 38.71875 8.703125 C 38.699219 8.71875 38.6875 8.738281 38.671875 8.75 C 38.484375 8.890625 38.292969 9.039062 38.117188 9.191406 C 38.074219 9.21875 38.042969 9.246094 38.007812 9.28125 C 37.917969 9.359375 37.835938 9.445312 37.746094 9.527344 C 37.695312 9.574219 37.644531 9.613281 37.597656 9.660156 C 37.519531 9.734375 37.449219 9.804688 37.378906 9.878906 C 37.242188 10.015625 37.109375 10.152344 36.980469 10.285156 C 36.972656 10.292969 36.96875 10.296875 36.960938 10.304688 C 36.847656 10.429688 36.734375 10.554688 36.628906 10.683594 C 36.480469 10.859375 36.332031 11.035156 36.203125 11.214844 C 36.191406 11.21875 36.191406 11.230469 36.183594 11.242188 C 34.652344 13.296875 33.742188 15.847656 33.742188 18.601562 C 33.742188 19.492188 33.839844 20.371094 34.019531 21.207031 C 34.019531 21.214844 34.019531 21.21875 34.019531 21.222656 C 34.070312 21.457031 34.132812 21.683594 34.195312 21.914062 C 34.277344 22.191406 34.378906 22.464844 34.476562 22.734375 C 34.492188 22.78125 34.503906 22.820312 34.519531 22.863281 C 34.558594 22.976562 34.59375 23.089844 34.640625 23.203125 C 34.644531 23.203125 34.652344 23.203125 34.652344 23.203125 C 34.90625 23.824219 35.21875 24.425781 35.566406 24.992188 C 35.226562 25.054688 34.878906 25.074219 34.519531 25.046875 C 34.496094 25.046875 34.46875 25.035156 34.445312 25.035156 C 34.292969 25.019531 34.132812 25.007812 33.976562 24.972656 C 31.765625 24.511719 30.359375 22.371094 30.828125 20.167969 C 31.078125 18.984375 31.824219 18.039062 32.800781 17.484375 C 32.957031 15.75 33.5 14.070312 34.316406 12.53125 C 33.792969 12.34375 33.253906 12.179688 32.699219 12.0625 C 31.867188 11.886719 31.039062 11.800781 30.222656 11.796875 C 24.515625 11.761719 19.371094 15.722656 18.140625 21.5 C 17.839844 22.902344 17.800781 24.265625 17.976562 25.605469 L 2.027344 35.941406 C 1.390625 36.351562 0 41.542969 1.039062 43.140625 C 2.078125 44.722656 7.410156 45.570312 8.046875 45.15625 L 9.089844 44.484375 L 12.503906 45.203125 C 13.183594 45.34375 13.859375 44.953125 14.003906 44.28125 L 14.722656 40.875 L 18.097656 41.582031 C 18.773438 41.726562 19.453125 41.316406 19.597656 40.644531 L 20.316406 37.257812 L 23.691406 37.964844 C 24.367188 38.105469 25.046875 37.699219 25.191406 37.027344 L 25.542969 35.351562 C 26.199219 35.617188 26.90625 35.832031 27.621094 35.984375 C 34.253906 37.382812 40.773438 33.167969 42.175781 26.558594 C 43.164062 21.902344 41.339844 17.3125 37.867188 14.511719 C 37.398438 15.46875 37.09375 16.496094 36.953125 17.546875 C 38.375 18.417969 39.171875 20.128906 38.808594 21.859375 C 38.6875 22.410156 38.449219 22.914062 38.144531 23.351562 C 38.0625 23.429688 38.011719 23.507812 37.96875 23.582031 C 37.960938 23.589844 37.957031 23.59375 37.949219 23.601562 C 37.820312 23.757812 37.667969 23.898438 37.507812 24.039062 C 37.15625 23.480469 36.84375 22.886719 36.597656 22.265625 C 36.28125 21.449219 36.078125 20.585938 35.980469 19.6875 C 35.972656 19.613281 35.957031 19.539062 35.953125 19.464844 C 35.945312 19.410156 35.941406 19.347656 35.933594 19.289062 C 35.917969 19.058594 35.90625 18.839844 35.90625 18.601562 C 35.90625 16.074219 36.84375 13.757812 38.375 11.976562 C 38.546875 11.785156 38.71875 11.597656 38.894531 11.417969 C 38.917969 11.402344 38.933594 11.378906 38.957031 11.363281 C 39.132812 11.1875 39.320312 11.011719 39.511719 10.847656 C 39.550781 10.8125 39.59375 10.777344 39.632812 10.746094 C 39.976562 10.460938 40.335938 10.207031 40.722656 9.96875 C 40.828125 9.898438 40.945312 9.828125 41.058594 9.761719 C 41.070312 9.753906 41.078125 9.753906 41.085938 9.75 C 41.199219 9.683594 41.3125 9.621094 41.425781 9.558594 C 41.484375 9.527344 41.546875 9.5 41.601562 9.46875 C 41.773438 9.386719 41.941406 9.308594 42.121094 9.234375 C 42.128906 9.230469 42.148438 9.222656 42.164062 9.21875 C 42.1875 9.210938 42.210938 9.199219 42.238281 9.191406 C 42.671875 9.015625 43.113281 8.855469 43.574219 8.738281 C 43.636719 8.71875 43.703125 8.710938 43.765625 8.691406 C 44.199219 8.589844 44.640625 8.515625 45.089844 8.472656 C 45.238281 8.460938 45.382812 8.4375 45.53125 8.425781 C 45.730469 8.414062 45.929688 8.414062 46.132812 8.414062 C 51.777344 8.414062 56.351562 12.980469 56.351562 18.601562 C 56.351562 18.785156 56.34375 18.972656 56.332031 19.160156 C 56.332031 19.226562 56.328125 19.308594 56.324219 19.378906 C 56.316406 19.410156 56.3125 19.4375 56.304688 19.464844 C 56.289062 19.691406 56.265625 19.90625 56.230469 20.128906 C 56.226562 20.160156 56.226562 20.195312 56.21875 20.230469 C 56.207031 20.292969 56.1875 20.355469 56.175781 20.421875 C 56.125 20.703125 56.074219 21.003906 56 21.28125 C 55.988281 21.320312 55.976562 21.355469 55.96875 21.386719 C 55.929688 21.519531 55.878906 21.648438 55.832031 21.785156 C 55.78125 21.949219 55.71875 22.117188 55.65625 22.28125 C 55.53125 22.605469 55.390625 22.925781 55.230469 23.230469 C 55.167969 23.355469 55.105469 23.480469 55.039062 23.601562 C 54.511719 24.53125 53.828125 25.371094 53.039062 26.09375 L 53.039062 26.105469 C 52.234375 26.847656 51.308594 27.457031 50.285156 27.910156 C 50.449219 28.632812 50.558594 29.367188 50.597656 30.109375 C 51.460938 29.777344 52.277344 29.339844 53.039062 28.832031 C 53.039062 28.832031 53.050781 28.835938 53.050781 28.832031 C 53.464844 28.554688 53.859375 28.261719 54.234375 27.9375 C 54.324219 27.859375 54.410156 27.785156 54.492188 27.707031 C 54.589844 27.613281 54.679688 27.53125 54.777344 27.441406 C 54.8125 27.40625 54.839844 27.359375 54.878906 27.320312 C 55.023438 27.179688 55.15625 27.042969 55.289062 26.898438 C 55.449219 26.726562 55.601562 26.5625 55.75 26.382812 C 55.761719 26.371094 55.765625 26.355469 55.777344 26.335938 C 55.851562 26.253906 55.914062 26.148438 55.980469 26.058594 C 56.0625 25.957031 56.15625 25.863281 56.230469 25.753906 C 56.261719 25.71875 56.28125 25.6875 56.304688 25.652344 C 56.425781 25.484375 56.539062 25.3125 56.644531 25.136719 C 56.652344 25.125 56.652344 25.117188 56.65625 25.109375 C 56.789062 24.90625 56.914062 24.703125 57.027344 24.492188 C 57.042969 24.464844 57.054688 24.429688 57.070312 24.402344 C 57.292969 23.996094 57.488281 23.566406 57.664062 23.128906 C 57.714844 23 57.757812 22.875 57.808594 22.746094 C 57.851562 22.636719 57.890625 22.535156 57.925781 22.421875 C 57.929688 22.40625 57.933594 22.382812 57.941406 22.367188 C 58.007812 22.144531 58.070312 21.921875 58.132812 21.695312 C 58.152344 21.613281 58.171875 21.535156 58.191406 21.457031 C 58.203125 21.417969 58.214844 21.378906 58.21875 21.34375 C 58.265625 21.144531 58.304688 20.941406 58.339844 20.738281 C 58.371094 20.550781 58.402344 20.359375 58.429688 20.167969 C 58.453125 19.976562 58.46875 19.777344 58.484375 19.578125 C 58.492188 19.515625 58.496094 19.453125 58.496094 19.390625 C 58.515625 19.125 58.53125 18.867188 58.53125 18.601562 C 58.53125 11.785156 52.976562 6.261719 46.140625 6.261719 M 44.164062 21.648438 C 44.25 22.125 44.300781 22.597656 44.328125 23.085938 C 45.289062 32.09375 35.910156 40 27.167969 37.828125 C 27.007812 38.070312 26.8125 38.292969 26.605469 38.507812 C 26.625 38.53125 26.644531 38.550781 26.667969 38.582031 L 18.039062 55.480469 C 17.695312 56.152344 19.109375 61.328125 20.804688 62.191406 C 22.503906 63.046875 27.542969 61.132812 27.886719 60.460938 L 28.460938 59.347656 L 31.773438 58.277344 C 32.429688 58.0625 32.824219 57.363281 32.613281 56.707031 L 31.523438 53.410156 L 34.789062 52.355469 C 35.445312 52.140625 35.84375 51.441406 35.628906 50.785156 L 34.554688 47.488281 L 37.820312 46.4375 C 38.480469 46.222656 38.859375 45.535156 38.644531 44.882812 L 38.117188 43.253906 C 38.8125 43.15625 39.539062 42.992188 40.234375 42.769531 C 46.683594 40.679688 50.210938 33.769531 48.109375 27.347656 C 47.347656 25.019531 45.945312 23.085938 44.164062 21.648438 M 18.851562 28.785156 C 19.210938 29.632812 19.664062 30.429688 20.203125 31.179688 L 6.695312 39.984375 C 6.058594 40.394531 5.175781 40.210938 4.761719 39.574219 C 4.347656 38.9375 4.542969 38.066406 5.175781 37.652344 L 18.851562 28.785156 M 29.035156 40.894531 C 29.773438 41.449219 30.5625 41.910156 31.402344 42.285156 L 24.121094 56.632812 C 23.777344 57.304688 22.925781 57.59375 22.25 57.25 C 21.574219 56.910156 21.289062 56.0625 21.636719 55.386719 L 29.035156 40.894531 "/>
</g>
</svg>
