<svg xmlns="http://www.w3.org/2000/svg" xmlns:xlink="http://www.w3.org/1999/xlink" width="64" height="64" viewBox="0 0 64 64" version="1.1">
<defs> <linearGradient id="linear0" gradientUnits="userSpaceOnUse" x1="0" y1="0" x2="0" y2="1" gradientTransform="matrix(55.992188,0,0,56,4.003906,4)"> <stop offset="0" style="stop-color:#ff6666;stop-opacity:1;"/> <stop offset="1" style="stop-color:#d90000;stop-opacity:1;"/> </linearGradient> </defs>
<g id="surface1">
<path style=" stroke:none;fill-rule:nonzero;fill:url(#linear0);fill-opacity:1;" d="M 5.882812 46.847656 L 18.585938 36.300781 C 20.386719 39.054688 22.75 41.410156 25.507812 43.203125 L 14.921875 55.851562 C 13.742188 57.261719 11.714844 57.355469 10.414062 56.054688 L 5.671875 51.339844 C 4.371094 50.042969 4.46875 48.019531 5.882812 46.847656 "/>
<path style=" stroke:none;fill-rule:nonzero;fill:url(#linear0);fill-opacity:1;" d="M 18.148438 23.628906 C 18.148438 12.578125 27.144531 3.621094 38.242188 3.621094 C 49.332031 3.621094 58.332031 12.578125 58.332031 23.628906 C 58.332031 34.679688 49.335938 43.636719 38.242188 43.636719 C 27.144531 43.636719 18.148438 34.679688 18.148438 23.628906 M 38.242188 38.632812 C 46.546875 38.632812 53.308594 31.902344 53.308594 23.628906 C 53.308594 15.355469 46.546875 8.617188 38.242188 8.617188 C 29.933594 8.617188 23.167969 15.355469 23.167969 23.628906 C 23.167969 31.902344 29.933594 38.632812 38.242188 38.632812 "/>
</g>
</svg>
