<svg xmlns="http://www.w3.org/2000/svg" xmlns:xlink="http://www.w3.org/1999/xlink" width="64" height="64" viewBox="0 0 64 64" version="1.1">
<defs> <linearGradient id="linear0" gradientUnits="userSpaceOnUse" x1="0" y1="0" x2="0" y2="1" gradientTransform="matrix(55.992188,0,0,56,4.003906,4)"> <stop offset="0" style="stop-color:#ff6666;stop-opacity:1;"/> <stop offset="1" style="stop-color:#d90000;stop-opacity:1;"/> </linearGradient> </defs>
<g id="surface1">
<path style=" stroke:none;fill-rule:evenodd;fill:url(#linear0);fill-opacity:1;" d="M 20.429688 2.488281 L 20.429688 4.214844 C 20.429688 4.875 19.898438 5.410156 19.234375 5.410156 L 16.507812 5.410156 C 15.84375 5.410156 15.308594 4.875 15.308594 4.214844 L 15.308594 3.550781 C 13.054688 4.878906 11.550781 7.328125 11.550781 10.132812 L 11.550781 13.125 C 14.785156 10.777344 18.683594 9.359375 22.742188 9.363281 C 23.976562 9.335938 25.21875 9.410156 26.433594 9.625 C 35.246094 10.886719 42.464844 18.644531 43.316406 27.417969 C 44.53125 37.015625 37.621094 46.621094 28.3125 48.988281 C 23.550781 50.460938 18.578125 48.980469 13.753906 48.78125 C 12.945312 48.671875 12.21875 48.804688 11.550781 49.101562 L 11.550781 53.882812 C 11.550781 56.695312 13.054688 59.136719 15.308594 60.46875 C 15.34375 59.832031 15.863281 59.332031 16.507812 59.332031 L 19.234375 59.332031 C 19.898438 59.332031 20.429688 59.867188 20.429688 60.53125 L 20.429688 61.53125 L 49.507812 61.53125 L 49.507812 60.53125 C 49.507812 59.867188 50.042969 59.332031 50.707031 59.332031 L 53.433594 59.332031 C 54.078125 59.332031 54.601562 59.832031 54.628906 60.46875 C 56.882812 59.136719 58.390625 56.695312 58.390625 53.890625 L 58.390625 10.140625 C 58.390625 7.328125 56.882812 4.886719 54.628906 3.558594 L 54.628906 4.21875 C 54.628906 4.878906 54.097656 5.417969 53.433594 5.417969 L 50.707031 5.417969 C 50.042969 5.417969 49.507812 4.878906 49.507812 4.21875 L 49.507812 2.492188 L 20.429688 2.492188 M 50.707031 10.847656 L 53.433594 10.847656 C 54.097656 10.847656 54.628906 11.378906 54.628906 12.039062 L 54.628906 13.917969 C 54.628906 14.578125 54.097656 15.117188 53.433594 15.117188 L 50.707031 15.117188 C 50.042969 15.117188 49.507812 14.578125 49.507812 13.917969 L 49.507812 12.039062 C 49.507812 11.378906 50.042969 10.847656 50.707031 10.847656 M 50.707031 20.546875 L 53.433594 20.546875 C 54.097656 20.546875 54.628906 21.078125 54.628906 21.738281 L 54.628906 23.617188 C 54.628906 24.277344 54.097656 24.816406 53.433594 24.816406 L 50.707031 24.816406 C 50.042969 24.816406 49.507812 24.277344 49.507812 23.617188 L 49.507812 21.738281 C 49.507812 21.078125 50.042969 20.546875 50.707031 20.546875 M 50.707031 30.246094 L 53.433594 30.246094 C 54.097656 30.246094 54.628906 30.777344 54.628906 31.4375 L 54.628906 33.316406 C 54.628906 33.976562 54.097656 34.507812 53.433594 34.507812 L 50.707031 34.507812 C 50.042969 34.507812 49.507812 33.976562 49.507812 33.316406 L 49.507812 31.4375 C 49.507812 30.777344 50.042969 30.246094 50.707031 30.246094 M 50.707031 39.9375 L 53.433594 39.9375 C 54.097656 39.9375 54.628906 40.476562 54.628906 41.136719 L 54.628906 43.015625 C 54.628906 43.675781 54.097656 44.207031 53.433594 44.207031 L 50.707031 44.207031 C 50.042969 44.207031 49.507812 43.675781 49.507812 43.015625 L 49.507812 41.136719 C 49.507812 40.476562 50.042969 39.9375 50.707031 39.9375 M 16.507812 49.636719 L 19.234375 49.636719 C 19.898438 49.636719 20.429688 50.175781 20.429688 50.835938 L 20.429688 52.714844 C 20.429688 53.375 19.898438 53.90625 19.234375 53.90625 L 16.507812 53.90625 C 15.84375 53.90625 15.308594 53.375 15.308594 52.714844 L 15.308594 50.835938 C 15.308594 50.175781 15.84375 49.636719 16.507812 49.636719 M 50.707031 49.636719 L 53.433594 49.636719 C 54.097656 49.636719 54.628906 50.175781 54.628906 50.835938 L 54.628906 52.714844 C 54.628906 53.375 54.097656 53.90625 53.433594 53.90625 L 50.707031 53.90625 C 50.042969 53.90625 49.507812 53.375 49.507812 52.714844 L 49.507812 50.835938 C 49.507812 50.175781 50.042969 49.636719 50.707031 49.636719 "/>
<path style=" stroke:none;fill-rule:nonzero;fill:url(#linear0);fill-opacity:1;" d="M 23.230469 11.527344 C 13.277344 11.527344 5.25 19.589844 5.25 29.503906 C 5.25 30.359375 5.269531 31.171875 5.382812 31.992188 C 5.386719 32.007812 5.371094 32.042969 5.382812 32.054688 C 5.945312 36.414062 7.371094 40.644531 4.933594 43.691406 L 1.042969 47.566406 C 0.0664062 48.652344 0.105469 50.308594 1.152344 51.34375 L 1.484375 51.679688 C 2.53125 52.71875 4.1875 52.753906 5.28125 51.785156 L 5.28125 51.792969 L 5.386719 51.679688 L 9.167969 47.917969 C 12.355469 45.484375 16.570312 46.996094 21.242188 47.402344 C 21.890625 47.476562 22.5625 47.410156 23.230469 47.410156 C 23.566406 47.410156 23.859375 47.421875 24.195312 47.402344 C 33.6875 46.882812 41.210938 39.015625 41.210938 29.4375 C 41.210938 24.480469 39.210938 20.085938 35.945312 16.835938 C 32.6875 13.589844 28.207031 11.53125 23.230469 11.53125 L 23.230469 11.527344 M 23.230469 16.328125 C 26.886719 16.328125 30.210938 17.773438 32.605469 20.160156 C 35.003906 22.546875 36.457031 25.855469 36.457031 29.5 C 36.457031 36.78125 30.546875 42.675781 23.230469 42.675781 C 15.917969 42.675781 10 36.71875 10 29.4375 C 10 22.152344 15.917969 16.328125 23.230469 16.328125 "/>
</g>
</svg>
