<svg xmlns="http://www.w3.org/2000/svg" xmlns:xlink="http://www.w3.org/1999/xlink" width="64" height="64" viewBox="0 0 64 64" version="1.1">
<defs>
<linearGradient id="linear0" gradientUnits="userSpaceOnUse" x1="0" y1="0" x2="0" y2="1" gradientTransform="matrix(64,0,0,46.9375,0,8.53125)">
<stop offset="0" style="stop-color:#ff6666;stop-opacity:1;"/>
<stop offset="1" style="stop-color:#d90000;stop-opacity:1;"/>
</linearGradient>
</defs>
<g id="surface1">
<path style=" stroke:none;fill-rule:nonzero;fill:url(#linear0);" d="M 12.800781 8.53125 L 12.800781 12.800781 L 25.601562 12.800781 L 25.601562 17.066406 L 8.53125 17.066406 L 8.53125 29.867188 L 4.269531 29.867188 L 4.269531 17.066406 L 0 17.066406 L 0 46.933594 L 4.269531 46.933594 L 4.269531 34.132812 L 8.53125 34.132812 L 8.53125 46.933594 L 17.066406 55.46875 L 44.800781 55.46875 L 49.066406 51.199219 L 55.46875 51.199219 L 55.46875 55.46875 L 59.730469 55.46875 L 64 51.199219 L 64 25.601562 L 59.730469 21.332031 L 55.46875 21.332031 L 55.46875 25.601562 L 51.730469 25.601562 L 43.199219 17.066406 L 29.867188 17.066406 L 29.867188 12.800781 L 42.667969 12.800781 L 42.667969 8.53125 Z M 12.800781 21.332031 L 40.53125 21.332031 L 49.066406 29.867188 L 59.730469 29.867188 L 59.730469 46.933594 L 46.933594 46.933594 L 42.667969 51.199219 L 19.730469 51.199219 L 12.800781 43.949219 Z M 12.800781 21.332031 "/>
</g>
</svg>
