<svg xmlns="http://www.w3.org/2000/svg" xmlns:xlink="http://www.w3.org/1999/xlink" width="64" height="64" viewBox="0 0 64 64" version="1.1">
<defs>
<linearGradient id="linear0" gradientUnits="userSpaceOnUse" x1="0" y1="0" x2="0" y2="1" gradientTransform="matrix(63.992188,0,0,64,0.00390625,0)">
<stop offset="0" style="stop-color:#ff6666;stop-opacity:1;"/>
<stop offset="1" style="stop-color:#d90000;stop-opacity:1;"/>
</linearGradient>
</defs>
<g id="surface1">
<path style=" stroke:none;fill-rule:nonzero;fill:url(#linear0);" d="M 32.011719 0 L 32.003906 0.0117188 L 31.996094 0.0195312 C 28.144531 8.707031 25.167969 17.5625 23.476562 22.988281 C 17.910156 22.996094 8.742188 23.214844 0.00390625 24.40625 L 0.0117188 24.414062 L 0.0117188 24.425781 L 0.0195312 24.433594 L 0.0195312 24.445312 C 6.691406 30.980469 13.78125 36.6875 18.167969 40.054688 C 16.453125 45.621094 13.816406 54.859375 12.195312 63.960938 L 12.226562 63.960938 C 20.199219 59.3125 27.558594 53.984375 31.960938 50.640625 C 36.46875 54.074219 44.015625 59.566406 51.753906 64 L 51.753906 63.972656 L 51.761719 63.960938 C 50.019531 54.550781 47.46875 45.546875 45.800781 40.109375 C 50.304688 36.667969 57.59375 30.824219 63.996094 24.460938 L 63.988281 24.453125 L 63.980469 24.453125 L 63.972656 24.441406 L 63.972656 24.433594 C 54.921875 23.265625 45.992188 23.03125 40.5625 23.015625 C 38.835938 17.453125 35.792969 8.363281 32.015625 0 Z M 32.019531 13.164062 C 32.023438 13.171875 32.023438 13.183594 32.027344 13.191406 L 32.027344 44.75 L 31.972656 44.710938 L 29.296875 46.746094 C 27.121094 48.398438 22.921875 51.007812 19.566406 53.308594 C 20.628906 49.207031 21.660156 44.289062 22.511719 41.535156 L 23.527344 38.234375 L 20.859375 36.179688 C 18.695312 34.515625 15.035156 31.125 11.914062 28.484375 C 15.953125 28.277344 20.726562 27.792969 23.484375 27.789062 L 26.78125 27.78125 L 27.816406 24.480469 C 28.652344 21.800781 30.59375 17.097656 32.015625 13.164062 Z M 32.019531 13.164062 "/>
</g>
</svg>
