<svg xmlns="http://www.w3.org/2000/svg" xmlns:xlink="http://www.w3.org/1999/xlink" width="64" height="64" viewBox="0 0 64 64" version="1.1">
<defs> <linearGradient id="linear0" gradientUnits="userSpaceOnUse" x1="0" y1="0" x2="0" y2="1" gradientTransform="matrix(55.992188,0,0,56,4.003906,4)"> <stop offset="0" style="stop-color:#ff6666;stop-opacity:1;"/> <stop offset="1" style="stop-color:#d90000;stop-opacity:1;"/> </linearGradient> </defs>
<g id="surface1">
<path style=" stroke:none;fill-rule:nonzero;fill:url(#linear0);fill-opacity:1;" d="M 30.425781 7.273438 C 27.042969 7.273438 24.296875 9.160156 24.296875 11.496094 C 24.402344 12.367188 24.953125 13.464844 25.242188 13.84375 C 26.65625 15.722656 26.65625 16.890625 26.304688 17.597656 L 14.878906 17.597656 C 12.789062 17.597656 11.105469 19.273438 11.105469 21.347656 L 11.105469 30.855469 C 11.808594 31.207031 12.992188 31.207031 14.878906 29.796875 C 15.25 29.507812 16.359375 28.960938 17.234375 28.859375 C 19.574219 28.859375 21.476562 31.589844 21.476562 34.960938 C 21.476562 38.332031 19.574219 41.0625 17.234375 41.0625 C 16.511719 41.050781 15.421875 40.414062 14.878906 40.125 C 12.992188 38.714844 11.808594 38.714844 11.105469 39.066406 L 11.105469 51.390625 C 11.105469 53.472656 12.789062 55.144531 14.878906 55.144531 L 30.074219 55.144531 C 30.425781 54.4375 30.425781 53.269531 29.011719 51.390625 C 28.722656 51.011719 28.171875 49.914062 28.070312 49.042969 C 28.070312 46.707031 30.8125 44.820312 34.195312 44.820312 C 37.582031 44.820312 40.324219 46.707031 40.324219 49.042969 C 40.3125 49.761719 39.671875 50.847656 39.382812 51.390625 C 37.96875 53.269531 37.96875 54.4375 38.320312 55.144531 L 45.039062 55.144531 C 47.128906 55.144531 48.808594 53.472656 48.808594 51.390625 L 48.808594 40.945312 C 49.511719 40.59375 50.695312 40.59375 52.578125 42.003906 C 53.125 42.289062 54.214844 42.929688 54.9375 42.941406 C 57.277344 42.941406 59.179688 40.210938 59.179688 36.839844 C 59.179688 33.46875 57.277344 30.738281 54.9375 30.738281 C 54.0625 30.839844 52.960938 31.386719 52.578125 31.675781 C 50.695312 33.082031 49.511719 33.082031 48.808594 32.734375 L 48.808594 21.355469 C 48.808594 19.273438 47.128906 17.597656 45.039062 17.597656 L 34.554688 17.597656 C 34.195312 16.890625 34.195312 15.722656 35.609375 13.84375 C 35.902344 13.300781 36.542969 12.214844 36.554688 11.496094 C 36.554688 9.160156 33.8125 7.273438 30.425781 7.273438 "/>
</g>
</svg>
