<svg xmlns="http://www.w3.org/2000/svg" xmlns:xlink="http://www.w3.org/1999/xlink" width="64" height="64" viewBox="0 0 64 64" version="1.1">
<defs>
<linearGradient id="linear0" gradientUnits="userSpaceOnUse" x1="0" y1="0" x2="0" y2="1" gradientTransform="matrix(59.734375,0,0,64,2.132812,0)">
<stop offset="0" style="stop-color:#ff6666;stop-opacity:1;"/>
<stop offset="1" style="stop-color:#d90000;stop-opacity:1;"/>
</linearGradient>
</defs>
<g id="surface1">
<path style=" stroke:none;fill-rule:nonzero;fill:url(#linear0);" d="M 61.867188 10.667969 C 61.867188 4.800781 57.066406 0 51.199219 0 C 45.335938 0 40.535156 4.800781 40.535156 10.667969 C 40.535156 16.53125 45.335938 21.332031 51.199219 21.332031 C 57.066406 21.332031 61.867188 16.53125 61.867188 10.667969 Z M 61.867188 53.332031 C 61.867188 47.46875 57.066406 42.667969 51.199219 42.667969 C 45.335938 42.667969 40.535156 47.46875 40.535156 53.332031 C 40.535156 59.199219 45.335938 64 51.199219 64 C 57.066406 64 61.867188 59.199219 61.867188 53.332031 Z M 57.601562 10.667969 C 57.601562 14.226562 54.761719 17.066406 51.199219 17.066406 C 47.640625 17.066406 44.800781 14.226562 44.800781 10.667969 C 44.800781 7.105469 47.640625 4.265625 51.199219 4.265625 C 54.761719 4.265625 57.601562 7.105469 57.601562 10.667969 Z M 57.601562 53.332031 C 57.601562 56.894531 54.761719 59.734375 51.199219 59.734375 C 47.640625 59.734375 44.800781 56.894531 44.800781 53.332031 C 44.800781 49.773438 47.640625 46.933594 51.199219 46.933594 C 54.761719 46.933594 57.601562 49.773438 57.601562 53.332031 Z M 39.398438 19.667969 C 38.53125 18.535156 37.8125 17.300781 37.292969 15.949219 L 20.851562 25.089844 C 18.890625 22.8125 16.023438 21.332031 12.800781 21.332031 C 6.933594 21.332031 2.132812 26.132812 2.132812 32 C 2.132812 37.867188 6.933594 42.667969 12.800781 42.667969 C 16.023438 42.667969 18.890625 41.1875 20.851562 38.910156 L 37.292969 48.050781 C 37.8125 46.699219 38.53125 45.464844 39.398438 44.332031 L 22.925781 35.183594 C 23.246094 34.171875 23.464844 33.113281 23.464844 32 C 23.464844 30.886719 23.246094 29.828125 22.925781 28.816406 Z M 19.199219 32 C 19.199219 35.558594 16.359375 38.398438 12.800781 38.398438 C 9.238281 38.398438 6.398438 35.558594 6.398438 32 C 6.398438 28.441406 9.238281 25.601562 12.800781 25.601562 C 16.359375 25.601562 19.199219 28.441406 19.199219 32 Z M 19.199219 32 "/>
</g>
</svg>
