<svg xmlns="http://www.w3.org/2000/svg" xmlns:xlink="http://www.w3.org/1999/xlink" width="64" height="64" viewBox="0 0 64 64" version="1.1">
<defs>
<linearGradient id="linear0" gradientUnits="userSpaceOnUse" x1="0" y1="0" x2="0" y2="1" gradientTransform="matrix(64,0,0,64.003906,0,-0.00390625)">
<stop offset="0" style="stop-color:#ff6666;stop-opacity:1;"/>
<stop offset="1" style="stop-color:#d90000;stop-opacity:1;"/>
</linearGradient>
</defs>
<g id="surface1">
<path style=" stroke:none;fill-rule:evenodd;fill:url(#linear0);" d="M 5.828125 0 C 4.300781 -0.0390625 2.816406 0.472656 1.71875 1.414062 C 0.621094 2.363281 0 3.664062 0 5.019531 L 0 58.976562 C 0 60.773438 1.078125 62.433594 2.832031 63.328125 C 4.585938 64.222656 6.738281 64.222656 8.492188 63.328125 L 34.828125 49.835938 L 61.167969 36.347656 C 62.921875 35.449219 64 33.792969 64 31.996094 C 64 30.199219 62.921875 28.542969 61.167969 27.648438 L 34.828125 14.160156 L 8.492188 0.671875 C 7.679688 0.257812 6.765625 0.0234375 5.828125 0 Z M 29.503906 18.285156 C 30.15625 18.269531 30.792969 18.488281 31.265625 18.890625 C 31.734375 19.296875 32 19.855469 32 20.4375 L 32 43.558594 C 32 44.328125 31.539062 45.039062 30.789062 45.425781 C 30.035156 45.808594 29.113281 45.808594 28.359375 45.425781 L 17.070312 39.640625 L 5.785156 33.859375 C 5.03125 33.476562 4.570312 32.769531 4.570312 31.996094 C 4.570312 31.226562 5.03125 30.515625 5.785156 30.132812 L 17.070312 24.351562 L 28.359375 18.570312 C 28.707031 18.390625 29.101562 18.296875 29.5 18.285156 Z M 29.503906 18.285156 "/>
</g>
</svg>
