<svg xmlns="http://www.w3.org/2000/svg" xmlns:xlink="http://www.w3.org/1999/xlink" width="64" height="64" viewBox="0 0 64 64" version="1.1">
<defs> <linearGradient id="linear0" gradientUnits="userSpaceOnUse" x1="0" y1="0" x2="0" y2="1" gradientTransform="matrix(55.992188,0,0,56,4.003906,4)"> <stop offset="0" style="stop-color:#ff6666;stop-opacity:1;"/> <stop offset="1" style="stop-color:#d90000;stop-opacity:1;"/> </linearGradient> </defs>
<g id="surface1">
<path style=" stroke:none;fill-rule:nonzero;fill:url(#linear0);fill-opacity:1;" d="M 14.058594 5.832031 C 0.792969 12.214844 -4.964844 31.855469 19.429688 40.519531 C 9.273438 20.332031 14.058594 5.832031 14.058594 5.832031 Z M 11.214844 10.484375 C 11.214844 10.484375 8.753906 21.089844 15.195312 35.613281 C 0.667969 29.753906 3.574219 15.394531 11.214844 10.484375 Z M -4.597656 29.378906 C -8.054688 43.640625 3.542969 60.53125 25.753906 47.257812 C 3.636719 42.261719 -4.597656 29.378906 -4.597656 29.378906 Z M -3.140625 34.289062 C -3.140625 34.289062 5.160156 44.277344 20.316406 47.699219 C 4.667969 54.464844 -3.386719 43.425781 -3.140625 34.289062 Z M 36.796875 46.058594 C 30.511719 74.253906 7.898438 72.203125 1.191406 56.554688 C 1.191406 56.554688 16.746094 59.851562 36.796875 46.058594 Z M 43.0625 38.359375 C 39.695312 63.078125 31.941406 67.257812 26.882812 74.640625 C 42.386719 71.433594 58.902344 64.371094 43.0625 38.359375 Z M 39.230469 27.863281 C 71.246094 28.476562 65.914062 51.066406 57.90625 61.445312 C 57.90625 61.445312 52.238281 38.246094 39.230469 27.863281 Z M 28.394531 25.679688 C 43.449219 0.710938 65.425781 11.773438 66.027344 29.960938 C 66.027344 29.960938 50.671875 20.6875 28.394531 25.679688 Z M 19.359375 29.960938 C 16.648438 -2.238281 24.777344 -13.398438 68.132812 -9.574219 C 68.132812 -9.574219 28.394531 13.378906 19.359375 29.960938 Z M 19.359375 29.960938 "/>
</g>
</svg>
