<svg xmlns="http://www.w3.org/2000/svg" xmlns:xlink="http://www.w3.org/1999/xlink" width="64" height="64" viewBox="0 0 64 64" version="1.1">
<defs>
<linearGradient id="linear0" gradientUnits="userSpaceOnUse" x1="0" y1="0" x2="0" y2="1" gradientTransform="matrix(37.992188,0,0,55.199219,13.003906,4.800781)">
<stop offset="0" style="stop-color:#ff6666;stop-opacity:1;"/>
<stop offset="1" style="stop-color:#d90000;stop-opacity:1;"/>
</linearGradient>
</defs>
<g id="surface1">
<path style=" stroke:none;fill-rule:nonzero;fill:url(#linear0);" d="M 26.453125 43.558594 C 27.679688 43.125 30.214844 43.703125 30.683594 46.144531 C 32.257812 44.144531 32.957031 41.636719 29.925781 39.300781 C 29.144531 38.699219 28.019531 38.070312 26.628906 37.78125 C 24.320312 37.296875 22.941406 37.324219 21.046875 38.34375 C 19.160156 39.367188 17.71875 41.550781 17.5 43.105469 C 17.140625 45.621094 18.171875 50.710938 21.808594 53.753906 C 25.523438 57.519531 31.4375 57.789062 33.472656 57.554688 C 43.285156 56.4375 50.222656 47.761719 43.109375 39.300781 C 40.613281 36.511719 36.644531 34.953125 33.472656 33.46875 C 27.730469 30.789062 22.378906 29.078125 19.277344 26.367188 C 16.277344 23.753906 15.3125 20.28125 15.722656 16.480469 C 16.105469 13.011719 18.191406 10.050781 20.539062 8.117188 C 25.867188 3.722656 33.746094 3.839844 41.839844 7.609375 L 46.402344 6.59375 C 46.976562 6.769531 47.398438 7.28125 47.671875 8.117188 C 47.785156 8.695312 47.078125 9.257812 47.164062 9.800781 C 49.230469 16.65625 47.503906 21.492188 43.109375 22.820312 L 41.839844 22.3125 C 43.351562 19.144531 43.351562 16.105469 41.839844 13.183594 C 38.507812 9.160156 34.789062 7.21875 30.683594 7.355469 C 17.863281 7.78125 18.550781 20.894531 28.90625 23.835938 C 30.488281 24.636719 38.277344 27.351562 40.824219 28.605469 C 44.316406 30.3125 46.765625 32.105469 48.175781 33.976562 C 52.335938 40.976562 52.019531 49.789062 46.402344 55.273438 C 40.851562 60.695312 29.441406 61.207031 20.539062 58.058594 L 16.230469 58.824219 C 15.441406 58.777344 14.9375 58.523438 14.710938 58.058594 L 14.457031 53.753906 C 10.253906 44.539062 15.761719 35.679688 23.332031 35.242188 C 27.289062 35.015625 32.113281 37.328125 33.472656 40.820312 C 34.84375 44.335938 32.179688 48.964844 29.925781 49.949219 C 27.664062 50.933594 23.714844 49.109375 24.34375 46.144531 C 24.597656 44.957031 25.460938 43.910156 26.453125 43.558594 Z M 26.453125 43.558594 "/>
</g>
</svg>
