<svg xmlns="http://www.w3.org/2000/svg" xmlns:xlink="http://www.w3.org/1999/xlink" width="64" height="64" viewBox="0 0 64 64" version="1.1">
<defs>
<linearGradient id="linear0" gradientUnits="userSpaceOnUse" x1="0" y1="0" x2="0" y2="1" gradientTransform="matrix(64,0,0,64,0,0)">
<stop offset="0" style="stop-color:#ff6666;stop-opacity:1;"/>
<stop offset="1" style="stop-color:#d90000;stop-opacity:1;"/>
</linearGradient>
</defs>
<g id="surface1">
<path style=" stroke:none;fill-rule:evenodd;fill:url(#linear0);" d="M 16 32 C 7.164062 32 0 24.835938 0 16 C 0 7.164062 7.164062 0 16 0 C 24.835938 0 32 7.164062 32 16 C 32 7.164062 39.164062 0 48 0 C 56.835938 0 64 7.164062 64 16 C 64 24.835938 56.835938 32 48 32 C 56.835938 32 64 39.164062 64 48 C 64 56.835938 56.835938 64 48 64 C 39.164062 64 32 56.835938 32 48 C 32 56.835938 24.835938 64 16 64 C 7.164062 64 0 56.835938 0 48 C 0 39.164062 7.164062 32 16 32 Z M 44.570312 32 C 44.570312 38.941406 38.941406 44.570312 32 44.570312 C 25.058594 44.570312 19.429688 38.941406 19.429688 32 C 19.429688 25.058594 25.058594 19.429688 32 19.429688 C 38.941406 19.429688 44.570312 25.058594 44.570312 32 Z M 44.570312 32 "/>
</g>
</svg>
