<svg xmlns="http://www.w3.org/2000/svg" xmlns:xlink="http://www.w3.org/1999/xlink" width="64" height="64" viewBox="0 0 64 64" version="1.1">
<defs>
<linearGradient id="linear0" gradientUnits="userSpaceOnUse" x1="0" y1="0" x2="0" y2="1" gradientTransform="matrix(64,0,0,40,0,12)">
<stop offset="0" style="stop-color:#ff6666;stop-opacity:1;"/>
<stop offset="1" style="stop-color:#d90000;stop-opacity:1;"/>
</linearGradient>
</defs>
<g id="surface1">
<path style=" stroke:none;fill-rule:nonzero;fill:url(#linear0);" d="M 12 12 C 9.371094 12 7.285156 12.238281 5.53125 12.898438 C 3.777344 13.558594 2.371094 14.746094 1.539062 16.25 C -0.121094 19.261719 0.0585938 22.945312 0 27.976562 L 0 36.023438 C 0.0585938 41.054688 -0.121094 44.738281 1.539062 47.75 C 2.371094 49.253906 3.777344 50.441406 5.53125 51.101562 C 7.285156 51.757812 9.371094 52 12 52 L 36 52 C 38.628906 52 40.714844 51.761719 42.46875 51.101562 C 44.222656 50.441406 45.628906 49.253906 46.460938 47.75 C 48.058594 44.855469 47.945312 41.277344 47.984375 36.539062 C 54.203125 40.078125 59.84375 43.15625 64 45.125 L 64 18.875 C 59.925781 20.804688 54.269531 23.894531 47.984375 27.46875 C 47.941406 22.726562 48.058594 19.144531 46.460938 16.25 C 45.628906 14.746094 44.222656 13.558594 42.46875 12.898438 C 40.714844 12.242188 38.628906 12 36 12 Z M 12 16 L 36 16 C 38.371094 16 40.023438 16.25 41.0625 16.640625 C 42.101562 17.03125 42.546875 17.445312 42.953125 18.179688 C 43.761719 19.644531 43.941406 22.964844 44 28 L 44 35.976562 C 43.941406 41.03125 43.761719 44.34375 42.953125 45.8125 C 42.546875 46.546875 42.101562 46.96875 41.0625 47.359375 C 40.023438 47.75 38.371094 48 36 48 L 12 48 C 9.628906 48 7.976562 47.75 6.9375 47.359375 C 5.898438 46.96875 5.453125 46.546875 5.046875 45.8125 C 4.238281 44.347656 4.058594 41.035156 4 36 L 4 28 C 4.058594 22.964844 4.238281 19.644531 5.046875 18.179688 C 5.453125 17.445312 5.898438 17.03125 6.9375 16.640625 C 7.976562 16.25 9.628906 16 12 16 Z M 12 16 "/>
</g>
</svg>
