<svg xmlns="http://www.w3.org/2000/svg" xmlns:xlink="http://www.w3.org/1999/xlink" width="64" height="64" viewBox="0 0 64 64" version="1.1">
<defs> <linearGradient id="linear0" gradientUnits="userSpaceOnUse" x1="0" y1="0" x2="0" y2="1" gradientTransform="matrix(55.992188,0,0,56,4.003906,4)"> <stop offset="0" style="stop-color:#ff6666;stop-opacity:1;"/> <stop offset="1" style="stop-color:#d90000;stop-opacity:1;"/> </linearGradient> </defs>
<g id="surface1">
<path style=" stroke:none;fill-rule:nonzero;fill:url(#linear0);fill-opacity:1;" d="M 33.636719 4.722656 C 30.433594 4.722656 25.628906 7.910156 25.628906 14.289062 C 25.628906 25.449219 51.246094 19.074219 51.246094 42.988281 C 51.246094 43.648438 51.199219 44.308594 51.136719 44.972656 C 55.3125 40.550781 57.644531 34.707031 57.652344 28.640625 C 57.65625 15.433594 46.894531 4.722656 33.636719 4.722656 Z M 16.121094 12.316406 C 11.953125 16.738281 9.625 22.574219 9.617188 28.640625 C 9.605469 41.851562 20.367188 52.554688 33.636719 52.554688 C 36.835938 52.554688 41.636719 49.367188 41.636719 42.988281 C 41.636719 27.042969 16.023438 35.019531 16.023438 14.289062 C 16.023438 13.628906 16.058594 12.972656 16.121094 12.316406 Z M 16.121094 12.316406 "/>
</g>
</svg>
