<svg xmlns="http://www.w3.org/2000/svg" xmlns:xlink="http://www.w3.org/1999/xlink" width="64" height="64" viewBox="0 0 64 64" version="1.1">
<defs> <linearGradient id="linear0" gradientUnits="userSpaceOnUse" x1="0" y1="0" x2="0" y2="1" gradientTransform="matrix(55.992188,0,0,56,4.003906,4)"> <stop offset="0" style="stop-color:#ff6666;stop-opacity:1;"/> <stop offset="1" style="stop-color:#d90000;stop-opacity:1;"/> </linearGradient> </defs>
<g id="surface1">
<path style=" stroke:none;fill-rule:nonzero;fill:url(#linear0);fill-opacity:1;" d="M 12.570312 43.941406 C 9.023438 43.632812 6.160156 42.390625 4.144531 40.28125 C 1.902344 37.9375 0.742188 34.703125 0.59375 30.375 C 0.53125 28.65625 0.703125 27.460938 1.214844 25.933594 C 2.859375 21.015625 7.613281 17.136719 13.394531 15.980469 C 15.332031 15.597656 17.699219 15.519531 19.265625 15.785156 C 24.054688 16.59375 29.574219 19.839844 35.277344 25.183594 C 35.878906 25.75 36.382812 26.210938 36.402344 26.210938 C 36.417969 26.210938 36.710938 25.863281 37.058594 25.4375 C 37.972656 24.296875 38.457031 23.765625 39.632812 22.566406 C 43.304688 18.832031 46.765625 16.761719 50.007812 16.359375 C 51.113281 16.21875 53.5 16.378906 54.855469 16.683594 C 60.015625 17.835938 63.710938 21 65.191406 25.515625 C 65.722656 27.132812 65.902344 28.34375 65.898438 30.3125 C 65.890625 32.890625 65.488281 34.769531 64.5 36.800781 C 63.8125 38.203125 63.035156 39.277344 61.933594 40.328125 C 59.921875 42.246094 57.464844 43.410156 54.476562 43.855469 C 53.410156 44.019531 51.1875 44.019531 50.167969 43.863281 C 45.988281 43.21875 41.550781 41.109375 36.917969 37.550781 C 35.519531 36.484375 33.753906 34.96875 32.9375 34.128906 C 32.742188 33.9375 32.5625 33.78125 32.539062 33.78125 C 32.511719 33.78125 31.804688 34.457031 30.972656 35.296875 C 28.738281 37.523438 27.082031 38.898438 24.859375 40.339844 C 20.535156 43.160156 16.65625 44.296875 12.570312 43.941406 Z M 56.039062 39.882812 C 58.507812 39.621094 60.757812 38.277344 62.105469 36.246094 C 62.984375 34.910156 63.433594 33.128906 63.257812 31.660156 C 62.945312 28.984375 60.929688 26.273438 57.644531 24.109375 C 53.976562 21.6875 49.632812 20.613281 46.378906 21.320312 C 45.507812 21.507812 44.867188 21.734375 43.941406 22.175781 C 42.152344 23.027344 40.535156 24.238281 38.894531 25.964844 C 38.304688 26.582031 37.65625 27.359375 37.65625 27.449219 C 37.65625 27.699219 42.046875 32.144531 43.824219 33.695312 C 48.148438 37.464844 51.839844 39.585938 54.5625 39.875 C 55.253906 39.949219 55.363281 39.949219 56.039062 39.882812 Z M 20.789062 39.0625 C 23.503906 38.449219 26.257812 36.953125 29.210938 34.464844 C 30.050781 33.757812 31.210938 32.632812 31.210938 32.519531 C 31.210938 32.386719 28.46875 29.679688 27.507812 28.859375 C 22.71875 24.78125 18.496094 22.558594 14.457031 21.980469 C 13.597656 21.863281 11.863281 21.871094 10.964844 21.992188 C 9.625 22.179688 8.171875 22.617188 7.097656 23.152344 C 5.882812 23.769531 4.632812 24.894531 4.0625 25.902344 C 3.097656 27.609375 3.019531 29.769531 3.847656 31.730469 C 5.46875 35.554688 10.386719 38.445312 16.46875 39.152344 C 17.601562 39.28125 20.027344 39.238281 20.789062 39.0625 Z M 20.789062 39.0625 "/>
</g>
</svg>
