<svg xmlns="http://www.w3.org/2000/svg" xmlns:xlink="http://www.w3.org/1999/xlink" width="64" height="64" viewBox="0 0 64 64" version="1.1">
<defs>
<linearGradient id="linear0" gradientUnits="userSpaceOnUse" x1="0" y1="0" x2="0" y2="1" gradientTransform="matrix(60,0,0,60,2,2)">
<stop offset="0" style="stop-color:#ff6666;stop-opacity:1;"/>
<stop offset="1" style="stop-color:#d90000;stop-opacity:1;"/>
</linearGradient>
</defs>
<g id="surface1">
<path style=" stroke:none;fill-rule:nonzero;fill:url(#linear0);" d="M 37.875 2.035156 C 37.363281 1.964844 36.828125 2 36.300781 2.140625 C 34.179688 2.710938 32.933594 4.871094 33.5 6.992188 L 35.554688 14.648438 L 20.242188 18.75 L 18.1875 11.09375 C 17.621094 8.972656 15.460938 7.71875 13.339844 8.289062 C 11.21875 8.855469 9.972656 11.027344 10.539062 13.144531 L 12.59375 20.792969 L 4.9375 22.84375 C 2.816406 23.414062 1.570312 25.582031 2.136719 27.703125 C 2.707031 29.824219 4.867188 31.070312 6.988281 30.5 L 14.644531 28.449219 L 18.746094 43.761719 L 11.089844 45.8125 C 8.96875 46.378906 7.714844 48.539062 8.285156 50.660156 C 8.851562 52.78125 11.023438 54.027344 13.140625 53.460938 L 20.792969 51.40625 L 22.839844 59.0625 C 23.410156 61.183594 25.578125 62.429688 27.699219 61.863281 C 29.820312 61.292969 31.066406 59.132812 30.5 57.011719 L 28.449219 49.355469 L 43.761719 45.253906 L 45.808594 52.910156 C 46.378906 55.03125 48.539062 56.285156 50.660156 55.714844 C 52.78125 55.148438 54.027344 52.980469 53.460938 50.859375 L 51.40625 43.210938 L 59.0625 41.160156 C 61.183594 40.589844 62.429688 38.421875 61.863281 36.300781 C 61.292969 34.179688 59.132812 32.9375 57.011719 33.503906 L 49.359375 35.558594 L 45.257812 20.246094 L 52.914062 18.195312 C 55.035156 17.628906 56.289062 15.46875 55.71875 13.347656 C 55.152344 11.226562 52.980469 9.980469 50.863281 10.546875 L 43.214844 12.601562 L 41.164062 4.945312 C 40.738281 3.355469 39.410156 2.25 37.882812 2.039062 Z M 37.605469 22.296875 L 41.707031 37.609375 L 26.394531 41.707031 L 22.292969 26.398438 Z M 37.605469 22.296875 "/>
</g>
</svg>
