<svg xmlns="http://www.w3.org/2000/svg" xmlns:xlink="http://www.w3.org/1999/xlink" width="64" height="64" viewBox="0 0 64 64" version="1.1">
<defs>
<linearGradient id="linear0" gradientUnits="userSpaceOnUse" x1="0" y1="0" x2="0" y2="1" gradientTransform="matrix(64,0,0,64,0,0)">
<stop offset="0" style="stop-color:#ff6666;stop-opacity:1;"/>
<stop offset="1" style="stop-color:#d90000;stop-opacity:1;"/>
</linearGradient>
</defs>
<g id="surface1">
<path style=" stroke:none;fill-rule:evenodd;fill:url(#linear0);" d="M 31.335938 0 C 29.867188 0 28.6875 1.179688 28.6875 2.648438 L 28.6875 4.648438 C 27.445312 4.792969 26.210938 5.019531 24.996094 5.332031 L 24.269531 3.492188 C 23.726562 2.128906 22.195312 1.464844 20.832031 2.003906 L 19.601562 2.492188 C 18.234375 3.03125 17.570312 4.5625 18.113281 5.929688 L 18.84375 7.78125 C 17.488281 8.511719 16.195312 9.355469 14.984375 10.300781 L 13.589844 8.902344 C 12.546875 7.867188 10.878906 7.867188 9.839844 8.902344 L 8.902344 9.839844 C 7.867188 10.878906 7.867188 12.546875 8.902344 13.589844 L 10.316406 14.996094 C 9.355469 16.203125 8.5 17.488281 7.761719 18.835938 L 5.929688 18.113281 C 4.5625 17.570312 3.03125 18.234375 2.492188 19.601562 L 2.003906 20.832031 C 1.464844 22.195312 2.128906 23.726562 3.492188 24.269531 L 5.351562 25.003906 C 5.03125 26.214844 4.792969 27.449219 4.636719 28.6875 L 2.648438 28.6875 C 1.179688 28.6875 0 29.867188 0 31.335938 L 0 32.664062 C 0 34.132812 1.179688 35.3125 2.648438 35.3125 L 4.648438 35.3125 C 4.792969 36.554688 5.019531 37.789062 5.332031 39.003906 L 3.492188 39.730469 C 2.128906 40.273438 1.464844 41.804688 2.003906 43.167969 L 2.492188 44.398438 C 3.03125 45.765625 4.5625 46.429688 5.929688 45.886719 L 7.78125 45.15625 C 8.511719 46.511719 9.355469 47.804688 10.300781 49.015625 L 8.902344 50.410156 C 7.867188 51.453125 7.867188 53.121094 8.902344 54.160156 L 9.839844 55.097656 C 10.878906 56.132812 12.546875 56.132812 13.589844 55.097656 L 14.996094 53.683594 C 16.203125 54.644531 17.488281 55.5 18.835938 56.238281 L 18.113281 58.070312 C 17.570312 59.4375 18.234375 60.96875 19.601562 61.507812 L 20.832031 61.996094 C 22.195312 62.535156 23.726562 61.871094 24.269531 60.507812 L 25.003906 58.648438 C 26.214844 58.96875 27.449219 59.207031 28.6875 59.363281 L 28.6875 61.351562 C 28.6875 62.820312 29.867188 64 31.335938 64 L 32.664062 64 C 34.132812 64 35.3125 62.820312 35.3125 61.351562 L 35.3125 59.351562 C 36.554688 59.207031 37.789062 58.980469 39.003906 58.667969 L 39.730469 60.507812 C 40.273438 61.871094 41.804688 62.535156 43.167969 61.996094 L 44.398438 61.507812 C 45.765625 60.96875 46.429688 59.4375 45.886719 58.070312 L 45.15625 56.21875 C 46.511719 55.488281 47.804688 54.644531 49.015625 53.699219 L 50.410156 55.097656 C 51.453125 56.132812 53.121094 56.132812 54.160156 55.097656 L 55.097656 54.160156 C 56.132812 53.121094 56.132812 51.453125 55.097656 50.410156 L 53.683594 49.003906 C 54.644531 47.796875 55.5 46.511719 56.238281 45.164062 L 58.070312 45.886719 C 59.4375 46.429688 60.96875 45.765625 61.507812 44.398438 L 61.996094 43.167969 C 62.535156 41.804688 61.871094 40.273438 60.507812 39.730469 L 58.648438 38.996094 C 58.96875 37.785156 59.207031 36.550781 59.363281 35.3125 L 61.351562 35.3125 C 62.820312 35.3125 64 34.132812 64 32.664062 L 64 31.335938 C 64 29.867188 62.820312 28.6875 61.351562 28.6875 L 59.351562 28.6875 C 59.207031 27.445312 58.980469 26.210938 58.667969 24.996094 L 60.507812 24.269531 C 61.871094 23.726562 62.535156 22.195312 61.996094 20.832031 L 61.507812 19.601562 C 60.96875 18.234375 59.4375 17.570312 58.070312 18.113281 L 56.21875 18.84375 C 55.488281 17.488281 54.644531 16.195312 53.699219 14.984375 L 55.097656 13.589844 C 56.132812 12.546875 56.132812 10.878906 55.097656 9.839844 L 54.160156 8.902344 C 53.121094 7.867188 51.453125 7.867188 50.410156 8.902344 L 49.003906 10.316406 C 47.796875 9.355469 46.511719 8.5 45.164062 7.761719 L 45.886719 5.929688 C 46.429688 4.5625 45.765625 3.03125 44.398438 2.492188 L 43.167969 2.003906 C 41.804688 1.464844 40.273438 2.128906 39.730469 3.492188 L 38.996094 5.351562 C 37.785156 5.03125 36.550781 4.792969 35.3125 4.636719 L 35.3125 2.648438 C 35.3125 1.179688 34.132812 0 32.664062 0 Z M 44.136719 13.238281 L 44.136719 26.378906 C 44.136719 26.378906 37.40625 26.378906 37.40625 29.496094 C 37.40625 34.488281 42.3125 34.839844 41.960938 39.757812 C 41.066406 52.136719 27.363281 51.054688 19.878906 50.40625 L 19.863281 39.097656 C 19.863281 39.097656 22.171875 39.90625 24.460938 39.726562 C 25.933594 39.753906 27.742188 37.921875 27.449219 36.636719 C 27.742188 33.238281 22.078125 29.988281 22.066406 25.867188 C 22.164062 13.238281 39.589844 13.238281 44.136719 13.238281 Z M 44.136719 13.238281 "/>
</g>
</svg>
