<svg xmlns="http://www.w3.org/2000/svg" xmlns:xlink="http://www.w3.org/1999/xlink" width="64" height="64" viewBox="0 0 64 64" version="1.1">
<defs>
<linearGradient id="linear0" gradientUnits="userSpaceOnUse" x1="0" y1="0" x2="0" y2="1" gradientTransform="matrix(48.894531,0,0,48.894531,0.046875,15.105469)">
<stop offset="0" style="stop-color:#ff6666;stop-opacity:1;"/>
<stop offset="1" style="stop-color:#d90000;stop-opacity:1;"/>
</linearGradient>
<linearGradient id="linear1" gradientUnits="userSpaceOnUse" x1="0" y1="0" x2="0" y2="1" gradientTransform="matrix(44.667969,0,0,53.195312,19.285156,0)">
<stop offset="0" style="stop-color:#ff6666;stop-opacity:1;"/>
<stop offset="1" style="stop-color:#d90000;stop-opacity:1;"/>
</linearGradient>
</defs>
<g id="surface1">
<path style=" stroke:none;fill-rule:nonzero;fill:url(#linear0);" d="M 42.464844 34.6875 L 42.351562 34.53125 L 42.449219 34.21875 L 42.707031 34.269531 L 42.949219 34.402344 L 42.980469 34.378906 L 42.898438 34.59375 L 42.6875 34.695312 Z M 43.816406 36.128906 L 43.71875 35.789062 L 41.644531 34.445312 L 41.144531 34.410156 L 40.6875 34.902344 L 40.464844 35.515625 L 40.648438 35.851562 Z M 11.910156 34.503906 L 11.671875 35.363281 L 12.453125 34.484375 L 12.515625 34.210938 L 12.183594 34.074219 Z M 12.378906 33.117188 L 12.378906 33.160156 L 11.050781 33.792969 L 12.730469 33.457031 Z M 13.390625 34.785156 L 13.558594 34.660156 L 13.703125 34.324219 L 13.679688 34.363281 L 13.789062 33.976562 L 13.480469 33.925781 L 13.234375 33.992188 L 13.074219 34.15625 L 12.992188 34.445312 L 13.207031 34.710938 Z M 40.003906 28.785156 L 39.765625 28.65625 L 38.699219 28.585938 L 38.253906 28.210938 L 38.796875 26.214844 L 36.144531 30.503906 L 35.445312 31.019531 L 36.742188 31.515625 Z M 42.503906 40.683594 L 45.148438 44.867188 L 43.011719 40.902344 Z M 48.941406 39.550781 C 48.941406 53.054688 38 64 24.496094 64 C 10.996094 64 0.046875 53.054688 0.046875 39.550781 C 0.046875 26.046875 10.996094 15.105469 24.496094 15.105469 C 38 15.105469 48.941406 26.046875 48.941406 39.550781 Z M 31.15625 29.675781 L 31.164062 31.761719 L 31.585938 32.820312 L 32.589844 32.589844 L 32.644531 31.902344 Z M 32.644531 25.953125 L 32.285156 25.808594 L 31.53125 25.976562 L 30.804688 25.816406 L 30.773438 26.714844 L 30.855469 26.914062 L 31.832031 27.011719 L 32.453125 26.515625 Z M 18.152344 19.472656 L 19.367188 19.425781 L 21.746094 17.871094 C 20.984375 17.96875 20.242188 18.097656 19.511719 18.273438 L 19.085938 18.84375 Z M 16.632812 20.179688 L 17.4375 20.828125 L 18.460938 20.960938 L 19.105469 20.351562 L 18.71875 20.292969 L 17.132812 19.386719 L 16.671875 19.300781 Z M 14.527344 20.085938 L 14.617188 20.203125 L 15.070312 20.171875 L 15.554688 19.96875 L 15.820312 19.640625 L 15.722656 19.503906 C 15.320312 19.679688 14.929688 19.886719 14.527344 20.085938 Z M 13.359375 22.558594 L 13.964844 22.648438 L 14.394531 22.148438 L 14.515625 21.558594 L 14.1875 21.390625 L 13.367188 22.300781 Z M 8.984375 24.238281 L 10.054688 24.851562 L 11.640625 24.121094 L 12.875 22.800781 L 12.90625 21.605469 L 11.839844 21.8125 L 11.726562 21.773438 C 10.980469 22.308594 10.273438 22.894531 9.597656 23.523438 L 9.707031 23.644531 L 9.0625 24.09375 Z M 2.96875 41.515625 L 2.488281 40.703125 C 2.488281 40.78125 2.496094 40.847656 2.503906 40.921875 L 2.953125 41.914062 Z M 24.675781 51.011719 L 23.570312 50.191406 L 20.410156 49.253906 L 18.5625 46.832031 L 16.28125 45.964844 L 10.925781 45.78125 L 9.304688 43.046875 L 8.871094 42.992188 L 7.542969 43.636719 L 7.054688 43.117188 L 6.96875 42.367188 L 7.132812 41.746094 L 7.972656 40.613281 L 8.96875 40.050781 L 11.460938 40.515625 L 11.828125 41.5625 L 12.589844 41.738281 L 12.578125 40.148438 L 14.667969 37.117188 L 19.269531 34.546875 L 18.597656 34.464844 L 17.410156 33.585938 L 20.4375 32.722656 L 20.546875 32.992188 L 20.5 33.246094 L 20.316406 33.496094 L 19.980469 33.726562 L 20.21875 34.050781 L 20.960938 34.085938 L 21.558594 33.859375 L 19.574219 29.070312 L 19.296875 29.105469 L 16.878906 27.941406 L 16.335938 28.46875 L 14.929688 32.070312 L 14.253906 31.460938 L 12.636719 30.71875 L 11.640625 29.589844 L 12.8125 27.820312 L 16.390625 25.050781 L 16.925781 23.554688 L 18.570312 24.601562 L 18.835938 25.171875 L 17.101562 26.589844 L 18.828125 27.671875 L 19.199219 27.472656 L 19.382812 27.480469 L 20.121094 26.328125 L 19.953125 26.136719 L 20.960938 25.027344 L 20.1875 23.691406 L 18.183594 21.988281 L 19.238281 21.796875 L 19.1875 21.515625 L 18.605469 21.390625 L 16.933594 22.328125 L 17.476562 21.449219 L 16.351562 21.804688 L 16.152344 24.550781 L 15.265625 25.15625 L 14.632812 24.5625 L 16.273438 21.503906 L 16.144531 21.375 L 15.996094 21.3125 L 15.820312 21.3125 L 15.628906 21.382812 L 13.019531 25.019531 L 13.074219 24.796875 L 13.335938 24.296875 L 13.242188 24.089844 L 12.792969 24.351562 L 9.039062 25.125 L 8.355469 24.746094 C 4.515625 28.855469 2.398438 34.28125 2.445312 39.902344 C 2.445312 39.972656 2.460938 40.042969 2.460938 40.117188 L 2.46875 40.085938 L 3.007812 40.285156 L 4.996094 43.660156 L 10.972656 46.292969 L 11.792969 47.199219 L 11.808594 48.402344 L 11.058594 50.183594 L 11.019531 51.15625 L 13.617188 56.167969 L 13.695312 58.953125 C 15.105469 59.753906 16.597656 60.394531 18.144531 60.871094 L 20.855469 57.394531 L 23.269531 55.621094 Z M 15.644531 26.507812 L 15.441406 26.210938 L 15.238281 26.167969 L 14.492188 27.117188 L 14.617188 27.257812 L 15.539062 27.257812 L 15.828125 27.070312 Z M 24.820312 28.480469 L 31.03125 23.113281 L 32.492188 19.203125 C 29.894531 18.183594 27.125 17.671875 24.335938 17.691406 C 23.953125 17.691406 23.589844 17.730469 23.203125 17.753906 L 22.921875 17.914062 L 22.335938 18.746094 L 22.21875 19.3125 L 22.449219 19.726562 L 24.039062 19.9375 L 24.507812 23.023438 L 23.710938 24.882812 L 23.523438 26.246094 L 24.023438 27.691406 Z M 45.640625 45.449219 L 45.808594 45.347656 C 46.292969 43.507812 46.5625 41.570312 46.542969 39.585938 C 46.535156 38.160156 46.378906 36.785156 46.117188 35.4375 L 45.996094 35.199219 L 46.042969 35.039062 C 45.367188 31.945312 44.023438 29.03125 42.109375 26.507812 L 41.972656 26.5625 L 41.167969 25.742188 L 41.460938 25.65625 C 40.769531 24.828125 40.015625 24.0625 39.207031 23.347656 L 38.53125 23.300781 L 37.308594 23.828125 L 34.085938 28.203125 L 34.234375 28.769531 L 35.746094 29.933594 L 35.746094 30.527344 L 31.5 33.664062 L 31.527344 34.066406 L 31.871094 34.652344 L 31.992188 35.167969 L 30.144531 35.898438 L 30 36.847656 L 30.144531 38.007812 L 27.328125 43.546875 L 27.199219 46 L 29.300781 47.238281 L 32.773438 47.230469 L 34.339844 47.675781 L 37.316406 57.664062 C 41.429688 54.722656 44.402344 50.453125 45.742188 45.574219 Z M 42.671875 37.871094 L 39.367188 36.980469 L 39.035156 36.574219 L 39.105469 37.539062 L 39.019531 37.613281 L 36.433594 34.910156 L 36.433594 34.929688 L 36.007812 35.03125 L 35.949219 34.929688 L 36.074219 35.453125 L 37.09375 36.195312 L 37.164062 36.742188 L 36.964844 37.074219 L 36.820312 37.179688 L 36.640625 37.253906 L 35.660156 35.722656 L 34.203125 35.730469 L 31.15625 37.992188 L 35.148438 37.839844 L 36.957031 39.480469 L 37.824219 39.785156 L 42.617188 38.820312 Z M 42.671875 37.871094 "/>
<path style=" stroke:none;fill-rule:evenodd;fill:url(#linear1);" d="M 40.898438 31.285156 C 43.59375 28.984375 46.234375 26.394531 48.515625 23.875 C 53.617188 18.222656 56.765625 12.605469 57.746094 9.035156 C 58.519531 6.164062 56.351562 4.796875 53.066406 5 C 50.492188 5.15625 46.992188 6.519531 45.289062 7.261719 C 41.496094 8.90625 36.882812 12.796875 32.730469 16.3125 C 32.199219 16.125 31.667969 15.945312 31.128906 15.796875 C 39.515625 7.605469 49.375 0.484375 56.242188 0.0273438 C 56.640625 0.00390625 57.023438 -0.00390625 57.390625 0.00390625 C 58.5 0.0273438 59.492188 0.207031 60.34375 0.546875 C 67.285156 3.296875 63.914062 15.480469 52.824219 27.765625 C 50.089844 30.796875 47.136719 33.726562 44.125 36.300781 C 44.574219 37.59375 44.816406 38.984375 44.816406 40.429688 C 44.816406 47.476562 39.097656 53.195312 32.046875 53.195312 C 25.003906 53.195312 19.285156 47.476562 19.285156 40.429688 C 19.285156 33.382812 25.003906 27.660156 32.046875 27.660156 C 35.496094 27.660156 38.628906 29.03125 40.898438 31.285156 Z M 37.574219 34.0625 C 36.328125 35.011719 35.09375 35.898438 33.914062 36.65625 C 33.367188 36.332031 32.726562 36.171875 32.046875 36.171875 C 29.699219 36.171875 27.792969 38.078125 27.792969 40.429688 C 27.792969 42.777344 29.699219 44.683594 32.046875 44.683594 C 33.179688 44.683594 34.207031 44.238281 34.9375 43.484375 C 36.753906 42.3125 38.617188 40.953125 40.492188 39.433594 C 40.539062 39.761719 40.558594 40.09375 40.558594 40.429688 C 40.558594 45.128906 36.746094 48.941406 32.046875 48.941406 C 27.351562 48.941406 23.539062 45.128906 23.539062 40.429688 C 23.539062 35.730469 27.351562 31.914062 32.046875 31.914062 C 34.183594 31.914062 36.140625 32.703125 37.574219 34.0625 Z M 37.574219 34.0625 "/>
</g>
</svg>
