<svg xmlns="http://www.w3.org/2000/svg" xmlns:xlink="http://www.w3.org/1999/xlink" width="64" height="64" viewBox="0 0 64 64" version="1.1">
<defs> <linearGradient id="linear0" gradientUnits="userSpaceOnUse" x1="0" y1="0" x2="0" y2="1" gradientTransform="matrix(55.992188,0,0,56,4.003906,4)"> <stop offset="0" style="stop-color:#ff6666;stop-opacity:1;"/> <stop offset="1" style="stop-color:#d90000;stop-opacity:1;"/> </linearGradient> </defs>
<g id="surface1">
<path style=" stroke:none;fill-rule:nonzero;fill:url(#linear0);fill-opacity:1;" d="M 52.585938 4.21875 C 51.386719 4.164062 48.015625 4.421875 42.742188 8.070312 C 37.105469 6.375 31.050781 6.113281 24.28125 8.070312 C 19.003906 4.421875 16.3125 4.167969 15.117188 4.222656 C 14.71875 4.242188 14.523438 4.296875 14.523438 4.296875 C 12.519531 9.476562 13.785156 13.300781 14.167969 14.257812 C 11.816406 16.882812 10.375 20.242188 10.375 24.347656 C 10.375 38.757812 18.964844 41.980469 27.136719 42.929688 C 26.085938 43.867188 25.140625 45.53125 24.804688 47.964844 C 22.707031 48.925781 17.375 50.582031 14.09375 44.835938 C 14.09375 44.835938 12.152344 41.222656 8.460938 40.957031 C 8.460938 40.957031 4.863281 40.910156 8.210938 43.242188 C 8.210938 43.242188 10.617188 44.398438 12.292969 48.742188 C 12.292969 48.742188 14.449219 56.0625 24.683594 53.789062 C 24.703125 56.554688 24.722656 58.339844 24.730469 59.425781 C 27.144531 59.890625 29.597656 60.128906 32.054688 60.132812 C 35.757812 60.128906 39.4375 59.597656 42.988281 58.554688 C 42.992188 56.808594 43.023438 54.105469 43.023438 49.867188 C 43.023438 46.363281 41.847656 44.066406 40.527344 42.90625 C 48.722656 41.972656 57.328125 38.789062 57.328125 24.347656 C 57.328125 20.242188 55.894531 16.882812 53.539062 14.257812 C 53.921875 13.300781 55.1875 9.476562 53.175781 4.296875 C 53.175781 4.296875 52.984375 4.234375 52.585938 4.21875 Z M 52.585938 4.21875 "/>
</g>
</svg>
