<svg xmlns="http://www.w3.org/2000/svg" xmlns:xlink="http://www.w3.org/1999/xlink" width="64" height="64" viewBox="0 0 64 64" version="1.1">
<defs>
<linearGradient id="linear0" gradientUnits="userSpaceOnUse" x1="0" y1="0" x2="0" y2="1" gradientTransform="matrix(64,0,0,64,0,0)">
<stop offset="0" style="stop-color:#ff6666;stop-opacity:1;"/>
<stop offset="1" style="stop-color:#d90000;stop-opacity:1;"/>
</linearGradient>
</defs>
<g id="surface1">
<path style=" stroke:none;fill-rule:nonzero;fill:url(#linear0);" d="M 32 0 C 14.273438 0 0 14.273438 0 32 C 0 49.726562 14.273438 64 32 64 C 49.726562 64 64 49.726562 64 32 C 64 14.273438 49.726562 0 32 0 Z M 32 4 C 36.417969 4 40 7.582031 40 12 C 40 16.417969 36.417969 20 32 20 C 27.582031 20 24 16.417969 24 12 C 24 7.582031 27.582031 4 32 4 Z M 12 24 C 16.417969 24 20 27.582031 20 32 C 20 36.417969 16.417969 40 12 40 C 7.582031 40 4 36.417969 4 32 C 4 27.582031 7.582031 24 12 24 Z M 52 24 C 56.417969 24 60 27.582031 60 32 C 60 36.417969 56.417969 40 52 40 C 47.582031 40 44 36.417969 44 32 C 44 27.582031 47.582031 24 52 24 Z M 29.953125 26.539062 C 30.683594 26.519531 31.367188 26.90625 31.734375 27.539062 C 32.28125 28.492188 31.953125 29.710938 31.003906 30.261719 C 30.542969 30.53125 29.996094 30.605469 29.484375 30.46875 C 28.972656 30.332031 28.53125 30 28.265625 29.539062 C 28 29.078125 27.929688 28.53125 28.066406 28.019531 C 28.203125 27.503906 28.542969 27.066406 29.003906 26.804688 C 29.292969 26.636719 29.621094 26.546875 29.953125 26.539062 Z M 35.417969 28 C 36.148438 27.980469 36.832031 28.363281 37.199219 29 C 37.464844 29.457031 37.535156 30.003906 37.398438 30.519531 C 37.261719 31.03125 36.925781 31.46875 36.464844 31.734375 C 35.507812 32.28125 34.285156 31.953125 33.734375 30.996094 C 33.46875 30.539062 33.394531 29.992188 33.53125 29.480469 C 33.667969 28.964844 34 28.527344 34.460938 28.261719 C 34.75 28.09375 35.082031 28.003906 35.417969 27.996094 Z M 28.496094 32 C 29.222656 31.984375 29.902344 32.367188 30.269531 33 C 30.824219 33.953125 30.5 35.179688 29.542969 35.734375 C 29.082031 36 28.535156 36.074219 28.019531 35.933594 C 27.503906 35.796875 27.066406 35.460938 26.800781 34.996094 C 26.535156 34.539062 26.464844 33.988281 26.601562 33.476562 C 26.738281 32.964844 27.078125 32.527344 27.539062 32.261719 C 27.828125 32.09375 28.15625 32.003906 28.488281 31.996094 Z M 33.957031 33.460938 C 34.6875 33.441406 35.371094 33.824219 35.738281 34.460938 C 36.003906 34.921875 36.074219 35.46875 35.9375 35.980469 C 35.800781 36.496094 35.460938 36.929688 35 37.195312 C 34.542969 37.460938 33.992188 37.535156 33.480469 37.394531 C 32.96875 37.257812 32.53125 36.921875 32.265625 36.460938 C 31.71875 35.503906 32.046875 34.285156 33 33.734375 C 33.289062 33.566406 33.617188 33.46875 33.953125 33.460938 Z M 32 44 C 36.417969 44 40 47.582031 40 52 C 40 56.417969 36.417969 60 32 60 C 27.582031 60 24 56.417969 24 52 C 24 47.582031 27.582031 44 32 44 Z M 32 44 "/>
</g>
</svg>
