<svg xmlns="http://www.w3.org/2000/svg" xmlns:xlink="http://www.w3.org/1999/xlink" width="64" height="64" viewBox="0 0 64 64" version="1.1">
<defs> <linearGradient id="linear0" gradientUnits="userSpaceOnUse" x1="0" y1="0" x2="0" y2="1" gradientTransform="matrix(55.992188,0,0,56,4.003906,4)"> <stop offset="0" style="stop-color:#ff6666;stop-opacity:1;"/> <stop offset="1" style="stop-color:#d90000;stop-opacity:1;"/> </linearGradient> </defs>
<g id="surface1">
<path style=" stroke:none;fill-rule:nonzero;fill:url(#linear0);fill-opacity:1;" d="M 62.382812 0.0546875 L 62.382812 0.78125 L 63.136719 0.78125 C 62.886719 0.539062 62.636719 0.292969 62.382812 0.0546875 M 62.382812 5.308594 L 62.382812 10.484375 L 69.792969 10.484375 L 69.792969 9.121094 C 68.980469 7.804688 68.09375 6.53125 67.152344 5.308594 L 62.382812 5.308594 M 62.382812 15.015625 L 62.382812 20.199219 L 69.792969 20.199219 L 69.792969 15.015625 Z M 62.382812 24.730469 L 62.382812 29.90625 L 69.792969 29.90625 L 69.792969 24.730469 Z M 62.382812 34.433594 L 62.382812 39.617188 L 69.792969 39.617188 L 69.792969 34.433594 Z M 62.382812 44.144531 L 62.382812 49.324219 L 69.792969 49.324219 L 69.792969 44.144531 Z M 62.382812 53.855469 L 62.382812 59.035156 L 67.152344 59.035156 C 68.09375 57.816406 68.976562 56.542969 69.792969 55.222656 L 69.792969 53.855469 L 62.382812 53.855469 M 62.382812 63.566406 L 62.382812 64.289062 C 62.636719 64.050781 62.886719 63.808594 63.136719 63.566406 Z M 62.382812 63.566406 "/>
<path style=" stroke:none;fill-rule:nonzero;fill:url(#linear0);fill-opacity:1;" d="M 1.722656 0.0546875 C 1.46875 0.292969 1.21875 0.539062 0.96875 0.78125 L 1.722656 0.78125 Z M -3.046875 5.308594 C -3.988281 6.53125 -4.867188 7.804688 -5.6875 9.121094 L -5.6875 10.484375 L 1.722656 10.484375 L 1.722656 5.308594 L -3.046875 5.308594 M -5.6875 15.015625 L -5.6875 20.199219 L 1.722656 20.199219 L 1.722656 15.015625 Z M -5.6875 24.730469 L -5.6875 29.90625 L 1.722656 29.90625 L 1.722656 24.730469 L -5.6875 24.730469 M -5.6875 34.433594 L -5.6875 39.617188 L 1.722656 39.617188 L 1.722656 34.433594 Z M -5.6875 44.144531 L -5.6875 49.324219 L 1.722656 49.324219 L 1.722656 44.144531 Z M -5.6875 53.855469 L -5.6875 55.222656 C -4.875 56.542969 -3.988281 57.816406 -3.046875 59.035156 L 1.722656 59.035156 L 1.722656 53.855469 L -5.6875 53.855469 M 0.96875 63.566406 C 1.21875 63.808594 1.46875 64.050781 1.722656 64.289062 L 1.722656 63.566406 Z M 0.96875 63.566406 "/>
<path style=" stroke:none;fill-rule:nonzero;fill:url(#linear0);fill-opacity:1;" d="M 17.445312 15.960938 C 13.929688 15.960938 11.101562 18.335938 11.101562 21.285156 L 11.101562 43.058594 C 11.101562 46.011719 13.929688 48.394531 17.445312 48.394531 L 46.667969 48.394531 C 50.183594 48.394531 53.011719 46.011719 53.011719 43.058594 L 53.011719 21.285156 C 53.011719 18.335938 50.183594 15.960938 46.667969 15.960938 Z M 26.417969 21.492188 C 26.886719 21.460938 27.363281 21.574219 27.773438 21.816406 L 41.734375 30.15625 C 42.449219 30.585938 42.878906 31.347656 42.878906 32.171875 C 42.878906 33 42.449219 33.769531 41.734375 34.191406 L 27.773438 42.527344 C 27.042969 42.964844 26.132812 42.976562 25.390625 42.554688 C 24.652344 42.136719 24.191406 41.359375 24.191406 40.507812 L 24.191406 23.84375 C 24.191406 22.597656 25.167969 21.5625 26.417969 21.492188 "/>
</g>
</svg>
