<svg xmlns="http://www.w3.org/2000/svg" xmlns:xlink="http://www.w3.org/1999/xlink" width="64" height="64" viewBox="0 0 64 64" version="1.1">
<defs>
<linearGradient id="linear0" gradientUnits="userSpaceOnUse" x1="0" y1="0" x2="0" y2="1" gradientTransform="matrix(63.820312,0,0,64,0.0898438,0)">
<stop offset="0" style="stop-color:#ff6666;stop-opacity:1;"/>
<stop offset="1" style="stop-color:#d90000;stop-opacity:1;"/>
</linearGradient>
</defs>
<g id="surface1">
<path style=" stroke:none;fill-rule:evenodd;fill:url(#linear0);" d="M 52.382812 18.449219 L 62.507812 28.601562 C 64.378906 30.476562 64.378906 33.523438 62.507812 35.398438 L 35.390625 62.59375 C 33.519531 64.46875 30.480469 64.46875 28.609375 62.59375 L 1.492188 35.398438 C -0.378906 33.523438 -0.378906 30.476562 1.492188 28.601562 L 15.882812 14.167969 C 15.890625 14.15625 15.902344 14.144531 15.910156 14.132812 L 17.867188 12.167969 C 17.886719 12.15625 17.902344 12.140625 17.921875 12.125 L 28.609375 1.40625 C 30.480469 -0.46875 33.519531 -0.46875 35.390625 1.40625 L 44.410156 10.457031 L 44.414062 10.457031 C 44.421875 10.460938 44.425781 10.460938 44.429688 10.460938 L 52.386719 18.445312 C 52.386719 18.445312 52.386719 18.449219 52.382812 18.449219 Z M 52.382812 18.449219 L 44.414062 10.457031 C 41.105469 9.203125 36.707031 7.988281 44.410156 10.457031 L 32 7.988281 C 26.152344 7.988281 21.457031 9.347656 18.074219 11.988281 C 18.019531 12.03125 17.972656 12.078125 17.921875 12.125 L 15.882812 14.167969 C 13.9375 16.621094 12.953125 19.667969 13.175781 22.625 C 13.773438 30.453125 21.542969 36.5625 32 36.5625 C 39.101562 36.5625 41.664062 40.207031 41.820312 42.085938 C 41.894531 43.023438 41.714844 43.773438 40.429688 44.773438 C 39.144531 45.777344 36.476562 46.851562 32 46.851562 C 25.761719 46.851562 18.304688 42.882812 18.304688 42.882812 C 17.09375 42.167969 15.621094 42.050781 14.3125 42.570312 C 13.003906 43.09375 12.007812 44.1875 11.613281 45.539062 L 19.570312 53.523438 C 22.882812 54.777344 27.289062 55.996094 32 55.996094 C 37.773438 55.996094 42.402344 54.691406 45.789062 52.160156 L 48.464844 49.476562 C 50.242188 47.074219 51.140625 44.164062 50.90625 41.335938 C 50.265625 33.496094 42.457031 27.421875 32 27.421875 C 24.898438 27.421875 22.410156 23.816406 22.269531 21.929688 C 22.195312 20.984375 22.394531 20.207031 23.679688 19.207031 C 24.964844 18.203125 27.589844 17.132812 32 17.132812 C 38.242188 17.132812 45.695312 21.105469 45.695312 21.105469 C 46.90625 21.816406 48.382812 21.933594 49.691406 21.410156 C 50.996094 20.890625 51.992188 19.800781 52.382812 18.449219 Z M 52.382812 18.449219 "/>
</g>
</svg>
