<svg xmlns="http://www.w3.org/2000/svg" xmlns:xlink="http://www.w3.org/1999/xlink" width="64" height="64" viewBox="0 0 64 64" version="1.1">
<defs>
<linearGradient id="linear0" gradientUnits="userSpaceOnUse" x1="0" y1="0" x2="0" y2="1" gradientTransform="matrix(64,0,0,64,0,0)">
<stop offset="0" style="stop-color:#ff6666;stop-opacity:1;"/>
<stop offset="1" style="stop-color:#d90000;stop-opacity:1;"/>
</linearGradient>
</defs>
<g id="surface1">
<path style=" stroke:none;fill-rule:nonzero;fill:url(#linear0);" d="M 32 0 C 14.34375 0 0 14.347656 0 32 C 0 49.65625 14.34375 64 32 64 C 49.652344 64 64 49.65625 64 32 C 64 14.347656 49.652344 0 32 0 Z M 32 3.199219 C 41.953125 3.199219 50.714844 8.230469 55.886719 15.890625 C 55.707031 15.628906 55.503906 15.390625 55.320312 15.132812 L 52.832031 15.132812 L 50.253906 17.710938 L 48.539062 15.992188 L 43.386719 15.992188 L 40.8125 18.570312 L 40.8125 20.714844 L 43.386719 20.714844 L 43.386719 19.425781 L 45.105469 19.425781 L 45.105469 21.144531 L 44.246094 22.003906 L 40.8125 22.066406 L 39.523438 23.296875 L 37.804688 23.296875 L 37.804688 25.011719 L 36.519531 26.300781 L 36.519531 28.875 L 39.09375 28.875 L 40.8125 27.15625 L 42.527344 27.15625 L 42.527344 28.015625 L 44.246094 29.734375 L 45.105469 29.734375 L 45.105469 28.875 L 43.386719 27.15625 L 45.105469 27.15625 L 46.820312 28.875 L 48.96875 28.875 L 47.679688 27.589844 L 48.96875 26.300781 L 50.253906 26.300781 L 51.542969 27.589844 L 50.253906 27.589844 L 48.96875 28.875 L 50.230469 30.140625 L 50.257812 31.449219 L 48.539062 31.449219 L 53.691406 36.601562 L 54.550781 36.601562 L 55.40625 35.742188 L 57.125 34.027344 L 55.40625 32.308594 L 60.785156 32.308594 C 60.785156 32.214844 60.800781 32.109375 60.800781 32.003906 C 60.800781 47.929688 47.925781 60.804688 32 60.804688 C 27.460938 60.804688 23.171875 59.753906 19.355469 57.890625 L 19.347656 56.351562 L 24.925781 51.199219 L 24.925781 49.480469 L 27.503906 46.90625 L 27.503906 45.617188 L 28.792969 44.332031 L 28.792969 40.894531 L 27.074219 39.179688 L 23.640625 39.179688 L 21.921875 37.460938 L 17.628906 37.460938 L 15.914062 39.179688 L 15.914062 43.472656 L 19.359375 46.492188 L 19.347656 50.339844 L 18.058594 51.628906 L 18.058594 57.210938 L 18.070312 57.222656 C 9.199219 52.316406 3.199219 42.875 3.199219 32.007812 C 3.199219 30.015625 3.402344 28.074219 3.785156 26.199219 C 3.644531 26.890625 3.554688 27.605469 3.460938 28.316406 L 3.460938 29.308594 L 8.183594 34.03125 L 10.761719 34.03125 L 15.054688 38.320312 L 15.054688 33.171875 L 17.628906 30.59375 L 19.347656 30.59375 L 21.921875 28.019531 L 24.5 28.019531 L 23.210938 26.734375 L 25.785156 23.726562 L 23.210938 21.152344 L 19.347656 21.152344 L 19.347656 24.585938 L 17.628906 24.585938 L 15.914062 22.867188 L 15.914062 21.152344 L 18.488281 18.574219 L 20.632812 18.574219 L 20.632812 16.859375 L 18.058594 14.28125 L 13.765625 14.28125 L 13.765625 16.859375 L 11.621094 16.859375 L 9.203125 14.441406 C 8.832031 14.921875 8.453125 15.394531 8.113281 15.898438 C 9.480469 13.875 11.097656 12.039062 12.917969 10.429688 L 15.054688 12.566406 L 19.347656 12.566406 L 19.347656 8.273438 L 15.675781 8.273438 C 20.3125 5.078125 25.933594 3.207031 32 3.207031 Z M 48.539062 31.449219 L 43.386719 31.449219 L 42.527344 30.589844 L 37.375 30.589844 L 34.371094 33.59375 L 34.371094 37.886719 L 36.519531 40.035156 L 39.523438 40.035156 L 40.8125 41.324219 L 40.8125 42.609375 L 41.667969 43.46875 L 41.667969 48.617188 L 44.929688 52.066406 L 50.3125 46.679688 L 50.253906 41.75 L 54.546875 37.457031 L 52.832031 37.457031 L 48.539062 33.164062 Z M 25.355469 8.265625 L 22.351562 11.699219 L 24.925781 14.277344 L 24.925781 16.96875 L 27.933594 20.285156 L 29.648438 20.285156 L 29.648438 18.570312 L 32.226562 15.992188 L 32.226562 14.277344 L 33.941406 12.558594 L 33.941406 9.984375 L 32.226562 8.265625 Z M 31.796875 19.425781 L 31.796875 20.714844 L 34.371094 20.714844 L 33.082031 19.425781 Z M 39.523438 19.855469 L 38.234375 21.144531 L 38.234375 22.433594 L 39.523438 22.433594 Z M 26.214844 24.578125 L 24.925781 25.867188 L 26.214844 25.867188 L 26.644531 26.296875 L 27.074219 26.296875 L 27.503906 25.867188 Z M 18.917969 33.59375 L 17.628906 34.878906 L 20.207031 34.878906 L 20.207031 33.59375 Z M 53.261719 43.46875 L 51.542969 45.070312 L 51.542969 47.757812 L 53.261719 47.757812 Z M 53.261719 43.46875 "/>
</g>
</svg>
