<svg xmlns="http://www.w3.org/2000/svg" xmlns:xlink="http://www.w3.org/1999/xlink" width="64" height="64" viewBox="0 0 64 64" version="1.1">
<defs> <linearGradient id="linear0" gradientUnits="userSpaceOnUse" x1="0" y1="0" x2="0" y2="1" gradientTransform="matrix(55.992188,0,0,56,4.003906,4)"> <stop offset="0" style="stop-color:#ff6666;stop-opacity:1;"/> <stop offset="1" style="stop-color:#d90000;stop-opacity:1;"/> </linearGradient> </defs>
<g id="surface1">
<path style=" stroke:none;fill-rule:evenodd;fill:url(#linear0);fill-opacity:1;" d="M 41.386719 0.863281 L 36.480469 19.929688 C 33.765625 30.402344 31.539062 39.382812 31.539062 39.886719 C 31.539062 41.074219 31.074219 41.03125 26.757812 39.515625 C 22.289062 37.953125 16.707031 38.507812 12.421875 40.90625 C 1.308594 47.125 12.679688 58.796875 26.207031 55.054688 C 27.875 54.597656 30.335938 53.234375 31.691406 52.03125 C 34.128906 49.859375 34.195312 49.609375 37.222656 29.640625 C 38.910156 18.527344 40.320312 9.253906 40.339844 9.03125 C 40.371094 8.816406 40.960938 9.710938 41.664062 11.023438 C 42.367188 12.328125 44.273438 15.007812 45.902344 16.976562 C 51.234375 23.402344 52.433594 27.09375 50.6875 31.671875 C 50.183594 32.988281 50.171875 33.585938 50.660156 33.289062 C 51.085938 33.023438 51.839844 31.449219 52.328125 29.808594 C 53.574219 25.679688 52.425781 21.953125 47.496094 14.195312 C 45.277344 10.699219 43 6.28125 42.4375 4.367188 L 41.386719 0.863281 "/>
</g>
</svg>
