<svg xmlns="http://www.w3.org/2000/svg" xmlns:xlink="http://www.w3.org/1999/xlink" width="64" height="64" viewBox="0 0 64 64" version="1.1">
<defs>
<linearGradient id="linear0" gradientUnits="userSpaceOnUse" x1="0" y1="0" x2="0" y2="1" gradientTransform="matrix(64,0,0,62.214844,0,0)">
<stop offset="0" style="stop-color:#ff6666;stop-opacity:1;"/>
<stop offset="1" style="stop-color:#d90000;stop-opacity:1;"/>
</linearGradient>
</defs>
<g id="surface1">
<path style=" stroke:none;fill-rule:nonzero;fill:url(#linear0);" d="M 34.375 0 L 34.398438 29.589844 L 34.441406 62.132812 L 43.183594 62.132812 L 43.207031 53.574219 C 43.222656 46.800781 43.242188 45.023438 43.324219 45.050781 C 43.375 45.070312 45.066406 47.667969 46.800781 50.816406 C 48.535156 53.964844 50.179688 56.890625 50.449219 57.332031 C 51 58.234375 52.078125 59.484375 52.785156 60.019531 C 54.261719 61.148438 55.792969 61.722656 58.164062 62.046875 C 59.4375 62.21875 63.726562 62.28125 63.859375 62.128906 C 63.914062 62.058594 63.9375 60.511719 63.925781 57.21875 L 63.898438 51.875 L 62.316406 51.816406 C 59.546875 51.847656 58.253906 51.125 56.699219 49.097656 C 56.460938 48.703125 55.230469 46.492188 53.976562 44.183594 C 51.765625 40.117188 51.699219 39.980469 51.820312 39.769531 C 51.882812 39.652344 54.644531 35.210938 57.949219 29.902344 C 61.246094 24.597656 63.976562 20.871094 64 20.804688 C 64.03125 20.695312 63.1875 20.738281 58.679688 20.738281 L 53.3125 20.738281 L 48.480469 27.769531 C 45.820312 32.039062 43.367188 35.546875 43.316406 35.566406 C 43.230469 35.601562 43.230469 10.84375 43.277344 0.0390625 C 42.988281 0.0390625 42.945312 0.00390625 42.660156 0.00390625 L 34.375 0.00390625 Z M 14.394531 20.738281 C 13.292969 20.746094 12.207031 20.800781 11.6875 20.898438 C 7.421875 21.710938 4.542969 24.007812 2.90625 27.683594 C 2.390625 28.847656 2.070312 29.976562 1.871094 31.34375 C 1.738281 32.261719 1.726562 32.652344 1.765625 34.136719 C 1.792969 35.34375 1.84375 36.113281 1.949219 36.703125 C 2.664062 40.746094 4.566406 43.3125 8.136719 44.648438 C 9.289062 45.078125 10.007812 45.242188 13.089844 45.761719 C 14.804688 46.042969 16.109375 46.300781 16.378906 46.410156 C 17.558594 46.894531 18.109375 47.769531 18.210938 49.296875 C 18.335938 51.175781 17.421875 52.464844 15.570312 53 C 14.832031 53.210938 13.476562 53.332031 12.523438 53.273438 C 9.386719 53.0625 7.34375 52.292969 5.570312 50.644531 L 5.363281 50.445312 L 2.683594 53.578125 C 1.207031 55.304688 0 56.792969 0 56.871094 C 0 57.085938 1.238281 58.328125 2.1875 59.070312 C 4.585938 60.953125 7.125 61.839844 11.15625 62.191406 C 12.003906 62.265625 15.125 62.15625 15.847656 62.027344 C 21.273438 61.078125 25.3125 57.835938 26.539062 53.007812 C 27.109375 50.765625 27.097656 47.375 26.507812 44.859375 C 26.078125 43.015625 25.519531 41.859375 24.433594 40.574219 C 23.296875 39.238281 22.019531 38.546875 20.304688 37.875 C 19.148438 37.425781 17.4375 37.203125 14.34375 36.703125 C 11.050781 36.160156 10.660156 36.023438 9.90625 35.203125 C 9.054688 34.273438 8.90625 33.035156 9.480469 31.675781 C 9.882812 30.71875 10.703125 30.175781 11.890625 29.796875 C 12.511719 29.601562 15.726562 29.578125 16.714844 29.761719 C 18.042969 30.007812 19.292969 30.464844 20.175781 31.304688 C 20.4375 31.546875 20.691406 31.746094 20.742188 31.746094 C 20.890625 31.746094 26.027344 25.710938 26.027344 25.539062 C 26.027344 25.339844 25.035156 24.355469 24.070312 23.601562 C 22.214844 22.144531 20.003906 21.253906 17.253906 20.851562 C 16.636719 20.765625 15.503906 20.726562 14.398438 20.734375 Z M 14.394531 20.738281 "/>
</g>
</svg>
