<svg xmlns="http://www.w3.org/2000/svg" xmlns:xlink="http://www.w3.org/1999/xlink" width="64" height="64" viewBox="0 0 64 64" version="1.1">
<defs> <linearGradient id="linear0" gradientUnits="userSpaceOnUse" x1="0" y1="0" x2="0" y2="1" gradientTransform="matrix(55.992188,0,0,56,4.003906,4)"> <stop offset="0" style="stop-color:#ff6666;stop-opacity:1;"/> <stop offset="1" style="stop-color:#d90000;stop-opacity:1;"/> </linearGradient> </defs>
<g id="surface1">
<path style=" stroke:none;fill-rule:nonzero;fill:url(#linear0);fill-opacity:1;" d="M 37.484375 11.820312 C 29.199219 11.871094 20.902344 11.8125 12.617188 11.84375 C 10.363281 11.859375 9.890625 11.921875 9.539062 11.976562 C 7.410156 12.324219 6.527344 12.734375 5.207031 14.007812 C 3.683594 15.472656 2.640625 17.054688 1.71875 19.296875 C 1.417969 20.019531 0.917969 21.46875 0.683594 22.269531 L 0.589844 22.621094 L 1.742188 22.617188 L 2.160156 21.9375 C 3.167969 20.3125 4.359375 18.945312 5.320312 18.328125 C 6.519531 17.554688 8.113281 17.191406 10.34375 17.1875 L 11.101562 17.1875 C 10.929688 19.160156 10.792969 21.140625 10.652344 23.117188 C 10.203125 29.289062 10.199219 29.367188 9.949219 30.964844 C 9.222656 35.613281 8.578125 37.371094 6.636719 40.0625 C 4.886719 42.488281 4.585938 43.054688 4.4375 44.207031 C 4.242188 45.808594 5.082031 47.148438 6.636719 47.6875 C 7.359375 47.921875 8.203125 47.929688 8.898438 47.605469 C 9.703125 47.210938 10.636719 46.125 11.214844 44.910156 C 12.28125 42.691406 13.464844 36.542969 14.273438 29.046875 C 14.34375 28.40625 15.144531 17.496094 15.144531 17.203125 L 24.46875 17.1875 C 23.855469 21.4375 23.488281 25.726562 23.117188 30 C 23.003906 31.496094 22.964844 36.410156 23.054688 37.761719 C 23.300781 41.542969 23.917969 43.898438 25.042969 45.378906 C 26.019531 46.664062 27.183594 47.453125 28.550781 47.757812 C 29.164062 47.894531 30.449219 47.855469 31.066406 47.6875 C 32.117188 47.398438 33.25 46.703125 34.203125 45.757812 C 35.433594 44.535156 36.230469 42.992188 36.828125 40.667969 C 37.054688 39.769531 37.421875 37.828125 37.421875 37.511719 L 36.265625 37.539062 C 36.066406 38.496094 35.984375 38.796875 35.832031 39.175781 C 35.394531 40.25 34.542969 41.046875 33.429688 41.4375 C 32.050781 41.84375 30.585938 41.632812 29.363281 40.917969 C 28.171875 40.140625 27.445312 38.839844 27.136719 36.953125 C 26.824219 30.351562 27.59375 23.734375 28.511719 17.203125 L 37.484375 17.1875 Z M 37.484375 11.820312 "/>
<path style=" stroke:none;fill-rule:nonzero;fill:url(#linear0);fill-opacity:1;" d="M 42.0625 12.820312 C 44.949219 16.683594 46.667969 23.011719 46.667969 29.769531 C 46.667969 36.410156 45 42.640625 42.191406 46.515625 C 45.3125 44.609375 47.496094 37.675781 47.503906 29.707031 C 47.496094 21.613281 45.242188 14.609375 42.0625 12.820312 Z M 42.0625 12.820312 "/>
<path style=" stroke:none;fill-rule:nonzero;fill:url(#linear0);fill-opacity:1;" d="M 49.207031 8.675781 C 52.097656 13.667969 53.816406 21.839844 53.816406 30.566406 C 53.8125 39.140625 52.148438 47.1875 49.34375 52.199219 C 52.453125 49.734375 54.648438 40.773438 54.648438 30.488281 C 54.648438 20.035156 52.386719 10.984375 49.207031 8.675781 Z M 49.207031 8.675781 "/>
<path style=" stroke:none;fill-rule:nonzero;fill:url(#linear0);fill-opacity:1;" d="M 55.867188 4.179688 C 58.753906 10.246094 60.472656 20.191406 60.472656 30.800781 C 60.46875 41.234375 58.804688 51.015625 56 57.109375 C 59.109375 54.117188 61.304688 43.222656 61.304688 30.707031 C 61.304688 17.996094 59.042969 6.984375 55.867188 4.179688 Z M 55.867188 4.179688 "/>
</g>
</svg>
