<svg xmlns="http://www.w3.org/2000/svg" xmlns:xlink="http://www.w3.org/1999/xlink" width="64" height="64" viewBox="0 0 64 64" version="1.1">
<defs>
<linearGradient id="linear0" gradientUnits="userSpaceOnUse" x1="0" y1="0" x2="0" y2="1" gradientTransform="matrix(64,0,0,64,0,0)">
<stop offset="0" style="stop-color:#ff6666;stop-opacity:1;"/>
<stop offset="1" style="stop-color:#d90000;stop-opacity:1;"/>
</linearGradient>
</defs>
<g id="surface1">
<path style=" stroke:none;fill-rule:nonzero;fill:url(#linear0);" d="M 15.976562 0 C 10.945312 0.0625 7.261719 -0.132812 4.25 1.640625 C 2.746094 2.527344 1.558594 4.027344 0.898438 5.898438 C 0.238281 7.769531 0 9.992188 0 12.796875 L 0 38.398438 C 0 41.203125 0.238281 43.425781 0.898438 45.296875 C 1.558594 47.167969 2.746094 48.667969 4.25 49.554688 C 7.261719 51.328125 10.945312 51.140625 15.976562 51.203125 L 24 51.203125 L 24 53.335938 C 24 59.734375 22 59.734375 18 59.734375 L 16 59.734375 L 16 64 L 48 64 L 48 59.734375 L 46 59.734375 C 42 59.734375 40 59.734375 40 53.335938 L 40 51.203125 L 48.023438 51.203125 C 53.054688 51.140625 56.738281 51.328125 59.75 49.554688 C 61.253906 48.667969 62.441406 47.167969 63.101562 45.296875 C 63.757812 43.425781 64 41.203125 64 38.398438 L 64 12.796875 C 64 9.992188 63.761719 7.769531 63.101562 5.898438 C 62.441406 4.027344 61.253906 2.527344 59.75 1.640625 C 56.738281 -0.132812 53.054688 0.0625 48.023438 0 Z M 16 4.265625 L 48 4.265625 C 53.035156 4.328125 56.347656 4.519531 57.8125 5.382812 C 58.546875 5.816406 58.96875 6.289062 59.359375 7.398438 C 59.75 8.507812 60 10.269531 60 12.796875 L 60 38.398438 C 60 40.925781 59.75 42.6875 59.359375 43.796875 C 58.96875 44.90625 58.546875 45.386719 57.8125 45.820312 C 56.347656 46.683594 53.035156 46.867188 48 46.929688 L 16 46.929688 C 10.964844 46.867188 7.644531 46.683594 6.179688 45.820312 C 5.445312 45.386719 5.03125 44.90625 4.640625 43.796875 C 4.25 42.6875 4 40.925781 4 38.398438 L 4 12.796875 C 4 10.269531 4.25 8.507812 4.640625 7.398438 C 5.03125 6.289062 5.445312 5.816406 6.179688 5.382812 C 7.644531 4.519531 10.964844 4.328125 16 4.265625 Z M 16 4.265625 "/>
</g>
</svg>
