<svg xmlns="http://www.w3.org/2000/svg" xmlns:xlink="http://www.w3.org/1999/xlink" width="64" height="64" viewBox="0 0 64 64" version="1.1">
<defs>
<linearGradient id="linear0" gradientUnits="userSpaceOnUse" x1="0" y1="0" x2="0" y2="1" gradientTransform="matrix(64,0,0,54.398438,0,4.800781)">
<stop offset="0" style="stop-color:#ff6666;stop-opacity:1;"/>
<stop offset="1" style="stop-color:#d90000;stop-opacity:1;"/>
</linearGradient>
</defs>
<g id="surface1">
<path style=" stroke:none;fill-rule:nonzero;fill:url(#linear0);" d="M 24.757812 59.199219 C 23.457031 58.839844 21.707031 58.1875 20.578125 55.800781 C 19.035156 52.519531 19.039062 52.589844 20.390625 50.585938 C 22.269531 47.808594 25.65625 42.867188 25.65625 41.519531 C 25.65625 40.671875 24.816406 40 22.726562 39.191406 C 18.230469 37.449219 12.136719 34.496094 8.992188 32.179688 C 5.144531 29.339844 1.550781 24.015625 0.433594 20.308594 C -0.355469 17.699219 -0.0976562 17.136719 1.460938 18.09375 C 9.613281 22.777344 12.160156 23.507812 20.238281 24.238281 C 25.261719 24.019531 29.179688 21.054688 28.984375 17.519531 C 28.820312 14.855469 27.058594 12.589844 25.988281 9.175781 C 25.386719 7.253906 25.722656 6.578125 25.832031 5.839844 C 25.90625 5.332031 26.105469 4.863281 26.265625 4.800781 C 27.152344 5.304688 27.742188 6.179688 28.601562 6.515625 C 30.621094 7.316406 32.757812 7.324219 34.902344 8.269531 C 37.101562 9.390625 38.074219 10.515625 38.5625 12.527344 C 38.914062 13.976562 39.875 14.949219 40.867188 15.914062 C 41.339844 16.375 41.722656 16.867188 41.722656 17.015625 C 41.722656 17.761719 39.296875 17.625 37.300781 17.054688 C 35.542969 16.558594 35.042969 18.785156 35.222656 20.390625 C 35.492188 24.660156 41.050781 23.867188 45.8125 24.238281 C 49.78125 24.546875 56.550781 24.027344 61.699219 21.820312 C 62.777344 21.355469 63.8125 21.007812 64 21.046875 C 62.242188 28.566406 54.695312 34.96875 48.175781 37.707031 C 44.960938 39.007812 40.3125 40.492188 38.914062 40.664062 C 35.449219 41.097656 34.261719 41.546875 33.699219 42.660156 C 33.058594 43.925781 32.121094 49.742188 31.773438 54.171875 C 30.941406 57.875 27.15625 59.171875 24.757812 59.199219 Z M 24.757812 59.199219 "/>
</g>
</svg>
