<svg xmlns="http://www.w3.org/2000/svg" xmlns:xlink="http://www.w3.org/1999/xlink" width="64" height="64" viewBox="0 0 64 64" version="1.1">
<defs> <linearGradient id="linear0" gradientUnits="userSpaceOnUse" x1="0" y1="0" x2="0" y2="1" gradientTransform="matrix(55.992188,0,0,56,4.003906,4)"> <stop offset="0" style="stop-color:#ff6666;stop-opacity:1;"/> <stop offset="1" style="stop-color:#d90000;stop-opacity:1;"/> </linearGradient> </defs>
<g id="surface1">
<path style="fill-rule:nonzero;fill:url(#linear0);fill-opacity:1;stroke-width:2.452;stroke-linecap:butt;stroke-linejoin:miter;stroke:url(#linear0);stroke-opacity:1;stroke-miterlimit:4;" d="M 323.55174 233.045392 C 323.55174 259.88922 301.801373 281.657914 274.924779 281.657914 C 248.084285 281.657914 226.333918 259.88922 226.333918 233.045392 C 226.333918 206.201564 248.084285 184.432869 274.924779 184.432869 C 301.801373 184.432869 323.55174 206.201564 323.55174 233.045392 Z M 323.55174 233.045392 " transform="matrix(0.216412,0,0,0.215512,-26.879718,-18.595079)"/>
<path style="fill:none;stroke-width:3.463;stroke-linecap:square;stroke-linejoin:round;stroke:url(#linear0);stroke-opacity:1;stroke-miterlimit:4;" d="M 270.935707 108.632135 C 339.634376 108.632135 395.355025 164.349844 395.355025 233.045392 C 395.355025 301.759065 339.634376 357.440523 270.935707 357.440523 " transform="matrix(0.216412,0,0,0.215512,-26.879718,-18.595079)"/>
<path style="fill:none;stroke-width:2.052;stroke-linecap:butt;stroke-linejoin:round;stroke:url(#linear0);stroke-opacity:1;stroke-miterlimit:4;" d="M 64.003214 59.822226 C 62.107576 59.816793 60.464699 61.100756 59.966755 62.909619 C 59.477513 64.750732 60.270881 66.66534 61.920354 67.617663 L 106.280396 93.256177 C 108.279748 94.383278 110.823919 93.714966 111.999729 91.725736 C 116.850891 83.323326 119.443484 73.698607 119.419348 63.992448 C 119.421735 61.693284 117.560903 59.829397 115.247459 59.814159 Z M 64.003214 59.822226 " transform="matrix(0.165675,0.285957,-0.286957,0.165099,41.508,8.082955)"/>
<path style="fill:none;stroke-width:2.052;stroke-linecap:butt;stroke-linejoin:round;stroke:url(#linear0);stroke-opacity:1;stroke-miterlimit:4;" d="M 64.000311 59.823439 C 62.124112 59.82751 60.451458 61.080088 59.967807 62.930254 C 59.482536 64.754035 60.271021 66.662023 61.909973 67.614543 L 106.288473 93.245702 C 108.278438 94.405371 110.83697 93.720487 111.998823 91.724643 C 116.853018 83.321355 119.449046 73.694681 119.429334 63.993626 C 119.420011 61.690427 117.550209 59.819351 115.251045 59.821737 Z M 64.000311 59.823439 " transform="matrix(0.286957,0.165099,-0.165675,0.285957,28.350587,6.72121)"/>
<path style="fill:none;stroke-width:2.052;stroke-linecap:butt;stroke-linejoin:round;stroke:url(#linear0);stroke-opacity:1;stroke-miterlimit:4;" d="M 64.004302 59.824678 C 62.118075 59.824678 60.455837 61.0905 59.972492 62.924166 C 59.477357 64.734172 60.279003 66.674309 61.905874 67.620717 L 106.279364 93.232892 C 108.283481 94.404072 110.841676 93.717926 111.985201 91.718639 C 116.854025 83.319265 119.447587 73.70139 119.424009 64.000705 C 119.424009 61.693835 117.56136 59.824678 115.250732 59.824678 Z M 64.004302 59.824678 " transform="matrix(0.331349,0,0,0.330196,16.272688,12.097708)"/>
<path style="fill:none;stroke-width:2.052;stroke-linecap:butt;stroke-linejoin:round;stroke:url(#linear0);stroke-opacity:1;stroke-miterlimit:4;" d="M 63.99507 59.820714 C 62.118871 59.816644 60.454557 61.096027 59.978353 62.911106 C 59.480108 64.740781 60.280821 66.678382 61.914339 67.6215 L 106.289077 93.255076 C 108.269718 94.398607 110.827605 93.717093 111.99125 91.725179 C 116.841593 83.32414 119.436693 73.689329 119.434365 64.002869 C 119.429184 61.677636 117.544968 59.824803 115.256014 59.828311 Z M 63.99507 59.820714 " transform="matrix(0.286957,-0.165099,0.165675,0.285957,8.510557,22.771815)"/>
<path style="fill:none;stroke-width:2.052;stroke-linecap:butt;stroke-linejoin:round;stroke:url(#linear0);stroke-opacity:1;stroke-miterlimit:4;" d="M 64.005034 59.820823 C 62.109396 59.826256 60.452065 61.096209 59.960437 62.918282 C 59.474705 64.750565 60.276495 66.683481 61.909548 67.619187 L 106.283081 93.251826 C 108.273031 94.40347 110.827868 93.717969 111.997782 91.722089 C 116.855113 83.336511 119.446577 73.699949 119.438433 63.985202 C 119.430152 61.675828 117.568618 59.823861 115.243385 59.818681 Z M 64.005034 59.820823 " transform="matrix(0.165675,-0.285957,0.286957,0.165099,7.144056,35.883416)"/>
<path style="fill:none;stroke-width:2.052;stroke-linecap:butt;stroke-linejoin:round;stroke:url(#linear0);stroke-opacity:1;stroke-miterlimit:4;" d="M 63.992973 59.827947 C 62.111986 59.827947 60.467602 61.089361 59.970737 62.916643 C 59.473873 64.743926 60.27832 66.665519 61.899044 67.620422 L 106.273764 93.249531 C 108.284882 94.393056 110.840185 93.709299 111.999535 91.716972 C 116.849877 83.323262 119.4525 73.691715 119.42884 63.989435 C 119.42884 61.690596 117.547854 59.827947 115.252813 59.827947 Z M 63.992973 59.827947 " transform="matrix(0,-0.330196,0.331349,0,12.539333,47.91927)"/>
<path style="fill:none;stroke-width:3.463;stroke-linecap:square;stroke-linejoin:round;stroke:url(#linear0);stroke-opacity:1;stroke-miterlimit:4;" d="M -266.858937 -359.721943 C -198.158065 -359.709475 -142.453311 -304.010152 -142.449966 -235.312273 C -142.464669 -166.61454 -198.150835 -110.910811 -266.851853 -110.905154 " transform="matrix(-0.216404,0.00174487,-0.00175216,-0.215504,-26.879718,-18.595079)"/>
<path style=" stroke:none;fill-rule:nonzero;fill:url(#linear0);fill-opacity:1;" d="M 30.761719 8.210938 C 17.699219 8.210938 7.113281 18.757812 7.113281 31.761719 C 7.113281 44.769531 17.699219 55.316406 30.761719 55.316406 C 30.816406 55.308594 30.875 55.308594 30.929688 55.308594 L 30.929688 8.222656 C 30.875 8.21875 30.816406 8.21875 30.761719 8.210938 Z M 30.761719 8.210938 "/>
</g>
</svg>
