<svg xmlns="http://www.w3.org/2000/svg" xmlns:xlink="http://www.w3.org/1999/xlink" width="64" height="64" viewBox="0 0 64 64" version="1.1">
<defs>
<linearGradient id="linear0" gradientUnits="userSpaceOnUse" x1="0" y1="0" x2="0" y2="1" gradientTransform="matrix(64,0,0,27.96875,0,18.015625)">
<stop offset="0" style="stop-color:#ff6666;stop-opacity:1;"/>
<stop offset="1" style="stop-color:#d90000;stop-opacity:1;"/>
</linearGradient>
</defs>
<g id="surface1">
<path style=" stroke:none;fill-rule:nonzero;fill:url(#linear0);" d="M 0.726562 34.753906 C 0.589844 34.753906 0.484375 34.855469 0.46875 35.003906 L 0 38.582031 L 0.46875 42.097656 C 0.484375 42.246094 0.589844 42.351562 0.726562 42.351562 C 0.855469 42.351562 0.960938 42.25 0.980469 42.101562 L 1.535156 38.585938 L 0.980469 35.007812 C 0.960938 34.859375 0.855469 34.753906 0.726562 34.753906 Z M 3.355469 32.796875 C 3.335938 32.644531 3.226562 32.539062 3.089844 32.539062 C 2.953125 32.539062 2.84375 32.644531 2.824219 32.796875 C 2.824219 32.796875 2.195312 38.582031 2.195312 38.582031 L 2.824219 44.238281 C 2.84375 44.390625 2.953125 44.5 3.089844 44.5 C 3.222656 44.5 3.332031 44.390625 3.355469 44.238281 L 4.070312 38.582031 Z M 13.269531 27.460938 C 13.011719 27.460938 12.800781 27.671875 12.785156 27.945312 L 12.285156 38.585938 L 12.785156 45.464844 C 12.804688 45.734375 13.011719 45.945312 13.269531 45.945312 C 13.527344 45.945312 13.742188 45.734375 13.753906 45.464844 L 14.320312 38.585938 L 13.753906 27.941406 C 13.738281 27.667969 13.527344 27.460938 13.269531 27.460938 Z M 8.140625 31.160156 C 7.941406 31.160156 7.78125 31.320312 7.765625 31.53125 L 7.199219 38.585938 L 7.765625 45.40625 C 7.78125 45.621094 7.941406 45.78125 8.140625 45.78125 C 8.335938 45.78125 8.496094 45.621094 8.515625 45.40625 L 9.15625 38.585938 L 8.515625 31.53125 C 8.496094 31.320312 8.335938 31.160156 8.140625 31.160156 Z M 18.484375 45.945312 C 18.804688 45.945312 19.066406 45.6875 19.078125 45.355469 L 19.570312 38.589844 L 19.078125 24.421875 C 19.0625 24.089844 18.804688 23.828125 18.484375 23.828125 C 18.164062 23.828125 17.902344 24.089844 17.890625 24.421875 C 17.890625 24.421875 17.457031 38.589844 17.457031 38.589844 L 17.890625 45.355469 C 17.910156 45.683594 18.164062 45.945312 18.484375 45.945312 Z M 29.160156 45.984375 C 29.601562 45.984375 29.964844 45.621094 29.972656 45.171875 L 30.316406 38.601562 L 29.972656 22.238281 C 29.972656 21.789062 29.601562 21.421875 29.160156 21.421875 C 28.71875 21.421875 28.355469 21.789062 28.347656 22.238281 L 28.042969 38.597656 C 28.042969 38.597656 28.347656 45.175781 28.347656 45.175781 C 28.347656 45.621094 28.71875 45.984375 29.160156 45.984375 Z M 23.78125 45.945312 C 24.164062 45.945312 24.476562 45.636719 24.484375 45.242188 L 24.902344 38.582031 L 24.484375 24.308594 C 24.46875 23.914062 24.164062 23.605469 23.78125 23.605469 C 23.394531 23.605469 23.085938 23.914062 23.078125 24.308594 L 22.707031 38.582031 L 23.078125 45.242188 C 23.09375 45.632812 23.394531 45.941406 23.78125 45.941406 Z M 10.695312 45.882812 C 10.921875 45.882812 11.109375 45.699219 11.125 45.457031 L 11.730469 38.578125 L 11.125 32.03125 C 11.109375 31.789062 10.921875 31.609375 10.695312 31.609375 C 10.464844 31.609375 10.28125 31.792969 10.265625 32.035156 L 9.734375 38.578125 L 10.265625 45.457031 C 10.28125 45.699219 10.464844 45.882812 10.695312 45.882812 Z M 5.605469 45.507812 C 5.769531 45.507812 5.90625 45.375 5.925781 45.191406 L 6.605469 38.574219 L 5.925781 31.710938 C 5.90625 31.527344 5.769531 31.394531 5.605469 31.394531 C 5.4375 31.394531 5.300781 31.527344 5.285156 31.710938 C 5.285156 31.710938 4.6875 38.574219 4.6875 38.574219 L 5.285156 45.1875 C 5.300781 45.371094 5.4375 45.503906 5.605469 45.503906 Z M 26.460938 24.074219 C 26.042969 24.074219 25.710938 24.40625 25.703125 24.835938 L 25.363281 38.585938 L 25.703125 45.203125 C 25.71875 45.625 26.042969 45.957031 26.460938 45.957031 C 26.875 45.957031 27.207031 45.625 27.21875 45.199219 L 27.597656 38.582031 L 27.21875 24.828125 C 27.203125 24.402344 26.875 24.070312 26.460938 24.070312 Z M 15.867188 45.953125 C 16.15625 45.953125 16.394531 45.71875 16.40625 45.414062 L 16.9375 38.582031 L 16.40625 25.503906 C 16.390625 25.203125 16.15625 24.96875 15.867188 24.96875 C 15.578125 24.96875 15.339844 25.203125 15.328125 25.503906 C 15.328125 25.503906 14.859375 38.582031 14.859375 38.582031 L 15.328125 45.417969 C 15.347656 45.71875 15.578125 45.953125 15.867188 45.953125 Z M 21.769531 45.308594 L 22.226562 38.589844 L 21.769531 23.941406 C 21.753906 23.578125 21.476562 23.292969 21.125 23.292969 C 20.769531 23.292969 20.484375 23.574219 20.476562 23.941406 L 20.070312 38.585938 L 20.476562 45.3125 C 20.492188 45.671875 20.769531 45.957031 21.125 45.957031 C 21.476562 45.957031 21.757812 45.671875 21.769531 45.308594 Z M 56.128906 30.140625 C 55.050781 30.140625 54.019531 30.363281 53.082031 30.757812 C 52.457031 23.617188 46.507812 18.015625 39.25 18.015625 C 37.476562 18.015625 35.742188 18.367188 34.214844 18.960938 C 33.621094 19.191406 33.464844 19.429688 33.457031 19.894531 L 33.457031 45.039062 C 33.457031 45.523438 33.835938 45.929688 34.308594 45.976562 C 34.328125 45.976562 55.988281 45.976562 56.128906 45.976562 C 60.476562 45.976562 64 42.429688 64 38.050781 C 64 33.675781 60.476562 30.128906 56.128906 30.128906 Z M 31.847656 19.871094 C 31.375 19.871094 30.988281 20.261719 30.980469 20.742188 L 30.625 38.589844 L 30.980469 45.070312 C 30.980469 45.542969 31.375 45.933594 31.847656 45.933594 C 32.320312 45.933594 32.707031 45.539062 32.714844 45.0625 L 33.101562 38.582031 L 32.714844 20.734375 C 32.714844 20.253906 32.320312 19.863281 31.847656 19.863281 Z M 31.847656 19.871094 "/>
</g>
</svg>
