<svg xmlns="http://www.w3.org/2000/svg" xmlns:xlink="http://www.w3.org/1999/xlink" width="64" height="64" viewBox="0 0 64 64" version="1.1">
<defs>
<linearGradient id="linear0" gradientUnits="userSpaceOnUse" x1="0" y1="0" x2="0" y2="1" gradientTransform="matrix(64,0,0,56,0,4)">
<stop offset="0" style="stop-color:#ff6666;stop-opacity:1;"/>
<stop offset="1" style="stop-color:#d90000;stop-opacity:1;"/>
</linearGradient>
<linearGradient id="linear1" gradientUnits="userSpaceOnUse" x1="0" y1="0" x2="0" y2="1" gradientTransform="matrix(57.625,0,0,9.433594,3.238281,7.640625)">
<stop offset="0" style="stop-color:#ff6666;stop-opacity:1;"/>
<stop offset="1" style="stop-color:#d90000;stop-opacity:1;"/>
</linearGradient>
<linearGradient id="linear2" gradientUnits="userSpaceOnUse" x1="0" y1="0" x2="0" y2="1" gradientTransform="matrix(4.550781,0,0,4.542969,40.386719,26.152344)">
<stop offset="0" style="stop-color:#ff6666;stop-opacity:1;"/>
<stop offset="1" style="stop-color:#d90000;stop-opacity:1;"/>
</linearGradient>
<linearGradient id="linear3" gradientUnits="userSpaceOnUse" x1="0" y1="0" x2="0" y2="1" gradientTransform="matrix(27.265625,0,0,20.441406,17.671875,32.96875)">
<stop offset="0" style="stop-color:#ff6666;stop-opacity:1;"/>
<stop offset="1" style="stop-color:#d90000;stop-opacity:1;"/>
</linearGradient>
<linearGradient id="linear4" gradientUnits="userSpaceOnUse" x1="0" y1="0" x2="0" y2="1" gradientTransform="matrix(6.816406,0,0,12.269531,31.304688,39.328125)">
<stop offset="0" style="stop-color:#ff6666;stop-opacity:1;"/>
<stop offset="1" style="stop-color:#d90000;stop-opacity:1;"/>
</linearGradient>
<linearGradient id="linear5" gradientUnits="userSpaceOnUse" x1="0" y1="0" x2="0" y2="1" gradientTransform="matrix(35.6875,0,0,19.453125,13.460938,20)">
<stop offset="0" style="stop-color:#ff6666;stop-opacity:1;"/>
<stop offset="1" style="stop-color:#d90000;stop-opacity:1;"/>
</linearGradient>
</defs>
<g id="surface1">
<path style=" stroke:none;fill-rule:nonzero;fill:url(#linear0);" d="M 15.976562 4 C 10.945312 4.054688 7.261719 3.875 4.253906 5.539062 C 2.742188 6.367188 1.554688 7.777344 0.898438 9.53125 C 0.238281 11.285156 0 13.367188 0 16 L 0 48 C 0 50.632812 0.238281 52.714844 0.898438 54.46875 C 1.554688 56.222656 2.742188 57.632812 4.253906 58.460938 C 7.261719 60.125 10.945312 59.941406 15.976562 60 L 48.023438 60 C 53.054688 59.945312 56.738281 60.125 59.753906 58.460938 C 61.257812 57.632812 62.445312 56.222656 63.105469 54.46875 C 63.761719 52.714844 64 50.632812 64 48 L 64 16 C 64 13.367188 63.761719 11.285156 63.101562 9.53125 C 62.445312 7.777344 61.257812 6.367188 59.753906 5.539062 C 56.738281 3.875 53.054688 4.058594 48.023438 4 Z M 16 8 L 48 8 C 53.035156 8.058594 56.347656 8.238281 57.8125 9.046875 C 58.546875 9.453125 58.96875 9.894531 59.359375 10.9375 C 59.746094 11.976562 60 13.632812 60 16 L 60 48 C 60 50.367188 59.746094 52.023438 59.359375 53.0625 C 58.96875 54.105469 58.546875 54.546875 57.8125 54.953125 C 56.347656 55.761719 53.035156 55.941406 48 56 L 16 56 C 10.964844 55.941406 7.644531 55.761719 6.179688 54.953125 C 5.449219 54.546875 5.03125 54.105469 4.640625 53.0625 C 4.253906 52.023438 4 50.367188 4 48 L 4 16 C 4 13.632812 4.253906 11.976562 4.640625 10.9375 C 5.03125 9.894531 5.449219 9.453125 6.179688 9.046875 C 7.644531 8.238281 10.964844 8.058594 16 8 Z M 16 8 "/>
<path style=" stroke:none;fill-rule:nonzero;fill:url(#linear1);" d="M 3.238281 7.640625 L 60.863281 7.640625 L 60.863281 17.074219 L 3.238281 17.074219 Z M 3.238281 7.640625 "/>
<path style=" stroke:none;fill-rule:nonzero;fill:url(#linear2);" d="M 44.9375 30.695312 L 44.9375 26.152344 L 40.386719 26.152344 Z M 44.9375 30.695312 "/>
<path style=" stroke:none;fill-rule:nonzero;fill:url(#linear3);" d="M 17.671875 35.238281 L 17.671875 53.410156 L 38.121094 53.410156 L 38.121094 51.144531 L 19.945312 51.144531 L 19.945312 33.722656 Z M 42.667969 32.96875 L 42.664062 53.410156 L 44.9375 53.410156 L 44.9375 35.238281 Z M 42.667969 32.96875 "/>
<path style=" stroke:none;fill-rule:nonzero;fill:url(#linear4);" d="M 31.304688 39.753906 C 31.761719 39.640625 32.21875 39.546875 32.683594 39.472656 C 33.257812 39.375 33.914062 39.328125 34.664062 39.328125 C 35.332031 39.328125 35.890625 39.425781 36.332031 39.621094 C 36.777344 39.804688 37.128906 40.066406 37.386719 40.414062 C 37.660156 40.746094 37.847656 41.15625 37.957031 41.632812 C 38.0625 42.109375 38.121094 42.632812 38.121094 43.203125 L 38.121094 51.597656 L 31.304688 51.597656 Z M 31.304688 39.753906 "/>
<path style=" stroke:none;fill-rule:evenodd;fill:url(#linear5);" d="M 31.304688 20 L 13.460938 37.839844 L 15.066406 39.453125 L 31.304688 23.210938 L 47.539062 39.453125 L 49.148438 37.839844 Z M 31.304688 20 "/>
</g>
</svg>
