<svg xmlns="http://www.w3.org/2000/svg" xmlns:xlink="http://www.w3.org/1999/xlink" width="64" height="64" viewBox="0 0 64 64" version="1.1">
<defs> <linearGradient id="linear0" gradientUnits="userSpaceOnUse" x1="0" y1="0" x2="0" y2="1" gradientTransform="matrix(55.992188,0,0,56,4.003906,4)"> <stop offset="0" style="stop-color:#ff6666;stop-opacity:1;"/> <stop offset="1" style="stop-color:#d90000;stop-opacity:1;"/> </linearGradient> </defs>
<g id="surface1">
<path style=" stroke:none;fill-rule:nonzero;fill:url(#linear0);fill-opacity:1;" d="M 37.621094 4.890625 C 15.785156 17.9375 24.519531 28.8125 26.699219 30.984375 C 25.445312 26.070312 26.992188 19.15625 33.253906 15.765625 C 35.171875 14.726562 37.621094 7.070312 37.621094 4.890625 Z M 17.175781 7.921875 C 11 32.523438 24.894531 34.0625 27.984375 34.0625 C 23.601562 31.464844 19.785156 25.496094 21.804688 18.683594 C 22.425781 16.605469 18.714844 9.457031 17.175781 7.921875 Z M 42.636719 15.597656 C 29 15.8125 27.976562 25.414062 27.976562 27.914062 C 30.585938 23.550781 36.582031 19.75 43.417969 21.761719 C 45.515625 22.378906 52.6875 18.691406 54.234375 17.152344 C 49.597656 16 45.78125 15.546875 42.636719 15.597656 Z M 40.074219 23.109375 C 35.433594 22.832031 32.160156 25.550781 31.066406 26.636719 C 36.007812 25.386719 42.949219 26.925781 46.355469 33.164062 C 47.394531 35.074219 55.089844 37.511719 57.269531 37.511719 C 50.722656 26.636719 44.714844 23.378906 40.074219 23.109375 Z M 4.863281 24.464844 C 17.964844 46.210938 28.886719 37.511719 31.066406 35.335938 C 26.132812 36.585938 19.1875 35.050781 15.785156 28.8125 C 14.742188 26.902344 7.050781 24.464844 4.863281 24.464844 Z M 34.15625 27.914062 C 38.535156 30.503906 42.359375 36.476562 40.332031 43.285156 C 39.710938 45.371094 43.417969 52.515625 44.964844 54.054688 C 51.136719 29.453125 37.246094 27.914062 34.15625 27.914062 Z M 35.433594 30.984375 C 36.691406 35.90625 35.152344 42.824219 28.886719 46.210938 C 26.96875 47.246094 24.519531 54.90625 24.519531 57.078125 C 46.355469 44.03125 37.621094 33.164062 35.433594 30.984375 Z M 34.15625 34.0625 C 31.550781 38.421875 25.554688 42.230469 18.714844 40.214844 C 16.625 39.59375 9.449219 43.285156 7.910156 44.824219 C 32.613281 50.976562 34.15625 37.140625 34.15625 34.0625 Z M 34.15625 34.0625 "/>
</g>
</svg>
