<svg xmlns="http://www.w3.org/2000/svg" xmlns:xlink="http://www.w3.org/1999/xlink" width="64" height="64" viewBox="0 0 64 64" version="1.1">
<defs>
<linearGradient id="linear0" gradientUnits="userSpaceOnUse" x1="0" y1="0" x2="0" y2="1" gradientTransform="matrix(64,0,0,59.0625,0,2.46875)">
<stop offset="0" style="stop-color:#ff6666;stop-opacity:1;"/>
<stop offset="1" style="stop-color:#d90000;stop-opacity:1;"/>
</linearGradient>
</defs>
<g id="surface1">
<path style=" stroke:none;fill-rule:nonzero;fill:url(#linear0);" d="M 32.230469 2.472656 C 29.40625 2.375 26.847656 4.058594 25.925781 6.625 L 21.078125 20.023438 L 6.316406 20.304688 C 3.570312 20.351562 1.164062 22.066406 0.316406 24.570312 C -0.53125 27.078125 0.367188 29.828125 2.554688 31.414062 L 14.320312 39.980469 L 10.042969 53.554688 C 9.246094 56.074219 10.199219 58.804688 12.421875 60.351562 C 14.640625 61.898438 17.640625 61.929688 19.886719 60.421875 L 32 52.316406 L 44.113281 60.421875 C 46.359375 61.929688 49.359375 61.898438 51.578125 60.351562 C 53.800781 58.804688 54.753906 56.074219 53.957031 53.554688 L 49.679688 39.980469 L 61.445312 31.414062 C 63.632812 29.828125 64.53125 27.078125 63.683594 24.570312 C 62.835938 22.066406 60.429688 20.351562 57.683594 20.304688 L 42.921875 20.023438 L 38.074219 6.625 C 37.203125 4.214844 34.882812 2.5625 32.230469 2.472656 Z M 32 11.535156 L 35.980469 22.53125 C 37.019531 25.410156 39.726562 27.347656 42.785156 27.40625 L 54.109375 27.621094 L 45.332031 34.011719 C 42.765625 35.875 41.679688 39.175781 42.632812 42.199219 L 45.976562 52.785156 L 36.105469 46.179688 C 33.621094 44.519531 30.378906 44.519531 27.894531 46.179688 L 18.023438 52.785156 L 21.367188 42.199219 C 22.320312 39.175781 21.230469 35.875 18.667969 34.011719 L 9.890625 27.621094 L 21.214844 27.40625 C 24.273438 27.347656 26.980469 25.410156 28.019531 22.53125 Z M 32 11.535156 "/>
</g>
</svg>
