<svg xmlns="http://www.w3.org/2000/svg" xmlns:xlink="http://www.w3.org/1999/xlink" width="64" height="64" viewBox="0 0 64 64" version="1.1">
<defs>
<linearGradient id="linear0" gradientUnits="userSpaceOnUse" x1="0" y1="0" x2="0" y2="1" gradientTransform="matrix(64,0,0,64,0,0)">
<stop offset="0" style="stop-color:#ff6666;stop-opacity:1;"/>
<stop offset="1" style="stop-color:#d90000;stop-opacity:1;"/>
</linearGradient>
</defs>
<g id="surface1">
<path style=" stroke:none;fill-rule:nonzero;fill:url(#linear0);" d="M 29.074219 63.890625 C 19.511719 62.96875 10.6875 57.714844 5.441406 49.824219 C 0.515625 42.414062 -1.136719 33.640625 0.777344 25.066406 C 1.488281 21.875 3.285156 17.257812 3.652344 17.664062 C 3.730469 17.757812 3.988281 18.589844 4.214844 19.515625 C 5.558594 24.996094 9.0625 29 14.957031 31.800781 C 18.714844 33.585938 22.308594 34.625 29.65625 36.054688 C 36.46875 37.382812 38.226562 38.078125 40.980469 39.457031 C 43.984375 40.964844 45.859375 42.707031 46.988281 45.039062 C 48.011719 47.160156 48.253906 48.542969 48.152344 51.699219 C 48.074219 54.109375 48.003906 54.59375 47.519531 55.921875 C 45.773438 60.441406 42.078125 62.289062 38.726562 63.125 C 35.71875 63.867188 32.125 64.183594 29.074219 63.890625 Z M 60.046875 45.738281 C 58.851562 38.65625 54.910156 33.476562 48.175781 30.128906 C 44.273438 28.183594 41.53125 27.382812 32.429688 25.53125 C 25.585938 24.136719 21.089844 23.34375 18.566406 22.140625 C 15.5625 20.703125 13.71875 18.46875 13.109375 15.519531 C 12.808594 14.0625 12.851562 10.511719 13.1875 9.191406 C 13.863281 6.527344 15.832031 3.703125 17.710938 2.6875 C 18.214844 2.421875 19.40625 1.9375 20.363281 1.621094 C 33.945312 -2.898438 50.628906 2.277344 58.585938 14.203125 C 63.480469 21.542969 65.140625 30.382812 63.222656 38.921875 C 62.507812 42.121094 60.847656 46.445312 60.339844 46.445312 C 60.242188 46.445312 60.113281 46.128906 60.046875 45.738281 Z M 60.046875 45.738281 "/>
</g>
</svg>
