<svg xmlns="http://www.w3.org/2000/svg" xmlns:xlink="http://www.w3.org/1999/xlink" width="64" height="64" viewBox="0 0 64 64" version="1.1">
<defs>
<linearGradient id="linear0" gradientUnits="userSpaceOnUse" x1="0" y1="0" x2="0" y2="1" gradientTransform="matrix(64,0,0,41.414062,0,11.292969)">
<stop offset="0" style="stop-color:#ff6666;stop-opacity:1;"/>
<stop offset="1" style="stop-color:#d90000;stop-opacity:1;"/>
</linearGradient>
</defs>
<g id="surface1">
<path style=" stroke:none;fill-rule:evenodd;fill:url(#linear0);" d="M 2.816406 11.578125 C 2.96875 11.386719 3.167969 11.292969 3.425781 11.292969 L 9.523438 11.292969 C 9.78125 11.292969 9.984375 11.378906 10.128906 11.558594 C 10.277344 11.734375 10.351562 11.976562 10.351562 12.289062 L 10.351562 13.851562 L 7.875 13.851562 L 7.875 13.246094 L 5.066406 13.246094 L 5.066406 13.558594 L 9.878906 15.226562 C 10.058594 15.289062 10.183594 15.382812 10.246094 15.519531 C 10.316406 15.648438 10.351562 15.816406 10.351562 16.019531 L 10.351562 18.03125 C 10.351562 18.34375 10.277344 18.597656 10.125 18.785156 C 9.972656 18.96875 9.765625 19.058594 9.507812 19.058594 L 3.425781 19.058594 C 3.167969 19.058594 2.96875 18.96875 2.816406 18.785156 C 2.664062 18.597656 2.585938 18.34375 2.585938 18.03125 L 2.585938 16.3125 L 5.066406 16.3125 L 5.066406 17.109375 L 7.875 17.109375 L 7.875 16.785156 L 3.050781 15.09375 C 2.871094 15.035156 2.746094 14.945312 2.683594 14.824219 C 2.621094 14.695312 2.585938 14.527344 2.585938 14.320312 L 2.585938 12.320312 C 2.585938 12.007812 2.664062 11.761719 2.816406 11.578125 Z M 12.941406 19.058594 L 12.941406 11.292969 L 19.890625 11.292969 C 20.148438 11.292969 20.34375 11.386719 20.484375 11.578125 C 20.628906 11.761719 20.707031 12.007812 20.707031 12.320312 L 20.707031 16.066406 C 20.707031 16.378906 20.628906 16.628906 20.476562 16.820312 C 20.332031 17.003906 20.128906 17.097656 19.871094 17.097656 L 15.417969 17.097656 L 15.417969 19.058594 Z M 23.292969 19.058594 L 23.292969 11.292969 L 30.988281 11.292969 L 30.988281 13.5 L 25.820312 13.5 L 25.820312 14.125 L 29.757812 14.125 L 29.757812 16.164062 L 25.820312 16.164062 L 25.820312 16.855469 L 31.058594 16.855469 L 31.058594 19.058594 Z M 33.847656 11.578125 C 33.988281 11.386719 34.183594 11.292969 34.429688 11.292969 L 40.613281 11.292969 C 40.859375 11.292969 41.054688 11.386719 41.195312 11.578125 C 41.339844 11.761719 41.410156 12.007812 41.410156 12.320312 L 41.410156 14.570312 L 39.039062 14.570312 L 39.039062 13.398438 L 36.015625 13.398438 L 36.015625 16.957031 L 39.039062 16.957031 L 39.039062 15.78125 L 41.410156 15.78125 L 41.410156 18.03125 C 41.410156 18.34375 41.335938 18.597656 41.1875 18.785156 C 41.046875 18.96875 40.859375 19.058594 40.613281 19.058594 L 34.429688 19.058594 C 34.183594 19.058594 33.988281 18.96875 33.847656 18.785156 C 33.714844 18.597656 33.648438 18.34375 33.648438 18.03125 L 33.648438 12.320312 C 33.648438 12.007812 33.714844 11.761719 33.847656 11.578125 Z M 18.226562 13.398438 L 15.417969 13.398438 L 15.417969 15.066406 L 18.226562 15.066406 Z M 33.847656 21.929688 C 33.988281 21.742188 34.183594 21.648438 34.429688 21.648438 L 40.628906 21.648438 C 40.875 21.648438 41.070312 21.742188 41.203125 21.929688 C 41.34375 22.113281 41.410156 22.363281 41.410156 22.671875 L 41.410156 28.386719 C 41.410156 28.695312 41.339844 28.949219 41.199219 29.140625 C 41.0625 29.320312 40.875 29.410156 40.628906 29.410156 L 34.429688 29.410156 C 34.183594 29.410156 33.988281 29.320312 33.847656 29.140625 C 33.714844 28.949219 33.648438 28.695312 33.648438 28.386719 L 33.648438 22.671875 C 33.648438 22.363281 33.714844 22.113281 33.847656 21.929688 Z M 44 29.410156 L 44 21.648438 L 50.945312 21.648438 C 51.203125 21.648438 51.402344 21.742188 51.542969 21.929688 C 51.6875 22.113281 51.765625 22.363281 51.765625 22.671875 L 51.765625 26.425781 C 51.765625 26.734375 51.6875 26.984375 51.535156 27.171875 C 51.390625 27.355469 51.1875 27.449219 50.929688 27.449219 L 46.476562 27.449219 L 46.476562 29.410156 Z M 54.578125 21.929688 C 54.730469 21.742188 54.933594 21.648438 55.191406 21.648438 L 61.289062 21.648438 C 61.546875 21.648438 61.746094 21.738281 61.894531 21.914062 C 62.039062 22.089844 62.117188 22.335938 62.117188 22.648438 L 62.117188 24.210938 L 59.640625 24.210938 L 59.640625 23.597656 L 56.828125 23.597656 L 56.828125 23.917969 L 61.640625 25.582031 C 61.824219 25.640625 61.945312 25.738281 62.011719 25.875 C 62.082031 26 62.117188 26.171875 62.117188 26.375 L 62.117188 28.386719 C 62.117188 28.695312 62.042969 28.949219 61.890625 29.140625 C 61.738281 29.320312 61.53125 29.410156 61.273438 29.410156 L 55.191406 29.410156 C 54.933594 29.410156 54.730469 29.320312 54.578125 29.140625 C 54.425781 28.949219 54.351562 28.695312 54.351562 28.386719 L 54.351562 26.667969 L 56.828125 26.667969 L 56.828125 27.460938 L 59.644531 27.460938 L 59.644531 27.136719 L 54.824219 25.449219 C 54.640625 25.386719 54.511719 25.296875 54.449219 25.175781 C 54.382812 25.046875 54.351562 24.882812 54.351562 24.679688 L 54.351562 22.671875 C 54.351562 22.363281 54.425781 22.113281 54.578125 21.929688 Z M 39.039062 23.75 L 36.015625 23.75 L 36.015625 27.308594 L 39.039062 27.308594 Z M 49.285156 23.75 L 46.476562 23.75 L 46.476562 25.417969 L 49.285156 25.417969 Z M 0.0078125 38.375 L 0.0507812 37.175781 L 7.933594 37.175781 L 7.976562 38.21875 C 8.003906 38.847656 7.957031 39.335938 7.859375 39.453125 C 7.753906 39.578125 7.316406 39.660156 6.667969 39.6875 L 5.640625 39.730469 L 5.683594 43.714844 C 5.707031 45.195312 5.753906 47.746094 5.785156 49.378906 C 5.824219 51.375 5.789062 52.410156 5.6875 52.535156 C 5.578125 52.664062 5.128906 52.714844 4.15625 52.703125 C 3.394531 52.695312 2.664062 52.65625 2.53125 52.621094 C 2.394531 52.585938 2.25 52.445312 2.207031 52.304688 C 2.160156 52.164062 2.152344 49.585938 2.1875 46.574219 L 2.25 39.800781 L 1.292969 39.796875 C 0.769531 39.796875 0.253906 39.742188 0.152344 39.679688 C 0.0195312 39.597656 -0.0195312 39.230469 0.0078125 38.375 Z M 9.246094 37.878906 L 9.347656 37.175781 L 12.355469 37.175781 L 12.425781 39.589844 L 12.5 43.296875 L 13.738281 43.339844 L 14.976562 43.378906 L 15.078125 42.503906 C 15.136719 42.019531 15.15625 39.621094 15.128906 38.753906 L 15.078125 37.175781 L 16.652344 37.195312 L 18.226562 37.210938 L 18.226562 43.976562 C 18.226562 46.984375 18.179688 49.5 18.121094 49.558594 C 18.058594 49.621094 17.933594 49.589844 17.839844 49.5 C 17.582031 49.242188 17.183594 49.296875 17.011719 49.613281 C 16.789062 50.03125 16.582031 49.960938 16.582031 49.472656 C 16.582031 49.136719 16.515625 49.046875 16.285156 49.046875 C 16.039062 49.046875 15.996094 49.121094 16.035156 49.488281 C 16.078125 49.902344 16.148438 49.953125 17.078125 50.238281 L 18.074219 50.546875 L 18.078125 51.605469 L 18.085938 52.664062 L 14.648438 52.664062 L 14.617188 51.175781 C 14.601562 50.355469 14.644531 49.242188 14.71875 48.695312 C 14.835938 47.792969 14.808594 47.445312 14.496094 45.972656 C 14.441406 45.703125 14.363281 45.675781 13.824219 45.746094 C 13.355469 45.804688 13.078125 45.832031 12.917969 45.984375 C 12.683594 46.210938 12.699219 46.703125 12.726562 47.953125 L 12.773438 49.816406 L 12.417969 49.898438 L 12.066406 49.984375 L 12.390625 50.257812 C 12.660156 50.484375 12.710938 50.671875 12.710938 51.402344 C 12.710938 51.929688 12.640625 52.335938 12.535156 52.421875 C 12.316406 52.59375 11.507812 52.777344 11.40625 52.675781 C 11.367188 52.636719 10.820312 52.585938 10.195312 52.566406 L 9.058594 52.523438 L 9.101562 46.199219 C 9.125 42.722656 9.191406 38.265625 9.246094 37.878906 Z M 40.972656 38.125 C 40.972656 37.8125 42.71875 37.195312 43.492188 37.175781 C 43.605469 37.175781 43.695312 37.1875 43.757812 37.210938 C 43.953125 37.285156 43.976562 37.710938 43.945312 40.472656 L 43.941406 40.507812 C 43.910156 43.242188 43.890625 44.867188 43.691406 44.890625 L 41.351562 44.945312 C 41.296875 44.929688 41.269531 44.921875 41.242188 44.910156 C 41.207031 44.898438 41.171875 44.886719 41.074219 44.867188 L 40.246094 44.707031 L 40.285156 42.101562 L 40.320312 38.195312 L 40.644531 38.230469 C 40.824219 38.25 40.972656 38.203125 40.972656 38.125 Z M 47.703125 37.1875 C 47.855469 37.183594 47.976562 37.179688 48.046875 37.175781 C 48.378906 37.167969 48.496094 37.3125 48.992188 38.316406 C 49.300781 38.945312 49.679688 39.921875 49.835938 40.484375 C 49.949219 40.90625 50.0625 41.421875 50.171875 41.90625 C 50.378906 42.828125 50.558594 43.648438 50.683594 43.570312 C 50.761719 43.523438 50.824219 41.164062 50.824219 39.804688 C 50.824219 38.269531 50.777344 37.648438 51.058594 37.402344 C 51.285156 37.207031 51.71875 37.246094 52.550781 37.246094 L 53.640625 37.242188 L 53.734375 40.1875 C 53.800781 42.265625 53.78125 44.484375 53.667969 44.621094 C 53.664062 44.628906 53.652344 44.632812 53.640625 44.636719 C 53.632812 44.640625 53.625 44.644531 53.621094 44.648438 L 45.785156 44.824219 C 45.757812 44.8125 45.726562 44.804688 45.695312 44.800781 C 45.65625 44.792969 45.621094 44.785156 45.59375 44.765625 C 45.367188 44.59375 45.34375 44.460938 45.441406 43.777344 C 45.597656 42.699219 45.59375 41.058594 45.398438 39.269531 C 45.300781 38.417969 45.265625 37.613281 45.316406 37.480469 C 45.386719 37.292969 45.636719 37.238281 46.535156 37.214844 C 46.953125 37.207031 47.390625 37.195312 47.703125 37.1875 Z M 19.480469 37.304688 C 19.574219 37.210938 21.433594 37.171875 23.3125 37.179688 C 25.191406 37.1875 27.089844 37.246094 27.269531 37.339844 C 27.488281 37.457031 27.535156 37.652344 27.535156 38.472656 C 27.535156 39.019531 27.515625 39.476562 27.496094 39.488281 C 27.476562 39.496094 26.429688 39.546875 25.167969 39.59375 L 22.875 39.679688 L 22.832031 42.058594 C 22.804688 42.832031 22.847656 43.183594 22.984375 43.296875 C 23.09375 43.386719 23.847656 43.476562 24.675781 43.5 L 26.171875 43.539062 L 26.214844 44.785156 C 26.257812 46.015625 26.25 46.027344 25.882812 46.121094 C 25.679688 46.171875 25.261719 46.171875 24.949219 46.121094 C 24.636719 46.074219 24.027344 46.074219 23.59375 46.125 L 22.804688 46.214844 L 22.804688 48.039062 C 22.804688 49.21875 22.75 49.902344 22.644531 49.964844 C 22.257812 50.203125 23.023438 50.304688 25.203125 50.308594 L 27.535156 50.308594 L 27.535156 51.433594 C 27.535156 52.328125 27.488281 52.578125 27.308594 52.644531 C 27.082031 52.730469 22.796875 52.722656 20.835938 52.628906 C 20.261719 52.601562 19.792969 52.515625 19.792969 52.4375 C 19.792969 52.355469 19.890625 52.105469 20.011719 51.878906 C 20.179688 51.550781 20.191406 51.390625 20.0625 51.113281 C 19.769531 50.46875 19.964844 50.308594 21.070312 50.308594 C 22.109375 50.308594 22.539062 50.105469 21.84375 49.9375 C 21.175781 49.78125 21.0625 49.613281 21.164062 48.949219 C 21.242188 48.425781 21.210938 48.320312 20.921875 48.117188 C 20.738281 47.992188 20.457031 47.886719 20.292969 47.886719 C 19.761719 47.886719 19.648438 47.609375 19.648438 46.273438 C 19.648438 45.574219 19.582031 42.300781 19.496094 40.578125 C 19.390625 38.496094 19.382812 37.398438 19.480469 37.304688 Z M 56 37.257812 C 56.070312 37.210938 56.558594 37.1875 57.257812 37.179688 C 59.351562 37.160156 63.339844 37.300781 63.523438 37.457031 C 63.648438 37.5625 63.714844 37.957031 63.714844 38.613281 L 63.714844 39.609375 L 61.203125 39.609375 C 58.921875 39.375 58.390625 39.6875 58.84375 39.96875 C 58.921875 40.015625 58.988281 41.753906 58.988281 42.246094 C 58.988281 42.738281 59.035156 43.21875 59.09375 43.308594 C 59.15625 43.40625 59.808594 43.507812 60.6875 43.554688 C 61.507812 43.597656 62.238281 43.691406 62.3125 43.769531 C 62.390625 43.84375 62.429688 44.054688 62.402344 44.234375 C 62.390625 44.320312 62.367188 44.382812 62.320312 44.429688 L 55.644531 44.585938 L 55.730469 40.355469 C 55.792969 38.144531 55.859375 37.359375 56 37.257812 Z M 32.355469 39.589844 C 32.339844 37.613281 32.339844 37.234375 33.082031 37.183594 C 33.257812 37.171875 33.472656 37.179688 33.738281 37.1875 C 33.902344 37.191406 34.085938 37.195312 34.292969 37.199219 L 35.726562 37.210938 L 35.757812 41.886719 C 35.769531 43.523438 35.824219 44.75 35.878906 45.097656 L 34.804688 45.125 C 34.695312 45.097656 34.523438 45.09375 34.234375 45.132812 C 33.84375 45.1875 33.269531 45.1875 32.945312 45.132812 L 32.355469 45.039062 L 32.355469 40.523438 C 32.355469 40.179688 32.355469 39.867188 32.355469 39.589844 Z M 56.121094 45.171875 L 62.714844 45.152344 L 62.714844 45.445312 C 62.714844 45.90625 62.675781 45.945312 62.175781 46.023438 C 61.878906 46.070312 61.039062 46.125 60.308594 46.144531 L 58.988281 46.183594 L 58.988281 47.792969 C 58.988281 48.917969 58.984375 49.484375 59.265625 49.773438 C 59.554688 50.070312 60.132812 50.078125 61.3125 50.097656 C 62.632812 50.121094 63.21875 50.191406 63.550781 50.367188 C 63.984375 50.589844 64 50.636719 64 51.53125 C 64 52.042969 63.957031 52.488281 63.894531 52.523438 C 63.683594 52.652344 56.1875 52.777344 56.011719 52.65625 C 55.867188 52.554688 55.863281 52.28125 55.996094 51.332031 C 56.144531 50.285156 56.136719 50.050781 55.921875 49.449219 C 55.710938 48.859375 55.699219 48.53125 55.816406 47.070312 C 55.890625 46.144531 56.023438 45.296875 56.121094 45.171875 Z M 46.40625 45.210938 L 53.648438 45.179688 C 53.898438 45.210938 54.058594 45.253906 54.109375 45.316406 C 54.230469 45.464844 54.261719 46.484375 54.230469 48.90625 C 54.199219 51.445312 54.210938 52.289062 53.820312 52.566406 C 53.605469 52.722656 53.269531 52.703125 52.734375 52.703125 C 51.988281 52.703125 51.78125 52.644531 51.523438 52.371094 C 51.027344 51.84375 50.679688 51.199219 50.679688 50.804688 C 50.679688 50.355469 49.101562 45.691406 48.949219 45.691406 C 48.761719 45.691406 48.625 48.4375 48.707031 50.539062 C 48.773438 52.222656 48.753906 52.554688 48.574219 52.621094 C 48.304688 52.726562 46.523438 52.707031 46.238281 52.597656 C 45.839844 52.445312 45.796875 52.203125 45.785156 49.855469 C 45.78125 48.570312 45.769531 47.023438 45.757812 46.421875 C 45.734375 45.328125 45.734375 45.328125 46.128906 45.28125 C 46.246094 45.269531 46.339844 45.242188 46.40625 45.210938 Z M 42.796875 45.222656 C 42.960938 45.242188 43.164062 45.25 43.414062 45.21875 L 44.054688 45.21875 C 44.144531 45.261719 44.195312 45.339844 44.253906 45.488281 C 44.445312 45.996094 44.492188 51.890625 44.308594 52.335938 C 44.160156 52.691406 44.144531 52.695312 42.347656 52.703125 C 41.347656 52.707031 40.496094 52.683594 40.460938 52.644531 C 40.289062 52.476562 40.410156 49.996094 40.609375 49.511719 C 40.726562 49.230469 40.824219 48.785156 40.824219 48.519531 C 40.824219 48.125 40.871094 48.054688 41.078125 48.128906 C 41.214844 48.179688 41.441406 48.347656 41.589844 48.496094 C 42.132812 49.054688 42.480469 48.203125 42.046875 47.367188 C 41.878906 47.035156 41.71875 46.9375 41.222656 46.878906 L 40.609375 46.8125 L 40.609375 45.375 L 41.46875 45.296875 C 41.707031 45.277344 41.875 45.253906 41.980469 45.226562 Z M 34.828125 45.253906 L 35.890625 45.25 C 35.890625 45.253906 35.894531 45.277344 35.894531 45.296875 C 35.894531 45.324219 35.898438 45.347656 35.898438 45.351562 C 35.960938 45.398438 36.03125 46.1875 36.050781 47.101562 C 36.070312 48.015625 36.101562 48.921875 36.121094 49.121094 C 36.148438 49.414062 36.066406 49.507812 35.65625 49.644531 C 35.175781 49.804688 35.171875 49.820312 35.515625 49.894531 C 36.082031 50.015625 37.667969 50.175781 38.453125 50.191406 L 39.167969 50.207031 L 39.253906 51.285156 C 39.300781 51.882812 39.308594 52.453125 39.273438 52.550781 C 39.234375 52.65625 39.011719 52.71875 38.757812 52.703125 C 38.507812 52.683594 37.050781 52.636719 35.515625 52.59375 L 32.71875 52.515625 L 32.679688 49.140625 C 32.652344 46.769531 32.691406 45.703125 32.804688 45.5625 C 32.914062 45.429688 33.289062 45.367188 33.953125 45.367188 C 34.449219 45.367188 34.710938 45.320312 34.828125 45.253906 Z M 34.828125 45.253906 "/>
</g>
</svg>
