<svg xmlns="http://www.w3.org/2000/svg" xmlns:xlink="http://www.w3.org/1999/xlink" width="64" height="64" viewBox="0 0 64 64" version="1.1">
<defs>
<linearGradient id="linear0" gradientUnits="userSpaceOnUse" x1="0" y1="0" x2="0" y2="1" gradientTransform="matrix(44.171875,0,0,64,9.914062,0)">
<stop offset="0" style="stop-color:#ff6666;stop-opacity:1;"/>
<stop offset="1" style="stop-color:#d90000;stop-opacity:1;"/>
</linearGradient>
</defs>
<g id="surface1">
<path style=" stroke:none;fill-rule:evenodd;fill:url(#linear0);" d="M 22.664062 39.675781 C 15.429688 36.203125 9.914062 29.410156 9.914062 21.144531 C 9.914062 9.472656 19.8125 0 32 0 C 44.1875 0 54.085938 9.472656 54.085938 21.144531 C 54.085938 29.480469 49.09375 36.816406 41.761719 40.261719 C 41.023438 41.039062 40.304688 48.9375 45.070312 64 L 17.953125 63.972656 C 19.167969 50.46875 20.738281 42.371094 22.664062 39.675781 Z M 21.753906 62.019531 C 22.632812 50.761719 24.527344 41.847656 27.40625 35.234375 C 23.636719 32.253906 21.296875 29.144531 20.339844 25.863281 L 21.753906 25.371094 C 24.375 29.242188 26.425781 31.609375 29.441406 32.421875 C 30.175781 24.695312 30.160156 17.515625 29.347656 10.835938 C 31.824219 13.273438 33.605469 16.664062 33.234375 19.203125 L 38.273438 14.976562 L 38.980469 16.472656 L 34.472656 22.550781 C 36.230469 25.410156 36.847656 29.726562 36.328125 35.5 C 38.125 34.53125 39.875 33.046875 41.539062 31.007812 L 41.804688 32.597656 C 41.34375 34.476562 39.679688 36.664062 37.300781 39.46875 C 37.585938 48.886719 39.011719 56.421875 41.539062 62.019531 Z M 21.753906 62.019531 "/>
</g>
</svg>
