<svg xmlns="http://www.w3.org/2000/svg" xmlns:xlink="http://www.w3.org/1999/xlink" width="64" height="64" viewBox="0 0 64 64" version="1.1">
<defs>
<linearGradient id="linear0" gradientUnits="userSpaceOnUse" x1="0" y1="0" x2="0" y2="1" gradientTransform="matrix(56,0,0,51.695312,4,6.152344)">
<stop offset="0" style="stop-color:#ff6666;stop-opacity:1;"/>
<stop offset="1" style="stop-color:#d90000;stop-opacity:1;"/>
</linearGradient>
</defs>
<g id="surface1">
<path style=" stroke:none;fill-rule:nonzero;fill:url(#linear0);" d="M 18.664062 35.203125 C 16.566406 32.03125 14.777344 24.226562 20.566406 23.792969 C 28.109375 23.226562 35.890625 23.761719 43.457031 23.761719 C 47.433594 23.761719 51.300781 23.792969 52.035156 18.992188 L 28.828125 18.992188 C 25.132812 18.992188 20.625 18.3125 17.074219 19.492188 C 12.21875 21.117188 10.507812 27.550781 13.320312 31.683594 C 14.578125 33.535156 16.628906 34.460938 18.664062 35.203125 "/>
<path style=" stroke:none;fill-rule:nonzero;fill:url(#linear0);" d="M 45.335938 28.800781 C 47.433594 31.972656 49.222656 39.773438 43.433594 40.207031 C 35.890625 40.773438 28.109375 40.238281 20.542969 40.238281 C 16.566406 40.238281 12.699219 40.207031 11.964844 45.007812 L 35.171875 45.007812 C 38.867188 45.007812 43.375 45.6875 46.925781 44.507812 C 51.78125 42.878906 53.492188 36.449219 50.679688 32.316406 C 49.421875 30.464844 47.371094 29.539062 45.335938 28.796875 "/>
<path style=" stroke:none;fill-rule:nonzero;fill:url(#linear0);" d="M 24.371094 31.941406 L 24.371094 32.257812 L 28.503906 32.871094 L 32 34.070312 L 35.496094 32.878906 L 39.628906 32.257812 L 35.496094 31.195312 L 32 29.929688 L 28.503906 31.21875 Z M 24.371094 31.941406 "/>
</g>
</svg>
