<svg xmlns="http://www.w3.org/2000/svg" xmlns:xlink="http://www.w3.org/1999/xlink" width="64" height="64" viewBox="0 0 64 64" version="1.1">
<defs>
<linearGradient id="linear0" gradientUnits="userSpaceOnUse" x1="0" y1="0" x2="0" y2="1" gradientTransform="matrix(64,0,0,42.40625,0,10.796875)">
<stop offset="0" style="stop-color:#ff6666;stop-opacity:1;"/>
<stop offset="1" style="stop-color:#d90000;stop-opacity:1;"/>
</linearGradient>
</defs>
<g id="surface1">
<path style=" stroke:none;fill-rule:nonzero;fill:url(#linear0);" d="M 24.21875 10.796875 C 21.605469 10.800781 19.03125 10.921875 16.546875 11.140625 C 14.0625 11.359375 11.664062 11.675781 9.390625 12.09375 C 7.117188 12.511719 4.96875 13.023438 2.984375 13.625 C 2.429688 13.792969 1.933594 14.070312 1.515625 14.421875 C 1.097656 14.773438 0.753906 15.199219 0.5 15.671875 C 0.246094 16.144531 0.0820312 16.667969 0.0234375 17.210938 C -0.0351562 17.753906 0.0117188 18.320312 0.179688 18.875 C 0.347656 19.429688 0.621094 19.925781 0.96875 20.34375 C 1.316406 20.761719 1.753906 21.105469 2.226562 21.359375 C 2.699219 21.613281 3.222656 21.769531 3.765625 21.828125 C 4.308594 21.886719 4.867188 21.839844 5.421875 21.671875 C 7.152344 21.148438 9.042969 20.699219 11.046875 20.335938 C 13.050781 19.972656 15.175781 19.699219 17.382812 19.507812 C 19.589844 19.316406 21.871094 19.210938 24.203125 19.203125 C 26.535156 19.195312 28.910156 19.28125 31.289062 19.46875 C 33.667969 19.65625 36.054688 19.941406 38.40625 20.335938 C 40.757812 20.730469 43.074219 21.226562 45.320312 21.835938 C 47.566406 22.445312 49.746094 23.171875 51.8125 24.007812 C 53.878906 24.84375 55.835938 25.800781 57.648438 26.875 C 58.144531 27.171875 58.683594 27.347656 59.226562 27.421875 C 59.769531 27.496094 60.3125 27.460938 60.835938 27.328125 C 61.359375 27.195312 61.847656 26.964844 62.289062 26.640625 C 62.730469 26.316406 63.109375 25.898438 63.40625 25.398438 C 63.703125 24.898438 63.886719 24.367188 63.960938 23.828125 C 64.035156 23.289062 64 22.738281 63.867188 22.21875 C 63.734375 21.699219 63.503906 21.199219 63.179688 20.757812 C 62.855469 20.316406 62.4375 19.9375 61.9375 19.640625 C 60.894531 19.023438 59.816406 18.441406 58.703125 17.890625 C 57.589844 17.339844 56.441406 16.824219 55.265625 16.34375 C 52.917969 15.378906 50.457031 14.546875 47.921875 13.84375 C 45.386719 13.140625 42.78125 12.570312 40.140625 12.117188 C 37.5 11.664062 34.832031 11.328125 32.164062 11.109375 C 29.496094 10.890625 26.832031 10.789062 24.21875 10.796875 Z M 25.015625 26.289062 C 22.785156 26.242188 20.558594 26.296875 18.351562 26.46875 C 16.144531 26.636719 13.957031 26.921875 11.8125 27.3125 C 9.667969 27.703125 7.5625 28.207031 5.523438 28.828125 C 5.0625 28.96875 4.644531 29.191406 4.296875 29.484375 C 3.949219 29.777344 3.664062 30.136719 3.453125 30.53125 C 3.242188 30.925781 3.101562 31.359375 3.054688 31.8125 C 3.007812 32.265625 3.046875 32.730469 3.1875 33.195312 C 3.328125 33.65625 3.558594 34.074219 3.851562 34.421875 C 4.144531 34.769531 4.496094 35.054688 4.890625 35.265625 C 5.285156 35.476562 5.71875 35.617188 6.171875 35.664062 C 6.625 35.710938 7.097656 35.671875 7.5625 35.53125 C 9.347656 34.988281 11.199219 34.546875 13.09375 34.203125 C 14.988281 33.859375 16.929688 33.621094 18.890625 33.476562 C 20.851562 33.332031 22.839844 33.285156 24.828125 33.328125 C 26.816406 33.371094 28.8125 33.511719 30.789062 33.742188 C 32.765625 33.972656 34.71875 34.296875 36.640625 34.710938 C 38.5625 35.125 40.441406 35.621094 42.265625 36.210938 C 44.089844 36.800781 45.859375 37.472656 47.546875 38.234375 C 49.234375 38.996094 50.839844 39.84375 52.351562 40.773438 C 52.761719 41.027344 53.207031 41.183594 53.65625 41.25 C 54.105469 41.316406 54.5625 41.300781 55 41.195312 C 55.4375 41.089844 55.855469 40.90625 56.226562 40.640625 C 56.597656 40.375 56.917969 40.03125 57.171875 39.617188 C 57.425781 39.207031 57.589844 38.761719 57.65625 38.3125 C 57.722656 37.863281 57.699219 37.40625 57.59375 36.96875 C 57.488281 36.53125 57.304688 36.121094 57.039062 35.75 C 56.773438 35.378906 56.433594 35.050781 56.023438 34.796875 C 54.289062 33.730469 52.453125 32.761719 50.539062 31.890625 C 48.625 31.019531 46.625 30.242188 44.570312 29.570312 C 42.515625 28.898438 40.402344 28.328125 38.25 27.859375 C 36.097656 27.390625 33.898438 27.019531 31.6875 26.757812 C 29.476562 26.496094 27.246094 26.335938 25.015625 26.289062 Z M 25.296875 40.945312 C 23.390625 40.910156 21.445312 40.960938 19.460938 41.101562 C 17.476562 41.242188 15.453125 41.46875 13.390625 41.78125 C 11.328125 42.09375 9.226562 42.503906 7.085938 42.992188 C 6.707031 43.078125 6.367188 43.234375 6.070312 43.445312 C 5.773438 43.65625 5.527344 43.929688 5.335938 44.234375 C 5.144531 44.539062 5.007812 44.875 4.945312 45.234375 C 4.882812 45.59375 4.890625 45.964844 4.976562 46.34375 C 5.0625 46.722656 5.226562 47.0625 5.4375 47.359375 C 5.648438 47.65625 5.914062 47.902344 6.21875 48.09375 C 6.523438 48.285156 6.859375 48.421875 7.21875 48.484375 C 7.578125 48.546875 7.953125 48.539062 8.328125 48.453125 C 10.285156 48.007812 12.203125 47.640625 14.085938 47.351562 C 15.96875 47.0625 17.8125 46.851562 19.617188 46.71875 C 21.421875 46.585938 23.195312 46.53125 24.921875 46.554688 C 26.648438 46.578125 28.335938 46.679688 29.984375 46.859375 C 31.632812 47.039062 33.242188 47.304688 34.8125 47.640625 C 36.382812 47.976562 37.910156 48.398438 39.398438 48.890625 C 40.886719 49.382812 42.332031 49.953125 43.734375 50.601562 C 45.136719 51.25 46.5 51.984375 47.820312 52.789062 C 48.152344 52.992188 48.507812 53.117188 48.867188 53.171875 C 49.226562 53.226562 49.589844 53.203125 49.9375 53.117188 C 50.285156 53.03125 50.617188 52.882812 50.914062 52.671875 C 51.210938 52.460938 51.46875 52.191406 51.671875 51.859375 C 51.875 51.527344 52 51.171875 52.054688 50.8125 C 52.109375 50.453125 52.09375 50.089844 52.007812 49.742188 C 51.921875 49.394531 51.773438 49.054688 51.5625 48.757812 C 51.351562 48.460938 51.074219 48.203125 50.742188 48 C 49.261719 47.09375 47.742188 46.277344 46.171875 45.546875 C 44.601562 44.816406 42.984375 44.175781 41.328125 43.617188 C 39.671875 43.058594 37.972656 42.585938 36.234375 42.203125 C 34.496094 41.820312 32.714844 41.523438 30.890625 41.3125 C 29.066406 41.101562 27.203125 40.980469 25.296875 40.945312 Z M 25.296875 40.945312 "/>
</g>
</svg>
