<svg xmlns="http://www.w3.org/2000/svg" xmlns:xlink="http://www.w3.org/1999/xlink" width="64" height="64" viewBox="0 0 64 64" version="1.1">
<defs> <linearGradient id="linear0" gradientUnits="userSpaceOnUse" x1="0" y1="0" x2="0" y2="1" gradientTransform="matrix(55.992188,0,0,56,4.003906,4)"> <stop offset="0" style="stop-color:#ff6666;stop-opacity:1;"/> <stop offset="1" style="stop-color:#d90000;stop-opacity:1;"/> </linearGradient> </defs>
<g id="surface1">
<path style=" stroke:none;fill-rule:nonzero;fill:url(#linear0);fill-opacity:1;" d="M 19.539062 21.019531 C 16.53125 21.042969 13.542969 22.195312 11.316406 24.441406 L 0.527344 35.246094 L 5.273438 40.007812 L 15.457031 29.796875 L 16.050781 29.191406 C 17.699219 27.542969 21.355469 27.398438 23.164062 29.214844 L 28.269531 34.332031 L 28.238281 34.355469 L 33.769531 39.894531 C 38.394531 44.542969 45.917969 44.394531 50.394531 39.914062 L 53.078125 37.222656 C 53.9375 37.25 54.777344 37.105469 55.511719 36.878906 C 57.257812 36.335938 58.839844 35.300781 60.257812 33.886719 C 61.667969 32.460938 62.699219 30.890625 63.238281 29.125 C 63.777344 27.359375 63.859375 24.945312 62.136719 23.222656 C 60.417969 21.492188 58.003906 21.558594 56.242188 22.101562 C 54.480469 22.648438 52.914062 23.683594 51.496094 25.105469 C 50.085938 26.519531 49.054688 28.101562 48.515625 29.867188 C 48.257812 30.691406 48.097656 31.652344 48.183594 32.621094 L 45.65625 35.152344 C 44.011719 36.804688 40.351562 36.953125 38.523438 35.132812 L 33.425781 29.984375 L 33.019531 29.582031 L 27.894531 24.464844 C 25.585938 22.144531 22.566406 20.992188 19.550781 21.015625 L 19.535156 21.015625 "/>
</g>
</svg>
