<svg xmlns="http://www.w3.org/2000/svg" xmlns:xlink="http://www.w3.org/1999/xlink" width="64" height="64" viewBox="0 0 64 64" version="1.1">
<defs>
<linearGradient id="linear0" gradientUnits="userSpaceOnUse" x1="0" y1="0" x2="0" y2="1" gradientTransform="matrix(20.710938,0,0,18.3125,21.738281,28.566406)">
<stop offset="0" style="stop-color:#ff6666;stop-opacity:1;"/>
<stop offset="1" style="stop-color:#d90000;stop-opacity:1;"/>
</linearGradient>
<linearGradient id="linear1" gradientUnits="userSpaceOnUse" x1="0" y1="0" x2="0" y2="1" gradientTransform="matrix(64,0,0,44.617188,0,9.691406)">
<stop offset="0" style="stop-color:#ff6666;stop-opacity:1;"/>
<stop offset="1" style="stop-color:#d90000;stop-opacity:1;"/>
</linearGradient>
</defs>
<g id="surface1">
<path style=" stroke:none;fill-rule:nonzero;fill:url(#linear0);" d="M 31.308594 46.828125 C 29.878906 46.566406 28.757812 45.816406 28.238281 44.78125 C 28.0625 44.421875 28.03125 44.269531 28.03125 43.714844 C 28.03125 43.179688 28.0625 43.003906 28.226562 42.65625 C 28.628906 41.816406 29.363281 41.207031 30.453125 40.808594 C 31.253906 40.515625 32.625 40.445312 33.472656 40.644531 C 34.71875 40.941406 35.769531 41.695312 36.222656 42.617188 C 36.414062 43.015625 36.445312 43.15625 36.441406 43.714844 C 36.4375 44.269531 36.40625 44.421875 36.230469 44.78125 C 35.804688 45.609375 34.925781 46.308594 33.875 46.644531 C 33.195312 46.855469 31.957031 46.945312 31.308594 46.828125 Z M 38.046875 37.472656 C 37.152344 37.097656 36.59375 36.558594 36.148438 35.640625 C 35.25 33.800781 35.578125 31.492188 36.929688 30.144531 C 37.925781 29.152344 39.082031 28.917969 40.257812 29.464844 C 41.328125 29.964844 42.132812 31.160156 42.378906 32.601562 C 42.714844 34.589844 41.828125 36.609375 40.28125 37.367188 C 39.855469 37.578125 39.6875 37.617188 39.136719 37.632812 C 38.59375 37.652344 38.421875 37.625 38.046875 37.472656 Z M 40.652344 34.960938 C 41.550781 34.5 41.792969 32.585938 41.097656 31.460938 C 40.90625 31.15625 40.597656 30.980469 40.238281 30.980469 C 39.632812 30.980469 39.125 31.894531 39.125 32.992188 C 39.125 33.929688 39.40625 34.617188 39.921875 34.929688 C 40.207031 35.105469 40.359375 35.113281 40.652344 34.960938 Z M 24.34375 36.949219 C 23.28125 36.644531 22.339844 35.644531 21.921875 34.386719 C 21.761719 33.902344 21.738281 33.679688 21.738281 32.800781 C 21.738281 31.558594 21.902344 30.949219 22.480469 30.09375 C 23.105469 29.160156 23.921875 28.644531 24.882812 28.574219 C 26.445312 28.460938 27.847656 29.664062 28.347656 31.535156 C 28.519531 32.171875 28.515625 33.441406 28.339844 34.082031 C 27.875 35.789062 26.648438 36.953125 25.242188 37.019531 C 24.941406 37.03125 24.539062 37 24.34375 36.949219 Z M 26.855469 34.242188 C 27.226562 33.976562 27.484375 33.328125 27.523438 32.570312 C 27.570312 31.507812 27.261719 30.710938 26.683594 30.425781 C 26.445312 30.308594 26.355469 30.300781 26.136719 30.375 C 25.0625 30.730469 24.792969 33.128906 25.71875 34.101562 C 25.957031 34.351562 26.042969 34.390625 26.320312 34.390625 C 26.523438 34.390625 26.71875 34.335938 26.855469 34.242188 Z M 26.855469 34.242188 "/>
<path style=" stroke:none;fill-rule:nonzero;fill:url(#linear1);" d="M 47.613281 12.015625 C 45.804688 13.632812 43.980469 16.128906 42.09375 19.277344 C 41.65625 20.003906 41.136719 20.914062 40.726562 21.660156 C 40.523438 22.03125 40.351562 22.363281 40.222656 22.613281 C 40.160156 22.738281 40.105469 22.835938 40.0625 22.929688 C 40.039062 22.976562 40.027344 23.015625 40 23.085938 C 39.988281 23.121094 39.972656 23.160156 39.957031 23.257812 C 39.949219 23.304688 39.941406 23.484375 39.941406 23.484375 C 39.941406 23.488281 39.988281 23.738281 39.988281 23.738281 C 39.988281 23.738281 40.246094 24.128906 40.246094 24.128906 L 40.285156 24.167969 L 40.320312 24.1875 C 40.511719 24.332031 40.449219 24.273438 40.496094 24.300781 C 40.546875 24.328125 40.597656 24.363281 40.660156 24.394531 C 40.699219 24.414062 40.871094 24.585938 41.320312 24.550781 C 41.769531 24.515625 42.027344 24.222656 42.148438 24.0625 C 42.390625 23.742188 42.542969 23.414062 42.9375 22.671875 C 45.632812 17.675781 48.847656 13.722656 50.84375 12.53125 C 51.84375 11.9375 52.363281 11.953125 52.710938 12.15625 C 53.054688 12.359375 53.503906 13.039062 53.738281 14.417969 C 54.300781 17.777344 53.488281 24 51.289062 31.777344 L 51.289062 31.785156 C 51.171875 32.203125 51.078125 32.582031 51.007812 32.878906 C 50.972656 33.027344 50.945312 33.152344 50.925781 33.265625 C 50.917969 33.320312 50.902344 33.371094 50.898438 33.449219 C 50.894531 33.488281 50.890625 33.527344 50.898438 33.613281 C 50.898438 33.65625 50.925781 33.792969 50.925781 33.796875 C 50.925781 33.796875 50.992188 33.972656 50.992188 33.972656 C 50.992188 33.976562 51.175781 34.234375 51.179688 34.234375 L 51.191406 34.253906 L 51.214844 34.269531 C 51.398438 34.429688 51.464844 34.441406 51.546875 34.476562 C 51.632812 34.515625 51.710938 34.546875 51.808594 34.574219 L 51.828125 34.582031 L 51.851562 34.582031 C 51.898438 34.589844 51.933594 34.605469 51.960938 34.609375 L 52.015625 34.625 L 52.074219 34.632812 C 52.074219 34.632812 52.4375 34.632812 52.4375 34.632812 C 52.4375 34.632812 52.6875 34.542969 52.6875 34.542969 C 52.6875 34.542969 52.929688 34.367188 52.933594 34.367188 C 52.933594 34.367188 53.007812 34.277344 53.027344 34.246094 C 53.050781 34.21875 53.066406 34.195312 53.078125 34.175781 C 53.128906 34.09375 53.136719 34.0625 53.152344 34.027344 C 53.183594 33.953125 53.203125 33.894531 53.226562 33.828125 C 53.273438 33.6875 53.328125 33.511719 53.390625 33.292969 C 53.515625 32.859375 53.679688 32.269531 53.855469 31.609375 C 54.210938 30.28125 54.613281 28.671875 54.878906 27.515625 C 55.933594 22.871094 56.492188 19.257812 56.332031 16.132812 C 56.230469 14.09375 55.660156 10.8125 53.898438 10.039062 C 51.230469 8.867188 49.328125 10.945312 47.613281 12.015625 Z M 10.675781 9.890625 C 9.820312 10.089844 9.085938 10.660156 8.574219 11.4375 C 8.0625 12.214844 7.738281 13.199219 7.539062 14.382812 C 7.238281 16.183594 7.296875 18.773438 7.648438 21.570312 C 8.078125 24.933594 9.273438 30.683594 10.296875 33.582031 C 10.296875 33.582031 10.296875 33.585938 10.296875 33.589844 C 10.4375 34.011719 10.613281 34.410156 11.101562 34.65625 C 11.460938 34.835938 11.917969 34.75 11.917969 34.75 L 11.933594 34.742188 C 12.0625 34.699219 12.171875 34.648438 12.296875 34.566406 C 12.359375 34.523438 12.425781 34.476562 12.515625 34.382812 C 12.5625 34.332031 12.617188 34.273438 12.671875 34.175781 C 12.699219 34.125 12.746094 33.984375 12.746094 33.980469 C 12.746094 33.980469 12.789062 33.703125 12.789062 33.699219 C 12.789062 33.699219 12.78125 33.578125 12.777344 33.550781 C 12.773438 33.527344 12.769531 33.511719 12.769531 33.5 C 12.761719 33.476562 12.757812 33.460938 12.753906 33.441406 C 12.746094 33.40625 12.742188 33.367188 12.730469 33.324219 C 12.707031 33.234375 12.675781 33.117188 12.636719 32.976562 C 12.558594 32.691406 12.453125 32.316406 12.339844 31.910156 L 12.339844 31.902344 C 11.144531 27.695312 10.257812 23.375 9.890625 20.003906 C 9.835938 19.5 9.804688 18.359375 9.800781 17.304688 C 9.800781 16.246094 9.851562 15.136719 9.875 14.996094 L 9.882812 14.996094 C 10.089844 13.796875 10.394531 13.019531 10.675781 12.644531 C 10.957031 12.269531 11.109375 12.203125 11.554688 12.238281 C 12.171875 12.277344 13.140625 12.78125 14.507812 14.109375 C 16.433594 15.980469 18.527344 18.917969 20.75 22.945312 C 20.925781 23.269531 21.09375 23.578125 21.222656 23.8125 C 21.351562 24.042969 21.398438 24.132812 21.472656 24.253906 L 21.472656 24.261719 L 21.480469 24.269531 C 21.527344 24.347656 21.609375 24.464844 21.769531 24.582031 C 21.929688 24.699219 22.175781 24.777344 22.355469 24.78125 C 22.703125 24.789062 22.8125 24.699219 22.929688 24.640625 C 23.058594 24.585938 23.164062 24.527344 23.277344 24.441406 C 23.335938 24.398438 23.394531 24.347656 23.472656 24.253906 C 23.507812 24.210938 23.550781 24.15625 23.597656 24.0625 C 23.621094 24.015625 23.664062 23.886719 23.664062 23.886719 C 23.664062 23.882812 23.707031 23.621094 23.707031 23.621094 C 23.707031 23.617188 23.6875 23.449219 23.679688 23.40625 C 23.667969 23.363281 23.664062 23.332031 23.65625 23.308594 C 23.640625 23.261719 23.628906 23.238281 23.617188 23.210938 C 23.597656 23.160156 23.574219 23.125 23.550781 23.078125 C 23.507812 22.988281 23.457031 22.875 23.390625 22.746094 C 23.253906 22.492188 23.078125 22.160156 22.871094 21.792969 C 22.464844 21.054688 21.964844 20.179688 21.585938 19.542969 L 21.578125 19.542969 C 19.675781 16.382812 17.871094 13.96875 16.058594 12.238281 C 14.1875 10.441406 12.386719 9.492188 10.675781 9.890625 Z M 17.226562 39.375 C 12.621094 39.183594 8.269531 39.761719 2.90625 41.257812 C 2.359375 41.414062 1.820312 41.574219 1.398438 41.703125 C 1.1875 41.765625 1.003906 41.820312 0.867188 41.867188 C 0.796875 41.890625 0.746094 41.914062 0.6875 41.933594 C 0.660156 41.941406 0.636719 41.945312 0.601562 41.960938 C 0.582031 41.96875 0.558594 41.984375 0.527344 42 C 0.503906 42.011719 0.449219 42.046875 0.40625 42.074219 C 0.382812 42.101562 0.140625 42.355469 0.140625 42.355469 C 0.140625 42.355469 0.046875 42.574219 0.046875 42.578125 C 0.046875 42.578125 0.00390625 42.761719 0 42.8125 C -0.00390625 42.917969 0.00390625 42.960938 0.0078125 43 C 0.0195312 43.074219 0.0351562 43.117188 0.046875 43.160156 C 0.0664062 43.246094 0.0898438 43.324219 0.121094 43.414062 L 0.121094 43.417969 C 0.171875 43.5625 0.203125 43.734375 0.460938 43.972656 C 0.71875 44.214844 1.3125 44.28125 1.554688 44.1875 L 1.5625 44.179688 L 1.570312 44.179688 C 1.554688 44.1875 2.453125 43.902344 3.300781 43.664062 C 4.148438 43.425781 5.082031 43.171875 5.578125 43.050781 C 9.332031 42.136719 12.234375 41.769531 15.636719 41.769531 C 18.609375 41.765625 20.976562 42.035156 23.882812 42.710938 C 24.21875 42.789062 24.523438 42.855469 24.757812 42.902344 C 24.875 42.925781 24.96875 42.941406 25.054688 42.953125 C 25.09375 42.960938 25.132812 42.972656 25.1875 42.976562 C 25.210938 42.980469 25.242188 42.984375 25.304688 42.984375 C 25.335938 42.984375 25.441406 42.96875 25.445312 42.96875 C 25.445312 42.96875 25.597656 42.933594 25.601562 42.933594 C 25.601562 42.929688 25.902344 42.769531 25.902344 42.769531 L 25.941406 42.738281 L 25.976562 42.703125 C 25.976562 42.703125 26.085938 42.570312 26.109375 42.53125 C 26.136719 42.492188 26.152344 42.464844 26.164062 42.441406 C 26.1875 42.394531 26.195312 42.367188 26.207031 42.339844 C 26.226562 42.289062 26.238281 42.253906 26.25 42.214844 C 26.273438 42.136719 26.292969 42.058594 26.308594 41.976562 L 26.308594 41.96875 L 26.316406 41.953125 C 26.328125 41.894531 26.351562 41.820312 26.347656 41.621094 C 26.339844 41.425781 26.203125 41.046875 25.992188 40.859375 C 25.570312 40.492188 25.429688 40.585938 25.230469 40.542969 C 25.015625 40.496094 24.386719 40.351562 23.847656 40.230469 L 23.839844 40.230469 C 21.703125 39.742188 19.578125 39.464844 17.226562 39.375 Z M 48.375 40.007812 C 45.535156 40.011719 44.222656 40.125 41.777344 40.550781 L 41.769531 40.550781 C 41.128906 40.664062 40.339844 40.824219 39.683594 40.972656 C 39.355469 41.042969 39.066406 41.113281 38.835938 41.171875 C 38.71875 41.199219 38.621094 41.226562 38.53125 41.253906 C 38.441406 41.277344 38.441406 41.230469 38.175781 41.394531 L 38.175781 41.402344 C 37.925781 41.554688 37.6875 41.949219 37.664062 42.222656 C 37.644531 42.492188 37.703125 42.644531 37.746094 42.785156 C 37.746094 42.785156 38.023438 43.308594 38.34375 43.492188 C 38.773438 43.734375 39.507812 43.488281 39.507812 43.488281 C 40.5 43.246094 42.21875 42.910156 43.242188 42.761719 C 45.390625 42.457031 45.878906 42.433594 48.605469 42.4375 C 50.890625 42.441406 51.414062 42.457031 52.5625 42.597656 L 52.570312 42.597656 C 55.414062 42.941406 58.652344 43.652344 61.742188 44.609375 C 61.953125 44.679688 62.160156 44.738281 62.332031 44.78125 C 62.417969 44.804688 62.492188 44.824219 62.570312 44.839844 C 62.648438 44.855469 62.59375 44.910156 62.96875 44.863281 L 62.976562 44.863281 C 63.511719 44.789062 63.621094 44.53125 63.714844 44.394531 C 63.8125 44.261719 63.855469 44.152344 63.902344 44.035156 C 63.945312 43.914062 63.984375 43.800781 63.996094 43.621094 C 64.003906 43.53125 64.003906 43.414062 63.960938 43.25 C 63.917969 43.085938 63.800781 42.824219 63.515625 42.652344 L 63.507812 42.652344 L 63.5 42.644531 C 63.324219 42.539062 63.335938 42.5625 63.292969 42.546875 C 63.253906 42.53125 63.214844 42.523438 63.167969 42.511719 C 63.078125 42.480469 62.964844 42.441406 62.828125 42.398438 C 62.554688 42.316406 62.191406 42.214844 61.792969 42.101562 C 60.992188 41.875 60.039062 41.613281 59.34375 41.4375 C 55.199219 40.367188 52.386719 40.003906 48.375 40.011719 Z M 39.359375 41.578125 L 39.367188 41.59375 C 39.273438 41.613281 39.144531 41.628906 39.054688 41.652344 Z M 16.023438 44.0625 C 10.863281 44.425781 6.820312 45.929688 2.589844 49.039062 C 1.589844 49.84375 1.546875 50.4375 1.917969 51.03125 C 2.226562 51.527344 2.988281 51.523438 3.664062 51.257812 C 7.304688 48.484375 10.617188 47.109375 14.917969 46.585938 C 16.671875 46.371094 20.890625 46.367188 24.230469 46.609375 L 25.902344 46.71875 L 25.902344 44.285156 L 24.203125 44.179688 C 20.785156 43.972656 17.980469 43.925781 16.023438 44.0625 Z M 40.890625 44.730469 C 39.878906 44.703125 39.078125 44.75 38.042969 44.824219 C 38.042969 44.824219 38.121094 46.039062 38.109375 46.082031 L 38.109375 47.316406 L 40.078125 47.207031 C 40.609375 47.175781 41.589844 47.125 42.257812 47.089844 C 43.855469 46.996094 46.730469 47 47.859375 47.089844 C 49.816406 47.242188 51.511719 47.683594 53.191406 48.21875 C 53.839844 48.425781 54.523438 48.671875 55.152344 48.945312 C 56.808594 49.660156 58.425781 50.484375 60.089844 51.710938 C 60.324219 51.882812 60.410156 51.988281 60.765625 52.117188 C 60.941406 52.179688 61.273438 52.214844 61.519531 52.125 C 61.761719 52.035156 61.855469 51.921875 61.910156 51.875 C 62.023438 51.769531 62.101562 51.675781 62.175781 51.554688 C 62.25 51.4375 62.363281 51.359375 62.363281 50.949219 C 62.363281 50.945312 62.339844 50.726562 62.316406 50.652344 C 62.292969 50.578125 62.265625 50.527344 62.242188 50.484375 C 62.199219 50.394531 62.160156 50.347656 62.125 50.304688 C 62.058594 50.21875 62.007812 50.160156 61.949219 50.105469 C 61.832031 49.996094 61.695312 49.894531 61.535156 49.773438 C 61.214844 49.53125 60.78125 49.222656 60.238281 48.863281 L 60.230469 48.863281 C 58.910156 47.984375 56.703125 47.144531 55.359375 46.550781 C 53.152344 45.574219 52.09375 45.265625 49.175781 44.773438 C 47.574219 44.578125 43.316406 44.574219 40.890625 44.730469 Z M 17.441406 47.308594 C 16.066406 47.558594 14.722656 47.910156 13.882812 48.253906 C 11.292969 49.320312 10.820312 49.839844 9.765625 50.675781 C 9.410156 50.957031 8.921875 51.746094 8.890625 52.328125 C 8.867188 52.734375 9.121094 53.203125 9.121094 53.203125 C 9.191406 53.28125 9.253906 53.34375 9.335938 53.410156 C 9.375 53.445312 9.417969 53.476562 9.492188 53.523438 C 9.527344 53.546875 9.570312 53.570312 9.652344 53.605469 C 9.695312 53.621094 9.828125 53.664062 9.832031 53.664062 C 9.832031 53.664062 10.097656 53.664062 10.148438 53.664062 C 10.210938 53.65625 10.265625 53.648438 10.265625 53.648438 C 10.269531 53.648438 10.386719 53.605469 10.386719 53.605469 C 10.386719 53.605469 10.464844 53.570312 10.488281 53.558594 C 10.535156 53.535156 10.558594 53.515625 10.578125 53.5 C 10.617188 53.472656 10.648438 53.453125 10.683594 53.425781 C 10.746094 53.378906 10.820312 53.320312 10.910156 53.25 C 11.089844 53.105469 11.324219 52.914062 11.578125 52.703125 C 13.023438 51.488281 14.277344 50.714844 15.628906 50.230469 C 15.664062 50.21875 15.699219 50.191406 15.734375 50.179688 C 17.113281 49.707031 18.59375 49.550781 20.488281 49.617188 C 21.210938 49.644531 22.296875 49.714844 22.804688 49.773438 L 22.8125 49.773438 C 23.367188 49.832031 24.050781 49.90625 24.363281 49.9375 C 24.363281 49.9375 25.246094 49.914062 25.640625 49.523438 C 25.972656 49.195312 25.886719 48.699219 25.886719 48.699219 L 25.886719 48.691406 C 25.890625 48.703125 25.964844 48.53125 25.742188 48.144531 C 25.519531 47.757812 25.148438 47.648438 24.941406 47.597656 C 24.527344 47.5 24.054688 47.464844 22.9375 47.347656 C 21.300781 47.175781 19.226562 47.085938 17.441406 47.308594 Z M 44.054688 47.886719 C 42.410156 47.886719 41.460938 47.925781 40.582031 48.027344 L 40.574219 48.027344 C 39.71875 48.128906 39.367188 48.140625 38.953125 48.265625 C 38.746094 48.324219 38.355469 48.527344 38.199219 48.898438 C 38.039062 49.269531 38.109375 49.417969 38.109375 49.449219 C 38.109375 49.515625 38.101562 49.582031 38.117188 49.714844 C 38.132812 49.84375 38.179688 50.125 38.457031 50.371094 C 38.734375 50.621094 39.054688 50.636719 39.195312 50.628906 C 39.320312 50.625 39.375 50.621094 39.433594 50.609375 L 39.464844 50.601562 C 39.578125 50.585938 40.148438 50.519531 40.707031 50.460938 C 46.789062 49.804688 49.0625 50.410156 52.910156 53.707031 C 52.910156 53.707031 52.914062 53.707031 52.917969 53.707031 C 53.613281 54.054688 53.929688 54.804688 54.898438 53.816406 C 55.324219 53.386719 55.25 52.71875 54.664062 52.019531 C 52.097656 49.804688 49.890625 48.597656 47.332031 48.078125 C 46.527344 47.914062 46.09375 47.882812 44.054688 47.886719 Z M 53.910156 52.074219 L 54.136719 52.265625 C 54.046875 52.1875 53.960938 52.191406 53.871094 52.117188 Z M 53.910156 52.074219 "/>
</g>
</svg>
