<svg xmlns="http://www.w3.org/2000/svg" xmlns:xlink="http://www.w3.org/1999/xlink" width="64" height="64" viewBox="0 0 64 64" version="1.1">
<defs> <linearGradient id="linear0" gradientUnits="userSpaceOnUse" x1="0" y1="0" x2="0" y2="1" gradientTransform="matrix(55.992188,0,0,56,4.003906,4)"> <stop offset="0" style="stop-color:#ff6666;stop-opacity:1;"/> <stop offset="1" style="stop-color:#d90000;stop-opacity:1;"/> </linearGradient> </defs>
<g id="surface1">
<path style="fill-rule:evenodd;fill:url(#linear0);fill-opacity:1;stroke-width:2.824;stroke-linecap:butt;stroke-linejoin:miter;stroke:url(#linear0);stroke-opacity:1;stroke-miterlimit:4;" d="M 313.835881 162.680988 C 312.460196 162.745742 310.977037 163.069515 309.321917 163.717059 C 296.209927 168.595231 306.914469 197.648412 307.752777 201.404172 C 308.526599 204.87933 301.906119 204.490803 300.659405 202.95828 C 297.865047 199.569461 288.686653 169.285945 277.874635 174.682153 C 262.677624 183.057067 276.971843 209.196295 273.941038 210.038104 C 268.309331 213.189489 268.653252 220.873688 264.160783 227.133289 C 256.723491 237.77461 201.072765 222.104024 183.10289 221.003197 C 169.94791 220.226143 157.351801 231.061728 156.148077 229.680299 C 140.134253 213.621186 106.967367 185.690416 70.6622 176.408939 C 64.557602 174.746907 57.528715 172.156728 50.714779 169.3507 C 50.155908 170.688959 49.618531 172.070388 49.102649 173.408648 C 55.228743 176.3226 62.193144 179.409231 70.038844 182.62537 C 104.81786 196.936112 152.837837 233.241796 149.054706 239.091284 C 137.748301 254.999304 131.149316 274.037124 135.74926 306.630216 C 136.566072 312.371781 118.725168 322.322387 120.036367 330.977904 C 121.132615 337.561277 139.962293 324.437701 142.025819 327.02788 C 143.272533 331.690204 131.944633 355.217668 136.523082 356.901285 C 139.876313 357.915772 169.367543 328.927345 171.087148 329.402212 C 219.687492 344.101481 282.947471 333.028463 284.151195 332.553597 C 284.022224 332.316164 329.677744 354.008917 333.654331 351.397153 C 343.649537 340.561569 314.652693 325.322679 319.510578 319.214172 C 321.617094 316.041202 354.740991 331.193752 356.396111 327.02788 C 358.782063 319.840132 341.005644 304.838675 338.340256 300.370616 C 335.997293 296.247913 335.524402 289.556616 341.50003 285.412329 C 347.475659 281.246457 408.478656 257.97801 405.899248 239.911508 C 401.471264 207.102567 328.538506 204.900914 327.334782 202.159641 C 326.840395 200.972475 330.021665 162.162952 313.835881 162.680988 Z M 389.820938 184.438496 C 388.59572 184.978117 383.694845 210.189198 386.059302 211.333194 C 388.165818 212.908886 391.776989 185.884679 389.885424 184.460081 C 389.842433 184.438496 389.842433 184.438496 389.820938 184.438496 Z M 407.812308 187.870484 C 405.06094 187.805729 390.37981 211.290024 393.754535 213.772279 C 395.839557 215.347972 408.930052 188.820216 408.027259 187.935238 C 407.962774 187.870484 407.898289 187.870484 407.812308 187.870484 Z M 407.812308 187.870484 " transform="matrix(0.181728,0,0,0.180972,-14.466283,-14.155549)"/>
</g>
</svg>
