<svg xmlns="http://www.w3.org/2000/svg" xmlns:xlink="http://www.w3.org/1999/xlink" width="64" height="64" viewBox="0 0 64 64" version="1.1">
<defs> <linearGradient id="linear0" gradientUnits="userSpaceOnUse" x1="0" y1="0" x2="0" y2="1" gradientTransform="matrix(55.992188,0,0,56,4.003906,4)"> <stop offset="0" style="stop-color:#ff6666;stop-opacity:1;"/> <stop offset="1" style="stop-color:#d90000;stop-opacity:1;"/> </linearGradient> </defs>
<g id="surface1">
<path style=" stroke:none;fill-rule:nonzero;fill:url(#linear0);fill-opacity:1;" d="M 48.21875 7.101562 C 37.746094 7.101562 35.777344 21.964844 41.671875 21.964844 C 47.558594 21.964844 58.695312 7.101562 48.21875 7.101562 M 32.035156 8.917969 C 31.867188 8.917969 31.691406 8.933594 31.511719 8.957031 C 25.617188 9.722656 27.6875 19.929688 30.828125 20.117188 C 33.867188 20.300781 37.191406 8.941406 32.035156 8.917969 M 21.824219 12.960938 C 21.511719 12.972656 21.167969 13.042969 20.800781 13.195312 C 16.0625 15.140625 20.078125 23.175781 22.738281 22.636719 C 25.183594 22.140625 25.503906 12.882812 21.824219 12.960938 M 14.117188 19.261719 C 13.753906 19.285156 13.355469 19.425781 12.941406 19.714844 C 9.148438 22.320312 14.21875 28.621094 16.445312 27.644531 C 18.433594 26.773438 17.113281 19.09375 14.117188 19.261719 M 35.316406 24.082031 C 27.269531 24.152344 17.03125 28.214844 15.246094 36.164062 C 13.265625 44.992188 23.402344 57.242188 33.976562 57.242188 C 39.175781 57.242188 45.175781 52.566406 46.300781 46.640625 C 47.15625 42.121094 36.207031 43.929688 36.605469 46.921875 C 37.078125 50.507812 33.964844 52.273438 30.914062 49.960938 C 21.214844 42.609375 46.980469 38.9375 45.28125 28.886719 C 44.730469 25.628906 40.472656 24.035156 35.316406 24.082031 "/>
</g>
</svg>
