<svg xmlns="http://www.w3.org/2000/svg" xmlns:xlink="http://www.w3.org/1999/xlink" width="64" height="64" viewBox="0 0 64 64" version="1.1">
<defs> <linearGradient id="linear0" gradientUnits="userSpaceOnUse" x1="0" y1="0" x2="0" y2="1" gradientTransform="matrix(55.992188,0,0,56,4.003906,4)"> <stop offset="0" style="stop-color:#ff6666;stop-opacity:1;"/> <stop offset="1" style="stop-color:#d90000;stop-opacity:1;"/> </linearGradient> </defs>
<g id="surface1">
<path style=" stroke:none;fill-rule:nonzero;fill:url(#linear0);fill-opacity:1;" d="M 14.09375 10.710938 L 14.09375 34.363281 C 14.09375 37.230469 14.433594 39.820312 15.058594 42.1875 C 15.6875 44.511719 16.710938 46.554688 18.136719 48.273438 C 19.5625 50.003906 21.386719 51.3125 23.726562 52.277344 C 26.070312 53.195312 28.972656 53.640625 32.398438 53.640625 C 36.332031 53.640625 39.832031 53.488281 42.796875 53.007812 C 45.820312 52.519531 48.183594 51.976562 50.019531 51.554688 L 50.019531 10.707031 L 42.835938 10.707031 L 42.835938 46.113281 C 42.550781 46.226562 41.261719 46.4375 40.582031 46.550781 C 39.949219 46.601562 39.269531 46.707031 38.460938 46.820312 C 37.660156 46.867188 36.867188 46.945312 35.964844 47 C 35.050781 47.050781 34.125 47.09375 33.261719 47.09375 C 29.210938 47.09375 26.304688 45.9375 24.59375 43.726562 C 22.878906 41.515625 21.273438 37.992188 21.273438 32.886719 L 21.273438 10.707031 "/>
</g>
</svg>
