<svg xmlns="http://www.w3.org/2000/svg" xmlns:xlink="http://www.w3.org/1999/xlink" width="64" height="64" viewBox="0 0 64 64" version="1.1">
<defs> <linearGradient id="linear0" gradientUnits="userSpaceOnUse" x1="0" y1="0" x2="0" y2="1" gradientTransform="matrix(55.992188,0,0,56,4.003906,4)"> <stop offset="0" style="stop-color:#ff6666;stop-opacity:1;"/> <stop offset="1" style="stop-color:#d90000;stop-opacity:1;"/> </linearGradient> </defs>
<g id="surface1">
<path style=" stroke:none;fill-rule:evenodd;fill:url(#linear0);fill-opacity:1;" d="M 33.417969 5.320312 C 24.980469 5.320312 17.496094 9.308594 12.65625 15.460938 L 15.972656 17.558594 C 20.113281 12.503906 26.429688 9.28125 33.46875 9.28125 C 45.925781 9.28125 56.039062 19.375 56.039062 31.8125 C 56.039062 44.242188 45.925781 54.332031 33.46875 54.332031 C 26.449219 54.332031 20.152344 51.125 16.011719 46.097656 L 12.695312 48.199219 C 17.550781 54.335938 25.019531 58.289062 33.464844 58.289062 C 48.082031 58.289062 59.941406 46.4375 59.941406 31.816406 C 59.941406 17.203125 48.078125 5.34375 33.464844 5.34375 L 33.417969 5.328125 M 33.429688 15.660156 L 33.417969 15.664062 C 28.660156 15.664062 24.382812 17.730469 21.414062 20.992188 L 24.847656 23.128906 C 27.058594 20.953125 30.089844 19.613281 33.429688 19.613281 C 40.195312 19.613281 45.675781 25.132812 45.675781 31.925781 C 45.675781 38.726562 40.199219 44.242188 33.4375 44.242188 C 30.035156 44.242188 26.957031 42.855469 24.742188 40.605469 L 21.429688 42.703125 C 24.394531 45.972656 28.664062 48.03125 33.429688 48.03125 C 42.386719 48.03125 49.644531 40.78125 49.644531 31.84375 C 49.644531 22.910156 42.378906 15.660156 33.429688 15.660156 M 6.714844 16.355469 L 6.714844 47.246094 L 33.617188 31.648438 Z M 6.714844 16.355469 "/>
</g>
</svg>
