<svg xmlns="http://www.w3.org/2000/svg" xmlns:xlink="http://www.w3.org/1999/xlink" width="64" height="64" viewBox="0 0 64 64" version="1.1">
<defs> <linearGradient id="linear0" gradientUnits="userSpaceOnUse" x1="0" y1="0" x2="0" y2="1" gradientTransform="matrix(55.992188,0,0,56,4.003906,4)"> <stop offset="0" style="stop-color:#ff6666;stop-opacity:1;"/> <stop offset="1" style="stop-color:#d90000;stop-opacity:1;"/> </linearGradient> </defs>
<g id="surface1">
<path style="fill-rule:evenodd;fill:url(#linear0);fill-opacity:1;stroke-width:7.702;stroke-linecap:round;stroke-linejoin:round;stroke:url(#linear0);stroke-opacity:1;stroke-miterlimit:4;" d="M 323.272214 130.821779 C 313.277009 133.304034 299.219236 139.58522 290.75018 143.405735 C 283.592323 137.728925 158.79197 216.966834 107.397268 250.401735 C 138.070727 238.681173 206.10261 213.146319 211.777308 219.772862 C 218.053867 227.154874 171.495554 274.900517 132.589485 340.712662 C 164.724609 306.15535 225.684615 227.025365 236.90504 232.810099 C 237.657367 234.968582 225.598635 252.92716 209.649296 279.087974 C 190.626163 310.256468 176.396429 338.208822 162.381646 365.06035 C 163.843311 363.937939 160.038684 372.507116 158.104128 375.87435 C 175.472142 356.383249 218.741709 294.75856 236.496634 269.396385 C 252.746903 246.214278 274.349445 208.289733 290.320278 208.052299 C 316.909675 207.728527 349.904601 261.561092 384.318201 342.115676 C 390.186354 355.843628 389.412532 358.08845 392.572307 367.067739 C 395.065734 369.010374 395.818062 363.635751 396.591884 362.750773 C 396.226468 354.807556 391.884465 338.057728 384.447172 311.508388 C 368.089427 253.035084 351.12982 189.338252 310.719096 160.349826 L 313.319999 143.837431 C 316.178843 140.103256 320.692807 134.836557 323.272214 130.821779 Z M 323.272214 130.821779 " transform="matrix(0.181728,0,0,0.180972,-14.466283,-14.155549)"/>
</g>
</svg>
