<svg xmlns="http://www.w3.org/2000/svg" xmlns:xlink="http://www.w3.org/1999/xlink" width="64" height="64" viewBox="0 0 64 64" version="1.1">
<defs>
<linearGradient id="linear0" gradientUnits="userSpaceOnUse" x1="0" y1="0" x2="0" y2="1" gradientTransform="matrix(64,0,0,43.125,0,10.4375)">
<stop offset="0" style="stop-color:#ff6666;stop-opacity:1;"/>
<stop offset="1" style="stop-color:#d90000;stop-opacity:1;"/>
</linearGradient>
<filter id="alpha" filterUnits="objectBoundingBox" x="0%" y="0%" width="100%" height="100%">
  <feColorMatrix type="matrix" in="SourceGraphic" values="0 0 0 0 1 0 0 0 0 1 0 0 0 0 1 0 0 0 1 0"/>
</filter>
<mask id="mask0">
  <g filter="url(#alpha)">
<rect x="0" y="0" width="64" height="64" style="fill:rgb(0%,0%,0%);fill-opacity:0.6;stroke:none;"/>
  </g>
</mask>
<linearGradient id="linear1" gradientUnits="userSpaceOnUse" x1="0" y1="0" x2="0" y2="1" gradientTransform="matrix(21.308594,0,0,13.882812,5.523438,34.132812)">
<stop offset="0" style="stop-color:#ff6666;stop-opacity:1;"/>
<stop offset="1" style="stop-color:#d90000;stop-opacity:1;"/>
</linearGradient>
<clipPath id="clip1">
  <rect x="0" y="0" width="64" height="64"/>
</clipPath>
<g id="surface5" clip-path="url(#clip1)">
<path style=" stroke:none;fill-rule:nonzero;fill:url(#linear1);" d="M 6.925781 34.132812 C 6.152344 34.132812 5.523438 34.730469 5.523438 35.480469 L 5.523438 46.625 C 5.523438 47.328125 6.230469 48.015625 6.957031 48.015625 L 22.261719 48.015625 C 22.96875 48.015625 23.429688 47.148438 23.699219 46.625 C 24.996094 43.796875 25.363281 40.652344 26.738281 35.890625 C 27.003906 35.070312 26.800781 34.132812 25.027344 34.132812 Z M 6.925781 34.132812 "/>
</g>
</defs>
<g id="surface1">
<path style=" stroke:none;fill-rule:nonzero;fill:url(#linear0);" d="M 16.695312 10.4375 C 14.09375 10.4375 9.164062 13.316406 0.4375 27.027344 C 0.00390625 27.710938 -0.105469 28.546875 0.136719 29.320312 C 0.046875 29.503906 0 29.707031 0 29.910156 L 0 50.785156 C 0 52.273438 1.199219 53.5625 2.722656 53.5625 L 25.03125 53.5625 C 26.589844 53.5625 28 52.636719 28.667969 51.230469 C 28.683594 51.199219 28.699219 51.167969 28.710938 51.132812 L 31.335938 44.277344 C 31.511719 43.914062 31.738281 43.828125 32 43.828125 C 32.261719 43.828125 32.488281 43.914062 32.664062 44.277344 L 35.289062 51.132812 C 35.300781 51.167969 35.316406 51.199219 35.332031 51.230469 C 36 52.636719 37.410156 53.5625 38.96875 53.5625 L 61.277344 53.5625 C 62.800781 53.5625 64 52.273438 64 50.785156 L 64 29.910156 C 64 29.710938 63.957031 29.511719 63.867188 29.332031 C 64.09375 28.621094 64.015625 27.84375 63.65625 27.191406 C 59.488281 19.546875 53.507812 10.4375 48.695312 10.4375 C 41.738281 10.4375 41.738281 17.769531 41.738281 20.171875 L 41.738281 20.289062 C 41.832031 22.476562 43.390625 25.738281 47.304688 25.738281 C 47.996094 25.738281 48.660156 25.53125 49.234375 25.152344 C 49.511719 26.273438 49.773438 27.410156 50.015625 28.519531 L 37.328125 28.519531 C 36.183594 28.519531 35.394531 29.015625 34.699219 29.363281 C 34.011719 29.710938 33.402344 29.910156 33.324219 29.910156 L 30.667969 29.910156 C 30.601562 29.910156 29.988281 29.710938 29.300781 29.363281 C 28.605469 29.015625 27.816406 28.519531 26.675781 28.519531 L 14.085938 28.519531 C 14.527344 27.214844 14.996094 25.875 15.480469 24.589844 C 16.089844 25.304688 16.925781 25.738281 18.089844 25.738281 C 22 25.738281 23.558594 22.476562 23.652344 20.289062 L 23.652344 20.171875 C 23.652344 17.769531 23.652344 10.4375 16.695312 10.4375 Z M 16.695312 13.214844 C 20.867188 13.214844 20.867188 17.503906 20.867188 20.171875 C 20.867188 20.171875 20.757812 22.957031 18.089844 22.957031 C 16.695312 22.957031 16.695312 18.199219 16.695312 16 C 15.308594 16 11.132812 28.519531 11.132812 28.519531 L 2.785156 28.519531 C 2.785156 28.519531 12.519531 13.214844 16.695312 13.214844 Z M 48.695312 13.214844 C 52.867188 13.214844 61.214844 28.519531 61.214844 28.519531 L 52.867188 28.519531 C 52.867188 28.519531 50.199219 16 48.695312 16 C 48.695312 18.199219 48.808594 22.957031 47.304688 22.957031 C 44.636719 22.957031 44.519531 20.171875 44.519531 20.171875 C 44.519531 17.503906 44.519531 13.214844 48.695312 13.214844 Z M 2.785156 31.304688 L 26.675781 31.304688 C 26.753906 31.304688 27.351562 31.507812 28.046875 31.851562 C 28.742188 32.199219 29.53125 32.695312 30.667969 32.695312 L 33.324219 32.695312 C 34.46875 32.695312 35.257812 32.199219 35.953125 31.851562 C 36.640625 31.507812 37.246094 31.304688 37.324219 31.304688 L 61.214844 31.304688 L 61.214844 50.785156 L 38.96875 50.785156 C 38.511719 50.785156 38.078125 50.515625 37.847656 50.039062 L 35.222656 43.179688 C 34.660156 41.894531 33.398438 41.058594 32 41.042969 C 30.601562 41.058594 29.339844 41.894531 28.777344 43.179688 L 26.152344 50.039062 C 25.921875 50.515625 25.488281 50.785156 25.03125 50.785156 L 2.785156 50.785156 Z M 38.921875 34.132812 C 37.148438 34.132812 36.941406 35.070312 37.210938 35.890625 C 38.589844 40.652344 38.953125 43.796875 40.242188 46.625 C 40.515625 47.148438 40.984375 48.015625 41.691406 48.015625 L 56.996094 48.015625 C 57.71875 48.015625 58.429688 47.328125 58.429688 46.625 L 58.429688 35.480469 C 58.429688 34.730469 57.792969 34.132812 57.019531 34.132812 Z M 38.921875 34.132812 "/>
<use xlink:href="#surface5" mask="url(#mask0)"/>
</g>
</svg>
