<svg xmlns="http://www.w3.org/2000/svg" xmlns:xlink="http://www.w3.org/1999/xlink" width="64" height="64" viewBox="0 0 64 64" version="1.1">
<defs>
<linearGradient id="linear0" gradientUnits="userSpaceOnUse" x1="0" y1="0" x2="0" y2="1" gradientTransform="matrix(63.714844,0,0,50.0625,0,6.96875)">
<stop offset="0" style="stop-color:#ff6666;stop-opacity:1;"/>
<stop offset="1" style="stop-color:#d90000;stop-opacity:1;"/>
</linearGradient>
<linearGradient id="linear1" gradientUnits="userSpaceOnUse" x1="0" y1="0" x2="0" y2="1" gradientTransform="matrix(63.714844,0,0,50.0625,0,6.96875)">
<stop offset="0" style="stop-color:#ff6666;stop-opacity:1;"/>
<stop offset="1" style="stop-color:#d90000;stop-opacity:1;"/>
</linearGradient>
</defs>
<g id="surface1">
<path style=" stroke:none;fill-rule:evenodd;fill:url(#linear0);" d="M 22.007812 14.695312 C 16.371094 14.695312 11.832031 18.183594 11.832031 26.90625 C 11.832031 37.375 22.007812 56.570312 32.183594 56.570312 C 42.355469 56.570312 52.53125 37.375 52.53125 26.90625 C 52.53125 18.183594 47.992188 14.695312 42.355469 14.695312 Z M 22.007812 14.695312 "/>
<path style=" stroke:none;fill-rule:evenodd;fill:url(#linear1);" d="M 32.183594 5.96875 C 32.183594 5.96875 28.789062 7.714844 28.789062 12.949219 C 27.09375 9.460938 23.636719 9.460938 20.3125 9.460938 C 20.3125 12.949219 22.007812 14.695312 25.398438 16.4375 C 22.007812 18.183594 20.3125 19.929688 20.3125 23.417969 C 23.636719 23.417969 27.09375 23.417969 28.789062 19.929688 C 28.789062 25.164062 32.183594 26.90625 32.183594 26.90625 C 32.183594 26.90625 35.574219 25.164062 35.574219 19.929688 C 37.269531 23.417969 40.726562 23.417969 44.050781 23.417969 C 44.050781 19.929688 42.355469 18.183594 38.964844 16.4375 C 42.355469 14.695312 44.050781 12.949219 44.050781 9.460938 C 40.726562 9.460938 37.269531 9.460938 35.574219 12.949219 C 35.574219 7.714844 32.183594 5.96875 32.183594 5.96875 Z M 32.183594 5.96875 "/>
</g>
</svg>
