<svg xmlns="http://www.w3.org/2000/svg" xmlns:xlink="http://www.w3.org/1999/xlink" width="64" height="64" viewBox="0 0 64 64" version="1.1">
<defs>
<filter id="alpha" filterUnits="objectBoundingBox" x="0%" y="0%" width="100%" height="100%">
  <feColorMatrix type="matrix" in="SourceGraphic" values="0 0 0 0 1 0 0 0 0 1 0 0 0 0 1 0 0 0 1 0"/>
</filter>
<mask id="mask0">
  <g filter="url(#alpha)">
<rect x="0" y="0" width="64" height="64" style="fill:rgb(0%,0%,0%);fill-opacity:0.6;stroke:none;"/>
  </g>
</mask>
<linearGradient id="linear0" gradientUnits="userSpaceOnUse" x1="0" y1="0" x2="0" y2="1" gradientTransform="matrix(43.199219,0,0,28.800781,10.449219,31.199219)">
<stop offset="0" style="stop-color:#ff6666;stop-opacity:1;"/>
<stop offset="1" style="stop-color:#d90000;stop-opacity:1;"/>
</linearGradient>
<clipPath id="clip1">
  <rect x="0" y="0" width="64" height="64"/>
</clipPath>
<g id="surface5" clip-path="url(#clip1)">
<path style=" stroke:none;fill-rule:nonzero;fill:url(#linear0);" d="M 53.648438 32.097656 C 53.648438 31.441406 53.160156 31.058594 52.5625 31.246094 L 11.527344 44.265625 C 10.933594 44.453125 10.449219 45.140625 10.449219 45.800781 L 10.449219 59.105469 C 10.449219 59.761719 10.933594 60.140625 11.527344 59.953125 L 52.5625 46.9375 C 53.160156 46.742188 53.648438 46.054688 53.648438 45.398438 Z M 53.648438 32.097656 "/>
</g>
<mask id="mask1">
  <g filter="url(#alpha)">
<rect x="0" y="0" width="64" height="64" style="fill:rgb(0%,0%,0%);fill-opacity:0.6;stroke:none;"/>
  </g>
</mask>
<linearGradient id="linear1" gradientUnits="userSpaceOnUse" x1="0" y1="0" x2="0" y2="1" gradientTransform="matrix(43.199219,0,0,28.800781,10.351562,4)">
<stop offset="0" style="stop-color:#ff6666;stop-opacity:1;"/>
<stop offset="1" style="stop-color:#d90000;stop-opacity:1;"/>
</linearGradient>
<clipPath id="clip2">
  <rect x="0" y="0" width="64" height="64"/>
</clipPath>
<g id="surface8" clip-path="url(#clip2)">
<path style=" stroke:none;fill-rule:nonzero;fill:url(#linear1);" d="M 10.351562 31.902344 C 10.351562 32.558594 10.839844 32.941406 11.4375 32.753906 L 52.472656 19.734375 C 53.066406 19.546875 53.550781 18.859375 53.550781 18.199219 L 53.550781 4.894531 C 53.550781 4.238281 53.066406 3.859375 52.472656 4.046875 L 11.4375 17.0625 C 10.839844 17.257812 10.351562 17.945312 10.351562 18.601562 Z M 10.351562 31.902344 "/>
</g>
<linearGradient id="linear2" gradientUnits="userSpaceOnUse" x1="0" y1="0" x2="0" y2="1" gradientTransform="matrix(43.199219,0,0,28.800781,10.449219,17.546875)">
<stop offset="0" style="stop-color:#ff6666;stop-opacity:1;"/>
<stop offset="1" style="stop-color:#d90000;stop-opacity:1;"/>
</linearGradient>
</defs>
<g id="surface1">
<use xlink:href="#surface5" mask="url(#mask0)"/>
<use xlink:href="#surface8" mask="url(#mask1)"/>
<path style=" stroke:none;fill-rule:nonzero;fill:url(#linear2);" d="M 10.449219 31.746094 C 10.449219 32.402344 10.933594 33.09375 11.527344 33.28125 L 52.5625 46.300781 C 53.164062 46.488281 53.648438 46.109375 53.648438 45.453125 L 53.648438 32.148438 C 53.648438 31.492188 53.164062 30.804688 52.5625 30.613281 L 11.527344 17.597656 C 10.933594 17.402344 10.449219 17.785156 10.449219 18.445312 Z M 10.449219 31.746094 "/>
</g>
</svg>
