<svg xmlns="http://www.w3.org/2000/svg" xmlns:xlink="http://www.w3.org/1999/xlink" width="64" height="64" viewBox="0 0 64 64" version="1.1">
<defs>
<linearGradient id="linear0" gradientUnits="userSpaceOnUse" x1="0" y1="0" x2="0" y2="1" gradientTransform="matrix(64,0,0,41.140625,0,11.429688)">
<stop offset="0" style="stop-color:#ff6666;stop-opacity:1;"/>
<stop offset="1" style="stop-color:#d90000;stop-opacity:1;"/>
</linearGradient>
</defs>
<g id="surface1">
<path style=" stroke:none;fill-rule:evenodd;fill:url(#linear0);" d="M 2.285156 48 Z M 32 34.285156 C 32 31.765625 34.046875 29.714844 36.570312 29.714844 C 39.097656 29.714844 41.144531 31.765625 41.144531 34.285156 C 41.144531 36.808594 39.097656 38.855469 36.570312 38.855469 C 34.046875 38.855469 32 36.808594 32 34.285156 Z M 43.429688 34.285156 C 43.429688 31.765625 45.476562 29.714844 48 29.714844 C 50.523438 29.714844 52.570312 31.765625 52.570312 34.285156 C 52.570312 36.808594 50.523438 38.855469 48 38.855469 C 45.476562 38.855469 43.429688 36.808594 43.429688 34.285156 Z M 13.824219 28.363281 C 13.78125 28.441406 13.746094 28.507812 13.714844 28.570312 C 12.117188 25.40625 2.285156 24 2.285156 24 L 2.285156 32 L 0 32 L 0 41.324219 L 2.285156 41.324219 L 2.285156 48.179688 C 2.222656 48.179688 12.117188 46.777344 13.714844 43.609375 L 13.714844 43.429688 C 15.316406 46.59375 24 52.570312 36.800781 52.570312 C 49.601562 52.570312 64 45.652344 64 35.164062 C 63.984375 27.710938 57.726562 21.351562 48 18.285156 L 48 14.59375 C 48 12.839844 46.570312 11.429688 44.800781 11.429688 L 28.800781 11.429688 C 27.027344 11.429688 25.144531 12.839844 25.144531 14.59375 L 25.144531 18.289062 C 22.421875 19.148438 20.125 20.71875 18.285156 22.472656 L 18.285156 13.570312 C 18.285156 12.386719 17.324219 11.429688 16.144531 11.429688 L 15.855469 11.429688 C 14.675781 11.429688 13.714844 12.386719 13.714844 13.570312 L 13.714844 27.570312 C 13.714844 27.84375 13.765625 28.105469 13.824219 28.363281 Z M 20.570312 34.285156 C 20.570312 31.765625 22.621094 29.714844 25.144531 29.714844 C 27.664062 29.714844 29.714844 31.765625 29.714844 34.285156 C 29.714844 36.808594 27.664062 38.855469 25.144531 38.855469 C 22.621094 38.855469 20.570312 36.808594 20.570312 34.285156 Z M 20.570312 34.285156 "/>
</g>
</svg>
