<svg xmlns="http://www.w3.org/2000/svg" xmlns:xlink="http://www.w3.org/1999/xlink" width="64" height="64" viewBox="0 0 64 64" version="1.1">
<defs>
<linearGradient id="linear0" gradientUnits="userSpaceOnUse" x1="0" y1="0" x2="0" y2="1" gradientTransform="matrix(64,0,0,59.734375,0,2.132812)">
<stop offset="0" style="stop-color:#ff6666;stop-opacity:1;"/>
<stop offset="1" style="stop-color:#d90000;stop-opacity:1;"/>
</linearGradient>
</defs>
<g id="surface1">
<path style=" stroke:none;fill-rule:evenodd;fill:url(#linear0);" d="M 41.863281 7.363281 C 42.972656 7.363281 44.078125 7.375 45.1875 7.398438 C 46.148438 7.421875 47.113281 7.460938 48.074219 7.511719 C 48.890625 7.558594 49.710938 7.628906 50.527344 7.714844 C 51.203125 7.792969 51.871094 7.886719 52.539062 8.011719 C 53.066406 8.113281 53.59375 8.230469 54.109375 8.382812 C 54.492188 8.496094 54.871094 8.636719 55.234375 8.800781 C 55.5 8.921875 55.753906 9.058594 55.992188 9.21875 C 56.171875 9.34375 56.339844 9.480469 56.496094 9.636719 C 56.652344 9.789062 56.792969 9.960938 56.910156 10.140625 C 57.070312 10.378906 57.210938 10.628906 57.328125 10.890625 C 57.496094 11.257812 57.632812 11.636719 57.746094 12.019531 C 57.894531 12.535156 58.023438 13.054688 58.121094 13.585938 C 58.242188 14.246094 58.34375 14.914062 58.414062 15.589844 C 58.503906 16.402344 58.570312 17.21875 58.621094 18.039062 C 58.675781 19 58.710938 19.964844 58.734375 20.929688 C 58.761719 22.03125 58.769531 23.136719 58.769531 24.242188 C 58.769531 24.242188 58.769531 24.246094 58.769531 24.253906 L 58.769531 39.753906 C 58.769531 39.753906 58.769531 39.753906 58.769531 39.757812 C 58.769531 40.863281 58.761719 41.96875 58.734375 43.070312 C 58.710938 44.035156 58.675781 45 58.621094 45.960938 C 58.570312 46.777344 58.503906 47.59375 58.414062 48.40625 C 58.34375 49.085938 58.242188 49.753906 58.121094 50.421875 C 58.023438 50.945312 57.894531 51.464844 57.746094 51.980469 C 57.632812 52.363281 57.496094 52.742188 57.328125 53.109375 C 57.210938 53.367188 57.070312 53.621094 56.910156 53.859375 C 56.792969 54.039062 56.652344 54.207031 56.496094 54.363281 C 56.339844 54.519531 56.171875 54.65625 55.992188 54.78125 C 55.753906 54.941406 55.5 55.078125 55.234375 55.199219 C 54.871094 55.363281 54.492188 55.5 54.109375 55.617188 C 53.59375 55.769531 53.066406 55.890625 52.539062 55.988281 C 51.871094 56.113281 51.203125 56.210938 50.527344 56.285156 C 49.710938 56.371094 48.890625 56.441406 48.074219 56.484375 C 47.113281 56.539062 46.148438 56.578125 45.1875 56.601562 C 44.078125 56.625 42.972656 56.636719 41.863281 56.636719 C 41.859375 56.636719 41.859375 56.636719 41.859375 56.636719 L 22.140625 56.636719 C 22.140625 56.636719 22.136719 56.636719 22.136719 56.636719 C 21.027344 56.636719 19.921875 56.625 18.816406 56.601562 C 17.851562 56.578125 16.886719 56.539062 15.929688 56.484375 C 15.105469 56.441406 14.289062 56.371094 13.472656 56.285156 C 12.796875 56.210938 12.125 56.113281 11.460938 55.988281 C 10.933594 55.890625 10.40625 55.769531 9.890625 55.617188 C 9.507812 55.5 9.128906 55.363281 8.765625 55.199219 C 8.503906 55.078125 8.246094 54.941406 8.011719 54.78125 C 7.828125 54.65625 7.660156 54.519531 7.503906 54.363281 C 7.347656 54.207031 7.207031 54.039062 7.089844 53.859375 C 6.929688 53.621094 6.785156 53.367188 6.667969 53.109375 C 6.507812 52.742188 6.363281 52.363281 6.253906 51.980469 C 6.101562 51.464844 5.976562 50.945312 5.878906 50.421875 C 5.757812 49.753906 5.660156 49.085938 5.585938 48.40625 C 5.492188 47.59375 5.425781 46.777344 5.378906 45.960938 C 5.328125 45 5.289062 44.035156 5.269531 43.070312 C 5.242188 41.96875 5.230469 40.863281 5.230469 39.757812 C 5.230469 39.753906 5.230469 39.753906 5.230469 39.753906 L 5.230469 24.253906 C 5.230469 24.246094 5.230469 24.242188 5.230469 24.242188 C 5.230469 23.136719 5.242188 22.03125 5.269531 20.929688 C 5.289062 19.964844 5.328125 19 5.378906 18.039062 C 5.425781 17.21875 5.492188 16.402344 5.585938 15.589844 C 5.660156 14.914062 5.757812 14.246094 5.878906 13.585938 C 5.976562 13.054688 6.101562 12.535156 6.253906 12.019531 C 6.363281 11.636719 6.507812 11.257812 6.667969 10.890625 C 6.785156 10.628906 6.929688 10.378906 7.089844 10.140625 C 7.207031 9.960938 7.347656 9.789062 7.503906 9.636719 C 7.660156 9.480469 7.828125 9.34375 8.011719 9.21875 C 8.246094 9.058594 8.503906 8.921875 8.765625 8.800781 C 9.128906 8.636719 9.507812 8.496094 9.890625 8.382812 C 10.40625 8.230469 10.933594 8.113281 11.460938 8.011719 C 12.125 7.886719 12.796875 7.792969 13.472656 7.714844 C 14.289062 7.628906 15.105469 7.558594 15.929688 7.511719 C 16.886719 7.460938 17.851562 7.421875 18.816406 7.398438 C 19.921875 7.375 21.027344 7.363281 22.136719 7.363281 C 22.136719 7.363281 22.140625 7.363281 22.140625 7.363281 L 41.859375 7.363281 C 41.859375 7.363281 41.859375 7.363281 41.863281 7.363281 Z M 41.859375 2.132812 C 61.230469 2.132812 64 4.894531 64 24.246094 L 64 39.746094 C 64 59.105469 61.230469 61.867188 41.859375 61.867188 L 22.140625 61.867188 C 2.769531 61.867188 0 59.105469 0 39.746094 L 0 24.246094 C 0 4.894531 2.769531 2.132812 22.140625 2.132812 Z M 40.984375 13.046875 L 50.136719 13.046875 C 50.691406 13.046875 51.144531 13.496094 51.144531 14.050781 L 51.144531 50.140625 C 51.144531 50.695312 50.691406 51.148438 50.136719 51.148438 L 40.984375 51.148438 C 40.429688 51.148438 39.976562 50.695312 39.976562 50.140625 L 39.976562 14.050781 C 39.976562 13.496094 40.429688 13.046875 40.984375 13.046875 Z M 40.984375 13.046875 "/>
</g>
</svg>
