<svg xmlns="http://www.w3.org/2000/svg" xmlns:xlink="http://www.w3.org/1999/xlink" width="64" height="64" viewBox="0 0 64 64" version="1.1">
<defs> <linearGradient id="linear0" gradientUnits="userSpaceOnUse" x1="0" y1="0" x2="0" y2="1" gradientTransform="matrix(55.992188,0,0,56,4.003906,4)"> <stop offset="0" style="stop-color:#ff6666;stop-opacity:1;"/> <stop offset="1" style="stop-color:#d90000;stop-opacity:1;"/> </linearGradient> </defs>
<g id="surface1">
<path style=" stroke:none;fill-rule:nonzero;fill:url(#linear0);fill-opacity:1;" d="M 58.90625 9.8125 C 58.753906 6.488281 53.910156 4.5 51.585938 7.085938 C 46.058594 12.402344 40.714844 17.910156 35.246094 23.289062 C 37.253906 25.410156 39.382812 27.40625 41.433594 29.492188 C 47.089844 23.746094 53.0625 18.265625 58.441406 12.265625 C 58.777344 11.617188 58.933594 10.875 58.90625 10.132812 C 58.910156 10.027344 58.910156 9.917969 58.90625 9.8125 M 40.539062 30.839844 L 40.402344 30.695312 L 40.273438 30.566406 C 38.160156 28.40625 35.941406 26.363281 33.90625 24.160156 C 31.730469 26.417969 29.511719 28.621094 27.246094 30.789062 C 29.535156 32.949219 31.691406 35.199219 33.929688 37.425781 C 36.171875 35.265625 38.394531 33.089844 40.539062 30.839844 M 33.4375 39.167969 C 30.796875 36.527344 28.1875 33.835938 25.484375 31.285156 C 18.722656 34.035156 11.945312 36.761719 5.199219 39.542969 C 5.6875 39.773438 6.851562 40.339844 6.460938 40.90625 C 5.976562 42.273438 6.699219 43.292969 7.691406 44.019531 C 8.828125 44.613281 9.738281 46.007812 11.175781 45.59375 C 12.40625 45.304688 15.1875 43.511719 16.421875 43.21875 C 15.304688 44.542969 12.421875 46.882812 11.253906 48.179688 C 12.113281 48.9375 14.007812 48.511719 15.125 48.550781 C 14.808594 49.902344 14.347656 52.441406 15.84375 52.929688 C 20.726562 53.144531 19.636719 53.511719 20.367188 54.523438 C 21.078125 56.054688 21.976562 58.726562 24.003906 58.410156 C 25.390625 58.1875 26.636719 56.882812 26.457031 55.433594 C 28.785156 50.011719 31.113281 44.59375 33.4375 39.167969 "/>
</g>
</svg>
