<svg xmlns="http://www.w3.org/2000/svg" xmlns:xlink="http://www.w3.org/1999/xlink" width="64" height="64" viewBox="0 0 64 64" version="1.1">
<defs>
<linearGradient id="linear0" gradientUnits="userSpaceOnUse" x1="0" y1="0" x2="0" y2="1" gradientTransform="matrix(56,0,0,51.695312,4,6.152344)">
<stop offset="0" style="stop-color:#ff6666;stop-opacity:1;"/>
<stop offset="1" style="stop-color:#d90000;stop-opacity:1;"/>
</linearGradient>
</defs>
<g id="surface1">
<path style=" stroke:none;fill-rule:nonzero;fill:url(#linear0);" d="M 17.253906 19.394531 L 46.230469 11.628906 C 46.761719 11.484375 47.3125 11.800781 47.453125 12.335938 C 47.597656 12.871094 47.28125 13.417969 46.746094 13.5625 L 17.769531 21.324219 C 17.238281 21.46875 16.6875 21.152344 16.546875 20.617188 C 16.402344 20.085938 16.71875 19.535156 17.253906 19.394531 Z M 17.253906 19.394531 "/>
<path style=" stroke:none;fill-rule:nonzero;fill:url(#linear0);" d="M 17.253906 21.324219 L 46.230469 29.085938 C 46.761719 29.230469 47.3125 28.914062 47.453125 28.378906 C 47.597656 27.847656 47.28125 27.296875 46.746094 27.15625 L 17.769531 19.390625 C 17.238281 19.246094 16.6875 19.566406 16.546875 20.097656 C 16.402344 20.632812 16.71875 21.179688 17.253906 21.324219 Z M 17.253906 21.324219 "/>
<path style=" stroke:none;fill-rule:nonzero;fill:url(#linear0);" d="M 17.253906 34.917969 L 46.230469 27.152344 C 46.761719 27.007812 47.3125 27.324219 47.453125 27.859375 C 47.597656 28.390625 47.28125 28.941406 46.746094 29.082031 L 17.769531 36.847656 C 17.238281 36.992188 16.6875 36.675781 16.546875 36.140625 C 16.402344 35.609375 16.71875 35.058594 17.253906 34.917969 Z M 17.253906 34.917969 "/>
<path style=" stroke:none;fill-rule:nonzero;fill:url(#linear0);" d="M 17.253906 36.84375 L 46.230469 44.609375 C 46.765625 44.753906 47.3125 44.4375 47.457031 43.902344 C 47.597656 43.367188 47.28125 42.820312 46.75 42.675781 L 17.769531 34.914062 C 17.238281 34.769531 16.6875 35.085938 16.546875 35.621094 C 16.402344 36.152344 16.71875 36.703125 17.253906 36.84375 Z M 17.253906 36.84375 "/>
<path style=" stroke:none;fill-rule:nonzero;fill:url(#linear0);" d="M 17.253906 50.4375 L 46.230469 42.675781 C 46.761719 42.53125 47.3125 42.847656 47.453125 43.382812 C 47.597656 43.914062 47.28125 44.460938 46.746094 44.605469 L 17.769531 52.371094 C 17.238281 52.511719 16.6875 52.195312 16.546875 51.664062 C 16.402344 51.128906 16.71875 50.582031 17.253906 50.4375 Z M 17.253906 50.4375 "/>
</g>
</svg>
