<svg xmlns="http://www.w3.org/2000/svg" xmlns:xlink="http://www.w3.org/1999/xlink" width="64" height="64" viewBox="0 0 64 64" version="1.1">
<defs>
<linearGradient id="linear0" gradientUnits="userSpaceOnUse" x1="0" y1="0" x2="0" y2="1" gradientTransform="matrix(64.007812,0,0,55.335938,-0.00390625,4.332031)">
<stop offset="0" style="stop-color:#ff6666;stop-opacity:1;"/>
<stop offset="1" style="stop-color:#d90000;stop-opacity:1;"/>
</linearGradient>
</defs>
<g id="surface1">
<path style=" stroke:none;fill-rule:nonzero;fill:url(#linear0);" d="M 32 4.332031 C 28.792969 4.332031 25.59375 5.492188 23.265625 7.242188 L 20.351562 7.242188 C 12.488281 7.242188 5.789062 13.652344 5.789062 21.808594 C 9.867188 21.242188 13.882812 23.179688 15.980469 26.722656 C 15.980469 27.015625 17.742188 29.691406 18.621094 31.726562 C 21.238281 31.433594 25.597656 30.542969 32 30.542969 C 38.40625 30.542969 42.777344 31.414062 45.105469 32 C 46.265625 29.960938 47.742188 27.085938 47.742188 27.085938 C 50.074219 23.296875 54.140625 21.511719 58.210938 21.808594 C 58.210938 13.652344 51.804688 7.242188 43.648438 7.242188 L 40.734375 7.242188 C 38.40625 5.492188 35.207031 4.332031 32 4.332031 Z M 6.515625 24.808594 C 6.089844 24.832031 5.660156 24.890625 5.238281 24.992188 C 2.910156 25.570312 0.816406 27.667969 0.234375 30 C -0.925781 34.660156 2.328125 38.984375 6.695312 39.28125 L 11.613281 53.84375 L 52.386719 53.84375 L 57.304688 39.28125 C 61.671875 38.984375 64.925781 34.660156 63.765625 29.996094 C 63.183594 27.667969 61.089844 25.570312 58.761719 24.992188 C 55.265625 24.117188 52.113281 25.632812 50.65625 28.542969 C 50.363281 28.835938 46.835938 35.457031 46.835938 35.457031 C 46.835938 35.457031 42.492188 33.457031 32 33.457031 C 21.507812 33.457031 17.441406 35.460938 17.441406 35.460938 C 17.441406 35.460938 13.617188 28.835938 13.617188 28.539062 C 12.09375 25.996094 9.496094 24.550781 6.515625 24.8125 Z M 10.703125 56.757812 L 9.246094 59.667969 L 13.066406 59.667969 L 15.980469 56.757812 Z M 48.019531 56.757812 L 50.933594 59.667969 L 54.757812 59.667969 L 53.300781 56.757812 Z M 48.019531 56.757812 "/>
</g>
</svg>
