<svg xmlns="http://www.w3.org/2000/svg" xmlns:xlink="http://www.w3.org/1999/xlink" width="64" height="64" viewBox="0 0 64 64" version="1.1">
<defs> <linearGradient id="linear0" gradientUnits="userSpaceOnUse" x1="0" y1="0" x2="0" y2="1" gradientTransform="matrix(55.992188,0,0,56,4.003906,4)"> <stop offset="0" style="stop-color:#ff6666;stop-opacity:1;"/> <stop offset="1" style="stop-color:#d90000;stop-opacity:1;"/> </linearGradient> </defs>
<g id="surface1">
<path style=" stroke:none;fill-rule:evenodd;fill:url(#linear0);fill-opacity:1;" d="M 13.722656 9.179688 C 10.914062 9.179688 8.660156 11.429688 8.660156 14.222656 L 8.660156 49.054688 C 8.660156 51.847656 10.914062 54.097656 13.722656 54.097656 L 49.316406 54.097656 C 52.121094 54.097656 54.378906 51.847656 54.378906 49.054688 L 54.378906 14.222656 C 54.378906 11.429688 52.121094 9.179688 49.316406 9.179688 L 35.015625 9.179688 C 35.128906 9.183594 35.226562 9.273438 35.226562 9.394531 L 35.226562 13.222656 C 35.226562 13.339844 35.128906 13.429688 35.007812 13.429688 L 27.644531 13.429688 C 27.523438 13.429688 27.425781 13.339844 27.425781 13.222656 L 27.425781 9.394531 C 27.425781 9.273438 27.519531 9.183594 27.632812 9.179688 Z M 31.226562 20.738281 C 33.882812 20.738281 36.492188 21.800781 38.367188 23.683594 C 40.5 25.832031 41.589844 28.933594 41.25 31.863281 C 40.789062 35.765625 38.324219 38.875 34.613281 40.238281 C 33.039062 40.820312 31.300781 40.980469 29.570312 40.707031 C 27.632812 40.402344 25.457031 39.28125 24.042969 37.863281 C 21.9375 35.742188 20.839844 32.632812 21.1875 29.714844 C 21.742188 24.972656 25.359375 21.347656 30.089844 20.800781 C 30.472656 20.761719 30.851562 20.738281 31.226562 20.738281 Z M 31.214844 22.800781 C 30.183594 22.800781 29.851562 22.847656 29.085938 23.089844 C 27.054688 23.742188 25.515625 24.953125 24.34375 26.816406 C 23.207031 28.640625 22.878906 30.617188 23.390625 32.597656 C 24.171875 35.617188 27.023438 38.214844 30.125 38.738281 C 31.078125 38.898438 32.425781 38.765625 33.511719 38.410156 C 36.214844 37.519531 38.40625 35.152344 39.109375 32.371094 C 39.296875 31.628906 39.296875 29.945312 39.109375 29.191406 C 38.429688 26.425781 36.230469 24.070312 33.476562 23.148438 C 32.542969 22.832031 32.324219 22.796875 31.214844 22.800781 Z M 31.214844 25.25 C 31.613281 25.25 32.011719 25.257812 32.3125 25.273438 L 33.402344 25.324219 L 33.453125 27.496094 L 33.511719 29.671875 L 35.15625 29.703125 C 36.066406 29.714844 36.871094 29.753906 36.953125 29.78125 C 37.128906 29.84375 36.832031 30.226562 35.40625 31.75 C 34.832031 32.367188 33.667969 33.617188 32.824219 34.53125 C 31.980469 35.449219 31.253906 36.195312 31.214844 36.195312 C 31.175781 36.195312 30.453125 35.449219 29.609375 34.53125 C 28.769531 33.617188 27.605469 32.367188 27.03125 31.75 C 25.605469 30.226562 25.304688 29.84375 25.484375 29.78125 C 25.558594 29.753906 26.371094 29.714844 27.273438 29.703125 L 28.925781 29.671875 L 28.976562 27.496094 L 29.035156 25.324219 L 30.125 25.273438 C 30.425781 25.257812 30.824219 25.25 31.214844 25.25 Z M 27.550781 49.839844 L 34.917969 49.839844 C 35.039062 49.839844 35.132812 49.9375 35.132812 50.050781 L 35.132812 53.882812 C 35.132812 54.003906 35.039062 54.09375 34.917969 54.09375 L 27.550781 54.09375 C 27.433594 54.09375 27.335938 54.003906 27.335938 53.882812 L 27.335938 50.050781 C 27.335938 49.9375 27.433594 49.839844 27.550781 49.839844 Z M 27.550781 49.839844 "/>
</g>
</svg>
