<svg xmlns="http://www.w3.org/2000/svg" xmlns:xlink="http://www.w3.org/1999/xlink" width="64" height="64" viewBox="0 0 64 64" version="1.1">
<defs>
<linearGradient id="linear0" gradientUnits="userSpaceOnUse" x1="0" y1="0" x2="0" y2="1" gradientTransform="matrix(64,0,0,58.1875,0,2.90625)">
<stop offset="0" style="stop-color:#ff6666;stop-opacity:1;"/>
<stop offset="1" style="stop-color:#d90000;stop-opacity:1;"/>
</linearGradient>
</defs>
<g id="surface1">
<path style=" stroke:none;fill-rule:evenodd;fill:url(#linear0);" d="M 42.535156 38.3125 L 48.128906 46.695312 C 48.550781 46.601562 49 46.542969 49.457031 46.542969 C 50.746094 46.542969 51.941406 46.96875 52.898438 47.683594 C 56.316406 43.199219 58.175781 37.695312 58.179688 32 C 58.175781 30.023438 57.945312 28.054688 57.5 26.136719 C 56.554688 26.03125 55.679688 25.695312 54.933594 25.1875 L 43.441406 33.398438 C 43.566406 33.878906 43.636719 34.386719 43.636719 34.90625 C 43.636719 36.179688 43.226562 37.355469 42.535156 38.3125 Z M 41.066406 30.085938 L 52.558594 21.871094 C 52.433594 21.390625 52.363281 20.882812 52.363281 20.363281 C 52.363281 19.121094 52.757812 17.96875 53.40625 17.011719 C 48.585938 10.046875 40.609375 5.820312 32 5.820312 C 17.539062 5.820312 5.820312 17.539062 5.820312 32 C 8.125 32 10.121094 33.34375 11.058594 35.296875 L 32.203125 33.375 C 32.878906 30.90625 35.140625 29.09375 37.820312 29.09375 C 39.019531 29.09375 40.140625 29.457031 41.066406 30.085938 Z M 32.570312 37.429688 L 11.433594 39.355469 C 10.984375 40.984375 9.84375 42.332031 8.320312 43 C 12.515625 52.160156 21.71875 58.171875 32 58.179688 C 36.332031 58.171875 40.574219 57.089844 44.335938 55.007812 C 43.871094 54.230469 43.636719 53.324219 43.636719 52.363281 C 43.636719 51.09375 44.042969 49.914062 44.738281 48.960938 L 39.148438 40.574219 C 38.71875 40.675781 38.277344 40.726562 37.820312 40.726562 C 35.507812 40.726562 33.511719 39.378906 32.570312 37.429688 Z M 60.328125 25.691406 C 60.839844 27.757812 61.085938 29.871094 61.09375 32 C 61.09375 38.855469 58.71875 45.160156 54.753906 50.136719 C 55.113281 50.796875 55.273438 51.558594 55.273438 52.363281 C 55.273438 55.574219 52.664062 58.179688 49.457031 58.179688 C 48.324219 58.179688 47.265625 57.855469 46.367188 57.296875 C 42.132812 59.710938 37.226562 61.09375 32 61.09375 C 24.285156 61.09375 16.882812 58.023438 11.429688 52.570312 C 8.835938 49.976562 6.78125 46.941406 5.421875 43.609375 C 2.390625 43.414062 0 40.894531 0 37.820312 C 0 35.660156 1.175781 33.777344 2.9375 32.800781 C 2.910156 32.535156 2.90625 32.269531 2.90625 32 C 2.90625 15.933594 15.933594 2.90625 32 2.90625 C 41.566406 2.921875 50.335938 7.613281 55.679688 15.183594 C 56.410156 14.757812 57.273438 14.542969 58.179688 14.542969 C 61.390625 14.542969 64 17.152344 64 20.363281 C 64 22.804688 62.496094 24.894531 60.328125 25.691406 Z M 60.328125 25.691406 "/>
</g>
</svg>
