<svg xmlns="http://www.w3.org/2000/svg" xmlns:xlink="http://www.w3.org/1999/xlink" width="64" height="64" viewBox="0 0 64 64" version="1.1">
<defs>
<linearGradient id="linear0" gradientUnits="userSpaceOnUse" x1="0" y1="0" x2="0" y2="1" gradientTransform="matrix(56,0,0,47.382812,4,8.308594)">
<stop offset="0" style="stop-color:#ff6666;stop-opacity:1;"/>
<stop offset="1" style="stop-color:#d90000;stop-opacity:1;"/>
</linearGradient>
</defs>
<g id="surface1">
<path style=" stroke:none;fill-rule:nonzero;fill:url(#linear0);" d="M 11.335938 8.308594 C 9.386719 8.296875 7.511719 9.0625 6.136719 10.445312 C 4.757812 11.820312 3.988281 13.695312 4 15.644531 L 4 48.355469 C 3.988281 50.304688 4.757812 52.179688 6.136719 53.554688 C 7.511719 54.9375 9.386719 55.703125 11.335938 55.691406 L 52.664062 55.691406 C 54.613281 55.703125 56.488281 54.9375 57.863281 53.554688 C 59.242188 52.179688 60.011719 50.304688 60 48.355469 L 60 15.644531 C 60.011719 13.695312 59.242188 11.820312 57.863281 10.445312 C 56.488281 9.0625 54.613281 8.296875 52.664062 8.308594 Z M 8.308594 29.238281 C 9.222656 29.644531 10.261719 29.847656 11.335938 29.847656 L 14.769531 29.847656 L 14.769531 42.769531 L 19.074219 42.769531 L 19.074219 29.847656 L 21.230469 29.847656 L 21.230469 42.769531 L 25.539062 42.769531 L 25.539062 29.847656 L 27.691406 29.847656 L 27.691406 42.769531 L 32 42.769531 L 32 29.847656 L 38.460938 29.847656 L 38.460938 42.769531 L 42.769531 42.769531 L 42.769531 29.847656 L 44.925781 29.847656 L 44.925781 42.769531 L 49.230469 42.769531 L 49.230469 29.847656 L 52.664062 29.847656 C 53.738281 29.847656 54.777344 29.644531 55.691406 29.238281 L 55.691406 48.355469 C 55.691406 50.078125 54.386719 51.382812 52.664062 51.382812 L 11.335938 51.382812 C 9.613281 51.382812 8.308594 50.078125 8.308594 48.355469 Z M 8.308594 29.238281 "/>
</g>
</svg>
