<svg xmlns="http://www.w3.org/2000/svg" xmlns:xlink="http://www.w3.org/1999/xlink" width="64" height="64" viewBox="0 0 64 64" version="1.1">
<defs>
<linearGradient id="linear0" gradientUnits="userSpaceOnUse" x1="0" y1="0" x2="0" y2="1" gradientTransform="matrix(8.789062,0,0,35.140625,27.601563,14.132813)">
<stop offset="0" style="stop-color:#ff6666;stop-opacity:1;"/>
<stop offset="1" style="stop-color:#d90000;stop-opacity:1;"/>
</linearGradient>
<linearGradient id="linear1" gradientUnits="userSpaceOnUse" x1="0" y1="0" x2="0" y2="1" gradientTransform="matrix(64,0,0,64,0,0)">
<stop offset="0" style="stop-color:#ff6666;stop-opacity:1;"/>
<stop offset="1" style="stop-color:#d90000;stop-opacity:1;"/>
</linearGradient>
</defs>
<g id="surface1">
<path style=" stroke:none;fill-rule:nonzero;fill:url(#linear0);" d="M 27.601562 14.132812 L 27.601562 36.109375 L 36.390625 36.109375 L 36.390625 14.132812 Z M 27.601562 40.484375 L 27.601562 49.273438 L 36.390625 49.273438 L 36.390625 40.484375 Z M 27.601562 40.484375 "/>
<path style=" stroke:none;fill-rule:nonzero;fill:url(#linear1);" d="M 32 0 L 30.5 1.476562 C 27.671875 4.269531 25.042969 7.289062 22.367188 9.953125 L 9.953125 9.953125 L 9.953125 22.367188 C 7.289062 25.042969 4.269531 27.671875 1.476562 30.5 L 0 32 L 1.476562 33.5 C 4.253906 36.316406 7.273438 39.042969 9.953125 41.757812 L 9.953125 54.046875 L 22.359375 54.046875 C 25.039062 56.710938 27.667969 59.730469 30.5 62.523438 L 32 64 L 33.5 62.523438 C 36.316406 59.746094 39.046875 56.726562 41.765625 54.046875 L 54.046875 54.046875 L 54.046875 41.75 C 56.726562 39.039062 59.75 36.3125 62.523438 33.5 L 64 32 L 62.523438 30.5 C 59.730469 27.671875 56.710938 25.042969 54.046875 22.367188 L 54.046875 9.953125 L 41.757812 9.953125 C 39.042969 7.273438 36.3125 4.253906 33.5 1.476562 Z M 32.007812 6.0625 C 34.410156 8.527344 36.824219 11.15625 39.367188 13.617188 L 39.992188 14.21875 L 49.78125 14.21875 L 49.78125 24.132812 L 50.382812 24.757812 C 52.859375 27.308594 55.484375 29.644531 57.9375 32.007812 C 55.472656 34.410156 52.84375 36.820312 50.382812 39.367188 L 49.78125 39.992188 L 49.78125 49.78125 L 40 49.78125 L 39.375 50.382812 C 36.828125 52.84375 34.410156 55.472656 32.007812 57.9375 C 29.644531 55.484375 27.300781 52.859375 24.75 50.382812 L 24.125 49.78125 L 14.21875 49.78125 L 14.21875 39.992188 L 13.617188 39.367188 C 11.15625 36.820312 8.527344 34.410156 6.0625 32.007812 C 8.515625 29.644531 11.140625 27.308594 13.617188 24.757812 L 14.21875 24.132812 L 14.21875 14.21875 L 24.132812 14.21875 L 24.757812 13.617188 C 27.308594 11.140625 29.644531 8.515625 32.007812 6.0625 Z M 32.007812 6.0625 "/>
</g>
</svg>
