<svg xmlns="http://www.w3.org/2000/svg" xmlns:xlink="http://www.w3.org/1999/xlink" width="64" height="64" viewBox="0 0 64 64" version="1.1">
<defs>
<linearGradient id="linear0" gradientUnits="userSpaceOnUse" x1="0" y1="0" x2="0" y2="1" gradientTransform="matrix(62.875,0,0,64,0.5625,0)">
<stop offset="0" style="stop-color:#ff6666;stop-opacity:1;"/>
<stop offset="1" style="stop-color:#d90000;stop-opacity:1;"/>
</linearGradient>
</defs>
<g id="surface1">
<path style=" stroke:none;fill-rule:evenodd;fill:url(#linear0);" d="M 0.566406 32.199219 C 0.515625 35.554688 1.007812 38.890625 2.023438 42.089844 C 6.179688 55.144531 18.304688 64.003906 32.003906 64 C 45.703125 64.003906 57.832031 55.144531 61.988281 42.089844 C 66.105469 29.027344 61.257812 14.808594 50.03125 6.976562 L 44.886719 14.339844 C 52.921875 19.910156 56.378906 30.0625 53.425781 39.378906 C 50.46875 48.707031 41.792969 55.039062 32.003906 55.015625 C 22.210938 55.042969 13.539062 48.710938 10.578125 39.378906 C 7.625 30.0625 11.089844 19.910156 19.117188 14.339844 L 13.976562 6.976562 C 5.714844 12.738281 0.722656 22.128906 0.566406 32.199219 Z M 27.515625 1.125 L 27.515625 32.558594 L 36.496094 32.558594 L 36.496094 0 Z M 27.515625 1.125 "/>
</g>
</svg>
