<svg xmlns="http://www.w3.org/2000/svg" xmlns:xlink="http://www.w3.org/1999/xlink" width="64" height="64" viewBox="0 0 64 64" version="1.1">
<defs>
<linearGradient id="linear0" gradientUnits="userSpaceOnUse" x1="0" y1="0" x2="0" y2="1" gradientTransform="matrix(58.125,0,0,64,2.9375,0)">
<stop offset="0" style="stop-color:#ff6666;stop-opacity:1;"/>
<stop offset="1" style="stop-color:#d90000;stop-opacity:1;"/>
</linearGradient>
</defs>
<g id="surface1">
<path style=" stroke:none;fill-rule:evenodd;fill:url(#linear0);" d="M 28.957031 6.023438 C 22.710938 6.675781 17.046875 9.304688 12.617188 13.273438 C 6.675781 18.597656 2.9375 26.328125 2.9375 34.9375 C 2.9375 50.988281 15.945312 64 32 64 C 48.054688 64 61.0625 50.988281 61.0625 34.9375 C 61.0625 32.816406 60.839844 30.757812 60.410156 28.773438 L 54.097656 30.125 C 54.429688 31.675781 54.609375 33.285156 54.609375 34.9375 C 54.609375 47.421875 44.484375 57.539062 32 57.539062 C 19.515625 57.539062 9.390625 47.421875 9.390625 34.9375 C 9.390625 27.902344 12.601562 21.628906 17.628906 17.480469 C 20.820312 14.847656 24.742188 13.078125 29.046875 12.515625 L 29.136719 18.851562 C 29.136719 18.851562 38.511719 14.851562 46.140625 9.179688 C 46.140625 9.175781 46.140625 9.175781 46.140625 9.171875 C 46.140625 9.171875 46.140625 9.171875 46.136719 9.167969 C 46.136719 9.167969 46.136719 9.160156 46.128906 9.160156 C 46.128906 9.160156 46.128906 9.15625 46.128906 9.15625 C 37.914062 3.523438 28.867188 0 28.867188 0 Z M 28.957031 6.023438 "/>
</g>
</svg>
