<svg xmlns="http://www.w3.org/2000/svg" xmlns:xlink="http://www.w3.org/1999/xlink" width="64" height="64" viewBox="0 0 64 64" version="1.1">
<defs>
<linearGradient id="linear0" gradientUnits="userSpaceOnUse" x1="0" y1="0" x2="0" y2="1" gradientTransform="matrix(64,0,0,64,0,0)">
<stop offset="0" style="stop-color:#ff6666;stop-opacity:1;"/>
<stop offset="1" style="stop-color:#d90000;stop-opacity:1;"/>
</linearGradient>
</defs>
<g id="surface1">
<path style=" stroke:none;fill-rule:evenodd;fill:url(#linear0);" d="M 32 7.109375 C 18.257812 7.109375 7.109375 18.257812 7.109375 32 C 7.109375 45.742188 18.257812 56.890625 32 56.890625 C 45.742188 56.890625 56.890625 45.742188 56.890625 32 C 56.890625 18.257812 45.742188 7.109375 32 7.109375 Z M 32 0 C 49.671875 0 64 14.328125 64 32 C 64 49.671875 49.671875 64 32 64 C 14.328125 64 0 49.671875 0 32 C 0 14.328125 14.328125 0 32 0 Z M 17.945312 32 C 17.945312 24.238281 24.238281 17.945312 32 17.945312 C 39.761719 17.945312 46.054688 24.238281 46.054688 32 C 46.054688 39.761719 39.761719 46.054688 32 46.054688 C 24.238281 46.054688 17.945312 39.761719 17.945312 32 Z M 17.945312 32 "/>
</g>
</svg>
