<svg xmlns="http://www.w3.org/2000/svg" xmlns:xlink="http://www.w3.org/1999/xlink" width="64" height="64" viewBox="0 0 64 64" version="1.1">
<defs> <linearGradient id="linear0" gradientUnits="userSpaceOnUse" x1="0" y1="0" x2="0" y2="1" gradientTransform="matrix(55.992188,0,0,56,4.003906,4)"> <stop offset="0" style="stop-color:#ff6666;stop-opacity:1;"/> <stop offset="1" style="stop-color:#d90000;stop-opacity:1;"/> </linearGradient> </defs>
<g id="surface1">
<path style=" stroke:none;fill-rule:nonzero;fill:url(#linear0);fill-opacity:1;" d="M 24.445312 5.125 C 24.109375 4.910156 23.707031 4.777344 23.28125 4.777344 C 22.082031 4.777344 21.117188 5.746094 21.117188 6.9375 C 21.117188 7.324219 21.21875 7.691406 21.402344 8.007812 Z M 24.445312 5.125 "/>
<path style=" stroke:none;fill-rule:nonzero;fill:url(#linear0);fill-opacity:1;" d="M 56.019531 37.949219 C 58.945312 34.265625 59.609375 29.933594 57.503906 28.269531 C 55.539062 26.722656 51.859375 28.042969 49.003906 31.210938 C 46.320312 30.472656 43.949219 30.652344 41.925781 31.789062 C 38.046875 33.964844 36.582031 38.972656 36.035156 42.777344 C 35.953125 43.367188 35.871094 43.960938 35.792969 44.5625 C 34.925781 51.148438 34.101562 57.367188 26.257812 57.367188 C 26.132812 57.367188 26.003906 57.367188 25.871094 57.363281 C 23.644531 57.304688 22.042969 56.617188 20.976562 55.257812 C 19.003906 52.746094 19.347656 48.640625 19.597656 46.929688 C 20.367188 46.578125 20.925781 45.820312 20.960938 44.914062 L 21.074219 41.539062 L 25.222656 40.304688 C 26.121094 40.046875 26.734375 39.277344 26.847656 38.410156 C 30.277344 36.550781 32.601562 34.054688 33.777344 30.953125 C 37.117188 22.152344 29.898438 11.886719 29.589844 11.453125 C 29.523438 11.355469 29.433594 11.292969 29.347656 11.226562 C 29.550781 10.757812 29.5 10.328125 29.160156 10.105469 C 28.613281 9.753906 27.773438 8.710938 27.28125 7.769531 L 26.417969 6.117188 C 25.929688 5.179688 24.90625 5.015625 24.140625 5.75 L 21.980469 7.828125 C 21.214844 8.5625 21.363281 9.558594 22.304688 10.042969 L 23.816406 10.824219 C 24.765625 11.3125 25.796875 12.199219 26.128906 12.804688 C 26.378906 13.261719 26.949219 13.316406 27.550781 13.011719 C 28.160156 13.90625 34.101562 22.882812 31.375 30.058594 C 30.433594 32.535156 28.53125 34.554688 25.710938 36.113281 C 25.179688 35.808594 24.535156 35.714844 23.90625 35.898438 L 18.839844 37.398438 L 13.429688 35.691406 C 12.808594 35.5 12.167969 35.582031 11.632812 35.867188 C 9.050781 34.34375 7.300781 32.40625 6.402344 30.058594 C 3.546875 22.535156 10.214844 13.03125 10.28125 12.933594 C 10.292969 12.917969 10.292969 12.898438 10.304688 12.886719 C 10.304688 12.886719 10.457031 13.03125 10.65625 13.210938 C 10.851562 13.390625 11.277344 13.046875 11.605469 12.441406 C 11.941406 11.835938 12.972656 10.949219 13.917969 10.460938 L 15.429688 9.683594 C 16.375 9.191406 16.519531 8.199219 15.75 7.464844 L 13.59375 5.390625 C 12.828125 4.652344 11.808594 4.816406 11.316406 5.757812 L 10.453125 7.410156 C 9.964844 8.347656 9.125 9.394531 8.578125 9.742188 C 8.035156 10.09375 7.789062 10.558594 8.027344 10.785156 L 8.472656 11.191406 C 8.367188 11.265625 8.265625 11.34375 8.1875 11.453125 C 7.878906 11.886719 0.664062 22.152344 4 30.953125 C 5.121094 33.902344 7.277344 36.296875 10.4375 38.128906 C 10.527344 39.011719 11.128906 39.796875 12.03125 40.078125 L 16.449219 41.472656 L 16.335938 44.757812 C 16.3125 45.441406 16.597656 46.058594 17.0625 46.492188 C 16.757812 48.527344 16.34375 53.5 18.941406 56.820312 C 20.492188 58.804688 22.804688 59.84375 25.804688 59.917969 C 25.96875 59.925781 26.121094 59.929688 26.28125 59.929688 C 36.347656 59.929688 37.449219 51.605469 38.335938 44.902344 C 38.417969 44.308594 38.492188 43.722656 38.574219 43.144531 C 39.234375 38.558594 40.871094 35.316406 43.1875 34.015625 C 44.355469 33.359375 45.742188 33.179688 47.332031 33.453125 C 45.339844 36.738281 45.082031 40.171875 46.90625 41.605469 C 49.011719 43.269531 53.097656 41.628906 56.019531 37.949219 Z M 52.257812 34.90625 C 51.160156 36.285156 49.632812 36.894531 48.84375 36.277344 C 48.265625 35.820312 48.253906 34.832031 48.707031 33.789062 C 49.128906 33.921875 49.546875 34.066406 49.984375 34.25 C 50.636719 34.527344 51.394531 34.21875 51.664062 33.570312 C 51.945312 32.917969 51.636719 32.171875 50.984375 31.894531 C 50.792969 31.8125 50.605469 31.753906 50.410156 31.679688 C 51.308594 31.03125 52.246094 30.832031 52.8125 31.28125 C 53.601562 31.902344 53.351562 33.53125 52.257812 34.90625 Z M 52.257812 34.90625 "/>
<path style=" stroke:none;fill-rule:nonzero;fill:url(#linear0);fill-opacity:1;" d="M 16.621094 6.578125 C 16.621094 5.382812 15.648438 4.417969 14.457031 4.417969 C 14.023438 4.417969 13.628906 4.542969 13.292969 4.757812 L 16.335938 7.644531 C 16.519531 7.328125 16.621094 6.960938 16.621094 6.578125 Z M 16.621094 6.578125 "/>
<path style=" stroke:none;fill-rule:nonzero;fill:url(#linear0);fill-opacity:1;" d="M 59.730469 29.644531 C 59.179688 29.34375 59.078125 29.90625 59.183594 30.964844 C 59.339844 32.535156 59.089844 34.949219 57.03125 37.574219 C 54.441406 40.871094 52.164062 42.066406 50.660156 42.464844 C 49.632812 42.742188 49.347656 42.964844 50.085938 43.386719 C 50.820312 43.8125 52.261719 43.9375 53.164062 43.371094 C 54.316406 42.660156 56 41.289062 58.09375 38.6875 C 60.371094 35.855469 60.9375 33.558594 60.992188 32.070312 C 61.023438 31.015625 60.28125 29.945312 59.730469 29.644531 Z M 59.730469 29.644531 "/>
</g>
</svg>
