<svg xmlns="http://www.w3.org/2000/svg" xmlns:xlink="http://www.w3.org/1999/xlink" width="64" height="64" viewBox="0 0 64 64" version="1.1">
<defs> <linearGradient id="linear0" gradientUnits="userSpaceOnUse" x1="0" y1="0" x2="0" y2="1" gradientTransform="matrix(55.992188,0,0,56,4.003906,4)"> <stop offset="0" style="stop-color:#ff6666;stop-opacity:1;"/> <stop offset="1" style="stop-color:#d90000;stop-opacity:1;"/> </linearGradient> </defs>
<g id="surface1">
<path style=" stroke:none;fill-rule:nonzero;fill:url(#linear0);fill-opacity:1;" d="M 25.273438 1.703125 L 25.273438 21.652344 L 17.308594 21.652344 C 14.972656 21.652344 17.125 23.671875 17.125 23.671875 L 31.265625 40.691406 L 31.273438 40.695312 C 31.273438 40.695312 32.425781 42.042969 33.636719 40.832031 C 35.308594 39.164062 47.34375 23.261719 47.34375 23.261719 C 47.34375 23.261719 49.46875 21.140625 46.640625 21.140625 L 39.285156 21.140625 L 39.285156 1.703125 L 25.273438 1.703125 M 14.003906 45.304688 C 10.765625 45.304688 8.160156 47.902344 8.160156 51.125 C 8.160156 54.347656 10.765625 56.945312 14.003906 56.945312 L 50.335938 56.945312 C 53.574219 56.945312 56.179688 54.347656 56.179688 51.125 C 56.179688 47.902344 53.574219 45.3125 50.335938 45.3125 L 14.003906 45.3125 M 13.828125 47.996094 C 13.878906 47.992188 13.941406 47.996094 13.996094 47.996094 C 15.734375 47.996094 17.136719 49.394531 17.136719 51.125 C 17.136719 52.855469 15.734375 54.261719 13.996094 54.261719 C 12.257812 54.261719 10.855469 52.855469 10.855469 51.125 C 10.855469 49.445312 12.164062 48.082031 13.828125 47.996094 "/>
</g>
</svg>
