<svg xmlns="http://www.w3.org/2000/svg" xmlns:xlink="http://www.w3.org/1999/xlink" width="64" height="64" viewBox="0 0 64 64" version="1.1">
<defs>
<linearGradient id="linear0" gradientUnits="userSpaceOnUse" x1="0" y1="0" x2="0" y2="1" gradientTransform="matrix(64,0,0,64,0.03125,0.15625)">
<stop offset="0" style="stop-color:#ff6666;stop-opacity:1;"/>
<stop offset="1" style="stop-color:#d90000;stop-opacity:1;"/>
</linearGradient>
</defs>
<g id="surface1">
<path style=" stroke:none;fill-rule:nonzero;fill:url(#linear0);" d="M 37.257812 0.15625 L 26.726562 1.734375 L 26.726562 4.984375 C 23.777344 5.542969 20.933594 6.574219 18.3125 8.039062 L 15.71875 4.929688 L 7.695312 11.773438 L 10.25 14.820312 C 9.304688 15.980469 8.453125 17.210938 7.703125 18.507812 C 6.9375 19.835938 6.332031 21.210938 5.804688 22.601562 L 1.789062 21.890625 L 0.03125 32.296875 L 4.007812 33 C 4.066406 35.996094 4.589844 38.964844 5.570312 41.78125 L 2 43.851562 L 7.320312 52.960938 L 10.851562 50.921875 C 12.757812 53.125 15.027344 55.070312 17.65625 56.640625 L 16.242188 60.546875 L 26.164062 64.09375 L 27.5625 60.234375 C 30.527344 60.710938 33.523438 60.726562 36.4375 60.257812 L 37.851562 64.15625 L 47.726562 60.484375 L 46.335938 56.65625 C 48.867188 55.148438 51.171875 53.234375 53.15625 50.929688 L 56.726562 52.992188 L 61.9375 43.820312 L 58.421875 41.789062 C 59.414062 38.917969 59.914062 35.953125 59.953125 33.007812 L 64.03125 32.289062 L 62.132812 21.90625 L 58.125 22.609375 C 57.074219 19.84375 55.570312 17.246094 53.679688 14.90625 L 56.34375 11.71875 L 48.226562 4.984375 L 45.632812 8.078125 C 43.023438 6.613281 40.195312 5.574219 37.257812 5.007812 Z M 31.96875 8.5 C 45.222656 8.5 55.96875 19.269531 55.96875 32.554688 C 55.96875 45.839844 45.222656 56.609375 31.96875 56.609375 C 18.714844 56.609375 7.96875 45.839844 7.96875 32.554688 C 7.96875 19.269531 18.714844 8.5 31.96875 8.5 Z M 31.929688 12.515625 C 31.472656 12.515625 31.015625 12.53125 30.5625 12.5625 C 23.929688 13.011719 17.957031 16.746094 14.632812 22.515625 C 9.136719 32.117188 12.417969 44.367188 21.976562 49.914062 C 31.539062 55.449219 43.765625 52.171875 49.296875 42.59375 C 54.796875 32.996094 51.511719 20.746094 41.953125 15.203125 C 38.90625 13.433594 35.449219 12.507812 31.929688 12.515625 Z M 31.710938 16.515625 C 31.796875 16.515625 31.882812 16.515625 31.96875 16.515625 C 40.804688 16.515625 47.96875 23.695312 47.96875 32.554688 C 47.96875 41.414062 40.804688 48.59375 31.96875 48.59375 C 23.132812 48.59375 15.96875 41.414062 15.96875 32.554688 C 15.96875 23.796875 22.976562 16.65625 31.710938 16.515625 Z M 31.710938 16.515625 "/>
</g>
</svg>
