<svg xmlns="http://www.w3.org/2000/svg" xmlns:xlink="http://www.w3.org/1999/xlink" width="64" height="64" viewBox="0 0 64 64" version="1.1">
<defs>
<linearGradient id="linear0" gradientUnits="userSpaceOnUse" x1="0" y1="0" x2="0" y2="1" gradientTransform="matrix(60,0,0,54.859375,2,5.140625)">
<stop offset="0" style="stop-color:#ff6666;stop-opacity:1;"/>
<stop offset="1" style="stop-color:#d90000;stop-opacity:1;"/>
</linearGradient>
</defs>
<g id="surface1">
<path style=" stroke:none;fill-rule:nonzero;fill:url(#linear0);" d="M 10.570312 5.140625 C 5.835938 5.140625 2 8.976562 2 13.710938 C 1.996094 18.445312 5.835938 22.289062 10.570312 22.289062 C 15.304688 22.289062 19.144531 18.445312 19.140625 13.710938 C 19.140625 8.976562 15.304688 5.140625 10.570312 5.140625 Z M 53.429688 5.140625 C 48.695312 5.140625 44.859375 8.976562 44.859375 13.710938 C 44.855469 18.445312 48.695312 22.289062 53.429688 22.289062 C 58.164062 22.289062 62.003906 18.445312 62 13.710938 C 62 8.976562 58.164062 5.140625 53.429688 5.140625 Z M 32.171875 24.039062 C 27.4375 24.039062 23.601562 27.875 23.601562 32.609375 C 23.601562 37.34375 27.4375 41.179688 32.171875 41.179688 C 36.90625 41.179688 40.742188 37.34375 40.742188 32.609375 C 40.742188 27.875 36.90625 24.039062 32.171875 24.039062 Z M 10.570312 42.859375 C 5.835938 42.859375 2 46.695312 2 51.429688 C 2 56.164062 5.835938 60 10.570312 60 C 15.304688 60 19.140625 56.164062 19.140625 51.429688 C 19.140625 46.695312 15.304688 42.859375 10.570312 42.859375 Z M 53.429688 42.859375 C 48.695312 42.859375 44.859375 46.695312 44.859375 51.429688 C 44.859375 56.164062 48.695312 60 53.429688 60 C 58.164062 60 62 56.164062 62 51.429688 C 62 46.695312 58.164062 42.859375 53.429688 42.859375 Z M 53.429688 42.859375 "/>
</g>
</svg>
