<svg xmlns="http://www.w3.org/2000/svg" xmlns:xlink="http://www.w3.org/1999/xlink" width="64" height="64" viewBox="0 0 64 64" version="1.1">
<defs>
<linearGradient id="linear0" gradientUnits="userSpaceOnUse" x1="0" y1="0" x2="0" y2="1" gradientTransform="matrix(64.003906,0,0,64,-0.00390625,0)">
<stop offset="0" style="stop-color:#ff6666;stop-opacity:1;"/>
<stop offset="1" style="stop-color:#d90000;stop-opacity:1;"/>
</linearGradient>
</defs>
<g id="surface1">
<path style=" stroke:none;fill-rule:evenodd;fill:url(#linear0);" d="M 32.941406 4.570312 L 50.289062 24.355469 L 46.207031 28.125 L 39.972656 21.007812 L 23.140625 36.570312 L 18.289062 31.035156 L 35.121094 15.46875 L 28.863281 8.339844 Z M 7.402344 33.167969 L 11.925781 38.769531 L 11.410156 44.730469 L 19.34375 54.566406 L 19.21875 56.007812 L 6.773438 40.574219 Z M 32.179688 0 C 31.058594 0.0117188 29.976562 0.0742188 29.011719 0.21875 C 25.453125 0.816406 21.9375 2.179688 18.898438 3.714844 C 9.820312 8.390625 -0.183594 20.097656 0 28.914062 L 0.0195312 28.902344 C 0.0234375 29.214844 0.0859375 29.585938 0.191406 30 C 0.484375 31.132812 1.125 32.644531 2.074219 34.425781 C 3.972656 37.996094 7.070312 42.648438 10.9375 47.558594 C 16.847656 55.070312 22.8125 60.984375 26.15625 62.863281 L 26.15625 62.871094 C 28.507812 64.410156 30.542969 64 31.257812 63.78125 C 33.621094 63.351562 38.886719 59.941406 45.328125 54.441406 C 54.617188 46.515625 62.863281 37.238281 63.863281 33.609375 L 63.898438 33.667969 C 65.449219 19.007812 48.816406 6.839844 46.683594 5.273438 C 42.757812 1.984375 37.695312 0 32.179688 0 Z M 55.570312 42.621094 C 54.371094 43.867188 53.144531 45.105469 51.882812 46.328125 C 50.621094 47.550781 49.335938 48.769531 48.019531 49.964844 C 45.050781 52.671875 42.78125 54.523438 41.207031 55.511719 C 39.640625 56.5 38.988281 56.484375 39.265625 55.460938 C 39.542969 54.429688 40.644531 52.808594 42.570312 50.609375 C 44.5 48.398438 47 45.890625 50.0625 43.089844 C 51.257812 42.003906 52.375 41.011719 53.4375 40.109375 C 54.507812 39.191406 55.5 38.375 56.425781 37.648438 L 56.058594 38.976562 C 55.121094 39.679688 54.175781 40.4375 53.214844 41.230469 C 52.265625 42.03125 51.292969 42.875 50.304688 43.777344 C 48.476562 45.449219 47.011719 46.925781 45.921875 48.195312 C 44.835938 49.464844 44.195312 50.441406 44.011719 51.125 C 43.828125 51.804688 44.167969 51.886719 45.023438 51.386719 C 45.875 50.882812 47.183594 49.828125 48.941406 48.222656 C 49.421875 47.785156 49.863281 47.375 50.277344 46.984375 C 50.699219 46.585938 51.070312 46.214844 51.410156 45.871094 L 51.753906 44.625 L 48.941406 47.183594 L 49.242188 46.074219 L 56.40625 39.539062 Z M 55.570312 42.621094 "/>
</g>
</svg>
