<svg xmlns="http://www.w3.org/2000/svg" xmlns:xlink="http://www.w3.org/1999/xlink" width="64px" height="64px" viewBox="0 0 64 64" version="1.1">
<defs>
<linearGradient id="linear0" gradientUnits="userSpaceOnUse" x1="0" y1="128" x2="128" y2="0" gradientTransform="matrix(0.432432,0,0,0.432432,4.324324,4.324324)">
<stop offset="0" style="stop-color:#ff6666;stop-opacity:1;"/>
<stop offset="1" style="stop-color:#d90000;stop-opacity:1;"/>
</linearGradient>
</defs>
<g id="surface1">
<path style=" stroke:none;fill-rule:nonzero;fill:url(#linear0);" d="M 7.992188 19.378906 L 7.992188 22.511719 L 14.75 22.511719 C 14.945312 22.511719 15.140625 22.566406 15.316406 22.621094 C 15.613281 22.722656 15.855469 22.886719 16.046875 23.082031 C 16.058594 23.082031 16.0625 23.082031 16.074219 23.082031 C 16.175781 23.1875 16.246094 23.3125 16.316406 23.433594 C 16.316406 23.441406 16.316406 23.449219 16.316406 23.460938 C 16.46875 23.730469 16.5625 24.003906 16.5625 24.351562 L 16.5625 39.648438 C 16.5625 39.996094 16.46875 40.296875 16.316406 40.566406 C 16.246094 40.6875 16.175781 40.8125 16.074219 40.917969 C 16.0625 40.917969 16.058594 40.917969 16.046875 40.917969 C 15.855469 41.113281 15.613281 41.277344 15.316406 41.378906 C 15.140625 41.433594 14.945312 41.488281 14.75 41.488281 L 7.992188 41.488281 L 7.992188 44.621094 L 56.007812 44.621094 L 56.007812 41.488281 L 19.371094 41.488281 C 19.175781 41.488281 18.980469 41.433594 18.804688 41.378906 C 18.511719 41.277344 18.292969 41.113281 18.101562 40.917969 C 18.089844 40.917969 18.085938 40.917969 18.074219 40.917969 C 17.972656 40.8125 17.875 40.6875 17.804688 40.566406 C 17.652344 40.296875 17.5625 39.996094 17.5625 39.648438 L 17.5625 24.351562 C 17.5625 24.003906 17.652344 23.730469 17.804688 23.460938 C 17.804688 23.449219 17.804688 23.441406 17.804688 23.433594 C 17.875 23.3125 17.972656 23.1875 18.074219 23.082031 C 18.085938 23.082031 18.089844 23.082031 18.101562 23.082031 C 18.292969 22.886719 18.511719 22.722656 18.804688 22.621094 C 18.882812 22.597656 19.007812 22.5625 19.15625 22.539062 C 19.285156 22.523438 19.355469 22.511719 19.371094 22.511719 L 56.007812 22.511719 L 56.007812 19.378906 Z M 7.992188 23.511719 L 7.992188 40.488281 L 14.75 40.488281 C 14.828125 40.488281 14.921875 40.484375 14.992188 40.460938 C 15.082031 40.429688 15.226562 40.328125 15.316406 40.242188 C 15.347656 40.210938 15.425781 40.128906 15.453125 40.082031 C 15.519531 39.960938 15.5625 39.785156 15.5625 39.648438 L 15.5625 24.351562 C 15.5625 24.226562 15.511719 24.0625 15.453125 23.945312 C 15.449219 23.9375 15.457031 23.925781 15.453125 23.917969 C 15.429688 23.882812 15.371094 23.816406 15.34375 23.785156 C 15.335938 23.773438 15.328125 23.765625 15.316406 23.757812 C 15.226562 23.675781 15.078125 23.59375 14.992188 23.566406 C 14.921875 23.542969 14.828125 23.511719 14.75 23.511719 Z M 19.289062 23.511719 C 19.289062 23.511719 19.195312 23.546875 19.128906 23.566406 C 19.042969 23.59375 18.894531 23.675781 18.804688 23.757812 C 18.796875 23.761719 18.785156 23.773438 18.777344 23.785156 C 18.75 23.816406 18.71875 23.882812 18.695312 23.917969 C 18.691406 23.925781 18.699219 23.9375 18.695312 23.945312 C 18.636719 24.0625 18.5625 24.226562 18.5625 24.351562 L 18.5625 39.648438 C 18.5625 39.785156 18.628906 39.960938 18.695312 40.082031 C 18.722656 40.128906 18.773438 40.210938 18.804688 40.242188 C 18.894531 40.328125 19.039062 40.429688 19.128906 40.460938 C 19.199219 40.484375 19.292969 40.488281 19.371094 40.488281 L 56.007812 40.488281 L 56.007812 23.511719 L 19.371094 23.511719 C 19.273438 23.511719 19.269531 23.515625 19.289062 23.511719 Z M 22.007812 26.472656 C 22.019531 26.476562 22.035156 26.480469 22.046875 26.488281 L 33.046875 26.488281 C 33.3125 26.492188 33.527344 26.707031 33.535156 26.972656 L 33.535156 36.972656 C 33.527344 37.238281 33.3125 37.453125 33.046875 37.460938 L 22.046875 37.460938 C 21.78125 37.453125 21.566406 37.238281 21.5625 36.972656 L 21.5625 26.972656 C 21.5625 26.738281 21.734375 26.53125 21.964844 26.488281 C 21.980469 26.480469 21.992188 26.476562 22.007812 26.472656 Z M 28.789062 27.488281 L 28.789062 28.488281 L 31.789062 28.488281 L 31.789062 27.488281 Z M 22.5625 29.460938 L 22.5625 36.460938 L 32.535156 36.460938 L 32.535156 29.460938 Z M 22.5625 29.460938 "/>
</g>
</svg>
