<svg xmlns="http://www.w3.org/2000/svg" xmlns:xlink="http://www.w3.org/1999/xlink" width="64" height="64" viewBox="0 0 64 64" version="1.1">
<defs>
<linearGradient id="linear0" gradientUnits="userSpaceOnUse" x1="0" y1="0" x2="0" y2="1" gradientTransform="matrix(64,0,0,8,-0.125,50)">
<stop offset="0" style="stop-color:#ff6666;stop-opacity:1;"/>
<stop offset="1" style="stop-color:#d90000;stop-opacity:1;"/>
</linearGradient>
<linearGradient id="linear1" gradientUnits="userSpaceOnUse" x1="0" y1="0" x2="0" y2="1" gradientTransform="matrix(57.03125,0,0,35.71875,3.484375,5.601562)">
<stop offset="0" style="stop-color:#ff6666;stop-opacity:1;"/>
<stop offset="1" style="stop-color:#d90000;stop-opacity:1;"/>
</linearGradient>
</defs>
<g id="surface1">
<path style=" stroke:none;fill-rule:evenodd;fill:url(#linear0);" d="M -0.125 50 L 63.875 50 L 63.875 58 L -0.125 58 Z M -0.125 50 "/>
<path style=" stroke:none;fill-rule:evenodd;fill:url(#linear1);" d="M 29.039062 11.863281 L 19.21875 11.863281 L 19.21875 40.726562 L 13.300781 40.726562 L 13.300781 11.863281 L 3.484375 11.863281 L 3.484375 6.191406 L 29.039062 6.191406 Z M 48.429688 41.320312 C 46.355469 41.320312 44.480469 40.976562 42.804688 40.285156 C 41.125 39.59375 39.753906 38.671875 38.683594 37.519531 C 37.613281 36.371094 36.71875 35.007812 35.996094 33.429688 C 35.273438 31.847656 34.757812 30.234375 34.445312 28.59375 C 34.128906 26.945312 33.972656 25.234375 33.972656 23.460938 C 33.972656 21.355469 34.234375 19.300781 34.765625 17.292969 C 35.289062 15.285156 36.09375 13.386719 37.179688 11.597656 C 38.265625 9.800781 39.777344 8.351562 41.71875 7.253906 C 43.660156 6.152344 45.898438 5.601562 48.429688 5.601562 C 51.488281 5.601562 54.050781 6.316406 56.125 7.746094 C 58.199219 9.175781 59.648438 10.910156 60.46875 12.953125 L 55.140625 15.367188 C 54.21875 13.953125 53.253906 12.917969 52.253906 12.261719 C 51.25 11.601562 49.976562 11.273438 48.429688 11.273438 C 46.914062 11.273438 45.59375 11.644531 44.457031 12.382812 C 43.324219 13.121094 42.453125 14.109375 41.84375 15.34375 C 41.234375 16.578125 40.789062 17.878906 40.511719 19.238281 C 40.230469 20.605469 40.09375 22.011719 40.09375 23.460938 C 40.09375 26.683594 40.808594 29.511719 42.234375 31.945312 C 43.667969 34.378906 45.730469 35.597656 48.429688 35.597656 C 51.058594 35.597656 53.265625 34.117188 55.039062 31.15625 L 60.515625 33.226562 C 58.117188 38.621094 54.085938 41.320312 48.429688 41.320312 Z M 48.429688 41.320312 "/>
</g>
</svg>
