<svg xmlns="http://www.w3.org/2000/svg" xmlns:xlink="http://www.w3.org/1999/xlink" width="64" height="64" viewBox="0 0 64 64" version="1.1">
<defs>
<linearGradient id="linear0" gradientUnits="userSpaceOnUse" x1="0" y1="0" x2="0" y2="1" gradientTransform="matrix(60,0,0,64,2,0)">
<stop offset="0" style="stop-color:#ff6666;stop-opacity:1;"/>
<stop offset="1" style="stop-color:#d90000;stop-opacity:1;"/>
</linearGradient>
</defs>
<g id="surface1">
<path style=" stroke:none;fill-rule:nonzero;fill:url(#linear0);" d="M 24.628906 0.03125 C 22.078125 0.128906 19.496094 0.46875 16.902344 1.0625 C 13.765625 1.78125 12.558594 2.351562 11.542969 3.589844 C 10.449219 4.917969 10.128906 6.003906 8.824219 12.820312 C 7.601562 19.195312 7.648438 19.09375 5.277344 20.804688 C 4.058594 21.683594 2.734375 23.671875 2.292969 25.296875 C 1.839844 26.957031 1.921875 29.816406 2.472656 31.566406 C 2.832031 32.710938 3.34375 33.511719 4.550781 34.796875 C 5.941406 36.285156 6.40625 36.597656 8.050781 37.132812 C 11.347656 38.203125 14.507812 37.375 16.917969 34.816406 C 18.664062 32.960938 19.367188 31.066406 19.371094 28.207031 C 19.371094 25.980469 18.992188 24.449219 17.980469 22.898438 C 21.890625 27.753906 23.515625 33.355469 22.886719 39.941406 C 22.304688 45.992188 20.832031 49.648438 17.457031 53.449219 L 16.121094 54.957031 L 17.074219 55.132812 C 17.597656 55.226562 18.136719 55.34375 18.277344 55.390625 C 18.871094 55.605469 23.585938 55.5 24.425781 55.25 C 24.929688 55.097656 25.589844 54.65625 25.886719 54.257812 C 26.386719 53.585938 26.410156 53.339844 26.261719 50.792969 C 26.113281 48.308594 26.148438 47.984375 26.605469 47.300781 C 27.042969 46.636719 27.0625 46.503906 26.738281 46.214844 C 26.203125 45.742188 26.285156 44.8125 26.894531 44.40625 C 27.316406 44.125 27.382812 43.882812 27.261719 43.140625 C 27.175781 42.640625 27.046875 41.808594 26.964844 41.289062 C 26.757812 40.023438 27.253906 39.476562 29.277344 38.757812 C 30.160156 38.441406 30.945312 38.023438 31.019531 37.824219 C 31.167969 37.40625 30.964844 37.03125 28.332031 32.863281 C 26.246094 29.566406 25.371094 27.882812 25.378906 27.15625 C 25.378906 26.894531 25.710938 26.148438 26.121094 25.507812 C 27.0625 24.019531 27.066406 23.144531 26.128906 20.148438 C 24.15625 13.867188 20.484375 8.492188 16.722656 6.378906 L 15.464844 5.671875 C 15.488281 5.09375 15.484375 3.273438 15.519531 3.238281 C 15.957031 2.785156 18.964844 2.359375 22.878906 2.214844 C 30.710938 1.917969 37.5625 3.746094 44.117188 7.863281 C 51.027344 12.203125 55.457031 18.25 57.367188 25.972656 C 58.289062 29.691406 58.339844 35.0625 57.484375 38.457031 C 56.417969 42.699219 54.464844 46.480469 51.601562 49.824219 C 48.402344 53.5625 41.582031 58.179688 36.582031 60 C 30.40625 62.246094 22.691406 62.671875 16.121094 61.132812 C 15.191406 60.917969 13.785156 60.59375 12.996094 60.410156 C 11.597656 60.082031 10.144531 60.21875 10.144531 60.675781 C 10.144531 60.960938 14.855469 62.535156 17.417969 63.101562 C 18.488281 63.335938 20.304688 63.628906 21.449219 63.75 C 33.398438 65.007812 44.496094 61.484375 52.507812 53.890625 C 61.992188 44.90625 64.621094 31.859375 59.25 20.457031 C 56.785156 15.21875 51.359375 9.242188 45.789062 5.648438 C 39.59375 1.644531 32.273438 -0.265625 24.628906 0.03125 Z M 24.628906 0.03125 "/>
</g>
</svg>
