<svg xmlns="http://www.w3.org/2000/svg" xmlns:xlink="http://www.w3.org/1999/xlink" width="64" height="64" viewBox="0 0 64 64" version="1.1">
<defs>
<linearGradient id="linear0" gradientUnits="userSpaceOnUse" x1="0" y1="0" x2="0" y2="1" gradientTransform="matrix(51.203125,0,0,64,6.398438,0)">
<stop offset="0" style="stop-color:#ff6666;stop-opacity:1;"/>
<stop offset="1" style="stop-color:#d90000;stop-opacity:1;"/>
</linearGradient>
</defs>
<g id="surface1">
<path style=" stroke:none;fill-rule:evenodd;fill:url(#linear0);" d="M 47.957031 22.289062 C 44.210938 19.519531 39.570312 17.921875 34.558594 17.921875 C 32.921875 17.921875 31.316406 18.09375 29.800781 18.492188 C 27.914062 15.632812 24.902344 13.597656 21.390625 13.011719 C 23.359375 7.648438 28.515625 3.839844 34.558594 3.839844 C 42.335938 3.839844 48.640625 10.144531 48.640625 17.921875 C 48.640625 19.445312 48.394531 20.910156 47.957031 22.289062 Z M 51 24.914062 C 55.105469 29.019531 57.601562 34.699219 57.601562 40.960938 C 57.601562 53.683594 47.285156 64 34.558594 64 C 21.835938 64 11.519531 53.683594 11.519531 40.960938 C 11.519531 39.320312 11.691406 37.714844 12.09375 36.199219 C 8.648438 33.933594 6.398438 30.027344 6.398438 25.601562 C 6.398438 19.164062 11.148438 13.839844 17.339844 12.957031 C 19.488281 5.472656 26.382812 0 34.558594 0 C 44.457031 0 52.480469 8.023438 52.480469 17.921875 C 52.480469 20.410156 51.972656 22.789062 51 24.914062 Z M 21.175781 22.316406 C 22.585938 21.234375 24.15625 20.375 25.828125 19.710938 C 24.519531 18.125 22.648438 17.054688 20.519531 16.746094 C 20.496094 17.136719 20.480469 17.527344 20.480469 17.921875 C 20.480469 19.457031 20.722656 20.933594 21.175781 22.316406 Z M 18.128906 24.941406 C 16.039062 26.976562 14.410156 29.464844 13.3125 32.226562 C 11.398438 30.652344 10.238281 28.261719 10.238281 25.601562 C 10.238281 21.539062 12.941406 18.113281 16.667969 17.0625 C 16.648438 17.34375 16.640625 17.632812 16.640625 17.921875 C 16.640625 20.421875 17.152344 22.804688 18.128906 24.941406 Z M 49.050781 28.382812 C 51.988281 31.742188 53.761719 36.144531 53.761719 40.960938 C 53.761719 51.5625 45.164062 60.160156 34.558594 60.160156 C 23.957031 60.160156 15.359375 51.5625 15.359375 40.960938 C 15.359375 39.910156 15.445312 38.882812 15.652344 37.894531 C 16.777344 38.222656 17.96875 38.398438 19.199219 38.398438 C 22.726562 38.398438 25.925781 36.972656 28.210938 34.636719 C 30.167969 35.429688 32.316406 35.839844 34.558594 35.839844 C 40.539062 35.839844 45.835938 32.910156 49.050781 28.382812 Z M 46.21875 25.734375 C 43 23.234375 38.953125 21.761719 34.558594 21.761719 C 33.511719 21.761719 32.484375 21.84375 31.496094 22.050781 C 31.824219 23.175781 32 24.367188 32 25.601562 C 32 27.703125 31.492188 29.6875 30.589844 31.4375 C 31.847656 31.800781 33.179688 32 34.558594 32 C 39.433594 32 43.726562 29.523438 46.21875 25.734375 Z M 20.078125 28.402344 C 18.613281 30.066406 17.453125 32.007812 16.660156 34.132812 C 17.445312 34.429688 18.308594 34.558594 19.199219 34.558594 C 21.226562 34.558594 23.097656 33.886719 24.578125 32.738281 C 22.804688 31.609375 21.277344 30.132812 20.078125 28.402344 Z M 22.898438 25.738281 C 24.351562 24.617188 25.980469 23.710938 27.730469 23.058594 C 28.027344 23.84375 28.160156 24.707031 28.160156 25.601562 C 28.160156 27.125 27.78125 28.558594 27.039062 29.78125 C 25.367188 28.765625 23.957031 27.382812 22.898438 25.738281 Z M 22.898438 25.738281 "/>
</g>
</svg>
