<svg xmlns="http://www.w3.org/2000/svg" xmlns:xlink="http://www.w3.org/1999/xlink" width="64" height="64" viewBox="0 0 64 64" version="1.1">
<defs>
<linearGradient id="linear0" gradientUnits="userSpaceOnUse" x1="0" y1="0" x2="0" y2="1" gradientTransform="matrix(63.96875,0,0,64,0.015625,0)">
<stop offset="0" style="stop-color:#ff6666;stop-opacity:1;"/>
<stop offset="1" style="stop-color:#d90000;stop-opacity:1;"/>
</linearGradient>
</defs>
<g id="surface1">
<path style=" stroke:none;fill-rule:nonzero;fill:url(#linear0);" d="M 48.914062 0.03125 C 48.363281 0.0976562 47.847656 0.335938 47.453125 0.722656 L 32 16.179688 L 23.929688 8.105469 C 23.460938 7.632812 22.824219 7.367188 22.160156 7.367188 C 21.496094 7.367188 20.859375 7.632812 20.390625 8.105469 C 19.921875 8.570312 19.65625 9.207031 19.65625 9.871094 C 19.65625 10.535156 19.921875 11.171875 20.390625 11.640625 L 28.464844 19.714844 L 7.394531 19.714844 C 3.320312 19.714844 0.015625 23.019531 0.015625 27.097656 L 0.015625 56.621094 C 0.015625 60.695312 3.320312 64 7.394531 64 L 56.605469 64 C 60.679688 64 63.984375 60.695312 63.984375 56.621094 L 63.984375 27.097656 C 63.984375 23.019531 60.679688 19.714844 56.605469 19.714844 L 35.535156 19.714844 L 50.992188 4.265625 C 51.785156 3.523438 52 2.351562 51.519531 1.378906 C 51.042969 0.402344 49.984375 -0.144531 48.914062 0.03125 Z M 25.847656 24.636719 C 44.164062 24.636719 46.761719 24.683594 46.761719 41.855469 C 46.761719 59.03125 43.984375 59.078125 25.847656 59.078125 C 7.628906 59.078125 4.9375 58.894531 4.9375 41.855469 C 4.9375 24.816406 7.628906 24.636719 25.847656 24.636719 Z M 55.371094 31.863281 C 57.503906 31.863281 59.214844 33.570312 59.214844 35.707031 C 59.214844 37.839844 57.503906 39.550781 55.371094 39.550781 C 54.351562 39.554688 53.371094 39.152344 52.648438 38.433594 C 51.929688 37.707031 51.523438 36.726562 51.527344 35.707031 C 51.527344 33.570312 53.238281 31.859375 55.371094 31.859375 Z M 55.371094 41.703125 C 57.503906 41.703125 59.214844 43.414062 59.214844 45.546875 C 59.214844 47.679688 57.503906 49.390625 55.371094 49.390625 C 54.351562 49.394531 53.371094 48.992188 52.648438 48.273438 C 51.929688 47.546875 51.523438 46.566406 51.527344 45.546875 C 51.527344 43.414062 53.238281 41.703125 55.371094 41.703125 Z M 55.371094 41.703125 "/>
</g>
</svg>
