<svg xmlns="http://www.w3.org/2000/svg" xmlns:xlink="http://www.w3.org/1999/xlink" width="64" height="64" viewBox="0 0 64 64" version="1.1">
<defs> <linearGradient id="linear0" gradientUnits="userSpaceOnUse" x1="0" y1="0" x2="0" y2="1" gradientTransform="matrix(55.992188,0,0,56,4.003906,4)"> <stop offset="0" style="stop-color:#ff6666;stop-opacity:1;"/> <stop offset="1" style="stop-color:#d90000;stop-opacity:1;"/> </linearGradient> </defs>
<g id="surface1">
<path style=" stroke:none;fill-rule:nonzero;fill:url(#linear0);fill-opacity:1;" d="M 18.964844 11.441406 C 14.945312 11.441406 11.703125 14.660156 11.703125 18.664062 L 11.703125 36.503906 C 11.703125 40.328125 14.660156 43.433594 18.433594 43.703125 L 18.433594 51.582031 C 18.4375 52.125 18.796875 52.644531 19.308594 52.832031 C 19.8125 53.019531 20.429688 52.859375 20.785156 52.449219 L 28.3125 43.726562 L 45.144531 43.726562 C 49.167969 43.726562 52.410156 40.503906 52.410156 36.492188 L 52.410156 18.675781 C 52.410156 14.667969 49.167969 11.441406 45.144531 11.441406 L 18.964844 11.441406 M 19.628906 20.777344 L 47.285156 20.777344 C 48.042969 20.777344 48.648438 21.386719 48.648438 22.140625 C 48.648438 22.894531 48.042969 23.492188 47.285156 23.492188 L 19.628906 23.492188 C 18.875 23.492188 18.273438 22.894531 18.273438 22.140625 C 18.273438 21.386719 18.875 20.777344 19.628906 20.777344 M 19.628906 26.699219 L 47.292969 26.699219 C 48.046875 26.699219 48.648438 27.308594 48.648438 28.0625 C 48.648438 28.808594 48.046875 29.414062 47.292969 29.414062 L 19.628906 29.414062 C 18.875 29.414062 18.273438 28.808594 18.273438 28.0625 C 18.273438 27.308594 18.875 26.699219 19.628906 26.699219 M 19.628906 32.621094 L 47.292969 32.621094 C 48.046875 32.621094 48.648438 33.226562 48.648438 33.976562 C 48.648438 34.730469 48.046875 35.328125 47.292969 35.328125 L 19.628906 35.328125 C 18.875 35.328125 18.273438 34.730469 18.273438 33.976562 C 18.273438 33.226562 18.875 32.621094 19.628906 32.621094 "/>
</g>
</svg>
