<svg xmlns="http://www.w3.org/2000/svg" xmlns:xlink="http://www.w3.org/1999/xlink" width="64" height="64" viewBox="0 0 64 64" version="1.1">
<defs>
<linearGradient id="linear0" gradientUnits="userSpaceOnUse" x1="0" y1="0" x2="0" y2="1" gradientTransform="matrix(64,0,0,57.484375,0,3.257812)">
<stop offset="0" style="stop-color:#ff6666;stop-opacity:1;"/>
<stop offset="1" style="stop-color:#d90000;stop-opacity:1;"/>
</linearGradient>
</defs>
<g id="surface1">
<path style=" stroke:none;fill-rule:nonzero;fill:url(#linear0);" d="M 59.261719 3.265625 C 58.472656 3.320312 57.695312 3.503906 56.964844 3.8125 L 56.957031 3.8125 C 56.253906 4.089844 52.914062 5.492188 47.84375 7.621094 L 29.667969 15.277344 C 16.628906 20.765625 3.808594 26.171875 3.808594 26.171875 L 3.960938 26.113281 C 3.960938 26.113281 3.074219 26.402344 2.152344 27.035156 C 1.585938 27.398438 1.09375 27.875 0.710938 28.433594 C 0.257812 29.097656 -0.109375 30.117188 0.0273438 31.164062 C 0.253906 32.945312 1.402344 34.007812 2.226562 34.597656 C 3.066406 35.191406 3.863281 35.472656 3.863281 35.472656 L 3.882812 35.472656 L 15.90625 39.519531 C 16.445312 41.253906 19.570312 51.523438 20.320312 53.890625 C 20.765625 55.304688 21.195312 56.1875 21.734375 56.863281 C 21.996094 57.207031 22.300781 57.496094 22.667969 57.726562 C 22.859375 57.835938 23.058594 57.925781 23.273438 57.988281 L 23.152344 57.957031 C 23.1875 57.96875 23.214844 57.996094 23.242188 58.007812 C 23.34375 58.035156 23.40625 58.042969 23.535156 58.0625 C 25.4375 58.640625 26.96875 57.460938 26.96875 57.460938 L 27.050781 57.386719 L 34.152344 50.929688 L 46.046875 60.050781 L 46.320312 60.167969 C 48.796875 61.257812 51.308594 60.652344 52.636719 59.585938 C 53.972656 58.507812 54.492188 57.132812 54.492188 57.132812 L 54.578125 56.90625 L 63.773438 9.8125 C 64.03125 8.648438 64.101562 7.558594 63.8125 6.503906 C 63.515625 5.4375 62.828125 4.515625 61.886719 3.929688 C 61.101562 3.449219 60.183594 3.214844 59.261719 3.265625 Z M 59.011719 8.308594 C 59.003906 8.464844 59.03125 8.449219 58.964844 8.742188 L 58.964844 8.773438 L 49.855469 55.378906 C 49.816406 55.449219 49.753906 55.59375 49.566406 55.734375 C 49.375 55.886719 49.222656 55.984375 48.425781 55.667969 L 33.871094 44.511719 L 25.085938 52.523438 L 26.929688 40.730469 L 50.703125 18.570312 C 51.683594 17.660156 51.355469 17.46875 51.355469 17.46875 C 51.425781 16.351562 49.875 17.140625 49.875 17.140625 L 19.894531 35.710938 L 19.886719 35.664062 L 5.519531 30.824219 L 5.519531 30.816406 L 5.484375 30.808594 C 5.507812 30.800781 5.53125 30.792969 5.554688 30.78125 L 5.636719 30.738281 L 5.710938 30.710938 C 5.710938 30.710938 18.539062 25.304688 31.585938 19.816406 C 38.113281 17.0625 44.691406 14.296875 49.753906 12.15625 C 52.753906 10.894531 55.757812 9.640625 58.765625 8.390625 C 58.964844 8.3125 58.867188 8.3125 59.011719 8.3125 Z M 59.011719 8.308594 "/>
</g>
</svg>
