<svg xmlns="http://www.w3.org/2000/svg" xmlns:xlink="http://www.w3.org/1999/xlink" width="64" height="64" viewBox="0 0 64 64" version="1.1">
<defs>
<linearGradient id="linear0" gradientUnits="userSpaceOnUse" x1="0" y1="0" x2="0" y2="1" gradientTransform="matrix(64,0,0,56,0,4)">
<stop offset="0" style="stop-color:#ff6666;stop-opacity:1;"/>
<stop offset="1" style="stop-color:#d90000;stop-opacity:1;"/>
</linearGradient>
<linearGradient id="linear1" gradientUnits="userSpaceOnUse" x1="0" y1="0" x2="0" y2="1" gradientTransform="matrix(12.03125,0,0,16.023438,10.714844,14.480469)">
<stop offset="0" style="stop-color:#ff6666;stop-opacity:1;"/>
<stop offset="1" style="stop-color:#d90000;stop-opacity:1;"/>
</linearGradient>
<linearGradient id="linear2" gradientUnits="userSpaceOnUse" x1="0" y1="0" x2="0" y2="1" gradientTransform="matrix(12,0,0,4,24.773438,26.503906)">
<stop offset="0" style="stop-color:#ff6666;stop-opacity:1;"/>
<stop offset="1" style="stop-color:#d90000;stop-opacity:1;"/>
</linearGradient>
</defs>
<g id="surface1">
<path style=" stroke:none;fill-rule:nonzero;fill:url(#linear0);" d="M 15.976562 4 C 10.945312 4.058594 7.261719 3.878906 4.25 5.539062 C 2.746094 6.371094 1.558594 7.777344 0.898438 9.53125 C 0.238281 11.285156 0 13.371094 0 16 L 0 48 C 0 50.628906 0.238281 52.714844 0.898438 54.46875 C 1.558594 56.222656 2.746094 57.628906 4.25 58.460938 C 7.261719 60.121094 10.945312 59.941406 15.976562 60 L 48.023438 60 C 53.058594 59.941406 56.738281 60.121094 59.75 58.460938 C 61.257812 57.628906 62.445312 56.222656 63.101562 54.46875 C 63.761719 52.714844 64 50.628906 64 48 L 64 16 C 64 13.371094 63.761719 11.285156 63.101562 9.53125 C 62.441406 7.777344 61.253906 6.371094 59.75 5.539062 C 56.738281 3.878906 53.054688 4.058594 48.023438 4 Z M 16 8 L 48 8 C 53.035156 8.058594 56.347656 8.238281 57.8125 9.046875 C 58.546875 9.453125 58.96875 9.898438 59.359375 10.9375 C 59.75 11.976562 60 13.628906 60 16 L 60 48 C 60 50.371094 59.75 52.023438 59.359375 53.0625 C 58.96875 54.101562 58.546875 54.546875 57.8125 54.953125 C 56.347656 55.761719 53.035156 55.941406 48 56 L 16 56 C 10.964844 55.941406 7.644531 55.761719 6.179688 54.953125 C 5.445312 54.546875 5.03125 54.101562 4.640625 53.0625 C 4.25 52.023438 4 50.371094 4 48 L 4 16 C 4 13.628906 4.25 11.976562 4.640625 10.9375 C 5.03125 9.898438 5.445312 9.453125 6.179688 9.046875 C 7.644531 8.238281 10.964844 8.058594 16 8 Z M 16 8 "/>
<path style=" stroke:none;fill-rule:nonzero;fill:url(#linear1);" d="M 12.632812 14.484375 C 11.78125 14.519531 11.046875 15.089844 10.800781 15.902344 C 10.554688 16.71875 10.851562 17.601562 11.539062 18.101562 L 17.40625 22.5 L 11.539062 26.898438 C 10.65625 27.5625 10.476562 28.820312 11.140625 29.703125 C 11.804688 30.585938 13.0625 30.765625 13.945312 30.101562 L 21.945312 24.101562 C 22.449219 23.722656 22.746094 23.128906 22.746094 22.5 C 22.746094 21.871094 22.449219 21.277344 21.945312 20.898438 L 13.945312 14.898438 C 13.570312 14.609375 13.105469 14.460938 12.632812 14.484375 Z M 12.632812 14.484375 "/>
<path style=" stroke:none;fill-rule:nonzero;fill:url(#linear2);" d="M 26.253906 26.503906 L 35.289062 26.503906 C 36.109375 26.503906 36.773438 27.164062 36.773438 27.988281 L 36.773438 29.019531 C 36.773438 29.84375 36.109375 30.503906 35.289062 30.503906 L 26.253906 30.503906 C 25.433594 30.503906 24.773438 29.84375 24.773438 29.019531 L 24.773438 27.988281 C 24.773438 27.164062 25.433594 26.503906 26.253906 26.503906 Z M 26.253906 26.503906 "/>
</g>
</svg>
