<svg xmlns="http://www.w3.org/2000/svg" xmlns:xlink="http://www.w3.org/1999/xlink" width="64" height="64" viewBox="0 0 64 64" version="1.1">
<defs> <linearGradient id="linear0" gradientUnits="userSpaceOnUse" x1="0" y1="0" x2="0" y2="1" gradientTransform="matrix(55.992188,0,0,56,4.003906,4)"> <stop offset="0" style="stop-color:#ff6666;stop-opacity:1;"/> <stop offset="1" style="stop-color:#d90000;stop-opacity:1;"/> </linearGradient> </defs>
<g id="surface1">
<path style=" stroke:none;fill-rule:nonzero;fill:url(#linear0);fill-opacity:1;" d="M 32.3125 38.851562 C 32.3125 41.125 31.460938 43.007812 29.761719 44.503906 C 28.082031 45.996094 25.671875 46.933594 22.542969 47.3125 L 22.542969 52.984375 L 19.265625 52.984375 L 19.265625 47.535156 C 17.371094 47.503906 15.546875 47.347656 13.796875 47.0625 C 12.066406 46.765625 10.636719 46.355469 9.5 45.84375 L 9.5 41.664062 C 10.75 42.246094 12.277344 42.75 14.070312 43.179688 C 15.886719 43.597656 17.621094 43.816406 19.265625 43.851562 L 19.265625 33.203125 C 15.855469 32.128906 13.441406 30.867188 12.027344 29.425781 C 10.605469 27.960938 9.902344 26.097656 9.902344 23.824219 C 9.902344 21.636719 10.742188 19.839844 12.421875 18.425781 C 14.105469 17.015625 16.386719 16.152344 19.265625 15.839844 L 19.265625 11.363281 L 22.542969 11.363281 L 22.542969 15.789062 C 25.707031 15.875 28.710938 16.503906 31.5625 17.679688 L 30.160156 21.191406 C 27.582031 20.179688 25.042969 19.578125 22.542969 19.398438 L 22.542969 29.894531 C 25.207031 30.792969 27.1875 31.636719 28.488281 32.433594 C 29.800781 33.230469 30.773438 34.140625 31.386719 35.171875 C 32.003906 36.183594 32.3125 37.410156 32.3125 38.851562 M 27.761719 39.175781 C 27.761719 37.980469 27.371094 37.035156 26.585938 36.339844 C 25.808594 35.628906 24.457031 34.9375 22.542969 34.277344 L 22.542969 43.601562 C 26.023438 43.070312 27.761719 41.59375 27.761719 39.175781 M 14.472656 23.773438 C 14.472656 24.984375 14.832031 25.964844 15.546875 26.710938 C 16.261719 27.457031 17.507812 28.148438 19.265625 28.773438 L 19.265625 19.492188 C 17.707031 19.757812 16.511719 20.269531 15.695312 21.007812 C 14.882812 21.757812 14.472656 22.679688 14.472656 23.773438 "/>
<path style=" stroke:none;fill-rule:nonzero;fill:url(#linear0);fill-opacity:1;" d="M 41.660156 26.433594 L 41.660156 30.09375 L 36.152344 30.09375 L 36.152344 33.75 L 41.660156 33.75 L 41.660156 44.726562 L 36.152344 44.726562 L 36.152344 48.386719 L 41.660156 48.386719 L 41.660156 52.046875 L 45.332031 52.046875 L 45.332031 48.386719 L 52.683594 48.386719 L 52.683594 52.046875 L 56.355469 52.046875 L 56.355469 48.386719 L 61.863281 48.386719 L 61.863281 44.726562 L 56.355469 44.726562 L 56.355469 33.75 L 61.863281 33.75 L 61.863281 30.09375 L 56.355469 30.09375 L 56.355469 26.433594 L 52.683594 26.433594 L 52.683594 30.09375 L 45.332031 30.09375 L 45.332031 26.433594 Z M 45.332031 33.75 L 52.683594 33.75 L 52.683594 44.726562 L 45.332031 44.726562 Z M 45.332031 33.75 "/>
</g>
</svg>
