<svg xmlns="http://www.w3.org/2000/svg" xmlns:xlink="http://www.w3.org/1999/xlink" width="64" height="64" viewBox="0 0 64 64" version="1.1">
<defs>
<linearGradient id="linear0" gradientUnits="userSpaceOnUse" x1="0" y1="0" x2="0" y2="1" gradientTransform="matrix(51.203125,0,0,64,6.398438,0)">
<stop offset="0" style="stop-color:#ff6666;stop-opacity:1;"/>
<stop offset="1" style="stop-color:#d90000;stop-opacity:1;"/>
</linearGradient>
</defs>
<g id="surface1">
<path style=" stroke:none;fill-rule:nonzero;fill:url(#linear0);" d="M 32 0 C 26.703125 0.015625 22.414062 4.304688 22.398438 9.601562 C 17.105469 9.617188 12.816406 13.902344 12.800781 19.199219 C 12.800781 20.789062 13.210938 22.273438 13.898438 23.601562 C 9.347656 25.667969 6.414062 30.199219 6.398438 35.199219 C 6.398438 42.238281 12.160156 48 19.199219 48 L 28.300781 48 L 25.601562 64 L 38.398438 64 L 35.699219 48 L 44.800781 48 C 51.839844 48 57.601562 42.238281 57.601562 35.199219 C 57.601562 30.046875 54.511719 25.625 50.101562 23.601562 C 50.789062 22.277344 51.199219 20.789062 51.199219 19.199219 C 51.199219 13.929688 46.871094 9.601562 41.601562 9.601562 C 41.601562 4.328125 37.273438 0 32 0 Z M 32 0 "/>
</g>
</svg>
