<svg xmlns="http://www.w3.org/2000/svg" xmlns:xlink="http://www.w3.org/1999/xlink" width="64" height="64" viewBox="0 0 64 64" version="1.1">
<defs>
<linearGradient id="linear0" gradientUnits="userSpaceOnUse" x1="0" y1="0" x2="0" y2="1" gradientTransform="matrix(74.65625,0,0,74.666667,5.338541,5.333333)">
<stop offset="0" style="stop-color:#ff6666;stop-opacity:1;"/>
<stop offset="1" style="stop-color:#d90000;stop-opacity:1;"/>
</linearGradient>
</defs>
<g id="surface1">
<path style=" stroke:none;fill-rule:nonzero;fill:url(#linear0);" d="M 11.539062 8.964844 C 9.242188 8.964844 7.105469 9.644531 5.640625 11.152344 C 4.175781 12.660156 3.578125 14.757812 3.578125 16.949219 L 3.527344 46.230469 C 3.527344 46.234375 3.527344 46.234375 3.527344 46.234375 C 3.527344 48.402344 4.144531 50.519531 5.496094 52.1875 C 6.847656 53.855469 8.992188 54.960938 11.417969 55.035156 C 12.738281 55.074219 13.84375 54.03125 13.886719 52.707031 C 13.925781 51.382812 12.882812 50.277344 11.558594 50.238281 C 10.394531 50.203125 9.757812 49.816406 9.226562 49.164062 C 8.695312 48.511719 8.328125 47.484375 8.328125 46.238281 L 8.328125 46.234375 L 8.378906 16.953125 C 8.378906 16.953125 8.378906 16.953125 8.378906 16.949219 C 8.378906 15.585938 8.699219 14.890625 9.082031 14.496094 C 9.46875 14.097656 10.113281 13.761719 11.539062 13.761719 L 52.480469 13.761719 C 53.609375 13.761719 54.347656 14.089844 54.832031 14.558594 C 55.320312 15.023438 55.671875 15.707031 55.671875 16.949219 L 55.671875 46.234375 C 55.671875 47.769531 55.308594 48.800781 54.867188 49.347656 C 54.425781 49.894531 53.886719 50.238281 52.480469 50.238281 L 18.925781 50.238281 C 17.601562 50.238281 16.527344 51.308594 16.527344 52.636719 C 16.527344 53.960938 17.601562 55.035156 18.925781 55.035156 L 52.480469 55.035156 C 54.960938 55.035156 57.222656 54.070312 58.601562 52.363281 C 59.980469 50.65625 60.472656 48.488281 60.472656 46.234375 L 60.472656 16.949219 C 60.472656 14.652344 59.65625 12.539062 58.164062 11.101562 C 56.671875 9.664062 54.613281 8.964844 52.480469 8.964844 Z M 37.847656 20.261719 C 37.339844 20.257812 36.84375 20.433594 36.457031 20.761719 C 35.554688 21.519531 35.4375 22.863281 36.191406 23.765625 L 41.050781 29.5625 L 36.191406 35.359375 C 35.4375 36.261719 35.554688 37.605469 36.457031 38.363281 C 37.359375 39.121094 38.703125 39.003906 39.460938 38.097656 L 43.835938 32.882812 L 48.210938 38.097656 C 48.96875 39.003906 50.3125 39.121094 51.214844 38.363281 C 52.121094 37.609375 52.238281 36.261719 51.480469 35.359375 L 46.621094 29.5625 L 51.480469 23.765625 C 52.238281 22.863281 52.121094 21.515625 51.214844 20.761719 C 50.8125 20.421875 50.300781 20.246094 49.777344 20.261719 C 49.171875 20.28125 48.601562 20.558594 48.210938 21.023438 L 43.835938 26.242188 L 39.460938 21.023438 C 39.058594 20.546875 38.46875 20.265625 37.847656 20.261719 Z M 13.542969 20.488281 C 12.363281 20.488281 11.410156 21.441406 11.410156 22.621094 C 11.40625 23.796875 12.363281 24.753906 13.542969 24.753906 L 17.839844 24.753906 L 17.839844 36.957031 C 17.839844 38.132812 18.792969 39.089844 19.972656 39.089844 C 21.148438 39.089844 22.105469 38.132812 22.105469 36.957031 L 22.105469 24.753906 L 26.570312 24.753906 C 27.75 24.753906 28.703125 23.796875 28.703125 22.621094 C 28.703125 21.441406 27.75 20.488281 26.570312 20.488281 Z M 26.472656 27.492188 C 25.296875 27.492188 24.339844 28.449219 24.339844 29.625 L 24.339844 43.957031 C 24.339844 45.136719 25.296875 46.09375 26.472656 46.09375 L 35.21875 46.09375 C 36.398438 46.09375 37.351562 45.136719 37.351562 43.957031 C 37.351562 42.78125 36.398438 41.824219 35.21875 41.824219 L 28.605469 41.824219 L 28.605469 38.875 L 32.988281 38.875 C 34.167969 38.875 35.121094 37.921875 35.121094 36.742188 C 35.121094 35.5625 34.167969 34.609375 32.988281 34.609375 L 28.605469 34.609375 L 28.605469 31.757812 L 35.21875 31.757812 C 36.398438 31.757812 37.355469 30.804688 37.355469 29.625 C 37.355469 28.445312 36.398438 27.492188 35.21875 27.492188 Z M 26.472656 27.492188 "/>
</g>
</svg>
