<svg xmlns="http://www.w3.org/2000/svg" xmlns:xlink="http://www.w3.org/1999/xlink" width="64" height="64" viewBox="0 0 64 64" version="1.1">
<defs> <linearGradient id="linear0" gradientUnits="userSpaceOnUse" x1="0" y1="0" x2="0" y2="1" gradientTransform="matrix(55.992188,0,0,56,4.003906,4)"> <stop offset="0" style="stop-color:#ff6666;stop-opacity:1;"/> <stop offset="1" style="stop-color:#d90000;stop-opacity:1;"/> </linearGradient> </defs>
<g id="surface1">
<path style="fill-rule:nonzero;fill:url(#linear0);fill-opacity:1;stroke-width:4.473;stroke-linecap:butt;stroke-linejoin:miter;stroke:url(#linear0);stroke-opacity:1;stroke-miterlimit:4;" d="M 256.659005 164.688377 C 255.691727 165.098489 255.154351 166.17773 255.412292 167.213802 L 256.50854 171.250165 C 256.809471 172.372576 257.970204 173.063291 259.087948 172.739518 C 263.666397 171.530768 266.589726 170.883223 268.696242 170.969562 C 270.759769 171.055902 272.178443 171.725031 274.49991 173.624496 C 274.521405 173.624496 274.521405 173.624496 274.521405 173.646081 L 318.285359 211.311609 L 301.132297 260.179663 C 297.069729 271.554868 287.310969 274.252972 284.194185 275.073195 C 283.054946 275.375383 282.367104 276.540964 282.68953 277.68496 L 283.742788 281.721323 C 283.914749 282.282529 284.323155 282.77898 284.839037 283.059582 C 285.376413 283.3186 285.978275 283.383355 286.537147 283.145922 C 288.385723 282.498377 291.094101 281.742908 293.716499 281.030608 C 294.619292 290.679027 294.662282 298.190548 291.932408 303.781019 C 288.966089 309.91111 282.711025 314.46551 269.470065 318.027006 L 246.276889 324.221852 C 244.664759 324.653549 243.43954 324.934152 242.687213 324.998906 C 241.91339 325.063661 241.676944 324.977322 241.633954 324.934152 C 241.526479 324.869397 241.376014 324.783058 241.096578 324.135513 C 240.817142 323.509553 240.494716 322.430312 240.1293 321.005713 L 228.156548 276.368285 L 241.848905 272.720449 C 249.458158 270.648305 253.28428 271.101587 255.756213 273.087391 C 258.228145 275.09478 259.969245 279.476501 261.839316 286.469985 C 262.118752 287.592397 263.322476 288.283111 264.440219 287.959339 L 267.127102 287.247039 C 268.244846 286.944852 268.932688 285.779271 268.631757 284.635275 L 257.002926 241.185013 C 256.6805 240.062602 255.541262 239.371887 254.380528 239.69566 L 251.693645 240.407959 C 250.554407 240.710147 249.866565 241.875727 250.188991 242.998139 C 252.037566 249.883699 252.725408 254.502853 251.564675 257.416805 C 250.403941 260.309172 247.308652 262.532409 239.656408 264.561383 L 225.964051 268.252389 L 215.431469 228.903245 C 215.066053 227.500231 214.808112 226.464159 214.743627 225.816614 C 214.679142 225.1259 214.743627 224.974806 214.786617 224.910051 C 214.808112 224.845297 214.958578 224.651033 215.68941 224.305676 C 216.377252 224.003489 217.559481 223.593377 219.193106 223.16168 L 242.020865 217.031589 C 254.659964 213.664355 261.688851 214.376655 266.718696 218.06766 C 271.748542 221.758666 275.209247 229.054339 279.3363 239.760414 C 279.744706 240.753316 280.840954 241.314522 281.872718 240.990749 L 284.882027 240.213696 C 285.462394 240.062602 285.978275 239.65249 286.214721 239.134454 C 286.494157 238.594833 286.537147 237.968873 286.343691 237.407668 L 272.436384 201.533681 C 272.027977 200.540779 270.931729 199.957988 269.878471 200.260176 L 199.030734 219.211656 L 187.272933 185.604077 C 186.929012 184.524835 185.811268 183.942045 184.71502 184.222648 L 88.288154 210.059689 C 87.213401 210.340291 86.525559 211.397948 86.74051 212.498774 L 93.812386 250.185887 C 93.941357 250.790262 94.285278 251.286713 94.779664 251.588901 C 95.274051 251.934258 95.897408 251.999013 96.477775 251.847919 L 99.465589 251.070865 C 100.540342 250.790262 101.228184 249.711021 100.991738 248.631779 C 98.41233 234.55847 97.595518 226.464159 100.002965 221.629157 C 101.185194 219.211656 103.16274 217.333776 106.55896 215.520651 C 109.976676 213.750694 114.791571 212.131832 121.1971 210.405046 L 130.096058 208.00913 C 131.321276 207.879621 131.149316 207.901206 131.428752 208.311317 C 131.708187 208.721429 132.159584 209.994934 132.696961 211.937569 L 157.029375 302.852871 C 157.437781 304.32064 157.695722 305.464636 157.695722 306.15535 C 157.695722 306.867649 157.631237 307.126667 157.179841 307.623119 C 156.277048 308.594436 153.031293 310.148544 146.066891 312.026424 L 141.337977 313.321514 C 140.220234 313.602116 139.532391 314.789282 139.833322 315.911693 L 140.929571 319.948056 C 141.058541 320.509262 141.445452 320.962543 141.939839 321.243146 C 142.434225 321.523749 143.036087 321.588503 143.594959 321.437409 C 151.569628 319.127833 159.802239 316.753501 167.991859 314.551849 C 176.116994 312.371781 184.521564 310.278053 192.560719 308.270663 C 193.119591 308.162739 193.635472 307.817382 193.914908 307.320931 C 194.194344 306.802895 194.280324 306.220105 194.129859 305.680484 L 193.055105 301.665706 C 192.754175 300.500125 191.593441 299.85258 190.432707 300.133183 L 185.789773 301.406688 C 178.932847 303.219813 175.407656 303.478831 174.160943 303.068719 C 173.559081 302.874456 173.365625 302.723362 173.021704 302.097402 C 172.656288 301.471442 172.312367 300.349031 171.903961 298.838093 L 147.571546 207.944375 C 147.055665 206.08808 146.819219 204.814575 146.840714 204.274954 C 146.883704 203.778503 146.840714 203.756918 147.722012 203.282052 L 156.491998 200.907721 C 162.790053 199.245689 167.647938 198.274372 171.474059 198.123278 C 175.257191 197.972184 177.901084 198.598144 180.158066 200.022743 C 184.349604 202.785601 187.595359 209.476898 191.851382 221.154291 L 185.316882 222.902662 C 184.156148 223.226435 183.489801 224.370431 183.812227 225.492842 L 185.037446 230.090411 C 185.338377 231.255991 186.49911 231.903536 187.616854 231.622933 C 193.570987 230.025656 197.010198 229.334941 198.256911 229.572375 C 198.880268 229.680299 199.030734 229.788223 199.43914 230.371013 C 199.847546 230.975389 200.320438 232.119385 200.771834 233.93251 L 224.932288 324.027589 C 225.40518 325.81913 225.62013 327.11422 225.555645 327.848104 C 225.49116 328.538818 225.44817 328.711497 224.932288 329.121609 C 223.96501 329.941832 220.633275 331.064243 214.722132 332.618351 C 213.604388 332.942124 212.916546 334.08612 213.217477 335.2517 L 214.270735 339.309648 C 214.593161 340.43206 215.77539 341.101189 216.914629 340.820586 L 303.81918 317.530555 C 304.807953 317.249953 305.495795 316.25705 305.34533 315.177809 L 300.960336 278.958465 C 305.538785 277.749714 312.976078 275.785495 316.866685 275.030026 C 317.468547 274.943686 317.962933 274.598329 318.285359 274.101878 C 318.58629 273.583842 318.693765 272.979467 318.564795 272.396677 L 317.468547 268.381898 C 317.189111 267.302657 316.157348 266.655112 315.061099 266.806206 C 312.847108 267.194733 311.557404 266.741451 310.719096 266.158661 C 309.837798 265.532701 309.321917 264.626138 309.063976 263.654821 C 308.591084 261.992789 308.91351 261.345244 309.429392 259.94223 C 309.429392 259.94223 309.429392 259.89906 309.429392 259.89906 L 324.690889 216.686231 L 362.823136 249.559927 C 362.823136 249.603096 362.844631 249.603096 362.844631 249.624681 C 363.682938 250.315396 364.069849 250.747092 364.177325 250.876601 C 364.2848 251.027695 364.177325 250.811847 364.24181 251.027695 C 364.177325 250.790262 364.585731 253.250933 359.4914 254.934549 C 358.416647 255.323076 357.814785 256.445487 358.115716 257.524729 L 359.19047 261.561092 C 359.340935 262.122298 359.727846 262.597164 360.243728 262.834597 C 360.759609 263.1152 361.382966 263.179954 361.898848 263.007276 C 367.057664 261.280489 375.182799 259.100422 380.728525 257.632653 C 385.027539 256.467072 393.432109 254.22225 397.344211 253.509951 C 397.946073 253.380442 398.44046 253.035084 398.741391 252.560218 C 399.063817 252.063767 399.149797 251.437807 399.020827 250.876601 L 397.946073 246.840238 C 397.623647 245.717827 396.462914 245.027113 395.34517 245.350885 C 390.035889 246.753899 387.02658 247.271935 385.178004 247.120841 C 383.350924 246.969747 382.27617 246.257448 380.083674 244.444322 L 380.062178 244.444322 L 330.08615 201.533681 L 344.72429 160.587259 C 344.72429 160.587259 344.72429 160.565674 344.72429 160.565674 C 346.271935 156.378217 348.679382 148.931451 361.597917 145.283615 C 362.71566 144.959842 363.382007 143.815847 363.059581 142.693435 L 361.963333 138.657072 C 361.812868 138.095867 361.447451 137.599416 360.910075 137.340398 C 360.372698 137.059795 359.749341 137.03821 359.211965 137.210889 C 355.665279 138.505978 349.281244 140.21118 345.283162 141.290421 C 339.780425 142.75819 332.944994 144.5929 328.839437 145.348369 C 328.280565 145.477878 327.786178 145.823236 327.442257 146.319687 C 327.119831 146.816138 327.033851 147.398928 327.184316 147.960134 L 328.280565 151.996497 C 328.560001 153.054154 329.591764 153.744868 330.688012 153.57219 C 333.009479 153.162078 334.256193 153.593774 335.073006 154.19815 C 335.911313 154.802525 336.427195 155.752257 336.685136 156.788329 C 337.093542 158.212928 336.814106 159.119491 336.083274 161.040541 C 336.083274 161.040541 336.083274 161.062125 336.083274 161.062125 L 323.616136 196.029549 L 291.588487 168.508892 C 290.87915 167.839762 290.427754 167.364896 290.277288 167.149047 C 290.083833 166.976369 290.191308 167.084293 290.191308 167.062708 C 290.212803 167.213802 290.062338 164.602037 294.877232 163.155854 C 295.973481 162.853666 296.618333 161.688085 296.317402 160.565674 L 295.242649 156.529311 C 295.092183 155.968106 294.683777 155.493239 294.18939 155.212637 C 293.652014 154.975203 293.071647 154.910449 292.49128 155.083128 C 287.375454 156.809914 279.185834 158.989982 273.683098 160.479335 C 269.384084 161.623331 260.958019 163.868153 257.067412 164.602037 C 256.938441 164.623622 256.787976 164.666792 256.659005 164.688377 Z M 256.659005 164.688377 " transform="matrix(0.181728,0,0,0.180972,-14.466283,-14.155549)"/>
</g>
</svg>
