<svg xmlns="http://www.w3.org/2000/svg" xmlns:xlink="http://www.w3.org/1999/xlink" width="64" height="64" viewBox="0 0 64 64" version="1.1">
<defs>
<linearGradient id="linear0" gradientUnits="userSpaceOnUse" x1="0" y1="0" x2="0" y2="1" gradientTransform="matrix(64,0,0,32.003906,0,15.996094)">
<stop offset="0" style="stop-color:#ff6666;stop-opacity:1;"/>
<stop offset="1" style="stop-color:#d90000;stop-opacity:1;"/>
</linearGradient>
</defs>
<g id="surface1">
<path style=" stroke:none;fill-rule:nonzero;fill:url(#linear0);" d="M 38.585938 47.972656 C 38.5625 47.953125 38.550781 47.78125 38.550781 47.578125 C 38.550781 47.011719 38.460938 46.679688 38.070312 45.773438 C 37.941406 45.472656 37.730469 44.949219 37.605469 44.609375 C 37.28125 43.757812 36.648438 42.320312 36.492188 42.09375 C 36.425781 41.988281 36.316406 41.785156 36.257812 41.640625 C 36.195312 41.496094 36.109375 41.304688 36.058594 41.214844 C 35.769531 40.636719 34.929688 38.480469 34.515625 37.246094 C 34.390625 36.882812 34.171875 36.300781 34.023438 35.953125 C 33.875 35.605469 33.648438 34.996094 33.519531 34.601562 C 33.386719 34.203125 33.125 33.496094 32.929688 33.023438 C 32.5 31.976562 31.875 30.089844 31.769531 29.511719 C 31.726562 29.277344 31.671875 28.992188 31.644531 28.882812 C 31.621094 28.777344 31.601562 28.527344 31.601562 28.339844 C 31.601562 27.996094 31.703125 27.210938 31.765625 27.117188 C 31.828125 27.011719 31.921875 27.074219 32.109375 27.339844 C 32.613281 28.0625 32.96875 28.195312 34.714844 28.300781 C 35.6875 28.359375 36.214844 28.445312 36.503906 28.578125 C 36.984375 28.816406 37.367188 29.386719 37.851562 30.589844 C 38.660156 32.585938 38.925781 33.277344 39.371094 34.59375 C 39.5625 35.148438 39.691406 35.453125 39.734375 35.460938 C 39.914062 35.496094 40.867188 34.007812 41.316406 33 C 41.875 31.730469 42.839844 29.191406 43.042969 28.445312 C 43.203125 27.859375 43.738281 27.050781 44.628906 26.058594 C 44.890625 25.769531 45.195312 25.457031 45.308594 25.371094 C 45.757812 25.027344 46.890625 24.871094 47.664062 25.050781 C 47.832031 25.089844 48.34375 25.136719 48.804688 25.152344 C 49.398438 25.171875 49.652344 25.199219 49.6875 25.242188 C 49.753906 25.320312 49.644531 25.71875 49.429688 26.1875 C 49.34375 26.371094 49.226562 26.683594 49.167969 26.875 C 49.113281 27.070312 49.046875 27.253906 49.027344 27.28125 C 49.007812 27.304688 48.925781 27.527344 48.839844 27.777344 C 48.757812 28.023438 48.671875 28.253906 48.652344 28.277344 C 48.523438 28.4375 47.660156 31.042969 47.378906 32.117188 C 47.28125 32.511719 47.140625 33.046875 47.070312 33.308594 C 47.003906 33.570312 46.863281 34.085938 46.761719 34.449219 C 46.660156 34.816406 46.558594 35.1875 46.539062 35.28125 C 46.519531 35.375 46.449219 35.554688 46.378906 35.683594 C 46.011719 36.375 45.324219 37.949219 44.546875 39.882812 C 43.714844 41.96875 43.554688 42.328125 43.195312 42.96875 C 42.855469 43.570312 41.757812 45.289062 41.613281 45.433594 C 41.566406 45.476562 41.472656 45.609375 41.394531 45.722656 C 41.152344 46.105469 40.59375 46.785156 40.261719 47.105469 C 39.875 47.476562 39.640625 47.636719 39.148438 47.84375 C 38.785156 48 38.644531 48.03125 38.585938 47.972656 Z M 31.671875 45.847656 C 31.636719 45.820312 31.558594 45.679688 31.503906 45.535156 C 31.449219 45.390625 31.320312 45.140625 31.21875 44.976562 C 31.121094 44.816406 31.035156 44.664062 31.035156 44.644531 C 31.035156 44.621094 30.96875 44.5 30.886719 44.367188 C 30.808594 44.238281 30.644531 43.910156 30.53125 43.636719 C 29.972656 42.300781 29.5625 41.382812 29.335938 40.933594 L 29.089844 40.433594 L 27.910156 40.414062 C 27.269531 40.40625 26.609375 40.414062 26.445312 40.433594 C 26 40.476562 25.953125 40.539062 25.726562 41.355469 C 25.621094 41.734375 25.507812 42.152344 25.46875 42.285156 C 25.332031 42.769531 24.878906 43.992188 24.757812 44.203125 C 24.601562 44.476562 24.199219 44.875 23.914062 45.042969 C 23.625 45.214844 23.140625 45.34375 22.789062 45.34375 C 22.628906 45.34375 22.179688 45.28125 21.792969 45.203125 C 21.363281 45.117188 20.941406 45.058594 20.710938 45.058594 C 20.339844 45.058594 20.335938 45.058594 20.050781 44.84375 C 19.753906 44.617188 19.714844 44.542969 19.839844 44.4375 C 20.007812 44.300781 20.265625 43.496094 20.421875 42.644531 C 20.472656 42.367188 20.554688 41.941406 20.609375 41.691406 C 20.71875 41.171875 20.726562 40.914062 20.640625 40.839844 C 20.605469 40.8125 20.425781 40.769531 20.234375 40.742188 C 20.046875 40.71875 19.871094 40.679688 19.847656 40.652344 C 19.816406 40.621094 19.847656 40.535156 19.957031 40.398438 C 20.074219 40.253906 20.117188 40.152344 20.117188 40.011719 C 20.117188 39.847656 20.089844 39.800781 19.890625 39.628906 L 19.671875 39.4375 L 19.859375 39.125 C 19.964844 38.957031 20.089844 38.757812 20.132812 38.683594 C 20.421875 38.203125 20.851562 37.613281 20.988281 37.519531 C 21.128906 37.425781 21.179688 37.410156 21.382812 37.445312 C 21.515625 37.464844 21.679688 37.480469 21.757812 37.484375 C 21.90625 37.488281 21.859375 37.601562 22.324219 36.226562 C 22.441406 35.875 22.621094 35.351562 22.71875 35.066406 C 22.820312 34.78125 22.980469 34.300781 23.070312 33.996094 C 23.167969 33.695312 23.367188 33.054688 23.523438 32.570312 C 23.675781 32.09375 23.84375 31.535156 23.894531 31.339844 C 23.949219 31.144531 24.085938 30.769531 24.195312 30.507812 C 24.308594 30.246094 24.535156 29.710938 24.699219 29.320312 C 25.007812 28.589844 25.785156 27 26.105469 26.449219 C 26.304688 26.113281 26.734375 25.597656 26.824219 25.597656 C 26.855469 25.597656 26.90625 25.640625 26.945312 25.695312 C 27.027344 25.832031 27.191406 25.800781 27.796875 25.523438 C 28.359375 25.269531 29.015625 25.097656 29.015625 25.203125 C 29.015625 25.226562 28.910156 25.363281 28.785156 25.507812 C 28.449219 25.890625 28.136719 26.375 28.050781 26.65625 C 28.011719 26.792969 27.96875 27.113281 27.953125 27.375 L 27.929688 27.847656 L 28.171875 28.558594 C 28.441406 29.34375 28.761719 30.054688 29.449219 31.386719 C 29.984375 32.429688 30.929688 34.339844 31.089844 34.710938 C 31.304688 35.207031 31.875 36.351562 32.105469 36.730469 C 32.226562 36.941406 32.378906 37.214844 32.449219 37.339844 C 32.585938 37.609375 33.066406 38.085938 33.351562 38.226562 C 33.703125 38.410156 33.808594 38.515625 33.878906 38.765625 C 34 39.175781 33.980469 39.277344 33.691406 39.609375 C 33.546875 39.773438 33.433594 39.953125 33.433594 40.003906 C 33.433594 40.054688 33.570312 40.375 33.742188 40.714844 C 34.574219 42.378906 35.3125 43.867188 35.3125 43.886719 C 35.3125 43.898438 35.105469 43.921875 34.851562 43.9375 C 34.121094 43.984375 33.871094 44.140625 32.734375 45.265625 C 32.214844 45.777344 32.136719 45.839844 31.949219 45.867188 C 31.820312 45.886719 31.710938 45.878906 31.671875 45.847656 Z M 27.871094 37.507812 C 27.90625 37.449219 27.71875 36.976562 27.457031 36.46875 C 27.226562 36.03125 27.199219 35.992188 27.089844 35.992188 C 26.976562 35.992188 26.972656 36.003906 26.785156 36.664062 C 26.628906 37.230469 26.59375 37.464844 26.65625 37.527344 C 26.707031 37.585938 27.835938 37.5625 27.871094 37.507812 Z M 50.386719 45.503906 C 50.183594 45.460938 49.527344 45.128906 49.300781 44.953125 C 48.980469 44.699219 48.808594 44.625 48.507812 44.597656 C 48.148438 44.5625 48.039062 44.601562 47.785156 44.824219 C 47.542969 45.03125 47.535156 45.03125 47.367188 44.96875 C 47.203125 44.902344 47.183594 44.796875 47.242188 44.246094 C 47.347656 43.273438 47.632812 42.453125 48.050781 41.910156 C 48.171875 41.761719 48.308594 41.523438 48.359375 41.390625 C 48.621094 40.707031 48.992188 38.808594 49.21875 37.035156 C 49.296875 36.425781 49.410156 35.613281 49.476562 35.230469 C 49.773438 33.460938 49.863281 31.886719 49.707031 31.351562 C 49.636719 31.113281 49.429688 30.855469 49.089844 30.59375 C 48.84375 30.40625 48.847656 30.324219 49.109375 30.039062 C 49.433594 29.679688 49.722656 29.132812 50.316406 27.757812 C 50.347656 27.675781 50.445312 27.398438 50.527344 27.136719 C 50.742188 26.449219 50.96875 25.882812 51.03125 25.859375 C 51.0625 25.847656 51.28125 25.933594 51.515625 26.046875 C 52.265625 26.414062 52.476562 26.449219 54.0625 26.449219 C 55.464844 26.449219 56.9375 26.34375 57.539062 26.199219 C 57.9375 26.105469 59.664062 26.125 60.160156 26.226562 C 60.664062 26.335938 61.84375 26.707031 62.171875 26.863281 C 62.449219 26.996094 63.195312 27.683594 63.515625 28.113281 C 63.777344 28.449219 64.027344 28.867188 63.996094 28.898438 C 63.984375 28.914062 63.828125 28.835938 63.652344 28.726562 C 63.355469 28.542969 63.3125 28.53125 63.074219 28.554688 C 62.765625 28.585938 62.714844 28.632812 62.242188 29.316406 C 61.746094 30.035156 61.121094 30.882812 60.929688 31.089844 C 60.785156 31.242188 60.757812 31.257812 60.570312 31.222656 C 60.460938 31.207031 60.148438 31.128906 59.875 31.042969 C 59.21875 30.847656 58.835938 30.832031 58.023438 30.960938 C 56.921875 31.132812 56.308594 31.195312 55.765625 31.195312 C 55.058594 31.199219 55.089844 31.160156 54.878906 32.316406 C 54.789062 32.808594 54.691406 33.414062 54.660156 33.660156 C 54.613281 34.050781 54.613281 34.109375 54.679688 34.175781 C 54.761719 34.261719 54.839844 34.265625 57.109375 34.375 C 57.898438 34.410156 58.152344 34.445312 58.539062 34.546875 C 58.796875 34.617188 59.03125 34.691406 59.058594 34.714844 C 59.109375 34.753906 59.175781 35.097656 59.242188 35.617188 C 59.304688 36.109375 59.828125 36.839844 60.179688 36.933594 C 60.390625 36.988281 60.371094 37.125 60.136719 37.207031 C 59.265625 37.53125 59.300781 37.523438 58.234375 37.5625 C 57.367188 37.59375 56.023438 37.71875 54.785156 37.890625 C 54.601562 37.914062 54.414062 37.9375 54.371094 37.941406 C 54.328125 37.941406 54.222656 38 54.148438 38.066406 C 54.03125 38.175781 53.980469 38.289062 53.886719 38.644531 C 53.734375 39.242188 53.660156 39.984375 53.742188 40.066406 C 53.789062 40.113281 54.089844 40.144531 54.8125 40.171875 C 56.878906 40.261719 58.050781 40.320312 59.078125 40.386719 C 59.660156 40.425781 60.617188 40.457031 61.195312 40.457031 C 62.207031 40.457031 62.265625 40.460938 62.347656 40.550781 C 62.433594 40.652344 62.433594 40.652344 62.273438 40.777344 C 61.949219 41.023438 61.4375 41.585938 61.3125 41.828125 C 61.160156 42.132812 61.039062 42.53125 60.9375 43.066406 C 60.769531 43.941406 60.597656 44.390625 60.339844 44.613281 C 59.964844 44.933594 59.132812 45.203125 58.515625 45.203125 C 58.296875 45.203125 57.84375 45.222656 57.507812 45.246094 C 56.265625 45.34375 55.058594 45.394531 53.140625 45.445312 C 52.050781 45.46875 51.015625 45.5 50.835938 45.507812 C 50.65625 45.519531 50.457031 45.519531 50.390625 45.503906 Z M 8.375 45.195312 C 7.324219 45.039062 7.066406 44.984375 6.207031 44.695312 C 5.222656 44.367188 4.269531 43.933594 4.175781 43.769531 C 4.136719 43.695312 4.074219 43.636719 4.042969 43.636719 C 4.015625 43.636719 3.945312 43.574219 3.886719 43.503906 C 3.832031 43.433594 3.667969 43.292969 3.519531 43.195312 C 3.375 43.097656 2.992188 42.753906 2.671875 42.433594 C 1.734375 41.496094 1.386719 41.011719 0.988281 40.078125 C 0.675781 39.347656 0.589844 39.011719 0.488281 38.152344 C 0.445312 37.785156 0.375 37.261719 0.335938 36.984375 C 0.230469 36.257812 0.1875 35.734375 0.109375 34.257812 C -0.0195312 32.003906 -0.03125 31.050781 0.0546875 30.480469 C 0.101562 30.203125 0.1875 29.609375 0.253906 29.152344 C 0.316406 28.695312 0.398438 28.117188 0.441406 27.867188 C 0.480469 27.621094 0.554688 27.140625 0.605469 26.800781 C 0.765625 25.710938 0.953125 24.929688 1.179688 24.398438 C 1.296875 24.128906 1.476562 23.691406 1.589844 23.433594 C 1.832031 22.84375 2.476562 21.285156 3.132812 20.335938 C 3.523438 19.769531 4.015625 19.261719 4.539062 18.808594 C 5.265625 18.183594 6.34375 17.472656 6.90625 17.195312 C 7.453125 16.929688 8.484375 16.507812 9.3125 16.308594 C 10.195312 16.101562 11.28125 15.980469 12.015625 16 C 13.558594 16.042969 13.726562 16.035156 14.558594 16.210938 C 15.144531 16.332031 15.730469 16.496094 16.253906 16.785156 C 17.097656 17.253906 17.859375 17.886719 18.496094 18.617188 C 18.933594 19.117188 19.921875 20.589844 20.199219 21.160156 C 20.316406 21.390625 20.457031 21.726562 20.515625 21.910156 C 20.570312 22.097656 20.671875 22.363281 20.730469 22.515625 C 20.792969 22.664062 20.90625 23.113281 20.992188 23.511719 C 21.125 24.183594 21.136719 24.289062 21.109375 24.878906 C 21.074219 25.65625 20.992188 26.109375 20.789062 26.609375 C 20.652344 26.9375 20.578125 27.039062 20.214844 27.402344 C 19.777344 27.84375 19.3125 28.183594 18.660156 28.546875 C 18.109375 28.851562 16.441406 29.675781 16.371094 29.675781 C 16.328125 29.675781 16.28125 29.695312 16.265625 29.71875 C 16.230469 29.78125 15.722656 29.9375 15.441406 29.980469 C 15.238281 30.007812 15.207031 29.996094 15.066406 29.867188 C 14.941406 29.742188 14.925781 29.703125 14.953125 29.566406 C 14.996094 29.347656 15.03125 29.324219 15.316406 29.335938 C 15.558594 29.347656 15.570312 29.339844 15.730469 29.144531 C 16.058594 28.730469 16.070312 28.703125 16.058594 28.230469 C 16.042969 27.585938 15.925781 26.667969 15.820312 26.398438 C 15.683594 26.058594 15.277344 25.242188 15.054688 24.878906 C 14.800781 24.464844 14.632812 24.289062 13.964844 23.753906 C 13.652344 23.5 13.378906 23.273438 13.351562 23.238281 C 13.328125 23.210938 13.148438 23.097656 12.953125 22.988281 C 12.335938 22.648438 11.730469 22.621094 11.171875 22.90625 C 10.664062 23.167969 9.53125 24.429688 8.996094 25.328125 C 8.273438 26.554688 7.839844 27.875 7.695312 29.335938 C 7.667969 29.605469 7.644531 30.496094 7.644531 31.3125 C 7.644531 33.222656 7.695312 33.5 8.1875 34.375 C 8.304688 34.585938 8.394531 34.769531 8.394531 34.792969 C 8.394531 34.816406 8.441406 34.882812 8.492188 34.949219 C 8.542969 35.011719 8.722656 35.273438 8.890625 35.53125 C 9.070312 35.8125 9.347656 36.148438 9.574219 36.375 C 9.789062 36.578125 9.96875 36.746094 9.980469 36.746094 C 9.992188 36.746094 10.144531 36.875 10.324219 37.027344 C 10.691406 37.351562 11.132812 37.574219 11.804688 37.789062 C 12.597656 38.039062 12.972656 38.085938 14.402344 38.09375 C 15.527344 38.101562 15.753906 38.089844 16.074219 38.011719 C 16.28125 37.964844 16.566406 37.902344 16.707031 37.878906 C 16.988281 37.835938 17.183594 37.800781 17.367188 37.765625 C 17.433594 37.746094 17.539062 37.738281 17.605469 37.734375 C 17.667969 37.734375 17.757812 37.714844 17.796875 37.695312 C 17.839844 37.671875 18.03125 37.640625 18.21875 37.628906 C 18.410156 37.617188 18.683594 37.59375 18.828125 37.574219 C 19.078125 37.542969 19.296875 37.601562 19.296875 37.691406 C 19.296875 37.710938 19.21875 37.851562 19.125 38.007812 C 18.777344 38.597656 18.0625 39.984375 17.945312 40.308594 C 17.828125 40.632812 17.839844 41.199219 17.972656 41.421875 C 18.109375 41.65625 18.101562 41.730469 17.90625 41.957031 C 17.820312 42.0625 17.742188 42.175781 17.742188 42.199219 C 17.742188 42.226562 17.714844 42.269531 17.679688 42.289062 C 17.644531 42.308594 17.59375 42.378906 17.554688 42.441406 C 17.382812 42.777344 16.066406 44.273438 15.800781 44.4375 C 15.375 44.699219 13.921875 45.023438 12.273438 45.222656 C 11.867188 45.273438 11.164062 45.308594 10.441406 45.316406 C 9.359375 45.328125 9.195312 45.316406 8.371094 45.195312 Z M 40.429688 26.285156 C 40.40625 26.269531 38.804688 26.089844 37.636719 25.972656 C 36.425781 25.851562 35.664062 25.675781 35.5 25.476562 C 35.40625 25.363281 35.507812 24.882812 36.007812 22.980469 C 36.089844 22.679688 36.195312 22.136719 36.253906 21.773438 C 36.304688 21.402344 36.390625 20.914062 36.449219 20.683594 C 36.515625 20.378906 36.535156 20.160156 36.519531 19.910156 C 36.503906 19.625 36.511719 19.5625 36.566406 19.5625 C 36.609375 19.5625 36.882812 19.605469 37.183594 19.65625 C 37.484375 19.707031 38.066406 19.785156 38.480469 19.824219 C 38.894531 19.867188 39.367188 19.921875 39.535156 19.945312 C 39.703125 19.96875 40.328125 20.011719 40.921875 20.039062 C 41.511719 20.066406 42.011719 20.101562 42.035156 20.117188 C 42.058594 20.128906 42.191406 20.375 42.335938 20.667969 C 42.570312 21.144531 42.589844 21.199219 42.523438 21.269531 C 42.328125 21.464844 40.570312 21.402344 39.183594 21.15625 C 38.316406 21.003906 38.363281 20.988281 38.277344 21.4375 C 38.15625 22.070312 38.207031 22.148438 38.835938 22.222656 C 39.554688 22.304688 39.960938 22.378906 39.964844 22.433594 C 39.96875 22.460938 39.964844 22.605469 39.960938 22.753906 C 39.957031 22.988281 39.972656 23.035156 40.101562 23.1875 C 40.183594 23.28125 40.234375 23.382812 40.214844 23.410156 C 40.191406 23.449219 39.941406 23.453125 39.308594 23.429688 C 38.273438 23.378906 38.085938 23.386719 38 23.472656 C 37.910156 23.558594 37.835938 24.273438 37.90625 24.34375 C 38.027344 24.464844 39.277344 24.6875 40.109375 24.738281 C 40.554688 24.769531 41.164062 24.824219 41.464844 24.859375 C 41.761719 24.898438 42.09375 24.929688 42.199219 24.929688 C 42.441406 24.929688 42.492188 24.996094 42.359375 25.136719 C 42.308594 25.195312 42.261719 25.265625 42.261719 25.292969 C 42.261719 25.320312 42.207031 25.421875 42.144531 25.515625 C 41.972656 25.777344 41.957031 25.894531 42.066406 26.085938 C 42.125 26.171875 42.152344 26.257812 42.136719 26.277344 C 42.105469 26.308594 40.460938 26.320312 40.425781 26.289062 Z M 33.597656 25.042969 C 33.320312 24.847656 33.15625 24.835938 32.703125 24.980469 C 32.234375 25.125 32.230469 25.117188 32.234375 24.179688 C 32.238281 23.730469 32.277344 23.1875 32.324219 22.828125 L 32.410156 22.222656 L 32.257812 22.042969 C 32.035156 21.785156 31.769531 21.617188 31.410156 21.507812 C 31.039062 21.394531 30.972656 21.390625 30.902344 21.476562 C 30.875 21.511719 30.820312 21.804688 30.78125 22.128906 C 30.621094 23.429688 30.597656 23.472656 29.921875 23.695312 C 29.667969 23.78125 29.398438 23.875 29.320312 23.910156 C 28.753906 24.164062 28.402344 24.269531 28.402344 24.1875 C 28.402344 24.171875 28.511719 23.964844 28.640625 23.722656 C 28.910156 23.207031 28.941406 23.101562 29.039062 22.066406 C 29.121094 21.226562 29.101562 20.984375 28.9375 20.832031 C 28.78125 20.691406 28.367188 20.511719 28.199219 20.511719 C 28.089844 20.511719 28.03125 20.492188 28.03125 20.449219 C 28.03125 20.378906 28.742188 19.890625 29.144531 19.6875 C 29.429688 19.542969 29.390625 19.644531 29.648438 18.257812 C 29.851562 17.164062 29.84375 17.1875 29.898438 17.1875 C 29.925781 17.1875 30.113281 17.347656 30.320312 17.539062 C 30.527344 17.730469 30.84375 17.980469 31.027344 18.089844 C 31.210938 18.199219 31.382812 18.316406 31.40625 18.347656 C 31.445312 18.390625 31.441406 18.523438 31.386719 18.808594 C 31.347656 19.027344 31.304688 19.308594 31.289062 19.433594 L 31.261719 19.65625 L 31.621094 19.878906 C 31.820312 20.007812 32.125 20.199219 32.292969 20.3125 C 32.460938 20.421875 32.628906 20.511719 32.660156 20.511719 C 32.800781 20.511719 32.957031 19.96875 32.960938 19.484375 C 32.964844 19.058594 32.992188 19.050781 33.601562 19.304688 C 34.015625 19.476562 34.167969 19.515625 34.402344 19.515625 C 34.5625 19.515625 34.703125 19.53125 34.714844 19.550781 C 34.726562 19.570312 34.695312 19.914062 34.652344 20.324219 C 34.605469 20.726562 34.542969 21.476562 34.515625 21.984375 C 34.449219 23.164062 34.433594 23.304688 34.292969 23.710938 C 34.113281 24.242188 34.035156 24.550781 34.015625 24.847656 C 33.984375 25.28125 33.953125 25.292969 33.597656 25.042969 Z M 24.859375 24.558594 C 24.808594 24.546875 24.722656 24.503906 24.675781 24.46875 C 24.625 24.433594 24.480469 24.402344 24.355469 24.402344 C 24.148438 24.402344 24.132812 24.394531 24.15625 24.296875 C 24.242188 23.910156 24.410156 22.953125 24.4375 22.695312 C 24.453125 22.523438 24.496094 21.851562 24.53125 21.199219 C 24.566406 20.546875 24.617188 19.800781 24.632812 19.535156 C 24.667969 18.988281 24.609375 18.691406 24.449219 18.601562 C 24.367188 18.554688 24.023438 18.542969 23.011719 18.554688 C 21.601562 18.570312 21.542969 18.5625 21.652344 18.355469 C 21.683594 18.304688 21.691406 18.128906 21.679688 17.957031 C 21.660156 17.703125 21.625 17.609375 21.480469 17.394531 C 21.382812 17.257812 21.222656 17.0625 21.125 16.972656 C 21.023438 16.878906 20.941406 16.785156 20.941406 16.757812 C 20.941406 16.667969 22.503906 16.699219 23.265625 16.808594 C 23.972656 16.90625 24.15625 16.90625 25.191406 16.816406 C 25.648438 16.777344 26.125 16.652344 26.179688 16.5625 C 26.195312 16.539062 26.242188 16.519531 26.292969 16.519531 C 26.359375 16.519531 26.382812 16.570312 26.40625 16.777344 C 26.429688 16.914062 26.464844 17.066406 26.496094 17.109375 C 26.578125 17.21875 27.117188 17.277344 28.117188 17.28125 C 29.066406 17.28125 29.085938 17.289062 28.96875 17.574219 C 28.9375 17.664062 28.796875 17.871094 28.660156 18.042969 C 28.300781 18.496094 28.132812 18.566406 27.285156 18.625 C 26.90625 18.648438 26.585938 18.683594 26.566406 18.699219 C 26.53125 18.726562 26.40625 20.222656 26.355469 21.195312 C 26.339844 21.527344 26.359375 22.054688 26.410156 22.648438 C 26.472656 23.363281 26.480469 23.636719 26.441406 23.847656 C 26.378906 24.171875 26.242188 24.386719 26.039062 24.476562 C 25.882812 24.539062 25.015625 24.605469 24.859375 24.558594 Z M 24.859375 24.558594 "/>
</g>
</svg>
