<svg xmlns="http://www.w3.org/2000/svg" xmlns:xlink="http://www.w3.org/1999/xlink" width="64" height="64" viewBox="0 0 64 64" version="1.1">
<defs> <linearGradient id="linear0" gradientUnits="userSpaceOnUse" x1="0" y1="0" x2="0" y2="1" gradientTransform="matrix(55.992188,0,0,56,4.003906,4)"> <stop offset="0" style="stop-color:#ff6666;stop-opacity:1;"/> <stop offset="1" style="stop-color:#d90000;stop-opacity:1;"/> </linearGradient> </defs>
<g id="surface1">
<path style=" stroke:none;fill-rule:nonzero;fill:url(#linear0);fill-opacity:1;" d="M 35.804688 54.710938 L 7.6875 26.9375 L 7.640625 6.304688 L 28.351562 6.355469 L 56.476562 34.136719 M 14.253906 10.625 C 12.945312 10.625 11.882812 11.683594 11.882812 12.992188 C 11.882812 14.289062 12.945312 15.347656 14.253906 15.347656 C 15.5625 15.347656 16.625 14.289062 16.625 12.992188 C 16.625 11.683594 15.5625 10.625 14.253906 10.625 M 16.136719 23.820312 L 35.453125 43.054688 L 38.171875 40.335938 L 18.863281 21.101562 M 24.921875 15.070312 L 22.199219 17.785156 L 41.386719 36.902344 L 44.117188 34.1875 "/>
<path style=" stroke:none;fill-rule:nonzero;fill:url(#linear0);fill-opacity:1;" d="M 32.160156 54.445312 L 24.558594 58.039062 L 12.003906 35.007812 "/>
</g>
</svg>
