<svg xmlns="http://www.w3.org/2000/svg" xmlns:xlink="http://www.w3.org/1999/xlink" width="64" height="64" viewBox="0 0 64 64" version="1.1">
<defs>
<linearGradient id="linear0" gradientUnits="userSpaceOnUse" x1="0" y1="0" x2="0" y2="1" gradientTransform="matrix(64,0,0,63.992188,0,0.00390625)">
<stop offset="0" style="stop-color:#ff6666;stop-opacity:1;"/>
<stop offset="1" style="stop-color:#d90000;stop-opacity:1;"/>
</linearGradient>
</defs>
<g id="surface1">
<path style=" stroke:none;fill-rule:nonzero;fill:url(#linear0);" d="M 0.242188 0.00390625 C 0.242188 0.5 0.292969 6.4375 3.238281 9.390625 C 3.238281 9.640625 0.992188 8.59375 0.0117188 9.078125 C 0.0117188 13.023438 3.703125 16.234375 3.703125 16.234375 C 3.703125 16.234375 1.242188 15.523438 0.0117188 15.777344 C -0.238281 17.003906 3.492188 24.617188 9.394531 24.617188 L 9.855469 24.617188 L 9.855469 26.617188 C 9.835938 26.773438 9.835938 26.925781 9.855469 27.074219 L 9.855469 37.691406 C 9.800781 37.816406 9.625 38.152344 9.625 38.152344 C 9.625 38.152344 8.367188 56.824219 0.242188 57.070312 C 0.730469 61.011719 4.21875 63.996094 13.085938 63.996094 L 50.925781 63.996094 C 59.789062 63.996094 63.28125 61.257812 63.773438 57.070312 C 55.644531 56.824219 54.386719 38.152344 54.386719 38.152344 C 54.386719 38.152344 54.214844 37.816406 54.15625 37.691406 L 54.15625 24.617188 L 54.621094 24.617188 C 60.519531 24.617188 64.261719 17.230469 63.769531 16.003906 C 62.789062 15.511719 60.308594 16.234375 60.308594 16.234375 C 60.308594 16.234375 64 13.023438 64 9.078125 C 63.019531 8.59375 60.769531 9.640625 60.769531 9.390625 C 63.71875 6.4375 63.773438 0.496094 63.773438 0.00390625 C 63.773438 0.00390625 56.632812 0.214844 56.386719 12.777344 C 56.386719 19.867188 54.855469 21.511719 53.773438 21.773438 C 51.183594 10.675781 34.050781 6.5625 32.003906 2.46875 C 29.726562 6.332031 12.796875 10.648438 10.238281 21.773438 C 9.15625 21.511719 7.628906 19.867188 7.628906 12.777344 C 7.375 0.214844 0.242188 0.00390625 0.242188 0.00390625 Z M 32.003906 9.085938 C 33.234375 9.820312 34.679688 10.558594 36.160156 11.542969 C 43.292969 15.234375 49.230469 19.203125 49.230469 24.617188 L 49.230469 27.074219 C 49.230469 28.308594 49.210938 29.402344 49.15625 30.539062 C 44.972656 28.828125 39.367188 27.308594 31.777344 27.308594 C 24.1875 27.308594 18.789062 28.597656 14.855469 30.308594 C 14.804688 29.230469 14.78125 28.15625 14.78125 27.074219 C 14.796875 26.925781 14.796875 26.769531 14.78125 26.617188 L 14.78125 24.617188 C 14.78125 18.957031 20.699219 15.253906 28.085938 11.3125 C 29.5625 10.332031 30.777344 9.570312 32.003906 9.078125 Z M 31.777344 32.230469 C 39.765625 32.230469 45.167969 33.933594 48.695312 35.691406 C 47.464844 44.769531 44.332031 50.351562 41.160156 53.765625 C 39.121094 55.957031 37.023438 57.292969 35.3125 58.070312 C 34.265625 58.558594 33.148438 58.894531 32.003906 59.070312 C 31.851562 59.070312 30.410156 58.886719 28.699219 58.148438 C 26.488281 57.175781 24.5 55.765625 22.851562 53.996094 C 19.660156 50.613281 16.527344 44.953125 15.316406 35.617188 C 18.738281 33.890625 23.953125 32.230469 31.777344 32.230469 Z M 19.699219 35.691406 C 19.699219 38.152344 21.652344 41.84375 24.855469 41.84375 C 27.804688 41.84375 29.3125 39.363281 29.3125 38.382812 Z M 44.3125 35.691406 L 34.699219 38.382812 C 34.699219 39.363281 36.207031 41.84375 39.15625 41.84375 C 42.359375 41.84375 44.3125 38.152344 44.3125 35.691406 Z M 44.3125 35.691406 "/>
</g>
</svg>
