<svg xmlns="http://www.w3.org/2000/svg" xmlns:xlink="http://www.w3.org/1999/xlink" width="64" height="64" viewBox="0 0 64 64" version="1.1">
<defs>
<linearGradient id="linear0" gradientUnits="userSpaceOnUse" x1="0" y1="0" x2="0" y2="1" gradientTransform="matrix(62.054688,0,0,62.171875,0.972656,0)">
<stop offset="0" style="stop-color:#ff6666;stop-opacity:1;"/>
<stop offset="1" style="stop-color:#d90000;stop-opacity:1;"/>
</linearGradient>
</defs>
<g id="surface1">
<path style=" stroke:none;fill-rule:evenodd;fill:url(#linear0);" d="M 3.53125 0 L 16.695312 0 C 18.113281 0 19.257812 1.148438 19.257812 2.558594 L 19.257812 15.722656 C 19.257812 17.140625 18.113281 18.285156 16.695312 18.285156 L 3.53125 18.285156 C 2.121094 18.285156 0.972656 17.140625 0.972656 15.722656 L 0.972656 2.558594 C 0.972656 1.148438 2.121094 0 3.53125 0 Z M 25.476562 0 L 38.640625 0 C 40.050781 0 41.199219 1.148438 41.199219 2.558594 L 41.199219 15.722656 C 41.199219 17.140625 40.050781 18.285156 38.640625 18.285156 L 25.476562 18.285156 C 24.058594 18.285156 22.914062 17.140625 22.914062 15.722656 L 22.914062 2.558594 C 22.914062 1.148438 24.058594 0 25.476562 0 Z M 47.304688 0 L 60.46875 0 C 61.878906 0 63.027344 1.148438 63.027344 2.558594 L 63.027344 15.722656 C 63.027344 17.140625 61.878906 18.285156 60.46875 18.285156 L 47.304688 18.285156 C 45.886719 18.285156 44.742188 17.140625 44.742188 15.722656 L 44.742188 2.558594 C 44.742188 1.148438 45.886719 0 47.304688 0 Z M 25.359375 21.945312 L 38.523438 21.945312 C 39.941406 21.945312 41.085938 23.089844 41.085938 24.503906 L 41.085938 37.667969 C 41.085938 39.078125 39.941406 40.226562 38.523438 40.226562 L 25.359375 40.226562 C 23.949219 40.226562 22.800781 39.078125 22.800781 37.667969 L 22.800781 24.503906 C 22.800781 23.089844 23.949219 21.945312 25.359375 21.945312 Z M 25.359375 43.882812 L 38.523438 43.882812 C 39.941406 43.882812 41.085938 45.03125 41.085938 46.445312 L 41.085938 59.613281 C 41.085938 61.023438 39.941406 62.171875 38.523438 62.171875 L 25.359375 62.171875 C 23.949219 62.171875 22.800781 61.023438 22.800781 59.613281 L 22.800781 46.445312 C 22.800781 45.03125 23.949219 43.882812 25.359375 43.882812 Z M 25.359375 43.882812 "/>
</g>
</svg>
