<svg xmlns="http://www.w3.org/2000/svg" xmlns:xlink="http://www.w3.org/1999/xlink" width="64" height="64" viewBox="0 0 64 64" version="1.1">
<defs>
<linearGradient id="linear0" gradientUnits="userSpaceOnUse" x1="0" y1="0" x2="0" y2="1" gradientTransform="matrix(64,0,0,58.402344,0,2.796875)">
<stop offset="0" style="stop-color:#ff6666;stop-opacity:1;"/>
<stop offset="1" style="stop-color:#d90000;stop-opacity:1;"/>
</linearGradient>
</defs>
<g id="surface1">
<path style=" stroke:none;fill-rule:nonzero;fill:url(#linear0);" d="M 26.726562 25.179688 C 21.300781 25.621094 17.3125 25.324219 14.503906 24.808594 C 5.710938 22.476562 2.417969 18.226562 4.632812 12.050781 C 6.464844 9.867188 8.199219 8.539062 11.183594 9.085938 C 23.222656 11.265625 34.328125 15.382812 43.945312 15.460938 C 51.664062 15.519531 58.488281 12.210938 63.605469 8.996094 C 64.59375 6.984375 63.71875 5.730469 61.15625 5.410156 C 57.3125 7.753906 53.761719 9.03125 50.671875 9.433594 C 37.390625 10.742188 20.445312 1.132812 10.484375 3.050781 C 3.84375 4.335938 0.347656 8.820312 0 16.507812 C 0.941406 25.324219 11.402344 29.277344 24.429688 28.898438 C 24.410156 28.933594 24.390625 28.96875 24.375 29 C 21.054688 33.109375 19.832031 38.613281 19.570312 44.550781 C 19.347656 49.617188 21.976562 54.015625 25.601562 57.742188 C 30.316406 61.179688 35.152344 62.054688 40.101562 60.367188 C 48.371094 57.6875 53.410156 51.890625 55.214844 42.980469 C 54.984375 37.621094 52.449219 34.566406 47.617188 33.808594 C 41.089844 33.980469 35.847656 38.378906 31.886719 47 C 32.269531 49.476562 33.226562 50.054688 35.296875 49.097656 C 38.144531 42.03125 44.121094 36.078125 48.050781 37.738281 C 51.984375 39.398438 50.058594 51.191406 39.140625 56.960938 C 34.539062 58.355469 31.105469 57.542969 28.832031 54.511719 C 24.617188 48.300781 25.808594 39.519531 32.40625 28.171875 C 36.386719 27.570312 40.464844 26.625 44.46875 25.332031 C 45.96875 24.179688 47.09375 24.546875 46.324219 22.730469 C 45.558594 20.921875 44.953125 21.878906 42.984375 21.925781 C 40.050781 22.890625 37.375 23.605469 34.953125 24.074219 C 36.492188 21.738281 38.234375 19.304688 40.1875 16.773438 C 38.824219 16.207031 37.746094 15.914062 36.957031 15.894531 C 35.789062 16.535156 34.070312 17.234375 31.800781 17.992188 C 29.6875 20.886719 27.996094 23.285156 26.726562 25.179688 Z M 26.726562 25.179688 "/>
</g>
</svg>
