<svg xmlns="http://www.w3.org/2000/svg" xmlns:xlink="http://www.w3.org/1999/xlink" width="64" height="64" viewBox="0 0 64 64" version="1.1">
<defs>
<linearGradient id="linear0" gradientUnits="userSpaceOnUse" x1="0" y1="0" x2="0" y2="1" gradientTransform="matrix(64.125,0,0,64.125,0.03125,0.03125)">
<stop offset="0" style="stop-color:#ff6666;stop-opacity:1;"/>
<stop offset="1" style="stop-color:#d90000;stop-opacity:1;"/>
</linearGradient>
</defs>
<g id="surface1">
<path style=" stroke:none;fill-rule:evenodd;fill:url(#linear0);" d="M 3.585938 0.15625 L 27.816406 0.15625 L 27.875 0.03125 L 36.1875 0.03125 L 36.242188 0.15625 L 60.726562 0.15625 C 61.003906 0.15625 61.273438 0.1875 61.527344 0.242188 C 61.632812 0.277344 61.730469 0.304688 61.816406 0.367188 C 62.847656 0.679688 63.648438 1.484375 63.953125 2.519531 C 64.011719 2.597656 64.039062 2.6875 64.0625 2.785156 C 64.125 3.039062 64.15625 3.308594 64.15625 3.585938 L 64.15625 4.726562 L 62.816406 4.726562 L 46.0625 21.480469 L 64.03125 60.507812 L 64.03125 60.605469 C 64.03125 60.667969 64.027344 60.730469 64.027344 60.792969 L 64.136719 60.902344 C 64.046875 62.660156 62.660156 64.046875 60.902344 64.136719 L 60.792969 64.023438 C 60.734375 64.027344 60.679688 64.03125 60.621094 64.03125 L 60.46875 63.699219 L 34.441406 37.671875 L 34.441406 64.15625 L 29.871094 64.15625 L 29.871094 37.671875 L 3.40625 64.136719 C 2.703125 64.101562 2.0625 63.855469 1.539062 63.46875 C 0.632812 62.839844 0.03125 61.796875 0.03125 60.605469 L 0.03125 60.507812 L 18.078125 21.3125 L 1.496094 4.726562 L 0.15625 4.726562 L 0.15625 3.585938 C 0.21875 2.09375 1 0.1875 3.585938 0.15625 Z M 7.960938 4.726562 L 25.710938 4.726562 L 20.117188 16.882812 Z M 29.871094 6.636719 L 29.871094 26.640625 L 23.5625 20.332031 Z M 34.441406 26.636719 L 34.441406 7.175781 L 40.574219 20.5 Z M 38.347656 4.726562 L 56.351562 4.726562 L 44.023438 17.054688 Z M 8.898438 52.179688 L 21.523438 24.761719 L 28.925781 32.15625 Z M 42.617188 24.929688 L 54.953125 51.71875 L 35.386719 32.15625 Z M 42.617188 24.929688 "/>
</g>
</svg>
