<svg xmlns="http://www.w3.org/2000/svg" xmlns:xlink="http://www.w3.org/1999/xlink" width="64px" height="64px" viewBox="0 0 64 64" version="1.1">
<defs>
<linearGradient id="linear0" gradientUnits="userSpaceOnUse" x1="0" y1="128" x2="128" y2="0" gradientTransform="matrix(0.432432,0,0,0.432432,4.324324,4.324324)">
<stop offset="0" style="stop-color:#ff6666;stop-opacity:1;"/>
<stop offset="1" style="stop-color:#d90000;stop-opacity:1;"/>
</linearGradient>
</defs>
<g id="surface1">
<path style=" stroke:none;fill-rule:nonzero;fill:url(#linear0);" d="M 30.988281 7.082031 C 27.5 7.230469 23.738281 8.359375 20.6875 10.195312 L 25.011719 17.046875 C 36.285156 11.964844 46.8125 18.320312 48.71875 32.039062 L 56.613281 31.789062 C 57.171875 27.460938 54.289062 21.089844 50.835938 16.382812 C 45.582031 17.933594 39.0625 14.476562 36.761719 7.914062 C 35.085938 7.261719 33.085938 6.992188 30.988281 7.082031 Z M 18.78125 11.148438 C 14.710938 12.730469 10.511719 18.328125 8.023438 23.609375 C 11.898438 27.488281 11.984375 34.890625 7.316406 40.054688 C 7.933594 44.808594 12.082031 50.175781 16.992188 53.050781 L 20.9375 45.949219 C 11.082031 38.480469 11.632812 26.199219 22.765625 17.960938 Z M 31.53125 17.917969 C 23.636719 17.917969 17.242188 24.3125 17.242188 32.207031 C 17.242188 40.09375 23.636719 46.488281 31.53125 46.488281 C 39.417969 46.488281 45.8125 40.09375 45.8125 32.207031 C 45.8125 24.3125 39.417969 17.917969 31.53125 17.917969 Z M 29.367188 21.035156 C 30.589844 21.035156 31.546875 21.566406 31.941406 22.613281 C 32.738281 24.703125 31.019531 28.082031 28.082031 30.167969 C 25.144531 32.261719 22.109375 32.261719 21.3125 30.167969 C 20.519531 28.078125 22.238281 24.703125 25.175781 22.613281 C 26.640625 21.566406 28.148438 21.035156 29.367188 21.035156 Z M 56.03125 33.660156 L 47.890625 33.988281 C 46.6875 46.300781 35.945312 52.289062 23.097656 47.113281 L 19.402344 54.046875 C 22.878906 56.691406 29.796875 57.351562 35.597656 56.707031 C 36.875 51.375 43.128906 47.457031 49.964844 48.734375 C 53.695312 45.722656 56.152344 39.351562 56.03125 33.660156 Z M 56.03125 33.660156 "/>
</g>
</svg>
