<svg xmlns="http://www.w3.org/2000/svg" xmlns:xlink="http://www.w3.org/1999/xlink" width="64" height="64" viewBox="0 0 64 64" version="1.1">
<defs>
<linearGradient id="linear0" gradientUnits="userSpaceOnUse" x1="0" y1="0" x2="0" y2="1" gradientTransform="matrix(74.65625,0,0,74.666667,5.338541,5.333333)">
<stop offset="0" style="stop-color:#ff6666;stop-opacity:1;"/>
<stop offset="1" style="stop-color:#d90000;stop-opacity:1;"/>
</linearGradient>
</defs>
<g id="surface1">
<path style=" stroke:none;fill-rule:nonzero;fill:url(#linear0);" d="M 23.078125 3.183594 C 22.0625 3.183594 21.285156 3.210938 20.382812 3.53125 C 19.929688 3.691406 19.410156 3.953125 18.945312 4.453125 C 18.484375 4.957031 18.183594 5.710938 18.140625 6.328125 C 18.050781 7.5625 18.480469 8.160156 18.761719 8.667969 C 19.042969 9.175781 19.324219 9.59375 19.574219 10 C 19.582031 10.011719 19.585938 10.023438 19.59375 10.03125 C 20.691406 11.78125 20.894531 14.820312 20.960938 18.015625 C 20.960938 18.949219 20.941406 20.234375 21.890625 21.554688 C 22.859375 22.894531 24.636719 23.492188 26.40625 23.492188 L 37.53125 23.492188 C 39.414062 23.492188 41.257812 22.769531 42.210938 21.398438 C 43.160156 20.023438 43.144531 18.671875 43.144531 17.707031 C 43.144531 17.699219 43.144531 17.691406 43.144531 17.683594 C 43.117188 14.605469 43.199219 12.082031 44.515625 10.125 C 44.515625 10.125 44.515625 10.121094 44.515625 10.121094 C 44.824219 9.664062 45.140625 9.207031 45.433594 8.648438 C 45.726562 8.082031 46.128906 7.367188 45.945312 6.152344 C 45.757812 4.9375 44.582031 3.871094 43.695312 3.546875 C 42.804688 3.226562 42.007812 3.183594 41.015625 3.183594 Z M 24.3125 8.25 L 39.828125 8.25 C 38.078125 11.46875 38.054688 14.898438 38.078125 17.730469 C 38.074219 18.046875 38.039062 18.273438 38.015625 18.410156 C 37.941406 18.414062 37.878906 18.421875 37.53125 18.421875 L 26.40625 18.421875 C 26.152344 18.421875 26.15625 18.421875 26.0625 18.417969 C 26.046875 18.296875 26.027344 18.199219 26.027344 17.960938 C 26.027344 17.945312 26.027344 17.925781 26.027344 17.910156 C 25.964844 15.007812 25.949219 11.46875 24.3125 8.25 Z M 15.742188 10.886719 C 13.78125 10.886719 11.730469 11.449219 10.070312 12.847656 C 8.40625 14.246094 7.304688 16.535156 7.304688 19.140625 L 7.308594 52.589844 C 7.308594 52.617188 7.308594 52.640625 7.308594 52.667969 C 7.382812 55.160156 8.53125 57.386719 10.253906 58.785156 C 11.976562 60.183594 14.15625 60.816406 16.375 60.816406 C 16.378906 60.816406 16.378906 60.816406 16.378906 60.816406 L 48.441406 60.765625 C 50.679688 60.765625 52.855469 60.152344 54.425781 58.625 C 55.996094 57.101562 56.695312 54.882812 56.695312 52.539062 L 56.695312 19.140625 C 56.695312 16.953125 55.976562 14.824219 54.484375 13.273438 C 52.988281 11.726562 50.796875 10.886719 48.441406 10.886719 C 46.96875 10.886719 45.773438 12.082031 45.773438 13.554688 C 45.773438 15.027344 46.96875 16.21875 48.441406 16.21875 C 49.628906 16.21875 50.226562 16.546875 50.640625 16.976562 C 51.054688 17.40625 51.359375 18.070312 51.359375 19.140625 L 51.359375 52.539062 C 51.359375 53.914062 51.042969 54.476562 50.710938 54.800781 C 50.375 55.125 49.761719 55.429688 48.441406 55.429688 C 48.441406 55.429688 48.4375 55.429688 48.4375 55.429688 L 16.375 55.484375 C 15.183594 55.484375 14.210938 55.128906 13.613281 54.644531 C 13.015625 54.160156 12.675781 53.609375 12.640625 52.515625 L 12.640625 19.140625 C 12.640625 17.863281 12.996094 17.355469 13.5 16.929688 C 14.007812 16.507812 14.839844 16.21875 15.742188 16.21875 C 17.214844 16.21875 18.40625 15.027344 18.40625 13.554688 C 18.40625 12.082031 17.214844 10.886719 15.742188 10.886719 Z M 41.367188 26.742188 C 40.421875 26.753906 39.558594 27.261719 39.085938 28.078125 L 30.550781 42.875 L 25.371094 34.367188 C 24.605469 33.105469 22.964844 32.707031 21.707031 33.472656 C 21.101562 33.839844 20.667969 34.433594 20.5 35.121094 C 20.335938 35.808594 20.449219 36.535156 20.816406 37.140625 L 28.335938 49.492188 C 28.828125 50.296875 29.707031 50.785156 30.648438 50.773438 C 31.589844 50.761719 32.457031 50.253906 32.925781 49.4375 L 43.707031 30.742188 C 44.445312 29.46875 44.007812 27.835938 42.730469 27.101562 C 42.316406 26.859375 41.84375 26.738281 41.367188 26.742188 Z M 41.367188 26.742188 "/>
</g>
</svg>
