<svg xmlns="http://www.w3.org/2000/svg" xmlns:xlink="http://www.w3.org/1999/xlink" width="64" height="64" viewBox="0 0 64 64" version="1.1">
<defs>
<linearGradient id="linear0" gradientUnits="userSpaceOnUse" x1="0" y1="0" x2="0" y2="1" gradientTransform="matrix(64,0,0,43.632812,0,10.183594)">
<stop offset="0" style="stop-color:#ff6666;stop-opacity:1;"/>
<stop offset="1" style="stop-color:#d90000;stop-opacity:1;"/>
</linearGradient>
</defs>
<g id="surface1">
<path style=" stroke:none;fill-rule:nonzero;fill:url(#linear0);" d="M 63.933594 26.578125 L 55.449219 10.621094 C 55.433594 10.601562 55.421875 10.585938 55.40625 10.5625 C 55.347656 10.492188 55.28125 10.429688 55.207031 10.371094 C 54.902344 10.160156 54.492188 10.113281 54.136719 10.296875 C 53.929688 10.402344 53.777344 10.570312 53.6875 10.769531 C 53.671875 10.785156 53.667969 10.804688 53.660156 10.824219 L 49.070312 21.628906 L 39.96875 26.292969 C 39.90625 26.320312 39.847656 26.351562 39.792969 26.382812 L 36.695312 27.972656 L 33.996094 29.355469 L 33.292969 28.027344 C 32.890625 27.277344 31.953125 26.988281 31.183594 27.378906 C 30.425781 27.769531 30.125 28.695312 30.523438 29.449219 L 31.226562 30.773438 L 28.625 32.109375 L 26.371094 27.875 L 30.410156 25.808594 C 31.449219 25.273438 31.851562 24.015625 31.308594 23 C 31.222656 22.835938 31.117188 22.683594 30.992188 22.554688 L 30.808594 22.378906 C 30.167969 21.847656 29.234375 21.714844 28.449219 22.121094 L 16.523438 28.226562 C 15.484375 28.765625 15.078125 30.019531 15.625 31.039062 C 15.707031 31.199219 15.8125 31.34375 15.933594 31.472656 C 15.992188 31.539062 16.058594 31.605469 16.132812 31.660156 C 16.773438 32.191406 17.699219 32.324219 18.484375 31.921875 L 22.523438 29.851562 L 24.773438 34.085938 L 21.894531 35.554688 L 21.191406 34.230469 C 20.792969 33.480469 19.84375 33.191406 19.085938 33.578125 C 18.882812 33.683594 18.714844 33.824219 18.578125 33.988281 C 18.210938 34.449219 18.128906 35.097656 18.425781 35.648438 L 19.128906 36.976562 L 14.746094 39.21875 C 14.6875 39.246094 14.628906 39.28125 14.566406 39.308594 L 4.136719 44.652344 L 0.578125 43.890625 C 0.566406 43.886719 0.558594 43.886719 0.550781 43.886719 C 0.453125 43.867188 0.347656 43.882812 0.253906 43.933594 C 0.0390625 44.039062 -0.0507812 44.285156 0.03125 44.5 L 3.933594 51.835938 C 3.945312 51.847656 3.953125 51.863281 3.964844 51.875 L 3.972656 51.878906 L 4.027344 51.9375 C 4.164062 52.046875 4.363281 52.070312 4.535156 51.984375 C 4.632812 51.9375 4.703125 51.859375 4.742188 51.769531 C 4.746094 51.761719 4.753906 51.753906 4.757812 51.742188 L 6.183594 48.378906 L 10.359375 46.238281 C 10.375 47.402344 10.664062 48.585938 11.246094 49.683594 C 13.253906 53.453125 17.988281 54.90625 21.824219 52.945312 C 21.882812 52.910156 21.945312 52.878906 22 52.847656 L 26.378906 50.605469 L 27.199219 52.144531 C 27.597656 52.894531 28.542969 53.183594 29.308594 52.796875 C 30.066406 52.402344 30.367188 51.476562 29.96875 50.726562 L 29.148438 49.1875 L 32.023438 47.714844 L 34.410156 52.203125 C 34.96875 53.253906 36.28125 53.65625 37.34375 53.109375 C 37.644531 52.957031 37.890625 52.742188 38.074219 52.5 C 38.5625 51.863281 38.664062 50.984375 38.265625 50.230469 L 35.875 45.738281 L 38.484375 44.40625 L 39.304688 45.945312 C 39.699219 46.691406 40.644531 46.988281 41.40625 46.59375 C 42.175781 46.199219 42.46875 45.273438 42.070312 44.527344 L 41.253906 42.988281 L 47.292969 39.886719 C 47.710938 39.671875 48.101562 39.421875 48.460938 39.140625 C 51.355469 36.894531 52.3125 32.875 50.542969 29.546875 C 49.960938 28.449219 49.140625 27.542969 48.175781 26.863281 L 51.023438 25.402344 L 62.742188 27.894531 C 62.765625 27.898438 62.785156 27.90625 62.808594 27.90625 C 63.023438 27.949219 63.253906 27.921875 63.460938 27.816406 C 63.914062 27.578125 64.117188 27.046875 63.933594 26.578125 Z M 19.902344 49.144531 C 19.875 49.164062 19.851562 49.171875 19.824219 49.1875 C 18.097656 50.070312 15.972656 49.414062 15.070312 47.722656 C 14.171875 46.03125 14.839844 43.945312 16.558594 43.0625 L 21.125 40.722656 L 24.378906 46.851562 Z M 27.148438 45.433594 L 23.890625 39.308594 L 24.078125 39.210938 L 26.769531 37.835938 L 30.023438 43.960938 L 29.410156 44.277344 Z M 33.878906 41.984375 L 30.621094 35.859375 L 33.226562 34.523438 L 36.484375 40.648438 Z M 44.6875 36.441406 C 44.648438 36.464844 44.613281 36.488281 44.566406 36.503906 L 39.253906 39.230469 L 35.992188 33.109375 L 39.960938 31.070312 L 41.226562 30.425781 C 41.296875 30.386719 41.363281 30.355469 41.433594 30.324219 C 43.117188 29.589844 45.117188 30.261719 45.980469 31.882812 C 46.742188 33.316406 46.378906 35.03125 45.207031 36.058594 C 45.050781 36.199219 44.875 36.328125 44.6875 36.441406 Z M 44.6875 36.441406 "/>
</g>
</svg>
