<svg xmlns="http://www.w3.org/2000/svg" xmlns:xlink="http://www.w3.org/1999/xlink" width="64" height="64" viewBox="0 0 64 64" version="1.1">
<defs> <linearGradient id="linear0" gradientUnits="userSpaceOnUse" x1="0" y1="0" x2="0" y2="1" gradientTransform="matrix(55.992188,0,0,56,4.003906,4)"> <stop offset="0" style="stop-color:#ff6666;stop-opacity:1;"/> <stop offset="1" style="stop-color:#d90000;stop-opacity:1;"/> </linearGradient> </defs>
<g id="surface1">
<path style=" stroke:none;fill-rule:nonzero;fill:url(#linear0);fill-opacity:1;" d="M 11.132812 9.070312 C 9.527344 9.070312 8.226562 10.367188 8.226562 11.964844 L 8.226562 19.902344 L 54.75 19.902344 L 54.75 11.964844 C 54.75 10.367188 53.449219 9.070312 51.839844 9.070312 Z M 11.132812 11.585938 L 14.042969 11.585938 L 16.949219 17.378906 L 11.132812 17.378906 Z M 19.859375 11.585938 L 25.671875 11.585938 L 28.582031 17.378906 L 22.765625 17.378906 Z M 31.488281 11.585938 L 37.304688 11.585938 L 40.210938 17.378906 L 34.394531 17.378906 Z M 43.117188 11.585938 L 48.933594 11.585938 L 51.839844 14.484375 L 51.839844 17.378906 L 46.027344 17.378906 Z M 43.117188 11.585938 "/>
<path style=" stroke:none;fill-rule:nonzero;fill:url(#linear0);fill-opacity:1;" d="M 8.226562 23.117188 L 8.226562 52.503906 C 8.226562 54.105469 9.527344 55.398438 11.132812 55.398438 L 51.839844 55.398438 C 53.449219 55.398438 54.75 54.105469 54.75 52.503906 L 54.75 23.117188 L 8.226562 23.117188 M 24.359375 30.375 C 24.671875 30.378906 25.007812 30.476562 25.367188 30.652344 L 40.519531 38.195312 C 41.949219 38.910156 41.949219 40.074219 40.519531 40.785156 L 25.367188 48.332031 C 23.933594 49.042969 22.765625 48.324219 22.765625 46.730469 L 22.765625 32.253906 C 22.765625 31.058594 23.429688 30.351562 24.359375 30.375 "/>
</g>
</svg>
