<svg xmlns="http://www.w3.org/2000/svg" xmlns:xlink="http://www.w3.org/1999/xlink" width="64" height="64" viewBox="0 0 64 64" version="1.1">
<defs>
<linearGradient id="linear0" gradientUnits="userSpaceOnUse" x1="0" y1="0" x2="0" y2="1" gradientTransform="matrix(61.867188,0,0,64,1.066406,0)">
<stop offset="0" style="stop-color:#ff6666;stop-opacity:1;"/>
<stop offset="1" style="stop-color:#d90000;stop-opacity:1;"/>
</linearGradient>
</defs>
<g id="surface1">
<path style=" stroke:none;fill-rule:evenodd;fill:url(#linear0);" d="M 24.945312 40.015625 C 23.542969 41.488281 23.097656 43.632812 23.789062 45.542969 C 24.796875 48.324219 27.855469 49.757812 30.625 48.742188 C 33.390625 47.730469 34.820312 44.660156 33.8125 41.882812 C 33.117188 39.972656 31.398438 38.625 29.382812 38.398438 L 29.367188 38.761719 L 29.105469 44.550781 L 25.191406 40.285156 Z M 44.144531 32.550781 C 42.742188 34.023438 42.296875 36.164062 42.988281 38.078125 C 43.996094 40.855469 47.054688 42.289062 49.824219 41.277344 C 52.59375 40.269531 54.019531 37.195312 53.011719 34.414062 C 52.316406 32.503906 50.601562 31.15625 48.585938 30.933594 L 48.566406 31.292969 L 48.304688 37.085938 L 44.390625 32.820312 Z M 8.015625 24.53125 C 7.175781 24.535156 6.285156 24.621094 5.332031 24.800781 C 5.332031 24.800781 11.21875 25.390625 14.148438 29.007812 C 12.910156 33.734375 11.304688 37.332031 11.304688 37.332031 L 17.066406 28.183594 C 17.066406 28.183594 13.894531 24.496094 8.015625 24.53125 Z M 37.332031 5.332031 L 32 14.933594 L 35.253906 13.996094 C 35.253906 13.996094 36.890625 9.992188 37.332031 5.332031 Z M 37.355469 0 L 27.957031 13.234375 C 25.207031 14.195312 22.636719 15.601562 20.351562 17.394531 C 10.996094 15.171875 1.066406 22.632812 1.066406 22.632812 L 10.699219 42.382812 C 12.902344 54.871094 23.828125 63.988281 36.609375 64 C 51.148438 64 62.933594 52.304688 62.933594 37.875 C 62.921875 29.660156 59.011719 21.929688 52.378906 17.003906 C 50.777344 6.089844 37.355469 0 37.355469 0 Z M 52.382812 48.222656 L 53.292969 47.667969 L 54.398438 49.492188 L 53.484375 50.046875 C 52.554688 50.613281 51.5625 51.070312 50.527344 51.410156 C 49.601562 51.710938 48.628906 51.871094 47.660156 51.882812 C 46.605469 51.882812 45.566406 51.667969 44.597656 51.253906 C 44.402344 51.167969 44.210938 51.070312 44.019531 50.976562 C 43.957031 52.511719 43.4375 53.996094 42.515625 55.230469 C 42.003906 55.925781 41.394531 56.554688 40.722656 57.101562 C 39.980469 57.714844 39.167969 58.261719 38.316406 58.730469 L 37.375 59.253906 L 36.351562 57.375 L 37.292969 56.863281 C 38.027344 56.460938 38.730469 55.988281 39.378906 55.457031 C 39.914062 55.019531 40.394531 54.507812 40.8125 53.953125 C 41.503906 53.023438 41.875 51.890625 41.886719 50.730469 C 41.886719 50.132812 41.804688 49.535156 41.644531 48.949219 C 41.515625 48.492188 43.070312 47.570312 43.410156 47.902344 C 44.011719 48.492188 44.691406 48.960938 45.453125 49.300781 C 46.144531 49.601562 46.890625 49.746094 47.648438 49.746094 C 48.394531 49.738281 49.140625 49.621094 49.855469 49.386719 C 50.738281 49.101562 51.585938 48.703125 52.382812 48.222656 Z M 52.382812 48.222656 "/>
</g>
</svg>
