<svg xmlns="http://www.w3.org/2000/svg" xmlns:xlink="http://www.w3.org/1999/xlink" width="64" height="64" viewBox="0 0 64 64" version="1.1">
<defs>
<linearGradient id="linear0" gradientUnits="userSpaceOnUse" x1="0" y1="0" x2="0" y2="1" gradientTransform="matrix(64,0,0,64,0,0)">
<stop offset="0" style="stop-color:#ff6666;stop-opacity:1;"/>
<stop offset="1" style="stop-color:#d90000;stop-opacity:1;"/>
</linearGradient>
</defs>
<g id="surface1">
<path style=" stroke:none;fill-rule:nonzero;fill:url(#linear0);" d="M 4.15625 0 C 1.859375 0.00390625 0.00390625 1.859375 0 4.15625 L 0 35.226562 C 0 37.519531 1.863281 39.382812 4.15625 39.382812 L 9.847656 39.382812 L 9.847656 46.769531 L 17.230469 54.152344 L 24.617188 54.152344 L 24.617188 59.847656 C 24.617188 62.136719 26.480469 64 28.773438 64 L 59.84375 64 C 62.140625 63.996094 63.996094 62.140625 64 59.84375 L 64 28.773438 C 63.996094 26.476562 62.140625 24.621094 59.84375 24.617188 L 39.382812 24.617188 L 39.382812 4.152344 C 39.378906 1.859375 37.523438 0.00390625 35.226562 0 Z M 4.925781 4.925781 L 34.460938 4.925781 L 34.460938 24.617188 L 28.769531 24.617188 C 27.816406 24.617188 26.933594 24.925781 26.230469 25.464844 C 25.222656 24.871094 24.296875 24.335938 23.460938 23.769531 C 25.6875 21.472656 27.554688 18.855469 29 16 C 29.210938 15.625 29.316406 15.199219 29.308594 14.769531 L 32 14.769531 L 32 9.847656 L 22.152344 9.847656 L 22.152344 7.382812 L 17.230469 7.382812 L 17.230469 9.847656 L 7.382812 9.847656 L 7.382812 14.769531 L 12.617188 14.769531 C 11.960938 15.007812 11.4375 15.507812 11.171875 16.15625 C 10.90625 16.800781 10.929688 17.523438 11.226562 18.152344 C 11.226562 18.152344 12.046875 19.882812 14 22.074219 C 14.511719 22.644531 15.097656 23.28125 15.773438 23.925781 C 12.28125 26.472656 9.308594 27.617188 9.308594 27.617188 C 8.375 27.820312 7.652344 28.542969 7.441406 29.472656 C 7.230469 30.394531 7.566406 31.359375 8.3125 31.949219 C 9.054688 32.535156 10.070312 32.648438 10.921875 32.230469 C 10.921875 32.230469 15.054688 30.691406 19.691406 27.074219 C 20.972656 28.007812 22.34375 28.980469 24 29.925781 C 24.191406 30.027344 24.398438 30.105469 24.617188 30.152344 L 24.617188 34.460938 L 14.769531 34.460938 L 13.539062 33.230469 L 12.308594 34.460938 L 4.925781 34.460938 Z M 14.308594 14.769531 L 24 14.769531 C 22.792969 16.941406 21.292969 18.933594 19.535156 20.691406 C 18.890625 20.109375 18.277344 19.492188 17.691406 18.84375 C 16.089844 17.046875 15.691406 16.15625 15.691406 16.15625 C 15.445312 15.519531 14.941406 15.019531 14.308594 14.769531 Z M 41.769531 32.773438 L 46.921875 32.773438 L 55.382812 55.691406 L 50.074219 55.691406 L 48.382812 50.769531 L 40.230469 50.769531 L 38.535156 55.691406 L 33.230469 55.691406 Z M 44.230469 39.074219 L 41.464844 47.152344 L 47.152344 47.152344 L 44.382812 39.074219 Z M 17.230469 39.382812 L 24.617188 39.382812 L 24.617188 46.769531 L 17.230469 46.769531 Z M 17.230469 39.382812 "/>
</g>
</svg>
