<svg xmlns="http://www.w3.org/2000/svg" xmlns:xlink="http://www.w3.org/1999/xlink" width="64" height="64" viewBox="0 0 64 64" version="1.1">
<defs> <linearGradient id="linear0" gradientUnits="userSpaceOnUse" x1="0" y1="0" x2="0" y2="1" gradientTransform="matrix(55.992188,0,0,56,4.003906,4)"> <stop offset="0" style="stop-color:#ff6666;stop-opacity:1;"/> <stop offset="1" style="stop-color:#d90000;stop-opacity:1;"/> </linearGradient> </defs>
<g id="surface1">
<path style=" stroke:none;fill-rule:nonzero;fill:url(#linear0);fill-opacity:1;" d="M 31.226562 1.992188 C 26.84375 2.085938 22.054688 3.445312 16.8125 6.507812 L 27.121094 23.515625 C 30.527344 21.574219 33.625 21.941406 36.632812 23.515625 L 46.71875 6.507812 C 41.910156 3.765625 36.867188 1.855469 31.226562 1.992188 M 31.804688 25.957031 C 28.785156 25.957031 26.324219 28.46875 26.324219 31.558594 C 26.324219 34.640625 28.785156 37.148438 31.804688 37.148438 C 34.820312 37.148438 37.28125 34.640625 37.28125 31.558594 C 37.28125 28.46875 34.820312 25.957031 31.804688 25.957031 M 2.910156 30.1875 C 2.792969 41.878906 7.324219 50.660156 16.53125 56.523438 L 26.972656 39.59375 C 23.777344 37.300781 22.730469 34.363281 22.792969 30.90625 M 60.554688 30.410156 L 40.953125 31.128906 C 40.898438 35.113281 39.097656 37.636719 36.269531 39.519531 L 46.289062 57.101562 C 58.429688 49.304688 60.597656 40.007812 60.554688 30.410156 M 60.554688 30.410156 "/>
</g>
</svg>
