<svg xmlns="http://www.w3.org/2000/svg" xmlns:xlink="http://www.w3.org/1999/xlink" width="64" height="64" viewBox="0 0 64 64" version="1.1">
<defs>
<linearGradient id="linear0" gradientUnits="userSpaceOnUse" x1="0" y1="0" x2="0" y2="1" gradientTransform="matrix(64.003906,0,0,63.910156,-0.00390625,0.0429688)">
<stop offset="0" style="stop-color:#ff6666;stop-opacity:1;"/>
<stop offset="1" style="stop-color:#d90000;stop-opacity:1;"/>
</linearGradient>
</defs>
<g id="surface1">
<path style=" stroke:none;fill-rule:nonzero;fill:url(#linear0);" d="M 58.660156 29.121094 C 58.671875 29.078125 58.6875 29.039062 58.699219 29 C 56.855469 22.285156 54.738281 15.753906 52.644531 10.5625 L 52.644531 10.566406 C 52.628906 10.574219 52.609375 10.589844 52.59375 10.597656 C 50.207031 4.703125 47.875 0.585938 46.09375 0.109375 C 45.875 0.0507812 45.625 0.0273438 45.34375 0.0546875 L 45.34375 0.0507812 C 36.652344 0.785156 -1.730469 39.484375 0.0585938 46.1875 C 0.515625 47.882812 4.246094 50.0625 9.652344 52.3125 L 9.769531 52.199219 C 14.886719 54.320312 21.5 56.484375 28.335938 58.378906 C 28.398438 58.34375 28.460938 58.3125 28.523438 58.28125 L 28.335938 58.460938 C 43.808594 62.742188 60.34375 65.574219 62.980469 62.929688 C 65.578125 60.328125 62.867188 44.308594 58.691406 29.078125 L 58.699219 29.078125 Z M 58.660156 29.121094 "/>
</g>
</svg>
