<svg xmlns="http://www.w3.org/2000/svg" xmlns:xlink="http://www.w3.org/1999/xlink" width="64" height="64" viewBox="0 0 64 64" version="1.1">
<defs>
<linearGradient id="linear0" gradientUnits="userSpaceOnUse" x1="0" y1="0" x2="0" y2="1" gradientTransform="matrix(64,0,0,61.25,0,1.375)">
<stop offset="0" style="stop-color:#ff6666;stop-opacity:1;"/>
<stop offset="1" style="stop-color:#d90000;stop-opacity:1;"/>
</linearGradient>
</defs>
<g id="surface1">
<path style=" stroke:none;fill-rule:nonzero;fill:url(#linear0);" d="M 46.300781 1.378906 C 45.015625 1.441406 43.847656 2.148438 43.207031 3.265625 C 42.707031 4.132812 42.566406 5.160156 42.828125 6.128906 C 43.089844 7.097656 43.71875 7.921875 44.589844 8.425781 C 45.457031 8.925781 46.488281 9.058594 47.457031 8.800781 C 48.421875 8.539062 49.246094 7.90625 49.746094 7.039062 C 50.246094 6.171875 50.382812 5.144531 50.125 4.175781 C 49.867188 3.207031 49.230469 2.382812 48.363281 1.882812 C 47.738281 1.519531 47.019531 1.34375 46.300781 1.378906 Z M 22.003906 7.28125 C 21.371094 7.28125 20.765625 7.53125 20.316406 7.980469 C 19.867188 8.429688 19.621094 9.03125 19.621094 9.664062 C 19.621094 10.980469 20.6875 12.042969 22.003906 12.042969 C 23.316406 12.042969 24.378906 10.976562 24.378906 9.664062 C 24.378906 8.351562 23.316406 7.285156 22.003906 7.28125 Z M 28 7.886719 C 27.449219 7.886719 26.914062 8.109375 26.527344 8.496094 C 26.136719 8.886719 25.914062 9.414062 25.921875 9.96875 C 25.921875 11.117188 26.851562 12.042969 28 12.042969 C 29.144531 12.042969 30.070312 11.113281 30.074219 9.96875 C 30.074219 8.820312 29.148438 7.886719 28 7.886719 Z M 15.035156 8.128906 C 14.292969 8.128906 13.574219 8.425781 13.050781 8.949219 C 12.523438 9.476562 12.226562 10.191406 12.226562 10.9375 C 12.226562 11.679688 12.523438 12.390625 13.050781 12.921875 C 13.574219 13.445312 14.292969 13.738281 15.035156 13.738281 C 15.78125 13.738281 16.492188 13.445312 17.019531 12.921875 C 17.546875 12.390625 17.839844 11.679688 17.839844 10.9375 C 17.839844 10.191406 17.546875 9.476562 17.019531 8.949219 C 16.492188 8.425781 15.78125 8.128906 15.035156 8.128906 Z M 32.9375 9.585938 C 31.9375 9.585938 31.128906 10.390625 31.128906 11.386719 C 31.125 11.867188 31.316406 12.328125 31.65625 12.667969 C 31.996094 13.007812 32.457031 13.199219 32.9375 13.195312 C 33.933594 13.195312 34.738281 12.386719 34.738281 11.386719 C 34.734375 10.390625 33.933594 9.589844 32.9375 9.585938 Z M 47.339844 11.542969 C 46.242188 11.597656 45.242188 12.203125 44.695312 13.15625 C 43.804688 14.703125 44.335938 16.675781 45.878906 17.566406 C 47.425781 18.460938 49.394531 17.933594 50.292969 16.386719 C 50.71875 15.644531 50.835938 14.765625 50.617188 13.9375 C 50.390625 13.109375 49.851562 12.398438 49.113281 11.972656 C 48.570312 11.664062 47.960938 11.515625 47.339844 11.542969 Z M 36.691406 11.882812 C 36.277344 11.882812 35.875 12.046875 35.578125 12.339844 C 35.289062 12.632812 35.121094 13.03125 35.121094 13.449219 C 35.121094 13.863281 35.285156 14.265625 35.578125 14.554688 C 35.875 14.851562 36.273438 15.015625 36.691406 15.015625 C 37.105469 15.015625 37.503906 14.847656 37.796875 14.554688 C 38.09375 14.261719 38.257812 13.863281 38.253906 13.449219 C 38.253906 12.585938 37.550781 11.882812 36.691406 11.882812 Z M 55.550781 12.703125 C 54.457031 12.757812 53.460938 13.363281 52.90625 14.316406 C 52.019531 15.859375 52.546875 17.832031 54.09375 18.726562 C 54.832031 19.15625 55.714844 19.273438 56.542969 19.050781 C 57.371094 18.828125 58.074219 18.289062 58.503906 17.542969 C 59.394531 16 58.863281 14.027344 57.320312 13.136719 C 56.785156 12.824219 56.171875 12.675781 55.550781 12.703125 Z M 23.089844 14.1875 C 21.777344 14.1875 20.707031 15.257812 20.710938 16.570312 C 20.710938 17.882812 21.777344 18.949219 23.089844 18.949219 C 24.402344 18.949219 25.472656 17.882812 25.472656 16.570312 C 25.472656 15.9375 25.222656 15.332031 24.777344 14.882812 C 24.328125 14.4375 23.71875 14.1875 23.089844 14.1875 Z M 39.476562 14.613281 C 39.125 14.609375 38.789062 14.746094 38.539062 14.996094 C 38.292969 15.242188 38.152344 15.578125 38.152344 15.933594 C 38.152344 16.285156 38.292969 16.621094 38.539062 16.867188 C 38.789062 17.117188 39.125 17.257812 39.476562 17.257812 C 39.824219 17.257812 40.164062 17.117188 40.410156 16.867188 C 40.660156 16.621094 40.796875 16.285156 40.796875 15.933594 C 40.796875 15.578125 40.660156 15.242188 40.410156 14.996094 C 40.164062 14.746094 39.824219 14.609375 39.476562 14.613281 Z M 29.085938 14.792969 C 27.941406 14.796875 27.007812 15.722656 27.007812 16.871094 C 27.011719 18.019531 27.941406 18.949219 29.085938 18.949219 C 30.230469 18.949219 31.164062 18.019531 31.164062 16.871094 C 31.167969 16.320312 30.949219 15.792969 30.554688 15.398438 C 30.167969 15.011719 29.636719 14.792969 29.085938 14.792969 Z M 16.128906 15.03125 C 15.382812 15.03125 14.667969 15.328125 14.140625 15.855469 C 13.617188 16.378906 13.320312 17.097656 13.320312 17.839844 C 13.320312 18.585938 13.617188 19.296875 14.140625 19.824219 C 14.667969 20.351562 15.382812 20.648438 16.128906 20.648438 C 16.871094 20.648438 17.585938 20.351562 18.113281 19.824219 C 18.636719 19.296875 18.933594 18.585938 18.933594 17.839844 C 18.933594 17.097656 18.636719 16.378906 18.113281 15.855469 C 17.585938 15.328125 16.871094 15.03125 16.128906 15.03125 Z M 34.019531 16.488281 C 33.023438 16.492188 32.21875 17.300781 32.214844 18.296875 C 32.214844 19.292969 33.023438 20.101562 34.019531 20.105469 C 34.5 20.105469 34.960938 19.910156 35.300781 19.570312 C 35.640625 19.234375 35.832031 18.773438 35.832031 18.296875 C 35.828125 17.296875 35.019531 16.488281 34.019531 16.488281 Z M 8.496094 17.820312 C 6.710938 17.820312 5.265625 19.269531 5.265625 21.050781 C 5.265625 22.835938 6.710938 24.28125 8.496094 24.28125 C 10.28125 24.28125 11.722656 22.835938 11.722656 21.050781 C 11.722656 19.269531 10.28125 17.820312 8.496094 17.820312 Z M 37.777344 18.789062 C 36.910156 18.789062 36.210938 19.488281 36.210938 20.351562 C 36.210938 21.214844 36.910156 21.914062 37.777344 21.914062 C 38.640625 21.914062 39.339844 21.214844 39.339844 20.351562 C 39.339844 19.488281 38.640625 18.789062 37.777344 18.789062 Z M 46.324219 20.183594 C 45.371094 20.226562 44.503906 20.757812 44.027344 21.578125 C 43.65625 22.226562 43.550781 22.992188 43.746094 23.710938 C 43.941406 24.433594 44.410156 25.042969 45.054688 25.414062 C 46.398438 26.191406 48.113281 25.726562 48.886719 24.386719 C 49.660156 23.046875 49.203125 21.332031 47.863281 20.554688 C 47.394531 20.289062 46.863281 20.15625 46.324219 20.183594 Z M 54.535156 21.339844 C 53.585938 21.386719 52.71875 21.910156 52.238281 22.738281 C 51.867188 23.382812 51.769531 24.152344 51.960938 24.867188 C 52.152344 25.589844 52.621094 26.203125 53.269531 26.574219 C 53.910156 26.949219 54.679688 27.046875 55.394531 26.855469 C 56.117188 26.664062 56.730469 26.191406 57.105469 25.546875 C 57.875 24.203125 57.414062 22.488281 56.070312 21.714844 C 55.609375 21.445312 55.070312 21.316406 54.535156 21.339844 Z M 26.195312 21.878906 C 24.878906 21.878906 23.8125 22.945312 23.8125 24.261719 C 23.8125 24.890625 24.058594 25.496094 24.507812 25.945312 C 24.957031 26.390625 25.5625 26.644531 26.195312 26.644531 C 26.828125 26.644531 27.433594 26.390625 27.878906 25.945312 C 28.328125 25.496094 28.578125 24.890625 28.574219 24.261719 C 28.574219 22.945312 27.507812 21.878906 26.195312 21.878906 Z M 32.191406 22.480469 C 31.640625 22.480469 31.109375 22.699219 30.71875 23.09375 C 30.328125 23.480469 30.113281 24.011719 30.113281 24.558594 C 30.113281 25.113281 30.328125 25.644531 30.71875 26.03125 C 31.109375 26.425781 31.640625 26.644531 32.191406 26.644531 C 33.339844 26.640625 34.269531 25.707031 34.269531 24.558594 C 34.269531 23.414062 33.339844 22.484375 32.191406 22.480469 Z M 19.226562 22.726562 C 18.484375 22.726562 17.769531 23.023438 17.242188 23.546875 C 16.714844 24.074219 16.421875 24.789062 16.421875 25.53125 C 16.421875 26.277344 16.714844 26.992188 17.242188 27.515625 C 17.769531 28.042969 18.484375 28.339844 19.226562 28.339844 C 19.972656 28.339844 20.683594 28.042969 21.210938 27.515625 C 21.734375 26.992188 22.03125 26.277344 22.03125 25.53125 C 22.03125 24.789062 21.734375 24.074219 21.210938 23.546875 C 20.683594 23.023438 19.972656 22.726562 19.226562 22.726562 Z M 61.0625 23.847656 C 60.109375 23.890625 59.238281 24.421875 58.765625 25.246094 C 58.390625 25.890625 58.289062 26.660156 58.484375 27.378906 C 58.675781 28.101562 59.148438 28.710938 59.792969 29.085938 C 61.136719 29.855469 62.847656 29.394531 63.625 28.054688 C 64.394531 26.710938 63.941406 25 62.601562 24.222656 C 62.132812 23.957031 61.601562 23.824219 61.0625 23.847656 Z M 37.128906 24.179688 C 36.648438 24.179688 36.1875 24.367188 35.847656 24.707031 C 35.507812 25.046875 35.316406 25.507812 35.316406 25.988281 C 35.320312 26.984375 36.128906 27.792969 37.128906 27.792969 C 38.125 27.792969 38.929688 26.984375 38.933594 25.988281 C 38.933594 24.988281 38.125 24.179688 37.128906 24.179688 Z M 11.597656 25.511719 C 9.8125 25.511719 8.367188 26.957031 8.367188 28.738281 C 8.367188 30.523438 9.8125 31.972656 11.597656 31.972656 C 13.378906 31.972656 14.824219 30.523438 14.824219 28.738281 C 14.824219 26.957031 13.378906 25.511719 11.597656 25.511719 Z M 43.964844 27.277344 C 43.15625 27.3125 42.421875 27.761719 42.011719 28.464844 C 41.355469 29.605469 41.746094 31.058594 42.886719 31.714844 C 44.023438 32.371094 45.480469 31.980469 46.140625 30.84375 C 46.796875 29.703125 46.40625 28.246094 45.273438 27.59375 C 44.875 27.363281 44.421875 27.253906 43.964844 27.277344 Z M 52.175781 28.433594 C 51.363281 28.472656 50.632812 28.921875 50.226562 29.625 C 49.570312 30.761719 49.960938 32.214844 51.097656 32.875 C 51.644531 33.191406 52.296875 33.277344 52.902344 33.113281 C 53.515625 32.949219 54.035156 32.546875 54.351562 32 C 55.007812 30.863281 54.621094 29.40625 53.480469 28.746094 C 53.085938 28.519531 52.632812 28.410156 52.175781 28.433594 Z M 26.496094 30.324219 C 26.191406 30.328125 25.894531 30.414062 25.632812 30.566406 C 24.769531 31.066406 24.476562 32.171875 24.972656 33.035156 C 25.472656 33.898438 26.578125 34.191406 27.441406 33.695312 C 28.304688 33.195312 28.601562 32.089844 28.101562 31.226562 C 27.773438 30.65625 27.15625 30.308594 26.496094 30.324219 Z M 3.773438 30.65625 C 2.773438 30.65625 1.8125 31.054688 1.105469 31.765625 C 0.394531 32.472656 0 33.433594 0 34.433594 C 0 36.515625 1.6875 38.207031 3.773438 38.207031 C 4.777344 38.207031 5.734375 37.8125 6.445312 37.105469 C 7.152344 36.394531 7.550781 35.4375 7.550781 34.433594 C 7.550781 33.433594 7.152344 32.472656 6.445312 31.761719 C 5.734375 31.050781 4.777344 30.65625 3.773438 30.65625 Z M 58.699219 30.941406 C 57.890625 30.980469 57.15625 31.429688 56.746094 32.132812 C 56.09375 33.269531 56.484375 34.722656 57.625 35.382812 C 58.765625 36.039062 60.214844 35.648438 60.875 34.507812 C 61.53125 33.371094 61.144531 31.914062 60.007812 31.257812 C 59.613281 31.027344 59.15625 30.921875 58.699219 30.941406 Z M 40.714844 32.617188 C 40.011719 32.652344 39.367188 33.039062 39.015625 33.65625 C 38.738281 34.132812 38.664062 34.699219 38.808594 35.230469 C 38.949219 35.769531 39.300781 36.21875 39.777344 36.496094 C 40.257812 36.773438 40.824219 36.847656 41.355469 36.703125 C 41.886719 36.5625 42.34375 36.210938 42.621094 35.734375 C 42.894531 35.257812 42.972656 34.6875 42.828125 34.15625 C 42.683594 33.625 42.335938 33.167969 41.855469 32.890625 C 41.511719 32.691406 41.117188 32.597656 40.714844 32.617188 Z M 21.300781 32.816406 C 21.035156 32.824219 20.777344 32.894531 20.550781 33.027344 C 20.191406 33.234375 19.929688 33.574219 19.820312 33.976562 C 19.714844 34.378906 19.773438 34.804688 19.980469 35.164062 C 20.1875 35.523438 20.527344 35.785156 20.933594 35.890625 C 21.332031 36 21.761719 35.945312 22.121094 35.734375 C 22.863281 35.300781 23.121094 34.347656 22.6875 33.601562 C 22.402344 33.105469 21.871094 32.804688 21.300781 32.816406 Z M 48.933594 33.78125 C 48.222656 33.8125 47.585938 34.199219 47.230469 34.8125 C 46.953125 35.289062 46.878906 35.855469 47.019531 36.390625 C 47.160156 36.925781 47.511719 37.378906 47.988281 37.65625 C 48.464844 37.933594 49.03125 38.003906 49.566406 37.863281 C 50.101562 37.71875 50.550781 37.371094 50.828125 36.890625 C 51.398438 35.898438 51.058594 34.628906 50.066406 34.054688 C 49.722656 33.855469 49.328125 33.761719 48.933594 33.78125 Z M 16.625 33.800781 C 16.402344 33.808594 16.1875 33.867188 15.996094 33.980469 C 15.363281 34.34375 15.148438 35.152344 15.511719 35.785156 C 15.6875 36.089844 15.976562 36.3125 16.316406 36.398438 C 16.65625 36.492188 17.015625 36.445312 17.320312 36.269531 C 17.625 36.09375 17.84375 35.804688 17.9375 35.464844 C 18.027344 35.125 17.976562 34.765625 17.800781 34.460938 C 17.558594 34.042969 17.109375 33.789062 16.625 33.800781 Z M 27.726562 35.039062 C 27.375 35.046875 27.035156 35.140625 26.730469 35.316406 C 26.257812 35.59375 25.90625 36.046875 25.765625 36.578125 C 25.621094 37.113281 25.695312 37.679688 25.972656 38.160156 C 26.246094 38.636719 26.703125 38.984375 27.234375 39.125 C 27.769531 39.269531 28.335938 39.191406 28.8125 38.914062 C 29.808594 38.339844 30.148438 37.070312 29.574219 36.074219 C 29.195312 35.421875 28.488281 35.019531 27.726562 35.039062 Z M 55.453125 36.289062 C 54.746094 36.320312 54.109375 36.707031 53.753906 37.320312 C 53.476562 37.800781 53.398438 38.367188 53.542969 38.898438 C 53.6875 39.433594 54.035156 39.886719 54.511719 40.164062 C 54.992188 40.441406 55.558594 40.511719 56.09375 40.371094 C 56.625 40.226562 57.078125 39.878906 57.355469 39.398438 C 57.929688 38.40625 57.589844 37.136719 56.597656 36.5625 C 56.246094 36.363281 55.851562 36.269531 55.453125 36.289062 Z M 37.027344 36.453125 C 36.410156 36.480469 35.855469 36.824219 35.546875 37.355469 C 35.3125 37.773438 35.242188 38.265625 35.367188 38.726562 C 35.496094 39.191406 35.800781 39.585938 36.210938 39.824219 C 36.628906 40.0625 37.121094 40.128906 37.585938 40.003906 C 38.046875 39.878906 38.441406 39.574219 38.679688 39.160156 C 38.921875 38.742188 38.984375 38.253906 38.859375 37.789062 C 38.734375 37.328125 38.433594 36.933594 38.015625 36.691406 C 37.714844 36.519531 37.375 36.4375 37.027344 36.453125 Z M 21.386719 36.855469 C 21.085938 36.863281 20.789062 36.949219 20.523438 37.097656 C 19.660156 37.597656 19.363281 38.703125 19.863281 39.5625 C 20.363281 40.429688 21.46875 40.722656 22.332031 40.222656 C 23.195312 39.722656 23.492188 38.621094 22.992188 37.757812 C 22.660156 37.1875 22.046875 36.84375 21.386719 36.855469 Z M 15.863281 37.210938 C 15.601562 37.21875 15.347656 37.292969 15.121094 37.425781 C 14.761719 37.632812 14.496094 37.972656 14.386719 38.371094 C 14.28125 38.777344 14.335938 39.199219 14.542969 39.558594 C 14.753906 39.921875 15.097656 40.183594 15.496094 40.289062 C 15.894531 40.394531 16.324219 40.339844 16.683594 40.132812 C 17.042969 39.925781 17.304688 39.578125 17.410156 39.179688 C 17.519531 38.78125 17.460938 38.351562 17.253906 37.992188 C 16.96875 37.5 16.4375 37.199219 15.863281 37.210938 Z M 45.242188 37.609375 C 44.628906 37.640625 44.070312 37.980469 43.765625 38.515625 C 43.265625 39.378906 43.558594 40.484375 44.425781 40.984375 C 44.839844 41.21875 45.332031 41.289062 45.796875 41.160156 C 46.257812 41.035156 46.652344 40.730469 46.890625 40.320312 C 47.390625 39.457031 47.097656 38.351562 46.230469 37.851562 C 45.933594 37.675781 45.589844 37.59375 45.242188 37.609375 Z M 30.453125 40.078125 C 30.050781 40.089844 29.664062 40.199219 29.316406 40.398438 C 28.179688 41.054688 27.792969 42.511719 28.449219 43.652344 C 29.105469 44.789062 30.558594 45.179688 31.699219 44.523438 C 32.246094 44.207031 32.648438 43.6875 32.8125 43.074219 C 32.976562 42.464844 32.890625 41.816406 32.570312 41.269531 C 32.136719 40.511719 31.324219 40.054688 30.453125 40.078125 Z M 41.597656 40.078125 C 41.058594 40.105469 40.578125 40.394531 40.3125 40.855469 C 40.105469 41.214844 40.046875 41.644531 40.15625 42.042969 C 40.265625 42.449219 40.527344 42.789062 40.886719 42.996094 C 41.636719 43.425781 42.589844 43.167969 43.019531 42.421875 C 43.226562 42.0625 43.285156 41.636719 43.179688 41.234375 C 43.070312 40.832031 42.808594 40.492188 42.453125 40.285156 C 42.191406 40.136719 41.890625 40.0625 41.597656 40.078125 Z M 51.769531 40.121094 C 51.152344 40.148438 50.59375 40.488281 50.285156 41.023438 C 50.046875 41.4375 49.984375 41.933594 50.109375 42.390625 C 50.230469 42.855469 50.535156 43.253906 50.949219 43.492188 C 51.363281 43.726562 51.859375 43.796875 52.320312 43.671875 C 52.785156 43.542969 53.179688 43.238281 53.414062 42.828125 C 53.65625 42.410156 53.71875 41.921875 53.597656 41.457031 C 53.472656 40.992188 53.167969 40.597656 52.757812 40.359375 C 52.457031 40.1875 52.117188 40.105469 51.769531 40.121094 Z M 15.953125 41.253906 C 15.652344 41.261719 15.355469 41.34375 15.09375 41.496094 C 14.675781 41.730469 14.375 42.128906 14.246094 42.59375 C 14.125 43.050781 14.1875 43.546875 14.429688 43.964844 C 14.929688 44.824219 16.03125 45.121094 16.894531 44.625 C 17.3125 44.382812 17.617188 43.988281 17.738281 43.523438 C 17.863281 43.0625 17.800781 42.566406 17.558594 42.152344 C 17.226562 41.585938 16.613281 41.234375 15.953125 41.253906 Z M 22.613281 41.570312 C 22.265625 41.578125 21.925781 41.671875 21.625 41.847656 C 21.144531 42.125 20.796875 42.574219 20.652344 43.109375 C 20.511719 43.644531 20.585938 44.210938 20.859375 44.6875 C 21.136719 45.167969 21.59375 45.515625 22.125 45.660156 C 22.660156 45.800781 23.226562 45.726562 23.703125 45.453125 C 24.183594 45.175781 24.53125 44.71875 24.675781 44.1875 C 24.816406 43.65625 24.738281 43.089844 24.46875 42.609375 C 24.085938 41.949219 23.371094 41.550781 22.613281 41.570312 Z M 48.117188 42.585938 C 47.585938 42.613281 47.105469 42.902344 46.835938 43.363281 C 46.628906 43.722656 46.570312 44.152344 46.679688 44.550781 C 46.789062 44.953125 47.046875 45.296875 47.40625 45.503906 C 47.769531 45.710938 48.195312 45.769531 48.597656 45.660156 C 48.996094 45.550781 49.339844 45.289062 49.546875 44.929688 C 49.757812 44.566406 49.8125 44.144531 49.703125 43.738281 C 49.597656 43.339844 49.335938 43 48.976562 42.792969 C 48.714844 42.640625 48.414062 42.570312 48.117188 42.585938 Z M 44.585938 44 C 44.136719 44.019531 43.726562 44.269531 43.5 44.65625 C 43.136719 45.289062 43.355469 46.097656 43.988281 46.460938 C 44.292969 46.640625 44.652344 46.6875 44.992188 46.597656 C 45.332031 46.503906 45.621094 46.285156 45.796875 45.980469 C 45.972656 45.675781 46.019531 45.316406 45.929688 44.976562 C 45.835938 44.636719 45.617188 44.347656 45.3125 44.171875 C 45.089844 44.042969 44.835938 43.984375 44.585938 44 Z M 35.027344 45.046875 C 34.558594 45.058594 34.101562 45.191406 33.691406 45.429688 C 32.351562 46.203125 31.886719 47.914062 32.664062 49.261719 C 33.035156 49.902344 33.648438 50.375 34.367188 50.566406 C 35.089844 50.765625 35.851562 50.660156 36.5 50.289062 C 37.144531 49.914062 37.613281 49.304688 37.804688 48.585938 C 37.996094 47.863281 37.894531 47.097656 37.523438 46.453125 C 37.011719 45.5625 36.054688 45.027344 35.027344 45.046875 Z M 17.183594 45.96875 C 16.832031 45.976562 16.492188 46.066406 16.1875 46.242188 C 15.710938 46.519531 15.359375 46.972656 15.21875 47.507812 C 15.074219 48.039062 15.152344 48.609375 15.429688 49.085938 C 15.703125 49.5625 16.15625 49.910156 16.691406 50.054688 C 17.222656 50.199219 17.792969 50.125 18.269531 49.847656 C 18.746094 49.570312 19.097656 49.117188 19.238281 48.585938 C 19.382812 48.050781 19.308594 47.484375 19.03125 47.003906 C 18.652344 46.347656 17.945312 45.949219 17.183594 45.96875 Z M 25.34375 46.613281 C 24.945312 46.621094 24.550781 46.730469 24.207031 46.929688 C 23.660156 47.246094 23.261719 47.769531 23.101562 48.375 C 22.9375 48.988281 23.019531 49.640625 23.339844 50.1875 C 23.996094 51.324219 25.453125 51.710938 26.59375 51.054688 C 27.726562 50.394531 28.121094 48.941406 27.464844 47.804688 C 27.027344 47.046875 26.214844 46.59375 25.34375 46.613281 Z M 41.613281 49.628906 C 41.070312 49.644531 40.542969 49.792969 40.074219 50.058594 C 39.332031 50.488281 38.792969 51.195312 38.566406 52.023438 C 38.34375 52.851562 38.460938 53.730469 38.890625 54.476562 C 39.320312 55.21875 40.023438 55.761719 40.851562 55.980469 C 41.679688 56.203125 42.5625 56.089844 43.304688 55.65625 C 44.847656 54.765625 45.375 52.792969 44.484375 51.246094 C 43.894531 50.222656 42.792969 49.605469 41.613281 49.628906 Z M 19.90625 51.003906 C 19.507812 51.015625 19.121094 51.125 18.773438 51.328125 C 17.636719 51.984375 17.246094 53.441406 17.902344 54.578125 C 18.558594 55.714844 20.015625 56.109375 21.15625 55.453125 C 22.296875 54.796875 22.683594 53.339844 22.027344 52.199219 C 21.597656 51.445312 20.78125 50.984375 19.90625 51.003906 Z M 29.921875 51.585938 C 29.449219 51.597656 28.988281 51.722656 28.578125 51.960938 C 27.238281 52.730469 26.78125 54.449219 27.550781 55.792969 C 27.925781 56.4375 28.539062 56.90625 29.257812 57.101562 C 29.976562 57.292969 30.742188 57.191406 31.386719 56.820312 C 32.03125 56.449219 32.503906 55.832031 32.695312 55.113281 C 32.886719 54.394531 32.789062 53.628906 32.410156 52.984375 C 31.898438 52.097656 30.945312 51.558594 29.921875 51.585938 Z M 50.4375 53.015625 C 49.808594 53.03125 49.1875 53.207031 48.644531 53.523438 C 46.839844 54.5625 46.21875 56.871094 47.261719 58.675781 C 48.304688 60.480469 50.613281 61.101562 52.414062 60.054688 C 54.21875 59.015625 54.835938 56.707031 53.796875 54.902344 C 53.109375 53.707031 51.820312 52.984375 50.4375 53.015625 Z M 24.484375 55.980469 C 24.015625 55.992188 23.554688 56.121094 23.148438 56.355469 C 21.804688 57.128906 21.34375 58.84375 22.121094 60.1875 C 22.492188 60.832031 23.105469 61.304688 23.824219 61.496094 C 24.542969 61.6875 25.308594 61.589844 25.957031 61.214844 C 26.601562 60.84375 27.066406 60.230469 27.261719 59.511719 C 27.453125 58.792969 27.351562 58.023438 26.980469 57.378906 C 26.464844 56.492188 25.507812 55.957031 24.484375 55.980469 Z M 36.503906 56.164062 C 35.964844 56.175781 35.433594 56.328125 34.96875 56.597656 C 33.421875 57.488281 32.890625 59.460938 33.78125 61.007812 C 34.207031 61.746094 34.914062 62.292969 35.742188 62.515625 C 36.570312 62.734375 37.453125 62.621094 38.195312 62.191406 C 38.941406 61.765625 39.480469 61.054688 39.699219 60.226562 C 39.925781 59.398438 39.804688 58.519531 39.375 57.777344 C 38.785156 56.757812 37.683594 56.136719 36.503906 56.164062 Z M 36.503906 56.164062 "/>
</g>
</svg>
