<svg xmlns="http://www.w3.org/2000/svg" xmlns:xlink="http://www.w3.org/1999/xlink" width="64" height="64" viewBox="0 0 64 64" version="1.1">
<defs>
<linearGradient id="linear0" gradientUnits="userSpaceOnUse" x1="0" y1="0" x2="0" y2="1" gradientTransform="matrix(63.382812,0,0,64,0.308594,0)">
<stop offset="0" style="stop-color:#ff6666;stop-opacity:1;"/>
<stop offset="1" style="stop-color:#d90000;stop-opacity:1;"/>
</linearGradient>
</defs>
<g id="surface1">
<path style=" stroke:none;fill-rule:evenodd;fill:url(#linear0);" d="M 32.664062 64 C 22.878906 64 15.042969 61.273438 9.148438 55.824219 C 3.253906 50.375 0.308594 42.785156 0.308594 33.058594 C 0.308594 23.511719 3.492188 15.617188 9.855469 9.371094 C 16.222656 3.125 24.089844 0 33.460938 0 C 42.476562 0 49.769531 2.550781 55.335938 7.648438 C 60.90625 12.742188 63.691406 19.035156 63.691406 26.519531 C 63.691406 33.003906 61.894531 38.367188 58.300781 42.609375 C 54.707031 46.851562 50.226562 48.972656 44.859375 48.972656 C 43.386719 48.972656 41.945312 48.589844 40.53125 47.824219 C 39.117188 47.058594 38.171875 45.910156 37.699219 44.375 C 35.875 47.441406 32.957031 48.972656 28.953125 48.972656 C 25.179688 48.972656 22.113281 47.585938 19.757812 44.816406 C 17.398438 42.046875 16.21875 38.394531 16.21875 33.855469 C 16.21875 29.140625 17.765625 24.914062 20.859375 21.171875 C 23.957031 17.429688 27.890625 15.558594 32.664062 15.558594 C 36.140625 15.558594 38.558594 16.769531 39.910156 19.183594 L 40.351562 16.707031 L 49.105469 16.707031 L 46.1875 32.441406 C 45.421875 36.273438 45.039062 38.628906 45.039062 39.511719 C 45.039062 40.515625 45.539062 41.015625 46.539062 41.015625 C 48.78125 41.015625 50.753906 39.707031 52.464844 37.085938 C 54.171875 34.460938 55.027344 30.996094 55.027344 26.695312 C 55.027344 21.449219 53.230469 17.132812 49.636719 13.742188 C 46.042969 10.355469 40.796875 8.664062 33.898438 8.664062 C 26.710938 8.664062 20.847656 10.960938 16.308594 15.558594 C 11.773438 20.15625 9.503906 26.015625 9.503906 33.148438 C 9.503906 40.21875 11.609375 45.6875 15.824219 49.546875 C 20.039062 53.40625 25.769531 55.335938 33.015625 55.335938 C 36.492188 55.335938 40.53125 54.777344 45.128906 53.65625 L 42.5625 63.292969 C 38.910156 63.765625 35.609375 64 32.664062 64 Z M 30.011719 40.308594 C 32.253906 40.308594 34.078125 39.277344 35.492188 37.214844 C 36.90625 35.152344 37.613281 32.882812 37.613281 30.40625 C 37.613281 28.464844 37.199219 26.945312 36.375 25.855469 C 35.550781 24.765625 34.375 24.21875 32.839844 24.21875 C 30.601562 24.21875 28.773438 25.175781 27.359375 27.09375 C 25.945312 29.007812 25.234375 31.324219 25.234375 34.03125 C 25.234375 35.917969 25.664062 37.433594 26.519531 38.585938 C 27.375 39.734375 28.539062 40.308594 30.011719 40.308594 Z M 30.011719 40.308594 "/>
</g>
</svg>
