<svg xmlns="http://www.w3.org/2000/svg" xmlns:xlink="http://www.w3.org/1999/xlink" width="64" height="64" viewBox="0 0 64 64" version="1.1">
<defs>
<linearGradient id="linear0" gradientUnits="userSpaceOnUse" x1="0" y1="0" x2="0" y2="1" gradientTransform="matrix(54.109375,0,0,64,4.945312,0)">
<stop offset="0" style="stop-color:#ff6666;stop-opacity:1;"/>
<stop offset="1" style="stop-color:#d90000;stop-opacity:1;"/>
</linearGradient>
</defs>
<g id="surface1">
<path style=" stroke:none;fill-rule:nonzero;fill:url(#linear0);" d="M 31.304688 0 C 24.859375 0 21.59375 4.667969 21.59375 13.875 L 21.59375 20.8125 C 21.59375 21.328125 21.453125 21.941406 21.207031 22.433594 C 21.128906 22.605469 20.734375 23.15625 20.390625 23.636719 C 18.460938 26.335938 14.195312 33.796875 13.402344 41.902344 C 13.710938 41.84375 14.027344 41.800781 14.378906 41.800781 C 15.226562 41.800781 17.472656 41.800781 21.050781 47.699219 C 21.734375 48.679688 22.09375 49.285156 22.585938 50.109375 C 22.914062 50.671875 23.320312 51.359375 23.972656 52.394531 L 24.003906 52.445312 L 24.042969 52.503906 C 24.421875 53.167969 24.808594 53.699219 25.1875 54.203125 C 25.402344 54.496094 25.625 54.804688 25.84375 55.117188 C 26.691406 54.777344 27.558594 54.265625 28.074219 53.527344 C 28.753906 52.398438 28.675781 51.058594 27.875 49.859375 C 27.542969 49.355469 26.933594 48.996094 25.46875 48.15625 C 24.59375 47.65625 23.5 47.03125 23.003906 46.609375 C 21.835938 45.613281 20.203125 43.4375 20.203125 41.710938 C 20.203125 38.027344 22.671875 32.40625 24.648438 29.070312 C 25.785156 27.171875 26.644531 25.699219 26.988281 24.453125 C 27.179688 24.585938 27.398438 24.714844 27.699219 24.820312 L 27.746094 24.835938 L 27.804688 24.851562 C 28.769531 25.105469 29.738281 25.0625 30.367188 25.0625 C 31.675781 25.0625 32.617188 24.433594 33.496094 23.90625 C 34.355469 23.382812 35.207031 22.894531 35.332031 22.851562 C 35.960938 24.039062 36.777344 25.140625 37.621094 26.285156 C 39.941406 29.402344 42.726562 34.65625 43.546875 42.457031 C 44.628906 41.882812 45.242188 41.710938 46.566406 41.710938 C 46.597656 41.710938 46.628906 41.71875 46.65625 41.71875 C 46.773438 41.710938 46.886719 41.699219 47.007812 41.699219 C 47.351562 41.699219 47.703125 41.722656 48.050781 41.757812 C 48.871094 41.804688 49.96875 42.089844 50.613281 42.308594 C 51.695312 42.628906 52.589844 43.195312 53.21875 43.925781 C 53.78125 43.929688 54.324219 44.058594 54.824219 44.304688 C 54.824219 43.398438 54.890625 42.066406 54.890625 41.710938 C 54.890625 37.132812 51.890625 30.8125 49.632812 27.570312 C 49.164062 26.898438 48.714844 26.273438 48.28125 25.667969 C 46.28125 22.898438 44.695312 20.707031 43.792969 16.941406 C 43.195312 14.488281 43.117188 13.726562 43.035156 13 C 42.957031 12.261719 42.871094 11.492188 42.375 9.421875 C 41.480469 5.222656 40.367188 0 31.304688 0 Z M 27.144531 8.328125 C 28.675781 8.328125 29.921875 11.117188 29.921875 13.421875 C 29.921875 13.558594 29.898438 13.785156 29.890625 13.984375 C 29.789062 13.980469 29.683594 13.964844 29.574219 13.964844 C 29.179688 13.964844 28.8125 14.023438 28.460938 14.117188 C 28.292969 13.230469 27.785156 12.574219 27.144531 12.574219 C 26.378906 12.574219 25.757812 13.507812 25.757812 14.65625 C 25.757812 14.9375 25.792969 15.203125 25.863281 15.449219 C 25.488281 15.726562 25.203125 15.96875 25.035156 16.136719 L 24.902344 16.246094 C 24.800781 16.027344 24.710938 15.800781 24.640625 15.566406 C 24.480469 14.597656 24.367188 13.421875 24.367188 13.421875 C 24.367188 11.121094 25.609375 8.328125 27.144531 8.328125 Z M 34.078125 8.328125 C 35.613281 8.328125 36.855469 11.117188 36.855469 13.421875 C 36.855469 14.277344 36.671875 15.285156 36.371094 16.078125 C 36.007812 15.925781 35.636719 15.800781 35.253906 15.703125 C 35.375 15.390625 35.46875 15.046875 35.46875 14.65625 C 35.46875 13.507812 34.84375 12.574219 34.078125 12.574219 C 33.316406 12.574219 32.691406 13.507812 32.691406 14.65625 L 32.691406 14.671875 C 32.257812 14.492188 31.808594 14.339844 31.347656 14.214844 C 31.324219 13.953125 31.3125 13.6875 31.304688 13.421875 C 31.304688 11.117188 32.546875 8.328125 34.078125 8.328125 Z M 29.574219 16.734375 C 30.140625 16.734375 30.960938 16.960938 31.707031 17.265625 C 32.457031 17.566406 33.089844 17.898438 33.621094 18.125 L 33.726562 18.171875 L 33.839844 18.195312 C 34.546875 18.363281 35.179688 18.542969 35.441406 18.675781 C 35.371094 19.273438 35.300781 19.601562 35.269531 19.648438 C 35.226562 19.707031 35.03125 19.890625 34.324219 20.273438 C 33.449219 20.585938 32.78125 21.097656 32.0625 21.527344 C 31.277344 22 30.484375 22.289062 30.367188 22.289062 C 29.761719 22.289062 28.921875 22.242188 28.585938 22.171875 C 28.714844 22.210938 28.488281 22.097656 28.199219 21.832031 C 27.890625 21.539062 27.507812 21.140625 27.117188 20.722656 L 27.011719 20.621094 L 26.902344 20.539062 C 26.460938 20.226562 26.113281 19.945312 25.945312 19.742188 C 25.773438 19.539062 25.757812 19.480469 25.757812 19.34375 C 25.757812 19.136719 25.71875 19.265625 25.84375 19.121094 C 25.96875 18.976562 26.347656 18.675781 26.859375 18.222656 L 26.90625 18.183594 L 26.953125 18.136719 C 26.878906 18.214844 27.378906 17.722656 27.929688 17.363281 C 28.476562 17.007812 29.152344 16.734375 29.574219 16.734375 Z M 47.007812 44.480469 C 45.710938 44.480469 44.8125 44.867188 44.566406 45.175781 C 45.132812 45.828125 45.480469 46.457031 45.835938 47.59375 C 46.21875 48.441406 47.183594 48.652344 47.957031 48.652344 C 50.308594 48.652344 50.765625 47.234375 51.507812 46.441406 C 51.507812 46.441406 51.3125 46.21875 51.3125 46.011719 C 51.117188 45.589844 50.539062 45.164062 49.773438 44.953125 C 49.191406 44.742188 48.226562 44.53125 47.839844 44.53125 C 47.5625 44.496094 47.285156 44.480469 47.007812 44.480469 Z M 14.378906 44.570312 C 13.410156 44.570312 12.9375 45.050781 12.292969 45.695312 C 11.648438 46.335938 10.964844 47.332031 9.835938 48.136719 C 8.847656 49.425781 5.878906 48.183594 5.03125 50.125 C 4.558594 51.1875 6.179688 52.585938 6.179688 54.984375 C 6.179688 55.953125 5.371094 56.59375 5.210938 57.234375 C 5.050781 58.03125 4.886719 58.511719 5.210938 59.152344 C 5.851562 60.113281 6.660156 60.441406 12.132812 61.550781 C 15.023438 62.199219 17.761719 63.804688 19.527344 63.960938 C 21.296875 64.117188 24.351562 63.960938 24.351562 59.636719 C 24.511719 57.070312 23.066406 56.433594 21.621094 53.867188 C 20.011719 51.300781 19.851562 50.824219 18.726562 49.21875 C 17.761719 47.617188 15.667969 44.574219 14.378906 44.574219 Z M 42.730469 47.34375 C 42.402344 47.992188 42.402344 48.488281 42.402344 50.125 C 42.402344 51.4375 42.402344 52.90625 42.242188 54.058594 C 41.910156 56.84375 41.019531 58.097656 41.019531 59.730469 C 41.019531 61.539062 41.511719 62.6875 42.167969 63.179688 C 42.65625 63.671875 43.480469 64 45.285156 64 C 47.085938 64 48.230469 63.34375 49.378906 62.199219 C 50.199219 61.375 50.855469 61.050781 53.15625 59.40625 C 54.953125 58.261719 57.742188 56.789062 58.230469 56.296875 C 58.5625 55.96875 59.054688 55.800781 59.054688 54.8125 C 59.054688 53.996094 58.398438 53.667969 57.90625 53.507812 C 57.253906 53.175781 56.109375 52.683594 55.121094 51.207031 C 54.691406 50.5 54.757812 48.671875 54.242188 47.558594 L 53.53125 48.324219 C 53.453125 48.410156 53.378906 48.523438 53.300781 48.628906 C 52.628906 49.539062 51.226562 51.425781 47.957031 51.425781 C 45.808594 51.425781 44.074219 50.421875 43.3125 48.734375 L 43.238281 48.585938 L 43.183594 48.414062 C 43.011719 47.863281 42.871094 47.566406 42.730469 47.34375 Z M 38.945312 56.210938 C 37.621094 57.347656 35.601562 58.449219 32.691406 58.449219 C 29.738281 58.449219 27.742188 57.359375 26.476562 56.242188 C 26.914062 57.164062 27.207031 58.261719 27.128906 59.722656 C 27.128906 60.246094 27.074219 60.746094 27 61.222656 L 38.355469 61.222656 C 38.285156 60.730469 38.246094 60.230469 38.242188 59.730469 C 38.242188 58.507812 38.546875 57.511719 38.84375 56.542969 C 38.875 56.4375 38.90625 56.316406 38.945312 56.207031 Z M 38.945312 56.210938 "/>
</g>
</svg>
