<svg xmlns="http://www.w3.org/2000/svg" xmlns:xlink="http://www.w3.org/1999/xlink" width="64" height="64" viewBox="0 0 64 64" version="1.1">
<defs>
<linearGradient id="linear0" gradientUnits="userSpaceOnUse" x1="0" y1="0" x2="0" y2="1" gradientTransform="matrix(64,0,0,64,0,0)">
<stop offset="0" style="stop-color:#ff6666;stop-opacity:1;"/>
<stop offset="1" style="stop-color:#d90000;stop-opacity:1;"/>
</linearGradient>
</defs>
<g id="surface1">
<path style=" stroke:none;fill-rule:nonzero;fill:url(#linear0);" d="M 6.398438 0 C 2.863281 0 0 2.863281 0 6.398438 L 0 22.398438 C 0 25.9375 2.863281 28.800781 6.398438 28.800781 L 22.398438 28.800781 C 25.9375 28.800781 28.800781 25.9375 28.800781 22.398438 L 28.800781 6.398438 C 28.800781 2.863281 25.9375 0 22.398438 0 Z M 41.601562 0 C 38.0625 0 35.199219 2.863281 35.199219 6.398438 L 35.199219 22.398438 C 35.199219 25.9375 38.0625 28.800781 41.601562 28.800781 L 57.601562 28.800781 C 61.136719 28.800781 64 25.9375 64 22.398438 L 64 6.398438 C 64 2.863281 61.136719 0 57.601562 0 Z M 12.800781 6.398438 L 16 6.398438 L 16 12.800781 L 22.398438 12.800781 L 22.398438 16 L 16 16 L 16 22.398438 L 12.800781 22.398438 L 12.800781 16 L 6.398438 16 L 6.398438 12.800781 L 12.800781 12.800781 Z M 41.601562 12.800781 L 57.601562 12.800781 L 57.601562 16 L 41.601562 16 Z M 6.398438 35.199219 C 2.863281 35.199219 0 38.0625 0 41.601562 L 0 57.601562 C 0 61.136719 2.863281 64 6.398438 64 L 22.398438 64 C 25.9375 64 28.800781 61.136719 28.800781 57.601562 L 28.800781 41.601562 C 28.800781 38.0625 25.9375 35.199219 22.398438 35.199219 Z M 41.601562 35.199219 C 38.0625 35.199219 35.199219 38.0625 35.199219 41.601562 L 35.199219 57.601562 C 35.199219 61.136719 38.0625 64 41.601562 64 L 57.601562 64 C 61.136719 64 64 61.136719 64 57.601562 L 64 41.601562 C 64 38.0625 61.136719 35.199219 57.601562 35.199219 Z M 8.699219 41.699219 L 14.398438 47.300781 L 20.101562 41.699219 L 22.300781 43.898438 L 16.699219 49.601562 L 22.300781 55.300781 L 20.101562 57.5 L 14.398438 51.898438 L 8.699219 57.5 L 6.5 55.300781 L 12.101562 49.601562 L 6.5 43.898438 Z M 41.601562 44.800781 L 57.601562 44.800781 L 57.601562 48 L 41.601562 48 Z M 41.601562 51.199219 L 57.601562 51.199219 L 57.601562 54.398438 L 41.601562 54.398438 Z M 41.601562 51.199219 "/>
</g>
</svg>
