<svg xmlns="http://www.w3.org/2000/svg" xmlns:xlink="http://www.w3.org/1999/xlink" width="64px" height="64px" viewBox="0 0 64 64" version="1.1">
<defs>
<linearGradient id="linear0" gradientUnits="userSpaceOnUse" x1="0" y1="128" x2="128" y2="0" gradientTransform="matrix(0.432432,0,0,0.432432,4.324324,4.324324)">
<stop offset="0" style="stop-color:#ff6666;stop-opacity:1;"/>
<stop offset="1" style="stop-color:#d90000;stop-opacity:1;"/>
</linearGradient>
</defs>
<g id="surface1">
<path style=" stroke:none;fill-rule:nonzero;fill:url(#linear0);" d="M 31.914062 8.09375 L 31.777344 8.164062 L 23.34375 12.027344 L 22.710938 12.3125 L 23.34375 12.609375 L 31.738281 16.539062 L 31.871094 16.609375 L 32.007812 16.539062 L 40.398438 12.648438 L 41.035156 12.351562 L 40.398438 12.054688 L 32.046875 8.164062 Z M 31.914062 8.8125 L 39.492188 12.351562 L 31.871094 15.878906 L 24.238281 12.324219 Z M 42.574219 13.09375 C 42.5625 13.097656 42.554688 13.105469 42.546875 13.109375 C 42.492188 13.117188 42.4375 13.140625 42.398438 13.175781 L 34.15625 17.011719 C 34.078125 17.035156 34.011719 17.082031 33.964844 17.148438 C 33.964844 17.152344 33.964844 17.160156 33.964844 17.164062 C 33.949219 17.183594 33.9375 17.207031 33.925781 17.230469 C 33.914062 17.285156 33.914062 17.335938 33.925781 17.390625 C 33.9375 17.453125 33.960938 17.511719 34.007812 17.554688 C 34.011719 17.5625 34.011719 17.570312 34.019531 17.582031 C 34.023438 17.582031 34.027344 17.582031 34.035156 17.582031 C 34.039062 17.585938 34.039062 17.589844 34.046875 17.59375 C 34.050781 17.59375 34.054688 17.59375 34.0625 17.59375 C 34.0625 17.597656 34.066406 17.605469 34.074219 17.609375 C 34.078125 17.613281 34.082031 17.617188 34.085938 17.621094 C 34.089844 17.621094 34.09375 17.621094 34.101562 17.621094 C 34.105469 17.621094 34.109375 17.621094 34.113281 17.621094 C 34.132812 17.632812 34.148438 17.640625 34.167969 17.648438 L 34.195312 17.648438 L 44.683594 22.417969 L 44.683594 35.511719 C 44.679688 35.550781 44.683594 35.585938 44.695312 35.621094 C 44.691406 35.632812 44.691406 35.636719 44.695312 35.648438 C 44.695312 35.652344 44.695312 35.660156 44.695312 35.664062 C 44.695312 35.664062 44.695312 35.671875 44.695312 35.675781 C 44.703125 35.6875 44.710938 35.703125 44.722656 35.714844 C 44.726562 35.726562 44.730469 35.734375 44.738281 35.742188 C 44.742188 35.753906 44.753906 35.761719 44.761719 35.769531 C 44.761719 35.773438 44.761719 35.78125 44.761719 35.785156 C 44.777344 35.800781 44.796875 35.8125 44.816406 35.824219 C 44.828125 35.835938 44.839844 35.84375 44.859375 35.851562 C 44.863281 35.855469 44.863281 35.863281 44.871094 35.863281 C 44.882812 35.871094 44.898438 35.875 44.914062 35.878906 C 44.917969 35.878906 44.929688 35.878906 44.9375 35.878906 C 44.949219 35.886719 44.964844 35.886719 44.980469 35.890625 C 44.984375 35.890625 44.988281 35.890625 44.992188 35.890625 C 44.996094 35.890625 45 35.890625 45.007812 35.890625 C 45.023438 35.886719 45.039062 35.886719 45.0625 35.878906 C 45.0625 35.878906 45.066406 35.878906 45.074219 35.878906 C 45.089844 35.875 45.109375 35.871094 45.128906 35.863281 C 45.132812 35.863281 45.136719 35.863281 45.140625 35.863281 C 45.160156 35.855469 45.179688 35.839844 45.195312 35.824219 L 45.222656 35.8125 L 53.464844 31.972656 C 53.488281 31.964844 53.511719 31.957031 53.535156 31.945312 C 53.539062 31.941406 53.550781 31.9375 53.5625 31.933594 C 53.566406 31.929688 53.578125 31.921875 53.585938 31.917969 C 53.613281 31.898438 53.636719 31.878906 53.65625 31.851562 C 53.65625 31.847656 53.65625 31.839844 53.65625 31.835938 C 53.660156 31.835938 53.664062 31.828125 53.667969 31.824219 C 53.679688 31.8125 53.6875 31.796875 53.695312 31.785156 C 53.695312 31.78125 53.695312 31.773438 53.695312 31.769531 C 53.699219 31.765625 53.703125 31.761719 53.710938 31.757812 C 53.710938 31.738281 53.71875 31.71875 53.722656 31.703125 C 53.722656 31.699219 53.722656 31.691406 53.722656 31.6875 C 53.726562 31.660156 53.726562 31.625 53.722656 31.59375 L 53.722656 18.09375 L 53.535156 18 L 42.816406 13.148438 C 42.808594 13.144531 42.796875 13.136719 42.789062 13.136719 L 42.761719 13.121094 C 42.746094 13.113281 42.726562 13.101562 42.710938 13.09375 C 42.695312 13.09375 42.683594 13.09375 42.667969 13.09375 C 42.660156 13.09375 42.648438 13.09375 42.640625 13.09375 C 42.632812 13.09375 42.621094 13.09375 42.613281 13.09375 C 42.601562 13.09375 42.585938 13.09375 42.574219 13.09375 Z M 21.332031 13.175781 C 21.316406 13.179688 21.300781 13.183594 21.289062 13.1875 C 21.28125 13.191406 21.269531 13.199219 21.261719 13.203125 C 21.253906 13.207031 21.242188 13.210938 21.238281 13.214844 C 21.230469 13.214844 21.226562 13.214844 21.222656 13.214844 L 21.195312 13.230469 C 21.1875 13.234375 21.175781 13.238281 21.167969 13.242188 L 10.464844 18.09375 L 10.277344 18.175781 L 10.277344 31.6875 C 10.273438 31.703125 10.273438 31.714844 10.277344 31.730469 L 10.277344 31.742188 C 10.277344 31.746094 10.277344 31.753906 10.277344 31.757812 C 10.277344 31.761719 10.277344 31.765625 10.277344 31.769531 C 10.273438 31.78125 10.273438 31.789062 10.277344 31.796875 C 10.277344 31.800781 10.277344 31.808594 10.277344 31.8125 C 10.28125 31.8125 10.285156 31.820312 10.289062 31.824219 C 10.289062 31.828125 10.289062 31.835938 10.289062 31.835938 C 10.292969 31.839844 10.296875 31.847656 10.304688 31.851562 C 10.304688 31.855469 10.304688 31.863281 10.304688 31.863281 C 10.308594 31.867188 10.3125 31.875 10.316406 31.878906 C 10.316406 31.882812 10.316406 31.886719 10.316406 31.890625 C 10.316406 31.894531 10.316406 31.902344 10.316406 31.90625 C 10.320312 31.910156 10.324219 31.914062 10.332031 31.917969 C 10.332031 31.921875 10.332031 31.929688 10.332031 31.933594 C 10.339844 31.945312 10.355469 31.960938 10.371094 31.972656 C 10.378906 31.976562 10.386719 31.984375 10.398438 31.988281 C 10.40625 31.996094 10.414062 32.007812 10.425781 32.011719 C 10.433594 32.015625 10.441406 32.023438 10.453125 32.027344 C 10.46875 32.039062 10.488281 32.046875 10.507812 32.054688 C 10.511719 32.054688 10.511719 32.054688 10.519531 32.054688 C 10.527344 32.058594 10.539062 32.0625 10.546875 32.066406 L 18.789062 35.90625 C 18.804688 35.921875 18.824219 35.9375 18.84375 35.945312 L 18.859375 35.945312 C 18.863281 35.949219 18.863281 35.957031 18.871094 35.960938 C 18.875 35.960938 18.878906 35.960938 18.886719 35.960938 C 18.886719 35.960938 18.890625 35.960938 18.898438 35.960938 C 18.902344 35.960938 18.90625 35.960938 18.914062 35.960938 C 18.917969 35.960938 18.929688 35.96875 18.9375 35.972656 C 18.941406 35.972656 18.945312 35.972656 18.953125 35.972656 C 18.957031 35.972656 18.960938 35.972656 18.964844 35.972656 C 18.96875 35.972656 18.972656 35.972656 18.980469 35.972656 C 18.984375 35.972656 18.988281 35.972656 18.992188 35.972656 C 19 35.972656 19.011719 35.972656 19.019531 35.972656 C 19.023438 35.972656 19.027344 35.972656 19.035156 35.972656 C 19.054688 35.96875 19.078125 35.964844 19.101562 35.960938 C 19.144531 35.941406 19.1875 35.914062 19.222656 35.878906 C 19.230469 35.871094 19.238281 35.863281 19.25 35.851562 C 19.253906 35.847656 19.257812 35.839844 19.261719 35.835938 C 19.265625 35.835938 19.269531 35.828125 19.277344 35.824219 C 19.277344 35.820312 19.277344 35.8125 19.277344 35.8125 C 19.28125 35.808594 19.285156 35.800781 19.289062 35.796875 C 19.289062 35.792969 19.289062 35.789062 19.289062 35.785156 C 19.292969 35.765625 19.300781 35.746094 19.304688 35.730469 C 19.308594 35.714844 19.3125 35.703125 19.316406 35.6875 C 19.324219 35.648438 19.324219 35.609375 19.316406 35.566406 L 19.316406 22.511719 L 29.816406 17.742188 L 29.871094 17.730469 L 29.898438 17.714844 C 29.945312 17.691406 29.988281 17.652344 30.019531 17.609375 C 30.027344 17.601562 30.039062 17.589844 30.046875 17.582031 C 30.050781 17.570312 30.054688 17.5625 30.0625 17.554688 C 30.0625 17.539062 30.070312 17.515625 30.074219 17.5 C 30.078125 17.496094 30.082031 17.488281 30.085938 17.488281 C 30.085938 17.484375 30.085938 17.476562 30.085938 17.472656 C 30.085938 17.46875 30.085938 17.460938 30.085938 17.460938 C 30.085938 17.441406 30.085938 17.421875 30.085938 17.40625 C 30.085938 17.402344 30.085938 17.394531 30.085938 17.390625 C 30.085938 17.375 30.078125 17.355469 30.074219 17.335938 C 30.074219 17.335938 30.074219 17.328125 30.074219 17.324219 C 30.074219 17.320312 30.074219 17.3125 30.074219 17.3125 C 30.066406 17.308594 30.0625 17.300781 30.0625 17.296875 C 30.0625 17.292969 30.0625 17.289062 30.0625 17.285156 C 30.054688 17.28125 30.050781 17.273438 30.046875 17.269531 C 30.039062 17.261719 30.039062 17.253906 30.035156 17.242188 C 30.023438 17.230469 30.015625 17.214844 30.007812 17.203125 C 30 17.199219 29.996094 17.191406 29.992188 17.1875 C 29.988281 17.1875 29.984375 17.179688 29.980469 17.175781 C 29.972656 17.175781 29.96875 17.175781 29.964844 17.175781 C 29.960938 17.164062 29.957031 17.160156 29.953125 17.148438 C 29.9375 17.140625 29.925781 17.136719 29.914062 17.136719 C 29.90625 17.132812 29.902344 17.125 29.898438 17.121094 L 29.84375 17.09375 L 21.601562 13.269531 L 21.601562 13.257812 C 21.59375 13.257812 21.589844 13.257812 21.585938 13.257812 C 21.578125 13.253906 21.566406 13.246094 21.5625 13.242188 C 21.527344 13.21875 21.488281 13.199219 21.453125 13.1875 C 21.429688 13.183594 21.40625 13.179688 21.386719 13.175781 C 21.375 13.175781 21.363281 13.175781 21.359375 13.175781 C 21.347656 13.175781 21.335938 13.175781 21.332031 13.175781 Z M 42.628906 13.785156 L 52.628906 18.3125 L 45.046875 21.835938 C 45.035156 21.839844 45.015625 21.84375 45.007812 21.851562 L 35.007812 17.324219 Z M 21.371094 13.863281 L 28.980469 17.417969 L 18.992188 21.933594 C 18.984375 21.929688 18.972656 21.921875 18.964844 21.917969 L 11.371094 18.390625 L 12.128906 18.054688 Z M 31.914062 18.417969 L 21.75 23.082031 L 31.914062 27.824219 L 41.992188 23.121094 Z M 53.074219 18.796875 L 53.074219 31.445312 L 45.332031 35.054688 L 45.332031 22.417969 Z M 10.925781 18.890625 L 18.667969 22.511719 L 18.667969 35.136719 L 10.925781 31.539062 Z M 21.371094 24.164062 L 21.371094 36.757812 L 31.222656 41.335938 L 31.222656 28.757812 Z M 42.34375 24.324219 L 32.695312 28.835938 L 32.695312 41.175781 L 42.34375 36.675781 Z M 10.277344 32.5 L 10.277344 45.8125 L 10.464844 45.90625 L 18.859375 49.8125 L 19.316406 50.027344 L 19.316406 37.835938 L 19.128906 37.757812 L 10.738281 33.835938 Z M 53.535156 33.621094 L 53.074219 33.835938 L 44.683594 37.757812 L 44.492188 37.835938 L 44.492188 50.027344 L 44.953125 49.8125 L 53.34375 45.90625 L 53.535156 45.8125 Z M 10.925781 34.648438 L 18.667969 38.242188 L 18.667969 49.011719 L 10.925781 45.40625 Z M 52.886719 34.648438 L 52.886719 45.40625 L 45.140625 49.011719 L 45.140625 38.242188 Z M 21.425781 38.8125 L 21.425781 51.011719 L 21.613281 51.09375 L 31.695312 55.796875 C 31.703125 55.800781 31.710938 55.808594 31.722656 55.8125 C 31.738281 55.820312 31.757812 55.832031 31.777344 55.835938 C 31.78125 55.839844 31.785156 55.847656 31.789062 55.851562 L 31.816406 55.851562 C 31.824219 55.855469 31.835938 55.863281 31.84375 55.863281 L 31.914062 55.90625 L 31.980469 55.863281 C 31.988281 55.863281 31.996094 55.855469 32.007812 55.851562 L 32.035156 55.835938 C 32.0625 55.828125 32.085938 55.8125 32.113281 55.796875 L 42.128906 51.136719 L 42.316406 51.054688 L 42.316406 38.851562 L 41.859375 39.066406 L 31.914062 43.703125 L 21.886719 39.027344 Z M 22.074219 39.835938 L 31.585938 44.269531 L 31.585938 55.027344 L 22.074219 50.59375 Z M 41.667969 39.878906 L 41.667969 50.636719 L 32.238281 55.027344 L 32.238281 44.269531 Z M 41.667969 39.878906 "/>
</g>
</svg>
