<svg xmlns="http://www.w3.org/2000/svg" xmlns:xlink="http://www.w3.org/1999/xlink" width="64" height="64" viewBox="0 0 64 64" version="1.1">
<defs>
<linearGradient id="linear0" gradientUnits="userSpaceOnUse" x1="0" y1="0" x2="0" y2="1" gradientTransform="matrix(55.820312,0,0,64,4.089844,0)">
<stop offset="0" style="stop-color:#ff6666;stop-opacity:1;"/>
<stop offset="1" style="stop-color:#d90000;stop-opacity:1;"/>
</linearGradient>
</defs>
<g id="surface1">
<path style=" stroke:none;fill-rule:evenodd;fill:url(#linear0);" d="M 35.144531 0 C 43.441406 0 49.644531 1.886719 53.753906 5.660156 C 57.859375 9.429688 59.910156 15.128906 59.910156 22.761719 C 59.910156 24.351562 59.871094 25.566406 59.789062 26.402344 L 57.398438 56.457031 C 57.230469 58.800781 56.457031 60.605469 55.070312 61.863281 C 53.691406 63.121094 51.824219 63.746094 49.476562 63.746094 C 47.296875 63.746094 45.558594 63.054688 44.261719 61.671875 C 42.960938 60.289062 42.394531 58.511719 42.558594 56.332031 L 42.6875 53.941406 C 41.011719 57.125 38.664062 59.601562 35.648438 61.359375 C 32.628906 63.121094 29.191406 64 25.335938 64 C 21.3125 64 17.6875 63.222656 14.460938 61.671875 C 11.234375 60.121094 8.699219 57.984375 6.851562 55.261719 C 5.007812 52.539062 4.089844 49.457031 4.089844 46.019531 C 4.089844 41.328125 5.28125 37.574219 7.667969 34.769531 C 10.058594 31.960938 13.894531 29.90625 19.175781 28.605469 C 24.457031 27.304688 31.496094 26.65625 40.300781 26.65625 L 44.824219 26.65625 L 44.953125 24.269531 C 45.285156 20.074219 44.488281 16.976562 42.558594 14.964844 C 40.632812 12.949219 37.574219 11.945312 33.382812 11.945312 C 28.4375 11.945312 22.777344 13.578125 16.40625 16.847656 C 15.320312 17.351562 14.273438 17.605469 13.265625 17.605469 C 11.753906 17.605469 10.496094 17.078125 9.492188 16.03125 C 8.488281 14.984375 7.984375 13.707031 7.984375 12.195312 C 7.984375 11.105469 8.320312 9.996094 8.992188 8.863281 C 9.660156 7.734375 10.625 6.789062 11.882812 6.035156 C 14.898438 4.191406 18.460938 2.722656 22.566406 1.636719 C 26.675781 0.546875 30.871094 0 35.144531 0 Z M 29.359375 52.683594 C 33.296875 52.683594 36.628906 51.28125 39.355469 48.472656 C 42.082031 45.664062 43.609375 42.078125 43.945312 37.71875 L 44.195312 34.957031 L 40.675781 34.957031 C 35.3125 34.957031 31.097656 35.25 28.039062 35.835938 C 24.980469 36.421875 22.777344 37.40625 21.441406 38.789062 C 20.097656 40.171875 19.429688 42.039062 19.429688 44.382812 C 19.429688 46.898438 20.328125 48.910156 22.128906 50.421875 C 23.929688 51.929688 26.339844 52.683594 29.359375 52.683594 Z M 29.359375 52.683594 "/>
</g>
</svg>
