<svg xmlns="http://www.w3.org/2000/svg" xmlns:xlink="http://www.w3.org/1999/xlink" width="64" height="64" viewBox="0 0 64 64" version="1.1">
<defs>
<linearGradient id="linear0" gradientUnits="userSpaceOnUse" x1="0" y1="0" x2="0" y2="1" gradientTransform="matrix(64,0,0,52.3125,0,5.84375)">
<stop offset="0" style="stop-color:#ff6666;stop-opacity:1;"/>
<stop offset="1" style="stop-color:#d90000;stop-opacity:1;"/>
</linearGradient>
</defs>
<g id="surface1">
<path style=" stroke:none;fill-rule:nonzero;fill:url(#linear0);" d="M 39.40625 6.714844 C 34.613281 8.171875 30.003906 14.640625 31.449219 21.960938 C 15.546875 21.003906 8.523438 12.480469 4.296875 8.402344 C -0.0078125 16.003906 4.40625 23.390625 8.265625 25.78125 C 6.230469 25.894531 3.765625 25.011719 2.546875 24.246094 C 2.082031 31.257812 7.792969 36.117188 12.652344 37.378906 C 11.101562 37.839844 9.636719 37.902344 7.132812 37.539062 C 9.265625 44.589844 14.992188 46.476562 19.257812 46.785156 C 13.765625 51.550781 7.171875 52.589844 0 52.242188 C 18.589844 63.617188 37.367188 56.617188 46.503906 47.691406 C 54.179688 40.195312 57.609375 28.96875 57.726562 18.925781 C 59.484375 17.5 63.035156 14.472656 64 12.105469 C 62.597656 12.644531 59.828125 13.925781 56.9375 14.042969 C 59.316406 12.480469 62.046875 9.355469 62.332031 6.910156 C 59.695312 8.347656 56.644531 9.589844 54.03125 9.988281 C 49.105469 5.230469 44.308594 5.234375 39.40625 6.722656 Z M 39.40625 6.714844 "/>
</g>
</svg>
