<svg xmlns="http://www.w3.org/2000/svg" xmlns:xlink="http://www.w3.org/1999/xlink" width="64" height="64" viewBox="0 0 64 64" version="1.1">
<defs>
<linearGradient id="linear0" gradientUnits="userSpaceOnUse" x1="0" y1="0" x2="0" y2="1" gradientTransform="matrix(64,0,0,42.664062,0,10.667969)">
<stop offset="0" style="stop-color:#ff6666;stop-opacity:1;"/>
<stop offset="1" style="stop-color:#d90000;stop-opacity:1;"/>
</linearGradient>
</defs>
<g id="surface1">
<path style=" stroke:none;fill-rule:evenodd;fill:url(#linear0);" d="M 32 10.667969 C 23.714844 10.667969 16.660156 15.585938 13.625 22.542969 C 5.910156 23.65625 0 30.03125 0 37.816406 C 0 46.386719 7.164062 53.332031 16 53.332031 L 50 53.332031 C 57.730469 53.332031 64 47.257812 64 39.757812 C 64 32.789062 58.597656 27.078125 51.625 26.304688 C 49.808594 17.40625 41.707031 10.667969 32 10.667969 Z M 27.730469 27.730469 L 27.730469 34.132812 L 36.269531 34.132812 L 36.269531 27.730469 Z M 27.730469 23.46875 L 36.269531 23.46875 C 40.53125 23.46875 40.53125 27.730469 40.53125 27.730469 L 40.53125 44.800781 L 36.269531 44.800781 L 36.269531 38.398438 L 27.730469 38.398438 L 27.730469 44.800781 L 23.46875 44.800781 L 23.46875 27.730469 C 23.46875 23.46875 27.730469 23.46875 27.730469 23.46875 Z M 27.730469 23.46875 "/>
</g>
</svg>
