<svg xmlns="http://www.w3.org/2000/svg" xmlns:xlink="http://www.w3.org/1999/xlink" width="64" height="64" viewBox="0 0 64 64" version="1.1">
<defs>
<linearGradient id="linear0" gradientUnits="userSpaceOnUse" x1="0" y1="0" x2="0" y2="1" gradientTransform="matrix(64,0,0,59.078125,0,2.460938)">
<stop offset="0" style="stop-color:#ff6666;stop-opacity:1;"/>
<stop offset="1" style="stop-color:#d90000;stop-opacity:1;"/>
</linearGradient>
</defs>
<g id="surface1">
<path style=" stroke:none;fill-rule:nonzero;fill:url(#linear0);" d="M 46.769531 2.460938 C 37.253906 2.460938 29.539062 10.175781 29.539062 19.691406 C 29.539062 29.207031 37.253906 36.925781 46.769531 36.925781 C 56.285156 36.925781 64 29.207031 64 19.691406 C 64 10.175781 56.285156 2.460938 46.769531 2.460938 Z M 17.230469 27.074219 C 7.714844 27.074219 0 34.792969 0 44.308594 C 0 53.824219 7.714844 61.539062 17.230469 61.539062 C 26.746094 61.539062 34.460938 53.824219 34.460938 44.308594 C 34.460938 34.792969 26.746094 27.074219 17.230469 27.074219 Z M 17.230469 27.074219 "/>
</g>
</svg>
