<svg xmlns="http://www.w3.org/2000/svg" xmlns:xlink="http://www.w3.org/1999/xlink" width="64" height="64" viewBox="0 0 64 64" version="1.1">
<defs>
<linearGradient id="linear0" gradientUnits="userSpaceOnUse" x1="0" y1="0" x2="0" y2="1" gradientTransform="matrix(64,0,0,64,0,0)">
<stop offset="0" style="stop-color:#ff6666;stop-opacity:1;"/>
<stop offset="1" style="stop-color:#d90000;stop-opacity:1;"/>
</linearGradient>
</defs>
<g id="surface1">
<path style=" stroke:none;fill-rule:nonzero;fill:url(#linear0);" d="M 32 0 C 14.328125 0 0 14.328125 0 32 C 0 49.671875 14.328125 64 32 64 C 49.671875 64 64 49.671875 64 32 C 64 14.328125 49.671875 0 32 0 Z M 37.347656 8.652344 L 49.777344 16 L 37.332031 23.347656 Z M 32 12.429688 C 32.910156 12.429688 33.804688 12.503906 34.679688 12.625 L 34.679688 15.347656 C 33.808594 15.207031 32.914062 15.125 32 15.125 C 24.890625 15.125 18.8125 19.480469 16.320312 25.679688 L 14.015625 24.320312 C 17.007812 17.339844 23.941406 12.429688 32 12.429688 Z M 32 19.082031 C 32.914062 19.082031 33.804688 19.191406 34.667969 19.375 L 34.667969 22.140625 C 33.816406 21.910156 32.921875 21.792969 32 21.792969 C 27.332031 21.792969 23.433594 24.894531 22.207031 29.152344 L 19.820312 27.734375 C 21.585938 22.707031 26.386719 19.085938 32 19.085938 Z M 47.695312 20.320312 C 50.128906 23.582031 51.570312 27.628906 51.570312 32 C 51.570312 36.4375 50.074219 40.542969 47.570312 43.832031 L 45.25 42.457031 C 47.519531 39.585938 48.875 35.957031 48.875 32 C 48.875 28.117188 47.566406 24.542969 45.375 21.695312 Z M 41.902344 23.75 C 43.777344 25.992188 44.917969 28.867188 44.917969 32 C 44.917969 35.203125 43.730469 38.152344 41.777344 40.417969 L 39.402344 39.011719 C 41.140625 37.191406 42.207031 34.734375 42.207031 32 C 42.207031 29.34375 41.203125 26.9375 39.554688 25.125 Z M 9.347656 24.652344 L 21.777344 32 L 9.332031 39.347656 Z M 22.207031 34.847656 C 23.433594 39.101562 27.332031 42.195312 32 42.195312 C 32.921875 42.195312 33.816406 42.074219 34.667969 41.847656 L 34.667969 44.625 C 33.804688 44.808594 32.914062 44.914062 32 44.914062 C 26.382812 44.914062 21.582031 41.28125 19.820312 36.25 Z M 16.320312 38.320312 C 18.8125 44.519531 24.890625 48.875 32 48.875 C 32.90625 48.875 33.789062 48.804688 34.652344 48.664062 L 34.652344 51.371094 C 33.785156 51.492188 32.902344 51.566406 32 51.566406 C 23.941406 51.566406 17.007812 46.65625 14.015625 39.679688 Z M 37.332031 40.890625 L 49.765625 48.222656 L 37.320312 55.570312 Z M 37.332031 40.890625 "/>
</g>
</svg>
