<svg xmlns="http://www.w3.org/2000/svg" xmlns:xlink="http://www.w3.org/1999/xlink" width="64" height="64" viewBox="0 0 64 64" version="1.1">
<defs> <linearGradient id="linear0" gradientUnits="userSpaceOnUse" x1="0" y1="0" x2="0" y2="1" gradientTransform="matrix(55.992188,0,0,56,4.003906,4)"> <stop offset="0" style="stop-color:#ff6666;stop-opacity:1;"/> <stop offset="1" style="stop-color:#d90000;stop-opacity:1;"/> </linearGradient> </defs>
<g id="surface1">
<path style=" stroke:none;fill-rule:nonzero;fill:url(#linear0);fill-opacity:1;" d="M 46.265625 2.074219 C 42.949219 2.074219 40.25 4.75 40.25 8.058594 C 40.25 11.363281 42.949219 14.046875 46.265625 14.046875 C 49.585938 14.046875 52.277344 11.363281 52.277344 8.058594 C 52.277344 4.75 49.585938 2.074219 46.265625 2.074219 M 32.210938 8.332031 C 28.324219 8.332031 24.65625 9.234375 21.402344 10.839844 L 25.835938 18.488281 C 27.773438 17.589844 29.933594 17.085938 32.203125 17.085938 C 40.039062 17.085938 46.480469 23.023438 47.234375 30.625 L 56.316406 30.625 C 55.929688 24.527344 53.210938 19.046875 49.023438 15.046875 C 46.957031 15.859375 44.5625 15.753906 42.492188 14.5625 C 40.445312 13.386719 39.160156 11.394531 38.8125 9.242188 C 36.710938 8.652344 34.496094 8.332031 32.203125 8.332031 M 18.9375 12.242188 C 14.023438 15.425781 10.363281 20.332031 8.835938 26.082031 C 10.628906 27.449219 11.789062 29.613281 11.789062 32.042969 C 11.789062 34.488281 10.617188 36.65625 8.800781 38.03125 C 10.3125 43.851562 13.996094 48.816406 18.960938 52.023438 L 23.40625 44.347656 C 19.589844 41.617188 17.097656 37.167969 17.097656 32.128906 C 17.097656 27.101562 19.578125 22.648438 23.382812 19.917969 L 18.933594 12.242188 M 4.242188 26.054688 C 0.921875 26.054688 -1.773438 28.734375 -1.773438 32.042969 C -1.773438 35.347656 0.921875 38.03125 4.242188 38.03125 C 7.5625 38.03125 10.253906 35.347656 10.253906 32.042969 C 10.253906 28.734375 7.5625 26.054688 4.242188 26.054688 M 47.253906 33.457031 C 46.578125 41.144531 40.097656 47.175781 32.203125 47.175781 C 29.9375 47.175781 27.792969 46.671875 25.859375 45.78125 L 21.425781 53.425781 C 24.671875 55.027344 28.332031 55.925781 32.203125 55.925781 C 34.441406 55.925781 36.605469 55.625 38.667969 55.066406 C 39.019531 52.921875 40.300781 50.949219 42.335938 49.785156 C 44.417969 48.585938 46.839844 48.496094 48.910156 49.320312 C 53.199219 45.269531 55.980469 39.683594 56.328125 33.457031 L 47.253906 33.457031 M 46.113281 50.304688 C 42.789062 50.304688 40.097656 52.984375 40.097656 56.292969 C 40.097656 59.597656 42.789062 62.277344 46.113281 62.277344 C 49.433594 62.277344 52.125 59.597656 52.125 56.292969 C 52.125 52.984375 49.433594 50.304688 46.113281 50.304688 "/>
<path style=" stroke:none;fill-rule:nonzero;fill:url(#linear0);fill-opacity:1;" d="M 29.652344 21.824219 L 29.652344 28.886719 L 26.835938 28.886719 C 26.007812 28.886719 26.769531 29.605469 26.769531 29.605469 L 31.777344 35.628906 C 31.777344 35.628906 32.1875 36.109375 32.617188 35.679688 C 33.207031 35.085938 37.46875 29.457031 37.46875 29.457031 C 37.46875 29.457031 38.222656 28.707031 37.222656 28.707031 L 34.617188 28.707031 L 34.617188 21.824219 L 29.652344 21.824219 M 25.667969 37.261719 C 24.519531 37.261719 23.59375 38.179688 23.59375 39.320312 C 23.59375 40.464844 24.519531 41.386719 25.667969 41.386719 L 38.53125 41.386719 C 39.675781 41.386719 40.601562 40.464844 40.601562 39.320312 C 40.601562 38.179688 39.675781 37.261719 38.53125 37.261719 L 25.667969 37.261719 M 25.605469 38.214844 C 25.621094 38.214844 25.644531 38.214844 25.660156 38.214844 C 26.273438 38.214844 26.773438 38.710938 26.773438 39.320312 C 26.773438 39.9375 26.273438 40.4375 25.660156 40.4375 C 25.046875 40.4375 24.546875 39.9375 24.546875 39.320312 C 24.546875 38.726562 25.015625 38.246094 25.605469 38.214844 "/>
</g>
</svg>
