<svg xmlns="http://www.w3.org/2000/svg" xmlns:xlink="http://www.w3.org/1999/xlink" width="64" height="64" viewBox="0 0 64 64" version="1.1">
<defs>
<linearGradient id="linear0" gradientUnits="userSpaceOnUse" x1="0" y1="0" x2="0" y2="1" gradientTransform="matrix(57.976563,0,0,64,3.011719,0)">
<stop offset="0" style="stop-color:#ff6666;stop-opacity:1;"/>
<stop offset="1" style="stop-color:#d90000;stop-opacity:1;"/>
</linearGradient>
</defs>
<g id="surface1">
<path style=" stroke:none;fill-rule:nonzero;fill:url(#linear0);" d="M 60.988281 29.09375 C 60.230469 23.152344 57.214844 17.734375 52.566406 13.964844 C 51.621094 14.320312 50.621094 14.542969 49.554688 14.542969 C 45.894531 14.542969 42.746094 12.234375 41.460938 9.011719 C 40.289062 8.828125 39.105469 8.730469 37.921875 8.726562 C 34.820312 8.726562 31.746094 9.347656 28.890625 10.550781 L 33.316406 18.21875 C 34.800781 17.71875 36.351562 17.460938 37.921875 17.453125 C 44.824219 17.460938 50.777344 22.324219 52.15625 29.09375 Z M 60.984375 34.90625 L 52.171875 34.90625 C 50.789062 41.679688 44.832031 46.542969 37.921875 46.542969 C 36.355469 46.539062 34.800781 46.285156 33.320312 45.785156 L 28.902344 53.433594 C 31.757812 54.640625 34.820312 55.265625 37.921875 55.273438 C 39.109375 55.265625 40.296875 55.160156 41.472656 54.96875 C 42.765625 51.757812 45.902344 49.457031 49.554688 49.457031 C 50.621094 49.457031 51.632812 49.679688 52.578125 50.035156 C 57.21875 46.261719 60.226562 40.84375 60.984375 34.910156 Z M 55.375 5.820312 C 55.375 2.605469 52.769531 0 49.554688 0 C 46.34375 0 43.738281 2.605469 43.738281 5.820312 C 43.738281 9.03125 46.34375 11.636719 49.554688 11.636719 C 52.769531 11.636719 55.375 9.03125 55.375 5.820312 Z M 55.375 58.179688 C 55.375 54.96875 52.769531 52.363281 49.554688 52.363281 C 46.34375 52.363281 43.738281 54.96875 43.738281 58.179688 C 43.738281 61.394531 46.34375 64 49.554688 64 C 52.769531 64 55.375 61.394531 55.375 58.179688 Z M 28.285156 21.132812 L 23.867188 13.484375 C 19.664062 16.675781 16.671875 21.199219 15.378906 26.320312 C 16.714844 27.851562 17.554688 29.828125 17.554688 32 C 17.554688 34.171875 16.71875 36.144531 15.386719 37.675781 C 16.671875 42.800781 19.660156 47.332031 23.863281 50.527344 L 28.285156 42.875 C 25.167969 40.121094 23.378906 36.160156 23.375 32 C 23.382812 27.84375 25.171875 23.886719 28.285156 21.132812 Z M 14.648438 32 C 14.648438 28.789062 12.042969 26.179688 8.828125 26.179688 C 5.617188 26.179688 3.011719 28.789062 3.011719 32 C 3.011719 35.210938 5.617188 37.820312 8.828125 37.820312 C 12.042969 37.820312 14.648438 35.210938 14.648438 32 Z M 14.648438 32 "/>
</g>
</svg>
