<svg xmlns="http://www.w3.org/2000/svg" xmlns:xlink="http://www.w3.org/1999/xlink" width="64" height="64" viewBox="0 0 64 64" version="1.1">
<defs>
<linearGradient id="linear0" gradientUnits="userSpaceOnUse" x1="0" y1="0" x2="0" y2="1" gradientTransform="matrix(64,0,0,55.421875,0,4.289062)">
<stop offset="0" style="stop-color:#ff6666;stop-opacity:1;"/>
<stop offset="1" style="stop-color:#d90000;stop-opacity:1;"/>
</linearGradient>
</defs>
<g id="surface1">
<path style=" stroke:none;fill-rule:nonzero;fill:url(#linear0);" d="M 33.207031 59.644531 C 26.105469 58.714844 19.304688 56.625 15.214844 53.101562 C 14.054688 52.101562 11.738281 49.675781 11.941406 49.609375 C 12.605469 49.734375 13.988281 50.347656 15.339844 50.382812 C 16.691406 50.421875 18.933594 48.996094 19.597656 47.90625 L 19.597656 36.480469 C 19.597656 23.878906 19.882812 24.09375 18.992188 23.316406 C 17.910156 22.367188 13.183594 22.664062 11.027344 24.109375 C 7.738281 26.3125 3.820312 31.195312 1.035156 36.277344 C 0.542969 37.175781 0.0976562 37.953125 0.0429688 38 C -0.00390625 38.046875 -0.015625 37.070312 0.0234375 35.824219 C 0.132812 32.390625 0.773438 29.992188 2.515625 26.449219 C 4.109375 23.214844 4.910156 22.351562 8.308594 18.652344 C 13.945312 12.507812 19.507812 8.269531 25.011719 5.910156 C 26.3125 5.355469 30.34375 4.289062 30.621094 4.289062 C 30.667969 4.289062 28.722656 5.421875 28.269531 5.753906 C 25.539062 7.742188 24.601562 9.132812 24.203125 11.554688 C 23.90625 13.351562 24.929688 15.53125 25.714844 16.421875 C 26.128906 16.878906 26.277344 16.960938 26.847656 17.011719 C 27.628906 16.933594 29.507812 16.605469 30.3125 16.535156 L 30.3125 45.015625 C 30.3125 47.15625 31.226562 47.292969 33.359375 47.292969 C 35.523438 47.292969 37.359375 45.664062 39.5 44.277344 L 39.5 20.289062 L 38.738281 17.539062 C 38.425781 16.40625 37.578125 15.050781 36.441406 13.476562 C 38.632812 13.515625 40.03125 16.140625 41.949219 16.84375 C 47.539062 12.421875 51.492188 8.828125 57.871094 7.351562 C 55.09375 11.753906 53.1875 13.632812 50.214844 17.914062 L 50.214844 43.542969 C 50.519531 43.90625 53.644531 44.367188 54.386719 44.433594 C 59.433594 43.71875 60.648438 40.878906 63.996094 37.972656 C 64.097656 38.066406 61.394531 43.160156 60.257812 44.867188 C 56.785156 50.070312 51.789062 53.320312 47.167969 56.261719 C 46.300781 56.8125 46.289062 56.8125 45.988281 56.574219 C 43.804688 55.585938 42.5625 55.042969 40.019531 53.117188 C 37.539062 55.480469 36.335938 57.203125 33.746094 59.710938 C 33.664062 59.703125 33.421875 59.671875 33.207031 59.644531 Z M 33.207031 59.644531 "/>
</g>
</svg>
