<svg xmlns="http://www.w3.org/2000/svg" xmlns:xlink="http://www.w3.org/1999/xlink" width="64" height="64" viewBox="0 0 64 64" version="1.1">
<defs> <linearGradient id="linear0" gradientUnits="userSpaceOnUse" x1="0" y1="0" x2="0" y2="1" gradientTransform="matrix(55.992188,0,0,56,4.003906,4)"> <stop offset="0" style="stop-color:#ff6666;stop-opacity:1;"/> <stop offset="1" style="stop-color:#d90000;stop-opacity:1;"/> </linearGradient> </defs>
<g id="surface1">
<path style=" stroke:none;fill-rule:nonzero;fill:url(#linear0);fill-opacity:1;" d="M 21.289062 54.058594 C 19.484375 53.324219 15.429688 49.457031 15.429688 48.460938 C 15.429688 48.09375 13.382812 47.792969 10.878906 47.792969 C 7.132812 47.792969 6.027344 47.472656 4.632812 45.988281 C 3.066406 44.332031 2.933594 43.394531 2.933594 33.9375 L 2.933594 23.683594 L 10.742188 23.683594 L 10.742188 40.011719 L 14.648438 40.011719 L 14.679688 28.542969 C 14.707031 16.175781 15.023438 14.9375 18.921875 11.882812 C 21.175781 10.121094 21.777344 10.0625 38.644531 9.835938 L 56.039062 9.597656 L 56.039062 22.902344 L 41.984375 22.902344 L 41.984375 13.566406 L 27.921875 13.566406 L 27.921875 33.011719 L 20.878906 33.011719 L 27.613281 41.765625 C 31.316406 46.570312 34.628906 50.511719 34.964844 50.511719 C 35.65625 50.511719 48.195312 34.503906 48.21875 33.597656 C 48.222656 33.277344 46.820312 33.015625 45.105469 33.015625 C 41.984375 33.015625 41.984375 33.015625 41.984375 29.898438 L 41.984375 26.789062 L 56.15625 26.789062 L 55.902344 37.621094 C 55.65625 47.929688 55.554688 48.550781 53.691406 50.523438 C 50.019531 54.445312 48.472656 54.792969 35.183594 54.742188 C 28.398438 54.714844 22.144531 54.40625 21.28125 54.058594 "/>
</g>
</svg>
