<svg xmlns="http://www.w3.org/2000/svg" xmlns:xlink="http://www.w3.org/1999/xlink" width="64" height="64" viewBox="0 0 64 64" version="1.1">
<defs>
<linearGradient id="linear0" gradientUnits="userSpaceOnUse" x1="0" y1="0" x2="0" y2="1" gradientTransform="matrix(57.140625,0,0,64,3.429688,0)">
<stop offset="0" style="stop-color:#ff6666;stop-opacity:1;"/>
<stop offset="1" style="stop-color:#d90000;stop-opacity:1;"/>
</linearGradient>
</defs>
<g id="surface1">
<path style=" stroke:none;fill-rule:evenodd;fill:url(#linear0);" d="M 44.574219 9.648438 L 44.574219 6.835938 L 60.570312 0 L 60.570312 34.792969 C 60.570312 34.839844 60.566406 34.886719 60.5625 34.9375 L 60.5625 35.550781 C 60.5625 39.746094 59.996094 43.601562 58.851562 47.101562 C 57.710938 50.601562 55.964844 53.609375 53.617188 56.109375 C 51.257812 58.617188 48.277344 60.554688 44.644531 61.925781 C 41.011719 63.304688 36.714844 63.980469 31.734375 63.980469 L 31.742188 64 C 26.847656 64 22.613281 63.292969 19.046875 61.882812 C 18.636719 61.71875 18.265625 61.539062 17.921875 61.34375 L 17.484375 61.207031 C 14.621094 59.871094 12.195312 58.144531 10.230469 56.015625 C 7.910156 53.507812 6.199219 50.523438 5.097656 47.050781 C 3.984375 43.585938 3.429688 39.746094 3.429688 35.558594 L 3.429688 25.808594 L 19.429688 18.695312 L 19.429688 37.714844 C 19.429688 44.808594 24.964844 50.285156 32 50.285156 C 35.570312 50.285156 38.789062 49.039062 41.089844 46.664062 C 40.996094 46.757812 40.890625 46.839844 40.800781 46.9375 C 43.199219 44.613281 44.570312 41.351562 44.570312 37.714844 L 44.570312 11.199219 C 44.570312 11.179688 44.566406 11.160156 44.566406 11.136719 L 44.566406 9.648438 C 44.570312 9.648438 44.570312 9.648438 44.574219 9.648438 Z M 40.703125 47.597656 L 40.707031 47.597656 L 40.820312 47.320312 Z M 40.695312 47.03125 C 40.386719 47.324219 40.066406 47.601562 39.730469 47.859375 C 40.066406 47.601562 40.386719 47.324219 40.695312 47.03125 Z M 40.695312 47.03125 "/>
</g>
</svg>
