<svg xmlns="http://www.w3.org/2000/svg" xmlns:xlink="http://www.w3.org/1999/xlink" width="64" height="64" viewBox="0 0 64 64" version="1.1">
<defs>
<linearGradient id="linear0" gradientUnits="userSpaceOnUse" x1="0" y1="0" x2="0" y2="1" gradientTransform="matrix(60,0,0,57.808594,2,2.191406)">
<stop offset="0" style="stop-color:#ff6666;stop-opacity:1;"/>
<stop offset="1" style="stop-color:#d90000;stop-opacity:1;"/>
</linearGradient>
</defs>
<g id="surface1">
<path style=" stroke:none;fill-rule:nonzero;fill:url(#linear0);" d="M 29.824219 4.335938 L 29.808594 6.21875 C 24.601562 6.613281 19.636719 7.835938 15.148438 10.363281 C 7.507812 14.453125 2.320312 26.328125 2.035156 34.585938 C 2.054688 35.339844 1.875 36.1875 2.179688 36.882812 C 2.910156 37.824219 4.644531 38.105469 5.414062 37.054688 C 7.390625 34.765625 10.457031 33.160156 13.671875 33.324219 C 16.675781 33.171875 19.453125 34.800781 21.203125 36.988281 C 21.835938 37.816406 23.183594 38.035156 24.011719 37.347656 C 25.007812 36.414062 25.886719 35.332031 27.109375 34.617188 C 27.980469 34.070312 28.953125 33.683594 29.976562 33.496094 C 30.15625 40.691406 29.96875 43.867188 30.007812 51.0625 C 30.066406 52.25 29.761719 53.429688 28.929688 54.339844 C 27.449219 56.222656 24.539062 56.917969 22.300781 55.828125 C 20.53125 55.03125 19.371094 53.292969 19.273438 51.476562 C 19.1875 50.574219 18.550781 49.652344 17.507812 49.589844 C 16.332031 49.441406 15.296875 50.480469 15.457031 51.5625 C 15.386719 55.503906 18.730469 59.066406 22.808594 59.8125 C 27.1875 60.734375 31.992188 58.15625 33.378906 54.179688 C 34.164062 52.039062 33.742188 49.738281 33.875 47.519531 C 33.90625 41.496094 33.78125 39.496094 33.96875 33.472656 C 36.375 33.9375 38.320312 35.539062 39.8125 37.273438 C 40.660156 38.035156 42.140625 37.867188 42.773438 36.9375 C 44.1875 35.203125 46.207031 33.816406 48.535156 33.445312 C 51.539062 32.871094 54.605469 33.980469 56.882812 35.800781 C 57.769531 36.359375 58.429688 37.28125 59.429688 37.671875 C 60.71875 38.054688 62.285156 36.949219 61.957031 35.632812 C 61.996094 27.957031 57.886719 16.421875 51.296875 11.90625 C 46.734375 8.730469 41.171875 6.933594 35.523438 6.378906 C 34.996094 6.289062 34.464844 6.324219 34 6.195312 L 33.964844 4.320312 C 33.984375 1.464844 29.917969 1.503906 29.832031 4.320312 M 49.914062 16.511719 C 52.472656 18.46875 55.914062 25.207031 56.757812 29.800781 C 54.238281 28.316406 52.15625 28.320312 49.140625 28.601562 C 46.136719 28.800781 43.304688 31.234375 41.148438 33.175781 C 38.558594 30.824219 34.960938 28.332031 31.3125 28.589844 C 28.125 28.664062 25.105469 30.050781 22.816406 32.070312 C 19.339844 28.851562 13.886719 27.679688 9.234375 29.1875 C 8.222656 29.496094 7.160156 29.636719 7.066406 28.769531 C 8.335938 22.734375 15.472656 15.507812 18.210938 13.941406 C 21.070312 12.464844 27.152344 10.171875 32.195312 10.351562 C 38.789062 10.003906 47.023438 13.851562 49.914062 16.519531 "/>
</g>
</svg>
