<svg xmlns="http://www.w3.org/2000/svg" xmlns:xlink="http://www.w3.org/1999/xlink" width="64" height="64" viewBox="0 0 64 64" version="1.1">
<defs> <linearGradient id="linear0" gradientUnits="userSpaceOnUse" x1="0" y1="0" x2="0" y2="1" gradientTransform="matrix(55.992188,0,0,56,4.003906,4)"> <stop offset="0" style="stop-color:#ff6666;stop-opacity:1;"/> <stop offset="1" style="stop-color:#d90000;stop-opacity:1;"/> </linearGradient> </defs>
<g id="surface1">
<path style=" stroke:none;fill-rule:evenodd;fill:url(#linear0);fill-opacity:1;" d="M 8.402344 12.707031 C 7.527344 12.707031 6.824219 13.410156 6.824219 14.28125 L 6.824219 53.328125 C 6.824219 54.199219 7.527344 54.902344 8.402344 54.902344 L 55.710938 54.902344 C 56.582031 54.902344 57.289062 54.199219 57.289062 53.328125 L 57.289062 14.28125 C 57.289062 13.410156 56.582031 12.707031 55.710938 12.707031 Z M 9.054688 16.316406 L 47.808594 16.316406 L 47.808594 21.726562 L 9.054688 21.726562 Z M 9.054688 24.539062 L 36.515625 24.539062 L 36.515625 29.949219 L 9.054688 29.949219 Z M 9.054688 35.746094 L 21.742188 35.746094 L 21.742188 50.320312 L 9.054688 50.320312 Z M 25.367188 35.746094 L 50.59375 35.746094 L 50.59375 40.328125 L 25.367188 40.328125 Z M 25.367188 45.742188 L 50.59375 45.742188 L 50.59375 50.320312 L 25.367188 50.320312 Z M 25.367188 45.742188 "/>
</g>
</svg>
