<svg xmlns="http://www.w3.org/2000/svg" xmlns:xlink="http://www.w3.org/1999/xlink" width="64" height="64" viewBox="0 0 64 64" version="1.1">
<defs> <linearGradient id="linear0" gradientUnits="userSpaceOnUse" x1="0" y1="0" x2="0" y2="1" gradientTransform="matrix(55.992188,0,0,56,4.003906,4)"> <stop offset="0" style="stop-color:#ff6666;stop-opacity:1;"/> <stop offset="1" style="stop-color:#d90000;stop-opacity:1;"/> </linearGradient> </defs>
<g id="surface1">
<path style=" stroke:none;fill-rule:nonzero;fill:url(#linear0);fill-opacity:1;" d="M 47.332031 17.886719 C 54.761719 17.886719 60.742188 23.847656 60.742188 31.246094 L 60.742188 33.101562 C 60.742188 40.496094 54.761719 46.457031 47.332031 46.457031 L 16.78125 46.457031 C 9.351562 46.457031 3.371094 40.496094 3.371094 33.101562 L 3.371094 31.246094 C 3.371094 23.847656 9.351562 17.886719 16.78125 17.886719 L 47.332031 17.886719 M 17.710938 21.683594 C 11.894531 21.683594 7.175781 26.375 7.175781 32.171875 C 7.175781 37.96875 11.894531 42.664062 17.710938 42.664062 C 23.53125 42.664062 28.246094 37.964844 28.246094 32.171875 C 28.246094 26.375 23.53125 21.683594 17.710938 21.683594 "/>
</g>
</svg>
