<svg xmlns="http://www.w3.org/2000/svg" xmlns:xlink="http://www.w3.org/1999/xlink" width="64" height="64" viewBox="0 0 64 64" version="1.1">
<defs>
<linearGradient id="linear0" gradientUnits="userSpaceOnUse" x1="0" y1="0" x2="0" y2="1" gradientTransform="matrix(64,0,0,60.734375,0,1.632812)">
<stop offset="0" style="stop-color:#ff6666;stop-opacity:1;"/>
<stop offset="1" style="stop-color:#d90000;stop-opacity:1;"/>
</linearGradient>
</defs>
<g id="surface1">
<path style=" stroke:none;fill-rule:nonzero;fill:url(#linear0);" d="M 31.890625 1.632812 L 15.945312 18.335938 L 3.96875 18.335938 C 3.96875 18.335938 0 22.402344 0 32.007812 C 0 41.613281 3.96875 45.664062 3.96875 45.664062 L 15.945312 45.664062 L 31.890625 62.367188 Z M 53.046875 8.335938 L 49.828125 11.554688 L 51.4375 13.164062 C 56.5625 18.289062 59.445312 25.242188 59.445312 32.492188 C 59.445312 39.742188 56.5625 46.6875 51.4375 51.8125 L 49.828125 53.421875 L 53.046875 56.648438 L 54.65625 55.039062 C 60.636719 49.058594 64 40.949219 64 32.492188 C 64 24.035156 60.636719 15.925781 54.65625 9.945312 Z M 27.328125 12.992188 L 27.328125 51.007812 L 17.890625 41.109375 L 6.445312 41.109375 C 6.300781 40.839844 6.347656 41.042969 6.140625 40.578125 C 5.398438 38.925781 4.554688 36.183594 4.554688 32.007812 C 4.554688 27.832031 5.398438 25.082031 6.140625 23.421875 C 6.347656 22.960938 6.300781 23.160156 6.445312 22.890625 L 17.890625 22.890625 Z M 43.382812 18 L 40.164062 21.21875 L 41.773438 22.828125 C 44.335938 25.390625 45.78125 28.867188 45.78125 32.492188 C 45.78125 36.117188 44.335938 39.59375 41.773438 42.15625 L 40.164062 43.765625 L 43.382812 46.984375 L 44.992188 45.375 C 48.410156 41.957031 50.335938 37.324219 50.335938 32.492188 C 50.335938 27.660156 48.410156 23.027344 44.992188 19.609375 Z M 43.382812 18 "/>
</g>
</svg>
