<svg xmlns="http://www.w3.org/2000/svg" xmlns:xlink="http://www.w3.org/1999/xlink" width="64" height="64" viewBox="0 0 64 64" version="1.1">
<defs>
<linearGradient id="linear0" gradientUnits="userSpaceOnUse" x1="0" y1="0" x2="0" y2="1" gradientTransform="matrix(60,0,0,56.339844,0,1.660156)">
<stop offset="0" style="stop-color:#ff6666;stop-opacity:1;"/>
<stop offset="1" style="stop-color:#d90000;stop-opacity:1;"/>
</linearGradient>
</defs>
<g id="surface1">
<path style=" stroke:none;fill-rule:nonzero;fill:url(#linear0);" d="M 17.371094 57.808594 C 13.027344 57.078125 8.15625 54.414062 5.039062 51.058594 C 3.339844 49.230469 -0.0078125 44.472656 0 43.898438 C 0 43.765625 1.734375 43.640625 3.851562 43.613281 C 8.699219 43.535156 28.269531 40.605469 29.042969 39.828125 C 29.347656 39.523438 27.179688 28.460938 26.820312 28.460938 C 26.125 28.460938 23.644531 31.910156 22.828125 34.019531 C 21.78125 36.714844 21.378906 36.855469 16.1875 36.320312 C 8.613281 35.53125 4.351562 32.871094 2.539062 27.792969 C 1.890625 25.964844 1.808594 19.972656 2.402344 17.609375 C 2.789062 16.078125 3.046875 15.796875 4.675781 15.097656 C 6.804688 14.183594 21.585938 9.503906 22.34375 9.503906 C 22.625 9.503906 22.964844 9.332031 23.097656 9.117188 C 23.40625 8.609375 22.554688 3.921875 22.03125 3.292969 C 21.46875 2.609375 21.972656 1.519531 22.785156 1.675781 C 23.304688 1.785156 23.558594 2.542969 23.925781 5.085938 C 24.179688 6.886719 24.476562 8.449219 24.585938 8.550781 C 24.6875 8.660156 27.152344 8.125 30.054688 7.371094 C 32.964844 6.617188 38.183594 5.269531 41.660156 4.375 C 45.136719 3.488281 48.316406 2.65625 48.722656 2.535156 C 49.207031 2.382812 48.703125 3.253906 47.273438 5.023438 C 44.492188 8.46875 43.160156 11.125 42.398438 14.738281 C 41.382812 19.578125 42.726562 25.371094 46.015625 30.332031 C 46.773438 31.46875 47.386719 32.492188 47.386719 32.605469 C 47.386719 33.011719 40.789062 32.765625 37.90625 32.242188 C 34.855469 31.691406 30.773438 30.101562 29.527344 28.972656 C 29.140625 28.621094 28.707031 28.449219 28.566406 28.589844 C 28.363281 28.792969 29.246094 34.136719 30.226562 38.632812 C 30.34375 39.175781 30.710938 39.519531 31.175781 39.519531 C 33.007812 39.519531 53.609375 34.691406 57.210938 33.414062 C 60.457031 32.269531 60.589844 32.5625 59.042969 37.457031 C 56.476562 45.585938 50.097656 51.371094 40.078125 54.664062 C 32.898438 57.027344 21.847656 58.554688 17.371094 57.808594 Z M 17.371094 57.808594 "/>
</g>
</svg>
