<svg xmlns="http://www.w3.org/2000/svg" xmlns:xlink="http://www.w3.org/1999/xlink" width="64" height="64" viewBox="0 0 64 64" version="1.1">
<defs>
<linearGradient id="linear0" gradientUnits="userSpaceOnUse" x1="0" y1="0" x2="0" y2="1" gradientTransform="matrix(64,0,0,21.335938,0,21.332031)">
<stop offset="0" style="stop-color:#ff6666;stop-opacity:1;"/>
<stop offset="1" style="stop-color:#d90000;stop-opacity:1;"/>
</linearGradient>
</defs>
<g id="surface1">
<path style=" stroke:none;fill-rule:evenodd;fill:url(#linear0);" d="M 17.9375 22.378906 L 17.9375 36.742188 C 17.9375 37.632812 17.804688 38.441406 17.542969 39.167969 C 17.28125 39.894531 16.820312 40.511719 16.152344 41.027344 C 15.484375 41.539062 14.570312 41.941406 13.40625 42.230469 C 12.246094 42.523438 10.769531 42.667969 8.96875 42.667969 C 7.167969 42.667969 5.6875 42.523438 4.527344 42.230469 C 3.367188 41.941406 2.453125 41.539062 1.785156 41.027344 C 1.117188 40.511719 0.652344 39.894531 0.390625 39.167969 C 0.128906 38.441406 0 37.632812 0 36.742188 L 0 22.378906 C 0 22.011719 0.0820312 21.746094 0.246094 21.578125 C 0.410156 21.414062 0.675781 21.332031 1.042969 21.332031 L 5.601562 21.332031 C 5.96875 21.332031 6.234375 21.414062 6.398438 21.578125 C 6.566406 21.746094 6.648438 22.011719 6.648438 22.378906 L 6.648438 35.613281 C 6.648438 36 6.792969 36.324219 7.085938 36.585938 C 7.371094 36.84375 8.019531 36.976562 9.027344 36.976562 C 10.050781 36.976562 10.710938 36.84375 11 36.585938 C 11.289062 36.324219 11.4375 36 11.4375 35.613281 L 11.4375 22.378906 C 11.4375 22.011719 11.519531 21.746094 11.683594 21.578125 C 11.847656 21.414062 12.113281 21.332031 12.480469 21.332031 L 16.890625 21.332031 C 17.261719 21.332031 17.527344 21.414062 17.691406 21.578125 C 17.855469 21.746094 17.9375 22.011719 17.9375 22.378906 Z M 30.535156 26.554688 L 28.355469 26.554688 L 28.355469 30.273438 L 30.535156 30.273438 C 31.039062 30.273438 31.375 30.140625 31.550781 29.878906 C 31.726562 29.617188 31.8125 29.292969 31.8125 28.90625 L 31.8125 27.921875 C 31.8125 27.535156 31.726562 27.210938 31.550781 26.949219 C 31.375 26.6875 31.039062 26.554688 30.535156 26.554688 Z M 27.3125 42.230469 L 22.84375 42.230469 C 22.476562 42.230469 22.210938 42.148438 22.042969 41.984375 C 21.878906 41.820312 21.796875 41.554688 21.796875 41.1875 L 21.796875 22.378906 C 21.796875 22.011719 21.878906 21.746094 22.042969 21.578125 C 22.210938 21.414062 22.476562 21.332031 22.84375 21.332031 L 32.507812 21.332031 C 34.675781 21.332031 36.171875 21.78125 36.992188 22.683594 C 37.8125 23.582031 38.222656 24.746094 38.222656 26.179688 L 38.222656 27.515625 C 38.222656 28.328125 38.105469 29.019531 37.863281 29.59375 C 37.621094 30.164062 37.199219 30.574219 36.601562 30.824219 C 37.644531 30.941406 38.492188 31.367188 39.140625 32.101562 C 39.789062 32.835938 40.113281 33.8125 40.113281 35.03125 L 40.113281 41.1875 C 40.113281 41.554688 40.03125 41.820312 39.863281 41.984375 C 39.703125 42.148438 39.4375 42.230469 39.066406 42.230469 L 34.566406 42.230469 C 34.199219 42.230469 33.933594 42.148438 33.773438 41.984375 C 33.605469 41.820312 33.523438 41.554688 33.523438 41.1875 L 33.523438 36.742188 C 33.523438 36.320312 33.441406 36.007812 33.277344 35.804688 C 33.113281 35.597656 32.828125 35.496094 32.421875 35.496094 L 28.355469 35.496094 L 28.355469 41.1875 C 28.355469 41.554688 28.273438 41.820312 28.113281 41.984375 C 27.945312 42.148438 27.679688 42.230469 27.3125 42.230469 Z M 48.730469 42.230469 L 44.40625 42.230469 C 44.039062 42.230469 43.773438 42.148438 43.609375 41.984375 C 43.445312 41.820312 43.363281 41.554688 43.363281 41.1875 L 43.363281 22.378906 C 43.363281 22.011719 43.445312 21.746094 43.609375 21.578125 C 43.773438 21.414062 44.039062 21.332031 44.40625 21.332031 L 49.078125 21.332031 C 49.390625 21.332031 49.648438 21.398438 49.851562 21.535156 C 50.054688 21.671875 50.242188 21.894531 50.414062 22.203125 L 53.027344 26.9375 C 53.125 27.109375 53.207031 27.234375 53.277344 27.3125 C 53.34375 27.390625 53.433594 27.429688 53.550781 27.429688 L 53.8125 27.429688 C 53.929688 27.429688 54.019531 27.390625 54.089844 27.3125 C 54.15625 27.234375 54.238281 27.109375 54.335938 26.9375 L 56.914062 22.203125 C 57.09375 21.894531 57.28125 21.671875 57.484375 21.535156 C 57.6875 21.398438 57.941406 21.332031 58.253906 21.332031 L 62.957031 21.332031 C 63.324219 21.332031 63.589844 21.414062 63.753906 21.578125 C 63.917969 21.746094 64 22.011719 64 22.378906 L 64 41.1875 C 64 41.554688 63.917969 41.820312 63.753906 41.984375 C 63.589844 42.148438 63.324219 42.230469 62.957031 42.230469 L 58.484375 42.230469 C 58.117188 42.230469 57.851562 42.148438 57.6875 41.984375 C 57.523438 41.820312 57.441406 41.554688 57.441406 41.1875 L 57.441406 30.96875 L 55.726562 34.132812 C 55.554688 34.460938 55.347656 34.699219 55.105469 34.84375 C 54.863281 34.992188 54.554688 35.0625 54.1875 35.0625 L 53.027344 35.0625 C 52.660156 35.0625 52.355469 34.992188 52.117188 34.84375 C 51.875 34.699219 51.664062 34.460938 51.492188 34.132812 L 49.777344 30.96875 L 49.777344 41.1875 C 49.777344 41.554688 49.695312 41.820312 49.53125 41.984375 C 49.367188 42.148438 49.101562 42.230469 48.730469 42.230469 Z M 48.730469 42.230469 "/>
</g>
</svg>
