<svg xmlns="http://www.w3.org/2000/svg" xmlns:xlink="http://www.w3.org/1999/xlink" width="64" height="64" viewBox="0 0 64 64" version="1.1">
<defs>
<linearGradient id="linear0" gradientUnits="userSpaceOnUse" x1="0" y1="0" x2="0" y2="1" gradientTransform="matrix(45.710938,0,0,49.871094,9.144531,14.128906)">
<stop offset="0" style="stop-color:#ff6666;stop-opacity:1;"/>
<stop offset="1" style="stop-color:#d90000;stop-opacity:1;"/>
</linearGradient>
<linearGradient id="linear1" gradientUnits="userSpaceOnUse" x1="0" y1="0" x2="0" y2="1" gradientTransform="matrix(29.09375,0,0,12.46875,17.453125,0)">
<stop offset="0" style="stop-color:#ff6666;stop-opacity:1;"/>
<stop offset="1" style="stop-color:#d90000;stop-opacity:1;"/>
</linearGradient>
</defs>
<g id="surface1">
<path style=" stroke:none;fill-rule:nonzero;fill:url(#linear0);" d="M 21.609375 14.128906 C 18.878906 14.128906 16.710938 14.378906 14.890625 15.0625 C 13.066406 15.746094 11.605469 16.980469 10.742188 18.546875 C 9.015625 21.671875 9.203125 25.5 9.144531 30.730469 L 9.144531 47.402344 C 9.203125 52.628906 9.015625 56.457031 10.742188 59.585938 C 11.605469 61.148438 13.066406 62.382812 14.890625 63.066406 C 16.710938 63.75 18.878906 64 21.609375 64 L 42.390625 64 C 45.121094 64 47.289062 63.75 49.109375 63.066406 C 50.933594 62.382812 52.386719 61.148438 53.25 59.585938 C 54.976562 56.457031 54.796875 52.628906 54.855469 47.402344 L 54.855469 30.726562 C 54.796875 25.5 54.984375 21.671875 53.257812 18.542969 C 52.394531 16.980469 50.933594 15.746094 49.109375 15.0625 C 47.289062 14.378906 45.121094 14.128906 42.390625 14.128906 Z M 21.609375 18.285156 L 42.390625 18.285156 C 44.851562 18.285156 46.570312 18.546875 47.648438 18.953125 C 48.730469 19.355469 49.191406 19.796875 49.613281 20.558594 C 50.453125 22.078125 50.640625 25.523438 50.703125 30.753906 L 50.703125 47.351562 C 50.640625 52.601562 50.453125 56.046875 49.613281 57.570312 C 49.191406 58.332031 48.730469 58.773438 47.648438 59.179688 C 46.570312 59.585938 44.851562 59.84375 42.390625 59.84375 L 21.609375 59.84375 C 19.148438 59.84375 17.429688 59.585938 16.351562 59.179688 C 15.269531 58.773438 14.808594 58.332031 14.386719 57.570312 C 13.546875 56.050781 13.359375 52.605469 13.296875 47.375 L 13.296875 30.753906 C 13.359375 25.523438 13.546875 22.078125 14.386719 20.558594 C 14.808594 19.796875 15.269531 19.355469 16.351562 18.953125 C 17.429688 18.546875 19.148438 18.285156 21.609375 18.285156 Z M 21.609375 18.285156 "/>
<path style=" stroke:none;fill-rule:evenodd;fill:url(#linear1);" d="M 17.453125 0 L 17.453125 12.46875 L 21.609375 12.46875 L 21.609375 4.15625 L 42.390625 4.15625 L 42.390625 12.46875 L 46.546875 12.46875 L 46.546875 0 Z M 25.765625 8.3125 L 25.765625 12.46875 L 29.921875 12.46875 L 29.921875 8.3125 Z M 34.078125 8.3125 L 34.078125 12.46875 L 38.234375 12.46875 L 38.234375 8.3125 Z M 34.078125 8.3125 "/>
</g>
</svg>
