<svg xmlns="http://www.w3.org/2000/svg" xmlns:xlink="http://www.w3.org/1999/xlink" width="64px" height="64px" viewBox="0 0 64 64" version="1.1">
<defs>
<linearGradient id="linear0" gradientUnits="userSpaceOnUse" x1="0" y1="0" x2="0" y2="1" gradientTransform="matrix(64,0,0,52,0,8)">
<stop offset="0" style="stop-color:#ff6666;stop-opacity:1;"/>
<stop offset="1" style="stop-color:#d90000;stop-opacity:1;"/>
</linearGradient>
</defs>
<g id="surface1">
<path style=" stroke:none;fill-rule:nonzero;fill:url(#linear0);" d="M 15.972656 8 C 10.941406 8.058594 7.261719 7.875 4.25 9.542969 C 2.746094 10.371094 1.546875 11.777344 0.890625 13.53125 C 0.234375 15.285156 0 17.371094 0 20 L 0 48 C 0 50.628906 0.234375 52.714844 0.890625 54.46875 C 1.546875 56.222656 2.746094 57.628906 4.25 58.457031 C 7.261719 60.121094 10.941406 59.941406 15.972656 60 L 48.027344 60 C 53.058594 59.941406 56.738281 60.125 59.75 58.457031 C 61.253906 57.628906 62.441406 56.222656 63.105469 54.46875 C 63.761719 52.714844 64 50.628906 64 48 L 64 20 C 64 17.371094 63.761719 15.285156 63.097656 13.53125 C 62.441406 11.777344 61.253906 10.371094 59.75 9.542969 C 56.738281 7.878906 53.058594 8.058594 48.027344 8 Z M 16 12 L 48 12 C 53.035156 12.058594 56.347656 12.230469 57.8125 13.042969 C 58.546875 13.441406 58.96875 13.894531 59.359375 14.9375 C 59.75 15.980469 60 17.628906 60 20 L 60 48 C 60 50.371094 59.75 52.019531 59.359375 53.0625 C 58.96875 54.105469 58.546875 54.558594 57.8125 54.957031 C 56.347656 55.769531 53.035156 55.941406 48 56 L 16 56 Z M 7.332031 12 L 8.667969 12 C 11.332031 12 12 12.800781 12 16 C 12 19.199219 11.332031 20 8.667969 20 L 7.332031 20 C 4.667969 20 4 19.199219 4 16 C 4 12.800781 4.667969 12 7.332031 12 Z M 7.332031 24 L 8.667969 24 C 11.332031 24 12 24.800781 12 28 C 12 31.199219 11.332031 32 8.667969 32 L 7.332031 32 C 4.667969 32 4 31.199219 4 28 C 4 24.800781 4.667969 24 7.332031 24 Z M 7.332031 36 L 8.667969 36 C 11.332031 36 12 36.800781 12 40 C 12 43.199219 11.332031 44 8.667969 44 L 7.332031 44 C 4.667969 44 4 43.199219 4 40 C 4 36.800781 4.667969 36 7.332031 36 Z M 7.332031 48 L 8.667969 48 C 11.332031 48 12 48.800781 12 52 C 12 55.199219 11.332031 56 8.667969 56 L 7.332031 56 C 4.667969 56 4 55.199219 4 52 C 4 48.800781 4.667969 48 7.332031 48 Z M 7.332031 48 "/>
</g>
</svg>
