<svg xmlns="http://www.w3.org/2000/svg" xmlns:xlink="http://www.w3.org/1999/xlink" width="64" height="64" viewBox="0 0 64 64" version="1.1">
<defs>
<linearGradient id="linear0" gradientUnits="userSpaceOnUse" x1="0" y1="0" x2="0" y2="1" gradientTransform="matrix(57.492188,0,0,64,3.253906,0)">
<stop offset="0" style="stop-color:#ff6666;stop-opacity:1;"/>
<stop offset="1" style="stop-color:#d90000;stop-opacity:1;"/>
</linearGradient>
</defs>
<g id="surface1">
<path style=" stroke:none;fill-rule:nonzero;fill:url(#linear0);" d="M 6.730469 55.21875 C 8.421875 51.746094 10.664062 46.242188 12.007812 42.597656 C 12.578125 41.03125 14.246094 39.523438 15.71875 39.230469 L 21.902344 36.613281 C 20.871094 35.492188 21.683594 33.78125 24.335938 31.464844 L 23.296875 29.359375 C 21.777344 29.101562 20.855469 28.542969 20.523438 27.695312 C 20.195312 26.847656 20.460938 25.703125 21.316406 24.269531 C 20.960938 23.859375 20.855469 23.386719 21.003906 22.851562 L 19.085938 14.777344 L 19.050781 13.613281 L 19.148438 12.007812 L 18.929688 11.128906 L 19.554688 10.59375 L 19.898438 10.058594 L 20.28125 9.652344 L 19.839844 8.578125 L 19.621094 7.859375 L 19.652344 6.726562 L 20.214844 5.3125 C 21.230469 3.9375 22.121094 2.992188 22.886719 2.484375 C 24.035156 1.71875 24.03125 1.851562 24.679688 1.570312 C 25.328125 1.292969 27.378906 0.679688 28.890625 0.375 C 29.898438 0.175781 30.539062 0.0703125 30.808594 0.0625 L 31.6875 0 L 32.320312 0.15625 L 34.359375 0.691406 L 36.3125 1.636719 L 37.691406 3.113281 L 38.480469 4.714844 L 38.824219 6.601562 L 39.074219 7.542969 L 39.734375 7.859375 L 40.335938 8.992188 L 40.777344 9.148438 L 40.710938 10.402344 L 41.277344 12.105469 L 41.683594 13.015625 L 42.472656 14.492188 L 42.472656 15.089844 L 42.976562 16.128906 L 42.910156 17.132812 L 42.535156 18.515625 L 43.636719 18.988281 L 43.382812 19.429688 C 44.515625 20.5625 44.964844 21.597656 44.734375 22.539062 C 44.273438 24.4375 42.347656 25.898438 42.125 26.625 C 41.796875 27.699219 41.128906 27.917969 40.113281 27.285156 L 40.777344 30.304688 L 42.097656 31.4375 L 46.871094 32.722656 L 49.449219 33.007812 L 50.929688 33.289062 L 53.664062 33.570312 C 53.980469 33.386719 54.230469 33.324219 54.414062 33.382812 C 54.605469 33.441406 54.847656 33.511719 55.140625 33.605469 L 57.152344 34.769531 C 58.589844 36.277344 59.53125 37.542969 59.980469 38.566406 C 60.65625 40.109375 60.539062 42.800781 60.609375 45.109375 C 60.679688 47.414062 61.0625 50.71875 60.136719 53.597656 C 59.519531 55.511719 59.101562 56.488281 58.878906 56.519531 L 56.238281 63.332031 C 54.515625 63.398438 52.648438 63.597656 50.949219 63.652344 C 37.335938 64.089844 24.179688 64.171875 12.164062 63.566406 C 9.003906 63.402344 6.464844 63.222656 3.253906 62.703125 L 3.898438 61.203125 L 5.664062 58.027344 L 6.730469 55.214844 "/>
</g>
</svg>
