<svg xmlns="http://www.w3.org/2000/svg" xmlns:xlink="http://www.w3.org/1999/xlink" width="64" height="64" viewBox="0 0 64 64" version="1.1">
<defs> <linearGradient id="linear0" gradientUnits="userSpaceOnUse" x1="0" y1="0" x2="0" y2="1" gradientTransform="matrix(55.992188,0,0,56,4.003906,4)"> <stop offset="0" style="stop-color:#ff6666;stop-opacity:1;"/> <stop offset="1" style="stop-color:#d90000;stop-opacity:1;"/> </linearGradient> </defs>
<g id="surface1">
<path style=" stroke:none;fill-rule:nonzero;fill:url(#linear0);fill-opacity:1;" d="M 31.164062 2.289062 C 27.722656 13.96875 24.28125 25.640625 20.839844 37.320312 C 18.058594 33.800781 15.234375 30.316406 12.484375 26.785156 C 10.839844 29.878906 9.273438 33.011719 7.652344 36.113281 C 1.191406 36.144531 -5.265625 36.171875 -11.730469 36.199219 C -12.222656 37.621094 -10.671875 37.144531 -9.765625 37.382812 C -3.550781 38.117188 2.660156 38.875 8.878906 39.59375 C 10.117188 37.546875 11.429688 35.539062 12.695312 33.507812 C 16.0625 38.378906 19.449219 43.234375 22.8125 48.117188 C 25.28125 40.375 27.792969 32.648438 30.273438 24.910156 C 32.90625 37.824219 35.515625 50.746094 38.160156 63.65625 C 42.148438 55.292969 46.027344 46.882812 49.972656 38.5 C 53.433594 38.507812 56.890625 38.519531 60.355469 38.53125 C 61.585938 41.472656 65.503906 42.777344 68.269531 41.183594 C 71.128906 39.738281 72.148438 35.765625 70.347656 33.128906 C 68.695312 30.390625 64.613281 29.65625 62.109375 31.671875 C 61.222656 32.34375 60.542969 33.269531 60.171875 34.316406 C 56.039062 34.363281 51.902344 34.417969 47.769531 34.457031 C 45.402344 38.707031 43.140625 43.019531 40.820312 47.289062 C 37.894531 32.210938 34.976562 17.140625 32.054688 2.070312 C 31.390625 2.234375 31.386719 1.121094 31.164062 2.296875 Z M 31.164062 2.289062 "/>
</g>
</svg>
