<svg xmlns="http://www.w3.org/2000/svg" xmlns:xlink="http://www.w3.org/1999/xlink" width="64" height="64" viewBox="0 0 64 64" version="1.1">
<defs> <linearGradient id="linear0" gradientUnits="userSpaceOnUse" x1="0" y1="0" x2="0" y2="1" gradientTransform="matrix(55.992188,0,0,56,4.003906,4)"> <stop offset="0" style="stop-color:#ff6666;stop-opacity:1;"/> <stop offset="1" style="stop-color:#d90000;stop-opacity:1;"/> </linearGradient> </defs>
<g id="surface1">
<path style=" stroke:none;fill-rule:evenodd;fill:url(#linear0);fill-opacity:1;" d="M 31.175781 4.671875 L 27.824219 13.132812 L 26.546875 9.117188 L 24.46875 14.363281 L 23.050781 13.636719 L 22.003906 12.011719 L 21.886719 13.035156 L 16.386719 10.207031 L 20.226562 19.007812 L 11.757812 14.652344 L 15.179688 22.472656 L 9.160156 21.167969 L 11.441406 24.023438 L 9.855469 24.527344 L 12.746094 25.664062 L 13.34375 26.40625 L 5.226562 28.972656 L 11.707031 31.515625 L 8.199219 31.664062 L 11.082031 33.808594 L 6.574219 36.691406 L 13.984375 37.527344 L 10.78125 43.699219 L 14.503906 42.09375 L 9.667969 47.328125 L 16.457031 46.34375 L 15.875 48.992188 L 15.292969 49.632812 L 21.464844 48.738281 L 21.828125 57.367188 L 27.058594 50.394531 L 27.449219 59.675781 L 32.992188 52.277344 L 33.074219 54.078125 L 34.089844 52.726562 L 37.558594 55.902344 L 37.078125 52.628906 L 43.179688 58.210938 L 41.484375 46.589844 L 42.191406 46.5625 L 48.796875 52.613281 L 47.878906 46.324219 L 48.390625 46.300781 L 49.046875 46.644531 L 48.886719 46.285156 L 53.261719 46.097656 L 47.195312 41.582031 L 47.105469 40.996094 L 58.882812 40.496094 L 50.175781 34.035156 L 55.578125 32.320312 L 51.851562 30.859375 L 57.417969 24.839844 L 50.832031 25.789062 L 46.628906 24.144531 L 50.023438 17.59375 L 45.453125 19.574219 L 45.253906 14.792969 L 40.148438 21.597656 L 45.5625 11.167969 L 37.582031 14.628906 L 37.59375 14.578125 L 37.480469 14.675781 L 36.867188 14.9375 L 35.640625 11.089844 L 34.304688 14.460938 L 31.175781 4.671875 "/>
</g>
</svg>
