<svg xmlns="http://www.w3.org/2000/svg" xmlns:xlink="http://www.w3.org/1999/xlink" width="64" height="64" viewBox="0 0 64 64" version="1.1">
<defs> <linearGradient id="linear0" gradientUnits="userSpaceOnUse" x1="0" y1="0" x2="0" y2="1" gradientTransform="matrix(55.992188,0,0,56,4.003906,4)"> <stop offset="0" style="stop-color:#ff6666;stop-opacity:1;"/> <stop offset="1" style="stop-color:#d90000;stop-opacity:1;"/> </linearGradient> </defs>
<g id="surface1">
<path style=" stroke:none;fill-rule:evenodd;fill:url(#linear0);fill-opacity:1;" d="M 1.054688 12.78125 C 4.488281 9.34375 8.855469 8.890625 13.785156 10.234375 C 19.289062 18.921875 20.636719 30.628906 26.519531 36.4375 C 33.894531 42.332031 45.105469 37.148438 44.574219 29.550781 L 35.058594 4.992188 C 39.113281 2.132812 39.75 0.539062 45.554688 1.847656 C 51.898438 13.109375 50.632812 31.410156 65.425781 31.800781 C 66.242188 34.933594 65.578125 37.546875 64.164062 39.882812 C 60.199219 41.808594 52.621094 39.003906 49.191406 36.589844 C 45.59375 45.265625 35.089844 49.234375 27.359375 47.371094 L 34.496094 65.1875 C 28.894531 66.082031 23.414062 66.355469 18.546875 63.691406 Z M 1.054688 12.78125 "/>
</g>
</svg>
