<svg xmlns="http://www.w3.org/2000/svg" xmlns:xlink="http://www.w3.org/1999/xlink" width="64" height="64" viewBox="0 0 64 64" version="1.1">
<defs>
<linearGradient id="linear0" gradientUnits="userSpaceOnUse" x1="0" y1="0" x2="0" y2="1" gradientTransform="matrix(64,0,0,63.421875,0,0.289062)">
<stop offset="0" style="stop-color:#ff6666;stop-opacity:1;"/>
<stop offset="1" style="stop-color:#d90000;stop-opacity:1;"/>
</linearGradient>
</defs>
<g id="surface1">
<path style=" stroke:none;fill-rule:evenodd;fill:url(#linear0);" d="M 38.074219 63.710938 L 32.714844 51.558594 C 35.769531 51.574219 41.507812 51.363281 45.371094 49.433594 C 49.113281 47.5625 51.269531 44.195312 52.300781 42.132812 C 53.300781 42.859375 54.871094 43.71875 57.246094 44.398438 C 58.355469 44.714844 59.738281 44.910156 61.382812 44.984375 C 57.191406 54.675781 48.460938 61.714844 38.074219 63.710938 Z M 63.933594 34.390625 C 62.316406 34.074219 61.144531 33.519531 60.503906 32.746094 C 57.980469 29.722656 51.941406 15.792969 49.824219 10.679688 C 49.578125 10.09375 48.945312 9.773438 48.328125 9.929688 L 38.09375 12.488281 C 37.722656 12.578125 37.414062 12.824219 37.246094 13.164062 C 37.085938 13.503906 37.074219 13.894531 37.226562 14.242188 C 37.300781 14.402344 44.273438 30.261719 45.53125 33.402344 C 45.835938 34.160156 45.617188 35.644531 44.449219 37.242188 C 42.402344 40.042969 38.742188 41.539062 34.652344 41.253906 C 29.207031 40.863281 24.132812 28.4375 21.402344 21.765625 C 19.402344 16.863281 18.777344 15.441406 17.683594 15.074219 C 15.378906 14.304688 6.507812 16.289062 4.855469 17.945312 C 4.019531 18.777344 3.296875 19.5 20.121094 62.007812 C 8.148438 57.203125 0 45.351562 0 32.289062 C 0 14.644531 14.355469 0.289062 32 0.289062 C 49.644531 0.289062 64 14.644531 64 32.289062 C 64 32.988281 63.976562 33.691406 63.933594 34.390625 Z M 63.933594 34.390625 "/>
</g>
</svg>
