<svg xmlns="http://www.w3.org/2000/svg" xmlns:xlink="http://www.w3.org/1999/xlink" width="64" height="64" viewBox="0 0 64 64" version="1.1">
<defs>
<linearGradient id="linear0" gradientUnits="userSpaceOnUse" x1="0" y1="0" x2="0" y2="1" gradientTransform="matrix(49.234375,0,0,64,7.382812,0)">
<stop offset="0" style="stop-color:#ff6666;stop-opacity:1;"/>
<stop offset="1" style="stop-color:#d90000;stop-opacity:1;"/>
</linearGradient>
</defs>
<g id="surface1">
<path style=" stroke:none;fill-rule:evenodd;fill:url(#linear0);" d="M 32 36.925781 C 35.054688 36.925781 37.535156 39.402344 37.535156 42.464844 C 37.535156 45.050781 35.753906 47.210938 33.347656 47.816406 L 33.84375 47.816406 C 35.691406 47.816406 36.820312 49.5 37.929688 50.992188 C 38.960938 52.386719 39.382812 54.320312 39.382812 55.023438 L 39.382812 56.296875 C 39.378906 56.335938 39.382812 56.375 39.382812 56.414062 C 39.382812 57.886719 38.1875 59.074219 36.707031 59.074219 L 27.292969 59.074219 C 25.816406 59.074219 24.617188 57.882812 24.617188 56.410156 C 24.617188 56.371094 24.621094 56.335938 24.625 56.296875 C 24.621094 56.296875 24.617188 55.660156 24.617188 55.023438 C 24.617188 54.320312 24.941406 52.351562 25.929688 50.929688 C 26.972656 49.421875 28.308594 47.816406 30.15625 47.816406 L 30.652344 47.816406 C 28.246094 47.210938 26.460938 45.050781 26.460938 42.460938 C 26.460938 39.402344 28.941406 36.925781 32 36.925781 Z M 32 0 C 22.769531 0 16.617188 6.398438 16.617188 15.765625 L 16.617188 25.59375 L 10.148438 25.59375 C 10.148438 25.59375 7.382812 25.601562 7.382812 28.800781 L 7.382812 60.800781 C 7.382812 64 10.148438 64 10.148438 64 L 53.851562 64 C 53.851562 64 56.617188 64 56.617188 60.800781 L 56.617188 28.800781 C 56.617188 25.601562 53.851562 25.59375 53.851562 25.59375 L 47.390625 25.609375 L 47.375 15.664062 C 47.382812 6.398438 41.230469 0 32 0 Z M 32 7.382812 C 37.4375 7.382812 41.847656 11.707031 41.847656 17.144531 C 41.847656 23.707031 34.871094 31.910156 33.230469 32 C 33.230469 32 33.925781 26.992188 32 26.992188 C 26.5625 26.992188 22.152344 22.578125 22.152344 17.144531 C 22.152344 11.703125 26.5625 7.382812 32 7.382812 Z M 32 7.382812 "/>
</g>
</svg>
