<svg xmlns="http://www.w3.org/2000/svg" xmlns:xlink="http://www.w3.org/1999/xlink" width="64" height="64" viewBox="0 0 64 64" version="1.1">
<defs> <linearGradient id="linear0" gradientUnits="userSpaceOnUse" x1="0" y1="0" x2="0" y2="1" gradientTransform="matrix(55.992188,0,0,56,4.003906,4)"> <stop offset="0" style="stop-color:#ff6666;stop-opacity:1;"/> <stop offset="1" style="stop-color:#d90000;stop-opacity:1;"/> </linearGradient> </defs>
<g id="surface1">
<path style=" stroke:none;fill-rule:nonzero;fill:url(#linear0);fill-opacity:1;" d="M 14.015625 7.5625 C 9.085938 7.5625 5.035156 11.59375 5.035156 16.503906 L 5.035156 36.097656 C 5.035156 41.007812 9.085938 45.039062 14.015625 45.039062 L 50.097656 45.039062 C 55.027344 45.039062 59.078125 41.007812 59.078125 36.097656 L 59.078125 16.503906 C 59.078125 11.59375 55.027344 7.5625 50.097656 7.5625 Z M 14.730469 11.9375 L 49.382812 11.9375 C 52.207031 11.9375 54.460938 14.167969 54.460938 16.972656 L 54.460938 35.628906 C 54.460938 38.433594 52.199219 40.683594 49.382812 40.683594 L 14.730469 40.683594 C 11.914062 40.683594 9.652344 38.433594 9.652344 35.628906 L 9.652344 16.972656 C 9.652344 14.167969 11.90625 11.9375 14.730469 11.9375 M 43.351562 41.222656 C 44.289062 41.222656 45.042969 41.972656 45.042969 42.90625 C 45.042969 43.839844 44.289062 44.597656 43.351562 44.597656 C 42.414062 44.597656 41.652344 43.839844 41.652344 42.90625 C 41.652344 41.972656 42.414062 41.222656 43.351562 41.222656 "/>
<path style=" stroke:none;fill-rule:evenodd;fill:url(#linear0);fill-opacity:1;" d="M 29.1875 47.402344 L 34.277344 47.402344 C 35.390625 47.402344 36.292969 48.300781 36.292969 49.410156 L 36.292969 53.753906 C 36.292969 54.863281 35.390625 55.761719 34.277344 55.761719 L 29.1875 55.761719 C 28.074219 55.761719 27.171875 54.863281 27.171875 53.753906 L 27.171875 49.410156 C 27.171875 48.300781 28.074219 47.402344 29.1875 47.402344 Z M 29.1875 47.402344 "/>
<path style=" stroke:none;fill-rule:evenodd;fill:url(#linear0);fill-opacity:1;" d="M 18.574219 53.890625 L 44.742188 53.890625 C 45.550781 53.890625 46.195312 54.539062 46.195312 55.335938 C 46.195312 56.136719 45.550781 56.785156 44.742188 56.785156 L 18.574219 56.785156 C 17.769531 56.785156 17.121094 56.136719 17.121094 55.335938 C 17.121094 54.539062 17.769531 53.890625 18.574219 53.890625 Z M 18.574219 53.890625 "/>
<path style="fill-rule:nonzero;fill:url(#linear0);fill-opacity:1;stroke-width:2.006;stroke-linecap:butt;stroke-linejoin:miter;stroke:url(#linear0);stroke-opacity:1;stroke-miterlimit:4;" d="M 199.697081 170.408357 C 188.756092 170.991147 180.072086 180.876999 180.072086 192.942919 C 180.072086 205.397365 189.314964 215.520651 200.750339 215.520651 C 212.185714 215.520651 221.471583 205.397365 221.471583 192.942919 C 221.471583 180.510057 212.185714 170.408357 200.750339 170.408357 C 200.384923 170.408357 200.041002 170.365187 199.697081 170.408357 Z M 258.937482 216.90208 C 255.562757 216.90208 251.865606 217.506455 247.781543 218.715205 C 236.195703 223.895564 212.615615 263.179954 203.114796 253.898478 C 173.623566 210.879912 153.912591 253.315687 148.495834 287.570812 L 307.12942 287.570812 C 292.53427 255.258322 286.429672 216.90208 258.937482 216.90208 Z M 258.937482 216.90208 " transform="matrix(0.181728,0,0,0.180972,-14.466283,-14.155549)"/>
<path style=" stroke:none;fill-rule:evenodd;fill:url(#linear0);fill-opacity:1;" d="M 40.539062 14.832031 C 40.539062 14.832031 53.664062 21.121094 52.960938 21.121094 C 52.257812 21.121094 40.589844 27.34375 40.589844 27.34375 Z M 40.539062 14.832031 "/>
</g>
</svg>
