<svg xmlns="http://www.w3.org/2000/svg" xmlns:xlink="http://www.w3.org/1999/xlink" width="64" height="64" viewBox="0 0 64 64" version="1.1">
<defs>
<linearGradient id="linear0" gradientUnits="userSpaceOnUse" x1="0" y1="0" x2="0" y2="1" gradientTransform="matrix(51.550781,0,0,64,6.222656,0)">
<stop offset="0" style="stop-color:#ff6666;stop-opacity:1;"/>
<stop offset="1" style="stop-color:#d90000;stop-opacity:1;"/>
</linearGradient>
</defs>
<g id="surface1">
<path style=" stroke:none;fill-rule:evenodd;fill:url(#linear0);" d="M 47.109375 47.402344 C 48.742188 46.464844 50.679688 46.214844 52.507812 46.691406 C 54.320312 47.171875 55.882812 48.363281 56.828125 50 C 57.769531 51.632812 58.015625 53.570312 57.535156 55.398438 C 57.039062 57.210938 55.847656 58.777344 54.214844 59.714844 C 49.363281 62.523438 43.839844 64 38.242188 64 C 28.789062 64 19.800781 59.824219 13.722656 52.59375 C 8.871094 46.820312 6.222656 39.53125 6.222656 32 C 6.222656 24.484375 8.851562 17.214844 13.6875 11.460938 C 19.765625 4.191406 28.753906 0 38.242188 0 C 43.820312 0 49.328125 1.476562 54.179688 4.265625 C 55.816406 5.207031 57.003906 6.753906 57.484375 8.5625 C 57.980469 10.394531 57.730469 12.332031 56.792969 13.964844 C 55.847656 15.601562 54.304688 16.792969 52.472656 17.289062 C 50.660156 17.769531 48.722656 17.519531 47.09375 16.574219 C 44.386719 15.03125 41.332031 14.214844 38.222656 14.214844 C 32.964844 14.214844 27.957031 16.542969 24.578125 20.59375 C 21.894531 23.792969 20.441406 27.824219 20.441406 32 C 20.441406 36.191406 21.910156 40.242188 24.597656 43.445312 C 27.972656 47.457031 32.984375 49.785156 38.222656 49.785156 C 41.351562 49.785156 44.40625 48.96875 47.109375 47.402344 Z M 27.5625 32 C 27.5625 26.117188 32.339844 21.339844 38.222656 21.339844 C 44.109375 21.339844 48.882812 26.117188 48.882812 32 C 48.882812 37.882812 44.109375 42.660156 38.222656 42.660156 C 32.339844 42.660156 27.5625 37.882812 27.5625 32 Z M 27.5625 32 "/>
</g>
</svg>
