<svg xmlns="http://www.w3.org/2000/svg" xmlns:xlink="http://www.w3.org/1999/xlink" width="64" height="64" viewBox="0 0 64 64" version="1.1">
<defs>
<linearGradient id="linear0" gradientUnits="userSpaceOnUse" x1="0" y1="0" x2="0" y2="1" gradientTransform="matrix(64,0,0,57.628906,0,3.1875)">
<stop offset="0" style="stop-color:#ff6666;stop-opacity:1;"/>
<stop offset="1" style="stop-color:#d90000;stop-opacity:1;"/>
</linearGradient>
</defs>
<g id="surface1">
<path style=" stroke:none;fill-rule:nonzero;fill:url(#linear0);" d="M 16.714844 3.191406 C 15.996094 3.1875 15.234375 3.214844 14.421875 3.214844 C 10.308594 3.128906 6.191406 3.269531 2.074219 3.214844 C -0.777344 3.191406 -0.117188 6.6875 0.707031 8.160156 C 9.832031 24.421875 20.621094 42.632812 30.671875 59.796875 C 32.601562 62.648438 34.640625 58.777344 35.71875 57.121094 C 38.457031 52.941406 40.707031 48.554688 43.019531 44.171875 C 43.996094 41.222656 41.269531 38.957031 40.296875 36.460938 C 34.363281 25.929688 28.132812 15.597656 22.074219 5.160156 C 20.628906 3.421875 18.871094 3.191406 16.714844 3.191406 Z M 46.53125 3.214844 C 43.464844 3.214844 45.410156 6.671875 45.410156 6.671875 C 45.410156 6.671875 50.011719 15.390625 52.664062 20.164062 C 55.316406 24.941406 56.742188 20.832031 57.40625 19.507812 C 59.796875 14.757812 61.871094 9.800781 63.542969 6.507812 C 65.21875 3.214844 61.730469 3.214844 61.730469 3.214844 Z M 46.53125 3.214844 "/>
</g>
</svg>
