<svg xmlns="http://www.w3.org/2000/svg" xmlns:xlink="http://www.w3.org/1999/xlink" width="64" height="64" viewBox="0 0 64 64" version="1.1">
<defs>
<linearGradient id="linear0" gradientUnits="userSpaceOnUse" x1="0" y1="0" x2="0" y2="1" gradientTransform="matrix(64,0,0,64,0,0)">
<stop offset="0" style="stop-color:#ff6666;stop-opacity:1;"/>
<stop offset="1" style="stop-color:#d90000;stop-opacity:1;"/>
</linearGradient>
</defs>
<g id="surface1">
<path style=" stroke:none;fill-rule:nonzero;fill:url(#linear0);" d="M 34.128906 0.015625 C 32.40625 -0.0351562 32.054688 0.0234375 31.5625 0.46875 C 30.746094 1.179688 30.785156 2.710938 31.628906 3.359375 C 32.085938 3.699219 32.433594 3.777344 34.441406 3.890625 C 40.382812 4.230469 44.929688 5.800781 49.316406 9.023438 C 54.578125 12.875 57.878906 18.246094 59.128906 24.96875 C 59.449219 26.683594 59.605469 28.113281 59.714844 30.335938 C 59.78125 31.78125 59.828125 32.101562 60.019531 32.476562 C 60.625 33.601562 62.386719 33.765625 63.191406 32.761719 C 63.617188 32.246094 63.664062 31.847656 63.585938 30.039062 C 63.386719 24.742188 62.210938 19.925781 60.152344 15.875 C 58.671875 12.972656 57.285156 11.101562 54.769531 8.632812 C 52.082031 6.019531 50.050781 4.585938 46.878906 3.070312 C 43.652344 1.53125 40.710938 0.671875 37.078125 0.226562 C 36.355469 0.144531 35.027344 0.0429688 34.128906 0.015625 Z M 11.558594 1.078125 C 11.082031 1.035156 10.613281 1.035156 10.269531 1.109375 L 10.261719 1.109375 C 9.257812 1.316406 8 2.046875 5.269531 4.03125 C 3.632812 5.230469 1.386719 7.382812 0.855469 8.25 C -0.367188 10.304688 -0.300781 12.050781 1.191406 16.070312 C 3.753906 22.960938 7.492188 29.597656 12.410156 36.007812 C 21.824219 48.265625 33.679688 57.183594 48.527344 63.164062 C 50.417969 63.925781 51.035156 64.054688 52.519531 63.984375 C 54.316406 63.898438 55.679688 63.355469 57.601562 61.925781 C 59.730469 60.351562 62.773438 56.652344 63.558594 54.679688 C 64.300781 52.808594 64.101562 51.109375 63.003906 49.785156 C 62.378906 49.054688 57.765625 45.375 55.613281 43.898438 C 53.976562 42.78125 51.441406 41.246094 50.277344 40.65625 C 48.742188 39.890625 47.214844 39.757812 45.722656 40.253906 C 44.546875 40.652344 44.164062 40.988281 42.449219 43.089844 C 41.558594 44.167969 40.742188 45.144531 40.636719 45.234375 C 40.519531 45.328125 40.148438 45.53125 39.800781 45.6875 C 38.417969 46.320312 36.519531 45.9375 33.425781 44.425781 C 31.011719 43.261719 28.875 41.785156 26.457031 39.613281 C 24.398438 37.777344 22.316406 35.375 21.152344 33.507812 C 19.652344 31.097656 18.507812 27.976562 18.496094 26.25 C 18.496094 25.503906 18.804688 24.449219 19.183594 23.914062 C 19.332031 23.699219 20.273438 22.878906 21.277344 22.085938 C 23.785156 20.113281 24.34375 19.496094 24.683594 18.320312 C 25.011719 17.226562 24.660156 15.742188 23.613281 13.75 C 21.785156 10.257812 16.195312 3.269531 14.183594 1.96875 C 13.855469 1.761719 13.28125 1.476562 12.910156 1.351562 C 12.53125 1.214844 12.039062 1.121094 11.558594 1.078125 Z M 35.113281 7.570312 C 34.515625 7.660156 34.167969 7.902344 33.898438 8.320312 L 33.886719 8.320312 C 33.378906 9.074219 33.441406 9.984375 34.042969 10.65625 C 34.433594 11.101562 35.003906 11.308594 36.042969 11.390625 C 38.914062 11.617188 42.050781 12.535156 44.183594 13.773438 C 46.65625 15.210938 48.6875 17.273438 50.078125 19.773438 C 51.308594 21.964844 52.019531 24.785156 52.019531 27.460938 C 52.019531 29.195312 52.257812 29.832031 53.074219 30.234375 C 53.558594 30.484375 54.445312 30.503906 54.855469 30.296875 C 55.234375 30.097656 55.679688 29.632812 55.816406 29.277344 C 55.964844 28.90625 55.960938 26.664062 55.824219 25.4375 C 55.429688 22.078125 54.296875 18.945312 52.464844 16.28125 C 49.207031 11.546875 44.234375 8.640625 37.816406 7.71875 C 36.550781 7.53125 35.707031 7.476562 35.113281 7.570312 Z M 37.355469 15.296875 C 37.152344 15.320312 37.011719 15.371094 36.808594 15.46875 C 35.742188 16.003906 35.445312 17.460938 36.214844 18.359375 C 36.636719 18.84375 37.03125 18.988281 38.332031 19.140625 C 41.105469 19.472656 42.734375 20.484375 43.667969 22.4375 C 44.101562 23.355469 44.359375 24.351562 44.496094 25.765625 C 44.613281 26.828125 44.773438 27.222656 45.277344 27.59375 C 45.976562 28.121094 47.125 28.09375 47.746094 27.539062 C 48.410156 26.941406 48.53125 26.21875 48.242188 24.382812 C 47.824219 21.5625 46.863281 19.59375 45.105469 17.976562 C 43.738281 16.726562 42.140625 15.949219 40.058594 15.515625 C 39.628906 15.425781 38.820312 15.335938 38.269531 15.304688 L 38.261719 15.304688 C 37.824219 15.277344 37.554688 15.273438 37.355469 15.296875 Z M 37.355469 15.296875 "/>
</g>
</svg>
