<svg xmlns="http://www.w3.org/2000/svg" xmlns:xlink="http://www.w3.org/1999/xlink" width="64" height="64" viewBox="0 0 64 64" version="1.1">
<defs>
<linearGradient id="linear0" gradientUnits="userSpaceOnUse" x1="0" y1="0" x2="0" y2="1" gradientTransform="matrix(64,0,0,56.617188,0,0)">
<stop offset="0" style="stop-color:#ff6666;stop-opacity:1;"/>
<stop offset="1" style="stop-color:#d90000;stop-opacity:1;"/>
</linearGradient>
</defs>
<g id="surface1">
<path style=" stroke:none;fill-rule:nonzero;fill:url(#linear0);" d="M 0 0 L 0 4.925781 L 4.925781 4.925781 C 6.3125 4.925781 7.382812 5.992188 7.382812 7.382812 L 7.382812 56.617188 L 12.308594 56.617188 L 12.308594 49.230469 L 17.230469 49.230469 L 17.230469 54.152344 L 54.152344 54.152344 L 54.152344 49.230469 L 56.617188 49.230469 C 60.664062 49.230469 64 45.894531 64 41.847656 L 64 17.230469 C 64 13.179688 60.664062 9.847656 56.617188 9.847656 L 12.308594 9.847656 L 12.308594 7.382812 C 12.308594 3.335938 8.972656 0 4.925781 0 Z M 12.308594 14.769531 L 56.617188 14.769531 C 58.007812 14.769531 59.074219 15.839844 59.074219 17.230469 L 59.074219 41.847656 C 59.074219 43.234375 58.007812 44.308594 56.617188 44.308594 L 12.308594 44.308594 Z M 44.308594 17.230469 C 37.523438 17.230469 32 22.757812 32 29.539062 C 32 36.324219 37.523438 41.847656 44.308594 41.847656 C 51.09375 41.847656 56.617188 36.324219 56.617188 29.539062 C 56.617188 22.757812 51.09375 17.230469 44.308594 17.230469 Z M 17.230469 19.691406 L 17.230469 24.617188 L 27.074219 24.617188 L 27.074219 19.691406 Z M 44.308594 19.691406 C 46.378906 19.691406 48.292969 20.332031 49.875 21.414062 C 49.007812 22.070312 48.015625 22.914062 46.839844 24.035156 C 46.207031 24.636719 45.585938 25.273438 44.980469 25.90625 C 44.761719 25.199219 44.558594 24.488281 44.378906 23.773438 C 43.933594 21.953125 43.640625 20.132812 43.617188 19.761719 C 43.847656 19.742188 44.070312 19.691406 44.308594 19.691406 Z M 40.027344 20.707031 C 40.15625 21.789062 40.40625 23.078125 40.796875 24.660156 C 41.003906 25.496094 41.242188 26.34375 41.496094 27.171875 C 40.765625 27.011719 40.039062 26.835938 39.320312 26.640625 C 37.488281 26.132812 35.710938 25.46875 35.4375 25.332031 C 36.394531 23.3125 38.015625 21.679688 40.027344 20.707031 Z M 52.484375 24.046875 C 53.539062 25.617188 54.152344 27.5 54.152344 29.539062 C 54.152344 29.773438 54.105469 29.992188 54.089844 30.21875 C 52.871094 29.734375 51.636719 29.316406 50.375 28.964844 C 49.542969 28.71875 48.707031 28.503906 47.863281 28.3125 C 48.363281 27.773438 48.824219 27.242188 49.382812 26.710938 C 50.367188 25.769531 51.402344 24.878906 52.484375 24.046875 Z M 17.230469 27.074219 L 17.230469 32 L 27.074219 32 L 27.074219 27.074219 Z M 34.523438 28.929688 C 35.539062 29.355469 36.773438 29.765625 38.332031 30.199219 C 39.1875 30.4375 40.035156 30.59375 40.890625 30.769531 C 40.375 31.335938 39.832031 31.914062 39.28125 32.46875 C 38.320312 33.429688 37.304688 34.332031 36.238281 35.175781 C 35.078125 33.523438 34.460938 31.554688 34.460938 29.539062 C 34.460938 29.328125 34.511719 29.136719 34.523438 28.929688 Z M 47.160156 31.949219 C 49.203125 32.402344 51.203125 33.027344 53.144531 33.820312 C 52.199219 35.769531 50.632812 37.351562 48.6875 38.316406 C 48.492188 37.019531 48.222656 35.734375 47.882812 34.472656 C 47.667969 33.628906 47.414062 32.777344 47.160156 31.949219 Z M 43.671875 33.203125 C 43.894531 33.925781 44.125 34.660156 44.3125 35.394531 C 44.765625 37.148438 45.058594 38.832031 45.117188 39.304688 C 44.84375 39.324219 44.585938 39.382812 44.308594 39.382812 C 42.382812 39.382812 40.503906 38.820312 38.898438 37.761719 C 39.949219 36.933594 40.945312 36.039062 41.878906 35.089844 C 42.492188 34.480469 43.09375 33.839844 43.675781 33.199219 Z M 17.230469 34.460938 L 17.230469 39.382812 L 27.074219 39.382812 L 27.074219 34.460938 Z M 17.230469 34.460938 "/>
</g>
</svg>
