<svg xmlns="http://www.w3.org/2000/svg" xmlns:xlink="http://www.w3.org/1999/xlink" width="64" height="64" viewBox="0 0 64 64" version="1.1">
<defs> <linearGradient id="linear0" gradientUnits="userSpaceOnUse" x1="0" y1="0" x2="0" y2="1" gradientTransform="matrix(55.992188,0,0,56,4.003906,4)"> <stop offset="0" style="stop-color:#ff6666;stop-opacity:1;"/> <stop offset="1" style="stop-color:#d90000;stop-opacity:1;"/> </linearGradient> </defs>
<g id="surface1">
<path style=" stroke:none;fill-rule:nonzero;fill:url(#linear0);fill-opacity:1;" d="M 14.996094 6.875 C 17.960938 5.722656 21.304688 7.183594 22.46875 10.132812 L 37.621094 48.753906 C 38.78125 51.707031 37.316406 55.039062 34.34375 56.191406 C 31.378906 57.351562 28.035156 55.890625 26.875 52.933594 L 11.726562 14.320312 C 10.566406 11.363281 12.03125 8.03125 14.996094 6.875 Z M 14.996094 6.875 "/>
<path style=" stroke:none;fill-rule:nonzero;fill:url(#linear0);fill-opacity:1;" d="M 46.382812 7.628906 C 44.015625 7.527344 41.765625 8.96875 40.933594 11.339844 L 27.460938 49.335938 C 26.429688 52.253906 27.933594 55.433594 30.828125 56.472656 C 33.726562 57.507812 36.890625 56 37.921875 53.082031 L 40.246094 46.539062 C 39.011719 45.871094 38.273438 44.570312 38.332031 43.179688 C 38.371094 42.222656 38.785156 41.324219 39.476562 40.671875 C 39.21875 40.128906 39.09375 39.53125 39.113281 38.929688 C 39.167969 37.675781 39.863281 36.535156 40.953125 35.90625 C 41.234375 34.050781 42.875 32.703125 44.753906 32.785156 C 44.875 32.789062 44.988281 32.800781 45.105469 32.816406 L 51.386719 15.089844 C 52.421875 12.171875 50.921875 8.984375 48.023438 7.953125 C 47.480469 7.753906 46.929688 7.652344 46.382812 7.628906 Z M 46.382812 7.628906 "/>
</g>
</svg>
