<svg xmlns="http://www.w3.org/2000/svg" xmlns:xlink="http://www.w3.org/1999/xlink" width="64" height="64" viewBox="0 0 64 64" version="1.1">
<defs> <linearGradient id="linear0" gradientUnits="userSpaceOnUse" x1="0" y1="0" x2="0" y2="1" gradientTransform="matrix(55.992188,0,0,56,4.003906,4)"> <stop offset="0" style="stop-color:#ff6666;stop-opacity:1;"/> <stop offset="1" style="stop-color:#d90000;stop-opacity:1;"/> </linearGradient> </defs>
<g id="surface1">
<path style=" stroke:none;fill-rule:nonzero;fill:url(#linear0);fill-opacity:1;" d="M 33.777344 57.53125 C 35.128906 56.730469 40.796875 50.898438 42.859375 48.207031 C 43.765625 47.011719 45.503906 44.382812 46.714844 42.359375 C 48.65625 39.125 49.035156 38.675781 49.898438 38.601562 C 50.4375 38.558594 51.824219 38.429688 52.976562 38.328125 L 55.074219 38.128906 C 55.074219 36.3125 55.074219 34.492188 55.074219 32.671875 L 51.46875 32.671875 C 48.265625 32.671875 47.660156 32.574219 46.019531 31.789062 C 41.613281 29.679688 39.308594 25.738281 39.21875 20.148438 C 39.1875 18.578125 39.359375 16.757812 39.597656 16.066406 C 40.789062 12.621094 44.929688 12.074219 46.53125 15.152344 C 47.320312 16.671875 47.46875 19.679688 46.902344 22.484375 C 46.457031 24.160156 46.132812 24.753906 47.34375 25.875 C 48.390625 26.847656 51 27.554688 52.472656 27.265625 C 53.238281 27.117188 53.484375 26.800781 53.914062 25.371094 C 55.867188 18.898438 55.105469 12.71875 51.914062 9.199219 C 47.90625 4.785156 39.261719 4.941406 35.109375 9.511719 C 29.847656 15.320312 30.585938 26.691406 36.65625 33.304688 C 37.609375 34.34375 39.050781 35.582031 39.859375 36.058594 C 40.664062 36.527344 41.324219 37.09375 41.324219 37.3125 C 41.324219 38.449219 36.230469 46.070312 33.324219 49.285156 C 31.527344 51.277344 31.378906 51.1875 27.875 46.046875 C 22.816406 38.632812 19.613281 29.832031 17.800781 18.414062 L 17.070312 13.804688 L 9.035156 13.804688 L 9.261719 15.722656 C 9.664062 19.207031 11.425781 27.292969 12.664062 31.347656 C 16.207031 43.003906 21.78125 52.480469 27.59375 56.730469 C 30.210938 58.640625 31.613281 58.820312 33.777344 57.53125 "/>
</g>
</svg>
