<svg xmlns="http://www.w3.org/2000/svg" xmlns:xlink="http://www.w3.org/1999/xlink" width="64" height="64" viewBox="0 0 64 64" version="1.1">
<defs> <linearGradient id="linear0" gradientUnits="userSpaceOnUse" x1="0" y1="0" x2="0" y2="1" gradientTransform="matrix(55.992188,0,0,56,4.003906,4)"> <stop offset="0" style="stop-color:#ff6666;stop-opacity:1;"/> <stop offset="1" style="stop-color:#d90000;stop-opacity:1;"/> </linearGradient> </defs>
<g id="surface1">
<path style=" stroke:none;fill-rule:nonzero;fill:url(#linear0);fill-opacity:1;" d="M 4.488281 7.855469 C 3.804688 7.929688 3.261719 8.539062 3.261719 9.222656 L 3.261719 34.101562 C 3.261719 34.824219 3.898438 35.46875 4.632812 35.46875 L 17.121094 35.46875 L 17.121094 40.066406 L 7.878906 40.066406 L 7.878906 44.664062 L 24.695312 44.664062 L 24.695312 30.867188 L 8.902344 30.867188 C 8.414062 30.867188 7.953125 30.421875 7.953125 29.921875 L 7.953125 13.402344 C 7.941406 12.96875 8.25 12.550781 8.675781 12.464844 C 8.730469 12.457031 8.828125 12.457031 8.890625 12.464844 L 34.589844 12.464844 C 35.066406 12.464844 35.527344 12.90625 35.527344 13.402344 L 35.527344 20.015625 L 40.214844 20.015625 L 40.214844 9.222656 C 40.214844 8.503906 39.570312 7.855469 38.847656 7.855469 M 4.488281 7.855469 "/>
<path style=" stroke:none;fill-rule:nonzero;fill:url(#linear0);fill-opacity:1;" d="M 27.59375 21.660156 C 26.917969 21.726562 26.347656 22.359375 26.347656 23.035156 L 26.347656 47.894531 C 26.347656 48.613281 27.019531 49.269531 27.738281 49.269531 L 40.210938 49.269531 L 40.210938 56.152344 L 49.445312 56.152344 L 49.445312 49.269531 L 61.921875 49.269531 C 62.648438 49.269531 63.308594 48.613281 63.308594 47.894531 L 63.308594 23.035156 C 63.308594 22.304688 62.636719 21.660156 61.921875 21.660156 M 31.785156 26.257812 C 31.835938 26.246094 31.890625 26.246094 31.953125 26.257812 L 57.695312 26.257812 C 58.183594 26.257812 58.621094 26.699219 58.621094 27.183594 L 58.621094 43.75 C 58.621094 44.226562 58.183594 44.664062 57.695312 44.664062 L 31.953125 44.664062 C 31.464844 44.664062 31.023438 44.226562 31.023438 43.75 L 31.023438 27.183594 C 31.015625 26.75 31.359375 26.335938 31.785156 26.257812 M 30.972656 53.863281 L 30.972656 58.460938 L 58.683594 58.460938 L 58.683594 53.863281 M 30.972656 53.863281 "/>
</g>
</svg>
