<svg xmlns="http://www.w3.org/2000/svg" xmlns:xlink="http://www.w3.org/1999/xlink" width="64" height="64" viewBox="0 0 64 64" version="1.1">
<defs>
<linearGradient id="linear0" gradientUnits="userSpaceOnUse" x1="0" y1="0" x2="0" y2="1" gradientTransform="matrix(60,0,0,60,2,2)">
<stop offset="0" style="stop-color:#ff6666;stop-opacity:1;"/>
<stop offset="1" style="stop-color:#d90000;stop-opacity:1;"/>
</linearGradient>
</defs>
<g id="surface1">
<path style=" stroke:none;fill-rule:nonzero;fill:url(#linear0);" d="M 36.734375 61.242188 C 34.753906 60.230469 34.007812 58.390625 34.808594 56.476562 C 35.675781 54.40625 37.5 53.804688 42.914062 53.804688 C 45.394531 53.804688 47.425781 53.652344 47.425781 53.46875 C 47.425781 53.285156 46.023438 51.734375 44.308594 50.019531 L 41.191406 46.902344 L 34.140625 46.902344 L 34.140625 38.710938 L 35.769531 38.710938 C 37.820312 38.710938 38.425781 38.101562 38.425781 36.035156 L 38.425781 34.398438 L 46.996094 34.398438 L 46.996094 41.535156 L 50.210938 44.746094 L 53.425781 47.960938 L 53.425781 43.320312 C 53.425781 37.671875 54.003906 35.945312 56.195312 35.023438 C 57.53125 34.460938 57.890625 34.460938 59.226562 35.023438 C 61.742188 36.082031 61.996094 37.28125 61.996094 48.195312 C 61.996094 62.601562 62.609375 61.996094 47.976562 61.996094 C 39.53125 61.996094 38.011719 61.890625 36.734375 61.242188 Z M 19.660156 46.253906 C 17.644531 45.371094 17 43.488281 17 38.507812 L 17 34.398438 L 25.570312 34.398438 L 25.570312 36.035156 C 25.570312 38.101562 26.175781 38.710938 28.226562 38.710938 L 29.855469 38.710938 L 29.855469 46.902344 L 25.460938 46.886719 C 22.632812 46.878906 20.570312 46.652344 19.660156 46.253906 Z M 4.664062 29.003906 C 2.265625 27.957031 2 26.644531 2 15.851562 C 2 4.953125 2.253906 3.738281 4.757812 2.683594 C 6.925781 1.773438 24.929688 1.773438 27.097656 2.683594 C 30.230469 4 30.324219 7.929688 27.261719 9.492188 C 26.128906 10.070312 24.714844 10.246094 21.175781 10.246094 C 18.644531 10.246094 16.570312 10.382812 16.570312 10.5625 C 16.570312 10.734375 17.964844 12.285156 19.667969 14.011719 L 22.761719 17.148438 L 29.855469 17.148438 L 29.855469 25.339844 L 28.226562 25.339844 C 26.175781 25.339844 25.570312 25.949219 25.570312 28.015625 L 25.570312 29.652344 L 17 29.652344 L 17 22.515625 L 13.785156 19.304688 L 10.570312 16.089844 L 10.570312 20.730469 C 10.570312 26.367188 9.992188 28.105469 7.816406 29.023438 C 6.050781 29.765625 6.40625 29.765625 4.664062 29.007812 Z M 38.425781 28.015625 C 38.425781 25.949219 37.820312 25.339844 35.769531 25.339844 L 34.140625 25.339844 L 34.140625 17.148438 L 41.234375 17.148438 L 44.328125 14.011719 C 46.03125 12.285156 47.425781 10.734375 47.425781 10.5625 C 47.425781 10.386719 45.351562 10.246094 42.820312 10.246094 C 39.285156 10.246094 37.867188 10.070312 36.734375 9.492188 C 33.671875 7.929688 33.765625 4 36.898438 2.683594 C 39.066406 1.773438 57.070312 1.773438 59.238281 2.683594 C 61.742188 3.738281 61.996094 4.953125 61.996094 15.851562 C 61.996094 26.769531 61.742188 27.96875 59.226562 29.027344 C 57.890625 29.589844 57.53125 29.589844 56.195312 29.027344 C 54.003906 28.105469 53.425781 26.375 53.425781 20.730469 L 53.425781 16.089844 L 50.210938 19.304688 L 46.996094 22.515625 L 46.996094 29.652344 L 38.425781 29.652344 Z M 38.425781 28.015625 "/>
</g>
</svg>
