<svg xmlns="http://www.w3.org/2000/svg" xmlns:xlink="http://www.w3.org/1999/xlink" width="64" height="64" viewBox="0 0 64 64" version="1.1">
<defs>
<linearGradient id="linear0" gradientUnits="userSpaceOnUse" x1="0" y1="0" x2="0" y2="1" gradientTransform="matrix(63.71875,0,0,64,0.140625,0)">
<stop offset="0" style="stop-color:#ff6666;stop-opacity:1;"/>
<stop offset="1" style="stop-color:#d90000;stop-opacity:1;"/>
</linearGradient>
</defs>
<g id="surface1">
<path style=" stroke:none;fill-rule:evenodd;fill:url(#linear0);" d="M 16.867188 17.011719 L 12.359375 17.011719 C 9.117188 17.011719 5.96875 18.324219 3.710938 20.578125 C 1.410156 22.882812 0.0976562 25.984375 0.140625 29.226562 L 0.140625 51.785156 C 0.0976562 55.023438 1.410156 58.128906 3.710938 60.429688 C 5.96875 62.730469 9.117188 64 12.359375 64 L 34.910156 64 C 38.109375 64 41.257812 62.730469 43.511719 60.429688 C 45.816406 58.128906 47.132812 55.023438 47.132812 51.785156 L 47.132812 46.988281 L 51.644531 46.988281 C 54.882812 46.988281 57.984375 45.675781 60.289062 43.421875 C 62.542969 41.117188 63.859375 38.015625 63.859375 34.773438 L 63.859375 12.214844 C 63.859375 8.976562 62.542969 5.871094 60.289062 3.570312 C 57.984375 1.269531 54.882812 0 51.644531 0 L 29.089844 0 C 25.84375 0 22.742188 1.269531 20.441406 3.570312 C 18.140625 5.871094 16.867188 8.976562 16.867188 12.214844 Z M 26.269531 17.011719 L 34.910156 17.011719 C 38.109375 17.011719 41.257812 18.324219 43.511719 20.578125 C 45.816406 22.882812 47.132812 25.984375 47.132812 29.226562 L 47.132812 37.59375 L 51.644531 37.59375 C 52.394531 37.59375 53.101562 37.265625 53.617188 36.742188 C 54.132812 36.226562 54.460938 35.523438 54.460938 34.773438 L 54.460938 12.214844 C 54.460938 11.464844 54.132812 10.761719 53.617188 10.195312 C 53.101562 9.679688 52.394531 9.394531 51.644531 9.394531 L 29.089844 9.394531 C 28.335938 9.394531 27.632812 9.679688 27.066406 10.195312 C 26.546875 10.761719 26.269531 11.464844 26.269531 12.214844 Z M 16.867188 26.40625 L 12.3125 26.40625 C 11.609375 26.40625 10.855469 26.734375 10.339844 27.257812 C 9.820312 27.773438 9.539062 28.476562 9.539062 29.226562 L 9.539062 51.785156 C 9.539062 52.535156 9.820312 53.238281 10.339844 53.804688 C 10.855469 54.320312 11.609375 54.605469 12.3125 54.605469 L 34.910156 54.605469 C 35.621094 54.605469 36.371094 54.320312 36.886719 53.804688 C 37.402344 53.238281 37.730469 52.535156 37.730469 51.785156 L 37.730469 46.988281 L 29.089844 46.988281 C 25.84375 46.988281 22.742188 45.675781 20.441406 43.421875 C 18.140625 41.117188 16.867188 38.015625 16.867188 34.773438 Z M 26.269531 26.40625 L 34.910156 26.40625 C 35.621094 26.40625 36.371094 26.734375 36.886719 27.257812 C 37.402344 27.773438 37.730469 28.476562 37.730469 29.226562 L 37.730469 37.59375 L 29.089844 37.59375 C 28.335938 37.59375 27.632812 37.265625 27.066406 36.742188 C 26.546875 36.226562 26.269531 35.523438 26.269531 34.773438 Z M 26.269531 26.40625 "/>
</g>
</svg>
