<svg xmlns="http://www.w3.org/2000/svg" xmlns:xlink="http://www.w3.org/1999/xlink" width="64" height="64" viewBox="0 0 64 64" version="1.1">
<defs> <linearGradient id="linear0" gradientUnits="userSpaceOnUse" x1="0" y1="0" x2="0" y2="1" gradientTransform="matrix(55.992188,0,0,56,4.003906,4)"> <stop offset="0" style="stop-color:#ff6666;stop-opacity:1;"/> <stop offset="1" style="stop-color:#d90000;stop-opacity:1;"/> </linearGradient> </defs>
<g id="surface1">
<path style=" stroke:none;fill-rule:evenodd;fill:url(#linear0);fill-opacity:1;" d="M 32.054688 2.109375 L 6.183594 17.140625 L 10.5 24.667969 L 10.5 24.464844 L 27.75 34.476562 L 27.75 54.597656 L 27.632812 54.527344 L 32.054688 62.238281 L 36.472656 54.539062 L 36.378906 54.597656 L 36.378906 34.476562 L 53.625 24.464844 L 53.625 24.644531 L 57.929688 17.140625 Z M 32.0625 6.921875 L 49.375 16.984375 L 32.0625 27.042969 L 14.746094 16.984375 Z M 32.0625 6.921875 "/>
<path style=" stroke:none;fill-rule:evenodd;fill:url(#linear0);fill-opacity:1;" d="M 57.929688 17.140625 L 32.054688 32.171875 C 29.238281 42.195312 30.660156 52.214844 32.054688 62.238281 L 57.929688 47.207031 Z M 53.625 24.464844 L 53.625 44.574219 L 36.378906 54.597656 L 36.378906 34.476562 Z M 53.625 24.464844 "/>
<path style=" stroke:none;fill-rule:evenodd;fill:url(#linear0);fill-opacity:1;" d="M 6.183594 17.140625 L 6.183594 47.195312 L 32.054688 62.226562 L 32.054688 32.160156 Z M 10.492188 24.628906 L 27.746094 34.640625 L 27.746094 54.753906 L 10.492188 44.738281 Z M 10.492188 24.628906 "/>
</g>
</svg>
