<svg xmlns="http://www.w3.org/2000/svg" xmlns:xlink="http://www.w3.org/1999/xlink" width="64" height="64" viewBox="0 0 64 64" version="1.1">
<defs>
<linearGradient id="linear0" gradientUnits="userSpaceOnUse" x1="0" y1="0" x2="0" y2="1" gradientTransform="matrix(24.992187,0,0,29.15625,39.015625,32)">
<stop offset="0" style="stop-color:#ff6666;stop-opacity:1;"/>
<stop offset="1" style="stop-color:#d90000;stop-opacity:1;"/>
</linearGradient>
<linearGradient id="linear1" gradientUnits="userSpaceOnUse" x1="0" y1="0" x2="0" y2="1" gradientTransform="matrix(61.355469,0,0,54.148438,0.0078125,2.84375)">
<stop offset="0" style="stop-color:#ff6666;stop-opacity:1;"/>
<stop offset="1" style="stop-color:#d90000;stop-opacity:1;"/>
</linearGradient>
</defs>
<g id="surface1">
<path style=" stroke:none;fill-rule:nonzero;fill:url(#linear0);" d="M 51.511719 32 C 46.894531 32 43.179688 35.792969 43.179688 40.460938 L 43.179688 44.496094 L 39.015625 44.496094 L 39.015625 61.15625 L 64.007812 61.15625 L 64.007812 44.496094 L 59.839844 44.496094 L 59.839844 40.460938 C 59.839844 35.796875 56.125 32 51.511719 32 Z M 51.511719 36.164062 C 53.816406 36.164062 55.675781 38.007812 55.675781 40.332031 L 55.675781 44.496094 L 47.34375 44.496094 L 47.34375 40.332031 C 47.34375 38.007812 49.203125 36.164062 51.511719 36.164062 Z M 51.511719 36.164062 "/>
<path style=" stroke:none;fill-rule:nonzero;fill:url(#linear1);" d="M 30.683594 2.84375 C 19.574219 2.84375 8.46875 7.070312 0.0078125 15.535156 L 3.074219 18.609375 C 18.339844 3.339844 43.027344 3.339844 58.296875 18.609375 L 61.363281 15.535156 C 52.898438 7.070312 41.792969 2.84375 30.683594 2.84375 Z M 30.683594 15.265625 C 22.683594 15.265625 14.6875 18.3125 8.597656 24.402344 L 11.664062 27.46875 C 22.1875 16.945312 39.179688 16.945312 49.703125 27.46875 L 52.769531 24.402344 C 46.679688 18.3125 38.683594 15.265625 30.683594 15.265625 Z M 30.683594 27.753906 C 25.792969 27.753906 20.90625 29.609375 17.1875 33.324219 L 20.253906 36.402344 C 25.710938 30.945312 34.265625 30.710938 40.070312 35.554688 C 40.644531 34.199219 41.460938 32.980469 42.4375 31.910156 C 38.992188 29.195312 34.863281 27.753906 30.683594 27.753906 Z M 30.683594 40.332031 C 26.082031 40.332031 22.351562 44.058594 22.351562 48.660156 C 22.351562 53.261719 26.082031 56.992188 30.683594 56.992188 C 32.148438 56.988281 33.582031 56.601562 34.847656 55.867188 L 34.847656 41.460938 C 33.585938 40.726562 32.148438 40.335938 30.683594 40.332031 Z M 30.683594 40.332031 "/>
</g>
</svg>
