<svg xmlns="http://www.w3.org/2000/svg" xmlns:xlink="http://www.w3.org/1999/xlink" width="64" height="64" viewBox="0 0 64 64" version="1.1">
<defs>
<linearGradient id="linear0" gradientUnits="userSpaceOnUse" x1="0" y1="0" x2="0" y2="1" gradientTransform="matrix(-64,0,0,56.351562,64.000198,3.824219)">
<stop offset="0" style="stop-color:#ff6666;stop-opacity:1;"/>
<stop offset="1" style="stop-color:#d90000;stop-opacity:1;"/>
</linearGradient>
</defs>
<g id="surface1">
<path style=" stroke:none;fill-rule:nonzero;fill:url(#linear0);" d="M 49.332031 3.84375 C 49.644531 3.878906 49.949219 3.984375 50.234375 4.152344 L 62.792969 11.394531 C 63.953125 12.066406 64.34375 13.535156 63.671875 14.691406 L 61.257812 18.875 C 60.589844 20.035156 59.121094 20.433594 57.960938 19.765625 L 55.835938 18.535156 C 54.199219 21.792969 51.488281 26.773438 46.136719 36.53125 C 38.335938 50.757812 34.628906 57.3125 34.019531 57.960938 C 31.867188 60.238281 28.796875 60.804688 25.925781 59.449219 C 25.171875 59.09375 24.320312 58.453125 23.773438 57.832031 C 22.703125 56.621094 0.589844 16.460938 0.226562 15.074219 C -0.148438 13.628906 -0.0507812 11.566406 0.457031 10.144531 C 1.085938 8.371094 2.820312 6.558594 4.53125 5.878906 C 5.300781 5.574219 6.199219 5.429688 7.105469 5.429688 C 8.269531 5.429688 9.445312 5.675781 10.386719 6.164062 C 11.765625 6.871094 13.152344 8.375 13.765625 9.824219 C 14.421875 11.363281 14.511719 14.078125 13.960938 15.523438 C 13.726562 16.132812 13.324219 17.179688 13.066406 17.851562 C 12.484375 19.367188 12.277344 22.707031 12.644531 24.578125 C 13.058594 26.691406 14.351562 29.128906 15.867188 30.65625 C 20.410156 35.253906 27.292969 35.335938 31.808594 30.847656 C 33.363281 29.296875 33.585938 28.929688 40.621094 16.085938 C 42.246094 13.105469 43.535156 10.886719 44.476562 9.359375 C 44.5 9.3125 44.5 9.261719 44.523438 9.214844 L 46.941406 5.03125 C 47.445312 4.160156 48.394531 3.722656 49.332031 3.84375 Z M 49.332031 3.84375 "/>
</g>
</svg>
