<svg xmlns="http://www.w3.org/2000/svg" xmlns:xlink="http://www.w3.org/1999/xlink" width="64" height="64" viewBox="0 0 64 64" version="1.1">
<defs>
<linearGradient id="linear0" gradientUnits="userSpaceOnUse" x1="0" y1="0" x2="0" y2="1" gradientTransform="matrix(60.421875,0,0,64,1.789062,0)">
<stop offset="0" style="stop-color:#ff6666;stop-opacity:1;"/>
<stop offset="1" style="stop-color:#d90000;stop-opacity:1;"/>
</linearGradient>
</defs>
<g id="surface1">
<path style=" stroke:none;fill-rule:nonzero;fill:url(#linear0);" d="M 32.523438 63.890625 C 30.886719 63.359375 30.285156 62.1875 29.332031 57.691406 C 28.796875 55.15625 27.699219 53.734375 25.640625 52.921875 C 24.433594 52.445312 23.835938 52.359375 19.410156 52.046875 C 15.429688 51.769531 13.5625 50.773438 12.265625 48.21875 C 11.757812 47.222656 11.359375 45.914062 10.800781 43.367188 C 10.09375 40.144531 9.441406 38.488281 8.046875 36.386719 C 7.183594 35.089844 5.230469 33.121094 3.851562 32.15625 C 2.535156 31.234375 2.21875 30.949219 1.96875 30.464844 C 1.648438 29.835938 1.753906 29.246094 2.269531 28.769531 C 3.304688 27.804688 4.777344 28.105469 5.863281 29.507812 C 6.050781 29.742188 6.503906 30.484375 6.875 31.148438 C 7.550781 32.363281 8.28125 33.414062 8.445312 33.414062 C 8.496094 33.414062 8.53125 31.695312 8.53125 29.535156 C 8.53125 25.371094 8.554688 25.164062 9.046875 24.816406 C 9.4375 24.546875 9.984375 24.609375 10.386719 24.964844 C 11.074219 25.566406 11.152344 26.011719 11.960938 34.273438 C 12.136719 36.035156 12.097656 35.972656 12.625 35.394531 C 13.128906 34.839844 13.6875 33.734375 13.878906 32.910156 C 14.0625 32.128906 14.023438 30.886719 13.78125 29.890625 C 13.53125 28.867188 13.519531 28.46875 13.722656 28.039062 C 14.144531 27.152344 15.3125 27.175781 15.941406 28.089844 C 16.367188 28.703125 16.519531 29.269531 16.570312 30.378906 C 16.636719 31.875 16.410156 32.929688 15.332031 36.242188 C 14.164062 39.824219 14.03125 40.398438 14.027344 41.882812 C 14.027344 42.816406 14.074219 43.191406 14.265625 43.800781 C 15.21875 46.867188 18.121094 48.746094 22.734375 49.292969 C 24.046875 49.453125 24.652344 49.476562 24.652344 49.386719 C 24.652344 49.355469 24.421875 48.933594 24.144531 48.433594 C 22.433594 45.394531 21.71875 43.125 21.859375 41.136719 C 21.945312 39.980469 22.164062 39.175781 22.964844 37.101562 C 24.195312 33.925781 24.378906 33.148438 24.382812 31.109375 C 24.394531 26.753906 22.152344 22.632812 18.578125 20.4375 C 18.179688 20.191406 16.992188 19.601562 15.941406 19.125 C 13.757812 18.136719 12.757812 17.527344 11.960938 16.707031 C 11.015625 15.730469 10.449219 14.515625 10.449219 13.464844 C 10.449219 12.988281 10.65625 12.863281 11.554688 12.800781 C 13.195312 12.683594 14.625 13.425781 17.085938 15.679688 C 18.636719 17.101562 19.355469 17.644531 20.257812 18.070312 C 21.113281 18.480469 22.367188 18.722656 22.566406 18.523438 C 22.640625 18.460938 22.6875 18.09375 22.6875 17.628906 C 22.6875 16.558594 22.304688 15.773438 21.347656 14.875 C 20.703125 14.277344 20.238281 13.976562 18.269531 12.867188 C 16.257812 11.738281 15.238281 10.15625 15.496094 8.539062 C 15.644531 7.589844 16.308594 6.929688 17.265625 6.777344 C 19.941406 6.347656 23.980469 10.902344 25.800781 16.398438 C 26.761719 19.304688 27.101562 21.585938 27.105469 25.117188 C 27.109375 28.378906 26.835938 30.828125 25.996094 35.085938 C 25.660156 36.792969 25.550781 37.550781 25.589844 37.96875 C 25.722656 39.539062 26.632812 39.953125 27.953125 39.042969 C 29.519531 37.964844 31.0625 35.992188 31.699219 34.246094 C 32.203125 32.863281 32.324219 32.054688 32.398438 29.445312 C 32.460938 27.269531 32.488281 26.988281 32.679688 26.625 C 32.953125 26.109375 33.300781 25.785156 33.761719 25.628906 C 34.273438 25.449219 34.691406 25.546875 35.0625 25.914062 C 35.894531 26.746094 35.828125 28.253906 34.773438 32.378906 C 34.144531 34.828125 33.203125 36.96875 32.109375 38.449219 C 31.792969 38.871094 30.84375 39.871094 30 40.675781 C 28.183594 42.394531 27.609375 43.09375 27.09375 44.164062 C 26.726562 44.933594 26.714844 44.992188 26.714844 46.0625 C 26.714844 47.089844 26.734375 47.207031 26.988281 47.636719 C 28.121094 49.5625 31.015625 50.078125 33.121094 48.726562 C 35.484375 47.210938 37.488281 41.6875 38.355469 34.28125 C 38.976562 29.027344 38.5625 25.382812 36.988281 22.09375 C 35.914062 19.851562 34.507812 18.292969 31.871094 16.410156 C 30.996094 15.789062 29.992188 15.027344 29.640625 14.730469 C 28.8125 14.027344 27.886719 12.796875 27.519531 11.910156 C 27.273438 11.308594 27.230469 11.074219 27.222656 10.207031 L 27.21875 9.199219 L 27.667969 8.972656 C 28.835938 8.382812 30.585938 8.988281 32.003906 10.464844 C 32.308594 10.78125 32.941406 11.667969 33.40625 12.4375 C 34.800781 14.726562 35.621094 15.722656 36.464844 16.164062 L 36.742188 16.308594 L 36.296875 15.425781 C 36.050781 14.9375 35.039062 12.972656 34.050781 11.0625 C 31.597656 6.328125 31.5 6.097656 31.5 4.929688 C 31.5 3.777344 32.207031 3.003906 33.269531 3.003906 C 34.226562 3.003906 35.089844 3.675781 35.636719 4.855469 C 35.796875 5.195312 36.476562 7.375 37.144531 9.703125 C 37.816406 12.027344 38.671875 14.996094 39.046875 16.296875 L 39.730469 18.664062 L 40.035156 18.058594 C 40.738281 16.660156 41.28125 14.652344 41.476562 12.675781 C 41.671875 10.746094 41.472656 8.96875 40.722656 5.875 C 40.160156 3.554688 40.121094 3.285156 40.265625 2.503906 C 40.5625 0.832031 41.578125 -0.09375 42.992188 0.0078125 C 44.738281 0.136719 46.046875 1.546875 46.300781 3.601562 C 46.542969 5.566406 46.070312 7.640625 44.214844 12.777344 C 42.554688 17.371094 42.054688 18.953125 41.6875 20.785156 C 41.0625 23.859375 41.160156 26.804688 41.949219 29.078125 L 42.136719 29.625 L 43.277344 26.410156 C 43.898438 24.644531 44.53125 22.960938 44.675781 22.664062 C 45.214844 21.554688 46.128906 21.351562 46.886719 22.167969 C 47.257812 22.5625 47.332031 22.996094 47.15625 23.695312 C 46.609375 25.855469 43.769531 33.988281 39.21875 46.457031 C 37.074219 52.320312 37.054688 52.382812 37.425781 52.035156 C 37.628906 51.839844 40.605469 49.125 44.039062 45.996094 C 47.476562 42.867188 50.539062 40.027344 50.851562 39.683594 C 51.785156 38.652344 52.347656 37.390625 52.347656 36.34375 C 52.34375 35.148438 51.808594 33.734375 50.460938 31.394531 C 48.800781 28.515625 48.359375 27.019531 48.765625 25.636719 C 49.042969 24.671875 49.914062 23.953125 50.789062 23.957031 C 51.152344 23.960938 51.792969 24.320312 52.144531 24.71875 C 52.578125 25.21875 53.429688 27.003906 53.902344 28.4375 C 54.28125 29.570312 54.769531 31.742188 54.769531 32.296875 C 54.769531 32.464844 54.804688 32.628906 54.84375 32.652344 C 54.886719 32.683594 55.632812 31.289062 56.503906 29.558594 C 58.175781 26.238281 58.570312 25.640625 59.332031 25.273438 C 60.472656 24.71875 61.6875 25.351562 62.121094 26.714844 C 62.410156 27.636719 62 29.21875 60.914062 31.355469 C 59.648438 33.847656 57.183594 37.691406 54.890625 40.757812 C 54.238281 41.625 53.695312 42.367188 53.675781 42.40625 C 53.660156 42.441406 54.011719 42.261719 54.464844 41.984375 C 56.46875 40.78125 58.113281 40.707031 59.324219 41.773438 C 60.03125 42.394531 60.300781 43.421875 59.945312 44.128906 C 59.402344 45.199219 58.464844 45.550781 55.734375 45.714844 C 53.734375 45.828125 52.328125 46.089844 50.921875 46.578125 C 48.613281 47.378906 46.8125 48.519531 45.039062 50.289062 C 43.601562 51.726562 42.839844 52.824219 41.21875 55.835938 C 39.40625 59.191406 38.6875 60.265625 37.257812 61.753906 C 36.265625 62.78125 35.351562 63.472656 34.613281 63.753906 C 33.925781 64.015625 33.0625 64.074219 32.523438 63.898438 Z M 32.523438 63.890625 "/>
</g>
</svg>
