<svg xmlns="http://www.w3.org/2000/svg" xmlns:xlink="http://www.w3.org/1999/xlink" width="64" height="64" viewBox="0 0 64 64" version="1.1">
<defs> <linearGradient id="linear0" gradientUnits="userSpaceOnUse" x1="0" y1="0" x2="0" y2="1" gradientTransform="matrix(55.992188,0,0,56,4.003906,4)"> <stop offset="0" style="stop-color:#ff6666;stop-opacity:1;"/> <stop offset="1" style="stop-color:#d90000;stop-opacity:1;"/> </linearGradient> </defs>
<g id="surface1">
<path style=" stroke:none;fill-rule:nonzero;fill:url(#linear0);fill-opacity:1;" d="M 33.925781 54.9375 C 32.976562 54.597656 31.488281 53.996094 30.621094 53.605469 C 29.746094 53.210938 27.667969 52.605469 26.007812 52.261719 C 24.34375 51.910156 22.355469 51.324219 21.582031 50.949219 C 19.691406 50.023438 17.039062 47.378906 15.96875 45.34375 C 15.382812 44.230469 14.753906 43.460938 14.042969 42.992188 C 13.457031 42.609375 12.753906 41.851562 12.476562 41.300781 C 11.945312 40.273438 11.953125 40.273438 9.214844 39.910156 C 7.683594 39.710938 6.1875 38.601562 5.570312 37.210938 C 4.863281 35.632812 5.074219 34.996094 6.671875 33.832031 C 7.398438 33.296875 7.992188 32.714844 7.992188 32.539062 C 7.992188 31.84375 10.125 27.886719 11.050781 26.867188 C 11.863281 25.976562 12.191406 25.792969 13.019531 25.792969 C 13.609375 25.792969 14.28125 26.003906 14.683594 26.320312 L 15.359375 26.847656 L 15.875 26.140625 C 16.34375 25.503906 16.359375 25.339844 16.035156 24.574219 C 15.609375 23.566406 15.796875 22.304688 16.460938 21.707031 C 16.71875 21.472656 17.789062 20.875 18.847656 20.371094 C 22.503906 18.628906 22.75 18.300781 24.28125 13.113281 C 25.394531 9.359375 26.535156 7.03125 27.6875 6.167969 C 30.746094 3.886719 37.195312 2.25 39.785156 3.105469 C 41.152344 3.550781 42.347656 4.941406 43.074219 6.933594 C 43.613281 8.421875 43.714844 9.160156 43.710938 11.773438 C 43.703125 16.023438 43.226562 18.074219 41.710938 20.335938 C 40.949219 21.480469 40.5625 22.308594 40.664062 22.582031 C 40.757812 22.820312 40.949219 23.960938 41.097656 25.117188 C 41.523438 28.503906 43.027344 31.574219 44.828125 32.75 C 45.476562 33.167969 45.53125 33.164062 46.308594 32.507812 C 47.367188 31.625 48.128906 30.375 48.621094 28.722656 C 49.222656 26.710938 50.757812 25.957031 51.914062 27.113281 C 52.898438 28.089844 52.613281 28.847656 50.480469 30.890625 C 48.691406 32.609375 47.855469 33.960938 48.316406 34.414062 C 48.632812 34.730469 52.152344 34.011719 53.601562 33.328125 C 54.402344 32.953125 55.292969 32.644531 55.585938 32.644531 C 56.292969 32.644531 56.941406 33.332031 56.941406 34.097656 C 56.941406 35 55.992188 35.539062 54.402344 35.539062 C 53.652344 35.539062 51.820312 35.898438 50.324219 36.339844 C 46.789062 37.386719 45.003906 37.527344 41.613281 37.015625 C 40.097656 36.78125 38.046875 36.597656 37.058594 36.597656 C 35.367188 36.597656 35.246094 36.554688 35.09375 35.949219 C 34.816406 34.855469 35.140625 34.683594 37.085938 34.882812 C 38.230469 34.996094 39.25 34.945312 39.9375 34.742188 L 41.011719 34.417969 L 39.9375 32.410156 C 38.820312 30.3125 37.753906 28.957031 37.210938 28.957031 C 37.035156 28.957031 36.757812 29.515625 36.582031 30.207031 C 36.410156 30.894531 35.742188 32.5625 35.101562 33.921875 C 34.144531 35.933594 33.566406 36.742188 31.917969 38.382812 C 29.601562 40.695312 29.574219 40.582031 32.710938 41.765625 C 34.96875 42.625 35.601562 42.988281 36.921875 44.214844 C 38.105469 45.3125 38.683594 46.3125 38.683594 47.238281 C 38.683594 47.894531 38.6875 47.894531 39.675781 47.5 C 40.222656 47.285156 41.027344 46.921875 41.464844 46.695312 C 41.910156 46.476562 42.5625 46.328125 42.925781 46.378906 C 43.886719 46.515625 44.003906 47.980469 43.105469 48.566406 C 41.902344 49.355469 38.195312 50.535156 36.121094 50.796875 C 34.980469 50.9375 33.839844 51.136719 33.589844 51.230469 C 32.488281 51.652344 33.332031 52.363281 36.09375 53.320312 C 37.417969 53.78125 37.910156 54.511719 37.355469 55.179688 C 36.90625 55.722656 35.910156 55.648438 33.925781 54.9375 Z M 36.832031 54.535156 C 36.832031 54.398438 36.082031 54.042969 35.167969 53.738281 C 34.253906 53.433594 33.238281 53.003906 32.917969 52.78125 C 32.277344 52.328125 32.148438 51.304688 32.675781 50.871094 C 32.855469 50.71875 34.378906 50.359375 36.054688 50.082031 C 39.355469 49.535156 43.347656 47.980469 43.105469 47.335938 C 42.960938 46.933594 42.941406 46.941406 40.933594 47.777344 C 39.011719 48.578125 37.835938 48.660156 37.90625 47.992188 C 38.03125 46.792969 37.808594 46.242188 36.78125 45.128906 C 35.644531 43.902344 34.304688 43.105469 31.9375 42.25 C 30.371094 41.6875 28.898438 40.667969 28.898438 40.140625 C 28.898438 39.9375 29.234375 39.597656 29.640625 39.382812 C 31.949219 38.195312 34.476562 34.445312 35.789062 30.273438 C 36.183594 28.996094 36.648438 28 36.859375 27.960938 C 37.59375 27.820312 39.1875 29.515625 40.386719 31.699219 C 41.050781 32.914062 41.597656 34.148438 41.597656 34.441406 C 41.597656 35.210938 40.109375 35.617188 37.742188 35.5 C 36.277344 35.425781 35.777344 35.480469 35.777344 35.730469 C 35.777344 35.980469 36.453125 36.070312 38.355469 36.074219 C 39.773438 36.074219 41.472656 36.207031 42.125 36.351562 C 44.277344 36.851562 46.40625 36.703125 49.449219 35.839844 C 51.03125 35.390625 53.152344 34.933594 54.171875 34.820312 C 55.765625 34.644531 56.015625 34.546875 56.015625 34.097656 C 56.015625 33.320312 55.265625 33.308594 53.699219 34.054688 C 52.9375 34.417969 51.375 34.855469 50.230469 35.019531 C 48.429688 35.285156 48.085938 35.265625 47.734375 34.917969 C 47.382812 34.566406 47.371094 34.34375 47.65625 33.378906 C 47.902344 32.539062 48.460938 31.789062 49.835938 30.480469 C 51.246094 29.136719 51.671875 28.570312 51.601562 28.105469 C 51.476562 27.242188 50.257812 27.132812 49.6875 27.941406 C 49.457031 28.269531 49.269531 28.757812 49.269531 29.023438 C 49.269531 29.753906 48.296875 31.488281 47.242188 32.652344 C 45.964844 34.0625 44.980469 34.078125 43.601562 32.710938 C 42.089844 31.210938 40.539062 27.777344 40.539062 25.933594 C 40.539062 25.484375 40.359375 24.417969 40.136719 23.578125 L 39.734375 22.039062 L 41.070312 19.964844 C 42.664062 17.496094 42.988281 16.132812 43.027344 11.824219 C 43.042969 9.496094 42.9375 8.472656 42.554688 7.378906 C 41.914062 5.542969 40.523438 4.007812 39.175781 3.648438 C 36.984375 3.066406 31.011719 4.683594 28.394531 6.570312 C 27.074219 7.523438 25.832031 10.039062 24.777344 13.910156 C 24.359375 15.417969 23.664062 17.25 23.21875 17.976562 C 22.503906 19.160156 22.128906 19.453125 19.902344 20.578125 C 18.515625 21.273438 17.175781 22.042969 16.925781 22.28125 C 16.359375 22.820312 16.320312 24.289062 16.859375 24.738281 C 17.074219 24.917969 17.257812 25.175781 17.257812 25.3125 C 17.257812 25.523438 16.320312 26.925781 15.632812 27.738281 C 15.519531 27.871094 15.003906 27.605469 14.480469 27.144531 C 13.28125 26.097656 12.769531 26.105469 11.695312 27.175781 C 10.941406 27.925781 8.523438 32.421875 8.523438 33.078125 C 8.523438 33.207031 7.933594 33.761719 7.199219 34.304688 C 5.71875 35.40625 5.570312 35.957031 6.402344 37.320312 C 7.125 38.496094 8.339844 39.167969 10.09375 39.367188 C 12.238281 39.609375 12.34375 39.660156 12.96875 40.773438 C 13.285156 41.328125 14.019531 42.105469 14.597656 42.484375 C 15.242188 42.90625 15.917969 43.683594 16.300781 44.433594 C 17.320312 46.417969 18.460938 47.820312 20.097656 49.105469 C 21.753906 50.402344 23.488281 51.054688 27.046875 51.742188 C 28.28125 51.976562 30.210938 52.589844 31.335938 53.09375 C 32.460938 53.597656 33.828125 54.167969 34.378906 54.371094 C 35.542969 54.792969 36.832031 54.878906 36.832031 54.535156 Z M 36.832031 54.535156 "/>
<path style=" stroke:none;fill-rule:nonzero;fill:url(#linear0);fill-opacity:1;" d="M 37.90625 3.347656 C 34.480469 3.539062 31.046875 4.574219 28.199219 6.488281 C 26.09375 8.273438 25.523438 11.179688 24.570312 13.65625 C 23.804688 15.910156 23.207031 18.589844 20.886719 19.738281 C 19.5 20.664062 17.757812 21.179688 16.609375 22.40625 C 16.03125 23.316406 16.296875 24.480469 16.921875 25.273438 C 16.570312 26.015625 16.085938 26.953125 15.429688 27.359375 C 14.40625 26.988281 13.308594 25.625 12.164062 26.476562 C 10.550781 27.972656 9.566406 30.082031 8.648438 32.054688 C 8.222656 33.734375 6.199219 34.3125 5.695312 35.90625 C 5.933594 38.183594 8.261719 39.457031 10.351562 39.636719 C 11.355469 39.75 12.453125 40.046875 12.914062 41.039062 C 14.308594 42.578125 15.855469 44.019531 16.882812 45.863281 C 18.652344 48.398438 21.113281 50.546875 24.191406 51.28125 C 27.660156 52.109375 31.023438 53.246094 34.34375 54.546875 C 35.078125 54.722656 36.105469 55.316406 36.742188 54.664062 C 36.765625 53.691406 35.390625 53.699219 34.777344 53.300781 C 34.019531 52.933594 32.578125 52.617188 32.664062 51.554688 C 32.878906 50.558594 34.140625 50.964844 34.832031 50.609375 C 37.632812 49.851562 40.738281 49.53125 43.136719 47.808594 C 43.640625 47.234375 42.800781 46.640625 42.253906 47.03125 C 40.945312 47.378906 39.613281 48.21875 38.242188 47.980469 C 38.292969 46.1875 36.921875 44.839844 35.582031 43.835938 C 33.695312 42.296875 30.976562 42.097656 29.296875 40.300781 C 28.984375 39.800781 29.976562 39.605469 30.222656 39.316406 C 33.726562 36.8125 35.117188 32.511719 36.730469 28.707031 C 36.835938 28.289062 37.210938 27.984375 37.53125 28.445312 C 39.210938 30.121094 40.625 32.246094 41.285156 34.519531 C 40.398438 35.289062 39.011719 35.160156 37.898438 35.289062 C 37.222656 35.390625 36.03125 34.832031 35.765625 35.683594 C 36.035156 36.425781 37.203125 36.125 37.855469 36.296875 C 41.261719 36.433594 44.6875 37.269531 48.070312 36.421875 C 50.613281 35.753906 53.222656 35.351562 55.765625 34.703125 C 56.65625 34.457031 56.125 33.207031 55.328125 33.339844 C 52.925781 33.863281 50.570312 35.050781 48.042969 34.84375 C 47.503906 34.179688 48.019531 33.039062 48.496094 32.433594 C 49.449219 30.964844 51.074219 29.945312 51.789062 28.339844 C 51.957031 27.203125 50.09375 26.777344 49.585938 27.789062 C 48.832031 28.925781 48.785156 30.402344 47.828125 31.464844 C 47.183594 32.484375 45.953125 33.890625 44.625 33.128906 C 42.449219 31.628906 41.363281 28.863281 40.871094 26.332031 C 40.636719 24.894531 40.410156 23.457031 40.011719 22.0625 C 41.785156 19.5625 43.273438 16.722656 43.238281 13.589844 C 43.199219 10.871094 43.589844 7.808594 41.8125 5.523438 C 40.9375 4.257812 39.546875 3.144531 37.90625 3.347656 Z M 37.90625 3.347656 "/>
</g>
</svg>
