<svg xmlns="http://www.w3.org/2000/svg" xmlns:xlink="http://www.w3.org/1999/xlink" width="64" height="64" viewBox="0 0 64 64" version="1.1">
<defs>
<linearGradient id="linear0" gradientUnits="userSpaceOnUse" x1="0" y1="0" x2="0" y2="1" gradientTransform="matrix(50.289063,0,0,64,6.855469,0)">
<stop offset="0" style="stop-color:#ff6666;stop-opacity:1;"/>
<stop offset="1" style="stop-color:#d90000;stop-opacity:1;"/>
</linearGradient>
</defs>
<g id="surface1">
<path style=" stroke:none;fill-rule:evenodd;fill:url(#linear0);" d="M 34.792969 0 C 28.863281 0 23.179688 2.355469 18.988281 6.546875 C 14.800781 10.734375 12.445312 16.425781 12.445312 22.347656 C 12.449219 22.496094 12.453125 22.640625 12.460938 22.785156 C 12.457031 22.925781 12.429688 23.050781 12.429688 23.191406 C 12.433594 23.542969 12.4375 23.894531 12.460938 24.246094 C 12.460938 24.320312 12.457031 24.386719 12.457031 24.457031 L 12.457031 28.625 L 12.429688 30.175781 L 7.324219 38.222656 C 6.152344 40.460938 7.261719 41.851562 9.78125 41.882812 L 12.457031 41.925781 L 12.457031 48.207031 C 12.457031 50.835938 14.910156 53.039062 17.550781 53.039062 L 23.621094 53.121094 L 23.652344 63.976562 C 24.269531 64.019531 32.664062 64.003906 48.828125 63.933594 L 48.800781 40.789062 C 48.800781 40.425781 48.78125 40.125 48.773438 39.785156 C 54.0625 35.542969 57.144531 29.128906 57.144531 22.347656 C 57.144531 16.425781 54.789062 10.734375 50.597656 6.546875 C 46.40625 2.355469 40.71875 0 34.792969 0 Z M 31.824219 20.78125 C 31.824219 18.46875 33.703125 16.589844 36.015625 16.589844 C 38.328125 16.589844 40.203125 18.46875 40.203125 20.78125 C 40.203125 23.09375 38.328125 24.96875 36.015625 24.96875 C 33.703125 24.96875 31.824219 23.09375 31.824219 20.78125 Z M 36.015625 13.796875 C 39.871094 13.796875 43 16.921875 43 20.78125 C 43 24.636719 39.871094 27.765625 36.015625 27.765625 C 32.15625 27.765625 29.03125 24.636719 29.03125 20.78125 C 29.03125 16.921875 32.15625 13.796875 36.015625 13.796875 Z M 36.015625 8.207031 C 29.070312 8.207031 23.445312 13.835938 23.445312 20.78125 C 23.445312 27.71875 29.070312 33.351562 36.015625 33.351562 C 42.960938 33.351562 48.589844 27.71875 48.589844 20.78125 C 48.589844 13.835938 42.960938 8.207031 36.015625 8.207031 Z M 36.015625 8.207031 "/>
</g>
</svg>
