<svg xmlns="http://www.w3.org/2000/svg" xmlns:xlink="http://www.w3.org/1999/xlink" width="64" height="64" viewBox="0 0 64 64" version="1.1">
<defs>
<linearGradient id="linear0" gradientUnits="userSpaceOnUse" x1="0" y1="0" x2="0" y2="1" gradientTransform="matrix(64,0,0,59.429688,0,2.285156)">
<stop offset="0" style="stop-color:#ff6666;stop-opacity:1;"/>
<stop offset="1" style="stop-color:#d90000;stop-opacity:1;"/>
</linearGradient>
</defs>
<g id="surface1">
<path style=" stroke:none;fill-rule:nonzero;fill:url(#linear0);" d="M 10.785156 60.941406 C 10.519531 60.515625 11.359375 59.289062 12.382812 58.214844 C 13.410156 57.144531 15.261719 55.707031 15.261719 55.027344 C 15.261719 54.347656 11.585938 45.828125 8.773438 36.09375 C 4.597656 21.640625 3.707031 18.148438 2.039062 16.367188 C 0.921875 15.164062 0 13.882812 0 13.609375 C 0 13.332031 3.625 12.929688 8.050781 12.945312 L 13.117188 12.960938 C 15.933594 12.847656 15.445312 13.242188 13.492188 14.839844 C 12.410156 15.726562 12.167969 16.90625 12.167969 17.460938 C 12.167969 18.558594 15.046875 29.210938 17.269531 36.890625 C 18.136719 39.84375 18.949219 42.402344 20.371094 45.003906 C 20.867188 45.125 21.535156 43.046875 24.691406 31.285156 C 29.726562 12.523438 29.8125 12.953125 32.183594 12.953125 L 34.191406 12.953125 L 38.371094 29.140625 C 40.800781 38.539062 42.875 45.171875 43.285156 45.039062 C 44.089844 44.785156 49.1875 24.640625 50.367188 17.472656 C 50.992188 13.679688 50.492188 12.5625 49.488281 10.449219 C 48.792969 8.980469 48.558594 7.671875 48.933594 7.3125 C 49.933594 6.335938 61.429688 2.285156 62.976562 2.285156 C 64.722656 2.285156 64.269531 3.753906 61.355469 7.492188 C 58.164062 11.597656 58.425781 16.007812 55.207031 26.988281 C 53.59375 32.5 51.144531 39.890625 49.953125 43.410156 C 48.847656 46.671875 48.96875 49.15625 48.914062 51.136719 C 48.832031 54.257812 49.414062 56.113281 51.152344 57.777344 C 52.625 59.1875 53.398438 60.101562 53.257812 60.6875 C 53.039062 61.554688 47.613281 61.714844 42.625 61.714844 C 36.878906 61.714844 33.652344 61.394531 33.585938 60.332031 C 33.554688 59.855469 34.683594 59.226562 35.632812 58.40625 C 37.945312 56.695312 38.570312 55.875 38.023438 53.703125 C 36.332031 47.433594 32.777344 30.925781 32.199219 29.875 C 31.914062 29.359375 31.003906 29.664062 30.527344 32.398438 C 29.109375 39.773438 26.242188 47.890625 25.601562 54.546875 C 25.78125 55.898438 26.445312 56.742188 27.859375 57.824219 C 29.449219 59.035156 30.339844 59.878906 30.398438 60.464844 C 30.503906 61.476562 24.957031 61.714844 19.363281 61.714844 C 14.523438 61.714844 11.078125 61.421875 10.785156 60.941406 Z M 10.785156 60.941406 "/>
</g>
</svg>
