<svg xmlns="http://www.w3.org/2000/svg" xmlns:xlink="http://www.w3.org/1999/xlink" width="64" height="64" viewBox="0 0 64 64" version="1.1">
<defs> <linearGradient id="linear0" gradientUnits="userSpaceOnUse" x1="0" y1="0" x2="0" y2="1" gradientTransform="matrix(55.992188,0,0,56,4.003906,4)"> <stop offset="0" style="stop-color:#ff6666;stop-opacity:1;"/> <stop offset="1" style="stop-color:#d90000;stop-opacity:1;"/> </linearGradient> </defs>
<g id="surface1">
<path style=" stroke:none;fill-rule:nonzero;fill:url(#linear0);fill-opacity:1;" d="M 11.789062 11.203125 L 11.789062 16.152344 L 21.726562 21.101562 L 21.726562 22.75 L 31.664062 22.75 L 31.664062 21.101562 L 21.726562 16.152344 L 66.726562 16.152344 C 65.988281 14.433594 65.128906 12.78125 64.160156 11.203125 Z M 11.789062 11.203125 "/>
<path style=" stroke:none;fill-rule:nonzero;fill:url(#linear0);fill-opacity:1;" d="M 31.664062 39.242188 L 31.664062 40.886719 L 41.597656 45.835938 L -3.398438 45.835938 C -2.664062 47.554688 -1.800781 49.207031 -0.835938 50.785156 L 51.539062 50.785156 L 51.539062 45.835938 L 41.601562 40.886719 L 41.601562 39.242188 Z M 31.664062 39.242188 "/>
<path style=" stroke:none;fill-rule:nonzero;fill:url(#linear0);fill-opacity:1;" d="M 21.726562 21.101562 L 21.726562 40.894531 L 41.601562 40.894531 L 41.601562 21.101562 M 26.695312 26.046875 L 36.632812 26.046875 L 36.632812 35.945312 L 26.695312 35.945312 "/>
</g>
</svg>
