<svg xmlns="http://www.w3.org/2000/svg" xmlns:xlink="http://www.w3.org/1999/xlink" width="64" height="64" viewBox="0 0 64 64" version="1.1">
<defs> <linearGradient id="linear0" gradientUnits="userSpaceOnUse" x1="0" y1="0" x2="0" y2="1" gradientTransform="matrix(55.992188,0,0,56,4.003906,4)"> <stop offset="0" style="stop-color:#ff6666;stop-opacity:1;"/> <stop offset="1" style="stop-color:#d90000;stop-opacity:1;"/> </linearGradient> </defs>
<g id="surface1">
<path style=" stroke:none;fill-rule:nonzero;fill:url(#linear0);fill-opacity:1;" d="M 9.824219 14.792969 C 10.542969 15.121094 11.300781 15.976562 11.300781 15.976562 L 24.742188 18.542969 C 24.742188 18.542969 24.972656 18.148438 25.230469 17.808594 L 25.679688 17.1875 L 34.054688 17.1875 L 34.179688 16.617188 L 34.3125 16.050781 L 42.875 16.050781 L 43.011719 16.683594 L 43.140625 17.328125 L 45.890625 17.363281 L 48.644531 17.40625 L 48.683594 20.527344 L 48.722656 23.667969 L 44.90625 23.667969 L 45.054688 24.273438 L 45.207031 24.882812 L 56.964844 24.882812 L 58.101562 30.101562 L 59.578125 30.1875 C 61.59375 30.449219 62.796875 31.148438 63.945312 32.746094 C 64.074219 32.929688 64.535156 34.175781 64.535156 35.089844 C 64.453125 36.421875 64.0625 37.5 63.351562 38.601562 C 62.984375 39.1875 62.496094 39.832031 61.65625 40.378906 C 61.242188 40.660156 60.632812 41.152344 60.246094 41.5 C 59.132812 42.515625 57.851562 43.355469 56.652344 44.242188 C 55.957031 44.75 55.074219 45.089844 54.117188 45.292969 C 53.789062 45.363281 44.480469 45.417969 33.417969 45.402344 C 15.003906 45.378906 13.246094 45.34375 12.492188 45.117188 C 11.25 44.738281 9.949219 43.992188 9.527344 43.582031 C 7.773438 42.144531 5.160156 40.050781 4.136719 39.402344 C 3.117188 38.761719 2.828125 38.054688 2.46875 37.414062 C 2.308594 37.140625 2.140625 36.585938 2.078125 36.199219 C 1.941406 35.300781 1.890625 34.546875 2.027344 33.699219 C 2.152344 32.859375 2.796875 31.507812 3.285156 31.117188 C 4.386719 30.238281 5.875 29.886719 8.652344 29.886719 L 10.316406 29.882812 L 10.09375 28.773438 L 15.597656 25.082031 L 23.644531 24.667969 L 21.78125 22.34375 L 23.164062 20.484375 L 11.128906 17.429688 C 11.128906 17.429688 10.175781 17.757812 9.402344 17.691406 C 8.636719 17.617188 6.75 16.964844 6.75 16.964844 L 7.164062 14.234375 C 7.164062 14.234375 8.980469 14.515625 9.855469 14.792969 M 57.902344 41.375 C 57.265625 41.375 57.015625 41.429688 57.015625 41.574219 C 57.015625 41.691406 56.851562 42.09375 56.664062 42.484375 C 56.457031 42.867188 56.316406 43.191406 56.324219 43.179688 C 56.332031 43.179688 56.515625 43.039062 56.714844 42.882812 C 56.914062 42.714844 57.132812 42.585938 57.1875 42.585938 C 57.316406 42.578125 58.777344 41.523438 58.777344 41.429688 C 58.777344 41.398438 58.378906 41.367188 57.890625 41.367188 M 9.628906 41.378906 L 9.398438 41.378906 C 9.003906 41.378906 8.6875 41.402344 8.6875 41.429688 C 8.6875 41.460938 9.066406 41.789062 9.542969 42.160156 C 10 42.535156 10.5625 42.929688 10.753906 43.039062 L 11.125 43.234375 L 10.804688 42.90625 C 10.617188 42.730469 10.390625 42.3125 10.292969 41.984375 C 10.140625 41.460938 10.117188 41.390625 9.636719 41.375 M 41.203125 43.039062 C 41.171875 43.039062 41.152344 43.09375 41.101562 43.191406 C 41.050781 43.3125 40.746094 43.675781 40.421875 43.988281 L 39.820312 44.546875 L 42.742188 44.535156 L 42.375 44.230469 C 41.597656 43.609375 41.390625 43.394531 41.285156 43.179688 C 41.246094 43.082031 41.222656 43.039062 41.183594 43.039062 M 33.652344 43.042969 C 33.617188 43.042969 33.59375 43.089844 33.554688 43.191406 C 33.429688 43.460938 32.949219 43.941406 32.460938 44.28125 C 32.097656 44.53125 32.128906 44.535156 33.554688 44.542969 L 35.03125 44.554688 L 34.429688 43.988281 C 34.101562 43.675781 33.789062 43.320312 33.738281 43.191406 C 33.695312 43.097656 33.667969 43.058594 33.640625 43.058594 M 48.859375 43.070312 C 48.835938 43.070312 48.808594 43.105469 48.769531 43.191406 C 48.683594 43.394531 48.484375 43.570312 47.683594 44.246094 L 47.316406 44.554688 L 48.773438 44.558594 L 50.246094 44.570312 L 49.648438 44.003906 C 49.324219 43.699219 49.007812 43.335938 48.960938 43.210938 C 48.917969 43.132812 48.894531 43.078125 48.855469 43.070312 M 18.410156 43.078125 C 18.375 43.070312 18.351562 43.109375 18.324219 43.183594 C 18.132812 43.582031 17.488281 44.277344 17.289062 44.277344 C 17.183594 44.277344 17.058594 44.34375 17 44.429688 C 16.949219 44.523438 17.457031 44.570312 18.4375 44.570312 C 19.6875 44.5625 19.902344 44.53125 19.671875 44.390625 C 19.273438 44.132812 18.625 43.496094 18.507812 43.222656 C 18.476562 43.132812 18.4375 43.09375 18.410156 43.089844 M 25.867188 43.195312 C 25.84375 43.195312 25.824219 43.207031 25.820312 43.230469 C 25.78125 43.347656 25.492188 43.691406 25.179688 44.011719 L 24.597656 44.570312 L 27.449219 44.570312 L 26.667969 43.800781 C 26.242188 43.382812 25.972656 43.179688 25.867188 43.183594 "/>
</g>
</svg>
