<svg xmlns="http://www.w3.org/2000/svg" xmlns:xlink="http://www.w3.org/1999/xlink" width="64" height="64" viewBox="0 0 64 64" version="1.1">
<defs> <linearGradient id="linear0" gradientUnits="userSpaceOnUse" x1="0" y1="0" x2="0" y2="1" gradientTransform="matrix(55.992188,0,0,56,4.003906,4)"> <stop offset="0" style="stop-color:#ff6666;stop-opacity:1;"/> <stop offset="1" style="stop-color:#d90000;stop-opacity:1;"/> </linearGradient> </defs>
<g id="surface1">
<path style=" stroke:none;fill-rule:nonzero;fill:url(#linear0);fill-opacity:1;" d="M 59.117188 34.25 C 59.984375 27.027344 58.171875 19.539062 53.699219 13.429688 L 52.371094 11.644531 C 53.265625 11.125 54.464844 10.769531 55.34375 10.785156 C 55.78125 10.789062 56.140625 10.757812 56.144531 10.699219 C 56.152344 10.648438 55.84375 10.308594 55.464844 9.941406 C 54.066406 8.605469 52.085938 7.605469 49.574219 6.96875 C 48.886719 6.792969 46.242188 6.203125 45.5625 6.0625 C 44.242188 4.972656 42.597656 4.019531 40.308594 2.996094 C 39 2.414062 36.519531 1.425781 36.296875 1.402344 C 36.21875 1.398438 36.507812 1.632812 36.941406 1.941406 C 37.785156 2.527344 37.871094 2.667969 37.21875 2.386719 C 36.269531 1.972656 34.050781 1.5 31.203125 1.101562 L 28.164062 0.671875 L 29.007812 1.011719 C 29.472656 1.199219 29.984375 1.425781 30.140625 1.511719 C 30.515625 1.714844 30.378906 1.746094 28.976562 1.765625 C 25.410156 1.820312 21.203125 2.777344 17.710938 4.332031 C 12.050781 6.847656 6.386719 12.277344 3.046875 18.398438 C 1.992188 20.324219 0.617188 23.910156 1.484375 22.457031 C 1.828125 21.898438 2.382812 21.253906 2.453125 21.335938 C 2.472656 21.371094 2.316406 21.738281 2.097656 22.15625 C 1.578125 23.152344 0.851562 24.941406 0.476562 26.148438 C 0.316406 26.6875 0.117188 27.621094 0.0390625 28.226562 L -0.109375 29.324219 L 0.378906 28.894531 L 0.867188 28.457031 L 0.703125 29.855469 C 0.214844 33.964844 0.78125 40.261719 1.894531 43.128906 C 2.234375 44.003906 3.472656 45.558594 4.636719 46.566406 C 5.257812 47.109375 5.449219 47.386719 5.789062 48.207031 C 7.414062 52.136719 11.339844 56.304688 14.203125 57.148438 C 15.054688 57.402344 16.25 57.488281 17.226562 57.363281 C 17.726562 57.300781 17.851562 57.363281 20.089844 58.667969 C 23.839844 60.875 24.03125 60.953125 26.582031 61.359375 C 28.59375 61.683594 30.089844 61.734375 32.164062 61.546875 C 33.679688 61.410156 33.878906 61.339844 33.277344 61.152344 C 32.890625 61.027344 31.449219 60.171875 31.460938 60.078125 C 31.460938 60.058594 32.363281 60.171875 33.46875 60.324219 C 37.519531 60.890625 40.597656 60.472656 43.738281 58.917969 C 44.890625 58.351562 46.339844 57.394531 47.109375 56.707031 C 47.632812 56.230469 47.660156 56.164062 47.320312 56.125 C 47.121094 56.09375 47.253906 55.953125 47.902344 55.492188 C 48.65625 54.949219 50.746094 52.941406 50.769531 52.730469 C 50.773438 52.683594 50.519531 52.613281 50.199219 52.570312 C 50.183594 52.570312 50.167969 52.570312 50.144531 52.566406 C 50.957031 51.59375 53.460938 48.335938 54.125 47.378906 C 56.894531 43.40625 58.554688 38.878906 59.117188 34.253906 M 57.828125 33.925781 C 57.464844 37.027344 56.582031 40.089844 55.175781 42.992188 C 55.011719 43.335938 54.675781 43.980469 54.359375 44.597656 C 53.734375 45.796875 53.015625 46.847656 52.171875 47.851562 C 52.925781 46.476562 53.753906 44.796875 53.789062 44.480469 C 53.804688 44.371094 53.476562 44.695312 53.0625 45.199219 C 51.308594 47.3125 48.503906 49.644531 46.054688 51.023438 C 43.9375 52.222656 43.875 52.238281 44.726562 51.414062 C 45.71875 50.453125 46.644531 49.070312 47.003906 48.023438 C 47.164062 47.554688 47.265625 47.136719 47.234375 47.09375 C 47.203125 47.050781 46.796875 47.347656 46.332031 47.742188 C 44.832031 49.019531 41.1875 50.863281 39.507812 51.203125 C 38.09375 51.492188 35.820312 51.570312 33.742188 51.414062 L 31.964844 51.277344 L 32.566406 50.984375 C 32.902344 50.820312 33.394531 50.53125 33.664062 50.351562 C 34.167969 50.003906 35.007812 49.140625 34.933594 49.039062 C 34.90625 49.007812 33.617188 48.96875 32.054688 48.953125 C 28.785156 48.917969 26.984375 48.679688 25.035156 48.023438 C 23.414062 47.476562 23.382812 47.460938 23.96875 47.328125 C 24.472656 47.222656 24.980469 46.933594 25.003906 46.746094 C 25.015625 46.691406 24.796875 46.617188 24.527344 46.582031 C 23.394531 46.449219 20.140625 45.101562 18.699219 44.179688 C 18.121094 43.804688 17.347656 43.203125 16.976562 42.824219 C 15.730469 41.539062 15.257812 40.3125 16.085938 40.507812 C 16.375 40.582031 16.425781 40.554688 16.460938 40.28125 C 16.484375 40.085938 16.371094 39.8125 16.144531 39.554688 C 15.945312 39.328125 15.535156 38.871094 15.242188 38.535156 C 14.796875 38.03125 14.003906 36.765625 14.144531 36.78125 C 14.160156 36.78125 14.355469 36.863281 14.570312 36.953125 C 14.78125 37.042969 14.957031 37.082031 14.960938 37.042969 C 14.96875 37.007812 14.90625 36.589844 14.824219 36.125 C 14.554688 34.503906 14.460938 31.851562 14.632812 30.453125 C 14.808594 29.007812 15.117188 28.089844 15.722656 27.183594 C 16.355469 26.253906 16.445312 26.324219 16.210938 27.5625 C 16.019531 28.617188 16.019531 28.648438 16.257812 28.417969 C 16.609375 28.085938 17.171875 26.785156 17.660156 25.195312 C 18.183594 23.496094 18.386719 23.128906 19.25 22.417969 C 19.851562 21.9375 20.289062 21.382812 20.941406 20.878906 C 20.375 22.320312 20.226562 23.792969 20.085938 25.320312 C 19.910156 27.140625 19.902344 27.625 20.050781 28.332031 C 20.265625 29.355469 21.09375 31.257812 22.003906 32.816406 C 22.800781 34.175781 22.863281 34.445312 22.632812 35.480469 C 22.476562 36.21875 22.480469 36.269531 22.769531 36.511719 C 23.144531 36.828125 23.796875 36.828125 24.445312 36.5 C 25.753906 35.839844 26.875 33.402344 26.761719 31.464844 C 26.734375 31.042969 26.507812 30.132812 26.246094 29.398438 C 25.984375 28.671875 25.746094 27.773438 25.710938 27.394531 C 25.644531 26.589844 25.894531 25.300781 26.308594 24.316406 C 26.707031 23.386719 27.8125 21.789062 28.574219 21.066406 L 29.222656 20.457031 L 30.078125 19.421875 C 31.585938 19.839844 32.898438 20.476562 33.453125 21.183594 L 33.875 21.722656 L 34.292969 21.042969 C 34.65625 20.464844 34.738281 20.207031 34.851562 19.257812 C 34.976562 18.265625 34.964844 18.039062 34.707031 17.289062 C 34.152344 15.621094 32.867188 14.269531 31.140625 13.515625 C 29.996094 13.019531 28.082031 12.835938 26.773438 13.113281 C 25.644531 13.351562 24.582031 13.75 23.730469 14.246094 C 23.320312 14.488281 23.257812 14.507812 23.476562 14.308594 C 24.230469 13.617188 26.382812 12.78125 27.808594 12.621094 C 28.847656 12.507812 30.671875 12.730469 31.578125 13.082031 C 34.03125 14.03125 35.730469 16.28125 35.882812 18.792969 C 35.984375 20.421875 35.164062 22.105469 33.628906 23.386719 C 33.164062 23.773438 32.816406 24.144531 32.855469 24.195312 C 32.902344 24.25 33.644531 24.386719 34.507812 24.488281 L 36.089844 24.679688 L 36.558594 24.441406 L 37.191406 25.402344 L 37.558594 26.03125 C 37.761719 26.375 38.179688 27.28125 38.472656 28.042969 C 39.472656 30.578125 39.613281 30.871094 40.070312 31.207031 C 40.738281 31.691406 41.726562 32.003906 42.273438 31.894531 C 42.898438 31.773438 43.042969 31.332031 43.515625 28.277344 L 43.90625 25.75 L 44.386719 25.21875 C 44.574219 25.007812 45.429688 24.226562 45.890625 23.796875 C 46.859375 24.199219 47.777344 24.707031 48.472656 25.246094 C 49.253906 25.839844 50.957031 27.570312 51.46875 28.277344 C 51.613281 28.480469 51.777344 28.648438 51.832031 28.65625 C 51.996094 28.671875 52.125 27.203125 52.046875 26.285156 C 51.960938 25.3125 51.570312 23.996094 51.097656 23.074219 C 50.355469 21.636719 48.292969 19.238281 47.320312 18.683594 C 46.957031 18.476562 48.328125 18.792969 49.105469 19.097656 C 49.679688 19.320312 49.695312 19.3125 49.871094 19.011719 C 49.980469 18.828125 50.136719 17.957031 50.273438 16.847656 C 50.460938 15.296875 50.472656 14.824219 50.34375 13.96875 C 50.308594 13.777344 50.28125 13.585938 50.238281 13.398438 C 50.53125 13.148438 51 12.722656 51.398438 12.386719 C 51.570312 12.734375 51.933594 13.171875 51.925781 13.1875 C 51.925781 13.214844 52.296875 13.753906 52.75 14.386719 C 56.882812 20.144531 58.609375 27.117188 57.820312 33.925781 M 46.980469 54.488281 C 46.941406 54.519531 46.90625 54.546875 46.867188 54.574219 L 46.878906 54.476562 Z M 46.980469 54.488281 "/>
</g>
</svg>
