<svg xmlns="http://www.w3.org/2000/svg" xmlns:xlink="http://www.w3.org/1999/xlink" width="64" height="64" viewBox="0 0 64 64" version="1.1">
<defs>
<linearGradient id="linear0" gradientUnits="userSpaceOnUse" x1="0" y1="0" x2="0" y2="1" gradientTransform="matrix(59.75,0,0,64,2.125,0)">
<stop offset="0" style="stop-color:#ff6666;stop-opacity:1;"/>
<stop offset="1" style="stop-color:#d90000;stop-opacity:1;"/>
</linearGradient>
</defs>
<g id="surface1">
<path style=" stroke:none;fill-rule:nonzero;fill:url(#linear0);" d="M 28.679688 0 L 26.703125 0.625 L 2.125 8.300781 L 2.125 23.078125 L 15.125 31.210938 L 2.125 37.714844 L 2.125 52.378906 L 26.019531 62.832031 L 28.679688 64 L 28.679688 49.507812 L 17.769531 44.730469 L 28.679688 39.273438 L 28.679688 24.023438 L 17.890625 17.28125 L 28.679688 13.90625 Z M 35.320312 0 L 35.320312 13.90625 L 46.109375 17.28125 L 35.320312 24.023438 L 35.320312 39.273438 L 46.230469 44.730469 L 35.320312 49.507812 L 35.320312 64 L 37.980469 62.832031 L 61.875 52.378906 L 61.875 37.714844 L 48.875 31.210938 L 61.875 23.078125 L 61.875 8.300781 L 37.296875 0.625 Z M 35.320312 0 "/>
</g>
</svg>
