<svg xmlns="http://www.w3.org/2000/svg" xmlns:xlink="http://www.w3.org/1999/xlink" width="64" height="64" viewBox="0 0 64 64" version="1.1">
<defs> <linearGradient id="linear0" gradientUnits="userSpaceOnUse" x1="0" y1="0" x2="0" y2="1" gradientTransform="matrix(55.992188,0,0,56,4.003906,4)"> <stop offset="0" style="stop-color:#ff6666;stop-opacity:1;"/> <stop offset="1" style="stop-color:#d90000;stop-opacity:1;"/> </linearGradient> </defs>
<g id="surface1">
<path style=" stroke:none;fill-rule:nonzero;fill:url(#linear0);fill-opacity:1;" d="M 32.0625 4.183594 C 16.796875 4.179688 4.417969 16.503906 4.417969 31.703125 C 4.425781 33.585938 4.632812 35.464844 5.023438 37.308594 C 5.585938 26.519531 14.53125 18.050781 25.378906 18.039062 C 36.644531 18.039062 45.78125 27.132812 45.789062 38.355469 C 45.777344 42.15625 44.699219 45.882812 42.664062 49.101562 C 45.914062 49.40625 50.070312 49.335938 54.027344 48.371094 C 57.695312 43.582031 59.691406 37.726562 59.695312 31.703125 C 59.695312 16.507812 47.320312 4.183594 32.0625 4.183594 Z M 27.195312 22.230469 C 26.933594 22.230469 26.671875 22.230469 26.410156 22.238281 C 20.222656 22.359375 15.359375 24.828125 11.542969 29.402344 C 9.078125 32.589844 7.746094 36.382812 7.738281 40.171875 C 7.738281 45.40625 10.328125 50.609375 14.78125 54.308594 C 19.234375 58.007812 25.492188 60.160156 31.785156 60.160156 C 35.621094 60.160156 39.460938 59.382812 42.867188 57.90625 C 46.277344 56.429688 49.253906 54.269531 51.457031 51.65625 C 47.609375 52.109375 43.605469 51.558594 40.121094 50.101562 C 36.632812 48.640625 33.6875 46.273438 31.761719 43.398438 C 29.277344 40.378906 28.03125 36.640625 28.261719 32.960938 C 28.496094 29.277344 30.214844 25.675781 33.0625 22.898438 C 30.988281 22.472656 29.035156 22.25 27.195312 22.230469 Z M 27.195312 22.230469 "/>
</g>
</svg>
