<svg xmlns="http://www.w3.org/2000/svg" xmlns:xlink="http://www.w3.org/1999/xlink" width="64" height="64" viewBox="0 0 64 64" version="1.1">
<defs> <linearGradient id="linear0" gradientUnits="userSpaceOnUse" x1="0" y1="0" x2="0" y2="1" gradientTransform="matrix(55.992188,0,0,56,4.003906,4)"> <stop offset="0" style="stop-color:#ff6666;stop-opacity:1;"/> <stop offset="1" style="stop-color:#d90000;stop-opacity:1;"/> </linearGradient> </defs>
<g id="surface1">
<path style="fill-rule:evenodd;fill:url(#linear0);fill-opacity:1;stroke-width:1.472;stroke-linecap:butt;stroke-linejoin:miter;stroke:url(#linear0);stroke-opacity:1;stroke-miterlimit:4;" d="M 142.133294 237.839364 C 138.092222 250.164302 136.007201 263.007276 135.942715 275.936589 C 135.942715 345.072798 191.958857 401.1286 261.129979 401.1286 C 330.258111 401.1286 386.317243 345.072798 386.317243 275.936589 C 386.274252 263.395803 384.404182 250.962941 380.685535 239.02653 C 378.471544 241.875727 375.935126 244.660171 373.162262 247.336689 C 369.744547 250.531244 365.961415 253.55312 361.834363 256.402318 C 357.728805 259.2731 353.279326 261.928034 348.507422 264.431874 C 343.757012 266.91413 338.727167 269.180537 333.39639 271.209511 C 328.130099 273.281655 322.584372 275.09478 316.84519 276.648888 C 310.633116 276.130852 305.538785 362.59968 299.498672 361.542023 C 293.995935 360.570706 272.092463 315.501581 249.436663 303.932113 C 246.771275 302.572268 243.160104 301.752045 240.473221 303.133474 C 221.213642 312.997741 212.680101 360.959233 207.370819 358.930259 C 202.083033 356.8797 180.115076 266.91413 175.364666 264.431874 C 170.614257 261.928034 166.164778 259.2731 162.037725 256.402318 C 157.932168 253.55312 154.149036 250.531244 150.752816 247.336689 C 147.507061 244.271644 144.626722 241.120258 142.133294 237.839364 Z M 142.133294 237.839364 " transform="matrix(0.181728,0,0,0.180972,-14.466283,-14.155549)"/>
<path style="fill-rule:evenodd;fill:url(#linear0);fill-opacity:1;stroke-width:1.472;stroke-linecap:butt;stroke-linejoin:miter;stroke:url(#linear0);stroke-opacity:1;stroke-miterlimit:4;" d="M 142.133294 231.558179 C 144.626722 234.839073 147.507061 238.033628 150.752816 241.055504 C 154.149036 244.250059 157.910673 247.271935 162.037725 250.164302 C 166.164778 252.991915 170.614257 255.690018 175.364666 258.150689 C 180.115076 260.632944 185.187911 262.899352 190.475698 264.971495 C 195.784979 267.000469 201.309211 268.813595 207.026898 270.410872 C 212.744586 271.96498 218.655729 273.281655 224.695842 274.339311 C 230.757451 275.396968 236.90504 276.217191 243.117114 276.756812 C 249.372178 277.318018 255.648737 277.555451 261.946792 277.555451 C 268.244846 277.555451 274.521405 277.318018 280.754974 276.756812 C 287.010038 276.217191 293.157627 275.396968 299.197741 274.339311 C 305.216359 273.281655 311.127502 271.96498 316.84519 270.410872 C 322.584372 268.813595 328.130099 267.000469 333.39639 264.971495 C 338.727167 262.899352 343.757012 260.632944 348.507422 258.150689 C 353.257831 255.690018 357.728805 252.991915 361.834363 250.164302 C 365.961415 247.271935 369.744547 244.250059 373.162262 241.055504 C 375.935126 238.378985 378.471544 235.594542 380.685535 232.745345 C 364.499751 180.272624 316.006882 144.506561 261.086989 144.463391 C 206.747462 144.5929 158.663 179.776173 142.133294 231.558179 Z M 142.133294 231.558179 " transform="matrix(0.181728,0,0,0.180972,-14.466283,-14.155549)"/>
<path style="fill-rule:nonzero;fill:url(#linear0);fill-opacity:1;stroke-width:15.2;stroke-linecap:round;stroke-linejoin:miter;stroke:url(#linear0);stroke-opacity:1;stroke-miterlimit:4;" d="M 169.303058 111.74079 L 198.342892 160.090808 " transform="matrix(0.181728,0,0,0.180972,-14.466283,-14.155549)"/>
<path style="fill-rule:nonzero;fill:url(#linear0);fill-opacity:1;stroke-width:15.2;stroke-linecap:round;stroke-linejoin:miter;stroke:url(#linear0);stroke-opacity:1;stroke-miterlimit:4;" d="M 317.210606 160.781523 L 346.228945 112.431504 " transform="matrix(0.181728,0,0,0.180972,-14.466283,-14.155549)"/>
</g>
</svg>
