<svg xmlns="http://www.w3.org/2000/svg" xmlns:xlink="http://www.w3.org/1999/xlink" width="64" height="64" viewBox="0 0 64 64" version="1.1">
<defs>
<linearGradient id="linear0" gradientUnits="userSpaceOnUse" x1="0" y1="0" x2="0" y2="1" gradientTransform="matrix(40,0,0,29.019531,24,22.980469)">
<stop offset="0" style="stop-color:#ff6666;stop-opacity:1;"/>
<stop offset="1" style="stop-color:#d90000;stop-opacity:1;"/>
</linearGradient>
<linearGradient id="linear1" gradientUnits="userSpaceOnUse" x1="0" y1="0" x2="0" y2="1" gradientTransform="matrix(54.640625,0,0,54.640625,4.679688,4.679688)">
<stop offset="0" style="stop-color:#ff6666;stop-opacity:1;"/>
<stop offset="1" style="stop-color:#d90000;stop-opacity:1;"/>
</linearGradient>
</defs>
<g id="surface1">
<path style=" stroke:none;fill-rule:nonzero;fill:url(#linear0);" d="M 45.507812 22.980469 C 40.105469 22.984375 35.574219 26.300781 33.269531 30.9375 L 33.5 30.914062 C 33.394531 30.921875 33.316406 30.984375 33.210938 30.992188 C 33.160156 31.101562 33.039062 31.152344 32.988281 31.261719 L 33.101562 31.023438 C 27.984375 31.621094 24 36.050781 24 41.429688 C 24 47.203125 28.546875 52 34.207031 52 L 56.054688 52 C 60.464844 52 64 48.261719 64 43.792969 C 64 40.5625 62.074219 37.886719 59.390625 36.5625 L 59.410156 36.789062 L 59.410156 36.820312 C 59.40625 36.714844 59.347656 36.628906 59.339844 36.523438 C 59.222656 36.46875 59.164062 36.328125 59.042969 36.277344 L 59.308594 36.390625 C 58.753906 28.972656 52.878906 22.992188 45.519531 22.988281 L 45.601562 22.988281 L 45.550781 22.984375 Z M 47.253906 25.695312 C 52.613281 26.578125 56.796875 31.109375 57.058594 36.925781 L 57.058594 36.941406 L 57.136719 38.019531 L 58.117188 38.445312 C 60.1875 39.320312 61.648438 41.34375 61.648438 43.796875 C 61.648438 45.3125 61.015625 46.636719 60.113281 47.675781 C 61.015625 46.632812 61.644531 45.300781 61.632812 43.789062 C 61.628906 41.351562 60.160156 39.316406 58.109375 38.445312 L 57.121094 38.023438 L 57.050781 36.964844 L 57.050781 36.957031 L 57.046875 36.929688 C 56.785156 31.121094 52.609375 26.589844 47.257812 25.699219 Z M 45.507812 27.691406 L 45.53125 27.691406 C 50.445312 27.707031 54.460938 31.742188 54.699219 37.027344 L 54.699219 37.035156 L 54.867188 39.625 L 57.191406 40.605469 C 58.433594 41.132812 59.285156 42.273438 59.285156 43.792969 L 59.285156 43.800781 C 59.304688 45.816406 57.804688 47.292969 56.058594 47.292969 L 34.210938 47.292969 C 31.214844 47.292969 28.710938 44.761719 28.710938 41.429688 C 28.710938 38.253906 31.035156 35.8125 33.839844 35.609375 L 36.226562 35.4375 L 37.269531 33.21875 C 38.816406 29.882812 41.878906 27.691406 45.507812 27.6875 Z M 35.011719 32.496094 L 34.683594 33.191406 L 34.679688 33.191406 Z M 28.488281 35.828125 C 27.167969 37.292969 26.355469 39.265625 26.355469 41.433594 C 26.355469 42.5625 26.574219 43.644531 26.972656 44.625 C 26.574219 43.644531 26.351562 42.566406 26.351562 41.433594 C 26.351562 39.257812 27.167969 37.292969 28.488281 35.828125 Z M 28.660156 47.238281 C 29.371094 47.984375 30.214844 48.585938 31.15625 49 C 30.214844 48.585938 29.371094 47.984375 28.660156 47.238281 Z M 60.011719 47.925781 C 59.214844 48.761719 58.0625 49.0625 56.910156 49.277344 C 58.0625 49.0625 59.214844 48.761719 60.011719 47.925781 Z M 60.011719 47.925781 "/>
<path style=" stroke:none;fill-rule:nonzero;fill:url(#linear1);" d="M 24.679688 4.679688 L 20.453125 12 L 12 12 L 12 20.453125 L 4.679688 24.679688 L 8.90625 32 L 4.679688 39.320312 L 12 43.546875 L 12 52 L 20.453125 52 L 24.679688 59.320312 L 32 55.09375 L 39.320312 59.320312 L 43.546875 52 L 52 52 L 52 47.578125 C 47.640625 47.792969 43.183594 47.617188 38.789062 47.632812 C 36.121094 47.355469 33.003906 48.246094 30.757812 46.351562 C 27.015625 43.683594 27.9375 36.804688 32.539062 35.648438 C 33.707031 35.097656 35.457031 35.59375 36.226562 34.617188 C 37.683594 31.078125 40.699219 27.46875 44.851562 27.515625 C 45.824219 27.515625 46.816406 27.476562 47.773438 27.695312 C 52.53125 28.871094 55.285156 33.894531 55.117188 38.570312 C 54.632812 40.03125 56.859375 39.464844 56.992188 40.609375 C 56.957031 40.660156 56.898438 40.691406 56.859375 40.742188 L 59.320312 39.320312 L 55.09375 32 L 59.320312 24.679688 L 52 20.453125 L 52 12 L 43.546875 12 L 39.320312 4.679688 L 32 8.90625 Z M 24.679688 4.679688 "/>
</g>
</svg>
