<svg xmlns="http://www.w3.org/2000/svg" xmlns:xlink="http://www.w3.org/1999/xlink" width="64" height="64" viewBox="0 0 64 64" version="1.1">
<defs> <linearGradient id="linear0" gradientUnits="userSpaceOnUse" x1="0" y1="0" x2="0" y2="1" gradientTransform="matrix(55.992188,0,0,56,4.003906,4)"> <stop offset="0" style="stop-color:#ff6666;stop-opacity:1;"/> <stop offset="1" style="stop-color:#d90000;stop-opacity:1;"/> </linearGradient> </defs>
<g id="surface1">
<path style=" stroke:none;fill-rule:nonzero;fill:url(#linear0);fill-opacity:1;" d="M 31.578125 -2.109375 C 31.429688 -2.019531 30.589844 1.136719 29.671875 5.085938 C 28.714844 9.15625 27.8125 12.652344 27.648438 12.84375 C 27.613281 12.882812 27.542969 12.933594 27.449219 12.992188 C 20.097656 14.636719 14.296875 20.355469 12.558594 27.644531 C 12.554688 27.65625 12.554688 27.664062 12.546875 27.675781 C 12.242188 28.433594 11.992188 28.558594 11.289062 28.746094 C 10.726562 28.894531 7.4375 29.65625 3.992188 30.441406 C 0.542969 31.234375 -2.375 31.957031 -2.488281 32.066406 C -2.601562 32.171875 0.46875 32.988281 4.335938 33.882812 C 8.210938 34.769531 11.628906 35.644531 11.941406 35.839844 C 12.113281 35.945312 12.320312 36.238281 12.527344 36.628906 C 14.230469 44.042969 20.136719 49.863281 27.621094 51.464844 C 28.558594 52.082031 28.683594 52.996094 29.414062 56.078125 C 29.976562 58.4375 30.777344 61.871094 31.203125 63.703125 C 31.773438 66.167969 32.035156 66.886719 32.203125 66.472656 C 32.328125 66.171875 33.125 62.921875 33.96875 59.261719 C 34.820312 55.597656 35.617188 52.367188 35.742188 52.082031 C 35.839844 51.84375 36.378906 51.519531 37.261719 51.140625 C 43.714844 49.304688 48.820312 44.285156 50.75 37.898438 C 50.832031 37.640625 50.894531 37.386719 50.960938 37.132812 C 50.894531 37.386719 50.832031 37.640625 50.75 37.898438 C 51.023438 37.058594 51.398438 36.320312 51.613281 36.238281 C 51.835938 36.15625 55.300781 35.324219 59.304688 34.402344 C 63.308594 33.472656 66.625 32.675781 66.679688 32.621094 C 66.8125 32.496094 65.714844 32.210938 58.503906 30.550781 C 55.128906 29.777344 52.136719 29.046875 51.847656 28.925781 C 51.648438 28.847656 51.398438 28.46875 51.097656 27.851562 C 51.097656 27.847656 51.09375 27.847656 51.09375 27.839844 C 49.355469 20.191406 43.152344 14.230469 35.351562 12.828125 C 35.28125 12.746094 35.230469 12.664062 35.191406 12.578125 C 35.054688 12.242188 34.226562 8.855469 33.355469 5.039062 C 32.480469 1.222656 31.6875 -1.992188 31.585938 -2.105469 C 31.585938 -2.109375 31.585938 -2.109375 31.578125 -2.105469 M 31.804688 12.503906 C 32.148438 12.503906 32.488281 12.515625 32.824219 12.53125 C 32.488281 12.515625 32.148438 12.503906 31.804688 12.503906 C 31.527344 12.503906 31.253906 12.507812 30.984375 12.519531 C 31.253906 12.507812 31.527344 12.503906 31.804688 12.503906 M 30.613281 12.550781 C 30.335938 12.566406 30.058594 12.582031 29.785156 12.605469 C 29.539062 12.632812 29.296875 12.664062 29.050781 12.695312 C 29.296875 12.664062 29.539062 12.632812 29.785156 12.605469 C 30.058594 12.578125 30.335938 12.566406 30.613281 12.550781 M 31.804688 17.773438 C 39.808594 17.773438 46.292969 24.238281 46.292969 32.207031 C 46.292969 40.175781 39.808594 46.632812 31.804688 46.632812 C 23.804688 46.632812 17.3125 40.175781 17.3125 32.207031 C 17.3125 24.238281 23.804688 17.773438 31.804688 17.773438 M 12.117188 30.273438 C 12.089844 30.527344 12.070312 30.777344 12.054688 31.035156 C 12.070312 30.777344 12.089844 30.527344 12.117188 30.273438 M 51.488281 30.296875 C 51.519531 30.550781 51.535156 30.800781 51.550781 31.054688 C 51.535156 30.800781 51.511719 30.550781 51.488281 30.296875 M 12.042969 31.28125 C 12.03125 31.585938 12.019531 31.894531 12.019531 32.207031 C 12.019531 32.496094 12.03125 32.785156 12.042969 33.074219 C 12.03125 32.785156 12.019531 32.496094 12.019531 32.207031 C 12.019531 31.894531 12.03125 31.585938 12.042969 31.28125 M 51.570312 31.375 C 51.582031 31.648438 51.585938 31.929688 51.585938 32.207031 C 51.585938 31.925781 51.582031 31.652344 51.570312 31.375 M 12.054688 33.34375 C 12.070312 33.632812 12.09375 33.914062 12.121094 34.199219 C 12.09375 33.914062 12.070312 33.632812 12.054688 33.34375 M 51.550781 33.367188 C 51.535156 33.648438 51.511719 33.9375 51.484375 34.214844 C 51.457031 34.453125 51.425781 34.691406 51.394531 34.921875 C 51.425781 34.683594 51.457031 34.453125 51.484375 34.214844 C 51.511719 33.9375 51.535156 33.65625 51.550781 33.367188 M 51.308594 35.492188 C 51.28125 35.667969 51.246094 35.839844 51.210938 36.011719 C 51.246094 35.839844 51.28125 35.667969 51.308594 35.492188 M 29.785156 51.804688 C 30.097656 51.835938 30.414062 51.867188 30.734375 51.882812 C 30.414062 51.867188 30.097656 51.835938 29.785156 51.804688 M 30.785156 51.882812 C 31.117188 51.898438 31.460938 51.90625 31.800781 51.90625 C 32.125 51.90625 32.449219 51.894531 32.773438 51.882812 C 32.449219 51.894531 32.125 51.90625 31.800781 51.90625 C 31.460938 51.90625 31.117188 51.898438 30.785156 51.882812 "/>
<path style=" stroke:none;fill-rule:nonzero;fill:url(#linear0);fill-opacity:1;" d="M 28.425781 28.886719 C 35.769531 22.984375 28.40625 28.875 35.753906 23 C 55.324219 7.070312 35.839844 23.015625 55.339844 7.011719 C 37.917969 31.5625 43.1875 24.277344 37.835938 31.714844 C 36.410156 33.707031 35.132812 35.328125 35.003906 35.328125 C 28.40625 28.933594 34.980469 35.304688 28.425781 28.886719 "/>
<path style=" stroke:none;fill-rule:nonzero;fill:url(#linear0);fill-opacity:1;" d="M 35.226562 35.191406 C 27.960938 41.195312 35.246094 35.199219 27.976562 41.175781 C 8.625 57.363281 27.894531 41.160156 8.601562 57.417969 C 25.703125 32.644531 20.527344 39.996094 25.773438 32.484375 C 27.179688 30.480469 28.433594 28.835938 28.5625 28.835938 C 35.246094 35.148438 28.585938 28.859375 35.226562 35.191406 "/>
</g>
</svg>
