<svg xmlns="http://www.w3.org/2000/svg" xmlns:xlink="http://www.w3.org/1999/xlink" width="64" height="64" viewBox="0 0 64 64" version="1.1">
<defs>
<linearGradient id="linear0" gradientUnits="userSpaceOnUse" x1="0" y1="0" x2="0" y2="1" gradientTransform="matrix(64,0,0,42.667969,0.253906,7.828125)">
<stop offset="0" style="stop-color:#ff6666;stop-opacity:1;"/>
<stop offset="1" style="stop-color:#d90000;stop-opacity:1;"/>
</linearGradient>
</defs>
<g id="surface1">
<path style=" stroke:none;fill-rule:evenodd;fill:url(#linear0);" d="M 32.253906 7.828125 C 23.96875 7.828125 16.910156 12.746094 13.875 19.707031 C 6.164062 20.820312 0.246094 27.195312 0.253906 34.980469 C 0.246094 43.550781 7.410156 50.496094 16.253906 50.496094 L 50.253906 50.496094 C 57.984375 50.496094 64.253906 44.421875 64.253906 36.921875 C 64.253906 29.953125 58.847656 24.238281 51.875 23.46875 C 50.054688 14.570312 41.957031 7.828125 32.253906 7.828125 Z M 43 23.957031 C 43.152344 23.410156 43.519531 22.953125 44.011719 22.683594 C 44.507812 22.40625 45.09375 22.34375 45.632812 22.5 C 46.179688 22.648438 46.644531 23.015625 46.910156 23.503906 C 47.191406 23.996094 47.257812 24.574219 47.097656 25.113281 L 41.085938 46.050781 C 40.4375 48.308594 39.050781 48.441406 37.996094 46.34375 L 32.253906 34.929688 L 26.503906 46.34375 C 25.449219 48.441406 24.0625 48.308594 23.414062 46.050781 L 17.402344 25.113281 C 17.242188 24.574219 17.308594 23.996094 17.589844 23.503906 C 17.855469 23.015625 18.320312 22.648438 18.867188 22.5 C 19.40625 22.34375 19.992188 22.40625 20.488281 22.683594 C 20.980469 22.953125 21.347656 23.410156 21.5 23.957031 L 25.6875 38.496094 L 30.339844 29.242188 C 31.390625 27.148438 33.109375 27.148438 34.160156 29.242188 L 38.8125 38.496094 Z M 43 23.957031 "/>
</g>
</svg>
