<svg xmlns="http://www.w3.org/2000/svg" xmlns:xlink="http://www.w3.org/1999/xlink" width="64" height="64" viewBox="0 0 64 64" version="1.1">
<defs>
<linearGradient id="linear0" gradientUnits="userSpaceOnUse" x1="0" y1="0" x2="0" y2="1" gradientTransform="matrix(59.429688,0,0,64,2.285156,0)">
<stop offset="0" style="stop-color:#ff6666;stop-opacity:1;"/>
<stop offset="1" style="stop-color:#d90000;stop-opacity:1;"/>
</linearGradient>
</defs>
<g id="surface1">
<path style=" stroke:none;fill-rule:evenodd;fill:url(#linear0);" d="M 32.175781 0.00390625 C 30.796875 -0.03125 29.429688 0.304688 28.230469 0.972656 L 6.050781 13.335938 C 3.722656 14.636719 2.285156 17.035156 2.285156 19.636719 L 2.285156 44.359375 C 2.285156 46.960938 3.722656 49.363281 6.050781 50.664062 L 28.230469 63.023438 C 30.5625 64.324219 33.4375 64.324219 35.769531 63.023438 L 57.945312 50.664062 C 60.28125 49.363281 61.714844 46.960938 61.714844 44.359375 L 61.714844 19.636719 C 61.714844 17.035156 60.277344 14.632812 57.945312 13.332031 L 35.769531 0.972656 C 34.675781 0.359375 33.441406 0.0273438 32.179688 0 Z M 40.660156 13.714844 C 37.226562 13.714844 34.136719 15.464844 31.972656 18.125 C 29.808594 15.464844 26.714844 13.714844 23.28125 13.714844 C 16.734375 13.714844 11.429688 19.761719 11.429688 27.222656 C 11.429688 29.226562 11.738281 31.15625 12.285156 32.996094 C 12.285156 32.996094 12.777344 34.660156 13.210938 35.574219 C 18.210938 47.273438 31.972656 54.855469 31.972656 54.855469 C 31.972656 54.855469 45.730469 47.273438 50.726562 35.574219 C 55.722656 23.875 51.371094 34.015625 51.660156 32.996094 C 52.179688 31.148438 52.511719 29.226562 52.511719 27.222656 C 52.511719 19.761719 47.207031 13.714844 40.660156 13.714844 Z M 40.660156 13.714844 "/>
</g>
</svg>
