<svg xmlns="http://www.w3.org/2000/svg" xmlns:xlink="http://www.w3.org/1999/xlink" width="64" height="64" viewBox="0 0 64 64" version="1.1">
<defs> <linearGradient id="linear0" gradientUnits="userSpaceOnUse" x1="0" y1="0" x2="0" y2="1" gradientTransform="matrix(55.992188,0,0,56,4.003906,4)"> <stop offset="0" style="stop-color:#ff6666;stop-opacity:1;"/> <stop offset="1" style="stop-color:#d90000;stop-opacity:1;"/> </linearGradient> </defs>
<g id="surface1">
<path style=" stroke:none;fill-rule:nonzero;fill:url(#linear0);fill-opacity:1;" d="M 32.265625 9.183594 C 29.859375 9.089844 27.949219 10.726562 26.503906 12.867188 C 25.054688 15.003906 23.796875 17.933594 22.554688 21.757812 C 21.949219 23.640625 21.300781 25.28125 20.703125 26.632812 C 20.25 25.496094 19.773438 24.183594 19.339844 22.679688 C 18.710938 20.484375 17.949219 18.277344 17.222656 16.433594 C 16.496094 14.597656 15.988281 13.296875 15.070312 12.152344 C 12.089844 8.453125 6.359375 8.628906 3.355469 12.355469 C 2.765625 13.09375 2.273438 14.121094 2.132812 15.230469 C 1.992188 16.339844 2.097656 17.507812 2.378906 18.945312 C 2.933594 21.824219 4.21875 25.914062 6.484375 32.738281 C 7.960938 37.191406 9.566406 41.511719 10.980469 44.921875 C 12.191406 47.460938 13.195312 50.214844 14.65625 52.0625 C 16.070312 53.550781 17.644531 54.601562 19.402344 55 C 22.503906 55.191406 23.601562 54.675781 24.558594 54.046875 C 27.59375 52.125 29.539062 48.398438 31.011719 43.191406 C 31.449219 41.644531 31.925781 40.375 32.34375 39.359375 C 33.582031 43.570312 34.765625 46.820312 36.042969 49.242188 C 37.53125 52.039062 39.292969 54.015625 41.710938 54.640625 C 43.261719 55.042969 44.9375 55.15625 46.53125 54.539062 C 48.128906 53.925781 49.421875 52.683594 50.546875 51.039062 C 52.800781 47.742188 54.777344 42.511719 57.714844 33.785156 C 60.519531 25.445312 62.019531 20.410156 62.042969 16.636719 C 62.050781 14.75 61.59375 12.992188 60.433594 11.71875 C 59.277344 10.445312 57.71875 9.875 56.113281 9.550781 C 54.863281 9.296875 53.511719 9.332031 52.265625 9.847656 C 51.03125 10.359375 50.011719 11.289062 49.195312 12.429688 C 47.566406 14.722656 46.453125 17.960938 45.1875 22.769531 C 44.765625 24.367188 44.335938 25.777344 43.914062 27.050781 C 43.347656 25.667969 42.734375 24.109375 42.121094 22.328125 C 40.769531 18.40625 39.421875 15.398438 37.941406 13.183594 C 36.457031 10.972656 34.679688 9.285156 32.265625 9.183594 M 32.078125 13.777344 C 32.203125 13.78125 32.992188 14.082031 34.101562 15.734375 C 35.207031 17.390625 36.472656 20.121094 37.757812 23.824219 C 38.648438 26.410156 39.570312 28.746094 40.363281 30.503906 C 40.761719 31.386719 41.121094 32.117188 41.476562 32.710938 C 41.660156 33.011719 41.828125 33.277344 42.085938 33.570312 C 42.347656 33.871094 42.554688 34.554688 44.09375 34.554688 C 45.59375 34.554688 45.894531 33.832031 46.144531 33.507812 C 46.402344 33.191406 46.554688 32.917969 46.707031 32.613281 C 47.027344 32.015625 47.320312 31.300781 47.640625 30.441406 C 48.28125 28.722656 48.992188 26.449219 49.648438 23.933594 C 50.863281 19.320312 52.019531 16.410156 52.953125 15.09375 C 53.425781 14.4375 53.777344 14.199219 54.039062 14.085938 C 54.304688 13.980469 54.589844 13.933594 55.191406 14.054688 C 56.328125 14.285156 56.816406 14.578125 57.015625 14.800781 C 57.21875 15.027344 57.433594 15.398438 57.425781 16.609375 C 57.414062 19.035156 56.113281 24.082031 53.335938 32.324219 C 50.433594 40.972656 48.355469 46.078125 46.730469 48.457031 C 45.917969 49.648438 45.316406 50.078125 44.863281 50.253906 C 44.40625 50.429688 43.886719 50.460938 42.867188 50.195312 C 42.277344 50.042969 41.324219 49.359375 40.132812 47.101562 C 38.933594 44.839844 37.628906 41.226562 36.203125 36.132812 C 35.871094 34.945312 35.566406 33.78125 34.066406 33.023438 C 33.3125 32.644531 32.277344 32.636719 31.566406 32.914062 C 30.863281 33.191406 30.410156 33.605469 30.027344 34.035156 C 28.511719 35.734375 27.625 38.21875 26.574219 41.953125 C 25.257812 46.601562 23.382812 49.347656 22.082031 50.179688 C 21.429688 50.59375 21.011719 50.65625 20.425781 50.523438 C 19.835938 50.390625 18.988281 49.941406 18.007812 48.90625 C 18.136719 49.050781 17.585938 48.285156 17.074219 47.25 C 16.558594 46.214844 15.925781 44.8125 15.25 43.171875 C 13.890625 39.894531 12.308594 35.652344 10.867188 31.300781 C 8.613281 24.511719 7.371094 20.4375 6.914062 18.082031 C 6.6875 16.902344 6.671875 16.179688 6.714844 15.824219 C 6.761719 15.46875 6.785156 15.457031 6.953125 15.242188 C 8.410156 13.429688 10.175781 13.421875 11.480469 15.039062 C 11.453125 15.007812 12.265625 16.441406 12.933594 18.125 C 13.597656 19.804688 14.320312 21.910156 14.910156 23.949219 C 15.546875 26.160156 16.269531 28.167969 16.976562 29.71875 C 17.332031 30.492188 17.671875 31.144531 18.0625 31.722656 C 18.257812 32.007812 18.453125 32.285156 18.777344 32.582031 C 19.097656 32.875 19.574219 33.328125 20.585938 33.355469 L 20.589844 33.355469 C 21.726562 33.382812 22.214844 32.867188 22.542969 32.570312 C 22.867188 32.265625 23.078125 31.988281 23.289062 31.6875 C 23.703125 31.082031 24.078125 30.375 24.480469 29.53125 C 25.285156 27.839844 26.15625 25.625 26.949219 23.171875 C 28.113281 19.574219 29.308594 16.960938 30.335938 15.4375 C 31.363281 13.917969 31.960938 13.777344 32.085938 13.78125 M 45.457031 30.371094 C 45.53125 30.464844 45.566406 30.5625 45.582031 30.578125 C 45.625 30.628906 45.550781 30.527344 45.457031 30.371094 "/>
</g>
</svg>
