<svg xmlns="http://www.w3.org/2000/svg" xmlns:xlink="http://www.w3.org/1999/xlink" width="64" height="64" viewBox="0 0 64 64" version="1.1">
<defs> <linearGradient id="linear0" gradientUnits="userSpaceOnUse" x1="0" y1="0" x2="0" y2="1" gradientTransform="matrix(55.992188,0,0,56,4.003906,4)"> <stop offset="0" style="stop-color:#ff6666;stop-opacity:1;"/> <stop offset="1" style="stop-color:#d90000;stop-opacity:1;"/> </linearGradient> </defs>
<g id="surface1">
<path style=" stroke:none;fill-rule:nonzero;fill:url(#linear0);fill-opacity:1;" d="M 34.027344 4.242188 C 19.839844 4.242188 8.339844 15.695312 8.339844 29.816406 C 8.347656 34.960938 9.914062 39.984375 12.828125 44.226562 L 8.339844 55.394531 L 19.539062 50.9375 C 23.808594 53.84375 28.859375 55.394531 34.027344 55.394531 C 48.210938 55.394531 59.710938 43.941406 59.710938 29.816406 C 59.710938 15.695312 48.210938 4.242188 34.027344 4.242188 M 23.578125 16.226562 C 24.066406 16.226562 24.558594 16.21875 24.992188 16.246094 C 25.523438 16.269531 26.105469 16.292969 26.65625 17.515625 C 27.308594 18.972656 28.746094 22.617188 28.933594 22.976562 C 29.121094 23.34375 29.238281 23.773438 28.996094 24.277344 C 28.746094 24.757812 28.625 25.066406 28.25 25.496094 C 27.886719 25.925781 27.480469 26.449219 27.148438 26.785156 C 26.78125 27.144531 26.386719 27.542969 26.820312 28.28125 C 27.25 29.019531 28.726562 31.425781 30.925781 33.378906 C 33.75 35.871094 36.132812 36.65625 36.871094 37.019531 C 37.609375 37.386719 38.042969 37.332031 38.472656 36.839844 C 38.898438 36.347656 40.320312 34.691406 40.8125 33.953125 C 41.308594 33.214844 41.789062 33.34375 42.464844 33.585938 C 43.140625 33.832031 46.777344 35.617188 47.519531 35.980469 C 48.257812 36.347656 48.753906 36.535156 48.933594 36.839844 C 49.121094 37.148438 49.121094 38.625 48.496094 40.328125 C 47.882812 42.046875 44.867188 43.703125 43.515625 43.828125 C 42.160156 43.953125 40.890625 44.457031 34.652344 41.992188 C 27.144531 39.042969 22.40625 31.382812 22.039062 30.890625 C 21.667969 30.398438 19.015625 26.898438 19.015625 23.277344 C 19.015625 19.65625 20.925781 17.882812 21.601562 17.148438 C 22.277344 16.40625 23.082031 16.226562 23.578125 16.226562 "/>
</g>
</svg>
