<svg xmlns="http://www.w3.org/2000/svg" xmlns:xlink="http://www.w3.org/1999/xlink" width="64" height="64" viewBox="0 0 64 64" version="1.1">
<defs> <linearGradient id="linear0" gradientUnits="userSpaceOnUse" x1="0" y1="0" x2="0" y2="1" gradientTransform="matrix(55.992188,0,0,56,4.003906,4)"> <stop offset="0" style="stop-color:#ff6666;stop-opacity:1;"/> <stop offset="1" style="stop-color:#d90000;stop-opacity:1;"/> </linearGradient> </defs>
<g id="surface1">
<path style=" stroke:none;fill-rule:nonzero;fill:url(#linear0);fill-opacity:1;" d="M 46.816406 10.582031 L 42.949219 14.351562 C 48.992188 20.230469 49.03125 29.71875 42.980469 35.605469 L 46.851562 39.371094 C 54.992188 31.449219 54.949219 18.492188 46.816406 10.582031 M 17.296875 10.613281 C 9.152344 18.539062 9.128906 31.425781 17.261719 39.339844 L 21.128906 35.570312 C 15.085938 29.691406 15.117188 20.261719 21.164062 14.382812 L 17.296875 10.613281 M 40.152344 17.125 L 38.023438 19.199219 C 41.335938 22.441406 41.359375 27.683594 38.042969 30.929688 L 40.171875 33.011719 C 44.636719 28.640625 44.613281 21.492188 40.152344 17.125 M 23.957031 17.148438 C 19.492188 21.511719 19.484375 28.628906 23.941406 32.992188 L 26.070312 30.90625 C 22.757812 27.664062 22.769531 22.464844 26.085938 19.21875 L 23.957031 17.140625 M 32.054688 21.773438 C 30.277344 21.773438 28.847656 23.203125 28.847656 24.972656 C 28.847656 26.15625 29.488281 27.191406 30.449219 27.746094 L 30.476562 50.570312 L 19.203125 50.570312 L 19.203125 53.765625 L 44.902344 53.765625 L 44.902344 50.570312 L 33.65625 50.570312 L 33.636719 27.761719 C 34.613281 27.214844 35.265625 26.167969 35.265625 24.972656 C 35.265625 23.203125 33.828125 21.773438 32.054688 21.773438 "/>
</g>
</svg>
