<svg xmlns="http://www.w3.org/2000/svg" xmlns:xlink="http://www.w3.org/1999/xlink" width="64" height="64" viewBox="0 0 64 64" version="1.1">
<defs>
<linearGradient id="linear0" gradientUnits="userSpaceOnUse" x1="0" y1="0" x2="0" y2="1" gradientTransform="matrix(64,0,0,59.734375,0,2.132812)">
<stop offset="0" style="stop-color:#ff6666;stop-opacity:1;"/>
<stop offset="1" style="stop-color:#d90000;stop-opacity:1;"/>
</linearGradient>
</defs>
<g id="surface1">
<path style=" stroke:none;fill-rule:evenodd;fill:url(#linear0);" d="M 34.253906 32.769531 C 34.761719 32.261719 35.453125 31.96875 36.175781 31.96875 C 36.902344 31.96875 37.597656 32.261719 38.105469 32.769531 C 38.613281 33.277344 38.902344 33.96875 38.902344 34.691406 C 38.902344 35.421875 38.613281 36.113281 38.105469 36.621094 L 23.566406 51.152344 C 23.058594 51.660156 22.371094 51.953125 21.644531 51.953125 C 20.914062 51.953125 20.226562 51.660156 19.71875 51.152344 C 19.207031 50.644531 18.921875 49.953125 18.921875 49.226562 C 18.921875 48.5 19.207031 47.8125 19.71875 47.300781 Z M 41.859375 2.132812 C 61.230469 2.132812 64 4.894531 64 24.253906 L 64 39.753906 C 64 59.105469 61.230469 61.867188 41.859375 61.867188 L 22.140625 61.867188 C 2.769531 61.867188 0 59.105469 0 39.753906 L 0 24.253906 C 0 4.894531 2.769531 2.132812 22.140625 2.132812 Z M 36.289062 51.152344 C 35.777344 51.660156 35.089844 51.953125 34.359375 51.953125 C 33.632812 51.953125 32.945312 51.660156 32.4375 51.152344 C 31.929688 50.644531 31.636719 49.953125 31.636719 49.226562 C 31.636719 48.5 31.929688 47.8125 32.4375 47.300781 L 46.96875 32.769531 C 47.476562 32.261719 48.167969 31.96875 48.890625 31.96875 C 49.621094 31.96875 50.3125 32.261719 50.820312 32.769531 C 51.328125 33.277344 51.621094 33.96875 51.621094 34.691406 C 51.621094 35.421875 51.328125 36.113281 50.820312 36.621094 Z M 36.289062 51.152344 "/>
</g>
</svg>
