<svg xmlns="http://www.w3.org/2000/svg" xmlns:xlink="http://www.w3.org/1999/xlink" width="64" height="64" viewBox="0 0 64 64" version="1.1">
<defs> <linearGradient id="linear0" gradientUnits="userSpaceOnUse" x1="0" y1="0" x2="0" y2="1" gradientTransform="matrix(55.992188,0,0,56,4.003906,4)"> <stop offset="0" style="stop-color:#ff6666;stop-opacity:1;"/> <stop offset="1" style="stop-color:#d90000;stop-opacity:1;"/> </linearGradient> </defs>
<g id="surface1">
<path style=" stroke:none;fill-rule:nonzero;fill:url(#linear0);fill-opacity:1;" d="M 30.925781 9.457031 C 18.363281 9.457031 7.011719 14.558594 -1.222656 22.757812 L 3.347656 27.308594 C 10.40625 20.28125 20.160156 15.929688 30.925781 15.929688 C 41.6875 15.929688 51.445312 20.28125 58.503906 27.308594 L 63.070312 22.757812 C 54.835938 14.558594 43.480469 9.457031 30.925781 9.457031 Z M 30.925781 22.402344 C 21.953125 22.402344 13.855469 26.054688 7.972656 31.914062 L 12.542969 36.464844 C 17.246094 31.777344 23.746094 28.875 30.925781 28.875 C 38.105469 28.875 44.605469 31.777344 49.308594 36.464844 L 53.878906 31.914062 C 47.996094 26.054688 39.898438 22.402344 30.925781 22.402344 Z M 30.925781 35.351562 C 25.542969 35.351562 20.691406 37.550781 17.160156 41.0625 L 21.730469 45.617188 C 24.089844 43.273438 27.335938 41.820312 30.925781 41.820312 C 34.515625 41.820312 37.761719 43.273438 40.121094 45.617188 L 44.691406 41.0625 C 41.160156 37.550781 36.308594 35.351562 30.925781 35.351562 Z M 30.925781 46.097656 C 28.921875 46.097656 27.296875 47.714844 27.296875 49.703125 C 27.296875 51.703125 28.921875 53.320312 30.925781 53.320312 C 32.929688 53.320312 34.554688 51.703125 34.554688 49.703125 C 34.554688 47.714844 32.929688 46.097656 30.925781 46.097656 Z M 30.925781 46.097656 "/>
</g>
</svg>
