<svg xmlns="http://www.w3.org/2000/svg" xmlns:xlink="http://www.w3.org/1999/xlink" width="64" height="64" viewBox="0 0 64 64" version="1.1">
<defs> <linearGradient id="linear0" gradientUnits="userSpaceOnUse" x1="0" y1="0" x2="0" y2="1" gradientTransform="matrix(55.992188,0,0,56,4.003906,4)"> <stop offset="0" style="stop-color:#ff6666;stop-opacity:1;"/> <stop offset="1" style="stop-color:#d90000;stop-opacity:1;"/> </linearGradient> </defs>
<g id="surface1">
<path style=" stroke:none;fill-rule:nonzero;fill:url(#linear0);fill-opacity:1;" d="M 30.308594 -1.417969 C 30.300781 -1.417969 30.273438 -1.339844 30.25 -1.253906 C 30.160156 -0.917969 29.789062 0.34375 29.496094 1.265625 C 28.46875 4.511719 27.292969 7.449219 26.171875 9.585938 C 25.492188 10.851562 24.964844 11.683594 24.246094 12.542969 C 23.890625 12.957031 23.808594 13.070312 23.730469 13.234375 C 23.605469 13.480469 23.675781 13.59375 23.964844 13.554688 C 24.21875 13.527344 24.859375 13.316406 26.417969 12.730469 C 27.78125 12.222656 27.976562 12.152344 27.976562 12.191406 C 27.976562 12.265625 28.285156 13.351562 28.433594 13.765625 C 29.476562 16.945312 31.152344 19.207031 33.691406 20.902344 C 34.777344 21.621094 35.808594 22.140625 37.742188 22.925781 C 40.574219 24.082031 41.113281 24.328125 42.003906 24.878906 C 42.398438 25.125 42.902344 25.503906 42.902344 25.550781 C 42.902344 25.574219 42.566406 25.917969 42.164062 26.320312 L 41.421875 27.0625 L 40.597656 26.230469 C 40.0625 25.710938 39.738281 25.410156 39.71875 25.421875 C 39.671875 25.433594 39.144531 27.28125 37.996094 31.585938 C 37.992188 31.609375 38 31.636719 38.042969 31.636719 C 38.097656 31.636719 43.839844 30.101562 44.214844 29.984375 C 44.230469 29.972656 44.261719 29.957031 44.261719 29.933594 C 44.261719 29.910156 43.898438 29.527344 43.449219 29.078125 C 42.988281 28.632812 42.625 28.242188 42.625 28.230469 C 42.625 28.179688 44.089844 26.734375 44.136719 26.734375 C 44.179688 26.734375 44.5625 27.175781 44.925781 27.65625 C 46.757812 29.996094 47.910156 32.835938 48.21875 35.765625 C 48.304688 36.5625 48.304688 36.667969 48.257812 36.691406 C 48.203125 36.742188 46.183594 36.726562 46.152344 36.679688 C 46.113281 36.65625 46.113281 36.339844 46.113281 35.480469 C 46.113281 34.34375 46.113281 34.328125 46.042969 34.339844 C 45.957031 34.367188 40.464844 37.511719 40.464844 37.539062 C 40.464844 37.558594 40.488281 37.578125 40.527344 37.613281 C 40.699219 37.714844 46.058594 40.769531 46.082031 40.769531 C 46.101562 40.769531 46.113281 40.25 46.113281 39.582031 L 46.121094 38.398438 L 48.28125 38.398438 L 48.28125 38.65625 C 48.253906 39.226562 48.105469 40.292969 47.921875 41.0625 C 47.421875 43.371094 46.40625 45.542969 44.96875 47.398438 C 44.703125 47.738281 44.21875 48.324219 44.164062 48.363281 C 44.125 48.394531 42.625 46.917969 42.625 46.859375 C 42.625 46.847656 42.992188 46.457031 43.453125 46.007812 C 43.976562 45.503906 44.273438 45.191406 44.25 45.152344 C 44.199219 45.105469 38.042969 43.457031 38.011719 43.488281 C 37.992188 43.511719 39.648438 49.664062 39.695312 49.703125 C 39.71875 49.738281 40.039062 49.421875 40.546875 48.90625 C 41.007812 48.460938 41.386719 48.082031 41.414062 48.082031 C 41.488281 48.082031 42.941406 49.546875 42.910156 49.597656 C 42.886719 49.648438 42.289062 50.164062 41.878906 50.460938 C 40.046875 51.867188 37.878906 52.867188 35.589844 53.371094 C 34.828125 53.535156 33.742188 53.691406 33.179688 53.726562 L 32.902344 53.730469 L 32.902344 51.578125 L 34.09375 51.566406 C 34.894531 51.566406 35.289062 51.546875 35.289062 51.527344 C 35.289062 51.457031 32.089844 45.933594 32.050781 45.933594 C 32.015625 45.933594 28.824219 51.46875 28.824219 51.527344 C 28.824219 51.542969 29.210938 51.558594 30.011719 51.566406 L 31.210938 51.578125 L 31.210938 53.730469 L 30.929688 53.726562 C 30.378906 53.691406 29.300781 53.535156 28.535156 53.371094 C 26.242188 52.867188 24.078125 51.871094 22.226562 50.460938 C 21.828125 50.164062 21.21875 49.648438 21.203125 49.597656 C 21.179688 49.539062 22.625 48.082031 22.695312 48.082031 C 22.726562 48.082031 23.117188 48.457031 23.566406 48.90625 C 24.082031 49.429688 24.402344 49.738281 24.421875 49.703125 C 24.480469 49.660156 26.136719 43.511719 26.117188 43.488281 C 26.074219 43.472656 19.921875 45.117188 19.867188 45.152344 C 19.851562 45.179688 20.148438 45.496094 20.664062 46.007812 C 21.117188 46.457031 21.492188 46.847656 21.492188 46.859375 C 21.492188 46.917969 20 48.394531 19.953125 48.363281 C 19.890625 48.320312 19.410156 47.738281 19.148438 47.398438 C 17.722656 45.542969 16.695312 43.375 16.183594 41.0625 C 16.011719 40.292969 15.863281 39.242188 15.84375 38.65625 L 15.832031 38.398438 L 17.984375 38.398438 L 17.996094 39.582031 C 18.007812 40.25 18.023438 40.769531 18.035156 40.769531 C 18.039062 40.769531 23.40625 37.714844 23.589844 37.613281 C 23.605469 37.578125 23.640625 37.546875 23.640625 37.539062 C 23.640625 37.519531 18.160156 34.382812 18.050781 34.339844 C 18.007812 34.328125 18.007812 34.34375 18.007812 35.480469 C 18.007812 36.347656 17.988281 36.65625 17.964844 36.679688 C 17.933594 36.730469 15.910156 36.730469 15.847656 36.691406 C 15.808594 36.667969 15.8125 36.5625 15.894531 35.765625 C 16.207031 32.847656 17.359375 29.996094 19.1875 27.65625 C 19.550781 27.175781 19.941406 26.734375 19.988281 26.734375 C 20.023438 26.734375 21.488281 28.191406 21.488281 28.230469 C 21.488281 28.25 21.117188 28.632812 20.664062 29.078125 C 20.214844 29.527344 19.851562 29.910156 19.851562 29.933594 C 19.851562 29.9375 19.875 29.960938 19.902344 29.984375 C 20.277344 30.101562 26.03125 31.636719 26.074219 31.636719 C 26.117188 31.636719 26.136719 31.625 26.121094 31.585938 C 24.953125 27.285156 24.445312 25.4375 24.40625 25.421875 C 24.378906 25.414062 24.046875 25.71875 23.527344 26.230469 L 22.703125 27.0625 L 19.691406 24.0625 C 18.039062 22.417969 16.660156 21.070312 16.636719 21.070312 C 16.5625 21.070312 15.367188 22.289062 14.898438 22.832031 C 11.292969 27.039062 9.402344 32.128906 9.40625 37.589844 C 9.40625 42.953125 11.34375 48.160156 14.804688 52.191406 C 19 57.0625 24.902344 59.894531 31.335938 60.128906 L 31.316406 60.121094 C 33.089844 60.179688 35.078125 59.992188 36.835938 59.617188 C 40.144531 58.90625 43.214844 57.480469 45.914062 55.410156 C 50.699219 51.734375 53.835938 46.222656 54.542969 40.261719 C 55.34375 33.402344 53.050781 26.652344 48.21875 21.75 C 47.421875 20.929688 46.640625 20.292969 45.65625 19.652344 C 44.46875 18.878906 43.105469 18.203125 40.996094 17.367188 C 38.28125 16.289062 37.207031 15.722656 36.320312 14.878906 C 35.441406 14.042969 34.78125 12.867188 34.355469 11.355469 C 34.242188 10.949219 34.25 10.960938 34.503906 10.984375 C 34.78125 11.011719 35.339844 11.128906 35.605469 11.226562 C 36.277344 11.457031 36.628906 11.683594 37.332031 12.363281 C 37.769531 12.78125 37.917969 12.882812 38.007812 12.828125 C 38.296875 12.632812 37.121094 10.21875 34.46875 5.59375 C 33.167969 3.320312 30.359375 -1.417969 30.308594 -1.417969 M 32.074219 30.042969 C 31.488281 30.042969 31.222656 30.046875 30.960938 30.09375 C 28.371094 30.488281 26.191406 32.132812 25.132812 34.488281 C 24.84375 35.125 24.660156 35.777344 24.535156 36.550781 C 24.457031 37.070312 24.464844 38.167969 24.554688 38.710938 C 24.808594 40.3125 25.503906 41.695312 26.617188 42.839844 C 27.269531 43.511719 27.898438 43.960938 28.726562 44.371094 C 29.625 44.800781 30.414062 45.023438 31.578125 45.136719 L 31.585938 45.140625 C 31.652344 45.152344 31.949219 45.152344 32.238281 45.140625 C 33.402344 45.128906 34.378906 44.890625 35.414062 44.382812 C 36.234375 43.976562 36.855469 43.511719 37.519531 42.851562 C 38.125 42.21875 38.535156 41.640625 38.917969 40.847656 C 39.246094 40.164062 39.460938 39.484375 39.585938 38.710938 C 39.671875 38.167969 39.675781 37.066406 39.597656 36.542969 C 39.484375 35.777344 39.292969 35.125 39 34.488281 C 37.945312 32.128906 35.769531 30.488281 33.179688 30.09375 C 32.914062 30.046875 32.648438 30.042969 32.074219 30.042969 "/>
</g>
</svg>
