<svg xmlns="http://www.w3.org/2000/svg" xmlns:xlink="http://www.w3.org/1999/xlink" width="64" height="64" viewBox="0 0 64 64" version="1.1">
<defs> <linearGradient id="linear0" gradientUnits="userSpaceOnUse" x1="0" y1="0" x2="0" y2="1" gradientTransform="matrix(55.992188,0,0,56,4.003906,4)"> <stop offset="0" style="stop-color:#ff6666;stop-opacity:1;"/> <stop offset="1" style="stop-color:#d90000;stop-opacity:1;"/> </linearGradient> </defs>
<g id="surface1">
<path style=" stroke:none;fill-rule:evenodd;fill:url(#linear0);fill-opacity:1;" d="M 8.136719 8.851562 C 6.746094 9.128906 5.707031 10.410156 5.707031 11.882812 L 5.707031 42.199219 C 5.707031 43.875 7.058594 45.230469 8.75 45.230469 L 11.792969 45.230469 L 11.792969 20.285156 C 11.792969 18.816406 12.839844 17.539062 14.230469 17.253906 C 14.429688 17.214844 14.628906 17.253906 14.835938 17.253906 L 48.328125 17.253906 L 48.328125 11.882812 C 48.328125 10.203125 46.957031 8.84375 45.277344 8.84375 L 8.730469 8.84375 C 8.523438 8.84375 8.316406 8.8125 8.125 8.84375 "/>
<path style=" stroke:none;fill-rule:evenodd;fill:url(#linear0);fill-opacity:1;" d="M 17.082031 20.085938 C 15.6875 20.371094 14.648438 21.621094 14.648438 23.089844 L 14.648438 53.421875 C 14.648438 55.09375 16.050781 56.421875 17.738281 56.421875 L 54.234375 56.421875 C 55.90625 56.421875 57.320312 55.09375 57.320312 53.421875 L 57.320312 23.089844 C 57.320312 21.410156 55.914062 20.085938 54.234375 20.085938 L 17.738281 20.085938 C 17.527344 20.085938 17.277344 20.054688 17.082031 20.085938 M 17.738281 27.710938 L 54.234375 27.710938 L 54.234375 53.425781 L 17.738281 53.425781 Z M 17.738281 27.710938 "/>
</g>
</svg>
