<svg xmlns="http://www.w3.org/2000/svg" xmlns:xlink="http://www.w3.org/1999/xlink" width="64" height="64" viewBox="0 0 64 64" version="1.1">
<defs> <linearGradient id="linear0" gradientUnits="userSpaceOnUse" x1="0" y1="0" x2="0" y2="1" gradientTransform="matrix(55.992188,0,0,56,4.003906,4)"> <stop offset="0" style="stop-color:#ff6666;stop-opacity:1;"/> <stop offset="1" style="stop-color:#d90000;stop-opacity:1;"/> </linearGradient> </defs>
<g id="surface1">
<path style=" stroke:none;fill-rule:nonzero;fill:url(#linear0);fill-opacity:1;" d="M 25.03125 6.191406 C 24.84375 6.199219 24.679688 6.242188 24.558594 6.328125 C 24.457031 6.402344 23.707031 7.132812 22.890625 7.953125 C 21.589844 9.257812 21.375 9.5 21.21875 9.828125 C 21 10.304688 20.855469 10.828125 20.855469 11.191406 C 20.855469 11.546875 20.710938 12.394531 20.550781 12.949219 C 20.191406 14.199219 19.703125 14.609375 18.4375 14.703125 C 18.113281 14.730469 17.859375 14.730469 17.875 14.710938 C 17.183594 14.550781 16.3125 14.863281 16 15.246094 C 14.015625 16.949219 12.15625 18.492188 10.539062 20.515625 C 7.953125 23.785156 5.785156 28.101562 5.144531 31.273438 C 4.542969 34.238281 5 37.3125 6.5 40.351562 C 7.050781 41.472656 7.226562 41.71875 7.511719 41.769531 C 7.808594 41.828125 8.175781 41.703125 8.378906 41.488281 C 8.578125 41.277344 8.589844 41.109375 8.441406 40.351562 C 8.363281 39.945312 8.347656 39.484375 8.339844 38.347656 C 8.339844 37.066406 8.359375 36.777344 8.476562 36.121094 C 8.628906 35.261719 8.929688 34.164062 9.164062 33.605469 C 9.542969 32.671875 10.304688 31.648438 11.179688 30.894531 C 12.09375 30.101562 13.453125 29.324219 14.507812 28.976562 C 15.667969 28.492188 16.496094 28.785156 17.277344 28.808594 C 19.210938 29.007812 19.339844 29.101562 20.203125 29.527344 C 20.597656 29.71875 20.804688 29.898438 22.144531 31.210938 L 23.640625 32.683594 L 23.46875 32.863281 C 23.191406 33.152344 23.183594 33.257812 23.441406 33.644531 C 23.703125 34.046875 24.265625 34.808594 25.070312 35.867188 C 25.378906 36.359375 25.824219 36.761719 26.117188 37.15625 C 21.210938 42.421875 18.796875 44.65625 11.976562 51.457031 C 11.679688 51.679688 11.554688 51.96875 11.394531 52.289062 C 11.265625 52.566406 11.105469 52.960938 11.054688 53.171875 C 10.9375 53.625 10.917969 54.640625 11.027344 55.082031 C 11.941406 58.652344 16.296875 58.789062 17.964844 57.121094 C 18.824219 56.253906 21.515625 53.5625 24.730469 50.355469 L 31.890625 43.21875 L 32.25 43.558594 C 32.917969 44.203125 33.628906 44.871094 33.945312 45.148438 C 34.117188 45.300781 34.464844 45.609375 34.707031 45.835938 C 34.953125 46.070312 35.339844 46.425781 35.566406 46.632812 C 38.671875 49.902344 40.019531 50.761719 43.136719 54.5 C 43.285156 54.6875 43.515625 54.886719 43.652344 55.0625 C 43.875 55.332031 44.105469 55.613281 44.164062 55.675781 C 44.21875 55.746094 44.34375 55.902344 44.441406 56.035156 C 44.714844 56.441406 45.25 57 45.425781 57.339844 C 46.488281 58.472656 48.394531 58.039062 48.847656 57.503906 C 48.867188 57.46875 49.472656 56.851562 50.25 56.085938 C 51.070312 55.277344 52.046875 54.273438 52.421875 53.863281 C 52.699219 53.554688 52.875 53.359375 52.996094 53.183594 C 53.414062 52.601562 54.074219 51.859375 53.277344 51.3125 L 52.914062 51.039062 C 52.082031 50.402344 50.0625 48.824219 49.894531 48.664062 C 49.859375 48.628906 49.617188 48.433594 49.355469 48.222656 C 47.640625 46.84375 45.34375 44.683594 43.113281 42.351562 C 42.800781 42.03125 42.285156 41.492188 41.953125 41.152344 C 41.628906 40.816406 41.402344 40.558594 41.453125 40.589844 C 41.507812 40.617188 41.390625 40.492188 41.210938 40.316406 C 41.027344 40.140625 40.707031 39.8125 40.5 39.582031 C 40.0625 39.101562 38.972656 37.929688 38.484375 37.410156 C 38.296875 37.210938 38.144531 37.035156 38.144531 37.019531 C 38.144531 37.003906 39.09375 36.046875 40.257812 34.894531 C 42.828125 32.347656 43.226562 32.058594 44.402344 31.851562 C 44.84375 31.777344 45.066406 31.773438 45.925781 31.832031 C 46.476562 31.867188 47.195312 31.941406 47.519531 31.992188 C 48.609375 32.152344 50.058594 32.101562 51.1875 31.855469 C 52.386719 31.609375 53.925781 30.921875 54.949219 30.199219 C 55.640625 29.707031 56.691406 28.679688 57.214844 27.976562 C 58.308594 26.507812 59.027344 24.652344 59.183594 22.863281 L 59.230469 22.410156 L 58.894531 22.085938 C 58.691406 21.886719 58.46875 21.734375 58.328125 21.695312 C 58.066406 21.613281 57.957031 21.660156 56.992188 22.226562 C 56.167969 22.707031 55.402344 23.148438 55.125 23.300781 C 54.980469 23.386719 54.074219 23.90625 53.109375 24.460938 C 51.914062 25.148438 51.296875 25.472656 51.175781 25.472656 C 50.484375 25.472656 49.417969 24.695312 48.605469 23.609375 C 47.972656 22.761719 47.265625 21.4375 46.953125 20.511719 C 46.789062 20.027344 46.765625 19.878906 46.757812 19.277344 C 46.753906 18.726562 46.777344 18.554688 46.867188 18.347656 C 47.007812 18.039062 46.984375 18.050781 52.359375 14.988281 C 53.550781 14.308594 53.777344 14.148438 53.859375 13.984375 C 53.964844 13.757812 53.9375 13.359375 53.789062 13.074219 C 53.628906 12.804688 53.398438 12.707031 53.171875 12.601562 C 52.195312 12.136719 51.007812 11.84375 49.671875 11.722656 C 49.371094 11.699219 49.066406 11.691406 48.757812 11.695312 C 45.820312 11.734375 42.875 13.183594 40.960938 15.570312 C 40.636719 15.976562 40.089844 16.769531 40.089844 16.835938 C 40.089844 16.851562 40.03125 16.964844 39.957031 17.085938 C 39.882812 17.203125 39.71875 17.542969 39.59375 17.835938 C 39.042969 19.125 38.835938 20.117188 38.699219 22.113281 C 38.582031 23.910156 38.292969 24.820312 37.503906 25.878906 C 36.628906 26.835938 36.585938 27.015625 34.3125 29.101562 C 33.863281 29.617188 33.351562 30.175781 32.714844 30.691406 C 31.972656 31.484375 32.261719 31.320312 31.628906 30.96875 C 30.75 30.265625 29.488281 29.3125 28.996094 28.964844 C 28.683594 28.746094 28.371094 28.527344 28.3125 28.484375 C 28.164062 28.378906 27.972656 28.429688 27.6875 28.65625 L 27.460938 28.835938 L 25.898438 27.285156 C 24.066406 25.460938 23.78125 25.082031 23.542969 24.164062 C 23.476562 23.886719 23.457031 23.660156 23.488281 23.289062 C 23.589844 21.9375 23.59375 21.367188 23.515625 21.019531 L 23.433594 20.671875 L 23.320312 20.058594 C 23.332031 19.980469 23.34375 19.863281 23.34375 19.714844 C 23.34375 19.199219 23.46875 18.675781 23.679688 18.351562 C 24.089844 17.835938 24.730469 17.578125 25.316406 17.429688 C 25.84375 17.304688 26.484375 17.203125 26.632812 17.261719 C 26.882812 17.351562 27.5 17.324219 27.863281 17.199219 C 28.625 16.9375 28.820312 16.785156 30.390625 15.222656 C 31.214844 14.398438 31.929688 13.644531 31.964844 13.554688 C 32.003906 13.472656 32.039062 13.265625 32.039062 13.113281 C 32.042969 12.632812 31.851562 12.355469 30.726562 11.238281 C 30.183594 10.695312 29.875 10.382812 29.6875 10.214844 L 28.183594 8.71875 C 27.3125 7.828125 25.945312 6.496094 25.742188 6.378906 C 25.523438 6.253906 25.265625 6.191406 25.027344 6.199219 Z M 25.03125 6.191406 "/>
</g>
</svg>
