<svg xmlns="http://www.w3.org/2000/svg" xmlns:xlink="http://www.w3.org/1999/xlink" width="64" height="64" viewBox="0 0 64 64" version="1.1">
<defs> <linearGradient id="linear0" gradientUnits="userSpaceOnUse" x1="0" y1="0" x2="0" y2="1" gradientTransform="matrix(55.992188,0,0,56,4.003906,4)"> <stop offset="0" style="stop-color:#ff6666;stop-opacity:1;"/> <stop offset="1" style="stop-color:#d90000;stop-opacity:1;"/> </linearGradient> </defs>
<g id="surface1">
<path style=" stroke:none;fill-rule:nonzero;fill:url(#linear0);fill-opacity:1;" d="M 34.382812 3.171875 C 32.738281 3.171875 31.476562 3.4375 30.953125 4.015625 C 30.125 4.925781 28.21875 11.742188 25.84375 22.144531 C 24.121094 29.640625 25.316406 34.003906 26.492188 36.347656 C 27.988281 39.332031 29.152344 41.132812 26.785156 47.097656 C 25.070312 51.417969 23.316406 52.246094 21.691406 52.449219 C 17.769531 51.507812 14.808594 51.476562 14.421875 52.53125 C 13.894531 53.976562 18.371094 56.902344 24.410156 59.074219 C 30.449219 61.242188 35.789062 61.828125 36.316406 60.386719 C 36.703125 59.324219 34.390625 57.46875 30.753906 55.699219 C 29.160156 54.058594 27.722656 52.917969 28.988281 47.839844 C 31.464844 37.90625 35.234375 41.324219 39.6875 35.152344 C 43.460938 29.917969 44.457031 25.894531 46.644531 19.765625 C 48.960938 13.261719 49.980469 10.253906 49.679688 9.660156 C 47.660156 5.65625 39.3125 3.191406 34.382812 3.179688 M 34.726562 4.542969 C 36.558594 4.558594 38.894531 4.960938 40.789062 5.632812 C 44.84375 7.074219 48.507812 9.097656 48.296875 10.308594 C 47.753906 13.375 46.566406 15.875 46.265625 16.738281 C 42.296875 12.917969 37.195312 24.324219 29.023438 14.886719 C 29.023438 14.886719 30.585938 8.882812 31.664062 5.464844 C 31.867188 4.8125 33.101562 4.53125 34.726562 4.542969 "/>
</g>
</svg>
