<svg xmlns="http://www.w3.org/2000/svg" xmlns:xlink="http://www.w3.org/1999/xlink" width="64" height="64" viewBox="0 0 64 64" version="1.1">
<defs>
<filter id="alpha" filterUnits="objectBoundingBox" x="0%" y="0%" width="100%" height="100%">
  <feColorMatrix type="matrix" in="SourceGraphic" values="0 0 0 0 1 0 0 0 0 1 0 0 0 0 1 0 0 0 1 0"/>
</filter>
<mask id="mask0">
  <g filter="url(#alpha)">
<rect x="0" y="0" width="64" height="64" style="fill:rgb(0%,0%,0%);fill-opacity:0.6;stroke:none;"/>
  </g>
</mask>
<linearGradient id="linear0" gradientUnits="userSpaceOnUse" x1="0" y1="0" x2="0" y2="1" gradientTransform="matrix(57.601563,0,0,52.570312,0,11.429688)">
<stop offset="0" style="stop-color:#ff6666;stop-opacity:1;"/>
<stop offset="1" style="stop-color:#d90000;stop-opacity:1;"/>
</linearGradient>
<clipPath id="clip1">
  <rect x="0" y="0" width="64" height="64"/>
</clipPath>
<g id="surface5" clip-path="url(#clip1)">
<path style=" stroke:none;fill-rule:nonzero;fill:url(#linear0);" d="M 0 12.800781 L 0 45.714844 L 21.714844 45.714844 L 21.714844 64 L 52.621094 64 C 52.621094 64 55.757812 63.785156 57.421875 62.117188 L 57.601562 61.9375 L 57.601562 52.800781 L 36.570312 51.429688 L 36.570312 43.429688 L 35.199219 44.800781 L 35.199219 33.601562 L 16 32.226562 L 16 11.429688 Z M 0 12.800781 "/>
</g>
<linearGradient id="linear1" gradientUnits="userSpaceOnUse" x1="0" y1="0" x2="0" y2="1" gradientTransform="matrix(64,0,0,61.6875,0,1.15625)">
<stop offset="0" style="stop-color:#ff6666;stop-opacity:1;"/>
<stop offset="1" style="stop-color:#d90000;stop-opacity:1;"/>
</linearGradient>
</defs>
<g id="surface1">
<use xlink:href="#surface5" mask="url(#mask0)"/>
<path style=" stroke:none;fill-rule:evenodd;fill:url(#linear1);" d="M 55.621094 43.429688 L 46.476562 52.570312 L 56.445312 62.84375 C 56.796875 62.636719 57.132812 62.402344 57.421875 62.117188 L 61.902344 57.636719 C 64.011719 56.023438 64 52.800781 64 52.625 L 64 51.199219 Z M 34.285156 52.570312 L 34.285156 43.429688 L 43.429688 34.285156 L 43.429688 43.429688 L 55.621094 43.429688 L 46.476562 52.570312 Z M 25.902344 34.285156 L 34.285156 43.429688 L 43.429688 34.285156 L 35.046875 25.144531 L 22.855469 25.144531 L 22.855469 16 L 7.554688 1.15625 C 7.203125 1.363281 6.867188 1.597656 6.578125 1.882812 L 2.097656 6.363281 C -0.0117188 7.976562 0 11.199219 0 11.378906 L 0 12.800781 L 13.714844 25.144531 L 13.714844 34.285156 Z M 25.902344 34.285156 "/>
</g>
</svg>
