<svg xmlns="http://www.w3.org/2000/svg" xmlns:xlink="http://www.w3.org/1999/xlink" width="64" height="64" viewBox="0 0 64 64" version="1.1">
<defs>
<linearGradient id="linear0" gradientUnits="userSpaceOnUse" x1="0" y1="0" x2="0" y2="1" gradientTransform="matrix(64,0,0,59.734375,0,2.132812)">
<stop offset="0" style="stop-color:#ff6666;stop-opacity:1;"/>
<stop offset="1" style="stop-color:#d90000;stop-opacity:1;"/>
</linearGradient>
</defs>
<g id="surface1">
<path style=" stroke:none;fill-rule:evenodd;fill:url(#linear0);" d="M 47.949219 2.308594 C 49.742188 2.363281 51.257812 2.503906 52.527344 2.757812 C 52.71875 2.730469 52.828125 2.753906 52.84375 2.8125 C 62.378906 4.34375 64 9.441406 64 24.253906 L 64 39.753906 C 64 59.105469 61.230469 61.867188 41.859375 61.867188 L 22.140625 61.867188 C 2.769531 61.867188 0 59.105469 0 39.753906 L 0 24.253906 C 0 19.644531 0.15625 15.976562 0.703125 13.160156 C 0.226562 13.164062 0.238281 13.164062 0.261719 13.160156 C 1.4375 6.175781 4.550781 3.484375 12.257812 2.609375 C 12.738281 2.488281 13.371094 2.425781 14.144531 2.421875 C 15.378906 2.269531 16.847656 2.199219 18.46875 2.164062 C 19.324219 2.152344 20.171875 2.140625 21.078125 2.140625 C 21.414062 2.136719 21.777344 2.132812 22.140625 2.132812 L 21.761719 2.132812 C 21.519531 2.132812 21.285156 2.132812 21.078125 2.140625 C 20.148438 2.136719 19.285156 2.148438 47.949219 2.308594 Z M 41.476562 2.132812 L 41.859375 2.132812 C 43.199219 2.132812 44.460938 2.148438 45.671875 2.171875 C 46.488281 2.199219 47.292969 2.230469 41.476562 2.132812 Z M 4.710938 13.164062 C 4.695312 13.210938 4.6875 13.269531 4.679688 13.320312 C 4.398438 14.839844 4.238281 16.398438 4.160156 17.960938 C 4.039062 20.039062 4 22.121094 4 24.238281 L 4 39.761719 C 4 41.878906 4.039062 43.960938 4.160156 46.039062 C 4.238281 47.601562 4.398438 49.160156 4.679688 50.679688 C 4.839844 51.71875 5.160156 52.679688 5.558594 53.640625 C 5.839844 54.238281 6.199219 54.761719 6.640625 55.238281 C 7.078125 55.679688 7.640625 56.039062 8.238281 56.320312 C 9.160156 56.71875 10.160156 57 11.199219 57.199219 C 12.71875 57.480469 14.28125 57.640625 15.839844 57.71875 C 17.921875 57.839844 20.039062 57.878906 22.121094 57.878906 C 22.121094 57.878906 22.121094 57.878906 22.160156 57.878906 L 41.839844 57.878906 C 41.878906 57.878906 41.878906 57.878906 41.878906 57.878906 C 43.960938 57.878906 46.078125 57.839844 48.160156 57.71875 C 49.71875 57.640625 51.28125 57.480469 52.800781 57.199219 C 53.839844 57 54.839844 56.71875 55.761719 56.320312 C 56.359375 56.039062 56.921875 55.679688 57.359375 55.238281 C 57.800781 54.761719 58.160156 54.238281 58.441406 53.640625 C 58.839844 52.679688 59.160156 51.71875 59.320312 50.679688 C 59.601562 49.160156 59.761719 47.601562 59.839844 46.039062 C 59.960938 43.960938 60 41.878906 60 39.761719 L 60 24.238281 C 60 22.121094 59.960938 20.039062 59.839844 17.960938 C 59.761719 16.398438 59.601562 14.839844 59.320312 13.320312 C 59.296875 13.175781 59.273438 13.03125 59.230469 12.898438 C 55.269531 13.058594 6.761719 13.261719 4.710938 13.164062 Z M 4.710938 13.164062 "/>
</g>
</svg>
