<svg xmlns="http://www.w3.org/2000/svg" xmlns:xlink="http://www.w3.org/1999/xlink" width="64" height="64" viewBox="0 0 64 64" version="1.1">
<defs> <linearGradient id="linear0" gradientUnits="userSpaceOnUse" x1="0" y1="0" x2="0" y2="1" gradientTransform="matrix(55.992188,0,0,56,4.003906,4)"> <stop offset="0" style="stop-color:#ff6666;stop-opacity:1;"/> <stop offset="1" style="stop-color:#d90000;stop-opacity:1;"/> </linearGradient> </defs>
<g id="surface1">
<path style=" stroke:none;fill-rule:nonzero;fill:url(#linear0);fill-opacity:1;" d="M 31.640625 61.800781 C 30.113281 61.738281 28.523438 61.480469 27.199219 61.078125 C 26.9375 61 26.230469 60.75 26.230469 60.738281 C 26.230469 60.734375 26.15625 60.699219 26.058594 60.660156 C 22.890625 59.445312 20.066406 57.273438 17.894531 54.382812 C 16.9375 53.113281 16.109375 51.695312 15.46875 50.242188 C 15.429688 50.15625 15.398438 50.082031 15.394531 50.082031 C 15.386719 50.078125 15.148438 50.011719 14.980469 49.964844 C 14.230469 49.777344 13.535156 49.726562 12.878906 49.800781 C 11.445312 49.964844 10.261719 50.757812 9.304688 52.1875 C 8.699219 53.109375 8.210938 54.230469 7.796875 55.648438 C 7.722656 55.914062 7.664062 56.039062 7.566406 56.167969 C 7.25 56.59375 6.703125 56.757812 6.207031 56.585938 C 5.6875 56.414062 5.351562 55.890625 5.40625 55.355469 C 5.414062 55.230469 5.421875 55.21875 5.5 54.949219 C 6.320312 52.097656 7.589844 50 9.265625 48.75 C 10.105469 48.121094 11.03125 47.707031 12.066406 47.503906 C 12.792969 47.363281 13.554688 47.335938 14.390625 47.429688 C 14.441406 47.429688 14.445312 47.429688 14.441406 47.421875 C 14.421875 47.378906 14.296875 46.929688 14.242188 46.691406 C 13.742188 44.746094 13.507812 42.769531 13.53125 40.722656 C 13.535156 40.417969 13.542969 40.109375 13.542969 40.027344 L 13.546875 39.882812 L 13.421875 39.800781 C 12.730469 39.355469 12.09375 39.113281 11.367188 39.023438 C 10.378906 38.902344 9.285156 39.144531 8.152344 39.738281 C 7.238281 40.222656 6.335938 40.886719 5.347656 41.828125 C 5.082031 42.074219 5.023438 42.121094 4.894531 42.1875 C 4.707031 42.285156 4.550781 42.320312 4.34375 42.320312 C 4.125 42.320312 3.972656 42.285156 3.785156 42.1875 C 3.460938 42.023438 3.230469 41.714844 3.15625 41.347656 C 3.136719 41.246094 3.136719 40.988281 3.160156 40.894531 C 3.207031 40.691406 3.285156 40.519531 3.417969 40.363281 C 3.46875 40.300781 3.796875 39.984375 4.042969 39.761719 C 5.660156 38.304688 7.234375 37.355469 8.8125 36.902344 C 9.316406 36.753906 9.84375 36.65625 10.394531 36.617188 C 10.589844 36.601562 11.128906 36.601562 11.328125 36.617188 C 12.164062 36.679688 12.933594 36.871094 13.683594 37.21875 C 13.757812 37.246094 13.816406 37.273438 13.816406 37.269531 C 13.816406 37.242188 13.929688 36.625 13.984375 36.347656 C 14.347656 34.53125 14.910156 32.828125 15.699219 31.160156 C 15.746094 31.066406 15.804688 30.953125 15.824219 30.914062 L 15.863281 30.832031 L 15.785156 30.839844 C 15.660156 30.851562 15.074219 30.84375 14.898438 30.832031 C 14.28125 30.789062 13.710938 30.679688 13.152344 30.492188 C 12.113281 30.148438 11.214844 29.589844 10.394531 28.773438 C 9.113281 27.496094 8.128906 25.664062 7.4375 23.253906 C 7.398438 23.117188 7.363281 22.972656 7.351562 22.933594 C 7.339844 22.835938 7.339844 22.636719 7.351562 22.554688 C 7.421875 22.175781 7.652344 21.851562 7.988281 21.683594 C 8.164062 21.585938 8.335938 21.546875 8.539062 21.546875 C 8.863281 21.546875 9.140625 21.660156 9.367188 21.878906 C 9.550781 22.050781 9.636719 22.203125 9.726562 22.523438 C 10.3125 24.574219 11.09375 26.082031 12.101562 27.082031 C 12.828125 27.8125 13.679688 28.253906 14.632812 28.394531 C 15.472656 28.527344 16.375 28.441406 17.359375 28.136719 L 17.484375 28.097656 L 17.597656 27.9375 C 18.121094 27.203125 18.753906 26.425781 19.390625 25.761719 C 19.585938 25.554688 20.074219 25.070312 20.265625 24.894531 C 20.960938 24.253906 21.691406 23.667969 22.4375 23.160156 L 22.570312 23.066406 L 22.515625 22.921875 C 22.199219 22.085938 21.988281 21.171875 21.90625 20.273438 C 21.875 19.941406 21.867188 19.753906 21.867188 19.339844 C 21.867188 18.933594 21.875 18.765625 21.90625 18.425781 C 22.042969 16.914062 22.527344 15.445312 23.316406 14.132812 C 23.628906 13.613281 23.992188 13.125 24.433594 12.617188 C 24.609375 12.414062 25.121094 11.910156 25.332031 11.722656 C 26.007812 11.140625 26.671875 10.695312 27.457031 10.285156 C 27.5625 10.230469 27.65625 10.183594 27.65625 10.179688 C 27.65625 10.152344 27.363281 9.570312 27.246094 9.355469 C 26.457031 7.945312 25.390625 6.859375 24.082031 6.148438 C 23.652344 5.914062 23.082031 5.683594 22.617188 5.558594 L 22.507812 5.53125 L 22.425781 5.621094 C 22.136719 5.910156 21.789062 6.089844 21.378906 6.148438 C 21.253906 6.167969 21 6.167969 20.867188 6.148438 C 20.1875 6.050781 19.617188 5.582031 19.402344 4.929688 C 19.335938 4.722656 19.324219 4.632812 19.324219 4.359375 C 19.324219 4.140625 19.324219 4.109375 19.351562 4.003906 C 19.425781 3.652344 19.578125 3.363281 19.824219 3.117188 C 20.054688 2.871094 20.304688 2.726562 20.628906 2.628906 C 20.917969 2.542969 21.289062 2.542969 21.582031 2.617188 C 21.890625 2.703125 22.152344 2.851562 22.375 3.066406 C 22.601562 3.28125 22.75 3.515625 22.84375 3.792969 C 22.863281 3.863281 22.882812 3.925781 22.882812 3.949219 L 22.890625 3.976562 L 23.050781 4.019531 C 23.269531 4.078125 23.707031 4.222656 23.933594 4.316406 C 25.871094 5.089844 27.488281 6.542969 28.609375 8.503906 C 28.746094 8.738281 28.960938 9.167969 29.070312 9.410156 C 29.113281 9.519531 29.152344 9.601562 29.152344 9.601562 C 29.152344 9.601562 29.199219 9.589844 29.25 9.574219 C 29.527344 9.488281 30.035156 9.375 30.378906 9.3125 C 31.523438 9.117188 32.761719 9.109375 33.925781 9.304688 C 34.378906 9.382812 34.742188 9.46875 35.304688 9.632812 C 35.332031 9.640625 35.355469 9.648438 35.355469 9.640625 C 35.359375 9.640625 35.402344 9.546875 35.445312 9.4375 C 35.792969 8.664062 36.277344 7.859375 36.78125 7.214844 C 37.441406 6.378906 38.160156 5.71875 38.988281 5.164062 C 40.199219 4.359375 41.527344 3.890625 42.960938 3.753906 L 43.140625 3.742188 L 43.160156 3.679688 C 43.167969 3.652344 43.203125 3.578125 43.230469 3.523438 C 43.453125 3.082031 43.851562 2.742188 44.324219 2.601562 C 44.515625 2.542969 44.59375 2.535156 44.855469 2.535156 C 45.054688 2.535156 45.09375 2.539062 45.195312 2.554688 C 45.894531 2.699219 46.433594 3.210938 46.605469 3.890625 C 46.644531 4.058594 46.65625 4.152344 46.65625 4.335938 C 46.65625 4.519531 46.644531 4.625 46.601562 4.789062 C 46.46875 5.292969 46.117188 5.71875 45.652344 5.945312 C 45.402344 6.066406 45.203125 6.113281 44.917969 6.125 C 44.582031 6.128906 44.335938 6.085938 44.0625 5.949219 C 43.8125 5.832031 43.554688 5.621094 43.402344 5.40625 C 43.339844 5.320312 43.363281 5.328125 43.125 5.351562 C 41.226562 5.519531 39.523438 6.441406 38.210938 7.996094 C 37.878906 8.398438 37.542969 8.890625 37.269531 9.382812 C 37.171875 9.558594 36.972656 9.957031 36.894531 10.132812 L 36.84375 10.253906 L 36.953125 10.308594 C 38.160156 10.933594 39.261719 11.808594 40.136719 12.855469 C 41.121094 14.03125 41.824219 15.40625 42.191406 16.871094 C 42.359375 17.515625 42.449219 18.125 42.488281 18.792969 C 42.5 19.019531 42.5 19.679688 42.488281 19.902344 C 42.425781 21.003906 42.191406 22.066406 41.800781 23.050781 L 41.746094 23.199219 L 41.875 23.292969 C 42.476562 23.710938 43.160156 24.261719 43.777344 24.820312 C 44.027344 25.054688 44.726562 25.75 44.964844 26.015625 C 45.476562 26.574219 46.003906 27.21875 46.402344 27.769531 L 46.453125 27.835938 L 46.601562 27.898438 C 47.671875 28.339844 48.722656 28.53125 49.671875 28.457031 C 50.960938 28.363281 52.046875 27.773438 52.960938 26.675781 C 53.773438 25.703125 54.429688 24.328125 54.9375 22.558594 C 55.027344 22.242188 55.09375 22.105469 55.253906 21.941406 C 55.488281 21.699219 55.789062 21.570312 56.128906 21.570312 C 56.441406 21.570312 56.730469 21.683594 56.953125 21.890625 C 57.195312 22.128906 57.320312 22.417969 57.328125 22.75 C 57.328125 22.921875 57.316406 22.972656 57.21875 23.300781 C 56.539062 25.679688 55.554688 27.507812 54.277344 28.785156 C 53.191406 29.867188 51.933594 30.527344 50.484375 30.769531 C 50.070312 30.839844 49.75 30.859375 49.292969 30.859375 C 48.933594 30.859375 48.742188 30.855469 48.433594 30.820312 C 48.332031 30.808594 48.253906 30.804688 48.253906 30.804688 C 48.253906 30.808594 48.285156 30.890625 48.335938 30.992188 C 48.898438 32.152344 49.335938 33.296875 49.695312 34.539062 C 49.929688 35.351562 50.097656 36.105469 50.261719 37.027344 C 50.273438 37.097656 50.285156 37.128906 50.296875 37.128906 C 50.300781 37.128906 50.371094 37.097656 50.445312 37.066406 C 50.707031 36.941406 51.074219 36.804688 51.371094 36.71875 C 52.261719 36.464844 53.183594 36.398438 54.117188 36.511719 C 55.511719 36.6875 56.929688 37.269531 58.355469 38.253906 C 59.046875 38.734375 59.703125 39.265625 60.421875 39.949219 C 60.710938 40.222656 60.796875 40.328125 60.875 40.515625 C 61.144531 41.152344 60.820312 41.882812 60.160156 42.117188 C 60.03125 42.160156 59.929688 42.175781 59.769531 42.175781 C 59.566406 42.175781 59.410156 42.136719 59.234375 42.054688 C 59.105469 41.992188 59.015625 41.921875 58.777344 41.691406 C 57.714844 40.683594 56.753906 39.984375 55.773438 39.503906 C 54.679688 38.964844 53.664062 38.757812 52.699219 38.878906 C 52.011719 38.972656 51.359375 39.21875 50.707031 39.644531 L 50.5625 39.738281 L 50.570312 39.863281 C 50.671875 42.144531 50.445312 44.429688 49.90625 46.589844 C 49.832031 46.886719 49.746094 47.207031 49.679688 47.425781 C 49.660156 47.5 49.644531 47.5625 49.644531 47.566406 C 49.644531 47.574219 49.660156 47.574219 49.6875 47.566406 C 50.433594 47.464844 51.25 47.464844 51.9375 47.566406 C 53.601562 47.820312 55.039062 48.628906 56.214844 49.976562 C 57.269531 51.175781 58.109375 52.816406 58.730469 54.855469 C 58.832031 55.203125 58.867188 55.34375 58.878906 55.449219 C 58.929688 55.929688 58.671875 56.414062 58.242188 56.632812 C 57.644531 56.945312 56.902344 56.699219 56.613281 56.105469 C 56.5625 56.003906 56.550781 55.972656 56.449219 55.625 C 56.363281 55.316406 56.175781 54.773438 56.066406 54.476562 C 55.417969 52.777344 54.589844 51.542969 53.589844 50.789062 C 52.976562 50.328125 52.3125 50.042969 51.582031 49.9375 C 50.730469 49.808594 49.808594 49.902344 48.804688 50.21875 C 48.722656 50.246094 48.648438 50.269531 48.644531 50.277344 C 48.640625 50.28125 48.578125 50.40625 48.507812 50.558594 C 47.769531 52.152344 46.808594 53.691406 45.730469 55.007812 C 45.050781 55.847656 44.3125 56.617188 43.527344 57.3125 C 42.160156 58.527344 40.597656 59.539062 38.980469 60.273438 C 38.667969 60.417969 38.234375 60.589844 37.992188 60.683594 C 37.949219 60.699219 37.898438 60.722656 37.878906 60.726562 C 37.796875 60.765625 36.992188 61.0625 36.796875 61.128906 C 35.671875 61.503906 34.570312 61.707031 33.179688 61.789062 C 32.96875 61.808594 31.890625 61.8125 31.640625 61.800781 M 32.914062 60.203125 C 33.851562 60.160156 34.667969 60.046875 35.480469 59.84375 C 35.691406 59.792969 35.945312 59.71875 35.957031 59.714844 C 35.957031 59.710938 35.929688 59.566406 35.890625 59.394531 C 35.207031 56.445312 34.496094 52.679688 33.882812 48.765625 C 33.152344 44.101562 32.527344 39.015625 32.085938 34.078125 C 32.054688 33.800781 32.035156 33.582031 32.035156 33.585938 C 32.035156 33.597656 32.011719 33.859375 31.988281 34.164062 C 31.929688 34.910156 31.835938 36.0625 31.761719 36.863281 C 30.890625 46.71875 29.714844 54.335938 28.289062 59.433594 C 28.25 59.574219 28.222656 59.691406 28.222656 59.691406 C 28.226562 59.703125 28.476562 59.761719 28.683594 59.804688 C 29.652344 60.019531 30.699219 60.160156 31.675781 60.203125 C 31.941406 60.210938 32.667969 60.210938 32.914062 60.203125 M 41.3125 55.253906 C 41.539062 55.230469 41.785156 55.171875 42.003906 55.09375 C 42.152344 55.039062 42.429688 54.898438 42.574219 54.804688 C 42.753906 54.6875 42.878906 54.578125 43.039062 54.421875 C 43.425781 54.035156 43.679688 53.597656 43.8125 53.0625 C 43.902344 52.695312 43.914062 52.265625 43.851562 51.886719 C 43.636719 50.621094 42.601562 49.648438 41.320312 49.5 C 41.0625 49.46875 40.675781 49.484375 40.421875 49.535156 C 39.273438 49.753906 38.359375 50.660156 38.125 51.804688 C 38.09375 51.996094 38.074219 52.136719 38.074219 52.375 C 38.074219 52.644531 38.097656 52.828125 38.15625 53.0625 C 38.457031 54.304688 39.546875 55.207031 40.824219 55.269531 C 40.988281 55.277344 41.148438 55.277344 41.3125 55.253906 M 23.230469 55.144531 C 24.554688 55.03125 25.632812 54.046875 25.855469 52.742188 C 25.992188 51.921875 25.773438 51.089844 25.253906 50.441406 C 25.082031 50.230469 24.816406 49.988281 24.582031 49.835938 C 23.78125 49.316406 22.769531 49.21875 21.878906 49.574219 C 20.949219 49.953125 20.265625 50.800781 20.113281 51.792969 C 20.0625 52.089844 20.0625 52.425781 20.113281 52.71875 C 20.242188 53.539062 20.722656 54.261719 21.429688 54.710938 C 21.566406 54.792969 21.824219 54.917969 21.96875 54.976562 C 22.199219 55.0625 22.476562 55.121094 22.71875 55.144531 C 22.84375 55.15625 23.09375 55.15625 23.230469 55.144531 M 43.410156 46.140625 C 43.949219 46.078125 44.429688 45.921875 44.878906 45.671875 C 45.914062 45.097656 46.628906 44.082031 46.832031 42.933594 C 46.929688 42.359375 46.902344 41.769531 46.746094 41.210938 C 46.496094 40.300781 45.90625 39.492188 45.105469 38.972656 C 44.328125 38.46875 43.378906 38.253906 42.449219 38.378906 C 41.175781 38.535156 40.058594 39.320312 39.46875 40.464844 C 39.246094 40.894531 39.113281 41.324219 39.050781 41.820312 C 39.03125 42.023438 39.03125 42.496094 39.050781 42.6875 C 39.144531 43.417969 39.394531 44.042969 39.824219 44.613281 C 40.175781 45.085938 40.664062 45.492188 41.203125 45.757812 C 41.652344 45.984375 42.152344 46.121094 42.691406 46.164062 C 42.800781 46.171875 43.292969 46.160156 43.410156 46.140625 M 21.761719 46.113281 C 22.53125 46.035156 23.253906 45.730469 23.855469 45.238281 C 23.984375 45.128906 24.269531 44.847656 24.371094 44.722656 C 24.890625 44.089844 25.191406 43.355469 25.257812 42.554688 C 25.28125 42.3125 25.269531 41.917969 25.234375 41.675781 C 25.078125 40.566406 24.457031 39.582031 23.519531 38.964844 C 23.078125 38.671875 22.628906 38.484375 22.117188 38.382812 C 20.550781 38.078125 18.960938 38.726562 18.074219 40.050781 C 17.726562 40.566406 17.519531 41.132812 17.4375 41.765625 C 17.421875 41.929688 17.410156 42.339844 17.425781 42.523438 C 17.519531 43.660156 18.074219 44.675781 18.988281 45.355469 C 19.601562 45.8125 20.3125 46.074219 21.085938 46.128906 C 21.242188 46.140625 21.59375 46.128906 21.761719 46.113281 M 23.742188 35.171875 C 24.191406 35.136719 24.582031 35.023438 24.972656 34.824219 C 26.003906 34.3125 26.683594 33.304688 26.78125 32.160156 C 26.792969 31.992188 26.785156 31.617188 26.761719 31.460938 C 26.636719 30.5625 26.183594 29.785156 25.460938 29.242188 C 25.058594 28.945312 24.570312 28.730469 24.070312 28.644531 C 23.714844 28.578125 23.265625 28.578125 22.917969 28.640625 C 22.367188 28.730469 21.863281 28.960938 21.402344 29.316406 C 21.273438 29.417969 20.980469 29.714844 20.878906 29.847656 C 20.492188 30.339844 20.285156 30.851562 20.199219 31.472656 C 20.167969 31.648438 20.164062 31.996094 20.1875 32.191406 C 20.226562 32.609375 20.328125 32.964844 20.511719 33.34375 C 20.636719 33.585938 20.742188 33.757812 20.914062 33.972656 C 21.015625 34.097656 21.265625 34.34375 21.398438 34.445312 C 21.730469 34.71875 22.15625 34.9375 22.554688 35.050781 C 22.9375 35.160156 23.363281 35.203125 23.742188 35.171875 M 41.214844 35.132812 C 41.390625 35.101562 41.566406 35.070312 41.722656 35.023438 C 42.265625 34.871094 42.804688 34.542969 43.1875 34.140625 C 43.699219 33.605469 44.003906 32.949219 44.089844 32.207031 C 44.09375 32.144531 44.101562 31.992188 44.101562 31.863281 C 44.101562 31.726562 44.09375 31.574219 44.089844 31.511719 C 43.980469 30.578125 43.515625 29.765625 42.765625 29.210938 C 42.316406 28.875 41.808594 28.671875 41.214844 28.585938 C 41.046875 28.566406 40.550781 28.566406 40.382812 28.585938 C 39.988281 28.644531 39.675781 28.734375 39.34375 28.898438 C 38.429688 29.34375 37.769531 30.183594 37.558594 31.171875 C 37.507812 31.433594 37.496094 31.527344 37.496094 31.863281 C 37.496094 32.105469 37.503906 32.191406 37.511719 32.292969 C 37.617188 33.023438 37.929688 33.648438 38.429688 34.160156 C 38.808594 34.542969 39.222656 34.808594 39.722656 34.976562 C 39.984375 35.070312 40.210938 35.113281 40.558594 35.148438 C 40.652344 35.160156 41.113281 35.140625 41.214844 35.132812 M 32.316406 28.304688 C 32.898438 28.253906 33.429688 28.042969 33.882812 27.6875 C 34.007812 27.585938 34.242188 27.355469 34.34375 27.226562 C 35.132812 26.234375 35.191406 24.855469 34.488281 23.804688 C 34.378906 23.652344 34.277344 23.519531 34.125 23.375 C 33.863281 23.113281 33.582031 22.921875 33.261719 22.773438 C 32.554688 22.464844 31.765625 22.441406 31.027344 22.710938 C 30.789062 22.796875 30.460938 22.988281 30.246094 23.160156 C 30.136719 23.242188 29.882812 23.496094 29.796875 23.605469 C 29.472656 24.007812 29.269531 24.488281 29.1875 25.007812 C 29.164062 25.136719 29.164062 25.1875 29.164062 25.425781 C 29.164062 25.652344 29.164062 25.714844 29.1875 25.828125 C 29.273438 26.382812 29.488281 26.867188 29.835938 27.28125 C 29.925781 27.390625 30.128906 27.59375 30.234375 27.671875 C 30.6875 28.035156 31.222656 28.253906 31.800781 28.304688 C 31.929688 28.316406 32.191406 28.316406 32.316406 28.304688 "/>
</g>
</svg>
