<svg xmlns="http://www.w3.org/2000/svg" xmlns:xlink="http://www.w3.org/1999/xlink" width="64" height="64" viewBox="0 0 64 64" version="1.1">
<defs> <linearGradient id="linear0" gradientUnits="userSpaceOnUse" x1="0" y1="0" x2="0" y2="1" gradientTransform="matrix(55.992188,0,0,56,4.003906,4)"> <stop offset="0" style="stop-color:#ff6666;stop-opacity:1;"/> <stop offset="1" style="stop-color:#d90000;stop-opacity:1;"/> </linearGradient> </defs>
<g id="surface1">
<path style=" stroke:none;fill-rule:evenodd;fill:url(#linear0);fill-opacity:1;" d="M 19.886719 3.449219 C 16.585938 3.449219 13.929688 6.097656 13.929688 9.375 L 13.929688 35.046875 C 13.929688 38.328125 16.585938 40.949219 19.886719 40.949219 L 20.160156 40.949219 L 20.160156 54.046875 C 20.160156 57.84375 23.230469 60.898438 27.035156 60.898438 L 37.078125 60.898438 C 40.882812 60.898438 43.949219 57.84375 43.949219 54.046875 L 43.949219 40.949219 L 44.226562 40.949219 C 47.519531 40.949219 50.183594 38.328125 50.183594 35.046875 L 50.183594 9.375 C 50.183594 6.097656 47.519531 3.449219 44.226562 3.449219 L 19.886719 3.449219 M 32.042969 8.4375 C 40.285156 8.4375 46.976562 15.101562 46.976562 23.300781 C 46.976562 31.507812 40.285156 38.144531 32.042969 38.144531 C 23.804688 38.144531 17.136719 31.507812 17.136719 23.300781 C 17.136719 15.101562 23.804688 8.4375 32.042969 8.4375 M 39.886719 13.808594 L 35.277344 14.730469 C 32.730469 15.234375 30.449219 15.671875 30.199219 15.722656 L 29.734375 15.8125 L 29.710938 19.351562 L 29.710938 22.886719 L 29.921875 22.886719 C 30.027344 22.886719 32.3125 22.851562 34.996094 22.820312 C 37.683594 22.792969 39.886719 22.78125 39.886719 22.773438 C 39.894531 22.773438 39.894531 20.753906 39.886719 18.296875 Z M 28.8125 15.992188 C 28.789062 16 27.375 16.277344 25.648438 16.617188 L 22.515625 17.238281 L 22.515625 22.960938 L 22.863281 22.960938 C 23.050781 22.953125 24.378906 22.953125 25.816406 22.933594 C 27.246094 22.921875 28.53125 22.886719 28.648438 22.886719 L 28.859375 22.886719 L 28.859375 15.992188 L 28.8125 15.992188 M 22.515625 23.644531 L 22.515625 29.367188 L 22.539062 29.367188 C 22.566406 29.375 28.800781 30.601562 28.835938 30.605469 C 28.839844 30.613281 28.851562 29.058594 28.859375 27.164062 C 28.863281 25.269531 28.859375 23.710938 28.859375 23.710938 C 28.851562 23.710938 22.820312 23.644531 22.628906 23.644531 L 22.515625 23.644531 M 29.714844 23.734375 L 29.714844 27.253906 C 29.714844 29.191406 29.710938 30.789062 29.714844 30.792969 C 29.714844 30.792969 31.992188 31.230469 34.765625 31.777344 C 37.542969 32.324219 39.832031 32.789062 39.84375 32.789062 C 39.863281 32.789062 39.882812 32.550781 39.886719 30.375 C 39.894531 29.058594 39.886719 27.0625 39.886719 25.917969 L 39.886719 23.824219 L 39.84375 23.824219 C 39.8125 23.824219 37.628906 23.816406 34.976562 23.78125 C 32.324219 23.753906 30.0625 23.734375 29.945312 23.734375 Z M 24.472656 46.398438 L 30.085938 46.398438 L 30.085938 52.234375 L 24.472656 52.234375 Z M 34.027344 46.398438 L 39.636719 46.398438 L 39.636719 52.234375 L 34.027344 52.234375 Z M 34.027344 46.398438 "/>
</g>
</svg>
