<svg xmlns="http://www.w3.org/2000/svg" xmlns:xlink="http://www.w3.org/1999/xlink" width="64" height="64" viewBox="0 0 64 64" version="1.1">
<defs>
<linearGradient id="linear0" gradientUnits="userSpaceOnUse" x1="0" y1="0" x2="0" y2="1" gradientTransform="matrix(60,0,0,48.742187,2,7.257812)">
<stop offset="0" style="stop-color:#ff6666;stop-opacity:1;"/>
<stop offset="1" style="stop-color:#d90000;stop-opacity:1;"/>
</linearGradient>
</defs>
<g id="surface1">
<path style=" stroke:none;fill-rule:nonzero;fill:url(#linear0);" d="M 2 7.257812 L 2 40.34375 C 2 40.34375 1.984375 44.289062 4.382812 48.210938 C 6.78125 52.132812 11.800781 56 20.75 56 C 25.707031 56 29.234375 54.726562 32 53 C 34.765625 54.722656 38.296875 56 43.25 56 C 52.199219 56 57.21875 52.132812 59.617188 48.210938 C 62.015625 44.289062 62 40.34375 62 40.34375 L 62 7.257812 L 58.25 7.257812 L 58.25 40.34375 C 58.25 40.34375 58.234375 43.285156 56.414062 46.257812 C 54.59375 49.230469 51.175781 52.25 43.25 52.25 C 39.445312 52.25 36.785156 51.496094 34.734375 50.445312 C 35.472656 49.667969 36.617188 49.027344 37.117188 48.210938 C 39.515625 44.289062 39.5 40.34375 39.5 40.34375 L 39.5 15.523438 C 39.5 15.523438 39.527344 13.589844 38.640625 11.570312 C 37.753906 9.550781 35.523438 7.257812 32 7.257812 C 28.476562 7.257812 26.246094 9.550781 25.359375 11.570312 C 24.472656 13.589844 24.5 15.523438 24.5 15.523438 L 24.5 40.34375 C 24.5 40.34375 24.484375 44.289062 26.882812 48.210938 C 27.382812 49.027344 28.527344 49.667969 29.265625 50.445312 C 27.214844 51.496094 24.554688 52.25 20.75 52.25 C 12.824219 52.25 9.40625 49.230469 7.585938 46.257812 C 5.765625 43.285156 5.75 40.34375 5.75 40.34375 L 5.75 7.257812 Z M 32 11.007812 C 34.101562 11.007812 34.683594 11.910156 35.203125 13.085938 C 35.722656 14.261719 35.75 15.523438 35.75 15.523438 L 35.75 40.34375 C 35.75 40.34375 35.734375 43.285156 33.914062 46.257812 C 33.507812 46.921875 32.597656 47.460938 32 48.09375 C 31.402344 47.460938 30.492188 46.921875 30.085938 46.257812 C 28.265625 43.285156 28.25 40.34375 28.25 40.34375 L 28.25 15.523438 C 28.25 15.523438 28.277344 14.261719 28.796875 13.085938 C 29.316406 11.910156 29.898438 11.007812 32 11.007812 Z M 32 11.007812 "/>
</g>
</svg>
