<svg xmlns="http://www.w3.org/2000/svg" xmlns:xlink="http://www.w3.org/1999/xlink" width="64" height="64" viewBox="0 0 64 64" version="1.1">
<defs>
<linearGradient id="linear0" gradientUnits="userSpaceOnUse" x1="0" y1="0" x2="0" y2="1" gradientTransform="matrix(64,0,0,37.921875,0,13.039062)">
<stop offset="0" style="stop-color:#ff6666;stop-opacity:1;"/>
<stop offset="1" style="stop-color:#d90000;stop-opacity:1;"/>
</linearGradient>
</defs>
<g id="surface1">
<path style=" stroke:none;fill-rule:nonzero;fill:url(#linear0);" d="M 48.09375 13.039062 C 48.085938 13.042969 48.078125 13.042969 48.070312 13.046875 C 32.707031 13.289062 23.96875 22.441406 19.453125 31.265625 C 15.699219 38.605469 14.839844 44.722656 14.578125 46.960938 L 0 46.960938 L 0 50.960938 L 16.265625 50.960938 C 17.3125 50.964844 18.183594 50.160156 18.265625 49.117188 C 18.265625 49.117188 18.914062 41.101562 23.015625 33.085938 C 26.78125 25.722656 33.402344 18.804688 45.140625 17.515625 C 38.203125 32.683594 45.695312 49.796875 45.695312 49.796875 C 46.019531 50.503906 46.726562 50.960938 47.507812 50.960938 L 64 50.960938 L 64 46.960938 L 49.007812 46.960938 C 48.246094 45.175781 41.550781 29 49.78125 16.117188 C 50.175781 15.5 50.203125 14.71875 49.851562 14.078125 C 49.5 13.4375 48.824219 13.039062 48.09375 13.039062 Z M 48.09375 13.039062 "/>
</g>
</svg>
