<svg xmlns="http://www.w3.org/2000/svg" xmlns:xlink="http://www.w3.org/1999/xlink" width="64" height="64" viewBox="0 0 64 64" version="1.1">
<defs>
<filter id="alpha" filterUnits="objectBoundingBox" x="0%" y="0%" width="100%" height="100%">
  <feColorMatrix type="matrix" in="SourceGraphic" values="0 0 0 0 1 0 0 0 0 1 0 0 0 0 1 0 0 0 1 0"/>
</filter>
<mask id="mask0">
  <g filter="url(#alpha)">
<rect x="0" y="0" width="64" height="64" style="fill:rgb(0%,0%,0%);fill-opacity:0.7;stroke:none;"/>
  </g>
</mask>
<linearGradient id="linear0" gradientUnits="userSpaceOnUse" x1="0" y1="0" x2="0" y2="1" gradientTransform="matrix(55.03125,0,0,55.03125,4.484375,4.484375)">
<stop offset="0" style="stop-color:#ff6666;stop-opacity:1;"/>
<stop offset="1" style="stop-color:#d90000;stop-opacity:1;"/>
</linearGradient>
<clipPath id="clip1">
  <rect x="0" y="0" width="64" height="64"/>
</clipPath>
<g id="surface5" clip-path="url(#clip1)">
<path style=" stroke:none;fill-rule:nonzero;fill:url(#linear0);" d="M 32 4.484375 C 22.324219 4.484375 13.8125 9.484375 8.910156 17.042969 C 12.035156 17.007812 15.390625 16.96875 18.734375 16.792969 C 18.878906 16.785156 18.992188 16.914062 18.992188 17.066406 L 18.992188 18.714844 C 18.992188 18.867188 18.878906 18.992188 18.734375 18.992188 L 15.542969 18.992188 C 15.183594 18.992188 15.042969 19.207031 15.167969 19.574219 L 25.160156 49.007812 L 31.234375 30.648438 L 27.191406 19.601562 C 27.046875 19.199219 26.871094 18.992188 26.25 18.992188 L 23.457031 18.992188 C 23.3125 18.992188 23.191406 18.867188 23.191406 18.714844 L 23.191406 17.066406 C 23.191406 16.914062 23.3125 16.785156 23.457031 16.792969 C 28.660156 17.023438 33.890625 17.023438 39.160156 16.792969 C 39.304688 16.785156 39.425781 16.914062 39.425781 17.066406 L 39.425781 18.714844 C 39.425781 18.867188 39.304688 18.992188 39.160156 18.992188 L 36.375 18.992188 C 35.824219 18.992188 35.648438 19.242188 35.800781 19.691406 L 45.640625 48.667969 L 49.25 37.675781 C 53.617188 24.382812 45.515625 22.976562 45.71875 16.367188 C 45.816406 13.097656 48.214844 11.679688 50.617188 11.742188 C 45.71875 7.238281 39.179688 4.484375 32 4.484375 Z M 56.199219 18.898438 C 56.351562 22.992188 55.121094 28.070312 53.792969 31.832031 L 45.207031 56.140625 C 53.734375 51.464844 59.515625 42.410156 59.515625 32 C 59.515625 27.257812 58.3125 22.796875 56.199219 18.898438 Z M 6.957031 20.589844 C 5.371094 24.066406 4.484375 27.929688 4.484375 32 C 4.484375 42.980469 10.921875 52.460938 20.226562 56.875 Z M 32.476562 34.042969 L 24 58.332031 C 26.53125 59.101562 29.21875 59.515625 32 59.515625 C 35.230469 59.515625 38.335938 58.957031 41.21875 57.933594 Z M 32.476562 34.042969 "/>
</g>
<linearGradient id="linear1" gradientUnits="userSpaceOnUse" x1="0" y1="0" x2="0" y2="1" gradientTransform="matrix(64,0,0,64,0,0)">
<stop offset="0" style="stop-color:#ff6666;stop-opacity:1;"/>
<stop offset="1" style="stop-color:#d90000;stop-opacity:1;"/>
</linearGradient>
</defs>
<g id="surface1">
<use xlink:href="#surface5" mask="url(#mask0)"/>
<path style=" stroke:none;fill-rule:nonzero;fill:url(#linear1);" d="M 32 0 C 14.328125 0 0 14.332031 0 32 C 0 49.671875 14.328125 64 32 64 C 49.671875 64 64 49.671875 64 32 C 64 14.332031 49.671875 0 32 0 Z M 32 1.902344 C 48.621094 1.902344 62.097656 15.378906 62.097656 32 C 62.097656 48.621094 48.621094 62.097656 32 62.097656 C 15.378906 62.097656 1.902344 48.621094 1.902344 32 C 1.902344 15.378906 15.378906 1.902344 32 1.902344 Z M 32 1.902344 "/>
</g>
</svg>
