<svg xmlns="http://www.w3.org/2000/svg" xmlns:xlink="http://www.w3.org/1999/xlink" width="64" height="64" viewBox="0 0 64 64" version="1.1">
<defs>
<linearGradient id="linear0" gradientUnits="userSpaceOnUse" x1="0" y1="0" x2="0" y2="1" gradientTransform="matrix(40,0,0,32,0,8)">
<stop offset="0" style="stop-color:#ff6666;stop-opacity:1;"/>
<stop offset="1" style="stop-color:#d90000;stop-opacity:1;"/>
</linearGradient>
<filter id="alpha" filterUnits="objectBoundingBox" x="0%" y="0%" width="100%" height="100%">
  <feColorMatrix type="matrix" in="SourceGraphic" values="0 0 0 0 1 0 0 0 0 1 0 0 0 0 1 0 0 0 1 0"/>
</filter>
<mask id="mask0">
  <g filter="url(#alpha)">
<rect x="0" y="0" width="64" height="64" style="fill:rgb(0%,0%,0%);fill-opacity:0.6;stroke:none;"/>
  </g>
</mask>
<linearGradient id="linear1" gradientUnits="userSpaceOnUse" x1="0" y1="0" x2="0" y2="1" gradientTransform="matrix(52,0,0,40,12,20)">
<stop offset="0" style="stop-color:#ff6666;stop-opacity:1;"/>
<stop offset="1" style="stop-color:#d90000;stop-opacity:1;"/>
</linearGradient>
<clipPath id="clip1">
  <rect x="0" y="0" width="64" height="64"/>
</clipPath>
<g id="surface5" clip-path="url(#clip1)">
<path style=" stroke:none;fill-rule:nonzero;fill:url(#linear1);" d="M 27.976562 60 C 22.945312 59.941406 19.261719 60.125 16.253906 58.460938 C 14.742188 57.632812 13.554688 56.222656 12.898438 54.46875 C 12.238281 52.714844 12 50.632812 12 48 L 12 44 L 16 44 L 16 48 C 16 50.367188 16.253906 52.023438 16.640625 53.0625 C 17.03125 54.105469 17.449219 54.546875 18.179688 54.953125 C 19.644531 55.761719 22.964844 55.941406 28 56 L 48 56 C 53.035156 55.941406 56.347656 55.761719 57.8125 54.953125 C 58.546875 54.546875 58.96875 54.105469 59.359375 53.0625 C 59.746094 52.023438 60 50.367188 60 48 L 60 32 C 60 29.632812 59.746094 27.976562 59.359375 26.9375 C 58.96875 25.894531 58.550781 25.453125 57.820312 25.046875 C 56.351562 24.234375 53.03125 24.058594 47.976562 24 L 44 24 L 44 20 L 48.023438 20 C 53.054688 20.058594 56.738281 19.875 59.753906 21.539062 C 61.257812 22.367188 62.445312 23.777344 63.101562 25.53125 C 63.761719 27.285156 64 29.367188 64 32 L 64 48 C 64 50.632812 63.761719 52.714844 63.101562 54.46875 C 62.445312 56.222656 61.257812 57.632812 59.753906 58.460938 C 56.738281 60.125 53.054688 59.941406 48.023438 60 Z M 27.976562 60 "/>
</g>
</defs>
<g id="surface1">
<path style=" stroke:none;fill-rule:nonzero;fill:url(#linear0);" d="M 15.976562 40 C 10.945312 39.941406 7.261719 40.125 4.253906 38.460938 C 2.742188 37.632812 1.554688 36.222656 0.898438 34.46875 C 0.238281 32.714844 0 30.632812 0 28 L 0 20 C 0 17.367188 0.238281 15.285156 0.898438 13.53125 C 1.554688 11.777344 2.742188 10.367188 4.253906 9.539062 C 7.261719 7.875 10.945312 8.058594 15.976562 8 L 24.023438 8 C 29.054688 8.058594 32.738281 7.875 35.753906 9.539062 C 37.257812 10.367188 38.445312 11.777344 39.105469 13.53125 C 39.761719 15.285156 40 17.367188 40 20 L 40 28 C 40 30.632812 39.761719 32.714844 39.101562 34.46875 C 38.445312 36.222656 37.257812 37.632812 35.753906 38.460938 C 32.738281 40.125 29.054688 39.941406 24.023438 40 Z M 16 36 L 24 36 C 29.035156 35.941406 32.347656 35.761719 33.8125 34.953125 C 34.546875 34.546875 34.96875 34.105469 35.359375 33.0625 C 35.746094 32.023438 36 30.367188 36 28 L 36 20 C 36 17.632812 35.746094 15.976562 35.359375 14.9375 C 34.96875 13.894531 34.550781 13.453125 33.820312 13.046875 C 32.355469 12.238281 29.035156 12.058594 24 12 L 16 12 C 10.964844 12.058594 7.644531 12.238281 6.179688 13.046875 C 5.449219 13.453125 5.03125 13.894531 4.640625 14.9375 C 4.253906 15.976562 4 17.632812 4 20 L 4 28 C 4 30.367188 4.253906 32.023438 4.640625 33.0625 C 5.03125 34.105469 5.449219 34.546875 6.179688 34.953125 C 7.644531 35.761719 10.964844 35.941406 16 36 Z M 16 36 "/>
<use xlink:href="#surface5" mask="url(#mask0)"/>
</g>
</svg>
