<svg xmlns="http://www.w3.org/2000/svg" xmlns:xlink="http://www.w3.org/1999/xlink" width="64" height="64" viewBox="0 0 64 64" version="1.1">
<defs>
<linearGradient id="linear0" gradientUnits="userSpaceOnUse" x1="0" y1="0" x2="0" y2="1" gradientTransform="matrix(40,0,0,32,24,28)">
<stop offset="0" style="stop-color:#ff6666;stop-opacity:1;"/>
<stop offset="1" style="stop-color:#d90000;stop-opacity:1;"/>
</linearGradient>
<filter id="alpha" filterUnits="objectBoundingBox" x="0%" y="0%" width="100%" height="100%">
  <feColorMatrix type="matrix" in="SourceGraphic" values="0 0 0 0 1 0 0 0 0 1 0 0 0 0 1 0 0 0 1 0"/>
</filter>
<mask id="mask0">
  <g filter="url(#alpha)">
<rect x="0" y="0" width="64" height="64" style="fill:rgb(0%,0%,0%);fill-opacity:0.6;stroke:none;"/>
  </g>
</mask>
<linearGradient id="linear1" gradientUnits="userSpaceOnUse" x1="0" y1="0" x2="0" y2="1" gradientTransform="matrix(52,0,0,40,0,8)">
<stop offset="0" style="stop-color:#ff6666;stop-opacity:1;"/>
<stop offset="1" style="stop-color:#d90000;stop-opacity:1;"/>
</linearGradient>
<clipPath id="clip1">
  <rect x="0" y="0" width="64" height="64"/>
</clipPath>
<g id="surface5" clip-path="url(#clip1)">
<path style=" stroke:none;fill-rule:nonzero;fill:url(#linear1);" d="M 36.023438 8 C 41.054688 8.058594 44.738281 7.875 47.753906 9.539062 C 49.257812 10.367188 50.445312 11.777344 51.101562 13.53125 C 51.761719 15.285156 52 17.367188 52 20 L 52 24 L 48 24 L 48 20 C 48 17.632812 47.746094 15.976562 47.359375 14.9375 C 46.96875 13.894531 46.550781 13.453125 45.820312 13.046875 C 44.355469 12.238281 41.035156 12.058594 36 12 L 16 12 C 10.964844 12.058594 7.652344 12.238281 6.1875 13.046875 C 5.453125 13.453125 5.03125 13.894531 4.640625 14.9375 C 4.253906 15.976562 4 17.632812 4 20 L 4 36 C 4 38.367188 4.253906 40.023438 4.640625 41.0625 C 5.03125 42.105469 5.449219 42.546875 6.179688 42.953125 C 7.648438 43.765625 10.96875 43.941406 16.023438 44 L 20 44 L 20 48 L 15.976562 48 C 10.945312 47.941406 7.261719 48.125 4.246094 46.460938 C 2.742188 45.632812 1.554688 44.222656 0.898438 42.46875 C 0.238281 40.714844 0 38.632812 0 36 L 0 20 C 0 17.367188 0.238281 15.285156 0.898438 13.53125 C 1.554688 11.777344 2.742188 10.367188 4.253906 9.539062 C 7.261719 7.875 10.945312 8.058594 15.976562 8 Z M 36.023438 8 "/>
</g>
</defs>
<g id="surface1">
<path style=" stroke:none;fill-rule:nonzero;fill:url(#linear0);" d="M 48.023438 28 C 53.054688 28.058594 56.738281 27.875 59.753906 29.539062 C 61.257812 30.367188 62.445312 31.777344 63.101562 33.53125 C 63.761719 35.285156 64 37.367188 64 40 L 64 48 C 64 50.632812 63.761719 52.714844 63.101562 54.46875 C 62.445312 56.222656 61.257812 57.632812 59.753906 58.460938 C 56.738281 60.125 53.054688 59.941406 48.023438 60 L 39.976562 60 C 34.945312 59.941406 31.261719 60.125 28.246094 58.460938 C 26.742188 57.632812 25.554688 56.222656 24.894531 54.46875 C 24.238281 52.714844 24 50.632812 24 48 L 24 40 C 24 37.367188 24.238281 35.285156 24.898438 33.53125 C 25.554688 31.777344 26.742188 30.367188 28.253906 29.539062 C 31.261719 27.875 34.945312 28.058594 39.976562 28 Z M 48 32 L 40 32 C 34.964844 32.058594 31.652344 32.238281 30.1875 33.046875 C 29.453125 33.453125 29.03125 33.894531 28.640625 34.9375 C 28.253906 35.976562 28 37.632812 28 40 L 28 48 C 28 50.367188 28.253906 52.023438 28.640625 53.0625 C 29.03125 54.105469 29.449219 54.546875 30.179688 54.953125 C 31.644531 55.761719 34.964844 55.941406 40 56 L 48 56 C 53.035156 55.941406 56.355469 55.761719 57.820312 54.953125 C 58.550781 54.546875 58.96875 54.105469 59.359375 53.0625 C 59.746094 52.023438 60 50.367188 60 48 L 60 40 C 60 37.632812 59.746094 35.976562 59.359375 34.9375 C 58.96875 33.894531 58.550781 33.453125 57.820312 33.046875 C 56.355469 32.238281 53.035156 32.058594 48 32 Z M 48 32 "/>
<use xlink:href="#surface5" mask="url(#mask0)"/>
</g>
</svg>
