<svg xmlns="http://www.w3.org/2000/svg" xmlns:xlink="http://www.w3.org/1999/xlink" width="64" height="64" viewBox="0 0 64 64" version="1.1">
<defs>
<linearGradient id="linear0" gradientUnits="userSpaceOnUse" x1="0" y1="0" x2="0" y2="1" gradientTransform="matrix(64,0,0,64,0,0)">
<stop offset="0" style="stop-color:#ff6666;stop-opacity:1;"/>
<stop offset="1" style="stop-color:#d90000;stop-opacity:1;"/>
</linearGradient>
</defs>
<g id="surface1">
<path style=" stroke:none;fill-rule:nonzero;fill:url(#linear0);" d="M 32 0 C 29.316406 0 27.121094 1.488281 25.675781 3.519531 C 24.726562 3.113281 23.777344 2.667969 22.667969 2.667969 C 19.671875 2.667969 17.132812 4.378906 15.765625 6.832031 C 15.398438 6.773438 15.066406 6.667969 14.667969 6.667969 C 10.269531 6.667969 6.667969 10.269531 6.667969 14.667969 C 6.667969 14.867188 6.71875 15.046875 6.730469 15.242188 C 3.621094 16.339844 1.332031 19.191406 1.332031 22.667969 C 1.332031 24.09375 1.804688 25.367188 2.460938 26.519531 C 1.03125 27.960938 0 29.8125 0 32 C 0 34.480469 1.273438 36.554688 3.039062 38.019531 C 2.867188 38.660156 2.667969 39.292969 2.667969 40 C 2.667969 43.472656 4.953125 46.328125 8.066406 47.421875 C 8.050781 47.621094 8 47.796875 8 48 C 8 52.398438 11.601562 56 16 56 L 16.019531 56 C 17.429688 58.308594 19.777344 60 22.667969 60 C 23.488281 60 24.1875 59.683594 24.921875 59.445312 C 26.21875 62.105469 28.847656 64 32 64 C 35.152344 64 37.78125 62.105469 39.078125 59.445312 C 39.8125 59.683594 40.511719 60 41.332031 60 C 44.222656 60 46.570312 58.308594 47.980469 56 L 48 56 C 52.398438 56 56 52.398438 56 48 C 56 47.796875 55.949219 47.621094 55.933594 47.421875 C 59.042969 46.328125 61.332031 43.476562 61.332031 40 C 61.332031 39.292969 61.132812 38.660156 60.960938 38.019531 C 62.726562 36.554688 64 34.480469 64 32 C 64 29.8125 62.96875 27.960938 61.539062 26.519531 C 62.195312 25.367188 62.667969 24.09375 62.667969 22.667969 C 62.667969 19.671875 60.953125 17.132812 58.5 15.765625 C 58.5625 15.398438 58.667969 15.066406 58.667969 14.667969 C 58.667969 10.269531 55.066406 6.667969 50.667969 6.667969 C 50.269531 6.667969 49.933594 6.773438 49.566406 6.832031 C 48.203125 4.378906 45.660156 2.667969 42.667969 2.667969 C 41.195312 2.667969 39.898438 3.175781 38.726562 3.863281 C 37.324219 1.578125 34.875 0 32 0 Z M 32 2.667969 C 34.3125 2.667969 36.234375 4.132812 36.984375 6.175781 L 37.667969 8.019531 L 39.132812 6.707031 C 40.097656 5.824219 41.355469 5.335938 42.667969 5.332031 C 44.871094 5.332031 46.84375 6.695312 47.625 8.757812 L 48.0625 9.882812 L 49.226562 9.5625 C 49.730469 9.421875 50.203125 9.332031 50.667969 9.332031 C 53.625 9.332031 56 11.707031 56 14.667969 C 56 15.132812 55.910156 15.601562 55.773438 16.105469 L 55.453125 17.273438 L 56.578125 17.707031 C 58.640625 18.488281 60 20.464844 60 22.667969 C 60 23.867188 59.589844 24.960938 58.898438 25.863281 L 58.09375 26.9375 L 59.167969 27.734375 C 60.484375 28.71875 61.332031 30.242188 61.332031 32 C 61.332031 33.90625 60.332031 35.550781 58.832031 36.5 L 57.910156 37.085938 L 58.296875 38.105469 C 58.53125 38.710938 58.667969 39.34375 58.667969 40 C 58.671875 42.585938 56.8125 44.796875 54.269531 45.234375 L 52.890625 45.480469 L 53.191406 46.839844 C 53.28125 47.226562 53.332031 47.617188 53.332031 48 C 53.332031 50.960938 50.960938 53.332031 48 53.332031 C 48.011719 53.332031 47.878906 53.308594 47.5625 53.289062 L 46.617188 53.210938 L 46.238281 54.089844 C 45.402344 56.054688 43.472656 57.335938 41.332031 57.332031 C 40.484375 57.332031 39.691406 57.121094 38.953125 56.742188 L 37.535156 56.023438 L 37.070312 57.539062 C 36.40625 59.734375 34.410156 61.332031 32 61.332031 C 29.589844 61.332031 27.59375 59.730469 26.929688 57.539062 L 26.464844 56.027344 L 25.046875 56.742188 C 24.3125 57.128906 23.496094 57.328125 22.667969 57.332031 C 20.527344 57.335938 18.597656 56.054688 17.761719 54.089844 L 17.386719 53.210938 L 16.4375 53.289062 C 16.292969 53.292969 16.144531 53.308594 16 53.332031 C 13.039062 53.332031 10.667969 50.960938 10.667969 48 C 10.667969 47.613281 10.71875 47.226562 10.804688 46.839844 L 11.109375 45.480469 L 9.734375 45.234375 C 7.1875 44.796875 5.328125 42.585938 5.332031 40 C 5.332031 39.34375 5.46875 38.710938 5.695312 38.105469 L 6.09375 37.085938 L 5.167969 36.5 C 3.613281 35.53125 2.667969 33.832031 2.667969 32 C 2.667969 30.242188 3.515625 28.71875 4.832031 27.730469 L 5.90625 26.9375 L 5.09375 25.863281 C 4.386719 24.949219 4.003906 23.824219 4 22.667969 C 3.996094 20.085938 5.851562 17.871094 8.398438 17.433594 L 9.777344 17.1875 L 9.46875 15.828125 C 9.382812 15.449219 9.335938 15.054688 9.332031 14.667969 C 9.332031 11.707031 11.707031 9.332031 14.667969 9.332031 C 15.132812 9.332031 15.601562 9.421875 16.105469 9.5625 L 17.273438 9.882812 L 17.707031 8.757812 C 18.488281 6.695312 20.464844 5.332031 22.667969 5.332031 C 23.660156 5.332031 24.585938 5.625 25.398438 6.117188 L 26.625 6.855469 L 27.277344 5.585938 C 28.167969 3.855469 29.929688 2.667969 32 2.667969 Z M 22.667969 20 C 22.667969 20 23.332031 24 17.332031 24 C 15.070312 24.019531 10.667969 24.472656 10.667969 25.332031 C 10.667969 29.253906 13.796875 30.605469 18.386719 30.65625 C 20.65625 39.65625 26.300781 52 32 52 C 37.710938 52 43.375 39.59375 45.632812 30.585938 C 45.992188 30.636719 46.332031 30.667969 46.667969 30.667969 C 51.414062 30.667969 54.667969 29.332031 54.667969 25.332031 C 54.667969 24.472656 50.261719 24 48 24 C 47.53125 24 47.109375 24.015625 46.667969 24.027344 L 46.667969 24 C 41.5 24 41.332031 20 41.332031 20 C 41.332031 20 37.332031 26.667969 32 20 C 26.667969 26.667969 22.667969 20 22.667969 20 Z M 24.003906 29.355469 C 24.019531 30.085938 24.605469 30.667969 25.332031 30.667969 C 26.058594 30.664062 26.652344 30.078125 26.660156 29.355469 C 27.460938 29.421875 28 29.683594 28 30.667969 C 28 32.140625 26.808594 33.332031 25.332031 33.332031 C 23.859375 33.332031 22.667969 32.140625 22.667969 30.667969 C 22.667969 29.683594 23.207031 29.421875 24.003906 29.355469 Z M 37.339844 29.355469 C 37.355469 30.085938 37.941406 30.667969 38.667969 30.667969 C 39.390625 30.664062 39.984375 30.078125 39.996094 29.355469 C 40.792969 29.421875 41.332031 29.683594 41.332031 30.667969 C 41.332031 32.140625 40.140625 33.332031 38.667969 33.332031 C 37.191406 33.332031 36 32.140625 36 30.667969 C 36 29.683594 36.539062 29.421875 37.339844 29.355469 Z M 30.667969 44 L 33.332031 44 C 34.070312 44 34.667969 44.59375 34.667969 45.332031 C 34.667969 46.070312 34.070312 46.667969 33.332031 46.667969 L 30.667969 46.667969 C 29.929688 46.667969 29.332031 46.070312 29.332031 45.332031 C 29.332031 44.59375 29.929688 44 30.667969 44 Z M 30.667969 44 "/>
</g>
</svg>
