<svg xmlns="http://www.w3.org/2000/svg" xmlns:xlink="http://www.w3.org/1999/xlink" width="64" height="64" viewBox="0 0 64 64" version="1.1">
<defs> <linearGradient id="linear0" gradientUnits="userSpaceOnUse" x1="0" y1="0" x2="0" y2="1" gradientTransform="matrix(55.992188,0,0,56,4.003906,4)"> <stop offset="0" style="stop-color:#ff6666;stop-opacity:1;"/> <stop offset="1" style="stop-color:#d90000;stop-opacity:1;"/> </linearGradient> </defs>
<g id="surface1">
<path style="fill:none;stroke-width:1.457;stroke-linecap:butt;stroke-linejoin:miter;stroke:url(#linear0);stroke-opacity:1;stroke-miterlimit:4;" d="M 118.101811 149.816429 L 247.373137 149.816429 L 247.373137 246.343787 L 118.101811 246.343787 Z M 118.101811 149.816429 " transform="matrix(0.181728,0,0,0.180972,-14.466283,-14.155549)"/>
<path style="fill:none;stroke-width:1.457;stroke-linecap:butt;stroke-linejoin:miter;stroke:url(#linear0);stroke-opacity:1;stroke-miterlimit:4;" d="M 264.633675 149.816429 L 264.633675 246.343787 L 393.905001 246.343787 L 393.905001 149.816429 Z M 273.253196 159.464848 L 385.285479 159.464848 L 385.285479 236.695368 L 273.253196 236.695368 Z M 273.253196 159.464848 " transform="matrix(0.181728,0,0,0.180972,-14.466283,-14.155549)"/>
<path style="fill:none;stroke-width:1.457;stroke-linecap:butt;stroke-linejoin:miter;stroke:url(#linear0);stroke-opacity:1;stroke-miterlimit:4;" d="M 118.101811 265.66221 L 247.373137 265.66221 L 247.373137 362.189568 L 118.101811 362.189568 Z M 118.101811 265.66221 " transform="matrix(0.181728,0,0,0.180972,-14.466283,-14.155549)"/>
<path style="fill:none;stroke-width:1.457;stroke-linecap:butt;stroke-linejoin:miter;stroke:url(#linear0);stroke-opacity:1;stroke-miterlimit:4;" d="M 264.633675 265.66221 L 393.905001 265.66221 L 393.905001 362.189568 L 264.633675 362.189568 Z M 264.633675 265.66221 " transform="matrix(0.181728,0,0,0.180972,-14.466283,-14.155549)"/>
<path style="fill-rule:nonzero;fill:url(#linear0);fill-opacity:1;stroke-width:9.194;stroke-linecap:butt;stroke-linejoin:miter;stroke:url(#linear0);stroke-opacity:1;stroke-miterlimit:4;" d="M 269.061658 154.629846 L 389.305057 154.629846 L 389.305057 241.595125 L 269.061658 241.595125 Z M 269.061658 154.629846 " transform="matrix(0.181728,0,0,0.180972,-14.466283,-14.155549)"/>
<path style="fill-rule:nonzero;fill:url(#linear0);fill-opacity:1;stroke-width:9.194;stroke-linecap:butt;stroke-linejoin:miter;stroke:url(#linear0);stroke-opacity:1;stroke-miterlimit:4;" d="M 269.061658 270.561966 L 389.305057 270.561966 L 389.305057 357.570414 L 269.061658 357.570414 Z M 269.061658 270.561966 " transform="matrix(0.181728,0,0,0.180972,-14.466283,-14.155549)"/>
<path style="fill-rule:nonzero;fill:url(#linear0);fill-opacity:1;stroke-width:9.194;stroke-linecap:butt;stroke-linejoin:miter;stroke:url(#linear0);stroke-opacity:1;stroke-miterlimit:4;" d="M 122.400824 154.629846 L 242.665717 154.629846 L 242.665717 241.595125 L 122.400824 241.595125 Z M 122.400824 154.629846 " transform="matrix(0.181728,0,0,0.180972,-14.466283,-14.155549)"/>
<path style="fill:none;stroke-width:9.194;stroke-linecap:butt;stroke-linejoin:miter;stroke:url(#linear0);stroke-opacity:1;stroke-miterlimit:4;" d="M 122.400824 270.561966 L 242.665717 270.561966 L 242.665717 357.570414 L 122.400824 357.570414 Z M 122.400824 270.561966 " transform="matrix(0.181728,0,0,0.180972,-14.466283,-14.155549)"/>
</g>
</svg>
