<svg xmlns="http://www.w3.org/2000/svg" xmlns:xlink="http://www.w3.org/1999/xlink" width="64" height="64" viewBox="0 0 64 64" version="1.1">
<defs> <linearGradient id="linear0" gradientUnits="userSpaceOnUse" x1="0" y1="0" x2="0" y2="1" gradientTransform="matrix(55.992188,0,0,56,4.003906,4)"> <stop offset="0" style="stop-color:#ff6666;stop-opacity:1;"/> <stop offset="1" style="stop-color:#d90000;stop-opacity:1;"/> </linearGradient> </defs>
<g id="surface1">
<path style="fill-rule:nonzero;fill:url(#linear0);fill-opacity:1;stroke-width:1;stroke-linecap:butt;stroke-linejoin:miter;stroke:url(#linear0);stroke-opacity:1;stroke-miterlimit:4;" d="M -345.161874 61.122434 L -251.419067 61.122434 L -251.419067 123.843263 L -345.161874 123.843263 Z M -345.161874 61.122434 " transform="matrix(0.250603,0,0,0.278516,93.494543,-4.06654)"/>
<path style="fill-rule:nonzero;fill:url(#linear0);fill-opacity:1;stroke-width:1;stroke-linecap:butt;stroke-linejoin:miter;stroke:url(#linear0);stroke-opacity:1;stroke-miterlimit:4;" d="M -238.90236 61.122434 L -238.90236 123.843263 L -145.159553 123.843263 L -145.159553 61.122434 Z M -232.6518 67.391712 L -151.410113 67.391712 L -151.410113 117.573986 L -232.6518 117.573986 Z M -232.6518 67.391712 " transform="matrix(0.250603,0,0,0.278516,93.494543,-4.06654)"/>
<path style="fill-rule:nonzero;fill:url(#linear0);fill-opacity:1;stroke-width:1;stroke-linecap:butt;stroke-linejoin:miter;stroke:url(#linear0);stroke-opacity:1;stroke-miterlimit:4;" d="M -345.161874 136.395844 L -251.419067 136.395844 L -251.419067 199.116673 L -345.161874 199.116673 Z M -345.161874 136.395844 " transform="matrix(0.250603,0,0,0.278516,93.494543,-4.06654)"/>
<path style="fill-rule:nonzero;fill:url(#linear0);fill-opacity:1;stroke-width:1;stroke-linecap:butt;stroke-linejoin:miter;stroke:url(#linear0);stroke-opacity:1;stroke-miterlimit:4;" d="M -238.90236 136.395844 L -145.159553 136.395844 L -145.159553 199.116673 L -238.90236 199.116673 Z M -238.90236 136.395844 " transform="matrix(0.250603,0,0,0.278516,93.494543,-4.06654)"/>
<path style="fill-rule:evenodd;fill:url(#linear0);fill-opacity:1;stroke-width:6.311;stroke-linecap:butt;stroke-linejoin:miter;stroke:url(#linear0);stroke-opacity:1;stroke-miterlimit:4;" d="M -235.691349 64.250061 L -148.495263 64.250061 L -148.495263 120.771738 L -235.691349 120.771738 Z M -235.691349 64.250061 " transform="matrix(0.250603,0,0,0.278516,93.494543,-4.06654)"/>
<path style="fill-rule:evenodd;fill:url(#linear0);fill-opacity:1;stroke-width:6.311;stroke-linecap:butt;stroke-linejoin:miter;stroke:url(#linear0);stroke-opacity:1;stroke-miterlimit:4;" d="M -235.691349 139.579572 L -148.495263 139.579572 L -148.495263 196.115274 L -235.691349 196.115274 Z M -235.691349 139.579572 " transform="matrix(0.250603,0,0,0.278516,93.494543,-4.06654)"/>
<path style="fill-rule:evenodd;fill:url(#linear0);fill-opacity:1;stroke-width:6.311;stroke-linecap:butt;stroke-linejoin:miter;stroke:url(#linear0);stroke-opacity:1;stroke-miterlimit:4;" d="M -342.044388 64.250061 L -254.832714 64.250061 L -254.832714 120.771738 L -342.044388 120.771738 Z M -342.044388 64.250061 " transform="matrix(0.250603,0,0,0.278516,93.494543,-4.06654)"/>
<path style="fill-rule:evenodd;fill:url(#linear0);fill-opacity:1;stroke-width:6.311;stroke-linecap:butt;stroke-linejoin:miter;stroke:url(#linear0);stroke-opacity:1;stroke-miterlimit:4;" d="M -342.044388 139.579572 L -254.832714 139.579572 L -254.832714 196.115274 L -342.044388 196.115274 Z M -342.044388 139.579572 " transform="matrix(0.250603,0,0,0.278516,93.494543,-4.06654)"/>
</g>
</svg>
