<svg xmlns="http://www.w3.org/2000/svg" xmlns:xlink="http://www.w3.org/1999/xlink" width="64" height="64" viewBox="0 0 64 64" version="1.1">
<defs>
<linearGradient id="linear0" gradientUnits="userSpaceOnUse" x1="0" y1="0" x2="0" y2="1" gradientTransform="matrix(40,0,0,32,0,28)">
<stop offset="0" style="stop-color:#ff6666;stop-opacity:1;"/>
<stop offset="1" style="stop-color:#d90000;stop-opacity:1;"/>
</linearGradient>
<filter id="alpha" filterUnits="objectBoundingBox" x="0%" y="0%" width="100%" height="100%">
  <feColorMatrix type="matrix" in="SourceGraphic" values="0 0 0 0 1 0 0 0 0 1 0 0 0 0 1 0 0 0 1 0"/>
</filter>
<mask id="mask0">
  <g filter="url(#alpha)">
<rect x="0" y="0" width="64" height="64" style="fill:rgb(0%,0%,0%);fill-opacity:0.6;stroke:none;"/>
  </g>
</mask>
<linearGradient id="linear1" gradientUnits="userSpaceOnUse" x1="0" y1="0" x2="0" y2="1" gradientTransform="matrix(52,0,0,40,12,8)">
<stop offset="0" style="stop-color:#ff6666;stop-opacity:1;"/>
<stop offset="1" style="stop-color:#d90000;stop-opacity:1;"/>
</linearGradient>
<clipPath id="clip1">
  <rect x="0" y="0" width="64" height="64"/>
</clipPath>
<g id="surface5" clip-path="url(#clip1)">
<path style=" stroke:none;fill-rule:nonzero;fill:url(#linear1);" d="M 27.976562 8 C 22.945312 8.058594 19.261719 7.878906 16.25 9.539062 C 14.746094 10.371094 13.558594 11.777344 12.898438 13.53125 C 12.238281 15.285156 12 17.371094 12 20 L 12 24 L 16 24 L 16 20 C 16 17.628906 16.25 15.976562 16.640625 14.9375 C 17.03125 13.898438 17.445312 13.453125 18.179688 13.046875 C 19.644531 12.238281 22.964844 12.058594 28 12 L 48 12 C 53.035156 12.058594 56.347656 12.238281 57.8125 13.046875 C 58.546875 13.453125 58.96875 13.898438 59.359375 14.9375 C 59.75 15.976562 60 17.628906 60 20 L 60 36 C 60 38.371094 59.75 40.023438 59.359375 41.0625 C 58.96875 42.101562 58.554688 42.546875 57.820312 42.953125 C 56.351562 43.761719 53.03125 43.941406 47.976562 44 L 44 44 L 44 48 L 48.023438 48 C 53.054688 47.941406 56.738281 48.121094 59.75 46.460938 C 61.253906 45.628906 62.441406 44.222656 63.101562 42.46875 C 63.761719 40.714844 64 38.628906 64 36 L 64 20 C 64 17.371094 63.761719 15.285156 63.101562 13.53125 C 62.441406 11.777344 61.253906 10.371094 59.75 9.539062 C 56.738281 7.878906 53.054688 8.058594 48.023438 8 Z M 27.976562 8 "/>
</g>
</defs>
<g id="surface1">
<path style=" stroke:none;fill-rule:nonzero;fill:url(#linear0);" d="M 15.976562 28 C 10.945312 28.058594 7.261719 27.878906 4.25 29.539062 C 2.746094 30.371094 1.558594 31.777344 0.898438 33.53125 C 0.238281 35.285156 0 37.371094 0 40 L 0 48 C 0 50.628906 0.238281 52.714844 0.898438 54.46875 C 1.558594 56.222656 2.746094 57.628906 4.25 58.460938 C 7.261719 60.121094 10.945312 59.941406 15.976562 60 L 24.023438 60 C 29.058594 59.941406 32.738281 60.121094 35.75 58.460938 C 37.257812 57.628906 38.445312 56.222656 39.101562 54.46875 C 39.761719 52.714844 40 50.628906 40 48 L 40 40 C 40 37.371094 39.761719 35.285156 39.101562 33.53125 C 38.441406 31.777344 37.253906 30.371094 35.75 29.539062 C 32.738281 27.878906 29.054688 28.058594 24.023438 28 Z M 16 32 L 24 32 C 29.035156 32.058594 32.347656 32.238281 33.8125 33.046875 C 34.546875 33.453125 34.96875 33.898438 35.359375 34.9375 C 35.75 35.976562 36 37.628906 36 40 L 36 48 C 36 50.371094 35.75 52.023438 35.359375 53.0625 C 34.96875 54.101562 34.554688 54.546875 33.820312 54.953125 C 32.355469 55.761719 29.035156 55.941406 24 56 L 16 56 C 10.964844 55.941406 7.644531 55.761719 6.179688 54.953125 C 5.445312 54.546875 5.03125 54.101562 4.640625 53.0625 C 4.25 52.023438 4 50.371094 4 48 L 4 40 C 4 37.628906 4.25 35.976562 4.640625 34.9375 C 5.03125 33.898438 5.445312 33.453125 6.179688 33.046875 C 7.644531 32.238281 10.964844 32.058594 16 32 Z M 16 32 "/>
<use xlink:href="#surface5" mask="url(#mask0)"/>
</g>
</svg>
