<svg xmlns="http://www.w3.org/2000/svg" xmlns:xlink="http://www.w3.org/1999/xlink" width="64" height="64" viewBox="0 0 64 64" version="1.1">
<defs> <linearGradient id="linear0" gradientUnits="userSpaceOnUse" x1="0" y1="0" x2="0" y2="1" gradientTransform="matrix(55.992188,0,0,56,4.003906,4)"> <stop offset="0" style="stop-color:#ff6666;stop-opacity:1;"/> <stop offset="1" style="stop-color:#d90000;stop-opacity:1;"/> </linearGradient> </defs>
<g id="surface1">
<path style=" stroke:none;fill-rule:nonzero;fill:url(#linear0);fill-opacity:1;" d="M 9.128906 15.246094 C 4.296875 15.246094 0.382812 19.148438 0.382812 23.960938 C 0.382812 28.773438 4.296875 32.675781 9.128906 32.675781 C 13.960938 32.675781 17.882812 28.773438 17.882812 23.960938 C 17.882812 19.148438 13.960938 15.246094 9.128906 15.246094 M 31.515625 15.246094 C 26.683594 15.246094 22.765625 19.148438 22.765625 23.960938 C 22.765625 28.773438 26.683594 32.675781 31.515625 32.675781 C 36.347656 32.675781 40.269531 28.773438 40.269531 23.960938 C 40.269531 19.148438 36.347656 15.246094 31.515625 15.246094 M 53.902344 15.246094 C 49.070312 15.246094 45.152344 19.148438 45.152344 23.960938 C 45.152344 28.773438 49.070312 32.675781 53.902344 32.675781 C 58.734375 32.675781 62.65625 28.773438 62.65625 23.960938 C 62.65625 19.148438 58.734375 15.246094 53.902344 15.246094 M 28 44.636719 L 28 51.566406 L 21.050781 51.558594 L 21.011719 58.527344 L 28 58.53125 L 28 65.460938 L 35.054688 65.515625 L 35.042969 58.539062 L 42.027344 58.550781 L 41.988281 51.566406 L 35.027344 51.566406 L 35.007812 44.644531 L 28 44.636719 "/>
</g>
</svg>
