<svg xmlns="http://www.w3.org/2000/svg" xmlns:xlink="http://www.w3.org/1999/xlink" width="64" height="64" viewBox="0 0 64 64" version="1.1">
<defs> <linearGradient id="linear0" gradientUnits="userSpaceOnUse" x1="0" y1="0" x2="0" y2="1" gradientTransform="matrix(55.992188,0,0,56,4.003906,4)"> <stop offset="0" style="stop-color:#ff6666;stop-opacity:1;"/> <stop offset="1" style="stop-color:#d90000;stop-opacity:1;"/> </linearGradient> </defs>
<g id="surface1">
<path style=" stroke:none;fill-rule:nonzero;fill:url(#linear0);fill-opacity:1;" d="M 24.316406 5.808594 C 18.777344 5.859375 12.964844 8.210938 10.054688 13.121094 C 6.613281 18.460938 7.800781 26.078125 12.632812 30.199219 C 16.472656 33.796875 21.953125 34.609375 27.023438 34.414062 C 31.460938 34.453125 35.90625 34.332031 40.339844 34.476562 C 42.347656 34.832031 44.941406 35.191406 45.988281 37.15625 C 46.65625 39.277344 46.429688 42.414062 43.804688 43.007812 C 40.460938 44.484375 36.757812 43.824219 33.226562 43.96875 C 26.273438 43.980469 19.328125 43.949219 12.378906 43.988281 C 8.828125 44.128906 6.703125 48.691406 8.886719 51.488281 C 10.191406 53.546875 12.726562 53.578125 14.886719 53.492188 C 23.445312 53.476562 32.003906 53.539062 40.5625 53.460938 C 45.957031 53.175781 51.472656 50.609375 54.117188 45.722656 C 57.242188 40.414062 55.957031 33.113281 51.269531 29.101562 C 47.433594 25.503906 41.953125 24.691406 36.882812 24.890625 C 32.441406 24.847656 28 24.96875 23.566406 24.828125 C 21.5625 24.46875 18.964844 24.113281 17.921875 22.144531 C 17.25 20.027344 17.472656 16.886719 20.101562 16.292969 C 23.441406 14.816406 27.144531 15.480469 30.683594 15.332031 C 37.632812 15.320312 44.578125 15.355469 51.523438 15.316406 C 55.078125 15.171875 57.203125 10.609375 55.023438 7.820312 C 53.714844 5.761719 51.183594 5.722656 49.019531 5.808594 Z M 24.316406 5.808594 "/>
</g>
</svg>
