<svg xmlns="http://www.w3.org/2000/svg" xmlns:xlink="http://www.w3.org/1999/xlink" width="64" height="64" viewBox="0 0 64 64" version="1.1">
<defs> <linearGradient id="linear0" gradientUnits="userSpaceOnUse" x1="0" y1="0" x2="0" y2="1" gradientTransform="matrix(55.992188,0,0,56,4.003906,4)"> <stop offset="0" style="stop-color:#ff6666;stop-opacity:1;"/> <stop offset="1" style="stop-color:#d90000;stop-opacity:1;"/> </linearGradient> </defs>
<g id="surface1">
<path style=" stroke:none;fill-rule:nonzero;fill:url(#linear0);fill-opacity:1;" d="M 13.628906 8.097656 C 10.992188 8.136719 8.890625 10.292969 8.925781 12.917969 L 8.925781 50.839844 C 8.925781 52.730469 10.054688 54.445312 11.792969 55.195312 C 13.535156 55.953125 15.5625 55.601562 16.949219 54.3125 L 32.773438 39.636719 L 48.59375 54.3125 C 49.980469 55.601562 52.007812 55.953125 53.75 55.195312 C 55.492188 54.445312 56.617188 52.730469 56.617188 50.839844 L 56.617188 12.917969 C 56.640625 11.203125 55.738281 9.613281 54.25 8.75 C 52.761719 7.882812 50.925781 7.882812 49.4375 8.75 C 47.953125 9.613281 47.046875 11.203125 47.070312 12.917969 L 47.070312 39.914062 L 36.027344 29.667969 C 34.191406 27.964844 31.351562 27.964844 29.515625 29.667969 L 18.472656 39.914062 L 18.472656 12.917969 C 18.488281 11.632812 17.984375 10.394531 17.074219 9.488281 C 16.160156 8.578125 14.917969 8.082031 13.628906 8.097656 Z M 13.628906 8.097656 "/>
</g>
</svg>
