<svg xmlns="http://www.w3.org/2000/svg" xmlns:xlink="http://www.w3.org/1999/xlink" width="64" height="64" viewBox="0 0 64 64" version="1.1">
<defs>
<linearGradient id="linear0" gradientUnits="userSpaceOnUse" x1="0" y1="0" x2="0" y2="1" gradientTransform="matrix(74.65625,0,0,74.666667,5.338541,5.333333)">
<stop offset="0" style="stop-color:#ff6666;stop-opacity:1;"/>
<stop offset="1" style="stop-color:#d90000;stop-opacity:1;"/>
</linearGradient>
</defs>
<g id="surface1">
<path style=" stroke:none;fill-rule:nonzero;fill:url(#linear0);" d="M 11.898438 5.445312 C 9.847656 5.445312 7.835938 6.117188 6.371094 7.53125 C 4.90625 8.945312 4.113281 11.019531 4.113281 13.222656 L 4.113281 50.027344 C 4.113281 52.164062 4.574219 54.261719 5.929688 55.9375 C 7.285156 57.613281 9.519531 58.554688 11.898438 58.554688 C 13.371094 58.554688 14.5625 57.359375 14.5625 55.886719 C 14.5625 54.414062 13.371094 53.222656 11.898438 53.222656 C 10.714844 53.222656 10.390625 52.96875 10.078125 52.582031 C 9.765625 52.195312 9.445312 51.363281 9.445312 50.027344 L 9.445312 13.222656 C 9.445312 12.1875 9.726562 11.707031 10.070312 11.371094 C 10.417969 11.039062 10.960938 10.777344 11.898438 10.777344 L 52.125 10.777344 C 53.347656 10.777344 53.792969 11.054688 54.039062 11.308594 C 54.285156 11.558594 54.554688 12.054688 54.554688 13.222656 L 54.554688 50.027344 C 54.554688 51.222656 54.210938 52.046875 53.816406 52.511719 C 53.421875 52.980469 53.003906 53.222656 52.125 53.222656 L 18.839844 53.222656 C 17.367188 53.222656 16.171875 54.414062 16.171875 55.886719 C 16.171875 57.359375 17.367188 58.554688 18.839844 58.554688 L 52.125 58.554688 C 54.390625 58.554688 56.519531 57.574219 57.886719 55.960938 C 59.253906 54.347656 59.886719 52.242188 59.886719 50.027344 L 59.886719 13.222656 C 59.886719 11.136719 59.3125 9.078125 57.863281 7.589844 C 56.414062 6.097656 54.3125 5.445312 52.125 5.445312 Z M 15.460938 18.988281 C 14.335938 18.988281 13.011719 19.292969 12.144531 20.523438 C 11.277344 21.753906 11.511719 23.445312 12.171875 24.589844 L 12.148438 24.554688 L 23.089844 44.300781 C 23.089844 44.300781 23.09375 44.304688 23.09375 44.308594 C 23.316406 44.699219 23.542969 45.074219 23.949219 45.46875 C 24.355469 45.863281 25.089844 46.328125 25.976562 46.320312 C 26.863281 46.3125 27.53125 45.875 27.929688 45.515625 C 28.324219 45.15625 28.566406 44.808594 28.804688 44.441406 C 28.835938 44.386719 28.871094 44.332031 28.898438 44.277344 L 39.453125 24.394531 C 39.457031 24.386719 39.460938 24.378906 39.464844 24.371094 C 39.714844 23.882812 39.867188 23.769531 39.96875 23.710938 C 40.070312 23.652344 40.242188 23.578125 40.75 23.578125 L 47.414062 23.578125 L 38.632812 40.3125 L 37.582031 38.269531 C 37.007812 37.15625 35.644531 36.71875 34.53125 37.289062 C 33.417969 37.863281 32.976562 39.226562 33.550781 40.339844 L 35.796875 44.707031 C 35.800781 44.71875 35.804688 44.730469 35.8125 44.738281 C 36.03125 45.148438 36.253906 45.539062 36.71875 45.960938 C 37.179688 46.382812 38.152344 46.824219 39.046875 46.664062 C 39.941406 46.503906 40.421875 46.027344 40.742188 45.675781 C 41.058594 45.324219 41.261719 45 41.46875 44.652344 C 41.492188 44.617188 41.511719 44.582031 41.53125 44.546875 L 52.050781 24.5 C 52.523438 23.625 53.132812 22.503906 52.445312 20.964844 C 52.105469 20.199219 51.378906 19.613281 50.734375 19.355469 C 50.085938 19.097656 49.492188 19.042969 48.878906 19.042969 L 40.75 19.042969 C 39.726562 19.042969 38.628906 19.234375 37.65625 19.808594 C 36.683594 20.386719 35.953125 21.285156 35.4375 22.289062 C 35.4375 22.289062 35.433594 22.292969 35.433594 22.292969 L 25.96875 40.136719 L 16.761719 23.519531 L 23.757812 23.519531 C 24.582031 23.519531 24.402344 23.394531 24.726562 24.015625 L 26.765625 27.925781 C 27.347656 29.035156 28.71875 29.464844 29.828125 28.882812 C 30.933594 28.304688 31.363281 26.933594 30.785156 25.824219 L 28.742188 21.914062 C 27.765625 20.046875 25.625 18.988281 23.757812 18.988281 Z M 15.460938 18.988281 "/>
</g>
</svg>
