<svg xmlns="http://www.w3.org/2000/svg" xmlns:xlink="http://www.w3.org/1999/xlink" width="64" height="64" viewBox="0 0 64 64" version="1.1">
<defs> <linearGradient id="linear0" gradientUnits="userSpaceOnUse" x1="0" y1="0" x2="0" y2="1" gradientTransform="matrix(55.992188,0,0,56,4.003906,4)"> <stop offset="0" style="stop-color:#ff6666;stop-opacity:1;"/> <stop offset="1" style="stop-color:#d90000;stop-opacity:1;"/> </linearGradient> </defs>
<g id="surface1">
<path style=" stroke:none;fill-rule:nonzero;fill:url(#linear0);fill-opacity:1;" d="M 53.316406 49.550781 L 53.316406 47.882812 L 51.960938 47.71875 C 49.148438 47.347656 48.445312 46.210938 48.445312 41.792969 L 48.445312 20.609375 C 48.445312 16.191406 49.148438 15.058594 51.960938 14.679688 L 53.316406 14.515625 L 53.316406 12.847656 L 40.976562 12.847656 L 29.664062 40.605469 L 19.265625 12.847656 L 6.660156 12.847656 L 6.660156 14.515625 L 8.011719 14.679688 C 10.828125 15.058594 11.527344 16.191406 11.527344 20.609375 L 11.527344 41.792969 C 11.527344 46.160156 10.769531 47.449219 8.011719 47.71875 L 6.332031 47.882812 L 6.332031 49.550781 L 20.027344 49.550781 L 20.027344 47.882812 L 18.132812 47.71875 C 15.371094 47.453125 14.617188 46.160156 14.617188 41.792969 L 14.617188 16.027344 L 27.007812 49.550781 L 29.445312 49.550781 L 43.035156 16.675781 L 43.035156 41.792969 C 43.035156 46.210938 42.328125 47.347656 39.511719 47.71875 L 38.160156 47.882812 L 38.160156 49.550781 L 53.316406 49.550781 "/>
</g>
</svg>
