<svg xmlns="http://www.w3.org/2000/svg" xmlns:xlink="http://www.w3.org/1999/xlink" width="64" height="64" viewBox="0 0 64 64" version="1.1">
<defs>
<linearGradient id="linear0" gradientUnits="userSpaceOnUse" x1="0" y1="0" x2="0" y2="1" gradientTransform="matrix(64,0,0,29.351562,0,17.324219)">
<stop offset="0" style="stop-color:#ff6666;stop-opacity:1;"/>
<stop offset="1" style="stop-color:#d90000;stop-opacity:1;"/>
</linearGradient>
</defs>
<g id="surface1">
<path style=" stroke:none;fill-rule:nonzero;fill:url(#linear0);" d="M 38.289062 17.324219 L 38.289062 23.984375 L 29.433594 23.984375 C 27.328125 23.984375 25.527344 24.5625 24.21875 25.773438 C 22.894531 27.003906 22.261719 28.804688 22.261719 30.921875 L 22.261719 39.714844 C 22.234375 39.980469 22.21875 40.238281 22.21875 40.484375 C 22.21875 41.820312 22.617188 43.085938 23.375 44.179688 C 24.144531 45.285156 25.230469 46.0625 26.511719 46.40625 C 27.257812 46.609375 28.203125 46.675781 29.472656 46.675781 L 34.054688 46.675781 C 36.34375 46.675781 38.21875 46.160156 39.53125 44.976562 C 40.84375 43.789062 41.464844 42.011719 41.464844 39.898438 L 41.464844 17.324219 Z M 0.152344 23.984375 L 9.019531 35.382812 L 0 46.675781 L 4.15625 46.675781 L 11.046875 37.957031 L 17.863281 46.675781 L 22.003906 46.675781 L 13.074219 35.34375 L 21.824219 23.984375 L 17.699219 23.984375 L 11.042969 32.722656 L 4.28125 23.984375 Z M 45.03125 23.984375 L 45.03125 27.199219 L 57.375 27.199219 C 58.691406 27.199219 59.507812 27.507812 60.011719 28 C 60.519531 28.488281 60.824219 29.261719 60.824219 30.53125 L 60.824219 30.882812 L 51.378906 30.882812 C 49.515625 30.882812 47.886719 31.472656 46.726562 32.664062 C 45.5625 33.832031 44.992188 35.453125 44.992188 37.3125 L 44.992188 40.40625 C 44.992188 41.976562 45.476562 43.390625 46.441406 44.488281 C 47.648438 45.933594 49.429688 46.675781 51.496094 46.675781 L 57.730469 46.675781 C 59.636719 46.675781 61.273438 46.089844 62.371094 44.867188 C 63.476562 43.664062 64 42.011719 64 40.09375 L 64 30.765625 C 64 28.65625 63.402344 26.882812 62.117188 25.695312 C 60.832031 24.507812 58.992188 23.984375 56.75 23.984375 Z M 29.394531 27.238281 L 38.289062 27.238281 L 38.289062 39.820312 C 38.289062 41.003906 37.984375 41.765625 37.40625 42.332031 C 36.835938 42.898438 35.894531 43.304688 34.484375 43.464844 L 34.105469 43.464844 L 34.035156 43.472656 C 33.878906 43.496094 33.765625 43.503906 33.742188 43.503906 L 29.433594 43.503906 C 27.742188 43.503906 26.71875 43.140625 26.242188 42.683594 C 25.800781 42.238281 25.433594 41.234375 25.433594 39.542969 L 25.433594 31 C 25.433594 29.449219 25.929688 28.492188 27.03125 27.742188 C 27.480469 27.453125 28.257812 27.238281 29.394531 27.238281 Z M 51.300781 34.058594 L 60.785156 34.058594 L 60.785156 40.40625 C 60.785156 41.605469 60.503906 42.332031 60.066406 42.777344 C 59.628906 43.222656 58.933594 43.503906 57.765625 43.503906 L 51.417969 43.503906 C 51.371094 43.503906 51.183594 43.488281 50.929688 43.441406 L 50.921875 43.441406 L 50.921875 43.4375 C 49.882812 43.257812 49.226562 42.898438 48.8125 42.425781 C 48.398438 41.953125 48.164062 41.308594 48.164062 40.328125 L 48.164062 37.269531 C 48.164062 36.238281 48.402344 35.5625 48.800781 35.089844 C 49.195312 34.617188 49.800781 34.28125 50.789062 34.125 C 51.109375 34.074219 51.359375 34.058594 51.300781 34.058594 Z M 51.300781 34.058594 "/>
</g>
</svg>
