<svg xmlns="http://www.w3.org/2000/svg" xmlns:xlink="http://www.w3.org/1999/xlink" width="64px" height="64px" viewBox="0 0 64 64" version="1.1">
<defs>
<linearGradient id="linear0" gradientUnits="userSpaceOnUse" x1="0" y1="128" x2="128" y2="0" gradientTransform="matrix(0.432432,0,0,0.432432,4.324324,4.324324)">
<stop offset="0" style="stop-color:#ff6666;stop-opacity:1;"/>
<stop offset="1" style="stop-color:#d90000;stop-opacity:1;"/>
</linearGradient>
</defs>
<g id="surface1">
<path style=" stroke:none;fill-rule:nonzero;fill:url(#linear0);" d="M 40.394531 10.324219 C 40.203125 10.324219 40.007812 10.328125 39.800781 10.335938 C 38.148438 10.445312 36.109375 11.09375 34.367188 13.121094 C 32.101562 15.765625 32.019531 21.054688 32.71875 21.988281 C 33.589844 23.144531 34.65625 23.078125 36.488281 22.6875 C 38.324219 22.304688 46.9375 14.371094 42.882812 10.796875 C 42.75 10.679688 41.75 10.339844 40.394531 10.324219 Z M 26.261719 12.164062 C 24.3125 12.164062 22.457031 14.503906 22.988281 16.988281 C 23.507812 19.402344 24.214844 21.324219 25.664062 21.324219 C 27.015625 21.324219 28.066406 19.261719 28.585938 16.796875 C 29.109375 14.3125 28.207031 12.164062 26.261719 12.164062 Z M 17.03125 15.664062 C 16.921875 15.667969 16.804688 15.679688 16.691406 15.703125 C 14.921875 16.097656 14.234375 18.4375 15.207031 20.527344 C 16.152344 22.5625 17.171875 24.132812 18.488281 23.835938 C 19.71875 23.566406 20.246094 21.53125 20.234375 19.242188 C 20.222656 17.226562 18.878906 15.738281 17.355469 15.664062 C 17.246094 15.660156 17.140625 15.660156 17.03125 15.664062 Z M 10.960938 21 C 10.695312 21.023438 10.4375 21.101562 10.179688 21.230469 C 8.8125 21.929688 8.707031 23.988281 9.949219 25.5 C 11.160156 26.96875 12.335938 28.039062 13.355469 27.511719 C 14.308594 27.03125 14.3125 25.210938 13.8125 23.335938 C 13.4375 21.917969 12.335938 21.0625 11.234375 21 C 11.140625 20.996094 11.054688 20.992188 10.960938 21 Z M 30.136719 24.730469 C 28.699219 24.734375 26.976562 24.886719 24.910156 25.203125 C 20.402344 25.894531 17.433594 27.386719 15.476562 29.175781 C 15.625 29.234375 15.765625 29.308594 15.9375 29.378906 C 16.273438 29.527344 16.636719 29.703125 16.976562 29.890625 C 17.648438 30.269531 20.179688 31.222656 20.558594 31.296875 C 21.628906 31.515625 23.109375 32.160156 24.746094 33.109375 C 26.261719 33.988281 27.84375 35.140625 29.191406 36.472656 C 29.3125 36.40625 29.410156 36.363281 29.613281 36.257812 C 30.210938 35.949219 31.1875 35.613281 32.382812 35.796875 C 32.386719 35.800781 32.390625 35.796875 32.394531 35.796875 C 32.417969 35.804688 32.429688 35.792969 32.449219 35.796875 L 32.449219 35.8125 C 32.761719 35.847656 33.082031 35.914062 33.613281 36.027344 C 33.683594 36.042969 33.769531 36.066406 33.839844 36.082031 C 35.304688 35.15625 36.53125 34.328125 37.085938 33.769531 C 39.015625 31.835938 37.769531 28.28125 37.289062 27.121094 C 37.289062 27.121094 36.386719 24.71875 30.136719 24.730469 Z M 14.894531 29.851562 C 14.800781 29.835938 14.738281 29.859375 14.773438 29.917969 C 14.441406 29.933594 15.09375 30.386719 15.3125 30.539062 C 15.453125 30.703125 20.550781 33 22.664062 34.203125 C 24.90625 35.453125 27.929688 38.003906 28.164062 38.433594 C 25.839844 42.128906 26.941406 45.359375 26.664062 45.703125 C 26.464844 45.996094 24.621094 47.867188 25.207031 48.136719 C 25.792969 48.40625 26.703125 48.039062 26.839844 47.960938 C 27.136719 47.792969 27.476562 47.488281 27.355469 47.960938 C 27.105469 48.921875 25.910156 51.25 27.460938 50.757812 C 27.648438 50.664062 30.175781 48.125 30.476562 48.039062 C 35.4375 49.21875 41.011719 48.730469 42.042969 48.285156 C 42.578125 48.3125 44.085938 49.199219 44.949219 49.609375 C 45.8125 50.019531 48.1875 51.042969 47.488281 49.175781 C 47.28125 48.585938 45.703125 47.082031 45.960938 46.988281 C 46.515625 46.789062 47.886719 47.515625 48.410156 47.648438 C 49.984375 48.050781 50.199219 47.457031 49.207031 46.230469 C 48.214844 45.007812 48.074219 45.1875 47.773438 44.621094 C 47.535156 44.171875 47.703125 43.636719 47.882812 43.511719 C 48.199219 43.289062 52.949219 40.953125 54.042969 40.039062 C 55.679688 38.6875 54.019531 36.984375 53.625 36.742188 C 50.238281 34.53125 46.78125 34.976562 46.734375 34.621094 C 46.710938 34.214844 46.710938 33.105469 46.652344 32.703125 C 46.316406 29.988281 45.007812 30.625 44.8125 30.621094 C 43.4375 30.816406 43.855469 32.761719 44.4375 34.566406 C 44.488281 35.035156 43.992188 34.851562 43.679688 34.363281 C 42.621094 31.777344 42.164062 31.863281 41.867188 31.785156 C 41.585938 31.726562 40.617188 32.238281 40.636719 33.285156 C 40.640625 33.585938 41.015625 35.007812 41.015625 35.445312 C 40.363281 35.964844 40.363281 37.113281 39.679688 37.539062 C 37.6875 37.921875 32.898438 36.652344 32.300781 36.59375 C 30.230469 36.242188 29.300781 37.6875 28.960938 37.351562 C 26.285156 34.550781 22.175781 32.441406 20.394531 32.082031 C 19.710938 31.941406 17.421875 31.078125 16.585938 30.609375 C 15.957031 30.261719 15.1875 29.894531 14.894531 29.851562 Z M 14.136719 30.648438 C 12.039062 33.410156 11.761719 36.503906 11.761719 38.40625 C 11.761719 41.980469 16.8125 52.148438 25.410156 53.5 C 30.988281 54.378906 34.386719 51.746094 36.261719 49.554688 C 34.511719 49.5 32.5625 49.3125 30.664062 48.890625 C 30.597656 48.949219 30.535156 49.011719 30.4375 49.09375 C 30.167969 49.335938 29.820312 49.648438 29.476562 49.972656 C 29.136719 50.300781 28.789062 50.636719 28.515625 50.890625 C 28.382812 51.019531 28.261719 51.132812 28.164062 51.214844 C 28.117188 51.261719 28.074219 51.304688 28.03125 51.335938 C 27.988281 51.375 27.996094 51.386719 27.828125 51.472656 C 27.789062 51.496094 27.75 51.511719 27.707031 51.527344 C 27.4375 51.613281 27.171875 51.671875 26.867188 51.621094 C 26.566406 51.574219 26.238281 51.347656 26.070312 51.082031 C 25.738281 50.550781 25.851562 50.125 25.9375 49.730469 C 26 49.4375 26.085938 49.285156 26.179688 49 C 25.804688 49.066406 25.355469 49.085938 24.867188 48.863281 C 24.5625 48.726562 24.308594 48.3125 24.289062 48.011719 C 24.265625 47.71875 24.335938 47.539062 24.410156 47.363281 C 24.523438 47.101562 24.6875 46.863281 24.855469 46.636719 C 24.042969 45.542969 23.648438 43.996094 24.339844 42.675781 C 24.5625 42.261719 25.261719 41.671875 26.207031 40.988281 C 26.414062 40.222656 26.726562 39.398438 27.191406 38.554688 C 27.125 38.488281 27.0625 38.445312 26.976562 38.363281 C 26.640625 38.0625 26.1875 37.671875 25.664062 37.257812 C 24.625 36.433594 23.324219 35.507812 22.273438 34.917969 C 22.269531 34.914062 22.265625 34.914062 22.261719 34.90625 C 21.253906 34.335938 19.453125 33.460938 17.894531 32.714844 C 17.117188 32.34375 16.390625 32.003906 15.855469 31.742188 C 15.585938 31.613281 15.375 31.507812 15.207031 31.417969 C 15.121094 31.378906 15.054688 31.335938 14.988281 31.296875 C 14.960938 31.28125 14.933594 31.269531 14.894531 31.242188 C 14.886719 31.238281 14.851562 31.195312 14.839844 31.1875 L 14.828125 31.203125 C 14.714844 31.125 14.488281 30.96875 14.273438 30.769531 C 14.230469 30.730469 14.1875 30.695312 14.136719 30.648438 Z M 53.03125 32.863281 C 52.386719 33.496094 52.5 35.824219 52.636719 35.796875 C 53.300781 35.679688 53.226562 32.675781 53.03125 32.863281 Z M 54.867188 33.1875 C 54.621094 33.273438 53.097656 35.226562 53.382812 35.972656 C 53.515625 36.324219 55.125 33.824219 54.894531 33.214844 C 54.890625 33.207031 54.886719 33.1875 54.867188 33.1875 Z M 46.058594 36.863281 C 46.070312 36.863281 46.085938 36.867188 46.097656 36.878906 C 46.296875 37.480469 46.539062 38.113281 47.839844 38.257812 C 47.992188 38.273438 47.09375 38.734375 46.488281 38.445312 C 45.945312 38.140625 45.902344 37.019531 46.03125 36.878906 C 46.039062 36.871094 46.046875 36.867188 46.058594 36.863281 Z M 49.625 39.851562 C 49.675781 39.851562 49.71875 39.859375 49.761719 39.863281 C 50.078125 39.9375 47.425781 41.257812 47.21875 41.082031 C 47.085938 40.964844 48.855469 39.878906 49.625 39.851562 Z M 50.03125 40.6875 C 50.070312 40.683594 50.105469 40.6875 50.136719 40.6875 C 50.417969 40.710938 48.5625 42.40625 48.355469 42.230469 C 48.21875 42.113281 49.417969 40.816406 50.03125 40.6875 Z M 50.03125 40.6875 "/>
</g>
</svg>
