<svg xmlns="http://www.w3.org/2000/svg" xmlns:xlink="http://www.w3.org/1999/xlink" width="64" height="64" viewBox="0 0 64 64" version="1.1">
<defs>
<linearGradient id="linear0" gradientUnits="userSpaceOnUse" x1="0" y1="0" x2="0" y2="1" gradientTransform="matrix(64,0,0,59.734375,0,2.132812)">
<stop offset="0" style="stop-color:#ff6666;stop-opacity:1;"/>
<stop offset="1" style="stop-color:#d90000;stop-opacity:1;"/>
</linearGradient>
</defs>
<g id="surface1">
<path style=" stroke:none;fill-rule:evenodd;fill:url(#linear0);" d="M 60.898438 51.0625 C 60.90625 51.03125 60.910156 50.996094 60.921875 50.960938 C 61.199219 49.359375 61.359375 47.761719 61.441406 46.121094 C 61.558594 44 61.601562 41.878906 61.601562 39.761719 L 61.601562 24.238281 C 61.601562 22.121094 61.558594 20 61.441406 17.878906 C 61.359375 16.238281 61.199219 14.640625 60.921875 13.039062 C 60.71875 11.878906 60.359375 10.761719 59.921875 9.71875 C 59.558594 8.960938 59.078125 8.238281 58.480469 7.640625 C 57.878906 7.039062 57.199219 6.558594 56.398438 6.238281 C 55.359375 5.761719 54.238281 5.441406 53.078125 5.238281 C 51.480469 4.960938 49.878906 4.761719 48.238281 4.679688 C 46.121094 4.558594 44 4.519531 41.878906 4.519531 C 41.878906 4.519531 41.878906 4.519531 41.839844 4.519531 L 22.160156 4.519531 C 22.121094 4.519531 22.121094 4.519531 22.121094 4.519531 C 20 4.519531 17.878906 4.558594 15.761719 4.679688 C 14.121094 4.761719 12.519531 4.960938 10.921875 5.238281 C 9.761719 5.441406 8.640625 5.761719 7.601562 6.238281 C 6.800781 6.558594 6.121094 7.039062 5.519531 7.640625 C 4.921875 8.238281 4.441406 8.960938 4.078125 9.71875 C 3.640625 10.761719 3.28125 11.878906 3.078125 13.039062 C 2.800781 14.640625 2.640625 16.238281 2.558594 17.878906 C 2.441406 20 2.398438 22.121094 2.398438 24.238281 L 2.398438 39.761719 C 2.398438 41.878906 2.441406 44 2.558594 46.121094 C 2.640625 47.761719 2.800781 49.359375 3.078125 50.960938 C 3.089844 50.996094 3.09375 51.03125 3.101562 51.0625 Z M 41.859375 2.132812 C 61.230469 2.132812 64 4.894531 64 24.253906 L 64 39.753906 C 64 59.105469 61.230469 61.867188 41.859375 61.867188 L 22.140625 61.867188 C 2.769531 61.867188 0 59.105469 0 39.753906 L 0 24.253906 C 0 4.894531 2.769531 2.132812 22.140625 2.132812 Z M 32 55.726562 C 32 54.320312 33.144531 53.179688 34.550781 53.179688 C 35.960938 53.179688 37.105469 54.320312 37.105469 55.726562 C 37.105469 57.136719 35.960938 58.28125 34.550781 58.28125 C 33.144531 58.28125 32 57.136719 32 55.726562 Z M 38.957031 55.726562 C 38.957031 54.320312 40.101562 53.179688 41.507812 53.179688 C 42.914062 53.179688 44.058594 54.320312 44.058594 55.726562 C 44.058594 57.136719 42.914062 58.28125 41.507812 58.28125 C 40.101562 58.28125 38.957031 57.136719 38.957031 55.726562 Z M 45.914062 55.726562 C 45.914062 54.320312 47.058594 53.179688 48.46875 53.179688 C 49.875 53.179688 51.015625 54.320312 51.015625 55.726562 C 51.015625 57.136719 49.875 58.28125 48.46875 58.28125 C 47.058594 58.28125 45.914062 57.136719 45.914062 55.726562 Z M 45.914062 55.726562 "/>
</g>
</svg>
