<svg xmlns="http://www.w3.org/2000/svg" xmlns:xlink="http://www.w3.org/1999/xlink" width="64" height="64" viewBox="0 0 64 64" version="1.1">
<defs> <linearGradient id="linear0" gradientUnits="userSpaceOnUse" x1="0" y1="0" x2="0" y2="1" gradientTransform="matrix(55.992188,0,0,56,4.003906,4)"> <stop offset="0" style="stop-color:#ff6666;stop-opacity:1;"/> <stop offset="1" style="stop-color:#d90000;stop-opacity:1;"/> </linearGradient> </defs>
<g id="surface1">
<path style=" stroke:none;fill-rule:nonzero;fill:url(#linear0);fill-opacity:1;" d="M 4.8125 11.695312 L 4.8125 33.003906 L 59.296875 33.003906 L 59.296875 11.695312 Z M 12.242188 38.039062 C 8.1875 38.039062 4.898438 41.308594 4.898438 45.34375 C 4.898438 49.382812 8.1875 52.652344 12.242188 52.652344 C 16.296875 52.652344 19.578125 49.382812 19.578125 45.34375 C 19.578125 41.3125 16.296875 38.039062 12.242188 38.039062 M 32.054688 38.039062 C 28.007812 38.039062 24.71875 41.308594 24.71875 45.339844 C 24.71875 49.375 28.007812 52.644531 32.054688 52.644531 C 36.109375 52.644531 39.398438 49.375 39.398438 45.34375 C 39.398438 41.308594 36.109375 38.042969 32.0625 38.042969 M 51.871094 38.042969 C 47.816406 38.042969 44.53125 41.308594 44.53125 45.34375 C 44.53125 49.375 47.816406 52.652344 51.871094 52.652344 C 55.925781 52.652344 59.207031 49.382812 59.207031 45.34375 C 59.207031 41.308594 55.925781 38.042969 51.871094 38.042969 "/>
</g>
</svg>
