<svg xmlns="http://www.w3.org/2000/svg" xmlns:xlink="http://www.w3.org/1999/xlink" width="64" height="64" viewBox="0 0 64 64" version="1.1">
<defs>
<linearGradient id="linear0" gradientUnits="userSpaceOnUse" x1="0" y1="0" x2="0" y2="1" gradientTransform="matrix(22.835938,0,0,60,20,2)">
<stop offset="0" style="stop-color:#ff6666;stop-opacity:1;"/>
<stop offset="1" style="stop-color:#d90000;stop-opacity:1;"/>
</linearGradient>
</defs>
<g id="surface1">
<path style=" stroke:none;fill-rule:nonzero;fill:url(#linear0);" d="M 29.667969 61.910156 C 26.890625 61.472656 24.503906 60.144531 22.710938 58.027344 C 19.441406 54.175781 19.089844 48.726562 21.867188 44.921875 L 22.664062 43.828125 L 22.664062 26.589844 C 22.664062 9.832031 22.671875 9.324219 22.984375 8.332031 C 23.847656 5.566406 25.933594 3.40625 28.679688 2.429688 C 30.25 1.871094 32.699219 1.855469 34.246094 2.390625 C 36.417969 3.144531 38.199219 4.707031 39.25 6.785156 C 40.234375 8.726562 40.195312 7.941406 40.195312 26.667969 L 40.195312 43.789062 L 40.832031 44.617188 C 42.15625 46.332031 42.828125 48.4375 42.835938 50.898438 C 42.847656 55.902344 39.203125 60.550781 34.390625 61.664062 C 33.007812 61.984375 30.867188 62.097656 29.667969 61.910156 Z M 34.484375 56.707031 C 37.589844 55.167969 39.007812 51.421875 37.644531 48.339844 C 37.464844 47.929688 36.914062 47.171875 36.425781 46.660156 L 35.539062 45.730469 L 35.496094 27.726562 L 35.449219 9.722656 L 35.070312 8.878906 C 34.242188 7.050781 32.511719 6.148438 30.636719 6.566406 C 29.46875 6.828125 28.5625 7.515625 28.015625 8.554688 L 27.570312 9.398438 L 27.527344 27.507812 L 27.484375 45.613281 L 26.707031 46.421875 C 25.265625 47.914062 24.542969 50.078125 24.90625 51.820312 C 25.332031 53.871094 26.625 55.707031 28.261719 56.578125 C 29.558594 57.269531 30.222656 57.410156 31.882812 57.347656 C 33.128906 57.296875 33.441406 57.21875 34.484375 56.707031 Z M 30.0625 55.492188 C 27.9375 54.84375 26.617188 53.085938 26.609375 50.898438 C 26.601562 49.511719 27.050781 48.648438 28.375 47.488281 L 29.253906 46.714844 L 29.257812 29.625 L 29.257812 12.535156 L 33.761719 12.535156 L 33.765625 29.707031 L 33.769531 46.875 L 34.417969 47.335938 C 34.777344 47.589844 35.332031 48.195312 35.65625 48.679688 C 36.386719 49.78125 36.539062 51.09375 36.085938 52.449219 C 35.691406 53.640625 34.332031 54.988281 33.140625 55.367188 C 32.253906 55.652344 30.777344 55.710938 30.0625 55.492188 Z M 30.0625 55.492188 "/>
</g>
</svg>
