<svg xmlns="http://www.w3.org/2000/svg" xmlns:xlink="http://www.w3.org/1999/xlink" width="64" height="64" viewBox="0 0 64 64" version="1.1">
<defs>
<linearGradient id="linear0" gradientUnits="userSpaceOnUse" x1="0" y1="0" x2="0" y2="1" gradientTransform="matrix(55.652344,0,0,64,4.171875,0)">
<stop offset="0" style="stop-color:#ff6666;stop-opacity:1;"/>
<stop offset="1" style="stop-color:#d90000;stop-opacity:1;"/>
</linearGradient>
</defs>
<g id="surface1">
<path style=" stroke:none;fill-rule:nonzero;fill:url(#linear0);" d="M 22.90625 0.0234375 C 21.894531 0.109375 21.515625 0.265625 21.132812 0.753906 C 20.722656 1.273438 20.371094 1.390625 18.875 1.53125 C 17.738281 1.640625 16.941406 1.847656 16.632812 2.117188 C 16.046875 2.640625 15.492188 3.910156 15.492188 4.738281 C 15.492188 5.324219 15.550781 5.351562 16.449219 5.207031 C 16.976562 5.125 17.796875 5.183594 18.292969 5.347656 C 19.019531 5.589844 19.128906 5.707031 18.894531 5.988281 C 18.730469 6.1875 18.164062 6.132812 17.542969 6.132812 C 16.296875 6.132812 16.167969 6.484375 17.03125 7.492188 L 17.59375 8.144531 L 18.554688 7.628906 C 19.652344 7.039062 20.425781 7.179688 21.195312 7.613281 C 21.488281 7.78125 22.8125 7.976562 24.140625 8.050781 C 26.390625 8.175781 25.792969 8.226562 26.339844 8.863281 C 26.691406 9.277344 27.179688 9.851562 27.175781 10.324219 C 27.171875 11.925781 26.054688 14.753906 22.742188 18.691406 C 21.066406 20.6875 20.734375 24.339844 20.730469 25.304688 C 20.730469 25.601562 20.628906 25.898438 20.5 25.980469 C 20.261719 26.128906 20.109375 25.210938 19.878906 22.199219 C 19.652344 19.214844 19.097656 17.546875 17.8125 16.222656 C 17.054688 15.445312 16.355469 14.980469 15.65625 14.792969 C 14.429688 14.464844 14.355469 14.214844 15.351562 13.800781 C 15.757812 13.632812 16.089844 13.398438 16.089844 13.285156 C 16.089844 12.988281 14.96875 12.742188 14.246094 12.882812 C 13.503906 13.023438 13.488281 12.890625 14.152344 12.183594 C 15.464844 10.789062 13.230469 11.113281 10.921875 12.652344 C 8.84375 14.035156 7.574219 15.460938 7.382812 16.488281 C 7.261719 17.136719 6.871094 17.703125 6 18.507812 C 4.382812 19.996094 4.019531 20.753906 4.226562 22.140625 C 4.53125 24.164062 4.765625 24.328125 5.707031 23.207031 C 6.296875 22.503906 7.671875 21.773438 7.925781 22.023438 C 8.167969 22.269531 7.53125 23.148438 6.792969 23.585938 C 5.855469 24.140625 5.867188 24.527344 6.824219 24.863281 C 7.730469 25.179688 7.902344 25.097656 8.414062 24.074219 C 9.007812 22.902344 9.703125 22.238281 10.683594 21.925781 C 11.167969 21.769531 12.078125 21.160156 12.710938 20.570312 C 13.347656 19.988281 13.984375 19.507812 14.132812 19.507812 C 14.632812 19.507812 15.558594 20.675781 15.8125 21.621094 C 15.949219 22.140625 16.183594 24.207031 16.332031 26.214844 C 16.789062 32.410156 17.40625 33.289062 19.664062 38.195312 C 20.382812 39.773438 20.976562 41.214844 20.976562 41.40625 C 20.976562 41.667969 19.085938 41.800781 17.652344 41.925781 C 14.257812 42.21875 12.832031 43.371094 12.585938 46.027344 C 12.496094 46.988281 12.578125 47.542969 12.90625 48.167969 C 13.585938 49.453125 13.988281 49.429688 13.808594 48.113281 C 13.652344 46.984375 14.0625 46.269531 14.367188 47.128906 C 14.59375 47.765625 15.457031 48.667969 15.839844 48.667969 C 16.222656 48.667969 16.226562 48.636719 15.925781 47.832031 C 15.65625 47.125 15.820312 47.054688 16.5 47.570312 C 17.15625 48.066406 17.375 47.828125 17.207031 46.796875 C 16.945312 45.164062 19.546875 43.742188 22.644531 44.664062 C 24.148438 45.109375 24.5625 45.148438 25.226562 44.90625 C 26.496094 44.449219 28.296875 44.558594 29.125 45.257812 C 29.957031 45.957031 29.28125 47.789062 28.699219 48.621094 C 28.109375 49.464844 27.183594 49.820312 24.867188 50.105469 C 23.695312 50.246094 22.476562 50.53125 22.160156 50.742188 C 21.523438 51.160156 21.011719 52.09375 21.011719 52.839844 C 21.011719 53.484375 21.304688 53.445312 21.945312 52.707031 C 22.234375 52.371094 22.695312 52.101562 22.964844 52.101562 C 23.578125 52.101562 23.578125 52.230469 22.96875 53.007812 C 22.527344 53.566406 22.277344 55.03125 22.621094 55.03125 C 22.695312 55.03125 23.121094 54.648438 23.5625 54.175781 C 24.007812 53.703125 24.605469 53.320312 24.890625 53.320312 C 25.5 53.320312 25.53125 53.507812 25.039062 54.160156 C 24.671875 54.648438 24.535156 56.265625 24.863281 56.246094 C 24.964844 56.242188 25.269531 55.886719 25.539062 55.453125 C 26 54.71875 26.574219 54.347656 28.511719 53.527344 C 28.941406 53.347656 30.570312 51.839844 32.140625 50.183594 C 34.9375 47.222656 34.902344 47.15625 34.824219 46.148438 L 34.738281 45.125 L 37.574219 44.824219 C 40.089844 43.929688 41.425781 43.855469 42.882812 44.617188 C 44.824219 45.621094 46.65625 47.363281 46.390625 49 C 46.195312 50.207031 45.53125 52.492188 43.859375 52.65625 C 39.875 52.578125 34.324219 55.136719 34.949219 58.847656 C 35.46875 61.34375 38.699219 62.996094 41.941406 63.734375 C 42.960938 63.96875 44.324219 64.046875 46.035156 63.972656 C 50.328125 63.792969 53.074219 63.570312 55.371094 61.207031 C 56.214844 60.34375 57.300781 58.28125 57.695312 57.273438 L 59.824219 58.4375 L 59.824219 52.835938 L 54.261719 55.28125 L 57.179688 56.960938 C 56.835938 57.242188 56.382812 57.941406 55.875 58.46875 C 53.617188 60.804688 52.066406 60.796875 49.242188 61.175781 C 46.925781 61.488281 44.382812 61.160156 42.804688 60.460938 C 41.507812 59.886719 40.507812 58.648438 40.507812 57.726562 C 40.507812 56.859375 41.539062 56.066406 42.789062 56.023438 C 46.164062 55.910156 46.796875 55.605469 46.796875 55.605469 C 49.226562 54.863281 51.53125 50.636719 51.53125 47.976562 C 51.53125 47.300781 51.636719 46.464844 51.769531 46.121094 C 51.960938 45.613281 51.847656 45.175781 51.160156 43.738281 C 50.589844 42.542969 50.367188 42.34375 50.472656 41.945312 C 50.59375 41.457031 50.363281 41.09375 49.183594 39.898438 C 47.90625 38.609375 47.785156 38 48.050781 37.566406 C 48.214844 37.304688 48.355469 37.027344 48.355469 36.964844 C 48.355469 36.894531 47.71875 36.519531 46.945312 36.132812 C 46.171875 35.738281 45.269531 35.199219 44.941406 34.933594 C 44.414062 34.507812 44.378906 34.386719 44.667969 34.039062 C 44.847656 33.820312 44.9375 33.574219 44.855469 33.496094 C 44.777344 33.421875 43.859375 33.195312 42.816406 32.996094 C 40.460938 32.550781 40.09375 32.359375 39.996094 31.511719 C 39.953125 31.144531 39.832031 30.847656 39.726562 30.859375 C 39.625 30.871094 38.453125 31.085938 37.128906 31.328125 C 34.519531 31.804688 33.929688 31.738281 33.929688 30.972656 C 33.929688 30.335938 33.933594 30.332031 32.300781 31.203125 C 29.636719 32.628906 27.476562 31.757812 28.144531 29.515625 C 28.3125 28.953125 28.769531 28.027344 29.15625 27.460938 C 30.710938 25.195312 33.679688 24.476562 39.132812 24.222656 C 42.171875 24.085938 43.539062 23.949219 44.433594 23.542969 C 45.839844 22.90625 49.070312 20.671875 49.671875 19.550781 C 49.933594 19.070312 50.222656 18.679688 50.328125 18.679688 C 50.839844 18.679688 51.5 17.636719 51.5 16.824219 C 51.5 15.722656 52 15.804688 52.300781 16.953125 C 52.59375 18.09375 53.09375 17.53125 53.0625 16.097656 C 53.035156 14.882812 53.21875 14.742188 53.765625 15.558594 C 54.355469 16.441406 54.546875 15.851562 54.210938 14.207031 C 53.886719 12.625 51.769531 8.746094 50.886719 7.636719 C 50.613281 7.285156 48.40625 6.933594 48.03125 6.855469 C 47.515625 6.746094 46.835938 6.320312 46.097656 5.089844 C 45.539062 4.164062 44.820312 3.304688 44.421875 3.09375 C 43.789062 2.765625 43.609375 2.769531 42.644531 3.136719 C 41.476562 3.585938 41.371094 3.769531 41.976562 4.269531 C 42.464844 4.671875 43.289062 6.535156 43.289062 7.234375 C 43.289062 7.730469 43.277344 7.734375 42.777344 7.28125 C 42.496094 7.027344 41.710938 6.433594 41.511719 5.957031 C 41.164062 5.132812 41.132812 5.117188 40.796875 5.570312 C 40.179688 6.40625 40.351562 7.566406 41.183594 8.160156 C 42 8.738281 42.734375 10.019531 43.011719 11.335938 C 43.109375 11.808594 43.394531 12.535156 43.652344 12.957031 C 44.605469 14.53125 44.421875 18.207031 42.953125 18.902344 C 42.441406 19.148438 40.792969 19.367188 38.261719 19.527344 C 32.433594 19.894531 29.785156 20.648438 26.992188 23.394531 C 25.65625 24.707031 25.566406 24.757812 25.722656 24.09375 C 25.980469 23.019531 26.089844 21.59375 28.503906 18.433594 C 31.605469 14.375 32.003906 13.398438 32 10.492188 C 31.992188 8.007812 30.855469 5.175781 28.222656 3.039062 C 27.679688 2.664062 27.296875 2.261719 27.367188 2.140625 C 27.441406 2.023438 27.945312 1.929688 28.488281 1.929688 C 29.632812 1.929688 29.65625 1.546875 28.546875 0.902344 C 27.628906 0.363281 24.566406 -0.113281 22.90625 0.0234375 Z M 22.90625 0.0234375 "/>
</g>
</svg>
