<svg xmlns="http://www.w3.org/2000/svg" xmlns:xlink="http://www.w3.org/1999/xlink" width="64px" height="64px" viewBox="0 0 64 64" version="1.1">
<defs>
<linearGradient id="linear0" gradientUnits="userSpaceOnUse" x1="0" y1="128" x2="128" y2="0" gradientTransform="matrix(0.432432,0,0,0.432432,4.324324,4.324324)">
<stop offset="0" style="stop-color:#ff6666;stop-opacity:1;"/>
<stop offset="1" style="stop-color:#d90000;stop-opacity:1;"/>
</linearGradient>
</defs>
<g id="surface1">
<path style=" stroke:none;fill-rule:nonzero;fill:url(#linear0);" d="M 19.140625 9.792969 C 16.617188 9.789062 14.320312 11.253906 13.253906 13.539062 C 12.1875 15.828125 12.542969 18.523438 14.167969 20.457031 L 23.628906 32.039062 L 14.167969 43.617188 C 11.902344 46.394531 12.3125 50.484375 15.089844 52.75 C 17.867188 55.011719 21.957031 54.597656 24.222656 51.820312 L 31.992188 42.292969 L 39.777344 51.820312 C 42.039062 54.597656 46.128906 55.011719 48.90625 52.75 C 51.683594 50.484375 52.097656 46.394531 49.832031 43.617188 L 40.371094 32.039062 L 49.832031 20.457031 C 51.480469 18.5 51.820312 15.753906 50.707031 13.453125 C 49.589844 11.148438 47.226562 9.714844 44.667969 9.792969 C 42.757812 9.847656 40.964844 10.742188 39.777344 12.238281 L 31.992188 21.765625 L 24.222656 12.238281 C 22.988281 10.691406 21.117188 9.792969 19.140625 9.792969 Z M 19.140625 9.792969 "/>
</g>
</svg>
