<svg xmlns="http://www.w3.org/2000/svg" xmlns:xlink="http://www.w3.org/1999/xlink" width="64" height="64" viewBox="0 0 64 64" version="1.1">
<defs> <linearGradient id="linear0" gradientUnits="userSpaceOnUse" x1="0" y1="0" x2="0" y2="1" gradientTransform="matrix(55.992188,0,0,56,4.003906,4)"> <stop offset="0" style="stop-color:#ff6666;stop-opacity:1;"/> <stop offset="1" style="stop-color:#d90000;stop-opacity:1;"/> </linearGradient> </defs>
<g id="surface1">
<path style=" stroke:none;fill-rule:nonzero;fill:url(#linear0);fill-opacity:1;" d="M 22.695312 10.121094 C 22.332031 10.128906 21.964844 10.191406 21.601562 10.308594 C 19.664062 10.949219 18.574219 13.074219 19.175781 15.015625 L 21.273438 21.777344 C 19.960938 22.300781 18.675781 22.898438 17.425781 23.542969 C 17.171875 23.679688 16.914062 23.816406 16.664062 23.949219 L 13.316406 16.152344 C 12.734375 14.8125 11.414062 14.019531 10.039062 14.054688 C 9.578125 14.066406 9.117188 14.171875 8.675781 14.375 C 6.898438 15.183594 6.0625 17.328125 6.835938 19.121094 L 10.613281 27.902344 C 8.523438 29.5 6.546875 31.25 4.710938 33.101562 C 4.019531 33.796875 3.332031 34.515625 2.703125 35.265625 C 1.839844 36.308594 1.839844 37.570312 2.703125 38.601562 C 4.613281 40.910156 6.886719 42.957031 9.203125 44.828125 C 14.183594 48.855469 19.878906 52.246094 26.183594 53.605469 C 28.132812 54.027344 30.085938 54.222656 32.042969 54.222656 C 34.027344 54.222656 35.96875 54.027344 37.917969 53.605469 C 44.214844 52.246094 49.929688 48.855469 54.914062 44.828125 C 57.226562 42.957031 59.496094 40.910156 61.410156 38.601562 C 62.273438 37.570312 62.273438 36.308594 61.410156 35.265625 C 60.78125 34.515625 60.09375 33.800781 59.398438 33.101562 C 57.554688 31.238281 55.574219 29.476562 53.476562 27.875 L 57.277344 19.03125 C 58.046875 17.238281 57.21875 15.09375 55.449219 14.28125 C 55.003906 14.074219 54.535156 13.972656 54.074219 13.96875 C 52.699219 13.933594 51.375 14.722656 50.796875 16.0625 L 47.417969 23.933594 C 47.171875 23.796875 46.929688 23.671875 46.683594 23.542969 C 45.652344 23.007812 44.589844 22.515625 43.503906 22.0625 L 45.691406 15.039062 C 46.292969 13.097656 45.195312 10.972656 43.265625 10.328125 C 42.902344 10.207031 42.535156 10.152344 42.171875 10.144531 C 40.597656 10.121094 39.125 11.125 38.636719 12.695312 L 36.441406 19.753906 C 36.417969 19.832031 36.402344 19.914062 36.382812 19.992188 C 34.945312 19.765625 33.527344 19.652344 32.042969 19.652344 C 30.851562 19.652344 29.660156 19.738281 28.46875 19.894531 C 28.449219 19.839844 28.445312 19.789062 28.425781 19.738281 L 26.234375 12.679688 C 25.746094 11.101562 24.269531 10.105469 22.695312 10.121094 M 31.917969 24.011719 C 38.207031 24.011719 43.449219 28.464844 44.640625 34.375 L 39.207031 34.375 C 38.144531 31.386719 35.289062 29.25 31.917969 29.25 C 27.65625 29.25 24.195312 32.6875 24.195312 36.933594 C 24.195312 41.1875 27.65625 44.632812 31.917969 44.632812 C 35.289062 44.632812 38.144531 42.488281 39.207031 39.503906 L 44.640625 39.503906 C 43.449219 45.414062 38.207031 49.863281 31.917969 49.863281 C 24.753906 49.863281 18.941406 44.070312 18.941406 36.933594 C 18.941406 29.796875 24.753906 24.011719 31.917969 24.011719 "/>
</g>
</svg>
