<svg xmlns="http://www.w3.org/2000/svg" xmlns:xlink="http://www.w3.org/1999/xlink" width="64" height="64" viewBox="0 0 64 64" version="1.1">
<defs> <linearGradient id="linear0" gradientUnits="userSpaceOnUse" x1="0" y1="0" x2="0" y2="1" gradientTransform="matrix(55.992188,0,0,56,4.003906,4)"> <stop offset="0" style="stop-color:#ff6666;stop-opacity:1;"/> <stop offset="1" style="stop-color:#d90000;stop-opacity:1;"/> </linearGradient> </defs>
<g id="surface1">
<path style=" stroke:none;fill-rule:evenodd;fill:url(#linear0);fill-opacity:1;" d="M 9.980469 8.21875 L 6.882812 44.28125 L 18.996094 44.28125 L 21.230469 46.507812 L 6.882812 46.507812 L 6.882812 56.128906 L 57.230469 56.128906 L 57.230469 46.507812 L 40.960938 46.507812 L 43.199219 44.28125 L 57.230469 44.28125 L 54.472656 8.21875 L 9.980469 8.21875 M 17.960938 15.285156 L 46.890625 15.285156 L 49.429688 38.183594 L 14.929688 38.183594 L 17.960938 15.285156 M 22.84375 17.402344 L 29.996094 26.988281 L 22.84375 36.070312 L 24.480469 36.070312 L 33.191406 25.160156 L 27.46875 17.402344 L 22.84375 17.402344 M 39.835938 17.402344 L 31.117188 28.371094 L 36.890625 36.070312 L 41.507812 36.070312 L 34.367188 26.40625 L 41.507812 17.402344 L 39.832031 17.402344 M 8.953125 48.863281 L 55.15625 48.863281 L 55.15625 53.777344 L 8.953125 53.777344 Z M 8.953125 48.863281 "/>
</g>
</svg>
