<svg xmlns="http://www.w3.org/2000/svg" xmlns:xlink="http://www.w3.org/1999/xlink" width="64" height="64" viewBox="0 0 64 64" version="1.1">
<defs>
<linearGradient id="linear0" gradientUnits="userSpaceOnUse" x1="0" y1="0" x2="0" y2="1" gradientTransform="matrix(64,0,0,43.445312,0,10.277344)">
<stop offset="0" style="stop-color:#ff6666;stop-opacity:1;"/>
<stop offset="1" style="stop-color:#d90000;stop-opacity:1;"/>
</linearGradient>
</defs>
<g id="surface1">
<path style=" stroke:none;fill-rule:nonzero;fill:url(#linear0);" d="M 58.789062 10.28125 C 56.726562 10.316406 54.402344 10.582031 52.671875 11.242188 C 49.445312 12.476562 46.347656 15.875 42.476562 21.601562 C 40.222656 24.933594 38.523438 26.949219 36.984375 28.0625 C 35.445312 29.175781 34.066406 29.523438 31.882812 29.515625 C 29.703125 29.507812 28.417969 29.175781 26.765625 27.882812 C 25.113281 26.589844 23.140625 24.199219 20.304688 20.15625 C 17.621094 16.328125 15.648438 13.902344 13.359375 12.375 C 11.070312 10.847656 8.558594 10.394531 5.351562 10.351562 C 3.824219 10.332031 2.890625 10.324219 2.101562 10.460938 C 1.707031 10.53125 1.304688 10.617188 0.867188 10.96875 C 0.429688 11.320312 0.15625 12.015625 0.15625 12.460938 C 0.15625 12.980469 0.503906 13.660156 0.914062 13.976562 C 1.324219 14.292969 1.699219 14.398438 2.101562 14.492188 C 2.90625 14.683594 3.910156 14.765625 5.476562 14.859375 C 8.410156 15.035156 9.859375 15.324219 11.46875 16.53125 C 13.078125 17.738281 14.9375 20.085938 17.960938 24.421875 C 20.609375 28.222656 22.976562 30.476562 25.3125 31.921875 C 22.988281 33.363281 20.625 35.597656 18.023438 39.328125 C 15.027344 43.625 13.011719 46.089844 11.273438 47.382812 C 9.535156 48.675781 8.054688 48.984375 5.382812 48.984375 C 3.632812 48.984375 2.503906 49.007812 1.46875 49.414062 C 0.953125 49.617188 0.296875 50.054688 0.078125 50.828125 C -0.140625 51.601562 0.140625 52.238281 0.414062 52.679688 C 0.902344 53.472656 1.382812 53.46875 1.75 53.554688 C 2.117188 53.640625 2.480469 53.679688 2.882812 53.703125 C 3.691406 53.746094 4.644531 53.707031 5.664062 53.625 C 7.703125 53.457031 9.859375 53.148438 11.359375 52.523438 C 14.375 51.261719 16.96875 48.578125 20.28125 43.734375 C 23 39.761719 24.96875 37.363281 26.671875 36.039062 C 28.375 34.714844 29.761719 34.335938 31.976562 34.335938 C 34.191406 34.335938 35.578125 34.714844 37.28125 36.039062 C 38.984375 37.363281 40.953125 39.761719 43.671875 43.734375 C 46.917969 48.480469 49.613281 51.332031 52.539062 52.554688 C 53.921875 53.132812 55.902344 53.394531 57.867188 53.554688 C 58.851562 53.632812 59.792969 53.667969 60.601562 53.640625 C 61.003906 53.628906 61.378906 53.605469 61.726562 53.546875 C 62.074219 53.488281 62.386719 53.464844 62.867188 53.132812 C 63.351562 52.800781 63.976562 52.382812 64 51.351562 C 64.011719 50.835938 63.753906 50.324219 63.476562 50.039062 C 63.199219 49.753906 62.921875 49.613281 62.65625 49.5 C 61.59375 49.050781 60.367188 48.984375 58.570312 48.984375 C 55.875 48.984375 54.378906 48.679688 52.664062 47.414062 C 50.949219 46.148438 48.984375 43.738281 46.070312 39.523438 C 43.039062 35.140625 41.117188 33.242188 38.898438 32.03125 C 39.105469 31.890625 39.257812 31.773438 39.492188 31.625 C 40.988281 30.675781 42.78125 28.816406 44.046875 27.078125 C 45.195312 25.5 47.265625 22.636719 48.65625 20.703125 C 49.960938 18.894531 52.105469 16.65625 52.78125 16.1875 C 53.585938 15.628906 53.972656 15.414062 54.648438 15.242188 C 55.324219 15.070312 56.367188 14.960938 58.195312 14.859375 C 59.882812 14.765625 60.949219 14.683594 61.78125 14.5 C 62.199219 14.40625 62.578125 14.308594 63 14 C 63.421875 13.691406 63.796875 12.992188 63.796875 12.460938 C 63.796875 12.019531 63.597656 11.585938 63.375 11.328125 C 63.152344 11.070312 62.929688 10.933594 62.726562 10.828125 C 62.324219 10.617188 61.964844 10.535156 61.5625 10.460938 C 60.761719 10.3125 59.820312 10.265625 58.789062 10.28125 Z M 58.789062 10.28125 "/>
</g>
</svg>
