<svg xmlns="http://www.w3.org/2000/svg" xmlns:xlink="http://www.w3.org/1999/xlink" width="64" height="64" viewBox="0 0 64 64" version="1.1">
<defs>
<linearGradient id="linear0" gradientUnits="userSpaceOnUse" x1="0" y1="0" x2="0" y2="1" gradientTransform="matrix(64,0,0,59.070313,0,2.464844)">
<stop offset="0" style="stop-color:#ff6666;stop-opacity:1;"/>
<stop offset="1" style="stop-color:#d90000;stop-opacity:1;"/>
</linearGradient>
</defs>
<g id="surface1">
<path style=" stroke:none;fill-rule:evenodd;fill:url(#linear0);" d="M 22.226562 31.820312 L 17.289062 34.527344 L 23.648438 27.324219 C 21.71875 27.480469 18.585938 28.164062 14.828125 29.605469 L 39.449219 14.828125 L 40.734375 15.617188 C 42.222656 15.179688 43.546875 14.902344 44.742188 14.84375 L 44.738281 14.84375 C 46.730469 14.738281 47.910156 15.957031 49.296875 17.292969 C 40.460938 17.78125 40.210938 21.632812 40.332031 22.644531 C 43.066406 22.652344 46.910156 22.703125 48.0625 23.449219 C 36.613281 26.863281 36.785156 33.785156 36.984375 34.859375 C 37.734375 43.351562 43.984375 44.613281 51.761719 44.546875 C 51.976562 44.539062 52.152344 44.5625 52.316406 44.59375 C 56.558594 39.628906 59.074219 33.167969 59.074219 26.414062 C 59.074219 16.34375 54 7.589844 45.53125 2.984375 L 45.863281 2.664062 C 56.59375 7.644531 64 18.257812 64 30.554688 C 64 47.664062 49.671875 61.535156 32.003906 61.535156 C 14.328125 61.535156 0 47.664062 0 30.554688 C 0 18.101562 7.59375 7.382812 18.535156 2.46875 L 18.535156 2.464844 C 18.597656 2.59375 18.679688 2.726562 18.734375 2.851562 C 10.128906 7.40625 4.925781 16.234375 4.925781 26.414062 C 4.925781 33.507812 7.699219 40.277344 12.316406 45.339844 C 12.402344 45.515625 20.753906 39.5 22.226562 31.820312 Z M 37.359375 17.835938 C 37.929688 18.0625 38 18.40625 38.101562 18.785156 C 37.117188 18.972656 35.722656 19.421875 35.335938 18.910156 C 35.160156 18.734375 36.367188 18.09375 37.371094 17.847656 Z M 37.359375 17.835938 "/>
</g>
</svg>
