<svg xmlns="http://www.w3.org/2000/svg" xmlns:xlink="http://www.w3.org/1999/xlink" width="64" height="64" viewBox="0 0 64 64" version="1.1">
<defs>
<linearGradient id="linear0" gradientUnits="userSpaceOnUse" x1="0" y1="0" x2="0" y2="1" gradientTransform="matrix(64,0,0,63.96875,0,0.015625)">
<stop offset="0" style="stop-color:#ff6666;stop-opacity:1;"/>
<stop offset="1" style="stop-color:#d90000;stop-opacity:1;"/>
</linearGradient>
</defs>
<g id="surface1">
<path style=" stroke:none;fill-rule:nonzero;fill:url(#linear0);" d="M 58.355469 0.0273438 C 58.074219 0.0898438 57.816406 0.230469 57.621094 0.445312 L 30.511719 27.484375 C 29.960938 28.035156 29.960938 28.929688 30.511719 29.480469 L 34.644531 33.605469 C 34.90625 33.867188 35.269531 34.015625 35.644531 34.015625 C 36.019531 34.015625 36.378906 33.863281 36.644531 33.601562 L 63.59375 6.4375 C 64.140625 5.882812 64.136719 4.996094 63.585938 4.449219 L 59.617188 0.445312 C 59.347656 0.179688 58.992188 0.0273438 58.617188 0.0273438 C 58.53125 0.0117188 58.445312 0.0117188 58.355469 0.0273438 Z M 26.886719 29.609375 C 26.53125 29.597656 26.1875 29.71875 25.914062 29.953125 L 10.394531 43.164062 C 10.097656 43.421875 9.914062 43.789062 9.894531 44.179688 C 9.878906 44.574219 10.027344 44.957031 10.308594 45.234375 L 10.742188 45.671875 C 8.125 48.347656 0.117188 56.9375 0.0273438 62.550781 L 0 63.984375 L 1.433594 63.984375 C 7.222656 63.984375 15.691406 55.9375 18.347656 53.28125 L 18.769531 53.699219 C 19.03125 53.964844 19.390625 54.113281 19.765625 54.113281 L 19.832031 54.113281 C 20.226562 54.09375 20.597656 53.90625 20.851562 53.605469 L 33.898438 37.902344 C 34.367188 37.339844 34.324219 36.519531 33.8125 36.007812 L 27.828125 30.023438 C 27.578125 29.773438 27.242188 29.625 26.886719 29.609375 Z M 12.722656 47.65625 L 16.367188 51.296875 C 13.316406 54.300781 7.359375 59.53125 3.183594 60.855469 C 4.554688 56.753906 9.742188 50.753906 12.722656 47.65625 Z M 12.722656 47.65625 "/>
</g>
</svg>
