<svg xmlns="http://www.w3.org/2000/svg" xmlns:xlink="http://www.w3.org/1999/xlink" width="64" height="64" viewBox="0 0 64 64" version="1.1">
<defs> <linearGradient id="linear0" gradientUnits="userSpaceOnUse" x1="0" y1="0" x2="0" y2="1" gradientTransform="matrix(55.992188,0,0,56,4.003906,4)"> <stop offset="0" style="stop-color:#ff6666;stop-opacity:1;"/> <stop offset="1" style="stop-color:#d90000;stop-opacity:1;"/> </linearGradient> </defs>
<g id="surface1">
<path style=" stroke:none;fill-rule:evenodd;fill:url(#linear0);fill-opacity:1;" d="M 14.246094 6.824219 C 12.996094 6.855469 11.519531 6.972656 9.855469 7.183594 C 7.433594 7.480469 7.121094 7.644531 7.121094 8.652344 C 7.121094 9.640625 7.433594 9.824219 9.417969 10.050781 C 10.714844 10.191406 12.101562 10.707031 12.609375 11.226562 C 14.148438 12.792969 20.023438 22.734375 23.367188 29.449219 L 26.542969 35.832031 L 26.542969 44.417969 C 26.542969 52.765625 26.507812 53.03125 25.417969 53.792969 C 24.804688 54.222656 23.457031 54.804688 22.429688 55.082031 C 21.078125 55.445312 20.5625 55.847656 20.5625 56.554688 C 20.5625 57.488281 20.960938 57.53125 30.023438 57.53125 C 39.09375 57.53125 39.484375 57.488281 39.484375 56.554688 C 39.484375 55.847656 38.96875 55.445312 37.617188 55.082031 C 36.59375 54.804688 35.246094 54.222656 34.628906 53.792969 C 33.542969 53.035156 33.511719 52.765625 33.511719 44.59375 L 33.511719 36.160156 L 36.171875 31.09375 C 37.636719 28.3125 40.433594 22.902344 42.378906 19.0625 C 44.328125 15.230469 46.339844 11.710938 46.851562 11.253906 C 47.355469 10.800781 48.648438 10.121094 49.722656 9.753906 C 51.074219 9.292969 51.734375 8.753906 51.839844 8.019531 C 52 6.960938 51.910156 6.949219 44.214844 6.949219 C 36.585938 6.949219 36.433594 6.96875 36.59375 7.984375 C 36.703125 8.6875 37.367188 9.242188 38.644531 9.675781 C 39.695312 10.03125 40.699219 10.480469 40.886719 10.664062 C 41.277344 11.0625 31.890625 29.507812 31.300781 29.507812 C 31.085938 29.507812 29.273438 26.324219 27.269531 22.429688 C 23.355469 14.804688 19.566406 8.464844 18.289062 7.414062 C 17.761719 6.972656 16.324219 6.773438 14.246094 6.824219 M 59.703125 38.621094 L 55.480469 50.570312 L 58.203125 50.570312 L 59.078125 47.738281 L 63.433594 47.738281 L 64.308594 50.570312 L 67.027344 50.570312 L 62.796875 38.621094 L 59.703125 38.621094 M 36.308594 38.671875 L 36.308594 50.570312 L 38.847656 50.570312 L 38.847656 46.339844 L 39.921875 46.339844 C 41.402344 46.339844 42.554688 45.996094 43.355469 45.316406 C 44.167969 44.636719 44.554688 43.671875 44.554688 42.386719 C 44.554688 41.152344 44.179688 40.214844 43.417969 39.597656 C 42.671875 38.976562 41.574219 38.671875 40.125 38.671875 L 36.308594 38.671875 M 46.84375 38.671875 L 46.84375 50.570312 L 49.382812 50.570312 L 49.382812 46.339844 L 50.457031 46.339844 C 51.9375 46.339844 53.089844 45.996094 53.898438 45.316406 C 54.703125 44.636719 55.09375 43.671875 55.09375 42.386719 C 55.09375 41.152344 54.714844 40.214844 53.960938 39.597656 C 53.203125 38.976562 52.109375 38.671875 50.660156 38.671875 L 46.84375 38.671875 M 61.257812 40.464844 C 61.296875 40.660156 61.375 40.921875 61.472656 41.253906 C 61.574219 41.59375 62.023438 43.058594 62.824219 45.628906 L 59.710938 45.628906 C 60.566406 42.882812 61.074219 41.160156 61.257812 40.46875 M 38.847656 40.730469 L 39.996094 40.730469 C 40.6875 40.730469 41.1875 40.882812 41.507812 41.164062 C 41.835938 41.449219 42.003906 41.871094 42.003906 42.464844 C 42.003906 43.054688 41.816406 43.507812 41.425781 43.8125 C 41.039062 44.117188 40.449219 44.265625 39.671875 44.265625 L 38.847656 44.265625 L 38.847656 40.730469 M 49.382812 40.730469 L 50.535156 40.730469 C 51.222656 40.730469 51.722656 40.882812 52.039062 41.164062 C 52.371094 41.449219 52.539062 41.871094 52.539062 42.464844 C 52.539062 43.054688 52.351562 43.507812 51.964844 43.8125 C 51.574219 44.117188 50.984375 44.265625 50.207031 44.265625 L 49.382812 44.265625 L 49.382812 40.730469 "/>
</g>
</svg>
