<svg xmlns="http://www.w3.org/2000/svg" xmlns:xlink="http://www.w3.org/1999/xlink" width="64" height="64" viewBox="0 0 64 64" version="1.1">
<defs> <linearGradient id="linear0" gradientUnits="userSpaceOnUse" x1="0" y1="0" x2="0" y2="1" gradientTransform="matrix(55.992188,0,0,56,4.003906,4)"> <stop offset="0" style="stop-color:#ff6666;stop-opacity:1;"/> <stop offset="1" style="stop-color:#d90000;stop-opacity:1;"/> </linearGradient> </defs>
<g id="surface1">
<path style=" stroke:none;fill-rule:nonzero;fill:url(#linear0);fill-opacity:1;" d="M 21.890625 5.585938 C 24.429688 8.132812 24.410156 10.15625 24.410156 13.214844 L 24.410156 19.550781 C 15.535156 22.515625 9.1875 30.5 9.1875 39.921875 C 9.1875 48.003906 13.890625 55.050781 20.839844 58.757812 L 43.273438 58.757812 C 50.222656 55.050781 54.925781 48.003906 54.925781 39.921875 C 54.925781 30.523438 48.554688 22.542969 39.683594 19.550781 L 39.683594 13.214844 C 39.683594 10.175781 39.664062 8.136719 42.203125 5.585938 Z M 34.917969 26.46875 C 36.496094 26.46875 37.773438 27.738281 37.773438 29.3125 C 37.773438 30.882812 36.496094 32.15625 34.917969 32.15625 C 33.339844 32.15625 32.0625 30.871094 32.0625 29.3125 C 32.0625 27.738281 33.339844 26.46875 34.917969 26.46875 Z M 30.628906 35.007812 C 31.949219 35.007812 33.011719 36.074219 33.011719 37.375 C 33.011719 38.6875 31.949219 39.75 30.628906 39.75 C 29.3125 39.75 28.25 38.683594 28.25 37.375 C 28.25 36.0625 29.3125 35.007812 30.628906 35.007812 Z M 35.871094 41.644531 C 36.921875 41.644531 37.773438 42.5 37.773438 43.546875 C 37.773438 44.59375 36.921875 45.441406 35.871094 45.441406 C 34.820312 45.441406 33.964844 44.59375 33.964844 43.546875 C 33.964844 42.496094 34.820312 41.644531 35.871094 41.644531 Z M 33.488281 48.292969 C 34.277344 48.292969 34.917969 48.925781 34.917969 49.710938 C 34.917969 50.496094 34.277344 51.136719 33.488281 51.136719 C 32.699219 51.136719 32.0625 50.496094 32.0625 49.710938 C 32.0625 48.925781 32.699219 48.292969 33.488281 48.292969 Z M 36.828125 53.035156 C 37.355469 53.035156 37.773438 53.453125 37.773438 53.980469 C 37.773438 54.507812 37.355469 54.929688 36.828125 54.929688 C 36.296875 54.929688 35.871094 54.5 35.871094 53.980469 C 35.871094 53.453125 36.296875 53.035156 36.828125 53.035156 Z M 36.828125 53.035156 "/>
</g>
</svg>
