<svg xmlns="http://www.w3.org/2000/svg" xmlns:xlink="http://www.w3.org/1999/xlink" width="64" height="64" viewBox="0 0 64 64" version="1.1">
<defs> <linearGradient id="linear0" gradientUnits="userSpaceOnUse" x1="0" y1="0" x2="0" y2="1" gradientTransform="matrix(55.992188,0,0,56,4.003906,4)"> <stop offset="0" style="stop-color:#ff6666;stop-opacity:1;"/> <stop offset="1" style="stop-color:#d90000;stop-opacity:1;"/> </linearGradient> </defs>
<g id="surface1">
<path style=" stroke:none;fill-rule:nonzero;fill:url(#linear0);fill-opacity:1;" d="M 52.085938 14.753906 L 52.175781 39.175781 L 56.355469 39.730469 L 62.15625 16.113281 Z M 24.792969 15.488281 C 12.179688 15.488281 1.957031 23.113281 1.957031 32.53125 C 1.957031 41.945312 12.179688 49.59375 24.792969 49.59375 C 37.40625 49.59375 47.628906 41.945312 47.628906 32.53125 C 47.628906 23.113281 37.40625 15.488281 24.792969 15.488281 Z M 10.453125 24.460938 L 23.941406 24.640625 L 23.753906 25.628906 L 19.597656 25.953125 L 25.53125 33.910156 C 25.53125 33.910156 30.960938 29.582031 31.003906 28.898438 C 30.660156 28.621094 27.496094 28.367188 27.496094 28.367188 L 27.195312 26.964844 L 38.761719 27.03125 L 37.980469 28.390625 L 34.582031 28.964844 C 34.582031 28.964844 29.578125 32.449219 26.78125 35.542969 C 26.570312 37.558594 26.847656 41.011719 26.847656 41.011719 L 31.117188 41.132812 C 31.117188 41.132812 31.0625 42.261719 31.097656 42.4375 C 31.027344 42.285156 17.871094 42.554688 17.871094 42.554688 L 18.164062 41.152344 C 18.164062 41.152344 21.679688 41.308594 22.253906 40.554688 L 22.164062 35.703125 C 21.265625 33.964844 15.394531 27.191406 14.332031 26.273438 L 10.476562 25.769531 Z M 51.28125 41.867188 L 50.609375 46.691406 L 55.714844 47.523438 L 56.476562 42.4375 Z M 51.28125 41.867188 "/>
</g>
</svg>
