<svg xmlns="http://www.w3.org/2000/svg" xmlns:xlink="http://www.w3.org/1999/xlink" width="64" height="64" viewBox="0 0 64 64" version="1.1">
<defs> <linearGradient id="linear0" gradientUnits="userSpaceOnUse" x1="0" y1="0" x2="0" y2="1" gradientTransform="matrix(55.992188,0,0,56,4.003906,4)"> <stop offset="0" style="stop-color:#ff6666;stop-opacity:1;"/> <stop offset="1" style="stop-color:#d90000;stop-opacity:1;"/> </linearGradient> </defs>
<g id="surface1">
<path style=" stroke:none;fill-rule:nonzero;fill:url(#linear0);fill-opacity:1;" d="M 31.421875 -8.070312 C 20.714844 -8.070312 11.1875 -4.265625 3.746094 3.136719 L 3.746094 40.796875 L 59.96875 40.796875 L 59.96875 4.027344 C 54.511719 -2.75 43.164062 -8.5625 31.421875 -8.070312 Z M 19.527344 3.300781 L 21.179688 3.300781 L 21.179688 7.113281 C 22.203125 7.160156 23.195312 7.273438 24.15625 7.449219 C 25.109375 7.613281 26.046875 7.839844 26.960938 8.136719 L 26.960938 11.015625 C 26.046875 10.554688 25.105469 10.195312 24.140625 9.949219 C 23.179688 9.691406 22.191406 9.546875 21.179688 9.5 L 21.179688 16.523438 C 23.679688 16.910156 25.519531 17.59375 26.695312 18.582031 C 27.875 19.566406 28.46875 20.917969 28.46875 22.628906 C 28.46875 24.480469 27.835938 25.945312 26.582031 27.019531 C 25.335938 28.085938 23.539062 28.695312 21.179688 28.859375 L 21.179688 33.839844 L 19.527344 33.839844 L 19.511719 28.894531 C 18.359375 28.871094 17.199219 28.742188 16.046875 28.496094 C 14.886719 28.25 13.722656 27.875 12.558594 27.378906 L 12.558594 24.417969 C 13.683594 25.121094 14.816406 25.652344 15.960938 26.015625 C 17.121094 26.363281 18.308594 26.546875 19.527344 26.558594 L 19.527344 19.058594 C 17.097656 18.664062 15.324219 17.996094 14.210938 17.050781 C 13.109375 16.105469 12.558594 14.816406 12.558594 13.171875 C 12.558594 11.382812 13.160156 9.976562 14.359375 8.941406 C 15.558594 7.910156 17.285156 7.316406 19.527344 7.164062 Z M 19.527344 9.484375 C 18.25 9.632812 17.277344 9.988281 16.601562 10.570312 C 15.933594 11.152344 15.597656 11.925781 15.597656 12.886719 C 15.597656 13.832031 15.90625 14.566406 16.523438 15.09375 C 17.148438 15.621094 18.152344 16 19.527344 16.230469 Z M 21.179688 19.386719 L 21.179688 26.507812 C 22.578125 26.320312 23.628906 25.929688 24.332031 25.324219 C 25.054688 24.71875 25.410156 23.929688 25.410156 22.9375 C 25.410156 21.976562 25.066406 21.207031 24.382812 20.636719 C 23.714844 20.066406 22.644531 19.652344 21.179688 19.386719 Z M 41.726562 34.488281 L 59.296875 34.488281 L 59.296875 36.839844 L 41.726562 36.839844 Z M 41.726562 34.488281 "/>
<path style=" stroke:none;fill-rule:evenodd;fill:url(#linear0);fill-opacity:1;" d="M 0.914062 37.898438 L 0.914062 40.785156 L 63.199219 40.785156 L 63.199219 37.890625 L 0.914062 37.890625 "/>
</g>
</svg>
