<svg xmlns="http://www.w3.org/2000/svg" xmlns:xlink="http://www.w3.org/1999/xlink" width="64" height="64" viewBox="0 0 64 64" version="1.1">
<defs> <linearGradient id="linear0" gradientUnits="userSpaceOnUse" x1="0" y1="0" x2="0" y2="1" gradientTransform="matrix(55.992188,0,0,56,4.003906,4)"> <stop offset="0" style="stop-color:#ff6666;stop-opacity:1;"/> <stop offset="1" style="stop-color:#d90000;stop-opacity:1;"/> </linearGradient> </defs>
<g id="surface1">
<path style=" stroke:none;fill-rule:nonzero;fill:url(#linear0);fill-opacity:1;" d="M 14.636719 8.460938 L 17.058594 16.523438 L 20.9375 21.132812 C 19.503906 21.378906 18.300781 21.878906 17.210938 22.519531 C 15.84375 23.71875 15.082031 25.222656 14.480469 26.8125 L 10.125 30.1875 C 9.890625 29.992188 9.714844 30.15625 9.527344 30.226562 C 8.863281 30.617188 8.136719 30.957031 7.75 31.578125 C 7.039062 33.402344 8.238281 34.382812 9 35.515625 C 9.488281 36.042969 10.582031 36.707031 11.628906 36.777344 L 20.261719 32.570312 L 24.972656 31.699219 C 24.152344 37.414062 24.226562 43.640625 24.066406 49.726562 L 21.574219 53.902344 L 20.976562 54.375 L 35.945312 53.226562 L 41.765625 55.878906 L 43.589844 55.09375 L 47.316406 54.890625 L 46.519531 53.863281 L 49.332031 53.738281 L 49.171875 55.207031 L 51.671875 53.777344 L 52.777344 53.777344 L 53.449219 54.375 L 54.679688 53.503906 L 56.578125 53.421875 C 55.480469 47.261719 54.789062 41.035156 54.164062 34.796875 C 54.039062 33.1875 53.910156 31.585938 53.488281 30.503906 C 52.488281 28.390625 51.1875 26.714844 49.648438 25.382812 C 47.722656 23.792969 45.730469 22.355469 43.511719 21.492188 C 41.546875 20.75 39.582031 21.265625 37.609375 21.648438 C 35.40625 22.144531 33.292969 22.898438 31.234375 23.835938 C 31.640625 22.882812 32.335938 21.972656 33.226562 21.5 C 34.445312 20.867188 35.492188 20.578125 36.773438 20.222656 C 37.929688 19.792969 38.65625 19.09375 39.433594 18.429688 C 41.566406 15.867188 43.410156 13.222656 45.214844 10.570312 C 41.964844 11.3125 38.71875 12.570312 35.46875 13.789062 C 33.414062 14.550781 31.566406 15.53125 30.007812 17.046875 L 26.679688 20.335938 C 25.929688 20.914062 25.554688 20.324219 25.132812 19.867188 L 22.679688 16.207031 L 14.636719 8.464844 M 31.515625 40.300781 L 34.230469 41.226562 L 36.648438 45.640625 L 34.3125 49.953125 L 32.074219 51.230469 C 32.074219 51.230469 30.488281 41.265625 30.574219 41.222656 C 30.660156 41.183594 31.515625 40.300781 31.515625 40.300781 M 46.609375 42.523438 L 48.632812 46.464844 L 49.070312 50.078125 L 46.230469 53.488281 C 46.230469 53.488281 44.265625 51.402344 44.324219 51.28125 C 44.386719 51.167969 45.851562 42.699219 45.851562 42.699219 L 46.609375 42.523438 "/>
</g>
</svg>
