<svg xmlns="http://www.w3.org/2000/svg" xmlns:xlink="http://www.w3.org/1999/xlink" width="64" height="64" viewBox="0 0 64 64" version="1.1">
<defs>
<linearGradient id="linear0" gradientUnits="userSpaceOnUse" x1="0" y1="0" x2="0" y2="1" gradientTransform="matrix(64,0,0,58.1875,0,2.90625)">
<stop offset="0" style="stop-color:#ff6666;stop-opacity:1;"/>
<stop offset="1" style="stop-color:#d90000;stop-opacity:1;"/>
</linearGradient>
</defs>
<g id="surface1">
<path style=" stroke:none;fill-rule:evenodd;fill:url(#linear0);" d="M 40.726562 20.363281 L 40.726562 55.273438 C 50.367188 55.273438 58.179688 47.457031 58.179688 37.820312 C 58.179688 28.179688 50.367188 20.363281 40.726562 20.363281 Z M 40.726562 14.542969 C 53.578125 14.542969 64 24.964844 64 37.820312 C 64 50.671875 53.578125 61.09375 40.726562 61.09375 L 34.90625 61.09375 L 34.90625 14.542969 Z M 23.273438 8.726562 L 23.273438 43.636719 C 13.632812 43.636719 5.820312 35.820312 5.820312 26.179688 C 5.820312 16.542969 13.632812 8.726562 23.273438 8.726562 Z M 23.273438 2.90625 C 10.421875 2.90625 0 13.328125 0 26.179688 C 0 39.035156 10.421875 49.457031 23.273438 49.457031 L 29.09375 49.457031 L 29.09375 2.90625 Z M 23.273438 2.90625 "/>
</g>
</svg>
