<svg xmlns="http://www.w3.org/2000/svg" xmlns:xlink="http://www.w3.org/1999/xlink" width="64" height="64" viewBox="0 0 64 64" version="1.1">
<defs>
<linearGradient id="linear0" gradientUnits="userSpaceOnUse" x1="0" y1="0" x2="0" y2="1" gradientTransform="matrix(64,0,0,54.351563,0,4.824219)">
<stop offset="0" style="stop-color:#ff6666;stop-opacity:1;"/>
<stop offset="1" style="stop-color:#d90000;stop-opacity:1;"/>
</linearGradient>
</defs>
<g id="surface1">
<path style=" stroke:none;fill-rule:evenodd;fill:url(#linear0);" d="M 31.101562 46.773438 L 0 46.773438 L 0 42.757812 L 24.328125 9.796875 L 1.378906 9.796875 L 1.378906 4.824219 L 31.101562 4.824219 L 31.101562 8.839844 L 6.890625 41.796875 L 31.101562 41.796875 Z M 49.558594 59.175781 L 47.039062 55.101562 C 51.476562 54.859375 54.542969 54.089844 56.238281 52.792969 C 57.9375 51.496094 58.789062 49.730469 58.789062 47.492188 L 58.789062 43.777344 C 56.992188 46.253906 54.351562 47.492188 50.875 47.492188 C 47.28125 47.492188 44.292969 46.09375 41.914062 43.296875 C 39.539062 40.5 38.351562 36.542969 38.351562 31.433594 C 38.351562 26.476562 39.519531 22.570312 41.855469 19.714844 C 44.195312 16.859375 47.261719 15.433594 51.054688 15.433594 C 54.253906 15.433594 56.832031 16.511719 58.789062 18.667969 L 58.789062 16.148438 L 64 16.148438 L 64 45.511719 C 64 50.1875 62.753906 53.5625 60.257812 55.640625 C 57.757812 57.71875 54.191406 58.894531 49.558594 59.175781 Z M 51.957031 42.636719 C 53.234375 42.636719 54.5 42.246094 55.761719 41.46875 C 57.019531 40.6875 58.027344 39.640625 58.789062 38.324219 L 58.789062 24.300781 C 58.066406 23.101562 57.050781 22.121094 55.730469 21.363281 C 54.410156 20.605469 53.152344 20.222656 51.957031 20.222656 C 49.238281 20.222656 47.171875 21.191406 45.753906 23.132812 C 44.332031 25.066406 43.625 27.835938 43.625 31.433594 C 43.625 34.90625 44.394531 37.644531 45.933594 39.640625 C 47.46875 41.636719 49.480469 42.636719 51.957031 42.636719 Z M 51.957031 42.636719 "/>
</g>
</svg>
