<svg xmlns="http://www.w3.org/2000/svg" xmlns:xlink="http://www.w3.org/1999/xlink" width="64" height="64" viewBox="0 0 64 64" version="1.1">
<defs> <linearGradient id="linear0" gradientUnits="userSpaceOnUse" x1="0" y1="0" x2="0" y2="1" gradientTransform="matrix(55.992188,0,0,56,4.003906,4)"> <stop offset="0" style="stop-color:#ff6666;stop-opacity:1;"/> <stop offset="1" style="stop-color:#d90000;stop-opacity:1;"/> </linearGradient> </defs>
<g id="surface1">
<path style=" stroke:none;fill-rule:nonzero;fill:url(#linear0);fill-opacity:1;" d="M 35.140625 14.550781 L 35.332031 12.425781 L 34.167969 11.84375 C 33.777344 11.648438 33.390625 11.257812 33.289062 10.773438 C 33.191406 10.292969 33.191406 9.804688 33.488281 9.421875 L 34.167969 8.351562 L 32.804688 6.609375 L 31.636719 7 C 31.152344 7.195312 30.664062 7.097656 30.273438 6.898438 C 29.886719 6.707031 29.597656 6.324219 29.398438 5.835938 L 29.109375 4.574219 L 26.96875 4.382812 L 26.382812 5.546875 C 26.191406 5.933594 25.804688 6.324219 25.316406 6.417969 C 24.828125 6.515625 24.34375 6.515625 23.953125 6.222656 L 22.882812 5.546875 L 21.230469 6.898438 L 21.617188 8.0625 C 21.8125 8.550781 21.714844 9.03125 21.523438 9.421875 C 21.328125 9.804688 20.9375 10.101562 20.453125 10.292969 L 19.1875 10.582031 L 18.996094 12.714844 L 20.160156 13.296875 C 20.550781 13.488281 20.9375 13.878906 21.03125 14.359375 C 21.136719 14.84375 21.136719 15.324219 20.839844 15.714844 L 20.160156 16.78125 L 21.523438 18.527344 L 22.691406 18.136719 C 23.175781 17.945312 23.664062 18.039062 24.046875 18.234375 C 24.441406 18.425781 24.730469 18.816406 24.929688 19.300781 L 25.21875 20.558594 L 27.359375 20.753906 L 27.9375 19.589844 C 28.136719 19.199219 28.523438 18.816406 29.011719 18.71875 C 29.496094 18.621094 29.984375 18.621094 30.375 18.910156 L 31.441406 19.589844 L 33.191406 18.234375 L 32.804688 17.074219 C 32.613281 16.585938 32.710938 16.101562 32.902344 15.714844 C 33.09375 15.324219 33.488281 15.039062 33.96875 14.84375 Z M 26.773438 16.101562 C 24.828125 15.910156 23.46875 14.167969 23.664062 12.226562 C 23.855469 10.292969 25.605469 8.933594 27.550781 9.128906 C 29.496094 9.324219 30.859375 11.066406 30.664062 13 C 30.472656 14.941406 28.714844 16.296875 26.773438 16.101562 Z M 26.773438 16.101562 "/>
<path style=" stroke:none;fill-rule:nonzero;fill:url(#linear0);fill-opacity:1;" d="M 48.855469 23.65625 L 48.855469 21.429688 L 47.683594 21.042969 C 47.203125 20.851562 46.90625 20.558594 46.714844 20.078125 C 46.519531 19.589844 46.519531 19.105469 46.714844 18.71875 L 47.296875 17.554688 L 45.644531 16.003906 L 44.476562 16.585938 C 44.089844 16.78125 43.503906 16.78125 43.113281 16.585938 C 42.628906 16.394531 42.335938 16.003906 42.140625 15.621094 L 41.75 14.453125 L 39.519531 14.453125 L 39.125 15.621094 C 38.933594 16.101562 38.636719 16.394531 38.15625 16.585938 C 37.667969 16.78125 37.183594 16.78125 36.792969 16.585938 L 35.621094 16.003906 L 34.066406 17.554688 L 34.652344 18.71875 C 34.84375 19.105469 34.84375 19.6875 34.652344 20.078125 C 34.457031 20.558594 34.066406 20.851562 33.679688 21.042969 L 32.511719 21.429688 L 32.511719 23.65625 L 33.679688 24.046875 C 34.167969 24.238281 34.457031 24.527344 34.652344 25.011719 C 34.84375 25.5 34.84375 25.980469 34.652344 26.371094 L 34.066406 27.53125 L 35.621094 29.078125 L 36.792969 28.503906 C 37.183594 28.304688 37.761719 28.304688 38.15625 28.503906 C 38.636719 28.695312 38.933594 29.078125 39.125 29.46875 L 39.519531 30.628906 L 41.75 30.628906 L 42.140625 29.46875 C 42.335938 28.984375 42.628906 28.695312 43.113281 28.503906 C 43.601562 28.304688 44.089844 28.304688 44.476562 28.503906 L 45.644531 29.078125 L 47.203125 27.53125 L 46.617188 26.371094 C 46.425781 25.980469 46.425781 25.402344 46.617188 25.011719 C 46.808594 24.527344 47.203125 24.238281 47.589844 24.046875 Z M 40.683594 26.078125 C 38.738281 26.078125 37.183594 24.527344 37.183594 22.59375 C 37.183594 20.652344 38.738281 19.105469 40.683594 19.105469 C 42.628906 19.105469 44.1875 20.652344 44.1875 22.59375 C 44.1875 24.527344 42.628906 26.078125 40.683594 26.078125 Z M 40.683594 26.078125 "/>
<path style=" stroke:none;fill-rule:nonzero;fill:url(#linear0);fill-opacity:1;" d="M 27.84375 31.019531 L 27.84375 27.824219 L 26.09375 27.242188 C 25.410156 27.050781 24.929688 26.46875 24.632812 25.882812 C 24.34375 25.207031 24.34375 24.527344 24.730469 23.855469 L 25.507812 22.203125 L 23.269531 19.980469 L 21.617188 20.851562 C 21.03125 21.140625 20.253906 21.140625 19.578125 20.949219 C 18.898438 20.652344 18.410156 20.171875 18.214844 19.492188 L 17.632812 17.753906 L 14.421875 17.753906 L 13.835938 19.492188 C 13.644531 20.171875 13.058594 20.652344 12.476562 20.949219 C 11.792969 21.234375 11.117188 21.234375 10.4375 20.851562 L 8.777344 20.078125 L 6.546875 22.304688 L 7.324219 23.949219 C 7.613281 24.527344 7.613281 25.300781 7.421875 25.980469 C 7.125 26.660156 6.640625 27.144531 5.960938 27.339844 L 4.207031 27.921875 L 4.207031 31.117188 L 5.960938 31.699219 C 6.640625 31.890625 7.125 32.472656 7.421875 33.054688 C 7.710938 33.734375 7.710938 34.40625 7.324219 35.085938 L 6.546875 36.730469 L 8.777344 38.960938 L 10.4375 38.183594 C 11.015625 37.898438 11.792969 37.898438 12.476562 38.089844 C 13.15625 38.382812 13.644531 38.863281 13.835938 39.542969 L 14.421875 41.1875 L 17.632812 41.1875 L 18.214844 39.445312 C 18.410156 38.765625 18.996094 38.28125 19.578125 37.992188 C 20.253906 37.703125 20.9375 37.703125 21.523438 38.089844 L 23.175781 38.863281 L 25.410156 36.636719 L 24.632812 34.988281 C 24.34375 34.40625 24.34375 33.632812 24.535156 32.960938 C 24.828125 32.28125 25.316406 31.792969 25.996094 31.601562 Z M 16.074219 34.605469 C 13.253906 34.605469 10.917969 32.28125 10.917969 29.46875 C 10.917969 26.660156 13.253906 24.335938 16.074219 24.335938 C 18.898438 24.335938 21.230469 26.660156 21.230469 29.46875 C 21.230469 32.28125 18.898438 34.605469 16.074219 34.605469 Z M 16.074219 34.605469 "/>
<path style=" stroke:none;fill-rule:nonzero;fill:url(#linear0);fill-opacity:1;" d="M 58.859375 38.910156 L 62.167969 35.617188 L 62.167969 49.753906 L 47.96875 49.753906 L 51.273438 46.464844 L 42.324219 37.550781 L 50.007812 29.898438 Z M 58.859375 38.910156 "/>
<path style=" stroke:none;fill-rule:nonzero;fill:url(#linear0);fill-opacity:1;" d="M 30.125 45.289062 L 26.917969 48.484375 L 26.820312 35.503906 L 26.820312 34.34375 L 41.113281 34.34375 L 37.808594 37.636719 L 46.757812 46.550781 L 39.074219 54.199219 Z M 30.125 45.289062 "/>
</g>
</svg>
