<svg xmlns="http://www.w3.org/2000/svg" xmlns:xlink="http://www.w3.org/1999/xlink" width="64" height="64" viewBox="0 0 64 64" version="1.1">
<defs>
<linearGradient id="linear0" gradientUnits="userSpaceOnUse" x1="0" y1="0" x2="0" y2="1" gradientTransform="matrix(60.570313,0,0,60.632813,1.714844,3.367188)">
<stop offset="0" style="stop-color:#ff6666;stop-opacity:1;"/>
<stop offset="1" style="stop-color:#d90000;stop-opacity:1;"/>
</linearGradient>
<linearGradient id="linear1" gradientUnits="userSpaceOnUse" x1="0" y1="0" x2="0" y2="1" gradientTransform="matrix(35.429688,0,0,6.855469,14.285156,0)">
<stop offset="0" style="stop-color:#ff6666;stop-opacity:1;"/>
<stop offset="1" style="stop-color:#d90000;stop-opacity:1;"/>
</linearGradient>
<linearGradient id="linear2" gradientUnits="userSpaceOnUse" x1="0" y1="0" x2="0" y2="1" gradientTransform="matrix(35.203125,0,0,33.140625,16.570312,25.144531)">
<stop offset="0" style="stop-color:#ff6666;stop-opacity:1;"/>
<stop offset="1" style="stop-color:#d90000;stop-opacity:1;"/>
</linearGradient>
</defs>
<g id="surface1">
<path style=" stroke:none;fill-rule:evenodd;fill:url(#linear0);" d="M 62.066406 58.949219 C 62.90625 61.304688 61.226562 64 58.53125 64 L 5.527344 64 C 2.835938 64 0.984375 61.472656 1.992188 58.949219 L 18.855469 16.84375 L 18.855469 3.367188 L 45.144531 3.367188 L 45.144531 16.84375 Z M 59.441406 59.921875 C 59.480469 60 59.480469 60.121094 59.480469 60.199219 C 59.480469 60.480469 59.398438 60.71875 59.199219 60.921875 C 59.039062 61.078125 58.800781 61.199219 58.519531 61.199219 L 5.519531 61.199219 C 5.519531 61.199219 5.480469 61.199219 5.480469 61.199219 C 5.238281 61.199219 5 61.121094 4.800781 60.960938 C 4.640625 60.800781 4.519531 60.558594 4.519531 60.320312 C 4.519531 60.238281 4.558594 60.121094 4.601562 60 L 21.640625 17.398438 L 21.640625 6.160156 L 42.359375 6.160156 L 42.359375 17.398438 Z M 59.441406 59.921875 "/>
<path style=" stroke:none;fill-rule:nonzero;fill:url(#linear1);" d="M 46.171875 6.855469 L 17.828125 6.855469 C 15.878906 6.855469 14.285156 5.316406 14.285156 3.429688 C 14.285156 1.542969 15.878906 0 17.828125 0 L 46.171875 0 C 48.121094 0 49.714844 1.542969 49.714844 3.429688 C 49.714844 5.316406 48.121094 6.855469 46.171875 6.855469 Z M 46.171875 6.855469 "/>
<path style=" stroke:none;fill-rule:nonzero;fill:url(#linear2);" d="M 25.976562 37.347656 C 20.9375 34.570312 17.714844 29.957031 17.714844 29.957031 C 17.714844 29.957031 25.03125 24.019531 32.953125 25.332031 C 40.773438 26.632812 46.152344 34.195312 46.253906 34.339844 C 46.285156 34.34375 46.285156 34.34375 46.285156 34.34375 C 46.285156 34.34375 46.285156 34.34375 46.285156 34.386719 C 46.285156 34.34375 46.285156 34.34375 46.285156 34.386719 C 46.285156 34.511719 46.179688 41.121094 39.824219 45.570312 C 46.535156 47.898438 51.773438 52.039062 51.773438 52.039062 C 51.773438 52.039062 45.59375 58.808594 35.722656 58.253906 C 26.132812 57.710938 17.078125 50.546875 16.699219 50.242188 C 16.574219 50.234375 16.570312 50.234375 16.570312 50.234375 C 16.570312 50.234375 16.355469 42.46875 24.660156 38.003906 C 25.089844 37.773438 25.527344 37.554688 25.976562 37.347656 Z M 25.976562 37.347656 "/>
</g>
</svg>
