<svg xmlns="http://www.w3.org/2000/svg" xmlns:xlink="http://www.w3.org/1999/xlink" width="64" height="64" viewBox="0 0 64 64" version="1.1">
<defs>
<linearGradient id="linear0" gradientUnits="userSpaceOnUse" x1="0" y1="0" x2="0" y2="1" gradientTransform="matrix(55.585938,0,0,63.726562,4.207031,0.398438)">
<stop offset="0" style="stop-color:#ff6666;stop-opacity:1;"/>
<stop offset="1" style="stop-color:#d90000;stop-opacity:1;"/>
</linearGradient>
</defs>
<g id="surface1">
<path style=" stroke:none;fill-rule:evenodd;fill:url(#linear0);" d="M 12.238281 16.398438 L 32 5 L 51.761719 16.28125 L 32 27.761719 Z M 24.683594 54.648438 L 10.0625 45.636719 L 10.0625 42.871094 L 19.882812 36.34375 L 10.65625 30.65625 L 10.65625 27.21875 L 24.683594 35.871094 L 24.683594 38.632812 L 14.789062 45.113281 L 24.683594 51.210938 Z M 32 0.398438 L 59.792969 15.988281 L 59.792969 48.078125 L 32 64.125 L 4.207031 48.078125 L 4.207031 16.378906 Z M 46.664062 50.855469 C 45.25 51.726562 44.015625 52.203125 42.960938 52.292969 C 41.90625 52.378906 41.085938 52.125 40.492188 51.53125 C 39.902344 50.941406 39.46875 50.183594 39.191406 49.265625 C 38.914062 48.34375 38.777344 47.265625 38.777344 46.03125 C 38.777344 44.886719 38.917969 43.6875 39.203125 42.429688 C 39.492188 41.167969 39.929688 39.871094 40.519531 38.535156 C 41.109375 37.199219 41.933594 35.902344 42.988281 34.652344 C 44.042969 33.402344 45.269531 32.347656 46.664062 31.488281 C 48.34375 30.449219 49.761719 29.988281 50.914062 30.101562 C 52.066406 30.210938 52.886719 30.710938 53.367188 31.59375 L 50.125 35.066406 C 49.621094 34.609375 49.113281 34.359375 48.597656 34.320312 C 48.074219 34.28125 47.433594 34.5 46.664062 34.976562 C 45.679688 35.582031 44.863281 36.421875 44.207031 37.496094 C 43.554688 38.566406 43.113281 39.617188 42.878906 40.648438 C 42.648438 41.675781 42.53125 42.699219 42.53125 43.71875 C 42.53125 45.347656 42.886719 46.566406 43.59375 47.382812 C 44.296875 48.199219 45.324219 48.195312 46.664062 47.367188 C 47.96875 46.5625 49.101562 45.058594 50.066406 42.855469 L 53.394531 42.0625 C 52 46.019531 49.757812 48.949219 46.664062 50.855469 Z M 46.664062 50.855469 "/>
</g>
</svg>
