<svg xmlns="http://www.w3.org/2000/svg" xmlns:xlink="http://www.w3.org/1999/xlink" width="64" height="64" viewBox="0 0 64 64" version="1.1">
<defs>
<linearGradient id="linear0" gradientUnits="userSpaceOnUse" x1="0" y1="0" x2="0" y2="1" gradientTransform="matrix(55.585938,0,0,63.726562,4.207031,0.398438)">
<stop offset="0" style="stop-color:#ff6666;stop-opacity:1;"/>
<stop offset="1" style="stop-color:#d90000;stop-opacity:1;"/>
</linearGradient>
</defs>
<g id="surface1">
<path style=" stroke:none;fill-rule:evenodd;fill:url(#linear0);" d="M 12.238281 16.398438 L 32 5 L 51.761719 16.28125 L 32 27.761719 Z M 24.683594 54.648438 L 10.0625 45.636719 L 10.0625 42.871094 L 19.882812 36.34375 L 10.65625 30.65625 L 10.65625 27.21875 L 24.683594 35.871094 L 24.683594 38.632812 L 14.789062 45.113281 L 24.683594 51.210938 Z M 32 0.398438 L 59.792969 15.988281 L 59.792969 48.078125 L 32 64.125 L 4.207031 48.078125 L 4.207031 16.378906 Z M 53.5625 29.5 L 53.5625 45.203125 L 50.535156 47.070312 L 50.535156 38.996094 C 50.535156 38.652344 50.550781 38.230469 50.578125 37.730469 C 50.402344 38.367188 50.242188 38.875 50.109375 39.261719 L 46.296875 49.957031 L 42.457031 43.976562 C 42.324219 43.761719 42.167969 43.445312 41.988281 43.03125 C 42.015625 43.492188 42.03125 43.890625 42.03125 44.234375 L 42.03125 52.316406 L 39.003906 54.183594 L 39.003906 38.476562 L 42.074219 36.578125 L 45.9375 42.863281 C 46.054688 43.074219 46.191406 43.351562 46.339844 43.691406 C 46.488281 43.167969 46.625 42.722656 46.742188 42.363281 L 50.667969 31.285156 Z M 53.5625 29.5 "/>
</g>
</svg>
