<?xml version="1.0" encoding="UTF-8" standalone="no"?>
<svg
   width="32"
   height="32"
   viewBox="0 0 32 32"
   version="1.1"
   id="svg1"
   sodipodi:docname="applications-all-symbolic.svg"
   inkscape:version="1.3.2 (091e20ef0f, 2023-11-25)"
   xmlns:inkscape="http://www.inkscape.org/namespaces/inkscape"
   xmlns:sodipodi="http://sodipodi.sourceforge.net/DTD/sodipodi-0.dtd"
   xmlns:xlink="http://www.w3.org/1999/xlink"
   xmlns="http://www.w3.org/2000/svg"
   xmlns:svg="http://www.w3.org/2000/svg">
  <sodipodi:namedview
     id="namedview1"
     pagecolor="#ffffff"
     bordercolor="#999999"
     borderopacity="1"
     inkscape:showpageshadow="2"
     inkscape:pageopacity="0"
     inkscape:pagecheckerboard="0"
     inkscape:deskcolor="#d1d1d1"
     inkscape:zoom="7.9375"
     inkscape:cx="16.125984"
     inkscape:cy="16"
     inkscape:window-width="1920"
     inkscape:window-height="994"
     inkscape:window-x="0"
     inkscape:window-y="0"
     inkscape:window-maximized="1"
     inkscape:current-layer="svg1" />
  <defs
     id="defs1">
    <linearGradient
       inkscape:collect="always"
       xlink:href="#linearGradient851"
       id="linearGradient2"
       x1="29"
       y1="-99"
       x2="49"
       y2="-90"
       gradientUnits="userSpaceOnUse"
       gradientTransform="translate(-26,115.00001)" />
    <linearGradient
       inkscape:collect="always"
       id="linearGradient851">
      <stop
         style="stop-color:#ffc299;stop-opacity:1"
         offset="0"
         id="stop845" />
      <stop
         style="stop-color:#ff67ff;stop-opacity:1"
         offset="1"
         id="stop847" />
    </linearGradient>
    <linearGradient
       inkscape:collect="always"
       xlink:href="#linearGradient851"
       id="linearGradient3"
       x1="7.9998097"
       y1="16"
       x2="24.000191"
       y2="16"
       gradientUnits="userSpaceOnUse" />
    <linearGradient
       inkscape:collect="always"
       id="linearGradient4"
       x1="12.840668"
       y1="12.762223"
       x2="19.238361"
       y2="12.762223"
       gradientUnits="userSpaceOnUse">
      <stop
         style="stop-color:#ffc299;stop-opacity:1"
         offset="0"
         id="stop1" />
      <stop
         style="stop-color:#ff67ff;stop-opacity:1"
         offset="1"
         id="stop2" />
    </linearGradient>
    <linearGradient
       inkscape:collect="always"
       xlink:href="#linearGradient851"
       id="linearGradient5"
       x1="12.840668"
       y1="15.96107"
       x2="19.238361"
       y2="15.96107"
       gradientUnits="userSpaceOnUse" />
  </defs>
  <style
     type="text/css"
     id="current-color-scheme">
      .ColorScheme-Text {
        color:#eff0f1;
      }
      .ColorScheme-Background{
        color:#E9E8E8;
      }
      .ColorScheme-ViewText {
        color:#31363b;
      }
      .ColorScheme-ViewBackground{
        color:#ffffff;
      }
      .ColorScheme-ViewHover {
        color:#000000;
      }
      .ColorScheme-ViewFocus{
        color:#5a5a5a;
      }
      .ColorScheme-ButtonText {
        color:#31363b;
      }
      .ColorScheme-ButtonBackground{
        color:#E9E8E8;
      }
      .ColorScheme-ButtonHover {
        color:#1489ff;
      }
      .ColorScheme-ButtonFocus{
        color:#2B74C7;
      }
</style>
  <g
     id="applications-other">
    <path
       style="clip-rule:evenodd;fill:#ffffc1;fill-opacity:0;fill-rule:evenodd;stroke-width:1.00213;stroke-linejoin:round;stroke-miterlimit:1.41421"
       d="M 0,0 V 32 H 32 V 0 Z"
       id="rect817"
       inkscape:connector-curvature="0" />
    <path
       d="m 15.985308,29.000001 c -0.695195,0 -1.390382,-0.06043 -2.085568,-0.181302 C 6.8269348,27.67045 2.0210537,20.992477 3.1696308,13.921681 c 0.544058,-3.41453 2.418049,-6.4362401 5.229042,-8.4607801 2.8109842,-2.02454 6.2567012,-2.84041 9.6722012,-2.2965 7.072804,1.14825 11.908908,7.8262201 10.760329,14.8970191 -0.211576,1.359769 -0.634735,2.659103 -1.269474,3.867786 -0.151127,0.302171 -0.302254,0.574124 -0.48361,0.846078 -0.272034,0.423039 -0.816092,0.574125 -1.239253,0.302171 -0.423163,-0.271954 -0.57429,-0.815861 -0.302254,-1.2389 0.151126,-0.241737 0.272024,-0.483473 0.42316,-0.72521 0.54406,-1.02738 0.906763,-2.17563 1.088118,-3.323879 0.967219,-6.073635 -3.173694,-11.8450951 -9.279268,-12.8120351 -2.96212,-0.48348 -5.894,0.21152 -8.3422812,1.96411 -2.418049,1.75259 -4.020006,4.3210401 -4.503616,7.2823101 -0.997451,6.073633 3.173684,11.845094 9.2490392,12.81204 2.599406,0.423039 5.259262,-0.09065 7.495966,-1.420202 0.423153,-0.241737 0.99744,-0.120869 1.239246,0.302171 0.241805,0.423039 0.120907,0.997163 -0.302254,1.2389 -1.99489,1.208683 -4.292043,1.843241 -6.619414,1.843241 z"
       id="path2-53"
       style="fill:url(#linearGradient2)" />
    <path
       d="m 16.000193,9.6026944 a 0.79971176,0.79971176 0 0 0 -0.799702,0.7996996 c 0,1.353119 -1.636199,2.031281 -2.593469,1.074014 a 0.79971176,0.79971176 0 1 0 -1.13078,1.130774 c 0.957242,0.957269 0.279999,2.593472 -1.074009,2.593472 a 0.79971472,0.79971472 0 1 0 0,1.599426 c 1.353121,0 2.031277,1.6362 1.074009,2.593472 a 0.79971176,0.79971176 0 0 0 1.13078,1.130781 c 0.95727,-0.95724 2.593469,-0.279998 2.593469,1.074008 a 0.79971476,0.79971476 0 1 0 1.599429,0 c 0,-1.35312 1.636201,-2.031276 2.593468,-1.074008 a 0.79971176,0.79971176 0 1 0 1.130781,-1.130781 c -0.957242,-0.95724 -0.279998,-2.593472 1.074009,-2.593472 a 0.79971472,0.79971472 0 1 0 0,-1.599426 c -1.353121,0 -2.031276,-1.636203 -1.074009,-2.593472 A 0.79971176,0.79971176 0 0 0 19.393388,11.476408 C 18.436153,12.433645 16.79992,11.756406 16.79992,10.402394 A 0.79971176,0.79971176 0 0 0 16.000193,9.6026944 Z m -2.392734,0.6213896 a 2.3991355,2.3991355 0 0 1 4.785481,0 2.3991355,2.3991355 0 0 1 3.382775,3.383576 2.3991355,2.3991355 0 0 1 8e-4,4.78548 2.3991355,2.3991355 0 0 1 -3.383575,3.382776 2.3991355,2.3991355 0 0 1 -4.785481,0 2.3991355,2.3991355 0 0 1 -3.383575,-3.382776 2.3991355,2.3991355 0 0 1 0,-4.78548 2.3991355,2.3991355 0 0 1 3.383575,-3.383576 z"
       id="path1"
       style="fill:url(#linearGradient3);stroke-width:0.799716" />
    <path
       d="m 16.000193,14.400966 a 1.5994238,1.5994238 0 1 0 0,3.198844 1.5994238,1.5994238 0 0 0 0,-3.198844 z M 13.73861,13.738805 a 3.1988472,3.1988472 0 1 1 4.523168,4.523171 3.1988472,3.1988472 0 0 1 -4.523168,-4.523171 z"
       id="path2-3"
       style="fill:url(#linearGradient4);stroke-width:0.799716" />
  </g>
</svg>
