<svg xmlns="http://www.w3.org/2000/svg" xmlns:xlink="http://www.w3.org/1999/xlink" width="64px" height="64px" viewBox="0 0 64 64" version="1.1">
<defs>
<linearGradient id="linear0" gradientUnits="userSpaceOnUse" x1="0" y1="0" x2="0" y2="1" gradientTransform="matrix(64,0,0,64,0,0)">
<stop offset="0" style="stop-color:#ff6666;stop-opacity:1;"/>
<stop offset="1" style="stop-color:#d90000;stop-opacity:1;"/>
</linearGradient>
</defs>
<g id="surface1">
<path style=" stroke:none;fill-rule:nonzero;fill:url(#linear0);" d="M 15.972656 0 C 10.941406 0.0664062 7.261719 -0.128906 4.25 1.765625 C 2.746094 2.71875 1.546875 4.316406 0.890625 6.324219 C 0.234375 8.328125 0 10.707031 0 13.714844 L 0 50.285156 C 0 53.292969 0.234375 55.671875 0.890625 57.675781 C 1.546875 59.683594 2.746094 61.292969 4.25 62.238281 C 7.261719 64.140625 10.941406 63.933594 15.972656 64 L 48.027344 64 C 53.058594 63.933594 56.738281 64.140625 59.75 62.238281 C 61.253906 61.292969 62.453125 59.683594 63.109375 57.675781 C 63.765625 55.671875 64 53.292969 64 50.285156 L 64 22.859375 C 64 19.847656 63.765625 17.46875 63.109375 15.464844 C 63.027344 15.214844 62.917969 14.988281 62.8125 14.761719 C 62.769531 14.671875 62.738281 14.582031 62.703125 14.5 C 62.011719 12.953125 61 11.691406 59.75 10.902344 C 56.738281 9.003906 53.058594 9.207031 48.027344 9.140625 L 35.871094 9.140625 L 27.78125 0 Z M 16.019531 4.574219 L 26.140625 4.574219 L 33.203125 12.550781 L 28.128906 18.285156 L 15.972656 18.285156 C 10.941406 18.355469 7.261719 18.144531 4.25 20.046875 C 4.160156 20.097656 4.082031 20.183594 4 20.238281 L 4 13.714844 C 4 11.003906 4.25 9.113281 4.640625 7.925781 C 5.03125 6.738281 5.453125 6.230469 6.1875 5.765625 C 7.65625 4.84375 10.96875 4.640625 16.019531 4.574219 Z M 37.859375 13.714844 L 47.96875 13.714844 C 53.019531 13.78125 56.339844 13.984375 57.800781 14.910156 C 58.535156 15.375 58.964844 15.886719 59.347656 17.074219 C 59.746094 18.261719 60 20.152344 60 22.859375 L 60 50.285156 C 60 52.996094 59.75 54.886719 59.359375 56.074219 C 58.96875 57.261719 58.546875 57.769531 57.8125 58.234375 C 56.347656 59.15625 53.042969 59.359375 48 59.425781 L 16 59.425781 C 10.957031 59.359375 7.652344 59.15625 6.1875 58.234375 C 5.453125 57.769531 5.03125 57.261719 4.640625 56.074219 C 4.25 54.886719 4 52.996094 4 50.285156 L 4 32 C 4 29.292969 4.253906 27.402344 4.652344 26.214844 C 5.035156 25.027344 5.464844 24.515625 6.199219 24.050781 C 7.660156 23.128906 10.980469 22.921875 16.03125 22.859375 L 29.777344 22.859375 Z M 37.859375 13.714844 "/>
</g>
</svg>
