<svg xmlns="http://www.w3.org/2000/svg" xmlns:xlink="http://www.w3.org/1999/xlink" width="64" height="64" viewBox="0 0 64 64" version="1.1">
<defs>
<linearGradient id="linear0" gradientUnits="userSpaceOnUse" x1="0" y1="0" x2="0" y2="1" gradientTransform="matrix(56,0,0,56,4,4)">
<stop offset="0" style="stop-color:#ff6666;stop-opacity:1;"/>
<stop offset="1" style="stop-color:#d90000;stop-opacity:1;"/>
</linearGradient>
</defs>
<g id="surface1">
<path style=" stroke:none;fill-rule:nonzero;fill:url(#linear0);" d="M 58.945312 29.503906 L 34.492188 5.054688 C 33.089844 3.648438 30.800781 3.648438 29.390625 5.054688 L 24.316406 10.136719 L 30.757812 16.574219 C 32.253906 16.066406 33.96875 16.40625 35.164062 17.605469 C 36.359375 18.804688 36.695312 20.53125 36.179688 22.035156 L 42.386719 28.242188 C 43.890625 27.722656 45.625 28.058594 46.820312 29.261719 C 48.496094 30.9375 48.496094 33.652344 46.820312 35.332031 C 45.144531 37.007812 42.429688 37.007812 40.753906 35.332031 C 39.488281 34.066406 39.179688 32.214844 39.816406 30.664062 L 34.027344 24.875 L 34.027344 40.109375 C 34.4375 40.3125 34.824219 40.578125 35.164062 40.921875 C 36.835938 42.597656 36.835938 45.3125 35.164062 46.992188 C 33.488281 48.667969 30.769531 48.667969 29.09375 46.992188 C 27.421875 45.316406 27.421875 42.601562 29.09375 40.921875 C 29.507812 40.507812 29.988281 40.191406 30.5 39.984375 L 30.5 24.609375 C 29.988281 24.398438 29.507812 24.089844 29.09375 23.671875 C 27.824219 22.402344 27.519531 20.535156 28.167969 18.980469 L 21.820312 12.628906 L 5.054688 29.390625 C 3.648438 30.804688 3.648438 33.089844 5.054688 34.496094 L 29.507812 58.945312 C 30.914062 60.351562 33.199219 60.351562 34.609375 58.945312 L 58.945312 34.609375 C 60.351562 33.199219 60.351562 30.910156 58.945312 29.503906 Z M 58.945312 29.503906 "/>
</g>
</svg>
