<svg xmlns="http://www.w3.org/2000/svg" xmlns:xlink="http://www.w3.org/1999/xlink" width="64" height="64" viewBox="0 0 64 64" version="1.1">
<g id="surface1">
<path style=" stroke:none;fill-rule:evenodd;fill:#ff6666;fill-opacity:1;" d="M 31.996094 0 C 14.328125 0 0 14.691406 0 32.8125 C 0 47.304688 9.167969 59.605469 21.886719 63.941406 C 23.484375 64.242188 24.070312 63.230469 24.070312 62.363281 C 24.070312 61.582031 24.042969 59.519531 24.027344 56.78125 C 15.125 58.765625 13.246094 52.382812 13.246094 52.382812 C 11.792969 48.59375 9.695312 47.585938 9.695312 47.585938 C 6.789062 45.546875 9.914062 45.589844 9.914062 45.589844 C 13.125 45.824219 14.816406 48.972656 14.816406 48.972656 C 17.667969 53.988281 22.308594 52.539062 24.128906 51.699219 C 24.417969 49.582031 25.246094 48.132812 26.160156 47.3125 C 19.054688 46.484375 11.585938 43.671875 11.585938 31.097656 C 11.585938 27.515625 12.832031 24.585938 14.878906 22.292969 C 14.550781 21.460938 13.449219 18.128906 15.191406 13.609375 C 15.191406 13.609375 17.878906 12.726562 23.992188 16.972656 C 26.601562 16.246094 29.296875 15.875 32.003906 15.867188 C 34.71875 15.882812 37.457031 16.246094 40.011719 16.972656 C 46.121094 12.726562 48.804688 13.609375 48.804688 13.609375 C 50.550781 18.128906 49.453125 21.460938 49.121094 22.292969 C 51.171875 24.585938 52.410156 27.515625 52.410156 31.097656 C 52.410156 43.703125 44.929688 46.472656 37.800781 47.285156 C 38.949219 48.296875 39.972656 50.300781 39.972656 53.363281 C 39.972656 57.746094 39.933594 61.285156 39.933594 62.363281 C 39.933594 63.238281 40.507812 64.261719 42.132812 63.941406 C 54.839844 59.589844 64 47.304688 64 32.8125 C 64 14.691406 49.671875 0 31.996094 0 Z M 31.996094 0 "/>
</g>
</svg>
