<svg xmlns="http://www.w3.org/2000/svg" xmlns:xlink="http://www.w3.org/1999/xlink" width="64" height="64" viewBox="0 0 64 64" version="1.1">
<g id="surface1">
<path style=" stroke:none;fill-rule:evenodd;fill:#ff6666;fill-opacity:1;" d="M 33.09375 6.761719 L 36.453125 0 L 46.0625 0 L 46.0625 10.320312 C 47.894531 11.339844 49.617188 12.566406 51.199219 13.988281 C 56.238281 18.503906 59.488281 24.679688 60.363281 31.386719 C 61.238281 38.097656 59.679688 44.898438 55.972656 50.558594 C 52.265625 56.21875 46.652344 60.363281 40.152344 62.238281 C 33.652344 64.117188 26.695312 63.605469 20.542969 60.792969 L 23.335938 54.675781 C 28.027344 56.820312 33.332031 57.210938 38.289062 55.78125 C 43.242188 54.347656 47.523438 51.1875 50.347656 46.875 C 53.175781 42.558594 54.363281 37.375 53.695312 32.257812 C 53.027344 27.144531 50.550781 22.4375 46.710938 18.992188 C 46.496094 18.800781 46.28125 18.613281 46.0625 18.429688 L 46.0625 35.246094 L 36.453125 28.753906 L 36.453125 19.863281 L 29.53125 35.050781 L 36.941406 35.050781 L 36.941406 31.394531 L 48.917969 39.660156 L 36.941406 47.921875 L 36.941406 44.269531 L 25.328125 44.269531 L 16.332031 64 L 4.648438 64 L 29.679688 13.632812 C 25.628906 14.128906 21.78125 15.765625 18.597656 18.382812 C 14.613281 21.660156 11.933594 26.253906 11.046875 31.335938 C 10.429688 34.859375 10.703125 38.449219 11.808594 41.800781 L 7.980469 49.519531 C 4.519531 43.707031 3.257812 36.84375 4.421875 30.179688 C 5.585938 23.511719 9.101562 17.488281 14.328125 13.191406 C 19.554688 8.894531 26.148438 6.609375 32.910156 6.757812 C 32.972656 6.757812 33.035156 6.761719 33.09375 6.761719 Z M 46.0625 49.460938 L 37.882812 49.460938 L 46.0625 43.941406 Z M 46.0625 49.460938 "/>
</g>
</svg>
