<svg xmlns="http://www.w3.org/2000/svg" xmlns:xlink="http://www.w3.org/1999/xlink" width="64" height="64" viewBox="0 0 64 64" version="1.1">
<g id="surface1">
<path style=" stroke:none;fill-rule:evenodd;fill:#ff6666;fill-opacity:1;" d="M 0 0 L 64 0 L 64 64 L 0 64 Z M 59.796875 47.425781 L 47.121094 47.425781 L 47.121094 30.390625 C 47.121094 25.160156 45.378906 23.148438 41.957031 23.148438 C 37.800781 23.148438 36.125 26.097656 36.125 30.324219 L 36.125 40.851562 L 40.148438 40.851562 L 40.148438 47.425781 L 27.472656 47.425781 L 27.472656 30.390625 C 27.472656 25.160156 25.726562 23.148438 22.308594 23.148438 C 18.148438 23.148438 16.472656 26.097656 16.472656 30.324219 L 16.472656 40.851562 L 22.242188 40.851562 L 22.242188 47.425781 L 3.796875 47.425781 L 3.796875 40.851562 L 7.820312 40.851562 L 7.820312 23.75 L 3.796875 23.75 L 3.796875 17.179688 L 16.472656 17.179688 L 16.472656 21.738281 C 18.285156 18.519531 21.4375 16.574219 25.660156 16.574219 C 30.019531 16.574219 34.042969 18.652344 35.519531 23.078125 C 37.195312 19.054688 40.617188 16.574219 45.378906 16.574219 C 50.8125 16.574219 55.773438 19.859375 55.773438 27.039062 L 55.773438 40.851562 L 59.796875 40.851562 Z M 59.796875 47.425781 "/>
</g>
</svg>
