<svg xmlns="http://www.w3.org/2000/svg" xmlns:xlink="http://www.w3.org/1999/xlink" width="64" height="64" viewBox="0 0 64 64" version="1.1">
<defs>
<linearGradient id="linear0" gradientUnits="userSpaceOnUse" x1="0" y1="0" x2="0" y2="1" gradientTransform="matrix(64,0,0,64,0,0)">
<stop offset="0" style="stop-color:#ff6666;stop-opacity:1;"/>
<stop offset="1" style="stop-color:#d90000;stop-opacity:1;"/>
</linearGradient>
</defs>
<g id="surface1">
<path style=" stroke:none;fill-rule:nonzero;fill:url(#linear0);" d="M 32 0 C 14.328125 0 0 14.328125 0 32 C 0 49.675781 14.328125 64 32 64 C 49.675781 64 64 49.675781 64 32 C 64 14.328125 49.675781 0 32 0 Z M 32 5.457031 C 46.660156 5.457031 58.542969 17.339844 58.542969 32 C 58.542969 34.253906 58.234375 36.429688 57.707031 38.523438 L 45.082031 24.488281 L 28.941406 42.851562 L 36.726562 27.273438 L 32.835938 20.316406 L 9.890625 46.683594 C 7.09375 42.476562 5.457031 37.429688 5.457031 32 C 5.457031 17.339844 17.339844 5.457031 32 5.457031 Z M 32 5.457031 "/>
</g>
</svg>
