<svg xmlns="http://www.w3.org/2000/svg" xmlns:xlink="http://www.w3.org/1999/xlink" width="64" height="64" viewBox="0 0 64 64" version="1.1">
<defs>
<linearGradient id="linear0" gradientUnits="userSpaceOnUse" x1="0" y1="0" x2="0" y2="1" gradientTransform="matrix(8.539062,0,0,8.542969,27.753906,27.722656)">
<stop offset="0" style="stop-color:#ff6666;stop-opacity:1;"/>
<stop offset="1" style="stop-color:#d90000;stop-opacity:1;"/>
</linearGradient>
</defs>
<g id="surface1">
<path style=" stroke:none;fill-rule:evenodd;fill:#ff6666;fill-opacity:1;" d="M 20.460938 25.792969 C 20.648438 25.492188 20.839844 25.195312 21.03125 24.898438 C 21.132812 24.738281 21.238281 24.582031 21.347656 24.421875 C 20.945312 24.449219 20.546875 24.480469 20.148438 24.515625 C 20.246094 24.941406 20.355469 25.367188 20.460938 25.792969 Z M 17.515625 30.839844 C 17.261719 31.316406 17.007812 31.800781 16.761719 32.285156 C 15.621094 34.503906 14.625 36.792969 13.773438 39.128906 C 13.019531 41.132812 12.4375 43.199219 11.996094 45.289062 C 11.609375 47.054688 11.410156 48.847656 11.398438 50.640625 C 11.398438 50.652344 11.398438 50.667969 11.398438 50.683594 L 11.398438 50.953125 C 11.382812 52.515625 11.695312 54.066406 12.320312 55.503906 C 12.875 56.800781 13.800781 57.910156 14.953125 58.722656 C 15.410156 59.078125 15.921875 59.347656 16.476562 59.519531 C 17.117188 59.71875 17.785156 59.816406 18.46875 59.800781 C 19.722656 59.789062 20.957031 59.503906 22.109375 59.003906 C 23.621094 58.335938 25.027344 57.453125 26.292969 56.386719 C 26.722656 56.015625 26.992188 55.492188 27.035156 54.9375 C 27.078125 54.367188 26.90625 53.8125 26.535156 53.371094 C 26.167969 52.945312 25.640625 52.671875 25.085938 52.632812 C 24.515625 52.589844 23.960938 52.773438 23.519531 53.144531 C 22.582031 53.941406 21.527344 54.59375 20.390625 55.09375 C 19.761719 55.378906 19.082031 55.519531 18.382812 55.546875 C 18.167969 55.546875 17.941406 55.503906 17.742188 55.449219 C 17.671875 55.417969 17.613281 55.378906 17.570312 55.320312 C 16.976562 54.964844 16.503906 54.4375 16.234375 53.8125 C 15.851562 52.914062 15.652344 51.949219 15.664062 50.964844 C 15.664062 50.953125 15.664062 50.953125 15.664062 50.9375 L 15.664062 50.667969 C 15.679688 49.160156 15.851562 47.652344 16.164062 46.1875 C 16.5625 44.292969 17.101562 42.429688 17.769531 40.609375 C 18.308594 39.125 18.914062 37.675781 19.578125 36.25 C 19.820312 36.789062 20.066406 37.328125 20.320312 37.863281 C 21.839844 41.078125 23.621094 44.179688 25.640625 47.140625 C 27.390625 49.726562 29.351562 52.160156 31.53125 54.410156 C 32.484375 55.378906 33.492188 56.300781 34.546875 57.171875 C 35.484375 57.9375 36.480469 58.636719 37.535156 59.261719 C 38.460938 59.832031 39.457031 60.285156 40.480469 60.640625 C 41.449219 60.984375 42.445312 61.152344 43.46875 61.167969 C 44.59375 61.183594 45.703125 60.914062 46.699219 60.386719 C 47.351562 59.917969 47.90625 59.304688 48.320312 58.605469 C 48.703125 57.96875 49.003906 57.285156 49.203125 56.574219 C 49.644531 54.980469 49.855469 53.328125 49.8125 51.679688 C 49.800781 50.011719 49.671875 48.363281 49.414062 46.710938 C 49.144531 44.804688 48.761719 42.914062 48.292969 41.050781 C 47.183594 36.679688 45.730469 32.425781 43.9375 28.300781 C 43.710938 27.773438 43.296875 27.375 42.769531 27.160156 C 42.246094 26.960938 41.648438 26.960938 41.132812 27.191406 C 40.609375 27.417969 40.210938 27.84375 39.996094 28.371094 C 39.796875 28.898438 39.796875 29.480469 40.023438 29.992188 C 41.71875 33.90625 43.113281 37.960938 44.152344 42.085938 C 44.59375 43.824219 44.933594 45.574219 45.203125 47.339844 C 45.417969 48.804688 45.53125 50.269531 45.546875 51.75 C 45.574219 52.988281 45.433594 54.226562 45.105469 55.40625 C 44.992188 55.761719 44.847656 56.101562 44.664062 56.414062 C 44.59375 56.542969 44.507812 56.644531 44.40625 56.742188 C 44.121094 56.855469 43.824219 56.898438 43.523438 56.898438 C 42.96875 56.898438 42.414062 56.800781 41.875 56.613281 C 41.132812 56.34375 40.410156 56.015625 39.726562 55.605469 C 38.859375 55.078125 38.03125 54.507812 37.25 53.855469 C 36.3125 53.101562 35.429688 52.289062 34.589844 51.4375 C 32.597656 49.371094 30.777344 47.125 29.167969 44.75 C 27.277344 41.972656 25.613281 39.058594 24.175781 36.027344 C 23.4375 34.460938 22.773438 32.867188 22.179688 31.246094 C 22.941406 29.878906 23.757812 28.546875 24.617188 27.234375 C 25.289062 26.195312 25.988281 25.171875 26.726562 24.179688 C 27.070312 24.171875 27.414062 24.171875 27.761719 24.175781 L 27.875 24.175781 C 29.3125 24.175781 30.761719 24.203125 32.199219 24.289062 C 35.96875 24.472656 39.726562 24.886719 43.453125 25.539062 C 46.527344 26.050781 49.542969 26.820312 52.488281 27.875 C 53.628906 28.273438 54.75 28.769531 55.832031 29.324219 C 56.671875 29.765625 57.453125 30.277344 58.195312 30.890625 C 58.679688 31.273438 59.105469 31.757812 59.417969 32.296875 C 59.617188 32.613281 59.71875 32.96875 59.730469 33.335938 L 59.71875 33.449219 C 59.6875 33.820312 59.589844 34.175781 59.402344 34.503906 C 59.132812 35.015625 58.792969 35.472656 58.378906 35.871094 C 57.824219 36.410156 57.226562 36.894531 56.558594 37.292969 C 55.761719 37.789062 54.90625 38.203125 54.027344 38.542969 C 53.5 38.742188 53.074219 39.140625 52.84375 39.65625 C 52.617188 40.179688 52.589844 40.765625 52.800781 41.289062 C 53 41.816406 53.398438 42.246094 53.910156 42.484375 C 54.4375 42.714844 55.023438 42.726562 55.546875 42.527344 C 56.671875 42.101562 57.769531 41.5625 58.792969 40.933594 C 59.71875 40.367188 60.585938 39.683594 61.367188 38.929688 C 62.09375 38.21875 62.707031 37.40625 63.175781 36.511719 C 63.644531 35.640625 63.914062 34.6875 63.984375 33.691406 C 63.984375 33.664062 63.984375 33.636719 63.984375 33.609375 L 64 33.410156 C 64 33.378906 64 33.351562 64 33.324219 C 63.972656 32.183594 63.671875 31.089844 63.089844 30.105469 C 62.507812 29.140625 61.765625 28.285156 60.882812 27.574219 C 59.929688 26.792969 58.890625 26.109375 57.796875 25.539062 C 56.542969 24.886719 55.25 24.316406 53.925781 23.847656 C 50.753906 22.722656 47.480469 21.882812 44.164062 21.328125 C 40.28125 20.644531 36.355469 20.21875 32.425781 20.019531 C 31.628906 19.980469 30.828125 19.953125 30.03125 19.925781 C 30.148438 19.777344 30.269531 19.636719 30.390625 19.492188 C 32.199219 17.359375 34.175781 15.378906 36.296875 13.546875 C 37.933594 12.09375 39.742188 10.84375 41.675781 9.789062 C 42.386719 9.40625 43.140625 9.089844 43.921875 8.851562 C 44.476562 8.664062 45.074219 8.550781 45.660156 8.523438 L 45.929688 8.507812 C 45.945312 8.507812 45.972656 8.507812 45.988281 8.507812 C 46.429688 8.496094 46.867188 8.609375 47.253906 8.820312 C 47.59375 9.050781 47.878906 9.375 48.0625 9.746094 C 48.304688 10.246094 48.433594 10.800781 48.417969 11.367188 C 48.417969 11.964844 48.335938 12.5625 48.164062 13.132812 C 47.9375 13.886719 47.621094 14.613281 47.238281 15.296875 C 46.96875 15.777344 46.898438 16.363281 47.039062 16.917969 C 47.195312 17.457031 47.550781 17.925781 48.050781 18.199219 C 48.535156 18.484375 49.117188 18.554688 49.671875 18.398438 C 50.210938 18.253906 50.683594 17.886719 50.953125 17.402344 C 51.507812 16.433594 51.933594 15.410156 52.246094 14.34375 C 52.53125 13.390625 52.675781 12.40625 52.6875 11.410156 C 52.703125 10.1875 52.433594 8.964844 51.890625 7.855469 C 51.363281 6.773438 50.539062 5.847656 49.515625 5.207031 C 48.40625 4.523438 47.125 4.195312 45.832031 4.238281 L 45.546875 4.253906 C 45.515625 4.253906 45.503906 4.253906 45.472656 4.253906 C 44.507812 4.296875 43.539062 4.480469 42.601562 4.78125 C 41.589844 5.109375 40.59375 5.535156 39.65625 6.03125 C 37.449219 7.226562 35.371094 8.664062 33.480469 10.328125 C 31.21875 12.292969 29.097656 14.425781 27.148438 16.71875 C 26.246094 17.769531 25.371094 18.847656 24.546875 19.960938 C 22.78125 20.023438 21.023438 20.140625 19.269531 20.304688 C 19.140625 19.609375 19.035156 18.910156 18.9375 18.210938 C 18.695312 16.492188 18.554688 14.769531 18.511719 13.03125 L 18.511719 12.578125 C 18.496094 11.835938 18.554688 11.097656 18.640625 10.359375 C 18.710938 9.804688 18.839844 9.234375 19.023438 8.695312 C 19.136719 8.351562 19.308594 8.011719 19.523438 7.710938 C 19.648438 7.554688 19.804688 7.414062 19.992188 7.3125 C 20.234375 7.199219 20.503906 7.128906 20.773438 7.101562 L 20.914062 7.101562 C 21.199219 7.113281 21.484375 7.171875 21.753906 7.285156 C 22.238281 7.484375 22.679688 7.726562 23.105469 8.011719 C 24.230469 8.808594 25.269531 9.703125 26.210938 10.699219 C 26.59375 11.113281 27.132812 11.339844 27.6875 11.367188 C 28.257812 11.382812 28.8125 11.167969 29.226562 10.785156 C 29.636719 10.402344 29.867188 9.859375 29.894531 9.289062 C 29.910156 8.722656 29.695312 8.179688 29.3125 7.769531 C 28.171875 6.558594 26.90625 5.464844 25.539062 4.511719 C 24.871094 4.039062 24.144531 3.65625 23.390625 3.34375 C 22.625 3.015625 21.796875 2.84375 20.945312 2.832031 C 20.914062 2.832031 20.875 2.832031 20.832031 2.832031 L 20.574219 2.84375 C 20.558594 2.84375 20.546875 2.84375 20.515625 2.84375 C 19.664062 2.902344 18.824219 3.128906 18.054688 3.515625 C 17.289062 3.914062 16.617188 4.46875 16.105469 5.164062 C 15.609375 5.820312 15.222656 6.558594 14.96875 7.339844 C 14.699219 8.152344 14.511719 8.992188 14.398438 9.832031 C 14.285156 10.757812 14.230469 11.679688 14.242188 12.605469 L 14.242188 13.089844 C 14.242188 13.105469 14.242188 13.105469 14.242188 13.117188 C 14.285156 15.023438 14.441406 16.917969 14.710938 18.808594 C 14.804688 19.488281 14.90625 20.167969 15.027344 20.84375 C 13 21.179688 11.003906 21.640625 9.035156 22.238281 C 7.882812 22.59375 6.746094 23.050781 5.664062 23.5625 C 4.679688 24.03125 3.769531 24.601562 2.917969 25.269531 C 2.121094 25.910156 1.4375 26.679688 0.910156 27.546875 C 0.382812 28.429688 0.0703125 29.425781 0.015625 30.449219 C 0.015625 30.464844 0.015625 30.492188 0.015625 30.519531 L 0 30.664062 C 0 30.703125 0 30.746094 0.015625 30.789062 C 0.0429688 31.859375 0.355469 32.894531 0.910156 33.792969 C 1.453125 34.6875 2.105469 35.5 2.875 36.195312 C 4.511719 37.71875 6.417969 38.902344 8.507812 39.683594 C 9.035156 39.882812 9.617188 39.867188 10.128906 39.625 C 10.65625 39.398438 11.054688 38.972656 11.253906 38.445312 C 11.453125 37.917969 11.441406 37.320312 11.199219 36.808594 C 10.96875 36.296875 10.542969 35.898438 10.015625 35.683594 C 8.4375 35.101562 7 34.207031 5.761719 33.050781 C 5.292969 32.625 4.878906 32.128906 4.554688 31.574219 C 4.398438 31.316406 4.296875 31.019531 4.28125 30.703125 L 4.28125 30.675781 C 4.296875 30.347656 4.398438 30.023438 4.566406 29.75 C 4.824219 29.308594 5.164062 28.941406 5.5625 28.628906 C 6.160156 28.144531 6.816406 27.746094 7.5 27.417969 C 8.394531 26.992188 9.332031 26.621094 10.289062 26.324219 C 12.117188 25.769531 13.988281 25.332031 15.878906 25.019531 C 15.882812 25.039062 15.886719 25.0625 15.894531 25.085938 C 16.339844 27.027344 16.878906 28.949219 17.515625 30.839844 Z M 17.515625 30.839844 "/>
<path style=" stroke:none;fill-rule:nonzero;fill:url(#linear0);" d="M 36.292969 31.996094 C 36.292969 33.519531 35.476562 34.929688 34.15625 35.691406 C 32.835938 36.457031 31.207031 36.453125 29.886719 35.691406 C 28.566406 34.929688 27.753906 33.519531 27.753906 31.992188 C 27.753906 29.632812 29.664062 27.722656 32.023438 27.722656 C 34.382812 27.726562 36.292969 29.636719 36.292969 31.996094 Z M 36.292969 31.996094 "/>
</g>
</svg>
