<svg xmlns="http://www.w3.org/2000/svg" xmlns:xlink="http://www.w3.org/1999/xlink" width="64" height="64" viewBox="0 0 64 64" version="1.1">
<defs>
<linearGradient id="linear0" gradientUnits="userSpaceOnUse" x1="0" y1="0" x2="0" y2="1" gradientTransform="matrix(64,0,0,64,0,0)">
<stop offset="0" style="stop-color:#ff6666;stop-opacity:1;"/>
<stop offset="1" style="stop-color:#d90000;stop-opacity:1;"/>
</linearGradient>
</defs>
<g id="surface1">
<path style=" stroke:none;fill-rule:nonzero;fill:url(#linear0);" d="M 32 0 C 14.328125 0 0 14.328125 0 32 C 0 49.671875 14.328125 64 32 64 C 49.671875 64 64 49.671875 64 32 C 64 14.328125 49.671875 0 32 0 Z M 48.613281 43.316406 C 48.613281 43.863281 48.167969 44.308594 47.621094 44.308594 L 43.441406 44.308594 C 42.890625 44.308594 42.449219 43.863281 42.449219 43.316406 L 42.449219 30.441406 C 42.449219 30.335938 42.324219 30.285156 42.234375 30.351562 L 33.378906 39.207031 C 32.621094 39.96875 31.363281 39.96875 30.601562 39.207031 L 21.746094 30.351562 C 21.675781 30.285156 21.535156 30.335938 21.535156 30.441406 L 21.535156 43.316406 C 21.535156 43.863281 21.09375 44.308594 20.542969 44.308594 L 16.363281 44.308594 C 15.816406 44.308594 15.371094 43.863281 15.371094 43.316406 L 15.371094 20.683594 C 15.371094 20.136719 15.816406 19.691406 16.363281 19.691406 L 19.230469 19.691406 C 19.742188 19.691406 20.261719 19.902344 20.632812 20.277344 L 31.644531 31.292969 C 31.839844 31.488281 32.140625 31.488281 32.335938 31.292969 L 43.351562 20.277344 C 43.722656 19.902344 44.21875 19.691406 44.753906 19.691406 L 47.621094 19.691406 C 48.167969 19.691406 48.613281 20.136719 48.613281 20.683594 Z M 48.613281 43.316406 "/>
</g>
</svg>
