<svg xmlns="http://www.w3.org/2000/svg" xmlns:xlink="http://www.w3.org/1999/xlink" width="64" height="64" viewBox="0 0 64 64" version="1.1">
<defs>
<linearGradient id="linear0" gradientUnits="userSpaceOnUse" x1="0" y1="0" x2="0" y2="1" gradientTransform="matrix(64,0,0,58.664063,0,2.667969)">
<stop offset="0" style="stop-color:#ff6666;stop-opacity:1;"/>
<stop offset="1" style="stop-color:#d90000;stop-opacity:1;"/>
</linearGradient>
</defs>
<g id="surface1">
<path style=" stroke:none;fill-rule:nonzero;fill:url(#linear0);" d="M 50.101562 2.667969 C 49.492188 2.660156 48.949219 3.050781 48.761719 3.632812 L 41.84375 25.015625 L 22.160156 25.015625 L 15.238281 3.632812 C 15.054688 3.070312 14.535156 2.683594 13.945312 2.667969 C 13.355469 2.65625 12.820312 3.019531 12.609375 3.570312 L 4.273438 25.910156 C 4.265625 25.910156 4.265625 25.917969 4.261719 25.921875 L 0.0859375 37.097656 C -0.132812 37.683594 0.0703125 38.347656 0.578125 38.714844 L 31.175781 61.054688 L 31.179688 61.066406 C 31.183594 61.066406 31.183594 61.066406 31.183594 61.070312 L 31.242188 61.105469 C 31.261719 61.117188 31.277344 61.132812 31.300781 61.140625 C 31.304688 61.140625 31.304688 61.148438 31.308594 61.148438 C 31.308594 61.148438 31.316406 61.152344 31.320312 61.152344 C 31.328125 61.160156 31.332031 61.164062 31.34375 61.164062 L 31.363281 61.179688 C 31.390625 61.191406 31.425781 61.210938 31.457031 61.21875 L 31.457031 61.222656 L 31.550781 61.257812 C 31.554688 61.257812 31.554688 61.257812 31.5625 61.261719 C 31.585938 61.269531 31.609375 61.277344 31.628906 61.285156 C 31.640625 61.285156 31.652344 61.289062 31.667969 61.289062 C 31.667969 61.296875 31.667969 61.296875 31.667969 61.289062 C 31.695312 61.300781 31.722656 61.304688 31.75 61.3125 L 31.859375 61.328125 C 31.914062 61.328125 31.972656 61.332031 32.027344 61.332031 C 32.082031 61.328125 32.132812 61.328125 32.179688 61.316406 C 32.203125 61.316406 32.21875 61.316406 32.238281 61.3125 L 32.25 61.3125 C 32.261719 61.304688 32.265625 61.304688 32.277344 61.304688 C 32.28125 61.304688 32.289062 61.300781 32.300781 61.300781 C 32.3125 61.296875 32.328125 61.296875 32.335938 61.289062 C 32.355469 61.285156 32.375 61.28125 32.394531 61.273438 C 32.402344 61.273438 32.40625 61.273438 32.414062 61.269531 L 32.429688 61.269531 C 32.480469 61.25 32.527344 61.230469 32.570312 61.207031 C 32.578125 61.207031 32.578125 61.207031 32.582031 61.203125 C 32.585938 61.203125 32.59375 61.203125 32.597656 61.195312 L 32.628906 61.179688 C 32.660156 61.164062 32.691406 61.148438 32.71875 61.128906 C 32.726562 61.125 32.734375 61.121094 32.738281 61.117188 C 32.746094 61.117188 32.75 61.109375 32.753906 61.109375 C 32.777344 61.09375 32.800781 61.082031 32.820312 61.066406 L 32.832031 61.050781 L 63.429688 38.71875 C 63.933594 38.347656 64.128906 37.683594 63.910156 37.097656 L 59.75 25.960938 C 59.742188 25.949219 59.738281 25.933594 59.738281 25.921875 L 51.390625 3.570312 C 51.1875 3.035156 50.679688 2.675781 50.105469 2.667969 Z M 8.441406 27.808594 L 20.136719 27.808594 L 28.28125 52.976562 Z M 43.863281 27.808594 L 55.558594 27.808594 L 35.71875 52.976562 Z M 6 29.21875 L 24.609375 52.816406 L 3.066406 37.085938 Z M 58 29.21875 L 60.933594 37.085938 L 39.390625 52.816406 Z M 58 29.21875 "/>
</g>
</svg>
