<svg xmlns="http://www.w3.org/2000/svg" xmlns:xlink="http://www.w3.org/1999/xlink" width="64" height="64" viewBox="0 0 64 64" version="1.1">
<defs>
<linearGradient id="linear0" gradientUnits="userSpaceOnUse" x1="0" y1="0" x2="0" y2="1" gradientTransform="matrix(56,0,0,60,4,2)">
<stop offset="0" style="stop-color:#ff6666;stop-opacity:1;"/>
<stop offset="1" style="stop-color:#d90000;stop-opacity:1;"/>
</linearGradient>
</defs>
<g id="surface1">
<path style=" stroke:none;fill-rule:nonzero;fill:url(#linear0);" d="M 32 2 C 29.882812 2 27.871094 2.390625 26.023438 3.179688 C 24.183594 3.933594 22.550781 5.03125 21.195312 6.460938 L 21.1875 6.476562 L 21.179688 6.484375 C 19.859375 7.921875 18.835938 9.644531 18.117188 11.605469 C 17.375 13.65625 17.007812 15.824219 17.035156 18.003906 C 17.035156 20.324219 17.382812 22.492188 18.117188 24.453125 C 18.835938 26.378906 19.859375 28.085938 21.179688 29.515625 L 21.195312 29.53125 C 22.546875 30.957031 24.167969 32.074219 26 32.859375 L 26.03125 32.875 C 27.878906 33.628906 29.886719 34 32 34 C 34.113281 34 36.113281 33.628906 37.960938 32.875 L 37.960938 32.867188 C 39.765625 32.105469 41.386719 30.96875 42.71875 29.53125 C 44.078125 28.101562 45.121094 26.386719 45.839844 24.453125 C 46.578125 22.492188 46.929688 20.328125 46.929688 18 L 46.960938 18 C 46.960938 15.707031 46.613281 13.5625 45.878906 11.609375 C 45.203125 9.703125 44.140625 7.957031 42.761719 6.476562 C 41.429688 5.039062 39.792969 3.910156 37.976562 3.179688 C 36.085938 2.382812 34.050781 1.984375 32 2 Z M 32 6 C 33.625 6 35.078125 6.292969 36.40625 6.859375 L 36.449219 6.875 L 36.488281 6.882812 C 37.808594 7.425781 38.914062 8.1875 39.835938 9.1875 L 39.835938 9.226562 C 40.796875 10.238281 41.558594 11.484375 42.113281 12.988281 L 42.113281 13.007812 C 42.632812 14.410156 42.886719 16.019531 42.90625 17.816406 L 42.90625 18 C 42.90625 19.929688 42.621094 21.601562 42.078125 23.046875 L 42.078125 23.054688 C 41.578125 24.441406 40.804688 25.707031 39.800781 26.78125 L 39.761719 26.796875 L 39.761719 26.8125 C 38.824219 27.824219 37.703125 28.613281 36.367188 29.1875 C 34.980469 29.738281 33.496094 30.015625 32 30 C 30.359375 30 28.890625 29.710938 27.558594 29.171875 L 27.546875 29.171875 C 26.246094 28.613281 25.148438 27.824219 24.195312 26.84375 L 23.992188 26.5625 L 23.960938 26.539062 C 23.054688 25.515625 22.34375 24.335938 21.863281 23.054688 C 21.289062 21.4375 21.007812 19.71875 21.035156 18 C 21.035156 16.117188 21.320312 14.457031 21.863281 13 L 21.871094 12.992188 L 21.871094 12.976562 C 22.425781 11.472656 23.171875 10.238281 24.09375 9.230469 L 24.140625 9.191406 C 25.101562 8.191406 26.21875 7.421875 27.539062 6.878906 L 27.5625 6.863281 L 27.597656 6.855469 C 28.914062 6.296875 30.375 6 32 6 Z M 60 62 L 56 62 C 56 58.539062 55.71875 56.800781 55.058594 54.667969 C 54.398438 52.535156 53.421875 51.050781 51.804688 49.828125 C 48.5625 47.386719 43.363281 46.097656 32.117188 46.097656 C 20.863281 46.097656 15.457031 47.382812 12.214844 49.828125 C 10.597656 51.046875 9.617188 52.53125 8.953125 54.667969 C 8.289062 56.804688 8.007812 58.539062 8 62 L 4 61.992188 C 4.007812 58.335938 4.277344 56.230469 5.132812 53.480469 C 5.988281 50.726562 7.507812 48.371094 9.808594 46.636719 C 14.40625 43.167969 20.589844 42.101562 32.117188 42.101562 C 43.640625 42.101562 49.621094 43.167969 54.214844 46.640625 C 56.511719 48.375 58.027344 50.734375 58.878906 53.488281 C 59.734375 56.238281 60 58.339844 60 62 Z M 60 62 "/>
</g>
</svg>
