<svg xmlns="http://www.w3.org/2000/svg" xmlns:xlink="http://www.w3.org/1999/xlink" width="64" height="64" viewBox="0 0 64 64" version="1.1">
<defs>
<linearGradient id="linear0" gradientUnits="userSpaceOnUse" x1="0" y1="0" x2="0" y2="1" gradientTransform="matrix(60,0,0,60,2,2)">
<stop offset="0" style="stop-color:#ff6666;stop-opacity:1;"/>
<stop offset="1" style="stop-color:#d90000;stop-opacity:1;"/>
</linearGradient>
</defs>
<g id="surface1">
<path style=" stroke:none;fill-rule:nonzero;fill:url(#linear0);" d="M 35.261719 45.179688 C 30.460938 47.410156 25.996094 47.386719 22.996094 47.171875 C 19.421875 46.910156 16.539062 45.9375 15.277344 45.074219 C 14.496094 44.546875 13.4375 44.753906 12.90625 45.53125 C 12.378906 46.3125 12.585938 47.371094 13.363281 47.898438 C 15.398438 49.277344 18.992188 50.300781 22.746094 50.570312 C 23.382812 50.621094 24.085938 50.644531 24.835938 50.644531 C 28.109375 50.644531 32.257812 50.332031 36.695312 48.269531 C 37.546875 47.871094 37.921875 46.859375 37.523438 46.003906 C 37.128906 45.152344 36.113281 44.78125 35.261719 45.179688 Z M 54.203125 42.652344 C 54.363281 27.84375 55.886719 -0.132812 27.542969 2.128906 C -0.441406 4.382812 6.980469 33.945312 6.5625 43.84375 C 6.195312 49.085938 4.457031 55.484375 2 62 L 9.5625 62 C 10.34375 59.238281 10.910156 56.507812 11.160156 53.90625 C 11.617188 54.222656 12.105469 54.53125 12.628906 54.824219 C 13.472656 55.324219 14.199219 55.988281 14.972656 56.691406 C 16.773438 58.332031 18.816406 60.195312 22.804688 60.425781 C 23.070312 60.441406 23.34375 60.449219 23.609375 60.449219 C 27.644531 60.449219 30.402344 58.683594 32.625 57.265625 C 33.683594 56.585938 34.605469 55.996094 35.46875 55.710938 C 37.925781 54.945312 40.066406 53.703125 41.671875 52.125 C 41.925781 51.878906 42.15625 51.625 42.371094 51.363281 C 43.269531 54.640625 44.492188 58.324219 45.847656 62 L 62 62 C 58.117188 56.011719 54.121094 50.140625 54.203125 42.652344 Z M 9.273438 34.601562 C 9.273438 34.601562 9.273438 34.597656 9.273438 34.597656 C 8.992188 29.765625 11.308594 25.699219 14.4375 25.515625 C 17.5625 25.335938 20.328125 29.105469 20.609375 33.9375 C 20.609375 33.941406 20.609375 33.941406 20.609375 33.941406 C 20.621094 34.199219 20.628906 34.457031 20.628906 34.710938 C 19.636719 34.960938 18.738281 35.324219 17.941406 35.746094 C 17.9375 35.710938 17.933594 35.675781 17.933594 35.640625 L 17.933594 35.636719 C 17.664062 32.894531 16.199219 30.824219 14.65625 31.011719 C 13.121094 31.199219 12.089844 33.574219 12.355469 36.316406 C 12.472656 37.515625 12.816406 38.585938 13.296875 39.390625 C 13.175781 39.484375 12.839844 39.730469 12.453125 40.015625 C 12.160156 40.226562 11.804688 40.488281 11.378906 40.804688 C 10.214844 39.273438 9.414062 37.074219 9.273438 34.601562 Z M 40.980469 46.539062 C 40.867188 49.097656 37.523438 51.496094 34.441406 52.460938 L 34.425781 52.46875 C 33.140625 52.882812 31.996094 53.617188 30.785156 54.386719 C 28.753906 55.691406 26.644531 57.039062 23.609375 57.039062 C 23.402344 57.039062 23.199219 57.03125 23 57.019531 C 20.214844 56.859375 18.914062 55.671875 17.269531 54.171875 C 16.394531 53.378906 15.496094 52.554688 14.339844 51.878906 L 14.3125 51.863281 C 11.8125 50.453125 10.257812 48.695312 10.15625 47.164062 C 10.109375 46.402344 10.449219 45.742188 11.164062 45.207031 C 12.722656 44.035156 13.773438 43.273438 14.464844 42.765625 C 15.230469 42.203125 15.464844 42.035156 15.636719 41.871094 C 15.761719 41.757812 15.890625 41.628906 16.035156 41.488281 C 17.464844 40.097656 19.863281 37.765625 23.542969 37.765625 C 25.792969 37.765625 28.285156 38.632812 30.9375 40.335938 C 32.183594 41.148438 33.273438 41.523438 34.648438 42 C 35.59375 42.328125 36.667969 42.695312 38.105469 43.3125 L 38.128906 43.324219 C 39.46875 43.871094 41.050781 44.875 40.980469 46.539062 Z M 40.238281 40.539062 C 39.984375 40.410156 39.710938 40.289062 39.433594 40.171875 C 38.136719 39.621094 37.101562 39.242188 36.238281 38.945312 C 36.714844 38.011719 37.007812 36.851562 37.035156 35.589844 C 37.105469 32.519531 35.554688 30.027344 33.578125 30.023438 C 31.605469 30.015625 29.953125 32.5 29.882812 35.570312 C 29.882812 35.671875 29.882812 35.773438 29.882812 35.871094 C 28.667969 35.3125 27.472656 34.902344 26.300781 34.65625 C 26.296875 34.539062 26.289062 34.425781 26.285156 34.308594 L 26.285156 34.304688 C 26.171875 28.714844 29.605469 24.089844 33.949219 23.96875 C 38.292969 23.851562 41.902344 28.289062 42.019531 33.878906 C 42.070312 36.410156 41.394531 38.734375 40.238281 40.539062 Z M 40.238281 40.539062 "/>
</g>
</svg>
