<svg xmlns="http://www.w3.org/2000/svg" xmlns:xlink="http://www.w3.org/1999/xlink" width="64" height="64" viewBox="0 0 64 64" version="1.1">
<defs>
<linearGradient id="linear0" gradientUnits="userSpaceOnUse" x1="0" y1="0" x2="0" y2="1" gradientTransform="matrix(64,0,0,53.335938,0,5.332031)">
<stop offset="0" style="stop-color:#ff6666;stop-opacity:1;"/>
<stop offset="1" style="stop-color:#d90000;stop-opacity:1;"/>
</linearGradient>
</defs>
<g id="surface1">
<path style=" stroke:none;fill-rule:nonzero;fill:url(#linear0);" d="M 12 5.332031 L 12 9.4375 L 15.976562 9.4375 C 10.945312 9.496094 7.261719 9.3125 4.253906 11.015625 C 2.742188 11.867188 1.554688 13.308594 0.898438 15.109375 C 0.238281 16.90625 0 19.042969 0 21.742188 L 0 46.359375 C 0 49.054688 0.238281 51.191406 0.898438 52.992188 C 1.554688 54.792969 2.742188 56.234375 4.253906 57.089844 C 7.261719 58.792969 10.945312 58.609375 15.976562 58.667969 L 48.023438 58.667969 C 53.054688 58.609375 56.738281 58.792969 59.753906 57.089844 C 61.257812 56.234375 62.445312 54.792969 63.105469 52.992188 C 63.761719 51.191406 64 49.054688 64 46.359375 L 64 21.742188 C 64 19.042969 63.761719 16.90625 63.101562 15.109375 C 62.445312 13.308594 61.257812 11.867188 59.753906 11.015625 C 56.738281 9.3125 53.054688 9.496094 48.023438 9.4375 L 20 9.4375 L 20 5.332031 Z M 16 13.539062 L 48 13.539062 C 53.035156 13.601562 56.347656 13.785156 57.8125 14.613281 C 58.546875 15.027344 58.96875 15.484375 59.359375 16.550781 C 59.746094 17.617188 60 19.3125 60 21.742188 L 60 46.359375 C 60 48.789062 59.746094 50.484375 59.359375 51.550781 C 58.96875 52.617188 58.546875 53.074219 57.8125 53.492188 C 56.347656 54.320312 53.035156 54.503906 48 54.5625 L 16 54.5625 C 10.964844 54.503906 7.644531 54.320312 6.179688 53.492188 C 5.449219 53.074219 5.03125 52.617188 4.640625 51.550781 C 4.253906 50.484375 4 48.789062 4 46.359375 L 4 21.742188 C 4 19.3125 4.253906 17.617188 4.640625 16.550781 C 5.03125 15.484375 5.449219 15.027344 6.179688 14.613281 C 7.644531 13.785156 10.964844 13.601562 16 13.539062 Z M 32 17.640625 C 23.164062 17.640625 16 24.988281 16 34.050781 C 16 43.117188 23.164062 50.460938 32 50.460938 C 40.835938 50.460938 48 43.117188 48 34.050781 C 48 24.988281 40.835938 17.640625 32 17.640625 Z M 54 17.640625 C 52.894531 17.640625 52 18.558594 52 19.691406 C 52 20.824219 52.894531 21.742188 54 21.742188 C 55.105469 21.742188 56 20.824219 56 19.691406 C 56 18.558594 55.105469 17.640625 54 17.640625 Z M 32 21.742188 C 38.628906 21.742188 44 27.253906 44 34.050781 C 44 40.847656 38.628906 46.359375 32 46.359375 C 25.371094 46.359375 20 40.847656 20 34.050781 C 20 27.253906 25.371094 21.742188 32 21.742188 Z M 31.664062 25.863281 C 27.382812 26.046875 24.003906 29.65625 24 34.050781 C 24 38.585938 27.578125 42.257812 32 42.257812 C 36.421875 42.257812 40 38.585938 40 34.050781 C 39.992188 29.683594 36.652344 26.089844 32.398438 25.871094 C 34.441406 26.078125 36 27.84375 36 29.949219 C 36 32.214844 34.207031 34.050781 32 34.050781 C 29.792969 34.050781 28 32.214844 28 29.949219 C 28 27.816406 29.59375 26.039062 31.664062 25.863281 Z M 31.664062 25.863281 "/>
</g>
</svg>
