<svg xmlns="http://www.w3.org/2000/svg" xmlns:xlink="http://www.w3.org/1999/xlink" width="64" height="64" viewBox="0 0 64 64" version="1.1">
<g id="surface1">
<path style=" stroke:none;fill-rule:evenodd;fill:#ff6666;fill-opacity:1;" d="M 39.316406 0 C 31.613281 9.105469 24.890625 21.085938 24.160156 35.160156 L 24.078125 36.632812 L 35.199219 36.632812 C 34.597656 39.09375 34.257812 41.605469 34.152344 44.121094 C 26.058594 44.605469 18.527344 43.722656 11.285156 39.992188 L 10 42.488281 C 17.730469 46.46875 25.785156 47.410156 34.128906 46.933594 C 34.296875 52.910156 35.78125 58.808594 38.417969 64 L 40.921875 62.734375 C 38.464844 57.898438 36.96875 52.363281 36.71875 46.796875 C 43.308594 46.566406 48.375 44.976562 52.410156 42.574219 L 50.976562 40.167969 C 47.367188 42.316406 42.84375 43.769531 36.695312 43.992188 C 36.789062 41.152344 37.214844 38.335938 38.03125 35.632812 L 38.574219 33.828125 L 27.339844 33.828125 C 28.433594 21.234375 34.316406 10.253906 41.457031 1.8125 Z M 15.921875 16.039062 L 15.921875 23.207031 L 18.726562 23.207031 L 18.726562 16.039062 Z M 41.921875 16.039062 L 41.921875 23.207031 L 44.726562 23.207031 L 44.726562 16.039062 Z M 41.921875 16.039062 "/>
</g>
</svg>
