<svg xmlns="http://www.w3.org/2000/svg" xmlns:xlink="http://www.w3.org/1999/xlink" width="64" height="64" viewBox="0 0 64 64" version="1.1">
<defs>
<linearGradient id="linear0" gradientUnits="userSpaceOnUse" x1="0" y1="0" x2="0" y2="1" gradientTransform="matrix(64,0,0,56,0,4)">
<stop offset="0" style="stop-color:#ff6666;stop-opacity:1;"/>
<stop offset="1" style="stop-color:#d90000;stop-opacity:1;"/>
</linearGradient>
</defs>
<g id="surface1">
<path style=" stroke:none;fill-rule:nonzero;fill:url(#linear0);" d="M 15.96875 4 C 10.941406 4.058594 7.257812 3.886719 4.25 5.546875 C 2.746094 6.378906 1.550781 7.777344 0.890625 9.53125 C 0.230469 11.285156 0 13.371094 0 16 L 0 48 C 0 50.628906 0.230469 52.714844 0.890625 54.46875 C 1.550781 56.222656 2.746094 57.628906 4.25 58.460938 C 7.261719 60.121094 10.945312 59.941406 15.976562 60 L 48.054688 60 C 53.089844 59.941406 56.769531 60.121094 59.78125 58.460938 C 61.289062 57.628906 62.484375 56.222656 63.140625 54.46875 C 63.765625 52.714844 64 50.628906 64 48 L 64 24 C 64 21.371094 63.769531 19.285156 63.109375 17.53125 C 63.027344 17.3125 62.917969 17.117188 62.8125 16.914062 C 62.773438 16.839844 62.742188 16.761719 62.703125 16.6875 C 62.015625 15.332031 61.003906 14.230469 59.75 13.539062 C 56.738281 11.878906 53.058594 12.058594 48.027344 12 L 35.851562 12 L 27.765625 4 Z M 15.96875 8 L 26.125 8 L 34.210938 16 L 48 16 C 53.128906 16.058594 56.128906 16.105469 57.820312 17.039062 C 58.292969 17.300781 58.769531 17.777344 59.140625 18.507812 C 59.078125 18.386719 59.140625 18.550781 59.265625 18.765625 C 59.304688 18.832031 59.265625 18.773438 59.304688 18.8125 L 59.304688 18.820312 C 59.347656 18.910156 59.40625 19.03125 59.375 18.9375 C 59.777344 20.003906 60.007812 21.605469 60.007812 24 L 60.007812 36 L 4 36 L 4 16 C 4 13.605469 4.230469 12.007812 4.632812 10.9375 C 4.976562 10.019531 5.554688 9.394531 6.179688 9.046875 C 7.871094 8.113281 10.871094 8.058594 15.976562 8 Z M 15.96875 8 "/>
</g>
</svg>
