<svg xmlns="http://www.w3.org/2000/svg" xmlns:xlink="http://www.w3.org/1999/xlink" width="64" height="64" viewBox="0 0 64 64" version="1.1">
<defs>
<linearGradient id="linear0" gradientUnits="userSpaceOnUse" x1="0" y1="0" x2="0" y2="1" gradientTransform="matrix(56,0,0,60,4,-0.000000000000053291)">
<stop offset="0" style="stop-color:#ff6666;stop-opacity:1;"/>
<stop offset="1" style="stop-color:#d90000;stop-opacity:1;"/>
</linearGradient>
</defs>
<g id="surface1">
<path style=" stroke:none;fill-rule:nonzero;fill:url(#linear0);" d="M 60 10 C 60 4.5 55.5 0 50 0 C 44.5 0 40 4.5 40 10 C 40 15.5 44.5 20 50 20 C 55.5 20 60 15.5 60 10 Z M 60 50 C 60 44.5 55.5 40 50 40 C 44.5 40 40 44.5 40 50 C 40 55.5 44.5 60 50 60 C 55.5 60 60 55.5 60 50 Z M 56 10 C 56 13.335938 53.335938 16 50 16 C 46.664062 16 44 13.335938 44 10 C 44 6.664062 46.664062 4 50 4 C 53.335938 4 56 6.664062 56 10 Z M 56 50 C 56 53.335938 53.335938 56 50 56 C 46.664062 56 44 53.335938 44 50 C 44 46.664062 46.664062 44 50 44 C 53.335938 44 56 46.664062 56 50 Z M 38.9375 18.4375 C 38.121094 17.375 37.449219 16.21875 36.960938 14.953125 L 21.546875 23.523438 C 19.710938 21.386719 17.019531 20 14 20 C 8.5 20 4 24.5 4 30 C 4 35.5 8.5 40 14 40 C 17.019531 40 19.710938 38.613281 21.546875 36.476562 L 36.960938 45.046875 C 37.449219 43.78125 38.121094 42.625 38.9375 41.5625 L 23.492188 32.984375 C 23.792969 32.035156 24 31.046875 24 30 C 24 28.953125 23.792969 27.964844 23.492188 27.015625 Z M 20 30 C 20 33.335938 17.335938 36 14 36 C 10.664062 36 8 33.335938 8 30 C 8 26.664062 10.664062 24 14 24 C 17.335938 24 20 26.664062 20 30 Z M 20 30 "/>
</g>
</svg>
