<svg xmlns="http://www.w3.org/2000/svg" xmlns:xlink="http://www.w3.org/1999/xlink" width="64" height="64" viewBox="0 0 64 64" version="1.1">
<defs>
<linearGradient id="linear0" gradientUnits="userSpaceOnUse" x1="0" y1="0" x2="0" y2="1" gradientTransform="matrix(64,0,0,42.664062,0,10.667969)">
<stop offset="0" style="stop-color:#ff6666;stop-opacity:1;"/>
<stop offset="1" style="stop-color:#d90000;stop-opacity:1;"/>
</linearGradient>
</defs>
<g id="surface1">
<path style=" stroke:none;fill-rule:nonzero;fill:url(#linear0);" d="M 38.394531 10.667969 C 31.980469 10.667969 26.117188 14.277344 23.207031 19.988281 C 21.9375 19.46875 20.570312 19.199219 19.195312 19.195312 C 13.859375 19.195312 9.355469 23.148438 8.644531 28.4375 C 3.480469 30.210938 0.00390625 35.066406 0 40.53125 C 0 47.601562 5.730469 53.332031 12.804688 53.332031 L 51.195312 53.332031 C 58.269531 53.332031 64 47.601562 64 40.53125 C 63.996094 35.101562 60.5625 30.265625 55.4375 28.46875 C 55.453125 28.222656 55.460938 27.972656 55.46875 27.726562 C 55.46875 18.304688 47.820312 10.667969 38.394531 10.667969 Z M 38.394531 21.332031 C 42.046875 21.332031 44.78125 24.058594 44.792969 27.707031 C 44.792969 27.710938 44.792969 27.734375 44.792969 27.738281 C 44.464844 32.527344 47.375 36.945312 51.90625 38.53125 C 52.796875 38.84375 53.332031 39.597656 53.335938 40.53125 C 53.335938 41.835938 52.503906 42.667969 51.199219 42.667969 L 12.804688 42.667969 C 11.503906 42.667969 10.675781 41.839844 10.667969 40.539062 L 10.667969 40.53125 C 10.671875 39.589844 11.210938 38.839844 12.109375 38.53125 C 15.921875 37.21875 18.667969 33.871094 19.210938 29.875 C 24.339844 31.953125 30.207031 29.765625 32.71875 24.832031 C 33.820312 22.667969 35.984375 21.332031 38.394531 21.332031 Z M 38.394531 21.332031 "/>
</g>
</svg>
