<svg xmlns="http://www.w3.org/2000/svg" xmlns:xlink="http://www.w3.org/1999/xlink" width="64" height="64" viewBox="0 0 64 64" version="1.1">
<g id="surface1">
<path style=" stroke:none;fill-rule:evenodd;fill:#ff6666;fill-opacity:1;" d="M 34.210938 41.199219 L 28.96875 41.199219 L 27.316406 24.046875 L 27.316406 10.613281 L 35.863281 10.613281 L 35.863281 24.046875 Z M 32 0 C 14.328125 0 0 14.328125 0 32 C 0 49.671875 14.328125 64 32 64 C 49.671875 64 64 49.671875 64 32 C 64 14.328125 49.671875 0 32 0 Z M 35.539062 51.6875 C 34.457031 52.75 33.128906 53.28125 31.558594 53.28125 C 29.988281 53.28125 28.691406 52.761719 27.671875 51.71875 C 26.652344 50.675781 26.140625 49.390625 26.140625 47.859375 C 26.140625 46.328125 26.652344 45.03125 27.671875 43.96875 C 28.691406 42.90625 29.988281 42.375 31.558594 42.375 C 33.128906 42.375 34.457031 42.90625 35.539062 43.96875 C 36.621094 45.03125 37.160156 46.328125 37.160156 47.859375 C 37.160156 49.351562 36.621094 50.625 35.539062 51.6875 Z M 35.539062 51.6875 "/>
</g>
</svg>
