<svg xmlns="http://www.w3.org/2000/svg" xmlns:xlink="http://www.w3.org/1999/xlink" width="64" height="64" viewBox="0 0 64 64" version="1.1">
<defs>
<linearGradient id="linear0" gradientUnits="userSpaceOnUse" x1="0" y1="0" x2="0" y2="1" gradientTransform="matrix(64,0,0,64,0,0)">
<stop offset="0" style="stop-color:#ff6666;stop-opacity:1;"/>
<stop offset="1" style="stop-color:#d90000;stop-opacity:1;"/>
</linearGradient>
</defs>
<g id="surface1">
<path style=" stroke:none;fill-rule:nonzero;fill:url(#linear0);" d="M 15.976562 0 C 10.945312 0.0585938 7.261719 -0.117188 4.246094 1.546875 C 2.6875 2.433594 1.496094 3.84375 0.886719 5.53125 C 0.230469 7.285156 0 9.371094 0 12 L 0 40 C 0 42.632812 0.230469 44.714844 0.890625 46.46875 C 1.546875 48.222656 2.742188 49.628906 4.253906 50.460938 C 7.261719 52.125 10.945312 51.941406 15.976562 52 L 28 52 L 28 56 L 36 56 L 36 52 L 48.023438 52 C 53.054688 51.941406 56.738281 52.121094 59.753906 50.460938 C 61.257812 49.632812 62.453125 48.21875 63.113281 46.46875 C 63.769531 44.714844 64 42.628906 64 40 L 64 20 C 64 17.367188 63.769531 15.285156 63.109375 13.53125 C 63.027344 13.3125 62.914062 13.117188 62.8125 12.914062 L 62.703125 12.6875 C 62.058594 11.367188 61.027344 10.269531 59.753906 9.539062 C 56.738281 7.875 53.054688 8.058594 48.023438 8 L 35.867188 8 L 27.78125 0 Z M 16.023438 4 L 26.144531 4 L 33.203125 10.984375 L 28.132812 16 L 15.976562 16 C 10.945312 16.058594 7.261719 15.878906 4.246094 17.539062 C 4.160156 17.589844 4.089844 17.660156 4 17.710938 L 4 12 C 4 9.632812 4.246094 7.976562 4.640625 6.9375 C 5.03125 5.894531 5.453125 5.453125 6.1875 5.046875 C 7.652344 4.234375 10.96875 4.058594 16.023438 4 Z M 37.859375 12 L 47.96875 12 C 53.023438 12.058594 56.335938 12.238281 57.808594 13.046875 C 58.539062 13.449219 58.960938 13.894531 59.351562 14.9375 C 59.742188 15.976562 60 17.632812 60 20 L 60 40 C 60 42.367188 59.746094 44.023438 59.359375 45.0625 C 58.96875 46.105469 58.546875 46.546875 57.8125 46.953125 C 56.347656 47.761719 53.039062 47.941406 48 48 L 16 48 C 10.960938 47.941406 7.652344 47.761719 6.1875 46.953125 C 5.453125 46.550781 5.027344 46.105469 4.640625 45.0625 C 4.253906 44.023438 4 42.367188 4 40 L 4 28 C 4 25.632812 4.257812 23.976562 4.648438 22.9375 C 5.039062 21.894531 5.460938 21.453125 6.195312 21.046875 C 7.664062 20.234375 10.976562 20.058594 16.03125 20 L 29.773438 20 Z M 4 60 L 4 64 L 60 64 L 60 60 Z M 4 60 "/>
</g>
</svg>
