<svg xmlns="http://www.w3.org/2000/svg" xmlns:xlink="http://www.w3.org/1999/xlink" width="64" height="64" viewBox="0 0 64 64" version="1.1">
<defs>
<linearGradient id="linear0" gradientUnits="userSpaceOnUse" x1="0" y1="0" x2="0" y2="1" gradientTransform="matrix(60,0,0,45,2,9.5)">
<stop offset="0" style="stop-color:#ff6666;stop-opacity:1;"/>
<stop offset="1" style="stop-color:#d90000;stop-opacity:1;"/>
</linearGradient>
</defs>
<g id="surface1">
<path style=" stroke:none;fill-rule:nonzero;fill:url(#linear0);" d="M 16.191406 9.523438 C 15.132812 9.546875 14.097656 9.832031 13.171875 10.347656 C 9.28125 12.398438 5.699219 19.125 3.757812 27.84375 C 2.097656 35.246094 1.488281 45.375 2.476562 49.449219 C 3.335938 52.953125 4.828125 54.5 7.472656 54.5 C 11.394531 54.433594 16.324219 50.058594 19.449219 44.167969 C 21.707031 40.902344 26.949219 39.421875 32 39.585938 C 37.046875 39.40625 42.292969 40.902344 44.550781 44.167969 C 47.675781 50.058594 52.605469 54.433594 56.523438 54.5 C 59.171875 54.5 60.664062 52.953125 61.523438 49.449219 C 62.511719 45.375 61.902344 35.246094 60.246094 27.84375 C 58.296875 19.125 54.71875 12.398438 50.832031 10.347656 C 48.691406 9.199219 46.933594 9.234375 45.367188 10.347656 C 43.390625 11.761719 39.269531 13.277344 32 13.28125 C 24.730469 13.289062 20.609375 11.761719 18.632812 10.347656 C 17.933594 9.808594 17.074219 9.519531 16.191406 9.523438 Z M 17.125 20.796875 L 20.84375 20.796875 L 20.84375 24.554688 L 24.5625 24.554688 L 24.5625 28.3125 L 20.84375 28.3125 L 20.84375 32.070312 L 17.125 32.070312 L 17.125 28.3125 L 13.402344 28.3125 L 13.402344 24.554688 L 17.125 24.554688 Z M 45.019531 20.796875 C 46.046875 20.796875 46.878906 21.640625 46.878906 22.675781 C 46.878906 23.710938 46.046875 24.554688 45.019531 24.554688 C 44.523438 24.550781 44.046875 24.351562 43.699219 24 C 43.351562 23.648438 43.15625 23.171875 43.160156 22.675781 C 43.160156 21.640625 43.992188 20.796875 45.019531 20.796875 Z M 41.300781 24.554688 C 42.328125 24.554688 43.160156 25.394531 43.160156 26.433594 C 43.160156 27.472656 42.328125 28.3125 41.300781 28.3125 C 40.804688 28.3125 40.328125 28.113281 39.980469 27.761719 C 39.632812 27.40625 39.4375 26.933594 39.441406 26.433594 C 39.441406 25.394531 40.273438 24.554688 41.300781 24.554688 Z M 48.738281 24.554688 C 49.769531 24.554688 50.601562 25.394531 50.601562 26.433594 C 50.601562 27.472656 49.769531 28.3125 48.738281 28.3125 C 48.242188 28.3125 47.769531 28.113281 47.421875 27.761719 C 47.070312 27.40625 46.875 26.933594 46.878906 26.433594 C 46.878906 25.394531 47.710938 24.554688 48.738281 24.554688 Z M 45.019531 28.3125 C 46.046875 28.3125 46.878906 29.15625 46.878906 30.191406 C 46.878906 31.226562 46.046875 32.070312 45.019531 32.070312 C 44.523438 32.066406 44.046875 31.867188 43.699219 31.515625 C 43.351562 31.164062 43.15625 30.6875 43.160156 30.191406 C 43.160156 29.15625 43.992188 28.3125 45.019531 28.3125 Z M 45.019531 28.3125 "/>
</g>
</svg>
