<svg xmlns="http://www.w3.org/2000/svg" xmlns:xlink="http://www.w3.org/1999/xlink" width="64" height="64" viewBox="0 0 64 64" version="1.1">
<g id="surface1">
<path style=" stroke:none;fill-rule:evenodd;fill:#ff6666;fill-opacity:1;" d="M 32 0 L 32 4.925781 L 36.925781 4.925781 L 36.925781 0 Z M 32 4.925781 L 27.074219 4.925781 L 27.074219 9.847656 L 32 9.847656 Z M 32 9.847656 L 32 14.769531 L 36.925781 14.769531 L 36.925781 9.847656 Z M 32 14.769531 L 27.074219 14.769531 L 27.074219 19.691406 L 32 19.691406 Z M 32 19.691406 L 32 24.617188 C 34.714844 24.617188 36.925781 22.152344 36.925781 19.691406 Z M 32 29.539062 C 34.714844 29.539062 36.925781 31.507812 36.925781 34.460938 C 36.925781 36.925781 34.714844 39.382812 32 39.382812 C 29.285156 39.382812 27.074219 36.925781 27.074219 34.460938 C 27.074219 31.507812 29.285156 29.539062 32 29.539062 Z M 32 44.308594 C 34.714844 44.308594 36.925781 46.277344 36.925781 49.230469 L 36.925781 54.152344 C 36.925781 56.617188 34.714844 59.074219 32 59.074219 C 29.285156 59.074219 27.074219 56.617188 27.074219 54.152344 L 27.074219 49.230469 C 27.074219 46.277344 29.285156 44.308594 32 44.308594 Z M 32 24.617188 C 26.558594 24.617188 22.152344 29.046875 22.152344 34.460938 L 22.152344 54.152344 C 22.152344 59.566406 26.558594 64 32 64 C 37.441406 64 41.847656 59.566406 41.847656 54.152344 L 41.847656 34.460938 C 41.847656 29.046875 37.441406 24.617188 32 24.617188 Z M 32 24.617188 "/>
</g>
</svg>
