<svg xmlns="http://www.w3.org/2000/svg" xmlns:xlink="http://www.w3.org/1999/xlink" width="64" height="64" viewBox="0 0 64 64" version="1.1">
<defs>
<linearGradient id="linear0" gradientUnits="userSpaceOnUse" x1="0" y1="0" x2="0" y2="1" gradientTransform="matrix(12,0,0,12,40,12)">
<stop offset="0" style="stop-color:#ff6666;stop-opacity:1;"/>
<stop offset="1" style="stop-color:#d90000;stop-opacity:1;"/>
</linearGradient>
<linearGradient id="linear1" gradientUnits="userSpaceOnUse" x1="0" y1="0" x2="0" y2="1" gradientTransform="matrix(56,0,0,56,4,4)">
<stop offset="0" style="stop-color:#ff6666;stop-opacity:1;"/>
<stop offset="1" style="stop-color:#d90000;stop-opacity:1;"/>
</linearGradient>
<linearGradient id="linear2" gradientUnits="userSpaceOnUse" x1="0" y1="0" x2="0" y2="1" gradientTransform="matrix(32,0,0,22,12,22)">
<stop offset="0" style="stop-color:#ff6666;stop-opacity:1;"/>
<stop offset="1" style="stop-color:#d90000;stop-opacity:1;"/>
</linearGradient>
</defs>
<g id="surface1">
<path style=" stroke:none;fill-rule:nonzero;fill:url(#linear0);" d="M 46 12 C 42.6875 12 40 14.6875 40 18 C 40 21.3125 42.6875 24 46 24 C 49.3125 24 52 21.3125 52 18 C 52 14.6875 49.3125 12 46 12 Z M 46 12 "/>
<path style=" stroke:none;fill-rule:nonzero;fill:url(#linear1);" d="M 4 4 L 4 60 L 60 60 L 60 4 Z M 8 8 L 56 8 L 56 48 L 8 48 Z M 8 8 "/>
<path style=" stroke:none;fill-rule:nonzero;fill:url(#linear2);" d="M 24 22 L 12 44 L 44 44 L 34 26 L 30 32 Z M 24 22 "/>
</g>
</svg>
