<svg xmlns="http://www.w3.org/2000/svg" xmlns:xlink="http://www.w3.org/1999/xlink" width="64" height="64" viewBox="0 0 64 64" version="1.1">
<defs>
<linearGradient id="linear0" gradientUnits="userSpaceOnUse" x1="0" y1="0" x2="0" y2="1" gradientTransform="matrix(13.175781,0,0,13.175781,16.941406,0)">
<stop offset="0" style="stop-color:#ff6666;stop-opacity:1;"/>
<stop offset="1" style="stop-color:#d90000;stop-opacity:1;"/>
</linearGradient>
<linearGradient id="linear1" gradientUnits="userSpaceOnUse" x1="0" y1="0" x2="0" y2="1" gradientTransform="matrix(13.175781,0,0,13.175781,16.941406,16.941406)">
<stop offset="0" style="stop-color:#ff6666;stop-opacity:1;"/>
<stop offset="1" style="stop-color:#d90000;stop-opacity:1;"/>
</linearGradient>
<linearGradient id="linear2" gradientUnits="userSpaceOnUse" x1="0" y1="0" x2="0" y2="1" gradientTransform="matrix(13.175781,0,0,13.175781,16.941406,33.882812)">
<stop offset="0" style="stop-color:#ff6666;stop-opacity:1;"/>
<stop offset="1" style="stop-color:#d90000;stop-opacity:1;"/>
</linearGradient>
<linearGradient id="linear3" gradientUnits="userSpaceOnUse" x1="0" y1="0" x2="0" y2="1" gradientTransform="matrix(13.175781,0,0,13.175781,16.941406,50.824219)">
<stop offset="0" style="stop-color:#ff6666;stop-opacity:1;"/>
<stop offset="1" style="stop-color:#d90000;stop-opacity:1;"/>
</linearGradient>
<linearGradient id="linear4" gradientUnits="userSpaceOnUse" x1="0" y1="0" x2="0" y2="1" gradientTransform="matrix(13.175781,0,0,13.175781,33.882812,16.941406)">
<stop offset="0" style="stop-color:#ff6666;stop-opacity:1;"/>
<stop offset="1" style="stop-color:#d90000;stop-opacity:1;"/>
</linearGradient>
<linearGradient id="linear5" gradientUnits="userSpaceOnUse" x1="0" y1="0" x2="0" y2="1" gradientTransform="matrix(13.175781,0,0,13.175781,33.882812,33.882812)">
<stop offset="0" style="stop-color:#ff6666;stop-opacity:1;"/>
<stop offset="1" style="stop-color:#d90000;stop-opacity:1;"/>
</linearGradient>
<linearGradient id="linear6" gradientUnits="userSpaceOnUse" x1="0" y1="0" x2="0" y2="1" gradientTransform="matrix(13.175781,0,0,13.175781,33.882812,50.824219)">
<stop offset="0" style="stop-color:#ff6666;stop-opacity:1;"/>
<stop offset="1" style="stop-color:#d90000;stop-opacity:1;"/>
</linearGradient>
</defs>
<g id="surface1">
<path style=" stroke:none;fill-rule:nonzero;fill:url(#linear0);" d="M 18.445312 0 L 28.613281 0 C 29.441406 0 30.117188 0.675781 30.117188 1.507812 L 30.117188 11.671875 C 30.117188 12.5 29.441406 13.175781 28.613281 13.175781 L 18.445312 13.175781 C 17.617188 13.175781 16.941406 12.5 16.941406 11.671875 L 16.941406 1.507812 C 16.941406 0.675781 17.617188 0 18.445312 0 Z M 18.445312 0 "/>
<path style=" stroke:none;fill-rule:nonzero;fill:url(#linear1);" d="M 18.445312 16.941406 L 28.613281 16.941406 C 29.441406 16.941406 30.117188 17.617188 30.117188 18.445312 L 30.117188 28.613281 C 30.117188 29.441406 29.441406 30.117188 28.613281 30.117188 L 18.445312 30.117188 C 17.617188 30.117188 16.941406 29.441406 16.941406 28.613281 L 16.941406 18.445312 C 16.941406 17.617188 17.617188 16.941406 18.445312 16.941406 Z M 18.445312 16.941406 "/>
<path style=" stroke:none;fill-rule:nonzero;fill:url(#linear2);" d="M 18.445312 33.882812 L 28.613281 33.882812 C 29.441406 33.882812 30.117188 34.558594 30.117188 35.386719 L 30.117188 45.554688 C 30.117188 46.382812 29.441406 47.058594 28.613281 47.058594 L 18.445312 47.058594 C 17.617188 47.058594 16.941406 46.382812 16.941406 45.554688 L 16.941406 35.386719 C 16.941406 34.558594 17.617188 33.882812 18.445312 33.882812 Z M 18.445312 33.882812 "/>
<path style=" stroke:none;fill-rule:nonzero;fill:url(#linear3);" d="M 18.445312 50.824219 L 28.613281 50.824219 C 29.441406 50.824219 30.117188 51.5 30.117188 52.328125 L 30.117188 62.492188 C 30.117188 63.324219 29.441406 64 28.613281 64 L 18.445312 64 C 17.617188 64 16.941406 63.324219 16.941406 62.492188 L 16.941406 52.328125 C 16.941406 51.5 17.617188 50.824219 18.445312 50.824219 Z M 18.445312 50.824219 "/>
<path style=" stroke:none;fill-rule:nonzero;fill:url(#linear4);" d="M 35.386719 16.941406 L 45.554688 16.941406 C 46.382812 16.941406 47.058594 17.617188 47.058594 18.445312 L 47.058594 28.613281 C 47.058594 29.441406 46.382812 30.117188 45.554688 30.117188 L 35.386719 30.117188 C 34.558594 30.117188 33.882812 29.441406 33.882812 28.613281 L 33.882812 18.445312 C 33.882812 17.617188 34.558594 16.941406 35.386719 16.941406 Z M 35.386719 16.941406 "/>
<path style=" stroke:none;fill-rule:nonzero;fill:url(#linear5);" d="M 35.386719 33.882812 L 45.554688 33.882812 C 46.382812 33.882812 47.058594 34.558594 47.058594 35.386719 L 47.058594 45.554688 C 47.058594 46.382812 46.382812 47.058594 45.554688 47.058594 L 35.386719 47.058594 C 34.558594 47.058594 33.882812 46.382812 33.882812 45.554688 L 33.882812 35.386719 C 33.882812 34.558594 34.558594 33.882812 35.386719 33.882812 Z M 35.386719 33.882812 "/>
<path style=" stroke:none;fill-rule:nonzero;fill:url(#linear6);" d="M 35.386719 50.824219 L 45.554688 50.824219 C 46.382812 50.824219 47.058594 51.5 47.058594 52.328125 L 47.058594 62.492188 C 47.058594 63.324219 46.382812 64 45.554688 64 L 35.386719 64 C 34.558594 64 33.882812 63.324219 33.882812 62.492188 L 33.882812 52.328125 C 33.882812 51.5 34.558594 50.824219 35.386719 50.824219 Z M 35.386719 50.824219 "/>
</g>
</svg>
