<svg xmlns="http://www.w3.org/2000/svg" xmlns:xlink="http://www.w3.org/1999/xlink" width="64" height="64" viewBox="0 0 64 64" version="1.1">
<g id="surface1">
<path style=" stroke:none;fill-rule:evenodd;fill:#ff6666;fill-opacity:1;" d="M 33.589844 27.097656 C 40.191406 31.066406 48.761719 28.929688 52.730469 22.324219 C 56.695312 15.722656 54.558594 7.152344 47.957031 3.183594 C 41.351562 -0.785156 32.785156 1.351562 28.816406 7.957031 C 24.847656 14.558594 26.984375 23.128906 33.589844 27.097656 Z M 37.601562 20.414062 C 36.539062 19.796875 36.453125 16.75 38.203125 13.835938 C 40.351562 10.269531 45.144531 13.242188 42.988281 16.832031 C 41.183594 19.832031 38.667969 21.035156 37.601562 20.414062 Z M 37.601562 20.414062 "/>
<path style=" stroke:none;fill-rule:evenodd;fill:#ff6666;fill-opacity:1;" d="M 36.40625 21.609375 L 37.109375 22.035156 L 34.574219 26.253906 L 34.925781 26.464844 L 33.550781 28.75 L 32.144531 27.90625 L 33.519531 25.621094 L 33.871094 25.832031 Z M 23.378906 40.105469 L 25.542969 36.144531 L 22.011719 34.019531 L 23.277344 31.910156 L 26.722656 33.980469 L 30.5625 26.953125 L 32.144531 27.90625 L 35.132812 29.699219 L 30.730469 36.390625 L 34.179688 38.460938 L 32.910156 40.570312 L 29.378906 38.445312 L 26.894531 42.21875 L 26.191406 41.796875 L 25.925781 42.238281 C 25.148438 43.535156 23.027344 42.28125 23.816406 40.96875 L 24.082031 40.527344 Z M 23.378906 40.105469 "/>
<path style=" stroke:none;fill-rule:evenodd;fill:#ff6666;fill-opacity:1;" d="M 25.503906 26.609375 C 25.667969 26.339844 25.667969 26.019531 25.535156 25.761719 C 25.898438 25.09375 25.746094 24.300781 25.183594 23.960938 C 24.617188 23.621094 23.847656 23.863281 23.425781 24.496094 C 23.136719 24.5 22.851562 24.648438 22.691406 24.917969 L 11.929688 42.832031 C 11.6875 42.769531 11.425781 42.871094 11.292969 43.09375 L 8.511719 47.726562 C 8.375 47.949219 8.410156 48.226562 8.574219 48.414062 L 8.140625 49.136719 L 6.871094 51.246094 C 6.40625 52.023438 6.65625 53.03125 7.433594 53.5 C 8.210938 53.96875 9.21875 53.714844 9.683594 52.9375 L 10.953125 50.828125 L 11.390625 50.101562 C 11.628906 50.164062 11.890625 50.0625 12.027344 49.835938 L 14.808594 45.207031 C 14.941406 44.984375 14.910156 44.707031 14.742188 44.519531 Z M 25.503906 26.609375 "/>
<path style=" stroke:none;fill-rule:evenodd;fill:#ff6666;fill-opacity:1;" d="M 37.8125 34.003906 C 37.976562 33.734375 38.257812 33.585938 38.546875 33.582031 C 38.96875 32.949219 39.738281 32.707031 40.304688 33.046875 C 40.867188 33.386719 41.019531 34.179688 40.65625 34.847656 C 40.789062 35.105469 40.789062 35.425781 40.625 35.695312 L 29.863281 53.605469 C 30.03125 53.792969 30.0625 54.070312 29.929688 54.292969 L 27.148438 58.921875 C 27.011719 59.148438 26.75 59.25 26.511719 59.1875 L 26.074219 59.914062 L 23.261719 58.222656 L 23.695312 57.5 C 23.53125 57.3125 23.496094 57.035156 23.632812 56.8125 L 26.414062 52.179688 C 26.546875 51.957031 26.808594 51.855469 27.050781 51.914062 Z M 21.992188 60.335938 L 23.261719 58.222656 L 26.074219 59.914062 L 24.804688 62.023438 C 24.339844 62.800781 23.332031 63.050781 22.554688 62.585938 C 21.777344 62.117188 21.527344 61.109375 21.992188 60.335938 Z M 21.992188 60.335938 "/>
</g>
</svg>
