<svg xmlns="http://www.w3.org/2000/svg" xmlns:xlink="http://www.w3.org/1999/xlink" width="64" height="64" viewBox="0 0 64 64" version="1.1">
<defs>
<linearGradient id="linear0" gradientUnits="userSpaceOnUse" x1="0" y1="0" x2="0" y2="1" gradientTransform="matrix(64,0,0,56,0,4)">
<stop offset="0" style="stop-color:#ff6666;stop-opacity:1;"/>
<stop offset="1" style="stop-color:#d90000;stop-opacity:1;"/>
</linearGradient>
<filter id="alpha" filterUnits="objectBoundingBox" x="0%" y="0%" width="100%" height="100%">
  <feColorMatrix type="matrix" in="SourceGraphic" values="0 0 0 0 1 0 0 0 0 1 0 0 0 0 1 0 0 0 1 0"/>
</filter>
<mask id="mask0">
  <g filter="url(#alpha)">
<rect x="0" y="0" width="64" height="64" style="fill:rgb(0%,0%,0%);fill-opacity:0.8;stroke:none;"/>
  </g>
</mask>
<clipPath id="clip1">
  <rect x="0" y="0" width="64" height="64"/>
</clipPath>
<g id="surface5" clip-path="url(#clip1)">
<path style=" stroke:none;fill-rule:nonzero;fill:#ff6666;fill-opacity:1;" d="M 17.453125 42.910156 C 20.46875 42.910156 22.910156 40.46875 22.910156 37.453125 C 22.910156 34.441406 20.46875 32 17.453125 32 C 14.441406 32 12 34.441406 12 37.453125 C 12 40.46875 14.441406 42.910156 17.453125 42.910156 Z M 17.453125 42.910156 "/>
</g>
<mask id="mask1">
  <g filter="url(#alpha)">
<rect x="0" y="0" width="64" height="64" style="fill:rgb(0%,0%,0%);fill-opacity:0.8;stroke:none;"/>
  </g>
</mask>
<clipPath id="clip2">
  <rect x="0" y="0" width="64" height="64"/>
</clipPath>
<g id="surface8" clip-path="url(#clip2)">
<path style=" stroke:none;fill-rule:nonzero;fill:#ff6666;fill-opacity:1;" d="M 32 42.910156 C 35.011719 42.910156 37.453125 40.46875 37.453125 37.453125 C 37.453125 34.441406 35.011719 32 32 32 C 28.988281 32 26.542969 34.441406 26.542969 37.453125 C 26.542969 40.46875 28.988281 42.910156 32 42.910156 Z M 32 42.910156 "/>
</g>
<mask id="mask2">
  <g filter="url(#alpha)">
<rect x="0" y="0" width="64" height="64" style="fill:rgb(0%,0%,0%);fill-opacity:0.8;stroke:none;"/>
  </g>
</mask>
<clipPath id="clip3">
  <rect x="0" y="0" width="64" height="64"/>
</clipPath>
<g id="surface11" clip-path="url(#clip3)">
<path style=" stroke:none;fill-rule:nonzero;fill:#ff6666;fill-opacity:1;" d="M 46.546875 42.910156 C 49.558594 42.910156 52 40.46875 52 37.453125 C 52 34.441406 49.558594 32 46.546875 32 C 43.53125 32 41.089844 34.441406 41.089844 37.453125 C 41.089844 40.46875 43.53125 42.910156 46.546875 42.910156 Z M 46.546875 42.910156 "/>
</g>
</defs>
<g id="surface1">
<path style=" stroke:none;fill-rule:nonzero;fill:url(#linear0);" d="M 15.960938 4 C 10.960938 4.058594 7.28125 3.882812 4.238281 5.546875 C 2.679688 6.433594 1.488281 7.84375 0.878906 9.53125 C 0.238281 11.285156 0 13.371094 0 16 L 0 48 C 0 50.632812 0.238281 52.714844 0.878906 54.46875 C 1.558594 56.222656 2.761719 57.628906 4.238281 58.460938 C 7.238281 60.125 10.960938 59.941406 15.960938 60 L 48.039062 60 C 53.039062 59.941406 56.761719 60.121094 59.761719 58.460938 C 61.238281 57.632812 62.441406 56.21875 63.121094 54.46875 C 63.761719 52.714844 64 50.628906 64 48 L 64 24 C 64 21.367188 63.761719 19.285156 63.121094 17.53125 C 63.039062 17.3125 62.921875 17.117188 62.800781 16.914062 L 62.71875 16.6875 C 62.070312 15.367188 61.039062 14.269531 59.761719 13.539062 C 56.761719 11.875 53.039062 12.058594 48.039062 12 L 35.878906 12 L 27.761719 4 Z M 16.039062 8 L 26.160156 8 L 33.199219 14.984375 L 28.121094 20 L 15.960938 20 C 10.960938 20.058594 7.28125 19.878906 4.238281 21.539062 C 4.160156 21.589844 4.078125 21.660156 4 21.710938 L 4 16 C 4 13.632812 4.238281 11.976562 4.640625 10.9375 C 5.039062 9.894531 5.441406 9.453125 6.199219 9.046875 C 7.640625 8.234375 10.960938 8.058594 16.039062 8 Z M 37.839844 16 L 47.960938 16 C 53.039062 16.058594 56.320312 16.238281 57.800781 17.046875 C 58.519531 17.449219 58.960938 17.894531 59.359375 18.9375 C 59.761719 19.976562 60 21.632812 60 24 L 60 48 C 60 50.367188 59.761719 52.023438 59.359375 53.0625 C 58.960938 54.105469 58.558594 54.546875 57.800781 54.953125 C 56.359375 55.761719 53.039062 55.941406 48 56 L 16 56 C 10.960938 55.941406 7.640625 55.761719 6.199219 54.953125 C 5.441406 54.550781 5.039062 54.105469 4.640625 53.0625 C 4.238281 52.023438 4 50.367188 4 48 L 4 32 C 4 29.632812 4.238281 27.976562 4.640625 26.9375 C 5.039062 25.894531 5.480469 25.453125 6.199219 25.046875 C 7.679688 24.234375 10.960938 24.058594 16.039062 24 L 29.761719 24 Z M 37.839844 16 "/>
<use xlink:href="#surface5" mask="url(#mask0)"/>
<use xlink:href="#surface8" mask="url(#mask1)"/>
<use xlink:href="#surface11" mask="url(#mask2)"/>
</g>
</svg>
