<svg xmlns="http://www.w3.org/2000/svg" xmlns:xlink="http://www.w3.org/1999/xlink" width="64" height="64" viewBox="0 0 64 64" version="1.1">
<defs>
<linearGradient id="linear0" gradientUnits="userSpaceOnUse" x1="0" y1="0" x2="0" y2="1" gradientTransform="matrix(60,0,0,57.21875,2,2.78125)">
<stop offset="0" style="stop-color:#ff6666;stop-opacity:1;"/>
<stop offset="1" style="stop-color:#d90000;stop-opacity:1;"/>
</linearGradient>
</defs>
<g id="surface1">
<path style=" stroke:none;fill-rule:nonzero;fill:url(#linear0);" d="M 57 59.964844 C 56.4375 59.890625 55.960938 59.632812 55.578125 59.222656 C 54.726562 58.308594 53.332031 55.632812 52.1875 52.71875 C 51.542969 51.085938 50.3125 47.484375 50.3125 47.238281 C 50.3125 47.164062 51.125 46.625 52.117188 46.046875 L 53.921875 44.996094 L 54.207031 45.261719 C 55.324219 46.316406 58.554688 51.136719 60.4375 54.570312 C 61.191406 55.945312 61.265625 56.140625 61.261719 56.707031 C 61.257812 57.460938 61.019531 57.988281 60.351562 58.734375 C 59.546875 59.628906 58.160156 60.136719 57 59.96875 Z M 3.351562 59.070312 C 3.382812 58.980469 3.933594 56.5 4.570312 53.5625 C 5.207031 50.628906 5.742188 48.207031 5.761719 48.183594 C 5.820312 48.109375 11.585938 52.15625 11.585938 52.269531 C 11.585938 52.332031 9.917969 53.765625 7.878906 55.457031 C 3.292969 59.257812 3.273438 59.273438 3.351562 59.070312 Z M 9.457031 48.710938 C 7.851562 47.597656 6.550781 46.644531 6.566406 46.585938 C 6.601562 46.449219 20.410156 23.078125 20.523438 22.957031 C 20.585938 22.898438 26.617188 26.6875 26.902344 26.96875 C 26.960938 27.03125 12.605469 50.679688 12.492188 50.707031 C 12.429688 50.722656 11.066406 49.824219 9.457031 48.710938 Z M 47.351562 42.535156 C 46.25 40.675781 45.367188 39.144531 45.386719 39.132812 C 45.582031 38.996094 49.757812 36.59375 49.800781 36.59375 C 49.871094 36.59375 53.375 43.574219 53.324219 43.609375 C 52.871094 43.925781 49.527344 45.917969 49.457031 45.917969 C 49.402344 45.914062 48.453125 44.390625 47.351562 42.535156 Z M 2.042969 42.183594 C 2.007812 41.859375 1.988281 39.242188 2.007812 36.371094 L 2.039062 31.148438 L 7.828125 31.179688 C 11.011719 31.199219 13.628906 31.226562 13.644531 31.242188 C 13.660156 31.257812 12.128906 33.859375 10.242188 37.019531 L 6.808594 42.769531 L 2.113281 42.769531 Z M 19.40625 42.605469 C 19.40625 42.574219 20.976562 39.972656 22.898438 36.820312 L 26.390625 31.085938 L 38.792969 31.085938 L 42.109375 36.605469 C 43.929688 39.640625 45.488281 42.246094 45.566406 42.394531 L 45.710938 42.660156 L 32.558594 42.660156 C 25.324219 42.660156 19.402344 42.628906 19.402344 42.601562 Z M 53.238281 40.160156 C 52.570312 38.785156 51.3125 36.207031 50.445312 34.429688 L 48.867188 31.199219 L 53.15625 31.195312 C 55.515625 31.195312 58.472656 31.164062 59.722656 31.121094 L 62 31.046875 L 62 42.65625 L 54.453125 42.65625 L 53.238281 40.15625 Z M 43.660156 36.453125 C 41.117188 32.449219 38.53125 27.742188 35.417969 21.476562 C 32.949219 16.503906 30.574219 11.363281 29.597656 8.871094 C 28.175781 5.261719 27.835938 3.019531 28.679688 2.808594 C 30.027344 2.46875 32.667969 5.53125 36.421875 11.792969 C 39.367188 16.699219 44.074219 25.273438 47.667969 32.265625 C 48.335938 33.5625 49 34.835938 49.144531 35.09375 L 49.410156 35.558594 L 47.167969 36.863281 C 45.9375 37.578125 44.890625 38.164062 44.839844 38.164062 C 44.789062 38.164062 44.257812 37.394531 43.660156 36.453125 Z M 24.207031 24.046875 L 21.085938 21.988281 L 21.378906 21.519531 C 21.539062 21.261719 22.359375 19.960938 23.195312 18.625 C 24.03125 17.285156 24.730469 16.175781 24.746094 16.15625 C 24.761719 16.140625 26.167969 17.039062 27.871094 18.160156 L 30.96875 20.199219 L 30.507812 20.949219 C 30.253906 21.363281 29.492188 22.613281 28.8125 23.722656 C 28.136719 24.835938 27.523438 25.828125 27.453125 25.925781 C 27.34375 26.078125 26.898438 25.820312 24.207031 24.046875 Z M 28.191406 17.363281 C 26.574219 16.304688 25.25 15.390625 25.25 15.332031 C 25.25 14.882812 26.585938 13.644531 27.246094 13.480469 C 28.332031 13.207031 30.109375 13.902344 31.101562 14.984375 C 31.867188 15.824219 32.035156 16.234375 31.960938 17.09375 C 31.90625 17.738281 31.378906 19.285156 31.214844 19.285156 C 31.167969 19.285156 29.808594 18.417969 28.191406 17.363281 Z M 28.191406 17.363281 "/>
</g>
</svg>
