<svg xmlns="http://www.w3.org/2000/svg" xmlns:xlink="http://www.w3.org/1999/xlink" width="64" height="64" viewBox="0 0 64 64" version="1.1">
<defs>
<linearGradient id="linear0" gradientUnits="userSpaceOnUse" x1="0" y1="0" x2="0" y2="1" gradientTransform="matrix(64,0,0,41.140625,0,11.429688)">
<stop offset="0" style="stop-color:#ff6666;stop-opacity:1;"/>
<stop offset="1" style="stop-color:#d90000;stop-opacity:1;"/>
</linearGradient>
</defs>
<g id="surface1">
<path style=" stroke:none;fill-rule:nonzero;fill:url(#linear0);" d="M 6.398438 52.402344 C 6.082031 52.3125 5.535156 51.886719 4.886719 51.230469 C 4.074219 50.402344 3.730469 49.902344 3.144531 48.707031 C -1.089844 40.007812 -1.039062 24.167969 3.25 15.488281 C 4.46875 13.015625 5.878906 11.613281 7.296875 11.453125 C 8.800781 11.285156 12.046875 12.582031 14.90625 14.496094 C 18.847656 17.132812 23.0625 21.191406 25.0625 24.277344 C 25.578125 25.070312 25.691406 25.382812 25.828125 26.40625 C 25.914062 27.070312 25.988281 28.109375 25.988281 28.722656 L 25.988281 29.835938 L 25.023438 29.429688 C 23.679688 28.859375 21.464844 28.199219 19.753906 27.855469 C 17.988281 27.503906 14.957031 27.226562 14.351562 27.363281 C 13.917969 27.464844 13.925781 27.472656 14.691406 27.664062 C 17.15625 28.285156 25.675781 31.0625 25.949219 31.335938 C 26.078125 31.464844 25.667969 34.785156 25.511719 34.886719 C 25.152344 35.113281 22.628906 35.882812 19.773438 36.640625 C 18.125 37.078125 16.742188 37.46875 16.699219 37.515625 C 16.65625 37.558594 16.910156 37.554688 17.265625 37.511719 C 17.617188 37.464844 18.839844 37.328125 19.980469 37.207031 C 21.121094 37.085938 22.777344 36.859375 23.65625 36.707031 C 24.539062 36.550781 25.285156 36.421875 25.316406 36.421875 C 25.421875 36.421875 24.988281 38.171875 24.535156 39.566406 C 24.019531 41.152344 23.890625 41.308594 20.964844 43.867188 C 15.671875 48.5 11.609375 51.316406 8.945312 52.207031 C 7.785156 52.59375 7.214844 52.636719 6.398438 52.402344 Z M 55.160156 52.34375 C 53.234375 51.835938 49.972656 49.882812 47.09375 47.507812 C 45.238281 45.980469 42.695312 43.621094 41.566406 42.386719 L 40.683594 41.417969 L 40.925781 40.457031 C 41.058594 39.929688 41.203125 38.929688 41.25 38.234375 C 41.328125 37.039062 41.347656 36.976562 41.632812 37.0625 C 43.539062 37.621094 46.03125 38.089844 48.867188 38.421875 C 49.613281 38.507812 50.417969 38.609375 50.65625 38.644531 C 51.074219 38.710938 51.074219 38.707031 50.726562 38.554688 C 50.53125 38.472656 49.113281 38.054688 47.582031 37.625 C 46.046875 37.199219 44.015625 36.589844 43.070312 36.269531 L 41.347656 35.6875 L 41.085938 33.660156 C 40.945312 32.546875 40.816406 31.476562 40.808594 31.277344 C 40.789062 30.957031 41.003906 30.8125 42.933594 29.820312 C 44.113281 29.214844 46.285156 28.15625 47.757812 27.472656 C 49.230469 26.785156 50.417969 26.207031 50.394531 26.183594 C 50.277344 26.066406 46.6875 27.128906 43.738281 28.148438 C 41.902344 28.785156 40.347656 29.25 40.289062 29.183594 C 40.230469 29.117188 40.066406 28.710938 39.929688 28.277344 C 39.792969 27.847656 39.460938 27.046875 39.199219 26.5 C 38.933594 25.953125 38.714844 25.453125 38.714844 25.382812 C 38.714844 25.3125 39.011719 24.792969 39.375 24.230469 C 41.71875 20.585938 46.710938 15.867188 50.734375 13.492188 C 53.105469 12.089844 55.695312 11.238281 56.886719 11.464844 C 58.230469 11.71875 59.554688 13.105469 60.738281 15.488281 C 62.957031 19.964844 64.1875 26.800781 63.976562 33.492188 C 63.789062 39.542969 62.675781 44.941406 60.84375 48.707031 C 60.257812 49.902344 59.914062 50.402344 59.101562 51.226562 C 57.757812 52.59375 56.957031 52.820312 55.160156 52.34375 Z M 30.640625 42.125 C 28.898438 41.871094 27.226562 41.207031 26.574219 40.511719 C 26.285156 40.207031 26.285156 40.199219 26.5625 39.136719 C 27.324219 36.195312 27.761719 31.261719 27.5625 27.847656 C 27.453125 26 27.464844 25.757812 27.675781 25.59375 C 28.460938 24.988281 32.667969 24.171875 34.1875 24.332031 C 35.203125 24.4375 36.082031 24.8125 36.597656 25.367188 C 37.484375 26.3125 38.578125 29.441406 39.097656 32.515625 C 39.464844 34.710938 39.460938 39.125 39.089844 40.378906 C 38.835938 41.222656 38.796875 41.273438 38.113281 41.566406 C 37.722656 41.734375 36.921875 41.964844 36.332031 42.078125 C 35.15625 42.300781 32.039062 42.328125 30.640625 42.125 Z M 30.640625 42.125 "/>
</g>
</svg>
