<svg xmlns="http://www.w3.org/2000/svg" xmlns:xlink="http://www.w3.org/1999/xlink" width="64" height="64" viewBox="0 0 64 64" version="1.1">
<g id="surface1">
<path style=" stroke:none;fill-rule:evenodd;fill:#ff6666;fill-opacity:1;" d="M 28.683594 28.457031 L 42.210938 28.457031 L 42.210938 31.867188 L 28.683594 31.867188 Z M 0.960938 7.875 C -0.34375 21.066406 -0.3125 41.585938 1.003906 55.800781 C 1.347656 59.53125 4.664062 62.8125 8.398438 63.117188 C 22.625 64.273438 42.953125 64.304688 55.738281 63.167969 C 59.476562 62.832031 62.78125 59.53125 63.121094 55.800781 C 63.496094 51.644531 64 41.058594 64 30.792969 C 64 20.609375 63.507812 10.738281 63.210938 7.925781 C 62.824219 4.195312 59.46875 0.980469 55.726562 0.753906 C 39.816406 -0.234375 19.558594 -0.21875 8.402344 0.613281 C 4.664062 0.890625 1.328125 4.144531 0.960938 7.875 Z M 18.539062 21.636719 L 18.539062 25.042969 L 20.230469 25.042969 C 21.175781 25.078125 21.921875 24.296875 21.921875 23.339844 C 21.921875 22.382812 21.175781 21.636719 20.230469 21.636719 Z M 15.15625 18.222656 L 15.15625 14.8125 L 13.46875 14.8125 C 12.519531 14.8125 11.777344 15.5625 11.777344 16.519531 C 11.777344 17.472656 12.519531 18.222656 13.46875 18.222656 Z M 18.539062 11.402344 L 18.539062 7.992188 L 15.15625 7.992188 L 15.15625 11.402344 L 13.46875 11.402344 C 10.660156 11.402344 8.390625 13.6875 8.390625 16.519531 C 8.390625 19.347656 10.660156 21.636719 13.46875 21.636719 L 15.15625 21.636719 L 15.15625 25.042969 L 8.695312 25.042969 C 9.40625 27.023438 11.269531 28.457031 13.46875 28.457031 L 15.15625 28.457031 L 15.15625 31.867188 L 18.539062 31.867188 L 18.539062 28.457031 L 20.230469 28.457031 C 23.035156 28.457031 25.304688 26.171875 25.304688 23.339844 C 25.304688 20.507812 23.035156 18.222656 20.230469 18.222656 L 18.539062 18.222656 L 18.539062 14.8125 L 25 14.8125 C 24.289062 12.835938 22.429688 11.402344 20.230469 11.402344 Z M 18.539062 11.402344 "/>
</g>
</svg>
