<svg xmlns="http://www.w3.org/2000/svg" xmlns:xlink="http://www.w3.org/1999/xlink" width="64" height="64" viewBox="0 0 64 64" version="1.1">
<g id="surface1">
<path style=" stroke:none;fill-rule:evenodd;fill:#ff6666;fill-opacity:1;" d="M 31.941406 8.339844 C 45.195312 8.339844 55.941406 19.113281 55.941406 32.394531 C 55.941406 45.683594 45.195312 56.457031 31.941406 56.457031 C 18.683594 56.457031 7.941406 45.683594 7.941406 32.394531 C 7.941406 19.113281 18.683594 8.339844 31.941406 8.339844 Z M 26.699219 4.820312 C 23.730469 5.382812 20.890625 6.421875 18.285156 7.878906 L 15.6875 4.777344 L 7.664062 11.613281 L 10.210938 14.660156 C 9.28125 15.808594 8.429688 17.039062 7.675781 18.347656 C 6.90625 19.679688 6.265625 21.046875 5.738281 22.441406 L 1.761719 21.734375 L 0 32.140625 L 3.941406 32.835938 C 3.996094 35.839844 4.535156 38.816406 5.519531 41.640625 L 1.96875 43.695312 L 7.289062 52.804688 L 10.796875 50.777344 C 12.707031 52.980469 14.992188 54.925781 17.625 56.496094 L 16.210938 60.390625 L 26.132812 63.9375 L 27.519531 60.109375 C 30.488281 60.589844 33.492188 60.574219 36.410156 60.109375 L 37.824219 64 L 47.695312 60.328125 L 46.3125 56.515625 C 48.84375 55.007812 51.160156 53.089844 53.144531 50.785156 L 56.695312 52.835938 L 61.902344 43.664062 L 58.40625 41.640625 C 59.402344 38.765625 59.902344 35.796875 59.941406 32.84375 L 64 32.128906 L 62.105469 21.746094 L 58.105469 22.453125 C 57.050781 19.679688 55.558594 17.0625 53.664062 14.71875 L 56.3125 11.558594 L 48.199219 4.828125 L 45.609375 7.925781 C 42.988281 6.449219 40.160156 5.410156 37.226562 4.84375 L 37.226562 0 L 26.699219 1.578125 Z M 31.941406 16.359375 C 40.777344 16.359375 47.941406 23.539062 47.941406 32.394531 C 47.941406 41.257812 40.777344 48.4375 31.941406 48.4375 C 23.105469 48.4375 15.941406 41.257812 15.941406 32.394531 C 15.941406 23.539062 23.105469 16.359375 31.941406 16.359375 Z M 30.53125 12.402344 C 23.898438 12.855469 17.929688 16.589844 14.605469 22.355469 C 9.105469 31.960938 12.386719 44.210938 21.949219 49.761719 C 31.511719 55.292969 43.734375 52.015625 49.269531 42.4375 C 54.769531 32.835938 51.484375 20.589844 41.925781 15.042969 C 38.476562 13.039062 34.507812 12.121094 30.53125 12.402344 Z M 30.53125 12.402344 "/>
</g>
</svg>
