<svg xmlns="http://www.w3.org/2000/svg" xmlns:xlink="http://www.w3.org/1999/xlink" width="64" height="64" viewBox="0 0 64 64" version="1.1">
<defs>
<linearGradient id="linear0" gradientUnits="userSpaceOnUse" x1="0" y1="0" x2="0" y2="1" gradientTransform="matrix(8.007812,0,0,8,47.992188,12)">
<stop offset="0" style="stop-color:#ff6666;stop-opacity:1;"/>
<stop offset="1" style="stop-color:#d90000;stop-opacity:1;"/>
</linearGradient>
<linearGradient id="linear1" gradientUnits="userSpaceOnUse" x1="0" y1="0" x2="0" y2="1" gradientTransform="matrix(48,0,0,36,8,24)">
<stop offset="0" style="stop-color:#ff6666;stop-opacity:1;"/>
<stop offset="1" style="stop-color:#d90000;stop-opacity:1;"/>
</linearGradient>
<linearGradient id="linear2" gradientUnits="userSpaceOnUse" x1="0" y1="0" x2="0" y2="1" gradientTransform="matrix(12,0,0,21.601562,32,35.199219)">
<stop offset="0" style="stop-color:#ff6666;stop-opacity:1;"/>
<stop offset="1" style="stop-color:#d90000;stop-opacity:1;"/>
</linearGradient>
</defs>
<g id="surface1">
<path style=" stroke:none;fill-rule:nonzero;fill:url(#linear0);" d="M 56 20 L 56 12 L 47.992188 12 Z M 56 20 "/>
<path style=" stroke:none;fill-rule:nonzero;fill:url(#linear1);" d="M 8 28 L 8 60 L 44 60 L 44 56 L 12 56 L 12 25.332031 Z M 52.007812 24 L 52 60 L 56 60 L 56 28 Z M 52.007812 24 "/>
<path style=" stroke:none;fill-rule:nonzero;fill:url(#linear2);" d="M 32 35.945312 C 32.804688 35.75 33.613281 35.589844 34.429688 35.457031 C 35.441406 35.285156 36.601562 35.199219 37.914062 35.199219 C 39.097656 35.199219 40.074219 35.371094 40.855469 35.714844 C 41.636719 36.035156 42.257812 36.503906 42.714844 37.117188 C 43.191406 37.703125 43.523438 38.421875 43.714844 39.257812 C 43.902344 40.097656 44 41.015625 44 42.027344 L 44 56.800781 L 32 56.800781 Z M 32 35.945312 "/>
<path style=" stroke:none;fill-rule:evenodd;fill:#ff6666;fill-opacity:1;" d="M 32 1.171875 L 0.585938 32.585938 L 3.414062 35.414062 L 32 6.828125 L 60.585938 35.414062 L 63.414062 32.585938 Z M 32 1.171875 "/>
</g>
</svg>
