<?xml version="1.0" encoding="UTF-8" standalone="no"?>
<svg
   viewBox="0 0 32 32"
   version="1.1"
   id="svg1"
   sodipodi:docname="system-reboot-update.svg"
   inkscape:version="1.3.2 (091e20ef0f, 2023-11-25)"
   width="32"
   height="32"
   xmlns:inkscape="http://www.inkscape.org/namespaces/inkscape"
   xmlns:sodipodi="http://sodipodi.sourceforge.net/DTD/sodipodi-0.dtd"
   xmlns:xlink="http://www.w3.org/1999/xlink"
   xmlns="http://www.w3.org/2000/svg"
   xmlns:svg="http://www.w3.org/2000/svg">
  <sodipodi:namedview
     id="namedview1"
     pagecolor="#ffffff"
     bordercolor="#000000"
     borderopacity="0.25"
     inkscape:showpageshadow="2"
     inkscape:pageopacity="0.0"
     inkscape:pagecheckerboard="0"
     inkscape:deskcolor="#d1d1d1"
     inkscape:zoom="12.326157"
     inkscape:cx="15.576631"
     inkscape:cy="22.391407"
     inkscape:window-width="1920"
     inkscape:window-height="1004"
     inkscape:window-x="0"
     inkscape:window-y="0"
     inkscape:window-maximized="1"
     inkscape:current-layer="svg1"
     showgrid="true">
    <inkscape:grid
       id="grid1"
       units="px"
       originx="9.0000001"
       originy="-17"
       spacingx="1"
       spacingy="1"
       empcolor="#0099e5"
       empopacity="0.30196078"
       color="#0099e5"
       opacity="0.14902"
       empspacing="5"
       dotted="false"
       gridanglex="30"
       gridanglez="30"
       visible="true" />
  </sodipodi:namedview>
  <defs
     id="defs1">
    <style
       type="text/css"
       id="style1">.ColorScheme-Text {
        color:#d8dee9;
      }
      .ColorScheme-Highlight {
        color:#88c0d0;
      }</style>
    <linearGradient
       inkscape:collect="always"
       xlink:href="#a-5"
       id="linearGradient1141"
       gradientUnits="userSpaceOnUse"
       x1="-4.4389915"
       y1="-79.303848"
       x2="-4.4704795"
       y2="-55.018158"
       gradientTransform="matrix(0.923077,0,0,0.923077,20.615381,77.846162)" />
    <linearGradient
       id="a-5"
       x1="16"
       x2="16"
       y1="1"
       y2="31"
       gradientUnits="userSpaceOnUse">
      <stop
         stop-color="#f4282c"
         offset="0"
         id="stop1009" />
      <stop
         stop-color="#fac136"
         offset="1"
         id="stop1011" />
    </linearGradient>
    <linearGradient
       inkscape:collect="always"
       xlink:href="#a-5"
       id="linearGradient1135"
       x1="6.1999998"
       y1="14.435682"
       x2="21.352779"
       y2="14.435682"
       gradientUnits="userSpaceOnUse"
       gradientTransform="matrix(1.0021999,0,0,1.0021968,-0.09056143,-0.0351552)" />
    <linearGradient
       inkscape:collect="always"
       xlink:href="#linearGradient1120"
       id="linearGradient1143"
       x1="10.64826"
       y1="17.5474"
       x2="25.82799"
       y2="17.5474"
       gradientUnits="userSpaceOnUse"
       gradientTransform="matrix(1.0021999,0,0,1.0021968,-0.09056143,-0.0351552)" />
    <linearGradient
       id="linearGradient1120"
       x1="16"
       x2="16"
       y1="1"
       y2="31"
       gradientUnits="userSpaceOnUse">
      <stop
         stop-color="#ff791d"
         offset="0"
         id="stop1115"
         style="stop-color:#ff5555;stop-opacity:1" />
      <stop
         stop-color="#f8c430"
         offset="1"
         id="stop1117"
         style="stop-color:#ffb380;stop-opacity:1" />
    </linearGradient>
    <linearGradient
       inkscape:collect="always"
       xlink:href="#a-5"
       id="linearGradient2"
       x1="21"
       y1="24"
       x2="29.080006"
       y2="24"
       gradientUnits="userSpaceOnUse" />
  </defs>
  <path
     style="color:#000000;overflow:visible;opacity:0;fill:none;fill-opacity:1;stroke-width:1.06667"
     id="path940"
     overflow="visible"
     d="M 16,0 C 7.1714099,0 0,7.1714129 0,16 0,24.828587 7.1714099,32 16,32 24.82752,32 32,24.828587 32,16 32,7.1724799 24.82859,0 16,0 Z"
     inkscape:connector-curvature="0" />
  <path
     d="m 3.9999987,15.986441 c 0,-0.641725 0.055754,-1.283435 0.167354,-1.925146 C 5.2272756,7.5325541 11.391559,3.0963593 17.918448,4.1565815 c 3.151878,0.5022102 5.941149,2.2320479 7.809952,4.8268032 1.868814,2.5947523 2.621916,5.7754283 2.119845,8.9281903 -1.059918,6.528741 -7.224205,10.992843 -13.751089,9.932612 -1.255181,-0.195301 -2.454557,-0.585904 -3.570264,-1.17182 C 10.247956,26.53286 9.9969252,26.393358 9.7458947,26.225958 9.3553958,25.974847 9.2159286,25.472644 9.4669686,25.082026 c 0.2510304,-0.390602 0.7531014,-0.530108 1.1436004,-0.279 0.223132,0.1395 0.446278,0.251102 0.669429,0.390604 0.948342,0.502218 2.008271,0.837026 3.068198,1.004423 5.606421,0.89282 10.933926,-2.929556 11.826485,-8.565477 C 26.62097,14.898308 25.97944,12.191956 24.361658,9.9320051 22.743882,7.699957 20.373,6.2212256 17.639526,5.774816 12.033099,4.8540972 6.7055928,8.7043792 5.8130232,14.312405 c -0.3904984,2.399447 0.08363,4.854703 1.310954,6.919341 C 7.3471225,21.622361 7.2355496,22.15247 6.845051,22.375674 6.4545528,22.59888 5.9245956,22.487277 5.7014508,22.096663 4.5857467,20.255229 3.9999987,18.13478 3.9999987,15.986441 Z"
     id="path2-5"
     style="fill:url(#linearGradient1141);fill-opacity:1;stroke-width:0.278972" />
  <path
     d="m 15.128113,9.023052 c -2.266641,0.3198508 -4.260923,1.694932 -5.3636654,3.696046 -0.326687,0.599046 -0.6328693,1.449922 -0.7350438,2.075959 l -0.088491,0.524193 -1.408913,0.03422 -1.4089218,0.03421 2.2461398,2.246127 2.2461252,2.246133 2.266649,-2.266632 2.259797,-2.259801 h -1.415744 c -1.620113,0 -1.524775,0.04778 -1.266087,-0.660208 0.551202,-1.476906 1.905775,-2.395807 3.553224,-2.402635 h 0.456195 v -0.544376 -0.544705 h -0.490373 c -0.721374,0 -1.368248,0.163339 -2.062289,0.503693 -1.354583,0.673873 -2.252969,1.776602 -2.620652,3.212852 -0.07488,0.29252 -0.136017,0.748703 -0.136017,1.027902 v 0.496516 h 0.694371 0.701225 l -0.95306,0.952718 -0.953057,0.953057 -0.9393956,-0.932569 -0.9325558,-0.939388 0.6127039,-0.02044 0.6127075,-0.02049 v -0.462713 c 0,-4.06374 3.968408,-6.8815646 7.854799,-5.581323 0.782887,0.258689 1.374751,0.612712 2.110137,1.259241 l 0.599041,0.524197 0.374524,-0.374523 0.367694,-0.367691 -0.503707,-0.47635 C 19.872926,10.064626 18.865527,9.5130999 17.578945,9.1864136 16.864071,9.0029116 15.76816,8.9345613 15.128123,9.0230664 Z"
     id="path8-3"
     style="fill:url(#linearGradient1135);fill-opacity:1;stroke-width:0.00341721" />
  <path
     d="m 19.035356,14.318697 c -1.225406,1.225065 -2.225974,2.246142 -2.225974,2.280295 0,0.02743 0.626377,0.04748 1.395248,0.04748 0.776055,0 1.395254,0.02742 1.395254,0.06119 0,0.21084 -0.313013,1.00056 -0.531037,1.340906 -0.694383,1.068562 -1.810437,1.660769 -3.124369,1.660769 h -0.564856 v 0.551195 0.558033 l 0.769208,-0.0342 c 0.878233,-0.04068 1.572262,-0.258671 2.259809,-0.7012 0.857722,-0.544366 1.681271,-1.531601 2.007963,-2.402636 0.18384,-0.469874 0.333522,-1.279746 0.340346,-1.769772 v -0.354018 h -0.64654 c -0.354023,0 -0.64654,-0.02052 -0.64654,-0.05427 0,-0.02743 0.415194,-0.462695 0.918894,-0.966386 l 0.918891,-0.918891 0.973224,0.97321 0.966387,0.9664 h -0.660206 -0.660196 l -0.0342,0.286013 c -0.02049,0.163347 -0.04748,0.537871 -0.06812,0.844048 -0.0342,0.585373 -0.286017,1.470089 -0.571692,2.035294 -0.959903,1.905776 -2.797674,3.083347 -4.982307,3.206012 -1.688109,0.09529 -3.165021,-0.442521 -4.36993,-1.592744 l -0.537537,-0.517366 -0.38785,0.395366 -0.388199,0.387848 0.496873,0.47636 c 0.871392,0.830381 1.926278,1.422585 3.137687,1.749269 0.898378,0.238177 2.395807,0.251848 3.274032,0.0342 2.770333,-0.701215 4.914298,-2.981165 5.377332,-5.724511 l 0.08167,-0.49002 h 1.422924 c 0.78289,0 1.422594,-0.0205 1.422594,-0.05427 0,-0.05428 -4.437941,-4.505925 -4.492268,-4.505925 -0.02052,0 -1.034743,1.000561 -2.266647,2.23246 z"
     id="path10-6"
     style="fill:url(#linearGradient1143);fill-opacity:1;stroke-width:0.00341721" />
  <ellipse
     style="fill:url(#linearGradient2);fill-opacity:1;fill-rule:evenodd;stroke:none;stroke-width:0.0180001;stroke-opacity:1"
     id="path32-7"
     cx="25.040003"
     cy="24"
     rx="4.0400033"
     ry="4" />
  <path
     d="m 25.982838,27.199991 c 0.130307,0 0.235636,-0.106192 0.235636,-0.237034 v -3.081483 h 1.413614 c 0.209014,0 0.315062,-0.255287 0.166597,-0.404631 l -2.592059,-2.607631 c -0.04409,-0.04436 -0.103916,-0.06921 -0.166592,-0.06921 -0.06274,0 -0.12231,0.02489 -0.166608,0.06942 l -2.592058,2.607647 c -0.147747,0.148388 -0.04409,0.404388 0.166594,0.404388 h 1.41409 v 3.081482 c 0,0.131082 0.105811,0.237033 0.235646,0.237033 z m -0.942804,-5.82803 z"
     id="path4-0"
     style="fill:#1a1a1a;fill-opacity:1;stroke-width:0.99998"
     sodipodi:nodetypes="sscsccsccscsssccccccc" />
</svg>
