<?xml version="1.0" encoding="UTF-8" standalone="no"?>
<svg
   viewBox="0 0 32 32"
   version="1.1"
   id="svg1"
   sodipodi:docname="system-switch-user.svg"
   width="32"
   height="32"
   inkscape:version="1.3.2 (091e20ef0f, 2023-11-25)"
   xmlns:inkscape="http://www.inkscape.org/namespaces/inkscape"
   xmlns:sodipodi="http://sodipodi.sourceforge.net/DTD/sodipodi-0.dtd"
   xmlns:xlink="http://www.w3.org/1999/xlink"
   xmlns="http://www.w3.org/2000/svg"
   xmlns:svg="http://www.w3.org/2000/svg">
  <sodipodi:namedview
     id="namedview1"
     pagecolor="#ffffff"
     bordercolor="#999999"
     borderopacity="1"
     inkscape:showpageshadow="2"
     inkscape:pageopacity="0"
     inkscape:pagecheckerboard="0"
     inkscape:deskcolor="#d1d1d1"
     inkscape:zoom="8.4189901"
     inkscape:cx="16.035177"
     inkscape:cy="25.299947"
     inkscape:window-width="1920"
     inkscape:window-height="994"
     inkscape:window-x="0"
     inkscape:window-y="0"
     inkscape:window-maximized="1"
     inkscape:current-layer="svg1" />
  <defs
     id="defs3051">
    <style
       type="text/css"
       id="current-color-scheme">
      .ColorScheme-Text {
        color:#fcfcfc;
      }
      </style>
    <linearGradient
       inkscape:collect="always"
       xlink:href="#linearGradient27"
       id="linearGradient15"
       x1="3"
       y1="16"
       x2="29"
       y2="16"
       gradientUnits="userSpaceOnUse"
       gradientTransform="matrix(0.92307693,0,0,0.92307693,1.2307677,1.2307767)" />
    <linearGradient
       id="linearGradient27"
       inkscape:collect="always">
      <stop
         style="stop-color:#fea75f;stop-opacity:1"
         offset="0"
         id="stop26" />
      <stop
         style="stop-color:#ff30ff;stop-opacity:1;"
         offset="1"
         id="stop27" />
    </linearGradient>
    <linearGradient
       inkscape:collect="always"
       xlink:href="#linearGradient27"
       id="linearGradient12"
       x1="7"
       y1="15.999997"
       x2="25"
       y2="15.999997"
       gradientUnits="userSpaceOnUse"
       gradientTransform="matrix(0.92307693,0,0,0.92307693,1.2307677,1.2307767)" />
  </defs>
  <circle
     style="opacity:0;fill:none;fill-opacity:1;stroke-width:1.06667"
     id="circle955"
     r="16"
     cy="-16"
     cx="16"
     transform="scale(1,-1)" />
  <path
     d="m 15.98644,28.000008 c -0.641702,0 -1.283389,-0.0563 -1.925135,-0.167374 C 7.5325432,26.772708 3.0963639,20.608438 4.1565786,14.081509 4.65881,10.929716 6.3886469,8.1403797 8.9834213,6.2716076 11.57812,4.4027631 14.758793,3.6496916 17.911545,4.1517718 c 6.528782,1.0598393 10.992898,7.2242102 9.932629,13.7510172 -0.195264,1.255234 -0.585878,2.454599 -1.171759,3.570369 -0.139538,0.27888 -0.279038,0.529905 -0.446436,0.780925 -0.251111,0.390505 -0.75331,0.529995 -1.143896,0.279015 -0.390644,-0.25109 -0.530087,-0.75317 -0.27902,-1.14367 0.139475,-0.22313 0.251078,-0.446295 0.390595,-0.669425 0.502179,-0.948395 0.836991,-2.00832 1.004418,-3.068204 C 27.090994,12.045389 23.268481,6.7179231 17.6326,5.8252671 14.898296,5.3789756 12.191996,6.0204831 9.9320314,7.6382997 7.699963,9.256139 6.2212091,11.626925 5.7747842,14.36043 4.8541231,19.966873 8.7043885,25.294403 14.31244,26.186945 c 2.399457,0.390518 4.854664,-0.08315 6.919312,-1.310896 0.390616,-0.223141 0.920738,-0.111344 1.143926,0.278854 0.223219,0.390512 0.111469,0.920555 -0.278961,1.143695 -1.841464,1.11563 -3.961904,1.70141 -6.110277,1.70141 z"
     id="path2-36-2-3"
     style="fill:url(#linearGradient15);stroke-width:0.92308" />
  <path
     d="m 24.307693,14.417705 c 0,-0.124643 -0.05801,-0.242073 -0.15775,-0.316845 l -4.747681,-3.560189 c -0.120512,-0.08981 -0.279964,-0.104483 -0.414122,-0.03728 -0.133738,0.06677 -0.21873,0.204119 -0.21873,0.354044 v 1.582309 h -4.747566 c -0.218386,0 -0.39561,0.177211 -0.39561,0.395561 0,0.218357 0.177251,0.395583 0.39561,0.395583 h 5.143172 c 0.218325,0 0.39557,-0.177234 0.39557,-0.395583 v -1.186712 l 3.692026,2.769014 -3.692026,2.769042 v -1.186747 c 0,-0.218357 -0.177245,-0.395559 -0.39557,-0.395559 h -5.934533 v -1.582297 c 0,-0.1498 -0.08512,-0.287198 -0.218688,-0.354057 -0.133742,-0.06735 -0.294372,-0.05267 -0.414225,0.03726 L 7.8500965,17.26543 c -0.099705,0.07483 -0.15779,0.192251 -0.15779,0.316859 0,0.124539 0.057969,0.242093 0.15779,0.316858 l 4.7473835,3.56018 c 0.120507,0.08984 0.280155,0.104479 0.414275,0.03725 0.133708,-0.06669 0.218696,-0.20411 0.218696,-0.354027 v -1.582298 h 4.747631 c 0.218336,0 0.395597,-0.177236 0.395597,-0.395582 0,-0.218338 -0.177261,-0.395566 -0.395597,-0.395566 h -5.143206 c -0.218328,0 -0.395578,0.177235 -0.395578,0.395566 V 20.3514 L 8.7473124,17.582361 12.439298,14.813344 v 1.186725 c 0,0.218354 0.17726,0.395577 0.395578,0.395577 h 5.934427 v 1.582298 c 0,0.149799 0.08512,0.28717 0.218753,0.354031 0.133744,0.06735 0.294404,0.05266 0.41416,-0.03725 l 4.747625,-3.560176 c 0.09971,-0.07483 0.157798,-0.19226 0.157798,-0.316857 z"
     id="path1"
     style="fill:url(#linearGradient12);fill-opacity:1;stroke-width:0.395592" />
</svg>
