<?xml version="1.0" encoding="UTF-8" standalone="no"?>
<svg
   viewBox="0 0 32 32"
   version="1.1"
   id="svg1"
   sodipodi:docname="system-shutdown-update.svg"
   width="32"
   height="32"
   inkscape:version="1.3.2 (091e20ef0f, 2023-11-25)"
   xmlns:inkscape="http://www.inkscape.org/namespaces/inkscape"
   xmlns:sodipodi="http://sodipodi.sourceforge.net/DTD/sodipodi-0.dtd"
   xmlns:xlink="http://www.w3.org/1999/xlink"
   xmlns="http://www.w3.org/2000/svg"
   xmlns:svg="http://www.w3.org/2000/svg">
  <sodipodi:namedview
     id="namedview1"
     pagecolor="#ffffff"
     bordercolor="#999999"
     borderopacity="1"
     inkscape:showpageshadow="2"
     inkscape:pageopacity="0"
     inkscape:pagecheckerboard="0"
     inkscape:deskcolor="#d1d1d1"
     inkscape:zoom="8.4189901"
     inkscape:cx="12.709363"
     inkscape:cy="37.059077"
     inkscape:window-width="1920"
     inkscape:window-height="1004"
     inkscape:window-x="0"
     inkscape:window-y="0"
     inkscape:window-maximized="1"
     inkscape:current-layer="svg1"
     showgrid="true">
    <inkscape:grid
       id="grid1"
       units="px"
       originx="0"
       originy="0"
       spacingx="1"
       spacingy="1"
       empcolor="#0099e5"
       empopacity="0.30196078"
       color="#0099e5"
       opacity="0.14902"
       empspacing="5"
       dotted="false"
       gridanglex="30"
       gridanglez="30"
       visible="true" />
  </sodipodi:namedview>
  <defs
     id="defs3051">
    <style
       type="text/css"
       id="current-color-scheme">.ColorScheme-Text {color:#fcfcfc;}</style>
    <linearGradient
       inkscape:collect="always"
       xlink:href="#linearGradient23"
       id="linearGradient2"
       x1="29"
       y1="-99"
       x2="49"
       y2="-90"
       gradientUnits="userSpaceOnUse"
       gradientTransform="matrix(0.92307689,0,0,0.92307689,-22.769233,107.38459)" />
    <linearGradient
       id="linearGradient23"
       inkscape:collect="always">
      <stop
         style="stop-color:#d63384;stop-opacity:1"
         offset="0"
         id="stop22" />
      <stop
         style="stop-color:#2ad4ff;stop-opacity:1"
         offset="1"
         id="stop23" />
    </linearGradient>
    <linearGradient
       inkscape:collect="always"
       xlink:href="#linearGradient23"
       id="linearGradient5"
       x1="34.099998"
       y1="-97.909706"
       x2="50.027"
       y2="-97.909706"
       gradientUnits="userSpaceOnUse"
       gradientTransform="matrix(0.92307689,0,0,0.92307689,-22.769233,107.38459)" />
    <linearGradient
       inkscape:collect="always"
       xlink:href="#linearGradient23"
       id="linearGradient11"
       x1="40.333"
       y1="-101.1"
       x2="43.999668"
       y2="-101.1"
       gradientUnits="userSpaceOnUse"
       gradientTransform="matrix(0.92307689,0,0,0.92307689,-22.769233,107.38459)" />
    <linearGradient
       inkscape:collect="always"
       xlink:href="#linearGradient23"
       id="linearGradient2-2"
       x1="21"
       y1="24"
       x2="29.080006"
       y2="24"
       gradientUnits="userSpaceOnUse" />
    <linearGradient
       id="a-5"
       x1="16"
       x2="16"
       y1="1"
       y2="31"
       gradientUnits="userSpaceOnUse">
      <stop
         stop-color="#f4282c"
         offset="0"
         id="stop1009" />
      <stop
         stop-color="#fac136"
         offset="1"
         id="stop1011" />
    </linearGradient>
  </defs>
  <path
     style="color:#000000;overflow:visible;opacity:0;fill:none;fill-opacity:1;stroke-width:1.06667"
     id="path945"
     overflow="visible"
     d="M 16,0 C 7.17141,0 0,7.17141 0,16 0,24.828587 7.17141,32 16,32 24.82859,32 32,24.828587 32,16 32,7.17141 24.82859,0 16,0 Z"
     inkscape:connector-curvature="0" />
  <path
     d="m 3.9999976,15.986444 c 0,-0.641728 0.05582,-1.283438 0.167359,-1.925143 C 5.2272716,7.5325568 11.391561,3.0963598 17.91844,4.1565848 c 3.151882,0.502206 5.94115,2.232045 7.809956,4.826807 1.868806,2.5947492 2.621918,5.7754202 2.119846,8.9281822 -1.059922,6.528744 -7.224205,10.992845 -13.751093,9.932608 -1.255176,-0.195296 -2.454554,-0.585898 -3.57026,-1.171814 -0.278928,-0.139507 -0.5299614,-0.27901 -0.7809954,-0.44641 -0.390499,-0.251114 -0.529965,-0.753315 -0.278931,-1.143932 0.251034,-0.390604 0.7531014,-0.530111 1.1436004,-0.278998 0.223138,0.139499 0.446277,0.251097 0.669427,0.390604 0.948346,0.502216 2.008273,0.837019 3.068193,1.004417 5.606427,0.892819 10.933933,-2.929557 11.826493,-8.56547 0.44629,-2.734272 -0.195249,-5.440617 -1.813024,-7.7005712 -1.617776,-2.232044 -3.988655,-3.710774 -6.722129,-4.157183 -5.606429,-0.920723 -10.9339334,2.929554 -11.8264994,8.5375772 -0.390495,2.399448 0.08365,4.854701 1.310949,6.919348 0.22315,0.39061 0.111576,0.920716 -0.278921,1.143922 -0.390496,0.223205 -0.920456,0.111607 -1.143601,-0.27901 -1.115712,-1.841429 -1.701453,-3.961883 -1.701453,-6.110218 z"
     id="path2-53"
     style="fill:url(#linearGradient2);stroke-width:0.92308" />
  <path
     d="m 16.058619,22.429368 c -3.5466,0 -6.4320689,-2.885466 -6.4320689,-6.432065 0,-1.718235 0.6691659,-3.333378 1.8839129,-4.547882 0.179406,-0.179416 0.179406,-0.470239 0,-0.649875 -0.179174,-0.179412 -0.469997,-0.179181 -0.649872,0 -1.3881762,1.388177 -2.1528998,3.233955 -2.1528998,5.197757 0,4.053345 3.2975848,7.350924 7.3509278,7.350924 4.05335,0 7.350918,-3.297579 7.350918,-7.350924 0,-1.964035 -0.764725,-3.810278 -2.153589,-5.198215 -0.179404,-0.179175 -0.470461,-0.179407 -0.64987,0 -0.179174,0.179413 -0.179174,0.470454 2.3e-4,0.64987 1.215206,1.214504 1.884366,2.82988 1.884366,4.548345 0,3.546599 -2.885473,6.432065 -6.432055,6.432065 z"
     id="path2-5-5"
     style="fill:url(#linearGradient5);stroke-width:0.92308" />
  <path
     d="m 17.507381,8.9846172 h -2.707692 c -0.177213,1.83e-5 -0.338442,0.1612424 -0.338453,0.3384643 v 9.4769125 c 1.1e-5,0.177227 0.16124,0.338447 0.338453,0.338467 h 2.707692 c 0.177221,-2e-5 0.338448,-0.16124 0.338467,-0.338467 V 9.3230815 C 17.836548,9.1329832 17.65985,8.9887795 17.507381,8.9846172 Z M 17.168924,9.661537 v 8.80001 h -2.030773 v -8.80001 z"
     fill-opacity="1"
     stroke="none"
     marker="none"
     visibility="visible"
     display="inline"
     overflow="visible"
     id="path2-0"
     style="fill:url(#linearGradient11);stroke-width:0.92308" />
  <ellipse
     style="fill:url(#linearGradient2-2);fill-opacity:1;fill-rule:evenodd;stroke:none;stroke-width:0.0180001;stroke-opacity:1"
     id="path32-7"
     cx="25.040003"
     cy="24"
     rx="4.0400033"
     ry="4" />
  <path
     d="m 25.982841,27.19999 c 0.130307,0 0.235636,-0.106192 0.235636,-0.237034 v -3.081483 h 1.413614 c 0.209014,0 0.315062,-0.255287 0.166597,-0.404631 l -2.592059,-2.607631 c -0.04409,-0.04436 -0.103916,-0.06921 -0.166592,-0.06921 -0.06274,0 -0.12231,0.02489 -0.166608,0.06942 l -2.592058,2.607647 c -0.147747,0.148388 -0.04409,0.404388 0.166594,0.404388 h 1.41409 v 3.081482 c 0,0.131082 0.105811,0.237033 0.235646,0.237033 z m -0.942804,-5.82803 z"
     id="path4-0"
     style="fill:#1a1a1a;fill-opacity:1;stroke-width:0.99998"
     sodipodi:nodetypes="sscsccsccscsssccccccc" />
</svg>
