<?xml version="1.0" encoding="UTF-8" standalone="no"?>
<svg
   width="22"
   height="22"
   viewBox="0 0 22 22"
   fill="none"
   version="1.1"
   id="svg2"
   sodipodi:docname="elisa-symbolic.svg"
   inkscape:version="1.3.2 (091e20ef0f, 2023-11-25)"
   xmlns:inkscape="http://www.inkscape.org/namespaces/inkscape"
   xmlns:sodipodi="http://sodipodi.sourceforge.net/DTD/sodipodi-0.dtd"
   xmlns="http://www.w3.org/2000/svg"
   xmlns:svg="http://www.w3.org/2000/svg">
  <defs
     id="defs2" />
  <sodipodi:namedview
     id="namedview2"
     pagecolor="#ffffff"
     bordercolor="#999999"
     borderopacity="1"
     inkscape:showpageshadow="2"
     inkscape:pageopacity="0"
     inkscape:pagecheckerboard="0"
     inkscape:deskcolor="#d1d1d1"
     inkscape:zoom="11.90625"
     inkscape:cx="11.338583"
     inkscape:cy="6.5511811"
     inkscape:window-width="1920"
     inkscape:window-height="994"
     inkscape:window-x="0"
     inkscape:window-y="0"
     inkscape:window-maximized="1"
     inkscape:current-layer="svg2" />
  <style
     type="text/css"
     id="current-color-scheme">.ColorScheme-Text { color: #fcfcfc; } </style>
  <g
     id="22-22-elisa"
     style="fill:#d3dae3;fill-opacity:1">
    <rect
       style="opacity:0.00100002;fill:#d3dae3;fill-opacity:1"
       width="22"
       height="22"
       x="0"
       y="0"
       id="rect2" />
    <path
       style="color:#d5c289;fill:#d3dae3;fill-opacity:1;stroke-width:1"
       class="ColorScheme-Text"
       d="M 11,3 C 6.576,3 3,6.576 3,10.999999 3,15.424 6.576,19 11,19 15.424,19 19,15.424 19,10.999999 19,6.576 15.424,3 11,3 Z m 0,1 c 3.869987,0 7,3.13 7,6.999999 C 18,14.869987 14.869987,18 11,18 7.129987,18 4,14.869987 4,10.999999 4,7.13 7.129987,4 11,4 Z m 0.749987,5.718999 v 0 0 0 0 0 c 0,0 -0.03394,0.008 0,0 z m -0.780994,4.500003 z"
       id="path58-36-5"
       sodipodi:nodetypes="ssssssssssccccccccccccccccc" />
    <path
       d="M 14.681836,7 H 7.3284175 C 7.1451558,7 6.9962711,6.68425 6.9962711,6.5 6.9962711,6.31625 7.1317383,6 7.315,6 h 7.35674 c 0.183261,0 0.296115,0.31625 0.296115,0.5 0,0.18425 -0.102758,0.5 -0.286019,0.5 z M 6,8 h 4.649877 c 0.183593,0 0.332145,0.31575 0.332145,0.5 0,0.183917 -0.148552,0.5 -0.332145,0.5 H 6 C 5.8164064,9 5.6678545,8.683917 5.6678545,8.5 5.6678545,8.31575 5.8164064,8 6,8 Z m 0,2 h 4.648405 c 0.183593,0 0.333616,0.31575 0.333616,0.5 0,0.18425 -0.104807,0.5 -0.288399,0.5 H 6 C 5.8164064,11 5.6678545,10.68425 5.6678545,10.5 5.6678545,10.31575 5.8164064,10 6,10 Z m 0,2 h 1.9928749 c 0.1832618,0 0.3319801,0.316084 0.3319801,0.5 0,0.18425 -0.1487183,0.5 -0.3319801,0.5 H 6 C 5.8164064,13 5.6678545,12.68425 5.6678545,12.5 5.6678545,12.316084 5.8164064,12 6,12 Z"
       id="path2-3-0"
       style="fill:#d3dae3;fill-opacity:1;stroke-width:0.0207962"
       sodipodi:nodetypes="cccccccccccccccccccccccccccc" />
    <path
       style="color:#31363b;fill:#00b2b2;fill-opacity:1;stroke:none;stroke-width:0.666667"
       d="m 12.600379,6.333333 v 7.363282 c -0.55812,-0.2408 -1.206216,-0.175724 -1.897136,0.110677 -1.156506,0.478933 -1.81963,1.528785 -1.48177,2.345052 0.337853,0.816534 1.550258,1.091179 2.707031,0.611979 0.912507,-0.378934 1.471354,-1.363698 1.471354,-1.957031 V 9 c 0,0 2.134115,0.266407 2.134115,2.399739 0,1.6 -0.533888,2.134115 -1.867188,3.467448 1.3333,-0.8 2.39974,-1.867448 2.39974,-3.467448 0,-2.133332 -1.646122,-3.092722 -2.067709,-3.514322 C 13.732156,7.61875 13.399858,6.600261 13.399858,6.600261 Z"
       class="ColorScheme-Text"
       id="path9-4" />
  </g>
</svg>
