<?xml version="1.0" encoding="UTF-8" standalone="no"?>
<svg
   id="svg7"
   version="1.1"
   viewBox="0 0 22 22"
   sodipodi:docname="system-suspend-inhibited.svg"
   inkscape:version="1.3.2 (091e20ef0f, 2023-11-25)"
   xmlns:inkscape="http://www.inkscape.org/namespaces/inkscape"
   xmlns:sodipodi="http://sodipodi.sourceforge.net/DTD/sodipodi-0.dtd"
   xmlns="http://www.w3.org/2000/svg"
   xmlns:svg="http://www.w3.org/2000/svg">
  <defs
     id="defs1" />
  <sodipodi:namedview
     id="namedview1"
     pagecolor="#ffffff"
     bordercolor="#999999"
     borderopacity="1"
     inkscape:showpageshadow="2"
     inkscape:pageopacity="0"
     inkscape:pagecheckerboard="0"
     inkscape:deskcolor="#d1d1d1"
     inkscape:zoom="17.613636"
     inkscape:cx="22.369033"
     inkscape:cy="10.247742"
     inkscape:window-width="1920"
     inkscape:window-height="1007"
     inkscape:window-x="0"
     inkscape:window-y="0"
     inkscape:window-maximized="1"
     inkscape:current-layer="svg7" />
  <style
     id="current-color-scheme"
     type="text/css">.ColorScheme-Text {
            color:#232629;
        }
        .ColorScheme-NegativeText {
            color:#da4453;
        }</style>
  <path
     d="m 11.968769,13.069564 c -0.644763,0 -1.248606,-0.175746 -1.768114,-0.481686 H 7.6999205 c -0.063135,0 -0.1134473,-0.0517 -0.1134473,-0.11371 0,-0.06321 0.051619,-0.113693 0.1134473,-0.113693 H 9.8601131 C 9.0163264,11.720592 8.4711519,10.706926 8.4711519,9.5677794 c 0,-0.836807 0.2995284,-1.646542 0.8425455,-2.280619 0.3592117,-0.418324 0.8097556,-0.744208 1.3106586,-0.953946 -2.3977475,0.192127 -4.2910696,2.209138 -4.2910696,4.6595546 0,2.577159 2.0934031,4.673857 4.6665846,4.673857 1.165575,0 2.232738,-0.430046 3.050612,-1.140285 h -3.962209 c -0.06318,0 -0.1135379,-0.05168 -0.1135379,-0.113703 0,-0.06326 0.05155,-0.113602 0.1135379,-0.113602 h 4.206923 c 0.846032,-0.84609 1.371492,-2.015765 1.371492,-3.306077 0,-0.471104 -0.06798,-0.928198 -0.202411,-1.3677086 -0.0294,1.9044376 -1.586762,3.4443786 -3.49531,3.4443786 z"
     id="path4-7-1"
     style="color:#d6dbf1;fill:#ffd42a;fill-opacity:1;fill-rule:nonzero;stroke:none;stroke-width:0.0241994;stroke-opacity:1"
     class="ColorScheme-Text" />
  <path
     d="M 5.339005,16.649805 C 2.1947185,13.503521 2.2204451,8.3680354 5.41619,5.2543194 c 2.9766736,-2.900288 7.773473,-3.018838 10.880128,-0.258404 2.722068,2.418688 3.444488,6.2721966 1.913076,9.4542216 -0.183805,0.3819 -0.664977,0.513017 -1.02708,0.29306 -0.324649,-0.197235 -0.434375,-0.607123 -0.271163,-0.950296 1.261791,-2.653108 0.61435,-5.8691196 -1.722695,-7.8315196 -2.370509,-1.990503 -5.8875903,-2.023993 -8.2935751,-0.07655 -3.0685473,2.483671 -3.2443724,7.0173386 -0.5274684,9.7359546 1.9800206,1.981291 4.9533155,2.470242 7.4332795,1.286955 0.340923,-0.162661 0.748322,-0.05073 0.944329,0.272307 l 0.002,0.0024 c 0.218512,0.360837 0.08952,0.841326 -0.290858,1.024854 -3.037788,1.465444 -6.6887091,0.872306 -9.1171409,-1.557658 z"
     id="path1-0-9-8-0"
     style="fill:#ffd42a;fill-opacity:1;stroke-width:0.290958" />
  <path
     d="m 16.655583,14.153 c -0.98043,0 -1.769724,0.805978 -1.769724,1.797334 v 0.857209 H 14.001 v 3.539455 h 5.309179 v -3.539455 h -0.88486 v -0.857209 c 0,-0.990963 -0.7893,-1.797334 -1.769736,-1.797334 z m 0,0.884861 c 0.490228,0 0.88487,0.391464 0.88487,0.884861 v 0.884867 h -1.769728 v -0.884867 c 0,-0.493397 0.39465,-0.884861 0.884858,-0.884861 z"
     id="path2"
     style="fill:#c83771;fill-opacity:1;stroke-width:1" />
</svg>
