<?xml version="1.0" encoding="UTF-8" standalone="no"?>
<svg
   viewBox="0 0 22 22"
   version="1.1"
   id="svg1"
   sodipodi:docname="system-log-out-rtl.svg"
   width="22"
   height="22"
   inkscape:version="1.3.2 (091e20ef0f, 2023-11-25)"
   xmlns:inkscape="http://www.inkscape.org/namespaces/inkscape"
   xmlns:sodipodi="http://sodipodi.sourceforge.net/DTD/sodipodi-0.dtd"
   xmlns:xlink="http://www.w3.org/1999/xlink"
   xmlns="http://www.w3.org/2000/svg"
   xmlns:svg="http://www.w3.org/2000/svg">
  <sodipodi:namedview
     id="namedview1"
     pagecolor="#ffffff"
     bordercolor="#999999"
     borderopacity="1"
     inkscape:showpageshadow="2"
     inkscape:pageopacity="0"
     inkscape:pagecheckerboard="0"
     inkscape:deskcolor="#d1d1d1"
     inkscape:zoom="12.245804"
     inkscape:cx="10.534221"
     inkscape:cy="-2.1231762"
     inkscape:window-width="1920"
     inkscape:window-height="994"
     inkscape:window-x="0"
     inkscape:window-y="0"
     inkscape:window-maximized="1"
     inkscape:current-layer="svg1" />
  <defs
     id="defs3051">
    <style
       type="text/css"
       id="current-color-scheme">.ColorScheme-Text {color:#fcfcfc;}</style>
    <linearGradient
       inkscape:collect="always"
       xlink:href="#linearGradient19"
       id="linearGradient1133"
       gradientUnits="userSpaceOnUse"
       gradientTransform="matrix(0,-0.76944925,0.76923093,0,0.999999,21.000003)"
       x1="5.6218852e-09"
       y1="13"
       x2="25.992626"
       y2="13" />
    <linearGradient
       id="linearGradient19"
       inkscape:collect="always">
      <stop
         style="stop-color:#ffd42a;stop-opacity:1"
         offset="0"
         id="stop18" />
      <stop
         style="stop-color:#00ccff;stop-opacity:1"
         offset="1"
         id="stop19" />
    </linearGradient>
    <linearGradient
       inkscape:collect="always"
       xlink:href="#linearGradient19"
       id="linearGradient1087"
       x1="5.5095949"
       y1="11.004683"
       x2="16.378988"
       y2="11.004683"
       gradientUnits="userSpaceOnUse"
       gradientTransform="matrix(0.79071244,0,0,0.79071247,2.343486,2.2484602)" />
  </defs>
  <g
     id="22-22-system-log-out"
     transform="rotate(-90,11,11)">
    <path
       style="fill:none"
       d="M 0,0 V 22 H 22 V 0 Z"
       id="path29" />
    <path
       d="M 1,10.9887 C 1,10.453928 1.04646,9.919166 1.139465,9.38441 2.022726,3.943792 7.159635,0.24696828 12.598705,1.1304842 c 2.626571,0.418507 4.950964,1.860039 6.5083,4.0223392 1.557338,2.1622924 2.18492,4.8128586 1.766538,7.4401506 -0.883264,5.44062 -6.020176,9.160712 -11.459243,8.27718 C 8.368313,20.707405 7.368835,20.381901 6.439076,19.893645 6.206635,19.777384 5.997443,19.661132 5.788251,19.521635 5.462835,19.312374 5.346611,18.893878 5.555811,18.568352 c 0.20919,-0.325494 0.62758,-0.441748 0.953,-0.232494 0.18594,0.116246 0.371892,0.209246 0.557855,0.325504 0.790285,0.418516 1.673563,0.697524 2.556827,0.837012 4.672021,0.74402 9.111608,-2.441291 9.855408,-7.137891 C 19.850815,10.081921 19.316205,7.8266309 17.96805,5.9433386 16.6199,4.0832999 14.644167,2.8510233 12.366276,2.4790149 7.694251,1.7117456 3.254665,4.9203151 2.510855,9.593673 c -0.325413,1.999539 0.06971,4.045582 1.092455,5.766111 0.185965,0.325516 0.09298,0.767272 -0.232427,0.953282 -0.325418,0.186 -0.767048,0.09297 -0.953,-0.232514 C 1.488117,14.546031 1,12.778983 1,10.9887 Z"
       id="path2-75-6"
       style="fill:url(#linearGradient1133);fill-opacity:1;stroke-width:0.232478" />
    <path
       d="m 15.29449,6.9966644 c -1.41e-4,0.015166 -0.0015,0.030299 -0.004,0.045259 l -0.845502,5.4349916 c -0.03667,0.240627 -0.335215,0.336835 -0.50822,0.163778 l -1.056753,-1.045319 -3.3811576,3.344963 c -0.3502238,0.346217 -0.9179373,0.346217 -1.2681611,0 L 6.9625908,13.68572 c -0.3501211,-0.346322 -0.3501211,-0.907711 0,-1.254033 L 10.34509,9.0870302 9.2879881,8.0420066 C 9.1129401,7.8708293 9.210445,7.5755071 9.4539154,7.5394472 L 14.950168,6.7034336 c 0.181038,-0.027525 0.344313,0.1109471 0.344385,0.2920717 z m -0.657694,0.3535639 z"
       id="path8-2"
       style="fill:url(#linearGradient1087);stroke-width:0.297285"
       sodipodi:nodetypes="ccccccccccccccccccc" />
  </g>
</svg>
